<svg xmlns="http://www.w3.org/2000/svg" width="256" height="256" viewBox="0 0 256 256"><defs><linearGradient id="blue" x1="0" y1="0" x2="0.35" y2="1"><stop offset="0" stop-color="#9ED3FF"/><stop offset="0.45" stop-color="#3B9BFF"/><stop offset="1" stop-color="#1F6BD0"/></linearGradient><linearGradient id="green" x1="0" y1="0" x2="0.35" y2="1"><stop offset="0" stop-color="#A8F5BE"/><stop offset="0.45" stop-color="#3DD66B"/><stop offset="1" stop-color="#1E9E47"/></linearGradient><linearGradient id="red" x1="0" y1="0" x2="0.35" y2="1"><stop offset="0" stop-color="#FFA3A3"/><stop offset="0.45" stop-color="#FF4D4D"/><stop offset="1" stop-color="#C9283A"/></linearGradient><linearGradient id="gold" x1="0" y1="0" x2="0.35" y2="1"><stop offset="0" stop-color="#FFF1A0"/><stop offset="0.45" stop-color="#FFC928"/><stop offset="1" stop-color="#DB8E00"/></linearGradient><linearGradient id="wood" x1="0" y1="0" x2="0.35" y2="1"><stop offset="0" stop-color="#FFD9A0"/><stop offset="0.45" stop-color="#E7A35C"/><stop offset="1" stop-color="#A8622A"/></linearGradient><linearGradient id="darkwood" x1="0" y1="0" x2="0.35" y2="1"><stop offset="0" stop-color="#C07A45"/><stop offset="0.45" stop-color="#8A4B22"/><stop offset="1" stop-color="#5E3014"/></linearGradient><linearGradient id="white" x1="0" y1="0" x2="0.35" y2="1"><stop offset="0" stop-color="#FFFFFF"/><stop offset="0.45" stop-color="#F4F8FF"/><stop offset="1" stop-color="#C9D6EA"/></linearGradient><linearGradient id="grey" x1="0" y1="0" x2="0.35" y2="1"><stop offset="0" stop-color="#E4E9F2"/><stop offset="0.45" stop-color="#AEB8C8"/><stop offset="1" stop-color="#7B869A"/></linearGradient><linearGradient id="steel" x1="0" y1="0" x2="0.35" y2="1"><stop offset="0" stop-color="#D8E6F7"/><stop offset="0.45" stop-color="#9FB2CC"/><stop offset="1" stop-color="#6A7D98"/></linearGradient><linearGradient id="cloth" x1="0" y1="0" x2="0.35" y2="1"><stop offset="0" stop-color="#6FE08E"/><stop offset="0.45" stop-color="#2FA24F"/><stop offset="1" stop-color="#1C7A37"/></linearGradient><linearGradient id="sad" x1="0" y1="0" x2="0.35" y2="1"><stop offset="0" stop-color="#C4D4EE"/><stop offset="0.45" stop-color="#8EA3C7"/><stop offset="1" stop-color="#5E7299"/></linearGradient><linearGradient id="purple" x1="0" y1="0" x2="0.35" y2="1"><stop offset="0" stop-color="#D7B8FF"/><stop offset="0.45" stop-color="#A259FF"/><stop offset="1" stop-color="#6E2FD0"/></linearGradient><radialGradient id="shine" cx="0.5" cy="0.5" r="0.5"><stop offset="0" stop-color="#FFFFFF" stop-opacity="0.9"/><stop offset="1" stop-color="#FFFFFF" stop-opacity="0"/></radialGradient>
<filter id="ink" x="-30%" y="-30%" width="160%" height="160%" color-interpolation-filters="sRGB">
  <feGaussianBlur in="SourceAlpha" stdDeviation="6.92" result="blur"/>
  <feComponentTransfer in="blur" result="grown"><feFuncA type="linear" slope="7" intercept="-0.35"/></feComponentTransfer>
  <feOffset in="grown" dy="6" result="lip"/>
  <feMerge result="both"><feMergeNode in="lip"/><feMergeNode in="grown"/></feMerge>
  <feFlood flood-color="#1B2033"/>
  <feComposite in2="both" operator="in" result="outline"/>
  <feMerge><feMergeNode in="outline"/><feMergeNode in="SourceGraphic"/></feMerge>
</filter></defs><g filter="url(#ink)"><defs><linearGradient id="calHead" x1="0" y1="0" x2="0.2" y2="1"><stop offset="0.00" stop-color="#FF9A9A"/><stop offset="0.50" stop-color="#FF4D4D"/><stop offset="1.00" stop-color="#C9283A"/></linearGradient><linearGradient id="calFlame" x1="0" y1="0" x2="0" y2="1"><stop offset="0.00" stop-color="#FFE14D"/><stop offset="0.50" stop-color="#FF9F1C"/><stop offset="1.00" stop-color="#FF4D4D"/></linearGradient></defs><rect x="30" y="46" width="196" height="180" rx="24" fill="url(#white)"/><path d="M30 102 L30 70 A24 24 0 0 1 54 46 L202 46 A24 24 0 0 1 226 70 L226 102 Z" fill="url(#calHead)"/><path d="M30.0 102.0 L226.0 102.0" fill="none" stroke="#1B2033" stroke-width="5" stroke-linecap="round" stroke-linejoin="round" /><ellipse cx="66" cy="64" rx="22" ry="7" fill="url(#shine)" opacity="0.7" transform="rotate(-6 66 64)"/><rect x="73" y="24" width="18" height="40" rx="9" fill="url(#steel)" stroke="#1B2033" stroke-width="4"/><rect x="165" y="24" width="18" height="40" rx="9" fill="url(#steel)" stroke="#1B2033" stroke-width="4"/><rect x="48" y="114" width="48" height="44" rx="11" fill="url(#green)"/><path d="M60.0 137.0 L69.0 146.0 L84.0 127.0" fill="none" stroke="#FFFFFF" stroke-width="6" stroke-linecap="round" stroke-linejoin="round" /><rect x="104" y="114" width="48" height="44" rx="11" fill="url(#green)"/><path d="M116.0 137.0 L125.0 146.0 L140.0 127.0" fill="none" stroke="#FFFFFF" stroke-width="6" stroke-linecap="round" stroke-linejoin="round" /><rect x="160" y="114" width="48" height="44" rx="11" fill="url(#green)"/><path d="M172.0 137.0 L181.0 146.0 L196.0 127.0" fill="none" stroke="#FFFFFF" stroke-width="6" stroke-linecap="round" stroke-linejoin="round" /><rect x="48" y="166" width="48" height="44" rx="11" fill="url(#green)"/><path d="M60.0 189.0 L69.0 198.0 L84.0 179.0" fill="none" stroke="#FFFFFF" stroke-width="6" stroke-linecap="round" stroke-linejoin="round" /><rect x="104" y="166" width="48" height="44" rx="11" fill="#FFF1C2" stroke="#FF9F1C" stroke-width="4"/><path d="M128 171 C142 184 144 194 140 200 C136 207 120 207 116 200 C112 192 118 186 122 190 C122 182 126 178 128 171 Z" fill="url(#calFlame)" stroke="#1B2033" stroke-width="3.5" stroke-linejoin="round"/><rect x="160" y="166" width="48" height="44" rx="11" fill="#DCE4F0"/></g></svg>