<svg xmlns="http://www.w3.org/2000/svg" width="256" height="256" viewBox="0 0 256 256"><defs><linearGradient id="blue" x1="0" y1="0" x2="0.35" y2="1"><stop offset="0" stop-color="#9ED3FF"/><stop offset="0.45" stop-color="#3B9BFF"/><stop offset="1" stop-color="#1F6BD0"/></linearGradient><linearGradient id="green" x1="0" y1="0" x2="0.35" y2="1"><stop offset="0" stop-color="#A8F5BE"/><stop offset="0.45" stop-color="#3DD66B"/><stop offset="1" stop-color="#1E9E47"/></linearGradient><linearGradient id="red" x1="0" y1="0" x2="0.35" y2="1"><stop offset="0" stop-color="#FFA3A3"/><stop offset="0.45" stop-color="#FF4D4D"/><stop offset="1" stop-color="#C9283A"/></linearGradient><linearGradient id="gold" x1="0" y1="0" x2="0.35" y2="1"><stop offset="0" stop-color="#FFF1A0"/><stop offset="0.45" stop-color="#FFC928"/><stop offset="1" stop-color="#DB8E00"/></linearGradient><linearGradient id="wood" x1="0" y1="0" x2="0.35" y2="1"><stop offset="0" stop-color="#FFD9A0"/><stop offset="0.45" stop-color="#E7A35C"/><stop offset="1" stop-color="#A8622A"/></linearGradient><linearGradient id="darkwood" x1="0" y1="0" x2="0.35" y2="1"><stop offset="0" stop-color="#C07A45"/><stop offset="0.45" stop-color="#8A4B22"/><stop offset="1" stop-color="#5E3014"/></linearGradient><linearGradient id="white" x1="0" y1="0" x2="0.35" y2="1"><stop offset="0" stop-color="#FFFFFF"/><stop offset="0.45" stop-color="#F4F8FF"/><stop offset="1" stop-color="#C9D6EA"/></linearGradient><linearGradient id="grey" x1="0" y1="0" x2="0.35" y2="1"><stop offset="0" stop-color="#E4E9F2"/><stop offset="0.45" stop-color="#AEB8C8"/><stop offset="1" stop-color="#7B869A"/></linearGradient><linearGradient id="steel" x1="0" y1="0" x2="0.35" y2="1"><stop offset="0" stop-color="#D8E6F7"/><stop offset="0.45" stop-color="#9FB2CC"/><stop offset="1" stop-color="#6A7D98"/></linearGradient><linearGradient id="cloth" x1="0" y1="0" x2="0.35" y2="1"><stop offset="0" stop-color="#6FE08E"/><stop offset="0.45" stop-color="#2FA24F"/><stop offset="1" stop-color="#1C7A37"/></linearGradient><linearGradient id="sad" x1="0" y1="0" x2="0.35" y2="1"><stop offset="0" stop-color="#C4D4EE"/><stop offset="0.45" stop-color="#8EA3C7"/><stop offset="1" stop-color="#5E7299"/></linearGradient><linearGradient id="purple" x1="0" y1="0" x2="0.35" y2="1"><stop offset="0" stop-color="#D7B8FF"/><stop offset="0.45" stop-color="#A259FF"/><stop offset="1" stop-color="#6E2FD0"/></linearGradient><radialGradient id="shine" cx="0.5" cy="0.5" r="0.5"><stop offset="0" stop-color="#FFFFFF" stop-opacity="0.9"/><stop offset="1" stop-color="#FFFFFF" stop-opacity="0"/></radialGradient>
<filter id="ink" x="-30%" y="-30%" width="160%" height="160%" color-interpolation-filters="sRGB">
  <feGaussianBlur in="SourceAlpha" stdDeviation="6.92" result="blur"/>
  <feComponentTransfer in="blur" result="grown"><feFuncA type="linear" slope="7" intercept="-0.35"/></feComponentTransfer>
  <feOffset in="grown" dy="6" result="lip"/>
  <feMerge result="both"><feMergeNode in="lip"/><feMergeNode in="grown"/></feMerge>
  <feFlood flood-color="#1B2033"/>
  <feComposite in2="both" operator="in" result="outline"/>
  <feMerge><feMergeNode in="outline"/><feMergeNode in="SourceGraphic"/></feMerge>
</filter></defs><g filter="url(#ink)"><defs><linearGradient id="caseLid" x1="0" y1="0" x2="0.2" y2="1"><stop offset="0" stop-color="#F4F9FF"/><stop offset="0.5" stop-color="#C3DCF6"/><stop offset="1" stop-color="#93B6DE"/></linearGradient><linearGradient id="caseFront" x1="0" y1="0" x2="0.25" y2="1"><stop offset="0" stop-color="#D9EAFC"/><stop offset="0.5" stop-color="#A6C6EA"/><stop offset="1" stop-color="#7A9DC8"/></linearGradient><linearGradient id="caseSide" x1="0" y1="0" x2="0.3" y2="1"><stop offset="0" stop-color="#9DBBDF"/><stop offset="1" stop-color="#5F80AC"/></linearGradient><linearGradient id="caseEnd" x1="0" y1="0" x2="0.3" y2="1"><stop offset="0" stop-color="#C9DDF4"/><stop offset="1" stop-color="#86A6D0"/></linearGradient><linearGradient id="caseStrap" x1="0" y1="0" x2="0.3" y2="1"><stop offset="0" stop-color="#7E9CC4"/><stop offset="1" stop-color="#48648E"/></linearGradient></defs><path d="M29.7 123.4 L178.8 123.4 L178.8 209.8 L29.7 209.8 Z" fill="#48648E" stroke="#48648E" stroke-width="3" stroke-linejoin="round"/><path d="M178.8 123.4 L226.3 93.1 L226.3 179.5 L178.8 209.8 Z" fill="#48648E" stroke="#48648E" stroke-width="3" stroke-linejoin="round"/><path d="M29.7 123.4 L30.3 111.0 L32.1 98.4 L34.9 86.4 L38.7 75.4 L43.2 66.1 L48.2 59.0 L53.5 54.2 L202.5 54.2 L197.2 59.0 L192.2 66.1 L187.7 75.4 L183.9 86.4 L181.1 98.4 L179.4 111.0 L178.8 123.4 Z" fill="#48648E" stroke="#48648E" stroke-width="3" stroke-linejoin="round"/><path d="M178.8 123.4 L179.4 111.0 L181.1 98.4 L183.9 86.4 L187.7 75.4 L192.2 66.1 L197.2 59.0 L202.5 54.2 L207.8 52.2 L212.8 53.0 L217.3 56.6 L221.1 62.8 L223.9 71.2 L225.7 81.5 L226.3 93.1 Z" fill="#48648E" stroke="#48648E" stroke-width="3" stroke-linejoin="round"/><path d="M178.8 123.4 L226.3 93.1 L226.3 179.5 L178.8 209.8 Z" fill="url(#caseSide)"/><path d="M29.7 123.4 L178.8 123.4 L178.8 209.8 L29.7 209.8 Z" fill="url(#caseFront)"/><path d="M178.8 123.4 L179.4 111.0 L181.1 98.4 L183.9 86.4 L187.7 75.4 L192.2 66.1 L197.2 59.0 L202.5 54.2 L207.8 52.2 L212.8 53.0 L217.3 56.6 L221.1 62.8 L223.9 71.2 L225.7 81.5 L226.3 93.1 Z" fill="url(#caseEnd)"/><path d="M29.7 123.4 L30.3 111.0 L32.1 98.4 L34.9 86.4 L38.7 75.4 L43.2 66.1 L48.2 59.0 L53.5 54.2 L202.5 54.2 L197.2 59.0 L192.2 66.1 L187.7 75.4 L183.9 86.4 L181.1 98.4 L179.4 111.0 L178.8 123.4 Z" fill="url(#caseLid)"/><path d="M49.2 123.4 L49.8 111.0 L51.5 98.4 L54.3 86.4 L58.1 75.4 L62.6 66.1 L67.6 59.0 L72.9 54.2 L89.1 54.2 L83.8 59.0 L78.8 66.1 L74.3 75.4 L70.5 86.4 L67.7 98.4 L66.0 111.0 L65.4 123.4 Z M49.2 123.4 L65.4 123.4 L65.4 209.8 L49.2 209.8 Z" fill="url(#caseStrap)"/><path d="M143.1 123.4 L143.7 111.0 L145.5 98.4 L148.3 86.4 L152.1 75.4 L156.6 66.1 L161.6 59.0 L166.9 54.2 L183.1 54.2 L177.8 59.0 L172.8 66.1 L168.3 75.4 L164.5 86.4 L161.7 98.4 L159.9 111.0 L159.3 123.4 Z M143.1 123.4 L159.3 123.4 L159.3 209.8 L143.1 209.8 Z" fill="url(#caseStrap)"/><path d="M29.7 109.3 L178.8 109.3 L178.8 123.4 L29.7 123.4 Z" fill="#6F8FBA"/><path d="M33.0 112.0 L175.5 112.0" fill="none" stroke="#FFFFFF" stroke-width="2.5" stroke-linecap="round" stroke-linejoin="round" opacity="0.45"/><path d="M178.8 109.3 L226.3 79.1 L226.3 93.1 L178.8 123.4 Z" fill="#48648E"/><path d="M29.7 123.4 L178.8 123.4 L226.3 93.1" fill="none" stroke="#1B2033" stroke-width="5" stroke-linecap="round" stroke-linejoin="round" /><path d="M178.8 123.4 L178.8 209.8" fill="none" stroke="#1B2033" stroke-width="4" stroke-linecap="round" stroke-linejoin="round" opacity="0.55"/><path d="M178.8 123.4 L179.4 111.0 L181.1 98.4 L183.9 86.4 L187.7 75.4 L192.2 66.1 L197.2 59.0 L202.5 54.2" fill="none" stroke="#1B2033" stroke-width="4" stroke-linecap="round" stroke-linejoin="round" opacity="0.55"/><path d="M38.4 72.6 L170.1 72.6" fill="none" stroke="#FFFFFF" stroke-width="4" stroke-linecap="round" stroke-linejoin="round" opacity="0.7"/><rect x="88.0" y="112.6" width="32.4" height="38.9" rx="8.6" fill="url(#gold)" stroke="#1B2033" stroke-width="5"/><circle cx="104.2" cy="126.6" r="5.4" fill="#1B2033"/><path d="M104.2 128.8 L104.2 139.6" fill="none" stroke="#1B2033" stroke-width="5" stroke-linecap="round" stroke-linejoin="round" /><ellipse cx="72.91999999999999" cy="84.47999999999999" rx="26" ry="8" fill="url(#shine)" opacity="0.8" transform="rotate(-4 72.91999999999999 84.47999999999999)"/><ellipse cx="62.11999999999999" cy="151.44" rx="14" ry="22" fill="url(#shine)" opacity="0.35" transform="rotate(0 62.11999999999999 151.44)"/><ellipse cx="96.68" cy="119.03999999999999" rx="6" ry="4" fill="url(#shine)" opacity="0.8" transform="rotate(-30 96.68 119.03999999999999)"/></g></svg>