<svg xmlns="http://www.w3.org/2000/svg" width="256" height="256" viewBox="0 0 256 256"><defs>
<filter id="cueInk" x="-30%" y="-30%" width="160%" height="160%" color-interpolation-filters="sRGB">
  <feGaussianBlur in="SourceAlpha" stdDeviation="5.38" result="blur"/>
  <feComponentTransfer in="blur" result="grown"><feFuncA type="linear" slope="7" intercept="-0.35"/></feComponentTransfer>
  <feOffset in="grown" dy="4" result="lip"/>
  <feMerge result="both"><feMergeNode in="lip"/><feMergeNode in="grown"/></feMerge>
  <feFlood flood-color="#1B2033"/>
  <feComposite in2="both" operator="in" result="outline"/>
  <feMerge><feMergeNode in="outline"/><feMergeNode in="SourceGraphic"/></feMerge>
</filter></defs><path d="M59.2 217.3 L58.1 218.4 L57.1 219.5 L56.0 220.7 L55.0 221.8 L53.9 222.9 L52.8 224.1 L51.8 225.2 L50.7 226.3 L49.7 227.5 L48.6 228.6 L47.6 229.2 L46.2 229.4 L44.5 229.2 L42.5 228.5 L40.4 227.4 L38.1 226.0 L35.9 224.2 L33.8 222.2 L31.8 220.1 L30.0 217.9 L28.6 215.6 L27.5 213.5 L26.8 211.5 L26.6 209.8 L26.8 208.4 L27.4 207.4 L28.5 206.3 L29.7 205.3 L30.8 204.2 L31.9 203.2 L33.1 202.1 L34.2 201.0 L35.3 200.0 L36.5 198.9 L37.6 197.9 L38.7 196.8 Z" fill="#FFFFFF"/></svg>