<svg xmlns="http://www.w3.org/2000/svg" width="256" height="256" viewBox="0 0 256 256"><defs><linearGradient id="blue" x1="0" y1="0" x2="0.35" y2="1"><stop offset="0" stop-color="#9ED3FF"/><stop offset="0.45" stop-color="#3B9BFF"/><stop offset="1" stop-color="#1F6BD0"/></linearGradient><linearGradient id="green" x1="0" y1="0" x2="0.35" y2="1"><stop offset="0" stop-color="#A8F5BE"/><stop offset="0.45" stop-color="#3DD66B"/><stop offset="1" stop-color="#1E9E47"/></linearGradient><linearGradient id="red" x1="0" y1="0" x2="0.35" y2="1"><stop offset="0" stop-color="#FFA3A3"/><stop offset="0.45" stop-color="#FF4D4D"/><stop offset="1" stop-color="#C9283A"/></linearGradient><linearGradient id="gold" x1="0" y1="0" x2="0.35" y2="1"><stop offset="0" stop-color="#FFF1A0"/><stop offset="0.45" stop-color="#FFC928"/><stop offset="1" stop-color="#DB8E00"/></linearGradient><linearGradient id="wood" x1="0" y1="0" x2="0.35" y2="1"><stop offset="0" stop-color="#FFD9A0"/><stop offset="0.45" stop-color="#E7A35C"/><stop offset="1" stop-color="#A8622A"/></linearGradient><linearGradient id="darkwood" x1="0" y1="0" x2="0.35" y2="1"><stop offset="0" stop-color="#C07A45"/><stop offset="0.45" stop-color="#8A4B22"/><stop offset="1" stop-color="#5E3014"/></linearGradient><linearGradient id="white" x1="0" y1="0" x2="0.35" y2="1"><stop offset="0" stop-color="#FFFFFF"/><stop offset="0.45" stop-color="#F4F8FF"/><stop offset="1" stop-color="#C9D6EA"/></linearGradient><linearGradient id="grey" x1="0" y1="0" x2="0.35" y2="1"><stop offset="0" stop-color="#E4E9F2"/><stop offset="0.45" stop-color="#AEB8C8"/><stop offset="1" stop-color="#7B869A"/></linearGradient><linearGradient id="steel" x1="0" y1="0" x2="0.35" y2="1"><stop offset="0" stop-color="#D8E6F7"/><stop offset="0.45" stop-color="#9FB2CC"/><stop offset="1" stop-color="#6A7D98"/></linearGradient><linearGradient id="cloth" x1="0" y1="0" x2="0.35" y2="1"><stop offset="0" stop-color="#6FE08E"/><stop offset="0.45" stop-color="#2FA24F"/><stop offset="1" stop-color="#1C7A37"/></linearGradient><linearGradient id="sad" x1="0" y1="0" x2="0.35" y2="1"><stop offset="0" stop-color="#C4D4EE"/><stop offset="0.45" stop-color="#8EA3C7"/><stop offset="1" stop-color="#5E7299"/></linearGradient><linearGradient id="purple" x1="0" y1="0" x2="0.35" y2="1"><stop offset="0" stop-color="#D7B8FF"/><stop offset="0.45" stop-color="#A259FF"/><stop offset="1" stop-color="#6E2FD0"/></linearGradient><radialGradient id="shine" cx="0.5" cy="0.5" r="0.5"><stop offset="0" stop-color="#FFFFFF" stop-opacity="0.9"/><stop offset="1" stop-color="#FFFFFF" stop-opacity="0"/></radialGradient>
<filter id="ink" x="-30%" y="-30%" width="160%" height="160%" color-interpolation-filters="sRGB">
  <feGaussianBlur in="SourceAlpha" stdDeviation="6.92" result="blur"/>
  <feComponentTransfer in="blur" result="grown"><feFuncA type="linear" slope="7" intercept="-0.35"/></feComponentTransfer>
  <feOffset in="grown" dy="6" result="lip"/>
  <feMerge result="both"><feMergeNode in="lip"/><feMergeNode in="grown"/></feMerge>
  <feFlood flood-color="#1B2033"/>
  <feComposite in2="both" operator="in" result="outline"/>
  <feMerge><feMergeNode in="outline"/><feMergeNode in="SourceGraphic"/></feMerge>
</filter></defs><g filter="url(#ink)"><defs><linearGradient id="cashTop" x1="0" y1="1" x2="1" y2="0"><stop offset="0" stop-color="#5DAE4E"/><stop offset="0.45" stop-color="#86DC7B"/><stop offset="1" stop-color="#D2F7CF"/></linearGradient><linearGradient id="cashLeft" x1="0" y1="0" x2="0" y2="1"><stop offset="0" stop-color="#447A3D"/><stop offset="1" stop-color="#2A5224"/></linearGradient><linearGradient id="cashRight" x1="0" y1="0" x2="1" y2="1"><stop offset="0" stop-color="#346530"/><stop offset="1" stop-color="#1C3D17"/></linearGradient><linearGradient id="cashBand" x1="0" y1="0" x2="0" y2="1"><stop offset="0" stop-color="#FCFDEC"/><stop offset="1" stop-color="#E4F1BA"/></linearGradient><linearGradient id="cashBandSide" x1="0" y1="0" x2="0" y2="1"><stop offset="0" stop-color="#BFD3A4"/><stop offset="1" stop-color="#97AF80"/></linearGradient></defs><path d="M25.2 147.9 L110.0 104.6 L164.0 127.5 L164.0 143.0 L79.2 186.4 L25.2 163.5 Z" fill="#2A5224"/><g transform="matrix(53.98 22.88 0 15.55 25.18 147.92)"><rect width="1" height="1" fill="url(#cashLeft)"/><path d="M0 0.1 L1 0.1" stroke="#8FD684" stroke-width="2.5" opacity="0.45" vector-effect="non-scaling-stroke" fill="none"/><path d="M0 0.42 L1 0.42" stroke="#77B86C" stroke-width="2" opacity="0.28" vector-effect="non-scaling-stroke" fill="none"/><path d="M0 0.72 L1 0.72" stroke="#77B86C" stroke-width="2" opacity="0.2" vector-effect="non-scaling-stroke" fill="none"/></g><g transform="matrix(84.79 -43.31 0 15.55 79.17 170.80)"><rect width="1" height="1" fill="url(#cashRight)"/><path d="M0 0.1 L1 0.1" stroke="#8FD684" stroke-width="2.5" opacity="0.45" vector-effect="non-scaling-stroke" fill="none"/><path d="M0 0.42 L1 0.42" stroke="#6AAA60" stroke-width="2" opacity="0.28" vector-effect="non-scaling-stroke" fill="none"/><path d="M0 0.72 L1 0.72" stroke="#6AAA60" stroke-width="2" opacity="0.2" vector-effect="non-scaling-stroke" fill="none"/><rect x="0.42000000000000004" y="0" width="0.035" height="1" fill="#0E250B" opacity="0.28"/><rect x="0.455" y="0" width="0.166" height="1.02" fill="url(#cashBandSide)"/></g><g transform="matrix(84.79 -43.31 53.98 22.88 25.18 147.92)"><rect width="1" height="1" fill="url(#cashTop)"/><path d="M0.085 0.11 L0.9149999999999999 0.11 Q0.9149999999999999 0.195 0.95 0.195 L0.95 0.805 Q0.9149999999999999 0.805 0.9149999999999999 0.89 L0.085 0.89 Q0.085 0.805 0.05 0.805 L0.05 0.195 Q0.085 0.195 0.085 0.11 Z" stroke="#4FA047" stroke-width="2" vector-effect="non-scaling-stroke" fill="none"/><ellipse cx="0.5" cy="0.5" rx="0.18" ry="0.29" stroke="#4FA047" stroke-width="2" vector-effect="non-scaling-stroke" fill="none"/><rect x="0.455" y="-0.035" width="0.160" height="1.035" fill="url(#cashBand)"/><path d="M0.455 -0.035 L0.455 1 M0.615 -0.035 L0.615 1" stroke="#9FBC86" stroke-width="1.5" opacity="0.8" vector-effect="non-scaling-stroke" fill="none"/><path d="M0.455 1 L0.615 1" stroke="#FFFFFF" stroke-width="2.5" opacity="0.7" vector-effect="non-scaling-stroke" fill="none"/></g><path d="M79.2 173.1 L79.2 184.0" fill="none" stroke="#FFFFFF" stroke-width="3" stroke-linecap="round" stroke-linejoin="round" opacity="0.4"/><ellipse cx="111.909725" cy="121.280925" rx="22.8933" ry="6.222" fill="url(#shine)" opacity="0.45" transform="rotate(-27 111.909725 121.280925)"/><path d="M25.2 147.9 L110.0 104.6 L164.0 127.5 L164.0 143.0 L79.2 186.4 L25.2 163.5 Z" fill="none" stroke="#1B2033" stroke-width="4.5" stroke-linejoin="round"/><path d="M92.0 166.7 L176.8 123.4 L230.8 146.3 L230.8 161.9 L146.0 205.2 L92.0 182.3 Z" fill="#2A5224"/><g transform="matrix(53.98 22.88 0 15.55 92.04 166.74)"><rect width="1" height="1" fill="url(#cashLeft)"/><path d="M0 0.1 L1 0.1" stroke="#8FD684" stroke-width="2.5" opacity="0.45" vector-effect="non-scaling-stroke" fill="none"/><path d="M0 0.42 L1 0.42" stroke="#77B86C" stroke-width="2" opacity="0.28" vector-effect="non-scaling-stroke" fill="none"/><path d="M0 0.72 L1 0.72" stroke="#77B86C" stroke-width="2" opacity="0.2" vector-effect="non-scaling-stroke" fill="none"/></g><g transform="matrix(84.79 -43.31 0 15.55 146.03 189.62)"><rect width="1" height="1" fill="url(#cashRight)"/><path d="M0 0.1 L1 0.1" stroke="#8FD684" stroke-width="2.5" opacity="0.45" vector-effect="non-scaling-stroke" fill="none"/><path d="M0 0.42 L1 0.42" stroke="#6AAA60" stroke-width="2" opacity="0.28" vector-effect="non-scaling-stroke" fill="none"/><path d="M0 0.72 L1 0.72" stroke="#6AAA60" stroke-width="2" opacity="0.2" vector-effect="non-scaling-stroke" fill="none"/><rect x="0.42000000000000004" y="0" width="0.035" height="1" fill="#0E250B" opacity="0.28"/><rect x="0.455" y="0" width="0.166" height="1.02" fill="url(#cashBandSide)"/></g><g transform="matrix(84.79 -43.31 53.98 22.88 92.04 166.74)"><rect width="1" height="1" fill="url(#cashTop)"/><path d="M0.085 0.11 L0.9149999999999999 0.11 Q0.9149999999999999 0.195 0.95 0.195 L0.95 0.805 Q0.9149999999999999 0.805 0.9149999999999999 0.89 L0.085 0.89 Q0.085 0.805 0.05 0.805 L0.05 0.195 Q0.085 0.195 0.085 0.11 Z" stroke="#4FA047" stroke-width="2" vector-effect="non-scaling-stroke" fill="none"/><ellipse cx="0.5" cy="0.5" rx="0.18" ry="0.29" stroke="#4FA047" stroke-width="2" vector-effect="non-scaling-stroke" fill="none"/><rect x="0.455" y="-0.035" width="0.160" height="1.035" fill="url(#cashBand)"/><path d="M0.455 -0.035 L0.455 1 M0.615 -0.035 L0.615 1" stroke="#9FBC86" stroke-width="1.5" opacity="0.8" vector-effect="non-scaling-stroke" fill="none"/><path d="M0.455 1 L0.615 1" stroke="#FFFFFF" stroke-width="2.5" opacity="0.7" vector-effect="non-scaling-stroke" fill="none"/></g><path d="M146.0 192.0 L146.0 202.8" fill="none" stroke="#FFFFFF" stroke-width="3" stroke-linecap="round" stroke-linejoin="round" opacity="0.4"/><ellipse cx="178.76877499999998" cy="140.102475" rx="22.8933" ry="6.222" fill="url(#shine)" opacity="0.45" transform="rotate(-27 178.76877499999998 140.102475)"/><path d="M92.0 166.7 L176.8 123.4 L230.8 146.3 L230.8 161.9 L146.0 205.2 L92.0 182.3 Z" fill="none" stroke="#1B2033" stroke-width="4.5" stroke-linejoin="round"/><path d="M26.9 131.5 L111.7 88.2 L165.7 111.1 L165.7 126.6 L80.9 169.9 L26.9 147.1 Z" fill="#2A5224"/><g transform="matrix(53.99 22.88 0 15.55 26.88 131.50)"><rect width="1" height="1" fill="url(#cashLeft)"/><path d="M0 0.1 L1 0.1" stroke="#8FD684" stroke-width="2.5" opacity="0.45" vector-effect="non-scaling-stroke" fill="none"/><path d="M0 0.42 L1 0.42" stroke="#77B86C" stroke-width="2" opacity="0.28" vector-effect="non-scaling-stroke" fill="none"/><path d="M0 0.72 L1 0.72" stroke="#77B86C" stroke-width="2" opacity="0.2" vector-effect="non-scaling-stroke" fill="none"/></g><g transform="matrix(84.79 -43.31 0 15.55 80.86 154.38)"><rect width="1" height="1" fill="url(#cashRight)"/><path d="M0 0.1 L1 0.1" stroke="#8FD684" stroke-width="2.5" opacity="0.45" vector-effect="non-scaling-stroke" fill="none"/><path d="M0 0.42 L1 0.42" stroke="#6AAA60" stroke-width="2" opacity="0.28" vector-effect="non-scaling-stroke" fill="none"/><path d="M0 0.72 L1 0.72" stroke="#6AAA60" stroke-width="2" opacity="0.2" vector-effect="non-scaling-stroke" fill="none"/><rect x="0.42000000000000004" y="0" width="0.035" height="1" fill="#0E250B" opacity="0.28"/><rect x="0.455" y="0" width="0.166" height="1.02" fill="url(#cashBandSide)"/></g><g transform="matrix(84.79 -43.31 53.99 22.88 26.88 131.50)"><rect width="1" height="1" fill="url(#cashTop)"/><path d="M0.085 0.11 L0.9149999999999999 0.11 Q0.9149999999999999 0.195 0.95 0.195 L0.95 0.805 Q0.9149999999999999 0.805 0.9149999999999999 0.89 L0.085 0.89 Q0.085 0.805 0.05 0.805 L0.05 0.195 Q0.085 0.195 0.085 0.11 Z" stroke="#4FA047" stroke-width="2" vector-effect="non-scaling-stroke" fill="none"/><ellipse cx="0.5" cy="0.5" rx="0.18" ry="0.29" stroke="#4FA047" stroke-width="2" vector-effect="non-scaling-stroke" fill="none"/><rect x="0.455" y="-0.035" width="0.160" height="1.035" fill="url(#cashBand)"/><path d="M0.455 -0.035 L0.455 1 M0.615 -0.035 L0.615 1" stroke="#9FBC86" stroke-width="1.5" opacity="0.8" vector-effect="non-scaling-stroke" fill="none"/><path d="M0.455 1 L0.615 1" stroke="#FFFFFF" stroke-width="2.5" opacity="0.7" vector-effect="non-scaling-stroke" fill="none"/></g><path d="M80.9 156.7 L80.9 167.6" fill="none" stroke="#FFFFFF" stroke-width="3" stroke-linecap="round" stroke-linejoin="round" opacity="0.4"/><ellipse cx="113.60552499999999" cy="104.859725" rx="22.8933" ry="6.222" fill="url(#shine)" opacity="0.45" transform="rotate(-27 113.60552499999999 104.859725)"/><path d="M26.9 131.5 L111.7 88.2 L165.7 111.1 L165.7 126.6 L80.9 169.9 L26.9 147.1 Z" fill="none" stroke="#1B2033" stroke-width="4.5" stroke-linejoin="round"/><path d="M93.7 150.3 L178.5 107.0 L232.5 129.9 L232.5 145.4 L147.7 188.8 L93.7 165.9 Z" fill="#2A5224"/><g transform="matrix(53.98 22.88 0 15.55 93.74 150.32)"><rect width="1" height="1" fill="url(#cashLeft)"/><path d="M0 0.1 L1 0.1" stroke="#8FD684" stroke-width="2.5" opacity="0.45" vector-effect="non-scaling-stroke" fill="none"/><path d="M0 0.42 L1 0.42" stroke="#77B86C" stroke-width="2" opacity="0.28" vector-effect="non-scaling-stroke" fill="none"/><path d="M0 0.72 L1 0.72" stroke="#77B86C" stroke-width="2" opacity="0.2" vector-effect="non-scaling-stroke" fill="none"/></g><g transform="matrix(84.79 -43.31 0 15.55 147.72 173.20)"><rect width="1" height="1" fill="url(#cashRight)"/><path d="M0 0.1 L1 0.1" stroke="#8FD684" stroke-width="2.5" opacity="0.45" vector-effect="non-scaling-stroke" fill="none"/><path d="M0 0.42 L1 0.42" stroke="#6AAA60" stroke-width="2" opacity="0.28" vector-effect="non-scaling-stroke" fill="none"/><path d="M0 0.72 L1 0.72" stroke="#6AAA60" stroke-width="2" opacity="0.2" vector-effect="non-scaling-stroke" fill="none"/><rect x="0.42000000000000004" y="0" width="0.035" height="1" fill="#0E250B" opacity="0.28"/><rect x="0.455" y="0" width="0.166" height="1.02" fill="url(#cashBandSide)"/></g><g transform="matrix(84.79 -43.31 53.98 22.88 93.74 150.32)"><rect width="1" height="1" fill="url(#cashTop)"/><path d="M0.085 0.11 L0.9149999999999999 0.11 Q0.9149999999999999 0.195 0.95 0.195 L0.95 0.805 Q0.9149999999999999 0.805 0.9149999999999999 0.89 L0.085 0.89 Q0.085 0.805 0.05 0.805 L0.05 0.195 Q0.085 0.195 0.085 0.11 Z" stroke="#4FA047" stroke-width="2" vector-effect="non-scaling-stroke" fill="none"/><ellipse cx="0.5" cy="0.5" rx="0.18" ry="0.29" stroke="#4FA047" stroke-width="2" vector-effect="non-scaling-stroke" fill="none"/><rect x="0.455" y="-0.035" width="0.160" height="1.035" fill="url(#cashBand)"/><path d="M0.455 -0.035 L0.455 1 M0.615 -0.035 L0.615 1" stroke="#9FBC86" stroke-width="1.5" opacity="0.8" vector-effect="non-scaling-stroke" fill="none"/><path d="M0.455 1 L0.615 1" stroke="#FFFFFF" stroke-width="2.5" opacity="0.7" vector-effect="non-scaling-stroke" fill="none"/></g><path d="M147.7 175.5 L147.7 186.4" fill="none" stroke="#FFFFFF" stroke-width="3" stroke-linecap="round" stroke-linejoin="round" opacity="0.4"/><ellipse cx="180.464575" cy="123.681275" rx="22.893300000000004" ry="6.222" fill="url(#shine)" opacity="0.45" transform="rotate(-27 180.464575 123.681275)"/><path d="M93.7 150.3 L178.5 107.0 L232.5 129.9 L232.5 145.4 L147.7 188.8 L93.7 165.9 Z" fill="none" stroke="#1B2033" stroke-width="4.5" stroke-linejoin="round"/><path d="M23.5 117.7 L108.3 74.4 L162.3 97.2 L162.3 112.8 L77.5 156.1 L23.5 133.2 Z" fill="#2A5224"/><g transform="matrix(53.98 22.88 0 15.55 23.49 117.68)"><rect width="1" height="1" fill="url(#cashLeft)"/><path d="M0 0.1 L1 0.1" stroke="#8FD684" stroke-width="2.5" opacity="0.45" vector-effect="non-scaling-stroke" fill="none"/><path d="M0 0.42 L1 0.42" stroke="#77B86C" stroke-width="2" opacity="0.28" vector-effect="non-scaling-stroke" fill="none"/><path d="M0 0.72 L1 0.72" stroke="#77B86C" stroke-width="2" opacity="0.2" vector-effect="non-scaling-stroke" fill="none"/></g><g transform="matrix(84.79 -43.31 0 15.55 77.47 140.55)"><rect width="1" height="1" fill="url(#cashRight)"/><path d="M0 0.1 L1 0.1" stroke="#8FD684" stroke-width="2.5" opacity="0.45" vector-effect="non-scaling-stroke" fill="none"/><path d="M0 0.42 L1 0.42" stroke="#6AAA60" stroke-width="2" opacity="0.28" vector-effect="non-scaling-stroke" fill="none"/><path d="M0 0.72 L1 0.72" stroke="#6AAA60" stroke-width="2" opacity="0.2" vector-effect="non-scaling-stroke" fill="none"/><rect x="0.42000000000000004" y="0" width="0.035" height="1" fill="#0E250B" opacity="0.28"/><rect x="0.455" y="0" width="0.166" height="1.02" fill="url(#cashBandSide)"/></g><g transform="matrix(84.79 -43.31 53.98 22.88 23.49 117.68)"><rect width="1" height="1" fill="url(#cashTop)"/><path d="M0.085 0.11 L0.9149999999999999 0.11 Q0.9149999999999999 0.195 0.95 0.195 L0.95 0.805 Q0.9149999999999999 0.805 0.9149999999999999 0.89 L0.085 0.89 Q0.085 0.805 0.05 0.805 L0.05 0.195 Q0.085 0.195 0.085 0.11 Z" stroke="#4FA047" stroke-width="2" vector-effect="non-scaling-stroke" fill="none"/><ellipse cx="0.5" cy="0.5" rx="0.18" ry="0.29" stroke="#4FA047" stroke-width="2" vector-effect="non-scaling-stroke" fill="none"/><rect x="0.455" y="-0.035" width="0.160" height="1.035" fill="url(#cashBand)"/><path d="M0.455 -0.035 L0.455 1 M0.615 -0.035 L0.615 1" stroke="#9FBC86" stroke-width="1.5" opacity="0.8" vector-effect="non-scaling-stroke" fill="none"/><path d="M0.455 1 L0.615 1" stroke="#FFFFFF" stroke-width="2.5" opacity="0.7" vector-effect="non-scaling-stroke" fill="none"/></g><path d="M77.5 142.9 L77.5 153.8" fill="none" stroke="#FFFFFF" stroke-width="3" stroke-linecap="round" stroke-linejoin="round" opacity="0.4"/><ellipse cx="110.21392499999999" cy="91.037125" rx="22.8933" ry="6.222" fill="url(#shine)" opacity="0.45" transform="rotate(-27 110.21392499999999 91.037125)"/><path d="M23.5 117.7 L108.3 74.4 L162.3 97.2 L162.3 112.8 L77.5 156.1 L23.5 133.2 Z" fill="none" stroke="#1B2033" stroke-width="4.5" stroke-linejoin="round"/><path d="M90.3 136.5 L175.1 93.2 L229.1 116.1 L229.1 131.6 L144.3 174.9 L90.3 152.1 Z" fill="#2A5224"/><g transform="matrix(53.99 22.88 0 15.55 90.35 136.50)"><rect width="1" height="1" fill="url(#cashLeft)"/><path d="M0 0.1 L1 0.1" stroke="#8FD684" stroke-width="2.5" opacity="0.45" vector-effect="non-scaling-stroke" fill="none"/><path d="M0 0.42 L1 0.42" stroke="#77B86C" stroke-width="2" opacity="0.28" vector-effect="non-scaling-stroke" fill="none"/><path d="M0 0.72 L1 0.72" stroke="#77B86C" stroke-width="2" opacity="0.2" vector-effect="non-scaling-stroke" fill="none"/></g><g transform="matrix(84.79 -43.31 0 15.55 144.33 159.38)"><rect width="1" height="1" fill="url(#cashRight)"/><path d="M0 0.1 L1 0.1" stroke="#8FD684" stroke-width="2.5" opacity="0.45" vector-effect="non-scaling-stroke" fill="none"/><path d="M0 0.42 L1 0.42" stroke="#6AAA60" stroke-width="2" opacity="0.28" vector-effect="non-scaling-stroke" fill="none"/><path d="M0 0.72 L1 0.72" stroke="#6AAA60" stroke-width="2" opacity="0.2" vector-effect="non-scaling-stroke" fill="none"/><rect x="0.42000000000000004" y="0" width="0.035" height="1" fill="#0E250B" opacity="0.28"/><rect x="0.455" y="0" width="0.166" height="1.02" fill="url(#cashBandSide)"/></g><g transform="matrix(84.79 -43.31 53.99 22.88 90.35 136.50)"><rect width="1" height="1" fill="url(#cashTop)"/><path d="M0.085 0.11 L0.9149999999999999 0.11 Q0.9149999999999999 0.195 0.95 0.195 L0.95 0.805 Q0.9149999999999999 0.805 0.9149999999999999 0.89 L0.085 0.89 Q0.085 0.805 0.05 0.805 L0.05 0.195 Q0.085 0.195 0.085 0.11 Z" stroke="#4FA047" stroke-width="2" vector-effect="non-scaling-stroke" fill="none"/><ellipse cx="0.5" cy="0.5" rx="0.18" ry="0.29" stroke="#4FA047" stroke-width="2" vector-effect="non-scaling-stroke" fill="none"/><rect x="0.455" y="-0.035" width="0.160" height="1.035" fill="url(#cashBand)"/><path d="M0.455 -0.035 L0.455 1 M0.615 -0.035 L0.615 1" stroke="#9FBC86" stroke-width="1.5" opacity="0.8" vector-effect="non-scaling-stroke" fill="none"/><path d="M0.455 1 L0.615 1" stroke="#FFFFFF" stroke-width="2.5" opacity="0.7" vector-effect="non-scaling-stroke" fill="none"/></g><path d="M144.3 161.7 L144.3 172.6" fill="none" stroke="#FFFFFF" stroke-width="3" stroke-linecap="round" stroke-linejoin="round" opacity="0.4"/><ellipse cx="177.07297499999999" cy="109.858675" rx="22.8933" ry="6.222" fill="url(#shine)" opacity="0.45" transform="rotate(-27 177.07297499999999 109.858675)"/><path d="M90.3 136.5 L175.1 93.2 L229.1 116.1 L229.1 131.6 L144.3 174.9 L90.3 152.1 Z" fill="none" stroke="#1B2033" stroke-width="4.5" stroke-linejoin="round"/><path d="M26.0 100.8 L110.8 57.5 L164.8 80.4 L164.8 95.9 L80.0 139.3 L26.0 116.4 Z" fill="#2A5224"/><g transform="matrix(53.98 22.88 0 15.55 26.03 100.82)"><rect width="1" height="1" fill="url(#cashLeft)"/><path d="M0 0.1 L1 0.1" stroke="#8FD684" stroke-width="2.5" opacity="0.45" vector-effect="non-scaling-stroke" fill="none"/><path d="M0 0.42 L1 0.42" stroke="#77B86C" stroke-width="2" opacity="0.28" vector-effect="non-scaling-stroke" fill="none"/><path d="M0 0.72 L1 0.72" stroke="#77B86C" stroke-width="2" opacity="0.2" vector-effect="non-scaling-stroke" fill="none"/></g><g transform="matrix(84.79 -43.31 0 15.55 80.02 123.70)"><rect width="1" height="1" fill="url(#cashRight)"/><path d="M0 0.1 L1 0.1" stroke="#8FD684" stroke-width="2.5" opacity="0.45" vector-effect="non-scaling-stroke" fill="none"/><path d="M0 0.42 L1 0.42" stroke="#6AAA60" stroke-width="2" opacity="0.28" vector-effect="non-scaling-stroke" fill="none"/><path d="M0 0.72 L1 0.72" stroke="#6AAA60" stroke-width="2" opacity="0.2" vector-effect="non-scaling-stroke" fill="none"/><rect x="0.42000000000000004" y="0" width="0.035" height="1" fill="#0E250B" opacity="0.28"/><rect x="0.455" y="0" width="0.166" height="1.02" fill="url(#cashBandSide)"/></g><g transform="matrix(84.79 -43.31 53.98 22.88 26.03 100.82)"><rect width="1" height="1" fill="url(#cashTop)"/><path d="M0.085 0.11 L0.9149999999999999 0.11 Q0.9149999999999999 0.195 0.95 0.195 L0.95 0.805 Q0.9149999999999999 0.805 0.9149999999999999 0.89 L0.085 0.89 Q0.085 0.805 0.05 0.805 L0.05 0.195 Q0.085 0.195 0.085 0.11 Z" stroke="#4FA047" stroke-width="2" vector-effect="non-scaling-stroke" fill="none"/><ellipse cx="0.5" cy="0.5" rx="0.18" ry="0.29" stroke="#4FA047" stroke-width="2" vector-effect="non-scaling-stroke" fill="none"/><rect x="0.455" y="-0.035" width="0.160" height="1.035" fill="url(#cashBand)"/><path d="M0.455 -0.035 L0.455 1 M0.615 -0.035 L0.615 1" stroke="#9FBC86" stroke-width="1.5" opacity="0.8" vector-effect="non-scaling-stroke" fill="none"/><path d="M0.455 1 L0.615 1" stroke="#FFFFFF" stroke-width="2.5" opacity="0.7" vector-effect="non-scaling-stroke" fill="none"/></g><path d="M80.0 126.0 L80.0 136.9" fill="none" stroke="#FFFFFF" stroke-width="3" stroke-linecap="round" stroke-linejoin="round" opacity="0.4"/><ellipse cx="112.75762499999999" cy="74.18282499999998" rx="22.8933" ry="6.222" fill="url(#shine)" opacity="0.45" transform="rotate(-27 112.75762499999999 74.18282499999998)"/><path d="M26.0 100.8 L110.8 57.5 L164.8 80.4 L164.8 95.9 L80.0 139.3 L26.0 116.4 Z" fill="none" stroke="#1B2033" stroke-width="4.5" stroke-linejoin="round"/><path d="M24.3 86.1 L109.1 42.8 L163.1 65.7 L163.1 81.3 L78.3 124.6 L24.3 101.7 Z" fill="#2A5224"/><g transform="matrix(53.98 22.88 0 15.55 24.34 86.14)"><rect width="1" height="1" fill="url(#cashLeft)"/><path d="M0 0.1 L1 0.1" stroke="#8FD684" stroke-width="2.5" opacity="0.45" vector-effect="non-scaling-stroke" fill="none"/><path d="M0 0.42 L1 0.42" stroke="#77B86C" stroke-width="2" opacity="0.28" vector-effect="non-scaling-stroke" fill="none"/><path d="M0 0.72 L1 0.72" stroke="#77B86C" stroke-width="2" opacity="0.2" vector-effect="non-scaling-stroke" fill="none"/></g><g transform="matrix(84.79 -43.31 0 15.55 78.32 109.01)"><rect width="1" height="1" fill="url(#cashRight)"/><path d="M0 0.1 L1 0.1" stroke="#8FD684" stroke-width="2.5" opacity="0.45" vector-effect="non-scaling-stroke" fill="none"/><path d="M0 0.42 L1 0.42" stroke="#6AAA60" stroke-width="2" opacity="0.28" vector-effect="non-scaling-stroke" fill="none"/><path d="M0 0.72 L1 0.72" stroke="#6AAA60" stroke-width="2" opacity="0.2" vector-effect="non-scaling-stroke" fill="none"/><rect x="0.42000000000000004" y="0" width="0.035" height="1" fill="#0E250B" opacity="0.28"/><rect x="0.455" y="0" width="0.166" height="1.02" fill="url(#cashBandSide)"/></g><g transform="matrix(84.79 -43.31 53.98 22.88 24.34 86.14)"><rect width="1" height="1" fill="url(#cashTop)"/><path d="M0.085 0.11 L0.9149999999999999 0.11 Q0.9149999999999999 0.195 0.95 0.195 L0.95 0.805 Q0.9149999999999999 0.805 0.9149999999999999 0.89 L0.085 0.89 Q0.085 0.805 0.05 0.805 L0.05 0.195 Q0.085 0.195 0.085 0.11 Z" stroke="#4FA047" stroke-width="2" vector-effect="non-scaling-stroke" fill="none"/><ellipse cx="0.5" cy="0.5" rx="0.18" ry="0.29" stroke="#4FA047" stroke-width="2" vector-effect="non-scaling-stroke" fill="none"/><rect x="0.455" y="-0.035" width="0.160" height="1.035" fill="url(#cashBand)"/><path d="M0.455 -0.035 L0.455 1 M0.615 -0.035 L0.615 1" stroke="#9FBC86" stroke-width="1.5" opacity="0.8" vector-effect="non-scaling-stroke" fill="none"/><path d="M0.455 1 L0.615 1" stroke="#FFFFFF" stroke-width="2.5" opacity="0.7" vector-effect="non-scaling-stroke" fill="none"/></g><path d="M78.3 111.3 L78.3 122.2" fill="none" stroke="#FFFFFF" stroke-width="3" stroke-linecap="round" stroke-linejoin="round" opacity="0.4"/><ellipse cx="111.061825" cy="59.49402499999999" rx="22.8933" ry="6.222" fill="url(#shine)" opacity="0.45" transform="rotate(-27 111.061825 59.49402499999999)"/><path d="M24.3 86.1 L109.1 42.8 L163.1 65.7 L163.1 81.3 L78.3 124.6 L24.3 101.7 Z" fill="none" stroke="#1B2033" stroke-width="4.5" stroke-linejoin="round"/></g></svg>