# seraph Halo_HaloCore.obj: Roblox cue frame, recentred on its bounding box
v -0.00144 0.28330 0.07063
v -0.00125 0.28311 0.05925
v -0.00072 0.27726 0.04949
v 0.00072 0.25596 0.04418
v 0.00125 0.24622 0.05005
v 0.00144 0.24070 0.06001
v 0.00125 0.24089 0.07139
v 0.00072 0.24674 0.08115
v -0.00072 0.26804 0.08646
v -0.00125 0.27779 0.08059
v -0.03811 0.28093 0.07004
v -0.03773 0.28075 0.05866
v -0.03668 0.27495 0.04891
v -0.03524 0.26508 0.04341
v -0.03381 0.25379 0.04363
v -0.03276 0.24409 0.04952
v -0.03237 0.23860 0.05948
v -0.03276 0.23877 0.07086
v -0.03381 0.24457 0.08061
v -0.03524 0.25444 0.08611
v -0.03668 0.26573 0.08589
v -0.03773 0.27543 0.08000
v -0.07558 0.27370 0.06823
v -0.07481 0.27359 0.05687
v -0.07273 0.26799 0.04718
v -0.06988 0.25840 0.04175
v -0.06703 0.24738 0.04204
v -0.06495 0.23788 0.04797
v -0.06419 0.23246 0.05795
v -0.06495 0.23256 0.06931
v -0.06703 0.23816 0.07901
v -0.06988 0.24775 0.08444
v -0.07273 0.25878 0.08415
v -0.07481 0.26827 0.07822
v -0.11174 0.26178 0.06526
v -0.11062 0.26180 0.05393
v -0.10753 0.25653 0.04432
v -0.10332 0.24738 0.03900
v -0.09912 0.23681 0.03940
v -0.09603 0.22764 0.04542
v -0.09491 0.22234 0.05543
v -0.09603 0.22232 0.06676
v -0.09912 0.22759 0.07638
v -0.10332 0.23674 0.08169
v -0.10753 0.24731 0.08129
v -0.11062 0.25648 0.07528
v -0.14600 0.24539 0.06118
v -0.14453 0.24558 0.04989
v -0.14050 0.24076 0.04039
v -0.13500 0.23223 0.03522
v -0.12950 0.22227 0.03578
v -0.12547 0.21356 0.04190
v -0.12400 0.20842 0.05196
v -0.12547 0.20823 0.06325
v -0.12950 0.21305 0.07275
v -0.13500 0.22158 0.07791
v -0.14050 0.23154 0.07736
v -0.14453 0.24025 0.07123
v -0.17776 0.22480 0.05604
v -0.17596 0.22519 0.04480
v -0.17106 0.22094 0.03545
v -0.16437 0.21319 0.03047
v -0.15767 0.20401 0.03122
v -0.15277 0.19586 0.03749
v -0.15097 0.19093 0.04760
v -0.15277 0.19054 0.05884
v -0.15767 0.19479 0.06820
v -0.16437 0.20254 0.07317
v -0.17106 0.21172 0.07242
v -0.17596 0.21987 0.06615
v -0.20648 0.20036 0.04995
v -0.20439 0.20100 0.03877
v -0.19870 0.19743 0.02958
v -0.19092 0.19059 0.02484
v -0.18314 0.18233 0.02582
v -0.17745 0.17486 0.03226
v -0.17536 0.17018 0.04242
v -0.17745 0.16954 0.05360
v -0.18314 0.17311 0.06279
v -0.19092 0.17995 0.06753
v -0.19870 0.18821 0.06656
v -0.20439 0.19568 0.06012
v -0.23166 0.17250 0.04300
v -0.22932 0.17342 0.03190
v -0.22293 0.17061 0.02290
v -0.21421 0.16483 0.01842
v -0.20548 0.15762 0.01966
v -0.19909 0.15091 0.02628
v -0.19675 0.14651 0.03652
v -0.19909 0.14559 0.04763
v -0.20548 0.14840 0.05663
v -0.21421 0.15418 0.06111
v -0.22293 0.16139 0.05987
v -0.22932 0.16810 0.05324
v -0.25288 0.14169 0.03532
v -0.25033 0.14292 0.02429
v -0.24335 0.14096 0.01550
v -0.23383 0.13634 0.01131
v -0.22430 0.13029 0.01284
v -0.21733 0.12443 0.01968
v -0.21477 0.12034 0.03000
v -0.21733 0.11911 0.04103
v -0.22430 0.12107 0.04982
v -0.23383 0.12569 0.05401
v -0.24335 0.13174 0.05248
v -0.25033 0.13759 0.04564
v -0.26977 0.10845 0.02703
v -0.26705 0.11001 0.01609
v -0.25961 0.10897 0.00753
v -0.24945 0.10560 0.00365
v -0.23928 0.10080 0.00549
v -0.23185 0.09586 0.01256
v -0.22912 0.09211 0.02296
v -0.23185 0.09054 0.03391
v -0.23928 0.09158 0.04246
v -0.24945 0.09496 0.04634
v -0.25961 0.09975 0.04450
v -0.26705 0.10469 0.03743
v -0.28205 0.07335 0.01828
v -0.27920 0.07527 0.00743
v -0.27143 0.07520 -0.00089
v -0.26080 0.07315 -0.00444
v -0.25017 0.06968 -0.00227
v -0.24240 0.06570 0.00504
v -0.23955 0.06230 0.01553
v -0.24240 0.06038 0.02639
v -0.25017 0.06046 0.03470
v -0.26080 0.06251 0.03825
v -0.27143 0.06598 0.03608
v -0.27920 0.06995 0.02877
v -0.28950 0.03700 0.00922
v -0.28658 0.03929 -0.00155
v -0.27860 0.04022 -0.00961
v -0.26769 0.03954 -0.01282
v -0.25678 0.03743 -0.01031
v -0.24880 0.03447 -0.00275
v -0.24588 0.03143 0.00783
v -0.24880 0.02914 0.01860
v -0.25678 0.02822 0.02667
v -0.26769 0.02890 0.02987
v -0.27860 0.03100 0.02736
v -0.28658 0.03397 0.01980
v -0.29200 0.00002 0.00000
v -0.28905 0.00268 -0.01067
v -0.28100 0.00463 -0.01849
v -0.27000 0.00535 -0.02135
v -0.25900 0.00463 -0.01849
v -0.25095 0.00268 -0.01067
v -0.24800 0.00002 0.00000
v -0.25095 -0.00264 0.01067
v -0.25900 -0.00459 0.01849
v -0.27000 -0.00530 0.02135
v -0.28100 -0.00459 0.01849
v -0.28905 -0.00264 0.01067
v -0.28950 -0.03696 -0.00922
v -0.28658 -0.03392 -0.01980
v -0.27860 -0.03096 -0.02736
v -0.26769 -0.02885 -0.02987
v -0.25678 -0.02817 -0.02667
v -0.24880 -0.02910 -0.01860
v -0.24588 -0.03139 -0.00783
v -0.24880 -0.03442 0.00275
v -0.25678 -0.03739 0.01031
v -0.26769 -0.03949 0.01282
v -0.27860 -0.04017 0.00961
v -0.28658 -0.03925 0.00155
v -0.28205 -0.07331 -0.01828
v -0.27920 -0.06991 -0.02877
v -0.27143 -0.06594 -0.03608
v -0.26080 -0.06246 -0.03825
v -0.25017 -0.06041 -0.03470
v -0.24240 -0.06034 -0.02639
v -0.23955 -0.06226 -0.01553
v -0.24240 -0.06566 -0.00504
v -0.25017 -0.06963 0.00227
v -0.26080 -0.07310 0.00444
v -0.27143 -0.07515 0.00089
v -0.27920 -0.07523 -0.00743
v -0.26977 -0.10840 -0.02703
v -0.26705 -0.10465 -0.03743
v -0.25961 -0.09971 -0.04450
v -0.24945 -0.09491 -0.04634
v -0.23928 -0.09154 -0.04246
v -0.23185 -0.09050 -0.03391
v -0.22912 -0.09206 -0.02296
v -0.23185 -0.09582 -0.01256
v -0.23928 -0.10076 -0.00549
v -0.24945 -0.10555 -0.00365
v -0.25961 -0.10893 -0.00753
v -0.26705 -0.10997 -0.01609
v -0.25288 -0.14164 -0.03532
v -0.25033 -0.13755 -0.04564
v -0.24335 -0.13169 -0.05248
v -0.23383 -0.12564 -0.05401
v -0.22430 -0.12102 -0.04982
v -0.21733 -0.11906 -0.04103
v -0.21477 -0.12029 -0.03000
v -0.21733 -0.12438 -0.01968
v -0.22430 -0.13024 -0.01284
v -0.23383 -0.13629 -0.01131
v -0.24335 -0.14091 -0.01550
v -0.25033 -0.14287 -0.02429
v -0.23166 -0.17246 -0.04300
v -0.22932 -0.16805 -0.05324
v -0.22293 -0.16135 -0.05987
v -0.21421 -0.15414 -0.06111
v -0.20548 -0.14835 -0.05663
v -0.19909 -0.14555 -0.04763
v -0.19675 -0.14647 -0.03652
v -0.19909 -0.15087 -0.02628
v -0.20548 -0.15757 -0.01966
v -0.21421 -0.16478 -0.01842
v -0.22293 -0.17057 -0.02290
v -0.22932 -0.17338 -0.03190
v -0.20648 -0.20032 -0.04995
v -0.20439 -0.19564 -0.06012
v -0.19870 -0.18816 -0.06656
v -0.19092 -0.17990 -0.06753
v -0.18314 -0.17307 -0.06279
v -0.17745 -0.16949 -0.05360
v -0.17536 -0.17013 -0.04242
v -0.17745 -0.17481 -0.03226
v -0.18314 -0.18229 -0.02582
v -0.19092 -0.19055 -0.02484
v -0.19870 -0.19738 -0.02958
v -0.20439 -0.20096 -0.03877
v -0.17776 -0.22476 -0.05604
v -0.17596 -0.21983 -0.06615
v -0.17106 -0.21168 -0.07242
v -0.16437 -0.20250 -0.07317
v -0.15767 -0.19474 -0.06820
v -0.15277 -0.19049 -0.05884
v -0.15097 -0.19088 -0.04760
v -0.15277 -0.19581 -0.03749
v -0.15767 -0.20396 -0.03122
v -0.16437 -0.21314 -0.03047
v -0.17106 -0.22090 -0.03545
v -0.17596 -0.22515 -0.04480
v -0.14600 -0.24534 -0.06118
v -0.14453 -0.24021 -0.07123
v -0.14050 -0.23149 -0.07736
v -0.13500 -0.22154 -0.07791
v -0.12950 -0.21301 -0.07275
v -0.12547 -0.20819 -0.06325
v -0.12400 -0.20837 -0.05196
v -0.12547 -0.21351 -0.04190
v -0.12950 -0.22222 -0.03578
v -0.13500 -0.23218 -0.03522
v -0.14050 -0.24071 -0.04039
v -0.14453 -0.24553 -0.04989
v -0.11174 -0.26174 -0.06526
v -0.11062 -0.25643 -0.07528
v -0.10753 -0.24727 -0.08129
v -0.10332 -0.23669 -0.08169
v -0.09912 -0.22754 -0.07638
v -0.09603 -0.22227 -0.06676
v -0.09491 -0.22229 -0.05543
v -0.09603 -0.22760 -0.04542
v -0.09912 -0.23676 -0.03940
v -0.10332 -0.24734 -0.03900
v -0.10753 -0.25649 -0.04432
v -0.11062 -0.26176 -0.05393
v -0.07558 -0.27365 -0.06823
v -0.07481 -0.26823 -0.07822
v -0.07273 -0.25873 -0.08415
v -0.06988 -0.24771 -0.08444
v -0.06703 -0.23811 -0.07901
v -0.06495 -0.23251 -0.06931
v -0.06419 -0.23241 -0.05795
v -0.06495 -0.23783 -0.04797
v -0.06703 -0.24733 -0.04204
v -0.06988 -0.25835 -0.04175
v -0.07273 -0.26795 -0.04718
v -0.07481 -0.27355 -0.05687
v -0.03811 -0.28088 -0.07004
v -0.03773 -0.27538 -0.08000
v -0.03668 -0.26569 -0.08589
v -0.03524 -0.25439 -0.08611
v -0.03381 -0.24452 -0.08061
v -0.03276 -0.23873 -0.07086
v -0.03237 -0.23855 -0.05948
v -0.03276 -0.24405 -0.04952
v -0.03381 -0.25374 -0.04363
v -0.03524 -0.26504 -0.04341
v -0.03668 -0.27491 -0.04891
v -0.03773 -0.28071 -0.05866
v -0.00000 -0.28330 -0.07064
v -0.00000 -0.27778 -0.08060
v -0.00000 -0.26802 -0.08647
v -0.00000 -0.25663 -0.08667
v -0.00000 -0.24667 -0.08114
v -0.00000 -0.24081 -0.07138
v -0.00000 -0.24061 -0.06000
v -0.00000 -0.24613 -0.05004
v -0.00000 -0.25589 -0.04417
v -0.00000 -0.26728 -0.04397
v -0.00000 -0.27724 -0.04949
v -0.00000 -0.28310 -0.05926
v 0.03811 -0.28088 -0.07004
v 0.03773 -0.27538 -0.08000
v 0.03668 -0.26569 -0.08589
v 0.03524 -0.25439 -0.08611
v 0.03381 -0.24452 -0.08061
v 0.03276 -0.23873 -0.07086
v 0.03237 -0.23855 -0.05948
v 0.03276 -0.24405 -0.04952
v 0.03381 -0.25374 -0.04363
v 0.03524 -0.26504 -0.04341
v 0.03668 -0.27491 -0.04891
v 0.03773 -0.28071 -0.05866
v 0.07558 -0.27365 -0.06823
v 0.07481 -0.26823 -0.07822
v 0.07273 -0.25873 -0.08415
v 0.06988 -0.24771 -0.08444
v 0.06703 -0.23811 -0.07901
v 0.06495 -0.23251 -0.06931
v 0.06419 -0.23241 -0.05795
v 0.06495 -0.23783 -0.04797
v 0.06703 -0.24733 -0.04204
v 0.06988 -0.25835 -0.04175
v 0.07273 -0.26795 -0.04718
v 0.07481 -0.27355 -0.05687
v 0.11174 -0.26174 -0.06526
v 0.11062 -0.25643 -0.07528
v 0.10753 -0.24727 -0.08129
v 0.10332 -0.23669 -0.08169
v 0.09912 -0.22754 -0.07638
v 0.09603 -0.22227 -0.06676
v 0.09491 -0.22229 -0.05543
v 0.09603 -0.22760 -0.04542
v 0.09912 -0.23676 -0.03940
v 0.10332 -0.24734 -0.03900
v 0.10753 -0.25649 -0.04432
v 0.11062 -0.26176 -0.05393
v 0.14600 -0.24534 -0.06118
v 0.14453 -0.24021 -0.07123
v 0.14050 -0.23149 -0.07736
v 0.13500 -0.22154 -0.07791
v 0.12950 -0.21301 -0.07275
v 0.12547 -0.20819 -0.06325
v 0.12400 -0.20837 -0.05196
v 0.12547 -0.21351 -0.04190
v 0.12950 -0.22222 -0.03578
v 0.13500 -0.23218 -0.03522
v 0.14050 -0.24071 -0.04039
v 0.14453 -0.24553 -0.04989
v 0.17776 -0.22476 -0.05604
v 0.17596 -0.21983 -0.06615
v 0.17106 -0.21168 -0.07242
v 0.16437 -0.20250 -0.07317
v 0.15767 -0.19474 -0.06820
v 0.15277 -0.19049 -0.05884
v 0.15097 -0.19088 -0.04760
v 0.15277 -0.19581 -0.03749
v 0.15767 -0.20396 -0.03122
v 0.16437 -0.21314 -0.03047
v 0.17106 -0.22090 -0.03545
v 0.17596 -0.22515 -0.04480
v 0.20648 -0.20032 -0.04995
v 0.20439 -0.19564 -0.06012
v 0.19870 -0.18816 -0.06656
v 0.19092 -0.17990 -0.06753
v 0.18314 -0.17307 -0.06279
v 0.17745 -0.16949 -0.05360
v 0.17536 -0.17013 -0.04242
v 0.17745 -0.17481 -0.03226
v 0.18314 -0.18229 -0.02582
v 0.19092 -0.19055 -0.02484
v 0.19870 -0.19738 -0.02958
v 0.20439 -0.20096 -0.03877
v 0.23166 -0.17246 -0.04300
v 0.22932 -0.16805 -0.05324
v 0.22293 -0.16135 -0.05987
v 0.21421 -0.15414 -0.06111
v 0.20548 -0.14835 -0.05663
v 0.19909 -0.14555 -0.04763
v 0.19675 -0.14647 -0.03652
v 0.19909 -0.15087 -0.02628
v 0.20548 -0.15757 -0.01966
v 0.21421 -0.16478 -0.01842
v 0.22293 -0.17057 -0.02290
v 0.22932 -0.17338 -0.03190
v 0.25288 -0.14164 -0.03532
v 0.25033 -0.13755 -0.04564
v 0.24335 -0.13169 -0.05248
v 0.23383 -0.12564 -0.05401
v 0.22430 -0.12102 -0.04982
v 0.21733 -0.11906 -0.04103
v 0.21477 -0.12029 -0.03000
v 0.21733 -0.12438 -0.01968
v 0.22430 -0.13024 -0.01284
v 0.23383 -0.13629 -0.01131
v 0.24335 -0.14091 -0.01550
v 0.25033 -0.14287 -0.02429
v 0.26977 -0.10840 -0.02703
v 0.26705 -0.10465 -0.03743
v 0.25961 -0.09971 -0.04450
v 0.24945 -0.09491 -0.04634
v 0.23928 -0.09154 -0.04246
v 0.23185 -0.09050 -0.03391
v 0.22912 -0.09206 -0.02296
v 0.23185 -0.09582 -0.01256
v 0.23928 -0.10076 -0.00549
v 0.24945 -0.10555 -0.00365
v 0.25961 -0.10893 -0.00753
v 0.26705 -0.10997 -0.01609
v 0.28205 -0.07331 -0.01828
v 0.27920 -0.06991 -0.02877
v 0.27143 -0.06594 -0.03608
v 0.26080 -0.06246 -0.03825
v 0.25017 -0.06041 -0.03470
v 0.24240 -0.06034 -0.02639
v 0.23955 -0.06226 -0.01553
v 0.24240 -0.06566 -0.00504
v 0.25017 -0.06963 0.00227
v 0.26080 -0.07310 0.00444
v 0.27143 -0.07515 0.00089
v 0.27920 -0.07523 -0.00743
v 0.28950 -0.03696 -0.00922
v 0.28658 -0.03392 -0.01980
v 0.27860 -0.03096 -0.02736
v 0.26769 -0.02885 -0.02987
v 0.25678 -0.02817 -0.02667
v 0.24880 -0.02910 -0.01860
v 0.24588 -0.03139 -0.00783
v 0.24880 -0.03442 0.00275
v 0.25678 -0.03739 0.01031
v 0.26769 -0.03949 0.01282
v 0.27860 -0.04017 0.00961
v 0.28658 -0.03925 0.00155
v 0.29200 0.00002 0.00000
v 0.28905 0.00268 -0.01067
v 0.28100 0.00463 -0.01849
v 0.27000 0.00535 -0.02135
v 0.25900 0.00463 -0.01849
v 0.25095 0.00268 -0.01067
v 0.24800 0.00002 0.00000
v 0.25095 -0.00264 0.01067
v 0.25900 -0.00459 0.01849
v 0.27000 -0.00530 0.02135
v 0.28100 -0.00459 0.01849
v 0.28905 -0.00264 0.01067
v 0.28950 0.03700 0.00922
v 0.28658 0.03929 -0.00155
v 0.27860 0.04022 -0.00961
v 0.26769 0.03954 -0.01282
v 0.25678 0.03743 -0.01031
v 0.24880 0.03447 -0.00275
v 0.24588 0.03143 0.00783
v 0.24880 0.02914 0.01860
v 0.25678 0.02822 0.02667
v 0.26769 0.02890 0.02987
v 0.27860 0.03100 0.02736
v 0.28658 0.03397 0.01980
v 0.28205 0.07335 0.01828
v 0.27920 0.07527 0.00743
v 0.27143 0.07520 -0.00089
v 0.26080 0.07315 -0.00444
v 0.25017 0.06968 -0.00227
v 0.24240 0.06570 0.00504
v 0.23955 0.06230 0.01553
v 0.24240 0.06038 0.02639
v 0.25017 0.06046 0.03470
v 0.26080 0.06251 0.03825
v 0.27143 0.06598 0.03608
v 0.27920 0.06995 0.02877
v 0.26977 0.10845 0.02703
v 0.26705 0.11001 0.01609
v 0.25961 0.10897 0.00753
v 0.24945 0.10560 0.00365
v 0.23928 0.10080 0.00549
v 0.23185 0.09586 0.01256
v 0.22912 0.09211 0.02296
v 0.23185 0.09054 0.03391
v 0.23928 0.09158 0.04246
v 0.24945 0.09496 0.04634
v 0.25961 0.09975 0.04450
v 0.26705 0.10469 0.03743
v 0.25288 0.14169 0.03532
v 0.25033 0.14292 0.02429
v 0.24335 0.14096 0.01550
v 0.23383 0.13634 0.01131
v 0.22430 0.13029 0.01284
v 0.21733 0.12443 0.01968
v 0.21477 0.12034 0.03000
v 0.21733 0.11911 0.04103
v 0.22430 0.12107 0.04982
v 0.23383 0.12569 0.05401
v 0.24335 0.13174 0.05248
v 0.25033 0.13759 0.04564
v 0.23166 0.17250 0.04300
v 0.22932 0.17342 0.03190
v 0.22293 0.17061 0.02290
v 0.21421 0.16483 0.01842
v 0.20548 0.15762 0.01966
v 0.19909 0.15091 0.02628
v 0.19675 0.14651 0.03652
v 0.19909 0.14559 0.04763
v 0.20548 0.14840 0.05663
v 0.21421 0.15418 0.06111
v 0.22293 0.16139 0.05987
v 0.22932 0.16810 0.05324
v 0.20648 0.20036 0.04995
v 0.20439 0.20100 0.03877
v 0.19870 0.19743 0.02958
v 0.19092 0.19059 0.02484
v 0.18314 0.18233 0.02582
v 0.17745 0.17486 0.03226
v 0.17536 0.17018 0.04242
v 0.17745 0.16954 0.05360
v 0.18314 0.17311 0.06279
v 0.19092 0.17995 0.06753
v 0.19870 0.18821 0.06656
v 0.20439 0.19568 0.06012
v 0.17776 0.22480 0.05604
v 0.17596 0.22519 0.04480
v 0.17106 0.22094 0.03545
v 0.16437 0.21319 0.03047
v 0.15767 0.20401 0.03122
v 0.15277 0.19586 0.03749
v 0.15097 0.19093 0.04760
v 0.15277 0.19054 0.05884
v 0.15767 0.19479 0.06820
v 0.16437 0.20254 0.07317
v 0.17106 0.21172 0.07242
v 0.17596 0.21987 0.06615
v 0.14600 0.24539 0.06118
v 0.14453 0.24558 0.04989
v 0.14050 0.24076 0.04039
v 0.13500 0.23223 0.03522
v 0.12950 0.22227 0.03578
v 0.12547 0.21356 0.04190
v 0.12400 0.20842 0.05196
v 0.12547 0.20823 0.06325
v 0.12950 0.21305 0.07275
v 0.13500 0.22158 0.07791
v 0.14050 0.23154 0.07736
v 0.14453 0.24025 0.07123
v 0.11174 0.26178 0.06526
v 0.11062 0.26180 0.05393
v 0.10753 0.25653 0.04432
v 0.10332 0.24738 0.03900
v 0.09912 0.23681 0.03940
v 0.09603 0.22764 0.04542
v 0.09491 0.22234 0.05543
v 0.09603 0.22232 0.06676
v 0.09912 0.22759 0.07638
v 0.10332 0.23674 0.08169
v 0.10753 0.24731 0.08129
v 0.11062 0.25648 0.07528
v 0.07558 0.27370 0.06823
v 0.07481 0.27359 0.05687
v 0.07273 0.26799 0.04718
v 0.06988 0.25840 0.04175
v 0.06703 0.24738 0.04204
v 0.06495 0.23788 0.04797
v 0.06419 0.23246 0.05795
v 0.06495 0.23256 0.06931
v 0.06703 0.23816 0.07901
v 0.06988 0.24775 0.08444
v 0.07273 0.25878 0.08415
v 0.07481 0.26827 0.07822
v 0.03811 0.28093 0.07004
v 0.03773 0.28075 0.05866
v 0.03668 0.27495 0.04891
v 0.03524 0.26508 0.04341
v 0.03381 0.25379 0.04363
v 0.03276 0.24409 0.04952
v 0.03237 0.23860 0.05948
v 0.03276 0.23877 0.07086
v 0.03381 0.24457 0.08061
v 0.03524 0.25444 0.08611
v 0.03668 0.26573 0.08589
v 0.03773 0.27543 0.08000
v 0.00144 0.28330 0.07063
v 0.00125 0.28311 0.05925
v 0.00072 0.27726 0.04949
v 0.00000 0.26732 0.04397
v -0.00072 0.25596 0.04418
v -0.00125 0.24622 0.05005
v -0.00144 0.24070 0.06001
v -0.00125 0.24089 0.07139
v -0.00072 0.24674 0.08115
v 0.00000 0.25668 0.08667
v 0.00072 0.26804 0.08646
v 0.00125 0.27779 0.08059
f 1 12 11
f 2 13 12
f 3 14 13
f 578 15 14
f 4 16 15
f 5 17 16
f 7 17 6
f 8 18 7
f 584 19 8
f 9 20 584
f 10 21 9
f 1 22 10
f 12 23 11
f 12 25 24
f 14 25 13
f 15 26 14
f 16 27 15
f 17 28 16
f 17 30 29
f 18 31 30
f 19 32 31
f 20 33 32
f 22 33 21
f 11 34 22
f 24 35 23
f 25 36 24
f 25 38 37
f 26 39 38
f 27 40 39
f 28 41 40
f 29 42 41
f 31 42 30
f 32 43 31
f 32 45 44
f 33 46 45
f 23 46 34
f 36 47 35
f 37 48 36
f 37 50 49
f 39 50 38
f 39 52 51
f 40 53 52
f 42 53 41
f 42 55 54
f 44 55 43
f 44 57 56
f 46 57 45
f 35 58 46
f 48 59 47
f 48 61 60
f 49 62 61
f 51 62 50
f 51 64 63
f 52 65 64
f 53 66 65
f 54 67 66
f 56 67 55
f 57 68 56
f 57 70 69
f 58 59 70
f 60 71 59
f 60 73 72
f 61 74 73
f 62 75 74
f 63 76 75
f 64 77 76
f 66 77 65
f 67 78 66
f 67 80 79
f 68 81 80
f 69 82 81
f 59 82 70
f 72 83 71
f 72 85 84
f 74 85 73
f 74 87 86
f 76 87 75
f 76 89 88
f 78 89 77
f 78 91 90
f 79 92 91
f 80 93 92
f 82 93 81
f 71 94 82
f 83 96 95
f 84 97 96
f 86 97 85
f 86 99 98
f 87 100 99
f 88 101 100
f 89 102 101
f 90 103 102
f 91 104 103
f 92 105 104
f 94 105 93
f 94 95 106
f 96 107 95
f 97 108 96
f 97 110 109
f 99 110 98
f 100 111 99
f 100 113 112
f 102 113 101
f 103 114 102
f 103 116 115
f 104 117 116
f 106 117 105
f 106 107 118
f 108 119 107
f 108 121 120
f 110 121 109
f 111 122 110
f 112 123 111
f 112 125 124
f 113 126 125
f 114 127 126
f 115 128 127
f 116 129 128
f 117 130 129
f 107 130 118
f 120 131 119
f 121 132 120
f 121 134 133
f 123 134 122
f 123 136 135
f 124 137 136
f 125 138 137
f 126 139 138
f 128 139 127
f 129 140 128
f 129 142 141
f 119 142 130
f 132 143 131
f 132 145 144
f 134 145 133
f 135 146 134
f 135 148 147
f 137 148 136
f 137 150 149
f 139 150 138
f 140 151 139
f 140 153 152
f 142 153 141
f 131 154 142
f 144 155 143
f 145 156 144
f 145 158 157
f 147 158 146
f 147 160 159
f 148 161 160
f 150 161 149
f 151 162 150
f 152 163 151
f 153 164 152
f 153 166 165
f 143 166 154
f 155 168 167
f 157 168 156
f 157 170 169
f 159 170 158
f 160 171 159
f 161 172 160
f 162 173 161
f 162 175 174
f 164 175 163
f 165 176 164
f 166 177 165
f 155 178 166
f 168 179 167
f 168 181 180
f 169 182 181
f 170 183 182
f 171 184 183
f 172 185 184
f 173 186 185
f 175 186 174
f 176 187 175
f 177 188 176
f 178 189 177
f 167 190 178
f 179 192 191
f 181 192 180
f 182 193 181
f 182 195 194
f 183 196 195
f 185 196 184
f 186 197 185
f 187 198 186
f 188 199 187
f 188 201 200
f 190 201 189
f 179 202 190
f 191 204 203
f 193 204 192
f 194 205 193
f 194 207 206
f 195 208 207
f 197 208 196
f 197 210 209
f 198 211 210
f 200 211 199
f 201 212 200
f 201 214 213
f 202 203 214
f 204 215 203
f 205 216 204
f 205 218 217
f 206 219 218
f 207 220 219
f 209 220 208
f 210 221 209
f 210 223 222
f 212 223 211
f 213 224 212
f 213 226 225
f 203 226 214
f 215 228 227
f 216 229 228
f 218 229 217
f 218 231 230
f 220 231 219
f 221 232 220
f 222 233 221
f 222 235 234
f 223 236 235
f 225 236 224
f 225 238 237
f 215 238 226
f 227 240 239
f 228 241 240
f 229 242 241
f 231 242 230
f 232 243 231
f 232 245 244
f 233 246 245
f 235 246 234
f 236 247 235
f 236 249 248
f 237 250 249
f 227 250 238
f 240 251 239
f 241 252 240
f 241 254 253
f 243 254 242
f 244 255 243
f 245 256 244
f 245 258 257
f 246 259 258
f 248 259 247
f 248 261 260
f 249 262 261
f 250 251 262
f 251 264 263
f 253 264 252
f 253 266 265
f 255 266 254
f 255 268 267
f 256 269 268
f 258 269 257
f 258 271 270
f 259 272 271
f 260 273 272
f 262 273 261
f 251 274 262
f 263 276 275
f 265 276 264
f 265 278 277
f 267 278 266
f 267 280 279
f 268 281 280
f 269 282 281
f 271 282 270
f 272 283 271
f 273 284 272
f 273 286 285
f 274 275 286
f 275 288 287
f 276 289 288
f 278 289 277
f 279 290 278
f 279 292 291
f 281 292 280
f 282 293 281
f 283 294 282
f 283 296 295
f 284 297 296
f 285 298 297
f 286 287 298
f 288 299 287
f 289 300 288
f 289 302 301
f 290 303 302
f 291 304 303
f 293 304 292
f 293 306 305
f 294 307 306
f 296 307 295
f 297 308 296
f 298 309 297
f 287 310 298
f 300 311 299
f 300 313 312
f 302 313 301
f 302 315 314
f 304 315 303
f 305 316 304
f 306 317 305
f 306 319 318
f 307 320 319
f 309 320 308
f 310 321 309
f 299 322 310
f 312 323 311
f 312 325 324
f 314 325 313
f 315 326 314
f 316 327 315
f 317 328 316
f 317 330 329
f 319 330 318
f 320 331 319
f 321 332 320
f 321 334 333
f 322 323 334
f 323 336 335
f 324 337 336
f 326 337 325
f 326 339 338
f 327 340 339
f 328 341 340
f 330 341 329
f 331 342 330
f 331 344 343
f 333 344 332
f 334 345 333
f 323 346 334
f 336 347 335
f 337 348 336
f 338 349 337
f 338 351 350
f 340 351 339
f 341 352 340
f 342 353 341
f 343 354 342
f 343 356 355
f 344 357 356
f 346 357 345
f 346 347 358
f 348 359 347
f 349 360 348
f 350 361 349
f 351 362 350
f 351 364 363
f 352 365 364
f 353 366 365
f 354 367 366
f 356 367 355
f 357 368 356
f 358 369 357
f 358 359 370
f 359 372 371
f 360 373 372
f 362 373 361
f 363 374 362
f 364 375 363
f 364 377 376
f 365 378 377
f 367 378 366
f 367 380 379
f 368 381 380
f 370 381 369
f 370 371 382
f 372 383 371
f 372 385 384
f 374 385 373
f 375 386 374
f 375 388 387
f 377 388 376
f 378 389 377
f 379 390 378
f 379 392 391
f 381 392 380
f 382 393 381
f 371 394 382
f 384 395 383
f 384 397 396
f 385 398 397
f 387 398 386
f 388 399 387
f 388 401 400
f 389 402 401
f 390 403 402
f 391 404 403
f 393 404 392
f 393 406 405
f 394 395 406
f 395 408 407
f 397 408 396
f 398 409 397
f 399 410 398
f 400 411 399
f 401 412 400
f 402 413 401
f 402 415 414
f 403 416 415
f 404 417 416
f 405 418 417
f 406 407 418
f 408 419 407
f 408 421 420
f 410 421 409
f 410 423 422
f 411 424 423
f 412 425 424
f 413 426 425
f 415 426 414
f 415 428 427
f 417 428 416
f 418 429 417
f 418 419 430
f 419 432 431
f 420 433 432
f 422 433 421
f 423 434 422
f 424 435 423
f 425 436 424
f 425 438 437
f 427 438 426
f 427 440 439
f 429 440 428
f 430 441 429
f 430 431 442
f 432 443 431
f 433 444 432
f 434 445 433
f 434 447 446
f 435 448 447
f 436 449 448
f 438 449 437
f 438 451 450
f 439 452 451
f 441 452 440
f 441 454 453
f 442 443 454
f 443 456 455
f 444 457 456
f 446 457 445
f 446 459 458
f 448 459 447
f 449 460 448
f 450 461 449
f 450 463 462
f 451 464 463
f 452 465 464
f 454 465 453
f 454 455 466
f 455 468 467
f 457 468 456
f 457 470 469
f 458 471 470
f 459 472 471
f 461 472 460
f 462 473 461
f 463 474 462
f 464 475 463
f 465 476 464
f 466 477 465
f 466 467 478
f 467 480 479
f 468 481 480
f 470 481 469
f 470 483 482
f 471 484 483
f 473 484 472
f 473 486 485
f 474 487 486
f 476 487 475
f 477 488 476
f 477 490 489
f 467 490 478
f 480 491 479
f 481 492 480
f 482 493 481
f 483 494 482
f 484 495 483
f 485 496 484
f 486 497 485
f 487 498 486
f 488 499 487
f 489 500 488
f 489 502 501
f 479 502 490
f 491 504 503
f 493 504 492
f 493 506 505
f 495 506 494
f 495 508 507
f 497 508 496
f 497 510 509
f 499 510 498
f 499 512 511
f 501 512 500
f 501 514 513
f 502 503 514
f 503 516 515
f 505 516 504
f 506 517 505
f 507 518 506
f 508 519 507
f 509 520 508
f 509 522 521
f 510 523 522
f 512 523 511
f 512 525 524
f 514 525 513
f 514 515 526
f 515 528 527
f 517 528 516
f 518 529 517
f 518 531 530
f 519 532 531
f 521 532 520
f 522 533 521
f 523 534 522
f 523 536 535
f 524 537 536
f 526 537 525
f 515 538 526
f 527 540 539
f 528 541 540
f 530 541 529
f 530 543 542
f 532 543 531
f 533 544 532
f 533 546 545
f 535 546 534
f 535 548 547
f 537 548 536
f 537 550 549
f 538 539 550
f 539 552 551
f 541 552 540
f 542 553 541
f 543 554 542
f 544 555 543
f 545 556 544
f 546 557 545
f 547 558 546
f 547 560 559
f 549 560 548
f 550 561 549
f 550 551 562
f 552 563 551
f 553 564 552
f 553 566 565
f 554 567 566
f 556 567 555
f 556 569 568
f 558 569 557
f 559 570 558
f 560 571 559
f 561 572 560
f 561 574 573
f 551 574 562
f 564 575 563
f 565 576 564
f 566 577 565
f 567 578 566
f 568 579 567
f 569 580 568
f 569 582 581
f 570 583 582
f 571 584 583
f 572 585 584
f 573 586 585
f 574 575 586
f 1 2 12
f 2 3 13
f 3 578 14
f 578 4 15
f 4 5 16
f 5 6 17
f 7 18 17
f 8 19 18
f 584 20 19
f 9 21 20
f 10 22 21
f 1 11 22
f 12 24 23
f 12 13 25
f 14 26 25
f 15 27 26
f 16 28 27
f 17 29 28
f 17 18 30
f 18 19 31
f 19 20 32
f 20 21 33
f 22 34 33
f 11 23 34
f 24 36 35
f 25 37 36
f 25 26 38
f 26 27 39
f 27 28 40
f 28 29 41
f 29 30 42
f 31 43 42
f 32 44 43
f 32 33 45
f 33 34 46
f 23 35 46
f 36 48 47
f 37 49 48
f 37 38 50
f 39 51 50
f 39 40 52
f 40 41 53
f 42 54 53
f 42 43 55
f 44 56 55
f 44 45 57
f 46 58 57
f 35 47 58
f 48 60 59
f 48 49 61
f 49 50 62
f 51 63 62
f 51 52 64
f 52 53 65
f 53 54 66
f 54 55 67
f 56 68 67
f 57 69 68
f 57 58 70
f 58 47 59
f 60 72 71
f 60 61 73
f 61 62 74
f 62 63 75
f 63 64 76
f 64 65 77
f 66 78 77
f 67 79 78
f 67 68 80
f 68 69 81
f 69 70 82
f 59 71 82
f 72 84 83
f 72 73 85
f 74 86 85
f 74 75 87
f 76 88 87
f 76 77 89
f 78 90 89
f 78 79 91
f 79 80 92
f 80 81 93
f 82 94 93
f 71 83 94
f 83 84 96
f 84 85 97
f 86 98 97
f 86 87 99
f 87 88 100
f 88 89 101
f 89 90 102
f 90 91 103
f 91 92 104
f 92 93 105
f 94 106 105
f 94 83 95
f 96 108 107
f 97 109 108
f 97 98 110
f 99 111 110
f 100 112 111
f 100 101 113
f 102 114 113
f 103 115 114
f 103 104 116
f 104 105 117
f 106 118 117
f 106 95 107
f 108 120 119
f 108 109 121
f 110 122 121
f 111 123 122
f 112 124 123
f 112 113 125
f 113 114 126
f 114 115 127
f 115 116 128
f 116 117 129
f 117 118 130
f 107 119 130
f 120 132 131
f 121 133 132
f 121 122 134
f 123 135 134
f 123 124 136
f 124 125 137
f 125 126 138
f 126 127 139
f 128 140 139
f 129 141 140
f 129 130 142
f 119 131 142
f 132 144 143
f 132 133 145
f 134 146 145
f 135 147 146
f 135 136 148
f 137 149 148
f 137 138 150
f 139 151 150
f 140 152 151
f 140 141 153
f 142 154 153
f 131 143 154
f 144 156 155
f 145 157 156
f 145 146 158
f 147 159 158
f 147 148 160
f 148 149 161
f 150 162 161
f 151 163 162
f 152 164 163
f 153 165 164
f 153 154 166
f 143 155 166
f 155 156 168
f 157 169 168
f 157 158 170
f 159 171 170
f 160 172 171
f 161 173 172
f 162 174 173
f 162 163 175
f 164 176 175
f 165 177 176
f 166 178 177
f 155 167 178
f 168 180 179
f 168 169 181
f 169 170 182
f 170 171 183
f 171 172 184
f 172 173 185
f 173 174 186
f 175 187 186
f 176 188 187
f 177 189 188
f 178 190 189
f 167 179 190
f 179 180 192
f 181 193 192
f 182 194 193
f 182 183 195
f 183 184 196
f 185 197 196
f 186 198 197
f 187 199 198
f 188 200 199
f 188 189 201
f 190 202 201
f 179 191 202
f 191 192 204
f 193 205 204
f 194 206 205
f 194 195 207
f 195 196 208
f 197 209 208
f 197 198 210
f 198 199 211
f 200 212 211
f 201 213 212
f 201 202 214
f 202 191 203
f 204 216 215
f 205 217 216
f 205 206 218
f 206 207 219
f 207 208 220
f 209 221 220
f 210 222 221
f 210 211 223
f 212 224 223
f 213 225 224
f 213 214 226
f 203 215 226
f 215 216 228
f 216 217 229
f 218 230 229
f 218 219 231
f 220 232 231
f 221 233 232
f 222 234 233
f 222 223 235
f 223 224 236
f 225 237 236
f 225 226 238
f 215 227 238
f 227 228 240
f 228 229 241
f 229 230 242
f 231 243 242
f 232 244 243
f 232 233 245
f 233 234 246
f 235 247 246
f 236 248 247
f 236 237 249
f 237 238 250
f 227 239 250
f 240 252 251
f 241 253 252
f 241 242 254
f 243 255 254
f 244 256 255
f 245 257 256
f 245 246 258
f 246 247 259
f 248 260 259
f 248 249 261
f 249 250 262
f 250 239 251
f 251 252 264
f 253 265 264
f 253 254 266
f 255 267 266
f 255 256 268
f 256 257 269
f 258 270 269
f 258 259 271
f 259 260 272
f 260 261 273
f 262 274 273
f 251 263 274
f 263 264 276
f 265 277 276
f 265 266 278
f 267 279 278
f 267 268 280
f 268 269 281
f 269 270 282
f 271 283 282
f 272 284 283
f 273 285 284
f 273 274 286
f 274 263 275
f 275 276 288
f 276 277 289
f 278 290 289
f 279 291 290
f 279 280 292
f 281 293 292
f 282 294 293
f 283 295 294
f 283 284 296
f 284 285 297
f 285 286 298
f 286 275 287
f 288 300 299
f 289 301 300
f 289 290 302
f 290 291 303
f 291 292 304
f 293 305 304
f 293 294 306
f 294 295 307
f 296 308 307
f 297 309 308
f 298 310 309
f 287 299 310
f 300 312 311
f 300 301 313
f 302 314 313
f 302 303 315
f 304 316 315
f 305 317 316
f 306 318 317
f 306 307 319
f 307 308 320
f 309 321 320
f 310 322 321
f 299 311 322
f 312 324 323
f 312 313 325
f 314 326 325
f 315 327 326
f 316 328 327
f 317 329 328
f 317 318 330
f 319 331 330
f 320 332 331
f 321 333 332
f 321 322 334
f 322 311 323
f 323 324 336
f 324 325 337
f 326 338 337
f 326 327 339
f 327 328 340
f 328 329 341
f 330 342 341
f 331 343 342
f 331 332 344
f 333 345 344
f 334 346 345
f 323 335 346
f 336 348 347
f 337 349 348
f 338 350 349
f 338 339 351
f 340 352 351
f 341 353 352
f 342 354 353
f 343 355 354
f 343 344 356
f 344 345 357
f 346 358 357
f 346 335 347
f 348 360 359
f 349 361 360
f 350 362 361
f 351 363 362
f 351 352 364
f 352 353 365
f 353 354 366
f 354 355 367
f 356 368 367
f 357 369 368
f 358 370 369
f 358 347 359
f 359 360 372
f 360 361 373
f 362 374 373
f 363 375 374
f 364 376 375
f 364 365 377
f 365 366 378
f 367 379 378
f 367 368 380
f 368 369 381
f 370 382 381
f 370 359 371
f 372 384 383
f 372 373 385
f 374 386 385
f 375 387 386
f 375 376 388
f 377 389 388
f 378 390 389
f 379 391 390
f 379 380 392
f 381 393 392
f 382 394 393
f 371 383 394
f 384 396 395
f 384 385 397
f 385 386 398
f 387 399 398
f 388 400 399
f 388 389 401
f 389 390 402
f 390 391 403
f 391 392 404
f 393 405 404
f 393 394 406
f 394 383 395
f 395 396 408
f 397 409 408
f 398 410 409
f 399 411 410
f 400 412 411
f 401 413 412
f 402 414 413
f 402 403 415
f 403 404 416
f 404 405 417
f 405 406 418
f 406 395 407
f 408 420 419
f 408 409 421
f 410 422 421
f 410 411 423
f 411 412 424
f 412 413 425
f 413 414 426
f 415 427 426
f 415 416 428
f 417 429 428
f 418 430 429
f 418 407 419
f 419 420 432
f 420 421 433
f 422 434 433
f 423 435 434
f 424 436 435
f 425 437 436
f 425 426 438
f 427 439 438
f 427 428 440
f 429 441 440
f 430 442 441
f 430 419 431
f 432 444 443
f 433 445 444
f 434 446 445
f 434 435 447
f 435 436 448
f 436 437 449
f 438 450 449
f 438 439 451
f 439 440 452
f 441 453 452
f 441 442 454
f 442 431 443
f 443 444 456
f 444 445 457
f 446 458 457
f 446 447 459
f 448 460 459
f 449 461 460
f 450 462 461
f 450 451 463
f 451 452 464
f 452 453 465
f 454 466 465
f 454 443 455
f 455 456 468
f 457 469 468
f 457 458 470
f 458 459 471
f 459 460 472
f 461 473 472
f 462 474 473
f 463 475 474
f 464 476 475
f 465 477 476
f 466 478 477
f 466 455 467
f 467 468 480
f 468 469 481
f 470 482 481
f 470 471 483
f 471 472 484
f 473 485 484
f 473 474 486
f 474 475 487
f 476 488 487
f 477 489 488
f 477 478 490
f 467 479 490
f 480 492 491
f 481 493 492
f 482 494 493
f 483 495 494
f 484 496 495
f 485 497 496
f 486 498 497
f 487 499 498
f 488 500 499
f 489 501 500
f 489 490 502
f 479 491 502
f 491 492 504
f 493 505 504
f 493 494 506
f 495 507 506
f 495 496 508
f 497 509 508
f 497 498 510
f 499 511 510
f 499 500 512
f 501 513 512
f 501 502 514
f 502 491 503
f 503 504 516
f 505 517 516
f 506 518 517
f 507 519 518
f 508 520 519
f 509 521 520
f 509 510 522
f 510 511 523
f 512 524 523
f 512 513 525
f 514 526 525
f 514 503 515
f 515 516 528
f 517 529 528
f 518 530 529
f 518 519 531
f 519 520 532
f 521 533 532
f 522 534 533
f 523 535 534
f 523 524 536
f 524 525 537
f 526 538 537
f 515 527 538
f 527 528 540
f 528 529 541
f 530 542 541
f 530 531 543
f 532 544 543
f 533 545 544
f 533 534 546
f 535 547 546
f 535 536 548
f 537 549 548
f 537 538 550
f 538 527 539
f 539 540 552
f 541 553 552
f 542 554 553
f 543 555 554
f 544 556 555
f 545 557 556
f 546 558 557
f 547 559 558
f 547 548 560
f 549 561 560
f 550 562 561
f 550 539 551
f 552 564 563
f 553 565 564
f 553 554 566
f 554 555 567
f 556 568 567
f 556 557 569
f 558 570 569
f 559 571 570
f 560 572 571
f 561 573 572
f 561 562 574
f 551 563 574
f 564 576 575
f 565 577 576
f 566 578 577
f 567 579 578
f 568 580 579
f 569 581 580
f 569 570 582
f 570 571 583
f 571 572 584
f 572 573 585
f 573 574 586
f 574 563 575
