# celestial_dragon Energy10_EnergyPale.obj: Roblox cue frame, recentred on its bounding box
v 0.35600 0.05320 1.14386
v 0.35600 0.05320 1.14386
v 0.34401 0.05275 1.14386
v 0.34401 0.05275 1.14386
v 0.35226 0.09305 1.07470
v 0.35226 0.09305 1.12830
v 0.34039 0.09125 1.12830
v 0.34039 0.09125 1.07470
v 0.34404 0.13223 1.01855
v 0.34404 0.13223 1.09972
v 0.33245 0.12910 1.09972
v 0.33245 0.12910 1.01855
v 0.33146 0.17022 0.96510
v 0.33146 0.17022 1.06844
v 0.32030 0.16581 1.06844
v 0.32030 0.16581 0.96510
v 0.31467 0.20656 0.91314
v 0.31467 0.20656 1.03566
v 0.30408 0.20092 1.03566
v 0.30408 0.20092 0.91314
v 0.29390 0.24077 0.86221
v 0.29390 0.24077 1.00186
v 0.28401 0.23397 1.00186
v 0.28401 0.23397 0.86221
v 0.26939 0.27242 0.81207
v 0.26939 0.27242 0.96728
v 0.26033 0.26455 0.96728
v 0.26033 0.26455 0.81207
v 0.24147 0.30111 0.76256
v 0.24147 0.30111 0.93205
v 0.23336 0.29227 0.93205
v 0.23336 0.29227 0.76256
v 0.21050 0.32646 0.71360
v 0.21050 0.32646 0.89629
v 0.20344 0.31676 0.89629
v 0.20344 0.31676 0.71360
v 0.17687 0.34816 0.66511
v 0.17687 0.34816 0.86004
v 0.17094 0.33772 0.86004
v 0.17094 0.33772 0.66511
v 0.14100 0.36592 0.61707
v 0.14100 0.36592 0.82335
v 0.13629 0.35489 0.82335
v 0.13629 0.35489 0.61707
v 0.10335 0.37953 0.56943
v 0.10335 0.37953 0.78626
v 0.09992 0.36803 0.78626
v 0.09992 0.36803 0.56943
v 0.06442 0.38881 0.52216
v 0.06442 0.38881 0.74880
v 0.06230 0.37700 0.74880
v 0.06230 0.37700 0.52216
v 0.02468 0.39363 0.47526
v 0.02468 0.39363 0.71097
v 0.02391 0.38166 0.71097
v 0.02391 0.38166 0.47526
v -0.01534 0.39394 0.42871
v -0.01534 0.39394 0.67279
v -0.01476 0.38196 0.67279
v -0.01476 0.38196 0.42871
v -0.05515 0.38974 0.38249
v -0.05515 0.38974 0.63428
v -0.05322 0.37790 0.63428
v -0.05322 0.37790 0.38249
v -0.09423 0.38107 0.33660
v -0.09423 0.38107 0.59544
v -0.09097 0.36952 0.59544
v -0.09097 0.36952 0.33660
v -0.13208 0.36806 0.29103
v -0.13208 0.36806 0.55628
v -0.12754 0.35695 0.55628
v -0.12754 0.35695 0.29103
v -0.16822 0.35085 0.24578
v -0.16822 0.35085 0.51680
v -0.16246 0.34033 0.51680
v -0.16246 0.34033 0.24578
v -0.20219 0.32968 0.20084
v -0.20219 0.32968 0.47701
v -0.19528 0.31987 0.47701
v -0.19528 0.31987 0.20084
v -0.23356 0.30481 0.15620
v -0.23356 0.30481 0.43691
v -0.22558 0.29585 0.43691
v -0.22558 0.29585 0.15620
v -0.26192 0.27657 0.11188
v -0.26192 0.27657 0.39650
v -0.25298 0.26856 0.39650
v -0.25298 0.26856 0.11188
v -0.28691 0.24531 0.06786
v -0.28691 0.24531 0.35580
v -0.27713 0.23835 0.35580
v -0.27713 0.23835 0.06786
v -0.30822 0.21142 0.02414
v -0.30822 0.21142 0.31478
v -0.29772 0.20562 0.31478
v -0.29772 0.20562 0.02414
v -0.39951 0.20591 -0.01928
v -0.39951 0.20591 0.27347
v -0.38842 0.20132 0.27347
v -0.38842 0.20132 -0.01928
v -0.41566 0.15957 -0.06239
v -0.41566 0.15957 0.23185
v -0.40412 0.15627 0.23185
v -0.40412 0.15627 -0.06239
v -0.42647 0.11172 -0.10521
v -0.42647 0.11172 0.18994
v -0.41464 0.10974 0.18994
v -0.41464 0.10974 -0.10521
v -0.43183 0.06295 -0.14772
v -0.43183 0.06295 0.14772
v -0.41984 0.06231 0.14772
v -0.41984 0.06231 -0.14772
v -0.43164 0.01388 -0.18994
v -0.43164 0.01388 0.10521
v -0.41967 0.01461 0.10521
v -0.41967 0.01461 -0.18994
v -0.42593 -0.03485 -0.23186
v -0.42593 -0.03485 0.06239
v -0.41411 -0.03278 0.06239
v -0.41411 -0.03278 -0.23186
v -0.41476 -0.08262 -0.27347
v -0.41476 -0.08262 0.01928
v -0.40324 -0.07923 0.01928
v -0.40324 -0.07923 -0.27347
v -0.39827 -0.12883 -0.31478
v -0.39827 -0.12883 -0.02414
v -0.38721 -0.12417 -0.02414
v -0.38721 -0.12417 -0.31478
v -0.37667 -0.17289 -0.35580
v -0.37667 -0.17289 -0.06786
v -0.36621 -0.16700 -0.06786
v -0.36621 -0.16700 -0.35580
v -0.35024 -0.21422 -0.39650
v -0.35024 -0.21422 -0.11188
v -0.34051 -0.20720 -0.11188
v -0.34051 -0.20720 -0.39650
v -0.31932 -0.25232 -0.43691
v -0.31932 -0.25232 -0.15621
v -0.31044 -0.24424 -0.15621
v -0.31044 -0.24424 -0.43691
v -0.28430 -0.28668 -0.47701
v -0.28430 -0.28668 -0.20084
v -0.27639 -0.27765 -0.20084
v -0.27639 -0.27765 -0.47701
v -0.24563 -0.31688 -0.51680
v -0.24563 -0.31688 -0.24578
v -0.23879 -0.30701 -0.24578
v -0.23879 -0.30701 -0.51680
v -0.20379 -0.34252 -0.55628
v -0.20379 -0.34252 -0.29103
v -0.19811 -0.33195 -0.29103
v -0.19811 -0.33195 -0.55628
v -0.15934 -0.36327 -0.59544
v -0.15934 -0.36327 -0.33660
v -0.15488 -0.35213 -0.33660
v -0.15488 -0.35213 -0.59544
v -0.11282 -0.37889 -0.63428
v -0.11282 -0.37889 -0.38249
v -0.10965 -0.36731 -0.38249
v -0.10965 -0.36731 -0.63428
v -0.06485 -0.38915 -0.67279
v -0.06485 -0.38915 -0.42871
v -0.06300 -0.37730 -0.42871
v -0.06300 -0.37730 -0.67279
v -0.01602 -0.39394 -0.71097
v -0.01602 -0.39394 -0.47526
v -0.01552 -0.38195 -0.47526
v -0.01552 -0.38195 -0.71097
v 0.03304 -0.39320 -0.74880
v 0.03304 -0.39320 -0.52216
v 0.03218 -0.38123 -0.52216
v 0.03218 -0.38123 -0.74880
v 0.08170 -0.38692 -0.78626
v 0.08170 -0.38692 -0.56943
v 0.07950 -0.37513 -0.56943
v 0.07950 -0.37513 -0.78626
v 0.12934 -0.37520 -0.82335
v 0.12934 -0.37520 -0.61707
v 0.12582 -0.36373 -0.61707
v 0.12582 -0.36373 -0.82335
v 0.17536 -0.35818 -0.86004
v 0.17536 -0.35818 -0.66511
v 0.17057 -0.34717 -0.66511
v 0.17057 -0.34717 -0.86004
v 0.21916 -0.33607 -0.89629
v 0.21916 -0.33607 -0.71360
v 0.21316 -0.32568 -0.71360
v 0.21316 -0.32568 -0.89629
v 0.26020 -0.30917 -0.93205
v 0.26020 -0.30917 -0.76256
v 0.25306 -0.29952 -0.76256
v 0.25306 -0.29952 -0.93205
v 0.29793 -0.27781 -0.96728
v 0.29793 -0.27781 -0.81207
v 0.28975 -0.26903 -0.81207
v 0.28975 -0.26903 -0.96728
v 0.33189 -0.24240 -1.00186
v 0.33189 -0.24240 -0.86221
v 0.32277 -0.23460 -0.86221
v 0.32277 -0.23460 -1.00186
v 0.36164 -0.20338 -1.03566
v 0.36164 -0.20338 -0.91314
v 0.35170 -0.19666 -0.91314
v 0.35170 -0.19666 -1.03566
v 0.38679 -0.16126 -1.06844
v 0.38679 -0.16126 -0.96510
v 0.37616 -0.15570 -0.96510
v 0.37616 -0.15570 -1.06844
v 0.40704 -0.11656 -1.09972
v 0.40704 -0.11656 -1.01855
v 0.39584 -0.11224 -1.01855
v 0.39584 -0.11224 -1.09972
v 0.42211 -0.06987 -1.12830
v 0.42211 -0.06987 -1.07470
v 0.41050 -0.06684 -1.07470
v 0.41050 -0.06684 -1.12830
v 0.43183 -0.02178 -1.14386
v 0.43183 -0.02178 -1.14386
v 0.41995 -0.02007 -1.14386
v 0.41995 -0.02007 -1.14386
f 1 6 5
f 2 7 6
f 3 8 7
f 1 8 4
f 5 10 9
f 7 10 6
f 8 11 7
f 8 9 12
f 9 14 13
f 11 14 10
f 12 15 11
f 12 13 16
f 13 18 17
f 15 18 14
f 16 19 15
f 13 20 16
f 17 22 21
f 19 22 18
f 20 23 19
f 17 24 20
f 21 26 25
f 22 27 26
f 24 27 23
f 21 28 24
f 25 30 29
f 27 30 26
f 28 31 27
f 28 29 32
f 29 34 33
f 31 34 30
f 32 35 31
f 29 36 32
f 33 38 37
f 35 38 34
f 36 39 35
f 36 37 40
f 37 42 41
f 39 42 38
f 40 43 39
f 40 41 44
f 41 46 45
f 42 47 46
f 44 47 43
f 41 48 44
f 45 50 49
f 47 50 46
f 48 51 47
f 45 52 48
f 49 54 53
f 51 54 50
f 52 55 51
f 49 56 52
f 53 58 57
f 54 59 58
f 56 59 55
f 53 60 56
f 57 62 61
f 58 63 62
f 60 63 59
f 60 61 64
f 61 66 65
f 62 67 66
f 64 67 63
f 61 68 64
f 65 70 69
f 67 70 66
f 68 71 67
f 68 69 72
f 69 74 73
f 71 74 70
f 72 75 71
f 69 76 72
f 73 78 77
f 74 79 78
f 76 79 75
f 73 80 76
f 77 82 81
f 78 83 82
f 80 83 79
f 77 84 80
f 81 86 85
f 83 86 82
f 84 87 83
f 84 85 88
f 85 90 89
f 86 91 90
f 88 91 87
f 85 92 88
f 89 94 93
f 91 94 90
f 92 95 91
f 89 96 92
f 93 98 97
f 94 99 98
f 96 99 95
f 93 100 96
f 97 102 101
f 98 103 102
f 100 103 99
f 100 101 104
f 101 106 105
f 102 107 106
f 104 107 103
f 104 105 108
f 105 110 109
f 107 110 106
f 108 111 107
f 108 109 112
f 109 114 113
f 110 115 114
f 112 115 111
f 112 113 116
f 113 118 117
f 115 118 114
f 116 119 115
f 116 117 120
f 117 122 121
f 119 122 118
f 120 123 119
f 117 124 120
f 121 126 125
f 122 127 126
f 124 127 123
f 124 125 128
f 125 130 129
f 126 131 130
f 128 131 127
f 125 132 128
f 129 134 133
f 130 135 134
f 132 135 131
f 129 136 132
f 133 138 137
f 135 138 134
f 136 139 135
f 133 140 136
f 137 142 141
f 138 143 142
f 140 143 139
f 140 141 144
f 141 146 145
f 142 147 146
f 144 147 143
f 141 148 144
f 145 150 149
f 147 150 146
f 148 151 147
f 145 152 148
f 149 154 153
f 150 155 154
f 152 155 151
f 149 156 152
f 153 158 157
f 155 158 154
f 156 159 155
f 153 160 156
f 157 162 161
f 159 162 158
f 160 163 159
f 160 161 164
f 161 166 165
f 162 167 166
f 164 167 163
f 164 165 168
f 165 170 169
f 167 170 166
f 168 171 167
f 168 169 172
f 169 174 173
f 170 175 174
f 172 175 171
f 169 176 172
f 173 178 177
f 175 178 174
f 176 179 175
f 173 180 176
f 177 182 181
f 178 183 182
f 180 183 179
f 177 184 180
f 181 186 185
f 183 186 182
f 184 187 183
f 184 185 188
f 185 190 189
f 187 190 186
f 188 191 187
f 185 192 188
f 189 194 193
f 190 195 194
f 192 195 191
f 192 193 196
f 193 198 197
f 194 199 198
f 196 199 195
f 196 197 200
f 197 202 201
f 198 203 202
f 200 203 199
f 200 201 204
f 201 206 205
f 203 206 202
f 204 207 203
f 201 208 204
f 205 210 209
f 207 210 206
f 208 211 207
f 208 209 212
f 209 214 213
f 211 214 210
f 212 215 211
f 209 216 212
f 213 218 217
f 214 219 218
f 215 220 219
f 213 220 216
f 4 2 1
f 217 219 220
f 1 2 6
f 2 3 7
f 3 4 8
f 1 5 8
f 5 6 10
f 7 11 10
f 8 12 11
f 8 5 9
f 9 10 14
f 11 15 14
f 12 16 15
f 12 9 13
f 13 14 18
f 15 19 18
f 16 20 19
f 13 17 20
f 17 18 22
f 19 23 22
f 20 24 23
f 17 21 24
f 21 22 26
f 22 23 27
f 24 28 27
f 21 25 28
f 25 26 30
f 27 31 30
f 28 32 31
f 28 25 29
f 29 30 34
f 31 35 34
f 32 36 35
f 29 33 36
f 33 34 38
f 35 39 38
f 36 40 39
f 36 33 37
f 37 38 42
f 39 43 42
f 40 44 43
f 40 37 41
f 41 42 46
f 42 43 47
f 44 48 47
f 41 45 48
f 45 46 50
f 47 51 50
f 48 52 51
f 45 49 52
f 49 50 54
f 51 55 54
f 52 56 55
f 49 53 56
f 53 54 58
f 54 55 59
f 56 60 59
f 53 57 60
f 57 58 62
f 58 59 63
f 60 64 63
f 60 57 61
f 61 62 66
f 62 63 67
f 64 68 67
f 61 65 68
f 65 66 70
f 67 71 70
f 68 72 71
f 68 65 69
f 69 70 74
f 71 75 74
f 72 76 75
f 69 73 76
f 73 74 78
f 74 75 79
f 76 80 79
f 73 77 80
f 77 78 82
f 78 79 83
f 80 84 83
f 77 81 84
f 81 82 86
f 83 87 86
f 84 88 87
f 84 81 85
f 85 86 90
f 86 87 91
f 88 92 91
f 85 89 92
f 89 90 94
f 91 95 94
f 92 96 95
f 89 93 96
f 93 94 98
f 94 95 99
f 96 100 99
f 93 97 100
f 97 98 102
f 98 99 103
f 100 104 103
f 100 97 101
f 101 102 106
f 102 103 107
f 104 108 107
f 104 101 105
f 105 106 110
f 107 111 110
f 108 112 111
f 108 105 109
f 109 110 114
f 110 111 115
f 112 116 115
f 112 109 113
f 113 114 118
f 115 119 118
f 116 120 119
f 116 113 117
f 117 118 122
f 119 123 122
f 120 124 123
f 117 121 124
f 121 122 126
f 122 123 127
f 124 128 127
f 124 121 125
f 125 126 130
f 126 127 131
f 128 132 131
f 125 129 132
f 129 130 134
f 130 131 135
f 132 136 135
f 129 133 136
f 133 134 138
f 135 139 138
f 136 140 139
f 133 137 140
f 137 138 142
f 138 139 143
f 140 144 143
f 140 137 141
f 141 142 146
f 142 143 147
f 144 148 147
f 141 145 148
f 145 146 150
f 147 151 150
f 148 152 151
f 145 149 152
f 149 150 154
f 150 151 155
f 152 156 155
f 149 153 156
f 153 154 158
f 155 159 158
f 156 160 159
f 153 157 160
f 157 158 162
f 159 163 162
f 160 164 163
f 160 157 161
f 161 162 166
f 162 163 167
f 164 168 167
f 164 161 165
f 165 166 170
f 167 171 170
f 168 172 171
f 168 165 169
f 169 170 174
f 170 171 175
f 172 176 175
f 169 173 176
f 173 174 178
f 175 179 178
f 176 180 179
f 173 177 180
f 177 178 182
f 178 179 183
f 180 184 183
f 177 181 184
f 181 182 186
f 183 187 186
f 184 188 187
f 184 181 185
f 185 186 190
f 187 191 190
f 188 192 191
f 185 189 192
f 189 190 194
f 190 191 195
f 192 196 195
f 192 189 193
f 193 194 198
f 194 195 199
f 196 200 199
f 196 193 197
f 197 198 202
f 198 199 203
f 200 204 203
f 200 197 201
f 201 202 206
f 203 207 206
f 204 208 207
f 201 205 208
f 205 206 210
f 207 211 210
f 208 212 211
f 208 205 209
f 209 210 214
f 211 215 214
f 212 216 215
f 209 213 216
f 213 214 218
f 214 215 219
f 215 216 220
f 213 217 220
f 4 3 2
f 217 218 219
