# celestial_dragon Energy22_EnergyPale.obj: Roblox cue frame, recentred on its bounding box
v 0.10203 0.22783 0.86616
v 0.10203 0.22783 0.86616
v 0.09872 0.22055 0.86616
v 0.09872 0.22055 0.86616
v 0.14339 0.20479 0.82336
v 0.14339 0.20479 0.83678
v 0.13877 0.19825 0.83678
v 0.13877 0.19825 0.82336
v 0.17977 0.17431 0.78382
v 0.17977 0.17431 0.80414
v 0.17400 0.16876 0.80414
v 0.17400 0.16876 0.78382
v 0.20985 0.13745 0.74496
v 0.20985 0.13745 0.77082
v 0.20315 0.13309 0.77082
v 0.20315 0.13309 0.74496
v 0.23253 0.09550 0.70647
v 0.23253 0.09550 0.73713
v 0.22512 0.09247 0.73713
v 0.22512 0.09247 0.70647
v 0.24696 0.04993 0.66826
v 0.24696 0.04993 0.70316
v 0.23911 0.04834 0.70316
v 0.23911 0.04834 0.66826
v 0.25258 0.00234 0.63024
v 0.25258 0.00234 0.66900
v 0.24458 0.00226 0.66900
v 0.24458 0.00226 0.63024
v 0.24916 -0.04557 0.59239
v 0.24916 -0.04557 0.63467
v 0.24129 -0.04415 0.63467
v 0.24129 -0.04415 0.59239
v 0.23677 -0.09209 0.55469
v 0.23677 -0.09209 0.60019
v 0.22930 -0.08922 0.60019
v 0.22930 -0.08922 0.55469
v 0.21581 -0.13557 0.51711
v 0.21581 -0.13557 0.56559
v 0.20901 -0.13134 0.56559
v 0.20901 -0.13134 0.51711
v 0.18699 -0.17442 0.47966
v 0.18699 -0.17442 0.53086
v 0.18111 -0.16900 0.53086
v 0.18111 -0.16900 0.47966
v 0.15129 -0.20725 0.44231
v 0.15129 -0.20725 0.49603
v 0.14654 -0.20082 0.49603
v 0.14654 -0.20082 0.44231
v 0.10997 -0.23285 0.40507
v 0.10997 -0.23285 0.46109
v 0.10651 -0.22564 0.46109
v 0.10651 -0.22564 0.40507
v 0.06447 -0.25027 0.36793
v 0.06447 -0.25027 0.42605
v 0.06243 -0.24254 0.42605
v 0.06243 -0.24254 0.36793
v 0.01640 -0.25886 0.33089
v 0.01640 -0.25886 0.39091
v 0.01584 -0.25088 0.39091
v 0.01584 -0.25088 0.33089
v -0.03255 -0.25826 0.29394
v -0.03255 -0.25826 0.35568
v -0.03160 -0.25032 0.35568
v -0.03160 -0.25032 0.29394
v -0.08063 -0.24846 0.25709
v -0.08063 -0.24846 0.32035
v -0.07820 -0.24083 0.32035
v -0.07820 -0.24083 0.25709
v -0.12612 -0.22975 0.22033
v -0.12612 -0.22975 0.28493
v -0.12230 -0.22272 0.28493
v -0.12230 -0.22272 0.22033
v -0.16737 -0.20277 0.18366
v -0.16737 -0.20277 0.24942
v -0.16231 -0.19658 0.24942
v -0.16231 -0.19658 0.18366
v -0.20291 -0.16844 0.14708
v -0.20291 -0.16844 0.21382
v -0.19677 -0.16331 0.21382
v -0.19677 -0.16331 0.14708
v -0.23144 -0.12795 0.11059
v -0.23144 -0.12795 0.17813
v -0.22444 -0.12407 0.17813
v -0.22444 -0.12407 0.11059
v -0.25190 -0.08272 0.07419
v -0.25190 -0.08272 0.14235
v -0.24430 -0.08022 0.14235
v -0.24430 -0.08022 0.07419
v -0.26352 -0.03435 0.03787
v -0.26352 -0.03435 0.10649
v -0.25559 -0.03331 0.10649
v -0.25559 -0.03331 0.03787
v -0.26586 0.01547 0.00165
v -0.26586 0.01547 0.07053
v -0.25787 0.01499 0.07053
v -0.25787 0.01499 0.00165
v -0.25878 0.06495 -0.03448
v -0.25878 0.06495 0.03448
v -0.25102 0.06298 0.03448
v -0.25102 0.06298 -0.03448
v -0.24249 0.11233 -0.07053
v -0.24249 0.11233 -0.00165
v -0.23525 0.10894 -0.00165
v -0.23525 0.10894 -0.07053
v -0.21754 0.15591 -0.10649
v -0.21754 0.15591 -0.03787
v -0.21106 0.15122 -0.03787
v -0.21106 0.15122 -0.10649
v -0.18477 0.19411 -0.14235
v -0.18477 0.19411 -0.07418
v -0.17929 0.18829 -0.07418
v -0.17929 0.18829 -0.14235
v -0.14532 0.22555 -0.17813
v -0.14532 0.22555 -0.11059
v -0.14103 0.21880 -0.11059
v -0.14103 0.21880 -0.17813
v -0.10046 0.24881 -0.21382
v -0.10046 0.24881 -0.14708
v -0.09751 0.24138 -0.14708
v -0.09751 0.24138 -0.21382
v -0.05191 0.26293 -0.24942
v -0.05191 0.26293 -0.18366
v -0.05041 0.25507 -0.18366
v -0.05041 0.25507 -0.24942
v -0.00157 0.26768 -0.28493
v -0.00157 0.26768 -0.22033
v -0.00157 0.25968 -0.22033
v -0.00157 0.25968 -0.28493
v 0.04876 0.26289 -0.32035
v 0.04876 0.26289 -0.25709
v 0.04726 0.25503 -0.25709
v 0.04726 0.25503 -0.32035
v 0.09730 0.24873 -0.35568
v 0.09730 0.24873 -0.29394
v 0.09435 0.24129 -0.29394
v 0.09435 0.24129 -0.35568
v 0.14232 0.22570 -0.39091
v 0.14232 0.22570 -0.33089
v 0.13802 0.21895 -0.33089
v 0.13802 0.21895 -0.39091
v 0.18221 0.19463 -0.42605
v 0.18221 0.19463 -0.36793
v 0.17672 0.18881 -0.36793
v 0.17672 0.18881 -0.42605
v 0.21555 0.15663 -0.46109
v 0.21555 0.15663 -0.40507
v 0.20907 0.15194 -0.40507
v 0.20907 0.15194 -0.46109
v 0.24116 0.11303 -0.49603
v 0.24116 0.11303 -0.44231
v 0.23391 0.10965 -0.44231
v 0.23391 0.10965 -0.49603
v 0.25813 0.06540 -0.53086
v 0.25813 0.06540 -0.47966
v 0.25038 0.06344 -0.47966
v 0.25038 0.06344 -0.53086
v 0.26586 0.01543 -0.56559
v 0.26586 0.01543 -0.51711
v 0.25787 0.01496 -0.51711
v 0.25787 0.01496 -0.56559
v 0.26406 -0.03509 -0.60019
v 0.26406 -0.03509 -0.55469
v 0.25613 -0.03406 -0.55469
v 0.25613 -0.03406 -0.60019
v 0.25280 -0.08439 -0.63467
v 0.25280 -0.08439 -0.59239
v 0.24520 -0.08188 -0.59239
v 0.24520 -0.08188 -0.63467
v 0.23249 -0.13069 -0.66900
v 0.23249 -0.13069 -0.63024
v 0.22550 -0.12680 -0.63024
v 0.22550 -0.12680 -0.66900
v 0.20384 -0.17235 -0.70316
v 0.20384 -0.17235 -0.66826
v 0.19770 -0.16721 -0.66826
v 0.19770 -0.16721 -0.70316
v 0.16787 -0.20789 -0.73712
v 0.16787 -0.20789 -0.70647
v 0.16281 -0.20169 -0.70647
v 0.16281 -0.20169 -0.73712
v 0.12587 -0.23604 -0.77082
v 0.12587 -0.23604 -0.74496
v 0.12207 -0.22901 -0.74496
v 0.12207 -0.22901 -0.77082
v 0.07934 -0.25581 -0.80414
v 0.07934 -0.25581 -0.78382
v 0.07692 -0.24818 -0.78382
v 0.07692 -0.24818 -0.80414
v 0.02991 -0.26648 -0.83678
v 0.02991 -0.26648 -0.82336
v 0.02897 -0.25853 -0.82336
v 0.02897 -0.25853 -0.83678
v -0.02063 -0.26768 -0.86616
v -0.02063 -0.26768 -0.86616
v -0.02007 -0.25970 -0.86616
v -0.02007 -0.25970 -0.86616
f 1 6 5
f 2 7 6
f 3 8 7
f 1 8 4
f 5 10 9
f 6 11 10
f 8 11 7
f 5 12 8
f 9 14 13
f 10 15 14
f 12 15 11
f 9 16 12
f 13 18 17
f 14 19 18
f 16 19 15
f 13 20 16
f 17 22 21
f 18 23 22
f 20 23 19
f 17 24 20
f 21 26 25
f 22 27 26
f 24 27 23
f 21 28 24
f 25 30 29
f 26 31 30
f 28 31 27
f 25 32 28
f 29 34 33
f 30 35 34
f 32 35 31
f 29 36 32
f 33 38 37
f 34 39 38
f 36 39 35
f 33 40 36
f 37 42 41
f 38 43 42
f 40 43 39
f 37 44 40
f 41 46 45
f 42 47 46
f 44 47 43
f 41 48 44
f 45 50 49
f 46 51 50
f 48 51 47
f 45 52 48
f 49 54 53
f 50 55 54
f 52 55 51
f 49 56 52
f 53 58 57
f 54 59 58
f 56 59 55
f 53 60 56
f 57 62 61
f 58 63 62
f 60 63 59
f 57 64 60
f 61 66 65
f 62 67 66
f 64 67 63
f 61 68 64
f 65 70 69
f 66 71 70
f 68 71 67
f 65 72 68
f 69 74 73
f 70 75 74
f 72 75 71
f 69 76 72
f 73 78 77
f 74 79 78
f 76 79 75
f 73 80 76
f 77 82 81
f 78 83 82
f 80 83 79
f 77 84 80
f 81 86 85
f 82 87 86
f 84 87 83
f 81 88 84
f 85 90 89
f 86 91 90
f 88 91 87
f 85 92 88
f 89 94 93
f 90 95 94
f 92 95 91
f 89 96 92
f 93 98 97
f 94 99 98
f 96 99 95
f 93 100 96
f 97 102 101
f 98 103 102
f 100 103 99
f 97 104 100
f 101 106 105
f 102 107 106
f 104 107 103
f 101 108 104
f 105 110 109
f 106 111 110
f 108 111 107
f 105 112 108
f 109 114 113
f 110 115 114
f 112 115 111
f 109 116 112
f 113 118 117
f 114 119 118
f 116 119 115
f 113 120 116
f 117 122 121
f 118 123 122
f 120 123 119
f 117 124 120
f 121 126 125
f 123 126 122
f 124 127 123
f 124 125 128
f 125 130 129
f 127 130 126
f 128 131 127
f 125 132 128
f 129 134 133
f 131 134 130
f 132 135 131
f 132 133 136
f 133 138 137
f 135 138 134
f 136 139 135
f 133 140 136
f 137 142 141
f 138 143 142
f 140 143 139
f 140 141 144
f 141 146 145
f 143 146 142
f 144 147 143
f 141 148 144
f 145 150 149
f 146 151 150
f 148 151 147
f 145 152 148
f 149 154 153
f 151 154 150
f 152 155 151
f 149 156 152
f 153 158 157
f 155 158 154
f 156 159 155
f 156 157 160
f 157 162 161
f 159 162 158
f 160 163 159
f 160 161 164
f 161 166 165
f 163 166 162
f 164 167 163
f 164 165 168
f 165 170 169
f 166 171 170
f 168 171 167
f 165 172 168
f 169 174 173
f 171 174 170
f 172 175 171
f 172 173 176
f 173 178 177
f 174 179 178
f 176 179 175
f 173 180 176
f 177 182 181
f 178 183 182
f 180 183 179
f 177 184 180
f 181 186 185
f 182 187 186
f 184 187 183
f 184 185 188
f 185 190 189
f 187 190 186
f 188 191 187
f 188 189 192
f 189 194 193
f 191 194 190
f 191 196 195
f 189 196 192
f 4 2 1
f 193 195 196
f 1 2 6
f 2 3 7
f 3 4 8
f 1 5 8
f 5 6 10
f 6 7 11
f 8 12 11
f 5 9 12
f 9 10 14
f 10 11 15
f 12 16 15
f 9 13 16
f 13 14 18
f 14 15 19
f 16 20 19
f 13 17 20
f 17 18 22
f 18 19 23
f 20 24 23
f 17 21 24
f 21 22 26
f 22 23 27
f 24 28 27
f 21 25 28
f 25 26 30
f 26 27 31
f 28 32 31
f 25 29 32
f 29 30 34
f 30 31 35
f 32 36 35
f 29 33 36
f 33 34 38
f 34 35 39
f 36 40 39
f 33 37 40
f 37 38 42
f 38 39 43
f 40 44 43
f 37 41 44
f 41 42 46
f 42 43 47
f 44 48 47
f 41 45 48
f 45 46 50
f 46 47 51
f 48 52 51
f 45 49 52
f 49 50 54
f 50 51 55
f 52 56 55
f 49 53 56
f 53 54 58
f 54 55 59
f 56 60 59
f 53 57 60
f 57 58 62
f 58 59 63
f 60 64 63
f 57 61 64
f 61 62 66
f 62 63 67
f 64 68 67
f 61 65 68
f 65 66 70
f 66 67 71
f 68 72 71
f 65 69 72
f 69 70 74
f 70 71 75
f 72 76 75
f 69 73 76
f 73 74 78
f 74 75 79
f 76 80 79
f 73 77 80
f 77 78 82
f 78 79 83
f 80 84 83
f 77 81 84
f 81 82 86
f 82 83 87
f 84 88 87
f 81 85 88
f 85 86 90
f 86 87 91
f 88 92 91
f 85 89 92
f 89 90 94
f 90 91 95
f 92 96 95
f 89 93 96
f 93 94 98
f 94 95 99
f 96 100 99
f 93 97 100
f 97 98 102
f 98 99 103
f 100 104 103
f 97 101 104
f 101 102 106
f 102 103 107
f 104 108 107
f 101 105 108
f 105 106 110
f 106 107 111
f 108 112 111
f 105 109 112
f 109 110 114
f 110 111 115
f 112 116 115
f 109 113 116
f 113 114 118
f 114 115 119
f 116 120 119
f 113 117 120
f 117 118 122
f 118 119 123
f 120 124 123
f 117 121 124
f 121 122 126
f 123 127 126
f 124 128 127
f 124 121 125
f 125 126 130
f 127 131 130
f 128 132 131
f 125 129 132
f 129 130 134
f 131 135 134
f 132 136 135
f 132 129 133
f 133 134 138
f 135 139 138
f 136 140 139
f 133 137 140
f 137 138 142
f 138 139 143
f 140 144 143
f 140 137 141
f 141 142 146
f 143 147 146
f 144 148 147
f 141 145 148
f 145 146 150
f 146 147 151
f 148 152 151
f 145 149 152
f 149 150 154
f 151 155 154
f 152 156 155
f 149 153 156
f 153 154 158
f 155 159 158
f 156 160 159
f 156 153 157
f 157 158 162
f 159 163 162
f 160 164 163
f 160 157 161
f 161 162 166
f 163 167 166
f 164 168 167
f 164 161 165
f 165 166 170
f 166 167 171
f 168 172 171
f 165 169 172
f 169 170 174
f 171 175 174
f 172 176 175
f 172 169 173
f 173 174 178
f 174 175 179
f 176 180 179
f 173 177 180
f 177 178 182
f 178 179 183
f 180 184 183
f 177 181 184
f 181 182 186
f 182 183 187
f 184 188 187
f 184 181 185
f 185 186 190
f 187 191 190
f 188 192 191
f 188 185 189
f 189 190 194
f 191 195 194
f 191 192 196
f 189 193 196
f 4 3 2
f 193 194 195
