# celestial_dragon Energy27_Energy.obj: Roblox cue frame, recentred on its bounding box
v -0.20400 0.10053 0.81252
v -0.20400 0.10053 0.81252
v -0.19682 0.09700 0.81252
v -0.19682 0.09700 0.81252
v -0.18145 0.13813 0.77234
v -0.18145 0.13813 0.78049
v -0.17508 0.13329 0.78049
v -0.17508 0.13329 0.77234
v -0.15203 0.17080 0.73413
v -0.15203 0.17080 0.74647
v -0.14671 0.16482 0.74647
v -0.14671 0.16482 0.73413
v -0.11680 0.19729 0.69634
v -0.11680 0.19729 0.71203
v -0.11272 0.19041 0.71203
v -0.11272 0.19041 0.69634
v -0.07697 0.21641 0.65878
v -0.07697 0.21641 0.67737
v -0.07429 0.20888 0.67737
v -0.07429 0.20888 0.65878
v -0.03408 0.22714 0.62138
v -0.03408 0.22714 0.64254
v -0.03289 0.21923 0.64254
v -0.03289 0.21923 0.62138
v 0.01008 0.22945 0.58411
v 0.01008 0.22945 0.60759
v 0.00973 0.22146 0.60759
v 0.00973 0.22146 0.58411
v 0.05386 0.22325 0.54695
v 0.05386 0.22325 0.57253
v 0.05198 0.21548 0.57253
v 0.05198 0.21548 0.54695
v 0.09564 0.20878 0.50987
v 0.09564 0.20878 0.53738
v 0.09230 0.20150 0.53738
v 0.09230 0.20150 0.50987
v 0.13387 0.18656 0.47287
v 0.13387 0.18656 0.50215
v 0.12920 0.18006 0.50215
v 0.12920 0.18006 0.47287
v 0.16713 0.15742 0.43596
v 0.16713 0.15742 0.46685
v 0.16130 0.15194 0.46685
v 0.16130 0.15194 0.43596
v 0.19419 0.12245 0.39911
v 0.19419 0.12245 0.43147
v 0.18742 0.11819 0.43147
v 0.18742 0.11819 0.39911
v 0.21404 0.08294 0.36233
v 0.21404 0.08294 0.39603
v 0.20658 0.08006 0.39603
v 0.20658 0.08006 0.36233
v 0.22595 0.04036 0.32561
v 0.22595 0.04036 0.36052
v 0.21807 0.03896 0.36052
v 0.21807 0.03896 0.32561
v 0.22947 -0.00372 0.28896
v 0.22947 -0.00372 0.32495
v 0.22147 -0.00358 0.32495
v 0.22147 -0.00358 0.28896
v 0.22448 -0.04765 0.25237
v 0.22448 -0.04765 0.28931
v 0.21666 -0.04599 0.28931
v 0.21666 -0.04599 0.25237
v 0.21116 -0.08981 0.21584
v 0.21116 -0.08981 0.25362
v 0.20380 -0.08668 0.25362
v 0.20380 -0.08668 0.21584
v 0.19000 -0.12864 0.17937
v 0.19000 -0.12864 0.21786
v 0.18338 -0.12415 0.21786
v 0.18338 -0.12415 0.17937
v 0.16180 -0.16269 0.14297
v 0.16180 -0.16269 0.18204
v 0.15616 -0.15702 0.18204
v 0.15616 -0.15702 0.14297
v 0.12759 -0.19070 0.10662
v 0.12759 -0.19070 0.14617
v 0.12314 -0.18405 0.14617
v 0.12314 -0.18405 0.10662
v 0.08864 -0.21164 0.07033
v 0.08864 -0.21164 0.11023
v 0.08555 -0.20426 0.11023
v 0.08555 -0.20426 0.07033
v 0.04640 -0.22471 0.03410
v 0.04640 -0.22471 0.07424
v 0.04478 -0.21688 0.07424
v 0.04478 -0.21688 0.03410
v 0.00244 -0.22945 -0.00207
v 0.00244 -0.22945 0.03818
v 0.00235 -0.22145 0.03818
v 0.00235 -0.22145 -0.00207
v -0.04162 -0.22568 -0.03818
v -0.04162 -0.22568 0.00207
v -0.04017 -0.21781 0.00207
v -0.04017 -0.21781 -0.03818
v -0.08413 -0.21352 -0.07424
v -0.08413 -0.21352 -0.03410
v -0.08120 -0.20608 -0.03410
v -0.08120 -0.20608 -0.07424
v -0.12353 -0.19345 -0.11023
v -0.12353 -0.19345 -0.07033
v -0.11922 -0.18670 -0.07033
v -0.11922 -0.18670 -0.11023
v -0.15834 -0.16619 -0.14617
v -0.15834 -0.16619 -0.10662
v -0.15283 -0.16039 -0.10662
v -0.15283 -0.16039 -0.14617
v -0.18728 -0.13276 -0.18204
v -0.18728 -0.13276 -0.14297
v -0.18076 -0.12813 -0.14297
v -0.18076 -0.12813 -0.18204
v -0.20928 -0.09441 -0.21786
v -0.20928 -0.09441 -0.17937
v -0.20199 -0.09111 -0.17937
v -0.20199 -0.09111 -0.21786
v -0.22352 -0.05254 -0.25362
v -0.22352 -0.05254 -0.21584
v -0.21574 -0.05071 -0.21584
v -0.21574 -0.05071 -0.25362
v -0.22947 -0.00873 -0.28931
v -0.22947 -0.00873 -0.25237
v -0.22148 -0.00842 -0.25237
v -0.22148 -0.00842 -0.28931
v -0.22691 0.03541 -0.32495
v -0.22691 0.03541 -0.28896
v -0.21901 0.03418 -0.28896
v -0.21901 0.03418 -0.32495
v -0.21593 0.07824 -0.36052
v -0.21593 0.07824 -0.32561
v -0.20841 0.07552 -0.32561
v -0.20841 0.07552 -0.36052
v -0.19695 0.11818 -0.39603
v -0.19695 0.11818 -0.36233
v -0.19009 0.11406 -0.36233
v -0.19009 0.11406 -0.39603
v -0.17066 0.15373 -0.43147
v -0.17066 0.15373 -0.39911
v -0.16472 0.14838 -0.39911
v -0.16472 0.14838 -0.43147
v -0.13805 0.18359 -0.46685
v -0.13805 0.18359 -0.43596
v -0.13324 0.17719 -0.43596
v -0.13324 0.17719 -0.46685
v -0.10031 0.20664 -0.50215
v -0.10031 0.20664 -0.47287
v -0.09682 0.19944 -0.47287
v -0.09682 0.19944 -0.50215
v -0.05886 0.22202 -0.53738
v -0.05886 0.22202 -0.50987
v -0.05681 0.21429 -0.50987
v -0.05681 0.21429 -0.53738
v -0.01523 0.22918 -0.57253
v -0.01523 0.22918 -0.54695
v -0.01470 0.22119 -0.54695
v -0.01470 0.22119 -0.57253
v 0.02897 0.22783 -0.60759
v 0.02897 0.22783 -0.58411
v 0.02796 0.21990 -0.58411
v 0.02796 0.21990 -0.60759
v 0.07209 0.21804 -0.64254
v 0.07209 0.21804 -0.62138
v 0.06958 0.21045 -0.62138
v 0.06958 0.21045 -0.64254
v 0.11253 0.20017 -0.67737
v 0.11253 0.20017 -0.65878
v 0.10861 0.19319 -0.65878
v 0.10861 0.19319 -0.67737
v 0.14880 0.17487 -0.71203
v 0.14880 0.17487 -0.69634
v 0.14361 0.16878 -0.69634
v 0.14361 0.16878 -0.71203
v 0.17954 0.14309 -0.74647
v 0.17954 0.14309 -0.73413
v 0.17328 0.13811 -0.73413
v 0.17328 0.13811 -0.74647
v 0.20362 0.10600 -0.78049
v 0.20362 0.10600 -0.77234
v 0.19652 0.10231 -0.77234
v 0.19652 0.10231 -0.78049
v 0.22014 0.06499 -0.81252
v 0.22014 0.06499 -0.81252
v 0.21247 0.06273 -0.81252
v 0.21247 0.06273 -0.81252
f 1 6 5
f 2 7 6
f 3 8 7
f 1 8 4
f 5 10 9
f 6 11 10
f 8 11 7
f 5 12 8
f 9 14 13
f 10 15 14
f 12 15 11
f 9 16 12
f 13 18 17
f 14 19 18
f 16 19 15
f 13 20 16
f 17 22 21
f 19 22 18
f 20 23 19
f 17 24 20
f 21 26 25
f 23 26 22
f 24 27 23
f 21 28 24
f 25 30 29
f 26 31 30
f 28 31 27
f 25 32 28
f 29 34 33
f 30 35 34
f 32 35 31
f 32 33 36
f 33 38 37
f 34 39 38
f 36 39 35
f 36 37 40
f 37 42 41
f 39 42 38
f 40 43 39
f 40 41 44
f 41 46 45
f 42 47 46
f 44 47 43
f 44 45 48
f 45 50 49
f 47 50 46
f 48 51 47
f 48 49 52
f 49 54 53
f 51 54 50
f 52 55 51
f 52 53 56
f 53 58 57
f 55 58 54
f 56 59 55
f 56 57 60
f 57 62 61
f 59 62 58
f 60 63 59
f 60 61 64
f 61 66 65
f 63 66 62
f 64 67 63
f 61 68 64
f 65 70 69
f 67 70 66
f 68 71 67
f 65 72 68
f 69 74 73
f 70 75 74
f 72 75 71
f 69 76 72
f 73 78 77
f 75 78 74
f 76 79 75
f 73 80 76
f 77 82 81
f 79 82 78
f 80 83 79
f 80 81 84
f 81 86 85
f 83 86 82
f 84 87 83
f 84 85 88
f 85 90 89
f 87 90 86
f 88 91 87
f 85 92 88
f 89 94 93
f 91 94 90
f 92 95 91
f 92 93 96
f 93 98 97
f 95 98 94
f 96 99 95
f 96 97 100
f 97 102 101
f 98 103 102
f 100 103 99
f 100 101 104
f 101 106 105
f 102 107 106
f 104 107 103
f 101 108 104
f 105 110 109
f 107 110 106
f 108 111 107
f 108 109 112
f 109 114 113
f 110 115 114
f 112 115 111
f 112 113 116
f 113 118 117
f 114 119 118
f 116 119 115
f 113 120 116
f 117 122 121
f 119 122 118
f 120 123 119
f 120 121 124
f 121 126 125
f 123 126 122
f 124 127 123
f 121 128 124
f 125 130 129
f 127 130 126
f 128 131 127
f 128 129 132
f 129 134 133
f 131 134 130
f 132 135 131
f 132 133 136
f 133 138 137
f 135 138 134
f 136 139 135
f 133 140 136
f 137 142 141
f 139 142 138
f 140 143 139
f 137 144 140
f 141 146 145
f 143 146 142
f 144 147 143
f 141 148 144
f 145 150 149
f 147 150 146
f 148 151 147
f 145 152 148
f 149 154 153
f 150 155 154
f 152 155 151
f 149 156 152
f 153 158 157
f 155 158 154
f 156 159 155
f 153 160 156
f 157 162 161
f 158 163 162
f 160 163 159
f 157 164 160
f 161 166 165
f 162 167 166
f 164 167 163
f 164 165 168
f 165 170 169
f 166 171 170
f 168 171 167
f 165 172 168
f 169 174 173
f 171 174 170
f 172 175 171
f 172 173 176
f 173 178 177
f 174 179 178
f 176 179 175
f 173 180 176
f 177 182 181
f 178 183 182
f 179 184 183
f 177 184 180
f 4 2 1
f 181 183 184
f 1 2 6
f 2 3 7
f 3 4 8
f 1 5 8
f 5 6 10
f 6 7 11
f 8 12 11
f 5 9 12
f 9 10 14
f 10 11 15
f 12 16 15
f 9 13 16
f 13 14 18
f 14 15 19
f 16 20 19
f 13 17 20
f 17 18 22
f 19 23 22
f 20 24 23
f 17 21 24
f 21 22 26
f 23 27 26
f 24 28 27
f 21 25 28
f 25 26 30
f 26 27 31
f 28 32 31
f 25 29 32
f 29 30 34
f 30 31 35
f 32 36 35
f 32 29 33
f 33 34 38
f 34 35 39
f 36 40 39
f 36 33 37
f 37 38 42
f 39 43 42
f 40 44 43
f 40 37 41
f 41 42 46
f 42 43 47
f 44 48 47
f 44 41 45
f 45 46 50
f 47 51 50
f 48 52 51
f 48 45 49
f 49 50 54
f 51 55 54
f 52 56 55
f 52 49 53
f 53 54 58
f 55 59 58
f 56 60 59
f 56 53 57
f 57 58 62
f 59 63 62
f 60 64 63
f 60 57 61
f 61 62 66
f 63 67 66
f 64 68 67
f 61 65 68
f 65 66 70
f 67 71 70
f 68 72 71
f 65 69 72
f 69 70 74
f 70 71 75
f 72 76 75
f 69 73 76
f 73 74 78
f 75 79 78
f 76 80 79
f 73 77 80
f 77 78 82
f 79 83 82
f 80 84 83
f 80 77 81
f 81 82 86
f 83 87 86
f 84 88 87
f 84 81 85
f 85 86 90
f 87 91 90
f 88 92 91
f 85 89 92
f 89 90 94
f 91 95 94
f 92 96 95
f 92 89 93
f 93 94 98
f 95 99 98
f 96 100 99
f 96 93 97
f 97 98 102
f 98 99 103
f 100 104 103
f 100 97 101
f 101 102 106
f 102 103 107
f 104 108 107
f 101 105 108
f 105 106 110
f 107 111 110
f 108 112 111
f 108 105 109
f 109 110 114
f 110 111 115
f 112 116 115
f 112 109 113
f 113 114 118
f 114 115 119
f 116 120 119
f 113 117 120
f 117 118 122
f 119 123 122
f 120 124 123
f 120 117 121
f 121 122 126
f 123 127 126
f 124 128 127
f 121 125 128
f 125 126 130
f 127 131 130
f 128 132 131
f 128 125 129
f 129 130 134
f 131 135 134
f 132 136 135
f 132 129 133
f 133 134 138
f 135 139 138
f 136 140 139
f 133 137 140
f 137 138 142
f 139 143 142
f 140 144 143
f 137 141 144
f 141 142 146
f 143 147 146
f 144 148 147
f 141 145 148
f 145 146 150
f 147 151 150
f 148 152 151
f 145 149 152
f 149 150 154
f 150 151 155
f 152 156 155
f 149 153 156
f 153 154 158
f 155 159 158
f 156 160 159
f 153 157 160
f 157 158 162
f 158 159 163
f 160 164 163
f 157 161 164
f 161 162 166
f 162 163 167
f 164 168 167
f 164 161 165
f 165 166 170
f 166 167 171
f 168 172 171
f 165 169 172
f 169 170 174
f 171 175 174
f 172 176 175
f 172 169 173
f 173 174 178
f 174 175 179
f 176 180 179
f 173 177 180
f 177 178 182
f 178 179 183
f 179 180 184
f 177 181 184
f 4 3 2
f 181 182 183
