# celestial_dragon Energy31_Energy.obj: Roblox cue frame, recentred on its bounding box
v 0.25223 0.01330 0.68873
v 0.25223 0.01330 0.68873
v 0.24425 0.01287 0.68873
v 0.24425 0.01287 0.68873
v 0.24256 0.07019 0.64896
v 0.24256 0.07019 0.65599
v 0.23487 0.06796 0.65599
v 0.23487 0.06796 0.64896
v 0.22025 0.12341 0.61091
v 0.22025 0.12341 0.62155
v 0.21327 0.11950 0.62155
v 0.21327 0.11950 0.61091
v 0.18647 0.17020 0.57322
v 0.18647 0.17020 0.58674
v 0.18056 0.16481 0.58674
v 0.18056 0.16481 0.57322
v 0.14297 0.20812 0.53574
v 0.14297 0.20812 0.55173
v 0.13844 0.20153 0.55173
v 0.13844 0.20153 0.53574
v 0.09202 0.23521 0.49840
v 0.09202 0.23521 0.51657
v 0.08909 0.22776 0.51657
v 0.08909 0.22776 0.49840
v 0.03626 0.25006 0.46118
v 0.03626 0.25006 0.48129
v 0.03509 0.24214 0.48129
v 0.03509 0.24214 0.46118
v -0.02142 0.25189 0.42405
v -0.02142 0.25189 0.44592
v -0.02076 0.24392 0.44592
v -0.02076 0.24392 0.42405
v -0.07802 0.24062 0.38702
v -0.07802 0.24062 0.41045
v -0.07557 0.23301 0.41045
v -0.07557 0.23301 0.38702
v -0.13059 0.21683 0.35006
v -0.13059 0.21683 0.37491
v -0.12648 0.20996 0.37491
v -0.12648 0.20996 0.35006
v -0.17641 0.18175 0.31318
v -0.17641 0.18175 0.33930
v -0.17085 0.17599 0.33930
v -0.17085 0.17599 0.31318
v -0.21310 0.13720 0.27637
v -0.21310 0.13720 0.30361
v -0.20638 0.13286 0.30361
v -0.20638 0.13286 0.27637
v -0.23874 0.08551 0.23963
v -0.23874 0.08551 0.26785
v -0.23122 0.08279 0.26785
v -0.23122 0.08279 0.23963
v -0.25202 0.02935 0.20296
v -0.25202 0.02935 0.23203
v -0.24407 0.02841 0.23203
v -0.24407 0.02841 0.20296
v -0.25223 -0.02836 0.16635
v -0.25223 -0.02836 0.19614
v -0.24428 -0.02747 0.19614
v -0.24428 -0.02747 0.16635
v -0.23938 -0.08461 0.12981
v -0.23938 -0.08461 0.16018
v -0.23183 -0.08195 0.16018
v -0.23183 -0.08195 0.12981
v -0.21412 -0.13650 0.09334
v -0.21412 -0.13650 0.12416
v -0.20737 -0.13220 0.12416
v -0.20737 -0.13220 0.09334
v -0.17776 -0.18131 0.05693
v -0.17776 -0.18131 0.08807
v -0.17216 -0.17560 0.08807
v -0.17216 -0.17560 0.05693
v -0.13220 -0.21673 0.02058
v -0.13220 -0.21673 0.05192
v -0.12805 -0.20990 0.05192
v -0.12805 -0.20990 0.02058
v -0.07981 -0.24092 -0.01570
v -0.07981 -0.24092 0.01570
v -0.07731 -0.23332 0.01570
v -0.07731 -0.23332 -0.01570
v -0.02330 -0.25261 -0.05192
v -0.02330 -0.25261 -0.02058
v -0.02258 -0.24464 -0.02058
v -0.02258 -0.24464 -0.05192
v 0.03439 -0.25120 -0.08807
v 0.03439 -0.25120 -0.05693
v 0.03328 -0.24328 -0.05693
v 0.03328 -0.24328 -0.08807
v 0.09026 -0.23677 -0.12416
v 0.09026 -0.23677 -0.09334
v 0.08739 -0.22930 -0.09334
v 0.08739 -0.22930 -0.12416
v 0.14142 -0.21006 -0.16018
v 0.14142 -0.21006 -0.12981
v 0.13693 -0.20344 -0.12981
v 0.13693 -0.20344 -0.16018
v 0.18519 -0.17246 -0.19614
v 0.18519 -0.17246 -0.16635
v 0.17932 -0.16703 -0.16635
v 0.17932 -0.16703 -0.19614
v 0.21932 -0.12593 -0.23203
v 0.21932 -0.12593 -0.20296
v 0.21237 -0.12197 -0.20296
v 0.21237 -0.12197 -0.23203
v 0.24202 -0.07288 -0.26785
v 0.24202 -0.07288 -0.23963
v 0.23436 -0.07059 -0.23963
v 0.23436 -0.07059 -0.26785
v 0.25212 -0.01606 -0.30361
v 0.25212 -0.01606 -0.27637
v 0.24414 -0.01557 -0.27637
v 0.24414 -0.01557 -0.30361
v 0.24910 0.04157 -0.33930
v 0.24910 0.04157 -0.31318
v 0.24121 0.04024 -0.31318
v 0.24121 0.04024 -0.33930
v 0.23310 0.09701 -0.37491
v 0.23310 0.09701 -0.35006
v 0.22572 0.09393 -0.35006
v 0.22572 0.09393 -0.37491
v 0.20497 0.14739 -0.41046
v 0.20497 0.14739 -0.38702
v 0.19847 0.14272 -0.38702
v 0.19847 0.14272 -0.41046
v 0.16615 0.19010 -0.44592
v 0.16615 0.19010 -0.42406
v 0.16089 0.18408 -0.42406
v 0.16089 0.18408 -0.44592
v 0.11868 0.22290 -0.48129
v 0.11868 0.22290 -0.46118
v 0.11491 0.21585 -0.46118
v 0.11491 0.21585 -0.48129
v 0.06501 0.24411 -0.51657
v 0.06501 0.24411 -0.49840
v 0.06294 0.23638 -0.49840
v 0.06294 0.23638 -0.51657
v 0.00793 0.25261 -0.55173
v 0.00793 0.25261 -0.53574
v 0.00766 0.24461 -0.53574
v 0.00766 0.24461 -0.55173
v -0.04959 0.24797 -0.58674
v -0.04959 0.24797 -0.57322
v -0.04804 0.24012 -0.57322
v -0.04804 0.24012 -0.58674
v -0.10456 0.23042 -0.62155
v -0.10456 0.23042 -0.61091
v -0.10128 0.22312 -0.61091
v -0.10128 0.22312 -0.62155
v -0.15413 0.20088 -0.65599
v -0.15413 0.20088 -0.64896
v -0.14928 0.19452 -0.64896
v -0.14928 0.19452 -0.65599
v -0.19573 0.16088 -0.68873
v -0.19573 0.16088 -0.68873
v -0.18957 0.15578 -0.68873
v -0.18957 0.15578 -0.68873
f 1 6 5
f 3 6 2
f 3 8 7
f 1 8 4
f 5 10 9
f 6 11 10
f 8 11 7
f 8 9 12
f 9 14 13
f 10 15 14
f 12 15 11
f 12 13 16
f 13 18 17
f 15 18 14
f 16 19 15
f 13 20 16
f 17 22 21
f 18 23 22
f 20 23 19
f 17 24 20
f 21 26 25
f 23 26 22
f 24 27 23
f 21 28 24
f 25 30 29
f 26 31 30
f 28 31 27
f 28 29 32
f 29 34 33
f 30 35 34
f 32 35 31
f 32 33 36
f 33 38 37
f 35 38 34
f 36 39 35
f 33 40 36
f 37 42 41
f 39 42 38
f 40 43 39
f 40 41 44
f 41 46 45
f 43 46 42
f 44 47 43
f 41 48 44
f 45 50 49
f 46 51 50
f 48 51 47
f 48 49 52
f 49 54 53
f 51 54 50
f 52 55 51
f 52 53 56
f 53 58 57
f 55 58 54
f 56 59 55
f 56 57 60
f 57 62 61
f 58 63 62
f 60 63 59
f 57 64 60
f 61 66 65
f 63 66 62
f 64 67 63
f 64 65 68
f 65 70 69
f 66 71 70
f 68 71 67
f 68 69 72
f 69 74 73
f 71 74 70
f 72 75 71
f 72 73 76
f 73 78 77
f 74 79 78
f 76 79 75
f 76 77 80
f 77 82 81
f 78 83 82
f 80 83 79
f 77 84 80
f 81 86 85
f 82 87 86
f 84 87 83
f 81 88 84
f 85 90 89
f 87 90 86
f 88 91 87
f 88 89 92
f 89 94 93
f 91 94 90
f 92 95 91
f 89 96 92
f 93 98 97
f 95 98 94
f 96 99 95
f 93 100 96
f 97 102 101
f 99 102 98
f 100 103 99
f 100 101 104
f 101 106 105
f 103 106 102
f 104 107 103
f 101 108 104
f 105 110 109
f 106 111 110
f 108 111 107
f 108 109 112
f 109 114 113
f 110 115 114
f 112 115 111
f 112 113 116
f 113 118 117
f 114 119 118
f 116 119 115
f 113 120 116
f 117 122 121
f 118 123 122
f 120 123 119
f 120 121 124
f 121 126 125
f 122 127 126
f 124 127 123
f 124 125 128
f 125 130 129
f 127 130 126
f 128 131 127
f 125 132 128
f 129 134 133
f 131 134 130
f 132 135 131
f 129 136 132
f 133 138 137
f 135 138 134
f 136 139 135
f 133 140 136
f 137 142 141
f 138 143 142
f 140 143 139
f 137 144 140
f 141 146 145
f 143 146 142
f 144 147 143
f 141 148 144
f 145 150 149
f 146 151 150
f 148 151 147
f 145 152 148
f 149 154 153
f 150 155 154
f 151 156 155
f 152 153 156
f 4 2 1
f 153 155 156
f 1 2 6
f 3 7 6
f 3 4 8
f 1 5 8
f 5 6 10
f 6 7 11
f 8 12 11
f 8 5 9
f 9 10 14
f 10 11 15
f 12 16 15
f 12 9 13
f 13 14 18
f 15 19 18
f 16 20 19
f 13 17 20
f 17 18 22
f 18 19 23
f 20 24 23
f 17 21 24
f 21 22 26
f 23 27 26
f 24 28 27
f 21 25 28
f 25 26 30
f 26 27 31
f 28 32 31
f 28 25 29
f 29 30 34
f 30 31 35
f 32 36 35
f 32 29 33
f 33 34 38
f 35 39 38
f 36 40 39
f 33 37 40
f 37 38 42
f 39 43 42
f 40 44 43
f 40 37 41
f 41 42 46
f 43 47 46
f 44 48 47
f 41 45 48
f 45 46 50
f 46 47 51
f 48 52 51
f 48 45 49
f 49 50 54
f 51 55 54
f 52 56 55
f 52 49 53
f 53 54 58
f 55 59 58
f 56 60 59
f 56 53 57
f 57 58 62
f 58 59 63
f 60 64 63
f 57 61 64
f 61 62 66
f 63 67 66
f 64 68 67
f 64 61 65
f 65 66 70
f 66 67 71
f 68 72 71
f 68 65 69
f 69 70 74
f 71 75 74
f 72 76 75
f 72 69 73
f 73 74 78
f 74 75 79
f 76 80 79
f 76 73 77
f 77 78 82
f 78 79 83
f 80 84 83
f 77 81 84
f 81 82 86
f 82 83 87
f 84 88 87
f 81 85 88
f 85 86 90
f 87 91 90
f 88 92 91
f 88 85 89
f 89 90 94
f 91 95 94
f 92 96 95
f 89 93 96
f 93 94 98
f 95 99 98
f 96 100 99
f 93 97 100
f 97 98 102
f 99 103 102
f 100 104 103
f 100 97 101
f 101 102 106
f 103 107 106
f 104 108 107
f 101 105 108
f 105 106 110
f 106 107 111
f 108 112 111
f 108 105 109
f 109 110 114
f 110 111 115
f 112 116 115
f 112 109 113
f 113 114 118
f 114 115 119
f 116 120 119
f 113 117 120
f 117 118 122
f 118 119 123
f 120 124 123
f 120 117 121
f 121 122 126
f 122 123 127
f 124 128 127
f 124 121 125
f 125 126 130
f 127 131 130
f 128 132 131
f 125 129 132
f 129 130 134
f 131 135 134
f 132 136 135
f 129 133 136
f 133 134 138
f 135 139 138
f 136 140 139
f 133 137 140
f 137 138 142
f 138 139 143
f 140 144 143
f 137 141 144
f 141 142 146
f 143 147 146
f 144 148 147
f 141 145 148
f 145 146 150
f 146 147 151
f 148 152 151
f 145 149 152
f 149 150 154
f 150 151 155
f 151 152 156
f 152 149 153
f 4 3 2
f 153 154 155
