# celestial_dragon Energy16_EnergyPale.obj: Roblox cue frame, recentred on its bounding box
v 0.28705 -0.24212 0.85714
v 0.28705 -0.24212 0.85714
v 0.27795 -0.23430 0.85714
v 0.27795 -0.23430 0.85714
v 0.25329 -0.27663 0.77964
v 0.25329 -0.27663 0.85101
v 0.24527 -0.26770 0.85101
v 0.24527 -0.26770 0.77964
v 0.21533 -0.30647 0.71953
v 0.21533 -0.30647 0.82751
v 0.20854 -0.29657 0.82751
v 0.20854 -0.29657 0.71953
v 0.17382 -0.33113 0.66305
v 0.17382 -0.33113 0.80036
v 0.16837 -0.32044 0.80036
v 0.16837 -0.32044 0.66305
v 0.12947 -0.35021 0.60864
v 0.12947 -0.35021 0.77115
v 0.12545 -0.33890 0.77115
v 0.12545 -0.33890 0.60864
v 0.08301 -0.36337 0.55568
v 0.08301 -0.36337 0.74048
v 0.08050 -0.35163 0.74048
v 0.08050 -0.35163 0.55568
v 0.03524 -0.37039 0.50386
v 0.03524 -0.37039 0.70868
v 0.03427 -0.35843 0.70868
v 0.03427 -0.35843 0.50386
v -0.01303 -0.37115 0.45299
v -0.01303 -0.37115 0.67593
v -0.01244 -0.35917 0.67593
v -0.01244 -0.35917 0.45299
v -0.06100 -0.36565 0.40296
v -0.06100 -0.36565 0.64233
v -0.05886 -0.35385 0.64233
v -0.05886 -0.35385 0.40296
v -0.10785 -0.35398 0.35370
v -0.10785 -0.35398 0.60797
v -0.10420 -0.34255 0.60797
v -0.10420 -0.34255 0.35370
v -0.15279 -0.33632 0.30515
v -0.15279 -0.33632 0.57290
v -0.14769 -0.32546 0.57290
v -0.14769 -0.32546 0.30515
v -0.19506 -0.31299 0.25728
v -0.19506 -0.31299 0.53715
v -0.18859 -0.30288 0.53715
v -0.18859 -0.30288 0.25728
v -0.23395 -0.28437 0.21005
v -0.23395 -0.28437 0.50075
v -0.22622 -0.27519 0.50075
v -0.22622 -0.27519 0.21005
v -0.26879 -0.25095 0.16346
v -0.26879 -0.25095 0.46372
v -0.25994 -0.24285 0.46372
v -0.25994 -0.24285 0.16346
v -0.29901 -0.21329 0.11749
v -0.29901 -0.21329 0.42607
v -0.28918 -0.20640 0.42607
v -0.28918 -0.20640 0.11749
v -0.32408 -0.17203 0.07212
v -0.32408 -0.17203 0.38781
v -0.31345 -0.16648 0.38781
v -0.31345 -0.16648 0.07212
v -0.34360 -0.12787 0.02735
v -0.34360 -0.12787 0.34895
v -0.33233 -0.12374 0.34895
v -0.33233 -0.12374 0.02735
v -0.35722 -0.08154 -0.01682
v -0.35722 -0.08154 0.30950
v -0.34551 -0.07891 0.30950
v -0.34551 -0.07891 -0.01682
v -0.36471 -0.03385 -0.06039
v -0.36471 -0.03385 0.26945
v -0.35276 -0.03276 0.26945
v -0.35276 -0.03276 -0.06039
v -0.36596 0.01442 -0.10338
v -0.36596 0.01442 0.22882
v -0.35397 0.01395 0.22882
v -0.35397 0.01395 -0.10338
v -0.36093 0.06244 -0.14578
v -0.36093 0.06244 0.18759
v -0.34911 0.06042 0.18759
v -0.34911 0.06042 -0.14578
v -0.34972 0.10940 -0.18759
v -0.34972 0.10940 0.14578
v -0.33826 0.10586 0.14578
v -0.33826 0.10586 -0.18759
v -0.33252 0.15452 -0.22882
v -0.33252 0.15452 0.10338
v -0.32161 0.14952 0.10338
v -0.32161 0.14952 -0.22882
v -0.30960 0.19701 -0.26945
v -0.30960 0.19701 0.06039
v -0.29943 0.19065 0.06039
v -0.29943 0.19065 -0.26945
v -0.28137 0.23618 -0.30950
v -0.28137 0.23618 0.01682
v -0.27211 0.22855 0.01682
v -0.27211 0.22855 -0.30950
v -0.24830 0.27136 -0.34895
v -0.24830 0.27136 -0.02735
v -0.24011 0.26259 -0.02735
v -0.24011 0.26259 -0.34895
v -0.21094 0.30195 -0.38781
v -0.21094 0.30195 -0.07212
v -0.20396 0.29219 -0.07212
v -0.20396 0.29219 -0.38781
v -0.16993 0.32743 -0.42607
v -0.16993 0.32743 -0.11749
v -0.16427 0.31685 -0.11749
v -0.16427 0.31685 -0.42607
v -0.12596 0.34738 -0.46372
v -0.12596 0.34738 -0.16346
v -0.12172 0.33615 -0.16346
v -0.12172 0.33615 -0.46372
v -0.07978 0.36146 -0.50075
v -0.07978 0.36146 -0.21005
v -0.07703 0.34978 -0.21005
v -0.07703 0.34978 -0.50075
v -0.03216 0.36943 -0.53715
v -0.03216 0.36943 -0.25728
v -0.03095 0.35749 -0.25728
v -0.03095 0.35749 -0.53715
v 0.01609 0.37115 -0.57290
v 0.01609 0.37115 -0.30515
v 0.01574 0.35916 -0.30515
v 0.01574 0.35916 -0.57290
v 0.06416 0.36661 -0.60797
v 0.06416 0.36661 -0.35370
v 0.06226 0.35476 -0.35370
v 0.06226 0.35476 -0.60797
v 0.11123 0.35586 -0.64233
v 0.11123 0.35586 -0.40296
v 0.10781 0.34436 -0.40296
v 0.10781 0.34436 -0.64233
v 0.15651 0.33910 -0.67593
v 0.15651 0.33910 -0.45299
v 0.15163 0.32815 -0.45299
v 0.15163 0.32815 -0.67593
v 0.19924 0.31661 -0.70868
v 0.19924 0.31661 -0.50386
v 0.19297 0.30638 -0.50386
v 0.19297 0.30638 -0.70868
v 0.23869 0.28877 -0.74048
v 0.23869 0.28877 -0.55568
v 0.23114 0.27944 -0.55568
v 0.23114 0.27944 -0.74048
v 0.27419 0.25605 -0.77115
v 0.27419 0.25605 -0.60864
v 0.26550 0.24777 -0.60864
v 0.26550 0.24777 -0.77115
v 0.30515 0.21900 -0.80036
v 0.30515 0.21900 -0.66305
v 0.29546 0.21192 -0.66305
v 0.29546 0.21192 -0.80036
v 0.33104 0.17824 -0.82751
v 0.33104 0.17824 -0.71953
v 0.32051 0.17248 -0.71953
v 0.32051 0.17248 -0.82751
v 0.35142 0.13448 -0.85101
v 0.35142 0.13448 -0.77964
v 0.34024 0.13013 -0.77964
v 0.34024 0.13013 -0.85101
v 0.36596 0.08843 -0.85714
v 0.36596 0.08843 -0.85714
v 0.35430 0.08557 -0.85714
v 0.35430 0.08557 -0.85714
f 1 6 5
f 3 6 2
f 3 8 7
f 1 8 4
f 5 10 9
f 6 11 10
f 8 11 7
f 5 12 8
f 9 14 13
f 10 15 14
f 12 15 11
f 9 16 12
f 13 18 17
f 14 19 18
f 16 19 15
f 16 17 20
f 17 22 21
f 19 22 18
f 20 23 19
f 17 24 20
f 21 26 25
f 22 27 26
f 24 27 23
f 21 28 24
f 25 30 29
f 27 30 26
f 28 31 27
f 25 32 28
f 29 34 33
f 30 35 34
f 32 35 31
f 29 36 32
f 33 38 37
f 35 38 34
f 36 39 35
f 33 40 36
f 37 42 41
f 39 42 38
f 40 43 39
f 37 44 40
f 41 46 45
f 42 47 46
f 44 47 43
f 41 48 44
f 45 50 49
f 47 50 46
f 48 51 47
f 45 52 48
f 49 54 53
f 50 55 54
f 52 55 51
f 52 53 56
f 53 58 57
f 55 58 54
f 56 59 55
f 56 57 60
f 57 62 61
f 58 63 62
f 60 63 59
f 57 64 60
f 61 66 65
f 62 67 66
f 64 67 63
f 61 68 64
f 65 70 69
f 67 70 66
f 68 71 67
f 68 69 72
f 69 74 73
f 70 75 74
f 72 75 71
f 69 76 72
f 73 78 77
f 74 79 78
f 76 79 75
f 76 77 80
f 77 82 81
f 78 83 82
f 80 83 79
f 77 84 80
f 81 86 85
f 82 87 86
f 84 87 83
f 81 88 84
f 85 90 89
f 86 91 90
f 88 91 87
f 88 89 92
f 89 94 93
f 90 95 94
f 92 95 91
f 89 96 92
f 93 98 97
f 94 99 98
f 96 99 95
f 96 97 100
f 97 102 101
f 98 103 102
f 100 103 99
f 100 101 104
f 101 106 105
f 103 106 102
f 104 107 103
f 104 105 108
f 105 110 109
f 106 111 110
f 108 111 107
f 105 112 108
f 109 114 113
f 110 115 114
f 112 115 111
f 109 116 112
f 113 118 117
f 115 118 114
f 116 119 115
f 113 120 116
f 117 122 121
f 119 122 118
f 120 123 119
f 117 124 120
f 121 126 125
f 122 127 126
f 124 127 123
f 121 128 124
f 125 130 129
f 127 130 126
f 128 131 127
f 128 129 132
f 129 134 133
f 130 135 134
f 132 135 131
f 129 136 132
f 133 138 137
f 134 139 138
f 136 139 135
f 133 140 136
f 137 142 141
f 138 143 142
f 140 143 139
f 140 141 144
f 141 146 145
f 142 147 146
f 144 147 143
f 141 148 144
f 145 150 149
f 146 151 150
f 148 151 147
f 145 152 148
f 149 154 153
f 151 154 150
f 152 155 151
f 152 153 156
f 153 158 157
f 155 158 154
f 156 159 155
f 156 157 160
f 157 162 161
f 159 162 158
f 160 163 159
f 157 164 160
f 161 166 165
f 162 167 166
f 163 168 167
f 164 165 168
f 4 2 1
f 165 167 168
f 1 2 6
f 3 7 6
f 3 4 8
f 1 5 8
f 5 6 10
f 6 7 11
f 8 12 11
f 5 9 12
f 9 10 14
f 10 11 15
f 12 16 15
f 9 13 16
f 13 14 18
f 14 15 19
f 16 20 19
f 16 13 17
f 17 18 22
f 19 23 22
f 20 24 23
f 17 21 24
f 21 22 26
f 22 23 27
f 24 28 27
f 21 25 28
f 25 26 30
f 27 31 30
f 28 32 31
f 25 29 32
f 29 30 34
f 30 31 35
f 32 36 35
f 29 33 36
f 33 34 38
f 35 39 38
f 36 40 39
f 33 37 40
f 37 38 42
f 39 43 42
f 40 44 43
f 37 41 44
f 41 42 46
f 42 43 47
f 44 48 47
f 41 45 48
f 45 46 50
f 47 51 50
f 48 52 51
f 45 49 52
f 49 50 54
f 50 51 55
f 52 56 55
f 52 49 53
f 53 54 58
f 55 59 58
f 56 60 59
f 56 53 57
f 57 58 62
f 58 59 63
f 60 64 63
f 57 61 64
f 61 62 66
f 62 63 67
f 64 68 67
f 61 65 68
f 65 66 70
f 67 71 70
f 68 72 71
f 68 65 69
f 69 70 74
f 70 71 75
f 72 76 75
f 69 73 76
f 73 74 78
f 74 75 79
f 76 80 79
f 76 73 77
f 77 78 82
f 78 79 83
f 80 84 83
f 77 81 84
f 81 82 86
f 82 83 87
f 84 88 87
f 81 85 88
f 85 86 90
f 86 87 91
f 88 92 91
f 88 85 89
f 89 90 94
f 90 91 95
f 92 96 95
f 89 93 96
f 93 94 98
f 94 95 99
f 96 100 99
f 96 93 97
f 97 98 102
f 98 99 103
f 100 104 103
f 100 97 101
f 101 102 106
f 103 107 106
f 104 108 107
f 104 101 105
f 105 106 110
f 106 107 111
f 108 112 111
f 105 109 112
f 109 110 114
f 110 111 115
f 112 116 115
f 109 113 116
f 113 114 118
f 115 119 118
f 116 120 119
f 113 117 120
f 117 118 122
f 119 123 122
f 120 124 123
f 117 121 124
f 121 122 126
f 122 123 127
f 124 128 127
f 121 125 128
f 125 126 130
f 127 131 130
f 128 132 131
f 128 125 129
f 129 130 134
f 130 131 135
f 132 136 135
f 129 133 136
f 133 134 138
f 134 135 139
f 136 140 139
f 133 137 140
f 137 138 142
f 138 139 143
f 140 144 143
f 140 137 141
f 141 142 146
f 142 143 147
f 144 148 147
f 141 145 148
f 145 146 150
f 146 147 151
f 148 152 151
f 145 149 152
f 149 150 154
f 151 155 154
f 152 156 155
f 152 149 153
f 153 154 158
f 155 159 158
f 156 160 159
f 156 153 157
f 157 158 162
f 159 163 162
f 160 164 163
f 157 161 164
f 161 162 166
f 162 163 167
f 163 164 168
f 164 161 165
f 4 3 2
f 165 166 167
