# celestial_dragon Energy30_EnergyPale.obj: Roblox cue frame, recentred on its bounding box
v -0.15991 -0.20953 0.84755
v -0.15991 -0.20953 0.84755
v -0.15505 -0.20317 0.84755
v -0.15505 -0.20317 0.84755
v -0.19776 -0.17423 0.80741
v -0.19776 -0.17423 0.81553
v -0.19176 -0.16895 0.81553
v -0.19176 -0.16895 0.80741
v -0.22799 -0.13222 0.76925
v -0.22799 -0.13222 0.78154
v -0.22107 -0.12821 0.78154
v -0.22107 -0.12821 0.76925
v -0.24942 -0.08511 0.73149
v -0.24942 -0.08511 0.74714
v -0.24185 -0.08253 0.74714
v -0.24185 -0.08253 0.73149
v -0.26123 -0.03472 0.69397
v -0.26123 -0.03472 0.71251
v -0.25330 -0.03367 0.71251
v -0.25330 -0.03367 0.69397
v -0.26297 0.01701 0.65660
v -0.26297 0.01701 0.67772
v -0.25499 0.01649 0.67772
v -0.25499 0.01649 0.65660
v -0.25456 0.06808 0.61936
v -0.25456 0.06808 0.64281
v -0.24684 0.06601 0.64281
v -0.24684 0.06601 0.61936
v -0.23634 0.11652 0.58222
v -0.23634 0.11652 0.60780
v -0.22917 0.11299 0.60780
v -0.22917 0.11299 0.58222
v -0.20900 0.16047 0.54516
v -0.20900 0.16047 0.57271
v -0.20266 0.15560 0.57271
v -0.20266 0.15560 0.54516
v -0.17360 0.19823 0.50818
v -0.17360 0.19823 0.53753
v -0.16833 0.19221 0.53753
v -0.16833 0.19221 0.50818
v -0.13151 0.22834 0.47127
v -0.13151 0.22834 0.50229
v -0.12751 0.22141 0.50229
v -0.12751 0.22141 0.47127
v -0.08434 0.24965 0.43442
v -0.08434 0.24965 0.46698
v -0.08177 0.24207 0.46698
v -0.08177 0.24207 0.43442
v -0.03391 0.26132 0.39764
v -0.03391 0.26132 0.43161
v -0.03288 0.25339 0.43161
v -0.03288 0.25339 0.39764
v 0.01782 0.26292 0.36092
v 0.01782 0.26292 0.39618
v 0.01728 0.25494 0.39618
v 0.01728 0.25494 0.36092
v 0.06887 0.25438 0.32425
v 0.06887 0.25438 0.36069
v 0.06678 0.24665 0.36069
v 0.06678 0.24665 0.32425
v 0.11726 0.23602 0.28764
v 0.11726 0.23602 0.32514
v 0.11370 0.22886 0.32514
v 0.11370 0.22886 0.28764
v 0.16113 0.20856 0.25109
v 0.16113 0.20856 0.28954
v 0.15624 0.20223 0.28954
v 0.15624 0.20223 0.25109
v 0.19880 0.17306 0.21459
v 0.19880 0.17306 0.25388
v 0.19276 0.16781 0.25388
v 0.19276 0.16781 0.21459
v 0.22879 0.13089 0.17815
v 0.22879 0.13089 0.21817
v 0.22185 0.12691 0.21817
v 0.22185 0.12691 0.17815
v 0.24997 0.08366 0.14176
v 0.24997 0.08366 0.18241
v 0.24239 0.08112 0.18241
v 0.24239 0.08112 0.14176
v 0.26151 0.03320 0.10542
v 0.26151 0.03320 0.14659
v 0.25357 0.03220 0.14659
v 0.25357 0.03220 0.10542
v 0.26297 -0.01853 0.06913
v 0.26297 -0.01853 0.11072
v 0.25499 -0.01797 0.11072
v 0.25499 -0.01797 0.06913
v 0.25429 -0.06956 0.03290
v 0.25429 -0.06956 0.07480
v 0.24657 -0.06745 0.07480
v 0.24657 -0.06745 0.03290
v 0.23580 -0.11790 -0.00328
v 0.23580 -0.11790 0.03883
v 0.22865 -0.11432 0.03883
v 0.22865 -0.11432 -0.00328
v 0.20823 -0.16170 -0.03941
v 0.20823 -0.16170 0.00281
v 0.20191 -0.15679 0.00281
v 0.20191 -0.15679 -0.03941
v 0.17262 -0.19926 -0.07549
v 0.17262 -0.19926 -0.03327
v 0.16739 -0.19322 -0.03327
v 0.16739 -0.19322 -0.07549
v 0.13037 -0.22915 -0.11152
v 0.13037 -0.22915 -0.06940
v 0.12641 -0.22219 -0.06940
v 0.12641 -0.22219 -0.11152
v 0.08308 -0.25020 -0.14749
v 0.08308 -0.25020 -0.10558
v 0.08056 -0.24261 -0.10558
v 0.08056 -0.24261 -0.14749
v 0.03260 -0.26160 -0.18341
v 0.03260 -0.26160 -0.14182
v 0.03161 -0.25366 -0.14182
v 0.03161 -0.25366 -0.18341
v -0.01914 -0.26292 -0.21928
v -0.01914 -0.26292 -0.17810
v -0.01856 -0.25494 -0.17810
v -0.01856 -0.25494 -0.21928
v -0.07014 -0.25410 -0.25509
v -0.07014 -0.25410 -0.21444
v -0.06801 -0.24639 -0.21444
v -0.06801 -0.24639 -0.25509
v -0.11844 -0.23549 -0.29086
v -0.11844 -0.23549 -0.25083
v -0.11484 -0.22834 -0.25083
v -0.11484 -0.22834 -0.29086
v -0.16216 -0.20779 -0.32657
v -0.16216 -0.20779 -0.28728
v -0.15724 -0.20149 -0.28728
v -0.15724 -0.20149 -0.32657
v -0.19963 -0.17209 -0.36222
v -0.19963 -0.17209 -0.32378
v -0.19357 -0.16686 -0.32378
v -0.19357 -0.16686 -0.36222
v -0.22940 -0.12975 -0.39782
v -0.22940 -0.12975 -0.36033
v -0.22244 -0.12581 -0.36033
v -0.22244 -0.12581 -0.39782
v -0.25032 -0.08241 -0.43337
v -0.25032 -0.08241 -0.39694
v -0.24272 -0.07991 -0.39694
v -0.24272 -0.07991 -0.43337
v -0.26159 -0.03189 -0.46886
v -0.26159 -0.03189 -0.43360
v -0.25365 -0.03092 -0.43360
v -0.25365 -0.03092 -0.46886
v -0.26277 0.01985 -0.50429
v -0.26277 0.01985 -0.47032
v -0.25479 0.01925 -0.47032
v -0.25479 0.01925 -0.50429
v -0.25381 0.07083 -0.53967
v -0.25381 0.07083 -0.50711
v -0.24611 0.06868 -0.50711
v -0.24611 0.06868 -0.53967
v -0.23507 0.11907 -0.57498
v -0.23507 0.11907 -0.54395
v -0.22793 0.11546 -0.54395
v -0.22793 0.11546 -0.57498
v -0.20725 0.16272 -0.61022
v -0.20725 0.16272 -0.58086
v -0.20096 0.15778 -0.58086
v -0.20096 0.15778 -0.61022
v -0.17118 0.19978 -0.61838
v -0.16888 0.19710 -0.64570
v -0.16372 0.19107 -0.64467
v -0.16602 0.19376 -0.61735
v -0.12609 0.22452 -0.65559
v -0.12278 0.21862 -0.68027
v -0.11900 0.21189 -0.67815
v -0.12231 0.21779 -0.65347
v -0.07641 0.23452 -0.69170
v -0.07353 0.22570 -0.71324
v -0.07126 0.21871 -0.71008
v -0.07413 0.22753 -0.68853
v -0.02721 0.22911 -0.72598
v -0.02592 0.21823 -0.74403
v -0.02511 0.21144 -0.73988
v -0.02641 0.22232 -0.72182
v 0.01647 0.20935 -0.75771
v 0.01556 0.19766 -0.77208
v 0.01507 0.19148 -0.76702
v 0.01599 0.20317 -0.75266
v 0.05024 0.17786 -0.78626
v 0.04712 0.16681 -0.79689
v 0.04565 0.16158 -0.79102
v 0.04876 0.17263 -0.78039
v 0.07077 0.13860 -0.81101
v 0.06618 0.12962 -0.81804
v 0.06411 0.12554 -0.81147
v 0.06869 0.13453 -0.80445
v 0.07615 0.09633 -0.83147
v 0.07166 0.09065 -0.83514
v 0.06942 0.08781 -0.82801
v 0.07391 0.09349 -0.82433
v 0.06510 0.05538 -0.84755
v 0.06510 0.05538 -0.84755
v 0.06312 0.05370 -0.83998
v 0.06312 0.05370 -0.83998
f 1 6 5
f 3 6 2
f 3 8 7
f 1 8 4
f 5 10 9
f 6 11 10
f 8 11 7
f 8 9 12
f 9 14 13
f 10 15 14
f 12 15 11
f 12 13 16
f 13 18 17
f 15 18 14
f 16 19 15
f 13 20 16
f 17 22 21
f 18 23 22
f 20 23 19
f 20 21 24
f 21 26 25
f 22 27 26
f 24 27 23
f 24 25 28
f 25 30 29
f 26 31 30
f 28 31 27
f 25 32 28
f 29 34 33
f 30 35 34
f 32 35 31
f 32 33 36
f 33 38 37
f 35 38 34
f 36 39 35
f 36 37 40
f 37 42 41
f 39 42 38
f 40 43 39
f 40 41 44
f 41 46 45
f 43 46 42
f 44 47 43
f 41 48 44
f 45 50 49
f 47 50 46
f 48 51 47
f 45 52 48
f 49 54 53
f 51 54 50
f 52 55 51
f 52 53 56
f 53 58 57
f 55 58 54
f 56 59 55
f 53 60 56
f 57 62 61
f 59 62 58
f 60 63 59
f 57 64 60
f 61 66 65
f 62 67 66
f 64 67 63
f 61 68 64
f 65 70 69
f 66 71 70
f 68 71 67
f 68 69 72
f 69 74 73
f 71 74 70
f 72 75 71
f 72 73 76
f 73 78 77
f 74 79 78
f 76 79 75
f 76 77 80
f 77 82 81
f 79 82 78
f 80 83 79
f 80 81 84
f 81 86 85
f 82 87 86
f 84 87 83
f 84 85 88
f 85 90 89
f 87 90 86
f 88 91 87
f 85 92 88
f 89 94 93
f 91 94 90
f 92 95 91
f 92 93 96
f 93 98 97
f 94 99 98
f 96 99 95
f 93 100 96
f 97 102 101
f 99 102 98
f 100 103 99
f 100 101 104
f 101 106 105
f 102 107 106
f 104 107 103
f 101 108 104
f 105 110 109
f 106 111 110
f 108 111 107
f 108 109 112
f 109 114 113
f 110 115 114
f 112 115 111
f 109 116 112
f 113 118 117
f 114 119 118
f 116 119 115
f 116 117 120
f 117 122 121
f 119 122 118
f 120 123 119
f 120 121 124
f 121 126 125
f 123 126 122
f 124 127 123
f 121 128 124
f 125 130 129
f 126 131 130
f 128 131 127
f 128 129 132
f 129 134 133
f 131 134 130
f 132 135 131
f 132 133 136
f 133 138 137
f 134 139 138
f 136 139 135
f 136 137 140
f 137 142 141
f 139 142 138
f 140 143 139
f 140 141 144
f 141 146 145
f 143 146 142
f 144 147 143
f 141 148 144
f 145 150 149
f 146 151 150
f 148 151 147
f 145 152 148
f 149 154 153
f 151 154 150
f 152 155 151
f 149 156 152
f 153 158 157
f 154 159 158
f 156 159 155
f 153 160 156
f 157 162 161
f 159 162 158
f 160 163 159
f 160 161 164
f 161 166 165
f 162 167 166
f 163 168 167
f 161 168 164
f 166 169 165
f 167 170 166
f 167 172 171
f 165 172 168
f 170 173 169
f 171 174 170
f 171 176 175
f 169 176 172
f 174 177 173
f 175 178 174
f 175 180 179
f 173 180 176
f 178 181 177
f 179 182 178
f 179 184 183
f 177 184 180
f 182 185 181
f 183 186 182
f 183 188 187
f 181 188 184
f 186 189 185
f 187 190 186
f 187 192 191
f 185 192 188
f 190 193 189
f 191 194 190
f 191 196 195
f 189 196 192
f 193 198 197
f 195 198 194
f 195 200 199
f 193 200 196
f 4 2 1
f 197 199 200
f 1 2 6
f 3 7 6
f 3 4 8
f 1 5 8
f 5 6 10
f 6 7 11
f 8 12 11
f 8 5 9
f 9 10 14
f 10 11 15
f 12 16 15
f 12 9 13
f 13 14 18
f 15 19 18
f 16 20 19
f 13 17 20
f 17 18 22
f 18 19 23
f 20 24 23
f 20 17 21
f 21 22 26
f 22 23 27
f 24 28 27
f 24 21 25
f 25 26 30
f 26 27 31
f 28 32 31
f 25 29 32
f 29 30 34
f 30 31 35
f 32 36 35
f 32 29 33
f 33 34 38
f 35 39 38
f 36 40 39
f 36 33 37
f 37 38 42
f 39 43 42
f 40 44 43
f 40 37 41
f 41 42 46
f 43 47 46
f 44 48 47
f 41 45 48
f 45 46 50
f 47 51 50
f 48 52 51
f 45 49 52
f 49 50 54
f 51 55 54
f 52 56 55
f 52 49 53
f 53 54 58
f 55 59 58
f 56 60 59
f 53 57 60
f 57 58 62
f 59 63 62
f 60 64 63
f 57 61 64
f 61 62 66
f 62 63 67
f 64 68 67
f 61 65 68
f 65 66 70
f 66 67 71
f 68 72 71
f 68 65 69
f 69 70 74
f 71 75 74
f 72 76 75
f 72 69 73
f 73 74 78
f 74 75 79
f 76 80 79
f 76 73 77
f 77 78 82
f 79 83 82
f 80 84 83
f 80 77 81
f 81 82 86
f 82 83 87
f 84 88 87
f 84 81 85
f 85 86 90
f 87 91 90
f 88 92 91
f 85 89 92
f 89 90 94
f 91 95 94
f 92 96 95
f 92 89 93
f 93 94 98
f 94 95 99
f 96 100 99
f 93 97 100
f 97 98 102
f 99 103 102
f 100 104 103
f 100 97 101
f 101 102 106
f 102 103 107
f 104 108 107
f 101 105 108
f 105 106 110
f 106 107 111
f 108 112 111
f 108 105 109
f 109 110 114
f 110 111 115
f 112 116 115
f 109 113 116
f 113 114 118
f 114 115 119
f 116 120 119
f 116 113 117
f 117 118 122
f 119 123 122
f 120 124 123
f 120 117 121
f 121 122 126
f 123 127 126
f 124 128 127
f 121 125 128
f 125 126 130
f 126 127 131
f 128 132 131
f 128 125 129
f 129 130 134
f 131 135 134
f 132 136 135
f 132 129 133
f 133 134 138
f 134 135 139
f 136 140 139
f 136 133 137
f 137 138 142
f 139 143 142
f 140 144 143
f 140 137 141
f 141 142 146
f 143 147 146
f 144 148 147
f 141 145 148
f 145 146 150
f 146 147 151
f 148 152 151
f 145 149 152
f 149 150 154
f 151 155 154
f 152 156 155
f 149 153 156
f 153 154 158
f 154 155 159
f 156 160 159
f 153 157 160
f 157 158 162
f 159 163 162
f 160 164 163
f 160 157 161
f 161 162 166
f 162 163 167
f 163 164 168
f 161 165 168
f 166 170 169
f 167 171 170
f 167 168 172
f 165 169 172
f 170 174 173
f 171 175 174
f 171 172 176
f 169 173 176
f 174 178 177
f 175 179 178
f 175 176 180
f 173 177 180
f 178 182 181
f 179 183 182
f 179 180 184
f 177 181 184
f 182 186 185
f 183 187 186
f 183 184 188
f 181 185 188
f 186 190 189
f 187 191 190
f 187 188 192
f 185 189 192
f 190 194 193
f 191 195 194
f 191 192 196
f 189 193 196
f 193 194 198
f 195 199 198
f 195 196 200
f 193 197 200
f 4 3 2
f 197 198 199
