# celestial_dragon Energy9_Energy.obj: Roblox cue frame, recentred on its bounding box
v 0.16701 0.01830 0.77731
v 0.16701 0.01830 0.77731
v 0.15912 0.01695 0.77731
v 0.15912 0.01695 0.77731
v 0.15747 0.05373 0.73698
v 0.15747 0.05373 0.74533
v 0.15010 0.05063 0.74533
v 0.15010 0.05063 0.73698
v 0.14007 0.08622 0.69869
v 0.14007 0.08622 0.71131
v 0.13359 0.08154 0.71131
v 0.13359 0.08154 0.69869
v 0.11565 0.11407 0.66082
v 0.11565 0.11407 0.67688
v 0.11040 0.10803 0.67688
v 0.11040 0.10803 0.66082
v 0.08541 0.13575 0.62318
v 0.08541 0.13575 0.64220
v 0.08167 0.12868 0.64220
v 0.08167 0.12868 0.62318
v 0.05089 0.15011 0.58572
v 0.05089 0.15011 0.60736
v 0.04884 0.14238 0.60736
v 0.04884 0.14238 0.58572
v 0.01385 0.15653 0.54839
v 0.01385 0.15653 0.57238
v 0.01360 0.14853 0.57238
v 0.01360 0.14853 0.54839
v -0.02392 0.15437 0.51116
v -0.02392 0.15437 0.53730
v -0.02235 0.14653 0.53730
v -0.02235 0.14653 0.51116
v -0.06044 0.14364 0.47403
v -0.06044 0.14364 0.50212
v -0.05713 0.13636 0.50212
v -0.05713 0.13636 0.47403
v -0.09377 0.12480 0.43699
v -0.09377 0.12480 0.46686
v -0.08890 0.11845 0.46686
v -0.08890 0.11845 0.43699
v -0.12214 0.09873 0.40003
v -0.12214 0.09873 0.43151
v -0.11596 0.09366 0.43151
v -0.11596 0.09366 0.40003
v -0.14399 0.06673 0.36314
v -0.14399 0.06673 0.39609
v -0.13682 0.06319 0.39609
v -0.13682 0.06319 0.36314
v -0.15810 0.03039 0.32633
v -0.15810 0.03039 0.36060
v -0.15031 0.02856 0.36060
v -0.15031 0.02856 0.32633
v -0.16364 -0.00843 0.28958
v -0.16364 -0.00843 0.32503
v -0.15564 -0.00845 0.32503
v -0.15564 -0.00845 0.28958
v -0.16022 -0.04773 0.25291
v -0.16022 -0.04773 0.28940
v -0.15242 -0.04593 0.28940
v -0.15242 -0.04593 0.25291
v -0.14790 -0.08545 0.21630
v -0.14790 -0.08545 0.25370
v -0.14072 -0.08193 0.25370
v -0.14072 -0.08193 0.21630
v -0.12724 -0.11959 0.17976
v -0.12724 -0.11959 0.21794
v -0.12104 -0.11454 0.21794
v -0.12104 -0.11454 0.17976
v -0.09922 -0.14833 0.14328
v -0.09922 -0.14833 0.18210
v -0.09432 -0.14201 0.18210
v -0.09432 -0.14201 0.14328
v -0.06532 -0.17033 0.10687
v -0.06532 -0.17033 0.14621
v -0.06199 -0.16306 0.14621
v -0.06199 -0.16306 0.10687
v -0.02705 -0.18416 0.07052
v -0.02705 -0.18416 0.11025
v -0.02545 -0.17633 0.11025
v -0.02545 -0.17633 0.07052
v 0.01365 -0.18900 0.03424
v 0.01365 -0.18900 0.07422
v 0.01343 -0.18100 0.07422
v 0.01343 -0.18100 0.03424
v 0.05467 -0.18444 -0.00198
v 0.05467 -0.18444 0.03813
v 0.05265 -0.17670 0.03813
v 0.05265 -0.17670 -0.00198
v 0.09387 -0.17061 -0.03813
v 0.09387 -0.17061 0.00198
v 0.09015 -0.16353 0.00198
v 0.09015 -0.16353 -0.03813
v 0.12915 -0.14810 -0.07422
v 0.12915 -0.14810 -0.03424
v 0.12392 -0.14204 -0.03424
v 0.12392 -0.14204 -0.07422
v 0.15861 -0.11796 -0.11025
v 0.15861 -0.11796 -0.07052
v 0.15215 -0.11325 -0.07052
v 0.15215 -0.11325 -0.11025
v 0.18063 -0.08169 -0.14621
v 0.18063 -0.08169 -0.10687
v 0.17326 -0.07856 -0.10687
v 0.17326 -0.07856 -0.14621
v 0.19393 -0.04109 -0.18210
v 0.19393 -0.04109 -0.14328
v 0.18605 -0.03971 -0.14328
v 0.18605 -0.03971 -0.18210
v 0.19771 0.00176 -0.21794
v 0.19771 0.00176 -0.17976
v 0.18973 0.00131 -0.17976
v 0.18973 0.00131 -0.21794
v 0.19164 0.04463 -0.25370
v 0.19164 0.04463 -0.21630
v 0.18396 0.04239 -0.21630
v 0.18396 0.04239 -0.25370
v 0.17591 0.08528 -0.28940
v 0.17591 0.08528 -0.25291
v 0.16894 0.08136 -0.25291
v 0.16894 0.08136 -0.28940
v 0.15125 0.12159 -0.32503
v 0.15125 0.12159 -0.28958
v 0.14535 0.11619 -0.28958
v 0.14535 0.11619 -0.32503
v 0.11878 0.15157 -0.36060
v 0.11878 0.15157 -0.32633
v 0.11426 0.14498 -0.32633
v 0.11426 0.14498 -0.36060
v 0.08010 0.17357 -0.39609
v 0.08010 0.17357 -0.36314
v 0.07719 0.16612 -0.36314
v 0.07719 0.16612 -0.39609
v 0.03714 0.18631 -0.43151
v 0.03714 0.18631 -0.40003
v 0.03599 0.17839 -0.40003
v 0.03599 0.17839 -0.43151
v -0.00789 0.18900 -0.46685
v -0.00789 0.18900 -0.43699
v -0.00722 0.18102 -0.43699
v -0.00722 0.18102 -0.46685
v -0.05266 0.18135 -0.50212
v -0.05266 0.18135 -0.47403
v -0.05020 0.17374 -0.47403
v -0.05020 0.17374 -0.50212
v -0.09481 0.16364 -0.53730
v -0.09481 0.16364 -0.51116
v -0.09069 0.15678 -0.51116
v -0.09069 0.15678 -0.53730
v -0.13210 0.13665 -0.57238
v -0.13210 0.13665 -0.54839
v -0.12653 0.13091 -0.54839
v -0.12653 0.13091 -0.57238
v -0.16250 0.10168 -0.60736
v -0.16250 0.10168 -0.58572
v -0.15578 0.09735 -0.58572
v -0.15578 0.09735 -0.60736
v -0.18433 0.06046 -0.64220
v -0.18433 0.06046 -0.62318
v -0.17680 0.05776 -0.62318
v -0.17680 0.05776 -0.64220
v -0.19632 0.01507 -0.67688
v -0.19632 0.01507 -0.66082
v -0.18837 0.01415 -0.66082
v -0.18837 0.01415 -0.67688
v -0.19771 -0.03216 -0.71131
v -0.19771 -0.03216 -0.69869
v -0.18976 -0.03126 -0.69869
v -0.18976 -0.03126 -0.71131
v -0.18816 -0.07873 -0.74533
v -0.18816 -0.07873 -0.73698
v -0.18062 -0.07605 -0.73698
v -0.18062 -0.07605 -0.74533
v -0.16816 -0.12215 -0.77731
v -0.16816 -0.12215 -0.77731
v -0.16142 -0.11783 -0.77731
v -0.16142 -0.11783 -0.77731
f 1 6 5
f 2 7 6
f 3 8 7
f 1 8 4
f 5 10 9
f 6 11 10
f 8 11 7
f 5 12 8
f 9 14 13
f 10 15 14
f 12 15 11
f 9 16 12
f 13 18 17
f 14 19 18
f 16 19 15
f 13 20 16
f 17 22 21
f 18 23 22
f 20 23 19
f 17 24 20
f 21 26 25
f 22 27 26
f 24 27 23
f 21 28 24
f 25 30 29
f 26 31 30
f 28 31 27
f 25 32 28
f 29 34 33
f 30 35 34
f 32 35 31
f 29 36 32
f 33 38 37
f 34 39 38
f 36 39 35
f 33 40 36
f 37 42 41
f 38 43 42
f 40 43 39
f 37 44 40
f 41 46 45
f 42 47 46
f 44 47 43
f 41 48 44
f 45 50 49
f 46 51 50
f 48 51 47
f 45 52 48
f 49 54 53
f 50 55 54
f 52 55 51
f 49 56 52
f 53 58 57
f 54 59 58
f 56 59 55
f 53 60 56
f 57 62 61
f 58 63 62
f 60 63 59
f 57 64 60
f 61 66 65
f 62 67 66
f 64 67 63
f 61 68 64
f 65 70 69
f 66 71 70
f 68 71 67
f 65 72 68
f 69 74 73
f 70 75 74
f 72 75 71
f 69 76 72
f 73 78 77
f 74 79 78
f 76 79 75
f 73 80 76
f 77 82 81
f 78 83 82
f 80 83 79
f 77 84 80
f 81 86 85
f 82 87 86
f 84 87 83
f 81 88 84
f 85 90 89
f 86 91 90
f 88 91 87
f 85 92 88
f 89 94 93
f 90 95 94
f 92 95 91
f 89 96 92
f 93 98 97
f 94 99 98
f 96 99 95
f 93 100 96
f 97 102 101
f 98 103 102
f 100 103 99
f 97 104 100
f 101 106 105
f 102 107 106
f 104 107 103
f 101 108 104
f 105 110 109
f 106 111 110
f 108 111 107
f 105 112 108
f 109 114 113
f 110 115 114
f 112 115 111
f 109 116 112
f 113 118 117
f 114 119 118
f 116 119 115
f 113 120 116
f 117 122 121
f 118 123 122
f 120 123 119
f 117 124 120
f 121 126 125
f 122 127 126
f 124 127 123
f 121 128 124
f 125 130 129
f 126 131 130
f 128 131 127
f 125 132 128
f 129 134 133
f 130 135 134
f 132 135 131
f 129 136 132
f 133 138 137
f 134 139 138
f 136 139 135
f 133 140 136
f 137 142 141
f 138 143 142
f 140 143 139
f 137 144 140
f 141 146 145
f 142 147 146
f 144 147 143
f 141 148 144
f 145 150 149
f 146 151 150
f 148 151 147
f 145 152 148
f 149 154 153
f 150 155 154
f 152 155 151
f 149 156 152
f 153 158 157
f 154 159 158
f 156 159 155
f 153 160 156
f 157 162 161
f 158 163 162
f 160 163 159
f 157 164 160
f 161 166 165
f 162 167 166
f 164 167 163
f 161 168 164
f 165 170 169
f 166 171 170
f 168 171 167
f 165 172 168
f 169 174 173
f 170 175 174
f 171 176 175
f 169 176 172
f 4 2 1
f 173 175 176
f 1 2 6
f 2 3 7
f 3 4 8
f 1 5 8
f 5 6 10
f 6 7 11
f 8 12 11
f 5 9 12
f 9 10 14
f 10 11 15
f 12 16 15
f 9 13 16
f 13 14 18
f 14 15 19
f 16 20 19
f 13 17 20
f 17 18 22
f 18 19 23
f 20 24 23
f 17 21 24
f 21 22 26
f 22 23 27
f 24 28 27
f 21 25 28
f 25 26 30
f 26 27 31
f 28 32 31
f 25 29 32
f 29 30 34
f 30 31 35
f 32 36 35
f 29 33 36
f 33 34 38
f 34 35 39
f 36 40 39
f 33 37 40
f 37 38 42
f 38 39 43
f 40 44 43
f 37 41 44
f 41 42 46
f 42 43 47
f 44 48 47
f 41 45 48
f 45 46 50
f 46 47 51
f 48 52 51
f 45 49 52
f 49 50 54
f 50 51 55
f 52 56 55
f 49 53 56
f 53 54 58
f 54 55 59
f 56 60 59
f 53 57 60
f 57 58 62
f 58 59 63
f 60 64 63
f 57 61 64
f 61 62 66
f 62 63 67
f 64 68 67
f 61 65 68
f 65 66 70
f 66 67 71
f 68 72 71
f 65 69 72
f 69 70 74
f 70 71 75
f 72 76 75
f 69 73 76
f 73 74 78
f 74 75 79
f 76 80 79
f 73 77 80
f 77 78 82
f 78 79 83
f 80 84 83
f 77 81 84
f 81 82 86
f 82 83 87
f 84 88 87
f 81 85 88
f 85 86 90
f 86 87 91
f 88 92 91
f 85 89 92
f 89 90 94
f 90 91 95
f 92 96 95
f 89 93 96
f 93 94 98
f 94 95 99
f 96 100 99
f 93 97 100
f 97 98 102
f 98 99 103
f 100 104 103
f 97 101 104
f 101 102 106
f 102 103 107
f 104 108 107
f 101 105 108
f 105 106 110
f 106 107 111
f 108 112 111
f 105 109 112
f 109 110 114
f 110 111 115
f 112 116 115
f 109 113 116
f 113 114 118
f 114 115 119
f 116 120 119
f 113 117 120
f 117 118 122
f 118 119 123
f 120 124 123
f 117 121 124
f 121 122 126
f 122 123 127
f 124 128 127
f 121 125 128
f 125 126 130
f 126 127 131
f 128 132 131
f 125 129 132
f 129 130 134
f 130 131 135
f 132 136 135
f 129 133 136
f 133 134 138
f 134 135 139
f 136 140 139
f 133 137 140
f 137 138 142
f 138 139 143
f 140 144 143
f 137 141 144
f 141 142 146
f 142 143 147
f 144 148 147
f 141 145 148
f 145 146 150
f 146 147 151
f 148 152 151
f 145 149 152
f 149 150 154
f 150 151 155
f 152 156 155
f 149 153 156
f 153 154 158
f 154 155 159
f 156 160 159
f 153 157 160
f 157 158 162
f 158 159 163
f 160 164 163
f 157 161 164
f 161 162 166
f 162 163 167
f 164 168 167
f 161 165 168
f 165 166 170
f 166 167 171
f 168 172 171
f 165 169 172
f 169 170 174
f 170 171 175
f 171 172 176
f 169 173 176
f 4 3 2
f 173 174 175
