# celestial_dragon Energy8_EnergyPale.obj: Roblox cue frame, recentred on its bounding box
v -0.27384 0.22159 0.71573
v -0.27384 0.22159 0.71573
v -0.26451 0.21405 0.71573
v -0.26451 0.21405 0.71573
v -0.30873 0.16954 0.64597
v -0.30873 0.16954 0.70128
v -0.29821 0.16377 0.70128
v -0.29821 0.16377 0.64597
v -0.33385 0.11215 0.58971
v -0.33385 0.11215 0.67334
v -0.32248 0.10833 0.67334
v -0.32248 0.10833 0.58971
v -0.34843 0.05121 0.53633
v -0.34843 0.05121 0.64252
v -0.33656 0.04947 0.64252
v -0.33656 0.04947 0.53633
v -0.35200 -0.01134 0.48460
v -0.35200 -0.01134 0.61004
v -0.34000 -0.01096 0.61004
v -0.34000 -0.01096 0.48460
v -0.34444 -0.07354 0.43407
v -0.34444 -0.07354 0.57637
v -0.33270 -0.07104 0.57637
v -0.33270 -0.07104 0.43407
v -0.32600 -0.13342 0.38449
v -0.32600 -0.13342 0.54174
v -0.31489 -0.12888 0.54174
v -0.31489 -0.12888 0.38449
v -0.29725 -0.18909 0.33575
v -0.29725 -0.18909 0.50628
v -0.28712 -0.18266 0.50628
v -0.28712 -0.18266 0.33575
v -0.25911 -0.23880 0.28775
v -0.25911 -0.23880 0.47008
v -0.25028 -0.23068 0.47008
v -0.25028 -0.23068 0.28775
v -0.21278 -0.28097 0.24044
v -0.21278 -0.28097 0.43318
v -0.20552 -0.27142 0.43318
v -0.20552 -0.27142 0.24044
v -0.15971 -0.31428 0.19380
v -0.15971 -0.31428 0.39563
v -0.15426 -0.30360 0.39563
v -0.15426 -0.30360 0.19380
v -0.10159 -0.33768 0.14778
v -0.10159 -0.33768 0.35744
v -0.09812 -0.32620 0.35744
v -0.09812 -0.32620 0.14778
v -0.04025 -0.35043 0.10239
v -0.04025 -0.35043 0.31862
v -0.03886 -0.33851 0.31862
v -0.03886 -0.33851 0.10239
v 0.02239 -0.35212 0.05761
v 0.02239 -0.35212 0.27920
v 0.02164 -0.34015 0.27920
v 0.02164 -0.34015 0.05761
v 0.08433 -0.34271 0.01343
v 0.08433 -0.34271 0.23918
v 0.08148 -0.33105 0.23918
v 0.08148 -0.33105 0.01343
v 0.14363 -0.32248 -0.03016
v 0.14363 -0.32248 0.19856
v 0.13876 -0.31151 0.19856
v 0.13876 -0.31151 -0.03016
v 0.19842 -0.29209 -0.07315
v 0.19842 -0.29209 0.15735
v 0.19168 -0.28215 0.15735
v 0.19168 -0.28215 -0.07315
v 0.24696 -0.25247 -0.11554
v 0.24696 -0.25247 0.11554
v 0.23858 -0.24389 0.11554
v 0.23858 -0.24389 -0.11554
v 0.28773 -0.20490 -0.15735
v 0.28773 -0.20490 0.07315
v 0.27796 -0.19793 0.07315
v 0.27796 -0.19793 -0.15735
v 0.31944 -0.15086 -0.19856
v 0.31944 -0.15086 0.03016
v 0.30859 -0.14573 0.03016
v 0.30859 -0.14573 -0.19856
v 0.34109 -0.09207 -0.23918
v 0.34109 -0.09207 -0.01343
v 0.32951 -0.08894 -0.01343
v 0.32951 -0.08894 -0.23918
v 0.35200 -0.03037 -0.27920
v 0.35200 -0.03037 -0.05761
v 0.34004 -0.02934 -0.05761
v 0.34004 -0.02934 -0.27920
v 0.35181 0.03229 -0.31862
v 0.35181 0.03229 -0.10239
v 0.33987 0.03119 -0.10239
v 0.33987 0.03119 -0.31862
v 0.34055 0.09392 -0.35744
v 0.34055 0.09392 -0.14778
v 0.32898 0.09072 -0.14778
v 0.32898 0.09072 -0.35744
v 0.31856 0.15259 -0.39563
v 0.31856 0.15259 -0.19380
v 0.30774 0.14740 -0.19380
v 0.30774 0.14740 -0.39563
v 0.28654 0.20644 -0.43318
v 0.28654 0.20644 -0.24044
v 0.27681 0.19942 -0.24044
v 0.27681 0.19942 -0.43318
v 0.24549 0.25378 -0.47008
v 0.24549 0.25378 -0.28775
v 0.23716 0.24514 -0.28775
v 0.23716 0.24514 -0.47008
v 0.19672 0.29311 -0.50628
v 0.19672 0.29311 -0.33575
v 0.19005 0.28313 -0.33575
v 0.19005 0.28313 -0.50628
v 0.14176 0.32319 -0.54174
v 0.14176 0.32319 -0.38449
v 0.13695 0.31219 -0.38449
v 0.13695 0.31219 -0.54174
v 0.08234 0.34307 -0.57637
v 0.08234 0.34307 -0.43407
v 0.07956 0.33140 -0.43407
v 0.07956 0.33140 -0.57637
v 0.02034 0.35212 -0.61004
v 0.02034 0.35212 -0.48460
v 0.01967 0.34014 -0.48460
v 0.01967 0.34014 -0.61004
v -0.04228 0.35007 -0.64252
v -0.04228 0.35007 -0.53633
v -0.04082 0.33816 -0.53633
v -0.04082 0.33816 -0.64252
v -0.10355 0.33697 -0.67334
v -0.10355 0.33697 -0.58971
v -0.10001 0.32550 -0.58971
v -0.10001 0.32550 -0.67334
v -0.16153 0.31323 -0.70128
v -0.16153 0.31323 -0.64597
v -0.15602 0.30257 -0.64597
v -0.15602 0.30257 -0.70128
v -0.21440 0.27961 -0.71573
v -0.21440 0.27961 -0.71573
v -0.20709 0.27010 -0.71573
v -0.20709 0.27010 -0.71573
f 1 6 5
f 3 6 2
f 3 8 7
f 1 8 4
f 5 10 9
f 6 11 10
f 8 11 7
f 8 9 12
f 9 14 13
f 11 14 10
f 12 15 11
f 12 13 16
f 13 18 17
f 14 19 18
f 16 19 15
f 16 17 20
f 17 22 21
f 19 22 18
f 20 23 19
f 20 21 24
f 21 26 25
f 23 26 22
f 24 27 23
f 21 28 24
f 25 30 29
f 26 31 30
f 28 31 27
f 25 32 28
f 29 34 33
f 30 35 34
f 32 35 31
f 29 36 32
f 33 38 37
f 35 38 34
f 36 39 35
f 36 37 40
f 37 42 41
f 38 43 42
f 40 43 39
f 37 44 40
f 41 46 45
f 43 46 42
f 44 47 43
f 41 48 44
f 45 50 49
f 47 50 46
f 48 51 47
f 45 52 48
f 49 54 53
f 51 54 50
f 52 55 51
f 52 53 56
f 53 58 57
f 54 59 58
f 56 59 55
f 53 60 56
f 57 62 61
f 59 62 58
f 60 63 59
f 57 64 60
f 61 66 65
f 63 66 62
f 64 67 63
f 61 68 64
f 65 70 69
f 67 70 66
f 68 71 67
f 68 69 72
f 69 74 73
f 71 74 70
f 72 75 71
f 72 73 76
f 73 78 77
f 75 78 74
f 76 79 75
f 76 77 80
f 77 82 81
f 78 83 82
f 80 83 79
f 77 84 80
f 81 86 85
f 83 86 82
f 84 87 83
f 81 88 84
f 85 90 89
f 87 90 86
f 88 91 87
f 88 89 92
f 89 94 93
f 91 94 90
f 92 95 91
f 89 96 92
f 93 98 97
f 95 98 94
f 96 99 95
f 93 100 96
f 97 102 101
f 99 102 98
f 100 103 99
f 100 101 104
f 101 106 105
f 103 106 102
f 104 107 103
f 101 108 104
f 105 110 109
f 107 110 106
f 108 111 107
f 105 112 108
f 109 114 113
f 111 114 110
f 112 115 111
f 109 116 112
f 113 118 117
f 114 119 118
f 116 119 115
f 113 120 116
f 117 122 121
f 119 122 118
f 120 123 119
f 117 124 120
f 121 126 125
f 123 126 122
f 124 127 123
f 121 128 124
f 125 130 129
f 127 130 126
f 128 131 127
f 125 132 128
f 129 134 133
f 131 134 130
f 132 135 131
f 132 133 136
f 133 138 137
f 135 138 134
f 135 140 139
f 136 137 140
f 4 2 1
f 137 139 140
f 1 2 6
f 3 7 6
f 3 4 8
f 1 5 8
f 5 6 10
f 6 7 11
f 8 12 11
f 8 5 9
f 9 10 14
f 11 15 14
f 12 16 15
f 12 9 13
f 13 14 18
f 14 15 19
f 16 20 19
f 16 13 17
f 17 18 22
f 19 23 22
f 20 24 23
f 20 17 21
f 21 22 26
f 23 27 26
f 24 28 27
f 21 25 28
f 25 26 30
f 26 27 31
f 28 32 31
f 25 29 32
f 29 30 34
f 30 31 35
f 32 36 35
f 29 33 36
f 33 34 38
f 35 39 38
f 36 40 39
f 36 33 37
f 37 38 42
f 38 39 43
f 40 44 43
f 37 41 44
f 41 42 46
f 43 47 46
f 44 48 47
f 41 45 48
f 45 46 50
f 47 51 50
f 48 52 51
f 45 49 52
f 49 50 54
f 51 55 54
f 52 56 55
f 52 49 53
f 53 54 58
f 54 55 59
f 56 60 59
f 53 57 60
f 57 58 62
f 59 63 62
f 60 64 63
f 57 61 64
f 61 62 66
f 63 67 66
f 64 68 67
f 61 65 68
f 65 66 70
f 67 71 70
f 68 72 71
f 68 65 69
f 69 70 74
f 71 75 74
f 72 76 75
f 72 69 73
f 73 74 78
f 75 79 78
f 76 80 79
f 76 73 77
f 77 78 82
f 78 79 83
f 80 84 83
f 77 81 84
f 81 82 86
f 83 87 86
f 84 88 87
f 81 85 88
f 85 86 90
f 87 91 90
f 88 92 91
f 88 85 89
f 89 90 94
f 91 95 94
f 92 96 95
f 89 93 96
f 93 94 98
f 95 99 98
f 96 100 99
f 93 97 100
f 97 98 102
f 99 103 102
f 100 104 103
f 100 97 101
f 101 102 106
f 103 107 106
f 104 108 107
f 101 105 108
f 105 106 110
f 107 111 110
f 108 112 111
f 105 109 112
f 109 110 114
f 111 115 114
f 112 116 115
f 109 113 116
f 113 114 118
f 114 115 119
f 116 120 119
f 113 117 120
f 117 118 122
f 119 123 122
f 120 124 123
f 117 121 124
f 121 122 126
f 123 127 126
f 124 128 127
f 121 125 128
f 125 126 130
f 127 131 130
f 128 132 131
f 125 129 132
f 129 130 134
f 131 135 134
f 132 136 135
f 132 129 133
f 133 134 138
f 135 139 138
f 135 136 140
f 136 133 137
f 4 3 2
f 137 138 139
