# celestial_dragon Energy4_EnergyPale.obj: Roblox cue frame, recentred on its bounding box
v 0.06671 0.12931 0.63483
v 0.06671 0.12931 0.63483
v 0.06280 0.12233 0.63483
v 0.06280 0.12233 0.63483
v 0.04165 0.14127 0.58997
v 0.04165 0.14127 0.60713
v 0.03909 0.13369 0.60713
v 0.03909 0.13369 0.58997
v 0.01468 0.14846 0.54930
v 0.01468 0.14846 0.57525
v 0.01356 0.14053 0.57525
v 0.01356 0.14053 0.54930
v -0.01330 0.15056 0.50952
v -0.01330 0.15056 0.54248
v -0.01294 0.14257 0.54248
v -0.01294 0.14257 0.50952
v -0.04132 0.14746 0.47025
v -0.04132 0.14746 0.50920
v -0.03950 0.13967 0.50920
v -0.03950 0.13967 0.47025
v -0.06843 0.13922 0.43134
v -0.06843 0.13922 0.47555
v -0.06521 0.13190 0.47555
v -0.06521 0.13190 0.43134
v -0.09369 0.12606 0.39274
v -0.09369 0.12606 0.44161
v -0.08917 0.11945 0.44161
v -0.08917 0.11945 0.39274
v -0.11620 0.10838 0.35438
v -0.11620 0.10838 0.40742
v -0.11055 0.10272 0.40742
v -0.11055 0.10272 0.35438
v -0.13516 0.08676 0.31625
v -0.13516 0.08676 0.37300
v -0.12857 0.08224 0.37300
v -0.12857 0.08224 0.31625
v -0.14990 0.06189 0.27832
v -0.14990 0.06189 0.33837
v -0.14258 0.05866 0.33837
v -0.14258 0.05866 0.27832
v -0.15985 0.03461 0.24060
v -0.15985 0.03461 0.30354
v -0.15206 0.03278 0.30354
v -0.15206 0.03278 0.24060
v -0.16462 0.00582 0.20307
v -0.16462 0.00582 0.26852
v -0.15663 0.00545 0.26852
v -0.15663 0.00545 0.20307
v -0.16402 -0.02351 0.16572
v -0.16402 -0.02351 0.23331
v -0.15610 -0.02240 0.23331
v -0.15610 -0.02240 0.16572
v -0.15799 -0.05235 0.12855
v -0.15799 -0.05235 0.19793
v -0.15041 -0.04980 0.19793
v -0.15041 -0.04980 0.12855
v -0.14671 -0.07973 0.09157
v -0.14671 -0.07973 0.16236
v -0.13972 -0.07583 0.16236
v -0.13972 -0.07583 0.09157
v -0.13050 -0.10467 0.05476
v -0.13050 -0.10467 0.12662
v -0.12435 -0.09955 0.12662
v -0.12435 -0.09955 0.05476
v -0.10988 -0.12631 0.01813
v -0.10988 -0.12631 0.09069
v -0.10478 -0.12015 0.09069
v -0.10478 -0.12015 0.01813
v -0.08551 -0.14387 -0.01832
v -0.08551 -0.14387 0.05459
v -0.08163 -0.13687 0.05459
v -0.08163 -0.13687 -0.01832
v -0.05819 -0.15670 -0.05459
v -0.05819 -0.15670 0.01832
v -0.05567 -0.14911 0.01832
v -0.05567 -0.14911 -0.05459
v -0.02885 -0.16431 -0.09069
v -0.02885 -0.16431 -0.01813
v -0.02776 -0.15639 -0.01813
v -0.02776 -0.15639 -0.09069
v 0.00154 -0.16641 -0.12662
v 0.00154 -0.16641 -0.05476
v 0.00115 -0.15841 -0.05476
v 0.00115 -0.15841 -0.12662
v 0.03193 -0.16285 -0.16236
v 0.03193 -0.16285 -0.09157
v 0.03008 -0.15507 -0.09157
v 0.03008 -0.15507 -0.16236
v 0.06128 -0.15372 -0.19793
v 0.06128 -0.15372 -0.12855
v 0.05803 -0.14641 -0.12855
v 0.05803 -0.14641 -0.19793
v 0.08858 -0.13928 -0.23332
v 0.08858 -0.13928 -0.16572
v 0.08404 -0.13269 -0.16572
v 0.08404 -0.13269 -0.23332
v 0.11286 -0.11997 -0.26852
v 0.11286 -0.11997 -0.20307
v 0.10719 -0.11433 -0.20307
v 0.10719 -0.11433 -0.26852
v 0.13327 -0.09641 -0.30354
v 0.13327 -0.09641 -0.24060
v 0.12665 -0.09191 -0.24060
v 0.12665 -0.09191 -0.30354
v 0.14906 -0.06937 -0.33837
v 0.14906 -0.06937 -0.27832
v 0.14172 -0.06617 -0.27832
v 0.14172 -0.06617 -0.33837
v 0.15965 -0.03976 -0.37300
v 0.15965 -0.03976 -0.31625
v 0.15185 -0.03796 -0.31625
v 0.15185 -0.03796 -0.37300
v 0.16462 -0.00857 -0.40742
v 0.16462 -0.00857 -0.35438
v 0.15663 -0.00823 -0.35438
v 0.15663 -0.00823 -0.40742
v 0.16377 0.02315 -0.44161
v 0.16377 0.02315 -0.39274
v 0.15585 0.02201 -0.39274
v 0.15585 0.02201 -0.44161
v 0.15707 0.05431 -0.47555
v 0.15707 0.05431 -0.43135
v 0.14949 0.05173 -0.43135
v 0.14949 0.05173 -0.47555
v 0.14468 0.08383 -0.50920
v 0.14468 0.08383 -0.47025
v 0.13771 0.07990 -0.47025
v 0.13771 0.07990 -0.50920
v 0.12700 0.11069 -0.54248
v 0.12700 0.11069 -0.50952
v 0.12087 0.10555 -0.50952
v 0.12087 0.10555 -0.54248
v 0.10457 0.13393 -0.57525
v 0.10457 0.13393 -0.54930
v 0.09950 0.12775 -0.54930
v 0.09950 0.12775 -0.57525
v 0.07814 0.15273 -0.60713
v 0.07814 0.15273 -0.58997
v 0.07429 0.14572 -0.58997
v 0.07429 0.14572 -0.60713
v 0.04857 0.16641 -0.63483
v 0.04857 0.16641 -0.63483
v 0.04607 0.15880 -0.63483
v 0.04607 0.15880 -0.63483
f 1 6 5
f 2 7 6
f 3 8 7
f 1 8 4
f 5 10 9
f 6 11 10
f 8 11 7
f 5 12 8
f 9 14 13
f 10 15 14
f 12 15 11
f 9 16 12
f 13 18 17
f 14 19 18
f 16 19 15
f 13 20 16
f 17 22 21
f 18 23 22
f 20 23 19
f 17 24 20
f 21 26 25
f 22 27 26
f 24 27 23
f 21 28 24
f 25 30 29
f 26 31 30
f 28 31 27
f 25 32 28
f 29 34 33
f 30 35 34
f 32 35 31
f 29 36 32
f 33 38 37
f 34 39 38
f 36 39 35
f 33 40 36
f 37 42 41
f 38 43 42
f 40 43 39
f 37 44 40
f 41 46 45
f 42 47 46
f 44 47 43
f 41 48 44
f 45 50 49
f 46 51 50
f 48 51 47
f 45 52 48
f 49 54 53
f 50 55 54
f 52 55 51
f 49 56 52
f 53 58 57
f 54 59 58
f 56 59 55
f 53 60 56
f 57 62 61
f 58 63 62
f 60 63 59
f 57 64 60
f 61 66 65
f 62 67 66
f 64 67 63
f 61 68 64
f 65 70 69
f 66 71 70
f 68 71 67
f 65 72 68
f 69 74 73
f 70 75 74
f 72 75 71
f 69 76 72
f 73 78 77
f 74 79 78
f 76 79 75
f 73 80 76
f 77 82 81
f 78 83 82
f 80 83 79
f 77 84 80
f 81 86 85
f 82 87 86
f 84 87 83
f 81 88 84
f 85 90 89
f 86 91 90
f 88 91 87
f 85 92 88
f 89 94 93
f 90 95 94
f 92 95 91
f 89 96 92
f 93 98 97
f 94 99 98
f 96 99 95
f 93 100 96
f 97 102 101
f 98 103 102
f 100 103 99
f 97 104 100
f 101 106 105
f 102 107 106
f 104 107 103
f 101 108 104
f 105 110 109
f 106 111 110
f 108 111 107
f 105 112 108
f 109 114 113
f 110 115 114
f 112 115 111
f 109 116 112
f 113 118 117
f 114 119 118
f 116 119 115
f 113 120 116
f 117 122 121
f 118 123 122
f 120 123 119
f 117 124 120
f 121 126 125
f 122 127 126
f 124 127 123
f 121 128 124
f 125 130 129
f 126 131 130
f 128 131 127
f 125 132 128
f 129 134 133
f 130 135 134
f 132 135 131
f 129 136 132
f 133 138 137
f 134 139 138
f 136 139 135
f 133 140 136
f 137 142 141
f 138 143 142
f 139 144 143
f 137 144 140
f 4 2 1
f 141 143 144
f 1 2 6
f 2 3 7
f 3 4 8
f 1 5 8
f 5 6 10
f 6 7 11
f 8 12 11
f 5 9 12
f 9 10 14
f 10 11 15
f 12 16 15
f 9 13 16
f 13 14 18
f 14 15 19
f 16 20 19
f 13 17 20
f 17 18 22
f 18 19 23
f 20 24 23
f 17 21 24
f 21 22 26
f 22 23 27
f 24 28 27
f 21 25 28
f 25 26 30
f 26 27 31
f 28 32 31
f 25 29 32
f 29 30 34
f 30 31 35
f 32 36 35
f 29 33 36
f 33 34 38
f 34 35 39
f 36 40 39
f 33 37 40
f 37 38 42
f 38 39 43
f 40 44 43
f 37 41 44
f 41 42 46
f 42 43 47
f 44 48 47
f 41 45 48
f 45 46 50
f 46 47 51
f 48 52 51
f 45 49 52
f 49 50 54
f 50 51 55
f 52 56 55
f 49 53 56
f 53 54 58
f 54 55 59
f 56 60 59
f 53 57 60
f 57 58 62
f 58 59 63
f 60 64 63
f 57 61 64
f 61 62 66
f 62 63 67
f 64 68 67
f 61 65 68
f 65 66 70
f 66 67 71
f 68 72 71
f 65 69 72
f 69 70 74
f 70 71 75
f 72 76 75
f 69 73 76
f 73 74 78
f 74 75 79
f 76 80 79
f 73 77 80
f 77 78 82
f 78 79 83
f 80 84 83
f 77 81 84
f 81 82 86
f 82 83 87
f 84 88 87
f 81 85 88
f 85 86 90
f 86 87 91
f 88 92 91
f 85 89 92
f 89 90 94
f 90 91 95
f 92 96 95
f 89 93 96
f 93 94 98
f 94 95 99
f 96 100 99
f 93 97 100
f 97 98 102
f 98 99 103
f 100 104 103
f 97 101 104
f 101 102 106
f 102 103 107
f 104 108 107
f 101 105 108
f 105 106 110
f 106 107 111
f 108 112 111
f 105 109 112
f 109 110 114
f 110 111 115
f 112 116 115
f 109 113 116
f 113 114 118
f 114 115 119
f 116 120 119
f 113 117 120
f 117 118 122
f 118 119 123
f 120 124 123
f 117 121 124
f 121 122 126
f 122 123 127
f 124 128 127
f 121 125 128
f 125 126 130
f 126 127 131
f 128 132 131
f 125 129 132
f 129 130 134
f 130 131 135
f 132 136 135
f 129 133 136
f 133 134 138
f 134 135 139
f 136 140 139
f 133 137 140
f 137 138 142
f 138 139 143
f 139 140 144
f 137 141 144
f 4 3 2
f 141 142 143
