# celestial_dragon Energy2_EnergyPale.obj: Roblox cue frame, recentred on its bounding box
v 0.10604 -0.07362 0.81710
v 0.10604 -0.07362 0.81710
v 0.09927 -0.06935 0.81710
v 0.09927 -0.06935 0.81710
v 0.09445 -0.09053 0.77667
v 0.09445 -0.09053 0.78491
v 0.08840 -0.08529 0.78491
v 0.08840 -0.08529 0.77667
v 0.08035 -0.10558 0.73824
v 0.08035 -0.10558 0.75071
v 0.07517 -0.09949 0.75071
v 0.07517 -0.09949 0.73824
v 0.06405 -0.11839 0.70022
v 0.06405 -0.11839 0.71609
v 0.05984 -0.11158 0.71609
v 0.05984 -0.11158 0.70022
v 0.04589 -0.12864 0.66245
v 0.04589 -0.12864 0.68124
v 0.04276 -0.12128 0.68124
v 0.04276 -0.12128 0.66245
v 0.02628 -0.13607 0.62483
v 0.02628 -0.13607 0.64622
v 0.02430 -0.12832 0.64622
v 0.02430 -0.12832 0.62483
v 0.00565 -0.14047 0.58734
v 0.00565 -0.14047 0.61108
v 0.00487 -0.13250 0.61108
v 0.00487 -0.13250 0.58734
v -0.01551 -0.14169 0.54996
v -0.01551 -0.14169 0.57583
v -0.01508 -0.13371 0.57583
v -0.01508 -0.13371 0.54996
v -0.03673 -0.13969 0.51267
v -0.03673 -0.13969 0.54049
v -0.03510 -0.13186 0.54049
v -0.03510 -0.13186 0.51267
v -0.05752 -0.13447 0.47546
v -0.05752 -0.13447 0.50506
v -0.05472 -0.12698 0.50506
v -0.05472 -0.12698 0.47546
v -0.07739 -0.12612 0.43833
v -0.07739 -0.12612 0.46956
v -0.07349 -0.11914 0.46956
v -0.07349 -0.11914 0.43833
v -0.09586 -0.11480 0.40127
v -0.09586 -0.11480 0.43399
v -0.09095 -0.10848 0.43399
v -0.09095 -0.10848 0.40127
v -0.11249 -0.10073 0.36428
v -0.11249 -0.10073 0.39835
v -0.10668 -0.09523 0.39835
v -0.10668 -0.09523 0.36428
v -0.12688 -0.08422 0.32735
v -0.12688 -0.08422 0.36265
v -0.12031 -0.07967 0.36265
v -0.12031 -0.07967 0.32735
v -0.13866 -0.06563 0.29049
v -0.13866 -0.06563 0.32688
v -0.13148 -0.06212 0.32688
v -0.13148 -0.06212 0.29049
v -0.14754 -0.04536 0.25369
v -0.14754 -0.04536 0.29104
v -0.13991 -0.04297 0.29104
v -0.13991 -0.04297 0.25369
v -0.15328 -0.02386 0.21696
v -0.15328 -0.02386 0.25515
v -0.14537 -0.02266 0.25515
v -0.14537 -0.02266 0.21696
v -0.15571 -0.00163 0.18028
v -0.15571 -0.00163 0.21919
v -0.14771 -0.00164 0.21919
v -0.14771 -0.00164 0.18028
v -0.15475 0.02083 0.14367
v -0.15475 0.02083 0.18317
v -0.14684 0.01961 0.18317
v -0.14684 0.01961 0.14367
v -0.15037 0.04299 0.10711
v -0.15037 0.04299 0.14710
v -0.14274 0.04059 0.14710
v -0.14274 0.04059 0.10711
v -0.14264 0.06435 0.07062
v -0.14264 0.06435 0.11096
v -0.13546 0.06082 0.11096
v -0.13546 0.06082 0.07062
v -0.13172 0.08440 0.03418
v -0.13172 0.08440 0.07476
v -0.12515 0.07982 0.07476
v -0.12515 0.07982 0.03418
v -0.11782 0.10265 -0.00219
v -0.11782 0.10265 0.03851
v -0.11202 0.09714 0.03851
v -0.11202 0.09714 -0.00219
v -0.10123 0.11867 -0.03851
v -0.10123 0.11867 0.00219
v -0.09633 0.11234 0.00219
v -0.09633 0.11234 -0.03851
v -0.08231 0.13205 -0.07476
v -0.08231 0.13205 -0.03418
v -0.07842 0.12506 -0.03418
v -0.07842 0.12506 -0.07476
v -0.06148 0.14248 -0.11096
v -0.06148 0.14248 -0.07062
v -0.05869 0.13498 -0.07062
v -0.05869 0.13498 -0.11096
v -0.03920 0.14966 -0.14710
v -0.03920 0.14966 -0.10711
v -0.03758 0.14183 -0.10711
v -0.03758 0.14183 -0.14710
v -0.01597 0.15341 -0.18317
v -0.01597 0.15341 -0.14367
v -0.01556 0.14542 -0.14367
v -0.01556 0.14542 -0.18317
v 0.00767 0.15360 -0.21919
v 0.00767 0.15360 -0.18028
v 0.00687 0.14564 -0.18028
v 0.00687 0.14564 -0.21919
v 0.03118 0.15019 -0.25515
v 0.03118 0.15019 -0.21696
v 0.02918 0.14245 -0.21696
v 0.02918 0.14245 -0.25515
v 0.05401 0.14323 -0.29104
v 0.05401 0.14323 -0.25369
v 0.05087 0.13588 -0.25369
v 0.05087 0.13588 -0.29104
v 0.07564 0.13284 -0.32688
v 0.07564 0.13284 -0.29049
v 0.07142 0.12605 -0.29049
v 0.07142 0.12605 -0.32688
v 0.09554 0.11924 -0.36265
v 0.09554 0.11924 -0.32735
v 0.09034 0.11316 -0.32735
v 0.09034 0.11316 -0.36265
v 0.11323 0.10270 -0.39835
v 0.11323 0.10270 -0.36428
v 0.10717 0.09747 -0.36428
v 0.10717 0.09747 -0.39835
v 0.12829 0.08358 -0.43399
v 0.12829 0.08358 -0.40127
v 0.12151 0.07933 -0.40127
v 0.12151 0.07933 -0.43399
v 0.14034 0.06229 -0.46956
v 0.14034 0.06229 -0.43833
v 0.13299 0.05912 -0.43833
v 0.13299 0.05912 -0.46956
v 0.14907 0.03933 -0.50506
v 0.14907 0.03933 -0.47546
v 0.14133 0.03730 -0.47546
v 0.14133 0.03730 -0.50506
v 0.15424 0.01519 -0.54049
v 0.15424 0.01519 -0.51267
v 0.14629 0.01436 -0.51267
v 0.14629 0.01436 -0.54049
v 0.15571 -0.00957 -0.57583
v 0.15571 -0.00957 -0.54996
v 0.14772 -0.00919 -0.54996
v 0.14772 -0.00919 -0.57583
v 0.15341 -0.03438 -0.61108
v 0.15341 -0.03438 -0.58734
v 0.14557 -0.03280 -0.58734
v 0.14557 -0.03280 -0.61108
v 0.14735 -0.05867 -0.64622
v 0.14735 -0.05867 -0.62483
v 0.13983 -0.05592 -0.62483
v 0.13983 -0.05592 -0.64622
v 0.13763 -0.08187 -0.68124
v 0.13763 -0.08187 -0.66245
v 0.13062 -0.07802 -0.66245
v 0.13062 -0.07802 -0.68124
v 0.12446 -0.10344 -0.71609
v 0.12446 -0.10344 -0.70022
v 0.11811 -0.09856 -0.70022
v 0.11811 -0.09856 -0.71609
v 0.10810 -0.12284 -0.75071
v 0.10810 -0.12284 -0.73824
v 0.10256 -0.11707 -0.73824
v 0.10256 -0.11707 -0.75071
v 0.08890 -0.13963 -0.78491
v 0.08890 -0.13963 -0.77667
v 0.08430 -0.13308 -0.77667
v 0.08430 -0.13308 -0.78491
v 0.06740 -0.15360 -0.81710
v 0.06740 -0.15360 -0.81710
v 0.06384 -0.14643 -0.81710
v 0.06384 -0.14643 -0.81710
f 1 6 5
f 2 7 6
f 3 8 7
f 1 8 4
f 5 10 9
f 6 11 10
f 8 11 7
f 5 12 8
f 9 14 13
f 10 15 14
f 12 15 11
f 9 16 12
f 13 18 17
f 14 19 18
f 16 19 15
f 13 20 16
f 17 22 21
f 18 23 22
f 20 23 19
f 17 24 20
f 21 26 25
f 22 27 26
f 24 27 23
f 21 28 24
f 25 30 29
f 26 31 30
f 28 31 27
f 25 32 28
f 29 34 33
f 30 35 34
f 32 35 31
f 29 36 32
f 33 38 37
f 34 39 38
f 36 39 35
f 33 40 36
f 37 42 41
f 38 43 42
f 40 43 39
f 37 44 40
f 41 46 45
f 42 47 46
f 44 47 43
f 41 48 44
f 45 50 49
f 46 51 50
f 48 51 47
f 45 52 48
f 49 54 53
f 50 55 54
f 52 55 51
f 49 56 52
f 53 58 57
f 54 59 58
f 56 59 55
f 53 60 56
f 57 62 61
f 58 63 62
f 60 63 59
f 57 64 60
f 61 66 65
f 62 67 66
f 64 67 63
f 61 68 64
f 65 70 69
f 66 71 70
f 68 71 67
f 65 72 68
f 69 74 73
f 70 75 74
f 72 75 71
f 69 76 72
f 73 78 77
f 74 79 78
f 76 79 75
f 73 80 76
f 77 82 81
f 78 83 82
f 80 83 79
f 77 84 80
f 81 86 85
f 82 87 86
f 84 87 83
f 81 88 84
f 85 90 89
f 86 91 90
f 88 91 87
f 85 92 88
f 89 94 93
f 90 95 94
f 92 95 91
f 89 96 92
f 93 98 97
f 94 99 98
f 96 99 95
f 93 100 96
f 97 102 101
f 98 103 102
f 100 103 99
f 97 104 100
f 101 106 105
f 102 107 106
f 104 107 103
f 101 108 104
f 105 110 109
f 106 111 110
f 108 111 107
f 105 112 108
f 109 114 113
f 110 115 114
f 112 115 111
f 109 116 112
f 113 118 117
f 114 119 118
f 116 119 115
f 113 120 116
f 117 122 121
f 118 123 122
f 120 123 119
f 117 124 120
f 121 126 125
f 122 127 126
f 124 127 123
f 121 128 124
f 125 130 129
f 126 131 130
f 128 131 127
f 125 132 128
f 129 134 133
f 130 135 134
f 132 135 131
f 129 136 132
f 133 138 137
f 134 139 138
f 136 139 135
f 133 140 136
f 137 142 141
f 138 143 142
f 140 143 139
f 137 144 140
f 141 146 145
f 142 147 146
f 144 147 143
f 141 148 144
f 145 150 149
f 146 151 150
f 148 151 147
f 145 152 148
f 149 154 153
f 150 155 154
f 152 155 151
f 149 156 152
f 153 158 157
f 154 159 158
f 156 159 155
f 153 160 156
f 157 162 161
f 158 163 162
f 160 163 159
f 157 164 160
f 161 166 165
f 162 167 166
f 164 167 163
f 161 168 164
f 165 170 169
f 166 171 170
f 168 171 167
f 165 172 168
f 169 174 173
f 170 175 174
f 172 175 171
f 169 176 172
f 173 178 177
f 174 179 178
f 176 179 175
f 173 180 176
f 177 182 181
f 178 183 182
f 179 184 183
f 177 184 180
f 4 2 1
f 181 183 184
f 1 2 6
f 2 3 7
f 3 4 8
f 1 5 8
f 5 6 10
f 6 7 11
f 8 12 11
f 5 9 12
f 9 10 14
f 10 11 15
f 12 16 15
f 9 13 16
f 13 14 18
f 14 15 19
f 16 20 19
f 13 17 20
f 17 18 22
f 18 19 23
f 20 24 23
f 17 21 24
f 21 22 26
f 22 23 27
f 24 28 27
f 21 25 28
f 25 26 30
f 26 27 31
f 28 32 31
f 25 29 32
f 29 30 34
f 30 31 35
f 32 36 35
f 29 33 36
f 33 34 38
f 34 35 39
f 36 40 39
f 33 37 40
f 37 38 42
f 38 39 43
f 40 44 43
f 37 41 44
f 41 42 46
f 42 43 47
f 44 48 47
f 41 45 48
f 45 46 50
f 46 47 51
f 48 52 51
f 45 49 52
f 49 50 54
f 50 51 55
f 52 56 55
f 49 53 56
f 53 54 58
f 54 55 59
f 56 60 59
f 53 57 60
f 57 58 62
f 58 59 63
f 60 64 63
f 57 61 64
f 61 62 66
f 62 63 67
f 64 68 67
f 61 65 68
f 65 66 70
f 66 67 71
f 68 72 71
f 65 69 72
f 69 70 74
f 70 71 75
f 72 76 75
f 69 73 76
f 73 74 78
f 74 75 79
f 76 80 79
f 73 77 80
f 77 78 82
f 78 79 83
f 80 84 83
f 77 81 84
f 81 82 86
f 82 83 87
f 84 88 87
f 81 85 88
f 85 86 90
f 86 87 91
f 88 92 91
f 85 89 92
f 89 90 94
f 90 91 95
f 92 96 95
f 89 93 96
f 93 94 98
f 94 95 99
f 96 100 99
f 93 97 100
f 97 98 102
f 98 99 103
f 100 104 103
f 97 101 104
f 101 102 106
f 102 103 107
f 104 108 107
f 101 105 108
f 105 106 110
f 106 107 111
f 108 112 111
f 105 109 112
f 109 110 114
f 110 111 115
f 112 116 115
f 109 113 116
f 113 114 118
f 114 115 119
f 116 120 119
f 113 117 120
f 117 118 122
f 118 119 123
f 120 124 123
f 117 121 124
f 121 122 126
f 122 123 127
f 124 128 127
f 121 125 128
f 125 126 130
f 126 127 131
f 128 132 131
f 125 129 132
f 129 130 134
f 130 131 135
f 132 136 135
f 129 133 136
f 133 134 138
f 134 135 139
f 136 140 139
f 133 137 140
f 137 138 142
f 138 139 143
f 140 144 143
f 137 141 144
f 141 142 146
f 142 143 147
f 144 148 147
f 141 145 148
f 145 146 150
f 146 147 151
f 148 152 151
f 145 149 152
f 149 150 154
f 150 151 155
f 152 156 155
f 149 153 156
f 153 154 158
f 154 155 159
f 156 160 159
f 153 157 160
f 157 158 162
f 158 159 163
f 160 164 163
f 157 161 164
f 161 162 166
f 162 163 167
f 164 168 167
f 161 165 168
f 165 166 170
f 166 167 171
f 168 172 171
f 165 169 172
f 169 170 174
f 170 171 175
f 172 176 175
f 169 173 176
f 173 174 178
f 174 175 179
f 176 180 179
f 173 177 180
f 177 178 182
f 178 179 183
f 179 180 184
f 177 181 184
f 4 3 2
f 181 182 183
