# celestial_dragon Energy15_Energy.obj: Roblox cue frame, recentred on its bounding box
v -0.06900 0.30776 1.10691
v -0.06900 0.30776 1.10691
v -0.06638 0.29605 1.10691
v -0.06638 0.29605 1.10691
v -0.03094 0.31387 1.04512
v -0.03094 0.31387 1.08516
v -0.02977 0.30193 1.08516
v -0.02977 0.30193 1.04512
v 0.00758 0.31530 0.99306
v 0.00758 0.31530 1.05368
v 0.00729 0.30330 1.05368
v 0.00729 0.30330 0.99306
v 0.04598 0.31202 0.94301
v 0.04598 0.31202 1.02019
v 0.04424 0.30015 1.02019
v 0.04424 0.30015 0.94301
v 0.08370 0.30408 0.89408
v 0.08370 0.30408 0.98558
v 0.08052 0.29251 0.98558
v 0.08052 0.29251 0.89408
v 0.12018 0.29161 0.84592
v 0.12018 0.29161 0.95019
v 0.11561 0.28051 0.95019
v 0.11561 0.28051 0.84592
v 0.15485 0.27478 0.79835
v 0.15485 0.27478 0.91423
v 0.14897 0.26432 0.91423
v 0.14897 0.26432 0.79835
v 0.18722 0.25385 0.75126
v 0.18722 0.25385 0.87778
v 0.18010 0.24419 0.87778
v 0.18010 0.24419 0.75126
v 0.21680 0.22913 0.70458
v 0.21680 0.22913 0.84092
v 0.20856 0.22041 0.84092
v 0.20856 0.22041 0.70458
v 0.24314 0.20099 0.65826
v 0.24314 0.20099 0.80370
v 0.23390 0.19334 0.80370
v 0.23390 0.19334 0.65826
v 0.26586 0.16985 0.61227
v 0.26586 0.16985 0.76615
v 0.25575 0.16338 0.76615
v 0.25575 0.16338 0.61227
v 0.28461 0.13617 0.56659
v 0.28461 0.13617 0.72829
v 0.27379 0.13099 0.72829
v 0.27379 0.13099 0.56659
v 0.29911 0.10046 0.52119
v 0.29911 0.10046 0.69014
v 0.28774 0.09663 0.69014
v 0.28774 0.09663 0.52119
v 0.30916 0.06324 0.47607
v 0.30916 0.06324 0.65172
v 0.29740 0.06083 0.65172
v 0.29740 0.06083 0.47607
v 0.31459 0.02508 0.43121
v 0.31459 0.02508 0.61304
v 0.30263 0.02412 0.61304
v 0.30263 0.02412 0.43121
v 0.31533 -0.01345 0.38661
v 0.31533 -0.01345 0.57410
v 0.30334 -0.01295 0.57410
v 0.30334 -0.01295 0.38661
v 0.31137 -0.05180 0.34226
v 0.31137 -0.05180 0.53491
v 0.29953 -0.04984 0.53491
v 0.29953 -0.04984 0.34226
v 0.30276 -0.08937 0.29815
v 0.30276 -0.08937 0.49548
v 0.29125 -0.08598 0.49548
v 0.29125 -0.08598 0.29815
v 0.28964 -0.12561 0.25429
v 0.28964 -0.12561 0.45581
v 0.27862 -0.12085 0.45581
v 0.27862 -0.12085 0.25429
v 0.27219 -0.15999 0.21066
v 0.27219 -0.15999 0.41589
v 0.26184 -0.15391 0.41589
v 0.26184 -0.15391 0.21066
v 0.25069 -0.19198 0.16727
v 0.25069 -0.19198 0.37574
v 0.24116 -0.18469 0.37574
v 0.24116 -0.18469 0.16727
v 0.22545 -0.22111 0.12411
v 0.22545 -0.22111 0.33536
v 0.21687 -0.21271 0.33536
v 0.21687 -0.21271 0.12411
v 0.19684 -0.24694 0.08119
v 0.19684 -0.24694 0.29474
v 0.18936 -0.23756 0.29474
v 0.18936 -0.23756 0.08119
v 0.16530 -0.26910 0.03850
v 0.16530 -0.26910 0.25389
v 0.15902 -0.25888 0.25389
v 0.15902 -0.25888 0.03850
v 0.13129 -0.28725 -0.00396
v 0.13129 -0.28725 0.21282
v 0.12630 -0.27634 0.21282
v 0.12630 -0.27634 -0.00396
v 0.09533 -0.30111 -0.04619
v 0.09533 -0.30111 0.17151
v 0.09170 -0.28967 0.17151
v 0.09170 -0.28967 -0.04619
v 0.05794 -0.31049 -0.08820
v 0.05794 -0.31049 0.12997
v 0.05574 -0.29870 0.12997
v 0.05574 -0.29870 -0.08820
v 0.01969 -0.31524 -0.12997
v 0.01969 -0.31524 0.08820
v 0.01894 -0.30327 0.08820
v 0.01894 -0.30327 -0.12997
v -0.01886 -0.31530 -0.17150
v -0.01886 -0.31530 0.04620
v -0.01814 -0.30332 0.04620
v -0.01814 -0.30332 -0.17150
v -0.05712 -0.31065 -0.21282
v -0.05712 -0.31065 0.00396
v -0.05495 -0.29885 0.00396
v -0.05495 -0.29885 -0.21282
v -0.09453 -0.30138 -0.25389
v -0.09453 -0.30138 -0.03850
v -0.09094 -0.28993 -0.03850
v -0.09094 -0.28993 -0.25389
v -0.13054 -0.28761 -0.29474
v -0.13054 -0.28761 -0.08119
v -0.12558 -0.27668 -0.08119
v -0.12558 -0.27668 -0.29474
v -0.16459 -0.26956 -0.33536
v -0.16459 -0.26956 -0.12411
v -0.15834 -0.25932 -0.12411
v -0.15834 -0.25932 -0.33536
v -0.19620 -0.24749 -0.37574
v -0.19620 -0.24749 -0.16727
v -0.18874 -0.23809 -0.16727
v -0.18874 -0.23809 -0.37574
v -0.22487 -0.22173 -0.41589
v -0.22487 -0.22173 -0.21066
v -0.21632 -0.21331 -0.21066
v -0.21632 -0.21331 -0.41589
v -0.25020 -0.19267 -0.45581
v -0.25020 -0.19267 -0.25429
v -0.24068 -0.18535 -0.25429
v -0.24068 -0.18535 -0.45581
v -0.27179 -0.16074 -0.49548
v -0.27179 -0.16074 -0.29815
v -0.26145 -0.15463 -0.29815
v -0.26145 -0.15463 -0.49548
v -0.28933 -0.12641 -0.53491
v -0.28933 -0.12641 -0.34226
v -0.27833 -0.12162 -0.34226
v -0.27833 -0.12162 -0.53491
v -0.30255 -0.09021 -0.57410
v -0.30255 -0.09021 -0.38661
v -0.29105 -0.08679 -0.38661
v -0.29105 -0.08679 -0.57410
v -0.31126 -0.05266 -0.61304
v -0.31126 -0.05266 -0.43121
v -0.29943 -0.05066 -0.43121
v -0.29943 -0.05066 -0.61304
v -0.31533 -0.01433 -0.65172
v -0.31533 -0.01433 -0.47607
v -0.30334 -0.01379 -0.47607
v -0.30334 -0.01379 -0.65172
v -0.31469 0.02421 -0.69014
v -0.31469 0.02421 -0.52119
v -0.30273 0.02328 -0.52119
v -0.30273 0.02328 -0.69014
v -0.30937 0.06239 -0.72829
v -0.30937 0.06239 -0.56659
v -0.29761 0.06001 -0.56659
v -0.29761 0.06001 -0.72829
v -0.29943 0.09963 -0.76615
v -0.29943 0.09963 -0.61227
v -0.28804 0.09583 -0.61227
v -0.28804 0.09583 -0.76615
v -0.28502 0.13538 -0.80370
v -0.28502 0.13538 -0.65826
v -0.27418 0.13023 -0.65826
v -0.27418 0.13023 -0.80370
v -0.26636 0.16911 -0.84092
v -0.26636 0.16911 -0.70458
v -0.25624 0.16267 -0.70458
v -0.25624 0.16267 -0.84092
v -0.24373 0.20032 -0.87778
v -0.24373 0.20032 -0.75126
v -0.23447 0.19269 -0.75126
v -0.23447 0.19269 -0.87778
v -0.21747 0.22853 -0.91423
v -0.21747 0.22853 -0.79835
v -0.20920 0.21983 -0.79835
v -0.20920 0.21983 -0.91423
v -0.18796 0.25333 -0.95019
v -0.18796 0.25333 -0.84592
v -0.18082 0.24369 -0.84592
v -0.18082 0.24369 -0.95019
v -0.15565 0.27435 -0.98558
v -0.15565 0.27435 -0.89408
v -0.14973 0.26391 -0.89408
v -0.14973 0.26391 -0.98558
v -0.12102 0.29127 -1.02019
v -0.12102 0.29127 -0.94301
v -0.11642 0.28019 -0.94301
v -0.11642 0.28019 -1.02019
v -0.08458 0.30385 -1.05368
v -0.08458 0.30385 -0.99306
v -0.08137 0.29229 -0.99306
v -0.08137 0.29229 -1.05368
v -0.04689 0.31189 -1.08516
v -0.04689 0.31189 -1.04512
v -0.04510 0.30002 -1.04512
v -0.04510 0.30002 -1.08516
v -0.00849 0.31528 -1.10691
v -0.00849 0.31528 -1.10691
v -0.00817 0.30328 -1.10691
v -0.00817 0.30328 -1.10691
f 1 6 5
f 3 6 2
f 3 8 7
f 4 5 8
f 5 10 9
f 6 11 10
f 8 11 7
f 8 9 12
f 9 14 13
f 10 15 14
f 12 15 11
f 12 13 16
f 13 18 17
f 15 18 14
f 16 19 15
f 16 17 20
f 17 22 21
f 18 23 22
f 20 23 19
f 20 21 24
f 21 26 25
f 22 27 26
f 24 27 23
f 24 25 28
f 25 30 29
f 26 31 30
f 28 31 27
f 25 32 28
f 29 34 33
f 30 35 34
f 32 35 31
f 32 33 36
f 33 38 37
f 34 39 38
f 36 39 35
f 33 40 36
f 37 42 41
f 39 42 38
f 40 43 39
f 37 44 40
f 41 46 45
f 43 46 42
f 44 47 43
f 44 45 48
f 45 50 49
f 47 50 46
f 48 51 47
f 45 52 48
f 49 54 53
f 50 55 54
f 52 55 51
f 49 56 52
f 53 58 57
f 55 58 54
f 56 59 55
f 53 60 56
f 57 62 61
f 58 63 62
f 60 63 59
f 60 61 64
f 61 66 65
f 62 67 66
f 64 67 63
f 64 65 68
f 65 70 69
f 66 71 70
f 68 71 67
f 65 72 68
f 69 74 73
f 71 74 70
f 72 75 71
f 69 76 72
f 73 78 77
f 75 78 74
f 76 79 75
f 76 77 80
f 77 82 81
f 79 82 78
f 80 83 79
f 77 84 80
f 81 86 85
f 83 86 82
f 84 87 83
f 81 88 84
f 85 90 89
f 86 91 90
f 88 91 87
f 88 89 92
f 89 94 93
f 91 94 90
f 92 95 91
f 92 93 96
f 93 98 97
f 94 99 98
f 96 99 95
f 96 97 100
f 97 102 101
f 99 102 98
f 100 103 99
f 100 101 104
f 101 106 105
f 103 106 102
f 104 107 103
f 104 105 108
f 105 110 109
f 106 111 110
f 108 111 107
f 105 112 108
f 109 114 113
f 111 114 110
f 112 115 111
f 112 113 116
f 113 118 117
f 114 119 118
f 116 119 115
f 113 120 116
f 117 122 121
f 119 122 118
f 120 123 119
f 120 121 124
f 121 126 125
f 123 126 122
f 124 127 123
f 121 128 124
f 125 130 129
f 127 130 126
f 128 131 127
f 128 129 132
f 129 134 133
f 131 134 130
f 132 135 131
f 129 136 132
f 133 138 137
f 134 139 138
f 136 139 135
f 136 137 140
f 137 142 141
f 139 142 138
f 140 143 139
f 137 144 140
f 141 146 145
f 143 146 142
f 144 147 143
f 141 148 144
f 145 150 149
f 147 150 146
f 148 151 147
f 145 152 148
f 149 154 153
f 151 154 150
f 152 155 151
f 152 153 156
f 153 158 157
f 154 159 158
f 156 159 155
f 153 160 156
f 157 162 161
f 159 162 158
f 160 163 159
f 160 161 164
f 161 166 165
f 163 166 162
f 164 167 163
f 161 168 164
f 165 170 169
f 167 170 166
f 168 171 167
f 168 169 172
f 169 174 173
f 171 174 170
f 172 175 171
f 169 176 172
f 173 178 177
f 174 179 178
f 176 179 175
f 176 177 180
f 177 182 181
f 179 182 178
f 180 183 179
f 180 181 184
f 181 186 185
f 182 187 186
f 184 187 183
f 184 185 188
f 185 190 189
f 187 190 186
f 188 191 187
f 188 189 192
f 189 194 193
f 190 195 194
f 192 195 191
f 189 196 192
f 193 198 197
f 194 199 198
f 196 199 195
f 193 200 196
f 197 202 201
f 199 202 198
f 200 203 199
f 200 201 204
f 201 206 205
f 203 206 202
f 204 207 203
f 201 208 204
f 205 210 209
f 207 210 206
f 208 211 207
f 208 209 212
f 209 214 213
f 211 214 210
f 211 216 215
f 212 213 216
f 4 2 1
f 213 215 216
f 1 2 6
f 3 7 6
f 3 4 8
f 4 1 5
f 5 6 10
f 6 7 11
f 8 12 11
f 8 5 9
f 9 10 14
f 10 11 15
f 12 16 15
f 12 9 13
f 13 14 18
f 15 19 18
f 16 20 19
f 16 13 17
f 17 18 22
f 18 19 23
f 20 24 23
f 20 17 21
f 21 22 26
f 22 23 27
f 24 28 27
f 24 21 25
f 25 26 30
f 26 27 31
f 28 32 31
f 25 29 32
f 29 30 34
f 30 31 35
f 32 36 35
f 32 29 33
f 33 34 38
f 34 35 39
f 36 40 39
f 33 37 40
f 37 38 42
f 39 43 42
f 40 44 43
f 37 41 44
f 41 42 46
f 43 47 46
f 44 48 47
f 44 41 45
f 45 46 50
f 47 51 50
f 48 52 51
f 45 49 52
f 49 50 54
f 50 51 55
f 52 56 55
f 49 53 56
f 53 54 58
f 55 59 58
f 56 60 59
f 53 57 60
f 57 58 62
f 58 59 63
f 60 64 63
f 60 57 61
f 61 62 66
f 62 63 67
f 64 68 67
f 64 61 65
f 65 66 70
f 66 67 71
f 68 72 71
f 65 69 72
f 69 70 74
f 71 75 74
f 72 76 75
f 69 73 76
f 73 74 78
f 75 79 78
f 76 80 79
f 76 73 77
f 77 78 82
f 79 83 82
f 80 84 83
f 77 81 84
f 81 82 86
f 83 87 86
f 84 88 87
f 81 85 88
f 85 86 90
f 86 87 91
f 88 92 91
f 88 85 89
f 89 90 94
f 91 95 94
f 92 96 95
f 92 89 93
f 93 94 98
f 94 95 99
f 96 100 99
f 96 93 97
f 97 98 102
f 99 103 102
f 100 104 103
f 100 97 101
f 101 102 106
f 103 107 106
f 104 108 107
f 104 101 105
f 105 106 110
f 106 107 111
f 108 112 111
f 105 109 112
f 109 110 114
f 111 115 114
f 112 116 115
f 112 109 113
f 113 114 118
f 114 115 119
f 116 120 119
f 113 117 120
f 117 118 122
f 119 123 122
f 120 124 123
f 120 117 121
f 121 122 126
f 123 127 126
f 124 128 127
f 121 125 128
f 125 126 130
f 127 131 130
f 128 132 131
f 128 125 129
f 129 130 134
f 131 135 134
f 132 136 135
f 129 133 136
f 133 134 138
f 134 135 139
f 136 140 139
f 136 133 137
f 137 138 142
f 139 143 142
f 140 144 143
f 137 141 144
f 141 142 146
f 143 147 146
f 144 148 147
f 141 145 148
f 145 146 150
f 147 151 150
f 148 152 151
f 145 149 152
f 149 150 154
f 151 155 154
f 152 156 155
f 152 149 153
f 153 154 158
f 154 155 159
f 156 160 159
f 153 157 160
f 157 158 162
f 159 163 162
f 160 164 163
f 160 157 161
f 161 162 166
f 163 167 166
f 164 168 167
f 161 165 168
f 165 166 170
f 167 171 170
f 168 172 171
f 168 165 169
f 169 170 174
f 171 175 174
f 172 176 175
f 169 173 176
f 173 174 178
f 174 175 179
f 176 180 179
f 176 173 177
f 177 178 182
f 179 183 182
f 180 184 183
f 180 177 181
f 181 182 186
f 182 183 187
f 184 188 187
f 184 181 185
f 185 186 190
f 187 191 190
f 188 192 191
f 188 185 189
f 189 190 194
f 190 191 195
f 192 196 195
f 189 193 196
f 193 194 198
f 194 195 199
f 196 200 199
f 193 197 200
f 197 198 202
f 199 203 202
f 200 204 203
f 200 197 201
f 201 202 206
f 203 207 206
f 204 208 207
f 201 205 208
f 205 206 210
f 207 211 210
f 208 212 211
f 208 205 209
f 209 210 214
f 211 215 214
f 211 212 216
f 212 209 213
f 4 3 2
f 213 214 215
