# celestial_dragon Energy3_Energy.obj: Roblox cue frame, recentred on its bounding box
v -0.26159 -0.04210 1.10254
v -0.26159 -0.04210 1.10254
v -0.24974 -0.04018 1.10254
v -0.24974 -0.04018 1.10254
v -0.25537 -0.07047 1.03986
v -0.25537 -0.07047 1.08041
v -0.24381 -0.06726 1.08041
v -0.24381 -0.06726 1.03986
v -0.24606 -0.09798 0.98704
v -0.24606 -0.09798 1.04842
v -0.23492 -0.09352 1.04842
v -0.23492 -0.09352 0.98704
v -0.23378 -0.12430 0.93625
v -0.23378 -0.12430 1.01440
v -0.22320 -0.11864 1.01440
v -0.22320 -0.11864 0.93625
v -0.21868 -0.14911 0.88660
v -0.21868 -0.14911 0.97924
v -0.20879 -0.14231 0.97924
v -0.20879 -0.14231 0.88660
v -0.20093 -0.17210 0.83773
v -0.20093 -0.17210 0.94329
v -0.19185 -0.16426 0.94329
v -0.19185 -0.16426 0.83773
v -0.18076 -0.19300 0.78946
v -0.18076 -0.19300 0.90675
v -0.17260 -0.18420 0.90675
v -0.17260 -0.18420 0.78946
v -0.15841 -0.21155 0.74168
v -0.15841 -0.21155 0.86972
v -0.15127 -0.20191 0.86972
v -0.15127 -0.20191 0.74168
v -0.13416 -0.22753 0.69432
v -0.13416 -0.22753 0.83227
v -0.12812 -0.21715 0.83227
v -0.12812 -0.21715 0.69432
v -0.10829 -0.24073 0.64733
v -0.10829 -0.24073 0.79445
v -0.10343 -0.22976 0.79445
v -0.10343 -0.22976 0.64733
v -0.08113 -0.25101 0.60068
v -0.08113 -0.25101 0.75629
v -0.07751 -0.23957 0.75629
v -0.07751 -0.23957 0.60068
v -0.05299 -0.25823 0.55434
v -0.05299 -0.25823 0.71782
v -0.05066 -0.24646 0.71782
v -0.05066 -0.24646 0.55434
v -0.02424 -0.26231 0.50830
v -0.02424 -0.26231 0.67905
v -0.02321 -0.25035 0.67905
v -0.02321 -0.25035 0.50830
v 0.00479 -0.26320 0.46254
v 0.00479 -0.26320 0.64000
v 0.00450 -0.25120 0.64000
v 0.00450 -0.25120 0.46254
v 0.03374 -0.26088 0.41705
v 0.03374 -0.26088 0.60068
v 0.03213 -0.24899 0.60068
v 0.03213 -0.24899 0.41705
v 0.06226 -0.25539 0.37183
v 0.06226 -0.25539 0.56109
v 0.05935 -0.24375 0.56109
v 0.05935 -0.24375 0.37183
v 0.09000 -0.24679 0.32687
v 0.09000 -0.24679 0.52124
v 0.08582 -0.23554 0.52124
v 0.08582 -0.23554 0.32687
v 0.11663 -0.23519 0.28215
v 0.11663 -0.23519 0.48114
v 0.11124 -0.22447 0.48114
v 0.11124 -0.22447 0.28215
v 0.14182 -0.22072 0.23769
v 0.14182 -0.22072 0.44079
v 0.13527 -0.21066 0.44079
v 0.13527 -0.21066 0.23769
v 0.16526 -0.20357 0.19348
v 0.16526 -0.20357 0.40020
v 0.15765 -0.19430 0.40020
v 0.15765 -0.19430 0.19348
v 0.18666 -0.18395 0.14951
v 0.18666 -0.18395 0.35936
v 0.17808 -0.17556 0.35936
v 0.17808 -0.17556 0.14951
v 0.20578 -0.16208 0.10578
v 0.20578 -0.16208 0.31827
v 0.19632 -0.15469 0.31827
v 0.19632 -0.15469 0.10578
v 0.22237 -0.13824 0.06230
v 0.22237 -0.13824 0.27695
v 0.21216 -0.13194 0.27695
v 0.21216 -0.13194 0.06230
v 0.23623 -0.11272 0.01905
v 0.23623 -0.11272 0.23538
v 0.22539 -0.10758 0.23538
v 0.22539 -0.10758 0.01905
v 0.24720 -0.08583 -0.02395
v 0.24720 -0.08583 0.19357
v 0.23586 -0.08192 0.19357
v 0.23586 -0.08192 -0.02395
v 0.25514 -0.05789 -0.06671
v 0.25514 -0.05789 0.15153
v 0.24344 -0.05525 0.15153
v 0.24344 -0.05525 -0.06671
v 0.25996 -0.02925 -0.10924
v 0.25996 -0.02925 0.10924
v 0.24803 -0.02792 0.10924
v 0.24803 -0.02792 -0.10924
v 0.26159 -0.00025 -0.15153
v 0.26159 -0.00025 0.06671
v 0.24959 -0.00024 0.06671
v 0.24959 -0.00024 -0.15153
v 0.26001 0.02875 -0.19357
v 0.26001 0.02875 0.02395
v 0.24809 0.02744 0.02395
v 0.24809 0.02744 -0.19357
v 0.25526 0.05740 -0.23538
v 0.25526 0.05740 -0.01905
v 0.24354 0.05478 -0.01905
v 0.24354 0.05478 -0.23538
v 0.24737 0.08535 -0.27695
v 0.24737 0.08535 -0.06230
v 0.23602 0.08146 -0.06230
v 0.23602 0.08146 -0.27695
v 0.23645 0.11227 -0.31827
v 0.23645 0.11227 -0.10578
v 0.22560 0.10715 -0.10578
v 0.22560 0.10715 -0.31827
v 0.22264 0.13782 -0.35936
v 0.22264 0.13782 -0.14951
v 0.21242 0.13153 -0.14951
v 0.21242 0.13153 -0.35936
v 0.20610 0.16169 -0.40020
v 0.20610 0.16169 -0.19348
v 0.19663 0.15432 -0.19348
v 0.19663 0.15432 -0.40020
v 0.18702 0.18359 -0.44079
v 0.18702 0.18359 -0.23769
v 0.17842 0.17522 -0.23769
v 0.17842 0.17522 -0.44079
v 0.16565 0.20326 -0.48114
v 0.16565 0.20326 -0.28215
v 0.15803 0.19400 -0.28215
v 0.15803 0.19400 -0.48114
v 0.14225 0.22046 -0.52124
v 0.14225 0.22046 -0.32687
v 0.13569 0.21041 -0.32687
v 0.13569 0.21041 -0.52124
v 0.11709 0.23497 -0.56109
v 0.11709 0.23497 -0.37183
v 0.11168 0.22426 -0.37183
v 0.11168 0.22426 -0.56109
v 0.09049 0.24662 -0.60068
v 0.09049 0.24662 -0.41705
v 0.08629 0.23538 -0.41705
v 0.08629 0.23538 -0.60068
v 0.06276 0.25528 -0.64000
v 0.06276 0.25528 -0.46254
v 0.05983 0.24364 -0.46254
v 0.05983 0.24364 -0.64000
v 0.03425 0.26082 -0.67905
v 0.03425 0.26082 -0.50830
v 0.03262 0.24894 -0.50830
v 0.03262 0.24894 -0.67905
v 0.00531 0.26320 -0.71782
v 0.00531 0.26320 -0.55434
v 0.00499 0.25120 -0.55434
v 0.00499 0.25120 -0.71782
v -0.02372 0.26237 -0.75629
v -0.02372 0.26237 -0.60068
v -0.02272 0.25041 -0.60068
v -0.02272 0.25041 -0.75629
v -0.05249 0.25834 -0.79445
v -0.05249 0.25834 -0.64733
v -0.05017 0.24657 -0.64733
v -0.05017 0.24657 -0.79445
v -0.08063 0.25118 -0.83227
v -0.08063 0.25118 -0.69432
v -0.07704 0.23973 -0.69432
v -0.07704 0.23973 -0.83227
v -0.10782 0.24095 -0.86972
v -0.10782 0.24095 -0.74168
v -0.10298 0.22997 -0.74168
v -0.10298 0.22997 -0.86972
v -0.13371 0.22780 -0.90675
v -0.13371 0.22780 -0.78946
v -0.12769 0.21742 -0.78946
v -0.12769 0.21742 -0.90675
v -0.15800 0.21187 -0.94329
v -0.15800 0.21187 -0.83773
v -0.15087 0.20221 -0.83773
v -0.15087 0.20221 -0.94329
v -0.18038 0.19337 -0.97924
v -0.18038 0.19337 -0.88660
v -0.17224 0.18455 -0.88660
v -0.17224 0.18455 -0.97924
v -0.20059 0.17251 -1.01440
v -0.20059 0.17251 -0.93625
v -0.19153 0.16465 -0.93625
v -0.19153 0.16465 -1.01440
v -0.21838 0.14955 -1.04842
v -0.21838 0.14955 -0.98704
v -0.20851 0.14273 -0.98704
v -0.20851 0.14273 -1.04842
v -0.23354 0.12477 -1.08041
v -0.23354 0.12477 -1.03986
v -0.22297 0.11909 -1.03986
v -0.22297 0.11909 -1.08041
v -0.24587 0.09848 -1.10254
v -0.24587 0.09848 -1.10254
v -0.23474 0.09399 -1.10254
v -0.23474 0.09399 -1.10254
f 1 6 5
f 3 6 2
f 3 8 7
f 1 8 4
f 5 10 9
f 7 10 6
f 8 11 7
f 5 12 8
f 9 14 13
f 10 15 14
f 12 15 11
f 9 16 12
f 13 18 17
f 14 19 18
f 16 19 15
f 16 17 20
f 17 22 21
f 19 22 18
f 20 23 19
f 20 21 24
f 21 26 25
f 23 26 22
f 24 27 23
f 24 25 28
f 25 30 29
f 26 31 30
f 28 31 27
f 28 29 32
f 29 34 33
f 30 35 34
f 32 35 31
f 32 33 36
f 33 38 37
f 34 39 38
f 36 39 35
f 36 37 40
f 37 42 41
f 39 42 38
f 40 43 39
f 37 44 40
f 41 46 45
f 43 46 42
f 44 47 43
f 41 48 44
f 45 50 49
f 47 50 46
f 48 51 47
f 48 49 52
f 49 54 53
f 51 54 50
f 52 55 51
f 52 53 56
f 53 58 57
f 55 58 54
f 56 59 55
f 56 57 60
f 57 62 61
f 58 63 62
f 60 63 59
f 60 61 64
f 61 66 65
f 63 66 62
f 64 67 63
f 64 65 68
f 65 70 69
f 67 70 66
f 68 71 67
f 68 69 72
f 69 74 73
f 70 75 74
f 72 75 71
f 72 73 76
f 73 78 77
f 74 79 78
f 76 79 75
f 73 80 76
f 77 82 81
f 79 82 78
f 80 83 79
f 80 81 84
f 81 86 85
f 83 86 82
f 84 87 83
f 81 88 84
f 85 90 89
f 87 90 86
f 88 91 87
f 88 89 92
f 89 94 93
f 90 95 94
f 92 95 91
f 92 93 96
f 93 98 97
f 95 98 94
f 96 99 95
f 93 100 96
f 97 102 101
f 99 102 98
f 100 103 99
f 97 104 100
f 101 106 105
f 103 106 102
f 104 107 103
f 101 108 104
f 105 110 109
f 106 111 110
f 108 111 107
f 108 109 112
f 109 114 113
f 110 115 114
f 112 115 111
f 112 113 116
f 113 118 117
f 114 119 118
f 116 119 115
f 116 117 120
f 117 122 121
f 118 123 122
f 120 123 119
f 117 124 120
f 121 126 125
f 123 126 122
f 124 127 123
f 124 125 128
f 125 130 129
f 127 130 126
f 128 131 127
f 128 129 132
f 129 134 133
f 130 135 134
f 132 135 131
f 129 136 132
f 133 138 137
f 135 138 134
f 136 139 135
f 136 137 140
f 137 142 141
f 139 142 138
f 140 143 139
f 137 144 140
f 141 146 145
f 143 146 142
f 144 147 143
f 141 148 144
f 145 150 149
f 146 151 150
f 148 151 147
f 148 149 152
f 149 154 153
f 150 155 154
f 152 155 151
f 152 153 156
f 153 158 157
f 154 159 158
f 156 159 155
f 156 157 160
f 157 162 161
f 159 162 158
f 160 163 159
f 160 161 164
f 161 166 165
f 162 167 166
f 164 167 163
f 164 165 168
f 165 170 169
f 167 170 166
f 168 171 167
f 165 172 168
f 169 174 173
f 170 175 174
f 172 175 171
f 169 176 172
f 173 178 177
f 175 178 174
f 176 179 175
f 176 177 180
f 177 182 181
f 178 183 182
f 180 183 179
f 177 184 180
f 181 186 185
f 182 187 186
f 184 187 183
f 181 188 184
f 185 190 189
f 187 190 186
f 188 191 187
f 185 192 188
f 189 194 193
f 190 195 194
f 192 195 191
f 189 196 192
f 193 198 197
f 195 198 194
f 196 199 195
f 196 197 200
f 197 202 201
f 199 202 198
f 200 203 199
f 197 204 200
f 201 206 205
f 203 206 202
f 204 207 203
f 204 205 208
f 205 210 209
f 207 210 206
f 207 212 211
f 205 212 208
f 4 2 1
f 209 211 212
f 1 2 6
f 3 7 6
f 3 4 8
f 1 5 8
f 5 6 10
f 7 11 10
f 8 12 11
f 5 9 12
f 9 10 14
f 10 11 15
f 12 16 15
f 9 13 16
f 13 14 18
f 14 15 19
f 16 20 19
f 16 13 17
f 17 18 22
f 19 23 22
f 20 24 23
f 20 17 21
f 21 22 26
f 23 27 26
f 24 28 27
f 24 21 25
f 25 26 30
f 26 27 31
f 28 32 31
f 28 25 29
f 29 30 34
f 30 31 35
f 32 36 35
f 32 29 33
f 33 34 38
f 34 35 39
f 36 40 39
f 36 33 37
f 37 38 42
f 39 43 42
f 40 44 43
f 37 41 44
f 41 42 46
f 43 47 46
f 44 48 47
f 41 45 48
f 45 46 50
f 47 51 50
f 48 52 51
f 48 45 49
f 49 50 54
f 51 55 54
f 52 56 55
f 52 49 53
f 53 54 58
f 55 59 58
f 56 60 59
f 56 53 57
f 57 58 62
f 58 59 63
f 60 64 63
f 60 57 61
f 61 62 66
f 63 67 66
f 64 68 67
f 64 61 65
f 65 66 70
f 67 71 70
f 68 72 71
f 68 65 69
f 69 70 74
f 70 71 75
f 72 76 75
f 72 69 73
f 73 74 78
f 74 75 79
f 76 80 79
f 73 77 80
f 77 78 82
f 79 83 82
f 80 84 83
f 80 77 81
f 81 82 86
f 83 87 86
f 84 88 87
f 81 85 88
f 85 86 90
f 87 91 90
f 88 92 91
f 88 85 89
f 89 90 94
f 90 91 95
f 92 96 95
f 92 89 93
f 93 94 98
f 95 99 98
f 96 100 99
f 93 97 100
f 97 98 102
f 99 103 102
f 100 104 103
f 97 101 104
f 101 102 106
f 103 107 106
f 104 108 107
f 101 105 108
f 105 106 110
f 106 107 111
f 108 112 111
f 108 105 109
f 109 110 114
f 110 111 115
f 112 116 115
f 112 109 113
f 113 114 118
f 114 115 119
f 116 120 119
f 116 113 117
f 117 118 122
f 118 119 123
f 120 124 123
f 117 121 124
f 121 122 126
f 123 127 126
f 124 128 127
f 124 121 125
f 125 126 130
f 127 131 130
f 128 132 131
f 128 125 129
f 129 130 134
f 130 131 135
f 132 136 135
f 129 133 136
f 133 134 138
f 135 139 138
f 136 140 139
f 136 133 137
f 137 138 142
f 139 143 142
f 140 144 143
f 137 141 144
f 141 142 146
f 143 147 146
f 144 148 147
f 141 145 148
f 145 146 150
f 146 147 151
f 148 152 151
f 148 145 149
f 149 150 154
f 150 151 155
f 152 156 155
f 152 149 153
f 153 154 158
f 154 155 159
f 156 160 159
f 156 153 157
f 157 158 162
f 159 163 162
f 160 164 163
f 160 157 161
f 161 162 166
f 162 163 167
f 164 168 167
f 164 161 165
f 165 166 170
f 167 171 170
f 168 172 171
f 165 169 172
f 169 170 174
f 170 171 175
f 172 176 175
f 169 173 176
f 173 174 178
f 175 179 178
f 176 180 179
f 176 173 177
f 177 178 182
f 178 179 183
f 180 184 183
f 177 181 184
f 181 182 186
f 182 183 187
f 184 188 187
f 181 185 188
f 185 186 190
f 187 191 190
f 188 192 191
f 185 189 192
f 189 190 194
f 190 191 195
f 192 196 195
f 189 193 196
f 193 194 198
f 195 199 198
f 196 200 199
f 196 193 197
f 197 198 202
f 199 203 202
f 200 204 203
f 197 201 204
f 201 202 206
f 203 207 206
f 204 208 207
f 204 201 205
f 205 206 210
f 207 211 210
f 207 208 212
f 205 209 212
f 4 3 2
f 209 210 211
