# celestial_dragon Energy26_EnergyPale.obj: Roblox cue frame, recentred on its bounding box
v 0.19127 -0.17469 0.81486
v 0.19127 -0.17469 0.81486
v 0.18536 -0.16930 0.81486
v 0.18536 -0.16930 0.81486
v 0.21971 -0.13721 0.77221
v 0.21971 -0.13721 0.78493
v 0.21292 -0.13297 0.78493
v 0.21292 -0.13297 0.77221
v 0.24091 -0.09521 0.73266
v 0.24091 -0.09521 0.75190
v 0.23347 -0.09227 0.75190
v 0.23347 -0.09227 0.73266
v 0.25417 -0.05007 0.69376
v 0.25417 -0.05007 0.71824
v 0.24632 -0.04852 0.71824
v 0.24632 -0.04852 0.69376
v 0.25906 -0.00327 0.65522
v 0.25906 -0.00327 0.68421
v 0.25106 -0.00316 0.68421
v 0.25106 -0.00316 0.65522
v 0.25541 0.04364 0.61693
v 0.25541 0.04364 0.64993
v 0.24753 0.04230 0.64993
v 0.24753 0.04230 0.61693
v 0.24335 0.08911 0.57883
v 0.24335 0.08911 0.61545
v 0.23584 0.08637 0.61545
v 0.23584 0.08637 0.57883
v 0.22327 0.13167 0.54090
v 0.22327 0.13167 0.58081
v 0.21638 0.12761 0.58081
v 0.21638 0.12761 0.54090
v 0.19584 0.16989 0.50311
v 0.19584 0.16989 0.54603
v 0.18979 0.16465 0.54603
v 0.18979 0.16465 0.50311
v 0.16195 0.20253 0.46545
v 0.16195 0.20253 0.51112
v 0.15695 0.19628 0.51112
v 0.15695 0.19628 0.46545
v 0.12272 0.22850 0.42791
v 0.12272 0.22850 0.47609
v 0.11893 0.22146 0.47609
v 0.11893 0.22146 0.42791
v 0.07945 0.24697 0.39047
v 0.07945 0.24697 0.44095
v 0.07699 0.23936 0.44095
v 0.07699 0.23936 0.39047
v 0.03355 0.25731 0.35314
v 0.03355 0.25731 0.40571
v 0.03251 0.24938 0.40571
v 0.03251 0.24938 0.35314
v -0.01346 0.25919 0.31592
v -0.01346 0.25919 0.37037
v -0.01306 0.25120 0.37037
v -0.01306 0.25120 0.31592
v -0.06004 0.25255 0.27879
v -0.06004 0.25255 0.33492
v -0.05820 0.24476 0.33492
v -0.05820 0.24476 0.27879
v -0.10465 0.23760 0.24176
v -0.10465 0.23760 0.29938
v -0.10143 0.23027 0.29938
v -0.10143 0.23027 0.24176
v -0.14583 0.21483 0.20482
v -0.14583 0.21483 0.26375
v -0.14134 0.20821 0.26375
v -0.14134 0.20821 0.20482
v -0.18221 0.18501 0.16798
v -0.18221 0.18501 0.22801
v -0.17660 0.17930 0.22801
v -0.17660 0.17930 0.16798
v -0.21261 0.14910 0.13124
v -0.21261 0.14910 0.19219
v -0.20606 0.14450 0.19219
v -0.20606 0.14450 0.13124
v -0.23602 0.10828 0.09458
v -0.23602 0.10828 0.15627
v -0.22875 0.10495 0.15627
v -0.22875 0.10495 0.09458
v -0.25168 0.06392 0.05802
v -0.25168 0.06392 0.12026
v -0.24392 0.06195 0.12026
v -0.24392 0.06195 0.05802
v -0.25906 0.01745 0.02155
v -0.25906 0.01745 0.08416
v -0.25108 0.01692 0.08416
v -0.25108 0.01692 0.02155
v -0.25792 -0.02959 -0.01483
v -0.25792 -0.02959 0.04797
v -0.24998 -0.02867 0.04797
v -0.24998 -0.02867 -0.01483
v -0.24831 -0.07564 -0.05111
v -0.24831 -0.07564 0.01168
v -0.24066 -0.07331 0.01168
v -0.24066 -0.07331 -0.05111
v -0.23053 -0.11921 -0.08731
v -0.23053 -0.11921 -0.02470
v -0.22343 -0.11552 -0.02470
v -0.22343 -0.11552 -0.08731
v -0.20518 -0.15884 -0.12341
v -0.20518 -0.15884 -0.06117
v -0.19886 -0.15393 -0.06117
v -0.19886 -0.15393 -0.12341
v -0.17308 -0.19324 -0.15942
v -0.17308 -0.19324 -0.09773
v -0.16775 -0.18727 -0.09773
v -0.16775 -0.18727 -0.15942
v -0.13529 -0.22128 -0.19534
v -0.13529 -0.22128 -0.13438
v -0.13113 -0.21444 -0.13438
v -0.13113 -0.21444 -0.19534
v -0.09307 -0.24202 -0.23116
v -0.09307 -0.24202 -0.17113
v -0.09020 -0.23455 -0.17113
v -0.09020 -0.23455 -0.23116
v -0.04779 -0.25480 -0.26689
v -0.04779 -0.25480 -0.20797
v -0.04632 -0.24694 -0.20797
v -0.04632 -0.24694 -0.26689
v -0.00094 -0.25919 -0.30253
v -0.00094 -0.25919 -0.24490
v -0.00092 -0.25119 -0.24490
v -0.00092 -0.25119 -0.30253
v 0.04592 -0.25504 -0.33807
v 0.04592 -0.25504 -0.28194
v 0.04450 -0.24717 -0.28194
v 0.04450 -0.24717 -0.33807
v 0.09127 -0.24250 -0.37351
v 0.09127 -0.24250 -0.31906
v 0.08845 -0.23501 -0.31906
v 0.08845 -0.23501 -0.37351
v 0.13360 -0.22196 -0.40886
v 0.13360 -0.22196 -0.35629
v 0.12947 -0.21511 -0.35629
v 0.12947 -0.21511 -0.40886
v 0.17153 -0.19412 -0.44410
v 0.17153 -0.19412 -0.39362
v 0.16623 -0.18813 -0.39362
v 0.16623 -0.18813 -0.44410
v 0.20380 -0.15989 -0.47924
v 0.20380 -0.15989 -0.43105
v 0.19751 -0.15495 -0.43105
v 0.19751 -0.15495 -0.47924
v 0.22936 -0.12038 -0.51426
v 0.22936 -0.12038 -0.46860
v 0.22228 -0.11667 -0.46860
v 0.22228 -0.11667 -0.51426
v 0.24736 -0.07691 -0.54917
v 0.24736 -0.07691 -0.50626
v 0.23972 -0.07454 -0.50626
v 0.23972 -0.07454 -0.54917
v 0.25721 -0.03091 -0.58396
v 0.25721 -0.03091 -0.54405
v 0.24927 -0.02995 -0.54405
v 0.24927 -0.02995 -0.58396
v 0.25859 0.01612 -0.61860
v 0.25859 0.01612 -0.58198
v 0.25061 0.01563 -0.58198
v 0.25061 0.01563 -0.61860
v 0.25145 0.06263 -0.65307
v 0.25145 0.06263 -0.62007
v 0.24368 0.06070 -0.62007
v 0.24368 0.06070 -0.65307
v 0.23602 0.10707 -0.68736
v 0.23602 0.10707 -0.65836
v 0.22873 0.10378 -0.65836
v 0.22873 0.10378 -0.68736
v 0.21302 0.14814 -0.69719
v 0.21168 0.14721 -0.72161
v 0.20512 0.14266 -0.72108
v 0.20646 0.14359 -0.69665
v 0.18004 0.18149 -0.73646
v 0.17723 0.17866 -0.75528
v 0.17171 0.17311 -0.75363
v 0.17452 0.17594 -0.73480
v 0.13867 0.20285 -0.77529
v 0.13620 0.19924 -0.78723
v 0.13195 0.19305 -0.78448
v 0.13442 0.19665 -0.77254
v 0.09274 0.20884 -0.81486
v 0.09274 0.20884 -0.81486
v 0.08987 0.20241 -0.81107
v 0.08987 0.20241 -0.81107
f 1 6 5
f 3 6 2
f 3 8 7
f 1 8 4
f 5 10 9
f 7 10 6
f 8 11 7
f 5 12 8
f 9 14 13
f 10 15 14
f 12 15 11
f 9 16 12
f 13 18 17
f 14 19 18
f 16 19 15
f 16 17 20
f 17 22 21
f 18 23 22
f 20 23 19
f 20 21 24
f 21 26 25
f 22 27 26
f 24 27 23
f 21 28 24
f 25 30 29
f 27 30 26
f 28 31 27
f 25 32 28
f 29 34 33
f 31 34 30
f 32 35 31
f 32 33 36
f 33 38 37
f 34 39 38
f 36 39 35
f 36 37 40
f 37 42 41
f 39 42 38
f 40 43 39
f 37 44 40
f 41 46 45
f 42 47 46
f 44 47 43
f 44 45 48
f 45 50 49
f 47 50 46
f 48 51 47
f 45 52 48
f 49 54 53
f 51 54 50
f 52 55 51
f 49 56 52
f 53 58 57
f 54 59 58
f 56 59 55
f 56 57 60
f 57 62 61
f 59 62 58
f 60 63 59
f 57 64 60
f 61 66 65
f 62 67 66
f 64 67 63
f 61 68 64
f 65 70 69
f 66 71 70
f 68 71 67
f 65 72 68
f 69 74 73
f 71 74 70
f 72 75 71
f 69 76 72
f 73 78 77
f 75 78 74
f 76 79 75
f 73 80 76
f 77 82 81
f 79 82 78
f 80 83 79
f 80 81 84
f 81 86 85
f 82 87 86
f 84 87 83
f 84 85 88
f 85 90 89
f 86 91 90
f 88 91 87
f 85 92 88
f 89 94 93
f 91 94 90
f 92 95 91
f 92 93 96
f 93 98 97
f 94 99 98
f 96 99 95
f 96 97 100
f 97 102 101
f 98 103 102
f 100 103 99
f 100 101 104
f 101 106 105
f 102 107 106
f 104 107 103
f 104 105 108
f 105 110 109
f 106 111 110
f 108 111 107
f 105 112 108
f 109 114 113
f 111 114 110
f 112 115 111
f 109 116 112
f 113 118 117
f 115 118 114
f 116 119 115
f 116 117 120
f 117 122 121
f 119 122 118
f 120 123 119
f 120 121 124
f 121 126 125
f 123 126 122
f 124 127 123
f 121 128 124
f 125 130 129
f 127 130 126
f 128 131 127
f 125 132 128
f 129 134 133
f 131 134 130
f 132 135 131
f 129 136 132
f 133 138 137
f 135 138 134
f 136 139 135
f 136 137 140
f 137 142 141
f 138 143 142
f 140 143 139
f 137 144 140
f 141 146 145
f 142 147 146
f 144 147 143
f 141 148 144
f 145 150 149
f 147 150 146
f 148 151 147
f 145 152 148
f 149 154 153
f 150 155 154
f 152 155 151
f 149 156 152
f 153 158 157
f 155 158 154
f 156 159 155
f 156 157 160
f 157 162 161
f 159 162 158
f 160 163 159
f 160 161 164
f 161 166 165
f 163 166 162
f 164 167 163
f 161 168 164
f 165 170 169
f 166 171 170
f 167 172 171
f 165 172 168
f 170 173 169
f 171 174 170
f 171 176 175
f 169 176 172
f 174 177 173
f 175 178 174
f 175 180 179
f 173 180 176
f 177 182 181
f 179 182 178
f 179 184 183
f 177 184 180
f 4 2 1
f 181 183 184
f 1 2 6
f 3 7 6
f 3 4 8
f 1 5 8
f 5 6 10
f 7 11 10
f 8 12 11
f 5 9 12
f 9 10 14
f 10 11 15
f 12 16 15
f 9 13 16
f 13 14 18
f 14 15 19
f 16 20 19
f 16 13 17
f 17 18 22
f 18 19 23
f 20 24 23
f 20 17 21
f 21 22 26
f 22 23 27
f 24 28 27
f 21 25 28
f 25 26 30
f 27 31 30
f 28 32 31
f 25 29 32
f 29 30 34
f 31 35 34
f 32 36 35
f 32 29 33
f 33 34 38
f 34 35 39
f 36 40 39
f 36 33 37
f 37 38 42
f 39 43 42
f 40 44 43
f 37 41 44
f 41 42 46
f 42 43 47
f 44 48 47
f 44 41 45
f 45 46 50
f 47 51 50
f 48 52 51
f 45 49 52
f 49 50 54
f 51 55 54
f 52 56 55
f 49 53 56
f 53 54 58
f 54 55 59
f 56 60 59
f 56 53 57
f 57 58 62
f 59 63 62
f 60 64 63
f 57 61 64
f 61 62 66
f 62 63 67
f 64 68 67
f 61 65 68
f 65 66 70
f 66 67 71
f 68 72 71
f 65 69 72
f 69 70 74
f 71 75 74
f 72 76 75
f 69 73 76
f 73 74 78
f 75 79 78
f 76 80 79
f 73 77 80
f 77 78 82
f 79 83 82
f 80 84 83
f 80 77 81
f 81 82 86
f 82 83 87
f 84 88 87
f 84 81 85
f 85 86 90
f 86 87 91
f 88 92 91
f 85 89 92
f 89 90 94
f 91 95 94
f 92 96 95
f 92 89 93
f 93 94 98
f 94 95 99
f 96 100 99
f 96 93 97
f 97 98 102
f 98 99 103
f 100 104 103
f 100 97 101
f 101 102 106
f 102 103 107
f 104 108 107
f 104 101 105
f 105 106 110
f 106 107 111
f 108 112 111
f 105 109 112
f 109 110 114
f 111 115 114
f 112 116 115
f 109 113 116
f 113 114 118
f 115 119 118
f 116 120 119
f 116 113 117
f 117 118 122
f 119 123 122
f 120 124 123
f 120 117 121
f 121 122 126
f 123 127 126
f 124 128 127
f 121 125 128
f 125 126 130
f 127 131 130
f 128 132 131
f 125 129 132
f 129 130 134
f 131 135 134
f 132 136 135
f 129 133 136
f 133 134 138
f 135 139 138
f 136 140 139
f 136 133 137
f 137 138 142
f 138 139 143
f 140 144 143
f 137 141 144
f 141 142 146
f 142 143 147
f 144 148 147
f 141 145 148
f 145 146 150
f 147 151 150
f 148 152 151
f 145 149 152
f 149 150 154
f 150 151 155
f 152 156 155
f 149 153 156
f 153 154 158
f 155 159 158
f 156 160 159
f 156 153 157
f 157 158 162
f 159 163 162
f 160 164 163
f 160 157 161
f 161 162 166
f 163 167 166
f 164 168 167
f 161 165 168
f 165 166 170
f 166 167 171
f 167 168 172
f 165 169 172
f 170 174 173
f 171 175 174
f 171 172 176
f 169 173 176
f 174 178 177
f 175 179 178
f 175 176 180
f 173 177 180
f 177 178 182
f 179 183 182
f 179 180 184
f 177 181 184
f 4 3 2
f 181 182 183
