# celestial_dragon Energy18_EnergyPale.obj: Roblox cue frame, recentred on its bounding box
v 0.21611 0.06299 0.82511
v 0.21611 0.06299 0.82511
v 0.20837 0.06098 0.82511
v 0.20837 0.06098 0.82511
v 0.22388 0.02349 0.78211
v 0.22388 0.02349 0.79635
v 0.21590 0.02286 0.79635
v 0.21590 0.02286 0.78211
v 0.22462 -0.01697 0.74258
v 0.22462 -0.01697 0.76413
v 0.21666 -0.01619 0.76413
v 0.21666 -0.01619 0.74258
v 0.21825 -0.05713 0.70377
v 0.21825 -0.05713 0.73119
v 0.21055 -0.05497 0.73119
v 0.21055 -0.05497 0.70377
v 0.20490 -0.09575 0.66537
v 0.20490 -0.09575 0.69785
v 0.19769 -0.09228 0.69785
v 0.19769 -0.09228 0.66537
v 0.18461 -0.13140 0.62724
v 0.18461 -0.13140 0.66423
v 0.17812 -0.12672 0.66423
v 0.17812 -0.12672 0.62724
v 0.15819 -0.16294 0.58934
v 0.15819 -0.16294 0.63038
v 0.15262 -0.15720 0.63038
v 0.15262 -0.15720 0.58934
v 0.12659 -0.18945 0.55161
v 0.12659 -0.18945 0.59636
v 0.12210 -0.18282 0.59636
v 0.12210 -0.18282 0.55161
v 0.09076 -0.21008 0.51405
v 0.09076 -0.21008 0.56218
v 0.08749 -0.20278 0.56218
v 0.08749 -0.20278 0.51405
v 0.05177 -0.22417 0.47662
v 0.05177 -0.22417 0.52786
v 0.04983 -0.21641 0.52786
v 0.04983 -0.21641 0.47662
v 0.01081 -0.23126 0.43932
v 0.01081 -0.23126 0.49341
v 0.01026 -0.22328 0.49341
v 0.01026 -0.22328 0.43932
v -0.03086 -0.23108 0.40214
v -0.03086 -0.23108 0.45884
v -0.03001 -0.22313 0.45884
v -0.03001 -0.22313 0.40214
v -0.07196 -0.22361 0.36508
v -0.07196 -0.22361 0.42415
v -0.06974 -0.21592 0.42415
v -0.06974 -0.21592 0.36508
v -0.11123 -0.20903 0.32813
v -0.11123 -0.20903 0.38935
v -0.10769 -0.20185 0.38935
v -0.10769 -0.20185 0.32813
v -0.14743 -0.18777 0.29129
v -0.14743 -0.18777 0.35444
v -0.14270 -0.18132 0.35444
v -0.14270 -0.18132 0.29129
v -0.17945 -0.16044 0.25456
v -0.17945 -0.16044 0.31943
v -0.17366 -0.15491 0.31943
v -0.17366 -0.15491 0.25456
v -0.20627 -0.12785 0.21793
v -0.20627 -0.12785 0.28431
v -0.19961 -0.12342 0.28431
v -0.19961 -0.12342 0.21793
v -0.22703 -0.09099 0.18140
v -0.22703 -0.09099 0.24909
v -0.21970 -0.08779 0.24909
v -0.21970 -0.08779 0.18140
v -0.24108 -0.05097 0.14497
v -0.24108 -0.05097 0.21377
v -0.23330 -0.04910 0.21377
v -0.23330 -0.04910 0.14497
v -0.24793 -0.00901 0.10865
v -0.24793 -0.00901 0.17834
v -0.23995 -0.00853 0.17834
v -0.23995 -0.00853 0.10865
v -0.24735 0.03362 0.07242
v -0.24735 0.03362 0.14282
v -0.23940 0.03269 0.14282
v -0.23940 0.03269 0.07242
v -0.23931 0.07558 0.03630
v -0.23931 0.07558 0.10720
v -0.23165 0.07329 0.10720
v -0.23165 0.07329 0.03630
v -0.22402 0.11560 0.00028
v -0.22402 0.11560 0.07147
v -0.21688 0.11200 0.07147
v -0.21688 0.11200 0.00028
v -0.20193 0.15243 -0.03565
v -0.20193 0.15243 0.03565
v -0.19552 0.14764 0.03565
v -0.19552 0.14764 -0.03565
v -0.17367 0.18491 -0.07147
v -0.17367 0.18491 -0.00028
v -0.16820 0.17907 -0.00028
v -0.16820 0.17907 -0.07147
v -0.14010 0.21202 -0.10720
v -0.14010 0.21202 -0.03630
v -0.13573 0.20532 -0.03630
v -0.13573 0.20532 -0.10720
v -0.10221 0.23290 -0.14282
v -0.10221 0.23290 -0.07242
v -0.09908 0.22554 -0.07242
v -0.09908 0.22554 -0.14282
v -0.06115 0.24687 -0.17834
v -0.06115 0.24687 -0.10865
v -0.05936 0.23908 -0.10865
v -0.05936 0.23908 -0.17834
v -0.01818 0.25348 -0.21377
v -0.01818 0.25348 -0.14497
v -0.01777 0.24549 -0.14497
v -0.01777 0.24549 -0.21377
v 0.02539 0.25247 -0.24909
v 0.02539 0.25247 -0.18140
v 0.02439 0.24454 -0.18140
v 0.02439 0.24454 -0.24909
v 0.06822 0.24385 -0.28431
v 0.06822 0.24385 -0.21793
v 0.06585 0.23621 -0.21793
v 0.06585 0.23621 -0.28431
v 0.10898 0.22785 -0.31943
v 0.10898 0.22785 -0.25456
v 0.10531 0.22073 -0.25456
v 0.10531 0.22073 -0.31943
v 0.14641 0.20491 -0.35444
v 0.14641 0.20491 -0.29129
v 0.14156 0.19855 -0.29129
v 0.14156 0.19855 -0.35444
v 0.17934 0.17572 -0.38935
v 0.17934 0.17572 -0.32813
v 0.17345 0.17030 -0.32813
v 0.17345 0.17030 -0.38935
v 0.20673 0.14114 -0.42415
v 0.20673 0.14114 -0.36508
v 0.19998 0.13683 -0.36508
v 0.19998 0.13683 -0.42415
v 0.22770 0.10221 -0.45884
v 0.22770 0.10221 -0.40214
v 0.22031 0.09915 -0.40214
v 0.22031 0.09915 -0.45884
v 0.24159 0.06012 -0.49341
v 0.24159 0.06012 -0.43932
v 0.23378 0.05840 -0.43932
v 0.23378 0.05840 -0.49341
v 0.24793 0.01615 -0.52786
v 0.24793 0.01615 -0.47662
v 0.23994 0.01581 -0.47662
v 0.23994 0.01581 -0.52786
v 0.24649 -0.02837 -0.56218
v 0.24649 -0.02837 -0.51405
v 0.23856 -0.02730 -0.51405
v 0.23856 -0.02730 -0.56218
v 0.23727 -0.07205 -0.59636
v 0.23727 -0.07205 -0.55161
v 0.22965 -0.06961 -0.55161
v 0.22965 -0.06961 -0.59636
v 0.22052 -0.11354 -0.63038
v 0.22052 -0.11354 -0.58934
v 0.21345 -0.10982 -0.58934
v 0.21345 -0.10982 -0.63038
v 0.19673 -0.15157 -0.66423
v 0.19673 -0.15157 -0.62724
v 0.19041 -0.14666 -0.62724
v 0.19041 -0.14666 -0.66423
v 0.16659 -0.18493 -0.69785
v 0.16659 -0.18493 -0.66537
v 0.16123 -0.17899 -0.66537
v 0.16123 -0.17899 -0.69785
v 0.13100 -0.21258 -0.73119
v 0.13100 -0.21258 -0.70377
v 0.12676 -0.20580 -0.70377
v 0.12676 -0.20580 -0.73119
v 0.09104 -0.23364 -0.76413
v 0.09104 -0.23364 -0.74258
v 0.08804 -0.22622 -0.74258
v 0.08804 -0.22622 -0.76413
v 0.04791 -0.24742 -0.79635
v 0.04791 -0.24742 -0.78211
v 0.04626 -0.23960 -0.78211
v 0.04626 -0.23960 -0.79635
v 0.00293 -0.25348 -0.82511
v 0.00293 -0.25348 -0.82511
v 0.00267 -0.24548 -0.82511
v 0.00267 -0.24548 -0.82511
f 1 6 5
f 2 7 6
f 3 8 7
f 1 8 4
f 5 10 9
f 6 11 10
f 8 11 7
f 5 12 8
f 9 14 13
f 10 15 14
f 12 15 11
f 9 16 12
f 13 18 17
f 14 19 18
f 16 19 15
f 13 20 16
f 17 22 21
f 18 23 22
f 20 23 19
f 17 24 20
f 21 26 25
f 22 27 26
f 24 27 23
f 21 28 24
f 25 30 29
f 26 31 30
f 28 31 27
f 25 32 28
f 29 34 33
f 30 35 34
f 32 35 31
f 29 36 32
f 33 38 37
f 34 39 38
f 36 39 35
f 33 40 36
f 37 42 41
f 38 43 42
f 40 43 39
f 37 44 40
f 41 46 45
f 42 47 46
f 44 47 43
f 41 48 44
f 45 50 49
f 46 51 50
f 48 51 47
f 45 52 48
f 49 54 53
f 50 55 54
f 52 55 51
f 49 56 52
f 53 58 57
f 54 59 58
f 56 59 55
f 53 60 56
f 57 62 61
f 58 63 62
f 60 63 59
f 57 64 60
f 61 66 65
f 62 67 66
f 64 67 63
f 61 68 64
f 65 70 69
f 66 71 70
f 68 71 67
f 65 72 68
f 69 74 73
f 70 75 74
f 72 75 71
f 69 76 72
f 73 78 77
f 74 79 78
f 76 79 75
f 73 80 76
f 77 82 81
f 78 83 82
f 80 83 79
f 77 84 80
f 81 86 85
f 82 87 86
f 84 87 83
f 81 88 84
f 85 90 89
f 86 91 90
f 88 91 87
f 85 92 88
f 89 94 93
f 90 95 94
f 92 95 91
f 89 96 92
f 93 98 97
f 94 99 98
f 96 99 95
f 93 100 96
f 97 102 101
f 98 103 102
f 100 103 99
f 97 104 100
f 101 106 105
f 102 107 106
f 104 107 103
f 101 108 104
f 105 110 109
f 106 111 110
f 108 111 107
f 105 112 108
f 109 114 113
f 110 115 114
f 112 115 111
f 109 116 112
f 113 118 117
f 114 119 118
f 116 119 115
f 113 120 116
f 117 122 121
f 118 123 122
f 120 123 119
f 117 124 120
f 121 126 125
f 122 127 126
f 124 127 123
f 121 128 124
f 125 130 129
f 126 131 130
f 128 131 127
f 125 132 128
f 129 134 133
f 130 135 134
f 132 135 131
f 129 136 132
f 133 138 137
f 134 139 138
f 136 139 135
f 133 140 136
f 137 142 141
f 138 143 142
f 140 143 139
f 137 144 140
f 141 146 145
f 142 147 146
f 144 147 143
f 141 148 144
f 145 150 149
f 146 151 150
f 148 151 147
f 145 152 148
f 149 154 153
f 150 155 154
f 152 155 151
f 149 156 152
f 153 158 157
f 154 159 158
f 156 159 155
f 153 160 156
f 157 162 161
f 158 163 162
f 160 163 159
f 157 164 160
f 161 166 165
f 162 167 166
f 164 167 163
f 161 168 164
f 165 170 169
f 166 171 170
f 168 171 167
f 165 172 168
f 169 174 173
f 170 175 174
f 172 175 171
f 169 176 172
f 173 178 177
f 174 179 178
f 176 179 175
f 173 180 176
f 177 182 181
f 178 183 182
f 180 183 179
f 177 184 180
f 181 186 185
f 182 187 186
f 183 188 187
f 181 188 184
f 4 2 1
f 185 187 188
f 1 2 6
f 2 3 7
f 3 4 8
f 1 5 8
f 5 6 10
f 6 7 11
f 8 12 11
f 5 9 12
f 9 10 14
f 10 11 15
f 12 16 15
f 9 13 16
f 13 14 18
f 14 15 19
f 16 20 19
f 13 17 20
f 17 18 22
f 18 19 23
f 20 24 23
f 17 21 24
f 21 22 26
f 22 23 27
f 24 28 27
f 21 25 28
f 25 26 30
f 26 27 31
f 28 32 31
f 25 29 32
f 29 30 34
f 30 31 35
f 32 36 35
f 29 33 36
f 33 34 38
f 34 35 39
f 36 40 39
f 33 37 40
f 37 38 42
f 38 39 43
f 40 44 43
f 37 41 44
f 41 42 46
f 42 43 47
f 44 48 47
f 41 45 48
f 45 46 50
f 46 47 51
f 48 52 51
f 45 49 52
f 49 50 54
f 50 51 55
f 52 56 55
f 49 53 56
f 53 54 58
f 54 55 59
f 56 60 59
f 53 57 60
f 57 58 62
f 58 59 63
f 60 64 63
f 57 61 64
f 61 62 66
f 62 63 67
f 64 68 67
f 61 65 68
f 65 66 70
f 66 67 71
f 68 72 71
f 65 69 72
f 69 70 74
f 70 71 75
f 72 76 75
f 69 73 76
f 73 74 78
f 74 75 79
f 76 80 79
f 73 77 80
f 77 78 82
f 78 79 83
f 80 84 83
f 77 81 84
f 81 82 86
f 82 83 87
f 84 88 87
f 81 85 88
f 85 86 90
f 86 87 91
f 88 92 91
f 85 89 92
f 89 90 94
f 90 91 95
f 92 96 95
f 89 93 96
f 93 94 98
f 94 95 99
f 96 100 99
f 93 97 100
f 97 98 102
f 98 99 103
f 100 104 103
f 97 101 104
f 101 102 106
f 102 103 107
f 104 108 107
f 101 105 108
f 105 106 110
f 106 107 111
f 108 112 111
f 105 109 112
f 109 110 114
f 110 111 115
f 112 116 115
f 109 113 116
f 113 114 118
f 114 115 119
f 116 120 119
f 113 117 120
f 117 118 122
f 118 119 123
f 120 124 123
f 117 121 124
f 121 122 126
f 122 123 127
f 124 128 127
f 121 125 128
f 125 126 130
f 126 127 131
f 128 132 131
f 125 129 132
f 129 130 134
f 130 131 135
f 132 136 135
f 129 133 136
f 133 134 138
f 134 135 139
f 136 140 139
f 133 137 140
f 137 138 142
f 138 139 143
f 140 144 143
f 137 141 144
f 141 142 146
f 142 143 147
f 144 148 147
f 141 145 148
f 145 146 150
f 146 147 151
f 148 152 151
f 145 149 152
f 149 150 154
f 150 151 155
f 152 156 155
f 149 153 156
f 153 154 158
f 154 155 159
f 156 160 159
f 153 157 160
f 157 158 162
f 158 159 163
f 160 164 163
f 157 161 164
f 161 162 166
f 162 163 167
f 164 168 167
f 161 165 168
f 165 166 170
f 166 167 171
f 168 172 171
f 165 169 172
f 169 170 174
f 170 171 175
f 172 176 175
f 169 173 176
f 173 174 178
f 174 175 179
f 176 180 179
f 173 177 180
f 177 178 182
f 178 179 183
f 180 184 183
f 177 181 184
f 181 182 186
f 182 183 187
f 183 184 188
f 181 185 188
f 4 3 2
f 185 186 187
