# celestial_dragon Energy17_Energy.obj: Roblox cue frame, recentred on its bounding box
v -0.16162 0.12921 0.62513
v -0.16162 0.12921 0.62513
v -0.15528 0.12432 0.62513
v -0.15528 0.12432 0.62513
v -0.19116 0.07948 0.58555
v -0.19116 0.07948 0.59325
v -0.18373 0.07654 0.59325
v -0.18373 0.07654 0.58555
v -0.20594 0.02324 0.54786
v -0.20594 0.02324 0.55950
v -0.19798 0.02245 0.55950
v -0.19798 0.02245 0.54786
v -0.20464 -0.03522 0.51057
v -0.20464 -0.03522 0.52536
v -0.19677 -0.03378 0.52536
v -0.19677 -0.03378 0.51057
v -0.18719 -0.09136 0.47350
v -0.18719 -0.09136 0.49098
v -0.18002 -0.08780 0.49098
v -0.18002 -0.08780 0.47350
v -0.15478 -0.14078 0.43660
v -0.15478 -0.14078 0.45644
v -0.14886 -0.13539 0.45644
v -0.14886 -0.13539 0.43660
v -0.10976 -0.17956 0.39983
v -0.10976 -0.17956 0.42176
v -0.10556 -0.17275 0.42176
v -0.10556 -0.17275 0.39983
v -0.05551 -0.20457 0.36317
v -0.05551 -0.20457 0.38698
v -0.05335 -0.19686 0.38698
v -0.05335 -0.19686 0.36317
v 0.00384 -0.21371 0.32662
v 0.00384 -0.21371 0.35209
v 0.00380 -0.20571 0.35209
v 0.00380 -0.20571 0.32662
v 0.06373 -0.20610 0.29016
v 0.06373 -0.20610 0.31710
v 0.06148 -0.19842 0.31710
v 0.06148 -0.19842 0.29016
v 0.11949 -0.18217 0.25379
v 0.11949 -0.18217 0.28203
v 0.11522 -0.17540 0.28203
v 0.11522 -0.17540 0.25379
v 0.16675 -0.14359 0.21750
v 0.16675 -0.14359 0.24688
v 0.16078 -0.13827 0.24688
v 0.16078 -0.13827 0.21750
v 0.20173 -0.09323 0.18130
v 0.20173 -0.09323 0.21163
v 0.19452 -0.08975 0.21163
v 0.19452 -0.08975 0.18130
v 0.22109 -0.03479 0.14518
v 0.22109 -0.03479 0.17631
v 0.21321 -0.03344 0.17631
v 0.21321 -0.03344 0.14518
v 0.22357 0.02689 0.10914
v 0.22357 0.02689 0.14091
v 0.21562 0.02602 0.14091
v 0.21562 0.02602 0.10914
v 0.20893 0.08703 0.07318
v 0.20893 0.08703 0.10543
v 0.20153 0.08400 0.10543
v 0.20153 0.08400 0.07318
v 0.17820 0.14096 0.03730
v 0.17820 0.14096 0.06986
v 0.17192 0.13601 0.06986
v 0.17192 0.13601 0.03730
v 0.13369 0.18445 0.00150
v 0.13369 0.18445 0.03422
v 0.12901 0.17796 0.03422
v 0.12901 0.17796 0.00150
v 0.07877 0.21408 -0.03422
v 0.07877 0.21408 -0.00150
v 0.07606 0.20655 -0.00150
v 0.07606 0.20655 -0.03422
v 0.01765 0.22747 -0.06986
v 0.01765 0.22747 -0.03730
v 0.01712 0.21949 -0.03730
v 0.01712 0.21949 -0.06986
v -0.04496 0.22350 -0.10543
v -0.04496 0.22350 -0.07318
v -0.04328 0.21568 -0.07318
v -0.04328 0.21568 -0.10543
v -0.10421 0.20237 -0.14091
v -0.10421 0.20237 -0.10914
v -0.10044 0.19532 -0.10914
v -0.10044 0.19532 -0.14091
v -0.15549 0.16564 -0.17631
v -0.15549 0.16564 -0.14518
v -0.14992 0.15990 -0.14518
v -0.14992 0.15990 -0.17631
v -0.19477 0.11608 -0.21163
v -0.19477 0.11608 -0.18130
v -0.18783 0.11210 -0.18130
v -0.18783 0.11210 -0.21163
v -0.21894 0.05746 -0.24688
v -0.21894 0.05746 -0.21750
v -0.21118 0.05554 -0.21750
v -0.21118 0.05554 -0.24688
v -0.22605 -0.00572 -0.28203
v -0.22605 -0.00572 -0.25379
v -0.21805 -0.00542 -0.25379
v -0.21805 -0.00542 -0.28203
v -0.21545 -0.06857 -0.31710
v -0.21545 -0.06857 -0.29016
v -0.20785 -0.06609 -0.29016
v -0.20785 -0.06609 -0.31710
v -0.18787 -0.12623 -0.35209
v -0.18787 -0.12623 -0.32662
v -0.18125 -0.12175 -0.32662
v -0.18125 -0.12175 -0.35209
v -0.14537 -0.17418 -0.38698
v -0.14537 -0.17418 -0.36318
v -0.14024 -0.16805 -0.36318
v -0.14024 -0.16805 -0.38698
v -0.09116 -0.20867 -0.42176
v -0.09116 -0.20867 -0.39983
v -0.08792 -0.20135 -0.39983
v -0.08792 -0.20135 -0.42176
v -0.02939 -0.22693 -0.45644
v -0.02939 -0.22693 -0.43660
v -0.02829 -0.21901 -0.43660
v -0.02829 -0.21901 -0.45644
v 0.03519 -0.22747 -0.49098
v 0.03519 -0.22747 -0.47350
v 0.03407 -0.21955 -0.47350
v 0.03407 -0.21955 -0.49098
v 0.09758 -0.21016 -0.52536
v 0.09758 -0.21016 -0.51057
v 0.09432 -0.20285 -0.51057
v 0.09432 -0.20285 -0.52536
v 0.15293 -0.17624 -0.55951
v 0.15293 -0.17624 -0.54786
v 0.14779 -0.17011 -0.54786
v 0.14779 -0.17011 -0.55951
v 0.19691 -0.12826 -0.59325
v 0.19691 -0.12826 -0.58555
v 0.19028 -0.12379 -0.58555
v 0.19028 -0.12379 -0.59325
v 0.22605 -0.06988 -0.62513
v 0.22605 -0.06988 -0.62513
v 0.21844 -0.06740 -0.62513
v 0.21844 -0.06740 -0.62513
f 1 6 5
f 2 7 6
f 3 8 7
f 1 8 4
f 5 10 9
f 6 11 10
f 8 11 7
f 5 12 8
f 9 14 13
f 10 15 14
f 12 15 11
f 9 16 12
f 13 18 17
f 14 19 18
f 16 19 15
f 13 20 16
f 17 22 21
f 18 23 22
f 20 23 19
f 17 24 20
f 21 26 25
f 22 27 26
f 24 27 23
f 21 28 24
f 25 30 29
f 26 31 30
f 28 31 27
f 25 32 28
f 29 34 33
f 30 35 34
f 32 35 31
f 29 36 32
f 33 38 37
f 34 39 38
f 36 39 35
f 33 40 36
f 37 42 41
f 38 43 42
f 40 43 39
f 37 44 40
f 41 46 45
f 42 47 46
f 44 47 43
f 41 48 44
f 45 50 49
f 46 51 50
f 48 51 47
f 45 52 48
f 49 54 53
f 50 55 54
f 52 55 51
f 49 56 52
f 53 58 57
f 54 59 58
f 56 59 55
f 53 60 56
f 57 62 61
f 58 63 62
f 60 63 59
f 57 64 60
f 61 66 65
f 62 67 66
f 64 67 63
f 61 68 64
f 65 70 69
f 66 71 70
f 68 71 67
f 65 72 68
f 69 74 73
f 70 75 74
f 72 75 71
f 69 76 72
f 73 78 77
f 74 79 78
f 76 79 75
f 73 80 76
f 77 82 81
f 78 83 82
f 80 83 79
f 77 84 80
f 81 86 85
f 82 87 86
f 84 87 83
f 81 88 84
f 85 90 89
f 86 91 90
f 88 91 87
f 85 92 88
f 89 94 93
f 90 95 94
f 92 95 91
f 89 96 92
f 93 98 97
f 94 99 98
f 96 99 95
f 93 100 96
f 97 102 101
f 98 103 102
f 100 103 99
f 97 104 100
f 101 106 105
f 102 107 106
f 104 107 103
f 101 108 104
f 105 110 109
f 106 111 110
f 108 111 107
f 105 112 108
f 109 114 113
f 110 115 114
f 112 115 111
f 109 116 112
f 113 118 117
f 114 119 118
f 116 119 115
f 113 120 116
f 117 122 121
f 118 123 122
f 120 123 119
f 117 124 120
f 121 126 125
f 122 127 126
f 124 127 123
f 121 128 124
f 125 130 129
f 126 131 130
f 128 131 127
f 125 132 128
f 129 134 133
f 130 135 134
f 132 135 131
f 129 136 132
f 133 138 137
f 134 139 138
f 136 139 135
f 133 140 136
f 137 142 141
f 138 143 142
f 139 144 143
f 137 144 140
f 4 2 1
f 141 143 144
f 1 2 6
f 2 3 7
f 3 4 8
f 1 5 8
f 5 6 10
f 6 7 11
f 8 12 11
f 5 9 12
f 9 10 14
f 10 11 15
f 12 16 15
f 9 13 16
f 13 14 18
f 14 15 19
f 16 20 19
f 13 17 20
f 17 18 22
f 18 19 23
f 20 24 23
f 17 21 24
f 21 22 26
f 22 23 27
f 24 28 27
f 21 25 28
f 25 26 30
f 26 27 31
f 28 32 31
f 25 29 32
f 29 30 34
f 30 31 35
f 32 36 35
f 29 33 36
f 33 34 38
f 34 35 39
f 36 40 39
f 33 37 40
f 37 38 42
f 38 39 43
f 40 44 43
f 37 41 44
f 41 42 46
f 42 43 47
f 44 48 47
f 41 45 48
f 45 46 50
f 46 47 51
f 48 52 51
f 45 49 52
f 49 50 54
f 50 51 55
f 52 56 55
f 49 53 56
f 53 54 58
f 54 55 59
f 56 60 59
f 53 57 60
f 57 58 62
f 58 59 63
f 60 64 63
f 57 61 64
f 61 62 66
f 62 63 67
f 64 68 67
f 61 65 68
f 65 66 70
f 66 67 71
f 68 72 71
f 65 69 72
f 69 70 74
f 70 71 75
f 72 76 75
f 69 73 76
f 73 74 78
f 74 75 79
f 76 80 79
f 73 77 80
f 77 78 82
f 78 79 83
f 80 84 83
f 77 81 84
f 81 82 86
f 82 83 87
f 84 88 87
f 81 85 88
f 85 86 90
f 86 87 91
f 88 92 91
f 85 89 92
f 89 90 94
f 90 91 95
f 92 96 95
f 89 93 96
f 93 94 98
f 94 95 99
f 96 100 99
f 93 97 100
f 97 98 102
f 98 99 103
f 100 104 103
f 97 101 104
f 101 102 106
f 102 103 107
f 104 108 107
f 101 105 108
f 105 106 110
f 106 107 111
f 108 112 111
f 105 109 112
f 109 110 114
f 110 111 115
f 112 116 115
f 109 113 116
f 113 114 118
f 114 115 119
f 116 120 119
f 113 117 120
f 117 118 122
f 118 119 123
f 120 124 123
f 117 121 124
f 121 122 126
f 122 123 127
f 124 128 127
f 121 125 128
f 125 126 130
f 126 127 131
f 128 132 131
f 125 129 132
f 129 130 134
f 130 131 135
f 132 136 135
f 129 133 136
f 133 134 138
f 134 135 139
f 136 140 139
f 133 137 140
f 137 138 142
f 138 139 143
f 139 140 144
f 137 141 144
f 4 3 2
f 141 142 143
