# celestial_dragon Energy11_Energy.obj: Roblox cue frame, recentred on its bounding box
v 0.26135 -0.01979 0.86881
v 0.26135 -0.01979 0.86881
v 0.24938 -0.02072 0.86881
v 0.24938 -0.02072 0.86881
v 0.26098 -0.06498 0.80757
v 0.26098 -0.06498 0.84530
v 0.24903 -0.06385 0.84530
v 0.24903 -0.06385 0.80757
v 0.25286 -0.10943 0.75551
v 0.25286 -0.10943 0.81260
v 0.24129 -0.10627 0.81260
v 0.24129 -0.10627 0.75551
v 0.23724 -0.15184 0.70537
v 0.23724 -0.15184 0.77797
v 0.22638 -0.14673 0.77797
v 0.22638 -0.14673 0.70537
v 0.21457 -0.19093 0.65633
v 0.21457 -0.19093 0.74225
v 0.20474 -0.18404 0.74225
v 0.20474 -0.18404 0.65633
v 0.18553 -0.22555 0.60805
v 0.18553 -0.22555 0.70576
v 0.17703 -0.21708 0.70576
v 0.17703 -0.21708 0.60805
v 0.15098 -0.25468 0.56038
v 0.15098 -0.25468 0.66867
v 0.14406 -0.24488 0.66867
v 0.14406 -0.24488 0.56038
v 0.11194 -0.27745 0.51321
v 0.11194 -0.27745 0.63108
v 0.10681 -0.26660 0.63108
v 0.10681 -0.26660 0.51321
v 0.06958 -0.29318 0.46649
v 0.06958 -0.29318 0.59304
v 0.06638 -0.28161 0.59304
v 0.06638 -0.28161 0.46649
v 0.02514 -0.30141 0.42016
v 0.02514 -0.30141 0.55460
v 0.02398 -0.28947 0.55460
v 0.02398 -0.28947 0.42016
v -0.02005 -0.30189 0.37422
v -0.02005 -0.30189 0.51578
v -0.01914 -0.28993 0.51578
v -0.01914 -0.28993 0.37422
v -0.06465 -0.29461 0.32863
v -0.06465 -0.29461 0.47661
v -0.06170 -0.28298 0.47661
v -0.06170 -0.28298 0.32863
v -0.10734 -0.27979 0.28339
v -0.10734 -0.27979 0.43709
v -0.10244 -0.26884 0.43709
v -0.10244 -0.26884 0.28339
v -0.14685 -0.25786 0.23848
v -0.14685 -0.25786 0.39723
v -0.14015 -0.24791 0.39723
v -0.14015 -0.24791 0.23848
v -0.18202 -0.22948 0.19390
v -0.18202 -0.22948 0.35705
v -0.17370 -0.22082 0.35705
v -0.17370 -0.22082 0.19390
v -0.27629 -0.24281 0.14964
v -0.27629 -0.24281 0.31655
v -0.26661 -0.23571 0.31655
v -0.26661 -0.23571 0.14964
v -0.30695 -0.19244 0.10570
v -0.30695 -0.19244 0.27573
v -0.29620 -0.18711 0.27573
v -0.29620 -0.18711 0.10570
v -0.32852 -0.13756 0.06207
v -0.32852 -0.13756 0.23460
v -0.31701 -0.13414 0.23460
v -0.31701 -0.13414 0.06207
v -0.34034 -0.07978 0.01875
v -0.34034 -0.07978 0.19315
v -0.32842 -0.07840 0.19315
v -0.32842 -0.07840 0.01875
v -0.34208 -0.02084 -0.02425
v -0.34208 -0.02084 0.15139
v -0.33010 -0.02152 0.15139
v -0.33010 -0.02152 -0.02425
v -0.33368 0.03753 -0.06694
v -0.33368 0.03753 0.10932
v -0.32200 0.03480 0.10932
v -0.32200 0.03480 -0.06694
v -0.31539 0.09359 -0.10932
v -0.31539 0.09359 0.06694
v -0.30435 0.08890 0.06694
v -0.30435 0.08890 -0.10932
v -0.28775 0.14568 -0.15139
v -0.28775 0.14568 0.02425
v -0.27768 0.13916 0.02425
v -0.27768 0.13916 -0.15139
v -0.25159 0.19225 -0.19315
v -0.25159 0.19225 -0.01876
v -0.24278 0.18410 -0.01876
v -0.24278 0.18410 -0.19315
v -0.20796 0.23193 -0.23460
v -0.20796 0.23193 -0.06207
v -0.20068 0.22239 -0.06207
v -0.20068 0.22239 -0.23460
v -0.15818 0.26354 -0.27573
v -0.15818 0.26354 -0.10570
v -0.15264 0.25289 -0.10570
v -0.15264 0.25289 -0.27573
v -0.10371 0.28613 -0.31655
v -0.10371 0.28613 -0.14964
v -0.10008 0.27469 -0.14964
v -0.10008 0.27469 -0.31655
v -0.04617 0.29904 -0.35705
v -0.04617 0.29904 -0.19390
v -0.04456 0.28715 -0.19390
v -0.04456 0.28715 -0.35705
v 0.01273 0.30189 -0.39723
v 0.01273 0.30189 -0.23848
v 0.01227 0.28990 -0.23848
v 0.01227 0.28990 -0.39723
v 0.07124 0.29459 -0.43709
v 0.07124 0.29459 -0.28339
v 0.06874 0.28286 -0.28339
v 0.06874 0.28286 -0.43709
v 0.12764 0.27736 -0.47661
v 0.12764 0.27736 -0.32863
v 0.12316 0.26623 -0.32863
v 0.12316 0.26623 -0.47661
v 0.18024 0.25071 -0.51578
v 0.18024 0.25071 -0.37422
v 0.17391 0.24051 -0.37422
v 0.17391 0.24051 -0.51578
v 0.22749 0.21542 -0.55460
v 0.22749 0.21542 -0.42016
v 0.21951 0.20646 -0.42016
v 0.21951 0.20646 -0.55460
v 0.26798 0.17255 -0.59304
v 0.26798 0.17255 -0.46649
v 0.25858 0.16510 -0.46649
v 0.25858 0.16510 -0.59304
v 0.30052 0.12337 -0.63108
v 0.30052 0.12337 -0.51321
v 0.28998 0.11764 -0.51321
v 0.28998 0.11764 -0.63108
v 0.32413 0.06934 -0.66867
v 0.32413 0.06934 -0.56038
v 0.31276 0.06550 -0.56038
v 0.31276 0.06550 -0.66867
v 0.33813 0.01206 -0.70576
v 0.33813 0.01206 -0.60805
v 0.32627 0.01022 -0.60805
v 0.32627 0.01022 -0.70576
v 0.34208 -0.04678 -0.74225
v 0.34208 -0.04678 -0.65633
v 0.33009 -0.04655 -0.65633
v 0.33009 -0.04655 -0.74225
v 0.33589 -0.10542 -0.77797
v 0.33589 -0.10542 -0.70537
v 0.32411 -0.10314 -0.70537
v 0.32411 -0.10314 -0.77797
v 0.31972 -0.16213 -0.81260
v 0.31972 -0.16213 -0.75551
v 0.30850 -0.15786 -0.75551
v 0.30850 -0.15786 -0.81260
v 0.29406 -0.21523 -0.84530
v 0.29406 -0.21523 -0.80757
v 0.28374 -0.20909 -0.80757
v 0.28374 -0.20909 -0.84530
v 0.25967 -0.26313 -0.86881
v 0.25967 -0.26313 -0.86881
v 0.25056 -0.25532 -0.86881
v 0.25056 -0.25532 -0.86881
f 1 6 5
f 3 6 2
f 3 8 7
f 1 8 4
f 5 10 9
f 7 10 6
f 8 11 7
f 8 9 12
f 9 14 13
f 11 14 10
f 12 15 11
f 9 16 12
f 13 18 17
f 15 18 14
f 16 19 15
f 13 20 16
f 17 22 21
f 18 23 22
f 20 23 19
f 17 24 20
f 21 26 25
f 23 26 22
f 24 27 23
f 21 28 24
f 25 30 29
f 27 30 26
f 28 31 27
f 28 29 32
f 29 34 33
f 31 34 30
f 32 35 31
f 29 36 32
f 33 38 37
f 35 38 34
f 36 39 35
f 36 37 40
f 37 42 41
f 39 42 38
f 40 43 39
f 40 41 44
f 41 46 45
f 42 47 46
f 44 47 43
f 44 45 48
f 45 50 49
f 46 51 50
f 48 51 47
f 48 49 52
f 49 54 53
f 51 54 50
f 52 55 51
f 49 56 52
f 53 58 57
f 55 58 54
f 56 59 55
f 56 57 60
f 57 62 61
f 58 63 62
f 60 63 59
f 57 64 60
f 61 66 65
f 62 67 66
f 64 67 63
f 61 68 64
f 65 70 69
f 66 71 70
f 68 71 67
f 65 72 68
f 69 74 73
f 70 75 74
f 72 75 71
f 72 73 76
f 73 78 77
f 75 78 74
f 76 79 75
f 73 80 76
f 77 82 81
f 78 83 82
f 80 83 79
f 80 81 84
f 81 86 85
f 83 86 82
f 84 87 83
f 84 85 88
f 85 90 89
f 87 90 86
f 88 91 87
f 85 92 88
f 89 94 93
f 91 94 90
f 92 95 91
f 89 96 92
f 93 98 97
f 95 98 94
f 96 99 95
f 93 100 96
f 97 102 101
f 98 103 102
f 100 103 99
f 97 104 100
f 101 106 105
f 102 107 106
f 104 107 103
f 104 105 108
f 105 110 109
f 106 111 110
f 108 111 107
f 108 109 112
f 109 114 113
f 110 115 114
f 112 115 111
f 112 113 116
f 113 118 117
f 115 118 114
f 116 119 115
f 116 117 120
f 117 122 121
f 118 123 122
f 120 123 119
f 120 121 124
f 121 126 125
f 123 126 122
f 124 127 123
f 124 125 128
f 125 130 129
f 126 131 130
f 128 131 127
f 125 132 128
f 129 134 133
f 130 135 134
f 132 135 131
f 129 136 132
f 133 138 137
f 135 138 134
f 136 139 135
f 133 140 136
f 137 142 141
f 139 142 138
f 140 143 139
f 140 141 144
f 141 146 145
f 142 147 146
f 144 147 143
f 141 148 144
f 145 150 149
f 147 150 146
f 148 151 147
f 145 152 148
f 149 154 153
f 151 154 150
f 152 155 151
f 152 153 156
f 153 158 157
f 154 159 158
f 156 159 155
f 156 157 160
f 157 162 161
f 158 163 162
f 160 163 159
f 160 161 164
f 161 166 165
f 162 167 166
f 163 168 167
f 161 168 164
f 4 2 1
f 165 167 168
f 1 2 6
f 3 7 6
f 3 4 8
f 1 5 8
f 5 6 10
f 7 11 10
f 8 12 11
f 8 5 9
f 9 10 14
f 11 15 14
f 12 16 15
f 9 13 16
f 13 14 18
f 15 19 18
f 16 20 19
f 13 17 20
f 17 18 22
f 18 19 23
f 20 24 23
f 17 21 24
f 21 22 26
f 23 27 26
f 24 28 27
f 21 25 28
f 25 26 30
f 27 31 30
f 28 32 31
f 28 25 29
f 29 30 34
f 31 35 34
f 32 36 35
f 29 33 36
f 33 34 38
f 35 39 38
f 36 40 39
f 36 33 37
f 37 38 42
f 39 43 42
f 40 44 43
f 40 37 41
f 41 42 46
f 42 43 47
f 44 48 47
f 44 41 45
f 45 46 50
f 46 47 51
f 48 52 51
f 48 45 49
f 49 50 54
f 51 55 54
f 52 56 55
f 49 53 56
f 53 54 58
f 55 59 58
f 56 60 59
f 56 53 57
f 57 58 62
f 58 59 63
f 60 64 63
f 57 61 64
f 61 62 66
f 62 63 67
f 64 68 67
f 61 65 68
f 65 66 70
f 66 67 71
f 68 72 71
f 65 69 72
f 69 70 74
f 70 71 75
f 72 76 75
f 72 69 73
f 73 74 78
f 75 79 78
f 76 80 79
f 73 77 80
f 77 78 82
f 78 79 83
f 80 84 83
f 80 77 81
f 81 82 86
f 83 87 86
f 84 88 87
f 84 81 85
f 85 86 90
f 87 91 90
f 88 92 91
f 85 89 92
f 89 90 94
f 91 95 94
f 92 96 95
f 89 93 96
f 93 94 98
f 95 99 98
f 96 100 99
f 93 97 100
f 97 98 102
f 98 99 103
f 100 104 103
f 97 101 104
f 101 102 106
f 102 103 107
f 104 108 107
f 104 101 105
f 105 106 110
f 106 107 111
f 108 112 111
f 108 105 109
f 109 110 114
f 110 111 115
f 112 116 115
f 112 109 113
f 113 114 118
f 115 119 118
f 116 120 119
f 116 113 117
f 117 118 122
f 118 119 123
f 120 124 123
f 120 117 121
f 121 122 126
f 123 127 126
f 124 128 127
f 124 121 125
f 125 126 130
f 126 127 131
f 128 132 131
f 125 129 132
f 129 130 134
f 130 131 135
f 132 136 135
f 129 133 136
f 133 134 138
f 135 139 138
f 136 140 139
f 133 137 140
f 137 138 142
f 139 143 142
f 140 144 143
f 140 137 141
f 141 142 146
f 142 143 147
f 144 148 147
f 141 145 148
f 145 146 150
f 147 151 150
f 148 152 151
f 145 149 152
f 149 150 154
f 151 155 154
f 152 156 155
f 152 149 153
f 153 154 158
f 154 155 159
f 156 160 159
f 156 153 157
f 157 158 162
f 158 159 163
f 160 164 163
f 160 157 161
f 161 162 166
f 162 163 167
f 163 164 168
f 161 165 168
f 4 3 2
f 165 166 167
