# celestial_dragon Energy5_Energy.obj: Roblox cue frame, recentred on its bounding box
v -0.08468 -0.08736 0.46689
v -0.08468 -0.08736 0.46689
v -0.07909 -0.08163 0.46689
v -0.07909 -0.08163 0.46689
v -0.10640 -0.06077 0.42720
v -0.10640 -0.06077 0.43475
v -0.09950 -0.05674 0.43475
v -0.09950 -0.05674 0.42720
v -0.12035 -0.02917 0.38936
v -0.12035 -0.02917 0.40076
v -0.11262 -0.02712 0.40076
v -0.11262 -0.02712 0.38936
v -0.12541 0.00520 0.35193
v -0.12541 0.00520 0.36637
v -0.11741 0.00512 0.36637
v -0.11741 0.00512 0.35193
v -0.12111 0.03989 0.31474
v -0.12111 0.03989 0.33172
v -0.11342 0.03768 0.33172
v -0.11342 0.03768 0.31474
v -0.10765 0.07236 0.27774
v -0.10765 0.07236 0.29690
v -0.10083 0.06819 0.29690
v -0.10083 0.06819 0.27774
v -0.08591 0.10024 0.24089
v -0.08591 0.10024 0.26191
v -0.08044 0.09440 0.26191
v -0.08044 0.09440 0.24089
v -0.05736 0.12145 0.20418
v -0.05736 0.12145 0.22679
v -0.05365 0.11436 0.22679
v -0.05365 0.11436 0.20418
v -0.02401 0.13436 0.16761
v -0.02401 0.13436 0.19154
v -0.02231 0.12654 0.19154
v -0.02231 0.12654 0.16761
v 0.01178 0.13795 0.13116
v 0.01178 0.13795 0.15616
v 0.01133 0.12996 0.15616
v 0.01133 0.12996 0.13116
v 0.04743 0.13184 0.09483
v 0.04743 0.13184 0.12066
v 0.04487 0.12426 0.12066
v 0.04487 0.12426 0.09483
v 0.08035 0.11638 0.05862
v 0.08035 0.11638 0.08504
v 0.07587 0.10975 0.08504
v 0.07587 0.10975 0.05862
v 0.10812 0.09257 0.02253
v 0.10812 0.09257 0.04930
v 0.10204 0.08738 0.04930
v 0.10204 0.08738 0.02253
v 0.12867 0.06207 -0.01345
v 0.12867 0.06207 0.01345
v 0.12142 0.05868 0.01345
v 0.12142 0.05868 -0.01345
v 0.14042 0.02700 -0.04930
v 0.14042 0.02700 -0.02253
v 0.13253 0.02566 -0.02253
v 0.13253 0.02566 -0.04930
v 0.14241 -0.01014 -0.08504
v 0.14241 -0.01014 -0.05862
v 0.13445 -0.00933 -0.05862
v 0.13445 -0.00933 -0.08504
v 0.13441 -0.04666 -0.12066
v 0.13441 -0.04666 -0.09483
v 0.12695 -0.04376 -0.09483
v 0.12695 -0.04376 -0.12066
v 0.11687 -0.07992 -0.15616
v 0.11687 -0.07992 -0.13116
v 0.11046 -0.07514 -0.13116
v 0.11046 -0.07514 -0.15616
v 0.09098 -0.10745 -0.19154
v 0.09098 -0.10745 -0.16761
v 0.08606 -0.10114 -0.16761
v 0.08606 -0.10114 -0.19154
v 0.05851 -0.12720 -0.22679
v 0.05851 -0.12720 -0.20418
v 0.05545 -0.11981 -0.20418
v 0.05545 -0.11981 -0.22679
v 0.02176 -0.13765 -0.26191
v 0.02176 -0.13765 -0.24089
v 0.02078 -0.12971 -0.24089
v 0.02078 -0.12971 -0.26191
v -0.01664 -0.13795 -0.29690
v -0.01664 -0.13795 -0.27774
v -0.01548 -0.13003 -0.27774
v -0.01548 -0.13003 -0.29690
v -0.05394 -0.12795 -0.33172
v -0.05394 -0.12795 -0.31474
v -0.05071 -0.12063 -0.31474
v -0.05071 -0.12063 -0.33172
v -0.08741 -0.10828 -0.36637
v -0.08741 -0.10828 -0.35193
v -0.08234 -0.10209 -0.35193
v -0.08234 -0.10209 -0.36637
v -0.11457 -0.08027 -0.40076
v -0.11457 -0.08027 -0.38936
v -0.10804 -0.07564 -0.38936
v -0.10804 -0.07564 -0.40076
v -0.13339 -0.04585 -0.43475
v -0.13339 -0.04585 -0.42720
v -0.12586 -0.04313 -0.42720
v -0.12586 -0.04313 -0.43475
v -0.14241 -0.00747 -0.46689
v -0.14241 -0.00747 -0.46689
v -0.13444 -0.00686 -0.46689
v -0.13444 -0.00686 -0.46689
f 1 6 5
f 2 7 6
f 3 8 7
f 1 8 4
f 5 10 9
f 6 11 10
f 8 11 7
f 5 12 8
f 9 14 13
f 10 15 14
f 12 15 11
f 9 16 12
f 13 18 17
f 14 19 18
f 16 19 15
f 13 20 16
f 17 22 21
f 18 23 22
f 20 23 19
f 17 24 20
f 21 26 25
f 22 27 26
f 24 27 23
f 21 28 24
f 25 30 29
f 26 31 30
f 28 31 27
f 25 32 28
f 29 34 33
f 30 35 34
f 32 35 31
f 29 36 32
f 33 38 37
f 34 39 38
f 36 39 35
f 33 40 36
f 37 42 41
f 38 43 42
f 40 43 39
f 37 44 40
f 41 46 45
f 42 47 46
f 44 47 43
f 41 48 44
f 45 50 49
f 46 51 50
f 48 51 47
f 45 52 48
f 49 54 53
f 50 55 54
f 52 55 51
f 49 56 52
f 53 58 57
f 54 59 58
f 56 59 55
f 53 60 56
f 57 62 61
f 58 63 62
f 60 63 59
f 57 64 60
f 61 66 65
f 62 67 66
f 64 67 63
f 61 68 64
f 65 70 69
f 66 71 70
f 68 71 67
f 65 72 68
f 69 74 73
f 70 75 74
f 72 75 71
f 69 76 72
f 73 78 77
f 74 79 78
f 76 79 75
f 73 80 76
f 77 82 81
f 78 83 82
f 80 83 79
f 77 84 80
f 81 86 85
f 82 87 86
f 84 87 83
f 81 88 84
f 85 90 89
f 86 91 90
f 88 91 87
f 85 92 88
f 89 94 93
f 90 95 94
f 92 95 91
f 89 96 92
f 93 98 97
f 94 99 98
f 96 99 95
f 93 100 96
f 97 102 101
f 98 103 102
f 100 103 99
f 97 104 100
f 101 106 105
f 102 107 106
f 103 108 107
f 101 108 104
f 4 2 1
f 105 107 108
f 1 2 6
f 2 3 7
f 3 4 8
f 1 5 8
f 5 6 10
f 6 7 11
f 8 12 11
f 5 9 12
f 9 10 14
f 10 11 15
f 12 16 15
f 9 13 16
f 13 14 18
f 14 15 19
f 16 20 19
f 13 17 20
f 17 18 22
f 18 19 23
f 20 24 23
f 17 21 24
f 21 22 26
f 22 23 27
f 24 28 27
f 21 25 28
f 25 26 30
f 26 27 31
f 28 32 31
f 25 29 32
f 29 30 34
f 30 31 35
f 32 36 35
f 29 33 36
f 33 34 38
f 34 35 39
f 36 40 39
f 33 37 40
f 37 38 42
f 38 39 43
f 40 44 43
f 37 41 44
f 41 42 46
f 42 43 47
f 44 48 47
f 41 45 48
f 45 46 50
f 46 47 51
f 48 52 51
f 45 49 52
f 49 50 54
f 50 51 55
f 52 56 55
f 49 53 56
f 53 54 58
f 54 55 59
f 56 60 59
f 53 57 60
f 57 58 62
f 58 59 63
f 60 64 63
f 57 61 64
f 61 62 66
f 62 63 67
f 64 68 67
f 61 65 68
f 65 66 70
f 66 67 71
f 68 72 71
f 65 69 72
f 69 70 74
f 70 71 75
f 72 76 75
f 69 73 76
f 73 74 78
f 74 75 79
f 76 80 79
f 73 77 80
f 77 78 82
f 78 79 83
f 80 84 83
f 77 81 84
f 81 82 86
f 82 83 87
f 84 88 87
f 81 85 88
f 85 86 90
f 86 87 91
f 88 92 91
f 85 89 92
f 89 90 94
f 90 91 95
f 92 96 95
f 89 93 96
f 93 94 98
f 94 95 99
f 96 100 99
f 93 97 100
f 97 98 102
f 98 99 103
f 100 104 103
f 97 101 104
f 101 102 106
f 102 103 107
f 103 104 108
f 101 105 108
f 4 3 2
f 105 106 107
