# celestial_dragon Energy29_Energy.obj: Roblox cue frame, recentred on its bounding box
v 0.13301 0.19943 0.59417
v 0.13301 0.19943 0.59417
v 0.12856 0.19278 0.59417
v 0.12856 0.19278 0.59417
v 0.17570 0.16289 0.55384
v 0.17570 0.16289 0.56159
v 0.16983 0.15747 0.56159
v 0.16983 0.15747 0.55384
v 0.20873 0.11743 0.51540
v 0.20873 0.11743 0.52711
v 0.20175 0.11352 0.52711
v 0.20175 0.11352 0.51540
v 0.23027 0.06553 0.47736
v 0.23027 0.06553 0.49224
v 0.22258 0.06335 0.49224
v 0.22258 0.06335 0.47736
v 0.23915 0.01004 0.43956
v 0.23915 0.01004 0.45713
v 0.23116 0.00971 0.45713
v 0.23116 0.00971 0.43956
v 0.23488 -0.04599 0.40192
v 0.23488 -0.04599 0.42185
v 0.22703 -0.04446 0.42185
v 0.22703 -0.04446 0.40192
v 0.21768 -0.09949 0.36442
v 0.21768 -0.09949 0.38644
v 0.21041 -0.09617 0.38644
v 0.21041 -0.09617 0.36442
v 0.18852 -0.14753 0.32703
v 0.18852 -0.14753 0.35091
v 0.18221 -0.14260 0.35091
v 0.18221 -0.14260 0.32703
v 0.14898 -0.18746 0.28974
v 0.14898 -0.18746 0.31528
v 0.14399 -0.18120 0.31528
v 0.14399 -0.18120 0.28974
v 0.10124 -0.21710 0.25256
v 0.10124 -0.21710 0.27956
v 0.09784 -0.20985 0.27956
v 0.09784 -0.20985 0.25256
v 0.04791 -0.23481 0.21546
v 0.04791 -0.23481 0.24373
v 0.04629 -0.22698 0.24373
v 0.04629 -0.22698 0.21546
v -0.00808 -0.23964 0.17846
v -0.00808 -0.23964 0.20782
v -0.00783 -0.23164 0.20782
v -0.00783 -0.23164 0.17846
v -0.06365 -0.23131 0.14154
v -0.06365 -0.23131 0.17183
v -0.06155 -0.22359 0.17183
v -0.06155 -0.22359 0.14154
v -0.11576 -0.21028 0.10471
v -0.11576 -0.21028 0.13575
v -0.11192 -0.20326 0.13575
v -0.11192 -0.20326 0.10471
v -0.16155 -0.17770 0.06796
v -0.16155 -0.17770 0.09958
v -0.15618 -0.17177 0.09958
v -0.15618 -0.17177 0.06796
v -0.19851 -0.13537 0.03130
v -0.19851 -0.13537 0.06333
v -0.19191 -0.13085 0.06333
v -0.19191 -0.13085 0.03130
v -0.22460 -0.08560 -0.00529
v -0.22460 -0.08560 0.02700
v -0.21713 -0.08274 0.02700
v -0.21713 -0.08274 -0.00529
v -0.23840 -0.03113 -0.04178
v -0.23840 -0.03113 -0.00942
v -0.23047 -0.03008 -0.00942
v -0.23047 -0.03008 -0.04178
v -0.23915 0.02506 -0.07820
v -0.23915 0.02506 -0.04592
v -0.23119 0.02423 -0.04592
v -0.23119 0.02423 -0.07820
v -0.22681 0.07988 -0.11453
v -0.22681 0.07988 -0.08250
v -0.21926 0.07723 -0.08250
v -0.21926 0.07723 -0.11453
v -0.20205 0.13033 -0.15078
v -0.20205 0.13033 -0.11916
v -0.19533 0.12599 -0.11916
v -0.19533 0.12599 -0.15078
v -0.16624 0.17364 -0.18695
v -0.16624 0.17364 -0.15591
v -0.16071 0.16785 -0.15591
v -0.16071 0.16785 -0.18695
v -0.12133 0.20742 -0.22303
v -0.12133 0.20742 -0.19274
v -0.11730 0.20051 -0.19274
v -0.11730 0.20051 -0.22303
v -0.06980 0.22983 -0.25903
v -0.06980 0.22983 -0.22966
v -0.06749 0.22217 -0.22966
v -0.06749 0.22217 -0.25903
v -0.01447 0.23964 -0.29494
v -0.01447 0.23964 -0.26667
v -0.01400 0.23165 -0.26667
v -0.01400 0.23165 -0.29494
v 0.04163 0.23631 -0.33076
v 0.04163 0.23631 -0.30376
v 0.04022 0.22843 -0.30376
v 0.04022 0.22843 -0.33076
v 0.09541 0.22002 -0.36649
v 0.09541 0.22002 -0.34095
v 0.09221 0.21269 -0.34095
v 0.09221 0.21269 -0.36649
v 0.14410 0.19189 -0.37848
v 0.14323 0.19075 -0.40233
v 0.13842 0.18437 -0.40185
v 0.13929 0.18552 -0.37800
v 0.18208 0.15079 -0.41633
v 0.17846 0.14781 -0.43785
v 0.17243 0.14283 -0.43615
v 0.17605 0.14582 -0.41463
v 0.20366 0.10004 -0.45327
v 0.19720 0.09688 -0.47186
v 0.19050 0.09360 -0.46897
v 0.19696 0.09676 -0.45038
v 0.20647 0.04648 -0.48837
v 0.19790 0.04456 -0.50358
v 0.19114 0.04304 -0.49958
v 0.19971 0.04496 -0.48437
v 0.19090 -0.00265 -0.52073
v 0.18157 -0.00252 -0.53231
v 0.17534 -0.00243 -0.52730
v 0.18467 -0.00256 -0.51571
v 0.16007 -0.04076 -0.54954
v 0.15167 -0.03862 -0.55742
v 0.14645 -0.03730 -0.55151
v 0.15485 -0.03943 -0.54363
v 0.11929 -0.06288 -0.57408
v 0.11357 -0.05987 -0.57835
v 0.10967 -0.05782 -0.57167
v 0.11539 -0.06083 -0.56740
v 0.07453 -0.06556 -0.59417
v 0.07453 -0.06556 -0.59417
v 0.07203 -0.06337 -0.58690
v 0.07203 -0.06337 -0.58690
f 1 6 5
f 3 6 2
f 3 8 7
f 1 8 4
f 5 10 9
f 7 10 6
f 8 11 7
f 8 9 12
f 9 14 13
f 11 14 10
f 12 15 11
f 12 13 16
f 13 18 17
f 15 18 14
f 16 19 15
f 13 20 16
f 17 22 21
f 19 22 18
f 20 23 19
f 20 21 24
f 21 26 25
f 23 26 22
f 24 27 23
f 21 28 24
f 25 30 29
f 26 31 30
f 28 31 27
f 25 32 28
f 29 34 33
f 31 34 30
f 32 35 31
f 32 33 36
f 33 38 37
f 34 39 38
f 36 39 35
f 33 40 36
f 37 42 41
f 39 42 38
f 40 43 39
f 40 41 44
f 41 46 45
f 42 47 46
f 44 47 43
f 41 48 44
f 45 50 49
f 46 51 50
f 48 51 47
f 45 52 48
f 49 54 53
f 51 54 50
f 52 55 51
f 52 53 56
f 53 58 57
f 54 59 58
f 56 59 55
f 56 57 60
f 57 62 61
f 59 62 58
f 60 63 59
f 60 61 64
f 61 66 65
f 63 66 62
f 64 67 63
f 64 65 68
f 65 70 69
f 67 70 66
f 68 71 67
f 65 72 68
f 69 74 73
f 70 75 74
f 72 75 71
f 69 76 72
f 73 78 77
f 75 78 74
f 76 79 75
f 73 80 76
f 77 82 81
f 78 83 82
f 80 83 79
f 80 81 84
f 81 86 85
f 83 86 82
f 84 87 83
f 84 85 88
f 85 90 89
f 86 91 90
f 88 91 87
f 85 92 88
f 89 94 93
f 90 95 94
f 92 95 91
f 92 93 96
f 93 98 97
f 95 98 94
f 96 99 95
f 96 97 100
f 97 102 101
f 98 103 102
f 100 103 99
f 97 104 100
f 101 106 105
f 103 106 102
f 104 107 103
f 101 108 104
f 105 110 109
f 106 111 110
f 107 112 111
f 105 112 108
f 110 113 109
f 111 114 110
f 111 116 115
f 109 116 112
f 114 117 113
f 115 118 114
f 115 120 119
f 113 120 116
f 118 121 117
f 119 122 118
f 119 124 123
f 117 124 120
f 122 125 121
f 123 126 122
f 123 128 127
f 121 128 124
f 126 129 125
f 127 130 126
f 127 132 131
f 125 132 128
f 130 133 129
f 131 134 130
f 131 136 135
f 129 136 132
f 133 138 137
f 135 138 134
f 135 140 139
f 133 140 136
f 4 2 1
f 137 139 140
f 1 2 6
f 3 7 6
f 3 4 8
f 1 5 8
f 5 6 10
f 7 11 10
f 8 12 11
f 8 5 9
f 9 10 14
f 11 15 14
f 12 16 15
f 12 9 13
f 13 14 18
f 15 19 18
f 16 20 19
f 13 17 20
f 17 18 22
f 19 23 22
f 20 24 23
f 20 17 21
f 21 22 26
f 23 27 26
f 24 28 27
f 21 25 28
f 25 26 30
f 26 27 31
f 28 32 31
f 25 29 32
f 29 30 34
f 31 35 34
f 32 36 35
f 32 29 33
f 33 34 38
f 34 35 39
f 36 40 39
f 33 37 40
f 37 38 42
f 39 43 42
f 40 44 43
f 40 37 41
f 41 42 46
f 42 43 47
f 44 48 47
f 41 45 48
f 45 46 50
f 46 47 51
f 48 52 51
f 45 49 52
f 49 50 54
f 51 55 54
f 52 56 55
f 52 49 53
f 53 54 58
f 54 55 59
f 56 60 59
f 56 53 57
f 57 58 62
f 59 63 62
f 60 64 63
f 60 57 61
f 61 62 66
f 63 67 66
f 64 68 67
f 64 61 65
f 65 66 70
f 67 71 70
f 68 72 71
f 65 69 72
f 69 70 74
f 70 71 75
f 72 76 75
f 69 73 76
f 73 74 78
f 75 79 78
f 76 80 79
f 73 77 80
f 77 78 82
f 78 79 83
f 80 84 83
f 80 77 81
f 81 82 86
f 83 87 86
f 84 88 87
f 84 81 85
f 85 86 90
f 86 87 91
f 88 92 91
f 85 89 92
f 89 90 94
f 90 91 95
f 92 96 95
f 92 89 93
f 93 94 98
f 95 99 98
f 96 100 99
f 96 93 97
f 97 98 102
f 98 99 103
f 100 104 103
f 97 101 104
f 101 102 106
f 103 107 106
f 104 108 107
f 101 105 108
f 105 106 110
f 106 107 111
f 107 108 112
f 105 109 112
f 110 114 113
f 111 115 114
f 111 112 116
f 109 113 116
f 114 118 117
f 115 119 118
f 115 116 120
f 113 117 120
f 118 122 121
f 119 123 122
f 119 120 124
f 117 121 124
f 122 126 125
f 123 127 126
f 123 124 128
f 121 125 128
f 126 130 129
f 127 131 130
f 127 128 132
f 125 129 132
f 130 134 133
f 131 135 134
f 131 132 136
f 129 133 136
f 133 134 138
f 135 139 138
f 135 136 140
f 133 137 140
f 4 3 2
f 137 138 139
