# celestial_dragon Energy7_Energy.obj: Roblox cue frame, recentred on its bounding box
v -0.11241 0.11252 0.89616
v -0.11241 0.11252 0.89616
v -0.10627 0.10739 0.89616
v -0.10627 0.10739 0.89616
v -0.12949 0.08914 0.85621
v -0.12949 0.08914 0.86442
v -0.12252 0.08521 0.86442
v -0.12252 0.08521 0.85621
v -0.14210 0.06292 0.81826
v -0.14210 0.06292 0.83069
v -0.13454 0.06032 0.83069
v -0.13454 0.06032 0.81826
v -0.14979 0.03472 0.78071
v -0.14979 0.03472 0.79654
v -0.14188 0.03353 0.79654
v -0.14188 0.03353 0.78071
v -0.15224 0.00546 0.74340
v -0.15224 0.00546 0.76215
v -0.14425 0.00572 0.76215
v -0.14425 0.00572 0.74340
v -0.14933 -0.02391 0.70625
v -0.14933 -0.02391 0.72761
v -0.14151 -0.02219 0.72761
v -0.14151 -0.02219 0.70625
v -0.14110 -0.05238 0.66922
v -0.14110 -0.05238 0.69295
v -0.13372 -0.04928 0.69295
v -0.13372 -0.04928 0.66922
v -0.12778 -0.07902 0.63229
v -0.12778 -0.07902 0.65818
v -0.12108 -0.07463 0.65818
v -0.12108 -0.07463 0.63229
v -0.10976 -0.10290 0.59545
v -0.10976 -0.10290 0.62333
v -0.10397 -0.09738 0.62333
v -0.10397 -0.09738 0.59545
v -0.08760 -0.12322 0.55868
v -0.08760 -0.12322 0.58841
v -0.08292 -0.11673 0.58841
v -0.08292 -0.11673 0.55868
v -0.06202 -0.13925 0.52199
v -0.06202 -0.13925 0.55341
v -0.05858 -0.13202 0.55341
v -0.05858 -0.13202 0.52199
v -0.03382 -0.15042 0.48536
v -0.03382 -0.15042 0.51834
v -0.03175 -0.14269 0.51834
v -0.03175 -0.14269 0.48536
v -0.00392 -0.15632 0.44879
v -0.00392 -0.15632 0.48322
v -0.00329 -0.14834 0.48322
v -0.00329 -0.14834 0.44879
v 0.02668 -0.15669 0.41228
v 0.02668 -0.15669 0.44803
v 0.02586 -0.14873 0.44803
v 0.02586 -0.14873 0.41228
v 0.05698 -0.15148 0.37583
v 0.05698 -0.15148 0.41279
v 0.05473 -0.14381 0.41279
v 0.05473 -0.14381 0.37583
v 0.08597 -0.14082 0.33944
v 0.08597 -0.14082 0.37749
v 0.08236 -0.13368 0.37749
v 0.08236 -0.13368 0.33944
v 0.11265 -0.12500 0.30310
v 0.11265 -0.12500 0.34214
v 0.10781 -0.11864 0.34214
v 0.10781 -0.11864 0.30310
v 0.13613 -0.10451 0.26681
v 0.13613 -0.10451 0.30674
v 0.13021 -0.09913 0.30674
v 0.13021 -0.09913 0.26681
v 0.15558 -0.08000 0.23058
v 0.15558 -0.08000 0.27128
v 0.14879 -0.07578 0.27128
v 0.14879 -0.07578 0.23058
v 0.17033 -0.05224 0.19439
v 0.17033 -0.05224 0.23577
v 0.16288 -0.04932 0.23577
v 0.16288 -0.04932 0.19439
v 0.18008 -0.02218 0.15826
v 0.18008 -0.02218 0.20020
v 0.17223 -0.02066 0.20020
v 0.17223 -0.02066 0.15826
v 0.18424 0.00933 0.12219
v 0.18424 0.00933 0.16459
v 0.17624 0.00940 0.16459
v 0.17624 0.00940 0.12219
v 0.18260 0.04125 0.08616
v 0.18260 0.04125 0.12892
v 0.17472 0.03987 0.12892
v 0.17472 0.03987 0.08616
v 0.17516 0.07253 0.05019
v 0.17516 0.07253 0.09320
v 0.16766 0.06974 0.09320
v 0.16766 0.06974 0.05019
v 0.16208 0.10210 0.01426
v 0.16208 0.10210 0.05743
v 0.15521 0.09799 0.05743
v 0.15521 0.09799 0.01426
v 0.14375 0.12895 -0.02161
v 0.14375 0.12895 0.02161
v 0.13774 0.12367 0.02161
v 0.13774 0.12367 -0.02161
v 0.12073 0.15217 -0.05743
v 0.12073 0.15217 -0.01426
v 0.11577 0.14589 -0.01426
v 0.11577 0.14589 -0.05743
v 0.09372 0.17092 -0.09320
v 0.09372 0.17092 -0.05019
v 0.08999 0.16385 -0.05019
v 0.08999 0.16385 -0.09320
v 0.06359 0.18454 -0.12892
v 0.06359 0.18454 -0.08616
v 0.06120 0.17690 -0.08616
v 0.06120 0.17690 -0.12892
v 0.03131 0.19250 -0.16459
v 0.03131 0.19250 -0.12219
v 0.03035 0.18456 -0.12219
v 0.03035 0.18456 -0.16459
v -0.00206 0.19449 -0.20020
v -0.00206 0.19449 -0.15826
v -0.00157 0.18650 -0.15826
v -0.00157 0.18650 -0.20020
v -0.03542 0.19036 -0.23577
v -0.03542 0.19036 -0.19439
v -0.03348 0.18260 -0.19439
v -0.03348 0.18260 -0.23577
v -0.06773 0.18038 -0.27128
v -0.06773 0.18038 -0.23058
v -0.06442 0.17309 -0.23058
v -0.06442 0.17309 -0.27128
v -0.09791 0.16463 -0.30674
v -0.09791 0.16463 -0.26681
v -0.09334 0.15807 -0.26681
v -0.09334 0.15807 -0.30674
v -0.12492 0.14353 -0.34214
v -0.12492 0.14353 -0.30310
v -0.11923 0.13791 -0.30310
v -0.11923 0.13791 -0.34214
v -0.14780 0.11770 -0.37749
v -0.14780 0.11770 -0.33944
v -0.14119 0.11320 -0.33944
v -0.14119 0.11320 -0.37749
v -0.16573 0.08796 -0.41279
v -0.16573 0.08796 -0.37583
v -0.15841 0.08473 -0.37583
v -0.15841 0.08473 -0.41279
v -0.17804 0.05523 -0.44803
v -0.17804 0.05523 -0.41228
v -0.17025 0.05339 -0.41228
v -0.17025 0.05339 -0.44803
v -0.18424 0.02059 -0.48322
v -0.18424 0.02059 -0.44879
v -0.17625 0.02019 -0.44879
v -0.17625 0.02019 -0.48322
v -0.18405 -0.01482 -0.51834
v -0.18405 -0.01482 -0.48536
v -0.17612 -0.01377 -0.48536
v -0.17612 -0.01377 -0.51834
v -0.17739 -0.04985 -0.55341
v -0.17739 -0.04985 -0.52199
v -0.16978 -0.04737 -0.52199
v -0.16978 -0.04737 -0.55341
v -0.16440 -0.08329 -0.58841
v -0.16440 -0.08329 -0.55868
v -0.15737 -0.07948 -0.55868
v -0.15737 -0.07948 -0.58841
v -0.14544 -0.11401 -0.62333
v -0.14544 -0.11401 -0.59545
v -0.13921 -0.10899 -0.59545
v -0.13921 -0.10899 -0.62333
v -0.12105 -0.14095 -0.65818
v -0.12105 -0.14095 -0.63229
v -0.11584 -0.13489 -0.63229
v -0.11584 -0.13489 -0.65818
v -0.09203 -0.16320 -0.69295
v -0.09203 -0.16320 -0.66922
v -0.08800 -0.15628 -0.66922
v -0.08800 -0.15628 -0.69295
v -0.05924 -0.17993 -0.72761
v -0.05924 -0.17993 -0.70625
v -0.05654 -0.17240 -0.70625
v -0.05654 -0.17240 -0.72761
v -0.02373 -0.19051 -0.76215
v -0.02373 -0.19051 -0.74340
v -0.02243 -0.18262 -0.74340
v -0.02243 -0.18262 -0.76215
v 0.01335 -0.19449 -0.79654
v 0.01335 -0.19449 -0.78071
v 0.01320 -0.18649 -0.78071
v 0.01320 -0.18649 -0.79654
v 0.05078 -0.19165 -0.83069
v 0.05078 -0.19165 -0.81826
v 0.04918 -0.18381 -0.81826
v 0.04918 -0.18381 -0.83069
v 0.08731 -0.18200 -0.86442
v 0.08731 -0.18200 -0.85621
v 0.08431 -0.17459 -0.85621
v 0.08431 -0.17459 -0.86442
v 0.12170 -0.16578 -0.89616
v 0.12170 -0.16578 -0.89616
v 0.11740 -0.15903 -0.89616
v 0.11740 -0.15903 -0.89616
f 1 6 5
f 2 7 6
f 3 8 7
f 1 8 4
f 5 10 9
f 6 11 10
f 8 11 7
f 5 12 8
f 9 14 13
f 10 15 14
f 12 15 11
f 9 16 12
f 13 18 17
f 14 19 18
f 16 19 15
f 13 20 16
f 17 22 21
f 18 23 22
f 20 23 19
f 17 24 20
f 21 26 25
f 22 27 26
f 24 27 23
f 21 28 24
f 25 30 29
f 26 31 30
f 28 31 27
f 25 32 28
f 29 34 33
f 30 35 34
f 32 35 31
f 29 36 32
f 33 38 37
f 34 39 38
f 36 39 35
f 33 40 36
f 37 42 41
f 38 43 42
f 40 43 39
f 37 44 40
f 41 46 45
f 42 47 46
f 44 47 43
f 41 48 44
f 45 50 49
f 46 51 50
f 48 51 47
f 45 52 48
f 49 54 53
f 50 55 54
f 52 55 51
f 49 56 52
f 53 58 57
f 54 59 58
f 56 59 55
f 53 60 56
f 57 62 61
f 58 63 62
f 60 63 59
f 57 64 60
f 61 66 65
f 62 67 66
f 64 67 63
f 61 68 64
f 65 70 69
f 66 71 70
f 68 71 67
f 65 72 68
f 69 74 73
f 70 75 74
f 72 75 71
f 69 76 72
f 73 78 77
f 74 79 78
f 76 79 75
f 73 80 76
f 77 82 81
f 78 83 82
f 80 83 79
f 77 84 80
f 81 86 85
f 82 87 86
f 84 87 83
f 81 88 84
f 85 90 89
f 86 91 90
f 88 91 87
f 85 92 88
f 89 94 93
f 90 95 94
f 92 95 91
f 89 96 92
f 93 98 97
f 94 99 98
f 96 99 95
f 93 100 96
f 97 102 101
f 98 103 102
f 100 103 99
f 97 104 100
f 101 106 105
f 102 107 106
f 104 107 103
f 101 108 104
f 105 110 109
f 106 111 110
f 108 111 107
f 105 112 108
f 109 114 113
f 110 115 114
f 112 115 111
f 109 116 112
f 113 118 117
f 114 119 118
f 116 119 115
f 113 120 116
f 117 122 121
f 118 123 122
f 120 123 119
f 117 124 120
f 121 126 125
f 122 127 126
f 124 127 123
f 121 128 124
f 125 130 129
f 126 131 130
f 128 131 127
f 125 132 128
f 129 134 133
f 130 135 134
f 132 135 131
f 129 136 132
f 133 138 137
f 134 139 138
f 136 139 135
f 133 140 136
f 137 142 141
f 138 143 142
f 140 143 139
f 137 144 140
f 141 146 145
f 142 147 146
f 144 147 143
f 141 148 144
f 145 150 149
f 146 151 150
f 148 151 147
f 145 152 148
f 149 154 153
f 150 155 154
f 152 155 151
f 149 156 152
f 153 158 157
f 154 159 158
f 156 159 155
f 153 160 156
f 157 162 161
f 158 163 162
f 160 163 159
f 157 164 160
f 161 166 165
f 162 167 166
f 164 167 163
f 161 168 164
f 165 170 169
f 166 171 170
f 168 171 167
f 165 172 168
f 169 174 173
f 170 175 174
f 172 175 171
f 169 176 172
f 173 178 177
f 174 179 178
f 176 179 175
f 173 180 176
f 177 182 181
f 178 183 182
f 180 183 179
f 177 184 180
f 181 186 185
f 182 187 186
f 184 187 183
f 181 188 184
f 185 190 189
f 186 191 190
f 188 191 187
f 185 192 188
f 189 194 193
f 190 195 194
f 192 195 191
f 189 196 192
f 193 198 197
f 194 199 198
f 196 199 195
f 193 200 196
f 197 202 201
f 198 203 202
f 199 204 203
f 197 204 200
f 4 2 1
f 201 203 204
f 1 2 6
f 2 3 7
f 3 4 8
f 1 5 8
f 5 6 10
f 6 7 11
f 8 12 11
f 5 9 12
f 9 10 14
f 10 11 15
f 12 16 15
f 9 13 16
f 13 14 18
f 14 15 19
f 16 20 19
f 13 17 20
f 17 18 22
f 18 19 23
f 20 24 23
f 17 21 24
f 21 22 26
f 22 23 27
f 24 28 27
f 21 25 28
f 25 26 30
f 26 27 31
f 28 32 31
f 25 29 32
f 29 30 34
f 30 31 35
f 32 36 35
f 29 33 36
f 33 34 38
f 34 35 39
f 36 40 39
f 33 37 40
f 37 38 42
f 38 39 43
f 40 44 43
f 37 41 44
f 41 42 46
f 42 43 47
f 44 48 47
f 41 45 48
f 45 46 50
f 46 47 51
f 48 52 51
f 45 49 52
f 49 50 54
f 50 51 55
f 52 56 55
f 49 53 56
f 53 54 58
f 54 55 59
f 56 60 59
f 53 57 60
f 57 58 62
f 58 59 63
f 60 64 63
f 57 61 64
f 61 62 66
f 62 63 67
f 64 68 67
f 61 65 68
f 65 66 70
f 66 67 71
f 68 72 71
f 65 69 72
f 69 70 74
f 70 71 75
f 72 76 75
f 69 73 76
f 73 74 78
f 74 75 79
f 76 80 79
f 73 77 80
f 77 78 82
f 78 79 83
f 80 84 83
f 77 81 84
f 81 82 86
f 82 83 87
f 84 88 87
f 81 85 88
f 85 86 90
f 86 87 91
f 88 92 91
f 85 89 92
f 89 90 94
f 90 91 95
f 92 96 95
f 89 93 96
f 93 94 98
f 94 95 99
f 96 100 99
f 93 97 100
f 97 98 102
f 98 99 103
f 100 104 103
f 97 101 104
f 101 102 106
f 102 103 107
f 104 108 107
f 101 105 108
f 105 106 110
f 106 107 111
f 108 112 111
f 105 109 112
f 109 110 114
f 110 111 115
f 112 116 115
f 109 113 116
f 113 114 118
f 114 115 119
f 116 120 119
f 113 117 120
f 117 118 122
f 118 119 123
f 120 124 123
f 117 121 124
f 121 122 126
f 122 123 127
f 124 128 127
f 121 125 128
f 125 126 130
f 126 127 131
f 128 132 131
f 125 129 132
f 129 130 134
f 130 131 135
f 132 136 135
f 129 133 136
f 133 134 138
f 134 135 139
f 136 140 139
f 133 137 140
f 137 138 142
f 138 139 143
f 140 144 143
f 137 141 144
f 141 142 146
f 142 143 147
f 144 148 147
f 141 145 148
f 145 146 150
f 146 147 151
f 148 152 151
f 145 149 152
f 149 150 154
f 150 151 155
f 152 156 155
f 149 153 156
f 153 154 158
f 154 155 159
f 156 160 159
f 153 157 160
f 157 158 162
f 158 159 163
f 160 164 163
f 157 161 164
f 161 162 166
f 162 163 167
f 164 168 167
f 161 165 168
f 165 166 170
f 166 167 171
f 168 172 171
f 165 169 172
f 169 170 174
f 170 171 175
f 172 176 175
f 169 173 176
f 173 174 178
f 174 175 179
f 176 180 179
f 173 177 180
f 177 178 182
f 178 179 183
f 180 184 183
f 177 181 184
f 181 182 186
f 182 183 187
f 184 188 187
f 181 185 188
f 185 186 190
f 186 187 191
f 188 192 191
f 185 189 192
f 189 190 194
f 190 191 195
f 192 196 195
f 189 193 196
f 193 194 198
f 194 195 199
f 196 200 199
f 193 197 200
f 197 198 202
f 198 199 203
f 199 200 204
f 197 201 204
f 4 3 2
f 201 202 203
