# celestial_dragon Energy23_Energy.obj: Roblox cue frame, recentred on its bounding box
v 0.15178 0.17202 0.86154
v 0.15178 0.17202 0.86154
v 0.14650 0.16601 0.86154
v 0.14650 0.16601 0.86154
v 0.18064 0.14249 0.82282
v 0.18064 0.14249 0.82847
v 0.17437 0.13752 0.82847
v 0.17437 0.13752 0.82282
v 0.20381 0.10817 0.78548
v 0.20381 0.10817 0.79402
v 0.19675 0.10441 0.79402
v 0.19675 0.10441 0.78548
v 0.22050 0.07017 0.74841
v 0.22050 0.07017 0.75929
v 0.21288 0.06773 0.75929
v 0.21288 0.06773 0.74841
v 0.23015 0.02969 0.71151
v 0.23015 0.02969 0.72439
v 0.22221 0.02865 0.72439
v 0.22221 0.02865 0.71151
v 0.23240 -0.01198 0.67472
v 0.23240 -0.01198 0.68939
v 0.22441 -0.01158 0.68939
v 0.22441 -0.01158 0.67472
v 0.22714 -0.05348 0.63801
v 0.22714 -0.05348 0.65430
v 0.21935 -0.05166 0.65430
v 0.21935 -0.05166 0.63801
v 0.21451 -0.09348 0.60138
v 0.21451 -0.09348 0.61914
v 0.20717 -0.09029 0.61914
v 0.20717 -0.09029 0.60138
v 0.19487 -0.13067 0.56480
v 0.19487 -0.13067 0.58392
v 0.18822 -0.12621 0.58392
v 0.18822 -0.12621 0.56480
v 0.16882 -0.16382 0.52828
v 0.16882 -0.16382 0.54865
v 0.16308 -0.15825 0.54865
v 0.16308 -0.15825 0.52828
v 0.13718 -0.19185 0.49181
v 0.13718 -0.19185 0.51333
v 0.13253 -0.18534 0.51333
v 0.13253 -0.18534 0.49181
v 0.10094 -0.21382 0.45538
v 0.10094 -0.21382 0.47796
v 0.09753 -0.20659 0.47796
v 0.09753 -0.20659 0.45538
v 0.06125 -0.22899 0.41900
v 0.06125 -0.22899 0.44254
v 0.05919 -0.22126 0.44254
v 0.05919 -0.22126 0.41900
v 0.01938 -0.23683 0.38266
v 0.01938 -0.23683 0.40709
v 0.01873 -0.22885 0.40709
v 0.01873 -0.22885 0.38266
v -0.02333 -0.23705 0.34636
v -0.02333 -0.23705 0.37159
v -0.02253 -0.22909 0.37159
v -0.02253 -0.22909 0.34636
v -0.06549 -0.22960 0.31010
v -0.06549 -0.22960 0.33605
v -0.06329 -0.22191 0.33605
v -0.06329 -0.22191 0.31010
v -0.10574 -0.21469 0.27389
v -0.10574 -0.21469 0.30048
v -0.10220 -0.20751 0.30048
v -0.10220 -0.20751 0.27389
v -0.14276 -0.19275 0.23771
v -0.14276 -0.19275 0.26486
v -0.13799 -0.18633 0.26486
v -0.13799 -0.18633 0.23771
v -0.17535 -0.16448 0.20156
v -0.17535 -0.16448 0.22921
v -0.16950 -0.15901 0.22921
v -0.16950 -0.15901 0.20156
v -0.20241 -0.13074 0.16546
v -0.20241 -0.13074 0.19352
v -0.19569 -0.12641 0.19352
v -0.19569 -0.12641 0.16546
v -0.22305 -0.09261 0.12940
v -0.22305 -0.09261 0.15779
v -0.21566 -0.08955 0.15779
v -0.21566 -0.08955 0.12940
v -0.23657 -0.05130 0.09337
v -0.23657 -0.05130 0.12202
v -0.22875 -0.04961 0.12202
v -0.22875 -0.04961 0.09337
v -0.24247 -0.00812 0.05738
v -0.24247 -0.00812 0.08621
v -0.23447 -0.00786 0.08621
v -0.23447 -0.00786 0.05738
v -0.23996 0.03543 0.02142
v -0.23996 0.03543 0.05037
v -0.23205 0.03425 0.05037
v -0.23205 0.03425 0.02142
v -0.22970 0.07783 -0.01449
v -0.22970 0.07783 0.01449
v -0.22212 0.07526 0.01449
v -0.22212 0.07526 -0.01449
v -0.21201 0.11771 -0.05037
v -0.21201 0.11771 -0.02142
v -0.20502 0.11382 -0.02142
v -0.20502 0.11382 -0.05037
v -0.18748 0.15378 -0.08621
v -0.18748 0.15378 -0.05738
v -0.18129 0.14870 -0.05738
v -0.18129 0.14870 -0.08621
v -0.15688 0.18488 -0.12202
v -0.15688 0.18488 -0.09337
v -0.15171 0.17878 -0.09337
v -0.15171 0.17878 -0.12202
v -0.12122 0.21000 -0.15779
v -0.12122 0.21000 -0.12939
v -0.11722 0.20307 -0.12939
v -0.11722 0.20307 -0.15779
v -0.08163 0.22833 -0.19352
v -0.08163 0.22833 -0.16546
v -0.07893 0.22080 -0.16546
v -0.07893 0.22080 -0.19352
v -0.03940 0.23928 -0.22921
v -0.03940 0.23928 -0.20156
v -0.03810 0.23139 -0.20156
v -0.03810 0.23139 -0.22921
v 0.00410 0.24250 -0.26486
v 0.00410 0.24250 -0.23771
v 0.00397 0.23450 -0.23771
v 0.00397 0.23450 -0.26486
v 0.04748 0.23788 -0.30048
v 0.04748 0.23788 -0.27389
v 0.04592 0.23003 -0.27389
v 0.04592 0.23003 -0.30048
v 0.08933 0.22557 -0.33605
v 0.08933 0.22557 -0.31010
v 0.08640 0.21813 -0.31010
v 0.08640 0.21813 -0.33605
v 0.12831 0.20597 -0.37159
v 0.12831 0.20597 -0.34636
v 0.12409 0.19918 -0.34636
v 0.12409 0.19918 -0.37159
v 0.16314 0.17972 -0.40709
v 0.16314 0.17972 -0.38266
v 0.15778 0.17379 -0.38266
v 0.15778 0.17379 -0.40709
v 0.19272 0.14765 -0.44254
v 0.19272 0.14765 -0.41900
v 0.18638 0.14278 -0.41900
v 0.18638 0.14278 -0.44254
v 0.21608 0.11081 -0.47796
v 0.21608 0.11081 -0.45538
v 0.20897 0.10715 -0.45538
v 0.20897 0.10715 -0.47796
v 0.23247 0.07038 -0.51333
v 0.23247 0.07038 -0.49181
v 0.22482 0.06805 -0.49181
v 0.22482 0.06805 -0.51333
v 0.24136 0.02767 -0.54865
v 0.24136 0.02767 -0.52828
v 0.23342 0.02675 -0.52828
v 0.23342 0.02675 -0.54865
v 0.24247 -0.01594 -0.58392
v 0.24247 -0.01594 -0.56480
v 0.23448 -0.01542 -0.56480
v 0.23448 -0.01542 -0.58392
v 0.23575 -0.05904 -0.61914
v 0.23575 -0.05904 -0.60138
v 0.22799 -0.05710 -0.60138
v 0.22799 -0.05710 -0.61914
v 0.22143 -0.10025 -0.65430
v 0.22143 -0.10025 -0.63801
v 0.21414 -0.09695 -0.63801
v 0.21414 -0.09695 -0.65430
v 0.19996 -0.13823 -0.68939
v 0.19996 -0.13823 -0.67472
v 0.19338 -0.13368 -0.67472
v 0.19338 -0.13368 -0.68939
v 0.17205 -0.17175 -0.72439
v 0.17205 -0.17175 -0.71151
v 0.16638 -0.16610 -0.71151
v 0.16638 -0.16610 -0.72439
v 0.13858 -0.19973 -0.75929
v 0.13858 -0.19973 -0.74841
v 0.13402 -0.19316 -0.74841
v 0.13402 -0.19316 -0.75929
v 0.10065 -0.22128 -0.79402
v 0.10065 -0.22128 -0.78548
v 0.09734 -0.21400 -0.78548
v 0.09734 -0.21400 -0.79402
v 0.05947 -0.23569 -0.82847
v 0.05947 -0.23569 -0.82282
v 0.05752 -0.22793 -0.82282
v 0.05752 -0.22793 -0.82847
v 0.01638 -0.24250 -0.86154
v 0.01638 -0.24250 -0.86154
v 0.01585 -0.23452 -0.86154
v 0.01585 -0.23452 -0.86154
f 1 6 5
f 2 7 6
f 3 8 7
f 1 8 4
f 5 10 9
f 6 11 10
f 8 11 7
f 5 12 8
f 9 14 13
f 10 15 14
f 12 15 11
f 9 16 12
f 13 18 17
f 14 19 18
f 16 19 15
f 13 20 16
f 17 22 21
f 18 23 22
f 20 23 19
f 17 24 20
f 21 26 25
f 22 27 26
f 24 27 23
f 21 28 24
f 25 30 29
f 26 31 30
f 28 31 27
f 25 32 28
f 29 34 33
f 30 35 34
f 32 35 31
f 29 36 32
f 33 38 37
f 34 39 38
f 36 39 35
f 33 40 36
f 37 42 41
f 38 43 42
f 40 43 39
f 37 44 40
f 41 46 45
f 42 47 46
f 44 47 43
f 41 48 44
f 45 50 49
f 46 51 50
f 48 51 47
f 45 52 48
f 49 54 53
f 50 55 54
f 52 55 51
f 49 56 52
f 53 58 57
f 54 59 58
f 56 59 55
f 53 60 56
f 57 62 61
f 58 63 62
f 60 63 59
f 57 64 60
f 61 66 65
f 62 67 66
f 64 67 63
f 61 68 64
f 65 70 69
f 66 71 70
f 68 71 67
f 65 72 68
f 69 74 73
f 70 75 74
f 72 75 71
f 69 76 72
f 73 78 77
f 74 79 78
f 76 79 75
f 73 80 76
f 77 82 81
f 78 83 82
f 80 83 79
f 77 84 80
f 81 86 85
f 82 87 86
f 84 87 83
f 81 88 84
f 85 90 89
f 86 91 90
f 88 91 87
f 85 92 88
f 89 94 93
f 91 94 90
f 92 95 91
f 92 93 96
f 93 98 97
f 95 98 94
f 96 99 95
f 93 100 96
f 97 102 101
f 99 102 98
f 100 103 99
f 100 101 104
f 101 106 105
f 102 107 106
f 104 107 103
f 101 108 104
f 105 110 109
f 106 111 110
f 108 111 107
f 105 112 108
f 109 114 113
f 111 114 110
f 112 115 111
f 109 116 112
f 113 118 117
f 114 119 118
f 116 119 115
f 113 120 116
f 117 122 121
f 119 122 118
f 120 123 119
f 120 121 124
f 121 126 125
f 123 126 122
f 124 127 123
f 121 128 124
f 125 130 129
f 127 130 126
f 128 131 127
f 125 132 128
f 129 134 133
f 131 134 130
f 132 135 131
f 129 136 132
f 133 138 137
f 134 139 138
f 136 139 135
f 133 140 136
f 137 142 141
f 138 143 142
f 140 143 139
f 137 144 140
f 141 146 145
f 142 147 146
f 144 147 143
f 144 145 148
f 145 150 149
f 147 150 146
f 148 151 147
f 148 149 152
f 149 154 153
f 150 155 154
f 152 155 151
f 149 156 152
f 153 158 157
f 154 159 158
f 156 159 155
f 156 157 160
f 157 162 161
f 158 163 162
f 160 163 159
f 157 164 160
f 161 166 165
f 163 166 162
f 164 167 163
f 161 168 164
f 165 170 169
f 166 171 170
f 168 171 167
f 165 172 168
f 169 174 173
f 171 174 170
f 172 175 171
f 169 176 172
f 173 178 177
f 175 178 174
f 176 179 175
f 173 180 176
f 177 182 181
f 179 182 178
f 180 183 179
f 177 184 180
f 181 186 185
f 183 186 182
f 184 187 183
f 181 188 184
f 185 190 189
f 186 191 190
f 188 191 187
f 185 192 188
f 189 194 193
f 191 194 190
f 191 196 195
f 192 193 196
f 4 2 1
f 193 195 196
f 1 2 6
f 2 3 7
f 3 4 8
f 1 5 8
f 5 6 10
f 6 7 11
f 8 12 11
f 5 9 12
f 9 10 14
f 10 11 15
f 12 16 15
f 9 13 16
f 13 14 18
f 14 15 19
f 16 20 19
f 13 17 20
f 17 18 22
f 18 19 23
f 20 24 23
f 17 21 24
f 21 22 26
f 22 23 27
f 24 28 27
f 21 25 28
f 25 26 30
f 26 27 31
f 28 32 31
f 25 29 32
f 29 30 34
f 30 31 35
f 32 36 35
f 29 33 36
f 33 34 38
f 34 35 39
f 36 40 39
f 33 37 40
f 37 38 42
f 38 39 43
f 40 44 43
f 37 41 44
f 41 42 46
f 42 43 47
f 44 48 47
f 41 45 48
f 45 46 50
f 46 47 51
f 48 52 51
f 45 49 52
f 49 50 54
f 50 51 55
f 52 56 55
f 49 53 56
f 53 54 58
f 54 55 59
f 56 60 59
f 53 57 60
f 57 58 62
f 58 59 63
f 60 64 63
f 57 61 64
f 61 62 66
f 62 63 67
f 64 68 67
f 61 65 68
f 65 66 70
f 66 67 71
f 68 72 71
f 65 69 72
f 69 70 74
f 70 71 75
f 72 76 75
f 69 73 76
f 73 74 78
f 74 75 79
f 76 80 79
f 73 77 80
f 77 78 82
f 78 79 83
f 80 84 83
f 77 81 84
f 81 82 86
f 82 83 87
f 84 88 87
f 81 85 88
f 85 86 90
f 86 87 91
f 88 92 91
f 85 89 92
f 89 90 94
f 91 95 94
f 92 96 95
f 92 89 93
f 93 94 98
f 95 99 98
f 96 100 99
f 93 97 100
f 97 98 102
f 99 103 102
f 100 104 103
f 100 97 101
f 101 102 106
f 102 103 107
f 104 108 107
f 101 105 108
f 105 106 110
f 106 107 111
f 108 112 111
f 105 109 112
f 109 110 114
f 111 115 114
f 112 116 115
f 109 113 116
f 113 114 118
f 114 115 119
f 116 120 119
f 113 117 120
f 117 118 122
f 119 123 122
f 120 124 123
f 120 117 121
f 121 122 126
f 123 127 126
f 124 128 127
f 121 125 128
f 125 126 130
f 127 131 130
f 128 132 131
f 125 129 132
f 129 130 134
f 131 135 134
f 132 136 135
f 129 133 136
f 133 134 138
f 134 135 139
f 136 140 139
f 133 137 140
f 137 138 142
f 138 139 143
f 140 144 143
f 137 141 144
f 141 142 146
f 142 143 147
f 144 148 147
f 144 141 145
f 145 146 150
f 147 151 150
f 148 152 151
f 148 145 149
f 149 150 154
f 150 151 155
f 152 156 155
f 149 153 156
f 153 154 158
f 154 155 159
f 156 160 159
f 156 153 157
f 157 158 162
f 158 159 163
f 160 164 163
f 157 161 164
f 161 162 166
f 163 167 166
f 164 168 167
f 161 165 168
f 165 166 170
f 166 167 171
f 168 172 171
f 165 169 172
f 169 170 174
f 171 175 174
f 172 176 175
f 169 173 176
f 173 174 178
f 175 179 178
f 176 180 179
f 173 177 180
f 177 178 182
f 179 183 182
f 180 184 183
f 177 181 184
f 181 182 186
f 183 187 186
f 184 188 187
f 181 185 188
f 185 186 190
f 186 187 191
f 188 192 191
f 185 189 192
f 189 190 194
f 191 195 194
f 191 192 196
f 192 189 193
f 4 3 2
f 193 194 195
