# celestial_dragon Head_Fang.obj: Roblox cue frame, recentred on its bounding box
v 0.03322 0.03049 -0.01736
v 0.04500 0.03553 -0.09752
v 0.02600 0.03238 0.09509
v 0.03581 0.03461 -0.09382
v 0.03000 0.03238 -0.02491
v 0.03200 0.03238 -0.08491
v 0.02800 0.03238 0.03509
v 0.03581 0.03015 -0.07599
v 0.03322 0.03426 -0.03245
v 0.04500 0.02923 -0.07229
v -0.05800 0.03238 -0.08491
v 0.05419 0.03015 -0.07599
v 0.04100 0.03505 -0.03558
v 0.05800 0.03238 -0.08491
v 0.03064 0.03084 0.04127
v 0.05419 0.03461 -0.09382
v 0.04500 -0.03553 -0.10188
v 0.03064 0.03392 0.02892
v 0.04100 0.02971 -0.01424
v -0.05200 0.03238 -0.02491
v 0.04878 0.03049 -0.01736
v 0.03700 0.03456 0.02636
v 0.05200 0.03238 -0.02491
v 0.02805 0.03118 0.09990
v 0.04878 0.03426 -0.03245
v 0.04100 -0.01128 -0.03582
v 0.02805 0.03358 0.09029
v 0.03700 0.03020 0.04382
v -0.04600 0.03238 0.03509
v 0.04336 0.03084 0.04127
v 0.03300 0.03408 0.08830
v 0.04600 0.03238 0.03509
v -0.05419 0.03015 -0.07599
v 0.04336 0.03392 0.02892
v 0.03700 -0.00643 0.02539
v -0.05419 0.03461 -0.09382
v 0.03300 0.03068 0.10188
v -0.04000 0.03238 0.09509
v 0.03795 0.03118 0.09990
v -0.04500 0.03553 -0.09752
v 0.04000 0.03238 0.09509
v -0.04878 0.03049 -0.01736
v 0.03795 0.03358 0.09029
v 0.03300 -0.00158 0.08660
v -0.04878 0.03426 -0.03245
v -0.04500 0.02923 -0.07229
v -0.03581 0.03015 -0.07599
v -0.04100 0.03505 -0.03558
v -0.03200 0.03238 -0.08491
v -0.04336 0.03084 0.04127
v -0.03581 0.03461 -0.09382
v -0.04500 -0.03553 -0.10188
v -0.04336 0.03392 0.02892
v -0.04100 0.02971 -0.01424
v -0.03322 0.03049 -0.01736
v -0.03700 0.03456 0.02636
v -0.03000 0.03238 -0.02491
v -0.03795 0.03118 0.09990
v -0.03322 0.03426 -0.03245
v -0.04100 -0.01128 -0.03582
v -0.03795 0.03358 0.09029
v -0.03700 0.03020 0.04382
v -0.03064 0.03084 0.04127
v -0.03300 0.03408 0.08830
v -0.02800 0.03238 0.03509
v -0.03064 0.03392 0.02892
v -0.03700 -0.00643 0.02539
v -0.03300 0.03068 0.10188
v -0.02805 0.03118 0.09990
v -0.02600 0.03238 0.09509
v -0.02805 0.03358 0.09029
v -0.03300 -0.00158 0.08660
f 40 52 36
f 42 60 54
f 2 17 4
f 15 35 28
f 22 35 18
f 4 17 6
f 31 44 27
f 1 26 19
f 6 17 8
f 24 44 37
f 8 17 10
f 13 26 9
f 33 52 46
f 10 17 12
f 50 67 62
f 5 26 1
f 12 17 14
f 48 60 45
f 12 14 16
f 14 17 16
f 9 26 5
f 19 26 21
f 16 17 2
f 58 72 68
f 7 35 15
f 21 26 23
f 56 67 53
f 9 1 21
f 23 26 25
f 18 35 7
f 28 35 30
f 25 26 13
f 3 44 24
f 30 35 32
f 64 72 61
f 28 32 22
f 32 35 34
f 27 44 3
f 37 44 39
f 34 35 22
f 11 52 33
f 39 44 41
f 43 27 24
f 41 44 43
f 36 52 11
f 46 52 47
f 43 44 31
f 20 60 42
f 47 52 49
f 49 51 40
f 49 52 51
f 45 60 20
f 54 60 55
f 51 52 40
f 29 67 50
f 55 60 57
f 57 59 48
f 57 60 59
f 53 67 29
f 62 67 63
f 59 60 48
f 38 72 58
f 63 67 65
f 29 62 65
f 65 67 66
f 61 72 38
f 68 72 69
f 66 67 56
f 69 72 70
f 71 64 68
f 70 72 71
f 71 72 64
f 16 2 4
f 4 6 16
f 6 8 16
f 8 10 16
f 10 12 16
f 9 5 1
f 1 19 21
f 21 23 25
f 25 13 21
f 13 9 21
f 7 15 28
f 28 30 32
f 32 34 22
f 22 18 7
f 7 28 22
f 24 37 39
f 39 41 43
f 43 31 27
f 27 3 24
f 24 39 43
f 40 36 11
f 11 33 40
f 33 46 40
f 46 47 40
f 47 49 40
f 48 45 20
f 20 42 48
f 42 54 48
f 54 55 48
f 55 57 48
f 56 53 29
f 29 50 62
f 62 63 65
f 65 66 56
f 56 29 65
f 64 61 68
f 61 38 68
f 38 58 68
f 68 69 70
f 70 71 68
