# celestial_dragon Head_Gold.obj: Roblox cue frame, recentred on its bounding box
v 0.07002 -0.18223 -0.03454
v 0.07636 -0.18486 -0.03518
v 0.07897 -0.19123 -0.03560
v 0.07632 -0.19759 -0.03556
v 0.06998 -0.20022 -0.03508
v 0.06364 -0.19759 -0.03445
v 0.06103 -0.19123 -0.03403
v 0.06368 -0.18486 -0.03407
v 0.06684 -0.18114 -0.07091
v 0.07317 -0.18377 -0.07154
v 0.07578 -0.19013 -0.07196
v 0.07314 -0.19650 -0.07192
v 0.06679 -0.19913 -0.07144
v 0.06046 -0.19650 -0.07081
v 0.05785 -0.19013 -0.07039
v 0.06050 -0.18377 -0.07043
v 0.06366 -0.18005 -0.10727
v 0.06999 -0.18268 -0.10791
v 0.07260 -0.18904 -0.10832
v 0.06996 -0.19541 -0.10828
v 0.06361 -0.19804 -0.10781
v 0.05728 -0.19541 -0.10717
v 0.05467 -0.18904 -0.10676
v 0.05731 -0.18268 -0.10680
v 0.06048 -0.17896 -0.14364
v 0.06681 -0.18159 -0.14427
v 0.06942 -0.18795 -0.14469
v 0.06678 -0.19431 -0.14465
v 0.06043 -0.19695 -0.14417
v 0.05410 -0.19431 -0.14354
v 0.05149 -0.18795 -0.14312
v 0.05413 -0.18159 -0.14316
v 0.05730 -0.17787 -0.18000
v 0.06363 -0.18050 -0.18063
v 0.06624 -0.18686 -0.18105
v 0.06360 -0.19322 -0.18101
v 0.05725 -0.19586 -0.18054
v 0.05092 -0.19322 -0.17990
v 0.04831 -0.18686 -0.17948
v 0.05095 -0.18050 -0.17952
v 0.05411 -0.17678 -0.21636
v 0.06045 -0.17941 -0.21700
v 0.06306 -0.18577 -0.21742
v 0.06041 -0.19213 -0.21738
v 0.05407 -0.19477 -0.21690
v 0.04773 -0.19213 -0.21627
v 0.04513 -0.18577 -0.21585
v 0.04777 -0.17941 -0.21589
v 0.05093 -0.17568 -0.25273
v 0.05727 -0.17832 -0.25336
v 0.05987 -0.18468 -0.25378
v 0.05723 -0.19104 -0.25374
v 0.05089 -0.19368 -0.25326
v 0.04455 -0.19104 -0.25263
v 0.04194 -0.18468 -0.25221
v 0.04459 -0.17832 -0.25225
v 0.04775 -0.17459 -0.28909
v 0.05408 -0.17723 -0.28972
v 0.05669 -0.18359 -0.29014
v 0.05405 -0.18995 -0.29010
v 0.04770 -0.19259 -0.28963
v 0.04137 -0.18995 -0.28899
v 0.03876 -0.18359 -0.28857
v 0.04140 -0.17723 -0.28861
v 0.04457 -0.17350 -0.32545
v 0.05090 -0.17614 -0.32609
v 0.05351 -0.18250 -0.32651
v 0.05087 -0.18886 -0.32647
v 0.04452 -0.19149 -0.32599
v 0.03819 -0.18886 -0.32536
v 0.03558 -0.18250 -0.32494
v 0.03822 -0.17614 -0.32498
v 0.04139 -0.17241 -0.36182
v 0.04772 -0.17505 -0.36245
v 0.05033 -0.18141 -0.36287
v 0.04769 -0.18777 -0.36283
v 0.04134 -0.19040 -0.36235
v 0.03501 -0.18777 -0.36172
v 0.03240 -0.18141 -0.36130
v 0.03504 -0.17505 -0.36134
v 0.03821 -0.17132 -0.39818
v 0.04454 -0.17396 -0.39881
v 0.04715 -0.18032 -0.39923
v 0.04450 -0.18668 -0.39919
v 0.03816 -0.18931 -0.39872
v 0.03183 -0.18668 -0.39808
v 0.02922 -0.18032 -0.39767
v 0.03186 -0.17396 -0.39771
v 0.03502 -0.17023 -0.43455
v 0.04136 -0.17286 -0.43518
v 0.04397 -0.17923 -0.43560
v 0.04132 -0.18559 -0.43556
v 0.03498 -0.18822 -0.43508
v 0.02864 -0.18559 -0.43445
v 0.02603 -0.17923 -0.43403
v 0.02868 -0.17286 -0.43407
v 0.07000 -0.19123 -0.03481
v 0.03500 -0.17923 -0.43481
v -0.07002 -0.18223 -0.03454
v -0.06368 -0.18486 -0.03407
v -0.06103 -0.19123 -0.03403
v -0.06364 -0.19759 -0.03445
v -0.06998 -0.20022 -0.03508
v -0.07632 -0.19759 -0.03556
v -0.07897 -0.19123 -0.03560
v -0.07636 -0.18486 -0.03518
v -0.06684 -0.18114 -0.07091
v -0.06050 -0.18377 -0.07043
v -0.05785 -0.19013 -0.07039
v -0.06046 -0.19650 -0.07081
v -0.06679 -0.19913 -0.07144
v -0.07314 -0.19650 -0.07192
v -0.07578 -0.19013 -0.07196
v -0.07317 -0.18377 -0.07154
v -0.06366 -0.18005 -0.10727
v -0.05731 -0.18268 -0.10680
v -0.05467 -0.18904 -0.10676
v -0.05728 -0.19541 -0.10717
v -0.06361 -0.19804 -0.10781
v -0.06996 -0.19541 -0.10828
v -0.07260 -0.18904 -0.10832
v -0.06999 -0.18268 -0.10791
v -0.06048 -0.17896 -0.14364
v -0.05413 -0.18159 -0.14316
v -0.05149 -0.18795 -0.14312
v -0.05410 -0.19431 -0.14354
v -0.06043 -0.19695 -0.14417
v -0.06678 -0.19431 -0.14465
v -0.06942 -0.18795 -0.14469
v -0.06681 -0.18159 -0.14427
v -0.05730 -0.17787 -0.18000
v -0.05095 -0.18050 -0.17952
v -0.04831 -0.18686 -0.17948
v -0.05092 -0.19322 -0.17990
v -0.05725 -0.19586 -0.18054
v -0.06360 -0.19322 -0.18101
v -0.06624 -0.18686 -0.18105
v -0.06363 -0.18050 -0.18063
v -0.05411 -0.17678 -0.21636
v -0.04777 -0.17941 -0.21589
v -0.04513 -0.18577 -0.21585
v -0.04773 -0.19213 -0.21627
v -0.05407 -0.19477 -0.21690
v -0.06041 -0.19213 -0.21738
v -0.06306 -0.18577 -0.21742
v -0.06045 -0.17941 -0.21700
v -0.05093 -0.17568 -0.25273
v -0.04459 -0.17832 -0.25225
v -0.04194 -0.18468 -0.25221
v -0.04455 -0.19104 -0.25263
v -0.05089 -0.19368 -0.25326
v -0.05723 -0.19104 -0.25374
v -0.05987 -0.18468 -0.25378
v -0.05727 -0.17832 -0.25336
v -0.04775 -0.17459 -0.28909
v -0.04140 -0.17723 -0.28861
v -0.03876 -0.18359 -0.28857
v -0.04137 -0.18995 -0.28899
v -0.04770 -0.19259 -0.28963
v -0.05405 -0.18995 -0.29010
v -0.05669 -0.18359 -0.29014
v -0.05408 -0.17723 -0.28972
v -0.04457 -0.17350 -0.32545
v -0.03822 -0.17614 -0.32498
v -0.03558 -0.18250 -0.32494
v -0.03819 -0.18886 -0.32536
v -0.04452 -0.19149 -0.32599
v -0.05087 -0.18886 -0.32647
v -0.05351 -0.18250 -0.32651
v -0.05090 -0.17614 -0.32609
v -0.04139 -0.17241 -0.36182
v -0.03504 -0.17505 -0.36134
v -0.03240 -0.18141 -0.36130
v -0.03501 -0.18777 -0.36172
v -0.04134 -0.19040 -0.36235
v -0.04769 -0.18777 -0.36283
v -0.05033 -0.18141 -0.36287
v -0.04772 -0.17505 -0.36245
v -0.03821 -0.17132 -0.39818
v -0.03186 -0.17396 -0.39771
v -0.02922 -0.18032 -0.39767
v -0.03183 -0.18668 -0.39808
v -0.03816 -0.18931 -0.39872
v -0.04450 -0.18668 -0.39919
v -0.04715 -0.18032 -0.39923
v -0.04454 -0.17396 -0.39881
v -0.03502 -0.17023 -0.43455
v -0.02868 -0.17286 -0.43407
v -0.02603 -0.17923 -0.43403
v -0.02864 -0.18559 -0.43445
v -0.03498 -0.18822 -0.43508
v -0.04132 -0.18559 -0.43556
v -0.04397 -0.17923 -0.43560
v -0.04136 -0.17286 -0.43518
v -0.07000 -0.19123 -0.03481
v -0.03500 -0.17923 -0.43481
v 0.05690 -0.01710 -0.13188
v 0.04225 -0.02505 -0.12385
v 0.03557 -0.03672 -0.11476
v 0.03220 -0.05113 -0.10442
v 0.04553 -0.06280 -0.09898
v 0.06244 -0.06375 -0.10140
v 0.07912 -0.06280 -0.10508
v 0.08968 -0.05113 -0.11487
v 0.08288 -0.03672 -0.12337
v 0.07343 -0.02505 -0.12952
v 0.06478 0.01000 -0.08851
v 0.05097 0.00248 -0.08096
v 0.04467 -0.00853 -0.07244
v 0.04148 -0.02215 -0.06274
v 0.05405 -0.03316 -0.05764
v 0.06998 -0.03407 -0.05993
v 0.08570 -0.03316 -0.06340
v 0.09566 -0.02215 -0.07259
v 0.08926 -0.00853 -0.08055
v 0.08036 0.00248 -0.08631
v 0.07270 0.03675 -0.04498
v 0.05973 0.02966 -0.03797
v 0.05381 0.01926 -0.03008
v 0.05079 0.00641 -0.02110
v 0.06256 -0.00399 -0.01643
v 0.07750 -0.00484 -0.01858
v 0.09224 -0.00399 -0.02182
v 0.10160 0.00641 -0.03034
v 0.09562 0.01926 -0.03768
v 0.08730 0.02966 -0.04298
v 0.08064 0.06274 -0.00131
v 0.06853 0.05606 0.00511
v 0.06297 0.04626 0.01231
v 0.06013 0.03414 0.02048
v 0.07106 0.02434 0.02468
v 0.08499 0.02354 0.02266
v 0.09875 0.02434 0.01965
v 0.10751 0.03414 0.01187
v 0.10197 0.04626 0.00522
v 0.09423 0.05606 0.00044
v 0.08860 0.08754 0.04246
v 0.07735 0.08126 0.04826
v 0.07217 0.07205 0.05472
v 0.06949 0.06067 0.06203
v 0.07958 0.05146 0.06571
v 0.09248 0.05071 0.06381
v 0.10522 0.05146 0.06104
v 0.11337 0.06067 0.05405
v 0.10829 0.07205 0.04816
v 0.10116 0.08126 0.04394
v 0.09657 0.11074 0.08632
v 0.08621 0.10487 0.09148
v 0.08140 0.09627 0.09715
v 0.07888 0.08563 0.10354
v 0.08810 0.07703 0.10666
v 0.09995 0.07632 0.10490
v 0.11165 0.07703 0.10238
v 0.11919 0.08563 0.09621
v 0.11458 0.09627 0.09112
v 0.10808 0.10487 0.08750
v 0.10455 0.13197 0.13024
v 0.09510 0.12653 0.13472
v 0.09068 0.11855 0.13958
v 0.08832 0.10869 0.14503
v 0.09665 0.10071 0.14757
v 0.10741 0.10005 0.14595
v 0.11805 0.10071 0.14368
v 0.12496 0.10869 0.13837
v 0.12083 0.11855 0.13410
v 0.11498 0.12653 0.13111
v 0.11254 0.15087 0.17417
v 0.10403 0.14588 0.17798
v 0.10000 0.13857 0.18201
v 0.09781 0.12953 0.18650
v 0.10522 0.12222 0.18846
v 0.11487 0.12162 0.18697
v 0.12442 0.12222 0.18497
v 0.13067 0.12953 0.18052
v 0.12705 0.13857 0.17710
v 0.12185 0.14588 0.17473
v 0.12053 0.16711 0.21809
v 0.11298 0.16262 0.22121
v 0.10937 0.15603 0.22443
v 0.10736 0.14789 0.22796
v 0.11384 0.14130 0.22935
v 0.12233 0.14076 0.22802
v 0.13076 0.14130 0.22628
v 0.13633 0.14789 0.22270
v 0.13320 0.15603 0.22010
v 0.12869 0.16262 0.21835
v 0.12850 0.18040 0.26193
v 0.12197 0.17645 0.26438
v 0.11880 0.17067 0.26682
v 0.11700 0.16353 0.26944
v 0.12251 0.15775 0.27030
v 0.12981 0.15727 0.26912
v 0.13705 0.15775 0.26765
v 0.14190 0.16353 0.26491
v 0.13929 0.17067 0.26309
v 0.13547 0.17645 0.26193
v 0.13644 0.19049 0.30563
v 0.13100 0.18716 0.30745
v 0.12832 0.18228 0.30915
v 0.12676 0.17626 0.31094
v 0.13126 0.17138 0.31133
v 0.13730 0.17098 0.31034
v 0.14331 0.17138 0.30914
v 0.14738 0.17626 0.30719
v 0.14529 0.18228 0.30606
v 0.14218 0.18716 0.30541
v 0.14435 0.19717 0.34912
v 0.14008 0.19454 0.35035
v 0.13795 0.19069 0.35141
v 0.13667 0.18593 0.35247
v 0.14013 0.18208 0.35251
v 0.14482 0.18176 0.35171
v 0.14950 0.18208 0.35081
v 0.15272 0.18593 0.34955
v 0.15115 0.19069 0.34901
v 0.14878 0.19454 0.34877
v 0.15221 0.20022 0.39232
v 0.14926 0.19841 0.39303
v 0.14777 0.19575 0.39356
v 0.14686 0.19246 0.39404
v 0.14918 0.18981 0.39388
v 0.15239 0.18959 0.39331
v 0.15559 0.18981 0.39271
v 0.15782 0.19246 0.39205
v 0.15679 0.19575 0.39192
v 0.15521 0.19841 0.39195
v 0.15998 0.19892 0.43506
v 0.15887 0.19824 0.43530
v 0.15830 0.19724 0.43546
v 0.15795 0.19600 0.43560
v 0.15882 0.19500 0.43550
v 0.16002 0.19492 0.43528
v 0.16122 0.19500 0.43506
v 0.16206 0.19600 0.43485
v 0.16168 0.19724 0.43485
v 0.16110 0.19824 0.43490
v 0.06000 -0.04323 -0.11481
v 0.16000 0.19668 0.43519
v 0.09614 -0.09277 -0.02308
v 0.08706 -0.09900 -0.01578
v 0.08348 -0.10813 -0.00961
v 0.08226 -0.11942 -0.00349
v 0.09184 -0.12855 -0.00346
v 0.10303 -0.12930 -0.00832
v 0.11394 -0.12855 -0.01377
v 0.12008 -0.11942 -0.02113
v 0.11460 -0.10813 -0.02414
v 0.10757 -0.09900 -0.02535
v 0.10715 -0.08253 0.00050
v 0.09856 -0.08842 0.00738
v 0.09517 -0.09705 0.01319
v 0.09401 -0.10772 0.01895
v 0.10305 -0.11635 0.01895
v 0.11362 -0.11706 0.01437
v 0.12391 -0.11635 0.00921
v 0.12972 -0.10772 0.00228
v 0.12456 -0.09705 -0.00053
v 0.11793 -0.08842 -0.00166
v 0.11819 -0.07242 0.02416
v 0.11011 -0.07797 0.03060
v 0.10689 -0.08611 0.03600
v 0.10577 -0.09617 0.04134
v 0.11424 -0.10431 0.04129
v 0.12417 -0.10498 0.03698
v 0.13385 -0.10431 0.03214
v 0.13933 -0.09617 0.02568
v 0.13452 -0.08611 0.02311
v 0.12831 -0.07797 0.02210
v 0.12926 -0.06261 0.04790
v 0.12168 -0.06782 0.05385
v 0.11864 -0.07547 0.05882
v 0.11754 -0.08492 0.06371
v 0.12542 -0.09257 0.06358
v 0.13470 -0.09320 0.05954
v 0.14375 -0.09257 0.05503
v 0.14892 -0.08492 0.04907
v 0.14446 -0.07547 0.04677
v 0.13870 -0.06782 0.04591
v 0.14036 -0.05323 0.07168
v 0.13329 -0.05811 0.07714
v 0.13041 -0.06527 0.08164
v 0.12933 -0.07411 0.08605
v 0.13660 -0.08126 0.08582
v 0.14521 -0.08185 0.08206
v 0.15362 -0.08126 0.07788
v 0.15847 -0.07411 0.07245
v 0.15439 -0.06527 0.07045
v 0.14910 -0.05811 0.06976
v 0.15148 -0.04446 0.09551
v 0.14492 -0.04899 0.10045
v 0.14220 -0.05564 0.10447
v 0.14113 -0.06386 0.10837
v 0.14777 -0.07051 0.10803
v 0.15570 -0.07106 0.10455
v 0.16346 -0.07051 0.10070
v 0.16799 -0.06386 0.09584
v 0.16431 -0.05564 0.09415
v 0.15949 -0.04899 0.09365
v 0.16261 -0.03641 0.11935
v 0.15657 -0.04059 0.12376
v 0.15402 -0.04672 0.12729
v 0.15296 -0.05430 0.13067
v 0.15895 -0.06043 0.13021
v 0.16619 -0.06093 0.12703
v 0.17328 -0.06043 0.12353
v 0.17749 -0.05430 0.11923
v 0.17421 -0.04672 0.11787
v 0.16987 -0.04059 0.11755
v 0.17374 -0.02924 0.14319
v 0.16824 -0.03305 0.14707
v 0.16587 -0.03863 0.15009
v 0.16482 -0.04553 0.15296
v 0.17016 -0.05112 0.15239
v 0.17668 -0.05158 0.14950
v 0.18308 -0.05112 0.14636
v 0.18694 -0.04553 0.14263
v 0.18408 -0.03863 0.14160
v 0.18024 -0.03305 0.14147
v 0.18486 -0.02306 0.16702
v 0.17993 -0.02647 0.17035
v 0.17775 -0.03148 0.17288
v 0.17673 -0.03767 0.17522
v 0.18139 -0.04267 0.17456
v 0.18717 -0.04308 0.17199
v 0.19286 -0.04267 0.16921
v 0.19636 -0.03767 0.16606
v 0.19391 -0.03148 0.16534
v 0.19058 -0.02647 0.16538
v 0.19596 -0.01798 0.19081
v 0.19163 -0.02097 0.19359
v 0.18967 -0.02536 0.19563
v 0.18870 -0.03078 0.19748
v 0.19267 -0.03517 0.19675
v 0.19768 -0.03553 0.19451
v 0.20263 -0.03517 0.19211
v 0.20574 -0.03078 0.18953
v 0.20369 -0.02536 0.18909
v 0.20087 -0.02097 0.18928
v 0.20703 -0.01409 0.21453
v 0.20335 -0.01663 0.21678
v 0.20164 -0.02035 0.21835
v 0.20074 -0.02494 0.21973
v 0.20401 -0.02866 0.21898
v 0.20822 -0.02897 0.21708
v 0.21237 -0.02866 0.21507
v 0.21505 -0.02494 0.21305
v 0.21342 -0.02035 0.21285
v 0.21111 -0.01663 0.21315
v 0.21806 -0.01150 0.23816
v 0.21509 -0.01353 0.23987
v 0.21367 -0.01651 0.24101
v 0.21289 -0.02020 0.24196
v 0.21544 -0.02318 0.24124
v 0.21878 -0.02343 0.23972
v 0.22209 -0.02318 0.23813
v 0.22428 -0.02020 0.23664
v 0.22305 -0.01651 0.23663
v 0.22127 -0.01353 0.23699
v 0.22903 -0.01031 0.26169
v 0.22688 -0.01177 0.26285
v 0.22583 -0.01392 0.26357
v 0.22521 -0.01657 0.26414
v 0.22700 -0.01872 0.26354
v 0.22939 -0.01889 0.26244
v 0.23176 -0.01872 0.26131
v 0.23337 -0.01657 0.26033
v 0.23254 -0.01392 0.26044
v 0.23131 -0.01177 0.26079
v 0.23993 -0.01103 0.28504
v 0.23893 -0.01171 0.28556
v 0.23843 -0.01270 0.28588
v 0.23813 -0.01394 0.28611
v 0.23895 -0.01493 0.28581
v 0.24005 -0.01502 0.28530
v 0.24116 -0.01493 0.28478
v 0.24191 -0.01394 0.28435
v 0.24154 -0.01270 0.28442
v 0.24098 -0.01171 0.28461
v 0.10000 -0.11323 -0.01481
v 0.24000 -0.01326 0.28519
v -0.05690 -0.01710 -0.13188
v -0.07343 -0.02505 -0.12952
v -0.08288 -0.03672 -0.12337
v -0.08968 -0.05113 -0.11487
v -0.07912 -0.06280 -0.10508
v -0.06244 -0.06375 -0.10140
v -0.04553 -0.06280 -0.09898
v -0.03220 -0.05113 -0.10442
v -0.03557 -0.03672 -0.11476
v -0.04225 -0.02505 -0.12385
v -0.06478 0.01000 -0.08851
v -0.08036 0.00248 -0.08631
v -0.08926 -0.00853 -0.08055
v -0.09566 -0.02215 -0.07259
v -0.08570 -0.03316 -0.06340
v -0.06998 -0.03407 -0.05993
v -0.05405 -0.03316 -0.05764
v -0.04148 -0.02215 -0.06274
v -0.04467 -0.00853 -0.07244
v -0.05097 0.00248 -0.08096
v -0.07270 0.03675 -0.04498
v -0.08730 0.02966 -0.04298
v -0.09562 0.01926 -0.03768
v -0.10160 0.00641 -0.03034
v -0.09224 -0.00399 -0.02182
v -0.07750 -0.00484 -0.01858
v -0.06256 -0.00399 -0.01643
v -0.05079 0.00641 -0.02110
v -0.05381 0.01926 -0.03008
v -0.05973 0.02966 -0.03797
v -0.08064 0.06274 -0.00131
v -0.09423 0.05606 0.00044
v -0.10197 0.04626 0.00522
v -0.10751 0.03414 0.01187
v -0.09875 0.02434 0.01965
v -0.08499 0.02354 0.02266
v -0.07106 0.02434 0.02468
v -0.06013 0.03414 0.02048
v -0.06297 0.04626 0.01231
v -0.06853 0.05606 0.00511
v -0.08860 0.08754 0.04246
v -0.10116 0.08126 0.04394
v -0.10829 0.07205 0.04816
v -0.11337 0.06067 0.05405
v -0.10522 0.05146 0.06104
v -0.09248 0.05071 0.06381
v -0.07958 0.05146 0.06571
v -0.06949 0.06067 0.06203
v -0.07217 0.07205 0.05472
v -0.07735 0.08126 0.04826
v -0.09657 0.11074 0.08632
v -0.10808 0.10487 0.08750
v -0.11458 0.09627 0.09112
v -0.11919 0.08563 0.09621
v -0.11165 0.07703 0.10238
v -0.09995 0.07632 0.10490
v -0.08810 0.07703 0.10666
v -0.07888 0.08563 0.10354
v -0.08140 0.09627 0.09715
v -0.08621 0.10487 0.09148
v -0.10455 0.13197 0.13024
v -0.11498 0.12653 0.13111
v -0.12083 0.11855 0.13410
v -0.12496 0.10869 0.13837
v -0.11805 0.10071 0.14368
v -0.10741 0.10005 0.14595
v -0.09665 0.10071 0.14757
v -0.08832 0.10869 0.14503
v -0.09068 0.11855 0.13958
v -0.09510 0.12653 0.13472
v -0.11254 0.15087 0.17417
v -0.12185 0.14588 0.17473
v -0.12705 0.13857 0.17710
v -0.13067 0.12953 0.18052
v -0.12442 0.12222 0.18497
v -0.11487 0.12162 0.18697
v -0.10522 0.12222 0.18846
v -0.09781 0.12953 0.18650
v -0.10000 0.13857 0.18201
v -0.10403 0.14588 0.17798
v -0.12053 0.16711 0.21809
v -0.12869 0.16262 0.21835
v -0.13320 0.15603 0.22010
v -0.13633 0.14789 0.22270
v -0.13076 0.14130 0.22628
v -0.12233 0.14076 0.22802
v -0.11384 0.14130 0.22935
v -0.10736 0.14789 0.22796
v -0.10937 0.15603 0.22443
v -0.11298 0.16262 0.22121
v -0.12850 0.18040 0.26193
v -0.13547 0.17645 0.26193
v -0.13929 0.17067 0.26309
v -0.14190 0.16353 0.26491
v -0.13705 0.15775 0.26765
v -0.12981 0.15727 0.26912
v -0.12251 0.15775 0.27030
v -0.11700 0.16353 0.26944
v -0.11880 0.17067 0.26682
v -0.12197 0.17645 0.26438
v -0.13644 0.19049 0.30563
v -0.14218 0.18716 0.30541
v -0.14529 0.18228 0.30606
v -0.14738 0.17626 0.30719
v -0.14331 0.17138 0.30914
v -0.13730 0.17098 0.31034
v -0.13126 0.17138 0.31133
v -0.12676 0.17626 0.31094
v -0.12832 0.18228 0.30915
v -0.13100 0.18716 0.30745
v -0.14435 0.19717 0.34912
v -0.14878 0.19454 0.34877
v -0.15115 0.19069 0.34901
v -0.15272 0.18593 0.34955
v -0.14950 0.18208 0.35081
v -0.14482 0.18176 0.35171
v -0.14013 0.18208 0.35251
v -0.13667 0.18593 0.35247
v -0.13795 0.19069 0.35141
v -0.14008 0.19454 0.35035
v -0.15221 0.20022 0.39232
v -0.15521 0.19841 0.39195
v -0.15679 0.19575 0.39192
v -0.15782 0.19246 0.39205
v -0.15559 0.18981 0.39271
v -0.15239 0.18959 0.39331
v -0.14918 0.18981 0.39388
v -0.14686 0.19246 0.39404
v -0.14777 0.19575 0.39356
v -0.14926 0.19841 0.39303
v -0.15998 0.19892 0.43506
v -0.16110 0.19824 0.43490
v -0.16168 0.19724 0.43485
v -0.16206 0.19600 0.43485
v -0.16122 0.19500 0.43506
v -0.16002 0.19492 0.43528
v -0.15882 0.19500 0.43550
v -0.15795 0.19600 0.43560
v -0.15830 0.19724 0.43546
v -0.15887 0.19824 0.43530
v -0.06000 -0.04323 -0.11481
v -0.16000 0.19668 0.43519
v -0.09614 -0.09277 -0.02308
v -0.10757 -0.09900 -0.02535
v -0.11460 -0.10813 -0.02414
v -0.12008 -0.11942 -0.02113
v -0.11394 -0.12855 -0.01377
v -0.10303 -0.12930 -0.00832
v -0.09184 -0.12855 -0.00346
v -0.08226 -0.11942 -0.00349
v -0.08348 -0.10813 -0.00961
v -0.08706 -0.09900 -0.01578
v -0.10715 -0.08253 0.00050
v -0.11793 -0.08842 -0.00166
v -0.12456 -0.09705 -0.00053
v -0.12972 -0.10772 0.00228
v -0.12391 -0.11635 0.00921
v -0.11362 -0.11706 0.01437
v -0.10305 -0.11635 0.01895
v -0.09401 -0.10772 0.01895
v -0.09517 -0.09705 0.01319
v -0.09856 -0.08842 0.00738
v -0.11819 -0.07242 0.02416
v -0.12831 -0.07797 0.02210
v -0.13452 -0.08611 0.02311
v -0.13933 -0.09617 0.02568
v -0.13385 -0.10431 0.03214
v -0.12417 -0.10498 0.03698
v -0.11424 -0.10431 0.04129
v -0.10577 -0.09617 0.04134
v -0.10689 -0.08611 0.03600
v -0.11011 -0.07797 0.03060
v -0.12926 -0.06261 0.04790
v -0.13870 -0.06782 0.04591
v -0.14446 -0.07547 0.04677
v -0.14892 -0.08492 0.04907
v -0.14375 -0.09257 0.05503
v -0.13470 -0.09320 0.05954
v -0.12542 -0.09257 0.06358
v -0.11754 -0.08492 0.06371
v -0.11864 -0.07547 0.05882
v -0.12168 -0.06782 0.05385
v -0.14036 -0.05323 0.07168
v -0.14910 -0.05811 0.06976
v -0.15439 -0.06527 0.07045
v -0.15847 -0.07411 0.07245
v -0.15362 -0.08126 0.07788
v -0.14521 -0.08185 0.08206
v -0.13660 -0.08126 0.08582
v -0.12933 -0.07411 0.08605
v -0.13041 -0.06527 0.08164
v -0.13329 -0.05811 0.07714
v -0.15148 -0.04446 0.09551
v -0.15949 -0.04899 0.09365
v -0.16431 -0.05564 0.09415
v -0.16799 -0.06386 0.09584
v -0.16346 -0.07051 0.10070
v -0.15570 -0.07106 0.10455
v -0.14777 -0.07051 0.10803
v -0.14113 -0.06386 0.10837
v -0.14220 -0.05564 0.10447
v -0.14492 -0.04899 0.10045
v -0.16261 -0.03641 0.11935
v -0.16987 -0.04059 0.11755
v -0.17421 -0.04672 0.11787
v -0.17749 -0.05430 0.11923
v -0.17328 -0.06043 0.12353
v -0.16619 -0.06093 0.12703
v -0.15895 -0.06043 0.13021
v -0.15296 -0.05430 0.13067
v -0.15402 -0.04672 0.12729
v -0.15657 -0.04059 0.12376
v -0.17374 -0.02924 0.14319
v -0.18024 -0.03305 0.14147
v -0.18408 -0.03863 0.14160
v -0.18694 -0.04553 0.14263
v -0.18308 -0.05112 0.14636
v -0.17668 -0.05158 0.14950
v -0.17016 -0.05112 0.15239
v -0.16482 -0.04553 0.15296
v -0.16587 -0.03863 0.15009
v -0.16824 -0.03305 0.14707
v -0.18486 -0.02306 0.16702
v -0.19058 -0.02647 0.16538
v -0.19391 -0.03148 0.16534
v -0.19636 -0.03767 0.16606
v -0.19286 -0.04267 0.16921
v -0.18717 -0.04308 0.17199
v -0.18139 -0.04267 0.17456
v -0.17673 -0.03767 0.17522
v -0.17775 -0.03148 0.17288
v -0.17993 -0.02647 0.17035
v -0.19596 -0.01798 0.19081
v -0.20087 -0.02097 0.18928
v -0.20369 -0.02536 0.18909
v -0.20574 -0.03078 0.18953
v -0.20263 -0.03517 0.19211
v -0.19768 -0.03553 0.19451
v -0.19267 -0.03517 0.19675
v -0.18870 -0.03078 0.19748
v -0.18967 -0.02536 0.19563
v -0.19163 -0.02097 0.19359
v -0.20703 -0.01409 0.21453
v -0.21111 -0.01663 0.21315
v -0.21342 -0.02035 0.21285
v -0.21505 -0.02494 0.21305
v -0.21237 -0.02866 0.21507
v -0.20822 -0.02897 0.21708
v -0.20401 -0.02866 0.21898
v -0.20074 -0.02494 0.21973
v -0.20164 -0.02035 0.21835
v -0.20335 -0.01663 0.21678
v -0.21806 -0.01150 0.23816
v -0.22127 -0.01353 0.23699
v -0.22305 -0.01651 0.23663
v -0.22428 -0.02020 0.23664
v -0.22209 -0.02318 0.23813
v -0.21878 -0.02343 0.23972
v -0.21544 -0.02318 0.24124
v -0.21289 -0.02020 0.24196
v -0.21367 -0.01651 0.24101
v -0.21509 -0.01353 0.23987
v -0.22903 -0.01031 0.26169
v -0.23131 -0.01177 0.26079
v -0.23254 -0.01392 0.26044
v -0.23337 -0.01657 0.26033
v -0.23176 -0.01872 0.26131
v -0.22939 -0.01889 0.26244
v -0.22700 -0.01872 0.26354
v -0.22521 -0.01657 0.26414
v -0.22583 -0.01392 0.26357
v -0.22688 -0.01177 0.26285
v -0.23993 -0.01103 0.28504
v -0.24098 -0.01171 0.28461
v -0.24154 -0.01270 0.28442
v -0.24191 -0.01394 0.28435
v -0.24116 -0.01493 0.28478
v -0.24005 -0.01502 0.28530
v -0.23895 -0.01493 0.28581
v -0.23813 -0.01394 0.28611
v -0.23843 -0.01270 0.28588
v -0.23893 -0.01171 0.28556
v -0.10000 -0.11323 -0.01481
v -0.24000 -0.01326 0.28519
f 2 9 1
f 2 11 10
f 4 11 3
f 4 13 12
f 5 14 13
f 7 14 6
f 7 16 15
f 1 16 8
f 10 17 9
f 11 18 10
f 11 20 19
f 12 21 20
f 13 22 21
f 15 22 14
f 15 24 23
f 9 24 16
f 18 25 17
f 18 27 26
f 20 27 19
f 21 28 20
f 21 30 29
f 22 31 30
f 23 32 31
f 24 25 32
f 26 33 25
f 26 35 34
f 28 35 27
f 29 36 28
f 29 38 37
f 30 39 38
f 31 40 39
f 32 33 40
f 34 41 33
f 34 43 42
f 36 43 35
f 36 45 44
f 37 46 45
f 39 46 38
f 40 47 39
f 33 48 40
f 42 49 41
f 43 50 42
f 44 51 43
f 44 53 52
f 45 54 53
f 47 54 46
f 47 56 55
f 41 56 48
f 50 57 49
f 51 58 50
f 52 59 51
f 53 60 52
f 53 62 61
f 55 62 54
f 55 64 63
f 49 64 56
f 58 65 57
f 59 66 58
f 59 68 67
f 61 68 60
f 61 70 69
f 62 71 70
f 63 72 71
f 64 65 72
f 65 74 73
f 66 75 74
f 68 75 67
f 68 77 76
f 70 77 69
f 70 79 78
f 71 80 79
f 65 80 72
f 74 81 73
f 74 83 82
f 76 83 75
f 76 85 84
f 78 85 77
f 78 87 86
f 79 88 87
f 73 88 80
f 82 89 81
f 82 91 90
f 84 91 83
f 84 93 92
f 86 93 85
f 87 94 86
f 88 95 87
f 88 89 96
f 97 2 1
f 97 3 2
f 97 4 3
f 97 5 4
f 97 6 5
f 97 7 6
f 97 8 7
f 97 1 8
f 89 90 98
f 90 91 98
f 91 92 98
f 92 93 98
f 93 94 98
f 94 95 98
f 95 96 98
f 96 89 98
f 99 108 107
f 101 108 100
f 101 110 109
f 103 110 102
f 104 111 103
f 104 113 112
f 106 113 105
f 106 107 114
f 107 116 115
f 109 116 108
f 109 118 117
f 111 118 110
f 112 119 111
f 113 120 112
f 113 122 121
f 114 115 122
f 116 123 115
f 117 124 116
f 118 125 117
f 119 126 118
f 119 128 127
f 120 129 128
f 122 129 121
f 122 123 130
f 124 131 123
f 125 132 124
f 126 133 125
f 127 134 126
f 127 136 135
f 128 137 136
f 130 137 129
f 130 131 138
f 131 140 139
f 132 141 140
f 133 142 141
f 135 142 134
f 136 143 135
f 136 145 144
f 138 145 137
f 138 139 146
f 139 148 147
f 141 148 140
f 141 150 149
f 143 150 142
f 144 151 143
f 144 153 152
f 146 153 145
f 146 147 154
f 147 156 155
f 149 156 148
f 149 158 157
f 151 158 150
f 151 160 159
f 152 161 160
f 153 162 161
f 154 155 162
f 156 163 155
f 157 164 156
f 157 166 165
f 159 166 158
f 159 168 167
f 161 168 160
f 161 170 169
f 162 163 170
f 163 172 171
f 165 172 164
f 166 173 165
f 166 175 174
f 168 175 167
f 168 177 176
f 170 177 169
f 163 178 170
f 171 180 179
f 173 180 172
f 173 182 181
f 174 183 182
f 176 183 175
f 176 185 184
f 178 185 177
f 178 179 186
f 180 187 179
f 180 189 188
f 181 190 189
f 182 191 190
f 184 191 183
f 184 193 192
f 186 193 185
f 186 187 194
f 195 100 99
f 195 101 100
f 195 102 101
f 195 103 102
f 195 104 103
f 195 105 104
f 195 106 105
f 195 99 106
f 187 188 196
f 188 189 196
f 189 190 196
f 190 191 196
f 191 192 196
f 192 193 196
f 193 194 196
f 194 187 196
f 2 10 9
f 2 3 11
f 4 12 11
f 4 5 13
f 5 6 14
f 7 15 14
f 7 8 16
f 1 9 16
f 10 18 17
f 11 19 18
f 11 12 20
f 12 13 21
f 13 14 22
f 15 23 22
f 15 16 24
f 9 17 24
f 18 26 25
f 18 19 27
f 20 28 27
f 21 29 28
f 21 22 30
f 22 23 31
f 23 24 32
f 24 17 25
f 26 34 33
f 26 27 35
f 28 36 35
f 29 37 36
f 29 30 38
f 30 31 39
f 31 32 40
f 32 25 33
f 34 42 41
f 34 35 43
f 36 44 43
f 36 37 45
f 37 38 46
f 39 47 46
f 40 48 47
f 33 41 48
f 42 50 49
f 43 51 50
f 44 52 51
f 44 45 53
f 45 46 54
f 47 55 54
f 47 48 56
f 41 49 56
f 50 58 57
f 51 59 58
f 52 60 59
f 53 61 60
f 53 54 62
f 55 63 62
f 55 56 64
f 49 57 64
f 58 66 65
f 59 67 66
f 59 60 68
f 61 69 68
f 61 62 70
f 62 63 71
f 63 64 72
f 64 57 65
f 65 66 74
f 66 67 75
f 68 76 75
f 68 69 77
f 70 78 77
f 70 71 79
f 71 72 80
f 65 73 80
f 74 82 81
f 74 75 83
f 76 84 83
f 76 77 85
f 78 86 85
f 78 79 87
f 79 80 88
f 73 81 88
f 82 90 89
f 82 83 91
f 84 92 91
f 84 85 93
f 86 94 93
f 87 95 94
f 88 96 95
f 88 81 89
f 99 100 108
f 101 109 108
f 101 102 110
f 103 111 110
f 104 112 111
f 104 105 113
f 106 114 113
f 106 99 107
f 107 108 116
f 109 117 116
f 109 110 118
f 111 119 118
f 112 120 119
f 113 121 120
f 113 114 122
f 114 107 115
f 116 124 123
f 117 125 124
f 118 126 125
f 119 127 126
f 119 120 128
f 120 121 129
f 122 130 129
f 122 115 123
f 124 132 131
f 125 133 132
f 126 134 133
f 127 135 134
f 127 128 136
f 128 129 137
f 130 138 137
f 130 123 131
f 131 132 140
f 132 133 141
f 133 134 142
f 135 143 142
f 136 144 143
f 136 137 145
f 138 146 145
f 138 131 139
f 139 140 148
f 141 149 148
f 141 142 150
f 143 151 150
f 144 152 151
f 144 145 153
f 146 154 153
f 146 139 147
f 147 148 156
f 149 157 156
f 149 150 158
f 151 159 158
f 151 152 160
f 152 153 161
f 153 154 162
f 154 147 155
f 156 164 163
f 157 165 164
f 157 158 166
f 159 167 166
f 159 160 168
f 161 169 168
f 161 162 170
f 162 155 163
f 163 164 172
f 165 173 172
f 166 174 173
f 166 167 175
f 168 176 175
f 168 169 177
f 170 178 177
f 163 171 178
f 171 172 180
f 173 181 180
f 173 174 182
f 174 175 183
f 176 184 183
f 176 177 185
f 178 186 185
f 178 171 179
f 180 188 187
f 180 181 189
f 181 182 190
f 182 183 191
f 184 192 191
f 184 185 193
f 186 194 193
f 186 179 187
f 198 207 197
f 199 208 198
f 199 210 209
f 201 210 200
f 202 211 201
f 202 213 212
f 203 214 213
f 205 214 204
f 205 216 215
f 206 207 216
f 208 217 207
f 209 218 208
f 209 220 219
f 211 220 210
f 212 221 211
f 212 223 222
f 213 224 223
f 215 224 214
f 215 226 225
f 216 217 226
f 218 227 217
f 219 228 218
f 219 230 229
f 221 230 220
f 222 231 221
f 222 233 232
f 223 234 233
f 225 234 224
f 225 236 235
f 226 227 236
f 228 237 227
f 229 238 228
f 229 240 239
f 231 240 230
f 232 241 231
f 232 243 242
f 233 244 243
f 235 244 234
f 235 246 245
f 236 237 246
f 238 247 237
f 239 248 238
f 239 250 249
f 241 250 240
f 242 251 241
f 242 253 252
f 243 254 253
f 245 254 244
f 245 256 255
f 246 247 256
f 248 257 247
f 249 258 248
f 249 260 259
f 251 260 250
f 252 261 251
f 252 263 262
f 253 264 263
f 255 264 254
f 255 266 265
f 256 257 266
f 258 267 257
f 259 268 258
f 259 270 269
f 261 270 260
f 262 271 261
f 262 273 272
f 263 274 273
f 265 274 264
f 265 276 275
f 266 267 276
f 268 277 267
f 269 278 268
f 269 280 279
f 271 280 270
f 272 281 271
f 272 283 282
f 273 284 283
f 275 284 274
f 275 286 285
f 276 277 286
f 278 287 277
f 279 288 278
f 279 290 289
f 281 290 280
f 282 291 281
f 282 293 292
f 283 294 293
f 285 294 284
f 285 296 295
f 286 287 296
f 288 297 287
f 289 298 288
f 289 300 299
f 291 300 290
f 292 301 291
f 292 303 302
f 293 304 303
f 295 304 294
f 295 306 305
f 296 297 306
f 298 307 297
f 299 308 298
f 299 310 309
f 301 310 300
f 302 311 301
f 302 313 312
f 303 314 313
f 305 314 304
f 305 316 315
f 306 307 316
f 308 317 307
f 309 318 308
f 309 320 319
f 311 320 310
f 312 321 311
f 312 323 322
f 313 324 323
f 315 324 314
f 315 326 325
f 316 317 326
f 318 327 317
f 319 328 318
f 319 330 329
f 321 330 320
f 322 331 321
f 322 333 332
f 323 334 333
f 325 334 324
f 325 336 335
f 326 327 336
f 337 198 197
f 337 199 198
f 337 200 199
f 337 201 200
f 337 202 201
f 337 203 202
f 337 204 203
f 337 205 204
f 337 206 205
f 337 197 206
f 327 328 338
f 328 329 338
f 329 330 338
f 330 331 338
f 331 332 338
f 332 333 338
f 333 334 338
f 334 335 338
f 335 336 338
f 336 327 338
f 340 349 339
f 341 350 340
f 341 352 351
f 343 352 342
f 344 353 343
f 344 355 354
f 345 356 355
f 347 356 346
f 347 358 357
f 348 349 358
f 350 359 349
f 351 360 350
f 351 362 361
f 353 362 352
f 354 363 353
f 354 365 364
f 355 366 365
f 357 366 356
f 357 368 367
f 358 359 368
f 360 369 359
f 361 370 360
f 361 372 371
f 363 372 362
f 364 373 363
f 364 375 374
f 365 376 375
f 367 376 366
f 367 378 377
f 368 369 378
f 370 379 369
f 371 380 370
f 371 382 381
f 373 382 372
f 374 383 373
f 374 385 384
f 375 386 385
f 377 386 376
f 377 388 387
f 378 379 388
f 380 389 379
f 381 390 380
f 381 392 391
f 383 392 382
f 384 393 383
f 384 395 394
f 385 396 395
f 387 396 386
f 387 398 397
f 388 389 398
f 390 399 389
f 391 400 390
f 391 402 401
f 393 402 392
f 394 403 393
f 394 405 404
f 395 406 405
f 397 406 396
f 397 408 407
f 398 399 408
f 400 409 399
f 401 410 400
f 401 412 411
f 403 412 402
f 404 413 403
f 404 415 414
f 405 416 415
f 407 416 406
f 407 418 417
f 408 409 418
f 410 419 409
f 411 420 410
f 411 422 421
f 413 422 412
f 414 423 413
f 414 425 424
f 415 426 425
f 417 426 416
f 417 428 427
f 418 419 428
f 420 429 419
f 421 430 420
f 421 432 431
f 423 432 422
f 424 433 423
f 424 435 434
f 425 436 435
f 427 436 426
f 427 438 437
f 428 429 438
f 430 439 429
f 431 440 430
f 431 442 441
f 433 442 432
f 434 443 433
f 434 445 444
f 435 446 445
f 437 446 436
f 437 448 447
f 438 439 448
f 440 449 439
f 441 450 440
f 441 452 451
f 443 452 442
f 444 453 443
f 444 455 454
f 445 456 455
f 447 456 446
f 447 458 457
f 448 449 458
f 450 459 449
f 451 460 450
f 451 462 461
f 453 462 452
f 454 463 453
f 454 465 464
f 455 466 465
f 457 466 456
f 457 468 467
f 458 459 468
f 460 469 459
f 461 470 460
f 461 472 471
f 463 472 462
f 464 473 463
f 464 475 474
f 465 476 475
f 467 476 466
f 467 478 477
f 468 469 478
f 479 340 339
f 479 341 340
f 479 342 341
f 479 343 342
f 479 344 343
f 479 345 344
f 479 346 345
f 479 347 346
f 479 348 347
f 479 339 348
f 469 470 480
f 470 471 480
f 471 472 480
f 472 473 480
f 473 474 480
f 474 475 480
f 475 476 480
f 476 477 480
f 477 478 480
f 478 469 480
f 482 491 481
f 483 492 482
f 483 494 493
f 485 494 484
f 486 495 485
f 486 497 496
f 487 498 497
f 489 498 488
f 489 500 499
f 490 491 500
f 492 501 491
f 493 502 492
f 493 504 503
f 495 504 494
f 496 505 495
f 496 507 506
f 497 508 507
f 499 508 498
f 499 510 509
f 500 501 510
f 502 511 501
f 503 512 502
f 503 514 513
f 505 514 504
f 506 515 505
f 506 517 516
f 507 518 517
f 509 518 508
f 509 520 519
f 510 511 520
f 512 521 511
f 513 522 512
f 513 524 523
f 515 524 514
f 516 525 515
f 516 527 526
f 517 528 527
f 519 528 518
f 519 530 529
f 520 521 530
f 522 531 521
f 523 532 522
f 523 534 533
f 525 534 524
f 526 535 525
f 526 537 536
f 527 538 537
f 529 538 528
f 529 540 539
f 530 531 540
f 532 541 531
f 533 542 532
f 533 544 543
f 535 544 534
f 536 545 535
f 536 547 546
f 537 548 547
f 539 548 538
f 539 550 549
f 540 541 550
f 542 551 541
f 543 552 542
f 543 554 553
f 545 554 544
f 546 555 545
f 546 557 556
f 547 558 557
f 549 558 548
f 549 560 559
f 550 551 560
f 552 561 551
f 553 562 552
f 553 564 563
f 555 564 554
f 556 565 555
f 556 567 566
f 557 568 567
f 559 568 558
f 559 570 569
f 560 561 570
f 562 571 561
f 563 572 562
f 563 574 573
f 565 574 564
f 566 575 565
f 566 577 576
f 567 578 577
f 569 578 568
f 569 580 579
f 570 571 580
f 572 581 571
f 573 582 572
f 573 584 583
f 575 584 574
f 576 585 575
f 576 587 586
f 577 588 587
f 579 588 578
f 579 590 589
f 580 581 590
f 582 591 581
f 583 592 582
f 583 594 593
f 585 594 584
f 586 595 585
f 586 597 596
f 587 598 597
f 589 598 588
f 589 600 599
f 590 591 600
f 592 601 591
f 593 602 592
f 593 604 603
f 595 604 594
f 596 605 595
f 596 607 606
f 597 608 607
f 599 608 598
f 599 610 609
f 600 601 610
f 602 611 601
f 603 612 602
f 603 614 613
f 605 614 604
f 606 615 605
f 606 617 616
f 607 618 617
f 609 618 608
f 609 620 619
f 610 611 620
f 621 482 481
f 621 483 482
f 621 484 483
f 621 485 484
f 621 486 485
f 621 487 486
f 621 488 487
f 621 489 488
f 621 490 489
f 621 481 490
f 611 612 622
f 612 613 622
f 613 614 622
f 614 615 622
f 615 616 622
f 616 617 622
f 617 618 622
f 618 619 622
f 619 620 622
f 620 611 622
f 624 633 623
f 625 634 624
f 625 636 635
f 627 636 626
f 628 637 627
f 628 639 638
f 629 640 639
f 631 640 630
f 631 642 641
f 632 633 642
f 634 643 633
f 635 644 634
f 635 646 645
f 637 646 636
f 638 647 637
f 638 649 648
f 639 650 649
f 641 650 640
f 641 652 651
f 642 643 652
f 644 653 643
f 645 654 644
f 645 656 655
f 647 656 646
f 648 657 647
f 648 659 658
f 649 660 659
f 651 660 650
f 651 662 661
f 652 653 662
f 654 663 653
f 655 664 654
f 655 666 665
f 657 666 656
f 658 667 657
f 658 669 668
f 659 670 669
f 661 670 660
f 661 672 671
f 662 663 672
f 664 673 663
f 665 674 664
f 665 676 675
f 667 676 666
f 668 677 667
f 668 679 678
f 669 680 679
f 671 680 670
f 671 682 681
f 672 673 682
f 674 683 673
f 675 684 674
f 675 686 685
f 677 686 676
f 678 687 677
f 678 689 688
f 679 690 689
f 681 690 680
f 681 692 691
f 682 683 692
f 684 693 683
f 685 694 684
f 685 696 695
f 687 696 686
f 688 697 687
f 688 699 698
f 689 700 699
f 691 700 690
f 691 702 701
f 692 693 702
f 694 703 693
f 695 704 694
f 695 706 705
f 697 706 696
f 698 707 697
f 698 709 708
f 699 710 709
f 701 710 700
f 701 712 711
f 702 703 712
f 704 713 703
f 705 714 704
f 705 716 715
f 707 716 706
f 708 717 707
f 708 719 718
f 709 720 719
f 711 720 710
f 711 722 721
f 712 713 722
f 714 723 713
f 715 724 714
f 715 726 725
f 717 726 716
f 718 727 717
f 718 729 728
f 719 730 729
f 721 730 720
f 721 732 731
f 722 723 732
f 724 733 723
f 725 734 724
f 725 736 735
f 727 736 726
f 728 737 727
f 728 739 738
f 729 740 739
f 731 740 730
f 731 742 741
f 732 733 742
f 734 743 733
f 735 744 734
f 735 746 745
f 737 746 736
f 738 747 737
f 738 749 748
f 739 750 749
f 741 750 740
f 741 752 751
f 742 743 752
f 744 753 743
f 745 754 744
f 745 756 755
f 747 756 746
f 748 757 747
f 748 759 758
f 749 760 759
f 751 760 750
f 751 762 761
f 752 753 762
f 763 624 623
f 763 625 624
f 763 626 625
f 763 627 626
f 763 628 627
f 763 629 628
f 763 630 629
f 763 631 630
f 763 632 631
f 763 623 632
f 753 754 764
f 754 755 764
f 755 756 764
f 756 757 764
f 757 758 764
f 758 759 764
f 759 760 764
f 760 761 764
f 761 762 764
f 762 753 764
f 198 208 207
f 199 209 208
f 199 200 210
f 201 211 210
f 202 212 211
f 202 203 213
f 203 204 214
f 205 215 214
f 205 206 216
f 206 197 207
f 208 218 217
f 209 219 218
f 209 210 220
f 211 221 220
f 212 222 221
f 212 213 223
f 213 214 224
f 215 225 224
f 215 216 226
f 216 207 217
f 218 228 227
f 219 229 228
f 219 220 230
f 221 231 230
f 222 232 231
f 222 223 233
f 223 224 234
f 225 235 234
f 225 226 236
f 226 217 227
f 228 238 237
f 229 239 238
f 229 230 240
f 231 241 240
f 232 242 241
f 232 233 243
f 233 234 244
f 235 245 244
f 235 236 246
f 236 227 237
f 238 248 247
f 239 249 248
f 239 240 250
f 241 251 250
f 242 252 251
f 242 243 253
f 243 244 254
f 245 255 254
f 245 246 256
f 246 237 247
f 248 258 257
f 249 259 258
f 249 250 260
f 251 261 260
f 252 262 261
f 252 253 263
f 253 254 264
f 255 265 264
f 255 256 266
f 256 247 257
f 258 268 267
f 259 269 268
f 259 260 270
f 261 271 270
f 262 272 271
f 262 263 273
f 263 264 274
f 265 275 274
f 265 266 276
f 266 257 267
f 268 278 277
f 269 279 278
f 269 270 280
f 271 281 280
f 272 282 281
f 272 273 283
f 273 274 284
f 275 285 284
f 275 276 286
f 276 267 277
f 278 288 287
f 279 289 288
f 279 280 290
f 281 291 290
f 282 292 291
f 282 283 293
f 283 284 294
f 285 295 294
f 285 286 296
f 286 277 287
f 288 298 297
f 289 299 298
f 289 290 300
f 291 301 300
f 292 302 301
f 292 293 303
f 293 294 304
f 295 305 304
f 295 296 306
f 296 287 297
f 298 308 307
f 299 309 308
f 299 300 310
f 301 311 310
f 302 312 311
f 302 303 313
f 303 304 314
f 305 315 314
f 305 306 316
f 306 297 307
f 308 318 317
f 309 319 318
f 309 310 320
f 311 321 320
f 312 322 321
f 312 313 323
f 313 314 324
f 315 325 324
f 315 316 326
f 316 307 317
f 318 328 327
f 319 329 328
f 319 320 330
f 321 331 330
f 322 332 331
f 322 323 333
f 323 324 334
f 325 335 334
f 325 326 336
f 326 317 327
f 340 350 349
f 341 351 350
f 341 342 352
f 343 353 352
f 344 354 353
f 344 345 355
f 345 346 356
f 347 357 356
f 347 348 358
f 348 339 349
f 350 360 359
f 351 361 360
f 351 352 362
f 353 363 362
f 354 364 363
f 354 355 365
f 355 356 366
f 357 367 366
f 357 358 368
f 358 349 359
f 360 370 369
f 361 371 370
f 361 362 372
f 363 373 372
f 364 374 373
f 364 365 375
f 365 366 376
f 367 377 376
f 367 368 378
f 368 359 369
f 370 380 379
f 371 381 380
f 371 372 382
f 373 383 382
f 374 384 383
f 374 375 385
f 375 376 386
f 377 387 386
f 377 378 388
f 378 369 379
f 380 390 389
f 381 391 390
f 381 382 392
f 383 393 392
f 384 394 393
f 384 385 395
f 385 386 396
f 387 397 396
f 387 388 398
f 388 379 389
f 390 400 399
f 391 401 400
f 391 392 402
f 393 403 402
f 394 404 403
f 394 395 405
f 395 396 406
f 397 407 406
f 397 398 408
f 398 389 399
f 400 410 409
f 401 411 410
f 401 402 412
f 403 413 412
f 404 414 413
f 404 405 415
f 405 406 416
f 407 417 416
f 407 408 418
f 408 399 409
f 410 420 419
f 411 421 420
f 411 412 422
f 413 423 422
f 414 424 423
f 414 415 425
f 415 416 426
f 417 427 426
f 417 418 428
f 418 409 419
f 420 430 429
f 421 431 430
f 421 422 432
f 423 433 432
f 424 434 433
f 424 425 435
f 425 426 436
f 427 437 436
f 427 428 438
f 428 419 429
f 430 440 439
f 431 441 440
f 431 432 442
f 433 443 442
f 434 444 443
f 434 435 445
f 435 436 446
f 437 447 446
f 437 438 448
f 438 429 439
f 440 450 449
f 441 451 450
f 441 442 452
f 443 453 452
f 444 454 453
f 444 445 455
f 445 446 456
f 447 457 456
f 447 448 458
f 448 439 449
f 450 460 459
f 451 461 460
f 451 452 462
f 453 463 462
f 454 464 463
f 454 455 465
f 455 456 466
f 457 467 466
f 457 458 468
f 458 449 459
f 460 470 469
f 461 471 470
f 461 462 472
f 463 473 472
f 464 474 473
f 464 465 475
f 465 466 476
f 467 477 476
f 467 468 478
f 468 459 469
f 482 492 491
f 483 493 492
f 483 484 494
f 485 495 494
f 486 496 495
f 486 487 497
f 487 488 498
f 489 499 498
f 489 490 500
f 490 481 491
f 492 502 501
f 493 503 502
f 493 494 504
f 495 505 504
f 496 506 505
f 496 497 507
f 497 498 508
f 499 509 508
f 499 500 510
f 500 491 501
f 502 512 511
f 503 513 512
f 503 504 514
f 505 515 514
f 506 516 515
f 506 507 517
f 507 508 518
f 509 519 518
f 509 510 520
f 510 501 511
f 512 522 521
f 513 523 522
f 513 514 524
f 515 525 524
f 516 526 525
f 516 517 527
f 517 518 528
f 519 529 528
f 519 520 530
f 520 511 521
f 522 532 531
f 523 533 532
f 523 524 534
f 525 535 534
f 526 536 535
f 526 527 537
f 527 528 538
f 529 539 538
f 529 530 540
f 530 521 531
f 532 542 541
f 533 543 542
f 533 534 544
f 535 545 544
f 536 546 545
f 536 537 547
f 537 538 548
f 539 549 548
f 539 540 550
f 540 531 541
f 542 552 551
f 543 553 552
f 543 544 554
f 545 555 554
f 546 556 555
f 546 547 557
f 547 548 558
f 549 559 558
f 549 550 560
f 550 541 551
f 552 562 561
f 553 563 562
f 553 554 564
f 555 565 564
f 556 566 565
f 556 557 567
f 557 558 568
f 559 569 568
f 559 560 570
f 560 551 561
f 562 572 571
f 563 573 572
f 563 564 574
f 565 575 574
f 566 576 575
f 566 567 577
f 567 568 578
f 569 579 578
f 569 570 580
f 570 561 571
f 572 582 581
f 573 583 582
f 573 574 584
f 575 585 584
f 576 586 585
f 576 577 587
f 577 578 588
f 579 589 588
f 579 580 590
f 580 571 581
f 582 592 591
f 583 593 592
f 583 584 594
f 585 595 594
f 586 596 595
f 586 587 597
f 587 588 598
f 589 599 598
f 589 590 600
f 590 581 591
f 592 602 601
f 593 603 602
f 593 594 604
f 595 605 604
f 596 606 605
f 596 597 607
f 597 598 608
f 599 609 608
f 599 600 610
f 600 591 601
f 602 612 611
f 603 613 612
f 603 604 614
f 605 615 614
f 606 616 615
f 606 607 617
f 607 608 618
f 609 619 618
f 609 610 620
f 610 601 611
f 624 634 633
f 625 635 634
f 625 626 636
f 627 637 636
f 628 638 637
f 628 629 639
f 629 630 640
f 631 641 640
f 631 632 642
f 632 623 633
f 634 644 643
f 635 645 644
f 635 636 646
f 637 647 646
f 638 648 647
f 638 639 649
f 639 640 650
f 641 651 650
f 641 642 652
f 642 633 643
f 644 654 653
f 645 655 654
f 645 646 656
f 647 657 656
f 648 658 657
f 648 649 659
f 649 650 660
f 651 661 660
f 651 652 662
f 652 643 653
f 654 664 663
f 655 665 664
f 655 656 666
f 657 667 666
f 658 668 667
f 658 659 669
f 659 660 670
f 661 671 670
f 661 662 672
f 662 653 663
f 664 674 673
f 665 675 674
f 665 666 676
f 667 677 676
f 668 678 677
f 668 669 679
f 669 670 680
f 671 681 680
f 671 672 682
f 672 663 673
f 674 684 683
f 675 685 684
f 675 676 686
f 677 687 686
f 678 688 687
f 678 679 689
f 679 680 690
f 681 691 690
f 681 682 692
f 682 673 683
f 684 694 693
f 685 695 694
f 685 686 696
f 687 697 696
f 688 698 697
f 688 689 699
f 689 690 700
f 691 701 700
f 691 692 702
f 692 683 693
f 694 704 703
f 695 705 704
f 695 696 706
f 697 707 706
f 698 708 707
f 698 699 709
f 699 700 710
f 701 711 710
f 701 702 712
f 702 693 703
f 704 714 713
f 705 715 714
f 705 706 716
f 707 717 716
f 708 718 717
f 708 709 719
f 709 710 720
f 711 721 720
f 711 712 722
f 712 703 713
f 714 724 723
f 715 725 724
f 715 716 726
f 717 727 726
f 718 728 727
f 718 719 729
f 719 720 730
f 721 731 730
f 721 722 732
f 722 713 723
f 724 734 733
f 725 735 734
f 725 726 736
f 727 737 736
f 728 738 737
f 728 729 739
f 729 730 740
f 731 741 740
f 731 732 742
f 732 723 733
f 734 744 743
f 735 745 744
f 735 736 746
f 737 747 746
f 738 748 747
f 738 739 749
f 739 740 750
f 741 751 750
f 741 742 752
f 742 733 743
f 744 754 753
f 745 755 754
f 745 746 756
f 747 757 756
f 748 758 757
f 748 749 759
f 749 750 760
f 751 761 760
f 751 752 762
f 752 743 753
