# celestial_dragon Jaw_Pearl.obj: Roblox cue frame, recentred on its bounding box
v -0.07545 0.04347 0.17228
v -0.08538 0.02901 0.16905
v -0.08313 0.02404 0.18358
v -0.08137 0.01186 0.19023
v -0.08261 0.00387 0.18278
v -0.07745 -0.00510 0.18544
v -0.07610 -0.01205 0.17460
v -0.06806 -0.00435 0.20020
v -0.07644 0.00304 0.19565
v -0.06984 0.00359 0.20467
v -0.07476 0.01190 0.20177
v -0.07595 0.02012 0.19979
v -0.07613 0.02841 0.19480
v -0.06886 0.02867 0.20408
v -0.06883 0.03690 0.19606
v -0.06766 0.04365 0.18590
v -0.07813 0.03734 0.18010
v -0.06715 0.04999 0.16864
v -0.06784 0.05208 0.14997
v -0.07708 0.04581 0.15209
v -0.06769 0.05119 0.12618
v -0.07757 0.04547 0.13646
v -0.07568 0.04353 0.11759
v -0.07609 0.03574 0.10134
v -0.06781 0.04354 0.10206
v -0.06035 0.04342 0.09584
v -0.05978 0.04919 0.10896
v -0.06787 0.03581 0.09028
v -0.05987 0.03123 0.08053
v -0.06766 0.02738 0.08253
v -0.05988 0.01990 0.07533
v -0.06908 0.01997 0.08052
v -0.06078 0.01008 0.07548
v -0.06888 0.01187 0.07995
v -0.06792 0.00390 0.08198
v -0.05925 -0.00468 0.08142
v -0.06896 -0.00455 0.08945
v -0.06353 -0.01283 0.09318
v -0.05861 -0.02089 0.10031
v -0.07819 -0.00476 0.10368
v -0.07530 -0.01099 0.10914
v -0.07672 0.00409 0.09227
v -0.07822 0.01189 0.09175
v -0.07782 0.02065 0.09164
v -0.07743 0.02802 0.09493
v -0.08383 0.03225 0.11733
v -0.08476 0.02028 0.10846
v -0.08437 0.03677 0.13847
v -0.08831 0.02820 0.14189
v -0.08962 0.01952 0.13353
v -0.08994 0.01189 0.15058
v -0.08820 0.00433 0.15922
v -0.08504 -0.00556 0.15038
v -0.08852 0.02011 0.16315
v -0.08395 0.03592 0.15843
v -0.08659 0.01192 0.17398
v -0.08370 -0.00382 0.16768
v -0.07776 -0.01449 0.15967
v -0.06769 -0.01998 0.16806
v -0.05700 -0.02432 0.16287
v -0.05952 -0.01815 0.18305
v -0.06856 -0.01365 0.18554
v -0.06032 -0.01234 0.19454
v -0.06014 -0.00526 0.20408
v -0.06044 0.00375 0.21074
v -0.06711 0.01194 0.20974
v -0.06691 0.01974 0.20959
v -0.05947 0.02763 0.21013
v -0.06046 0.03604 0.20281
v -0.05106 0.03659 0.20286
v -0.05195 0.04658 0.18746
v -0.06020 0.04569 0.18867
v -0.04400 0.04265 0.19011
v -0.04372 0.04895 0.17374
v -0.05149 0.05249 0.16809
v -0.04385 0.05207 0.15911
v -0.03406 0.04630 0.15895
v -0.02864 0.03546 0.17398
v -0.03591 0.04378 0.17512
v -0.03457 0.02813 0.19707
v -0.03579 0.03586 0.19071
v -0.02901 0.02037 0.19094
v -0.02880 0.01190 0.19108
v -0.02636 0.00387 0.18093
v -0.03495 0.00400 0.19907
v -0.03498 -0.00383 0.19212
v -0.03588 -0.01111 0.18204
v -0.02808 -0.00365 0.17608
v -0.02925 -0.01269 0.16116
v -0.03606 -0.02301 0.15686
v -0.02877 -0.01943 0.14984
v -0.02728 -0.02222 0.14565
v -0.03550 -0.02838 0.14634
v -0.02787 -0.03618 0.14099
v -0.02788 -0.02810 0.14424
v -0.02705 -0.04391 0.13219
v -0.03766 -0.03410 0.13094
v -0.04026 -0.03506 0.12062
v -0.05015 -0.02861 0.14335
v -0.04251 -0.02766 0.15006
v -0.05174 -0.02160 0.17383
v -0.04317 -0.02024 0.17232
v -0.05155 -0.01407 0.19259
v -0.04448 -0.01211 0.19198
v -0.05176 -0.00562 0.20421
v -0.04395 -0.00406 0.20199
v -0.05177 0.00298 0.21096
v -0.04531 0.00424 0.20923
v -0.04389 0.01131 0.21056
v -0.05197 0.01613 0.21439
v -0.04390 0.01988 0.21020
v -0.05194 0.02798 0.21021
v -0.04334 0.03061 0.20486
v -0.03584 0.02007 0.20239
v -0.03575 0.01128 0.20273
v -0.05976 0.01557 0.21395
v -0.05720 -0.02702 0.14023
v -0.05351 -0.02781 0.11586
v -0.04356 -0.03437 0.10648
v -0.05137 -0.02642 0.09733
v -0.04491 -0.03354 0.09640
v -0.04462 -0.03753 0.06567
v -0.04791 -0.02805 0.07780
v -0.04885 -0.01911 0.07026
v -0.04964 -0.01228 0.07706
v -0.04388 -0.00663 0.07418
v -0.04569 -0.00441 0.07594
v -0.04310 0.00499 0.07863
v -0.05188 0.00390 0.07616
v -0.05183 0.01702 0.07429
v -0.04247 0.01975 0.07896
v -0.04369 0.02811 0.08180
v -0.05193 0.03091 0.07980
v -0.04337 0.03640 0.08950
v -0.05202 0.04259 0.09350
v -0.04471 0.04347 0.09916
v -0.04471 0.04989 0.11567
v -0.05148 0.05215 0.11748
v -0.04292 0.05270 0.13823
v -0.05187 0.05495 0.14619
v -0.05981 0.05464 0.14230
v -0.03451 0.04752 0.13604
v -0.03519 0.04492 0.11895
v -0.02660 0.03695 0.12721
v -0.02935 0.04254 0.14219
v -0.02603 0.03718 0.15573
v -0.02180 0.02786 0.13340
v -0.02013 0.01941 0.13370
v -0.02002 0.00920 0.14475
v -0.02278 -0.00376 0.13561
v -0.02487 -0.00684 0.15246
v -0.02340 -0.01302 0.13669
v -0.01988 -0.02272 0.13818
v -0.02023 -0.02839 0.14364
v -0.01955 -0.01898 0.13321
v -0.01266 -0.02164 0.13469
v -0.01216 -0.01252 0.10977
v -0.01921 -0.01139 0.11417
v -0.02078 -0.00644 0.08598
v -0.01840 -0.00459 0.07434
v -0.01652 0.00399 0.03477
v -0.00842 0.01134 -0.00085
v -0.02045 0.01330 -0.02601
v -0.01229 0.01887 -0.06077
v -0.02348 0.01973 -0.09633
v -0.03263 0.01212 -0.04610
v -0.02860 0.00573 0.00815
v -0.03591 0.00320 0.00509
v -0.02772 -0.00417 0.06173
v -0.03486 -0.00549 0.05264
v -0.03588 -0.00646 0.06618
v -0.02933 -0.00505 0.07469
v -0.03333 -0.00402 0.07907
v -0.03588 -0.00108 0.08218
v -0.02797 -0.00388 0.09075
v -0.03068 0.00363 0.09302
v -0.03728 0.00378 0.08322
v -0.03454 0.02019 0.08768
v -0.03423 0.02810 0.09207
v -0.03563 0.03934 0.10334
v -0.02816 0.03213 0.10906
v -0.02598 0.01986 0.10467
v -0.02086 0.01106 0.12815
v -0.02312 -0.00507 0.12210
v -0.02494 0.00476 0.10921
v -0.02471 -0.00453 0.10373
v -0.04371 -0.01117 0.06350
v -0.04493 -0.01171 0.04803
v -0.04939 -0.02118 0.05322
v -0.04574 -0.03739 0.03365
v -0.05144 -0.02790 0.03552
v -0.04607 -0.00377 0.00713
v -0.05201 -0.01245 0.01276
v -0.05179 -0.00428 -0.03043
v -0.04329 0.00298 -0.02049
v -0.04582 0.00482 -0.05091
v -0.05285 -0.00357 -0.06334
v -0.04835 0.00400 -0.08284
v -0.05193 -0.01302 -0.07923
v -0.04490 -0.01981 -0.09373
v -0.05367 -0.01244 -0.06303
v -0.05482 -0.01219 -0.04200
v -0.05267 -0.02024 -0.04828
v -0.05451 -0.02052 -0.01185
v -0.05190 -0.02815 0.00222
v -0.05405 -0.01209 -0.00979
v -0.05366 -0.02055 0.01521
v -0.03535 -0.04377 0.02329
v -0.03719 -0.04465 0.06838
v -0.03503 -0.04395 0.10151
v -0.02757 -0.04702 0.11944
v -0.01578 -0.04934 0.14081
v -0.01984 -0.04409 0.14671
v -0.01988 -0.03082 0.14618
v -0.01281 -0.03589 0.15610
v -0.00347 -0.02963 0.15231
v 0.01216 -0.02029 0.13142
v 0.01194 -0.01501 0.11740
v -0.00263 -0.00576 0.08510
v 0.00004 0.00119 0.05639
v 0.00813 0.01232 -0.00709
v -0.00405 0.01861 -0.05214
v 0.00817 0.02010 -0.06894
v 0.00012 0.02295 -0.09783
v 0.00005 0.02465 -0.13081
v 0.00783 0.02455 -0.14887
v -0.00787 0.02405 -0.16809
v 0.00047 0.02306 -0.18627
v 0.00369 0.01892 -0.20494
v -0.00408 0.01892 -0.20478
v 0.00038 0.01185 -0.21439
v 0.00407 0.00341 -0.20956
v -0.00389 0.00362 -0.20968
v -0.00011 -0.00477 -0.19671
v -0.00399 -0.01599 -0.16708
v 0.00410 -0.01562 -0.16804
v 0.00858 -0.02356 -0.13920
v -0.00393 -0.03134 -0.10770
v 0.00414 -0.03382 -0.09543
v -0.00050 -0.04272 -0.04571
v 0.00008 -0.04936 0.00432
v 0.00405 -0.05351 0.05300
v -0.00739 -0.05245 0.04107
v -0.00376 -0.05495 0.08896
v 0.00390 -0.05494 0.10662
v -0.00772 -0.05440 0.11500
v 0.00430 -0.05200 0.14117
v -0.00443 -0.05154 0.14333
v 0.00008 -0.04855 0.15536
v 0.00062 -0.04419 0.16168
v -0.00388 -0.03610 0.16013
v 0.00412 -0.03610 0.16013
v 0.00393 -0.02983 0.15258
v 0.01341 -0.03568 0.15569
v 0.01208 -0.02803 0.14629
v 0.02012 -0.02272 0.13818
v 0.02118 -0.02872 0.14369
v 0.02769 -0.03600 0.14116
v 0.02812 -0.02810 0.14424
v 0.02534 -0.04356 0.13738
v 0.02006 -0.04417 0.14675
v 0.02031 -0.04904 0.13280
v 0.01246 -0.04971 0.14391
v 0.01246 -0.04456 0.15602
v 0.02755 -0.04517 0.12826
v 0.03681 -0.03524 0.12991
v 0.03661 -0.03253 0.13729
v 0.03694 -0.02876 0.14615
v 0.04335 -0.02576 0.15688
v 0.03615 -0.02130 0.16016
v 0.03617 -0.01124 0.18187
v 0.04362 -0.02023 0.17260
v 0.04440 -0.01175 0.19225
v 0.03522 -0.00396 0.19198
v 0.04418 -0.00401 0.20203
v 0.03605 0.00766 0.20218
v 0.04396 0.01153 0.21046
v 0.04550 0.00452 0.20930
v 0.04412 0.01988 0.21018
v 0.03546 0.02386 0.20068
v 0.04275 0.02828 0.20576
v 0.04452 0.03505 0.20112
v 0.03610 0.03557 0.19120
v 0.04433 0.04305 0.18934
v 0.04434 0.04870 0.17527
v 0.03610 0.04363 0.17545
v 0.02829 0.03627 0.17023
v 0.02699 0.02860 0.17922
v 0.02906 0.02041 0.19052
v 0.02910 0.01196 0.19124
v 0.02969 0.00448 0.18920
v 0.02823 -0.00376 0.17557
v 0.02959 -0.01188 0.16298
v 0.02662 -0.01007 0.15431
v 0.02367 0.00786 0.17384
v 0.02382 0.01992 0.17487
v 0.02603 0.03714 0.15181
v 0.03389 0.04578 0.15992
v 0.03599 0.04869 0.14605
v 0.02962 0.04256 0.14224
v 0.02694 0.03705 0.12696
v 0.03456 0.04580 0.12537
v 0.04469 0.04991 0.11630
v 0.03707 0.04295 0.10897
v 0.04450 0.04331 0.09933
v 0.05192 0.04562 0.09922
v 0.05198 0.03671 0.08540
v 0.04364 0.03631 0.08940
v 0.04389 0.02815 0.08186
v 0.05212 0.02790 0.07813
v 0.05207 0.01702 0.07429
v 0.04485 0.01766 0.07713
v 0.03716 0.00406 0.08372
v 0.04412 0.00390 0.07828
v 0.04593 -0.00441 0.07594
v 0.03612 -0.00108 0.08218
v 0.03606 -0.00520 0.07518
v 0.04412 -0.00663 0.07418
v 0.04453 -0.01173 0.06296
v 0.03612 -0.00646 0.06618
v 0.03463 -0.00523 0.05280
v 0.04512 -0.01156 0.04752
v 0.04496 -0.00398 0.01435
v 0.03541 0.00319 0.00723
v 0.05193 -0.00416 -0.02993
v 0.04383 0.00341 -0.02483
v 0.04698 0.00491 -0.06027
v 0.04252 0.01049 -0.10692
v 0.04814 0.00417 -0.09683
v 0.05130 -0.00395 -0.09569
v 0.05137 -0.01228 -0.08670
v 0.04788 -0.02027 -0.07952
v 0.04385 -0.02684 -0.06681
v 0.05213 -0.01950 -0.05749
v 0.05432 -0.01201 -0.05905
v 0.05280 -0.00307 -0.06315
v 0.05516 -0.01213 -0.03154
v 0.05431 -0.02034 -0.02886
v 0.05164 -0.02652 -0.02245
v 0.05449 -0.02051 0.00535
v 0.05222 -0.01222 0.01248
v 0.05211 -0.02812 0.00452
v 0.05197 -0.02758 0.03158
v 0.04657 -0.03672 0.03230
v 0.05213 -0.01939 0.03295
v 0.04915 -0.02035 0.05603
v 0.04589 -0.03681 0.05929
v 0.04808 -0.02825 0.07939
v 0.04931 -0.02037 0.07349
v 0.04950 -0.01194 0.07657
v 0.05242 -0.01770 0.08224
v 0.04370 -0.03461 0.10272
v 0.04979 -0.02810 0.09820
v 0.03417 -0.04372 0.10822
v 0.04059 -0.03533 0.11946
v 0.04909 -0.03028 0.12579
v 0.05989 -0.02614 0.13973
v 0.05203 -0.02857 0.11494
v 0.05197 -0.02781 0.14607
v 0.05118 -0.02524 0.16143
v 0.06621 -0.02097 0.16757
v 0.06025 -0.02033 0.17613
v 0.05277 -0.01558 0.19027
v 0.06061 -0.01374 0.19226
v 0.06033 -0.00522 0.20412
v 0.05199 -0.00563 0.20421
v 0.06057 0.00376 0.21077
v 0.05187 0.00312 0.21104
v 0.05231 0.01661 0.21425
v 0.06006 0.01516 0.21387
v 0.05969 0.02771 0.21009
v 0.05209 0.02787 0.21025
v 0.05137 0.03619 0.20332
v 0.06063 0.03625 0.20261
v 0.06009 0.04602 0.18808
v 0.05175 0.04625 0.18816
v 0.05209 0.05192 0.17039
v 0.05989 0.05184 0.17008
v 0.05226 0.05450 0.15501
v 0.05986 0.05452 0.15007
v 0.06087 0.05351 0.12733
v 0.05197 0.05376 0.12578
v 0.05993 0.04927 0.10916
v 0.06781 0.04368 0.10204
v 0.06793 0.05119 0.12622
v 0.06061 0.04309 0.09528
v 0.06807 0.03589 0.09034
v 0.06017 0.03124 0.08055
v 0.06779 0.02753 0.08253
v 0.06012 0.01990 0.07533
v 0.06925 0.01995 0.08046
v 0.06910 0.01188 0.07994
v 0.06102 0.01008 0.07548
v 0.06823 0.00402 0.08196
v 0.05946 -0.00460 0.08136
v 0.06942 -0.00441 0.08958
v 0.06004 -0.01303 0.08902
v 0.06324 -0.01955 0.10548
v 0.07538 -0.01140 0.10967
v 0.07459 -0.00633 0.09875
v 0.07683 0.00414 0.09204
v 0.07845 0.01195 0.09172
v 0.07794 0.02089 0.09148
v 0.07643 0.02816 0.09310
v 0.07610 0.03575 0.10095
v 0.08545 0.02851 0.11664
v 0.08276 0.03522 0.11900
v 0.07571 0.04361 0.11724
v 0.07787 0.04541 0.13632
v 0.06804 0.05184 0.15568
v 0.07720 0.04592 0.15180
v 0.07599 0.04338 0.17166
v 0.06861 0.04571 0.18106
v 0.06893 0.03725 0.19570
v 0.07789 0.02820 0.19256
v 0.06934 0.02880 0.20376
v 0.07617 0.02009 0.19982
v 0.07080 0.01155 0.20725
v 0.07652 0.00282 0.19580
v 0.06969 0.00359 0.20507
v 0.06837 -0.00469 0.19983
v 0.07786 -0.00524 0.18485
v 0.06882 -0.01384 0.18519
v 0.07608 -0.01210 0.17517
v 0.08403 -0.00389 0.16694
v 0.08371 0.00372 0.18028
v 0.08165 0.01184 0.19016
v 0.08391 0.01998 0.18349
v 0.07860 0.03705 0.17995
v 0.08449 0.02847 0.17477
v 0.08410 0.03596 0.15909
v 0.08466 0.03668 0.13854
v 0.08854 0.02756 0.15094
v 0.08987 0.01941 0.13370
v 0.08871 0.02027 0.16347
v 0.08918 0.00750 0.15783
v 0.08527 -0.00558 0.15039
v 0.08497 -0.00498 0.13017
v 0.08883 0.00419 0.13376
v 0.08994 0.01187 0.13370
v 0.08509 0.02021 0.10871
v 0.08526 0.01149 0.10842
v 0.08320 -0.00042 0.11082
v 0.07808 -0.01381 0.12601
v 0.07719 -0.01664 0.14263
v 0.07008 -0.02149 0.14902
v 0.07802 -0.01444 0.15981
v 0.06782 -0.02089 0.12141
v 0.05473 -0.02086 0.09272
v 0.08682 0.01190 0.17405
v 0.06720 0.01963 0.20957
v 0.05212 0.00390 0.07616
v 0.04325 0.05274 0.13839
v 0.04408 0.05206 0.15919
v 0.02828 -0.04862 0.10409
v 0.02827 -0.04915 0.05950
v 0.03704 -0.04459 0.07983
v 0.03668 -0.04428 0.03965
v 0.03254 -0.04401 0.00940
v 0.02896 -0.03860 -0.04295
v 0.03580 -0.03577 -0.04340
v 0.02857 -0.02965 -0.09298
v 0.01714 -0.02952 -0.10869
v 0.02466 -0.02068 -0.13656
v 0.01698 -0.01334 -0.16857
v 0.02015 -0.00421 -0.18739
v 0.01216 -0.00506 -0.19241
v 0.02071 0.00360 -0.19823
v 0.01272 0.00383 -0.20594
v 0.02058 0.01272 -0.19944
v 0.01316 0.01216 -0.20879
v 0.01161 0.01990 -0.19545
v 0.01212 0.01565 -0.20582
v 0.01961 0.01905 -0.18553
v 0.02842 0.01253 -0.18364
v 0.02775 0.01659 -0.17169
v 0.02741 0.01930 -0.15149
v 0.01476 0.02274 -0.16937
v 0.02118 0.02165 -0.12231
v 0.02701 0.01921 -0.10624
v 0.01982 0.01860 -0.07053
v 0.02891 0.01268 -0.03885
v 0.00830 0.01670 -0.03838
v 0.02040 0.01115 -0.01125
v 0.02525 0.00386 0.02508
v 0.02665 -0.00429 0.06493
v 0.01863 -0.00506 0.07647
v 0.02943 -0.00493 0.08208
v 0.02774 -0.00396 0.09170
v 0.02215 -0.00668 0.09031
v 0.02635 0.00367 0.10495
v 0.02490 -0.00394 0.10669
v 0.02847 0.01932 0.09909
v 0.02405 0.01753 0.11115
v 0.02961 0.02796 0.10156
v 0.02309 0.02806 0.12479
v 0.02150 0.01998 0.12589
v 0.02030 0.01178 0.13404
v 0.02354 -0.00369 0.12350
v 0.02050 -0.00938 0.10758
v 0.02312 -0.01149 0.13105
v 0.01964 -0.01502 0.12602
v 0.02285 -0.01939 0.13776
v 0.02444 -0.00936 0.14301
v 0.02085 0.00801 0.15615
v 0.02013 0.01952 0.15064
v 0.02212 0.02768 0.15450
v 0.01213 -0.00885 0.09543
v 0.02994 0.03520 0.11025
v 0.03620 0.03229 0.09300
v 0.03596 0.01947 0.08560
v 0.03124 0.00372 0.09242
v 0.00946 0.00613 0.02907
v 0.03545 0.01157 -0.05227
v 0.03799 0.01355 -0.09457
v 0.03586 0.01501 -0.13298
v 0.03808 0.01235 -0.14449
v 0.04565 0.00574 -0.12077
v 0.04455 0.00429 -0.13387
v 0.03425 0.01100 -0.16884
v 0.03993 0.00397 -0.15608
v 0.03743 -0.00405 -0.15828
v 0.03618 -0.01199 -0.14373
v 0.04356 -0.00421 -0.13852
v 0.03587 -0.01919 -0.12174
v 0.04504 -0.01199 -0.11834
v 0.04793 -0.00406 -0.11896
v 0.04338 -0.01939 -0.10080
v 0.03632 -0.02755 -0.08668
v 0.02846 -0.01333 -0.15439
v 0.02872 -0.00430 -0.17579
v 0.03508 0.00363 -0.17177
v 0.02922 0.00372 -0.18509
v 0.01190 0.02236 -0.10119
v 0.01710 -0.03687 -0.07189
v 0.01607 -0.04541 -0.01785
v 0.04639 -0.02881 -0.04553
v 0.04418 -0.03654 -0.00026
v 0.01645 -0.05090 0.03445
v 0.02073 -0.05217 0.07912
v 0.01174 -0.05419 0.08972
v 0.01573 -0.05251 0.12010
v 0.02814 -0.02213 0.14599
v -0.01224 -0.04447 0.15603
v -0.01678 -0.05192 0.12262
v -0.02798 -0.04963 0.08127
v -0.02001 -0.05227 0.08780
v -0.02910 -0.04563 0.01318
v -0.02070 -0.04636 -0.00182
v -0.01184 -0.04687 -0.01055
v -0.01691 -0.03781 -0.06650
v -0.01575 -0.03055 -0.10511
v -0.02032 -0.02043 -0.14203
v -0.01193 -0.01906 -0.15343
v -0.01678 -0.01159 -0.17332
v -0.02018 -0.00419 -0.18717
v -0.01230 -0.00345 -0.19521
v -0.02027 0.00372 -0.19853
v -0.01234 0.00380 -0.20594
v -0.01290 0.01267 -0.20872
v -0.02007 0.01241 -0.20026
v -0.01183 0.02019 -0.19403
v -0.02041 0.01841 -0.18522
v -0.02441 0.01996 -0.16186
v -0.02721 0.01674 -0.17202
v -0.02831 0.01216 -0.18378
v -0.02398 0.02095 -0.13187
v -0.01166 0.02371 -0.12512
v -0.03789 0.01389 -0.09775
v -0.04195 0.01076 -0.09811
v -0.04710 0.00499 -0.10729
v -0.03846 0.01253 -0.13864
v -0.04513 0.00423 -0.12946
v -0.03927 0.00441 -0.15830
v -0.04360 -0.00471 -0.13697
v -0.03639 -0.01194 -0.14269
v -0.04575 -0.01171 -0.11584
v -0.04766 -0.00442 -0.11844
v -0.05104 -0.00445 -0.09562
v -0.03598 -0.02049 -0.11667
v -0.03751 -0.02913 -0.07527
v -0.02867 -0.02940 -0.09353
v -0.02903 -0.03728 -0.05027
v -0.03740 -0.03751 -0.02577
v -0.04334 -0.03559 -0.01287
v -0.04887 -0.02802 -0.03339
v -0.04367 -0.02808 -0.05975
v -0.02899 -0.02092 -0.12836
v -0.02849 -0.01273 -0.15578
v -0.03627 -0.00343 -0.16149
v -0.02835 -0.00412 -0.17636
v -0.02976 0.00384 -0.18374
v -0.03406 0.01124 -0.16795
v -0.01595 -0.05265 0.06144
v -0.02092 0.00808 0.15925
v -0.02149 0.02459 0.16015
v -0.02639 0.02883 0.17751
v -0.02316 0.01609 0.17536
v -0.06069 0.05273 0.12328
v -0.05195 -0.01900 0.08303
v -0.06791 -0.02063 0.12112
v -0.07780 -0.01385 0.12595
v -0.07697 -0.01661 0.14249
v -0.06948 -0.02176 0.14829
v -0.08473 -0.00496 0.13012
v -0.08418 0.00334 0.11097
v -0.08500 0.01138 0.10835
v -0.08873 0.00695 0.12907
v -0.06008 0.05312 0.16404
f 17 2 3
f 6 62 8
f 6 8 9
f 10 9 8
f 10 11 9
f 15 16 17
f 1 16 18
f 22 21 23
f 25 27 26
f 21 27 25
f 28 25 26
f 30 29 31
f 32 30 31
f 34 33 35
f 35 33 36
f 38 37 36
f 40 38 41
f 37 40 42
f 35 42 34
f 43 34 42
f 46 45 47
f 46 47 50
f 49 48 46
f 52 51 608
f 52 53 57
f 56 54 51
f 56 52 5
f 5 52 57
f 58 7 57
f 62 59 61
f 62 61 63
f 63 64 8
f 8 64 65
f 66 10 65
f 14 67 68
f 69 14 68
f 71 74 75
f 140 75 76
f 79 78 146
f 77 79 146
f 78 81 597
f 597 80 82
f 85 84 83
f 89 87 90
f 90 93 92
f 97 94 93
f 93 94 95
f 94 97 96
f 99 117 97
f 60 99 100
f 102 101 100
f 105 103 104
f 110 109 111
f 112 110 111
f 70 112 113
f 80 81 113
f 113 81 73
f 111 114 113
f 80 113 114
f 114 111 115
f 68 116 110
f 112 68 110
f 85 108 106
f 85 106 86
f 86 106 104
f 120 119 118
f 98 118 119
f 123 122 121
f 127 126 125
f 133 134 132
f 136 134 135
f 137 138 139
f 139 142 143
f 137 139 143
f 142 145 144
f 146 147 144
f 91 92 152
f 155 92 153
f 158 157 159
f 163 162 164
f 165 164 568
f 569 166 165
f 170 169 167
f 172 169 171
f 178 176 177
f 181 180 143
f 147 181 144
f 183 150 184
f 182 185 176
f 186 176 185
f 186 175 176
f 18 20 1
f 134 180 179
f 182 176 178
f 169 172 160
f 123 189 191
f 193 188 192
f 188 170 192
f 192 194 193
f 194 196 197
f 198 196 570
f 198 579 197
f 200 203 199
f 197 201 202
f 204 203 205
f 207 205 191
f 98 119 210
f 212 96 545
f 94 213 215
f 94 215 214
f 220 513 162
f 225 226 227
f 228 229 230
f 231 232 233
f 235 234 236
f 235 236 237
f 244 242 245
f 246 245 247
f 251 250 252
f 253 254 255
f 217 255 256
f 259 257 258
f 261 262 260
f 264 263 261
f 254 264 261
f 260 262 265
f 266 265 355
f 270 268 269
f 270 269 272
f 270 272 271
f 273 271 272
f 276 278 277
f 280 279 281
f 283 282 284
f 284 285 286
f 274 291 292
f 293 271 292
f 292 294 293
f 298 297 287
f 298 299 300
f 300 302 301
f 302 303 304
f 510 304 305
f 305 304 303
f 306 307 305
f 308 305 307
f 308 307 309
f 310 309 307
f 309 312 511
f 511 312 313
f 317 316 315
f 317 315 318
f 323 321 322
f 321 323 324
f 327 329 328
f 337 340 338
f 340 341 345
f 322 346 345
f 350 349 319
f 349 350 351
f 352 354 457
f 355 358 356
f 360 361 362
f 363 362 364
f 374 373 371
f 379 377 378
f 383 385 384
f 386 383 384
f 389 388 387
f 388 389 390
f 391 390 389
f 393 392 394
f 393 394 395
f 449 400 398
f 396 401 400
f 407 405 408
f 408 405 384
f 385 409 408
f 410 413 412
f 413 429 412
f 413 414 429
f 429 414 415
f 414 416 415
f 416 417 415
f 418 420 419
f 423 422 421
f 422 425 426
f 415 428 430
f 429 415 430
f 411 412 431
f 433 435 434
f 439 437 438
f 433 434 406
f 444 448 399
f 448 398 399
f 402 442 401
f 443 401 442
f 353 398 358
f 448 358 398
f 353 449 398
f 406 407 432
f 437 445 438
f 447 437 425
f 436 437 439
f 428 435 430
f 436 439 440
f 435 450 436
f 430 433 431
f 415 417 428
f 426 419 422
f 424 361 447
f 364 423 421
f 421 422 419
f 416 371 451
f 427 417 418
f 417 416 451
f 414 374 416
f 429 431 412
f 378 413 410
f 401 396 394
f 401 443 400
f 400 443 399
f 400 399 398
f 449 351 397
f 315 395 350
f 397 350 395
f 396 395 394
f 389 404 403
f 404 389 387
f 387 388 386
f 405 387 384
f 383 381 385
f 303 453 382
f 453 302 299
f 410 380 378
f 377 379 454
f 375 413 378
f 375 414 413
f 375 374 414
f 370 451 371
f 451 370 418
f 369 277 368
f 278 275 368
f 365 421 367
f 367 421 420
f 363 366 273
f 275 273 366
f 365 364 421
f 423 362 361
f 272 360 363
f 446 357 448
f 352 353 358
f 355 352 358
f 265 455 354
f 354 455 457
f 457 456 458
f 456 459 458
f 539 536 459
f 459 460 461
f 462 463 464
f 463 237 464
f 465 467 466
f 467 468 466
f 467 469 468
f 472 474 470
f 474 476 475
f 477 476 474
f 483 481 223
f 483 221 484
f 490 489 488
f 487 490 488
f 491 512 492
f 489 492 512
f 494 495 493
f 496 301 509
f 496 494 497
f 501 499 500
f 501 502 503
f 503 502 256
f 505 504 294
f 502 500 218
f 508 218 500
f 508 500 490
f 504 498 499
f 499 491 492
f 496 497 506
f 509 510 495
f 489 316 488
f 508 490 487
f 487 486 513
f 321 485 486
f 482 485 324
f 326 514 324
f 515 328 516
f 517 518 519
f 517 521 520
f 522 524 523
f 526 523 524
f 518 527 519
f 329 330 518
f 330 331 526
f 331 528 526
f 333 529 528
f 525 528 529
f 525 526 528
f 522 531 532
f 475 520 532
f 533 532 531
f 530 465 531
f 521 522 532
f 481 484 482
f 223 481 534
f 482 514 480
f 480 516 477
f 534 479 226
f 226 479 478
f 477 516 517
f 479 477 478
f 466 533 531
f 465 466 531
f 464 465 530
f 464 525 529
f 462 464 529
f 461 462 529
f 461 333 537
f 342 538 339
f 538 459 461
f 542 541 540
f 456 539 459
f 540 456 455
f 540 455 542
f 457 347 352
f 348 351 449
f 353 348 449
f 350 397 351
f 457 344 347
f 348 347 343
f 346 348 343
f 344 458 538
f 344 538 342
f 344 342 343
f 340 339 338
f 339 537 334
f 333 334 537
f 332 333 528
f 334 332 331
f 515 327 328
f 341 337 325
f 324 323 326
f 485 321 324
f 486 320 321
f 350 319 318
f 487 488 317
f 318 315 350
f 317 488 316
f 309 511 510
f 308 309 510
f 388 307 386
f 306 386 307
f 306 383 386
f 510 305 308
f 302 453 303
f 301 304 509
f 297 300 301
f 298 300 297
f 270 293 294
f 543 270 294
f 291 295 292
f 290 295 291
f 296 289 288
f 287 283 286
f 285 376 377
f 373 376 282
f 284 282 376
f 291 276 290
f 278 276 275
f 276 291 274
f 275 274 273
f 274 292 271
f 293 270 271
f 268 270 543
f 259 268 543
f 265 354 355
f 542 262 263
f 247 542 263
f 263 262 261
f 254 258 257
f 259 258 267
f 502 217 256
f 255 254 257
f 544 249 250
f 545 248 212
f 545 246 248
f 546 547 545
f 211 546 545
f 546 594 547
f 548 549 594
f 553 554 552
f 555 556 557
f 556 558 557
f 557 558 559
f 561 563 562
f 564 227 562
f 563 564 562
f 565 564 563
f 566 565 563
f 569 165 567
f 571 572 573
f 200 580 581
f 581 580 582
f 581 582 583
f 584 583 548
f 208 585 584
f 585 586 587
f 584 587 581
f 583 582 551
f 582 580 588
f 199 579 577
f 573 575 578
f 578 575 577
f 200 577 580
f 588 589 553
f 589 590 591
f 591 590 592
f 574 592 590
f 593 564 565
f 574 572 593
f 575 574 590
f 561 592 566
f 592 561 558
f 555 589 591
f 575 590 576
f 576 577 575
f 569 567 572
f 593 572 564
f 561 566 563
f 592 558 556
f 592 556 591
f 555 591 556
f 553 589 555
f 582 552 551
f 583 551 549
f 549 550 243
f 547 594 246
f 547 246 545
f 245 541 542
f 594 243 244
f 541 242 539
f 539 241 536
f 536 240 535
f 551 238 240
f 535 239 463
f 554 235 238
f 236 465 237
f 236 467 465
f 560 230 231
f 560 562 230
f 472 473 229
f 562 228 230
f 228 478 472
f 227 228 562
f 568 225 227
f 568 224 225
f 224 534 225
f 224 223 534
f 220 508 487
f 219 508 220
f 218 508 219
f 544 215 213
f 213 212 544
f 210 546 211
f 189 207 191
f 207 189 193
f 207 206 204
f 586 205 203
f 204 202 203
f 201 199 203
f 196 569 570
f 206 193 194
f 188 193 189
f 209 190 208
f 191 190 122
f 170 168 192
f 168 166 195
f 196 195 166
f 164 222 224
f 166 163 165
f 167 161 163
f 169 160 161
f 160 219 220
f 173 175 159
f 184 158 186
f 153 154 156
f 597 596 78
f 596 598 595
f 151 88 89
f 595 151 149
f 147 596 148
f 146 596 147
f 180 136 137
f 134 136 180
f 132 134 179
f 173 127 174
f 124 600 125
f 38 125 600
f 187 189 124
f 209 210 122
f 39 600 120
f 119 120 121
f 40 605 606
f 608 607 606
f 608 606 605
f 603 602 601
f 601 41 39
f 211 98 210
f 96 213 94
f 95 94 214
f 154 95 214
f 93 95 92
f 102 100 90
f 102 90 87
f 86 104 87
f 86 88 84
f 83 115 85
f 82 80 114
f 598 597 82
f 81 78 79
f 609 75 140
f 18 609 19
f 609 72 71
f 75 609 71
f 71 70 73
f 69 68 112
f 70 69 112
f 67 116 68
f 103 61 101
f 62 7 59
f 61 59 60
f 7 58 59
f 58 53 603
f 603 53 605
f 50 608 51
f 54 49 50
f 22 23 48
f 44 47 45
f 42 35 37
f 40 37 38
f 41 38 39
f 36 127 125
f 38 36 125
f 36 37 35
f 45 30 44
f 32 44 30
f 30 45 28
f 45 24 28
f 29 28 26
f 28 24 25
f 21 599 27
f 21 141 599
f 19 141 21
f 19 609 141
f 18 72 609
f 18 16 72
f 3 13 17
f 16 15 72
f 69 72 15
f 15 17 13
f 69 15 14
f 14 12 67
f 12 4 11
f 11 10 66
f 4 9 11
f 62 63 8
f 6 57 7
f 5 6 9
f 4 5 9
f 56 5 4
f 54 3 2
f 17 55 2
f 3 56 4
f 60 117 99
f 505 506 498
f 497 494 498
f 360 269 359
f 450 428 427
f 197 199 201
f 550 240 241
f 513 484 221
f 322 341 323
f 14 13 12
f 15 13 14
f 1 17 16
f 31 34 32
f 23 25 24
f 30 28 29
f 43 32 34
f 608 53 52
f 24 45 46
f 70 72 69
f 54 2 49
f 49 2 55
f 55 1 20
f 56 3 54
f 56 51 52
f 604 59 58
f 65 10 8
f 77 74 79
f 71 73 74
f 104 101 102
f 81 80 597
f 86 84 85
f 88 86 87
f 91 90 92
f 98 211 96
f 97 98 96
f 101 60 100
f 109 107 108
f 106 105 104
f 107 105 106
f 108 107 106
f 107 116 65
f 79 73 81
f 111 109 115
f 113 112 111
f 115 108 85
f 131 133 132
f 61 60 101
f 125 187 124
f 125 126 187
f 129 128 127
f 129 130 128
f 130 131 128
f 138 136 135
f 134 133 135
f 152 151 91
f 138 140 139
f 143 142 144
f 77 146 145
f 77 145 142
f 146 144 145
f 149 151 150
f 154 92 95
f 158 156 157
f 155 153 156
f 176 174 177
f 159 157 160
f 163 161 162
f 165 163 164
f 166 168 167
f 168 170 167
f 169 170 171
f 181 148 182
f 175 173 174
f 178 132 179
f 184 150 152
f 185 183 184
f 185 184 186
f 179 181 182
f 179 180 181
f 179 182 178
f 217 216 253
f 131 178 177
f 187 171 170
f 188 187 170
f 189 187 188
f 123 191 122
f 194 192 195
f 195 196 194
f 197 196 198
f 203 200 587
f 202 201 203
f 202 194 197
f 204 206 202
f 202 206 194
f 207 204 205
f 207 193 206
f 210 119 121
f 96 211 545
f 213 96 212
f 154 214 215
f 156 154 216
f 218 156 217
f 483 162 221
f 157 218 219
f 162 513 221
f 253 251 252
f 222 483 223
f 222 223 224
f 227 226 228
f 231 230 229
f 234 233 232
f 238 235 237
f 238 237 239
f 240 238 239
f 243 241 242
f 244 243 242
f 246 244 245
f 248 246 247
f 249 248 247
f 279 276 277
f 255 257 256
f 258 261 260
f 267 258 266
f 274 271 273
f 276 274 275
f 282 280 281
f 292 505 294
f 283 287 288
f 280 288 289
f 505 296 506
f 507 296 288
f 310 312 309
f 287 507 288
f 305 303 306
f 314 316 313
f 313 312 314
f 318 320 317
f 325 327 326
f 321 320 319
f 321 319 322
f 323 341 325
f 336 329 327
f 361 359 357
f 336 337 335
f 336 325 337
f 338 339 334
f 337 341 340
f 340 342 339
f 340 345 343
f 341 322 345
f 345 346 343
f 343 347 344
f 346 349 348
f 319 349 346
f 349 351 348
f 348 352 347
f 352 355 354
f 266 355 356
f 358 357 356
f 366 364 365
f 362 363 360
f 365 368 366
f 368 370 369
f 371 369 370
f 376 374 375
f 373 372 371
f 375 377 376
f 380 382 379
f 379 378 380
f 392 390 391
f 382 381 383
f 306 382 383
f 387 386 384
f 394 402 401
f 397 395 396
f 397 400 449
f 402 391 403
f 409 407 408
f 405 406 404
f 410 412 411
f 420 421 419
f 423 361 424
f 424 425 422
f 429 430 431
f 432 431 433
f 436 425 437
f 432 433 406
f 441 440 442
f 406 434 441
f 439 442 440
f 402 441 442
f 439 438 443
f 447 361 446
f 448 445 446
f 444 443 438
f 447 446 445
f 445 448 444
f 438 445 444
f 409 410 411
f 447 445 437
f 436 426 425
f 450 426 436
f 435 428 450
f 433 430 435
f 428 417 427
f 427 419 426
f 450 427 426
f 425 424 447
f 422 423 424
f 418 367 420
f 427 418 419
f 418 417 451
f 441 404 406
f 406 405 407
f 395 452 393
f 400 397 396
f 385 380 410
f 452 311 393
f 311 390 393
f 391 389 403
f 404 387 405
f 385 408 384
f 453 379 382
f 469 470 468
f 285 377 454
f 374 371 416
f 372 279 369
f 277 278 368
f 367 418 370
f 275 366 368
f 364 362 423
f 361 357 446
f 448 357 358
f 357 359 356
f 455 456 457
f 459 536 460
f 460 535 462
f 462 535 463
f 464 237 465
f 470 473 472
f 496 297 301
f 478 474 472
f 478 477 474
f 480 477 479
f 481 482 480
f 483 484 481
f 484 485 482
f 494 493 491
f 496 509 495
f 501 500 502
f 504 501 503
f 505 498 504
f 507 496 506
f 494 499 498
f 218 217 502
f 504 499 501
f 499 492 500
f 493 510 511
f 506 497 498
f 512 493 511
f 490 492 489
f 512 511 313
f 496 495 494
f 316 512 313
f 523 464 530
f 513 486 485
f 513 485 484
f 516 328 517
f 517 328 518
f 523 526 525
f 518 330 527
f 331 332 528
f 519 527 524
f 527 330 526
f 527 526 524
f 520 477 517
f 530 531 522
f 468 475 533
f 475 532 533
f 524 521 519
f 523 530 522
f 331 336 335
f 521 532 520
f 517 519 521
f 328 329 518
f 482 324 514
f 480 514 515
f 534 481 479
f 479 481 480
f 480 515 516
f 476 520 475
f 474 475 470
f 533 466 468
f 529 333 461
f 461 460 462
f 339 538 537
f 538 461 537
f 460 536 535
f 539 540 541
f 456 540 539
f 348 353 352
f 457 458 344
f 322 319 346
f 538 458 459
f 340 343 342
f 334 337 338
f 335 334 331
f 317 486 487
f 333 332 334
f 515 514 327
f 514 326 327
f 323 325 326
f 452 312 311
f 315 314 452
f 390 310 388
f 296 290 289
f 310 307 388
f 509 304 510
f 301 302 304
f 302 300 299
f 299 454 453
f 454 299 298
f 507 287 297
f 290 280 289
f 285 298 286
f 283 288 280
f 286 298 287
f 356 267 266
f 283 284 286
f 282 281 372
f 373 282 372
f 279 372 281
f 363 273 272
f 360 272 269
f 359 268 267
f 260 266 258
f 265 542 455
f 543 257 259
f 258 254 261
f 268 259 267
f 544 251 215
f 503 256 543
f 215 251 216
f 253 252 254
f 264 252 250
f 248 544 212
f 264 250 249
f 263 249 247
f 561 559 558
f 546 548 594
f 550 549 551
f 553 555 554
f 578 571 573
f 561 562 560
f 571 570 572
f 572 570 569
f 572 574 573
f 573 574 575
f 580 577 576
f 588 576 589
f 199 577 200
f 583 584 581
f 205 586 585
f 587 586 203
f 585 587 584
f 577 579 578
f 589 576 590
f 593 592 574
f 593 566 592
f 227 567 568
f 567 165 568
f 572 567 564
f 588 552 582
f 593 565 566
f 234 555 557
f 548 583 549
f 548 208 584
f 594 549 243
f 247 245 542
f 246 594 244
f 541 245 242
f 243 550 241
f 539 242 241
f 536 241 240
f 550 551 240
f 535 240 239
f 238 551 552
f 239 237 463
f 552 554 238
f 554 555 235
f 234 559 233
f 467 236 234
f 469 234 232
f 233 560 231
f 471 232 231
f 229 471 231
f 546 208 548
f 472 229 228
f 228 226 478
f 225 534 226
f 220 487 513
f 253 255 217
f 216 154 215
f 546 210 209
f 172 159 160
f 190 585 208
f 205 585 190
f 190 191 205
f 581 587 200
f 197 579 199
f 198 571 579
f 571 198 570
f 196 166 569
f 209 122 190
f 195 192 168
f 167 163 166
f 568 164 224
f 164 162 222
f 162 161 220
f 167 169 161
f 161 160 220
f 159 186 158
f 160 157 219
f 595 88 151
f 184 152 158
f 152 155 158
f 152 92 155
f 151 89 91
f 596 146 78
f 596 597 598
f 598 84 595
f 598 83 84
f 598 82 83
f 599 140 138
f 183 149 150
f 148 149 183
f 144 181 143
f 135 29 26
f 27 599 138
f 137 143 180
f 174 128 177
f 131 177 128
f 126 173 172
f 171 126 172
f 120 123 121
f 123 600 124
f 123 124 189
f 210 121 122
f 607 42 606
f 602 41 601
f 604 603 601
f 602 603 605
f 47 43 607
f 41 605 40
f 117 601 118
f 118 601 39
f 118 97 117
f 99 93 100
f 83 114 115
f 100 93 90
f 89 90 91
f 87 104 102
f 88 87 89
f 77 139 76
f 107 64 105
f 140 76 139
f 76 75 74
f 73 79 74
f 70 113 73
f 67 66 116
f 116 66 65
f 105 63 103
f 604 60 59
f 103 63 61
f 608 47 607
f 603 604 58
f 58 57 53
f 49 55 48
f 23 46 48
f 36 129 127
f 49 46 50
f 40 606 42
f 39 38 600
f 133 31 29
f 33 130 129
f 135 27 138
f 22 19 21
f 46 23 24
f 25 23 21
f 11 67 12
f 48 20 22
f 7 62 6
f 6 5 57
f 4 12 3
f 12 13 3
f 1 55 17
f 149 596 595
f 51 54 50
f 141 609 140
f 33 31 130
f 118 39 120
f 182 183 185
f 543 504 503
f 432 411 431
f 285 284 376
f 279 277 369
f 453 454 379
f 269 268 359
f 303 382 306
f 436 434 435
f 18 19 20
f 31 33 34
f 43 44 32
f 608 605 53
f 70 71 72
f 77 76 74
f 104 103 101
f 109 110 107
f 107 110 116
f 115 109 108
f 131 130 133
f 138 137 136
f 152 150 151
f 154 153 92
f 158 155 156
f 176 175 174
f 181 147 148
f 178 131 132
f 217 156 216
f 218 157 156
f 483 222 162
f 253 216 251
f 279 280 276
f 282 283 280
f 292 295 505
f 505 295 296
f 507 506 296
f 310 311 312
f 314 315 316
f 318 319 320
f 325 336 327
f 336 330 329
f 361 360 359
f 366 363 364
f 365 367 368
f 368 367 370
f 371 372 369
f 376 373 374
f 375 378 377
f 380 381 382
f 392 393 390
f 394 392 402
f 402 392 391
f 409 432 407
f 441 434 440
f 439 443 442
f 402 403 441
f 444 399 443
f 409 385 410
f 441 403 404
f 395 315 452
f 385 381 380
f 469 471 470
f 470 471 473
f 496 507 297
f 494 491 499
f 493 495 510
f 512 491 493
f 490 500 492
f 316 489 512
f 523 525 464
f 520 476 477
f 468 470 475
f 524 522 521
f 331 330 336
f 334 335 337
f 317 320 486
f 452 314 312
f 390 311 310
f 296 295 290
f 290 276 280
f 285 454 298
f 356 359 267
f 260 265 266
f 265 262 542
f 543 256 257
f 544 250 251
f 264 254 252
f 248 249 544
f 263 264 249
f 561 560 559
f 578 579 571
f 588 580 576
f 227 564 567
f 588 553 552
f 234 235 555
f 234 557 559
f 469 467 234
f 233 559 560
f 471 469 232
f 229 473 471
f 546 209 208
f 172 173 159
f 159 175 186
f 595 84 88
f 599 141 140
f 135 133 29
f 174 127 128
f 126 127 173
f 171 187 126
f 120 600 123
f 607 43 42
f 47 44 43
f 41 602 605
f 117 604 601
f 118 98 97
f 99 97 93
f 83 82 114
f 77 142 139
f 107 65 64
f 105 64 63
f 604 117 60
f 608 50 47
f 36 33 129
f 133 130 31
f 135 26 27
f 22 20 19
f 11 66 67
f 48 55 20
f 149 148 596
f 182 148 183
f 543 294 504
f 432 409 411
f 436 440 434
