# celestial_dragon Jaw_Fang.obj: Roblox cue frame, recentred on its bounding box
v 0.03293 -0.02002 -0.00693
v 0.04000 -0.01667 -0.07019
v -0.05000 -0.01863 -0.08000
v 0.03293 -0.01724 -0.07307
v 0.03000 -0.01863 0.00000
v 0.03000 -0.01863 -0.08000
v 0.03000 -0.01863 0.08000
v 0.03293 -0.02002 -0.08693
v 0.03293 -0.01724 0.00693
v 0.04000 -0.02059 -0.08981
v -0.05000 -0.01863 0.00000
v 0.04707 -0.02002 -0.08693
v 0.04000 -0.01667 0.00981
v 0.05000 -0.01863 -0.08000
v 0.03293 -0.02002 0.07307
v 0.04707 -0.01724 -0.07307
v 0.04000 0.02059 -0.08784
v 0.03293 -0.01724 0.08693
v 0.04000 -0.02059 -0.00981
v -0.05000 -0.01863 0.08000
v 0.04707 -0.02002 -0.00693
v 0.04000 -0.01667 0.08981
v 0.05000 -0.01863 0.00000
v -0.04707 -0.02002 -0.08693
v 0.04707 -0.01724 0.00693
v 0.04000 0.02059 -0.00784
v -0.04707 -0.01724 -0.07307
v 0.04000 -0.02059 0.07019
v 0.04707 -0.02002 0.07307
v -0.04000 -0.01667 -0.07019
v 0.05000 -0.01863 0.08000
v -0.04707 -0.02002 -0.00693
v 0.04707 -0.01724 0.08693
v 0.04000 0.02059 0.07216
v -0.04707 -0.01724 0.00693
v -0.04000 -0.02059 -0.08981
v -0.03293 -0.02002 -0.08693
v -0.04000 -0.01667 0.00981
v -0.03000 -0.01863 -0.08000
v -0.04707 -0.02002 0.07307
v -0.03293 -0.01724 -0.07307
v -0.04000 0.02059 -0.08784
v -0.04707 -0.01724 0.08693
v -0.04000 -0.02059 -0.00981
v -0.03293 -0.02002 -0.00693
v -0.04000 -0.01667 0.08981
v -0.03000 -0.01863 0.00000
v -0.03293 -0.01724 0.00693
v -0.04000 0.02059 -0.00784
v -0.04000 -0.02059 0.07019
v -0.03293 -0.02002 0.07307
v -0.03000 -0.01863 0.08000
v -0.03293 -0.01724 0.08693
v -0.04000 0.02059 0.07216
f 38 49 35
f 40 54 50
f 2 17 4
f 15 34 28
f 22 34 18
f 4 17 6
f 30 42 27
f 1 26 19
f 6 17 8
f 24 42 36
f 8 17 10
f 13 26 9
f 32 49 44
f 10 17 12
f 5 26 1
f 12 17 14
f 46 54 43
f 8 12 16
f 14 17 16
f 9 26 5
f 19 26 21
f 16 17 2
f 7 34 15
f 21 26 23
f 9 1 21
f 23 26 25
f 18 34 7
f 28 34 29
f 25 26 13
f 3 42 24
f 29 34 31
f 31 22 7
f 31 34 33
f 27 42 3
f 36 42 37
f 33 34 22
f 11 49 32
f 37 42 39
f 24 37 41
f 39 42 41
f 35 49 11
f 44 49 45
f 41 42 30
f 20 54 40
f 45 49 47
f 11 44 47
f 47 49 48
f 43 54 20
f 50 54 51
f 48 49 38
f 51 54 52
f 52 53 46
f 52 54 53
f 53 54 46
f 16 2 8
f 2 4 8
f 4 6 8
f 8 10 12
f 12 14 16
f 9 5 1
f 1 19 21
f 21 23 25
f 25 13 21
f 13 9 21
f 7 15 28
f 28 29 7
f 29 31 7
f 31 33 22
f 22 18 7
f 24 36 37
f 37 39 41
f 41 30 24
f 30 27 24
f 27 3 24
f 38 35 11
f 11 32 44
f 44 45 47
f 47 48 38
f 38 11 47
f 46 43 20
f 20 40 46
f 40 50 46
f 50 51 46
f 51 52 46
