# celestial_dragon Jaw_Gold.obj: Roblox cue frame, recentred on its bounding box
v 0.05798 0.01300 0.17978
v 0.06362 0.01065 0.17937
v 0.06597 0.00500 0.17934
v 0.06365 -0.00065 0.17969
v 0.05802 -0.00300 0.18022
v 0.05238 -0.00065 0.18063
v 0.05003 0.00500 0.18066
v 0.05235 0.01065 0.18031
v 0.05525 0.01209 0.14705
v 0.06090 0.00975 0.14665
v 0.06325 0.00409 0.14661
v 0.06092 -0.00156 0.14696
v 0.05529 -0.00391 0.14749
v 0.04965 -0.00156 0.14790
v 0.04730 0.00409 0.14794
v 0.04962 0.00975 0.14759
v 0.05253 0.01118 0.11432
v 0.05817 0.00884 0.11392
v 0.06052 0.00318 0.11388
v 0.05820 -0.00247 0.11423
v 0.05256 -0.00482 0.11477
v 0.04692 -0.00247 0.11517
v 0.04457 0.00318 0.11521
v 0.04690 0.00884 0.11486
v 0.04980 0.01027 0.08160
v 0.05544 0.00793 0.08119
v 0.05779 0.00227 0.08115
v 0.05547 -0.00338 0.08150
v 0.04984 -0.00572 0.08204
v 0.04419 -0.00338 0.08244
v 0.04185 0.00227 0.08248
v 0.04417 0.00793 0.08213
v 0.04707 0.00936 0.04887
v 0.05272 0.00702 0.04847
v 0.05506 0.00136 0.04843
v 0.05274 -0.00429 0.04878
v 0.04711 -0.00663 0.04931
v 0.04147 -0.00429 0.04972
v 0.03912 0.00136 0.04975
v 0.04144 0.00702 0.04940
v 0.04435 0.00845 0.01614
v 0.04999 0.00611 0.01574
v 0.05234 0.00045 0.01570
v 0.05001 -0.00520 0.01605
v 0.04438 -0.00754 0.01658
v 0.03874 -0.00520 0.01699
v 0.03639 0.00045 0.01703
v 0.03871 0.00611 0.01668
v 0.04162 0.00754 -0.01658
v 0.04726 0.00520 -0.01699
v 0.04961 -0.00045 -0.01703
v 0.04729 -0.00611 -0.01668
v 0.04165 -0.00845 -0.01614
v 0.03601 -0.00611 -0.01574
v 0.03366 -0.00045 -0.01570
v 0.03599 0.00520 -0.01605
v 0.03889 0.00663 -0.04931
v 0.04453 0.00429 -0.04972
v 0.04688 -0.00136 -0.04976
v 0.04456 -0.00702 -0.04940
v 0.03893 -0.00936 -0.04887
v 0.03328 -0.00702 -0.04847
v 0.03094 -0.00136 -0.04843
v 0.03326 0.00429 -0.04878
v 0.03616 0.00572 -0.08204
v 0.04181 0.00338 -0.08244
v 0.04415 -0.00227 -0.08248
v 0.04183 -0.00793 -0.08213
v 0.03620 -0.01027 -0.08160
v 0.03056 -0.00793 -0.08119
v 0.02821 -0.00227 -0.08115
v 0.03053 0.00338 -0.08150
v 0.03344 0.00482 -0.11477
v 0.03908 0.00247 -0.11517
v 0.04143 -0.00318 -0.11521
v 0.03910 -0.00884 -0.11486
v 0.03347 -0.01118 -0.11432
v 0.02783 -0.00884 -0.11392
v 0.02548 -0.00318 -0.11388
v 0.02780 0.00247 -0.11423
v 0.03071 0.00391 -0.14749
v 0.03635 0.00156 -0.14790
v 0.03870 -0.00409 -0.14794
v 0.03638 -0.00975 -0.14759
v 0.03075 -0.01209 -0.14705
v 0.02510 -0.00975 -0.14665
v 0.02275 -0.00409 -0.14661
v 0.02508 0.00156 -0.14696
v 0.02798 0.00300 -0.18022
v 0.03362 0.00065 -0.18063
v 0.03597 -0.00500 -0.18066
v 0.03365 -0.01065 -0.18031
v 0.02802 -0.01300 -0.17978
v 0.02238 -0.01065 -0.17937
v 0.02003 -0.00500 -0.17934
v 0.02235 0.00065 -0.17969
v 0.05800 0.00500 0.18000
v 0.02800 -0.00500 -0.18000
v -0.05798 0.01300 0.17978
v -0.05235 0.01065 0.18031
v -0.05003 0.00500 0.18066
v -0.05238 -0.00065 0.18063
v -0.05802 -0.00300 0.18022
v -0.06365 -0.00065 0.17969
v -0.06597 0.00500 0.17934
v -0.06362 0.01065 0.17937
v -0.05525 0.01209 0.14705
v -0.04962 0.00975 0.14759
v -0.04730 0.00409 0.14794
v -0.04965 -0.00156 0.14790
v -0.05529 -0.00391 0.14749
v -0.06092 -0.00156 0.14696
v -0.06325 0.00409 0.14661
v -0.06090 0.00975 0.14665
v -0.05253 0.01118 0.11432
v -0.04690 0.00884 0.11486
v -0.04457 0.00318 0.11521
v -0.04692 -0.00247 0.11517
v -0.05256 -0.00482 0.11477
v -0.05820 -0.00247 0.11423
v -0.06052 0.00318 0.11388
v -0.05817 0.00884 0.11392
v -0.04980 0.01027 0.08160
v -0.04417 0.00793 0.08213
v -0.04185 0.00227 0.08248
v -0.04419 -0.00338 0.08244
v -0.04984 -0.00572 0.08204
v -0.05547 -0.00338 0.08150
v -0.05779 0.00227 0.08115
v -0.05544 0.00793 0.08119
v -0.04707 0.00936 0.04887
v -0.04144 0.00702 0.04940
v -0.03912 0.00136 0.04975
v -0.04147 -0.00429 0.04972
v -0.04711 -0.00663 0.04931
v -0.05274 -0.00429 0.04878
v -0.05506 0.00136 0.04843
v -0.05272 0.00702 0.04847
v -0.04435 0.00845 0.01614
v -0.03871 0.00611 0.01668
v -0.03639 0.00045 0.01703
v -0.03874 -0.00520 0.01699
v -0.04438 -0.00754 0.01658
v -0.05001 -0.00520 0.01605
v -0.05234 0.00045 0.01570
v -0.04999 0.00611 0.01574
v -0.04162 0.00754 -0.01658
v -0.03599 0.00520 -0.01605
v -0.03366 -0.00045 -0.01570
v -0.03601 -0.00611 -0.01574
v -0.04165 -0.00845 -0.01614
v -0.04729 -0.00611 -0.01668
v -0.04961 -0.00045 -0.01703
v -0.04726 0.00520 -0.01699
v -0.03889 0.00663 -0.04931
v -0.03326 0.00429 -0.04878
v -0.03094 -0.00136 -0.04843
v -0.03328 -0.00702 -0.04847
v -0.03893 -0.00936 -0.04887
v -0.04456 -0.00702 -0.04940
v -0.04688 -0.00136 -0.04976
v -0.04453 0.00429 -0.04972
v -0.03616 0.00572 -0.08204
v -0.03053 0.00338 -0.08150
v -0.02821 -0.00227 -0.08115
v -0.03056 -0.00793 -0.08119
v -0.03620 -0.01027 -0.08160
v -0.04183 -0.00793 -0.08213
v -0.04415 -0.00227 -0.08248
v -0.04181 0.00338 -0.08244
v -0.03344 0.00482 -0.11477
v -0.02780 0.00247 -0.11423
v -0.02548 -0.00318 -0.11388
v -0.02783 -0.00884 -0.11392
v -0.03347 -0.01118 -0.11432
v -0.03910 -0.00884 -0.11486
v -0.04143 -0.00318 -0.11521
v -0.03908 0.00247 -0.11517
v -0.03071 0.00391 -0.14749
v -0.02508 0.00156 -0.14696
v -0.02275 -0.00409 -0.14661
v -0.02510 -0.00975 -0.14665
v -0.03075 -0.01209 -0.14705
v -0.03638 -0.00975 -0.14759
v -0.03870 -0.00409 -0.14794
v -0.03635 0.00156 -0.14790
v -0.02798 0.00300 -0.18022
v -0.02235 0.00065 -0.17969
v -0.02003 -0.00500 -0.17934
v -0.02238 -0.01065 -0.17937
v -0.02802 -0.01300 -0.17978
v -0.03365 -0.01065 -0.18031
v -0.03597 -0.00500 -0.18066
v -0.03362 0.00065 -0.18063
v -0.05800 0.00500 0.18000
v -0.02800 -0.00500 -0.18000
f 2 9 1
f 3 10 2
f 4 11 3
f 4 13 12
f 5 14 13
f 6 15 14
f 7 16 15
f 1 16 8
f 9 18 17
f 10 19 18
f 12 19 11
f 12 21 20
f 13 22 21
f 14 23 22
f 16 23 15
f 9 24 16
f 17 26 25
f 18 27 26
f 20 27 19
f 20 29 28
f 22 29 21
f 22 31 30
f 24 31 23
f 17 32 24
f 25 34 33
f 26 35 34
f 28 35 27
f 28 37 36
f 30 37 29
f 30 39 38
f 31 40 39
f 25 40 32
f 33 42 41
f 35 42 34
f 36 43 35
f 36 45 44
f 38 45 37
f 38 47 46
f 39 48 47
f 33 48 40
f 41 50 49
f 43 50 42
f 44 51 43
f 44 53 52
f 46 53 45
f 46 55 54
f 47 56 55
f 41 56 48
f 49 58 57
f 51 58 50
f 52 59 51
f 52 61 60
f 54 61 53
f 54 63 62
f 56 63 55
f 49 64 56
f 57 66 65
f 59 66 58
f 60 67 59
f 60 69 68
f 61 70 69
f 62 71 70
f 63 72 71
f 57 72 64
f 65 74 73
f 67 74 66
f 68 75 67
f 68 77 76
f 70 77 69
f 71 78 70
f 71 80 79
f 65 80 72
f 73 82 81
f 74 83 82
f 75 84 83
f 76 85 84
f 78 85 77
f 79 86 78
f 79 88 87
f 73 88 80
f 81 90 89
f 82 91 90
f 84 91 83
f 84 93 92
f 86 93 85
f 87 94 86
f 87 96 95
f 81 96 88
f 97 2 1
f 97 3 2
f 97 4 3
f 97 5 4
f 97 6 5
f 97 7 6
f 97 8 7
f 97 1 8
f 89 90 98
f 90 91 98
f 91 92 98
f 92 93 98
f 93 94 98
f 94 95 98
f 95 96 98
f 96 89 98
f 99 108 107
f 101 108 100
f 102 109 101
f 103 110 102
f 104 111 103
f 104 113 112
f 105 114 113
f 106 107 114
f 107 116 115
f 108 117 116
f 110 117 109
f 111 118 110
f 112 119 111
f 112 121 120
f 114 121 113
f 107 122 114
f 115 124 123
f 116 125 124
f 118 125 117
f 118 127 126
f 120 127 119
f 120 129 128
f 122 129 121
f 115 130 122
f 123 132 131
f 125 132 124
f 126 133 125
f 126 135 134
f 128 135 127
f 128 137 136
f 129 138 137
f 123 138 130
f 131 140 139
f 133 140 132
f 134 141 133
f 134 143 142
f 136 143 135
f 136 145 144
f 137 146 145
f 131 146 138
f 139 148 147
f 141 148 140
f 142 149 141
f 142 151 150
f 144 151 143
f 144 153 152
f 145 154 153
f 139 154 146
f 147 156 155
f 148 157 156
f 150 157 149
f 150 159 158
f 152 159 151
f 152 161 160
f 153 162 161
f 147 162 154
f 155 164 163
f 157 164 156
f 158 165 157
f 159 166 158
f 160 167 159
f 160 169 168
f 161 170 169
f 155 170 162
f 163 172 171
f 165 172 164
f 165 174 173
f 166 175 174
f 168 175 167
f 168 177 176
f 169 178 177
f 163 178 170
f 171 180 179
f 173 180 172
f 173 182 181
f 174 183 182
f 176 183 175
f 177 184 176
f 178 185 177
f 171 186 178
f 179 188 187
f 181 188 180
f 181 190 189
f 182 191 190
f 184 191 183
f 184 193 192
f 186 193 185
f 179 194 186
f 195 100 99
f 195 101 100
f 195 102 101
f 195 103 102
f 195 104 103
f 195 105 104
f 195 106 105
f 195 99 106
f 187 188 196
f 188 189 196
f 189 190 196
f 190 191 196
f 191 192 196
f 192 193 196
f 193 194 196
f 194 187 196
f 2 10 9
f 3 11 10
f 4 12 11
f 4 5 13
f 5 6 14
f 6 7 15
f 7 8 16
f 1 9 16
f 9 10 18
f 10 11 19
f 12 20 19
f 12 13 21
f 13 14 22
f 14 15 23
f 16 24 23
f 9 17 24
f 17 18 26
f 18 19 27
f 20 28 27
f 20 21 29
f 22 30 29
f 22 23 31
f 24 32 31
f 17 25 32
f 25 26 34
f 26 27 35
f 28 36 35
f 28 29 37
f 30 38 37
f 30 31 39
f 31 32 40
f 25 33 40
f 33 34 42
f 35 43 42
f 36 44 43
f 36 37 45
f 38 46 45
f 38 39 47
f 39 40 48
f 33 41 48
f 41 42 50
f 43 51 50
f 44 52 51
f 44 45 53
f 46 54 53
f 46 47 55
f 47 48 56
f 41 49 56
f 49 50 58
f 51 59 58
f 52 60 59
f 52 53 61
f 54 62 61
f 54 55 63
f 56 64 63
f 49 57 64
f 57 58 66
f 59 67 66
f 60 68 67
f 60 61 69
f 61 62 70
f 62 63 71
f 63 64 72
f 57 65 72
f 65 66 74
f 67 75 74
f 68 76 75
f 68 69 77
f 70 78 77
f 71 79 78
f 71 72 80
f 65 73 80
f 73 74 82
f 74 75 83
f 75 76 84
f 76 77 85
f 78 86 85
f 79 87 86
f 79 80 88
f 73 81 88
f 81 82 90
f 82 83 91
f 84 92 91
f 84 85 93
f 86 94 93
f 87 95 94
f 87 88 96
f 81 89 96
f 99 100 108
f 101 109 108
f 102 110 109
f 103 111 110
f 104 112 111
f 104 105 113
f 105 106 114
f 106 99 107
f 107 108 116
f 108 109 117
f 110 118 117
f 111 119 118
f 112 120 119
f 112 113 121
f 114 122 121
f 107 115 122
f 115 116 124
f 116 117 125
f 118 126 125
f 118 119 127
f 120 128 127
f 120 121 129
f 122 130 129
f 115 123 130
f 123 124 132
f 125 133 132
f 126 134 133
f 126 127 135
f 128 136 135
f 128 129 137
f 129 130 138
f 123 131 138
f 131 132 140
f 133 141 140
f 134 142 141
f 134 135 143
f 136 144 143
f 136 137 145
f 137 138 146
f 131 139 146
f 139 140 148
f 141 149 148
f 142 150 149
f 142 143 151
f 144 152 151
f 144 145 153
f 145 146 154
f 139 147 154
f 147 148 156
f 148 149 157
f 150 158 157
f 150 151 159
f 152 160 159
f 152 153 161
f 153 154 162
f 147 155 162
f 155 156 164
f 157 165 164
f 158 166 165
f 159 167 166
f 160 168 167
f 160 161 169
f 161 162 170
f 155 163 170
f 163 164 172
f 165 173 172
f 165 166 174
f 166 167 175
f 168 176 175
f 168 169 177
f 169 170 178
f 163 171 178
f 171 172 180
f 173 181 180
f 173 174 182
f 174 175 183
f 176 184 183
f 177 185 184
f 178 186 185
f 171 179 186
f 179 180 188
f 181 189 188
f 181 182 190
f 182 183 191
f 184 192 191
f 184 185 193
f 186 194 193
f 179 187 194
