# clockwork_pocket Big_Brass.obj: Roblox cue frame, recentred on its bounding box
v -0.80000 -0.00060 -0.04500
v -0.81292 -0.00060 -0.03300
v -0.80901 0.07296 -0.03300
v -0.81904 0.09043 -0.03300
v -0.79548 0.08356 -0.04500
v -0.93345 0.14932 -0.03300
v -0.94136 0.16649 -0.03300
v -0.92934 0.15236 -0.04500
v -0.91735 0.26815 -0.03300
v -0.90259 0.27997 -0.03300
v -0.90027 0.27541 -0.04500
v -0.77392 0.28143 -0.03300
v -0.75702 0.29252 -0.03300
v -0.74978 0.27702 -0.04500
v -0.72060 0.37396 -0.03300
v -0.70915 0.36796 -0.04500
v -0.68295 0.43728 -0.03300
v -0.68371 0.45741 -0.03300
v -0.66604 0.44038 -0.04500
v -0.75765 0.56273 -0.03300
v -0.75668 0.58160 -0.03300
v -0.75260 0.56350 -0.04500
v -0.68817 0.66046 -0.03300
v -0.66961 0.66407 -0.03300
v -0.66967 0.65895 -0.04500
v -0.55500 0.60556 -0.03300
v -0.53488 0.60753 -0.03300
v -0.53567 0.59045 -0.04500
v -0.46478 0.66272 -0.03300
v -0.45744 0.65208 -0.04500
v -0.40202 0.70129 -0.03300
v -0.39334 0.71947 -0.03300
v -0.38561 0.69618 -0.04500
v -0.40987 0.84708 -0.03300
v -0.40023 0.86335 -0.03300
v -0.40503 0.84542 -0.04500
v -0.30292 0.90133 -0.03300
v -0.28481 0.89590 -0.03300
v -0.28725 0.89140 -0.04500
v -0.21052 0.79083 -0.03300
v -0.19179 0.78323 -0.03300
v -0.20043 0.76846 -0.04500
v -0.10407 0.79952 -0.03300
v -0.10252 0.78669 -0.04500
v -0.03058 0.80450 -0.03300
v -0.01444 0.81657 -0.03300
v -0.01842 0.79235 -0.04500
v 0.03022 0.93724 -0.03300
v 0.04632 0.94717 -0.03300
v 0.03374 0.93352 -0.04500
v 0.15014 0.93558 -0.03300
v 0.16364 0.92235 -0.03300
v 0.15940 0.91950 -0.04500
v 0.18060 0.79479 -0.03300
v 0.19365 0.77936 -0.03300
v 0.17914 0.77030 -0.04500
v 0.27889 0.75302 -0.03300
v 0.27431 0.74093 -0.04500
v 0.34628 0.72328 -0.03300
v 0.36618 0.72646 -0.03300
v 0.35140 0.70687 -0.04500
v 0.46181 0.81256 -0.03300
v 0.48067 0.81387 -0.03300
v 0.46319 0.80763 -0.04500
v 0.56721 0.75536 -0.03300
v 0.57302 0.73737 -0.03300
v 0.56794 0.73681 -0.04500
v 0.52876 0.61654 -0.03300
v 0.53314 0.59681 -0.03300
v 0.51608 0.59553 -0.04500
v 0.59638 0.53387 -0.03300
v 0.58670 0.52530 -0.04500
v 0.64223 0.47622 -0.03300
v 0.66132 0.46979 -0.03300
v 0.63913 0.45931 -0.04500
v 0.78601 0.50158 -0.03300
v 0.80332 0.49398 -0.03300
v 0.78495 0.49658 -0.04500
v 0.85276 0.40195 -0.03300
v 0.84955 0.38332 -0.03300
v 0.84479 0.38520 -0.04500
v 0.75420 0.29691 -0.03300
v 0.74891 0.27740 -0.03300
v 0.73321 0.28419 -0.04500
v 0.77566 0.19229 -0.03300
v 0.76311 0.18919 -0.04500
v 0.78946 0.11993 -0.03300
v 0.80338 0.10536 -0.03300
v 0.77886 0.10639 -0.04500
v 0.92856 0.07557 -0.03300
v 0.94035 0.06079 -0.03300
v 0.92530 0.07163 -0.04500
v 0.94136 -0.04367 -0.03300
v 0.92986 -0.05867 -0.03300
v 0.92652 -0.05480 -0.04500
v 0.80528 -0.09088 -0.03300
v 0.79153 -0.10570 -0.03300
v 0.78079 -0.09239 -0.04500
v 0.77566 -0.19349 -0.03300
v 0.76311 -0.19040 -0.04500
v 0.75425 -0.26398 -0.03300
v 0.75981 -0.28334 -0.03300
v 0.73858 -0.27104 -0.04500
v 0.85681 -0.36790 -0.03300
v 0.86038 -0.38646 -0.03300
v 0.85208 -0.36987 -0.04500
v 0.81273 -0.47943 -0.03300
v 0.79557 -0.48737 -0.03300
v 0.79441 -0.48238 -0.04500
v 0.67029 -0.45799 -0.03300
v 0.65123 -0.46472 -0.03300
v 0.64790 -0.44794 -0.04500
v 0.59638 -0.53508 -0.03300
v 0.58670 -0.52651 -0.04500
v 0.54467 -0.58754 -0.03300
v 0.54059 -0.60728 -0.03300
v 0.52751 -0.58651 -0.04500
v 0.58718 -0.72722 -0.03300
v 0.58172 -0.74532 -0.03300
v 0.58209 -0.72677 -0.04500
v 0.49632 -0.80549 -0.03300
v 0.47744 -0.80455 -0.03300
v 0.47873 -0.79960 -0.04500
v 0.38016 -0.72032 -0.03300
v 0.36016 -0.71741 -0.03300
v 0.36501 -0.70101 -0.04500
v 0.27889 -0.75423 -0.03300
v 0.27431 -0.74214 -0.04500
v 0.20872 -0.77665 -0.03300
v 0.19594 -0.79223 -0.03300
v 0.19401 -0.76776 -0.04500
v 0.18145 -0.92009 -0.03300
v 0.16820 -0.93357 -0.03300
v 0.17715 -0.91732 -0.04500
v 0.06463 -0.94717 -0.03300
v 0.04835 -0.93756 -0.03300
v 0.05179 -0.93377 -0.04500
v 0.00136 -0.81776 -0.03300
v -0.01501 -0.80590 -0.03300
v -0.00309 -0.79363 -0.04500
v -0.10407 -0.80073 -0.03300
v -0.10252 -0.78789 -0.04500
v -0.17662 -0.78797 -0.03300
v -0.19518 -0.79583 -0.03300
v -0.18552 -0.77327 -0.04500
v -0.26743 -0.90231 -0.03300
v -0.28543 -0.90809 -0.03300
v -0.26995 -0.89786 -0.04500
v -0.38346 -0.87199 -0.03300
v -0.39341 -0.85592 -0.03300
v -0.38860 -0.85416 -0.04500
v -0.37935 -0.72801 -0.03300
v -0.38832 -0.70990 -0.03300
v -0.37207 -0.70458 -0.04500
v -0.46478 -0.66393 -0.03300
v -0.45744 -0.65329 -0.04500
v -0.52310 -0.61892 -0.03300
v -0.54318 -0.61725 -0.03300
v -0.52414 -0.60176 -0.04500
v -0.65663 -0.67796 -0.03300
v -0.67526 -0.67472 -0.03300
v -0.65680 -0.67285 -0.04500
v -0.74528 -0.59720 -0.03300
v -0.74662 -0.57834 -0.03300
v -0.74155 -0.57902 -0.04500
v -0.67473 -0.47162 -0.03300
v -0.67426 -0.45141 -0.03300
v -0.65739 -0.45425 -0.04500
v -0.72060 -0.37517 -0.03300
v -0.70915 -0.36916 -0.04500
v -0.75132 -0.30822 -0.03300
v -0.76832 -0.29741 -0.03300
v -0.74427 -0.29254 -0.04500
v -0.89700 -0.29844 -0.03300
v -0.91198 -0.28691 -0.03300
v -0.89476 -0.29383 -0.04500
v -0.93796 -0.18573 -0.03300
v -0.93038 -0.16841 -0.03300
v -0.92621 -0.17137 -0.04500
v -0.81713 -0.10732 -0.03300
v -0.80732 -0.08965 -0.03300
v -0.79371 -0.10000 -0.04500
v -0.81292 -0.00060 0.03300
v -0.80000 -0.00060 0.04500
v -0.80901 0.07296 0.03300
v -0.79548 0.08356 0.04500
v -0.81904 0.09043 0.03300
v -0.93345 0.14932 0.03300
v -0.92934 0.15236 0.04500
v -0.94136 0.16649 0.03300
v -0.91735 0.26815 0.03300
v -0.90027 0.27541 0.04500
v -0.90259 0.27997 0.03300
v -0.77392 0.28143 0.03300
v -0.74978 0.27702 0.04500
v -0.75702 0.29252 0.03300
v -0.70915 0.36796 0.04500
v -0.72060 0.37396 0.03300
v -0.68295 0.43728 0.03300
v -0.66604 0.44038 0.04500
v -0.68371 0.45741 0.03300
v -0.75765 0.56273 0.03300
v -0.75260 0.56350 0.04500
v -0.75668 0.58160 0.03300
v -0.68817 0.66046 0.03300
v -0.66967 0.65895 0.04500
v -0.66961 0.66407 0.03300
v -0.55500 0.60556 0.03300
v -0.53567 0.59045 0.04500
v -0.53488 0.60753 0.03300
v -0.45744 0.65208 0.04500
v -0.46478 0.66272 0.03300
v -0.40202 0.70129 0.03300
v -0.38561 0.69618 0.04500
v -0.39334 0.71947 0.03300
v -0.40987 0.84708 0.03300
v -0.40503 0.84542 0.04500
v -0.40023 0.86335 0.03300
v -0.30292 0.90133 0.03300
v -0.28725 0.89140 0.04500
v -0.28481 0.89590 0.03300
v -0.21052 0.79083 0.03300
v -0.20043 0.76846 0.04500
v -0.19179 0.78323 0.03300
v -0.10252 0.78669 0.04500
v -0.10407 0.79952 0.03300
v -0.03058 0.80450 0.03300
v -0.01842 0.79235 0.04500
v -0.01444 0.81657 0.03300
v 0.03022 0.93724 0.03300
v 0.03374 0.93352 0.04500
v 0.04632 0.94717 0.03300
v 0.15014 0.93558 0.03300
v 0.15940 0.91950 0.04500
v 0.16364 0.92235 0.03300
v 0.18060 0.79479 0.03300
v 0.17914 0.77030 0.04500
v 0.19365 0.77936 0.03300
v 0.27431 0.74093 0.04500
v 0.27889 0.75302 0.03300
v 0.34628 0.72328 0.03300
v 0.35140 0.70687 0.04500
v 0.36618 0.72646 0.03300
v 0.46181 0.81256 0.03300
v 0.46319 0.80763 0.04500
v 0.48067 0.81387 0.03300
v 0.56721 0.75536 0.03300
v 0.56794 0.73681 0.04500
v 0.57302 0.73737 0.03300
v 0.52876 0.61654 0.03300
v 0.51608 0.59553 0.04500
v 0.53314 0.59681 0.03300
v 0.58670 0.52530 0.04500
v 0.59638 0.53387 0.03300
v 0.64223 0.47622 0.03300
v 0.63913 0.45931 0.04500
v 0.66132 0.46979 0.03300
v 0.78601 0.50158 0.03300
v 0.78495 0.49658 0.04500
v 0.80332 0.49398 0.03300
v 0.85276 0.40195 0.03300
v 0.84479 0.38520 0.04500
v 0.84955 0.38332 0.03300
v 0.75420 0.29691 0.03300
v 0.73321 0.28419 0.04500
v 0.74891 0.27740 0.03300
v 0.76311 0.18919 0.04500
v 0.77566 0.19229 0.03300
v 0.78946 0.11993 0.03300
v 0.77886 0.10639 0.04500
v 0.80338 0.10536 0.03300
v 0.92856 0.07557 0.03300
v 0.92530 0.07163 0.04500
v 0.94035 0.06079 0.03300
v 0.94136 -0.04367 0.03300
v 0.92652 -0.05480 0.04500
v 0.92986 -0.05867 0.03300
v 0.80528 -0.09088 0.03300
v 0.78079 -0.09239 0.04500
v 0.79153 -0.10570 0.03300
v 0.76311 -0.19040 0.04500
v 0.77566 -0.19349 0.03300
v 0.75425 -0.26398 0.03300
v 0.73858 -0.27104 0.04500
v 0.75981 -0.28334 0.03300
v 0.85681 -0.36790 0.03300
v 0.85208 -0.36987 0.04500
v 0.86038 -0.38646 0.03300
v 0.81273 -0.47943 0.03300
v 0.79441 -0.48238 0.04500
v 0.79557 -0.48737 0.03300
v 0.67029 -0.45799 0.03300
v 0.64790 -0.44794 0.04500
v 0.65123 -0.46472 0.03300
v 0.58670 -0.52651 0.04500
v 0.59638 -0.53508 0.03300
v 0.54467 -0.58754 0.03300
v 0.52751 -0.58651 0.04500
v 0.54059 -0.60728 0.03300
v 0.58718 -0.72722 0.03300
v 0.58209 -0.72677 0.04500
v 0.58172 -0.74532 0.03300
v 0.49632 -0.80549 0.03300
v 0.47873 -0.79960 0.04500
v 0.47744 -0.80455 0.03300
v 0.38016 -0.72032 0.03300
v 0.36501 -0.70101 0.04500
v 0.36016 -0.71741 0.03300
v 0.27431 -0.74214 0.04500
v 0.27889 -0.75423 0.03300
v 0.20872 -0.77665 0.03300
v 0.19401 -0.76776 0.04500
v 0.19594 -0.79223 0.03300
v 0.18145 -0.92009 0.03300
v 0.17715 -0.91732 0.04500
v 0.16820 -0.93357 0.03300
v 0.06463 -0.94717 0.03300
v 0.05179 -0.93377 0.04500
v 0.04835 -0.93756 0.03300
v 0.00136 -0.81776 0.03300
v -0.00309 -0.79363 0.04500
v -0.01501 -0.80590 0.03300
v -0.10252 -0.78789 0.04500
v -0.10407 -0.80073 0.03300
v -0.17662 -0.78797 0.03300
v -0.18552 -0.77327 0.04500
v -0.19518 -0.79583 0.03300
v -0.26743 -0.90231 0.03300
v -0.26995 -0.89786 0.04500
v -0.28543 -0.90809 0.03300
v -0.38346 -0.87199 0.03300
v -0.38860 -0.85416 0.04500
v -0.39341 -0.85592 0.03300
v -0.37935 -0.72801 0.03300
v -0.37207 -0.70458 0.04500
v -0.38832 -0.70990 0.03300
v -0.45744 -0.65329 0.04500
v -0.46478 -0.66393 0.03300
v -0.52310 -0.61892 0.03300
v -0.52414 -0.60176 0.04500
v -0.54318 -0.61725 0.03300
v -0.65663 -0.67796 0.03300
v -0.65680 -0.67285 0.04500
v -0.67526 -0.67472 0.03300
v -0.74528 -0.59720 0.03300
v -0.74155 -0.57902 0.04500
v -0.74662 -0.57834 0.03300
v -0.67473 -0.47162 0.03300
v -0.65739 -0.45425 0.04500
v -0.67426 -0.45141 0.03300
v -0.70915 -0.36916 0.04500
v -0.72060 -0.37517 0.03300
v -0.75132 -0.30822 0.03300
v -0.74427 -0.29254 0.04500
v -0.76832 -0.29741 0.03300
v -0.89700 -0.29844 0.03300
v -0.89476 -0.29383 0.04500
v -0.91198 -0.28691 0.03300
v -0.93796 -0.18573 0.03300
v -0.92621 -0.17137 0.04500
v -0.93038 -0.16841 0.03300
v -0.81713 -0.10732 0.03300
v -0.79371 -0.10000 0.04500
v -0.80732 -0.08965 0.03300
v -0.60336 -0.00060 -0.03300
v -0.61538 -0.00060 -0.04500
v -0.61194 0.06397 -0.04500
v -0.59999 0.06270 -0.03300
v -0.60718 0.09893 -0.04500
v -0.59533 0.09697 -0.03300
v -0.58826 0.17901 -0.04500
v -0.57678 0.17546 -0.03300
v -0.57687 0.21241 -0.04500
v -0.56562 0.20820 -0.03300
v -0.54568 0.28216 -0.04500
v -0.53504 0.27658 -0.03300
v -0.51263 0.33774 -0.04500
v -0.50264 0.33106 -0.03300
v -0.49217 0.36649 -0.04500
v -0.48258 0.35924 -0.03300
v -0.43820 0.42860 -0.04500
v -0.42969 0.42012 -0.03300
v -0.41260 0.45288 -0.04500
v -0.40459 0.44392 -0.03300
v -0.35256 0.50015 -0.04500
v -0.34574 0.49026 -0.03300
v -0.29747 0.53400 -0.04500
v -0.29173 0.52344 -0.03300
v -0.26599 0.54994 -0.04500
v -0.26087 0.53907 -0.03300
v -0.18934 0.57986 -0.04500
v -0.18574 0.56840 -0.03300
v -0.15539 0.58946 -0.04500
v -0.15246 0.57781 -0.03300
v -0.08026 0.60342 -0.04500
v -0.07881 0.59149 -0.03300
v -0.01574 0.60779 -0.04500
v -0.01557 0.59577 -0.03300
v 0.01954 0.60728 -0.04500
v 0.01901 0.59527 -0.03300
v 0.10131 0.59815 -0.04500
v 0.09917 0.58633 -0.03300
v 0.13583 0.59087 -0.04500
v 0.13301 0.57919 -0.03300
v 0.20884 0.56831 -0.04500
v 0.20458 0.55708 -0.03300
v 0.26800 0.54220 -0.04500
v 0.26257 0.53148 -0.03300
v 0.29900 0.52535 -0.04500
v 0.29296 0.51497 -0.03300
v 0.36717 0.47927 -0.04500
v 0.35978 0.46979 -0.03300
v 0.39435 0.45678 -0.04500
v 0.38643 0.44775 -0.03300
v 0.44851 0.40288 -0.04500
v 0.43952 0.39491 -0.03300
v 0.48876 0.35226 -0.04500
v 0.47897 0.34529 -0.03300
v 0.50838 0.32294 -0.04500
v 0.49821 0.31655 -0.03300
v 0.54732 0.25046 -0.04500
v 0.53638 0.24550 -0.03300
v 0.56094 0.21791 -0.04500
v 0.54973 0.21359 -0.03300
v 0.58385 0.14501 -0.04500
v 0.57219 0.14213 -0.03300
v 0.59597 0.08149 -0.04500
v 0.58406 0.07987 -0.03300
v 0.59972 0.04640 -0.04500
v 0.58774 0.04547 -0.03300
v 0.60051 -0.03587 -0.04500
v 0.58852 -0.03518 -0.03300
v 0.59744 -0.07102 -0.04500
v 0.58551 -0.06963 -0.03300
v 0.58385 -0.14622 -0.04500
v 0.57219 -0.14334 -0.03300
v 0.56506 -0.20809 -0.04500
v 0.55377 -0.20400 -0.03300
v 0.55207 -0.24090 -0.04500
v 0.54103 -0.23615 -0.03300
v 0.51454 -0.31412 -0.04500
v 0.50424 -0.30793 -0.03300
v 0.49549 -0.34382 -0.04500
v 0.48557 -0.33704 -0.03300
v 0.44851 -0.40408 -0.04500
v 0.43952 -0.39612 -0.03300
v 0.40312 -0.45014 -0.04500
v 0.39502 -0.44126 -0.03300
v 0.37637 -0.47315 -0.04500
v 0.36880 -0.46382 -0.03300
v 0.30911 -0.52055 -0.04500
v 0.30287 -0.51028 -0.03300
v 0.27844 -0.53799 -0.04500
v 0.27281 -0.52738 -0.03300
v 0.20884 -0.56952 -0.04500
v 0.20458 -0.55828 -0.03300
v 0.14724 -0.58920 -0.04500
v 0.14420 -0.57758 -0.03300
v 0.11286 -0.59715 -0.04500
v 0.11050 -0.58537 -0.03300
v 0.03128 -0.60786 -0.04500
v 0.03053 -0.59587 -0.03300
v -0.00398 -0.60905 -0.04500
v -0.00404 -0.59704 -0.03300
v -0.08026 -0.60462 -0.04500
v -0.07881 -0.59269 -0.03300
v -0.14395 -0.59343 -0.04500
v -0.14125 -0.58172 -0.03300
v -0.17809 -0.58449 -0.04500
v -0.17471 -0.57296 -0.03300
v -0.25530 -0.55606 -0.04500
v -0.25039 -0.54509 -0.03300
v -0.28708 -0.54072 -0.04500
v -0.28155 -0.53006 -0.03300
v -0.35256 -0.50135 -0.04500
v -0.34574 -0.49146 -0.03300
v -0.40376 -0.46184 -0.04500
v -0.39592 -0.45273 -0.03300
v -0.42983 -0.43806 -0.04500
v -0.42147 -0.42942 -0.03300
v -0.48498 -0.37701 -0.04500
v -0.47554 -0.36957 -0.03300
v -0.50599 -0.34866 -0.04500
v -0.49614 -0.34179 -0.03300
v -0.54568 -0.28337 -0.04500
v -0.53504 -0.27778 -0.03300
v -0.57265 -0.22459 -0.04500
v -0.56148 -0.22017 -0.03300
v -0.58468 -0.19142 -0.04500
v -0.57327 -0.18765 -0.03300
v -0.60514 -0.11173 -0.04500
v -0.59333 -0.10953 -0.03300
v -0.61058 -0.07686 -0.04500
v -0.59866 -0.07536 -0.03300
v -0.61538 -0.00060 0.04500
v -0.60336 -0.00060 0.03300
v -0.59999 0.06270 0.03300
v -0.61194 0.06397 0.04500
v -0.59533 0.09697 0.03300
v -0.60718 0.09893 0.04500
v -0.57678 0.17546 0.03300
v -0.58826 0.17901 0.04500
v -0.56562 0.20820 0.03300
v -0.57687 0.21241 0.04500
v -0.53504 0.27658 0.03300
v -0.54568 0.28216 0.04500
v -0.50264 0.33106 0.03300
v -0.51263 0.33774 0.04500
v -0.48258 0.35924 0.03300
v -0.49217 0.36649 0.04500
v -0.42969 0.42012 0.03300
v -0.43820 0.42860 0.04500
v -0.40459 0.44392 0.03300
v -0.41260 0.45288 0.04500
v -0.34574 0.49026 0.03300
v -0.35256 0.50015 0.04500
v -0.29173 0.52344 0.03300
v -0.29747 0.53400 0.04500
v -0.26087 0.53907 0.03300
v -0.26599 0.54994 0.04500
v -0.18574 0.56840 0.03300
v -0.18934 0.57986 0.04500
v -0.15246 0.57781 0.03300
v -0.15539 0.58946 0.04500
v -0.07881 0.59149 0.03300
v -0.08026 0.60342 0.04500
v -0.01557 0.59577 0.03300
v -0.01574 0.60779 0.04500
v 0.01901 0.59527 0.03300
v 0.01954 0.60728 0.04500
v 0.09917 0.58633 0.03300
v 0.10131 0.59815 0.04500
v 0.13301 0.57919 0.03300
v 0.13583 0.59087 0.04500
v 0.20458 0.55708 0.03300
v 0.20884 0.56831 0.04500
v 0.26257 0.53148 0.03300
v 0.26800 0.54220 0.04500
v 0.29296 0.51497 0.03300
v 0.29900 0.52535 0.04500
v 0.35978 0.46979 0.03300
v 0.36717 0.47927 0.04500
v 0.38643 0.44775 0.03300
v 0.39435 0.45678 0.04500
v 0.43952 0.39491 0.03300
v 0.44851 0.40288 0.04500
v 0.47897 0.34529 0.03300
v 0.48876 0.35226 0.04500
v 0.49821 0.31655 0.03300
v 0.50838 0.32294 0.04500
v 0.53638 0.24550 0.03300
v 0.54732 0.25046 0.04500
v 0.54973 0.21359 0.03300
v 0.56094 0.21791 0.04500
v 0.57219 0.14213 0.03300
v 0.58385 0.14501 0.04500
v 0.58406 0.07987 0.03300
v 0.59597 0.08149 0.04500
v 0.58774 0.04547 0.03300
v 0.59972 0.04640 0.04500
v 0.58852 -0.03518 0.03300
v 0.60051 -0.03587 0.04500
v 0.58551 -0.06963 0.03300
v 0.59744 -0.07102 0.04500
v 0.57219 -0.14334 0.03300
v 0.58385 -0.14622 0.04500
v 0.55377 -0.20400 0.03300
v 0.56506 -0.20809 0.04500
v 0.54103 -0.23615 0.03300
v 0.55207 -0.24090 0.04500
v 0.50424 -0.30793 0.03300
v 0.51454 -0.31412 0.04500
v 0.48557 -0.33704 0.03300
v 0.49549 -0.34382 0.04500
v 0.43952 -0.39612 0.03300
v 0.44851 -0.40408 0.04500
v 0.39502 -0.44126 0.03300
v 0.40312 -0.45014 0.04500
v 0.36880 -0.46382 0.03300
v 0.37637 -0.47315 0.04500
v 0.30287 -0.51028 0.03300
v 0.30911 -0.52055 0.04500
v 0.27281 -0.52738 0.03300
v 0.27844 -0.53799 0.04500
v 0.20458 -0.55828 0.03300
v 0.20884 -0.56952 0.04500
v 0.14420 -0.57758 0.03300
v 0.14724 -0.58920 0.04500
v 0.11050 -0.58537 0.03300
v 0.11286 -0.59715 0.04500
v 0.03053 -0.59587 0.03300
v 0.03128 -0.60786 0.04500
v -0.00404 -0.59704 0.03300
v -0.00398 -0.60905 0.04500
v -0.07881 -0.59269 0.03300
v -0.08026 -0.60462 0.04500
v -0.14125 -0.58172 0.03300
v -0.14395 -0.59343 0.04500
v -0.17471 -0.57296 0.03300
v -0.17809 -0.58449 0.04500
v -0.25039 -0.54509 0.03300
v -0.25530 -0.55606 0.04500
v -0.28155 -0.53006 0.03300
v -0.28708 -0.54072 0.04500
v -0.34574 -0.49146 0.03300
v -0.35256 -0.50135 0.04500
v -0.39592 -0.45273 0.03300
v -0.40376 -0.46184 0.04500
v -0.42147 -0.42942 0.03300
v -0.42983 -0.43806 0.04500
v -0.47554 -0.36957 0.03300
v -0.48498 -0.37701 0.04500
v -0.49614 -0.34179 0.03300
v -0.50599 -0.34866 0.04500
v -0.53504 -0.27778 0.03300
v -0.54568 -0.28337 0.04500
v -0.56148 -0.22017 0.03300
v -0.57265 -0.22459 0.04500
v -0.57327 -0.18765 0.03300
v -0.58468 -0.19142 0.04500
v -0.59333 -0.10953 0.03300
v -0.60514 -0.11173 0.04500
v -0.59866 -0.07536 0.03300
v -0.61058 -0.07686 0.04500
v -0.20003 0.05893 0.03150
v -0.20603 0.04853 0.01950
v -0.18964 0.05293 0.01950
v -0.20603 0.04853 -0.01950
v -0.20003 0.05893 -0.03150
v -0.18964 0.05293 -0.01950
v -0.15503 0.13687 0.03150
v -0.14464 0.13087 0.01950
v -0.14903 0.14726 0.01950
v -0.15503 0.13687 -0.03150
v -0.14903 0.14726 -0.01950
v -0.14464 0.13087 -0.01950
v -0.53989 0.25515 0.03150
v -0.55028 0.26115 0.01950
v -0.54589 0.24475 0.01950
v -0.53989 0.25515 -0.03150
v -0.54589 0.24475 -0.01950
v -0.55028 0.26115 -0.01950
v -0.49489 0.33309 0.03150
v -0.48889 0.34348 0.01950
v -0.50528 0.33909 0.01950
v -0.49489 0.33309 -0.03150
v -0.50528 0.33909 -0.01950
v -0.48889 0.34348 -0.01950
v -0.05192 0.19640 0.03150
v -0.06392 0.19640 0.01950
v -0.05192 0.18440 0.01950
v -0.06392 0.19640 -0.01950
v -0.05192 0.19640 -0.03150
v -0.05192 0.18440 -0.01950
v 0.03808 0.19640 0.03150
v 0.03808 0.18440 0.01950
v 0.05008 0.19640 0.01950
v 0.03808 0.19640 -0.03150
v 0.05008 0.19640 -0.01950
v 0.03808 0.18440 -0.01950
v -0.05192 0.58884 0.03150
v -0.05192 0.60084 0.01950
v -0.06392 0.58884 0.01950
v -0.05192 0.58884 -0.03150
v -0.06392 0.58884 -0.01950
v -0.05192 0.60084 -0.01950
v 0.03808 0.58884 0.03150
v 0.05008 0.58884 0.01950
v 0.03808 0.60084 0.01950
v 0.03808 0.58884 -0.03150
v 0.03808 0.60084 -0.01950
v 0.05008 0.58884 -0.01950
v 0.14119 0.13687 0.03150
v 0.13519 0.14726 0.01950
v 0.13079 0.13087 0.01950
v 0.13519 0.14726 -0.01950
v 0.14119 0.13687 -0.03150
v 0.13079 0.13087 -0.01950
v 0.18619 0.05893 0.03150
v 0.17579 0.05293 0.01950
v 0.19219 0.04853 0.01950
v 0.18619 0.05893 -0.03150
v 0.19219 0.04853 -0.01950
v 0.17579 0.05293 -0.01950
v 0.48105 0.33309 0.03150
v 0.49144 0.33909 0.01950
v 0.47505 0.34348 0.01950
v 0.48105 0.33309 -0.03150
v 0.47505 0.34348 -0.01950
v 0.49144 0.33909 -0.01950
v 0.52605 0.25515 0.03150
v 0.53205 0.24475 0.01950
v 0.53644 0.26115 0.01950
v 0.52605 0.25515 -0.03150
v 0.53644 0.26115 -0.01950
v 0.53205 0.24475 -0.01950
v 0.18619 -0.06013 0.03150
v 0.19219 -0.04974 0.01950
v 0.17579 -0.05413 0.01950
v 0.19219 -0.04974 -0.01950
v 0.18619 -0.06013 -0.03150
v 0.17579 -0.05413 -0.01950
v 0.14119 -0.13807 0.03150
v 0.13079 -0.13207 0.01950
v 0.13519 -0.14847 0.01950
v 0.14119 -0.13807 -0.03150
v 0.13519 -0.14847 -0.01950
v 0.13079 -0.13207 -0.01950
v 0.52605 -0.25635 0.03150
v 0.53644 -0.26235 0.01950
v 0.53205 -0.24596 0.01950
v 0.52605 -0.25635 -0.03150
v 0.53205 -0.24596 -0.01950
v 0.53644 -0.26235 -0.01950
v 0.48105 -0.33429 0.03150
v 0.47505 -0.34469 0.01950
v 0.49144 -0.34029 0.01950
v 0.48105 -0.33429 -0.03150
v 0.49144 -0.34029 -0.01950
v 0.47505 -0.34469 -0.01950
v 0.03808 -0.19760 0.03150
v 0.05008 -0.19760 0.01950
v 0.03808 -0.18560 0.01950
v 0.05008 -0.19760 -0.01950
v 0.03808 -0.19760 -0.03150
v 0.03808 -0.18560 -0.01950
v -0.05192 -0.19760 0.03150
v -0.05192 -0.18560 0.01950
v -0.06392 -0.19760 0.01950
v -0.05192 -0.19760 -0.03150
v -0.06392 -0.19760 -0.01950
v -0.05192 -0.18560 -0.01950
v 0.03808 -0.59004 0.03150
v 0.03808 -0.60204 0.01950
v 0.05008 -0.59004 0.01950
v 0.03808 -0.59004 -0.03150
v 0.05008 -0.59004 -0.01950
v 0.03808 -0.60204 -0.01950
v -0.05192 -0.59004 0.03150
v -0.06392 -0.59004 0.01950
v -0.05192 -0.60204 0.01950
v -0.05192 -0.59004 -0.03150
v -0.05192 -0.60204 -0.01950
v -0.06392 -0.59004 -0.01950
v -0.15503 -0.13807 0.03150
v -0.14903 -0.14847 0.01950
v -0.14464 -0.13207 0.01950
v -0.14903 -0.14847 -0.01950
v -0.15503 -0.13807 -0.03150
v -0.14464 -0.13207 -0.01950
v -0.20003 -0.06013 0.03150
v -0.18964 -0.05413 0.01950
v -0.20603 -0.04974 0.01950
v -0.20003 -0.06013 -0.03150
v -0.20603 -0.04974 -0.01950
v -0.18964 -0.05413 -0.01950
v -0.49489 -0.33429 0.03150
v -0.50528 -0.34029 0.01950
v -0.48889 -0.34469 0.01950
v -0.49489 -0.33429 -0.03150
v -0.48889 -0.34469 -0.01950
v -0.50528 -0.34029 -0.01950
v -0.53989 -0.25635 0.03150
v -0.54589 -0.24596 0.01950
v -0.55028 -0.26235 0.01950
v -0.53989 -0.25635 -0.03150
v -0.55028 -0.26235 -0.01950
v -0.54589 -0.24596 -0.01950
v -0.00692 0.19616 0.06750
v -0.00692 0.20840 0.05550
v -0.00692 0.19616 -0.06750
v -0.00692 0.20840 -0.05550
v -0.08222 0.18118 0.06750
v -0.08690 0.19249 0.05550
v -0.08222 0.18118 -0.06750
v -0.08690 0.19249 -0.05550
v -0.14606 0.13853 0.06750
v -0.15471 0.14718 0.05550
v -0.14606 0.13853 -0.06750
v -0.15471 0.14718 -0.05550
v -0.18871 0.07470 0.06750
v -0.20001 0.07938 0.05550
v -0.18871 0.07470 -0.06750
v -0.20001 0.07938 -0.05550
v -0.20369 -0.00060 0.06750
v -0.21592 -0.00060 0.05550
v -0.20369 -0.00060 -0.06750
v -0.21592 -0.00060 -0.05550
v -0.18871 -0.07590 0.06750
v -0.20001 -0.08058 0.05550
v -0.18871 -0.07590 -0.06750
v -0.20001 -0.08058 -0.05550
v -0.14606 -0.13974 0.06750
v -0.15471 -0.14839 0.05550
v -0.14606 -0.13974 -0.06750
v -0.15471 -0.14839 -0.05550
v -0.08222 -0.18239 0.06750
v -0.08690 -0.19369 0.05550
v -0.08222 -0.18239 -0.06750
v -0.08690 -0.19369 -0.05550
v -0.00692 -0.19737 0.06750
v -0.00692 -0.20960 0.05550
v -0.00692 -0.19737 -0.06750
v -0.00692 -0.20960 -0.05550
v 0.06838 -0.18239 0.06750
v 0.07306 -0.19369 0.05550
v 0.06838 -0.18239 -0.06750
v 0.07306 -0.19369 -0.05550
v 0.13221 -0.13974 0.06750
v 0.14086 -0.14839 0.05550
v 0.13221 -0.13974 -0.06750
v 0.14086 -0.14839 -0.05550
v 0.17487 -0.07590 0.06750
v 0.18617 -0.08058 0.05550
v 0.17487 -0.07590 -0.06750
v 0.18617 -0.08058 -0.05550
v 0.18984 -0.00060 0.06750
v 0.20208 -0.00060 0.05550
v 0.18984 -0.00060 -0.06750
v 0.20208 -0.00060 -0.05550
v 0.17487 0.07470 0.06750
v 0.18617 0.07938 0.05550
v 0.17487 0.07470 -0.06750
v 0.18617 0.07938 -0.05550
v 0.13221 0.13853 0.06750
v 0.14086 0.14718 0.05550
v 0.13221 0.13853 -0.06750
v 0.14086 0.14718 -0.05550
v 0.06838 0.18118 0.06750
v 0.07306 0.19249 0.05550
v 0.06838 0.18118 -0.06750
v 0.07306 0.19249 -0.05550
f 3 4 5
f 6 7 8
f 9 10 11
f 12 13 14
f 17 18 19
f 20 21 22
f 23 24 25
f 26 27 28
f 31 32 33
f 34 35 36
f 37 38 39
f 40 41 42
f 45 46 47
f 48 49 50
f 51 52 53
f 54 55 56
f 59 60 61
f 62 63 64
f 65 66 67
f 68 69 70
f 73 74 75
f 76 77 78
f 79 80 81
f 82 83 84
f 87 88 89
f 90 91 92
f 93 94 95
f 96 97 98
f 101 102 103
f 104 105 106
f 107 108 109
f 110 111 112
f 115 116 117
f 118 119 120
f 121 122 123
f 124 125 126
f 129 130 131
f 132 133 134
f 135 136 137
f 138 139 140
f 143 144 145
f 146 147 148
f 149 150 151
f 152 153 154
f 157 158 159
f 160 161 162
f 163 164 165
f 166 167 168
f 171 172 173
f 174 175 176
f 177 178 179
f 180 181 182
f 185 186 187
f 188 189 190
f 191 192 193
f 194 195 196
f 199 200 201
f 202 203 204
f 205 206 207
f 208 209 210
f 213 214 215
f 216 217 218
f 219 220 221
f 222 223 224
f 227 228 229
f 230 231 232
f 233 234 235
f 236 237 238
f 241 242 243
f 244 245 246
f 247 248 249
f 250 251 252
f 255 256 257
f 258 259 260
f 261 262 263
f 264 265 266
f 269 270 271
f 272 273 274
f 275 276 277
f 278 279 280
f 283 284 285
f 286 287 288
f 289 290 291
f 292 293 294
f 297 298 299
f 300 301 302
f 303 304 305
f 306 307 308
f 311 312 313
f 314 315 316
f 317 318 319
f 320 321 322
f 325 326 327
f 328 329 330
f 331 332 333
f 334 335 336
f 339 340 341
f 342 343 344
f 345 346 347
f 348 349 350
f 353 354 355
f 356 357 358
f 359 360 361
f 362 363 364
f 625 626 627
f 628 629 630
f 631 632 633
f 634 635 636
f 637 638 639
f 640 641 642
f 643 644 645
f 646 647 648
f 649 650 651
f 652 653 654
f 655 656 657
f 658 659 660
f 661 662 663
f 664 665 666
f 667 668 669
f 670 671 672
f 673 674 675
f 676 677 678
f 679 680 681
f 682 683 684
f 685 686 687
f 688 689 690
f 691 692 693
f 694 695 696
f 697 698 699
f 700 701 702
f 703 704 705
f 706 707 708
f 709 710 711
f 712 713 714
f 715 716 717
f 718 719 720
f 721 722 723
f 724 725 726
f 727 728 729
f 730 731 732
f 733 734 735
f 736 737 738
f 739 740 741
f 742 743 744
f 745 746 747
f 748 749 750
f 751 752 753
f 754 755 756
f 757 758 759
f 760 761 762
f 763 764 765
f 766 767 768
f 3 1 2
f 365 367 368
f 185 184 186
f 497 495 496
f 4 185 187
f 4 8 5
f 368 369 370
f 187 189 188
f 499 498 497
f 7 188 190
f 7 11 8
f 370 371 372
f 191 189 192
f 499 502 500
f 10 191 193
f 12 11 10
f 372 373 374
f 194 192 195
f 501 504 502
f 13 194 196
f 13 16 14
f 374 375 376
f 196 197 198
f 505 504 503
f 17 16 15
f 378 375 377
f 199 197 200
f 505 508 506
f 18 199 201
f 18 22 19
f 378 379 380
f 201 203 202
f 507 510 508
f 21 202 204
f 23 22 21
f 382 379 381
f 205 203 206
f 511 510 509
f 24 205 207
f 26 25 24
f 384 381 383
f 208 206 209
f 513 512 511
f 27 208 210
f 27 30 28
f 384 385 386
f 210 211 212
f 513 516 514
f 31 30 29
f 388 385 387
f 213 211 214
f 517 516 515
f 32 213 215
f 32 36 33
f 390 387 389
f 215 217 216
f 519 518 517
f 35 216 218
f 37 36 35
f 390 391 392
f 219 217 220
f 519 522 520
f 221 37 219
f 40 39 38
f 394 391 393
f 222 220 223
f 523 522 521
f 41 222 224
f 41 44 42
f 396 393 395
f 224 225 226
f 525 524 523
f 45 44 43
f 396 397 398
f 227 225 228
f 525 528 526
f 229 45 227
f 46 50 47
f 400 397 399
f 229 231 230
f 529 528 527
f 49 230 232
f 49 53 50
f 402 399 401
f 232 234 233
f 531 530 529
f 52 233 235
f 54 53 52
f 404 401 403
f 236 234 237
f 533 532 531
f 55 236 238
f 55 58 56
f 406 403 405
f 238 239 240
f 535 534 533
f 59 58 57
f 406 407 408
f 241 239 242
f 537 536 535
f 60 241 243
f 60 64 61
f 410 407 409
f 243 245 244
f 537 540 538
f 246 62 244
f 65 64 63
f 410 411 412
f 247 245 248
f 539 542 540
f 66 247 249
f 68 67 66
f 412 413 414
f 250 248 251
f 541 544 542
f 69 250 252
f 69 72 70
f 416 413 415
f 252 253 254
f 545 544 543
f 73 72 71
f 418 415 417
f 255 253 256
f 547 546 545
f 257 73 255
f 74 78 75
f 420 417 419
f 257 259 258
f 547 550 548
f 77 258 260
f 79 78 77
f 422 419 421
f 261 259 262
f 551 550 549
f 80 261 263
f 82 81 80
f 424 421 423
f 264 262 265
f 551 554 552
f 83 264 266
f 83 86 84
f 424 425 426
f 266 267 268
f 553 556 554
f 87 86 85
f 426 427 428
f 269 267 270
f 557 556 555
f 88 269 271
f 88 92 89
f 428 429 430
f 271 273 272
f 559 558 557
f 91 272 274
f 93 92 91
f 432 429 431
f 274 276 275
f 561 560 559
f 94 275 277
f 96 95 94
f 434 431 433
f 278 276 279
f 563 562 561
f 97 278 280
f 97 100 98
f 436 433 435
f 280 281 282
f 563 566 564
f 101 100 99
f 438 435 437
f 283 281 284
f 565 568 566
f 102 283 285
f 102 106 103
f 440 437 439
f 285 287 286
f 567 570 568
f 105 286 288
f 107 106 105
f 440 441 442
f 288 290 289
f 569 572 570
f 108 289 291
f 110 109 108
f 442 443 444
f 292 290 293
f 571 574 572
f 111 292 294
f 111 114 112
f 446 443 445
f 294 295 296
f 573 576 574
f 115 114 113
f 446 447 448
f 297 295 298
f 575 578 576
f 116 297 299
f 116 120 117
f 450 447 449
f 299 301 300
f 579 578 577
f 119 300 302
f 121 120 119
f 452 449 451
f 303 301 304
f 581 580 579
f 122 303 305
f 124 123 122
f 452 453 454
f 306 304 307
f 581 584 582
f 125 306 308
f 125 128 126
f 454 455 456
f 308 309 310
f 585 584 583
f 129 128 127
f 456 457 458
f 311 309 312
f 585 588 586
f 130 311 313
f 130 134 131
f 460 457 459
f 313 315 314
f 589 588 587
f 133 314 316
f 135 134 133
f 462 459 461
f 316 318 317
f 591 590 589
f 136 317 319
f 138 137 136
f 464 461 463
f 320 318 321
f 593 592 591
f 139 320 322
f 139 142 140
f 464 465 466
f 322 323 324
f 595 594 593
f 143 142 141
f 466 467 468
f 325 323 326
f 595 598 596
f 144 325 327
f 144 148 145
f 470 467 469
f 327 329 328
f 599 598 597
f 147 328 330
f 149 148 147
f 472 469 471
f 331 329 332
f 601 600 599
f 150 331 333
f 152 151 150
f 474 471 473
f 334 332 335
f 603 602 601
f 153 334 336
f 153 156 154
f 474 475 476
f 336 337 338
f 605 604 603
f 157 156 155
f 476 477 478
f 339 337 340
f 607 606 605
f 158 339 341
f 158 162 159
f 480 477 479
f 341 343 342
f 609 608 607
f 161 342 344
f 163 162 161
f 482 479 481
f 344 346 345
f 609 612 610
f 164 345 347
f 166 165 164
f 484 481 483
f 348 346 349
f 613 612 611
f 167 348 350
f 167 170 168
f 486 483 485
f 350 351 352
f 615 614 613
f 171 170 169
f 486 487 488
f 353 351 354
f 615 618 616
f 172 353 355
f 172 176 173
f 490 487 489
f 355 357 356
f 619 618 617
f 175 356 358
f 177 176 175
f 492 489 491
f 359 357 360
f 621 620 619
f 178 359 361
f 180 179 178
f 492 493 494
f 362 360 363
f 621 624 622
f 181 362 364
f 181 1 182
f 494 366 365
f 364 184 183
f 623 495 624
f 625 632 631
f 628 627 626
f 634 630 629
f 633 636 635
f 643 633 644
f 646 635 634
f 645 648 647
f 643 638 637
f 640 647 646
f 639 642 641
f 625 639 626
f 629 641 640
f 649 656 655
f 652 651 650
f 658 654 653
f 657 660 659
f 655 668 667
f 670 659 658
f 669 672 671
f 667 662 661
f 664 671 670
f 663 666 665
f 649 663 650
f 653 665 664
f 673 680 679
f 676 675 674
f 682 678 677
f 681 684 683
f 691 681 692
f 682 696 683
f 693 696 695
f 685 693 686
f 688 695 694
f 687 690 689
f 673 687 674
f 688 676 689
f 697 704 703
f 700 699 698
f 701 708 702
f 705 708 707
f 703 716 715
f 706 720 707
f 717 720 719
f 709 717 710
f 712 719 718
f 711 714 713
f 709 698 697
f 701 713 712
f 721 728 727
f 724 723 722
f 730 726 725
f 729 732 731
f 727 740 739
f 742 731 730
f 741 744 743
f 739 734 733
f 736 743 742
f 735 738 737
f 733 722 721
f 725 737 736
f 751 747 752
f 748 747 746
f 754 750 749
f 753 756 755
f 751 764 763
f 754 768 755
f 765 768 767
f 757 765 758
f 760 767 766
f 761 758 762
f 745 759 746
f 760 748 761
f 774 769 770
f 776 771 775
f 774 777 773
f 776 779 780
f 782 777 778
f 784 779 783
f 786 781 782
f 788 783 787
f 786 789 785
f 788 791 792
f 790 793 789
f 792 795 796
f 798 793 794
f 800 795 799
f 798 801 797
f 800 803 804
f 806 801 802
f 808 803 807
f 806 809 805
f 808 811 812
f 814 809 810
f 816 811 815
f 818 813 814
f 820 815 819
f 818 821 817
f 820 823 824
f 822 825 821
f 824 827 828
f 830 825 826
f 832 827 831
f 830 769 829
f 832 771 772
f 182 366 493
f 5 366 1
f 185 2 183
f 183 181 364
f 188 4 187
f 5 369 367
f 190 9 7
f 8 371 369
f 194 10 193
f 14 371 11
f 198 13 196
f 14 375 373
f 199 15 198
f 19 375 16
f 202 18 201
f 19 379 377
f 204 23 21
f 25 379 22
f 207 26 24
f 28 381 25
f 210 29 27
f 28 385 383
f 213 29 212
f 33 385 30
f 216 32 215
f 33 389 387
f 219 35 218
f 36 391 389
f 222 38 221
f 42 391 39
f 226 41 224
f 42 395 393
f 227 43 226
f 47 395 44
f 229 48 46
f 47 399 397
f 233 49 232
f 53 399 50
f 236 52 235
f 56 401 53
f 240 55 238
f 56 405 403
f 240 59 57
f 61 405 58
f 244 60 243
f 61 409 407
f 247 63 246
f 67 409 64
f 250 66 249
f 70 411 67
f 254 69 252
f 70 415 413
f 255 71 254
f 75 415 72
f 258 74 257
f 75 419 417
f 261 77 260
f 81 419 78
f 264 80 263
f 84 421 81
f 266 85 83
f 84 425 423
f 269 85 268
f 89 425 86
f 272 88 271
f 89 429 427
f 275 91 274
f 92 431 429
f 278 94 277
f 98 431 95
f 280 99 97
f 98 435 433
f 283 99 282
f 103 435 100
f 286 102 285
f 103 439 437
f 289 105 288
f 109 439 106
f 292 108 291
f 112 441 109
f 296 111 294
f 112 445 443
f 297 113 296
f 117 445 114
f 300 116 299
f 117 449 447
f 303 119 302
f 123 449 120
f 306 122 305
f 126 451 123
f 310 125 308
f 126 455 453
f 311 127 310
f 131 455 128
f 314 130 313
f 131 459 457
f 317 133 316
f 137 459 134
f 319 138 136
f 140 461 137
f 324 139 322
f 140 465 463
f 325 141 324
f 145 465 142
f 328 144 327
f 145 469 467
f 331 147 330
f 151 469 148
f 333 152 150
f 154 471 151
f 336 155 153
f 154 475 473
f 339 155 338
f 159 475 156
f 342 158 341
f 159 479 477
f 345 161 344
f 165 479 162
f 348 164 347
f 168 481 165
f 350 169 167
f 168 485 483
f 353 169 352
f 173 485 170
f 356 172 355
f 173 489 487
f 359 175 358
f 176 491 489
f 362 178 361
f 182 491 179
f 186 495 498
f 363 495 184
f 186 500 189
f 189 502 192
f 195 502 504
f 195 506 197
f 200 506 508
f 200 510 203
f 203 512 206
f 209 512 514
f 209 516 211
f 214 516 518
f 214 520 217
f 217 522 220
f 223 522 524
f 223 526 225
f 228 526 528
f 228 530 231
f 234 530 532
f 237 532 534
f 237 536 239
f 242 536 538
f 242 540 245
f 248 540 542
f 251 542 544
f 251 546 253
f 256 546 548
f 256 550 259
f 259 552 262
f 265 552 554
f 265 556 267
f 270 556 558
f 270 560 273
f 273 562 276
f 279 562 564
f 279 566 281
f 284 566 568
f 284 570 287
f 290 570 572
f 293 572 574
f 293 576 295
f 298 576 578
f 298 580 301
f 301 582 304
f 307 582 584
f 307 586 309
f 312 586 588
f 312 590 315
f 315 592 318
f 321 592 594
f 321 596 323
f 326 596 598
f 326 600 329
f 329 602 332
f 335 602 604
f 335 606 337
f 340 606 608
f 340 610 343
f 343 612 346
f 349 612 614
f 349 616 351
f 354 616 618
f 354 620 357
f 357 622 360
f 363 622 624
f 368 496 365
f 365 623 494
f 370 497 368
f 372 499 370
f 374 501 372
f 376 503 374
f 378 505 376
f 380 507 378
f 382 509 380
f 384 511 382
f 386 513 384
f 388 515 386
f 390 517 388
f 392 519 390
f 394 521 392
f 396 523 394
f 398 525 396
f 400 527 398
f 402 529 400
f 404 531 402
f 406 533 404
f 408 535 406
f 410 537 408
f 412 539 410
f 414 541 412
f 416 543 414
f 418 545 416
f 420 547 418
f 422 549 420
f 424 551 422
f 426 553 424
f 428 555 426
f 430 557 428
f 432 559 430
f 434 561 432
f 436 563 434
f 436 567 565
f 440 567 438
f 442 569 440
f 444 571 442
f 446 573 444
f 448 575 446
f 450 577 448
f 452 579 450
f 454 581 452
f 456 583 454
f 458 585 456
f 460 587 458
f 462 589 460
f 464 591 462
f 466 593 464
f 468 595 466
f 470 597 468
f 472 599 470
f 474 601 472
f 476 603 474
f 478 605 476
f 480 607 478
f 482 609 480
f 484 611 482
f 486 613 484
f 488 615 486
f 490 617 488
f 492 619 490
f 494 621 492
f 643 625 631
f 627 636 632
f 641 626 639
f 646 629 640
f 633 648 644
f 647 638 645
f 667 649 655
f 654 656 651
f 665 650 663
f 658 664 670
f 659 668 657
f 671 662 669
f 679 685 673
f 678 680 675
f 689 674 687
f 682 688 694
f 683 692 681
f 693 690 686
f 715 697 703
f 702 704 699
f 713 698 711
f 706 712 718
f 707 716 705
f 717 714 710
f 739 721 727
f 726 728 723
f 737 722 735
f 742 725 736
f 731 740 729
f 743 734 741
f 751 757 745
f 747 756 752
f 761 746 759
f 754 760 766
f 755 764 753
f 765 762 758
f 797 813 829
f 772 774 770
f 832 770 830
f 811 795 779
f 776 778 774
f 780 782 778
f 784 786 782
f 788 790 786
f 792 794 790
f 796 798 794
f 800 802 798
f 804 806 802
f 808 810 806
f 812 814 810
f 816 818 814
f 818 824 822
f 824 826 822
f 828 830 826
f 3 5 1
f 365 366 367
f 185 183 184
f 497 498 495
f 4 3 185
f 4 6 8
f 368 367 369
f 187 186 189
f 499 500 498
f 7 6 188
f 7 9 11
f 370 369 371
f 191 190 189
f 499 501 502
f 10 9 191
f 12 14 11
f 372 371 373
f 194 193 192
f 501 503 504
f 13 12 194
f 13 15 16
f 374 373 375
f 196 195 197
f 505 506 504
f 17 19 16
f 378 376 375
f 199 198 197
f 505 507 508
f 18 17 199
f 18 20 22
f 378 377 379
f 201 200 203
f 507 509 510
f 21 20 202
f 23 25 22
f 382 380 379
f 205 204 203
f 511 512 510
f 24 23 205
f 26 28 25
f 384 382 381
f 208 207 206
f 513 514 512
f 27 26 208
f 27 29 30
f 384 383 385
f 210 209 211
f 513 515 516
f 31 33 30
f 388 386 385
f 213 212 211
f 517 518 516
f 32 31 213
f 32 34 36
f 390 388 387
f 215 214 217
f 519 520 518
f 35 34 216
f 37 39 36
f 390 389 391
f 219 218 217
f 519 521 522
f 221 38 37
f 40 42 39
f 394 392 391
f 222 221 220
f 523 524 522
f 41 40 222
f 41 43 44
f 396 394 393
f 224 223 225
f 525 526 524
f 45 47 44
f 396 395 397
f 227 226 225
f 525 527 528
f 229 46 45
f 46 48 50
f 400 398 397
f 229 228 231
f 529 530 528
f 49 48 230
f 49 51 53
f 402 400 399
f 232 231 234
f 531 532 530
f 52 51 233
f 54 56 53
f 404 402 401
f 236 235 234
f 533 534 532
f 55 54 236
f 55 57 58
f 406 404 403
f 238 237 239
f 535 536 534
f 59 61 58
f 406 405 407
f 241 240 239
f 537 538 536
f 60 59 241
f 60 62 64
f 410 408 407
f 243 242 245
f 537 539 540
f 246 63 62
f 65 67 64
f 410 409 411
f 247 246 245
f 539 541 542
f 66 65 247
f 68 70 67
f 412 411 413
f 250 249 248
f 541 543 544
f 69 68 250
f 69 71 72
f 416 414 413
f 252 251 253
f 545 546 544
f 73 75 72
f 418 416 415
f 255 254 253
f 547 548 546
f 257 74 73
f 74 76 78
f 420 418 417
f 257 256 259
f 547 549 550
f 77 76 258
f 79 81 78
f 422 420 419
f 261 260 259
f 551 552 550
f 80 79 261
f 82 84 81
f 424 422 421
f 264 263 262
f 551 553 554
f 83 82 264
f 83 85 86
f 424 423 425
f 266 265 267
f 553 555 556
f 87 89 86
f 426 425 427
f 269 268 267
f 557 558 556
f 88 87 269
f 88 90 92
f 428 427 429
f 271 270 273
f 559 560 558
f 91 90 272
f 93 95 92
f 432 430 429
f 274 273 276
f 561 562 560
f 94 93 275
f 96 98 95
f 434 432 431
f 278 277 276
f 563 564 562
f 97 96 278
f 97 99 100
f 436 434 433
f 280 279 281
f 563 565 566
f 101 103 100
f 438 436 435
f 283 282 281
f 565 567 568
f 102 101 283
f 102 104 106
f 440 438 437
f 285 284 287
f 567 569 570
f 105 104 286
f 107 109 106
f 440 439 441
f 288 287 290
f 569 571 572
f 108 107 289
f 110 112 109
f 442 441 443
f 292 291 290
f 571 573 574
f 111 110 292
f 111 113 114
f 446 444 443
f 294 293 295
f 573 575 576
f 115 117 114
f 446 445 447
f 297 296 295
f 575 577 578
f 116 115 297
f 116 118 120
f 450 448 447
f 299 298 301
f 579 580 578
f 119 118 300
f 121 123 120
f 452 450 449
f 303 302 301
f 581 582 580
f 122 121 303
f 124 126 123
f 452 451 453
f 306 305 304
f 581 583 584
f 125 124 306
f 125 127 128
f 454 453 455
f 308 307 309
f 585 586 584
f 129 131 128
f 456 455 457
f 311 310 309
f 585 587 588
f 130 129 311
f 130 132 134
f 460 458 457
f 313 312 315
f 589 590 588
f 133 132 314
f 135 137 134
f 462 460 459
f 316 315 318
f 591 592 590
f 136 135 317
f 138 140 137
f 464 462 461
f 320 319 318
f 593 594 592
f 139 138 320
f 139 141 142
f 464 463 465
f 322 321 323
f 595 596 594
f 143 145 142
f 466 465 467
f 325 324 323
f 595 597 598
f 144 143 325
f 144 146 148
f 470 468 467
f 327 326 329
f 599 600 598
f 147 146 328
f 149 151 148
f 472 470 469
f 331 330 329
f 601 602 600
f 150 149 331
f 152 154 151
f 474 472 471
f 334 333 332
f 603 604 602
f 153 152 334
f 153 155 156
f 474 473 475
f 336 335 337
f 605 606 604
f 157 159 156
f 476 475 477
f 339 338 337
f 607 608 606
f 158 157 339
f 158 160 162
f 480 478 477
f 341 340 343
f 609 610 608
f 161 160 342
f 163 165 162
f 482 480 479
f 344 343 346
f 609 611 612
f 164 163 345
f 166 168 165
f 484 482 481
f 348 347 346
f 613 614 612
f 167 166 348
f 167 169 170
f 486 484 483
f 350 349 351
f 615 616 614
f 171 173 170
f 486 485 487
f 353 352 351
f 615 617 618
f 172 171 353
f 172 174 176
f 490 488 487
f 355 354 357
f 619 620 618
f 175 174 356
f 177 179 176
f 492 490 489
f 359 358 357
f 621 622 620
f 178 177 359
f 180 182 179
f 492 491 493
f 362 361 360
f 621 623 624
f 181 180 362
f 181 2 1
f 494 493 366
f 364 363 184
f 623 496 495
f 625 627 632
f 628 630 627
f 634 636 630
f 633 632 636
f 643 631 633
f 646 648 635
f 645 644 648
f 643 645 638
f 640 642 647
f 639 638 642
f 625 637 639
f 629 628 641
f 649 651 656
f 652 654 651
f 658 660 654
f 657 656 660
f 655 657 668
f 670 672 659
f 669 668 672
f 667 669 662
f 664 666 671
f 663 662 666
f 649 661 663
f 653 652 665
f 673 675 680
f 676 678 675
f 682 684 678
f 681 680 684
f 691 679 681
f 682 694 696
f 693 692 696
f 685 691 693
f 688 690 695
f 687 686 690
f 673 685 687
f 688 677 676
f 697 699 704
f 700 702 699
f 701 706 708
f 705 704 708
f 703 705 716
f 706 718 720
f 717 716 720
f 709 715 717
f 712 714 719
f 711 710 714
f 709 711 698
f 701 700 713
f 721 723 728
f 724 726 723
f 730 732 726
f 729 728 732
f 727 729 740
f 742 744 731
f 741 740 744
f 739 741 734
f 736 738 743
f 735 734 738
f 733 735 722
f 725 724 737
f 751 745 747
f 748 750 747
f 754 756 750
f 753 752 756
f 751 753 764
f 754 766 768
f 765 764 768
f 757 763 765
f 760 762 767
f 761 759 758
f 745 757 759
f 760 749 748
f 774 773 769
f 776 772 771
f 774 778 777
f 776 775 779
f 782 781 777
f 784 780 779
f 786 785 781
f 788 784 783
f 786 790 789
f 788 787 791
f 790 794 793
f 792 791 795
f 798 797 793
f 800 796 795
f 798 802 801
f 800 799 803
f 806 805 801
f 808 804 803
f 806 810 809
f 808 807 811
f 814 813 809
f 816 812 811
f 818 817 813
f 820 816 815
f 818 822 821
f 820 819 823
f 822 826 825
f 824 823 827
f 830 829 825
f 832 828 827
f 830 770 769
f 832 831 771
f 182 1 366
f 5 367 366
f 185 3 2
f 183 2 181
f 188 6 4
f 5 8 369
f 190 191 9
f 8 11 371
f 194 12 10
f 14 373 371
f 198 15 13
f 14 16 375
f 199 17 15
f 19 377 375
f 202 20 18
f 19 22 379
f 204 205 23
f 25 381 379
f 207 208 26
f 28 383 381
f 210 212 29
f 28 30 385
f 213 31 29
f 33 387 385
f 216 34 32
f 33 36 389
f 219 37 35
f 36 39 391
f 222 40 38
f 42 393 391
f 226 43 41
f 42 44 395
f 227 45 43
f 47 397 395
f 229 230 48
f 47 50 399
f 233 51 49
f 53 401 399
f 236 54 52
f 56 403 401
f 240 57 55
f 56 58 405
f 240 241 59
f 61 407 405
f 244 62 60
f 61 64 409
f 247 65 63
f 67 411 409
f 250 68 66
f 70 413 411
f 254 71 69
f 70 72 415
f 255 73 71
f 75 417 415
f 258 76 74
f 75 78 419
f 261 79 77
f 81 421 419
f 264 82 80
f 84 423 421
f 266 268 85
f 84 86 425
f 269 87 85
f 89 427 425
f 272 90 88
f 89 92 429
f 275 93 91
f 92 95 431
f 278 96 94
f 98 433 431
f 280 282 99
f 98 100 435
f 283 101 99
f 103 437 435
f 286 104 102
f 103 106 439
f 289 107 105
f 109 441 439
f 292 110 108
f 112 443 441
f 296 113 111
f 112 114 445
f 297 115 113
f 117 447 445
f 300 118 116
f 117 120 449
f 303 121 119
f 123 451 449
f 306 124 122
f 126 453 451
f 310 127 125
f 126 128 455
f 311 129 127
f 131 457 455
f 314 132 130
f 131 134 459
f 317 135 133
f 137 461 459
f 319 320 138
f 140 463 461
f 324 141 139
f 140 142 465
f 325 143 141
f 145 467 465
f 328 146 144
f 145 148 469
f 331 149 147
f 151 471 469
f 333 334 152
f 154 473 471
f 336 338 155
f 154 156 475
f 339 157 155
f 159 477 475
f 342 160 158
f 159 162 479
f 345 163 161
f 165 481 479
f 348 166 164
f 168 483 481
f 350 352 169
f 168 170 485
f 353 171 169
f 173 487 485
f 356 174 172
f 173 176 489
f 359 177 175
f 176 179 491
f 362 180 178
f 182 493 491
f 186 184 495
f 363 624 495
f 186 498 500
f 189 500 502
f 195 192 502
f 195 504 506
f 200 197 506
f 200 508 510
f 203 510 512
f 209 206 512
f 209 514 516
f 214 211 516
f 214 518 520
f 217 520 522
f 223 220 522
f 223 524 526
f 228 225 526
f 228 528 530
f 234 231 530
f 237 234 532
f 237 534 536
f 242 239 536
f 242 538 540
f 248 245 540
f 251 248 542
f 251 544 546
f 256 253 546
f 256 548 550
f 259 550 552
f 265 262 552
f 265 554 556
f 270 267 556
f 270 558 560
f 273 560 562
f 279 276 562
f 279 564 566
f 284 281 566
f 284 568 570
f 290 287 570
f 293 290 572
f 293 574 576
f 298 295 576
f 298 578 580
f 301 580 582
f 307 304 582
f 307 584 586
f 312 309 586
f 312 588 590
f 315 590 592
f 321 318 592
f 321 594 596
f 326 323 596
f 326 598 600
f 329 600 602
f 335 332 602
f 335 604 606
f 340 337 606
f 340 608 610
f 343 610 612
f 349 346 612
f 349 614 616
f 354 351 616
f 354 618 620
f 357 620 622
f 363 360 622
f 368 497 496
f 365 496 623
f 370 499 497
f 372 501 499
f 374 503 501
f 376 505 503
f 378 507 505
f 380 509 507
f 382 511 509
f 384 513 511
f 386 515 513
f 388 517 515
f 390 519 517
f 392 521 519
f 394 523 521
f 396 525 523
f 398 527 525
f 400 529 527
f 402 531 529
f 404 533 531
f 406 535 533
f 408 537 535
f 410 539 537
f 412 541 539
f 414 543 541
f 416 545 543
f 418 547 545
f 420 549 547
f 422 551 549
f 424 553 551
f 426 555 553
f 428 557 555
f 430 559 557
f 432 561 559
f 434 563 561
f 436 565 563
f 436 438 567
f 440 569 567
f 442 571 569
f 444 573 571
f 446 575 573
f 448 577 575
f 450 579 577
f 452 581 579
f 454 583 581
f 456 585 583
f 458 587 585
f 460 589 587
f 462 591 589
f 464 593 591
f 466 595 593
f 468 597 595
f 470 599 597
f 472 601 599
f 474 603 601
f 476 605 603
f 478 607 605
f 480 609 607
f 482 611 609
f 484 613 611
f 486 615 613
f 488 617 615
f 490 619 617
f 492 621 619
f 494 623 621
f 643 637 625
f 627 630 636
f 641 628 626
f 646 634 629
f 633 635 648
f 647 642 638
f 667 661 649
f 654 660 656
f 665 652 650
f 658 653 664
f 659 672 668
f 671 666 662
f 679 691 685
f 678 684 680
f 689 676 674
f 682 677 688
f 683 696 692
f 693 695 690
f 715 709 697
f 702 708 704
f 713 700 698
f 706 701 712
f 707 720 716
f 717 719 714
f 739 733 721
f 726 732 728
f 737 724 722
f 742 730 725
f 731 744 740
f 743 738 734
f 751 763 757
f 747 750 756
f 761 748 746
f 754 749 760
f 755 768 764
f 765 767 762
f 829 769 773
f 773 777 781
f 781 785 789
f 789 793 797
f 797 801 805
f 805 809 813
f 813 817 821
f 821 825 829
f 829 773 781
f 781 789 797
f 797 805 813
f 813 821 829
f 829 781 797
f 772 776 774
f 832 772 770
f 779 775 827
f 775 771 827
f 771 831 827
f 827 823 819
f 819 815 827
f 815 811 827
f 811 807 803
f 803 799 811
f 799 795 811
f 795 791 787
f 787 783 795
f 783 779 795
f 779 827 811
f 776 780 778
f 780 784 782
f 784 788 786
f 788 792 790
f 792 796 794
f 796 800 798
f 800 804 802
f 804 808 806
f 808 812 810
f 812 816 814
f 816 820 818
f 818 820 824
f 824 828 826
f 828 832 830
