# clockwork_pocket Big_Glow.obj: Roblox cue frame, recentred on its bounding box
v -0.62210 0.09853 -0.04700
v -0.62985 0.00000 -0.04700
v -0.00000 0.12350 0.08000
v -0.00000 0.12350 -0.08000
v -0.03816 0.11746 0.08000
v -0.03816 0.11746 -0.08000
v -0.07259 0.09991 0.08000
v -0.07259 0.09991 -0.08000
v -0.09991 0.07259 0.08000
v -0.09991 0.07259 -0.08000
v -0.11746 0.03816 0.08000
v -0.11746 0.03816 -0.08000
v -0.12350 0.00000 0.08000
v -0.12350 0.00000 -0.08000
v -0.11746 -0.03816 0.08000
v -0.11746 -0.03816 -0.08000
v -0.09991 -0.07259 0.08000
v -0.09991 -0.07259 -0.08000
v -0.07259 -0.09991 0.08000
v -0.07259 -0.09991 -0.08000
v -0.03816 -0.11746 0.08000
v -0.03816 -0.11746 -0.08000
v -0.00000 -0.12350 0.08000
v -0.00000 -0.12350 -0.08000
v 0.03816 -0.11746 0.08000
v 0.03816 -0.11746 -0.08000
v 0.07259 -0.09991 0.08000
v 0.07259 -0.09991 -0.08000
v 0.09991 -0.07259 0.08000
v 0.09991 -0.07259 -0.08000
v 0.11746 -0.03816 0.08000
v 0.11746 -0.03816 -0.08000
v 0.12350 0.00000 0.08000
v 0.12350 0.00000 -0.08000
v 0.11746 0.03816 0.08000
v 0.11746 0.03816 -0.08000
v 0.09991 0.07259 0.08000
v 0.09991 0.07259 -0.08000
v 0.07259 0.09991 0.08000
v 0.07259 0.09991 -0.08000
v 0.03816 0.11746 0.08000
v 0.03816 0.11746 -0.08000
v -0.59902 0.19463 -0.04700
v -0.56120 0.28595 -0.04700
v -0.50956 0.37022 -0.04700
v -0.44537 0.44537 -0.04700
v -0.37022 0.50956 -0.04700
v -0.28595 0.56120 -0.04700
v -0.19463 0.59902 -0.04700
v -0.09853 0.62210 -0.04700
v -0.00000 0.62985 -0.04700
v 0.09853 0.62210 -0.04700
v 0.19463 0.59902 -0.04700
v 0.28595 0.56120 -0.04700
v 0.37022 0.50956 -0.04700
v 0.44537 0.44537 -0.04700
v 0.50956 0.37022 -0.04700
v 0.56120 0.28595 -0.04700
v 0.59902 0.19463 -0.04700
v 0.62210 0.09853 -0.04700
v 0.62985 0.00000 -0.04700
v 0.62210 -0.09853 -0.04700
v 0.59902 -0.19463 -0.04700
v 0.56120 -0.28595 -0.04700
v 0.50956 -0.37022 -0.04700
v 0.44537 -0.44537 -0.04700
v 0.37022 -0.50956 -0.04700
v 0.28595 -0.56120 -0.04700
v 0.19463 -0.59902 -0.04700
v 0.09853 -0.62210 -0.04700
v 0.00000 -0.62985 -0.04700
v -0.09853 -0.62210 -0.04700
v -0.19463 -0.59902 -0.04700
v -0.28595 -0.56120 -0.04700
v -0.37022 -0.50956 -0.04700
v -0.44537 -0.44537 -0.04700
v -0.50956 -0.37022 -0.04700
v -0.56120 -0.28595 -0.04700
v -0.59902 -0.19463 -0.04700
v -0.62210 -0.09853 -0.04700
v -0.71060 0.00000 -0.04700
v -0.70185 0.11116 -0.04700
v -0.67582 0.21959 -0.04700
v -0.63315 0.32261 -0.04700
v -0.57489 0.41768 -0.04700
v -0.50247 0.50247 -0.04700
v -0.41768 0.57489 -0.04700
v -0.32261 0.63315 -0.04700
v -0.21959 0.67582 -0.04700
v -0.11116 0.70185 -0.04700
v -0.00000 0.71060 -0.04700
v 0.11116 0.70185 -0.04700
v 0.21959 0.67582 -0.04700
v 0.32261 0.63315 -0.04700
v 0.41768 0.57489 -0.04700
v 0.50247 0.50247 -0.04700
v 0.57489 0.41768 -0.04700
v 0.63315 0.32261 -0.04700
v 0.67582 0.21959 -0.04700
v 0.70185 0.11116 -0.04700
v 0.71060 0.00000 -0.04700
v 0.70185 -0.11116 -0.04700
v 0.67582 -0.21959 -0.04700
v 0.63315 -0.32261 -0.04700
v 0.57489 -0.41768 -0.04700
v 0.50247 -0.50247 -0.04700
v 0.41768 -0.57489 -0.04700
v 0.32261 -0.63315 -0.04700
v 0.21959 -0.67582 -0.04700
v 0.11116 -0.70185 -0.04700
v 0.00000 -0.71060 -0.04700
v -0.11116 -0.70185 -0.04700
v -0.21959 -0.67582 -0.04700
v -0.32261 -0.63315 -0.04700
v -0.41768 -0.57489 -0.04700
v -0.50247 -0.50247 -0.04700
v -0.57489 -0.41768 -0.04700
v -0.63315 -0.32261 -0.04700
v -0.67582 -0.21959 -0.04700
v -0.70185 -0.11116 -0.04700
v -0.62985 0.00000 0.04700
v -0.62210 0.09853 0.04700
v -0.59902 0.19463 0.04700
v -0.56120 0.28595 0.04700
v -0.50956 0.37022 0.04700
v -0.44537 0.44537 0.04700
v -0.37022 0.50956 0.04700
v -0.28595 0.56120 0.04700
v -0.19463 0.59902 0.04700
v -0.09853 0.62210 0.04700
v -0.00000 0.62985 0.04700
v 0.09853 0.62210 0.04700
v 0.19463 0.59902 0.04700
v 0.28595 0.56120 0.04700
v 0.37022 0.50956 0.04700
v 0.44537 0.44537 0.04700
v 0.50956 0.37022 0.04700
v 0.56120 0.28595 0.04700
v 0.59902 0.19463 0.04700
v 0.62210 0.09853 0.04700
v 0.62985 0.00000 0.04700
v 0.62210 -0.09853 0.04700
v 0.59902 -0.19463 0.04700
v 0.56120 -0.28595 0.04700
v 0.50956 -0.37022 0.04700
v 0.44537 -0.44537 0.04700
v 0.37022 -0.50956 0.04700
v 0.28595 -0.56120 0.04700
v 0.19463 -0.59902 0.04700
v 0.09853 -0.62210 0.04700
v 0.00000 -0.62985 0.04700
v -0.09853 -0.62210 0.04700
v -0.19463 -0.59902 0.04700
v -0.28595 -0.56120 0.04700
v -0.37022 -0.50956 0.04700
v -0.44537 -0.44537 0.04700
v -0.50956 -0.37022 0.04700
v -0.56120 -0.28595 0.04700
v -0.59902 -0.19463 0.04700
v -0.62210 -0.09853 0.04700
v -0.71060 0.00000 0.04700
v -0.70185 0.11116 0.04700
v -0.67582 0.21959 0.04700
v -0.63315 0.32261 0.04700
v -0.57489 0.41768 0.04700
v -0.50247 0.50247 0.04700
v -0.41768 0.57489 0.04700
v -0.32261 0.63315 0.04700
v -0.21959 0.67582 0.04700
v -0.11116 0.70185 0.04700
v -0.00000 0.71060 0.04700
v 0.11116 0.70185 0.04700
v 0.21959 0.67582 0.04700
v 0.32261 0.63315 0.04700
v 0.41768 0.57489 0.04700
v 0.50247 0.50247 0.04700
v 0.57489 0.41768 0.04700
v 0.63315 0.32261 0.04700
v 0.67582 0.21959 0.04700
v 0.70185 0.11116 0.04700
v 0.71060 0.00000 0.04700
v 0.70185 -0.11116 0.04700
v 0.67582 -0.21959 0.04700
v 0.63315 -0.32261 0.04700
v 0.57489 -0.41768 0.04700
v 0.50247 -0.50247 0.04700
v 0.41768 -0.57489 0.04700
v 0.32261 -0.63315 0.04700
v 0.21959 -0.67582 0.04700
v 0.11116 -0.70185 0.04700
v 0.00000 -0.71060 0.04700
v -0.11116 -0.70185 0.04700
v -0.21959 -0.67582 0.04700
v -0.32261 -0.63315 0.04700
v -0.41768 -0.57489 0.04700
v -0.50247 -0.50247 0.04700
v -0.57489 -0.41768 0.04700
v -0.63315 -0.32261 0.04700
v -0.67582 -0.21959 0.04700
v -0.70185 -0.11116 0.04700
f 79 118 78
f 60 99 59
f 4 5 3
f 80 119 79
f 59 98 58
f 6 7 5
f 77 116 76
f 58 97 57
f 8 9 7
f 75 116 115
f 56 97 96
f 10 11 9
f 75 114 74
f 56 95 55
f 11 14 13
f 74 113 73
f 54 95 94
f 14 15 13
f 72 113 112
f 54 93 53
f 16 17 15
f 71 112 111
f 53 92 52
f 18 19 17
f 71 110 70
f 51 92 91
f 20 21 19
f 70 109 69
f 51 90 50
f 22 23 21
f 69 108 68
f 49 90 89
f 24 25 23
f 68 107 67
f 48 89 88
f 26 27 25
f 67 106 66
f 48 87 47
f 28 29 27
f 65 106 105
f 46 87 86
f 30 31 29
f 65 104 64
f 46 85 45
f 32 33 31
f 64 103 63
f 44 85 84
f 34 35 33
f 62 103 102
f 44 83 43
f 36 37 35
f 61 102 101
f 1 83 82
f 38 39 37
f 32 16 8
f 2 82 81
f 40 41 39
f 77 118 117
f 61 100 60
f 42 3 41
f 41 9 17
f 2 120 80
f 162 121 161
f 163 122 162
f 163 124 123
f 165 124 164
f 165 126 125
f 167 126 166
f 167 128 127
f 169 128 168
f 170 129 169
f 170 131 130
f 172 131 171
f 172 133 132
f 173 134 133
f 175 134 174
f 175 136 135
f 177 136 176
f 177 138 137
f 179 138 178
f 179 140 139
f 180 141 140
f 182 141 181
f 183 142 182
f 183 144 143
f 184 145 144
f 186 145 185
f 187 146 186
f 187 148 147
f 189 148 188
f 189 150 149
f 190 151 150
f 192 151 191
f 193 152 192
f 193 154 153
f 195 154 194
f 196 155 195
f 197 156 196
f 198 157 197
f 199 158 198
f 199 160 159
f 200 121 160
f 79 119 118
f 60 100 99
f 4 6 5
f 80 120 119
f 59 99 98
f 6 8 7
f 77 117 116
f 58 98 97
f 8 10 9
f 75 76 116
f 56 57 97
f 10 12 11
f 75 115 114
f 56 96 95
f 11 12 14
f 74 114 113
f 54 55 95
f 14 16 15
f 72 73 113
f 54 94 93
f 16 18 17
f 71 72 112
f 53 93 92
f 18 20 19
f 71 111 110
f 51 52 92
f 20 22 21
f 70 110 109
f 51 91 90
f 22 24 23
f 69 109 108
f 49 50 90
f 24 26 25
f 68 108 107
f 48 49 89
f 26 28 27
f 67 107 106
f 48 88 87
f 28 30 29
f 65 66 106
f 46 47 87
f 30 32 31
f 65 105 104
f 46 86 85
f 32 34 33
f 64 104 103
f 44 45 85
f 34 36 35
f 62 63 103
f 44 84 83
f 36 38 37
f 61 62 102
f 1 43 83
f 38 40 39
f 8 6 4
f 4 42 40
f 40 38 32
f 38 36 32
f 36 34 32
f 32 30 24
f 30 28 24
f 28 26 24
f 24 22 20
f 20 18 24
f 18 16 24
f 16 14 12
f 12 10 16
f 10 8 16
f 8 4 32
f 4 40 32
f 32 24 16
f 2 1 82
f 40 42 41
f 77 78 118
f 61 101 100
f 42 4 3
f 41 3 9
f 3 5 9
f 5 7 9
f 9 11 17
f 11 13 17
f 13 15 17
f 17 19 21
f 21 23 17
f 23 25 17
f 25 27 29
f 29 31 33
f 33 35 37
f 37 39 41
f 25 29 17
f 29 33 17
f 33 37 17
f 37 41 17
f 2 81 120
f 162 122 121
f 163 123 122
f 163 164 124
f 165 125 124
f 165 166 126
f 167 127 126
f 167 168 128
f 169 129 128
f 170 130 129
f 170 171 131
f 172 132 131
f 172 173 133
f 173 174 134
f 175 135 134
f 175 176 136
f 177 137 136
f 177 178 138
f 179 139 138
f 179 180 140
f 180 181 141
f 182 142 141
f 183 143 142
f 183 184 144
f 184 185 145
f 186 146 145
f 187 147 146
f 187 188 148
f 189 149 148
f 189 190 150
f 190 191 151
f 192 152 151
f 193 153 152
f 193 194 154
f 195 155 154
f 196 156 155
f 197 157 156
f 198 158 157
f 199 159 158
f 199 200 160
f 200 161 121
