# clockwork_pocket Small_Brass.obj: Roblox cue frame, recentred on its bounding box
v -0.32327 -0.00000 -0.04500
v -0.33600 -0.00000 -0.03300
v -0.33203 0.04581 -0.03300
v -0.34075 0.06475 -0.03300
v -0.31843 0.05558 -0.04500
v -0.39536 0.10384 -0.03300
v -0.40070 0.12198 -0.03300
v -0.39011 0.10672 -0.04500
v -0.37560 0.18537 -0.03300
v -0.35929 0.19494 -0.03300
v -0.35743 0.18925 -0.04500
v -0.29273 0.18606 -0.03300
v -0.27326 0.19378 -0.03300
v -0.27017 0.17747 -0.04500
v -0.23759 0.23759 -0.03300
v -0.22859 0.22859 -0.04500
v -0.20239 0.26718 -0.03300
v -0.19516 0.28674 -0.03300
v -0.18587 0.26446 -0.04500
v -0.20613 0.35299 -0.03300
v -0.19708 0.36959 -0.03300
v -0.20038 0.35131 -0.04500
v -0.13451 0.39667 -0.03300
v -0.11621 0.39190 -0.03300
v -0.11892 0.38656 -0.04500
v -0.07542 0.33855 -0.03300
v -0.05620 0.33024 -0.03300
v -0.06555 0.31653 -0.04500
v 0.00000 0.33600 -0.03300
v 0.00000 0.32327 -0.04500
v 0.04581 0.33203 -0.03300
v 0.06475 0.34075 -0.03300
v 0.05558 0.31843 -0.04500
v 0.10384 0.39536 -0.03300
v 0.12198 0.40070 -0.03300
v 0.10672 0.39011 -0.04500
v 0.18537 0.37560 -0.03300
v 0.19494 0.35929 -0.03300
v 0.18925 0.35743 -0.04500
v 0.18606 0.29273 -0.03300
v 0.19378 0.27326 -0.03300
v 0.17747 0.27017 -0.04500
v 0.23759 0.23759 -0.03300
v 0.22859 0.22859 -0.04500
v 0.26718 0.20239 -0.03300
v 0.28674 0.19516 -0.03300
v 0.26446 0.18587 -0.04500
v 0.35299 0.20613 -0.03300
v 0.36959 0.19708 -0.03300
v 0.35131 0.20038 -0.04500
v 0.39667 0.13451 -0.03300
v 0.39190 0.11621 -0.03300
v 0.38656 0.11892 -0.04500
v 0.33855 0.07542 -0.03300
v 0.33024 0.05620 -0.03300
v 0.31653 0.06555 -0.04500
v 0.33600 -0.00000 -0.03300
v 0.32327 -0.00000 -0.04500
v 0.33203 -0.04581 -0.03300
v 0.34075 -0.06475 -0.03300
v 0.31843 -0.05558 -0.04500
v 0.39536 -0.10384 -0.03300
v 0.40070 -0.12198 -0.03300
v 0.39011 -0.10672 -0.04500
v 0.37560 -0.18537 -0.03300
v 0.35929 -0.19494 -0.03300
v 0.35743 -0.18925 -0.04500
v 0.29273 -0.18606 -0.03300
v 0.27326 -0.19378 -0.03300
v 0.27017 -0.17747 -0.04500
v 0.23759 -0.23759 -0.03300
v 0.22859 -0.22859 -0.04500
v 0.20239 -0.26718 -0.03300
v 0.19516 -0.28674 -0.03300
v 0.18587 -0.26446 -0.04500
v 0.20613 -0.35299 -0.03300
v 0.19708 -0.36959 -0.03300
v 0.20038 -0.35131 -0.04500
v 0.13451 -0.39667 -0.03300
v 0.11621 -0.39190 -0.03300
v 0.11892 -0.38656 -0.04500
v 0.07542 -0.33855 -0.03300
v 0.05620 -0.33024 -0.03300
v 0.06555 -0.31653 -0.04500
v 0.00000 -0.33600 -0.03300
v 0.00000 -0.32327 -0.04500
v -0.04581 -0.33203 -0.03300
v -0.06475 -0.34075 -0.03300
v -0.05558 -0.31843 -0.04500
v -0.10384 -0.39536 -0.03300
v -0.12198 -0.40070 -0.03300
v -0.10672 -0.39011 -0.04500
v -0.18537 -0.37560 -0.03300
v -0.19494 -0.35929 -0.03300
v -0.18925 -0.35743 -0.04500
v -0.18606 -0.29273 -0.03300
v -0.19378 -0.27326 -0.03300
v -0.17747 -0.27017 -0.04500
v -0.23759 -0.23759 -0.03300
v -0.22859 -0.22859 -0.04500
v -0.26718 -0.20239 -0.03300
v -0.28674 -0.19516 -0.03300
v -0.26446 -0.18587 -0.04500
v -0.35299 -0.20613 -0.03300
v -0.36959 -0.19708 -0.03300
v -0.35131 -0.20038 -0.04500
v -0.39667 -0.13451 -0.03300
v -0.39190 -0.11621 -0.03300
v -0.38656 -0.11892 -0.04500
v -0.33855 -0.07542 -0.03300
v -0.33024 -0.05620 -0.03300
v -0.31653 -0.06555 -0.04500
v -0.33600 -0.00000 0.03300
v -0.32327 -0.00000 0.04500
v -0.33203 0.04581 0.03300
v -0.31843 0.05558 0.04500
v -0.34075 0.06475 0.03300
v -0.39536 0.10384 0.03300
v -0.39011 0.10672 0.04500
v -0.40070 0.12198 0.03300
v -0.37560 0.18537 0.03300
v -0.35743 0.18925 0.04500
v -0.35929 0.19494 0.03300
v -0.29273 0.18606 0.03300
v -0.27017 0.17747 0.04500
v -0.27326 0.19378 0.03300
v -0.22859 0.22859 0.04500
v -0.23759 0.23759 0.03300
v -0.20239 0.26718 0.03300
v -0.18587 0.26446 0.04500
v -0.19516 0.28674 0.03300
v -0.20613 0.35299 0.03300
v -0.20038 0.35131 0.04500
v -0.19708 0.36959 0.03300
v -0.13451 0.39667 0.03300
v -0.11892 0.38656 0.04500
v -0.11621 0.39190 0.03300
v -0.07542 0.33855 0.03300
v -0.06555 0.31653 0.04500
v -0.05620 0.33024 0.03300
v 0.00000 0.32327 0.04500
v 0.00000 0.33600 0.03300
v 0.04581 0.33203 0.03300
v 0.05558 0.31843 0.04500
v 0.06475 0.34075 0.03300
v 0.10384 0.39536 0.03300
v 0.10672 0.39011 0.04500
v 0.12198 0.40070 0.03300
v 0.18537 0.37560 0.03300
v 0.18925 0.35743 0.04500
v 0.19494 0.35929 0.03300
v 0.18606 0.29273 0.03300
v 0.17747 0.27017 0.04500
v 0.19378 0.27326 0.03300
v 0.22859 0.22859 0.04500
v 0.23759 0.23759 0.03300
v 0.26718 0.20239 0.03300
v 0.26446 0.18587 0.04500
v 0.28674 0.19516 0.03300
v 0.35299 0.20613 0.03300
v 0.35131 0.20038 0.04500
v 0.36959 0.19708 0.03300
v 0.39667 0.13451 0.03300
v 0.38656 0.11892 0.04500
v 0.39190 0.11621 0.03300
v 0.33855 0.07542 0.03300
v 0.31653 0.06555 0.04500
v 0.33024 0.05620 0.03300
v 0.32327 -0.00000 0.04500
v 0.33600 -0.00000 0.03300
v 0.33203 -0.04581 0.03300
v 0.31843 -0.05558 0.04500
v 0.34075 -0.06475 0.03300
v 0.39536 -0.10384 0.03300
v 0.39011 -0.10672 0.04500
v 0.40070 -0.12198 0.03300
v 0.37560 -0.18537 0.03300
v 0.35743 -0.18925 0.04500
v 0.35929 -0.19494 0.03300
v 0.29273 -0.18606 0.03300
v 0.27017 -0.17747 0.04500
v 0.27326 -0.19378 0.03300
v 0.22859 -0.22859 0.04500
v 0.23759 -0.23759 0.03300
v 0.20239 -0.26718 0.03300
v 0.18587 -0.26446 0.04500
v 0.19516 -0.28674 0.03300
v 0.20613 -0.35299 0.03300
v 0.20038 -0.35131 0.04500
v 0.19708 -0.36959 0.03300
v 0.13451 -0.39667 0.03300
v 0.11892 -0.38656 0.04500
v 0.11621 -0.39190 0.03300
v 0.07542 -0.33855 0.03300
v 0.06555 -0.31653 0.04500
v 0.05620 -0.33024 0.03300
v 0.00000 -0.32327 0.04500
v 0.00000 -0.33600 0.03300
v -0.04581 -0.33203 0.03300
v -0.05558 -0.31843 0.04500
v -0.06475 -0.34075 0.03300
v -0.10384 -0.39536 0.03300
v -0.10672 -0.39011 0.04500
v -0.12198 -0.40070 0.03300
v -0.18537 -0.37560 0.03300
v -0.18925 -0.35743 0.04500
v -0.19494 -0.35929 0.03300
v -0.18606 -0.29273 0.03300
v -0.17747 -0.27017 0.04500
v -0.19378 -0.27326 0.03300
v -0.22859 -0.22859 0.04500
v -0.23759 -0.23759 0.03300
v -0.26718 -0.20239 0.03300
v -0.26446 -0.18587 0.04500
v -0.28674 -0.19516 0.03300
v -0.35299 -0.20613 0.03300
v -0.35131 -0.20038 0.04500
v -0.36959 -0.19708 0.03300
v -0.39667 -0.13451 0.03300
v -0.38656 -0.11892 0.04500
v -0.39190 -0.11621 0.03300
v -0.33855 -0.07542 0.03300
v -0.31653 -0.06555 0.04500
v -0.33024 -0.05620 0.03300
v -0.24864 -0.00000 -0.03300
v -0.26068 -0.00000 -0.04500
v -0.25680 0.04482 -0.04500
v -0.24494 0.04275 -0.03300
v -0.25144 0.06879 -0.04500
v -0.23983 0.06561 -0.03300
v -0.23038 0.12198 -0.04500
v -0.21974 0.11635 -0.03300
v -0.21788 0.14312 -0.04500
v -0.20782 0.13651 -0.03300
v -0.18433 0.18433 -0.04500
v -0.17581 0.17581 -0.03300
v -0.14989 0.21328 -0.04500
v -0.14297 0.20342 -0.03300
v -0.12916 0.22644 -0.04500
v -0.12319 0.21598 -0.03300
v -0.07665 0.24916 -0.04500
v -0.07311 0.23765 -0.03300
v -0.05286 0.25527 -0.04500
v -0.05042 0.24347 -0.03300
v 0.00000 0.26068 -0.04500
v 0.00000 0.24864 -0.03300
v 0.04482 0.25680 -0.04500
v 0.04275 0.24494 -0.03300
v 0.06879 0.25144 -0.04500
v 0.06561 0.23983 -0.03300
v 0.12198 0.23038 -0.04500
v 0.11635 0.21974 -0.03300
v 0.14312 0.21788 -0.04500
v 0.13651 0.20782 -0.03300
v 0.18433 0.18433 -0.04500
v 0.17581 0.17581 -0.03300
v 0.21328 0.14989 -0.04500
v 0.20342 0.14297 -0.03300
v 0.22644 0.12916 -0.04500
v 0.21598 0.12319 -0.03300
v 0.24916 0.07665 -0.04500
v 0.23765 0.07311 -0.03300
v 0.25527 0.05286 -0.04500
v 0.24347 0.05042 -0.03300
v 0.26068 -0.00000 -0.04500
v 0.24864 -0.00000 -0.03300
v 0.25680 -0.04482 -0.04500
v 0.24494 -0.04275 -0.03300
v 0.25144 -0.06879 -0.04500
v 0.23983 -0.06561 -0.03300
v 0.23038 -0.12198 -0.04500
v 0.21974 -0.11635 -0.03300
v 0.21788 -0.14312 -0.04500
v 0.20782 -0.13651 -0.03300
v 0.18433 -0.18433 -0.04500
v 0.17581 -0.17582 -0.03300
v 0.14989 -0.21328 -0.04500
v 0.14297 -0.20342 -0.03300
v 0.12916 -0.22644 -0.04500
v 0.12319 -0.21598 -0.03300
v 0.07665 -0.24916 -0.04500
v 0.07311 -0.23765 -0.03300
v 0.05286 -0.25527 -0.04500
v 0.05042 -0.24347 -0.03300
v 0.00000 -0.26068 -0.04500
v 0.00000 -0.24864 -0.03300
v -0.04482 -0.25680 -0.04500
v -0.04275 -0.24494 -0.03300
v -0.06879 -0.25144 -0.04500
v -0.06561 -0.23983 -0.03300
v -0.12198 -0.23038 -0.04500
v -0.11635 -0.21974 -0.03300
v -0.14312 -0.21788 -0.04500
v -0.13651 -0.20782 -0.03300
v -0.18433 -0.18433 -0.04500
v -0.17581 -0.17582 -0.03300
v -0.21328 -0.14989 -0.04500
v -0.20342 -0.14297 -0.03300
v -0.22644 -0.12916 -0.04500
v -0.21598 -0.12319 -0.03300
v -0.24916 -0.07665 -0.04500
v -0.23765 -0.07311 -0.03300
v -0.25527 -0.05286 -0.04500
v -0.24347 -0.05042 -0.03300
v -0.26068 -0.00000 0.04500
v -0.24864 -0.00000 0.03300
v -0.24494 0.04275 0.03300
v -0.25680 0.04482 0.04500
v -0.23983 0.06561 0.03300
v -0.25144 0.06879 0.04500
v -0.21974 0.11635 0.03300
v -0.23038 0.12198 0.04500
v -0.20782 0.13651 0.03300
v -0.21788 0.14312 0.04500
v -0.17581 0.17581 0.03300
v -0.18433 0.18433 0.04500
v -0.14297 0.20342 0.03300
v -0.14989 0.21328 0.04500
v -0.12319 0.21598 0.03300
v -0.12916 0.22644 0.04500
v -0.07311 0.23765 0.03300
v -0.07665 0.24916 0.04500
v -0.05042 0.24347 0.03300
v -0.05286 0.25527 0.04500
v 0.00000 0.24864 0.03300
v 0.00000 0.26068 0.04500
v 0.04275 0.24494 0.03300
v 0.04482 0.25680 0.04500
v 0.06561 0.23983 0.03300
v 0.06879 0.25144 0.04500
v 0.11635 0.21974 0.03300
v 0.12198 0.23038 0.04500
v 0.13651 0.20782 0.03300
v 0.14312 0.21788 0.04500
v 0.17581 0.17581 0.03300
v 0.18433 0.18433 0.04500
v 0.20342 0.14297 0.03300
v 0.21328 0.14989 0.04500
v 0.21598 0.12319 0.03300
v 0.22644 0.12916 0.04500
v 0.23765 0.07311 0.03300
v 0.24916 0.07665 0.04500
v 0.24347 0.05042 0.03300
v 0.25527 0.05286 0.04500
v 0.24864 -0.00000 0.03300
v 0.26068 -0.00000 0.04500
v 0.24494 -0.04275 0.03300
v 0.25680 -0.04482 0.04500
v 0.23983 -0.06561 0.03300
v 0.25144 -0.06879 0.04500
v 0.21974 -0.11635 0.03300
v 0.23038 -0.12198 0.04500
v 0.20782 -0.13651 0.03300
v 0.21788 -0.14312 0.04500
v 0.17581 -0.17582 0.03300
v 0.18433 -0.18433 0.04500
v 0.14297 -0.20342 0.03300
v 0.14989 -0.21328 0.04500
v 0.12319 -0.21598 0.03300
v 0.12916 -0.22644 0.04500
v 0.07311 -0.23765 0.03300
v 0.07665 -0.24916 0.04500
v 0.05042 -0.24347 0.03300
v 0.05286 -0.25527 0.04500
v 0.00000 -0.24864 0.03300
v 0.00000 -0.26068 0.04500
v -0.04275 -0.24494 0.03300
v -0.04482 -0.25680 0.04500
v -0.06561 -0.23983 0.03300
v -0.06879 -0.25144 0.04500
v -0.11635 -0.21974 0.03300
v -0.12198 -0.23038 0.04500
v -0.13651 -0.20782 0.03300
v -0.14312 -0.21788 0.04500
v -0.17581 -0.17582 0.03300
v -0.18433 -0.18433 0.04500
v -0.20342 -0.14297 0.03300
v -0.21328 -0.14989 0.04500
v -0.21598 -0.12319 0.03300
v -0.22644 -0.12916 0.04500
v -0.23765 -0.07311 0.03300
v -0.24916 -0.07665 0.04500
v -0.24347 -0.05042 0.03300
v -0.25527 -0.05286 0.04500
v -0.08138 0.04281 0.03150
v -0.08843 0.03310 0.01950
v -0.07167 0.03576 0.01950
v -0.08843 0.03310 -0.01950
v -0.08138 0.04281 -0.03150
v -0.07167 0.03576 -0.01950
v -0.06586 0.06417 0.03150
v -0.05615 0.05711 0.01950
v -0.05881 0.07388 0.01950
v -0.06586 0.06417 -0.03150
v -0.05881 0.07388 -0.01950
v -0.05615 0.05711 -0.01950
v -0.20325 0.13135 0.03150
v -0.21296 0.13841 0.01950
v -0.21030 0.12165 0.01950
v -0.20325 0.13135 -0.03150
v -0.21030 0.12165 -0.01950
v -0.21296 0.13841 -0.01950
v -0.18773 0.15271 0.03150
v -0.18068 0.16242 0.01950
v -0.19744 0.15976 0.01950
v -0.18773 0.15271 -0.03150
v -0.19744 0.15976 -0.01950
v -0.18068 0.16242 -0.01950
v 0.01557 0.09063 0.03150
v 0.00415 0.09433 0.01950
v 0.01186 0.07921 0.01950
v 0.00415 0.09433 -0.01950
v 0.01557 0.09063 -0.03150
v 0.01186 0.07921 -0.01950
v 0.04067 0.08247 0.03150
v 0.03697 0.07105 0.01950
v 0.05209 0.07876 0.01950
v 0.04067 0.08247 -0.03150
v 0.05209 0.07876 -0.01950
v 0.03697 0.07105 -0.01950
v 0.06212 0.23389 0.03150
v 0.06583 0.24531 0.01950
v 0.05070 0.23760 0.01950
v 0.06212 0.23389 -0.03150
v 0.05070 0.23760 -0.01950
v 0.06583 0.24531 -0.01950
v 0.08722 0.22573 0.03150
v 0.09864 0.22203 0.01950
v 0.09093 0.23715 0.01950
v 0.08722 0.22573 -0.03150
v 0.09093 0.23715 -0.01950
v 0.09864 0.22203 -0.01950
v 0.09100 0.01320 0.03150
v 0.09100 0.02520 0.01950
v 0.07900 0.01320 0.01950
v 0.09100 0.02520 -0.01950
v 0.09100 0.01320 -0.03150
v 0.07900 0.01320 -0.01950
v 0.09100 -0.01320 0.03150
v 0.07900 -0.01320 0.01950
v 0.09100 -0.02520 0.01950
v 0.09100 -0.01320 -0.03150
v 0.09100 -0.02520 -0.01950
v 0.07900 -0.01320 -0.01950
v 0.24164 0.01320 0.03150
v 0.25364 0.01320 0.01950
v 0.24164 0.02520 0.01950
v 0.24164 0.01320 -0.03150
v 0.24164 0.02520 -0.01950
v 0.25364 0.01320 -0.01950
v 0.24164 -0.01320 0.03150
v 0.24164 -0.02520 0.01950
v 0.25364 -0.01320 0.01950
v 0.24164 -0.01320 -0.03150
v 0.25364 -0.01320 -0.01950
v 0.24164 -0.02520 -0.01950
v 0.04067 -0.08247 0.03150
v 0.05209 -0.07876 0.01950
v 0.03697 -0.07105 0.01950
v 0.05209 -0.07876 -0.01950
v 0.04067 -0.08247 -0.03150
v 0.03697 -0.07105 -0.01950
v 0.01557 -0.09063 0.03150
v 0.01186 -0.07921 0.01950
v 0.00415 -0.09433 0.01950
v 0.01557 -0.09063 -0.03150
v 0.00415 -0.09433 -0.01950
v 0.01186 -0.07921 -0.01950
v 0.08722 -0.22573 0.03150
v 0.09093 -0.23715 0.01950
v 0.09864 -0.22203 0.01950
v 0.08722 -0.22573 -0.03150
v 0.09864 -0.22203 -0.01950
v 0.09093 -0.23715 -0.01950
v 0.06212 -0.23389 0.03150
v 0.05070 -0.23760 0.01950
v 0.06583 -0.24531 0.01950
v 0.06212 -0.23389 -0.03150
v 0.06583 -0.24531 -0.01950
v 0.05070 -0.23760 -0.01950
v -0.06586 -0.06417 0.03150
v -0.05881 -0.07388 0.01950
v -0.05615 -0.05711 0.01950
v -0.05881 -0.07388 -0.01950
v -0.06586 -0.06417 -0.03150
v -0.05615 -0.05711 -0.01950
v -0.08138 -0.04281 0.03150
v -0.07167 -0.03576 0.01950
v -0.08843 -0.03310 0.01950
v -0.08138 -0.04281 -0.03150
v -0.08843 -0.03310 -0.01950
v -0.07167 -0.03576 -0.01950
v -0.18773 -0.15271 0.03150
v -0.19744 -0.15977 0.01950
v -0.18068 -0.16242 0.01950
v -0.18773 -0.15271 -0.03150
v -0.18068 -0.16242 -0.01950
v -0.19744 -0.15977 -0.01950
v -0.20325 -0.13135 0.03150
v -0.21030 -0.12165 0.01950
v -0.21296 -0.13841 0.01950
v -0.20325 -0.13135 -0.03150
v -0.21296 -0.13841 -0.01950
v -0.21030 -0.12165 -0.01950
v 0.00000 0.08016 0.06750
v 0.00000 0.09240 0.05550
v 0.00000 0.08016 -0.06750
v 0.00000 0.09240 -0.05550
v -0.03068 0.07406 0.06750
v -0.03536 0.08537 0.05550
v -0.03068 0.07406 -0.06750
v -0.03536 0.08537 -0.05550
v -0.05669 0.05669 0.06750
v -0.06534 0.06534 0.05550
v -0.05669 0.05669 -0.06750
v -0.06534 0.06534 -0.05550
v -0.07406 0.03068 0.06750
v -0.08537 0.03536 0.05550
v -0.07406 0.03068 -0.06750
v -0.08537 0.03536 -0.05550
v -0.08016 -0.00000 0.06750
v -0.09240 -0.00000 0.05550
v -0.08016 -0.00000 -0.06750
v -0.09240 -0.00000 -0.05550
v -0.07406 -0.03068 0.06750
v -0.08537 -0.03536 0.05550
v -0.07406 -0.03068 -0.06750
v -0.08537 -0.03536 -0.05550
v -0.05669 -0.05669 0.06750
v -0.06534 -0.06534 0.05550
v -0.05669 -0.05669 -0.06750
v -0.06534 -0.06534 -0.05550
v -0.03068 -0.07406 0.06750
v -0.03536 -0.08537 0.05550
v -0.03068 -0.07406 -0.06750
v -0.03536 -0.08537 -0.05550
v 0.00000 -0.08016 0.06750
v 0.00000 -0.09240 0.05550
v 0.00000 -0.08016 -0.06750
v 0.00000 -0.09240 -0.05550
v 0.03068 -0.07406 0.06750
v 0.03536 -0.08537 0.05550
v 0.03068 -0.07406 -0.06750
v 0.03536 -0.08537 -0.05550
v 0.05669 -0.05669 0.06750
v 0.06534 -0.06534 0.05550
v 0.05669 -0.05669 -0.06750
v 0.06534 -0.06534 -0.05550
v 0.07406 -0.03068 0.06750
v 0.08537 -0.03536 0.05550
v 0.07406 -0.03068 -0.06750
v 0.08537 -0.03536 -0.05550
v 0.08016 -0.00000 0.06750
v 0.09240 -0.00000 0.05550
v 0.08016 -0.00000 -0.06750
v 0.09240 -0.00000 -0.05550
v 0.07406 0.03068 0.06750
v 0.08537 0.03536 0.05550
v 0.07406 0.03068 -0.06750
v 0.08537 0.03536 -0.05550
v 0.05669 0.05669 0.06750
v 0.06534 0.06534 0.05550
v 0.05669 0.05669 -0.06750
v 0.06534 0.06534 -0.05550
v 0.03068 0.07406 0.06750
v 0.03536 0.08537 0.05550
v 0.03068 0.07406 -0.06750
v 0.03536 0.08537 -0.05550
f 3 4 5
f 6 7 8
f 9 10 11
f 12 13 14
f 17 18 19
f 20 21 22
f 23 24 25
f 26 27 28
f 31 32 33
f 34 35 36
f 37 38 39
f 40 41 42
f 45 46 47
f 48 49 50
f 51 52 53
f 54 55 56
f 59 60 61
f 62 63 64
f 65 66 67
f 68 69 70
f 73 74 75
f 76 77 78
f 79 80 81
f 82 83 84
f 87 88 89
f 90 91 92
f 93 94 95
f 96 97 98
f 101 102 103
f 104 105 106
f 107 108 109
f 110 111 112
f 115 116 117
f 118 119 120
f 121 122 123
f 124 125 126
f 129 130 131
f 132 133 134
f 135 136 137
f 138 139 140
f 143 144 145
f 146 147 148
f 149 150 151
f 152 153 154
f 157 158 159
f 160 161 162
f 163 164 165
f 166 167 168
f 171 172 173
f 174 175 176
f 177 178 179
f 180 181 182
f 185 186 187
f 188 189 190
f 191 192 193
f 194 195 196
f 199 200 201
f 202 203 204
f 205 206 207
f 208 209 210
f 213 214 215
f 216 217 218
f 219 220 221
f 222 223 224
f 385 386 387
f 388 389 390
f 391 392 393
f 394 395 396
f 397 398 399
f 400 401 402
f 403 404 405
f 406 407 408
f 409 410 411
f 412 413 414
f 415 416 417
f 418 419 420
f 421 422 423
f 424 425 426
f 427 428 429
f 430 431 432
f 433 434 435
f 436 437 438
f 439 440 441
f 442 443 444
f 445 446 447
f 448 449 450
f 451 452 453
f 454 455 456
f 457 458 459
f 460 461 462
f 463 464 465
f 466 467 468
f 469 470 471
f 472 473 474
f 475 476 477
f 478 479 480
f 481 482 483
f 484 485 486
f 487 488 489
f 490 491 492
f 493 494 495
f 496 497 498
f 499 500 501
f 502 503 504
f 3 1 2
f 225 227 228
f 115 114 116
f 306 308 305
f 4 115 117
f 4 8 5
f 230 227 229
f 117 119 118
f 309 308 307
f 7 118 120
f 9 8 7
f 230 231 232
f 121 119 122
f 309 312 310
f 10 121 123
f 12 11 10
f 234 231 233
f 124 122 125
f 313 312 311
f 13 124 126
f 13 16 14
f 236 233 235
f 126 127 128
f 313 316 314
f 17 16 15
f 236 237 238
f 129 127 130
f 315 318 316
f 18 129 131
f 18 22 19
f 240 237 239
f 131 133 132
f 319 318 317
f 21 132 134
f 23 22 21
f 242 239 241
f 134 136 135
f 321 320 319
f 24 135 137
f 26 25 24
f 242 243 244
f 138 136 139
f 321 324 322
f 27 138 140
f 27 30 28
f 246 243 245
f 140 141 142
f 325 324 323
f 31 30 29
f 246 247 248
f 143 141 144
f 325 328 326
f 32 143 145
f 32 36 33
f 250 247 249
f 145 147 146
f 329 328 327
f 35 146 148
f 37 36 35
f 252 249 251
f 149 147 150
f 331 330 329
f 38 149 151
f 40 39 38
f 252 253 254
f 152 150 153
f 331 334 332
f 41 152 154
f 41 44 42
f 254 255 256
f 154 155 156
f 333 336 334
f 45 44 43
f 256 257 258
f 157 155 158
f 335 338 336
f 46 157 159
f 46 50 47
f 258 259 260
f 159 161 160
f 337 340 338
f 49 160 162
f 51 50 49
f 260 261 262
f 162 164 163
f 339 342 340
f 52 163 165
f 54 53 52
f 264 261 263
f 166 164 167
f 343 342 341
f 55 166 168
f 55 58 56
f 264 265 266
f 168 169 170
f 343 346 344
f 59 58 57
f 266 267 268
f 171 169 172
f 345 348 346
f 60 171 173
f 60 64 61
f 270 267 269
f 173 175 174
f 349 348 347
f 63 174 176
f 63 67 64
f 272 269 271
f 176 178 177
f 349 352 350
f 66 177 179
f 68 67 66
f 274 271 273
f 180 178 181
f 353 352 351
f 69 180 182
f 69 72 70
f 276 273 275
f 182 183 184
f 355 354 353
f 73 72 71
f 276 277 278
f 185 183 186
f 355 358 356
f 74 185 187
f 74 78 75
f 280 277 279
f 187 189 188
f 359 358 357
f 77 188 190
f 77 81 78
f 282 279 281
f 190 192 191
f 361 360 359
f 80 191 193
f 82 81 80
f 284 281 283
f 194 192 195
f 363 362 361
f 83 194 196
f 83 86 84
f 286 283 285
f 196 197 198
f 365 364 363
f 87 86 85
f 286 287 288
f 199 197 200
f 365 368 366
f 88 199 201
f 88 92 89
f 290 287 289
f 201 203 202
f 369 368 367
f 91 202 204
f 91 95 92
f 290 291 292
f 204 206 205
f 369 372 370
f 94 205 207
f 96 95 94
f 294 291 293
f 208 206 209
f 373 372 371
f 97 208 210
f 97 100 98
f 294 295 296
f 210 211 212
f 373 376 374
f 101 100 99
f 296 297 298
f 213 211 214
f 375 378 376
f 102 213 215
f 102 106 103
f 300 297 299
f 215 217 216
f 377 380 378
f 105 216 218
f 105 109 106
f 302 299 301
f 219 217 220
f 381 380 379
f 108 219 221
f 110 109 108
f 304 301 303
f 222 220 223
f 383 382 381
f 111 222 224
f 111 1 112
f 225 303 226
f 224 114 113
f 306 384 383
f 385 392 391
f 388 387 386
f 389 396 390
f 393 396 395
f 403 393 404
f 406 395 394
f 405 408 407
f 397 405 398
f 400 407 406
f 399 402 401
f 385 399 386
f 389 401 400
f 415 411 416
f 412 411 410
f 413 420 414
f 419 416 420
f 415 428 427
f 430 419 418
f 431 428 432
f 421 429 422
f 424 431 430
f 423 426 425
f 421 410 409
f 413 425 424
f 433 440 439
f 436 435 434
f 442 438 437
f 441 444 443
f 439 452 451
f 454 443 442
f 453 456 455
f 451 446 445
f 448 455 454
f 449 446 450
f 445 434 433
f 437 449 448
f 463 459 464
f 458 462 459
f 461 468 462
f 465 468 467
f 463 476 475
f 478 467 466
f 477 480 479
f 469 477 470
f 472 479 478
f 473 470 474
f 457 471 458
f 461 473 472
f 481 488 487
f 484 483 482
f 490 486 485
f 489 492 491
f 499 489 500
f 490 504 491
f 501 504 503
f 493 501 494
f 496 503 502
f 495 498 497
f 481 495 482
f 496 484 497
f 510 505 506
f 512 507 511
f 514 509 510
f 516 511 515
f 514 517 513
f 516 519 520
f 518 521 517
f 520 523 524
f 526 521 522
f 528 523 527
f 530 525 526
f 532 527 531
f 530 533 529
f 532 535 536
f 534 537 533
f 536 539 540
f 542 537 538
f 544 539 543
f 546 541 542
f 548 543 547
f 546 549 545
f 548 551 552
f 550 553 549
f 552 555 556
f 558 553 554
f 560 555 559
f 562 557 558
f 564 559 563
f 562 565 561
f 564 567 568
f 566 505 565
f 568 507 508
f 112 226 303
f 5 226 1
f 115 2 113
f 113 111 224
f 118 4 117
f 5 229 227
f 121 7 120
f 8 231 229
f 124 10 123
f 14 231 11
f 128 13 126
f 14 235 233
f 129 15 128
f 19 235 16
f 132 18 131
f 19 239 237
f 134 23 21
f 22 241 239
f 138 24 137
f 28 241 25
f 142 27 140
f 28 245 243
f 143 29 142
f 33 245 30
f 146 32 145
f 33 249 247
f 149 35 148
f 39 249 36
f 152 38 151
f 42 251 39
f 156 41 154
f 42 255 253
f 157 43 156
f 47 255 44
f 160 46 159
f 47 259 257
f 163 49 162
f 50 261 259
f 166 52 165
f 56 261 53
f 170 55 168
f 56 265 263
f 171 57 170
f 61 265 58
f 174 60 173
f 61 269 267
f 177 63 176
f 64 271 269
f 180 66 179
f 70 271 67
f 184 69 182
f 70 275 273
f 185 71 184
f 75 275 72
f 188 74 187
f 75 279 277
f 191 77 190
f 78 281 279
f 194 80 193
f 84 281 81
f 198 83 196
f 84 285 283
f 199 85 198
f 89 285 86
f 201 90 88
f 89 289 287
f 205 91 204
f 92 291 289
f 208 94 207
f 98 291 95
f 212 97 210
f 98 295 293
f 213 99 212
f 103 295 100
f 216 102 215
f 103 299 297
f 219 105 218
f 106 301 299
f 222 108 221
f 112 301 109
f 116 305 308
f 223 305 114
f 116 310 119
f 119 312 122
f 125 312 314
f 125 316 127
f 130 316 318
f 130 320 133
f 133 322 136
f 139 322 324
f 139 326 141
f 144 326 328
f 144 330 147
f 150 330 332
f 153 332 334
f 153 336 155
f 158 336 338
f 158 340 161
f 161 342 164
f 167 342 344
f 167 346 169
f 172 346 348
f 172 350 175
f 175 352 178
f 181 352 354
f 181 356 183
f 186 356 358
f 186 360 189
f 189 362 192
f 195 362 364
f 195 366 197
f 200 366 368
f 200 370 203
f 203 372 206
f 209 372 374
f 209 376 211
f 214 376 378
f 214 380 217
f 217 382 220
f 223 382 384
f 228 306 225
f 225 383 304
f 230 307 228
f 232 309 230
f 234 311 232
f 236 313 234
f 238 315 236
f 240 317 238
f 242 319 240
f 244 321 242
f 246 323 244
f 248 325 246
f 250 327 248
f 252 329 250
f 254 331 252
f 256 333 254
f 258 335 256
f 258 339 337
f 262 339 260
f 264 341 262
f 266 343 264
f 266 347 345
f 270 347 268
f 272 349 270
f 274 351 272
f 276 353 274
f 278 355 276
f 280 357 278
f 282 359 280
f 284 361 282
f 286 363 284
f 288 365 286
f 290 367 288
f 292 369 290
f 294 371 292
f 296 373 294
f 298 375 296
f 300 377 298
f 302 379 300
f 304 381 302
f 403 385 391
f 390 392 387
f 399 388 386
f 394 400 406
f 395 404 393
f 407 398 405
f 427 409 415
f 411 420 416
f 425 410 423
f 430 413 424
f 419 428 417
f 431 422 429
f 451 433 439
f 438 440 435
f 449 434 447
f 442 448 454
f 443 452 441
f 453 450 446
f 463 469 457
f 462 464 459
f 473 458 471
f 466 472 478
f 467 476 465
f 479 470 477
f 499 481 487
f 486 488 483
f 495 484 482
f 502 485 496
f 491 500 489
f 503 494 501
f 533 549 565
f 508 510 506
f 568 506 566
f 523 515 547
f 512 514 510
f 516 518 514
f 520 522 518
f 524 526 522
f 528 530 526
f 532 534 530
f 536 538 534
f 540 542 538
f 544 546 542
f 546 552 550
f 552 554 550
f 556 558 554
f 558 564 562
f 564 566 562
f 3 5 1
f 225 226 227
f 115 113 114
f 306 307 308
f 4 3 115
f 4 6 8
f 230 228 227
f 117 116 119
f 309 310 308
f 7 6 118
f 9 11 8
f 230 229 231
f 121 120 119
f 309 311 312
f 10 9 121
f 12 14 11
f 234 232 231
f 124 123 122
f 313 314 312
f 13 12 124
f 13 15 16
f 236 234 233
f 126 125 127
f 313 315 316
f 17 19 16
f 236 235 237
f 129 128 127
f 315 317 318
f 18 17 129
f 18 20 22
f 240 238 237
f 131 130 133
f 319 320 318
f 21 20 132
f 23 25 22
f 242 240 239
f 134 133 136
f 321 322 320
f 24 23 135
f 26 28 25
f 242 241 243
f 138 137 136
f 321 323 324
f 27 26 138
f 27 29 30
f 246 244 243
f 140 139 141
f 325 326 324
f 31 33 30
f 246 245 247
f 143 142 141
f 325 327 328
f 32 31 143
f 32 34 36
f 250 248 247
f 145 144 147
f 329 330 328
f 35 34 146
f 37 39 36
f 252 250 249
f 149 148 147
f 331 332 330
f 38 37 149
f 40 42 39
f 252 251 253
f 152 151 150
f 331 333 334
f 41 40 152
f 41 43 44
f 254 253 255
f 154 153 155
f 333 335 336
f 45 47 44
f 256 255 257
f 157 156 155
f 335 337 338
f 46 45 157
f 46 48 50
f 258 257 259
f 159 158 161
f 337 339 340
f 49 48 160
f 51 53 50
f 260 259 261
f 162 161 164
f 339 341 342
f 52 51 163
f 54 56 53
f 264 262 261
f 166 165 164
f 343 344 342
f 55 54 166
f 55 57 58
f 264 263 265
f 168 167 169
f 343 345 346
f 59 61 58
f 266 265 267
f 171 170 169
f 345 347 348
f 60 59 171
f 60 62 64
f 270 268 267
f 173 172 175
f 349 350 348
f 63 62 174
f 63 65 67
f 272 270 269
f 176 175 178
f 349 351 352
f 66 65 177
f 68 70 67
f 274 272 271
f 180 179 178
f 353 354 352
f 69 68 180
f 69 71 72
f 276 274 273
f 182 181 183
f 355 356 354
f 73 75 72
f 276 275 277
f 185 184 183
f 355 357 358
f 74 73 185
f 74 76 78
f 280 278 277
f 187 186 189
f 359 360 358
f 77 76 188
f 77 79 81
f 282 280 279
f 190 189 192
f 361 362 360
f 80 79 191
f 82 84 81
f 284 282 281
f 194 193 192
f 363 364 362
f 83 82 194
f 83 85 86
f 286 284 283
f 196 195 197
f 365 366 364
f 87 89 86
f 286 285 287
f 199 198 197
f 365 367 368
f 88 87 199
f 88 90 92
f 290 288 287
f 201 200 203
f 369 370 368
f 91 90 202
f 91 93 95
f 290 289 291
f 204 203 206
f 369 371 372
f 94 93 205
f 96 98 95
f 294 292 291
f 208 207 206
f 373 374 372
f 97 96 208
f 97 99 100
f 294 293 295
f 210 209 211
f 373 375 376
f 101 103 100
f 296 295 297
f 213 212 211
f 375 377 378
f 102 101 213
f 102 104 106
f 300 298 297
f 215 214 217
f 377 379 380
f 105 104 216
f 105 107 109
f 302 300 299
f 219 218 217
f 381 382 380
f 108 107 219
f 110 112 109
f 304 302 301
f 222 221 220
f 383 384 382
f 111 110 222
f 111 2 1
f 225 304 303
f 224 223 114
f 306 305 384
f 385 387 392
f 388 390 387
f 389 394 396
f 393 392 396
f 403 391 393
f 406 408 395
f 405 404 408
f 397 403 405
f 400 402 407
f 399 398 402
f 385 397 399
f 389 388 401
f 415 409 411
f 412 414 411
f 413 418 420
f 419 417 416
f 415 417 428
f 430 432 419
f 431 429 428
f 421 427 429
f 424 426 431
f 423 422 426
f 421 423 410
f 413 412 425
f 433 435 440
f 436 438 435
f 442 444 438
f 441 440 444
f 439 441 452
f 454 456 443
f 453 452 456
f 451 453 446
f 448 450 455
f 449 447 446
f 445 447 434
f 437 436 449
f 463 457 459
f 458 460 462
f 461 466 468
f 465 464 468
f 463 465 476
f 478 480 467
f 477 476 480
f 469 475 477
f 472 474 479
f 473 471 470
f 457 469 471
f 461 460 473
f 481 483 488
f 484 486 483
f 490 492 486
f 489 488 492
f 499 487 489
f 490 502 504
f 501 500 504
f 493 499 501
f 496 498 503
f 495 494 498
f 481 493 495
f 496 485 484
f 510 509 505
f 512 508 507
f 514 513 509
f 516 512 511
f 514 518 517
f 516 515 519
f 518 522 521
f 520 519 523
f 526 525 521
f 528 524 523
f 530 529 525
f 532 528 527
f 530 534 533
f 532 531 535
f 534 538 537
f 536 535 539
f 542 541 537
f 544 540 539
f 546 545 541
f 548 544 543
f 546 550 549
f 548 547 551
f 550 554 553
f 552 551 555
f 558 557 553
f 560 556 555
f 562 561 557
f 564 560 559
f 562 566 565
f 564 563 567
f 566 506 505
f 568 567 507
f 112 1 226
f 5 227 226
f 115 3 2
f 113 2 111
f 118 6 4
f 5 8 229
f 121 9 7
f 8 11 231
f 124 12 10
f 14 233 231
f 128 15 13
f 14 16 235
f 129 17 15
f 19 237 235
f 132 20 18
f 19 22 239
f 134 135 23
f 22 25 241
f 138 26 24
f 28 243 241
f 142 29 27
f 28 30 245
f 143 31 29
f 33 247 245
f 146 34 32
f 33 36 249
f 149 37 35
f 39 251 249
f 152 40 38
f 42 253 251
f 156 43 41
f 42 44 255
f 157 45 43
f 47 257 255
f 160 48 46
f 47 50 259
f 163 51 49
f 50 53 261
f 166 54 52
f 56 263 261
f 170 57 55
f 56 58 265
f 171 59 57
f 61 267 265
f 174 62 60
f 61 64 269
f 177 65 63
f 64 67 271
f 180 68 66
f 70 273 271
f 184 71 69
f 70 72 275
f 185 73 71
f 75 277 275
f 188 76 74
f 75 78 279
f 191 79 77
f 78 81 281
f 194 82 80
f 84 283 281
f 198 85 83
f 84 86 285
f 199 87 85
f 89 287 285
f 201 202 90
f 89 92 289
f 205 93 91
f 92 95 291
f 208 96 94
f 98 293 291
f 212 99 97
f 98 100 295
f 213 101 99
f 103 297 295
f 216 104 102
f 103 106 299
f 219 107 105
f 106 109 301
f 222 110 108
f 112 303 301
f 116 114 305
f 223 384 305
f 116 308 310
f 119 310 312
f 125 122 312
f 125 314 316
f 130 127 316
f 130 318 320
f 133 320 322
f 139 136 322
f 139 324 326
f 144 141 326
f 144 328 330
f 150 147 330
f 153 150 332
f 153 334 336
f 158 155 336
f 158 338 340
f 161 340 342
f 167 164 342
f 167 344 346
f 172 169 346
f 172 348 350
f 175 350 352
f 181 178 352
f 181 354 356
f 186 183 356
f 186 358 360
f 189 360 362
f 195 192 362
f 195 364 366
f 200 197 366
f 200 368 370
f 203 370 372
f 209 206 372
f 209 374 376
f 214 211 376
f 214 378 380
f 217 380 382
f 223 220 382
f 228 307 306
f 225 306 383
f 230 309 307
f 232 311 309
f 234 313 311
f 236 315 313
f 238 317 315
f 240 319 317
f 242 321 319
f 244 323 321
f 246 325 323
f 248 327 325
f 250 329 327
f 252 331 329
f 254 333 331
f 256 335 333
f 258 337 335
f 258 260 339
f 262 341 339
f 264 343 341
f 266 345 343
f 266 268 347
f 270 349 347
f 272 351 349
f 274 353 351
f 276 355 353
f 278 357 355
f 280 359 357
f 282 361 359
f 284 363 361
f 286 365 363
f 288 367 365
f 290 369 367
f 292 371 369
f 294 373 371
f 296 375 373
f 298 377 375
f 300 379 377
f 302 381 379
f 304 383 381
f 403 397 385
f 390 396 392
f 399 401 388
f 394 389 400
f 395 408 404
f 407 402 398
f 427 421 409
f 411 414 420
f 425 412 410
f 430 418 413
f 419 432 428
f 431 426 422
f 451 445 433
f 438 444 440
f 449 436 434
f 442 437 448
f 443 456 452
f 453 455 450
f 463 475 469
f 462 468 464
f 473 460 458
f 466 461 472
f 467 480 476
f 479 474 470
f 499 493 481
f 486 492 488
f 495 497 484
f 502 490 485
f 491 504 500
f 503 498 494
f 565 505 517
f 505 509 517
f 509 513 517
f 517 521 533
f 521 525 533
f 525 529 533
f 533 537 549
f 537 541 549
f 541 545 549
f 549 553 565
f 553 557 565
f 557 561 565
f 565 517 533
f 508 512 510
f 568 508 506
f 515 511 507
f 507 567 563
f 563 559 555
f 555 551 547
f 547 543 539
f 539 535 531
f 531 527 523
f 523 519 515
f 515 507 563
f 563 555 515
f 555 547 515
f 547 539 531
f 531 523 547
f 512 516 514
f 516 520 518
f 520 524 522
f 524 528 526
f 528 532 530
f 532 536 534
f 536 540 538
f 540 544 542
f 544 548 546
f 546 548 552
f 552 556 554
f 556 560 558
f 558 560 564
f 564 568 566
