# eclipse_pocket Corona_Contour.obj: Roblox cue frame, recentred on its bounding box
v 0.67014 -0.58733 0.03109
v 0.50035 -0.75712 0.03109
v 0.63470 -0.68334 0.01307
v 0.46226 -0.82628 0.01307
v 0.58911 -0.77468 -0.00371
v 0.41807 -0.89222 -0.00371
v 0.53655 -0.85817 -0.01813
v 0.37083 -0.95264 -0.01813
v 0.48095 -0.93169 -0.02919
v 0.32409 -1.00608 -0.02919
v 0.42638 -0.99425 -0.03614
v 0.28139 -1.05186 -0.03614
v 0.37646 -1.04587 -0.03851
v 0.24579 -1.08996 -0.03851
v 0.33382 -1.08720 -0.03614
v 0.21943 -1.12069 -0.03614
v 0.29983 -1.11925 -0.02919
v 0.20338 -1.14451 -0.02919
v 0.27443 -1.14310 -0.01813
v 0.19746 -1.16178 -0.01813
v 0.25619 -1.15980 -0.00371
v 0.20042 -1.17278 -0.00371
v 0.24231 -1.17037 0.01307
v 0.21025 -1.17772 0.01307
v 0.22673 -1.17639 0.03109
v 0.22673 -1.17639 0.03109
v 0.27231 -0.88164 0.03109
v 0.03768 -0.93268 0.03109
v 0.19180 -0.95327 0.01307
v -0.03054 -0.98030 0.01307
v 0.10347 -1.01547 -0.00371
v -0.10396 -1.02187 -0.00371
v 0.01193 -1.06684 -0.01813
v -0.17856 -1.05672 -0.01813
v -0.07798 -1.10743 -0.02919
v -0.25015 -1.08521 -0.02919
v -0.16179 -1.13843 -0.03614
v -0.31491 -1.10850 -0.03614
v -0.23597 -1.16170 -0.03851
v -0.36974 -1.12814 -0.03851
v -0.29821 -1.17924 -0.03614
v -0.41255 -1.14557 -0.03614
v -0.34756 -1.19265 -0.02919
v -0.44236 -1.16175 -0.02919
v -0.38444 -1.20283 -0.01813
v -0.45929 -1.17693 -0.01813
v -0.41053 -1.20986 -0.00371
v -0.46448 -1.19062 -0.00371
v -0.42883 -1.21302 0.01307
v -0.45977 -1.20188 0.01307
v -0.44542 -1.21028 0.03109
v -0.44542 -1.21028 0.03109
v -0.22148 -0.91414 0.03109
v -0.44646 -0.83023 0.03109
v -0.33135 -0.93794 0.01307
v -0.53300 -0.84046 0.01307
v -0.44387 -0.94877 -0.00371
v -0.62183 -0.84201 -0.00371
v -0.55409 -0.94782 -0.01813
v -0.70887 -0.83632 -0.01813
v -0.65757 -0.93768 -0.02919
v -0.79040 -0.82590 -0.02919
v -0.75080 -0.92186 -0.03614
v -0.86343 -0.81391 -0.03614
v -0.83144 -0.90400 -0.03851
v -0.92583 -0.80345 -0.03851
v -0.89835 -0.88722 -0.03614
v -0.97634 -0.79708 -0.03614
v -0.95138 -0.87353 -0.02919
v -1.01443 -0.79629 -0.02919
v -0.99122 -0.86358 -0.01813
v -1.04019 -0.80132 -0.01813
v -1.01930 -0.85651 -0.00371
v -1.05428 -0.81117 -0.00371
v -1.03773 -0.85007 0.01307
v -1.05773 -0.82396 0.01307
v -1.05062 -0.83910 0.03109
v -1.05062 -0.83910 0.03109
v -0.65446 -0.67452 0.03109
v -0.79836 -0.48230 0.03109
v -0.74964 -0.62895 0.01307
v -0.86658 -0.43793 0.01307
v -0.83918 -0.57300 -0.00371
v -0.93118 -0.38697 -0.00371
v -0.92012 -0.51028 -0.01813
v -0.99004 -0.33280 -0.01813
v -0.99064 -0.44513 -0.02919
v -1.04195 -0.27928 -0.02919
v -1.05013 -0.38194 -0.03614
v -1.08651 -0.23023 -0.03614
v -1.09892 -0.32455 -0.03851
v -1.12397 -0.18893 -0.03851
v -1.13796 -0.27572 -0.03614
v -1.15483 -0.15773 -0.03614
v -1.16834 -0.23684 -0.02919
v -1.17962 -0.13777 -0.02919
v -1.19109 -0.20784 -0.01813
v -1.19863 -0.12899 -0.01813
v -1.20701 -0.18718 -0.00371
v -1.21193 -0.13012 -0.00371
v -1.21670 -0.17188 0.01307
v -1.21942 -0.13910 0.01307
v -1.22084 -0.15563 0.03109
v -1.22084 -0.15563 0.03109
v -0.88915 -0.23886 0.03109
v -0.90628 0.00065 0.03109
v -0.93941 -0.14917 0.01307
v -0.93451 0.07475 0.01307
v -0.97946 -0.05473 -0.00371
v -0.95628 0.15151 -0.00371
v -1.00896 0.03999 -0.01813
v -0.97183 0.22709 -0.01813
v -1.02884 0.13056 -0.02919
v -0.98235 0.29782 -0.02919
v -1.04104 0.21323 -0.03614
v -0.98963 0.36053 -0.03614
v -1.04790 0.28523 -0.03851
v -0.99565 0.41286 -0.03851
v -1.05168 0.34494 -0.03614
v -1.00208 0.45333 -0.03614
v -1.05402 0.39199 -0.02919
v -1.00995 0.48143 -0.02919
v -1.05572 0.42708 -0.01813
v -1.01944 0.49749 -0.01813
v -1.05663 0.45199 -0.00371
v -1.02992 0.50265 -0.00371
v -1.05567 0.46951 0.01307
v -1.04024 0.49855 0.01307
v -1.05007 0.48526 0.03109
v -1.05007 0.48526 0.03109
v -0.85106 0.25453 0.03109
v -0.73598 0.46528 0.03109
v -0.85564 0.36443 0.01307
v -0.73046 0.55016 0.01307
v -0.84751 0.47456 -0.00371
v -0.71651 0.63552 -0.00371
v -0.82858 0.58038 -0.01813
v -0.69618 0.71772 -0.01813
v -0.80205 0.67806 -0.02919
v -0.67251 0.79363 -0.02919
v -0.77183 0.76481 -0.03614
v -0.64894 0.86093 -0.03614
v -0.74173 0.83903 -0.03851
v -0.62877 0.91815 -0.03851
v -0.71490 0.90015 -0.03614
v -0.61458 0.96451 -0.03614
v -0.69325 0.94840 -0.02919
v -0.60782 0.99981 -0.02919
v -0.67725 0.98463 -0.01813
v -0.60865 1.02425 -0.01813
v -0.66585 1.01016 -0.00371
v -0.61599 1.03833 -0.00371
v -0.65655 1.02675 0.01307
v -0.62786 1.04284 0.01307
v -0.64373 1.03772 0.03109
v -0.64373 1.03772 0.03109
v -0.55226 0.64900 0.03109
v -0.34151 0.76408 0.03109
v -0.49759 0.74601 0.01307
v -0.29188 0.83457 0.01307
v -0.43171 0.83643 -0.00371
v -0.23448 0.90102 -0.00371
v -0.35870 0.91741 -0.01813
v -0.17308 0.96136 -0.01813
v -0.28341 0.98734 -0.02919
v -0.11195 1.01452 -0.02919
v -0.21070 1.04592 -0.03614
v -0.05536 1.06034 -0.03614
v -0.14477 1.09382 -0.03851
v -0.00697 1.09931 -0.03851
v -0.08866 1.13222 -0.03614
v 0.03054 1.13214 -0.03614
v -0.04393 1.16236 -0.02919
v 0.05574 1.15943 -0.02919
v -0.01056 1.18518 -0.01813
v 0.06856 1.18142 -0.01813
v 0.01302 1.20121 -0.00371
v 0.07019 1.19796 -0.00371
v 0.02989 1.21058 0.01307
v 0.06272 1.20861 0.01307
v 0.04662 1.21302 0.03109
v 0.04662 1.21302 0.03109
v -0.08762 0.81931 0.03109
v 0.15188 0.80218 0.03109
v 0.00859 0.85801 0.01307
v 0.22953 0.82130 0.01307
v 0.10836 0.88585 -0.00371
v 0.30919 0.83356 -0.00371
v 0.20713 0.90305 -0.01813
v 0.38705 0.83967 -0.01813
v 0.30061 0.91114 -0.02919
v 0.45955 0.84131 -0.02919
v 0.38524 0.91255 -0.03614
v 0.52372 0.84070 -0.03614
v 0.45852 0.91003 -0.03851
v 0.57741 0.84014 -0.03851
v 0.51912 0.90604 -0.03614
v 0.61935 0.84152 -0.03614
v 0.56682 0.90230 -0.02919
v 0.64908 0.84595 -0.02919
v 0.60242 0.89950 -0.01813
v 0.66695 0.85356 -0.01813
v 0.62763 0.89724 -0.00371
v 0.67397 0.86359 -0.00371
v 0.64507 0.89405 0.01307
v 0.67162 0.87464 0.01307
v 0.65993 0.88636 0.03109
v 0.65993 0.88636 0.03109
v 0.39532 0.71138 0.03109
v 0.58755 0.56748 0.03109
v 0.49771 0.69250 0.01307
v 0.66373 0.54217 0.01307
v 0.59731 0.66245 -0.00371
v 0.73799 0.50988 -0.00371
v 0.69037 0.62387 -0.01813
v 0.80746 0.47328 -0.01813
v 0.77406 0.58039 -0.02919
v 0.87002 0.43571 -0.02919
v 0.84668 0.53598 -0.03614
v 0.92434 0.40067 -0.03614
v 0.90758 0.49434 -0.03851
v 0.96982 0.37127 -0.03851
v 0.95695 0.45828 -0.03614
v 1.00638 0.34982 -0.03614
v 0.99551 0.42938 -0.02919
v 1.03424 0.33751 -0.02919
v 1.02430 0.40782 -0.01813
v 1.05375 0.33429 -0.01813
v 1.04454 0.39233 -0.00371
v 1.06533 0.33897 -0.00371
v 1.05764 0.38026 0.01307
v 1.06948 0.34958 0.01307
v 1.06602 0.36577 0.03109
v 1.06602 0.36577 0.03109
v 0.74325 0.35949 0.03109
v 0.82717 0.13451 0.03109
v 0.83207 0.29173 0.01307
v 0.89046 0.07550 0.01307
v 0.91280 0.21370 -0.00371
v 0.94866 0.00929 -0.00371
v 0.98314 0.12986 -0.01813
v 1.00023 -0.06013 -0.01813
v 1.04220 0.04526 -0.02919
v 1.04470 -0.12832 -0.02919
v 1.09033 -0.03522 -0.03614
v 1.08250 -0.19104 -0.03614
v 1.12881 -0.10749 -0.03851
v 1.11463 -0.24467 -0.03851
v 1.15921 -0.16869 -0.03614
v 1.14216 -0.28666 -0.03614
v 1.18299 -0.21741 -0.02919
v 1.16590 -0.31565 -0.02919
v 1.20108 -0.25381 -0.01813
v 1.18610 -0.33159 -0.01813
v 1.21378 -0.27951 -0.00371
v 1.20242 -0.33564 -0.00371
v 1.22076 -0.29758 0.01307
v 1.21413 -0.32980 0.01307
v 1.22084 -0.31449 0.03109
v 1.22084 -0.31449 0.03109
v 0.84570 -0.12465 0.03109
v 0.79466 -0.35929 0.03109
v 0.88019 -0.22853 0.01307
v 0.81241 -0.44200 0.01307
v 0.90262 -0.33606 -0.00371
v 0.82227 -0.52741 -0.00371
v 0.91356 -0.44239 -0.01813
v 0.82522 -0.61146 -0.01813
v 0.91503 -0.54297 -0.02919
v 0.82330 -0.69036 -0.02919
v 0.90998 -0.63410 -0.03614
v 0.81915 -0.76095 -0.03614
v 0.90161 -0.71318 -0.03851
v 0.81552 -0.82092 -0.03851
v 0.89275 -0.77883 -0.03614
v 0.81463 -0.86885 -0.03614
v 0.88530 -0.83076 -0.02919
v 0.81782 -0.90417 -0.02919
v 0.87994 -0.86968 -0.01813
v 0.82529 -0.92701 -0.01813
v 0.87603 -0.89713 -0.00371
v 0.83613 -0.93821 -0.00371
v 0.87167 -0.91553 0.01307
v 0.84868 -0.93905 0.01307
v 0.86242 -0.92963 0.03109
v 0.86242 -0.92963 0.03109
v 0.67250 -0.58990 0.03809
v 0.50271 -0.75969 0.03809
v 0.63700 -0.68593 0.02009
v 0.46433 -0.82893 0.02014
v 0.59108 -0.77733 0.00339
v 0.41974 -0.89480 0.00349
v 0.53811 -0.86069 -0.01088
v 0.37206 -0.95492 -0.01074
v 0.48205 -0.93384 -0.02174
v 0.32486 -1.00778 -0.02158
v 0.42702 -0.99573 -0.02848
v 0.28170 -1.05264 -0.02836
v 0.37663 -1.04631 -0.03070
v 0.24563 -1.08944 -0.03070
v 0.33352 -1.08619 -0.02838
v 0.21883 -1.11856 -0.02863
v 0.29907 -1.11644 -0.02192
v 0.20239 -1.14068 -0.02244
v 0.27326 -1.13841 -0.01197
v 0.19617 -1.15648 -0.01251
v 0.25471 -1.15354 0.00076
v 0.19890 -1.16634 0.00048
v 0.24064 -1.16315 0.01560
v 0.20858 -1.17049 0.01555
v 0.22499 -1.16882 0.03211
v 0.22499 -1.16882 0.03211
v 0.27279 -0.88444 0.03838
v 0.03816 -0.93548 0.03838
v 0.19224 -0.95606 0.02038
v -0.03028 -0.98302 0.02041
v 0.10364 -1.01813 0.00365
v -0.10395 -1.02436 0.00371
v 0.01188 -1.06922 -0.01067
v -0.17871 -1.05880 -0.01058
v -0.07817 -1.10934 -0.02160
v -0.25037 -1.08669 -0.02150
v -0.16200 -1.13966 -0.02841
v -0.31504 -1.10917 -0.02834
v -0.23604 -1.16203 -0.03069
v -0.36963 -1.12777 -0.03069
v -0.29797 -1.17841 -0.02836
v -0.41205 -1.14393 -0.02850
v -0.34684 -1.19037 -0.02173
v -0.44135 -1.15867 -0.02206
v -0.38311 -1.19891 -0.01148
v -0.45774 -1.17242 -0.01192
v -0.40858 -1.20431 0.00146
v -0.46243 -1.18485 0.00116
v -0.42640 -1.20626 0.01618
v -0.45734 -1.19508 0.01611
v -0.44281 -1.20302 0.03239
v -0.44281 -1.20302 0.03239
v -0.22245 -0.91642 0.03851
v -0.44743 -0.83250 0.03851
v -0.33235 -0.94018 0.02051
v -0.53409 -0.84258 0.02053
v -0.44499 -0.95079 0.00377
v -0.62299 -0.84384 0.00381
v -0.55524 -0.94952 -0.01057
v -0.70995 -0.83776 -0.01051
v -0.65859 -0.93897 -0.02153
v -0.79124 -0.82688 -0.02147
v -0.75151 -0.92265 -0.02839
v -0.86384 -0.81434 -0.02834
v -0.83164 -0.90420 -0.03069
v -0.92560 -0.80324 -0.03069
v -0.89778 -0.88672 -0.02835
v -0.97523 -0.79613 -0.02845
v -0.94977 -0.87220 -0.02164
v -1.01223 -0.79451 -0.02189
v -0.98832 -0.86127 -0.01123
v -1.03681 -0.79865 -0.01159
v -1.01496 -0.85315 0.00187
v -1.04972 -0.80764 0.00158
v -1.03218 -0.84580 0.01658
v -1.05215 -0.81967 0.01650
v -1.04452 -0.83443 0.03260
v -1.04452 -0.83443 0.03260
v -0.65700 -0.67625 0.03829
v -0.80090 -0.48402 0.03829
v -0.75218 -0.63063 0.02028
v -0.86914 -0.43940 0.02032
v -0.84173 -0.57437 0.00356
v -0.93362 -0.38810 0.00364
v -0.92249 -0.51131 -0.01074
v -0.99216 -0.33358 -0.01063
v -0.99261 -0.44581 -0.02164
v -1.04351 -0.27974 -0.02153
v -1.05145 -0.38231 -0.02843
v -1.08723 -0.23040 -0.02835
v -1.09930 -0.32464 -0.03069
v -1.12353 -0.18887 -0.03070
v -1.13704 -0.27558 -0.02837
v -1.15296 -0.15748 -0.02854
v -1.16579 -0.23653 -0.02179
v -1.17614 -0.13739 -0.02219
v -1.18672 -0.20740 -0.01165
v -1.19363 -0.12851 -0.01213
v -1.20095 -0.18663 0.00121
v -1.20563 -0.12956 0.00091
v -1.20945 -0.17127 0.01596
v -1.21214 -0.13849 0.01589
v -1.21313 -0.15499 0.03228
v -1.21313 -0.15499 0.03228
v -0.89258 -0.23895 0.03813
v -0.90971 0.00056 0.03813
v -0.94281 -0.14922 0.02013
v -0.93780 0.07492 0.02017
v -0.98269 -0.05448 0.00342
v -0.95927 0.15192 0.00351
v -1.01182 0.04045 -0.01086
v -0.97431 0.22764 -0.01072
v -1.03114 0.13112 -0.02173
v -0.98409 0.29834 -0.02158
v -1.04254 0.21371 -0.02847
v -0.99040 0.36081 -0.02836
v -1.04833 0.28538 -0.03070
v -0.99517 0.41264 -0.03070
v -1.05074 0.34452 -0.02838
v -1.00013 0.45241 -0.02862
v -1.05145 0.39075 -0.02190
v -1.00647 0.47970 -0.02239
v -1.05148 0.42493 -0.01191
v -1.01464 0.49502 -0.01245
v -1.05098 0.44904 0.00083
v -1.02410 0.49959 0.00054
v -1.04914 0.46605 0.01565
v -1.03369 0.49508 0.01560
v -1.04322 0.48161 0.03214
v -1.04322 0.48161 0.03214
v -0.85332 0.25591 0.03845
v -0.73824 0.46666 0.03845
v -0.85787 0.36583 0.02045
v -0.73254 0.55164 0.02048
v -0.84949 0.47606 0.00371
v -0.71827 0.63703 0.00377
v -0.83021 0.58186 -0.01062
v -0.69755 0.71909 -0.01054
v -0.80327 0.67934 -0.02156
v -0.67342 0.79467 -0.02148
v -0.77257 0.76570 -0.02840
v -0.64933 0.86144 -0.02834
v -0.74192 0.83927 -0.03069
v -0.62858 0.91786 -0.03069
v -0.71446 0.89947 -0.02835
v -0.61374 0.96317 -0.02847
v -0.69208 0.94650 -0.02168
v -0.60627 0.99722 -0.02197
v -0.67527 0.98125 -0.01135
v -0.60638 1.02032 -0.01175
v -0.66304 1.00522 0.00167
v -0.61306 1.03316 0.00138
v -0.65307 1.02057 0.01638
v -0.62437 1.03663 0.01631
v -0.63996 1.03100 0.03249
v -0.63996 1.03100 0.03249
v -0.55338 0.65129 0.03849
v -0.34263 0.76637 0.03849
v -0.49867 0.74829 0.02048
v -0.29279 0.83685 0.02051
v -0.43253 0.83868 0.00374
v -0.23513 0.90315 0.00379
v -0.35926 0.91945 -0.01059
v -0.17347 0.96318 -0.01052
v -0.28373 0.98900 -0.02155
v -0.11214 1.01584 -0.02147
v -0.21084 1.04701 -0.02839
v -0.05541 1.06096 -0.02834
v -0.14480 1.09411 -0.03069
v -0.00697 1.09898 -0.03069
v -0.08866 1.13144 -0.02835
v 0.03052 1.13062 -0.02846
v -0.04397 1.16021 -0.02166
v 0.05564 1.15652 -0.02192
v -0.01072 1.18138 -0.01128
v 0.06835 1.17702 -0.01166
v 0.01272 1.19565 0.00179
v 0.06987 1.19212 0.00149
v 0.02948 1.20355 0.01649
v 0.06231 1.20154 0.01642
v 0.04615 1.20535 0.03256
v 0.04615 1.20535 0.03256
v -0.08724 0.82258 0.03819
v 0.15227 0.80545 0.03819
v 0.00901 0.86126 0.02018
v 0.23014 0.82442 0.02023
v 0.10904 0.88889 0.00347
v 0.31000 0.83634 0.00356
v 0.20797 0.90571 -0.01081
v 0.38792 0.84195 -0.01069
v 0.30146 0.91324 -0.02169
v 0.46028 0.84290 -0.02156
v 0.38589 0.91390 -0.02846
v 0.52409 0.84140 -0.02835
v 0.45872 0.91041 -0.03070
v 0.57715 0.83973 -0.03070
v 0.51859 0.90520 -0.02838
v 0.61821 0.83980 -0.02859
v 0.56529 0.90002 -0.02186
v 0.64695 0.84287 -0.02231
v 0.59976 0.89571 -0.01181
v 0.66390 0.84927 -0.01233
v 0.62396 0.89215 0.00097
v 0.67017 0.85833 0.00067
v 0.64074 0.88811 0.01576
v 0.66728 0.86868 0.01570
v 0.65536 0.88010 0.03219
v 0.65536 0.88010 0.03219
v 0.39738 0.71389 0.03821
v 0.58961 0.56999 0.03821
v 0.49978 0.69496 0.02021
v 0.66589 0.54442 0.02025
v 0.59948 0.66460 0.00349
v 0.74013 0.51175 0.00358
v 0.69247 0.62562 -0.01079
v 0.80938 0.47471 -0.01067
v 0.77587 0.58167 -0.02168
v 0.87147 0.43664 -0.02155
v 0.84793 0.53675 -0.02845
v 0.92501 0.40105 -0.02835
v 0.90795 0.49454 -0.03070
v 0.96938 0.37106 -0.03070
v 0.95606 0.45786 -0.02837
v 1.00453 0.34900 -0.02858
v 0.99302 0.42831 -0.02184
v 1.03084 0.33609 -0.02228
v 1.02006 0.40610 -0.01177
v 1.04891 0.33235 -0.01228
v 1.03874 0.39005 0.00102
v 1.05933 0.33662 0.00073
v 1.05079 0.37761 0.01580
v 1.06261 0.34692 0.01574
v 1.05879 0.36298 0.03221
v 1.05879 0.36298 0.03221
v 0.74565 0.36026 0.03850
v 0.82957 0.13528 0.03850
v 0.83446 0.29246 0.02049
v 0.89282 0.07608 0.02052
v 0.91511 0.21418 0.00375
v 0.95084 0.00962 0.00380
v 0.98522 0.13012 -0.01058
v 1.00207 -0.06000 -0.01052
v 1.04387 0.04534 -0.02154
v 1.04602 -0.12832 -0.02147
v 1.09142 -0.03524 -0.02839
v 1.08311 -0.19107 -0.02834
v 1.12909 -0.10751 -0.03069
v 1.11431 -0.24463 -0.03069
v 1.15844 -0.16858 -0.02835
v 1.14069 -0.28643 -0.02846
v 1.18089 -0.21707 -0.02166
v 1.16307 -0.31514 -0.02191
v 1.19737 -0.25312 -0.01127
v 1.18180 -0.33077 -0.01163
v 1.20834 -0.27843 0.00182
v 1.19671 -0.33449 0.00153
v 1.21388 -0.29618 0.01652
v 1.20721 -0.32839 0.01645
v 1.21331 -0.31294 0.03257
v 1.21331 -0.31294 0.03257
v 0.84831 -0.12534 0.03844
v 0.79727 -0.35998 0.03844
v 0.88276 -0.22925 0.02043
v 0.81486 -0.44285 0.02046
v 0.90498 -0.33696 0.00370
v 0.82442 -0.52838 0.00375
v 0.91558 -0.44337 -0.01063
v 0.82695 -0.61241 -0.01055
v 0.91659 -0.54388 -0.02157
v 0.82448 -0.69112 -0.02149
v 0.91095 -0.63475 -0.02840
v 0.81968 -0.76132 -0.02834
v 0.90187 -0.71337 -0.03069
v 0.81524 -0.82069 -0.03069
v 0.89213 -0.77829 -0.02836
v 0.81342 -0.86778 -0.02848
v 0.88362 -0.82924 -0.02169
v 0.81556 -0.90208 -0.02199
v 0.87705 -0.86696 -0.01138
v 0.82196 -0.92385 -0.01178
v 0.87191 -0.89315 0.00162
v 0.83182 -0.93404 0.00133
v 0.86657 -0.91056 0.01633
v 0.84356 -0.93406 0.01626
v 0.85691 -0.92424 0.03247
v 0.85691 -0.92424 0.03247
s 1
f 3 2 1
s 1
f 5 4 3
s 1
f 7 6 5
s 1
f 9 8 7
s 1
f 11 10 9
s 1
f 13 12 11
s 1
f 15 14 13
s 1
f 17 16 15
s 1
f 19 18 17
s 1
f 21 20 19
s 1
f 23 22 21
s 1
f 23 26 24
s 1
f 29 28 27
s 1
f 31 30 29
s 1
f 33 32 31
s 1
f 35 34 33
s 1
f 37 36 35
s 1
f 39 38 37
s 1
f 41 40 39
s 1
f 43 42 41
s 1
f 45 44 43
s 1
f 47 46 45
s 1
f 49 48 47
s 1
f 49 52 50
s 1
f 55 54 53
s 1
f 57 56 55
s 1
f 59 58 57
s 1
f 61 60 59
s 1
f 63 62 61
s 1
f 65 64 63
s 1
f 67 66 65
s 1
f 69 68 67
s 1
f 71 70 69
s 1
f 73 72 71
s 1
f 75 74 73
s 1
f 75 78 76
s 1
f 81 80 79
s 1
f 83 82 81
s 1
f 85 84 83
s 1
f 87 86 85
s 1
f 89 88 87
s 1
f 91 90 89
s 1
f 93 92 91
s 1
f 95 94 93
s 1
f 97 96 95
s 1
f 99 98 97
s 1
f 101 100 99
s 1
f 101 104 102
s 1
f 107 106 105
s 1
f 109 108 107
s 1
f 111 110 109
s 1
f 113 112 111
s 1
f 115 114 113
s 1
f 117 116 115
s 1
f 119 118 117
s 1
f 121 120 119
s 1
f 123 122 121
s 1
f 125 124 123
s 1
f 127 126 125
s 1
f 127 130 128
s 1
f 133 132 131
s 1
f 135 134 133
s 1
f 137 136 135
s 1
f 139 138 137
s 1
f 141 140 139
s 1
f 143 142 141
s 1
f 145 144 143
s 1
f 147 146 145
s 1
f 149 148 147
s 1
f 151 150 149
s 1
f 153 152 151
s 1
f 153 156 154
s 1
f 159 158 157
s 1
f 161 160 159
s 1
f 163 162 161
s 1
f 165 164 163
s 1
f 167 166 165
s 1
f 169 168 167
s 1
f 171 170 169
s 1
f 173 172 171
s 1
f 175 174 173
s 1
f 177 176 175
s 1
f 179 178 177
s 1
f 179 182 180
s 1
f 185 184 183
s 1
f 187 186 185
s 1
f 189 188 187
s 1
f 191 190 189
s 1
f 193 192 191
s 1
f 195 194 193
s 1
f 197 196 195
s 1
f 199 198 197
s 1
f 201 200 199
s 1
f 203 202 201
s 1
f 205 204 203
s 1
f 205 208 206
s 1
f 211 210 209
s 1
f 213 212 211
s 1
f 215 214 213
s 1
f 217 216 215
s 1
f 219 218 217
s 1
f 221 220 219
s 1
f 223 222 221
s 1
f 225 224 223
s 1
f 227 226 225
s 1
f 229 228 227
s 1
f 231 230 229
s 1
f 231 234 232
s 1
f 237 236 235
s 1
f 239 238 237
s 1
f 241 240 239
s 1
f 243 242 241
s 1
f 245 244 243
s 1
f 247 246 245
s 1
f 249 248 247
s 1
f 251 250 249
s 1
f 253 252 251
s 1
f 255 254 253
s 1
f 257 256 255
s 1
f 257 260 258
s 1
f 263 262 261
s 1
f 265 264 263
s 1
f 267 266 265
s 1
f 269 268 267
s 1
f 271 270 269
s 1
f 273 272 271
s 1
f 275 274 273
s 1
f 277 276 275
s 1
f 279 278 277
s 1
f 281 280 279
s 1
f 283 282 281
s 1
f 283 286 284
s 1
f 288 289 287
s 1
f 290 291 289
s 1
f 292 293 291
s 1
f 294 295 293
s 1
f 296 297 295
s 1
f 298 299 297
s 1
f 300 301 299
s 1
f 302 303 301
s 1
f 304 305 303
s 1
f 306 307 305
s 1
f 308 309 307
s 1
f 309 312 311
s 1
f 314 315 313
s 1
f 316 317 315
s 1
f 318 319 317
s 1
f 320 321 319
s 1
f 322 323 321
s 1
f 324 325 323
s 1
f 326 327 325
s 1
f 328 329 327
s 1
f 330 331 329
s 1
f 332 333 331
s 1
f 334 335 333
s 1
f 335 338 337
s 1
f 340 341 339
s 1
f 342 343 341
s 1
f 344 345 343
s 1
f 346 347 345
s 1
f 348 349 347
s 1
f 350 351 349
s 1
f 352 353 351
s 1
f 354 355 353
s 1
f 356 357 355
s 1
f 358 359 357
s 1
f 360 361 359
s 1
f 361 364 363
s 1
f 366 367 365
s 1
f 368 369 367
s 1
f 370 371 369
s 1
f 372 373 371
s 1
f 374 375 373
s 1
f 376 377 375
s 1
f 378 379 377
s 1
f 380 381 379
s 1
f 382 383 381
s 1
f 384 385 383
s 1
f 386 387 385
s 1
f 387 390 389
s 1
f 392 393 391
s 1
f 394 395 393
s 1
f 396 397 395
s 1
f 398 399 397
s 1
f 400 401 399
s 1
f 402 403 401
s 1
f 404 405 403
s 1
f 406 407 405
s 1
f 408 409 407
s 1
f 410 411 409
s 1
f 412 413 411
s 1
f 413 416 415
s 1
f 418 419 417
s 1
f 420 421 419
s 1
f 422 423 421
s 1
f 424 425 423
s 1
f 426 427 425
s 1
f 428 429 427
s 1
f 430 431 429
s 1
f 432 433 431
s 1
f 434 435 433
s 1
f 436 437 435
s 1
f 438 439 437
s 1
f 439 442 441
s 1
f 444 445 443
s 1
f 446 447 445
s 1
f 448 449 447
s 1
f 450 451 449
s 1
f 452 453 451
s 1
f 454 455 453
s 1
f 456 457 455
s 1
f 458 459 457
s 1
f 460 461 459
s 1
f 462 463 461
s 1
f 464 465 463
s 1
f 465 468 467
s 1
f 470 471 469
s 1
f 472 473 471
s 1
f 474 475 473
s 1
f 476 477 475
s 1
f 478 479 477
s 1
f 480 481 479
s 1
f 482 483 481
s 1
f 484 485 483
s 1
f 486 487 485
s 1
f 488 489 487
s 1
f 490 491 489
s 1
f 491 494 493
s 1
f 496 497 495
s 1
f 498 499 497
s 1
f 500 501 499
s 1
f 502 503 501
s 1
f 504 505 503
s 1
f 506 507 505
s 1
f 508 509 507
s 1
f 510 511 509
s 1
f 512 513 511
s 1
f 514 515 513
s 1
f 516 517 515
s 1
f 517 520 519
s 1
f 522 523 521
s 1
f 524 525 523
s 1
f 526 527 525
s 1
f 528 529 527
s 1
f 530 531 529
s 1
f 532 533 531
s 1
f 534 535 533
s 1
f 536 537 535
s 1
f 538 539 537
s 1
f 540 541 539
s 1
f 542 543 541
s 1
f 543 546 545
s 1
f 548 549 547
s 1
f 550 551 549
s 1
f 552 553 551
s 1
f 554 555 553
s 1
f 556 557 555
s 1
f 558 559 557
s 1
f 560 561 559
s 1
f 562 563 561
s 1
f 564 565 563
s 1
f 566 567 565
s 1
f 568 569 567
s 1
f 569 572 571
s 1
f 2 287 1
s 1
f 3 287 289
s 1
f 2 290 288
s 1
f 5 289 291
s 1
f 4 292 290
s 1
f 7 291 293
s 1
f 6 294 292
s 1
f 9 293 295
s 1
f 8 296 294
s 1
f 11 295 297
s 1
f 10 298 296
s 1
f 13 297 299
s 1
f 12 300 298
s 1
f 15 299 301
s 1
f 14 302 300
s 1
f 17 301 303
s 1
f 16 304 302
s 1
f 19 303 305
s 1
f 18 306 304
s 1
f 21 305 307
s 1
f 22 306 20
s 1
f 23 307 309
s 1
f 24 308 22
s 1
f 25 309 311
s 1
f 26 311 312
s 1
f 26 310 24
s 1
f 28 313 27
s 1
f 29 313 315
s 1
f 28 316 314
s 1
f 31 315 317
s 1
f 30 318 316
s 1
f 33 317 319
s 1
f 32 320 318
s 1
f 35 319 321
s 1
f 34 322 320
s 1
f 37 321 323
s 1
f 36 324 322
s 1
f 39 323 325
s 1
f 38 326 324
s 1
f 41 325 327
s 1
f 40 328 326
s 1
f 43 327 329
s 1
f 42 330 328
s 1
f 45 329 331
s 1
f 44 332 330
s 1
f 47 331 333
s 1
f 48 332 46
s 1
f 49 333 335
s 1
f 50 334 48
s 1
f 51 335 337
s 1
f 52 337 338
s 1
f 52 336 50
s 1
f 54 339 53
s 1
f 55 339 341
s 1
f 54 342 340
s 1
f 57 341 343
s 1
f 56 344 342
s 1
f 59 343 345
s 1
f 58 346 344
s 1
f 61 345 347
s 1
f 60 348 346
s 1
f 63 347 349
s 1
f 62 350 348
s 1
f 65 349 351
s 1
f 64 352 350
s 1
f 67 351 353
s 1
f 66 354 352
s 1
f 69 353 355
s 1
f 68 356 354
s 1
f 71 355 357
s 1
f 70 358 356
s 1
f 73 357 359
s 1
f 72 360 358
s 1
f 75 359 361
s 1
f 76 360 74
s 1
f 77 361 363
s 1
f 78 363 364
s 1
f 78 362 76
s 1
f 80 365 79
s 1
f 81 365 367
s 1
f 80 368 366
s 1
f 83 367 369
s 1
f 82 370 368
s 1
f 85 369 371
s 1
f 84 372 370
s 1
f 87 371 373
s 1
f 86 374 372
s 1
f 89 373 375
s 1
f 88 376 374
s 1
f 91 375 377
s 1
f 90 378 376
s 1
f 93 377 379
s 1
f 92 380 378
s 1
f 95 379 381
s 1
f 94 382 380
s 1
f 97 381 383
s 1
f 96 384 382
s 1
f 99 383 385
s 1
f 100 384 98
s 1
f 101 385 387
s 1
f 102 386 100
s 1
f 103 387 389
s 1
f 104 389 390
s 1
f 104 388 102
s 1
f 106 391 105
s 1
f 107 391 393
s 1
f 106 394 392
s 1
f 109 393 395
s 1
f 108 396 394
s 1
f 111 395 397
s 1
f 110 398 396
s 1
f 113 397 399
s 1
f 112 400 398
s 1
f 115 399 401
s 1
f 114 402 400
s 1
f 117 401 403
s 1
f 116 404 402
s 1
f 119 403 405
s 1
f 118 406 404
s 1
f 121 405 407
s 1
f 120 408 406
s 1
f 123 407 409
s 1
f 122 410 408
s 1
f 125 409 411
s 1
f 126 410 124
s 1
f 127 411 413
s 1
f 128 412 126
s 1
f 129 413 415
s 1
f 130 415 416
s 1
f 130 414 128
s 1
f 132 417 131
s 1
f 133 417 419
s 1
f 132 420 418
s 1
f 135 419 421
s 1
f 134 422 420
s 1
f 137 421 423
s 1
f 136 424 422
s 1
f 139 423 425
s 1
f 138 426 424
s 1
f 141 425 427
s 1
f 140 428 426
s 1
f 143 427 429
s 1
f 142 430 428
s 1
f 145 429 431
s 1
f 144 432 430
s 1
f 147 431 433
s 1
f 146 434 432
s 1
f 149 433 435
s 1
f 148 436 434
s 1
f 151 435 437
s 1
f 150 438 436
s 1
f 153 437 439
s 1
f 154 438 152
s 1
f 155 439 441
s 1
f 156 441 442
s 1
f 156 440 154
s 1
f 158 443 157
s 1
f 159 443 445
s 1
f 158 446 444
s 1
f 161 445 447
s 1
f 160 448 446
s 1
f 163 447 449
s 1
f 162 450 448
s 1
f 165 449 451
s 1
f 164 452 450
s 1
f 167 451 453
s 1
f 166 454 452
s 1
f 169 453 455
s 1
f 168 456 454
s 1
f 171 455 457
s 1
f 170 458 456
s 1
f 173 457 459
s 1
f 172 460 458
s 1
f 175 459 461
s 1
f 174 462 460
s 1
f 177 461 463
s 1
f 176 464 462
s 1
f 179 463 465
s 1
f 180 464 178
s 1
f 181 465 467
s 1
f 182 467 468
s 1
f 182 466 180
s 1
f 184 469 183
s 1
f 185 469 471
s 1
f 184 472 470
s 1
f 187 471 473
s 1
f 186 474 472
s 1
f 189 473 475
s 1
f 188 476 474
s 1
f 191 475 477
s 1
f 190 478 476
s 1
f 193 477 479
s 1
f 192 480 478
s 1
f 195 479 481
s 1
f 194 482 480
s 1
f 197 481 483
s 1
f 196 484 482
s 1
f 199 483 485
s 1
f 198 486 484
s 1
f 201 485 487
s 1
f 200 488 486
s 1
f 203 487 489
s 1
f 204 488 202
s 1
f 205 489 491
s 1
f 206 490 204
s 1
f 207 491 493
s 1
f 208 493 494
s 1
f 208 492 206
s 1
f 210 495 209
s 1
f 211 495 497
s 1
f 210 498 496
s 1
f 213 497 499
s 1
f 212 500 498
s 1
f 215 499 501
s 1
f 214 502 500
s 1
f 217 501 503
s 1
f 216 504 502
s 1
f 219 503 505
s 1
f 218 506 504
s 1
f 221 505 507
s 1
f 220 508 506
s 1
f 223 507 509
s 1
f 222 510 508
s 1
f 225 509 511
s 1
f 224 512 510
s 1
f 227 511 513
s 1
f 226 514 512
s 1
f 229 513 515
s 1
f 230 514 228
s 1
f 231 515 517
s 1
f 232 516 230
s 1
f 233 517 519
s 1
f 234 519 520
s 1
f 234 518 232
s 1
f 236 521 235
s 1
f 237 521 523
s 1
f 236 524 522
s 1
f 239 523 525
s 1
f 238 526 524
s 1
f 241 525 527
s 1
f 240 528 526
s 1
f 243 527 529
s 1
f 242 530 528
s 1
f 245 529 531
s 1
f 244 532 530
s 1
f 247 531 533
s 1
f 246 534 532
s 1
f 249 533 535
s 1
f 248 536 534
s 1
f 251 535 537
s 1
f 250 538 536
s 1
f 253 537 539
s 1
f 252 540 538
s 1
f 255 539 541
s 1
f 254 542 540
s 1
f 257 541 543
s 1
f 258 542 256
s 1
f 259 543 545
s 1
f 260 545 546
s 1
f 260 544 258
s 1
f 262 547 261
s 1
f 263 547 549
s 1
f 262 550 548
s 1
f 265 549 551
s 1
f 264 552 550
s 1
f 267 551 553
s 1
f 266 554 552
s 1
f 269 553 555
s 1
f 268 556 554
s 1
f 271 555 557
s 1
f 270 558 556
s 1
f 273 557 559
s 1
f 272 560 558
s 1
f 275 559 561
s 1
f 274 562 560
s 1
f 277 561 563
s 1
f 276 564 562
s 1
f 279 563 565
s 1
f 278 566 564
s 1
f 281 565 567
s 1
f 280 568 566
s 1
f 283 567 569
s 1
f 284 568 282
s 1
f 285 569 571
s 1
f 286 571 572
s 1
f 286 570 284
s 1
f 3 4 2
s 1
f 5 6 4
s 1
f 7 8 6
s 1
f 9 10 8
s 1
f 11 12 10
s 1
f 13 14 12
s 1
f 15 16 14
s 1
f 17 18 16
s 1
f 19 20 18
s 1
f 21 22 20
s 1
f 23 24 22
s 1
f 23 25 26
s 1
f 29 30 28
s 1
f 31 32 30
s 1
f 33 34 32
s 1
f 35 36 34
s 1
f 37 38 36
s 1
f 39 40 38
s 1
f 41 42 40
s 1
f 43 44 42
s 1
f 45 46 44
s 1
f 47 48 46
s 1
f 49 50 48
s 1
f 49 51 52
s 1
f 55 56 54
s 1
f 57 58 56
s 1
f 59 60 58
s 1
f 61 62 60
s 1
f 63 64 62
s 1
f 65 66 64
s 1
f 67 68 66
s 1
f 69 70 68
s 1
f 71 72 70
s 1
f 73 74 72
s 1
f 75 76 74
s 1
f 75 77 78
s 1
f 81 82 80
s 1
f 83 84 82
s 1
f 85 86 84
s 1
f 87 88 86
s 1
f 89 90 88
s 1
f 91 92 90
s 1
f 93 94 92
s 1
f 95 96 94
s 1
f 97 98 96
s 1
f 99 100 98
s 1
f 101 102 100
s 1
f 101 103 104
s 1
f 107 108 106
s 1
f 109 110 108
s 1
f 111 112 110
s 1
f 113 114 112
s 1
f 115 116 114
s 1
f 117 118 116
s 1
f 119 120 118
s 1
f 121 122 120
s 1
f 123 124 122
s 1
f 125 126 124
s 1
f 127 128 126
s 1
f 127 129 130
s 1
f 133 134 132
s 1
f 135 136 134
s 1
f 137 138 136
s 1
f 139 140 138
s 1
f 141 142 140
s 1
f 143 144 142
s 1
f 145 146 144
s 1
f 147 148 146
s 1
f 149 150 148
s 1
f 151 152 150
s 1
f 153 154 152
s 1
f 153 155 156
s 1
f 159 160 158
s 1
f 161 162 160
s 1
f 163 164 162
s 1
f 165 166 164
s 1
f 167 168 166
s 1
f 169 170 168
s 1
f 171 172 170
s 1
f 173 174 172
s 1
f 175 176 174
s 1
f 177 178 176
s 1
f 179 180 178
s 1
f 179 181 182
s 1
f 185 186 184
s 1
f 187 188 186
s 1
f 189 190 188
s 1
f 191 192 190
s 1
f 193 194 192
s 1
f 195 196 194
s 1
f 197 198 196
s 1
f 199 200 198
s 1
f 201 202 200
s 1
f 203 204 202
s 1
f 205 206 204
s 1
f 205 207 208
s 1
f 211 212 210
s 1
f 213 214 212
s 1
f 215 216 214
s 1
f 217 218 216
s 1
f 219 220 218
s 1
f 221 222 220
s 1
f 223 224 222
s 1
f 225 226 224
s 1
f 227 228 226
s 1
f 229 230 228
s 1
f 231 232 230
s 1
f 231 233 234
s 1
f 237 238 236
s 1
f 239 240 238
s 1
f 241 242 240
s 1
f 243 244 242
s 1
f 245 246 244
s 1
f 247 248 246
s 1
f 249 250 248
s 1
f 251 252 250
s 1
f 253 254 252
s 1
f 255 256 254
s 1
f 257 258 256
s 1
f 257 259 260
s 1
f 263 264 262
s 1
f 265 266 264
s 1
f 267 268 266
s 1
f 269 270 268
s 1
f 271 272 270
s 1
f 273 274 272
s 1
f 275 276 274
s 1
f 277 278 276
s 1
f 279 280 278
s 1
f 281 282 280
s 1
f 283 284 282
s 1
f 283 285 286
s 1
f 288 290 289
s 1
f 290 292 291
s 1
f 292 294 293
s 1
f 294 296 295
s 1
f 296 298 297
s 1
f 298 300 299
s 1
f 300 302 301
s 1
f 302 304 303
s 1
f 304 306 305
s 1
f 306 308 307
s 1
f 308 310 309
s 1
f 309 310 312
s 1
f 314 316 315
s 1
f 316 318 317
s 1
f 318 320 319
s 1
f 320 322 321
s 1
f 322 324 323
s 1
f 324 326 325
s 1
f 326 328 327
s 1
f 328 330 329
s 1
f 330 332 331
s 1
f 332 334 333
s 1
f 334 336 335
s 1
f 335 336 338
s 1
f 340 342 341
s 1
f 342 344 343
s 1
f 344 346 345
s 1
f 346 348 347
s 1
f 348 350 349
s 1
f 350 352 351
s 1
f 352 354 353
s 1
f 354 356 355
s 1
f 356 358 357
s 1
f 358 360 359
s 1
f 360 362 361
s 1
f 361 362 364
s 1
f 366 368 367
s 1
f 368 370 369
s 1
f 370 372 371
s 1
f 372 374 373
s 1
f 374 376 375
s 1
f 376 378 377
s 1
f 378 380 379
s 1
f 380 382 381
s 1
f 382 384 383
s 1
f 384 386 385
s 1
f 386 388 387
s 1
f 387 388 390
s 1
f 392 394 393
s 1
f 394 396 395
s 1
f 396 398 397
s 1
f 398 400 399
s 1
f 400 402 401
s 1
f 402 404 403
s 1
f 404 406 405
s 1
f 406 408 407
s 1
f 408 410 409
s 1
f 410 412 411
s 1
f 412 414 413
s 1
f 413 414 416
s 1
f 418 420 419
s 1
f 420 422 421
s 1
f 422 424 423
s 1
f 424 426 425
s 1
f 426 428 427
s 1
f 428 430 429
s 1
f 430 432 431
s 1
f 432 434 433
s 1
f 434 436 435
s 1
f 436 438 437
s 1
f 438 440 439
s 1
f 439 440 442
s 1
f 444 446 445
s 1
f 446 448 447
s 1
f 448 450 449
s 1
f 450 452 451
s 1
f 452 454 453
s 1
f 454 456 455
s 1
f 456 458 457
s 1
f 458 460 459
s 1
f 460 462 461
s 1
f 462 464 463
s 1
f 464 466 465
s 1
f 465 466 468
s 1
f 470 472 471
s 1
f 472 474 473
s 1
f 474 476 475
s 1
f 476 478 477
s 1
f 478 480 479
s 1
f 480 482 481
s 1
f 482 484 483
s 1
f 484 486 485
s 1
f 486 488 487
s 1
f 488 490 489
s 1
f 490 492 491
s 1
f 491 492 494
s 1
f 496 498 497
s 1
f 498 500 499
s 1
f 500 502 501
s 1
f 502 504 503
s 1
f 504 506 505
s 1
f 506 508 507
s 1
f 508 510 509
s 1
f 510 512 511
s 1
f 512 514 513
s 1
f 514 516 515
s 1
f 516 518 517
s 1
f 517 518 520
s 1
f 522 524 523
s 1
f 524 526 525
s 1
f 526 528 527
s 1
f 528 530 529
s 1
f 530 532 531
s 1
f 532 534 533
s 1
f 534 536 535
s 1
f 536 538 537
s 1
f 538 540 539
s 1
f 540 542 541
s 1
f 542 544 543
s 1
f 543 544 546
s 1
f 548 550 549
s 1
f 550 552 551
s 1
f 552 554 553
s 1
f 554 556 555
s 1
f 556 558 557
s 1
f 558 560 559
s 1
f 560 562 561
s 1
f 562 564 563
s 1
f 564 566 565
s 1
f 566 568 567
s 1
f 568 570 569
s 1
f 569 570 572
s 1
f 2 288 287
s 1
f 3 1 287
s 1
f 2 4 290
s 1
f 5 3 289
s 1
f 4 6 292
s 1
f 7 5 291
s 1
f 6 8 294
s 1
f 9 7 293
s 1
f 8 10 296
s 1
f 11 9 295
s 1
f 10 12 298
s 1
f 13 11 297
s 1
f 12 14 300
s 1
f 15 13 299
s 1
f 14 16 302
s 1
f 17 15 301
s 1
f 16 18 304
s 1
f 19 17 303
s 1
f 18 20 306
s 1
f 21 19 305
s 1
f 22 308 306
s 1
f 23 21 307
s 1
f 24 310 308
s 1
f 25 23 309
s 1
f 26 25 311
s 1
f 26 312 310
s 1
f 28 314 313
s 1
f 29 27 313
s 1
f 28 30 316
s 1
f 31 29 315
s 1
f 30 32 318
s 1
f 33 31 317
s 1
f 32 34 320
s 1
f 35 33 319
s 1
f 34 36 322
s 1
f 37 35 321
s 1
f 36 38 324
s 1
f 39 37 323
s 1
f 38 40 326
s 1
f 41 39 325
s 1
f 40 42 328
s 1
f 43 41 327
s 1
f 42 44 330
s 1
f 45 43 329
s 1
f 44 46 332
s 1
f 47 45 331
s 1
f 48 334 332
s 1
f 49 47 333
s 1
f 50 336 334
s 1
f 51 49 335
s 1
f 52 51 337
s 1
f 52 338 336
s 1
f 54 340 339
s 1
f 55 53 339
s 1
f 54 56 342
s 1
f 57 55 341
s 1
f 56 58 344
s 1
f 59 57 343
s 1
f 58 60 346
s 1
f 61 59 345
s 1
f 60 62 348
s 1
f 63 61 347
s 1
f 62 64 350
s 1
f 65 63 349
s 1
f 64 66 352
s 1
f 67 65 351
s 1
f 66 68 354
s 1
f 69 67 353
s 1
f 68 70 356
s 1
f 71 69 355
s 1
f 70 72 358
s 1
f 73 71 357
s 1
f 72 74 360
s 1
f 75 73 359
s 1
f 76 362 360
s 1
f 77 75 361
s 1
f 78 77 363
s 1
f 78 364 362
s 1
f 80 366 365
s 1
f 81 79 365
s 1
f 80 82 368
s 1
f 83 81 367
s 1
f 82 84 370
s 1
f 85 83 369
s 1
f 84 86 372
s 1
f 87 85 371
s 1
f 86 88 374
s 1
f 89 87 373
s 1
f 88 90 376
s 1
f 91 89 375
s 1
f 90 92 378
s 1
f 93 91 377
s 1
f 92 94 380
s 1
f 95 93 379
s 1
f 94 96 382
s 1
f 97 95 381
s 1
f 96 98 384
s 1
f 99 97 383
s 1
f 100 386 384
s 1
f 101 99 385
s 1
f 102 388 386
s 1
f 103 101 387
s 1
f 104 103 389
s 1
f 104 390 388
s 1
f 106 392 391
s 1
f 107 105 391
s 1
f 106 108 394
s 1
f 109 107 393
s 1
f 108 110 396
s 1
f 111 109 395
s 1
f 110 112 398
s 1
f 113 111 397
s 1
f 112 114 400
s 1
f 115 113 399
s 1
f 114 116 402
s 1
f 117 115 401
s 1
f 116 118 404
s 1
f 119 117 403
s 1
f 118 120 406
s 1
f 121 119 405
s 1
f 120 122 408
s 1
f 123 121 407
s 1
f 122 124 410
s 1
f 125 123 409
s 1
f 126 412 410
s 1
f 127 125 411
s 1
f 128 414 412
s 1
f 129 127 413
s 1
f 130 129 415
s 1
f 130 416 414
s 1
f 132 418 417
s 1
f 133 131 417
s 1
f 132 134 420
s 1
f 135 133 419
s 1
f 134 136 422
s 1
f 137 135 421
s 1
f 136 138 424
s 1
f 139 137 423
s 1
f 138 140 426
s 1
f 141 139 425
s 1
f 140 142 428
s 1
f 143 141 427
s 1
f 142 144 430
s 1
f 145 143 429
s 1
f 144 146 432
s 1
f 147 145 431
s 1
f 146 148 434
s 1
f 149 147 433
s 1
f 148 150 436
s 1
f 151 149 435
s 1
f 150 152 438
s 1
f 153 151 437
s 1
f 154 440 438
s 1
f 155 153 439
s 1
f 156 155 441
s 1
f 156 442 440
s 1
f 158 444 443
s 1
f 159 157 443
s 1
f 158 160 446
s 1
f 161 159 445
s 1
f 160 162 448
s 1
f 163 161 447
s 1
f 162 164 450
s 1
f 165 163 449
s 1
f 164 166 452
s 1
f 167 165 451
s 1
f 166 168 454
s 1
f 169 167 453
s 1
f 168 170 456
s 1
f 171 169 455
s 1
f 170 172 458
s 1
f 173 171 457
s 1
f 172 174 460
s 1
f 175 173 459
s 1
f 174 176 462
s 1
f 177 175 461
s 1
f 176 178 464
s 1
f 179 177 463
s 1
f 180 466 464
s 1
f 181 179 465
s 1
f 182 181 467
s 1
f 182 468 466
s 1
f 184 470 469
s 1
f 185 183 469
s 1
f 184 186 472
s 1
f 187 185 471
s 1
f 186 188 474
s 1
f 189 187 473
s 1
f 188 190 476
s 1
f 191 189 475
s 1
f 190 192 478
s 1
f 193 191 477
s 1
f 192 194 480
s 1
f 195 193 479
s 1
f 194 196 482
s 1
f 197 195 481
s 1
f 196 198 484
s 1
f 199 197 483
s 1
f 198 200 486
s 1
f 201 199 485
s 1
f 200 202 488
s 1
f 203 201 487
s 1
f 204 490 488
s 1
f 205 203 489
s 1
f 206 492 490
s 1
f 207 205 491
s 1
f 208 207 493
s 1
f 208 494 492
s 1
f 210 496 495
s 1
f 211 209 495
s 1
f 210 212 498
s 1
f 213 211 497
s 1
f 212 214 500
s 1
f 215 213 499
s 1
f 214 216 502
s 1
f 217 215 501
s 1
f 216 218 504
s 1
f 219 217 503
s 1
f 218 220 506
s 1
f 221 219 505
s 1
f 220 222 508
s 1
f 223 221 507
s 1
f 222 224 510
s 1
f 225 223 509
s 1
f 224 226 512
s 1
f 227 225 511
s 1
f 226 228 514
s 1
f 229 227 513
s 1
f 230 516 514
s 1
f 231 229 515
s 1
f 232 518 516
s 1
f 233 231 517
s 1
f 234 233 519
s 1
f 234 520 518
s 1
f 236 522 521
s 1
f 237 235 521
s 1
f 236 238 524
s 1
f 239 237 523
s 1
f 238 240 526
s 1
f 241 239 525
s 1
f 240 242 528
s 1
f 243 241 527
s 1
f 242 244 530
s 1
f 245 243 529
s 1
f 244 246 532
s 1
f 247 245 531
s 1
f 246 248 534
s 1
f 249 247 533
s 1
f 248 250 536
s 1
f 251 249 535
s 1
f 250 252 538
s 1
f 253 251 537
s 1
f 252 254 540
s 1
f 255 253 539
s 1
f 254 256 542
s 1
f 257 255 541
s 1
f 258 544 542
s 1
f 259 257 543
s 1
f 260 259 545
s 1
f 260 546 544
s 1
f 262 548 547
s 1
f 263 261 547
s 1
f 262 264 550
s 1
f 265 263 549
s 1
f 264 266 552
s 1
f 267 265 551
s 1
f 266 268 554
s 1
f 269 267 553
s 1
f 268 270 556
s 1
f 271 269 555
s 1
f 270 272 558
s 1
f 273 271 557
s 1
f 272 274 560
s 1
f 275 273 559
s 1
f 274 276 562
s 1
f 277 275 561
s 1
f 276 278 564
s 1
f 279 277 563
s 1
f 278 280 566
s 1
f 281 279 565
s 1
f 280 282 568
s 1
f 283 281 567
s 1
f 284 570 568
s 1
f 285 283 569
s 1
f 286 285 571
s 1
f 286 572 570
