# eclipse_pocket Orbit1_Hot.obj: Roblox cue frame, recentred on its bounding box
v -1.30041 0.01491 -0.01034
v -1.31578 0.00753 -0.00456
v -1.31536 -0.00722 0.00575
v -1.29958 -0.01459 0.01028
v -1.28421 -0.00722 0.00450
v -1.28462 0.00753 -0.00581
v -1.29762 0.06368 0.05932
v -1.31297 0.05660 0.06551
v -1.31256 0.04184 0.07580
v -1.29680 0.03417 0.07992
v -1.28145 0.04126 0.07373
v -1.28187 0.05601 0.06343
v -1.28928 0.11226 0.12869
v -1.30453 0.10575 0.13570
v -1.30412 0.09097 0.14597
v -1.28847 0.08271 0.14924
v -1.27322 0.08922 0.14223
v -1.27363 0.10400 0.13196
v -1.27542 0.16041 0.19746
v -1.29050 0.15447 0.20529
v -1.29010 0.13969 0.21554
v -1.27461 0.13084 0.21798
v -1.25953 0.13678 0.21015
v -1.25993 0.15157 0.19990
v -1.25609 0.20795 0.26535
v -1.27095 0.20257 0.27397
v -1.27055 0.18777 0.28421
v -1.25530 0.17834 0.28582
v -1.24045 0.18372 0.27719
v -1.24084 0.19852 0.26696
v -1.23139 0.25466 0.33205
v -1.24595 0.24983 0.34147
v -1.24557 0.23501 0.35168
v -1.23062 0.22502 0.35248
v -1.21605 0.22985 0.34307
v -1.21644 0.24466 0.33285
v -1.20141 0.30034 0.39729
v -1.21562 0.29605 0.40748
v -1.21525 0.28122 0.41767
v -1.20066 0.27068 0.41768
v -1.18645 0.27496 0.40750
v -1.18683 0.28979 0.39730
v -1.16629 0.34479 0.46079
v -1.18009 0.34104 0.47172
v -1.17972 0.32619 0.48190
v -1.16556 0.31511 0.48113
v -1.15177 0.31886 0.47020
v -1.15213 0.33371 0.46002
v -1.12618 0.38784 0.52226
v -1.13950 0.38459 0.53392
v -1.13915 0.36974 0.54408
v -1.12548 0.35813 0.54257
v -1.11216 0.36137 0.53091
v -1.11251 0.37623 0.52075
v -1.08124 0.42929 0.58146
v -1.09403 0.42653 0.59382
v -1.09369 0.41166 0.60396
v -1.08057 0.39955 0.60173
v -1.06778 0.40231 0.58937
v -1.06812 0.41717 0.57923
v -1.03167 0.46896 0.63812
v -1.04388 0.46668 0.65115
v -1.04356 0.45179 0.66127
v -1.03103 0.43920 0.65836
v -1.01883 0.44148 0.64532
v -1.01915 0.45637 0.63520
v -0.97769 0.50669 0.69200
v -0.98926 0.50485 0.70567
v -0.98895 0.48996 0.71577
v -0.97708 0.47691 0.71221
v -0.96552 0.47874 0.69854
v -0.96582 0.49364 0.68843
v -0.91952 0.54232 0.74288
v -0.93040 0.54090 0.75715
v -0.93011 0.52599 0.76724
v -0.91895 0.51251 0.76305
v -0.90807 0.51392 0.74878
v -0.90836 0.52883 0.73869
v -0.85741 0.57568 0.79053
v -0.86755 0.57466 0.80536
v -0.86729 0.55975 0.81544
v -0.85688 0.54585 0.81067
v -0.84674 0.54687 0.79584
v -0.84700 0.56179 0.78577
v -0.79163 0.60664 0.83475
v -0.80099 0.60599 0.85010
v -0.80075 0.59107 0.86017
v -0.79114 0.57680 0.85487
v -0.78178 0.57745 0.83951
v -0.78202 0.59238 0.82945
v -0.72246 0.63507 0.87535
v -0.73101 0.63476 0.89119
v -0.73078 0.61983 0.90124
v -0.72201 0.60521 0.89545
v -0.71347 0.60553 0.87961
v -0.71369 0.62046 0.86956
v -0.65019 0.66085 0.91216
v -0.65789 0.66084 0.92843
v -0.65769 0.64590 0.93847
v -0.64980 0.63097 0.93224
v -0.64210 0.63098 0.91596
v -0.64230 0.64592 0.90592
v -0.57515 0.68386 0.94502
v -0.58195 0.68412 0.96168
v -0.58177 0.66917 0.97171
v -0.57479 0.65396 0.96507
v -0.56799 0.65370 0.94841
v -0.56817 0.66865 0.93838
v -0.49764 0.70400 0.97378
v -0.50352 0.70450 0.99079
v -0.50337 0.68955 1.00081
v -0.49733 0.67410 0.99383
v -0.49144 0.67360 0.97682
v -0.49160 0.68855 0.96680
v -0.41799 0.72119 0.99834
v -0.42294 0.72190 1.01563
v -0.42281 0.70694 1.02564
v -0.41774 0.69128 1.01837
v -0.41279 0.69057 1.00107
v -0.41292 0.70553 0.99106
v -0.33656 0.73536 1.01857
v -0.34054 0.73623 1.03610
v -0.34044 0.72127 1.04611
v -0.33636 0.70544 1.03859
v -0.33237 0.70457 1.02106
v -0.33248 0.71953 1.01105
v -0.25369 0.74644 1.03440
v -0.25669 0.74745 1.05212
v -0.25661 0.73249 1.06212
v -0.25354 0.71652 1.05441
v -0.25053 0.71551 1.03669
v -0.25061 0.73047 1.02668
v -0.16973 0.75439 1.04575
v -0.17174 0.75549 1.06361
v -0.17169 0.74053 1.07361
v -0.16963 0.72446 1.06576
v -0.16762 0.72336 1.04790
v -0.16767 0.73833 1.03790
v -0.08504 0.75918 1.05259
v -0.08605 0.76034 1.07052
v -0.08603 0.74537 1.08052
v -0.08499 0.72924 1.07259
v -0.08399 0.72809 1.05465
v -0.08401 0.74305 1.04465
v 0.00001 0.76077 1.05486
v 0.00001 0.76195 1.07283
v 0.00001 0.74699 1.08283
v 0.00001 0.73084 1.07487
v 0.00001 0.72966 1.05690
v 0.00001 0.74463 1.04690
v 0.08505 0.75918 1.05258
v 0.08606 0.76034 1.07052
v 0.08604 0.74537 1.08052
v 0.08500 0.72925 1.07259
v 0.08400 0.72809 1.05465
v 0.08402 0.74305 1.04465
v 0.16974 0.75439 1.04575
v 0.17175 0.75550 1.06360
v 0.17170 0.74053 1.07361
v 0.16964 0.72447 1.06576
v 0.16763 0.72336 1.04791
v 0.16768 0.73832 1.03790
v 0.25370 0.74644 1.03439
v 0.25670 0.74745 1.05211
v 0.25663 0.73249 1.06212
v 0.25355 0.71652 1.05441
v 0.25054 0.71551 1.03669
v 0.25062 0.73047 1.02668
v 0.33657 0.73536 1.01857
v 0.34055 0.73624 1.03610
v 0.34045 0.72128 1.04611
v 0.33637 0.70544 1.03859
v 0.33239 0.70456 1.02106
v 0.33249 0.71952 1.01105
v 0.41800 0.72119 0.99833
v 0.42295 0.72190 1.01562
v 0.42282 0.70695 1.02564
v 0.41775 0.69128 1.01837
v 0.41280 0.69057 1.00108
v 0.41293 0.70552 0.99106
v 0.49764 0.70399 0.97378
v 0.50353 0.70451 0.99078
v 0.50338 0.68956 1.00081
v 0.49735 0.67410 0.99383
v 0.49146 0.67359 0.97683
v 0.49160 0.68854 0.96680
v 0.57515 0.68385 0.94501
v 0.58196 0.68412 0.96167
v 0.58179 0.66918 0.97171
v 0.57481 0.65397 0.96508
v 0.56800 0.65370 0.94842
v 0.56817 0.66864 0.93838
v 0.65020 0.66084 0.91215
v 0.65789 0.66084 0.92842
v 0.65770 0.64591 0.93847
v 0.64981 0.63098 0.93224
v 0.64212 0.63097 0.91597
v 0.64231 0.64591 0.90592
v 0.72246 0.63507 0.87534
v 0.73101 0.63477 0.89117
v 0.73080 0.61984 0.90123
v 0.72203 0.60522 0.89546
v 0.71348 0.60552 0.87962
v 0.71369 0.62045 0.86956
v 0.79163 0.60664 0.83474
v 0.80100 0.60600 0.85009
v 0.80077 0.59108 0.86016
v 0.79116 0.57681 0.85488
v 0.78179 0.57744 0.83953
v 0.78202 0.59236 0.82945
v 0.85741 0.57567 0.79051
v 0.86756 0.57467 0.80535
v 0.86730 0.55976 0.81543
v 0.85690 0.54586 0.81069
v 0.84675 0.54686 0.79585
v 0.84701 0.56177 0.78577
v 0.91951 0.54231 0.74286
v 0.93040 0.54091 0.75713
v 0.93013 0.52601 0.76723
v 0.91897 0.51252 0.76306
v 0.90809 0.51391 0.74880
v 0.90836 0.52881 0.73870
v 0.97768 0.50668 0.69199
v 0.98926 0.50487 0.70565
v 0.98897 0.48998 0.71577
v 0.97711 0.47691 0.71222
v 0.96554 0.47873 0.69855
v 0.96582 0.49362 0.68844
v 1.03167 0.46896 0.63810
v 1.04388 0.46669 0.65113
v 1.04358 0.45182 0.66126
v 1.03106 0.43921 0.65837
v 1.01885 0.44147 0.64534
v 1.01915 0.45635 0.63521
v 1.08123 0.42928 0.58144
v 1.09403 0.42655 0.59380
v 1.09372 0.41168 0.60395
v 1.08060 0.39956 0.60174
v 1.06780 0.40229 0.58939
v 1.06812 0.41715 0.57924
v 1.12617 0.38783 0.52225
v 1.13950 0.38461 0.53390
v 1.13917 0.36976 0.54407
v 1.12551 0.35813 0.54258
v 1.11218 0.36136 0.53093
v 1.11251 0.37621 0.52076
v 1.16628 0.34479 0.46078
v 1.18009 0.34105 0.47170
v 1.17975 0.32622 0.48189
v 1.16560 0.31511 0.48115
v 1.15179 0.31885 0.47022
v 1.15213 0.33368 0.46003
v 1.20140 0.30033 0.39728
v 1.21562 0.29607 0.40746
v 1.21527 0.28125 0.41766
v 1.20070 0.27068 0.41769
v 1.18648 0.27494 0.40752
v 1.18682 0.28976 0.39731
v 1.23137 0.25465 0.33205
v 1.24595 0.24985 0.34145
v 1.24559 0.23504 0.35167
v 1.23066 0.22503 0.35249
v 1.21608 0.22983 0.34309
v 1.21643 0.24464 0.33287
v 1.25607 0.20794 0.26534
v 1.27094 0.20259 0.27395
v 1.27058 0.18779 0.28420
v 1.25535 0.17835 0.28583
v 1.24047 0.18370 0.27721
v 1.24084 0.19850 0.26697
v 1.27539 0.16041 0.19746
v 1.29050 0.15450 0.20526
v 1.29013 0.13971 0.21553
v 1.27466 0.13084 0.21798
v 1.25956 0.13676 0.21017
v 1.25992 0.15154 0.19991
v 1.28925 0.11225 0.12868
v 1.30452 0.10577 0.13568
v 1.30415 0.09100 0.14596
v 1.28851 0.08272 0.14925
v 1.27325 0.08920 0.14225
v 1.27362 0.10397 0.13197
v 1.29759 0.06368 0.05931
v 1.31296 0.05662 0.06548
v 1.31259 0.04187 0.07579
v 1.29685 0.03417 0.07992
v 1.28148 0.04123 0.07375
v 1.28186 0.05598 0.06344
v 1.30038 0.01490 -0.01035
v 1.31578 0.00726 -0.00501
v 1.31540 -0.00748 0.00531
v 1.29963 -0.01458 0.01029
v 1.28423 -0.00695 0.00494
v 1.28461 0.00779 -0.00538
v 1.29759 -0.03388 -0.08002
v 1.31296 -0.04209 -0.07550
v 1.31259 -0.05682 -0.06516
v 1.29685 -0.06334 -0.05934
v 1.28148 -0.05513 -0.06386
v 1.28186 -0.04040 -0.07420
v 1.28925 -0.08245 -0.14939
v 1.30452 -0.09124 -0.14569
v 1.30415 -0.10596 -0.13533
v 1.28852 -0.11188 -0.12867
v 1.27325 -0.10310 -0.13237
v 1.27362 -0.08838 -0.14273
v 1.27539 -0.13061 -0.21816
v 1.29049 -0.13997 -0.21528
v 1.29013 -0.15467 -0.20490
v 1.27466 -0.16001 -0.19740
v 1.25956 -0.15065 -0.20029
v 1.25992 -0.13595 -0.21067
v 1.25607 -0.17814 -0.28605
v 1.27094 -0.18806 -0.28397
v 1.27058 -0.20275 -0.27357
v 1.25535 -0.20752 -0.26525
v 1.24048 -0.19760 -0.26733
v 1.24083 -0.18291 -0.27773
v 1.23136 -0.22485 -0.35275
v 1.24595 -0.23532 -0.35146
v 1.24560 -0.24999 -0.34104
v 1.23067 -0.25420 -0.33191
v 1.21608 -0.24372 -0.33320
v 1.21643 -0.22905 -0.34362
v 1.20139 -0.27053 -0.41799
v 1.21562 -0.28154 -0.41747
v 1.21528 -0.29620 -0.40703
v 1.20071 -0.29985 -0.39711
v 1.18648 -0.28884 -0.39763
v 1.18682 -0.27418 -0.40807
v 1.16627 -0.31499 -0.48148
v 1.18008 -0.32652 -0.48172
v 1.17975 -0.34117 -0.47126
v 1.16561 -0.34428 -0.46057
v 1.15180 -0.33274 -0.46033
v 1.15213 -0.31810 -0.47079
v 1.12616 -0.35803 -0.54295
v 1.13949 -0.37008 -0.54392
v 1.13918 -0.38471 -0.53345
v 1.12552 -0.38730 -0.52201
v 1.11218 -0.37526 -0.52104
v 1.11250 -0.36062 -0.53152
v 1.08122 -0.39948 -0.60215
v 1.09403 -0.41202 -0.60381
v 1.09372 -0.42664 -0.59332
v 1.08061 -0.42873 -0.58117
v 1.06781 -0.41619 -0.57950
v 1.06811 -0.40156 -0.58999
v 1.03165 -0.43915 -0.65880
v 1.04387 -0.45216 -0.66114
v 1.04358 -0.46677 -0.65064
v 1.03108 -0.46838 -0.63780
v 1.01886 -0.45537 -0.63546
v 1.01914 -0.44076 -0.64596
v 0.97767 -0.47688 -0.71269
v 0.98925 -0.49033 -0.71566
v 0.98898 -0.50494 -0.70515
v 0.97712 -0.50609 -0.69165
v 0.96554 -0.49263 -0.68867
v 0.96582 -0.47803 -0.69919
v 0.91950 -0.51250 -0.76356
v 0.93039 -0.52638 -0.76714
v 0.93014 -0.54097 -0.75661
v 0.91899 -0.54169 -0.74250
v 0.90810 -0.52781 -0.73892
v 0.90835 -0.51322 -0.74945
v 0.85739 -0.54587 -0.81121
v 0.86755 -0.56014 -0.81536
v 0.86731 -0.57472 -0.80481
v 0.85692 -0.57504 -0.79012
v 0.84676 -0.56077 -0.78597
v 0.84700 -0.54618 -0.79652
v 0.79162 -0.57683 -0.85543
v 0.80099 -0.59147 -0.86010
v 0.80077 -0.60604 -0.84954
v 0.79118 -0.60598 -0.83431
v 0.78180 -0.59135 -0.82964
v 0.78202 -0.57677 -0.84020
v 0.72245 -0.60526 -0.89603
v 0.73101 -0.62023 -0.90118
v 0.73081 -0.63480 -0.89061
v 0.72205 -0.63440 -0.87489
v 0.71349 -0.61942 -0.86974
v 0.71369 -0.60485 -0.88031
v 0.65019 -0.63103 -0.93284
v 0.65789 -0.64631 -0.93843
v 0.65771 -0.66087 -0.92785
v 0.64983 -0.66016 -0.91168
v 0.64212 -0.64488 -0.90609
v 0.64230 -0.63031 -0.91667
v 0.57514 -0.65404 -0.96570
v 0.58195 -0.66959 -0.97167
v 0.58179 -0.68415 -0.96109
v 0.57482 -0.68315 -0.94452
v 0.56801 -0.66760 -0.93854
v 0.56817 -0.65304 -0.94913
v 0.49763 -0.67418 -0.99446
v 0.50353 -0.68997 -1.00078
v 0.50339 -0.70452 -0.99019
v 0.49736 -0.70328 -0.97328
v 0.49146 -0.68749 -0.96696
v 0.49160 -0.67294 -0.97755
v 0.41799 -0.69137 -1.01902
v 0.42294 -0.70736 -1.02563
v 0.42283 -0.72191 -1.01503
v 0.41776 -0.72047 -0.99782
v 0.41281 -0.70447 -0.99120
v 0.41292 -0.68993 -1.00180
v 0.33656 -0.70554 -1.03925
v 0.34055 -0.72170 -1.04610
v 0.34046 -0.73624 -1.03550
v 0.33638 -0.73463 -1.01804
v 0.33239 -0.71847 -1.01119
v 0.33248 -0.70392 -1.02179
v 0.25369 -0.71662 -1.05508
v 0.25670 -0.73291 -1.06212
v 0.25663 -0.74746 -1.05151
v 0.25355 -0.74571 -1.03386
v 0.25055 -0.72941 -1.02682
v 0.25062 -0.71487 -1.03743
v 0.16974 -0.72457 -1.06643
v 0.17175 -0.74096 -1.07361
v 0.17170 -0.75550 -1.06299
v 0.16964 -0.75365 -1.04521
v 0.16763 -0.73727 -1.03803
v 0.16768 -0.72273 -1.04864
v 0.08505 -0.72936 -1.07326
v 0.08606 -0.74580 -1.08052
v 0.08604 -0.76034 -1.06991
v 0.08501 -0.75843 -1.05204
v 0.08400 -0.74199 -1.04478
v 0.08402 -0.72745 -1.05539
v 0.00001 -0.73095 -1.07554
v 0.00001 -0.74741 -1.08283
v 0.00001 -0.76195 -1.07221
v 0.00001 -0.76003 -1.05432
v 0.00001 -0.74357 -1.04703
v 0.00001 -0.72903 -1.05764
v -0.08504 -0.72936 -1.07326
v -0.08605 -0.74580 -1.08052
v -0.08603 -0.76034 -1.06991
v -0.08500 -0.75843 -1.05204
v -0.08399 -0.74199 -1.04478
v -0.08401 -0.72745 -1.05539
v -0.16972 -0.72457 -1.06643
v -0.17174 -0.74095 -1.07361
v -0.17169 -0.75550 -1.06300
v -0.16963 -0.75365 -1.04521
v -0.16762 -0.73727 -1.03803
v -0.16767 -0.72273 -1.04864
v -0.25368 -0.71662 -1.05507
v -0.25669 -0.73291 -1.06212
v -0.25662 -0.74745 -1.05151
v -0.25354 -0.74571 -1.03386
v -0.25054 -0.72942 -1.02682
v -0.25061 -0.71487 -1.03742
v -0.33655 -0.70554 -1.03924
v -0.34054 -0.72169 -1.04610
v -0.34045 -0.73624 -1.03550
v -0.33637 -0.73463 -1.01804
v -0.33238 -0.71847 -1.01119
v -0.33247 -0.70393 -1.02179
v -0.41798 -0.69137 -1.01901
v -0.42293 -0.70736 -1.02563
v -0.42282 -0.72191 -1.01503
v -0.41775 -0.72047 -0.99782
v -0.41280 -0.70448 -0.99120
v -0.41291 -0.68993 -1.00180
v -0.49762 -0.67418 -0.99446
v -0.50351 -0.68996 -1.00078
v -0.50338 -0.70452 -0.99020
v -0.49735 -0.70329 -0.97328
v -0.49145 -0.68750 -0.96695
v -0.49159 -0.67295 -0.97754
v -0.57512 -0.65403 -0.96569
v -0.58194 -0.66958 -0.97168
v -0.58179 -0.68414 -0.96110
v -0.57482 -0.68316 -0.94453
v -0.56800 -0.66761 -0.93854
v -0.56815 -0.65305 -0.94912
v -0.65017 -0.63102 -0.93283
v -0.65787 -0.64630 -0.93843
v -0.65770 -0.66087 -0.92786
v -0.64982 -0.66016 -0.91169
v -0.64211 -0.64489 -0.90609
v -0.64229 -0.63032 -0.91666
v -0.72243 -0.60525 -0.89602
v -0.73099 -0.62022 -0.90118
v -0.73080 -0.63479 -0.89063
v -0.72204 -0.63440 -0.87490
v -0.71348 -0.61944 -0.86974
v -0.71367 -0.60486 -0.88030
v -0.79160 -0.57682 -0.85542
v -0.80098 -0.59145 -0.86010
v -0.80077 -0.60604 -0.84955
v -0.79117 -0.60599 -0.83432
v -0.78179 -0.59136 -0.82964
v -0.78200 -0.57678 -0.84019
v -0.85737 -0.54586 -0.81120
v -0.86753 -0.56012 -0.81536
v -0.86731 -0.57471 -0.80482
v -0.85692 -0.57504 -0.79013
v -0.84675 -0.56078 -0.78597
v -0.84698 -0.54619 -0.79651
v -0.91948 -0.51249 -0.76355
v -0.93038 -0.52636 -0.76715
v -0.93013 -0.54096 -0.75662
v -0.91899 -0.54170 -0.74251
v -0.90809 -0.52783 -0.73891
v -0.90833 -0.51323 -0.74943
v -0.97765 -0.47687 -0.71268
v -0.98923 -0.49032 -0.71567
v -0.98897 -0.50493 -0.70516
v -0.97713 -0.50609 -0.69166
v -0.96554 -0.49265 -0.68867
v -0.96580 -0.47804 -0.69918
v -1.03163 -0.43914 -0.65879
v -1.04386 -0.45214 -0.66115
v -1.04358 -0.46676 -0.65066
v -1.03108 -0.46839 -0.63781
v -1.01885 -0.45539 -0.63545
v -1.01913 -0.44077 -0.64595
v -1.08119 -0.39947 -0.60214
v -1.09401 -0.41200 -0.60382
v -1.09372 -0.42663 -0.59334
v -1.08062 -0.42874 -0.58118
v -1.06780 -0.41621 -0.57950
v -1.06809 -0.40158 -0.58997
v -1.12612 -0.35802 -0.54294
v -1.13947 -0.37006 -0.54393
v -1.13918 -0.38470 -0.53346
v -1.12553 -0.38731 -0.52202
v -1.11218 -0.37528 -0.52104
v -1.11248 -0.36063 -0.53150
v -1.16624 -0.31498 -0.48147
v -1.18006 -0.32650 -0.48172
v -1.17975 -0.34116 -0.47128
v -1.16562 -0.34429 -0.46058
v -1.15180 -0.33277 -0.46032
v -1.15210 -0.31811 -0.47077
v -1.20135 -0.27052 -0.41798
v -1.21559 -0.28152 -0.41748
v -1.21528 -0.29619 -0.40705
v -1.20072 -0.29986 -0.39712
v -1.18648 -0.28886 -0.39762
v -1.18680 -0.27419 -0.40805
v -1.23133 -0.22484 -0.35274
v -1.24592 -0.23530 -0.35147
v -1.24560 -0.24998 -0.34106
v -1.23068 -0.25420 -0.33192
v -1.21608 -0.24375 -0.33319
v -1.21641 -0.22907 -0.34360
v -1.25603 -0.17814 -0.28604
v -1.27092 -0.18804 -0.28398
v -1.27059 -0.20273 -0.27359
v -1.25537 -0.20752 -0.26525
v -1.24048 -0.19762 -0.26731
v -1.24081 -0.18293 -0.27771
v -1.27535 -0.13061 -0.21816
v -1.29047 -0.13994 -0.21529
v -1.29014 -0.15465 -0.20492
v -1.27468 -0.16002 -0.19741
v -1.25956 -0.15068 -0.20027
v -1.25990 -0.13597 -0.21065
v -1.28921 -0.08245 -0.14939
v -1.30449 -0.09122 -0.14571
v -1.30416 -0.10593 -0.13535
v -1.28854 -0.11189 -0.12867
v -1.27325 -0.10312 -0.13235
v -1.27359 -0.08840 -0.14271
v -1.29755 -0.03388 -0.08002
v -1.31293 -0.04207 -0.07552
v -1.31260 -0.05680 -0.06518
v -1.29688 -0.06334 -0.05934
v -1.28149 -0.05515 -0.06384
v -1.28183 -0.04042 -0.07418
v -1.30033 0.01489 -0.01036
v -1.31574 0.00699 -0.00545
v -1.31540 -0.00774 0.00488
v -1.29966 -0.01458 0.01030
v -1.28425 -0.00668 0.00538
v -1.28459 0.00806 -0.00495
s 1
f 2 7 1
s 1
f 2 9 8
s 1
f 3 10 9
s 1
f 4 11 10
s 1
f 6 11 5
s 1
f 1 12 6
s 1
f 7 14 13
s 1
f 8 15 14
s 1
f 9 16 15
s 1
f 10 17 16
s 1
f 11 18 17
s 1
f 12 13 18
s 1
f 13 20 19
s 1
f 14 21 20
s 1
f 15 22 21
s 1
f 16 23 22
s 1
f 17 24 23
s 1
f 18 19 24
s 1
f 19 26 25
s 1
f 20 27 26
s 1
f 21 28 27
s 1
f 22 29 28
s 1
f 23 30 29
s 1
f 24 25 30
s 1
f 25 32 31
s 1
f 26 33 32
s 1
f 27 34 33
s 1
f 28 35 34
s 1
f 29 36 35
s 1
f 30 31 36
s 1
f 31 38 37
s 1
f 32 39 38
s 1
f 33 40 39
s 1
f 34 41 40
s 1
f 35 42 41
s 1
f 36 37 42
s 1
f 37 44 43
s 1
f 38 45 44
s 1
f 39 46 45
s 1
f 40 47 46
s 1
f 41 48 47
s 1
f 42 43 48
s 1
f 43 50 49
s 1
f 44 51 50
s 1
f 45 52 51
s 1
f 46 53 52
s 1
f 47 54 53
s 1
f 48 49 54
s 1
f 49 56 55
s 1
f 50 57 56
s 1
f 51 58 57
s 1
f 52 59 58
s 1
f 53 60 59
s 1
f 54 55 60
s 1
f 55 62 61
s 1
f 56 63 62
s 1
f 57 64 63
s 1
f 58 65 64
s 1
f 59 66 65
s 1
f 60 61 66
s 1
f 61 68 67
s 1
f 62 69 68
s 1
f 63 70 69
s 1
f 64 71 70
s 1
f 65 72 71
s 1
f 66 67 72
s 1
f 67 74 73
s 1
f 68 75 74
s 1
f 69 76 75
s 1
f 70 77 76
s 1
f 71 78 77
s 1
f 72 73 78
s 1
f 73 80 79
s 1
f 74 81 80
s 1
f 75 82 81
s 1
f 76 83 82
s 1
f 77 84 83
s 1
f 78 79 84
s 1
f 79 86 85
s 1
f 80 87 86
s 1
f 81 88 87
s 1
f 82 89 88
s 1
f 83 90 89
s 1
f 84 85 90
s 1
f 85 92 91
s 1
f 86 93 92
s 1
f 87 94 93
s 1
f 88 95 94
s 1
f 89 96 95
s 1
f 90 91 96
s 1
f 91 98 97
s 1
f 92 99 98
s 1
f 93 100 99
s 1
f 94 101 100
s 1
f 95 102 101
s 1
f 96 97 102
s 1
f 97 104 103
s 1
f 98 105 104
s 1
f 99 106 105
s 1
f 100 107 106
s 1
f 101 108 107
s 1
f 102 103 108
s 1
f 103 110 109
s 1
f 104 111 110
s 1
f 105 112 111
s 1
f 106 113 112
s 1
f 107 114 113
s 1
f 108 109 114
s 1
f 109 116 115
s 1
f 110 117 116
s 1
f 111 118 117
s 1
f 112 119 118
s 1
f 113 120 119
s 1
f 114 115 120
s 1
f 115 122 121
s 1
f 116 123 122
s 1
f 117 124 123
s 1
f 118 125 124
s 1
f 119 126 125
s 1
f 120 121 126
s 1
f 121 128 127
s 1
f 122 129 128
s 1
f 123 130 129
s 1
f 124 131 130
s 1
f 125 132 131
s 1
f 126 127 132
s 1
f 127 134 133
s 1
f 128 135 134
s 1
f 129 136 135
s 1
f 130 137 136
s 1
f 131 138 137
s 1
f 132 133 138
s 1
f 133 140 139
s 1
f 134 141 140
s 1
f 135 142 141
s 1
f 136 143 142
s 1
f 137 144 143
s 1
f 138 139 144
s 1
f 139 146 145
s 1
f 140 147 146
s 1
f 141 148 147
s 1
f 142 149 148
s 1
f 143 150 149
s 1
f 144 145 150
s 1
f 145 152 151
s 1
f 146 153 152
s 1
f 147 154 153
s 1
f 148 155 154
s 1
f 149 156 155
s 1
f 150 151 156
s 1
f 151 158 157
s 1
f 152 159 158
s 1
f 153 160 159
s 1
f 154 161 160
s 1
f 155 162 161
s 1
f 156 157 162
s 1
f 157 164 163
s 1
f 158 165 164
s 1
f 159 166 165
s 1
f 160 167 166
s 1
f 161 168 167
s 1
f 162 163 168
s 1
f 163 170 169
s 1
f 164 171 170
s 1
f 165 172 171
s 1
f 166 173 172
s 1
f 167 174 173
s 1
f 168 169 174
s 1
f 169 176 175
s 1
f 170 177 176
s 1
f 171 178 177
s 1
f 172 179 178
s 1
f 173 180 179
s 1
f 174 175 180
s 1
f 175 182 181
s 1
f 176 183 182
s 1
f 177 184 183
s 1
f 178 185 184
s 1
f 179 186 185
s 1
f 180 181 186
s 1
f 181 188 187
s 1
f 182 189 188
s 1
f 183 190 189
s 1
f 184 191 190
s 1
f 185 192 191
s 1
f 186 187 192
s 1
f 187 194 193
s 1
f 188 195 194
s 1
f 189 196 195
s 1
f 190 197 196
s 1
f 191 198 197
s 1
f 192 193 198
s 1
f 193 200 199
s 1
f 194 201 200
s 1
f 195 202 201
s 1
f 196 203 202
s 1
f 197 204 203
s 1
f 198 199 204
s 1
f 199 206 205
s 1
f 200 207 206
s 1
f 202 207 201
s 1
f 202 209 208
s 1
f 203 210 209
s 1
f 204 205 210
s 1
f 205 212 211
s 1
f 206 213 212
s 1
f 207 214 213
s 1
f 208 215 214
s 1
f 209 216 215
s 1
f 210 211 216
s 1
f 211 218 217
s 1
f 212 219 218
s 1
f 213 220 219
s 1
f 214 221 220
s 1
f 215 222 221
s 1
f 216 217 222
s 1
f 217 224 223
s 1
f 218 225 224
s 1
f 219 226 225
s 1
f 220 227 226
s 1
f 221 228 227
s 1
f 222 223 228
s 1
f 223 230 229
s 1
f 224 231 230
s 1
f 225 232 231
s 1
f 226 233 232
s 1
f 227 234 233
s 1
f 228 229 234
s 1
f 229 236 235
s 1
f 230 237 236
s 1
f 231 238 237
s 1
f 232 239 238
s 1
f 233 240 239
s 1
f 234 235 240
s 1
f 235 242 241
s 1
f 236 243 242
s 1
f 237 244 243
s 1
f 238 245 244
s 1
f 239 246 245
s 1
f 240 241 246
s 1
f 241 248 247
s 1
f 242 249 248
s 1
f 243 250 249
s 1
f 244 251 250
s 1
f 245 252 251
s 1
f 246 247 252
s 1
f 247 254 253
s 1
f 248 255 254
s 1
f 249 256 255
s 1
f 250 257 256
s 1
f 251 258 257
s 1
f 252 253 258
s 1
f 253 260 259
s 1
f 254 261 260
s 1
f 255 262 261
s 1
f 256 263 262
s 1
f 257 264 263
s 1
f 258 259 264
s 1
f 259 266 265
s 1
f 260 267 266
s 1
f 261 268 267
s 1
f 262 269 268
s 1
f 263 270 269
s 1
f 264 265 270
s 1
f 265 272 271
s 1
f 266 273 272
s 1
f 267 274 273
s 1
f 268 275 274
s 1
f 269 276 275
s 1
f 270 271 276
s 1
f 271 278 277
s 1
f 272 279 278
s 1
f 273 280 279
s 1
f 274 281 280
s 1
f 275 282 281
s 1
f 276 277 282
s 1
f 277 284 283
s 1
f 278 285 284
s 1
f 279 286 285
s 1
f 280 287 286
s 1
f 281 288 287
s 1
f 282 283 288
s 1
f 283 290 289
s 1
f 284 291 290
s 1
f 285 292 291
s 1
f 286 293 292
s 1
f 287 294 293
s 1
f 288 289 294
s 1
f 289 296 295
s 1
f 290 297 296
s 1
f 291 298 297
s 1
f 292 299 298
s 1
f 293 300 299
s 1
f 294 295 300
s 1
f 295 302 301
s 1
f 296 303 302
s 1
f 297 304 303
s 1
f 298 305 304
s 1
f 299 306 305
s 1
f 300 301 306
s 1
f 301 308 307
s 1
f 302 309 308
s 1
f 303 310 309
s 1
f 304 311 310
s 1
f 305 312 311
s 1
f 306 307 312
s 1
f 307 314 313
s 1
f 308 315 314
s 1
f 309 316 315
s 1
f 310 317 316
s 1
f 311 318 317
s 1
f 312 313 318
s 1
f 313 320 319
s 1
f 314 321 320
s 1
f 315 322 321
s 1
f 316 323 322
s 1
f 317 324 323
s 1
f 318 319 324
s 1
f 319 326 325
s 1
f 320 327 326
s 1
f 321 328 327
s 1
f 322 329 328
s 1
f 323 330 329
s 1
f 324 325 330
s 1
f 325 332 331
s 1
f 326 333 332
s 1
f 327 334 333
s 1
f 328 335 334
s 1
f 329 336 335
s 1
f 330 331 336
s 1
f 331 338 337
s 1
f 332 339 338
s 1
f 333 340 339
s 1
f 334 341 340
s 1
f 335 342 341
s 1
f 336 337 342
s 1
f 337 344 343
s 1
f 338 345 344
s 1
f 339 346 345
s 1
f 340 347 346
s 1
f 341 348 347
s 1
f 342 343 348
s 1
f 343 350 349
s 1
f 344 351 350
s 1
f 345 352 351
s 1
f 346 353 352
s 1
f 347 354 353
s 1
f 348 349 354
s 1
f 349 356 355
s 1
f 350 357 356
s 1
f 351 358 357
s 1
f 352 359 358
s 1
f 353 360 359
s 1
f 354 355 360
s 1
f 355 362 361
s 1
f 356 363 362
s 1
f 357 364 363
s 1
f 358 365 364
s 1
f 359 366 365
s 1
f 360 361 366
s 1
f 361 368 367
s 1
f 362 369 368
s 1
f 363 370 369
s 1
f 364 371 370
s 1
f 365 372 371
s 1
f 366 367 372
s 1
f 367 374 373
s 1
f 368 375 374
s 1
f 369 376 375
s 1
f 370 377 376
s 1
f 371 378 377
s 1
f 372 373 378
s 1
f 373 380 379
s 1
f 374 381 380
s 1
f 375 382 381
s 1
f 376 383 382
s 1
f 377 384 383
s 1
f 378 379 384
s 1
f 379 386 385
s 1
f 380 387 386
s 1
f 381 388 387
s 1
f 382 389 388
s 1
f 383 390 389
s 1
f 384 385 390
s 1
f 385 392 391
s 1
f 386 393 392
s 1
f 387 394 393
s 1
f 388 395 394
s 1
f 389 396 395
s 1
f 390 391 396
s 1
f 391 398 397
s 1
f 392 399 398
s 1
f 393 400 399
s 1
f 394 401 400
s 1
f 395 402 401
s 1
f 396 397 402
s 1
f 397 404 403
s 1
f 398 405 404
s 1
f 399 406 405
s 1
f 400 407 406
s 1
f 401 408 407
s 1
f 402 403 408
s 1
f 403 410 409
s 1
f 404 411 410
s 1
f 405 412 411
s 1
f 406 413 412
s 1
f 407 414 413
s 1
f 408 409 414
s 1
f 409 416 415
s 1
f 410 417 416
s 1
f 411 418 417
s 1
f 412 419 418
s 1
f 413 420 419
s 1
f 414 415 420
s 1
f 415 422 421
s 1
f 416 423 422
s 1
f 417 424 423
s 1
f 418 425 424
s 1
f 419 426 425
s 1
f 420 421 426
s 1
f 421 428 427
s 1
f 422 429 428
s 1
f 423 430 429
s 1
f 424 431 430
s 1
f 425 432 431
s 1
f 426 427 432
s 1
f 427 434 433
s 1
f 428 435 434
s 1
f 429 436 435
s 1
f 430 437 436
s 1
f 431 438 437
s 1
f 432 433 438
s 1
f 433 440 439
s 1
f 434 441 440
s 1
f 435 442 441
s 1
f 436 443 442
s 1
f 437 444 443
s 1
f 438 439 444
s 1
f 439 446 445
s 1
f 440 447 446
s 1
f 441 448 447
s 1
f 442 449 448
s 1
f 443 450 449
s 1
f 444 445 450
s 1
f 445 452 451
s 1
f 446 453 452
s 1
f 447 454 453
s 1
f 448 455 454
s 1
f 449 456 455
s 1
f 450 451 456
s 1
f 451 458 457
s 1
f 452 459 458
s 1
f 453 460 459
s 1
f 454 461 460
s 1
f 455 462 461
s 1
f 456 457 462
s 1
f 457 464 463
s 1
f 458 465 464
s 1
f 459 466 465
s 1
f 460 467 466
s 1
f 461 468 467
s 1
f 462 463 468
s 1
f 463 470 469
s 1
f 464 471 470
s 1
f 465 472 471
s 1
f 466 473 472
s 1
f 467 474 473
s 1
f 468 469 474
s 1
f 469 476 475
s 1
f 470 477 476
s 1
f 471 478 477
s 1
f 472 479 478
s 1
f 473 480 479
s 1
f 474 475 480
s 1
f 475 482 481
s 1
f 476 483 482
s 1
f 477 484 483
s 1
f 478 485 484
s 1
f 479 486 485
s 1
f 480 481 486
s 1
f 481 488 487
s 1
f 482 489 488
s 1
f 483 490 489
s 1
f 484 491 490
s 1
f 485 492 491
s 1
f 486 487 492
s 1
f 487 494 493
s 1
f 488 495 494
s 1
f 489 496 495
s 1
f 490 497 496
s 1
f 491 498 497
s 1
f 492 493 498
s 1
f 493 500 499
s 1
f 494 501 500
s 1
f 495 502 501
s 1
f 496 503 502
s 1
f 497 504 503
s 1
f 498 499 504
s 1
f 499 506 505
s 1
f 500 507 506
s 1
f 501 508 507
s 1
f 502 509 508
s 1
f 503 510 509
s 1
f 504 505 510
s 1
f 505 512 511
s 1
f 506 513 512
s 1
f 507 514 513
s 1
f 508 515 514
s 1
f 509 516 515
s 1
f 510 511 516
s 1
f 511 518 517
s 1
f 512 519 518
s 1
f 513 520 519
s 1
f 514 521 520
s 1
f 515 522 521
s 1
f 516 517 522
s 1
f 517 524 523
s 1
f 518 525 524
s 1
f 519 526 525
s 1
f 520 527 526
s 1
f 521 528 527
s 1
f 522 523 528
s 1
f 523 530 529
s 1
f 524 531 530
s 1
f 525 532 531
s 1
f 526 533 532
s 1
f 527 534 533
s 1
f 528 529 534
s 1
f 529 536 535
s 1
f 530 537 536
s 1
f 531 538 537
s 1
f 532 539 538
s 1
f 533 540 539
s 1
f 534 535 540
s 1
f 535 542 541
s 1
f 536 543 542
s 1
f 537 544 543
s 1
f 538 545 544
s 1
f 539 546 545
s 1
f 540 541 546
s 1
f 541 548 547
s 1
f 542 549 548
s 1
f 543 550 549
s 1
f 544 551 550
s 1
f 545 552 551
s 1
f 546 547 552
s 1
f 547 554 553
s 1
f 548 555 554
s 1
f 549 556 555
s 1
f 550 557 556
s 1
f 551 558 557
s 1
f 552 553 558
s 1
f 553 560 559
s 1
f 554 561 560
s 1
f 555 562 561
s 1
f 556 563 562
s 1
f 557 564 563
s 1
f 558 559 564
s 1
f 559 566 565
s 1
f 560 567 566
s 1
f 561 568 567
s 1
f 562 569 568
s 1
f 563 570 569
s 1
f 564 565 570
s 1
f 565 572 571
s 1
f 566 573 572
s 1
f 567 574 573
s 1
f 568 575 574
s 1
f 569 576 575
s 1
f 570 571 576
s 1
f 571 578 577
s 1
f 573 578 572
s 1
f 574 579 573
s 1
f 575 580 574
s 1
f 575 582 581
s 1
f 576 577 582
s 1
f 2 8 7
s 1
f 2 3 9
s 1
f 3 4 10
s 1
f 4 5 11
s 1
f 6 12 11
s 1
f 1 7 12
s 1
f 7 8 14
s 1
f 8 9 15
s 1
f 9 10 16
s 1
f 10 11 17
s 1
f 11 12 18
s 1
f 12 7 13
s 1
f 13 14 20
s 1
f 14 15 21
s 1
f 15 16 22
s 1
f 16 17 23
s 1
f 17 18 24
s 1
f 18 13 19
s 1
f 19 20 26
s 1
f 20 21 27
s 1
f 21 22 28
s 1
f 22 23 29
s 1
f 23 24 30
s 1
f 24 19 25
s 1
f 25 26 32
s 1
f 26 27 33
s 1
f 27 28 34
s 1
f 28 29 35
s 1
f 29 30 36
s 1
f 30 25 31
s 1
f 31 32 38
s 1
f 32 33 39
s 1
f 33 34 40
s 1
f 34 35 41
s 1
f 35 36 42
s 1
f 36 31 37
s 1
f 37 38 44
s 1
f 38 39 45
s 1
f 39 40 46
s 1
f 40 41 47
s 1
f 41 42 48
s 1
f 42 37 43
s 1
f 43 44 50
s 1
f 44 45 51
s 1
f 45 46 52
s 1
f 46 47 53
s 1
f 47 48 54
s 1
f 48 43 49
s 1
f 49 50 56
s 1
f 50 51 57
s 1
f 51 52 58
s 1
f 52 53 59
s 1
f 53 54 60
s 1
f 54 49 55
s 1
f 55 56 62
s 1
f 56 57 63
s 1
f 57 58 64
s 1
f 58 59 65
s 1
f 59 60 66
s 1
f 60 55 61
s 1
f 61 62 68
s 1
f 62 63 69
s 1
f 63 64 70
s 1
f 64 65 71
s 1
f 65 66 72
s 1
f 66 61 67
s 1
f 67 68 74
s 1
f 68 69 75
s 1
f 69 70 76
s 1
f 70 71 77
s 1
f 71 72 78
s 1
f 72 67 73
s 1
f 73 74 80
s 1
f 74 75 81
s 1
f 75 76 82
s 1
f 76 77 83
s 1
f 77 78 84
s 1
f 78 73 79
s 1
f 79 80 86
s 1
f 80 81 87
s 1
f 81 82 88
s 1
f 82 83 89
s 1
f 83 84 90
s 1
f 84 79 85
s 1
f 85 86 92
s 1
f 86 87 93
s 1
f 87 88 94
s 1
f 88 89 95
s 1
f 89 90 96
s 1
f 90 85 91
s 1
f 91 92 98
s 1
f 92 93 99
s 1
f 93 94 100
s 1
f 94 95 101
s 1
f 95 96 102
s 1
f 96 91 97
s 1
f 97 98 104
s 1
f 98 99 105
s 1
f 99 100 106
s 1
f 100 101 107
s 1
f 101 102 108
s 1
f 102 97 103
s 1
f 103 104 110
s 1
f 104 105 111
s 1
f 105 106 112
s 1
f 106 107 113
s 1
f 107 108 114
s 1
f 108 103 109
s 1
f 109 110 116
s 1
f 110 111 117
s 1
f 111 112 118
s 1
f 112 113 119
s 1
f 113 114 120
s 1
f 114 109 115
s 1
f 115 116 122
s 1
f 116 117 123
s 1
f 117 118 124
s 1
f 118 119 125
s 1
f 119 120 126
s 1
f 120 115 121
s 1
f 121 122 128
s 1
f 122 123 129
s 1
f 123 124 130
s 1
f 124 125 131
s 1
f 125 126 132
s 1
f 126 121 127
s 1
f 127 128 134
s 1
f 128 129 135
s 1
f 129 130 136
s 1
f 130 131 137
s 1
f 131 132 138
s 1
f 132 127 133
s 1
f 133 134 140
s 1
f 134 135 141
s 1
f 135 136 142
s 1
f 136 137 143
s 1
f 137 138 144
s 1
f 138 133 139
s 1
f 139 140 146
s 1
f 140 141 147
s 1
f 141 142 148
s 1
f 142 143 149
s 1
f 143 144 150
s 1
f 144 139 145
s 1
f 145 146 152
s 1
f 146 147 153
s 1
f 147 148 154
s 1
f 148 149 155
s 1
f 149 150 156
s 1
f 150 145 151
s 1
f 151 152 158
s 1
f 152 153 159
s 1
f 153 154 160
s 1
f 154 155 161
s 1
f 155 156 162
s 1
f 156 151 157
s 1
f 157 158 164
s 1
f 158 159 165
s 1
f 159 160 166
s 1
f 160 161 167
s 1
f 161 162 168
s 1
f 162 157 163
s 1
f 163 164 170
s 1
f 164 165 171
s 1
f 165 166 172
s 1
f 166 167 173
s 1
f 167 168 174
s 1
f 168 163 169
s 1
f 169 170 176
s 1
f 170 171 177
s 1
f 171 172 178
s 1
f 172 173 179
s 1
f 173 174 180
s 1
f 174 169 175
s 1
f 175 176 182
s 1
f 176 177 183
s 1
f 177 178 184
s 1
f 178 179 185
s 1
f 179 180 186
s 1
f 180 175 181
s 1
f 181 182 188
s 1
f 182 183 189
s 1
f 183 184 190
s 1
f 184 185 191
s 1
f 185 186 192
s 1
f 186 181 187
s 1
f 187 188 194
s 1
f 188 189 195
s 1
f 189 190 196
s 1
f 190 191 197
s 1
f 191 192 198
s 1
f 192 187 193
s 1
f 193 194 200
s 1
f 194 195 201
s 1
f 195 196 202
s 1
f 196 197 203
s 1
f 197 198 204
s 1
f 198 193 199
s 1
f 199 200 206
s 1
f 200 201 207
s 1
f 202 208 207
s 1
f 202 203 209
s 1
f 203 204 210
s 1
f 204 199 205
s 1
f 205 206 212
s 1
f 206 207 213
s 1
f 207 208 214
s 1
f 208 209 215
s 1
f 209 210 216
s 1
f 210 205 211
s 1
f 211 212 218
s 1
f 212 213 219
s 1
f 213 214 220
s 1
f 214 215 221
s 1
f 215 216 222
s 1
f 216 211 217
s 1
f 217 218 224
s 1
f 218 219 225
s 1
f 219 220 226
s 1
f 220 221 227
s 1
f 221 222 228
s 1
f 222 217 223
s 1
f 223 224 230
s 1
f 224 225 231
s 1
f 225 226 232
s 1
f 226 227 233
s 1
f 227 228 234
s 1
f 228 223 229
s 1
f 229 230 236
s 1
f 230 231 237
s 1
f 231 232 238
s 1
f 232 233 239
s 1
f 233 234 240
s 1
f 234 229 235
s 1
f 235 236 242
s 1
f 236 237 243
s 1
f 237 238 244
s 1
f 238 239 245
s 1
f 239 240 246
s 1
f 240 235 241
s 1
f 241 242 248
s 1
f 242 243 249
s 1
f 243 244 250
s 1
f 244 245 251
s 1
f 245 246 252
s 1
f 246 241 247
s 1
f 247 248 254
s 1
f 248 249 255
s 1
f 249 250 256
s 1
f 250 251 257
s 1
f 251 252 258
s 1
f 252 247 253
s 1
f 253 254 260
s 1
f 254 255 261
s 1
f 255 256 262
s 1
f 256 257 263
s 1
f 257 258 264
s 1
f 258 253 259
s 1
f 259 260 266
s 1
f 260 261 267
s 1
f 261 262 268
s 1
f 262 263 269
s 1
f 263 264 270
s 1
f 264 259 265
s 1
f 265 266 272
s 1
f 266 267 273
s 1
f 267 268 274
s 1
f 268 269 275
s 1
f 269 270 276
s 1
f 270 265 271
s 1
f 271 272 278
s 1
f 272 273 279
s 1
f 273 274 280
s 1
f 274 275 281
s 1
f 275 276 282
s 1
f 276 271 277
s 1
f 277 278 284
s 1
f 278 279 285
s 1
f 279 280 286
s 1
f 280 281 287
s 1
f 281 282 288
s 1
f 282 277 283
s 1
f 283 284 290
s 1
f 284 285 291
s 1
f 285 286 292
s 1
f 286 287 293
s 1
f 287 288 294
s 1
f 288 283 289
s 1
f 289 290 296
s 1
f 290 291 297
s 1
f 291 292 298
s 1
f 292 293 299
s 1
f 293 294 300
s 1
f 294 289 295
s 1
f 295 296 302
s 1
f 296 297 303
s 1
f 297 298 304
s 1
f 298 299 305
s 1
f 299 300 306
s 1
f 300 295 301
s 1
f 301 302 308
s 1
f 302 303 309
s 1
f 303 304 310
s 1
f 304 305 311
s 1
f 305 306 312
s 1
f 306 301 307
s 1
f 307 308 314
s 1
f 308 309 315
s 1
f 309 310 316
s 1
f 310 311 317
s 1
f 311 312 318
s 1
f 312 307 313
s 1
f 313 314 320
s 1
f 314 315 321
s 1
f 315 316 322
s 1
f 316 317 323
s 1
f 317 318 324
s 1
f 318 313 319
s 1
f 319 320 326
s 1
f 320 321 327
s 1
f 321 322 328
s 1
f 322 323 329
s 1
f 323 324 330
s 1
f 324 319 325
s 1
f 325 326 332
s 1
f 326 327 333
s 1
f 327 328 334
s 1
f 328 329 335
s 1
f 329 330 336
s 1
f 330 325 331
s 1
f 331 332 338
s 1
f 332 333 339
s 1
f 333 334 340
s 1
f 334 335 341
s 1
f 335 336 342
s 1
f 336 331 337
s 1
f 337 338 344
s 1
f 338 339 345
s 1
f 339 340 346
s 1
f 340 341 347
s 1
f 341 342 348
s 1
f 342 337 343
s 1
f 343 344 350
s 1
f 344 345 351
s 1
f 345 346 352
s 1
f 346 347 353
s 1
f 347 348 354
s 1
f 348 343 349
s 1
f 349 350 356
s 1
f 350 351 357
s 1
f 351 352 358
s 1
f 352 353 359
s 1
f 353 354 360
s 1
f 354 349 355
s 1
f 355 356 362
s 1
f 356 357 363
s 1
f 357 358 364
s 1
f 358 359 365
s 1
f 359 360 366
s 1
f 360 355 361
s 1
f 361 362 368
s 1
f 362 363 369
s 1
f 363 364 370
s 1
f 364 365 371
s 1
f 365 366 372
s 1
f 366 361 367
s 1
f 367 368 374
s 1
f 368 369 375
s 1
f 369 370 376
s 1
f 370 371 377
s 1
f 371 372 378
s 1
f 372 367 373
s 1
f 373 374 380
s 1
f 374 375 381
s 1
f 375 376 382
s 1
f 376 377 383
s 1
f 377 378 384
s 1
f 378 373 379
s 1
f 379 380 386
s 1
f 380 381 387
s 1
f 381 382 388
s 1
f 382 383 389
s 1
f 383 384 390
s 1
f 384 379 385
s 1
f 385 386 392
s 1
f 386 387 393
s 1
f 387 388 394
s 1
f 388 389 395
s 1
f 389 390 396
s 1
f 390 385 391
s 1
f 391 392 398
s 1
f 392 393 399
s 1
f 393 394 400
s 1
f 394 395 401
s 1
f 395 396 402
s 1
f 396 391 397
s 1
f 397 398 404
s 1
f 398 399 405
s 1
f 399 400 406
s 1
f 400 401 407
s 1
f 401 402 408
s 1
f 402 397 403
s 1
f 403 404 410
s 1
f 404 405 411
s 1
f 405 406 412
s 1
f 406 407 413
s 1
f 407 408 414
s 1
f 408 403 409
s 1
f 409 410 416
s 1
f 410 411 417
s 1
f 411 412 418
s 1
f 412 413 419
s 1
f 413 414 420
s 1
f 414 409 415
s 1
f 415 416 422
s 1
f 416 417 423
s 1
f 417 418 424
s 1
f 418 419 425
s 1
f 419 420 426
s 1
f 420 415 421
s 1
f 421 422 428
s 1
f 422 423 429
s 1
f 423 424 430
s 1
f 424 425 431
s 1
f 425 426 432
s 1
f 426 421 427
s 1
f 427 428 434
s 1
f 428 429 435
s 1
f 429 430 436
s 1
f 430 431 437
s 1
f 431 432 438
s 1
f 432 427 433
s 1
f 433 434 440
s 1
f 434 435 441
s 1
f 435 436 442
s 1
f 436 437 443
s 1
f 437 438 444
s 1
f 438 433 439
s 1
f 439 440 446
s 1
f 440 441 447
s 1
f 441 442 448
s 1
f 442 443 449
s 1
f 443 444 450
s 1
f 444 439 445
s 1
f 445 446 452
s 1
f 446 447 453
s 1
f 447 448 454
s 1
f 448 449 455
s 1
f 449 450 456
s 1
f 450 445 451
s 1
f 451 452 458
s 1
f 452 453 459
s 1
f 453 454 460
s 1
f 454 455 461
s 1
f 455 456 462
s 1
f 456 451 457
s 1
f 457 458 464
s 1
f 458 459 465
s 1
f 459 460 466
s 1
f 460 461 467
s 1
f 461 462 468
s 1
f 462 457 463
s 1
f 463 464 470
s 1
f 464 465 471
s 1
f 465 466 472
s 1
f 466 467 473
s 1
f 467 468 474
s 1
f 468 463 469
s 1
f 469 470 476
s 1
f 470 471 477
s 1
f 471 472 478
s 1
f 472 473 479
s 1
f 473 474 480
s 1
f 474 469 475
s 1
f 475 476 482
s 1
f 476 477 483
s 1
f 477 478 484
s 1
f 478 479 485
s 1
f 479 480 486
s 1
f 480 475 481
s 1
f 481 482 488
s 1
f 482 483 489
s 1
f 483 484 490
s 1
f 484 485 491
s 1
f 485 486 492
s 1
f 486 481 487
s 1
f 487 488 494
s 1
f 488 489 495
s 1
f 489 490 496
s 1
f 490 491 497
s 1
f 491 492 498
s 1
f 492 487 493
s 1
f 493 494 500
s 1
f 494 495 501
s 1
f 495 496 502
s 1
f 496 497 503
s 1
f 497 498 504
s 1
f 498 493 499
s 1
f 499 500 506
s 1
f 500 501 507
s 1
f 501 502 508
s 1
f 502 503 509
s 1
f 503 504 510
s 1
f 504 499 505
s 1
f 505 506 512
s 1
f 506 507 513
s 1
f 507 508 514
s 1
f 508 509 515
s 1
f 509 510 516
s 1
f 510 505 511
s 1
f 511 512 518
s 1
f 512 513 519
s 1
f 513 514 520
s 1
f 514 515 521
s 1
f 515 516 522
s 1
f 516 511 517
s 1
f 517 518 524
s 1
f 518 519 525
s 1
f 519 520 526
s 1
f 520 521 527
s 1
f 521 522 528
s 1
f 522 517 523
s 1
f 523 524 530
s 1
f 524 525 531
s 1
f 525 526 532
s 1
f 526 527 533
s 1
f 527 528 534
s 1
f 528 523 529
s 1
f 529 530 536
s 1
f 530 531 537
s 1
f 531 532 538
s 1
f 532 533 539
s 1
f 533 534 540
s 1
f 534 529 535
s 1
f 535 536 542
s 1
f 536 537 543
s 1
f 537 538 544
s 1
f 538 539 545
s 1
f 539 540 546
s 1
f 540 535 541
s 1
f 541 542 548
s 1
f 542 543 549
s 1
f 543 544 550
s 1
f 544 545 551
s 1
f 545 546 552
s 1
f 546 541 547
s 1
f 547 548 554
s 1
f 548 549 555
s 1
f 549 550 556
s 1
f 550 551 557
s 1
f 551 552 558
s 1
f 552 547 553
s 1
f 553 554 560
s 1
f 554 555 561
s 1
f 555 556 562
s 1
f 556 557 563
s 1
f 557 558 564
s 1
f 558 553 559
s 1
f 559 560 566
s 1
f 560 561 567
s 1
f 561 562 568
s 1
f 562 563 569
s 1
f 563 564 570
s 1
f 564 559 565
s 1
f 565 566 572
s 1
f 566 567 573
s 1
f 567 568 574
s 1
f 568 569 575
s 1
f 569 570 576
s 1
f 570 565 571
s 1
f 571 572 578
s 1
f 573 579 578
s 1
f 574 580 579
s 1
f 575 581 580
s 1
f 575 576 582
s 1
f 576 571 577
