# eclipse_pocket Orbit2_Orbit.obj: Roblox cue frame, recentred on its bounding box
v -1.29929 0.01147 0.01355
v -1.31521 0.00568 0.00746
v -1.31591 -0.00590 -0.00630
v -1.30069 -0.01169 -0.01398
v -1.28477 -0.00590 -0.00789
v -1.28407 0.00568 0.00587
v -1.29651 -0.05365 0.06819
v -1.31240 -0.05984 0.06243
v -1.31310 -0.07143 0.04868
v -1.29790 -0.07684 0.04069
v -1.28201 -0.07065 0.04644
v -1.28131 -0.05906 0.06019
v -1.28817 -0.11847 0.12257
v -1.30396 -0.12545 0.11749
v -1.30466 -0.13708 0.10377
v -1.28956 -0.14173 0.09514
v -1.27377 -0.13474 0.10022
v -1.27308 -0.12311 0.11394
v -1.27432 -0.18273 0.17650
v -1.28994 -0.19050 0.17207
v -1.29063 -0.20217 0.15838
v -1.27569 -0.20606 0.14912
v -1.26007 -0.19829 0.15354
v -1.25939 -0.18662 0.16724
v -1.25502 -0.24616 0.22972
v -1.27040 -0.25471 0.22594
v -1.27107 -0.26641 0.21228
v -1.25636 -0.26956 0.20240
v -1.24098 -0.26101 0.20617
v -1.24031 -0.24931 0.21984
v -1.23034 -0.30849 0.28202
v -1.24542 -0.31780 0.27888
v -1.24608 -0.32953 0.26525
v -1.23166 -0.33195 0.25475
v -1.21658 -0.32264 0.25789
v -1.21592 -0.31090 0.27152
v -1.20039 -0.36944 0.33317
v -1.21510 -0.37951 0.33066
v -1.21574 -0.39127 0.31705
v -1.20167 -0.39297 0.30596
v -1.18696 -0.38291 0.30847
v -1.18632 -0.37115 0.32208
v -1.16530 -0.42877 0.38295
v -1.17958 -0.43956 0.38105
v -1.18020 -0.45136 0.36747
v -1.16654 -0.45236 0.35579
v -1.15226 -0.44157 0.35769
v -1.15164 -0.42978 0.37127
v -1.12522 -0.48621 0.43115
v -1.13901 -0.49771 0.42984
v -1.13961 -0.50954 0.41628
v -1.12642 -0.50987 0.40404
v -1.11263 -0.49837 0.40535
v -1.11203 -0.48655 0.41891
v -1.08033 -0.54153 0.47756
v -1.09356 -0.55370 0.47682
v -1.09414 -0.56555 0.46329
v -1.08147 -0.56524 0.45050
v -1.06823 -0.55306 0.45125
v -1.06766 -0.54121 0.46478
v -1.03080 -0.59447 0.52199
v -1.04343 -0.60729 0.52179
v -1.04398 -0.61917 0.50828
v -1.03189 -0.61823 0.49497
v -1.01926 -0.60541 0.49517
v -1.01872 -0.59353 0.50868
v -0.97686 -0.64482 0.56424
v -0.98883 -0.65826 0.56455
v -0.98935 -0.67017 0.55106
v -0.97790 -0.66863 0.53726
v -0.96593 -0.65519 0.53695
v -0.96541 -0.64329 0.55044
v -0.91874 -0.69236 0.60413
v -0.93000 -0.70638 0.60493
v -0.93048 -0.71831 0.59146
v -0.91971 -0.71622 0.57719
v -0.90845 -0.70220 0.57639
v -0.90797 -0.69027 0.58986
v -0.85669 -0.73688 0.64149
v -0.86718 -0.75145 0.64274
v -0.86763 -0.76341 0.62930
v -0.85759 -0.76079 0.61459
v -0.84709 -0.74622 0.61333
v -0.84664 -0.73427 0.62678
v -0.79096 -0.77820 0.67616
v -0.80065 -0.79328 0.67784
v -0.80107 -0.80525 0.66441
v -0.79179 -0.80215 0.64930
v -0.78210 -0.78708 0.64762
v -0.78169 -0.77510 0.66105
v -0.72185 -0.81614 0.70800
v -0.73070 -0.83168 0.71006
v -0.73107 -0.84368 0.69665
v -0.72261 -0.84013 0.68116
v -0.71376 -0.82459 0.67910
v -0.71339 -0.81260 0.69251
v -0.64965 -0.85054 0.73686
v -0.65761 -0.86650 0.73928
v -0.65795 -0.87851 0.72588
v -0.65033 -0.87456 0.71005
v -0.64237 -0.85860 0.70763
v -0.64203 -0.84659 0.72103
v -0.57466 -0.88124 0.76262
v -0.58170 -0.89758 0.76536
v -0.58200 -0.90961 0.75197
v -0.57526 -0.90530 0.73584
v -0.56822 -0.88896 0.73311
v -0.56792 -0.87693 0.74650
v -0.49722 -0.90812 0.78518
v -0.50331 -0.92479 0.78819
v -0.50357 -0.93683 0.77481
v -0.49774 -0.93220 0.75842
v -0.49165 -0.91554 0.75541
v -0.49139 -0.90350 0.76879
v -0.41764 -0.93107 0.80443
v -0.42276 -0.94802 0.80767
v -0.42298 -0.96007 0.79431
v -0.41808 -0.95517 0.77769
v -0.41296 -0.93822 0.77445
v -0.41274 -0.92617 0.78782
v -0.33628 -0.94998 0.82030
v -0.34040 -0.96716 0.82373
v -0.34057 -0.97922 0.81037
v -0.33663 -0.97410 0.79357
v -0.33251 -0.95691 0.79014
v -0.33233 -0.94485 0.80350
v -0.25347 -0.96477 0.83271
v -0.25658 -0.98213 0.83630
v -0.25671 -0.99420 0.82294
v -0.25374 -0.98890 0.80600
v -0.25063 -0.97154 0.80241
v -0.25050 -0.95947 0.81576
v -0.16959 -0.97538 0.84161
v -0.17166 -0.99287 0.84531
v -0.17175 -1.00494 0.83195
v -0.16976 -0.99952 0.81491
v -0.16768 -0.98203 0.81121
v -0.16760 -0.96996 0.82456
v -0.08497 -0.98176 0.84697
v -0.08601 -0.99934 0.85073
v -0.08605 -1.01141 0.83738
v -0.08506 -1.00591 0.82027
v -0.08402 -0.98834 0.81651
v -0.08397 -0.97626 0.82986
v 0.00001 -0.98390 0.84876
v 0.00001 -1.00149 0.85254
v 0.00001 -1.01357 0.83919
v 0.00001 -1.00804 0.82206
v 0.00001 -0.99044 0.81828
v 0.00001 -0.97837 0.83163
v 0.08499 -0.98177 0.84697
v 0.08603 -0.99934 0.85073
v 0.08608 -1.01141 0.83738
v 0.08508 -1.00591 0.82027
v 0.08404 -0.98834 0.81651
v 0.08399 -0.97626 0.82986
v 0.16961 -0.97538 0.84161
v 0.17169 -0.99288 0.84531
v 0.17177 -1.00494 0.83195
v 0.16978 -0.99952 0.81490
v 0.16771 -0.98202 0.81121
v 0.16762 -0.96995 0.82457
v 0.25350 -0.96477 0.83271
v 0.25660 -0.98214 0.83629
v 0.25673 -0.99420 0.82293
v 0.25376 -0.98889 0.80599
v 0.25065 -0.97153 0.80241
v 0.25053 -0.95947 0.81577
v 0.33631 -0.94998 0.82030
v 0.34042 -0.96717 0.82373
v 0.34059 -0.97922 0.81036
v 0.33665 -0.97409 0.79357
v 0.33253 -0.95690 0.79014
v 0.33236 -0.94485 0.80351
v 0.41767 -0.93108 0.80444
v 0.42278 -0.94803 0.80767
v 0.42300 -0.96007 0.79429
v 0.41809 -0.95516 0.77768
v 0.41298 -0.93821 0.77445
v 0.41277 -0.92617 0.78783
v 0.49725 -0.90814 0.78519
v 0.50334 -0.92481 0.78818
v 0.50359 -0.93684 0.77479
v 0.49775 -0.93219 0.75841
v 0.49166 -0.91552 0.75542
v 0.49141 -0.90349 0.76881
v 0.57470 -0.88125 0.76263
v 0.58173 -0.89760 0.76535
v 0.58202 -0.90961 0.75195
v 0.57528 -0.90528 0.73583
v 0.56824 -0.88894 0.73312
v 0.56795 -0.87693 0.74652
v 0.64968 -0.85055 0.73687
v 0.65764 -0.86652 0.73927
v 0.65796 -0.87852 0.72586
v 0.65034 -0.87455 0.71004
v 0.64239 -0.85858 0.70764
v 0.64206 -0.84658 0.72106
v 0.72189 -0.81616 0.70801
v 0.73073 -0.83171 0.71005
v 0.73109 -0.84368 0.69662
v 0.72262 -0.84012 0.68115
v 0.71378 -0.82457 0.67910
v 0.71342 -0.81259 0.69253
v 0.79100 -0.77822 0.67618
v 0.80069 -0.79330 0.67783
v 0.80108 -0.80526 0.66438
v 0.79180 -0.80214 0.64928
v 0.78212 -0.78705 0.64763
v 0.78172 -0.77509 0.66107
v 0.85673 -0.73690 0.64150
v 0.86722 -0.75148 0.64273
v 0.86765 -0.76342 0.62927
v 0.85759 -0.76077 0.61457
v 0.84710 -0.74620 0.61335
v 0.84667 -0.73426 0.62681
v 0.91879 -0.69237 0.60414
v 0.93004 -0.70641 0.60491
v 0.93050 -0.71832 0.59143
v 0.91971 -0.71620 0.57718
v 0.90846 -0.70217 0.57641
v 0.90800 -0.69026 0.58989
v 0.97692 -0.64484 0.56425
v 0.98887 -0.65829 0.56453
v 0.98936 -0.67018 0.55103
v 0.97789 -0.66862 0.53724
v 0.96593 -0.65516 0.53696
v 0.96545 -0.64327 0.55047
v 1.03086 -0.59449 0.52201
v 1.04347 -0.60732 0.52177
v 1.04399 -0.61919 0.50824
v 1.03188 -0.61822 0.49495
v 1.01927 -0.60538 0.49519
v 1.01875 -0.59351 0.50872
v 1.08038 -0.54154 0.47758
v 1.09361 -0.55373 0.47680
v 1.09414 -0.56557 0.46325
v 1.08146 -0.56522 0.45048
v 1.06824 -0.55303 0.45127
v 1.06770 -0.54119 0.46481
v 1.12529 -0.48623 0.43117
v 1.13906 -0.49774 0.42982
v 1.13962 -0.50955 0.41624
v 1.12640 -0.50985 0.40402
v 1.11263 -0.49834 0.40537
v 1.11207 -0.48653 0.41895
v 1.16537 -0.42879 0.38297
v 1.17963 -0.43960 0.38103
v 1.18021 -0.45138 0.36743
v 1.16652 -0.45235 0.35577
v 1.15226 -0.44154 0.35772
v 1.15169 -0.42976 0.37131
v 1.20046 -0.36946 0.33319
v 1.21515 -0.37954 0.33063
v 1.21574 -0.39129 0.31701
v 1.20165 -0.39296 0.30594
v 1.18696 -0.38288 0.30849
v 1.18637 -0.37112 0.32212
v 1.23041 -0.30850 0.28203
v 1.24547 -0.31784 0.27885
v 1.24608 -0.32956 0.26521
v 1.23163 -0.33194 0.25474
v 1.21657 -0.32260 0.25792
v 1.21597 -0.31088 0.27157
v 1.25510 -0.24617 0.22973
v 1.27045 -0.25475 0.22591
v 1.27107 -0.26644 0.21224
v 1.25633 -0.26955 0.20239
v 1.24098 -0.26097 0.20621
v 1.24036 -0.24928 0.21988
v 1.27441 -0.18274 0.17651
v 1.29000 -0.19054 0.17203
v 1.29062 -0.20220 0.15833
v 1.27566 -0.20605 0.14911
v 1.26007 -0.19825 0.15358
v 1.25944 -0.18659 0.16728
v 1.28826 -0.11847 0.12258
v 1.30402 -0.12549 0.11745
v 1.30465 -0.13711 0.10372
v 1.28952 -0.14172 0.09513
v 1.27376 -0.13471 0.10026
v 1.27313 -0.12308 0.11399
v 1.29659 -0.05365 0.06819
v 1.31246 -0.05987 0.06239
v 1.31309 -0.07147 0.04864
v 1.29786 -0.07684 0.04068
v 1.28200 -0.07061 0.04648
v 1.28137 -0.05902 0.06024
v 1.29938 0.01145 0.01356
v 1.31527 0.00602 0.00709
v 1.31591 -0.00554 -0.00669
v 1.30065 -0.01167 -0.01400
v 1.28475 -0.00625 -0.00753
v 1.28412 0.00532 0.00625
v 1.29660 0.07655 -0.04106
v 1.31246 0.07192 -0.04820
v 1.31309 0.06039 -0.06201
v 1.29786 0.05349 -0.06868
v 1.28200 0.05812 -0.06154
v 1.28137 0.06965 -0.04773
v 1.28826 0.14137 -0.09545
v 1.30402 0.13753 -0.10326
v 1.30465 0.12603 -0.11709
v 1.28952 0.11837 -0.12312
v 1.27376 0.12222 -0.11532
v 1.27313 0.13372 -0.10148
v 1.27441 0.20564 -0.14938
v 1.29000 0.20258 -0.15784
v 1.29062 0.19112 -0.17170
v 1.27565 0.18270 -0.17710
v 1.26006 0.18576 -0.16863
v 1.25944 0.19723 -0.15477
v 1.25511 0.26907 -0.20261
v 1.27046 0.26679 -0.21172
v 1.27107 0.25536 -0.22561
v 1.25632 0.24620 -0.23038
v 1.24097 0.24848 -0.22126
v 1.24036 0.25992 -0.20737
v 1.23043 0.33141 -0.25491
v 1.24548 0.32989 -0.26467
v 1.24607 0.31848 -0.27858
v 1.23161 0.30859 -0.28273
v 1.21657 0.31011 -0.27297
v 1.21597 0.32152 -0.25906
v 1.20048 0.39237 -0.30606
v 1.21516 0.39159 -0.31645
v 1.21574 0.38021 -0.33038
v 1.20163 0.36961 -0.33393
v 1.18695 0.37038 -0.32355
v 1.18637 0.38176 -0.30961
v 1.16539 0.45170 -0.35584
v 1.17964 0.45165 -0.36684
v 1.18020 0.44030 -0.38080
v 1.16651 0.42899 -0.38376
v 1.15225 0.42904 -0.37277
v 1.15169 0.44040 -0.35881
v 1.12530 0.50914 -0.40405
v 1.13907 0.50979 -0.41563
v 1.13961 0.49847 -0.42961
v 1.12638 0.48649 -0.43201
v 1.11262 0.48584 -0.42042
v 1.11208 0.49717 -0.40644
v 1.08040 0.56446 -0.45046
v 1.09362 0.56578 -0.46261
v 1.09413 0.55448 -0.47662
v 1.08144 0.54186 -0.47847
v 1.06823 0.54053 -0.46631
v 1.06771 0.55183 -0.45231
v 1.03088 0.61740 -0.49489
v 1.04348 0.61938 -0.50758
v 1.04398 0.60810 -0.52161
v 1.03186 0.59485 -0.52293
v 1.01926 0.59288 -0.51024
v 1.01876 0.60416 -0.49622
v 0.97694 0.66775 -0.53714
v 0.98888 0.67034 -0.55035
v 0.98935 0.65909 -0.56439
v 0.97787 0.64525 -0.56522
v 0.96592 0.64266 -0.55201
v 0.96546 0.65392 -0.53797
v 0.91881 0.71530 -0.57703
v 0.93005 0.71846 -0.59073
v 0.93048 0.70723 -0.60479
v 0.91969 0.69284 -0.60515
v 0.90845 0.68967 -0.59145
v 0.90802 0.70090 -0.57739
v 0.85675 0.75982 -0.61439
v 0.86723 0.76353 -0.62855
v 0.86764 0.75233 -0.64263
v 0.85757 0.73741 -0.64255
v 0.84709 0.73369 -0.62839
v 0.84669 0.74490 -0.61431
v 0.79103 0.80115 -0.64907
v 0.80070 0.80536 -0.66365
v 0.80107 0.79417 -0.67774
v 0.79178 0.77877 -0.67726
v 0.78210 0.77455 -0.66267
v 0.78173 0.78574 -0.64858
v 0.72191 0.83909 -0.68090
v 0.73074 0.84377 -0.69588
v 0.73108 0.83259 -0.70999
v 0.72259 0.81674 -0.70912
v 0.71377 0.81206 -0.69415
v 0.71343 0.82324 -0.68004
v 0.64971 0.87348 -0.70977
v 0.65765 0.87858 -0.72509
v 0.65795 0.86742 -0.73921
v 0.65032 0.85117 -0.73801
v 0.64237 0.84607 -0.72268
v 0.64207 0.85723 -0.70856
v 0.57472 0.90419 -0.73553
v 0.58174 0.90966 -0.75117
v 0.58201 0.89852 -0.76531
v 0.57526 0.88190 -0.76380
v 0.56823 0.87643 -0.74815
v 0.56796 0.88757 -0.73402
v 0.49727 0.93107 -0.75809
v 0.50335 0.93687 -0.77401
v 0.50358 0.92574 -0.78815
v 0.49773 0.90881 -0.78637
v 0.49165 0.90301 -0.77046
v 0.49142 0.91414 -0.75631
v 0.41769 0.95402 -0.77734
v 0.42279 0.96010 -0.79350
v 0.42299 0.94898 -0.80765
v 0.41808 0.93177 -0.80564
v 0.41297 0.92570 -0.78949
v 0.41278 0.93682 -0.77534
v 0.33632 0.97293 -0.79321
v 0.34043 0.97924 -0.80956
v 0.34059 0.96812 -0.82372
v 0.33663 0.95070 -0.82152
v 0.33252 0.94439 -0.80518
v 0.33237 0.95550 -0.79102
v 0.25351 0.98772 -0.80562
v 0.25661 0.99421 -0.82212
v 0.25673 0.98310 -0.83628
v 0.25375 0.96550 -0.83395
v 0.25065 0.95901 -0.81745
v 0.25053 0.97012 -0.80328
v 0.16962 0.99833 -0.81452
v 0.17169 1.00495 -0.83114
v 0.17177 0.99384 -0.84530
v 0.16977 0.97612 -0.84286
v 0.16770 0.96951 -0.82625
v 0.16762 0.98061 -0.81208
v 0.08500 1.00472 -0.81988
v 0.08603 1.01141 -0.83656
v 0.08607 1.00031 -0.85073
v 0.08508 0.98251 -0.84822
v 0.08404 0.97582 -0.83154
v 0.08400 0.98692 -0.81737
v 0.00001 1.00685 -0.82167
v 0.00001 1.01357 -0.83837
v 0.00001 1.00247 -0.85254
v 0.00001 0.98464 -0.85001
v 0.00001 0.97793 -0.83331
v 0.00001 0.98903 -0.81914
v -0.08497 1.00472 -0.81988
v -0.08601 1.01141 -0.83656
v -0.08605 1.00031 -0.85073
v -0.08505 0.98251 -0.84822
v -0.08401 0.97582 -0.83154
v -0.08397 0.98692 -0.81737
v -0.16959 0.99834 -0.81453
v -0.17167 1.00495 -0.83114
v -0.17175 0.99384 -0.84530
v -0.16975 0.97612 -0.84285
v -0.16768 0.96951 -0.82624
v -0.16760 0.98061 -0.81208
v -0.25349 0.98773 -0.80563
v -0.25659 0.99421 -0.82213
v -0.25670 0.98309 -0.83629
v -0.25372 0.96550 -0.83394
v -0.25062 0.95902 -0.81744
v -0.25051 0.97013 -0.80328
v -0.33630 0.97294 -0.79321
v -0.34041 0.97924 -0.80957
v -0.34056 0.96811 -0.82372
v -0.33661 0.95069 -0.82152
v -0.33250 0.94439 -0.80517
v -0.33234 0.95551 -0.79101
v -0.41767 0.95403 -0.77735
v -0.42277 0.96010 -0.79351
v -0.42296 0.94896 -0.80765
v -0.41805 0.93176 -0.80564
v -0.41295 0.92570 -0.78948
v -0.41276 0.93683 -0.77533
v -0.49725 0.93108 -0.75810
v -0.50333 0.93687 -0.77402
v -0.50355 0.92573 -0.78816
v -0.49770 0.90880 -0.78637
v -0.49163 0.90301 -0.77044
v -0.49140 0.91416 -0.75631
v -0.57470 0.90420 -0.73554
v -0.58172 0.90966 -0.75119
v -0.58199 0.89850 -0.76531
v -0.57523 0.88189 -0.76379
v -0.56820 0.87643 -0.74814
v -0.56794 0.88759 -0.73401
v -0.64969 0.87350 -0.70978
v -0.65763 0.87858 -0.72511
v -0.65793 0.86741 -0.73922
v -0.65028 0.85116 -0.73800
v -0.64235 0.84608 -0.72266
v -0.64205 0.85725 -0.70855
v -0.72190 0.83910 -0.68091
v -0.73072 0.84376 -0.69590
v -0.73105 0.83257 -0.71000
v -0.72256 0.81673 -0.70911
v -0.71374 0.81207 -0.69413
v -0.71341 0.82326 -0.68003
v -0.79102 0.80116 -0.64908
v -0.80068 0.80536 -0.66367
v -0.80104 0.79415 -0.67776
v -0.79174 0.77875 -0.67724
v -0.78207 0.77456 -0.66265
v -0.78171 0.78576 -0.64857
v -0.85675 0.75984 -0.61441
v -0.86722 0.76353 -0.62858
v -0.86760 0.75230 -0.64264
v -0.85753 0.73739 -0.64254
v -0.84706 0.73370 -0.62836
v -0.84667 0.74493 -0.61430
v -0.91881 0.71531 -0.57704
v -0.93004 0.71846 -0.59076
v -0.93045 0.70721 -0.60481
v -0.91964 0.69282 -0.60514
v -0.90842 0.68968 -0.59142
v -0.90800 0.70092 -0.57737
v -0.97694 0.66777 -0.53715
v -0.98887 0.67033 -0.55038
v -0.98931 0.65906 -0.56441
v -0.97782 0.64524 -0.56521
v -0.96589 0.64267 -0.55198
v -0.96545 0.65394 -0.53795
v -1.03088 0.61742 -0.49490
v -1.04348 0.61937 -0.50762
v -1.04394 0.60807 -0.52163
v -1.03181 0.59484 -0.52292
v -1.01922 0.59289 -0.51021
v -1.01876 0.60418 -0.49620
v -1.08041 0.56447 -0.45047
v -1.09361 0.56577 -0.46265
v -1.09410 0.55446 -0.47664
v -1.08138 0.54184 -0.47845
v -1.06819 0.54054 -0.46628
v -1.06770 0.55186 -0.45229
v -1.12532 0.50916 -0.40406
v -1.13906 0.50978 -0.41567
v -1.13957 0.49844 -0.42963
v -1.12633 0.48648 -0.43200
v -1.11258 0.48586 -0.42039
v -1.11208 0.49720 -0.40642
v -1.16540 0.45171 -0.35586
v -1.17964 0.45163 -0.36687
v -1.18016 0.44026 -0.38082
v -1.16644 0.42898 -0.38375
v -1.15221 0.42906 -0.37273
v -1.15169 0.44043 -0.35879
v -1.20050 0.39238 -0.30607
v -1.21516 0.39157 -0.31648
v -1.21569 0.38018 -0.33041
v -1.20157 0.36959 -0.33392
v -1.18691 0.37040 -0.32351
v -1.18637 0.38179 -0.30959
v -1.23045 0.33142 -0.25492
v -1.24548 0.32987 -0.26470
v -1.24602 0.31844 -0.27860
v -1.23155 0.30857 -0.28272
v -1.21652 0.31013 -0.27293
v -1.21597 0.32155 -0.25903
v -1.25513 0.26909 -0.20261
v -1.27046 0.26677 -0.21176
v -1.27102 0.25532 -0.22564
v -1.25625 0.24619 -0.23037
v -1.24092 0.24850 -0.22122
v -1.24036 0.25995 -0.20734
v -1.27444 0.20565 -0.14938
v -1.29001 0.20256 -0.15788
v -1.29057 0.19108 -0.17174
v -1.27557 0.18269 -0.17709
v -1.26001 0.18578 -0.16859
v -1.25945 0.19726 -0.15474
v -1.28830 0.14138 -0.09546
v -1.30403 0.13751 -0.10330
v -1.30460 0.12600 -0.11713
v -1.28944 0.11837 -0.12312
v -1.27370 0.12224 -0.11528
v -1.27313 0.13375 -0.10145
v -1.29663 0.07656 -0.04106
v -1.31247 0.07189 -0.04824
v -1.31304 0.06035 -0.06205
v -1.29778 0.05349 -0.06867
v -1.28194 0.05815 -0.06150
v -1.28137 0.06969 -0.04769
v -1.29942 0.01144 0.01358
v -1.31527 0.00637 0.00673
v -1.31585 -0.00518 -0.00706
v -1.30056 -0.01166 -0.01401
v -1.28470 -0.00660 -0.00717
v -1.28413 0.00495 0.00663
s 1
f 2 7 1
s 1
f 3 8 2
s 1
f 3 10 9
s 1
f 4 11 10
s 1
f 5 12 11
s 1
f 1 12 6
s 1
f 8 13 7
s 1
f 9 14 8
s 1
f 10 15 9
s 1
f 11 16 10
s 1
f 12 17 11
s 1
f 7 18 12
s 1
f 14 19 13
s 1
f 15 20 14
s 1
f 16 21 15
s 1
f 17 22 16
s 1
f 18 23 17
s 1
f 13 24 18
s 1
f 20 25 19
s 1
f 21 26 20
s 1
f 22 27 21
s 1
f 23 28 22
s 1
f 24 29 23
s 1
f 19 30 24
s 1
f 26 31 25
s 1
f 27 32 26
s 1
f 28 33 27
s 1
f 29 34 28
s 1
f 30 35 29
s 1
f 25 36 30
s 1
f 32 37 31
s 1
f 33 38 32
s 1
f 34 39 33
s 1
f 35 40 34
s 1
f 36 41 35
s 1
f 31 42 36
s 1
f 38 43 37
s 1
f 39 44 38
s 1
f 40 45 39
s 1
f 41 46 40
s 1
f 42 47 41
s 1
f 37 48 42
s 1
f 44 49 43
s 1
f 45 50 44
s 1
f 46 51 45
s 1
f 47 52 46
s 1
f 48 53 47
s 1
f 43 54 48
s 1
f 50 55 49
s 1
f 51 56 50
s 1
f 52 57 51
s 1
f 53 58 52
s 1
f 54 59 53
s 1
f 49 60 54
s 1
f 56 61 55
s 1
f 57 62 56
s 1
f 58 63 57
s 1
f 59 64 58
s 1
f 60 65 59
s 1
f 55 66 60
s 1
f 62 67 61
s 1
f 63 68 62
s 1
f 64 69 63
s 1
f 65 70 64
s 1
f 66 71 65
s 1
f 61 72 66
s 1
f 68 73 67
s 1
f 69 74 68
s 1
f 70 75 69
s 1
f 71 76 70
s 1
f 72 77 71
s 1
f 67 78 72
s 1
f 74 79 73
s 1
f 75 80 74
s 1
f 76 81 75
s 1
f 77 82 76
s 1
f 78 83 77
s 1
f 73 84 78
s 1
f 80 85 79
s 1
f 81 86 80
s 1
f 82 87 81
s 1
f 83 88 82
s 1
f 84 89 83
s 1
f 79 90 84
s 1
f 86 91 85
s 1
f 87 92 86
s 1
f 88 93 87
s 1
f 89 94 88
s 1
f 90 95 89
s 1
f 85 96 90
s 1
f 92 97 91
s 1
f 93 98 92
s 1
f 94 99 93
s 1
f 95 100 94
s 1
f 96 101 95
s 1
f 91 102 96
s 1
f 98 103 97
s 1
f 99 104 98
s 1
f 100 105 99
s 1
f 101 106 100
s 1
f 102 107 101
s 1
f 97 108 102
s 1
f 104 109 103
s 1
f 105 110 104
s 1
f 106 111 105
s 1
f 107 112 106
s 1
f 108 113 107
s 1
f 103 114 108
s 1
f 110 115 109
s 1
f 111 116 110
s 1
f 112 117 111
s 1
f 113 118 112
s 1
f 114 119 113
s 1
f 109 120 114
s 1
f 116 121 115
s 1
f 117 122 116
s 1
f 118 123 117
s 1
f 119 124 118
s 1
f 120 125 119
s 1
f 115 126 120
s 1
f 122 127 121
s 1
f 123 128 122
s 1
f 124 129 123
s 1
f 125 130 124
s 1
f 126 131 125
s 1
f 121 132 126
s 1
f 128 133 127
s 1
f 129 134 128
s 1
f 130 135 129
s 1
f 131 136 130
s 1
f 132 137 131
s 1
f 127 138 132
s 1
f 134 139 133
s 1
f 135 140 134
s 1
f 136 141 135
s 1
f 137 142 136
s 1
f 138 143 137
s 1
f 133 144 138
s 1
f 140 145 139
s 1
f 141 146 140
s 1
f 142 147 141
s 1
f 143 148 142
s 1
f 144 149 143
s 1
f 139 150 144
s 1
f 146 151 145
s 1
f 147 152 146
s 1
f 148 153 147
s 1
f 149 154 148
s 1
f 150 155 149
s 1
f 145 156 150
s 1
f 152 157 151
s 1
f 153 158 152
s 1
f 154 159 153
s 1
f 155 160 154
s 1
f 156 161 155
s 1
f 151 162 156
s 1
f 158 163 157
s 1
f 159 164 158
s 1
f 160 165 159
s 1
f 161 166 160
s 1
f 162 167 161
s 1
f 157 168 162
s 1
f 164 169 163
s 1
f 165 170 164
s 1
f 166 171 165
s 1
f 167 172 166
s 1
f 168 173 167
s 1
f 163 174 168
s 1
f 170 175 169
s 1
f 171 176 170
s 1
f 172 177 171
s 1
f 173 178 172
s 1
f 174 179 173
s 1
f 169 180 174
s 1
f 176 181 175
s 1
f 177 182 176
s 1
f 178 183 177
s 1
f 179 184 178
s 1
f 180 185 179
s 1
f 175 186 180
s 1
f 182 187 181
s 1
f 183 188 182
s 1
f 184 189 183
s 1
f 185 190 184
s 1
f 186 191 185
s 1
f 181 192 186
s 1
f 188 193 187
s 1
f 189 194 188
s 1
f 190 195 189
s 1
f 191 196 190
s 1
f 192 197 191
s 1
f 187 198 192
s 1
f 194 199 193
s 1
f 195 200 194
s 1
f 196 201 195
s 1
f 197 202 196
s 1
f 198 203 197
s 1
f 193 204 198
s 1
f 200 205 199
s 1
f 201 206 200
s 1
f 202 207 201
s 1
f 203 208 202
s 1
f 204 209 203
s 1
f 199 210 204
s 1
f 206 211 205
s 1
f 207 212 206
s 1
f 208 213 207
s 1
f 209 214 208
s 1
f 210 215 209
s 1
f 205 216 210
s 1
f 212 217 211
s 1
f 213 218 212
s 1
f 214 219 213
s 1
f 215 220 214
s 1
f 216 221 215
s 1
f 211 222 216
s 1
f 218 223 217
s 1
f 219 224 218
s 1
f 220 225 219
s 1
f 221 226 220
s 1
f 222 227 221
s 1
f 217 228 222
s 1
f 224 229 223
s 1
f 225 230 224
s 1
f 226 231 225
s 1
f 227 232 226
s 1
f 228 233 227
s 1
f 223 234 228
s 1
f 230 235 229
s 1
f 231 236 230
s 1
f 232 237 231
s 1
f 233 238 232
s 1
f 234 239 233
s 1
f 229 240 234
s 1
f 236 241 235
s 1
f 237 242 236
s 1
f 238 243 237
s 1
f 239 244 238
s 1
f 240 245 239
s 1
f 235 246 240
s 1
f 242 247 241
s 1
f 243 248 242
s 1
f 244 249 243
s 1
f 245 250 244
s 1
f 246 251 245
s 1
f 241 252 246
s 1
f 248 253 247
s 1
f 249 254 248
s 1
f 250 255 249
s 1
f 251 256 250
s 1
f 252 257 251
s 1
f 247 258 252
s 1
f 254 259 253
s 1
f 255 260 254
s 1
f 256 261 255
s 1
f 257 262 256
s 1
f 258 263 257
s 1
f 253 264 258
s 1
f 260 265 259
s 1
f 261 266 260
s 1
f 262 267 261
s 1
f 263 268 262
s 1
f 264 269 263
s 1
f 259 270 264
s 1
f 266 271 265
s 1
f 267 272 266
s 1
f 268 273 267
s 1
f 269 274 268
s 1
f 270 275 269
s 1
f 265 276 270
s 1
f 272 277 271
s 1
f 273 278 272
s 1
f 274 279 273
s 1
f 275 280 274
s 1
f 276 281 275
s 1
f 271 282 276
s 1
f 278 283 277
s 1
f 279 284 278
s 1
f 280 285 279
s 1
f 281 286 280
s 1
f 282 287 281
s 1
f 277 288 282
s 1
f 284 289 283
s 1
f 285 290 284
s 1
f 286 291 285
s 1
f 287 292 286
s 1
f 288 293 287
s 1
f 283 294 288
s 1
f 290 295 289
s 1
f 291 296 290
s 1
f 292 297 291
s 1
f 293 298 292
s 1
f 294 299 293
s 1
f 289 300 294
s 1
f 296 301 295
s 1
f 297 302 296
s 1
f 298 303 297
s 1
f 299 304 298
s 1
f 300 305 299
s 1
f 295 306 300
s 1
f 302 307 301
s 1
f 303 308 302
s 1
f 304 309 303
s 1
f 305 310 304
s 1
f 306 311 305
s 1
f 301 312 306
s 1
f 308 313 307
s 1
f 309 314 308
s 1
f 310 315 309
s 1
f 311 316 310
s 1
f 312 317 311
s 1
f 307 318 312
s 1
f 314 319 313
s 1
f 315 320 314
s 1
f 316 321 315
s 1
f 317 322 316
s 1
f 318 323 317
s 1
f 313 324 318
s 1
f 320 325 319
s 1
f 321 326 320
s 1
f 322 327 321
s 1
f 323 328 322
s 1
f 324 329 323
s 1
f 319 330 324
s 1
f 326 331 325
s 1
f 327 332 326
s 1
f 328 333 327
s 1
f 329 334 328
s 1
f 330 335 329
s 1
f 325 336 330
s 1
f 332 337 331
s 1
f 333 338 332
s 1
f 334 339 333
s 1
f 335 340 334
s 1
f 336 341 335
s 1
f 331 342 336
s 1
f 338 343 337
s 1
f 339 344 338
s 1
f 340 345 339
s 1
f 341 346 340
s 1
f 342 347 341
s 1
f 337 348 342
s 1
f 344 349 343
s 1
f 345 350 344
s 1
f 346 351 345
s 1
f 347 352 346
s 1
f 348 353 347
s 1
f 343 354 348
s 1
f 350 355 349
s 1
f 351 356 350
s 1
f 352 357 351
s 1
f 353 358 352
s 1
f 354 359 353
s 1
f 349 360 354
s 1
f 356 361 355
s 1
f 357 362 356
s 1
f 358 363 357
s 1
f 359 364 358
s 1
f 360 365 359
s 1
f 355 366 360
s 1
f 362 367 361
s 1
f 363 368 362
s 1
f 364 369 363
s 1
f 365 370 364
s 1
f 366 371 365
s 1
f 361 372 366
s 1
f 368 373 367
s 1
f 369 374 368
s 1
f 370 375 369
s 1
f 371 376 370
s 1
f 372 377 371
s 1
f 367 378 372
s 1
f 374 379 373
s 1
f 375 380 374
s 1
f 376 381 375
s 1
f 377 382 376
s 1
f 378 383 377
s 1
f 373 384 378
s 1
f 380 385 379
s 1
f 381 386 380
s 1
f 382 387 381
s 1
f 383 388 382
s 1
f 384 389 383
s 1
f 379 390 384
s 1
f 386 391 385
s 1
f 387 392 386
s 1
f 388 393 387
s 1
f 389 394 388
s 1
f 390 395 389
s 1
f 385 396 390
s 1
f 392 397 391
s 1
f 393 398 392
s 1
f 394 399 393
s 1
f 395 400 394
s 1
f 396 401 395
s 1
f 391 402 396
s 1
f 398 403 397
s 1
f 399 404 398
s 1
f 400 405 399
s 1
f 401 406 400
s 1
f 402 407 401
s 1
f 397 408 402
s 1
f 404 409 403
s 1
f 405 410 404
s 1
f 406 411 405
s 1
f 407 412 406
s 1
f 408 413 407
s 1
f 403 414 408
s 1
f 410 415 409
s 1
f 411 416 410
s 1
f 412 417 411
s 1
f 413 418 412
s 1
f 414 419 413
s 1
f 409 420 414
s 1
f 416 421 415
s 1
f 417 422 416
s 1
f 418 423 417
s 1
f 419 424 418
s 1
f 420 425 419
s 1
f 415 426 420
s 1
f 422 427 421
s 1
f 423 428 422
s 1
f 424 429 423
s 1
f 425 430 424
s 1
f 426 431 425
s 1
f 421 432 426
s 1
f 428 433 427
s 1
f 429 434 428
s 1
f 430 435 429
s 1
f 431 436 430
s 1
f 432 437 431
s 1
f 427 438 432
s 1
f 434 439 433
s 1
f 435 440 434
s 1
f 436 441 435
s 1
f 437 442 436
s 1
f 438 443 437
s 1
f 433 444 438
s 1
f 440 445 439
s 1
f 441 446 440
s 1
f 442 447 441
s 1
f 443 448 442
s 1
f 444 449 443
s 1
f 439 450 444
s 1
f 446 451 445
s 1
f 447 452 446
s 1
f 448 453 447
s 1
f 449 454 448
s 1
f 450 455 449
s 1
f 445 456 450
s 1
f 452 457 451
s 1
f 453 458 452
s 1
f 454 459 453
s 1
f 455 460 454
s 1
f 456 461 455
s 1
f 451 462 456
s 1
f 458 463 457
s 1
f 459 464 458
s 1
f 460 465 459
s 1
f 461 466 460
s 1
f 462 467 461
s 1
f 457 468 462
s 1
f 464 469 463
s 1
f 465 470 464
s 1
f 466 471 465
s 1
f 467 472 466
s 1
f 468 473 467
s 1
f 463 474 468
s 1
f 470 475 469
s 1
f 471 476 470
s 1
f 472 477 471
s 1
f 473 478 472
s 1
f 474 479 473
s 1
f 469 480 474
s 1
f 476 481 475
s 1
f 477 482 476
s 1
f 478 483 477
s 1
f 479 484 478
s 1
f 480 485 479
s 1
f 475 486 480
s 1
f 482 487 481
s 1
f 483 488 482
s 1
f 484 489 483
s 1
f 485 490 484
s 1
f 486 491 485
s 1
f 481 492 486
s 1
f 488 493 487
s 1
f 489 494 488
s 1
f 490 495 489
s 1
f 491 496 490
s 1
f 492 497 491
s 1
f 487 498 492
s 1
f 494 499 493
s 1
f 495 500 494
s 1
f 496 501 495
s 1
f 497 502 496
s 1
f 498 503 497
s 1
f 493 504 498
s 1
f 500 505 499
s 1
f 501 506 500
s 1
f 502 507 501
s 1
f 503 508 502
s 1
f 504 509 503
s 1
f 499 510 504
s 1
f 506 511 505
s 1
f 507 512 506
s 1
f 508 513 507
s 1
f 509 514 508
s 1
f 510 515 509
s 1
f 505 516 510
s 1
f 512 517 511
s 1
f 513 518 512
s 1
f 514 519 513
s 1
f 515 520 514
s 1
f 516 521 515
s 1
f 511 522 516
s 1
f 518 523 517
s 1
f 519 524 518
s 1
f 520 525 519
s 1
f 521 526 520
s 1
f 522 527 521
s 1
f 517 528 522
s 1
f 524 529 523
s 1
f 525 530 524
s 1
f 526 531 525
s 1
f 527 532 526
s 1
f 528 533 527
s 1
f 523 534 528
s 1
f 530 535 529
s 1
f 531 536 530
s 1
f 532 537 531
s 1
f 533 538 532
s 1
f 534 539 533
s 1
f 529 540 534
s 1
f 536 541 535
s 1
f 537 542 536
s 1
f 538 543 537
s 1
f 539 544 538
s 1
f 540 545 539
s 1
f 535 546 540
s 1
f 542 547 541
s 1
f 543 548 542
s 1
f 544 549 543
s 1
f 545 550 544
s 1
f 546 551 545
s 1
f 541 552 546
s 1
f 548 553 547
s 1
f 549 554 548
s 1
f 550 555 549
s 1
f 551 556 550
s 1
f 552 557 551
s 1
f 547 558 552
s 1
f 554 559 553
s 1
f 555 560 554
s 1
f 556 561 555
s 1
f 557 562 556
s 1
f 558 563 557
s 1
f 553 564 558
s 1
f 560 565 559
s 1
f 561 566 560
s 1
f 562 567 561
s 1
f 563 568 562
s 1
f 564 569 563
s 1
f 559 570 564
s 1
f 566 571 565
s 1
f 567 572 566
s 1
f 568 573 567
s 1
f 569 574 568
s 1
f 570 575 569
s 1
f 565 576 570
s 1
f 571 578 577
s 1
f 572 579 578
s 1
f 574 579 573
s 1
f 575 580 574
s 1
f 576 581 575
s 1
f 576 577 582
s 1
f 2 8 7
s 1
f 3 9 8
s 1
f 3 4 10
s 1
f 4 5 11
s 1
f 5 6 12
s 1
f 1 7 12
s 1
f 8 14 13
s 1
f 9 15 14
s 1
f 10 16 15
s 1
f 11 17 16
s 1
f 12 18 17
s 1
f 7 13 18
s 1
f 14 20 19
s 1
f 15 21 20
s 1
f 16 22 21
s 1
f 17 23 22
s 1
f 18 24 23
s 1
f 13 19 24
s 1
f 20 26 25
s 1
f 21 27 26
s 1
f 22 28 27
s 1
f 23 29 28
s 1
f 24 30 29
s 1
f 19 25 30
s 1
f 26 32 31
s 1
f 27 33 32
s 1
f 28 34 33
s 1
f 29 35 34
s 1
f 30 36 35
s 1
f 25 31 36
s 1
f 32 38 37
s 1
f 33 39 38
s 1
f 34 40 39
s 1
f 35 41 40
s 1
f 36 42 41
s 1
f 31 37 42
s 1
f 38 44 43
s 1
f 39 45 44
s 1
f 40 46 45
s 1
f 41 47 46
s 1
f 42 48 47
s 1
f 37 43 48
s 1
f 44 50 49
s 1
f 45 51 50
s 1
f 46 52 51
s 1
f 47 53 52
s 1
f 48 54 53
s 1
f 43 49 54
s 1
f 50 56 55
s 1
f 51 57 56
s 1
f 52 58 57
s 1
f 53 59 58
s 1
f 54 60 59
s 1
f 49 55 60
s 1
f 56 62 61
s 1
f 57 63 62
s 1
f 58 64 63
s 1
f 59 65 64
s 1
f 60 66 65
s 1
f 55 61 66
s 1
f 62 68 67
s 1
f 63 69 68
s 1
f 64 70 69
s 1
f 65 71 70
s 1
f 66 72 71
s 1
f 61 67 72
s 1
f 68 74 73
s 1
f 69 75 74
s 1
f 70 76 75
s 1
f 71 77 76
s 1
f 72 78 77
s 1
f 67 73 78
s 1
f 74 80 79
s 1
f 75 81 80
s 1
f 76 82 81
s 1
f 77 83 82
s 1
f 78 84 83
s 1
f 73 79 84
s 1
f 80 86 85
s 1
f 81 87 86
s 1
f 82 88 87
s 1
f 83 89 88
s 1
f 84 90 89
s 1
f 79 85 90
s 1
f 86 92 91
s 1
f 87 93 92
s 1
f 88 94 93
s 1
f 89 95 94
s 1
f 90 96 95
s 1
f 85 91 96
s 1
f 92 98 97
s 1
f 93 99 98
s 1
f 94 100 99
s 1
f 95 101 100
s 1
f 96 102 101
s 1
f 91 97 102
s 1
f 98 104 103
s 1
f 99 105 104
s 1
f 100 106 105
s 1
f 101 107 106
s 1
f 102 108 107
s 1
f 97 103 108
s 1
f 104 110 109
s 1
f 105 111 110
s 1
f 106 112 111
s 1
f 107 113 112
s 1
f 108 114 113
s 1
f 103 109 114
s 1
f 110 116 115
s 1
f 111 117 116
s 1
f 112 118 117
s 1
f 113 119 118
s 1
f 114 120 119
s 1
f 109 115 120
s 1
f 116 122 121
s 1
f 117 123 122
s 1
f 118 124 123
s 1
f 119 125 124
s 1
f 120 126 125
s 1
f 115 121 126
s 1
f 122 128 127
s 1
f 123 129 128
s 1
f 124 130 129
s 1
f 125 131 130
s 1
f 126 132 131
s 1
f 121 127 132
s 1
f 128 134 133
s 1
f 129 135 134
s 1
f 130 136 135
s 1
f 131 137 136
s 1
f 132 138 137
s 1
f 127 133 138
s 1
f 134 140 139
s 1
f 135 141 140
s 1
f 136 142 141
s 1
f 137 143 142
s 1
f 138 144 143
s 1
f 133 139 144
s 1
f 140 146 145
s 1
f 141 147 146
s 1
f 142 148 147
s 1
f 143 149 148
s 1
f 144 150 149
s 1
f 139 145 150
s 1
f 146 152 151
s 1
f 147 153 152
s 1
f 148 154 153
s 1
f 149 155 154
s 1
f 150 156 155
s 1
f 145 151 156
s 1
f 152 158 157
s 1
f 153 159 158
s 1
f 154 160 159
s 1
f 155 161 160
s 1
f 156 162 161
s 1
f 151 157 162
s 1
f 158 164 163
s 1
f 159 165 164
s 1
f 160 166 165
s 1
f 161 167 166
s 1
f 162 168 167
s 1
f 157 163 168
s 1
f 164 170 169
s 1
f 165 171 170
s 1
f 166 172 171
s 1
f 167 173 172
s 1
f 168 174 173
s 1
f 163 169 174
s 1
f 170 176 175
s 1
f 171 177 176
s 1
f 172 178 177
s 1
f 173 179 178
s 1
f 174 180 179
s 1
f 169 175 180
s 1
f 176 182 181
s 1
f 177 183 182
s 1
f 178 184 183
s 1
f 179 185 184
s 1
f 180 186 185
s 1
f 175 181 186
s 1
f 182 188 187
s 1
f 183 189 188
s 1
f 184 190 189
s 1
f 185 191 190
s 1
f 186 192 191
s 1
f 181 187 192
s 1
f 188 194 193
s 1
f 189 195 194
s 1
f 190 196 195
s 1
f 191 197 196
s 1
f 192 198 197
s 1
f 187 193 198
s 1
f 194 200 199
s 1
f 195 201 200
s 1
f 196 202 201
s 1
f 197 203 202
s 1
f 198 204 203
s 1
f 193 199 204
s 1
f 200 206 205
s 1
f 201 207 206
s 1
f 202 208 207
s 1
f 203 209 208
s 1
f 204 210 209
s 1
f 199 205 210
s 1
f 206 212 211
s 1
f 207 213 212
s 1
f 208 214 213
s 1
f 209 215 214
s 1
f 210 216 215
s 1
f 205 211 216
s 1
f 212 218 217
s 1
f 213 219 218
s 1
f 214 220 219
s 1
f 215 221 220
s 1
f 216 222 221
s 1
f 211 217 222
s 1
f 218 224 223
s 1
f 219 225 224
s 1
f 220 226 225
s 1
f 221 227 226
s 1
f 222 228 227
s 1
f 217 223 228
s 1
f 224 230 229
s 1
f 225 231 230
s 1
f 226 232 231
s 1
f 227 233 232
s 1
f 228 234 233
s 1
f 223 229 234
s 1
f 230 236 235
s 1
f 231 237 236
s 1
f 232 238 237
s 1
f 233 239 238
s 1
f 234 240 239
s 1
f 229 235 240
s 1
f 236 242 241
s 1
f 237 243 242
s 1
f 238 244 243
s 1
f 239 245 244
s 1
f 240 246 245
s 1
f 235 241 246
s 1
f 242 248 247
s 1
f 243 249 248
s 1
f 244 250 249
s 1
f 245 251 250
s 1
f 246 252 251
s 1
f 241 247 252
s 1
f 248 254 253
s 1
f 249 255 254
s 1
f 250 256 255
s 1
f 251 257 256
s 1
f 252 258 257
s 1
f 247 253 258
s 1
f 254 260 259
s 1
f 255 261 260
s 1
f 256 262 261
s 1
f 257 263 262
s 1
f 258 264 263
s 1
f 253 259 264
s 1
f 260 266 265
s 1
f 261 267 266
s 1
f 262 268 267
s 1
f 263 269 268
s 1
f 264 270 269
s 1
f 259 265 270
s 1
f 266 272 271
s 1
f 267 273 272
s 1
f 268 274 273
s 1
f 269 275 274
s 1
f 270 276 275
s 1
f 265 271 276
s 1
f 272 278 277
s 1
f 273 279 278
s 1
f 274 280 279
s 1
f 275 281 280
s 1
f 276 282 281
s 1
f 271 277 282
s 1
f 278 284 283
s 1
f 279 285 284
s 1
f 280 286 285
s 1
f 281 287 286
s 1
f 282 288 287
s 1
f 277 283 288
s 1
f 284 290 289
s 1
f 285 291 290
s 1
f 286 292 291
s 1
f 287 293 292
s 1
f 288 294 293
s 1
f 283 289 294
s 1
f 290 296 295
s 1
f 291 297 296
s 1
f 292 298 297
s 1
f 293 299 298
s 1
f 294 300 299
s 1
f 289 295 300
s 1
f 296 302 301
s 1
f 297 303 302
s 1
f 298 304 303
s 1
f 299 305 304
s 1
f 300 306 305
s 1
f 295 301 306
s 1
f 302 308 307
s 1
f 303 309 308
s 1
f 304 310 309
s 1
f 305 311 310
s 1
f 306 312 311
s 1
f 301 307 312
s 1
f 308 314 313
s 1
f 309 315 314
s 1
f 310 316 315
s 1
f 311 317 316
s 1
f 312 318 317
s 1
f 307 313 318
s 1
f 314 320 319
s 1
f 315 321 320
s 1
f 316 322 321
s 1
f 317 323 322
s 1
f 318 324 323
s 1
f 313 319 324
s 1
f 320 326 325
s 1
f 321 327 326
s 1
f 322 328 327
s 1
f 323 329 328
s 1
f 324 330 329
s 1
f 319 325 330
s 1
f 326 332 331
s 1
f 327 333 332
s 1
f 328 334 333
s 1
f 329 335 334
s 1
f 330 336 335
s 1
f 325 331 336
s 1
f 332 338 337
s 1
f 333 339 338
s 1
f 334 340 339
s 1
f 335 341 340
s 1
f 336 342 341
s 1
f 331 337 342
s 1
f 338 344 343
s 1
f 339 345 344
s 1
f 340 346 345
s 1
f 341 347 346
s 1
f 342 348 347
s 1
f 337 343 348
s 1
f 344 350 349
s 1
f 345 351 350
s 1
f 346 352 351
s 1
f 347 353 352
s 1
f 348 354 353
s 1
f 343 349 354
s 1
f 350 356 355
s 1
f 351 357 356
s 1
f 352 358 357
s 1
f 353 359 358
s 1
f 354 360 359
s 1
f 349 355 360
s 1
f 356 362 361
s 1
f 357 363 362
s 1
f 358 364 363
s 1
f 359 365 364
s 1
f 360 366 365
s 1
f 355 361 366
s 1
f 362 368 367
s 1
f 363 369 368
s 1
f 364 370 369
s 1
f 365 371 370
s 1
f 366 372 371
s 1
f 361 367 372
s 1
f 368 374 373
s 1
f 369 375 374
s 1
f 370 376 375
s 1
f 371 377 376
s 1
f 372 378 377
s 1
f 367 373 378
s 1
f 374 380 379
s 1
f 375 381 380
s 1
f 376 382 381
s 1
f 377 383 382
s 1
f 378 384 383
s 1
f 373 379 384
s 1
f 380 386 385
s 1
f 381 387 386
s 1
f 382 388 387
s 1
f 383 389 388
s 1
f 384 390 389
s 1
f 379 385 390
s 1
f 386 392 391
s 1
f 387 393 392
s 1
f 388 394 393
s 1
f 389 395 394
s 1
f 390 396 395
s 1
f 385 391 396
s 1
f 392 398 397
s 1
f 393 399 398
s 1
f 394 400 399
s 1
f 395 401 400
s 1
f 396 402 401
s 1
f 391 397 402
s 1
f 398 404 403
s 1
f 399 405 404
s 1
f 400 406 405
s 1
f 401 407 406
s 1
f 402 408 407
s 1
f 397 403 408
s 1
f 404 410 409
s 1
f 405 411 410
s 1
f 406 412 411
s 1
f 407 413 412
s 1
f 408 414 413
s 1
f 403 409 414
s 1
f 410 416 415
s 1
f 411 417 416
s 1
f 412 418 417
s 1
f 413 419 418
s 1
f 414 420 419
s 1
f 409 415 420
s 1
f 416 422 421
s 1
f 417 423 422
s 1
f 418 424 423
s 1
f 419 425 424
s 1
f 420 426 425
s 1
f 415 421 426
s 1
f 422 428 427
s 1
f 423 429 428
s 1
f 424 430 429
s 1
f 425 431 430
s 1
f 426 432 431
s 1
f 421 427 432
s 1
f 428 434 433
s 1
f 429 435 434
s 1
f 430 436 435
s 1
f 431 437 436
s 1
f 432 438 437
s 1
f 427 433 438
s 1
f 434 440 439
s 1
f 435 441 440
s 1
f 436 442 441
s 1
f 437 443 442
s 1
f 438 444 443
s 1
f 433 439 444
s 1
f 440 446 445
s 1
f 441 447 446
s 1
f 442 448 447
s 1
f 443 449 448
s 1
f 444 450 449
s 1
f 439 445 450
s 1
f 446 452 451
s 1
f 447 453 452
s 1
f 448 454 453
s 1
f 449 455 454
s 1
f 450 456 455
s 1
f 445 451 456
s 1
f 452 458 457
s 1
f 453 459 458
s 1
f 454 460 459
s 1
f 455 461 460
s 1
f 456 462 461
s 1
f 451 457 462
s 1
f 458 464 463
s 1
f 459 465 464
s 1
f 460 466 465
s 1
f 461 467 466
s 1
f 462 468 467
s 1
f 457 463 468
s 1
f 464 470 469
s 1
f 465 471 470
s 1
f 466 472 471
s 1
f 467 473 472
s 1
f 468 474 473
s 1
f 463 469 474
s 1
f 470 476 475
s 1
f 471 477 476
s 1
f 472 478 477
s 1
f 473 479 478
s 1
f 474 480 479
s 1
f 469 475 480
s 1
f 476 482 481
s 1
f 477 483 482
s 1
f 478 484 483
s 1
f 479 485 484
s 1
f 480 486 485
s 1
f 475 481 486
s 1
f 482 488 487
s 1
f 483 489 488
s 1
f 484 490 489
s 1
f 485 491 490
s 1
f 486 492 491
s 1
f 481 487 492
s 1
f 488 494 493
s 1
f 489 495 494
s 1
f 490 496 495
s 1
f 491 497 496
s 1
f 492 498 497
s 1
f 487 493 498
s 1
f 494 500 499
s 1
f 495 501 500
s 1
f 496 502 501
s 1
f 497 503 502
s 1
f 498 504 503
s 1
f 493 499 504
s 1
f 500 506 505
s 1
f 501 507 506
s 1
f 502 508 507
s 1
f 503 509 508
s 1
f 504 510 509
s 1
f 499 505 510
s 1
f 506 512 511
s 1
f 507 513 512
s 1
f 508 514 513
s 1
f 509 515 514
s 1
f 510 516 515
s 1
f 505 511 516
s 1
f 512 518 517
s 1
f 513 519 518
s 1
f 514 520 519
s 1
f 515 521 520
s 1
f 516 522 521
s 1
f 511 517 522
s 1
f 518 524 523
s 1
f 519 525 524
s 1
f 520 526 525
s 1
f 521 527 526
s 1
f 522 528 527
s 1
f 517 523 528
s 1
f 524 530 529
s 1
f 525 531 530
s 1
f 526 532 531
s 1
f 527 533 532
s 1
f 528 534 533
s 1
f 523 529 534
s 1
f 530 536 535
s 1
f 531 537 536
s 1
f 532 538 537
s 1
f 533 539 538
s 1
f 534 540 539
s 1
f 529 535 540
s 1
f 536 542 541
s 1
f 537 543 542
s 1
f 538 544 543
s 1
f 539 545 544
s 1
f 540 546 545
s 1
f 535 541 546
s 1
f 542 548 547
s 1
f 543 549 548
s 1
f 544 550 549
s 1
f 545 551 550
s 1
f 546 552 551
s 1
f 541 547 552
s 1
f 548 554 553
s 1
f 549 555 554
s 1
f 550 556 555
s 1
f 551 557 556
s 1
f 552 558 557
s 1
f 547 553 558
s 1
f 554 560 559
s 1
f 555 561 560
s 1
f 556 562 561
s 1
f 557 563 562
s 1
f 558 564 563
s 1
f 553 559 564
s 1
f 560 566 565
s 1
f 561 567 566
s 1
f 562 568 567
s 1
f 563 569 568
s 1
f 564 570 569
s 1
f 559 565 570
s 1
f 566 572 571
s 1
f 567 573 572
s 1
f 568 574 573
s 1
f 569 575 574
s 1
f 570 576 575
s 1
f 565 571 576
s 1
f 571 572 578
s 1
f 572 573 579
s 1
f 574 580 579
s 1
f 575 581 580
s 1
f 576 582 581
s 1
f 576 571 577
