# eclipse_pocket Totality_Obsidian.obj: Roblox cue frame, recentred on its bounding box
v -0.00000 0.82000 0.00000
v -0.00000 0.79206 0.21223
v -0.00000 0.75758 0.31380
v -0.00000 0.71014 0.41000
v -0.00000 0.65055 0.49918
v -0.00000 0.57983 0.57983
v -0.00000 0.49918 0.65055
v -0.00000 0.41000 0.71014
v -0.00000 0.31380 0.75758
v -0.00000 0.10703 0.81299
v -0.00000 -0.00000 0.82000
v -0.00000 -0.10703 0.81299
v -0.00000 -0.31380 0.75758
v -0.00000 -0.57983 0.57983
v -0.00000 -0.65055 0.49918
v -0.00000 -0.71014 0.41000
v -0.00000 -0.75758 0.31380
v -0.00000 -0.79206 0.21223
v -0.00000 -0.81298 0.10703
v -0.00000 -0.82000 0.00000
v -0.01397 0.81298 0.10612
v -0.02770 0.79206 0.21042
v -0.04096 0.75758 0.31112
v -0.05352 0.71014 0.40649
v -0.06516 0.65055 0.49491
v -0.07568 0.57983 0.57487
v -0.08491 0.49918 0.64498
v -0.09269 0.41000 0.70407
v -0.09888 0.31380 0.75110
v -0.10338 0.21223 0.78528
v -0.10612 0.10703 0.80603
v -0.10703 -0.00000 0.81299
v -0.10612 -0.10703 0.80603
v -0.10338 -0.21223 0.78528
v -0.09888 -0.31380 0.75110
v -0.09269 -0.41000 0.70407
v -0.08491 -0.49918 0.64498
v -0.07568 -0.57983 0.57487
v -0.06516 -0.65055 0.49491
v -0.05352 -0.71014 0.40649
v -0.04096 -0.75758 0.31112
v -0.02770 -0.79206 0.21042
v -0.01397 -0.81298 0.10612
v -0.02770 0.81298 0.10338
v -0.05493 0.79206 0.20500
v -0.08122 0.75758 0.30311
v -0.10612 0.71014 0.39603
v -0.12920 0.65055 0.48218
v -0.15007 0.57983 0.56007
v -0.16838 0.49918 0.62838
v -0.18380 0.41000 0.68594
v -0.19608 0.31380 0.73177
v -0.20500 0.21223 0.76507
v -0.21042 0.10703 0.78528
v -0.21223 -0.00000 0.79206
v -0.21042 -0.10703 0.78528
v -0.20500 -0.21223 0.76507
v -0.19608 -0.31380 0.73177
v -0.18380 -0.41000 0.68594
v -0.16838 -0.49918 0.62838
v -0.15007 -0.57983 0.56007
v -0.12920 -0.65055 0.48218
v -0.10612 -0.71014 0.39603
v -0.08122 -0.75758 0.30311
v -0.05493 -0.79206 0.20500
v -0.02770 -0.81298 0.10338
v -0.04096 0.81298 0.09888
v -0.08122 0.79206 0.19608
v -0.12009 0.75758 0.28991
v -0.15690 0.71014 0.37879
v -0.19103 0.65055 0.46119
v -0.22189 0.57983 0.53569
v -0.24895 0.49918 0.60103
v -0.27176 0.41000 0.65608
v -0.28991 0.31380 0.69991
v -0.30311 0.21223 0.73177
v -0.31112 0.10703 0.75110
v -0.31380 -0.00000 0.75758
v -0.31112 -0.10703 0.75110
v -0.30311 -0.21223 0.73177
v -0.28991 -0.31380 0.69991
v -0.27176 -0.41000 0.65608
v -0.24895 -0.49918 0.60103
v -0.22189 -0.57983 0.53569
v -0.19103 -0.65055 0.46119
v -0.15690 -0.71014 0.37879
v -0.12009 -0.75758 0.28991
v -0.08122 -0.79206 0.19608
v -0.04096 -0.81298 0.09888
v -0.05352 0.81298 0.09269
v -0.10612 0.79206 0.18380
v -0.15690 0.75758 0.27176
v -0.20500 0.71014 0.35507
v -0.24959 0.65055 0.43231
v -0.28991 0.57983 0.50215
v -0.32528 0.49918 0.56339
v -0.35507 0.41000 0.61500
v -0.37879 0.31380 0.65609
v -0.39603 0.21223 0.68594
v -0.40649 0.10703 0.70407
v -0.41000 -0.00000 0.71014
v -0.40649 -0.10703 0.70407
v -0.39603 -0.21223 0.68594
v -0.37879 -0.31380 0.65609
v -0.35507 -0.41000 0.61500
v -0.32528 -0.49918 0.56339
v -0.28991 -0.57983 0.50215
v -0.24959 -0.65055 0.43231
v -0.20500 -0.71014 0.35507
v -0.15690 -0.75758 0.27176
v -0.10612 -0.79206 0.18380
v -0.05352 -0.81298 0.09269
v -0.06516 0.81298 0.08491
v -0.12920 0.79206 0.16838
v -0.19103 0.75758 0.24895
v -0.24959 0.71014 0.32528
v -0.30388 0.65055 0.39603
v -0.35298 0.57983 0.46001
v -0.39603 0.49918 0.51612
v -0.43231 0.41000 0.56339
v -0.46119 0.31380 0.60103
v -0.48218 0.21223 0.62838
v -0.49491 0.10703 0.64498
v -0.49918 -0.00000 0.65055
v -0.49491 -0.10703 0.64498
v -0.48218 -0.21223 0.62838
v -0.46119 -0.31380 0.60103
v -0.43231 -0.41000 0.56339
v -0.39603 -0.49918 0.51612
v -0.35298 -0.57983 0.46001
v -0.30388 -0.65055 0.39603
v -0.24959 -0.71014 0.32528
v -0.19103 -0.75758 0.24895
v -0.12920 -0.79206 0.16838
v -0.06516 -0.81298 0.08491
v -0.07568 0.81298 0.07568
v -0.15007 0.79206 0.15007
v -0.22189 0.75758 0.22189
v -0.28991 0.71014 0.28991
v -0.35298 0.65055 0.35298
v -0.41000 0.57983 0.41000
v -0.46001 0.49918 0.46001
v -0.50215 0.41000 0.50215
v -0.53569 0.31380 0.53569
v -0.56007 0.21223 0.56007
v -0.57487 0.10703 0.57487
v -0.57983 -0.00000 0.57983
v -0.57487 -0.10703 0.57487
v -0.56007 -0.21223 0.56007
v -0.53569 -0.31380 0.53569
v -0.50215 -0.41000 0.50215
v -0.46001 -0.49918 0.46001
v -0.41000 -0.57983 0.41000
v -0.35298 -0.65055 0.35298
v -0.28991 -0.71014 0.28991
v -0.22189 -0.75758 0.22189
v -0.15007 -0.79206 0.15007
v -0.07568 -0.81298 0.07568
v -0.08491 0.81298 0.06516
v -0.16838 0.79206 0.12920
v -0.24895 0.75758 0.19103
v -0.32528 0.71014 0.24959
v -0.39603 0.65055 0.30388
v -0.46001 0.57983 0.35298
v -0.51612 0.49918 0.39603
v -0.56339 0.41000 0.43231
v -0.60103 0.31380 0.46119
v -0.62838 0.21223 0.48218
v -0.64498 0.10703 0.49491
v -0.65055 -0.00000 0.49918
v -0.64498 -0.10703 0.49491
v -0.62838 -0.21223 0.48218
v -0.60103 -0.31380 0.46119
v -0.56339 -0.41000 0.43231
v -0.51612 -0.49918 0.39603
v -0.46001 -0.57983 0.35298
v -0.39603 -0.65055 0.30388
v -0.32528 -0.71014 0.24959
v -0.24895 -0.75758 0.19103
v -0.16838 -0.79206 0.12920
v -0.08491 -0.81298 0.06516
v -0.09269 0.81298 0.05352
v -0.18380 0.79206 0.10612
v -0.27176 0.75758 0.15690
v -0.35507 0.71014 0.20500
v -0.43231 0.65055 0.24959
v -0.50215 0.57983 0.28991
v -0.56339 0.49918 0.32528
v -0.61500 0.41000 0.35507
v -0.65609 0.31380 0.37879
v -0.68594 0.21223 0.39603
v -0.70407 0.10703 0.40649
v -0.71014 -0.00000 0.41000
v -0.70407 -0.10703 0.40649
v -0.68594 -0.21223 0.39603
v -0.65609 -0.31380 0.37879
v -0.61500 -0.41000 0.35507
v -0.56339 -0.49918 0.32528
v -0.50215 -0.57983 0.28991
v -0.43231 -0.65055 0.24959
v -0.35507 -0.71014 0.20500
v -0.27176 -0.75758 0.15690
v -0.18380 -0.79206 0.10612
v -0.09269 -0.81298 0.05352
v -0.09888 0.81298 0.04096
v -0.19608 0.79206 0.08122
v -0.28991 0.75758 0.12009
v -0.37879 0.71014 0.15690
v -0.46119 0.65055 0.19103
v -0.53569 0.57983 0.22189
v -0.60103 0.49918 0.24896
v -0.65609 0.41000 0.27176
v -0.69991 0.31380 0.28991
v -0.73177 0.21223 0.30311
v -0.75110 0.10703 0.31112
v -0.75758 -0.00000 0.31380
v -0.75110 -0.10703 0.31112
v -0.73177 -0.21223 0.30311
v -0.69991 -0.31380 0.28991
v -0.65609 -0.41000 0.27176
v -0.60103 -0.49918 0.24896
v -0.53569 -0.57983 0.22189
v -0.46119 -0.65055 0.19103
v -0.37879 -0.71014 0.15690
v -0.28991 -0.75758 0.12009
v -0.19608 -0.79206 0.08122
v -0.09888 -0.81298 0.04096
v -0.10338 0.81298 0.02770
v -0.20500 0.79206 0.05493
v -0.30311 0.75758 0.08122
v -0.39603 0.71014 0.10612
v -0.48218 0.65055 0.12920
v -0.56007 0.57983 0.15007
v -0.62838 0.49918 0.16838
v -0.68594 0.41000 0.18380
v -0.73177 0.31380 0.19608
v -0.76507 0.21223 0.20500
v -0.78528 0.10703 0.21042
v -0.79206 -0.00000 0.21223
v -0.78528 -0.10703 0.21042
v -0.76507 -0.21223 0.20500
v -0.73177 -0.31380 0.19608
v -0.68594 -0.41000 0.18380
v -0.62838 -0.49918 0.16838
v -0.56007 -0.57983 0.15007
v -0.48218 -0.65055 0.12920
v -0.39603 -0.71014 0.10612
v -0.30311 -0.75758 0.08122
v -0.20500 -0.79206 0.05493
v -0.10338 -0.81298 0.02770
v -0.10612 0.81298 0.01397
v -0.21042 0.79206 0.02770
v -0.31112 0.75758 0.04096
v -0.40649 0.71014 0.05352
v -0.49491 0.65055 0.06516
v -0.57487 0.57983 0.07568
v -0.64498 0.49918 0.08491
v -0.70407 0.41000 0.09269
v -0.75110 0.31380 0.09888
v -0.78528 0.21223 0.10338
v -0.80603 0.10703 0.10612
v -0.81299 -0.00000 0.10703
v -0.80603 -0.10703 0.10612
v -0.78528 -0.21223 0.10338
v -0.75110 -0.31380 0.09888
v -0.70407 -0.41000 0.09269
v -0.64498 -0.49918 0.08491
v -0.57487 -0.57983 0.07568
v -0.49491 -0.65055 0.06516
v -0.40649 -0.71014 0.05352
v -0.31112 -0.75758 0.04096
v -0.21042 -0.79206 0.02770
v -0.10612 -0.81298 0.01397
v -0.10703 0.81298 0.00000
v -0.21223 0.79206 0.00000
v -0.31380 0.75758 0.00000
v -0.41000 0.71014 0.00000
v -0.49918 0.65055 0.00000
v -0.57983 0.57983 0.00000
v -0.65055 0.49918 0.00000
v -0.71014 0.41000 0.00000
v -0.75758 0.31380 0.00000
v -0.79206 0.21223 0.00000
v -0.81299 0.10703 0.00000
v -0.82000 -0.00000 0.00000
v -0.81299 -0.10703 0.00000
v -0.79206 -0.21223 0.00000
v -0.75758 -0.31380 0.00000
v -0.71014 -0.41000 0.00000
v -0.65055 -0.49918 0.00000
v -0.57983 -0.57983 0.00000
v -0.49918 -0.65055 0.00000
v -0.41000 -0.71014 0.00000
v -0.31380 -0.75758 0.00000
v -0.21223 -0.79206 0.00000
v -0.10703 -0.81298 0.00000
v -0.10612 0.81298 -0.01397
v -0.21042 0.79206 -0.02770
v -0.31112 0.75758 -0.04096
v -0.40649 0.71014 -0.05352
v -0.49491 0.65055 -0.06516
v -0.57487 0.57983 -0.07568
v -0.64498 0.49918 -0.08491
v -0.70407 0.41000 -0.09269
v -0.75110 0.31380 -0.09888
v -0.78528 0.21223 -0.10338
v -0.80603 0.10703 -0.10612
v -0.81299 -0.00000 -0.10703
v -0.80603 -0.10703 -0.10612
v -0.78528 -0.21223 -0.10338
v -0.75110 -0.31380 -0.09888
v -0.70407 -0.41000 -0.09269
v -0.64498 -0.49918 -0.08491
v -0.57487 -0.57983 -0.07568
v -0.49491 -0.65055 -0.06516
v -0.40649 -0.71014 -0.05352
v -0.31112 -0.75758 -0.04096
v -0.21042 -0.79206 -0.02770
v -0.10612 -0.81298 -0.01397
v -0.10338 0.81298 -0.02770
v -0.20500 0.79206 -0.05493
v -0.30311 0.75758 -0.08122
v -0.39603 0.71014 -0.10612
v -0.48218 0.65055 -0.12920
v -0.56007 0.57983 -0.15007
v -0.62838 0.49918 -0.16837
v -0.68594 0.41000 -0.18380
v -0.73177 0.31380 -0.19608
v -0.76507 0.21223 -0.20500
v -0.78528 0.10703 -0.21042
v -0.79206 -0.00000 -0.21223
v -0.78528 -0.10703 -0.21042
v -0.76507 -0.21223 -0.20500
v -0.73177 -0.31380 -0.19608
v -0.68594 -0.41000 -0.18380
v -0.62838 -0.49918 -0.16837
v -0.56007 -0.57983 -0.15007
v -0.48218 -0.65055 -0.12920
v -0.39603 -0.71014 -0.10612
v -0.30311 -0.75758 -0.08122
v -0.20500 -0.79206 -0.05493
v -0.10338 -0.81298 -0.02770
v -0.09888 0.81298 -0.04096
v -0.19608 0.79206 -0.08122
v -0.28991 0.75758 -0.12009
v -0.37879 0.71014 -0.15690
v -0.46119 0.65055 -0.19103
v -0.53569 0.57983 -0.22189
v -0.60103 0.49918 -0.24895
v -0.65609 0.41000 -0.27176
v -0.69991 0.31380 -0.28991
v -0.73177 0.21223 -0.30311
v -0.75110 0.10703 -0.31112
v -0.75758 -0.00000 -0.31380
v -0.75110 -0.10703 -0.31112
v -0.73177 -0.21223 -0.30311
v -0.69991 -0.31380 -0.28991
v -0.65609 -0.41000 -0.27176
v -0.60103 -0.49918 -0.24895
v -0.53569 -0.57983 -0.22189
v -0.46119 -0.65055 -0.19103
v -0.37879 -0.71014 -0.15690
v -0.28991 -0.75758 -0.12009
v -0.19608 -0.79206 -0.08122
v -0.09888 -0.81298 -0.04096
v -0.09269 0.81298 -0.05352
v -0.18380 0.79206 -0.10612
v -0.27176 0.75758 -0.15690
v -0.35507 0.71014 -0.20500
v -0.43231 0.65055 -0.24959
v -0.50215 0.57983 -0.28991
v -0.56339 0.49918 -0.32527
v -0.61500 0.41000 -0.35507
v -0.65609 0.31380 -0.37879
v -0.68594 0.21223 -0.39603
v -0.70407 0.10703 -0.40649
v -0.71014 -0.00000 -0.41000
v -0.70407 -0.10703 -0.40649
v -0.68594 -0.21223 -0.39603
v -0.65609 -0.31380 -0.37879
v -0.61500 -0.41000 -0.35507
v -0.56339 -0.49918 -0.32527
v -0.50215 -0.57983 -0.28991
v -0.43231 -0.65055 -0.24959
v -0.35507 -0.71014 -0.20500
v -0.27176 -0.75758 -0.15690
v -0.18380 -0.79206 -0.10612
v -0.09269 -0.81298 -0.05352
v -0.08491 0.81298 -0.06516
v -0.16838 0.79206 -0.12920
v -0.24896 0.75758 -0.19103
v -0.32528 0.71014 -0.24959
v -0.39603 0.65055 -0.30388
v -0.46001 0.57983 -0.35298
v -0.51612 0.49918 -0.39603
v -0.56339 0.41000 -0.43231
v -0.60103 0.31380 -0.46119
v -0.62838 0.21223 -0.48217
v -0.64499 0.10703 -0.49491
v -0.65055 -0.00000 -0.49918
v -0.64499 -0.10703 -0.49491
v -0.62838 -0.21223 -0.48217
v -0.60103 -0.31380 -0.46119
v -0.56339 -0.41000 -0.43231
v -0.51612 -0.49918 -0.39603
v -0.46001 -0.57983 -0.35298
v -0.39603 -0.65055 -0.30388
v -0.32528 -0.71014 -0.24959
v -0.24896 -0.75758 -0.19103
v -0.16838 -0.79206 -0.12920
v -0.08491 -0.81298 -0.06516
v -0.07568 0.81298 -0.07568
v -0.15007 0.79206 -0.15007
v -0.22189 0.75758 -0.22189
v -0.28991 0.71014 -0.28991
v -0.35298 0.65055 -0.35298
v -0.41000 0.57983 -0.41000
v -0.46001 0.49918 -0.46001
v -0.50215 0.41000 -0.50215
v -0.53569 0.31380 -0.53569
v -0.56007 0.21223 -0.56007
v -0.57487 0.10703 -0.57487
v -0.57983 -0.00000 -0.57983
v -0.57487 -0.10703 -0.57487
v -0.56007 -0.21223 -0.56007
v -0.53569 -0.31380 -0.53569
v -0.50215 -0.41000 -0.50215
v -0.46001 -0.49918 -0.46001
v -0.41000 -0.57983 -0.41000
v -0.35298 -0.65055 -0.35298
v -0.28991 -0.71014 -0.28991
v -0.22189 -0.75758 -0.22189
v -0.15007 -0.79206 -0.15007
v -0.07568 -0.81298 -0.07568
v -0.06516 0.81298 -0.08491
v -0.12920 0.79206 -0.16837
v -0.19103 0.75758 -0.24895
v -0.24959 0.71014 -0.32527
v -0.30388 0.65055 -0.39603
v -0.35298 0.57983 -0.46001
v -0.39603 0.49918 -0.51612
v -0.43231 0.41000 -0.56339
v -0.46119 0.31380 -0.60103
v -0.48218 0.21223 -0.62838
v -0.49491 0.10703 -0.64498
v -0.49918 -0.00000 -0.65055
v -0.49491 -0.10703 -0.64498
v -0.48218 -0.21223 -0.62838
v -0.46119 -0.31380 -0.60103
v -0.43231 -0.41000 -0.56339
v -0.39603 -0.49918 -0.51612
v -0.35298 -0.57983 -0.46001
v -0.30388 -0.65055 -0.39603
v -0.24959 -0.71014 -0.32527
v -0.19103 -0.75758 -0.24895
v -0.12920 -0.79206 -0.16837
v -0.06516 -0.81298 -0.08491
v -0.05352 0.81298 -0.09269
v -0.10612 0.79206 -0.18380
v -0.15690 0.75758 -0.27176
v -0.20500 0.71014 -0.35507
v -0.24959 0.65055 -0.43231
v -0.28991 0.57983 -0.50215
v -0.32528 0.49918 -0.56339
v -0.35507 0.41000 -0.61500
v -0.37879 0.31380 -0.65608
v -0.39603 0.21223 -0.68594
v -0.40649 0.10703 -0.70407
v -0.41000 -0.00000 -0.71014
v -0.40649 -0.10703 -0.70407
v -0.39603 -0.21223 -0.68594
v -0.37879 -0.31380 -0.65608
v -0.35507 -0.41000 -0.61500
v -0.32528 -0.49918 -0.56339
v -0.28991 -0.57983 -0.50215
v -0.24959 -0.65055 -0.43231
v -0.20500 -0.71014 -0.35507
v -0.15690 -0.75758 -0.27176
v -0.10612 -0.79206 -0.18380
v -0.05352 -0.81298 -0.09269
v -0.04096 0.81298 -0.09888
v -0.08122 0.79206 -0.19608
v -0.12009 0.75758 -0.28991
v -0.15690 0.71014 -0.37879
v -0.19103 0.65055 -0.46119
v -0.22189 0.57983 -0.53569
v -0.24896 0.49918 -0.60103
v -0.27176 0.41000 -0.65608
v -0.28991 0.31380 -0.69991
v -0.30311 0.21223 -0.73177
v -0.31112 0.10703 -0.75110
v -0.31380 -0.00000 -0.75758
v -0.31112 -0.10703 -0.75110
v -0.30311 -0.21223 -0.73177
v -0.28991 -0.31380 -0.69991
v -0.27176 -0.41000 -0.65608
v -0.24896 -0.49918 -0.60103
v -0.22189 -0.57983 -0.53569
v -0.19103 -0.65055 -0.46119
v -0.15690 -0.71014 -0.37879
v -0.12009 -0.75758 -0.28991
v -0.08122 -0.79206 -0.19608
v -0.04096 -0.81298 -0.09888
v -0.02770 0.81298 -0.10338
v -0.05493 0.79206 -0.20500
v -0.08122 0.75758 -0.30311
v -0.10612 0.71014 -0.39603
v -0.12920 0.65055 -0.48217
v -0.15007 0.57983 -0.56007
v -0.16838 0.49918 -0.62838
v -0.18380 0.41000 -0.68594
v -0.19608 0.31380 -0.73177
v -0.20500 0.21223 -0.76507
v -0.21042 0.10703 -0.78528
v -0.21223 -0.00000 -0.79206
v -0.21042 -0.10703 -0.78528
v -0.20500 -0.21223 -0.76507
v -0.19608 -0.31380 -0.73177
v -0.18380 -0.41000 -0.68594
v -0.16838 -0.49918 -0.62838
v -0.15007 -0.57983 -0.56007
v -0.12920 -0.65055 -0.48217
v -0.10612 -0.71014 -0.39603
v -0.08122 -0.75758 -0.30311
v -0.05493 -0.79206 -0.20500
v -0.02770 -0.81298 -0.10338
v -0.01397 0.81298 -0.10612
v -0.02770 0.79206 -0.21042
v -0.04096 0.75758 -0.31112
v -0.05352 0.71014 -0.40649
v -0.06516 0.65055 -0.49491
v -0.07568 0.57983 -0.57487
v -0.08491 0.49918 -0.64498
v -0.09269 0.41000 -0.70407
v -0.09888 0.31380 -0.75110
v -0.10338 0.21223 -0.78528
v -0.10612 0.10703 -0.80603
v -0.10703 -0.00000 -0.81299
v -0.10612 -0.10703 -0.80603
v -0.10338 -0.21223 -0.78528
v -0.09888 -0.31380 -0.75110
v -0.09269 -0.41000 -0.70407
v -0.08491 -0.49918 -0.64498
v -0.07568 -0.57983 -0.57487
v -0.06516 -0.65055 -0.49491
v -0.05352 -0.71014 -0.40649
v -0.04096 -0.75758 -0.31112
v -0.02770 -0.79206 -0.21042
v -0.01397 -0.81298 -0.10612
v -0.00000 0.81298 -0.10703
v -0.00000 0.79206 -0.21223
v -0.00000 0.75758 -0.31380
v -0.00000 0.71014 -0.41000
v -0.00000 0.65055 -0.49918
v -0.00000 0.57983 -0.57983
v -0.00000 0.49918 -0.65055
v -0.00000 0.41000 -0.71014
v -0.00000 0.31380 -0.75758
v -0.00000 0.21223 -0.79206
v -0.00000 0.10703 -0.81299
v -0.00000 -0.00000 -0.82000
v -0.00000 -0.10703 -0.81299
v -0.00000 -0.21223 -0.79206
v -0.00000 -0.31380 -0.75758
v -0.00000 -0.41000 -0.71014
v -0.00000 -0.49918 -0.65055
v -0.00000 -0.57983 -0.57983
v -0.00000 -0.65055 -0.49918
v -0.00000 -0.71014 -0.41000
v -0.00000 -0.75758 -0.31380
v -0.00000 -0.79206 -0.21223
v -0.00000 -0.81298 -0.10703
v 0.01397 0.81298 -0.10612
v 0.02770 0.79206 -0.21042
v 0.04096 0.75758 -0.31112
v 0.05352 0.71014 -0.40649
v 0.06516 0.65055 -0.49491
v 0.07568 0.57983 -0.57487
v 0.08491 0.49918 -0.64498
v 0.09269 0.41000 -0.70407
v 0.09888 0.31380 -0.75110
v 0.10338 0.21223 -0.78528
v 0.10612 0.10703 -0.80603
v 0.10703 -0.00000 -0.81299
v 0.10612 -0.10703 -0.80603
v 0.10338 -0.21223 -0.78528
v 0.09888 -0.31380 -0.75110
v 0.09269 -0.41000 -0.70407
v 0.08491 -0.49918 -0.64498
v 0.07568 -0.57983 -0.57487
v 0.06516 -0.65055 -0.49491
v 0.05352 -0.71014 -0.40649
v 0.04096 -0.75758 -0.31112
v 0.02770 -0.79206 -0.21042
v 0.01397 -0.81298 -0.10612
v 0.02770 0.81298 -0.10338
v 0.05493 0.79206 -0.20500
v 0.08122 0.75758 -0.30311
v 0.10612 0.71014 -0.39603
v 0.12920 0.65055 -0.48217
v 0.15007 0.57983 -0.56007
v 0.16837 0.49918 -0.62838
v 0.18380 0.41000 -0.68594
v 0.19608 0.31380 -0.73177
v 0.20500 0.21223 -0.76507
v 0.21042 0.10703 -0.78528
v 0.21223 -0.00000 -0.79206
v 0.21042 -0.10703 -0.78528
v 0.20500 -0.21223 -0.76507
v 0.19608 -0.31380 -0.73177
v 0.18380 -0.41000 -0.68594
v 0.16837 -0.49918 -0.62838
v 0.15007 -0.57983 -0.56007
v 0.12920 -0.65055 -0.48217
v 0.10612 -0.71014 -0.39603
v 0.08122 -0.75758 -0.30311
v 0.05493 -0.79206 -0.20500
v 0.02770 -0.81298 -0.10338
v 0.04096 0.81298 -0.09888
v 0.08122 0.79206 -0.19608
v 0.12009 0.75758 -0.28991
v 0.15690 0.71014 -0.37879
v 0.19103 0.65055 -0.46119
v 0.22189 0.57983 -0.53569
v 0.24895 0.49918 -0.60103
v 0.27176 0.41000 -0.65608
v 0.28991 0.31380 -0.69991
v 0.30311 0.21223 -0.73177
v 0.31112 0.10703 -0.75110
v 0.31380 -0.00000 -0.75758
v 0.31112 -0.10703 -0.75110
v 0.30311 -0.21223 -0.73177
v 0.28991 -0.31380 -0.69991
v 0.27176 -0.41000 -0.65608
v 0.24895 -0.49918 -0.60103
v 0.22189 -0.57983 -0.53569
v 0.19103 -0.65055 -0.46119
v 0.15690 -0.71014 -0.37879
v 0.12009 -0.75758 -0.28991
v 0.08122 -0.79206 -0.19608
v 0.04096 -0.81298 -0.09888
v 0.05352 0.81298 -0.09269
v 0.10612 0.79206 -0.18380
v 0.15690 0.75758 -0.27176
v 0.20500 0.71014 -0.35507
v 0.24959 0.65055 -0.43231
v 0.28991 0.57983 -0.50215
v 0.32527 0.49918 -0.56339
v 0.35507 0.41000 -0.61500
v 0.37879 0.31380 -0.65609
v 0.39603 0.21223 -0.68594
v 0.40649 0.10703 -0.70407
v 0.41000 -0.00000 -0.71014
v 0.40649 -0.10703 -0.70407
v 0.39603 -0.21223 -0.68594
v 0.37879 -0.31380 -0.65609
v 0.35507 -0.41000 -0.61500
v 0.32527 -0.49918 -0.56339
v 0.28991 -0.57983 -0.50215
v 0.24959 -0.65055 -0.43231
v 0.20500 -0.71014 -0.35507
v 0.15690 -0.75758 -0.27176
v 0.10612 -0.79206 -0.18380
v 0.05352 -0.81298 -0.09269
v 0.06516 0.81298 -0.08491
v 0.12920 0.79206 -0.16837
v 0.19103 0.75758 -0.24895
v 0.24959 0.71014 -0.32527
v 0.30388 0.65055 -0.39603
v 0.35298 0.57983 -0.46001
v 0.39603 0.49918 -0.51612
v 0.43231 0.41000 -0.56339
v 0.46119 0.31380 -0.60103
v 0.48218 0.21223 -0.62838
v 0.49491 0.10703 -0.64498
v 0.49918 -0.00000 -0.65055
v 0.49491 -0.10703 -0.64498
v 0.48218 -0.21223 -0.62838
v 0.46119 -0.31380 -0.60103
v 0.43231 -0.41000 -0.56339
v 0.39603 -0.49918 -0.51612
v 0.35298 -0.57983 -0.46001
v 0.30388 -0.65055 -0.39603
v 0.24959 -0.71014 -0.32527
v 0.19103 -0.75758 -0.24895
v 0.12920 -0.79206 -0.16837
v 0.06516 -0.81298 -0.08491
v 0.07568 0.81298 -0.07568
v 0.15007 0.79206 -0.15007
v 0.22189 0.75758 -0.22189
v 0.28991 0.71014 -0.28991
v 0.35298 0.65055 -0.35298
v 0.41000 0.57983 -0.41000
v 0.46001 0.49918 -0.46001
v 0.50215 0.41000 -0.50215
v 0.53569 0.31380 -0.53569
v 0.56007 0.21223 -0.56007
v 0.57487 0.10703 -0.57487
v 0.57983 -0.00000 -0.57983
v 0.57487 -0.10703 -0.57487
v 0.56007 -0.21223 -0.56007
v 0.53569 -0.31380 -0.53569
v 0.50215 -0.41000 -0.50215
v 0.46001 -0.49918 -0.46001
v 0.41000 -0.57983 -0.41000
v 0.35298 -0.65055 -0.35298
v 0.28991 -0.71014 -0.28991
v 0.22189 -0.75758 -0.22189
v 0.15007 -0.79206 -0.15007
v 0.07568 -0.81298 -0.07568
v 0.08491 0.81298 -0.06516
v 0.16837 0.79206 -0.12920
v 0.24895 0.75758 -0.19103
v 0.32527 0.71014 -0.24959
v 0.39603 0.65055 -0.30388
v 0.46001 0.57983 -0.35298
v 0.51612 0.49918 -0.39603
v 0.56339 0.41000 -0.43231
v 0.60103 0.31380 -0.46119
v 0.62838 0.21223 -0.48218
v 0.64498 0.10703 -0.49491
v 0.65055 -0.00000 -0.49918
v 0.64498 -0.10703 -0.49491
v 0.62838 -0.21223 -0.48218
v 0.60103 -0.31380 -0.46119
v 0.56339 -0.41000 -0.43231
v 0.51612 -0.49918 -0.39603
v 0.46001 -0.57983 -0.35298
v 0.39603 -0.65055 -0.30388
v 0.32527 -0.71014 -0.24959
v 0.24895 -0.75758 -0.19103
v 0.16837 -0.79206 -0.12920
v 0.08491 -0.81298 -0.06516
v 0.09269 0.81298 -0.05352
v 0.18380 0.79206 -0.10612
v 0.27176 0.75758 -0.15690
v 0.35507 0.71014 -0.20500
v 0.43231 0.65055 -0.24959
v 0.50215 0.57983 -0.28991
v 0.56339 0.49918 -0.32527
v 0.61500 0.41000 -0.35507
v 0.65609 0.31380 -0.37879
v 0.68594 0.21223 -0.39603
v 0.70407 0.10703 -0.40649
v 0.71014 -0.00000 -0.41000
v 0.70407 -0.10703 -0.40649
v 0.68594 -0.21223 -0.39603
v 0.65609 -0.31380 -0.37879
v 0.61500 -0.41000 -0.35507
v 0.56339 -0.49918 -0.32527
v 0.50215 -0.57983 -0.28991
v 0.43231 -0.65055 -0.24959
v 0.35507 -0.71014 -0.20500
v 0.27176 -0.75758 -0.15690
v 0.18380 -0.79206 -0.10612
v 0.09269 -0.81298 -0.05352
v 0.09888 0.81298 -0.04096
v 0.19608 0.79206 -0.08122
v 0.28991 0.75758 -0.12009
v 0.37879 0.71014 -0.15690
v 0.46119 0.65055 -0.19103
v 0.53569 0.57983 -0.22189
v 0.60103 0.49918 -0.24895
v 0.65608 0.41000 -0.27176
v 0.69991 0.31380 -0.28991
v 0.73177 0.21223 -0.30311
v 0.75110 0.10703 -0.31112
v 0.75758 -0.00000 -0.31380
v 0.75110 -0.10703 -0.31112
v 0.73177 -0.21223 -0.30311
v 0.69991 -0.31380 -0.28991
v 0.65608 -0.41000 -0.27176
v 0.60103 -0.49918 -0.24895
v 0.53569 -0.57983 -0.22189
v 0.46119 -0.65055 -0.19103
v 0.37879 -0.71014 -0.15690
v 0.28991 -0.75758 -0.12009
v 0.19608 -0.79206 -0.08122
v 0.09888 -0.81298 -0.04096
v 0.10338 0.81298 -0.02770
v 0.20500 0.79206 -0.05493
v 0.30311 0.75758 -0.08122
v 0.39603 0.71014 -0.10612
v 0.48218 0.65055 -0.12920
v 0.56007 0.57983 -0.15007
v 0.62838 0.49918 -0.16837
v 0.68594 0.41000 -0.18380
v 0.73177 0.31380 -0.19608
v 0.76507 0.21223 -0.20500
v 0.78528 0.10703 -0.21042
v 0.79206 -0.00000 -0.21223
v 0.78528 -0.10703 -0.21042
v 0.76507 -0.21223 -0.20500
v 0.73177 -0.31380 -0.19608
v 0.68594 -0.41000 -0.18380
v 0.62838 -0.49918 -0.16837
v 0.56007 -0.57983 -0.15007
v 0.48218 -0.65055 -0.12920
v 0.39603 -0.71014 -0.10612
v 0.30311 -0.75758 -0.08122
v 0.20500 -0.79206 -0.05493
v 0.10338 -0.81298 -0.02770
v 0.10612 0.81298 -0.01397
v 0.21042 0.79206 -0.02770
v 0.31112 0.75758 -0.04096
v 0.40649 0.71014 -0.05352
v 0.49491 0.65055 -0.06516
v 0.57487 0.57983 -0.07568
v 0.64498 0.49918 -0.08491
v 0.70407 0.41000 -0.09269
v 0.75110 0.31380 -0.09888
v 0.78528 0.21223 -0.10338
v 0.80603 0.10703 -0.10612
v 0.81299 -0.00000 -0.10703
v 0.80603 -0.10703 -0.10612
v 0.78528 -0.21223 -0.10338
v 0.75110 -0.31380 -0.09888
v 0.70407 -0.41000 -0.09269
v 0.64498 -0.49918 -0.08491
v 0.57487 -0.57983 -0.07568
v 0.49491 -0.65055 -0.06516
v 0.40649 -0.71014 -0.05352
v 0.31112 -0.75758 -0.04096
v 0.21042 -0.79206 -0.02770
v 0.10612 -0.81298 -0.01397
v 0.10703 0.81298 0.00000
v 0.21223 0.79206 0.00000
v 0.31380 0.75758 0.00000
v 0.41000 0.71014 0.00000
v 0.49918 0.65055 0.00000
v 0.57983 0.57983 0.00000
v 0.65055 0.49918 0.00000
v 0.71014 0.41000 0.00000
v 0.75758 0.31380 0.00000
v 0.79206 0.21223 0.00000
v 0.81299 0.10703 0.00000
v 0.82000 -0.00000 0.00000
v 0.81299 -0.10703 0.00000
v 0.79206 -0.21223 0.00000
v 0.75758 -0.31380 0.00000
v 0.71014 -0.41000 0.00000
v 0.65055 -0.49918 0.00000
v 0.57983 -0.57983 0.00000
v 0.49918 -0.65055 0.00000
v 0.41000 -0.71014 0.00000
v 0.31380 -0.75758 0.00000
v 0.21223 -0.79206 0.00000
v 0.10703 -0.81298 0.00000
v 0.10612 0.81298 0.01397
v 0.21042 0.79206 0.02770
v 0.31112 0.75758 0.04096
v 0.40649 0.71014 0.05352
v 0.49491 0.65055 0.06516
v 0.57487 0.57983 0.07568
v 0.64498 0.49918 0.08491
v 0.70407 0.41000 0.09269
v 0.75110 0.31380 0.09888
v 0.78528 0.21223 0.10338
v 0.80603 0.10703 0.10612
v 0.81299 -0.00000 0.10703
v 0.80603 -0.10703 0.10612
v 0.78528 -0.21223 0.10338
v 0.75110 -0.31380 0.09888
v 0.70407 -0.41000 0.09269
v 0.64498 -0.49918 0.08491
v 0.57487 -0.57983 0.07568
v 0.49491 -0.65055 0.06516
v 0.40649 -0.71014 0.05352
v 0.31112 -0.75758 0.04096
v 0.21042 -0.79206 0.02770
v 0.10612 -0.81298 0.01397
v 0.10338 0.81298 0.02770
v 0.20500 0.79206 0.05493
v 0.30311 0.75758 0.08122
v 0.39603 0.71014 0.10612
v 0.48218 0.65055 0.12920
v 0.56007 0.57983 0.15007
v 0.62838 0.49918 0.16838
v 0.68594 0.41000 0.18380
v 0.73177 0.31380 0.19608
v 0.76507 0.21223 0.20500
v 0.78528 0.10703 0.21042
v 0.79206 -0.00000 0.21223
v 0.78528 -0.10703 0.21042
v 0.76507 -0.21223 0.20500
v 0.73177 -0.31380 0.19608
v 0.68594 -0.41000 0.18380
v 0.62838 -0.49918 0.16838
v 0.56007 -0.57983 0.15007
v 0.48218 -0.65055 0.12920
v 0.39603 -0.71014 0.10612
v 0.30311 -0.75758 0.08122
v 0.20500 -0.79206 0.05493
v 0.10338 -0.81298 0.02770
v 0.09888 0.81298 0.04096
v 0.19608 0.79206 0.08122
v 0.28991 0.75758 0.12009
v 0.37879 0.71014 0.15690
v 0.46119 0.65055 0.19103
v 0.53569 0.57983 0.22189
v 0.60103 0.49918 0.24896
v 0.65608 0.41000 0.27176
v 0.69991 0.31380 0.28991
v 0.73177 0.21223 0.30311
v 0.75110 0.10703 0.31112
v 0.75758 -0.00000 0.31380
v 0.75110 -0.10703 0.31112
v 0.73177 -0.21223 0.30311
v 0.69991 -0.31380 0.28991
v 0.65608 -0.41000 0.27176
v 0.60103 -0.49918 0.24896
v 0.53569 -0.57983 0.22189
v 0.46119 -0.65055 0.19103
v 0.37879 -0.71014 0.15690
v 0.28991 -0.75758 0.12009
v 0.19608 -0.79206 0.08122
v 0.09888 -0.81298 0.04096
v 0.09269 0.81298 0.05352
v 0.18380 0.79206 0.10612
v 0.27176 0.75758 0.15690
v 0.35507 0.71014 0.20500
v 0.43231 0.65055 0.24959
v 0.50215 0.57983 0.28991
v 0.56339 0.49918 0.32528
v 0.61500 0.41000 0.35507
v 0.65609 0.31380 0.37879
v 0.68594 0.21223 0.39603
v 0.70407 0.10703 0.40649
v 0.71014 -0.00000 0.41000
v 0.70407 -0.10703 0.40649
v 0.68594 -0.21223 0.39603
v 0.65609 -0.31380 0.37879
v 0.61500 -0.41000 0.35507
v 0.56339 -0.49918 0.32528
v 0.50215 -0.57983 0.28991
v 0.43231 -0.65055 0.24959
v 0.35507 -0.71014 0.20500
v 0.27176 -0.75758 0.15690
v 0.18380 -0.79206 0.10612
v 0.09269 -0.81298 0.05352
v 0.08491 0.81298 0.06516
v 0.16837 0.79206 0.12920
v 0.24895 0.75758 0.19103
v 0.32527 0.71014 0.24959
v 0.39603 0.65055 0.30388
v 0.46001 0.57983 0.35298
v 0.51612 0.49918 0.39603
v 0.56339 0.41000 0.43231
v 0.60103 0.31380 0.46119
v 0.62838 0.21223 0.48218
v 0.64498 0.10703 0.49491
v 0.65055 -0.00000 0.49919
v 0.64498 -0.10703 0.49491
v 0.62838 -0.21223 0.48218
v 0.60103 -0.31380 0.46119
v 0.56339 -0.41000 0.43231
v 0.51612 -0.49918 0.39603
v 0.46001 -0.57983 0.35298
v 0.39603 -0.65055 0.30388
v 0.32527 -0.71014 0.24959
v 0.24895 -0.75758 0.19103
v 0.16837 -0.79206 0.12920
v 0.08491 -0.81298 0.06516
v 0.07568 0.81298 0.07568
v 0.15007 0.79206 0.15007
v 0.22189 0.75758 0.22189
v 0.28991 0.71014 0.28991
v 0.35298 0.65055 0.35298
v 0.41000 0.57983 0.41000
v 0.46001 0.49918 0.46001
v 0.50215 0.41000 0.50215
v 0.53569 0.31380 0.53569
v 0.56007 0.21223 0.56007
v 0.57487 0.10703 0.57487
v 0.57983 -0.00000 0.57983
v 0.57487 -0.10703 0.57487
v 0.56007 -0.21223 0.56007
v 0.53569 -0.31380 0.53569
v 0.50215 -0.41000 0.50215
v 0.46001 -0.49918 0.46001
v 0.41000 -0.57983 0.41000
v 0.35298 -0.65055 0.35298
v 0.28991 -0.71014 0.28991
v 0.22189 -0.75758 0.22189
v 0.15007 -0.79206 0.15007
v 0.07568 -0.81298 0.07568
v 0.06516 0.81298 0.08491
v 0.12920 0.79206 0.16838
v 0.19103 0.75758 0.24896
v 0.24959 0.71014 0.32528
v 0.30388 0.65055 0.39603
v 0.35298 0.57983 0.46001
v 0.39603 0.49918 0.51612
v 0.43231 0.41000 0.56339
v 0.46119 0.31380 0.60103
v 0.48218 0.21223 0.62838
v 0.49491 0.10703 0.64499
v 0.49918 -0.00000 0.65055
v 0.49491 -0.10703 0.64499
v 0.48218 -0.21223 0.62838
v 0.46119 -0.31380 0.60103
v 0.43231 -0.41000 0.56339
v 0.39603 -0.49918 0.51612
v 0.35298 -0.57983 0.46001
v 0.30388 -0.65055 0.39603
v 0.24959 -0.71014 0.32528
v 0.19103 -0.75758 0.24896
v 0.12920 -0.79206 0.16838
v 0.06516 -0.81298 0.08491
v 0.05352 0.81298 0.09269
v 0.10612 0.79206 0.18380
v 0.15690 0.75758 0.27176
v 0.20500 0.71014 0.35507
v 0.24959 0.65055 0.43231
v 0.28991 0.57983 0.50215
v 0.32527 0.49918 0.56339
v 0.35507 0.41000 0.61500
v 0.37879 0.31380 0.65609
v 0.39603 0.21223 0.68594
v 0.40649 0.10703 0.70407
v 0.41000 -0.00000 0.71014
v 0.40649 -0.10703 0.70407
v 0.39603 -0.21223 0.68594
v 0.37879 -0.31380 0.65609
v 0.35507 -0.41000 0.61500
v 0.32527 -0.49918 0.56339
v 0.28991 -0.57983 0.50215
v 0.24959 -0.65055 0.43231
v 0.20500 -0.71014 0.35507
v 0.15690 -0.75758 0.27176
v 0.10612 -0.79206 0.18380
v 0.05352 -0.81298 0.09269
v 0.04096 0.81298 0.09888
v 0.08122 0.79206 0.19608
v 0.12009 0.75758 0.28991
v 0.15690 0.71014 0.37879
v 0.19103 0.65055 0.46119
v 0.22189 0.57983 0.53569
v 0.24895 0.49918 0.60103
v 0.27176 0.41000 0.65609
v 0.28991 0.31380 0.69992
v 0.30311 0.21223 0.73177
v 0.31112 0.10703 0.75110
v 0.31380 -0.00000 0.75758
v 0.31112 -0.10703 0.75110
v 0.30311 -0.21223 0.73177
v 0.28991 -0.31380 0.69992
v 0.27176 -0.41000 0.65609
v 0.24895 -0.49918 0.60103
v 0.22189 -0.57983 0.53569
v 0.19103 -0.65055 0.46119
v 0.15690 -0.71014 0.37879
v 0.12009 -0.75758 0.28991
v 0.08122 -0.79206 0.19608
v 0.04096 -0.81298 0.09888
v 0.02770 0.81298 0.10338
v 0.05493 0.79206 0.20500
v 0.08122 0.75758 0.30311
v 0.10612 0.71014 0.39603
v 0.12920 0.65055 0.48218
v 0.15007 0.57983 0.56007
v 0.16837 0.49918 0.62838
v 0.18380 0.41000 0.68594
v 0.19608 0.31380 0.73177
v 0.20500 0.21223 0.76507
v 0.21042 0.10703 0.78528
v 0.21223 -0.00000 0.79206
v 0.21042 -0.10703 0.78528
v 0.20500 -0.21223 0.76507
v 0.19608 -0.31380 0.73177
v 0.18380 -0.41000 0.68594
v 0.16837 -0.49918 0.62838
v 0.15007 -0.57983 0.56007
v 0.12920 -0.65055 0.48218
v 0.10612 -0.71014 0.39603
v 0.08122 -0.75758 0.30311
v 0.05493 -0.79206 0.20500
v 0.02770 -0.81298 0.10338
v 0.01397 0.81298 0.10612
v 0.02770 0.79206 0.21042
v 0.04096 0.75758 0.31112
v 0.05352 0.71014 0.40649
v 0.06516 0.65055 0.49491
v 0.07568 0.57983 0.57487
v 0.08491 0.49918 0.64499
v 0.09269 0.41000 0.70407
v 0.09888 0.31380 0.75110
v 0.10338 0.21223 0.78528
v 0.10612 0.10703 0.80603
v 0.10703 -0.00000 0.81299
v 0.10612 -0.10703 0.80603
v 0.10338 -0.21223 0.78528
v 0.09888 -0.31380 0.75110
v 0.09269 -0.41000 0.70407
v 0.08491 -0.49918 0.64499
v 0.07568 -0.57983 0.57487
v 0.06516 -0.65055 0.49491
v 0.05352 -0.71014 0.40649
v 0.04096 -0.75758 0.31112
v 0.02770 -0.79206 0.21042
v 0.01397 -0.81298 0.10612
v -0.00000 0.81298 0.10703
v -0.00000 0.21223 0.79206
v -0.00000 -0.21223 0.79206
v -0.00000 -0.41000 0.71014
v -0.00000 -0.49918 0.65055
s 1
f 3 24 4
s 1
f 14 39 15
s 1
f 10 32 11
s 1
f 5 24 25
s 1
f 15 40 16
s 1
f 11 33 12
s 1
f 6 25 26
s 1
f 17 40 41
s 1
f 1104 33 34
s 1
f 6 27 7
s 1
f 17 42 18
s 1
f 13 34 35
s 1
f 7 28 8
s 1
f 18 43 19
s 1
f 1102 1 21
s 1
f 1105 35 36
s 1
f 9 28 29
s 1
f 20 19 43
s 1
f 1102 22 2
s 1
f 1106 36 37
s 1
f 9 30 1103
s 1
f 3 22 23
s 1
f 14 37 38
s 1
f 1103 31 10
s 1
f 36 60 37
s 1
f 29 53 30
s 1
f 22 46 23
s 1
f 37 61 38
s 1
f 30 54 31
s 1
f 23 47 24
s 1
f 38 62 39
s 1
f 31 55 32
s 1
f 24 48 25
s 1
f 39 63 40
s 1
f 32 56 33
s 1
f 25 49 26
s 1
f 40 64 41
s 1
f 33 57 34
s 1
f 26 50 27
s 1
f 41 65 42
s 1
f 34 58 35
s 1
f 27 51 28
s 1
f 43 65 66
s 1
f 21 1 44
s 1
f 35 59 36
s 1
f 29 51 52
s 1
f 20 43 66
s 1
f 21 45 22
s 1
f 47 71 48
s 1
f 63 85 86
s 1
f 55 79 56
s 1
f 49 71 72
s 1
f 63 87 64
s 1
f 56 80 57
s 1
f 50 72 73
s 1
f 64 88 65
s 1
f 57 81 58
s 1
f 51 73 74
s 1
f 66 88 89
s 1
f 44 1 67
s 1
f 58 82 59
s 1
f 51 75 52
s 1
f 20 66 89
s 1
f 44 68 45
s 1
f 59 83 60
s 1
f 53 75 76
s 1
f 45 69 46
s 1
f 60 84 61
s 1
f 53 77 54
s 1
f 46 70 47
s 1
f 62 84 85
s 1
f 55 77 78
s 1
f 73 97 74
s 1
f 89 111 112
s 1
f 67 1 90
s 1
f 81 105 82
s 1
f 75 97 98
s 1
f 20 89 112
s 1
f 67 91 68
s 1
f 82 106 83
s 1
f 76 98 99
s 1
f 69 91 92
s 1
f 84 106 107
s 1
f 76 100 77
s 1
f 70 92 93
s 1
f 85 107 108
s 1
f 78 100 101
s 1
f 71 93 94
s 1
f 85 109 86
s 1
f 78 102 79
s 1
f 71 95 72
s 1
f 86 110 87
s 1
f 80 102 103
s 1
f 73 95 96
s 1
f 87 111 88
s 1
f 80 104 81
s 1
f 106 130 107
s 1
f 99 123 100
s 1
f 93 115 116
s 1
f 108 130 131
s 1
f 101 123 124
s 1
f 93 117 94
s 1
f 108 132 109
s 1
f 101 125 102
s 1
f 94 118 95
s 1
f 109 133 110
s 1
f 103 125 126
s 1
f 96 118 119
s 1
f 110 134 111
s 1
f 103 127 104
s 1
f 97 119 120
s 1
f 111 135 112
s 1
f 90 1 113
s 1
f 104 128 105
s 1
f 98 120 121
s 1
f 20 112 135
s 1
f 90 114 91
s 1
f 105 129 106
s 1
f 99 121 122
s 1
f 91 115 92
s 1
f 117 141 118
s 1
f 132 156 133
s 1
f 126 148 149
s 1
f 119 141 142
s 1
f 133 157 134
s 1
f 126 150 127
s 1
f 120 142 143
s 1
f 134 158 135
s 1
f 113 1 136
s 1
f 127 151 128
s 1
f 121 143 144
s 1
f 20 135 158
s 1
f 114 136 137
s 1
f 128 152 129
s 1
f 122 144 145
s 1
f 114 138 115
s 1
f 129 153 130
s 1
f 122 146 123
s 1
f 115 139 116
s 1
f 130 154 131
s 1
f 124 146 147
s 1
f 117 139 140
s 1
f 131 155 132
s 1
f 124 148 125
s 1
f 144 166 167
s 1
f 20 158 181
s 1
f 136 160 137
s 1
f 152 174 175
s 1
f 145 167 168
s 1
f 137 161 138
s 1
f 152 176 153
s 1
f 145 169 146
s 1
f 138 162 139
s 1
f 153 177 154
s 1
f 147 169 170
s 1
f 140 162 163
s 1
f 154 178 155
s 1
f 147 171 148
s 1
f 140 164 141
s 1
f 155 179 156
s 1
f 149 171 172
s 1
f 142 164 165
s 1
f 156 180 157
s 1
f 150 172 173
s 1
f 142 166 143
s 1
f 157 181 158
s 1
f 136 1 159
s 1
f 150 174 151
s 1
f 177 199 200
s 1
f 170 192 193
s 1
f 163 185 186
s 1
f 177 201 178
s 1
f 170 194 171
s 1
f 163 187 164
s 1
f 178 202 179
s 1
f 172 194 195
s 1
f 165 187 188
s 1
f 179 203 180
s 1
f 172 196 173
s 1
f 165 189 166
s 1
f 180 204 181
s 1
f 159 1 182
s 1
f 173 197 174
s 1
f 167 189 190
s 1
f 20 181 204
s 1
f 159 183 160
s 1
f 175 197 198
s 1
f 168 190 191
s 1
f 161 183 184
s 1
f 175 199 176
s 1
f 168 192 169
s 1
f 161 185 162
s 1
f 188 210 211
s 1
f 202 226 203
s 1
f 196 218 219
s 1
f 188 212 189
s 1
f 203 227 204
s 1
f 182 1 205
s 1
f 196 220 197
s 1
f 189 213 190
s 1
f 20 204 227
s 1
f 183 205 206
s 1
f 197 221 198
s 1
f 190 214 191
s 1
f 183 207 184
s 1
f 198 222 199
s 1
f 191 215 192
s 1
f 185 207 208
s 1
f 200 222 223
s 1
f 193 215 216
s 1
f 186 208 209
s 1
f 200 224 201
s 1
f 193 217 194
s 1
f 186 210 187
s 1
f 201 225 202
s 1
f 194 218 195
s 1
f 213 237 214
s 1
f 206 230 207
s 1
f 222 244 245
s 1
f 214 238 215
s 1
f 208 230 231
s 1
f 223 245 246
s 1
f 216 238 239
s 1
f 209 231 232
s 1
f 223 247 224
s 1
f 216 240 217
s 1
f 209 233 210
s 1
f 224 248 225
s 1
f 218 240 241
s 1
f 211 233 234
s 1
f 225 249 226
s 1
f 218 242 219
s 1
f 211 235 212
s 1
f 226 250 227
s 1
f 205 1 228
s 1
f 219 243 220
s 1
f 213 235 236
s 1
f 20 227 250
s 1
f 205 229 206
s 1
f 221 243 244
s 1
f 246 270 247
s 1
f 239 263 240
s 1
f 232 256 233
s 1
f 247 271 248
s 1
f 240 264 241
s 1
f 234 256 257
s 1
f 248 272 249
s 1
f 241 265 242
s 1
f 234 258 235
s 1
f 249 273 250
s 1
f 228 1 251
s 1
f 242 266 243
s 1
f 235 259 236
s 1
f 20 250 273
s 1
f 228 252 229
s 1
f 243 267 244
s 1
f 237 259 260
s 1
f 230 252 253
s 1
f 244 268 245
s 1
f 237 261 238
s 1
f 230 254 231
s 1
f 246 268 269
s 1
f 239 261 262
s 1
f 232 254 255
s 1
f 257 281 258
s 1
f 272 296 273
s 1
f 251 1 274
s 1
f 265 289 266
s 1
f 259 281 282
s 1
f 20 273 296
s 1
f 251 275 252
s 1
f 266 290 267
s 1
f 259 283 260
s 1
f 253 275 276
s 1
f 267 291 268
s 1
f 260 284 261
s 1
f 253 277 254
s 1
f 269 291 292
s 1
f 262 284 285
s 1
f 255 277 278
s 1
f 269 293 270
s 1
f 262 286 263
s 1
f 255 279 256
s 1
f 271 293 294
s 1
f 263 287 264
s 1
f 257 279 280
s 1
f 271 295 272
s 1
f 265 287 288
s 1
f 283 307 284
s 1
f 277 299 300
s 1
f 292 314 315
s 1
f 285 307 308
s 1
f 278 300 301
s 1
f 292 316 293
s 1
f 285 309 286
s 1
f 278 302 279
s 1
f 294 316 317
s 1
f 286 310 287
s 1
f 280 302 303
s 1
f 294 318 295
s 1
f 287 311 288
s 1
f 280 304 281
s 1
f 295 319 296
s 1
f 274 1 297
s 1
f 288 312 289
s 1
f 282 304 305
s 1
f 20 296 319
s 1
f 274 298 275
s 1
f 289 313 290
s 1
f 282 306 283
s 1
f 276 298 299
s 1
f 290 314 291
s 1
f 317 339 340
s 1
f 309 333 310
s 1
f 303 325 326
s 1
f 317 341 318
s 1
f 310 334 311
s 1
f 303 327 304
s 1
f 318 342 319
s 1
f 297 1 320
s 1
f 311 335 312
s 1
f 304 328 305
s 1
f 20 319 342
s 1
f 297 321 298
s 1
f 313 335 336
s 1
f 306 328 329
s 1
f 299 321 322
s 1
f 313 337 314
s 1
f 307 329 330
s 1
f 299 323 300
s 1
f 315 337 338
s 1
f 308 330 331
s 1
f 301 323 324
s 1
f 315 339 316
s 1
f 308 332 309
s 1
f 301 325 302
s 1
f 328 350 351
s 1
f 20 342 365
s 1
f 320 344 321
s 1
f 335 359 336
s 1
f 329 351 352
s 1
f 321 345 322
s 1
f 336 360 337
s 1
f 329 353 330
s 1
f 323 345 346
s 1
f 337 361 338
s 1
f 331 353 354
s 1
f 324 346 347
s 1
f 338 362 339
s 1
f 331 355 332
s 1
f 324 348 325
s 1
f 339 363 340
s 1
f 333 355 356
s 1
f 325 349 326
s 1
f 340 364 341
s 1
f 333 357 334
s 1
f 326 350 327
s 1
f 341 365 342
s 1
f 320 1 343
s 1
f 334 358 335
s 1
f 354 376 377
s 1
f 347 369 370
s 1
f 361 385 362
s 1
f 354 378 355
s 1
f 347 371 348
s 1
f 363 385 386
s 1
f 355 379 356
s 1
f 349 371 372
s 1
f 363 387 364
s 1
f 356 380 357
s 1
f 349 373 350
s 1
f 365 387 388
s 1
f 343 1 366
s 1
f 357 381 358
s 1
f 350 374 351
s 1
f 20 365 388
s 1
f 344 366 367
s 1
f 359 381 382
s 1
f 352 374 375
s 1
f 345 367 368
s 1
f 359 383 360
s 1
f 352 376 353
s 1
f 346 368 369
s 1
f 361 383 384
s 1
f 386 410 387
s 1
f 379 403 380
s 1
f 372 396 373
s 1
f 387 411 388
s 1
f 366 1 389
s 1
f 380 404 381
s 1
f 374 396 397
s 1
f 20 388 411
s 1
f 366 390 367
s 1
f 381 405 382
s 1
f 375 397 398
s 1
f 368 390 391
s 1
f 382 406 383
s 1
f 375 399 376
s 1
f 368 392 369
s 1
f 384 406 407
s 1
f 377 399 400
s 1
f 370 392 393
s 1
f 384 408 385
s 1
f 377 401 378
s 1
f 370 394 371
s 1
f 385 409 386
s 1
f 378 402 379
s 1
f 372 394 395
s 1
f 397 421 398
s 1
f 391 413 414
s 1
f 405 429 406
s 1
f 399 421 422
s 1
f 391 415 392
s 1
f 407 429 430
s 1
f 400 422 423
s 1
f 393 415 416
s 1
f 407 431 408
s 1
f 400 424 401
s 1
f 393 417 394
s 1
f 408 432 409
s 1
f 401 425 402
s 1
f 395 417 418
s 1
f 409 433 410
s 1
f 402 426 403
s 1
f 396 418 419
s 1
f 410 434 411
s 1
f 389 1 412
s 1
f 403 427 404
s 1
f 396 420 397
s 1
f 20 411 434
s 1
f 389 413 390
s 1
f 405 427 428
s 1
f 423 447 424
s 1
f 416 440 417
s 1
f 431 455 432
s 1
f 424 448 425
s 1
f 417 441 418
s 1
f 432 456 433
s 1
f 426 448 449
s 1
f 418 442 419
s 1
f 434 456 457
s 1
f 412 1 435
s 1
f 426 450 427
s 1
f 419 443 420
s 1
f 20 434 457
s 1
f 412 436 413
s 1
f 428 450 451
s 1
f 420 444 421
s 1
f 413 437 414
s 1
f 428 452 429
s 1
f 422 444 445
s 1
f 414 438 415
s 1
f 430 452 453
s 1
f 423 445 446
s 1
f 416 438 439
s 1
f 430 454 431
s 1
f 456 480 457
s 1
f 435 1 458
s 1
f 450 472 473
s 1
f 442 466 443
s 1
f 20 457 480
s 1
f 436 458 459
s 1
f 450 474 451
s 1
f 443 467 444
s 1
f 437 459 460
s 1
f 452 474 475
s 1
f 445 467 468
s 1
f 437 461 438
s 1
f 453 475 476
s 1
f 446 468 469
s 1
f 439 461 462
s 1
f 453 477 454
s 1
f 446 470 447
s 1
f 439 463 440
s 1
f 455 477 478
s 1
f 447 471 448
s 1
f 440 464 441
s 1
f 455 479 456
s 1
f 448 472 449
s 1
f 441 465 442
s 1
f 468 490 491
s 1
f 461 483 484
s 1
f 476 498 499
s 1
f 469 491 492
s 1
f 462 484 485
s 1
f 476 500 477
s 1
f 469 493 470
s 1
f 462 486 463
s 1
f 477 501 478
s 1
f 470 494 471
s 1
f 464 486 487
s 1
f 478 502 479
s 1
f 471 495 472
s 1
f 464 488 465
s 1
f 479 503 480
s 1
f 458 1 481
s 1
f 473 495 496
s 1
f 465 489 466
s 1
f 20 480 503
s 1
f 458 482 459
s 1
f 473 497 474
s 1
f 466 490 467
s 1
f 460 482 483
s 1
f 474 498 475
s 1
f 493 517 494
s 1
f 487 509 510
s 1
f 501 525 502
s 1
f 494 518 495
s 1
f 487 511 488
s 1
f 503 525 526
s 1
f 481 1 504
s 1
f 495 519 496
s 1
f 488 512 489
s 1
f 20 503 526
s 1
f 481 505 482
s 1
f 496 520 497
s 1
f 489 513 490
s 1
f 483 505 506
s 1
f 497 521 498
s 1
f 491 513 514
s 1
f 484 506 507
s 1
f 498 522 499
s 1
f 492 514 515
s 1
f 484 508 485
s 1
f 499 523 500
s 1
f 492 516 493
s 1
f 485 509 486
s 1
f 500 524 501
s 1
f 20 526 549
s 1
f 504 528 505
s 1
f 520 542 543
s 1
f 513 535 536
s 1
f 506 528 529
s 1
f 520 544 521
s 1
f 514 536 537
s 1
f 507 529 530
s 1
f 522 544 545
s 1
f 514 538 515
s 1
f 508 530 531
s 1
f 522 546 523
s 1
f 515 539 516
s 1
f 508 532 509
s 1
f 523 547 524
s 1
f 516 540 517
s 1
f 509 533 510
s 1
f 524 548 525
s 1
f 517 541 518
s 1
f 510 534 511
s 1
f 526 548 549
s 1
f 504 1 527
s 1
f 519 541 542
s 1
f 511 535 512
s 1
f 538 560 561
s 1
f 531 553 554
s 1
f 545 569 546
s 1
f 538 562 539
s 1
f 531 555 532
s 1
f 546 570 547
s 1
f 539 563 540
s 1
f 533 555 556
s 1
f 547 571 548
s 1
f 541 563 564
s 1
f 533 557 534
s 1
f 548 572 549
s 1
f 527 1 550
s 1
f 542 564 565
s 1
f 534 558 535
s 1
f 20 549 572
s 1
f 527 551 528
s 1
f 543 565 566
s 1
f 535 559 536
s 1
f 529 551 552
s 1
f 543 567 544
s 1
f 537 559 560
s 1
f 529 553 530
s 1
f 545 567 568
s 1
f 563 587 564
s 1
f 556 580 557
s 1
f 571 595 572
s 1
f 550 1 573
s 1
f 564 588 565
s 1
f 557 581 558
s 1
f 20 572 595
s 1
f 550 574 551
s 1
f 566 588 589
s 1
f 558 582 559
s 1
f 552 574 575
s 1
f 566 590 567
s 1
f 560 582 583
s 1
f 553 575 576
s 1
f 568 590 591
s 1
f 561 583 584
s 1
f 554 576 577
s 1
f 568 592 569
s 1
f 561 585 562
s 1
f 554 578 555
s 1
f 569 593 570
s 1
f 562 586 563
s 1
f 556 578 579
s 1
f 570 594 571
s 1
f 575 597 598
s 1
f 589 613 590
s 1
f 583 605 606
s 1
f 575 599 576
s 1
f 591 613 614
s 1
f 584 606 607
s 1
f 577 599 600
s 1
f 591 615 592
s 1
f 584 608 585
s 1
f 577 601 578
s 1
f 592 616 593
s 1
f 585 609 586
s 1
f 579 601 602
s 1
f 594 616 617
s 1
f 586 610 587
s 1
f 579 603 580
s 1
f 594 618 595
s 1
f 573 1 596
s 1
f 587 611 588
s 1
f 580 604 581
s 1
f 20 595 618
s 1
f 573 597 574
s 1
f 588 612 589
s 1
f 582 604 605
s 1
f 607 631 608
s 1
f 600 624 601
s 1
f 616 638 639
s 1
f 608 632 609
s 1
f 602 624 625
s 1
f 617 639 640
s 1
f 609 633 610
s 1
f 603 625 626
s 1
f 617 641 618
s 1
f 596 1 619
s 1
f 610 634 611
s 1
f 603 627 604
s 1
f 20 618 641
s 1
f 596 620 597
s 1
f 611 635 612
s 1
f 605 627 628
s 1
f 598 620 621
s 1
f 612 636 613
s 1
f 606 628 629
s 1
f 598 622 599
s 1
f 614 636 637
s 1
f 607 629 630
s 1
f 600 622 623
s 1
f 614 638 615
s 1
f 619 1 642
s 1
f 634 656 657
s 1
f 626 650 627
s 1
f 20 641 664
s 1
f 619 643 620
s 1
f 634 658 635
s 1
f 628 650 651
s 1
f 621 643 644
s 1
f 635 659 636
s 1
f 629 651 652
s 1
f 622 644 645
s 1
f 637 659 660
s 1
f 630 652 653
s 1
f 623 645 646
s 1
f 637 661 638
s 1
f 630 654 631
s 1
f 623 647 624
s 1
f 638 662 639
s 1
f 631 655 632
s 1
f 625 647 648
s 1
f 639 663 640
s 1
f 632 656 633
s 1
f 625 649 626
s 1
f 640 664 641
s 1
f 644 668 645
s 1
f 660 682 683
s 1
f 652 676 653
s 1
f 646 668 669
s 1
f 660 684 661
s 1
f 653 677 654
s 1
f 646 670 647
s 1
f 661 685 662
s 1
f 654 678 655
s 1
f 647 671 648
s 1
f 662 686 663
s 1
f 656 678 679
s 1
f 649 671 672
s 1
f 664 686 687
s 1
f 642 1 665
s 1
f 657 679 680
s 1
f 649 673 650
s 1
f 20 664 687
s 1
f 642 666 643
s 1
f 657 681 658
s 1
f 650 674 651
s 1
f 644 666 667
s 1
f 658 682 659
s 1
f 652 674 675
s 1
f 677 701 678
s 1
f 670 694 671
s 1
f 685 709 686
s 1
f 678 702 679
s 1
f 672 694 695
s 1
f 686 710 687
s 1
f 665 1 688
s 1
f 680 702 703
s 1
f 673 695 696
s 1
f 20 687 710
s 1
f 665 689 666
s 1
f 680 704 681
s 1
f 674 696 697
s 1
f 667 689 690
s 1
f 681 705 682
s 1
f 675 697 698
s 1
f 668 690 691
s 1
f 683 705 706
s 1
f 676 698 699
s 1
f 669 691 692
s 1
f 683 707 684
s 1
f 676 700 677
s 1
f 669 693 670
s 1
f 684 708 685
s 1
f 689 711 712
s 1
f 703 727 704
s 1
f 696 720 697
s 1
f 689 713 690
s 1
f 705 727 728
s 1
f 698 720 721
s 1
f 690 714 691
s 1
f 706 728 729
s 1
f 699 721 722
s 1
f 692 714 715
s 1
f 706 730 707
s 1
f 699 723 700
s 1
f 692 716 693
s 1
f 708 730 731
s 1
f 700 724 701
s 1
f 693 717 694
s 1
f 709 731 732
s 1
f 701 725 702
s 1
f 695 717 718
s 1
f 710 732 733
s 1
f 688 1 711
s 1
f 703 725 726
s 1
f 695 719 696
s 1
f 20 710 733
s 1
f 715 737 738
s 1
f 729 753 730
s 1
f 722 746 723
s 1
f 715 739 716
s 1
f 730 754 731
s 1
f 723 747 724
s 1
f 716 740 717
s 1
f 731 755 732
s 1
f 724 748 725
s 1
f 718 740 741
s 1
f 732 756 733
s 1
f 711 1 734
s 1
f 725 749 726
s 1
f 718 742 719
s 1
f 20 733 756
s 1
f 711 735 712
s 1
f 726 750 727
s 1
f 720 742 743
s 1
f 712 736 713
s 1
f 728 750 751
s 1
f 721 743 744
s 1
f 713 737 714
s 1
f 729 751 752
s 1
f 722 744 745
s 1
f 747 771 748
s 1
f 741 763 764
s 1
f 755 779 756
s 1
f 734 1 757
s 1
f 749 771 772
s 1
f 741 765 742
s 1
f 20 756 779
s 1
f 735 757 758
s 1
f 749 773 750
s 1
f 742 766 743
s 1
f 735 759 736
s 1
f 750 774 751
s 1
f 744 766 767
s 1
f 736 760 737
s 1
f 752 774 775
s 1
f 744 768 745
s 1
f 738 760 761
s 1
f 752 776 753
s 1
f 745 769 746
s 1
f 738 762 739
s 1
f 753 777 754
s 1
f 746 770 747
s 1
f 739 763 740
s 1
f 755 777 778
s 1
f 759 781 782
s 1
f 773 797 774
s 1
f 767 789 790
s 1
f 760 782 783
s 1
f 775 797 798
s 1
f 767 791 768
s 1
f 761 783 784
s 1
f 775 799 776
s 1
f 768 792 769
s 1
f 761 785 762
s 1
f 776 800 777
s 1
f 769 793 770
s 1
f 763 785 786
s 1
f 777 801 778
s 1
f 770 794 771
s 1
f 764 786 787
s 1
f 778 802 779
s 1
f 757 1 780
s 1
f 771 795 772
s 1
f 764 788 765
s 1
f 20 779 802
s 1
f 758 780 781
s 1
f 772 796 773
s 1
f 765 789 766
s 1
f 802 824 825
s 1
f 780 1 803
s 1
f 794 818 795
s 1
f 788 810 811
s 1
f 20 802 825
s 1
f 780 804 781
s 1
f 795 819 796
s 1
f 788 812 789
s 1
f 782 804 805
s 1
f 797 819 820
s 1
f 790 812 813
s 1
f 782 806 783
s 1
f 798 820 821
s 1
f 791 813 814
s 1
f 784 806 807
s 1
f 798 822 799
s 1
f 791 815 792
s 1
f 784 808 785
s 1
f 799 823 800
s 1
f 792 816 793
s 1
f 785 809 786
s 1
f 800 824 801
s 1
f 793 817 794
s 1
f 787 809 810
s 1
f 813 835 836
s 1
f 805 829 806
s 1
f 821 843 844
s 1
f 814 836 837
s 1
f 807 829 830
s 1
f 821 845 822
s 1
f 815 837 838
s 1
f 807 831 808
s 1
f 822 846 823
s 1
f 815 839 816
s 1
f 808 832 809
s 1
f 823 847 824
s 1
f 817 839 840
s 1
f 810 832 833
s 1
f 824 848 825
s 1
f 803 1 826
s 1
f 818 840 841
s 1
f 810 834 811
s 1
f 20 825 848
s 1
f 803 827 804
s 1
f 818 842 819
s 1
f 812 834 835
s 1
f 804 828 805
s 1
f 819 843 820
s 1
f 838 862 839
s 1
f 831 855 832
s 1
f 846 870 847
s 1
f 839 863 840
s 1
f 833 855 856
s 1
f 847 871 848
s 1
f 826 1 849
s 1
f 840 864 841
s 1
f 833 857 834
s 1
f 20 848 871
s 1
f 827 849 850
s 1
f 841 865 842
s 1
f 835 857 858
s 1
f 828 850 851
s 1
f 843 865 866
s 1
f 836 858 859
s 1
f 828 852 829
s 1
f 844 866 867
s 1
f 837 859 860
s 1
f 830 852 853
s 1
f 844 868 845
s 1
f 837 861 838
s 1
f 830 854 831
s 1
f 845 869 846
s 1
f 20 871 894
s 1
f 849 873 850
s 1
f 864 888 865
s 1
f 858 880 881
s 1
f 850 874 851
s 1
f 865 889 866
s 1
f 859 881 882
s 1
f 851 875 852
s 1
f 867 889 890
s 1
f 859 883 860
s 1
f 853 875 876
s 1
f 867 891 868
s 1
f 860 884 861
s 1
f 853 877 854
s 1
f 869 891 892
s 1
f 861 885 862
s 1
f 854 878 855
s 1
f 869 893 870
s 1
f 863 885 886
s 1
f 856 878 879
s 1
f 870 894 871
s 1
f 849 1 872
s 1
f 864 886 887
s 1
f 856 880 857
s 1
f 882 906 883
s 1
f 876 898 899
s 1
f 890 914 891
s 1
f 883 907 884
s 1
f 876 900 877
s 1
f 891 915 892
s 1
f 884 908 885
s 1
f 877 901 878
s 1
f 892 916 893
s 1
f 885 909 886
s 1
f 878 902 879
s 1
f 893 917 894
s 1
f 872 1 895
s 1
f 886 910 887
s 1
f 880 902 903
s 1
f 20 894 917
s 1
f 872 896 873
s 1
f 887 911 888
s 1
f 880 904 881
s 1
f 874 896 897
s 1
f 889 911 912
s 1
f 882 904 905
s 1
f 875 897 898
s 1
f 890 912 913
s 1
f 909 931 932
s 1
f 901 925 902
s 1
f 916 940 917
s 1
f 895 1 918
s 1
f 909 933 910
s 1
f 903 925 926
s 1
f 20 917 940
s 1
f 895 919 896
s 1
f 911 933 934
s 1
f 903 927 904
s 1
f 897 919 920
s 1
f 912 934 935
s 1
f 905 927 928
s 1
f 898 920 921
s 1
f 913 935 936
s 1
f 906 928 929
s 1
f 899 921 922
s 1
f 913 937 914
s 1
f 906 930 907
s 1
f 899 923 900
s 1
f 914 938 915
s 1
f 907 931 908
s 1
f 900 924 901
s 1
f 915 939 916
s 1
f 919 943 920
s 1
f 935 957 958
s 1
f 928 950 951
s 1
f 921 943 944
s 1
f 936 958 959
s 1
f 929 951 952
s 1
f 922 944 945
s 1
f 936 960 937
s 1
f 929 953 930
s 1
f 922 946 923
s 1
f 938 960 961
s 1
f 930 954 931
s 1
f 923 947 924
s 1
f 938 962 939
s 1
f 932 954 955
s 1
f 924 948 925
s 1
f 939 963 940
s 1
f 918 1 941
s 1
f 932 956 933
s 1
f 925 949 926
s 1
f 20 940 963
s 1
f 918 942 919
s 1
f 933 957 934
s 1
f 926 950 927
s 1
f 952 976 953
s 1
f 945 969 946
s 1
f 960 984 961
s 1
f 953 977 954
s 1
f 946 970 947
s 1
f 962 984 985
s 1
f 955 977 978
s 1
f 948 970 971
s 1
f 963 985 986
s 1
f 941 1 964
s 1
f 955 979 956
s 1
f 948 972 949
s 1
f 20 963 986
s 1
f 941 965 942
s 1
f 956 980 957
s 1
f 949 973 950
s 1
f 943 965 966
s 1
f 958 980 981
s 1
f 951 973 974
s 1
f 944 966 967
s 1
f 959 981 982
s 1
f 952 974 975
s 1
f 945 967 968
s 1
f 959 983 960
s 1
f 964 1 987
s 1
f 978 1002 979
s 1
f 972 994 995
s 1
f 20 986 1009
s 1
f 964 988 965
s 1
f 979 1003 980
s 1
f 972 996 973
s 1
f 965 989 966
s 1
f 981 1003 1004
s 1
f 974 996 997
s 1
f 967 989 990
s 1
f 982 1004 1005
s 1
f 975 997 998
s 1
f 968 990 991
s 1
f 982 1006 983
s 1
f 975 999 976
s 1
f 968 992 969
s 1
f 983 1007 984
s 1
f 976 1000 977
s 1
f 970 992 993
s 1
f 985 1007 1008
s 1
f 978 1000 1001
s 1
f 970 994 971
s 1
f 985 1009 986
s 1
f 990 1012 1013
s 1
f 1005 1027 1028
s 1
f 998 1020 1021
s 1
f 991 1013 1014
s 1
f 1005 1029 1006
s 1
f 998 1022 999
s 1
f 991 1015 992
s 1
f 1006 1030 1007
s 1
f 999 1023 1000
s 1
f 992 1016 993
s 1
f 1007 1031 1008
s 1
f 1001 1023 1024
s 1
f 994 1016 1017
s 1
f 1008 1032 1009
s 1
f 987 1 1010
s 1
f 1001 1025 1002
s 1
f 995 1017 1018
s 1
f 20 1009 1032
s 1
f 987 1011 988
s 1
f 1002 1026 1003
s 1
f 995 1019 996
s 1
f 989 1011 1012
s 1
f 1004 1026 1027
s 1
f 997 1019 1020
s 1
f 1022 1046 1023
s 1
f 1015 1039 1016
s 1
f 1030 1054 1031
s 1
f 1024 1046 1047
s 1
f 1017 1039 1040
s 1
f 1031 1055 1032
s 1
f 1010 1 1033
s 1
f 1024 1048 1025
s 1
f 1018 1040 1041
s 1
f 20 1032 1055
s 1
f 1010 1034 1011
s 1
f 1025 1049 1026
s 1
f 1018 1042 1019
s 1
f 1011 1035 1012
s 1
f 1027 1049 1050
s 1
f 1020 1042 1043
s 1
f 1013 1035 1036
s 1
f 1028 1050 1051
s 1
f 1021 1043 1044
s 1
f 1014 1036 1037
s 1
f 1028 1052 1029
s 1
f 1021 1045 1022
s 1
f 1014 1038 1015
s 1
f 1029 1053 1030
s 1
f 1034 1056 1057
s 1
f 1049 1071 1072
s 1
f 1041 1065 1042
s 1
f 1035 1057 1058
s 1
f 1050 1072 1073
s 1
f 1043 1065 1066
s 1
f 1036 1058 1059
s 1
f 1051 1073 1074
s 1
f 1044 1066 1067
s 1
f 1037 1059 1060
s 1
f 1051 1075 1052
s 1
f 1044 1068 1045
s 1
f 1037 1061 1038
s 1
f 1052 1076 1053
s 1
f 1045 1069 1046
s 1
f 1038 1062 1039
s 1
f 1053 1077 1054
s 1
f 1047 1069 1070
s 1
f 1040 1062 1063
s 1
f 1054 1078 1055
s 1
f 1033 1 1056
s 1
f 1048 1070 1071
s 1
f 1040 1064 1041
s 1
f 20 1055 1078
s 1
f 1060 1082 1083
s 1
f 1074 1098 1075
s 1
f 1067 1091 1068
s 1
f 1060 1084 1061
s 1
f 1075 1099 1076
s 1
f 1068 1092 1069
s 1
f 1061 1085 1062
s 1
f 1076 1100 1077
s 1
f 1070 1092 1093
s 1
f 1062 1086 1063
s 1
f 1077 1101 1078
s 1
f 1056 1 1079
s 1
f 1070 1094 1071
s 1
f 1063 1087 1064
s 1
f 20 1078 1101
s 1
f 1057 1079 1080
s 1
f 1071 1095 1072
s 1
f 1064 1088 1065
s 1
f 1057 1081 1058
s 1
f 1073 1095 1096
s 1
f 1065 1089 1066
s 1
f 1059 1081 1082
s 1
f 1074 1096 1097
s 1
f 1067 1089 1090
s 1
f 1093 1104 13
s 1
f 1085 8 1086
s 1
f 1101 18 19
s 1
f 1079 1 1102
s 1
f 1094 13 1105
s 1
f 1086 9 1087
s 1
f 20 1101 19
s 1
f 1079 2 1080
s 1
f 1094 1106 1095
s 1
f 1087 1103 1088
s 1
f 1080 3 1081
s 1
f 1096 1106 14
s 1
f 1088 10 1089
s 1
f 1081 4 1082
s 1
f 1097 14 15
s 1
f 1089 11 1090
s 1
f 1082 5 1083
s 1
f 1098 15 16
s 1
f 1090 12 1091
s 1
f 1083 6 1084
s 1
f 1099 16 17
s 1
f 1092 12 1104
s 1
f 1084 7 1085
s 1
f 1100 17 18
s 1
f 3 23 24
s 1
f 14 38 39
s 1
f 10 31 32
s 1
f 5 4 24
s 1
f 15 39 40
s 1
f 11 32 33
s 1
f 6 5 25
s 1
f 17 16 40
s 1
f 1104 12 33
s 1
f 6 26 27
s 1
f 17 41 42
s 1
f 13 1104 34
s 1
f 7 27 28
s 1
f 18 42 43
s 1
f 1105 13 35
s 1
f 9 8 28
s 1
f 1102 21 22
s 1
f 1106 1105 36
s 1
f 9 29 30
s 1
f 3 2 22
s 1
f 14 1106 37
s 1
f 1103 30 31
s 1
f 36 59 60
s 1
f 29 52 53
s 1
f 22 45 46
s 1
f 37 60 61
s 1
f 30 53 54
s 1
f 23 46 47
s 1
f 38 61 62
s 1
f 31 54 55
s 1
f 24 47 48
s 1
f 39 62 63
s 1
f 32 55 56
s 1
f 25 48 49
s 1
f 40 63 64
s 1
f 33 56 57
s 1
f 26 49 50
s 1
f 41 64 65
s 1
f 34 57 58
s 1
f 27 50 51
s 1
f 43 42 65
s 1
f 35 58 59
s 1
f 29 28 51
s 1
f 21 44 45
s 1
f 47 70 71
s 1
f 63 62 85
s 1
f 55 78 79
s 1
f 49 48 71
s 1
f 63 86 87
s 1
f 56 79 80
s 1
f 50 49 72
s 1
f 64 87 88
s 1
f 57 80 81
s 1
f 51 50 73
s 1
f 66 65 88
s 1
f 58 81 82
s 1
f 51 74 75
s 1
f 44 67 68
s 1
f 59 82 83
s 1
f 53 52 75
s 1
f 45 68 69
s 1
f 60 83 84
s 1
f 53 76 77
s 1
f 46 69 70
s 1
f 62 61 84
s 1
f 55 54 77
s 1
f 73 96 97
s 1
f 89 88 111
s 1
f 81 104 105
s 1
f 75 74 97
s 1
f 67 90 91
s 1
f 82 105 106
s 1
f 76 75 98
s 1
f 69 68 91
s 1
f 84 83 106
s 1
f 76 99 100
s 1
f 70 69 92
s 1
f 85 84 107
s 1
f 78 77 100
s 1
f 71 70 93
s 1
f 85 108 109
s 1
f 78 101 102
s 1
f 71 94 95
s 1
f 86 109 110
s 1
f 80 79 102
s 1
f 73 72 95
s 1
f 87 110 111
s 1
f 80 103 104
s 1
f 106 129 130
s 1
f 99 122 123
s 1
f 93 92 115
s 1
f 108 107 130
s 1
f 101 100 123
s 1
f 93 116 117
s 1
f 108 131 132
s 1
f 101 124 125
s 1
f 94 117 118
s 1
f 109 132 133
s 1
f 103 102 125
s 1
f 96 95 118
s 1
f 110 133 134
s 1
f 103 126 127
s 1
f 97 96 119
s 1
f 111 134 135
s 1
f 104 127 128
s 1
f 98 97 120
s 1
f 90 113 114
s 1
f 105 128 129
s 1
f 99 98 121
s 1
f 91 114 115
s 1
f 117 140 141
s 1
f 132 155 156
s 1
f 126 125 148
s 1
f 119 118 141
s 1
f 133 156 157
s 1
f 126 149 150
s 1
f 120 119 142
s 1
f 134 157 158
s 1
f 127 150 151
s 1
f 121 120 143
s 1
f 114 113 136
s 1
f 128 151 152
s 1
f 122 121 144
s 1
f 114 137 138
s 1
f 129 152 153
s 1
f 122 145 146
s 1
f 115 138 139
s 1
f 130 153 154
s 1
f 124 123 146
s 1
f 117 116 139
s 1
f 131 154 155
s 1
f 124 147 148
s 1
f 144 143 166
s 1
f 136 159 160
s 1
f 152 151 174
s 1
f 145 144 167
s 1
f 137 160 161
s 1
f 152 175 176
s 1
f 145 168 169
s 1
f 138 161 162
s 1
f 153 176 177
s 1
f 147 146 169
s 1
f 140 139 162
s 1
f 154 177 178
s 1
f 147 170 171
s 1
f 140 163 164
s 1
f 155 178 179
s 1
f 149 148 171
s 1
f 142 141 164
s 1
f 156 179 180
s 1
f 150 149 172
s 1
f 142 165 166
s 1
f 157 180 181
s 1
f 150 173 174
s 1
f 177 176 199
s 1
f 170 169 192
s 1
f 163 162 185
s 1
f 177 200 201
s 1
f 170 193 194
s 1
f 163 186 187
s 1
f 178 201 202
s 1
f 172 171 194
s 1
f 165 164 187
s 1
f 179 202 203
s 1
f 172 195 196
s 1
f 165 188 189
s 1
f 180 203 204
s 1
f 173 196 197
s 1
f 167 166 189
s 1
f 159 182 183
s 1
f 175 174 197
s 1
f 168 167 190
s 1
f 161 160 183
s 1
f 175 198 199
s 1
f 168 191 192
s 1
f 161 184 185
s 1
f 188 187 210
s 1
f 202 225 226
s 1
f 196 195 218
s 1
f 188 211 212
s 1
f 203 226 227
s 1
f 196 219 220
s 1
f 189 212 213
s 1
f 183 182 205
s 1
f 197 220 221
s 1
f 190 213 214
s 1
f 183 206 207
s 1
f 198 221 222
s 1
f 191 214 215
s 1
f 185 184 207
s 1
f 200 199 222
s 1
f 193 192 215
s 1
f 186 185 208
s 1
f 200 223 224
s 1
f 193 216 217
s 1
f 186 209 210
s 1
f 201 224 225
s 1
f 194 217 218
s 1
f 213 236 237
s 1
f 206 229 230
s 1
f 222 221 244
s 1
f 214 237 238
s 1
f 208 207 230
s 1
f 223 222 245
s 1
f 216 215 238
s 1
f 209 208 231
s 1
f 223 246 247
s 1
f 216 239 240
s 1
f 209 232 233
s 1
f 224 247 248
s 1
f 218 217 240
s 1
f 211 210 233
s 1
f 225 248 249
s 1
f 218 241 242
s 1
f 211 234 235
s 1
f 226 249 250
s 1
f 219 242 243
s 1
f 213 212 235
s 1
f 205 228 229
s 1
f 221 220 243
s 1
f 246 269 270
s 1
f 239 262 263
s 1
f 232 255 256
s 1
f 247 270 271
s 1
f 240 263 264
s 1
f 234 233 256
s 1
f 248 271 272
s 1
f 241 264 265
s 1
f 234 257 258
s 1
f 249 272 273
s 1
f 242 265 266
s 1
f 235 258 259
s 1
f 228 251 252
s 1
f 243 266 267
s 1
f 237 236 259
s 1
f 230 229 252
s 1
f 244 267 268
s 1
f 237 260 261
s 1
f 230 253 254
s 1
f 246 245 268
s 1
f 239 238 261
s 1
f 232 231 254
s 1
f 257 280 281
s 1
f 272 295 296
s 1
f 265 288 289
s 1
f 259 258 281
s 1
f 251 274 275
s 1
f 266 289 290
s 1
f 259 282 283
s 1
f 253 252 275
s 1
f 267 290 291
s 1
f 260 283 284
s 1
f 253 276 277
s 1
f 269 268 291
s 1
f 262 261 284
s 1
f 255 254 277
s 1
f 269 292 293
s 1
f 262 285 286
s 1
f 255 278 279
s 1
f 271 270 293
s 1
f 263 286 287
s 1
f 257 256 279
s 1
f 271 294 295
s 1
f 265 264 287
s 1
f 283 306 307
s 1
f 277 276 299
s 1
f 292 291 314
s 1
f 285 284 307
s 1
f 278 277 300
s 1
f 292 315 316
s 1
f 285 308 309
s 1
f 278 301 302
s 1
f 294 293 316
s 1
f 286 309 310
s 1
f 280 279 302
s 1
f 294 317 318
s 1
f 287 310 311
s 1
f 280 303 304
s 1
f 295 318 319
s 1
f 288 311 312
s 1
f 282 281 304
s 1
f 274 297 298
s 1
f 289 312 313
s 1
f 282 305 306
s 1
f 276 275 298
s 1
f 290 313 314
s 1
f 317 316 339
s 1
f 309 332 333
s 1
f 303 302 325
s 1
f 317 340 341
s 1
f 310 333 334
s 1
f 303 326 327
s 1
f 318 341 342
s 1
f 311 334 335
s 1
f 304 327 328
s 1
f 297 320 321
s 1
f 313 312 335
s 1
f 306 305 328
s 1
f 299 298 321
s 1
f 313 336 337
s 1
f 307 306 329
s 1
f 299 322 323
s 1
f 315 314 337
s 1
f 308 307 330
s 1
f 301 300 323
s 1
f 315 338 339
s 1
f 308 331 332
s 1
f 301 324 325
s 1
f 328 327 350
s 1
f 320 343 344
s 1
f 335 358 359
s 1
f 329 328 351
s 1
f 321 344 345
s 1
f 336 359 360
s 1
f 329 352 353
s 1
f 323 322 345
s 1
f 337 360 361
s 1
f 331 330 353
s 1
f 324 323 346
s 1
f 338 361 362
s 1
f 331 354 355
s 1
f 324 347 348
s 1
f 339 362 363
s 1
f 333 332 355
s 1
f 325 348 349
s 1
f 340 363 364
s 1
f 333 356 357
s 1
f 326 349 350
s 1
f 341 364 365
s 1
f 334 357 358
s 1
f 354 353 376
s 1
f 347 346 369
s 1
f 361 384 385
s 1
f 354 377 378
s 1
f 347 370 371
s 1
f 363 362 385
s 1
f 355 378 379
s 1
f 349 348 371
s 1
f 363 386 387
s 1
f 356 379 380
s 1
f 349 372 373
s 1
f 365 364 387
s 1
f 357 380 381
s 1
f 350 373 374
s 1
f 344 343 366
s 1
f 359 358 381
s 1
f 352 351 374
s 1
f 345 344 367
s 1
f 359 382 383
s 1
f 352 375 376
s 1
f 346 345 368
s 1
f 361 360 383
s 1
f 386 409 410
s 1
f 379 402 403
s 1
f 372 395 396
s 1
f 387 410 411
s 1
f 380 403 404
s 1
f 374 373 396
s 1
f 366 389 390
s 1
f 381 404 405
s 1
f 375 374 397
s 1
f 368 367 390
s 1
f 382 405 406
s 1
f 375 398 399
s 1
f 368 391 392
s 1
f 384 383 406
s 1
f 377 376 399
s 1
f 370 369 392
s 1
f 384 407 408
s 1
f 377 400 401
s 1
f 370 393 394
s 1
f 385 408 409
s 1
f 378 401 402
s 1
f 372 371 394
s 1
f 397 420 421
s 1
f 391 390 413
s 1
f 405 428 429
s 1
f 399 398 421
s 1
f 391 414 415
s 1
f 407 406 429
s 1
f 400 399 422
s 1
f 393 392 415
s 1
f 407 430 431
s 1
f 400 423 424
s 1
f 393 416 417
s 1
f 408 431 432
s 1
f 401 424 425
s 1
f 395 394 417
s 1
f 409 432 433
s 1
f 402 425 426
s 1
f 396 395 418
s 1
f 410 433 434
s 1
f 403 426 427
s 1
f 396 419 420
s 1
f 389 412 413
s 1
f 405 404 427
s 1
f 423 446 447
s 1
f 416 439 440
s 1
f 431 454 455
s 1
f 424 447 448
s 1
f 417 440 441
s 1
f 432 455 456
s 1
f 426 425 448
s 1
f 418 441 442
s 1
f 434 433 456
s 1
f 426 449 450
s 1
f 419 442 443
s 1
f 412 435 436
s 1
f 428 427 450
s 1
f 420 443 444
s 1
f 413 436 437
s 1
f 428 451 452
s 1
f 422 421 444
s 1
f 414 437 438
s 1
f 430 429 452
s 1
f 423 422 445
s 1
f 416 415 438
s 1
f 430 453 454
s 1
f 456 479 480
s 1
f 450 449 472
s 1
f 442 465 466
s 1
f 436 435 458
s 1
f 450 473 474
s 1
f 443 466 467
s 1
f 437 436 459
s 1
f 452 451 474
s 1
f 445 444 467
s 1
f 437 460 461
s 1
f 453 452 475
s 1
f 446 445 468
s 1
f 439 438 461
s 1
f 453 476 477
s 1
f 446 469 470
s 1
f 439 462 463
s 1
f 455 454 477
s 1
f 447 470 471
s 1
f 440 463 464
s 1
f 455 478 479
s 1
f 448 471 472
s 1
f 441 464 465
s 1
f 468 467 490
s 1
f 461 460 483
s 1
f 476 475 498
s 1
f 469 468 491
s 1
f 462 461 484
s 1
f 476 499 500
s 1
f 469 492 493
s 1
f 462 485 486
s 1
f 477 500 501
s 1
f 470 493 494
s 1
f 464 463 486
s 1
f 478 501 502
s 1
f 471 494 495
s 1
f 464 487 488
s 1
f 479 502 503
s 1
f 473 472 495
s 1
f 465 488 489
s 1
f 458 481 482
s 1
f 473 496 497
s 1
f 466 489 490
s 1
f 460 459 482
s 1
f 474 497 498
s 1
f 493 516 517
s 1
f 487 486 509
s 1
f 501 524 525
s 1
f 494 517 518
s 1
f 487 510 511
s 1
f 503 502 525
s 1
f 495 518 519
s 1
f 488 511 512
s 1
f 481 504 505
s 1
f 496 519 520
s 1
f 489 512 513
s 1
f 483 482 505
s 1
f 497 520 521
s 1
f 491 490 513
s 1
f 484 483 506
s 1
f 498 521 522
s 1
f 492 491 514
s 1
f 484 507 508
s 1
f 499 522 523
s 1
f 492 515 516
s 1
f 485 508 509
s 1
f 500 523 524
s 1
f 504 527 528
s 1
f 520 519 542
s 1
f 513 512 535
s 1
f 506 505 528
s 1
f 520 543 544
s 1
f 514 513 536
s 1
f 507 506 529
s 1
f 522 521 544
s 1
f 514 537 538
s 1
f 508 507 530
s 1
f 522 545 546
s 1
f 515 538 539
s 1
f 508 531 532
s 1
f 523 546 547
s 1
f 516 539 540
s 1
f 509 532 533
s 1
f 524 547 548
s 1
f 517 540 541
s 1
f 510 533 534
s 1
f 526 525 548
s 1
f 519 518 541
s 1
f 511 534 535
s 1
f 538 537 560
s 1
f 531 530 553
s 1
f 545 568 569
s 1
f 538 561 562
s 1
f 531 554 555
s 1
f 546 569 570
s 1
f 539 562 563
s 1
f 533 532 555
s 1
f 547 570 571
s 1
f 541 540 563
s 1
f 533 556 557
s 1
f 548 571 572
s 1
f 542 541 564
s 1
f 534 557 558
s 1
f 527 550 551
s 1
f 543 542 565
s 1
f 535 558 559
s 1
f 529 528 551
s 1
f 543 566 567
s 1
f 537 536 559
s 1
f 529 552 553
s 1
f 545 544 567
s 1
f 563 586 587
s 1
f 556 579 580
s 1
f 571 594 595
s 1
f 564 587 588
s 1
f 557 580 581
s 1
f 550 573 574
s 1
f 566 565 588
s 1
f 558 581 582
s 1
f 552 551 574
s 1
f 566 589 590
s 1
f 560 559 582
s 1
f 553 552 575
s 1
f 568 567 590
s 1
f 561 560 583
s 1
f 554 553 576
s 1
f 568 591 592
s 1
f 561 584 585
s 1
f 554 577 578
s 1
f 569 592 593
s 1
f 562 585 586
s 1
f 556 555 578
s 1
f 570 593 594
s 1
f 575 574 597
s 1
f 589 612 613
s 1
f 583 582 605
s 1
f 575 598 599
s 1
f 591 590 613
s 1
f 584 583 606
s 1
f 577 576 599
s 1
f 591 614 615
s 1
f 584 607 608
s 1
f 577 600 601
s 1
f 592 615 616
s 1
f 585 608 609
s 1
f 579 578 601
s 1
f 594 593 616
s 1
f 586 609 610
s 1
f 579 602 603
s 1
f 594 617 618
s 1
f 587 610 611
s 1
f 580 603 604
s 1
f 573 596 597
s 1
f 588 611 612
s 1
f 582 581 604
s 1
f 607 630 631
s 1
f 600 623 624
s 1
f 616 615 638
s 1
f 608 631 632
s 1
f 602 601 624
s 1
f 617 616 639
s 1
f 609 632 633
s 1
f 603 602 625
s 1
f 617 640 641
s 1
f 610 633 634
s 1
f 603 626 627
s 1
f 596 619 620
s 1
f 611 634 635
s 1
f 605 604 627
s 1
f 598 597 620
s 1
f 612 635 636
s 1
f 606 605 628
s 1
f 598 621 622
s 1
f 614 613 636
s 1
f 607 606 629
s 1
f 600 599 622
s 1
f 614 637 638
s 1
f 634 633 656
s 1
f 626 649 650
s 1
f 619 642 643
s 1
f 634 657 658
s 1
f 628 627 650
s 1
f 621 620 643
s 1
f 635 658 659
s 1
f 629 628 651
s 1
f 622 621 644
s 1
f 637 636 659
s 1
f 630 629 652
s 1
f 623 622 645
s 1
f 637 660 661
s 1
f 630 653 654
s 1
f 623 646 647
s 1
f 638 661 662
s 1
f 631 654 655
s 1
f 625 624 647
s 1
f 639 662 663
s 1
f 632 655 656
s 1
f 625 648 649
s 1
f 640 663 664
s 1
f 644 667 668
s 1
f 660 659 682
s 1
f 652 675 676
s 1
f 646 645 668
s 1
f 660 683 684
s 1
f 653 676 677
s 1
f 646 669 670
s 1
f 661 684 685
s 1
f 654 677 678
s 1
f 647 670 671
s 1
f 662 685 686
s 1
f 656 655 678
s 1
f 649 648 671
s 1
f 664 663 686
s 1
f 657 656 679
s 1
f 649 672 673
s 1
f 642 665 666
s 1
f 657 680 681
s 1
f 650 673 674
s 1
f 644 643 666
s 1
f 658 681 682
s 1
f 652 651 674
s 1
f 677 700 701
s 1
f 670 693 694
s 1
f 685 708 709
s 1
f 678 701 702
s 1
f 672 671 694
s 1
f 686 709 710
s 1
f 680 679 702
s 1
f 673 672 695
s 1
f 665 688 689
s 1
f 680 703 704
s 1
f 674 673 696
s 1
f 667 666 689
s 1
f 681 704 705
s 1
f 675 674 697
s 1
f 668 667 690
s 1
f 683 682 705
s 1
f 676 675 698
s 1
f 669 668 691
s 1
f 683 706 707
s 1
f 676 699 700
s 1
f 669 692 693
s 1
f 684 707 708
s 1
f 689 688 711
s 1
f 703 726 727
s 1
f 696 719 720
s 1
f 689 712 713
s 1
f 705 704 727
s 1
f 698 697 720
s 1
f 690 713 714
s 1
f 706 705 728
s 1
f 699 698 721
s 1
f 692 691 714
s 1
f 706 729 730
s 1
f 699 722 723
s 1
f 692 715 716
s 1
f 708 707 730
s 1
f 700 723 724
s 1
f 693 716 717
s 1
f 709 708 731
s 1
f 701 724 725
s 1
f 695 694 717
s 1
f 710 709 732
s 1
f 703 702 725
s 1
f 695 718 719
s 1
f 715 714 737
s 1
f 729 752 753
s 1
f 722 745 746
s 1
f 715 738 739
s 1
f 730 753 754
s 1
f 723 746 747
s 1
f 716 739 740
s 1
f 731 754 755
s 1
f 724 747 748
s 1
f 718 717 740
s 1
f 732 755 756
s 1
f 725 748 749
s 1
f 718 741 742
s 1
f 711 734 735
s 1
f 726 749 750
s 1
f 720 719 742
s 1
f 712 735 736
s 1
f 728 727 750
s 1
f 721 720 743
s 1
f 713 736 737
s 1
f 729 728 751
s 1
f 722 721 744
s 1
f 747 770 771
s 1
f 741 740 763
s 1
f 755 778 779
s 1
f 749 748 771
s 1
f 741 764 765
s 1
f 735 734 757
s 1
f 749 772 773
s 1
f 742 765 766
s 1
f 735 758 759
s 1
f 750 773 774
s 1
f 744 743 766
s 1
f 736 759 760
s 1
f 752 751 774
s 1
f 744 767 768
s 1
f 738 737 760
s 1
f 752 775 776
s 1
f 745 768 769
s 1
f 738 761 762
s 1
f 753 776 777
s 1
f 746 769 770
s 1
f 739 762 763
s 1
f 755 754 777
s 1
f 759 758 781
s 1
f 773 796 797
s 1
f 767 766 789
s 1
f 760 759 782
s 1
f 775 774 797
s 1
f 767 790 791
s 1
f 761 760 783
s 1
f 775 798 799
s 1
f 768 791 792
s 1
f 761 784 785
s 1
f 776 799 800
s 1
f 769 792 793
s 1
f 763 762 785
s 1
f 777 800 801
s 1
f 770 793 794
s 1
f 764 763 786
s 1
f 778 801 802
s 1
f 771 794 795
s 1
f 764 787 788
s 1
f 758 757 780
s 1
f 772 795 796
s 1
f 765 788 789
s 1
f 802 801 824
s 1
f 794 817 818
s 1
f 788 787 810
s 1
f 780 803 804
s 1
f 795 818 819
s 1
f 788 811 812
s 1
f 782 781 804
s 1
f 797 796 819
s 1
f 790 789 812
s 1
f 782 805 806
s 1
f 798 797 820
s 1
f 791 790 813
s 1
f 784 783 806
s 1
f 798 821 822
s 1
f 791 814 815
s 1
f 784 807 808
s 1
f 799 822 823
s 1
f 792 815 816
s 1
f 785 808 809
s 1
f 800 823 824
s 1
f 793 816 817
s 1
f 787 786 809
s 1
f 813 812 835
s 1
f 805 828 829
s 1
f 821 820 843
s 1
f 814 813 836
s 1
f 807 806 829
s 1
f 821 844 845
s 1
f 815 814 837
s 1
f 807 830 831
s 1
f 822 845 846
s 1
f 815 838 839
s 1
f 808 831 832
s 1
f 823 846 847
s 1
f 817 816 839
s 1
f 810 809 832
s 1
f 824 847 848
s 1
f 818 817 840
s 1
f 810 833 834
s 1
f 803 826 827
s 1
f 818 841 842
s 1
f 812 811 834
s 1
f 804 827 828
s 1
f 819 842 843
s 1
f 838 861 862
s 1
f 831 854 855
s 1
f 846 869 870
s 1
f 839 862 863
s 1
f 833 832 855
s 1
f 847 870 871
s 1
f 840 863 864
s 1
f 833 856 857
s 1
f 827 826 849
s 1
f 841 864 865
s 1
f 835 834 857
s 1
f 828 827 850
s 1
f 843 842 865
s 1
f 836 835 858
s 1
f 828 851 852
s 1
f 844 843 866
s 1
f 837 836 859
s 1
f 830 829 852
s 1
f 844 867 868
s 1
f 837 860 861
s 1
f 830 853 854
s 1
f 845 868 869
s 1
f 849 872 873
s 1
f 864 887 888
s 1
f 858 857 880
s 1
f 850 873 874
s 1
f 865 888 889
s 1
f 859 858 881
s 1
f 851 874 875
s 1
f 867 866 889
s 1
f 859 882 883
s 1
f 853 852 875
s 1
f 867 890 891
s 1
f 860 883 884
s 1
f 853 876 877
s 1
f 869 868 891
s 1
f 861 884 885
s 1
f 854 877 878
s 1
f 869 892 893
s 1
f 863 862 885
s 1
f 856 855 878
s 1
f 870 893 894
s 1
f 864 863 886
s 1
f 856 879 880
s 1
f 882 905 906
s 1
f 876 875 898
s 1
f 890 913 914
s 1
f 883 906 907
s 1
f 876 899 900
s 1
f 891 914 915
s 1
f 884 907 908
s 1
f 877 900 901
s 1
f 892 915 916
s 1
f 885 908 909
s 1
f 878 901 902
s 1
f 893 916 917
s 1
f 886 909 910
s 1
f 880 879 902
s 1
f 872 895 896
s 1
f 887 910 911
s 1
f 880 903 904
s 1
f 874 873 896
s 1
f 889 888 911
s 1
f 882 881 904
s 1
f 875 874 897
s 1
f 890 889 912
s 1
f 909 908 931
s 1
f 901 924 925
s 1
f 916 939 940
s 1
f 909 932 933
s 1
f 903 902 925
s 1
f 895 918 919
s 1
f 911 910 933
s 1
f 903 926 927
s 1
f 897 896 919
s 1
f 912 911 934
s 1
f 905 904 927
s 1
f 898 897 920
s 1
f 913 912 935
s 1
f 906 905 928
s 1
f 899 898 921
s 1
f 913 936 937
s 1
f 906 929 930
s 1
f 899 922 923
s 1
f 914 937 938
s 1
f 907 930 931
s 1
f 900 923 924
s 1
f 915 938 939
s 1
f 919 942 943
s 1
f 935 934 957
s 1
f 928 927 950
s 1
f 921 920 943
s 1
f 936 935 958
s 1
f 929 928 951
s 1
f 922 921 944
s 1
f 936 959 960
s 1
f 929 952 953
s 1
f 922 945 946
s 1
f 938 937 960
s 1
f 930 953 954
s 1
f 923 946 947
s 1
f 938 961 962
s 1
f 932 931 954
s 1
f 924 947 948
s 1
f 939 962 963
s 1
f 932 955 956
s 1
f 925 948 949
s 1
f 918 941 942
s 1
f 933 956 957
s 1
f 926 949 950
s 1
f 952 975 976
s 1
f 945 968 969
s 1
f 960 983 984
s 1
f 953 976 977
s 1
f 946 969 970
s 1
f 962 961 984
s 1
f 955 954 977
s 1
f 948 947 970
s 1
f 963 962 985
s 1
f 955 978 979
s 1
f 948 971 972
s 1
f 941 964 965
s 1
f 956 979 980
s 1
f 949 972 973
s 1
f 943 942 965
s 1
f 958 957 980
s 1
f 951 950 973
s 1
f 944 943 966
s 1
f 959 958 981
s 1
f 952 951 974
s 1
f 945 944 967
s 1
f 959 982 983
s 1
f 978 1001 1002
s 1
f 972 971 994
s 1
f 964 987 988
s 1
f 979 1002 1003
s 1
f 972 995 996
s 1
f 965 988 989
s 1
f 981 980 1003
s 1
f 974 973 996
s 1
f 967 966 989
s 1
f 982 981 1004
s 1
f 975 974 997
s 1
f 968 967 990
s 1
f 982 1005 1006
s 1
f 975 998 999
s 1
f 968 991 992
s 1
f 983 1006 1007
s 1
f 976 999 1000
s 1
f 970 969 992
s 1
f 985 984 1007
s 1
f 978 977 1000
s 1
f 970 993 994
s 1
f 985 1008 1009
s 1
f 990 989 1012
s 1
f 1005 1004 1027
s 1
f 998 997 1020
s 1
f 991 990 1013
s 1
f 1005 1028 1029
s 1
f 998 1021 1022
s 1
f 991 1014 1015
s 1
f 1006 1029 1030
s 1
f 999 1022 1023
s 1
f 992 1015 1016
s 1
f 1007 1030 1031
s 1
f 1001 1000 1023
s 1
f 994 993 1016
s 1
f 1008 1031 1032
s 1
f 1001 1024 1025
s 1
f 995 994 1017
s 1
f 987 1010 1011
s 1
f 1002 1025 1026
s 1
f 995 1018 1019
s 1
f 989 988 1011
s 1
f 1004 1003 1026
s 1
f 997 996 1019
s 1
f 1022 1045 1046
s 1
f 1015 1038 1039
s 1
f 1030 1053 1054
s 1
f 1024 1023 1046
s 1
f 1017 1016 1039
s 1
f 1031 1054 1055
s 1
f 1024 1047 1048
s 1
f 1018 1017 1040
s 1
f 1010 1033 1034
s 1
f 1025 1048 1049
s 1
f 1018 1041 1042
s 1
f 1011 1034 1035
s 1
f 1027 1026 1049
s 1
f 1020 1019 1042
s 1
f 1013 1012 1035
s 1
f 1028 1027 1050
s 1
f 1021 1020 1043
s 1
f 1014 1013 1036
s 1
f 1028 1051 1052
s 1
f 1021 1044 1045
s 1
f 1014 1037 1038
s 1
f 1029 1052 1053
s 1
f 1034 1033 1056
s 1
f 1049 1048 1071
s 1
f 1041 1064 1065
s 1
f 1035 1034 1057
s 1
f 1050 1049 1072
s 1
f 1043 1042 1065
s 1
f 1036 1035 1058
s 1
f 1051 1050 1073
s 1
f 1044 1043 1066
s 1
f 1037 1036 1059
s 1
f 1051 1074 1075
s 1
f 1044 1067 1068
s 1
f 1037 1060 1061
s 1
f 1052 1075 1076
s 1
f 1045 1068 1069
s 1
f 1038 1061 1062
s 1
f 1053 1076 1077
s 1
f 1047 1046 1069
s 1
f 1040 1039 1062
s 1
f 1054 1077 1078
s 1
f 1048 1047 1070
s 1
f 1040 1063 1064
s 1
f 1060 1059 1082
s 1
f 1074 1097 1098
s 1
f 1067 1090 1091
s 1
f 1060 1083 1084
s 1
f 1075 1098 1099
s 1
f 1068 1091 1092
s 1
f 1061 1084 1085
s 1
f 1076 1099 1100
s 1
f 1070 1069 1092
s 1
f 1062 1085 1086
s 1
f 1077 1100 1101
s 1
f 1070 1093 1094
s 1
f 1063 1086 1087
s 1
f 1057 1056 1079
s 1
f 1071 1094 1095
s 1
f 1064 1087 1088
s 1
f 1057 1080 1081
s 1
f 1073 1072 1095
s 1
f 1065 1088 1089
s 1
f 1059 1058 1081
s 1
f 1074 1073 1096
s 1
f 1067 1066 1089
s 1
f 1093 1092 1104
s 1
f 1085 7 8
s 1
f 1101 1100 18
s 1
f 1094 1093 13
s 1
f 1086 8 9
s 1
f 1079 1102 2
s 1
f 1094 1105 1106
s 1
f 1087 9 1103
s 1
f 1080 2 3
s 1
f 1096 1095 1106
s 1
f 1088 1103 10
s 1
f 1081 3 4
s 1
f 1097 1096 14
s 1
f 1089 10 11
s 1
f 1082 4 5
s 1
f 1098 1097 15
s 1
f 1090 11 12
s 1
f 1083 5 6
s 1
f 1099 1098 16
s 1
f 1092 1091 12
s 1
f 1084 6 7
s 1
f 1100 1099 17
