# clockwork Gear2_Glow.obj: Roblox cue frame, recentred on its bounding box
v -0.09111 0.04098 0.01562
v -0.09230 0.04130 0.00000
v -0.00647 -0.02415 0.02080
v 0.00647 0.02415 0.02080
v -0.01416 -0.02209 0.01922
v -0.00122 0.02621 0.01922
v -0.02068 -0.02034 0.01471
v -0.00774 0.02795 0.01471
v -0.02503 -0.01917 0.00796
v -0.01209 0.02912 0.00796
v -0.02656 -0.01876 0.00000
v -0.01362 0.02953 0.00000
v -0.02503 -0.01917 -0.00796
v -0.01209 0.02912 -0.00796
v -0.02068 -0.02034 -0.01471
v -0.00774 0.02795 -0.01471
v -0.01416 -0.02209 -0.01922
v -0.00122 0.02621 -0.01922
v -0.00647 -0.02415 -0.02080
v 0.00647 0.02415 -0.02080
v 0.00122 -0.02621 -0.01922
v 0.01416 0.02209 -0.01922
v 0.00774 -0.02795 -0.01471
v 0.02068 0.02034 -0.01471
v 0.01209 -0.02912 -0.00796
v 0.02503 0.01917 -0.00796
v 0.01362 -0.02953 0.00000
v 0.02656 0.01876 0.00000
v 0.01209 -0.02912 0.00796
v 0.02503 0.01917 0.00796
v 0.00774 -0.02795 0.01471
v 0.02068 0.02034 0.01471
v 0.00122 -0.02621 0.01922
v 0.01416 0.02209 0.01922
v -0.08758 0.04003 0.03085
v -0.08179 0.03848 0.04533
v -0.07388 0.03636 0.05868
v -0.06405 0.03373 0.07060
v -0.05254 0.03064 0.08077
v -0.03964 0.02719 0.08896
v -0.02566 0.02344 0.09495
v -0.01095 0.01950 0.09861
v 0.00414 0.01545 0.09984
v 0.01923 0.01141 0.09861
v 0.03394 0.00747 0.09495
v 0.04792 0.00372 0.08896
v 0.06083 0.00027 0.08077
v 0.07233 -0.00282 0.07060
v 0.08216 -0.00545 0.05868
v 0.09007 -0.00757 0.04533
v 0.09586 -0.00912 0.03085
v 0.09939 -0.01007 0.01562
v 0.10058 -0.01039 0.00000
v 0.09939 -0.01007 -0.01562
v 0.09586 -0.00912 -0.03085
v 0.09007 -0.00757 -0.04533
v 0.08216 -0.00545 -0.05868
v 0.07233 -0.00282 -0.07060
v 0.06083 0.00027 -0.08077
v 0.04792 0.00372 -0.08896
v 0.03394 0.00747 -0.09495
v 0.01923 0.01141 -0.09861
v 0.00414 0.01545 -0.09984
v -0.01095 0.01950 -0.09861
v -0.02566 0.02344 -0.09495
v -0.03964 0.02719 -0.08896
v -0.05254 0.03064 -0.08077
v -0.06405 0.03373 -0.07060
v -0.07388 0.03636 -0.05868
v -0.08179 0.03848 -0.04533
v -0.08758 0.04003 -0.03085
v -0.09111 0.04098 -0.01562
v -0.10466 0.04461 0.00000
v -0.10332 0.04425 0.01762
v -0.09934 0.04318 0.03481
v -0.09280 0.04143 0.05114
v -0.08388 0.03904 0.06621
v -0.07279 0.03607 0.07965
v -0.05981 0.03259 0.09113
v -0.04525 0.02869 0.10036
v -0.02948 0.02446 0.10713
v -0.01288 0.02002 0.11125
v 0.00414 0.01545 0.11264
v 0.02116 0.01089 0.11125
v 0.03776 0.00645 0.10713
v 0.05354 0.00222 0.10036
v 0.06809 -0.00168 0.09113
v 0.08108 -0.00516 0.07965
v 0.09216 -0.00813 0.06621
v 0.10108 -0.01052 0.05114
v 0.10762 -0.01227 0.03481
v 0.11160 -0.01334 0.01762
v 0.11294 -0.01370 0.00000
v 0.11160 -0.01334 -0.01762
v 0.10762 -0.01227 -0.03481
v 0.10108 -0.01052 -0.05114
v 0.09216 -0.00813 -0.06621
v 0.08108 -0.00516 -0.07965
v 0.06809 -0.00168 -0.09113
v 0.05354 0.00222 -0.10036
v 0.03776 0.00645 -0.10713
v 0.02116 0.01089 -0.11125
v 0.00414 0.01545 -0.11264
v -0.01288 0.02002 -0.11125
v -0.02948 0.02446 -0.10713
v -0.04525 0.02869 -0.10036
v -0.05981 0.03259 -0.09113
v -0.07279 0.03607 -0.07965
v -0.08388 0.03904 -0.06621
v -0.09280 0.04143 -0.05114
v -0.09934 0.04318 -0.03481
v -0.10332 0.04425 -0.01762
v -0.10058 0.01039 0.00000
v -0.09939 0.01007 0.01562
v -0.09586 0.00912 0.03085
v -0.09007 0.00757 0.04533
v -0.08216 0.00545 0.05868
v -0.07233 0.00282 0.07060
v -0.06083 -0.00027 0.08077
v -0.04792 -0.00372 0.08896
v -0.03394 -0.00747 0.09495
v -0.01923 -0.01141 0.09861
v -0.00414 -0.01545 0.09984
v 0.01095 -0.01950 0.09861
v 0.02566 -0.02344 0.09495
v 0.03964 -0.02719 0.08896
v 0.05254 -0.03064 0.08077
v 0.06405 -0.03373 0.07060
v 0.07388 -0.03636 0.05868
v 0.08179 -0.03848 0.04533
v 0.08758 -0.04003 0.03085
v 0.09111 -0.04098 0.01562
v 0.09230 -0.04130 0.00000
v 0.09111 -0.04098 -0.01562
v 0.08758 -0.04003 -0.03085
v 0.08179 -0.03848 -0.04533
v 0.07388 -0.03636 -0.05868
v 0.06405 -0.03373 -0.07060
v 0.05254 -0.03064 -0.08077
v 0.03964 -0.02719 -0.08896
v 0.02566 -0.02344 -0.09495
v 0.01095 -0.01950 -0.09861
v -0.00414 -0.01545 -0.09984
v -0.01923 -0.01141 -0.09861
v -0.03394 -0.00747 -0.09495
v -0.04792 -0.00372 -0.08896
v -0.06083 -0.00027 -0.08077
v -0.07233 0.00282 -0.07060
v -0.08216 0.00545 -0.05868
v -0.09007 0.00757 -0.04533
v -0.09586 0.00912 -0.03085
v -0.09939 0.01007 -0.01562
v -0.11294 0.01370 0.00000
v -0.11160 0.01334 0.01762
v -0.10762 0.01227 0.03481
v -0.10108 0.01052 0.05114
v -0.09216 0.00813 0.06621
v -0.08108 0.00516 0.07965
v -0.06809 0.00168 0.09113
v -0.05354 -0.00222 0.10036
v -0.03776 -0.00645 0.10713
v -0.02116 -0.01089 0.11125
v -0.00414 -0.01545 0.11264
v 0.01288 -0.02002 0.11125
v 0.02948 -0.02446 0.10713
v 0.04525 -0.02869 0.10036
v 0.05981 -0.03259 0.09113
v 0.07279 -0.03607 0.07965
v 0.08388 -0.03904 0.06621
v 0.09280 -0.04143 0.05114
v 0.09934 -0.04318 0.03481
v 0.10332 -0.04425 0.01762
v 0.10466 -0.04461 0.00000
v 0.10332 -0.04425 -0.01762
v 0.09934 -0.04318 -0.03481
v 0.09280 -0.04143 -0.05114
v 0.08388 -0.03904 -0.06621
v 0.07279 -0.03607 -0.07965
v 0.05981 -0.03259 -0.09113
v 0.04525 -0.02869 -0.10036
v 0.02948 -0.02446 -0.10713
v 0.01288 -0.02002 -0.11125
v -0.00414 -0.01545 -0.11264
v -0.02116 -0.01089 -0.11125
v -0.03776 -0.00645 -0.10713
v -0.05354 -0.00222 -0.10036
v -0.06809 0.00168 -0.09113
v -0.08108 0.00516 -0.07965
v -0.09216 0.00813 -0.06621
v -0.10108 0.01052 -0.05114
v -0.10762 0.01227 -0.03481
v -0.11160 0.01334 -0.01762
f 62 103 102
f 47 88 87
f 4 5 3
f 64 103 63
f 47 86 46
f 5 8 7
f 61 100 60
f 45 86 85
f 8 9 7
f 59 100 99
f 45 84 44
f 9 12 11
f 59 98 58
f 44 83 43
f 11 14 13
f 58 97 57
f 42 83 82
f 13 16 15
f 57 96 56
f 42 81 41
f 16 17 15
f 56 95 55
f 41 80 40
f 17 20 19
f 54 95 94
f 39 80 79
f 19 22 21
f 53 94 93
f 39 78 38
f 22 23 21
f 53 92 52
f 38 77 37
f 24 25 23
f 52 91 51
f 37 76 36
f 26 27 25
f 50 91 90
f 35 76 75
f 27 30 29
f 49 90 89
f 1 75 74
f 29 32 31
f 12 8 24
f 2 74 73
f 32 33 31
f 61 102 101
f 48 89 88
f 33 4 3
f 21 25 33
f 64 105 104
f 65 106 105
f 67 106 66
f 67 108 107
f 68 109 108
f 69 110 109
f 71 110 70
f 72 111 71
f 2 112 72
f 154 113 153
f 155 114 154
f 156 115 155
f 156 117 116
f 157 118 117
f 158 119 118
f 160 119 159
f 160 121 120
f 162 121 161
f 163 122 162
f 163 124 123
f 165 124 164
f 166 125 165
f 166 127 126
f 168 127 167
f 169 128 168
f 170 129 169
f 170 131 130
f 171 132 131
f 172 133 132
f 174 133 173
f 175 134 174
f 176 135 175
f 176 137 136
f 177 138 137
f 178 139 138
f 180 139 179
f 180 141 140
f 181 142 141
f 183 142 182
f 183 144 143
f 184 145 144
f 186 145 185
f 186 147 146
f 188 147 187
f 189 148 188
f 190 149 189
f 191 150 190
f 191 152 151
f 192 113 152
f 62 63 103
f 47 48 88
f 4 6 5
f 64 104 103
f 47 87 86
f 5 6 8
f 61 101 100
f 45 46 86
f 8 10 9
f 59 60 100
f 45 85 84
f 9 10 12
f 59 99 98
f 44 84 83
f 11 12 14
f 58 98 97
f 42 43 83
f 13 14 16
f 57 97 96
f 42 82 81
f 16 18 17
f 56 96 95
f 41 81 80
f 17 18 20
f 54 55 95
f 39 40 80
f 19 20 22
f 53 54 94
f 39 79 78
f 22 24 23
f 53 93 92
f 38 78 77
f 24 26 25
f 52 92 91
f 37 77 76
f 26 28 27
f 50 51 91
f 35 36 76
f 27 28 30
f 49 50 90
f 1 35 75
f 29 30 32
f 8 6 32
f 6 4 32
f 4 34 32
f 32 30 28
f 28 26 24
f 24 22 20
f 20 18 24
f 18 16 24
f 16 14 12
f 12 10 8
f 32 28 8
f 28 24 8
f 16 12 24
f 2 1 74
f 32 34 33
f 61 62 102
f 48 49 89
f 33 34 4
f 33 3 5
f 5 7 9
f 9 11 17
f 11 13 17
f 13 15 17
f 17 19 21
f 21 23 25
f 25 27 33
f 27 29 33
f 29 31 33
f 33 5 17
f 5 9 17
f 17 21 33
f 64 65 105
f 65 66 106
f 67 107 106
f 67 68 108
f 68 69 109
f 69 70 110
f 71 111 110
f 72 112 111
f 2 73 112
f 154 114 113
f 155 115 114
f 156 116 115
f 156 157 117
f 157 158 118
f 158 159 119
f 160 120 119
f 160 161 121
f 162 122 121
f 163 123 122
f 163 164 124
f 165 125 124
f 166 126 125
f 166 167 127
f 168 128 127
f 169 129 128
f 170 130 129
f 170 171 131
f 171 172 132
f 172 173 133
f 174 134 133
f 175 135 134
f 176 136 135
f 176 177 137
f 177 178 138
f 178 179 139
f 180 140 139
f 180 181 141
f 181 182 142
f 183 143 142
f 183 184 144
f 184 185 145
f 186 146 145
f 186 187 147
f 188 148 147
f 189 149 148
f 190 150 149
f 191 151 150
f 191 192 152
f 192 153 113
