# clockwork Gear8_Glow.obj: Roblox cue frame, recentred on its bounding box
v -0.05583 -0.04165 0.01074
v -0.05638 -0.04230 0.00000
v 0.01915 -0.01607 0.01430
v -0.01915 0.01607 0.01430
v 0.01563 -0.02026 0.01321
v -0.02267 0.01188 0.01321
v 0.01265 -0.02382 0.01011
v -0.02565 0.00832 0.01011
v 0.01066 -0.02619 0.00547
v -0.02764 0.00595 0.00547
v 0.00996 -0.02702 0.00000
v -0.02834 0.00512 0.00000
v 0.01066 -0.02619 -0.00547
v -0.02764 0.00595 -0.00547
v 0.01265 -0.02382 -0.01011
v -0.02565 0.00832 -0.01011
v 0.01563 -0.02026 -0.01321
v -0.02267 0.01188 -0.01321
v 0.01915 -0.01607 -0.01430
v -0.01915 0.01607 -0.01430
v 0.02267 -0.01188 -0.01321
v -0.01563 0.02026 -0.01321
v 0.02565 -0.00832 -0.01011
v -0.01265 0.02382 -0.01011
v 0.02764 -0.00595 -0.00547
v -0.01066 0.02619 -0.00547
v 0.02834 -0.00512 0.00000
v -0.00996 0.02702 0.00000
v 0.02764 -0.00595 0.00547
v -0.01066 0.02619 0.00547
v 0.02565 -0.00832 0.01011
v -0.01265 0.02382 0.01011
v 0.02267 -0.01188 0.01321
v -0.01563 0.02026 0.01321
v -0.05422 -0.03972 0.02121
v -0.05157 -0.03657 0.03116
v -0.04795 -0.03225 0.04035
v -0.04345 -0.02690 0.04854
v -0.03819 -0.02062 0.05553
v -0.03229 -0.01359 0.06116
v -0.02589 -0.00596 0.06528
v -0.01916 0.00206 0.06779
v -0.01226 0.01028 0.06864
v -0.00535 0.01851 0.06779
v 0.00138 0.02653 0.06528
v 0.00777 0.03416 0.06116
v 0.01368 0.04119 0.05553
v 0.01894 0.04747 0.04854
v 0.02344 0.05282 0.04035
v 0.02706 0.05713 0.03116
v 0.02970 0.06029 0.02121
v 0.03132 0.06222 0.01074
v 0.03186 0.06287 0.00000
v 0.03132 0.06222 -0.01074
v 0.02970 0.06029 -0.02121
v 0.02706 0.05713 -0.03116
v 0.02344 0.05282 -0.04035
v 0.01894 0.04747 -0.04854
v 0.01368 0.04119 -0.05553
v 0.00777 0.03416 -0.06116
v 0.00138 0.02653 -0.06528
v -0.00535 0.01851 -0.06779
v -0.01226 0.01028 -0.06864
v -0.01916 0.00206 -0.06779
v -0.02589 -0.00596 -0.06528
v -0.03229 -0.01359 -0.06116
v -0.03819 -0.02062 -0.05553
v -0.04345 -0.02690 -0.04854
v -0.04795 -0.03225 -0.04035
v -0.05157 -0.03657 -0.03116
v -0.05422 -0.03972 -0.02121
v -0.05583 -0.04165 -0.01074
v -0.06203 -0.04904 0.00000
v -0.06142 -0.04831 0.01211
v -0.05960 -0.04613 0.02393
v -0.05661 -0.04257 0.03516
v -0.05253 -0.03771 0.04552
v -0.04745 -0.03166 0.05476
v -0.04152 -0.02458 0.06265
v -0.03486 -0.01665 0.06900
v -0.02764 -0.00805 0.07365
v -0.02004 0.00100 0.07649
v -0.01226 0.01028 0.07744
v -0.00447 0.01956 0.07649
v 0.00313 0.02862 0.07365
v 0.01034 0.03722 0.06900
v 0.01700 0.04515 0.06265
v 0.02294 0.05223 0.05476
v 0.02801 0.05828 0.04552
v 0.03210 0.06314 0.03516
v 0.03508 0.06670 0.02393
v 0.03691 0.06888 0.01211
v 0.03752 0.06961 0.00000
v 0.03691 0.06888 -0.01211
v 0.03508 0.06670 -0.02393
v 0.03210 0.06314 -0.03516
v 0.02801 0.05828 -0.04552
v 0.02294 0.05223 -0.05476
v 0.01700 0.04515 -0.06265
v 0.01034 0.03722 -0.06900
v 0.00313 0.02862 -0.07365
v -0.00447 0.01956 -0.07649
v -0.01226 0.01028 -0.07744
v -0.02004 0.00100 -0.07649
v -0.02764 -0.00805 -0.07365
v -0.03486 -0.01665 -0.06900
v -0.04152 -0.02458 -0.06265
v -0.04745 -0.03166 -0.05476
v -0.05253 -0.03771 -0.04552
v -0.05661 -0.04257 -0.03516
v -0.05960 -0.04613 -0.02393
v -0.06142 -0.04831 -0.01211
v -0.03186 -0.06287 0.00000
v -0.03132 -0.06222 0.01074
v -0.02970 -0.06029 0.02121
v -0.02706 -0.05713 0.03116
v -0.02344 -0.05282 0.04035
v -0.01894 -0.04747 0.04854
v -0.01368 -0.04119 0.05553
v -0.00777 -0.03416 0.06116
v -0.00138 -0.02653 0.06528
v 0.00535 -0.01851 0.06779
v 0.01226 -0.01028 0.06864
v 0.01916 -0.00206 0.06779
v 0.02589 0.00596 0.06528
v 0.03229 0.01359 0.06116
v 0.03819 0.02062 0.05553
v 0.04345 0.02690 0.04854
v 0.04795 0.03225 0.04035
v 0.05157 0.03657 0.03116
v 0.05422 0.03972 0.02121
v 0.05583 0.04165 0.01074
v 0.05638 0.04230 0.00000
v 0.05583 0.04165 -0.01074
v 0.05422 0.03972 -0.02121
v 0.05157 0.03657 -0.03116
v 0.04795 0.03225 -0.04035
v 0.04345 0.02690 -0.04854
v 0.03819 0.02062 -0.05553
v 0.03229 0.01359 -0.06116
v 0.02589 0.00596 -0.06528
v 0.01916 -0.00206 -0.06779
v 0.01226 -0.01028 -0.06864
v 0.00535 -0.01851 -0.06779
v -0.00138 -0.02653 -0.06528
v -0.00777 -0.03416 -0.06116
v -0.01368 -0.04119 -0.05553
v -0.01894 -0.04747 -0.04854
v -0.02344 -0.05282 -0.04035
v -0.02706 -0.05713 -0.03116
v -0.02970 -0.06029 -0.02121
v -0.03132 -0.06222 -0.01074
v -0.03752 -0.06961 0.00000
v -0.03691 -0.06888 0.01211
v -0.03508 -0.06670 0.02393
v -0.03210 -0.06314 0.03516
v -0.02801 -0.05828 0.04552
v -0.02294 -0.05223 0.05476
v -0.01700 -0.04515 0.06265
v -0.01034 -0.03722 0.06900
v -0.00313 -0.02862 0.07365
v 0.00447 -0.01956 0.07649
v 0.01226 -0.01028 0.07744
v 0.02004 -0.00100 0.07649
v 0.02764 0.00805 0.07365
v 0.03486 0.01665 0.06900
v 0.04152 0.02458 0.06265
v 0.04745 0.03166 0.05476
v 0.05253 0.03771 0.04552
v 0.05661 0.04257 0.03516
v 0.05960 0.04613 0.02393
v 0.06142 0.04831 0.01211
v 0.06203 0.04904 0.00000
v 0.06142 0.04831 -0.01211
v 0.05960 0.04613 -0.02393
v 0.05661 0.04257 -0.03516
v 0.05253 0.03771 -0.04552
v 0.04745 0.03166 -0.05476
v 0.04152 0.02458 -0.06265
v 0.03486 0.01665 -0.06900
v 0.02764 0.00805 -0.07365
v 0.02004 -0.00100 -0.07649
v 0.01226 -0.01028 -0.07744
v 0.00447 -0.01956 -0.07649
v -0.00313 -0.02862 -0.07365
v -0.01034 -0.03722 -0.06900
v -0.01700 -0.04515 -0.06265
v -0.02294 -0.05223 -0.05476
v -0.02801 -0.05828 -0.04552
v -0.03210 -0.06314 -0.03516
v -0.03508 -0.06670 -0.02393
v -0.03691 -0.06888 -0.01211
f 63 102 62
f 47 88 87
f 4 5 3
f 63 104 103
f 47 86 46
f 6 7 5
f 61 100 60
f 46 85 45
f 8 9 7
f 59 100 99
f 45 84 44
f 10 11 9
f 59 98 58
f 43 84 83
f 11 14 13
f 57 98 97
f 43 82 42
f 13 16 15
f 56 97 96
f 41 82 81
f 15 18 17
f 55 96 95
f 41 80 40
f 18 19 17
f 55 94 54
f 39 80 79
f 20 21 19
f 54 93 53
f 39 78 38
f 22 23 21
f 52 93 92
f 37 78 77
f 24 25 23
f 51 92 91
f 36 77 76
f 26 27 25
f 51 90 50
f 35 76 75
f 27 30 29
f 50 89 49
f 35 74 1
f 29 32 31
f 32 24 16
f 2 74 73
f 31 34 33
f 61 102 101
f 49 88 48
f 34 3 33
f 17 25 33
f 65 104 64
f 65 106 105
f 67 106 66
f 67 108 107
f 69 108 68
f 70 109 69
f 71 110 70
f 71 112 111
f 2 112 72
f 153 114 113
f 154 115 114
f 156 115 155
f 157 116 156
f 158 117 157
f 158 119 118
f 159 120 119
f 160 121 120
f 162 121 161
f 162 123 122
f 164 123 163
f 164 125 124
f 166 125 165
f 166 127 126
f 168 127 167
f 168 129 128
f 169 130 129
f 170 131 130
f 172 131 171
f 172 133 132
f 173 134 133
f 174 135 134
f 176 135 175
f 177 136 176
f 178 137 177
f 178 139 138
f 179 140 139
f 181 140 180
f 182 141 181
f 182 143 142
f 184 143 183
f 184 145 144
f 186 145 185
f 186 147 146
f 188 147 187
f 188 149 148
f 189 150 149
f 190 151 150
f 192 151 191
f 153 152 192
f 63 103 102
f 47 48 88
f 4 6 5
f 63 64 104
f 47 87 86
f 6 8 7
f 61 101 100
f 46 86 85
f 8 10 9
f 59 60 100
f 45 85 84
f 10 12 11
f 59 99 98
f 43 44 84
f 11 12 14
f 57 58 98
f 43 83 82
f 13 14 16
f 56 57 97
f 41 42 82
f 15 16 18
f 55 56 96
f 41 81 80
f 18 20 19
f 55 95 94
f 39 40 80
f 20 22 21
f 54 94 93
f 39 79 78
f 22 24 23
f 52 53 93
f 37 38 78
f 24 26 25
f 51 52 92
f 36 37 77
f 26 28 27
f 51 91 90
f 35 36 76
f 27 28 30
f 50 90 89
f 35 75 74
f 29 30 32
f 8 6 4
f 4 34 32
f 32 30 28
f 28 26 24
f 24 22 20
f 20 18 16
f 16 14 12
f 12 10 8
f 8 4 32
f 32 28 24
f 24 20 16
f 16 12 8
f 8 32 16
f 2 1 74
f 31 32 34
f 61 62 102
f 49 89 88
f 34 4 3
f 33 3 5
f 5 7 33
f 7 9 33
f 9 11 13
f 13 15 9
f 15 17 9
f 17 19 21
f 21 23 17
f 23 25 17
f 25 27 29
f 29 31 25
f 31 33 25
f 33 9 17
f 65 105 104
f 65 66 106
f 67 107 106
f 67 68 108
f 69 109 108
f 70 110 109
f 71 111 110
f 71 72 112
f 2 73 112
f 153 154 114
f 154 155 115
f 156 116 115
f 157 117 116
f 158 118 117
f 158 159 119
f 159 160 120
f 160 161 121
f 162 122 121
f 162 163 123
f 164 124 123
f 164 165 125
f 166 126 125
f 166 167 127
f 168 128 127
f 168 169 129
f 169 170 130
f 170 171 131
f 172 132 131
f 172 173 133
f 173 174 134
f 174 175 135
f 176 136 135
f 177 137 136
f 178 138 137
f 178 179 139
f 179 180 140
f 181 141 140
f 182 142 141
f 182 183 143
f 184 144 143
f 184 185 145
f 186 146 145
f 186 187 147
f 188 148 147
f 188 189 149
f 189 190 150
f 190 191 151
f 192 152 151
f 153 113 152
