# clockwork Gear9_Glow.obj: Roblox cue frame, recentred on its bounding box
v -0.01237 0.08076 0.01269
v -0.01271 0.08170 0.00000
v -0.02349 -0.00855 0.01690
v 0.02349 0.00855 0.01690
v -0.02570 -0.00247 0.01561
v 0.02128 0.01463 0.01561
v -0.02758 0.00268 0.01195
v 0.01941 0.01978 0.01195
v -0.02883 0.00612 0.00647
v 0.01815 0.02322 0.00647
v -0.02927 0.00733 0.00000
v 0.01771 0.02443 0.00000
v -0.02883 0.00612 -0.00647
v 0.01815 0.02322 -0.00647
v -0.02758 0.00268 -0.01195
v 0.01941 0.01978 -0.01195
v -0.02570 -0.00247 -0.01561
v 0.02128 0.01463 -0.01561
v -0.02349 -0.00855 -0.01690
v 0.02349 0.00855 -0.01690
v -0.02128 -0.01463 -0.01561
v 0.02570 0.00247 -0.01561
v -0.01941 -0.01978 -0.01195
v 0.02758 -0.00268 -0.01195
v -0.01815 -0.02322 -0.00647
v 0.02883 -0.00612 -0.00647
v -0.01771 -0.02443 0.00000
v 0.02927 -0.00733 0.00000
v -0.01815 -0.02322 0.00647
v 0.02883 -0.00612 0.00647
v -0.01941 -0.01978 0.01195
v 0.02758 -0.00268 0.01195
v -0.02128 -0.01463 0.01561
v 0.02570 0.00247 0.01561
v -0.01135 0.07797 0.02507
v -0.00969 0.07339 0.03683
v -0.00741 0.06714 0.04768
v -0.00458 0.05937 0.05736
v -0.00127 0.05028 0.06563
v 0.00244 0.04008 0.07228
v 0.00646 0.02903 0.07715
v 0.01069 0.01740 0.08012
v 0.01504 0.00547 0.08112
v 0.01938 -0.00645 0.08012
v 0.02361 -0.01808 0.07715
v 0.02763 -0.02913 0.07228
v 0.03134 -0.03933 0.06563
v 0.03465 -0.04843 0.05736
v 0.03748 -0.05620 0.04768
v 0.03976 -0.06245 0.03683
v 0.04142 -0.06702 0.02507
v 0.04244 -0.06982 0.01269
v 0.04278 -0.07076 0.00000
v 0.04244 -0.06982 -0.01269
v 0.04142 -0.06702 -0.02507
v 0.03976 -0.06245 -0.03683
v 0.03748 -0.05620 -0.04768
v 0.03465 -0.04843 -0.05736
v 0.03134 -0.03933 -0.06563
v 0.02763 -0.02913 -0.07228
v 0.02361 -0.01808 -0.07715
v 0.01938 -0.00645 -0.08012
v 0.01504 0.00547 -0.08112
v 0.01069 0.01740 -0.08012
v 0.00646 0.02903 -0.07715
v 0.00244 0.04008 -0.07228
v -0.00127 0.05028 -0.06563
v -0.00458 0.05937 -0.05736
v -0.00741 0.06714 -0.04768
v -0.00969 0.07339 -0.03683
v -0.01135 0.07797 -0.02507
v -0.01237 0.08076 -0.01269
v -0.01627 0.09147 0.00000
v -0.01588 0.09041 0.01432
v -0.01473 0.08726 0.02828
v -0.01285 0.08210 0.04155
v -0.01029 0.07505 0.05379
v -0.00710 0.06628 0.06471
v -0.00336 0.05602 0.07404
v 0.00082 0.04452 0.08154
v 0.00536 0.03205 0.08704
v 0.01014 0.01893 0.09039
v 0.01504 0.00547 0.09152
v 0.01993 -0.00798 0.09039
v 0.02471 -0.02110 0.08704
v 0.02925 -0.03357 0.08154
v 0.03343 -0.04508 0.07404
v 0.03717 -0.05534 0.06471
v 0.04036 -0.06410 0.05379
v 0.04293 -0.07115 0.04155
v 0.04480 -0.07632 0.02828
v 0.04595 -0.07947 0.01432
v 0.04634 -0.08053 0.00000
v 0.04595 -0.07947 -0.01432
v 0.04480 -0.07632 -0.02828
v 0.04293 -0.07115 -0.04155
v 0.04036 -0.06410 -0.05379
v 0.03717 -0.05534 -0.06471
v 0.03343 -0.04508 -0.07404
v 0.02925 -0.03357 -0.08154
v 0.02471 -0.02110 -0.08704
v 0.01993 -0.00798 -0.09039
v 0.01504 0.00547 -0.09152
v 0.01014 0.01893 -0.09039
v 0.00536 0.03205 -0.08704
v 0.00082 0.04452 -0.08154
v -0.00336 0.05602 -0.07404
v -0.00710 0.06628 -0.06471
v -0.01029 0.07505 -0.05379
v -0.01285 0.08210 -0.04155
v -0.01473 0.08726 -0.02828
v -0.01588 0.09041 -0.01432
v -0.04278 0.07076 0.00000
v -0.04244 0.06982 0.01269
v -0.04142 0.06702 0.02507
v -0.03976 0.06245 0.03683
v -0.03748 0.05620 0.04768
v -0.03465 0.04843 0.05736
v -0.03134 0.03933 0.06563
v -0.02763 0.02913 0.07228
v -0.02361 0.01808 0.07715
v -0.01938 0.00645 0.08012
v -0.01504 -0.00547 0.08112
v -0.01069 -0.01740 0.08012
v -0.00646 -0.02903 0.07715
v -0.00244 -0.04008 0.07228
v 0.00127 -0.05028 0.06563
v 0.00458 -0.05937 0.05736
v 0.00741 -0.06714 0.04768
v 0.00969 -0.07339 0.03683
v 0.01135 -0.07797 0.02507
v 0.01237 -0.08076 0.01269
v 0.01271 -0.08170 0.00000
v 0.01237 -0.08076 -0.01269
v 0.01135 -0.07797 -0.02507
v 0.00969 -0.07339 -0.03683
v 0.00741 -0.06714 -0.04768
v 0.00458 -0.05937 -0.05736
v 0.00127 -0.05028 -0.06563
v -0.00244 -0.04008 -0.07228
v -0.00646 -0.02903 -0.07715
v -0.01069 -0.01740 -0.08012
v -0.01504 -0.00547 -0.08112
v -0.01938 0.00645 -0.08012
v -0.02361 0.01808 -0.07715
v -0.02763 0.02913 -0.07228
v -0.03134 0.03933 -0.06563
v -0.03465 0.04843 -0.05736
v -0.03748 0.05620 -0.04768
v -0.03976 0.06245 -0.03683
v -0.04142 0.06702 -0.02507
v -0.04244 0.06982 -0.01269
v -0.04634 0.08053 0.00000
v -0.04595 0.07947 0.01432
v -0.04480 0.07632 0.02828
v -0.04293 0.07115 0.04155
v -0.04036 0.06410 0.05379
v -0.03717 0.05534 0.06471
v -0.03343 0.04508 0.07404
v -0.02925 0.03357 0.08154
v -0.02471 0.02110 0.08704
v -0.01993 0.00798 0.09039
v -0.01504 -0.00547 0.09152
v -0.01014 -0.01893 0.09039
v -0.00536 -0.03205 0.08704
v -0.00082 -0.04452 0.08154
v 0.00336 -0.05602 0.07404
v 0.00710 -0.06628 0.06471
v 0.01029 -0.07505 0.05379
v 0.01285 -0.08210 0.04155
v 0.01473 -0.08726 0.02828
v 0.01588 -0.09041 0.01432
v 0.01627 -0.09147 0.00000
v 0.01588 -0.09041 -0.01432
v 0.01473 -0.08726 -0.02828
v 0.01285 -0.08210 -0.04155
v 0.01029 -0.07505 -0.05379
v 0.00710 -0.06628 -0.06471
v 0.00336 -0.05602 -0.07404
v -0.00082 -0.04452 -0.08154
v -0.00536 -0.03205 -0.08704
v -0.01014 -0.01893 -0.09039
v -0.01504 -0.00547 -0.09152
v -0.01993 0.00798 -0.09039
v -0.02471 0.02110 -0.08704
v -0.02925 0.03357 -0.08154
v -0.03343 0.04508 -0.07404
v -0.03717 0.05534 -0.06471
v -0.04036 0.06410 -0.05379
v -0.04293 0.07115 -0.04155
v -0.04480 0.07632 -0.02828
v -0.04595 0.07947 -0.01432
f 63 102 62
f 47 88 87
f 3 6 5
f 63 104 103
f 47 86 46
f 5 8 7
f 60 101 100
f 46 85 45
f 8 9 7
f 59 100 99
f 44 85 84
f 10 11 9
f 59 98 58
f 43 84 83
f 11 14 13
f 58 97 57
f 43 82 42
f 13 16 15
f 56 97 96
f 42 81 41
f 16 17 15
f 55 96 95
f 41 80 40
f 18 19 17
f 54 95 94
f 39 80 79
f 19 22 21
f 53 94 93
f 38 79 78
f 22 23 21
f 53 92 52
f 38 77 37
f 23 26 25
f 52 91 51
f 36 77 76
f 26 27 25
f 51 90 50
f 35 76 75
f 28 29 27
f 50 89 49
f 1 75 74
f 30 31 29
f 32 24 16
f 2 74 73
f 32 33 31
f 62 101 61
f 48 89 88
f 34 3 33
f 9 17 25
f 64 105 104
f 66 105 65
f 67 106 66
f 68 107 67
f 68 109 108
f 70 109 69
f 71 110 70
f 72 111 71
f 2 112 72
f 154 113 153
f 155 114 154
f 156 115 155
f 157 116 156
f 157 118 117
f 158 119 118
f 160 119 159
f 161 120 160
f 161 122 121
f 162 123 122
f 164 123 163
f 165 124 164
f 165 126 125
f 166 127 126
f 168 127 167
f 169 128 168
f 169 130 129
f 170 131 130
f 171 132 131
f 172 133 132
f 174 133 173
f 175 134 174
f 176 135 175
f 177 136 176
f 177 138 137
f 179 138 178
f 180 139 179
f 181 140 180
f 181 142 141
f 182 143 142
f 184 143 183
f 185 144 184
f 185 146 145
f 186 147 146
f 188 147 187
f 189 148 188
f 189 150 149
f 190 151 150
f 191 152 151
f 192 113 152
f 63 103 102
f 47 48 88
f 3 4 6
f 63 64 104
f 47 87 86
f 5 6 8
f 60 61 101
f 46 86 85
f 8 10 9
f 59 60 100
f 44 45 85
f 10 12 11
f 59 99 98
f 43 44 84
f 11 12 14
f 58 98 97
f 43 83 82
f 13 14 16
f 56 57 97
f 42 82 81
f 16 18 17
f 55 56 96
f 41 81 80
f 18 20 19
f 54 55 95
f 39 40 80
f 19 20 22
f 53 54 94
f 38 39 79
f 22 24 23
f 53 93 92
f 38 78 77
f 23 24 26
f 52 92 91
f 36 37 77
f 26 28 27
f 51 91 90
f 35 36 76
f 28 30 29
f 50 90 89
f 1 35 75
f 30 32 31
f 8 6 32
f 6 4 32
f 4 34 32
f 32 30 28
f 28 26 24
f 24 22 20
f 20 18 24
f 18 16 24
f 16 14 12
f 12 10 8
f 32 28 24
f 16 12 8
f 8 32 16
f 2 1 74
f 32 34 33
f 62 102 101
f 48 49 89
f 34 4 3
f 33 3 5
f 5 7 33
f 7 9 33
f 9 11 13
f 13 15 9
f 15 17 9
f 17 19 21
f 21 23 17
f 23 25 17
f 25 27 29
f 29 31 25
f 31 33 25
f 33 9 25
f 64 65 105
f 66 106 105
f 67 107 106
f 68 108 107
f 68 69 109
f 70 110 109
f 71 111 110
f 72 112 111
f 2 73 112
f 154 114 113
f 155 115 114
f 156 116 115
f 157 117 116
f 157 158 118
f 158 159 119
f 160 120 119
f 161 121 120
f 161 162 122
f 162 163 123
f 164 124 123
f 165 125 124
f 165 166 126
f 166 167 127
f 168 128 127
f 169 129 128
f 169 170 130
f 170 171 131
f 171 172 132
f 172 173 133
f 174 134 133
f 175 135 134
f 176 136 135
f 177 137 136
f 177 178 138
f 179 139 138
f 180 140 139
f 181 141 140
f 181 182 142
f 182 183 143
f 184 144 143
f 185 145 144
f 185 186 146
f 186 187 147
f 188 148 147
f 189 149 148
f 189 190 150
f 190 191 151
f 191 192 152
f 192 153 113
