# clockwork Gear5_Brass.obj: Roblox cue frame, recentred on its bounding box
v -0.18832 -0.07237 0.00000
v -0.19023 -0.07712 0.00000
v -0.18868 -0.07640 0.02476
v -0.19118 -0.07756 0.03005
v -0.18658 -0.07155 0.02773
v -0.22314 -0.09247 0.05120
v -0.22492 -0.09330 0.05634
v -0.22339 -0.08872 0.05206
v -0.21498 -0.08866 0.09160
v -0.21087 -0.08675 0.09472
v -0.21178 -0.08331 0.09325
v -0.17367 -0.06940 0.09214
v -0.16886 -0.06715 0.09491
v -0.16895 -0.06334 0.09024
v -0.15475 -0.06057 0.12050
v -0.15349 -0.05612 0.11830
v -0.14030 -0.05384 0.13952
v -0.13951 -0.05347 0.14542
v -0.13730 -0.04858 0.13960
v -0.15410 -0.06027 0.18326
v -0.15280 -0.05967 0.18858
v -0.15413 -0.05642 0.18316
v -0.12597 -0.04716 0.21066
v -0.12099 -0.04483 0.21052
v -0.12279 -0.04181 0.20895
v -0.09227 -0.03144 0.18430
v -0.08690 -0.02894 0.18342
v -0.08974 -0.02640 0.17874
v -0.06185 -0.01726 0.19497
v -0.06228 -0.01360 0.19141
v -0.04003 -0.00708 0.20099
v -0.03624 -0.00532 0.20525
v -0.03784 -0.00220 0.19815
v -0.02789 -0.00142 0.24533
v -0.02401 0.00039 0.24878
v -0.02825 0.00227 0.24430
v 0.00946 0.01600 0.24925
v 0.01342 0.01784 0.24590
v 0.01085 0.02050 0.24484
v 0.02268 0.02216 0.20606
v 0.02656 0.02397 0.20187
v 0.02148 0.02547 0.19897
v 0.05298 0.03629 0.19497
v 0.05045 0.03897 0.19141
v 0.07383 0.04601 0.18569
v 0.07917 0.04850 0.18668
v 0.07381 0.04987 0.18101
v 0.10728 0.06161 0.21368
v 0.11226 0.06393 0.21396
v 0.10616 0.06495 0.21213
v 0.13958 0.07667 0.19263
v 0.14100 0.07734 0.18736
v 0.13808 0.07983 0.18721
v 0.12728 0.07094 0.14912
v 0.12818 0.07136 0.14321
v 0.12225 0.07245 0.14320
v 0.14587 0.07961 0.12050
v 0.14165 0.08150 0.11830
v 0.15780 0.08517 0.09946
v 0.16265 0.08743 0.09680
v 0.15501 0.08773 0.09473
v 0.19978 0.10474 0.10042
v 0.20395 0.10669 0.09741
v 0.19776 0.10766 0.09893
v 0.21469 0.11170 0.06244
v 0.21303 0.11092 0.05725
v 0.21030 0.11351 0.05807
v 0.18156 0.09625 0.03522
v 0.17914 0.09512 0.02985
v 0.17405 0.09661 0.03273
v 0.18136 0.09615 0.00000
v 0.17649 0.09775 0.00000
v 0.17980 0.09543 -0.02476
v 0.18230 0.09660 -0.03005
v 0.17474 0.09693 -0.02773
v 0.21427 0.11150 -0.05120
v 0.21605 0.11233 -0.05634
v 0.21156 0.11410 -0.05206
v 0.20611 0.10769 -0.09160
v 0.20200 0.10578 -0.09472
v 0.19994 0.10868 -0.09325
v 0.16480 0.08843 -0.09214
v 0.15998 0.08619 -0.09491
v 0.15712 0.08871 -0.09024
v 0.14587 0.07961 -0.12050
v 0.14165 0.08150 -0.11830
v 0.13143 0.07287 -0.13952
v 0.13063 0.07250 -0.14542
v 0.12547 0.07395 -0.13960
v 0.14522 0.07930 -0.18326
v 0.14392 0.07870 -0.18858
v 0.14229 0.08180 -0.18316
v 0.11710 0.06619 -0.21066
v 0.11211 0.06386 -0.21052
v 0.11095 0.06719 -0.20895
v 0.08339 0.05047 -0.18430
v 0.07802 0.04797 -0.18342
v 0.07791 0.05178 -0.17874
v 0.05298 0.03629 -0.19497
v 0.05045 0.03897 -0.19141
v 0.03116 0.02611 -0.20099
v 0.02737 0.02435 -0.20525
v 0.02601 0.02757 -0.19815
v 0.01901 0.02045 -0.24533
v 0.01513 0.01864 -0.24878
v 0.01642 0.02310 -0.24430
v -0.01833 0.00304 -0.24925
v -0.02229 0.00119 -0.24590
v -0.02268 0.00487 -0.24484
v -0.03156 -0.00313 -0.20606
v -0.03544 -0.00494 -0.20187
v -0.03332 -0.00009 -0.19897
v -0.06185 -0.01726 -0.19497
v -0.06228 -0.01360 -0.19141
v -0.08271 -0.02698 -0.18569
v -0.08804 -0.02947 -0.18668
v -0.08565 -0.02449 -0.18101
v -0.11615 -0.04258 -0.21368
v -0.12114 -0.04490 -0.21396
v -0.11799 -0.03957 -0.21213
v -0.14846 -0.05764 -0.19263
v -0.14988 -0.05830 -0.18736
v -0.14991 -0.05446 -0.18721
v -0.13615 -0.05190 -0.14912
v -0.13705 -0.05232 -0.14321
v -0.13408 -0.04707 -0.14320
v -0.15475 -0.06057 -0.12050
v -0.15349 -0.05612 -0.11830
v -0.16668 -0.06614 -0.09946
v -0.17152 -0.06840 -0.09680
v -0.16685 -0.06235 -0.09473
v -0.20865 -0.08571 -0.10042
v -0.21283 -0.08766 -0.09741
v -0.20959 -0.08229 -0.09893
v -0.22357 -0.09267 -0.06244
v -0.22191 -0.09189 -0.05725
v -0.22214 -0.08814 -0.05807
v -0.19044 -0.07722 -0.03522
v -0.18802 -0.07609 -0.02985
v -0.18589 -0.07123 -0.03273
v -0.18136 -0.09615 0.00000
v -0.17649 -0.09775 0.00000
v -0.17980 -0.09543 0.02476
v -0.17474 -0.09693 0.02773
v -0.18230 -0.09660 0.03005
v -0.21427 -0.11150 0.05120
v -0.21156 -0.11410 0.05206
v -0.21605 -0.11233 0.05634
v -0.20611 -0.10769 0.09160
v -0.19994 -0.10868 0.09325
v -0.20200 -0.10578 0.09472
v -0.16480 -0.08843 0.09214
v -0.15712 -0.08871 0.09024
v -0.15998 -0.08619 0.09491
v -0.14165 -0.08150 0.11830
v -0.14587 -0.07961 0.12050
v -0.13143 -0.07287 0.13952
v -0.12547 -0.07395 0.13960
v -0.13063 -0.07250 0.14542
v -0.14522 -0.07930 0.18326
v -0.14229 -0.08180 0.18316
v -0.14392 -0.07870 0.18858
v -0.11710 -0.06619 0.21066
v -0.11095 -0.06719 0.20895
v -0.11211 -0.06386 0.21052
v -0.08339 -0.05047 0.18430
v -0.07791 -0.05178 0.17874
v -0.07802 -0.04797 0.18342
v -0.05045 -0.03897 0.19141
v -0.05298 -0.03629 0.19497
v -0.03116 -0.02611 0.20099
v -0.02601 -0.02757 0.19815
v -0.02737 -0.02435 0.20525
v -0.01901 -0.02045 0.24533
v -0.01642 -0.02310 0.24430
v -0.01513 -0.01864 0.24878
v 0.01833 -0.00304 0.24925
v 0.02268 -0.00487 0.24484
v 0.02229 -0.00119 0.24590
v 0.03156 0.00313 0.20606
v 0.03332 0.00009 0.19897
v 0.03544 0.00494 0.20187
v 0.06228 0.01360 0.19141
v 0.06185 0.01726 0.19497
v 0.08271 0.02698 0.18569
v 0.08565 0.02449 0.18101
v 0.08804 0.02947 0.18668
v 0.11615 0.04258 0.21368
v 0.11799 0.03957 0.21213
v 0.12114 0.04490 0.21396
v 0.14846 0.05764 0.19263
v 0.14991 0.05446 0.18721
v 0.14988 0.05830 0.18736
v 0.13615 0.05190 0.14912
v 0.13408 0.04707 0.14320
v 0.13705 0.05232 0.14321
v 0.15349 0.05612 0.11830
v 0.15475 0.06057 0.12050
v 0.16668 0.06614 0.09946
v 0.16685 0.06235 0.09473
v 0.17152 0.06840 0.09680
v 0.20865 0.08571 0.10042
v 0.20959 0.08229 0.09893
v 0.21283 0.08766 0.09741
v 0.22357 0.09267 0.06244
v 0.22214 0.08814 0.05807
v 0.22191 0.09189 0.05725
v 0.19044 0.07722 0.03522
v 0.18589 0.07123 0.03273
v 0.18802 0.07609 0.02985
v 0.18832 0.07237 0.00000
v 0.19023 0.07712 0.00000
v 0.18868 0.07640 -0.02476
v 0.18658 0.07155 -0.02773
v 0.19118 0.07756 -0.03005
v 0.22314 0.09247 -0.05120
v 0.22339 0.08872 -0.05206
v 0.22492 0.09330 -0.05634
v 0.21498 0.08866 -0.09160
v 0.21178 0.08331 -0.09325
v 0.21087 0.08675 -0.09472
v 0.17367 0.06940 -0.09214
v 0.16895 0.06334 -0.09024
v 0.16886 0.06715 -0.09491
v 0.15349 0.05612 -0.11830
v 0.15475 0.06057 -0.12050
v 0.14030 0.05384 -0.13952
v 0.13730 0.04858 -0.13960
v 0.13951 0.05347 -0.14542
v 0.15410 0.06027 -0.18326
v 0.15413 0.05642 -0.18316
v 0.15280 0.05967 -0.18858
v 0.12597 0.04716 -0.21066
v 0.12279 0.04181 -0.20895
v 0.12099 0.04483 -0.21052
v 0.09227 0.03144 -0.18430
v 0.08974 0.02640 -0.17874
v 0.08690 0.02894 -0.18342
v 0.06228 0.01360 -0.19141
v 0.06185 0.01726 -0.19497
v 0.04003 0.00708 -0.20099
v 0.03784 0.00220 -0.19815
v 0.03624 0.00532 -0.20525
v 0.02789 0.00142 -0.24533
v 0.02825 -0.00227 -0.24430
v 0.02401 -0.00039 -0.24878
v -0.00946 -0.01600 -0.24925
v -0.01085 -0.02050 -0.24484
v -0.01342 -0.01784 -0.24590
v -0.02268 -0.02216 -0.20606
v -0.02148 -0.02547 -0.19897
v -0.02656 -0.02397 -0.20187
v -0.05045 -0.03897 -0.19141
v -0.05298 -0.03629 -0.19497
v -0.07383 -0.04601 -0.18569
v -0.07381 -0.04987 -0.18101
v -0.07917 -0.04850 -0.18668
v -0.10728 -0.06161 -0.21368
v -0.10616 -0.06495 -0.21213
v -0.11226 -0.06393 -0.21396
v -0.13958 -0.07667 -0.19263
v -0.13808 -0.07983 -0.18721
v -0.14100 -0.07734 -0.18736
v -0.12728 -0.07094 -0.14912
v -0.12225 -0.07245 -0.14320
v -0.12818 -0.07136 -0.14321
v -0.14165 -0.08150 -0.11830
v -0.14587 -0.07961 -0.12050
v -0.15780 -0.08517 -0.09946
v -0.15501 -0.08773 -0.09473
v -0.16265 -0.08743 -0.09680
v -0.19978 -0.10474 -0.10042
v -0.19776 -0.10766 -0.09893
v -0.20395 -0.10669 -0.09741
v -0.21469 -0.11170 -0.06244
v -0.21030 -0.11351 -0.05807
v -0.21303 -0.11092 -0.05725
v -0.18156 -0.09625 -0.03522
v -0.17405 -0.09661 -0.03273
v -0.17914 -0.09512 -0.02985
v -0.14192 -0.05459 0.00000
v -0.14658 -0.05291 0.00000
v -0.14524 -0.05228 0.02139
v -0.14061 -0.05398 0.02090
v -0.14338 -0.05141 0.03291
v -0.13880 -0.05314 0.03216
v -0.13604 -0.04799 0.05894
v -0.13162 -0.04979 0.05761
v -0.13165 -0.04594 0.06959
v -0.12733 -0.04779 0.06802
v -0.11972 -0.04038 0.09123
v -0.11567 -0.04235 0.08917
v -0.10724 -0.03456 0.10766
v -0.10347 -0.03666 0.10523
v -0.09960 -0.03100 0.11578
v -0.09601 -0.03318 0.11316
v -0.07979 -0.02176 0.13208
v -0.07664 -0.02415 0.12910
v -0.07056 -0.01746 0.13785
v -0.06762 -0.01995 0.13473
v -0.04938 -0.00758 0.14761
v -0.04692 -0.01030 0.14428
v -0.03054 0.00121 0.15281
v -0.02850 -0.00170 0.14936
v -0.02003 0.00611 0.15442
v -0.01824 0.00308 0.15093
v 0.00468 0.01763 0.15477
v 0.00592 0.01435 0.15127
v 0.01521 0.02254 0.15345
v 0.01622 0.01915 0.14998
v 0.03755 0.03296 0.14761
v 0.03805 0.02933 0.14428
v 0.05557 0.04136 0.13959
v 0.05566 0.03754 0.13644
v 0.06493 0.04572 0.13409
v 0.06480 0.04180 0.13106
v 0.08510 0.05513 0.11834
v 0.08452 0.05100 0.11566
v 0.09292 0.05878 0.11044
v 0.09217 0.05456 0.10794
v 0.10788 0.06575 0.09123
v 0.10679 0.06138 0.08917
v 0.11819 0.07056 0.07306
v 0.11687 0.06608 0.07141
v 0.12283 0.07272 0.06253
v 0.12140 0.06819 0.06112
v 0.13076 0.07642 0.03671
v 0.12915 0.07181 0.03588
v 0.13288 0.07741 0.02524
v 0.13122 0.07277 0.02467
v 0.13475 0.07828 0.00000
v 0.13305 0.07363 0.00000
v 0.13341 0.07766 -0.02139
v 0.13174 0.07302 -0.02090
v 0.13155 0.07679 -0.03291
v 0.12992 0.07217 -0.03216
v 0.12421 0.07337 -0.05894
v 0.12275 0.06882 -0.05761
v 0.11982 0.07132 -0.06959
v 0.11845 0.06682 -0.06802
v 0.10788 0.06575 -0.09123
v 0.10679 0.06138 -0.08917
v 0.09541 0.05994 -0.10766
v 0.09460 0.05570 -0.10523
v 0.08777 0.05637 -0.11578
v 0.08713 0.05222 -0.11316
v 0.06796 0.04714 -0.13208
v 0.06777 0.04319 -0.12910
v 0.05873 0.04283 -0.13785
v 0.05875 0.03898 -0.13473
v 0.03755 0.03296 -0.14761
v 0.03805 0.02933 -0.14428
v 0.01870 0.02417 -0.15281
v 0.01963 0.02074 -0.14936
v 0.00820 0.01927 -0.15442
v 0.00936 0.01595 -0.15093
v -0.01651 0.00775 -0.15477
v -0.01479 0.00469 -0.15127
v -0.02705 0.00283 -0.15345
v -0.02509 -0.00011 -0.14998
v -0.04938 -0.00758 -0.14761
v -0.04692 -0.01030 -0.14428
v -0.06740 -0.01598 -0.13959
v -0.06454 -0.01851 -0.13644
v -0.07676 -0.02035 -0.13409
v -0.07368 -0.02277 -0.13106
v -0.09694 -0.02975 -0.11834
v -0.09340 -0.03197 -0.11566
v -0.10476 -0.03340 -0.11044
v -0.10104 -0.03553 -0.10794
v -0.11972 -0.04038 -0.09123
v -0.11567 -0.04235 -0.08917
v -0.13002 -0.04518 -0.07306
v -0.12574 -0.04705 -0.07141
v -0.13466 -0.04735 -0.06253
v -0.13027 -0.04916 -0.06112
v -0.14259 -0.05104 -0.03671
v -0.13802 -0.05278 -0.03588
v -0.14471 -0.05203 -0.02524
v -0.14009 -0.05374 -0.02467
v -0.13475 -0.07828 0.00000
v -0.13305 -0.07363 0.00000
v -0.13174 -0.07302 0.02090
v -0.13341 -0.07766 0.02139
v -0.12992 -0.07217 0.03216
v -0.13155 -0.07679 0.03291
v -0.12275 -0.06882 0.05761
v -0.12421 -0.07337 0.05894
v -0.11845 -0.06682 0.06802
v -0.11982 -0.07132 0.06959
v -0.10679 -0.06138 0.08917
v -0.10788 -0.06575 0.09123
v -0.09460 -0.05570 0.10523
v -0.09541 -0.05994 0.10766
v -0.08713 -0.05222 0.11316
v -0.08777 -0.05637 0.11578
v -0.06777 -0.04319 0.12910
v -0.06796 -0.04714 0.13208
v -0.05875 -0.03898 0.13473
v -0.05873 -0.04283 0.13785
v -0.03805 -0.02933 0.14428
v -0.03755 -0.03296 0.14761
v -0.01963 -0.02074 0.14936
v -0.01870 -0.02417 0.15281
v -0.00936 -0.01595 0.15093
v -0.00820 -0.01927 0.15442
v 0.01479 -0.00469 0.15127
v 0.01651 -0.00775 0.15477
v 0.02509 0.00011 0.14998
v 0.02705 -0.00283 0.15345
v 0.04692 0.01030 0.14428
v 0.04938 0.00758 0.14761
v 0.06454 0.01851 0.13644
v 0.06740 0.01598 0.13959
v 0.07368 0.02277 0.13106
v 0.07676 0.02035 0.13409
v 0.09340 0.03197 0.11566
v 0.09694 0.02975 0.11834
v 0.10104 0.03553 0.10794
v 0.10476 0.03340 0.11044
v 0.11567 0.04235 0.08917
v 0.11972 0.04038 0.09123
v 0.12574 0.04705 0.07141
v 0.13002 0.04518 0.07306
v 0.13027 0.04916 0.06112
v 0.13466 0.04735 0.06253
v 0.13802 0.05278 0.03588
v 0.14259 0.05104 0.03671
v 0.14009 0.05374 0.02467
v 0.14471 0.05203 0.02524
v 0.14192 0.05459 0.00000
v 0.14658 0.05291 0.00000
v 0.14061 0.05398 -0.02090
v 0.14524 0.05228 -0.02139
v 0.13880 0.05314 -0.03216
v 0.14339 0.05141 -0.03291
v 0.13162 0.04979 -0.05761
v 0.13604 0.04799 -0.05894
v 0.12733 0.04779 -0.06802
v 0.13165 0.04594 -0.06959
v 0.11567 0.04235 -0.08917
v 0.11972 0.04038 -0.09123
v 0.10347 0.03666 -0.10523
v 0.10724 0.03456 -0.10766
v 0.09601 0.03318 -0.11316
v 0.09960 0.03100 -0.11578
v 0.07664 0.02415 -0.12910
v 0.07979 0.02176 -0.13208
v 0.06762 0.01995 -0.13473
v 0.07056 0.01746 -0.13785
v 0.04692 0.01030 -0.14428
v 0.04938 0.00758 -0.14761
v 0.02850 0.00170 -0.14936
v 0.03054 -0.00121 -0.15281
v 0.01824 -0.00308 -0.15093
v 0.02003 -0.00611 -0.15442
v -0.00592 -0.01435 -0.15127
v -0.00468 -0.01763 -0.15477
v -0.01622 -0.01915 -0.14998
v -0.01521 -0.02254 -0.15345
v -0.03805 -0.02933 -0.14428
v -0.03755 -0.03296 -0.14761
v -0.05566 -0.03754 -0.13644
v -0.05557 -0.04136 -0.13959
v -0.06480 -0.04180 -0.13106
v -0.06493 -0.04572 -0.13409
v -0.08452 -0.05100 -0.11566
v -0.08510 -0.05513 -0.11834
v -0.09217 -0.05456 -0.10794
v -0.09292 -0.05878 -0.11044
v -0.10679 -0.06138 -0.08917
v -0.10788 -0.06575 -0.09123
v -0.11687 -0.06608 -0.07141
v -0.11819 -0.07056 -0.07306
v -0.12140 -0.06819 -0.06112
v -0.12283 -0.07272 -0.06253
v -0.12915 -0.07181 -0.03588
v -0.13076 -0.07642 -0.03671
v -0.13122 -0.07277 -0.02467
v -0.13288 -0.07741 -0.02524
v -0.03755 -0.02832 0.01920
v -0.04089 -0.02602 0.01637
v -0.03646 -0.02395 0.01715
v -0.04621 -0.01460 0.01637
v -0.04583 -0.01056 0.01920
v -0.04178 -0.01253 0.01715
v -0.02529 -0.02261 0.03781
v -0.02421 -0.01824 0.03575
v -0.02491 -0.01857 0.04064
v -0.03358 -0.00484 0.03781
v -0.03023 -0.00715 0.04064
v -0.02953 -0.00682 0.03575
v -0.11431 -0.06412 0.08075
v -0.11836 -0.06214 0.08280
v -0.11766 -0.06182 0.07791
v -0.12260 -0.04635 0.08075
v -0.12298 -0.05040 0.07791
v -0.12368 -0.05072 0.08280
v -0.10206 -0.05841 0.09935
v -0.10168 -0.05436 0.10218
v -0.10611 -0.05643 0.10141
v -0.11034 -0.04064 0.09935
v -0.11143 -0.04501 0.10141
v -0.10700 -0.04294 0.10218
v 0.00781 -0.00717 0.04968
v 0.00332 -0.00540 0.05076
v 0.00535 -0.00446 0.04635
v -0.00201 0.00601 0.05076
v -0.00047 0.01059 0.04968
v 0.00003 0.00696 0.04635
v 0.02764 0.00207 0.04257
v 0.02518 0.00479 0.03924
v 0.02917 0.00665 0.04149
v 0.01935 0.01984 0.04257
v 0.02385 0.01807 0.04149
v 0.01985 0.01621 0.03924
v 0.03714 0.00650 0.14926
v 0.03664 0.01013 0.15258
v 0.03264 0.00827 0.15034
v 0.02885 0.02427 0.14926
v 0.02731 0.01969 0.15034
v 0.03131 0.02155 0.15258
v 0.05696 0.01575 0.14215
v 0.05850 0.02033 0.14107
v 0.05646 0.01938 0.14548
v 0.04868 0.03351 0.14215
v 0.05114 0.03080 0.14548
v 0.05317 0.03175 0.14107
v 0.04810 0.01162 0.01150
v 0.04662 0.01479 0.01500
v 0.04345 0.01331 0.01150
v 0.04129 0.02621 0.01500
v 0.03981 0.02938 0.01150
v 0.03812 0.02473 0.01150
v 0.04810 0.01162 -0.01150
v 0.04345 0.01331 -0.01150
v 0.04662 0.01479 -0.01500
v 0.03981 0.02938 -0.01150
v 0.04129 0.02621 -0.01500
v 0.03812 0.02473 -0.01150
v 0.14299 0.05586 0.01150
v 0.14468 0.06051 0.01150
v 0.14151 0.05904 0.01500
v 0.13470 0.07363 0.01150
v 0.13618 0.07045 0.01500
v 0.13936 0.07193 0.01150
v 0.14299 0.05586 -0.01150
v 0.14151 0.05904 -0.01500
v 0.14468 0.06051 -0.01150
v 0.13470 0.07363 -0.01150
v 0.13936 0.07193 -0.01150
v 0.13618 0.07045 -0.01500
v 0.02764 0.00207 -0.04257
v 0.02917 0.00665 -0.04149
v 0.02518 0.00479 -0.03924
v 0.02385 0.01807 -0.04149
v 0.01935 0.01984 -0.04257
v 0.01985 0.01621 -0.03924
v 0.00781 -0.00717 -0.04968
v 0.00535 -0.00446 -0.04635
v 0.00332 -0.00540 -0.05076
v -0.00047 0.01059 -0.04968
v -0.00201 0.00601 -0.05076
v 0.00003 0.00696 -0.04635
v 0.05696 0.01575 -0.14215
v 0.05646 0.01938 -0.14548
v 0.05850 0.02033 -0.14107
v 0.04868 0.03351 -0.14215
v 0.05317 0.03175 -0.14107
v 0.05114 0.03080 -0.14548
v 0.03714 0.00650 -0.14926
v 0.03264 0.00827 -0.15034
v 0.03664 0.01013 -0.15258
v 0.02885 0.02427 -0.14926
v 0.03131 0.02155 -0.15258
v 0.02731 0.01969 -0.15034
v -0.02529 -0.02261 -0.03781
v -0.02491 -0.01857 -0.04064
v -0.02421 -0.01824 -0.03575
v -0.03023 -0.00715 -0.04064
v -0.03358 -0.00484 -0.03781
v -0.02953 -0.00682 -0.03575
v -0.03755 -0.02832 -0.01920
v -0.03646 -0.02395 -0.01715
v -0.04089 -0.02602 -0.01637
v -0.04583 -0.01056 -0.01920
v -0.04621 -0.01460 -0.01637
v -0.04178 -0.01253 -0.01715
v -0.10206 -0.05841 -0.09935
v -0.10611 -0.05643 -0.10141
v -0.10168 -0.05436 -0.10218
v -0.11034 -0.04064 -0.09935
v -0.10700 -0.04294 -0.10218
v -0.11143 -0.04501 -0.10141
v -0.11431 -0.06412 -0.08075
v -0.11766 -0.06182 -0.07791
v -0.11836 -0.06214 -0.08280
v -0.12260 -0.04635 -0.08075
v -0.12368 -0.05072 -0.08280
v -0.12298 -0.05040 -0.07791
v 0.00888 -0.01903 0.05143
v 0.00740 -0.01586 0.05500
v -0.00887 0.01903 0.05143
v -0.00740 0.01586 0.05500
v -0.00896 -0.02735 0.04752
v -0.01168 -0.02476 0.05081
v -0.02671 0.01071 0.04752
v -0.02647 0.00697 0.05081
v -0.02409 -0.03440 0.03637
v -0.02785 -0.03230 0.03889
v -0.04184 0.00366 0.03637
v -0.04264 -0.00058 0.03889
v -0.03419 -0.03911 0.01968
v -0.03866 -0.03734 0.02105
v -0.05194 -0.00105 0.01968
v -0.05345 -0.00561 0.02105
v -0.03774 -0.04077 0.00000
v -0.04245 -0.03910 0.00000
v -0.05549 -0.00270 0.00000
v -0.05724 -0.00738 0.00000
v -0.03419 -0.03911 -0.01968
v -0.03866 -0.03734 -0.02105
v -0.05194 -0.00105 -0.01968
v -0.05345 -0.00561 -0.02105
v -0.02409 -0.03440 -0.03637
v -0.02785 -0.03230 -0.03889
v -0.04184 0.00366 -0.03637
v -0.04264 -0.00058 -0.03889
v -0.00896 -0.02735 -0.04752
v -0.01168 -0.02476 -0.05081
v -0.02671 0.01071 -0.04752
v -0.02647 0.00697 -0.05081
v 0.00888 -0.01903 -0.05143
v 0.00740 -0.01586 -0.05500
v -0.00887 0.01903 -0.05143
v -0.00740 0.01586 -0.05500
v 0.02671 -0.01071 -0.04752
v 0.02647 -0.00697 -0.05081
v 0.00896 0.02735 -0.04752
v 0.01168 0.02476 -0.05081
v 0.04184 -0.00366 -0.03637
v 0.04264 0.00058 -0.03889
v 0.02409 0.03440 -0.03637
v 0.02785 0.03230 -0.03889
v 0.05194 0.00105 -0.01968
v 0.05345 0.00561 -0.02105
v 0.03419 0.03911 -0.01968
v 0.03866 0.03734 -0.02105
v 0.05549 0.00270 0.00000
v 0.05724 0.00738 0.00000
v 0.03774 0.04077 0.00000
v 0.04245 0.03910 0.00000
v 0.05194 0.00105 0.01968
v 0.05345 0.00561 0.02105
v 0.03419 0.03911 0.01968
v 0.03866 0.03734 0.02105
v 0.04184 -0.00366 0.03637
v 0.04264 0.00058 0.03889
v 0.02409 0.03440 0.03637
v 0.02785 0.03230 0.03889
v 0.02671 -0.01071 0.04752
v 0.02647 -0.00697 0.05081
v 0.00896 0.02735 0.04752
v 0.01168 0.02476 0.05081
f 3 4 5
f 6 7 8
f 9 10 11
f 12 13 14
f 17 18 19
f 20 21 22
f 23 24 25
f 26 27 28
f 31 32 33
f 34 35 36
f 37 38 39
f 40 41 42
f 45 46 47
f 48 49 50
f 51 52 53
f 54 55 56
f 59 60 61
f 62 63 64
f 65 66 67
f 68 69 70
f 73 74 75
f 76 77 78
f 79 80 81
f 82 83 84
f 87 88 89
f 90 91 92
f 93 94 95
f 96 97 98
f 101 102 103
f 104 105 106
f 107 108 109
f 110 111 112
f 115 116 117
f 118 119 120
f 121 122 123
f 124 125 126
f 129 130 131
f 132 133 134
f 135 136 137
f 138 139 140
f 143 144 145
f 146 147 148
f 149 150 151
f 152 153 154
f 157 158 159
f 160 161 162
f 163 164 165
f 166 167 168
f 171 172 173
f 174 175 176
f 177 178 179
f 180 181 182
f 185 186 187
f 188 189 190
f 191 192 193
f 194 195 196
f 199 200 201
f 202 203 204
f 205 206 207
f 208 209 210
f 213 214 215
f 216 217 218
f 219 220 221
f 222 223 224
f 227 228 229
f 230 231 232
f 233 234 235
f 236 237 238
f 241 242 243
f 244 245 246
f 247 248 249
f 250 251 252
f 255 256 257
f 258 259 260
f 261 262 263
f 264 265 266
f 269 270 271
f 272 273 274
f 275 276 277
f 278 279 280
f 481 482 483
f 484 485 486
f 487 488 489
f 490 491 492
f 493 494 495
f 496 497 498
f 499 500 501
f 502 503 504
f 505 506 507
f 508 509 510
f 511 512 513
f 514 515 516
f 517 518 519
f 520 521 522
f 523 524 525
f 526 527 528
f 529 530 531
f 532 533 534
f 535 536 537
f 538 539 540
f 541 542 543
f 544 545 546
f 547 548 549
f 550 551 552
f 553 554 555
f 556 557 558
f 559 560 561
f 562 563 564
f 565 566 567
f 568 569 570
f 571 572 573
f 574 575 576
f 577 578 579
f 580 581 582
f 583 584 585
f 586 587 588
f 589 590 591
f 592 593 594
f 595 596 597
f 598 599 600
f 3 1 2
f 284 282 283
f 143 142 144
f 383 381 382
f 145 3 143
f 4 8 5
f 286 283 285
f 145 147 146
f 385 384 383
f 148 6 146
f 7 11 8
f 288 285 287
f 148 150 149
f 385 388 386
f 10 149 151
f 12 11 10
f 288 289 290
f 152 150 153
f 387 390 388
f 13 152 154
f 13 16 14
f 290 291 292
f 154 155 156
f 389 392 390
f 17 16 15
f 294 291 293
f 157 155 158
f 391 394 392
f 159 17 157
f 18 22 19
f 296 293 295
f 159 161 160
f 395 394 393
f 162 20 160
f 23 22 21
f 298 295 297
f 162 164 163
f 395 398 396
f 24 163 165
f 26 25 24
f 300 297 299
f 166 164 167
f 397 400 398
f 27 166 168
f 27 30 28
f 300 301 302
f 168 169 170
f 399 402 400
f 31 30 29
f 304 301 303
f 171 169 172
f 401 404 402
f 32 171 173
f 32 36 33
f 306 303 305
f 173 175 174
f 405 404 403
f 35 174 176
f 35 39 36
f 308 305 307
f 176 178 177
f 407 406 405
f 179 37 177
f 40 39 38
f 310 307 309
f 180 178 181
f 407 410 408
f 41 180 182
f 41 44 42
f 312 309 311
f 182 183 184
f 409 412 410
f 45 44 43
f 312 313 314
f 185 183 186
f 413 412 411
f 46 185 187
f 46 50 47
f 314 315 316
f 187 189 188
f 415 414 413
f 190 48 188
f 49 53 50
f 316 317 318
f 191 189 192
f 417 416 415
f 52 191 193
f 54 53 52
f 318 319 320
f 194 192 195
f 417 420 418
f 55 194 196
f 55 58 56
f 320 321 322
f 196 197 198
f 421 420 419
f 59 58 57
f 322 323 324
f 199 197 200
f 421 424 422
f 60 199 201
f 60 64 61
f 324 325 326
f 201 203 202
f 425 424 423
f 204 62 202
f 63 67 64
f 328 325 327
f 204 206 205
f 427 426 425
f 66 205 207
f 68 67 66
f 328 329 330
f 208 206 209
f 427 430 428
f 210 68 208
f 69 72 70
f 332 329 331
f 210 211 212
f 431 430 429
f 73 72 71
f 334 331 333
f 213 211 214
f 431 434 432
f 215 73 213
f 74 78 75
f 336 333 335
f 215 217 216
f 435 434 433
f 218 76 216
f 79 78 77
f 338 335 337
f 218 220 219
f 437 436 435
f 80 219 221
f 82 81 80
f 338 339 340
f 222 220 223
f 437 440 438
f 224 82 222
f 83 86 84
f 340 341 342
f 224 225 226
f 439 442 440
f 87 86 85
f 344 341 343
f 227 225 228
f 443 442 441
f 88 227 229
f 88 92 89
f 346 343 345
f 229 231 230
f 443 446 444
f 232 90 230
f 91 95 92
f 346 347 348
f 232 234 233
f 445 448 446
f 94 233 235
f 96 95 94
f 348 349 350
f 236 234 237
f 447 450 448
f 97 236 238
f 97 100 98
f 350 351 352
f 238 239 240
f 449 452 450
f 101 100 99
f 352 353 354
f 241 239 242
f 453 452 451
f 243 101 241
f 102 106 103
f 356 353 355
f 243 245 244
f 453 456 454
f 105 244 246
f 105 109 106
f 356 357 358
f 247 245 248
f 455 458 456
f 108 247 249
f 110 109 108
f 358 359 360
f 250 248 251
f 459 458 457
f 111 250 252
f 111 114 112
f 360 361 362
f 252 253 254
f 459 462 460
f 115 114 113
f 364 361 363
f 255 253 256
f 463 462 461
f 257 115 255
f 116 120 117
f 366 363 365
f 257 259 258
f 465 464 463
f 260 118 258
f 121 120 119
f 368 365 367
f 261 259 262
f 465 468 466
f 122 261 263
f 124 123 122
f 368 369 370
f 264 262 265
f 467 470 468
f 125 264 266
f 125 128 126
f 372 369 371
f 266 267 268
f 471 470 469
f 129 128 127
f 372 373 374
f 269 267 270
f 471 474 472
f 130 269 271
f 130 134 131
f 374 375 376
f 271 273 272
f 475 474 473
f 133 272 274
f 133 137 134
f 376 377 378
f 274 276 275
f 475 478 476
f 277 135 275
f 138 137 136
f 380 377 379
f 278 276 279
f 479 478 477
f 280 138 278
f 139 1 140
f 380 282 281
f 280 142 141
f 382 480 479
f 487 483 488
f 482 486 483
f 490 486 485
f 489 492 491
f 499 489 500
f 490 504 491
f 503 500 504
f 493 501 494
f 496 503 502
f 495 498 497
f 493 482 481
f 496 484 497
f 511 507 512
f 508 507 506
f 514 510 509
f 515 512 516
f 523 513 524
f 526 515 514
f 527 524 528
f 517 525 518
f 520 527 526
f 521 518 522
f 505 519 506
f 509 521 520
f 529 536 535
f 532 531 530
f 538 534 533
f 539 536 540
f 547 537 548
f 538 552 539
f 551 548 552
f 547 542 541
f 544 551 550
f 543 546 545
f 541 530 529
f 533 545 544
f 553 560 559
f 554 558 555
f 562 558 557
f 563 560 564
f 571 561 572
f 562 576 563
f 575 572 576
f 565 573 566
f 574 570 575
f 567 570 569
f 565 554 553
f 568 556 569
f 583 579 584
f 578 582 579
f 581 588 582
f 587 584 588
f 595 585 596
f 586 600 587
f 599 596 600
f 589 597 590
f 598 594 599
f 593 590 594
f 589 578 577
f 592 580 593
f 606 601 602
f 608 603 607
f 606 609 605
f 608 611 612
f 610 613 609
f 616 611 615
f 614 617 613
f 616 619 620
f 618 621 617
f 624 619 623
f 622 625 621
f 624 627 628
f 630 625 626
f 628 631 632
f 630 633 629
f 632 635 636
f 638 633 634
f 640 635 639
f 638 641 637
f 644 639 643
f 642 645 641
f 648 643 647
f 650 645 646
f 648 651 652
f 650 653 649
f 656 651 655
f 654 657 653
f 656 659 660
f 662 657 658
f 660 663 664
f 602 661 662
f 664 603 604
f 140 282 379
f 5 282 1
f 141 3 2
f 141 139 280
f 146 4 145
f 5 285 283
f 149 7 148
f 11 285 8
f 151 12 10
f 14 287 11
f 156 13 154
f 14 291 289
f 156 17 15
f 19 291 16
f 159 20 18
f 19 295 293
f 162 23 21
f 22 297 295
f 166 24 165
f 28 297 25
f 168 29 27
f 28 301 299
f 170 31 29
f 33 301 30
f 173 34 32
f 33 305 303
f 177 35 176
f 39 305 36
f 180 38 179
f 42 307 39
f 184 41 182
f 42 311 309
f 185 43 184
f 47 311 44
f 187 48 46
f 47 315 313
f 191 49 190
f 50 317 315
f 193 54 52
f 56 317 53
f 198 55 196
f 56 321 319
f 199 57 198
f 61 321 58
f 202 60 201
f 61 325 323
f 205 63 204
f 67 325 64
f 208 66 207
f 70 327 67
f 210 71 69
f 70 331 329
f 213 71 212
f 75 331 72
f 215 76 74
f 75 335 333
f 218 79 77
f 81 335 78
f 222 80 221
f 84 337 81
f 226 83 224
f 84 341 339
f 226 87 85
f 89 341 86
f 230 88 229
f 89 345 343
f 232 93 91
f 92 347 345
f 236 94 235
f 98 347 95
f 240 97 238
f 98 351 349
f 240 101 99
f 103 351 100
f 244 102 243
f 103 355 353
f 246 107 105
f 109 355 106
f 249 110 108
f 112 357 109
f 254 111 252
f 112 361 359
f 254 115 113
f 117 361 114
f 258 116 257
f 117 365 363
f 260 121 119
f 120 367 365
f 264 122 263
f 126 367 123
f 268 125 266
f 126 371 369
f 269 127 268
f 131 371 128
f 272 130 271
f 131 375 373
f 274 135 133
f 137 375 134
f 278 136 277
f 140 377 137
f 144 381 384
f 279 381 142
f 144 386 147
f 150 386 388
f 153 388 390
f 153 392 155
f 158 392 394
f 158 396 161
f 161 398 164
f 167 398 400
f 167 402 169
f 172 402 404
f 172 406 175
f 178 406 408
f 181 408 410
f 181 412 183
f 186 412 414
f 186 416 189
f 189 418 192
f 195 418 420
f 195 422 197
f 200 422 424
f 200 426 203
f 206 426 428
f 209 428 430
f 209 432 211
f 214 432 434
f 214 436 217
f 220 436 438
f 223 438 440
f 223 442 225
f 228 442 444
f 228 446 231
f 231 448 234
f 237 448 450
f 237 452 239
f 242 452 454
f 242 456 245
f 248 456 458
f 251 458 460
f 251 462 253
f 256 462 464
f 256 466 259
f 259 468 262
f 265 468 470
f 265 472 267
f 270 472 474
f 270 476 273
f 276 476 478
f 279 478 480
f 284 382 281
f 281 479 380
f 286 383 284
f 286 387 385
f 288 389 387
f 292 389 290
f 294 391 292
f 296 393 294
f 298 395 296
f 300 397 298
f 302 399 300
f 304 401 302
f 304 405 403
f 308 405 306
f 308 409 407
f 310 411 409
f 312 413 411
f 316 413 314
f 316 417 415
f 318 419 417
f 322 419 320
f 324 421 322
f 326 423 324
f 328 425 326
f 330 427 328
f 332 429 330
f 334 431 332
f 334 435 433
f 338 435 336
f 340 437 338
f 340 441 439
f 344 441 342
f 344 445 443
f 348 445 346
f 350 447 348
f 350 451 449
f 354 451 352
f 356 453 354
f 356 457 455
f 360 457 358
f 360 461 459
f 364 461 362
f 364 465 463
f 368 465 366
f 368 469 467
f 372 469 370
f 372 473 471
f 374 475 473
f 376 477 475
f 380 477 378
f 487 493 481
f 486 488 483
f 495 484 482
f 490 496 502
f 489 504 500
f 501 498 494
f 523 505 511
f 507 516 512
f 521 506 519
f 526 509 520
f 513 528 524
f 527 518 525
f 547 529 535
f 534 536 531
f 543 532 530
f 538 544 550
f 539 548 537
f 551 542 549
f 559 565 553
f 555 564 560
f 569 554 567
f 562 568 574
f 561 576 572
f 575 566 573
f 595 577 583
f 579 588 584
f 591 580 578
f 598 581 592
f 585 600 596
f 597 594 590
f 629 645 661
f 602 608 606
f 664 602 662
f 627 619 611
f 606 612 610
f 610 616 614
f 614 620 618
f 620 622 618
f 624 626 622
f 628 630 626
f 632 634 630
f 636 638 634
f 638 644 642
f 644 646 642
f 648 650 646
f 652 654 650
f 654 660 658
f 660 662 658
f 3 5 1
f 284 281 282
f 143 141 142
f 383 384 381
f 145 4 3
f 4 6 8
f 286 284 283
f 145 144 147
f 385 386 384
f 148 7 6
f 7 9 11
f 288 286 285
f 148 147 150
f 385 387 388
f 10 9 149
f 12 14 11
f 288 287 289
f 152 151 150
f 387 389 390
f 13 12 152
f 13 15 16
f 290 289 291
f 154 153 155
f 389 391 392
f 17 19 16
f 294 292 291
f 157 156 155
f 391 393 394
f 159 18 17
f 18 20 22
f 296 294 293
f 159 158 161
f 395 396 394
f 162 21 20
f 23 25 22
f 298 296 295
f 162 161 164
f 395 397 398
f 24 23 163
f 26 28 25
f 300 298 297
f 166 165 164
f 397 399 400
f 27 26 166
f 27 29 30
f 300 299 301
f 168 167 169
f 399 401 402
f 31 33 30
f 304 302 301
f 171 170 169
f 401 403 404
f 32 31 171
f 32 34 36
f 306 304 303
f 173 172 175
f 405 406 404
f 35 34 174
f 35 37 39
f 308 306 305
f 176 175 178
f 407 408 406
f 179 38 37
f 40 42 39
f 310 308 307
f 180 179 178
f 407 409 410
f 41 40 180
f 41 43 44
f 312 310 309
f 182 181 183
f 409 411 412
f 45 47 44
f 312 311 313
f 185 184 183
f 413 414 412
f 46 45 185
f 46 48 50
f 314 313 315
f 187 186 189
f 415 416 414
f 190 49 48
f 49 51 53
f 316 315 317
f 191 190 189
f 417 418 416
f 52 51 191
f 54 56 53
f 318 317 319
f 194 193 192
f 417 419 420
f 55 54 194
f 55 57 58
f 320 319 321
f 196 195 197
f 421 422 420
f 59 61 58
f 322 321 323
f 199 198 197
f 421 423 424
f 60 59 199
f 60 62 64
f 324 323 325
f 201 200 203
f 425 426 424
f 204 63 62
f 63 65 67
f 328 326 325
f 204 203 206
f 427 428 426
f 66 65 205
f 68 70 67
f 328 327 329
f 208 207 206
f 427 429 430
f 210 69 68
f 69 71 72
f 332 330 329
f 210 209 211
f 431 432 430
f 73 75 72
f 334 332 331
f 213 212 211
f 431 433 434
f 215 74 73
f 74 76 78
f 336 334 333
f 215 214 217
f 435 436 434
f 218 77 76
f 79 81 78
f 338 336 335
f 218 217 220
f 437 438 436
f 80 79 219
f 82 84 81
f 338 337 339
f 222 221 220
f 437 439 440
f 224 83 82
f 83 85 86
f 340 339 341
f 224 223 225
f 439 441 442
f 87 89 86
f 344 342 341
f 227 226 225
f 443 444 442
f 88 87 227
f 88 90 92
f 346 344 343
f 229 228 231
f 443 445 446
f 232 91 90
f 91 93 95
f 346 345 347
f 232 231 234
f 445 447 448
f 94 93 233
f 96 98 95
f 348 347 349
f 236 235 234
f 447 449 450
f 97 96 236
f 97 99 100
f 350 349 351
f 238 237 239
f 449 451 452
f 101 103 100
f 352 351 353
f 241 240 239
f 453 454 452
f 243 102 101
f 102 104 106
f 356 354 353
f 243 242 245
f 453 455 456
f 105 104 244
f 105 107 109
f 356 355 357
f 247 246 245
f 455 457 458
f 108 107 247
f 110 112 109
f 358 357 359
f 250 249 248
f 459 460 458
f 111 110 250
f 111 113 114
f 360 359 361
f 252 251 253
f 459 461 462
f 115 117 114
f 364 362 361
f 255 254 253
f 463 464 462
f 257 116 115
f 116 118 120
f 366 364 363
f 257 256 259
f 465 466 464
f 260 119 118
f 121 123 120
f 368 366 365
f 261 260 259
f 465 467 468
f 122 121 261
f 124 126 123
f 368 367 369
f 264 263 262
f 467 469 470
f 125 124 264
f 125 127 128
f 372 370 369
f 266 265 267
f 471 472 470
f 129 131 128
f 372 371 373
f 269 268 267
f 471 473 474
f 130 129 269
f 130 132 134
f 374 373 375
f 271 270 273
f 475 476 474
f 133 132 272
f 133 135 137
f 376 375 377
f 274 273 276
f 475 477 478
f 277 136 135
f 138 140 137
f 380 378 377
f 278 277 276
f 479 480 478
f 280 139 138
f 139 2 1
f 380 379 282
f 280 279 142
f 382 381 480
f 487 481 483
f 482 484 486
f 490 492 486
f 489 488 492
f 499 487 489
f 490 502 504
f 503 501 500
f 493 499 501
f 496 498 503
f 495 494 498
f 493 495 482
f 496 485 484
f 511 505 507
f 508 510 507
f 514 516 510
f 515 513 512
f 523 511 513
f 526 528 515
f 527 525 524
f 517 523 525
f 520 522 527
f 521 519 518
f 505 517 519
f 509 508 521
f 529 531 536
f 532 534 531
f 538 540 534
f 539 537 536
f 547 535 537
f 538 550 552
f 551 549 548
f 547 549 542
f 544 546 551
f 543 542 546
f 541 543 530
f 533 532 545
f 553 555 560
f 554 556 558
f 562 564 558
f 563 561 560
f 571 559 561
f 562 574 576
f 575 573 572
f 565 571 573
f 574 568 570
f 567 566 570
f 565 567 554
f 568 557 556
f 583 577 579
f 578 580 582
f 581 586 588
f 587 585 584
f 595 583 585
f 586 598 600
f 599 597 596
f 589 595 597
f 598 592 594
f 593 591 590
f 589 591 578
f 592 581 580
f 606 605 601
f 608 604 603
f 606 610 609
f 608 607 611
f 610 614 613
f 616 612 611
f 614 618 617
f 616 615 619
f 618 622 621
f 624 620 619
f 622 626 625
f 624 623 627
f 630 629 625
f 628 627 631
f 630 634 633
f 632 631 635
f 638 637 633
f 640 636 635
f 638 642 641
f 644 640 639
f 642 646 645
f 648 644 643
f 650 649 645
f 648 647 651
f 650 654 653
f 656 652 651
f 654 658 657
f 656 655 659
f 662 661 657
f 660 659 663
f 602 601 661
f 664 663 603
f 140 1 282
f 5 283 282
f 141 143 3
f 141 2 139
f 146 6 4
f 5 8 285
f 149 9 7
f 11 287 285
f 151 152 12
f 14 289 287
f 156 15 13
f 14 16 291
f 156 157 17
f 19 293 291
f 159 160 20
f 19 22 295
f 162 163 23
f 22 25 297
f 166 26 24
f 28 299 297
f 168 170 29
f 28 30 301
f 170 171 31
f 33 303 301
f 173 174 34
f 33 36 305
f 177 37 35
f 39 307 305
f 180 40 38
f 42 309 307
f 184 43 41
f 42 44 311
f 185 45 43
f 47 313 311
f 187 188 48
f 47 50 315
f 191 51 49
f 50 53 317
f 193 194 54
f 56 319 317
f 198 57 55
f 56 58 321
f 199 59 57
f 61 323 321
f 202 62 60
f 61 64 325
f 205 65 63
f 67 327 325
f 208 68 66
f 70 329 327
f 210 212 71
f 70 72 331
f 213 73 71
f 75 333 331
f 215 216 76
f 75 78 335
f 218 219 79
f 81 337 335
f 222 82 80
f 84 339 337
f 226 85 83
f 84 86 341
f 226 227 87
f 89 343 341
f 230 90 88
f 89 92 345
f 232 233 93
f 92 95 347
f 236 96 94
f 98 349 347
f 240 99 97
f 98 100 351
f 240 241 101
f 103 353 351
f 244 104 102
f 103 106 355
f 246 247 107
f 109 357 355
f 249 250 110
f 112 359 357
f 254 113 111
f 112 114 361
f 254 255 115
f 117 363 361
f 258 118 116
f 117 120 365
f 260 261 121
f 120 123 367
f 264 124 122
f 126 369 367
f 268 127 125
f 126 128 371
f 269 129 127
f 131 373 371
f 272 132 130
f 131 134 375
f 274 275 135
f 137 377 375
f 278 138 136
f 140 379 377
f 144 142 381
f 279 480 381
f 144 384 386
f 150 147 386
f 153 150 388
f 153 390 392
f 158 155 392
f 158 394 396
f 161 396 398
f 167 164 398
f 167 400 402
f 172 169 402
f 172 404 406
f 178 175 406
f 181 178 408
f 181 410 412
f 186 183 412
f 186 414 416
f 189 416 418
f 195 192 418
f 195 420 422
f 200 197 422
f 200 424 426
f 206 203 426
f 209 206 428
f 209 430 432
f 214 211 432
f 214 434 436
f 220 217 436
f 223 220 438
f 223 440 442
f 228 225 442
f 228 444 446
f 231 446 448
f 237 234 448
f 237 450 452
f 242 239 452
f 242 454 456
f 248 245 456
f 251 248 458
f 251 460 462
f 256 253 462
f 256 464 466
f 259 466 468
f 265 262 468
f 265 470 472
f 270 267 472
f 270 474 476
f 276 273 476
f 279 276 478
f 284 383 382
f 281 382 479
f 286 385 383
f 286 288 387
f 288 290 389
f 292 391 389
f 294 393 391
f 296 395 393
f 298 397 395
f 300 399 397
f 302 401 399
f 304 403 401
f 304 306 405
f 308 407 405
f 308 310 409
f 310 312 411
f 312 314 413
f 316 415 413
f 316 318 417
f 318 320 419
f 322 421 419
f 324 423 421
f 326 425 423
f 328 427 425
f 330 429 427
f 332 431 429
f 334 433 431
f 334 336 435
f 338 437 435
f 340 439 437
f 340 342 441
f 344 443 441
f 344 346 445
f 348 447 445
f 350 449 447
f 350 352 451
f 354 453 451
f 356 455 453
f 356 358 457
f 360 459 457
f 360 362 461
f 364 463 461
f 364 366 465
f 368 467 465
f 368 370 469
f 372 471 469
f 372 374 473
f 374 376 475
f 376 378 477
f 380 479 477
f 487 499 493
f 486 492 488
f 495 497 484
f 490 485 496
f 489 491 504
f 501 503 498
f 523 517 505
f 507 510 516
f 521 508 506
f 526 514 509
f 513 515 528
f 527 522 518
f 547 541 529
f 534 540 536
f 543 545 532
f 538 533 544
f 539 552 548
f 551 546 542
f 559 571 565
f 555 558 564
f 569 556 554
f 562 557 568
f 561 563 576
f 575 570 566
f 595 589 577
f 579 582 588
f 591 593 580
f 598 586 581
f 585 587 600
f 597 599 594
f 661 601 613
f 601 605 613
f 605 609 613
f 613 617 621
f 621 625 613
f 625 629 613
f 629 633 645
f 633 637 645
f 637 641 645
f 645 649 653
f 653 657 645
f 657 661 645
f 661 613 629
f 602 604 608
f 664 604 602
f 611 607 603
f 603 663 659
f 659 655 651
f 651 647 643
f 643 639 635
f 635 631 627
f 627 623 619
f 619 615 611
f 611 603 643
f 603 659 643
f 659 651 643
f 643 635 611
f 635 627 611
f 606 608 612
f 610 612 616
f 614 616 620
f 620 624 622
f 624 628 626
f 628 632 630
f 632 636 634
f 636 640 638
f 638 640 644
f 644 648 646
f 648 652 650
f 652 656 654
f 654 656 660
f 660 664 662
