# clockwork Gear5_Glow.obj: Roblox cue frame, recentred on its bounding box
v -0.14990 -0.05224 0.02501
v -0.15168 -0.05308 0.00000
v 0.01057 -0.02266 0.03250
v -0.01057 0.02266 0.03250
v -0.00071 -0.02791 0.03003
v -0.02184 0.01740 0.03003
v -0.01026 -0.03237 0.02298
v -0.03139 0.01295 0.02298
v -0.01665 -0.03535 0.01244
v -0.03778 0.00997 0.01244
v -0.01889 -0.03639 0.00000
v -0.04002 0.00892 0.00000
v -0.01665 -0.03535 -0.01244
v -0.03778 0.00997 -0.01244
v -0.01026 -0.03237 -0.02298
v -0.03139 0.01295 -0.02298
v -0.00071 -0.02791 -0.03003
v -0.02184 0.01740 -0.03003
v 0.01057 -0.02266 -0.03250
v -0.01057 0.02266 -0.03250
v 0.02184 -0.01740 -0.03003
v 0.00071 0.02791 -0.03003
v 0.03139 -0.01295 -0.02298
v 0.01026 0.03237 -0.02298
v 0.03778 -0.00997 -0.01244
v 0.01665 0.03535 -0.01244
v 0.04002 -0.00892 0.00000
v 0.01889 0.03639 0.00000
v 0.03778 -0.00997 0.01244
v 0.01665 0.03535 0.01244
v 0.03139 -0.01295 0.02298
v 0.01026 0.03237 0.02298
v 0.02184 -0.01740 0.03003
v 0.00071 0.02791 0.03003
v -0.14459 -0.04977 0.04941
v -0.13589 -0.04571 0.07259
v -0.12400 -0.04017 0.09399
v -0.10923 -0.03328 0.11307
v -0.09194 -0.02522 0.12936
v -0.07255 -0.01618 0.14247
v -0.05154 -0.00638 0.15207
v -0.02943 0.00393 0.15793
v -0.00676 0.01450 0.15990
v 0.01591 0.02507 0.15793
v 0.03802 0.03538 0.15207
v 0.05903 0.04518 0.14247
v 0.07842 0.05422 0.12936
v 0.09571 0.06228 0.11307
v 0.11048 0.06917 0.09399
v 0.12236 0.07471 0.07259
v 0.13106 0.07877 0.04941
v 0.13637 0.08125 0.02501
v 0.13816 0.08208 0.00000
v 0.13637 0.08125 -0.02501
v 0.13106 0.07877 -0.04941
v 0.12236 0.07471 -0.07259
v 0.11048 0.06917 -0.09399
v 0.09571 0.06228 -0.11307
v 0.07842 0.05422 -0.12936
v 0.05903 0.04518 -0.14247
v 0.03802 0.03538 -0.15207
v 0.01591 0.02507 -0.15793
v -0.00676 0.01450 -0.15990
v -0.02943 0.00393 -0.15793
v -0.05154 -0.00638 -0.15207
v -0.07255 -0.01618 -0.14247
v -0.09194 -0.02522 -0.12936
v -0.10923 -0.03328 -0.11307
v -0.12400 -0.04017 -0.09399
v -0.13589 -0.04571 -0.07259
v -0.14459 -0.04977 -0.04941
v -0.14990 -0.05224 -0.02501
v -0.17026 -0.06174 0.00000
v -0.16825 -0.06080 0.02822
v -0.16226 -0.05801 0.05575
v -0.15244 -0.05343 0.08190
v -0.13903 -0.04718 0.10604
v -0.12237 -0.03941 0.12756
v -0.10286 -0.03031 0.14595
v -0.08099 -0.02011 0.16074
v -0.05729 -0.00906 0.17157
v -0.03234 0.00257 0.17818
v -0.00676 0.01450 0.18040
v 0.01881 0.02643 0.17818
v 0.04376 0.03806 0.17157
v 0.06746 0.04911 0.16074
v 0.08934 0.05931 0.14595
v 0.10885 0.06841 0.12756
v 0.12551 0.07618 0.10604
v 0.13892 0.08243 0.08190
v 0.14873 0.08701 0.05575
v 0.15472 0.08980 0.02822
v 0.15674 0.09074 0.00000
v 0.15472 0.08980 -0.02822
v 0.14873 0.08701 -0.05575
v 0.13892 0.08243 -0.08190
v 0.12551 0.07618 -0.10604
v 0.10885 0.06841 -0.12756
v 0.08934 0.05931 -0.14595
v 0.06746 0.04911 -0.16074
v 0.04376 0.03806 -0.17157
v 0.01881 0.02643 -0.17818
v -0.00676 0.01450 -0.18040
v -0.03234 0.00257 -0.17818
v -0.05729 -0.00906 -0.17157
v -0.08099 -0.02011 -0.16074
v -0.10286 -0.03031 -0.14595
v -0.12237 -0.03941 -0.12756
v -0.13903 -0.04718 -0.10604
v -0.15244 -0.05343 -0.08190
v -0.16226 -0.05801 -0.05575
v -0.16825 -0.06080 -0.02822
v -0.13816 -0.08208 0.00000
v -0.13637 -0.08125 0.02501
v -0.13106 -0.07877 0.04941
v -0.12236 -0.07471 0.07259
v -0.11048 -0.06917 0.09399
v -0.09571 -0.06228 0.11307
v -0.07842 -0.05422 0.12936
v -0.05903 -0.04518 0.14247
v -0.03802 -0.03538 0.15207
v -0.01591 -0.02507 0.15793
v 0.00676 -0.01450 0.15990
v 0.02943 -0.00393 0.15793
v 0.05154 0.00638 0.15207
v 0.07255 0.01618 0.14247
v 0.09194 0.02522 0.12936
v 0.10923 0.03328 0.11307
v 0.12400 0.04017 0.09399
v 0.13589 0.04571 0.07259
v 0.14459 0.04977 0.04941
v 0.14990 0.05224 0.02501
v 0.15168 0.05308 0.00000
v 0.14990 0.05224 -0.02501
v 0.14459 0.04977 -0.04941
v 0.13589 0.04571 -0.07259
v 0.12400 0.04017 -0.09399
v 0.10923 0.03328 -0.11307
v 0.09194 0.02522 -0.12936
v 0.07255 0.01618 -0.14247
v 0.05154 0.00638 -0.15207
v 0.02943 -0.00393 -0.15793
v 0.00676 -0.01450 -0.15990
v -0.01591 -0.02507 -0.15793
v -0.03802 -0.03538 -0.15207
v -0.05903 -0.04518 -0.14247
v -0.07842 -0.05422 -0.12936
v -0.09571 -0.06228 -0.11307
v -0.11048 -0.06917 -0.09399
v -0.12236 -0.07471 -0.07259
v -0.13106 -0.07877 -0.04941
v -0.13637 -0.08125 -0.02501
v -0.15674 -0.09074 0.00000
v -0.15472 -0.08980 0.02822
v -0.14873 -0.08701 0.05575
v -0.13892 -0.08243 0.08190
v -0.12551 -0.07618 0.10604
v -0.10885 -0.06841 0.12756
v -0.08934 -0.05931 0.14595
v -0.06746 -0.04911 0.16074
v -0.04376 -0.03806 0.17157
v -0.01881 -0.02643 0.17818
v 0.00676 -0.01450 0.18040
v 0.03234 -0.00257 0.17818
v 0.05729 0.00906 0.17157
v 0.08099 0.02011 0.16074
v 0.10286 0.03031 0.14595
v 0.12237 0.03941 0.12756
v 0.13903 0.04718 0.10604
v 0.15244 0.05343 0.08190
v 0.16226 0.05801 0.05575
v 0.16825 0.06080 0.02822
v 0.17026 0.06174 0.00000
v 0.16825 0.06080 -0.02822
v 0.16226 0.05801 -0.05575
v 0.15244 0.05343 -0.08190
v 0.13903 0.04718 -0.10604
v 0.12237 0.03941 -0.12756
v 0.10286 0.03031 -0.14595
v 0.08099 0.02011 -0.16074
v 0.05729 0.00906 -0.17157
v 0.03234 -0.00257 -0.17818
v 0.00676 -0.01450 -0.18040
v -0.01881 -0.02643 -0.17818
v -0.04376 -0.03806 -0.17157
v -0.06746 -0.04911 -0.16074
v -0.08934 -0.05931 -0.14595
v -0.10885 -0.06841 -0.12756
v -0.12551 -0.07618 -0.10604
v -0.13892 -0.08243 -0.08190
v -0.14873 -0.08701 -0.05575
v -0.15472 -0.08980 -0.02822
f 63 102 62
f 47 88 87
f 4 5 3
f 63 104 103
f 46 87 86
f 5 8 7
f 61 100 60
f 45 86 85
f 8 9 7
f 60 99 59
f 45 84 44
f 9 12 11
f 59 98 58
f 43 84 83
f 11 14 13
f 57 98 97
f 43 82 42
f 13 16 15
f 57 96 56
f 41 82 81
f 16 17 15
f 56 95 55
f 41 80 40
f 18 19 17
f 54 95 94
f 40 79 39
f 20 21 19
f 53 94 93
f 39 78 38
f 21 24 23
f 53 92 52
f 37 78 77
f 23 26 25
f 52 91 51
f 37 76 36
f 25 28 27
f 50 91 90
f 36 75 35
f 27 30 29
f 49 90 89
f 1 75 74
f 30 31 29
f 16 12 8
f 2 74 73
f 32 33 31
f 61 102 101
f 49 88 48
f 34 3 33
f 21 25 33
f 65 104 64
f 65 106 105
f 66 107 106
f 67 108 107
f 69 108 68
f 69 110 109
f 70 111 110
f 72 111 71
f 2 112 72
f 154 113 153
f 155 114 154
f 155 116 115
f 156 117 116
f 158 117 157
f 158 119 118
f 159 120 119
f 160 121 120
f 162 121 161
f 162 123 122
f 164 123 163
f 164 125 124
f 166 125 165
f 167 126 166
f 168 127 167
f 168 129 128
f 170 129 169
f 171 130 170
f 171 132 131
f 172 133 132
f 174 133 173
f 175 134 174
f 175 136 135
f 176 137 136
f 178 137 177
f 178 139 138
f 179 140 139
f 180 141 140
f 182 141 181
f 182 143 142
f 184 143 183
f 184 145 144
f 186 145 185
f 187 146 186
f 188 147 187
f 188 149 148
f 190 149 189
f 191 150 190
f 191 152 151
f 192 113 152
f 63 103 102
f 47 48 88
f 4 6 5
f 63 64 104
f 46 47 87
f 5 6 8
f 61 101 100
f 45 46 86
f 8 10 9
f 60 100 99
f 45 85 84
f 9 10 12
f 59 99 98
f 43 44 84
f 11 12 14
f 57 58 98
f 43 83 82
f 13 14 16
f 57 97 96
f 41 42 82
f 16 18 17
f 56 96 95
f 41 81 80
f 18 20 19
f 54 55 95
f 40 80 79
f 20 22 21
f 53 54 94
f 39 79 78
f 21 22 24
f 53 93 92
f 37 38 78
f 23 24 26
f 52 92 91
f 37 77 76
f 25 26 28
f 50 51 91
f 36 76 75
f 27 28 30
f 49 50 90
f 1 35 75
f 30 32 31
f 8 6 4
f 4 34 32
f 32 30 28
f 28 26 24
f 24 22 20
f 20 18 16
f 16 14 12
f 12 10 8
f 8 4 24
f 4 32 24
f 32 28 24
f 24 20 8
f 20 16 8
f 2 1 74
f 32 34 33
f 61 62 102
f 49 89 88
f 34 4 3
f 33 3 5
f 5 7 9
f 9 11 17
f 11 13 17
f 13 15 17
f 17 19 21
f 21 23 25
f 25 27 33
f 27 29 33
f 29 31 33
f 33 5 17
f 5 9 17
f 17 21 33
f 65 105 104
f 65 66 106
f 66 67 107
f 67 68 108
f 69 109 108
f 69 70 110
f 70 71 111
f 72 112 111
f 2 73 112
f 154 114 113
f 155 115 114
f 155 156 116
f 156 157 117
f 158 118 117
f 158 159 119
f 159 160 120
f 160 161 121
f 162 122 121
f 162 163 123
f 164 124 123
f 164 165 125
f 166 126 125
f 167 127 126
f 168 128 127
f 168 169 129
f 170 130 129
f 171 131 130
f 171 172 132
f 172 173 133
f 174 134 133
f 175 135 134
f 175 176 136
f 176 177 137
f 178 138 137
f 178 179 139
f 179 180 140
f 180 181 141
f 182 142 141
f 182 183 143
f 184 144 143
f 184 185 145
f 186 146 145
f 187 147 146
f 188 148 147
f 188 189 149
f 190 150 149
f 191 151 150
f 191 192 152
f 192 153 113
