# clockwork Gear8_Brass.obj: Roblox cue frame, recentred on its bounding box
v -0.06490 -0.05557 0.00000
v -0.06461 -0.06066 0.00000
v -0.06396 -0.05989 0.01164
v -0.06560 -0.06184 0.01717
v -0.06409 -0.05460 0.01449
v -0.07441 -0.07235 0.02699
v -0.07542 -0.07354 0.03228
v -0.07611 -0.06893 0.02783
v -0.07136 -0.06871 0.04822
v -0.06830 -0.06506 0.05101
v -0.07063 -0.06240 0.04935
v -0.05755 -0.05225 0.04878
v -0.05390 -0.04790 0.05103
v -0.05600 -0.04496 0.04627
v -0.04804 -0.04092 0.06223
v -0.04904 -0.03666 0.05960
v -0.04229 -0.03407 0.06975
v -0.04094 -0.03245 0.07545
v -0.04188 -0.02812 0.06895
v -0.04271 -0.03456 0.09210
v -0.04101 -0.03254 0.09694
v -0.04431 -0.03103 0.09161
v -0.03090 -0.02049 0.10375
v -0.02747 -0.01640 0.10236
v -0.03066 -0.01476 0.10080
v -0.02088 -0.00855 0.08895
v -0.01728 -0.00425 0.08653
v -0.02171 -0.00409 0.08253
v -0.00804 0.00675 0.08800
v -0.01072 0.00900 0.08429
v -0.00056 0.01567 0.08699
v 0.00299 0.01990 0.08954
v -0.00141 0.02010 0.08302
v 0.00930 0.02742 0.10326
v 0.01271 0.03148 0.10481
v 0.00716 0.03032 0.10172
v 0.02295 0.04369 0.09850
v 0.02474 0.04582 0.09374
v 0.02100 0.04680 0.09320
v 0.02331 0.04411 0.07702
v 0.02476 0.04584 0.07134
v 0.01902 0.04445 0.07044
v 0.03195 0.05442 0.06223
v 0.02759 0.05466 0.05960
v 0.03679 0.06018 0.05328
v 0.04045 0.06455 0.05117
v 0.03360 0.06182 0.04846
v 0.05116 0.07730 0.05393
v 0.05427 0.08101 0.05129
v 0.04816 0.07917 0.05225
v 0.05864 0.08622 0.03556
v 0.05775 0.08516 0.03022
v 0.05407 0.08622 0.03101
v 0.04913 0.07489 0.01997
v 0.04758 0.07303 0.01436
v 0.04232 0.07222 0.01709
v 0.04852 0.07416 0.00000
v 0.04345 0.07357 0.00000
v 0.04787 0.07339 -0.01164
v 0.04951 0.07534 -0.01717
v 0.04264 0.07260 -0.01449
v 0.05833 0.08585 -0.02699
v 0.05933 0.08704 -0.03228
v 0.05466 0.08692 -0.02783
v 0.05527 0.08221 -0.04822
v 0.05221 0.07856 -0.05101
v 0.04919 0.08040 -0.04935
v 0.04146 0.06575 -0.04878
v 0.03781 0.06140 -0.05103
v 0.03455 0.06296 -0.04627
v 0.03195 0.05442 -0.06223
v 0.02759 0.05466 -0.05960
v 0.02620 0.04756 -0.06975
v 0.02485 0.04595 -0.07545
v 0.02043 0.04612 -0.06895
v 0.02662 0.04806 -0.09210
v 0.02492 0.04604 -0.09694
v 0.02286 0.04903 -0.09161
v 0.01481 0.03399 -0.10375
v 0.01138 0.02990 -0.10236
v 0.00921 0.03275 -0.10080
v 0.00479 0.02205 -0.08895
v 0.00119 0.01775 -0.08653
v 0.00026 0.02209 -0.08253
v -0.00804 0.00675 -0.08800
v -0.01072 0.00900 -0.08429
v -0.01553 -0.00217 -0.08699
v -0.01908 -0.00640 -0.08954
v -0.02004 -0.00210 -0.08302
v -0.02539 -0.01393 -0.10326
v -0.02879 -0.01798 -0.10481
v -0.02861 -0.01232 -0.10172
v -0.03904 -0.03019 -0.09850
v -0.04083 -0.03233 -0.09374
v -0.04245 -0.02880 -0.09320
v -0.03940 -0.03062 -0.07702
v -0.04084 -0.03234 -0.07134
v -0.04047 -0.02645 -0.07044
v -0.04804 -0.04092 -0.06223
v -0.04904 -0.03666 -0.05960
v -0.05287 -0.04668 -0.05328
v -0.05654 -0.05105 -0.05117
v -0.05505 -0.04382 -0.04846
v -0.06724 -0.06380 -0.05393
v -0.07035 -0.06751 -0.05129
v -0.06961 -0.06118 -0.05225
v -0.07473 -0.07273 -0.03556
v -0.07384 -0.07166 -0.03022
v -0.07552 -0.06822 -0.03101
v -0.06522 -0.06139 -0.01997
v -0.06366 -0.05954 -0.01436
v -0.06377 -0.05422 -0.01709
v -0.04852 -0.07416 0.00000
v -0.04345 -0.07357 0.00000
v -0.04787 -0.07339 0.01164
v -0.04264 -0.07260 0.01449
v -0.04951 -0.07534 0.01717
v -0.05833 -0.08585 0.02699
v -0.05466 -0.08692 0.02783
v -0.05933 -0.08704 0.03228
v -0.05527 -0.08221 0.04822
v -0.04919 -0.08040 0.04935
v -0.05221 -0.07856 0.05101
v -0.04146 -0.06575 0.04878
v -0.03455 -0.06296 0.04627
v -0.03781 -0.06140 0.05103
v -0.02759 -0.05466 0.05960
v -0.03195 -0.05442 0.06223
v -0.02620 -0.04756 0.06975
v -0.02043 -0.04612 0.06895
v -0.02485 -0.04595 0.07545
v -0.02662 -0.04806 0.09210
v -0.02286 -0.04903 0.09161
v -0.02492 -0.04604 0.09694
v -0.01481 -0.03399 0.10375
v -0.00921 -0.03275 0.10080
v -0.01138 -0.02990 0.10236
v -0.00479 -0.02205 0.08895
v -0.00026 -0.02209 0.08253
v -0.00119 -0.01775 0.08653
v 0.01072 -0.00900 0.08429
v 0.00804 -0.00675 0.08800
v 0.01553 0.00217 0.08699
v 0.02004 0.00210 0.08302
v 0.01908 0.00640 0.08954
v 0.02539 0.01393 0.10326
v 0.02861 0.01232 0.10172
v 0.02879 0.01798 0.10481
v 0.03904 0.03019 0.09850
v 0.04245 0.02880 0.09320
v 0.04083 0.03233 0.09374
v 0.03940 0.03062 0.07702
v 0.04047 0.02645 0.07044
v 0.04084 0.03234 0.07134
v 0.04904 0.03666 0.05960
v 0.04804 0.04092 0.06223
v 0.05287 0.04668 0.05328
v 0.05505 0.04382 0.04846
v 0.05654 0.05105 0.05117
v 0.06724 0.06380 0.05393
v 0.06961 0.06118 0.05225
v 0.07035 0.06751 0.05129
v 0.07473 0.07273 0.03556
v 0.07552 0.06822 0.03101
v 0.07384 0.07166 0.03022
v 0.06522 0.06139 0.01997
v 0.06377 0.05422 0.01709
v 0.06366 0.05954 0.01436
v 0.06490 0.05557 0.00000
v 0.06461 0.06066 0.00000
v 0.06396 0.05989 -0.01164
v 0.06409 0.05460 -0.01449
v 0.06560 0.06184 -0.01717
v 0.07441 0.07235 -0.02699
v 0.07611 0.06893 -0.02783
v 0.07542 0.07354 -0.03228
v 0.07136 0.06871 -0.04822
v 0.07063 0.06240 -0.04935
v 0.06830 0.06506 -0.05101
v 0.05755 0.05225 -0.04878
v 0.05600 0.04496 -0.04627
v 0.05390 0.04790 -0.05103
v 0.04904 0.03666 -0.05960
v 0.04804 0.04092 -0.06223
v 0.04229 0.03407 -0.06975
v 0.04188 0.02812 -0.06895
v 0.04094 0.03245 -0.07545
v 0.04271 0.03456 -0.09210
v 0.04431 0.03103 -0.09161
v 0.04101 0.03254 -0.09694
v 0.03090 0.02049 -0.10375
v 0.03066 0.01476 -0.10080
v 0.02747 0.01640 -0.10236
v 0.02088 0.00855 -0.08895
v 0.02171 0.00409 -0.08253
v 0.01728 0.00425 -0.08653
v 0.01072 -0.00900 -0.08429
v 0.00804 -0.00675 -0.08800
v 0.00056 -0.01567 -0.08699
v 0.00141 -0.02010 -0.08302
v -0.00299 -0.01990 -0.08954
v -0.00930 -0.02742 -0.10326
v -0.00716 -0.03032 -0.10172
v -0.01271 -0.03148 -0.10481
v -0.02295 -0.04369 -0.09850
v -0.02100 -0.04680 -0.09320
v -0.02474 -0.04582 -0.09374
v -0.02331 -0.04411 -0.07702
v -0.01902 -0.04445 -0.07044
v -0.02476 -0.04584 -0.07134
v -0.02759 -0.05466 -0.05960
v -0.03195 -0.05442 -0.06223
v -0.03679 -0.06018 -0.05328
v -0.03360 -0.06182 -0.04846
v -0.04045 -0.06455 -0.05117
v -0.05116 -0.07730 -0.05393
v -0.04816 -0.07917 -0.05225
v -0.05427 -0.08101 -0.05129
v -0.05864 -0.08622 -0.03556
v -0.05407 -0.08622 -0.03101
v -0.05775 -0.08516 -0.03022
v -0.04913 -0.07489 -0.01997
v -0.04232 -0.07222 -0.01709
v -0.04758 -0.07303 -0.01436
v -0.04990 -0.04314 0.00000
v -0.05484 -0.04358 0.00000
v -0.05418 -0.04279 0.01180
v -0.04928 -0.04239 0.01120
v -0.05328 -0.04171 0.01811
v -0.04842 -0.04137 0.01718
v -0.04971 -0.03747 0.03211
v -0.04504 -0.03734 0.03047
v -0.04760 -0.03494 0.03768
v -0.04303 -0.03494 0.03575
v -0.04192 -0.02818 0.04853
v -0.03764 -0.02852 0.04605
v -0.03609 -0.02123 0.05615
v -0.03211 -0.02193 0.05328
v -0.03258 -0.01705 0.05962
v -0.02878 -0.01797 0.05657
v -0.02370 -0.00646 0.06560
v -0.02035 -0.00792 0.06224
v -0.01967 -0.00166 0.06721
v -0.01653 -0.00337 0.06377
v -0.01072 0.00900 0.06863
v -0.00804 0.00675 0.06512
v -0.00314 0.01804 0.06761
v -0.00085 0.01533 0.06415
v 0.00092 0.02287 0.06620
v 0.00300 0.01991 0.06281
v 0.00992 0.03360 0.06065
v 0.01154 0.03009 0.05755
v 0.01350 0.03786 0.05736
v 0.01494 0.03414 0.05443
v 0.02047 0.04618 0.04853
v 0.02155 0.04202 0.04605
v 0.02537 0.05201 0.03946
v 0.02620 0.04756 0.03744
v 0.02760 0.05467 0.03400
v 0.02832 0.05008 0.03226
v 0.03144 0.05925 0.02018
v 0.03196 0.05443 0.01915
v 0.03247 0.06048 0.01392
v 0.03295 0.05560 0.01321
v 0.03339 0.06157 0.00000
v 0.03381 0.05663 0.00000
v 0.03273 0.06079 -0.01180
v 0.03319 0.05589 -0.01120
v 0.03183 0.05971 -0.01811
v 0.03233 0.05487 -0.01718
v 0.02826 0.05546 -0.03211
v 0.02895 0.05084 -0.03047
v 0.02615 0.05294 -0.03768
v 0.02694 0.04844 -0.03575
v 0.02047 0.04618 -0.04853
v 0.02155 0.04202 -0.04605
v 0.01464 0.03923 -0.05615
v 0.01603 0.03543 -0.05328
v 0.01113 0.03505 -0.05962
v 0.01270 0.03147 -0.05657
v 0.00225 0.02446 -0.06560
v 0.00426 0.02142 -0.06224
v -0.00178 0.01966 -0.06721
v 0.00044 0.01687 -0.06377
v -0.01072 0.00900 -0.06863
v -0.00804 0.00675 -0.06512
v -0.01831 -0.00004 -0.06761
v -0.01524 -0.00183 -0.06415
v -0.02237 -0.00487 -0.06620
v -0.01909 -0.00641 -0.06281
v -0.03137 -0.01560 -0.06065
v -0.02763 -0.01659 -0.05755
v -0.03495 -0.01987 -0.05736
v -0.03102 -0.02064 -0.05443
v -0.04192 -0.02818 -0.04853
v -0.03764 -0.02852 -0.04605
v -0.04682 -0.03402 -0.03946
v -0.04229 -0.03406 -0.03744
v -0.04905 -0.03667 -0.03400
v -0.04440 -0.03658 -0.03226
v -0.05289 -0.04125 -0.02018
v -0.04805 -0.04093 -0.01915
v -0.05392 -0.04248 -0.01392
v -0.04903 -0.04210 -0.01321
v -0.03339 -0.06157 0.00000
v -0.03381 -0.05663 0.00000
v -0.03319 -0.05589 0.01120
v -0.03273 -0.06079 0.01180
v -0.03233 -0.05487 0.01718
v -0.03183 -0.05971 0.01811
v -0.02895 -0.05084 0.03047
v -0.02826 -0.05546 0.03211
v -0.02694 -0.04844 0.03575
v -0.02615 -0.05294 0.03768
v -0.02155 -0.04202 0.04605
v -0.02047 -0.04618 0.04853
v -0.01603 -0.03543 0.05328
v -0.01464 -0.03923 0.05615
v -0.01270 -0.03147 0.05657
v -0.01113 -0.03505 0.05962
v -0.00426 -0.02142 0.06224
v -0.00225 -0.02446 0.06560
v -0.00044 -0.01687 0.06377
v 0.00178 -0.01966 0.06721
v 0.00804 -0.00675 0.06512
v 0.01072 -0.00900 0.06863
v 0.01524 0.00183 0.06415
v 0.01831 0.00004 0.06761
v 0.01909 0.00641 0.06281
v 0.02237 0.00487 0.06620
v 0.02763 0.01659 0.05755
v 0.03137 0.01560 0.06065
v 0.03102 0.02064 0.05443
v 0.03495 0.01987 0.05736
v 0.03764 0.02852 0.04605
v 0.04192 0.02818 0.04853
v 0.04229 0.03406 0.03744
v 0.04682 0.03402 0.03946
v 0.04440 0.03658 0.03226
v 0.04905 0.03667 0.03400
v 0.04805 0.04093 0.01915
v 0.05289 0.04125 0.02018
v 0.04903 0.04210 0.01321
v 0.05392 0.04248 0.01392
v 0.04990 0.04314 0.00000
v 0.05484 0.04358 0.00000
v 0.04928 0.04239 -0.01120
v 0.05418 0.04279 -0.01180
v 0.04842 0.04137 -0.01718
v 0.05328 0.04171 -0.01811
v 0.04504 0.03734 -0.03047
v 0.04971 0.03747 -0.03211
v 0.04303 0.03494 -0.03575
v 0.04760 0.03494 -0.03768
v 0.03764 0.02852 -0.04605
v 0.04192 0.02818 -0.04853
v 0.03211 0.02193 -0.05328
v 0.03609 0.02123 -0.05615
v 0.02878 0.01797 -0.05657
v 0.03258 0.01705 -0.05962
v 0.02035 0.00792 -0.06224
v 0.02370 0.00646 -0.06560
v 0.01653 0.00337 -0.06377
v 0.01967 0.00166 -0.06721
v 0.00804 -0.00675 -0.06512
v 0.01072 -0.00900 -0.06863
v 0.00085 -0.01533 -0.06415
v 0.00314 -0.01804 -0.06761
v -0.00300 -0.01991 -0.06281
v -0.00092 -0.02287 -0.06620
v -0.01154 -0.03009 -0.05755
v -0.00992 -0.03360 -0.06065
v -0.01494 -0.03414 -0.05443
v -0.01350 -0.03786 -0.05736
v -0.02155 -0.04202 -0.04605
v -0.02047 -0.04618 -0.04853
v -0.02620 -0.04756 -0.03744
v -0.02537 -0.05201 -0.03946
v -0.02832 -0.05008 -0.03226
v -0.02760 -0.05467 -0.03400
v -0.03196 -0.05443 -0.01915
v -0.03144 -0.05925 -0.02018
v -0.03295 -0.05560 -0.01321
v -0.03247 -0.06048 -0.01392
v -0.00322 -0.01908 0.01230
v -0.00749 -0.01873 0.00983
v -0.00431 -0.01494 0.00983
v -0.01714 -0.01063 0.00983
v -0.01823 -0.00648 0.01230
v -0.01396 -0.00684 0.00983
v -0.00040 -0.01572 0.01669
v -0.00149 -0.01158 0.01421
v -0.00149 -0.01158 0.01916
v -0.01542 -0.00313 0.01669
v -0.01114 -0.00348 0.01916
v -0.01114 -0.00348 0.01421
v -0.02418 -0.04406 0.04492
v -0.02845 -0.04371 0.04739
v -0.02845 -0.04371 0.04244
v -0.03920 -0.03147 0.04492
v -0.03811 -0.03561 0.04244
v -0.03811 -0.03561 0.04739
v -0.02136 -0.04071 0.04930
v -0.02245 -0.03656 0.05177
v -0.02564 -0.04035 0.05177
v -0.03638 -0.02811 0.04930
v -0.03529 -0.03225 0.05177
v -0.03211 -0.02846 0.05177
v 0.01542 0.00313 0.01669
v 0.01114 0.00348 0.01916
v 0.01114 0.00348 0.01421
v 0.00149 0.01158 0.01916
v 0.00040 0.01572 0.01669
v 0.00149 0.01158 0.01421
v 0.01823 0.00648 0.01230
v 0.01396 0.00684 0.00983
v 0.01714 0.01063 0.00983
v 0.00322 0.01908 0.01230
v 0.00749 0.01873 0.00983
v 0.00431 0.01494 0.00983
v 0.03638 0.02811 0.04930
v 0.03529 0.03225 0.05177
v 0.03211 0.02846 0.05177
v 0.02136 0.04071 0.04930
v 0.02245 0.03656 0.05177
v 0.02564 0.04035 0.05177
v 0.03920 0.03147 0.04492
v 0.03811 0.03561 0.04244
v 0.03811 0.03561 0.04739
v 0.02418 0.04406 0.04492
v 0.02845 0.04371 0.04739
v 0.02845 0.04371 0.04244
v 0.01823 0.00648 -0.01230
v 0.01714 0.01063 -0.00983
v 0.01396 0.00684 -0.00983
v 0.00749 0.01873 -0.00983
v 0.00322 0.01908 -0.01230
v 0.00431 0.01494 -0.00983
v 0.01542 0.00313 -0.01669
v 0.01114 0.00348 -0.01421
v 0.01114 0.00348 -0.01916
v 0.00040 0.01572 -0.01669
v 0.00149 0.01158 -0.01916
v 0.00149 0.01158 -0.01421
v 0.03920 0.03147 -0.04492
v 0.03811 0.03561 -0.04739
v 0.03811 0.03561 -0.04244
v 0.02418 0.04406 -0.04492
v 0.02845 0.04371 -0.04244
v 0.02845 0.04371 -0.04739
v 0.03638 0.02811 -0.04930
v 0.03211 0.02846 -0.05177
v 0.03529 0.03225 -0.05177
v 0.02136 0.04071 -0.04930
v 0.02564 0.04035 -0.05177
v 0.02245 0.03656 -0.05177
v -0.00040 -0.01572 -0.01669
v -0.00149 -0.01158 -0.01916
v -0.00149 -0.01158 -0.01421
v -0.01114 -0.00348 -0.01916
v -0.01542 -0.00313 -0.01669
v -0.01114 -0.00348 -0.01421
v -0.00322 -0.01908 -0.01230
v -0.00431 -0.01494 -0.00983
v -0.00749 -0.01873 -0.00983
v -0.01823 -0.00648 -0.01230
v -0.01714 -0.01063 -0.00983
v -0.01396 -0.00684 -0.00983
v -0.02136 -0.04071 -0.04930
v -0.02564 -0.04035 -0.05177
v -0.02245 -0.03656 -0.05177
v -0.03638 -0.02811 -0.04930
v -0.03211 -0.02846 -0.05177
v -0.03529 -0.03225 -0.05177
v -0.02418 -0.04406 -0.04492
v -0.02845 -0.04371 -0.04244
v -0.02845 -0.04371 -0.04739
v -0.03920 -0.03147 -0.04492
v -0.03811 -0.03561 -0.04739
v -0.03811 -0.03561 -0.04244
v 0.01609 -0.01350 0.02063
v 0.01341 -0.01125 0.02420
v -0.01609 0.01350 0.02063
v -0.01341 0.01125 0.02420
v 0.01101 -0.01955 0.01906
v 0.00745 -0.01834 0.02236
v -0.02116 0.00745 0.01906
v -0.01936 0.00415 0.02236
v 0.00671 -0.02467 0.01459
v 0.00241 -0.02436 0.01711
v -0.02546 0.00232 0.01459
v -0.02441 -0.00186 0.01711
v 0.00383 -0.02810 0.00790
v -0.00097 -0.02838 0.00926
v -0.02834 -0.00110 0.00790
v -0.02778 -0.00588 0.00926
v 0.00283 -0.02930 0.00000
v -0.00215 -0.02979 0.00000
v -0.02935 -0.00231 0.00000
v -0.02896 -0.00729 0.00000
v 0.00383 -0.02810 -0.00790
v -0.00097 -0.02838 -0.00926
v -0.02834 -0.00110 -0.00790
v -0.02778 -0.00588 -0.00926
v 0.00671 -0.02467 -0.01459
v 0.00241 -0.02436 -0.01711
v -0.02546 0.00232 -0.01459
v -0.02441 -0.00186 -0.01711
v 0.01101 -0.01955 -0.01906
v 0.00745 -0.01834 -0.02236
v -0.02116 0.00745 -0.01906
v -0.01936 0.00415 -0.02236
v 0.01609 -0.01350 -0.02063
v 0.01341 -0.01125 -0.02420
v -0.01609 0.01350 -0.02063
v -0.01341 0.01125 -0.02420
v 0.02116 -0.00745 -0.01906
v 0.01936 -0.00415 -0.02236
v -0.01101 0.01955 -0.01906
v -0.00745 0.01834 -0.02236
v 0.02546 -0.00232 -0.01459
v 0.02441 0.00186 -0.01711
v -0.00671 0.02467 -0.01459
v -0.00241 0.02436 -0.01711
v 0.02834 0.00110 -0.00790
v 0.02778 0.00588 -0.00926
v -0.00383 0.02810 -0.00790
v 0.00097 0.02838 -0.00926
v 0.02935 0.00231 0.00000
v 0.02896 0.00729 0.00000
v -0.00283 0.02930 0.00000
v 0.00215 0.02979 0.00000
v 0.02834 0.00110 0.00790
v 0.02778 0.00588 0.00926
v -0.00383 0.02810 0.00790
v 0.00097 0.02838 0.00926
v 0.02546 -0.00232 0.01459
v 0.02441 0.00186 0.01711
v -0.00671 0.02467 0.01459
v -0.00241 0.02436 0.01711
v 0.02116 -0.00745 0.01906
v 0.01936 -0.00415 0.02236
v -0.01101 0.01955 0.01906
v -0.00745 0.01834 0.02236
f 3 4 5
f 6 7 8
f 9 10 11
f 12 13 14
f 17 18 19
f 20 21 22
f 23 24 25
f 26 27 28
f 31 32 33
f 34 35 36
f 37 38 39
f 40 41 42
f 45 46 47
f 48 49 50
f 51 52 53
f 54 55 56
f 59 60 61
f 62 63 64
f 65 66 67
f 68 69 70
f 73 74 75
f 76 77 78
f 79 80 81
f 82 83 84
f 87 88 89
f 90 91 92
f 93 94 95
f 96 97 98
f 101 102 103
f 104 105 106
f 107 108 109
f 110 111 112
f 115 116 117
f 118 119 120
f 121 122 123
f 124 125 126
f 129 130 131
f 132 133 134
f 135 136 137
f 138 139 140
f 143 144 145
f 146 147 148
f 149 150 151
f 152 153 154
f 157 158 159
f 160 161 162
f 163 164 165
f 166 167 168
f 171 172 173
f 174 175 176
f 177 178 179
f 180 181 182
f 185 186 187
f 188 189 190
f 191 192 193
f 194 195 196
f 199 200 201
f 202 203 204
f 205 206 207
f 208 209 210
f 213 214 215
f 216 217 218
f 219 220 221
f 222 223 224
f 385 386 387
f 388 389 390
f 391 392 393
f 394 395 396
f 397 398 399
f 400 401 402
f 403 404 405
f 406 407 408
f 409 410 411
f 412 413 414
f 415 416 417
f 418 419 420
f 421 422 423
f 424 425 426
f 427 428 429
f 430 431 432
f 433 434 435
f 436 437 438
f 439 440 441
f 442 443 444
f 445 446 447
f 448 449 450
f 451 452 453
f 454 455 456
f 457 458 459
f 460 461 462
f 463 464 465
f 466 467 468
f 469 470 471
f 472 473 474
f 475 476 477
f 478 479 480
f 3 1 2
f 225 227 228
f 115 114 116
f 306 308 305
f 117 3 115
f 4 8 5
f 230 227 229
f 117 119 118
f 309 308 307
f 120 6 118
f 9 8 7
f 230 231 232
f 120 122 121
f 309 312 310
f 10 121 123
f 12 11 10
f 234 231 233
f 124 122 125
f 313 312 311
f 13 124 126
f 13 16 14
f 234 235 236
f 126 127 128
f 313 316 314
f 17 16 15
f 238 235 237
f 129 127 130
f 315 318 316
f 18 129 131
f 18 22 19
f 240 237 239
f 131 133 132
f 317 320 318
f 21 132 134
f 23 22 21
f 240 241 242
f 135 133 136
f 321 320 319
f 137 23 135
f 26 25 24
f 244 241 243
f 138 136 139
f 321 324 322
f 140 26 138
f 27 30 28
f 246 243 245
f 140 141 142
f 323 326 324
f 31 30 29
f 246 247 248
f 143 141 144
f 325 328 326
f 32 143 145
f 32 36 33
f 250 247 249
f 145 147 146
f 329 328 327
f 35 146 148
f 37 36 35
f 252 249 251
f 148 150 149
f 331 330 329
f 38 149 151
f 40 39 38
f 254 251 253
f 152 150 153
f 331 334 332
f 41 152 154
f 41 44 42
f 256 253 255
f 154 155 156
f 335 334 333
f 45 44 43
f 256 257 258
f 157 155 158
f 335 338 336
f 46 157 159
f 46 50 47
f 260 257 259
f 159 161 160
f 339 338 337
f 162 48 160
f 51 50 49
f 262 259 261
f 162 164 163
f 339 342 340
f 52 163 165
f 54 53 52
f 262 263 264
f 166 164 167
f 341 344 342
f 55 166 168
f 55 58 56
f 266 263 265
f 168 169 170
f 345 344 343
f 59 58 57
f 266 267 268
f 171 169 172
f 345 348 346
f 173 59 171
f 60 64 61
f 270 267 269
f 173 175 174
f 349 348 347
f 176 62 174
f 63 67 64
f 270 271 272
f 176 178 177
f 351 350 349
f 179 65 177
f 68 67 66
f 274 271 273
f 180 178 181
f 353 352 351
f 69 180 182
f 69 72 70
f 274 275 276
f 182 183 184
f 355 354 353
f 73 72 71
f 278 275 277
f 185 183 186
f 355 358 356
f 74 185 187
f 74 78 75
f 280 277 279
f 187 189 188
f 357 360 358
f 190 76 188
f 79 78 77
f 280 281 282
f 191 189 192
f 359 362 360
f 80 191 193
f 82 81 80
f 284 281 283
f 194 192 195
f 363 362 361
f 83 194 196
f 83 86 84
f 284 285 286
f 196 197 198
f 365 364 363
f 87 86 85
f 286 287 288
f 199 197 200
f 367 366 365
f 88 199 201
f 88 92 89
f 288 289 290
f 201 203 202
f 369 368 367
f 91 202 204
f 91 95 92
f 290 291 292
f 205 203 206
f 369 372 370
f 207 93 205
f 96 95 94
f 292 293 294
f 208 206 209
f 373 372 371
f 97 208 210
f 97 100 98
f 294 295 296
f 210 211 212
f 373 376 374
f 101 100 99
f 296 297 298
f 213 211 214
f 375 378 376
f 215 101 213
f 102 106 103
f 298 299 300
f 215 217 216
f 377 380 378
f 218 104 216
f 107 106 105
f 300 301 302
f 219 217 220
f 379 382 380
f 221 107 219
f 110 109 108
f 302 303 304
f 222 220 223
f 383 382 381
f 224 110 222
f 111 1 112
f 304 226 225
f 224 114 113
f 306 384 383
f 391 387 392
f 388 387 386
f 394 390 389
f 393 396 395
f 403 393 404
f 406 395 394
f 405 408 407
f 403 398 397
f 400 407 406
f 399 402 401
f 385 399 386
f 389 401 400
f 409 416 415
f 412 411 410
f 413 420 414
f 417 420 419
f 415 428 427
f 418 432 419
f 431 428 432
f 421 429 422
f 424 431 430
f 423 426 425
f 421 410 409
f 413 425 424
f 439 435 440
f 436 435 434
f 437 444 438
f 441 444 443
f 439 452 451
f 454 443 442
f 453 456 455
f 451 446 445
f 454 450 455
f 447 450 449
f 445 434 433
f 437 449 448
f 463 459 464
f 460 459 458
f 466 462 461
f 465 468 467
f 463 476 475
f 466 480 467
f 479 476 480
f 469 477 470
f 472 479 478
f 471 474 473
f 457 471 458
f 461 473 472
f 482 485 481
f 484 487 488
f 486 489 485
f 492 487 491
f 490 493 489
f 492 495 496
f 494 497 493
f 500 495 499
f 498 501 497
f 500 503 504
f 506 501 502
f 508 503 507
f 506 509 505
f 512 507 511
f 514 509 510
f 516 511 515
f 514 517 513
f 516 519 520
f 518 521 517
f 520 523 524
f 522 525 521
f 524 527 528
f 526 529 525
f 532 527 531
f 534 529 530
f 532 535 536
f 538 533 534
f 536 539 540
f 542 537 538
f 544 539 543
f 482 541 542
f 544 483 484
f 112 226 303
f 5 226 1
f 113 3 2
f 113 111 224
f 117 6 4
f 5 229 227
f 121 7 120
f 11 229 8
f 124 10 123
f 14 231 11
f 126 15 13
f 14 235 233
f 128 17 15
f 19 235 16
f 132 18 131
f 19 239 237
f 135 21 134
f 22 241 239
f 137 26 24
f 28 241 25
f 142 27 140
f 28 245 243
f 143 29 142
f 33 245 30
f 146 32 145
f 33 249 247
f 148 37 35
f 36 251 249
f 151 40 38
f 42 251 39
f 154 43 41
f 42 255 253
f 157 43 156
f 47 255 44
f 160 46 159
f 47 259 257
f 163 49 162
f 50 261 259
f 166 52 165
f 56 261 53
f 170 55 168
f 56 265 263
f 171 57 170
f 61 265 58
f 173 62 60
f 61 269 267
f 176 65 63
f 64 271 269
f 180 66 179
f 70 271 67
f 184 69 182
f 70 275 273
f 184 73 71
f 75 275 72
f 187 76 74
f 75 279 277
f 190 79 77
f 78 281 279
f 193 82 80
f 84 281 81
f 198 83 196
f 84 285 283
f 198 87 85
f 89 285 86
f 201 90 88
f 89 289 287
f 205 91 204
f 92 291 289
f 208 94 207
f 98 291 95
f 212 97 210
f 98 295 293
f 213 99 212
f 103 295 100
f 216 102 215
f 103 299 297
f 219 105 218
f 106 301 299
f 222 108 221
f 112 301 109
f 116 305 308
f 223 305 114
f 116 310 119
f 119 312 122
f 125 312 314
f 125 316 127
f 130 316 318
f 130 320 133
f 133 322 136
f 139 322 324
f 139 326 141
f 144 326 328
f 144 330 147
f 147 332 150
f 153 332 334
f 153 336 155
f 158 336 338
f 158 340 161
f 161 342 164
f 167 342 344
f 167 346 169
f 172 346 348
f 172 350 175
f 175 352 178
f 181 352 354
f 181 356 183
f 186 356 358
f 186 360 189
f 189 362 192
f 195 362 364
f 195 366 197
f 200 366 368
f 200 370 203
f 203 372 206
f 209 372 374
f 209 376 211
f 214 376 378
f 214 380 217
f 220 380 382
f 223 382 384
f 228 306 225
f 304 306 383
f 230 307 228
f 230 311 309
f 232 313 311
f 236 313 234
f 236 317 315
f 238 319 317
f 242 319 240
f 244 321 242
f 246 323 244
f 248 325 246
f 250 327 248
f 250 331 329
f 254 331 252
f 256 333 254
f 258 335 256
f 260 337 258
f 262 339 260
f 264 341 262
f 266 343 264
f 266 347 345
f 270 347 268
f 272 349 270
f 272 353 351
f 276 353 274
f 276 357 355
f 280 357 278
f 280 361 359
f 282 363 361
f 286 363 284
f 286 367 365
f 290 367 288
f 290 371 369
f 292 373 371
f 296 373 294
f 298 375 296
f 298 379 377
f 302 379 300
f 304 381 302
f 403 385 391
f 390 392 387
f 401 386 399
f 406 389 400
f 395 404 393
f 405 402 398
f 415 421 409
f 411 420 416
f 425 410 423
f 418 424 430
f 419 428 417
f 431 422 429
f 451 433 439
f 435 444 440
f 449 434 447
f 454 437 448
f 441 456 452
f 453 450 446
f 463 469 457
f 462 464 459
f 473 458 471
f 466 472 478
f 467 476 465
f 477 474 470
f 493 509 525
f 484 486 482
f 544 482 542
f 515 507 491
f 488 490 486
f 492 494 490
f 494 500 498
f 500 502 498
f 502 508 506
f 506 512 510
f 510 516 514
f 516 518 514
f 520 522 518
f 522 528 526
f 526 532 530
f 532 534 530
f 534 540 538
f 540 542 538
f 3 5 1
f 225 226 227
f 115 113 114
f 306 307 308
f 117 4 3
f 4 6 8
f 230 228 227
f 117 116 119
f 309 310 308
f 120 7 6
f 9 11 8
f 230 229 231
f 120 119 122
f 309 311 312
f 10 9 121
f 12 14 11
f 234 232 231
f 124 123 122
f 313 314 312
f 13 12 124
f 13 15 16
f 234 233 235
f 126 125 127
f 313 315 316
f 17 19 16
f 238 236 235
f 129 128 127
f 315 317 318
f 18 17 129
f 18 20 22
f 240 238 237
f 131 130 133
f 317 319 320
f 21 20 132
f 23 25 22
f 240 239 241
f 135 134 133
f 321 322 320
f 137 24 23
f 26 28 25
f 244 242 241
f 138 137 136
f 321 323 324
f 140 27 26
f 27 29 30
f 246 244 243
f 140 139 141
f 323 325 326
f 31 33 30
f 246 245 247
f 143 142 141
f 325 327 328
f 32 31 143
f 32 34 36
f 250 248 247
f 145 144 147
f 329 330 328
f 35 34 146
f 37 39 36
f 252 250 249
f 148 147 150
f 331 332 330
f 38 37 149
f 40 42 39
f 254 252 251
f 152 151 150
f 331 333 334
f 41 40 152
f 41 43 44
f 256 254 253
f 154 153 155
f 335 336 334
f 45 47 44
f 256 255 257
f 157 156 155
f 335 337 338
f 46 45 157
f 46 48 50
f 260 258 257
f 159 158 161
f 339 340 338
f 162 49 48
f 51 53 50
f 262 260 259
f 162 161 164
f 339 341 342
f 52 51 163
f 54 56 53
f 262 261 263
f 166 165 164
f 341 343 344
f 55 54 166
f 55 57 58
f 266 264 263
f 168 167 169
f 345 346 344
f 59 61 58
f 266 265 267
f 171 170 169
f 345 347 348
f 173 60 59
f 60 62 64
f 270 268 267
f 173 172 175
f 349 350 348
f 176 63 62
f 63 65 67
f 270 269 271
f 176 175 178
f 351 352 350
f 179 66 65
f 68 70 67
f 274 272 271
f 180 179 178
f 353 354 352
f 69 68 180
f 69 71 72
f 274 273 275
f 182 181 183
f 355 356 354
f 73 75 72
f 278 276 275
f 185 184 183
f 355 357 358
f 74 73 185
f 74 76 78
f 280 278 277
f 187 186 189
f 357 359 360
f 190 77 76
f 79 81 78
f 280 279 281
f 191 190 189
f 359 361 362
f 80 79 191
f 82 84 81
f 284 282 281
f 194 193 192
f 363 364 362
f 83 82 194
f 83 85 86
f 284 283 285
f 196 195 197
f 365 366 364
f 87 89 86
f 286 285 287
f 199 198 197
f 367 368 366
f 88 87 199
f 88 90 92
f 288 287 289
f 201 200 203
f 369 370 368
f 91 90 202
f 91 93 95
f 290 289 291
f 205 204 203
f 369 371 372
f 207 94 93
f 96 98 95
f 292 291 293
f 208 207 206
f 373 374 372
f 97 96 208
f 97 99 100
f 294 293 295
f 210 209 211
f 373 375 376
f 101 103 100
f 296 295 297
f 213 212 211
f 375 377 378
f 215 102 101
f 102 104 106
f 298 297 299
f 215 214 217
f 377 379 380
f 218 105 104
f 107 109 106
f 300 299 301
f 219 218 217
f 379 381 382
f 221 108 107
f 110 112 109
f 302 301 303
f 222 221 220
f 383 384 382
f 224 111 110
f 111 2 1
f 304 303 226
f 224 223 114
f 306 305 384
f 391 385 387
f 388 390 387
f 394 396 390
f 393 392 396
f 403 391 393
f 406 408 395
f 405 404 408
f 403 405 398
f 400 402 407
f 399 398 402
f 385 397 399
f 389 388 401
f 409 411 416
f 412 414 411
f 413 418 420
f 417 416 420
f 415 417 428
f 418 430 432
f 431 429 428
f 421 427 429
f 424 426 431
f 423 422 426
f 421 423 410
f 413 412 425
f 439 433 435
f 436 438 435
f 437 442 444
f 441 440 444
f 439 441 452
f 454 456 443
f 453 452 456
f 451 453 446
f 454 448 450
f 447 446 450
f 445 447 434
f 437 436 449
f 463 457 459
f 460 462 459
f 466 468 462
f 465 464 468
f 463 465 476
f 466 478 480
f 479 477 476
f 469 475 477
f 472 474 479
f 471 470 474
f 457 469 471
f 461 460 473
f 482 486 485
f 484 483 487
f 486 490 489
f 492 488 487
f 490 494 493
f 492 491 495
f 494 498 497
f 500 496 495
f 498 502 501
f 500 499 503
f 506 505 501
f 508 504 503
f 506 510 509
f 512 508 507
f 514 513 509
f 516 512 511
f 514 518 517
f 516 515 519
f 518 522 521
f 520 519 523
f 522 526 525
f 524 523 527
f 526 530 529
f 532 528 527
f 534 533 529
f 532 531 535
f 538 537 533
f 536 535 539
f 542 541 537
f 544 540 539
f 482 481 541
f 544 543 483
f 112 1 226
f 5 227 226
f 113 115 3
f 113 2 111
f 117 118 6
f 5 8 229
f 121 9 7
f 11 231 229
f 124 12 10
f 14 233 231
f 126 128 15
f 14 16 235
f 128 129 17
f 19 237 235
f 132 20 18
f 19 22 239
f 135 23 21
f 22 25 241
f 137 138 26
f 28 243 241
f 142 29 27
f 28 30 245
f 143 31 29
f 33 247 245
f 146 34 32
f 33 36 249
f 148 149 37
f 36 39 251
f 151 152 40
f 42 253 251
f 154 156 43
f 42 44 255
f 157 45 43
f 47 257 255
f 160 48 46
f 47 50 259
f 163 51 49
f 50 53 261
f 166 54 52
f 56 263 261
f 170 57 55
f 56 58 265
f 171 59 57
f 61 267 265
f 173 174 62
f 61 64 269
f 176 177 65
f 64 67 271
f 180 68 66
f 70 273 271
f 184 71 69
f 70 72 275
f 184 185 73
f 75 277 275
f 187 188 76
f 75 78 279
f 190 191 79
f 78 81 281
f 193 194 82
f 84 283 281
f 198 85 83
f 84 86 285
f 198 199 87
f 89 287 285
f 201 202 90
f 89 92 289
f 205 93 91
f 92 95 291
f 208 96 94
f 98 293 291
f 212 99 97
f 98 100 295
f 213 101 99
f 103 297 295
f 216 104 102
f 103 106 299
f 219 107 105
f 106 109 301
f 222 110 108
f 112 303 301
f 116 114 305
f 223 384 305
f 116 308 310
f 119 310 312
f 125 122 312
f 125 314 316
f 130 127 316
f 130 318 320
f 133 320 322
f 139 136 322
f 139 324 326
f 144 141 326
f 144 328 330
f 147 330 332
f 153 150 332
f 153 334 336
f 158 155 336
f 158 338 340
f 161 340 342
f 167 164 342
f 167 344 346
f 172 169 346
f 172 348 350
f 175 350 352
f 181 178 352
f 181 354 356
f 186 183 356
f 186 358 360
f 189 360 362
f 195 192 362
f 195 364 366
f 200 197 366
f 200 368 370
f 203 370 372
f 209 206 372
f 209 374 376
f 214 211 376
f 214 378 380
f 220 217 380
f 223 220 382
f 228 307 306
f 304 225 306
f 230 309 307
f 230 232 311
f 232 234 313
f 236 315 313
f 236 238 317
f 238 240 319
f 242 321 319
f 244 323 321
f 246 325 323
f 248 327 325
f 250 329 327
f 250 252 331
f 254 333 331
f 256 335 333
f 258 337 335
f 260 339 337
f 262 341 339
f 264 343 341
f 266 345 343
f 266 268 347
f 270 349 347
f 272 351 349
f 272 274 353
f 276 355 353
f 276 278 357
f 280 359 357
f 280 282 361
f 282 284 363
f 286 365 363
f 286 288 367
f 290 369 367
f 290 292 371
f 292 294 373
f 296 375 373
f 298 377 375
f 298 300 379
f 302 381 379
f 304 383 381
f 403 397 385
f 390 396 392
f 401 388 386
f 406 394 389
f 395 408 404
f 405 407 402
f 415 427 421
f 411 414 420
f 425 412 410
f 418 413 424
f 419 432 428
f 431 426 422
f 451 445 433
f 435 438 444
f 449 436 434
f 454 442 437
f 441 443 456
f 453 455 450
f 463 475 469
f 462 468 464
f 473 460 458
f 466 461 472
f 467 480 476
f 477 479 474
f 541 481 493
f 481 485 493
f 485 489 493
f 493 497 501
f 501 505 509
f 509 513 525
f 513 517 525
f 517 521 525
f 525 529 533
f 533 537 541
f 493 501 509
f 525 533 541
f 541 493 525
f 484 488 486
f 544 484 482
f 491 487 483
f 483 543 539
f 539 535 531
f 531 527 539
f 527 523 539
f 523 519 515
f 515 511 507
f 507 503 499
f 499 495 507
f 495 491 507
f 491 483 523
f 483 539 523
f 523 515 491
f 488 492 490
f 492 496 494
f 494 496 500
f 500 504 502
f 502 504 508
f 506 508 512
f 510 512 516
f 516 520 518
f 520 524 522
f 522 524 528
f 526 528 532
f 532 536 534
f 534 536 540
f 540 544 542
