# clockwork Gear4_Glow.obj: Roblox cue frame, recentred on its bounding box
v 0.01936 -0.07938 0.01269
v 0.01978 -0.08028 0.00000
v 0.02266 0.01057 0.01690
v -0.02266 -0.01057 0.01690
v 0.02539 0.00470 0.01561
v -0.01992 -0.01643 0.01561
v 0.02771 -0.00027 0.01195
v -0.01761 -0.02140 0.01195
v 0.02926 -0.00359 0.00647
v -0.01606 -0.02472 0.00647
v 0.02980 -0.00475 0.00000
v -0.01552 -0.02588 0.00000
v 0.02926 -0.00359 -0.00647
v -0.01606 -0.02472 -0.00647
v 0.02771 -0.00027 -0.01195
v -0.01761 -0.02140 -0.01195
v 0.02539 0.00470 -0.01561
v -0.01992 -0.01643 -0.01561
v 0.02266 0.01057 -0.01690
v -0.02266 -0.01057 -0.01690
v 0.01992 0.01643 -0.01561
v -0.02539 -0.00470 -0.01561
v 0.01761 0.02140 -0.01195
v -0.02771 0.00027 -0.01195
v 0.01606 0.02472 -0.00647
v -0.02926 0.00359 -0.00647
v 0.01552 0.02588 0.00000
v -0.02980 0.00475 0.00000
v 0.01606 0.02472 0.00647
v -0.02926 0.00359 0.00647
v 0.01761 0.02140 0.01195
v -0.02771 0.00027 0.01195
v 0.01992 0.01643 0.01561
v -0.02539 -0.00470 0.01561
v 0.01810 -0.07668 0.02507
v 0.01605 -0.07227 0.03683
v 0.01323 -0.06624 0.04768
v 0.00974 -0.05875 0.05736
v 0.00565 -0.04998 0.06563
v 0.00106 -0.04014 0.07228
v -0.00391 -0.02948 0.07715
v -0.00914 -0.01826 0.08012
v -0.01450 -0.00676 0.08112
v -0.01986 0.00474 0.08012
v -0.02509 0.01596 0.07715
v -0.03006 0.02662 0.07228
v -0.03465 0.03645 0.06563
v -0.03874 0.04522 0.05736
v -0.04224 0.05272 0.04768
v -0.04505 0.05874 0.03683
v -0.04711 0.06316 0.02507
v -0.04836 0.06585 0.01269
v -0.04878 0.06676 0.00000
v -0.04836 0.06585 -0.01269
v -0.04711 0.06316 -0.02507
v -0.04505 0.05874 -0.03683
v -0.04224 0.05272 -0.04768
v -0.03874 0.04522 -0.05736
v -0.03465 0.03645 -0.06563
v -0.03006 0.02662 -0.07228
v -0.02509 0.01596 -0.07715
v -0.01986 0.00474 -0.08012
v -0.01450 -0.00676 -0.08112
v -0.00914 -0.01826 -0.08012
v -0.00391 -0.02948 -0.07715
v 0.00106 -0.04014 -0.07228
v 0.00565 -0.04998 -0.06563
v 0.00974 -0.05875 -0.05736
v 0.01323 -0.06624 -0.04768
v 0.01605 -0.07227 -0.03683
v 0.01810 -0.07668 -0.02507
v 0.01936 -0.07938 -0.01269
v 0.02418 -0.08971 0.00000
v 0.02370 -0.08869 0.01432
v 0.02228 -0.08565 0.02828
v 0.01996 -0.08067 0.04155
v 0.01679 -0.07387 0.05379
v 0.01285 -0.06541 0.06471
v 0.00823 -0.05552 0.07404
v 0.00306 -0.04442 0.08154
v -0.00255 -0.03239 0.08704
v -0.00845 -0.01974 0.09039
v -0.01450 -0.00676 0.09152
v -0.02055 0.00621 0.09039
v -0.02645 0.01887 0.08704
v -0.03206 0.03089 0.08154
v -0.03724 0.04199 0.07404
v -0.04185 0.05189 0.06471
v -0.04579 0.06034 0.05379
v -0.04896 0.06714 0.04155
v -0.05129 0.07212 0.02828
v -0.05270 0.07516 0.01432
v -0.05318 0.07618 0.00000
v -0.05270 0.07516 -0.01432
v -0.05129 0.07212 -0.02828
v -0.04896 0.06714 -0.04155
v -0.04579 0.06034 -0.05379
v -0.04185 0.05189 -0.06471
v -0.03724 0.04199 -0.07404
v -0.03206 0.03089 -0.08154
v -0.02645 0.01887 -0.08704
v -0.02055 0.00621 -0.09039
v -0.01450 -0.00676 -0.09152
v -0.00845 -0.01974 -0.09039
v -0.00255 -0.03239 -0.08704
v 0.00306 -0.04442 -0.08154
v 0.00823 -0.05552 -0.07404
v 0.01285 -0.06541 -0.06471
v 0.01679 -0.07387 -0.05379
v 0.01996 -0.08067 -0.04155
v 0.02228 -0.08565 -0.02828
v 0.02370 -0.08869 -0.01432
v 0.04878 -0.06676 0.00000
v 0.04836 -0.06585 0.01269
v 0.04711 -0.06316 0.02507
v 0.04505 -0.05874 0.03683
v 0.04224 -0.05272 0.04768
v 0.03874 -0.04522 0.05736
v 0.03465 -0.03645 0.06563
v 0.03006 -0.02662 0.07228
v 0.02509 -0.01596 0.07715
v 0.01986 -0.00474 0.08012
v 0.01450 0.00676 0.08112
v 0.00914 0.01826 0.08012
v 0.00391 0.02948 0.07715
v -0.00106 0.04014 0.07228
v -0.00565 0.04998 0.06563
v -0.00974 0.05875 0.05736
v -0.01323 0.06624 0.04768
v -0.01605 0.07227 0.03683
v -0.01810 0.07668 0.02507
v -0.01936 0.07938 0.01269
v -0.01978 0.08028 0.00000
v -0.01936 0.07938 -0.01269
v -0.01810 0.07668 -0.02507
v -0.01605 0.07227 -0.03683
v -0.01323 0.06624 -0.04768
v -0.00974 0.05875 -0.05736
v -0.00565 0.04998 -0.06563
v -0.00106 0.04014 -0.07228
v 0.00391 0.02948 -0.07715
v 0.00914 0.01826 -0.08012
v 0.01450 0.00676 -0.08112
v 0.01986 -0.00474 -0.08012
v 0.02509 -0.01596 -0.07715
v 0.03006 -0.02662 -0.07228
v 0.03465 -0.03645 -0.06563
v 0.03874 -0.04522 -0.05736
v 0.04224 -0.05272 -0.04768
v 0.04505 -0.05874 -0.03683
v 0.04711 -0.06316 -0.02507
v 0.04836 -0.06585 -0.01269
v 0.05318 -0.07618 0.00000
v 0.05270 -0.07516 0.01432
v 0.05129 -0.07212 0.02828
v 0.04896 -0.06714 0.04155
v 0.04579 -0.06034 0.05379
v 0.04185 -0.05189 0.06471
v 0.03724 -0.04199 0.07404
v 0.03206 -0.03089 0.08154
v 0.02645 -0.01887 0.08704
v 0.02055 -0.00621 0.09039
v 0.01450 0.00676 0.09152
v 0.00845 0.01974 0.09039
v 0.00255 0.03239 0.08704
v -0.00306 0.04442 0.08154
v -0.00823 0.05552 0.07404
v -0.01285 0.06541 0.06471
v -0.01679 0.07387 0.05379
v -0.01996 0.08067 0.04155
v -0.02228 0.08565 0.02828
v -0.02370 0.08869 0.01432
v -0.02418 0.08971 0.00000
v -0.02370 0.08869 -0.01432
v -0.02228 0.08565 -0.02828
v -0.01996 0.08067 -0.04155
v -0.01679 0.07387 -0.05379
v -0.01285 0.06541 -0.06471
v -0.00823 0.05552 -0.07404
v -0.00306 0.04442 -0.08154
v 0.00255 0.03239 -0.08704
v 0.00845 0.01974 -0.09039
v 0.01450 0.00676 -0.09152
v 0.02055 -0.00621 -0.09039
v 0.02645 -0.01887 -0.08704
v 0.03206 -0.03089 -0.08154
v 0.03724 -0.04199 -0.07404
v 0.04185 -0.05189 -0.06471
v 0.04579 -0.06034 -0.05379
v 0.04896 -0.06714 -0.04155
v 0.05129 -0.07212 -0.02828
v 0.05270 -0.07516 -0.01432
f 62 103 102
f 48 87 47
f 3 6 5
f 64 103 63
f 47 86 46
f 5 8 7
f 61 100 60
f 45 86 85
f 7 10 9
f 59 100 99
f 45 84 44
f 9 12 11
f 58 99 98
f 44 83 43
f 12 13 11
f 57 98 97
f 42 83 82
f 14 15 13
f 56 97 96
f 41 82 81
f 16 17 15
f 56 95 55
f 41 80 40
f 17 20 19
f 55 94 54
f 39 80 79
f 19 22 21
f 54 93 53
f 38 79 78
f 22 23 21
f 52 93 92
f 37 78 77
f 23 26 25
f 51 92 91
f 36 77 76
f 25 28 27
f 50 91 90
f 36 75 35
f 28 29 27
f 50 89 49
f 35 74 1
f 29 32 31
f 24 16 8
f 1 73 2
f 31 34 33
f 61 102 101
f 49 88 48
f 34 3 33
f 17 25 33
f 65 104 64
f 65 106 105
f 67 106 66
f 68 107 67
f 69 108 68
f 70 109 69
f 70 111 110
f 71 112 111
f 72 73 112
f 153 114 113
f 154 115 114
f 155 116 115
f 157 116 156
f 158 117 157
f 159 118 158
f 160 119 159
f 160 121 120
f 162 121 161
f 163 122 162
f 163 124 123
f 164 125 124
f 166 125 165
f 166 127 126
f 167 128 127
f 168 129 128
f 169 130 129
f 171 130 170
f 172 131 171
f 173 132 172
f 173 134 133
f 174 135 134
f 175 136 135
f 177 136 176
f 178 137 177
f 179 138 178
f 180 139 179
f 180 141 140
f 182 141 181
f 183 142 182
f 183 144 143
f 184 145 144
f 186 145 185
f 186 147 146
f 187 148 147
f 188 149 148
f 189 150 149
f 191 150 190
f 192 151 191
f 153 152 192
f 62 63 103
f 48 88 87
f 3 4 6
f 64 104 103
f 47 87 86
f 5 6 8
f 61 101 100
f 45 46 86
f 7 8 10
f 59 60 100
f 45 85 84
f 9 10 12
f 58 59 99
f 44 84 83
f 12 14 13
f 57 58 98
f 42 43 83
f 14 16 15
f 56 57 97
f 41 42 82
f 16 18 17
f 56 96 95
f 41 81 80
f 17 18 20
f 55 95 94
f 39 40 80
f 19 20 22
f 54 94 93
f 38 39 79
f 22 24 23
f 52 53 93
f 37 38 78
f 23 24 26
f 51 52 92
f 36 37 77
f 25 26 28
f 50 51 91
f 36 76 75
f 28 30 29
f 50 90 89
f 35 75 74
f 29 30 32
f 8 6 32
f 6 4 32
f 4 34 32
f 32 30 28
f 28 26 24
f 24 22 20
f 20 18 24
f 18 16 24
f 16 14 12
f 12 10 8
f 32 28 24
f 16 12 8
f 8 32 24
f 1 74 73
f 31 32 34
f 61 62 102
f 49 89 88
f 34 4 3
f 33 3 5
f 5 7 33
f 7 9 33
f 9 11 13
f 13 15 9
f 15 17 9
f 17 19 21
f 21 23 17
f 23 25 17
f 25 27 29
f 29 31 25
f 31 33 25
f 33 9 17
f 65 105 104
f 65 66 106
f 67 107 106
f 68 108 107
f 69 109 108
f 70 110 109
f 70 71 111
f 71 72 112
f 72 2 73
f 153 154 114
f 154 155 115
f 155 156 116
f 157 117 116
f 158 118 117
f 159 119 118
f 160 120 119
f 160 161 121
f 162 122 121
f 163 123 122
f 163 164 124
f 164 165 125
f 166 126 125
f 166 167 127
f 167 168 128
f 168 169 129
f 169 170 130
f 171 131 130
f 172 132 131
f 173 133 132
f 173 174 134
f 174 175 135
f 175 176 136
f 177 137 136
f 178 138 137
f 179 139 138
f 180 140 139
f 180 181 141
f 182 142 141
f 183 143 142
f 183 184 144
f 184 185 145
f 186 146 145
f 186 187 147
f 187 188 148
f 188 189 149
f 189 190 150
f 191 151 150
f 192 152 151
f 153 113 152
