# clockwork Gear2_Copper.obj: Roblox cue frame, recentred on its bounding box
v -0.11643 0.04569 0.00000
v -0.12092 0.04327 0.00000
v -0.11937 0.04286 0.01852
v -0.12183 0.04351 0.02404
v -0.11463 0.04521 0.02137
v -0.14360 0.04935 0.04018
v -0.14511 0.04975 0.04547
v -0.14122 0.05233 0.04102
v -0.13511 0.04707 0.07161
v -0.13052 0.04584 0.07441
v -0.12909 0.04908 0.07275
v -0.10397 0.03873 0.07074
v -0.09849 0.03726 0.07299
v -0.09671 0.04041 0.06823
v -0.08471 0.03357 0.09051
v -0.08127 0.03627 0.08788
v -0.07096 0.02988 0.10247
v -0.06893 0.02934 0.10818
v -0.06540 0.03202 0.10168
v -0.07330 0.03051 0.13553
v -0.07075 0.02983 0.14037
v -0.07078 0.03346 0.13504
v -0.04583 0.02315 0.15154
v -0.04067 0.02177 0.15015
v -0.04053 0.02535 0.14859
v -0.02441 0.01741 0.12812
v -0.01899 0.01596 0.12570
v -0.02072 0.02005 0.12170
v 0.00272 0.01014 0.12800
v 0.00362 0.01352 0.12429
v 0.02061 0.00535 0.12640
v 0.02594 0.00392 0.12894
v 0.02426 0.00799 0.12243
v 0.04153 -0.00026 0.15148
v 0.04664 -0.00163 0.15304
v 0.04325 0.00291 0.14995
v 0.07189 -0.00839 0.14269
v 0.07459 -0.00912 0.13793
v 0.07389 -0.00530 0.13739
v 0.07105 -0.00817 0.11045
v 0.07322 -0.00875 0.10477
v 0.06953 -0.00414 0.10387
v 0.09014 -0.01328 0.09051
v 0.08851 -0.00922 0.08788
v 0.10170 -0.01638 0.07628
v 0.10721 -0.01786 0.07417
v 0.10184 -0.01279 0.07146
v 0.13363 -0.02494 0.07870
v 0.13831 -0.02619 0.07606
v 0.13406 -0.02143 0.07702
v 0.14909 -0.02908 0.05026
v 0.14775 -0.02872 0.04492
v 0.14715 -0.02493 0.04571
v 0.12647 -0.02302 0.02808
v 0.12413 -0.02239 0.02247
v 0.12117 -0.01797 0.02520
v 0.12636 -0.02299 0.00000
v 0.12368 -0.01865 0.00000
v 0.12481 -0.02257 -0.01852
v 0.12726 -0.02323 -0.02404
v 0.12188 -0.01816 -0.02137
v 0.14904 -0.02906 -0.04018
v 0.15054 -0.02947 -0.04547
v 0.14847 -0.02529 -0.04102
v 0.14055 -0.02679 -0.07161
v 0.13595 -0.02556 -0.07441
v 0.13633 -0.02204 -0.07275
v 0.10941 -0.01845 -0.07074
v 0.10392 -0.01698 -0.07299
v 0.10396 -0.01336 -0.06823
v 0.09014 -0.01328 -0.09051
v 0.08851 -0.00922 -0.08788
v 0.07640 -0.00960 -0.10247
v 0.07436 -0.00906 -0.10818
v 0.07265 -0.00497 -0.10168
v 0.07874 -0.01023 -0.13553
v 0.07619 -0.00954 -0.14037
v 0.07802 -0.00641 -0.13504
v 0.05126 -0.00287 -0.15154
v 0.04611 -0.00148 -0.15015
v 0.04778 0.00169 -0.14859
v 0.02984 0.00287 -0.12812
v 0.02443 0.00433 -0.12570
v 0.02797 0.00700 -0.12170
v 0.00272 0.01014 -0.12800
v 0.00362 0.01352 -0.12429
v -0.01517 0.01494 -0.12640
v -0.02051 0.01637 -0.12894
v -0.01702 0.01905 -0.12243
v -0.03610 0.02054 -0.15148
v -0.04121 0.02191 -0.15304
v -0.03600 0.02414 -0.14995
v -0.06646 0.02868 -0.14269
v -0.06915 0.02940 -0.13793
v -0.06664 0.03235 -0.13739
v -0.06561 0.02845 -0.11045
v -0.06778 0.02903 -0.10477
v -0.06228 0.03118 -0.10387
v -0.08471 0.03357 -0.09051
v -0.08127 0.03627 -0.08788
v -0.09626 0.03666 -0.07628
v -0.10177 0.03814 -0.07417
v -0.09459 0.03984 -0.07146
v -0.12819 0.04522 -0.07870
v -0.13287 0.04647 -0.07606
v -0.12681 0.04847 -0.07702
v -0.14366 0.04936 -0.05026
v -0.14231 0.04900 -0.04492
v -0.13990 0.05198 -0.04571
v -0.12104 0.04330 -0.02808
v -0.11870 0.04268 -0.02247
v -0.11393 0.04502 -0.02520
v -0.12636 0.02299 0.00000
v -0.12368 0.01865 0.00000
v -0.12481 0.02257 0.01852
v -0.12188 0.01816 0.02137
v -0.12726 0.02323 0.02404
v -0.14904 0.02906 0.04018
v -0.14847 0.02529 0.04102
v -0.15054 0.02947 0.04547
v -0.14055 0.02679 0.07161
v -0.13633 0.02204 0.07275
v -0.13595 0.02556 0.07441
v -0.10941 0.01845 0.07074
v -0.10396 0.01336 0.06823
v -0.10392 0.01698 0.07299
v -0.08851 0.00922 0.08788
v -0.09014 0.01328 0.09051
v -0.07640 0.00960 0.10247
v -0.07265 0.00497 0.10168
v -0.07436 0.00906 0.10818
v -0.07874 0.01023 0.13553
v -0.07802 0.00641 0.13504
v -0.07619 0.00954 0.14037
v -0.05126 0.00287 0.15154
v -0.04778 -0.00169 0.14859
v -0.04611 0.00148 0.15015
v -0.02984 -0.00287 0.12812
v -0.02797 -0.00700 0.12170
v -0.02443 -0.00433 0.12570
v -0.00362 -0.01352 0.12429
v -0.00272 -0.01014 0.12800
v 0.01517 -0.01494 0.12640
v 0.01702 -0.01905 0.12243
v 0.02051 -0.01637 0.12894
v 0.03610 -0.02054 0.15148
v 0.03600 -0.02414 0.14995
v 0.04121 -0.02191 0.15304
v 0.06646 -0.02868 0.14269
v 0.06664 -0.03235 0.13739
v 0.06915 -0.02940 0.13793
v 0.06561 -0.02845 0.11045
v 0.06228 -0.03118 0.10387
v 0.06778 -0.02903 0.10477
v 0.08127 -0.03627 0.08788
v 0.08471 -0.03357 0.09051
v 0.09626 -0.03666 0.07628
v 0.09459 -0.03984 0.07146
v 0.10177 -0.03814 0.07417
v 0.12819 -0.04522 0.07870
v 0.12681 -0.04847 0.07702
v 0.13287 -0.04647 0.07606
v 0.14366 -0.04936 0.05026
v 0.13990 -0.05198 0.04571
v 0.14231 -0.04900 0.04492
v 0.12104 -0.04330 0.02808
v 0.11393 -0.04502 0.02520
v 0.11870 -0.04268 0.02247
v 0.11643 -0.04569 0.00000
v 0.12092 -0.04327 0.00000
v 0.11937 -0.04286 -0.01852
v 0.11463 -0.04521 -0.02137
v 0.12183 -0.04351 -0.02404
v 0.14360 -0.04935 -0.04018
v 0.14122 -0.05233 -0.04102
v 0.14511 -0.04975 -0.04547
v 0.13511 -0.04707 -0.07161
v 0.12909 -0.04908 -0.07275
v 0.13052 -0.04584 -0.07441
v 0.10397 -0.03873 -0.07074
v 0.09671 -0.04041 -0.06823
v 0.09849 -0.03726 -0.07299
v 0.08127 -0.03627 -0.08788
v 0.08471 -0.03357 -0.09051
v 0.07096 -0.02988 -0.10247
v 0.06540 -0.03202 -0.10168
v 0.06893 -0.02934 -0.10818
v 0.07330 -0.03051 -0.13553
v 0.07078 -0.03346 -0.13504
v 0.07075 -0.02983 -0.14037
v 0.04583 -0.02315 -0.15154
v 0.04053 -0.02535 -0.14859
v 0.04067 -0.02177 -0.15015
v 0.02441 -0.01741 -0.12812
v 0.02072 -0.02005 -0.12170
v 0.01899 -0.01596 -0.12570
v -0.00362 -0.01352 -0.12429
v -0.00272 -0.01014 -0.12800
v -0.02061 -0.00535 -0.12640
v -0.02426 -0.00799 -0.12243
v -0.02594 -0.00392 -0.12894
v -0.04153 0.00026 -0.15148
v -0.04325 -0.00291 -0.14995
v -0.04664 0.00163 -0.15304
v -0.07189 0.00839 -0.14269
v -0.07389 0.00530 -0.13739
v -0.07459 0.00912 -0.13793
v -0.07105 0.00817 -0.11045
v -0.06953 0.00414 -0.10387
v -0.07322 0.00875 -0.10477
v -0.08851 0.00922 -0.08788
v -0.09014 0.01328 -0.09051
v -0.10170 0.01638 -0.07628
v -0.10184 0.01279 -0.07146
v -0.10721 0.01786 -0.07417
v -0.13363 0.02494 -0.07870
v -0.13406 0.02143 -0.07702
v -0.13831 0.02619 -0.07606
v -0.14909 0.02908 -0.05026
v -0.14715 0.02493 -0.04571
v -0.14775 0.02872 -0.04492
v -0.12647 0.02302 -0.02808
v -0.12117 0.01797 -0.02520
v -0.12413 0.02239 -0.02247
v -0.08877 0.03466 0.00000
v -0.09126 0.03895 0.00000
v -0.08985 0.03857 0.01689
v -0.08741 0.03429 0.01628
v -0.08790 0.03805 0.02592
v -0.08553 0.03379 0.02499
v -0.08023 0.03599 0.04597
v -0.07814 0.03181 0.04432
v -0.07568 0.03477 0.05393
v -0.07375 0.03063 0.05200
v -0.06347 0.03150 0.06946
v -0.06198 0.02748 0.06698
v -0.05094 0.02814 0.08037
v -0.04989 0.02424 0.07750
v -0.04339 0.02612 0.08533
v -0.04261 0.02229 0.08228
v -0.02428 0.02100 0.09389
v -0.02418 0.01735 0.09053
v -0.01562 0.01868 0.09619
v -0.01584 0.01511 0.09275
v 0.00362 0.01352 0.09823
v 0.00272 0.01014 0.09472
v 0.01994 0.00915 0.09677
v 0.01845 0.00593 0.09331
v 0.02866 0.00681 0.09475
v 0.02686 0.00367 0.09136
v 0.04802 0.00163 0.08681
v 0.04553 -0.00133 0.08371
v 0.05572 -0.00044 0.08210
v 0.05295 -0.00332 0.07917
v 0.07072 -0.00445 0.06946
v 0.06741 -0.00719 0.06698
v 0.08125 -0.00728 0.05648
v 0.07757 -0.00991 0.05446
v 0.08604 -0.00856 0.04867
v 0.08219 -0.01115 0.04693
v 0.09431 -0.01078 0.02888
v 0.09017 -0.01329 0.02785
v 0.09654 -0.01137 0.01992
v 0.09231 -0.01386 0.01921
v 0.09851 -0.01190 0.00000
v 0.09421 -0.01437 0.00000
v 0.09710 -0.01152 -0.01689
v 0.09285 -0.01401 -0.01628
v 0.09515 -0.01100 -0.02592
v 0.09097 -0.01350 -0.02499
v 0.08748 -0.00895 -0.04597
v 0.08358 -0.01152 -0.04432
v 0.08293 -0.00773 -0.05393
v 0.07919 -0.01035 -0.05200
v 0.07072 -0.00445 -0.06946
v 0.06741 -0.00719 -0.06698
v 0.05818 -0.00110 -0.08037
v 0.05533 -0.00395 -0.07750
v 0.05063 0.00093 -0.08533
v 0.04805 -0.00200 -0.08228
v 0.03152 0.00605 -0.09389
v 0.02962 0.00293 -0.09053
v 0.02286 0.00837 -0.09619
v 0.02127 0.00517 -0.09275
v 0.00362 0.01352 -0.09823
v 0.00272 0.01014 -0.09472
v -0.01269 0.01789 -0.09677
v -0.01301 0.01436 -0.09331
v -0.02141 0.02023 -0.09475
v -0.02142 0.01661 -0.09136
v -0.04078 0.02542 -0.08681
v -0.04009 0.02161 -0.08371
v -0.04847 0.02748 -0.08210
v -0.04751 0.02360 -0.07917
v -0.06347 0.03150 -0.06946
v -0.06198 0.02748 -0.06698
v -0.07401 0.03432 -0.05648
v -0.07214 0.03020 -0.05446
v -0.07880 0.03561 -0.04867
v -0.07676 0.03144 -0.04693
v -0.08707 0.03782 -0.02888
v -0.08473 0.03357 -0.02785
v -0.08929 0.03842 -0.01992
v -0.08687 0.03415 -0.01921
v -0.09851 0.01190 0.00000
v -0.09421 0.01437 0.00000
v -0.09285 0.01401 0.01628
v -0.09710 0.01152 0.01689
v -0.09097 0.01350 0.02499
v -0.09515 0.01100 0.02592
v -0.08358 0.01152 0.04432
v -0.08748 0.00895 0.04597
v -0.07919 0.01035 0.05200
v -0.08293 0.00773 0.05393
v -0.06741 0.00719 0.06698
v -0.07072 0.00445 0.06946
v -0.05533 0.00395 0.07750
v -0.05818 0.00110 0.08037
v -0.04805 0.00200 0.08228
v -0.05064 -0.00093 0.08533
v -0.02962 -0.00293 0.09053
v -0.03152 -0.00605 0.09389
v -0.02127 -0.00517 0.09275
v -0.02286 -0.00837 0.09619
v -0.00272 -0.01014 0.09472
v -0.00362 -0.01352 0.09823
v 0.01301 -0.01436 0.09331
v 0.01269 -0.01789 0.09677
v 0.02142 -0.01661 0.09136
v 0.02141 -0.02023 0.09475
v 0.04009 -0.02161 0.08371
v 0.04078 -0.02542 0.08681
v 0.04751 -0.02360 0.07917
v 0.04847 -0.02748 0.08210
v 0.06198 -0.02748 0.06698
v 0.06347 -0.03150 0.06946
v 0.07214 -0.03020 0.05446
v 0.07401 -0.03432 0.05648
v 0.07676 -0.03144 0.04693
v 0.07880 -0.03561 0.04867
v 0.08473 -0.03357 0.02785
v 0.08707 -0.03782 0.02888
v 0.08687 -0.03415 0.01921
v 0.08929 -0.03842 0.01992
v 0.08877 -0.03466 0.00000
v 0.09126 -0.03895 0.00000
v 0.08741 -0.03429 -0.01628
v 0.08985 -0.03857 -0.01689
v 0.08553 -0.03379 -0.02499
v 0.08790 -0.03805 -0.02592
v 0.07814 -0.03181 -0.04432
v 0.08023 -0.03599 -0.04597
v 0.07375 -0.03063 -0.05200
v 0.07568 -0.03477 -0.05393
v 0.06198 -0.02748 -0.06698
v 0.06347 -0.03150 -0.06946
v 0.04989 -0.02424 -0.07750
v 0.05094 -0.02814 -0.08037
v 0.04261 -0.02229 -0.08228
v 0.04339 -0.02612 -0.08533
v 0.02418 -0.01735 -0.09053
v 0.02428 -0.02100 -0.09389
v 0.01584 -0.01511 -0.09275
v 0.01562 -0.01868 -0.09619
v -0.00272 -0.01014 -0.09472
v -0.00362 -0.01352 -0.09823
v -0.01845 -0.00593 -0.09331
v -0.01994 -0.00915 -0.09677
v -0.02686 -0.00367 -0.09136
v -0.02866 -0.00681 -0.09475
v -0.04553 0.00133 -0.08371
v -0.04802 -0.00163 -0.08681
v -0.05295 0.00332 -0.07917
v -0.05572 0.00044 -0.08210
v -0.06741 0.00719 -0.06698
v -0.07072 0.00445 -0.06946
v -0.07757 0.00991 -0.05446
v -0.08125 0.00728 -0.05648
v -0.08219 0.01115 -0.04693
v -0.08604 0.00856 -0.04867
v -0.09017 0.01329 -0.02785
v -0.09431 0.01078 -0.02888
v -0.09231 0.01386 -0.01921
v -0.09654 0.01137 -0.01992
v -0.02753 -0.00277 0.01725
v -0.02902 0.00125 0.01478
v -0.02424 -0.00003 0.01478
v -0.02576 0.01342 0.01478
v -0.02246 0.01616 0.01725
v -0.02098 0.01214 0.01478
v -0.01920 -0.00500 0.02588
v -0.01591 -0.00226 0.02341
v -0.01591 -0.00226 0.02836
v -0.01413 0.01393 0.02588
v -0.01264 0.00991 0.02836
v -0.01264 0.00991 0.02341
v -0.07242 0.00926 0.06372
v -0.07391 0.01328 0.06620
v -0.07391 0.01328 0.06125
v -0.06735 0.02819 0.06372
v -0.07065 0.02545 0.06125
v -0.07065 0.02545 0.06620
v -0.06409 0.00703 0.07235
v -0.06079 0.00977 0.07483
v -0.06557 0.01105 0.07483
v -0.05902 0.02596 0.07235
v -0.06231 0.02322 0.07483
v -0.05753 0.02194 0.07483
v 0.01413 -0.01393 0.02588
v 0.01264 -0.00991 0.02836
v 0.01264 -0.00991 0.02341
v 0.01591 0.00226 0.02836
v 0.01920 0.00500 0.02588
v 0.01591 0.00226 0.02341
v 0.02246 -0.01616 0.01725
v 0.02098 -0.01214 0.01478
v 0.02576 -0.01342 0.01478
v 0.02753 0.00277 0.01725
v 0.02902 -0.00125 0.01478
v 0.02424 0.00003 0.01478
v 0.05902 -0.02596 0.07235
v 0.06231 -0.02322 0.07483
v 0.05753 -0.02194 0.07483
v 0.06409 -0.00703 0.07235
v 0.06079 -0.00977 0.07483
v 0.06557 -0.01105 0.07483
v 0.06735 -0.02819 0.06372
v 0.07065 -0.02545 0.06125
v 0.07065 -0.02545 0.06620
v 0.07242 -0.00926 0.06372
v 0.07391 -0.01328 0.06620
v 0.07391 -0.01328 0.06125
v 0.02246 -0.01616 -0.01725
v 0.02576 -0.01342 -0.01478
v 0.02098 -0.01214 -0.01478
v 0.02902 -0.00125 -0.01478
v 0.02753 0.00277 -0.01725
v 0.02424 0.00003 -0.01478
v 0.01413 -0.01393 -0.02588
v 0.01264 -0.00991 -0.02341
v 0.01264 -0.00991 -0.02836
v 0.01920 0.00500 -0.02588
v 0.01591 0.00226 -0.02836
v 0.01591 0.00226 -0.02341
v 0.06735 -0.02819 -0.06372
v 0.07065 -0.02545 -0.06620
v 0.07065 -0.02545 -0.06125
v 0.07242 -0.00926 -0.06372
v 0.07391 -0.01328 -0.06125
v 0.07391 -0.01328 -0.06620
v 0.05902 -0.02596 -0.07235
v 0.05753 -0.02194 -0.07483
v 0.06231 -0.02322 -0.07483
v 0.06409 -0.00703 -0.07235
v 0.06557 -0.01105 -0.07483
v 0.06079 -0.00977 -0.07483
v -0.01920 -0.00500 -0.02588
v -0.01591 -0.00226 -0.02836
v -0.01591 -0.00226 -0.02341
v -0.01264 0.00991 -0.02836
v -0.01413 0.01393 -0.02588
v -0.01264 0.00991 -0.02341
v -0.02753 -0.00277 -0.01725
v -0.02424 -0.00003 -0.01478
v -0.02902 0.00125 -0.01478
v -0.02246 0.01616 -0.01725
v -0.02576 0.01342 -0.01478
v -0.02098 0.01214 -0.01478
v -0.06409 0.00703 -0.07235
v -0.06557 0.01105 -0.07483
v -0.06079 0.00977 -0.07483
v -0.05902 0.02596 -0.07235
v -0.05753 0.02194 -0.07483
v -0.06231 0.02322 -0.07483
v -0.07242 0.00926 -0.06372
v -0.07391 0.01328 -0.06125
v -0.07391 0.01328 -0.06620
v -0.06735 0.02819 -0.06372
v -0.07065 0.02545 -0.06620
v -0.07065 0.02545 -0.06125
v -0.00544 -0.02028 0.03163
v -0.00453 -0.01690 0.03520
v 0.00544 0.02028 0.03163
v 0.00453 0.01690 0.03520
v -0.01713 -0.01715 0.02922
v -0.01754 -0.01342 0.03252
v -0.00626 0.02342 0.02922
v -0.00848 0.02039 0.03252
v -0.02704 -0.01450 0.02237
v -0.02857 -0.01046 0.02489
v -0.01617 0.02607 0.02237
v -0.01951 0.02335 0.02489
v -0.03366 -0.01272 0.01210
v -0.03594 -0.00849 0.01347
v -0.02279 0.02785 0.01210
v -0.02688 0.02532 0.01347
v -0.03599 -0.01210 0.00000
v -0.03853 -0.00779 0.00000
v -0.02512 0.02847 0.00000
v -0.02947 0.02601 0.00000
v -0.03366 -0.01272 -0.01210
v -0.03594 -0.00849 -0.01347
v -0.02279 0.02785 -0.01210
v -0.02688 0.02532 -0.01347
v -0.02704 -0.01450 -0.02237
v -0.02857 -0.01046 -0.02489
v -0.01617 0.02607 -0.02237
v -0.01951 0.02335 -0.02489
v -0.01713 -0.01715 -0.02922
v -0.01754 -0.01342 -0.03252
v -0.00626 0.02342 -0.02922
v -0.00848 0.02039 -0.03252
v -0.00544 -0.02028 -0.03163
v -0.00453 -0.01690 -0.03520
v 0.00544 0.02028 -0.03163
v 0.00453 0.01690 -0.03520
v 0.00626 -0.02342 -0.02922
v 0.00848 -0.02039 -0.03252
v 0.01713 0.01715 -0.02922
v 0.01754 0.01342 -0.03252
v 0.01617 -0.02607 -0.02237
v 0.01951 -0.02335 -0.02489
v 0.02704 0.01450 -0.02237
v 0.02857 0.01046 -0.02489
v 0.02279 -0.02785 -0.01210
v 0.02688 -0.02532 -0.01347
v 0.03366 0.01272 -0.01210
v 0.03594 0.00849 -0.01347
v 0.02512 -0.02847 0.00000
v 0.02947 -0.02601 0.00000
v 0.03599 0.01210 0.00000
v 0.03853 0.00779 0.00000
v 0.02279 -0.02785 0.01210
v 0.02688 -0.02532 0.01347
v 0.03366 0.01272 0.01210
v 0.03594 0.00849 0.01347
v 0.01617 -0.02607 0.02237
v 0.01951 -0.02335 0.02489
v 0.02704 0.01450 0.02237
v 0.02857 0.01046 0.02489
v 0.00626 -0.02342 0.02922
v 0.00848 -0.02039 0.03252
v 0.01713 0.01715 0.02922
v 0.01754 0.01342 0.03252
f 3 4 5
f 6 7 8
f 9 10 11
f 12 13 14
f 17 18 19
f 20 21 22
f 23 24 25
f 26 27 28
f 31 32 33
f 34 35 36
f 37 38 39
f 40 41 42
f 45 46 47
f 48 49 50
f 51 52 53
f 54 55 56
f 59 60 61
f 62 63 64
f 65 66 67
f 68 69 70
f 73 74 75
f 76 77 78
f 79 80 81
f 82 83 84
f 87 88 89
f 90 91 92
f 93 94 95
f 96 97 98
f 101 102 103
f 104 105 106
f 107 108 109
f 110 111 112
f 115 116 117
f 118 119 120
f 121 122 123
f 124 125 126
f 129 130 131
f 132 133 134
f 135 136 137
f 138 139 140
f 143 144 145
f 146 147 148
f 149 150 151
f 152 153 154
f 157 158 159
f 160 161 162
f 163 164 165
f 166 167 168
f 171 172 173
f 174 175 176
f 177 178 179
f 180 181 182
f 185 186 187
f 188 189 190
f 191 192 193
f 194 195 196
f 199 200 201
f 202 203 204
f 205 206 207
f 208 209 210
f 213 214 215
f 216 217 218
f 219 220 221
f 222 223 224
f 385 386 387
f 388 389 390
f 391 392 393
f 394 395 396
f 397 398 399
f 400 401 402
f 403 404 405
f 406 407 408
f 409 410 411
f 412 413 414
f 415 416 417
f 418 419 420
f 421 422 423
f 424 425 426
f 427 428 429
f 430 431 432
f 433 434 435
f 436 437 438
f 439 440 441
f 442 443 444
f 445 446 447
f 448 449 450
f 451 452 453
f 454 455 456
f 457 458 459
f 460 461 462
f 463 464 465
f 466 467 468
f 469 470 471
f 472 473 474
f 475 476 477
f 478 479 480
f 3 1 2
f 225 227 228
f 115 114 116
f 306 308 305
f 4 115 117
f 4 8 5
f 230 227 229
f 117 119 118
f 307 310 308
f 120 6 118
f 9 8 7
f 232 229 231
f 121 119 122
f 309 312 310
f 10 121 123
f 12 11 10
f 232 233 234
f 124 122 125
f 313 312 311
f 126 12 124
f 13 16 14
f 236 233 235
f 126 127 128
f 313 316 314
f 17 16 15
f 238 235 237
f 129 127 130
f 317 316 315
f 18 129 131
f 18 22 19
f 240 237 239
f 131 133 132
f 319 318 317
f 134 20 132
f 21 25 22
f 240 241 242
f 134 136 135
f 321 320 319
f 137 23 135
f 26 25 24
f 244 241 243
f 138 136 139
f 321 324 322
f 27 138 140
f 27 30 28
f 244 245 246
f 140 141 142
f 325 324 323
f 31 30 29
f 246 247 248
f 143 141 144
f 325 328 326
f 32 143 145
f 32 36 33
f 250 247 249
f 145 147 146
f 329 328 327
f 35 146 148
f 37 36 35
f 250 251 252
f 149 147 150
f 331 330 329
f 151 37 149
f 40 39 38
f 252 253 254
f 152 150 153
f 333 332 331
f 154 40 152
f 41 44 42
f 256 253 255
f 154 155 156
f 335 334 333
f 45 44 43
f 258 255 257
f 157 155 158
f 337 336 335
f 159 45 157
f 46 50 47
f 258 259 260
f 159 161 160
f 337 340 338
f 162 48 160
f 49 53 50
f 262 259 261
f 163 161 164
f 339 342 340
f 52 163 165
f 54 53 52
f 262 263 264
f 166 164 167
f 341 344 342
f 55 166 168
f 55 58 56
f 266 263 265
f 168 169 170
f 343 346 344
f 59 58 57
f 266 267 268
f 171 169 172
f 345 348 346
f 60 171 173
f 60 64 61
f 270 267 269
f 173 175 174
f 349 348 347
f 63 174 176
f 65 64 63
f 270 271 272
f 177 175 178
f 351 350 349
f 179 65 177
f 68 67 66
f 274 271 273
f 180 178 181
f 353 352 351
f 69 180 182
f 69 72 70
f 276 273 275
f 182 183 184
f 355 354 353
f 73 72 71
f 276 277 278
f 185 183 186
f 357 356 355
f 74 185 187
f 74 78 75
f 280 277 279
f 187 189 188
f 359 358 357
f 77 188 190
f 79 78 77
f 282 279 281
f 190 192 191
f 361 360 359
f 193 79 191
f 82 81 80
f 282 283 284
f 194 192 195
f 361 364 362
f 196 82 194
f 83 86 84
f 286 283 285
f 196 197 198
f 363 366 364
f 87 86 85
f 286 287 288
f 199 197 200
f 365 368 366
f 201 87 199
f 88 92 89
f 290 287 289
f 201 203 202
f 369 368 367
f 204 90 202
f 93 92 91
f 292 289 291
f 204 206 205
f 369 372 370
f 207 93 205
f 96 95 94
f 292 293 294
f 208 206 209
f 373 372 371
f 210 96 208
f 97 100 98
f 296 293 295
f 210 211 212
f 373 376 374
f 101 100 99
f 296 297 298
f 213 211 214
f 377 376 375
f 102 213 215
f 102 106 103
f 300 297 299
f 215 217 216
f 379 378 377
f 218 104 216
f 107 106 105
f 300 301 302
f 219 217 220
f 381 380 379
f 108 219 221
f 110 109 108
f 302 303 304
f 222 220 223
f 381 384 382
f 111 222 224
f 111 1 112
f 304 226 225
f 224 114 113
f 383 305 384
f 391 387 392
f 386 390 387
f 394 390 389
f 393 396 395
f 391 404 403
f 394 408 395
f 407 404 408
f 397 405 398
f 406 402 407
f 399 402 401
f 397 386 385
f 400 388 401
f 409 416 415
f 412 411 410
f 413 420 414
f 419 416 420
f 427 417 428
f 430 419 418
f 429 432 431
f 421 429 422
f 430 426 431
f 425 422 426
f 421 410 409
f 413 425 424
f 439 435 440
f 434 438 435
f 442 438 437
f 441 444 443
f 439 452 451
f 442 456 443
f 455 452 456
f 445 453 446
f 454 450 455
f 447 450 449
f 445 434 433
f 437 449 448
f 457 464 463
f 460 459 458
f 461 468 462
f 467 464 468
f 475 465 476
f 478 467 466
f 477 480 479
f 475 470 469
f 472 479 478
f 473 470 474
f 457 471 458
f 461 473 472
f 486 481 482
f 484 487 488
f 490 485 486
f 492 487 491
f 494 489 490
f 496 491 495
f 494 497 493
f 500 495 499
f 502 497 498
f 504 499 503
f 506 501 502
f 508 503 507
f 506 509 505
f 508 511 512
f 514 509 510
f 516 511 515
f 514 517 513
f 516 519 520
f 522 517 518
f 520 523 524
f 522 525 521
f 524 527 528
f 526 529 525
f 528 531 532
f 534 529 530
f 536 531 535
f 538 533 534
f 536 539 540
f 538 541 537
f 544 539 543
f 482 541 542
f 484 543 483
f 112 226 303
f 5 226 1
f 115 2 113
f 113 111 224
f 117 6 4
f 5 229 227
f 120 9 7
f 8 231 229
f 124 10 123
f 14 231 11
f 128 13 126
f 14 235 233
f 128 17 15
f 19 235 16
f 131 20 18
f 19 239 237
f 135 21 134
f 25 239 22
f 138 24 137
f 28 241 25
f 140 29 27
f 28 245 243
f 143 29 142
f 33 245 30
f 146 32 145
f 33 249 247
f 149 35 148
f 39 249 36
f 151 40 38
f 42 251 39
f 156 41 154
f 42 255 253
f 156 45 43
f 47 255 44
f 160 46 159
f 47 259 257
f 162 51 49
f 50 261 259
f 166 52 165
f 56 261 53
f 168 57 55
f 56 265 263
f 170 59 57
f 61 265 58
f 173 62 60
f 61 269 267
f 177 63 176
f 64 271 269
f 179 68 66
f 70 271 67
f 184 69 182
f 70 275 273
f 184 73 71
f 75 275 72
f 187 76 74
f 75 279 277
f 190 79 77
f 81 279 78
f 194 80 193
f 84 281 81
f 198 83 196
f 84 285 283
f 199 85 198
f 89 285 86
f 202 88 201
f 89 289 287
f 205 91 204
f 95 289 92
f 207 96 94
f 98 291 95
f 210 99 97
f 98 295 293
f 212 101 99
f 103 295 100
f 216 102 215
f 103 299 297
f 218 107 105
f 106 301 299
f 222 108 221
f 112 301 109
f 116 305 308
f 223 305 114
f 116 310 119
f 119 312 122
f 125 312 314
f 125 316 127
f 130 316 318
f 130 320 133
f 136 320 322
f 139 322 324
f 139 326 141
f 144 326 328
f 144 330 147
f 150 330 332
f 153 332 334
f 153 336 155
f 158 336 338
f 158 340 161
f 161 342 164
f 167 342 344
f 167 346 169
f 172 346 348
f 172 350 175
f 175 352 178
f 181 352 354
f 181 356 183
f 186 356 358
f 186 360 189
f 192 360 362
f 195 362 364
f 195 366 197
f 200 366 368
f 200 370 203
f 206 370 372
f 209 372 374
f 209 376 211
f 214 376 378
f 214 380 217
f 217 382 220
f 223 382 384
f 225 307 306
f 225 383 304
f 228 309 307
f 230 311 309
f 232 313 311
f 236 313 234
f 238 315 236
f 240 317 238
f 242 319 240
f 244 321 242
f 246 323 244
f 246 327 325
f 248 329 327
f 250 331 329
f 254 331 252
f 256 333 254
f 258 335 256
f 258 339 337
f 260 341 339
f 264 341 262
f 266 343 264
f 268 345 266
f 270 347 268
f 270 351 349
f 272 353 351
f 274 355 353
f 276 357 355
f 278 359 357
f 280 361 359
f 284 361 282
f 286 363 284
f 288 365 286
f 290 367 288
f 292 369 290
f 292 373 371
f 294 375 373
f 296 377 375
f 298 379 377
f 302 379 300
f 302 383 381
f 391 397 385
f 387 396 392
f 399 388 386
f 394 400 406
f 395 404 393
f 407 398 405
f 427 409 415
f 411 420 416
f 425 410 423
f 430 413 424
f 417 432 428
f 429 426 422
f 439 445 433
f 435 444 440
f 449 434 447
f 442 448 454
f 441 456 452
f 453 450 446
f 475 457 463
f 459 468 464
f 471 460 458
f 478 461 472
f 467 476 465
f 477 474 470
f 493 509 525
f 482 488 486
f 544 482 542
f 539 523 507
f 486 492 490
f 492 494 490
f 494 500 498
f 500 502 498
f 504 506 502
f 506 512 510
f 512 514 510
f 514 520 518
f 520 522 518
f 522 528 526
f 526 532 530
f 532 534 530
f 534 540 538
f 538 544 542
f 3 5 1
f 225 226 227
f 115 113 114
f 306 307 308
f 4 3 115
f 4 6 8
f 230 228 227
f 117 116 119
f 307 309 310
f 120 7 6
f 9 11 8
f 232 230 229
f 121 120 119
f 309 311 312
f 10 9 121
f 12 14 11
f 232 231 233
f 124 123 122
f 313 314 312
f 126 13 12
f 13 15 16
f 236 234 233
f 126 125 127
f 313 315 316
f 17 19 16
f 238 236 235
f 129 128 127
f 317 318 316
f 18 17 129
f 18 20 22
f 240 238 237
f 131 130 133
f 319 320 318
f 134 21 20
f 21 23 25
f 240 239 241
f 134 133 136
f 321 322 320
f 137 24 23
f 26 28 25
f 244 242 241
f 138 137 136
f 321 323 324
f 27 26 138
f 27 29 30
f 244 243 245
f 140 139 141
f 325 326 324
f 31 33 30
f 246 245 247
f 143 142 141
f 325 327 328
f 32 31 143
f 32 34 36
f 250 248 247
f 145 144 147
f 329 330 328
f 35 34 146
f 37 39 36
f 250 249 251
f 149 148 147
f 331 332 330
f 151 38 37
f 40 42 39
f 252 251 253
f 152 151 150
f 333 334 332
f 154 41 40
f 41 43 44
f 256 254 253
f 154 153 155
f 335 336 334
f 45 47 44
f 258 256 255
f 157 156 155
f 337 338 336
f 159 46 45
f 46 48 50
f 258 257 259
f 159 158 161
f 337 339 340
f 162 49 48
f 49 51 53
f 262 260 259
f 163 162 161
f 339 341 342
f 52 51 163
f 54 56 53
f 262 261 263
f 166 165 164
f 341 343 344
f 55 54 166
f 55 57 58
f 266 264 263
f 168 167 169
f 343 345 346
f 59 61 58
f 266 265 267
f 171 170 169
f 345 347 348
f 60 59 171
f 60 62 64
f 270 268 267
f 173 172 175
f 349 350 348
f 63 62 174
f 65 67 64
f 270 269 271
f 177 176 175
f 351 352 350
f 179 66 65
f 68 70 67
f 274 272 271
f 180 179 178
f 353 354 352
f 69 68 180
f 69 71 72
f 276 274 273
f 182 181 183
f 355 356 354
f 73 75 72
f 276 275 277
f 185 184 183
f 357 358 356
f 74 73 185
f 74 76 78
f 280 278 277
f 187 186 189
f 359 360 358
f 77 76 188
f 79 81 78
f 282 280 279
f 190 189 192
f 361 362 360
f 193 80 79
f 82 84 81
f 282 281 283
f 194 193 192
f 361 363 364
f 196 83 82
f 83 85 86
f 286 284 283
f 196 195 197
f 363 365 366
f 87 89 86
f 286 285 287
f 199 198 197
f 365 367 368
f 201 88 87
f 88 90 92
f 290 288 287
f 201 200 203
f 369 370 368
f 204 91 90
f 93 95 92
f 292 290 289
f 204 203 206
f 369 371 372
f 207 94 93
f 96 98 95
f 292 291 293
f 208 207 206
f 373 374 372
f 210 97 96
f 97 99 100
f 296 294 293
f 210 209 211
f 373 375 376
f 101 103 100
f 296 295 297
f 213 212 211
f 377 378 376
f 102 101 213
f 102 104 106
f 300 298 297
f 215 214 217
f 379 380 378
f 218 105 104
f 107 109 106
f 300 299 301
f 219 218 217
f 381 382 380
f 108 107 219
f 110 112 109
f 302 301 303
f 222 221 220
f 381 383 384
f 111 110 222
f 111 2 1
f 304 303 226
f 224 223 114
f 383 306 305
f 391 385 387
f 386 388 390
f 394 396 390
f 393 392 396
f 391 393 404
f 394 406 408
f 407 405 404
f 397 403 405
f 406 400 402
f 399 398 402
f 397 399 386
f 400 389 388
f 409 411 416
f 412 414 411
f 413 418 420
f 419 417 416
f 427 415 417
f 430 432 419
f 429 428 432
f 421 427 429
f 430 424 426
f 425 423 422
f 421 423 410
f 413 412 425
f 439 433 435
f 434 436 438
f 442 444 438
f 441 440 444
f 439 441 452
f 442 454 456
f 455 453 452
f 445 451 453
f 454 448 450
f 447 446 450
f 445 447 434
f 437 436 449
f 457 459 464
f 460 462 459
f 461 466 468
f 467 465 464
f 475 463 465
f 478 480 467
f 477 476 480
f 475 477 470
f 472 474 479
f 473 471 470
f 457 469 471
f 461 460 473
f 486 485 481
f 484 483 487
f 490 489 485
f 492 488 487
f 494 493 489
f 496 492 491
f 494 498 497
f 500 496 495
f 502 501 497
f 504 500 499
f 506 505 501
f 508 504 503
f 506 510 509
f 508 507 511
f 514 513 509
f 516 512 511
f 514 518 517
f 516 515 519
f 522 521 517
f 520 519 523
f 522 526 525
f 524 523 527
f 526 530 529
f 528 527 531
f 534 533 529
f 536 532 531
f 538 537 533
f 536 535 539
f 538 542 541
f 544 540 539
f 482 481 541
f 484 544 543
f 112 1 226
f 5 227 226
f 115 3 2
f 113 2 111
f 117 118 6
f 5 8 229
f 120 121 9
f 8 11 231
f 124 12 10
f 14 233 231
f 128 15 13
f 14 16 235
f 128 129 17
f 19 237 235
f 131 132 20
f 19 22 239
f 135 23 21
f 25 241 239
f 138 26 24
f 28 243 241
f 140 142 29
f 28 30 245
f 143 31 29
f 33 247 245
f 146 34 32
f 33 36 249
f 149 37 35
f 39 251 249
f 151 152 40
f 42 253 251
f 156 43 41
f 42 44 255
f 156 157 45
f 47 257 255
f 160 48 46
f 47 50 259
f 162 163 51
f 50 53 261
f 166 54 52
f 56 263 261
f 168 170 57
f 56 58 265
f 170 171 59
f 61 267 265
f 173 174 62
f 61 64 269
f 177 65 63
f 64 67 271
f 179 180 68
f 70 273 271
f 184 71 69
f 70 72 275
f 184 185 73
f 75 277 275
f 187 188 76
f 75 78 279
f 190 191 79
f 81 281 279
f 194 82 80
f 84 283 281
f 198 85 83
f 84 86 285
f 199 87 85
f 89 287 285
f 202 90 88
f 89 92 289
f 205 93 91
f 95 291 289
f 207 208 96
f 98 293 291
f 210 212 99
f 98 100 295
f 212 213 101
f 103 297 295
f 216 104 102
f 103 106 299
f 218 219 107
f 106 109 301
f 222 110 108
f 112 303 301
f 116 114 305
f 223 384 305
f 116 308 310
f 119 310 312
f 125 122 312
f 125 314 316
f 130 127 316
f 130 318 320
f 136 133 320
f 139 136 322
f 139 324 326
f 144 141 326
f 144 328 330
f 150 147 330
f 153 150 332
f 153 334 336
f 158 155 336
f 158 338 340
f 161 340 342
f 167 164 342
f 167 344 346
f 172 169 346
f 172 348 350
f 175 350 352
f 181 178 352
f 181 354 356
f 186 183 356
f 186 358 360
f 192 189 360
f 195 192 362
f 195 364 366
f 200 197 366
f 200 368 370
f 206 203 370
f 209 206 372
f 209 374 376
f 214 211 376
f 214 378 380
f 217 380 382
f 223 220 382
f 225 228 307
f 225 306 383
f 228 230 309
f 230 232 311
f 232 234 313
f 236 315 313
f 238 317 315
f 240 319 317
f 242 321 319
f 244 323 321
f 246 325 323
f 246 248 327
f 248 250 329
f 250 252 331
f 254 333 331
f 256 335 333
f 258 337 335
f 258 260 339
f 260 262 341
f 264 343 341
f 266 345 343
f 268 347 345
f 270 349 347
f 270 272 351
f 272 274 353
f 274 276 355
f 276 278 357
f 278 280 359
f 280 282 361
f 284 363 361
f 286 365 363
f 288 367 365
f 290 369 367
f 292 371 369
f 292 294 373
f 294 296 375
f 296 298 377
f 298 300 379
f 302 381 379
f 302 304 383
f 391 403 397
f 387 390 396
f 399 401 388
f 394 389 400
f 395 408 404
f 407 402 398
f 427 421 409
f 411 414 420
f 425 412 410
f 430 418 413
f 417 419 432
f 429 431 426
f 439 451 445
f 435 438 444
f 449 436 434
f 442 437 448
f 441 443 456
f 453 455 450
f 475 469 457
f 459 462 468
f 471 473 460
f 478 466 461
f 467 480 476
f 477 479 474
f 541 481 485
f 485 489 541
f 489 493 541
f 493 497 501
f 501 505 493
f 505 509 493
f 509 513 517
f 517 521 509
f 521 525 509
f 525 529 533
f 533 537 525
f 537 541 525
f 541 493 525
f 482 484 488
f 544 484 482
f 491 487 483
f 483 543 539
f 539 535 531
f 531 527 523
f 523 519 515
f 515 511 507
f 507 503 499
f 499 495 491
f 491 483 539
f 539 531 523
f 523 515 507
f 507 499 491
f 491 539 507
f 486 488 492
f 492 496 494
f 494 496 500
f 500 504 502
f 504 508 506
f 506 508 512
f 512 516 514
f 514 516 520
f 520 524 522
f 522 524 528
f 526 528 532
f 532 536 534
f 534 536 540
f 538 540 544
