# clockwork Gear7_Glow.obj: Roblox cue frame, recentred on its bounding box
v 0.13289 0.03134 0.02148
v 0.13447 0.03192 0.00000
v -0.00855 0.02349 0.02860
v 0.00855 -0.02349 0.02860
v 0.00173 0.02724 0.02642
v 0.01884 -0.01975 0.02642
v 0.01045 0.03041 0.02022
v 0.02755 -0.01658 0.02022
v 0.01628 0.03253 0.01094
v 0.03338 -0.01446 0.01094
v 0.01832 0.03327 0.00000
v 0.03543 -0.01371 0.00000
v 0.01628 0.03253 -0.01094
v 0.03338 -0.01446 -0.01094
v 0.01045 0.03041 -0.02022
v 0.02755 -0.01658 -0.02022
v 0.00173 0.02724 -0.02642
v 0.01884 -0.01975 -0.02642
v -0.00855 0.02349 -0.02860
v 0.00855 -0.02349 -0.02860
v -0.01884 0.01975 -0.02642
v -0.00173 -0.02724 -0.02642
v -0.02755 0.01658 -0.02022
v -0.01045 -0.03041 -0.02022
v -0.03338 0.01446 -0.01094
v -0.01628 -0.03253 -0.01094
v -0.03543 0.01371 0.00000
v -0.01832 -0.03327 0.00000
v -0.03338 0.01446 0.01094
v -0.01628 -0.03253 0.01094
v -0.02755 0.01658 0.02022
v -0.01045 -0.03041 0.02022
v -0.01884 0.01975 0.02642
v -0.00173 -0.02724 0.02642
v 0.12816 0.02962 0.04242
v 0.12041 0.02680 0.06232
v 0.10984 0.02295 0.08069
v 0.09669 0.01817 0.09707
v 0.08130 0.01256 0.11106
v 0.06404 0.00628 0.12232
v 0.04534 -0.00053 0.13056
v 0.02565 -0.00769 0.13559
v 0.00547 -0.01504 0.13728
v -0.01471 -0.02238 0.13559
v -0.03439 -0.02954 0.13056
v -0.05309 -0.03635 0.12232
v -0.07035 -0.04263 0.11106
v -0.08575 -0.04824 0.09707
v -0.09889 -0.05302 0.08069
v -0.10947 -0.05687 0.06232
v -0.11721 -0.05969 0.04242
v -0.12194 -0.06141 0.02148
v -0.12353 -0.06199 0.00000
v -0.12194 -0.06141 -0.02148
v -0.11721 -0.05969 -0.04242
v -0.10947 -0.05687 -0.06232
v -0.09889 -0.05302 -0.08069
v -0.08575 -0.04824 -0.09707
v -0.07035 -0.04263 -0.11106
v -0.05309 -0.03635 -0.12232
v -0.03439 -0.02954 -0.13056
v -0.01471 -0.02238 -0.13559
v 0.00547 -0.01504 -0.13728
v 0.02565 -0.00769 -0.13559
v 0.04534 -0.00053 -0.13056
v 0.06404 0.00628 -0.12232
v 0.08130 0.01256 -0.11106
v 0.09669 0.01817 -0.09707
v 0.10984 0.02295 -0.08069
v 0.12041 0.02680 -0.06232
v 0.12816 0.02962 -0.04242
v 0.13289 0.03134 -0.02148
v 0.15101 0.03794 0.00000
v 0.14922 0.03728 0.02423
v 0.14389 0.03534 0.04786
v 0.13515 0.03216 0.07031
v 0.12322 0.02782 0.09104
v 0.10838 0.02242 0.10952
v 0.09102 0.01610 0.12530
v 0.07155 0.00901 0.13800
v 0.05045 0.00133 0.14730
v 0.02824 -0.00675 0.15297
v 0.00547 -0.01504 0.15488
v -0.01730 -0.02332 0.15297
v -0.03950 -0.03140 0.14730
v -0.06060 -0.03908 0.13800
v -0.08007 -0.04617 0.12530
v -0.09744 -0.05249 0.10952
v -0.11227 -0.05789 0.09104
v -0.12420 -0.06223 0.07031
v -0.13294 -0.06541 0.04786
v -0.13828 -0.06735 0.02423
v -0.14007 -0.06801 0.00000
v -0.13828 -0.06735 -0.02423
v -0.13294 -0.06541 -0.04786
v -0.12420 -0.06223 -0.07031
v -0.11227 -0.05789 -0.09104
v -0.09744 -0.05249 -0.10952
v -0.08007 -0.04617 -0.12530
v -0.06060 -0.03908 -0.13800
v -0.03950 -0.03140 -0.14730
v -0.01730 -0.02332 -0.15297
v 0.00547 -0.01504 -0.15488
v 0.02824 -0.00675 -0.15297
v 0.05045 0.00133 -0.14730
v 0.07155 0.00901 -0.13800
v 0.09102 0.01610 -0.12530
v 0.10838 0.02242 -0.10952
v 0.12322 0.02782 -0.09104
v 0.13515 0.03216 -0.07031
v 0.14389 0.03534 -0.04786
v 0.14922 0.03728 -0.02423
v 0.12353 0.06199 0.00000
v 0.12194 0.06141 0.02148
v 0.11721 0.05969 0.04242
v 0.10947 0.05687 0.06232
v 0.09889 0.05302 0.08069
v 0.08575 0.04824 0.09707
v 0.07035 0.04263 0.11106
v 0.05309 0.03635 0.12232
v 0.03439 0.02954 0.13056
v 0.01471 0.02238 0.13559
v -0.00547 0.01504 0.13728
v -0.02565 0.00769 0.13559
v -0.04534 0.00053 0.13056
v -0.06404 -0.00628 0.12232
v -0.08130 -0.01256 0.11106
v -0.09669 -0.01817 0.09707
v -0.10984 -0.02295 0.08069
v -0.12041 -0.02680 0.06232
v -0.12816 -0.02962 0.04242
v -0.13289 -0.03134 0.02148
v -0.13447 -0.03192 0.00000
v -0.13289 -0.03134 -0.02148
v -0.12816 -0.02962 -0.04242
v -0.12041 -0.02680 -0.06232
v -0.10984 -0.02295 -0.08069
v -0.09669 -0.01817 -0.09707
v -0.08130 -0.01256 -0.11106
v -0.06404 -0.00628 -0.12232
v -0.04534 0.00053 -0.13056
v -0.02565 0.00769 -0.13559
v -0.00547 0.01504 -0.13728
v 0.01471 0.02238 -0.13559
v 0.03439 0.02954 -0.13056
v 0.05309 0.03635 -0.12232
v 0.07035 0.04263 -0.11106
v 0.08575 0.04824 -0.09707
v 0.09889 0.05302 -0.08069
v 0.10947 0.05687 -0.06232
v 0.11721 0.05969 -0.04242
v 0.12194 0.06141 -0.02148
v 0.14007 0.06801 0.00000
v 0.13828 0.06735 0.02423
v 0.13294 0.06541 0.04786
v 0.12420 0.06223 0.07031
v 0.11227 0.05789 0.09104
v 0.09744 0.05249 0.10952
v 0.08007 0.04617 0.12530
v 0.06060 0.03908 0.13800
v 0.03950 0.03140 0.14730
v 0.01730 0.02332 0.15297
v -0.00547 0.01504 0.15488
v -0.02824 0.00675 0.15297
v -0.05045 -0.00133 0.14730
v -0.07155 -0.00901 0.13800
v -0.09102 -0.01610 0.12530
v -0.10838 -0.02242 0.10952
v -0.12322 -0.02782 0.09104
v -0.13515 -0.03216 0.07031
v -0.14389 -0.03534 0.04786
v -0.14922 -0.03728 0.02423
v -0.15101 -0.03794 0.00000
v -0.14922 -0.03728 -0.02423
v -0.14389 -0.03534 -0.04786
v -0.13515 -0.03216 -0.07031
v -0.12322 -0.02782 -0.09104
v -0.10838 -0.02242 -0.10952
v -0.09102 -0.01610 -0.12530
v -0.07155 -0.00901 -0.13800
v -0.05045 -0.00133 -0.14730
v -0.02824 0.00675 -0.15297
v -0.00547 0.01504 -0.15488
v 0.01730 0.02332 -0.15297
v 0.03950 0.03140 -0.14730
v 0.06060 0.03908 -0.13800
v 0.08007 0.04617 -0.12530
v 0.09744 0.05249 -0.10952
v 0.11227 0.05789 -0.09104
v 0.12420 0.06223 -0.07031
v 0.13294 0.06541 -0.04786
v 0.13828 0.06735 -0.02423
f 62 103 102
f 48 87 47
f 4 5 3
f 64 103 63
f 47 86 46
f 5 8 7
f 61 100 60
f 45 86 85
f 7 10 9
f 59 100 99
f 44 85 84
f 9 12 11
f 58 99 98
f 44 83 43
f 12 13 11
f 57 98 97
f 42 83 82
f 14 15 13
f 56 97 96
f 42 81 41
f 16 17 15
f 55 96 95
f 41 80 40
f 18 19 17
f 55 94 54
f 39 80 79
f 19 22 21
f 53 94 93
f 38 79 78
f 21 24 23
f 53 92 52
f 37 78 77
f 24 25 23
f 51 92 91
f 36 77 76
f 26 27 25
f 51 90 50
f 35 76 75
f 27 30 29
f 50 89 49
f 35 74 1
f 29 32 31
f 24 16 8
f 2 74 73
f 31 34 33
f 62 101 61
f 49 88 48
f 33 4 3
f 17 25 33
f 64 105 104
f 65 106 105
f 67 106 66
f 68 107 67
f 69 108 68
f 70 109 69
f 71 110 70
f 71 112 111
f 2 112 72
f 153 114 113
f 154 115 114
f 156 115 155
f 157 116 156
f 158 117 157
f 159 118 158
f 160 119 159
f 160 121 120
f 161 122 121
f 163 122 162
f 163 124 123
f 165 124 164
f 166 125 165
f 166 127 126
f 167 128 127
f 168 129 128
f 169 130 129
f 170 131 130
f 172 131 171
f 172 133 132
f 174 133 173
f 174 135 134
f 176 135 175
f 177 136 176
f 178 137 177
f 179 138 178
f 180 139 179
f 180 141 140
f 181 142 141
f 183 142 182
f 183 144 143
f 185 144 184
f 186 145 185
f 186 147 146
f 187 148 147
f 188 149 148
f 189 150 149
f 190 151 150
f 192 151 191
f 153 152 192
f 62 63 103
f 48 88 87
f 4 6 5
f 64 104 103
f 47 87 86
f 5 6 8
f 61 101 100
f 45 46 86
f 7 8 10
f 59 60 100
f 44 45 85
f 9 10 12
f 58 59 99
f 44 84 83
f 12 14 13
f 57 58 98
f 42 43 83
f 14 16 15
f 56 57 97
f 42 82 81
f 16 18 17
f 55 56 96
f 41 81 80
f 18 20 19
f 55 95 94
f 39 40 80
f 19 20 22
f 53 54 94
f 38 39 79
f 21 22 24
f 53 93 92
f 37 38 78
f 24 26 25
f 51 52 92
f 36 37 77
f 26 28 27
f 51 91 90
f 35 36 76
f 27 28 30
f 50 90 89
f 35 75 74
f 29 30 32
f 8 6 4
f 4 34 8
f 34 32 8
f 32 30 28
f 28 26 24
f 24 22 16
f 22 20 16
f 20 18 16
f 16 14 12
f 12 10 8
f 32 28 24
f 16 12 8
f 8 32 24
f 2 1 74
f 31 32 34
f 62 102 101
f 49 89 88
f 33 34 4
f 33 3 5
f 5 7 33
f 7 9 33
f 9 11 13
f 13 15 9
f 15 17 9
f 17 19 21
f 21 23 17
f 23 25 17
f 25 27 29
f 29 31 25
f 31 33 25
f 33 9 17
f 64 65 105
f 65 66 106
f 67 107 106
f 68 108 107
f 69 109 108
f 70 110 109
f 71 111 110
f 71 72 112
f 2 73 112
f 153 154 114
f 154 155 115
f 156 116 115
f 157 117 116
f 158 118 117
f 159 119 118
f 160 120 119
f 160 161 121
f 161 162 122
f 163 123 122
f 163 164 124
f 165 125 124
f 166 126 125
f 166 167 127
f 167 168 128
f 168 169 129
f 169 170 130
f 170 171 131
f 172 132 131
f 172 173 133
f 174 134 133
f 174 175 135
f 176 136 135
f 177 137 136
f 178 138 137
f 179 139 138
f 180 140 139
f 180 181 141
f 181 182 142
f 183 143 142
f 183 184 144
f 185 145 144
f 186 146 145
f 186 187 147
f 187 188 148
f 188 189 149
f 189 190 150
f 190 191 151
f 192 152 151
f 153 113 152
