# clockwork Gear4_Brass.obj: Roblox cue frame, recentred on its bounding box
v 0.02970 -0.09681 0.00000
v 0.03444 -0.09869 0.00000
v 0.03391 -0.09756 0.01439
v 0.03498 -0.09987 0.01992
v 0.02906 -0.09545 0.01724
v 0.04227 -0.11550 0.03227
v 0.04293 -0.11691 0.03756
v 0.03845 -0.11559 0.03311
v 0.03958 -0.10973 0.05758
v 0.03757 -0.10542 0.06037
v 0.03417 -0.10641 0.05871
v 0.02869 -0.08636 0.05756
v 0.02629 -0.08121 0.05981
v 0.02273 -0.08188 0.05506
v 0.02156 -0.07109 0.07354
v 0.01728 -0.07019 0.07091
v 0.01689 -0.06106 0.08284
v 0.01600 -0.05915 0.08854
v 0.01168 -0.05818 0.08204
v 0.01746 -0.06229 0.10947
v 0.01635 -0.05990 0.11431
v 0.01358 -0.06225 0.10898
v 0.00800 -0.04199 0.12286
v 0.00574 -0.03715 0.12147
v 0.00290 -0.03935 0.11992
v 0.00030 -0.02548 0.10462
v -0.00207 -0.02040 0.10220
v -0.00409 -0.02435 0.09820
v -0.00952 -0.00444 0.10400
v -0.01269 -0.00592 0.10029
v -0.01560 0.00861 0.10275
v -0.01793 0.01361 0.10530
v -0.01997 0.00971 0.09879
v -0.02315 0.02481 0.12255
v -0.02539 0.02960 0.12410
v -0.02668 0.02409 0.12102
v -0.03385 0.04774 0.11618
v -0.03503 0.05027 0.11142
v -0.03750 0.04729 0.11088
v -0.03384 0.04773 0.09039
v -0.03479 0.04977 0.08471
v -0.03596 0.04398 0.08381
v -0.04060 0.06221 0.07354
v -0.04266 0.05835 0.07091
v -0.04452 0.07064 0.06248
v -0.04694 0.07581 0.06037
v -0.04736 0.06844 0.05766
v -0.05578 0.09478 0.06384
v -0.05783 0.09916 0.06120
v -0.05875 0.09285 0.06216
v -0.06144 0.10691 0.04144
v -0.06085 0.10565 0.03610
v -0.06337 0.10276 0.03689
v -0.05373 0.09038 0.02322
v -0.05271 0.08818 0.01761
v -0.05419 0.08308 0.02034
v -0.05347 0.08982 0.00000
v -0.05507 0.08497 0.00000
v -0.05294 0.08869 -0.01439
v -0.05402 0.09099 -0.01992
v -0.05444 0.08361 -0.01724
v -0.06131 0.10663 -0.03227
v -0.06196 0.10804 -0.03756
v -0.06383 0.10376 -0.03311
v -0.05862 0.10086 -0.05758
v -0.05660 0.09654 -0.06037
v -0.05955 0.09457 -0.05871
v -0.04772 0.07749 -0.05756
v -0.04532 0.07234 -0.05981
v -0.04811 0.07005 -0.05506
v -0.04060 0.06221 -0.07354
v -0.04266 0.05835 -0.07091
v -0.03592 0.05219 -0.08284
v -0.03503 0.05028 -0.08854
v -0.03706 0.04634 -0.08204
v -0.03650 0.05342 -0.10947
v -0.03538 0.05103 -0.11431
v -0.03896 0.05042 -0.10898
v -0.02703 0.03312 -0.12286
v -0.02477 0.02828 -0.12147
v -0.02828 0.02752 -0.11992
v -0.01933 0.01660 -0.10462
v -0.01696 0.01152 -0.10220
v -0.02128 0.01251 -0.09820
v -0.00952 -0.00444 -0.10400
v -0.01269 -0.00592 -0.10029
v -0.00343 -0.01748 -0.10275
v -0.00110 -0.02249 -0.10530
v -0.00540 -0.02154 -0.09879
v 0.00412 -0.03368 -0.12255
v 0.00636 -0.03848 -0.12410
v 0.00130 -0.03592 -0.12102
v 0.01482 -0.05662 -0.11618
v 0.01600 -0.05915 -0.11142
v 0.01212 -0.05912 -0.11088
v 0.01481 -0.05661 -0.09039
v 0.01576 -0.05865 -0.08471
v 0.01058 -0.05581 -0.08381
v 0.02156 -0.07109 -0.07354
v 0.01728 -0.07019 -0.07091
v 0.02549 -0.07951 -0.06248
v 0.02790 -0.08468 -0.06037
v 0.02199 -0.08027 -0.05766
v 0.03675 -0.10365 -0.06384
v 0.03879 -0.10804 -0.06120
v 0.03337 -0.10469 -0.06216
v 0.04241 -0.11579 -0.04144
v 0.04182 -0.11453 -0.03610
v 0.03799 -0.11460 -0.03689
v 0.03470 -0.09926 -0.02322
v 0.03367 -0.09706 -0.01761
v 0.02881 -0.09491 -0.02034
v 0.05347 -0.08982 0.00000
v 0.05507 -0.08497 0.00000
v 0.05294 -0.08869 0.01439
v 0.05444 -0.08361 0.01724
v 0.05402 -0.09099 0.01992
v 0.06131 -0.10663 0.03227
v 0.06383 -0.10376 0.03311
v 0.06196 -0.10804 0.03756
v 0.05862 -0.10086 0.05758
v 0.05955 -0.09457 0.05871
v 0.05660 -0.09654 0.06037
v 0.04772 -0.07749 0.05756
v 0.04811 -0.07005 0.05506
v 0.04532 -0.07234 0.05981
v 0.04266 -0.05835 0.07091
v 0.04060 -0.06221 0.07354
v 0.03592 -0.05219 0.08284
v 0.03706 -0.04634 0.08204
v 0.03503 -0.05028 0.08854
v 0.03650 -0.05342 0.10947
v 0.03896 -0.05042 0.10898
v 0.03538 -0.05103 0.11431
v 0.02703 -0.03312 0.12286
v 0.02828 -0.02752 0.11992
v 0.02477 -0.02828 0.12147
v 0.01933 -0.01660 0.10462
v 0.02128 -0.01251 0.09820
v 0.01696 -0.01152 0.10220
v 0.01269 0.00592 0.10029
v 0.00952 0.00444 0.10400
v 0.00343 0.01748 0.10275
v 0.00540 0.02154 0.09879
v 0.00110 0.02249 0.10530
v -0.00412 0.03368 0.12255
v -0.00130 0.03592 0.12102
v -0.00636 0.03848 0.12410
v -0.01482 0.05662 0.11618
v -0.01212 0.05912 0.11088
v -0.01600 0.05915 0.11142
v -0.01481 0.05661 0.09039
v -0.01058 0.05581 0.08381
v -0.01576 0.05865 0.08471
v -0.01728 0.07019 0.07091
v -0.02156 0.07109 0.07354
v -0.02549 0.07951 0.06248
v -0.02199 0.08027 0.05766
v -0.02790 0.08468 0.06037
v -0.03675 0.10365 0.06384
v -0.03337 0.10469 0.06216
v -0.03879 0.10804 0.06120
v -0.04241 0.11579 0.04144
v -0.03799 0.11460 0.03689
v -0.04182 0.11453 0.03610
v -0.03470 0.09926 0.02322
v -0.02881 0.09491 0.02034
v -0.03367 0.09706 0.01761
v -0.02970 0.09681 0.00000
v -0.03444 0.09869 0.00000
v -0.03391 0.09756 -0.01439
v -0.02906 0.09545 -0.01724
v -0.03498 0.09987 -0.01992
v -0.04227 0.11550 -0.03227
v -0.03845 0.11559 -0.03311
v -0.04293 0.11691 -0.03756
v -0.03958 0.10973 -0.05758
v -0.03417 0.10641 -0.05871
v -0.03757 0.10542 -0.06037
v -0.02869 0.08636 -0.05756
v -0.02273 0.08188 -0.05506
v -0.02629 0.08121 -0.05981
v -0.01728 0.07019 -0.07091
v -0.02156 0.07109 -0.07354
v -0.01689 0.06106 -0.08284
v -0.01168 0.05818 -0.08204
v -0.01600 0.05915 -0.08854
v -0.01746 0.06229 -0.10947
v -0.01358 0.06225 -0.10898
v -0.01635 0.05990 -0.11431
v -0.00800 0.04199 -0.12286
v -0.00290 0.03935 -0.11992
v -0.00574 0.03715 -0.12147
v -0.00030 0.02548 -0.10462
v 0.00409 0.02435 -0.09820
v 0.00207 0.02040 -0.10220
v 0.01269 0.00592 -0.10029
v 0.00952 0.00444 -0.10400
v 0.01560 -0.00861 -0.10275
v 0.01997 -0.00971 -0.09879
v 0.01793 -0.01361 -0.10530
v 0.02315 -0.02481 -0.12255
v 0.02668 -0.02409 -0.12102
v 0.02539 -0.02960 -0.12410
v 0.03385 -0.04774 -0.11618
v 0.03750 -0.04729 -0.11088
v 0.03503 -0.05027 -0.11142
v 0.03384 -0.04773 -0.09039
v 0.03596 -0.04398 -0.08381
v 0.03479 -0.04977 -0.08471
v 0.04266 -0.05835 -0.07091
v 0.04060 -0.06221 -0.07354
v 0.04452 -0.07064 -0.06248
v 0.04736 -0.06844 -0.05766
v 0.04694 -0.07581 -0.06037
v 0.05578 -0.09478 -0.06384
v 0.05875 -0.09285 -0.06216
v 0.05783 -0.09916 -0.06120
v 0.06144 -0.10691 -0.04144
v 0.06337 -0.10276 -0.03689
v 0.06085 -0.10565 -0.03610
v 0.05373 -0.09038 -0.02322
v 0.05419 -0.08308 -0.02034
v 0.05271 -0.08818 -0.01761
v 0.02301 -0.07419 0.00000
v 0.02132 -0.07885 0.00000
v 0.02081 -0.07776 0.01384
v 0.02252 -0.07315 0.01323
v 0.02012 -0.07626 0.02123
v 0.02186 -0.07171 0.02031
v 0.01737 -0.07037 0.03766
v 0.01923 -0.06608 0.03601
v 0.01574 -0.06687 0.04418
v 0.01767 -0.06273 0.04225
v 0.01136 -0.05749 0.05690
v 0.01348 -0.05376 0.05442
v 0.00687 -0.04785 0.06584
v 0.00919 -0.04454 0.06296
v 0.00416 -0.04205 0.06990
v 0.00660 -0.03900 0.06685
v -0.00269 -0.02736 0.07691
v 0.00005 -0.02495 0.07356
v -0.00579 -0.02071 0.07880
v -0.00292 -0.01858 0.07536
v -0.01269 -0.00592 0.08047
v -0.00952 -0.00444 0.07696
v -0.01854 0.00662 0.07927
v -0.01511 0.00755 0.07581
v -0.02166 0.01333 0.07762
v -0.01810 0.01397 0.07423
v -0.02860 0.02821 0.07112
v -0.02474 0.02820 0.06801
v -0.03136 0.03412 0.06726
v -0.02737 0.03386 0.06432
v -0.03674 0.04565 0.05690
v -0.03251 0.04488 0.05442
v -0.04051 0.05375 0.04627
v -0.03613 0.05263 0.04425
v -0.04223 0.05743 0.03987
v -0.03777 0.05615 0.03813
v -0.04519 0.06379 0.02366
v -0.04060 0.06223 0.02263
v -0.04599 0.06550 0.01632
v -0.04137 0.06386 0.01561
v -0.04670 0.06702 0.00000
v -0.04204 0.06531 0.00000
v -0.04619 0.06593 -0.01384
v -0.04156 0.06427 -0.01323
v -0.04549 0.06443 -0.02123
v -0.04089 0.06284 -0.02031
v -0.04274 0.05854 -0.03766
v -0.03826 0.05720 -0.03601
v -0.04111 0.05504 -0.04418
v -0.03670 0.05386 -0.04225
v -0.03674 0.04565 -0.05690
v -0.03251 0.04488 -0.05442
v -0.03224 0.03602 -0.06584
v -0.02822 0.03567 -0.06296
v -0.02954 0.03022 -0.06990
v -0.02563 0.03012 -0.06685
v -0.02269 0.01553 -0.07691
v -0.01908 0.01607 -0.07356
v -0.01958 0.00887 -0.07880
v -0.01611 0.00971 -0.07536
v -0.01269 -0.00592 -0.08047
v -0.00952 -0.00444 -0.07696
v -0.00684 -0.01846 -0.07927
v -0.00392 -0.01643 -0.07581
v -0.00371 -0.02516 -0.07762
v -0.00093 -0.02284 -0.07423
v 0.00323 -0.04004 -0.07112
v 0.00570 -0.03708 -0.06801
v 0.00598 -0.04596 -0.06726
v 0.00834 -0.04273 -0.06432
v 0.01136 -0.05749 -0.05690
v 0.01348 -0.05376 -0.05442
v 0.01514 -0.06559 -0.04627
v 0.01709 -0.06150 -0.04425
v 0.01685 -0.06927 -0.03987
v 0.01874 -0.06502 -0.03813
v 0.01982 -0.07562 -0.02366
v 0.02157 -0.07110 -0.02263
v 0.02061 -0.07733 -0.01632
v 0.02233 -0.07274 -0.01561
v 0.04670 -0.06702 0.00000
v 0.04204 -0.06531 0.00000
v 0.04156 -0.06427 0.01323
v 0.04619 -0.06593 0.01384
v 0.04089 -0.06284 0.02031
v 0.04549 -0.06443 0.02123
v 0.03826 -0.05720 0.03601
v 0.04274 -0.05854 0.03766
v 0.03670 -0.05386 0.04225
v 0.04111 -0.05504 0.04418
v 0.03251 -0.04488 0.05442
v 0.03674 -0.04565 0.05690
v 0.02822 -0.03567 0.06296
v 0.03224 -0.03602 0.06584
v 0.02563 -0.03012 0.06685
v 0.02954 -0.03022 0.06990
v 0.01908 -0.01607 0.07356
v 0.02269 -0.01553 0.07691
v 0.01611 -0.00971 0.07536
v 0.01958 -0.00887 0.07880
v 0.00952 0.00444 0.07696
v 0.01269 0.00592 0.08047
v 0.00392 0.01643 0.07581
v 0.00684 0.01846 0.07927
v 0.00093 0.02284 0.07423
v 0.00371 0.02516 0.07762
v -0.00570 0.03708 0.06801
v -0.00323 0.04004 0.07112
v -0.00834 0.04273 0.06432
v -0.00598 0.04596 0.06726
v -0.01348 0.05376 0.05442
v -0.01136 0.05749 0.05690
v -0.01709 0.06150 0.04425
v -0.01514 0.06559 0.04627
v -0.01874 0.06502 0.03813
v -0.01685 0.06927 0.03987
v -0.02157 0.07110 0.02263
v -0.01982 0.07563 0.02366
v -0.02233 0.07274 0.01561
v -0.02061 0.07733 0.01632
v -0.02301 0.07419 0.00000
v -0.02132 0.07885 0.00000
v -0.02252 0.07315 -0.01323
v -0.02081 0.07776 -0.01384
v -0.02186 0.07171 -0.02031
v -0.02012 0.07626 -0.02123
v -0.01923 0.06608 -0.03601
v -0.01737 0.07037 -0.03766
v -0.01767 0.06273 -0.04225
v -0.01574 0.06687 -0.04418
v -0.01348 0.05376 -0.05442
v -0.01136 0.05749 -0.05690
v -0.00919 0.04454 -0.06296
v -0.00687 0.04785 -0.06584
v -0.00660 0.03900 -0.06685
v -0.00416 0.04205 -0.06990
v -0.00005 0.02495 -0.07356
v 0.00269 0.02736 -0.07691
v 0.00292 0.01858 -0.07536
v 0.00579 0.02071 -0.07880
v 0.00952 0.00444 -0.07696
v 0.01269 0.00592 -0.08047
v 0.01511 -0.00755 -0.07581
v 0.01854 -0.00662 -0.07927
v 0.01810 -0.01397 -0.07423
v 0.02166 -0.01333 -0.07762
v 0.02474 -0.02820 -0.06801
v 0.02860 -0.02821 -0.07112
v 0.02737 -0.03386 -0.06432
v 0.03136 -0.03412 -0.06726
v 0.03251 -0.04488 -0.05442
v 0.03674 -0.04565 -0.05690
v 0.03613 -0.05263 -0.04425
v 0.04051 -0.05375 -0.04627
v 0.03777 -0.05615 -0.03813
v 0.04223 -0.05743 -0.03987
v 0.04060 -0.06223 -0.02263
v 0.04519 -0.06379 -0.02366
v 0.04137 -0.06386 -0.01561
v 0.04599 -0.06550 -0.01632
v 0.01749 -0.01432 0.01428
v 0.01536 -0.01804 0.01181
v 0.01327 -0.01355 0.01181
v 0.00394 -0.02336 0.01181
v -0.00028 -0.02260 0.01428
v 0.00185 -0.01888 0.01181
v 0.01492 -0.00880 0.02036
v 0.01070 -0.00804 0.01789
v 0.01070 -0.00804 0.02284
v -0.00285 -0.01709 0.02036
v -0.00072 -0.01336 0.02284
v -0.00072 -0.01336 0.01789
v 0.03361 -0.04890 0.05244
v 0.03149 -0.05262 0.05491
v 0.03149 -0.05262 0.04996
v 0.01585 -0.05718 0.05244
v 0.02007 -0.05794 0.04996
v 0.02007 -0.05794 0.05491
v 0.03104 -0.04338 0.05852
v 0.02683 -0.04262 0.06100
v 0.02892 -0.04711 0.06100
v 0.01328 -0.05167 0.05852
v 0.01750 -0.05243 0.06100
v 0.01541 -0.04795 0.06100
v 0.00285 0.01709 0.02036
v 0.00072 0.01336 0.02284
v 0.00072 0.01336 0.01789
v -0.01070 0.00804 0.02284
v -0.01492 0.00880 0.02036
v -0.01070 0.00804 0.01789
v 0.00028 0.02260 0.01428
v -0.00185 0.01888 0.01181
v -0.00394 0.02336 0.01181
v -0.01749 0.01432 0.01428
v -0.01536 0.01804 0.01181
v -0.01327 0.01355 0.01181
v -0.01328 0.05167 0.05852
v -0.01750 0.05243 0.06100
v -0.01541 0.04795 0.06100
v -0.03104 0.04338 0.05852
v -0.02683 0.04262 0.06100
v -0.02892 0.04711 0.06100
v -0.01585 0.05718 0.05244
v -0.02007 0.05794 0.04996
v -0.02007 0.05794 0.05491
v -0.03361 0.04890 0.05244
v -0.03149 0.05262 0.05491
v -0.03149 0.05262 0.04996
v 0.00028 0.02260 -0.01428
v -0.00394 0.02336 -0.01181
v -0.00185 0.01888 -0.01181
v -0.01536 0.01804 -0.01181
v -0.01749 0.01432 -0.01428
v -0.01327 0.01355 -0.01181
v 0.00285 0.01709 -0.02036
v 0.00072 0.01336 -0.01789
v 0.00072 0.01336 -0.02284
v -0.01492 0.00880 -0.02036
v -0.01070 0.00804 -0.02284
v -0.01070 0.00804 -0.01789
v -0.01585 0.05718 -0.05244
v -0.02007 0.05794 -0.05491
v -0.02007 0.05794 -0.04996
v -0.03361 0.04890 -0.05244
v -0.03149 0.05262 -0.04996
v -0.03149 0.05262 -0.05491
v -0.01328 0.05167 -0.05852
v -0.01541 0.04795 -0.06100
v -0.01750 0.05243 -0.06100
v -0.03104 0.04338 -0.05852
v -0.02892 0.04711 -0.06100
v -0.02683 0.04262 -0.06100
v 0.01492 -0.00880 -0.02036
v 0.01070 -0.00804 -0.02284
v 0.01070 -0.00804 -0.01789
v -0.00072 -0.01336 -0.02284
v -0.00285 -0.01709 -0.02036
v -0.00072 -0.01336 -0.01789
v 0.01749 -0.01431 -0.01428
v 0.01327 -0.01355 -0.01181
v 0.01536 -0.01804 -0.01181
v -0.00028 -0.02260 -0.01428
v 0.00394 -0.02336 -0.01181
v 0.00185 -0.01888 -0.01181
v 0.03104 -0.04338 -0.05852
v 0.02892 -0.04711 -0.06100
v 0.02683 -0.04262 -0.06100
v 0.01328 -0.05167 -0.05852
v 0.01541 -0.04795 -0.06100
v 0.01750 -0.05243 -0.06100
v 0.03361 -0.04890 -0.05244
v 0.03149 -0.05262 -0.04996
v 0.03149 -0.05262 -0.05491
v 0.01585 -0.05718 -0.05244
v 0.02007 -0.05794 -0.05491
v 0.02007 -0.05794 -0.04996
v 0.01903 0.00888 0.02503
v 0.01586 0.00740 0.02860
v -0.01903 -0.00887 0.02503
v -0.01586 -0.00740 0.02860
v 0.02308 0.00019 0.02313
v 0.02049 -0.00252 0.02642
v -0.01498 -0.01756 0.02313
v -0.01123 -0.01732 0.02642
v 0.02651 -0.00717 0.01770
v 0.02441 -0.01093 0.02022
v -0.01155 -0.02492 0.01770
v -0.00731 -0.02572 0.02022
v 0.02881 -0.01208 0.00958
v 0.02703 -0.01655 0.01094
v -0.00926 -0.02983 0.00958
v -0.00469 -0.03134 0.01094
v 0.02961 -0.01381 0.00000
v 0.02795 -0.01852 0.00000
v -0.00845 -0.03156 0.00000
v -0.00377 -0.03332 0.00000
v 0.02881 -0.01208 -0.00958
v 0.02703 -0.01655 -0.01094
v -0.00926 -0.02983 -0.00958
v -0.00469 -0.03134 -0.01094
v 0.02651 -0.00717 -0.01770
v 0.02441 -0.01093 -0.02022
v -0.01155 -0.02492 -0.01770
v -0.00731 -0.02572 -0.02022
v 0.02308 0.00019 -0.02313
v 0.02049 -0.00252 -0.02642
v -0.01498 -0.01756 -0.02313
v -0.01123 -0.01732 -0.02642
v 0.01903 0.00888 -0.02503
v 0.01586 0.00740 -0.02860
v -0.01903 -0.00887 -0.02503
v -0.01586 -0.00740 -0.02860
v 0.01498 0.01756 -0.02313
v 0.01123 0.01732 -0.02642
v -0.02308 -0.00019 -0.02313
v -0.02049 0.00252 -0.02642
v 0.01155 0.02492 -0.01770
v 0.00731 0.02572 -0.02022
v -0.02651 0.00717 -0.01770
v -0.02441 0.01093 -0.02022
v 0.00926 0.02983 -0.00958
v 0.00469 0.03134 -0.01094
v -0.02881 0.01208 -0.00958
v -0.02703 0.01655 -0.01094
v 0.00845 0.03156 0.00000
v 0.00377 0.03332 0.00000
v -0.02961 0.01381 0.00000
v -0.02795 0.01852 0.00000
v 0.00926 0.02983 0.00958
v 0.00469 0.03134 0.01094
v -0.02881 0.01208 0.00958
v -0.02703 0.01655 0.01094
v 0.01155 0.02492 0.01770
v 0.00731 0.02572 0.02022
v -0.02651 0.00717 0.01770
v -0.02441 0.01093 0.02022
v 0.01498 0.01756 0.02313
v 0.01123 0.01732 0.02642
v -0.02308 -0.00019 0.02313
v -0.02049 0.00252 0.02642
f 3 4 5
f 6 7 8
f 9 10 11
f 12 13 14
f 17 18 19
f 20 21 22
f 23 24 25
f 26 27 28
f 31 32 33
f 34 35 36
f 37 38 39
f 40 41 42
f 45 46 47
f 48 49 50
f 51 52 53
f 54 55 56
f 59 60 61
f 62 63 64
f 65 66 67
f 68 69 70
f 73 74 75
f 76 77 78
f 79 80 81
f 82 83 84
f 87 88 89
f 90 91 92
f 93 94 95
f 96 97 98
f 101 102 103
f 104 105 106
f 107 108 109
f 110 111 112
f 115 116 117
f 118 119 120
f 121 122 123
f 124 125 126
f 129 130 131
f 132 133 134
f 135 136 137
f 138 139 140
f 143 144 145
f 146 147 148
f 149 150 151
f 152 153 154
f 157 158 159
f 160 161 162
f 163 164 165
f 166 167 168
f 171 172 173
f 174 175 176
f 177 178 179
f 180 181 182
f 185 186 187
f 188 189 190
f 191 192 193
f 194 195 196
f 199 200 201
f 202 203 204
f 205 206 207
f 208 209 210
f 213 214 215
f 216 217 218
f 219 220 221
f 222 223 224
f 385 386 387
f 388 389 390
f 391 392 393
f 394 395 396
f 397 398 399
f 400 401 402
f 403 404 405
f 406 407 408
f 409 410 411
f 412 413 414
f 415 416 417
f 418 419 420
f 421 422 423
f 424 425 426
f 427 428 429
f 430 431 432
f 433 434 435
f 436 437 438
f 439 440 441
f 442 443 444
f 445 446 447
f 448 449 450
f 451 452 453
f 454 455 456
f 457 458 459
f 460 461 462
f 463 464 465
f 466 467 468
f 469 470 471
f 472 473 474
f 475 476 477
f 478 479 480
f 3 1 2
f 225 227 228
f 115 114 116
f 307 305 306
f 117 3 115
f 4 8 5
f 230 227 229
f 117 119 118
f 307 310 308
f 120 6 118
f 7 11 8
f 232 229 231
f 121 119 122
f 311 310 309
f 10 121 123
f 12 11 10
f 234 231 233
f 124 122 125
f 313 312 311
f 126 12 124
f 13 16 14
f 236 233 235
f 126 127 128
f 313 316 314
f 17 16 15
f 238 235 237
f 129 127 130
f 315 318 316
f 131 17 129
f 18 22 19
f 238 239 240
f 131 133 132
f 317 320 318
f 134 20 132
f 21 25 22
f 242 239 241
f 134 136 135
f 321 320 319
f 137 23 135
f 26 25 24
f 242 243 244
f 138 136 139
f 321 324 322
f 140 26 138
f 27 30 28
f 246 243 245
f 140 141 142
f 325 324 323
f 31 30 29
f 248 245 247
f 143 141 144
f 325 328 326
f 145 31 143
f 32 36 33
f 250 247 249
f 145 147 146
f 329 328 327
f 35 146 148
f 37 36 35
f 252 249 251
f 148 150 149
f 331 330 329
f 151 37 149
f 40 39 38
f 254 251 253
f 152 150 153
f 333 332 331
f 154 40 152
f 41 44 42
f 254 255 256
f 154 155 156
f 333 336 334
f 45 44 43
f 256 257 258
f 157 155 158
f 335 338 336
f 159 45 157
f 46 50 47
f 260 257 259
f 159 161 160
f 337 340 338
f 162 48 160
f 51 50 49
f 260 261 262
f 162 164 163
f 341 340 339
f 165 51 163
f 54 53 52
f 262 263 264
f 166 164 167
f 341 344 342
f 168 54 166
f 55 58 56
f 264 265 266
f 168 169 170
f 345 344 343
f 59 58 57
f 268 265 267
f 171 169 172
f 345 348 346
f 60 171 173
f 60 64 61
f 270 267 269
f 173 175 174
f 347 350 348
f 176 62 174
f 63 67 64
f 272 269 271
f 177 175 178
f 351 350 349
f 66 177 179
f 68 67 66
f 274 271 273
f 180 178 181
f 353 352 351
f 182 68 180
f 69 72 70
f 274 275 276
f 182 183 184
f 353 356 354
f 73 72 71
f 278 275 277
f 185 183 186
f 355 358 356
f 74 185 187
f 74 78 75
f 278 279 280
f 187 189 188
f 357 360 358
f 77 188 190
f 77 81 78
f 282 279 281
f 190 192 191
f 361 360 359
f 80 191 193
f 82 81 80
f 282 283 284
f 194 192 195
f 361 364 362
f 83 194 196
f 83 86 84
f 286 283 285
f 196 197 198
f 365 364 363
f 87 86 85
f 286 287 288
f 199 197 200
f 367 366 365
f 88 199 201
f 88 92 89
f 290 287 289
f 201 203 202
f 369 368 367
f 91 202 204
f 91 95 92
f 292 289 291
f 205 203 206
f 369 372 370
f 207 93 205
f 96 95 94
f 294 291 293
f 208 206 209
f 371 374 372
f 210 96 208
f 97 100 98
f 296 293 295
f 210 211 212
f 373 376 374
f 101 100 99
f 296 297 298
f 213 211 214
f 375 378 376
f 102 213 215
f 102 106 103
f 300 297 299
f 215 217 216
f 379 378 377
f 218 104 216
f 105 109 106
f 302 299 301
f 218 220 219
f 381 380 379
f 108 219 221
f 110 109 108
f 302 303 304
f 222 220 223
f 381 384 382
f 224 110 222
f 111 1 112
f 304 226 225
f 224 114 113
f 383 305 384
f 385 392 391
f 386 390 387
f 389 396 390
f 393 396 395
f 391 404 403
f 406 395 394
f 407 404 408
f 397 405 398
f 406 402 407
f 401 398 402
f 385 399 386
f 400 388 401
f 415 411 416
f 412 411 410
f 413 420 414
f 419 416 420
f 427 417 428
f 418 432 419
f 431 428 432
f 421 429 422
f 424 431 430
f 425 422 426
f 421 410 409
f 424 412 425
f 433 440 439
f 434 438 435
f 437 444 438
f 443 440 444
f 451 441 452
f 442 456 443
f 455 452 456
f 445 453 446
f 454 450 455
f 449 446 450
f 445 434 433
f 437 449 448
f 457 464 463
f 460 459 458
f 466 462 461
f 467 464 468
f 463 476 475
f 478 467 466
f 477 480 479
f 475 470 469
f 478 474 479
f 473 470 474
f 457 471 458
f 461 473 472
f 482 485 481
f 488 483 487
f 486 489 485
f 492 487 491
f 494 489 490
f 492 495 496
f 498 493 494
f 500 495 499
f 502 497 498
f 500 503 504
f 502 505 501
f 508 503 507
f 506 509 505
f 508 511 512
f 510 513 509
f 516 511 515
f 518 513 514
f 516 519 520
f 518 521 517
f 524 519 523
f 526 521 522
f 528 523 527
f 530 525 526
f 532 527 531
f 530 533 529
f 532 535 536
f 538 533 534
f 536 539 540
f 542 537 538
f 544 539 543
f 542 481 541
f 484 543 483
f 112 226 303
f 5 226 1
f 113 3 2
f 113 111 224
f 117 6 4
f 5 229 227
f 120 9 7
f 11 229 8
f 123 12 10
f 14 231 11
f 126 15 13
f 14 235 233
f 128 17 15
f 19 235 16
f 132 18 131
f 19 239 237
f 135 21 134
f 22 241 239
f 137 26 24
f 28 241 25
f 140 29 27
f 28 245 243
f 143 29 142
f 33 245 30
f 146 32 145
f 33 249 247
f 149 35 148
f 39 249 36
f 151 40 38
f 42 251 39
f 154 43 41
f 42 255 253
f 157 43 156
f 47 255 44
f 160 46 159
f 47 259 257
f 162 51 49
f 53 259 50
f 165 54 52
f 56 261 53
f 170 55 168
f 56 265 263
f 170 59 57
f 61 265 58
f 173 62 60
f 61 269 267
f 176 65 63
f 67 269 64
f 180 66 179
f 70 271 67
f 184 69 182
f 70 275 273
f 184 73 71
f 75 275 72
f 188 74 187
f 75 279 277
f 191 77 190
f 78 281 279
f 194 80 193
f 84 281 81
f 198 83 196
f 84 285 283
f 198 87 85
f 89 285 86
f 202 88 201
f 89 289 287
f 204 93 91
f 95 289 92
f 207 96 94
f 98 291 95
f 210 99 97
f 98 295 293
f 212 101 99
f 103 295 100
f 216 102 215
f 103 299 297
f 219 105 218
f 109 299 106
f 222 108 221
f 112 301 109
f 116 305 308
f 223 305 114
f 116 310 119
f 122 310 312
f 125 312 314
f 125 316 127
f 130 316 318
f 130 320 133
f 133 322 136
f 139 322 324
f 139 326 141
f 144 326 328
f 144 330 147
f 150 330 332
f 153 332 334
f 153 336 155
f 158 336 338
f 158 340 161
f 164 340 342
f 167 342 344
f 167 346 169
f 172 346 348
f 172 350 175
f 178 350 352
f 181 352 354
f 181 356 183
f 186 356 358
f 186 360 189
f 189 362 192
f 195 362 364
f 195 366 197
f 200 366 368
f 200 370 203
f 206 370 372
f 209 372 374
f 209 376 211
f 214 376 378
f 214 380 217
f 220 380 382
f 223 382 384
f 225 307 306
f 304 306 383
f 228 309 307
f 230 311 309
f 232 313 311
f 234 315 313
f 238 315 236
f 238 319 317
f 242 319 240
f 244 321 242
f 244 325 323
f 248 325 246
f 250 327 248
f 250 331 329
f 252 333 331
f 256 333 254
f 258 335 256
f 258 339 337
f 260 341 339
f 262 343 341
f 264 345 343
f 266 347 345
f 270 347 268
f 272 349 270
f 274 351 272
f 276 353 274
f 278 355 276
f 280 357 278
f 280 361 359
f 282 363 361
f 284 365 363
f 286 367 365
f 288 369 367
f 292 369 290
f 294 371 292
f 294 375 373
f 296 377 375
f 300 377 298
f 300 381 379
f 302 383 381
f 391 397 385
f 387 396 392
f 399 388 386
f 394 400 406
f 395 404 393
f 407 398 405
f 427 409 415
f 414 416 411
f 423 412 410
f 430 413 424
f 417 432 428
f 429 426 422
f 439 445 433
f 435 444 440
f 447 436 434
f 442 448 454
f 443 452 441
f 455 446 453
f 475 457 463
f 459 468 464
f 471 460 458
f 478 461 472
f 465 480 476
f 479 470 477
f 493 509 525
f 482 488 486
f 542 484 482
f 523 507 491
f 488 490 486
f 490 496 494
f 494 500 498
f 500 502 498
f 502 508 506
f 506 512 510
f 510 516 514
f 514 520 518
f 520 522 518
f 522 528 526
f 526 532 530
f 532 534 530
f 534 540 538
f 538 544 542
f 3 5 1
f 225 226 227
f 115 113 114
f 307 308 305
f 117 4 3
f 4 6 8
f 230 228 227
f 117 116 119
f 307 309 310
f 120 7 6
f 7 9 11
f 232 230 229
f 121 120 119
f 311 312 310
f 10 9 121
f 12 14 11
f 234 232 231
f 124 123 122
f 313 314 312
f 126 13 12
f 13 15 16
f 236 234 233
f 126 125 127
f 313 315 316
f 17 19 16
f 238 236 235
f 129 128 127
f 315 317 318
f 131 18 17
f 18 20 22
f 238 237 239
f 131 130 133
f 317 319 320
f 134 21 20
f 21 23 25
f 242 240 239
f 134 133 136
f 321 322 320
f 137 24 23
f 26 28 25
f 242 241 243
f 138 137 136
f 321 323 324
f 140 27 26
f 27 29 30
f 246 244 243
f 140 139 141
f 325 326 324
f 31 33 30
f 248 246 245
f 143 142 141
f 325 327 328
f 145 32 31
f 32 34 36
f 250 248 247
f 145 144 147
f 329 330 328
f 35 34 146
f 37 39 36
f 252 250 249
f 148 147 150
f 331 332 330
f 151 38 37
f 40 42 39
f 254 252 251
f 152 151 150
f 333 334 332
f 154 41 40
f 41 43 44
f 254 253 255
f 154 153 155
f 333 335 336
f 45 47 44
f 256 255 257
f 157 156 155
f 335 337 338
f 159 46 45
f 46 48 50
f 260 258 257
f 159 158 161
f 337 339 340
f 162 49 48
f 51 53 50
f 260 259 261
f 162 161 164
f 341 342 340
f 165 52 51
f 54 56 53
f 262 261 263
f 166 165 164
f 341 343 344
f 168 55 54
f 55 57 58
f 264 263 265
f 168 167 169
f 345 346 344
f 59 61 58
f 268 266 265
f 171 170 169
f 345 347 348
f 60 59 171
f 60 62 64
f 270 268 267
f 173 172 175
f 347 349 350
f 176 63 62
f 63 65 67
f 272 270 269
f 177 176 175
f 351 352 350
f 66 65 177
f 68 70 67
f 274 272 271
f 180 179 178
f 353 354 352
f 182 69 68
f 69 71 72
f 274 273 275
f 182 181 183
f 353 355 356
f 73 75 72
f 278 276 275
f 185 184 183
f 355 357 358
f 74 73 185
f 74 76 78
f 278 277 279
f 187 186 189
f 357 359 360
f 77 76 188
f 77 79 81
f 282 280 279
f 190 189 192
f 361 362 360
f 80 79 191
f 82 84 81
f 282 281 283
f 194 193 192
f 361 363 364
f 83 82 194
f 83 85 86
f 286 284 283
f 196 195 197
f 365 366 364
f 87 89 86
f 286 285 287
f 199 198 197
f 367 368 366
f 88 87 199
f 88 90 92
f 290 288 287
f 201 200 203
f 369 370 368
f 91 90 202
f 91 93 95
f 292 290 289
f 205 204 203
f 369 371 372
f 207 94 93
f 96 98 95
f 294 292 291
f 208 207 206
f 371 373 374
f 210 97 96
f 97 99 100
f 296 294 293
f 210 209 211
f 373 375 376
f 101 103 100
f 296 295 297
f 213 212 211
f 375 377 378
f 102 101 213
f 102 104 106
f 300 298 297
f 215 214 217
f 379 380 378
f 218 105 104
f 105 107 109
f 302 300 299
f 218 217 220
f 381 382 380
f 108 107 219
f 110 112 109
f 302 301 303
f 222 221 220
f 381 383 384
f 224 111 110
f 111 2 1
f 304 303 226
f 224 223 114
f 383 306 305
f 385 387 392
f 386 388 390
f 389 394 396
f 393 392 396
f 391 393 404
f 406 408 395
f 407 405 404
f 397 403 405
f 406 400 402
f 401 399 398
f 385 397 399
f 400 389 388
f 415 409 411
f 412 414 411
f 413 418 420
f 419 417 416
f 427 415 417
f 418 430 432
f 431 429 428
f 421 427 429
f 424 426 431
f 425 423 422
f 421 423 410
f 424 413 412
f 433 435 440
f 434 436 438
f 437 442 444
f 443 441 440
f 451 439 441
f 442 454 456
f 455 453 452
f 445 451 453
f 454 448 450
f 449 447 446
f 445 447 434
f 437 436 449
f 457 459 464
f 460 462 459
f 466 468 462
f 467 465 464
f 463 465 476
f 478 480 467
f 477 476 480
f 475 477 470
f 478 472 474
f 473 471 470
f 457 469 471
f 461 460 473
f 482 486 485
f 488 484 483
f 486 490 489
f 492 488 487
f 494 493 489
f 492 491 495
f 498 497 493
f 500 496 495
f 502 501 497
f 500 499 503
f 502 506 505
f 508 504 503
f 506 510 509
f 508 507 511
f 510 514 513
f 516 512 511
f 518 517 513
f 516 515 519
f 518 522 521
f 524 520 519
f 526 525 521
f 528 524 523
f 530 529 525
f 532 528 527
f 530 534 533
f 532 531 535
f 538 537 533
f 536 535 539
f 542 541 537
f 544 540 539
f 542 482 481
f 484 544 543
f 112 1 226
f 5 227 226
f 113 115 3
f 113 2 111
f 117 118 6
f 5 8 229
f 120 121 9
f 11 231 229
f 123 124 12
f 14 233 231
f 126 128 15
f 14 16 235
f 128 129 17
f 19 237 235
f 132 20 18
f 19 22 239
f 135 23 21
f 22 25 241
f 137 138 26
f 28 243 241
f 140 142 29
f 28 30 245
f 143 31 29
f 33 247 245
f 146 34 32
f 33 36 249
f 149 37 35
f 39 251 249
f 151 152 40
f 42 253 251
f 154 156 43
f 42 44 255
f 157 45 43
f 47 257 255
f 160 48 46
f 47 50 259
f 162 163 51
f 53 261 259
f 165 166 54
f 56 263 261
f 170 57 55
f 56 58 265
f 170 171 59
f 61 267 265
f 173 174 62
f 61 64 269
f 176 177 65
f 67 271 269
f 180 68 66
f 70 273 271
f 184 71 69
f 70 72 275
f 184 185 73
f 75 277 275
f 188 76 74
f 75 78 279
f 191 79 77
f 78 81 281
f 194 82 80
f 84 283 281
f 198 85 83
f 84 86 285
f 198 199 87
f 89 287 285
f 202 90 88
f 89 92 289
f 204 205 93
f 95 291 289
f 207 208 96
f 98 293 291
f 210 212 99
f 98 100 295
f 212 213 101
f 103 297 295
f 216 104 102
f 103 106 299
f 219 107 105
f 109 301 299
f 222 110 108
f 112 303 301
f 116 114 305
f 223 384 305
f 116 308 310
f 122 119 310
f 125 122 312
f 125 314 316
f 130 127 316
f 130 318 320
f 133 320 322
f 139 136 322
f 139 324 326
f 144 141 326
f 144 328 330
f 150 147 330
f 153 150 332
f 153 334 336
f 158 155 336
f 158 338 340
f 164 161 340
f 167 164 342
f 167 344 346
f 172 169 346
f 172 348 350
f 178 175 350
f 181 178 352
f 181 354 356
f 186 183 356
f 186 358 360
f 189 360 362
f 195 192 362
f 195 364 366
f 200 197 366
f 200 368 370
f 206 203 370
f 209 206 372
f 209 374 376
f 214 211 376
f 214 378 380
f 220 217 380
f 223 220 382
f 225 228 307
f 304 225 306
f 228 230 309
f 230 232 311
f 232 234 313
f 234 236 315
f 238 317 315
f 238 240 319
f 242 321 319
f 244 323 321
f 244 246 325
f 248 327 325
f 250 329 327
f 250 252 331
f 252 254 333
f 256 335 333
f 258 337 335
f 258 260 339
f 260 262 341
f 262 264 343
f 264 266 345
f 266 268 347
f 270 349 347
f 272 351 349
f 274 353 351
f 276 355 353
f 278 357 355
f 280 359 357
f 280 282 361
f 282 284 363
f 284 286 365
f 286 288 367
f 288 290 369
f 292 371 369
f 294 373 371
f 294 296 375
f 296 298 377
f 300 379 377
f 300 302 381
f 302 304 383
f 391 403 397
f 387 390 396
f 399 401 388
f 394 389 400
f 395 408 404
f 407 402 398
f 427 421 409
f 414 420 416
f 423 425 412
f 430 418 413
f 417 419 432
f 429 431 426
f 439 451 445
f 435 438 444
f 447 449 436
f 442 437 448
f 443 456 452
f 455 450 446
f 475 469 457
f 459 462 468
f 471 473 460
f 478 466 461
f 465 467 480
f 479 474 470
f 541 481 485
f 485 489 541
f 489 493 541
f 493 497 501
f 501 505 493
f 505 509 493
f 509 513 517
f 517 521 509
f 521 525 509
f 525 529 533
f 533 537 525
f 537 541 525
f 541 493 525
f 482 484 488
f 542 544 484
f 491 487 483
f 483 543 539
f 539 535 531
f 531 527 523
f 523 519 515
f 515 511 507
f 507 503 499
f 499 495 491
f 491 483 539
f 539 531 523
f 523 515 507
f 507 499 491
f 491 539 523
f 488 492 490
f 490 492 496
f 494 496 500
f 500 504 502
f 502 504 508
f 506 508 512
f 510 512 516
f 514 516 520
f 520 524 522
f 522 524 528
f 526 528 532
f 532 536 534
f 534 536 540
f 538 540 544
