# clockwork Gear1_Glow.obj: Roblox cue frame, recentred on its bounding box
v -0.16329 0.06032 0.02745
v -0.16538 0.06088 0.00000
v -0.00647 -0.02415 0.03510
v 0.00647 0.02415 0.03510
v -0.01944 -0.02067 0.03243
v -0.00650 0.02762 0.03243
v -0.03044 -0.01772 0.02482
v -0.01750 0.03057 0.02482
v -0.03779 -0.01576 0.01343
v -0.02485 0.03254 0.01343
v -0.04037 -0.01506 0.00000
v -0.02743 0.03323 0.00000
v -0.03779 -0.01576 -0.01343
v -0.02485 0.03254 -0.01343
v -0.03044 -0.01772 -0.02482
v -0.01750 0.03057 -0.02482
v -0.01944 -0.02067 -0.03243
v -0.00650 0.02762 -0.03243
v -0.00647 -0.02415 -0.03510
v 0.00647 0.02415 -0.03510
v 0.00650 -0.02762 -0.03243
v 0.01944 0.02067 -0.03243
v 0.01750 -0.03057 -0.02482
v 0.03044 0.01772 -0.02482
v 0.02485 -0.03254 -0.01343
v 0.03779 0.01576 -0.01343
v 0.02743 -0.03323 0.00000
v 0.04037 0.01506 0.00000
v 0.02485 -0.03254 0.01343
v 0.03779 0.01576 0.01343
v 0.01750 -0.03057 0.02482
v 0.03044 0.01772 0.02482
v 0.00650 -0.02762 0.03243
v 0.01944 0.02067 0.03243
v -0.15708 0.05865 0.05423
v -0.14690 0.05593 0.07968
v -0.13300 0.05220 0.10316
v -0.11573 0.04757 0.12410
v -0.09550 0.04215 0.14198
v -0.07282 0.03608 0.15637
v -0.04824 0.02949 0.16691
v -0.02238 0.02256 0.17334
v 0.00414 0.01545 0.17550
v 0.03066 0.00835 0.17334
v 0.05653 0.00142 0.16691
v 0.08110 -0.00517 0.15637
v 0.10378 -0.01124 0.14198
v 0.12401 -0.01666 0.12410
v 0.14129 -0.02129 0.10316
v 0.15518 -0.02502 0.07968
v 0.16536 -0.02774 0.05423
v 0.17157 -0.02941 0.02745
v 0.17366 -0.02997 0.00000
v 0.17157 -0.02941 -0.02745
v 0.16536 -0.02774 -0.05423
v 0.15518 -0.02502 -0.07968
v 0.14129 -0.02129 -0.10316
v 0.12401 -0.01666 -0.12410
v 0.10378 -0.01124 -0.14198
v 0.08110 -0.00517 -0.15637
v 0.05653 0.00142 -0.16691
v 0.03066 0.00835 -0.17334
v 0.00414 0.01545 -0.17550
v -0.02238 0.02256 -0.17334
v -0.04824 0.02949 -0.16691
v -0.07282 0.03608 -0.15637
v -0.09550 0.04215 -0.14198
v -0.11573 0.04757 -0.12410
v -0.13300 0.05220 -0.10316
v -0.14690 0.05593 -0.07968
v -0.15708 0.05865 -0.05423
v -0.16329 0.06032 -0.02745
v -0.18711 0.06670 0.00000
v -0.18476 0.06607 0.03097
v -0.17775 0.06419 0.06119
v -0.16627 0.06112 0.08989
v -0.15059 0.05691 0.11638
v -0.13110 0.05169 0.14001
v -0.10827 0.04558 0.16019
v -0.08269 0.03872 0.17642
v -0.05496 0.03129 0.18831
v -0.02578 0.02347 0.19556
v 0.00414 0.01545 0.19800
v 0.03406 0.00744 0.19556
v 0.06324 -0.00038 0.18831
v 0.09097 -0.00781 0.17642
v 0.11656 -0.01467 0.16019
v 0.13938 -0.02078 0.14001
v 0.15887 -0.02600 0.11638
v 0.17455 -0.03021 0.08989
v 0.18603 -0.03328 0.06119
v 0.19304 -0.03516 0.03097
v 0.19539 -0.03579 0.00000
v 0.19304 -0.03516 -0.03097
v 0.18603 -0.03328 -0.06119
v 0.17455 -0.03021 -0.08989
v 0.15887 -0.02600 -0.11638
v 0.13938 -0.02078 -0.14001
v 0.11656 -0.01467 -0.16019
v 0.09097 -0.00781 -0.17642
v 0.06324 -0.00038 -0.18831
v 0.03406 0.00744 -0.19556
v 0.00414 0.01545 -0.19800
v -0.02578 0.02347 -0.19556
v -0.05496 0.03129 -0.18831
v -0.08269 0.03872 -0.17642
v -0.10827 0.04558 -0.16019
v -0.13110 0.05169 -0.14001
v -0.15059 0.05691 -0.11638
v -0.16627 0.06112 -0.08989
v -0.17775 0.06419 -0.06119
v -0.18476 0.06607 -0.03097
v -0.17366 0.02997 0.00000
v -0.17157 0.02941 0.02745
v -0.16536 0.02774 0.05423
v -0.15518 0.02502 0.07968
v -0.14129 0.02129 0.10316
v -0.12401 0.01666 0.12410
v -0.10378 0.01124 0.14198
v -0.08110 0.00517 0.15637
v -0.05653 -0.00142 0.16691
v -0.03066 -0.00835 0.17334
v -0.00414 -0.01545 0.17550
v 0.02238 -0.02256 0.17334
v 0.04824 -0.02949 0.16691
v 0.07282 -0.03608 0.15637
v 0.09550 -0.04215 0.14198
v 0.11573 -0.04757 0.12410
v 0.13300 -0.05220 0.10316
v 0.14690 -0.05593 0.07968
v 0.15708 -0.05865 0.05423
v 0.16329 -0.06032 0.02745
v 0.16538 -0.06088 0.00000
v 0.16329 -0.06032 -0.02745
v 0.15708 -0.05865 -0.05423
v 0.14690 -0.05593 -0.07968
v 0.13300 -0.05220 -0.10316
v 0.11573 -0.04757 -0.12410
v 0.09550 -0.04215 -0.14198
v 0.07282 -0.03608 -0.15637
v 0.04824 -0.02949 -0.16691
v 0.02238 -0.02256 -0.17334
v -0.00414 -0.01545 -0.17550
v -0.03066 -0.00835 -0.17334
v -0.05653 -0.00142 -0.16691
v -0.08110 0.00517 -0.15637
v -0.10378 0.01124 -0.14198
v -0.12401 0.01666 -0.12410
v -0.14129 0.02129 -0.10316
v -0.15518 0.02502 -0.07968
v -0.16536 0.02774 -0.05423
v -0.17157 0.02941 -0.02745
v -0.19539 0.03579 0.00000
v -0.19304 0.03516 0.03097
v -0.18603 0.03328 0.06119
v -0.17455 0.03021 0.08989
v -0.15887 0.02600 0.11638
v -0.13938 0.02078 0.14001
v -0.11656 0.01467 0.16019
v -0.09097 0.00781 0.17642
v -0.06324 0.00038 0.18831
v -0.03406 -0.00744 0.19556
v -0.00414 -0.01545 0.19800
v 0.02578 -0.02347 0.19556
v 0.05496 -0.03129 0.18831
v 0.08269 -0.03872 0.17642
v 0.10827 -0.04558 0.16019
v 0.13110 -0.05169 0.14001
v 0.15059 -0.05691 0.11638
v 0.16627 -0.06112 0.08989
v 0.17775 -0.06419 0.06119
v 0.18476 -0.06607 0.03097
v 0.18711 -0.06670 0.00000
v 0.18476 -0.06607 -0.03097
v 0.17775 -0.06419 -0.06119
v 0.16627 -0.06112 -0.08989
v 0.15059 -0.05691 -0.11638
v 0.13110 -0.05169 -0.14001
v 0.10827 -0.04558 -0.16019
v 0.08269 -0.03872 -0.17642
v 0.05496 -0.03129 -0.18831
v 0.02578 -0.02347 -0.19556
v -0.00414 -0.01545 -0.19800
v -0.03406 -0.00744 -0.19556
v -0.06324 0.00038 -0.18831
v -0.09097 0.00781 -0.17642
v -0.11656 0.01467 -0.16019
v -0.13938 0.02078 -0.14001
v -0.15887 0.02600 -0.11638
v -0.17455 0.03021 -0.08989
v -0.18603 0.03328 -0.06119
v -0.19304 0.03516 -0.03097
f 62 103 102
f 48 87 47
f 4 5 3
f 64 103 63
f 47 86 46
f 5 8 7
f 61 100 60
f 45 86 85
f 8 9 7
f 59 100 99
f 45 84 44
f 10 11 9
f 58 99 98
f 44 83 43
f 11 14 13
f 58 97 57
f 42 83 82
f 14 15 13
f 57 96 56
f 41 82 81
f 15 18 17
f 55 96 95
f 41 80 40
f 17 20 19
f 54 95 94
f 39 80 79
f 20 21 19
f 53 94 93
f 38 79 78
f 21 24 23
f 53 92 52
f 38 77 37
f 24 25 23
f 52 91 51
f 37 76 36
f 25 28 27
f 51 90 50
f 35 76 75
f 28 29 27
f 49 90 89
f 1 75 74
f 29 32 31
f 24 16 8
f 2 74 73
f 32 33 31
f 61 102 101
f 48 89 88
f 33 4 3
f 9 17 25
f 65 104 64
f 65 106 105
f 67 106 66
f 68 107 67
f 68 109 108
f 69 110 109
f 71 110 70
f 72 111 71
f 2 112 72
f 154 113 153
f 155 114 154
f 156 115 155
f 156 117 116
f 157 118 117
f 159 118 158
f 160 119 159
f 160 121 120
f 162 121 161
f 163 122 162
f 163 124 123
f 164 125 124
f 166 125 165
f 166 127 126
f 167 128 127
f 169 128 168
f 170 129 169
f 170 131 130
f 171 132 131
f 172 133 132
f 174 133 173
f 175 134 174
f 176 135 175
f 176 137 136
f 177 138 137
f 179 138 178
f 180 139 179
f 180 141 140
f 182 141 181
f 183 142 182
f 183 144 143
f 184 145 144
f 186 145 185
f 186 147 146
f 187 148 147
f 189 148 188
f 190 149 189
f 190 151 150
f 191 152 151
f 192 113 152
f 62 63 103
f 48 88 87
f 4 6 5
f 64 104 103
f 47 87 86
f 5 6 8
f 61 101 100
f 45 46 86
f 8 10 9
f 59 60 100
f 45 85 84
f 10 12 11
f 58 59 99
f 44 84 83
f 11 12 14
f 58 98 97
f 42 43 83
f 14 16 15
f 57 97 96
f 41 42 82
f 15 16 18
f 55 56 96
f 41 81 80
f 17 18 20
f 54 55 95
f 39 40 80
f 20 22 21
f 53 54 94
f 38 39 79
f 21 22 24
f 53 93 92
f 38 78 77
f 24 26 25
f 52 92 91
f 37 77 76
f 25 26 28
f 51 91 90
f 35 36 76
f 28 30 29
f 49 50 90
f 1 35 75
f 29 30 32
f 8 6 4
f 4 34 32
f 32 30 28
f 28 26 32
f 26 24 32
f 24 22 20
f 20 18 16
f 16 14 12
f 12 10 16
f 10 8 16
f 8 4 32
f 24 20 16
f 8 32 24
f 2 1 74
f 32 34 33
f 61 62 102
f 48 49 89
f 33 34 4
f 33 3 9
f 3 5 9
f 5 7 9
f 9 11 13
f 13 15 9
f 15 17 9
f 17 19 25
f 19 21 25
f 21 23 25
f 25 27 29
f 29 31 25
f 31 33 25
f 33 9 25
f 65 105 104
f 65 66 106
f 67 107 106
f 68 108 107
f 68 69 109
f 69 70 110
f 71 111 110
f 72 112 111
f 2 73 112
f 154 114 113
f 155 115 114
f 156 116 115
f 156 157 117
f 157 158 118
f 159 119 118
f 160 120 119
f 160 161 121
f 162 122 121
f 163 123 122
f 163 164 124
f 164 165 125
f 166 126 125
f 166 167 127
f 167 168 128
f 169 129 128
f 170 130 129
f 170 171 131
f 171 172 132
f 172 173 133
f 174 134 133
f 175 135 134
f 176 136 135
f 176 177 137
f 177 178 138
f 179 139 138
f 180 140 139
f 180 181 141
f 182 142 141
f 183 143 142
f 183 184 144
f 184 185 145
f 186 146 145
f 186 187 147
f 187 188 148
f 189 149 148
f 190 150 149
f 190 191 151
f 191 192 152
f 192 153 113
