# clockwork Gear9_Copper.obj: Roblox cue frame, recentred on its bounding box
v -0.02114 0.09903 0.00000
v -0.02570 0.10132 0.00000
v -0.02528 0.10015 0.01439
v -0.02615 0.10254 0.01992
v -0.02063 0.09762 0.01724
v -0.03205 0.11875 0.03227
v -0.03258 0.12021 0.03756
v -0.02823 0.11851 0.03311
v -0.02987 0.11276 0.05758
v -0.02824 0.10829 0.06037
v -0.02477 0.10898 0.05871
v -0.02105 0.08853 0.05756
v -0.01911 0.08320 0.05981
v -0.01551 0.08355 0.05506
v -0.01529 0.07270 0.07354
v -0.01110 0.07143 0.07091
v -0.01150 0.06230 0.08284
v -0.01078 0.06032 0.08854
v -0.00657 0.05897 0.08204
v -0.01197 0.06358 0.10947
v -0.01106 0.06110 0.11431
v -0.00810 0.06320 0.10898
v -0.00431 0.04253 0.12286
v -0.00248 0.03751 0.12147
v 0.00054 0.03945 0.11992
v 0.00193 0.02541 0.10462
v 0.00384 0.02014 0.10220
v 0.00620 0.02390 0.09820
v 0.00987 0.00359 0.10400
v 0.01316 0.00479 0.10029
v 0.01479 -0.00993 0.10275
v 0.01668 -0.01513 0.10530
v 0.01905 -0.01141 0.09879
v 0.02090 -0.02673 0.12255
v 0.02271 -0.03170 0.12410
v 0.02448 -0.02632 0.12102
v 0.02956 -0.05051 0.11618
v 0.03051 -0.05314 0.11142
v 0.03323 -0.05038 0.11088
v 0.02955 -0.05050 0.09039
v 0.03032 -0.05261 0.08471
v 0.03199 -0.04695 0.08381
v 0.03502 -0.06551 0.07354
v 0.03741 -0.06185 0.07091
v 0.03820 -0.07425 0.06248
v 0.04015 -0.07961 0.06037
v 0.04122 -0.07231 0.05766
v 0.04731 -0.09928 0.06384
v 0.04896 -0.10383 0.06120
v 0.05043 -0.09762 0.06216
v 0.05189 -0.11186 0.04144
v 0.05141 -0.11056 0.03610
v 0.05417 -0.10790 0.03689
v 0.04565 -0.09472 0.02322
v 0.04482 -0.09244 0.01761
v 0.04674 -0.08749 0.02034
v 0.04544 -0.09414 0.00000
v 0.04746 -0.08945 0.00000
v 0.04501 -0.09297 -0.01439
v 0.04588 -0.09536 -0.01992
v 0.04694 -0.08804 -0.01724
v 0.05178 -0.11156 -0.03227
v 0.05231 -0.11303 -0.03756
v 0.05455 -0.10893 -0.03311
v 0.04960 -0.10558 -0.05758
v 0.04797 -0.10111 -0.06037
v 0.05108 -0.09940 -0.05871
v 0.04078 -0.08135 -0.05756
v 0.03884 -0.07601 -0.05981
v 0.04182 -0.07397 -0.05506
v 0.03502 -0.06551 -0.07354
v 0.03741 -0.06185 -0.07091
v 0.03124 -0.05512 -0.08284
v 0.03052 -0.05314 -0.08854
v 0.03288 -0.04940 -0.08204
v 0.03170 -0.05640 -0.10947
v 0.03080 -0.05392 -0.11431
v 0.03442 -0.05362 -0.10898
v 0.02404 -0.03535 -0.12286
v 0.02221 -0.03033 -0.12147
v 0.02577 -0.02988 -0.11992
v 0.01781 -0.01822 -0.10462
v 0.01589 -0.01295 -0.10220
v 0.02011 -0.01432 -0.09820
v 0.00987 0.00359 -0.10400
v 0.01316 0.00479 -0.10029
v 0.00494 0.01712 -0.10275
v 0.00305 0.02231 -0.10530
v 0.00726 0.02099 -0.09879
v -0.00117 0.03391 -0.12255
v -0.00298 0.03888 -0.12410
v 0.00183 0.03590 -0.12102
v -0.00983 0.05770 -0.11618
v -0.01078 0.06032 -0.11142
v -0.00692 0.05996 -0.11088
v -0.00982 0.05768 -0.09039
v -0.01059 0.05980 -0.08471
v -0.00567 0.05652 -0.08381
v -0.01529 0.07270 -0.07354
v -0.01110 0.07143 -0.07091
v -0.01846 0.08143 -0.06248
v -0.02042 0.08679 -0.06037
v -0.01491 0.08188 -0.05766
v -0.02757 0.10646 -0.06384
v -0.02923 0.11101 -0.06120
v -0.02412 0.10720 -0.06216
v -0.03215 0.11904 -0.04144
v -0.03168 0.11774 -0.03610
v -0.02786 0.11747 -0.03689
v -0.02592 0.10190 -0.02322
v -0.02509 0.09962 -0.01761
v -0.02043 0.09706 -0.02034
v -0.04544 0.09414 0.00000
v -0.04746 0.08945 0.00000
v -0.04501 0.09297 0.01439
v -0.04694 0.08804 0.01724
v -0.04588 0.09536 0.01992
v -0.05178 0.11156 0.03227
v -0.05455 0.10893 0.03311
v -0.05231 0.11303 0.03756
v -0.04960 0.10558 0.05758
v -0.05108 0.09940 0.05871
v -0.04797 0.10111 0.06037
v -0.04078 0.08135 0.05756
v -0.04182 0.07397 0.05506
v -0.03884 0.07601 0.05981
v -0.03741 0.06185 0.07091
v -0.03502 0.06551 0.07354
v -0.03124 0.05512 0.08284
v -0.03288 0.04940 0.08204
v -0.03052 0.05314 0.08854
v -0.03170 0.05640 0.10947
v -0.03442 0.05362 0.10898
v -0.03080 0.05392 0.11431
v -0.02404 0.03535 0.12286
v -0.02577 0.02988 0.11992
v -0.02221 0.03033 0.12147
v -0.01781 0.01822 0.10462
v -0.02011 0.01432 0.09820
v -0.01589 0.01296 0.10220
v -0.01316 -0.00479 0.10029
v -0.00987 -0.00359 0.10400
v -0.00494 -0.01712 0.10275
v -0.00726 -0.02099 0.09879
v -0.00305 -0.02231 0.10530
v 0.00117 -0.03391 0.12255
v -0.00183 -0.03590 0.12102
v 0.00298 -0.03888 0.12410
v 0.00983 -0.05770 0.11618
v 0.00692 -0.05996 0.11088
v 0.01078 -0.06032 0.11142
v 0.00982 -0.05768 0.09039
v 0.00567 -0.05652 0.08381
v 0.01059 -0.05980 0.08471
v 0.01110 -0.07143 0.07091
v 0.01529 -0.07270 0.07354
v 0.01846 -0.08143 0.06248
v 0.01491 -0.08188 0.05766
v 0.02042 -0.08679 0.06037
v 0.02757 -0.10646 0.06384
v 0.02412 -0.10720 0.06216
v 0.02923 -0.11101 0.06120
v 0.03215 -0.11904 0.04144
v 0.02786 -0.11747 0.03689
v 0.03168 -0.11774 0.03610
v 0.02592 -0.10190 0.02322
v 0.02043 -0.09706 0.02034
v 0.02509 -0.09962 0.01761
v 0.02114 -0.09903 0.00000
v 0.02570 -0.10132 0.00000
v 0.02528 -0.10015 -0.01439
v 0.02063 -0.09762 -0.01724
v 0.02615 -0.10254 -0.01992
v 0.03205 -0.11875 -0.03227
v 0.02823 -0.11851 -0.03311
v 0.03258 -0.12021 -0.03756
v 0.02987 -0.11276 -0.05758
v 0.02477 -0.10898 -0.05871
v 0.02824 -0.10829 -0.06037
v 0.02105 -0.08853 -0.05756
v 0.01551 -0.08355 -0.05506
v 0.01911 -0.08320 -0.05981
v 0.01110 -0.07143 -0.07091
v 0.01529 -0.07270 -0.07354
v 0.01150 -0.06230 -0.08284
v 0.00657 -0.05897 -0.08204
v 0.01078 -0.06032 -0.08854
v 0.01197 -0.06358 -0.10947
v 0.00810 -0.06320 -0.10898
v 0.01106 -0.06110 -0.11431
v 0.00431 -0.04253 -0.12286
v -0.00054 -0.03945 -0.11992
v 0.00248 -0.03751 -0.12147
v -0.00193 -0.02541 -0.10462
v -0.00620 -0.02390 -0.09820
v -0.00384 -0.02014 -0.10220
v -0.01316 -0.00479 -0.10029
v -0.00987 -0.00359 -0.10400
v -0.01479 0.00993 -0.10275
v -0.01905 0.01141 -0.09879
v -0.01668 0.01513 -0.10530
v -0.02090 0.02673 -0.12255
v -0.02448 0.02632 -0.12102
v -0.02271 0.03170 -0.12410
v -0.02956 0.05051 -0.11618
v -0.03323 0.05038 -0.11088
v -0.03051 0.05314 -0.11142
v -0.02955 0.05050 -0.09039
v -0.03199 0.04695 -0.08381
v -0.03032 0.05261 -0.08471
v -0.03741 0.06185 -0.07091
v -0.03502 0.06551 -0.07354
v -0.03820 0.07425 -0.06248
v -0.04122 0.07231 -0.05766
v -0.04015 0.07961 -0.06037
v -0.04731 0.09928 -0.06384
v -0.05043 0.09762 -0.06216
v -0.04896 0.10383 -0.06120
v -0.05189 0.11186 -0.04144
v -0.05417 0.10790 -0.03689
v -0.05141 0.11056 -0.03610
v -0.04565 0.09472 -0.02322
v -0.04674 0.08749 -0.02034
v -0.04482 0.09244 -0.01761
v -0.01646 0.07591 0.00000
v -0.01437 0.08041 0.00000
v -0.01396 0.07928 0.01384
v -0.01606 0.07483 0.01323
v -0.01339 0.07773 0.02123
v -0.01552 0.07335 0.02031
v -0.01117 0.07162 0.03766
v -0.01340 0.06750 0.03601
v -0.00985 0.06799 0.04418
v -0.01213 0.06404 0.04225
v -0.00631 0.05826 0.05690
v -0.00875 0.05473 0.05442
v -0.00267 0.04827 0.06584
v -0.00527 0.04517 0.06296
v -0.00048 0.04225 0.06990
v -0.00317 0.03942 0.06685
v 0.00506 0.02702 0.07691
v 0.00213 0.02486 0.07356
v 0.00757 0.02012 0.07880
v 0.00453 0.01826 0.07536
v 0.01316 0.00479 0.08047
v 0.00987 0.00359 0.07696
v 0.01789 -0.00821 0.07927
v 0.01439 -0.00884 0.07581
v 0.02042 -0.01517 0.07762
v 0.01681 -0.01549 0.07423
v 0.02603 -0.03060 0.07112
v 0.02218 -0.03025 0.06801
v 0.02827 -0.03673 0.06726
v 0.02432 -0.03611 0.06432
v 0.03262 -0.04868 0.05690
v 0.02848 -0.04755 0.05442
v 0.03567 -0.05708 0.04627
v 0.03140 -0.05558 0.04425
v 0.03706 -0.06090 0.03987
v 0.03273 -0.05923 0.03813
v 0.03946 -0.06749 0.02366
v 0.03503 -0.06553 0.02263
v 0.04011 -0.06926 0.01632
v 0.03564 -0.06722 0.01561
v 0.04068 -0.07083 0.00000
v 0.03619 -0.06873 0.00000
v 0.04027 -0.06970 -0.01384
v 0.03580 -0.06765 -0.01323
v 0.03970 -0.06815 -0.02123
v 0.03526 -0.06616 -0.02031
v 0.03748 -0.06204 -0.03766
v 0.03313 -0.06032 -0.03601
v 0.03616 -0.05841 -0.04418
v 0.03187 -0.05685 -0.04225
v 0.03262 -0.04868 -0.05690
v 0.02848 -0.04755 -0.05442
v 0.02898 -0.03869 -0.06584
v 0.02500 -0.03799 -0.06296
v 0.02679 -0.03268 -0.06990
v 0.02291 -0.03224 -0.06685
v 0.02125 -0.01745 -0.07691
v 0.01761 -0.01767 -0.07356
v 0.01874 -0.01055 -0.07880
v 0.01520 -0.01107 -0.07536
v 0.01316 0.00479 -0.08047
v 0.00987 0.00359 -0.07696
v 0.00842 0.01779 -0.07927
v 0.00534 0.01602 -0.07581
v 0.00589 0.02474 -0.07762
v 0.00292 0.02267 -0.07423
v 0.00028 0.04017 -0.07112
v -0.00245 0.03743 -0.06801
v -0.00196 0.04630 -0.06726
v -0.00458 0.04330 -0.06432
v -0.00631 0.05826 -0.05690
v -0.00875 0.05473 -0.05442
v -0.00936 0.06666 -0.04627
v -0.01167 0.06276 -0.04425
v -0.01075 0.07047 -0.03987
v -0.01300 0.06641 -0.03813
v -0.01315 0.07706 -0.02366
v -0.01529 0.07271 -0.02263
v -0.01380 0.07884 -0.01632
v -0.01591 0.07441 -0.01561
v -0.04068 0.07083 0.00000
v -0.03619 0.06873 0.00000
v -0.03580 0.06765 0.01323
v -0.04027 0.06970 0.01384
v -0.03526 0.06616 0.02031
v -0.03970 0.06815 0.02123
v -0.03313 0.06032 0.03601
v -0.03748 0.06204 0.03766
v -0.03187 0.05685 0.04225
v -0.03616 0.05841 0.04418
v -0.02848 0.04755 0.05442
v -0.03262 0.04868 0.05690
v -0.02500 0.03799 0.06296
v -0.02898 0.03869 0.06584
v -0.02291 0.03224 0.06685
v -0.02679 0.03268 0.06990
v -0.01761 0.01767 0.07356
v -0.02125 0.01745 0.07691
v -0.01520 0.01107 0.07536
v -0.01874 0.01055 0.07880
v -0.00987 -0.00359 0.07696
v -0.01316 -0.00479 0.08047
v -0.00534 -0.01602 0.07581
v -0.00842 -0.01779 0.07927
v -0.00292 -0.02267 0.07423
v -0.00589 -0.02474 0.07762
v 0.00245 -0.03743 0.06801
v -0.00028 -0.04017 0.07112
v 0.00458 -0.04330 0.06432
v 0.00196 -0.04630 0.06726
v 0.00875 -0.05473 0.05442
v 0.00631 -0.05826 0.05690
v 0.01167 -0.06276 0.04425
v 0.00936 -0.06666 0.04627
v 0.01300 -0.06641 0.03813
v 0.01075 -0.07047 0.03987
v 0.01529 -0.07271 0.02263
v 0.01315 -0.07706 0.02366
v 0.01591 -0.07441 0.01561
v 0.01380 -0.07884 0.01632
v 0.01646 -0.07591 0.00000
v 0.01437 -0.08041 0.00000
v 0.01606 -0.07483 -0.01323
v 0.01396 -0.07928 -0.01384
v 0.01552 -0.07335 -0.02031
v 0.01339 -0.07773 -0.02123
v 0.01340 -0.06750 -0.03601
v 0.01117 -0.07162 -0.03766
v 0.01213 -0.06404 -0.04225
v 0.00985 -0.06799 -0.04418
v 0.00875 -0.05473 -0.05442
v 0.00631 -0.05826 -0.05690
v 0.00527 -0.04517 -0.06296
v 0.00267 -0.04827 -0.06584
v 0.00317 -0.03942 -0.06685
v 0.00048 -0.04225 -0.06990
v -0.00213 -0.02486 -0.07356
v -0.00506 -0.02702 -0.07691
v -0.00453 -0.01826 -0.07536
v -0.00757 -0.02012 -0.07880
v -0.00987 -0.00359 -0.07696
v -0.01316 -0.00479 -0.08047
v -0.01439 0.00884 -0.07581
v -0.01789 0.00821 -0.07927
v -0.01681 0.01549 -0.07423
v -0.02042 0.01517 -0.07762
v -0.02218 0.03025 -0.06801
v -0.02603 0.03060 -0.07112
v -0.02432 0.03611 -0.06432
v -0.02827 0.03673 -0.06726
v -0.02848 0.04755 -0.05442
v -0.03262 0.04868 -0.05690
v -0.03140 0.05558 -0.04425
v -0.03567 0.05708 -0.04627
v -0.03273 0.05923 -0.03813
v -0.03706 0.06090 -0.03987
v -0.03503 0.06553 -0.02263
v -0.03946 0.06749 -0.02366
v -0.03564 0.06722 -0.01561
v -0.04011 0.06926 -0.01632
v -0.01617 0.01578 0.01428
v -0.01373 0.01931 0.01181
v -0.01204 0.01466 0.01181
v -0.00189 0.02362 0.01181
v 0.00224 0.02249 0.01428
v -0.00020 0.01897 0.01181
v -0.01409 0.01007 0.02036
v -0.00996 0.00894 0.01789
v -0.00996 0.00894 0.02284
v 0.00432 0.01677 0.02036
v 0.00188 0.01325 0.02284
v 0.00188 0.01325 0.01789
v -0.02922 0.05164 0.05244
v -0.02678 0.05516 0.05491
v -0.02678 0.05516 0.04996
v -0.01081 0.05834 0.05244
v -0.01494 0.05947 0.04996
v -0.01494 0.05947 0.05491
v -0.02714 0.04592 0.05852
v -0.02301 0.04480 0.06100
v -0.02470 0.04945 0.06100
v -0.00873 0.05263 0.05852
v -0.01286 0.05376 0.06100
v -0.01117 0.04911 0.06100
v -0.00432 -0.01677 0.02036
v -0.00188 -0.01325 0.02284
v -0.00188 -0.01325 0.01789
v 0.00996 -0.00894 0.02284
v 0.01409 -0.01007 0.02036
v 0.00996 -0.00894 0.01789
v -0.00224 -0.02249 0.01428
v 0.00020 -0.01897 0.01181
v 0.00189 -0.02362 0.01181
v 0.01617 -0.01578 0.01428
v 0.01373 -0.01931 0.01181
v 0.01204 -0.01466 0.01181
v 0.00873 -0.05263 0.05852
v 0.01286 -0.05376 0.06100
v 0.01117 -0.04911 0.06100
v 0.02714 -0.04592 0.05852
v 0.02301 -0.04480 0.06100
v 0.02470 -0.04945 0.06100
v 0.01081 -0.05834 0.05244
v 0.01494 -0.05947 0.04996
v 0.01494 -0.05947 0.05491
v 0.02922 -0.05164 0.05244
v 0.02678 -0.05516 0.05491
v 0.02678 -0.05516 0.04996
v -0.00224 -0.02249 -0.01428
v 0.00189 -0.02362 -0.01181
v 0.00020 -0.01897 -0.01181
v 0.01373 -0.01931 -0.01181
v 0.01617 -0.01578 -0.01428
v 0.01204 -0.01466 -0.01181
v -0.00432 -0.01677 -0.02036
v -0.00188 -0.01325 -0.01789
v -0.00188 -0.01325 -0.02284
v 0.01409 -0.01007 -0.02036
v 0.00996 -0.00894 -0.02284
v 0.00996 -0.00894 -0.01789
v 0.01081 -0.05834 -0.05244
v 0.01494 -0.05947 -0.05491
v 0.01494 -0.05947 -0.04996
v 0.02922 -0.05164 -0.05244
v 0.02678 -0.05516 -0.04996
v 0.02678 -0.05516 -0.05491
v 0.00873 -0.05263 -0.05852
v 0.01117 -0.04911 -0.06100
v 0.01286 -0.05376 -0.06100
v 0.02714 -0.04592 -0.05852
v 0.02470 -0.04945 -0.06100
v 0.02301 -0.04480 -0.06100
v -0.01409 0.01007 -0.02036
v -0.00996 0.00894 -0.02284
v -0.00996 0.00894 -0.01789
v 0.00188 0.01325 -0.02284
v 0.00432 0.01677 -0.02036
v 0.00188 0.01325 -0.01789
v -0.01617 0.01578 -0.01428
v -0.01204 0.01466 -0.01181
v -0.01373 0.01931 -0.01181
v 0.00224 0.02249 -0.01428
v -0.00189 0.02362 -0.01181
v -0.00020 0.01897 -0.01181
v -0.02714 0.04592 -0.05852
v -0.02470 0.04945 -0.06100
v -0.02301 0.04480 -0.06100
v -0.00873 0.05263 -0.05852
v -0.01117 0.04911 -0.06100
v -0.01286 0.05376 -0.06100
v -0.02922 0.05164 -0.05244
v -0.02678 0.05516 -0.04996
v -0.02678 0.05516 -0.05491
v -0.01081 0.05834 -0.05244
v -0.01494 0.05947 -0.05491
v -0.01494 0.05947 -0.04996
v -0.01973 -0.00718 0.02503
v -0.01644 -0.00599 0.02860
v 0.01973 0.00718 0.02503
v 0.01644 0.00599 0.02860
v -0.02301 0.00182 0.02313
v -0.02019 0.00430 0.02642
v 0.01646 0.01618 0.02313
v 0.01270 0.01627 0.02642
v -0.02579 0.00945 0.01770
v -0.02336 0.01302 0.02022
v 0.01368 0.02381 0.01770
v 0.00953 0.02499 0.02022
v -0.02764 0.01455 0.00958
v -0.02548 0.01884 0.01094
v 0.01182 0.02891 0.00958
v 0.00741 0.03081 0.01094
v -0.02829 0.01634 0.00000
v -0.02623 0.02089 0.00000
v 0.01117 0.03070 0.00000
v 0.00666 0.03286 0.00000
v -0.02764 0.01455 -0.00958
v -0.02548 0.01884 -0.01094
v 0.01182 0.02891 -0.00958
v 0.00741 0.03081 -0.01094
v -0.02579 0.00945 -0.01770
v -0.02336 0.01302 -0.02022
v 0.01368 0.02381 -0.01770
v 0.00953 0.02499 -0.02022
v -0.02301 0.00182 -0.02313
v -0.02019 0.00430 -0.02642
v 0.01646 0.01618 -0.02313
v 0.01270 0.01627 -0.02642
v -0.01973 -0.00718 -0.02503
v -0.01644 -0.00599 -0.02860
v 0.01973 0.00718 -0.02503
v 0.01644 0.00599 -0.02860
v -0.01646 -0.01618 -0.02313
v -0.01270 -0.01627 -0.02642
v 0.02301 -0.00182 -0.02313
v 0.02019 -0.00430 -0.02642
v -0.01368 -0.02381 -0.01770
v -0.00953 -0.02499 -0.02022
v 0.02579 -0.00945 -0.01770
v 0.02336 -0.01302 -0.02022
v -0.01182 -0.02891 -0.00958
v -0.00741 -0.03081 -0.01094
v 0.02764 -0.01455 -0.00958
v 0.02548 -0.01884 -0.01094
v -0.01117 -0.03070 0.00000
v -0.00666 -0.03286 0.00000
v 0.02829 -0.01634 0.00000
v 0.02623 -0.02089 0.00000
v -0.01182 -0.02891 0.00958
v -0.00741 -0.03081 0.01094
v 0.02764 -0.01455 0.00958
v 0.02548 -0.01884 0.01094
v -0.01368 -0.02381 0.01770
v -0.00953 -0.02499 0.02022
v 0.02579 -0.00945 0.01770
v 0.02336 -0.01302 0.02022
v -0.01646 -0.01618 0.02313
v -0.01270 -0.01627 0.02642
v 0.02301 -0.00182 0.02313
v 0.02019 -0.00430 0.02642
f 3 4 5
f 6 7 8
f 9 10 11
f 12 13 14
f 17 18 19
f 20 21 22
f 23 24 25
f 26 27 28
f 31 32 33
f 34 35 36
f 37 38 39
f 40 41 42
f 45 46 47
f 48 49 50
f 51 52 53
f 54 55 56
f 59 60 61
f 62 63 64
f 65 66 67
f 68 69 70
f 73 74 75
f 76 77 78
f 79 80 81
f 82 83 84
f 87 88 89
f 90 91 92
f 93 94 95
f 96 97 98
f 101 102 103
f 104 105 106
f 107 108 109
f 110 111 112
f 115 116 117
f 118 119 120
f 121 122 123
f 124 125 126
f 129 130 131
f 132 133 134
f 135 136 137
f 138 139 140
f 143 144 145
f 146 147 148
f 149 150 151
f 152 153 154
f 157 158 159
f 160 161 162
f 163 164 165
f 166 167 168
f 171 172 173
f 174 175 176
f 177 178 179
f 180 181 182
f 185 186 187
f 188 189 190
f 191 192 193
f 194 195 196
f 199 200 201
f 202 203 204
f 205 206 207
f 208 209 210
f 213 214 215
f 216 217 218
f 219 220 221
f 222 223 224
f 385 386 387
f 388 389 390
f 391 392 393
f 394 395 396
f 397 398 399
f 400 401 402
f 403 404 405
f 406 407 408
f 409 410 411
f 412 413 414
f 415 416 417
f 418 419 420
f 421 422 423
f 424 425 426
f 427 428 429
f 430 431 432
f 433 434 435
f 436 437 438
f 439 440 441
f 442 443 444
f 445 446 447
f 448 449 450
f 451 452 453
f 454 455 456
f 457 458 459
f 460 461 462
f 463 464 465
f 466 467 468
f 469 470 471
f 472 473 474
f 475 476 477
f 478 479 480
f 3 1 2
f 228 226 227
f 115 114 116
f 307 305 306
f 117 3 115
f 4 8 5
f 230 227 229
f 117 119 118
f 309 308 307
f 120 6 118
f 9 8 7
f 230 231 232
f 120 122 121
f 309 312 310
f 10 121 123
f 12 11 10
f 234 231 233
f 124 122 125
f 311 314 312
f 13 124 126
f 13 16 14
f 236 233 235
f 126 127 128
f 313 316 314
f 17 16 15
f 238 235 237
f 129 127 130
f 315 318 316
f 131 17 129
f 18 22 19
f 238 239 240
f 131 133 132
f 317 320 318
f 21 132 134
f 21 25 22
f 242 239 241
f 134 136 135
f 319 322 320
f 137 23 135
f 26 25 24
f 244 241 243
f 138 136 139
f 321 324 322
f 140 26 138
f 27 30 28
f 244 245 246
f 140 141 142
f 323 326 324
f 31 30 29
f 246 247 248
f 143 141 144
f 325 328 326
f 32 143 145
f 32 36 33
f 250 247 249
f 145 147 146
f 327 330 328
f 35 146 148
f 35 39 36
f 252 249 251
f 149 147 150
f 329 332 330
f 151 37 149
f 40 39 38
f 252 253 254
f 152 150 153
f 333 332 331
f 154 40 152
f 41 44 42
f 256 253 255
f 154 155 156
f 335 334 333
f 45 44 43
f 258 255 257
f 157 155 158
f 337 336 335
f 46 157 159
f 46 50 47
f 258 259 260
f 159 161 160
f 339 338 337
f 162 48 160
f 49 53 50
f 262 259 261
f 163 161 164
f 341 340 339
f 52 163 165
f 54 53 52
f 262 263 264
f 166 164 167
f 343 342 341
f 168 54 166
f 55 58 56
f 266 263 265
f 168 169 170
f 343 346 344
f 59 58 57
f 268 265 267
f 171 169 172
f 347 346 345
f 173 59 171
f 60 64 61
f 270 267 269
f 173 175 174
f 349 348 347
f 176 62 174
f 63 67 64
f 270 271 272
f 176 178 177
f 351 350 349
f 66 177 179
f 68 67 66
f 272 273 274
f 180 178 181
f 351 354 352
f 69 180 182
f 69 72 70
f 276 273 275
f 182 183 184
f 355 354 353
f 73 72 71
f 278 275 277
f 185 183 186
f 357 356 355
f 74 185 187
f 74 78 75
f 278 279 280
f 187 189 188
f 357 360 358
f 190 76 188
f 79 78 77
f 282 279 281
f 191 189 192
f 359 362 360
f 193 79 191
f 82 81 80
f 282 283 284
f 194 192 195
f 361 364 362
f 196 82 194
f 83 86 84
f 284 285 286
f 196 197 198
f 365 364 363
f 87 86 85
f 286 287 288
f 199 197 200
f 365 368 366
f 88 199 201
f 88 92 89
f 290 287 289
f 201 203 202
f 367 370 368
f 204 90 202
f 91 95 92
f 290 291 292
f 204 206 205
f 369 372 370
f 94 205 207
f 96 95 94
f 292 293 294
f 208 206 209
f 371 374 372
f 210 96 208
f 97 100 98
f 296 293 295
f 210 211 212
f 375 374 373
f 101 100 99
f 296 297 298
f 213 211 214
f 375 378 376
f 215 101 213
f 102 106 103
f 300 297 299
f 215 217 216
f 379 378 377
f 105 216 218
f 107 106 105
f 302 299 301
f 218 220 219
f 381 380 379
f 108 219 221
f 110 109 108
f 304 301 303
f 222 220 223
f 383 382 381
f 224 110 222
f 111 1 112
f 225 303 226
f 224 114 113
f 306 384 383
f 391 387 392
f 386 390 387
f 389 396 390
f 395 392 396
f 391 404 403
f 394 408 395
f 407 404 408
f 403 398 397
f 400 407 406
f 399 402 401
f 385 399 386
f 400 388 401
f 415 411 416
f 410 414 411
f 418 414 413
f 419 416 420
f 415 428 427
f 418 432 419
f 429 432 431
f 421 429 422
f 430 426 431
f 425 422 426
f 421 410 409
f 413 425 424
f 433 440 439
f 434 438 435
f 442 438 437
f 441 444 443
f 439 452 451
f 442 456 443
f 455 452 456
f 451 446 445
f 448 455 454
f 449 446 450
f 433 447 434
f 448 436 449
f 457 464 463
f 458 462 459
f 461 468 462
f 467 464 468
f 475 465 476
f 478 467 466
f 479 476 480
f 475 470 469
f 478 474 479
f 473 470 474
f 457 471 458
f 461 473 472
f 486 481 482
f 484 487 488
f 490 485 486
f 492 487 491
f 490 493 489
f 492 495 496
f 498 493 494
f 500 495 499
f 498 501 497
f 500 503 504
f 506 501 502
f 504 507 508
f 510 505 506
f 508 511 512
f 514 509 510
f 516 511 515
f 514 517 513
f 516 519 520
f 522 517 518
f 524 519 523
f 526 521 522
f 524 527 528
f 526 529 525
f 532 527 531
f 534 529 530
f 532 535 536
f 538 533 534
f 540 535 539
f 538 541 537
f 544 539 543
f 482 541 542
f 544 483 484
f 112 226 303
f 5 226 1
f 113 3 2
f 113 111 224
f 118 4 117
f 5 229 227
f 121 7 120
f 11 229 8
f 124 10 123
f 14 231 11
f 128 13 126
f 14 235 233
f 129 15 128
f 19 235 16
f 132 18 131
f 19 239 237
f 135 21 134
f 22 241 239
f 138 24 137
f 28 241 25
f 140 29 27
f 28 245 243
f 142 31 29
f 33 245 30
f 145 34 32
f 33 249 247
f 149 35 148
f 36 251 249
f 152 38 151
f 42 251 39
f 156 41 154
f 42 255 253
f 156 45 43
f 47 255 44
f 159 48 46
f 47 259 257
f 163 49 162
f 53 259 50
f 165 54 52
f 56 261 53
f 170 55 168
f 56 265 263
f 171 57 170
f 61 265 58
f 173 62 60
f 61 269 267
f 176 65 63
f 67 269 64
f 179 68 66
f 70 271 67
f 184 69 182
f 70 275 273
f 184 73 71
f 75 275 72
f 188 74 187
f 75 279 277
f 191 77 190
f 78 281 279
f 193 82 80
f 84 281 81
f 198 83 196
f 84 285 283
f 199 85 198
f 89 285 86
f 201 90 88
f 89 289 287
f 204 93 91
f 92 291 289
f 208 94 207
f 98 291 95
f 210 99 97
f 98 295 293
f 213 99 212
f 103 295 100
f 215 104 102
f 103 299 297
f 218 107 105
f 109 299 106
f 222 108 221
f 112 301 109
f 116 305 308
f 223 305 114
f 116 310 119
f 122 310 312
f 125 312 314
f 125 316 127
f 130 316 318
f 130 320 133
f 133 322 136
f 139 322 324
f 139 326 141
f 144 326 328
f 144 330 147
f 147 332 150
f 153 332 334
f 153 336 155
f 158 336 338
f 158 340 161
f 164 340 342
f 167 342 344
f 167 346 169
f 172 346 348
f 172 350 175
f 178 350 352
f 181 352 354
f 181 356 183
f 186 356 358
f 186 360 189
f 189 362 192
f 195 362 364
f 195 366 197
f 200 366 368
f 200 370 203
f 203 372 206
f 209 372 374
f 209 376 211
f 214 376 378
f 214 380 217
f 220 380 382
f 223 382 384
f 225 307 306
f 304 306 383
f 230 307 228
f 230 311 309
f 232 313 311
f 234 315 313
f 238 315 236
f 240 317 238
f 240 321 319
f 242 323 321
f 244 325 323
f 248 325 246
f 248 329 327
f 250 331 329
f 252 333 331
f 256 333 254
f 258 335 256
f 260 337 258
f 262 339 260
f 262 343 341
f 266 343 264
f 266 347 345
f 268 349 347
f 272 349 270
f 272 353 351
f 276 353 274
f 276 357 355
f 278 359 357
f 280 361 359
f 284 361 282
f 286 363 284
f 286 367 365
f 290 367 288
f 290 371 369
f 294 371 292
f 294 375 373
f 298 375 296
f 300 377 298
f 300 381 379
f 304 381 302
f 391 397 385
f 387 396 392
f 399 388 386
f 394 400 406
f 395 404 393
f 405 402 398
f 427 409 415
f 414 416 411
f 423 412 410
f 430 413 424
f 419 428 417
f 429 426 422
f 439 445 433
f 435 444 440
f 449 434 447
f 442 448 454
f 441 456 452
f 453 450 446
f 475 457 463
f 462 464 459
f 471 460 458
f 478 461 472
f 465 480 476
f 479 470 477
f 493 509 525
f 484 486 482
f 544 482 542
f 523 507 491
f 486 492 490
f 492 494 490
f 494 500 498
f 500 502 498
f 504 506 502
f 508 510 506
f 512 514 510
f 514 520 518
f 518 524 522
f 522 528 526
f 528 530 526
f 530 536 534
f 534 540 538
f 540 542 538
f 3 5 1
f 228 225 226
f 115 113 114
f 307 308 305
f 117 4 3
f 4 6 8
f 230 228 227
f 117 116 119
f 309 310 308
f 120 7 6
f 9 11 8
f 230 229 231
f 120 119 122
f 309 311 312
f 10 9 121
f 12 14 11
f 234 232 231
f 124 123 122
f 311 313 314
f 13 12 124
f 13 15 16
f 236 234 233
f 126 125 127
f 313 315 316
f 17 19 16
f 238 236 235
f 129 128 127
f 315 317 318
f 131 18 17
f 18 20 22
f 238 237 239
f 131 130 133
f 317 319 320
f 21 20 132
f 21 23 25
f 242 240 239
f 134 133 136
f 319 321 322
f 137 24 23
f 26 28 25
f 244 242 241
f 138 137 136
f 321 323 324
f 140 27 26
f 27 29 30
f 244 243 245
f 140 139 141
f 323 325 326
f 31 33 30
f 246 245 247
f 143 142 141
f 325 327 328
f 32 31 143
f 32 34 36
f 250 248 247
f 145 144 147
f 327 329 330
f 35 34 146
f 35 37 39
f 252 250 249
f 149 148 147
f 329 331 332
f 151 38 37
f 40 42 39
f 252 251 253
f 152 151 150
f 333 334 332
f 154 41 40
f 41 43 44
f 256 254 253
f 154 153 155
f 335 336 334
f 45 47 44
f 258 256 255
f 157 156 155
f 337 338 336
f 46 45 157
f 46 48 50
f 258 257 259
f 159 158 161
f 339 340 338
f 162 49 48
f 49 51 53
f 262 260 259
f 163 162 161
f 341 342 340
f 52 51 163
f 54 56 53
f 262 261 263
f 166 165 164
f 343 344 342
f 168 55 54
f 55 57 58
f 266 264 263
f 168 167 169
f 343 345 346
f 59 61 58
f 268 266 265
f 171 170 169
f 347 348 346
f 173 60 59
f 60 62 64
f 270 268 267
f 173 172 175
f 349 350 348
f 176 63 62
f 63 65 67
f 270 269 271
f 176 175 178
f 351 352 350
f 66 65 177
f 68 70 67
f 272 271 273
f 180 179 178
f 351 353 354
f 69 68 180
f 69 71 72
f 276 274 273
f 182 181 183
f 355 356 354
f 73 75 72
f 278 276 275
f 185 184 183
f 357 358 356
f 74 73 185
f 74 76 78
f 278 277 279
f 187 186 189
f 357 359 360
f 190 77 76
f 79 81 78
f 282 280 279
f 191 190 189
f 359 361 362
f 193 80 79
f 82 84 81
f 282 281 283
f 194 193 192
f 361 363 364
f 196 83 82
f 83 85 86
f 284 283 285
f 196 195 197
f 365 366 364
f 87 89 86
f 286 285 287
f 199 198 197
f 365 367 368
f 88 87 199
f 88 90 92
f 290 288 287
f 201 200 203
f 367 369 370
f 204 91 90
f 91 93 95
f 290 289 291
f 204 203 206
f 369 371 372
f 94 93 205
f 96 98 95
f 292 291 293
f 208 207 206
f 371 373 374
f 210 97 96
f 97 99 100
f 296 294 293
f 210 209 211
f 375 376 374
f 101 103 100
f 296 295 297
f 213 212 211
f 375 377 378
f 215 102 101
f 102 104 106
f 300 298 297
f 215 214 217
f 379 380 378
f 105 104 216
f 107 109 106
f 302 300 299
f 218 217 220
f 381 382 380
f 108 107 219
f 110 112 109
f 304 302 301
f 222 221 220
f 383 384 382
f 224 111 110
f 111 2 1
f 225 304 303
f 224 223 114
f 306 305 384
f 391 385 387
f 386 388 390
f 389 394 396
f 395 393 392
f 391 393 404
f 394 406 408
f 407 405 404
f 403 405 398
f 400 402 407
f 399 398 402
f 385 397 399
f 400 389 388
f 415 409 411
f 410 412 414
f 418 420 414
f 419 417 416
f 415 417 428
f 418 430 432
f 429 428 432
f 421 427 429
f 430 424 426
f 425 423 422
f 421 423 410
f 413 412 425
f 433 435 440
f 434 436 438
f 442 444 438
f 441 440 444
f 439 441 452
f 442 454 456
f 455 453 452
f 451 453 446
f 448 450 455
f 449 447 446
f 433 445 447
f 448 437 436
f 457 459 464
f 458 460 462
f 461 466 468
f 467 465 464
f 475 463 465
f 478 480 467
f 479 477 476
f 475 477 470
f 478 472 474
f 473 471 470
f 457 469 471
f 461 460 473
f 486 485 481
f 484 483 487
f 490 489 485
f 492 488 487
f 490 494 493
f 492 491 495
f 498 497 493
f 500 496 495
f 498 502 501
f 500 499 503
f 506 505 501
f 504 503 507
f 510 509 505
f 508 507 511
f 514 513 509
f 516 512 511
f 514 518 517
f 516 515 519
f 522 521 517
f 524 520 519
f 526 525 521
f 524 523 527
f 526 530 529
f 532 528 527
f 534 533 529
f 532 531 535
f 538 537 533
f 540 536 535
f 538 542 541
f 544 540 539
f 482 481 541
f 544 543 483
f 112 1 226
f 5 227 226
f 113 115 3
f 113 2 111
f 118 6 4
f 5 8 229
f 121 9 7
f 11 231 229
f 124 12 10
f 14 233 231
f 128 15 13
f 14 16 235
f 129 17 15
f 19 237 235
f 132 20 18
f 19 22 239
f 135 23 21
f 22 25 241
f 138 26 24
f 28 243 241
f 140 142 29
f 28 30 245
f 142 143 31
f 33 247 245
f 145 146 34
f 33 36 249
f 149 37 35
f 36 39 251
f 152 40 38
f 42 253 251
f 156 43 41
f 42 44 255
f 156 157 45
f 47 257 255
f 159 160 48
f 47 50 259
f 163 51 49
f 53 261 259
f 165 166 54
f 56 263 261
f 170 57 55
f 56 58 265
f 171 59 57
f 61 267 265
f 173 174 62
f 61 64 269
f 176 177 65
f 67 271 269
f 179 180 68
f 70 273 271
f 184 71 69
f 70 72 275
f 184 185 73
f 75 277 275
f 188 76 74
f 75 78 279
f 191 79 77
f 78 81 281
f 193 194 82
f 84 283 281
f 198 85 83
f 84 86 285
f 199 87 85
f 89 287 285
f 201 202 90
f 89 92 289
f 204 205 93
f 92 95 291
f 208 96 94
f 98 293 291
f 210 212 99
f 98 100 295
f 213 101 99
f 103 297 295
f 215 216 104
f 103 106 299
f 218 219 107
f 109 301 299
f 222 110 108
f 112 303 301
f 116 114 305
f 223 384 305
f 116 308 310
f 122 119 310
f 125 122 312
f 125 314 316
f 130 127 316
f 130 318 320
f 133 320 322
f 139 136 322
f 139 324 326
f 144 141 326
f 144 328 330
f 147 330 332
f 153 150 332
f 153 334 336
f 158 155 336
f 158 338 340
f 164 161 340
f 167 164 342
f 167 344 346
f 172 169 346
f 172 348 350
f 178 175 350
f 181 178 352
f 181 354 356
f 186 183 356
f 186 358 360
f 189 360 362
f 195 192 362
f 195 364 366
f 200 197 366
f 200 368 370
f 203 370 372
f 209 206 372
f 209 374 376
f 214 211 376
f 214 378 380
f 220 217 380
f 223 220 382
f 225 228 307
f 304 225 306
f 230 309 307
f 230 232 311
f 232 234 313
f 234 236 315
f 238 317 315
f 240 319 317
f 240 242 321
f 242 244 323
f 244 246 325
f 248 327 325
f 248 250 329
f 250 252 331
f 252 254 333
f 256 335 333
f 258 337 335
f 260 339 337
f 262 341 339
f 262 264 343
f 266 345 343
f 266 268 347
f 268 270 349
f 272 351 349
f 272 274 353
f 276 355 353
f 276 278 357
f 278 280 359
f 280 282 361
f 284 363 361
f 286 365 363
f 286 288 367
f 290 369 367
f 290 292 371
f 294 373 371
f 294 296 375
f 298 377 375
f 300 379 377
f 300 302 381
f 304 383 381
f 391 403 397
f 387 390 396
f 399 401 388
f 394 389 400
f 395 408 404
f 405 407 402
f 427 421 409
f 414 420 416
f 423 425 412
f 430 418 413
f 419 432 428
f 429 431 426
f 439 451 445
f 435 438 444
f 449 436 434
f 442 437 448
f 441 443 456
f 453 455 450
f 475 469 457
f 462 468 464
f 471 473 460
f 478 466 461
f 465 467 480
f 479 474 470
f 541 481 493
f 481 485 493
f 485 489 493
f 493 497 501
f 501 505 493
f 505 509 493
f 509 513 525
f 513 517 525
f 517 521 525
f 525 529 533
f 533 537 525
f 537 541 525
f 541 493 525
f 484 488 486
f 544 484 482
f 491 487 483
f 483 543 539
f 539 535 531
f 531 527 523
f 523 519 515
f 515 511 507
f 507 503 499
f 499 495 491
f 491 483 539
f 539 531 523
f 523 515 507
f 507 499 491
f 491 539 523
f 486 488 492
f 492 496 494
f 494 496 500
f 500 504 502
f 504 508 506
f 508 512 510
f 512 516 514
f 514 516 520
f 518 520 524
f 522 524 528
f 528 532 530
f 530 532 536
f 534 536 540
f 540 544 542
