# clockwork Gear6_Glow.obj: Roblox cue frame, recentred on its bounding box
v -0.08496 -0.02196 0.01367
v -0.08594 -0.02242 0.00000
v 0.01057 -0.02266 0.01820
v -0.01057 0.02266 0.01820
v 0.00425 -0.02560 0.01681
v -0.01688 0.01971 0.01681
v -0.00110 -0.02810 0.01287
v -0.02223 0.01722 0.01287
v -0.00467 -0.02976 0.00696
v -0.02580 0.01555 0.00696
v -0.00593 -0.03035 0.00000
v -0.02706 0.01497 0.00000
v -0.00467 -0.02976 -0.00696
v -0.02580 0.01555 -0.00696
v -0.00110 -0.02810 -0.01287
v -0.02223 0.01722 -0.01287
v 0.00425 -0.02560 -0.01681
v -0.01688 0.01971 -0.01681
v 0.01057 -0.02266 -0.01820
v -0.01057 0.02266 -0.01820
v 0.01688 -0.01971 -0.01681
v -0.00425 0.02560 -0.01681
v 0.02223 -0.01722 -0.01287
v 0.00110 0.02810 -0.01287
v 0.02580 -0.01555 -0.00696
v 0.00467 0.02976 -0.00696
v 0.02706 -0.01497 0.00000
v 0.00593 0.03035 0.00000
v 0.02580 -0.01555 0.00696
v 0.00467 0.02976 0.00696
v 0.02223 -0.01722 0.01287
v 0.00110 0.02810 0.01287
v 0.01688 -0.01971 0.01681
v -0.00425 0.02560 0.01681
v -0.08206 -0.02061 0.02700
v -0.07731 -0.01839 0.03966
v -0.07082 -0.01537 0.05135
v -0.06275 -0.01161 0.06177
v -0.05330 -0.00720 0.07068
v -0.04271 -0.00226 0.07784
v -0.03123 0.00309 0.08308
v -0.01915 0.00873 0.08628
v -0.00676 0.01450 0.08736
v 0.00562 0.02028 0.08628
v 0.01770 0.02591 0.08308
v 0.02918 0.03126 0.07784
v 0.03978 0.03620 0.07068
v 0.04922 0.04061 0.06177
v 0.05729 0.04437 0.05135
v 0.06378 0.04740 0.03966
v 0.06854 0.04961 0.02700
v 0.07144 0.05097 0.01367
v 0.07241 0.05142 0.00000
v 0.07144 0.05097 -0.01367
v 0.06854 0.04961 -0.02700
v 0.06378 0.04740 -0.03966
v 0.05729 0.04437 -0.05135
v 0.04922 0.04061 -0.06177
v 0.03978 0.03620 -0.07068
v 0.02918 0.03126 -0.07784
v 0.01770 0.02591 -0.08308
v 0.00562 0.02028 -0.08628
v -0.00676 0.01450 -0.08736
v -0.01915 0.00873 -0.08628
v -0.03123 0.00309 -0.08308
v -0.04271 -0.00226 -0.07784
v -0.05330 -0.00720 -0.07068
v -0.06275 -0.01161 -0.06177
v -0.07082 -0.01537 -0.05135
v -0.07731 -0.01839 -0.03966
v -0.08206 -0.02061 -0.02700
v -0.08496 -0.02196 -0.01367
v -0.09609 -0.02715 0.00000
v -0.09499 -0.02664 0.01542
v -0.09172 -0.02511 0.03046
v -0.08635 -0.02261 0.04475
v -0.07903 -0.01920 0.05793
v -0.06992 -0.01495 0.06969
v -0.05927 -0.00998 0.07974
v -0.04731 -0.00441 0.08782
v -0.03437 0.00163 0.09374
v -0.02074 0.00798 0.09735
v -0.00676 0.01450 0.09856
v 0.00721 0.02102 0.09735
v 0.02084 0.02737 0.09374
v 0.03379 0.03341 0.08782
v 0.04574 0.03898 0.07974
v 0.05640 0.04395 0.06969
v 0.06550 0.04820 0.05793
v 0.07283 0.05161 0.04475
v 0.07819 0.05412 0.03046
v 0.08146 0.05564 0.01542
v 0.08256 0.05615 0.00000
v 0.08146 0.05564 -0.01542
v 0.07819 0.05412 -0.03046
v 0.07283 0.05161 -0.04475
v 0.06550 0.04820 -0.05793
v 0.05640 0.04395 -0.06969
v 0.04574 0.03898 -0.07974
v 0.03379 0.03341 -0.08782
v 0.02084 0.02737 -0.09374
v 0.00721 0.02102 -0.09735
v -0.00676 0.01450 -0.09856
v -0.02074 0.00798 -0.09735
v -0.03437 0.00163 -0.09374
v -0.04731 -0.00441 -0.08782
v -0.05927 -0.00998 -0.07974
v -0.06992 -0.01495 -0.06969
v -0.07903 -0.01920 -0.05793
v -0.08635 -0.02261 -0.04475
v -0.09172 -0.02511 -0.03046
v -0.09499 -0.02664 -0.01542
v -0.07241 -0.05142 0.00000
v -0.07144 -0.05097 0.01367
v -0.06854 -0.04961 0.02700
v -0.06378 -0.04740 0.03966
v -0.05729 -0.04437 0.05135
v -0.04922 -0.04061 0.06177
v -0.03978 -0.03620 0.07068
v -0.02918 -0.03126 0.07784
v -0.01770 -0.02591 0.08308
v -0.00562 -0.02028 0.08628
v 0.00676 -0.01450 0.08736
v 0.01915 -0.00873 0.08628
v 0.03123 -0.00309 0.08308
v 0.04271 0.00226 0.07784
v 0.05330 0.00720 0.07068
v 0.06275 0.01161 0.06177
v 0.07082 0.01537 0.05135
v 0.07731 0.01839 0.03966
v 0.08206 0.02061 0.02700
v 0.08496 0.02196 0.01367
v 0.08594 0.02242 0.00000
v 0.08496 0.02196 -0.01367
v 0.08206 0.02061 -0.02700
v 0.07731 0.01839 -0.03966
v 0.07082 0.01537 -0.05135
v 0.06275 0.01161 -0.06177
v 0.05330 0.00720 -0.07068
v 0.04271 0.00226 -0.07784
v 0.03123 -0.00309 -0.08308
v 0.01915 -0.00873 -0.08628
v 0.00676 -0.01450 -0.08736
v -0.00562 -0.02028 -0.08628
v -0.01770 -0.02591 -0.08308
v -0.02918 -0.03126 -0.07784
v -0.03978 -0.03620 -0.07068
v -0.04922 -0.04061 -0.06177
v -0.05729 -0.04437 -0.05135
v -0.06378 -0.04740 -0.03966
v -0.06854 -0.04961 -0.02700
v -0.07144 -0.05097 -0.01367
v -0.08256 -0.05615 0.00000
v -0.08146 -0.05564 0.01542
v -0.07819 -0.05412 0.03046
v -0.07283 -0.05161 0.04475
v -0.06550 -0.04820 0.05793
v -0.05640 -0.04395 0.06969
v -0.04574 -0.03898 0.07974
v -0.03379 -0.03341 0.08782
v -0.02084 -0.02737 0.09374
v -0.00721 -0.02102 0.09735
v 0.00676 -0.01450 0.09856
v 0.02074 -0.00798 0.09735
v 0.03437 -0.00163 0.09374
v 0.04731 0.00441 0.08782
v 0.05927 0.00998 0.07974
v 0.06992 0.01495 0.06969
v 0.07903 0.01920 0.05793
v 0.08635 0.02261 0.04475
v 0.09172 0.02511 0.03046
v 0.09499 0.02664 0.01542
v 0.09609 0.02715 0.00000
v 0.09499 0.02664 -0.01542
v 0.09172 0.02511 -0.03046
v 0.08635 0.02261 -0.04475
v 0.07903 0.01920 -0.05793
v 0.06992 0.01495 -0.06969
v 0.05927 0.00998 -0.07974
v 0.04731 0.00441 -0.08782
v 0.03437 -0.00163 -0.09374
v 0.02074 -0.00798 -0.09735
v 0.00676 -0.01450 -0.09856
v -0.00721 -0.02102 -0.09735
v -0.02084 -0.02737 -0.09374
v -0.03379 -0.03341 -0.08782
v -0.04574 -0.03898 -0.07974
v -0.05640 -0.04395 -0.06969
v -0.06550 -0.04820 -0.05793
v -0.07283 -0.05161 -0.04475
v -0.07819 -0.05412 -0.03046
v -0.08146 -0.05564 -0.01542
f 62 103 102
f 47 88 87
f 3 6 5
f 64 103 63
f 47 86 46
f 6 7 5
f 60 101 100
f 46 85 45
f 7 10 9
f 59 100 99
f 44 85 84
f 9 12 11
f 59 98 58
f 44 83 43
f 11 14 13
f 58 97 57
f 42 83 82
f 13 16 15
f 57 96 56
f 42 81 41
f 15 18 17
f 56 95 55
f 40 81 80
f 18 19 17
f 54 95 94
f 39 80 79
f 19 22 21
f 53 94 93
f 39 78 38
f 22 23 21
f 53 92 52
f 38 77 37
f 23 26 25
f 52 91 51
f 37 76 36
f 25 28 27
f 50 91 90
f 36 75 35
f 28 29 27
f 49 90 89
f 1 75 74
f 29 32 31
f 20 16 8
f 2 74 73
f 31 34 33
f 62 101 61
f 48 89 88
f 33 4 3
f 9 17 25
f 64 105 104
f 66 105 65
f 67 106 66
f 67 108 107
f 68 109 108
f 69 110 109
f 70 111 110
f 72 111 71
f 2 112 72
f 154 113 153
f 155 114 154
f 155 116 115
f 156 117 116
f 157 118 117
f 158 119 118
f 160 119 159
f 161 120 160
f 161 122 121
f 163 122 162
f 163 124 123
f 165 124 164
f 165 126 125
f 166 127 126
f 168 127 167
f 169 128 168
f 170 129 169
f 171 130 170
f 171 132 131
f 172 133 132
f 174 133 173
f 175 134 174
f 175 136 135
f 176 137 136
f 177 138 137
f 178 139 138
f 180 139 179
f 181 140 180
f 181 142 141
f 183 142 182
f 183 144 143
f 185 144 184
f 185 146 145
f 186 147 146
f 188 147 187
f 189 148 188
f 190 149 189
f 191 150 190
f 191 152 151
f 192 113 152
f 62 63 103
f 47 48 88
f 3 4 6
f 64 104 103
f 47 87 86
f 6 8 7
f 60 61 101
f 46 86 85
f 7 8 10
f 59 60 100
f 44 45 85
f 9 10 12
f 59 99 98
f 44 84 83
f 11 12 14
f 58 98 97
f 42 43 83
f 13 14 16
f 57 97 96
f 42 82 81
f 15 16 18
f 56 96 95
f 40 41 81
f 18 20 19
f 54 55 95
f 39 40 80
f 19 20 22
f 53 54 94
f 39 79 78
f 22 24 23
f 53 93 92
f 38 78 77
f 23 24 26
f 52 92 91
f 37 77 76
f 25 26 28
f 50 51 91
f 36 76 75
f 28 30 29
f 49 50 90
f 1 35 75
f 29 30 32
f 8 6 4
f 4 34 32
f 32 30 24
f 30 28 24
f 28 26 24
f 24 22 20
f 20 18 16
f 16 14 8
f 14 12 8
f 12 10 8
f 8 4 24
f 4 32 24
f 24 20 8
f 2 1 74
f 31 32 34
f 62 102 101
f 48 49 89
f 33 34 4
f 33 3 9
f 3 5 9
f 5 7 9
f 9 11 13
f 13 15 17
f 17 19 25
f 19 21 25
f 21 23 25
f 25 27 29
f 29 31 33
f 9 13 17
f 25 29 33
f 33 9 25
f 64 65 105
f 66 106 105
f 67 107 106
f 67 68 108
f 68 69 109
f 69 70 110
f 70 71 111
f 72 112 111
f 2 73 112
f 154 114 113
f 155 115 114
f 155 156 116
f 156 157 117
f 157 158 118
f 158 159 119
f 160 120 119
f 161 121 120
f 161 162 122
f 163 123 122
f 163 164 124
f 165 125 124
f 165 166 126
f 166 167 127
f 168 128 127
f 169 129 128
f 170 130 129
f 171 131 130
f 171 172 132
f 172 173 133
f 174 134 133
f 175 135 134
f 175 176 136
f 176 177 137
f 177 178 138
f 178 179 139
f 180 140 139
f 181 141 140
f 181 182 142
f 183 143 142
f 183 184 144
f 185 145 144
f 185 186 146
f 186 187 147
f 188 148 147
f 189 149 148
f 190 150 149
f 191 151 150
f 191 192 152
f 192 153 113
