# clockwork Gear7_Brass.obj: Roblox cue frame, recentred on its bounding box
v 0.16975 0.04668 -0.00028
v 0.17203 0.05123 -0.00028
v 0.17034 0.05062 0.02315
v 0.17288 0.05154 0.02849
v 0.16783 0.04598 0.02607
v 0.20479 0.06316 0.04960
v 0.20650 0.06378 0.05475
v 0.20466 0.05938 0.05039
v 0.19539 0.05974 0.08869
v 0.19104 0.05815 0.09160
v 0.19166 0.05465 0.09010
v 0.15371 0.04457 0.08705
v 0.14857 0.04269 0.08952
v 0.14861 0.03898 0.08482
v 0.13334 0.03715 0.11285
v 0.13187 0.03289 0.11047
v 0.11788 0.03152 0.12964
v 0.11661 0.03106 0.13547
v 0.11448 0.02656 0.12935
v 0.12830 0.03532 0.17347
v 0.12650 0.03466 0.17859
v 0.12801 0.03148 0.17316
v 0.09749 0.02410 0.19699
v 0.09240 0.02225 0.19624
v 0.09406 0.01913 0.19470
v 0.06656 0.01284 0.16722
v 0.06112 0.01086 0.16560
v 0.06427 0.00829 0.16120
v 0.03536 0.00149 0.17304
v 0.03596 -0.00202 0.16939
v 0.01338 -0.00651 0.17534
v 0.00888 -0.00815 0.17893
v 0.01123 -0.01102 0.17197
v -0.00511 -0.01324 0.21603
v -0.00958 -0.01487 0.21872
v -0.00487 -0.01688 0.21478
v -0.04292 -0.02700 0.21298
v -0.04636 -0.02826 0.20892
v -0.04388 -0.03108 0.20806
v -0.04864 -0.02908 0.16901
v -0.05182 -0.03024 0.16405
v -0.04647 -0.03202 0.16202
v -0.07605 -0.03906 0.15214
v -0.07311 -0.04172 0.14893
v -0.09427 -0.04569 0.13886
v -0.09989 -0.04774 0.13853
v -0.09360 -0.04917 0.13399
v -0.13302 -0.05980 0.15738
v -0.13807 -0.06163 0.15639
v -0.13180 -0.06308 0.15577
v -0.16014 -0.06967 0.12918
v -0.16033 -0.06974 0.12372
v -0.15763 -0.07248 0.12393
v -0.13796 -0.06159 0.09159
v -0.13740 -0.06139 0.08561
v -0.13180 -0.06308 0.08690
v -0.14877 -0.06553 0.05991
v -0.14430 -0.06763 0.05864
v -0.15471 -0.06769 0.03727
v -0.15881 -0.06918 0.03318
v -0.15097 -0.07005 0.03318
v -0.19558 -0.08257 0.02496
v -0.19885 -0.08375 0.02074
v -0.19339 -0.08549 0.02374
v -0.19932 -0.08393 -0.01519
v -0.19616 -0.08278 -0.01951
v -0.19394 -0.08570 -0.01832
v -0.15962 -0.06948 -0.02882
v -0.15558 -0.06801 -0.03302
v -0.15179 -0.07035 -0.02902
v -0.14877 -0.06553 -0.06048
v -0.14430 -0.06763 -0.05921
v -0.13964 -0.06221 -0.08189
v -0.14031 -0.06245 -0.08783
v -0.13403 -0.06389 -0.08328
v -0.16352 -0.07090 -0.11928
v -0.16347 -0.07088 -0.12474
v -0.16082 -0.07364 -0.11953
v -0.14213 -0.06311 -0.15259
v -0.13710 -0.06128 -0.15374
v -0.13584 -0.06455 -0.15213
v -0.10349 -0.04905 -0.13588
v -0.09786 -0.04700 -0.13633
v -0.09709 -0.05044 -0.13149
v -0.07605 -0.03906 -0.15270
v -0.07311 -0.04172 -0.14949
v -0.05613 -0.03181 -0.16286
v -0.05306 -0.03069 -0.16787
v -0.05070 -0.03356 -0.16091
v -0.05183 -0.03025 -0.20783
v -0.04849 -0.02903 -0.21199
v -0.04933 -0.03306 -0.20701
v -0.01532 -0.01696 -0.21872
v -0.01078 -0.01531 -0.21617
v -0.01051 -0.01893 -0.21489
v 0.00418 -0.00986 -0.17949
v 0.00877 -0.00819 -0.17599
v 0.00671 -0.01266 -0.17257
v 0.03536 0.00149 -0.17361
v 0.03596 -0.00202 -0.16996
v 0.05676 0.00928 -0.16776
v 0.06214 0.01124 -0.16950
v 0.06002 0.00674 -0.16338
v 0.08721 0.02036 -0.19928
v 0.09228 0.02221 -0.20018
v 0.08891 0.01726 -0.19775
v 0.12176 0.03294 -0.18264
v 0.12369 0.03364 -0.17758
v 0.12341 0.02981 -0.17723
v 0.11300 0.02975 -0.13925
v 0.11440 0.03026 -0.13343
v 0.11104 0.02531 -0.13303
v 0.13334 0.03715 -0.11341
v 0.13187 0.03289 -0.11103
v 0.14620 0.04183 -0.09430
v 0.15137 0.04371 -0.09195
v 0.14632 0.03815 -0.08953
v 0.18856 0.05725 -0.09761
v 0.19299 0.05886 -0.09483
v 0.18922 0.05376 -0.09610
v 0.20498 0.06322 -0.06124
v 0.20340 0.06265 -0.05603
v 0.20325 0.05887 -0.05678
v 0.17206 0.05124 -0.03398
v 0.16961 0.05035 -0.02857
v 0.16708 0.04571 -0.03138
v 0.16485 0.07097 -0.00028
v 0.16017 0.07299 -0.00028
v 0.16315 0.07035 0.02315
v 0.15826 0.07229 0.02607
v 0.16569 0.07127 0.02849
v 0.19760 0.08289 0.04960
v 0.19508 0.08570 0.05039
v 0.19932 0.08351 0.05475
v 0.18821 0.07947 0.08869
v 0.18209 0.08097 0.09010
v 0.18386 0.07789 0.09160
v 0.14653 0.06430 0.08705
v 0.13903 0.06530 0.08482
v 0.14139 0.06243 0.08952
v 0.12229 0.05920 0.11047
v 0.12616 0.05688 0.11285
v 0.11070 0.05126 0.12964
v 0.10490 0.05287 0.12935
v 0.10942 0.05079 0.13547
v 0.12112 0.05505 0.17347
v 0.11843 0.05780 0.17316
v 0.11932 0.05439 0.17859
v 0.09031 0.04384 0.19699
v 0.08448 0.04544 0.19470
v 0.08522 0.04198 0.19624
v 0.05937 0.03258 0.16722
v 0.05470 0.03460 0.16120
v 0.05394 0.03060 0.16560
v 0.02638 0.02429 0.16939
v 0.02818 0.02122 0.17304
v 0.00620 0.01322 0.17534
v 0.00166 0.01529 0.17197
v 0.00170 0.01159 0.17893
v -0.01229 0.00649 0.21603
v -0.01445 0.00943 0.21478
v -0.01677 0.00486 0.21872
v -0.05010 -0.00727 0.21298
v -0.05346 -0.00477 0.20806
v -0.05355 -0.00852 0.20892
v -0.05582 -0.00935 0.16901
v -0.05604 -0.00571 0.16202
v -0.05900 -0.01051 0.16405
v -0.08269 -0.01540 0.14893
v -0.08323 -0.01933 0.15214
v -0.10146 -0.02596 0.13886
v -0.10318 -0.02286 0.13399
v -0.10707 -0.02800 0.13853
v -0.14020 -0.04006 0.15738
v -0.14138 -0.03677 0.15577
v -0.14525 -0.04190 0.15639
v -0.16732 -0.04993 0.12918
v -0.16720 -0.04617 0.12393
v -0.16751 -0.05000 0.12372
v -0.14514 -0.04186 0.09159
v -0.14137 -0.03676 0.08690
v -0.14459 -0.04166 0.08561
v -0.15387 -0.04131 0.05864
v -0.15595 -0.04579 0.05991
v -0.16189 -0.04796 0.03727
v -0.16055 -0.04374 0.03318
v -0.16599 -0.04945 0.03318
v -0.20276 -0.06283 0.02496
v -0.20297 -0.05918 0.02374
v -0.20603 -0.06402 0.02074
v -0.20650 -0.06419 -0.01519
v -0.20352 -0.05938 -0.01832
v -0.20335 -0.06305 -0.01951
v -0.16681 -0.04975 -0.02882
v -0.16136 -0.04404 -0.02902
v -0.16277 -0.04828 -0.03302
v -0.15387 -0.04131 -0.05921
v -0.15595 -0.04579 -0.06048
v -0.14683 -0.04247 -0.08189
v -0.14361 -0.03758 -0.08328
v -0.14750 -0.04272 -0.08783
v -0.17070 -0.05116 -0.11928
v -0.17040 -0.04733 -0.11953
v -0.17065 -0.05115 -0.12474
v -0.14931 -0.04338 -0.15259
v -0.14542 -0.03824 -0.15213
v -0.14429 -0.04155 -0.15374
v -0.11067 -0.02931 -0.13588
v -0.10666 -0.02413 -0.13149
v -0.10504 -0.02726 -0.13633
v -0.08269 -0.01540 -0.14949
v -0.08323 -0.01933 -0.15270
v -0.06331 -0.01208 -0.16286
v -0.06028 -0.00725 -0.16091
v -0.06024 -0.01096 -0.16787
v -0.05901 -0.01051 -0.20783
v -0.05891 -0.00675 -0.20701
v -0.05568 -0.00930 -0.21199
v -0.02250 0.00278 -0.21872
v -0.02009 0.00738 -0.21489
v -0.01796 0.00443 -0.21617
v -0.00300 0.00987 -0.17949
v -0.00286 0.01365 -0.17257
v 0.00159 0.01154 -0.17599
v 0.02638 0.02429 -0.16996
v 0.02818 0.02122 -0.17361
v 0.04957 0.02901 -0.16776
v 0.05044 0.03305 -0.16338
v 0.05496 0.03097 -0.16950
v 0.08003 0.04010 -0.19928
v 0.07933 0.04357 -0.19775
v 0.08510 0.04194 -0.20018
v 0.11458 0.05267 -0.18264
v 0.11383 0.05612 -0.17723
v 0.11651 0.05337 -0.17758
v 0.10582 0.04948 -0.13925
v 0.10146 0.05162 -0.13303
v 0.10722 0.04999 -0.13343
v 0.12229 0.05920 -0.11103
v 0.12616 0.05688 -0.11341
v 0.13901 0.06156 -0.09430
v 0.13675 0.06446 -0.08953
v 0.14418 0.06344 -0.09195
v 0.18138 0.07698 -0.09761
v 0.17964 0.08008 -0.09610
v 0.18580 0.07859 -0.09483
v 0.19779 0.08296 -0.06124
v 0.19368 0.08518 -0.05678
v 0.19622 0.08238 -0.05603
v 0.16487 0.07098 -0.03398
v 0.15750 0.07202 -0.03138
v 0.16243 0.07009 -0.02857
v 0.12903 0.03558 -0.00028
v 0.13353 0.03349 -0.00028
v 0.13205 0.03295 0.02018
v 0.12759 0.03506 0.01964
v 0.13000 0.03221 0.03117
v 0.12560 0.03433 0.03034
v 0.12193 0.02927 0.05582
v 0.11774 0.03147 0.05435
v 0.11712 0.02752 0.06578
v 0.11306 0.02977 0.06405
v 0.10412 0.02279 0.08569
v 0.10040 0.02516 0.08343
v 0.09063 0.01788 0.10035
v 0.08726 0.02038 0.09771
v 0.08242 0.01489 0.10737
v 0.07927 0.01747 0.10455
v 0.06136 0.00723 0.12074
v 0.05875 0.01000 0.11756
v 0.05165 0.00369 0.12508
v 0.04930 0.00656 0.12179
v 0.02967 -0.00431 0.13143
v 0.02790 -0.00123 0.12798
v 0.01047 -0.01129 0.13344
v 0.00921 -0.00803 0.12993
v -0.00005 -0.01512 0.13320
v -0.00104 -0.01176 0.12970
v -0.02426 -0.02394 0.12903
v -0.02462 -0.02034 0.12564
v -0.03432 -0.02760 0.12572
v -0.03441 -0.02391 0.12241
v -0.05500 -0.03512 0.11555
v -0.05455 -0.03124 0.11251
v -0.07091 -0.04092 0.10395
v -0.07004 -0.03687 0.10122
v -0.07883 -0.04380 0.09657
v -0.07775 -0.03968 0.09403
v -0.09486 -0.04963 0.07681
v -0.09336 -0.04536 0.07479
v -0.10056 -0.05171 0.06740
v -0.09891 -0.04738 0.06562
v -0.11026 -0.05524 0.04546
v -0.10836 -0.05082 0.04426
v -0.11545 -0.05713 0.02570
v -0.11341 -0.05266 0.02501
v -0.11706 -0.05771 0.01463
v -0.11498 -0.05323 0.01423
v -0.11740 -0.05784 -0.01148
v -0.11531 -0.05335 -0.01118
v -0.11608 -0.05736 -0.02259
v -0.11403 -0.05288 -0.02200
v -0.11026 -0.05524 -0.04603
v -0.10836 -0.05082 -0.04483
v -0.10230 -0.05234 -0.06472
v -0.10060 -0.04800 -0.06303
v -0.09684 -0.05035 -0.07430
v -0.09529 -0.04606 -0.07236
v -0.08134 -0.04471 -0.09453
v -0.08020 -0.04057 -0.09206
v -0.07362 -0.04190 -0.10214
v -0.07268 -0.03783 -0.09947
v -0.05500 -0.03512 -0.11611
v -0.05455 -0.03124 -0.11307
v -0.03761 -0.02879 -0.12498
v -0.03761 -0.02507 -0.12171
v -0.02764 -0.02517 -0.12859
v -0.02791 -0.02154 -0.12522
v -0.00355 -0.01640 -0.13348
v -0.00445 -0.01300 -0.12999
v 0.00696 -0.01257 -0.13403
v 0.00579 -0.00927 -0.13052
v 0.02967 -0.00431 -0.13200
v 0.02790 -0.00123 -0.12855
v 0.04835 0.00249 -0.12690
v 0.04609 0.00539 -0.12357
v 0.05816 0.00606 -0.12285
v 0.05564 0.00887 -0.11963
v 0.07957 0.01386 -0.11011
v 0.07649 0.01646 -0.10723
v 0.08796 0.01691 -0.10334
v 0.08466 0.01943 -0.10064
v 0.10412 0.02279 -0.08626
v 0.10040 0.02516 -0.08400
v 0.11535 0.02688 -0.06957
v 0.11133 0.02914 -0.06775
v 0.12042 0.02872 -0.05975
v 0.11627 0.03094 -0.05819
v 0.12913 0.03189 -0.03535
v 0.12475 0.03402 -0.03443
v 0.13146 0.03274 -0.02443
v 0.12702 0.03485 -0.02379
v 0.12395 0.05980 -0.00028
v 0.12185 0.05532 -0.00028
v 0.12041 0.05479 0.01964
v 0.12247 0.05927 0.02018
v 0.11842 0.05407 0.03034
v 0.12042 0.05852 0.03117
v 0.11056 0.05121 0.05435
v 0.11236 0.05559 0.05582
v 0.10588 0.04950 0.06405
v 0.10755 0.05383 0.06578
v 0.09322 0.04489 0.08343
v 0.09454 0.04910 0.08569
v 0.08008 0.04011 0.09771
v 0.08105 0.04419 0.10035
v 0.07209 0.03720 0.10455
v 0.07285 0.04121 0.10737
v 0.05157 0.02974 0.11756
v 0.05178 0.03354 0.12074
v 0.04212 0.02630 0.12179
v 0.04208 0.03001 0.12508
v 0.02071 0.01851 0.12798
v 0.02009 0.02200 0.13143
v 0.00203 0.01170 0.12993
v 0.00090 0.01502 0.13344
v -0.00822 0.00797 0.12970
v -0.00963 0.01119 0.13320
v -0.03180 -0.00061 0.12564
v -0.03384 0.00237 0.12903
v -0.04159 -0.00417 0.12241
v -0.04390 -0.00129 0.12572
v -0.06173 -0.01150 0.11251
v -0.06458 -0.00881 0.11555
v -0.07722 -0.01714 0.10122
v -0.08049 -0.01460 0.10395
v -0.08494 -0.01995 0.09403
v -0.08841 -0.01749 0.09657
v -0.10054 -0.02563 0.07479
v -0.10444 -0.02332 0.07681
v -0.10610 -0.02765 0.06562
v -0.11014 -0.02540 0.06740
v -0.11554 -0.03109 0.04426
v -0.11984 -0.02893 0.04546
v -0.12059 -0.03293 0.02501
v -0.12502 -0.03081 0.02570
v -0.12216 -0.03350 0.01423
v -0.12663 -0.03140 0.01463
v -0.12249 -0.03362 -0.01118
v -0.12698 -0.03152 -0.01148
v -0.12121 -0.03315 -0.02200
v -0.12566 -0.03104 -0.02259
v -0.11554 -0.03109 -0.04483
v -0.11984 -0.02893 -0.04603
v -0.10778 -0.02826 -0.06303
v -0.11187 -0.02603 -0.06472
v -0.10248 -0.02633 -0.07236
v -0.10642 -0.02404 -0.07430
v -0.08738 -0.02084 -0.09206
v -0.09092 -0.01840 -0.09453
v -0.07986 -0.01810 -0.09947
v -0.08319 -0.01559 -0.10214
v -0.06173 -0.01150 -0.11307
v -0.06458 -0.00881 -0.11611
v -0.04480 -0.00534 -0.12171
v -0.04718 -0.00248 -0.12498
v -0.03509 -0.00181 -0.12522
v -0.03722 0.00114 -0.12859
v -0.01163 0.00673 -0.12999
v -0.01313 0.00991 -0.13348
v -0.00139 0.01046 -0.13052
v -0.00261 0.01374 -0.13403
v 0.02071 0.01851 -0.12855
v 0.02009 0.02200 -0.13200
v 0.03890 0.02513 -0.12357
v 0.03877 0.02880 -0.12690
v 0.04846 0.02860 -0.11963
v 0.04858 0.03237 -0.12285
v 0.06931 0.03619 -0.10723
v 0.06999 0.04017 -0.11011
v 0.07747 0.03916 -0.10064
v 0.07838 0.04322 -0.10334
v 0.09322 0.04489 -0.08400
v 0.09454 0.04910 -0.08626
v 0.10415 0.04887 -0.06775
v 0.10577 0.05319 -0.06957
v 0.10908 0.05067 -0.05819
v 0.11084 0.05503 -0.05975
v 0.11757 0.05376 -0.03443
v 0.11955 0.05820 -0.03535
v 0.11984 0.05458 -0.02379
v 0.12188 0.05905 -0.02443
v 0.03885 0.02436 0.01257
v 0.04169 0.02167 0.00954
v 0.03719 0.02003 0.01082
v 0.04600 0.00983 0.00954
v 0.04555 0.00594 0.01257
v 0.04150 0.00819 0.01082
v 0.02973 0.02104 0.02937
v 0.02808 0.01672 0.02762
v 0.02928 0.01716 0.03240
v 0.03643 0.00262 0.02937
v 0.03359 0.00532 0.03240
v 0.03239 0.00488 0.02762
v 0.11147 0.05079 0.05719
v 0.11551 0.04854 0.05894
v 0.11431 0.04810 0.05416
v 0.11817 0.03237 0.05719
v 0.11862 0.03626 0.05416
v 0.11982 0.03670 0.05894
v 0.10235 0.04748 0.07399
v 0.10191 0.04359 0.07702
v 0.10640 0.04522 0.07574
v 0.10906 0.02906 0.07399
v 0.11071 0.03338 0.07574
v 0.10622 0.03175 0.07702
v 0.00882 0.01343 0.04222
v 0.01330 0.01134 0.04222
v 0.01001 0.01014 0.03872
v 0.01761 -0.00050 0.04222
v 0.01552 -0.00499 0.04222
v 0.01432 -0.00170 0.03872
v -0.00941 0.00680 0.04222
v -0.00822 0.00351 0.03872
v -0.01151 0.00231 0.04222
v -0.00271 -0.01162 0.04222
v -0.00720 -0.00953 0.04222
v -0.00391 -0.00833 0.03872
v 0.00882 0.01343 0.13146
v 0.01001 0.01014 0.13496
v 0.01330 0.01134 0.13146
v 0.01552 -0.00499 0.13146
v 0.01761 -0.00050 0.13146
v 0.01432 -0.00170 0.13496
v -0.00941 0.00680 0.13146
v -0.01151 0.00231 0.13146
v -0.00822 0.00351 0.13496
v -0.00271 -0.01162 0.13146
v -0.00391 -0.00833 0.13496
v -0.00720 -0.00953 0.13146
v -0.03033 -0.00082 0.02937
v -0.02749 -0.00351 0.03240
v -0.02628 -0.00307 0.02762
v -0.02318 -0.01535 0.03240
v -0.02362 -0.01923 0.02937
v -0.02197 -0.01491 0.02762
v -0.03944 -0.00413 0.01257
v -0.03540 -0.00639 0.01082
v -0.03989 -0.00802 0.00954
v -0.03274 -0.02255 0.01257
v -0.03558 -0.01986 0.00954
v -0.03109 -0.01823 0.01082
v -0.10295 -0.02725 0.07399
v -0.10460 -0.03157 0.07574
v -0.10011 -0.02994 0.07702
v -0.09625 -0.04567 0.07399
v -0.09580 -0.04178 0.07702
v -0.10029 -0.04342 0.07574
v -0.11207 -0.03057 0.05719
v -0.11251 -0.03445 0.05416
v -0.11372 -0.03489 0.05894
v -0.10536 -0.04898 0.05719
v -0.10941 -0.04673 0.05894
v -0.10820 -0.04629 0.05416
v -0.03944 -0.00413 -0.01313
v -0.03989 -0.00802 -0.01010
v -0.03540 -0.00639 -0.01138
v -0.03558 -0.01986 -0.01010
v -0.03274 -0.02255 -0.01313
v -0.03109 -0.01823 -0.01138
v -0.03033 -0.00082 -0.02993
v -0.02628 -0.00307 -0.02818
v -0.02749 -0.00351 -0.03296
v -0.02362 -0.01923 -0.02993
v -0.02318 -0.01535 -0.03296
v -0.02197 -0.01491 -0.02818
v -0.11207 -0.03057 -0.05775
v -0.11372 -0.03489 -0.05950
v -0.11251 -0.03445 -0.05472
v -0.10536 -0.04898 -0.05775
v -0.10820 -0.04629 -0.05472
v -0.10941 -0.04673 -0.05950
v -0.10295 -0.02725 -0.07455
v -0.10011 -0.02994 -0.07758
v -0.10460 -0.03157 -0.07630
v -0.09625 -0.04567 -0.07455
v -0.10029 -0.04342 -0.07630
v -0.09580 -0.04178 -0.07758
v -0.00941 0.00680 -0.04278
v -0.01151 0.00231 -0.04278
v -0.00822 0.00351 -0.03928
v -0.00720 -0.00953 -0.04278
v -0.00271 -0.01162 -0.04278
v -0.00391 -0.00833 -0.03928
v 0.00882 0.01343 -0.04278
v 0.01001 0.01014 -0.03928
v 0.01330 0.01134 -0.04278
v 0.01552 -0.00499 -0.04278
v 0.01761 -0.00050 -0.04278
v 0.01432 -0.00170 -0.03928
v -0.00941 0.00680 -0.13202
v -0.00822 0.00351 -0.13552
v -0.01151 0.00231 -0.13202
v -0.00271 -0.01162 -0.13202
v -0.00720 -0.00953 -0.13202
v -0.00391 -0.00833 -0.13552
v 0.00882 0.01343 -0.13202
v 0.01330 0.01134 -0.13202
v 0.01001 0.01014 -0.13552
v 0.01552 -0.00499 -0.13202
v 0.01432 -0.00170 -0.13552
v 0.01761 -0.00050 -0.13202
v 0.02973 0.02104 -0.02993
v 0.02928 0.01716 -0.03296
v 0.02808 0.01672 -0.02818
v 0.03359 0.00532 -0.03296
v 0.03643 0.00262 -0.02993
v 0.03239 0.00488 -0.02818
v 0.03885 0.02436 -0.01313
v 0.03719 0.02003 -0.01138
v 0.04169 0.02167 -0.01010
v 0.04555 0.00594 -0.01313
v 0.04600 0.00983 -0.01010
v 0.04150 0.00819 -0.01138
v 0.10235 0.04748 -0.07455
v 0.10640 0.04522 -0.07630
v 0.10191 0.04359 -0.07758
v 0.10906 0.02906 -0.07455
v 0.10622 0.03175 -0.07758
v 0.11071 0.03338 -0.07630
v 0.11147 0.05079 -0.05775
v 0.11431 0.04810 -0.05472
v 0.11551 0.04854 -0.05950
v 0.11817 0.03237 -0.05775
v 0.11982 0.03670 -0.05950
v 0.11862 0.03626 -0.05472
v -0.00413 0.02064 0.04455
v -0.00293 0.01735 0.04812
v 0.01024 -0.01883 0.04455
v 0.00904 -0.01554 0.04812
v 0.01199 0.02651 0.04114
v 0.01447 0.02368 0.04443
v 0.02636 -0.01296 0.04114
v 0.02644 -0.00921 0.04443
v 0.02566 0.03148 0.03142
v 0.02923 0.02905 0.03394
v 0.04002 -0.00799 0.03142
v 0.04120 -0.00384 0.03394
v 0.03479 0.03480 0.01687
v 0.03909 0.03264 0.01824
v 0.04916 -0.00466 0.01687
v 0.05106 -0.00025 0.01824
v 0.03800 0.03597 -0.00028
v 0.04255 0.03390 -0.00028
v 0.05236 -0.00350 -0.00028
v 0.05452 0.00101 -0.00028
v 0.03479 0.03480 -0.01744
v 0.03909 0.03264 -0.01881
v 0.04916 -0.00466 -0.01744
v 0.05106 -0.00025 -0.01881
v 0.02566 0.03148 -0.03198
v 0.02923 0.02905 -0.03451
v 0.04002 -0.00799 -0.03198
v 0.04120 -0.00384 -0.03451
v 0.01199 0.02651 -0.04170
v 0.01447 0.02368 -0.04500
v 0.02636 -0.01296 -0.04170
v 0.02644 -0.00921 -0.04500
v -0.00413 0.02064 -0.04511
v -0.00293 0.01735 -0.04868
v 0.01024 -0.01883 -0.04511
v 0.00904 -0.01554 -0.04868
v -0.02025 0.01477 -0.04170
v -0.02034 0.01101 -0.04500
v -0.00589 -0.02470 -0.04170
v -0.00837 -0.02188 -0.04500
v -0.03392 0.00980 -0.03198
v -0.03509 0.00564 -0.03451
v -0.01955 -0.02967 -0.03198
v -0.02312 -0.02725 -0.03451
v -0.04305 0.00647 -0.01744
v -0.04495 0.00205 -0.01881
v -0.02868 -0.03300 -0.01744
v -0.03298 -0.03083 -0.01881
v -0.04626 0.00530 -0.00028
v -0.04841 0.00079 -0.00028
v -0.03189 -0.03416 -0.00028
v -0.03644 -0.03209 -0.00028
v -0.04305 0.00647 0.01687
v -0.04495 0.00205 0.01824
v -0.02868 -0.03300 0.01687
v -0.03298 -0.03083 0.01824
v -0.03392 0.00980 0.03142
v -0.03509 0.00564 0.03394
v -0.01955 -0.02967 0.03142
v -0.02312 -0.02725 0.03394
v -0.02025 0.01477 0.04114
v -0.02034 0.01101 0.04443
v -0.00589 -0.02470 0.04114
v -0.00837 -0.02188 0.04443
f 3 4 5
f 6 7 8
f 9 10 11
f 12 13 14
f 17 18 19
f 20 21 22
f 23 24 25
f 26 27 28
f 31 32 33
f 34 35 36
f 37 38 39
f 40 41 42
f 45 46 47
f 48 49 50
f 51 52 53
f 54 55 56
f 59 60 61
f 62 63 64
f 65 66 67
f 68 69 70
f 73 74 75
f 76 77 78
f 79 80 81
f 82 83 84
f 87 88 89
f 90 91 92
f 93 94 95
f 96 97 98
f 101 102 103
f 104 105 106
f 107 108 109
f 110 111 112
f 115 116 117
f 118 119 120
f 121 122 123
f 124 125 126
f 129 130 131
f 132 133 134
f 135 136 137
f 138 139 140
f 143 144 145
f 146 147 148
f 149 150 151
f 152 153 154
f 157 158 159
f 160 161 162
f 163 164 165
f 166 167 168
f 171 172 173
f 174 175 176
f 177 178 179
f 180 181 182
f 185 186 187
f 188 189 190
f 191 192 193
f 194 195 196
f 199 200 201
f 202 203 204
f 205 206 207
f 208 209 210
f 213 214 215
f 216 217 218
f 219 220 221
f 222 223 224
f 227 228 229
f 230 231 232
f 233 234 235
f 236 237 238
f 241 242 243
f 244 245 246
f 247 248 249
f 250 251 252
f 433 434 435
f 436 437 438
f 439 440 441
f 442 443 444
f 445 446 447
f 448 449 450
f 451 452 453
f 454 455 456
f 457 458 459
f 460 461 462
f 463 464 465
f 466 467 468
f 469 470 471
f 472 473 474
f 475 476 477
f 478 479 480
f 481 482 483
f 484 485 486
f 487 488 489
f 490 491 492
f 493 494 495
f 496 497 498
f 499 500 501
f 502 503 504
f 505 506 507
f 508 509 510
f 511 512 513
f 514 515 516
f 517 518 519
f 520 521 522
f 523 524 525
f 526 527 528
f 529 530 531
f 532 533 534
f 535 536 537
f 538 539 540
f 541 542 543
f 544 545 546
f 547 548 549
f 550 551 552
f 553 554 555
f 556 557 558
f 559 560 561
f 562 563 564
f 565 566 567
f 568 569 570
f 571 572 573
f 574 575 576
f 3 1 2
f 253 255 256
f 129 128 130
f 345 343 344
f 131 3 129
f 4 8 5
f 258 255 257
f 131 133 132
f 345 348 346
f 134 6 132
f 9 8 7
f 258 259 260
f 134 136 135
f 349 348 347
f 137 9 135
f 12 11 10
f 260 261 262
f 138 136 139
f 349 352 350
f 140 12 138
f 13 16 14
f 264 261 263
f 140 141 142
f 353 352 351
f 17 16 15
f 266 263 265
f 143 141 144
f 353 356 354
f 18 143 145
f 18 22 19
f 268 265 267
f 145 147 146
f 357 356 355
f 148 20 146
f 21 25 22
f 270 267 269
f 149 147 150
f 359 358 357
f 151 23 149
f 26 25 24
f 270 271 272
f 152 150 153
f 359 362 360
f 154 26 152
f 27 30 28
f 272 273 274
f 154 155 156
f 361 364 362
f 31 30 29
f 274 275 276
f 157 155 158
f 365 364 363
f 32 157 159
f 32 36 33
f 278 275 277
f 159 161 160
f 365 368 366
f 162 34 160
f 37 36 35
f 280 277 279
f 162 164 163
f 369 368 367
f 38 163 165
f 40 39 38
f 280 281 282
f 166 164 167
f 369 372 370
f 168 40 166
f 41 44 42
f 282 283 284
f 168 169 170
f 373 372 371
f 45 44 43
f 286 283 285
f 171 169 172
f 373 376 374
f 46 171 173
f 46 50 47
f 286 287 288
f 173 175 174
f 377 376 375
f 176 48 174
f 51 50 49
f 288 289 290
f 177 175 178
f 379 378 377
f 52 177 179
f 54 53 52
f 290 291 292
f 180 178 181
f 381 380 379
f 182 54 180
f 55 58 56
f 292 293 294
f 182 183 184
f 383 382 381
f 59 58 57
f 294 295 296
f 185 183 186
f 383 386 384
f 60 185 187
f 60 64 61
f 298 295 297
f 187 189 188
f 385 388 386
f 63 188 190
f 65 64 63
f 300 297 299
f 191 189 192
f 387 390 388
f 193 65 191
f 68 67 66
f 300 301 302
f 194 192 195
f 389 392 390
f 69 194 196
f 69 72 70
f 302 303 304
f 196 197 198
f 393 392 391
f 73 72 71
f 306 303 305
f 199 197 200
f 395 394 393
f 201 73 199
f 74 78 75
f 306 307 308
f 201 203 202
f 397 396 395
f 77 202 204
f 77 81 78
f 308 309 310
f 204 206 205
f 399 398 397
f 207 79 205
f 82 81 80
f 310 311 312
f 208 206 209
f 399 402 400
f 210 82 208
f 83 86 84
f 312 313 314
f 210 211 212
f 403 402 401
f 87 86 85
f 314 315 316
f 213 211 214
f 403 406 404
f 88 213 215
f 88 92 89
f 318 315 317
f 215 217 216
f 407 406 405
f 218 90 216
f 91 95 92
f 320 317 319
f 218 220 219
f 409 408 407
f 94 219 221
f 96 95 94
f 322 319 321
f 222 220 223
f 411 410 409
f 97 222 224
f 97 100 98
f 324 321 323
f 224 225 226
f 411 414 412
f 101 100 99
f 324 325 326
f 227 225 228
f 413 416 414
f 229 101 227
f 102 106 103
f 328 325 327
f 229 231 230
f 415 418 416
f 105 230 232
f 107 106 105
f 328 329 330
f 233 231 234
f 417 420 418
f 235 107 233
f 110 109 108
f 332 329 331
f 236 234 237
f 419 422 420
f 238 110 236
f 111 114 112
f 332 333 334
f 238 239 240
f 421 424 422
f 115 114 113
f 334 335 336
f 241 239 242
f 423 426 424
f 243 115 241
f 116 120 117
f 336 337 338
f 243 245 244
f 427 426 425
f 246 118 244
f 119 123 120
f 340 337 339
f 246 248 247
f 427 430 428
f 249 121 247
f 124 123 122
f 340 341 342
f 250 248 251
f 429 432 430
f 125 250 252
f 125 1 126
f 342 254 253
f 252 128 127
f 431 343 432
f 439 435 440
f 436 435 434
f 437 444 438
f 441 444 443
f 451 441 452
f 454 443 442
f 453 456 455
f 451 446 445
f 448 455 454
f 449 446 450
f 433 447 434
f 448 436 449
f 463 459 464
f 458 462 459
f 466 462 461
f 467 464 468
f 463 476 475
f 478 467 466
f 477 480 479
f 469 477 470
f 478 474 479
f 473 470 474
f 469 458 457
f 461 473 472
f 481 488 487
f 482 486 483
f 490 486 485
f 489 492 491
f 499 489 500
f 502 491 490
f 503 500 504
f 493 501 494
f 502 498 503
f 497 494 498
f 481 495 482
f 485 497 496
f 505 512 511
f 506 510 507
f 509 516 510
f 515 512 516
f 511 524 523
f 514 528 515
f 525 528 527
f 523 518 517
f 526 522 527
f 521 518 522
f 505 519 506
f 520 508 521
f 529 536 535
f 532 531 530
f 538 534 533
f 537 540 539
f 535 548 547
f 550 539 538
f 551 548 552
f 541 549 542
f 544 551 550
f 545 542 546
f 541 530 529
f 533 545 544
f 559 555 560
f 556 555 554
f 562 558 557
f 561 564 563
f 559 572 571
f 574 563 562
f 575 572 576
f 565 573 566
f 574 570 575
f 569 566 570
f 565 554 553
f 568 556 569
f 582 577 578
f 580 583 584
f 586 581 582
f 584 587 588
f 586 589 585
f 592 587 591
f 594 589 590
f 596 591 595
f 594 597 593
f 596 599 600
f 598 601 597
f 604 599 603
f 602 605 601
f 608 603 607
f 606 609 605
f 608 611 612
f 614 609 610
f 612 615 616
f 614 617 613
f 616 619 620
f 618 621 617
f 624 619 623
f 622 625 621
f 624 627 628
f 630 625 626
f 632 627 631
f 630 633 629
f 632 635 636
f 638 633 634
f 640 635 639
f 638 577 637
f 580 639 579
f 126 254 341
f 5 254 1
f 129 2 127
f 127 125 252
f 131 6 4
f 5 257 255
f 134 9 7
f 11 257 8
f 138 10 137
f 14 259 11
f 140 15 13
f 14 263 261
f 142 17 15
f 19 263 16
f 146 18 145
f 19 267 265
f 149 21 148
f 25 267 22
f 151 26 24
f 28 269 25
f 154 29 27
f 28 273 271
f 156 31 29
f 33 273 30
f 160 32 159
f 33 277 275
f 162 37 35
f 36 279 277
f 166 38 165
f 42 279 39
f 168 43 41
f 42 283 281
f 171 43 170
f 47 283 44
f 173 48 46
f 47 287 285
f 176 51 49
f 50 289 287
f 179 54 52
f 56 289 53
f 184 55 182
f 56 293 291
f 185 57 184
f 61 293 58
f 187 62 60
f 61 297 295
f 190 65 63
f 64 299 297
f 194 66 193
f 70 299 67
f 198 69 196
f 70 303 301
f 198 73 71
f 75 303 72
f 202 74 201
f 75 307 305
f 204 79 77
f 81 307 78
f 207 82 80
f 84 309 81
f 212 83 210
f 84 313 311
f 213 85 212
f 89 313 86
f 216 88 215
f 89 317 315
f 219 91 218
f 92 319 317
f 221 96 94
f 98 319 95
f 226 97 224
f 98 323 321
f 227 99 226
f 103 323 100
f 230 102 229
f 103 327 325
f 233 105 232
f 106 329 327
f 235 110 108
f 112 329 109
f 240 111 238
f 112 333 331
f 241 113 240
f 117 333 114
f 244 116 243
f 117 337 335
f 246 121 119
f 120 339 337
f 249 124 122
f 126 339 123
f 130 343 346
f 251 343 128
f 130 348 133
f 136 348 350
f 139 350 352
f 139 354 141
f 144 354 356
f 144 358 147
f 150 358 360
f 153 360 362
f 153 364 155
f 158 364 366
f 158 368 161
f 161 370 164
f 167 370 372
f 167 374 169
f 172 374 376
f 172 378 175
f 175 380 178
f 181 380 382
f 181 384 183
f 186 384 386
f 186 388 189
f 189 390 192
f 195 390 392
f 195 394 197
f 200 394 396
f 200 398 203
f 206 398 400
f 209 400 402
f 209 404 211
f 214 404 406
f 214 408 217
f 217 410 220
f 223 410 412
f 223 414 225
f 228 414 416
f 228 418 231
f 231 420 234
f 237 420 422
f 237 424 239
f 242 424 426
f 242 428 245
f 245 430 248
f 251 430 432
f 253 345 344
f 342 344 431
f 256 347 345
f 258 349 347
f 260 351 349
f 262 353 351
f 264 355 353
f 266 357 355
f 270 357 268
f 272 359 270
f 274 361 272
f 276 363 274
f 278 365 276
f 280 367 278
f 280 371 369
f 282 373 371
f 284 375 373
f 286 377 375
f 290 377 288
f 292 379 290
f 294 381 292
f 296 383 294
f 298 385 296
f 298 389 387
f 300 391 389
f 304 391 302
f 306 393 304
f 308 395 306
f 308 399 397
f 312 399 310
f 312 403 401
f 316 403 314
f 318 405 316
f 320 407 318
f 320 411 409
f 324 411 322
f 324 415 413
f 328 415 326
f 330 417 328
f 332 419 330
f 334 421 332
f 334 425 423
f 336 427 425
f 340 427 338
f 340 431 429
f 451 433 439
f 438 440 435
f 449 434 447
f 454 437 448
f 441 456 452
f 453 450 446
f 475 457 463
f 462 464 459
f 473 458 471
f 466 472 478
f 467 476 465
f 477 474 470
f 487 493 481
f 483 492 488
f 497 482 495
f 490 496 502
f 491 500 489
f 503 494 501
f 523 505 511
f 510 512 507
f 519 508 506
f 526 509 520
f 513 528 524
f 525 522 518
f 547 529 535
f 531 540 536
f 545 530 543
f 538 544 550
f 539 548 537
f 551 542 549
f 559 565 553
f 558 560 555
f 569 554 567
f 562 568 574
f 561 576 572
f 575 566 573
f 589 605 621
f 578 584 582
f 640 578 638
f 611 603 587
f 582 588 586
f 586 592 590
f 590 596 594
f 596 598 594
f 600 602 598
f 604 606 602
f 608 610 606
f 610 616 614
f 616 618 614
f 620 622 618
f 622 628 626
f 628 630 626
f 630 636 634
f 634 640 638
f 3 5 1
f 253 254 255
f 129 127 128
f 345 346 343
f 131 4 3
f 4 6 8
f 258 256 255
f 131 130 133
f 345 347 348
f 134 7 6
f 9 11 8
f 258 257 259
f 134 133 136
f 349 350 348
f 137 10 9
f 12 14 11
f 260 259 261
f 138 137 136
f 349 351 352
f 140 13 12
f 13 15 16
f 264 262 261
f 140 139 141
f 353 354 352
f 17 19 16
f 266 264 263
f 143 142 141
f 353 355 356
f 18 17 143
f 18 20 22
f 268 266 265
f 145 144 147
f 357 358 356
f 148 21 20
f 21 23 25
f 270 268 267
f 149 148 147
f 359 360 358
f 151 24 23
f 26 28 25
f 270 269 271
f 152 151 150
f 359 361 362
f 154 27 26
f 27 29 30
f 272 271 273
f 154 153 155
f 361 363 364
f 31 33 30
f 274 273 275
f 157 156 155
f 365 366 364
f 32 31 157
f 32 34 36
f 278 276 275
f 159 158 161
f 365 367 368
f 162 35 34
f 37 39 36
f 280 278 277
f 162 161 164
f 369 370 368
f 38 37 163
f 40 42 39
f 280 279 281
f 166 165 164
f 369 371 372
f 168 41 40
f 41 43 44
f 282 281 283
f 168 167 169
f 373 374 372
f 45 47 44
f 286 284 283
f 171 170 169
f 373 375 376
f 46 45 171
f 46 48 50
f 286 285 287
f 173 172 175
f 377 378 376
f 176 49 48
f 51 53 50
f 288 287 289
f 177 176 175
f 379 380 378
f 52 51 177
f 54 56 53
f 290 289 291
f 180 179 178
f 381 382 380
f 182 55 54
f 55 57 58
f 292 291 293
f 182 181 183
f 383 384 382
f 59 61 58
f 294 293 295
f 185 184 183
f 383 385 386
f 60 59 185
f 60 62 64
f 298 296 295
f 187 186 189
f 385 387 388
f 63 62 188
f 65 67 64
f 300 298 297
f 191 190 189
f 387 389 390
f 193 66 65
f 68 70 67
f 300 299 301
f 194 193 192
f 389 391 392
f 69 68 194
f 69 71 72
f 302 301 303
f 196 195 197
f 393 394 392
f 73 75 72
f 306 304 303
f 199 198 197
f 395 396 394
f 201 74 73
f 74 76 78
f 306 305 307
f 201 200 203
f 397 398 396
f 77 76 202
f 77 79 81
f 308 307 309
f 204 203 206
f 399 400 398
f 207 80 79
f 82 84 81
f 310 309 311
f 208 207 206
f 399 401 402
f 210 83 82
f 83 85 86
f 312 311 313
f 210 209 211
f 403 404 402
f 87 89 86
f 314 313 315
f 213 212 211
f 403 405 406
f 88 87 213
f 88 90 92
f 318 316 315
f 215 214 217
f 407 408 406
f 218 91 90
f 91 93 95
f 320 318 317
f 218 217 220
f 409 410 408
f 94 93 219
f 96 98 95
f 322 320 319
f 222 221 220
f 411 412 410
f 97 96 222
f 97 99 100
f 324 322 321
f 224 223 225
f 411 413 414
f 101 103 100
f 324 323 325
f 227 226 225
f 413 415 416
f 229 102 101
f 102 104 106
f 328 326 325
f 229 228 231
f 415 417 418
f 105 104 230
f 107 109 106
f 328 327 329
f 233 232 231
f 417 419 420
f 235 108 107
f 110 112 109
f 332 330 329
f 236 235 234
f 419 421 422
f 238 111 110
f 111 113 114
f 332 331 333
f 238 237 239
f 421 423 424
f 115 117 114
f 334 333 335
f 241 240 239
f 423 425 426
f 243 116 115
f 116 118 120
f 336 335 337
f 243 242 245
f 427 428 426
f 246 119 118
f 119 121 123
f 340 338 337
f 246 245 248
f 427 429 430
f 249 122 121
f 124 126 123
f 340 339 341
f 250 249 248
f 429 431 432
f 125 124 250
f 125 2 1
f 342 341 254
f 252 251 128
f 431 344 343
f 439 433 435
f 436 438 435
f 437 442 444
f 441 440 444
f 451 439 441
f 454 456 443
f 453 452 456
f 451 453 446
f 448 450 455
f 449 447 446
f 433 445 447
f 448 437 436
f 463 457 459
f 458 460 462
f 466 468 462
f 467 465 464
f 463 465 476
f 478 480 467
f 477 476 480
f 469 475 477
f 478 472 474
f 473 471 470
f 469 471 458
f 461 460 473
f 481 483 488
f 482 484 486
f 490 492 486
f 489 488 492
f 499 487 489
f 502 504 491
f 503 501 500
f 493 499 501
f 502 496 498
f 497 495 494
f 481 493 495
f 485 484 497
f 505 507 512
f 506 508 510
f 509 514 516
f 515 513 512
f 511 513 524
f 514 526 528
f 525 524 528
f 523 525 518
f 526 520 522
f 521 519 518
f 505 517 519
f 520 509 508
f 529 531 536
f 532 534 531
f 538 540 534
f 537 536 540
f 535 537 548
f 550 552 539
f 551 549 548
f 541 547 549
f 544 546 551
f 545 543 542
f 541 543 530
f 533 532 545
f 559 553 555
f 556 558 555
f 562 564 558
f 561 560 564
f 559 561 572
f 574 576 563
f 575 573 572
f 565 571 573
f 574 568 570
f 569 567 566
f 565 567 554
f 568 557 556
f 582 581 577
f 580 579 583
f 586 585 581
f 584 583 587
f 586 590 589
f 592 588 587
f 594 593 589
f 596 592 591
f 594 598 597
f 596 595 599
f 598 602 601
f 604 600 599
f 602 606 605
f 608 604 603
f 606 610 609
f 608 607 611
f 614 613 609
f 612 611 615
f 614 618 617
f 616 615 619
f 618 622 621
f 624 620 619
f 622 626 625
f 624 623 627
f 630 629 625
f 632 628 627
f 630 634 633
f 632 631 635
f 638 637 633
f 640 636 635
f 638 578 577
f 580 640 639
f 126 1 254
f 5 255 254
f 129 3 2
f 127 2 125
f 131 132 6
f 5 8 257
f 134 135 9
f 11 259 257
f 138 12 10
f 14 261 259
f 140 142 15
f 14 16 263
f 142 143 17
f 19 265 263
f 146 20 18
f 19 22 267
f 149 23 21
f 25 269 267
f 151 152 26
f 28 271 269
f 154 156 29
f 28 30 273
f 156 157 31
f 33 275 273
f 160 34 32
f 33 36 277
f 162 163 37
f 36 39 279
f 166 40 38
f 42 281 279
f 168 170 43
f 42 44 283
f 171 45 43
f 47 285 283
f 173 174 48
f 47 50 287
f 176 177 51
f 50 53 289
f 179 180 54
f 56 291 289
f 184 57 55
f 56 58 293
f 185 59 57
f 61 295 293
f 187 188 62
f 61 64 297
f 190 191 65
f 64 67 299
f 194 68 66
f 70 301 299
f 198 71 69
f 70 72 303
f 198 199 73
f 75 305 303
f 202 76 74
f 75 78 307
f 204 205 79
f 81 309 307
f 207 208 82
f 84 311 309
f 212 85 83
f 84 86 313
f 213 87 85
f 89 315 313
f 216 90 88
f 89 92 317
f 219 93 91
f 92 95 319
f 221 222 96
f 98 321 319
f 226 99 97
f 98 100 323
f 227 101 99
f 103 325 323
f 230 104 102
f 103 106 327
f 233 107 105
f 106 109 329
f 235 236 110
f 112 331 329
f 240 113 111
f 112 114 333
f 241 115 113
f 117 335 333
f 244 118 116
f 117 120 337
f 246 247 121
f 120 123 339
f 249 250 124
f 126 341 339
f 130 128 343
f 251 432 343
f 130 346 348
f 136 133 348
f 139 136 350
f 139 352 354
f 144 141 354
f 144 356 358
f 150 147 358
f 153 150 360
f 153 362 364
f 158 155 364
f 158 366 368
f 161 368 370
f 167 164 370
f 167 372 374
f 172 169 374
f 172 376 378
f 175 378 380
f 181 178 380
f 181 382 384
f 186 183 384
f 186 386 388
f 189 388 390
f 195 192 390
f 195 392 394
f 200 197 394
f 200 396 398
f 206 203 398
f 209 206 400
f 209 402 404
f 214 211 404
f 214 406 408
f 217 408 410
f 223 220 410
f 223 412 414
f 228 225 414
f 228 416 418
f 231 418 420
f 237 234 420
f 237 422 424
f 242 239 424
f 242 426 428
f 245 428 430
f 251 248 430
f 253 256 345
f 342 253 344
f 256 258 347
f 258 260 349
f 260 262 351
f 262 264 353
f 264 266 355
f 266 268 357
f 270 359 357
f 272 361 359
f 274 363 361
f 276 365 363
f 278 367 365
f 280 369 367
f 280 282 371
f 282 284 373
f 284 286 375
f 286 288 377
f 290 379 377
f 292 381 379
f 294 383 381
f 296 385 383
f 298 387 385
f 298 300 389
f 300 302 391
f 304 393 391
f 306 395 393
f 308 397 395
f 308 310 399
f 312 401 399
f 312 314 403
f 316 405 403
f 318 407 405
f 320 409 407
f 320 322 411
f 324 413 411
f 324 326 415
f 328 417 415
f 330 419 417
f 332 421 419
f 334 423 421
f 334 336 425
f 336 338 427
f 340 429 427
f 340 342 431
f 451 445 433
f 438 444 440
f 449 436 434
f 454 442 437
f 441 443 456
f 453 455 450
f 475 469 457
f 462 468 464
f 473 460 458
f 466 461 472
f 467 480 476
f 477 479 474
f 487 499 493
f 483 486 492
f 497 484 482
f 490 485 496
f 491 504 500
f 503 498 494
f 523 517 505
f 510 516 512
f 519 521 508
f 526 514 509
f 513 515 528
f 525 527 522
f 547 541 529
f 531 534 540
f 545 532 530
f 538 533 544
f 539 552 548
f 551 546 542
f 559 571 565
f 558 564 560
f 569 556 554
f 562 557 568
f 561 563 576
f 575 570 566
f 637 577 589
f 577 581 589
f 581 585 589
f 589 593 597
f 597 601 589
f 601 605 589
f 605 609 621
f 609 613 621
f 613 617 621
f 621 625 629
f 629 633 621
f 633 637 621
f 637 589 621
f 578 580 584
f 640 580 578
f 587 583 579
f 579 639 635
f 635 631 627
f 627 623 635
f 623 619 635
f 619 615 611
f 611 607 603
f 603 599 587
f 599 595 587
f 595 591 587
f 587 579 619
f 579 635 619
f 619 611 587
f 582 584 588
f 586 588 592
f 590 592 596
f 596 600 598
f 600 604 602
f 604 608 606
f 608 612 610
f 610 612 616
f 616 620 618
f 620 624 622
f 622 624 628
f 628 632 630
f 630 632 636
f 634 636 640
