# clockwork Pins_Pin.obj: Roblox cue frame, recentred on its bounding box
v 0.03039 0.07073 -0.40700
v 0.04462 0.12386 -0.40700
v 0.02017 0.07347 -0.41044
v 0.03440 0.12659 -0.41044
v 0.01385 0.07516 -0.41944
v 0.02809 0.12829 -0.41944
v 0.01385 0.07516 -0.43056
v 0.02809 0.12829 -0.43056
v 0.02017 0.07347 -0.43956
v 0.03440 0.12659 -0.43956
v 0.03039 0.07073 -0.44300
v 0.04462 0.12386 -0.44300
v 0.04061 0.06799 -0.43956
v 0.05484 0.12112 -0.43956
v 0.04692 0.06630 -0.43056
v 0.06116 0.11943 -0.43056
v 0.04692 0.06630 -0.41944
v 0.06116 0.11943 -0.41944
v 0.04061 0.06799 -0.41044
v 0.05484 0.12112 -0.41044
v 0.02945 0.06724 -0.01550
v 0.04369 0.12037 -0.01550
v 0.01923 0.06998 -0.01894
v 0.03347 0.12311 -0.01894
v 0.01292 0.07167 -0.02794
v 0.02715 0.12480 -0.02794
v 0.01292 0.07167 -0.03906
v 0.02715 0.12480 -0.03906
v 0.01923 0.06998 -0.04806
v 0.03347 0.12311 -0.04806
v 0.02945 0.06724 -0.05150
v 0.04369 0.12037 -0.05150
v 0.03967 0.06450 -0.04806
v 0.05391 0.11763 -0.04806
v 0.04599 0.06281 -0.03906
v 0.06022 0.11594 -0.03906
v 0.04599 0.06281 -0.02794
v 0.06022 0.11594 -0.02794
v 0.03967 0.06450 -0.01894
v 0.05391 0.11763 -0.01894
v -0.05597 -0.03006 -0.75700
v -0.10582 -0.05331 -0.75700
v -0.05150 -0.03965 -0.76044
v -0.10134 -0.06290 -0.76044
v -0.04873 -0.04558 -0.76944
v -0.09858 -0.06882 -0.76944
v -0.04873 -0.04558 -0.78056
v -0.09858 -0.06882 -0.78056
v -0.05150 -0.03965 -0.78956
v -0.10134 -0.06290 -0.78956
v -0.05597 -0.03006 -0.79300
v -0.10582 -0.05331 -0.79300
v -0.06044 -0.02047 -0.78956
v -0.11029 -0.04372 -0.78956
v -0.06320 -0.01455 -0.78056
v -0.11305 -0.03779 -0.78056
v -0.06320 -0.01455 -0.76944
v -0.11305 -0.03779 -0.76944
v -0.06044 -0.02047 -0.76044
v -0.11029 -0.04372 -0.76044
v -0.05845 -0.03122 -1.05400
v -0.10830 -0.05446 -1.05400
v -0.05398 -0.04081 -1.05744
v -0.10383 -0.06405 -1.05744
v -0.05122 -0.04674 -1.06644
v -0.10106 -0.06998 -1.06644
v -0.05122 -0.04674 -1.07756
v -0.10106 -0.06998 -1.07756
v -0.05398 -0.04081 -1.08656
v -0.10383 -0.06405 -1.08656
v -0.05845 -0.03122 -1.09000
v -0.10830 -0.05446 -1.09000
v -0.06292 -0.02163 -1.08656
v -0.11277 -0.04488 -1.08656
v -0.06569 -0.01571 -1.07756
v -0.11553 -0.03895 -1.07756
v -0.06569 -0.01571 -1.06644
v -0.11553 -0.03895 -1.06644
v -0.06292 -0.02163 -1.05744
v -0.11277 -0.04488 -1.05744
v -0.02196 0.07407 -2.35700
v -0.04520 0.12392 -2.35700
v -0.03154 0.06960 -2.36044
v -0.05479 0.11944 -2.36044
v -0.03747 0.06683 -2.36944
v -0.06071 0.11668 -2.36944
v -0.03747 0.06683 -2.38056
v -0.06071 0.11668 -2.38056
v -0.03154 0.06960 -2.38956
v -0.05479 0.11944 -2.38956
v -0.02196 0.07407 -2.39300
v -0.04520 0.12392 -2.39300
v -0.01237 0.07854 -2.38956
v -0.03561 0.12839 -2.38956
v -0.00644 0.08130 -2.38056
v -0.02968 0.13115 -2.38056
v -0.00644 0.08130 -2.36944
v -0.02968 0.13115 -2.36944
v -0.01237 0.07854 -2.36044
v -0.03561 0.12839 -2.36044
v -0.02196 0.07407 -2.00350
v -0.04520 0.12392 -2.00350
v -0.03154 0.06960 -2.00694
v -0.05479 0.11944 -2.00694
v -0.03747 0.06683 -2.01594
v -0.06071 0.11668 -2.01594
v -0.03747 0.06683 -2.02706
v -0.06071 0.11668 -2.02706
v -0.03154 0.06960 -2.03606
v -0.05479 0.11944 -2.03606
v -0.02196 0.07407 -2.03950
v -0.04520 0.12392 -2.03950
v -0.01237 0.07854 -2.03606
v -0.03561 0.12839 -2.03606
v -0.00644 0.08130 -2.02706
v -0.02968 0.13115 -2.02706
v -0.00644 0.08130 -2.01594
v -0.02968 0.13115 -2.01594
v -0.01237 0.07854 -2.00694
v -0.03561 0.12839 -2.00694
v 0.03922 -0.07361 -2.40700
v 0.05803 -0.12529 -2.40700
v 0.04916 -0.06999 -2.41044
v 0.06797 -0.12168 -2.41044
v 0.05530 -0.06776 -2.41944
v 0.07411 -0.11944 -2.41944
v 0.05530 -0.06776 -2.43056
v 0.07411 -0.11944 -2.43056
v 0.04916 -0.06999 -2.43956
v 0.06797 -0.12168 -2.43956
v 0.03922 -0.07361 -2.44300
v 0.05803 -0.12529 -2.44300
v 0.02927 -0.07723 -2.43956
v 0.04808 -0.12891 -2.43956
v 0.02313 -0.07947 -2.43056
v 0.04194 -0.13115 -2.43056
v 0.02313 -0.07947 -2.41944
v 0.04194 -0.13115 -2.41944
v 0.02927 -0.07723 -2.41044
v 0.04808 -0.12891 -2.41044
v -0.02029 0.02854 2.44300
v -0.05859 0.06068 2.44300
v -0.02709 0.02043 2.43956
v -0.06539 0.05257 2.43956
v -0.03130 0.01542 2.43056
v -0.06960 0.04756 2.43056
v -0.03130 0.01542 2.41944
v -0.06960 0.04756 2.41944
v -0.02709 0.02043 2.41044
v -0.06539 0.05257 2.41044
v -0.02029 0.02854 2.40700
v -0.05859 0.06068 2.40700
v -0.01349 0.03664 2.41044
v -0.05179 0.06878 2.41044
v -0.00929 0.04165 2.41944
v -0.04759 0.07379 2.41944
v -0.00929 0.04165 2.43056
v -0.04759 0.07379 2.43056
v -0.01349 0.03664 2.43956
v -0.05179 0.06878 2.43956
v 0.06269 0.02007 1.24300
v 0.10968 0.03717 1.24300
v 0.05908 0.03001 1.23956
v 0.10606 0.04711 1.23956
v 0.05684 0.03615 1.23056
v 0.10382 0.05326 1.23056
v 0.05684 0.03615 1.21944
v 0.10382 0.05326 1.21944
v 0.05908 0.03001 1.21044
v 0.10606 0.04711 1.21044
v 0.06269 0.02007 1.20700
v 0.10968 0.03717 1.20700
v 0.06631 0.01013 1.21044
v 0.11330 0.02723 1.21044
v 0.06855 0.00398 1.21944
v 0.11553 0.02108 1.21944
v 0.06855 0.00398 1.23056
v 0.11553 0.02108 1.23056
v 0.06631 0.01013 1.23956
v 0.11330 0.02723 1.23956
f 1 4 3
f 4 5 3
f 6 7 5
f 7 10 9
f 10 11 9
f 12 13 11
f 13 16 15
f 16 17 15
f 18 10 6
f 18 19 17
f 19 2 1
f 3 7 15
f 1 2 4
f 4 6 5
f 6 8 7
f 7 8 10
f 10 12 11
f 12 14 13
f 13 14 16
f 16 18 17
f 6 4 2
f 2 20 6
f 20 18 6
f 18 16 14
f 14 12 10
f 10 8 6
f 18 14 10
f 18 20 19
f 19 20 2
f 19 1 3
f 3 5 7
f 7 9 15
f 9 11 15
f 11 13 15
f 15 17 19
f 19 3 15
f 22 23 21
f 23 26 25
f 26 27 25
f 28 29 27
f 30 31 29
f 32 33 31
f 33 36 35
f 36 37 35
f 34 30 26
f 37 40 39
f 39 22 21
f 23 27 35
f 22 24 23
f 23 24 26
f 26 28 27
f 28 30 29
f 30 32 31
f 32 34 33
f 33 34 36
f 36 38 37
f 26 24 22
f 22 40 26
f 40 38 26
f 38 36 34
f 34 32 30
f 30 28 26
f 38 34 26
f 37 38 40
f 39 40 22
f 39 21 23
f 23 25 27
f 27 29 35
f 29 31 35
f 31 33 35
f 35 37 39
f 39 23 35
f 42 43 41
f 43 46 45
f 46 47 45
f 48 49 47
f 49 52 51
f 52 53 51
f 54 55 53
f 56 57 55
f 54 50 46
f 57 60 59
f 59 42 41
f 43 47 55
f 42 44 43
f 43 44 46
f 46 48 47
f 48 50 49
f 49 50 52
f 52 54 53
f 54 56 55
f 56 58 57
f 46 44 42
f 42 60 46
f 60 58 46
f 58 56 54
f 54 52 50
f 50 48 46
f 58 54 46
f 57 58 60
f 59 60 42
f 59 41 43
f 43 45 47
f 47 49 55
f 49 51 55
f 51 53 55
f 55 57 59
f 59 43 55
f 62 63 61
f 64 65 63
f 66 67 65
f 67 70 69
f 70 71 69
f 72 73 71
f 73 76 75
f 76 77 75
f 78 70 66
f 78 79 77
f 79 62 61
f 67 75 79
f 62 64 63
f 64 66 65
f 66 68 67
f 67 68 70
f 70 72 71
f 72 74 73
f 73 74 76
f 76 78 77
f 66 64 78
f 64 62 78
f 62 80 78
f 78 76 74
f 74 72 70
f 70 68 66
f 78 74 70
f 78 80 79
f 79 80 62
f 79 61 63
f 63 65 67
f 67 69 75
f 69 71 75
f 71 73 75
f 75 77 79
f 79 63 67
f 82 83 81
f 84 85 83
f 86 87 85
f 88 89 87
f 89 92 91
f 91 94 93
f 94 95 93
f 96 97 95
f 98 90 86
f 97 100 99
f 100 81 99
f 83 87 95
f 82 84 83
f 84 86 85
f 86 88 87
f 88 90 89
f 89 90 92
f 91 92 94
f 94 96 95
f 96 98 97
f 86 84 98
f 84 82 98
f 82 100 98
f 98 96 94
f 94 92 90
f 90 88 86
f 98 94 90
f 97 98 100
f 100 82 81
f 99 81 83
f 83 85 87
f 87 89 91
f 91 93 87
f 93 95 87
f 95 97 99
f 99 83 95
f 102 103 101
f 104 105 103
f 106 107 105
f 108 109 107
f 109 112 111
f 112 113 111
f 114 115 113
f 116 117 115
f 118 110 106
f 117 120 119
f 120 101 119
f 103 107 115
f 102 104 103
f 104 106 105
f 106 108 107
f 108 110 109
f 109 110 112
f 112 114 113
f 114 116 115
f 116 118 117
f 106 104 118
f 104 102 118
f 102 120 118
f 118 116 114
f 114 112 110
f 110 108 106
f 118 114 110
f 117 118 120
f 120 102 101
f 119 101 103
f 103 105 107
f 107 109 115
f 109 111 115
f 111 113 115
f 115 117 119
f 119 103 115
f 121 124 123
f 124 125 123
f 126 127 125
f 127 130 129
f 129 132 131
f 131 134 133
f 133 136 135
f 136 137 135
f 138 130 126
f 138 139 137
f 139 122 121
f 127 135 139
f 121 122 124
f 124 126 125
f 126 128 127
f 127 128 130
f 129 130 132
f 131 132 134
f 133 134 136
f 136 138 137
f 126 124 138
f 124 122 138
f 122 140 138
f 138 136 134
f 134 132 130
f 130 128 126
f 138 134 130
f 138 140 139
f 139 140 122
f 139 121 123
f 123 125 127
f 127 129 135
f 129 131 135
f 131 133 135
f 135 137 139
f 139 123 127
f 142 143 141
f 143 146 145
f 146 147 145
f 148 149 147
f 149 152 151
f 151 154 153
f 153 156 155
f 156 157 155
f 158 150 146
f 158 159 157
f 160 141 159
f 147 155 159
f 142 144 143
f 143 144 146
f 146 148 147
f 148 150 149
f 149 150 152
f 151 152 154
f 153 154 156
f 156 158 157
f 146 144 142
f 142 160 146
f 160 158 146
f 158 156 154
f 154 152 150
f 150 148 146
f 158 154 150
f 158 160 159
f 160 142 141
f 159 141 143
f 143 145 147
f 147 149 155
f 149 151 155
f 151 153 155
f 155 157 159
f 159 143 147
f 161 164 163
f 164 165 163
f 166 167 165
f 167 170 169
f 169 172 171
f 172 173 171
f 174 175 173
f 176 177 175
f 162 178 170
f 178 179 177
f 180 161 179
f 171 175 179
f 161 162 164
f 164 166 165
f 166 168 167
f 167 168 170
f 169 170 172
f 172 174 173
f 174 176 175
f 176 178 177
f 166 164 162
f 162 180 178
f 178 176 174
f 174 172 178
f 172 170 178
f 170 168 166
f 166 162 170
f 178 180 179
f 180 162 161
f 179 161 167
f 161 163 167
f 163 165 167
f 167 169 171
f 171 173 175
f 175 177 179
f 167 171 179
