# eclipse Asteroid1_Rock.obj: Roblox cue frame, recentred on its bounding box
v -0.00247 -0.04876 -0.00023
v -0.04596 -0.02172 -0.02906
v 0.01475 -0.02248 -0.04859
v 0.05289 -0.02234 -0.00023
v 0.01403 -0.02159 0.04611
v -0.05335 -0.02521 0.03349
v -0.01345 0.01243 -0.03106
v 0.03523 0.01666 -0.02522
v 0.03845 0.01819 0.02689
v -0.01466 0.01392 0.03398
v -0.03893 0.01278 -0.00023
v -0.00247 0.04876 -0.00023
v 0.00629 -0.03624 -0.02482
v -0.02546 -0.03633 -0.01547
v -0.01541 -0.02096 -0.03656
v -0.04404 -0.02082 -0.00023
v -0.02561 -0.03656 0.01510
v 0.01853 -0.02715 -0.00023
v 0.04019 -0.02609 -0.02851
v 0.00598 -0.03501 0.02350
v 0.04469 -0.02872 0.03103
v -0.01624 -0.02222 0.03842
v -0.05800 -0.00116 -0.01669
v -0.06312 -0.00116 0.01775
v -0.00247 -0.00116 -0.04818
v -0.04626 -0.00116 -0.05521
v 0.06312 -0.00116 -0.01967
v 0.04276 -0.00116 -0.05702
v 0.04041 -0.00116 0.05362
v 0.05517 -0.00116 0.01686
v -0.04431 -0.00116 0.05231
v -0.00247 -0.00116 0.05702
v -0.04070 0.02118 -0.02557
v 0.01291 0.02237 -0.04342
v 0.04521 0.02138 -0.00023
v 0.01253 0.02178 0.04188
v -0.04817 0.02555 0.03006
v -0.01210 0.03739 -0.02725
v -0.03092 0.03405 -0.00023
v 0.01983 0.03296 -0.01501
v 0.02486 0.04065 0.01788
v -0.01036 0.03042 0.02190
f 1 14 13
f 2 14 16
f 1 13 18
f 1 18 20
f 1 20 17
f 2 16 23
f 3 15 25
f 4 19 27
f 5 21 29
f 6 22 31
f 2 23 26
f 3 25 28
f 4 27 30
f 5 29 32
f 6 31 24
f 7 33 38
f 8 34 40
f 9 35 41
f 10 36 42
f 11 37 39
f 39 42 12
f 39 37 42
f 37 10 42
f 42 41 12
f 42 36 41
f 36 9 41
f 41 40 12
f 41 35 40
f 35 8 40
f 40 38 12
f 40 34 38
f 34 7 38
f 38 39 12
f 38 33 39
f 33 11 39
f 24 37 11
f 24 31 37
f 31 10 37
f 32 36 10
f 32 29 36
f 29 9 36
f 30 35 9
f 30 27 35
f 27 8 35
f 28 34 8
f 28 25 34
f 25 7 34
f 26 33 7
f 26 23 33
f 23 11 33
f 31 32 10
f 31 22 32
f 22 5 32
f 29 30 9
f 29 21 30
f 21 4 30
f 27 28 8
f 27 19 28
f 19 3 28
f 25 26 7
f 25 15 26
f 15 2 26
f 23 24 11
f 23 16 24
f 16 6 24
f 17 22 6
f 17 20 22
f 20 5 22
f 20 21 5
f 20 18 21
f 18 4 21
f 18 19 4
f 18 13 19
f 13 3 19
f 16 17 6
f 16 14 17
f 14 1 17
f 13 15 3
f 13 14 15
f 14 2 15
