# eclipse Asteroid6_Rock.obj: Roblox cue frame, recentred on its bounding box
v 0.00228 -0.04912 0.00131
v -0.04344 -0.02538 -0.03212
v 0.01561 -0.01989 -0.03998
v 0.05023 -0.02187 0.00131
v 0.01918 -0.02463 0.05364
v -0.03958 -0.02342 0.03191
v -0.01552 0.02149 -0.05385
v 0.03732 0.01561 -0.02430
v 0.04819 0.02113 0.03487
v -0.01228 0.01718 0.04641
v -0.05101 0.01971 0.00131
v 0.00228 0.04912 0.00131
v 0.01120 -0.04051 -0.02630
v -0.01261 -0.02664 -0.00958
v -0.01686 -0.03362 -0.05799
v -0.05623 -0.03187 0.00131
v -0.02296 -0.04364 0.01976
v 0.02887 -0.03751 0.00131
v 0.04237 -0.02732 -0.02800
v 0.00799 -0.02670 0.01897
v 0.05157 -0.03310 0.03734
v -0.01487 -0.03035 0.05442
v -0.06290 -0.00217 -0.02001
v -0.03882 -0.00217 0.01475
v 0.00228 -0.00217 -0.04859
v -0.03238 -0.00217 -0.04670
v 0.04069 -0.00217 -0.01125
v 0.03496 -0.00217 -0.04395
v 0.03425 -0.00217 0.04558
v 0.06290 -0.00217 0.02112
v -0.03026 -0.00217 0.04638
v 0.00228 -0.00217 0.05799
v -0.03202 0.01935 -0.02377
v 0.01202 0.01383 -0.02886
v 0.03713 0.01551 0.00131
v 0.01431 0.01758 0.03856
v -0.03073 0.01854 0.02545
v -0.00720 0.03859 -0.02805
v -0.02717 0.03697 0.00131
v 0.03253 0.04750 -0.02080
v 0.02561 0.03614 0.01836
v -0.00905 0.04659 0.03642
f 1 14 13
f 2 14 16
f 1 13 18
f 1 18 20
f 1 20 17
f 2 16 23
f 3 15 25
f 4 19 27
f 5 21 29
f 6 22 31
f 2 23 26
f 3 25 28
f 4 27 30
f 5 29 32
f 6 31 24
f 7 33 38
f 8 34 40
f 9 35 41
f 10 36 42
f 11 37 39
f 39 42 12
f 39 37 42
f 37 10 42
f 42 41 12
f 42 36 41
f 36 9 41
f 41 40 12
f 41 35 40
f 35 8 40
f 40 38 12
f 40 34 38
f 34 7 38
f 38 39 12
f 38 33 39
f 33 11 39
f 24 37 11
f 24 31 37
f 31 10 37
f 32 36 10
f 32 29 36
f 29 9 36
f 30 35 9
f 30 27 35
f 27 8 35
f 28 34 8
f 28 25 34
f 25 7 34
f 26 33 7
f 26 23 33
f 23 11 33
f 31 32 10
f 31 22 32
f 22 5 32
f 29 30 9
f 29 21 30
f 21 4 30
f 27 28 8
f 27 19 28
f 19 3 28
f 25 26 7
f 25 15 26
f 15 2 26
f 23 24 11
f 23 16 24
f 16 6 24
f 17 22 6
f 17 20 22
f 20 5 22
f 20 21 5
f 20 18 21
f 18 4 21
f 18 19 4
f 18 13 19
f 13 3 19
f 16 17 6
f 16 14 17
f 14 1 17
f 13 15 3
f 13 14 15
f 14 2 15
