# eclipse Asteroid3_Rock.obj: Roblox cue frame, recentred on its bounding box
v -0.00104 -0.04992 0.00285
v -0.05081 -0.01399 -0.03317
v 0.02396 -0.02050 -0.07379
v 0.07084 -0.01747 0.00285
v 0.01792 -0.01393 0.06097
v -0.06061 -0.01805 0.04595
v -0.02129 0.02871 -0.05923
v 0.06938 0.03594 -0.04811
v 0.05363 0.02940 0.04242
v -0.02706 0.03498 0.08261
v -0.07517 0.03160 0.00285
v -0.00104 0.05788 0.00285
v 0.01193 -0.03897 -0.03692
v -0.04907 -0.05788 -0.03190
v -0.01685 -0.01456 -0.04560
v -0.05804 -0.01699 0.00285
v -0.03266 -0.03581 0.02573
v 0.04639 -0.04490 0.00285
v 0.05397 -0.02156 -0.03696
v 0.01690 -0.05646 0.05785
v 0.04152 -0.01517 0.03365
v -0.02044 -0.01938 0.06230
v -0.05879 0.00669 -0.01584
v -0.09969 0.00669 0.03478
v -0.00104 0.00669 -0.08380
v -0.04806 0.00669 -0.06161
v 0.09969 0.00669 -0.02975
v 0.04821 0.00669 -0.06467
v 0.04819 0.00669 0.07035
v 0.06038 0.00669 0.02273
v -0.05049 0.00669 0.07063
v -0.00104 0.00669 0.08380
v -0.06216 0.03807 -0.04138
v 0.02670 0.04398 -0.08219
v 0.08271 0.04148 0.00285
v 0.02286 0.03882 0.07613
v -0.06789 0.04101 0.05123
v -0.01446 0.05390 -0.03827
v -0.04137 0.05054 0.00285
v 0.02279 0.03873 -0.01439
v 0.03629 0.05688 0.02987
v -0.01064 0.04046 0.03227
f 1 14 13
f 2 14 16
f 1 13 18
f 1 18 20
f 1 20 17
f 2 16 23
f 3 15 25
f 4 19 27
f 5 21 29
f 6 22 31
f 2 23 26
f 3 25 28
f 4 27 30
f 5 29 32
f 6 31 24
f 7 33 38
f 8 34 40
f 9 35 41
f 10 36 42
f 11 37 39
f 39 42 12
f 39 37 42
f 37 10 42
f 42 41 12
f 42 36 41
f 36 9 41
f 41 40 12
f 41 35 40
f 35 8 40
f 40 38 12
f 40 34 38
f 34 7 38
f 38 39 12
f 38 33 39
f 33 11 39
f 24 37 11
f 24 31 37
f 31 10 37
f 32 36 10
f 32 29 36
f 29 9 36
f 30 35 9
f 30 27 35
f 27 8 35
f 28 34 8
f 28 25 34
f 25 7 34
f 26 33 7
f 26 23 33
f 23 11 33
f 31 32 10
f 31 22 32
f 22 5 32
f 29 30 9
f 29 21 30
f 21 4 30
f 27 28 8
f 27 19 28
f 19 3 28
f 25 26 7
f 25 15 26
f 15 2 26
f 23 24 11
f 23 16 24
f 16 6 24
f 17 22 6
f 17 20 22
f 20 5 22
f 20 21 5
f 20 18 21
f 18 4 21
f 18 19 4
f 18 13 19
f 13 3 19
f 16 17 6
f 16 14 17
f 14 1 17
f 13 15 3
f 13 14 15
f 14 2 15
