# eclipse Asteroid8_Rock.obj: Roblox cue frame, recentred on its bounding box
v 0.00252 -0.04870 -0.02573
v -0.03933 -0.01746 -0.06605
v 0.02253 -0.02247 -0.10739
v 0.07034 -0.02366 -0.02573
v 0.02432 -0.02471 0.06325
v -0.05798 -0.02633 0.03255
v -0.01849 0.02860 -0.11149
v 0.04365 0.02200 -0.06536
v 0.06599 0.03262 0.03541
v -0.01858 0.02871 0.06039
v -0.06558 0.02864 -0.02573
v 0.00252 0.05268 -0.02573
v 0.01898 -0.06387 -0.09290
v -0.02775 -0.04414 -0.05489
v -0.01846 -0.02985 -0.11135
v -0.06669 -0.03048 -0.02573
v -0.03992 -0.06287 0.01515
v 0.04972 -0.05633 -0.02573
v 0.04287 -0.02129 -0.06461
v 0.01439 -0.04538 0.02270
v 0.06731 -0.03565 0.03669
v -0.01878 -0.03034 0.06118
v -0.08900 0.00244 -0.06517
v -0.07774 0.00244 0.00885
v 0.00252 0.00244 -0.12337
v -0.05142 0.00244 -0.12419
v 0.08868 0.00244 -0.06286
v 0.05644 0.00244 -0.12415
v 0.04833 0.00244 0.05788
v 0.08900 0.00244 0.01153
v -0.04297 0.00244 0.05728
v 0.00252 0.00244 0.12419
v -0.04136 0.02823 -0.06800
v 0.02416 0.03575 -0.11407
v 0.07565 0.03722 -0.02573
v 0.02555 0.03789 0.06828
v -0.06317 0.04105 0.03756
v -0.01273 0.06387 -0.08796
v -0.04366 0.05994 -0.02573
v 0.03360 0.05027 -0.05568
v 0.04145 0.06236 0.01178
v -0.00941 0.05049 0.02294
f 1 14 13
f 2 14 16
f 1 13 18
f 1 18 20
f 1 20 17
f 2 16 23
f 3 15 25
f 4 19 27
f 5 21 29
f 6 22 31
f 2 23 26
f 3 25 28
f 4 27 30
f 5 29 32
f 6 31 24
f 7 33 38
f 8 34 40
f 9 35 41
f 10 36 42
f 11 37 39
f 39 42 12
f 39 37 42
f 37 10 42
f 42 41 12
f 42 36 41
f 36 9 41
f 41 40 12
f 41 35 40
f 35 8 40
f 40 38 12
f 40 34 38
f 34 7 38
f 38 39 12
f 38 33 39
f 33 11 39
f 24 37 11
f 24 31 37
f 31 10 37
f 32 36 10
f 32 29 36
f 29 9 36
f 30 35 9
f 30 27 35
f 27 8 35
f 28 34 8
f 28 25 34
f 25 7 34
f 26 33 7
f 26 23 33
f 23 11 33
f 31 32 10
f 31 22 32
f 22 5 32
f 29 30 9
f 29 21 30
f 21 4 30
f 27 28 8
f 27 19 28
f 19 3 28
f 25 26 7
f 25 15 26
f 15 2 26
f 23 24 11
f 23 16 24
f 16 6 24
f 17 22 6
f 17 20 22
f 20 5 22
f 20 21 5
f 20 18 21
f 18 4 21
f 18 19 4
f 18 13 19
f 13 3 19
f 16 17 6
f 16 14 17
f 14 1 17
f 13 15 3
f 13 14 15
f 14 2 15
