# eclipse Asteroid4_Rock.obj: Roblox cue frame, recentred on its bounding box
v 0.01015 -0.04713 0.00095
v -0.02643 -0.01646 -0.03146
v 0.02422 -0.01662 -0.05188
v 0.05512 -0.01634 0.00095
v 0.02457 -0.01717 0.05506
v -0.02377 -0.01483 0.03100
v -0.01142 0.04046 -0.08001
v 0.05615 0.03406 -0.03981
v 0.05533 0.03356 0.04098
v -0.01091 0.03966 0.08001
v -0.06019 0.04074 0.00095
v 0.01015 0.05518 0.00095
v 0.02037 -0.04703 -0.03740
v -0.01621 -0.04626 -0.02241
v -0.00762 -0.02926 -0.06576
v -0.04850 -0.02996 0.00095
v -0.01643 -0.04671 0.02450
v 0.05145 -0.06023 0.00095
v 0.04536 -0.02071 -0.03025
v 0.02039 -0.04714 0.03937
v 0.04406 -0.01972 0.03099
v -0.00728 -0.02859 0.06638
v -0.04427 0.00592 -0.02062
v -0.04185 0.00592 0.02155
v 0.01015 0.00592 -0.07279
v -0.01521 0.00592 -0.04163
v 0.05685 0.00592 -0.01756
v 0.03372 0.00592 -0.03862
v 0.03451 0.00592 0.04184
v 0.06019 0.00592 0.02078
v -0.01583 0.00592 0.04455
v 0.01015 0.00592 0.07060
v -0.02920 0.03568 -0.03392
v 0.02492 0.03516 -0.05448
v 0.05973 0.03625 0.00095
v 0.02511 0.03554 0.05711
v -0.02658 0.03370 0.03350
v 0.00032 0.05685 -0.03594
v -0.02136 0.05639 0.00095
v 0.03552 0.05614 -0.02153
v 0.03359 0.05233 0.02172
v -0.00033 0.06023 0.04028
f 1 14 13
f 2 14 16
f 1 13 18
f 1 18 20
f 1 20 17
f 2 16 23
f 3 15 25
f 4 19 27
f 5 21 29
f 6 22 31
f 2 23 26
f 3 25 28
f 4 27 30
f 5 29 32
f 6 31 24
f 7 33 38
f 8 34 40
f 9 35 41
f 10 36 42
f 11 37 39
f 39 42 12
f 39 37 42
f 37 10 42
f 42 41 12
f 42 36 41
f 36 9 41
f 41 40 12
f 41 35 40
f 35 8 40
f 40 38 12
f 40 34 38
f 34 7 38
f 38 39 12
f 38 33 39
f 33 11 39
f 24 37 11
f 24 31 37
f 31 10 37
f 32 36 10
f 32 29 36
f 29 9 36
f 30 35 9
f 30 27 35
f 27 8 35
f 28 34 8
f 28 25 34
f 25 7 34
f 26 33 7
f 26 23 33
f 23 11 33
f 31 32 10
f 31 22 32
f 22 5 32
f 29 30 9
f 29 21 30
f 21 4 30
f 27 28 8
f 27 19 28
f 19 3 28
f 25 26 7
f 25 15 26
f 15 2 26
f 23 24 11
f 23 16 24
f 16 6 24
f 17 22 6
f 17 20 22
f 20 5 22
f 20 21 5
f 20 18 21
f 18 4 21
f 18 19 4
f 18 13 19
f 13 3 19
f 16 17 6
f 16 14 17
f 14 1 17
f 13 15 3
f 13 14 15
f 14 2 15
