# eclipse Asteroid12_Rock.obj: Roblox cue frame, recentred on its bounding box
v 0.00822 -0.11147 0.00290
v -0.09160 -0.05064 -0.07396
v 0.03757 -0.03988 -0.09285
v 0.10592 -0.04091 0.00290
v 0.04124 -0.04438 0.11061
v -0.09189 -0.05077 0.07998
v -0.03163 0.04497 -0.12709
v 0.09956 0.03888 -0.06743
v 0.11422 0.04575 0.08452
v -0.02865 0.04132 0.12317
v -0.11884 0.04424 0.00290
v 0.00822 0.11147 0.00290
v 0.02521 -0.07130 -0.05251
v -0.02907 -0.06041 -0.02581
v -0.03369 -0.06740 -0.13379
v -0.12265 -0.06518 0.00290
v -0.04114 -0.07870 0.04091
v 0.06397 -0.07224 0.00290
v 0.10411 -0.05940 -0.07094
v 0.02129 -0.05576 0.04554
v 0.11766 -0.06725 0.08717
v -0.03191 -0.06471 0.13379
v -0.12010 -0.00389 -0.04129
v -0.09553 -0.00389 0.03863
v 0.00822 -0.00389 -0.10445
v -0.07264 -0.00389 -0.11505
v 0.10207 -0.00389 -0.02942
v 0.08420 -0.00389 -0.10793
v 0.08187 -0.00389 0.11033
v 0.12265 -0.00389 0.04230
v -0.06893 -0.00389 0.11544
v 0.00822 -0.00389 0.12549
v -0.06849 0.04051 -0.05616
v 0.02876 0.02723 -0.06409
v 0.07616 0.02792 0.00290
v 0.03116 0.03087 0.07772
v -0.07181 0.04243 0.06452
v -0.01372 0.08316 -0.06866
v -0.04808 0.06513 0.00290
v 0.06877 0.08787 -0.04372
v 0.06400 0.08064 0.04585
v -0.01475 0.08725 0.07782
f 1 14 13
f 2 14 16
f 1 13 18
f 1 18 20
f 1 20 17
f 2 16 23
f 3 15 25
f 4 19 27
f 5 21 29
f 6 22 31
f 2 23 26
f 3 25 28
f 4 27 30
f 5 29 32
f 6 31 24
f 7 33 38
f 8 34 40
f 9 35 41
f 10 36 42
f 11 37 39
f 39 42 12
f 39 37 42
f 37 10 42
f 42 41 12
f 42 36 41
f 36 9 41
f 41 40 12
f 41 35 40
f 35 8 40
f 40 38 12
f 40 34 38
f 34 7 38
f 38 39 12
f 38 33 39
f 33 11 39
f 24 37 11
f 24 31 37
f 31 10 37
f 32 36 10
f 32 29 36
f 29 9 36
f 30 35 9
f 30 27 35
f 27 8 35
f 28 34 8
f 28 25 34
f 25 7 34
f 26 33 7
f 26 23 33
f 23 11 33
f 31 32 10
f 31 22 32
f 22 5 32
f 29 30 9
f 29 21 30
f 21 4 30
f 27 28 8
f 27 19 28
f 19 3 28
f 25 26 7
f 25 15 26
f 15 2 26
f 23 24 11
f 23 16 24
f 16 6 24
f 17 22 6
f 17 20 22
f 20 5 22
f 20 21 5
f 20 18 21
f 18 4 21
f 18 19 4
f 18 13 19
f 13 3 19
f 16 17 6
f 16 14 17
f 14 1 17
f 13 15 3
f 13 14 15
f 14 2 15
