# eclipse Asteroid10_Rock.obj: Roblox cue frame, recentred on its bounding box
v 0.01167 -0.05072 -0.00548
v -0.03318 -0.01442 -0.05381
v 0.03120 -0.01707 -0.09464
v 0.06974 -0.01532 -0.00548
v 0.02926 -0.01492 0.07482
v -0.04285 -0.01850 0.05328
v -0.01786 0.03716 -0.14029
v 0.07934 0.03309 -0.07840
v 0.07962 0.03321 0.06776
v -0.02026 0.03982 0.14029
v -0.08998 0.03925 -0.00548
v 0.01167 0.05499 -0.00548
v 0.02569 -0.04564 -0.06949
v -0.02784 -0.04946 -0.04805
v -0.01240 -0.02837 -0.11537
v -0.07045 -0.03016 -0.00548
v -0.02477 -0.04527 0.03379
v 0.06937 -0.05926 -0.00548
v 0.06081 -0.02113 -0.05844
v 0.02634 -0.04798 0.06152
v 0.06309 -0.02232 0.04994
v -0.01397 -0.03052 0.11159
v -0.06005 0.00452 -0.04004
v -0.07346 0.00452 0.03555
v 0.01167 0.00452 -0.12186
v -0.03031 0.00452 -0.09118
v 0.08998 0.00452 -0.04322
v 0.05123 0.00452 -0.08624
v 0.04877 0.00452 0.07027
v 0.07392 0.00452 0.02453
v -0.02875 0.00452 0.07704
v 0.01167 0.00452 0.12511
v -0.04089 0.03195 -0.06212
v 0.03285 0.03346 -0.10215
v 0.07963 0.03322 -0.00548
v 0.03169 0.03188 0.08592
v -0.04985 0.03663 0.06082
v -0.00363 0.05926 -0.07534
v -0.02888 0.04935 -0.00548
v 0.04165 0.04549 -0.03779
v 0.04958 0.05633 0.03538
v -0.00106 0.05005 0.05263
f 1 14 13
f 2 14 16
f 1 13 18
f 1 18 20
f 1 20 17
f 2 16 23
f 3 15 25
f 4 19 27
f 5 21 29
f 6 22 31
f 2 23 26
f 3 25 28
f 4 27 30
f 5 29 32
f 6 31 24
f 7 33 38
f 8 34 40
f 9 35 41
f 10 36 42
f 11 37 39
f 39 42 12
f 39 37 42
f 37 10 42
f 42 41 12
f 42 36 41
f 36 9 41
f 41 40 12
f 41 35 40
f 35 8 40
f 40 38 12
f 40 34 38
f 34 7 38
f 38 39 12
f 38 33 39
f 33 11 39
f 24 37 11
f 24 31 37
f 31 10 37
f 32 36 10
f 32 29 36
f 29 9 36
f 30 35 9
f 30 27 35
f 27 8 35
f 28 34 8
f 28 25 34
f 25 7 34
f 26 33 7
f 26 23 33
f 23 11 33
f 31 32 10
f 31 22 32
f 22 5 32
f 29 30 9
f 29 21 30
f 21 4 30
f 27 28 8
f 27 19 28
f 19 3 28
f 25 26 7
f 25 15 26
f 15 2 26
f 23 24 11
f 23 16 24
f 16 6 24
f 17 22 6
f 17 20 22
f 20 5 22
f 20 21 5
f 20 18 21
f 18 4 21
f 18 19 4
f 18 13 19
f 13 3 19
f 16 17 6
f 16 14 17
f 14 1 17
f 13 15 3
f 13 14 15
f 14 2 15
