# eclipse CoronaSurge_Hot.obj: Roblox cue frame, recentred on its bounding box
v -0.02261 -0.00000 0.91000
v -0.00534 0.00028 0.93377
v 0.02261 0.00018 0.92469
v 0.02261 -0.00018 0.89531
v -0.00534 -0.00029 0.88623
v -0.02122 0.02184 0.90974
v -0.00491 0.02238 0.93219
v 0.02149 0.02217 0.92361
v 0.02149 0.02150 0.89586
v -0.00491 0.02130 0.88729
v -0.01983 0.04366 0.90895
v -0.00448 0.04468 0.93006
v 0.02037 0.04429 0.92200
v 0.02037 0.04304 0.89591
v -0.00448 0.04265 0.88784
v -0.01845 0.06546 0.90764
v -0.00405 0.06689 0.92741
v 0.01924 0.06634 0.91986
v 0.01924 0.06458 0.89543
v -0.00405 0.06404 0.88788
v -0.01706 0.08723 0.90581
v -0.00362 0.08900 0.92422
v 0.01812 0.08832 0.91719
v 0.01812 0.08613 0.89443
v -0.00362 0.08545 0.88740
v -0.01567 0.10894 0.90346
v -0.00319 0.11099 0.92050
v 0.01699 0.11021 0.91399
v 0.01699 0.10767 0.89292
v -0.00319 0.10688 0.88641
v -0.01428 0.13059 0.90058
v -0.00276 0.13286 0.91627
v 0.01587 0.13199 0.91028
v 0.01587 0.12918 0.89089
v -0.00276 0.12831 0.88489
v -0.01289 0.15216 0.89719
v -0.00233 0.15459 0.91151
v 0.01475 0.15366 0.90604
v 0.01475 0.15066 0.88834
v -0.00233 0.14973 0.88286
v -0.01150 0.17365 0.89328
v -0.00190 0.17617 0.90625
v 0.01362 0.17521 0.90129
v 0.01362 0.17209 0.88527
v -0.00190 0.17113 0.88031
v -0.01011 0.19504 0.88885
v -0.00148 0.19758 0.90047
v 0.01250 0.19661 0.89603
v 0.01250 0.19346 0.88168
v -0.00148 0.19249 0.87724
v -0.00872 0.21631 0.88392
v -0.00105 0.21882 0.89418
v 0.01138 0.21786 0.89026
v 0.01138 0.21476 0.87757
v -0.00105 0.21380 0.87365
v -0.00733 0.23746 0.87847
v -0.00062 0.23987 0.88740
v 0.01025 0.23895 0.88399
v 0.01025 0.23597 0.87296
v -0.00062 0.23505 0.86955
v -0.00595 0.25847 0.87252
v -0.00019 0.26072 0.88012
v 0.00913 0.25986 0.87722
v 0.00913 0.25708 0.86782
v -0.00019 0.25622 0.86492
v -0.00456 0.27934 0.86607
v 0.00024 0.28136 0.87235
v 0.00801 0.28059 0.86995
v 0.00801 0.27808 0.86218
v 0.00024 0.27731 0.85978
v -0.00317 0.30004 0.85911
v 0.00067 0.30178 0.86410
v 0.00688 0.30112 0.86220
v 0.00688 0.29896 0.85603
v 0.00067 0.29830 0.85413
v -0.00178 0.32057 0.85167
v 0.00110 0.32197 0.85538
v 0.00576 0.32143 0.85396
v 0.00576 0.31971 0.84937
v 0.00110 0.31917 0.84796
v -0.00039 0.34092 0.84373
v 0.00153 0.34190 0.84618
v 0.00463 0.34153 0.84524
v 0.00463 0.34030 0.84221
v 0.00153 0.33993 0.84128
v 0.00100 0.36106 0.83530
v 0.00196 0.36157 0.83652
v 0.00351 0.36138 0.83606
v 0.00351 0.36075 0.83455
v 0.00196 0.36056 0.83409
v 0.00239 -0.00000 0.91000
v 0.00239 0.36106 0.83530
v -0.02261 -0.00000 -0.91000
v -0.00534 -0.00029 -0.93377
v 0.02261 -0.00018 -0.92469
v 0.02261 0.00018 -0.89531
v -0.00534 0.00029 -0.88622
v -0.02122 -0.02184 -0.90974
v -0.00491 -0.02238 -0.93219
v 0.02149 -0.02217 -0.92361
v 0.02149 -0.02150 -0.89586
v -0.00491 -0.02130 -0.88729
v -0.01983 -0.04366 -0.90895
v -0.00448 -0.04468 -0.93006
v 0.02037 -0.04429 -0.92200
v 0.02037 -0.04304 -0.89590
v -0.00448 -0.04265 -0.88784
v -0.01845 -0.06546 -0.90764
v -0.00405 -0.06689 -0.92740
v 0.01924 -0.06634 -0.91986
v 0.01924 -0.06458 -0.89543
v -0.00405 -0.06404 -0.88788
v -0.01706 -0.08723 -0.90581
v -0.00362 -0.08900 -0.92422
v 0.01812 -0.08832 -0.91719
v 0.01812 -0.08613 -0.89443
v -0.00362 -0.08545 -0.88740
v -0.01567 -0.10894 -0.90346
v -0.00319 -0.11099 -0.92050
v 0.01699 -0.11021 -0.91399
v 0.01699 -0.10767 -0.89292
v -0.00319 -0.10688 -0.88641
v -0.01428 -0.13059 -0.90058
v -0.00276 -0.13286 -0.91627
v 0.01587 -0.13199 -0.91028
v 0.01587 -0.12918 -0.89089
v -0.00276 -0.12831 -0.88489
v -0.01289 -0.15216 -0.89719
v -0.00233 -0.15459 -0.91151
v 0.01475 -0.15366 -0.90604
v 0.01475 -0.15066 -0.88833
v -0.00233 -0.14973 -0.88286
v -0.01150 -0.17365 -0.89328
v -0.00190 -0.17617 -0.90624
v 0.01362 -0.17521 -0.90129
v 0.01362 -0.17209 -0.88526
v -0.00190 -0.17113 -0.88031
v -0.01011 -0.19504 -0.88885
v -0.00148 -0.19758 -0.90047
v 0.01250 -0.19661 -0.89603
v 0.01250 -0.19346 -0.88168
v -0.00148 -0.19249 -0.87724
v -0.00872 -0.21631 -0.88392
v -0.00105 -0.21882 -0.89418
v 0.01138 -0.21786 -0.89026
v 0.01138 -0.21476 -0.87757
v -0.00105 -0.21380 -0.87365
v -0.00733 -0.23746 -0.87847
v -0.00062 -0.23987 -0.88740
v 0.01025 -0.23895 -0.88399
v 0.01025 -0.23597 -0.87295
v -0.00062 -0.23505 -0.86954
v -0.00595 -0.25847 -0.87252
v -0.00019 -0.26072 -0.88012
v 0.00913 -0.25986 -0.87722
v 0.00913 -0.25708 -0.86782
v -0.00019 -0.25622 -0.86492
v -0.00456 -0.27934 -0.86607
v 0.00024 -0.28136 -0.87235
v 0.00801 -0.28059 -0.86995
v 0.00801 -0.27808 -0.86218
v 0.00024 -0.27731 -0.85978
v -0.00317 -0.30004 -0.85911
v 0.00067 -0.30178 -0.86410
v 0.00688 -0.30112 -0.86220
v 0.00688 -0.29896 -0.85603
v 0.00067 -0.29830 -0.85413
v -0.00178 -0.32057 -0.85167
v 0.00110 -0.32197 -0.85537
v 0.00576 -0.32143 -0.85396
v 0.00576 -0.31971 -0.84937
v 0.00110 -0.31917 -0.84796
v -0.00039 -0.34092 -0.84373
v 0.00153 -0.34190 -0.84618
v 0.00463 -0.34153 -0.84524
v 0.00463 -0.34030 -0.84221
v 0.00153 -0.33993 -0.84128
v 0.00100 -0.36106 -0.83530
v 0.00196 -0.36157 -0.83652
v 0.00351 -0.36138 -0.83606
v 0.00351 -0.36075 -0.83455
v 0.00196 -0.36056 -0.83408
v 0.00239 -0.00000 -0.91000
v 0.00239 -0.36106 -0.83530
s 1
f 2 6 1
s 1
f 2 8 7
s 1
f 3 9 8
s 1
f 4 10 9
s 1
f 1 10 5
s 1
f 7 11 6
s 1
f 7 13 12
s 1
f 8 14 13
s 1
f 9 15 14
s 1
f 6 15 10
s 1
f 12 16 11
s 1
f 12 18 17
s 1
f 13 19 18
s 1
f 14 20 19
s 1
f 11 20 15
s 1
f 17 21 16
s 1
f 17 23 22
s 1
f 18 24 23
s 1
f 19 25 24
s 1
f 16 25 20
s 1
f 22 26 21
s 1
f 22 28 27
s 1
f 23 29 28
s 1
f 24 30 29
s 1
f 21 30 25
s 1
f 27 31 26
s 1
f 27 33 32
s 1
f 28 34 33
s 1
f 29 35 34
s 1
f 26 35 30
s 1
f 32 36 31
s 1
f 32 38 37
s 1
f 33 39 38
s 1
f 34 40 39
s 1
f 31 40 35
s 1
f 37 41 36
s 1
f 37 43 42
s 1
f 38 44 43
s 1
f 39 45 44
s 1
f 36 45 40
s 1
f 42 46 41
s 1
f 42 48 47
s 1
f 43 49 48
s 1
f 44 50 49
s 1
f 41 50 45
s 1
f 47 51 46
s 1
f 47 53 52
s 1
f 48 54 53
s 1
f 49 55 54
s 1
f 46 55 50
s 1
f 52 56 51
s 1
f 52 58 57
s 1
f 53 59 58
s 1
f 54 60 59
s 1
f 51 60 55
s 1
f 57 61 56
s 1
f 57 63 62
s 1
f 58 64 63
s 1
f 59 65 64
s 1
f 56 65 60
s 1
f 62 66 61
s 1
f 62 68 67
s 1
f 63 69 68
s 1
f 64 70 69
s 1
f 61 70 65
s 1
f 67 71 66
s 1
f 67 73 72
s 1
f 68 74 73
s 1
f 69 75 74
s 1
f 66 75 70
s 1
f 72 76 71
s 1
f 72 78 77
s 1
f 73 79 78
s 1
f 74 80 79
s 1
f 71 80 75
s 1
f 77 81 76
s 1
f 77 83 82
s 1
f 78 84 83
s 1
f 79 85 84
s 1
f 76 85 80
s 1
f 81 87 86
s 1
f 83 87 82
s 1
f 84 88 83
s 1
f 85 89 84
s 1
f 85 86 90
s 1
f 91 2 1
s 1
f 91 3 2
s 1
f 91 4 3
s 1
f 91 5 4
s 1
f 91 1 5
s 1
f 86 87 92
s 1
f 87 88 92
s 1
f 88 89 92
s 1
f 89 90 92
s 1
f 90 86 92
s 1
f 94 98 93
s 1
f 94 100 99
s 1
f 95 101 100
s 1
f 96 102 101
s 1
f 93 102 97
s 1
f 99 103 98
s 1
f 99 105 104
s 1
f 100 106 105
s 1
f 101 107 106
s 1
f 98 107 102
s 1
f 104 108 103
s 1
f 104 110 109
s 1
f 105 111 110
s 1
f 106 112 111
s 1
f 103 112 107
s 1
f 109 113 108
s 1
f 109 115 114
s 1
f 110 116 115
s 1
f 111 117 116
s 1
f 108 117 112
s 1
f 114 118 113
s 1
f 114 120 119
s 1
f 115 121 120
s 1
f 116 122 121
s 1
f 113 122 117
s 1
f 119 123 118
s 1
f 119 125 124
s 1
f 120 126 125
s 1
f 121 127 126
s 1
f 118 127 122
s 1
f 124 128 123
s 1
f 124 130 129
s 1
f 125 131 130
s 1
f 126 132 131
s 1
f 123 132 127
s 1
f 129 133 128
s 1
f 129 135 134
s 1
f 130 136 135
s 1
f 131 137 136
s 1
f 128 137 132
s 1
f 134 138 133
s 1
f 134 140 139
s 1
f 135 141 140
s 1
f 136 142 141
s 1
f 133 142 137
s 1
f 139 143 138
s 1
f 139 145 144
s 1
f 140 146 145
s 1
f 141 147 146
s 1
f 138 147 142
s 1
f 144 148 143
s 1
f 144 150 149
s 1
f 145 151 150
s 1
f 146 152 151
s 1
f 143 152 147
s 1
f 149 153 148
s 1
f 149 155 154
s 1
f 150 156 155
s 1
f 151 157 156
s 1
f 148 157 152
s 1
f 154 158 153
s 1
f 154 160 159
s 1
f 155 161 160
s 1
f 156 162 161
s 1
f 153 162 157
s 1
f 159 163 158
s 1
f 159 165 164
s 1
f 160 166 165
s 1
f 161 167 166
s 1
f 158 167 162
s 1
f 164 168 163
s 1
f 164 170 169
s 1
f 165 171 170
s 1
f 166 172 171
s 1
f 163 172 167
s 1
f 169 173 168
s 1
f 170 174 169
s 1
f 170 176 175
s 1
f 171 177 176
s 1
f 168 177 172
s 1
f 173 179 178
s 1
f 175 179 174
s 1
f 176 180 175
s 1
f 177 181 176
s 1
f 177 178 182
s 1
f 183 94 93
s 1
f 183 95 94
s 1
f 183 96 95
s 1
f 183 97 96
s 1
f 183 93 97
s 1
f 178 179 184
s 1
f 179 180 184
s 1
f 180 181 184
s 1
f 181 182 184
s 1
f 182 178 184
s 1
f 2 7 6
s 1
f 2 3 8
s 1
f 3 4 9
s 1
f 4 5 10
s 1
f 1 6 10
s 1
f 7 12 11
s 1
f 7 8 13
s 1
f 8 9 14
s 1
f 9 10 15
s 1
f 6 11 15
s 1
f 12 17 16
s 1
f 12 13 18
s 1
f 13 14 19
s 1
f 14 15 20
s 1
f 11 16 20
s 1
f 17 22 21
s 1
f 17 18 23
s 1
f 18 19 24
s 1
f 19 20 25
s 1
f 16 21 25
s 1
f 22 27 26
s 1
f 22 23 28
s 1
f 23 24 29
s 1
f 24 25 30
s 1
f 21 26 30
s 1
f 27 32 31
s 1
f 27 28 33
s 1
f 28 29 34
s 1
f 29 30 35
s 1
f 26 31 35
s 1
f 32 37 36
s 1
f 32 33 38
s 1
f 33 34 39
s 1
f 34 35 40
s 1
f 31 36 40
s 1
f 37 42 41
s 1
f 37 38 43
s 1
f 38 39 44
s 1
f 39 40 45
s 1
f 36 41 45
s 1
f 42 47 46
s 1
f 42 43 48
s 1
f 43 44 49
s 1
f 44 45 50
s 1
f 41 46 50
s 1
f 47 52 51
s 1
f 47 48 53
s 1
f 48 49 54
s 1
f 49 50 55
s 1
f 46 51 55
s 1
f 52 57 56
s 1
f 52 53 58
s 1
f 53 54 59
s 1
f 54 55 60
s 1
f 51 56 60
s 1
f 57 62 61
s 1
f 57 58 63
s 1
f 58 59 64
s 1
f 59 60 65
s 1
f 56 61 65
s 1
f 62 67 66
s 1
f 62 63 68
s 1
f 63 64 69
s 1
f 64 65 70
s 1
f 61 66 70
s 1
f 67 72 71
s 1
f 67 68 73
s 1
f 68 69 74
s 1
f 69 70 75
s 1
f 66 71 75
s 1
f 72 77 76
s 1
f 72 73 78
s 1
f 73 74 79
s 1
f 74 75 80
s 1
f 71 76 80
s 1
f 77 82 81
s 1
f 77 78 83
s 1
f 78 79 84
s 1
f 79 80 85
s 1
f 76 81 85
s 1
f 81 82 87
s 1
f 83 88 87
s 1
f 84 89 88
s 1
f 85 90 89
s 1
f 85 81 86
s 1
f 94 99 98
s 1
f 94 95 100
s 1
f 95 96 101
s 1
f 96 97 102
s 1
f 93 98 102
s 1
f 99 104 103
s 1
f 99 100 105
s 1
f 100 101 106
s 1
f 101 102 107
s 1
f 98 103 107
s 1
f 104 109 108
s 1
f 104 105 110
s 1
f 105 106 111
s 1
f 106 107 112
s 1
f 103 108 112
s 1
f 109 114 113
s 1
f 109 110 115
s 1
f 110 111 116
s 1
f 111 112 117
s 1
f 108 113 117
s 1
f 114 119 118
s 1
f 114 115 120
s 1
f 115 116 121
s 1
f 116 117 122
s 1
f 113 118 122
s 1
f 119 124 123
s 1
f 119 120 125
s 1
f 120 121 126
s 1
f 121 122 127
s 1
f 118 123 127
s 1
f 124 129 128
s 1
f 124 125 130
s 1
f 125 126 131
s 1
f 126 127 132
s 1
f 123 128 132
s 1
f 129 134 133
s 1
f 129 130 135
s 1
f 130 131 136
s 1
f 131 132 137
s 1
f 128 133 137
s 1
f 134 139 138
s 1
f 134 135 140
s 1
f 135 136 141
s 1
f 136 137 142
s 1
f 133 138 142
s 1
f 139 144 143
s 1
f 139 140 145
s 1
f 140 141 146
s 1
f 141 142 147
s 1
f 138 143 147
s 1
f 144 149 148
s 1
f 144 145 150
s 1
f 145 146 151
s 1
f 146 147 152
s 1
f 143 148 152
s 1
f 149 154 153
s 1
f 149 150 155
s 1
f 150 151 156
s 1
f 151 152 157
s 1
f 148 153 157
s 1
f 154 159 158
s 1
f 154 155 160
s 1
f 155 156 161
s 1
f 156 157 162
s 1
f 153 158 162
s 1
f 159 164 163
s 1
f 159 160 165
s 1
f 160 161 166
s 1
f 161 162 167
s 1
f 158 163 167
s 1
f 164 169 168
s 1
f 164 165 170
s 1
f 165 166 171
s 1
f 166 167 172
s 1
f 163 168 172
s 1
f 169 174 173
s 1
f 170 175 174
s 1
f 170 171 176
s 1
f 171 172 177
s 1
f 168 173 177
s 1
f 173 174 179
s 1
f 175 180 179
s 1
f 176 181 180
s 1
f 177 182 181
s 1
f 177 173 178
