# eclipse Debris2_Contour.obj: Roblox cue frame, recentred on its bounding box
v 0.39950 0.51179 -0.15737
v 0.35608 0.53390 -0.22571
v 0.41608 0.53390 -0.26795
v 0.45317 0.53390 -0.15737
v 0.41608 0.53390 -0.04678
v 0.35608 0.53390 -0.08902
v 0.38292 0.56968 -0.26795
v 0.44292 0.56968 -0.22571
v 0.44292 0.56968 -0.08902
v 0.38292 0.56968 -0.04678
v 0.34584 0.56968 -0.15737
v 0.39950 0.59179 -0.15737
v 0.50398 -0.59179 -0.09748
v 0.46057 -0.56968 -0.16582
v 0.52057 -0.56968 -0.20806
v 0.55765 -0.56968 -0.09748
v 0.52057 -0.56968 0.01310
v 0.46057 -0.56968 -0.02914
v 0.48740 -0.53390 -0.20806
v 0.54740 -0.53390 -0.16582
v 0.54740 -0.53390 -0.02914
v 0.48740 -0.53390 0.01310
v 0.45032 -0.53390 -0.09748
v 0.50398 -0.51179 -0.09748
v -0.50398 -0.13048 0.15737
v -0.54740 -0.10837 0.08902
v -0.48740 -0.10837 0.04678
v -0.45032 -0.10837 0.15737
v -0.48740 -0.10837 0.26795
v -0.54740 -0.10837 0.22571
v -0.52057 -0.07260 0.04678
v -0.46057 -0.07260 0.08902
v -0.46057 -0.07260 0.22571
v -0.52057 -0.07260 0.26795
v -0.55765 -0.07260 0.15737
v -0.50398 -0.05048 0.15737
s 0
f 1 2 3
s 0
f 2 1 6
s 0
f 1 3 4
s 0
f 1 4 5
s 0
f 1 5 6
s 0
f 2 6 11
s 0
f 3 2 7
s 0
f 4 3 8
s 0
f 5 4 9
s 0
f 6 5 10
s 0
f 2 11 7
s 0
f 3 7 8
s 0
f 4 8 9
s 0
f 5 9 10
s 0
f 6 10 11
s 0
f 7 11 12
s 0
f 8 7 12
s 0
f 9 8 12
s 0
f 10 9 12
s 0
f 11 10 12
s 0
f 13 14 15
s 0
f 14 13 18
s 0
f 13 15 16
s 0
f 13 16 17
s 0
f 13 17 18
s 0
f 14 18 23
s 0
f 15 14 19
s 0
f 16 15 20
s 0
f 17 16 21
s 0
f 18 17 22
s 0
f 14 23 19
s 0
f 15 19 20
s 0
f 16 20 21
s 0
f 17 21 22
s 0
f 18 22 23
s 0
f 19 23 24
s 0
f 20 19 24
s 0
f 21 20 24
s 0
f 22 21 24
s 0
f 23 22 24
s 0
f 25 26 27
s 0
f 26 25 30
s 0
f 25 27 28
s 0
f 25 28 29
s 0
f 25 29 30
s 0
f 26 30 35
s 0
f 27 26 31
s 0
f 28 27 32
s 0
f 29 28 33
s 0
f 30 29 34
s 0
f 26 35 31
s 0
f 27 31 32
s 0
f 28 32 33
s 0
f 29 33 34
s 0
f 30 34 35
s 0
f 31 35 36
s 0
f 32 31 36
s 0
f 33 32 36
s 0
f 34 33 36
s 0
f 35 34 36
