# eclipse Debris_Obsidian.obj: Roblox cue frame, recentred on its bounding box
v 0.04741 0.39875 0.11741
v 0.03166 0.40536 0.11139
v 0.02157 0.40513 0.10788
v 0.03273 0.40319 0.10624
v 0.06213 0.40199 0.10666
v 0.03294 0.40434 0.11184
v 0.03320 0.41868 0.13708
v 0.04114 0.41620 0.10080
v 0.02730 0.41729 0.11363
v 0.02988 0.41935 0.10612
v 0.03717 0.41819 0.10713
v 0.04741 0.43169 0.11741
v -0.18221 0.23783 -0.15542
v -0.15374 0.25225 -0.15408
v -0.16489 0.25142 -0.18101
v -0.18908 0.25592 -0.13375
v -0.14538 0.25152 -0.17147
v -0.16032 0.25614 -0.17148
v -0.15898 0.27047 -0.16379
v -0.16041 0.27238 -0.15610
v -0.18423 0.27330 -0.13235
v -0.15600 0.27173 -0.18308
v -0.19455 0.27566 -0.13825
v -0.18221 0.28170 -0.15542
v -0.28022 0.02228 0.06706
v -0.30368 0.03851 0.05476
v -0.24511 0.03742 0.06512
v -0.29398 0.04167 0.08247
v -0.25872 0.04109 0.07437
v -0.27861 0.04225 0.08807
v -0.26455 0.05564 0.04431
v -0.30307 0.05690 0.05974
v -0.26448 0.06019 0.08207
v -0.26813 0.05598 0.09441
v -0.29079 0.06008 0.08404
v -0.28022 0.07022 0.06706
v -0.31184 -0.21507 0.17312
v -0.28717 -0.20352 0.14882
v -0.30023 -0.20562 0.14036
v -0.31425 -0.20567 0.20952
v -0.29686 -0.20219 0.21153
v -0.32587 -0.20147 0.14911
v -0.32061 -0.17440 0.13344
v -0.32993 -0.17979 0.13912
v -0.30785 -0.17676 0.20149
v -0.35298 -0.17654 0.17451
v -0.31634 -0.17461 0.15097
v -0.31184 -0.16729 0.17312
v -0.16778 -0.43169 -0.17508
v -0.15904 -0.41972 -0.19286
v -0.14204 -0.42013 -0.15168
v -0.14805 -0.41551 -0.17685
v -0.17273 -0.41767 -0.14284
v -0.15083 -0.41930 -0.15340
v -0.14971 -0.40043 -0.15613
v -0.14589 -0.40103 -0.18137
v -0.16450 -0.39857 -0.15157
v -0.16857 -0.39901 -0.21153
v -0.17680 -0.39935 -0.15493
v -0.16778 -0.39157 -0.17508
v 0.16869 -0.32752 -0.06512
v 0.18562 -0.32195 -0.04901
v 0.14903 -0.32277 -0.03408
v 0.15980 -0.32042 -0.04164
v 0.16372 -0.32022 -0.03282
v 0.19343 -0.32294 -0.04526
v 0.13402 -0.29836 -0.08498
v 0.15089 -0.30287 -0.08092
v 0.16712 -0.29869 -0.03966
v 0.19261 -0.29941 -0.03869
v 0.14108 -0.30200 -0.07371
v 0.16869 -0.28156 -0.06512
v 0.31851 -0.25090 -0.00889
v 0.31254 -0.23477 0.01452
v 0.32815 -0.23501 -0.03618
v 0.31613 -0.23522 -0.03335
v 0.34524 -0.23609 0.00992
v 0.34064 -0.23897 0.00611
v 0.35298 -0.21912 -0.00308
v 0.30128 -0.21850 -0.00320
v 0.30204 -0.21878 0.00988
v 0.28981 -0.22176 0.00919
v 0.30029 -0.21921 -0.01800
v 0.31851 -0.20816 -0.00889
v 0.32566 -0.00967 0.11264
v 0.30894 0.00378 0.10172
v 0.32665 0.00195 0.13156
v 0.33779 0.00099 0.10308
v 0.30820 0.00308 0.13094
v 0.30960 0.00216 0.12660
v 0.35180 0.02018 0.12844
v 0.32520 0.01708 0.09232
v 0.34677 0.01803 0.11212
v 0.30128 0.02095 0.09426
v 0.34162 0.01821 0.11682
v 0.32566 0.02666 0.11264
v 0.18024 0.28524 -0.06089
v 0.20476 0.29485 -0.03691
v 0.15462 0.29568 -0.03694
v 0.18259 0.29408 -0.08245
v 0.14108 0.29074 -0.07507
v 0.21941 0.29344 -0.05037
v 0.21259 0.31972 -0.05037
v 0.18897 0.32097 -0.02782
v 0.14867 0.31534 -0.08553
v 0.13383 0.32032 -0.04731
v 0.19126 0.31941 -0.09032
v 0.18024 0.32762 -0.06089
f 1 2 3
f 2 1 6
f 1 3 4
f 1 4 5
f 1 5 6
f 2 6 11
f 3 2 7
f 4 3 8
f 5 4 9
f 6 5 10
f 2 11 7
f 3 7 8
f 4 8 9
f 5 9 10
f 6 10 11
f 7 11 12
f 8 7 12
f 9 8 12
f 10 9 12
f 11 10 12
f 13 14 15
f 14 13 18
f 13 15 16
f 13 16 17
f 13 17 18
f 14 18 23
f 15 14 19
f 16 15 20
f 17 16 21
f 18 17 22
f 14 23 19
f 15 19 20
f 16 20 21
f 17 21 22
f 18 22 23
f 19 23 24
f 20 19 24
f 21 20 24
f 22 21 24
f 23 22 24
f 25 26 27
f 26 25 30
f 25 27 28
f 25 28 29
f 25 29 30
f 26 30 35
f 27 26 31
f 28 27 32
f 29 28 33
f 30 29 34
f 26 35 31
f 27 31 32
f 28 32 33
f 29 33 34
f 30 34 35
f 31 35 36
f 32 31 36
f 33 32 36
f 34 33 36
f 35 34 36
f 37 38 39
f 38 37 42
f 37 39 40
f 37 40 41
f 37 41 42
f 38 42 47
f 39 38 43
f 40 39 44
f 41 40 45
f 42 41 46
f 38 47 43
f 39 43 44
f 40 44 45
f 41 45 46
f 42 46 47
f 43 47 48
f 44 43 48
f 45 44 48
f 46 45 48
f 47 46 48
f 49 50 51
f 50 49 54
f 49 51 52
f 49 52 53
f 49 53 54
f 50 54 59
f 51 50 55
f 52 51 56
f 53 52 57
f 54 53 58
f 50 59 55
f 51 55 56
f 52 56 57
f 53 57 58
f 54 58 59
f 55 59 60
f 56 55 60
f 57 56 60
f 58 57 60
f 59 58 60
f 61 62 63
f 62 61 66
f 61 63 64
f 61 64 65
f 61 65 66
f 62 66 71
f 63 62 67
f 64 63 68
f 65 64 69
f 66 65 70
f 62 71 67
f 63 67 68
f 64 68 69
f 65 69 70
f 66 70 71
f 67 71 72
f 68 67 72
f 69 68 72
f 70 69 72
f 71 70 72
f 73 74 75
f 74 73 78
f 73 75 76
f 73 76 77
f 73 77 78
f 74 78 83
f 75 74 79
f 76 75 80
f 77 76 81
f 78 77 82
f 74 83 79
f 75 79 80
f 76 80 81
f 77 81 82
f 78 82 83
f 79 83 84
f 80 79 84
f 81 80 84
f 82 81 84
f 83 82 84
f 85 86 87
f 86 85 90
f 85 87 88
f 85 88 89
f 85 89 90
f 86 90 95
f 87 86 91
f 88 87 92
f 89 88 93
f 90 89 94
f 86 95 91
f 87 91 92
f 88 92 93
f 89 93 94
f 90 94 95
f 91 95 96
f 92 91 96
f 93 92 96
f 94 93 96
f 95 94 96
f 97 98 99
f 98 97 102
f 97 99 100
f 97 100 101
f 97 101 102
f 98 102 107
f 99 98 103
f 100 99 104
f 101 100 105
f 102 101 106
f 98 107 103
f 99 103 104
f 100 104 105
f 101 105 106
f 102 106 107
f 103 107 108
f 104 103 108
f 105 104 108
f 106 105 108
f 107 106 108
