# eclipse Debris0_Contour.obj: Roblox cue frame, recentred on its bounding box
v -0.39000 -0.04000 0.01171
v -0.43342 -0.01789 -0.05663
v -0.37342 -0.01789 -0.09887
v -0.33633 -0.01789 0.01171
v -0.37342 -0.01789 0.12230
v -0.43342 -0.01789 0.08006
v -0.40658 0.01789 -0.09887
v -0.34658 0.01789 -0.05663
v -0.34658 0.01789 0.08006
v -0.40658 0.01789 0.12230
v -0.44367 0.01789 0.01171
v -0.39000 0.04000 0.01171
v 0.39000 0.41033 0.19202
v 0.34658 0.43244 0.12367
v 0.40658 0.43244 0.08143
v 0.44367 0.43244 0.19202
v 0.40658 0.43244 0.30260
v 0.34658 0.43244 0.26036
v 0.37342 0.46822 0.08143
v 0.43342 0.46822 0.12367
v 0.43342 0.46822 0.26036
v 0.37342 0.46822 0.30260
v 0.33633 0.46822 0.19202
v 0.39000 0.49033 0.19202
v 0.39000 -0.49033 -0.19202
v 0.34658 -0.46822 -0.26036
v 0.40658 -0.46822 -0.30260
v 0.44367 -0.46822 -0.19202
v 0.40658 -0.46822 -0.08143
v 0.34658 -0.46822 -0.12367
v 0.37342 -0.43244 -0.30260
v 0.43342 -0.43244 -0.26036
v 0.43342 -0.43244 -0.12367
v 0.37342 -0.43244 -0.08143
v 0.33633 -0.43244 -0.19202
v 0.39000 -0.41033 -0.19202
s 0
f 1 2 3
s 0
f 2 1 6
s 0
f 1 3 4
s 0
f 1 4 5
s 0
f 1 5 6
s 0
f 2 6 11
s 0
f 3 2 7
s 0
f 4 3 8
s 0
f 5 4 9
s 0
f 6 5 10
s 0
f 2 11 7
s 0
f 3 7 8
s 0
f 4 8 9
s 0
f 5 9 10
s 0
f 6 10 11
s 0
f 7 11 12
s 0
f 8 7 12
s 0
f 9 8 12
s 0
f 10 9 12
s 0
f 11 10 12
s 0
f 13 14 15
s 0
f 14 13 18
s 0
f 13 15 16
s 0
f 13 16 17
s 0
f 13 17 18
s 0
f 14 18 23
s 0
f 15 14 19
s 0
f 16 15 20
s 0
f 17 16 21
s 0
f 18 17 22
s 0
f 14 23 19
s 0
f 15 19 20
s 0
f 16 20 21
s 0
f 17 21 22
s 0
f 18 22 23
s 0
f 19 23 24
s 0
f 20 19 24
s 0
f 21 20 24
s 0
f 22 21 24
s 0
f 23 22 24
s 0
f 25 26 27
s 0
f 26 25 30
s 0
f 25 27 28
s 0
f 25 28 29
s 0
f 25 29 30
s 0
f 26 30 35
s 0
f 27 26 31
s 0
f 28 27 32
s 0
f 29 28 33
s 0
f 30 29 34
s 0
f 26 35 31
s 0
f 27 31 32
s 0
f 28 32 33
s 0
f 29 33 34
s 0
f 30 34 35
s 0
f 31 35 36
s 0
f 32 31 36
s 0
f 33 32 36
s 0
f 34 33 36
s 0
f 35 34 36
