# eclipse Flare2_CoronaSpike.obj: Roblox cue frame, recentred on its bounding box
v -0.38707 0.01956 0.00009
v -0.38707 0.00956 -0.01723
v -0.38707 -0.01044 -0.01723
v -0.38707 -0.02044 0.00009
v -0.38707 -0.01044 0.01741
v -0.38707 0.00956 0.01741
v -0.41116 0.01556 0.00009
v -0.41116 0.00756 -0.01376
v -0.41116 -0.00844 -0.01376
v -0.41116 -0.01644 0.00009
v -0.41116 -0.00844 0.01395
v -0.41116 0.00756 0.01395
v -0.43526 0.01056 0.00009
v -0.43526 0.00506 -0.00943
v -0.43526 -0.00594 -0.00943
v -0.43526 -0.01144 0.00009
v -0.43526 -0.00594 0.00962
v -0.43526 0.00506 0.00962
v -0.45935 0.00556 0.00009
v -0.45935 0.00256 -0.00510
v -0.45935 -0.00344 -0.00510
v -0.45935 -0.00644 0.00009
v -0.45935 -0.00344 0.00529
v -0.45935 0.00256 0.00529
v -0.48344 0.00156 0.00009
v -0.48344 0.00056 -0.00164
v -0.48344 -0.00144 -0.00164
v -0.48344 -0.00244 0.00009
v -0.48344 -0.00144 0.00182
v -0.48344 0.00056 0.00182
v -0.38707 -0.00044 0.00009
v -0.48344 -0.00044 0.00009
v -0.36962 -0.11541 0.02904
v -0.36759 -0.12483 0.01152
v -0.36092 -0.14368 0.01101
v -0.35627 -0.15310 0.02803
v -0.35830 -0.14368 0.04555
v -0.36497 -0.12483 0.04606
v -0.37368 -0.12110 0.02935
v -0.37206 -0.12864 0.01533
v -0.36672 -0.14371 0.01493
v -0.36300 -0.15125 0.02854
v -0.36463 -0.14371 0.04256
v -0.36996 -0.12864 0.04296
v -0.37741 -0.12773 0.02963
v -0.37629 -0.13291 0.01999
v -0.37262 -0.14328 0.01972
v -0.37007 -0.14846 0.02908
v -0.37118 -0.14328 0.03871
v -0.37485 -0.13291 0.03899
v -0.38113 -0.13436 0.02991
v -0.38053 -0.13719 0.02466
v -0.37852 -0.14284 0.02450
v -0.37713 -0.14567 0.02961
v -0.37774 -0.14284 0.03487
v -0.37974 -0.13719 0.03502
v -0.38520 -0.14005 0.03022
v -0.38499 -0.14100 0.02847
v -0.38433 -0.14288 0.02842
v -0.38386 -0.14382 0.03012
v -0.38406 -0.14288 0.03187
v -0.38473 -0.14100 0.03192
v -0.36295 -0.13425 0.02854
v -0.38453 -0.14194 0.03017
v -0.30587 -0.23638 0.05571
v -0.30266 -0.24416 0.03757
v -0.29027 -0.25971 0.03541
v -0.28110 -0.26749 0.05139
v -0.28432 -0.25971 0.06953
v -0.29670 -0.24416 0.07169
v -0.32209 -0.25484 0.05854
v -0.31952 -0.26106 0.04403
v -0.30961 -0.27350 0.04230
v -0.30227 -0.27972 0.05508
v -0.30485 -0.27350 0.06960
v -0.31476 -0.26106 0.07133
v -0.33769 -0.27407 0.06126
v -0.33592 -0.27835 0.05128
v -0.32911 -0.28690 0.05009
v -0.32407 -0.29118 0.05888
v -0.32584 -0.28690 0.06886
v -0.33265 -0.27835 0.07005
v -0.35329 -0.29330 0.06398
v -0.35233 -0.29564 0.05854
v -0.34861 -0.30030 0.05789
v -0.34586 -0.30264 0.06269
v -0.34683 -0.30030 0.06813
v -0.35054 -0.29564 0.06878
v -0.36951 -0.31176 0.06681
v -0.36919 -0.31254 0.06500
v -0.36795 -0.31409 0.06478
v -0.36704 -0.31487 0.06638
v -0.36736 -0.31409 0.06820
v -0.36860 -0.31254 0.06841
v -0.29349 -0.25193 0.05355
v -0.36828 -0.31332 0.06660
v -0.20301 -0.32865 0.07785
v -0.20091 -0.33396 0.05869
v -0.18497 -0.34459 0.05295
v -0.17113 -0.34990 0.06638
v -0.17323 -0.34459 0.08554
v -0.18917 -0.33396 0.09128
v -0.20255 -0.33540 0.07769
v -0.20087 -0.33965 0.06236
v -0.18812 -0.34815 0.05777
v -0.17705 -0.35240 0.06851
v -0.17873 -0.34815 0.08384
v -0.19148 -0.33965 0.08843
v -0.20130 -0.34268 0.07724
v -0.20014 -0.34560 0.06670
v -0.19137 -0.35145 0.06354
v -0.18376 -0.35437 0.07093
v -0.18492 -0.35145 0.08147
v -0.19369 -0.34560 0.08462
v -0.20004 -0.34996 0.07679
v -0.19941 -0.35156 0.07104
v -0.19463 -0.35475 0.06932
v -0.19048 -0.35634 0.07334
v -0.19111 -0.35475 0.07909
v -0.19589 -0.35156 0.08081
v -0.19958 -0.35671 0.07662
v -0.19937 -0.35725 0.07470
v -0.19778 -0.35831 0.07413
v -0.19639 -0.35884 0.07547
v -0.19661 -0.35831 0.07739
v -0.19820 -0.35725 0.07796
v -0.18707 -0.33928 0.07212
v -0.19799 -0.35778 0.07605
v -0.07622 -0.38235 0.08127
v -0.06638 -0.38765 0.06469
v -0.04668 -0.39105 0.06541
v -0.03683 -0.38915 0.08272
v -0.04668 -0.38385 0.09930
v -0.06638 -0.38045 0.09857
v -0.07657 -0.40678 0.08647
v -0.06869 -0.41102 0.07320
v -0.05293 -0.41374 0.07378
v -0.04505 -0.41222 0.08762
v -0.05293 -0.40798 0.10089
v -0.06869 -0.40526 0.10031
v -0.07592 -0.43139 0.09169
v -0.07051 -0.43430 0.08257
v -0.05968 -0.43617 0.08297
v -0.05426 -0.43512 0.09249
v -0.05968 -0.43221 0.10161
v -0.07051 -0.43034 0.10121
v -0.07528 -0.45599 0.09692
v -0.07233 -0.45758 0.09195
v -0.06642 -0.45860 0.09217
v -0.06346 -0.45802 0.09736
v -0.06642 -0.45643 0.10233
v -0.07233 -0.45542 0.10211
v -0.07562 -0.48042 0.10212
v -0.07464 -0.48095 0.10046
v -0.07267 -0.48129 0.10053
v -0.07169 -0.48110 0.10226
v -0.07267 -0.48057 0.10392
v -0.07464 -0.48023 0.10385
v -0.05653 -0.38575 0.08199
v -0.07365 -0.48076 0.10219
v 0.06269 -0.38915 0.08272
v 0.07254 -0.39105 0.06541
v 0.09224 -0.38765 0.06469
v 0.10209 -0.38235 0.08127
v 0.09224 -0.38045 0.09857
v 0.07254 -0.38385 0.09930
v 0.06754 -0.39352 0.08365
v 0.07542 -0.39504 0.06980
v 0.09118 -0.39233 0.06923
v 0.09906 -0.38808 0.08249
v 0.09118 -0.38656 0.09633
v 0.07542 -0.38928 0.09691
v 0.07338 -0.39772 0.08454
v 0.07879 -0.39877 0.07502
v 0.08963 -0.39690 0.07462
v 0.09504 -0.39399 0.08374
v 0.08963 -0.39294 0.09326
v 0.07879 -0.39481 0.09366
v 0.07921 -0.40192 0.08543
v 0.08217 -0.40249 0.08024
v 0.08808 -0.40148 0.08002
v 0.09103 -0.39989 0.08500
v 0.08808 -0.39932 0.09019
v 0.08217 -0.40033 0.09041
v 0.08406 -0.40630 0.08636
v 0.08505 -0.40649 0.08463
v 0.08702 -0.40615 0.08456
v 0.08800 -0.40562 0.08622
v 0.08702 -0.40543 0.08795
v 0.08505 -0.40577 0.08802
v 0.08239 -0.38575 0.08199
v 0.08603 -0.40596 0.08629
v 0.22887 -0.32865 0.07786
v 0.21503 -0.33396 0.09128
v 0.19909 -0.34459 0.08554
v 0.19699 -0.34991 0.06638
v 0.21083 -0.34459 0.05295
v 0.22677 -0.33396 0.05869
v 0.23810 -0.35181 0.08118
v 0.22703 -0.35607 0.09192
v 0.21428 -0.36457 0.08733
v 0.21260 -0.36882 0.07200
v 0.22367 -0.36457 0.06126
v 0.23642 -0.35607 0.06585
v 0.24654 -0.37551 0.08422
v 0.23893 -0.37844 0.09160
v 0.23016 -0.38428 0.08844
v 0.22900 -0.38720 0.07790
v 0.23661 -0.38428 0.07052
v 0.24538 -0.37844 0.07368
v 0.25497 -0.39921 0.08725
v 0.25082 -0.40081 0.09128
v 0.24604 -0.40399 0.08956
v 0.24541 -0.40559 0.08381
v 0.24956 -0.40399 0.07978
v 0.25434 -0.40081 0.08151
v 0.26420 -0.42238 0.09058
v 0.26282 -0.42291 0.09192
v 0.26123 -0.42397 0.09135
v 0.26101 -0.42450 0.08943
v 0.26240 -0.42397 0.08809
v 0.26399 -0.42291 0.08866
v 0.21293 -0.33928 0.07212
v 0.26261 -0.42344 0.09000
v 0.33174 -0.23638 0.05571
v 0.32257 -0.24416 0.07169
v 0.31018 -0.25971 0.06953
v 0.30696 -0.26749 0.05139
v 0.31613 -0.25971 0.03541
v 0.32852 -0.24416 0.03757
v 0.33316 -0.24269 0.05596
v 0.32583 -0.24892 0.06875
v 0.31592 -0.26136 0.06702
v 0.31334 -0.26758 0.05250
v 0.32068 -0.26136 0.03972
v 0.33059 -0.24892 0.04145
v 0.33397 -0.24979 0.05610
v 0.32892 -0.25406 0.06489
v 0.32211 -0.26262 0.06370
v 0.32034 -0.26689 0.05372
v 0.32539 -0.26262 0.04493
v 0.33220 -0.25406 0.04612
v 0.33477 -0.25688 0.05624
v 0.33202 -0.25921 0.06104
v 0.32831 -0.26388 0.06039
v 0.32734 -0.26621 0.05494
v 0.33009 -0.26388 0.05015
v 0.33381 -0.25921 0.05080
v 0.33620 -0.26319 0.05649
v 0.33528 -0.26397 0.05809
v 0.33404 -0.26552 0.05787
v 0.33372 -0.26630 0.05606
v 0.33464 -0.26552 0.05446
v 0.33588 -0.26397 0.05468
v 0.31935 -0.25193 0.05355
v 0.33496 -0.26475 0.05627
v 0.39548 -0.11541 0.02904
v 0.39084 -0.12483 0.04606
v 0.38416 -0.14368 0.04556
v 0.38214 -0.15310 0.02803
v 0.38678 -0.14368 0.01101
v 0.39345 -0.12483 0.01152
v 0.41759 -0.12752 0.03072
v 0.41388 -0.13506 0.04433
v 0.40854 -0.15014 0.04393
v 0.40692 -0.15768 0.02991
v 0.41063 -0.15014 0.01629
v 0.41597 -0.13506 0.01670
v 0.43937 -0.14058 0.03236
v 0.43682 -0.14577 0.04172
v 0.43315 -0.15613 0.04145
v 0.43204 -0.16132 0.03181
v 0.43459 -0.15613 0.02245
v 0.43826 -0.14577 0.02273
v 0.46116 -0.15364 0.03401
v 0.45976 -0.15647 0.03912
v 0.45776 -0.16213 0.03897
v 0.45715 -0.16495 0.03371
v 0.45855 -0.16213 0.02860
v 0.46055 -0.15647 0.02875
v 0.48327 -0.16576 0.03568
v 0.48281 -0.16670 0.03739
v 0.48214 -0.16859 0.03734
v 0.48194 -0.16953 0.03558
v 0.48240 -0.16859 0.03388
v 0.48307 -0.16670 0.03393
v 0.38881 -0.13425 0.02854
v 0.48260 -0.16765 0.03563
v 0.41293 0.01956 0.00009
v 0.41293 0.00956 0.01741
v 0.41293 -0.01044 0.01741
v 0.41293 -0.02044 0.00009
v 0.41293 -0.01044 -0.01723
v 0.41293 0.00956 -0.01723
v 0.41795 0.01556 0.00009
v 0.41795 0.00756 0.01395
v 0.41795 -0.00844 0.01395
v 0.41795 -0.01644 0.00009
v 0.41795 -0.00844 -0.01376
v 0.41795 0.00756 -0.01376
v 0.42296 0.01056 0.00009
v 0.42296 0.00506 0.00962
v 0.42296 -0.00594 0.00962
v 0.42296 -0.01144 0.00009
v 0.42296 -0.00594 -0.00943
v 0.42296 0.00506 -0.00943
v 0.42798 0.00556 0.00009
v 0.42798 0.00256 0.00529
v 0.42798 -0.00344 0.00529
v 0.42798 -0.00644 0.00009
v 0.42798 -0.00344 -0.00510
v 0.42798 0.00256 -0.00510
v 0.43299 0.00156 0.00009
v 0.43299 0.00056 0.00182
v 0.43299 -0.00144 0.00182
v 0.43299 -0.00244 0.00009
v 0.43299 -0.00144 -0.00164
v 0.43299 0.00056 -0.00164
v 0.41293 -0.00044 0.00009
v 0.43299 -0.00044 0.00009
v 0.38214 0.15223 -0.02785
v 0.38678 0.14281 -0.01083
v 0.39345 0.12396 -0.01133
v 0.39548 0.11453 -0.02886
v 0.39084 0.12396 -0.04587
v 0.38417 0.14281 -0.04537
v 0.40696 0.15682 -0.02972
v 0.41068 0.14928 -0.01611
v 0.41601 0.13421 -0.01651
v 0.41764 0.12667 -0.03053
v 0.41392 0.13421 -0.04415
v 0.40858 0.14928 -0.04374
v 0.43212 0.16048 -0.03163
v 0.43468 0.15529 -0.02227
v 0.43834 0.14493 -0.02255
v 0.43946 0.13974 -0.03218
v 0.43691 0.14493 -0.04154
v 0.43324 0.15529 -0.04127
v 0.45728 0.16413 -0.03353
v 0.45867 0.16130 -0.02843
v 0.46068 0.15565 -0.02858
v 0.46128 0.15282 -0.03384
v 0.45989 0.15565 -0.03894
v 0.45789 0.16130 -0.03879
v 0.48211 0.16872 -0.03541
v 0.48257 0.16778 -0.03371
v 0.48324 0.16589 -0.03376
v 0.48344 0.16495 -0.03551
v 0.48298 0.16589 -0.03721
v 0.48231 0.16778 -0.03716
v 0.38881 0.13338 -0.02835
v 0.48277 0.16684 -0.03546
v 0.30696 0.26661 -0.05120
v 0.31613 0.25884 -0.03522
v 0.32852 0.24328 -0.03738
v 0.33174 0.23551 -0.05553
v 0.32257 0.24328 -0.07151
v 0.31018 0.25884 -0.06935
v 0.31327 0.26665 -0.05230
v 0.32061 0.26043 -0.03952
v 0.33052 0.24799 -0.04125
v 0.33309 0.24176 -0.05576
v 0.32576 0.24799 -0.06855
v 0.31585 0.26043 -0.06682
v 0.32020 0.26591 -0.05351
v 0.32525 0.26163 -0.04472
v 0.33206 0.25308 -0.04591
v 0.33383 0.24880 -0.05589
v 0.32878 0.25308 -0.06468
v 0.32197 0.26163 -0.06349
v 0.32713 0.26516 -0.05472
v 0.32988 0.26283 -0.04993
v 0.33360 0.25817 -0.05058
v 0.33456 0.25583 -0.05602
v 0.33181 0.25817 -0.06081
v 0.32810 0.26283 -0.06017
v 0.33344 0.26520 -0.05582
v 0.33436 0.26442 -0.05423
v 0.33560 0.26287 -0.05444
v 0.33592 0.26209 -0.05626
v 0.33500 0.26287 -0.05785
v 0.33376 0.26442 -0.05764
v 0.31935 0.25106 -0.05336
v 0.33468 0.26365 -0.05604
v 0.19699 0.34903 -0.06619
v 0.21083 0.34372 -0.05276
v 0.22677 0.33309 -0.05850
v 0.22887 0.32778 -0.07767
v 0.21503 0.33309 -0.09110
v 0.19909 0.34372 -0.08536
v 0.21267 0.36806 -0.07183
v 0.22374 0.36381 -0.06109
v 0.23649 0.35531 -0.06569
v 0.23817 0.35106 -0.08102
v 0.22710 0.35531 -0.09176
v 0.21435 0.36381 -0.08717
v 0.22914 0.38656 -0.07777
v 0.23675 0.38364 -0.07038
v 0.24552 0.37779 -0.07354
v 0.24667 0.37487 -0.08408
v 0.23906 0.37779 -0.09147
v 0.23030 0.38364 -0.08831
v 0.24561 0.40506 -0.08370
v 0.24976 0.40347 -0.07967
v 0.25455 0.40028 -0.08139
v 0.25518 0.39869 -0.08714
v 0.25102 0.40028 -0.09117
v 0.24624 0.40347 -0.08945
v 0.26129 0.42409 -0.08934
v 0.26267 0.42356 -0.08800
v 0.26427 0.42250 -0.08858
v 0.26448 0.42197 -0.09049
v 0.26309 0.42250 -0.09183
v 0.26150 0.42356 -0.09126
v 0.21293 0.33840 -0.07193
v 0.26288 0.42303 -0.08992
v 0.06269 0.38828 -0.08253
v 0.07254 0.39018 -0.06523
v 0.09224 0.38678 -0.06451
v 0.10209 0.38148 -0.08109
v 0.09224 0.37958 -0.09839
v 0.07254 0.38298 -0.09911
v 0.06751 0.39247 -0.08342
v 0.07539 0.39400 -0.06958
v 0.09115 0.39128 -0.06900
v 0.09903 0.38704 -0.08227
v 0.09115 0.38551 -0.09611
v 0.07539 0.38823 -0.09669
v 0.07332 0.39650 -0.08428
v 0.07873 0.39755 -0.07476
v 0.08956 0.39568 -0.07436
v 0.09498 0.39276 -0.08348
v 0.08956 0.39172 -0.09300
v 0.07873 0.39358 -0.09340
v 0.07912 0.40053 -0.08513
v 0.08207 0.40110 -0.07994
v 0.08798 0.40008 -0.07973
v 0.09094 0.39849 -0.08470
v 0.08798 0.39792 -0.08989
v 0.08207 0.39894 -0.09011
v 0.08394 0.40472 -0.08603
v 0.08492 0.40491 -0.08430
v 0.08689 0.40457 -0.08422
v 0.08788 0.40404 -0.08588
v 0.08689 0.40385 -0.08761
v 0.08492 0.40419 -0.08768
v 0.08239 0.38488 -0.08181
v 0.08591 0.40438 -0.08595
v -0.07622 0.38148 -0.08109
v -0.06638 0.38678 -0.06451
v -0.04668 0.39018 -0.06523
v -0.03683 0.38828 -0.08253
v -0.04668 0.38298 -0.09911
v -0.06638 0.37958 -0.09839
v -0.07661 0.40613 -0.08633
v -0.06873 0.41037 -0.07306
v -0.05297 0.41309 -0.07364
v -0.04509 0.41157 -0.08748
v -0.05297 0.40733 -0.10075
v -0.06873 0.40461 -0.10017
v -0.07600 0.43095 -0.09160
v -0.07059 0.43386 -0.08248
v -0.05975 0.43573 -0.08288
v -0.05434 0.43469 -0.09240
v -0.05975 0.43177 -0.10152
v -0.07059 0.42990 -0.10112
v -0.07540 0.45577 -0.09688
v -0.07245 0.45736 -0.09190
v -0.06654 0.45838 -0.09212
v -0.06358 0.45781 -0.09731
v -0.06654 0.45622 -0.10228
v -0.07245 0.45520 -0.10207
v -0.07578 0.48042 -0.10212
v -0.07480 0.48095 -0.10046
v -0.07283 0.48129 -0.10053
v -0.07184 0.48110 -0.10226
v -0.07283 0.48057 -0.10392
v -0.07480 0.48023 -0.10385
v -0.05653 0.38488 -0.08181
v -0.07381 0.48076 -0.10219
v -0.17113 0.34903 -0.06619
v -0.17323 0.34372 -0.08536
v -0.18917 0.33309 -0.09110
v -0.20301 0.32778 -0.07767
v -0.20091 0.33309 -0.05850
v -0.18497 0.34372 -0.05276
v -0.17691 0.35130 -0.06827
v -0.17859 0.34705 -0.08361
v -0.19135 0.33855 -0.08820
v -0.20242 0.33430 -0.07746
v -0.20073 0.33855 -0.06212
v -0.18798 0.34705 -0.05753
v -0.18349 0.35304 -0.07064
v -0.18465 0.35012 -0.08118
v -0.19341 0.34427 -0.08434
v -0.20103 0.34135 -0.07696
v -0.19987 0.34427 -0.06641
v -0.19110 0.35012 -0.06326
v -0.19007 0.35478 -0.07301
v -0.19070 0.35318 -0.07876
v -0.19548 0.35000 -0.08048
v -0.19963 0.34840 -0.07645
v -0.19900 0.35000 -0.07071
v -0.19422 0.35319 -0.06898
v -0.19585 0.35705 -0.07509
v -0.19606 0.35652 -0.07701
v -0.19766 0.35545 -0.07758
v -0.19904 0.35492 -0.07624
v -0.19883 0.35545 -0.07432
v -0.19724 0.35652 -0.07375
v -0.18707 0.33840 -0.07193
v -0.19745 0.35599 -0.07567
v -0.28110 0.26661 -0.05120
v -0.28432 0.25884 -0.06935
v -0.29670 0.24328 -0.07151
v -0.30587 0.23551 -0.05553
v -0.30266 0.24328 -0.03738
v -0.29027 0.25884 -0.03522
v -0.30252 0.27905 -0.05494
v -0.30509 0.27282 -0.06945
v -0.31500 0.26038 -0.07118
v -0.32234 0.25416 -0.05840
v -0.31976 0.26038 -0.04388
v -0.30985 0.27282 -0.04215
v -0.32455 0.29070 -0.05878
v -0.32632 0.28642 -0.06876
v -0.33313 0.27787 -0.06995
v -0.33818 0.27359 -0.06116
v -0.33641 0.27787 -0.05118
v -0.32959 0.28642 -0.04999
v -0.34659 0.30236 -0.06263
v -0.34755 0.30002 -0.06807
v -0.35127 0.29536 -0.06872
v -0.35402 0.29303 -0.06393
v -0.35305 0.29536 -0.05848
v -0.34934 0.30002 -0.05783
v -0.36800 0.31479 -0.06636
v -0.36832 0.31401 -0.06818
v -0.36956 0.31246 -0.06839
v -0.37048 0.31168 -0.06680
v -0.37016 0.31246 -0.06498
v -0.36892 0.31401 -0.06477
v -0.29349 0.25106 -0.05336
v -0.36924 0.31324 -0.06658
v -0.35627 0.15223 -0.02785
v -0.35830 0.14281 -0.04537
v -0.36497 0.12396 -0.04587
v -0.36962 0.11453 -0.02886
v -0.36759 0.12396 -0.01133
v -0.36092 0.14281 -0.01083
v -0.36267 0.15026 -0.02833
v -0.36429 0.14272 -0.04235
v -0.36963 0.12764 -0.04275
v -0.37334 0.12011 -0.02914
v -0.37172 0.12764 -0.01512
v -0.36638 0.14272 -0.01471
v -0.36939 0.14735 -0.02884
v -0.37051 0.14217 -0.03848
v -0.37418 0.13180 -0.03875
v -0.37673 0.12662 -0.02939
v -0.37562 0.13180 -0.01976
v -0.37195 0.14217 -0.01948
v -0.37612 0.14444 -0.02935
v -0.37673 0.14161 -0.03461
v -0.37873 0.13596 -0.03476
v -0.38012 0.13313 -0.02965
v -0.37952 0.13596 -0.02439
v -0.37751 0.14161 -0.02424
v -0.38251 0.14247 -0.02983
v -0.38272 0.14153 -0.03158
v -0.38338 0.13964 -0.03164
v -0.38385 0.13870 -0.02993
v -0.38365 0.13964 -0.02818
v -0.38298 0.14153 -0.02813
v -0.36295 0.13338 -0.02835
v -0.38318 0.14059 -0.02988
f 1 8 7
f 2 9 8
f 4 9 3
f 4 11 10
f 6 11 5
f 1 12 6
f 7 14 13
f 9 14 8
f 10 15 9
f 10 17 16
f 12 17 11
f 7 18 12
f 14 19 13
f 15 20 14
f 15 22 21
f 17 22 16
f 18 23 17
f 13 24 18
f 19 26 25
f 21 26 20
f 22 27 21
f 22 29 28
f 24 29 23
f 19 30 24
f 31 2 1
f 31 3 2
f 31 4 3
f 31 5 4
f 31 6 5
f 31 1 6
f 25 26 32
f 26 27 32
f 27 28 32
f 28 29 32
f 29 30 32
f 30 25 32
f 33 40 39
f 34 41 40
f 36 41 35
f 37 42 36
f 38 43 37
f 38 39 44
f 39 46 45
f 41 46 40
f 42 47 41
f 42 49 48
f 43 50 49
f 39 50 44
f 45 52 51
f 46 53 52
f 48 53 47
f 48 55 54
f 49 56 55
f 50 51 56
f 52 57 51
f 53 58 52
f 54 59 53
f 55 60 54
f 55 62 61
f 51 62 56
f 63 34 33
f 63 35 34
f 63 36 35
f 63 37 36
f 63 38 37
f 63 33 38
f 57 58 64
f 58 59 64
f 59 60 64
f 60 61 64
f 61 62 64
f 62 57 64
f 66 71 65
f 66 73 72
f 67 74 73
f 69 74 68
f 70 75 69
f 70 71 76
f 72 77 71
f 72 79 78
f 73 80 79
f 74 81 80
f 75 82 81
f 71 82 76
f 78 83 77
f 78 85 84
f 79 86 85
f 81 86 80
f 81 88 87
f 82 83 88
f 84 89 83
f 85 90 84
f 85 92 91
f 86 93 92
f 88 93 87
f 83 94 88
f 95 66 65
f 95 67 66
f 95 68 67
f 95 69 68
f 95 70 69
f 95 65 70
f 89 90 96
f 90 91 96
f 91 92 96
f 92 93 96
f 93 94 96
f 94 89 96
f 97 104 103
f 99 104 98
f 99 106 105
f 101 106 100
f 101 108 107
f 97 108 102
f 103 110 109
f 105 110 104
f 106 111 105
f 106 113 112
f 107 114 113
f 108 109 114
f 110 115 109
f 110 117 116
f 112 117 111
f 113 118 112
f 114 119 113
f 114 115 120
f 116 121 115
f 117 122 116
f 117 124 123
f 119 124 118
f 120 125 119
f 120 121 126
f 127 98 97
f 127 99 98
f 127 100 99
f 127 101 100
f 127 102 101
f 127 97 102
f 121 122 128
f 122 123 128
f 123 124 128
f 124 125 128
f 125 126 128
f 126 121 128
f 130 135 129
f 131 136 130
f 132 137 131
f 132 139 138
f 134 139 133
f 134 135 140
f 136 141 135
f 137 142 136
f 138 143 137
f 138 145 144
f 140 145 139
f 135 146 140
f 141 148 147
f 143 148 142
f 144 149 143
f 145 150 144
f 145 152 151
f 146 147 152
f 147 154 153
f 149 154 148
f 149 156 155
f 150 157 156
f 151 158 157
f 147 158 152
f 159 130 129
f 159 131 130
f 159 132 131
f 159 133 132
f 159 134 133
f 159 129 134
f 153 154 160
f 154 155 160
f 155 156 160
f 156 157 160
f 157 158 160
f 158 153 160
f 161 168 167
f 162 169 168
f 163 170 169
f 164 171 170
f 166 171 165
f 166 167 172
f 168 173 167
f 168 175 174
f 170 175 169
f 171 176 170
f 171 178 177
f 167 178 172
f 173 180 179
f 175 180 174
f 175 182 181
f 177 182 176
f 178 183 177
f 173 184 178
f 179 186 185
f 180 187 186
f 181 188 187
f 182 189 188
f 184 189 183
f 179 190 184
f 191 162 161
f 191 163 162
f 191 164 163
f 191 165 164
f 191 166 165
f 191 161 166
f 185 186 192
f 186 187 192
f 187 188 192
f 188 189 192
f 189 190 192
f 190 185 192
f 193 200 199
f 194 201 200
f 195 202 201
f 197 202 196
f 197 204 203
f 198 199 204
f 200 205 199
f 201 206 200
f 202 207 201
f 203 208 202
f 203 210 209
f 204 205 210
f 206 211 205
f 207 212 206
f 207 214 213
f 208 215 214
f 209 216 215
f 210 211 216
f 211 218 217
f 212 219 218
f 213 220 219
f 215 220 214
f 215 222 221
f 211 222 216
f 223 194 193
f 223 195 194
f 223 196 195
f 223 197 196
f 223 198 197
f 223 193 198
f 217 218 224
f 218 219 224
f 219 220 224
f 220 221 224
f 221 222 224
f 222 217 224
f 226 231 225
f 226 233 232
f 228 233 227
f 229 234 228
f 230 235 229
f 225 236 230
f 231 238 237
f 233 238 232
f 234 239 233
f 235 240 234
f 235 242 241
f 231 242 236
f 237 244 243
f 239 244 238
f 240 245 239
f 240 247 246
f 241 248 247
f 242 243 248
f 243 250 249
f 244 251 250
f 245 252 251
f 246 253 252
f 247 254 253
f 248 249 254
f 255 226 225
f 255 227 226
f 255 228 227
f 255 229 228
f 255 230 229
f 255 225 230
f 249 250 256
f 250 251 256
f 251 252 256
f 252 253 256
f 253 254 256
f 254 249 256
f 258 263 257
f 258 265 264
f 260 265 259
f 261 266 260
f 261 268 267
f 262 263 268
f 263 270 269
f 265 270 264
f 266 271 265
f 266 273 272
f 267 274 273
f 268 269 274
f 269 276 275
f 270 277 276
f 272 277 271
f 272 279 278
f 273 280 279
f 269 280 274
f 275 282 281
f 277 282 276
f 278 283 277
f 278 285 284
f 280 285 279
f 280 281 286
f 287 258 257
f 287 259 258
f 287 260 259
f 287 261 260
f 287 262 261
f 287 257 262
f 281 282 288
f 282 283 288
f 283 284 288
f 284 285 288
f 285 286 288
f 286 281 288
f 290 295 289
f 291 296 290
f 291 298 297
f 292 299 298
f 294 299 293
f 289 300 294
f 295 302 301
f 297 302 296
f 298 303 297
f 298 305 304
f 300 305 299
f 295 306 300
f 301 308 307
f 303 308 302
f 304 309 303
f 305 310 304
f 306 311 305
f 306 307 312
f 308 313 307
f 309 314 308
f 309 316 315
f 311 316 310
f 312 317 311
f 312 313 318
f 319 290 289
f 319 291 290
f 319 292 291
f 319 293 292
f 319 294 293
f 319 289 294
f 313 314 320
f 314 315 320
f 315 316 320
f 316 317 320
f 317 318 320
f 318 313 320
f 322 327 321
f 323 328 322
f 323 330 329
f 325 330 324
f 326 331 325
f 321 332 326
f 327 334 333
f 328 335 334
f 329 336 335
f 330 337 336
f 331 338 337
f 332 333 338
f 333 340 339
f 334 341 340
f 335 342 341
f 336 343 342
f 337 344 343
f 333 344 338
f 340 345 339
f 341 346 340
f 341 348 347
f 342 349 348
f 344 349 343
f 339 350 344
f 351 322 321
f 351 323 322
f 351 324 323
f 351 325 324
f 351 326 325
f 351 321 326
f 345 346 352
f 346 347 352
f 347 348 352
f 348 349 352
f 349 350 352
f 350 345 352
f 354 359 353
f 355 360 354
f 355 362 361
f 356 363 362
f 358 363 357
f 353 364 358
f 359 366 365
f 360 367 366
f 361 368 367
f 363 368 362
f 364 369 363
f 364 365 370
f 365 372 371
f 367 372 366
f 367 374 373
f 369 374 368
f 370 375 369
f 370 371 376
f 371 378 377
f 373 378 372
f 374 379 373
f 374 381 380
f 375 382 381
f 376 377 382
f 383 354 353
f 383 355 354
f 383 356 355
f 383 357 356
f 383 358 357
f 383 353 358
f 377 378 384
f 378 379 384
f 379 380 384
f 380 381 384
f 381 382 384
f 382 377 384
f 385 392 391
f 386 393 392
f 387 394 393
f 388 395 394
f 390 395 389
f 385 396 390
f 391 398 397
f 393 398 392
f 394 399 393
f 395 400 394
f 396 401 395
f 391 402 396
f 397 404 403
f 399 404 398
f 399 406 405
f 400 407 406
f 402 407 401
f 402 403 408
f 404 409 403
f 404 411 410
f 405 412 411
f 406 413 412
f 408 413 407
f 408 409 414
f 415 386 385
f 415 387 386
f 415 388 387
f 415 389 388
f 415 390 389
f 415 385 390
f 409 410 416
f 410 411 416
f 411 412 416
f 412 413 416
f 413 414 416
f 414 409 416
f 417 424 423
f 418 425 424
f 419 426 425
f 421 426 420
f 422 427 421
f 417 428 422
f 423 430 429
f 425 430 424
f 426 431 425
f 427 432 426
f 428 433 427
f 428 429 434
f 430 435 429
f 431 436 430
f 431 438 437
f 432 439 438
f 434 439 433
f 429 440 434
f 435 442 441
f 436 443 442
f 437 444 443
f 438 445 444
f 439 446 445
f 440 441 446
f 447 418 417
f 447 419 418
f 447 420 419
f 447 421 420
f 447 422 421
f 447 417 422
f 441 442 448
f 442 443 448
f 443 444 448
f 444 445 448
f 445 446 448
f 446 441 448
f 449 456 455
f 451 456 450
f 452 457 451
f 453 458 452
f 453 460 459
f 454 455 460
f 456 461 455
f 457 462 456
f 458 463 457
f 459 464 458
f 459 466 465
f 455 466 460
f 462 467 461
f 463 468 462
f 463 470 469
f 464 471 470
f 466 471 465
f 461 472 466
f 467 474 473
f 469 474 468
f 469 476 475
f 471 476 470
f 472 477 471
f 467 478 472
f 479 450 449
f 479 451 450
f 479 452 451
f 479 453 452
f 479 454 453
f 479 449 454
f 473 474 480
f 474 475 480
f 475 476 480
f 476 477 480
f 477 478 480
f 478 473 480
f 481 488 487
f 482 489 488
f 484 489 483
f 484 491 490
f 485 492 491
f 486 487 492
f 487 494 493
f 489 494 488
f 490 495 489
f 491 496 490
f 492 497 491
f 492 493 498
f 494 499 493
f 494 501 500
f 495 502 501
f 496 503 502
f 497 504 503
f 498 499 504
f 500 505 499
f 501 506 500
f 501 508 507
f 502 509 508
f 504 509 503
f 504 505 510
f 511 482 481
f 511 483 482
f 511 484 483
f 511 485 484
f 511 486 485
f 511 481 486
f 505 506 512
f 506 507 512
f 507 508 512
f 508 509 512
f 509 510 512
f 510 505 512
f 513 520 519
f 514 521 520
f 515 522 521
f 516 523 522
f 517 524 523
f 518 519 524
f 520 525 519
f 521 526 520
f 521 528 527
f 523 528 522
f 523 530 529
f 519 530 524
f 525 532 531
f 526 533 532
f 527 534 533
f 528 535 534
f 530 535 529
f 530 531 536
f 531 538 537
f 533 538 532
f 533 540 539
f 535 540 534
f 536 541 535
f 531 542 536
f 543 514 513
f 543 515 514
f 543 516 515
f 543 517 516
f 543 518 517
f 543 513 518
f 537 538 544
f 538 539 544
f 539 540 544
f 540 541 544
f 541 542 544
f 542 537 544
f 546 551 545
f 546 553 552
f 548 553 547
f 549 554 548
f 549 556 555
f 550 551 556
f 551 558 557
f 552 559 558
f 554 559 553
f 554 561 560
f 556 561 555
f 551 562 556
f 557 564 563
f 559 564 558
f 560 565 559
f 560 567 566
f 561 568 567
f 562 563 568
f 564 569 563
f 565 570 564
f 566 571 565
f 567 572 566
f 568 573 567
f 568 569 574
f 575 546 545
f 575 547 546
f 575 548 547
f 575 549 548
f 575 550 549
f 575 545 550
f 569 570 576
f 570 571 576
f 571 572 576
f 572 573 576
f 573 574 576
f 574 569 576
f 1 2 8
f 2 3 9
f 4 10 9
f 4 5 11
f 6 12 11
f 1 7 12
f 7 8 14
f 9 15 14
f 10 16 15
f 10 11 17
f 12 18 17
f 7 13 18
f 14 20 19
f 15 21 20
f 15 16 22
f 17 23 22
f 18 24 23
f 13 19 24
f 19 20 26
f 21 27 26
f 22 28 27
f 22 23 29
f 24 30 29
f 19 25 30
f 33 34 40
f 34 35 41
f 36 42 41
f 37 43 42
f 38 44 43
f 38 33 39
f 39 40 46
f 41 47 46
f 42 48 47
f 42 43 49
f 43 44 50
f 39 45 50
f 45 46 52
f 46 47 53
f 48 54 53
f 48 49 55
f 49 50 56
f 50 45 51
f 52 58 57
f 53 59 58
f 54 60 59
f 55 61 60
f 55 56 62
f 51 57 62
f 66 72 71
f 66 67 73
f 67 68 74
f 69 75 74
f 70 76 75
f 70 65 71
f 72 78 77
f 72 73 79
f 73 74 80
f 74 75 81
f 75 76 82
f 71 77 82
f 78 84 83
f 78 79 85
f 79 80 86
f 81 87 86
f 81 82 88
f 82 77 83
f 84 90 89
f 85 91 90
f 85 86 92
f 86 87 93
f 88 94 93
f 83 89 94
f 97 98 104
f 99 105 104
f 99 100 106
f 101 107 106
f 101 102 108
f 97 103 108
f 103 104 110
f 105 111 110
f 106 112 111
f 106 107 113
f 107 108 114
f 108 103 109
f 110 116 115
f 110 111 117
f 112 118 117
f 113 119 118
f 114 120 119
f 114 109 115
f 116 122 121
f 117 123 122
f 117 118 124
f 119 125 124
f 120 126 125
f 120 115 121
f 130 136 135
f 131 137 136
f 132 138 137
f 132 133 139
f 134 140 139
f 134 129 135
f 136 142 141
f 137 143 142
f 138 144 143
f 138 139 145
f 140 146 145
f 135 141 146
f 141 142 148
f 143 149 148
f 144 150 149
f 145 151 150
f 145 146 152
f 146 141 147
f 147 148 154
f 149 155 154
f 149 150 156
f 150 151 157
f 151 152 158
f 147 153 158
f 161 162 168
f 162 163 169
f 163 164 170
f 164 165 171
f 166 172 171
f 166 161 167
f 168 174 173
f 168 169 175
f 170 176 175
f 171 177 176
f 171 172 178
f 167 173 178
f 173 174 180
f 175 181 180
f 175 176 182
f 177 183 182
f 178 184 183
f 173 179 184
f 179 180 186
f 180 181 187
f 181 182 188
f 182 183 189
f 184 190 189
f 179 185 190
f 193 194 200
f 194 195 201
f 195 196 202
f 197 203 202
f 197 198 204
f 198 193 199
f 200 206 205
f 201 207 206
f 202 208 207
f 203 209 208
f 203 204 210
f 204 199 205
f 206 212 211
f 207 213 212
f 207 208 214
f 208 209 215
f 209 210 216
f 210 205 211
f 211 212 218
f 212 213 219
f 213 214 220
f 215 221 220
f 215 216 222
f 211 217 222
f 226 232 231
f 226 227 233
f 228 234 233
f 229 235 234
f 230 236 235
f 225 231 236
f 231 232 238
f 233 239 238
f 234 240 239
f 235 241 240
f 235 236 242
f 231 237 242
f 237 238 244
f 239 245 244
f 240 246 245
f 240 241 247
f 241 242 248
f 242 237 243
f 243 244 250
f 244 245 251
f 245 246 252
f 246 247 253
f 247 248 254
f 248 243 249
f 258 264 263
f 258 259 265
f 260 266 265
f 261 267 266
f 261 262 268
f 262 257 263
f 263 264 270
f 265 271 270
f 266 272 271
f 266 267 273
f 267 268 274
f 268 263 269
f 269 270 276
f 270 271 277
f 272 278 277
f 272 273 279
f 273 274 280
f 269 275 280
f 275 276 282
f 277 283 282
f 278 284 283
f 278 279 285
f 280 286 285
f 280 275 281
f 290 296 295
f 291 297 296
f 291 292 298
f 292 293 299
f 294 300 299
f 289 295 300
f 295 296 302
f 297 303 302
f 298 304 303
f 298 299 305
f 300 306 305
f 295 301 306
f 301 302 308
f 303 309 308
f 304 310 309
f 305 311 310
f 306 312 311
f 306 301 307
f 308 314 313
f 309 315 314
f 309 310 316
f 311 317 316
f 312 318 317
f 312 307 313
f 322 328 327
f 323 329 328
f 323 324 330
f 325 331 330
f 326 332 331
f 321 327 332
f 327 328 334
f 328 329 335
f 329 330 336
f 330 331 337
f 331 332 338
f 332 327 333
f 333 334 340
f 334 335 341
f 335 336 342
f 336 337 343
f 337 338 344
f 333 339 344
f 340 346 345
f 341 347 346
f 341 342 348
f 342 343 349
f 344 350 349
f 339 345 350
f 354 360 359
f 355 361 360
f 355 356 362
f 356 357 363
f 358 364 363
f 353 359 364
f 359 360 366
f 360 361 367
f 361 362 368
f 363 369 368
f 364 370 369
f 364 359 365
f 365 366 372
f 367 373 372
f 367 368 374
f 369 375 374
f 370 376 375
f 370 365 371
f 371 372 378
f 373 379 378
f 374 380 379
f 374 375 381
f 375 376 382
f 376 371 377
f 385 386 392
f 386 387 393
f 387 388 394
f 388 389 395
f 390 396 395
f 385 391 396
f 391 392 398
f 393 399 398
f 394 400 399
f 395 401 400
f 396 402 401
f 391 397 402
f 397 398 404
f 399 405 404
f 399 400 406
f 400 401 407
f 402 408 407
f 402 397 403
f 404 410 409
f 404 405 411
f 405 406 412
f 406 407 413
f 408 414 413
f 408 403 409
f 417 418 424
f 418 419 425
f 419 420 426
f 421 427 426
f 422 428 427
f 417 423 428
f 423 424 430
f 425 431 430
f 426 432 431
f 427 433 432
f 428 434 433
f 428 423 429
f 430 436 435
f 431 437 436
f 431 432 438
f 432 433 439
f 434 440 439
f 429 435 440
f 435 436 442
f 436 437 443
f 437 438 444
f 438 439 445
f 439 440 446
f 440 435 441
f 449 450 456
f 451 457 456
f 452 458 457
f 453 459 458
f 453 454 460
f 454 449 455
f 456 462 461
f 457 463 462
f 458 464 463
f 459 465 464
f 459 460 466
f 455 461 466
f 462 468 467
f 463 469 468
f 463 464 470
f 464 465 471
f 466 472 471
f 461 467 472
f 467 468 474
f 469 475 474
f 469 470 476
f 471 477 476
f 472 478 477
f 467 473 478
f 481 482 488
f 482 483 489
f 484 490 489
f 484 485 491
f 485 486 492
f 486 481 487
f 487 488 494
f 489 495 494
f 490 496 495
f 491 497 496
f 492 498 497
f 492 487 493
f 494 500 499
f 494 495 501
f 495 496 502
f 496 497 503
f 497 498 504
f 498 493 499
f 500 506 505
f 501 507 506
f 501 502 508
f 502 503 509
f 504 510 509
f 504 499 505
f 513 514 520
f 514 515 521
f 515 516 522
f 516 517 523
f 517 518 524
f 518 513 519
f 520 526 525
f 521 527 526
f 521 522 528
f 523 529 528
f 523 524 530
f 519 525 530
f 525 526 532
f 526 527 533
f 527 528 534
f 528 529 535
f 530 536 535
f 530 525 531
f 531 532 538
f 533 539 538
f 533 534 540
f 535 541 540
f 536 542 541
f 531 537 542
f 546 552 551
f 546 547 553
f 548 554 553
f 549 555 554
f 549 550 556
f 550 545 551
f 551 552 558
f 552 553 559
f 554 560 559
f 554 555 561
f 556 562 561
f 551 557 562
f 557 558 564
f 559 565 564
f 560 566 565
f 560 561 567
f 561 562 568
f 562 557 563
f 564 570 569
f 565 571 570
f 566 572 571
f 567 573 572
f 568 574 573
f 568 563 569
