# eclipse Flare2_Flare.obj: Roblox cue frame, recentred on its bounding box
v -0.41199 -0.00051 0.00011
v -0.40848 -0.00213 -0.00822
v -0.40001 -0.00249 -0.01174
v -0.39153 -0.00140 -0.00838
v -0.38802 0.00051 -0.00011
v -0.39153 0.00213 0.00822
v -0.40001 0.00249 0.01174
v -0.40848 0.00140 0.00838
v -0.41044 -0.03512 0.00747
v -0.40694 -0.03659 -0.00090
v -0.39848 -0.03660 -0.00449
v -0.39003 -0.03514 -0.00121
v -0.38653 -0.03308 0.00703
v -0.39003 -0.03161 0.01539
v -0.39848 -0.03161 0.01899
v -0.40694 -0.03306 0.01570
v -0.40575 -0.06998 0.01487
v -0.40229 -0.07115 0.00645
v -0.39393 -0.07044 0.00270
v -0.38557 -0.06826 0.00584
v -0.38211 -0.06590 0.01401
v -0.38557 -0.06474 0.02244
v -0.39393 -0.06545 0.02618
v -0.40229 -0.06762 0.02305
v -0.39797 -0.10430 0.02217
v -0.39457 -0.10518 0.01368
v -0.38638 -0.10376 0.00979
v -0.37818 -0.10088 0.01277
v -0.37478 -0.09823 0.02088
v -0.37818 -0.09735 0.02937
v -0.38638 -0.09877 0.03326
v -0.39457 -0.10165 0.03028
v -0.38716 -0.13783 0.02930
v -0.38386 -0.13842 0.02075
v -0.37588 -0.13631 0.01671
v -0.36791 -0.13274 0.01954
v -0.36461 -0.12980 0.02759
v -0.36791 -0.12922 0.03614
v -0.37588 -0.13132 0.04018
v -0.38386 -0.13489 0.03735
v -0.37340 -0.17031 0.03620
v -0.37022 -0.17063 0.02759
v -0.36253 -0.16785 0.02341
v -0.35484 -0.16361 0.02610
v -0.35165 -0.16039 0.03409
v -0.35484 -0.16008 0.04270
v -0.36253 -0.16286 0.04688
v -0.37022 -0.16710 0.04419
v -0.35681 -0.20150 0.04283
v -0.35376 -0.20154 0.03416
v -0.34642 -0.19812 0.02984
v -0.33907 -0.19324 0.03240
v -0.33602 -0.18976 0.04033
v -0.33907 -0.18972 0.04900
v -0.34642 -0.19313 0.05332
v -0.35376 -0.19802 0.05076
v -0.33750 -0.23115 0.04913
v -0.33462 -0.23094 0.04041
v -0.32767 -0.22691 0.03596
v -0.32072 -0.22142 0.03839
v -0.31784 -0.21768 0.04627
v -0.32072 -0.21789 0.05499
v -0.32767 -0.22192 0.05944
v -0.33462 -0.22741 0.05701
v -0.31562 -0.25904 0.05506
v -0.31292 -0.25860 0.04629
v -0.30642 -0.25399 0.04172
v -0.29992 -0.24793 0.04402
v -0.29723 -0.24395 0.05185
v -0.29992 -0.24440 0.06062
v -0.30642 -0.24900 0.06520
v -0.31292 -0.25507 0.06289
v -0.29133 -0.28496 0.06057
v -0.28885 -0.28429 0.05175
v -0.28285 -0.27916 0.04707
v -0.27685 -0.27256 0.04926
v -0.27436 -0.26836 0.05704
v -0.27685 -0.26903 0.06586
v -0.28285 -0.27417 0.07054
v -0.28885 -0.28077 0.06835
v -0.26483 -0.30871 0.06562
v -0.26258 -0.30784 0.05676
v -0.25712 -0.30222 0.05197
v -0.25167 -0.29513 0.05406
v -0.24941 -0.29073 0.06180
v -0.25167 -0.29160 0.07066
v -0.25712 -0.29723 0.07545
v -0.26257 -0.30432 0.07336
v -0.23632 -0.33012 0.07017
v -0.23430 -0.32906 0.06127
v -0.22944 -0.32300 0.05639
v -0.22457 -0.31547 0.05838
v -0.22255 -0.31089 0.06608
v -0.22457 -0.31194 0.07498
v -0.22944 -0.31801 0.07986
v -0.23430 -0.32554 0.07787
v -0.20601 -0.34901 0.07418
v -0.20425 -0.34779 0.06525
v -0.20001 -0.34134 0.06029
v -0.19576 -0.33342 0.06220
v -0.19401 -0.32868 0.06986
v -0.19576 -0.32989 0.07879
v -0.20001 -0.33635 0.08376
v -0.20425 -0.34426 0.08185
v -0.17412 -0.36524 0.07763
v -0.17264 -0.36389 0.06867
v -0.16905 -0.35710 0.06363
v -0.16547 -0.34884 0.06547
v -0.16398 -0.34396 0.07311
v -0.16547 -0.34531 0.08207
v -0.16905 -0.35211 0.08711
v -0.17264 -0.36036 0.08527
v -0.14092 -0.37869 0.08049
v -0.13972 -0.37723 0.07151
v -0.13681 -0.37016 0.06641
v -0.13391 -0.36163 0.06819
v -0.13271 -0.35663 0.07580
v -0.13391 -0.35810 0.08479
v -0.13681 -0.36517 0.08989
v -0.13972 -0.37370 0.08811
v -0.10664 -0.38927 0.08274
v -0.10573 -0.38771 0.07374
v -0.10353 -0.38042 0.06859
v -0.10134 -0.37167 0.07033
v -0.10043 -0.36659 0.07792
v -0.10134 -0.36815 0.08693
v -0.10353 -0.37543 0.09207
v -0.10573 -0.38418 0.09033
v -0.07155 -0.39687 0.08436
v -0.07094 -0.39525 0.07534
v -0.06946 -0.38781 0.07016
v -0.06799 -0.37891 0.07186
v -0.06738 -0.37376 0.07944
v -0.06799 -0.37538 0.08846
v -0.06946 -0.38282 0.09364
v -0.07094 -0.39172 0.09194
v -0.03591 -0.40146 0.08533
v -0.03561 -0.39980 0.07631
v -0.03487 -0.39227 0.07111
v -0.03413 -0.38327 0.07279
v -0.03382 -0.37808 0.08036
v -0.03413 -0.37974 0.08939
v -0.03487 -0.38728 0.09459
v -0.03561 -0.39627 0.09291
v -0.00001 -0.40300 0.08566
v -0.00001 -0.40132 0.07663
v -0.00001 -0.39375 0.07143
v -0.00001 -0.38472 0.07310
v -0.00001 -0.37952 0.08067
v -0.00001 -0.38120 0.08970
v -0.00001 -0.38876 0.09490
v -0.00001 -0.39779 0.09323
v 0.03590 -0.40146 0.08533
v 0.03560 -0.39980 0.07631
v 0.03486 -0.39227 0.07111
v 0.03412 -0.38327 0.07279
v 0.03381 -0.37808 0.08036
v 0.03412 -0.37974 0.08939
v 0.03486 -0.38728 0.09459
v 0.03560 -0.39627 0.09291
v 0.07154 -0.39687 0.08436
v 0.07093 -0.39525 0.07534
v 0.06945 -0.38781 0.07016
v 0.06798 -0.37891 0.07186
v 0.06737 -0.37376 0.07944
v 0.06798 -0.37538 0.08846
v 0.06945 -0.38282 0.09364
v 0.07093 -0.39172 0.09194
v 0.10663 -0.38927 0.08274
v 0.10572 -0.38771 0.07374
v 0.10352 -0.38042 0.06859
v 0.10133 -0.37167 0.07033
v 0.10042 -0.36659 0.07792
v 0.10133 -0.36815 0.08693
v 0.10352 -0.37543 0.09207
v 0.10572 -0.38418 0.09033
v 0.14091 -0.37869 0.08049
v 0.13970 -0.37723 0.07151
v 0.13680 -0.37016 0.06641
v 0.13390 -0.36163 0.06819
v 0.13270 -0.35663 0.07580
v 0.13390 -0.35810 0.08479
v 0.13680 -0.36517 0.08989
v 0.13970 -0.37370 0.08811
v 0.17411 -0.36524 0.07763
v 0.17263 -0.36389 0.06867
v 0.16904 -0.35710 0.06363
v 0.16546 -0.34884 0.06547
v 0.16397 -0.34396 0.07311
v 0.16546 -0.34531 0.08207
v 0.16904 -0.35211 0.08711
v 0.17263 -0.36036 0.08527
v 0.20599 -0.34901 0.07418
v 0.20424 -0.34779 0.06525
v 0.19999 -0.34134 0.06029
v 0.19575 -0.33342 0.06220
v 0.19399 -0.32868 0.06986
v 0.19575 -0.32989 0.07879
v 0.19999 -0.33635 0.08376
v 0.20424 -0.34426 0.08185
v 0.23631 -0.33012 0.07017
v 0.23429 -0.32906 0.06127
v 0.22942 -0.32300 0.05639
v 0.22456 -0.31547 0.05838
v 0.22254 -0.31089 0.06608
v 0.22456 -0.31194 0.07498
v 0.22942 -0.31801 0.07986
v 0.23429 -0.32554 0.07787
v 0.26482 -0.30871 0.06562
v 0.26256 -0.30784 0.05676
v 0.25711 -0.30222 0.05197
v 0.25166 -0.29513 0.05406
v 0.24940 -0.29073 0.06180
v 0.25166 -0.29160 0.07066
v 0.25711 -0.29723 0.07545
v 0.26256 -0.30432 0.07336
v 0.29132 -0.28496 0.06057
v 0.28884 -0.28429 0.05175
v 0.28284 -0.27916 0.04707
v 0.27684 -0.27256 0.04926
v 0.27435 -0.26836 0.05704
v 0.27684 -0.26903 0.06586
v 0.28284 -0.27417 0.07054
v 0.28884 -0.28077 0.06835
v 0.31560 -0.25904 0.05506
v 0.31291 -0.25860 0.04629
v 0.30641 -0.25399 0.04172
v 0.29991 -0.24793 0.04402
v 0.29722 -0.24395 0.05185
v 0.29991 -0.24440 0.06062
v 0.30641 -0.24900 0.06520
v 0.31291 -0.25507 0.06289
v 0.33748 -0.23115 0.04913
v 0.33461 -0.23094 0.04041
v 0.32766 -0.22691 0.03596
v 0.32070 -0.22142 0.03839
v 0.31783 -0.21768 0.04627
v 0.32070 -0.21789 0.05499
v 0.32766 -0.22192 0.05944
v 0.33461 -0.22741 0.05701
v 0.35680 -0.20150 0.04283
v 0.35375 -0.20154 0.03416
v 0.34640 -0.19812 0.02984
v 0.33906 -0.19324 0.03240
v 0.33601 -0.18976 0.04033
v 0.33906 -0.18972 0.04900
v 0.34640 -0.19313 0.05332
v 0.35375 -0.19802 0.05076
v 0.37339 -0.17031 0.03620
v 0.37021 -0.17063 0.02759
v 0.36252 -0.16785 0.02341
v 0.35483 -0.16361 0.02610
v 0.35164 -0.16039 0.03409
v 0.35483 -0.16008 0.04270
v 0.36252 -0.16286 0.04688
v 0.37021 -0.16710 0.04419
v 0.38715 -0.13783 0.02930
v 0.38384 -0.13842 0.02075
v 0.37587 -0.13631 0.01671
v 0.36790 -0.13274 0.01954
v 0.36460 -0.12980 0.02759
v 0.36790 -0.12922 0.03614
v 0.37587 -0.13132 0.04018
v 0.38384 -0.13489 0.03735
v 0.39796 -0.10430 0.02217
v 0.39456 -0.10518 0.01368
v 0.38636 -0.10376 0.00979
v 0.37817 -0.10088 0.01277
v 0.37477 -0.09823 0.02088
v 0.37817 -0.09735 0.02937
v 0.38636 -0.09877 0.03326
v 0.39456 -0.10165 0.03028
v 0.40574 -0.06998 0.01487
v 0.40227 -0.07115 0.00645
v 0.39392 -0.07044 0.00270
v 0.38556 -0.06826 0.00584
v 0.38210 -0.06590 0.01401
v 0.38556 -0.06474 0.02244
v 0.39392 -0.06545 0.02618
v 0.40227 -0.06762 0.02305
v 0.41043 -0.03512 0.00747
v 0.40693 -0.03659 -0.00090
v 0.39847 -0.03660 -0.00449
v 0.39002 -0.03514 -0.00121
v 0.38652 -0.03308 0.00703
v 0.39002 -0.03161 0.01539
v 0.39847 -0.03161 0.01899
v 0.40693 -0.03306 0.01570
v 0.41199 -0.00000 0.00000
v 0.40848 -0.00176 -0.00830
v 0.39999 -0.00249 -0.01174
v 0.39151 -0.00176 -0.00830
v 0.38799 0.00000 0.00000
v 0.39151 0.00176 0.00830
v 0.39999 0.00249 0.01174
v 0.40848 0.00176 0.00830
v 0.41043 0.03512 -0.00747
v 0.40693 0.03306 -0.01570
v 0.39847 0.03161 -0.01899
v 0.39002 0.03161 -0.01539
v 0.38652 0.03308 -0.00703
v 0.39002 0.03514 0.00121
v 0.39847 0.03660 0.00449
v 0.40693 0.03659 0.00090
v 0.40574 0.06998 -0.01487
v 0.40227 0.06762 -0.02305
v 0.39392 0.06545 -0.02618
v 0.38556 0.06474 -0.02244
v 0.38210 0.06590 -0.01401
v 0.38556 0.06826 -0.00584
v 0.39392 0.07044 -0.00270
v 0.40227 0.07115 -0.00645
v 0.39796 0.10430 -0.02217
v 0.39456 0.10165 -0.03028
v 0.38636 0.09877 -0.03326
v 0.37817 0.09735 -0.02937
v 0.37477 0.09823 -0.02088
v 0.37817 0.10088 -0.01277
v 0.38636 0.10376 -0.00979
v 0.39456 0.10518 -0.01368
v 0.38715 0.13783 -0.02930
v 0.38384 0.13489 -0.03735
v 0.37587 0.13132 -0.04018
v 0.36790 0.12922 -0.03614
v 0.36460 0.12980 -0.02759
v 0.36790 0.13274 -0.01954
v 0.37587 0.13631 -0.01671
v 0.38384 0.13842 -0.02075
v 0.37339 0.17031 -0.03620
v 0.37021 0.16710 -0.04419
v 0.36252 0.16286 -0.04688
v 0.35483 0.16008 -0.04270
v 0.35164 0.16039 -0.03409
v 0.35483 0.16361 -0.02610
v 0.36252 0.16785 -0.02341
v 0.37021 0.17063 -0.02759
v 0.35680 0.20150 -0.04283
v 0.35375 0.19802 -0.05076
v 0.34640 0.19313 -0.05332
v 0.33906 0.18972 -0.04900
v 0.33601 0.18976 -0.04033
v 0.33906 0.19324 -0.03240
v 0.34640 0.19812 -0.02984
v 0.35375 0.20154 -0.03416
v 0.33748 0.23115 -0.04913
v 0.33461 0.22741 -0.05701
v 0.32766 0.22192 -0.05944
v 0.32070 0.21789 -0.05499
v 0.31783 0.21768 -0.04627
v 0.32070 0.22142 -0.03839
v 0.32766 0.22691 -0.03596
v 0.33461 0.23094 -0.04041
v 0.31560 0.25904 -0.05506
v 0.31291 0.25507 -0.06289
v 0.30641 0.24900 -0.06520
v 0.29991 0.24440 -0.06062
v 0.29722 0.24395 -0.05185
v 0.29991 0.24793 -0.04402
v 0.30641 0.25399 -0.04172
v 0.31291 0.25860 -0.04629
v 0.29132 0.28496 -0.06057
v 0.28884 0.28077 -0.06835
v 0.28284 0.27417 -0.07054
v 0.27684 0.26903 -0.06586
v 0.27435 0.26836 -0.05704
v 0.27684 0.27256 -0.04926
v 0.28284 0.27916 -0.04707
v 0.28884 0.28429 -0.05175
v 0.26482 0.30871 -0.06562
v 0.26256 0.30432 -0.07336
v 0.25711 0.29723 -0.07545
v 0.25166 0.29160 -0.07066
v 0.24940 0.29073 -0.06180
v 0.25166 0.29513 -0.05406
v 0.25711 0.30222 -0.05197
v 0.26256 0.30784 -0.05676
v 0.23631 0.33012 -0.07017
v 0.23429 0.32554 -0.07787
v 0.22942 0.31801 -0.07986
v 0.22456 0.31194 -0.07498
v 0.22254 0.31089 -0.06608
v 0.22456 0.31547 -0.05838
v 0.22942 0.32300 -0.05639
v 0.23429 0.32906 -0.06127
v 0.20599 0.34901 -0.07418
v 0.20424 0.34426 -0.08185
v 0.19999 0.33635 -0.08376
v 0.19575 0.32989 -0.07879
v 0.19399 0.32868 -0.06986
v 0.19575 0.33342 -0.06220
v 0.19999 0.34134 -0.06029
v 0.20424 0.34779 -0.06525
v 0.17411 0.36524 -0.07763
v 0.17263 0.36036 -0.08527
v 0.16904 0.35211 -0.08711
v 0.16546 0.34531 -0.08207
v 0.16397 0.34396 -0.07311
v 0.16546 0.34884 -0.06547
v 0.16904 0.35710 -0.06363
v 0.17263 0.36389 -0.06867
v 0.14091 0.37869 -0.08049
v 0.13970 0.37370 -0.08811
v 0.13680 0.36517 -0.08989
v 0.13390 0.35810 -0.08479
v 0.13270 0.35663 -0.07580
v 0.13390 0.36163 -0.06819
v 0.13680 0.37016 -0.06641
v 0.13970 0.37723 -0.07151
v 0.10663 0.38927 -0.08274
v 0.10572 0.38418 -0.09033
v 0.10352 0.37543 -0.09207
v 0.10133 0.36815 -0.08693
v 0.10042 0.36659 -0.07792
v 0.10133 0.37167 -0.07033
v 0.10352 0.38042 -0.06859
v 0.10572 0.38771 -0.07374
v 0.07154 0.39687 -0.08436
v 0.07093 0.39172 -0.09194
v 0.06945 0.38282 -0.09364
v 0.06798 0.37538 -0.08846
v 0.06737 0.37376 -0.07944
v 0.06798 0.37891 -0.07186
v 0.06945 0.38781 -0.07016
v 0.07093 0.39525 -0.07534
v 0.03590 0.40146 -0.08533
v 0.03560 0.39627 -0.09291
v 0.03486 0.38728 -0.09459
v 0.03412 0.37974 -0.08939
v 0.03381 0.37808 -0.08036
v 0.03412 0.38327 -0.07279
v 0.03486 0.39227 -0.07111
v 0.03560 0.39980 -0.07631
v -0.00001 0.40300 -0.08566
v -0.00001 0.39779 -0.09323
v -0.00001 0.38876 -0.09490
v -0.00001 0.38120 -0.08970
v -0.00001 0.37952 -0.08067
v -0.00001 0.38472 -0.07310
v -0.00001 0.39375 -0.07143
v -0.00001 0.40132 -0.07663
v -0.03591 0.40146 -0.08533
v -0.03561 0.39627 -0.09291
v -0.03487 0.38728 -0.09459
v -0.03413 0.37974 -0.08939
v -0.03382 0.37808 -0.08036
v -0.03413 0.38327 -0.07279
v -0.03487 0.39227 -0.07111
v -0.03561 0.39980 -0.07631
v -0.07155 0.39687 -0.08436
v -0.07094 0.39172 -0.09194
v -0.06946 0.38282 -0.09364
v -0.06799 0.37538 -0.08846
v -0.06738 0.37376 -0.07944
v -0.06799 0.37891 -0.07186
v -0.06946 0.38781 -0.07016
v -0.07094 0.39525 -0.07534
v -0.10664 0.38927 -0.08274
v -0.10573 0.38418 -0.09033
v -0.10353 0.37543 -0.09207
v -0.10134 0.36815 -0.08693
v -0.10043 0.36659 -0.07792
v -0.10134 0.37167 -0.07033
v -0.10353 0.38042 -0.06859
v -0.10573 0.38771 -0.07374
v -0.14092 0.37869 -0.08049
v -0.13972 0.37370 -0.08811
v -0.13681 0.36517 -0.08989
v -0.13391 0.35810 -0.08479
v -0.13271 0.35663 -0.07580
v -0.13391 0.36163 -0.06819
v -0.13681 0.37016 -0.06641
v -0.13972 0.37723 -0.07151
v -0.17412 0.36524 -0.07763
v -0.17264 0.36036 -0.08527
v -0.16905 0.35211 -0.08711
v -0.16547 0.34531 -0.08207
v -0.16398 0.34396 -0.07311
v -0.16547 0.34884 -0.06547
v -0.16905 0.35710 -0.06363
v -0.17264 0.36389 -0.06867
v -0.20601 0.34901 -0.07418
v -0.20425 0.34426 -0.08185
v -0.20001 0.33635 -0.08376
v -0.19576 0.32989 -0.07879
v -0.19401 0.32868 -0.06986
v -0.19576 0.33342 -0.06220
v -0.20001 0.34134 -0.06029
v -0.20425 0.34779 -0.06525
v -0.23632 0.33012 -0.07017
v -0.23430 0.32554 -0.07787
v -0.22944 0.31801 -0.07986
v -0.22457 0.31194 -0.07498
v -0.22255 0.31089 -0.06608
v -0.22457 0.31547 -0.05838
v -0.22944 0.32300 -0.05639
v -0.23430 0.32906 -0.06127
v -0.26483 0.30871 -0.06562
v -0.26257 0.30432 -0.07336
v -0.25712 0.29723 -0.07545
v -0.25167 0.29160 -0.07066
v -0.24941 0.29073 -0.06180
v -0.25167 0.29513 -0.05406
v -0.25712 0.30222 -0.05197
v -0.26258 0.30784 -0.05676
v -0.29133 0.28496 -0.06057
v -0.28885 0.28077 -0.06835
v -0.28285 0.27417 -0.07054
v -0.27685 0.26903 -0.06586
v -0.27436 0.26836 -0.05704
v -0.27685 0.27256 -0.04926
v -0.28285 0.27916 -0.04707
v -0.28885 0.28429 -0.05175
v -0.31562 0.25904 -0.05506
v -0.31292 0.25507 -0.06289
v -0.30642 0.24900 -0.06520
v -0.29992 0.24440 -0.06062
v -0.29723 0.24395 -0.05185
v -0.29992 0.24793 -0.04402
v -0.30642 0.25399 -0.04172
v -0.31292 0.25860 -0.04629
v -0.33750 0.23115 -0.04913
v -0.33462 0.22741 -0.05701
v -0.32767 0.22192 -0.05944
v -0.32072 0.21789 -0.05499
v -0.31784 0.21768 -0.04627
v -0.32072 0.22142 -0.03839
v -0.32767 0.22691 -0.03596
v -0.33462 0.23094 -0.04041
v -0.35681 0.20150 -0.04283
v -0.35376 0.19802 -0.05076
v -0.34642 0.19313 -0.05332
v -0.33907 0.18972 -0.04900
v -0.33602 0.18976 -0.04033
v -0.33907 0.19324 -0.03240
v -0.34642 0.19812 -0.02984
v -0.35376 0.20154 -0.03416
v -0.37340 0.17031 -0.03620
v -0.37022 0.16710 -0.04419
v -0.36253 0.16286 -0.04688
v -0.35484 0.16008 -0.04270
v -0.35165 0.16039 -0.03409
v -0.35484 0.16361 -0.02610
v -0.36253 0.16785 -0.02341
v -0.37022 0.17063 -0.02759
v -0.38716 0.13783 -0.02930
v -0.38386 0.13489 -0.03735
v -0.37588 0.13132 -0.04018
v -0.36791 0.12922 -0.03614
v -0.36461 0.12980 -0.02759
v -0.36791 0.13274 -0.01954
v -0.37588 0.13631 -0.01671
v -0.38386 0.13842 -0.02075
v -0.39797 0.10430 -0.02217
v -0.39457 0.10165 -0.03028
v -0.38638 0.09877 -0.03326
v -0.37818 0.09735 -0.02937
v -0.37478 0.09823 -0.02088
v -0.37818 0.10088 -0.01277
v -0.38638 0.10376 -0.00979
v -0.39457 0.10518 -0.01368
v -0.40575 0.06998 -0.01487
v -0.40229 0.06762 -0.02305
v -0.39393 0.06545 -0.02618
v -0.38557 0.06474 -0.02244
v -0.38211 0.06590 -0.01401
v -0.38557 0.06826 -0.00584
v -0.39393 0.07044 -0.00270
v -0.40229 0.07115 -0.00645
v -0.41044 0.03512 -0.00747
v -0.40694 0.03306 -0.01570
v -0.39848 0.03161 -0.01899
v -0.39003 0.03161 -0.01539
v -0.38653 0.03308 -0.00703
v -0.39003 0.03514 0.00121
v -0.39848 0.03660 0.00449
v -0.40694 0.03659 0.00090
v -0.41199 0.00051 -0.00011
v -0.40848 -0.00140 -0.00838
v -0.40001 -0.00249 -0.01174
v -0.39153 -0.00213 -0.00822
v -0.38802 -0.00051 0.00011
v -0.39153 0.00140 0.00838
v -0.40001 0.00249 0.01174
v -0.40848 0.00213 0.00822
f 1 10 9
f 2 11 10
f 3 12 11
f 4 13 12
f 6 13 5
f 7 14 6
f 8 15 7
f 1 16 8
f 9 18 17
f 10 19 18
f 12 19 11
f 12 21 20
f 13 22 21
f 15 22 14
f 16 23 15
f 16 17 24
f 17 26 25
f 19 26 18
f 19 28 27
f 20 29 28
f 21 30 29
f 22 31 30
f 24 31 23
f 24 25 32
f 25 34 33
f 26 35 34
f 28 35 27
f 29 36 28
f 30 37 29
f 31 38 30
f 32 39 31
f 25 40 32
f 34 41 33
f 34 43 42
f 36 43 35
f 37 44 36
f 37 46 45
f 38 47 46
f 39 48 47
f 33 48 40
f 42 49 41
f 43 50 42
f 43 52 51
f 45 52 44
f 45 54 53
f 46 55 54
f 48 55 47
f 48 49 56
f 49 58 57
f 51 58 50
f 51 60 59
f 53 60 52
f 54 61 53
f 55 62 54
f 55 64 63
f 56 57 64
f 58 65 57
f 59 66 58
f 60 67 59
f 60 69 68
f 61 70 69
f 62 71 70
f 64 71 63
f 64 65 72
f 65 74 73
f 67 74 66
f 67 76 75
f 69 76 68
f 69 78 77
f 70 79 78
f 71 80 79
f 65 80 72
f 73 82 81
f 75 82 74
f 75 84 83
f 77 84 76
f 78 85 77
f 78 87 86
f 79 88 87
f 73 88 80
f 81 90 89
f 82 91 90
f 83 92 91
f 85 92 84
f 85 94 93
f 86 95 94
f 87 96 95
f 88 89 96
f 89 98 97
f 91 98 90
f 92 99 91
f 93 100 92
f 94 101 93
f 95 102 94
f 96 103 95
f 96 97 104
f 98 105 97
f 98 107 106
f 100 107 99
f 101 108 100
f 101 110 109
f 102 111 110
f 104 111 103
f 97 112 104
f 105 114 113
f 106 115 114
f 107 116 115
f 109 116 108
f 110 117 109
f 111 118 110
f 111 120 119
f 112 113 120
f 114 121 113
f 115 122 114
f 116 123 115
f 117 124 116
f 117 126 125
f 119 126 118
f 120 127 119
f 113 128 120
f 122 129 121
f 122 131 130
f 123 132 131
f 125 132 124
f 125 134 133
f 127 134 126
f 128 135 127
f 121 136 128
f 130 137 129
f 131 138 130
f 132 139 131
f 133 140 132
f 134 141 133
f 135 142 134
f 135 144 143
f 129 144 136
f 138 145 137
f 138 147 146
f 140 147 139
f 141 148 140
f 142 149 141
f 142 151 150
f 144 151 143
f 144 145 152
f 146 153 145
f 147 154 146
f 147 156 155
f 148 157 156
f 150 157 149
f 151 158 150
f 151 160 159
f 145 160 152
f 154 161 153
f 154 163 162
f 156 163 155
f 156 165 164
f 157 166 165
f 158 167 166
f 159 168 167
f 153 168 160
f 161 170 169
f 163 170 162
f 164 171 163
f 165 172 164
f 166 173 165
f 166 175 174
f 167 176 175
f 168 169 176
f 169 178 177
f 170 179 178
f 171 180 179
f 172 181 180
f 174 181 173
f 174 183 182
f 175 184 183
f 176 177 184
f 178 185 177
f 179 186 178
f 180 187 179
f 180 189 188
f 181 190 189
f 182 191 190
f 184 191 183
f 177 192 184
f 185 194 193
f 187 194 186
f 187 196 195
f 188 197 196
f 190 197 189
f 191 198 190
f 191 200 199
f 192 193 200
f 194 201 193
f 195 202 194
f 195 204 203
f 196 205 204
f 197 206 205
f 198 207 206
f 199 208 207
f 200 201 208
f 202 209 201
f 203 210 202
f 204 211 203
f 205 212 204
f 206 213 205
f 207 214 206
f 207 216 215
f 201 216 208
f 210 217 209
f 210 219 218
f 212 219 211
f 212 221 220
f 214 221 213
f 215 222 214
f 216 223 215
f 216 217 224
f 218 225 217
f 218 227 226
f 220 227 219
f 220 229 228
f 222 229 221
f 223 230 222
f 224 231 223
f 224 225 232
f 225 234 233
f 226 235 234
f 227 236 235
f 229 236 228
f 230 237 229
f 231 238 230
f 231 240 239
f 225 240 232
f 234 241 233
f 234 243 242
f 236 243 235
f 236 245 244
f 237 246 245
f 239 246 238
f 240 247 239
f 233 248 240
f 241 250 249
f 242 251 250
f 244 251 243
f 244 253 252
f 246 253 245
f 247 254 246
f 247 256 255
f 241 256 248
f 249 258 257
f 251 258 250
f 251 260 259
f 252 261 260
f 254 261 253
f 255 262 254
f 256 263 255
f 256 257 264
f 258 265 257
f 259 266 258
f 259 268 267
f 260 269 268
f 261 270 269
f 262 271 270
f 263 272 271
f 264 265 272
f 265 274 273
f 266 275 274
f 268 275 267
f 269 276 268
f 269 278 277
f 271 278 270
f 271 280 279
f 265 280 272
f 274 281 273
f 275 282 274
f 275 284 283
f 277 284 276
f 278 285 277
f 279 286 278
f 279 288 287
f 273 288 280
f 281 290 289
f 282 291 290
f 283 292 291
f 285 292 284
f 286 293 285
f 286 295 294
f 288 295 287
f 281 296 288
f 290 297 289
f 291 298 290
f 291 300 299
f 292 301 300
f 293 302 301
f 295 302 294
f 296 303 295
f 296 297 304
f 298 305 297
f 298 307 306
f 299 308 307
f 301 308 300
f 302 309 301
f 302 311 310
f 303 312 311
f 297 312 304
f 306 313 305
f 306 315 314
f 308 315 307
f 308 317 316
f 310 317 309
f 311 318 310
f 311 320 319
f 305 320 312
f 313 322 321
f 315 322 314
f 316 323 315
f 316 325 324
f 318 325 317
f 319 326 318
f 320 327 319
f 313 328 320
f 322 329 321
f 323 330 322
f 324 331 323
f 324 333 332
f 326 333 325
f 326 335 334
f 328 335 327
f 328 329 336
f 330 337 329
f 330 339 338
f 331 340 339
f 333 340 332
f 333 342 341
f 335 342 334
f 335 344 343
f 336 337 344
f 338 345 337
f 338 347 346
f 340 347 339
f 340 349 348
f 341 350 349
f 343 350 342
f 344 351 343
f 337 352 344
f 345 354 353
f 347 354 346
f 347 356 355
f 349 356 348
f 349 358 357
f 351 358 350
f 351 360 359
f 352 353 360
f 353 362 361
f 354 363 362
f 355 364 363
f 357 364 356
f 358 365 357
f 359 366 358
f 360 367 359
f 353 368 360
f 361 370 369
f 363 370 362
f 364 371 363
f 364 373 372
f 365 374 373
f 367 374 366
f 367 376 375
f 368 369 376
f 369 378 377
f 371 378 370
f 372 379 371
f 372 381 380
f 373 382 381
f 374 383 382
f 375 384 383
f 376 377 384
f 378 385 377
f 379 386 378
f 379 388 387
f 380 389 388
f 381 390 389
f 382 391 390
f 384 391 383
f 384 385 392
f 385 394 393
f 387 394 386
f 388 395 387
f 389 396 388
f 390 397 389
f 391 398 390
f 392 399 391
f 392 393 400
f 394 401 393
f 395 402 394
f 396 403 395
f 397 404 396
f 397 406 405
f 399 406 398
f 400 407 399
f 393 408 400
f 401 410 409
f 402 411 410
f 404 411 403
f 405 412 404
f 405 414 413
f 406 415 414
f 407 416 415
f 408 409 416
f 410 417 409
f 410 419 418
f 411 420 419
f 413 420 412
f 414 421 413
f 415 422 414
f 416 423 415
f 416 417 424
f 417 426 425
f 419 426 418
f 419 428 427
f 421 428 420
f 421 430 429
f 423 430 422
f 423 432 431
f 424 425 432
f 426 433 425
f 426 435 434
f 427 436 435
f 429 436 428
f 429 438 437
f 430 439 438
f 432 439 431
f 432 433 440
f 433 442 441
f 435 442 434
f 436 443 435
f 436 445 444
f 438 445 437
f 439 446 438
f 439 448 447
f 433 448 440
f 442 449 441
f 443 450 442
f 444 451 443
f 445 452 444
f 445 454 453
f 446 455 454
f 448 455 447
f 448 449 456
f 449 458 457
f 451 458 450
f 452 459 451
f 453 460 452
f 453 462 461
f 454 463 462
f 455 464 463
f 449 464 456
f 458 465 457
f 459 466 458
f 459 468 467
f 460 469 468
f 462 469 461
f 463 470 462
f 464 471 463
f 457 472 464
f 465 474 473
f 466 475 474
f 467 476 475
f 468 477 476
f 470 477 469
f 471 478 470
f 471 480 479
f 472 473 480
f 474 481 473
f 474 483 482
f 475 484 483
f 476 485 484
f 477 486 485
f 478 487 486
f 479 488 487
f 473 488 480
f 482 489 481
f 482 491 490
f 484 491 483
f 485 492 484
f 486 493 485
f 487 494 486
f 487 496 495
f 481 496 488
f 489 498 497
f 491 498 490
f 492 499 491
f 492 501 500
f 494 501 493
f 494 503 502
f 496 503 495
f 489 504 496
f 498 505 497
f 499 506 498
f 500 507 499
f 500 509 508
f 502 509 501
f 503 510 502
f 503 512 511
f 504 505 512
f 505 514 513
f 507 514 506
f 508 515 507
f 508 517 516
f 509 518 517
f 510 519 518
f 511 520 519
f 512 513 520
f 514 521 513
f 514 523 522
f 516 523 515
f 516 525 524
f 518 525 517
f 519 526 518
f 520 527 519
f 513 528 520
f 521 530 529
f 523 530 522
f 523 532 531
f 525 532 524
f 526 533 525
f 526 535 534
f 527 536 535
f 528 529 536
f 529 538 537
f 531 538 530
f 532 539 531
f 532 541 540
f 534 541 533
f 535 542 534
f 536 543 535
f 529 544 536
f 537 546 545
f 538 547 546
f 539 548 547
f 541 548 540
f 542 549 541
f 543 550 542
f 543 552 551
f 537 552 544
f 546 553 545
f 546 555 554
f 547 556 555
f 549 556 548
f 549 558 557
f 550 559 558
f 551 560 559
f 552 553 560
f 553 562 561
f 555 562 554
f 556 563 555
f 557 564 556
f 557 566 565
f 558 567 566
f 560 567 559
f 553 568 560
f 561 570 569
f 562 571 570
f 563 572 571
f 565 572 564
f 565 574 573
f 567 574 566
f 568 575 567
f 568 569 576
f 570 577 569
f 571 578 570
f 572 579 571
f 573 580 572
f 573 582 581
f 574 583 582
f 575 584 583
f 576 577 584
f 1 2 10
f 2 3 11
f 3 4 12
f 4 5 13
f 6 14 13
f 7 15 14
f 8 16 15
f 1 9 16
f 9 10 18
f 10 11 19
f 12 20 19
f 12 13 21
f 13 14 22
f 15 23 22
f 16 24 23
f 16 9 17
f 17 18 26
f 19 27 26
f 19 20 28
f 20 21 29
f 21 22 30
f 22 23 31
f 24 32 31
f 24 17 25
f 25 26 34
f 26 27 35
f 28 36 35
f 29 37 36
f 30 38 37
f 31 39 38
f 32 40 39
f 25 33 40
f 34 42 41
f 34 35 43
f 36 44 43
f 37 45 44
f 37 38 46
f 38 39 47
f 39 40 48
f 33 41 48
f 42 50 49
f 43 51 50
f 43 44 52
f 45 53 52
f 45 46 54
f 46 47 55
f 48 56 55
f 48 41 49
f 49 50 58
f 51 59 58
f 51 52 60
f 53 61 60
f 54 62 61
f 55 63 62
f 55 56 64
f 56 49 57
f 58 66 65
f 59 67 66
f 60 68 67
f 60 61 69
f 61 62 70
f 62 63 71
f 64 72 71
f 64 57 65
f 65 66 74
f 67 75 74
f 67 68 76
f 69 77 76
f 69 70 78
f 70 71 79
f 71 72 80
f 65 73 80
f 73 74 82
f 75 83 82
f 75 76 84
f 77 85 84
f 78 86 85
f 78 79 87
f 79 80 88
f 73 81 88
f 81 82 90
f 82 83 91
f 83 84 92
f 85 93 92
f 85 86 94
f 86 87 95
f 87 88 96
f 88 81 89
f 89 90 98
f 91 99 98
f 92 100 99
f 93 101 100
f 94 102 101
f 95 103 102
f 96 104 103
f 96 89 97
f 98 106 105
f 98 99 107
f 100 108 107
f 101 109 108
f 101 102 110
f 102 103 111
f 104 112 111
f 97 105 112
f 105 106 114
f 106 107 115
f 107 108 116
f 109 117 116
f 110 118 117
f 111 119 118
f 111 112 120
f 112 105 113
f 114 122 121
f 115 123 122
f 116 124 123
f 117 125 124
f 117 118 126
f 119 127 126
f 120 128 127
f 113 121 128
f 122 130 129
f 122 123 131
f 123 124 132
f 125 133 132
f 125 126 134
f 127 135 134
f 128 136 135
f 121 129 136
f 130 138 137
f 131 139 138
f 132 140 139
f 133 141 140
f 134 142 141
f 135 143 142
f 135 136 144
f 129 137 144
f 138 146 145
f 138 139 147
f 140 148 147
f 141 149 148
f 142 150 149
f 142 143 151
f 144 152 151
f 144 137 145
f 146 154 153
f 147 155 154
f 147 148 156
f 148 149 157
f 150 158 157
f 151 159 158
f 151 152 160
f 145 153 160
f 154 162 161
f 154 155 163
f 156 164 163
f 156 157 165
f 157 158 166
f 158 159 167
f 159 160 168
f 153 161 168
f 161 162 170
f 163 171 170
f 164 172 171
f 165 173 172
f 166 174 173
f 166 167 175
f 167 168 176
f 168 161 169
f 169 170 178
f 170 171 179
f 171 172 180
f 172 173 181
f 174 182 181
f 174 175 183
f 175 176 184
f 176 169 177
f 178 186 185
f 179 187 186
f 180 188 187
f 180 181 189
f 181 182 190
f 182 183 191
f 184 192 191
f 177 185 192
f 185 186 194
f 187 195 194
f 187 188 196
f 188 189 197
f 190 198 197
f 191 199 198
f 191 192 200
f 192 185 193
f 194 202 201
f 195 203 202
f 195 196 204
f 196 197 205
f 197 198 206
f 198 199 207
f 199 200 208
f 200 193 201
f 202 210 209
f 203 211 210
f 204 212 211
f 205 213 212
f 206 214 213
f 207 215 214
f 207 208 216
f 201 209 216
f 210 218 217
f 210 211 219
f 212 220 219
f 212 213 221
f 214 222 221
f 215 223 222
f 216 224 223
f 216 209 217
f 218 226 225
f 218 219 227
f 220 228 227
f 220 221 229
f 222 230 229
f 223 231 230
f 224 232 231
f 224 217 225
f 225 226 234
f 226 227 235
f 227 228 236
f 229 237 236
f 230 238 237
f 231 239 238
f 231 232 240
f 225 233 240
f 234 242 241
f 234 235 243
f 236 244 243
f 236 237 245
f 237 238 246
f 239 247 246
f 240 248 247
f 233 241 248
f 241 242 250
f 242 243 251
f 244 252 251
f 244 245 253
f 246 254 253
f 247 255 254
f 247 248 256
f 241 249 256
f 249 250 258
f 251 259 258
f 251 252 260
f 252 253 261
f 254 262 261
f 255 263 262
f 256 264 263
f 256 249 257
f 258 266 265
f 259 267 266
f 259 260 268
f 260 261 269
f 261 262 270
f 262 263 271
f 263 264 272
f 264 257 265
f 265 266 274
f 266 267 275
f 268 276 275
f 269 277 276
f 269 270 278
f 271 279 278
f 271 272 280
f 265 273 280
f 274 282 281
f 275 283 282
f 275 276 284
f 277 285 284
f 278 286 285
f 279 287 286
f 279 280 288
f 273 281 288
f 281 282 290
f 282 283 291
f 283 284 292
f 285 293 292
f 286 294 293
f 286 287 295
f 288 296 295
f 281 289 296
f 290 298 297
f 291 299 298
f 291 292 300
f 292 293 301
f 293 294 302
f 295 303 302
f 296 304 303
f 296 289 297
f 298 306 305
f 298 299 307
f 299 300 308
f 301 309 308
f 302 310 309
f 302 303 311
f 303 304 312
f 297 305 312
f 306 314 313
f 306 307 315
f 308 316 315
f 308 309 317
f 310 318 317
f 311 319 318
f 311 312 320
f 305 313 320
f 313 314 322
f 315 323 322
f 316 324 323
f 316 317 325
f 318 326 325
f 319 327 326
f 320 328 327
f 313 321 328
f 322 330 329
f 323 331 330
f 324 332 331
f 324 325 333
f 326 334 333
f 326 327 335
f 328 336 335
f 328 321 329
f 330 338 337
f 330 331 339
f 331 332 340
f 333 341 340
f 333 334 342
f 335 343 342
f 335 336 344
f 336 329 337
f 338 346 345
f 338 339 347
f 340 348 347
f 340 341 349
f 341 342 350
f 343 351 350
f 344 352 351
f 337 345 352
f 345 346 354
f 347 355 354
f 347 348 356
f 349 357 356
f 349 350 358
f 351 359 358
f 351 352 360
f 352 345 353
f 353 354 362
f 354 355 363
f 355 356 364
f 357 365 364
f 358 366 365
f 359 367 366
f 360 368 367
f 353 361 368
f 361 362 370
f 363 371 370
f 364 372 371
f 364 365 373
f 365 366 374
f 367 375 374
f 367 368 376
f 368 361 369
f 369 370 378
f 371 379 378
f 372 380 379
f 372 373 381
f 373 374 382
f 374 375 383
f 375 376 384
f 376 369 377
f 378 386 385
f 379 387 386
f 379 380 388
f 380 381 389
f 381 382 390
f 382 383 391
f 384 392 391
f 384 377 385
f 385 386 394
f 387 395 394
f 388 396 395
f 389 397 396
f 390 398 397
f 391 399 398
f 392 400 399
f 392 385 393
f 394 402 401
f 395 403 402
f 396 404 403
f 397 405 404
f 397 398 406
f 399 407 406
f 400 408 407
f 393 401 408
f 401 402 410
f 402 403 411
f 404 412 411
f 405 413 412
f 405 406 414
f 406 407 415
f 407 408 416
f 408 401 409
f 410 418 417
f 410 411 419
f 411 412 420
f 413 421 420
f 414 422 421
f 415 423 422
f 416 424 423
f 416 409 417
f 417 418 426
f 419 427 426
f 419 420 428
f 421 429 428
f 421 422 430
f 423 431 430
f 423 424 432
f 424 417 425
f 426 434 433
f 426 427 435
f 427 428 436
f 429 437 436
f 429 430 438
f 430 431 439
f 432 440 439
f 432 425 433
f 433 434 442
f 435 443 442
f 436 444 443
f 436 437 445
f 438 446 445
f 439 447 446
f 439 440 448
f 433 441 448
f 442 450 449
f 443 451 450
f 444 452 451
f 445 453 452
f 445 446 454
f 446 447 455
f 448 456 455
f 448 441 449
f 449 450 458
f 451 459 458
f 452 460 459
f 453 461 460
f 453 454 462
f 454 455 463
f 455 456 464
f 449 457 464
f 458 466 465
f 459 467 466
f 459 460 468
f 460 461 469
f 462 470 469
f 463 471 470
f 464 472 471
f 457 465 472
f 465 466 474
f 466 467 475
f 467 468 476
f 468 469 477
f 470 478 477
f 471 479 478
f 471 472 480
f 472 465 473
f 474 482 481
f 474 475 483
f 475 476 484
f 476 477 485
f 477 478 486
f 478 479 487
f 479 480 488
f 473 481 488
f 482 490 489
f 482 483 491
f 484 492 491
f 485 493 492
f 486 494 493
f 487 495 494
f 487 488 496
f 481 489 496
f 489 490 498
f 491 499 498
f 492 500 499
f 492 493 501
f 494 502 501
f 494 495 503
f 496 504 503
f 489 497 504
f 498 506 505
f 499 507 506
f 500 508 507
f 500 501 509
f 502 510 509
f 503 511 510
f 503 504 512
f 504 497 505
f 505 506 514
f 507 515 514
f 508 516 515
f 508 509 517
f 509 510 518
f 510 511 519
f 511 512 520
f 512 505 513
f 514 522 521
f 514 515 523
f 516 524 523
f 516 517 525
f 518 526 525
f 519 527 526
f 520 528 527
f 513 521 528
f 521 522 530
f 523 531 530
f 523 524 532
f 525 533 532
f 526 534 533
f 526 527 535
f 527 528 536
f 528 521 529
f 529 530 538
f 531 539 538
f 532 540 539
f 532 533 541
f 534 542 541
f 535 543 542
f 536 544 543
f 529 537 544
f 537 538 546
f 538 539 547
f 539 540 548
f 541 549 548
f 542 550 549
f 543 551 550
f 543 544 552
f 537 545 552
f 546 554 553
f 546 547 555
f 547 548 556
f 549 557 556
f 549 550 558
f 550 551 559
f 551 552 560
f 552 545 553
f 553 554 562
f 555 563 562
f 556 564 563
f 557 565 564
f 557 558 566
f 558 559 567
f 560 568 567
f 553 561 568
f 561 562 570
f 562 563 571
f 563 564 572
f 565 573 572
f 565 566 574
f 567 575 574
f 568 576 575
f 568 561 569
f 570 578 577
f 571 579 578
f 572 580 579
f 573 581 580
f 573 574 582
f 574 575 583
f 575 576 584
f 576 569 577
