# eclipse Flare1_Flare.obj: Roblox cue frame, recentred on its bounding box
v -0.39008 0.00879 -0.00185
v -0.39783 0.00439 -0.00056
v -0.39775 -0.00442 0.00130
v -0.38992 -0.00882 0.00189
v -0.38217 -0.00442 0.00061
v -0.38226 0.00439 -0.00126
v -0.38860 0.01586 0.03141
v -0.39632 0.01152 0.03302
v -0.39624 0.00272 0.03488
v -0.38843 -0.00175 0.03513
v -0.38071 0.00258 0.03352
v -0.38079 0.01138 0.03166
v -0.38416 0.02287 0.06441
v -0.39179 0.01868 0.06668
v -0.39171 0.00987 0.06853
v -0.38399 0.00526 0.06812
v -0.37636 0.00945 0.06586
v -0.37644 0.01826 0.06400
v -0.37679 0.02978 0.09691
v -0.38428 0.02572 0.09982
v -0.38420 0.01692 0.10167
v -0.37663 0.01216 0.10061
v -0.36914 0.01622 0.09769
v -0.36922 0.02503 0.09584
v -0.36656 0.03653 0.12865
v -0.37384 0.03261 0.13220
v -0.37377 0.02380 0.13404
v -0.36640 0.01891 0.13234
v -0.35912 0.02283 0.12880
v -0.35920 0.03164 0.12695
v -0.35354 0.04306 0.15940
v -0.36056 0.03927 0.16356
v -0.36049 0.03046 0.16540
v -0.35339 0.02544 0.16308
v -0.34636 0.02923 0.15892
v -0.34643 0.03804 0.15709
v -0.33782 0.04934 0.18893
v -0.34454 0.04567 0.19367
v -0.34447 0.03686 0.19550
v -0.33768 0.03172 0.19259
v -0.33097 0.03538 0.18785
v -0.33104 0.04419 0.18602
v -0.31954 0.05531 0.21700
v -0.32589 0.05176 0.22230
v -0.32582 0.04295 0.22413
v -0.31940 0.03768 0.22065
v -0.31305 0.04123 0.21535
v -0.31312 0.05004 0.21353
v -0.29882 0.06092 0.24341
v -0.30476 0.05749 0.24924
v -0.30470 0.04867 0.25106
v -0.29870 0.04329 0.24705
v -0.29276 0.04673 0.24123
v -0.29282 0.05554 0.23941
v -0.27583 0.06614 0.26795
v -0.28131 0.06281 0.27427
v -0.28126 0.05399 0.27608
v -0.27572 0.04851 0.27158
v -0.27023 0.05184 0.26527
v -0.27029 0.06065 0.26346
v -0.25074 0.07092 0.29044
v -0.25572 0.06768 0.29720
v -0.25567 0.05887 0.29901
v -0.25064 0.05328 0.29406
v -0.24565 0.05652 0.28730
v -0.24570 0.06533 0.28549
v -0.22374 0.07522 0.31070
v -0.22819 0.07207 0.31787
v -0.22814 0.06326 0.31967
v -0.22365 0.05759 0.31432
v -0.21920 0.06074 0.30715
v -0.21925 0.06956 0.30535
v -0.19504 0.07902 0.32859
v -0.19892 0.07595 0.33611
v -0.19888 0.06713 0.33791
v -0.19496 0.06139 0.33220
v -0.19108 0.06446 0.32468
v -0.19112 0.07328 0.32287
v -0.16486 0.08229 0.34396
v -0.16813 0.07928 0.35178
v -0.16810 0.07047 0.35358
v -0.16479 0.06466 0.34756
v -0.16151 0.06766 0.33974
v -0.16155 0.07648 0.33793
v -0.13342 0.08500 0.35670
v -0.13607 0.08205 0.36477
v -0.13604 0.07323 0.36657
v -0.13336 0.06736 0.36029
v -0.13071 0.07032 0.35222
v -0.13074 0.07913 0.35042
v -0.10096 0.08713 0.36671
v -0.10297 0.08422 0.37498
v -0.10295 0.07540 0.37678
v -0.10092 0.06949 0.37030
v -0.09891 0.07240 0.36202
v -0.09893 0.08122 0.36023
v -0.06774 0.08866 0.37391
v -0.06908 0.08578 0.38233
v -0.06907 0.07696 0.38412
v -0.06771 0.07102 0.37750
v -0.06636 0.07390 0.36908
v -0.06638 0.08272 0.36729
v -0.03400 0.08958 0.37825
v -0.03467 0.08672 0.38676
v -0.03467 0.07790 0.38855
v -0.03399 0.07194 0.38184
v -0.03331 0.07480 0.37334
v -0.03332 0.08362 0.37154
v -0.00000 0.08989 0.37971
v -0.00000 0.08703 0.38824
v -0.00000 0.07822 0.39003
v -0.00000 0.07225 0.38329
v -0.00000 0.07511 0.37476
v -0.00000 0.08393 0.37297
v 0.03400 0.08958 0.37825
v 0.03467 0.08672 0.38676
v 0.03467 0.07790 0.38855
v 0.03398 0.07194 0.38184
v 0.03331 0.07480 0.37334
v 0.03331 0.08362 0.37154
v 0.06774 0.08866 0.37391
v 0.06908 0.08578 0.38233
v 0.06907 0.07696 0.38412
v 0.06771 0.07102 0.37750
v 0.06636 0.07390 0.36908
v 0.06638 0.08272 0.36728
v 0.10096 0.08713 0.36670
v 0.10297 0.08422 0.37498
v 0.10295 0.07540 0.37678
v 0.10092 0.06949 0.37030
v 0.09891 0.07240 0.36202
v 0.09893 0.08122 0.36022
v 0.13341 0.08500 0.35669
v 0.13607 0.08205 0.36477
v 0.13604 0.07323 0.36657
v 0.13336 0.06736 0.36030
v 0.13071 0.07031 0.35222
v 0.13073 0.07913 0.35042
v 0.16485 0.08229 0.34396
v 0.16813 0.07929 0.35178
v 0.16810 0.07047 0.35358
v 0.16479 0.06466 0.34756
v 0.16151 0.06766 0.33974
v 0.16154 0.07648 0.33793
v 0.19504 0.07902 0.32859
v 0.19891 0.07595 0.33611
v 0.19888 0.06714 0.33791
v 0.19496 0.06139 0.33220
v 0.19108 0.06446 0.32468
v 0.19112 0.07328 0.32287
v 0.22374 0.07522 0.31070
v 0.22819 0.07208 0.31786
v 0.22814 0.06326 0.31967
v 0.22365 0.05759 0.31432
v 0.21920 0.06074 0.30716
v 0.21925 0.06955 0.30535
v 0.25073 0.07092 0.29044
v 0.25572 0.06768 0.29720
v 0.25567 0.05887 0.29901
v 0.25064 0.05328 0.29407
v 0.24565 0.05652 0.28730
v 0.24570 0.06533 0.28549
v 0.27582 0.06614 0.26795
v 0.28131 0.06281 0.27426
v 0.28125 0.05400 0.27608
v 0.27572 0.04851 0.27159
v 0.27023 0.05183 0.26527
v 0.27029 0.06065 0.26345
v 0.29881 0.06092 0.24341
v 0.30476 0.05749 0.24923
v 0.30470 0.04868 0.25106
v 0.29870 0.04329 0.24706
v 0.29276 0.04672 0.24123
v 0.29281 0.05553 0.23941
v 0.31953 0.05531 0.21700
v 0.32588 0.05177 0.22230
v 0.32582 0.04295 0.22413
v 0.31941 0.03768 0.22066
v 0.31305 0.04122 0.21536
v 0.31311 0.05003 0.21353
v 0.33781 0.04934 0.18893
v 0.34453 0.04568 0.19367
v 0.34447 0.03687 0.19550
v 0.33768 0.03172 0.19260
v 0.33097 0.03538 0.18785
v 0.33103 0.04419 0.18602
v 0.35353 0.04306 0.15940
v 0.36056 0.03928 0.16356
v 0.36049 0.03047 0.16540
v 0.35339 0.02544 0.16308
v 0.34636 0.02923 0.15893
v 0.34643 0.03804 0.15709
v 0.36655 0.03653 0.12865
v 0.37384 0.03261 0.13219
v 0.37377 0.02381 0.13404
v 0.36641 0.01891 0.13234
v 0.35912 0.02282 0.12880
v 0.35919 0.03163 0.12695
v 0.37678 0.02978 0.09690
v 0.38427 0.02573 0.09982
v 0.38420 0.01692 0.10167
v 0.37664 0.01216 0.10061
v 0.36915 0.01621 0.09770
v 0.36922 0.02502 0.09584
v 0.38415 0.02287 0.06441
v 0.39179 0.01869 0.06667
v 0.39171 0.00988 0.06853
v 0.38400 0.00526 0.06812
v 0.37636 0.00944 0.06586
v 0.37643 0.01825 0.06400
v 0.38859 0.01586 0.03141
v 0.39632 0.01153 0.03302
v 0.39624 0.00273 0.03488
v 0.38844 -0.00175 0.03514
v 0.38071 0.00257 0.03353
v 0.38079 0.01137 0.03166
v 0.39007 0.00879 -0.00185
v 0.39783 0.00432 -0.00090
v 0.39776 -0.00448 0.00097
v 0.38993 -0.00882 0.00189
v 0.38217 -0.00435 0.00094
v 0.38224 0.00445 -0.00093
v 0.38859 0.00172 -0.03510
v 0.39632 -0.00288 -0.03482
v 0.39624 -0.01169 -0.03294
v 0.38844 -0.01588 -0.03135
v 0.38071 -0.01128 -0.03164
v 0.38079 -0.00248 -0.03351
v 0.38415 -0.00530 -0.06810
v 0.39179 -0.01004 -0.06847
v 0.39171 -0.01884 -0.06659
v 0.38400 -0.02290 -0.06434
v 0.37636 -0.01815 -0.06397
v 0.37643 -0.00935 -0.06585
v 0.37678 -0.01220 -0.10060
v 0.38427 -0.01708 -0.10162
v 0.38420 -0.02588 -0.09973
v 0.37664 -0.02980 -0.09682
v 0.36915 -0.02492 -0.09581
v 0.36922 -0.01612 -0.09770
v 0.36655 -0.01895 -0.13235
v 0.37384 -0.02396 -0.13399
v 0.37377 -0.03276 -0.13210
v 0.36641 -0.03655 -0.12856
v 0.35912 -0.03153 -0.12691
v 0.35919 -0.02273 -0.12880
v 0.35352 -0.02549 -0.16310
v 0.36056 -0.03063 -0.16536
v 0.36049 -0.03943 -0.16346
v 0.35339 -0.04308 -0.15930
v 0.34636 -0.03794 -0.15704
v 0.34643 -0.02914 -0.15894
v 0.33781 -0.03176 -0.19262
v 0.34453 -0.03703 -0.19547
v 0.34447 -0.04583 -0.19356
v 0.33769 -0.04935 -0.18881
v 0.33097 -0.04409 -0.18596
v 0.33103 -0.03529 -0.18787
v 0.31953 -0.03773 -0.22070
v 0.32588 -0.04312 -0.22410
v 0.32582 -0.05191 -0.22219
v 0.31941 -0.05532 -0.21687
v 0.31305 -0.04993 -0.21347
v 0.31311 -0.04114 -0.21538
v 0.29881 -0.04334 -0.24710
v 0.30475 -0.04884 -0.25103
v 0.30470 -0.05763 -0.24912
v 0.29870 -0.06093 -0.24327
v 0.29276 -0.05543 -0.23934
v 0.29281 -0.04664 -0.24126
v 0.27582 -0.04856 -0.27164
v 0.28131 -0.05416 -0.27606
v 0.28126 -0.06295 -0.27414
v 0.27572 -0.06614 -0.26780
v 0.27023 -0.06054 -0.26338
v 0.27028 -0.05175 -0.26530
v 0.25073 -0.05334 -0.29413
v 0.25572 -0.05904 -0.29900
v 0.25567 -0.06783 -0.29707
v 0.25064 -0.07092 -0.29028
v 0.24565 -0.06523 -0.28542
v 0.24570 -0.05643 -0.28734
v 0.22373 -0.05765 -0.31439
v 0.22818 -0.06343 -0.31966
v 0.22814 -0.07222 -0.31773
v 0.22365 -0.07523 -0.31054
v 0.21920 -0.06945 -0.30527
v 0.21924 -0.06065 -0.30720
v 0.19503 -0.06145 -0.33228
v 0.19891 -0.06730 -0.33790
v 0.19888 -0.07609 -0.33597
v 0.19496 -0.07903 -0.32842
v 0.19108 -0.07317 -0.32279
v 0.19112 -0.06438 -0.32472
v 0.16485 -0.06471 -0.34765
v 0.16813 -0.07064 -0.35358
v 0.16810 -0.07943 -0.35164
v 0.16479 -0.08229 -0.34378
v 0.16151 -0.07637 -0.33785
v 0.16154 -0.06758 -0.33978
v 0.13341 -0.06742 -0.36038
v 0.13606 -0.07340 -0.36657
v 0.13604 -0.08219 -0.36463
v 0.13336 -0.08500 -0.35651
v 0.13071 -0.07902 -0.35033
v 0.13073 -0.07023 -0.35227
v 0.10096 -0.06955 -0.37039
v 0.10296 -0.07557 -0.37678
v 0.10295 -0.08436 -0.37484
v 0.10092 -0.08713 -0.36652
v 0.09891 -0.08111 -0.36014
v 0.09893 -0.07232 -0.36207
v 0.06773 -0.07108 -0.37760
v 0.06908 -0.07713 -0.38412
v 0.06907 -0.08592 -0.38219
v 0.06771 -0.08866 -0.37372
v 0.06636 -0.08261 -0.36719
v 0.06637 -0.07382 -0.36913
v 0.03400 -0.07200 -0.38194
v 0.03467 -0.07807 -0.38855
v 0.03467 -0.08686 -0.38662
v 0.03398 -0.08958 -0.37807
v 0.03331 -0.08351 -0.37145
v 0.03331 -0.07473 -0.37339
v -0.00000 -0.07231 -0.38339
v -0.00000 -0.07838 -0.39003
v -0.00000 -0.08717 -0.38810
v -0.00000 -0.08989 -0.37952
v -0.00000 -0.08382 -0.37287
v -0.00000 -0.07503 -0.37481
v -0.03400 -0.07200 -0.38194
v -0.03467 -0.07807 -0.38855
v -0.03467 -0.08686 -0.38662
v -0.03399 -0.08958 -0.37807
v -0.03331 -0.08351 -0.37145
v -0.03332 -0.07473 -0.37339
v -0.06774 -0.07108 -0.37760
v -0.06908 -0.07713 -0.38412
v -0.06907 -0.08592 -0.38219
v -0.06771 -0.08866 -0.37372
v -0.06636 -0.08261 -0.36720
v -0.06638 -0.07382 -0.36913
v -0.10096 -0.06955 -0.37039
v -0.10297 -0.07557 -0.37678
v -0.10295 -0.08435 -0.37484
v -0.10092 -0.08713 -0.36652
v -0.09891 -0.08111 -0.36014
v -0.09893 -0.07232 -0.36207
v -0.13341 -0.06742 -0.36038
v -0.13607 -0.07340 -0.36657
v -0.13604 -0.08219 -0.36463
v -0.13337 -0.08500 -0.35652
v -0.13071 -0.07903 -0.35033
v -0.13073 -0.07024 -0.35226
v -0.16485 -0.06471 -0.34764
v -0.16813 -0.07063 -0.35358
v -0.16810 -0.07942 -0.35165
v -0.16479 -0.08229 -0.34378
v -0.16151 -0.07637 -0.33785
v -0.16154 -0.06758 -0.33978
v -0.19503 -0.06145 -0.33227
v -0.19891 -0.06730 -0.33790
v -0.19888 -0.07609 -0.33597
v -0.19497 -0.07903 -0.32842
v -0.19109 -0.07317 -0.32279
v -0.19112 -0.06438 -0.32472
v -0.22373 -0.05764 -0.31439
v -0.22819 -0.06342 -0.31966
v -0.22815 -0.07222 -0.31774
v -0.22366 -0.07523 -0.31054
v -0.21921 -0.06945 -0.30527
v -0.21924 -0.06066 -0.30719
v -0.25073 -0.05334 -0.29413
v -0.25572 -0.05903 -0.29899
v -0.25568 -0.06782 -0.29707
v -0.25065 -0.07092 -0.29029
v -0.24566 -0.06523 -0.28542
v -0.24570 -0.05644 -0.28734
v -0.27582 -0.04856 -0.27164
v -0.28131 -0.05416 -0.27606
v -0.28126 -0.06295 -0.27414
v -0.27573 -0.06614 -0.26781
v -0.27024 -0.06055 -0.26339
v -0.27028 -0.05175 -0.26530
v -0.29881 -0.04334 -0.24710
v -0.30475 -0.04884 -0.25103
v -0.30470 -0.05763 -0.24912
v -0.29871 -0.06093 -0.24327
v -0.29276 -0.05544 -0.23934
v -0.29281 -0.04664 -0.24125
v -0.31952 -0.03773 -0.22069
v -0.32588 -0.04311 -0.22410
v -0.32583 -0.05191 -0.22219
v -0.31942 -0.05532 -0.21688
v -0.31306 -0.04994 -0.21347
v -0.31311 -0.04114 -0.21538
v -0.33781 -0.03176 -0.19262
v -0.34453 -0.03703 -0.19547
v -0.34447 -0.04582 -0.19356
v -0.33769 -0.04935 -0.18881
v -0.33097 -0.04409 -0.18596
v -0.33103 -0.03529 -0.18787
v -0.35352 -0.02549 -0.16309
v -0.36055 -0.03062 -0.16536
v -0.36050 -0.03942 -0.16346
v -0.35340 -0.04308 -0.15930
v -0.34637 -0.03794 -0.15704
v -0.34643 -0.02914 -0.15894
v -0.36654 -0.01895 -0.13234
v -0.37384 -0.02396 -0.13399
v -0.37377 -0.03276 -0.13210
v -0.36642 -0.03655 -0.12856
v -0.35913 -0.03154 -0.12691
v -0.35919 -0.02274 -0.12880
v -0.37677 -0.01220 -0.10060
v -0.38427 -0.01708 -0.10162
v -0.38421 -0.02588 -0.09973
v -0.37665 -0.02980 -0.09682
v -0.36915 -0.02493 -0.09581
v -0.36921 -0.01613 -0.09769
v -0.38414 -0.00529 -0.06810
v -0.39178 -0.01003 -0.06847
v -0.39172 -0.01883 -0.06659
v -0.38401 -0.02290 -0.06434
v -0.37637 -0.01816 -0.06397
v -0.37643 -0.00936 -0.06585
v -0.38858 0.00172 -0.03510
v -0.39631 -0.00288 -0.03482
v -0.39625 -0.01168 -0.03294
v -0.38845 -0.01588 -0.03135
v -0.38072 -0.01129 -0.03163
v -0.38078 -0.00249 -0.03351
v -0.39006 0.00879 -0.00185
v -0.39782 0.00426 -0.00124
v -0.39776 -0.00454 0.00064
v -0.38994 -0.00882 0.00190
v -0.38218 -0.00429 0.00128
v -0.38225 0.00451 -0.00059
f 2 7 1
f 2 9 8
f 3 10 9
f 4 11 10
f 6 11 5
f 1 12 6
f 7 14 13
f 9 14 8
f 10 15 9
f 11 16 10
f 11 18 17
f 12 13 18
f 13 20 19
f 15 20 14
f 15 22 21
f 17 22 16
f 17 24 23
f 13 24 18
f 19 26 25
f 20 27 26
f 21 28 27
f 22 29 28
f 23 30 29
f 24 25 30
f 26 31 25
f 26 33 32
f 27 34 33
f 28 35 34
f 29 36 35
f 30 31 36
f 31 38 37
f 32 39 38
f 34 39 33
f 34 41 40
f 35 42 41
f 31 42 36
f 38 43 37
f 39 44 38
f 39 46 45
f 40 47 46
f 42 47 41
f 42 43 48
f 43 50 49
f 45 50 44
f 45 52 51
f 47 52 46
f 47 54 53
f 48 49 54
f 50 55 49
f 50 57 56
f 52 57 51
f 52 59 58
f 53 60 59
f 54 55 60
f 55 62 61
f 57 62 56
f 57 64 63
f 58 65 64
f 59 66 65
f 55 66 60
f 61 68 67
f 62 69 68
f 63 70 69
f 65 70 64
f 65 72 71
f 61 72 66
f 67 74 73
f 69 74 68
f 69 76 75
f 71 76 70
f 72 77 71
f 72 73 78
f 73 80 79
f 75 80 74
f 75 82 81
f 77 82 76
f 77 84 83
f 78 79 84
f 80 85 79
f 80 87 86
f 81 88 87
f 82 89 88
f 84 89 83
f 84 85 90
f 85 92 91
f 86 93 92
f 87 94 93
f 88 95 94
f 89 96 95
f 90 91 96
f 91 98 97
f 92 99 98
f 94 99 93
f 95 100 94
f 96 101 95
f 96 97 102
f 98 103 97
f 99 104 98
f 99 106 105
f 100 107 106
f 101 108 107
f 102 103 108
f 103 110 109
f 104 111 110
f 106 111 105
f 106 113 112
f 107 114 113
f 103 114 108
f 110 115 109
f 110 117 116
f 111 118 117
f 112 119 118
f 113 120 119
f 114 115 120
f 115 122 121
f 116 123 122
f 117 124 123
f 118 125 124
f 119 126 125
f 120 121 126
f 121 128 127
f 123 128 122
f 123 130 129
f 124 131 130
f 125 132 131
f 126 127 132
f 127 134 133
f 128 135 134
f 129 136 135
f 130 137 136
f 131 138 137
f 132 133 138
f 133 140 139
f 134 141 140
f 136 141 135
f 137 142 136
f 137 144 143
f 133 144 138
f 139 146 145
f 140 147 146
f 141 148 147
f 143 148 142
f 143 150 149
f 144 145 150
f 146 151 145
f 147 152 146
f 148 153 147
f 148 155 154
f 149 156 155
f 150 151 156
f 151 158 157
f 153 158 152
f 153 160 159
f 154 161 160
f 156 161 155
f 156 157 162
f 157 164 163
f 158 165 164
f 159 166 165
f 160 167 166
f 161 168 167
f 162 163 168
f 163 170 169
f 164 171 170
f 165 172 171
f 167 172 166
f 168 173 167
f 168 169 174
f 170 175 169
f 171 176 170
f 172 177 171
f 173 178 172
f 173 180 179
f 174 175 180
f 175 182 181
f 176 183 182
f 177 184 183
f 179 184 178
f 179 186 185
f 175 186 180
f 182 187 181
f 182 189 188
f 183 190 189
f 184 191 190
f 186 191 185
f 186 187 192
f 187 194 193
f 189 194 188
f 190 195 189
f 190 197 196
f 192 197 191
f 187 198 192
f 193 200 199
f 195 200 194
f 195 202 201
f 197 202 196
f 197 204 203
f 198 199 204
f 200 205 199
f 200 207 206
f 202 207 201
f 202 209 208
f 204 209 203
f 199 210 204
f 205 212 211
f 206 213 212
f 208 213 207
f 209 214 208
f 209 216 215
f 205 216 210
f 211 218 217
f 212 219 218
f 214 219 213
f 215 220 214
f 215 222 221
f 216 217 222
f 217 224 223
f 218 225 224
f 220 225 219
f 220 227 226
f 222 227 221
f 222 223 228
f 223 230 229
f 224 231 230
f 225 232 231
f 226 233 232
f 227 234 233
f 223 234 228
f 229 236 235
f 230 237 236
f 231 238 237
f 233 238 232
f 233 240 239
f 234 235 240
f 236 241 235
f 237 242 236
f 237 244 243
f 239 244 238
f 240 245 239
f 235 246 240
f 242 247 241
f 243 248 242
f 243 250 249
f 244 251 250
f 245 252 251
f 241 252 246
f 247 254 253
f 249 254 248
f 249 256 255
f 251 256 250
f 251 258 257
f 247 258 252
f 254 259 253
f 254 261 260
f 256 261 255
f 256 263 262
f 257 264 263
f 253 264 258
f 259 266 265
f 261 266 260
f 262 267 261
f 262 269 268
f 263 270 269
f 259 270 264
f 265 272 271
f 267 272 266
f 267 274 273
f 269 274 268
f 270 275 269
f 270 271 276
f 272 277 271
f 272 279 278
f 273 280 279
f 274 281 280
f 275 282 281
f 276 277 282
f 278 283 277
f 279 284 278
f 279 286 285
f 280 287 286
f 282 287 281
f 277 288 282
f 283 290 289
f 284 291 290
f 285 292 291
f 286 293 292
f 288 293 287
f 288 289 294
f 289 296 295
f 290 297 296
f 292 297 291
f 293 298 292
f 294 299 293
f 294 295 300
f 296 301 295
f 297 302 296
f 297 304 303
f 298 305 304
f 299 306 305
f 300 301 306
f 302 307 301
f 303 308 302
f 304 309 303
f 305 310 304
f 306 311 305
f 301 312 306
f 307 314 313
f 308 315 314
f 309 316 315
f 310 317 316
f 311 318 317
f 307 318 312
f 314 319 313
f 314 321 320
f 315 322 321
f 316 323 322
f 317 324 323
f 313 324 318
f 319 326 325
f 320 327 326
f 322 327 321
f 323 328 322
f 323 330 329
f 324 325 330
f 325 332 331
f 326 333 332
f 327 334 333
f 328 335 334
f 329 336 335
f 330 331 336
f 331 338 337
f 333 338 332
f 333 340 339
f 334 341 340
f 335 342 341
f 336 337 342
f 338 343 337
f 338 345 344
f 339 346 345
f 340 347 346
f 341 348 347
f 342 343 348
f 343 350 349
f 345 350 344
f 345 352 351
f 346 353 352
f 347 354 353
f 348 349 354
f 349 356 355
f 350 357 356
f 351 358 357
f 353 358 352
f 353 360 359
f 349 360 354
f 355 362 361
f 356 363 362
f 357 364 363
f 358 365 364
f 360 365 359
f 355 366 360
f 362 367 361
f 362 369 368
f 364 369 363
f 364 371 370
f 365 372 371
f 361 372 366
f 368 373 367
f 368 375 374
f 370 375 369
f 370 377 376
f 371 378 377
f 372 373 378
f 374 379 373
f 374 381 380
f 375 382 381
f 376 383 382
f 377 384 383
f 378 379 384
f 380 385 379
f 380 387 386
f 381 388 387
f 382 389 388
f 384 389 383
f 384 385 390
f 386 391 385
f 386 393 392
f 388 393 387
f 388 395 394
f 390 395 389
f 390 391 396
f 392 397 391
f 393 398 392
f 393 400 399
f 395 400 394
f 396 401 395
f 391 402 396
f 397 404 403
f 399 404 398
f 399 406 405
f 401 406 400
f 401 408 407
f 402 403 408
f 403 410 409
f 405 410 404
f 405 412 411
f 407 412 406
f 407 414 413
f 403 414 408
f 409 416 415
f 411 416 410
f 411 418 417
f 413 418 412
f 413 420 419
f 414 415 420
f 415 422 421
f 416 423 422
f 418 423 417
f 419 424 418
f 420 425 419
f 420 421 426
f 422 427 421
f 423 428 422
f 424 429 423
f 424 431 430
f 425 432 431
f 421 432 426
f 427 434 433
f 429 434 428
f 430 435 429
f 431 436 430
f 431 438 437
f 432 433 438
f 2 8 7
f 2 3 9
f 3 4 10
f 4 5 11
f 6 12 11
f 1 7 12
f 7 8 14
f 9 15 14
f 10 16 15
f 11 17 16
f 11 12 18
f 12 7 13
f 13 14 20
f 15 21 20
f 15 16 22
f 17 23 22
f 17 18 24
f 13 19 24
f 19 20 26
f 20 21 27
f 21 22 28
f 22 23 29
f 23 24 30
f 24 19 25
f 26 32 31
f 26 27 33
f 27 28 34
f 28 29 35
f 29 30 36
f 30 25 31
f 31 32 38
f 32 33 39
f 34 40 39
f 34 35 41
f 35 36 42
f 31 37 42
f 38 44 43
f 39 45 44
f 39 40 46
f 40 41 47
f 42 48 47
f 42 37 43
f 43 44 50
f 45 51 50
f 45 46 52
f 47 53 52
f 47 48 54
f 48 43 49
f 50 56 55
f 50 51 57
f 52 58 57
f 52 53 59
f 53 54 60
f 54 49 55
f 55 56 62
f 57 63 62
f 57 58 64
f 58 59 65
f 59 60 66
f 55 61 66
f 61 62 68
f 62 63 69
f 63 64 70
f 65 71 70
f 65 66 72
f 61 67 72
f 67 68 74
f 69 75 74
f 69 70 76
f 71 77 76
f 72 78 77
f 72 67 73
f 73 74 80
f 75 81 80
f 75 76 82
f 77 83 82
f 77 78 84
f 78 73 79
f 80 86 85
f 80 81 87
f 81 82 88
f 82 83 89
f 84 90 89
f 84 79 85
f 85 86 92
f 86 87 93
f 87 88 94
f 88 89 95
f 89 90 96
f 90 85 91
f 91 92 98
f 92 93 99
f 94 100 99
f 95 101 100
f 96 102 101
f 96 91 97
f 98 104 103
f 99 105 104
f 99 100 106
f 100 101 107
f 101 102 108
f 102 97 103
f 103 104 110
f 104 105 111
f 106 112 111
f 106 107 113
f 107 108 114
f 103 109 114
f 110 116 115
f 110 111 117
f 111 112 118
f 112 113 119
f 113 114 120
f 114 109 115
f 115 116 122
f 116 117 123
f 117 118 124
f 118 119 125
f 119 120 126
f 120 115 121
f 121 122 128
f 123 129 128
f 123 124 130
f 124 125 131
f 125 126 132
f 126 121 127
f 127 128 134
f 128 129 135
f 129 130 136
f 130 131 137
f 131 132 138
f 132 127 133
f 133 134 140
f 134 135 141
f 136 142 141
f 137 143 142
f 137 138 144
f 133 139 144
f 139 140 146
f 140 141 147
f 141 142 148
f 143 149 148
f 143 144 150
f 144 139 145
f 146 152 151
f 147 153 152
f 148 154 153
f 148 149 155
f 149 150 156
f 150 145 151
f 151 152 158
f 153 159 158
f 153 154 160
f 154 155 161
f 156 162 161
f 156 151 157
f 157 158 164
f 158 159 165
f 159 160 166
f 160 161 167
f 161 162 168
f 162 157 163
f 163 164 170
f 164 165 171
f 165 166 172
f 167 173 172
f 168 174 173
f 168 163 169
f 170 176 175
f 171 177 176
f 172 178 177
f 173 179 178
f 173 174 180
f 174 169 175
f 175 176 182
f 176 177 183
f 177 178 184
f 179 185 184
f 179 180 186
f 175 181 186
f 182 188 187
f 182 183 189
f 183 184 190
f 184 185 191
f 186 192 191
f 186 181 187
f 187 188 194
f 189 195 194
f 190 196 195
f 190 191 197
f 192 198 197
f 187 193 198
f 193 194 200
f 195 201 200
f 195 196 202
f 197 203 202
f 197 198 204
f 198 193 199
f 200 206 205
f 200 201 207
f 202 208 207
f 202 203 209
f 204 210 209
f 199 205 210
f 205 206 212
f 206 207 213
f 208 214 213
f 209 215 214
f 209 210 216
f 205 211 216
f 211 212 218
f 212 213 219
f 214 220 219
f 215 221 220
f 215 216 222
f 216 211 217
f 217 218 224
f 218 219 225
f 220 226 225
f 220 221 227
f 222 228 227
f 222 217 223
f 223 224 230
f 224 225 231
f 225 226 232
f 226 227 233
f 227 228 234
f 223 229 234
f 229 230 236
f 230 231 237
f 231 232 238
f 233 239 238
f 233 234 240
f 234 229 235
f 236 242 241
f 237 243 242
f 237 238 244
f 239 245 244
f 240 246 245
f 235 241 246
f 242 248 247
f 243 249 248
f 243 244 250
f 244 245 251
f 245 246 252
f 241 247 252
f 247 248 254
f 249 255 254
f 249 250 256
f 251 257 256
f 251 252 258
f 247 253 258
f 254 260 259
f 254 255 261
f 256 262 261
f 256 257 263
f 257 258 264
f 253 259 264
f 259 260 266
f 261 267 266
f 262 268 267
f 262 263 269
f 263 264 270
f 259 265 270
f 265 266 272
f 267 273 272
f 267 268 274
f 269 275 274
f 270 276 275
f 270 265 271
f 272 278 277
f 272 273 279
f 273 274 280
f 274 275 281
f 275 276 282
f 276 271 277
f 278 284 283
f 279 285 284
f 279 280 286
f 280 281 287
f 282 288 287
f 277 283 288
f 283 284 290
f 284 285 291
f 285 286 292
f 286 287 293
f 288 294 293
f 288 283 289
f 289 290 296
f 290 291 297
f 292 298 297
f 293 299 298
f 294 300 299
f 294 289 295
f 296 302 301
f 297 303 302
f 297 298 304
f 298 299 305
f 299 300 306
f 300 295 301
f 302 308 307
f 303 309 308
f 304 310 309
f 305 311 310
f 306 312 311
f 301 307 312
f 307 308 314
f 308 309 315
f 309 310 316
f 310 311 317
f 311 312 318
f 307 313 318
f 314 320 319
f 314 315 321
f 315 316 322
f 316 317 323
f 317 318 324
f 313 319 324
f 319 320 326
f 320 321 327
f 322 328 327
f 323 329 328
f 323 324 330
f 324 319 325
f 325 326 332
f 326 327 333
f 327 328 334
f 328 329 335
f 329 330 336
f 330 325 331
f 331 332 338
f 333 339 338
f 333 334 340
f 334 335 341
f 335 336 342
f 336 331 337
f 338 344 343
f 338 339 345
f 339 340 346
f 340 341 347
f 341 342 348
f 342 337 343
f 343 344 350
f 345 351 350
f 345 346 352
f 346 347 353
f 347 348 354
f 348 343 349
f 349 350 356
f 350 351 357
f 351 352 358
f 353 359 358
f 353 354 360
f 349 355 360
f 355 356 362
f 356 357 363
f 357 358 364
f 358 359 365
f 360 366 365
f 355 361 366
f 362 368 367
f 362 363 369
f 364 370 369
f 364 365 371
f 365 366 372
f 361 367 372
f 368 374 373
f 368 369 375
f 370 376 375
f 370 371 377
f 371 372 378
f 372 367 373
f 374 380 379
f 374 375 381
f 375 376 382
f 376 377 383
f 377 378 384
f 378 373 379
f 380 386 385
f 380 381 387
f 381 382 388
f 382 383 389
f 384 390 389
f 384 379 385
f 386 392 391
f 386 387 393
f 388 394 393
f 388 389 395
f 390 396 395
f 390 385 391
f 392 398 397
f 393 399 398
f 393 394 400
f 395 401 400
f 396 402 401
f 391 397 402
f 397 398 404
f 399 405 404
f 399 400 406
f 401 407 406
f 401 402 408
f 402 397 403
f 403 404 410
f 405 411 410
f 405 406 412
f 407 413 412
f 407 408 414
f 403 409 414
f 409 410 416
f 411 417 416
f 411 412 418
f 413 419 418
f 413 414 420
f 414 409 415
f 415 416 422
f 416 417 423
f 418 424 423
f 419 425 424
f 420 426 425
f 420 415 421
f 422 428 427
f 423 429 428
f 424 430 429
f 424 425 431
f 425 426 432
f 421 427 432
f 427 428 434
f 429 435 434
f 430 436 435
f 431 437 436
f 431 432 438
f 432 427 433
