# eclipse GreatOrbit2_OrbitGlow.obj: Roblox cue frame, recentred on its bounding box
v -0.01532 -0.61107 3.03275
v -0.01272 -0.61764 3.05515
v -0.00492 -0.63482 3.06913
v 0.00510 -0.65606 3.06935
v 0.01351 -0.67324 3.05573
v 0.01710 -0.67981 3.03347
v 0.01451 -0.67324 3.01107
v 0.00671 -0.65606 2.99709
v -0.00331 -0.63482 2.99687
v -0.01173 -0.61764 3.01049
v 0.03313 -0.58821 3.03386
v 0.03718 -0.59409 3.05624
v 0.04605 -0.61076 3.07019
v 0.05635 -0.63187 3.07040
v 0.06416 -0.64933 3.05678
v 0.06649 -0.65649 3.03454
v 0.06244 -0.65061 3.01216
v 0.05357 -0.63394 2.99821
v 0.04327 -0.61283 2.99800
v 0.03546 -0.59537 3.01162
v 0.08106 -0.56406 3.02782
v 0.08787 -0.56859 3.04984
v 0.09879 -0.58426 3.06350
v 0.10964 -0.60509 3.06360
v 0.11627 -0.62312 3.05010
v 0.11616 -0.63147 3.02814
v 0.10935 -0.62694 3.00613
v 0.09843 -0.61127 2.99246
v 0.08758 -0.59044 2.99236
v 0.08095 -0.57241 3.00587
v 0.12884 -0.53846 3.01459
v 0.13817 -0.54168 3.03590
v 0.15093 -0.55638 3.04903
v 0.16227 -0.57695 3.04896
v 0.16783 -0.59553 3.03571
v 0.16551 -0.60503 3.01436
v 0.15618 -0.60181 2.99305
v 0.14341 -0.58710 2.97992
v 0.13208 -0.56653 2.97999
v 0.12652 -0.54795 2.99323
v 0.17638 -0.51144 2.99416
v 0.18790 -0.51345 3.01452
v 0.20228 -0.52726 3.02694
v 0.21403 -0.54759 3.02666
v 0.21865 -0.56668 3.01379
v 0.21439 -0.57724 2.99325
v 0.20287 -0.57524 2.97288
v 0.18849 -0.56143 2.96047
v 0.17674 -0.54110 2.96075
v 0.17212 -0.52200 2.97362
v 0.22356 -0.48307 2.96655
v 0.23694 -0.48399 2.98583
v 0.25269 -0.49699 2.99742
v 0.26478 -0.51712 2.99691
v 0.26861 -0.53667 2.98449
v 0.26270 -0.54820 2.96489
v 0.24932 -0.54728 2.94562
v 0.23357 -0.53428 2.93402
v 0.22147 -0.51416 2.93453
v 0.21765 -0.49460 2.94696
v 0.27025 -0.45343 2.93181
v 0.28518 -0.45338 2.94994
v 0.30207 -0.46567 2.96067
v 0.31445 -0.48561 2.95993
v 0.31761 -0.50558 2.94797
v 0.31033 -0.51795 2.92939
v 0.29540 -0.51800 2.91126
v 0.27851 -0.50570 2.90052
v 0.26612 -0.48577 2.90127
v 0.26297 -0.46580 2.91322
v 0.31633 -0.42257 2.89001
v 0.33254 -0.42168 2.90698
v 0.35036 -0.43336 2.91686
v 0.36298 -0.45314 2.91587
v 0.36559 -0.47347 2.90440
v 0.35718 -0.48658 2.88683
v 0.34096 -0.48746 2.86986
v 0.32314 -0.47579 2.85998
v 0.31052 -0.45601 2.86096
v 0.30792 -0.43568 2.87243
v 0.36167 -0.39058 2.84123
v 0.37893 -0.38897 2.85708
v 0.39751 -0.40011 2.86612
v 0.41033 -0.41976 2.86492
v 0.41248 -0.44039 2.85392
v 0.40314 -0.45415 2.83733
v 0.38588 -0.45576 2.82148
v 0.36729 -0.44461 2.81244
v 0.35448 -0.42497 2.81364
v 0.35233 -0.40433 2.82464
v 0.40615 -0.35755 2.78560
v 0.42426 -0.35531 2.80037
v 0.44348 -0.36599 2.80863
v 0.45645 -0.38552 2.80721
v 0.45823 -0.40643 2.79666
v 0.44813 -0.42073 2.78101
v 0.43001 -0.42297 2.76624
v 0.41080 -0.41228 2.75798
v 0.39782 -0.39276 2.75940
v 0.39605 -0.37185 2.76995
v 0.44964 -0.32355 2.72324
v 0.46847 -0.32077 2.73701
v 0.48820 -0.33106 2.74452
v 0.50130 -0.35048 2.74291
v 0.50277 -0.37162 2.73278
v 0.49205 -0.38641 2.71802
v 0.47323 -0.38919 2.70425
v 0.45350 -0.37890 2.69673
v 0.44039 -0.35948 2.69835
v 0.43892 -0.33834 2.70847
v 0.49205 -0.28868 2.65430
v 0.51145 -0.28544 2.66713
v 0.53160 -0.29538 2.67395
v 0.54481 -0.31471 2.67215
v 0.54603 -0.33605 2.66243
v 0.53480 -0.35125 2.64849
v 0.51539 -0.35450 2.63566
v 0.49524 -0.34456 2.62884
v 0.48203 -0.32523 2.63064
v 0.48081 -0.30388 2.64036
v 0.53324 -0.25303 2.57896
v 0.55313 -0.24937 2.59091
v 0.57363 -0.25901 2.59709
v 0.58693 -0.27827 2.59512
v 0.58794 -0.29979 2.58577
v 0.57628 -0.31535 2.57260
v 0.55640 -0.31901 2.56065
v 0.53589 -0.30937 2.55447
v 0.52259 -0.29011 2.55644
v 0.52158 -0.26859 2.56579
v 0.57313 -0.21667 2.49740
v 0.59341 -0.21266 2.50853
v 0.61421 -0.22203 2.51410
v 0.62759 -0.24122 2.51198
v 0.62842 -0.26290 2.50297
v 0.61640 -0.27877 2.49053
v 0.59612 -0.28279 2.47939
v 0.57532 -0.27342 2.47382
v 0.56195 -0.25423 2.47594
v 0.56111 -0.23255 2.48495
v 0.61161 -0.17971 2.40981
v 0.63223 -0.17538 2.42018
v 0.65327 -0.18452 2.42519
v 0.66670 -0.20365 2.42293
v 0.66739 -0.22546 2.41424
v 0.65508 -0.24162 2.40246
v 0.63446 -0.24596 2.39209
v 0.61342 -0.23681 2.38708
v 0.59998 -0.21768 2.38935
v 0.59929 -0.19587 2.39803
v 0.64858 -0.14224 2.31641
v 0.66948 -0.13762 2.32607
v 0.69073 -0.14655 2.33056
v 0.70421 -0.16563 2.32816
v 0.70478 -0.18756 2.31978
v 0.69221 -0.20397 2.30862
v 0.67131 -0.20859 2.29896
v 0.65006 -0.19965 2.29447
v 0.63658 -0.18058 2.29687
v 0.63601 -0.15864 2.30525
v 0.68395 -0.10433 2.21742
v 0.70508 -0.09946 2.22643
v 0.72651 -0.10821 2.23042
v 0.74004 -0.12724 2.22789
v 0.74050 -0.14928 2.21980
v 0.72772 -0.16592 2.20923
v 0.70659 -0.17079 2.20023
v 0.68516 -0.16204 2.19623
v 0.67163 -0.14301 2.19876
v 0.67117 -0.12097 2.20686
v 0.71763 -0.06610 2.11310
v 0.73897 -0.06100 2.12148
v 0.76054 -0.06959 2.12501
v 0.77410 -0.08857 2.12236
v 0.77448 -0.11071 2.11453
v 0.76152 -0.12755 2.10452
v 0.74018 -0.13265 2.09614
v 0.71861 -0.12406 2.09260
v 0.70505 -0.10507 2.09525
v 0.70467 -0.08293 2.10308
v 0.74954 -0.02763 2.00368
v 0.77105 -0.02233 2.01147
v 0.79275 -0.03076 2.01458
v 0.80634 -0.04971 2.01181
v 0.80664 -0.07194 2.00423
v 0.79353 -0.08895 1.99474
v 0.77202 -0.09426 1.98695
v 0.75032 -0.08582 1.98384
v 0.73673 -0.06687 1.98661
v 0.73643 -0.04465 1.99419
v 0.77960 0.01098 1.88944
v 0.80126 0.01647 1.89667
v 0.82306 0.00818 1.89937
v 0.83669 -0.01074 1.89650
v 0.83692 -0.03304 1.88916
v 0.82368 -0.05023 1.88015
v 0.80202 -0.05572 1.87292
v 0.78022 -0.04742 1.87023
v 0.76660 -0.02851 1.87310
v 0.76636 -0.00620 1.88044
v 0.80774 0.04965 1.77066
v 0.82952 0.05531 1.77736
v 0.85142 0.04714 1.77966
v 0.86507 0.02826 1.77669
v 0.86525 0.00587 1.76958
v 0.85190 -0.01146 1.76104
v 0.83011 -0.01712 1.75434
v 0.80821 -0.00895 1.75204
v 0.79457 0.00993 1.75501
v 0.79439 0.03231 1.76212
v 0.83389 0.08827 1.64761
v 0.85578 0.09409 1.65380
v 0.87775 0.08603 1.65574
v 0.89142 0.06718 1.65267
v 0.89155 0.04473 1.64577
v 0.87811 0.02726 1.63768
v 0.85621 0.02144 1.63149
v 0.83424 0.02949 1.62956
v 0.82057 0.04834 1.63263
v 0.82044 0.07079 1.63952
v 0.85798 0.12675 1.52060
v 0.87996 0.13271 1.52631
v 0.90201 0.12477 1.52788
v 0.91569 0.10594 1.52472
v 0.91578 0.08343 1.51804
v 0.90225 0.06583 1.51038
v 0.88026 0.05986 1.50467
v 0.85822 0.06781 1.50309
v 0.84454 0.08663 1.50625
v 0.84445 0.10915 1.51294
v 0.87995 0.16500 1.38994
v 0.90202 0.17110 1.39518
v 0.92412 0.16325 1.39641
v 0.93782 0.14445 1.39316
v 0.93787 0.12188 1.38667
v 0.92427 0.10416 1.37943
v 0.90221 0.09806 1.37419
v 0.88011 0.10591 1.37296
v 0.86641 0.12471 1.37620
v 0.86635 0.14728 1.38269
v 0.89976 0.20293 1.25594
v 0.92190 0.20916 1.26073
v 0.94405 0.20140 1.26163
v 0.95775 0.18262 1.25829
v 0.95778 0.16000 1.25200
v 0.94412 0.14216 1.24515
v 0.92199 0.13594 1.24036
v 0.89984 0.14369 1.23946
v 0.88613 0.16247 1.24280
v 0.88610 0.18509 1.24909
v 0.91736 0.24044 1.11892
v 0.93955 0.24679 1.12327
v 0.96174 0.23912 1.12385
v 0.97546 0.22037 1.12043
v 0.97546 0.19769 1.11432
v 0.96175 0.17975 1.10786
v 0.93956 0.17340 1.10351
v 0.91737 0.18107 1.10294
v 0.90365 0.19982 1.10635
v 0.90365 0.22250 1.11246
v 0.93269 0.27744 0.97922
v 0.95493 0.28390 0.98315
v 0.97716 0.27632 0.98341
v 0.99088 0.25759 0.97991
v 0.99086 0.23486 0.97399
v 0.97711 0.21682 0.96790
v 0.95488 0.21036 0.96398
v 0.93265 0.21795 0.96372
v 0.91893 0.23668 0.96721
v 0.91894 0.25940 0.97314
v 0.94573 0.31385 0.83718
v 0.96801 0.32042 0.84068
v 0.99026 0.31291 0.84064
v 1.00399 0.29420 0.83706
v 1.00396 0.27143 0.83131
v 0.99017 0.25330 0.82560
v 0.96790 0.24673 0.82209
v 0.94565 0.25423 0.82214
v 0.93191 0.27295 0.82572
v 0.93195 0.29572 0.83146
v 0.95645 0.34958 0.69313
v 0.97875 0.35625 0.69622
v 1.00103 0.34881 0.69588
v 1.01477 0.33012 0.69222
v 1.01472 0.30730 0.68665
v 1.00090 0.28908 0.68130
v 0.97860 0.28241 0.67820
v 0.95632 0.28985 0.67855
v 0.94258 0.30854 0.68221
v 0.94263 0.33136 0.68777
v 0.96481 0.38453 0.54742
v 0.98714 0.39130 0.55011
v 1.00943 0.38394 0.54947
v 1.02317 0.36526 0.54574
v 1.02311 0.34240 0.54034
v 1.00927 0.32410 0.53534
v 0.98695 0.31733 0.53265
v 0.96465 0.32469 0.53330
v 0.95091 0.34337 0.53703
v 0.95097 0.36623 0.54243
v 0.97079 0.41864 0.40042
v 0.99314 0.42549 0.40271
v 1.01544 0.41820 0.40177
v 1.02919 0.39954 0.39796
v 1.02912 0.37664 0.39273
v 1.01527 0.35825 0.38809
v 0.99292 0.35140 0.38580
v 0.97062 0.35869 0.38674
v 0.95688 0.37735 0.39055
v 0.95694 0.40025 0.39577
v 0.97439 0.45180 0.25246
v 0.99674 0.45875 0.25435
v 1.01906 0.45152 0.25312
v 1.03280 0.43287 0.24924
v 1.03273 0.40994 0.24418
v 1.01887 0.39147 0.23989
v 0.99652 0.38453 0.23800
v 0.97420 0.39175 0.23923
v 0.96046 0.41040 0.24312
v 0.96053 0.43333 0.24817
v 0.97559 0.48395 0.10391
v 0.99795 0.49098 0.10541
v 1.02026 0.48381 0.10388
v 1.03401 0.46518 0.09992
v 1.03393 0.44221 0.09504
v 1.02007 0.42367 0.09110
v 0.99771 0.41664 0.08961
v 0.97540 0.42381 0.09113
v 0.96165 0.44243 0.09509
v 0.96173 0.46540 0.09997
v 0.97439 0.51500 -0.04487
v 0.99675 0.52211 -0.04377
v 1.01906 0.51501 -0.04559
v 1.03280 0.49640 -0.04962
v 1.03273 0.47339 -0.05433
v 1.01887 0.45477 -0.05792
v 0.99651 0.44766 -0.05902
v 0.97420 0.45477 -0.05721
v 0.96046 0.47338 -0.05317
v 0.96053 0.49638 -0.04846
v 0.97080 0.54488 -0.19352
v 0.99314 0.55208 -0.19283
v 1.01544 0.54503 -0.19493
v 1.02919 0.52643 -0.19904
v 1.02912 0.50339 -0.20359
v 1.01527 0.48470 -0.20682
v 0.99292 0.47751 -0.20752
v 0.97062 0.48456 -0.20541
v 0.95687 0.50315 -0.20130
v 0.95694 0.52620 -0.19676
v 0.96481 0.57352 -0.34169
v 0.98714 0.58080 -0.34140
v 1.00943 0.57380 -0.34380
v 1.02317 0.55522 -0.34799
v 1.02311 0.53215 -0.35236
v 1.00927 0.51339 -0.35524
v 0.98694 0.50612 -0.35553
v 0.96465 0.51311 -0.35313
v 0.95091 0.53169 -0.34894
v 0.95097 0.55477 -0.34457
v 0.95645 0.60086 -0.48902
v 0.97876 0.60820 -0.48913
v 1.00103 0.60127 -0.49184
v 1.01477 0.58270 -0.49610
v 1.01471 0.55959 -0.50030
v 1.00090 0.54077 -0.50281
v 0.97859 0.53342 -0.50270
v 0.95632 0.54036 -0.49999
v 0.94258 0.55893 -0.49573
v 0.94264 0.58203 -0.49154
v 0.94574 0.62681 -0.63514
v 0.96802 0.63423 -0.63567
v 0.99027 0.62735 -0.63869
v 1.00400 0.60879 -0.64303
v 1.00396 0.58565 -0.64704
v 0.99016 0.56677 -0.64920
v 0.96789 0.55935 -0.64866
v 0.94564 0.56623 -0.64565
v 0.93191 0.58478 -0.64131
v 0.93195 0.60792 -0.63729
v 0.93271 0.65132 -0.77972
v 0.95494 0.65882 -0.78067
v 0.97717 0.65199 -0.78400
v 0.99089 0.63344 -0.78842
v 0.99086 0.61027 -0.79225
v 0.97710 0.59132 -0.79403
v 0.95486 0.58383 -0.79307
v 0.93264 0.59066 -0.78975
v 0.91892 0.60920 -0.78533
v 0.91895 0.63238 -0.78149
v 0.91737 0.67434 -0.92239
v 0.93956 0.68190 -0.92378
v 0.96175 0.67512 -0.92743
v 0.97546 0.65659 -0.93194
v 0.97546 0.63339 -0.93558
v 0.96174 0.61438 -0.93697
v 0.93954 0.60682 -0.93558
v 0.91736 0.61360 -0.93193
v 0.90365 0.63213 -0.92743
v 0.90365 0.65533 -0.92378
v 0.89978 0.69580 -1.06282
v 0.92192 0.70343 -1.06466
v 0.94406 0.69670 -1.06864
v 0.95776 0.67819 -1.07323
v 0.95778 0.65496 -1.07668
v 0.94411 0.63588 -1.07767
v 0.92197 0.62826 -1.07583
v 0.89983 0.63499 -1.07185
v 0.88613 0.65350 -1.06726
v 0.88611 0.67673 -1.06381
v 0.87997 0.71566 -1.20066
v 0.90204 0.72335 -1.20297
v 0.92414 0.71667 -1.20729
v 0.93782 0.69817 -1.21196
v 0.93787 0.67491 -1.21522
v 0.92426 0.65578 -1.21580
v 0.90219 0.64809 -1.21349
v 0.88009 0.65477 -1.20918
v 0.86641 0.67327 -1.20450
v 0.86636 0.69653 -1.20125
v 0.85800 0.73386 -1.33559
v 0.87999 0.74162 -1.33838
v 0.90203 0.73499 -1.34305
v 0.91570 0.71650 -1.34782
v 0.91577 0.69321 -1.35086
v 0.90223 0.67402 -1.35102
v 0.88024 0.66626 -1.34823
v 0.85820 0.67290 -1.34356
v 0.84453 0.69139 -1.33879
v 0.84445 0.71468 -1.33574
v 0.83391 0.75037 -1.46727
v 0.85581 0.75819 -1.47056
v 0.87778 0.75160 -1.47560
v 0.89143 0.73312 -1.48047
v 0.89155 0.70981 -1.48329
v 0.87808 0.69056 -1.48301
v 0.85618 0.68274 -1.47971
v 0.83421 0.68933 -1.47467
v 0.82056 0.70781 -1.46981
v 0.82045 0.73113 -1.46698
v 0.80776 0.76514 -1.59538
v 0.82955 0.77302 -1.59920
v 0.85145 0.76647 -1.60463
v 0.86508 0.74800 -1.60960
v 0.86524 0.72466 -1.61220
v 0.85187 0.70537 -1.61145
v 0.83008 0.69749 -1.60763
v 0.80819 0.70403 -1.60220
v 0.79456 0.72250 -1.59723
v 0.79440 0.74584 -1.59463
v 0.77963 0.77814 -1.71963
v 0.80129 0.78607 -1.72400
v 0.82309 0.77957 -1.72984
v 0.83670 0.76111 -1.73491
v 0.83691 0.73774 -1.73727
v 0.82365 0.71840 -1.73603
v 0.80199 0.71046 -1.73165
v 0.78019 0.71697 -1.72582
v 0.76658 0.73543 -1.72075
v 0.76637 0.75879 -1.71838
v 0.74957 0.78933 -1.83970
v 0.77109 0.79732 -1.84466
v 0.79278 0.79085 -1.85093
v 0.80636 0.77240 -1.85611
v 0.80663 0.74901 -1.85822
v 0.79350 0.72962 -1.85646
v 0.77198 0.72163 -1.85149
v 0.75029 0.72810 -1.84523
v 0.73672 0.74655 -1.84005
v 0.73644 0.76994 -1.83794
v 0.71766 0.79869 -1.95530
v 0.73901 0.80673 -1.96089
v 0.76058 0.80030 -1.96761
v 0.77412 0.78186 -1.97291
v 0.77447 0.75845 -1.97475
v 0.76149 0.73901 -1.97244
v 0.74014 0.73097 -1.96686
v 0.71857 0.73740 -1.96013
v 0.70503 0.75584 -1.95484
v 0.70468 0.77925 -1.95299
v 0.68399 0.80620 -2.06616
v 0.70513 0.81428 -2.07241
v 0.72655 0.80788 -2.07962
v 0.74005 0.78945 -2.08504
v 0.74048 0.76602 -2.08660
v 0.72768 0.74654 -2.08370
v 0.70653 0.73846 -2.07746
v 0.68512 0.74486 -2.07024
v 0.67162 0.76330 -2.06482
v 0.67118 0.78673 -2.06327
v 0.64862 0.81184 -2.17201
v 0.66953 0.81996 -2.17897
v 0.69077 0.81358 -2.18670
v 0.70423 0.79515 -2.19225
v 0.70476 0.77171 -2.19351
v 0.69217 0.75220 -2.18998
v 0.67126 0.74409 -2.18302
v 0.65002 0.75046 -2.17529
v 0.63656 0.76889 -2.16974
v 0.63603 0.79233 -2.16848
v 0.61166 0.81560 -2.27258
v 0.63229 0.82374 -2.28030
v 0.65332 0.81739 -2.28860
v 0.66672 0.79896 -2.29429
v 0.66738 0.77550 -2.29522
v 0.65503 0.75597 -2.29102
v 0.63440 0.74783 -2.28329
v 0.61336 0.75418 -2.27500
v 0.59996 0.77261 -2.26930
v 0.59931 0.79607 -2.26838
v 0.57319 0.81746 -2.36764
v 0.59349 0.82562 -2.37618
v 0.61427 0.81927 -2.38508
v 0.62761 0.80085 -2.39093
v 0.62840 0.77738 -2.39150
v 0.61635 0.75784 -2.38657
v 0.59605 0.74969 -2.37802
v 0.57526 0.75603 -2.36913
v 0.56193 0.77446 -2.36328
v 0.56113 0.79792 -2.36271
v 0.53331 0.81744 -2.45694
v 0.55321 0.82559 -2.46638
v 0.57370 0.81924 -2.47593
v 0.58696 0.80081 -2.48195
v 0.58792 0.77735 -2.48214
v 0.57621 0.75781 -2.47642
v 0.55631 0.74965 -2.46698
v 0.53582 0.75600 -2.45743
v 0.52256 0.77443 -2.45141
v 0.52160 0.79790 -2.45122
v 0.49212 0.81552 -2.54028
v 0.51154 0.82364 -2.55069
v 0.53168 0.81727 -2.56095
v 0.54485 0.79884 -2.56715
v 0.54601 0.77538 -2.56692
v 0.53472 0.75586 -2.56034
v 0.51530 0.74774 -2.54993
v 0.49516 0.75411 -2.53967
v 0.48199 0.77254 -2.53347
v 0.48083 0.79600 -2.53371
v 0.44973 0.81171 -2.61745
v 0.46857 0.81978 -2.62891
v 0.48829 0.81336 -2.63994
v 0.50134 0.79492 -2.64634
v 0.50275 0.77148 -2.64565
v 0.49197 0.75201 -2.63814
v 0.47312 0.74395 -2.62668
v 0.45340 0.75036 -2.61565
v 0.44035 0.76881 -2.60926
v 0.43895 0.79224 -2.60995
v 0.40624 0.80603 -2.68827
v 0.42439 0.81400 -2.70086
v 0.44359 0.80751 -2.71273
v 0.45650 0.78904 -2.71934
v 0.45820 0.76565 -2.71815
v 0.44804 0.74627 -2.70964
v 0.42989 0.73830 -2.69704
v 0.41069 0.74479 -2.68517
v 0.39778 0.76326 -2.67857
v 0.39607 0.78665 -2.67975
v 0.36177 0.79850 -2.75255
v 0.37907 0.80632 -2.76638
v 0.39764 0.79971 -2.77915
v 0.41039 0.78121 -2.78598
v 0.41245 0.75788 -2.78426
v 0.40304 0.73863 -2.77465
v 0.38574 0.73081 -2.76082
v 0.36717 0.73742 -2.74805
v 0.35442 0.75592 -2.74122
v 0.35236 0.77925 -2.74294
v 0.31644 0.78914 -2.81015
v 0.33270 0.79673 -2.82531
v 0.35051 0.78995 -2.83904
v 0.36306 0.77141 -2.84611
v 0.36556 0.74817 -2.84382
v 0.35706 0.72912 -2.83303
v 0.34080 0.72153 -2.81788
v 0.32300 0.72830 -2.80414
v 0.31045 0.74685 -2.79707
v 0.30794 0.77009 -2.79936
v 0.27038 0.77798 -2.86093
v 0.28537 0.78524 -2.87749
v 0.30224 0.77823 -2.89224
v 0.31454 0.75961 -2.89957
v 0.31758 0.73651 -2.89666
v 0.31020 0.71774 -2.88463
v 0.29521 0.71047 -2.86807
v 0.27834 0.71749 -2.85332
v 0.26603 0.73610 -2.84599
v 0.26299 0.75921 -2.84890
v 0.22369 0.76505 -2.90479
v 0.23715 0.77187 -2.92279
v 0.25289 0.76453 -2.93860
v 0.26490 0.74582 -2.94617
v 0.26859 0.72290 -2.94263
v 0.26256 0.70452 -2.92931
v 0.24911 0.69770 -2.91131
v 0.23337 0.70505 -2.89550
v 0.22136 0.72375 -2.88792
v 0.21766 0.74667 -2.89147
v 0.17652 0.75040 -2.94162
v 0.18813 0.75662 -2.96106
v 0.20251 0.74883 -2.97792
v 0.21417 0.73001 -2.98575
v 0.21866 0.70734 -2.98156
v 0.21425 0.68948 -2.96695
v 0.20264 0.68326 -2.94751
v 0.18826 0.69105 -2.93065
v 0.17660 0.70987 -2.92283
v 0.17212 0.73254 -2.92702
v 0.12897 0.73406 -2.97137
v 0.13841 0.73951 -2.99217
v 0.15120 0.73115 -3.01001
v 0.16245 0.71217 -3.01806
v 0.16787 0.68983 -3.01326
v 0.16538 0.67265 -2.99744
v 0.15594 0.66721 -2.97663
v 0.14315 0.67557 -2.95880
v 0.13190 0.69455 -2.95074
v 0.12648 0.71689 -2.95555
v 0.08115 0.71609 -2.99400
v 0.08811 0.72056 -3.01598
v 0.09908 0.71149 -3.03465
v 0.10987 0.69232 -3.04289
v 0.11636 0.67039 -3.03755
v 0.11607 0.65407 -3.02066
v 0.10911 0.64960 -2.99869
v 0.09814 0.65867 -2.98001
v 0.08735 0.67784 -2.97177
v 0.08086 0.69977 -2.97711
v 0.03316 0.69651 -3.00947
v 0.03739 0.69983 -3.03233
v 0.04636 0.68990 -3.05163
v 0.05665 0.67052 -3.06000
v 0.06432 0.64908 -3.05424
v 0.06645 0.63379 -3.03655
v 0.06223 0.63047 -3.01369
v 0.05326 0.64040 -2.99439
v 0.04297 0.65978 -2.98602
v 0.03530 0.68121 -2.99178
v -0.01491 0.67537 -3.01778
v -0.01357 0.67738 -3.04114
v -0.00669 0.66649 -3.06078
v 0.00307 0.64686 -3.06920
v 0.01201 0.62600 -3.06319
v 0.01670 0.61186 -3.04503
v 0.01535 0.60985 -3.02167
v 0.00848 0.62073 -3.00203
v -0.00129 0.64036 -2.99361
v -0.01022 0.66123 -2.99962
v -0.06301 0.65270 -3.01891
v -0.06453 0.65331 -3.04234
v -0.05976 0.64139 -3.06201
v -0.05050 0.62151 -3.07040
v -0.04029 0.60125 -3.06432
v -0.03304 0.58835 -3.04608
v -0.03152 0.58774 -3.02265
v -0.03629 0.59966 -3.00299
v -0.04555 0.61954 -2.99459
v -0.05576 0.63980 -3.00067
v -0.11104 0.62852 -3.01285
v -0.11530 0.62771 -3.03593
v -0.11250 0.61477 -3.05532
v -0.10371 0.59464 -3.06363
v -0.09230 0.57500 -3.05766
v -0.08261 0.56336 -3.03971
v -0.07835 0.56416 -3.01663
v -0.08115 0.57711 -2.99723
v -0.08994 0.59724 -2.98893
v -0.10135 0.61688 -2.99489
v -0.15892 0.60289 -2.99958
v -0.16565 0.60072 -3.02197
v -0.16465 0.58678 -3.04085
v -0.15629 0.56641 -3.04900
v -0.14376 0.54737 -3.04331
v -0.13186 0.53695 -3.02596
v -0.12513 0.53911 -3.00357
v -0.12613 0.55305 -2.98469
v -0.13449 0.57342 -2.97653
v -0.14701 0.59246 -2.98222
v -0.20654 0.57584 -2.97911
v -0.21544 0.57241 -3.00057
v -0.21600 0.55757 -3.01876
v -0.20800 0.53697 -3.02672
v -0.19451 0.51849 -3.02143
v -0.18067 0.50919 -3.00489
v -0.17177 0.51262 -2.98343
v -0.17121 0.52747 -2.96524
v -0.17920 0.54806 -2.95727
v -0.19270 0.56654 -2.96257
v -0.25378 0.54745 -2.95146
v -0.26452 0.54289 -2.97184
v -0.26640 0.52723 -2.98924
v -0.25872 0.50644 -2.99700
v -0.24439 0.48846 -2.99217
v -0.22891 0.48017 -2.97658
v -0.21817 0.48473 -2.95620
v -0.21628 0.50039 -2.93880
v -0.22397 0.52118 -2.93104
v -0.23829 0.53916 -2.93587
v -0.30053 0.51777 -2.91667
v -0.31280 0.51222 -2.93591
v -0.31579 0.49584 -2.95247
v -0.30836 0.47488 -2.96003
v -0.29334 0.45735 -2.95569
v -0.27648 0.44995 -2.94112
v -0.26421 0.45550 -2.92188
v -0.26122 0.47188 -2.90531
v -0.26865 0.49284 -2.89776
v -0.28367 0.51037 -2.90210
v -0.34666 0.48689 -2.87483
v -0.36019 0.48048 -2.89292
v -0.36408 0.46348 -2.90864
v -0.35686 0.44238 -2.91599
v -0.34127 0.42523 -2.91215
v -0.32328 0.41860 -2.89860
v -0.30975 0.42501 -2.88051
v -0.30585 0.44201 -2.86478
v -0.31307 0.46312 -2.85744
v -0.32866 0.48026 -2.86127
v -0.39203 0.45489 -2.82601
v -0.40660 0.44774 -2.84299
v -0.41124 0.43020 -2.85790
v -0.40419 0.40897 -2.86505
v -0.38813 0.39216 -2.86170
v -0.36921 0.38619 -2.84914
v -0.35464 0.39334 -2.83217
v -0.35000 0.41088 -2.81726
v -0.35705 0.43211 -2.81011
v -0.37311 0.44892 -2.81345
v -0.43654 0.42184 -2.77034
v -0.45196 0.41405 -2.78625
v -0.45721 0.39604 -2.80039
v -0.45030 0.37471 -2.80735
v -0.43385 0.35819 -2.80448
v -0.41417 0.35279 -2.79287
v -0.39875 0.36058 -2.77695
v -0.39350 0.37858 -2.76282
v -0.40041 0.39992 -2.75585
v -0.41685 0.41644 -2.75872
v -0.48007 0.38783 -2.70794
v -0.49618 0.37949 -2.72285
v -0.50193 0.36108 -2.73626
v -0.49513 0.33966 -2.74305
v -0.47837 0.32338 -2.74062
v -0.45806 0.31848 -2.72991
v -0.44195 0.32682 -2.71499
v -0.43619 0.34522 -2.70158
v -0.44299 0.36665 -2.69479
v -0.45975 0.38293 -2.69722
v -0.52249 0.35295 -2.63897
v -0.53917 0.34412 -2.65295
v -0.54534 0.32538 -2.66568
v -0.53863 0.30387 -2.67231
v -0.52161 0.28781 -2.67030
v -0.50078 0.28334 -2.66041
v -0.48410 0.29216 -2.64644
v -0.47793 0.31091 -2.63370
v -0.48464 0.33241 -2.62708
v -0.50166 0.34847 -2.62909
v -0.56370 0.31728 -2.56360
v -0.58087 0.30804 -2.57670
v -0.58737 0.28899 -2.58880
v -0.58074 0.26741 -2.59528
v -0.56351 0.25154 -2.59366
v -0.54225 0.24745 -2.58456
v -0.52509 0.25668 -2.57145
v -0.51858 0.27573 -2.55935
v -0.52521 0.29731 -2.55287
v -0.54245 0.31318 -2.55449
v -0.60361 0.28091 -2.48200
v -0.62116 0.27131 -2.49430
v -0.62796 0.25200 -2.50581
v -0.62139 0.23036 -2.51215
v -0.60397 0.21466 -2.51089
v -0.58236 0.21088 -2.50251
v -0.56480 0.22049 -2.49022
v -0.55801 0.23980 -2.47870
v -0.56458 0.26144 -2.47237
v -0.58199 0.27714 -2.47363
v -0.64210 0.24394 -2.39439
v -0.65998 0.23402 -2.40592
v -0.66701 0.21448 -2.41689
v -0.66050 0.19278 -2.42310
v -0.64293 0.17722 -2.42218
v -0.62102 0.17374 -2.41448
v -0.60314 0.18366 -2.40294
v -0.59610 0.20320 -2.39197
v -0.60262 0.22490 -2.38576
v -0.62018 0.24046 -2.38669
v -0.67907 0.20646 -2.30096
v -0.69724 0.19625 -2.31179
v -0.70447 0.17650 -2.32225
v -0.69800 0.15476 -2.32834
v -0.68031 0.13933 -2.32773
v -0.65815 0.13610 -2.32066
v -0.63998 0.14631 -2.30983
v -0.63275 0.16606 -2.29937
v -0.63922 0.18780 -2.29329
v -0.65691 0.20323 -2.29389
v -0.71445 0.16855 -2.20196
v -0.73285 0.15808 -2.21212
v -0.74025 0.13815 -2.22210
v -0.73383 0.11637 -2.22808
v -0.71602 0.10105 -2.22776
v -0.69365 0.09805 -2.22129
v -0.67525 0.10852 -2.21112
v -0.66785 0.12845 -2.20114
v -0.67427 0.15023 -2.19517
v -0.69208 0.16555 -2.19548
v -0.74814 0.13031 -2.09761
v -0.76674 0.11961 -2.10715
v -0.77429 0.09952 -2.11668
v -0.76789 0.07769 -2.12255
v -0.75000 0.06248 -2.12252
v -0.72744 0.05969 -2.11660
v -0.70884 0.07038 -2.10705
v -0.70130 0.09048 -2.09753
v -0.70769 0.11230 -2.09166
v -0.72558 0.12752 -2.09169
v -0.78006 0.09183 -1.98817
v -0.79883 0.08093 -1.99713
v -0.80649 0.06068 -2.00623
v -0.80013 0.03882 -2.01200
v -0.78216 0.02371 -2.01223
v -0.75945 0.02110 -2.00684
v -0.74068 0.03200 -1.99788
v -0.73301 0.05225 -1.98878
v -0.73938 0.07411 -1.98301
v -0.75735 0.08923 -1.98278
v -0.81012 0.05321 -1.87391
v -0.82904 0.04212 -1.88232
v -0.83681 0.02174 -1.89102
v -0.83047 -0.00015 -1.89669
v -0.81243 -0.01519 -1.89717
v -0.78959 -0.01762 -1.89228
v -0.77067 -0.00653 -1.88387
v -0.76290 0.01385 -1.87517
v -0.76925 0.03574 -1.86950
v -0.78728 0.05078 -1.86902
v -0.83827 0.01454 -1.75511
v -0.85731 0.00328 -1.76298
v -0.86517 -0.01723 -1.77130
v -0.85884 -0.03915 -1.77689
v -0.84075 -0.05410 -1.77760
v -0.81780 -0.05638 -1.77318
v -0.79876 -0.04512 -1.76531
v -0.79089 -0.02461 -1.75699
v -0.79722 -0.00269 -1.75140
v -0.81531 0.01226 -1.75069
v -0.86442 -0.02408 -1.63205
v -0.88357 -0.03551 -1.63941
v -0.89150 -0.05613 -1.64737
v -0.88520 -0.07807 -1.65287
v -0.86705 -0.09296 -1.65381
v -0.84401 -0.09509 -1.64984
v -0.82486 -0.08367 -1.64247
v -0.81692 -0.06305 -1.63452
v -0.82323 -0.04110 -1.62902
v -0.84137 -0.02622 -1.62807
v -0.88851 -0.06257 -1.50502
v -0.90775 -0.07414 -1.51191
v -0.91576 -0.09487 -1.51951
v -0.90946 -0.11684 -1.52493
v -0.89128 -0.13165 -1.52609
v -0.86815 -0.13366 -1.52255
v -0.84891 -0.12209 -1.51566
v -0.84090 -0.10136 -1.50806
v -0.84720 -0.07939 -1.50264
v -0.86538 -0.06457 -1.50148
v -0.91049 -0.10082 -1.37434
v -0.92981 -0.11253 -1.38076
v -0.93787 -0.13336 -1.38803
v -0.93159 -0.15535 -1.39337
v -0.91337 -0.17011 -1.39474
v -0.89017 -0.17199 -1.39162
v -0.87085 -0.16028 -1.38520
v -0.86279 -0.13945 -1.37793
v -0.86907 -0.11746 -1.37259
v -0.88729 -0.10271 -1.37122
v -0.93030 -0.13875 -1.24033
v -0.94969 -0.15059 -1.24630
v -0.95780 -0.17151 -1.25324
v -0.95153 -0.19352 -1.25850
v -0.93327 -0.20822 -1.26007
v -0.91001 -0.20999 -1.25735
v -0.89063 -0.19815 -1.25138
v -0.88252 -0.17723 -1.24444
v -0.88879 -0.15522 -1.23918
v -0.90704 -0.14052 -1.23761
v -0.94790 -0.17627 -1.10329
v -0.96734 -0.18823 -1.10883
v -0.97549 -0.20923 -1.11545
v -0.96923 -0.23127 -1.12064
v -0.95095 -0.24591 -1.12241
v -0.92764 -0.24757 -1.12008
v -0.90820 -0.23561 -1.11455
v -0.90005 -0.21460 -1.10792
v -0.90631 -0.19257 -1.10274
v -0.92459 -0.17793 -1.10097
v -0.96324 -0.21328 -0.96358
v -0.98273 -0.22535 -0.96869
v -0.99090 -0.24644 -0.97501
v -0.98465 -0.26849 -0.98012
v -0.96635 -0.28308 -0.98208
v -0.94300 -0.28464 -0.98014
v -0.92351 -0.27257 -0.97503
v -0.91533 -0.25148 -0.96871
v -0.92159 -0.22943 -0.96359
v -0.93988 -0.21484 -0.96163
v -0.97628 -0.24969 -0.82152
v -0.99580 -0.26187 -0.82621
v -1.00401 -0.28304 -0.83223
v -0.99776 -0.30510 -0.83728
v -0.97945 -0.31965 -0.83942
v -0.95606 -0.32111 -0.83785
v -0.93653 -0.30893 -0.83316
v -0.92833 -0.28776 -0.82714
v -0.93458 -0.26570 -0.82209
v -0.95289 -0.25115 -0.81995
v -0.98699 -0.28542 -0.67746
v -1.00655 -0.29770 -0.68174
v -1.01478 -0.31894 -0.68746
v -1.00853 -0.34103 -0.69244
v -0.99020 -0.35552 -0.69477
v -0.96679 -0.35689 -0.69356
v -0.94723 -0.34461 -0.68928
v -0.93901 -0.32337 -0.68356
v -0.94525 -0.30129 -0.67858
v -0.96358 -0.28679 -0.67625
v -0.99535 -0.32038 -0.53174
v -1.01493 -0.33276 -0.53562
v -1.02317 -0.35407 -0.54105
v -1.01693 -0.37617 -0.54596
v -0.99859 -0.39062 -0.54847
v -0.97516 -0.39190 -0.54762
v -0.95558 -0.37953 -0.54374
v -0.94734 -0.35822 -0.53831
v -0.95358 -0.33611 -0.53340
v -0.97192 -0.32166 -0.53089
v -1.00134 -0.35448 -0.38472
v -1.02093 -0.36695 -0.38820
v -1.02919 -0.38833 -0.39334
v -1.02295 -0.41045 -0.39818
v -1.00460 -0.42486 -0.40087
v -0.98115 -0.42606 -0.40038
v -0.96156 -0.41359 -0.39690
v -0.95330 -0.39221 -0.39176
v -0.95954 -0.37009 -0.38692
v -0.97789 -0.35568 -0.38423
v -1.00494 -0.38765 -0.23675
v -1.02454 -0.40021 -0.23983
v -1.03280 -0.42165 -0.24469
v -1.02656 -0.44378 -0.24946
v -1.00821 -0.45815 -0.25233
v -0.98475 -0.45927 -0.25220
v -0.96515 -0.44671 -0.24911
v -0.95689 -0.42527 -0.24426
v -0.96313 -0.40314 -0.23948
v -0.98148 -0.38877 -0.23661
v -1.00614 -0.41980 -0.08819
v -1.02574 -0.43245 -0.09087
v -1.03401 -0.45395 -0.09544
v -1.02777 -0.47610 -0.10015
v -1.00942 -0.49043 -0.10320
v -0.98595 -0.49147 -0.10342
v -0.96635 -0.47882 -0.10073
v -0.95809 -0.45732 -0.09616
v -0.96432 -0.43517 -0.09145
v -0.98268 -0.42084 -0.08841
v -1.00494 -0.45085 0.06061
v -1.02454 -0.46358 0.05832
v -1.03280 -0.48515 0.05403
v -1.02656 -0.50731 0.04939
v -1.00821 -0.52160 0.04617
v -0.98475 -0.52257 0.04559
v -0.96515 -0.50984 0.04788
v -0.95689 -0.48828 0.05217
v -0.96313 -0.46612 0.05681
v -0.98148 -0.45182 0.06003
v -1.00134 -0.48074 0.20928
v -1.02094 -0.49355 0.20738
v -1.02919 -0.51517 0.20339
v -1.02295 -0.53735 0.19881
v -1.00460 -0.55160 0.19541
v -0.98115 -0.55250 0.19448
v -0.96156 -0.53969 0.19637
v -0.95330 -0.51807 0.20037
v -0.95954 -0.49589 0.20494
v -0.97789 -0.48164 0.20834
v -0.99536 -0.50938 0.35746
v -1.01493 -0.52227 0.35597
v -1.02318 -0.54395 0.35226
v -1.01693 -0.56614 0.34776
v -0.99859 -0.58036 0.34417
v -0.97515 -0.58118 0.34288
v -0.95558 -0.56830 0.34437
v -0.94734 -0.54662 0.34808
v -0.95358 -0.52443 0.35258
v -0.97192 -0.51021 0.35617
v -0.98700 -0.53672 0.50480
v -1.00655 -0.54968 0.50372
v -1.01478 -0.57141 0.50030
v -1.00853 -0.59361 0.49587
v -0.99020 -0.60780 0.49210
v -0.96678 -0.60856 0.49044
v -0.94723 -0.59559 0.49152
v -0.93901 -0.57386 0.49494
v -0.94525 -0.55166 0.49937
v -0.96359 -0.53747 0.50314
v -0.97629 -0.56267 0.65094
v -0.99581 -0.57571 0.65027
v -1.00401 -0.59750 0.64716
v -0.99776 -0.61971 0.64279
v -0.97944 -0.63386 0.63884
v -0.95605 -0.63455 0.63681
v -0.93653 -0.62152 0.63748
v -0.92833 -0.59973 0.64059
v -0.93458 -0.57752 0.64495
v -0.95290 -0.56336 0.64891
v -0.96325 -0.58719 0.79553
v -0.98273 -0.60030 0.79528
v -0.99090 -0.62214 0.79248
v -0.98464 -0.64436 0.78818
v -0.96634 -0.65849 0.78404
v -0.94299 -0.65911 0.78163
v -0.92350 -0.64600 0.78187
v -0.91533 -0.62416 0.78468
v -0.92159 -0.60194 0.78897
v -0.93990 -0.58782 0.79312
v -0.94791 -0.61021 0.93822
v -0.96735 -0.62339 0.93841
v -0.97549 -0.64528 0.93591
v -0.96922 -0.66752 0.93169
v -0.95094 -0.68160 0.92735
v -0.92763 -0.68217 0.92455
v -0.90819 -0.66898 0.92436
v -0.90005 -0.64710 0.92686
v -0.90632 -0.62486 0.93108
v -0.92460 -0.61077 0.93542
v -0.93032 -0.63167 1.07866
v -0.94970 -0.64492 1.07930
v -0.95780 -0.66686 1.07713
v -0.95152 -0.68911 1.07298
v -0.93326 -0.70317 1.06844
v -0.91000 -0.70367 1.06524
v -0.89062 -0.69042 1.06460
v -0.88252 -0.66848 1.06677
v -0.88880 -0.64623 1.07092
v -0.90706 -0.63217 1.07546
v -0.91051 -0.65153 1.21652
v -0.92982 -0.66485 1.21762
v -0.93787 -0.68684 1.21578
v -0.93158 -0.70910 1.21172
v -0.91335 -0.72312 1.20697
v -0.89015 -0.72356 1.20335
v -0.87084 -0.71024 1.20225
v -0.86279 -0.68826 1.20409
v -0.86908 -0.66600 1.20815
v -0.88731 -0.65197 1.21290
v -0.88853 -0.66974 1.35146
v -0.90777 -0.68312 1.35304
v -0.91576 -0.70516 1.35155
v -0.90945 -0.72742 1.34757
v -0.89126 -0.74142 1.34260
v -0.86813 -0.74180 1.33855
v -0.84889 -0.72842 1.33697
v -0.84090 -0.70638 1.33846
v -0.84721 -0.68411 1.34245
v -0.86540 -0.67012 1.34741
v -0.86444 -0.68625 1.48316
v -0.88358 -0.69969 1.48524
v -0.89150 -0.72177 1.48412
v -0.88518 -0.74405 1.48021
v -0.86703 -0.75802 1.47502
v -0.84398 -0.75834 1.47052
v -0.82484 -0.74489 1.46844
v -0.81692 -0.72281 1.46957
v -0.82324 -0.70054 1.47347
v -0.84139 -0.68657 1.47866
v -0.83829 -0.70102 1.61129
v -0.85733 -0.71452 1.61390
v -0.86517 -0.73665 1.61315
v -0.85883 -0.75894 1.60934
v -0.84072 -0.77288 1.60391
v -0.81777 -0.77314 1.59894
v -0.79874 -0.75964 1.59634
v -0.79089 -0.73751 1.59708
v -0.79723 -0.71522 1.60090
v -0.81534 -0.70128 1.60633
v -0.81015 -0.71401 1.73556
v -0.82906 -0.72758 1.73872
v -0.83681 -0.74975 1.73837
v -0.83045 -0.77204 1.73465
v -0.81240 -0.78596 1.72897
v -0.78956 -0.78617 1.72351
v -0.77065 -0.77260 1.72035
v -0.76290 -0.75044 1.72070
v -0.76926 -0.72814 1.72442
v -0.78731 -0.71423 1.73009
v -0.78009 -0.72521 1.85565
v -0.79885 -0.73883 1.85939
v -0.80650 -0.76104 1.85947
v -0.80011 -0.78334 1.85584
v -0.78212 -0.79723 1.84990
v -0.75941 -0.79739 1.84392
v -0.74065 -0.78377 1.84017
v -0.73301 -0.76157 1.84010
v -0.73940 -0.73926 1.84372
v -0.75738 -0.72537 1.84966
v -0.74818 -0.73457 1.97127
v -0.76677 -0.74824 1.97564
v -0.77429 -0.77049 1.97616
v -0.76787 -0.79280 1.97264
v -0.74996 -0.80667 1.96642
v -0.72740 -0.80678 1.95988
v -0.70882 -0.79311 1.95551
v -0.70129 -0.77087 1.95499
v -0.70771 -0.74855 1.95851
v -0.72562 -0.73469 1.96473
v -0.71449 -0.74208 2.08216
v -0.73288 -0.75580 2.08718
v -0.74025 -0.77808 2.08818
v -0.73380 -0.80040 2.08477
v -0.71598 -0.81424 2.07825
v -0.69361 -0.81432 2.07112
v -0.67522 -0.80060 2.06609
v -0.66785 -0.77832 2.06509
v -0.67430 -0.75600 2.06850
v -0.69212 -0.74216 2.07502
v -0.67912 -0.74772 2.18802
v -0.69727 -0.76148 2.19376
v -0.70447 -0.78378 2.19527
v -0.69798 -0.80611 2.19197
v -0.68026 -0.81993 2.18514
v -0.65810 -0.81997 2.17737
v -0.63995 -0.80622 2.17164
v -0.63275 -0.78391 2.17013
v -0.63925 -0.76158 2.17342
v -0.65696 -0.74776 2.18026
v -0.64215 -0.75148 2.28862
v -0.66002 -0.76527 2.29512
v -0.66701 -0.78759 2.29718
v -0.66047 -0.80992 2.29401
v -0.64288 -0.82373 2.28683
v -0.62097 -0.82374 2.27838
v -0.60310 -0.80995 2.27189
v -0.59610 -0.78763 2.26983
v -0.60265 -0.76530 2.27299
v -0.62024 -0.75149 2.28017
v -0.60367 -0.75334 2.38371
v -0.62120 -0.76715 2.39102
v -0.62796 -0.78949 2.39367
v -0.62135 -0.81182 2.39064
v -0.60391 -0.82562 2.38309
v -0.58230 -0.82561 2.37391
v -0.56477 -0.81181 2.36659
v -0.55801 -0.78947 2.36394
v -0.56461 -0.76714 2.36697
v -0.58205 -0.75334 2.37452
v -0.56377 -0.75331 2.47305
v -0.58091 -0.76712 2.48125
v -0.58737 -0.78946 2.48454
v -0.58070 -0.81179 2.48166
v -0.56344 -0.82559 2.47371
v -0.54218 -0.82558 2.46372
v -0.52505 -0.81177 2.45552
v -0.51858 -0.78943 2.45223
v -0.52525 -0.76710 2.45511
v -0.54252 -0.75330 2.46306
v -0.52257 -0.75139 2.55642
v -0.53922 -0.76518 2.56559
v -0.54534 -0.78750 2.56957
v -0.53858 -0.80983 2.56685
v -0.52153 -0.82363 2.55846
v -0.50070 -0.82364 2.54761
v -0.48405 -0.80985 2.53845
v -0.47793 -0.78753 2.53446
v -0.48469 -0.76520 2.53718
v -0.50174 -0.75140 2.54557
v -0.48016 -0.74758 2.63363
v -0.49623 -0.76132 2.64384
v -0.50193 -0.78361 2.64858
v -0.49507 -0.80592 2.64603
v -0.47828 -0.81975 2.63717
v -0.45797 -0.81980 2.62538
v -0.44189 -0.80606 2.61517
v -0.43619 -0.78377 2.61043
v -0.44305 -0.76145 2.61298
v -0.45984 -0.74763 2.62184
v -0.43665 -0.74189 2.70448
v -0.45202 -0.75555 2.71582
v -0.45721 -0.77777 2.72138
v -0.45023 -0.80007 2.71902
v -0.43375 -0.81393 2.70964
v -0.41406 -0.81406 2.69683
v -0.39869 -0.80040 2.68549
v -0.39350 -0.77818 2.67993
v -0.40048 -0.75588 2.68229
v -0.41696 -0.74202 2.69167
v -0.39215 -0.73435 2.76880
v -0.40667 -0.74787 2.78138
v -0.41123 -0.76999 2.78781
v -0.40411 -0.79226 2.78565
v -0.38801 -0.80618 2.77572
v -0.36909 -0.80643 2.76181
v -0.35457 -0.79291 2.74923
v -0.35001 -0.77079 2.74280
v -0.35713 -0.74852 2.74496
v -0.37323 -0.73460 2.75489
v -0.34679 -0.72498 2.82645
v -0.36026 -0.73829 2.84034
v -0.36407 -0.76026 2.84772
v -0.35676 -0.78249 2.84577
v -0.34113 -0.79650 2.83524
v -0.32314 -0.79693 2.82014
v -0.30967 -0.78362 2.80625
v -0.30586 -0.76165 2.79887
v -0.31317 -0.73942 2.80082
v -0.32880 -0.72541 2.81135
v -0.30068 -0.71380 2.87728
v -0.31288 -0.72681 2.89256
v -0.31576 -0.74856 2.90093
v -0.30824 -0.77074 2.89921
v -0.29317 -0.78488 2.88804
v -0.27633 -0.78557 2.87169
v -0.26413 -0.77256 2.85641
v -0.26124 -0.75081 2.84803
v -0.26877 -0.72863 2.84976
v -0.28383 -0.71449 2.86093
v -0.25395 -0.70085 2.92118
v -0.26460 -0.71344 2.93789
v -0.26637 -0.73489 2.94730
v -0.25858 -0.75700 2.94580
v -0.24420 -0.77131 2.93397
v -0.22874 -0.77238 2.91632
v -0.21809 -0.75978 2.89961
v -0.21632 -0.73833 2.89020
v -0.22411 -0.71623 2.89170
v -0.23849 -0.70191 2.90354
v -0.20672 -0.68616 2.95806
v -0.21551 -0.69820 2.97621
v -0.21594 -0.71924 2.98663
v -0.20783 -0.74125 2.98535
v -0.19429 -0.75581 2.97285
v -0.18049 -0.75737 2.95392
v -0.17169 -0.74533 2.93577
v -0.17127 -0.72429 2.92535
v -0.17937 -0.70229 2.92663
v -0.19291 -0.68772 2.93912
v -0.15910 -0.66979 2.98786
v -0.16571 -0.68110 3.00735
v -0.16455 -0.70161 3.01873
v -0.15608 -0.72349 3.01765
v -0.14353 -0.73837 3.00452
v -0.13168 -0.74058 2.98436
v -0.12507 -0.72927 2.96487
v -0.12622 -0.70876 2.95349
v -0.13470 -0.68688 2.95457
v -0.14725 -0.67200 2.96770
v -0.11120 -0.65176 3.01052
v -0.11531 -0.66216 3.03117
v -0.11236 -0.68201 3.04337
v -0.10347 -0.70373 3.04245
v -0.09205 -0.71903 3.02877
v -0.08245 -0.72205 3.00755
v -0.07834 -0.71165 2.98690
v -0.08129 -0.69180 2.97470
v -0.09018 -0.67008 2.97562
v -0.10160 -0.65479 2.98930
v -0.06313 -0.63213 3.02602
v -0.06449 -0.64144 3.04754
v -0.05955 -0.66050 3.06034
v -0.05021 -0.68203 3.05953
v -0.04004 -0.69782 3.04543
v -0.03292 -0.70182 3.02341
v -0.03157 -0.69251 3.00189
v -0.03650 -0.67345 2.98909
v -0.04584 -0.65192 2.98989
v -0.05601 -0.63613 3.00400
v -0.01459 -0.61076 3.03435
v -0.01451 -0.61945 3.05617
v -0.00854 -0.63807 3.06918
v 0.00103 -0.65951 3.06841
v 0.01054 -0.67557 3.05416
v 0.01637 -0.68012 3.03187
v 0.01629 -0.67143 3.01005
v 0.01032 -0.65281 2.99704
v 0.00076 -0.63137 2.99781
v -0.00876 -0.61531 3.01206
f 2 11 1
f 3 12 2
f 4 13 3
f 4 15 14
f 5 16 15
f 6 17 16
f 7 18 17
f 8 19 18
f 10 19 9
f 1 20 10
f 12 21 11
f 13 22 12
f 14 23 13
f 15 24 14
f 16 25 15
f 17 26 16
f 18 27 17
f 19 28 18
f 20 29 19
f 11 30 20
f 21 32 31
f 23 32 22
f 24 33 23
f 25 34 24
f 26 35 25
f 27 36 26
f 28 37 27
f 29 38 28
f 30 39 29
f 30 31 40
f 31 42 41
f 32 43 42
f 34 43 33
f 35 44 34
f 36 45 35
f 37 46 36
f 38 47 37
f 39 48 38
f 40 49 39
f 40 41 50
f 41 52 51
f 42 53 52
f 44 53 43
f 45 54 44
f 46 55 45
f 47 56 46
f 48 57 47
f 49 58 48
f 50 59 49
f 50 51 60
f 51 62 61
f 52 63 62
f 54 63 53
f 55 64 54
f 56 65 55
f 57 66 56
f 58 67 57
f 59 68 58
f 59 70 69
f 60 61 70
f 61 72 71
f 62 73 72
f 64 73 63
f 65 74 64
f 66 75 65
f 67 76 66
f 68 77 67
f 69 78 68
f 69 80 79
f 70 71 80
f 71 82 81
f 72 83 82
f 74 83 73
f 75 84 74
f 76 85 75
f 77 86 76
f 78 87 77
f 79 88 78
f 79 90 89
f 80 81 90
f 81 92 91
f 82 93 92
f 83 94 93
f 85 94 84
f 86 95 85
f 87 96 86
f 88 97 87
f 89 98 88
f 89 100 99
f 90 91 100
f 91 102 101
f 92 103 102
f 93 104 103
f 95 104 94
f 96 105 95
f 97 106 96
f 98 107 97
f 99 108 98
f 99 110 109
f 100 101 110
f 101 112 111
f 102 113 112
f 103 114 113
f 105 114 104
f 106 115 105
f 107 116 106
f 108 117 107
f 109 118 108
f 109 120 119
f 110 111 120
f 111 122 121
f 112 123 122
f 113 124 123
f 115 124 114
f 116 125 115
f 117 126 116
f 118 127 117
f 119 128 118
f 119 130 129
f 120 121 130
f 121 132 131
f 122 133 132
f 123 134 133
f 125 134 124
f 126 135 125
f 127 136 126
f 128 137 127
f 129 138 128
f 129 140 139
f 130 131 140
f 131 142 141
f 132 143 142
f 133 144 143
f 135 144 134
f 136 145 135
f 137 146 136
f 138 147 137
f 139 148 138
f 139 150 149
f 140 141 150
f 141 152 151
f 142 153 152
f 143 154 153
f 145 154 144
f 146 155 145
f 147 156 146
f 148 157 147
f 149 158 148
f 149 160 159
f 150 151 160
f 151 162 161
f 152 163 162
f 153 164 163
f 155 164 154
f 156 165 155
f 157 166 156
f 158 167 157
f 159 168 158
f 159 170 169
f 160 161 170
f 161 172 171
f 162 173 172
f 163 174 173
f 165 174 164
f 166 175 165
f 167 176 166
f 168 177 167
f 169 178 168
f 169 180 179
f 170 171 180
f 171 182 181
f 172 183 182
f 173 184 183
f 175 184 174
f 176 185 175
f 177 186 176
f 178 187 177
f 179 188 178
f 179 190 189
f 180 181 190
f 181 192 191
f 182 193 192
f 183 194 193
f 185 194 184
f 186 195 185
f 187 196 186
f 188 197 187
f 189 198 188
f 189 200 199
f 190 191 200
f 191 202 201
f 192 203 202
f 193 204 203
f 195 204 194
f 196 205 195
f 197 206 196
f 198 207 197
f 199 208 198
f 199 210 209
f 200 201 210
f 201 212 211
f 202 213 212
f 203 214 213
f 205 214 204
f 206 215 205
f 207 216 206
f 208 217 207
f 209 218 208
f 209 220 219
f 210 211 220
f 211 222 221
f 212 223 222
f 213 224 223
f 215 224 214
f 216 225 215
f 217 226 216
f 218 227 217
f 219 228 218
f 219 230 229
f 220 221 230
f 221 232 231
f 222 233 232
f 223 234 233
f 225 234 224
f 226 235 225
f 227 236 226
f 228 237 227
f 229 238 228
f 229 240 239
f 230 231 240
f 231 242 241
f 232 243 242
f 233 244 243
f 235 244 234
f 236 245 235
f 237 246 236
f 238 247 237
f 239 248 238
f 239 250 249
f 240 241 250
f 241 252 251
f 242 253 252
f 243 254 253
f 245 254 244
f 246 255 245
f 247 256 246
f 248 257 247
f 249 258 248
f 249 260 259
f 250 251 260
f 251 262 261
f 252 263 262
f 253 264 263
f 255 264 254
f 256 265 255
f 257 266 256
f 258 267 257
f 259 268 258
f 259 270 269
f 260 261 270
f 261 272 271
f 262 273 272
f 263 274 273
f 265 274 264
f 266 275 265
f 267 276 266
f 268 277 267
f 269 278 268
f 269 280 279
f 270 271 280
f 271 282 281
f 272 283 282
f 274 283 273
f 275 284 274
f 276 285 275
f 277 286 276
f 278 287 277
f 279 288 278
f 279 290 289
f 280 281 290
f 281 292 291
f 282 293 292
f 284 293 283
f 285 294 284
f 286 295 285
f 287 296 286
f 288 297 287
f 289 298 288
f 289 300 299
f 290 291 300
f 291 302 301
f 292 303 302
f 293 304 303
f 295 304 294
f 296 305 295
f 297 306 296
f 298 307 297
f 299 308 298
f 300 309 299
f 300 301 310
f 301 312 311
f 302 313 312
f 304 313 303
f 305 314 304
f 306 315 305
f 307 316 306
f 308 317 307
f 309 318 308
f 310 319 309
f 301 320 310
f 312 321 311
f 313 322 312
f 314 323 313
f 315 324 314
f 316 325 315
f 317 326 316
f 318 327 317
f 319 328 318
f 320 329 319
f 311 330 320
f 322 331 321
f 323 332 322
f 324 333 323
f 325 334 324
f 326 335 325
f 327 336 326
f 328 337 327
f 329 338 328
f 330 339 329
f 321 340 330
f 332 341 331
f 333 342 332
f 334 343 333
f 334 345 344
f 336 345 335
f 336 347 346
f 337 348 347
f 339 348 338
f 339 350 349
f 331 350 340
f 342 351 341
f 343 352 342
f 344 353 343
f 344 355 354
f 345 356 355
f 346 357 356
f 347 358 357
f 348 359 358
f 350 359 349
f 341 360 350
f 352 361 351
f 353 362 352
f 354 363 353
f 354 365 364
f 355 366 365
f 356 367 366
f 357 368 367
f 359 368 358
f 360 369 359
f 351 370 360
f 362 371 361
f 363 372 362
f 363 374 373
f 364 375 374
f 365 376 375
f 366 377 376
f 367 378 377
f 369 378 368
f 370 379 369
f 361 380 370
f 372 381 371
f 373 382 372
f 374 383 373
f 374 385 384
f 375 386 385
f 376 387 386
f 377 388 387
f 379 388 378
f 380 389 379
f 371 390 380
f 382 391 381
f 383 392 382
f 384 393 383
f 384 395 394
f 385 396 395
f 386 397 396
f 387 398 397
f 389 398 388
f 390 399 389
f 381 400 390
f 392 401 391
f 393 402 392
f 394 403 393
f 394 405 404
f 395 406 405
f 396 407 406
f 397 408 407
f 399 408 398
f 400 409 399
f 391 410 400
f 402 411 401
f 403 412 402
f 404 413 403
f 404 415 414
f 405 416 415
f 406 417 416
f 407 418 417
f 408 419 418
f 410 419 409
f 401 420 410
f 412 421 411
f 413 422 412
f 414 423 413
f 414 425 424
f 415 426 425
f 416 427 426
f 417 428 427
f 418 429 428
f 420 429 419
f 411 430 420
f 422 431 421
f 423 432 422
f 424 433 423
f 424 435 434
f 425 436 435
f 426 437 436
f 427 438 437
f 428 439 438
f 430 439 429
f 421 440 430
f 432 441 431
f 433 442 432
f 434 443 433
f 434 445 444
f 435 446 445
f 436 447 446
f 437 448 447
f 438 449 448
f 440 449 439
f 431 450 440
f 442 451 441
f 443 452 442
f 444 453 443
f 444 455 454
f 445 456 455
f 446 457 456
f 447 458 457
f 448 459 458
f 450 459 449
f 441 460 450
f 452 461 451
f 453 462 452
f 454 463 453
f 454 465 464
f 455 466 465
f 456 467 466
f 457 468 467
f 458 469 468
f 460 469 459
f 451 470 460
f 462 471 461
f 463 472 462
f 464 473 463
f 464 475 474
f 465 476 475
f 466 477 476
f 467 478 477
f 468 479 478
f 470 479 469
f 461 480 470
f 472 481 471
f 473 482 472
f 474 483 473
f 474 485 484
f 475 486 485
f 476 487 486
f 477 488 487
f 478 489 488
f 480 489 479
f 471 490 480
f 482 491 481
f 483 492 482
f 484 493 483
f 484 495 494
f 485 496 495
f 486 497 496
f 487 498 497
f 488 499 498
f 490 499 489
f 481 500 490
f 492 501 491
f 493 502 492
f 494 503 493
f 494 505 504
f 495 506 505
f 496 507 506
f 497 508 507
f 498 509 508
f 500 509 499
f 491 510 500
f 502 511 501
f 503 512 502
f 504 513 503
f 504 515 514
f 505 516 515
f 506 517 516
f 507 518 517
f 508 519 518
f 510 519 509
f 501 520 510
f 512 521 511
f 513 522 512
f 514 523 513
f 514 525 524
f 515 526 525
f 516 527 526
f 517 528 527
f 518 529 528
f 520 529 519
f 511 530 520
f 522 531 521
f 523 532 522
f 524 533 523
f 524 535 534
f 525 536 535
f 526 537 536
f 527 538 537
f 528 539 538
f 530 539 529
f 521 540 530
f 532 541 531
f 533 542 532
f 534 543 533
f 534 545 544
f 535 546 545
f 536 547 546
f 537 548 547
f 538 549 548
f 540 549 539
f 531 550 540
f 542 551 541
f 543 552 542
f 544 553 543
f 544 555 554
f 545 556 555
f 546 557 556
f 547 558 557
f 548 559 558
f 550 559 549
f 541 560 550
f 552 561 551
f 553 562 552
f 554 563 553
f 554 565 564
f 555 566 565
f 556 567 566
f 557 568 567
f 558 569 568
f 560 569 559
f 551 570 560
f 562 571 561
f 563 572 562
f 564 573 563
f 564 575 574
f 565 576 575
f 566 577 576
f 567 578 577
f 569 578 568
f 570 579 569
f 561 580 570
f 572 581 571
f 573 582 572
f 574 583 573
f 574 585 584
f 575 586 585
f 576 587 586
f 577 588 587
f 579 588 578
f 580 589 579
f 571 590 580
f 582 591 581
f 583 592 582
f 584 593 583
f 584 595 594
f 585 596 595
f 586 597 596
f 587 598 597
f 589 598 588
f 590 599 589
f 581 600 590
f 592 601 591
f 593 602 592
f 594 603 593
f 594 605 604
f 595 606 605
f 596 607 606
f 597 608 607
f 599 608 598
f 600 609 599
f 591 610 600
f 602 611 601
f 603 612 602
f 604 613 603
f 605 614 604
f 605 616 615
f 606 617 616
f 607 618 617
f 609 618 608
f 610 619 609
f 601 620 610
f 612 621 611
f 613 622 612
f 614 623 613
f 615 624 614
f 615 626 625
f 616 627 626
f 618 627 617
f 619 628 618
f 620 629 619
f 611 630 620
f 622 631 621
f 623 632 622
f 624 633 623
f 625 634 624
f 626 635 625
f 627 636 626
f 628 637 627
f 629 638 628
f 630 639 629
f 621 640 630
f 632 641 631
f 633 642 632
f 634 643 633
f 635 644 634
f 636 645 635
f 637 646 636
f 638 647 637
f 639 648 638
f 640 649 639
f 631 650 640
f 642 651 641
f 643 652 642
f 644 653 643
f 645 654 644
f 646 655 645
f 647 656 646
f 648 657 647
f 649 658 648
f 650 659 649
f 641 660 650
f 652 661 651
f 653 662 652
f 654 663 653
f 655 664 654
f 656 665 655
f 657 666 656
f 658 667 657
f 659 668 658
f 660 669 659
f 651 670 660
f 661 672 671
f 662 673 672
f 664 673 663
f 665 674 664
f 666 675 665
f 667 676 666
f 668 677 667
f 669 678 668
f 670 679 669
f 670 671 680
f 671 682 681
f 672 683 682
f 674 683 673
f 675 684 674
f 676 685 675
f 677 686 676
f 678 687 677
f 679 688 678
f 680 689 679
f 680 681 690
f 681 692 691
f 682 693 692
f 684 693 683
f 685 694 684
f 686 695 685
f 687 696 686
f 688 697 687
f 689 698 688
f 689 700 699
f 690 691 700
f 691 702 701
f 692 703 702
f 694 703 693
f 695 704 694
f 696 705 695
f 697 706 696
f 698 707 697
f 699 708 698
f 699 710 709
f 700 701 710
f 701 712 711
f 702 713 712
f 704 713 703
f 705 714 704
f 706 715 705
f 707 716 706
f 708 717 707
f 709 718 708
f 709 720 719
f 710 711 720
f 711 722 721
f 712 723 722
f 714 723 713
f 715 724 714
f 716 725 715
f 717 726 716
f 718 727 717
f 719 728 718
f 719 730 729
f 720 721 730
f 721 732 731
f 722 733 732
f 723 734 733
f 725 734 724
f 726 735 725
f 727 736 726
f 728 737 727
f 729 738 728
f 729 740 739
f 730 731 740
f 731 742 741
f 732 743 742
f 733 744 743
f 735 744 734
f 736 745 735
f 737 746 736
f 738 747 737
f 739 748 738
f 739 750 749
f 740 741 750
f 741 752 751
f 742 753 752
f 743 754 753
f 745 754 744
f 746 755 745
f 747 756 746
f 748 757 747
f 749 758 748
f 749 760 759
f 750 751 760
f 751 762 761
f 752 763 762
f 753 764 763
f 755 764 754
f 756 765 755
f 757 766 756
f 758 767 757
f 759 768 758
f 759 770 769
f 760 761 770
f 761 772 771
f 762 773 772
f 763 774 773
f 765 774 764
f 766 775 765
f 767 776 766
f 768 777 767
f 769 778 768
f 769 780 779
f 770 771 780
f 771 782 781
f 772 783 782
f 773 784 783
f 775 784 774
f 776 785 775
f 777 786 776
f 778 787 777
f 779 788 778
f 779 790 789
f 780 781 790
f 781 792 791
f 782 793 792
f 783 794 793
f 785 794 784
f 786 795 785
f 787 796 786
f 788 797 787
f 789 798 788
f 789 800 799
f 790 791 800
f 791 802 801
f 792 803 802
f 793 804 803
f 795 804 794
f 796 805 795
f 797 806 796
f 798 807 797
f 799 808 798
f 799 810 809
f 800 801 810
f 801 812 811
f 802 813 812
f 803 814 813
f 805 814 804
f 806 815 805
f 807 816 806
f 808 817 807
f 809 818 808
f 809 820 819
f 810 811 820
f 811 822 821
f 812 823 822
f 813 824 823
f 815 824 814
f 816 825 815
f 817 826 816
f 818 827 817
f 819 828 818
f 819 830 829
f 820 821 830
f 821 832 831
f 822 833 832
f 823 834 833
f 825 834 824
f 826 835 825
f 827 836 826
f 828 837 827
f 829 838 828
f 829 840 839
f 830 831 840
f 831 842 841
f 832 843 842
f 833 844 843
f 835 844 834
f 836 845 835
f 837 846 836
f 838 847 837
f 839 848 838
f 839 850 849
f 840 841 850
f 841 852 851
f 842 853 852
f 843 854 853
f 845 854 844
f 846 855 845
f 847 856 846
f 848 857 847
f 849 858 848
f 849 860 859
f 850 851 860
f 851 862 861
f 852 863 862
f 853 864 863
f 855 864 854
f 856 865 855
f 857 866 856
f 858 867 857
f 859 868 858
f 859 870 869
f 860 861 870
f 861 872 871
f 862 873 872
f 863 874 873
f 865 874 864
f 866 875 865
f 867 876 866
f 868 877 867
f 869 878 868
f 869 880 879
f 870 871 880
f 871 882 881
f 872 883 882
f 873 884 883
f 875 884 874
f 876 885 875
f 877 886 876
f 878 887 877
f 879 888 878
f 879 890 889
f 880 881 890
f 881 892 891
f 882 893 892
f 884 893 883
f 885 894 884
f 886 895 885
f 887 896 886
f 888 897 887
f 889 898 888
f 889 900 899
f 890 891 900
f 891 902 901
f 892 903 902
f 894 903 893
f 895 904 894
f 896 905 895
f 897 906 896
f 898 907 897
f 899 908 898
f 899 910 909
f 900 901 910
f 901 912 911
f 902 913 912
f 904 913 903
f 905 914 904
f 906 915 905
f 907 916 906
f 908 917 907
f 909 918 908
f 909 920 919
f 910 911 920
f 911 922 921
f 912 923 922
f 914 923 913
f 915 924 914
f 916 925 915
f 917 926 916
f 918 927 917
f 919 928 918
f 919 930 929
f 920 921 930
f 921 932 931
f 922 933 932
f 924 933 923
f 925 934 924
f 926 935 925
f 927 936 926
f 928 937 927
f 929 938 928
f 929 940 939
f 930 931 940
f 931 942 941
f 932 943 942
f 933 944 943
f 935 944 934
f 936 945 935
f 937 946 936
f 938 947 937
f 939 948 938
f 939 950 949
f 940 941 950
f 941 952 951
f 943 952 942
f 943 954 953
f 945 954 944
f 946 955 945
f 947 956 946
f 948 957 947
f 949 958 948
f 949 960 959
f 941 960 950
f 952 961 951
f 952 963 962
f 954 963 953
f 955 964 954
f 956 965 955
f 957 966 956
f 958 967 957
f 959 968 958
f 959 970 969
f 951 970 960
f 962 971 961
f 963 972 962
f 964 973 963
f 965 974 964
f 966 975 965
f 967 976 966
f 968 977 967
f 968 979 978
f 970 979 969
f 961 980 970
f 972 981 971
f 973 982 972
f 974 983 973
f 974 985 984
f 976 985 975
f 976 987 986
f 978 987 977
f 979 988 978
f 980 989 979
f 980 981 990
f 982 991 981
f 983 992 982
f 984 993 983
f 984 995 994
f 985 996 995
f 986 997 996
f 987 998 997
f 988 999 998
f 990 999 989
f 981 1000 990
f 992 1001 991
f 993 1002 992
f 994 1003 993
f 994 1005 1004
f 995 1006 1005
f 996 1007 1006
f 997 1008 1007
f 998 1009 1008
f 1000 1009 999
f 991 1010 1000
f 1002 1011 1001
f 1003 1012 1002
f 1004 1013 1003
f 1004 1015 1014
f 1005 1016 1015
f 1006 1017 1016
f 1007 1018 1017
f 1008 1019 1018
f 1010 1019 1009
f 1001 1020 1010
f 1012 1021 1011
f 1013 1022 1012
f 1014 1023 1013
f 1014 1025 1024
f 1015 1026 1025
f 1016 1027 1026
f 1017 1028 1027
f 1018 1029 1028
f 1020 1029 1019
f 1011 1030 1020
f 1022 1031 1021
f 1023 1032 1022
f 1024 1033 1023
f 1024 1035 1034
f 1025 1036 1035
f 1026 1037 1036
f 1027 1038 1037
f 1028 1039 1038
f 1030 1039 1029
f 1021 1040 1030
f 1032 1041 1031
f 1033 1042 1032
f 1034 1043 1033
f 1034 1045 1044
f 1035 1046 1045
f 1036 1047 1046
f 1037 1048 1047
f 1038 1049 1048
f 1040 1049 1039
f 1031 1050 1040
f 1042 1051 1041
f 1043 1052 1042
f 1044 1053 1043
f 1044 1055 1054
f 1045 1056 1055
f 1046 1057 1056
f 1047 1058 1057
f 1048 1059 1058
f 1050 1059 1049
f 1041 1060 1050
f 1052 1061 1051
f 1053 1062 1052
f 1054 1063 1053
f 1054 1065 1064
f 1055 1066 1065
f 1056 1067 1066
f 1057 1068 1067
f 1058 1069 1068
f 1060 1069 1059
f 1051 1070 1060
f 1062 1071 1061
f 1063 1072 1062
f 1064 1073 1063
f 1064 1075 1074
f 1065 1076 1075
f 1066 1077 1076
f 1067 1078 1077
f 1068 1079 1078
f 1070 1079 1069
f 1061 1080 1070
f 1072 1081 1071
f 1073 1082 1072
f 1074 1083 1073
f 1074 1085 1084
f 1075 1086 1085
f 1076 1087 1086
f 1077 1088 1087
f 1078 1089 1088
f 1080 1089 1079
f 1071 1090 1080
f 1082 1091 1081
f 1083 1092 1082
f 1084 1093 1083
f 1084 1095 1094
f 1085 1096 1095
f 1086 1097 1096
f 1087 1098 1097
f 1088 1099 1098
f 1090 1099 1089
f 1081 1100 1090
f 1092 1101 1091
f 1093 1102 1092
f 1094 1103 1093
f 1094 1105 1104
f 1095 1106 1105
f 1096 1107 1106
f 1097 1108 1107
f 1098 1109 1108
f 1100 1109 1099
f 1091 1110 1100
f 1102 1111 1101
f 1103 1112 1102
f 1104 1113 1103
f 1104 1115 1114
f 1105 1116 1115
f 1106 1117 1116
f 1107 1118 1117
f 1108 1119 1118
f 1110 1119 1109
f 1101 1120 1110
f 1112 1121 1111
f 1113 1122 1112
f 1114 1123 1113
f 1114 1125 1124
f 1115 1126 1125
f 1116 1127 1126
f 1117 1128 1127
f 1118 1129 1128
f 1120 1129 1119
f 1111 1130 1120
f 1122 1131 1121
f 1123 1132 1122
f 1124 1133 1123
f 1124 1135 1134
f 1125 1136 1135
f 1126 1137 1136
f 1127 1138 1137
f 1128 1139 1138
f 1130 1139 1129
f 1121 1140 1130
f 1132 1141 1131
f 1133 1142 1132
f 1134 1143 1133
f 1134 1145 1144
f 1135 1146 1145
f 1136 1147 1146
f 1137 1148 1147
f 1138 1149 1148
f 1140 1149 1139
f 1131 1150 1140
f 1142 1151 1141
f 1143 1152 1142
f 1144 1153 1143
f 1144 1155 1154
f 1145 1156 1155
f 1146 1157 1156
f 1147 1158 1157
f 1148 1159 1158
f 1150 1159 1149
f 1141 1160 1150
f 1152 1161 1151
f 1153 1162 1152
f 1154 1163 1153
f 1154 1165 1164
f 1155 1166 1165
f 1156 1167 1166
f 1157 1168 1167
f 1158 1169 1168
f 1160 1169 1159
f 1151 1170 1160
f 1162 1171 1161
f 1163 1172 1162
f 1164 1173 1163
f 1164 1175 1174
f 1165 1176 1175
f 1166 1177 1176
f 1167 1178 1177
f 1168 1179 1178
f 1170 1179 1169
f 1161 1180 1170
f 1172 1181 1171
f 1173 1182 1172
f 1174 1183 1173
f 1174 1185 1184
f 1175 1186 1185
f 1176 1187 1186
f 1177 1188 1187
f 1178 1189 1188
f 1180 1189 1179
f 1171 1190 1180
f 1182 1191 1181
f 1183 1192 1182
f 1184 1193 1183
f 1184 1195 1194
f 1185 1196 1195
f 1186 1197 1196
f 1187 1198 1197
f 1188 1199 1198
f 1190 1199 1189
f 1181 1200 1190
f 1192 1201 1191
f 1193 1202 1192
f 1194 1203 1193
f 1194 1205 1204
f 1195 1206 1205
f 1196 1207 1206
f 1197 1208 1207
f 1199 1208 1198
f 1200 1209 1199
f 1191 1210 1200
f 1202 1211 1201
f 1203 1212 1202
f 1204 1213 1203
f 1204 1215 1214
f 1205 1216 1215
f 1206 1217 1216
f 1207 1218 1217
f 1209 1218 1208
f 1210 1219 1209
f 1201 1220 1210
f 1212 1221 1211
f 1213 1222 1212
f 1214 1223 1213
f 1214 1225 1224
f 1215 1226 1225
f 1216 1227 1226
f 1217 1228 1227
f 1219 1228 1218
f 1220 1229 1219
f 1211 1230 1220
f 1222 1231 1221
f 1223 1232 1222
f 1224 1233 1223
f 1224 1235 1234
f 1225 1236 1235
f 1226 1237 1236
f 1227 1238 1237
f 1229 1238 1228
f 1230 1239 1229
f 1221 1240 1230
f 1232 1241 1231
f 1233 1242 1232
f 1234 1243 1233
f 1234 1245 1244
f 1235 1246 1245
f 1236 1247 1246
f 1237 1248 1247
f 1239 1248 1238
f 1240 1249 1239
f 1231 1250 1240
f 1242 1251 1241
f 1243 1252 1242
f 1244 1253 1243
f 1244 1255 1254
f 1245 1256 1255
f 1246 1257 1256
f 1247 1258 1257
f 1249 1258 1248
f 1250 1259 1249
f 1241 1260 1250
f 1252 1261 1251
f 1253 1262 1252
f 1254 1263 1253
f 1255 1264 1254
f 1255 1266 1265
f 1256 1267 1266
f 1257 1268 1267
f 1259 1268 1258
f 1260 1269 1259
f 1251 1270 1260
f 1262 1271 1261
f 1263 1272 1262
f 1264 1273 1263
f 1265 1274 1264
f 1266 1275 1265
f 1267 1276 1266
f 1268 1277 1267
f 1269 1278 1268
f 1270 1279 1269
f 1261 1280 1270
f 1271 1282 1281
f 1272 1283 1282
f 1273 1284 1283
f 1275 1284 1274
f 1276 1285 1275
f 1277 1286 1276
f 1278 1287 1277
f 1279 1288 1278
f 1279 1290 1289
f 1280 1281 1290
f 2 12 11
f 3 13 12
f 4 14 13
f 4 5 15
f 5 6 16
f 6 7 17
f 7 8 18
f 8 9 19
f 10 20 19
f 1 11 20
f 12 22 21
f 13 23 22
f 14 24 23
f 15 25 24
f 16 26 25
f 17 27 26
f 18 28 27
f 19 29 28
f 20 30 29
f 11 21 30
f 21 22 32
f 23 33 32
f 24 34 33
f 25 35 34
f 26 36 35
f 27 37 36
f 28 38 37
f 29 39 38
f 30 40 39
f 30 21 31
f 31 32 42
f 32 33 43
f 34 44 43
f 35 45 44
f 36 46 45
f 37 47 46
f 38 48 47
f 39 49 48
f 40 50 49
f 40 31 41
f 41 42 52
f 42 43 53
f 44 54 53
f 45 55 54
f 46 56 55
f 47 57 56
f 48 58 57
f 49 59 58
f 50 60 59
f 50 41 51
f 51 52 62
f 52 53 63
f 54 64 63
f 55 65 64
f 56 66 65
f 57 67 66
f 58 68 67
f 59 69 68
f 59 60 70
f 60 51 61
f 61 62 72
f 62 63 73
f 64 74 73
f 65 75 74
f 66 76 75
f 67 77 76
f 68 78 77
f 69 79 78
f 69 70 80
f 70 61 71
f 71 72 82
f 72 73 83
f 74 84 83
f 75 85 84
f 76 86 85
f 77 87 86
f 78 88 87
f 79 89 88
f 79 80 90
f 80 71 81
f 81 82 92
f 82 83 93
f 83 84 94
f 85 95 94
f 86 96 95
f 87 97 96
f 88 98 97
f 89 99 98
f 89 90 100
f 90 81 91
f 91 92 102
f 92 93 103
f 93 94 104
f 95 105 104
f 96 106 105
f 97 107 106
f 98 108 107
f 99 109 108
f 99 100 110
f 100 91 101
f 101 102 112
f 102 103 113
f 103 104 114
f 105 115 114
f 106 116 115
f 107 117 116
f 108 118 117
f 109 119 118
f 109 110 120
f 110 101 111
f 111 112 122
f 112 113 123
f 113 114 124
f 115 125 124
f 116 126 125
f 117 127 126
f 118 128 127
f 119 129 128
f 119 120 130
f 120 111 121
f 121 122 132
f 122 123 133
f 123 124 134
f 125 135 134
f 126 136 135
f 127 137 136
f 128 138 137
f 129 139 138
f 129 130 140
f 130 121 131
f 131 132 142
f 132 133 143
f 133 134 144
f 135 145 144
f 136 146 145
f 137 147 146
f 138 148 147
f 139 149 148
f 139 140 150
f 140 131 141
f 141 142 152
f 142 143 153
f 143 144 154
f 145 155 154
f 146 156 155
f 147 157 156
f 148 158 157
f 149 159 158
f 149 150 160
f 150 141 151
f 151 152 162
f 152 153 163
f 153 154 164
f 155 165 164
f 156 166 165
f 157 167 166
f 158 168 167
f 159 169 168
f 159 160 170
f 160 151 161
f 161 162 172
f 162 163 173
f 163 164 174
f 165 175 174
f 166 176 175
f 167 177 176
f 168 178 177
f 169 179 178
f 169 170 180
f 170 161 171
f 171 172 182
f 172 173 183
f 173 174 184
f 175 185 184
f 176 186 185
f 177 187 186
f 178 188 187
f 179 189 188
f 179 180 190
f 180 171 181
f 181 182 192
f 182 183 193
f 183 184 194
f 185 195 194
f 186 196 195
f 187 197 196
f 188 198 197
f 189 199 198
f 189 190 200
f 190 181 191
f 191 192 202
f 192 193 203
f 193 194 204
f 195 205 204
f 196 206 205
f 197 207 206
f 198 208 207
f 199 209 208
f 199 200 210
f 200 191 201
f 201 202 212
f 202 203 213
f 203 204 214
f 205 215 214
f 206 216 215
f 207 217 216
f 208 218 217
f 209 219 218
f 209 210 220
f 210 201 211
f 211 212 222
f 212 213 223
f 213 214 224
f 215 225 224
f 216 226 225
f 217 227 226
f 218 228 227
f 219 229 228
f 219 220 230
f 220 211 221
f 221 222 232
f 222 223 233
f 223 224 234
f 225 235 234
f 226 236 235
f 227 237 236
f 228 238 237
f 229 239 238
f 229 230 240
f 230 221 231
f 231 232 242
f 232 233 243
f 233 234 244
f 235 245 244
f 236 246 245
f 237 247 246
f 238 248 247
f 239 249 248
f 239 240 250
f 240 231 241
f 241 242 252
f 242 243 253
f 243 244 254
f 245 255 254
f 246 256 255
f 247 257 256
f 248 258 257
f 249 259 258
f 249 250 260
f 250 241 251
f 251 252 262
f 252 253 263
f 253 254 264
f 255 265 264
f 256 266 265
f 257 267 266
f 258 268 267
f 259 269 268
f 259 260 270
f 260 251 261
f 261 262 272
f 262 263 273
f 263 264 274
f 265 275 274
f 266 276 275
f 267 277 276
f 268 278 277
f 269 279 278
f 269 270 280
f 270 261 271
f 271 272 282
f 272 273 283
f 274 284 283
f 275 285 284
f 276 286 285
f 277 287 286
f 278 288 287
f 279 289 288
f 279 280 290
f 280 271 281
f 281 282 292
f 282 283 293
f 284 294 293
f 285 295 294
f 286 296 295
f 287 297 296
f 288 298 297
f 289 299 298
f 289 290 300
f 290 281 291
f 291 292 302
f 292 293 303
f 293 294 304
f 295 305 304
f 296 306 305
f 297 307 306
f 298 308 307
f 299 309 308
f 300 310 309
f 300 291 301
f 301 302 312
f 302 303 313
f 304 314 313
f 305 315 314
f 306 316 315
f 307 317 316
f 308 318 317
f 309 319 318
f 310 320 319
f 301 311 320
f 312 322 321
f 313 323 322
f 314 324 323
f 315 325 324
f 316 326 325
f 317 327 326
f 318 328 327
f 319 329 328
f 320 330 329
f 311 321 330
f 322 332 331
f 323 333 332
f 324 334 333
f 325 335 334
f 326 336 335
f 327 337 336
f 328 338 337
f 329 339 338
f 330 340 339
f 321 331 340
f 332 342 341
f 333 343 342
f 334 344 343
f 334 335 345
f 336 346 345
f 336 337 347
f 337 338 348
f 339 349 348
f 339 340 350
f 331 341 350
f 342 352 351
f 343 353 352
f 344 354 353
f 344 345 355
f 345 346 356
f 346 347 357
f 347 348 358
f 348 349 359
f 350 360 359
f 341 351 360
f 352 362 361
f 353 363 362
f 354 364 363
f 354 355 365
f 355 356 366
f 356 357 367
f 357 358 368
f 359 369 368
f 360 370 369
f 351 361 370
f 362 372 371
f 363 373 372
f 363 364 374
f 364 365 375
f 365 366 376
f 366 367 377
f 367 368 378
f 369 379 378
f 370 380 379
f 361 371 380
f 372 382 381
f 373 383 382
f 374 384 383
f 374 375 385
f 375 376 386
f 376 377 387
f 377 378 388
f 379 389 388
f 380 390 389
f 371 381 390
f 382 392 391
f 383 393 392
f 384 394 393
f 384 385 395
f 385 386 396
f 386 387 397
f 387 388 398
f 389 399 398
f 390 400 399
f 381 391 400
f 392 402 401
f 393 403 402
f 394 404 403
f 394 395 405
f 395 396 406
f 396 397 407
f 397 398 408
f 399 409 408
f 400 410 409
f 391 401 410
f 402 412 411
f 403 413 412
f 404 414 413
f 404 405 415
f 405 406 416
f 406 407 417
f 407 408 418
f 408 409 419
f 410 420 419
f 401 411 420
f 412 422 421
f 413 423 422
f 414 424 423
f 414 415 425
f 415 416 426
f 416 417 427
f 417 418 428
f 418 419 429
f 420 430 429
f 411 421 430
f 422 432 431
f 423 433 432
f 424 434 433
f 424 425 435
f 425 426 436
f 426 427 437
f 427 428 438
f 428 429 439
f 430 440 439
f 421 431 440
f 432 442 441
f 433 443 442
f 434 444 443
f 434 435 445
f 435 436 446
f 436 437 447
f 437 438 448
f 438 439 449
f 440 450 449
f 431 441 450
f 442 452 451
f 443 453 452
f 444 454 453
f 444 445 455
f 445 446 456
f 446 447 457
f 447 448 458
f 448 449 459
f 450 460 459
f 441 451 460
f 452 462 461
f 453 463 462
f 454 464 463
f 454 455 465
f 455 456 466
f 456 457 467
f 457 458 468
f 458 459 469
f 460 470 469
f 451 461 470
f 462 472 471
f 463 473 472
f 464 474 473
f 464 465 475
f 465 466 476
f 466 467 477
f 467 468 478
f 468 469 479
f 470 480 479
f 461 471 480
f 472 482 481
f 473 483 482
f 474 484 483
f 474 475 485
f 475 476 486
f 476 477 487
f 477 478 488
f 478 479 489
f 480 490 489
f 471 481 490
f 482 492 491
f 483 493 492
f 484 494 493
f 484 485 495
f 485 486 496
f 486 487 497
f 487 488 498
f 488 489 499
f 490 500 499
f 481 491 500
f 492 502 501
f 493 503 502
f 494 504 503
f 494 495 505
f 495 496 506
f 496 497 507
f 497 498 508
f 498 499 509
f 500 510 509
f 491 501 510
f 502 512 511
f 503 513 512
f 504 514 513
f 504 505 515
f 505 506 516
f 506 507 517
f 507 508 518
f 508 509 519
f 510 520 519
f 501 511 520
f 512 522 521
f 513 523 522
f 514 524 523
f 514 515 525
f 515 516 526
f 516 517 527
f 517 518 528
f 518 519 529
f 520 530 529
f 511 521 530
f 522 532 531
f 523 533 532
f 524 534 533
f 524 525 535
f 525 526 536
f 526 527 537
f 527 528 538
f 528 529 539
f 530 540 539
f 521 531 540
f 532 542 541
f 533 543 542
f 534 544 543
f 534 535 545
f 535 536 546
f 536 537 547
f 537 538 548
f 538 539 549
f 540 550 549
f 531 541 550
f 542 552 551
f 543 553 552
f 544 554 553
f 544 545 555
f 545 546 556
f 546 547 557
f 547 548 558
f 548 549 559
f 550 560 559
f 541 551 560
f 552 562 561
f 553 563 562
f 554 564 563
f 554 555 565
f 555 556 566
f 556 557 567
f 557 558 568
f 558 559 569
f 560 570 569
f 551 561 570
f 562 572 571
f 563 573 572
f 564 574 573
f 564 565 575
f 565 566 576
f 566 567 577
f 567 568 578
f 569 579 578
f 570 580 579
f 561 571 580
f 572 582 581
f 573 583 582
f 574 584 583
f 574 575 585
f 575 576 586
f 576 577 587
f 577 578 588
f 579 589 588
f 580 590 589
f 571 581 590
f 582 592 591
f 583 593 592
f 584 594 593
f 584 585 595
f 585 586 596
f 586 587 597
f 587 588 598
f 589 599 598
f 590 600 599
f 581 591 600
f 592 602 601
f 593 603 602
f 594 604 603
f 594 595 605
f 595 596 606
f 596 597 607
f 597 598 608
f 599 609 608
f 600 610 609
f 591 601 610
f 602 612 611
f 603 613 612
f 604 614 613
f 605 615 614
f 605 606 616
f 606 607 617
f 607 608 618
f 609 619 618
f 610 620 619
f 601 611 620
f 612 622 621
f 613 623 622
f 614 624 623
f 615 625 624
f 615 616 626
f 616 617 627
f 618 628 627
f 619 629 628
f 620 630 629
f 611 621 630
f 622 632 631
f 623 633 632
f 624 634 633
f 625 635 634
f 626 636 635
f 627 637 636
f 628 638 637
f 629 639 638
f 630 640 639
f 621 631 640
f 632 642 641
f 633 643 642
f 634 644 643
f 635 645 644
f 636 646 645
f 637 647 646
f 638 648 647
f 639 649 648
f 640 650 649
f 631 641 650
f 642 652 651
f 643 653 652
f 644 654 653
f 645 655 654
f 646 656 655
f 647 657 656
f 648 658 657
f 649 659 658
f 650 660 659
f 641 651 660
f 652 662 661
f 653 663 662
f 654 664 663
f 655 665 664
f 656 666 665
f 657 667 666
f 658 668 667
f 659 669 668
f 660 670 669
f 651 661 670
f 661 662 672
f 662 663 673
f 664 674 673
f 665 675 674
f 666 676 675
f 667 677 676
f 668 678 677
f 669 679 678
f 670 680 679
f 670 661 671
f 671 672 682
f 672 673 683
f 674 684 683
f 675 685 684
f 676 686 685
f 677 687 686
f 678 688 687
f 679 689 688
f 680 690 689
f 680 671 681
f 681 682 692
f 682 683 693
f 684 694 693
f 685 695 694
f 686 696 695
f 687 697 696
f 688 698 697
f 689 699 698
f 689 690 700
f 690 681 691
f 691 692 702
f 692 693 703
f 694 704 703
f 695 705 704
f 696 706 705
f 697 707 706
f 698 708 707
f 699 709 708
f 699 700 710
f 700 691 701
f 701 702 712
f 702 703 713
f 704 714 713
f 705 715 714
f 706 716 715
f 707 717 716
f 708 718 717
f 709 719 718
f 709 710 720
f 710 701 711
f 711 712 722
f 712 713 723
f 714 724 723
f 715 725 724
f 716 726 725
f 717 727 726
f 718 728 727
f 719 729 728
f 719 720 730
f 720 711 721
f 721 722 732
f 722 723 733
f 723 724 734
f 725 735 734
f 726 736 735
f 727 737 736
f 728 738 737
f 729 739 738
f 729 730 740
f 730 721 731
f 731 732 742
f 732 733 743
f 733 734 744
f 735 745 744
f 736 746 745
f 737 747 746
f 738 748 747
f 739 749 748
f 739 740 750
f 740 731 741
f 741 742 752
f 742 743 753
f 743 744 754
f 745 755 754
f 746 756 755
f 747 757 756
f 748 758 757
f 749 759 758
f 749 750 760
f 750 741 751
f 751 752 762
f 752 753 763
f 753 754 764
f 755 765 764
f 756 766 765
f 757 767 766
f 758 768 767
f 759 769 768
f 759 760 770
f 760 751 761
f 761 762 772
f 762 763 773
f 763 764 774
f 765 775 774
f 766 776 775
f 767 777 776
f 768 778 777
f 769 779 778
f 769 770 780
f 770 761 771
f 771 772 782
f 772 773 783
f 773 774 784
f 775 785 784
f 776 786 785
f 777 787 786
f 778 788 787
f 779 789 788
f 779 780 790
f 780 771 781
f 781 782 792
f 782 783 793
f 783 784 794
f 785 795 794
f 786 796 795
f 787 797 796
f 788 798 797
f 789 799 798
f 789 790 800
f 790 781 791
f 791 792 802
f 792 793 803
f 793 794 804
f 795 805 804
f 796 806 805
f 797 807 806
f 798 808 807
f 799 809 808
f 799 800 810
f 800 791 801
f 801 802 812
f 802 803 813
f 803 804 814
f 805 815 814
f 806 816 815
f 807 817 816
f 808 818 817
f 809 819 818
f 809 810 820
f 810 801 811
f 811 812 822
f 812 813 823
f 813 814 824
f 815 825 824
f 816 826 825
f 817 827 826
f 818 828 827
f 819 829 828
f 819 820 830
f 820 811 821
f 821 822 832
f 822 823 833
f 823 824 834
f 825 835 834
f 826 836 835
f 827 837 836
f 828 838 837
f 829 839 838
f 829 830 840
f 830 821 831
f 831 832 842
f 832 833 843
f 833 834 844
f 835 845 844
f 836 846 845
f 837 847 846
f 838 848 847
f 839 849 848
f 839 840 850
f 840 831 841
f 841 842 852
f 842 843 853
f 843 844 854
f 845 855 854
f 846 856 855
f 847 857 856
f 848 858 857
f 849 859 858
f 849 850 860
f 850 841 851
f 851 852 862
f 852 853 863
f 853 854 864
f 855 865 864
f 856 866 865
f 857 867 866
f 858 868 867
f 859 869 868
f 859 860 870
f 860 851 861
f 861 862 872
f 862 863 873
f 863 864 874
f 865 875 874
f 866 876 875
f 867 877 876
f 868 878 877
f 869 879 878
f 869 870 880
f 870 861 871
f 871 872 882
f 872 873 883
f 873 874 884
f 875 885 884
f 876 886 885
f 877 887 886
f 878 888 887
f 879 889 888
f 879 880 890
f 880 871 881
f 881 882 892
f 882 883 893
f 884 894 893
f 885 895 894
f 886 896 895
f 887 897 896
f 888 898 897
f 889 899 898
f 889 890 900
f 890 881 891
f 891 892 902
f 892 893 903
f 894 904 903
f 895 905 904
f 896 906 905
f 897 907 906
f 898 908 907
f 899 909 908
f 899 900 910
f 900 891 901
f 901 902 912
f 902 903 913
f 904 914 913
f 905 915 914
f 906 916 915
f 907 917 916
f 908 918 917
f 909 919 918
f 909 910 920
f 910 901 911
f 911 912 922
f 912 913 923
f 914 924 923
f 915 925 924
f 916 926 925
f 917 927 926
f 918 928 927
f 919 929 928
f 919 920 930
f 920 911 921
f 921 922 932
f 922 923 933
f 924 934 933
f 925 935 934
f 926 936 935
f 927 937 936
f 928 938 937
f 929 939 938
f 929 930 940
f 930 921 931
f 931 932 942
f 932 933 943
f 933 934 944
f 935 945 944
f 936 946 945
f 937 947 946
f 938 948 947
f 939 949 948
f 939 940 950
f 940 931 941
f 941 942 952
f 943 953 952
f 943 944 954
f 945 955 954
f 946 956 955
f 947 957 956
f 948 958 957
f 949 959 958
f 949 950 960
f 941 951 960
f 952 962 961
f 952 953 963
f 954 964 963
f 955 965 964
f 956 966 965
f 957 967 966
f 958 968 967
f 959 969 968
f 959 960 970
f 951 961 970
f 962 972 971
f 963 973 972
f 964 974 973
f 965 975 974
f 966 976 975
f 967 977 976
f 968 978 977
f 968 969 979
f 970 980 979
f 961 971 980
f 972 982 981
f 973 983 982
f 974 984 983
f 974 975 985
f 976 986 985
f 976 977 987
f 978 988 987
f 979 989 988
f 980 990 989
f 980 971 981
f 982 992 991
f 983 993 992
f 984 994 993
f 984 985 995
f 985 986 996
f 986 987 997
f 987 988 998
f 988 989 999
f 990 1000 999
f 981 991 1000
f 992 1002 1001
f 993 1003 1002
f 994 1004 1003
f 994 995 1005
f 995 996 1006
f 996 997 1007
f 997 998 1008
f 998 999 1009
f 1000 1010 1009
f 991 1001 1010
f 1002 1012 1011
f 1003 1013 1012
f 1004 1014 1013
f 1004 1005 1015
f 1005 1006 1016
f 1006 1007 1017
f 1007 1008 1018
f 1008 1009 1019
f 1010 1020 1019
f 1001 1011 1020
f 1012 1022 1021
f 1013 1023 1022
f 1014 1024 1023
f 1014 1015 1025
f 1015 1016 1026
f 1016 1017 1027
f 1017 1018 1028
f 1018 1019 1029
f 1020 1030 1029
f 1011 1021 1030
f 1022 1032 1031
f 1023 1033 1032
f 1024 1034 1033
f 1024 1025 1035
f 1025 1026 1036
f 1026 1027 1037
f 1027 1028 1038
f 1028 1029 1039
f 1030 1040 1039
f 1021 1031 1040
f 1032 1042 1041
f 1033 1043 1042
f 1034 1044 1043
f 1034 1035 1045
f 1035 1036 1046
f 1036 1037 1047
f 1037 1038 1048
f 1038 1039 1049
f 1040 1050 1049
f 1031 1041 1050
f 1042 1052 1051
f 1043 1053 1052
f 1044 1054 1053
f 1044 1045 1055
f 1045 1046 1056
f 1046 1047 1057
f 1047 1048 1058
f 1048 1049 1059
f 1050 1060 1059
f 1041 1051 1060
f 1052 1062 1061
f 1053 1063 1062
f 1054 1064 1063
f 1054 1055 1065
f 1055 1056 1066
f 1056 1057 1067
f 1057 1058 1068
f 1058 1059 1069
f 1060 1070 1069
f 1051 1061 1070
f 1062 1072 1071
f 1063 1073 1072
f 1064 1074 1073
f 1064 1065 1075
f 1065 1066 1076
f 1066 1067 1077
f 1067 1068 1078
f 1068 1069 1079
f 1070 1080 1079
f 1061 1071 1080
f 1072 1082 1081
f 1073 1083 1082
f 1074 1084 1083
f 1074 1075 1085
f 1075 1076 1086
f 1076 1077 1087
f 1077 1078 1088
f 1078 1079 1089
f 1080 1090 1089
f 1071 1081 1090
f 1082 1092 1091
f 1083 1093 1092
f 1084 1094 1093
f 1084 1085 1095
f 1085 1086 1096
f 1086 1087 1097
f 1087 1088 1098
f 1088 1089 1099
f 1090 1100 1099
f 1081 1091 1100
f 1092 1102 1101
f 1093 1103 1102
f 1094 1104 1103
f 1094 1095 1105
f 1095 1096 1106
f 1096 1097 1107
f 1097 1098 1108
f 1098 1099 1109
f 1100 1110 1109
f 1091 1101 1110
f 1102 1112 1111
f 1103 1113 1112
f 1104 1114 1113
f 1104 1105 1115
f 1105 1106 1116
f 1106 1107 1117
f 1107 1108 1118
f 1108 1109 1119
f 1110 1120 1119
f 1101 1111 1120
f 1112 1122 1121
f 1113 1123 1122
f 1114 1124 1123
f 1114 1115 1125
f 1115 1116 1126
f 1116 1117 1127
f 1117 1118 1128
f 1118 1119 1129
f 1120 1130 1129
f 1111 1121 1130
f 1122 1132 1131
f 1123 1133 1132
f 1124 1134 1133
f 1124 1125 1135
f 1125 1126 1136
f 1126 1127 1137
f 1127 1128 1138
f 1128 1129 1139
f 1130 1140 1139
f 1121 1131 1140
f 1132 1142 1141
f 1133 1143 1142
f 1134 1144 1143
f 1134 1135 1145
f 1135 1136 1146
f 1136 1137 1147
f 1137 1138 1148
f 1138 1139 1149
f 1140 1150 1149
f 1131 1141 1150
f 1142 1152 1151
f 1143 1153 1152
f 1144 1154 1153
f 1144 1145 1155
f 1145 1146 1156
f 1146 1147 1157
f 1147 1148 1158
f 1148 1149 1159
f 1150 1160 1159
f 1141 1151 1160
f 1152 1162 1161
f 1153 1163 1162
f 1154 1164 1163
f 1154 1155 1165
f 1155 1156 1166
f 1156 1157 1167
f 1157 1158 1168
f 1158 1159 1169
f 1160 1170 1169
f 1151 1161 1170
f 1162 1172 1171
f 1163 1173 1172
f 1164 1174 1173
f 1164 1165 1175
f 1165 1166 1176
f 1166 1167 1177
f 1167 1168 1178
f 1168 1169 1179
f 1170 1180 1179
f 1161 1171 1180
f 1172 1182 1181
f 1173 1183 1182
f 1174 1184 1183
f 1174 1175 1185
f 1175 1176 1186
f 1176 1177 1187
f 1177 1178 1188
f 1178 1179 1189
f 1180 1190 1189
f 1171 1181 1190
f 1182 1192 1191
f 1183 1193 1192
f 1184 1194 1193
f 1184 1185 1195
f 1185 1186 1196
f 1186 1187 1197
f 1187 1188 1198
f 1188 1189 1199
f 1190 1200 1199
f 1181 1191 1200
f 1192 1202 1201
f 1193 1203 1202
f 1194 1204 1203
f 1194 1195 1205
f 1195 1196 1206
f 1196 1197 1207
f 1197 1198 1208
f 1199 1209 1208
f 1200 1210 1209
f 1191 1201 1210
f 1202 1212 1211
f 1203 1213 1212
f 1204 1214 1213
f 1204 1205 1215
f 1205 1206 1216
f 1206 1207 1217
f 1207 1208 1218
f 1209 1219 1218
f 1210 1220 1219
f 1201 1211 1220
f 1212 1222 1221
f 1213 1223 1222
f 1214 1224 1223
f 1214 1215 1225
f 1215 1216 1226
f 1216 1217 1227
f 1217 1218 1228
f 1219 1229 1228
f 1220 1230 1229
f 1211 1221 1230
f 1222 1232 1231
f 1223 1233 1232
f 1224 1234 1233
f 1224 1225 1235
f 1225 1226 1236
f 1226 1227 1237
f 1227 1228 1238
f 1229 1239 1238
f 1230 1240 1239
f 1221 1231 1240
f 1232 1242 1241
f 1233 1243 1242
f 1234 1244 1243
f 1234 1235 1245
f 1235 1236 1246
f 1236 1237 1247
f 1237 1238 1248
f 1239 1249 1248
f 1240 1250 1249
f 1231 1241 1250
f 1242 1252 1251
f 1243 1253 1252
f 1244 1254 1253
f 1244 1245 1255
f 1245 1246 1256
f 1246 1247 1257
f 1247 1248 1258
f 1249 1259 1258
f 1250 1260 1259
f 1241 1251 1260
f 1252 1262 1261
f 1253 1263 1262
f 1254 1264 1263
f 1255 1265 1264
f 1255 1256 1266
f 1256 1257 1267
f 1257 1258 1268
f 1259 1269 1268
f 1260 1270 1269
f 1251 1261 1270
f 1262 1272 1271
f 1263 1273 1272
f 1264 1274 1273
f 1265 1275 1274
f 1266 1276 1275
f 1267 1277 1276
f 1268 1278 1277
f 1269 1279 1278
f 1270 1280 1279
f 1261 1271 1280
f 1271 1272 1282
f 1272 1273 1283
f 1273 1274 1284
f 1275 1285 1284
f 1276 1286 1285
f 1277 1287 1286
f 1278 1288 1287
f 1279 1289 1288
f 1279 1280 1290
f 1280 1271 1281
