# eclipse GreatOrbit2_OrbitLine.obj: Roblox cue frame, recentred on its bounding box
v -0.00438 -0.63569 3.03183
v -0.00329 -0.63834 3.03893
v -0.00034 -0.64474 3.04192
v 0.00274 -0.65113 3.03906
v 0.00415 -0.65378 3.03202
v 0.00306 -0.65113 3.02492
v 0.00011 -0.64474 3.02193
v -0.00297 -0.63834 3.02479
v 0.04441 -0.61266 3.03293
v 0.04597 -0.61509 3.04002
v 0.04919 -0.62136 3.04301
v 0.05218 -0.62780 3.04014
v 0.05319 -0.63063 3.03311
v 0.05163 -0.62820 3.02602
v 0.04842 -0.62194 3.02303
v 0.04543 -0.61550 3.02589
v 0.09298 -0.58819 3.02676
v 0.09543 -0.59019 3.03373
v 0.09915 -0.59621 3.03664
v 0.10196 -0.60273 3.03379
v 0.10222 -0.60593 3.02684
v 0.09977 -0.60394 3.01987
v 0.09605 -0.59792 3.01696
v 0.09324 -0.59140 3.01981
v 0.14134 -0.56228 3.01332
v 0.14460 -0.56385 3.02006
v 0.14877 -0.56964 3.02284
v 0.15142 -0.57624 3.02002
v 0.15099 -0.57980 3.01326
v 0.14773 -0.57823 3.00651
v 0.14356 -0.57244 3.00374
v 0.14091 -0.56584 3.00656
v 0.18938 -0.53498 2.99264
v 0.19334 -0.53617 2.99908
v 0.19791 -0.54173 3.00168
v 0.20041 -0.54841 2.99891
v 0.19938 -0.55230 2.99240
v 0.19542 -0.55112 2.98596
v 0.19084 -0.54556 2.98336
v 0.18834 -0.53887 2.98613
v 0.23697 -0.50636 2.96476
v 0.24153 -0.50720 2.97085
v 0.24644 -0.51256 2.97324
v 0.24882 -0.51931 2.97054
v 0.24727 -0.52350 2.96432
v 0.24271 -0.52267 2.95823
v 0.23780 -0.51731 2.95584
v 0.23543 -0.51055 2.95854
v 0.28401 -0.47650 2.92973
v 0.28907 -0.47702 2.93545
v 0.29425 -0.48221 2.93763
v 0.29653 -0.48902 2.93500
v 0.29455 -0.49348 2.92910
v 0.28949 -0.49295 2.92338
v 0.28431 -0.48777 2.92120
v 0.28203 -0.48095 2.92383
v 0.33037 -0.44545 2.88765
v 0.33584 -0.44570 2.89300
v 0.34125 -0.45074 2.89497
v 0.34344 -0.45761 2.89241
v 0.34112 -0.46229 2.88682
v 0.33565 -0.46204 2.88147
v 0.33023 -0.45700 2.87950
v 0.32804 -0.45013 2.88206
v 0.37594 -0.41330 2.83861
v 0.38175 -0.41332 2.84360
v 0.38735 -0.41822 2.84536
v 0.38947 -0.42514 2.84287
v 0.38685 -0.43003 2.83758
v 0.38105 -0.43001 2.83260
v 0.37544 -0.42510 2.83084
v 0.37333 -0.41818 2.83333
v 0.42061 -0.38012 2.78273
v 0.42669 -0.37994 2.78737
v 0.43245 -0.38473 2.78893
v 0.43450 -0.39170 2.78651
v 0.43166 -0.39675 2.78152
v 0.42557 -0.39693 2.77688
v 0.41981 -0.39214 2.77531
v 0.41776 -0.38518 2.77773
v 0.46426 -0.34601 2.72013
v 0.47057 -0.34565 2.72445
v 0.47645 -0.35035 2.72583
v 0.47846 -0.35735 2.72347
v 0.47542 -0.36255 2.71876
v 0.46911 -0.36291 2.71444
v 0.46322 -0.35821 2.71306
v 0.46122 -0.35121 2.71541
v 0.50679 -0.31103 2.65098
v 0.51329 -0.31052 2.65499
v 0.51927 -0.31514 2.65621
v 0.52124 -0.32217 2.65391
v 0.51804 -0.32750 2.64945
v 0.51154 -0.32801 2.64544
v 0.50555 -0.32340 2.64422
v 0.50359 -0.31637 2.64652
v 0.54809 -0.27529 2.57543
v 0.55474 -0.27464 2.57917
v 0.56082 -0.27918 2.58022
v 0.56275 -0.28624 2.57798
v 0.55942 -0.29169 2.57376
v 0.55276 -0.29233 2.57003
v 0.54669 -0.28779 2.56897
v 0.54476 -0.28073 2.57121
v 0.58807 -0.23885 2.49368
v 0.59485 -0.23809 2.49715
v 0.60099 -0.24257 2.49806
v 0.60290 -0.24965 2.49587
v 0.59945 -0.25519 2.49187
v 0.59267 -0.25595 2.48841
v 0.58653 -0.25148 2.48750
v 0.58462 -0.24439 2.48968
v 0.62662 -0.20182 2.40592
v 0.63350 -0.20096 2.40914
v 0.63971 -0.20538 2.40991
v 0.64159 -0.21248 2.40778
v 0.63806 -0.21811 2.40399
v 0.63117 -0.21897 2.40076
v 0.62496 -0.21455 2.39999
v 0.62308 -0.20745 2.40213
v 0.66365 -0.16428 2.31236
v 0.67062 -0.16333 2.31535
v 0.67688 -0.16769 2.31599
v 0.67874 -0.17482 2.31390
v 0.67513 -0.18052 2.31031
v 0.66815 -0.18147 2.30731
v 0.66190 -0.17711 2.30667
v 0.66003 -0.16999 2.30876
v 0.69907 -0.12632 2.21322
v 0.70612 -0.12529 2.21600
v 0.71242 -0.12961 2.21652
v 0.71427 -0.13675 2.21448
v 0.71059 -0.14253 2.21107
v 0.70353 -0.14356 2.20828
v 0.69723 -0.13924 2.20776
v 0.69539 -0.13210 2.20981
v 0.73279 -0.08804 2.10875
v 0.73991 -0.08693 2.11133
v 0.74624 -0.09121 2.11174
v 0.74808 -0.09837 2.10974
v 0.74434 -0.10421 2.10650
v 0.73722 -0.10531 2.10392
v 0.73089 -0.10103 2.10351
v 0.72905 -0.09388 2.10551
v 0.76474 -0.04952 1.99920
v 0.77192 -0.04835 2.00160
v 0.77828 -0.05259 2.00190
v 0.78010 -0.05976 1.99993
v 0.77632 -0.06566 1.99685
v 0.76914 -0.06683 1.99446
v 0.76278 -0.06259 1.99416
v 0.76095 -0.05542 1.99612
v 0.79483 -0.01087 1.88484
v 0.80206 -0.00964 1.88705
v 0.80845 -0.01384 1.88725
v 0.81026 -0.02103 1.88532
v 0.80643 -0.02697 1.88239
v 0.79921 -0.02820 1.88018
v 0.79282 -0.02399 1.87998
v 0.79101 -0.01681 1.88191
v 0.82300 0.02784 1.76593
v 0.83026 0.02912 1.76797
v 0.83667 0.02494 1.76808
v 0.83848 0.01775 1.76618
v 0.83462 0.01176 1.76340
v 0.82736 0.01047 1.76136
v 0.82094 0.01465 1.76126
v 0.81914 0.02184 1.76315
v 0.84917 0.06649 1.64277
v 0.85647 0.06783 1.64465
v 0.86290 0.06368 1.64466
v 0.86470 0.05647 1.64280
v 0.86081 0.05044 1.64016
v 0.85351 0.04910 1.63828
v 0.84708 0.05325 1.63827
v 0.84528 0.06045 1.64013
v 0.87328 0.10501 1.51565
v 0.88061 0.10639 1.51737
v 0.88706 0.10227 1.51730
v 0.88885 0.09505 1.51547
v 0.88493 0.08897 1.51296
v 0.87760 0.08759 1.51124
v 0.87116 0.09171 1.51131
v 0.86936 0.09893 1.51314
v 0.89527 0.14329 1.38488
v 0.90263 0.14471 1.38646
v 0.90909 0.14061 1.38630
v 0.91088 0.13339 1.38450
v 0.90694 0.12728 1.38212
v 0.89958 0.12585 1.38055
v 0.89312 0.12995 1.38071
v 0.89134 0.13717 1.38250
v 0.91510 0.18124 1.25078
v 0.92247 0.18271 1.25221
v 0.92895 0.17863 1.25197
v 0.93073 0.17140 1.25020
v 0.92677 0.16525 1.24794
v 0.91940 0.16378 1.24651
v 0.91292 0.16786 1.24676
v 0.91114 0.17509 1.24852
v 0.93271 0.21878 1.11367
v 0.94010 0.22029 1.11495
v 0.94658 0.21623 1.11463
v 0.94836 0.20899 1.11289
v 0.94439 0.20281 1.11075
v 0.93699 0.20130 1.10947
v 0.93051 0.20536 1.10979
v 0.92873 0.21260 1.11153
v 0.94805 0.25581 0.97387
v 0.95546 0.25735 0.97502
v 0.96195 0.25332 0.97462
v 0.96372 0.24607 0.97291
v 0.95974 0.23986 0.97089
v 0.95233 0.23832 0.96974
v 0.94584 0.24235 0.97014
v 0.94407 0.24960 0.97185
v 0.96110 0.29224 0.83173
v 0.96852 0.29382 0.83274
v 0.97502 0.28980 0.83227
v 0.97679 0.28255 0.83059
v 0.97279 0.27631 0.82868
v 0.96537 0.27473 0.82767
v 0.95887 0.27875 0.82814
v 0.95710 0.28600 0.82982
v 0.97182 0.32799 0.68759
v 0.97925 0.32960 0.68847
v 0.98575 0.32560 0.68792
v 0.98752 0.31834 0.68627
v 0.98352 0.31207 0.68447
v 0.97609 0.31046 0.68359
v 0.96958 0.31446 0.68414
v 0.96781 0.32172 0.68579
v 0.98018 0.36297 0.54179
v 0.98762 0.36461 0.54254
v 0.99413 0.36063 0.54192
v 0.99589 0.35336 0.54029
v 0.99188 0.34706 0.53861
v 0.98445 0.34543 0.53786
v 0.97794 0.34940 0.53848
v 0.97617 0.35667 0.54011
v 0.98617 0.39709 0.39469
v 0.99361 0.39876 0.39531
v 1.00013 0.39480 0.39462
v 1.00189 0.38752 0.39302
v 0.99787 0.38120 0.39145
v 0.99043 0.37953 0.39083
v 0.98392 0.38349 0.39152
v 0.98216 0.39077 0.39312
v 0.98977 0.43028 0.24665
v 0.99722 0.43197 0.24714
v 1.00373 0.42803 0.24638
v 1.00549 0.42075 0.24480
v 1.00148 0.41440 0.24334
v 0.99403 0.41270 0.24284
v 0.98752 0.41665 0.24361
v 0.98575 0.42393 0.24518
v 0.99097 0.46244 0.09801
v 0.99842 0.46417 0.09838
v 1.00493 0.46024 0.09754
v 1.00670 0.45295 0.09599
v 1.00268 0.44658 0.09464
v 0.99523 0.44485 0.09427
v 0.98871 0.44879 0.09511
v 0.98695 0.45607 0.09665
v 0.98977 0.49351 -0.05086
v 0.99722 0.49526 -0.05062
v 1.00373 0.49135 -0.05153
v 1.00549 0.48406 -0.05305
v 1.00147 0.47766 -0.05430
v 0.99403 0.47591 -0.05454
v 0.98752 0.47983 -0.05363
v 0.98575 0.48712 -0.05211
v 0.98617 0.52341 -0.19961
v 0.99362 0.52519 -0.19950
v 1.00013 0.52129 -0.20047
v 1.00189 0.51399 -0.20197
v 0.99787 0.50758 -0.20311
v 0.99043 0.50580 -0.20322
v 0.98392 0.50970 -0.20224
v 0.98216 0.51700 -0.20074
v 0.98018 0.55207 -0.34786
v 0.98762 0.55387 -0.34788
v 0.99413 0.54999 -0.34894
v 0.99589 0.54268 -0.35041
v 0.99188 0.53625 -0.35143
v 0.98444 0.53445 -0.35141
v 0.97794 0.53833 -0.35036
v 0.97617 0.54564 -0.34889
v 0.97182 0.57942 -0.49528
v 0.97925 0.58125 -0.49543
v 0.98575 0.57737 -0.49656
v 0.98752 0.57007 -0.49800
v 0.98351 0.56361 -0.49891
v 0.97608 0.56178 -0.49876
v 0.96958 0.56566 -0.49764
v 0.96781 0.57296 -0.49620
v 0.96110 0.60539 -0.64150
v 0.96852 0.60724 -0.64179
v 0.97502 0.60338 -0.64299
v 0.97679 0.59607 -0.64440
v 0.97279 0.58959 -0.64520
v 0.96537 0.58774 -0.64492
v 0.95887 0.59160 -0.64371
v 0.95710 0.59891 -0.64230
v 0.94805 0.62992 -0.78617
v 0.95546 0.63179 -0.78660
v 0.96195 0.62794 -0.78787
v 0.96372 0.62063 -0.78926
v 0.95974 0.61413 -0.78994
v 0.95233 0.61226 -0.78952
v 0.94584 0.61611 -0.78824
v 0.94407 0.62342 -0.78685
v 0.93271 0.65295 -0.92895
v 0.94010 0.65485 -0.92951
v 0.94658 0.65101 -0.93086
v 0.94836 0.64369 -0.93222
v 0.94438 0.63717 -0.93278
v 0.93699 0.63528 -0.93222
v 0.93051 0.63912 -0.93086
v 0.92873 0.64644 -0.92951
v 0.91510 0.67443 -1.06947
v 0.92248 0.67635 -1.07018
v 0.92895 0.67252 -1.07162
v 0.93073 0.66520 -1.07294
v 0.92677 0.65866 -1.07338
v 0.91939 0.65675 -1.07268
v 0.91292 0.66057 -1.07124
v 0.91114 0.66789 -1.06991
v 0.89528 0.69430 -1.20742
v 0.90263 0.69624 -1.20828
v 0.90909 0.69243 -1.20980
v 0.91087 0.68510 -1.21110
v 0.90693 0.67854 -1.21141
v 0.89958 0.67661 -1.21055
v 0.89312 0.68042 -1.20903
v 0.89134 0.68775 -1.20773
v 0.87329 0.71252 -1.34245
v 0.88061 0.71448 -1.34347
v 0.88706 0.71068 -1.34508
v 0.88885 0.70334 -1.34634
v 0.88493 0.69677 -1.34652
v 0.87760 0.69481 -1.34551
v 0.87115 0.69861 -1.34390
v 0.86937 0.70595 -1.34263
v 0.84917 0.72904 -1.47425
v 0.85647 0.73102 -1.47542
v 0.86290 0.72723 -1.47712
v 0.86469 0.71989 -1.47835
v 0.86080 0.71330 -1.47839
v 0.85350 0.71132 -1.47722
v 0.84707 0.71511 -1.47552
v 0.84528 0.72245 -1.47429
v 0.82301 0.74382 -1.60248
v 0.83027 0.74582 -1.60383
v 0.83668 0.74204 -1.60562
v 0.83848 0.73470 -1.60682
v 0.83461 0.72809 -1.60671
v 0.82735 0.72609 -1.60537
v 0.82094 0.72987 -1.60357
v 0.81914 0.73722 -1.60238
v 0.79484 0.75683 -1.72685
v 0.80207 0.75884 -1.72837
v 0.80845 0.75508 -1.73027
v 0.81026 0.74773 -1.73143
v 0.80643 0.74111 -1.73117
v 0.79920 0.73909 -1.72965
v 0.79282 0.74286 -1.72775
v 0.79101 0.75021 -1.72660
v 0.76475 0.76803 -1.84705
v 0.77193 0.77007 -1.84876
v 0.77828 0.76631 -1.85076
v 0.78010 0.75896 -1.85188
v 0.77631 0.75232 -1.85146
v 0.76913 0.75029 -1.84975
v 0.76277 0.75405 -1.84775
v 0.76096 0.76140 -1.84664
v 0.73280 0.77741 -1.96280
v 0.73992 0.77945 -1.96471
v 0.74625 0.77570 -1.96682
v 0.74808 0.76835 -1.96790
v 0.74433 0.76170 -1.96731
v 0.73721 0.75965 -1.96540
v 0.73088 0.76340 -1.96329
v 0.72906 0.77076 -1.96221
v 0.69908 0.78492 -2.07381
v 0.70613 0.78699 -2.07593
v 0.71243 0.78324 -2.07816
v 0.71427 0.77589 -2.07920
v 0.71058 0.76922 -2.07842
v 0.70352 0.76716 -2.07630
v 0.69723 0.77091 -2.07407
v 0.69539 0.77826 -2.07304
v 0.66366 0.79057 -2.17981
v 0.67064 0.79264 -2.18216
v 0.67689 0.78891 -2.18452
v 0.67874 0.78155 -2.18551
v 0.67512 0.77488 -2.18454
v 0.66814 0.77280 -2.18219
v 0.66189 0.77654 -2.17983
v 0.66003 0.78390 -2.17884
v 0.62663 0.79433 -2.28056
v 0.63352 0.79641 -2.28315
v 0.63972 0.79268 -2.28565
v 0.64159 0.78532 -2.28658
v 0.63804 0.77864 -2.28541
v 0.63115 0.77656 -2.28281
v 0.62495 0.78029 -2.28031
v 0.62308 0.78765 -2.27938
v 0.58808 0.79620 -2.37579
v 0.59487 0.79829 -2.37866
v 0.60100 0.79455 -2.38130
v 0.60290 0.78719 -2.38218
v 0.59944 0.78051 -2.38078
v 0.59265 0.77842 -2.37791
v 0.58652 0.78215 -2.37527
v 0.58462 0.78952 -2.37439
v 0.54811 0.79617 -2.46530
v 0.55476 0.79825 -2.46845
v 0.56083 0.79452 -2.47126
v 0.56275 0.78716 -2.47207
v 0.55940 0.78048 -2.47043
v 0.55274 0.77839 -2.46728
v 0.54668 0.78212 -2.46447
v 0.54476 0.78949 -2.46365
v 0.50681 0.79424 -2.54886
v 0.51331 0.79632 -2.55232
v 0.51929 0.79258 -2.55530
v 0.52124 0.78522 -2.55605
v 0.51802 0.77854 -2.55413
v 0.51152 0.77647 -2.55067
v 0.50554 0.78020 -2.54769
v 0.50359 0.78757 -2.54694
v 0.46428 0.79042 -2.62626
v 0.47060 0.79248 -2.63006
v 0.47647 0.78873 -2.63323
v 0.47846 0.78137 -2.63391
v 0.47540 0.77471 -2.63170
v 0.46908 0.77265 -2.62790
v 0.46321 0.77640 -2.62474
v 0.46122 0.78376 -2.62405
v 0.42063 0.78472 -2.69732
v 0.42672 0.78674 -2.70149
v 0.43247 0.78297 -2.70486
v 0.43450 0.77562 -2.70546
v 0.43163 0.76899 -2.70295
v 0.42554 0.76696 -2.69878
v 0.41979 0.77073 -2.69541
v 0.41776 0.77808 -2.69480
v 0.37597 0.77715 -2.76188
v 0.38179 0.77912 -2.76644
v 0.38738 0.77533 -2.77003
v 0.38946 0.76798 -2.77055
v 0.38683 0.76139 -2.76769
v 0.38101 0.75941 -2.76313
v 0.37542 0.76321 -2.75954
v 0.37333 0.77055 -2.75902
v 0.33040 0.76773 -2.81976
v 0.33588 0.76963 -2.82475
v 0.34129 0.76579 -2.82858
v 0.34344 0.75846 -2.82901
v 0.34109 0.75193 -2.82578
v 0.33560 0.75003 -2.82080
v 0.33020 0.75387 -2.81697
v 0.32805 0.76120 -2.81654
v 0.28404 0.75649 -2.87085
v 0.28912 0.75829 -2.87628
v 0.29429 0.75439 -2.88036
v 0.29653 0.74708 -2.88069
v 0.29452 0.74063 -2.87708
v 0.28944 0.73883 -2.87164
v 0.28427 0.74273 -2.86756
v 0.28203 0.75004 -2.86723
v 0.23701 0.74345 -2.91500
v 0.24159 0.74511 -2.92091
v 0.24648 0.74113 -2.92524
v 0.24882 0.73384 -2.92547
v 0.24723 0.72752 -2.92146
v 0.24265 0.72587 -2.91555
v 0.23776 0.72985 -2.91122
v 0.23542 0.73713 -2.91099
v 0.18941 0.72866 -2.95214
v 0.19340 0.73012 -2.95850
v 0.19796 0.72603 -2.96309
v 0.20042 0.71879 -2.96321
v 0.19934 0.71263 -2.95880
v 0.19535 0.71116 -2.95244
v 0.19079 0.71525 -2.94785
v 0.18833 0.72250 -2.94772
v 0.14138 0.71214 -2.98216
v 0.14467 0.71335 -2.98896
v 0.14884 0.70912 -2.99379
v 0.15144 0.70193 -2.99381
v 0.15096 0.69598 -2.98902
v 0.14766 0.69477 -2.98221
v 0.14350 0.69900 -2.97739
v 0.14089 0.70619 -2.97736
v 0.09301 0.69394 -3.00500
v 0.09550 0.69484 -3.01218
v 0.09922 0.69044 -3.01721
v 0.10200 0.68330 -3.01715
v 0.10220 0.67762 -3.01202
v 0.09970 0.67672 -3.00484
v 0.09598 0.68113 -2.99981
v 0.09321 0.68826 -2.99988
v 0.04442 0.67410 -3.02063
v 0.04604 0.67463 -3.02809
v 0.04927 0.67002 -3.03327
v 0.05223 0.66296 -3.03313
v 0.05318 0.65760 -3.02776
v 0.05157 0.65707 -3.02029
v 0.04833 0.66168 -3.01512
v 0.04537 0.66874 -3.01525
v -0.00428 0.65267 -3.02900
v -0.00359 0.65278 -3.03662
v -0.00086 0.64793 -3.04188
v 0.00230 0.64096 -3.04170
v 0.00404 0.63596 -3.03617
v 0.00335 0.63585 -3.02855
v 0.00063 0.64070 -3.02329
v -0.00253 0.64767 -3.02348
v -0.05298 0.62969 -3.03010
v -0.05321 0.62935 -3.03775
v -0.05100 0.62425 -3.04301
v -0.04763 0.61738 -3.04280
v -0.04509 0.61276 -3.03725
v -0.04486 0.61310 -3.02961
v -0.04707 0.61820 -3.02435
v -0.05043 0.62507 -3.02456
v -0.10157 0.60522 -3.02393
v -0.10268 0.60442 -3.03146
v -0.10095 0.59907 -3.03665
v -0.09740 0.59229 -3.03646
v -0.09409 0.58807 -3.03100
v -0.09298 0.58886 -3.02347
v -0.09471 0.59422 -3.01828
v -0.09827 0.60099 -3.01847
v -0.14996 0.57929 -3.01048
v -0.15186 0.57806 -3.01779
v -0.15057 0.57247 -3.02285
v -0.14683 0.56579 -3.02270
v -0.14284 0.56194 -3.01742
v -0.14093 0.56318 -3.01011
v -0.14222 0.56877 -3.00505
v -0.14596 0.57545 -3.00520
v -0.19801 0.55199 -2.98979
v -0.20062 0.55035 -2.99680
v -0.19970 0.54453 -3.00169
v -0.19580 0.53795 -3.00159
v -0.19120 0.53445 -2.99657
v -0.18860 0.53609 -2.98956
v -0.18952 0.54190 -2.98467
v -0.19342 0.54849 -2.98477
v -0.24562 0.52336 -2.96189
v -0.24882 0.52136 -2.96856
v -0.24822 0.51535 -2.97325
v -0.24419 0.50884 -2.97323
v -0.23908 0.50566 -2.96851
v -0.23589 0.50766 -2.96184
v -0.23648 0.51367 -2.95715
v -0.24052 0.52018 -2.95717
v -0.29268 0.49349 -2.92686
v -0.29636 0.49117 -2.93316
v -0.29603 0.48498 -2.93765
v -0.29189 0.47855 -2.93770
v -0.28635 0.47564 -2.93329
v -0.28266 0.47796 -2.92700
v -0.28299 0.48415 -2.92251
v -0.28714 0.49058 -2.92245
v -0.33905 0.46243 -2.88477
v -0.34314 0.45984 -2.89069
v -0.34303 0.45350 -2.89498
v -0.33879 0.44713 -2.89512
v -0.33290 0.44446 -2.89102
v -0.32881 0.44706 -2.88510
v -0.32892 0.45340 -2.88081
v -0.33316 0.45977 -2.88067
v -0.38463 0.43028 -2.83572
v -0.38905 0.42744 -2.84128
v -0.38913 0.42097 -2.84537
v -0.38481 0.41466 -2.84559
v -0.37862 0.41220 -2.84180
v -0.37420 0.41503 -2.83624
v -0.37413 0.42150 -2.83215
v -0.37845 0.42782 -2.83193
v -0.42931 0.39710 -2.77982
v -0.43400 0.39406 -2.78505
v -0.43422 0.38748 -2.78895
v -0.42984 0.38121 -2.78924
v -0.42342 0.37893 -2.78575
v -0.41872 0.38197 -2.78052
v -0.41850 0.38855 -2.77662
v -0.42289 0.39482 -2.77633
v -0.47297 0.36298 -2.71721
v -0.47788 0.35976 -2.72212
v -0.47822 0.35309 -2.72584
v -0.47379 0.34686 -2.72621
v -0.46717 0.34473 -2.72300
v -0.46226 0.34795 -2.71809
v -0.46192 0.35463 -2.71437
v -0.46635 0.36085 -2.71400
v -0.51550 0.32800 -2.64805
v -0.52060 0.32463 -2.65266
v -0.52104 0.31787 -2.65622
v -0.51656 0.31168 -2.65665
v -0.50979 0.30969 -2.65370
v -0.50469 0.31306 -2.64909
v -0.50425 0.31982 -2.64553
v -0.50873 0.32601 -2.64510
v -0.55681 0.29225 -2.57250
v -0.56206 0.28875 -2.57682
v -0.56259 0.28191 -2.58023
v -0.55807 0.27575 -2.58072
v -0.55116 0.27387 -2.57802
v -0.54591 0.27738 -2.57369
v -0.54539 0.28421 -2.57029
v -0.54990 0.29037 -2.56979
v -0.59679 0.25581 -2.49074
v -0.60217 0.25219 -2.49480
v -0.60276 0.24529 -2.49807
v -0.59821 0.23916 -2.49862
v -0.59120 0.23739 -2.49614
v -0.58581 0.24101 -2.49208
v -0.58522 0.24791 -2.48881
v -0.58977 0.25404 -2.48826
v -0.63534 0.21878 -2.40297
v -0.64083 0.21505 -2.40679
v -0.64148 0.20810 -2.40992
v -0.63691 0.20199 -2.41053
v -0.62979 0.20031 -2.40826
v -0.62431 0.20403 -2.40444
v -0.62366 0.21098 -2.40131
v -0.62823 0.21709 -2.40070
v -0.67237 0.18124 -2.30940
v -0.67795 0.17742 -2.31299
v -0.67865 0.17042 -2.31600
v -0.67406 0.16433 -2.31666
v -0.66687 0.16272 -2.31459
v -0.66129 0.16654 -2.31099
v -0.66059 0.17354 -2.30799
v -0.66518 0.17963 -2.30733
v -0.70779 0.14328 -2.21026
v -0.71345 0.13938 -2.21364
v -0.71419 0.13233 -2.21653
v -0.70958 0.12626 -2.21724
v -0.70232 0.12473 -2.21535
v -0.69667 0.12862 -2.21197
v -0.69593 0.13567 -2.20908
v -0.70054 0.14174 -2.20837
v -0.74152 0.10499 -2.10579
v -0.74724 0.10102 -2.10897
v -0.74801 0.09393 -2.11175
v -0.74339 0.08788 -2.11250
v -0.73608 0.08641 -2.11078
v -0.73036 0.09038 -2.10761
v -0.72959 0.09747 -2.10482
v -0.73421 0.10352 -2.10407
v -0.77347 0.06647 -1.99623
v -0.77924 0.06244 -1.99922
v -0.78005 0.05531 -2.00190
v -0.77541 0.04927 -2.00270
v -0.76805 0.04786 -2.00115
v -0.76228 0.05190 -1.99815
v -0.76147 0.05903 -1.99548
v -0.76611 0.06506 -1.99468
v -0.80357 0.02782 -1.88186
v -0.80938 0.02372 -1.88467
v -0.81021 0.01656 -1.88726
v -0.80556 0.01054 -1.88809
v -0.79816 0.00918 -1.88669
v -0.79234 0.01328 -1.88388
v -0.79152 0.02043 -1.88130
v -0.79616 0.02646 -1.88046
v -0.83173 -0.01089 -1.76295
v -0.83759 -0.01504 -1.76559
v -0.83844 -0.02223 -1.76808
v -0.83378 -0.02824 -1.76896
v -0.82635 -0.02955 -1.76771
v -0.82049 -0.02540 -1.76506
v -0.81964 -0.01821 -1.76257
v -0.82430 -0.01220 -1.76170
v -0.85790 -0.04954 -1.63978
v -0.86380 -0.05375 -1.64227
v -0.86466 -0.06096 -1.64466
v -0.86000 -0.06696 -1.64558
v -0.85253 -0.06823 -1.64447
v -0.84664 -0.06402 -1.64199
v -0.84577 -0.05681 -1.63959
v -0.85044 -0.05081 -1.63867
v -0.88202 -0.08806 -1.51266
v -0.88794 -0.09231 -1.51499
v -0.88882 -0.09955 -1.51730
v -0.88415 -0.10554 -1.51825
v -0.87666 -0.10677 -1.51727
v -0.87074 -0.10251 -1.51495
v -0.86985 -0.09527 -1.51263
v -0.87452 -0.08928 -1.51169
v -0.90401 -0.12634 -1.38189
v -0.90996 -0.13064 -1.38407
v -0.91086 -0.13790 -1.38630
v -0.90618 -0.14388 -1.38728
v -0.89866 -0.14507 -1.38644
v -0.89272 -0.14077 -1.38426
v -0.89182 -0.13350 -1.38203
v -0.89650 -0.12753 -1.38104
v -0.92384 -0.16430 -1.24778
v -0.92980 -0.16864 -1.24981
v -0.93071 -0.17592 -1.25197
v -0.92603 -0.18189 -1.25298
v -0.91850 -0.18304 -1.25226
v -0.91253 -0.17870 -1.25023
v -0.91162 -0.17142 -1.24808
v -0.91630 -0.16545 -1.24706
v -0.94144 -0.20184 -1.11066
v -0.94743 -0.20621 -1.11255
v -0.94835 -0.21352 -1.11463
v -0.94366 -0.21948 -1.11568
v -0.93611 -0.22060 -1.11508
v -0.93013 -0.21622 -1.11319
v -0.92921 -0.20891 -1.11111
v -0.93390 -0.20295 -1.11007
v -0.95679 -0.23887 -0.97086
v -0.96279 -0.24328 -0.97262
v -0.96372 -0.25061 -0.97462
v -0.95902 -0.25656 -0.97570
v -0.95146 -0.25765 -0.97522
v -0.94546 -0.25323 -0.97346
v -0.94454 -0.24590 -0.97146
v -0.94923 -0.23995 -0.97038
v -0.96984 -0.27530 -0.82872
v -0.97585 -0.27975 -0.83034
v -0.97678 -0.28710 -0.83227
v -0.97209 -0.29304 -0.83338
v -0.96452 -0.29410 -0.83302
v -0.95850 -0.28965 -0.83139
v -0.95757 -0.28230 -0.82946
v -0.96227 -0.27636 -0.82836
v -0.98056 -0.31105 -0.68457
v -0.98658 -0.31553 -0.68606
v -0.98752 -0.32290 -0.68792
v -0.98282 -0.32883 -0.68906
v -0.97524 -0.32986 -0.68881
v -0.96922 -0.32538 -0.68732
v -0.96828 -0.31801 -0.68546
v -0.97298 -0.31208 -0.68432
v -0.98892 -0.34603 -0.53877
v -0.99495 -0.35054 -0.54013
v -0.99589 -0.35792 -0.54192
v -0.99119 -0.36385 -0.54309
v -0.98361 -0.36485 -0.54295
v -0.97758 -0.36034 -0.54159
v -0.97664 -0.35296 -0.53981
v -0.98133 -0.34703 -0.53864
v -0.99491 -0.38015 -0.39167
v -1.00095 -0.38469 -0.39290
v -1.00189 -0.39209 -0.39462
v -0.99719 -0.39801 -0.39582
v -0.98960 -0.39899 -0.39579
v -0.98356 -0.39444 -0.39456
v -0.98262 -0.38705 -0.39284
v -0.98732 -0.38112 -0.39165
v -0.99851 -0.41334 -0.24362
v -1.00455 -0.41791 -0.24473
v -1.00549 -0.42532 -0.24637
v -1.00079 -0.43123 -0.24760
v -0.99320 -0.43218 -0.24769
v -0.98716 -0.42761 -0.24658
v -0.98621 -0.42020 -0.24493
v -0.99092 -0.41428 -0.24371
v -0.99971 -0.44550 -0.09498
v -1.00575 -0.45010 -0.09596
v -1.00670 -0.45753 -0.09754
v -1.00199 -0.46344 -0.09879
v -0.99440 -0.46436 -0.09899
v -0.98836 -0.45976 -0.09801
v -0.98741 -0.45233 -0.09643
v -0.99212 -0.44643 -0.09518
v -0.99851 -0.47657 0.05389
v -1.00455 -0.48120 0.05304
v -1.00549 -0.48864 0.05153
v -1.00079 -0.49454 0.05025
v -0.99320 -0.49545 0.04994
v -0.98716 -0.49082 0.05079
v -0.98621 -0.48338 0.05230
v -0.99092 -0.47748 0.05359
v -0.99491 -0.50648 0.20264
v -1.00095 -0.51113 0.20192
v -1.00189 -0.51858 0.20048
v -0.99719 -0.52448 0.19916
v -0.98960 -0.52536 0.19875
v -0.98356 -0.52071 0.19947
v -0.98262 -0.51325 0.20091
v -0.98732 -0.50736 0.20222
v -0.98892 -0.53514 0.35090
v -0.99495 -0.53981 0.35031
v -0.99589 -0.54728 0.34894
v -0.99119 -0.55317 0.34760
v -0.98361 -0.55403 0.34707
v -0.97758 -0.54935 0.34766
v -0.97664 -0.54188 0.34903
v -0.98134 -0.53599 0.35037
v -0.98056 -0.56248 0.49833
v -0.98658 -0.56718 0.49786
v -0.98752 -0.57467 0.49657
v -0.98282 -0.58055 0.49519
v -0.97524 -0.58139 0.49455
v -0.96922 -0.57669 0.49501
v -0.96828 -0.56920 0.49631
v -0.97298 -0.56332 0.49768
v -0.96984 -0.58845 0.64455
v -0.97585 -0.59318 0.64422
v -0.97678 -0.60068 0.64300
v -0.97209 -0.60655 0.64159
v -0.96451 -0.60737 0.64083
v -0.95850 -0.60265 0.64116
v -0.95757 -0.59515 0.64239
v -0.96227 -0.58927 0.64379
v -0.95679 -0.61299 0.78922
v -0.96279 -0.61773 0.78903
v -0.96372 -0.62524 0.78788
v -0.95902 -0.63112 0.78644
v -0.95146 -0.63191 0.78557
v -0.94546 -0.62716 0.78576
v -0.94454 -0.61965 0.78691
v -0.94923 -0.61378 0.78835
v -0.94145 -0.63602 0.93200
v -0.94743 -0.64079 0.93195
v -0.94835 -0.64831 0.93087
v -0.94366 -0.65418 0.92940
v -0.93611 -0.65495 0.92840
v -0.93012 -0.65018 0.92846
v -0.92921 -0.64266 0.92953
v -0.93390 -0.63679 0.93100
v -0.92384 -0.65750 1.07253
v -0.92981 -0.66229 1.07262
v -0.93071 -0.66982 1.07163
v -0.92603 -0.67568 1.07013
v -0.91849 -0.67644 1.06900
v -0.91253 -0.67165 1.06891
v -0.91162 -0.66411 1.06991
v -0.91631 -0.65825 1.07141
v -0.90402 -0.67737 1.21049
v -0.90996 -0.68218 1.21072
v -0.91085 -0.68973 1.20981
v -0.90617 -0.69559 1.20827
v -0.89866 -0.69632 1.20702
v -0.89271 -0.69151 1.20678
v -0.89182 -0.68396 1.20770
v -0.89650 -0.67810 1.20923
v -0.88202 -0.69559 1.34552
v -0.88794 -0.70042 1.34592
v -0.88882 -0.70798 1.34508
v -0.88414 -0.71383 1.34351
v -0.87665 -0.71455 1.34213
v -0.87073 -0.70971 1.34173
v -0.86985 -0.70216 1.34256
v -0.87453 -0.69630 1.34413
v -0.85791 -0.71211 1.47732
v -0.86380 -0.71696 1.47788
v -0.86466 -0.72453 1.47713
v -0.85999 -0.73038 1.47552
v -0.85253 -0.73108 1.47400
v -0.84664 -0.72622 1.47344
v -0.84577 -0.71865 1.47419
v -0.85044 -0.71281 1.47579
v -0.83174 -0.72689 1.60556
v -0.83760 -0.73176 1.60628
v -0.83844 -0.73934 1.60563
v -0.83378 -0.74518 1.60399
v -0.82634 -0.74587 1.60231
v -0.82048 -0.74099 1.60159
v -0.81964 -0.73341 1.60224
v -0.82430 -0.72757 1.60389
v -0.80357 -0.73990 1.72994
v -0.80939 -0.74479 1.73084
v -0.81021 -0.75238 1.73028
v -0.80556 -0.75822 1.72859
v -0.79815 -0.75889 1.72676
v -0.79234 -0.75399 1.72586
v -0.79152 -0.74640 1.72642
v -0.79617 -0.74056 1.72811
v -0.77348 -0.75110 1.85014
v -0.77925 -0.75601 1.85123
v -0.78004 -0.76361 1.85078
v -0.77540 -0.76945 1.84905
v -0.76804 -0.77010 1.84705
v -0.76227 -0.76518 1.84597
v -0.76148 -0.75759 1.84642
v -0.76612 -0.75175 1.84815
v -0.74153 -0.76047 1.96589
v -0.74724 -0.76540 1.96718
v -0.74801 -0.77301 1.96683
v -0.74338 -0.77884 1.96506
v -0.73607 -0.77948 1.96289
v -0.73035 -0.77455 1.96161
v -0.72959 -0.76694 1.96195
v -0.73422 -0.76111 1.96373
v -0.70781 -0.76799 2.07691
v -0.71345 -0.77294 2.07841
v -0.71418 -0.78055 2.07818
v -0.70957 -0.78638 2.07635
v -0.70231 -0.78700 2.07400
v -0.69666 -0.78206 2.07250
v -0.69593 -0.77444 2.07273
v -0.70055 -0.76862 2.07456
v -0.67238 -0.77364 2.18292
v -0.67796 -0.77859 2.18464
v -0.67864 -0.78622 2.18454
v -0.67404 -0.79204 2.18266
v -0.66685 -0.79265 2.18011
v -0.66128 -0.78770 2.17839
v -0.66059 -0.78007 2.17849
v -0.66519 -0.77425 2.18037
v -0.63535 -0.77740 2.28367
v -0.64083 -0.78237 2.28564
v -0.64147 -0.78999 2.28566
v -0.63689 -0.79581 2.28373
v -0.62978 -0.79642 2.28097
v -0.62430 -0.79145 2.27900
v -0.62366 -0.78382 2.27897
v -0.62824 -0.77800 2.28091
v -0.59680 -0.77927 2.37891
v -0.60218 -0.78424 2.38115
v -0.60275 -0.79187 2.38132
v -0.59820 -0.79769 2.37932
v -0.59118 -0.79829 2.37634
v -0.58581 -0.79331 2.37410
v -0.58523 -0.78568 2.37393
v -0.58978 -0.77987 2.37592
v -0.55683 -0.77924 2.46843
v -0.56207 -0.78421 2.47095
v -0.56258 -0.79184 2.47127
v -0.55805 -0.79766 2.46921
v -0.55114 -0.79825 2.46597
v -0.54590 -0.79328 2.46345
v -0.54539 -0.78565 2.46313
v -0.54992 -0.77983 2.46519
v -0.51552 -0.77731 2.55199
v -0.52061 -0.78227 2.55482
v -0.52104 -0.78990 2.55531
v -0.51654 -0.79572 2.55318
v -0.50977 -0.79632 2.54967
v -0.50468 -0.79135 2.54685
v -0.50425 -0.78373 2.54635
v -0.50875 -0.77791 2.54848
v -0.47299 -0.77348 2.62940
v -0.47789 -0.77843 2.63257
v -0.47821 -0.78605 2.63324
v -0.47376 -0.79187 2.63103
v -0.46715 -0.79249 2.62723
v -0.46224 -0.78754 2.62407
v -0.46192 -0.77992 2.62339
v -0.46637 -0.77410 2.62560
v -0.42933 -0.76778 2.70048
v -0.43401 -0.77270 2.70401
v -0.43421 -0.78030 2.70488
v -0.42981 -0.78613 2.70259
v -0.42339 -0.78677 2.69847
v -0.41871 -0.78185 2.69494
v -0.41851 -0.77425 2.69407
v -0.42291 -0.76842 2.69636
v -0.38466 -0.76021 2.76504
v -0.38907 -0.76508 2.76897
v -0.38911 -0.77266 2.77005
v -0.38477 -0.77850 2.76766
v -0.37859 -0.77917 2.76320
v -0.37419 -0.77430 2.75928
v -0.37414 -0.76672 2.75819
v -0.37848 -0.76088 2.76058
v -0.33909 -0.75078 2.82294
v -0.34315 -0.75560 2.82729
v -0.34302 -0.76314 2.82860
v -0.33875 -0.76898 2.82611
v -0.33286 -0.76972 2.82128
v -0.32879 -0.76491 2.81694
v -0.32893 -0.75737 2.81562
v -0.33319 -0.75152 2.81811
v -0.29272 -0.73954 2.87404
v -0.29638 -0.74425 2.87883
v -0.29601 -0.75174 2.88038
v -0.29184 -0.75761 2.87779
v -0.28631 -0.75843 2.87257
v -0.28265 -0.75371 2.86778
v -0.28301 -0.74623 2.86622
v -0.28718 -0.74036 2.86881
v -0.24567 -0.72650 2.91821
v -0.24883 -0.73108 2.92346
v -0.24820 -0.73849 2.92526
v -0.24414 -0.74439 2.92256
v -0.23903 -0.74532 2.91693
v -0.23587 -0.74074 2.91168
v -0.23651 -0.73333 2.90988
v -0.24056 -0.72743 2.91258
v -0.19806 -0.71169 2.95535
v -0.20063 -0.71610 2.96106
v -0.19967 -0.72341 2.96311
v -0.19575 -0.72935 2.96029
v -0.19116 -0.73043 2.95426
v -0.18859 -0.72603 2.94855
v -0.18955 -0.71872 2.94651
v -0.19347 -0.71278 2.94932
v -0.15000 -0.69517 2.98538
v -0.15187 -0.69934 2.99153
v -0.15053 -0.70652 2.99380
v -0.14677 -0.71251 2.99088
v -0.14279 -0.71380 2.98447
v -0.14092 -0.70963 2.97832
v -0.14227 -0.70244 2.97605
v -0.14603 -0.69645 2.97897
v -0.10162 -0.67696 3.00824
v -0.10268 -0.68083 3.01476
v -0.10090 -0.68786 3.01722
v -0.09733 -0.69391 3.01420
v -0.09405 -0.69545 3.00746
v -0.09299 -0.69158 3.00095
v -0.09476 -0.68455 2.99848
v -0.09834 -0.67850 3.00150
v -0.05301 -0.65710 3.02387
v -0.05319 -0.66063 3.03067
v -0.05093 -0.66746 3.03328
v -0.04756 -0.67360 3.03018
v -0.04506 -0.67544 3.02319
v -0.04488 -0.67192 3.01640
v -0.04714 -0.66509 3.01379
v -0.05050 -0.65895 3.01688
v -0.00419 -0.63561 3.03225
v -0.00391 -0.63894 3.03914
v -0.00140 -0.64566 3.04180
v 0.00186 -0.65185 3.03868
v 0.00396 -0.65386 3.03160
v 0.00367 -0.65054 3.02471
v 0.00117 -0.64381 3.02205
v -0.00209 -0.63763 3.02518
f 2 9 1
f 3 10 2
f 3 12 11
f 4 13 12
f 5 14 13
f 6 15 14
f 8 15 7
f 1 16 8
f 9 18 17
f 10 19 18
f 12 19 11
f 13 20 12
f 14 21 13
f 15 22 14
f 16 23 15
f 16 17 24
f 17 26 25
f 18 27 26
f 20 27 19
f 21 28 20
f 22 29 21
f 23 30 22
f 24 31 23
f 24 25 32
f 25 34 33
f 26 35 34
f 28 35 27
f 29 36 28
f 30 37 29
f 31 38 30
f 31 40 39
f 32 33 40
f 33 42 41
f 34 43 42
f 36 43 35
f 37 44 36
f 38 45 37
f 39 46 38
f 39 48 47
f 40 41 48
f 41 50 49
f 42 51 50
f 44 51 43
f 45 52 44
f 46 53 45
f 47 54 46
f 47 56 55
f 48 49 56
f 49 58 57
f 50 59 58
f 52 59 51
f 53 60 52
f 54 61 53
f 55 62 54
f 55 64 63
f 56 57 64
f 57 66 65
f 58 67 66
f 60 67 59
f 61 68 60
f 62 69 61
f 63 70 62
f 63 72 71
f 64 65 72
f 65 74 73
f 66 75 74
f 68 75 67
f 69 76 68
f 70 77 69
f 71 78 70
f 71 80 79
f 72 73 80
f 73 82 81
f 74 83 82
f 76 83 75
f 77 84 76
f 78 85 77
f 79 86 78
f 79 88 87
f 80 81 88
f 81 90 89
f 82 91 90
f 84 91 83
f 85 92 84
f 86 93 85
f 87 94 86
f 87 96 95
f 88 89 96
f 89 98 97
f 90 99 98
f 92 99 91
f 93 100 92
f 94 101 93
f 95 102 94
f 95 104 103
f 96 97 104
f 97 106 105
f 98 107 106
f 100 107 99
f 101 108 100
f 102 109 101
f 103 110 102
f 103 112 111
f 104 105 112
f 105 114 113
f 106 115 114
f 108 115 107
f 109 116 108
f 110 117 109
f 111 118 110
f 111 120 119
f 112 113 120
f 113 122 121
f 114 123 122
f 116 123 115
f 117 124 116
f 118 125 117
f 119 126 118
f 119 128 127
f 120 121 128
f 121 130 129
f 122 131 130
f 124 131 123
f 125 132 124
f 126 133 125
f 127 134 126
f 127 136 135
f 128 129 136
f 129 138 137
f 130 139 138
f 132 139 131
f 133 140 132
f 134 141 133
f 135 142 134
f 135 144 143
f 136 137 144
f 137 146 145
f 138 147 146
f 140 147 139
f 141 148 140
f 142 149 141
f 143 150 142
f 143 152 151
f 144 145 152
f 145 154 153
f 146 155 154
f 148 155 147
f 149 156 148
f 150 157 149
f 151 158 150
f 151 160 159
f 152 153 160
f 153 162 161
f 154 163 162
f 156 163 155
f 157 164 156
f 158 165 157
f 159 166 158
f 159 168 167
f 160 161 168
f 161 170 169
f 162 171 170
f 164 171 163
f 165 172 164
f 166 173 165
f 167 174 166
f 167 176 175
f 168 169 176
f 169 178 177
f 170 179 178
f 172 179 171
f 173 180 172
f 174 181 173
f 175 182 174
f 175 184 183
f 176 177 184
f 177 186 185
f 178 187 186
f 180 187 179
f 181 188 180
f 182 189 181
f 183 190 182
f 183 192 191
f 184 185 192
f 185 194 193
f 186 195 194
f 188 195 187
f 189 196 188
f 190 197 189
f 191 198 190
f 191 200 199
f 192 193 200
f 193 202 201
f 194 203 202
f 196 203 195
f 197 204 196
f 198 205 197
f 199 206 198
f 199 208 207
f 200 201 208
f 201 210 209
f 202 211 210
f 204 211 203
f 205 212 204
f 206 213 205
f 207 214 206
f 208 215 207
f 208 209 216
f 209 218 217
f 210 219 218
f 212 219 211
f 213 220 212
f 214 221 213
f 215 222 214
f 215 224 223
f 216 217 224
f 217 226 225
f 218 227 226
f 220 227 219
f 221 228 220
f 222 229 221
f 223 230 222
f 223 232 231
f 224 225 232
f 225 234 233
f 226 235 234
f 228 235 227
f 229 236 228
f 230 237 229
f 231 238 230
f 231 240 239
f 232 233 240
f 233 242 241
f 234 243 242
f 236 243 235
f 237 244 236
f 238 245 237
f 239 246 238
f 240 247 239
f 240 241 248
f 242 249 241
f 242 251 250
f 244 251 243
f 244 253 252
f 245 254 253
f 247 254 246
f 248 255 247
f 241 256 248
f 249 258 257
f 250 259 258
f 251 260 259
f 253 260 252
f 254 261 253
f 255 262 254
f 255 264 263
f 249 264 256
f 258 265 257
f 259 266 258
f 260 267 259
f 261 268 260
f 261 270 269
f 263 270 262
f 264 271 263
f 257 272 264
f 266 273 265
f 266 275 274
f 267 276 275
f 269 276 268
f 269 278 277
f 270 279 278
f 271 280 279
f 265 280 272
f 273 282 281
f 275 282 274
f 276 283 275
f 276 285 284
f 277 286 285
f 279 286 278
f 280 287 279
f 273 288 280
f 282 289 281
f 283 290 282
f 284 291 283
f 284 293 292
f 285 294 293
f 286 295 294
f 288 295 287
f 281 296 288
f 290 297 289
f 291 298 290
f 291 300 299
f 293 300 292
f 293 302 301
f 294 303 302
f 296 303 295
f 296 297 304
f 298 305 297
f 299 306 298
f 300 307 299
f 301 308 300
f 301 310 309
f 302 311 310
f 304 311 303
f 297 312 304
f 306 313 305
f 307 314 306
f 307 316 315
f 308 317 316
f 309 318 317
f 310 319 318
f 311 320 319
f 305 320 312
f 314 321 313
f 315 322 314
f 315 324 323
f 316 325 324
f 317 326 325
f 318 327 326
f 319 328 327
f 313 328 320
f 322 329 321
f 323 330 322
f 323 332 331
f 324 333 332
f 325 334 333
f 326 335 334
f 328 335 327
f 321 336 328
f 330 337 329
f 331 338 330
f 331 340 339
f 332 341 340
f 333 342 341
f 334 343 342
f 335 344 343
f 329 344 336
f 338 345 337
f 339 346 338
f 339 348 347
f 340 349 348
f 341 350 349
f 342 351 350
f 344 351 343
f 337 352 344
f 346 353 345
f 347 354 346
f 347 356 355
f 348 357 356
f 349 358 357
f 350 359 358
f 352 359 351
f 345 360 352
f 354 361 353
f 355 362 354
f 355 364 363
f 356 365 364
f 357 366 365
f 358 367 366
f 360 367 359
f 353 368 360
f 362 369 361
f 363 370 362
f 363 372 371
f 364 373 372
f 365 374 373
f 366 375 374
f 368 375 367
f 361 376 368
f 370 377 369
f 371 378 370
f 371 380 379
f 372 381 380
f 373 382 381
f 374 383 382
f 376 383 375
f 369 384 376
f 378 385 377
f 379 386 378
f 380 387 379
f 380 389 388
f 381 390 389
f 382 391 390
f 384 391 383
f 377 392 384
f 386 393 385
f 387 394 386
f 387 396 395
f 388 397 396
f 389 398 397
f 390 399 398
f 392 399 391
f 385 400 392
f 394 401 393
f 395 402 394
f 395 404 403
f 396 405 404
f 397 406 405
f 398 407 406
f 400 407 399
f 393 408 400
f 402 409 401
f 403 410 402
f 403 412 411
f 404 413 412
f 405 414 413
f 406 415 414
f 408 415 407
f 401 416 408
f 410 417 409
f 411 418 410
f 411 420 419
f 412 421 420
f 413 422 421
f 414 423 422
f 416 423 415
f 409 424 416
f 418 425 417
f 419 426 418
f 419 428 427
f 420 429 428
f 421 430 429
f 422 431 430
f 424 431 423
f 417 432 424
f 426 433 425
f 427 434 426
f 427 436 435
f 428 437 436
f 429 438 437
f 430 439 438
f 432 439 431
f 425 440 432
f 434 441 433
f 435 442 434
f 435 444 443
f 436 445 444
f 437 446 445
f 438 447 446
f 440 447 439
f 433 448 440
f 442 449 441
f 443 450 442
f 443 452 451
f 444 453 452
f 445 454 453
f 446 455 454
f 448 455 447
f 441 456 448
f 450 457 449
f 451 458 450
f 451 460 459
f 452 461 460
f 453 462 461
f 454 463 462
f 456 463 455
f 449 464 456
f 458 465 457
f 459 466 458
f 459 468 467
f 460 469 468
f 461 470 469
f 462 471 470
f 464 471 463
f 457 472 464
f 466 473 465
f 467 474 466
f 467 476 475
f 468 477 476
f 469 478 477
f 470 479 478
f 472 479 471
f 465 480 472
f 474 481 473
f 475 482 474
f 475 484 483
f 476 485 484
f 477 486 485
f 478 487 486
f 480 487 479
f 473 488 480
f 482 489 481
f 483 490 482
f 483 492 491
f 484 493 492
f 485 494 493
f 486 495 494
f 488 495 487
f 481 496 488
f 490 497 489
f 491 498 490
f 491 500 499
f 492 501 500
f 493 502 501
f 494 503 502
f 496 503 495
f 489 504 496
f 498 505 497
f 499 506 498
f 500 507 499
f 500 509 508
f 501 510 509
f 502 511 510
f 504 511 503
f 497 512 504
f 506 513 505
f 507 514 506
f 508 515 507
f 509 516 508
f 510 517 509
f 511 518 510
f 512 519 511
f 505 520 512
f 513 522 521
f 515 522 514
f 516 523 515
f 517 524 516
f 518 525 517
f 519 526 518
f 520 527 519
f 513 528 520
f 521 530 529
f 522 531 530
f 524 531 523
f 525 532 524
f 526 533 525
f 527 534 526
f 528 535 527
f 528 529 536
f 529 538 537
f 530 539 538
f 532 539 531
f 533 540 532
f 534 541 533
f 535 542 534
f 536 543 535
f 536 537 544
f 537 546 545
f 538 547 546
f 540 547 539
f 541 548 540
f 542 549 541
f 543 550 542
f 543 552 551
f 544 545 552
f 545 554 553
f 546 555 554
f 548 555 547
f 549 556 548
f 550 557 549
f 551 558 550
f 551 560 559
f 552 553 560
f 553 562 561
f 554 563 562
f 556 563 555
f 557 564 556
f 558 565 557
f 559 566 558
f 559 568 567
f 560 561 568
f 561 570 569
f 562 571 570
f 564 571 563
f 565 572 564
f 566 573 565
f 567 574 566
f 567 576 575
f 568 569 576
f 569 578 577
f 570 579 578
f 572 579 571
f 573 580 572
f 574 581 573
f 575 582 574
f 575 584 583
f 576 577 584
f 577 586 585
f 578 587 586
f 580 587 579
f 581 588 580
f 582 589 581
f 583 590 582
f 583 592 591
f 584 585 592
f 585 594 593
f 586 595 594
f 588 595 587
f 589 596 588
f 590 597 589
f 591 598 590
f 591 600 599
f 592 593 600
f 593 602 601
f 594 603 602
f 596 603 595
f 597 604 596
f 598 605 597
f 599 606 598
f 599 608 607
f 600 601 608
f 601 610 609
f 602 611 610
f 604 611 603
f 605 612 604
f 606 613 605
f 607 614 606
f 607 616 615
f 608 609 616
f 609 618 617
f 610 619 618
f 612 619 611
f 613 620 612
f 614 621 613
f 615 622 614
f 615 624 623
f 616 617 624
f 617 626 625
f 618 627 626
f 620 627 619
f 621 628 620
f 622 629 621
f 623 630 622
f 623 632 631
f 624 625 632
f 625 634 633
f 626 635 634
f 628 635 627
f 629 636 628
f 630 637 629
f 631 638 630
f 631 640 639
f 632 633 640
f 633 642 641
f 634 643 642
f 636 643 635
f 637 644 636
f 638 645 637
f 639 646 638
f 639 648 647
f 640 641 648
f 641 650 649
f 642 651 650
f 644 651 643
f 645 652 644
f 646 653 645
f 647 654 646
f 647 656 655
f 648 649 656
f 649 658 657
f 650 659 658
f 652 659 651
f 653 660 652
f 654 661 653
f 655 662 654
f 656 663 655
f 656 657 664
f 657 666 665
f 658 667 666
f 660 667 659
f 661 668 660
f 662 669 661
f 663 670 662
f 663 672 671
f 664 665 672
f 665 674 673
f 666 675 674
f 668 675 667
f 669 676 668
f 670 677 669
f 671 678 670
f 671 680 679
f 672 673 680
f 673 682 681
f 674 683 682
f 676 683 675
f 677 684 676
f 678 685 677
f 679 686 678
f 679 688 687
f 680 681 688
f 681 690 689
f 682 691 690
f 684 691 683
f 685 692 684
f 686 693 685
f 687 694 686
f 687 696 695
f 688 689 696
f 689 698 697
f 690 699 698
f 692 699 691
f 693 700 692
f 694 701 693
f 695 702 694
f 695 704 703
f 696 697 704
f 697 706 705
f 698 707 706
f 699 708 707
f 701 708 700
f 702 709 701
f 703 710 702
f 704 711 703
f 704 705 712
f 705 714 713
f 706 715 714
f 708 715 707
f 709 716 708
f 710 717 709
f 711 718 710
f 711 720 719
f 712 713 720
f 713 722 721
f 714 723 722
f 716 723 715
f 717 724 716
f 718 725 717
f 719 726 718
f 720 727 719
f 720 721 728
f 721 730 729
f 722 731 730
f 723 732 731
f 725 732 724
f 726 733 725
f 727 734 726
f 728 735 727
f 721 736 728
f 729 738 737
f 731 738 730
f 731 740 739
f 733 740 732
f 734 741 733
f 735 742 734
f 736 743 735
f 736 737 744
f 738 745 737
f 738 747 746
f 739 748 747
f 740 749 748
f 742 749 741
f 743 750 742
f 744 751 743
f 744 745 752
f 745 754 753
f 747 754 746
f 747 756 755
f 749 756 748
f 749 758 757
f 750 759 758
f 751 760 759
f 745 760 752
f 753 762 761
f 755 762 754
f 756 763 755
f 757 764 756
f 758 765 757
f 758 767 766
f 759 768 767
f 760 761 768
f 762 769 761
f 762 771 770
f 764 771 763
f 765 772 764
f 766 773 765
f 766 775 774
f 768 775 767
f 761 776 768
f 770 777 769
f 771 778 770
f 772 779 771
f 772 781 780
f 773 782 781
f 775 782 774
f 776 783 775
f 776 777 784
f 778 785 777
f 779 786 778
f 779 788 787
f 781 788 780
f 781 790 789
f 783 790 782
f 783 792 791
f 777 792 784
f 786 793 785
f 786 795 794
f 788 795 787
f 788 797 796
f 789 798 797
f 790 799 798
f 791 800 799
f 785 800 792
f 794 801 793
f 794 803 802
f 796 803 795
f 797 804 796
f 797 806 805
f 799 806 798
f 799 808 807
f 793 808 800
f 802 809 801
f 802 811 810
f 803 812 811
f 804 813 812
f 805 814 813
f 807 814 806
f 808 815 807
f 801 816 808
f 810 817 809
f 811 818 810
f 811 820 819
f 812 821 820
f 813 822 821
f 814 823 822
f 816 823 815
f 809 824 816
f 818 825 817
f 819 826 818
f 819 828 827
f 820 829 828
f 821 830 829
f 822 831 830
f 824 831 823
f 817 832 824
f 826 833 825
f 827 834 826
f 827 836 835
f 828 837 836
f 829 838 837
f 830 839 838
f 832 839 831
f 825 840 832
f 834 841 833
f 835 842 834
f 835 844 843
f 836 845 844
f 837 846 845
f 838 847 846
f 840 847 839
f 833 848 840
f 842 849 841
f 843 850 842
f 843 852 851
f 844 853 852
f 845 854 853
f 846 855 854
f 848 855 847
f 841 856 848
f 850 857 849
f 851 858 850
f 851 860 859
f 852 861 860
f 853 862 861
f 854 863 862
f 856 863 855
f 849 864 856
f 858 865 857
f 859 866 858
f 859 868 867
f 860 869 868
f 861 870 869
f 862 871 870
f 864 871 863
f 857 872 864
f 866 873 865
f 867 874 866
f 867 876 875
f 868 877 876
f 869 878 877
f 870 879 878
f 872 879 871
f 865 880 872
f 874 881 873
f 875 882 874
f 875 884 883
f 876 885 884
f 877 886 885
f 878 887 886
f 880 887 879
f 873 888 880
f 882 889 881
f 883 890 882
f 883 892 891
f 884 893 892
f 885 894 893
f 886 895 894
f 888 895 887
f 881 896 888
f 890 897 889
f 891 898 890
f 891 900 899
f 892 901 900
f 893 902 901
f 894 903 902
f 896 903 895
f 889 904 896
f 898 905 897
f 899 906 898
f 899 908 907
f 900 909 908
f 901 910 909
f 902 911 910
f 904 911 903
f 897 912 904
f 906 913 905
f 907 914 906
f 907 916 915
f 908 917 916
f 909 918 917
f 910 919 918
f 912 919 911
f 905 920 912
f 914 921 913
f 915 922 914
f 915 924 923
f 916 925 924
f 917 926 925
f 918 927 926
f 920 927 919
f 913 928 920
f 922 929 921
f 923 930 922
f 923 932 931
f 924 933 932
f 925 934 933
f 926 935 934
f 928 935 927
f 921 936 928
f 930 937 929
f 931 938 930
f 931 940 939
f 932 941 940
f 933 942 941
f 934 943 942
f 936 943 935
f 929 944 936
f 938 945 937
f 939 946 938
f 939 948 947
f 940 949 948
f 941 950 949
f 942 951 950
f 944 951 943
f 937 952 944
f 946 953 945
f 947 954 946
f 947 956 955
f 948 957 956
f 949 958 957
f 950 959 958
f 952 959 951
f 945 960 952
f 954 961 953
f 955 962 954
f 955 964 963
f 956 965 964
f 957 966 965
f 958 967 966
f 960 967 959
f 953 968 960
f 962 969 961
f 963 970 962
f 963 972 971
f 964 973 972
f 965 974 973
f 966 975 974
f 968 975 967
f 961 976 968
f 970 977 969
f 971 978 970
f 971 980 979
f 972 981 980
f 973 982 981
f 974 983 982
f 976 983 975
f 969 984 976
f 978 985 977
f 979 986 978
f 979 988 987
f 980 989 988
f 981 990 989
f 982 991 990
f 984 991 983
f 977 992 984
f 986 993 985
f 987 994 986
f 987 996 995
f 988 997 996
f 989 998 997
f 990 999 998
f 992 999 991
f 985 1000 992
f 994 1001 993
f 995 1002 994
f 995 1004 1003
f 996 1005 1004
f 997 1006 1005
f 998 1007 1006
f 1000 1007 999
f 993 1008 1000
f 1002 1009 1001
f 1003 1010 1002
f 1003 1012 1011
f 1004 1013 1012
f 1005 1014 1013
f 1006 1015 1014
f 1008 1015 1007
f 1001 1016 1008
f 1010 1017 1009
f 1011 1018 1010
f 1012 1019 1011
f 1012 1021 1020
f 1013 1022 1021
f 1014 1023 1022
f 1016 1023 1015
f 1009 1024 1016
f 1017 1026 1025
f 1018 1027 1026
f 1020 1027 1019
f 1021 1028 1020
f 1022 1029 1021
f 1023 1030 1022
f 1023 1032 1031
f 1024 1025 1032
f 2 10 9
f 3 11 10
f 3 4 12
f 4 5 13
f 5 6 14
f 6 7 15
f 8 16 15
f 1 9 16
f 9 10 18
f 10 11 19
f 12 20 19
f 13 21 20
f 14 22 21
f 15 23 22
f 16 24 23
f 16 9 17
f 17 18 26
f 18 19 27
f 20 28 27
f 21 29 28
f 22 30 29
f 23 31 30
f 24 32 31
f 24 17 25
f 25 26 34
f 26 27 35
f 28 36 35
f 29 37 36
f 30 38 37
f 31 39 38
f 31 32 40
f 32 25 33
f 33 34 42
f 34 35 43
f 36 44 43
f 37 45 44
f 38 46 45
f 39 47 46
f 39 40 48
f 40 33 41
f 41 42 50
f 42 43 51
f 44 52 51
f 45 53 52
f 46 54 53
f 47 55 54
f 47 48 56
f 48 41 49
f 49 50 58
f 50 51 59
f 52 60 59
f 53 61 60
f 54 62 61
f 55 63 62
f 55 56 64
f 56 49 57
f 57 58 66
f 58 59 67
f 60 68 67
f 61 69 68
f 62 70 69
f 63 71 70
f 63 64 72
f 64 57 65
f 65 66 74
f 66 67 75
f 68 76 75
f 69 77 76
f 70 78 77
f 71 79 78
f 71 72 80
f 72 65 73
f 73 74 82
f 74 75 83
f 76 84 83
f 77 85 84
f 78 86 85
f 79 87 86
f 79 80 88
f 80 73 81
f 81 82 90
f 82 83 91
f 84 92 91
f 85 93 92
f 86 94 93
f 87 95 94
f 87 88 96
f 88 81 89
f 89 90 98
f 90 91 99
f 92 100 99
f 93 101 100
f 94 102 101
f 95 103 102
f 95 96 104
f 96 89 97
f 97 98 106
f 98 99 107
f 100 108 107
f 101 109 108
f 102 110 109
f 103 111 110
f 103 104 112
f 104 97 105
f 105 106 114
f 106 107 115
f 108 116 115
f 109 117 116
f 110 118 117
f 111 119 118
f 111 112 120
f 112 105 113
f 113 114 122
f 114 115 123
f 116 124 123
f 117 125 124
f 118 126 125
f 119 127 126
f 119 120 128
f 120 113 121
f 121 122 130
f 122 123 131
f 124 132 131
f 125 133 132
f 126 134 133
f 127 135 134
f 127 128 136
f 128 121 129
f 129 130 138
f 130 131 139
f 132 140 139
f 133 141 140
f 134 142 141
f 135 143 142
f 135 136 144
f 136 129 137
f 137 138 146
f 138 139 147
f 140 148 147
f 141 149 148
f 142 150 149
f 143 151 150
f 143 144 152
f 144 137 145
f 145 146 154
f 146 147 155
f 148 156 155
f 149 157 156
f 150 158 157
f 151 159 158
f 151 152 160
f 152 145 153
f 153 154 162
f 154 155 163
f 156 164 163
f 157 165 164
f 158 166 165
f 159 167 166
f 159 160 168
f 160 153 161
f 161 162 170
f 162 163 171
f 164 172 171
f 165 173 172
f 166 174 173
f 167 175 174
f 167 168 176
f 168 161 169
f 169 170 178
f 170 171 179
f 172 180 179
f 173 181 180
f 174 182 181
f 175 183 182
f 175 176 184
f 176 169 177
f 177 178 186
f 178 179 187
f 180 188 187
f 181 189 188
f 182 190 189
f 183 191 190
f 183 184 192
f 184 177 185
f 185 186 194
f 186 187 195
f 188 196 195
f 189 197 196
f 190 198 197
f 191 199 198
f 191 192 200
f 192 185 193
f 193 194 202
f 194 195 203
f 196 204 203
f 197 205 204
f 198 206 205
f 199 207 206
f 199 200 208
f 200 193 201
f 201 202 210
f 202 203 211
f 204 212 211
f 205 213 212
f 206 214 213
f 207 215 214
f 208 216 215
f 208 201 209
f 209 210 218
f 210 211 219
f 212 220 219
f 213 221 220
f 214 222 221
f 215 223 222
f 215 216 224
f 216 209 217
f 217 218 226
f 218 219 227
f 220 228 227
f 221 229 228
f 222 230 229
f 223 231 230
f 223 224 232
f 224 217 225
f 225 226 234
f 226 227 235
f 228 236 235
f 229 237 236
f 230 238 237
f 231 239 238
f 231 232 240
f 232 225 233
f 233 234 242
f 234 235 243
f 236 244 243
f 237 245 244
f 238 246 245
f 239 247 246
f 240 248 247
f 240 233 241
f 242 250 249
f 242 243 251
f 244 252 251
f 244 245 253
f 245 246 254
f 247 255 254
f 248 256 255
f 241 249 256
f 249 250 258
f 250 251 259
f 251 252 260
f 253 261 260
f 254 262 261
f 255 263 262
f 255 256 264
f 249 257 264
f 258 266 265
f 259 267 266
f 260 268 267
f 261 269 268
f 261 262 270
f 263 271 270
f 264 272 271
f 257 265 272
f 266 274 273
f 266 267 275
f 267 268 276
f 269 277 276
f 269 270 278
f 270 271 279
f 271 272 280
f 265 273 280
f 273 274 282
f 275 283 282
f 276 284 283
f 276 277 285
f 277 278 286
f 279 287 286
f 280 288 287
f 273 281 288
f 282 290 289
f 283 291 290
f 284 292 291
f 284 285 293
f 285 286 294
f 286 287 295
f 288 296 295
f 281 289 296
f 290 298 297
f 291 299 298
f 291 292 300
f 293 301 300
f 293 294 302
f 294 295 303
f 296 304 303
f 296 289 297
f 298 306 305
f 299 307 306
f 300 308 307
f 301 309 308
f 301 302 310
f 302 303 311
f 304 312 311
f 297 305 312
f 306 314 313
f 307 315 314
f 307 308 316
f 308 309 317
f 309 310 318
f 310 311 319
f 311 312 320
f 305 313 320
f 314 322 321
f 315 323 322
f 315 316 324
f 316 317 325
f 317 318 326
f 318 319 327
f 319 320 328
f 313 321 328
f 322 330 329
f 323 331 330
f 323 324 332
f 324 325 333
f 325 326 334
f 326 327 335
f 328 336 335
f 321 329 336
f 330 338 337
f 331 339 338
f 331 332 340
f 332 333 341
f 333 334 342
f 334 335 343
f 335 336 344
f 329 337 344
f 338 346 345
f 339 347 346
f 339 340 348
f 340 341 349
f 341 342 350
f 342 343 351
f 344 352 351
f 337 345 352
f 346 354 353
f 347 355 354
f 347 348 356
f 348 349 357
f 349 350 358
f 350 351 359
f 352 360 359
f 345 353 360
f 354 362 361
f 355 363 362
f 355 356 364
f 356 357 365
f 357 358 366
f 358 359 367
f 360 368 367
f 353 361 368
f 362 370 369
f 363 371 370
f 363 364 372
f 364 365 373
f 365 366 374
f 366 367 375
f 368 376 375
f 361 369 376
f 370 378 377
f 371 379 378
f 371 372 380
f 372 373 381
f 373 374 382
f 374 375 383
f 376 384 383
f 369 377 384
f 378 386 385
f 379 387 386
f 380 388 387
f 380 381 389
f 381 382 390
f 382 383 391
f 384 392 391
f 377 385 392
f 386 394 393
f 387 395 394
f 387 388 396
f 388 389 397
f 389 390 398
f 390 391 399
f 392 400 399
f 385 393 400
f 394 402 401
f 395 403 402
f 395 396 404
f 396 397 405
f 397 398 406
f 398 399 407
f 400 408 407
f 393 401 408
f 402 410 409
f 403 411 410
f 403 404 412
f 404 405 413
f 405 406 414
f 406 407 415
f 408 416 415
f 401 409 416
f 410 418 417
f 411 419 418
f 411 412 420
f 412 413 421
f 413 414 422
f 414 415 423
f 416 424 423
f 409 417 424
f 418 426 425
f 419 427 426
f 419 420 428
f 420 421 429
f 421 422 430
f 422 423 431
f 424 432 431
f 417 425 432
f 426 434 433
f 427 435 434
f 427 428 436
f 428 429 437
f 429 430 438
f 430 431 439
f 432 440 439
f 425 433 440
f 434 442 441
f 435 443 442
f 435 436 444
f 436 437 445
f 437 438 446
f 438 439 447
f 440 448 447
f 433 441 448
f 442 450 449
f 443 451 450
f 443 444 452
f 444 445 453
f 445 446 454
f 446 447 455
f 448 456 455
f 441 449 456
f 450 458 457
f 451 459 458
f 451 452 460
f 452 453 461
f 453 454 462
f 454 455 463
f 456 464 463
f 449 457 464
f 458 466 465
f 459 467 466
f 459 460 468
f 460 461 469
f 461 462 470
f 462 463 471
f 464 472 471
f 457 465 472
f 466 474 473
f 467 475 474
f 467 468 476
f 468 469 477
f 469 470 478
f 470 471 479
f 472 480 479
f 465 473 480
f 474 482 481
f 475 483 482
f 475 476 484
f 476 477 485
f 477 478 486
f 478 479 487
f 480 488 487
f 473 481 488
f 482 490 489
f 483 491 490
f 483 484 492
f 484 485 493
f 485 486 494
f 486 487 495
f 488 496 495
f 481 489 496
f 490 498 497
f 491 499 498
f 491 492 500
f 492 493 501
f 493 494 502
f 494 495 503
f 496 504 503
f 489 497 504
f 498 506 505
f 499 507 506
f 500 508 507
f 500 501 509
f 501 502 510
f 502 503 511
f 504 512 511
f 497 505 512
f 506 514 513
f 507 515 514
f 508 516 515
f 509 517 516
f 510 518 517
f 511 519 518
f 512 520 519
f 505 513 520
f 513 514 522
f 515 523 522
f 516 524 523
f 517 525 524
f 518 526 525
f 519 527 526
f 520 528 527
f 513 521 528
f 521 522 530
f 522 523 531
f 524 532 531
f 525 533 532
f 526 534 533
f 527 535 534
f 528 536 535
f 528 521 529
f 529 530 538
f 530 531 539
f 532 540 539
f 533 541 540
f 534 542 541
f 535 543 542
f 536 544 543
f 536 529 537
f 537 538 546
f 538 539 547
f 540 548 547
f 541 549 548
f 542 550 549
f 543 551 550
f 543 544 552
f 544 537 545
f 545 546 554
f 546 547 555
f 548 556 555
f 549 557 556
f 550 558 557
f 551 559 558
f 551 552 560
f 552 545 553
f 553 554 562
f 554 555 563
f 556 564 563
f 557 565 564
f 558 566 565
f 559 567 566
f 559 560 568
f 560 553 561
f 561 562 570
f 562 563 571
f 564 572 571
f 565 573 572
f 566 574 573
f 567 575 574
f 567 568 576
f 568 561 569
f 569 570 578
f 570 571 579
f 572 580 579
f 573 581 580
f 574 582 581
f 575 583 582
f 575 576 584
f 576 569 577
f 577 578 586
f 578 579 587
f 580 588 587
f 581 589 588
f 582 590 589
f 583 591 590
f 583 584 592
f 584 577 585
f 585 586 594
f 586 587 595
f 588 596 595
f 589 597 596
f 590 598 597
f 591 599 598
f 591 592 600
f 592 585 593
f 593 594 602
f 594 595 603
f 596 604 603
f 597 605 604
f 598 606 605
f 599 607 606
f 599 600 608
f 600 593 601
f 601 602 610
f 602 603 611
f 604 612 611
f 605 613 612
f 606 614 613
f 607 615 614
f 607 608 616
f 608 601 609
f 609 610 618
f 610 611 619
f 612 620 619
f 613 621 620
f 614 622 621
f 615 623 622
f 615 616 624
f 616 609 617
f 617 618 626
f 618 619 627
f 620 628 627
f 621 629 628
f 622 630 629
f 623 631 630
f 623 624 632
f 624 617 625
f 625 626 634
f 626 627 635
f 628 636 635
f 629 637 636
f 630 638 637
f 631 639 638
f 631 632 640
f 632 625 633
f 633 634 642
f 634 635 643
f 636 644 643
f 637 645 644
f 638 646 645
f 639 647 646
f 639 640 648
f 640 633 641
f 641 642 650
f 642 643 651
f 644 652 651
f 645 653 652
f 646 654 653
f 647 655 654
f 647 648 656
f 648 641 649
f 649 650 658
f 650 651 659
f 652 660 659
f 653 661 660
f 654 662 661
f 655 663 662
f 656 664 663
f 656 649 657
f 657 658 666
f 658 659 667
f 660 668 667
f 661 669 668
f 662 670 669
f 663 671 670
f 663 664 672
f 664 657 665
f 665 666 674
f 666 667 675
f 668 676 675
f 669 677 676
f 670 678 677
f 671 679 678
f 671 672 680
f 672 665 673
f 673 674 682
f 674 675 683
f 676 684 683
f 677 685 684
f 678 686 685
f 679 687 686
f 679 680 688
f 680 673 681
f 681 682 690
f 682 683 691
f 684 692 691
f 685 693 692
f 686 694 693
f 687 695 694
f 687 688 696
f 688 681 689
f 689 690 698
f 690 691 699
f 692 700 699
f 693 701 700
f 694 702 701
f 695 703 702
f 695 696 704
f 696 689 697
f 697 698 706
f 698 699 707
f 699 700 708
f 701 709 708
f 702 710 709
f 703 711 710
f 704 712 711
f 704 697 705
f 705 706 714
f 706 707 715
f 708 716 715
f 709 717 716
f 710 718 717
f 711 719 718
f 711 712 720
f 712 705 713
f 713 714 722
f 714 715 723
f 716 724 723
f 717 725 724
f 718 726 725
f 719 727 726
f 720 728 727
f 720 713 721
f 721 722 730
f 722 723 731
f 723 724 732
f 725 733 732
f 726 734 733
f 727 735 734
f 728 736 735
f 721 729 736
f 729 730 738
f 731 739 738
f 731 732 740
f 733 741 740
f 734 742 741
f 735 743 742
f 736 744 743
f 736 729 737
f 738 746 745
f 738 739 747
f 739 740 748
f 740 741 749
f 742 750 749
f 743 751 750
f 744 752 751
f 744 737 745
f 745 746 754
f 747 755 754
f 747 748 756
f 749 757 756
f 749 750 758
f 750 751 759
f 751 752 760
f 745 753 760
f 753 754 762
f 755 763 762
f 756 764 763
f 757 765 764
f 758 766 765
f 758 759 767
f 759 760 768
f 760 753 761
f 762 770 769
f 762 763 771
f 764 772 771
f 765 773 772
f 766 774 773
f 766 767 775
f 768 776 775
f 761 769 776
f 770 778 777
f 771 779 778
f 772 780 779
f 772 773 781
f 773 774 782
f 775 783 782
f 776 784 783
f 776 769 777
f 778 786 785
f 779 787 786
f 779 780 788
f 781 789 788
f 781 782 790
f 783 791 790
f 783 784 792
f 777 785 792
f 786 794 793
f 786 787 795
f 788 796 795
f 788 789 797
f 789 790 798
f 790 791 799
f 791 792 800
f 785 793 800
f 794 802 801
f 794 795 803
f 796 804 803
f 797 805 804
f 797 798 806
f 799 807 806
f 799 800 808
f 793 801 808
f 802 810 809
f 802 803 811
f 803 804 812
f 804 805 813
f 805 806 814
f 807 815 814
f 808 816 815
f 801 809 816
f 810 818 817
f 811 819 818
f 811 812 820
f 812 813 821
f 813 814 822
f 814 815 823
f 816 824 823
f 809 817 824
f 818 826 825
f 819 827 826
f 819 820 828
f 820 821 829
f 821 822 830
f 822 823 831
f 824 832 831
f 817 825 832
f 826 834 833
f 827 835 834
f 827 828 836
f 828 829 837
f 829 830 838
f 830 831 839
f 832 840 839
f 825 833 840
f 834 842 841
f 835 843 842
f 835 836 844
f 836 837 845
f 837 838 846
f 838 839 847
f 840 848 847
f 833 841 848
f 842 850 849
f 843 851 850
f 843 844 852
f 844 845 853
f 845 846 854
f 846 847 855
f 848 856 855
f 841 849 856
f 850 858 857
f 851 859 858
f 851 852 860
f 852 853 861
f 853 854 862
f 854 855 863
f 856 864 863
f 849 857 864
f 858 866 865
f 859 867 866
f 859 860 868
f 860 861 869
f 861 862 870
f 862 863 871
f 864 872 871
f 857 865 872
f 866 874 873
f 867 875 874
f 867 868 876
f 868 869 877
f 869 870 878
f 870 871 879
f 872 880 879
f 865 873 880
f 874 882 881
f 875 883 882
f 875 876 884
f 876 877 885
f 877 878 886
f 878 879 887
f 880 888 887
f 873 881 888
f 882 890 889
f 883 891 890
f 883 884 892
f 884 885 893
f 885 886 894
f 886 887 895
f 888 896 895
f 881 889 896
f 890 898 897
f 891 899 898
f 891 892 900
f 892 893 901
f 893 894 902
f 894 895 903
f 896 904 903
f 889 897 904
f 898 906 905
f 899 907 906
f 899 900 908
f 900 901 909
f 901 902 910
f 902 903 911
f 904 912 911
f 897 905 912
f 906 914 913
f 907 915 914
f 907 908 916
f 908 909 917
f 909 910 918
f 910 911 919
f 912 920 919
f 905 913 920
f 914 922 921
f 915 923 922
f 915 916 924
f 916 917 925
f 917 918 926
f 918 919 927
f 920 928 927
f 913 921 928
f 922 930 929
f 923 931 930
f 923 924 932
f 924 925 933
f 925 926 934
f 926 927 935
f 928 936 935
f 921 929 936
f 930 938 937
f 931 939 938
f 931 932 940
f 932 933 941
f 933 934 942
f 934 935 943
f 936 944 943
f 929 937 944
f 938 946 945
f 939 947 946
f 939 940 948
f 940 941 949
f 941 942 950
f 942 943 951
f 944 952 951
f 937 945 952
f 946 954 953
f 947 955 954
f 947 948 956
f 948 949 957
f 949 950 958
f 950 951 959
f 952 960 959
f 945 953 960
f 954 962 961
f 955 963 962
f 955 956 964
f 956 957 965
f 957 958 966
f 958 959 967
f 960 968 967
f 953 961 968
f 962 970 969
f 963 971 970
f 963 964 972
f 964 965 973
f 965 966 974
f 966 967 975
f 968 976 975
f 961 969 976
f 970 978 977
f 971 979 978
f 971 972 980
f 972 973 981
f 973 974 982
f 974 975 983
f 976 984 983
f 969 977 984
f 978 986 985
f 979 987 986
f 979 980 988
f 980 981 989
f 981 982 990
f 982 983 991
f 984 992 991
f 977 985 992
f 986 994 993
f 987 995 994
f 987 988 996
f 988 989 997
f 989 990 998
f 990 991 999
f 992 1000 999
f 985 993 1000
f 994 1002 1001
f 995 1003 1002
f 995 996 1004
f 996 997 1005
f 997 998 1006
f 998 999 1007
f 1000 1008 1007
f 993 1001 1008
f 1002 1010 1009
f 1003 1011 1010
f 1003 1004 1012
f 1004 1005 1013
f 1005 1006 1014
f 1006 1007 1015
f 1008 1016 1015
f 1001 1009 1016
f 1010 1018 1017
f 1011 1019 1018
f 1012 1020 1019
f 1012 1013 1021
f 1013 1014 1022
f 1014 1015 1023
f 1016 1024 1023
f 1009 1017 1024
f 1017 1018 1026
f 1018 1019 1027
f 1020 1028 1027
f 1021 1029 1028
f 1022 1030 1029
f 1023 1031 1030
f 1023 1024 1032
f 1024 1017 1025
