# eclipse GreatOrbit1_OrbitLine.obj: Roblox cue frame, recentred on its bounding box
v 0.00857 0.97933 3.36659
v 0.00912 0.97512 3.35429
v 0.00422 0.96495 3.34782
v -0.00326 0.95477 3.35098
v -0.00893 0.95056 3.36190
v -0.00947 0.95477 3.37420
v -0.00457 0.96495 3.38067
v 0.00290 0.97512 3.37751
v -0.04601 1.01490 3.35195
v -0.04480 1.01025 3.33986
v -0.04924 0.99978 3.33355
v -0.05672 0.98961 3.33670
v -0.06287 0.98572 3.34749
v -0.06408 0.99037 3.35958
v -0.05964 1.00084 3.36590
v -0.05216 1.01100 3.36274
v -0.10074 1.04822 3.32906
v -0.09826 1.04276 3.31752
v -0.10182 1.03173 3.31160
v -0.10933 1.02160 3.31478
v -0.11640 1.01830 3.32519
v -0.11888 1.02376 3.33674
v -0.11532 1.03478 3.34265
v -0.10781 1.04492 3.33947
v -0.15515 1.07900 3.29810
v -0.15150 1.07284 3.28723
v -0.15426 1.06134 3.28180
v -0.16181 1.05124 3.28499
v -0.16973 1.04844 3.29493
v -0.17338 1.05460 3.30580
v -0.17062 1.06610 3.31122
v -0.16307 1.07621 3.30803
v -0.20911 1.10715 3.25916
v -0.20442 1.10042 3.24906
v -0.20646 1.08854 3.24418
v -0.21404 1.07846 3.24737
v -0.22273 1.07609 3.25677
v -0.22742 1.08282 3.26686
v -0.22538 1.09471 3.27174
v -0.21780 1.10479 3.26855
v -0.26249 1.13263 3.21235
v -0.25688 1.12544 3.20307
v -0.25831 1.11325 3.19875
v -0.26592 1.10319 3.20194
v -0.27527 1.10116 3.21076
v -0.28087 1.10835 3.22005
v -0.27945 1.12054 3.22436
v -0.27183 1.13060 3.22118
v -0.31515 1.15536 3.15782
v -0.30877 1.14782 3.14935
v -0.30967 1.13539 3.14560
v -0.31732 1.12536 3.14878
v -0.32723 1.12359 3.15702
v -0.33361 1.13113 3.16549
v -0.33271 1.14356 3.16924
v -0.32506 1.15359 3.16606
v -0.36698 1.17531 3.09569
v -0.35996 1.16751 3.08801
v -0.36041 1.15490 3.08482
v -0.36808 1.14488 3.08798
v -0.37848 1.14331 3.09565
v -0.38550 1.15112 3.10333
v -0.38505 1.16372 3.10653
v -0.37738 1.17374 3.10336
v -0.41787 1.19244 3.02613
v -0.41030 1.18444 3.01920
v -0.41038 1.17170 3.01653
v -0.41808 1.16169 3.01968
v -0.42887 1.16027 3.02680
v -0.43644 1.16827 3.03373
v -0.43636 1.18101 3.03640
v -0.42866 1.19102 3.03325
v -0.46769 1.20670 2.94930
v -0.45967 1.19857 2.94308
v -0.45945 1.18574 2.94090
v -0.46716 1.17574 2.94403
v -0.47829 1.17443 2.95064
v -0.48632 1.18257 2.95686
v -0.48654 1.19539 2.95904
v -0.47882 1.20539 2.95591
v -0.51634 1.21809 2.86539
v -0.50794 1.20985 2.85983
v -0.50746 1.19696 2.85810
v -0.51520 1.18697 2.86122
v -0.52661 1.18573 2.86735
v -0.53501 1.19397 2.87290
v -0.53548 1.20685 2.87463
v -0.52775 1.21684 2.87152
v -0.56371 1.22656 2.77459
v -0.55499 1.21826 2.76965
v -0.55430 1.20534 2.76834
v -0.56205 1.19535 2.77144
v -0.57369 1.19415 2.77713
v -0.58241 1.20245 2.78207
v -0.58310 1.21538 2.78337
v -0.57535 1.22536 2.78028
v -0.60969 1.23210 2.67713
v -0.60070 1.22377 2.67276
v -0.59983 1.21082 2.67184
v -0.60759 1.20084 2.67492
v -0.61943 1.19967 2.68019
v -0.62841 1.20801 2.68457
v -0.62928 1.22096 2.68548
v -0.62153 1.23094 2.68240
v -0.65416 1.23471 2.57324
v -0.64496 1.22636 2.56939
v -0.64394 1.21340 2.56883
v -0.65170 1.20343 2.57190
v -0.66371 1.20227 2.57679
v -0.67292 1.21062 2.58064
v -0.67393 1.22358 2.58119
v -0.66617 1.23356 2.57812
v -0.69704 1.23438 2.46316
v -0.68764 1.22603 2.45980
v -0.68650 1.21307 2.45958
v -0.69427 1.20309 2.46263
v -0.70641 1.20194 2.46716
v -0.71581 1.21030 2.47052
v -0.71695 1.22325 2.47074
v -0.70918 1.23323 2.46769
v -0.73821 1.23111 2.34715
v -0.72865 1.22277 2.34425
v -0.72740 1.20982 2.34434
v -0.73518 1.19984 2.34737
v -0.74744 1.19869 2.35158
v -0.75700 1.20703 2.35448
v -0.75825 1.21998 2.35439
v -0.75047 1.22995 2.35135
v -0.77758 1.22491 2.22550
v -0.76789 1.21659 2.22302
v -0.76654 1.20365 2.22340
v -0.77433 1.19368 2.22643
v -0.78669 1.19251 2.23032
v -0.79638 1.20083 2.23280
v -0.79773 1.21376 2.23242
v -0.78994 1.22374 2.22940
v -0.81506 1.21579 2.09850
v -0.80525 1.20750 2.09641
v -0.80383 1.19458 2.09707
v -0.81162 1.18461 2.10008
v -0.82407 1.18342 2.10368
v -0.83388 1.19171 2.10577
v -0.83530 1.20463 2.10511
v -0.82750 1.21460 2.10210
v -0.85055 1.20378 1.96645
v -0.84065 1.19552 1.96473
v -0.83916 1.18263 1.96564
v -0.84696 1.17265 1.96864
v -0.85948 1.17144 1.97197
v -0.86938 1.17970 1.97368
v -0.87087 1.19260 1.97277
v -0.86307 1.20257 1.96978
v -0.88398 1.18891 1.82966
v -0.87399 1.18069 1.82829
v -0.87245 1.16782 1.82944
v -0.88025 1.15784 1.83243
v -0.89284 1.15661 1.83550
v -0.90283 1.16483 1.83686
v -0.90437 1.17770 1.83572
v -0.89657 1.18767 1.83273
v -0.91527 1.17121 1.68846
v -0.90521 1.16303 1.68743
v -0.90361 1.15019 1.68881
v -0.91142 1.14022 1.69178
v -0.92406 1.13895 1.69461
v -0.93412 1.14713 1.69564
v -0.93571 1.15997 1.69427
v -0.92791 1.16995 1.69129
v -0.94434 1.15073 1.54320
v -0.93421 1.14259 1.54248
v -0.93257 1.12978 1.54408
v -0.94039 1.11981 1.54704
v -0.95307 1.11851 1.54964
v -0.96319 1.12665 1.55035
v -0.96483 1.13946 1.54876
v -0.95702 1.14944 1.54580
v -0.97111 1.12752 1.39421
v -0.96093 1.11942 1.39380
v -0.95926 1.10665 1.39560
v -0.96708 1.09667 1.39855
v -0.97980 1.09534 1.40093
v -0.98998 1.10344 1.40134
v -0.99165 1.11621 1.39955
v -0.98384 1.12619 1.39659
v -0.99554 1.10163 1.24187
v -0.98531 1.09358 1.24175
v -0.98361 1.08084 1.24374
v -0.99143 1.07086 1.24669
v -1.00418 1.06949 1.24885
v -1.01441 1.07754 1.24897
v -1.01611 1.09028 1.24698
v -1.00829 1.10026 1.24404
v -1.01755 1.07312 1.08653
v -1.00729 1.06512 1.08669
v -1.00556 1.05241 1.08887
v -1.01338 1.04244 1.09181
v -1.02616 1.04103 1.09377
v -1.03642 1.04903 1.09361
v -1.03815 1.06174 1.09142
v -1.03033 1.07172 1.08849
v -1.03710 1.04206 0.92857
v -1.02680 1.03412 0.92899
v -1.02505 1.02145 0.93137
v -1.03287 1.01147 0.93429
v -1.04568 1.01003 0.93606
v -1.05598 1.01797 0.93563
v -1.05773 1.03065 0.93326
v -1.04991 1.04062 0.93033
v -1.05414 1.00854 0.76836
v -1.04381 1.00065 0.76905
v -1.04204 0.98801 0.77160
v -1.04987 0.97803 0.77452
v -1.06270 0.97655 0.77609
v -1.07302 0.98444 0.77540
v -1.07479 0.99708 0.77285
v -1.06697 1.00706 0.76993
v -1.06862 0.97262 0.60630
v -1.05828 0.96478 0.60724
v -1.05649 0.95219 0.60997
v -1.06432 0.94221 0.61287
v -1.07716 0.94069 0.61426
v -1.08751 0.94852 0.61332
v -1.08929 0.96112 0.61059
v -1.08147 0.97110 0.60768
v -1.08052 0.93439 0.44277
v -1.07016 0.92662 0.44396
v -1.06836 0.91406 0.44686
v -1.07619 0.90408 0.44975
v -1.08905 0.90252 0.45096
v -1.09941 0.91029 0.44976
v -1.10121 0.92285 0.44687
v -1.09338 0.93283 0.44397
v -1.08981 0.89396 0.27816
v -1.07943 0.88624 0.27960
v -1.07763 0.87372 0.28266
v -1.08545 0.86374 0.28555
v -1.09832 0.86214 0.28658
v -1.10870 0.86985 0.28514
v -1.11050 0.88237 0.28208
v -1.10268 0.89235 0.27919
v -1.09645 0.85141 0.11288
v -1.08607 0.84375 0.11456
v -1.08426 0.83128 0.11778
v -1.09209 0.82129 0.12066
v -1.10496 0.81964 0.12151
v -1.11535 0.82730 0.11983
v -1.11716 0.83977 0.11661
v -1.10933 0.84976 0.11372
v -1.10045 0.80684 -0.05269
v -1.09006 0.79925 -0.05077
v -1.08824 0.78682 -0.04738
v -1.09607 0.77683 -0.04451
v -1.10896 0.77514 -0.04383
v -1.11935 0.78273 -0.04575
v -1.12116 0.79516 -0.04914
v -1.11333 0.80515 -0.05202
v -1.10178 0.76037 -0.21814
v -1.09139 0.75284 -0.21598
v -1.08957 0.74046 -0.21243
v -1.09740 0.73047 -0.20957
v -1.11029 0.72873 -0.20907
v -1.12068 0.73625 -0.21122
v -1.12249 0.74864 -0.21478
v -1.11466 0.75863 -0.21764
v -1.10045 0.71210 -0.38308
v -1.09006 0.70465 -0.38068
v -1.08824 0.69231 -0.37697
v -1.09607 0.68232 -0.37411
v -1.10896 0.68052 -0.37379
v -1.11935 0.68798 -0.37618
v -1.12116 0.70032 -0.37989
v -1.11333 0.71031 -0.38275
v -1.09645 0.66216 -0.54710
v -1.08607 0.65478 -0.54447
v -1.08426 0.64249 -0.54059
v -1.09209 0.63249 -0.53775
v -1.10497 0.63065 -0.53759
v -1.11535 0.63803 -0.54022
v -1.11716 0.65032 -0.54410
v -1.10933 0.66032 -0.54695
v -1.08980 0.61066 -0.70982
v -1.07943 0.60335 -0.70695
v -1.07763 0.59111 -0.70291
v -1.08546 0.58111 -0.70007
v -1.09833 0.57921 -0.70009
v -1.10870 0.58653 -0.70296
v -1.11050 0.59876 -0.70700
v -1.10267 0.60876 -0.70984
v -1.08051 0.55772 -0.87084
v -1.07015 0.55049 -0.86773
v -1.06836 0.53831 -0.86353
v -1.07619 0.52831 -0.86070
v -1.08906 0.52635 -0.86090
v -1.09942 0.53358 -0.86401
v -1.10120 0.54577 -0.86820
v -1.09337 0.55577 -0.87104
v -1.06861 0.50348 -1.02978
v -1.05827 0.49633 -1.02642
v -1.05650 0.48420 -1.02206
v -1.06433 0.47420 -1.01924
v -1.07717 0.47218 -1.01961
v -1.08751 0.47933 -1.02296
v -1.08929 0.49146 -1.02733
v -1.08146 0.50146 -1.03015
v -1.05412 0.44806 -1.18625
v -1.04381 0.44099 -1.18265
v -1.04205 0.42893 -1.17812
v -1.04988 0.41892 -1.17530
v -1.06271 0.41684 -1.17586
v -1.07303 0.42391 -1.17945
v -1.07479 0.43598 -1.18399
v -1.06696 0.44598 -1.18680
v -1.03708 0.39159 -1.33987
v -1.02679 0.38462 -1.33603
v -1.02505 0.37262 -1.33132
v -1.03288 0.36261 -1.32852
v -1.04570 0.36046 -1.32926
v -1.05599 0.36744 -1.33310
v -1.05772 0.37944 -1.33781
v -1.04989 0.38945 -1.34061
v -1.01753 0.33422 -1.49029
v -1.00728 0.32735 -1.48618
v -1.00556 0.31541 -1.48130
v -1.01339 0.30540 -1.47851
v -1.02618 0.30318 -1.47944
v -1.03643 0.31006 -1.48354
v -1.03815 0.32200 -1.48842
v -1.03032 0.33201 -1.49122
v -0.99552 0.27608 -1.63713
v -0.98530 0.26931 -1.63276
v -0.98361 0.25744 -1.62770
v -0.99144 0.24743 -1.62492
v -1.00420 0.24514 -1.62604
v -1.01442 0.25191 -1.63041
v -1.01610 0.26378 -1.63547
v -1.00828 0.27379 -1.63825
v -0.97109 0.21731 -1.78005
v -0.96092 0.21065 -1.77541
v -0.95927 0.19885 -1.77016
v -0.96710 0.18884 -1.76739
v -0.97982 0.18647 -1.76871
v -0.98999 0.19313 -1.77335
v -0.99164 0.20492 -1.77859
v -0.98382 0.21494 -1.78137
v -0.94431 0.15805 -1.91869
v -0.93420 0.15150 -1.91377
v -0.93258 0.13979 -1.90833
v -0.94041 0.12977 -1.90557
v -0.95309 0.12731 -1.90709
v -0.96321 0.13386 -1.91202
v -0.96482 0.14557 -1.91745
v -0.95700 0.15559 -1.92022
v -0.91524 0.09844 -2.05273
v -0.90519 0.09202 -2.04752
v -0.90362 0.08040 -2.04188
v -0.91145 0.07038 -2.03913
v -0.92409 0.06782 -2.04087
v -0.93413 0.07424 -2.04609
v -0.93571 0.08586 -2.05172
v -0.92788 0.09588 -2.05447
v -0.88395 0.03862 -2.18185
v -0.87398 0.03235 -2.17633
v -0.87246 0.02082 -2.17049
v -0.88028 0.01079 -2.16775
v -0.89287 0.00814 -2.16971
v -0.90284 0.01441 -2.17523
v -0.90436 0.02594 -2.18107
v -0.89654 0.03597 -2.18381
v -0.85052 -0.02126 -2.30573
v -0.84063 -0.02738 -2.29990
v -0.83917 -0.03880 -2.29384
v -0.84699 -0.04883 -2.29111
v -0.85951 -0.05160 -2.29330
v -0.86940 -0.04548 -2.29914
v -0.87086 -0.03405 -2.30520
v -0.86304 -0.02402 -2.30793
v -0.81502 -0.08105 -2.42408
v -0.80523 -0.08700 -2.41791
v -0.80384 -0.09831 -2.41163
v -0.81166 -0.10835 -2.40891
v -0.82411 -0.11124 -2.41135
v -0.83390 -0.10528 -2.41752
v -0.83529 -0.09398 -2.42381
v -0.82747 -0.08394 -2.42653
v -0.77753 -0.14062 -2.53662
v -0.76787 -0.14639 -2.53009
v -0.76656 -0.15757 -2.52357
v -0.77437 -0.16762 -2.52087
v -0.78674 -0.17064 -2.52357
v -0.79641 -0.16487 -2.53009
v -0.79771 -0.15369 -2.53661
v -0.78990 -0.14364 -2.53932
v -0.73816 -0.19983 -2.64306
v -0.72863 -0.20539 -2.63617
v -0.72742 -0.21643 -2.62940
v -0.73523 -0.22648 -2.62671
v -0.74749 -0.22965 -2.62968
v -0.75702 -0.22409 -2.63657
v -0.75824 -0.21305 -2.64335
v -0.75042 -0.20300 -2.64604
v -0.69698 -0.25852 -2.74317
v -0.68761 -0.26386 -2.73588
v -0.68651 -0.27475 -2.72884
v -0.69432 -0.28480 -2.72617
v -0.70647 -0.28814 -2.72943
v -0.71584 -0.28280 -2.73671
v -0.71694 -0.27192 -2.74376
v -0.70913 -0.26186 -2.74643
v -0.65410 -0.31657 -2.83669
v -0.64493 -0.32166 -2.82899
v -0.64396 -0.33237 -2.82167
v -0.65176 -0.34243 -2.81901
v -0.66377 -0.34596 -2.82258
v -0.67295 -0.34087 -2.83028
v -0.67391 -0.33016 -2.83760
v -0.66611 -0.32010 -2.84026
v -0.60962 -0.37384 -2.92341
v -0.60067 -0.37864 -2.91527
v -0.59986 -0.38915 -2.90765
v -0.60766 -0.39923 -2.90501
v -0.61950 -0.40296 -2.90890
v -0.62845 -0.39816 -2.91704
v -0.62926 -0.38765 -2.92466
v -0.62146 -0.37757 -2.92730
v -0.56363 -0.43019 -3.00311
v -0.55496 -0.43466 -2.99451
v -0.55433 -0.44496 -2.98658
v -0.56213 -0.45504 -2.98396
v -0.57377 -0.45901 -2.98819
v -0.58245 -0.45453 -2.99679
v -0.58307 -0.44424 -3.00473
v -0.57528 -0.43416 -3.00734
v -0.51625 -0.48548 -3.07561
v -0.50790 -0.48959 -3.06652
v -0.50750 -0.49963 -3.05825
v -0.51528 -0.50973 -3.05566
v -0.52670 -0.51397 -3.06025
v -0.53505 -0.50986 -3.06935
v -0.53545 -0.49982 -3.07761
v -0.52766 -0.48972 -3.08020
v -0.46759 -0.53960 -3.14072
v -0.45962 -0.54329 -3.13112
v -0.45949 -0.55304 -3.12251
v -0.46726 -0.56315 -3.11994
v -0.47840 -0.56769 -3.12492
v -0.48636 -0.56401 -3.13452
v -0.48650 -0.55425 -3.14313
v -0.47872 -0.54414 -3.14570
v -0.41775 -0.59241 -3.19830
v -0.41025 -0.59561 -3.18816
v -0.41043 -0.60504 -3.17920
v -0.41820 -0.61517 -3.17666
v -0.42899 -0.62006 -3.18203
v -0.43649 -0.61686 -3.19216
v -0.43631 -0.60743 -3.20113
v -0.42854 -0.59730 -3.20367
v -0.36685 -0.64379 -3.24819
v -0.35991 -0.64644 -3.23751
v -0.36047 -0.65550 -3.22819
v -0.36822 -0.66565 -3.22567
v -0.37861 -0.67094 -3.23145
v -0.38555 -0.66828 -3.24213
v -0.38498 -0.65923 -3.25145
v -0.37724 -0.64908 -3.25396
v -0.31500 -0.69361 -3.29027
v -0.30872 -0.69565 -3.27906
v -0.30975 -0.70428 -3.26937
v -0.31748 -0.71445 -3.26690
v -0.32738 -0.72020 -3.27307
v -0.33366 -0.71816 -3.28429
v -0.33263 -0.70953 -3.29397
v -0.32490 -0.69936 -3.29645
v -0.26232 -0.74177 -3.32443
v -0.25684 -0.74310 -3.31270
v -0.25841 -0.75126 -3.30269
v -0.26611 -0.76145 -3.30025
v -0.27544 -0.76772 -3.30681
v -0.28092 -0.76639 -3.31853
v -0.27935 -0.75823 -3.32855
v -0.27165 -0.74804 -3.33099
v -0.20894 -0.78814 -3.35057
v -0.20438 -0.78869 -3.33839
v -0.20659 -0.79632 -3.32808
v -0.21426 -0.80655 -3.32568
v -0.22290 -0.81339 -3.33259
v -0.22746 -0.81284 -3.34477
v -0.22525 -0.80521 -3.35508
v -0.21758 -0.79498 -3.35748
v -0.15497 -0.83261 -3.36861
v -0.15149 -0.83231 -3.35607
v -0.15443 -0.83936 -3.34554
v -0.16206 -0.84963 -3.34318
v -0.16991 -0.85710 -3.35037
v -0.17339 -0.85740 -3.36290
v -0.17045 -0.85035 -3.37344
v -0.16282 -0.84008 -3.37580
v -0.10056 -0.87506 -3.37849
v -0.09828 -0.87386 -3.36574
v -0.10204 -0.88030 -3.35507
v -0.10962 -0.89062 -3.35275
v -0.11659 -0.89876 -3.36012
v -0.11886 -0.89997 -3.37288
v -0.11511 -0.89352 -3.38354
v -0.10753 -0.88321 -3.38586
v -0.04584 -0.91538 -3.38017
v -0.04488 -0.91325 -3.36737
v -0.04951 -0.91908 -3.35670
v -0.05703 -0.92944 -3.35441
v -0.06304 -0.93828 -3.36184
v -0.06400 -0.94041 -3.37464
v -0.05937 -0.93458 -3.38531
v -0.05185 -0.92422 -3.38760
v 0.00902 -0.95345 -3.37365
v 0.00862 -0.95042 -3.36100
v 0.00307 -0.95564 -3.35046
v -0.00438 -0.96606 -3.34819
v -0.00937 -0.97558 -3.35552
v -0.00898 -0.97861 -3.36817
v -0.00343 -0.97339 -3.37872
v 0.00403 -0.96297 -3.38098
v 0.06387 -0.98917 -3.35893
v 0.06211 -0.98528 -3.34664
v 0.05565 -0.98994 -3.33635
v 0.04827 -1.00042 -3.33409
v 0.04430 -1.01058 -3.34119
v 0.04606 -1.01447 -3.35348
v 0.05252 -1.00981 -3.36377
v 0.05990 -0.99933 -3.36603
v 0.11856 -1.02244 -3.33607
v 0.11549 -1.01779 -3.32431
v 0.10816 -1.02195 -3.31440
v 0.10087 -1.03248 -3.31214
v 0.09787 -1.04322 -3.31886
v 0.10094 -1.04786 -3.33062
v 0.10827 -1.04370 -3.34053
v 0.11556 -1.03317 -3.34279
v 0.17293 -1.05316 -3.30515
v 0.16866 -1.04787 -3.29405
v 0.16054 -1.05161 -3.28460
v 0.15332 -1.06219 -3.28233
v 0.15124 -1.07342 -3.28856
v 0.15550 -1.07871 -3.29965
v 0.16363 -1.07497 -3.30911
v 0.17085 -1.06439 -3.31138
v 0.22686 -1.08128 -3.26625
v 0.22152 -1.07545 -3.25591
v 0.21269 -1.07884 -3.24697
v 0.20555 -1.08947 -3.24467
v 0.20427 -1.10110 -3.25035
v 0.20961 -1.10693 -3.26069
v 0.21843 -1.10354 -3.26963
v 0.22558 -1.09291 -3.27193
v 0.28020 -1.10671 -3.21949
v 0.27393 -1.10046 -3.20995
v 0.26450 -1.10358 -3.20155
v 0.25742 -1.11425 -3.19922
v 0.25684 -1.12621 -3.20431
v 0.26311 -1.13246 -3.21385
v 0.27255 -1.12934 -3.22224
v 0.27963 -1.11867 -3.22458
v 0.33284 -1.12942 -3.16499
v 0.32578 -1.12285 -3.15626
v 0.31582 -1.12576 -3.14841
v 0.30880 -1.13645 -3.14603
v 0.30883 -1.14866 -3.15052
v 0.31589 -1.15524 -3.15926
v 0.32584 -1.15233 -3.16711
v 0.33286 -1.14163 -3.16949
v 0.38465 -1.14935 -3.10291
v 0.37692 -1.14253 -3.09496
v 0.36653 -1.14529 -3.08763
v 0.35956 -1.15601 -3.08521
v 0.36010 -1.16841 -3.08912
v 0.36782 -1.17522 -3.09706
v 0.37821 -1.17247 -3.10439
v 0.38518 -1.16175 -3.10681
v 0.43552 -1.16646 -3.03338
v 0.42724 -1.15947 -3.02618
v 0.41648 -1.16211 -3.01935
v 0.40956 -1.17285 -3.01689
v 0.41051 -1.18538 -3.02023
v 0.41879 -1.19238 -3.02743
v 0.42955 -1.18973 -3.03426
v 0.43647 -1.17900 -3.03673
v 0.48532 -1.18072 -2.95658
v 0.47658 -1.17360 -2.95009
v 0.46553 -1.17617 -2.94373
v 0.45864 -1.18691 -2.94122
v 0.45995 -1.19955 -2.94404
v 0.46869 -1.20667 -2.95053
v 0.47974 -1.20410 -2.95690
v 0.48663 -1.19335 -2.95940
v 0.53396 -1.19209 -2.87270
v 0.52483 -1.18489 -2.86686
v 0.51353 -1.18740 -2.86094
v 0.50667 -1.19816 -2.85839
v 0.50827 -1.21086 -2.86071
v 0.51740 -1.21806 -2.86655
v 0.52871 -1.21555 -2.87248
v 0.53557 -1.20479 -2.87503
v 0.58132 -1.20056 -2.78194
v 0.57187 -1.19330 -2.77671
v 0.56035 -1.19578 -2.77118
v 0.55352 -1.20655 -2.76860
v 0.55537 -1.21929 -2.77046
v 0.56482 -1.22655 -2.77569
v 0.57634 -1.22407 -2.78121
v 0.58317 -1.21330 -2.78380
v 0.62729 -1.20610 -2.68450
v 0.61757 -1.19881 -2.67984
v 0.60587 -1.20128 -2.67469
v 0.59906 -1.21205 -2.67206
v 0.60112 -1.22482 -2.67350
v 0.61084 -1.23210 -2.67817
v 0.62253 -1.22964 -2.68332
v 0.62934 -1.21887 -2.68594
v 0.67175 -1.20870 -2.58063
v 0.66181 -1.20141 -2.57649
v 0.64997 -1.20387 -2.57168
v 0.64317 -1.21464 -2.56903
v 0.64540 -1.22742 -2.57007
v 0.65535 -1.23471 -2.57421
v 0.66719 -1.23225 -2.57902
v 0.67398 -1.22148 -2.58168
v 0.71462 -1.20837 -2.47057
v 0.70448 -1.20108 -2.46692
v 0.69252 -1.20354 -2.46243
v 0.68574 -1.21432 -2.45974
v 0.68812 -1.22709 -2.46042
v 0.69826 -1.23438 -2.46407
v 0.71022 -1.23192 -2.46856
v 0.71700 -1.22114 -2.47125
v 0.75579 -1.20510 -2.35459
v 0.74549 -1.19782 -2.35139
v 0.73342 -1.20029 -2.34720
v 0.72665 -1.21107 -2.34448
v 0.72915 -1.22383 -2.34482
v 0.73945 -1.23111 -2.34802
v 0.75152 -1.22864 -2.35221
v 0.75829 -1.21786 -2.35493
v 0.79515 -1.19889 -2.23296
v 0.78471 -1.19164 -2.23018
v 0.77256 -1.19413 -2.22627
v 0.76580 -1.20491 -2.22352
v 0.76841 -1.21765 -2.22354
v 0.77885 -1.22491 -2.22632
v 0.79100 -1.22242 -2.23023
v 0.79776 -1.21164 -2.23298
v 0.83263 -1.18978 -2.10598
v 0.82207 -1.18255 -2.10359
v 0.80984 -1.18507 -2.09994
v 0.80309 -1.19584 -2.09716
v 0.80579 -1.20857 -2.09688
v 0.81634 -1.21579 -2.09927
v 0.82858 -1.21328 -2.10292
v 0.83532 -1.20250 -2.10570
v 0.86812 -1.17777 -1.97394
v 0.85746 -1.17058 -1.97192
v 0.84516 -1.17312 -1.96852
v 0.83843 -1.18389 -1.96571
v 0.84120 -1.19659 -1.96515
v 0.85186 -1.20378 -1.96717
v 0.86416 -1.20124 -1.97057
v 0.87089 -1.19047 -1.97338
v 0.90155 -1.16290 -1.83716
v 0.89080 -1.15575 -1.83550
v 0.87845 -1.15831 -1.83232
v 0.87172 -1.16908 -1.82950
v 0.87456 -1.18175 -1.82867
v 0.88530 -1.18890 -1.83034
v 0.89766 -1.18634 -1.83351
v 0.90439 -1.17557 -1.83634
v 0.93283 -1.14520 -1.69598
v 0.92201 -1.13810 -1.69465
v 0.90961 -1.14069 -1.69169
v 0.90289 -1.15146 -1.68884
v 0.90578 -1.16410 -1.68777
v 0.91660 -1.17120 -1.68910
v 0.92900 -1.16861 -1.69206
v 0.93573 -1.15784 -1.69491
v 0.96189 -1.12472 -1.55073
v 0.95101 -1.11766 -1.54972
v 0.93857 -1.12028 -1.54697
v 0.93185 -1.13105 -1.54409
v 0.93480 -1.14366 -1.54278
v 0.94568 -1.15072 -1.54380
v 0.95812 -1.14810 -1.54655
v 0.96484 -1.13733 -1.54942
v 0.98867 -1.10151 -1.40176
v 0.97773 -1.09450 -1.40105
v 0.96525 -1.09715 -1.39850
v 0.95854 -1.10791 -1.39560
v 0.96153 -1.12048 -1.39406
v 0.97246 -1.12750 -1.39478
v 0.98494 -1.12484 -1.39733
v 0.99166 -1.11408 -1.40022
v 1.01309 -1.07562 -1.24943
v 1.00211 -1.06866 -1.24901
v 0.98960 -1.07134 -1.24664
v 0.98289 -1.08210 -1.24373
v 0.98591 -1.09464 -1.24197
v 0.99690 -1.10160 -1.24240
v 1.00941 -1.09891 -1.24476
v 1.01612 -1.08815 -1.24767
v 1.03510 -1.04711 -1.09411
v 1.02408 -1.04020 -1.09396
v 1.01154 -1.04292 -1.09178
v 1.00484 -1.05368 -1.08884
v 1.00789 -1.06617 -1.08687
v 1.01892 -1.07308 -1.08702
v 1.03145 -1.07036 -1.08920
v 1.03816 -1.05961 -1.09214
v 1.05465 -1.01606 -0.93616
v 1.04359 -1.00920 -0.93628
v 1.03104 -1.01196 -0.93427
v 1.02434 -1.02271 -0.93132
v 1.02742 -1.03517 -0.92914
v 1.03847 -1.04202 -0.92902
v 1.05103 -1.03927 -0.93103
v 1.05773 -1.02851 -0.93398
v 1.07169 -0.98253 -0.77596
v 1.06060 -0.97573 -0.77634
v 1.04803 -0.97853 -0.77451
v 1.04133 -0.98928 -0.77154
v 1.04443 -1.00169 -0.76917
v 1.05552 -1.00849 -0.76879
v 1.06809 -1.00570 -0.77062
v 1.07479 -0.99495 -0.77359
v 1.08617 -0.94662 -0.61391
v 1.07506 -0.93987 -0.61455
v 1.06248 -0.94270 -0.61288
v 1.05578 -0.95345 -0.60989
v 1.05890 -0.96582 -0.60733
v 1.07001 -0.97257 -0.60669
v 1.08260 -0.96973 -0.60836
v 1.08929 -0.95899 -0.61135
v 1.09807 -0.90840 -0.45039
v 1.08695 -0.90171 -0.45127
v 1.07434 -0.90458 -0.44977
v 1.06765 -0.91532 -0.44677
v 1.07078 -0.92765 -0.44401
v 1.08191 -0.93434 -0.44313
v 1.09451 -0.93147 -0.44463
v 1.10121 -0.92072 -0.44764
v 1.10736 -0.86796 -0.28580
v 1.09622 -0.86134 -0.28692
v 1.08361 -0.86425 -0.28558
v 1.07691 -0.87499 -0.28256
v 1.08006 -0.88727 -0.27962
v 1.09120 -0.89389 -0.27849
v 1.10381 -0.89098 -0.27983
v 1.11050 -0.88024 -0.28286
v 1.11401 -0.82541 -0.12052
v 1.10285 -0.81885 -0.12189
v 1.09024 -0.82180 -0.12071
v 1.08355 -0.83254 -0.11767
v 1.08670 -0.84477 -0.11455
v 1.09785 -0.85133 -0.11318
v 1.11047 -0.84838 -0.11436
v 1.11716 -0.83765 -0.11740
v 1.11800 -0.78085 0.04503
v 1.10684 -0.77435 0.04343
v 1.09422 -0.77735 0.04445
v 1.08753 -0.78808 0.04751
v 1.09069 -0.80026 0.05081
v 1.10185 -0.80676 0.05242
v 1.11447 -0.80377 0.05139
v 1.12116 -0.79303 0.04833
v 1.11933 -0.73438 0.21047
v 1.10817 -0.72795 0.20863
v 1.09555 -0.73099 0.20950
v 1.08886 -0.74172 0.21258
v 1.09202 -0.75385 0.21606
v 1.10318 -0.76028 0.21790
v 1.11580 -0.75724 0.21703
v 1.12249 -0.74651 0.21395
v 1.11800 -0.68612 0.37540
v 1.10684 -0.67976 0.37332
v 1.09422 -0.68284 0.37403
v 1.08753 -0.69357 0.37713
v 1.09069 -0.70565 0.38078
v 1.10185 -0.71201 0.38286
v 1.11447 -0.70892 0.38215
v 1.12116 -0.69820 0.37905
v 1.11400 -0.63618 0.53941
v 1.10285 -0.62989 0.53709
v 1.09023 -0.63302 0.53766
v 1.08355 -0.64374 0.54077
v 1.08670 -0.65577 0.54460
v 1.09785 -0.66205 0.54692
v 1.11047 -0.65892 0.54636
v 1.11716 -0.64820 0.54325
v 1.10735 -0.58468 0.70212
v 1.09621 -0.57847 0.69957
v 1.08360 -0.58165 0.69997
v 1.07691 -0.59236 0.70310
v 1.08006 -0.60433 0.70711
v 1.09120 -0.61054 0.70967
v 1.10381 -0.60736 0.70926
v 1.11050 -0.59665 0.70613
v 1.09807 -0.53175 0.86313
v 1.08694 -0.52561 0.86034
v 1.07434 -0.52885 0.86059
v 1.06765 -0.53955 0.86373
v 1.07079 -0.55146 0.86793
v 1.08192 -0.55760 0.87072
v 1.09452 -0.55436 0.87047
v 1.10121 -0.54365 0.86733
v 1.08617 -0.47751 1.02205
v 1.07506 -0.47145 1.01902
v 1.06247 -0.47474 1.01911
v 1.05578 -0.48545 1.02227
v 1.05890 -0.49729 1.02665
v 1.07002 -0.50334 1.02969
v 1.08260 -0.50005 1.02960
v 1.08929 -0.48935 1.02643
v 1.07168 -0.42209 1.17851
v 1.06059 -0.41613 1.17523
v 1.04802 -0.41947 1.17516
v 1.04133 -0.43017 1.17834
v 1.04444 -0.44195 1.18291
v 1.05553 -0.44791 1.18619
v 1.06810 -0.44456 1.18626
v 1.07479 -0.43387 1.18308
v 1.05464 -0.36563 1.33213
v 1.04358 -0.35976 1.32860
v 1.03103 -0.36317 1.32837
v 1.02433 -0.37386 1.33156
v 1.02742 -0.38557 1.33632
v 1.03849 -0.39144 1.33985
v 1.05104 -0.38803 1.34008
v 1.05773 -0.37734 1.33689
v 1.03509 -0.30826 1.48253
v 1.02406 -0.30249 1.47875
v 1.01153 -0.30596 1.47835
v 1.00484 -0.31665 1.48156
v 1.00790 -0.32828 1.48651
v 1.01893 -0.33405 1.49030
v 1.03147 -0.33058 1.49070
v 1.03816 -0.31990 1.48748
v 1.01308 -0.25012 1.62936
v 1.00209 -0.24446 1.62532
v 0.98958 -0.24800 1.62474
v 0.98289 -0.25867 1.62798
v 0.98592 -0.27023 1.63313
v 0.99692 -0.27590 1.63717
v 1.00942 -0.27236 1.63775
v 1.01612 -0.26168 1.63451
v 0.98866 -0.19135 1.77227
v 0.97771 -0.18580 1.76795
v 0.96524 -0.18942 1.76720
v 0.95854 -0.20008 1.77045
v 0.96154 -0.21156 1.77581
v 0.97249 -0.21711 1.78012
v 0.98496 -0.21349 1.78088
v 0.99166 -0.20283 1.77762
v 0.96188 -0.13210 1.91090
v 0.95099 -0.12666 1.90630
v 0.93855 -0.13036 1.90536
v 0.93185 -0.14102 1.90864
v 0.93481 -0.15240 1.91421
v 0.94570 -0.15783 1.91881
v 0.95814 -0.15414 1.91974
v 0.96484 -0.14348 1.91647
v 0.93281 -0.07249 2.04493
v 0.92199 -0.06719 2.04004
v 0.90959 -0.07097 2.03891
v 0.90288 -0.08162 2.04221
v 0.90580 -0.09290 2.04800
v 0.91663 -0.09821 2.05289
v 0.92903 -0.09442 2.05401
v 0.93573 -0.08377 2.05072
v 0.90153 -0.01268 2.17403
v 0.89077 -0.00752 2.16884
v 0.87842 -0.01140 2.16751
v 0.87172 -0.02204 2.17083
v 0.87458 -0.03321 2.17685
v 0.88533 -0.03837 2.18204
v 0.89768 -0.03450 2.18337
v 0.90439 -0.02386 2.18005
v 0.86810 0.04719 2.29790
v 0.85743 0.05220 2.29239
v 0.84514 0.04822 2.29086
v 0.83842 0.03759 2.29420
v 0.84122 0.02653 2.30046
v 0.85189 0.02152 2.30597
v 0.86418 0.02550 2.30750
v 0.87090 0.03613 2.30416
v 0.83260 0.10698 2.41623
v 0.82203 0.11182 2.41039
v 0.80981 0.10773 2.40864
v 0.80309 0.09710 2.41201
v 0.80581 0.08617 2.41852
v 0.81638 0.08134 2.42436
v 0.82861 0.08543 2.42611
v 0.83533 0.09605 2.42275
v 0.79513 0.16654 2.52875
v 0.78467 0.17119 2.52256
v 0.77252 0.16698 2.52058
v 0.76579 0.15637 2.52397
v 0.76843 0.14558 2.53075
v 0.77889 0.14093 2.53694
v 0.79104 0.14514 2.53892
v 0.79776 0.15575 2.53553
v 0.75576 0.22574 2.63518
v 0.74544 0.23018 2.62862
v 0.73338 0.22583 2.62640
v 0.72664 0.21524 2.62982
v 0.72918 0.20461 2.63688
v 0.73950 0.20016 2.64344
v 0.75156 0.20451 2.64566
v 0.75829 0.21511 2.64224
v 0.71459 0.28443 2.73527
v 0.70443 0.28864 2.72832
v 0.69248 0.28414 2.72585
v 0.68573 0.27356 2.72930
v 0.68815 0.26310 2.73665
v 0.69831 0.25889 2.74360
v 0.71026 0.26339 2.74607
v 0.71701 0.27397 2.74262
v 0.67172 0.34247 2.82877
v 0.66175 0.34642 2.82141
v 0.64992 0.34175 2.81867
v 0.64316 0.33119 2.82215
v 0.64544 0.32093 2.82982
v 0.65541 0.31697 2.83718
v 0.66724 0.32165 2.83992
v 0.67400 0.33221 2.83644
v 0.62725 0.39973 2.91547
v 0.61750 0.40339 2.90767
v 0.60582 0.39852 2.90465
v 0.59905 0.38798 2.90816
v 0.60116 0.37794 2.91616
v 0.61091 0.37428 2.92396
v 0.62259 0.37914 2.92699
v 0.62936 0.38968 2.92347
v 0.58128 0.45606 2.99515
v 0.57179 0.45939 2.98689
v 0.56029 0.45431 2.98357
v 0.55350 0.44379 2.98712
v 0.55541 0.43400 2.99547
v 0.56490 0.43067 3.00373
v 0.57640 0.43575 3.00706
v 0.58319 0.44627 3.00351
v 0.53392 0.51135 3.06763
v 0.52475 0.51430 3.05888
v 0.51345 0.50897 3.05524
v 0.50665 0.49848 3.05883
v 0.50832 0.48897 3.06756
v 0.51749 0.48602 3.07630
v 0.52878 0.49135 3.07995
v 0.53559 0.50184 3.07635
v 0.48527 0.56545 3.13272
v 0.47648 0.56797 3.12347
v 0.46544 0.56236 3.11949
v 0.45861 0.55189 3.12313
v 0.46000 0.54271 3.13224
v 0.46879 0.54019 3.14150
v 0.47983 0.54580 3.14547
v 0.48666 0.55627 3.14183
v 0.43546 0.61824 3.19027
v 0.42712 0.62027 3.18049
v 0.41638 0.61433 3.17618
v 0.40952 0.60391 3.17986
v 0.41057 0.59510 3.18938
v 0.41890 0.59307 3.19916
v 0.42965 0.59900 3.20347
v 0.43651 0.60943 3.19979
v 0.38459 0.66960 3.24014
v 0.37680 0.67107 3.22982
v 0.36641 0.66476 3.22516
v 0.35952 0.65437 3.22889
v 0.36016 0.64599 3.23882
v 0.36795 0.64452 3.24914
v 0.37833 0.65083 3.25380
v 0.38523 0.66122 3.25007
v 0.33278 0.71941 3.28219
v 0.32564 0.72023 3.27135
v 0.31568 0.71350 3.26635
v 0.30875 0.70316 3.27013
v 0.30889 0.69527 3.28047
v 0.31603 0.69445 3.29132
v 0.32599 0.70117 3.29631
v 0.33292 0.71151 3.29253
v 0.28014 0.76754 3.31632
v 0.27377 0.76764 3.30498
v 0.26433 0.76044 3.29967
v 0.25734 0.75015 3.30350
v 0.25690 0.74281 3.31423
v 0.26327 0.74271 3.32558
v 0.27272 0.74992 3.33089
v 0.27970 0.76020 3.32706
v 0.22681 0.81389 3.34244
v 0.22134 0.81318 3.33065
v 0.21250 0.80545 3.32507
v 0.20544 0.79523 3.32895
v 0.20432 0.78850 3.34003
v 0.20978 0.78922 3.35182
v 0.21863 0.79695 3.35741
v 0.22568 0.80717 3.35352
v 0.17290 0.85834 3.36047
v 0.16848 0.85674 3.34833
v 0.16032 0.84843 3.34254
v 0.15319 0.83828 3.34647
v 0.15127 0.83224 3.35783
v 0.15569 0.83384 3.36996
v 0.16385 0.84215 3.37576
v 0.17098 0.85230 3.37183
v 0.11855 0.90077 3.37034
v 0.11530 0.89823 3.35800
v 0.10790 0.88931 3.35208
v 0.10069 0.87924 3.35606
v 0.09788 0.87392 3.36760
v 0.10113 0.87646 3.37994
v 0.10853 0.88538 3.38585
v 0.11574 0.89545 3.38187
v 0.06391 0.94107 3.37201
v 0.06193 0.93755 3.35964
v 0.05536 0.92801 3.35373
v 0.04804 0.91803 3.35774
v 0.04426 0.91346 3.36932
v 0.04624 0.91697 3.38169
v 0.05281 0.92651 3.38760
v 0.06013 0.93650 3.38359
v 0.00938 0.97894 3.36556
v 0.00807 0.97495 3.35325
v 0.00192 0.96510 3.34738
v -0.00545 0.95516 3.35139
v -0.00974 0.95095 3.36293
v -0.00843 0.95495 3.37524
v -0.00228 0.96480 3.38111
v 0.00510 0.97474 3.37711
f 1 10 9
f 2 11 10
f 4 11 3
f 5 12 4
f 6 13 5
f 7 14 6
f 7 16 15
f 8 9 16
f 10 17 9
f 11 18 10
f 12 19 11
f 13 20 12
f 13 22 21
f 15 22 14
f 16 23 15
f 9 24 16
f 18 25 17
f 19 26 18
f 20 27 19
f 20 29 28
f 21 30 29
f 22 31 30
f 24 31 23
f 17 32 24
f 26 33 25
f 27 34 26
f 28 35 27
f 28 37 36
f 29 38 37
f 30 39 38
f 32 39 31
f 25 40 32
f 34 41 33
f 35 42 34
f 36 43 35
f 36 45 44
f 37 46 45
f 38 47 46
f 40 47 39
f 33 48 40
f 42 49 41
f 43 50 42
f 44 51 43
f 44 53 52
f 45 54 53
f 46 55 54
f 48 55 47
f 41 56 48
f 50 57 49
f 51 58 50
f 52 59 51
f 52 61 60
f 53 62 61
f 54 63 62
f 56 63 55
f 49 64 56
f 58 65 57
f 59 66 58
f 60 67 59
f 60 69 68
f 61 70 69
f 62 71 70
f 64 71 63
f 57 72 64
f 66 73 65
f 67 74 66
f 68 75 67
f 68 77 76
f 69 78 77
f 70 79 78
f 72 79 71
f 65 80 72
f 74 81 73
f 75 82 74
f 76 83 75
f 76 85 84
f 77 86 85
f 78 87 86
f 80 87 79
f 73 88 80
f 82 89 81
f 83 90 82
f 84 91 83
f 84 93 92
f 85 94 93
f 86 95 94
f 88 95 87
f 81 96 88
f 90 97 89
f 91 98 90
f 92 99 91
f 92 101 100
f 93 102 101
f 94 103 102
f 96 103 95
f 89 104 96
f 98 105 97
f 99 106 98
f 100 107 99
f 100 109 108
f 101 110 109
f 102 111 110
f 104 111 103
f 97 112 104
f 106 113 105
f 107 114 106
f 108 115 107
f 108 117 116
f 109 118 117
f 110 119 118
f 112 119 111
f 105 120 112
f 114 121 113
f 115 122 114
f 116 123 115
f 116 125 124
f 117 126 125
f 118 127 126
f 120 127 119
f 113 128 120
f 122 129 121
f 123 130 122
f 124 131 123
f 124 133 132
f 125 134 133
f 126 135 134
f 128 135 127
f 121 136 128
f 130 137 129
f 131 138 130
f 132 139 131
f 132 141 140
f 133 142 141
f 134 143 142
f 136 143 135
f 129 144 136
f 138 145 137
f 139 146 138
f 140 147 139
f 140 149 148
f 141 150 149
f 142 151 150
f 144 151 143
f 137 152 144
f 146 153 145
f 147 154 146
f 148 155 147
f 148 157 156
f 149 158 157
f 150 159 158
f 152 159 151
f 145 160 152
f 154 161 153
f 155 162 154
f 156 163 155
f 156 165 164
f 157 166 165
f 158 167 166
f 160 167 159
f 153 168 160
f 162 169 161
f 163 170 162
f 164 171 163
f 164 173 172
f 165 174 173
f 166 175 174
f 168 175 167
f 161 176 168
f 170 177 169
f 171 178 170
f 172 179 171
f 172 181 180
f 173 182 181
f 174 183 182
f 176 183 175
f 169 184 176
f 178 185 177
f 179 186 178
f 179 188 187
f 180 189 188
f 181 190 189
f 182 191 190
f 184 191 183
f 177 192 184
f 186 193 185
f 187 194 186
f 188 195 187
f 188 197 196
f 189 198 197
f 190 199 198
f 192 199 191
f 185 200 192
f 194 201 193
f 195 202 194
f 196 203 195
f 196 205 204
f 197 206 205
f 198 207 206
f 200 207 199
f 193 208 200
f 202 209 201
f 203 210 202
f 204 211 203
f 204 213 212
f 205 214 213
f 206 215 214
f 208 215 207
f 201 216 208
f 210 217 209
f 211 218 210
f 212 219 211
f 212 221 220
f 213 222 221
f 214 223 222
f 216 223 215
f 209 224 216
f 218 225 217
f 219 226 218
f 220 227 219
f 220 229 228
f 221 230 229
f 222 231 230
f 223 232 231
f 217 232 224
f 226 233 225
f 227 234 226
f 228 235 227
f 228 237 236
f 229 238 237
f 230 239 238
f 232 239 231
f 225 240 232
f 234 241 233
f 235 242 234
f 235 244 243
f 236 245 244
f 237 246 245
f 238 247 246
f 240 247 239
f 233 248 240
f 242 249 241
f 243 250 242
f 243 252 251
f 244 253 252
f 246 253 245
f 246 255 254
f 248 255 247
f 241 256 248
f 249 258 257
f 250 259 258
f 252 259 251
f 253 260 252
f 253 262 261
f 254 263 262
f 256 263 255
f 249 264 256
f 258 265 257
f 258 267 266
f 260 267 259
f 261 268 260
f 262 269 261
f 263 270 262
f 263 272 271
f 264 265 272
f 266 273 265
f 266 275 274
f 268 275 267
f 269 276 268
f 270 277 269
f 271 278 270
f 271 280 279
f 272 273 280
f 274 281 273
f 274 283 282
f 276 283 275
f 277 284 276
f 278 285 277
f 279 286 278
f 279 288 287
f 280 281 288
f 281 290 289
f 283 290 282
f 284 291 283
f 285 292 284
f 286 293 285
f 287 294 286
f 288 295 287
f 288 289 296
f 289 298 297
f 290 299 298
f 292 299 291
f 293 300 292
f 294 301 293
f 295 302 294
f 296 303 295
f 296 297 304
f 297 306 305
f 298 307 306
f 299 308 307
f 301 308 300
f 302 309 301
f 303 310 302
f 304 311 303
f 304 305 312
f 305 314 313
f 306 315 314
f 307 316 315
f 309 316 308
f 310 317 309
f 311 318 310
f 312 319 311
f 312 313 320
f 313 322 321
f 314 323 322
f 316 323 315
f 317 324 316
f 318 325 317
f 319 326 318
f 320 327 319
f 320 321 328
f 321 330 329
f 322 331 330
f 324 331 323
f 325 332 324
f 326 333 325
f 327 334 326
f 327 336 335
f 328 329 336
f 329 338 337
f 330 339 338
f 332 339 331
f 333 340 332
f 334 341 333
f 335 342 334
f 336 343 335
f 336 337 344
f 337 346 345
f 338 347 346
f 339 348 347
f 341 348 340
f 342 349 341
f 343 350 342
f 344 351 343
f 344 345 352
f 345 354 353
f 346 355 354
f 348 355 347
f 349 356 348
f 350 357 349
f 351 358 350
f 352 359 351
f 352 353 360
f 353 362 361
f 354 363 362
f 356 363 355
f 357 364 356
f 358 365 357
f 359 366 358
f 359 368 367
f 360 361 368
f 361 370 369
f 362 371 370
f 364 371 363
f 365 372 364
f 366 373 365
f 367 374 366
f 368 375 367
f 368 369 376
f 369 378 377
f 370 379 378
f 372 379 371
f 373 380 372
f 374 381 373
f 375 382 374
f 376 383 375
f 376 377 384
f 377 386 385
f 378 387 386
f 380 387 379
f 381 388 380
f 382 389 381
f 383 390 382
f 383 392 391
f 384 385 392
f 385 394 393
f 386 395 394
f 388 395 387
f 389 396 388
f 390 397 389
f 391 398 390
f 392 399 391
f 392 393 400
f 393 402 401
f 394 403 402
f 396 403 395
f 397 404 396
f 398 405 397
f 399 406 398
f 400 407 399
f 400 401 408
f 401 410 409
f 402 411 410
f 404 411 403
f 405 412 404
f 406 413 405
f 407 414 406
f 407 416 415
f 408 409 416
f 409 418 417
f 410 419 418
f 412 419 411
f 413 420 412
f 414 421 413
f 415 422 414
f 415 424 423
f 416 417 424
f 417 426 425
f 418 427 426
f 420 427 419
f 421 428 420
f 422 429 421
f 423 430 422
f 424 431 423
f 424 425 432
f 425 434 433
f 426 435 434
f 428 435 427
f 429 436 428
f 430 437 429
f 431 438 430
f 432 439 431
f 432 433 440
f 433 442 441
f 434 443 442
f 436 443 435
f 437 444 436
f 438 445 437
f 439 446 438
f 440 447 439
f 440 441 448
f 441 450 449
f 442 451 450
f 444 451 443
f 445 452 444
f 446 453 445
f 447 454 446
f 448 455 447
f 448 449 456
f 449 458 457
f 450 459 458
f 452 459 451
f 453 460 452
f 454 461 453
f 455 462 454
f 456 463 455
f 456 457 464
f 457 466 465
f 458 467 466
f 460 467 459
f 461 468 460
f 462 469 461
f 463 470 462
f 464 471 463
f 464 465 472
f 465 474 473
f 466 475 474
f 468 475 467
f 469 476 468
f 470 477 469
f 471 478 470
f 472 479 471
f 472 473 480
f 473 482 481
f 474 483 482
f 476 483 475
f 477 484 476
f 478 485 477
f 479 486 478
f 480 487 479
f 480 481 488
f 481 490 489
f 482 491 490
f 484 491 483
f 485 492 484
f 486 493 485
f 487 494 486
f 488 495 487
f 488 489 496
f 489 498 497
f 490 499 498
f 492 499 491
f 493 500 492
f 494 501 493
f 495 502 494
f 496 503 495
f 496 497 504
f 497 506 505
f 499 506 498
f 500 507 499
f 501 508 500
f 502 509 501
f 503 510 502
f 504 511 503
f 497 512 504
f 506 513 505
f 507 514 506
f 508 515 507
f 509 516 508
f 510 517 509
f 511 518 510
f 512 519 511
f 505 520 512
f 514 521 513
f 515 522 514
f 516 523 515
f 517 524 516
f 518 525 517
f 519 526 518
f 520 527 519
f 513 528 520
f 522 529 521
f 523 530 522
f 524 531 523
f 525 532 524
f 525 534 533
f 527 534 526
f 528 535 527
f 521 536 528
f 530 537 529
f 531 538 530
f 532 539 531
f 532 541 540
f 533 542 541
f 534 543 542
f 536 543 535
f 529 544 536
f 538 545 537
f 539 546 538
f 540 547 539
f 540 549 548
f 541 550 549
f 542 551 550
f 544 551 543
f 537 552 544
f 546 553 545
f 547 554 546
f 548 555 547
f 548 557 556
f 549 558 557
f 550 559 558
f 552 559 551
f 545 560 552
f 554 561 553
f 555 562 554
f 556 563 555
f 556 565 564
f 557 566 565
f 558 567 566
f 560 567 559
f 553 568 560
f 562 569 561
f 563 570 562
f 564 571 563
f 564 573 572
f 565 574 573
f 566 575 574
f 568 575 567
f 561 576 568
f 570 577 569
f 571 578 570
f 572 579 571
f 572 581 580
f 573 582 581
f 574 583 582
f 576 583 575
f 569 584 576
f 578 585 577
f 579 586 578
f 580 587 579
f 580 589 588
f 581 590 589
f 582 591 590
f 584 591 583
f 577 592 584
f 586 593 585
f 587 594 586
f 588 595 587
f 588 597 596
f 589 598 597
f 590 599 598
f 592 599 591
f 585 600 592
f 594 601 593
f 595 602 594
f 596 603 595
f 596 605 604
f 597 606 605
f 598 607 606
f 600 607 599
f 593 608 600
f 602 609 601
f 603 610 602
f 603 612 611
f 604 613 612
f 605 614 613
f 606 615 614
f 608 615 607
f 601 616 608
f 610 617 609
f 611 618 610
f 611 620 619
f 612 621 620
f 613 622 621
f 614 623 622
f 616 623 615
f 609 624 616
f 618 625 617
f 619 626 618
f 620 627 619
f 620 629 628
f 621 630 629
f 622 631 630
f 624 631 623
f 617 632 624
f 626 633 625
f 627 634 626
f 627 636 635
f 628 637 636
f 629 638 637
f 630 639 638
f 632 639 631
f 625 640 632
f 634 641 633
f 635 642 634
f 636 643 635
f 636 645 644
f 637 646 645
f 638 647 646
f 640 647 639
f 633 648 640
f 642 649 641
f 643 650 642
f 643 652 651
f 644 653 652
f 645 654 653
f 646 655 654
f 648 655 647
f 641 656 648
f 650 657 649
f 651 658 650
f 651 660 659
f 652 661 660
f 653 662 661
f 654 663 662
f 656 663 655
f 649 664 656
f 658 665 657
f 659 666 658
f 659 668 667
f 660 669 668
f 661 670 669
f 662 671 670
f 664 671 663
f 657 672 664
f 666 673 665
f 667 674 666
f 668 675 667
f 668 677 676
f 669 678 677
f 670 679 678
f 671 680 679
f 665 680 672
f 674 681 673
f 675 682 674
f 675 684 683
f 676 685 684
f 677 686 685
f 678 687 686
f 680 687 679
f 673 688 680
f 682 689 681
f 683 690 682
f 683 692 691
f 684 693 692
f 685 694 693
f 686 695 694
f 688 695 687
f 681 696 688
f 690 697 689
f 691 698 690
f 691 700 699
f 692 701 700
f 693 702 701
f 694 703 702
f 696 703 695
f 689 704 696
f 698 705 697
f 699 706 698
f 700 707 699
f 700 709 708
f 701 710 709
f 702 711 710
f 704 711 703
f 697 712 704
f 706 713 705
f 707 714 706
f 707 716 715
f 708 717 716
f 709 718 717
f 710 719 718
f 711 720 719
f 705 720 712
f 714 721 713
f 715 722 714
f 715 724 723
f 716 725 724
f 717 726 725
f 718 727 726
f 719 728 727
f 713 728 720
f 722 729 721
f 723 730 722
f 723 732 731
f 724 733 732
f 725 734 733
f 726 735 734
f 728 735 727
f 721 736 728
f 730 737 729
f 731 738 730
f 731 740 739
f 732 741 740
f 733 742 741
f 734 743 742
f 736 743 735
f 729 744 736
f 738 745 737
f 739 746 738
f 740 747 739
f 741 748 740
f 741 750 749
f 742 751 750
f 743 752 751
f 737 752 744
f 746 753 745
f 747 754 746
f 747 756 755
f 748 757 756
f 749 758 757
f 750 759 758
f 751 760 759
f 745 760 752
f 754 761 753
f 755 762 754
f 756 763 755
f 757 764 756
f 758 765 757
f 758 767 766
f 760 767 759
f 753 768 760
f 762 769 761
f 762 771 770
f 764 771 763
f 764 773 772
f 765 774 773
f 767 774 766
f 767 776 775
f 761 776 768
f 770 777 769
f 771 778 770
f 772 779 771
f 773 780 772
f 774 781 773
f 775 782 774
f 776 783 775
f 769 784 776
f 777 786 785
f 779 786 778
f 780 787 779
f 781 788 780
f 782 789 781
f 783 790 782
f 784 791 783
f 784 785 792
f 785 794 793
f 786 795 794
f 788 795 787
f 789 796 788
f 790 797 789
f 791 798 790
f 792 799 791
f 785 800 792
f 793 802 801
f 794 803 802
f 796 803 795
f 797 804 796
f 798 805 797
f 799 806 798
f 800 807 799
f 800 801 808
f 801 810 809
f 802 811 810
f 804 811 803
f 805 812 804
f 806 813 805
f 807 814 806
f 808 815 807
f 808 809 816
f 809 818 817
f 810 819 818
f 812 819 811
f 813 820 812
f 814 821 813
f 815 822 814
f 816 823 815
f 816 817 824
f 817 826 825
f 818 827 826
f 820 827 819
f 821 828 820
f 822 829 821
f 823 830 822
f 824 831 823
f 824 825 832
f 825 834 833
f 826 835 834
f 828 835 827
f 829 836 828
f 830 837 829
f 831 838 830
f 832 839 831
f 832 833 840
f 833 842 841
f 834 843 842
f 836 843 835
f 837 844 836
f 838 845 837
f 839 846 838
f 840 847 839
f 840 841 848
f 841 850 849
f 842 851 850
f 844 851 843
f 845 852 844
f 846 853 845
f 847 854 846
f 848 855 847
f 848 849 856
f 849 858 857
f 850 859 858
f 852 859 851
f 853 860 852
f 854 861 853
f 855 862 854
f 855 864 863
f 856 857 864
f 857 866 865
f 858 867 866
f 860 867 859
f 861 868 860
f 862 869 861
f 863 870 862
f 863 872 871
f 864 865 872
f 865 874 873
f 866 875 874
f 868 875 867
f 869 876 868
f 870 877 869
f 871 878 870
f 871 880 879
f 872 873 880
f 873 882 881
f 874 883 882
f 876 883 875
f 877 884 876
f 878 885 877
f 879 886 878
f 880 887 879
f 880 881 888
f 881 890 889
f 882 891 890
f 884 891 883
f 885 892 884
f 886 893 885
f 887 894 886
f 888 895 887
f 888 889 896
f 889 898 897
f 890 899 898
f 892 899 891
f 893 900 892
f 894 901 893
f 895 902 894
f 895 904 903
f 896 897 904
f 897 906 905
f 898 907 906
f 900 907 899
f 901 908 900
f 902 909 901
f 903 910 902
f 903 912 911
f 904 905 912
f 905 914 913
f 906 915 914
f 908 915 907
f 909 916 908
f 910 917 909
f 911 918 910
f 912 919 911
f 912 913 920
f 913 922 921
f 914 923 922
f 916 923 915
f 917 924 916
f 918 925 917
f 919 926 918
f 919 928 927
f 920 921 928
f 921 930 929
f 922 931 930
f 924 931 923
f 925 932 924
f 926 933 925
f 927 934 926
f 927 936 935
f 928 929 936
f 929 938 937
f 930 939 938
f 932 939 931
f 933 940 932
f 934 941 933
f 935 942 934
f 936 943 935
f 936 937 944
f 937 946 945
f 938 947 946
f 940 947 939
f 941 948 940
f 942 949 941
f 943 950 942
f 944 951 943
f 944 945 952
f 945 954 953
f 946 955 954
f 948 955 947
f 949 956 948
f 950 957 949
f 951 958 950
f 952 959 951
f 952 953 960
f 953 962 961
f 954 963 962
f 956 963 955
f 957 964 956
f 958 965 957
f 959 966 958
f 960 967 959
f 960 961 968
f 961 970 969
f 962 971 970
f 964 971 963
f 965 972 964
f 966 973 965
f 967 974 966
f 968 975 967
f 968 969 976
f 969 978 977
f 970 979 978
f 972 979 971
f 973 980 972
f 974 981 973
f 975 982 974
f 976 983 975
f 976 977 984
f 977 986 985
f 978 987 986
f 980 987 979
f 981 988 980
f 982 989 981
f 983 990 982
f 984 991 983
f 984 985 992
f 985 994 993
f 986 995 994
f 988 995 987
f 989 996 988
f 990 997 989
f 991 998 990
f 992 999 991
f 992 993 1000
f 993 1002 1001
f 994 1003 1002
f 996 1003 995
f 997 1004 996
f 998 1005 997
f 999 1006 998
f 1000 1007 999
f 1000 1001 1008
f 1001 1010 1009
f 1002 1011 1010
f 1004 1011 1003
f 1005 1012 1004
f 1006 1013 1005
f 1007 1014 1006
f 1008 1015 1007
f 1008 1009 1016
f 1009 1018 1017
f 1011 1018 1010
f 1012 1019 1011
f 1013 1020 1012
f 1014 1021 1013
f 1015 1022 1014
f 1016 1023 1015
f 1009 1024 1016
f 1018 1025 1017
f 1019 1026 1018
f 1019 1028 1027
f 1020 1029 1028
f 1021 1030 1029
f 1022 1031 1030
f 1024 1031 1023
f 1017 1032 1024
f 1 2 10
f 2 3 11
f 4 12 11
f 5 13 12
f 6 14 13
f 7 15 14
f 7 8 16
f 8 1 9
f 10 18 17
f 11 19 18
f 12 20 19
f 13 21 20
f 13 14 22
f 15 23 22
f 16 24 23
f 9 17 24
f 18 26 25
f 19 27 26
f 20 28 27
f 20 21 29
f 21 22 30
f 22 23 31
f 24 32 31
f 17 25 32
f 26 34 33
f 27 35 34
f 28 36 35
f 28 29 37
f 29 30 38
f 30 31 39
f 32 40 39
f 25 33 40
f 34 42 41
f 35 43 42
f 36 44 43
f 36 37 45
f 37 38 46
f 38 39 47
f 40 48 47
f 33 41 48
f 42 50 49
f 43 51 50
f 44 52 51
f 44 45 53
f 45 46 54
f 46 47 55
f 48 56 55
f 41 49 56
f 50 58 57
f 51 59 58
f 52 60 59
f 52 53 61
f 53 54 62
f 54 55 63
f 56 64 63
f 49 57 64
f 58 66 65
f 59 67 66
f 60 68 67
f 60 61 69
f 61 62 70
f 62 63 71
f 64 72 71
f 57 65 72
f 66 74 73
f 67 75 74
f 68 76 75
f 68 69 77
f 69 70 78
f 70 71 79
f 72 80 79
f 65 73 80
f 74 82 81
f 75 83 82
f 76 84 83
f 76 77 85
f 77 78 86
f 78 79 87
f 80 88 87
f 73 81 88
f 82 90 89
f 83 91 90
f 84 92 91
f 84 85 93
f 85 86 94
f 86 87 95
f 88 96 95
f 81 89 96
f 90 98 97
f 91 99 98
f 92 100 99
f 92 93 101
f 93 94 102
f 94 95 103
f 96 104 103
f 89 97 104
f 98 106 105
f 99 107 106
f 100 108 107
f 100 101 109
f 101 102 110
f 102 103 111
f 104 112 111
f 97 105 112
f 106 114 113
f 107 115 114
f 108 116 115
f 108 109 117
f 109 110 118
f 110 111 119
f 112 120 119
f 105 113 120
f 114 122 121
f 115 123 122
f 116 124 123
f 116 117 125
f 117 118 126
f 118 119 127
f 120 128 127
f 113 121 128
f 122 130 129
f 123 131 130
f 124 132 131
f 124 125 133
f 125 126 134
f 126 127 135
f 128 136 135
f 121 129 136
f 130 138 137
f 131 139 138
f 132 140 139
f 132 133 141
f 133 134 142
f 134 135 143
f 136 144 143
f 129 137 144
f 138 146 145
f 139 147 146
f 140 148 147
f 140 141 149
f 141 142 150
f 142 143 151
f 144 152 151
f 137 145 152
f 146 154 153
f 147 155 154
f 148 156 155
f 148 149 157
f 149 150 158
f 150 151 159
f 152 160 159
f 145 153 160
f 154 162 161
f 155 163 162
f 156 164 163
f 156 157 165
f 157 158 166
f 158 159 167
f 160 168 167
f 153 161 168
f 162 170 169
f 163 171 170
f 164 172 171
f 164 165 173
f 165 166 174
f 166 167 175
f 168 176 175
f 161 169 176
f 170 178 177
f 171 179 178
f 172 180 179
f 172 173 181
f 173 174 182
f 174 175 183
f 176 184 183
f 169 177 184
f 178 186 185
f 179 187 186
f 179 180 188
f 180 181 189
f 181 182 190
f 182 183 191
f 184 192 191
f 177 185 192
f 186 194 193
f 187 195 194
f 188 196 195
f 188 189 197
f 189 190 198
f 190 191 199
f 192 200 199
f 185 193 200
f 194 202 201
f 195 203 202
f 196 204 203
f 196 197 205
f 197 198 206
f 198 199 207
f 200 208 207
f 193 201 208
f 202 210 209
f 203 211 210
f 204 212 211
f 204 205 213
f 205 206 214
f 206 207 215
f 208 216 215
f 201 209 216
f 210 218 217
f 211 219 218
f 212 220 219
f 212 213 221
f 213 214 222
f 214 215 223
f 216 224 223
f 209 217 224
f 218 226 225
f 219 227 226
f 220 228 227
f 220 221 229
f 221 222 230
f 222 223 231
f 223 224 232
f 217 225 232
f 226 234 233
f 227 235 234
f 228 236 235
f 228 229 237
f 229 230 238
f 230 231 239
f 232 240 239
f 225 233 240
f 234 242 241
f 235 243 242
f 235 236 244
f 236 237 245
f 237 238 246
f 238 239 247
f 240 248 247
f 233 241 248
f 242 250 249
f 243 251 250
f 243 244 252
f 244 245 253
f 246 254 253
f 246 247 255
f 248 256 255
f 241 249 256
f 249 250 258
f 250 251 259
f 252 260 259
f 253 261 260
f 253 254 262
f 254 255 263
f 256 264 263
f 249 257 264
f 258 266 265
f 258 259 267
f 260 268 267
f 261 269 268
f 262 270 269
f 263 271 270
f 263 264 272
f 264 257 265
f 266 274 273
f 266 267 275
f 268 276 275
f 269 277 276
f 270 278 277
f 271 279 278
f 271 272 280
f 272 265 273
f 274 282 281
f 274 275 283
f 276 284 283
f 277 285 284
f 278 286 285
f 279 287 286
f 279 280 288
f 280 273 281
f 281 282 290
f 283 291 290
f 284 292 291
f 285 293 292
f 286 294 293
f 287 295 294
f 288 296 295
f 288 281 289
f 289 290 298
f 290 291 299
f 292 300 299
f 293 301 300
f 294 302 301
f 295 303 302
f 296 304 303
f 296 289 297
f 297 298 306
f 298 299 307
f 299 300 308
f 301 309 308
f 302 310 309
f 303 311 310
f 304 312 311
f 304 297 305
f 305 306 314
f 306 307 315
f 307 308 316
f 309 317 316
f 310 318 317
f 311 319 318
f 312 320 319
f 312 305 313
f 313 314 322
f 314 315 323
f 316 324 323
f 317 325 324
f 318 326 325
f 319 327 326
f 320 328 327
f 320 313 321
f 321 322 330
f 322 323 331
f 324 332 331
f 325 333 332
f 326 334 333
f 327 335 334
f 327 328 336
f 328 321 329
f 329 330 338
f 330 331 339
f 332 340 339
f 333 341 340
f 334 342 341
f 335 343 342
f 336 344 343
f 336 329 337
f 337 338 346
f 338 339 347
f 339 340 348
f 341 349 348
f 342 350 349
f 343 351 350
f 344 352 351
f 344 337 345
f 345 346 354
f 346 347 355
f 348 356 355
f 349 357 356
f 350 358 357
f 351 359 358
f 352 360 359
f 352 345 353
f 353 354 362
f 354 355 363
f 356 364 363
f 357 365 364
f 358 366 365
f 359 367 366
f 359 360 368
f 360 353 361
f 361 362 370
f 362 363 371
f 364 372 371
f 365 373 372
f 366 374 373
f 367 375 374
f 368 376 375
f 368 361 369
f 369 370 378
f 370 371 379
f 372 380 379
f 373 381 380
f 374 382 381
f 375 383 382
f 376 384 383
f 376 369 377
f 377 378 386
f 378 379 387
f 380 388 387
f 381 389 388
f 382 390 389
f 383 391 390
f 383 384 392
f 384 377 385
f 385 386 394
f 386 387 395
f 388 396 395
f 389 397 396
f 390 398 397
f 391 399 398
f 392 400 399
f 392 385 393
f 393 394 402
f 394 395 403
f 396 404 403
f 397 405 404
f 398 406 405
f 399 407 406
f 400 408 407
f 400 393 401
f 401 402 410
f 402 403 411
f 404 412 411
f 405 413 412
f 406 414 413
f 407 415 414
f 407 408 416
f 408 401 409
f 409 410 418
f 410 411 419
f 412 420 419
f 413 421 420
f 414 422 421
f 415 423 422
f 415 416 424
f 416 409 417
f 417 418 426
f 418 419 427
f 420 428 427
f 421 429 428
f 422 430 429
f 423 431 430
f 424 432 431
f 424 417 425
f 425 426 434
f 426 427 435
f 428 436 435
f 429 437 436
f 430 438 437
f 431 439 438
f 432 440 439
f 432 425 433
f 433 434 442
f 434 435 443
f 436 444 443
f 437 445 444
f 438 446 445
f 439 447 446
f 440 448 447
f 440 433 441
f 441 442 450
f 442 443 451
f 444 452 451
f 445 453 452
f 446 454 453
f 447 455 454
f 448 456 455
f 448 441 449
f 449 450 458
f 450 451 459
f 452 460 459
f 453 461 460
f 454 462 461
f 455 463 462
f 456 464 463
f 456 449 457
f 457 458 466
f 458 459 467
f 460 468 467
f 461 469 468
f 462 470 469
f 463 471 470
f 464 472 471
f 464 457 465
f 465 466 474
f 466 467 475
f 468 476 475
f 469 477 476
f 470 478 477
f 471 479 478
f 472 480 479
f 472 465 473
f 473 474 482
f 474 475 483
f 476 484 483
f 477 485 484
f 478 486 485
f 479 487 486
f 480 488 487
f 480 473 481
f 481 482 490
f 482 483 491
f 484 492 491
f 485 493 492
f 486 494 493
f 487 495 494
f 488 496 495
f 488 481 489
f 489 490 498
f 490 491 499
f 492 500 499
f 493 501 500
f 494 502 501
f 495 503 502
f 496 504 503
f 496 489 497
f 497 498 506
f 499 507 506
f 500 508 507
f 501 509 508
f 502 510 509
f 503 511 510
f 504 512 511
f 497 505 512
f 506 514 513
f 507 515 514
f 508 516 515
f 509 517 516
f 510 518 517
f 511 519 518
f 512 520 519
f 505 513 520
f 514 522 521
f 515 523 522
f 516 524 523
f 517 525 524
f 518 526 525
f 519 527 526
f 520 528 527
f 513 521 528
f 522 530 529
f 523 531 530
f 524 532 531
f 525 533 532
f 525 526 534
f 527 535 534
f 528 536 535
f 521 529 536
f 530 538 537
f 531 539 538
f 532 540 539
f 532 533 541
f 533 534 542
f 534 535 543
f 536 544 543
f 529 537 544
f 538 546 545
f 539 547 546
f 540 548 547
f 540 541 549
f 541 542 550
f 542 543 551
f 544 552 551
f 537 545 552
f 546 554 553
f 547 555 554
f 548 556 555
f 548 549 557
f 549 550 558
f 550 551 559
f 552 560 559
f 545 553 560
f 554 562 561
f 555 563 562
f 556 564 563
f 556 557 565
f 557 558 566
f 558 559 567
f 560 568 567
f 553 561 568
f 562 570 569
f 563 571 570
f 564 572 571
f 564 565 573
f 565 566 574
f 566 567 575
f 568 576 575
f 561 569 576
f 570 578 577
f 571 579 578
f 572 580 579
f 572 573 581
f 573 574 582
f 574 575 583
f 576 584 583
f 569 577 584
f 578 586 585
f 579 587 586
f 580 588 587
f 580 581 589
f 581 582 590
f 582 583 591
f 584 592 591
f 577 585 592
f 586 594 593
f 587 595 594
f 588 596 595
f 588 589 597
f 589 590 598
f 590 591 599
f 592 600 599
f 585 593 600
f 594 602 601
f 595 603 602
f 596 604 603
f 596 597 605
f 597 598 606
f 598 599 607
f 600 608 607
f 593 601 608
f 602 610 609
f 603 611 610
f 603 604 612
f 604 605 613
f 605 606 614
f 606 607 615
f 608 616 615
f 601 609 616
f 610 618 617
f 611 619 618
f 611 612 620
f 612 613 621
f 613 614 622
f 614 615 623
f 616 624 623
f 609 617 624
f 618 626 625
f 619 627 626
f 620 628 627
f 620 621 629
f 621 622 630
f 622 623 631
f 624 632 631
f 617 625 632
f 626 634 633
f 627 635 634
f 627 628 636
f 628 629 637
f 629 630 638
f 630 631 639
f 632 640 639
f 625 633 640
f 634 642 641
f 635 643 642
f 636 644 643
f 636 637 645
f 637 638 646
f 638 639 647
f 640 648 647
f 633 641 648
f 642 650 649
f 643 651 650
f 643 644 652
f 644 645 653
f 645 646 654
f 646 647 655
f 648 656 655
f 641 649 656
f 650 658 657
f 651 659 658
f 651 652 660
f 652 653 661
f 653 654 662
f 654 655 663
f 656 664 663
f 649 657 664
f 658 666 665
f 659 667 666
f 659 660 668
f 660 661 669
f 661 662 670
f 662 663 671
f 664 672 671
f 657 665 672
f 666 674 673
f 667 675 674
f 668 676 675
f 668 669 677
f 669 670 678
f 670 671 679
f 671 672 680
f 665 673 680
f 674 682 681
f 675 683 682
f 675 676 684
f 676 677 685
f 677 678 686
f 678 679 687
f 680 688 687
f 673 681 688
f 682 690 689
f 683 691 690
f 683 684 692
f 684 685 693
f 685 686 694
f 686 687 695
f 688 696 695
f 681 689 696
f 690 698 697
f 691 699 698
f 691 692 700
f 692 693 701
f 693 694 702
f 694 695 703
f 696 704 703
f 689 697 704
f 698 706 705
f 699 707 706
f 700 708 707
f 700 701 709
f 701 702 710
f 702 703 711
f 704 712 711
f 697 705 712
f 706 714 713
f 707 715 714
f 707 708 716
f 708 709 717
f 709 710 718
f 710 711 719
f 711 712 720
f 705 713 720
f 714 722 721
f 715 723 722
f 715 716 724
f 716 717 725
f 717 718 726
f 718 719 727
f 719 720 728
f 713 721 728
f 722 730 729
f 723 731 730
f 723 724 732
f 724 725 733
f 725 726 734
f 726 727 735
f 728 736 735
f 721 729 736
f 730 738 737
f 731 739 738
f 731 732 740
f 732 733 741
f 733 734 742
f 734 735 743
f 736 744 743
f 729 737 744
f 738 746 745
f 739 747 746
f 740 748 747
f 741 749 748
f 741 742 750
f 742 743 751
f 743 744 752
f 737 745 752
f 746 754 753
f 747 755 754
f 747 748 756
f 748 749 757
f 749 750 758
f 750 751 759
f 751 752 760
f 745 753 760
f 754 762 761
f 755 763 762
f 756 764 763
f 757 765 764
f 758 766 765
f 758 759 767
f 760 768 767
f 753 761 768
f 762 770 769
f 762 763 771
f 764 772 771
f 764 765 773
f 765 766 774
f 767 775 774
f 767 768 776
f 761 769 776
f 770 778 777
f 771 779 778
f 772 780 779
f 773 781 780
f 774 782 781
f 775 783 782
f 776 784 783
f 769 777 784
f 777 778 786
f 779 787 786
f 780 788 787
f 781 789 788
f 782 790 789
f 783 791 790
f 784 792 791
f 784 777 785
f 785 786 794
f 786 787 795
f 788 796 795
f 789 797 796
f 790 798 797
f 791 799 798
f 792 800 799
f 785 793 800
f 793 794 802
f 794 795 803
f 796 804 803
f 797 805 804
f 798 806 805
f 799 807 806
f 800 808 807
f 800 793 801
f 801 802 810
f 802 803 811
f 804 812 811
f 805 813 812
f 806 814 813
f 807 815 814
f 808 816 815
f 808 801 809
f 809 810 818
f 810 811 819
f 812 820 819
f 813 821 820
f 814 822 821
f 815 823 822
f 816 824 823
f 816 809 817
f 817 818 826
f 818 819 827
f 820 828 827
f 821 829 828
f 822 830 829
f 823 831 830
f 824 832 831
f 824 817 825
f 825 826 834
f 826 827 835
f 828 836 835
f 829 837 836
f 830 838 837
f 831 839 838
f 832 840 839
f 832 825 833
f 833 834 842
f 834 835 843
f 836 844 843
f 837 845 844
f 838 846 845
f 839 847 846
f 840 848 847
f 840 833 841
f 841 842 850
f 842 843 851
f 844 852 851
f 845 853 852
f 846 854 853
f 847 855 854
f 848 856 855
f 848 841 849
f 849 850 858
f 850 851 859
f 852 860 859
f 853 861 860
f 854 862 861
f 855 863 862
f 855 856 864
f 856 849 857
f 857 858 866
f 858 859 867
f 860 868 867
f 861 869 868
f 862 870 869
f 863 871 870
f 863 864 872
f 864 857 865
f 865 866 874
f 866 867 875
f 868 876 875
f 869 877 876
f 870 878 877
f 871 879 878
f 871 872 880
f 872 865 873
f 873 874 882
f 874 875 883
f 876 884 883
f 877 885 884
f 878 886 885
f 879 887 886
f 880 888 887
f 880 873 881
f 881 882 890
f 882 883 891
f 884 892 891
f 885 893 892
f 886 894 893
f 887 895 894
f 888 896 895
f 888 881 889
f 889 890 898
f 890 891 899
f 892 900 899
f 893 901 900
f 894 902 901
f 895 903 902
f 895 896 904
f 896 889 897
f 897 898 906
f 898 899 907
f 900 908 907
f 901 909 908
f 902 910 909
f 903 911 910
f 903 904 912
f 904 897 905
f 905 906 914
f 906 907 915
f 908 916 915
f 909 917 916
f 910 918 917
f 911 919 918
f 912 920 919
f 912 905 913
f 913 914 922
f 914 915 923
f 916 924 923
f 917 925 924
f 918 926 925
f 919 927 926
f 919 920 928
f 920 913 921
f 921 922 930
f 922 923 931
f 924 932 931
f 925 933 932
f 926 934 933
f 927 935 934
f 927 928 936
f 928 921 929
f 929 930 938
f 930 931 939
f 932 940 939
f 933 941 940
f 934 942 941
f 935 943 942
f 936 944 943
f 936 929 937
f 937 938 946
f 938 939 947
f 940 948 947
f 941 949 948
f 942 950 949
f 943 951 950
f 944 952 951
f 944 937 945
f 945 946 954
f 946 947 955
f 948 956 955
f 949 957 956
f 950 958 957
f 951 959 958
f 952 960 959
f 952 945 953
f 953 954 962
f 954 955 963
f 956 964 963
f 957 965 964
f 958 966 965
f 959 967 966
f 960 968 967
f 960 953 961
f 961 962 970
f 962 963 971
f 964 972 971
f 965 973 972
f 966 974 973
f 967 975 974
f 968 976 975
f 968 961 969
f 969 970 978
f 970 971 979
f 972 980 979
f 973 981 980
f 974 982 981
f 975 983 982
f 976 984 983
f 976 969 977
f 977 978 986
f 978 979 987
f 980 988 987
f 981 989 988
f 982 990 989
f 983 991 990
f 984 992 991
f 984 977 985
f 985 986 994
f 986 987 995
f 988 996 995
f 989 997 996
f 990 998 997
f 991 999 998
f 992 1000 999
f 992 985 993
f 993 994 1002
f 994 995 1003
f 996 1004 1003
f 997 1005 1004
f 998 1006 1005
f 999 1007 1006
f 1000 1008 1007
f 1000 993 1001
f 1001 1002 1010
f 1002 1003 1011
f 1004 1012 1011
f 1005 1013 1012
f 1006 1014 1013
f 1007 1015 1014
f 1008 1016 1015
f 1008 1001 1009
f 1009 1010 1018
f 1011 1019 1018
f 1012 1020 1019
f 1013 1021 1020
f 1014 1022 1021
f 1015 1023 1022
f 1016 1024 1023
f 1009 1017 1024
f 1018 1026 1025
f 1019 1027 1026
f 1019 1020 1028
f 1020 1021 1029
f 1021 1022 1030
f 1022 1023 1031
f 1024 1032 1031
f 1017 1025 1032
