# eclipse GreatOrbit1_OrbitGlow.obj: Roblox cue frame, recentred on its bounding box
v 0.01644 0.99197 3.36874
v 0.01816 0.98680 3.34973
v 0.01293 0.97326 3.33630
v 0.00275 0.95652 3.33357
v -0.00849 0.94298 3.34260
v -0.01650 0.93781 3.35993
v -0.01822 0.94298 3.37894
v -0.01299 0.95652 3.39237
v -0.00281 0.97326 3.39510
v 0.00843 0.98680 3.38607
v -0.03842 1.02772 3.35401
v -0.03569 1.02188 3.33531
v -0.04007 1.00779 3.32215
v -0.04988 0.99081 3.31955
v -0.06137 0.97744 3.32851
v -0.07016 0.97278 3.34561
v -0.07289 0.97862 3.36430
v -0.06851 0.99272 3.37747
v -0.05870 1.00969 3.38006
v -0.04721 1.02306 3.37111
v -0.09368 1.06137 3.33086
v -0.08902 1.05430 3.31298
v -0.09178 1.03917 3.30054
v -0.10089 1.02177 3.29829
v -0.11288 1.00873 3.30709
v -0.12317 1.00504 3.32357
v -0.12782 1.01210 3.34144
v -0.12507 1.02723 3.35388
v -0.11596 1.04464 3.35614
v -0.10397 1.05768 3.34734
v -0.14858 1.09242 3.29958
v -0.14214 1.08430 3.28274
v -0.14340 1.06829 3.27119
v -0.15188 1.05052 3.26935
v -0.16433 1.03777 3.27792
v -0.17601 1.03491 3.29362
v -0.18244 1.04303 3.31047
v -0.18118 1.05904 3.32202
v -0.17270 1.07681 3.32386
v -0.16025 1.08956 3.31529
v -0.20296 1.12080 3.26030
v -0.19494 1.11181 3.24462
v -0.19488 1.09508 3.23407
v -0.20279 1.07701 3.23268
v -0.21567 1.06450 3.24098
v -0.22858 1.06233 3.25580
v -0.23660 1.07133 3.27148
v -0.23667 1.08805 3.28203
v -0.22875 1.10612 3.28342
v -0.21587 1.11863 3.27512
v -0.25670 1.14645 3.21314
v -0.24730 1.13676 3.19869
v -0.24609 1.11946 3.18919
v -0.25352 1.10116 3.18826
v -0.26677 1.08884 3.19627
v -0.28076 1.08722 3.21015
v -0.29016 1.09691 3.22460
v -0.29137 1.11421 3.23411
v -0.28394 1.13252 3.23503
v -0.27069 1.14483 3.22703
v -0.30967 1.16932 3.15826
v -0.29910 1.15909 3.14504
v -0.29691 1.14135 3.13659
v -0.30393 1.12287 3.13612
v -0.31750 1.11071 3.14382
v -0.33241 1.10952 3.15675
v -0.34299 1.11974 3.16997
v -0.34518 1.13749 3.17843
v -0.33815 1.15597 3.17890
v -0.32459 1.16813 3.17119
v -0.36176 1.18937 3.09580
v -0.35020 1.17874 3.08378
v -0.34719 1.16066 3.07634
v -0.35387 1.14205 3.07632
v -0.36770 1.13001 3.08372
v -0.38340 1.12914 3.09572
v -0.39496 1.13977 3.10774
v -0.39798 1.15784 3.11518
v -0.39129 1.17646 3.11520
v -0.37746 1.18850 3.10780
v -0.41286 1.20657 3.02592
v -0.40047 1.19564 3.01505
v -0.39677 1.17732 3.00857
v -0.40317 1.15862 3.00897
v -0.41723 1.14666 3.01608
v -0.43358 1.14603 3.02719
v -0.44597 1.15696 3.03806
v -0.44967 1.17527 3.04454
v -0.44327 1.19398 3.04415
v -0.42921 1.20593 3.03703
v -0.46287 1.22089 2.94880
v -0.44979 1.20975 2.93900
v -0.44551 1.19126 2.93343
v -0.45168 1.17248 2.93421
v -0.46593 1.16059 2.94105
v -0.48282 1.16013 2.95132
v -0.49590 1.17127 2.96112
v -0.50017 1.18976 2.96669
v -0.49401 1.20853 2.96591
v -0.47976 1.22042 2.95907
v -0.51167 1.23230 2.86461
v -0.49801 1.22102 2.85582
v -0.49326 1.20241 2.85109
v -0.49923 1.18359 2.85223
v -0.51364 1.17175 2.85881
v -0.53098 1.17140 2.86830
v -0.54464 1.18269 2.87709
v -0.54939 1.20129 2.88182
v -0.54342 1.22011 2.88068
v -0.52901 1.23196 2.87410
v -0.55916 1.24080 2.77356
v -0.54502 1.22942 2.76570
v -0.53987 1.21073 2.76176
v -0.54568 1.19189 2.76323
v -0.56022 1.18007 2.76956
v -0.57794 1.17980 2.77833
v -0.59208 1.19118 2.78619
v -0.59723 1.20987 2.79014
v -0.59143 1.22871 2.78866
v -0.57689 1.24053 2.78233
v -0.60524 1.24636 2.67587
v -0.59070 1.23492 2.66887
v -0.58522 1.21619 2.66565
v -0.59088 1.19733 2.66743
v -0.60554 1.18553 2.67354
v -0.62358 1.18531 2.68163
v -0.63812 1.19675 2.68863
v -0.64360 1.21547 2.69185
v -0.63794 1.23434 2.69007
v -0.62328 1.24613 2.68396
v -0.64980 1.24897 2.57176
v -0.63492 1.23751 2.56556
v -0.62916 1.21876 2.56301
v -0.63471 1.19989 2.56507
v -0.64946 1.18811 2.57097
v -0.66777 1.18791 2.57844
v -0.68265 1.19937 2.58464
v -0.68841 1.21811 2.58719
v -0.68286 1.23698 2.58513
v -0.66811 1.24877 2.57923
v -0.69275 1.24863 2.46148
v -0.67759 1.23717 2.45602
v -0.67159 1.21842 2.45409
v -0.67704 1.19956 2.45642
v -0.69187 1.18778 2.46212
v -0.71040 1.18758 2.46901
v -0.72557 1.19904 2.47447
v -0.73157 1.21779 2.47640
v -0.72611 1.23666 2.47407
v -0.71129 1.24844 2.46837
v -0.73398 1.24536 2.34529
v -0.71858 1.23391 2.34052
v -0.71238 1.21518 2.33917
v -0.71775 1.19632 2.34174
v -0.73264 1.18453 2.34726
v -0.75137 1.18433 2.35362
v -0.76678 1.19578 2.35838
v -0.77298 1.21451 2.35974
v -0.76760 1.23336 2.35716
v -0.75271 1.24515 2.35165
v -0.77341 1.23914 2.22347
v -0.75779 1.22772 2.21935
v -0.75142 1.20902 2.21853
v -0.75673 1.19017 2.22133
v -0.77168 1.17838 2.22668
v -0.79057 1.17816 2.23253
v -0.80618 1.18958 2.23665
v -0.81255 1.20828 2.23747
v -0.80725 1.22713 2.23467
v -0.79230 1.23891 2.22932
v -0.81093 1.23001 2.09630
v -0.79514 1.21864 2.09278
v -0.78862 1.19997 2.09247
v -0.79387 1.18114 2.09548
v -0.80887 1.16934 2.10067
v -0.82790 1.16908 2.10605
v -0.84369 1.18046 2.10957
v -0.85020 1.19913 2.10989
v -0.84496 1.21796 2.10687
v -0.82996 1.22976 2.10169
v -0.84647 1.21799 1.96410
v -0.83053 1.20666 1.96114
v -0.82388 1.18803 1.96130
v -0.82908 1.16922 1.96451
v -0.84412 1.15741 1.96955
v -0.86327 1.15712 1.97449
v -0.87921 1.16845 1.97745
v -0.88585 1.18708 1.97729
v -0.88066 1.20589 1.97407
v -0.86561 1.21770 1.96904
v -0.87993 1.20311 1.82717
v -0.86386 1.19183 1.82474
v -0.85711 1.17325 1.82535
v -0.86226 1.15446 1.82875
v -0.87734 1.14264 1.83365
v -0.89659 1.14230 1.83817
v -0.91266 1.15357 1.84059
v -0.91941 1.17215 1.83998
v -0.91426 1.19094 1.83658
v -0.89918 1.20277 1.83169
v -0.91124 1.18539 1.68583
v -0.89506 1.17418 1.68392
v -0.88822 1.15565 1.68495
v -0.89334 1.13688 1.68853
v -0.90845 1.12505 1.69329
v -0.92779 1.12466 1.69741
v -0.94396 1.13587 1.69933
v -0.95080 1.15440 1.69830
v -0.94569 1.17317 1.69472
v -0.93058 1.18500 1.68996
v -0.94033 1.16489 1.54044
v -0.92406 1.15375 1.53901
v -0.91714 1.13527 1.54044
v -0.92222 1.11653 1.54419
v -0.93736 1.10468 1.54882
v -0.95677 1.10424 1.55257
v -0.97305 1.11539 1.55400
v -0.97996 1.13386 1.55257
v -0.97488 1.15260 1.54883
v -0.95975 1.16445 1.54419
v -0.96713 1.14166 1.39134
v -0.95078 1.13058 1.39036
v -0.94379 1.11217 1.39218
v -0.94884 1.09345 1.39608
v -0.96400 1.08158 1.40060
v -0.98348 1.08109 1.40399
v -0.99984 1.09216 1.40496
v -1.00682 1.11058 1.40315
v -1.00177 1.12929 1.39924
v -0.98661 1.14117 1.39473
v -0.99157 1.11575 1.23887
v -0.97515 1.10474 1.23834
v -0.96810 1.08639 1.24052
v -0.97313 1.06770 1.24459
v -0.98831 1.05581 1.24898
v -1.00785 1.05526 1.25202
v -1.02427 1.06626 1.25256
v -1.03132 1.08462 1.25038
v -1.02629 1.10331 1.24631
v -1.01111 1.11520 1.24192
v -1.01360 1.08722 1.08342
v -0.99712 1.07629 1.08331
v -0.99002 1.05800 1.08585
v -0.99503 1.03934 1.09006
v -1.01023 1.02743 1.09434
v -1.02981 1.02682 1.09705
v -1.04630 1.03775 1.09716
v -1.05339 1.05604 1.09463
v -1.04838 1.07470 1.09041
v -1.03318 1.08661 1.08613
v -1.03316 1.05614 0.92535
v -1.01663 1.04529 0.92565
v -1.00949 1.02707 0.92853
v -1.01449 1.00844 0.93288
v -1.02970 0.99651 0.93706
v -1.04932 0.99584 0.93945
v -1.06585 1.00669 0.93915
v -1.07299 1.02491 0.93627
v -1.06799 1.04354 0.93191
v -1.05278 1.05547 0.92774
v -1.05021 1.02259 0.76504
v -1.03363 1.01183 0.76574
v -1.02647 0.99367 0.76895
v -1.03145 0.97507 0.77344
v -1.04667 0.96312 0.77751
v -1.06632 0.96239 0.77959
v -1.08290 0.97315 0.77889
v -1.09007 0.99130 0.77568
v -1.08509 1.00991 0.77118
v -1.06986 1.02186 0.76712
v -1.06470 0.98665 0.60287
v -1.04809 0.97597 0.60396
v -1.04090 0.95789 0.60749
v -1.04587 0.93931 0.61212
v -1.06110 0.92734 0.61609
v -1.08078 0.92654 0.61786
v -1.09739 0.93722 0.61678
v -1.10459 0.95530 0.61324
v -1.09962 0.97388 0.60861
v -1.08438 0.98585 0.60465
v -1.07661 0.94840 0.43924
v -1.05997 0.93781 0.44071
v -1.05276 0.91980 0.44456
v -1.05772 0.90126 0.44932
v -1.07296 0.88926 0.45318
v -1.09266 0.88840 0.45466
v -1.10930 0.89899 0.45320
v -1.11652 0.91700 0.44935
v -1.11155 0.93554 0.44458
v -1.09631 0.94753 0.44072
v -1.08590 0.90794 0.27454
v -1.06924 0.89744 0.27637
v -1.06201 0.87951 0.28053
v -1.06696 0.86100 0.28543
v -1.08221 0.84898 0.28919
v -1.10193 0.84804 0.29038
v -1.11859 0.85854 0.28854
v -1.12582 0.87647 0.28438
v -1.12087 0.89498 0.27948
v -1.10562 0.90700 0.27572
v -1.09255 0.86536 0.10915
v -1.07588 0.85495 0.11136
v -1.06863 0.83710 0.11582
v -1.07358 0.81863 0.12085
v -1.08884 0.80658 0.12451
v -1.10857 0.80557 0.12541
v -1.12524 0.81598 0.12321
v -1.13248 0.83383 0.11874
v -1.12753 0.85231 0.11372
v -1.11228 0.86435 0.11005
v -1.09655 0.82077 -0.05651
v -1.07987 0.81046 -0.05394
v -1.07262 0.79269 -0.04917
v -1.07756 0.77425 -0.04402
v -1.09282 0.76218 -0.04046
v -1.11256 0.76109 -0.03984
v -1.12924 0.77140 -0.04241
v -1.13649 0.78918 -0.04718
v -1.13154 0.80762 -0.05233
v -1.11628 0.81969 -0.05589
v -1.09788 0.77427 -0.22206
v -1.08120 0.76406 -0.21913
v -1.07394 0.74637 -0.21406
v -1.07889 0.72797 -0.20878
v -1.09415 0.71587 -0.20531
v -1.11389 0.71471 -0.20498
v -1.13057 0.72492 -0.20790
v -1.13782 0.74261 -0.21298
v -1.13288 0.76101 -0.21825
v -1.11762 0.77311 -0.22172
v -1.09654 0.72598 -0.38709
v -1.07986 0.71587 -0.38380
v -1.07262 0.69827 -0.37843
v -1.07757 0.67990 -0.37302
v -1.09283 0.66778 -0.36965
v -1.11256 0.66654 -0.36960
v -1.12924 0.67664 -0.37289
v -1.13649 0.69424 -0.37826
v -1.13154 0.71261 -0.38366
v -1.11628 0.72473 -0.38703
v -1.09254 0.67601 -0.55121
v -1.07587 0.66601 -0.54756
v -1.06863 0.64850 -0.54189
v -1.07359 0.63017 -0.53636
v -1.08885 0.61802 -0.53308
v -1.10858 0.61669 -0.53331
v -1.12525 0.62669 -0.53696
v -1.13249 0.64420 -0.54263
v -1.12753 0.66253 -0.54816
v -1.11227 0.67468 -0.55144
v -1.08589 0.62447 -0.71402
v -1.06923 0.61459 -0.71001
v -1.06201 0.59717 -0.70404
v -1.06697 0.57888 -0.69838
v -1.08222 0.56670 -0.69520
v -1.10194 0.56529 -0.69572
v -1.11860 0.57517 -0.69972
v -1.12582 0.59259 -0.70570
v -1.12086 0.61088 -0.71135
v -1.10561 0.62306 -0.71453
v -1.07659 0.57151 -0.87514
v -1.05996 0.56174 -0.87076
v -1.05276 0.54442 -0.86449
v -1.05773 0.52618 -0.85870
v -1.07297 0.51396 -0.85562
v -1.09268 0.51245 -0.85642
v -1.10931 0.52222 -0.86079
v -1.11652 0.53954 -0.86707
v -1.11155 0.55778 -0.87286
v -1.09630 0.56999 -0.87594
v -1.06468 0.51723 -1.03417
v -1.04808 0.50759 -1.02943
v -1.04090 0.49038 -1.02285
v -1.04588 0.47217 -1.01693
v -1.06112 0.45993 -1.01395
v -1.08080 0.45832 -1.01504
v -1.09741 0.46796 -1.01978
v -1.10459 0.48517 -1.02637
v -1.09961 0.50338 -1.03228
v -1.08437 0.51562 -1.03526
v -1.05019 0.46177 -1.19074
v -1.03362 0.45226 -1.18563
v -1.02647 0.43516 -1.17873
v -1.03146 0.41701 -1.17269
v -1.04669 0.40473 -1.16980
v -1.06635 0.40302 -1.17119
v -1.08292 0.41253 -1.17630
v -1.09007 0.42963 -1.18320
v -1.08507 0.44778 -1.18924
v -1.06984 0.46006 -1.19212
v -1.03313 0.40527 -1.34447
v -1.01661 0.39590 -1.33897
v -1.00949 0.37892 -1.33176
v -1.01450 0.36081 -1.32558
v -1.02973 0.34849 -1.32280
v -1.04935 0.34667 -1.32448
v -1.06587 0.35605 -1.32998
v -1.07299 0.37303 -1.33720
v -1.06798 0.39114 -1.34337
v -1.05276 0.40345 -1.34615
v -1.01357 0.34786 -1.49499
v -0.99710 0.33864 -1.48910
v -0.99002 0.32178 -1.48156
v -0.99505 0.30372 -1.47525
v -1.01026 0.29137 -1.47257
v -1.02984 0.28943 -1.47456
v -1.04632 0.29866 -1.48045
v -1.05339 0.31552 -1.48799
v -1.04836 0.33357 -1.49430
v -1.03315 0.34593 -1.49698
v -0.99154 0.28968 -1.64194
v -0.97512 0.28061 -1.63565
v -0.96810 0.26388 -1.62777
v -0.97315 0.24588 -1.62132
v -0.98835 0.23349 -1.61876
v -1.00788 0.23143 -1.62106
v -1.02430 0.24050 -1.62735
v -1.03132 0.25722 -1.63522
v -1.02627 0.27522 -1.64167
v -1.01107 0.28762 -1.64424
v -0.96709 0.23086 -1.78496
v -0.95075 0.22196 -1.77826
v -0.94379 0.20537 -1.77004
v -0.94887 0.18743 -1.76344
v -0.96404 0.17499 -1.76099
v -0.98352 0.17280 -1.76361
v -0.99986 0.18170 -1.77032
v -1.00683 0.19829 -1.77854
v -1.00175 0.21623 -1.78513
v -0.98657 0.22867 -1.78759
v -0.94029 0.17155 -1.92372
v -0.92403 0.16283 -1.91659
v -0.91714 0.14639 -1.90802
v -0.92225 0.12852 -1.90127
v -0.93740 0.11603 -1.89893
v -0.95682 0.11370 -1.90189
v -0.97308 0.12242 -1.90902
v -0.97997 0.13885 -1.91760
v -0.97486 0.15673 -1.92434
v -0.95970 0.16922 -1.92668
v -0.91119 0.11188 -2.05788
v -0.89503 0.10336 -2.05031
v -0.88822 0.08709 -2.04136
v -0.89337 0.06928 -2.03446
v -0.90850 0.05675 -2.03224
v -0.92784 0.05426 -2.03555
v -0.94400 0.06278 -2.04312
v -0.95081 0.07906 -2.05207
v -0.94566 0.09686 -2.05897
v -0.93053 0.10940 -2.06119
v -0.87987 0.05201 -2.18712
v -0.86382 0.04370 -2.17908
v -0.85711 0.02761 -2.16975
v -0.86230 0.00988 -2.16269
v -0.87740 -0.00272 -2.16060
v -0.89665 -0.00537 -2.16427
v -0.91270 0.00294 -2.17230
v -0.91941 0.01904 -2.18163
v -0.91423 0.03677 -2.18870
v -0.89912 0.04936 -2.19079
v -0.84640 -0.00793 -2.31113
v -0.83048 -0.01600 -2.30261
v -0.82388 -0.03191 -2.29288
v -0.82912 -0.04955 -2.28565
v -0.84419 -0.06221 -2.28368
v -0.86334 -0.06504 -2.28773
v -0.87925 -0.05696 -2.29625
v -0.88585 -0.04106 -2.30599
v -0.88062 -0.02341 -2.31322
v -0.86555 -0.01076 -2.31518
v -0.81086 -0.06779 -2.42961
v -0.79509 -0.07561 -2.42058
v -0.78862 -0.09130 -2.41043
v -0.79391 -0.10886 -2.40302
v -0.80894 -0.12158 -2.40120
v -0.82797 -0.12461 -2.40565
v -0.84373 -0.11679 -2.41467
v -0.85021 -0.10110 -2.42483
v -0.84492 -0.08354 -2.43224
v -0.82989 -0.07082 -2.43406
v -0.77332 -0.12744 -2.54229
v -0.75774 -0.13498 -2.53272
v -0.75142 -0.15043 -2.52212
v -0.75677 -0.16789 -2.51453
v -0.77176 -0.18069 -2.51285
v -0.79065 -0.18394 -2.51772
v -0.80623 -0.17639 -2.52728
v -0.81255 -0.16094 -2.53788
v -0.80720 -0.14348 -2.54547
v -0.79221 -0.13068 -2.54715
v -0.73389 -0.18672 -2.64888
v -0.71852 -0.19396 -2.63876
v -0.71237 -0.20915 -2.62769
v -0.71780 -0.22650 -2.61990
v -0.73274 -0.23938 -2.61837
v -0.75146 -0.24287 -2.62369
v -0.76684 -0.23563 -2.63381
v -0.77298 -0.22044 -2.64488
v -0.76755 -0.20309 -2.65266
v -0.75262 -0.19021 -2.65419
v -0.69264 -0.24551 -2.74914
v -0.67752 -0.25240 -2.73842
v -0.67158 -0.26731 -2.72686
v -0.67710 -0.28454 -2.71887
v -0.69197 -0.29751 -2.71750
v -0.71051 -0.30126 -2.72328
v -0.72563 -0.29437 -2.73400
v -0.73157 -0.27947 -2.74556
v -0.72605 -0.26224 -2.75356
v -0.71118 -0.24927 -2.75492
v -0.64968 -0.30367 -2.84283
v -0.63485 -0.31017 -2.83148
v -0.62916 -0.32475 -2.81939
v -0.63479 -0.34184 -2.81118
v -0.64958 -0.35492 -2.80999
v -0.66789 -0.35898 -2.81627
v -0.68272 -0.35247 -2.82762
v -0.68841 -0.33789 -2.83970
v -0.68279 -0.32080 -2.84791
v -0.66799 -0.30773 -2.84911
v -0.60511 -0.36105 -2.92972
v -0.59062 -0.36712 -2.91770
v -0.58522 -0.38134 -2.90506
v -0.59097 -0.39828 -2.89662
v -0.60567 -0.41146 -2.89561
v -0.62371 -0.41586 -2.90242
v -0.63820 -0.40979 -2.91443
v -0.64360 -0.39557 -2.92708
v -0.63785 -0.37864 -2.93551
v -0.62315 -0.36545 -2.93652
v -0.55901 -0.41753 -3.00961
v -0.54493 -0.42311 -2.99688
v -0.53988 -0.43691 -2.98366
v -0.54578 -0.45368 -2.97498
v -0.56037 -0.46699 -2.97416
v -0.57810 -0.47178 -2.98152
v -0.59217 -0.46620 -2.99425
v -0.59723 -0.45240 -3.00747
v -0.59133 -0.43563 -3.01615
v -0.57673 -0.42231 -3.01697
v -0.51150 -0.47298 -3.08230
v -0.49791 -0.47799 -3.06883
v -0.49327 -0.49133 -3.05498
v -0.49934 -0.50790 -3.04605
v -0.51381 -0.52136 -3.04544
v -0.53116 -0.52659 -3.05339
v -0.54474 -0.52157 -3.06686
v -0.54938 -0.50823 -3.08070
v -0.54331 -0.49166 -3.08964
v -0.52884 -0.47820 -3.09024
v -0.46267 -0.52726 -3.14761
v -0.44967 -0.53164 -3.13336
v -0.44553 -0.54445 -3.11887
v -0.45181 -0.56079 -3.10968
v -0.46613 -0.57443 -3.10929
v -0.48301 -0.58015 -3.11785
v -0.49601 -0.57577 -3.13210
v -0.50016 -0.56296 -3.14659
v -0.49387 -0.54662 -3.15579
v -0.47956 -0.53298 -3.15618
v -0.41264 -0.58026 -3.20539
v -0.40035 -0.58391 -3.19033
v -0.39679 -0.59611 -3.17518
v -0.40333 -0.61220 -3.16571
v -0.41747 -0.62603 -3.16555
v -0.43380 -0.63232 -3.17476
v -0.44609 -0.62867 -3.18982
v -0.44965 -0.61647 -3.20497
v -0.44311 -0.60039 -3.21444
v -0.42898 -0.58656 -3.21460
v -0.36151 -0.63186 -3.25549
v -0.35007 -0.63468 -3.23961
v -0.34722 -0.64618 -3.22377
v -0.35406 -0.66198 -3.21404
v -0.36798 -0.67603 -3.21411
v -0.38365 -0.68298 -3.22397
v -0.39510 -0.68016 -3.23986
v -0.39794 -0.66865 -3.25569
v -0.39110 -0.65286 -3.26543
v -0.37718 -0.63880 -3.26535
v -0.30939 -0.68194 -3.29777
v -0.29896 -0.68381 -3.28107
v -0.29696 -0.69453 -3.26457
v -0.30416 -0.70999 -3.25457
v -0.31781 -0.72430 -3.25488
v -0.33270 -0.73199 -3.26540
v -0.34313 -0.73011 -3.28210
v -0.34512 -0.71940 -3.29860
v -0.33792 -0.70393 -3.30860
v -0.32427 -0.68962 -3.30828
v -0.25639 -0.73037 -3.33211
v -0.24716 -0.73118 -3.31464
v -0.24617 -0.74101 -3.29750
v -0.25380 -0.75611 -3.28726
v -0.26713 -0.77070 -3.28781
v -0.28107 -0.77923 -3.29895
v -0.29030 -0.77842 -3.31642
v -0.29129 -0.76860 -3.33356
v -0.28366 -0.75350 -3.34381
v -0.27033 -0.73890 -3.34325
v -0.20262 -0.77706 -3.35841
v -0.19481 -0.77667 -3.34025
v -0.19501 -0.78551 -3.32256
v -0.20313 -0.80020 -3.31210
v -0.21609 -0.81513 -3.31287
v -0.22892 -0.82459 -3.32457
v -0.23673 -0.82497 -3.34274
v -0.23653 -0.81613 -3.36042
v -0.22841 -0.80144 -3.37088
v -0.21546 -0.78652 -3.37011
v -0.14823 -0.82186 -3.37657
v -0.14205 -0.82018 -3.35786
v -0.14360 -0.82795 -3.33973
v -0.15229 -0.84220 -3.32912
v -0.16480 -0.85748 -3.33008
v -0.17636 -0.86797 -3.34223
v -0.18254 -0.86965 -3.36094
v -0.18099 -0.86188 -3.37907
v -0.17229 -0.84763 -3.38968
v -0.15978 -0.83235 -3.38872
v -0.09334 -0.86466 -3.38651
v -0.08899 -0.86161 -3.36746
v -0.09206 -0.86824 -3.34908
v -0.10138 -0.88203 -3.33839
v -0.11340 -0.89770 -3.33948
v -0.12351 -0.90927 -3.35193
v -0.12786 -0.91233 -3.37098
v -0.12478 -0.90570 -3.38936
v -0.11546 -0.89191 -3.40004
v -0.10345 -0.87624 -3.39895
v -0.03811 -0.90534 -3.38817
v -0.03575 -0.90087 -3.36905
v -0.04047 -0.90635 -3.35064
v -0.05047 -0.91967 -3.33998
v -0.06193 -0.93574 -3.34113
v -0.07047 -0.94844 -3.35366
v -0.07283 -0.95290 -3.37278
v -0.06811 -0.94743 -3.39119
v -0.05811 -0.93411 -3.40186
v -0.04665 -0.91803 -3.40070
v 0.01728 -0.94375 -3.38155
v 0.01757 -0.93791 -3.36266
v 0.01113 -0.94225 -3.34447
v 0.00044 -0.95512 -3.33393
v -0.01044 -0.97160 -3.33506
v -0.01734 -0.98539 -3.34744
v -0.01762 -0.99124 -3.36633
v -0.01119 -0.98690 -3.38452
v -0.00049 -0.97403 -3.39507
v 0.01038 -0.95755 -3.39393
v 0.07265 -0.97978 -3.36667
v 0.07086 -0.97264 -3.34831
v 0.06272 -0.97593 -3.33059
v 0.05134 -0.98838 -3.32027
v 0.04106 -1.00525 -3.32130
v 0.03582 -1.02008 -3.33328
v 0.03760 -1.02722 -3.35163
v 0.04574 -1.02394 -3.36935
v 0.05712 -1.01148 -3.37967
v 0.06740 -0.99462 -3.37865
v 0.12783 -1.01332 -3.34358
v 0.12405 -1.00503 -3.32603
v 0.11429 -1.00737 -3.30899
v 0.10226 -1.01946 -3.29898
v 0.09256 -1.03668 -3.29981
v 0.08890 -1.05244 -3.31118
v 0.09267 -1.06074 -3.32873
v 0.10244 -1.05840 -3.34576
v 0.11447 -1.04631 -3.35578
v 0.12417 -1.02909 -3.35494
v 0.18265 -1.04428 -3.31237
v 0.17705 -1.03500 -3.29584
v 0.16578 -1.03654 -3.27965
v 0.15316 -1.04832 -3.27001
v 0.14401 -1.06584 -3.27058
v 0.14181 -1.08241 -3.28116
v 0.14742 -1.09170 -3.29769
v 0.15868 -1.09015 -3.31388
v 0.17130 -1.07837 -3.32352
v 0.18046 -1.06085 -3.32295
v 0.23697 -1.07258 -3.27317
v 0.22974 -1.06249 -3.25778
v 0.21714 -1.06337 -3.24256
v 0.20400 -1.07491 -3.23331
v 0.19534 -1.09268 -3.23358
v 0.19445 -1.10991 -3.24326
v 0.20169 -1.12001 -3.25864
v 0.21428 -1.11912 -3.27387
v 0.22742 -1.10759 -3.28311
v 0.23609 -1.08981 -3.28284
v 0.29066 -1.09817 -3.22610
v 0.28200 -1.08743 -3.21192
v 0.26826 -1.08780 -3.19771
v 0.25467 -1.09914 -3.18888
v 0.24643 -1.11711 -3.18881
v 0.24669 -1.13487 -3.19753
v 0.25534 -1.14561 -3.21170
v 0.26909 -1.14524 -3.22591
v 0.28267 -1.13390 -3.23474
v 0.29091 -1.11592 -3.23481
v 0.34358 -1.12099 -3.17129
v 0.33372 -1.10975 -3.15834
v 0.31900 -1.10972 -3.14514
v 0.30503 -1.12091 -3.13672
v 0.29716 -1.13905 -3.13631
v 0.29839 -1.15721 -3.14405
v 0.30825 -1.16845 -3.15700
v 0.32297 -1.16848 -3.17020
v 0.33693 -1.15728 -3.17862
v 0.34481 -1.13914 -3.17904
v 0.39563 -1.14100 -3.10890
v 0.38476 -1.12939 -3.09715
v 0.36921 -1.12907 -3.08493
v 0.35493 -1.14015 -3.07691
v 0.34737 -1.15841 -3.07615
v 0.34942 -1.17687 -3.08295
v 0.36029 -1.18848 -3.09470
v 0.37583 -1.18880 -3.10692
v 0.39011 -1.17772 -3.11494
v 0.39768 -1.15946 -3.11570
v 0.44670 -1.15817 -3.03909
v 0.43498 -1.14629 -3.02848
v 0.41874 -1.14575 -3.01719
v 0.40420 -1.15676 -3.00955
v 0.39690 -1.17511 -3.00846
v 0.39963 -1.19379 -3.01435
v 0.41135 -1.20567 -3.02496
v 0.42758 -1.20621 -3.03625
v 0.44213 -1.19520 -3.04389
v 0.44943 -1.17685 -3.04498
v 0.49667 -1.17247 -2.96203
v 0.48424 -1.16040 -2.95249
v 0.46744 -1.15971 -2.94208
v 0.45268 -1.17066 -2.93479
v 0.44560 -1.18907 -2.93338
v 0.44890 -1.20791 -2.93842
v 0.46133 -1.21998 -2.94796
v 0.47813 -1.22067 -2.95836
v 0.49289 -1.20972 -2.96566
v 0.49997 -1.19131 -2.96706
v 0.54545 -1.18387 -2.87790
v 0.53243 -1.17167 -2.86936
v 0.51515 -1.17088 -2.85977
v 0.50021 -1.18180 -2.85280
v 0.49331 -1.20025 -2.85110
v 0.49709 -1.21920 -2.85534
v 0.51010 -1.23140 -2.86388
v 0.52738 -1.23219 -2.87347
v 0.54233 -1.22127 -2.88044
v 0.54923 -1.20281 -2.88213
v 0.59292 -1.19235 -2.78691
v 0.57941 -1.18007 -2.77930
v 0.56174 -1.17922 -2.77047
v 0.54664 -1.19011 -2.76379
v 0.53989 -1.20860 -2.76182
v 0.54407 -1.22761 -2.76531
v 0.55758 -1.23989 -2.77292
v 0.57525 -1.24075 -2.78175
v 0.59035 -1.22985 -2.78843
v 0.59709 -1.21136 -2.79040
v 0.63898 -1.19790 -2.68927
v 0.62506 -1.18558 -2.68251
v 0.60705 -1.18469 -2.67439
v 0.59183 -1.19557 -2.66799
v 0.58521 -1.21408 -2.66576
v 0.58972 -1.23313 -2.66856
v 0.60364 -1.24545 -2.67531
v 0.62165 -1.24634 -2.68344
v 0.63687 -1.23545 -2.68984
v 0.64349 -1.21695 -2.69206
v 0.68353 -1.20050 -2.58520
v 0.66927 -1.18817 -2.57925
v 0.65098 -1.18727 -2.57177
v 0.63565 -1.19815 -2.56563
v 0.62914 -1.21666 -2.56317
v 0.63393 -1.23573 -2.56533
v 0.64819 -1.24807 -2.57128
v 0.66648 -1.24897 -2.57876
v 0.68181 -1.23808 -2.58490
v 0.68832 -1.21957 -2.58736
v 0.72646 -1.20017 -2.47496
v 0.71191 -1.18783 -2.46975
v 0.69338 -1.18694 -2.46288
v 0.67797 -1.19783 -2.45697
v 0.67155 -1.21634 -2.45429
v 0.67657 -1.23541 -2.45586
v 0.69113 -1.24774 -2.46107
v 0.70965 -1.24863 -2.46794
v 0.72507 -1.23774 -2.47385
v 0.73149 -1.21923 -2.47653
v 0.76768 -1.19689 -2.35881
v 0.75288 -1.18458 -2.35429
v 0.73416 -1.18370 -2.34798
v 0.71867 -1.19460 -2.34229
v 0.71232 -1.21311 -2.33940
v 0.71755 -1.23216 -2.34042
v 0.73235 -1.24447 -2.34494
v 0.75108 -1.24534 -2.35125
v 0.76657 -1.23444 -2.35694
v 0.77291 -1.21593 -2.35983
v 0.80710 -1.19067 -2.23703
v 0.79209 -1.17840 -2.23315
v 0.77319 -1.17756 -2.22736
v 0.75764 -1.18847 -2.22188
v 0.75136 -1.20697 -2.21880
v 0.75676 -1.22599 -2.21929
v 0.77177 -1.23826 -2.22318
v 0.79066 -1.23911 -2.22897
v 0.80622 -1.22819 -2.23445
v 0.81250 -1.20969 -2.23753
v 0.84462 -1.18154 -2.10990
v 0.82942 -1.16931 -2.10662
v 0.81039 -1.16851 -2.10132
v 0.79477 -1.17944 -2.09603
v 0.78855 -1.19793 -2.09277
v 0.79410 -1.21691 -2.09278
v 0.80929 -1.22914 -2.09607
v 0.82832 -1.22995 -2.10136
v 0.84394 -1.21902 -2.10665
v 0.85016 -1.20053 -2.10991
v 0.88014 -1.16952 -1.97772
v 0.86480 -1.15735 -1.97501
v 0.84564 -1.15659 -1.97017
v 0.82998 -1.16753 -1.96506
v 0.82380 -1.18601 -1.96163
v 0.82947 -1.20495 -1.96119
v 0.84482 -1.21713 -1.96391
v 0.86398 -1.21788 -1.96874
v 0.87964 -1.20694 -1.97385
v 0.88581 -1.18846 -1.97728
v 0.91360 -1.15464 -1.84082
v 0.89813 -1.14252 -1.83864
v 0.87886 -1.14181 -1.83424
v 0.86316 -1.15278 -1.82930
v 0.85703 -1.17123 -1.82571
v 0.86280 -1.19013 -1.82484
v 0.87828 -1.20225 -1.82702
v 0.89755 -1.20296 -1.83142
v 0.91325 -1.19199 -1.83636
v 0.91938 -1.17353 -1.83995
v 0.94491 -1.13692 -1.69952
v 0.92932 -1.12487 -1.69784
v 0.90996 -1.12422 -1.69385
v 0.89423 -1.13521 -1.68907
v 0.88813 -1.15364 -1.68533
v 0.89400 -1.17249 -1.68405
v 0.90959 -1.18454 -1.68573
v 0.92895 -1.18520 -1.68972
v 0.94468 -1.17421 -1.69450
v 0.95078 -1.15577 -1.69825
v 0.97400 -1.11643 -1.55416
v 0.95831 -1.10445 -1.55296
v 0.93887 -1.10385 -1.54936
v 0.92311 -1.11486 -1.54473
v 0.91704 -1.13328 -1.54084
v 0.92299 -1.15206 -1.53918
v 0.93868 -1.16405 -1.54038
v 0.95812 -1.16465 -1.54398
v 0.97388 -1.15363 -1.54861
v 0.97994 -1.13522 -1.55249
v 1.00079 -1.09320 -1.40508
v 0.98502 -1.08129 -1.40434
v 0.96552 -1.08075 -1.40111
v 0.94973 -1.09178 -1.39663
v 0.94369 -1.11018 -1.39260
v 0.94970 -1.12891 -1.39057
v 0.96548 -1.14082 -1.39131
v 0.98498 -1.14136 -1.39454
v 1.00077 -1.13032 -1.39902
v 1.00681 -1.11193 -1.40304
v 1.02523 -1.06729 -1.25264
v 1.00939 -1.05545 -1.25234
v 0.98983 -1.05498 -1.24947
v 0.97402 -1.06604 -1.24513
v 0.96800 -1.08441 -1.24097
v 0.97407 -1.10308 -1.23859
v 0.98992 -1.11492 -1.23889
v 1.00948 -1.11539 -1.24175
v 1.02529 -1.10433 -1.24610
v 1.03130 -1.08596 -1.25025
v 1.04726 -1.03876 -1.09721
v 1.03135 -1.02701 -1.09733
v 1.01174 -1.02659 -1.09481
v 0.99591 -1.03768 -1.09060
v 0.98992 -1.05603 -1.08632
v 0.99604 -1.07464 -1.08359
v 1.01194 -1.08639 -1.08347
v 1.03155 -1.08681 -1.08599
v 1.04738 -1.07572 -1.09020
v 1.05338 -1.05737 -1.09448
v 1.06682 -1.00769 -0.93916
v 1.05086 -0.99601 -0.93969
v 1.03121 -0.99567 -0.93750
v 1.01537 -1.00678 -0.93343
v 1.00938 -1.02511 -0.92902
v 1.01555 -1.04365 -0.92596
v 1.03150 -1.05533 -0.92543
v 1.05116 -1.05567 -0.92762
v 1.06700 -1.04456 -0.93170
v 1.07298 -1.02623 -0.93611
v 1.08386 -0.97414 -0.77887
v 1.06786 -0.96255 -0.77980
v 1.04818 -0.96228 -0.77794
v 1.03232 -0.97342 -0.77398
v 1.02635 -0.99172 -0.76946
v 1.03255 -1.01020 -0.76608
v 1.04855 -1.02178 -0.76515
v 1.06824 -1.02206 -0.76702
v 1.08410 -1.01092 -0.77097
v 1.09006 -0.99262 -0.77550
v 1.09836 -0.93820 -0.61673
v 1.08232 -0.92670 -0.61805
v 1.06261 -0.92650 -0.61649
v 1.04674 -0.93767 -0.61267
v 1.04079 -0.95594 -0.60802
v 1.04701 -0.97435 -0.60433
v 1.06305 -0.98585 -0.60302
v 1.08276 -0.98606 -0.60457
v 1.09863 -0.97489 -0.60840
v 1.10458 -0.95661 -0.61304
v 1.11026 -0.89996 -0.45312
v 1.09420 -0.88855 -0.45481
v 1.07446 -0.88842 -0.45357
v 1.05859 -0.89961 -0.44986
v 1.05264 -0.91787 -0.44510
v 1.05889 -0.93620 -0.44111
v 1.07496 -0.94761 -0.43941
v 1.09469 -0.94774 -0.44066
v 1.11057 -0.93655 -0.44437
v 1.11651 -0.91829 -0.44912
v 1.11955 -0.85950 -0.28843
v 1.10347 -0.84818 -0.29050
v 1.08371 -0.84813 -0.28956
v 1.06783 -0.85936 -0.28597
v 1.06189 -0.87758 -0.28110
v 1.06816 -0.89584 -0.27681
v 1.08425 -0.90716 -0.27474
v 1.10400 -0.90722 -0.27568
v 1.11988 -0.89599 -0.27927
v 1.12582 -0.87776 -0.28414
v 1.12620 -0.81693 -0.12307
v 1.11010 -0.80571 -0.12551
v 1.09033 -0.80573 -0.12487
v 1.07445 -0.81699 -0.12139
v 1.06852 -0.83518 -0.11641
v 1.07480 -0.85337 -0.11182
v 1.09090 -0.86459 -0.10938
v 1.11067 -0.86457 -0.11003
v 1.12655 -0.85331 -0.11350
v 1.13248 -0.83511 -0.11848
v 1.13020 -0.77234 0.04257
v 1.11409 -0.76122 0.03977
v 1.09431 -0.76132 0.04012
v 1.07843 -0.77261 0.04348
v 1.07250 -0.79078 0.04857
v 1.07879 -0.80888 0.05345
v 1.09490 -0.82001 0.05625
v 1.11467 -0.81991 0.05590
v 1.13056 -0.80862 0.05254
v 1.13649 -0.79045 0.04745
v 1.13153 -0.72585 0.20810
v 1.11542 -0.71483 0.20494
v 1.09564 -0.71501 0.20499
v 1.07976 -0.72634 0.20824
v 1.07383 -0.74447 0.21344
v 1.08012 -0.76249 0.21861
v 1.09623 -0.77352 0.22177
v 1.11601 -0.77333 0.22171
v 1.13190 -0.76201 0.21847
v 1.13782 -0.74387 0.21327
v 1.13020 -0.67756 0.37311
v 1.11409 -0.66664 0.36959
v 1.09431 -0.66692 0.36935
v 1.07843 -0.67827 0.37248
v 1.07250 -0.69638 0.37779
v 1.07879 -0.71432 0.38325
v 1.09490 -0.72523 0.38677
v 1.11468 -0.72496 0.38701
v 1.13056 -0.71360 0.38387
v 1.13649 -0.69550 0.37857
v 1.12620 -0.62759 0.53721
v 1.11009 -0.61679 0.53333
v 1.09033 -0.61715 0.53280
v 1.07445 -0.62854 0.53582
v 1.06852 -0.64661 0.54123
v 1.07481 -0.66446 0.54698
v 1.09091 -0.67527 0.55086
v 1.11067 -0.67491 0.55139
v 1.12655 -0.66351 0.54837
v 1.13248 -0.64544 0.54295
v 1.11954 -0.57607 0.70000
v 1.10346 -0.56537 0.69576
v 1.08370 -0.56583 0.69494
v 1.06783 -0.57726 0.69784
v 1.06189 -0.59530 0.70337
v 1.06817 -0.61306 0.70941
v 1.08426 -0.62375 0.71365
v 1.10401 -0.62329 0.71447
v 1.11989 -0.61186 0.71157
v 1.12582 -0.59382 0.70604
v 1.11025 -0.52310 0.86110
v 1.09419 -0.51253 0.85649
v 1.07445 -0.51309 0.85537
v 1.05858 -0.52456 0.85816
v 1.05264 -0.54256 0.86380
v 1.05890 -0.56022 0.87013
v 1.07497 -0.57079 0.87474
v 1.09471 -0.57023 0.87586
v 1.11058 -0.55877 0.87307
v 1.11651 -0.54076 0.86743
v 1.09835 -0.46883 1.02011
v 1.08230 -0.45839 1.01514
v 1.06259 -0.45905 1.01372
v 1.04673 -0.47056 1.01639
v 1.04079 -0.48852 1.02214
v 1.04702 -0.50608 1.02877
v 1.06307 -0.51652 1.03374
v 1.08278 -0.51586 1.03516
v 1.09864 -0.50436 1.03249
v 1.10458 -0.48639 1.02674
v 1.08385 -0.41338 1.17666
v 1.06784 -0.40307 1.17131
v 1.04816 -0.40384 1.16959
v 1.03231 -0.41539 1.17215
v 1.02635 -0.43332 1.17801
v 1.03257 -0.45077 1.18494
v 1.04857 -0.46108 1.19028
v 1.06826 -0.46031 1.19201
v 1.08411 -0.44876 1.18945
v 1.09006 -0.43083 1.18359
v 1.06680 -0.35689 1.33037
v 1.05084 -0.34672 1.32464
v 1.03118 -0.34760 1.32261
v 1.01535 -0.35920 1.32504
v 1.00938 -0.37708 1.33102
v 1.01556 -0.39442 1.33826
v 1.03153 -0.40459 1.34399
v 1.05118 -0.40371 1.34602
v 1.06701 -0.39211 1.34358
v 1.07298 -0.37423 1.33761
v 1.04724 -0.29948 1.48087
v 1.03132 -0.28946 1.47475
v 1.01171 -0.29047 1.47240
v 0.99590 -0.30211 1.47471
v 0.98992 -0.31995 1.48081
v 0.99606 -0.33717 1.48836
v 1.01197 -0.34719 1.49447
v 1.03158 -0.34619 1.49683
v 1.04740 -0.33454 1.49451
v 1.05338 -0.31670 1.48842
v 1.02521 -0.24131 1.62779
v 1.00936 -0.23145 1.62127
v 0.98979 -0.23258 1.61860
v 0.97400 -0.24428 1.62078
v 0.96800 -0.26207 1.62700
v 0.97409 -0.27916 1.63487
v 0.98995 -0.28902 1.64139
v 1.00951 -0.28788 1.64407
v 1.02531 -0.27619 1.64188
v 1.03130 -0.25840 1.63566
v 1.00077 -0.18250 1.77079
v 0.98498 -0.17281 1.76386
v 0.96548 -0.17408 1.76085
v 0.94971 -0.18583 1.76291
v 0.94369 -0.20357 1.76925
v 0.94973 -0.22053 1.77745
v 0.96551 -0.23022 1.78439
v 0.98502 -0.22894 1.78740
v 1.00079 -0.21719 1.78534
v 1.00681 -0.19945 1.77900
v 0.97397 -0.12319 1.90953
v 0.95827 -0.11369 1.90217
v 0.93883 -0.11511 1.89881
v 0.92308 -0.12693 1.90073
v 0.91704 -0.14461 1.90721
v 0.92302 -0.16141 1.91575
v 0.93872 -0.17092 1.92311
v 0.95816 -0.16949 1.92647
v 0.97390 -0.15768 1.92455
v 0.97995 -0.14000 1.91808
v 0.94488 -0.06354 2.04366
v 0.92927 -0.05424 2.03586
v 0.90991 -0.05582 2.03214
v 0.89420 -0.06770 2.03393
v 0.88813 -0.08532 2.04053
v 0.89403 -0.10197 2.04944
v 0.90964 -0.11127 2.05724
v 0.92900 -0.10969 2.06096
v 0.94471 -0.09781 2.05918
v 0.95078 -0.08019 2.05257
v 0.91357 -0.00368 2.17288
v 0.89807 0.00541 2.16461
v 0.87880 0.00365 2.16052
v 0.86313 -0.00830 2.16216
v 0.85703 -0.02586 2.16890
v 0.86283 -0.04233 2.17818
v 0.87833 -0.05142 2.18645
v 0.89760 -0.04966 2.19054
v 0.91328 -0.03771 2.18890
v 0.91938 -0.02015 2.18216
v 0.88011 0.05625 2.29686
v 0.86474 0.06510 2.28811
v 0.84558 0.06315 2.28363
v 0.82994 0.05113 2.28511
v 0.82380 0.03364 2.29201
v 0.82951 0.01736 2.30168
v 0.84488 0.00850 2.31042
v 0.86404 0.01046 2.31491
v 0.87968 0.02248 2.31342
v 0.88581 0.03997 2.30653
v 0.84457 0.11610 2.41531
v 0.82936 0.12470 2.40606
v 0.81032 0.12253 2.40116
v 0.79473 0.11043 2.40249
v 0.78855 0.09301 2.40954
v 0.79414 0.07694 2.41962
v 0.80935 0.06834 2.42887
v 0.82839 0.07051 2.43377
v 0.84398 0.08261 2.43244
v 0.85016 0.10002 2.42539
v 0.80705 0.17573 2.52796
v 0.79201 0.18404 2.51817
v 0.77312 0.18165 2.51284
v 0.75759 0.16945 2.51400
v 0.75136 0.15212 2.52122
v 0.75680 0.13628 2.53172
v 0.77185 0.12797 2.54151
v 0.79074 0.13037 2.54684
v 0.80627 0.14256 2.54568
v 0.81250 0.15989 2.53846
v 0.76763 0.23501 2.63452
v 0.75280 0.24300 2.62417
v 0.73407 0.24035 2.61839
v 0.71861 0.22805 2.61937
v 0.71232 0.21082 2.62676
v 0.71760 0.19523 2.63772
v 0.73244 0.18723 2.64807
v 0.75116 0.18989 2.65385
v 0.76662 0.20218 2.65286
v 0.77291 0.21941 2.64548
v 0.72641 0.29378 2.73475
v 0.71181 0.30142 2.72381
v 0.69329 0.29848 2.71754
v 0.67791 0.28607 2.71834
v 0.67154 0.26895 2.72591
v 0.67663 0.25364 2.73735
v 0.69122 0.24599 2.74829
v 0.70975 0.24894 2.75456
v 0.72513 0.26134 2.75375
v 0.73149 0.27847 2.74619
v 0.68347 0.35192 2.82840
v 0.66916 0.35917 2.81683
v 0.65087 0.35590 2.81005
v 0.63558 0.34337 2.81066
v 0.62913 0.32636 2.81842
v 0.63399 0.31137 2.83037
v 0.64830 0.30412 2.84194
v 0.66659 0.30738 2.84872
v 0.68188 0.31991 2.84811
v 0.68832 0.33692 2.84035
v 0.63891 0.40928 2.91526
v 0.62494 0.41608 2.90302
v 0.60693 0.41246 2.89570
v 0.59175 0.39978 2.89611
v 0.58521 0.38291 2.90407
v 0.58979 0.36827 2.91656
v 0.60376 0.36147 2.92879
v 0.62177 0.36509 2.93611
v 0.63695 0.37777 2.93570
v 0.64350 0.39464 2.92774
v 0.59284 0.46574 2.99510
v 0.57928 0.47204 2.98216
v 0.56159 0.46800 2.97428
v 0.54655 0.45517 2.97446
v 0.53988 0.43844 2.98265
v 0.54415 0.42421 2.99570
v 0.55771 0.41791 3.00864
v 0.57540 0.42195 3.01652
v 0.59044 0.43478 3.01634
v 0.59711 0.45151 3.00816
v 0.54536 0.52116 3.06775
v 0.53228 0.52689 3.05407
v 0.51499 0.52238 3.04559
v 0.50010 0.50937 3.04554
v 0.49329 0.49281 3.05396
v 0.49717 0.47904 3.06761
v 0.51026 0.47332 3.08129
v 0.52755 0.47782 3.08977
v 0.54244 0.49084 3.08982
v 0.54924 0.50739 3.08140
v 0.49658 0.57542 3.13302
v 0.48407 0.58049 3.11856
v 0.46725 0.57545 3.10946
v 0.45255 0.56223 3.10918
v 0.44557 0.54587 3.11783
v 0.44899 0.53263 3.13212
v 0.46150 0.52756 3.14658
v 0.47832 0.53260 3.15568
v 0.49302 0.54582 3.15596
v 0.50000 0.56218 3.14730
v 0.44659 0.62839 3.19075
v 0.43478 0.63271 3.17549
v 0.41852 0.62706 3.16574
v 0.40405 0.61360 3.16522
v 0.39687 0.59747 3.17413
v 0.39973 0.58483 3.18907
v 0.41155 0.58051 3.20433
v 0.42780 0.58616 3.21408
v 0.44228 0.59962 3.21460
v 0.44946 0.61575 3.20569
v 0.39552 0.67996 3.24080
v 0.38453 0.68342 3.22473
v 0.36896 0.67707 3.21432
v 0.35475 0.66334 3.21356
v 0.34732 0.64747 3.22273
v 0.34953 0.63552 3.23833
v 0.36051 0.63206 3.25441
v 0.37609 0.63840 3.26482
v 0.39030 0.65214 3.26558
v 0.39772 0.66801 3.25641
v 0.34346 0.73000 3.28304
v 0.33347 0.73248 3.26615
v 0.31871 0.72534 3.25510
v 0.30481 0.71130 3.25410
v 0.29710 0.69573 3.26354
v 0.29850 0.68457 3.27980
v 0.30850 0.68208 3.29669
v 0.32326 0.68922 3.30774
v 0.33716 0.70326 3.30874
v 0.34487 0.71884 3.29930
v 0.29054 0.77840 3.31734
v 0.28173 0.77977 3.29969
v 0.26792 0.77173 3.28803
v 0.25441 0.75735 3.28681
v 0.24634 0.74211 3.29650
v 0.24680 0.73185 3.31340
v 0.25562 0.73047 3.33105
v 0.26942 0.73851 3.34271
v 0.28294 0.75289 3.34392
v 0.29101 0.76813 3.33423
v 0.23688 0.82504 3.34359
v 0.22944 0.82518 3.32527
v 0.21676 0.81613 3.31308
v 0.20368 0.80137 3.31168
v 0.19520 0.78651 3.32160
v 0.19455 0.77725 3.33906
v 0.20198 0.77711 3.35739
v 0.21466 0.78615 3.36958
v 0.22774 0.80092 3.37098
v 0.23623 0.81577 3.36105
v 0.18259 0.86980 3.36172
v 0.17674 0.86858 3.34286
v 0.16536 0.85845 3.33026
v 0.15278 0.84327 3.32873
v 0.14381 0.82883 3.33885
v 0.14188 0.82067 3.35676
v 0.14772 0.82188 3.37561
v 0.15911 0.83202 3.38821
v 0.17169 0.84720 3.38974
v 0.18066 0.86163 3.37962
v 0.12782 0.91256 3.37163
v 0.12376 0.90991 3.35246
v 0.11382 0.89861 3.33963
v 0.10179 0.88299 3.33803
v 0.09228 0.86901 3.34829
v 0.08891 0.86201 3.36648
v 0.09297 0.86467 3.38565
v 0.10291 0.87597 3.39848
v 0.11493 0.89159 3.40008
v 0.12445 0.90556 3.38982
v 0.07273 0.95320 3.37329
v 0.07060 0.94906 3.35407
v 0.06223 0.93658 3.34122
v 0.05080 0.92051 3.33965
v 0.04068 0.90701 3.34996
v 0.03574 0.90122 3.36822
v 0.03786 0.90535 3.38744
v 0.04624 0.91784 3.40029
v 0.05767 0.93390 3.40186
v 0.06779 0.94740 3.39154
v 0.01797 0.99123 3.36681
v 0.01686 0.98637 3.34768
v 0.00929 0.97330 3.33490
v -0.00183 0.95702 3.33337
v -0.01227 0.94375 3.34366
v -0.01803 0.93855 3.36186
v -0.01692 0.94341 3.38099
v -0.00935 0.95648 3.39377
v 0.00177 0.97276 3.39530
v 0.01221 0.98603 3.38500
f 1 12 11
f 2 13 12
f 3 14 13
f 5 14 4
f 6 15 5
f 7 16 6
f 8 17 7
f 9 18 8
f 9 20 19
f 10 11 20
f 12 21 11
f 13 22 12
f 14 23 13
f 15 24 14
f 16 25 15
f 17 26 16
f 18 27 17
f 19 28 18
f 20 29 19
f 11 30 20
f 22 31 21
f 23 32 22
f 24 33 23
f 25 34 24
f 26 35 25
f 27 36 26
f 28 37 27
f 29 38 28
f 30 39 29
f 21 40 30
f 32 41 31
f 33 42 32
f 34 43 33
f 35 44 34
f 36 45 35
f 36 47 46
f 37 48 47
f 39 48 38
f 40 49 39
f 31 50 40
f 42 51 41
f 43 52 42
f 44 53 43
f 45 54 44
f 45 56 55
f 46 57 56
f 47 58 57
f 49 58 48
f 50 59 49
f 41 60 50
f 52 61 51
f 53 62 52
f 54 63 53
f 55 64 54
f 55 66 65
f 56 67 66
f 57 68 67
f 59 68 58
f 60 69 59
f 51 70 60
f 62 71 61
f 63 72 62
f 64 73 63
f 65 74 64
f 65 76 75
f 66 77 76
f 67 78 77
f 68 79 78
f 70 79 69
f 61 80 70
f 72 81 71
f 73 82 72
f 74 83 73
f 75 84 74
f 75 86 85
f 76 87 86
f 77 88 87
f 78 89 88
f 80 89 79
f 71 90 80
f 82 91 81
f 83 92 82
f 84 93 83
f 85 94 84
f 85 96 95
f 86 97 96
f 87 98 97
f 88 99 98
f 90 99 89
f 81 100 90
f 92 101 91
f 93 102 92
f 94 103 93
f 94 105 104
f 95 106 105
f 96 107 106
f 97 108 107
f 98 109 108
f 100 109 99
f 91 110 100
f 102 111 101
f 103 112 102
f 104 113 103
f 104 115 114
f 105 116 115
f 106 117 116
f 107 118 117
f 108 119 118
f 110 119 109
f 101 120 110
f 112 121 111
f 113 122 112
f 114 123 113
f 114 125 124
f 115 126 125
f 116 127 126
f 117 128 127
f 118 129 128
f 120 129 119
f 111 130 120
f 122 131 121
f 123 132 122
f 124 133 123
f 124 135 134
f 125 136 135
f 126 137 136
f 127 138 137
f 128 139 138
f 130 139 129
f 121 140 130
f 132 141 131
f 133 142 132
f 134 143 133
f 134 145 144
f 135 146 145
f 136 147 146
f 137 148 147
f 138 149 148
f 140 149 139
f 131 150 140
f 142 151 141
f 143 152 142
f 144 153 143
f 144 155 154
f 145 156 155
f 146 157 156
f 147 158 157
f 148 159 158
f 150 159 149
f 141 160 150
f 152 161 151
f 153 162 152
f 154 163 153
f 154 165 164
f 155 166 165
f 156 167 166
f 157 168 167
f 158 169 168
f 160 169 159
f 151 170 160
f 162 171 161
f 163 172 162
f 164 173 163
f 164 175 174
f 165 176 175
f 166 177 176
f 167 178 177
f 168 179 178
f 170 179 169
f 161 180 170
f 172 181 171
f 173 182 172
f 174 183 173
f 174 185 184
f 175 186 185
f 176 187 186
f 177 188 187
f 178 189 188
f 180 189 179
f 171 190 180
f 182 191 181
f 183 192 182
f 184 193 183
f 184 195 194
f 185 196 195
f 186 197 196
f 187 198 197
f 188 199 198
f 190 199 189
f 181 200 190
f 192 201 191
f 193 202 192
f 194 203 193
f 194 205 204
f 195 206 205
f 196 207 206
f 197 208 207
f 198 209 208
f 200 209 199
f 191 210 200
f 202 211 201
f 203 212 202
f 204 213 203
f 204 215 214
f 205 216 215
f 206 217 216
f 207 218 217
f 208 219 218
f 210 219 209
f 201 220 210
f 212 221 211
f 213 222 212
f 214 223 213
f 214 225 224
f 215 226 225
f 216 227 226
f 217 228 227
f 218 229 228
f 220 229 219
f 211 230 220
f 222 231 221
f 223 232 222
f 224 233 223
f 224 235 234
f 225 236 235
f 226 237 236
f 227 238 237
f 228 239 238
f 230 239 229
f 221 240 230
f 232 241 231
f 233 242 232
f 234 243 233
f 234 245 244
f 235 246 245
f 236 247 246
f 237 248 247
f 238 249 248
f 240 249 239
f 231 250 240
f 242 251 241
f 243 252 242
f 244 253 243
f 244 255 254
f 245 256 255
f 246 257 256
f 247 258 257
f 248 259 258
f 250 259 249
f 241 260 250
f 252 261 251
f 253 262 252
f 254 263 253
f 254 265 264
f 255 266 265
f 256 267 266
f 257 268 267
f 258 269 268
f 260 269 259
f 251 270 260
f 262 271 261
f 263 272 262
f 264 273 263
f 264 275 274
f 265 276 275
f 266 277 276
f 267 278 277
f 269 278 268
f 270 279 269
f 261 280 270
f 272 281 271
f 273 282 272
f 274 283 273
f 274 285 284
f 275 286 285
f 276 287 286
f 277 288 287
f 279 288 278
f 280 289 279
f 271 290 280
f 282 291 281
f 283 292 282
f 284 293 283
f 284 295 294
f 285 296 295
f 286 297 296
f 287 298 297
f 288 299 298
f 290 299 289
f 281 300 290
f 292 301 291
f 293 302 292
f 294 303 293
f 294 305 304
f 295 306 305
f 296 307 306
f 297 308 307
f 298 309 308
f 300 309 299
f 291 310 300
f 302 311 301
f 303 312 302
f 304 313 303
f 305 314 304
f 305 316 315
f 306 317 316
f 307 318 317
f 309 318 308
f 310 319 309
f 301 320 310
f 312 321 311
f 313 322 312
f 314 323 313
f 315 324 314
f 315 326 325
f 317 326 316
f 318 327 317
f 319 328 318
f 320 329 319
f 311 330 320
f 322 331 321
f 322 333 332
f 324 333 323
f 325 334 324
f 326 335 325
f 327 336 326
f 328 337 327
f 329 338 328
f 330 339 329
f 330 331 340
f 332 341 331
f 332 343 342
f 334 343 333
f 335 344 334
f 336 345 335
f 337 346 336
f 338 347 337
f 339 348 338
f 340 349 339
f 331 350 340
f 341 352 351
f 342 353 352
f 343 354 353
f 345 354 344
f 346 355 345
f 347 356 346
f 348 357 347
f 349 358 348
f 349 360 359
f 350 351 360
f 351 362 361
f 352 363 362
f 354 363 353
f 355 364 354
f 356 365 355
f 357 366 356
f 358 367 357
f 359 368 358
f 359 370 369
f 360 361 370
f 361 372 371
f 362 373 372
f 363 374 373
f 365 374 364
f 366 375 365
f 367 376 366
f 368 377 367
f 369 378 368
f 370 379 369
f 370 371 380
f 371 382 381
f 372 383 382
f 373 384 383
f 375 384 374
f 376 385 375
f 377 386 376
f 378 387 377
f 379 388 378
f 380 389 379
f 380 381 390
f 381 392 391
f 382 393 392
f 383 394 393
f 385 394 384
f 386 395 385
f 387 396 386
f 388 397 387
f 389 398 388
f 389 400 399
f 390 391 400
f 391 402 401
f 392 403 402
f 393 404 403
f 395 404 394
f 396 405 395
f 397 406 396
f 398 407 397
f 399 408 398
f 399 410 409
f 400 401 410
f 401 412 411
f 402 413 412
f 403 414 413
f 405 414 404
f 406 415 405
f 407 416 406
f 408 417 407
f 409 418 408
f 409 420 419
f 410 411 420
f 411 422 421
f 412 423 422
f 413 424 423
f 415 424 414
f 416 425 415
f 417 426 416
f 418 427 417
f 419 428 418
f 419 430 429
f 420 421 430
f 421 432 431
f 422 433 432
f 423 434 433
f 425 434 424
f 426 435 425
f 427 436 426
f 428 437 427
f 429 438 428
f 429 440 439
f 430 431 440
f 431 442 441
f 432 443 442
f 433 444 443
f 435 444 434
f 436 445 435
f 437 446 436
f 438 447 437
f 439 448 438
f 439 450 449
f 440 441 450
f 441 452 451
f 442 453 452
f 443 454 453
f 445 454 444
f 446 455 445
f 447 456 446
f 448 457 447
f 449 458 448
f 449 460 459
f 450 451 460
f 451 462 461
f 452 463 462
f 453 464 463
f 455 464 454
f 456 465 455
f 457 466 456
f 458 467 457
f 459 468 458
f 459 470 469
f 460 461 470
f 461 472 471
f 462 473 472
f 463 474 473
f 465 474 464
f 466 475 465
f 467 476 466
f 468 477 467
f 469 478 468
f 469 480 479
f 470 471 480
f 471 482 481
f 472 483 482
f 473 484 483
f 475 484 474
f 476 485 475
f 477 486 476
f 478 487 477
f 479 488 478
f 479 490 489
f 480 481 490
f 481 492 491
f 482 493 492
f 483 494 493
f 485 494 484
f 486 495 485
f 487 496 486
f 488 497 487
f 489 498 488
f 489 500 499
f 490 491 500
f 491 502 501
f 492 503 502
f 493 504 503
f 495 504 494
f 496 505 495
f 497 506 496
f 498 507 497
f 499 508 498
f 499 510 509
f 500 501 510
f 501 512 511
f 502 513 512
f 503 514 513
f 505 514 504
f 506 515 505
f 507 516 506
f 508 517 507
f 509 518 508
f 509 520 519
f 510 511 520
f 511 522 521
f 512 523 522
f 513 524 523
f 515 524 514
f 516 525 515
f 517 526 516
f 518 527 517
f 519 528 518
f 519 530 529
f 520 521 530
f 521 532 531
f 522 533 532
f 523 534 533
f 525 534 524
f 526 535 525
f 527 536 526
f 528 537 527
f 529 538 528
f 529 540 539
f 530 531 540
f 531 542 541
f 532 543 542
f 533 544 543
f 535 544 534
f 536 545 535
f 537 546 536
f 538 547 537
f 539 548 538
f 539 550 549
f 540 541 550
f 541 552 551
f 542 553 552
f 543 554 553
f 545 554 544
f 546 555 545
f 547 556 546
f 548 557 547
f 549 558 548
f 549 560 559
f 550 551 560
f 551 562 561
f 552 563 562
f 553 564 563
f 555 564 554
f 556 565 555
f 557 566 556
f 558 567 557
f 559 568 558
f 559 570 569
f 560 561 570
f 561 572 571
f 562 573 572
f 563 574 573
f 565 574 564
f 566 575 565
f 567 576 566
f 568 577 567
f 569 578 568
f 570 579 569
f 570 571 580
f 571 582 581
f 572 583 582
f 574 583 573
f 575 584 574
f 576 585 575
f 577 586 576
f 578 587 577
f 579 588 578
f 580 589 579
f 580 581 590
f 581 592 591
f 582 593 592
f 584 593 583
f 585 594 584
f 586 595 585
f 587 596 586
f 588 597 587
f 589 598 588
f 590 599 589
f 590 591 600
f 591 602 601
f 592 603 602
f 594 603 593
f 595 604 594
f 596 605 595
f 597 606 596
f 598 607 597
f 599 608 598
f 600 609 599
f 600 601 610
f 601 612 611
f 602 613 612
f 604 613 603
f 605 614 604
f 606 615 605
f 607 616 606
f 608 617 607
f 609 618 608
f 610 619 609
f 610 611 620
f 612 621 611
f 613 622 612
f 614 623 613
f 615 624 614
f 616 625 615
f 617 626 616
f 618 627 617
f 619 628 618
f 620 629 619
f 611 630 620
f 622 631 621
f 623 632 622
f 624 633 623
f 625 634 624
f 626 635 625
f 627 636 626
f 628 637 627
f 629 638 628
f 630 639 629
f 621 640 630
f 632 641 631
f 633 642 632
f 634 643 633
f 635 644 634
f 636 645 635
f 637 646 636
f 638 647 637
f 639 648 638
f 640 649 639
f 631 650 640
f 642 651 641
f 643 652 642
f 644 653 643
f 645 654 644
f 646 655 645
f 647 656 646
f 648 657 647
f 649 658 648
f 650 659 649
f 641 660 650
f 652 661 651
f 653 662 652
f 654 663 653
f 655 664 654
f 656 665 655
f 657 666 656
f 658 667 657
f 659 668 658
f 660 669 659
f 651 670 660
f 662 671 661
f 663 672 662
f 664 673 663
f 665 674 664
f 666 675 665
f 667 676 666
f 668 677 667
f 669 678 668
f 670 679 669
f 661 680 670
f 672 681 671
f 673 682 672
f 674 683 673
f 675 684 674
f 675 686 685
f 676 687 686
f 677 688 687
f 679 688 678
f 680 689 679
f 671 690 680
f 682 691 681
f 683 692 682
f 684 693 683
f 685 694 684
f 685 696 695
f 686 697 696
f 687 698 697
f 689 698 688
f 690 699 689
f 681 700 690
f 692 701 691
f 693 702 692
f 694 703 693
f 695 704 694
f 695 706 705
f 696 707 706
f 697 708 707
f 699 708 698
f 700 709 699
f 691 710 700
f 702 711 701
f 703 712 702
f 704 713 703
f 705 714 704
f 705 716 715
f 706 717 716
f 707 718 717
f 709 718 708
f 710 719 709
f 701 720 710
f 712 721 711
f 713 722 712
f 714 723 713
f 715 724 714
f 715 726 725
f 716 727 726
f 717 728 727
f 718 729 728
f 720 729 719
f 711 730 720
f 722 731 721
f 723 732 722
f 724 733 723
f 724 735 734
f 725 736 735
f 726 737 736
f 727 738 737
f 728 739 738
f 730 739 729
f 721 740 730
f 732 741 731
f 733 742 732
f 734 743 733
f 734 745 744
f 735 746 745
f 736 747 746
f 737 748 747
f 738 749 748
f 740 749 739
f 731 750 740
f 742 751 741
f 743 752 742
f 744 753 743
f 744 755 754
f 745 756 755
f 746 757 756
f 747 758 757
f 748 759 758
f 750 759 749
f 741 760 750
f 752 761 751
f 753 762 752
f 754 763 753
f 754 765 764
f 755 766 765
f 756 767 766
f 757 768 767
f 758 769 768
f 760 769 759
f 751 770 760
f 762 771 761
f 763 772 762
f 764 773 763
f 764 775 774
f 765 776 775
f 766 777 776
f 767 778 777
f 768 779 778
f 770 779 769
f 761 780 770
f 772 781 771
f 773 782 772
f 774 783 773
f 774 785 784
f 775 786 785
f 776 787 786
f 777 788 787
f 778 789 788
f 780 789 779
f 771 790 780
f 782 791 781
f 783 792 782
f 784 793 783
f 784 795 794
f 785 796 795
f 786 797 796
f 787 798 797
f 788 799 798
f 790 799 789
f 781 800 790
f 792 801 791
f 793 802 792
f 794 803 793
f 794 805 804
f 795 806 805
f 796 807 806
f 797 808 807
f 798 809 808
f 800 809 799
f 791 810 800
f 802 811 801
f 803 812 802
f 804 813 803
f 804 815 814
f 805 816 815
f 806 817 816
f 807 818 817
f 808 819 818
f 810 819 809
f 801 820 810
f 812 821 811
f 813 822 812
f 814 823 813
f 814 825 824
f 815 826 825
f 816 827 826
f 817 828 827
f 818 829 828
f 820 829 819
f 811 830 820
f 822 831 821
f 823 832 822
f 824 833 823
f 824 835 834
f 825 836 835
f 826 837 836
f 827 838 837
f 828 839 838
f 830 839 829
f 821 840 830
f 832 841 831
f 833 842 832
f 834 843 833
f 834 845 844
f 835 846 845
f 836 847 846
f 837 848 847
f 838 849 848
f 840 849 839
f 831 850 840
f 842 851 841
f 843 852 842
f 844 853 843
f 844 855 854
f 845 856 855
f 846 857 856
f 847 858 857
f 848 859 858
f 850 859 849
f 841 860 850
f 852 861 851
f 853 862 852
f 854 863 853
f 854 865 864
f 855 866 865
f 856 867 866
f 857 868 867
f 858 869 868
f 860 869 859
f 851 870 860
f 862 871 861
f 863 872 862
f 864 873 863
f 864 875 874
f 865 876 875
f 866 877 876
f 867 878 877
f 868 879 878
f 870 879 869
f 861 880 870
f 872 881 871
f 873 882 872
f 874 883 873
f 874 885 884
f 875 886 885
f 876 887 886
f 877 888 887
f 878 889 888
f 880 889 879
f 871 890 880
f 882 891 881
f 883 892 882
f 884 893 883
f 884 895 894
f 885 896 895
f 886 897 896
f 887 898 897
f 888 899 898
f 890 899 889
f 881 900 890
f 892 901 891
f 893 902 892
f 894 903 893
f 894 905 904
f 895 906 905
f 896 907 906
f 897 908 907
f 898 909 908
f 900 909 899
f 891 910 900
f 902 911 901
f 903 912 902
f 904 913 903
f 904 915 914
f 905 916 915
f 906 917 916
f 907 918 917
f 909 918 908
f 910 919 909
f 901 920 910
f 912 921 911
f 913 922 912
f 914 923 913
f 915 924 914
f 915 926 925
f 916 927 926
f 917 928 927
f 919 928 918
f 920 929 919
f 911 930 920
f 922 931 921
f 923 932 922
f 924 933 923
f 925 934 924
f 925 936 935
f 926 937 936
f 927 938 937
f 929 938 928
f 929 940 939
f 921 940 930
f 932 941 931
f 933 942 932
f 934 943 933
f 935 944 934
f 935 946 945
f 936 947 946
f 937 948 947
f 939 948 938
f 939 950 949
f 931 950 940
f 942 951 941
f 943 952 942
f 944 953 943
f 944 955 954
f 945 956 955
f 946 957 956
f 947 958 957
f 949 958 948
f 950 959 949
f 941 960 950
f 952 961 951
f 953 962 952
f 954 963 953
f 955 964 954
f 955 966 965
f 957 966 956
f 957 968 967
f 959 968 958
f 960 969 959
f 951 970 960
f 961 972 971
f 963 972 962
f 963 974 973
f 965 974 964
f 966 975 965
f 967 976 966
f 968 977 967
f 969 978 968
f 970 979 969
f 970 971 980
f 971 982 981
f 973 982 972
f 973 984 983
f 975 984 974
f 976 985 975
f 977 986 976
f 978 987 977
f 979 988 978
f 980 989 979
f 980 981 990
f 981 992 991
f 982 993 992
f 983 994 993
f 985 994 984
f 986 995 985
f 987 996 986
f 988 997 987
f 989 998 988
f 990 999 989
f 990 991 1000
f 991 1002 1001
f 992 1003 1002
f 993 1004 1003
f 995 1004 994
f 996 1005 995
f 997 1006 996
f 998 1007 997
f 999 1008 998
f 1000 1009 999
f 1000 1001 1010
f 1001 1012 1011
f 1002 1013 1012
f 1003 1014 1013
f 1005 1014 1004
f 1006 1015 1005
f 1007 1016 1006
f 1008 1017 1007
f 1009 1018 1008
f 1010 1019 1009
f 1010 1011 1020
f 1011 1022 1021
f 1012 1023 1022
f 1013 1024 1023
f 1015 1024 1014
f 1016 1025 1015
f 1017 1026 1016
f 1018 1027 1017
f 1019 1028 1018
f 1019 1030 1029
f 1020 1021 1030
f 1021 1032 1031
f 1022 1033 1032
f 1023 1034 1033
f 1025 1034 1024
f 1026 1035 1025
f 1027 1036 1026
f 1028 1037 1027
f 1029 1038 1028
f 1029 1040 1039
f 1030 1031 1040
f 1031 1042 1041
f 1032 1043 1042
f 1033 1044 1043
f 1035 1044 1034
f 1036 1045 1035
f 1037 1046 1036
f 1038 1047 1037
f 1039 1048 1038
f 1040 1049 1039
f 1040 1041 1050
f 1041 1052 1051
f 1042 1053 1052
f 1043 1054 1053
f 1045 1054 1044
f 1046 1055 1045
f 1047 1056 1046
f 1048 1057 1047
f 1049 1058 1048
f 1049 1060 1059
f 1050 1051 1060
f 1051 1062 1061
f 1052 1063 1062
f 1053 1064 1063
f 1055 1064 1054
f 1056 1065 1055
f 1057 1066 1056
f 1058 1067 1057
f 1059 1068 1058
f 1059 1070 1069
f 1060 1061 1070
f 1061 1072 1071
f 1062 1073 1072
f 1063 1074 1073
f 1065 1074 1064
f 1066 1075 1065
f 1067 1076 1066
f 1068 1077 1067
f 1069 1078 1068
f 1069 1080 1079
f 1070 1071 1080
f 1071 1082 1081
f 1072 1083 1082
f 1073 1084 1083
f 1075 1084 1074
f 1076 1085 1075
f 1077 1086 1076
f 1078 1087 1077
f 1079 1088 1078
f 1079 1090 1089
f 1080 1081 1090
f 1081 1092 1091
f 1082 1093 1092
f 1083 1094 1093
f 1085 1094 1084
f 1086 1095 1085
f 1087 1096 1086
f 1088 1097 1087
f 1089 1098 1088
f 1089 1100 1099
f 1090 1091 1100
f 1091 1102 1101
f 1092 1103 1102
f 1093 1104 1103
f 1095 1104 1094
f 1096 1105 1095
f 1097 1106 1096
f 1098 1107 1097
f 1099 1108 1098
f 1099 1110 1109
f 1100 1101 1110
f 1101 1112 1111
f 1102 1113 1112
f 1103 1114 1113
f 1105 1114 1104
f 1106 1115 1105
f 1107 1116 1106
f 1108 1117 1107
f 1109 1118 1108
f 1109 1120 1119
f 1110 1111 1120
f 1111 1122 1121
f 1112 1123 1122
f 1113 1124 1123
f 1115 1124 1114
f 1116 1125 1115
f 1117 1126 1116
f 1118 1127 1117
f 1119 1128 1118
f 1119 1130 1129
f 1120 1121 1130
f 1121 1132 1131
f 1122 1133 1132
f 1123 1134 1133
f 1125 1134 1124
f 1126 1135 1125
f 1127 1136 1126
f 1128 1137 1127
f 1129 1138 1128
f 1129 1140 1139
f 1130 1131 1140
f 1131 1142 1141
f 1132 1143 1142
f 1133 1144 1143
f 1135 1144 1134
f 1136 1145 1135
f 1137 1146 1136
f 1138 1147 1137
f 1139 1148 1138
f 1139 1150 1149
f 1140 1141 1150
f 1141 1152 1151
f 1142 1153 1152
f 1143 1154 1153
f 1145 1154 1144
f 1146 1155 1145
f 1147 1156 1146
f 1148 1157 1147
f 1149 1158 1148
f 1149 1160 1159
f 1150 1151 1160
f 1151 1162 1161
f 1152 1163 1162
f 1153 1164 1163
f 1155 1164 1154
f 1156 1165 1155
f 1157 1166 1156
f 1158 1167 1157
f 1159 1168 1158
f 1159 1170 1169
f 1160 1161 1170
f 1161 1172 1171
f 1162 1173 1172
f 1163 1174 1173
f 1165 1174 1164
f 1166 1175 1165
f 1167 1176 1166
f 1168 1177 1167
f 1169 1178 1168
f 1169 1180 1179
f 1170 1171 1180
f 1171 1182 1181
f 1172 1183 1182
f 1173 1184 1183
f 1175 1184 1174
f 1176 1185 1175
f 1177 1186 1176
f 1178 1187 1177
f 1179 1188 1178
f 1179 1190 1189
f 1180 1181 1190
f 1181 1192 1191
f 1182 1193 1192
f 1183 1194 1193
f 1185 1194 1184
f 1186 1195 1185
f 1187 1196 1186
f 1188 1197 1187
f 1189 1198 1188
f 1189 1200 1199
f 1190 1191 1200
f 1191 1202 1201
f 1192 1203 1202
f 1193 1204 1203
f 1195 1204 1194
f 1196 1205 1195
f 1197 1206 1196
f 1198 1207 1197
f 1199 1208 1198
f 1199 1210 1209
f 1200 1201 1210
f 1201 1212 1211
f 1202 1213 1212
f 1203 1214 1213
f 1205 1214 1204
f 1206 1215 1205
f 1207 1216 1206
f 1208 1217 1207
f 1209 1218 1208
f 1209 1220 1219
f 1210 1211 1220
f 1211 1222 1221
f 1212 1223 1222
f 1214 1223 1213
f 1215 1224 1214
f 1216 1225 1215
f 1217 1226 1216
f 1218 1227 1217
f 1219 1228 1218
f 1220 1229 1219
f 1220 1221 1230
f 1221 1232 1231
f 1222 1233 1232
f 1224 1233 1223
f 1225 1234 1224
f 1226 1235 1225
f 1227 1236 1226
f 1228 1237 1227
f 1229 1238 1228
f 1230 1239 1229
f 1230 1231 1240
f 1231 1242 1241
f 1232 1243 1242
f 1234 1243 1233
f 1235 1244 1234
f 1236 1245 1235
f 1237 1246 1236
f 1238 1247 1237
f 1239 1248 1238
f 1240 1249 1239
f 1240 1241 1250
f 1241 1252 1251
f 1242 1253 1252
f 1244 1253 1243
f 1245 1254 1244
f 1246 1255 1245
f 1247 1256 1246
f 1248 1257 1247
f 1249 1258 1248
f 1250 1259 1249
f 1250 1251 1260
f 1251 1262 1261
f 1253 1262 1252
f 1254 1263 1253
f 1255 1264 1254
f 1256 1265 1255
f 1257 1266 1256
f 1258 1267 1257
f 1259 1268 1258
f 1260 1269 1259
f 1251 1270 1260
f 1262 1271 1261
f 1263 1272 1262
f 1264 1273 1263
f 1265 1274 1264
f 1266 1275 1265
f 1267 1276 1266
f 1268 1277 1267
f 1269 1278 1268
f 1270 1279 1269
f 1261 1280 1270
f 1272 1281 1271
f 1273 1282 1272
f 1274 1283 1273
f 1274 1285 1284
f 1275 1286 1285
f 1276 1287 1286
f 1277 1288 1287
f 1278 1289 1288
f 1280 1289 1279
f 1271 1290 1280
f 1 2 12
f 2 3 13
f 3 4 14
f 5 15 14
f 6 16 15
f 7 17 16
f 8 18 17
f 9 19 18
f 9 10 20
f 10 1 11
f 12 22 21
f 13 23 22
f 14 24 23
f 15 25 24
f 16 26 25
f 17 27 26
f 18 28 27
f 19 29 28
f 20 30 29
f 11 21 30
f 22 32 31
f 23 33 32
f 24 34 33
f 25 35 34
f 26 36 35
f 27 37 36
f 28 38 37
f 29 39 38
f 30 40 39
f 21 31 40
f 32 42 41
f 33 43 42
f 34 44 43
f 35 45 44
f 36 46 45
f 36 37 47
f 37 38 48
f 39 49 48
f 40 50 49
f 31 41 50
f 42 52 51
f 43 53 52
f 44 54 53
f 45 55 54
f 45 46 56
f 46 47 57
f 47 48 58
f 49 59 58
f 50 60 59
f 41 51 60
f 52 62 61
f 53 63 62
f 54 64 63
f 55 65 64
f 55 56 66
f 56 57 67
f 57 58 68
f 59 69 68
f 60 70 69
f 51 61 70
f 62 72 71
f 63 73 72
f 64 74 73
f 65 75 74
f 65 66 76
f 66 67 77
f 67 68 78
f 68 69 79
f 70 80 79
f 61 71 80
f 72 82 81
f 73 83 82
f 74 84 83
f 75 85 84
f 75 76 86
f 76 77 87
f 77 78 88
f 78 79 89
f 80 90 89
f 71 81 90
f 82 92 91
f 83 93 92
f 84 94 93
f 85 95 94
f 85 86 96
f 86 87 97
f 87 88 98
f 88 89 99
f 90 100 99
f 81 91 100
f 92 102 101
f 93 103 102
f 94 104 103
f 94 95 105
f 95 96 106
f 96 97 107
f 97 98 108
f 98 99 109
f 100 110 109
f 91 101 110
f 102 112 111
f 103 113 112
f 104 114 113
f 104 105 115
f 105 106 116
f 106 107 117
f 107 108 118
f 108 109 119
f 110 120 119
f 101 111 120
f 112 122 121
f 113 123 122
f 114 124 123
f 114 115 125
f 115 116 126
f 116 117 127
f 117 118 128
f 118 119 129
f 120 130 129
f 111 121 130
f 122 132 131
f 123 133 132
f 124 134 133
f 124 125 135
f 125 126 136
f 126 127 137
f 127 128 138
f 128 129 139
f 130 140 139
f 121 131 140
f 132 142 141
f 133 143 142
f 134 144 143
f 134 135 145
f 135 136 146
f 136 137 147
f 137 138 148
f 138 139 149
f 140 150 149
f 131 141 150
f 142 152 151
f 143 153 152
f 144 154 153
f 144 145 155
f 145 146 156
f 146 147 157
f 147 148 158
f 148 149 159
f 150 160 159
f 141 151 160
f 152 162 161
f 153 163 162
f 154 164 163
f 154 155 165
f 155 156 166
f 156 157 167
f 157 158 168
f 158 159 169
f 160 170 169
f 151 161 170
f 162 172 171
f 163 173 172
f 164 174 173
f 164 165 175
f 165 166 176
f 166 167 177
f 167 168 178
f 168 169 179
f 170 180 179
f 161 171 180
f 172 182 181
f 173 183 182
f 174 184 183
f 174 175 185
f 175 176 186
f 176 177 187
f 177 178 188
f 178 179 189
f 180 190 189
f 171 181 190
f 182 192 191
f 183 193 192
f 184 194 193
f 184 185 195
f 185 186 196
f 186 187 197
f 187 188 198
f 188 189 199
f 190 200 199
f 181 191 200
f 192 202 201
f 193 203 202
f 194 204 203
f 194 195 205
f 195 196 206
f 196 197 207
f 197 198 208
f 198 199 209
f 200 210 209
f 191 201 210
f 202 212 211
f 203 213 212
f 204 214 213
f 204 205 215
f 205 206 216
f 206 207 217
f 207 208 218
f 208 209 219
f 210 220 219
f 201 211 220
f 212 222 221
f 213 223 222
f 214 224 223
f 214 215 225
f 215 216 226
f 216 217 227
f 217 218 228
f 218 219 229
f 220 230 229
f 211 221 230
f 222 232 231
f 223 233 232
f 224 234 233
f 224 225 235
f 225 226 236
f 226 227 237
f 227 228 238
f 228 229 239
f 230 240 239
f 221 231 240
f 232 242 241
f 233 243 242
f 234 244 243
f 234 235 245
f 235 236 246
f 236 237 247
f 237 238 248
f 238 239 249
f 240 250 249
f 231 241 250
f 242 252 251
f 243 253 252
f 244 254 253
f 244 245 255
f 245 246 256
f 246 247 257
f 247 248 258
f 248 249 259
f 250 260 259
f 241 251 260
f 252 262 261
f 253 263 262
f 254 264 263
f 254 255 265
f 255 256 266
f 256 257 267
f 257 258 268
f 258 259 269
f 260 270 269
f 251 261 270
f 262 272 271
f 263 273 272
f 264 274 273
f 264 265 275
f 265 266 276
f 266 267 277
f 267 268 278
f 269 279 278
f 270 280 279
f 261 271 280
f 272 282 281
f 273 283 282
f 274 284 283
f 274 275 285
f 275 276 286
f 276 277 287
f 277 278 288
f 279 289 288
f 280 290 289
f 271 281 290
f 282 292 291
f 283 293 292
f 284 294 293
f 284 285 295
f 285 286 296
f 286 287 297
f 287 288 298
f 288 289 299
f 290 300 299
f 281 291 300
f 292 302 301
f 293 303 302
f 294 304 303
f 294 295 305
f 295 296 306
f 296 297 307
f 297 298 308
f 298 299 309
f 300 310 309
f 291 301 310
f 302 312 311
f 303 313 312
f 304 314 313
f 305 315 314
f 305 306 316
f 306 307 317
f 307 308 318
f 309 319 318
f 310 320 319
f 301 311 320
f 312 322 321
f 313 323 322
f 314 324 323
f 315 325 324
f 315 316 326
f 317 327 326
f 318 328 327
f 319 329 328
f 320 330 329
f 311 321 330
f 322 332 331
f 322 323 333
f 324 334 333
f 325 335 334
f 326 336 335
f 327 337 336
f 328 338 337
f 329 339 338
f 330 340 339
f 330 321 331
f 332 342 341
f 332 333 343
f 334 344 343
f 335 345 344
f 336 346 345
f 337 347 346
f 338 348 347
f 339 349 348
f 340 350 349
f 331 341 350
f 341 342 352
f 342 343 353
f 343 344 354
f 345 355 354
f 346 356 355
f 347 357 356
f 348 358 357
f 349 359 358
f 349 350 360
f 350 341 351
f 351 352 362
f 352 353 363
f 354 364 363
f 355 365 364
f 356 366 365
f 357 367 366
f 358 368 367
f 359 369 368
f 359 360 370
f 360 351 361
f 361 362 372
f 362 363 373
f 363 364 374
f 365 375 374
f 366 376 375
f 367 377 376
f 368 378 377
f 369 379 378
f 370 380 379
f 370 361 371
f 371 372 382
f 372 373 383
f 373 374 384
f 375 385 384
f 376 386 385
f 377 387 386
f 378 388 387
f 379 389 388
f 380 390 389
f 380 371 381
f 381 382 392
f 382 383 393
f 383 384 394
f 385 395 394
f 386 396 395
f 387 397 396
f 388 398 397
f 389 399 398
f 389 390 400
f 390 381 391
f 391 392 402
f 392 393 403
f 393 394 404
f 395 405 404
f 396 406 405
f 397 407 406
f 398 408 407
f 399 409 408
f 399 400 410
f 400 391 401
f 401 402 412
f 402 403 413
f 403 404 414
f 405 415 414
f 406 416 415
f 407 417 416
f 408 418 417
f 409 419 418
f 409 410 420
f 410 401 411
f 411 412 422
f 412 413 423
f 413 414 424
f 415 425 424
f 416 426 425
f 417 427 426
f 418 428 427
f 419 429 428
f 419 420 430
f 420 411 421
f 421 422 432
f 422 423 433
f 423 424 434
f 425 435 434
f 426 436 435
f 427 437 436
f 428 438 437
f 429 439 438
f 429 430 440
f 430 421 431
f 431 432 442
f 432 433 443
f 433 434 444
f 435 445 444
f 436 446 445
f 437 447 446
f 438 448 447
f 439 449 448
f 439 440 450
f 440 431 441
f 441 442 452
f 442 443 453
f 443 444 454
f 445 455 454
f 446 456 455
f 447 457 456
f 448 458 457
f 449 459 458
f 449 450 460
f 450 441 451
f 451 452 462
f 452 453 463
f 453 454 464
f 455 465 464
f 456 466 465
f 457 467 466
f 458 468 467
f 459 469 468
f 459 460 470
f 460 451 461
f 461 462 472
f 462 463 473
f 463 464 474
f 465 475 474
f 466 476 475
f 467 477 476
f 468 478 477
f 469 479 478
f 469 470 480
f 470 461 471
f 471 472 482
f 472 473 483
f 473 474 484
f 475 485 484
f 476 486 485
f 477 487 486
f 478 488 487
f 479 489 488
f 479 480 490
f 480 471 481
f 481 482 492
f 482 483 493
f 483 484 494
f 485 495 494
f 486 496 495
f 487 497 496
f 488 498 497
f 489 499 498
f 489 490 500
f 490 481 491
f 491 492 502
f 492 493 503
f 493 494 504
f 495 505 504
f 496 506 505
f 497 507 506
f 498 508 507
f 499 509 508
f 499 500 510
f 500 491 501
f 501 502 512
f 502 503 513
f 503 504 514
f 505 515 514
f 506 516 515
f 507 517 516
f 508 518 517
f 509 519 518
f 509 510 520
f 510 501 511
f 511 512 522
f 512 513 523
f 513 514 524
f 515 525 524
f 516 526 525
f 517 527 526
f 518 528 527
f 519 529 528
f 519 520 530
f 520 511 521
f 521 522 532
f 522 523 533
f 523 524 534
f 525 535 534
f 526 536 535
f 527 537 536
f 528 538 537
f 529 539 538
f 529 530 540
f 530 521 531
f 531 532 542
f 532 533 543
f 533 534 544
f 535 545 544
f 536 546 545
f 537 547 546
f 538 548 547
f 539 549 548
f 539 540 550
f 540 531 541
f 541 542 552
f 542 543 553
f 543 544 554
f 545 555 554
f 546 556 555
f 547 557 556
f 548 558 557
f 549 559 558
f 549 550 560
f 550 541 551
f 551 552 562
f 552 553 563
f 553 554 564
f 555 565 564
f 556 566 565
f 557 567 566
f 558 568 567
f 559 569 568
f 559 560 570
f 560 551 561
f 561 562 572
f 562 563 573
f 563 564 574
f 565 575 574
f 566 576 575
f 567 577 576
f 568 578 577
f 569 579 578
f 570 580 579
f 570 561 571
f 571 572 582
f 572 573 583
f 574 584 583
f 575 585 584
f 576 586 585
f 577 587 586
f 578 588 587
f 579 589 588
f 580 590 589
f 580 571 581
f 581 582 592
f 582 583 593
f 584 594 593
f 585 595 594
f 586 596 595
f 587 597 596
f 588 598 597
f 589 599 598
f 590 600 599
f 590 581 591
f 591 592 602
f 592 593 603
f 594 604 603
f 595 605 604
f 596 606 605
f 597 607 606
f 598 608 607
f 599 609 608
f 600 610 609
f 600 591 601
f 601 602 612
f 602 603 613
f 604 614 613
f 605 615 614
f 606 616 615
f 607 617 616
f 608 618 617
f 609 619 618
f 610 620 619
f 610 601 611
f 612 622 621
f 613 623 622
f 614 624 623
f 615 625 624
f 616 626 625
f 617 627 626
f 618 628 627
f 619 629 628
f 620 630 629
f 611 621 630
f 622 632 631
f 623 633 632
f 624 634 633
f 625 635 634
f 626 636 635
f 627 637 636
f 628 638 637
f 629 639 638
f 630 640 639
f 621 631 640
f 632 642 641
f 633 643 642
f 634 644 643
f 635 645 644
f 636 646 645
f 637 647 646
f 638 648 647
f 639 649 648
f 640 650 649
f 631 641 650
f 642 652 651
f 643 653 652
f 644 654 653
f 645 655 654
f 646 656 655
f 647 657 656
f 648 658 657
f 649 659 658
f 650 660 659
f 641 651 660
f 652 662 661
f 653 663 662
f 654 664 663
f 655 665 664
f 656 666 665
f 657 667 666
f 658 668 667
f 659 669 668
f 660 670 669
f 651 661 670
f 662 672 671
f 663 673 672
f 664 674 673
f 665 675 674
f 666 676 675
f 667 677 676
f 668 678 677
f 669 679 678
f 670 680 679
f 661 671 680
f 672 682 681
f 673 683 682
f 674 684 683
f 675 685 684
f 675 676 686
f 676 677 687
f 677 678 688
f 679 689 688
f 680 690 689
f 671 681 690
f 682 692 691
f 683 693 692
f 684 694 693
f 685 695 694
f 685 686 696
f 686 687 697
f 687 688 698
f 689 699 698
f 690 700 699
f 681 691 700
f 692 702 701
f 693 703 702
f 694 704 703
f 695 705 704
f 695 696 706
f 696 697 707
f 697 698 708
f 699 709 708
f 700 710 709
f 691 701 710
f 702 712 711
f 703 713 712
f 704 714 713
f 705 715 714
f 705 706 716
f 706 707 717
f 707 708 718
f 709 719 718
f 710 720 719
f 701 711 720
f 712 722 721
f 713 723 722
f 714 724 723
f 715 725 724
f 715 716 726
f 716 717 727
f 717 718 728
f 718 719 729
f 720 730 729
f 711 721 730
f 722 732 731
f 723 733 732
f 724 734 733
f 724 725 735
f 725 726 736
f 726 727 737
f 727 728 738
f 728 729 739
f 730 740 739
f 721 731 740
f 732 742 741
f 733 743 742
f 734 744 743
f 734 735 745
f 735 736 746
f 736 737 747
f 737 738 748
f 738 739 749
f 740 750 749
f 731 741 750
f 742 752 751
f 743 753 752
f 744 754 753
f 744 745 755
f 745 746 756
f 746 747 757
f 747 748 758
f 748 749 759
f 750 760 759
f 741 751 760
f 752 762 761
f 753 763 762
f 754 764 763
f 754 755 765
f 755 756 766
f 756 757 767
f 757 758 768
f 758 759 769
f 760 770 769
f 751 761 770
f 762 772 771
f 763 773 772
f 764 774 773
f 764 765 775
f 765 766 776
f 766 767 777
f 767 768 778
f 768 769 779
f 770 780 779
f 761 771 780
f 772 782 781
f 773 783 782
f 774 784 783
f 774 775 785
f 775 776 786
f 776 777 787
f 777 778 788
f 778 779 789
f 780 790 789
f 771 781 790
f 782 792 791
f 783 793 792
f 784 794 793
f 784 785 795
f 785 786 796
f 786 787 797
f 787 788 798
f 788 789 799
f 790 800 799
f 781 791 800
f 792 802 801
f 793 803 802
f 794 804 803
f 794 795 805
f 795 796 806
f 796 797 807
f 797 798 808
f 798 799 809
f 800 810 809
f 791 801 810
f 802 812 811
f 803 813 812
f 804 814 813
f 804 805 815
f 805 806 816
f 806 807 817
f 807 808 818
f 808 809 819
f 810 820 819
f 801 811 820
f 812 822 821
f 813 823 822
f 814 824 823
f 814 815 825
f 815 816 826
f 816 817 827
f 817 818 828
f 818 819 829
f 820 830 829
f 811 821 830
f 822 832 831
f 823 833 832
f 824 834 833
f 824 825 835
f 825 826 836
f 826 827 837
f 827 828 838
f 828 829 839
f 830 840 839
f 821 831 840
f 832 842 841
f 833 843 842
f 834 844 843
f 834 835 845
f 835 836 846
f 836 837 847
f 837 838 848
f 838 839 849
f 840 850 849
f 831 841 850
f 842 852 851
f 843 853 852
f 844 854 853
f 844 845 855
f 845 846 856
f 846 847 857
f 847 848 858
f 848 849 859
f 850 860 859
f 841 851 860
f 852 862 861
f 853 863 862
f 854 864 863
f 854 855 865
f 855 856 866
f 856 857 867
f 857 858 868
f 858 859 869
f 860 870 869
f 851 861 870
f 862 872 871
f 863 873 872
f 864 874 873
f 864 865 875
f 865 866 876
f 866 867 877
f 867 868 878
f 868 869 879
f 870 880 879
f 861 871 880
f 872 882 881
f 873 883 882
f 874 884 883
f 874 875 885
f 875 876 886
f 876 877 887
f 877 878 888
f 878 879 889
f 880 890 889
f 871 881 890
f 882 892 891
f 883 893 892
f 884 894 893
f 884 885 895
f 885 886 896
f 886 887 897
f 887 888 898
f 888 889 899
f 890 900 899
f 881 891 900
f 892 902 901
f 893 903 902
f 894 904 903
f 894 895 905
f 895 896 906
f 896 897 907
f 897 898 908
f 898 899 909
f 900 910 909
f 891 901 910
f 902 912 911
f 903 913 912
f 904 914 913
f 904 905 915
f 905 906 916
f 906 907 917
f 907 908 918
f 909 919 918
f 910 920 919
f 901 911 920
f 912 922 921
f 913 923 922
f 914 924 923
f 915 925 924
f 915 916 926
f 916 917 927
f 917 918 928
f 919 929 928
f 920 930 929
f 911 921 930
f 922 932 931
f 923 933 932
f 924 934 933
f 925 935 934
f 925 926 936
f 926 927 937
f 927 928 938
f 929 939 938
f 929 930 940
f 921 931 940
f 932 942 941
f 933 943 942
f 934 944 943
f 935 945 944
f 935 936 946
f 936 937 947
f 937 938 948
f 939 949 948
f 939 940 950
f 931 941 950
f 942 952 951
f 943 953 952
f 944 954 953
f 944 945 955
f 945 946 956
f 946 947 957
f 947 948 958
f 949 959 958
f 950 960 959
f 941 951 960
f 952 962 961
f 953 963 962
f 954 964 963
f 955 965 964
f 955 956 966
f 957 967 966
f 957 958 968
f 959 969 968
f 960 970 969
f 951 961 970
f 961 962 972
f 963 973 972
f 963 964 974
f 965 975 974
f 966 976 975
f 967 977 976
f 968 978 977
f 969 979 978
f 970 980 979
f 970 961 971
f 971 972 982
f 973 983 982
f 973 974 984
f 975 985 984
f 976 986 985
f 977 987 986
f 978 988 987
f 979 989 988
f 980 990 989
f 980 971 981
f 981 982 992
f 982 983 993
f 983 984 994
f 985 995 994
f 986 996 995
f 987 997 996
f 988 998 997
f 989 999 998
f 990 1000 999
f 990 981 991
f 991 992 1002
f 992 993 1003
f 993 994 1004
f 995 1005 1004
f 996 1006 1005
f 997 1007 1006
f 998 1008 1007
f 999 1009 1008
f 1000 1010 1009
f 1000 991 1001
f 1001 1002 1012
f 1002 1003 1013
f 1003 1004 1014
f 1005 1015 1014
f 1006 1016 1015
f 1007 1017 1016
f 1008 1018 1017
f 1009 1019 1018
f 1010 1020 1019
f 1010 1001 1011
f 1011 1012 1022
f 1012 1013 1023
f 1013 1014 1024
f 1015 1025 1024
f 1016 1026 1025
f 1017 1027 1026
f 1018 1028 1027
f 1019 1029 1028
f 1019 1020 1030
f 1020 1011 1021
f 1021 1022 1032
f 1022 1023 1033
f 1023 1024 1034
f 1025 1035 1034
f 1026 1036 1035
f 1027 1037 1036
f 1028 1038 1037
f 1029 1039 1038
f 1029 1030 1040
f 1030 1021 1031
f 1031 1032 1042
f 1032 1033 1043
f 1033 1034 1044
f 1035 1045 1044
f 1036 1046 1045
f 1037 1047 1046
f 1038 1048 1047
f 1039 1049 1048
f 1040 1050 1049
f 1040 1031 1041
f 1041 1042 1052
f 1042 1043 1053
f 1043 1044 1054
f 1045 1055 1054
f 1046 1056 1055
f 1047 1057 1056
f 1048 1058 1057
f 1049 1059 1058
f 1049 1050 1060
f 1050 1041 1051
f 1051 1052 1062
f 1052 1053 1063
f 1053 1054 1064
f 1055 1065 1064
f 1056 1066 1065
f 1057 1067 1066
f 1058 1068 1067
f 1059 1069 1068
f 1059 1060 1070
f 1060 1051 1061
f 1061 1062 1072
f 1062 1063 1073
f 1063 1064 1074
f 1065 1075 1074
f 1066 1076 1075
f 1067 1077 1076
f 1068 1078 1077
f 1069 1079 1078
f 1069 1070 1080
f 1070 1061 1071
f 1071 1072 1082
f 1072 1073 1083
f 1073 1074 1084
f 1075 1085 1084
f 1076 1086 1085
f 1077 1087 1086
f 1078 1088 1087
f 1079 1089 1088
f 1079 1080 1090
f 1080 1071 1081
f 1081 1082 1092
f 1082 1083 1093
f 1083 1084 1094
f 1085 1095 1094
f 1086 1096 1095
f 1087 1097 1096
f 1088 1098 1097
f 1089 1099 1098
f 1089 1090 1100
f 1090 1081 1091
f 1091 1092 1102
f 1092 1093 1103
f 1093 1094 1104
f 1095 1105 1104
f 1096 1106 1105
f 1097 1107 1106
f 1098 1108 1107
f 1099 1109 1108
f 1099 1100 1110
f 1100 1091 1101
f 1101 1102 1112
f 1102 1103 1113
f 1103 1104 1114
f 1105 1115 1114
f 1106 1116 1115
f 1107 1117 1116
f 1108 1118 1117
f 1109 1119 1118
f 1109 1110 1120
f 1110 1101 1111
f 1111 1112 1122
f 1112 1113 1123
f 1113 1114 1124
f 1115 1125 1124
f 1116 1126 1125
f 1117 1127 1126
f 1118 1128 1127
f 1119 1129 1128
f 1119 1120 1130
f 1120 1111 1121
f 1121 1122 1132
f 1122 1123 1133
f 1123 1124 1134
f 1125 1135 1134
f 1126 1136 1135
f 1127 1137 1136
f 1128 1138 1137
f 1129 1139 1138
f 1129 1130 1140
f 1130 1121 1131
f 1131 1132 1142
f 1132 1133 1143
f 1133 1134 1144
f 1135 1145 1144
f 1136 1146 1145
f 1137 1147 1146
f 1138 1148 1147
f 1139 1149 1148
f 1139 1140 1150
f 1140 1131 1141
f 1141 1142 1152
f 1142 1143 1153
f 1143 1144 1154
f 1145 1155 1154
f 1146 1156 1155
f 1147 1157 1156
f 1148 1158 1157
f 1149 1159 1158
f 1149 1150 1160
f 1150 1141 1151
f 1151 1152 1162
f 1152 1153 1163
f 1153 1154 1164
f 1155 1165 1164
f 1156 1166 1165
f 1157 1167 1166
f 1158 1168 1167
f 1159 1169 1168
f 1159 1160 1170
f 1160 1151 1161
f 1161 1162 1172
f 1162 1163 1173
f 1163 1164 1174
f 1165 1175 1174
f 1166 1176 1175
f 1167 1177 1176
f 1168 1178 1177
f 1169 1179 1178
f 1169 1170 1180
f 1170 1161 1171
f 1171 1172 1182
f 1172 1173 1183
f 1173 1174 1184
f 1175 1185 1184
f 1176 1186 1185
f 1177 1187 1186
f 1178 1188 1187
f 1179 1189 1188
f 1179 1180 1190
f 1180 1171 1181
f 1181 1182 1192
f 1182 1183 1193
f 1183 1184 1194
f 1185 1195 1194
f 1186 1196 1195
f 1187 1197 1196
f 1188 1198 1197
f 1189 1199 1198
f 1189 1190 1200
f 1190 1181 1191
f 1191 1192 1202
f 1192 1193 1203
f 1193 1194 1204
f 1195 1205 1204
f 1196 1206 1205
f 1197 1207 1206
f 1198 1208 1207
f 1199 1209 1208
f 1199 1200 1210
f 1200 1191 1201
f 1201 1202 1212
f 1202 1203 1213
f 1203 1204 1214
f 1205 1215 1214
f 1206 1216 1215
f 1207 1217 1216
f 1208 1218 1217
f 1209 1219 1218
f 1209 1210 1220
f 1210 1201 1211
f 1211 1212 1222
f 1212 1213 1223
f 1214 1224 1223
f 1215 1225 1224
f 1216 1226 1225
f 1217 1227 1226
f 1218 1228 1227
f 1219 1229 1228
f 1220 1230 1229
f 1220 1211 1221
f 1221 1222 1232
f 1222 1223 1233
f 1224 1234 1233
f 1225 1235 1234
f 1226 1236 1235
f 1227 1237 1236
f 1228 1238 1237
f 1229 1239 1238
f 1230 1240 1239
f 1230 1221 1231
f 1231 1232 1242
f 1232 1233 1243
f 1234 1244 1243
f 1235 1245 1244
f 1236 1246 1245
f 1237 1247 1246
f 1238 1248 1247
f 1239 1249 1248
f 1240 1250 1249
f 1240 1231 1241
f 1241 1242 1252
f 1242 1243 1253
f 1244 1254 1253
f 1245 1255 1254
f 1246 1256 1255
f 1247 1257 1256
f 1248 1258 1257
f 1249 1259 1258
f 1250 1260 1259
f 1250 1241 1251
f 1251 1252 1262
f 1253 1263 1262
f 1254 1264 1263
f 1255 1265 1264
f 1256 1266 1265
f 1257 1267 1266
f 1258 1268 1267
f 1259 1269 1268
f 1260 1270 1269
f 1251 1261 1270
f 1262 1272 1271
f 1263 1273 1272
f 1264 1274 1273
f 1265 1275 1274
f 1266 1276 1275
f 1267 1277 1276
f 1268 1278 1277
f 1269 1279 1278
f 1270 1280 1279
f 1261 1271 1280
f 1272 1282 1281
f 1273 1283 1282
f 1274 1284 1283
f 1274 1275 1285
f 1275 1276 1286
f 1276 1277 1287
f 1277 1278 1288
f 1278 1279 1289
f 1280 1290 1289
f 1271 1281 1290
