# eclipse Moon_Moon.obj: Roblox cue frame, recentred on its bounding box
v -0.00000 -0.13000 0.00000
v -0.09407 -0.05814 -0.06834
v 0.03593 -0.05814 -0.11058
v 0.11628 -0.05814 0.00000
v 0.03593 -0.05814 0.11058
v -0.09407 -0.05814 0.06834
v -0.03593 0.05814 -0.11058
v 0.09407 0.05814 -0.06834
v 0.09407 0.05814 0.06834
v -0.03593 0.05814 0.11058
v -0.11628 0.05814 0.00000
v -0.00000 0.13000 0.00000
v 0.03027 -0.08548 -0.09315
v 0.02112 -0.11059 -0.06500
v 0.01009 -0.12583 -0.03105
v -0.02641 -0.12583 -0.01919
v -0.05529 -0.11059 -0.04017
v -0.07924 -0.08548 -0.05757
v -0.06915 -0.06530 -0.08862
v -0.03417 -0.06835 -0.10517
v 0.00385 -0.06530 -0.11234
v -0.10565 -0.06530 0.03838
v -0.11058 -0.06835 0.00000
v -0.10565 -0.06530 -0.03838
v -0.02641 -0.12583 0.01919
v -0.05529 -0.11059 0.04017
v -0.07924 -0.08548 0.05757
v 0.09795 -0.08548 0.00000
v 0.06834 -0.11058 0.00000
v 0.03265 -0.12583 0.00000
v 0.06292 -0.06530 -0.09315
v 0.08946 -0.06835 -0.06500
v 0.10804 -0.06530 -0.03105
v 0.03027 -0.08548 0.09315
v 0.02112 -0.11059 0.06500
v 0.01009 -0.12583 0.03105
v 0.10804 -0.06530 0.03105
v 0.08946 -0.06835 0.06500
v 0.06292 -0.06530 0.09315
v 0.00385 -0.06530 0.11234
v -0.03417 -0.06835 0.10517
v -0.06915 -0.06530 0.08862
v -0.12436 0.03265 -0.01919
v -0.12364 -0.00000 -0.04017
v -0.11189 -0.03265 -0.05757
v -0.11189 -0.03265 0.05757
v -0.12364 -0.00000 0.04017
v -0.12436 0.03265 0.01919
v -0.02018 0.03265 -0.12420
v -0.00000 -0.00000 -0.13000
v 0.02018 -0.03265 -0.12420
v -0.08933 -0.03265 -0.08862
v -0.07641 -0.00000 -0.10517
v -0.05668 0.03265 -0.11234
v 0.11189 0.03265 -0.05757
v 0.12364 -0.00000 -0.04017
v 0.12436 -0.03265 -0.01919
v 0.05668 -0.03265 -0.11234
v 0.07641 -0.00000 -0.10517
v 0.08933 0.03265 -0.08862
v 0.08933 0.03265 0.08862
v 0.07641 -0.00000 0.10517
v 0.05668 -0.03265 0.11234
v 0.12436 -0.03265 0.01919
v 0.12364 -0.00000 0.04017
v 0.11189 0.03265 0.05757
v -0.05668 0.03265 0.11234
v -0.07641 -0.00000 0.10517
v -0.08933 -0.03265 0.08862
v 0.02018 -0.03265 0.12420
v -0.00000 -0.00000 0.13000
v -0.02018 0.03265 0.12420
v -0.10804 0.06530 -0.03105
v -0.08946 0.06835 -0.06500
v -0.06292 0.06530 -0.09315
v -0.00385 0.06530 -0.11234
v 0.03417 0.06835 -0.10517
v 0.06915 0.06530 -0.08862
v 0.10565 0.06530 -0.03838
v 0.11058 0.06835 0.00000
v 0.10565 0.06530 0.03838
v 0.06915 0.06530 0.08862
v 0.03417 0.06835 0.10517
v -0.00385 0.06530 0.11234
v -0.06292 0.06530 0.09315
v -0.08946 0.06835 0.06500
v -0.10804 0.06530 0.03105
v -0.01009 0.12583 -0.03105
v -0.02112 0.11059 -0.06500
v -0.03027 0.08548 -0.09315
v -0.09795 0.08548 0.00000
v -0.06834 0.11058 0.00000
v -0.03265 0.12583 0.00000
v 0.02641 0.12583 -0.01919
v 0.05529 0.11059 -0.04017
v 0.07924 0.08548 -0.05757
v 0.02641 0.12583 0.01919
v 0.05529 0.11059 0.04017
v 0.07924 0.08548 0.05757
v -0.01009 0.12583 0.03105
v -0.02112 0.11059 0.06500
v -0.03027 0.08548 0.09315
v -0.04703 0.11628 0.03417
v -0.08297 0.09407 0.03417
v -0.05814 0.09407 0.06834
v 0.01797 0.11628 0.05529
v 0.00686 0.09407 0.08946
v 0.04703 0.09407 0.07641
v 0.05814 0.11628 0.00000
v 0.08721 0.09407 0.02112
v 0.08721 0.09407 -0.02112
v 0.01797 0.11628 -0.05529
v 0.04703 0.09407 -0.07641
v 0.00686 0.09407 -0.08946
v -0.04703 0.11628 -0.03417
v -0.05814 0.09407 -0.06834
v -0.08297 0.09407 -0.03417
v -0.11203 0.03593 0.05529
v -0.10517 -0.00000 0.07641
v -0.08721 0.03593 0.08946
v 0.01797 0.03593 0.12364
v 0.04017 -0.00000 0.12364
v 0.05814 0.03593 0.11058
v 0.12314 0.03593 0.02112
v 0.13000 0.00000 0.00000
v 0.12314 0.03593 -0.02112
v 0.05814 0.03593 -0.11058
v 0.04017 -0.00000 -0.12364
v 0.01797 0.03593 -0.12364
v -0.08721 0.03593 -0.08946
v -0.10517 -0.00000 -0.07641
v -0.11203 0.03593 -0.05529
v -0.04017 -0.00000 0.12364
v -0.05814 -0.03593 0.11058
v -0.01797 -0.03593 0.12364
v 0.10517 -0.00000 0.07641
v 0.08721 -0.03593 0.08946
v 0.11203 -0.03593 0.05529
v 0.10517 -0.00000 -0.07641
v 0.11203 -0.03593 -0.05529
v 0.08721 -0.03593 -0.08946
v -0.04017 -0.00000 -0.12364
v -0.01797 -0.03593 -0.12364
v -0.05814 -0.03593 -0.11058
v -0.13000 -0.00000 0.00000
v -0.12314 -0.03593 -0.02112
v -0.12314 -0.03593 0.02112
v -0.04703 -0.09407 0.07641
v -0.01797 -0.11628 0.05529
v -0.00686 -0.09407 0.08946
v 0.05814 -0.09407 0.06834
v 0.04703 -0.11628 0.03417
v 0.08297 -0.09407 0.03417
v 0.08297 -0.09407 -0.03417
v 0.04703 -0.11628 -0.03417
v 0.05814 -0.09407 -0.06834
v -0.08721 -0.09407 0.02112
v -0.08721 -0.09407 -0.02112
v -0.05814 -0.11628 0.00000
v -0.00686 -0.09407 -0.08946
v -0.01797 -0.11628 -0.05529
v -0.04703 -0.09407 -0.07641
s 0
f 1 16 15
s 0
f 2 18 24
s 0
f 1 15 30
s 0
f 1 30 36
s 0
f 1 36 25
s 0
f 2 24 45
s 0
f 3 21 51
s 0
f 4 33 57
s 0
f 5 39 63
s 0
f 6 42 69
s 0
f 2 45 52
s 0
f 3 51 58
s 0
f 4 57 64
s 0
f 5 63 70
s 0
f 6 69 46
s 0
f 7 75 90
s 0
f 8 78 96
s 0
f 9 81 99
s 0
f 10 84 102
s 0
f 11 87 91
s 0
f 93 100 12
s 0
f 92 103 93
s 0
f 91 104 92
s 0
f 93 103 100
s 0
f 103 101 100
s 0
f 92 104 103
s 0
f 104 105 103
s 0
f 103 105 101
s 0
f 105 102 101
s 0
f 91 87 104
s 0
f 87 86 104
s 0
f 104 86 105
s 0
f 86 85 105
s 0
f 105 85 102
s 0
f 85 10 102
s 0
f 100 97 12
s 0
f 101 106 100
s 0
f 102 107 101
s 0
f 100 106 97
s 0
f 106 98 97
s 0
f 101 107 106
s 0
f 107 108 106
s 0
f 106 108 98
s 0
f 108 99 98
s 0
f 102 84 107
s 0
f 84 83 107
s 0
f 107 83 108
s 0
f 83 82 108
s 0
f 108 82 99
s 0
f 82 9 99
s 0
f 97 94 12
s 0
f 98 109 97
s 0
f 99 110 98
s 0
f 97 109 94
s 0
f 109 95 94
s 0
f 98 110 109
s 0
f 110 111 109
s 0
f 109 111 95
s 0
f 111 96 95
s 0
f 99 81 110
s 0
f 81 80 110
s 0
f 110 80 111
s 0
f 80 79 111
s 0
f 111 79 96
s 0
f 79 8 96
s 0
f 94 88 12
s 0
f 95 112 94
s 0
f 96 113 95
s 0
f 94 112 88
s 0
f 112 89 88
s 0
f 95 113 112
s 0
f 113 114 112
s 0
f 112 114 89
s 0
f 114 90 89
s 0
f 96 78 113
s 0
f 78 77 113
s 0
f 113 77 114
s 0
f 77 76 114
s 0
f 114 76 90
s 0
f 76 7 90
s 0
f 88 93 12
s 0
f 89 115 88
s 0
f 90 116 89
s 0
f 88 115 93
s 0
f 115 92 93
s 0
f 89 116 115
s 0
f 116 117 115
s 0
f 115 117 92
s 0
f 117 91 92
s 0
f 90 75 116
s 0
f 75 74 116
s 0
f 116 74 117
s 0
f 74 73 117
s 0
f 117 73 91
s 0
f 73 11 91
s 0
f 48 87 11
s 0
f 47 118 48
s 0
f 46 119 47
s 0
f 48 118 87
s 0
f 118 86 87
s 0
f 47 119 118
s 0
f 119 120 118
s 0
f 118 120 86
s 0
f 120 85 86
s 0
f 46 69 119
s 0
f 69 68 119
s 0
f 119 68 120
s 0
f 68 67 120
s 0
f 120 67 85
s 0
f 67 10 85
s 0
f 72 84 10
s 0
f 71 121 72
s 0
f 70 122 71
s 0
f 72 121 84
s 0
f 121 83 84
s 0
f 71 122 121
s 0
f 122 123 121
s 0
f 121 123 83
s 0
f 123 82 83
s 0
f 70 63 122
s 0
f 63 62 122
s 0
f 122 62 123
s 0
f 62 61 123
s 0
f 123 61 82
s 0
f 61 9 82
s 0
f 66 81 9
s 0
f 65 124 66
s 0
f 64 125 65
s 0
f 66 124 81
s 0
f 124 80 81
s 0
f 65 125 124
s 0
f 125 126 124
s 0
f 124 126 80
s 0
f 126 79 80
s 0
f 64 57 125
s 0
f 57 56 125
s 0
f 125 56 126
s 0
f 56 55 126
s 0
f 126 55 79
s 0
f 55 8 79
s 0
f 60 78 8
s 0
f 59 127 60
s 0
f 58 128 59
s 0
f 60 127 78
s 0
f 127 77 78
s 0
f 59 128 127
s 0
f 128 129 127
s 0
f 127 129 77
s 0
f 129 76 77
s 0
f 58 51 128
s 0
f 51 50 128
s 0
f 128 50 129
s 0
f 50 49 129
s 0
f 129 49 76
s 0
f 49 7 76
s 0
f 54 75 7
s 0
f 53 130 54
s 0
f 52 131 53
s 0
f 54 130 75
s 0
f 130 74 75
s 0
f 53 131 130
s 0
f 131 132 130
s 0
f 130 132 74
s 0
f 132 73 74
s 0
f 52 45 131
s 0
f 45 44 131
s 0
f 131 44 132
s 0
f 44 43 132
s 0
f 132 43 73
s 0
f 43 11 73
s 0
f 67 72 10
s 0
f 68 133 67
s 0
f 69 134 68
s 0
f 67 133 72
s 0
f 133 71 72
s 0
f 68 134 133
s 0
f 134 135 133
s 0
f 133 135 71
s 0
f 135 70 71
s 0
f 69 42 134
s 0
f 42 41 134
s 0
f 134 41 135
s 0
f 41 40 135
s 0
f 135 40 70
s 0
f 40 5 70
s 0
f 61 66 9
s 0
f 62 136 61
s 0
f 63 137 62
s 0
f 61 136 66
s 0
f 136 65 66
s 0
f 62 137 136
s 0
f 137 138 136
s 0
f 136 138 65
s 0
f 138 64 65
s 0
f 63 39 137
s 0
f 39 38 137
s 0
f 137 38 138
s 0
f 38 37 138
s 0
f 138 37 64
s 0
f 37 4 64
s 0
f 55 60 8
s 0
f 56 139 55
s 0
f 57 140 56
s 0
f 55 139 60
s 0
f 139 59 60
s 0
f 56 140 139
s 0
f 140 141 139
s 0
f 139 141 59
s 0
f 141 58 59
s 0
f 57 33 140
s 0
f 33 32 140
s 0
f 140 32 141
s 0
f 32 31 141
s 0
f 141 31 58
s 0
f 31 3 58
s 0
f 49 54 7
s 0
f 50 142 49
s 0
f 51 143 50
s 0
f 49 142 54
s 0
f 142 53 54
s 0
f 50 143 142
s 0
f 143 144 142
s 0
f 142 144 53
s 0
f 144 52 53
s 0
f 51 21 143
s 0
f 21 20 143
s 0
f 143 20 144
s 0
f 20 19 144
s 0
f 144 19 52
s 0
f 19 2 52
s 0
f 43 48 11
s 0
f 44 145 43
s 0
f 45 146 44
s 0
f 43 145 48
s 0
f 145 47 48
s 0
f 44 146 145
s 0
f 146 147 145
s 0
f 145 147 47
s 0
f 147 46 47
s 0
f 45 24 146
s 0
f 24 23 146
s 0
f 146 23 147
s 0
f 23 22 147
s 0
f 147 22 46
s 0
f 22 6 46
s 0
f 27 42 6
s 0
f 26 148 27
s 0
f 25 149 26
s 0
f 27 148 42
s 0
f 148 41 42
s 0
f 26 149 148
s 0
f 149 150 148
s 0
f 148 150 41
s 0
f 150 40 41
s 0
f 25 36 149
s 0
f 36 35 149
s 0
f 149 35 150
s 0
f 35 34 150
s 0
f 150 34 40
s 0
f 34 5 40
s 0
f 34 39 5
s 0
f 35 151 34
s 0
f 36 152 35
s 0
f 34 151 39
s 0
f 151 38 39
s 0
f 35 152 151
s 0
f 152 153 151
s 0
f 151 153 38
s 0
f 153 37 38
s 0
f 36 30 152
s 0
f 30 29 152
s 0
f 152 29 153
s 0
f 29 28 153
s 0
f 153 28 37
s 0
f 28 4 37
s 0
f 28 33 4
s 0
f 29 154 28
s 0
f 30 155 29
s 0
f 28 154 33
s 0
f 154 32 33
s 0
f 29 155 154
s 0
f 155 156 154
s 0
f 154 156 32
s 0
f 156 31 32
s 0
f 30 15 155
s 0
f 15 14 155
s 0
f 155 14 156
s 0
f 14 13 156
s 0
f 156 13 31
s 0
f 13 3 31
s 0
f 22 27 6
s 0
f 23 157 22
s 0
f 24 158 23
s 0
f 22 157 27
s 0
f 157 26 27
s 0
f 23 158 157
s 0
f 158 159 157
s 0
f 157 159 26
s 0
f 159 25 26
s 0
f 24 18 158
s 0
f 18 17 158
s 0
f 158 17 159
s 0
f 17 16 159
s 0
f 159 16 25
s 0
f 16 1 25
s 0
f 13 21 3
s 0
f 14 160 13
s 0
f 15 161 14
s 0
f 13 160 21
s 0
f 160 20 21
s 0
f 14 161 160
s 0
f 161 162 160
s 0
f 160 162 20
s 0
f 162 19 20
s 0
f 15 16 161
s 0
f 16 17 161
s 0
f 161 17 162
s 0
f 17 18 162
s 0
f 162 18 19
s 0
f 18 2 19
