# eclipse Mount_Obsidian.obj: Roblox cue frame, recentred on its bounding box
v -0.00000 0.19000 0.15000
v 0.03707 0.18635 0.15000
v 0.07271 0.17554 0.15000
v 0.10556 0.15798 0.15000
v 0.13435 0.13435 0.15000
v 0.15798 0.10556 0.15000
v 0.17554 0.07271 0.15000
v 0.18635 0.03707 0.15000
v 0.19000 0.00000 0.15000
v 0.18635 -0.03707 0.15000
v 0.17554 -0.07271 0.15000
v 0.15798 -0.10556 0.15000
v 0.13435 -0.13435 0.15000
v 0.10556 -0.15798 0.15000
v 0.07271 -0.17554 0.15000
v 0.03707 -0.18635 0.15000
v 0.00000 -0.19000 0.15000
v -0.03707 -0.18635 0.15000
v -0.07271 -0.17554 0.15000
v -0.10556 -0.15798 0.15000
v -0.13435 -0.13435 0.15000
v -0.15798 -0.10556 0.15000
v -0.17554 -0.07271 0.15000
v -0.18635 -0.03707 0.15000
v -0.19000 -0.00000 0.15000
v -0.18635 0.03707 0.15000
v -0.17554 0.07271 0.15000
v -0.15798 0.10556 0.15000
v -0.13435 0.13435 0.15000
v -0.10556 0.15798 0.15000
v -0.07271 0.17554 0.15000
v -0.03707 0.18635 0.15000
v -0.00000 0.21000 0.07000
v 0.04097 0.20596 0.07000
v 0.08036 0.19401 0.07000
v 0.11667 0.17461 0.07000
v 0.14849 0.14849 0.07000
v 0.17461 0.11667 0.07000
v 0.19401 0.08036 0.07000
v 0.20596 0.04097 0.07000
v 0.21000 0.00000 0.07000
v 0.20596 -0.04097 0.07000
v 0.19401 -0.08036 0.07000
v 0.17461 -0.11667 0.07000
v 0.14849 -0.14849 0.07000
v 0.11667 -0.17461 0.07000
v 0.08036 -0.19401 0.07000
v 0.04097 -0.20596 0.07000
v 0.00000 -0.21000 0.07000
v -0.04097 -0.20596 0.07000
v -0.08036 -0.19401 0.07000
v -0.11667 -0.17461 0.07000
v -0.14849 -0.14849 0.07000
v -0.17461 -0.11667 0.07000
v -0.19401 -0.08036 0.07000
v -0.20596 -0.04097 0.07000
v -0.21000 -0.00000 0.07000
v -0.20596 0.04097 0.07000
v -0.19401 0.08036 0.07000
v -0.17461 0.11667 0.07000
v -0.14849 0.14849 0.07000
v -0.11667 0.17461 0.07000
v -0.08036 0.19401 0.07000
v -0.04097 0.20596 0.07000
v -0.00000 0.23000 -0.05000
v 0.04487 0.22558 -0.05000
v 0.08802 0.21249 -0.05000
v 0.12778 0.19124 -0.05000
v 0.16263 0.16263 -0.05000
v 0.19124 0.12778 -0.05000
v 0.21249 0.08802 -0.05000
v 0.22558 0.04487 -0.05000
v 0.23000 0.00000 -0.05000
v 0.22558 -0.04487 -0.05000
v 0.21249 -0.08802 -0.05000
v 0.19124 -0.12778 -0.05000
v 0.16263 -0.16263 -0.05000
v 0.12778 -0.19124 -0.05000
v 0.08802 -0.21249 -0.05000
v 0.04487 -0.22558 -0.05000
v 0.00000 -0.23000 -0.05000
v -0.04487 -0.22558 -0.05000
v -0.08802 -0.21249 -0.05000
v -0.12778 -0.19124 -0.05000
v -0.16263 -0.16263 -0.05000
v -0.19124 -0.12778 -0.05000
v -0.21249 -0.08802 -0.05000
v -0.22558 -0.04487 -0.05000
v -0.23000 -0.00000 -0.05000
v -0.22558 0.04487 -0.05000
v -0.21249 0.08802 -0.05000
v -0.19124 0.12778 -0.05000
v -0.16263 0.16263 -0.05000
v -0.12778 0.19124 -0.05000
v -0.08802 0.21249 -0.05000
v -0.04487 0.22558 -0.05000
v -0.00000 0.18000 -0.15000
v 0.03512 0.17654 -0.15000
v 0.06888 0.16630 -0.15000
v 0.10000 0.14966 -0.15000
v 0.12728 0.12728 -0.15000
v 0.14966 0.10000 -0.15000
v 0.16630 0.06888 -0.15000
v 0.17654 0.03512 -0.15000
v 0.18000 0.00000 -0.15000
v 0.17654 -0.03512 -0.15000
v 0.16630 -0.06888 -0.15000
v 0.14966 -0.10000 -0.15000
v 0.12728 -0.12728 -0.15000
v 0.10000 -0.14966 -0.15000
v 0.06888 -0.16630 -0.15000
v 0.03512 -0.17654 -0.15000
v 0.00000 -0.18000 -0.15000
v -0.03512 -0.17654 -0.15000
v -0.06888 -0.16630 -0.15000
v -0.10000 -0.14966 -0.15000
v -0.12728 -0.12728 -0.15000
v -0.14966 -0.10000 -0.15000
v -0.16630 -0.06888 -0.15000
v -0.17654 -0.03512 -0.15000
v -0.18000 -0.00000 -0.15000
v -0.17654 0.03512 -0.15000
v -0.16630 0.06888 -0.15000
v -0.14966 0.10000 -0.15000
v -0.12728 0.12728 -0.15000
v -0.10000 0.14966 -0.15000
v -0.06888 0.16630 -0.15000
v -0.03512 0.17654 -0.15000
v 0.00000 0.00000 0.15000
v -0.00000 0.00000 -0.15000
s 1
f 1 34 33
s 1
f 3 34 2
s 1
f 3 36 35
s 1
f 5 36 4
s 1
f 5 38 37
s 1
f 6 39 38
s 1
f 7 40 39
s 1
f 8 41 40
s 1
f 10 41 9
s 1
f 11 42 10
s 1
f 12 43 11
s 1
f 13 44 12
s 1
f 13 46 45
s 1
f 15 46 14
s 1
f 15 48 47
s 1
f 17 48 16
s 1
f 17 50 49
s 1
f 19 50 18
s 1
f 19 52 51
s 1
f 21 52 20
s 1
f 21 54 53
s 1
f 22 55 54
s 1
f 23 56 55
s 1
f 24 57 56
s 1
f 26 57 25
s 1
f 27 58 26
s 1
f 28 59 27
s 1
f 29 60 28
s 1
f 29 62 61
s 1
f 31 62 30
s 1
f 31 64 63
s 1
f 1 64 32
s 1
f 33 66 65
s 1
f 35 66 34
s 1
f 36 67 35
s 1
f 36 69 68
s 1
f 38 69 37
s 1
f 38 71 70
s 1
f 40 71 39
s 1
f 41 72 40
s 1
f 41 74 73
s 1
f 42 75 74
s 1
f 44 75 43
s 1
f 44 77 76
s 1
f 46 77 45
s 1
f 47 78 46
s 1
f 47 80 79
s 1
f 49 80 48
s 1
f 49 82 81
s 1
f 51 82 50
s 1
f 52 83 51
s 1
f 52 85 84
s 1
f 54 85 53
s 1
f 54 87 86
s 1
f 56 87 55
s 1
f 57 88 56
s 1
f 57 90 89
s 1
f 58 91 90
s 1
f 60 91 59
s 1
f 60 93 92
s 1
f 62 93 61
s 1
f 63 94 62
s 1
f 63 96 95
s 1
f 33 96 64
s 1
f 65 98 97
s 1
f 66 99 98
s 1
f 68 99 67
s 1
f 69 100 68
s 1
f 69 102 101
s 1
f 71 102 70
s 1
f 72 103 71
s 1
f 73 104 72
s 1
f 73 106 105
s 1
f 74 107 106
s 1
f 75 108 107
s 1
f 77 108 76
s 1
f 77 110 109
s 1
f 78 111 110
s 1
f 80 111 79
s 1
f 81 112 80
s 1
f 81 114 113
s 1
f 82 115 114
s 1
f 84 115 83
s 1
f 85 116 84
s 1
f 85 118 117
s 1
f 87 118 86
s 1
f 88 119 87
s 1
f 89 120 88
s 1
f 89 122 121
s 1
f 90 123 122
s 1
f 91 124 123
s 1
f 93 124 92
s 1
f 93 126 125
s 1
f 94 127 126
s 1
f 96 127 95
s 1
f 65 128 96
s 1
f 129 2 1
s 1
f 129 3 2
s 1
f 129 4 3
s 1
f 129 5 4
s 1
f 129 6 5
s 1
f 129 7 6
s 1
f 129 8 7
s 1
f 129 9 8
s 1
f 129 10 9
s 1
f 129 11 10
s 1
f 129 12 11
s 1
f 129 13 12
s 1
f 129 14 13
s 1
f 129 15 14
s 1
f 129 16 15
s 1
f 129 17 16
s 1
f 129 18 17
s 1
f 129 19 18
s 1
f 129 20 19
s 1
f 129 21 20
s 1
f 129 22 21
s 1
f 129 23 22
s 1
f 129 24 23
s 1
f 129 25 24
s 1
f 129 26 25
s 1
f 129 27 26
s 1
f 129 28 27
s 1
f 129 29 28
s 1
f 129 30 29
s 1
f 129 31 30
s 1
f 129 32 31
s 1
f 129 1 32
s 1
f 97 98 130
s 1
f 98 99 130
s 1
f 99 100 130
s 1
f 100 101 130
s 1
f 101 102 130
s 1
f 102 103 130
s 1
f 103 104 130
s 1
f 104 105 130
s 1
f 105 106 130
s 1
f 106 107 130
s 1
f 107 108 130
s 1
f 108 109 130
s 1
f 109 110 130
s 1
f 110 111 130
s 1
f 111 112 130
s 1
f 112 113 130
s 1
f 113 114 130
s 1
f 114 115 130
s 1
f 115 116 130
s 1
f 116 117 130
s 1
f 117 118 130
s 1
f 118 119 130
s 1
f 119 120 130
s 1
f 120 121 130
s 1
f 121 122 130
s 1
f 122 123 130
s 1
f 123 124 130
s 1
f 124 125 130
s 1
f 125 126 130
s 1
f 126 127 130
s 1
f 127 128 130
s 1
f 128 97 130
s 1
f 1 2 34
s 1
f 3 35 34
s 1
f 3 4 36
s 1
f 5 37 36
s 1
f 5 6 38
s 1
f 6 7 39
s 1
f 7 8 40
s 1
f 8 9 41
s 1
f 10 42 41
s 1
f 11 43 42
s 1
f 12 44 43
s 1
f 13 45 44
s 1
f 13 14 46
s 1
f 15 47 46
s 1
f 15 16 48
s 1
f 17 49 48
s 1
f 17 18 50
s 1
f 19 51 50
s 1
f 19 20 52
s 1
f 21 53 52
s 1
f 21 22 54
s 1
f 22 23 55
s 1
f 23 24 56
s 1
f 24 25 57
s 1
f 26 58 57
s 1
f 27 59 58
s 1
f 28 60 59
s 1
f 29 61 60
s 1
f 29 30 62
s 1
f 31 63 62
s 1
f 31 32 64
s 1
f 1 33 64
s 1
f 33 34 66
s 1
f 35 67 66
s 1
f 36 68 67
s 1
f 36 37 69
s 1
f 38 70 69
s 1
f 38 39 71
s 1
f 40 72 71
s 1
f 41 73 72
s 1
f 41 42 74
s 1
f 42 43 75
s 1
f 44 76 75
s 1
f 44 45 77
s 1
f 46 78 77
s 1
f 47 79 78
s 1
f 47 48 80
s 1
f 49 81 80
s 1
f 49 50 82
s 1
f 51 83 82
s 1
f 52 84 83
s 1
f 52 53 85
s 1
f 54 86 85
s 1
f 54 55 87
s 1
f 56 88 87
s 1
f 57 89 88
s 1
f 57 58 90
s 1
f 58 59 91
s 1
f 60 92 91
s 1
f 60 61 93
s 1
f 62 94 93
s 1
f 63 95 94
s 1
f 63 64 96
s 1
f 33 65 96
s 1
f 65 66 98
s 1
f 66 67 99
s 1
f 68 100 99
s 1
f 69 101 100
s 1
f 69 70 102
s 1
f 71 103 102
s 1
f 72 104 103
s 1
f 73 105 104
s 1
f 73 74 106
s 1
f 74 75 107
s 1
f 75 76 108
s 1
f 77 109 108
s 1
f 77 78 110
s 1
f 78 79 111
s 1
f 80 112 111
s 1
f 81 113 112
s 1
f 81 82 114
s 1
f 82 83 115
s 1
f 84 116 115
s 1
f 85 117 116
s 1
f 85 86 118
s 1
f 87 119 118
s 1
f 88 120 119
s 1
f 89 121 120
s 1
f 89 90 122
s 1
f 90 91 123
s 1
f 91 92 124
s 1
f 93 125 124
s 1
f 93 94 126
s 1
f 94 95 127
s 1
f 96 128 127
s 1
f 65 97 128
