# eclipse Orbital3_OrbitGlow.obj: Roblox cue frame, recentred on its bounding box
v -0.16338 -0.37299 -0.39839
v -0.14390 -0.38023 -0.38284
v -0.12686 -0.39920 -0.37796
v -0.11875 -0.42263 -0.38564
v -0.12269 -0.44159 -0.40292
v -0.13716 -0.44883 -0.42322
v -0.15663 -0.44159 -0.43878
v -0.17368 -0.42263 -0.44365
v -0.18178 -0.39920 -0.43598
v -0.17785 -0.38023 -0.41869
v -0.13832 -0.35656 -0.42215
v -0.11907 -0.36395 -0.40638
v -0.10190 -0.38283 -0.40161
v -0.09338 -0.40599 -0.40966
v -0.09675 -0.42458 -0.42746
v -0.11073 -0.43151 -0.44821
v -0.12998 -0.42412 -0.46398
v -0.14714 -0.40524 -0.46875
v -0.15567 -0.38208 -0.46070
v -0.15230 -0.36349 -0.44290
v -0.11344 -0.33896 -0.44352
v -0.09466 -0.34666 -0.42734
v -0.07725 -0.36535 -0.42275
v -0.06786 -0.38792 -0.43151
v -0.07008 -0.40572 -0.45026
v -0.08306 -0.41198 -0.47185
v -0.10184 -0.40428 -0.48803
v -0.11925 -0.38558 -0.49262
v -0.12864 -0.36302 -0.48387
v -0.12642 -0.34521 -0.46512
v -0.08816 -0.31984 -0.46304
v -0.06986 -0.32786 -0.44648
v -0.05220 -0.34637 -0.44205
v -0.04194 -0.36828 -0.45144
v -0.04299 -0.38524 -0.47107
v -0.05496 -0.39076 -0.49343
v -0.07326 -0.38273 -0.50999
v -0.09092 -0.36422 -0.51442
v -0.10118 -0.34231 -0.50503
v -0.10013 -0.32535 -0.48540
v -0.06260 -0.29926 -0.48062
v -0.04477 -0.30765 -0.46371
v -0.02687 -0.32595 -0.45942
v -0.01573 -0.34718 -0.46938
v -0.01560 -0.36321 -0.48979
v -0.02654 -0.36794 -0.51286
v -0.04436 -0.35955 -0.52976
v -0.06226 -0.34125 -0.53405
v -0.07340 -0.32003 -0.52409
v -0.07353 -0.30399 -0.50368
v -0.03685 -0.27734 -0.49618
v -0.01952 -0.28612 -0.47896
v -0.00137 -0.30420 -0.47479
v 0.01066 -0.32468 -0.48526
v 0.01198 -0.33974 -0.50636
v 0.00208 -0.34362 -0.53004
v -0.01525 -0.33484 -0.54725
v -0.03340 -0.31676 -0.55142
v -0.04543 -0.29627 -0.54096
v -0.04675 -0.28122 -0.51986
v -0.01103 -0.25414 -0.50965
v 0.00581 -0.26334 -0.49217
v 0.02420 -0.28120 -0.48810
v 0.03712 -0.30090 -0.49900
v 0.03962 -0.31493 -0.52070
v 0.03077 -0.31791 -0.54491
v 0.01393 -0.30871 -0.56240
v -0.00446 -0.29085 -0.56647
v -0.01738 -0.27115 -0.55557
v -0.01989 -0.25713 -0.53387
v 0.01475 -0.22979 -0.52099
v 0.03109 -0.23942 -0.50328
v 0.04972 -0.25705 -0.49929
v 0.06352 -0.27594 -0.51054
v 0.06722 -0.28887 -0.53274
v 0.05941 -0.29091 -0.55741
v 0.04306 -0.28127 -0.57512
v 0.02443 -0.26365 -0.57912
v 0.01063 -0.24476 -0.56786
v 0.00693 -0.23183 -0.54566
v 0.04037 -0.20438 -0.53014
v 0.05622 -0.21447 -0.51224
v 0.07509 -0.23186 -0.50830
v 0.08977 -0.24989 -0.51984
v 0.09465 -0.26169 -0.54244
v 0.08787 -0.26274 -0.56747
v 0.07202 -0.25264 -0.58538
v 0.05315 -0.23526 -0.58931
v 0.03847 -0.21722 -0.57778
v 0.03359 -0.20543 -0.55518
v 0.06574 -0.17801 -0.53707
v 0.08110 -0.18859 -0.51901
v 0.10020 -0.20573 -0.51511
v 0.11574 -0.22288 -0.52685
v 0.12179 -0.23350 -0.54976
v 0.11604 -0.23352 -0.57507
v 0.10068 -0.22294 -0.59312
v 0.08158 -0.20580 -0.59702
v 0.06604 -0.18865 -0.58528
v 0.05998 -0.17803 -0.56238
v 0.09073 -0.15081 -0.54173
v 0.10561 -0.16188 -0.52357
v 0.12494 -0.17877 -0.51968
v 0.14133 -0.19502 -0.53156
v 0.14854 -0.20442 -0.55466
v 0.14380 -0.20338 -0.58015
v 0.12892 -0.19230 -0.59832
v 0.10960 -0.17542 -0.60220
v 0.09320 -0.15917 -0.59033
v 0.08599 -0.14977 -0.56723
v 0.11526 -0.12288 -0.54411
v 0.12965 -0.13447 -0.52589
v 0.14920 -0.15111 -0.52200
v 0.16643 -0.16642 -0.53393
v 0.17476 -0.17457 -0.55712
v 0.17102 -0.17244 -0.58272
v 0.15662 -0.16085 -0.60094
v 0.13708 -0.14422 -0.60483
v 0.11984 -0.12890 -0.59290
v 0.11151 -0.12075 -0.56971
v 0.13919 -0.09435 -0.54421
v 0.15312 -0.10648 -0.52597
v 0.17288 -0.12285 -0.52205
v 0.19092 -0.13722 -0.53395
v 0.20036 -0.14409 -0.55714
v 0.19759 -0.14085 -0.58274
v 0.18366 -0.12872 -0.60099
v 0.16391 -0.11235 -0.60490
v 0.14586 -0.09798 -0.59300
v 0.13642 -0.09111 -0.56982
v 0.16245 -0.06534 -0.54202
v 0.17591 -0.07801 -0.52380
v 0.19587 -0.09412 -0.51983
v 0.21471 -0.10753 -0.53164
v 0.22522 -0.11310 -0.55471
v 0.22339 -0.10872 -0.58023
v 0.20993 -0.09606 -0.59845
v 0.18997 -0.07995 -0.60242
v 0.17113 -0.06654 -0.59061
v 0.16062 -0.06096 -0.56754
v 0.18492 -0.03598 -0.53755
v 0.19794 -0.04919 -0.51939
v 0.21809 -0.06505 -0.51536
v 0.23769 -0.07748 -0.52699
v 0.24924 -0.08174 -0.54984
v 0.24833 -0.07621 -0.57519
v 0.23531 -0.06299 -0.59334
v 0.21515 -0.04714 -0.59738
v 0.19556 -0.03471 -0.58575
v 0.18401 -0.03045 -0.56289
v 0.20651 -0.00638 -0.53082
v 0.21909 -0.02016 -0.51277
v 0.23943 -0.03575 -0.50865
v 0.25976 -0.04720 -0.52003
v 0.27230 -0.05014 -0.54256
v 0.27228 -0.04345 -0.56764
v 0.25969 -0.02968 -0.58569
v 0.23935 -0.01408 -0.58981
v 0.21903 -0.00263 -0.57843
v 0.20648 0.00031 -0.55590
v 0.22712 0.02332 -0.52185
v 0.23930 0.00898 -0.50396
v 0.25981 -0.00635 -0.49973
v 0.28083 -0.01683 -0.51079
v 0.29433 -0.01844 -0.53290
v 0.29515 -0.01058 -0.55763
v 0.28298 0.00376 -0.57552
v 0.26246 0.01909 -0.57974
v 0.24144 0.02957 -0.56869
v 0.22794 0.03118 -0.54658
v 0.24668 0.05299 -0.51069
v 0.25845 0.03809 -0.49300
v 0.27913 0.02302 -0.48865
v 0.30081 0.01352 -0.49931
v 0.31521 0.01323 -0.52090
v 0.31683 0.02226 -0.54518
v 0.30506 0.03716 -0.56288
v 0.28438 0.05224 -0.56723
v 0.26270 0.06174 -0.55657
v 0.24830 0.06203 -0.53497
v 0.26509 0.08252 -0.49739
v 0.27649 0.06706 -0.47993
v 0.29731 0.05223 -0.47544
v 0.31961 0.04370 -0.48563
v 0.33487 0.04473 -0.50661
v 0.33725 0.05493 -0.53036
v 0.32585 0.07039 -0.54782
v 0.30502 0.08522 -0.55231
v 0.28272 0.09375 -0.54212
v 0.26747 0.09272 -0.52114
v 0.28227 0.11177 -0.48199
v 0.29332 0.09575 -0.46482
v 0.31428 0.08117 -0.46017
v 0.33716 0.07360 -0.46982
v 0.35321 0.07593 -0.49009
v 0.35630 0.08728 -0.51323
v 0.34525 0.10330 -0.53040
v 0.32429 0.11789 -0.53505
v 0.30141 0.12546 -0.52540
v 0.28536 0.12312 -0.50513
v 0.29816 0.14062 -0.46457
v 0.30887 0.12404 -0.44772
v 0.32996 0.10970 -0.44290
v 0.35337 0.10307 -0.45195
v 0.37016 0.10670 -0.47141
v 0.37391 0.11918 -0.49386
v 0.36320 0.13576 -0.51071
v 0.34210 0.15011 -0.51553
v 0.31870 0.15673 -0.50648
v 0.30191 0.15311 -0.48702
v 0.31268 0.16895 -0.44520
v 0.32309 0.15182 -0.42871
v 0.34429 0.13771 -0.42370
v 0.36819 0.13201 -0.43208
v 0.38565 0.13689 -0.45066
v 0.39000 0.15049 -0.47233
v 0.37959 0.16762 -0.48882
v 0.35839 0.18174 -0.49383
v 0.33450 0.18744 -0.48545
v 0.31703 0.18255 -0.46688
v 0.32577 0.19663 -0.42397
v 0.33590 0.17896 -0.40788
v 0.35720 0.16507 -0.40266
v 0.38154 0.16027 -0.41032
v 0.39961 0.16639 -0.42792
v 0.40451 0.18109 -0.44874
v 0.39438 0.19875 -0.46484
v 0.37308 0.21264 -0.47005
v 0.34874 0.21744 -0.46239
v 0.33067 0.21133 -0.44479
v 0.33737 0.22354 -0.40096
v 0.34725 0.20535 -0.38530
v 0.36864 0.19168 -0.37987
v 0.39336 0.18775 -0.38674
v 0.41198 0.19506 -0.40329
v 0.41737 0.21083 -0.42319
v 0.40749 0.22902 -0.43885
v 0.38610 0.24269 -0.44428
v 0.36138 0.24662 -0.43741
v 0.34277 0.23931 -0.42086
v 0.34744 0.24958 -0.37627
v 0.35710 0.23087 -0.36108
v 0.37856 0.21740 -0.35542
v 0.40362 0.21432 -0.36146
v 0.42270 0.22279 -0.37687
v 0.42853 0.23958 -0.39579
v 0.41887 0.25829 -0.41098
v 0.39741 0.27175 -0.41663
v 0.37235 0.27484 -0.41060
v 0.35327 0.26637 -0.39518
v 0.35593 0.27462 -0.35001
v 0.36540 0.25542 -0.33532
v 0.38692 0.24215 -0.32943
v 0.41226 0.23987 -0.33457
v 0.43174 0.24945 -0.34879
v 0.43793 0.26724 -0.36665
v 0.42847 0.28644 -0.38134
v 0.40695 0.29971 -0.38723
v 0.38161 0.30199 -0.38209
v 0.36212 0.29241 -0.36787
v 0.36281 0.29856 -0.32229
v 0.37212 0.27889 -0.30814
v 0.39367 0.26580 -0.30199
v 0.41924 0.26429 -0.30620
v 0.43906 0.27494 -0.31916
v 0.44555 0.29367 -0.33591
v 0.43624 0.31334 -0.35005
v 0.41469 0.32643 -0.35620
v 0.38912 0.32794 -0.35199
v 0.36930 0.31730 -0.33904
v 0.36804 0.32130 -0.29322
v 0.37722 0.30118 -0.27964
v 0.39880 0.28826 -0.27324
v 0.42455 0.28748 -0.27647
v 0.44462 0.29913 -0.28810
v 0.45134 0.31877 -0.30368
v 0.44216 0.33889 -0.31727
v 0.42058 0.35181 -0.32367
v 0.39484 0.35260 -0.32044
v 0.37477 0.34094 -0.30881
v 0.37160 0.34275 -0.26295
v 0.38068 0.32220 -0.24995
v 0.40228 0.30943 -0.24329
v 0.42814 0.30933 -0.24550
v 0.44839 0.32194 -0.25575
v 0.45529 0.34243 -0.27012
v 0.44621 0.36298 -0.28311
v 0.42461 0.37574 -0.28977
v 0.39875 0.37584 -0.28756
v 0.37850 0.36324 -0.27731
v 0.37348 0.36280 -0.23158
v 0.38250 0.34185 -0.21920
v 0.40410 0.32923 -0.21227
v 0.43002 0.32977 -0.21343
v 0.45037 0.34325 -0.22225
v 0.45737 0.36454 -0.23535
v 0.44835 0.38549 -0.24774
v 0.42675 0.39811 -0.25467
v 0.40083 0.39757 -0.25350
v 0.38048 0.38409 -0.24468
v 0.37366 0.38138 -0.19926
v 0.38266 0.36005 -0.18751
v 0.40424 0.34756 -0.18031
v 0.43017 0.34868 -0.18040
v 0.45055 0.36299 -0.18774
v 0.45759 0.38501 -0.19955
v 0.44859 0.40634 -0.21129
v 0.42701 0.41883 -0.21850
v 0.40108 0.41771 -0.21841
v 0.38070 0.40340 -0.21106
v 0.37216 0.39840 -0.16613
v 0.38115 0.37672 -0.15504
v 0.40271 0.36435 -0.14755
v 0.42860 0.36601 -0.14654
v 0.44892 0.38106 -0.15238
v 0.45592 0.40376 -0.16284
v 0.44693 0.42543 -0.17394
v 0.42537 0.43781 -0.18142
v 0.39949 0.43615 -0.18244
v 0.37916 0.42110 -0.17659
v 0.36897 0.41379 -0.13232
v 0.37800 0.39180 -0.12190
v 0.39952 0.37953 -0.11414
v 0.42530 0.38166 -0.11200
v 0.44550 0.39739 -0.11630
v 0.45240 0.42070 -0.12541
v 0.44336 0.44269 -0.13583
v 0.42185 0.45496 -0.14359
v 0.39607 0.45282 -0.14573
v 0.37587 0.43710 -0.14142
v 0.36410 0.42749 -0.09799
v 0.37321 0.40521 -0.08825
v 0.39467 0.39303 -0.08021
v 0.42029 0.39559 -0.07693
v 0.44029 0.41191 -0.07968
v 0.44702 0.43576 -0.08739
v 0.43791 0.45803 -0.09713
v 0.41645 0.47022 -0.10517
v 0.39083 0.46766 -0.10845
v 0.37083 0.45134 -0.10570
v 0.35758 0.43943 -0.06327
v 0.36679 0.41691 -0.05423
v 0.38819 0.40479 -0.04591
v 0.41360 0.40772 -0.04148
v 0.43332 0.42455 -0.04265
v 0.43981 0.44888 -0.04896
v 0.43060 0.47140 -0.05801
v 0.40921 0.48352 -0.06633
v 0.38380 0.48059 -0.07075
v 0.36408 0.46375 -0.06958
v 0.34944 0.44957 -0.02833
v 0.35879 0.42683 -0.01998
v 0.38010 0.41477 -0.01138
v 0.40525 0.41800 -0.00581
v 0.42462 0.43527 -0.00539
v 0.43081 0.46000 -0.01029
v 0.42147 0.48274 -0.01863
v 0.40015 0.49479 -0.02723
v 0.37500 0.49157 -0.03280
v 0.35563 0.47429 -0.03322
v 0.33971 0.45785 0.00670
v 0.34922 0.43494 0.01434
v 0.37045 0.42293 0.02322
v 0.39528 0.42639 0.02994
v 0.41423 0.44402 0.03195
v 0.42006 0.46908 0.02847
v 0.41054 0.49199 0.02084
v 0.38931 0.50400 0.01196
v 0.36448 0.50054 0.00523
v 0.34553 0.48291 0.00323
v 0.32842 0.46426 0.04167
v 0.33814 0.44121 0.04859
v 0.35927 0.42922 0.05774
v 0.38373 0.43286 0.06562
v 0.40219 0.45076 0.06921
v 0.40759 0.47606 0.06715
v 0.39787 0.49912 0.06022
v 0.37674 0.51111 0.05108
v 0.35228 0.50746 0.04320
v 0.33382 0.48956 0.03961
v 0.31564 0.46875 0.07641
v 0.32559 0.44560 0.08263
v 0.34661 0.43362 0.09205
v 0.37065 0.43738 0.10106
v 0.38855 0.45546 0.10623
v 0.39346 0.48094 0.10558
v 0.38351 0.50409 0.09936
v 0.36250 0.51607 0.08995
v 0.33845 0.51231 0.08093
v 0.32055 0.49423 0.07576
v 0.30141 0.47131 0.11079
v 0.31163 0.44810 0.11631
v 0.33252 0.43611 0.12598
v 0.35611 0.43993 0.13612
v 0.37338 0.45810 0.14285
v 0.37774 0.48368 0.14360
v 0.36753 0.50689 0.13808
v 0.34663 0.51888 0.12841
v 0.32305 0.51506 0.11827
v 0.30577 0.49689 0.11154
v 0.28579 0.47193 0.14466
v 0.29630 0.44869 0.14948
v 0.31706 0.43668 0.15941
v 0.34015 0.44050 0.17065
v 0.35674 0.45867 0.17891
v 0.36049 0.48427 0.18104
v 0.34998 0.50751 0.17622
v 0.32922 0.51951 0.16629
v 0.30614 0.51570 0.15505
v 0.28955 0.49753 0.14678
v 0.26886 0.47060 0.17786
v 0.27969 0.44738 0.18200
v 0.30031 0.43534 0.19217
v 0.32285 0.43908 0.20450
v 0.33869 0.45717 0.21426
v 0.34179 0.48271 0.21774
v 0.33096 0.50593 0.21361
v 0.31034 0.51797 0.20343
v 0.28780 0.51423 0.19111
v 0.27196 0.49614 0.18134
v 0.25068 0.46734 0.21027
v 0.26185 0.44417 0.21374
v 0.28233 0.43208 0.22414
v 0.30428 0.43568 0.23752
v 0.31932 0.45361 0.24876
v 0.32171 0.47900 0.25356
v 0.31053 0.50217 0.25009
v 0.29006 0.51427 0.23968
v 0.26811 0.51066 0.22631
v 0.25306 0.49274 0.21507
v 0.23132 0.46215 0.24174
v 0.24287 0.43907 0.24455
v 0.26320 0.42692 0.25518
v 0.28452 0.43032 0.26958
v 0.29871 0.44799 0.28224
v 0.30035 0.47317 0.28832
v 0.28879 0.49625 0.28551
v 0.26847 0.50840 0.27488
v 0.24714 0.50500 0.26048
v 0.23295 0.48733 0.24782
v 0.21089 0.45505 0.27213
v 0.22283 0.43211 0.27430
v 0.24299 0.41988 0.28515
v 0.26367 0.42303 0.30053
v 0.27696 0.44036 0.31457
v 0.27778 0.46524 0.32190
v 0.26584 0.48818 0.31972
v 0.24567 0.50042 0.30887
v 0.22500 0.49727 0.29349
v 0.21171 0.47994 0.27946
v 0.18945 0.44608 0.30132
v 0.20182 0.42332 0.30288
v 0.22181 0.41099 0.31393
v 0.24180 0.41382 0.33025
v 0.25414 0.43073 0.34561
v 0.25412 0.45524 0.35413
v 0.24175 0.47801 0.35257
v 0.22176 0.49033 0.34152
v 0.20177 0.48750 0.32520
v 0.18943 0.47060 0.30984
v 0.16710 0.43528 0.32917
v 0.17991 0.41272 0.33015
v 0.19973 0.40030 0.34139
v 0.21900 0.40275 0.35861
v 0.23036 0.41915 0.37522
v 0.22946 0.44322 0.38489
v 0.21666 0.46578 0.38392
v 0.19683 0.47820 0.37267
v 0.17756 0.47575 0.35546
v 0.16620 0.45935 0.33884
v 0.14394 0.42269 0.35558
v 0.15721 0.40038 0.35599
v 0.17686 0.38784 0.36741
v 0.19539 0.38986 0.38548
v 0.20572 0.40567 0.40329
v 0.20391 0.42922 0.41404
v 0.19065 0.45153 0.41363
v 0.17100 0.46407 0.40221
v 0.15246 0.46205 0.38414
v 0.14213 0.44624 0.36633
v 0.12007 0.40836 0.38043
v 0.13381 0.38634 0.38031
v 0.15329 0.37367 0.39189
v 0.17106 0.37520 0.41075
v 0.18034 0.39034 0.42968
v 0.17758 0.41331 0.44146
v 0.16384 0.43533 0.44158
v 0.14436 0.44800 0.42999
v 0.12659 0.44647 0.41114
v 0.11732 0.43133 0.39220
v 0.09559 0.39236 0.40360
v 0.10982 0.37066 0.40298
v 0.12912 0.35786 0.41471
v 0.14611 0.35884 0.43431
v 0.15430 0.37324 0.45429
v 0.15058 0.39556 0.46703
v 0.13635 0.41726 0.46764
v 0.11705 0.43006 0.45591
v 0.10006 0.42907 0.43632
v 0.09186 0.41467 0.41633
v 0.07060 0.37475 0.42501
v 0.08533 0.35341 0.42393
v 0.10445 0.34046 0.43579
v 0.12065 0.34085 0.45607
v 0.12774 0.35444 0.47702
v 0.12302 0.37603 0.49064
v 0.10829 0.39738 0.49172
v 0.08917 0.41032 0.47986
v 0.07297 0.40993 0.45958
v 0.06588 0.39634 0.43863
v 0.04521 0.35562 0.44455
v 0.06046 0.33466 0.44304
v 0.07939 0.32156 0.45503
v 0.09478 0.32131 0.47593
v 0.10076 0.33402 0.49776
v 0.09503 0.35482 0.51219
v 0.07978 0.37578 0.51370
v 0.06085 0.38888 0.50171
v 0.04545 0.38912 0.48082
v 0.03948 0.37642 0.45898
v 0.01953 0.33503 0.46216
v 0.03530 0.31450 0.46026
v 0.05405 0.30123 0.47234
v 0.06863 0.30030 0.49380
v 0.07347 0.31206 0.51643
v 0.06672 0.33202 0.53159
v 0.05095 0.35255 0.53349
v 0.03220 0.36582 0.52140
v 0.01762 0.36675 0.49995
v 0.01278 0.35499 0.47732
v -0.00633 0.31308 0.47774
v 0.00996 0.29300 0.47549
v 0.02854 0.27956 0.48766
v 0.04230 0.27790 0.50960
v 0.04600 0.28866 0.53294
v 0.03822 0.30772 0.54875
v 0.02193 0.32780 0.55100
v 0.00335 0.34124 0.53883
v -0.01041 0.34290 0.51688
v -0.01411 0.33214 0.49355
v -0.03226 0.28987 0.49123
v -0.01544 0.27027 0.48867
v 0.00296 0.25665 0.50092
v 0.01591 0.25423 0.52328
v 0.01846 0.26392 0.54723
v 0.00964 0.28202 0.56361
v -0.00718 0.30163 0.56616
v -0.02558 0.31524 0.55392
v -0.03853 0.31767 0.53155
v -0.04108 0.30798 0.50761
v -0.05815 0.26549 0.50258
v -0.04080 0.24640 0.49976
v -0.02257 0.23260 0.51206
v -0.01044 0.22937 0.53478
v -0.00903 0.23794 0.55924
v -0.01888 0.25505 0.57609
v -0.03623 0.27415 0.57891
v -0.05446 0.28794 0.56661
v -0.06659 0.29117 0.54389
v -0.06800 0.28260 0.51944
v -0.08389 0.24005 0.51173
v -0.06601 0.22148 0.50869
v -0.04796 0.20750 0.52103
v -0.03663 0.20344 0.54403
v -0.03635 0.21085 0.56891
v -0.04723 0.22691 0.58616
v -0.06511 0.24547 0.58919
v -0.08317 0.25946 0.57685
v -0.09450 0.26352 0.55385
v -0.09477 0.25611 0.52898
v -0.10937 0.21366 0.51865
v -0.09096 0.19564 0.51544
v -0.07307 0.18146 0.52780
v -0.06254 0.17654 0.55101
v -0.06339 0.18275 0.57620
v -0.07529 0.19772 0.59375
v -0.09370 0.21573 0.59696
v -0.11159 0.22991 0.58460
v -0.12212 0.23484 0.56139
v -0.12127 0.22863 0.53620
v -0.13448 0.18642 0.52330
v -0.11555 0.16898 0.51997
v -0.09782 0.15460 0.53234
v -0.08807 0.14879 0.55569
v -0.09003 0.15376 0.58109
v -0.10293 0.16761 0.59885
v -0.12186 0.18505 0.60218
v -0.13959 0.19943 0.58981
v -0.14934 0.20524 0.56647
v -0.14739 0.20027 0.54106
v -0.15911 0.15846 0.52568
v -0.13967 0.14161 0.52227
v -0.12210 0.12704 0.53463
v -0.11311 0.12031 0.55803
v -0.11615 0.12401 0.58355
v -0.13004 0.13671 0.60142
v -0.14949 0.15356 0.60483
v -0.16705 0.16813 0.59247
v -0.17604 0.17486 0.56907
v -0.17300 0.17116 0.54355
v -0.18316 0.12990 0.52575
v -0.16321 0.11365 0.52232
v -0.14579 0.09888 0.53465
v -0.13756 0.09123 0.55805
v -0.14165 0.09362 0.58357
v -0.15650 0.10514 0.60147
v -0.17645 0.12139 0.60490
v -0.19387 0.13617 0.59257
v -0.20211 0.14381 0.56917
v -0.19802 0.14142 0.54365
v -0.20652 0.10085 0.52354
v -0.18609 0.08522 0.52012
v -0.16881 0.07025 0.53241
v -0.16129 0.06166 0.55573
v -0.16641 0.06273 0.58115
v -0.18220 0.07306 0.59898
v -0.20264 0.08869 0.60240
v -0.21992 0.10366 0.59010
v -0.22743 0.11225 0.56679
v -0.22232 0.11118 0.54136
v -0.22910 0.07145 0.51903
v -0.20819 0.05644 0.51568
v -0.19104 0.04127 0.52793
v -0.18422 0.03174 0.55108
v -0.19033 0.03147 0.57631
v -0.20703 0.04058 0.59397
v -0.22794 0.05559 0.59732
v -0.24508 0.07076 0.58508
v -0.25190 0.08030 0.56192
v -0.24580 0.08056 0.53669
v -0.25079 0.04181 0.51226
v -0.22942 0.02744 0.50903
v -0.21241 0.01208 0.52120
v -0.20625 0.00159 0.54413
v -0.21330 -0.00002 0.56906
v -0.23087 0.00786 0.58647
v -0.25225 0.02223 0.58970
v -0.26926 0.03760 0.57753
v -0.27542 0.04809 0.55459
v -0.26836 0.04970 0.52967
v -0.27151 0.01207 0.50325
v -0.24970 -0.00166 0.50018
v -0.23280 -0.01722 0.51228
v -0.22728 -0.02867 0.53491
v -0.23524 -0.03163 0.55944
v -0.25364 -0.02497 0.57649
v -0.27545 -0.01124 0.57956
v -0.29235 0.00432 0.56747
v -0.29787 0.01577 0.54484
v -0.28991 0.01873 0.52031
v -0.29117 -0.01765 0.49204
v -0.26893 -0.03073 0.48919
v -0.25215 -0.04649 0.50118
v -0.24722 -0.05889 0.52345
v -0.25604 -0.06319 0.54748
v -0.27523 -0.05777 0.56410
v -0.29746 -0.04468 0.56696
v -0.31425 -0.02892 0.55496
v -0.31917 -0.01653 0.53269
v -0.31035 -0.01222 0.50866
v -0.30967 -0.04721 0.47868
v -0.28704 -0.05966 0.47609
v -0.27036 -0.07560 0.48798
v -0.26599 -0.08894 0.50981
v -0.27561 -0.09459 0.53325
v -0.29555 -0.09039 0.54934
v -0.31817 -0.07794 0.55193
v -0.33486 -0.06200 0.54004
v -0.33922 -0.04866 0.51821
v -0.32960 -0.04301 0.49477
v -0.32695 -0.07650 0.46322
v -0.30395 -0.08831 0.46093
v -0.28736 -0.10444 0.47270
v -0.28351 -0.11872 0.49404
v -0.29388 -0.12569 0.51679
v -0.31451 -0.12271 0.53226
v -0.33751 -0.11090 0.53455
v -0.35410 -0.09477 0.52278
v -0.35794 -0.08049 0.50145
v -0.34757 -0.07352 0.47870
v -0.34292 -0.10539 0.44574
v -0.31958 -0.11657 0.44380
v -0.30307 -0.13287 0.45544
v -0.29970 -0.14807 0.47621
v -0.31076 -0.15636 0.49818
v -0.33203 -0.15457 0.51296
v -0.35537 -0.14339 0.51490
v -0.37188 -0.12709 0.50326
v -0.37525 -0.11189 0.48249
v -0.36419 -0.10360 0.46052
v -0.35753 -0.13375 0.42630
v -0.33387 -0.14431 0.42475
v -0.31743 -0.16079 0.43625
v -0.31449 -0.17688 0.45640
v -0.32618 -0.18646 0.47751
v -0.34803 -0.18585 0.49151
v -0.37170 -0.17529 0.49305
v -0.38814 -0.15881 0.48155
v -0.39107 -0.14272 0.46140
v -0.37938 -0.13314 0.44030
v -0.37070 -0.16147 0.40498
v -0.34675 -0.17142 0.40387
v -0.33037 -0.18805 0.41522
v -0.32783 -0.20503 0.43469
v -0.34008 -0.21586 0.45485
v -0.36246 -0.21640 0.46800
v -0.38641 -0.20646 0.46911
v -0.40279 -0.18982 0.45776
v -0.40533 -0.17284 0.43829
v -0.39308 -0.16201 0.41813
v -0.38238 -0.18842 0.38189
v -0.35818 -0.19777 0.38126
v -0.34185 -0.21456 0.39244
v -0.33965 -0.23239 0.41118
v -0.35240 -0.24444 0.43031
v -0.37524 -0.24611 0.44253
v -0.39945 -0.23676 0.44316
v -0.41577 -0.21996 0.43197
v -0.41798 -0.20213 0.41324
v -0.40523 -0.19008 0.39411
v -0.39253 -0.21448 0.35712
v -0.36810 -0.22325 0.35699
v -0.35181 -0.24020 0.36801
v -0.34990 -0.25885 0.38597
v -0.36308 -0.27208 0.40399
v -0.38632 -0.27483 0.41521
v -0.41076 -0.26606 0.41533
v -0.42704 -0.24912 0.40431
v -0.42895 -0.23047 0.38636
v -0.41577 -0.21724 0.36833
v -0.40109 -0.23955 0.33076
v -0.37646 -0.24776 0.33119
v -0.36021 -0.26485 0.34204
v -0.35854 -0.28429 0.35916
v -0.37208 -0.29866 0.37601
v -0.39566 -0.30246 0.38616
v -0.42028 -0.29425 0.38574
v -0.43654 -0.27716 0.37489
v -0.43821 -0.25772 0.35777
v -0.42467 -0.24336 0.34092
v -0.40803 -0.26352 0.30295
v -0.38325 -0.27120 0.30396
v -0.36702 -0.28842 0.31463
v -0.36553 -0.30861 0.33087
v -0.37935 -0.32406 0.34649
v -0.40321 -0.32887 0.35551
v -0.42799 -0.32120 0.35450
v -0.44422 -0.30397 0.34384
v -0.44571 -0.28378 0.32759
v -0.43188 -0.26833 0.31197
v -0.41332 -0.28629 0.27379
v -0.38842 -0.29345 0.27541
v -0.37220 -0.31079 0.28589
v -0.37085 -0.33170 0.30122
v -0.38488 -0.34818 0.31554
v -0.40895 -0.35394 0.32339
v -0.43384 -0.34678 0.32176
v -0.45007 -0.32944 0.31128
v -0.45142 -0.30854 0.29595
v -0.43738 -0.29205 0.28163
v -0.41694 -0.30775 0.24341
v -0.39195 -0.31442 0.24568
v -0.37573 -0.33188 0.25597
v -0.37446 -0.35346 0.27034
v -0.38864 -0.37091 0.28331
v -0.41284 -0.37758 0.28992
v -0.43782 -0.37091 0.28765
v -0.45404 -0.35345 0.27736
v -0.45531 -0.33187 0.26299
v -0.44114 -0.31442 0.25002
v -0.41887 -0.32782 0.21193
v -0.39383 -0.33403 0.21488
v -0.37760 -0.35159 0.22497
v -0.37637 -0.37379 0.23836
v -0.39060 -0.39216 0.24994
v -0.41487 -0.39967 0.25527
v -0.43990 -0.39346 0.25233
v -0.45613 -0.37590 0.24223
v -0.45737 -0.35370 0.22884
v -0.44313 -0.33534 0.21727
v -0.41910 -0.34641 0.17951
v -0.39406 -0.35219 0.18315
v -0.37780 -0.36985 0.19304
v -0.37655 -0.39263 0.20542
v -0.39077 -0.41183 0.21556
v -0.41503 -0.42013 0.21957
v -0.44007 -0.41435 0.21593
v -0.45633 -0.39670 0.20603
v -0.45759 -0.37392 0.19365
v -0.44337 -0.35471 0.18352
v -0.41764 -0.36344 0.14626
v -0.39262 -0.36883 0.15062
v -0.37634 -0.38656 0.16032
v -0.37500 -0.40987 0.17166
v -0.38913 -0.42985 0.18032
v -0.41333 -0.43887 0.18298
v -0.43834 -0.43349 0.17862
v -0.45463 -0.41575 0.16892
v -0.45596 -0.39244 0.15758
v -0.44183 -0.37246 0.14892
v -0.41448 -0.37884 0.11235
v -0.38953 -0.38386 0.11743
v -0.37320 -0.40166 0.12693
v -0.37175 -0.42545 0.13723
v -0.38571 -0.44613 0.14438
v -0.40976 -0.45581 0.14565
v -0.43471 -0.45079 0.14057
v -0.45104 -0.43298 0.13106
v -0.45250 -0.40920 0.12077
v -0.43854 -0.38851 0.11362
v -0.40965 -0.39253 0.07790
v -0.38480 -0.39723 0.08373
v -0.36842 -0.41509 0.09304
v -0.36679 -0.43930 0.10226
v -0.38051 -0.46061 0.10788
v -0.40435 -0.47087 0.10775
v -0.42920 -0.46617 0.10192
v -0.44558 -0.44831 0.09261
v -0.44721 -0.42410 0.08339
v -0.43349 -0.40280 0.07777
v -0.40316 -0.40447 0.04307
v -0.37844 -0.40888 0.04966
v -0.36201 -0.42679 0.05877
v -0.36015 -0.45137 0.06692
v -0.37355 -0.47322 0.07099
v -0.39712 -0.48400 0.06944
v -0.42183 -0.47959 0.06285
v -0.43826 -0.46167 0.05374
v -0.44013 -0.43710 0.04559
v -0.42672 -0.41525 0.04151
v -0.39504 -0.41460 0.00801
v -0.37050 -0.41876 0.01536
v -0.35400 -0.43671 0.02428
v -0.35185 -0.46159 0.03134
v -0.36488 -0.48391 0.03386
v -0.38809 -0.49513 0.03088
v -0.41263 -0.49097 0.02352
v -0.42913 -0.47302 0.01461
v -0.43128 -0.44813 0.00754
v -0.41826 -0.42582 0.00502
v -0.38533 -0.42287 -0.02714
v -0.36099 -0.42682 -0.01901
v -0.34442 -0.44480 -0.01029
v -0.34195 -0.46993 -0.00431
v -0.35451 -0.49263 -0.00334
v -0.37731 -0.50421 -0.00777
v -0.40165 -0.50026 -0.01589
v -0.41822 -0.48229 -0.02462
v -0.42069 -0.45715 -0.03060
v -0.40813 -0.43446 -0.03157
v -0.37406 -0.42926 -0.06222
v -0.34997 -0.43304 -0.05332
v -0.33332 -0.45103 -0.04479
v -0.33047 -0.47636 -0.03988
v -0.34250 -0.49935 -0.04046
v -0.36483 -0.51122 -0.04633
v -0.38892 -0.50744 -0.05523
v -0.40557 -0.48945 -0.06376
v -0.40842 -0.46412 -0.06867
v -0.39639 -0.44113 -0.06808
v -0.36129 -0.43372 -0.09708
v -0.33748 -0.43738 -0.08741
v -0.32074 -0.45538 -0.07906
v -0.31747 -0.48084 -0.07522
v -0.32891 -0.50404 -0.07735
v -0.35069 -0.51612 -0.08464
v -0.37450 -0.51246 -0.09431
v -0.39124 -0.49447 -0.10266
v -0.39452 -0.46901 -0.10651
v -0.38308 -0.44580 -0.10437
v -0.34707 -0.43626 -0.13158
v -0.32357 -0.43983 -0.12114
v -0.30673 -0.45782 -0.11297
v -0.30300 -0.48335 -0.11018
v -0.31378 -0.50668 -0.11383
v -0.33497 -0.51889 -0.12254
v -0.35846 -0.51531 -0.13298
v -0.37530 -0.49733 -0.14115
v -0.37904 -0.47179 -0.14394
v -0.36825 -0.44846 -0.14028
v -0.33145 -0.43684 -0.16555
v -0.30830 -0.44037 -0.15436
v -0.29137 -0.45834 -0.14636
v -0.28712 -0.48389 -0.14461
v -0.29718 -0.50726 -0.14977
v -0.31771 -0.51951 -0.15987
v -0.34087 -0.51598 -0.17106
v -0.35780 -0.49801 -0.17906
v -0.36205 -0.47246 -0.18082
v -0.35198 -0.44910 -0.17566
v -0.31452 -0.43547 -0.19887
v -0.29174 -0.43901 -0.18694
v -0.27470 -0.45695 -0.17910
v -0.26991 -0.48245 -0.17836
v -0.27919 -0.50577 -0.18499
v -0.29901 -0.51799 -0.19646
v -0.32179 -0.51446 -0.20840
v -0.33883 -0.49651 -0.21623
v -0.34362 -0.47101 -0.21698
v -0.33433 -0.44770 -0.21035
v -0.29633 -0.43216 -0.23139
v -0.27396 -0.43574 -0.21873
v -0.25681 -0.45365 -0.21105
v -0.25143 -0.47905 -0.21129
v -0.25988 -0.50223 -0.21936
v -0.27894 -0.51434 -0.23217
v -0.30131 -0.51075 -0.24483
v -0.31846 -0.49285 -0.25251
v -0.32384 -0.46745 -0.25227
v -0.31538 -0.44427 -0.24420
v -0.27697 -0.42692 -0.26297
v -0.25503 -0.43059 -0.24959
v -0.23777 -0.44845 -0.24206
v -0.23177 -0.47368 -0.24326
v -0.23934 -0.49664 -0.25272
v -0.25758 -0.50856 -0.26683
v -0.27952 -0.50489 -0.28020
v -0.29678 -0.48702 -0.28773
v -0.30278 -0.46180 -0.28654
v -0.29521 -0.43884 -0.27708
v -0.25652 -0.41977 -0.29346
v -0.23504 -0.42357 -0.27940
v -0.21766 -0.44138 -0.27201
v -0.21101 -0.46638 -0.27412
v -0.21765 -0.48904 -0.28493
v -0.23503 -0.50068 -0.30029
v -0.25651 -0.49688 -0.31436
v -0.27389 -0.47907 -0.32174
v -0.28054 -0.45407 -0.31963
v -0.27390 -0.43142 -0.30883
v -0.23507 -0.41074 -0.32275
v -0.21407 -0.41472 -0.30802
v -0.19657 -0.43246 -0.30077
v -0.18925 -0.45719 -0.30376
v -0.19490 -0.47945 -0.31585
v -0.21138 -0.49074 -0.33243
v -0.23238 -0.48676 -0.34715
v -0.24988 -0.46902 -0.35441
v -0.25721 -0.44430 -0.35142
v -0.25155 -0.42204 -0.33933
v -0.21271 -0.39987 -0.35071
v -0.19222 -0.40407 -0.33534
v -0.17459 -0.42174 -0.32821
v -0.16656 -0.44612 -0.33204
v -0.17120 -0.46792 -0.34536
v -0.18673 -0.47879 -0.36309
v -0.20723 -0.47459 -0.37845
v -0.22486 -0.45692 -0.38558
v -0.23289 -0.43253 -0.38176
v -0.22825 -0.41074 -0.36844
v -0.18954 -0.38721 -0.37721
v -0.16957 -0.39167 -0.36124
v -0.15181 -0.40925 -0.35422
v -0.14305 -0.43325 -0.35884
v -0.14664 -0.45449 -0.37332
v -0.16120 -0.46486 -0.39214
v -0.18117 -0.46040 -0.40811
v -0.19893 -0.44281 -0.41513
v -0.20768 -0.41882 -0.41052
v -0.20410 -0.39758 -0.39603
v -0.16503 -0.37243 -0.40272
v -0.14533 -0.37705 -0.38647
v -0.12751 -0.39459 -0.37951
v -0.11839 -0.41838 -0.38450
v -0.12144 -0.43931 -0.39955
v -0.13550 -0.44939 -0.41889
v -0.15521 -0.44478 -0.43515
v -0.17302 -0.42723 -0.44211
v -0.18215 -0.40345 -0.43711
v -0.17909 -0.38252 -0.42207
f 1 12 11
f 3 12 2
f 4 13 3
f 5 14 4
f 6 15 5
f 7 16 6
f 7 18 17
f 8 19 18
f 9 20 19
f 10 11 20
f 11 22 21
f 12 23 22
f 13 24 23
f 14 25 24
f 15 26 25
f 16 27 26
f 17 28 27
f 18 29 28
f 19 30 29
f 20 21 30
f 21 32 31
f 22 33 32
f 23 34 33
f 24 35 34
f 25 36 35
f 26 37 36
f 27 38 37
f 28 39 38
f 29 40 39
f 30 31 40
f 31 42 41
f 32 43 42
f 33 44 43
f 34 45 44
f 35 46 45
f 36 47 46
f 37 48 47
f 38 49 48
f 39 50 49
f 40 41 50
f 41 52 51
f 42 53 52
f 43 54 53
f 44 55 54
f 45 56 55
f 46 57 56
f 47 58 57
f 48 59 58
f 49 60 59
f 50 51 60
f 51 62 61
f 52 63 62
f 53 64 63
f 54 65 64
f 55 66 65
f 56 67 66
f 57 68 67
f 58 69 68
f 59 70 69
f 60 61 70
f 61 72 71
f 62 73 72
f 63 74 73
f 64 75 74
f 65 76 75
f 66 77 76
f 67 78 77
f 68 79 78
f 69 80 79
f 70 71 80
f 71 82 81
f 72 83 82
f 73 84 83
f 74 85 84
f 75 86 85
f 76 87 86
f 77 88 87
f 78 89 88
f 79 90 89
f 80 81 90
f 81 92 91
f 82 93 92
f 83 94 93
f 84 95 94
f 85 96 95
f 86 97 96
f 87 98 97
f 88 99 98
f 89 100 99
f 90 91 100
f 91 102 101
f 92 103 102
f 93 104 103
f 94 105 104
f 95 106 105
f 96 107 106
f 97 108 107
f 98 109 108
f 99 110 109
f 100 101 110
f 101 112 111
f 102 113 112
f 103 114 113
f 104 115 114
f 105 116 115
f 106 117 116
f 107 118 117
f 108 119 118
f 109 120 119
f 110 111 120
f 111 122 121
f 112 123 122
f 113 124 123
f 114 125 124
f 115 126 125
f 116 127 126
f 117 128 127
f 118 129 128
f 119 130 129
f 120 121 130
f 121 132 131
f 122 133 132
f 123 134 133
f 124 135 134
f 125 136 135
f 126 137 136
f 127 138 137
f 128 139 138
f 129 140 139
f 130 131 140
f 131 142 141
f 132 143 142
f 133 144 143
f 134 145 144
f 135 146 145
f 136 147 146
f 137 148 147
f 138 149 148
f 139 150 149
f 140 141 150
f 141 152 151
f 142 153 152
f 143 154 153
f 144 155 154
f 145 156 155
f 146 157 156
f 147 158 157
f 148 159 158
f 149 160 159
f 150 151 160
f 151 162 161
f 152 163 162
f 153 164 163
f 154 165 164
f 155 166 165
f 156 167 166
f 157 168 167
f 158 169 168
f 159 170 169
f 160 161 170
f 161 172 171
f 162 173 172
f 163 174 173
f 164 175 174
f 165 176 175
f 166 177 176
f 167 178 177
f 168 179 178
f 169 180 179
f 170 171 180
f 171 182 181
f 172 183 182
f 173 184 183
f 174 185 184
f 175 186 185
f 176 187 186
f 177 188 187
f 178 189 188
f 179 190 189
f 180 181 190
f 181 192 191
f 182 193 192
f 183 194 193
f 184 195 194
f 185 196 195
f 186 197 196
f 187 198 197
f 188 199 198
f 189 200 199
f 190 191 200
f 191 202 201
f 192 203 202
f 193 204 203
f 194 205 204
f 195 206 205
f 196 207 206
f 197 208 207
f 198 209 208
f 199 210 209
f 200 201 210
f 201 212 211
f 202 213 212
f 203 214 213
f 204 215 214
f 205 216 215
f 206 217 216
f 207 218 217
f 208 219 218
f 209 220 219
f 210 211 220
f 211 222 221
f 212 223 222
f 213 224 223
f 214 225 224
f 215 226 225
f 216 227 226
f 217 228 227
f 218 229 228
f 219 230 229
f 220 221 230
f 221 232 231
f 222 233 232
f 223 234 233
f 224 235 234
f 225 236 235
f 226 237 236
f 227 238 237
f 228 239 238
f 229 240 239
f 230 231 240
f 231 242 241
f 232 243 242
f 233 244 243
f 234 245 244
f 235 246 245
f 236 247 246
f 237 248 247
f 238 249 248
f 239 250 249
f 240 241 250
f 241 252 251
f 242 253 252
f 243 254 253
f 244 255 254
f 245 256 255
f 246 257 256
f 247 258 257
f 248 259 258
f 249 260 259
f 250 251 260
f 251 262 261
f 252 263 262
f 253 264 263
f 254 265 264
f 255 266 265
f 256 267 266
f 257 268 267
f 258 269 268
f 259 270 269
f 260 261 270
f 261 272 271
f 262 273 272
f 263 274 273
f 264 275 274
f 265 276 275
f 266 277 276
f 267 278 277
f 268 279 278
f 269 280 279
f 270 271 280
f 271 282 281
f 272 283 282
f 273 284 283
f 274 285 284
f 275 286 285
f 276 287 286
f 277 288 287
f 278 289 288
f 279 290 289
f 280 281 290
f 281 292 291
f 282 293 292
f 283 294 293
f 284 295 294
f 285 296 295
f 286 297 296
f 287 298 297
f 288 299 298
f 289 300 299
f 290 291 300
f 291 302 301
f 292 303 302
f 293 304 303
f 294 305 304
f 295 306 305
f 296 307 306
f 297 308 307
f 298 309 308
f 299 310 309
f 300 301 310
f 301 312 311
f 302 313 312
f 303 314 313
f 304 315 314
f 305 316 315
f 306 317 316
f 307 318 317
f 308 319 318
f 309 320 319
f 310 311 320
f 311 322 321
f 312 323 322
f 313 324 323
f 314 325 324
f 315 326 325
f 316 327 326
f 317 328 327
f 318 329 328
f 319 330 329
f 320 321 330
f 321 332 331
f 322 333 332
f 323 334 333
f 324 335 334
f 325 336 335
f 326 337 336
f 327 338 337
f 328 339 338
f 329 340 339
f 330 331 340
f 331 342 341
f 332 343 342
f 333 344 343
f 334 345 344
f 335 346 345
f 336 347 346
f 337 348 347
f 338 349 348
f 339 350 349
f 340 341 350
f 341 352 351
f 342 353 352
f 343 354 353
f 344 355 354
f 345 356 355
f 346 357 356
f 347 358 357
f 348 359 358
f 349 360 359
f 350 351 360
f 351 362 361
f 352 363 362
f 353 364 363
f 354 365 364
f 355 366 365
f 356 367 366
f 357 368 367
f 358 369 368
f 359 370 369
f 360 361 370
f 361 372 371
f 362 373 372
f 363 374 373
f 364 375 374
f 365 376 375
f 366 377 376
f 367 378 377
f 368 379 378
f 369 380 379
f 370 371 380
f 371 382 381
f 372 383 382
f 373 384 383
f 374 385 384
f 375 386 385
f 376 387 386
f 377 388 387
f 378 389 388
f 379 390 389
f 380 381 390
f 381 392 391
f 382 393 392
f 383 394 393
f 384 395 394
f 385 396 395
f 386 397 396
f 387 398 397
f 388 399 398
f 389 400 399
f 390 391 400
f 391 402 401
f 392 403 402
f 393 404 403
f 394 405 404
f 395 406 405
f 396 407 406
f 397 408 407
f 398 409 408
f 399 410 409
f 400 401 410
f 401 412 411
f 402 413 412
f 403 414 413
f 404 415 414
f 405 416 415
f 406 417 416
f 407 418 417
f 408 419 418
f 409 420 419
f 410 411 420
f 411 422 421
f 412 423 422
f 413 424 423
f 414 425 424
f 415 426 425
f 416 427 426
f 417 428 427
f 418 429 428
f 419 430 429
f 420 421 430
f 421 432 431
f 422 433 432
f 423 434 433
f 424 435 434
f 425 436 435
f 426 437 436
f 427 438 437
f 428 439 438
f 429 440 439
f 430 431 440
f 431 442 441
f 432 443 442
f 433 444 443
f 434 445 444
f 435 446 445
f 436 447 446
f 437 448 447
f 438 449 448
f 439 450 449
f 440 441 450
f 441 452 451
f 442 453 452
f 443 454 453
f 444 455 454
f 445 456 455
f 446 457 456
f 447 458 457
f 448 459 458
f 449 460 459
f 450 451 460
f 451 462 461
f 452 463 462
f 453 464 463
f 454 465 464
f 455 466 465
f 456 467 466
f 457 468 467
f 458 469 468
f 459 470 469
f 460 461 470
f 461 472 471
f 462 473 472
f 463 474 473
f 464 475 474
f 465 476 475
f 466 477 476
f 467 478 477
f 468 479 478
f 469 480 479
f 470 471 480
f 471 482 481
f 472 483 482
f 473 484 483
f 474 485 484
f 475 486 485
f 476 487 486
f 477 488 487
f 478 489 488
f 479 490 489
f 480 481 490
f 481 492 491
f 482 493 492
f 483 494 493
f 484 495 494
f 485 496 495
f 486 497 496
f 487 498 497
f 488 499 498
f 489 500 499
f 490 491 500
f 491 502 501
f 492 503 502
f 493 504 503
f 494 505 504
f 495 506 505
f 496 507 506
f 497 508 507
f 498 509 508
f 499 510 509
f 500 501 510
f 501 512 511
f 502 513 512
f 503 514 513
f 504 515 514
f 505 516 515
f 506 517 516
f 507 518 517
f 508 519 518
f 509 520 519
f 510 511 520
f 511 522 521
f 512 523 522
f 513 524 523
f 514 525 524
f 515 526 525
f 516 527 526
f 517 528 527
f 518 529 528
f 519 530 529
f 520 521 530
f 521 532 531
f 522 533 532
f 523 534 533
f 524 535 534
f 525 536 535
f 526 537 536
f 527 538 537
f 528 539 538
f 529 540 539
f 530 531 540
f 531 542 541
f 532 543 542
f 533 544 543
f 534 545 544
f 535 546 545
f 536 547 546
f 537 548 547
f 538 549 548
f 539 550 549
f 540 541 550
f 541 552 551
f 542 553 552
f 543 554 553
f 544 555 554
f 545 556 555
f 546 557 556
f 547 558 557
f 548 559 558
f 549 560 559
f 550 551 560
f 551 562 561
f 552 563 562
f 553 564 563
f 554 565 564
f 555 566 565
f 556 567 566
f 557 568 567
f 558 569 568
f 559 570 569
f 560 561 570
f 561 572 571
f 562 573 572
f 563 574 573
f 564 575 574
f 565 576 575
f 566 577 576
f 567 578 577
f 568 579 578
f 569 580 579
f 570 571 580
f 571 582 581
f 572 583 582
f 573 584 583
f 574 585 584
f 575 586 585
f 576 587 586
f 577 588 587
f 578 589 588
f 579 590 589
f 580 581 590
f 581 592 591
f 582 593 592
f 583 594 593
f 584 595 594
f 585 596 595
f 586 597 596
f 587 598 597
f 588 599 598
f 589 600 599
f 590 591 600
f 591 602 601
f 592 603 602
f 593 604 603
f 594 605 604
f 595 606 605
f 596 607 606
f 597 608 607
f 598 609 608
f 599 610 609
f 600 601 610
f 601 612 611
f 602 613 612
f 603 614 613
f 604 615 614
f 605 616 615
f 606 617 616
f 607 618 617
f 608 619 618
f 609 620 619
f 610 611 620
f 611 622 621
f 612 623 622
f 613 624 623
f 614 625 624
f 615 626 625
f 616 627 626
f 617 628 627
f 618 629 628
f 619 630 629
f 620 621 630
f 621 632 631
f 622 633 632
f 623 634 633
f 624 635 634
f 625 636 635
f 626 637 636
f 627 638 637
f 628 639 638
f 629 640 639
f 630 631 640
f 631 642 641
f 632 643 642
f 633 644 643
f 634 645 644
f 635 646 645
f 636 647 646
f 637 648 647
f 638 649 648
f 639 650 649
f 640 641 650
f 641 652 651
f 642 653 652
f 643 654 653
f 644 655 654
f 645 656 655
f 646 657 656
f 647 658 657
f 648 659 658
f 649 660 659
f 650 651 660
f 651 662 661
f 652 663 662
f 653 664 663
f 654 665 664
f 655 666 665
f 656 667 666
f 657 668 667
f 658 669 668
f 659 670 669
f 660 661 670
f 661 672 671
f 662 673 672
f 663 674 673
f 664 675 674
f 665 676 675
f 666 677 676
f 667 678 677
f 668 679 678
f 669 680 679
f 670 671 680
f 671 682 681
f 672 683 682
f 673 684 683
f 674 685 684
f 675 686 685
f 676 687 686
f 677 688 687
f 678 689 688
f 679 690 689
f 680 681 690
f 681 692 691
f 682 693 692
f 683 694 693
f 684 695 694
f 685 696 695
f 686 697 696
f 687 698 697
f 688 699 698
f 689 700 699
f 690 691 700
f 691 702 701
f 692 703 702
f 693 704 703
f 694 705 704
f 695 706 705
f 696 707 706
f 697 708 707
f 698 709 708
f 699 710 709
f 700 701 710
f 701 712 711
f 702 713 712
f 703 714 713
f 704 715 714
f 705 716 715
f 706 717 716
f 707 718 717
f 708 719 718
f 709 720 719
f 710 711 720
f 711 722 721
f 712 723 722
f 713 724 723
f 714 725 724
f 715 726 725
f 716 727 726
f 717 728 727
f 718 729 728
f 719 730 729
f 720 721 730
f 721 732 731
f 722 733 732
f 723 734 733
f 724 735 734
f 725 736 735
f 726 737 736
f 727 738 737
f 728 739 738
f 729 740 739
f 730 731 740
f 731 742 741
f 732 743 742
f 733 744 743
f 734 745 744
f 735 746 745
f 736 747 746
f 737 748 747
f 738 749 748
f 739 750 749
f 740 741 750
f 741 752 751
f 742 753 752
f 743 754 753
f 744 755 754
f 745 756 755
f 746 757 756
f 747 758 757
f 748 759 758
f 749 760 759
f 750 751 760
f 751 762 761
f 752 763 762
f 753 764 763
f 754 765 764
f 755 766 765
f 756 767 766
f 757 768 767
f 758 769 768
f 759 770 769
f 760 761 770
f 761 772 771
f 762 773 772
f 763 774 773
f 764 775 774
f 765 776 775
f 766 777 776
f 767 778 777
f 768 779 778
f 769 780 779
f 770 771 780
f 771 782 781
f 772 783 782
f 773 784 783
f 774 785 784
f 775 786 785
f 776 787 786
f 777 788 787
f 778 789 788
f 779 790 789
f 780 781 790
f 781 792 791
f 782 793 792
f 783 794 793
f 784 795 794
f 785 796 795
f 786 797 796
f 787 798 797
f 788 799 798
f 789 800 799
f 790 791 800
f 791 802 801
f 792 803 802
f 793 804 803
f 794 805 804
f 795 806 805
f 796 807 806
f 797 808 807
f 798 809 808
f 799 810 809
f 800 801 810
f 801 812 811
f 802 813 812
f 803 814 813
f 804 815 814
f 805 816 815
f 806 817 816
f 807 818 817
f 808 819 818
f 809 820 819
f 810 811 820
f 811 822 821
f 812 823 822
f 813 824 823
f 814 825 824
f 815 826 825
f 816 827 826
f 817 828 827
f 818 829 828
f 819 830 829
f 820 821 830
f 821 832 831
f 822 833 832
f 823 834 833
f 824 835 834
f 825 836 835
f 826 837 836
f 827 838 837
f 828 839 838
f 829 840 839
f 830 831 840
f 831 842 841
f 832 843 842
f 833 844 843
f 834 845 844
f 835 846 845
f 836 847 846
f 837 848 847
f 838 849 848
f 839 850 849
f 840 841 850
f 841 852 851
f 842 853 852
f 843 854 853
f 844 855 854
f 845 856 855
f 846 857 856
f 847 858 857
f 848 859 858
f 849 860 859
f 850 851 860
f 851 862 861
f 852 863 862
f 853 864 863
f 854 865 864
f 855 866 865
f 856 867 866
f 857 868 867
f 858 869 868
f 859 870 869
f 860 861 870
f 861 872 871
f 862 873 872
f 863 874 873
f 864 875 874
f 865 876 875
f 866 877 876
f 867 878 877
f 868 879 878
f 869 880 879
f 870 871 880
f 871 882 881
f 872 883 882
f 873 884 883
f 874 885 884
f 875 886 885
f 876 887 886
f 877 888 887
f 878 889 888
f 879 890 889
f 880 881 890
f 881 892 891
f 882 893 892
f 883 894 893
f 884 895 894
f 885 896 895
f 886 897 896
f 887 898 897
f 888 899 898
f 889 900 899
f 890 891 900
f 891 902 901
f 892 903 902
f 893 904 903
f 894 905 904
f 895 906 905
f 896 907 906
f 897 908 907
f 898 909 908
f 899 910 909
f 900 901 910
f 901 912 911
f 902 913 912
f 903 914 913
f 904 915 914
f 905 916 915
f 906 917 916
f 907 918 917
f 908 919 918
f 909 920 919
f 910 911 920
f 911 922 921
f 912 923 922
f 913 924 923
f 914 925 924
f 915 926 925
f 916 927 926
f 917 928 927
f 918 929 928
f 919 930 929
f 920 921 930
f 921 932 931
f 922 933 932
f 923 934 933
f 924 935 934
f 925 936 935
f 926 937 936
f 927 938 937
f 928 939 938
f 929 940 939
f 930 931 940
f 931 942 941
f 932 943 942
f 933 944 943
f 934 945 944
f 935 946 945
f 936 947 946
f 937 948 947
f 938 949 948
f 939 950 949
f 940 941 950
f 941 952 951
f 942 953 952
f 943 954 953
f 944 955 954
f 945 956 955
f 946 957 956
f 947 958 957
f 948 959 958
f 949 960 959
f 950 951 960
f 952 961 951
f 952 963 962
f 953 964 963
f 954 965 964
f 955 966 965
f 956 967 966
f 958 967 957
f 959 968 958
f 960 969 959
f 951 970 960
f 1 2 12
f 3 13 12
f 4 14 13
f 5 15 14
f 6 16 15
f 7 17 16
f 7 8 18
f 8 9 19
f 9 10 20
f 10 1 11
f 11 12 22
f 12 13 23
f 13 14 24
f 14 15 25
f 15 16 26
f 16 17 27
f 17 18 28
f 18 19 29
f 19 20 30
f 20 11 21
f 21 22 32
f 22 23 33
f 23 24 34
f 24 25 35
f 25 26 36
f 26 27 37
f 27 28 38
f 28 29 39
f 29 30 40
f 30 21 31
f 31 32 42
f 32 33 43
f 33 34 44
f 34 35 45
f 35 36 46
f 36 37 47
f 37 38 48
f 38 39 49
f 39 40 50
f 40 31 41
f 41 42 52
f 42 43 53
f 43 44 54
f 44 45 55
f 45 46 56
f 46 47 57
f 47 48 58
f 48 49 59
f 49 50 60
f 50 41 51
f 51 52 62
f 52 53 63
f 53 54 64
f 54 55 65
f 55 56 66
f 56 57 67
f 57 58 68
f 58 59 69
f 59 60 70
f 60 51 61
f 61 62 72
f 62 63 73
f 63 64 74
f 64 65 75
f 65 66 76
f 66 67 77
f 67 68 78
f 68 69 79
f 69 70 80
f 70 61 71
f 71 72 82
f 72 73 83
f 73 74 84
f 74 75 85
f 75 76 86
f 76 77 87
f 77 78 88
f 78 79 89
f 79 80 90
f 80 71 81
f 81 82 92
f 82 83 93
f 83 84 94
f 84 85 95
f 85 86 96
f 86 87 97
f 87 88 98
f 88 89 99
f 89 90 100
f 90 81 91
f 91 92 102
f 92 93 103
f 93 94 104
f 94 95 105
f 95 96 106
f 96 97 107
f 97 98 108
f 98 99 109
f 99 100 110
f 100 91 101
f 101 102 112
f 102 103 113
f 103 104 114
f 104 105 115
f 105 106 116
f 106 107 117
f 107 108 118
f 108 109 119
f 109 110 120
f 110 101 111
f 111 112 122
f 112 113 123
f 113 114 124
f 114 115 125
f 115 116 126
f 116 117 127
f 117 118 128
f 118 119 129
f 119 120 130
f 120 111 121
f 121 122 132
f 122 123 133
f 123 124 134
f 124 125 135
f 125 126 136
f 126 127 137
f 127 128 138
f 128 129 139
f 129 130 140
f 130 121 131
f 131 132 142
f 132 133 143
f 133 134 144
f 134 135 145
f 135 136 146
f 136 137 147
f 137 138 148
f 138 139 149
f 139 140 150
f 140 131 141
f 141 142 152
f 142 143 153
f 143 144 154
f 144 145 155
f 145 146 156
f 146 147 157
f 147 148 158
f 148 149 159
f 149 150 160
f 150 141 151
f 151 152 162
f 152 153 163
f 153 154 164
f 154 155 165
f 155 156 166
f 156 157 167
f 157 158 168
f 158 159 169
f 159 160 170
f 160 151 161
f 161 162 172
f 162 163 173
f 163 164 174
f 164 165 175
f 165 166 176
f 166 167 177
f 167 168 178
f 168 169 179
f 169 170 180
f 170 161 171
f 171 172 182
f 172 173 183
f 173 174 184
f 174 175 185
f 175 176 186
f 176 177 187
f 177 178 188
f 178 179 189
f 179 180 190
f 180 171 181
f 181 182 192
f 182 183 193
f 183 184 194
f 184 185 195
f 185 186 196
f 186 187 197
f 187 188 198
f 188 189 199
f 189 190 200
f 190 181 191
f 191 192 202
f 192 193 203
f 193 194 204
f 194 195 205
f 195 196 206
f 196 197 207
f 197 198 208
f 198 199 209
f 199 200 210
f 200 191 201
f 201 202 212
f 202 203 213
f 203 204 214
f 204 205 215
f 205 206 216
f 206 207 217
f 207 208 218
f 208 209 219
f 209 210 220
f 210 201 211
f 211 212 222
f 212 213 223
f 213 214 224
f 214 215 225
f 215 216 226
f 216 217 227
f 217 218 228
f 218 219 229
f 219 220 230
f 220 211 221
f 221 222 232
f 222 223 233
f 223 224 234
f 224 225 235
f 225 226 236
f 226 227 237
f 227 228 238
f 228 229 239
f 229 230 240
f 230 221 231
f 231 232 242
f 232 233 243
f 233 234 244
f 234 235 245
f 235 236 246
f 236 237 247
f 237 238 248
f 238 239 249
f 239 240 250
f 240 231 241
f 241 242 252
f 242 243 253
f 243 244 254
f 244 245 255
f 245 246 256
f 246 247 257
f 247 248 258
f 248 249 259
f 249 250 260
f 250 241 251
f 251 252 262
f 252 253 263
f 253 254 264
f 254 255 265
f 255 256 266
f 256 257 267
f 257 258 268
f 258 259 269
f 259 260 270
f 260 251 261
f 261 262 272
f 262 263 273
f 263 264 274
f 264 265 275
f 265 266 276
f 266 267 277
f 267 268 278
f 268 269 279
f 269 270 280
f 270 261 271
f 271 272 282
f 272 273 283
f 273 274 284
f 274 275 285
f 275 276 286
f 276 277 287
f 277 278 288
f 278 279 289
f 279 280 290
f 280 271 281
f 281 282 292
f 282 283 293
f 283 284 294
f 284 285 295
f 285 286 296
f 286 287 297
f 287 288 298
f 288 289 299
f 289 290 300
f 290 281 291
f 291 292 302
f 292 293 303
f 293 294 304
f 294 295 305
f 295 296 306
f 296 297 307
f 297 298 308
f 298 299 309
f 299 300 310
f 300 291 301
f 301 302 312
f 302 303 313
f 303 304 314
f 304 305 315
f 305 306 316
f 306 307 317
f 307 308 318
f 308 309 319
f 309 310 320
f 310 301 311
f 311 312 322
f 312 313 323
f 313 314 324
f 314 315 325
f 315 316 326
f 316 317 327
f 317 318 328
f 318 319 329
f 319 320 330
f 320 311 321
f 321 322 332
f 322 323 333
f 323 324 334
f 324 325 335
f 325 326 336
f 326 327 337
f 327 328 338
f 328 329 339
f 329 330 340
f 330 321 331
f 331 332 342
f 332 333 343
f 333 334 344
f 334 335 345
f 335 336 346
f 336 337 347
f 337 338 348
f 338 339 349
f 339 340 350
f 340 331 341
f 341 342 352
f 342 343 353
f 343 344 354
f 344 345 355
f 345 346 356
f 346 347 357
f 347 348 358
f 348 349 359
f 349 350 360
f 350 341 351
f 351 352 362
f 352 353 363
f 353 354 364
f 354 355 365
f 355 356 366
f 356 357 367
f 357 358 368
f 358 359 369
f 359 360 370
f 360 351 361
f 361 362 372
f 362 363 373
f 363 364 374
f 364 365 375
f 365 366 376
f 366 367 377
f 367 368 378
f 368 369 379
f 369 370 380
f 370 361 371
f 371 372 382
f 372 373 383
f 373 374 384
f 374 375 385
f 375 376 386
f 376 377 387
f 377 378 388
f 378 379 389
f 379 380 390
f 380 371 381
f 381 382 392
f 382 383 393
f 383 384 394
f 384 385 395
f 385 386 396
f 386 387 397
f 387 388 398
f 388 389 399
f 389 390 400
f 390 381 391
f 391 392 402
f 392 393 403
f 393 394 404
f 394 395 405
f 395 396 406
f 396 397 407
f 397 398 408
f 398 399 409
f 399 400 410
f 400 391 401
f 401 402 412
f 402 403 413
f 403 404 414
f 404 405 415
f 405 406 416
f 406 407 417
f 407 408 418
f 408 409 419
f 409 410 420
f 410 401 411
f 411 412 422
f 412 413 423
f 413 414 424
f 414 415 425
f 415 416 426
f 416 417 427
f 417 418 428
f 418 419 429
f 419 420 430
f 420 411 421
f 421 422 432
f 422 423 433
f 423 424 434
f 424 425 435
f 425 426 436
f 426 427 437
f 427 428 438
f 428 429 439
f 429 430 440
f 430 421 431
f 431 432 442
f 432 433 443
f 433 434 444
f 434 435 445
f 435 436 446
f 436 437 447
f 437 438 448
f 438 439 449
f 439 440 450
f 440 431 441
f 441 442 452
f 442 443 453
f 443 444 454
f 444 445 455
f 445 446 456
f 446 447 457
f 447 448 458
f 448 449 459
f 449 450 460
f 450 441 451
f 451 452 462
f 452 453 463
f 453 454 464
f 454 455 465
f 455 456 466
f 456 457 467
f 457 458 468
f 458 459 469
f 459 460 470
f 460 451 461
f 461 462 472
f 462 463 473
f 463 464 474
f 464 465 475
f 465 466 476
f 466 467 477
f 467 468 478
f 468 469 479
f 469 470 480
f 470 461 471
f 471 472 482
f 472 473 483
f 473 474 484
f 474 475 485
f 475 476 486
f 476 477 487
f 477 478 488
f 478 479 489
f 479 480 490
f 480 471 481
f 481 482 492
f 482 483 493
f 483 484 494
f 484 485 495
f 485 486 496
f 486 487 497
f 487 488 498
f 488 489 499
f 489 490 500
f 490 481 491
f 491 492 502
f 492 493 503
f 493 494 504
f 494 495 505
f 495 496 506
f 496 497 507
f 497 498 508
f 498 499 509
f 499 500 510
f 500 491 501
f 501 502 512
f 502 503 513
f 503 504 514
f 504 505 515
f 505 506 516
f 506 507 517
f 507 508 518
f 508 509 519
f 509 510 520
f 510 501 511
f 511 512 522
f 512 513 523
f 513 514 524
f 514 515 525
f 515 516 526
f 516 517 527
f 517 518 528
f 518 519 529
f 519 520 530
f 520 511 521
f 521 522 532
f 522 523 533
f 523 524 534
f 524 525 535
f 525 526 536
f 526 527 537
f 527 528 538
f 528 529 539
f 529 530 540
f 530 521 531
f 531 532 542
f 532 533 543
f 533 534 544
f 534 535 545
f 535 536 546
f 536 537 547
f 537 538 548
f 538 539 549
f 539 540 550
f 540 531 541
f 541 542 552
f 542 543 553
f 543 544 554
f 544 545 555
f 545 546 556
f 546 547 557
f 547 548 558
f 548 549 559
f 549 550 560
f 550 541 551
f 551 552 562
f 552 553 563
f 553 554 564
f 554 555 565
f 555 556 566
f 556 557 567
f 557 558 568
f 558 559 569
f 559 560 570
f 560 551 561
f 561 562 572
f 562 563 573
f 563 564 574
f 564 565 575
f 565 566 576
f 566 567 577
f 567 568 578
f 568 569 579
f 569 570 580
f 570 561 571
f 571 572 582
f 572 573 583
f 573 574 584
f 574 575 585
f 575 576 586
f 576 577 587
f 577 578 588
f 578 579 589
f 579 580 590
f 580 571 581
f 581 582 592
f 582 583 593
f 583 584 594
f 584 585 595
f 585 586 596
f 586 587 597
f 587 588 598
f 588 589 599
f 589 590 600
f 590 581 591
f 591 592 602
f 592 593 603
f 593 594 604
f 594 595 605
f 595 596 606
f 596 597 607
f 597 598 608
f 598 599 609
f 599 600 610
f 600 591 601
f 601 602 612
f 602 603 613
f 603 604 614
f 604 605 615
f 605 606 616
f 606 607 617
f 607 608 618
f 608 609 619
f 609 610 620
f 610 601 611
f 611 612 622
f 612 613 623
f 613 614 624
f 614 615 625
f 615 616 626
f 616 617 627
f 617 618 628
f 618 619 629
f 619 620 630
f 620 611 621
f 621 622 632
f 622 623 633
f 623 624 634
f 624 625 635
f 625 626 636
f 626 627 637
f 627 628 638
f 628 629 639
f 629 630 640
f 630 621 631
f 631 632 642
f 632 633 643
f 633 634 644
f 634 635 645
f 635 636 646
f 636 637 647
f 637 638 648
f 638 639 649
f 639 640 650
f 640 631 641
f 641 642 652
f 642 643 653
f 643 644 654
f 644 645 655
f 645 646 656
f 646 647 657
f 647 648 658
f 648 649 659
f 649 650 660
f 650 641 651
f 651 652 662
f 652 653 663
f 653 654 664
f 654 655 665
f 655 656 666
f 656 657 667
f 657 658 668
f 658 659 669
f 659 660 670
f 660 651 661
f 661 662 672
f 662 663 673
f 663 664 674
f 664 665 675
f 665 666 676
f 666 667 677
f 667 668 678
f 668 669 679
f 669 670 680
f 670 661 671
f 671 672 682
f 672 673 683
f 673 674 684
f 674 675 685
f 675 676 686
f 676 677 687
f 677 678 688
f 678 679 689
f 679 680 690
f 680 671 681
f 681 682 692
f 682 683 693
f 683 684 694
f 684 685 695
f 685 686 696
f 686 687 697
f 687 688 698
f 688 689 699
f 689 690 700
f 690 681 691
f 691 692 702
f 692 693 703
f 693 694 704
f 694 695 705
f 695 696 706
f 696 697 707
f 697 698 708
f 698 699 709
f 699 700 710
f 700 691 701
f 701 702 712
f 702 703 713
f 703 704 714
f 704 705 715
f 705 706 716
f 706 707 717
f 707 708 718
f 708 709 719
f 709 710 720
f 710 701 711
f 711 712 722
f 712 713 723
f 713 714 724
f 714 715 725
f 715 716 726
f 716 717 727
f 717 718 728
f 718 719 729
f 719 720 730
f 720 711 721
f 721 722 732
f 722 723 733
f 723 724 734
f 724 725 735
f 725 726 736
f 726 727 737
f 727 728 738
f 728 729 739
f 729 730 740
f 730 721 731
f 731 732 742
f 732 733 743
f 733 734 744
f 734 735 745
f 735 736 746
f 736 737 747
f 737 738 748
f 738 739 749
f 739 740 750
f 740 731 741
f 741 742 752
f 742 743 753
f 743 744 754
f 744 745 755
f 745 746 756
f 746 747 757
f 747 748 758
f 748 749 759
f 749 750 760
f 750 741 751
f 751 752 762
f 752 753 763
f 753 754 764
f 754 755 765
f 755 756 766
f 756 757 767
f 757 758 768
f 758 759 769
f 759 760 770
f 760 751 761
f 761 762 772
f 762 763 773
f 763 764 774
f 764 765 775
f 765 766 776
f 766 767 777
f 767 768 778
f 768 769 779
f 769 770 780
f 770 761 771
f 771 772 782
f 772 773 783
f 773 774 784
f 774 775 785
f 775 776 786
f 776 777 787
f 777 778 788
f 778 779 789
f 779 780 790
f 780 771 781
f 781 782 792
f 782 783 793
f 783 784 794
f 784 785 795
f 785 786 796
f 786 787 797
f 787 788 798
f 788 789 799
f 789 790 800
f 790 781 791
f 791 792 802
f 792 793 803
f 793 794 804
f 794 795 805
f 795 796 806
f 796 797 807
f 797 798 808
f 798 799 809
f 799 800 810
f 800 791 801
f 801 802 812
f 802 803 813
f 803 804 814
f 804 805 815
f 805 806 816
f 806 807 817
f 807 808 818
f 808 809 819
f 809 810 820
f 810 801 811
f 811 812 822
f 812 813 823
f 813 814 824
f 814 815 825
f 815 816 826
f 816 817 827
f 817 818 828
f 818 819 829
f 819 820 830
f 820 811 821
f 821 822 832
f 822 823 833
f 823 824 834
f 824 825 835
f 825 826 836
f 826 827 837
f 827 828 838
f 828 829 839
f 829 830 840
f 830 821 831
f 831 832 842
f 832 833 843
f 833 834 844
f 834 835 845
f 835 836 846
f 836 837 847
f 837 838 848
f 838 839 849
f 839 840 850
f 840 831 841
f 841 842 852
f 842 843 853
f 843 844 854
f 844 845 855
f 845 846 856
f 846 847 857
f 847 848 858
f 848 849 859
f 849 850 860
f 850 841 851
f 851 852 862
f 852 853 863
f 853 854 864
f 854 855 865
f 855 856 866
f 856 857 867
f 857 858 868
f 858 859 869
f 859 860 870
f 860 851 861
f 861 862 872
f 862 863 873
f 863 864 874
f 864 865 875
f 865 866 876
f 866 867 877
f 867 868 878
f 868 869 879
f 869 870 880
f 870 861 871
f 871 872 882
f 872 873 883
f 873 874 884
f 874 875 885
f 875 876 886
f 876 877 887
f 877 878 888
f 878 879 889
f 879 880 890
f 880 871 881
f 881 882 892
f 882 883 893
f 883 884 894
f 884 885 895
f 885 886 896
f 886 887 897
f 887 888 898
f 888 889 899
f 889 890 900
f 890 881 891
f 891 892 902
f 892 893 903
f 893 894 904
f 894 895 905
f 895 896 906
f 896 897 907
f 897 898 908
f 898 899 909
f 899 900 910
f 900 891 901
f 901 902 912
f 902 903 913
f 903 904 914
f 904 905 915
f 905 906 916
f 906 907 917
f 907 908 918
f 908 909 919
f 909 910 920
f 910 901 911
f 911 912 922
f 912 913 923
f 913 914 924
f 914 915 925
f 915 916 926
f 916 917 927
f 917 918 928
f 918 919 929
f 919 920 930
f 920 911 921
f 921 922 932
f 922 923 933
f 923 924 934
f 924 925 935
f 925 926 936
f 926 927 937
f 927 928 938
f 928 929 939
f 929 930 940
f 930 921 931
f 931 932 942
f 932 933 943
f 933 934 944
f 934 935 945
f 935 936 946
f 936 937 947
f 937 938 948
f 938 939 949
f 939 940 950
f 940 931 941
f 941 942 952
f 942 943 953
f 943 944 954
f 944 945 955
f 945 946 956
f 946 947 957
f 947 948 958
f 948 949 959
f 949 950 960
f 950 941 951
f 952 962 961
f 952 953 963
f 953 954 964
f 954 955 965
f 955 956 966
f 956 957 967
f 958 968 967
f 959 969 968
f 960 970 969
f 951 961 970
