# eclipse Orbit1_Orbit.obj: Roblox cue frame, recentred on its bounding box
v -0.62107 0.74004 3.10762
v -0.61485 0.73440 3.09520
v -0.60503 0.72311 3.09619
v -0.60142 0.71746 3.10961
v -0.60764 0.72311 3.12204
v -0.61746 0.73440 3.12104
v -0.66970 0.69727 3.10269
v -0.66265 0.69237 3.09040
v -0.65263 0.68125 3.09143
v -0.64965 0.67505 3.10476
v -0.65671 0.67995 3.11705
v -0.66673 0.69106 3.11602
v -0.71642 0.65218 3.08789
v -0.70783 0.64871 3.07609
v -0.69745 0.63795 3.07728
v -0.69566 0.63064 3.09026
v -0.70425 0.63411 3.10205
v -0.71463 0.64487 3.10087
v -0.76085 0.60510 3.06332
v -0.75096 0.60297 3.05225
v -0.74029 0.59252 3.05363
v -0.73951 0.58419 3.06608
v -0.74940 0.58632 3.07716
v -0.76007 0.59677 3.07578
v -0.80286 0.55619 3.02910
v -0.79193 0.55525 3.01887
v -0.78103 0.54507 3.02047
v -0.78106 0.53583 3.03229
v -0.79200 0.53678 3.04251
v -0.80290 0.54696 3.04092
v -0.84233 0.50561 2.98533
v -0.83058 0.50568 2.97600
v -0.81950 0.49574 2.97782
v -0.82017 0.48572 2.98897
v -0.83192 0.48565 2.99829
v -0.84300 0.49559 2.99647
v -0.87914 0.45351 2.93217
v -0.86677 0.45444 2.92374
v -0.85556 0.44469 2.92577
v -0.85672 0.43401 2.93624
v -0.86908 0.43308 2.94468
v -0.88030 0.44283 2.94264
v -0.91319 0.40005 2.86980
v -0.90036 0.40170 2.86221
v -0.88904 0.39210 2.86445
v -0.89056 0.38087 2.87427
v -0.90340 0.37923 2.88186
v -0.91471 0.38882 2.87962
v -0.94438 0.34540 2.79841
v -0.93119 0.34763 2.79161
v -0.91981 0.33817 2.79403
v -0.92160 0.32648 2.80325
v -0.93478 0.32424 2.81005
v -0.94617 0.33370 2.80763
v -0.97261 0.28971 2.71822
v -0.95917 0.29244 2.71215
v -0.94772 0.28309 2.71474
v -0.94972 0.27101 2.72340
v -0.96317 0.26828 2.72947
v -0.97461 0.27762 2.72688
v -0.99780 0.23315 2.62949
v -0.98417 0.23631 2.62409
v -0.97269 0.22706 2.62683
v -0.97484 0.21465 2.63498
v -0.98847 0.21149 2.64039
v -0.99995 0.22075 2.63764
v -1.01989 0.17591 2.53249
v -1.00611 0.17943 2.52770
v -0.99460 0.17025 2.53059
v -0.99686 0.15757 2.53827
v -1.01063 0.15406 2.54306
v -1.02215 0.16323 2.54018
v -1.03879 0.11816 2.42753
v -1.02491 0.12198 2.42330
v -1.01338 0.11287 2.42631
v -1.01572 0.09995 2.43357
v -1.02960 0.09614 2.43780
v -1.04113 0.10524 2.43479
v -1.05445 0.06008 2.31494
v -1.04051 0.06416 2.31122
v -1.02896 0.05511 2.31435
v -1.03136 0.04199 2.32121
v -1.04531 0.03791 2.32493
v -1.05685 0.04696 2.32180
v -1.06683 0.00185 2.19506
v -1.05284 0.00616 2.19182
v -1.04128 -0.00284 2.19506
v -1.04372 -0.01614 2.20155
v -1.05772 -0.02044 2.20480
v -1.06927 -0.01145 2.20156
v -1.07589 -0.05635 2.06828
v -1.06186 -0.05184 2.06547
v -1.05030 -0.06079 2.06881
v -1.05277 -0.07425 2.07497
v -1.06680 -0.07875 2.07778
v -1.07836 -0.06980 2.07443
v -1.08160 -0.11433 1.93499
v -1.06755 -0.10965 1.93259
v -1.05599 -0.11856 1.93603
v -1.05847 -0.13216 1.94186
v -1.07252 -0.13684 1.94426
v -1.08408 -0.12793 1.94083
v -1.08394 -0.17192 1.79561
v -1.06989 -0.16709 1.79359
v -1.05832 -0.17596 1.79712
v -1.06081 -0.18968 1.80265
v -1.07486 -0.19452 1.80467
v -1.08643 -0.18564 1.80115
v -1.08291 -0.22894 1.65057
v -1.06885 -0.22396 1.64892
v -1.05729 -0.23280 1.65252
v -1.05978 -0.24663 1.65778
v -1.07383 -0.25161 1.65943
v -1.08539 -0.24277 1.65583
v -1.07850 -0.28520 1.50033
v -1.06446 -0.28009 1.49903
v -1.05290 -0.28891 1.50271
v -1.05538 -0.30284 1.50770
v -1.06942 -0.30795 1.50901
v -1.08098 -0.29913 1.50533
v -1.07074 -0.34054 1.34537
v -1.05671 -0.33531 1.34439
v -1.04515 -0.34410 1.34815
v -1.04762 -0.35812 1.35289
v -1.06165 -0.36334 1.35387
v -1.07321 -0.35455 1.35011
v -1.05964 -0.39476 1.18617
v -1.04564 -0.38943 1.18550
v -1.03409 -0.39820 1.18934
v -1.03654 -0.41230 1.19383
v -1.05054 -0.41763 1.19450
v -1.06210 -0.40886 1.19067
v -1.04525 -0.44772 1.02323
v -1.03127 -0.44229 1.02287
v -1.01973 -0.45103 1.02677
v -1.02216 -0.46521 1.03103
v -1.03614 -0.47064 1.03139
v -1.04768 -0.46189 1.02749
v -1.02761 -0.49923 0.85706
v -1.01366 -0.49371 0.85699
v -1.00212 -0.50244 0.86096
v -1.00453 -0.51668 0.86499
v -1.01848 -0.52220 0.86506
v -1.03002 -0.51348 0.86110
v -1.00677 -0.54914 0.68819
v -0.99286 -0.54354 0.68840
v -0.98133 -0.55225 0.69244
v -0.98371 -0.56656 0.69625
v -0.99762 -0.57216 0.69603
v -1.00915 -0.56345 0.69200
v -0.98280 -0.59729 0.51714
v -0.96892 -0.59161 0.51764
v -0.95740 -0.60030 0.52173
v -0.95976 -0.61467 0.52533
v -0.97363 -0.62035 0.52483
v -0.98515 -0.61167 0.52074
v -0.95577 -0.64354 0.34445
v -0.94194 -0.63778 0.34523
v -0.93043 -0.64645 0.34938
v -0.93275 -0.66088 0.35277
v -0.94658 -0.66664 0.35199
v -0.95809 -0.65796 0.34784
v -0.92577 -0.68772 0.17067
v -0.91199 -0.68190 0.17172
v -0.90049 -0.69055 0.17594
v -0.90277 -0.70504 0.17911
v -0.91656 -0.71086 0.17806
v -0.92806 -0.70220 0.17384
v -0.89290 -0.72971 -0.00366
v -0.87917 -0.72382 -0.00234
v -0.86768 -0.73247 0.00194
v -0.86993 -0.74700 0.00491
v -0.88366 -0.75289 0.00359
v -0.89515 -0.74424 -0.00069
v -0.85726 -0.76938 -0.17798
v -0.84358 -0.76343 -0.17639
v -0.83210 -0.77206 -0.17205
v -0.83431 -0.78664 -0.16930
v -0.84798 -0.79259 -0.17089
v -0.85946 -0.78396 -0.17523
v -0.81895 -0.80659 -0.35176
v -0.80533 -0.80058 -0.34990
v -0.79387 -0.80920 -0.34549
v -0.79603 -0.82382 -0.34295
v -0.80964 -0.82983 -0.34482
v -0.82111 -0.82121 -0.34922
v -0.77810 -0.84123 -0.52445
v -0.76455 -0.83517 -0.52231
v -0.75310 -0.84378 -0.51784
v -0.75521 -0.85844 -0.51551
v -0.76876 -0.86451 -0.51766
v -0.78021 -0.85590 -0.52212
v -0.73484 -0.87320 -0.69550
v -0.72136 -0.86709 -0.69308
v -0.70993 -0.87568 -0.68855
v -0.71199 -0.89039 -0.68644
v -0.72547 -0.89650 -0.68886
v -0.73690 -0.88791 -0.69339
v -0.68931 -0.90239 -0.86437
v -0.67590 -0.89623 -0.86167
v -0.66449 -0.90481 -0.85707
v -0.66649 -0.91956 -0.85518
v -0.67989 -0.92572 -0.85789
v -0.69130 -0.91714 -0.86248
v -0.64164 -0.92871 -1.03054
v -0.62832 -0.92250 -1.02754
v -0.61693 -0.93107 -1.02288
v -0.61886 -0.94586 -1.02122
v -0.63218 -0.95207 -1.02422
v -0.64357 -0.94349 -1.02888
v -0.59199 -0.95208 -1.19348
v -0.57876 -0.94583 -1.19018
v -0.56739 -0.95439 -1.18545
v -0.56925 -0.96921 -1.18402
v -0.58248 -0.97546 -1.18732
v -0.59385 -0.96689 -1.19206
v -0.54051 -0.97242 -1.35268
v -0.52738 -0.96613 -1.34906
v -0.51604 -0.97468 -1.34426
v -0.51782 -0.98953 -1.34308
v -0.53094 -0.99582 -1.34670
v -0.54229 -0.98727 -1.35150
v -0.48737 -0.98967 -1.50764
v -0.47435 -0.98334 -1.50370
v -0.46303 -0.99189 -1.49882
v -0.46472 -1.00677 -1.49789
v -0.47774 -1.01309 -1.50184
v -0.48906 -1.00455 -1.50671
v -0.43272 -1.00378 -1.65788
v -0.41983 -0.99742 -1.65359
v -0.40854 -1.00596 -1.64864
v -0.41014 -1.02086 -1.64797
v -0.42303 -1.02722 -1.65226
v -0.43432 -1.01868 -1.65722
v -0.37675 -1.01470 -1.80292
v -0.36400 -1.00831 -1.79826
v -0.35274 -1.01685 -1.79323
v -0.35423 -1.03177 -1.79284
v -0.36698 -1.03815 -1.79750
v -0.37824 -1.02962 -1.80253
v -0.31962 -1.02239 -1.94230
v -0.30703 -1.01599 -1.93726
v -0.29581 -1.02452 -1.93214
v -0.29718 -1.03946 -1.93205
v -0.30977 -1.04586 -1.93709
v -0.32100 -1.03733 -1.94221
v -0.26153 -1.02684 -2.07559
v -0.24911 -1.02042 -2.07014
v -0.23793 -1.02895 -2.06493
v -0.23916 -1.04390 -2.06516
v -0.25158 -1.05031 -2.07061
v -0.26276 -1.04178 -2.07582
v -0.20264 -1.02802 -2.20237
v -0.19042 -1.02160 -2.19648
v -0.17929 -1.03013 -2.19117
v -0.18037 -1.04508 -2.19174
v -0.19258 -1.05150 -2.19763
v -0.20371 -1.04297 -2.20294
v -0.14314 -1.02594 -2.32224
v -0.13116 -1.01953 -2.31588
v -0.12008 -1.02806 -2.31047
v -0.12098 -1.04301 -2.31140
v -0.13295 -1.04941 -2.31776
v -0.14404 -1.04088 -2.32318
v -0.08322 -1.02059 -2.43483
v -0.07151 -1.01421 -2.42796
v -0.06049 -1.02275 -2.42243
v -0.06118 -1.03768 -2.42377
v -0.07289 -1.04406 -2.43064
v -0.08391 -1.03552 -2.43617
v -0.02306 -1.01200 -2.53979
v -0.01167 -1.00567 -2.53236
v -0.00072 -1.01422 -2.52670
v -0.00117 -1.02911 -2.52847
v -0.01256 -1.03544 -2.53590
v -0.02350 -1.02689 -2.54156
v 0.03715 -1.00019 -2.63678
v 0.04816 -0.99393 -2.62874
v 0.05902 -1.00251 -2.62295
v 0.05886 -1.01734 -2.62519
v 0.04785 -1.02359 -2.63323
v 0.03699 -1.01502 -2.63902
v 0.09722 -0.98519 -2.72550
v 0.10779 -0.97905 -2.71680
v 0.11854 -0.98766 -2.71086
v 0.11873 -1.00240 -2.71362
v 0.10816 -1.00854 -2.72232
v 0.09741 -0.99993 -2.72826
v 0.15697 -0.96705 -2.80568
v 0.16700 -0.96108 -2.79625
v 0.17763 -0.96973 -2.79015
v 0.17823 -0.98434 -2.79348
v 0.16820 -0.99031 -2.80290
v 0.15757 -0.98166 -2.80900
v 0.21622 -0.94582 -2.87706
v 0.22560 -0.94009 -2.86685
v 0.23608 -0.94880 -2.86057
v 0.23718 -0.96323 -2.86451
v 0.22780 -0.96896 -2.87472
v 0.21732 -0.96025 -2.88099
v 0.27478 -0.92156 -2.93941
v 0.28338 -0.91617 -2.92836
v 0.29368 -0.92496 -2.92190
v 0.29539 -0.93914 -2.92650
v 0.28679 -0.94452 -2.93755
v 0.27649 -0.93574 -2.94401
v 0.33249 -0.89434 -2.99254
v 0.34013 -0.88942 -2.98061
v 0.35021 -0.89832 -2.97396
v 0.35265 -0.91214 -2.97926
v 0.34501 -0.91706 -2.99119
v 0.33493 -0.90816 -2.99783
v 0.38915 -0.86424 -3.03627
v 0.39565 -0.85995 -3.02345
v 0.40548 -0.86900 -3.01662
v 0.40880 -0.88234 -3.02262
v 0.40230 -0.88663 -3.03544
v 0.39248 -0.87758 -3.04226
v 0.44460 -0.83135 -3.07044
v 0.44975 -0.82788 -3.05679
v 0.45928 -0.83712 -3.04980
v 0.46365 -0.84983 -3.05646
v 0.45850 -0.85330 -3.07012
v 0.44897 -0.84405 -3.07711
v 0.49866 -0.79576 -3.09494
v 0.50228 -0.79334 -3.08059
v 0.51146 -0.80282 -3.07347
v 0.51703 -0.81472 -3.08070
v 0.51341 -0.81714 -3.09506
v 0.50422 -0.80766 -3.10218
v 0.55114 -0.75759 -3.10967
v 0.55308 -0.75643 -3.09484
v 0.56191 -0.76620 -3.08765
v 0.56879 -0.77712 -3.09528
v 0.56684 -0.77828 -3.11011
v 0.55802 -0.76851 -3.11730
v 0.60186 -0.71697 -3.11456
v 0.60208 -0.71724 -3.09957
v 0.61054 -0.72732 -3.09237
v 0.61878 -0.73713 -3.10017
v 0.61856 -0.73687 -3.11517
v 0.61010 -0.72678 -3.12236
v 0.65064 -0.67405 -3.10960
v 0.64921 -0.67582 -3.09478
v 0.65733 -0.68623 -3.08765
v 0.66687 -0.69486 -3.09535
v 0.66830 -0.69310 -3.11017
v 0.66018 -0.68269 -3.11730
v 0.69730 -0.62899 -3.09482
v 0.69439 -0.63224 -3.08047
v 0.70220 -0.64295 -3.07347
v 0.71293 -0.65043 -3.08082
v 0.71584 -0.64718 -3.09518
v 0.70802 -0.63647 -3.10218
v 0.74168 -0.58195 -3.07029
v 0.73752 -0.58655 -3.05663
v 0.74509 -0.59755 -3.04980
v 0.75682 -0.60395 -3.05662
v 0.76099 -0.59934 -3.07027
v 0.75342 -0.58834 -3.07711
v 0.78366 -0.53307 -3.03609
v 0.77849 -0.53888 -3.02326
v 0.78587 -0.55013 -3.01662
v 0.79841 -0.55556 -3.02280
v 0.80358 -0.54974 -3.03562
v 0.79620 -0.53850 -3.04227
v 0.82310 -0.48251 -2.99235
v 0.81715 -0.48936 -2.98040
v 0.82437 -0.50081 -2.97395
v 0.83755 -0.50542 -2.97944
v 0.84350 -0.49857 -2.99139
v 0.83628 -0.48712 -2.99784
v 0.85990 -0.43043 -2.93922
v 0.85334 -0.43815 -2.92815
v 0.86045 -0.44977 -2.92188
v 0.87411 -0.45369 -2.92669
v 0.88066 -0.44597 -2.93776
v 0.87356 -0.43434 -2.94403
v 0.89393 -0.37699 -2.87687
v 0.88693 -0.38543 -2.86664
v 0.89395 -0.39720 -2.86055
v 0.90798 -0.40053 -2.86469
v 0.91498 -0.39209 -2.87493
v 0.90795 -0.38032 -2.88102
v 0.92510 -0.32235 -2.80551
v 0.91777 -0.33139 -2.79605
v 0.92473 -0.34328 -2.79012
v 0.93902 -0.34613 -2.79365
v 0.94636 -0.33709 -2.80311
v 0.93940 -0.32520 -2.80904
v 0.95333 -0.26667 -2.72534
v 0.94574 -0.27621 -2.71660
v 0.95266 -0.28820 -2.71082
v 0.96716 -0.29065 -2.71378
v 0.97474 -0.28111 -2.72252
v 0.96783 -0.26912 -2.72830
v 0.97851 -0.21013 -2.63663
v 0.97075 -0.22009 -2.62855
v 0.97763 -0.23217 -2.62290
v 0.99228 -0.23427 -2.62534
v 1.00005 -0.22431 -2.63342
v 0.99316 -0.21224 -2.63907
v 1.00059 -0.15290 -2.53965
v 0.99269 -0.16322 -2.53217
v 0.99954 -0.17536 -2.52665
v 1.01430 -0.17718 -2.52861
v 1.02221 -0.16686 -2.53609
v 1.01535 -0.15472 -2.54161
v 1.01949 -0.09515 -2.43471
v 1.01149 -0.10578 -2.42778
v 1.01833 -0.11799 -2.42237
v 1.03317 -0.11956 -2.42389
v 1.04117 -0.10894 -2.43082
v 1.03433 -0.09673 -2.43623
v 1.03515 -0.03708 -2.32213
v 1.02708 -0.04797 -2.31571
v 1.03391 -0.06023 -2.31040
v 1.04881 -0.06159 -2.31152
v 1.05688 -0.05070 -2.31794
v 1.05005 -0.03845 -2.32325
v 1.04753 0.02115 -2.20227
v 1.03942 0.01003 -2.19632
v 1.04623 -0.00228 -2.19110
v 1.06117 -0.00346 -2.19184
v 1.06929 0.00766 -2.19780
v 1.06247 0.01996 -2.20301
v 1.05659 0.07934 -2.07550
v 1.04844 0.06802 -2.06998
v 1.05526 0.05568 -2.06485
v 1.07022 0.05466 -2.06525
v 1.07836 0.06598 -2.07077
v 1.07155 0.07832 -2.07589
v 1.06230 0.13732 -1.94222
v 1.05413 0.12582 -1.93711
v 1.06095 0.11345 -1.93206
v 1.07592 0.11257 -1.93213
v 1.08408 0.12407 -1.93725
v 1.07727 0.13644 -1.94229
v 1.06464 0.19491 -1.80285
v 1.05647 0.18325 -1.79811
v 1.06328 0.17085 -1.79315
v 1.07826 0.17010 -1.79291
v 1.08643 0.18175 -1.79765
v 1.07962 0.19416 -1.80261
v 1.06360 0.25192 -1.65782
v 1.05544 0.24012 -1.65345
v 1.06225 0.22769 -1.64855
v 1.07723 0.22705 -1.64803
v 1.08539 0.23885 -1.65241
v 1.07858 0.25128 -1.65730
v 1.05920 0.30818 -1.50760
v 1.05104 0.29626 -1.50356
v 1.05786 0.28380 -1.49873
v 1.07283 0.28326 -1.49794
v 1.08098 0.29519 -1.50198
v 1.07417 0.30765 -1.50680
v 1.05144 0.36351 -1.35264
v 1.04330 0.35147 -1.34893
v 1.05012 0.33899 -1.34417
v 1.06507 0.33854 -1.34312
v 1.07321 0.35059 -1.34683
v 1.06639 0.36307 -1.35159
v 1.04034 0.41774 -1.19345
v 1.03223 0.40559 -1.19005
v 1.03905 0.39308 -1.18535
v 1.05399 0.39273 -1.18405
v 1.06211 0.40488 -1.18745
v 1.05528 0.41738 -1.19215
v 1.02595 0.47069 -1.03052
v 1.01786 0.45844 -1.02742
v 1.02469 0.44592 -1.02278
v 1.03961 0.44564 -1.02124
v 1.04770 0.45789 -1.02434
v 1.04087 0.47041 -1.02898
v 1.00831 0.52220 -0.86436
v 1.00025 0.50986 -0.86155
v 1.00709 0.49732 -0.85697
v 1.02198 0.49712 -0.85520
v 1.03004 0.50945 -0.85800
v 1.02320 0.52199 -0.86259
v 0.98747 0.57211 -0.69549
v 0.97945 0.55969 -0.69297
v 0.98629 0.54713 -0.68844
v 1.00116 0.54699 -0.68644
v 1.00918 0.55941 -0.68897
v 1.00233 0.57197 -0.69349
v 0.96350 0.62026 -0.52445
v 0.95552 0.60776 -0.52220
v 0.96237 0.59518 -0.51773
v 0.97720 0.59511 -0.51551
v 0.98519 0.60761 -0.51776
v 0.97833 0.62018 -0.52223
v 0.93647 0.66650 -0.35177
v 0.92853 0.65392 -0.34980
v 0.93540 0.64134 -0.34538
v 0.95020 0.64132 -0.34294
v 0.95814 0.65389 -0.34492
v 0.95127 0.66648 -0.34933
v 0.90648 0.71068 -0.17800
v 0.89859 0.69804 -0.17630
v 0.90546 0.68544 -0.17194
v 0.92022 0.68548 -0.16928
v 0.92811 0.69812 -0.17099
v 0.92124 0.71072 -0.17535
v 0.87361 0.75267 -0.00368
v 0.86577 0.73996 -0.00225
v 0.87265 0.72735 0.00206
v 0.88737 0.72744 0.00493
v 0.89521 0.74015 0.00350
v 0.88833 0.75276 -0.00081
v 0.83796 0.79233 0.17064
v 0.83018 0.77956 0.17181
v 0.83707 0.76694 0.17606
v 0.85175 0.76708 0.17914
v 0.85953 0.77985 0.17798
v 0.85264 0.79248 0.17373
v 0.79966 0.82954 0.34441
v 0.79193 0.81672 0.34531
v 0.79884 0.80408 0.34951
v 0.81347 0.80427 0.35281
v 0.82119 0.81710 0.35191
v 0.81429 0.82973 0.34771
v 0.75881 0.86419 0.51709
v 0.75115 0.85131 0.51771
v 0.75807 0.83866 0.52186
v 0.77265 0.83889 0.52538
v 0.78031 0.85177 0.52475
v 0.77339 0.86442 0.52061
v 0.71556 0.89615 0.68813
v 0.70797 0.88322 0.68847
v 0.71490 0.87056 0.69256
v 0.72942 0.87084 0.69631
v 0.73701 0.88377 0.69596
v 0.73008 0.89643 0.69187
v 0.67002 0.92534 0.85700
v 0.66251 0.91236 0.85706
v 0.66946 0.89969 0.86109
v 0.68392 0.90001 0.86506
v 0.69143 0.91299 0.86500
v 0.68448 0.92566 0.86097
v 0.62236 0.95166 1.02316
v 0.61493 0.93863 1.02293
v 0.62190 0.92596 1.02690
v 0.63629 0.92631 1.03110
v 0.64372 0.93934 1.03133
v 0.63675 0.95201 1.02736
v 0.57271 0.97503 1.18609
v 0.56537 0.96195 1.18556
v 0.57236 0.94927 1.18947
v 0.58668 0.94966 1.19392
v 0.59402 0.96273 1.19444
v 0.58703 0.97542 1.19053
v 0.52123 0.99537 1.34528
v 0.51400 0.98225 1.34444
v 0.52100 0.96956 1.34829
v 0.53524 0.96999 1.35298
v 0.54248 0.98310 1.35382
v 0.53547 0.99579 1.34997
v 0.46809 1.01262 1.50023
v 0.46097 0.99947 1.49907
v 0.46800 0.98677 1.50285
v 0.48215 0.98722 1.50781
v 0.48927 1.00037 1.50897
v 0.48224 1.01307 1.50518
v 0.41345 1.02672 1.65046
v 0.40645 1.01354 1.64895
v 0.41351 1.00084 1.65267
v 0.42756 1.00132 1.65790
v 0.43456 1.01450 1.65940
v 0.42750 1.02720 1.65568
v 0.35748 1.03764 1.79548
v 0.35062 1.02443 1.79362
v 0.35771 1.01172 1.79727
v 0.37165 1.01222 1.80278
v 0.37851 1.02543 1.80464
v 0.37142 1.03814 1.80099
v 0.30036 1.04534 1.93485
v 0.29366 1.03211 1.93261
v 0.30077 1.01939 1.93618
v 0.31459 1.01991 1.94200
v 0.32129 1.03314 1.94424
v 0.31418 1.04585 1.94067
v 0.24227 1.04978 2.06813
v 0.23574 1.03654 2.06548
v 0.24290 1.02382 2.06898
v 0.25657 1.02435 2.07512
v 0.26309 1.03760 2.07776
v 0.25594 1.05031 2.07427
v 0.18338 1.05097 2.19490
v 0.17706 1.03772 2.19182
v 0.18426 1.02500 2.19522
v 0.19777 1.02554 2.20171
v 0.20409 1.03879 2.20479
v 0.19690 1.05150 2.20139
v 0.12389 1.04888 2.31476
v 0.11780 1.03564 2.31121
v 0.12504 1.02293 2.31452
v 0.13837 1.02346 2.32139
v 0.14446 1.03670 2.32494
v 0.13722 1.04941 2.32162
v 0.06398 1.04354 2.42734
v 0.05816 1.03032 2.42328
v 0.06546 1.01761 2.42649
v 0.07857 1.01813 2.43376
v 0.08438 1.03135 2.43782
v 0.07709 1.04405 2.43461
v 0.00383 1.03495 2.53228
v -0.00167 1.02178 2.52767
v 0.00569 1.00908 2.53077
v 0.01855 1.00956 2.53849
v 0.02405 1.02274 2.54309
v 0.01668 1.03543 2.53999
v -0.05637 1.02314 2.62925
v -0.06149 1.01004 2.62404
v -0.05405 0.99736 2.62703
v -0.04149 0.99778 2.63522
v -0.03638 1.01089 2.64043
v -0.04381 1.02357 2.63744
v -0.11643 1.00815 2.71795
v -0.12110 0.99516 2.71209
v -0.11357 0.98250 2.71495
v -0.10137 0.98284 2.72367
v -0.09670 0.99583 2.72953
v -0.10423 1.00849 2.72667
v -0.17617 0.99002 2.79811
v -0.18030 0.97718 2.79153
v -0.17266 0.96456 2.79425
v -0.16089 0.96478 2.80355
v -0.15676 0.97761 2.81012
v -0.16440 0.99023 2.80740
v -0.23540 0.96879 2.86946
v -0.23888 0.95619 2.86211
v -0.23111 0.94362 2.86468
v -0.21985 0.94366 2.87461
v -0.21638 0.95626 2.88196
v -0.22415 0.96883 2.87938
v -0.29394 0.94455 2.93179
v -0.29663 0.93227 2.92361
v -0.28870 0.91976 2.92603
v -0.27808 0.91955 2.93662
v -0.27539 0.93183 2.94480
v -0.28332 0.94433 2.94238
v -0.35162 0.91735 2.98489
v -0.35335 0.90551 2.97585
v -0.34522 0.89310 2.97810
v -0.33537 0.89253 2.98940
v -0.33364 0.90438 2.99844
v -0.34177 0.91678 2.99619
v -0.40825 0.88727 3.02860
v -0.40883 0.87603 3.01869
v -0.40048 0.86375 3.02078
v -0.39155 0.86271 3.03279
v -0.39097 0.87395 3.04270
v -0.39932 0.88623 3.04060
v -0.46367 0.85441 3.06275
v -0.46289 0.84395 3.05202
v -0.45427 0.83183 3.05398
v -0.44643 0.83017 3.06666
v -0.44721 0.84063 3.07738
v -0.45583 0.85274 3.07543
v -0.51769 0.81885 3.08723
v -0.51536 0.80940 3.07582
v -0.50643 0.79748 3.07767
v -0.49985 0.79502 3.09092
v -0.50218 0.80448 3.10232
v -0.51111 0.81640 3.10048
v -0.57014 0.78073 3.10194
v -0.56610 0.77248 3.09008
v -0.55685 0.76080 3.09187
v -0.55164 0.75738 3.10551
v -0.55567 0.76563 3.11737
v -0.56492 0.77731 3.11559
v -0.62066 0.74030 3.10685
v -0.61575 0.73272 3.09487
v -0.60634 0.72117 3.09664
v -0.60183 0.71721 3.11038
v -0.60674 0.72479 3.12236
v -0.61615 0.73633 3.12060
s 1
f 1 8 7
s 1
f 2 9 8
s 1
f 4 9 3
s 1
f 5 10 4
s 1
f 6 11 5
s 1
f 6 7 12
s 1
f 8 13 7
s 1
f 9 14 8
s 1
f 9 16 15
s 1
f 10 17 16
s 1
f 12 17 11
s 1
f 7 18 12
s 1
f 14 19 13
s 1
f 15 20 14
s 1
f 15 22 21
s 1
f 16 23 22
s 1
f 17 24 23
s 1
f 13 24 18
s 1
f 20 25 19
s 1
f 21 26 20
s 1
f 21 28 27
s 1
f 22 29 28
s 1
f 23 30 29
s 1
f 19 30 24
s 1
f 26 31 25
s 1
f 27 32 26
s 1
f 27 34 33
s 1
f 28 35 34
s 1
f 29 36 35
s 1
f 25 36 30
s 1
f 32 37 31
s 1
f 33 38 32
s 1
f 33 40 39
s 1
f 34 41 40
s 1
f 35 42 41
s 1
f 31 42 36
s 1
f 38 43 37
s 1
f 39 44 38
s 1
f 39 46 45
s 1
f 40 47 46
s 1
f 41 48 47
s 1
f 37 48 42
s 1
f 44 49 43
s 1
f 45 50 44
s 1
f 45 52 51
s 1
f 46 53 52
s 1
f 47 54 53
s 1
f 43 54 48
s 1
f 50 55 49
s 1
f 51 56 50
s 1
f 51 58 57
s 1
f 52 59 58
s 1
f 53 60 59
s 1
f 49 60 54
s 1
f 56 61 55
s 1
f 57 62 56
s 1
f 57 64 63
s 1
f 58 65 64
s 1
f 59 66 65
s 1
f 55 66 60
s 1
f 62 67 61
s 1
f 63 68 62
s 1
f 63 70 69
s 1
f 64 71 70
s 1
f 65 72 71
s 1
f 61 72 66
s 1
f 68 73 67
s 1
f 69 74 68
s 1
f 69 76 75
s 1
f 70 77 76
s 1
f 71 78 77
s 1
f 67 78 72
s 1
f 74 79 73
s 1
f 75 80 74
s 1
f 75 82 81
s 1
f 76 83 82
s 1
f 77 84 83
s 1
f 73 84 78
s 1
f 80 85 79
s 1
f 81 86 80
s 1
f 81 88 87
s 1
f 82 89 88
s 1
f 83 90 89
s 1
f 79 90 84
s 1
f 86 91 85
s 1
f 87 92 86
s 1
f 87 94 93
s 1
f 88 95 94
s 1
f 89 96 95
s 1
f 85 96 90
s 1
f 92 97 91
s 1
f 93 98 92
s 1
f 93 100 99
s 1
f 94 101 100
s 1
f 95 102 101
s 1
f 91 102 96
s 1
f 98 103 97
s 1
f 99 104 98
s 1
f 99 106 105
s 1
f 100 107 106
s 1
f 101 108 107
s 1
f 97 108 102
s 1
f 104 109 103
s 1
f 105 110 104
s 1
f 105 112 111
s 1
f 106 113 112
s 1
f 107 114 113
s 1
f 103 114 108
s 1
f 110 115 109
s 1
f 111 116 110
s 1
f 111 118 117
s 1
f 112 119 118
s 1
f 113 120 119
s 1
f 109 120 114
s 1
f 116 121 115
s 1
f 117 122 116
s 1
f 117 124 123
s 1
f 118 125 124
s 1
f 119 126 125
s 1
f 115 126 120
s 1
f 122 127 121
s 1
f 123 128 122
s 1
f 123 130 129
s 1
f 124 131 130
s 1
f 125 132 131
s 1
f 121 132 126
s 1
f 128 133 127
s 1
f 129 134 128
s 1
f 129 136 135
s 1
f 130 137 136
s 1
f 131 138 137
s 1
f 127 138 132
s 1
f 134 139 133
s 1
f 135 140 134
s 1
f 135 142 141
s 1
f 136 143 142
s 1
f 137 144 143
s 1
f 133 144 138
s 1
f 140 145 139
s 1
f 141 146 140
s 1
f 141 148 147
s 1
f 142 149 148
s 1
f 143 150 149
s 1
f 139 150 144
s 1
f 146 151 145
s 1
f 147 152 146
s 1
f 147 154 153
s 1
f 148 155 154
s 1
f 149 156 155
s 1
f 145 156 150
s 1
f 152 157 151
s 1
f 153 158 152
s 1
f 153 160 159
s 1
f 154 161 160
s 1
f 155 162 161
s 1
f 151 162 156
s 1
f 158 163 157
s 1
f 159 164 158
s 1
f 160 165 159
s 1
f 160 167 166
s 1
f 161 168 167
s 1
f 157 168 162
s 1
f 163 170 169
s 1
f 165 170 164
s 1
f 166 171 165
s 1
f 167 172 166
s 1
f 168 173 167
s 1
f 163 174 168
s 1
f 169 176 175
s 1
f 171 176 170
s 1
f 171 178 177
s 1
f 173 178 172
s 1
f 173 180 179
s 1
f 169 180 174
s 1
f 175 182 181
s 1
f 177 182 176
s 1
f 178 183 177
s 1
f 179 184 178
s 1
f 180 185 179
s 1
f 175 186 180
s 1
f 181 188 187
s 1
f 182 189 188
s 1
f 184 189 183
s 1
f 185 190 184
s 1
f 186 191 185
s 1
f 186 187 192
s 1
f 187 194 193
s 1
f 188 195 194
s 1
f 190 195 189
s 1
f 191 196 190
s 1
f 192 197 191
s 1
f 192 193 198
s 1
f 193 200 199
s 1
f 195 200 194
s 1
f 196 201 195
s 1
f 197 202 196
s 1
f 197 204 203
s 1
f 198 199 204
s 1
f 199 206 205
s 1
f 201 206 200
s 1
f 202 207 201
s 1
f 203 208 202
s 1
f 203 210 209
s 1
f 204 205 210
s 1
f 205 212 211
s 1
f 207 212 206
s 1
f 208 213 207
s 1
f 209 214 208
s 1
f 210 215 209
s 1
f 210 211 216
s 1
f 211 218 217
s 1
f 212 219 218
s 1
f 214 219 213
s 1
f 215 220 214
s 1
f 216 221 215
s 1
f 216 217 222
s 1
f 217 224 223
s 1
f 218 225 224
s 1
f 220 225 219
s 1
f 221 226 220
s 1
f 222 227 221
s 1
f 222 223 228
s 1
f 223 230 229
s 1
f 224 231 230
s 1
f 226 231 225
s 1
f 227 232 226
s 1
f 228 233 227
s 1
f 228 229 234
s 1
f 229 236 235
s 1
f 230 237 236
s 1
f 232 237 231
s 1
f 233 238 232
s 1
f 234 239 233
s 1
f 234 235 240
s 1
f 235 242 241
s 1
f 236 243 242
s 1
f 238 243 237
s 1
f 239 244 238
s 1
f 240 245 239
s 1
f 240 241 246
s 1
f 241 248 247
s 1
f 242 249 248
s 1
f 244 249 243
s 1
f 245 250 244
s 1
f 246 251 245
s 1
f 246 247 252
s 1
f 247 254 253
s 1
f 248 255 254
s 1
f 250 255 249
s 1
f 251 256 250
s 1
f 252 257 251
s 1
f 252 253 258
s 1
f 253 260 259
s 1
f 254 261 260
s 1
f 256 261 255
s 1
f 257 262 256
s 1
f 258 263 257
s 1
f 258 259 264
s 1
f 259 266 265
s 1
f 260 267 266
s 1
f 262 267 261
s 1
f 263 268 262
s 1
f 264 269 263
s 1
f 264 265 270
s 1
f 265 272 271
s 1
f 266 273 272
s 1
f 268 273 267
s 1
f 269 274 268
s 1
f 270 275 269
s 1
f 270 271 276
s 1
f 271 278 277
s 1
f 272 279 278
s 1
f 274 279 273
s 1
f 275 280 274
s 1
f 276 281 275
s 1
f 276 277 282
s 1
f 277 284 283
s 1
f 278 285 284
s 1
f 280 285 279
s 1
f 281 286 280
s 1
f 282 287 281
s 1
f 282 283 288
s 1
f 283 290 289
s 1
f 284 291 290
s 1
f 286 291 285
s 1
f 287 292 286
s 1
f 288 293 287
s 1
f 288 289 294
s 1
f 289 296 295
s 1
f 290 297 296
s 1
f 292 297 291
s 1
f 293 298 292
s 1
f 294 299 293
s 1
f 294 295 300
s 1
f 295 302 301
s 1
f 296 303 302
s 1
f 298 303 297
s 1
f 299 304 298
s 1
f 300 305 299
s 1
f 300 301 306
s 1
f 301 308 307
s 1
f 302 309 308
s 1
f 304 309 303
s 1
f 305 310 304
s 1
f 306 311 305
s 1
f 306 307 312
s 1
f 307 314 313
s 1
f 308 315 314
s 1
f 310 315 309
s 1
f 311 316 310
s 1
f 312 317 311
s 1
f 312 313 318
s 1
f 313 320 319
s 1
f 314 321 320
s 1
f 316 321 315
s 1
f 317 322 316
s 1
f 318 323 317
s 1
f 318 319 324
s 1
f 319 326 325
s 1
f 321 326 320
s 1
f 322 327 321
s 1
f 323 328 322
s 1
f 324 329 323
s 1
f 324 325 330
s 1
f 325 332 331
s 1
f 327 332 326
s 1
f 328 333 327
s 1
f 329 334 328
s 1
f 330 335 329
s 1
f 330 331 336
s 1
f 332 337 331
s 1
f 333 338 332
s 1
f 334 339 333
s 1
f 335 340 334
s 1
f 336 341 335
s 1
f 331 342 336
s 1
f 338 343 337
s 1
f 339 344 338
s 1
f 340 345 339
s 1
f 341 346 340
s 1
f 342 347 341
s 1
f 337 348 342
s 1
f 344 349 343
s 1
f 345 350 344
s 1
f 345 352 351
s 1
f 346 353 352
s 1
f 348 353 347
s 1
f 343 354 348
s 1
f 350 355 349
s 1
f 351 356 350
s 1
f 351 358 357
s 1
f 352 359 358
s 1
f 353 360 359
s 1
f 349 360 354
s 1
f 356 361 355
s 1
f 357 362 356
s 1
f 357 364 363
s 1
f 358 365 364
s 1
f 359 366 365
s 1
f 355 366 360
s 1
f 362 367 361
s 1
f 363 368 362
s 1
f 363 370 369
s 1
f 364 371 370
s 1
f 365 372 371
s 1
f 361 372 366
s 1
f 368 373 367
s 1
f 369 374 368
s 1
f 369 376 375
s 1
f 370 377 376
s 1
f 371 378 377
s 1
f 367 378 372
s 1
f 374 379 373
s 1
f 375 380 374
s 1
f 375 382 381
s 1
f 376 383 382
s 1
f 377 384 383
s 1
f 373 384 378
s 1
f 380 385 379
s 1
f 381 386 380
s 1
f 381 388 387
s 1
f 382 389 388
s 1
f 383 390 389
s 1
f 379 390 384
s 1
f 386 391 385
s 1
f 387 392 386
s 1
f 387 394 393
s 1
f 388 395 394
s 1
f 389 396 395
s 1
f 385 396 390
s 1
f 392 397 391
s 1
f 393 398 392
s 1
f 393 400 399
s 1
f 394 401 400
s 1
f 395 402 401
s 1
f 391 402 396
s 1
f 398 403 397
s 1
f 399 404 398
s 1
f 399 406 405
s 1
f 400 407 406
s 1
f 401 408 407
s 1
f 397 408 402
s 1
f 404 409 403
s 1
f 405 410 404
s 1
f 405 412 411
s 1
f 406 413 412
s 1
f 407 414 413
s 1
f 403 414 408
s 1
f 410 415 409
s 1
f 411 416 410
s 1
f 411 418 417
s 1
f 412 419 418
s 1
f 413 420 419
s 1
f 409 420 414
s 1
f 416 421 415
s 1
f 417 422 416
s 1
f 417 424 423
s 1
f 418 425 424
s 1
f 419 426 425
s 1
f 415 426 420
s 1
f 422 427 421
s 1
f 423 428 422
s 1
f 423 430 429
s 1
f 424 431 430
s 1
f 425 432 431
s 1
f 421 432 426
s 1
f 428 433 427
s 1
f 429 434 428
s 1
f 429 436 435
s 1
f 430 437 436
s 1
f 431 438 437
s 1
f 427 438 432
s 1
f 434 439 433
s 1
f 435 440 434
s 1
f 435 442 441
s 1
f 436 443 442
s 1
f 437 444 443
s 1
f 433 444 438
s 1
f 440 445 439
s 1
f 441 446 440
s 1
f 441 448 447
s 1
f 442 449 448
s 1
f 443 450 449
s 1
f 439 450 444
s 1
f 446 451 445
s 1
f 447 452 446
s 1
f 447 454 453
s 1
f 448 455 454
s 1
f 449 456 455
s 1
f 445 456 450
s 1
f 452 457 451
s 1
f 453 458 452
s 1
f 453 460 459
s 1
f 454 461 460
s 1
f 455 462 461
s 1
f 451 462 456
s 1
f 458 463 457
s 1
f 459 464 458
s 1
f 459 466 465
s 1
f 460 467 466
s 1
f 461 468 467
s 1
f 457 468 462
s 1
f 464 469 463
s 1
f 465 470 464
s 1
f 465 472 471
s 1
f 466 473 472
s 1
f 467 474 473
s 1
f 463 474 468
s 1
f 470 475 469
s 1
f 471 476 470
s 1
f 471 478 477
s 1
f 472 479 478
s 1
f 473 480 479
s 1
f 469 480 474
s 1
f 476 481 475
s 1
f 477 482 476
s 1
f 477 484 483
s 1
f 478 485 484
s 1
f 480 485 479
s 1
f 475 486 480
s 1
f 482 487 481
s 1
f 483 488 482
s 1
f 483 490 489
s 1
f 484 491 490
s 1
f 485 492 491
s 1
f 481 492 486
s 1
f 488 493 487
s 1
f 489 494 488
s 1
f 489 496 495
s 1
f 490 497 496
s 1
f 491 498 497
s 1
f 487 498 492
s 1
f 494 499 493
s 1
f 495 500 494
s 1
f 495 502 501
s 1
f 496 503 502
s 1
f 498 503 497
s 1
f 493 504 498
s 1
f 500 505 499
s 1
f 500 507 506
s 1
f 502 507 501
s 1
f 503 508 502
s 1
f 504 509 503
s 1
f 504 505 510
s 1
f 505 512 511
s 1
f 507 512 506
s 1
f 508 513 507
s 1
f 509 514 508
s 1
f 510 515 509
s 1
f 510 511 516
s 1
f 511 518 517
s 1
f 513 518 512
s 1
f 514 519 513
s 1
f 515 520 514
s 1
f 516 521 515
s 1
f 516 517 522
s 1
f 517 524 523
s 1
f 518 525 524
s 1
f 520 525 519
s 1
f 521 526 520
s 1
f 521 528 527
s 1
f 522 523 528
s 1
f 523 530 529
s 1
f 524 531 530
s 1
f 526 531 525
s 1
f 527 532 526
s 1
f 528 533 527
s 1
f 528 529 534
s 1
f 529 536 535
s 1
f 530 537 536
s 1
f 532 537 531
s 1
f 533 538 532
s 1
f 534 539 533
s 1
f 534 535 540
s 1
f 535 542 541
s 1
f 536 543 542
s 1
f 538 543 537
s 1
f 539 544 538
s 1
f 540 545 539
s 1
f 540 541 546
s 1
f 541 548 547
s 1
f 542 549 548
s 1
f 544 549 543
s 1
f 545 550 544
s 1
f 546 551 545
s 1
f 546 547 552
s 1
f 547 554 553
s 1
f 548 555 554
s 1
f 550 555 549
s 1
f 551 556 550
s 1
f 552 557 551
s 1
f 552 553 558
s 1
f 553 560 559
s 1
f 554 561 560
s 1
f 556 561 555
s 1
f 557 562 556
s 1
f 558 563 557
s 1
f 558 559 564
s 1
f 559 566 565
s 1
f 560 567 566
s 1
f 562 567 561
s 1
f 563 568 562
s 1
f 564 569 563
s 1
f 564 565 570
s 1
f 565 572 571
s 1
f 566 573 572
s 1
f 568 573 567
s 1
f 569 574 568
s 1
f 570 575 569
s 1
f 570 571 576
s 1
f 571 578 577
s 1
f 572 579 578
s 1
f 574 579 573
s 1
f 575 580 574
s 1
f 576 581 575
s 1
f 576 577 582
s 1
f 577 584 583
s 1
f 578 585 584
s 1
f 580 585 579
s 1
f 581 586 580
s 1
f 582 587 581
s 1
f 582 583 588
s 1
f 583 590 589
s 1
f 584 591 590
s 1
f 586 591 585
s 1
f 587 592 586
s 1
f 588 593 587
s 1
f 588 589 594
s 1
f 589 596 595
s 1
f 590 597 596
s 1
f 592 597 591
s 1
f 593 598 592
s 1
f 594 599 593
s 1
f 594 595 600
s 1
f 595 602 601
s 1
f 596 603 602
s 1
f 598 603 597
s 1
f 599 604 598
s 1
f 600 605 599
s 1
f 600 601 606
s 1
f 601 608 607
s 1
f 602 609 608
s 1
f 604 609 603
s 1
f 605 610 604
s 1
f 606 611 605
s 1
f 606 607 612
s 1
f 607 614 613
s 1
f 608 615 614
s 1
f 610 615 609
s 1
f 611 616 610
s 1
f 612 617 611
s 1
f 612 613 618
s 1
f 613 620 619
s 1
f 614 621 620
s 1
f 616 621 615
s 1
f 617 622 616
s 1
f 618 623 617
s 1
f 618 619 624
s 1
f 619 626 625
s 1
f 620 627 626
s 1
f 622 627 621
s 1
f 623 628 622
s 1
f 624 629 623
s 1
f 624 625 630
s 1
f 625 632 631
s 1
f 626 633 632
s 1
f 628 633 627
s 1
f 629 634 628
s 1
f 630 635 629
s 1
f 630 631 636
s 1
f 631 638 637
s 1
f 632 639 638
s 1
f 634 639 633
s 1
f 635 640 634
s 1
f 636 641 635
s 1
f 636 637 642
s 1
f 637 644 643
s 1
f 638 645 644
s 1
f 640 645 639
s 1
f 641 646 640
s 1
f 642 647 641
s 1
f 642 643 648
s 1
f 643 650 649
s 1
f 644 651 650
s 1
f 646 651 645
s 1
f 647 652 646
s 1
f 648 653 647
s 1
f 648 649 654
s 1
f 649 656 655
s 1
f 650 657 656
s 1
f 652 657 651
s 1
f 653 658 652
s 1
f 654 659 653
s 1
f 654 655 660
s 1
f 655 662 661
s 1
f 657 662 656
s 1
f 658 663 657
s 1
f 659 664 658
s 1
f 660 665 659
s 1
f 660 661 666
s 1
f 661 668 667
s 1
f 663 668 662
s 1
f 664 669 663
s 1
f 665 670 664
s 1
f 666 671 665
s 1
f 666 667 672
s 1
f 668 673 667
s 1
f 669 674 668
s 1
f 669 676 675
s 1
f 670 677 676
s 1
f 671 678 677
s 1
f 667 678 672
s 1
f 1 2 8
s 1
f 2 3 9
s 1
f 4 10 9
s 1
f 5 11 10
s 1
f 6 12 11
s 1
f 6 1 7
s 1
f 8 14 13
s 1
f 9 15 14
s 1
f 9 10 16
s 1
f 10 11 17
s 1
f 12 18 17
s 1
f 7 13 18
s 1
f 14 20 19
s 1
f 15 21 20
s 1
f 15 16 22
s 1
f 16 17 23
s 1
f 17 18 24
s 1
f 13 19 24
s 1
f 20 26 25
s 1
f 21 27 26
s 1
f 21 22 28
s 1
f 22 23 29
s 1
f 23 24 30
s 1
f 19 25 30
s 1
f 26 32 31
s 1
f 27 33 32
s 1
f 27 28 34
s 1
f 28 29 35
s 1
f 29 30 36
s 1
f 25 31 36
s 1
f 32 38 37
s 1
f 33 39 38
s 1
f 33 34 40
s 1
f 34 35 41
s 1
f 35 36 42
s 1
f 31 37 42
s 1
f 38 44 43
s 1
f 39 45 44
s 1
f 39 40 46
s 1
f 40 41 47
s 1
f 41 42 48
s 1
f 37 43 48
s 1
f 44 50 49
s 1
f 45 51 50
s 1
f 45 46 52
s 1
f 46 47 53
s 1
f 47 48 54
s 1
f 43 49 54
s 1
f 50 56 55
s 1
f 51 57 56
s 1
f 51 52 58
s 1
f 52 53 59
s 1
f 53 54 60
s 1
f 49 55 60
s 1
f 56 62 61
s 1
f 57 63 62
s 1
f 57 58 64
s 1
f 58 59 65
s 1
f 59 60 66
s 1
f 55 61 66
s 1
f 62 68 67
s 1
f 63 69 68
s 1
f 63 64 70
s 1
f 64 65 71
s 1
f 65 66 72
s 1
f 61 67 72
s 1
f 68 74 73
s 1
f 69 75 74
s 1
f 69 70 76
s 1
f 70 71 77
s 1
f 71 72 78
s 1
f 67 73 78
s 1
f 74 80 79
s 1
f 75 81 80
s 1
f 75 76 82
s 1
f 76 77 83
s 1
f 77 78 84
s 1
f 73 79 84
s 1
f 80 86 85
s 1
f 81 87 86
s 1
f 81 82 88
s 1
f 82 83 89
s 1
f 83 84 90
s 1
f 79 85 90
s 1
f 86 92 91
s 1
f 87 93 92
s 1
f 87 88 94
s 1
f 88 89 95
s 1
f 89 90 96
s 1
f 85 91 96
s 1
f 92 98 97
s 1
f 93 99 98
s 1
f 93 94 100
s 1
f 94 95 101
s 1
f 95 96 102
s 1
f 91 97 102
s 1
f 98 104 103
s 1
f 99 105 104
s 1
f 99 100 106
s 1
f 100 101 107
s 1
f 101 102 108
s 1
f 97 103 108
s 1
f 104 110 109
s 1
f 105 111 110
s 1
f 105 106 112
s 1
f 106 107 113
s 1
f 107 108 114
s 1
f 103 109 114
s 1
f 110 116 115
s 1
f 111 117 116
s 1
f 111 112 118
s 1
f 112 113 119
s 1
f 113 114 120
s 1
f 109 115 120
s 1
f 116 122 121
s 1
f 117 123 122
s 1
f 117 118 124
s 1
f 118 119 125
s 1
f 119 120 126
s 1
f 115 121 126
s 1
f 122 128 127
s 1
f 123 129 128
s 1
f 123 124 130
s 1
f 124 125 131
s 1
f 125 126 132
s 1
f 121 127 132
s 1
f 128 134 133
s 1
f 129 135 134
s 1
f 129 130 136
s 1
f 130 131 137
s 1
f 131 132 138
s 1
f 127 133 138
s 1
f 134 140 139
s 1
f 135 141 140
s 1
f 135 136 142
s 1
f 136 137 143
s 1
f 137 138 144
s 1
f 133 139 144
s 1
f 140 146 145
s 1
f 141 147 146
s 1
f 141 142 148
s 1
f 142 143 149
s 1
f 143 144 150
s 1
f 139 145 150
s 1
f 146 152 151
s 1
f 147 153 152
s 1
f 147 148 154
s 1
f 148 149 155
s 1
f 149 150 156
s 1
f 145 151 156
s 1
f 152 158 157
s 1
f 153 159 158
s 1
f 153 154 160
s 1
f 154 155 161
s 1
f 155 156 162
s 1
f 151 157 162
s 1
f 158 164 163
s 1
f 159 165 164
s 1
f 160 166 165
s 1
f 160 161 167
s 1
f 161 162 168
s 1
f 157 163 168
s 1
f 163 164 170
s 1
f 165 171 170
s 1
f 166 172 171
s 1
f 167 173 172
s 1
f 168 174 173
s 1
f 163 169 174
s 1
f 169 170 176
s 1
f 171 177 176
s 1
f 171 172 178
s 1
f 173 179 178
s 1
f 173 174 180
s 1
f 169 175 180
s 1
f 175 176 182
s 1
f 177 183 182
s 1
f 178 184 183
s 1
f 179 185 184
s 1
f 180 186 185
s 1
f 175 181 186
s 1
f 181 182 188
s 1
f 182 183 189
s 1
f 184 190 189
s 1
f 185 191 190
s 1
f 186 192 191
s 1
f 186 181 187
s 1
f 187 188 194
s 1
f 188 189 195
s 1
f 190 196 195
s 1
f 191 197 196
s 1
f 192 198 197
s 1
f 192 187 193
s 1
f 193 194 200
s 1
f 195 201 200
s 1
f 196 202 201
s 1
f 197 203 202
s 1
f 197 198 204
s 1
f 198 193 199
s 1
f 199 200 206
s 1
f 201 207 206
s 1
f 202 208 207
s 1
f 203 209 208
s 1
f 203 204 210
s 1
f 204 199 205
s 1
f 205 206 212
s 1
f 207 213 212
s 1
f 208 214 213
s 1
f 209 215 214
s 1
f 210 216 215
s 1
f 210 205 211
s 1
f 211 212 218
s 1
f 212 213 219
s 1
f 214 220 219
s 1
f 215 221 220
s 1
f 216 222 221
s 1
f 216 211 217
s 1
f 217 218 224
s 1
f 218 219 225
s 1
f 220 226 225
s 1
f 221 227 226
s 1
f 222 228 227
s 1
f 222 217 223
s 1
f 223 224 230
s 1
f 224 225 231
s 1
f 226 232 231
s 1
f 227 233 232
s 1
f 228 234 233
s 1
f 228 223 229
s 1
f 229 230 236
s 1
f 230 231 237
s 1
f 232 238 237
s 1
f 233 239 238
s 1
f 234 240 239
s 1
f 234 229 235
s 1
f 235 236 242
s 1
f 236 237 243
s 1
f 238 244 243
s 1
f 239 245 244
s 1
f 240 246 245
s 1
f 240 235 241
s 1
f 241 242 248
s 1
f 242 243 249
s 1
f 244 250 249
s 1
f 245 251 250
s 1
f 246 252 251
s 1
f 246 241 247
s 1
f 247 248 254
s 1
f 248 249 255
s 1
f 250 256 255
s 1
f 251 257 256
s 1
f 252 258 257
s 1
f 252 247 253
s 1
f 253 254 260
s 1
f 254 255 261
s 1
f 256 262 261
s 1
f 257 263 262
s 1
f 258 264 263
s 1
f 258 253 259
s 1
f 259 260 266
s 1
f 260 261 267
s 1
f 262 268 267
s 1
f 263 269 268
s 1
f 264 270 269
s 1
f 264 259 265
s 1
f 265 266 272
s 1
f 266 267 273
s 1
f 268 274 273
s 1
f 269 275 274
s 1
f 270 276 275
s 1
f 270 265 271
s 1
f 271 272 278
s 1
f 272 273 279
s 1
f 274 280 279
s 1
f 275 281 280
s 1
f 276 282 281
s 1
f 276 271 277
s 1
f 277 278 284
s 1
f 278 279 285
s 1
f 280 286 285
s 1
f 281 287 286
s 1
f 282 288 287
s 1
f 282 277 283
s 1
f 283 284 290
s 1
f 284 285 291
s 1
f 286 292 291
s 1
f 287 293 292
s 1
f 288 294 293
s 1
f 288 283 289
s 1
f 289 290 296
s 1
f 290 291 297
s 1
f 292 298 297
s 1
f 293 299 298
s 1
f 294 300 299
s 1
f 294 289 295
s 1
f 295 296 302
s 1
f 296 297 303
s 1
f 298 304 303
s 1
f 299 305 304
s 1
f 300 306 305
s 1
f 300 295 301
s 1
f 301 302 308
s 1
f 302 303 309
s 1
f 304 310 309
s 1
f 305 311 310
s 1
f 306 312 311
s 1
f 306 301 307
s 1
f 307 308 314
s 1
f 308 309 315
s 1
f 310 316 315
s 1
f 311 317 316
s 1
f 312 318 317
s 1
f 312 307 313
s 1
f 313 314 320
s 1
f 314 315 321
s 1
f 316 322 321
s 1
f 317 323 322
s 1
f 318 324 323
s 1
f 318 313 319
s 1
f 319 320 326
s 1
f 321 327 326
s 1
f 322 328 327
s 1
f 323 329 328
s 1
f 324 330 329
s 1
f 324 319 325
s 1
f 325 326 332
s 1
f 327 333 332
s 1
f 328 334 333
s 1
f 329 335 334
s 1
f 330 336 335
s 1
f 330 325 331
s 1
f 332 338 337
s 1
f 333 339 338
s 1
f 334 340 339
s 1
f 335 341 340
s 1
f 336 342 341
s 1
f 331 337 342
s 1
f 338 344 343
s 1
f 339 345 344
s 1
f 340 346 345
s 1
f 341 347 346
s 1
f 342 348 347
s 1
f 337 343 348
s 1
f 344 350 349
s 1
f 345 351 350
s 1
f 345 346 352
s 1
f 346 347 353
s 1
f 348 354 353
s 1
f 343 349 354
s 1
f 350 356 355
s 1
f 351 357 356
s 1
f 351 352 358
s 1
f 352 353 359
s 1
f 353 354 360
s 1
f 349 355 360
s 1
f 356 362 361
s 1
f 357 363 362
s 1
f 357 358 364
s 1
f 358 359 365
s 1
f 359 360 366
s 1
f 355 361 366
s 1
f 362 368 367
s 1
f 363 369 368
s 1
f 363 364 370
s 1
f 364 365 371
s 1
f 365 366 372
s 1
f 361 367 372
s 1
f 368 374 373
s 1
f 369 375 374
s 1
f 369 370 376
s 1
f 370 371 377
s 1
f 371 372 378
s 1
f 367 373 378
s 1
f 374 380 379
s 1
f 375 381 380
s 1
f 375 376 382
s 1
f 376 377 383
s 1
f 377 378 384
s 1
f 373 379 384
s 1
f 380 386 385
s 1
f 381 387 386
s 1
f 381 382 388
s 1
f 382 383 389
s 1
f 383 384 390
s 1
f 379 385 390
s 1
f 386 392 391
s 1
f 387 393 392
s 1
f 387 388 394
s 1
f 388 389 395
s 1
f 389 390 396
s 1
f 385 391 396
s 1
f 392 398 397
s 1
f 393 399 398
s 1
f 393 394 400
s 1
f 394 395 401
s 1
f 395 396 402
s 1
f 391 397 402
s 1
f 398 404 403
s 1
f 399 405 404
s 1
f 399 400 406
s 1
f 400 401 407
s 1
f 401 402 408
s 1
f 397 403 408
s 1
f 404 410 409
s 1
f 405 411 410
s 1
f 405 406 412
s 1
f 406 407 413
s 1
f 407 408 414
s 1
f 403 409 414
s 1
f 410 416 415
s 1
f 411 417 416
s 1
f 411 412 418
s 1
f 412 413 419
s 1
f 413 414 420
s 1
f 409 415 420
s 1
f 416 422 421
s 1
f 417 423 422
s 1
f 417 418 424
s 1
f 418 419 425
s 1
f 419 420 426
s 1
f 415 421 426
s 1
f 422 428 427
s 1
f 423 429 428
s 1
f 423 424 430
s 1
f 424 425 431
s 1
f 425 426 432
s 1
f 421 427 432
s 1
f 428 434 433
s 1
f 429 435 434
s 1
f 429 430 436
s 1
f 430 431 437
s 1
f 431 432 438
s 1
f 427 433 438
s 1
f 434 440 439
s 1
f 435 441 440
s 1
f 435 436 442
s 1
f 436 437 443
s 1
f 437 438 444
s 1
f 433 439 444
s 1
f 440 446 445
s 1
f 441 447 446
s 1
f 441 442 448
s 1
f 442 443 449
s 1
f 443 444 450
s 1
f 439 445 450
s 1
f 446 452 451
s 1
f 447 453 452
s 1
f 447 448 454
s 1
f 448 449 455
s 1
f 449 450 456
s 1
f 445 451 456
s 1
f 452 458 457
s 1
f 453 459 458
s 1
f 453 454 460
s 1
f 454 455 461
s 1
f 455 456 462
s 1
f 451 457 462
s 1
f 458 464 463
s 1
f 459 465 464
s 1
f 459 460 466
s 1
f 460 461 467
s 1
f 461 462 468
s 1
f 457 463 468
s 1
f 464 470 469
s 1
f 465 471 470
s 1
f 465 466 472
s 1
f 466 467 473
s 1
f 467 468 474
s 1
f 463 469 474
s 1
f 470 476 475
s 1
f 471 477 476
s 1
f 471 472 478
s 1
f 472 473 479
s 1
f 473 474 480
s 1
f 469 475 480
s 1
f 476 482 481
s 1
f 477 483 482
s 1
f 477 478 484
s 1
f 478 479 485
s 1
f 480 486 485
s 1
f 475 481 486
s 1
f 482 488 487
s 1
f 483 489 488
s 1
f 483 484 490
s 1
f 484 485 491
s 1
f 485 486 492
s 1
f 481 487 492
s 1
f 488 494 493
s 1
f 489 495 494
s 1
f 489 490 496
s 1
f 490 491 497
s 1
f 491 492 498
s 1
f 487 493 498
s 1
f 494 500 499
s 1
f 495 501 500
s 1
f 495 496 502
s 1
f 496 497 503
s 1
f 498 504 503
s 1
f 493 499 504
s 1
f 500 506 505
s 1
f 500 501 507
s 1
f 502 508 507
s 1
f 503 509 508
s 1
f 504 510 509
s 1
f 504 499 505
s 1
f 505 506 512
s 1
f 507 513 512
s 1
f 508 514 513
s 1
f 509 515 514
s 1
f 510 516 515
s 1
f 510 505 511
s 1
f 511 512 518
s 1
f 513 519 518
s 1
f 514 520 519
s 1
f 515 521 520
s 1
f 516 522 521
s 1
f 516 511 517
s 1
f 517 518 524
s 1
f 518 519 525
s 1
f 520 526 525
s 1
f 521 527 526
s 1
f 521 522 528
s 1
f 522 517 523
s 1
f 523 524 530
s 1
f 524 525 531
s 1
f 526 532 531
s 1
f 527 533 532
s 1
f 528 534 533
s 1
f 528 523 529
s 1
f 529 530 536
s 1
f 530 531 537
s 1
f 532 538 537
s 1
f 533 539 538
s 1
f 534 540 539
s 1
f 534 529 535
s 1
f 535 536 542
s 1
f 536 537 543
s 1
f 538 544 543
s 1
f 539 545 544
s 1
f 540 546 545
s 1
f 540 535 541
s 1
f 541 542 548
s 1
f 542 543 549
s 1
f 544 550 549
s 1
f 545 551 550
s 1
f 546 552 551
s 1
f 546 541 547
s 1
f 547 548 554
s 1
f 548 549 555
s 1
f 550 556 555
s 1
f 551 557 556
s 1
f 552 558 557
s 1
f 552 547 553
s 1
f 553 554 560
s 1
f 554 555 561
s 1
f 556 562 561
s 1
f 557 563 562
s 1
f 558 564 563
s 1
f 558 553 559
s 1
f 559 560 566
s 1
f 560 561 567
s 1
f 562 568 567
s 1
f 563 569 568
s 1
f 564 570 569
s 1
f 564 559 565
s 1
f 565 566 572
s 1
f 566 567 573
s 1
f 568 574 573
s 1
f 569 575 574
s 1
f 570 576 575
s 1
f 570 565 571
s 1
f 571 572 578
s 1
f 572 573 579
s 1
f 574 580 579
s 1
f 575 581 580
s 1
f 576 582 581
s 1
f 576 571 577
s 1
f 577 578 584
s 1
f 578 579 585
s 1
f 580 586 585
s 1
f 581 587 586
s 1
f 582 588 587
s 1
f 582 577 583
s 1
f 583 584 590
s 1
f 584 585 591
s 1
f 586 592 591
s 1
f 587 593 592
s 1
f 588 594 593
s 1
f 588 583 589
s 1
f 589 590 596
s 1
f 590 591 597
s 1
f 592 598 597
s 1
f 593 599 598
s 1
f 594 600 599
s 1
f 594 589 595
s 1
f 595 596 602
s 1
f 596 597 603
s 1
f 598 604 603
s 1
f 599 605 604
s 1
f 600 606 605
s 1
f 600 595 601
s 1
f 601 602 608
s 1
f 602 603 609
s 1
f 604 610 609
s 1
f 605 611 610
s 1
f 606 612 611
s 1
f 606 601 607
s 1
f 607 608 614
s 1
f 608 609 615
s 1
f 610 616 615
s 1
f 611 617 616
s 1
f 612 618 617
s 1
f 612 607 613
s 1
f 613 614 620
s 1
f 614 615 621
s 1
f 616 622 621
s 1
f 617 623 622
s 1
f 618 624 623
s 1
f 618 613 619
s 1
f 619 620 626
s 1
f 620 621 627
s 1
f 622 628 627
s 1
f 623 629 628
s 1
f 624 630 629
s 1
f 624 619 625
s 1
f 625 626 632
s 1
f 626 627 633
s 1
f 628 634 633
s 1
f 629 635 634
s 1
f 630 636 635
s 1
f 630 625 631
s 1
f 631 632 638
s 1
f 632 633 639
s 1
f 634 640 639
s 1
f 635 641 640
s 1
f 636 642 641
s 1
f 636 631 637
s 1
f 637 638 644
s 1
f 638 639 645
s 1
f 640 646 645
s 1
f 641 647 646
s 1
f 642 648 647
s 1
f 642 637 643
s 1
f 643 644 650
s 1
f 644 645 651
s 1
f 646 652 651
s 1
f 647 653 652
s 1
f 648 654 653
s 1
f 648 643 649
s 1
f 649 650 656
s 1
f 650 651 657
s 1
f 652 658 657
s 1
f 653 659 658
s 1
f 654 660 659
s 1
f 654 649 655
s 1
f 655 656 662
s 1
f 657 663 662
s 1
f 658 664 663
s 1
f 659 665 664
s 1
f 660 666 665
s 1
f 660 655 661
s 1
f 661 662 668
s 1
f 663 669 668
s 1
f 664 670 669
s 1
f 665 671 670
s 1
f 666 672 671
s 1
f 666 661 667
s 1
f 668 674 673
s 1
f 669 675 674
s 1
f 669 670 676
s 1
f 670 671 677
s 1
f 671 672 678
s 1
f 667 673 678
