# eclipse Orbital2_OrbitLine.obj: Roblox cue frame, recentred on its bounding box
v 0.42883 -0.38077 -0.37738
v 0.43997 -0.38340 -0.37826
v 0.44626 -0.38977 -0.38546
v 0.44401 -0.39613 -0.39475
v 0.43455 -0.39876 -0.40069
v 0.42341 -0.39613 -0.39980
v 0.41712 -0.38977 -0.39261
v 0.41937 -0.38340 -0.38332
v 0.43533 -0.34447 -0.40382
v 0.44650 -0.34687 -0.40487
v 0.45284 -0.35293 -0.41228
v 0.45062 -0.35910 -0.42171
v 0.44115 -0.36177 -0.42763
v 0.42998 -0.35936 -0.42657
v 0.42364 -0.35330 -0.41916
v 0.42586 -0.34713 -0.40974
v 0.43992 -0.30703 -0.42825
v 0.45116 -0.30896 -0.42963
v 0.45756 -0.31440 -0.43745
v 0.45538 -0.32017 -0.44713
v 0.44590 -0.32289 -0.45301
v 0.43467 -0.32096 -0.45163
v 0.42826 -0.31552 -0.44381
v 0.43044 -0.30975 -0.43413
v 0.44266 -0.26828 -0.45083
v 0.45392 -0.26971 -0.45251
v 0.46036 -0.27451 -0.46071
v 0.45821 -0.27986 -0.47063
v 0.44871 -0.28263 -0.47647
v 0.43745 -0.28120 -0.47479
v 0.43101 -0.27640 -0.46659
v 0.43316 -0.27105 -0.45666
v 0.44352 -0.22836 -0.47146
v 0.45479 -0.22928 -0.47341
v 0.46124 -0.23342 -0.48197
v 0.45908 -0.23835 -0.49211
v 0.44958 -0.24118 -0.49790
v 0.43831 -0.24026 -0.49595
v 0.43186 -0.23612 -0.48740
v 0.43402 -0.23119 -0.47725
v 0.44250 -0.18746 -0.49006
v 0.45376 -0.18786 -0.49226
v 0.46018 -0.19132 -0.50112
v 0.45800 -0.19581 -0.51146
v 0.44850 -0.19870 -0.51721
v 0.43724 -0.19831 -0.51501
v 0.43082 -0.19485 -0.50615
v 0.43300 -0.19036 -0.49581
v 0.43961 -0.14575 -0.50653
v 0.45083 -0.14561 -0.50895
v 0.45720 -0.14838 -0.51810
v 0.45498 -0.15243 -0.52861
v 0.44547 -0.15539 -0.53433
v 0.43425 -0.15553 -0.53191
v 0.42789 -0.15276 -0.52276
v 0.43011 -0.14871 -0.51225
v 0.43486 -0.10340 -0.52082
v 0.44602 -0.10272 -0.52344
v 0.45229 -0.10479 -0.53282
v 0.45001 -0.10839 -0.54348
v 0.44051 -0.11142 -0.54917
v 0.42935 -0.11210 -0.54655
v 0.42308 -0.11003 -0.53717
v 0.42536 -0.10643 -0.52651
v 0.42827 -0.06061 -0.53286
v 0.43934 -0.05938 -0.53564
v 0.44550 -0.06074 -0.54523
v 0.44314 -0.06388 -0.55602
v 0.43364 -0.06698 -0.56168
v 0.42257 -0.06821 -0.55889
v 0.41641 -0.06686 -0.54930
v 0.41877 -0.06371 -0.53852
v 0.41987 -0.01755 -0.54260
v 0.43083 -0.01576 -0.54551
v 0.43684 -0.01641 -0.55527
v 0.43438 -0.01910 -0.56616
v 0.42489 -0.02227 -0.57179
v 0.41393 -0.02405 -0.56888
v 0.40792 -0.02341 -0.55911
v 0.41038 -0.02072 -0.54823
v 0.40969 0.02560 -0.54999
v 0.42051 0.02794 -0.55301
v 0.42635 0.02801 -0.56290
v 0.42377 0.02577 -0.57386
v 0.41429 0.02253 -0.57948
v 0.40347 0.02019 -0.57645
v 0.39764 0.02012 -0.56656
v 0.40021 0.02236 -0.55560
v 0.39778 0.06864 -0.55501
v 0.40845 0.07154 -0.55811
v 0.41407 0.07232 -0.56809
v 0.41136 0.07054 -0.57910
v 0.40190 0.06722 -0.58469
v 0.39123 0.06432 -0.58159
v 0.38561 0.06354 -0.57162
v 0.38832 0.06533 -0.56061
v 0.38419 0.11140 -0.55764
v 0.39468 0.11485 -0.56078
v 0.40007 0.11634 -0.57080
v 0.39720 0.11500 -0.58184
v 0.38776 0.11161 -0.58742
v 0.37727 0.10816 -0.58428
v 0.37188 0.10667 -0.57425
v 0.37475 0.10801 -0.56322
v 0.36897 0.15369 -0.55785
v 0.37926 0.15769 -0.56101
v 0.38439 0.15988 -0.57104
v 0.38136 0.15898 -0.58208
v 0.37194 0.15552 -0.58765
v 0.36165 0.15152 -0.58449
v 0.35652 0.14933 -0.57446
v 0.35955 0.15023 -0.56342
v 0.35220 0.19533 -0.55566
v 0.36227 0.19987 -0.55880
v 0.36711 0.20275 -0.56880
v 0.36389 0.20228 -0.57981
v 0.35449 0.19875 -0.58538
v 0.34443 0.19421 -0.58224
v 0.33958 0.19133 -0.57224
v 0.34280 0.19179 -0.56123
v 0.33394 0.23614 -0.55107
v 0.34377 0.24121 -0.55416
v 0.34830 0.24477 -0.56409
v 0.34488 0.24473 -0.57505
v 0.33551 0.24111 -0.58061
v 0.32568 0.23604 -0.57753
v 0.32115 0.23249 -0.56760
v 0.32457 0.23253 -0.55664
v 0.31427 0.27595 -0.54410
v 0.32384 0.28154 -0.54711
v 0.32804 0.28575 -0.55693
v 0.32440 0.28612 -0.56781
v 0.31506 0.28244 -0.57338
v 0.30549 0.27685 -0.57038
v 0.30130 0.27263 -0.56055
v 0.30494 0.27226 -0.54967
v 0.29328 0.31458 -0.53478
v 0.30258 0.32067 -0.53768
v 0.30641 0.32553 -0.54735
v 0.30255 0.32630 -0.55813
v 0.29324 0.32254 -0.56371
v 0.28395 0.31645 -0.56081
v 0.28012 0.31160 -0.55114
v 0.28398 0.31082 -0.54036
v 0.27106 0.35188 -0.52315
v 0.28006 0.35846 -0.52591
v 0.28352 0.36392 -0.53539
v 0.27941 0.36508 -0.54605
v 0.27014 0.36125 -0.55164
v 0.26115 0.35467 -0.54888
v 0.25769 0.34920 -0.53940
v 0.26179 0.34805 -0.52874
v 0.24770 0.38768 -0.50926
v 0.25639 0.39472 -0.51185
v 0.25945 0.40078 -0.52110
v 0.25509 0.40231 -0.53161
v 0.24586 0.39840 -0.53722
v 0.23717 0.39136 -0.53464
v 0.23411 0.38530 -0.52538
v 0.23847 0.38377 -0.51487
v 0.22330 0.42182 -0.49318
v 0.23166 0.42931 -0.49556
v 0.23431 0.43594 -0.50455
v 0.22969 0.43781 -0.51489
v 0.22050 0.43384 -0.52052
v 0.21214 0.42635 -0.51814
v 0.20949 0.41973 -0.50914
v 0.21411 0.41785 -0.49880
v 0.19796 0.45417 -0.47495
v 0.20599 0.46208 -0.47711
v 0.20821 0.46924 -0.48580
v 0.20332 0.47145 -0.49595
v 0.19418 0.46741 -0.50160
v 0.18614 0.45950 -0.49945
v 0.18393 0.45234 -0.49076
v 0.18882 0.45013 -0.48061
v 0.17180 0.48458 -0.45468
v 0.17948 0.49289 -0.45657
v 0.18126 0.50055 -0.46494
v 0.17609 0.50307 -0.47487
v 0.16699 0.49897 -0.48056
v 0.15931 0.49065 -0.47866
v 0.15753 0.48299 -0.47030
v 0.16271 0.48048 -0.46036
v 0.14492 0.51292 -0.43244
v 0.15225 0.52161 -0.43405
v 0.15357 0.52973 -0.44205
v 0.14811 0.53254 -0.45175
v 0.13907 0.52838 -0.45747
v 0.13174 0.51969 -0.45586
v 0.13042 0.51156 -0.44785
v 0.13588 0.50876 -0.43815
v 0.11745 0.53908 -0.40832
v 0.12442 0.54811 -0.40963
v 0.12527 0.55666 -0.41724
v 0.11952 0.55973 -0.42668
v 0.11053 0.55551 -0.43244
v 0.10356 0.54648 -0.43113
v 0.10271 0.53793 -0.42353
v 0.10846 0.53486 -0.41408
v 0.08950 0.56293 -0.38244
v 0.09609 0.57228 -0.38342
v 0.09647 0.58123 -0.39060
v 0.09042 0.58453 -0.39978
v 0.08148 0.58026 -0.40558
v 0.07489 0.57091 -0.40460
v 0.07451 0.56197 -0.39742
v 0.08056 0.55866 -0.38824
v 0.06118 0.58438 -0.35490
v 0.06740 0.59401 -0.35552
v 0.06731 0.60331 -0.36225
v 0.06096 0.60683 -0.37114
v 0.05207 0.60251 -0.37699
v 0.04585 0.59288 -0.37637
v 0.04595 0.58358 -0.36964
v 0.05230 0.58006 -0.36074
v 0.03263 0.60334 -0.32581
v 0.03846 0.61322 -0.32607
v 0.03789 0.62283 -0.33232
v 0.03124 0.62654 -0.34091
v 0.02241 0.62218 -0.34681
v 0.01657 0.61229 -0.34655
v 0.01715 0.60268 -0.34030
v 0.02380 0.59897 -0.33171
v 0.00396 0.61972 -0.29532
v 0.00941 0.62982 -0.29518
v 0.00835 0.63970 -0.30093
v 0.00140 0.64357 -0.30920
v -0.00738 0.63916 -0.31516
v -0.01283 0.62906 -0.31530
v -0.01177 0.61918 -0.30954
v -0.00482 0.61531 -0.30127
v -0.02471 0.63346 -0.26354
v -0.01964 0.64374 -0.26298
v -0.02118 0.65384 -0.26821
v -0.02844 0.65785 -0.27616
v -0.03715 0.65340 -0.28217
v -0.04222 0.64312 -0.28272
v -0.04068 0.63302 -0.27749
v -0.03342 0.62901 -0.26954
v -0.05325 0.64449 -0.23060
v -0.04856 0.65492 -0.22963
v -0.05058 0.66520 -0.23432
v -0.05814 0.66931 -0.24192
v -0.06680 0.66484 -0.24799
v -0.07149 0.65440 -0.24897
v -0.06946 0.64412 -0.24428
v -0.06190 0.64001 -0.23667
v -0.08153 0.65277 -0.19666
v -0.07723 0.66331 -0.19525
v -0.07973 0.67373 -0.19938
v -0.08758 0.67791 -0.20664
v -0.09618 0.67341 -0.21277
v -0.10049 0.66286 -0.21419
v -0.09798 0.65245 -0.21006
v -0.09013 0.64827 -0.20280
v -0.10945 0.65826 -0.16186
v -0.10552 0.66888 -0.16000
v -0.10849 0.67938 -0.16356
v -0.11663 0.68361 -0.17046
v -0.12517 0.67909 -0.17666
v -0.12911 0.66847 -0.17852
v -0.12613 0.65797 -0.17496
v -0.11799 0.65374 -0.16806
v -0.13688 0.66094 -0.12635
v -0.13331 0.67160 -0.12402
v -0.13675 0.68214 -0.12699
v -0.14518 0.68639 -0.13353
v -0.15366 0.68185 -0.13980
v -0.15722 0.67119 -0.14213
v -0.15378 0.66065 -0.13915
v -0.14536 0.65640 -0.13261
v -0.16369 0.66080 -0.09027
v -0.16049 0.67146 -0.08747
v -0.16438 0.68200 -0.08985
v -0.17308 0.68623 -0.09602
v -0.18151 0.68169 -0.10236
v -0.18471 0.67102 -0.10516
v -0.18082 0.66049 -0.10278
v -0.17211 0.65625 -0.09661
v -0.18978 0.65783 -0.05378
v -0.18693 0.66846 -0.05051
v -0.19126 0.67894 -0.05230
v -0.20024 0.68314 -0.05809
v -0.20861 0.67859 -0.06451
v -0.21146 0.66796 -0.06778
v -0.20713 0.65748 -0.06599
v -0.19815 0.65328 -0.06020
v -0.21504 0.65206 -0.01705
v -0.21253 0.66262 -0.01329
v -0.21729 0.67300 -0.01448
v -0.22653 0.67712 -0.01990
v -0.23484 0.67258 -0.02639
v -0.23735 0.66202 -0.03014
v -0.23259 0.65164 -0.02896
v -0.22335 0.64751 -0.02353
v -0.23936 0.64350 0.01978
v -0.23717 0.65395 0.02402
v -0.24234 0.66418 0.02344
v -0.25183 0.66821 0.01839
v -0.26009 0.66367 0.01183
v -0.26227 0.65323 0.00759
v -0.25710 0.64299 0.00817
v -0.24761 0.63896 0.01322
v -0.26262 0.63220 0.05655
v -0.26076 0.64250 0.06127
v -0.26632 0.65254 0.06129
v -0.27605 0.65644 0.05661
v -0.28425 0.65192 0.04997
v -0.28611 0.64162 0.04526
v -0.28055 0.63158 0.04523
v -0.27082 0.62767 0.04991
v -0.28474 0.61819 0.09310
v -0.28318 0.62831 0.09829
v -0.28911 0.63812 0.09891
v -0.29907 0.64187 0.09461
v -0.30722 0.63736 0.08789
v -0.30878 0.62725 0.08269
v -0.30284 0.61744 0.08207
v -0.29289 0.61369 0.08638
v -0.30562 0.60155 0.12926
v -0.30434 0.61145 0.13493
v -0.31063 0.62097 0.13615
v -0.32080 0.62455 0.13221
v -0.32890 0.62007 0.12541
v -0.33017 0.61017 0.11974
v -0.32388 0.60064 0.11852
v -0.31371 0.59707 0.12247
v -0.32516 0.58233 0.16490
v -0.32415 0.59198 0.17104
v -0.33077 0.60119 0.17284
v -0.34115 0.60455 0.16925
v -0.34919 0.60011 0.16237
v -0.35020 0.59046 0.15624
v -0.34358 0.58125 0.15444
v -0.33321 0.57789 0.15802
v -0.34329 0.56063 0.19985
v -0.34253 0.57000 0.20645
v -0.34946 0.57884 0.20882
v -0.36002 0.58197 0.20558
v -0.36802 0.57757 0.19863
v -0.36878 0.56820 0.19203
v -0.36185 0.55936 0.18966
v -0.35129 0.55623 0.19290
v -0.35992 0.53654 0.23396
v -0.35940 0.54559 0.24101
v -0.36661 0.55402 0.24394
v -0.37734 0.55691 0.24105
v -0.38530 0.55255 0.23402
v -0.38583 0.54350 0.22697
v -0.37861 0.53506 0.22404
v -0.36789 0.53218 0.22693
v -0.37500 0.51015 0.26710
v -0.37468 0.51886 0.27458
v -0.38215 0.52685 0.27806
v -0.39303 0.52946 0.27549
v -0.40095 0.52515 0.26838
v -0.40127 0.51645 0.26090
v -0.39380 0.50845 0.25743
v -0.38292 0.50585 0.25999
v -0.38844 0.48159 0.29911
v -0.38831 0.48992 0.30702
v -0.39601 0.49744 0.31102
v -0.40703 0.49974 0.30877
v -0.41491 0.49549 0.30159
v -0.41504 0.48717 0.29368
v -0.40734 0.47965 0.28968
v -0.39632 0.47734 0.29193
v -0.40019 0.45098 0.32986
v -0.40023 0.45890 0.33817
v -0.40813 0.46590 0.34268
v -0.41927 0.46789 0.34073
v -0.42712 0.46370 0.33348
v -0.42708 0.45578 0.32517
v -0.41918 0.44878 0.32066
v -0.40804 0.44679 0.32261
v -0.41021 0.41844 0.35922
v -0.41039 0.42593 0.36792
v -0.41847 0.43239 0.37290
v -0.42971 0.43404 0.37125
v -0.43753 0.42992 0.36392
v -0.43735 0.42243 0.35522
v -0.42927 0.41597 0.35024
v -0.41803 0.41431 0.35190
v -0.41845 0.38411 0.38707
v -0.41875 0.39115 0.39614
v -0.42697 0.39704 0.40157
v -0.43829 0.39834 0.40019
v -0.44609 0.39428 0.39280
v -0.44579 0.38725 0.38373
v -0.43757 0.38136 0.37829
v -0.42625 0.38006 0.37968
v -0.42488 0.34815 0.41327
v -0.42527 0.35471 0.42269
v -0.43360 0.36000 0.42855
v -0.44499 0.36093 0.42742
v -0.45276 0.35695 0.41997
v -0.45237 0.35040 0.41055
v -0.44403 0.34510 0.40469
v -0.43265 0.34417 0.40582
v -0.42946 0.31071 0.43773
v -0.42992 0.31676 0.44747
v -0.43834 0.32143 0.45373
v -0.44977 0.32198 0.45284
v -0.45753 0.31808 0.44533
v -0.45706 0.31203 0.43558
v -0.44864 0.30736 0.42933
v -0.43721 0.30681 0.43021
v -0.43217 0.27194 0.46034
v -0.43269 0.27748 0.47038
v -0.44116 0.28150 0.47701
v -0.45262 0.28165 0.47633
v -0.46036 0.27784 0.46876
v -0.45984 0.27230 0.45872
v -0.45137 0.26828 0.45209
v -0.43991 0.26813 0.45276
v -0.43302 0.23201 0.48099
v -0.43355 0.23702 0.49131
v -0.44204 0.24038 0.49827
v -0.45351 0.24012 0.49780
v -0.46124 0.23640 0.49017
v -0.46070 0.23139 0.47985
v -0.45221 0.22803 0.47289
v -0.44074 0.22829 0.47336
v -0.43198 0.19110 0.49961
v -0.43252 0.19556 0.51017
v -0.44099 0.19824 0.51744
v -0.45245 0.19756 0.51714
v -0.46018 0.19394 0.50946
v -0.45964 0.18948 0.49889
v -0.45116 0.18680 0.49163
v -0.43970 0.18747 0.49193
v -0.42907 0.14937 0.51611
v -0.42958 0.15327 0.52689
v -0.43802 0.15526 0.53442
v -0.44944 0.15417 0.53428
v -0.45717 0.15063 0.52655
v -0.45666 0.14673 0.51577
v -0.44822 0.14475 0.50824
v -0.43679 0.14584 0.50838
v -0.42430 0.10701 0.53042
v -0.42476 0.11035 0.54139
v -0.43312 0.11163 0.54915
v -0.44450 0.11011 0.54914
v -0.45223 0.10668 0.54137
v -0.45177 0.10334 0.53040
v -0.44341 0.10206 0.52264
v -0.43203 0.10358 0.52265
v -0.41769 0.06421 0.54247
v -0.41807 0.06697 0.55361
v -0.42633 0.06754 0.56156
v -0.43764 0.06558 0.56166
v -0.44538 0.06225 0.55386
v -0.44500 0.05949 0.54272
v -0.43674 0.05892 0.53477
v -0.42542 0.06087 0.53467
v -0.40927 0.02113 0.55223
v -0.40954 0.02331 0.56350
v -0.41767 0.02317 0.57160
v -0.42890 0.02078 0.57179
v -0.43665 0.01755 0.56396
v -0.43637 0.01537 0.55269
v -0.42824 0.01552 0.54459
v -0.41701 0.01790 0.54440
v -0.39907 -0.02203 0.55964
v -0.39921 -0.02043 0.57101
v -0.40719 -0.02129 0.57923
v -0.41831 -0.02411 0.57948
v -0.42607 -0.02723 0.57162
v -0.42593 -0.02883 0.56025
v -0.41796 -0.02797 0.55204
v -0.40683 -0.02515 0.55178
v -0.38713 -0.06509 0.56468
v -0.38713 -0.06407 0.57612
v -0.39491 -0.06564 0.58441
v -0.40592 -0.06889 0.58470
v -0.41370 -0.07191 0.57682
v -0.41371 -0.07293 0.56539
v -0.40592 -0.07135 0.55709
v -0.39492 -0.06811 0.55680
v -0.37352 -0.10786 0.56732
v -0.37334 -0.10742 0.57879
v -0.38091 -0.10970 0.58712
v -0.39178 -0.11338 0.58743
v -0.39959 -0.11629 0.57953
v -0.39976 -0.11673 0.56806
v -0.39220 -0.11445 0.55973
v -0.38133 -0.11077 0.55943
v -0.35828 -0.15016 0.56755
v -0.35791 -0.15029 0.57903
v -0.36523 -0.15328 0.58735
v -0.37595 -0.15737 0.58765
v -0.38379 -0.16018 0.57975
v -0.38416 -0.16005 0.56827
v -0.37684 -0.15706 0.55995
v -0.36612 -0.15297 0.55965
v -0.34148 -0.19181 0.56538
v -0.34089 -0.19251 0.57682
v -0.34794 -0.19619 0.58510
v -0.35850 -0.20070 0.58537
v -0.36637 -0.20339 0.57746
v -0.36696 -0.20270 0.56602
v -0.35991 -0.19902 0.55774
v -0.34935 -0.19451 0.55747
v -0.32319 -0.23264 0.56080
v -0.32237 -0.23388 0.57218
v -0.32913 -0.23824 0.58038
v -0.33950 -0.24315 0.58059
v -0.34742 -0.24575 0.57269
v -0.34824 -0.24450 0.56130
v -0.34148 -0.24015 0.55311
v -0.33111 -0.23523 0.55290
v -0.30350 -0.27246 0.55384
v -0.30242 -0.27425 0.56513
v -0.30886 -0.27926 0.57320
v -0.31904 -0.28457 0.57333
v -0.32700 -0.28706 0.56544
v -0.32807 -0.28527 0.55415
v -0.32163 -0.28026 0.54608
v -0.31145 -0.27495 0.54595
v -0.28248 -0.31111 0.54453
v -0.28113 -0.31342 0.55570
v -0.28723 -0.31908 0.56361
v -0.29720 -0.32476 0.56363
v -0.30521 -0.32715 0.55576
v -0.30655 -0.32484 0.54459
v -0.30046 -0.31918 0.53668
v -0.29048 -0.31349 0.53666
v -0.26022 -0.34841 0.53291
v -0.25859 -0.35123 0.54392
v -0.26432 -0.35751 0.55163
v -0.27408 -0.36356 0.55153
v -0.28214 -0.36585 0.54368
v -0.28377 -0.36303 0.53267
v -0.27804 -0.35675 0.52496
v -0.26828 -0.35070 0.52506
v -0.23683 -0.38422 0.51903
v -0.23489 -0.38753 0.52985
v -0.24025 -0.39440 0.53733
v -0.24977 -0.40080 0.53708
v -0.25788 -0.40299 0.52925
v -0.25983 -0.39968 0.51843
v -0.25447 -0.39281 0.51096
v -0.24494 -0.38641 0.51120
v -0.21240 -0.41838 0.50295
v -0.21014 -0.42215 0.51355
v -0.21510 -0.42959 0.52075
v -0.22439 -0.43632 0.52034
v -0.23256 -0.43842 0.51255
v -0.23482 -0.43464 0.50194
v -0.22986 -0.42721 0.49474
v -0.22057 -0.42047 0.49516
v -0.18703 -0.45073 0.48473
v -0.18444 -0.45495 0.49509
v -0.18899 -0.46292 0.50198
v -0.19803 -0.46997 0.50138
v -0.20626 -0.47198 0.49363
v -0.20886 -0.46776 0.48327
v -0.20430 -0.45979 0.47638
v -0.19526 -0.45274 0.47698
v -0.16084 -0.48115 0.46446
v -0.15790 -0.48579 0.47454
v -0.16203 -0.49426 0.48109
v -0.17081 -0.50161 0.48028
v -0.17911 -0.50353 0.47258
v -0.18205 -0.49889 0.46250
v -0.17792 -0.49041 0.45594
v -0.16914 -0.48307 0.45676
v -0.13394 -0.50950 0.44222
v -0.13064 -0.51453 0.45200
v -0.13433 -0.52347 0.45818
v -0.14285 -0.53109 0.45714
v -0.15121 -0.53293 0.44949
v -0.15451 -0.52790 0.43971
v -0.15082 -0.51896 0.43353
v -0.14230 -0.51134 0.43457
v -0.10643 -0.53567 0.41811
v -0.10277 -0.54105 0.42756
v -0.10602 -0.55043 0.43333
v -0.11427 -0.55830 0.43205
v -0.12270 -0.56006 0.42445
v -0.12637 -0.55467 0.41500
v -0.12312 -0.54529 0.40923
v -0.11486 -0.53742 0.41051
v -0.07845 -0.55953 0.39223
v -0.07441 -0.56525 0.40133
v -0.07721 -0.57502 0.40667
v -0.08519 -0.58312 0.40512
v -0.09369 -0.58480 0.39759
v -0.09773 -0.57908 0.38849
v -0.09493 -0.56931 0.38315
v -0.08695 -0.56121 0.38470
v -0.05010 -0.58098 0.36469
v -0.04569 -0.58700 0.37341
v -0.04802 -0.59713 0.37829
v -0.05574 -0.60543 0.37646
v -0.06431 -0.60705 0.36900
v -0.06872 -0.60103 0.36027
v -0.06639 -0.59090 0.35540
v -0.05867 -0.58260 0.35722
v -0.02151 -0.59994 0.33560
v -0.01672 -0.60623 0.34393
v -0.01859 -0.61667 0.34832
v -0.02603 -0.62515 0.34620
v -0.03468 -0.62671 0.33882
v -0.03947 -0.62042 0.33049
v -0.03760 -0.60998 0.32610
v -0.03016 -0.60150 0.32822
v 0.00719 -0.61633 0.30511
v 0.01237 -0.62284 0.31302
v 0.01096 -0.63355 0.31690
v 0.00379 -0.64219 0.31448
v -0.00493 -0.64369 0.30717
v -0.01010 -0.63718 0.29925
v -0.00870 -0.62646 0.29537
v -0.00153 -0.61783 0.29780
v 0.03589 -0.63006 0.27332
v 0.04145 -0.63677 0.28080
v 0.04050 -0.64771 0.28415
v 0.03361 -0.65648 0.28141
v 0.02481 -0.65793 0.27418
v 0.01926 -0.65122 0.26670
v 0.02020 -0.64028 0.26335
v 0.02709 -0.63152 0.26609
v 0.06446 -0.64109 0.24039
v 0.07040 -0.64796 0.24742
v 0.06992 -0.65908 0.25022
v 0.06330 -0.66795 0.24715
v 0.05442 -0.66936 0.24001
v 0.04849 -0.66250 0.23298
v 0.04897 -0.65137 0.23018
v 0.05559 -0.64251 0.23325
v 0.09278 -0.64937 0.20645
v 0.09910 -0.65636 0.21301
v 0.09908 -0.66762 0.21524
v 0.09273 -0.67656 0.21184
v 0.08377 -0.67794 0.20479
v 0.07746 -0.67095 0.19823
v 0.07748 -0.65969 0.19599
v 0.08383 -0.65075 0.19940
v 0.12073 -0.65486 0.17164
v 0.12742 -0.66193 0.17773
v 0.12785 -0.67328 0.17938
v 0.12177 -0.68227 0.17563
v 0.11273 -0.68362 0.16868
v 0.10604 -0.67655 0.16259
v 0.10562 -0.66520 0.16094
v 0.11170 -0.65621 0.16469
v 0.14819 -0.65754 0.13612
v 0.15525 -0.66465 0.14172
v 0.15612 -0.67605 0.14278
v 0.15029 -0.68505 0.13868
v 0.14118 -0.68639 0.13183
v 0.13413 -0.67927 0.12623
v 0.13326 -0.66787 0.12516
v 0.13908 -0.65887 0.12926
v 0.17504 -0.65739 0.10004
v 0.18246 -0.66451 0.10514
v 0.18376 -0.67591 0.10560
v 0.17819 -0.68490 0.10115
v 0.16900 -0.68623 0.09439
v 0.16158 -0.67911 0.08929
v 0.16028 -0.66771 0.08883
v 0.16585 -0.65871 0.09328
v 0.20116 -0.65442 0.06355
v 0.20893 -0.66151 0.06815
v 0.21066 -0.67286 0.06800
v 0.20533 -0.68182 0.06319
v 0.19607 -0.68314 0.05654
v 0.18830 -0.67605 0.05194
v 0.18658 -0.66470 0.05208
v 0.19190 -0.65574 0.05689
v 0.22645 -0.64864 0.02681
v 0.23456 -0.65566 0.03090
v 0.23669 -0.66691 0.03015
v 0.23160 -0.67581 0.02498
v 0.22227 -0.67713 0.01843
v 0.21416 -0.67011 0.01433
v 0.21203 -0.65886 0.01509
v 0.21712 -0.64996 0.02026
v 0.25080 -0.64007 -0.01003
v 0.25923 -0.64698 -0.00644
v 0.26176 -0.65809 -0.00781
v 0.25689 -0.66690 -0.01334
v 0.24749 -0.66824 -0.01978
v 0.23905 -0.66133 -0.02337
v 0.23653 -0.65022 -0.02200
v 0.24139 -0.64141 -0.01647
v 0.27409 -0.62875 -0.04680
v 0.28284 -0.63552 -0.04372
v 0.28574 -0.64645 -0.04570
v 0.28109 -0.65514 -0.05159
v 0.27162 -0.65650 -0.05792
v 0.26287 -0.64973 -0.06100
v 0.25997 -0.63880 -0.05902
v 0.26462 -0.63011 -0.05314
v 0.29624 -0.61473 -0.08335
v 0.30529 -0.62131 -0.08077
v 0.30854 -0.63201 -0.08336
v 0.30410 -0.64057 -0.08960
v 0.29456 -0.64196 -0.09583
v 0.28551 -0.63537 -0.09841
v 0.28226 -0.62467 -0.09582
v 0.28670 -0.61612 -0.08958
v 0.31715 -0.59807 -0.11952
v 0.32648 -0.60443 -0.11745
v 0.33007 -0.61486 -0.12064
v 0.32581 -0.62325 -0.12723
v 0.31621 -0.62468 -0.13335
v 0.30688 -0.61831 -0.13542
v 0.30329 -0.60789 -0.13223
v 0.30755 -0.59950 -0.12565
v 0.33672 -0.57884 -0.15516
v 0.34632 -0.58495 -0.15358
v 0.35022 -0.59506 -0.15737
v 0.34614 -0.60326 -0.16430
v 0.33647 -0.60473 -0.17031
v 0.32688 -0.59863 -0.17189
v 0.32298 -0.58851 -0.16811
v 0.32706 -0.58032 -0.16118
v 0.35488 -0.55712 -0.19012
v 0.36472 -0.56294 -0.18902
v 0.36891 -0.57270 -0.19339
v 0.36499 -0.58068 -0.20065
v 0.35527 -0.58221 -0.20656
v 0.34544 -0.57639 -0.20766
v 0.34125 -0.56663 -0.20329
v 0.34516 -0.55865 -0.19603
v 0.37154 -0.53301 -0.22424
v 0.38161 -0.53851 -0.22362
v 0.38606 -0.54787 -0.22855
v 0.38230 -0.55561 -0.23614
v 0.37252 -0.55721 -0.24195
v 0.36246 -0.55171 -0.24257
v 0.35801 -0.54235 -0.23763
v 0.36177 -0.53460 -0.23004
v 0.38664 -0.50661 -0.25737
v 0.39691 -0.51175 -0.25722
v 0.40160 -0.52068 -0.26270
v 0.39797 -0.52817 -0.27061
v 0.38815 -0.52983 -0.27631
v 0.37788 -0.52469 -0.27647
v 0.37319 -0.51576 -0.27099
v 0.37682 -0.50827 -0.26308
v 0.40011 -0.47803 -0.28939
v 0.41056 -0.48278 -0.28968
v 0.41546 -0.49124 -0.29569
v 0.41195 -0.49846 -0.30391
v 0.40208 -0.50019 -0.30951
v 0.39164 -0.49544 -0.30922
v 0.38673 -0.48697 -0.30321
v 0.39024 -0.47976 -0.29499
v 0.41189 -0.44739 -0.32014
v 0.42250 -0.45173 -0.32086
v 0.42758 -0.45969 -0.32739
v 0.42417 -0.46661 -0.33589
v 0.41427 -0.46843 -0.34140
v 0.40366 -0.46408 -0.34068
v 0.39858 -0.45612 -0.33415
v 0.40198 -0.44921 -0.32565
v 0.42194 -0.41482 -0.34951
v 0.43267 -0.41873 -0.35064
v 0.43792 -0.42615 -0.35765
v 0.43459 -0.43275 -0.36643
v 0.42465 -0.43466 -0.37184
v 0.41391 -0.43076 -0.37071
v 0.40867 -0.42334 -0.36370
v 0.41199 -0.41673 -0.35492
v 0.43026 -0.38016 -0.37760
v 0.44106 -0.38383 -0.37893
v 0.44637 -0.39097 -0.38618
v 0.44308 -0.39742 -0.39510
v 0.43312 -0.39937 -0.40046
v 0.42233 -0.39571 -0.39913
v 0.41702 -0.38856 -0.39189
v 0.42030 -0.38212 -0.38297
f 2 9 1
f 3 10 2
f 4 11 3
f 4 13 12
f 5 14 13
f 6 15 14
f 7 16 15
f 1 16 8
f 10 17 9
f 11 18 10
f 12 19 11
f 13 20 12
f 14 21 13
f 15 22 14
f 16 23 15
f 9 24 16
f 18 25 17
f 19 26 18
f 20 27 19
f 21 28 20
f 22 29 21
f 23 30 22
f 24 31 23
f 17 32 24
f 26 33 25
f 27 34 26
f 28 35 27
f 29 36 28
f 30 37 29
f 31 38 30
f 32 39 31
f 25 40 32
f 34 41 33
f 35 42 34
f 36 43 35
f 37 44 36
f 38 45 37
f 39 46 38
f 40 47 39
f 33 48 40
f 42 49 41
f 43 50 42
f 44 51 43
f 45 52 44
f 46 53 45
f 47 54 46
f 48 55 47
f 41 56 48
f 50 57 49
f 51 58 50
f 52 59 51
f 53 60 52
f 54 61 53
f 55 62 54
f 56 63 55
f 49 64 56
f 58 65 57
f 59 66 58
f 60 67 59
f 61 68 60
f 62 69 61
f 63 70 62
f 64 71 63
f 57 72 64
f 66 73 65
f 67 74 66
f 68 75 67
f 69 76 68
f 70 77 69
f 71 78 70
f 72 79 71
f 65 80 72
f 74 81 73
f 75 82 74
f 76 83 75
f 77 84 76
f 78 85 77
f 79 86 78
f 80 87 79
f 73 88 80
f 82 89 81
f 83 90 82
f 84 91 83
f 85 92 84
f 86 93 85
f 87 94 86
f 88 95 87
f 81 96 88
f 90 97 89
f 91 98 90
f 92 99 91
f 93 100 92
f 94 101 93
f 95 102 94
f 96 103 95
f 89 104 96
f 98 105 97
f 99 106 98
f 100 107 99
f 101 108 100
f 102 109 101
f 103 110 102
f 104 111 103
f 97 112 104
f 106 113 105
f 107 114 106
f 108 115 107
f 109 116 108
f 110 117 109
f 111 118 110
f 112 119 111
f 105 120 112
f 114 121 113
f 115 122 114
f 116 123 115
f 117 124 116
f 118 125 117
f 119 126 118
f 120 127 119
f 113 128 120
f 122 129 121
f 123 130 122
f 124 131 123
f 125 132 124
f 126 133 125
f 127 134 126
f 128 135 127
f 121 136 128
f 130 137 129
f 131 138 130
f 132 139 131
f 133 140 132
f 134 141 133
f 135 142 134
f 136 143 135
f 129 144 136
f 138 145 137
f 139 146 138
f 140 147 139
f 141 148 140
f 142 149 141
f 143 150 142
f 144 151 143
f 137 152 144
f 146 153 145
f 147 154 146
f 148 155 147
f 149 156 148
f 150 157 149
f 151 158 150
f 152 159 151
f 145 160 152
f 154 161 153
f 155 162 154
f 156 163 155
f 157 164 156
f 158 165 157
f 159 166 158
f 160 167 159
f 153 168 160
f 162 169 161
f 163 170 162
f 164 171 163
f 165 172 164
f 166 173 165
f 167 174 166
f 168 175 167
f 161 176 168
f 170 177 169
f 171 178 170
f 172 179 171
f 173 180 172
f 174 181 173
f 175 182 174
f 176 183 175
f 169 184 176
f 178 185 177
f 179 186 178
f 180 187 179
f 181 188 180
f 182 189 181
f 183 190 182
f 184 191 183
f 177 192 184
f 186 193 185
f 187 194 186
f 188 195 187
f 189 196 188
f 190 197 189
f 191 198 190
f 192 199 191
f 185 200 192
f 194 201 193
f 195 202 194
f 196 203 195
f 197 204 196
f 198 205 197
f 199 206 198
f 200 207 199
f 193 208 200
f 202 209 201
f 203 210 202
f 204 211 203
f 205 212 204
f 206 213 205
f 207 214 206
f 208 215 207
f 201 216 208
f 210 217 209
f 211 218 210
f 212 219 211
f 213 220 212
f 214 221 213
f 215 222 214
f 216 223 215
f 209 224 216
f 218 225 217
f 219 226 218
f 220 227 219
f 221 228 220
f 222 229 221
f 223 230 222
f 224 231 223
f 217 232 224
f 226 233 225
f 227 234 226
f 228 235 227
f 229 236 228
f 230 237 229
f 231 238 230
f 232 239 231
f 225 240 232
f 234 241 233
f 235 242 234
f 236 243 235
f 237 244 236
f 238 245 237
f 239 246 238
f 240 247 239
f 233 248 240
f 242 249 241
f 243 250 242
f 244 251 243
f 245 252 244
f 246 253 245
f 247 254 246
f 248 255 247
f 241 256 248
f 250 257 249
f 251 258 250
f 252 259 251
f 253 260 252
f 254 261 253
f 255 262 254
f 256 263 255
f 249 264 256
f 258 265 257
f 259 266 258
f 260 267 259
f 261 268 260
f 262 269 261
f 263 270 262
f 264 271 263
f 257 272 264
f 266 273 265
f 267 274 266
f 268 275 267
f 269 276 268
f 270 277 269
f 271 278 270
f 272 279 271
f 265 280 272
f 274 281 273
f 275 282 274
f 276 283 275
f 277 284 276
f 278 285 277
f 279 286 278
f 280 287 279
f 273 288 280
f 282 289 281
f 283 290 282
f 284 291 283
f 285 292 284
f 286 293 285
f 287 294 286
f 288 295 287
f 281 296 288
f 290 297 289
f 291 298 290
f 292 299 291
f 293 300 292
f 294 301 293
f 295 302 294
f 296 303 295
f 289 304 296
f 298 305 297
f 299 306 298
f 300 307 299
f 301 308 300
f 302 309 301
f 303 310 302
f 304 311 303
f 297 312 304
f 306 313 305
f 307 314 306
f 308 315 307
f 309 316 308
f 310 317 309
f 311 318 310
f 312 319 311
f 305 320 312
f 314 321 313
f 315 322 314
f 316 323 315
f 317 324 316
f 318 325 317
f 319 326 318
f 320 327 319
f 313 328 320
f 322 329 321
f 323 330 322
f 324 331 323
f 325 332 324
f 326 333 325
f 327 334 326
f 328 335 327
f 321 336 328
f 330 337 329
f 331 338 330
f 332 339 331
f 333 340 332
f 334 341 333
f 335 342 334
f 336 343 335
f 329 344 336
f 338 345 337
f 339 346 338
f 340 347 339
f 341 348 340
f 342 349 341
f 343 350 342
f 344 351 343
f 337 352 344
f 346 353 345
f 347 354 346
f 348 355 347
f 349 356 348
f 350 357 349
f 351 358 350
f 352 359 351
f 345 360 352
f 354 361 353
f 355 362 354
f 356 363 355
f 357 364 356
f 358 365 357
f 359 366 358
f 360 367 359
f 353 368 360
f 362 369 361
f 363 370 362
f 364 371 363
f 365 372 364
f 366 373 365
f 367 374 366
f 368 375 367
f 361 376 368
f 370 377 369
f 371 378 370
f 372 379 371
f 373 380 372
f 374 381 373
f 375 382 374
f 376 383 375
f 369 384 376
f 378 385 377
f 379 386 378
f 380 387 379
f 381 388 380
f 382 389 381
f 383 390 382
f 384 391 383
f 377 392 384
f 386 393 385
f 387 394 386
f 388 395 387
f 389 396 388
f 390 397 389
f 391 398 390
f 392 399 391
f 385 400 392
f 394 401 393
f 395 402 394
f 396 403 395
f 397 404 396
f 398 405 397
f 399 406 398
f 400 407 399
f 393 408 400
f 402 409 401
f 403 410 402
f 404 411 403
f 405 412 404
f 406 413 405
f 407 414 406
f 408 415 407
f 401 416 408
f 410 417 409
f 411 418 410
f 412 419 411
f 413 420 412
f 414 421 413
f 415 422 414
f 416 423 415
f 409 424 416
f 418 425 417
f 419 426 418
f 420 427 419
f 421 428 420
f 422 429 421
f 423 430 422
f 424 431 423
f 417 432 424
f 426 433 425
f 427 434 426
f 428 435 427
f 429 436 428
f 430 437 429
f 431 438 430
f 432 439 431
f 425 440 432
f 434 441 433
f 435 442 434
f 436 443 435
f 437 444 436
f 438 445 437
f 439 446 438
f 440 447 439
f 433 448 440
f 442 449 441
f 443 450 442
f 444 451 443
f 445 452 444
f 446 453 445
f 447 454 446
f 448 455 447
f 441 456 448
f 450 457 449
f 451 458 450
f 452 459 451
f 453 460 452
f 454 461 453
f 455 462 454
f 456 463 455
f 449 464 456
f 458 465 457
f 459 466 458
f 460 467 459
f 461 468 460
f 462 469 461
f 463 470 462
f 464 471 463
f 457 472 464
f 466 473 465
f 467 474 466
f 468 475 467
f 469 476 468
f 470 477 469
f 471 478 470
f 472 479 471
f 465 480 472
f 474 481 473
f 475 482 474
f 476 483 475
f 477 484 476
f 478 485 477
f 479 486 478
f 480 487 479
f 473 488 480
f 482 489 481
f 483 490 482
f 484 491 483
f 485 492 484
f 486 493 485
f 487 494 486
f 488 495 487
f 481 496 488
f 490 497 489
f 491 498 490
f 492 499 491
f 493 500 492
f 494 501 493
f 495 502 494
f 496 503 495
f 489 504 496
f 498 505 497
f 499 506 498
f 500 507 499
f 501 508 500
f 502 509 501
f 503 510 502
f 504 511 503
f 497 512 504
f 506 513 505
f 507 514 506
f 508 515 507
f 509 516 508
f 510 517 509
f 511 518 510
f 512 519 511
f 505 520 512
f 514 521 513
f 515 522 514
f 516 523 515
f 517 524 516
f 518 525 517
f 519 526 518
f 520 527 519
f 513 528 520
f 522 529 521
f 523 530 522
f 524 531 523
f 525 532 524
f 526 533 525
f 527 534 526
f 528 535 527
f 521 536 528
f 530 537 529
f 531 538 530
f 532 539 531
f 533 540 532
f 534 541 533
f 535 542 534
f 536 543 535
f 529 544 536
f 538 545 537
f 539 546 538
f 540 547 539
f 541 548 540
f 542 549 541
f 543 550 542
f 544 551 543
f 537 552 544
f 546 553 545
f 547 554 546
f 548 555 547
f 549 556 548
f 550 557 549
f 551 558 550
f 552 559 551
f 545 560 552
f 554 561 553
f 555 562 554
f 556 563 555
f 557 564 556
f 558 565 557
f 559 566 558
f 560 567 559
f 553 568 560
f 562 569 561
f 563 570 562
f 564 571 563
f 565 572 564
f 566 573 565
f 567 574 566
f 568 575 567
f 561 576 568
f 570 577 569
f 571 578 570
f 572 579 571
f 573 580 572
f 574 581 573
f 575 582 574
f 576 583 575
f 569 584 576
f 578 585 577
f 579 586 578
f 580 587 579
f 581 588 580
f 582 589 581
f 583 590 582
f 584 591 583
f 577 592 584
f 586 593 585
f 587 594 586
f 588 595 587
f 589 596 588
f 590 597 589
f 591 598 590
f 592 599 591
f 585 600 592
f 594 601 593
f 595 602 594
f 596 603 595
f 597 604 596
f 598 605 597
f 599 606 598
f 600 607 599
f 593 608 600
f 602 609 601
f 603 610 602
f 604 611 603
f 605 612 604
f 606 613 605
f 607 614 606
f 608 615 607
f 601 616 608
f 610 617 609
f 611 618 610
f 612 619 611
f 613 620 612
f 614 621 613
f 615 622 614
f 616 623 615
f 609 624 616
f 618 625 617
f 619 626 618
f 620 627 619
f 621 628 620
f 622 629 621
f 623 630 622
f 624 631 623
f 617 632 624
f 626 633 625
f 627 634 626
f 628 635 627
f 629 636 628
f 630 637 629
f 631 638 630
f 632 639 631
f 625 640 632
f 634 641 633
f 635 642 634
f 636 643 635
f 637 644 636
f 638 645 637
f 639 646 638
f 640 647 639
f 633 648 640
f 642 649 641
f 643 650 642
f 644 651 643
f 645 652 644
f 646 653 645
f 647 654 646
f 648 655 647
f 641 656 648
f 650 657 649
f 651 658 650
f 652 659 651
f 653 660 652
f 654 661 653
f 655 662 654
f 656 663 655
f 649 664 656
f 658 665 657
f 659 666 658
f 660 667 659
f 661 668 660
f 662 669 661
f 663 670 662
f 664 671 663
f 657 672 664
f 666 673 665
f 667 674 666
f 668 675 667
f 669 676 668
f 670 677 669
f 671 678 670
f 672 679 671
f 665 680 672
f 674 681 673
f 675 682 674
f 676 683 675
f 677 684 676
f 678 685 677
f 679 686 678
f 680 687 679
f 673 688 680
f 682 689 681
f 683 690 682
f 684 691 683
f 685 692 684
f 686 693 685
f 687 694 686
f 688 695 687
f 681 696 688
f 690 697 689
f 691 698 690
f 692 699 691
f 693 700 692
f 694 701 693
f 695 702 694
f 696 703 695
f 689 704 696
f 698 705 697
f 699 706 698
f 700 707 699
f 701 708 700
f 702 709 701
f 703 710 702
f 704 711 703
f 697 712 704
f 706 713 705
f 707 714 706
f 708 715 707
f 709 716 708
f 710 717 709
f 711 718 710
f 712 719 711
f 705 720 712
f 714 721 713
f 715 722 714
f 716 723 715
f 717 724 716
f 718 725 717
f 719 726 718
f 720 727 719
f 713 728 720
f 722 729 721
f 723 730 722
f 724 731 723
f 725 732 724
f 726 733 725
f 727 734 726
f 728 735 727
f 721 736 728
f 730 737 729
f 731 738 730
f 732 739 731
f 733 740 732
f 734 741 733
f 735 742 734
f 736 743 735
f 729 744 736
f 738 745 737
f 739 746 738
f 740 747 739
f 741 748 740
f 742 749 741
f 743 750 742
f 744 751 743
f 737 752 744
f 746 753 745
f 747 754 746
f 748 755 747
f 749 756 748
f 750 757 749
f 751 758 750
f 752 759 751
f 745 760 752
f 754 761 753
f 755 762 754
f 756 763 755
f 757 764 756
f 758 765 757
f 759 766 758
f 760 767 759
f 753 768 760
f 761 770 769
f 762 771 770
f 763 772 771
f 765 772 764
f 766 773 765
f 767 774 766
f 768 775 767
f 768 769 776
f 2 10 9
f 3 11 10
f 4 12 11
f 4 5 13
f 5 6 14
f 6 7 15
f 7 8 16
f 1 9 16
f 10 18 17
f 11 19 18
f 12 20 19
f 13 21 20
f 14 22 21
f 15 23 22
f 16 24 23
f 9 17 24
f 18 26 25
f 19 27 26
f 20 28 27
f 21 29 28
f 22 30 29
f 23 31 30
f 24 32 31
f 17 25 32
f 26 34 33
f 27 35 34
f 28 36 35
f 29 37 36
f 30 38 37
f 31 39 38
f 32 40 39
f 25 33 40
f 34 42 41
f 35 43 42
f 36 44 43
f 37 45 44
f 38 46 45
f 39 47 46
f 40 48 47
f 33 41 48
f 42 50 49
f 43 51 50
f 44 52 51
f 45 53 52
f 46 54 53
f 47 55 54
f 48 56 55
f 41 49 56
f 50 58 57
f 51 59 58
f 52 60 59
f 53 61 60
f 54 62 61
f 55 63 62
f 56 64 63
f 49 57 64
f 58 66 65
f 59 67 66
f 60 68 67
f 61 69 68
f 62 70 69
f 63 71 70
f 64 72 71
f 57 65 72
f 66 74 73
f 67 75 74
f 68 76 75
f 69 77 76
f 70 78 77
f 71 79 78
f 72 80 79
f 65 73 80
f 74 82 81
f 75 83 82
f 76 84 83
f 77 85 84
f 78 86 85
f 79 87 86
f 80 88 87
f 73 81 88
f 82 90 89
f 83 91 90
f 84 92 91
f 85 93 92
f 86 94 93
f 87 95 94
f 88 96 95
f 81 89 96
f 90 98 97
f 91 99 98
f 92 100 99
f 93 101 100
f 94 102 101
f 95 103 102
f 96 104 103
f 89 97 104
f 98 106 105
f 99 107 106
f 100 108 107
f 101 109 108
f 102 110 109
f 103 111 110
f 104 112 111
f 97 105 112
f 106 114 113
f 107 115 114
f 108 116 115
f 109 117 116
f 110 118 117
f 111 119 118
f 112 120 119
f 105 113 120
f 114 122 121
f 115 123 122
f 116 124 123
f 117 125 124
f 118 126 125
f 119 127 126
f 120 128 127
f 113 121 128
f 122 130 129
f 123 131 130
f 124 132 131
f 125 133 132
f 126 134 133
f 127 135 134
f 128 136 135
f 121 129 136
f 130 138 137
f 131 139 138
f 132 140 139
f 133 141 140
f 134 142 141
f 135 143 142
f 136 144 143
f 129 137 144
f 138 146 145
f 139 147 146
f 140 148 147
f 141 149 148
f 142 150 149
f 143 151 150
f 144 152 151
f 137 145 152
f 146 154 153
f 147 155 154
f 148 156 155
f 149 157 156
f 150 158 157
f 151 159 158
f 152 160 159
f 145 153 160
f 154 162 161
f 155 163 162
f 156 164 163
f 157 165 164
f 158 166 165
f 159 167 166
f 160 168 167
f 153 161 168
f 162 170 169
f 163 171 170
f 164 172 171
f 165 173 172
f 166 174 173
f 167 175 174
f 168 176 175
f 161 169 176
f 170 178 177
f 171 179 178
f 172 180 179
f 173 181 180
f 174 182 181
f 175 183 182
f 176 184 183
f 169 177 184
f 178 186 185
f 179 187 186
f 180 188 187
f 181 189 188
f 182 190 189
f 183 191 190
f 184 192 191
f 177 185 192
f 186 194 193
f 187 195 194
f 188 196 195
f 189 197 196
f 190 198 197
f 191 199 198
f 192 200 199
f 185 193 200
f 194 202 201
f 195 203 202
f 196 204 203
f 197 205 204
f 198 206 205
f 199 207 206
f 200 208 207
f 193 201 208
f 202 210 209
f 203 211 210
f 204 212 211
f 205 213 212
f 206 214 213
f 207 215 214
f 208 216 215
f 201 209 216
f 210 218 217
f 211 219 218
f 212 220 219
f 213 221 220
f 214 222 221
f 215 223 222
f 216 224 223
f 209 217 224
f 218 226 225
f 219 227 226
f 220 228 227
f 221 229 228
f 222 230 229
f 223 231 230
f 224 232 231
f 217 225 232
f 226 234 233
f 227 235 234
f 228 236 235
f 229 237 236
f 230 238 237
f 231 239 238
f 232 240 239
f 225 233 240
f 234 242 241
f 235 243 242
f 236 244 243
f 237 245 244
f 238 246 245
f 239 247 246
f 240 248 247
f 233 241 248
f 242 250 249
f 243 251 250
f 244 252 251
f 245 253 252
f 246 254 253
f 247 255 254
f 248 256 255
f 241 249 256
f 250 258 257
f 251 259 258
f 252 260 259
f 253 261 260
f 254 262 261
f 255 263 262
f 256 264 263
f 249 257 264
f 258 266 265
f 259 267 266
f 260 268 267
f 261 269 268
f 262 270 269
f 263 271 270
f 264 272 271
f 257 265 272
f 266 274 273
f 267 275 274
f 268 276 275
f 269 277 276
f 270 278 277
f 271 279 278
f 272 280 279
f 265 273 280
f 274 282 281
f 275 283 282
f 276 284 283
f 277 285 284
f 278 286 285
f 279 287 286
f 280 288 287
f 273 281 288
f 282 290 289
f 283 291 290
f 284 292 291
f 285 293 292
f 286 294 293
f 287 295 294
f 288 296 295
f 281 289 296
f 290 298 297
f 291 299 298
f 292 300 299
f 293 301 300
f 294 302 301
f 295 303 302
f 296 304 303
f 289 297 304
f 298 306 305
f 299 307 306
f 300 308 307
f 301 309 308
f 302 310 309
f 303 311 310
f 304 312 311
f 297 305 312
f 306 314 313
f 307 315 314
f 308 316 315
f 309 317 316
f 310 318 317
f 311 319 318
f 312 320 319
f 305 313 320
f 314 322 321
f 315 323 322
f 316 324 323
f 317 325 324
f 318 326 325
f 319 327 326
f 320 328 327
f 313 321 328
f 322 330 329
f 323 331 330
f 324 332 331
f 325 333 332
f 326 334 333
f 327 335 334
f 328 336 335
f 321 329 336
f 330 338 337
f 331 339 338
f 332 340 339
f 333 341 340
f 334 342 341
f 335 343 342
f 336 344 343
f 329 337 344
f 338 346 345
f 339 347 346
f 340 348 347
f 341 349 348
f 342 350 349
f 343 351 350
f 344 352 351
f 337 345 352
f 346 354 353
f 347 355 354
f 348 356 355
f 349 357 356
f 350 358 357
f 351 359 358
f 352 360 359
f 345 353 360
f 354 362 361
f 355 363 362
f 356 364 363
f 357 365 364
f 358 366 365
f 359 367 366
f 360 368 367
f 353 361 368
f 362 370 369
f 363 371 370
f 364 372 371
f 365 373 372
f 366 374 373
f 367 375 374
f 368 376 375
f 361 369 376
f 370 378 377
f 371 379 378
f 372 380 379
f 373 381 380
f 374 382 381
f 375 383 382
f 376 384 383
f 369 377 384
f 378 386 385
f 379 387 386
f 380 388 387
f 381 389 388
f 382 390 389
f 383 391 390
f 384 392 391
f 377 385 392
f 386 394 393
f 387 395 394
f 388 396 395
f 389 397 396
f 390 398 397
f 391 399 398
f 392 400 399
f 385 393 400
f 394 402 401
f 395 403 402
f 396 404 403
f 397 405 404
f 398 406 405
f 399 407 406
f 400 408 407
f 393 401 408
f 402 410 409
f 403 411 410
f 404 412 411
f 405 413 412
f 406 414 413
f 407 415 414
f 408 416 415
f 401 409 416
f 410 418 417
f 411 419 418
f 412 420 419
f 413 421 420
f 414 422 421
f 415 423 422
f 416 424 423
f 409 417 424
f 418 426 425
f 419 427 426
f 420 428 427
f 421 429 428
f 422 430 429
f 423 431 430
f 424 432 431
f 417 425 432
f 426 434 433
f 427 435 434
f 428 436 435
f 429 437 436
f 430 438 437
f 431 439 438
f 432 440 439
f 425 433 440
f 434 442 441
f 435 443 442
f 436 444 443
f 437 445 444
f 438 446 445
f 439 447 446
f 440 448 447
f 433 441 448
f 442 450 449
f 443 451 450
f 444 452 451
f 445 453 452
f 446 454 453
f 447 455 454
f 448 456 455
f 441 449 456
f 450 458 457
f 451 459 458
f 452 460 459
f 453 461 460
f 454 462 461
f 455 463 462
f 456 464 463
f 449 457 464
f 458 466 465
f 459 467 466
f 460 468 467
f 461 469 468
f 462 470 469
f 463 471 470
f 464 472 471
f 457 465 472
f 466 474 473
f 467 475 474
f 468 476 475
f 469 477 476
f 470 478 477
f 471 479 478
f 472 480 479
f 465 473 480
f 474 482 481
f 475 483 482
f 476 484 483
f 477 485 484
f 478 486 485
f 479 487 486
f 480 488 487
f 473 481 488
f 482 490 489
f 483 491 490
f 484 492 491
f 485 493 492
f 486 494 493
f 487 495 494
f 488 496 495
f 481 489 496
f 490 498 497
f 491 499 498
f 492 500 499
f 493 501 500
f 494 502 501
f 495 503 502
f 496 504 503
f 489 497 504
f 498 506 505
f 499 507 506
f 500 508 507
f 501 509 508
f 502 510 509
f 503 511 510
f 504 512 511
f 497 505 512
f 506 514 513
f 507 515 514
f 508 516 515
f 509 517 516
f 510 518 517
f 511 519 518
f 512 520 519
f 505 513 520
f 514 522 521
f 515 523 522
f 516 524 523
f 517 525 524
f 518 526 525
f 519 527 526
f 520 528 527
f 513 521 528
f 522 530 529
f 523 531 530
f 524 532 531
f 525 533 532
f 526 534 533
f 527 535 534
f 528 536 535
f 521 529 536
f 530 538 537
f 531 539 538
f 532 540 539
f 533 541 540
f 534 542 541
f 535 543 542
f 536 544 543
f 529 537 544
f 538 546 545
f 539 547 546
f 540 548 547
f 541 549 548
f 542 550 549
f 543 551 550
f 544 552 551
f 537 545 552
f 546 554 553
f 547 555 554
f 548 556 555
f 549 557 556
f 550 558 557
f 551 559 558
f 552 560 559
f 545 553 560
f 554 562 561
f 555 563 562
f 556 564 563
f 557 565 564
f 558 566 565
f 559 567 566
f 560 568 567
f 553 561 568
f 562 570 569
f 563 571 570
f 564 572 571
f 565 573 572
f 566 574 573
f 567 575 574
f 568 576 575
f 561 569 576
f 570 578 577
f 571 579 578
f 572 580 579
f 573 581 580
f 574 582 581
f 575 583 582
f 576 584 583
f 569 577 584
f 578 586 585
f 579 587 586
f 580 588 587
f 581 589 588
f 582 590 589
f 583 591 590
f 584 592 591
f 577 585 592
f 586 594 593
f 587 595 594
f 588 596 595
f 589 597 596
f 590 598 597
f 591 599 598
f 592 600 599
f 585 593 600
f 594 602 601
f 595 603 602
f 596 604 603
f 597 605 604
f 598 606 605
f 599 607 606
f 600 608 607
f 593 601 608
f 602 610 609
f 603 611 610
f 604 612 611
f 605 613 612
f 606 614 613
f 607 615 614
f 608 616 615
f 601 609 616
f 610 618 617
f 611 619 618
f 612 620 619
f 613 621 620
f 614 622 621
f 615 623 622
f 616 624 623
f 609 617 624
f 618 626 625
f 619 627 626
f 620 628 627
f 621 629 628
f 622 630 629
f 623 631 630
f 624 632 631
f 617 625 632
f 626 634 633
f 627 635 634
f 628 636 635
f 629 637 636
f 630 638 637
f 631 639 638
f 632 640 639
f 625 633 640
f 634 642 641
f 635 643 642
f 636 644 643
f 637 645 644
f 638 646 645
f 639 647 646
f 640 648 647
f 633 641 648
f 642 650 649
f 643 651 650
f 644 652 651
f 645 653 652
f 646 654 653
f 647 655 654
f 648 656 655
f 641 649 656
f 650 658 657
f 651 659 658
f 652 660 659
f 653 661 660
f 654 662 661
f 655 663 662
f 656 664 663
f 649 657 664
f 658 666 665
f 659 667 666
f 660 668 667
f 661 669 668
f 662 670 669
f 663 671 670
f 664 672 671
f 657 665 672
f 666 674 673
f 667 675 674
f 668 676 675
f 669 677 676
f 670 678 677
f 671 679 678
f 672 680 679
f 665 673 680
f 674 682 681
f 675 683 682
f 676 684 683
f 677 685 684
f 678 686 685
f 679 687 686
f 680 688 687
f 673 681 688
f 682 690 689
f 683 691 690
f 684 692 691
f 685 693 692
f 686 694 693
f 687 695 694
f 688 696 695
f 681 689 696
f 690 698 697
f 691 699 698
f 692 700 699
f 693 701 700
f 694 702 701
f 695 703 702
f 696 704 703
f 689 697 704
f 698 706 705
f 699 707 706
f 700 708 707
f 701 709 708
f 702 710 709
f 703 711 710
f 704 712 711
f 697 705 712
f 706 714 713
f 707 715 714
f 708 716 715
f 709 717 716
f 710 718 717
f 711 719 718
f 712 720 719
f 705 713 720
f 714 722 721
f 715 723 722
f 716 724 723
f 717 725 724
f 718 726 725
f 719 727 726
f 720 728 727
f 713 721 728
f 722 730 729
f 723 731 730
f 724 732 731
f 725 733 732
f 726 734 733
f 727 735 734
f 728 736 735
f 721 729 736
f 730 738 737
f 731 739 738
f 732 740 739
f 733 741 740
f 734 742 741
f 735 743 742
f 736 744 743
f 729 737 744
f 738 746 745
f 739 747 746
f 740 748 747
f 741 749 748
f 742 750 749
f 743 751 750
f 744 752 751
f 737 745 752
f 746 754 753
f 747 755 754
f 748 756 755
f 749 757 756
f 750 758 757
f 751 759 758
f 752 760 759
f 745 753 760
f 754 762 761
f 755 763 762
f 756 764 763
f 757 765 764
f 758 766 765
f 759 767 766
f 760 768 767
f 753 761 768
f 761 762 770
f 762 763 771
f 763 764 772
f 765 773 772
f 766 774 773
f 767 775 774
f 768 776 775
f 768 761 769
