# eclipse Orbital3_OrbitLine.obj: Roblox cue frame, recentred on its bounding box
v -0.15298 -0.40097 -0.40757
v -0.14663 -0.40388 -0.40288
v -0.14199 -0.41090 -0.40284
v -0.14177 -0.41792 -0.40747
v -0.14611 -0.42083 -0.41407
v -0.15247 -0.41792 -0.41877
v -0.15711 -0.41090 -0.41881
v -0.15732 -0.40388 -0.41417
v -0.12742 -0.38421 -0.43178
v -0.12113 -0.38716 -0.42703
v -0.11640 -0.39413 -0.42706
v -0.11602 -0.40104 -0.43185
v -0.12019 -0.40384 -0.43861
v -0.12649 -0.40089 -0.44336
v -0.13121 -0.39392 -0.44333
v -0.13159 -0.38701 -0.43854
v -0.10151 -0.36590 -0.45399
v -0.09534 -0.36892 -0.44913
v -0.09046 -0.37578 -0.44929
v -0.08972 -0.38245 -0.45438
v -0.09355 -0.38502 -0.46141
v -0.09972 -0.38199 -0.46628
v -0.10461 -0.37514 -0.46612
v -0.10535 -0.36847 -0.46103
v -0.07519 -0.34600 -0.47427
v -0.06915 -0.34911 -0.46931
v -0.06410 -0.35584 -0.46958
v -0.06300 -0.36225 -0.47493
v -0.06649 -0.36457 -0.48223
v -0.07254 -0.36146 -0.48720
v -0.07759 -0.35472 -0.48692
v -0.07869 -0.34832 -0.48157
v -0.04857 -0.32460 -0.49253
v -0.04266 -0.32781 -0.48747
v -0.03744 -0.33441 -0.48785
v -0.03598 -0.34053 -0.49344
v -0.03913 -0.34258 -0.50097
v -0.04504 -0.33937 -0.50603
v -0.05026 -0.33277 -0.50566
v -0.05172 -0.32665 -0.50006
v -0.02176 -0.30179 -0.50869
v -0.01598 -0.30510 -0.50355
v -0.01060 -0.31156 -0.50401
v -0.00877 -0.31738 -0.50982
v -0.01157 -0.31915 -0.51756
v -0.01735 -0.31583 -0.52270
v -0.02273 -0.30937 -0.52223
v -0.02456 -0.30356 -0.51643
v 0.00511 -0.27766 -0.52268
v 0.01076 -0.28109 -0.51747
v 0.01631 -0.28740 -0.51801
v 0.01851 -0.29290 -0.52400
v 0.01606 -0.29436 -0.53192
v 0.01041 -0.29094 -0.53713
v 0.00486 -0.28463 -0.53659
v 0.00267 -0.27913 -0.53060
v 0.03195 -0.25233 -0.53445
v 0.03746 -0.25587 -0.52917
v 0.04318 -0.26203 -0.52977
v 0.04574 -0.26719 -0.53591
v 0.04364 -0.26834 -0.54399
v 0.03812 -0.26480 -0.54927
v 0.03241 -0.25864 -0.54866
v 0.02985 -0.25348 -0.54252
v 0.05862 -0.22590 -0.54394
v 0.06401 -0.22957 -0.53860
v 0.06988 -0.23556 -0.53926
v 0.07280 -0.24037 -0.54552
v 0.07106 -0.24119 -0.55371
v 0.06567 -0.23752 -0.55904
v 0.05980 -0.23153 -0.55839
v 0.05688 -0.22672 -0.55213
v 0.08502 -0.19848 -0.55111
v 0.09028 -0.20228 -0.54573
v 0.09631 -0.20811 -0.54642
v 0.09959 -0.21256 -0.55277
v 0.09820 -0.21302 -0.56106
v 0.09294 -0.20923 -0.56643
v 0.08690 -0.20340 -0.56574
v 0.08362 -0.19895 -0.55939
v 0.11104 -0.17020 -0.55593
v 0.11616 -0.17412 -0.55052
v 0.12235 -0.17978 -0.55123
v 0.12599 -0.18386 -0.55764
v 0.12493 -0.18397 -0.56599
v 0.11981 -0.18004 -0.57139
v 0.11361 -0.17438 -0.57068
v 0.10998 -0.17030 -0.56428
v 0.13655 -0.14116 -0.55838
v 0.14155 -0.14522 -0.55295
v 0.14790 -0.15071 -0.55367
v 0.15188 -0.15440 -0.56010
v 0.15116 -0.15414 -0.56849
v 0.14616 -0.15008 -0.57391
v 0.13981 -0.14459 -0.57319
v 0.13583 -0.14090 -0.56676
v 0.16146 -0.11150 -0.55845
v 0.16633 -0.11570 -0.55302
v 0.17283 -0.12101 -0.55372
v 0.17715 -0.12431 -0.56015
v 0.17676 -0.12368 -0.56854
v 0.17189 -0.11947 -0.57397
v 0.16539 -0.11416 -0.57326
v 0.16107 -0.11086 -0.56683
v 0.18566 -0.08134 -0.55614
v 0.19040 -0.08569 -0.55071
v 0.19705 -0.09082 -0.55139
v 0.20169 -0.09372 -0.55779
v 0.20162 -0.09270 -0.56614
v 0.19687 -0.08835 -0.57157
v 0.19023 -0.08322 -0.57088
v 0.18559 -0.08032 -0.56449
v 0.20904 -0.05081 -0.55145
v 0.21366 -0.05531 -0.54604
v 0.22044 -0.06026 -0.54669
v 0.22541 -0.06276 -0.55302
v 0.22564 -0.06135 -0.56131
v 0.22102 -0.05685 -0.56672
v 0.21424 -0.05191 -0.56607
v 0.20927 -0.04940 -0.55975
v 0.23150 -0.02005 -0.54442
v 0.23601 -0.02470 -0.53904
v 0.24292 -0.02946 -0.53964
v 0.24819 -0.03156 -0.54586
v 0.24872 -0.02976 -0.55407
v 0.24421 -0.02511 -0.55945
v 0.23730 -0.02034 -0.55885
v 0.23203 -0.01825 -0.55263
v 0.25295 0.01082 -0.53507
v 0.25734 0.00602 -0.52973
v 0.26438 0.00144 -0.53026
v 0.26994 -0.00025 -0.53635
v 0.27076 0.00194 -0.54444
v 0.26636 0.00674 -0.54978
v 0.25932 0.01133 -0.54925
v 0.25377 0.01302 -0.54316
v 0.27329 0.04166 -0.52344
v 0.27758 0.03672 -0.51815
v 0.28474 0.03231 -0.51860
v 0.29057 0.03102 -0.52453
v 0.29166 0.03362 -0.53247
v 0.28737 0.03856 -0.53776
v 0.28021 0.04297 -0.53730
v 0.27438 0.04426 -0.53137
v 0.29244 0.07235 -0.50957
v 0.29662 0.06725 -0.50434
v 0.30389 0.06302 -0.50471
v 0.30999 0.06214 -0.51045
v 0.31134 0.06512 -0.51821
v 0.30715 0.07022 -0.52343
v 0.29988 0.07445 -0.52307
v 0.29378 0.07533 -0.51733
v 0.31031 0.10275 -0.49354
v 0.31440 0.09749 -0.48838
v 0.32178 0.09344 -0.48864
v 0.32811 0.09296 -0.49417
v 0.32970 0.09633 -0.50172
v 0.32561 0.10158 -0.50687
v 0.31823 0.10564 -0.50661
v 0.31190 0.10612 -0.50108
v 0.32683 0.13272 -0.47540
v 0.33084 0.12732 -0.47033
v 0.33830 0.12344 -0.47048
v 0.34486 0.12335 -0.47575
v 0.34667 0.12711 -0.48307
v 0.34267 0.13251 -0.48813
v 0.33520 0.13639 -0.48799
v 0.32864 0.13648 -0.48271
v 0.34193 0.16215 -0.45523
v 0.34585 0.15660 -0.45026
v 0.35341 0.15289 -0.45028
v 0.36017 0.15318 -0.45528
v 0.36219 0.15732 -0.46234
v 0.35827 0.16287 -0.46731
v 0.35071 0.16658 -0.46729
v 0.34394 0.16628 -0.46228
v 0.35555 0.19090 -0.43313
v 0.35939 0.18521 -0.42826
v 0.36702 0.18166 -0.42815
v 0.37397 0.18233 -0.43285
v 0.37617 0.18683 -0.43962
v 0.37233 0.19253 -0.44448
v 0.36469 0.19608 -0.44460
v 0.35774 0.19541 -0.43989
v 0.36761 0.21886 -0.40918
v 0.37139 0.21302 -0.40443
v 0.37909 0.20963 -0.40417
v 0.38620 0.21067 -0.40855
v 0.38857 0.21553 -0.41500
v 0.38479 0.22137 -0.41975
v 0.37709 0.22476 -0.42001
v 0.36998 0.22372 -0.41563
v 0.37808 0.24590 -0.38349
v 0.38180 0.23992 -0.37886
v 0.38956 0.23668 -0.37845
v 0.39682 0.23807 -0.38248
v 0.39932 0.24328 -0.38860
v 0.39561 0.24926 -0.39322
v 0.38785 0.25250 -0.39364
v 0.38059 0.25111 -0.38961
v 0.38691 0.27191 -0.35617
v 0.39057 0.26580 -0.35168
v 0.39838 0.26270 -0.35109
v 0.40576 0.26443 -0.35476
v 0.40839 0.26997 -0.36052
v 0.40473 0.27608 -0.36501
v 0.39692 0.27918 -0.36560
v 0.38954 0.27745 -0.36193
v 0.39406 0.29677 -0.32733
v 0.39768 0.29053 -0.32298
v 0.40552 0.28757 -0.32223
v 0.41300 0.28963 -0.32550
v 0.41573 0.29549 -0.33089
v 0.41212 0.30173 -0.33524
v 0.40427 0.30469 -0.33600
v 0.39679 0.30263 -0.33272
v 0.39950 0.32038 -0.29710
v 0.40308 0.31402 -0.29290
v 0.41096 0.31119 -0.29197
v 0.41851 0.31355 -0.29484
v 0.42132 0.31972 -0.29984
v 0.41774 0.32608 -0.30403
v 0.40986 0.32891 -0.30497
v 0.40231 0.32655 -0.30209
v 0.40320 0.34264 -0.26561
v 0.40676 0.33616 -0.26157
v 0.41465 0.33346 -0.26045
v 0.42226 0.33610 -0.26290
v 0.42512 0.34256 -0.26748
v 0.42157 0.34903 -0.27152
v 0.41368 0.35174 -0.27264
v 0.40607 0.34909 -0.27019
v 0.40516 0.36345 -0.23299
v 0.40869 0.35687 -0.22912
v 0.41659 0.35427 -0.22780
v 0.42423 0.35719 -0.22982
v 0.42713 0.36391 -0.23398
v 0.42359 0.37050 -0.23785
v 0.41569 0.37309 -0.23916
v 0.40806 0.37017 -0.23715
v 0.40535 0.38273 -0.19938
v 0.40888 0.37604 -0.19568
v 0.41678 0.37355 -0.19417
v 0.42442 0.37671 -0.19574
v 0.42733 0.38368 -0.19946
v 0.42381 0.39037 -0.20316
v 0.41591 0.39286 -0.20467
v 0.40826 0.38970 -0.20310
v 0.40379 0.40039 -0.16493
v 0.40732 0.39360 -0.16141
v 0.41520 0.39120 -0.15970
v 0.42283 0.39460 -0.16080
v 0.42573 0.40179 -0.16407
v 0.42220 0.40858 -0.16759
v 0.41432 0.41098 -0.16930
v 0.40669 0.40758 -0.16820
v 0.40047 0.41635 -0.12979
v 0.40401 0.40948 -0.12644
v 0.41187 0.40716 -0.12453
v 0.41946 0.41076 -0.12516
v 0.42232 0.41816 -0.12797
v 0.41879 0.42503 -0.13131
v 0.41092 0.42735 -0.13323
v 0.40334 0.42375 -0.13260
v 0.39542 0.43055 -0.09409
v 0.39897 0.42360 -0.09094
v 0.40681 0.42136 -0.08882
v 0.41433 0.42514 -0.08897
v 0.41714 0.43272 -0.09132
v 0.41358 0.43967 -0.09447
v 0.40575 0.44191 -0.09659
v 0.39823 0.43814 -0.09644
v 0.38865 0.44293 -0.05801
v 0.39223 0.43591 -0.05504
v 0.40002 0.43373 -0.05271
v 0.40746 0.43766 -0.05239
v 0.41018 0.44540 -0.05426
v 0.40660 0.45242 -0.05723
v 0.39881 0.45460 -0.05955
v 0.39137 0.45067 -0.05988
v 0.38019 0.45343 -0.02168
v 0.38381 0.44635 -0.01891
v 0.39155 0.44422 -0.01637
v 0.39888 0.44829 -0.01557
v 0.40150 0.45616 -0.01696
v 0.39788 0.46324 -0.01974
v 0.39014 0.46537 -0.02227
v 0.38281 0.46131 -0.02308
v 0.37008 0.46201 0.01472
v 0.37374 0.45488 0.01731
v 0.38142 0.45279 0.02005
v 0.38862 0.45696 0.02134
v 0.39112 0.46495 0.02042
v 0.38746 0.47207 0.01784
v 0.37978 0.47416 0.01510
v 0.37258 0.46999 0.01381
v 0.35836 0.46863 0.05106
v 0.36207 0.46146 0.05345
v 0.36969 0.45940 0.05640
v 0.37673 0.46365 0.05817
v 0.37909 0.47172 0.05773
v 0.37537 0.47888 0.05534
v 0.36776 0.48095 0.05239
v 0.36071 0.47670 0.05062
v 0.34508 0.47326 0.08716
v 0.34886 0.46607 0.08936
v 0.35639 0.46402 0.09251
v 0.36327 0.46832 0.09476
v 0.36546 0.47645 0.09480
v 0.36168 0.48365 0.09260
v 0.35415 0.48569 0.08945
v 0.34727 0.48139 0.08720
v 0.33030 0.47589 0.12288
v 0.33415 0.46867 0.12489
v 0.34160 0.46664 0.12824
v 0.34828 0.47096 0.13097
v 0.35029 0.47913 0.13147
v 0.34644 0.48634 0.12946
v 0.33899 0.48838 0.12612
v 0.33230 0.48405 0.12339
v 0.31408 0.47650 0.15807
v 0.31801 0.46927 0.15989
v 0.32537 0.46723 0.16343
v 0.33184 0.47156 0.16663
v 0.33364 0.47973 0.16760
v 0.32971 0.48695 0.16578
v 0.32236 0.48899 0.16223
v 0.31588 0.48466 0.15904
v 0.29649 0.47508 0.19257
v 0.30051 0.46787 0.19420
v 0.30776 0.46580 0.19793
v 0.31401 0.47011 0.20159
v 0.31559 0.47825 0.20301
v 0.31158 0.48547 0.20138
v 0.30432 0.48753 0.19764
v 0.29807 0.48323 0.19399
v 0.27761 0.47166 0.22623
v 0.28172 0.46445 0.22768
v 0.28887 0.46236 0.23160
v 0.29487 0.46661 0.23570
v 0.29621 0.47471 0.23757
v 0.29210 0.48191 0.23612
v 0.28495 0.48400 0.23220
v 0.27895 0.47975 0.22810
v 0.25751 0.46623 0.25891
v 0.26172 0.45905 0.26019
v 0.26876 0.45692 0.26429
v 0.27451 0.46109 0.26881
v 0.27559 0.46912 0.27112
v 0.27138 0.47630 0.26984
v 0.26434 0.47842 0.26574
v 0.25860 0.47425 0.26122
v 0.23629 0.45883 0.29048
v 0.24061 0.45168 0.29158
v 0.24753 0.44950 0.29585
v 0.25300 0.45357 0.30079
v 0.25381 0.46149 0.30351
v 0.24950 0.46864 0.30242
v 0.24258 0.47082 0.29815
v 0.23711 0.46675 0.29320
v 0.21403 0.44948 0.32079
v 0.21847 0.44238 0.32172
v 0.22526 0.44014 0.32616
v 0.23044 0.44407 0.33150
v 0.23097 0.45188 0.33462
v 0.22654 0.45897 0.33370
v 0.21974 0.46121 0.32926
v 0.21456 0.45728 0.32391
v 0.19083 0.43822 0.34972
v 0.19539 0.43118 0.35049
v 0.20205 0.42887 0.35508
v 0.20693 0.43265 0.36081
v 0.20717 0.44030 0.36431
v 0.20262 0.44734 0.36354
v 0.19595 0.44965 0.35895
v 0.19107 0.44587 0.35323
v 0.16679 0.42511 0.37714
v 0.17147 0.41814 0.37775
v 0.17801 0.41575 0.38249
v 0.18257 0.41935 0.38858
v 0.18250 0.42682 0.39245
v 0.17782 0.43380 0.39184
v 0.17129 0.43618 0.38710
v 0.16672 0.43259 0.38101
v 0.14201 0.41020 0.40293
v 0.14682 0.40330 0.40340
v 0.15322 0.40082 0.40828
v 0.15747 0.40422 0.41470
v 0.15707 0.41150 0.41892
v 0.15227 0.41839 0.41845
v 0.14587 0.42087 0.41358
v 0.14162 0.41748 0.40715
v 0.11660 0.39355 0.42699
v 0.12154 0.38674 0.42732
v 0.12780 0.38416 0.43232
v 0.13172 0.38733 0.43907
v 0.13100 0.39439 0.44360
v 0.12606 0.40120 0.44327
v 0.11980 0.40377 0.43827
v 0.11588 0.40061 0.43153
v 0.09066 0.37524 0.44921
v 0.09574 0.36852 0.44941
v 0.10186 0.36584 0.45453
v 0.10545 0.36876 0.46157
v 0.10439 0.37557 0.46640
v 0.09932 0.38229 0.46620
v 0.09319 0.38497 0.46108
v 0.08961 0.38205 0.45405
v 0.06431 0.35533 0.46950
v 0.06953 0.34873 0.46958
v 0.07551 0.34593 0.47480
v 0.07875 0.34858 0.48211
v 0.07736 0.35513 0.48721
v 0.07215 0.36174 0.48713
v 0.06616 0.36453 0.48191
v 0.06292 0.36188 0.47460
v 0.03767 0.33393 0.48776
v 0.04302 0.32744 0.48774
v 0.04886 0.32451 0.49305
v 0.05176 0.32688 0.50060
v 0.05002 0.33314 0.50595
v 0.04467 0.33964 0.50597
v 0.03883 0.34256 0.50066
v 0.03593 0.34019 0.49311
v 0.01083 0.31112 0.50393
v 0.01633 0.30474 0.50381
v 0.02203 0.30169 0.50920
v 0.02458 0.30375 0.51696
v 0.02250 0.30971 0.52253
v 0.01699 0.31608 0.52265
v 0.01130 0.31913 0.51725
v 0.00875 0.31708 0.50950
v -0.01608 0.28699 0.51792
v -0.01043 0.28075 0.51772
v -0.00488 0.27756 0.52318
v -0.00267 0.27929 0.53112
v -0.00510 0.28493 0.53688
v -0.01075 0.29117 0.53709
v -0.01630 0.29436 0.53162
v -0.01851 0.29263 0.52368
v -0.04294 0.26165 0.52969
v -0.03715 0.25555 0.52941
v -0.03174 0.25222 0.53494
v -0.02988 0.25361 0.54303
v -0.03266 0.25892 0.54895
v -0.03845 0.26502 0.54923
v -0.04386 0.26835 0.54370
v -0.04572 0.26695 0.53561
v -0.06964 0.23521 0.53918
v -0.06371 0.22925 0.53884
v -0.05844 0.22578 0.54441
v -0.05692 0.22682 0.55262
v -0.06004 0.23177 0.55867
v -0.06598 0.23773 0.55901
v -0.07125 0.24121 0.55345
v -0.07277 0.24016 0.54523
v -0.09608 0.20779 0.54635
v -0.08999 0.20198 0.54596
v -0.08486 0.19835 0.55156
v -0.08368 0.19903 0.55987
v -0.08715 0.20361 0.56602
v -0.09323 0.20942 0.56641
v -0.09836 0.21305 0.56081
v -0.09954 0.21237 0.55250
v -0.12212 0.17949 0.55117
v -0.11589 0.17384 0.55074
v -0.11090 0.17006 0.55636
v -0.11005 0.17036 0.56473
v -0.11386 0.17456 0.57095
v -0.12008 0.18022 0.57138
v -0.12508 0.18400 0.56576
v -0.12592 0.18370 0.55739
v -0.14767 0.15045 0.55362
v -0.14130 0.14496 0.55317
v -0.13643 0.14101 0.55879
v -0.13591 0.14093 0.56720
v -0.14005 0.14475 0.57345
v -0.14642 0.15024 0.57390
v -0.15129 0.15418 0.56828
v -0.15180 0.15427 0.55987
v -0.17260 0.12078 0.55368
v -0.16610 0.11545 0.55322
v -0.16136 0.11135 0.55884
v -0.16116 0.11087 0.56725
v -0.16562 0.11429 0.57351
v -0.17213 0.11962 0.57397
v -0.17687 0.12372 0.56835
v -0.17706 0.12420 0.55995
v -0.19683 0.09061 0.55136
v -0.19019 0.08545 0.55091
v -0.18557 0.08118 0.55651
v -0.18568 0.08030 0.56488
v -0.19046 0.08333 0.57112
v -0.19710 0.08848 0.57158
v -0.20172 0.09275 0.56598
v -0.20160 0.09363 0.55760
v -0.22024 0.06007 0.54667
v -0.21346 0.05509 0.54624
v -0.20896 0.05066 0.55181
v -0.20938 0.04937 0.56012
v -0.21445 0.05199 0.56630
v -0.22123 0.05697 0.56674
v -0.22572 0.06140 0.56117
v -0.22531 0.06269 0.55286
v -0.24272 0.02930 0.53963
v -0.23582 0.02449 0.53923
v -0.23144 0.01989 0.54475
v -0.23214 0.01820 0.55297
v -0.23751 0.02040 0.55907
v -0.24441 0.02521 0.55947
v -0.24879 0.02981 0.55395
v -0.24809 0.03150 0.54573
v -0.26420 -0.00159 0.53027
v -0.25718 -0.00622 0.52991
v -0.25290 -0.01098 0.53537
v -0.25387 -0.01308 0.54347
v -0.25952 -0.01129 0.54945
v -0.26654 -0.00665 0.54981
v -0.27082 -0.00189 0.54434
v -0.26985 0.00021 0.53625
v -0.28457 -0.03244 0.51862
v -0.27743 -0.03690 0.51832
v -0.27325 -0.04182 0.52372
v -0.27448 -0.04433 0.53166
v -0.28039 -0.04295 0.53749
v -0.28753 -0.03849 0.53780
v -0.29171 -0.03357 0.53239
v -0.29048 -0.03106 0.52445
v -0.30374 -0.06314 0.50474
v -0.29649 -0.06742 0.50451
v -0.29241 -0.07250 0.50983
v -0.29388 -0.07541 0.51759
v -0.30004 -0.07444 0.52325
v -0.30729 -0.07017 0.52348
v -0.31137 -0.06508 0.51816
v -0.30990 -0.06217 0.51039
v -0.32164 -0.09354 0.48869
v -0.31429 -0.09765 0.48854
v -0.31029 -0.10289 0.49377
v -0.31198 -0.10620 0.50132
v -0.31838 -0.10564 0.50677
v -0.32573 -0.10154 0.50692
v -0.32973 -0.09630 0.50169
v -0.32803 -0.09298 0.49413
v -0.33818 -0.12353 0.47053
v -0.33074 -0.12746 0.47048
v -0.32682 -0.13286 0.47561
v -0.32872 -0.13657 0.48292
v -0.33533 -0.13641 0.48814
v -0.34278 -0.13248 0.48819
v -0.34670 -0.12708 0.48306
v -0.34479 -0.12337 0.47574
v -0.35331 -0.15297 0.45035
v -0.34577 -0.15672 0.45040
v -0.34192 -0.16228 0.45542
v -0.34401 -0.16637 0.46248
v -0.35082 -0.16661 0.46743
v -0.35835 -0.16285 0.46737
v -0.36220 -0.15730 0.46235
v -0.36011 -0.15321 0.45530
v -0.36694 -0.18173 0.42822
v -0.35933 -0.18532 0.42839
v -0.35554 -0.19102 0.43330
v -0.35780 -0.19549 0.44006
v -0.36478 -0.19612 0.44473
v -0.37240 -0.19253 0.44455
v -0.37618 -0.18683 0.43965
v -0.37392 -0.18236 0.43289
v -0.37903 -0.20969 0.40425
v -0.37134 -0.21312 0.40455
v -0.36761 -0.21896 0.40933
v -0.37002 -0.22380 0.41578
v -0.37716 -0.22480 0.42013
v -0.38484 -0.22138 0.41983
v -0.38858 -0.21554 0.41506
v -0.38617 -0.21070 0.40860
v -0.38952 -0.23674 0.37854
v -0.38177 -0.24000 0.37898
v -0.37809 -0.24599 0.38362
v -0.38062 -0.25118 0.38974
v -0.38790 -0.25255 0.39376
v -0.39564 -0.24929 0.39331
v -0.39933 -0.24331 0.38867
v -0.39679 -0.23811 0.38255
v -0.39837 -0.26276 0.35119
v -0.39056 -0.26586 0.35179
v -0.38692 -0.27198 0.35628
v -0.38956 -0.27751 0.36205
v -0.39695 -0.27923 0.36570
v -0.40475 -0.27613 0.36511
v -0.40840 -0.27001 0.36061
v -0.40575 -0.26448 0.35485
v -0.40553 -0.28763 0.32233
v -0.39769 -0.29058 0.32308
v -0.39407 -0.29682 0.32743
v -0.39679 -0.30268 0.33282
v -0.40427 -0.30474 0.33610
v -0.41212 -0.30178 0.33534
v -0.41574 -0.29554 0.33100
v -0.41301 -0.28968 0.32561
v -0.41099 -0.31124 0.29208
v -0.40310 -0.31406 0.29300
v -0.39951 -0.32041 0.29719
v -0.40230 -0.32659 0.30218
v -0.40984 -0.32896 0.30507
v -0.41772 -0.32615 0.30414
v -0.42132 -0.31979 0.29996
v -0.41853 -0.31362 0.29496
v -0.41470 -0.33351 0.26056
v -0.40680 -0.33619 0.26166
v -0.40321 -0.34265 0.26568
v -0.40604 -0.34912 0.27027
v -0.41363 -0.35180 0.27274
v -0.42154 -0.34912 0.27164
v -0.42513 -0.34265 0.26762
v -0.42230 -0.33619 0.26303
v -0.41667 -0.35433 0.22791
v -0.40875 -0.35688 0.22920
v -0.40517 -0.36345 0.23305
v -0.40801 -0.37018 0.23722
v -0.41562 -0.37314 0.23926
v -0.42354 -0.37059 0.23798
v -0.42713 -0.36403 0.23412
v -0.42429 -0.35729 0.22995
v -0.41688 -0.37361 0.19428
v -0.40896 -0.37604 0.19575
v -0.40536 -0.38270 0.19944
v -0.40820 -0.38969 0.20317
v -0.41581 -0.39291 0.20477
v -0.42374 -0.39048 0.20329
v -0.42733 -0.38382 0.19961
v -0.42449 -0.37683 0.19587
v -0.41533 -0.39127 0.15980
v -0.40741 -0.39359 0.16147
v -0.40380 -0.40033 0.16498
v -0.40661 -0.40756 0.16827
v -0.41420 -0.41102 0.16941
v -0.42212 -0.40870 0.16774
v -0.42573 -0.40195 0.16423
v -0.42292 -0.39473 0.16094
v -0.41202 -0.40723 0.12462
v -0.40412 -0.40945 0.12650
v -0.40049 -0.41627 0.12983
v -0.40325 -0.42370 0.13267
v -0.41079 -0.42739 0.13334
v -0.41869 -0.42517 0.13147
v -0.42232 -0.41835 0.12813
v -0.41956 -0.41092 0.12530
v -0.40698 -0.42143 0.08890
v -0.39910 -0.42356 0.09098
v -0.39543 -0.43045 0.09414
v -0.39812 -0.43807 0.09651
v -0.40559 -0.44195 0.09672
v -0.41346 -0.43982 0.09463
v -0.41713 -0.43293 0.09148
v -0.41444 -0.42531 0.08911
v -0.40021 -0.43381 0.05278
v -0.39237 -0.43585 0.05508
v -0.38866 -0.44280 0.05805
v -0.39125 -0.45058 0.05996
v -0.39863 -0.45463 0.05969
v -0.40647 -0.45259 0.05740
v -0.41018 -0.44564 0.05442
v -0.40759 -0.43786 0.05251
v -0.39176 -0.44430 0.01643
v -0.38397 -0.44628 0.01894
v -0.38021 -0.45328 0.02173
v -0.38268 -0.46119 0.02317
v -0.38994 -0.46539 0.02242
v -0.39773 -0.46342 0.01991
v -0.40149 -0.45642 0.01712
v -0.39902 -0.44851 0.01568
v -0.38165 -0.45288 -0.02001
v -0.37392 -0.45480 -0.01729
v -0.37010 -0.46183 -0.01467
v -0.37244 -0.46986 -0.01370
v -0.37955 -0.47418 -0.01493
v -0.38729 -0.47227 -0.01765
v -0.39110 -0.46523 -0.02027
v -0.38877 -0.45720 -0.02124
v -0.36994 -0.45949 -0.05637
v -0.36227 -0.46136 -0.05344
v -0.35839 -0.46843 -0.05100
v -0.36056 -0.47654 -0.05049
v -0.36752 -0.48096 -0.05221
v -0.37519 -0.47909 -0.05514
v -0.37907 -0.47203 -0.05758
v -0.37689 -0.46391 -0.05809
v -0.35666 -0.46412 -0.09251
v -0.34907 -0.46595 -0.08936
v -0.34511 -0.47303 -0.08710
v -0.34711 -0.48121 -0.08705
v -0.35389 -0.48570 -0.08925
v -0.36148 -0.48387 -0.09240
v -0.36543 -0.47679 -0.09466
v -0.36344 -0.46861 -0.09470
v -0.34188 -0.46674 -0.12826
v -0.33438 -0.46855 -0.12490
v -0.33034 -0.47564 -0.12281
v -0.33214 -0.48385 -0.12322
v -0.33871 -0.48838 -0.12589
v -0.34622 -0.48657 -0.12925
v -0.35025 -0.47948 -0.13134
v -0.34846 -0.47127 -0.13093
v -0.32566 -0.46734 -0.16347
v -0.31826 -0.46913 -0.15990
v -0.31413 -0.47622 -0.15798
v -0.31571 -0.48445 -0.15885
v -0.32207 -0.48899 -0.16198
v -0.32947 -0.48719 -0.16556
v -0.33360 -0.48011 -0.16747
v -0.33202 -0.47188 -0.16661
v -0.30808 -0.46592 -0.19800
v -0.30077 -0.46771 -0.19422
v -0.29656 -0.47479 -0.19247
v -0.29790 -0.48299 -0.19377
v -0.30401 -0.48753 -0.19737
v -0.31132 -0.48573 -0.20115
v -0.31554 -0.47866 -0.20290
v -0.31419 -0.47045 -0.20160
v -0.28919 -0.46248 -0.23169
v -0.28200 -0.46428 -0.22771
v -0.27769 -0.47134 -0.22612
v -0.27878 -0.47950 -0.22785
v -0.28464 -0.48400 -0.23190
v -0.29183 -0.48219 -0.23588
v -0.29614 -0.47514 -0.23747
v -0.29505 -0.46697 -0.23574
v -0.26910 -0.45704 -0.26441
v -0.26202 -0.45887 -0.26022
v -0.25761 -0.46589 -0.25879
v -0.25843 -0.47399 -0.26094
v -0.26402 -0.47842 -0.26542
v -0.27109 -0.47659 -0.26960
v -0.27551 -0.46956 -0.27103
v -0.27468 -0.46147 -0.26888
v -0.24787 -0.44962 -0.29600
v -0.24093 -0.45149 -0.29162
v -0.23640 -0.45847 -0.29034
v -0.23694 -0.46647 -0.29289
v -0.24224 -0.47081 -0.29779
v -0.24919 -0.46894 -0.30216
v -0.25371 -0.46196 -0.30345
v -0.25317 -0.45396 -0.30090
v -0.22561 -0.44025 -0.32634
v -0.21880 -0.44217 -0.32178
v -0.21416 -0.44910 -0.32063
v -0.21441 -0.45699 -0.32357
v -0.21940 -0.46121 -0.32887
v -0.22622 -0.45929 -0.33343
v -0.23086 -0.45236 -0.33458
v -0.23061 -0.44447 -0.33164
v -0.20241 -0.42898 -0.35529
v -0.19573 -0.43096 -0.35055
v -0.19098 -0.43783 -0.34954
v -0.19092 -0.44557 -0.35285
v -0.19560 -0.44965 -0.35853
v -0.20228 -0.44767 -0.36327
v -0.20703 -0.44080 -0.36428
v -0.20709 -0.43306 -0.36098
v -0.17836 -0.41585 -0.38274
v -0.17183 -0.41790 -0.37783
v -0.16696 -0.42470 -0.37694
v -0.16659 -0.43228 -0.38059
v -0.17094 -0.43619 -0.38665
v -0.17747 -0.43414 -0.39155
v -0.18234 -0.42734 -0.39244
v -0.18271 -0.41976 -0.38879
v -0.15341 -0.40082 -0.40871
v -0.14696 -0.40291 -0.40372
v -0.14203 -0.40968 -0.40289
v -0.14149 -0.41717 -0.40671
v -0.14568 -0.42098 -0.41294
v -0.15213 -0.41889 -0.41793
v -0.15707 -0.41212 -0.41876
v -0.15760 -0.40464 -0.41493
f 1 10 9
f 3 10 2
f 4 11 3
f 5 12 4
f 6 13 5
f 6 15 14
f 7 16 15
f 8 9 16
f 9 18 17
f 10 19 18
f 11 20 19
f 12 21 20
f 13 22 21
f 14 23 22
f 15 24 23
f 16 17 24
f 17 26 25
f 18 27 26
f 19 28 27
f 20 29 28
f 21 30 29
f 22 31 30
f 23 32 31
f 24 25 32
f 25 34 33
f 26 35 34
f 27 36 35
f 28 37 36
f 29 38 37
f 30 39 38
f 31 40 39
f 32 33 40
f 33 42 41
f 34 43 42
f 35 44 43
f 36 45 44
f 37 46 45
f 38 47 46
f 39 48 47
f 40 41 48
f 41 50 49
f 42 51 50
f 43 52 51
f 44 53 52
f 45 54 53
f 46 55 54
f 47 56 55
f 48 49 56
f 49 58 57
f 50 59 58
f 51 60 59
f 52 61 60
f 53 62 61
f 54 63 62
f 55 64 63
f 56 57 64
f 57 66 65
f 58 67 66
f 59 68 67
f 60 69 68
f 61 70 69
f 62 71 70
f 63 72 71
f 64 65 72
f 65 74 73
f 66 75 74
f 67 76 75
f 68 77 76
f 69 78 77
f 70 79 78
f 71 80 79
f 72 73 80
f 73 82 81
f 74 83 82
f 75 84 83
f 76 85 84
f 77 86 85
f 78 87 86
f 79 88 87
f 80 81 88
f 81 90 89
f 82 91 90
f 83 92 91
f 84 93 92
f 85 94 93
f 86 95 94
f 87 96 95
f 88 89 96
f 89 98 97
f 90 99 98
f 91 100 99
f 92 101 100
f 93 102 101
f 94 103 102
f 95 104 103
f 96 97 104
f 97 106 105
f 98 107 106
f 99 108 107
f 100 109 108
f 101 110 109
f 102 111 110
f 103 112 111
f 104 105 112
f 105 114 113
f 106 115 114
f 107 116 115
f 108 117 116
f 109 118 117
f 110 119 118
f 111 120 119
f 112 113 120
f 113 122 121
f 114 123 122
f 115 124 123
f 116 125 124
f 117 126 125
f 118 127 126
f 119 128 127
f 120 121 128
f 121 130 129
f 122 131 130
f 123 132 131
f 124 133 132
f 125 134 133
f 126 135 134
f 127 136 135
f 128 129 136
f 129 138 137
f 130 139 138
f 131 140 139
f 132 141 140
f 133 142 141
f 134 143 142
f 135 144 143
f 136 137 144
f 137 146 145
f 138 147 146
f 139 148 147
f 140 149 148
f 141 150 149
f 142 151 150
f 143 152 151
f 144 145 152
f 145 154 153
f 146 155 154
f 147 156 155
f 148 157 156
f 149 158 157
f 150 159 158
f 151 160 159
f 152 153 160
f 153 162 161
f 154 163 162
f 155 164 163
f 156 165 164
f 157 166 165
f 158 167 166
f 159 168 167
f 160 161 168
f 161 170 169
f 162 171 170
f 163 172 171
f 164 173 172
f 165 174 173
f 166 175 174
f 167 176 175
f 168 169 176
f 169 178 177
f 170 179 178
f 171 180 179
f 172 181 180
f 173 182 181
f 174 183 182
f 175 184 183
f 176 177 184
f 177 186 185
f 178 187 186
f 179 188 187
f 180 189 188
f 181 190 189
f 182 191 190
f 183 192 191
f 184 185 192
f 185 194 193
f 186 195 194
f 187 196 195
f 188 197 196
f 189 198 197
f 190 199 198
f 191 200 199
f 192 193 200
f 193 202 201
f 194 203 202
f 195 204 203
f 196 205 204
f 197 206 205
f 198 207 206
f 199 208 207
f 200 201 208
f 201 210 209
f 202 211 210
f 203 212 211
f 204 213 212
f 205 214 213
f 206 215 214
f 207 216 215
f 208 209 216
f 209 218 217
f 210 219 218
f 211 220 219
f 212 221 220
f 213 222 221
f 214 223 222
f 215 224 223
f 216 217 224
f 217 226 225
f 218 227 226
f 219 228 227
f 220 229 228
f 221 230 229
f 222 231 230
f 223 232 231
f 224 225 232
f 225 234 233
f 226 235 234
f 227 236 235
f 228 237 236
f 229 238 237
f 230 239 238
f 231 240 239
f 232 233 240
f 233 242 241
f 234 243 242
f 235 244 243
f 236 245 244
f 237 246 245
f 238 247 246
f 239 248 247
f 240 241 248
f 241 250 249
f 242 251 250
f 243 252 251
f 244 253 252
f 245 254 253
f 246 255 254
f 247 256 255
f 248 249 256
f 249 258 257
f 250 259 258
f 251 260 259
f 252 261 260
f 253 262 261
f 254 263 262
f 255 264 263
f 256 257 264
f 257 266 265
f 258 267 266
f 259 268 267
f 260 269 268
f 261 270 269
f 262 271 270
f 263 272 271
f 264 265 272
f 265 274 273
f 266 275 274
f 267 276 275
f 268 277 276
f 269 278 277
f 270 279 278
f 271 280 279
f 272 273 280
f 273 282 281
f 274 283 282
f 275 284 283
f 276 285 284
f 277 286 285
f 278 287 286
f 279 288 287
f 280 281 288
f 281 290 289
f 282 291 290
f 283 292 291
f 284 293 292
f 285 294 293
f 286 295 294
f 287 296 295
f 288 289 296
f 289 298 297
f 290 299 298
f 291 300 299
f 292 301 300
f 293 302 301
f 294 303 302
f 295 304 303
f 296 297 304
f 297 306 305
f 298 307 306
f 299 308 307
f 300 309 308
f 301 310 309
f 302 311 310
f 303 312 311
f 304 305 312
f 305 314 313
f 306 315 314
f 307 316 315
f 308 317 316
f 309 318 317
f 310 319 318
f 311 320 319
f 312 313 320
f 313 322 321
f 314 323 322
f 315 324 323
f 316 325 324
f 317 326 325
f 318 327 326
f 319 328 327
f 320 321 328
f 321 330 329
f 322 331 330
f 323 332 331
f 324 333 332
f 325 334 333
f 326 335 334
f 327 336 335
f 328 329 336
f 329 338 337
f 330 339 338
f 331 340 339
f 332 341 340
f 333 342 341
f 334 343 342
f 335 344 343
f 336 337 344
f 337 346 345
f 338 347 346
f 339 348 347
f 340 349 348
f 341 350 349
f 342 351 350
f 343 352 351
f 344 345 352
f 345 354 353
f 346 355 354
f 347 356 355
f 348 357 356
f 349 358 357
f 350 359 358
f 351 360 359
f 352 353 360
f 353 362 361
f 354 363 362
f 355 364 363
f 356 365 364
f 357 366 365
f 358 367 366
f 359 368 367
f 360 361 368
f 361 370 369
f 362 371 370
f 363 372 371
f 364 373 372
f 365 374 373
f 366 375 374
f 367 376 375
f 368 369 376
f 369 378 377
f 370 379 378
f 371 380 379
f 372 381 380
f 373 382 381
f 374 383 382
f 375 384 383
f 376 377 384
f 377 386 385
f 378 387 386
f 379 388 387
f 380 389 388
f 381 390 389
f 382 391 390
f 383 392 391
f 384 385 392
f 385 394 393
f 386 395 394
f 387 396 395
f 388 397 396
f 389 398 397
f 390 399 398
f 391 400 399
f 392 393 400
f 393 402 401
f 394 403 402
f 395 404 403
f 396 405 404
f 397 406 405
f 398 407 406
f 399 408 407
f 400 401 408
f 401 410 409
f 402 411 410
f 403 412 411
f 404 413 412
f 405 414 413
f 406 415 414
f 407 416 415
f 408 409 416
f 409 418 417
f 410 419 418
f 411 420 419
f 412 421 420
f 413 422 421
f 414 423 422
f 415 424 423
f 416 417 424
f 417 426 425
f 418 427 426
f 419 428 427
f 420 429 428
f 421 430 429
f 422 431 430
f 423 432 431
f 424 425 432
f 425 434 433
f 426 435 434
f 427 436 435
f 428 437 436
f 429 438 437
f 430 439 438
f 431 440 439
f 432 433 440
f 433 442 441
f 434 443 442
f 435 444 443
f 436 445 444
f 437 446 445
f 438 447 446
f 439 448 447
f 440 441 448
f 441 450 449
f 442 451 450
f 443 452 451
f 444 453 452
f 445 454 453
f 446 455 454
f 447 456 455
f 448 449 456
f 449 458 457
f 450 459 458
f 451 460 459
f 452 461 460
f 453 462 461
f 454 463 462
f 455 464 463
f 456 457 464
f 457 466 465
f 458 467 466
f 459 468 467
f 460 469 468
f 461 470 469
f 462 471 470
f 463 472 471
f 464 465 472
f 465 474 473
f 466 475 474
f 467 476 475
f 468 477 476
f 469 478 477
f 470 479 478
f 471 480 479
f 472 473 480
f 473 482 481
f 474 483 482
f 475 484 483
f 476 485 484
f 477 486 485
f 478 487 486
f 479 488 487
f 480 481 488
f 481 490 489
f 482 491 490
f 483 492 491
f 484 493 492
f 485 494 493
f 486 495 494
f 487 496 495
f 488 489 496
f 489 498 497
f 490 499 498
f 491 500 499
f 492 501 500
f 493 502 501
f 494 503 502
f 495 504 503
f 496 497 504
f 497 506 505
f 498 507 506
f 499 508 507
f 500 509 508
f 501 510 509
f 502 511 510
f 503 512 511
f 504 505 512
f 505 514 513
f 506 515 514
f 507 516 515
f 508 517 516
f 509 518 517
f 510 519 518
f 511 520 519
f 512 513 520
f 513 522 521
f 514 523 522
f 515 524 523
f 516 525 524
f 517 526 525
f 518 527 526
f 519 528 527
f 520 521 528
f 521 530 529
f 522 531 530
f 523 532 531
f 524 533 532
f 525 534 533
f 526 535 534
f 527 536 535
f 528 529 536
f 529 538 537
f 530 539 538
f 531 540 539
f 532 541 540
f 533 542 541
f 534 543 542
f 535 544 543
f 536 537 544
f 537 546 545
f 538 547 546
f 539 548 547
f 540 549 548
f 541 550 549
f 542 551 550
f 543 552 551
f 544 545 552
f 545 554 553
f 546 555 554
f 547 556 555
f 548 557 556
f 549 558 557
f 550 559 558
f 551 560 559
f 552 553 560
f 553 562 561
f 554 563 562
f 555 564 563
f 556 565 564
f 557 566 565
f 558 567 566
f 559 568 567
f 560 561 568
f 561 570 569
f 562 571 570
f 563 572 571
f 564 573 572
f 565 574 573
f 566 575 574
f 567 576 575
f 568 569 576
f 569 578 577
f 570 579 578
f 571 580 579
f 572 581 580
f 573 582 581
f 574 583 582
f 575 584 583
f 576 577 584
f 577 586 585
f 578 587 586
f 579 588 587
f 580 589 588
f 581 590 589
f 582 591 590
f 583 592 591
f 584 585 592
f 585 594 593
f 586 595 594
f 587 596 595
f 588 597 596
f 589 598 597
f 590 599 598
f 591 600 599
f 592 593 600
f 593 602 601
f 594 603 602
f 595 604 603
f 596 605 604
f 597 606 605
f 598 607 606
f 599 608 607
f 600 601 608
f 601 610 609
f 602 611 610
f 603 612 611
f 604 613 612
f 605 614 613
f 606 615 614
f 607 616 615
f 608 609 616
f 609 618 617
f 610 619 618
f 611 620 619
f 612 621 620
f 613 622 621
f 614 623 622
f 615 624 623
f 616 617 624
f 617 626 625
f 618 627 626
f 619 628 627
f 620 629 628
f 621 630 629
f 622 631 630
f 623 632 631
f 624 625 632
f 625 634 633
f 626 635 634
f 627 636 635
f 628 637 636
f 629 638 637
f 630 639 638
f 631 640 639
f 632 633 640
f 633 642 641
f 634 643 642
f 635 644 643
f 636 645 644
f 637 646 645
f 638 647 646
f 639 648 647
f 640 641 648
f 641 650 649
f 642 651 650
f 643 652 651
f 644 653 652
f 645 654 653
f 646 655 654
f 647 656 655
f 648 649 656
f 649 658 657
f 650 659 658
f 651 660 659
f 652 661 660
f 653 662 661
f 654 663 662
f 655 664 663
f 656 657 664
f 657 666 665
f 658 667 666
f 659 668 667
f 660 669 668
f 661 670 669
f 662 671 670
f 663 672 671
f 664 665 672
f 665 674 673
f 666 675 674
f 667 676 675
f 668 677 676
f 669 678 677
f 670 679 678
f 671 680 679
f 672 673 680
f 673 682 681
f 674 683 682
f 675 684 683
f 676 685 684
f 677 686 685
f 678 687 686
f 679 688 687
f 680 681 688
f 681 690 689
f 682 691 690
f 683 692 691
f 684 693 692
f 685 694 693
f 686 695 694
f 687 696 695
f 688 689 696
f 689 698 697
f 690 699 698
f 691 700 699
f 692 701 700
f 693 702 701
f 694 703 702
f 695 704 703
f 696 697 704
f 697 706 705
f 698 707 706
f 699 708 707
f 700 709 708
f 701 710 709
f 702 711 710
f 703 712 711
f 704 705 712
f 705 714 713
f 706 715 714
f 707 716 715
f 708 717 716
f 709 718 717
f 710 719 718
f 711 720 719
f 712 713 720
f 713 722 721
f 714 723 722
f 715 724 723
f 716 725 724
f 717 726 725
f 718 727 726
f 719 728 727
f 720 721 728
f 721 730 729
f 722 731 730
f 723 732 731
f 724 733 732
f 725 734 733
f 726 735 734
f 727 736 735
f 728 729 736
f 729 738 737
f 730 739 738
f 731 740 739
f 732 741 740
f 733 742 741
f 734 743 742
f 735 744 743
f 736 737 744
f 737 746 745
f 738 747 746
f 739 748 747
f 740 749 748
f 741 750 749
f 742 751 750
f 743 752 751
f 744 745 752
f 745 754 753
f 746 755 754
f 747 756 755
f 748 757 756
f 749 758 757
f 750 759 758
f 751 760 759
f 752 753 760
f 753 762 761
f 754 763 762
f 755 764 763
f 756 765 764
f 757 766 765
f 758 767 766
f 759 768 767
f 760 761 768
f 762 769 761
f 762 771 770
f 763 772 771
f 764 773 772
f 765 774 773
f 767 774 766
f 768 775 767
f 761 776 768
f 1 2 10
f 3 11 10
f 4 12 11
f 5 13 12
f 6 14 13
f 6 7 15
f 7 8 16
f 8 1 9
f 9 10 18
f 10 11 19
f 11 12 20
f 12 13 21
f 13 14 22
f 14 15 23
f 15 16 24
f 16 9 17
f 17 18 26
f 18 19 27
f 19 20 28
f 20 21 29
f 21 22 30
f 22 23 31
f 23 24 32
f 24 17 25
f 25 26 34
f 26 27 35
f 27 28 36
f 28 29 37
f 29 30 38
f 30 31 39
f 31 32 40
f 32 25 33
f 33 34 42
f 34 35 43
f 35 36 44
f 36 37 45
f 37 38 46
f 38 39 47
f 39 40 48
f 40 33 41
f 41 42 50
f 42 43 51
f 43 44 52
f 44 45 53
f 45 46 54
f 46 47 55
f 47 48 56
f 48 41 49
f 49 50 58
f 50 51 59
f 51 52 60
f 52 53 61
f 53 54 62
f 54 55 63
f 55 56 64
f 56 49 57
f 57 58 66
f 58 59 67
f 59 60 68
f 60 61 69
f 61 62 70
f 62 63 71
f 63 64 72
f 64 57 65
f 65 66 74
f 66 67 75
f 67 68 76
f 68 69 77
f 69 70 78
f 70 71 79
f 71 72 80
f 72 65 73
f 73 74 82
f 74 75 83
f 75 76 84
f 76 77 85
f 77 78 86
f 78 79 87
f 79 80 88
f 80 73 81
f 81 82 90
f 82 83 91
f 83 84 92
f 84 85 93
f 85 86 94
f 86 87 95
f 87 88 96
f 88 81 89
f 89 90 98
f 90 91 99
f 91 92 100
f 92 93 101
f 93 94 102
f 94 95 103
f 95 96 104
f 96 89 97
f 97 98 106
f 98 99 107
f 99 100 108
f 100 101 109
f 101 102 110
f 102 103 111
f 103 104 112
f 104 97 105
f 105 106 114
f 106 107 115
f 107 108 116
f 108 109 117
f 109 110 118
f 110 111 119
f 111 112 120
f 112 105 113
f 113 114 122
f 114 115 123
f 115 116 124
f 116 117 125
f 117 118 126
f 118 119 127
f 119 120 128
f 120 113 121
f 121 122 130
f 122 123 131
f 123 124 132
f 124 125 133
f 125 126 134
f 126 127 135
f 127 128 136
f 128 121 129
f 129 130 138
f 130 131 139
f 131 132 140
f 132 133 141
f 133 134 142
f 134 135 143
f 135 136 144
f 136 129 137
f 137 138 146
f 138 139 147
f 139 140 148
f 140 141 149
f 141 142 150
f 142 143 151
f 143 144 152
f 144 137 145
f 145 146 154
f 146 147 155
f 147 148 156
f 148 149 157
f 149 150 158
f 150 151 159
f 151 152 160
f 152 145 153
f 153 154 162
f 154 155 163
f 155 156 164
f 156 157 165
f 157 158 166
f 158 159 167
f 159 160 168
f 160 153 161
f 161 162 170
f 162 163 171
f 163 164 172
f 164 165 173
f 165 166 174
f 166 167 175
f 167 168 176
f 168 161 169
f 169 170 178
f 170 171 179
f 171 172 180
f 172 173 181
f 173 174 182
f 174 175 183
f 175 176 184
f 176 169 177
f 177 178 186
f 178 179 187
f 179 180 188
f 180 181 189
f 181 182 190
f 182 183 191
f 183 184 192
f 184 177 185
f 185 186 194
f 186 187 195
f 187 188 196
f 188 189 197
f 189 190 198
f 190 191 199
f 191 192 200
f 192 185 193
f 193 194 202
f 194 195 203
f 195 196 204
f 196 197 205
f 197 198 206
f 198 199 207
f 199 200 208
f 200 193 201
f 201 202 210
f 202 203 211
f 203 204 212
f 204 205 213
f 205 206 214
f 206 207 215
f 207 208 216
f 208 201 209
f 209 210 218
f 210 211 219
f 211 212 220
f 212 213 221
f 213 214 222
f 214 215 223
f 215 216 224
f 216 209 217
f 217 218 226
f 218 219 227
f 219 220 228
f 220 221 229
f 221 222 230
f 222 223 231
f 223 224 232
f 224 217 225
f 225 226 234
f 226 227 235
f 227 228 236
f 228 229 237
f 229 230 238
f 230 231 239
f 231 232 240
f 232 225 233
f 233 234 242
f 234 235 243
f 235 236 244
f 236 237 245
f 237 238 246
f 238 239 247
f 239 240 248
f 240 233 241
f 241 242 250
f 242 243 251
f 243 244 252
f 244 245 253
f 245 246 254
f 246 247 255
f 247 248 256
f 248 241 249
f 249 250 258
f 250 251 259
f 251 252 260
f 252 253 261
f 253 254 262
f 254 255 263
f 255 256 264
f 256 249 257
f 257 258 266
f 258 259 267
f 259 260 268
f 260 261 269
f 261 262 270
f 262 263 271
f 263 264 272
f 264 257 265
f 265 266 274
f 266 267 275
f 267 268 276
f 268 269 277
f 269 270 278
f 270 271 279
f 271 272 280
f 272 265 273
f 273 274 282
f 274 275 283
f 275 276 284
f 276 277 285
f 277 278 286
f 278 279 287
f 279 280 288
f 280 273 281
f 281 282 290
f 282 283 291
f 283 284 292
f 284 285 293
f 285 286 294
f 286 287 295
f 287 288 296
f 288 281 289
f 289 290 298
f 290 291 299
f 291 292 300
f 292 293 301
f 293 294 302
f 294 295 303
f 295 296 304
f 296 289 297
f 297 298 306
f 298 299 307
f 299 300 308
f 300 301 309
f 301 302 310
f 302 303 311
f 303 304 312
f 304 297 305
f 305 306 314
f 306 307 315
f 307 308 316
f 308 309 317
f 309 310 318
f 310 311 319
f 311 312 320
f 312 305 313
f 313 314 322
f 314 315 323
f 315 316 324
f 316 317 325
f 317 318 326
f 318 319 327
f 319 320 328
f 320 313 321
f 321 322 330
f 322 323 331
f 323 324 332
f 324 325 333
f 325 326 334
f 326 327 335
f 327 328 336
f 328 321 329
f 329 330 338
f 330 331 339
f 331 332 340
f 332 333 341
f 333 334 342
f 334 335 343
f 335 336 344
f 336 329 337
f 337 338 346
f 338 339 347
f 339 340 348
f 340 341 349
f 341 342 350
f 342 343 351
f 343 344 352
f 344 337 345
f 345 346 354
f 346 347 355
f 347 348 356
f 348 349 357
f 349 350 358
f 350 351 359
f 351 352 360
f 352 345 353
f 353 354 362
f 354 355 363
f 355 356 364
f 356 357 365
f 357 358 366
f 358 359 367
f 359 360 368
f 360 353 361
f 361 362 370
f 362 363 371
f 363 364 372
f 364 365 373
f 365 366 374
f 366 367 375
f 367 368 376
f 368 361 369
f 369 370 378
f 370 371 379
f 371 372 380
f 372 373 381
f 373 374 382
f 374 375 383
f 375 376 384
f 376 369 377
f 377 378 386
f 378 379 387
f 379 380 388
f 380 381 389
f 381 382 390
f 382 383 391
f 383 384 392
f 384 377 385
f 385 386 394
f 386 387 395
f 387 388 396
f 388 389 397
f 389 390 398
f 390 391 399
f 391 392 400
f 392 385 393
f 393 394 402
f 394 395 403
f 395 396 404
f 396 397 405
f 397 398 406
f 398 399 407
f 399 400 408
f 400 393 401
f 401 402 410
f 402 403 411
f 403 404 412
f 404 405 413
f 405 406 414
f 406 407 415
f 407 408 416
f 408 401 409
f 409 410 418
f 410 411 419
f 411 412 420
f 412 413 421
f 413 414 422
f 414 415 423
f 415 416 424
f 416 409 417
f 417 418 426
f 418 419 427
f 419 420 428
f 420 421 429
f 421 422 430
f 422 423 431
f 423 424 432
f 424 417 425
f 425 426 434
f 426 427 435
f 427 428 436
f 428 429 437
f 429 430 438
f 430 431 439
f 431 432 440
f 432 425 433
f 433 434 442
f 434 435 443
f 435 436 444
f 436 437 445
f 437 438 446
f 438 439 447
f 439 440 448
f 440 433 441
f 441 442 450
f 442 443 451
f 443 444 452
f 444 445 453
f 445 446 454
f 446 447 455
f 447 448 456
f 448 441 449
f 449 450 458
f 450 451 459
f 451 452 460
f 452 453 461
f 453 454 462
f 454 455 463
f 455 456 464
f 456 449 457
f 457 458 466
f 458 459 467
f 459 460 468
f 460 461 469
f 461 462 470
f 462 463 471
f 463 464 472
f 464 457 465
f 465 466 474
f 466 467 475
f 467 468 476
f 468 469 477
f 469 470 478
f 470 471 479
f 471 472 480
f 472 465 473
f 473 474 482
f 474 475 483
f 475 476 484
f 476 477 485
f 477 478 486
f 478 479 487
f 479 480 488
f 480 473 481
f 481 482 490
f 482 483 491
f 483 484 492
f 484 485 493
f 485 486 494
f 486 487 495
f 487 488 496
f 488 481 489
f 489 490 498
f 490 491 499
f 491 492 500
f 492 493 501
f 493 494 502
f 494 495 503
f 495 496 504
f 496 489 497
f 497 498 506
f 498 499 507
f 499 500 508
f 500 501 509
f 501 502 510
f 502 503 511
f 503 504 512
f 504 497 505
f 505 506 514
f 506 507 515
f 507 508 516
f 508 509 517
f 509 510 518
f 510 511 519
f 511 512 520
f 512 505 513
f 513 514 522
f 514 515 523
f 515 516 524
f 516 517 525
f 517 518 526
f 518 519 527
f 519 520 528
f 520 513 521
f 521 522 530
f 522 523 531
f 523 524 532
f 524 525 533
f 525 526 534
f 526 527 535
f 527 528 536
f 528 521 529
f 529 530 538
f 530 531 539
f 531 532 540
f 532 533 541
f 533 534 542
f 534 535 543
f 535 536 544
f 536 529 537
f 537 538 546
f 538 539 547
f 539 540 548
f 540 541 549
f 541 542 550
f 542 543 551
f 543 544 552
f 544 537 545
f 545 546 554
f 546 547 555
f 547 548 556
f 548 549 557
f 549 550 558
f 550 551 559
f 551 552 560
f 552 545 553
f 553 554 562
f 554 555 563
f 555 556 564
f 556 557 565
f 557 558 566
f 558 559 567
f 559 560 568
f 560 553 561
f 561 562 570
f 562 563 571
f 563 564 572
f 564 565 573
f 565 566 574
f 566 567 575
f 567 568 576
f 568 561 569
f 569 570 578
f 570 571 579
f 571 572 580
f 572 573 581
f 573 574 582
f 574 575 583
f 575 576 584
f 576 569 577
f 577 578 586
f 578 579 587
f 579 580 588
f 580 581 589
f 581 582 590
f 582 583 591
f 583 584 592
f 584 577 585
f 585 586 594
f 586 587 595
f 587 588 596
f 588 589 597
f 589 590 598
f 590 591 599
f 591 592 600
f 592 585 593
f 593 594 602
f 594 595 603
f 595 596 604
f 596 597 605
f 597 598 606
f 598 599 607
f 599 600 608
f 600 593 601
f 601 602 610
f 602 603 611
f 603 604 612
f 604 605 613
f 605 606 614
f 606 607 615
f 607 608 616
f 608 601 609
f 609 610 618
f 610 611 619
f 611 612 620
f 612 613 621
f 613 614 622
f 614 615 623
f 615 616 624
f 616 609 617
f 617 618 626
f 618 619 627
f 619 620 628
f 620 621 629
f 621 622 630
f 622 623 631
f 623 624 632
f 624 617 625
f 625 626 634
f 626 627 635
f 627 628 636
f 628 629 637
f 629 630 638
f 630 631 639
f 631 632 640
f 632 625 633
f 633 634 642
f 634 635 643
f 635 636 644
f 636 637 645
f 637 638 646
f 638 639 647
f 639 640 648
f 640 633 641
f 641 642 650
f 642 643 651
f 643 644 652
f 644 645 653
f 645 646 654
f 646 647 655
f 647 648 656
f 648 641 649
f 649 650 658
f 650 651 659
f 651 652 660
f 652 653 661
f 653 654 662
f 654 655 663
f 655 656 664
f 656 649 657
f 657 658 666
f 658 659 667
f 659 660 668
f 660 661 669
f 661 662 670
f 662 663 671
f 663 664 672
f 664 657 665
f 665 666 674
f 666 667 675
f 667 668 676
f 668 669 677
f 669 670 678
f 670 671 679
f 671 672 680
f 672 665 673
f 673 674 682
f 674 675 683
f 675 676 684
f 676 677 685
f 677 678 686
f 678 679 687
f 679 680 688
f 680 673 681
f 681 682 690
f 682 683 691
f 683 684 692
f 684 685 693
f 685 686 694
f 686 687 695
f 687 688 696
f 688 681 689
f 689 690 698
f 690 691 699
f 691 692 700
f 692 693 701
f 693 694 702
f 694 695 703
f 695 696 704
f 696 689 697
f 697 698 706
f 698 699 707
f 699 700 708
f 700 701 709
f 701 702 710
f 702 703 711
f 703 704 712
f 704 697 705
f 705 706 714
f 706 707 715
f 707 708 716
f 708 709 717
f 709 710 718
f 710 711 719
f 711 712 720
f 712 705 713
f 713 714 722
f 714 715 723
f 715 716 724
f 716 717 725
f 717 718 726
f 718 719 727
f 719 720 728
f 720 713 721
f 721 722 730
f 722 723 731
f 723 724 732
f 724 725 733
f 725 726 734
f 726 727 735
f 727 728 736
f 728 721 729
f 729 730 738
f 730 731 739
f 731 732 740
f 732 733 741
f 733 734 742
f 734 735 743
f 735 736 744
f 736 729 737
f 737 738 746
f 738 739 747
f 739 740 748
f 740 741 749
f 741 742 750
f 742 743 751
f 743 744 752
f 744 737 745
f 745 746 754
f 746 747 755
f 747 748 756
f 748 749 757
f 749 750 758
f 750 751 759
f 751 752 760
f 752 745 753
f 753 754 762
f 754 755 763
f 755 756 764
f 756 757 765
f 757 758 766
f 758 759 767
f 759 760 768
f 760 753 761
f 762 770 769
f 762 763 771
f 763 764 772
f 764 765 773
f 765 766 774
f 767 775 774
f 768 776 775
f 761 769 776
