# eclipse Orbit2_Orbit.obj: Roblox cue frame, recentred on its bounding box
v -0.84757 -0.59345 2.59847
v -0.85174 -0.59757 2.58466
v -0.86412 -0.60581 2.58272
v -0.87233 -0.60993 2.59458
v -0.86815 -0.60581 2.60838
v -0.85577 -0.59757 2.61033
v -0.87337 -0.55375 2.59444
v -0.87702 -0.55868 2.58075
v -0.88958 -0.56663 2.57875
v -0.89849 -0.56966 2.59043
v -0.89484 -0.56473 2.60412
v -0.88228 -0.55677 2.60612
v -0.89628 -0.51253 2.58241
v -0.89902 -0.51900 2.56916
v -0.91187 -0.52642 2.56694
v -0.92198 -0.52737 2.57798
v -0.91924 -0.52089 2.59124
v -0.90640 -0.51348 2.59345
v -0.91641 -0.46960 2.56232
v -0.91846 -0.47745 2.54970
v -0.93152 -0.48440 2.54722
v -0.94253 -0.48351 2.55736
v -0.94049 -0.47567 2.56998
v -0.92743 -0.46871 2.57246
v -0.93369 -0.42510 2.53418
v -0.93525 -0.43410 2.52229
v -0.94845 -0.44067 2.51953
v -0.96009 -0.43824 2.52868
v -0.95853 -0.42924 2.54058
v -0.94533 -0.42267 2.54333
v -0.94804 -0.37916 2.49808
v -0.94929 -0.38910 2.48691
v -0.96258 -0.39537 2.48390
v -0.97462 -0.39169 2.49204
v -0.97338 -0.38174 2.50320
v -0.96009 -0.37548 2.50622
v -0.95941 -0.33194 2.45410
v -0.96045 -0.34264 2.44364
v -0.97380 -0.34866 2.44037
v -0.98610 -0.34398 2.44757
v -0.98506 -0.33329 2.45803
v -0.97171 -0.32727 2.46130
v -0.96774 -0.28361 2.40239
v -0.96867 -0.29491 2.39257
v -0.98204 -0.30074 2.38908
v -0.99449 -0.29527 2.39542
v -0.99356 -0.28397 2.40524
v -0.98019 -0.27814 2.40872
v -0.97301 -0.23433 2.34311
v -0.97387 -0.24612 2.33387
v -0.98726 -0.25179 2.33018
v -0.99978 -0.24568 2.33574
v -0.99891 -0.23390 2.34498
v -0.98553 -0.22822 2.34867
v -0.97518 -0.18427 2.27645
v -0.97602 -0.19644 2.26772
v -0.98941 -0.20199 2.26386
v -1.00196 -0.19537 2.26873
v -1.00112 -0.18319 2.27745
v -0.98773 -0.17764 2.28131
v -0.97425 -0.13359 2.20262
v -0.97509 -0.14608 2.19436
v -0.98848 -0.15153 2.19034
v -1.00102 -0.14448 2.19458
v -1.00018 -0.13198 2.20284
v -0.98679 -0.12654 2.20686
v -0.97022 -0.08245 2.12185
v -0.97108 -0.09521 2.11401
v -0.98446 -0.10057 2.10986
v -0.99698 -0.09317 2.11354
v -0.99612 -0.08041 2.12138
v -0.98274 -0.07505 2.12553
v -0.96310 -0.03102 2.03441
v -0.96399 -0.04400 2.02695
v -0.97736 -0.04929 2.02267
v -0.98984 -0.04160 2.02585
v -0.98895 -0.02862 2.03331
v -0.97558 -0.02333 2.03759
v -0.95292 0.02053 1.94057
v -0.95384 0.00736 1.93346
v -0.96719 0.00213 1.92906
v -0.97962 0.01007 1.93178
v -0.97870 0.02324 1.93890
v -0.96535 0.02847 1.94330
v -0.93969 0.07204 1.84064
v -0.94066 0.05871 1.83383
v -0.95400 0.05353 1.82933
v -0.96637 0.06169 1.83164
v -0.96541 0.07502 1.83844
v -0.95207 0.08020 1.84294
v -0.92347 0.12335 1.73491
v -0.92448 0.10988 1.72840
v -0.93780 0.10475 1.72380
v -0.95012 0.11309 1.72572
v -0.94912 0.12656 1.73224
v -0.93579 0.13169 1.73683
v -0.90431 0.17430 1.62374
v -0.90536 0.16070 1.61749
v -0.91867 0.15560 1.61281
v -0.93093 0.16411 1.61438
v -0.92988 0.17770 1.62062
v -0.91657 0.18280 1.62531
v -0.88226 0.22471 1.50747
v -0.88336 0.21101 1.50147
v -0.89665 0.20595 1.49670
v -0.90885 0.21459 1.49794
v -0.90775 0.22829 1.50394
v -0.89446 0.23335 1.50870
v -0.85740 0.27444 1.38646
v -0.85854 0.26064 1.38070
v -0.87182 0.25561 1.37586
v -0.88395 0.26438 1.37678
v -0.88281 0.27818 1.38255
v -0.86953 0.28321 1.38739
v -0.82980 0.32332 1.26111
v -0.83099 0.30943 1.25556
v -0.84425 0.30443 1.25065
v -0.85632 0.31331 1.25128
v -0.85513 0.32720 1.25683
v -0.84187 0.33220 1.26174
v -0.79955 0.37120 1.13180
v -0.80079 0.35724 1.12646
v -0.81403 0.35226 1.12148
v -0.82604 0.36125 1.12184
v -0.82480 0.37521 1.12717
v -0.81155 0.38019 1.13216
v -0.76674 0.41794 0.99894
v -0.76803 0.40390 0.99381
v -0.78126 0.39895 0.98876
v -0.79320 0.40803 0.98885
v -0.79191 0.42206 0.99399
v -0.77868 0.42701 0.99903
v -0.73149 0.46337 0.86296
v -0.73282 0.44927 0.85801
v -0.74603 0.44434 0.85290
v -0.75791 0.45350 0.85274
v -0.75657 0.46760 0.85768
v -0.74336 0.47253 0.86279
v -0.69389 0.50737 0.72427
v -0.69528 0.49321 0.71952
v -0.70847 0.48829 0.71434
v -0.72028 0.49753 0.71393
v -0.71889 0.51169 0.71869
v -0.70570 0.51661 0.72386
v -0.65407 0.54978 0.58333
v -0.65551 0.53557 0.57875
v -0.66868 0.53067 0.57352
v -0.68042 0.53998 0.57286
v -0.67899 0.55420 0.57744
v -0.66581 0.55909 0.58267
v -0.61215 0.59048 0.44056
v -0.61364 0.57622 0.43616
v -0.62680 0.57134 0.43087
v -0.63847 0.58072 0.42998
v -0.63698 0.59498 0.43438
v -0.62382 0.59986 0.43967
v -0.56827 0.62934 0.29643
v -0.56981 0.61503 0.29220
v -0.58295 0.61016 0.28685
v -0.59456 0.61961 0.28573
v -0.59302 0.63392 0.28996
v -0.57987 0.63878 0.29530
v -0.52256 0.66624 0.15137
v -0.52416 0.65188 0.14732
v -0.53728 0.64703 0.14192
v -0.54881 0.65653 0.14057
v -0.54722 0.67088 0.14462
v -0.53409 0.67574 0.15003
v -0.47517 0.70105 0.00587
v -0.47682 0.68666 0.00198
v -0.48993 0.68182 -0.00348
v -0.50138 0.69137 -0.00505
v -0.49973 0.70577 -0.00117
v -0.48663 0.71061 0.00429
v -0.42625 0.73368 -0.13964
v -0.42796 0.71925 -0.14335
v -0.44104 0.71442 -0.14887
v -0.45242 0.72402 -0.15067
v -0.45071 0.73846 -0.14696
v -0.43763 0.74328 -0.14145
v -0.37595 0.76401 -0.28469
v -0.37771 0.74954 -0.28823
v -0.39078 0.74473 -0.29380
v -0.40208 0.75438 -0.29584
v -0.40031 0.76885 -0.29230
v -0.38725 0.77366 -0.28673
v -0.32442 0.79196 -0.42883
v -0.32625 0.77745 -0.43219
v -0.33930 0.77265 -0.43782
v -0.35051 0.78234 -0.44009
v -0.34869 0.79685 -0.43672
v -0.33564 0.80165 -0.43110
v -0.27184 0.81743 -0.57160
v -0.27373 0.80289 -0.57478
v -0.28676 0.79809 -0.58047
v -0.29789 0.80783 -0.58297
v -0.29600 0.82237 -0.57978
v -0.28297 0.82716 -0.57410
v -0.21836 0.84034 -0.71254
v -0.22032 0.82577 -0.71555
v -0.23333 0.82099 -0.72130
v -0.24437 0.83076 -0.72404
v -0.24241 0.84533 -0.72103
v -0.22940 0.85012 -0.71529
v -0.16416 0.86062 -0.85123
v -0.16620 0.84603 -0.85405
v -0.17917 0.84125 -0.85985
v -0.19012 0.85106 -0.86284
v -0.18809 0.86566 -0.86002
v -0.17511 0.87044 -0.85422
v -0.10941 0.87821 -0.98721
v -0.11152 0.86360 -0.98984
v -0.12447 0.85883 -0.99571
v -0.13532 0.86867 -0.99895
v -0.13320 0.88329 -0.99633
v -0.12025 0.88806 -0.99046
v -0.05428 0.89306 -1.12007
v -0.05647 0.87842 -1.12250
v -0.06939 0.87365 -1.12843
v -0.08013 0.88353 -1.13194
v -0.07793 0.89817 -1.12952
v -0.06501 0.90293 -1.12358
v 0.00107 0.90511 -1.24938
v -0.00122 0.89045 -1.25160
v -0.01411 0.88569 -1.25760
v -0.02473 0.89559 -1.26139
v -0.02244 0.91025 -1.25917
v -0.00955 0.91501 -1.25317
v 0.05644 0.91433 -1.37473
v 0.05406 0.89965 -1.37673
v 0.04120 0.89490 -1.38281
v 0.03071 0.90482 -1.38689
v 0.03309 0.91949 -1.38489
v 0.04595 0.92425 -1.37881
v 0.11167 0.92069 -1.49574
v 0.10919 0.90600 -1.49750
v 0.09636 0.90125 -1.50365
v 0.08601 0.91118 -1.50804
v 0.08850 0.92587 -1.50628
v 0.10133 0.93062 -1.50013
v 0.16658 0.92416 -1.61201
v 0.16398 0.90947 -1.61352
v 0.15119 0.90472 -1.61976
v 0.14100 0.91466 -1.62448
v 0.14361 0.92936 -1.62297
v 0.15639 0.93411 -1.61673
v 0.22101 0.92475 -1.72319
v 0.21828 0.91005 -1.72443
v 0.20553 0.90530 -1.73075
v 0.19551 0.91525 -1.73583
v 0.19824 0.92994 -1.73458
v 0.21099 0.93470 -1.72826
v 0.27477 0.92244 -1.82891
v 0.27189 0.90775 -1.82987
v 0.25919 0.90300 -1.83628
v 0.24937 0.91293 -1.84174
v 0.25225 0.92763 -1.84078
v 0.26495 0.93238 -1.83437
v 0.32770 0.91725 -1.92885
v 0.32466 0.90258 -1.92949
v 0.31201 0.89782 -1.93601
v 0.30241 0.90773 -1.94188
v 0.30545 0.92241 -1.94124
v 0.31809 0.92717 -1.93472
v 0.37962 0.90920 -2.02269
v 0.37639 0.89455 -2.02299
v 0.36381 0.88978 -2.02962
v 0.35446 0.89965 -2.03595
v 0.35769 0.91430 -2.03565
v 0.37027 0.91907 -2.02902
v 0.43038 0.89830 -2.11013
v 0.42694 0.88370 -2.11005
v 0.41443 0.87891 -2.11680
v 0.40536 0.88872 -2.12363
v 0.40881 0.90332 -2.12372
v 0.42132 0.90811 -2.11697
v 0.47981 0.88460 -2.19090
v 0.47611 0.87008 -2.19040
v 0.46369 0.86526 -2.19728
v 0.45496 0.87497 -2.20467
v 0.45866 0.88949 -2.20518
v 0.47109 0.89431 -2.19829
v 0.52775 0.86815 -2.26474
v 0.52375 0.85372 -2.26376
v 0.51143 0.84887 -2.27080
v 0.50310 0.85844 -2.27881
v 0.50710 0.87286 -2.27978
v 0.51943 0.87772 -2.27275
v 0.57405 0.84899 -2.33141
v 0.56969 0.83472 -2.32991
v 0.55749 0.82981 -2.33711
v 0.54964 0.83917 -2.34582
v 0.55400 0.85344 -2.34732
v 0.56620 0.85836 -2.34011
v 0.61856 0.82720 -2.39070
v 0.61377 0.81314 -2.38862
v 0.60170 0.80816 -2.39600
v 0.59443 0.81723 -2.40548
v 0.59922 0.83129 -2.40757
v 0.61128 0.83628 -2.40018
v 0.66112 0.80286 -2.44243
v 0.65580 0.78910 -2.43969
v 0.64391 0.78401 -2.44728
v 0.63734 0.79266 -2.45762
v 0.64265 0.80642 -2.46036
v 0.65454 0.81152 -2.45277
v 0.70160 0.77605 -2.48644
v 0.69564 0.76272 -2.48297
v 0.68396 0.75747 -2.49078
v 0.67824 0.76555 -2.50206
v 0.68420 0.77887 -2.50552
v 0.69588 0.78412 -2.49771
v 0.73987 0.74687 -2.52258
v 0.73313 0.73415 -2.51836
v 0.72170 0.72869 -2.52639
v 0.71701 0.73595 -2.53865
v 0.72375 0.74867 -2.54288
v 0.73517 0.75413 -2.53484
v 0.77580 0.71544 -2.55078
v 0.76813 0.70355 -2.54579
v 0.75699 0.69780 -2.55404
v 0.75353 0.70394 -2.56728
v 0.76120 0.71583 -2.57227
v 0.77233 0.72157 -2.56402
v 0.80928 0.68185 -2.57096
v 0.80053 0.67107 -2.56528
v 0.78973 0.66495 -2.57370
v 0.78768 0.66961 -2.58781
v 0.79643 0.68039 -2.59349
v 0.80723 0.68651 -2.58507
v 0.84022 0.64622 -2.58310
v 0.83030 0.63683 -2.57690
v 0.81986 0.63026 -2.58543
v 0.81934 0.63308 -2.60015
v 0.82926 0.64247 -2.60635
v 0.83970 0.64904 -2.59782
v 0.86857 0.60863 -2.58717
v 0.85746 0.60085 -2.58076
v 0.84736 0.59378 -2.58930
v 0.84837 0.59448 -2.60425
v 0.85947 0.60226 -2.61066
v 0.86958 0.60933 -2.60212
v 0.89426 0.56916 -2.58318
v 0.88207 0.56308 -2.57689
v 0.87227 0.55549 -2.58533
v 0.87465 0.55398 -2.60007
v 0.88683 0.56006 -2.60636
v 0.89664 0.56765 -2.59792
v 0.91723 0.52788 -2.57112
v 0.90415 0.52344 -2.56526
v 0.89458 0.51537 -2.57352
v 0.89808 0.51175 -2.58765
v 0.91115 0.51620 -2.59351
v 0.92073 0.52426 -2.58525
v 0.93740 0.48490 -2.55098
v 0.92366 0.48190 -2.54575
v 0.91426 0.47343 -2.55380
v 0.91859 0.46796 -2.56708
v 0.93233 0.47095 -2.57230
v 0.94173 0.47942 -2.56425
v 0.95471 0.44034 -2.52280
v 0.94051 0.43857 -2.51831
v 0.93121 0.42976 -2.52613
v 0.93612 0.42273 -2.53844
v 0.95032 0.42450 -2.54293
v 0.95962 0.43331 -2.53511
v 0.96908 0.39436 -2.48666
v 0.95458 0.39358 -2.48291
v 0.94535 0.38450 -2.49050
v 0.95063 0.37622 -2.50184
v 0.96514 0.37700 -2.50558
v 0.97436 0.38607 -2.49799
v 0.98046 0.34712 -2.44264
v 0.96577 0.34712 -2.43962
v 0.95659 0.33783 -2.44700
v 0.96210 0.32854 -2.45740
v 0.97679 0.32854 -2.46043
v 0.98597 0.33782 -2.45305
v 0.98880 0.29876 -2.39090
v 0.97400 0.29940 -2.38853
v 0.96484 0.28994 -2.39572
v 0.97048 0.27985 -2.40528
v 0.98528 0.27922 -2.40765
v 0.99444 0.28867 -2.40046
v 0.99407 0.24946 -2.33159
v 0.97922 0.25060 -2.32982
v 0.97006 0.24101 -2.33684
v 0.97577 0.23028 -2.34564
v 0.99062 0.22914 -2.34741
v 0.99977 0.23873 -2.34039
v 0.99624 0.19938 -2.26490
v 0.98137 0.20093 -2.26366
v 0.97222 0.19123 -2.27053
v 0.97794 0.17999 -2.27865
v 0.99281 0.17844 -2.27989
v 1.00196 0.18814 -2.27302
v 0.99531 0.14869 -2.19105
v 0.98045 0.15057 -2.19029
v 0.97130 0.14078 -2.19702
v 0.97701 0.12911 -2.20453
v 0.99187 0.12723 -2.20529
v 1.00102 0.13702 -2.19855
v 0.99129 0.09754 -2.11026
v 0.97645 0.09970 -2.10993
v 0.96728 0.08984 -2.11655
v 0.97296 0.07782 -2.12350
v 0.98780 0.07566 -2.12384
v 0.99696 0.08552 -2.11722
v 0.98417 0.04610 -2.02281
v 0.96936 0.04849 -2.02286
v 0.96018 0.03857 -2.02937
v 0.96582 0.02626 -2.03583
v 0.98063 0.02387 -2.03577
v 0.98980 0.03379 -2.02926
v 0.97398 -0.00546 -1.92895
v 0.95921 -0.00287 -1.92936
v 0.95002 -0.01285 -1.93578
v 0.95561 -0.02541 -1.94178
v 0.97038 -0.02799 -1.94137
v 0.97956 -0.01802 -1.93496
v 0.96075 -0.05698 -1.82900
v 0.94603 -0.05423 -1.82973
v 0.93683 -0.06424 -1.83606
v 0.94236 -0.07702 -1.84165
v 0.95708 -0.07977 -1.84092
v 0.96628 -0.06975 -1.83459
v 0.94453 -0.10829 -1.72326
v 0.92985 -0.10540 -1.72429
v 0.92064 -0.11545 -1.73053
v 0.92611 -0.12841 -1.73575
v 0.94079 -0.13131 -1.73472
v 0.95000 -0.12125 -1.72848
v 0.92537 -0.15924 -1.61208
v 0.91073 -0.15622 -1.61338
v 0.90151 -0.16631 -1.61955
v 0.90692 -0.17942 -1.62441
v 0.92155 -0.18245 -1.62311
v 0.93078 -0.17236 -1.61694
v 0.90332 -0.20966 -1.49579
v 0.88873 -0.20652 -1.49735
v 0.87949 -0.21664 -1.50345
v 0.88484 -0.22990 -1.50799
v 0.89942 -0.23304 -1.50643
v 0.90866 -0.22292 -1.50033
v 0.87845 -0.25939 -1.37478
v 0.86392 -0.25615 -1.37658
v 0.85466 -0.26630 -1.38261
v 0.85995 -0.27969 -1.38684
v 0.87448 -0.28293 -1.38504
v 0.88373 -0.27278 -1.37901
v 0.85085 -0.30828 -1.24941
v 0.83637 -0.30495 -1.25144
v 0.82710 -0.31512 -1.25741
v 0.83231 -0.32862 -1.26135
v 0.84680 -0.33195 -1.25933
v 0.85607 -0.32178 -1.25336
v 0.82060 -0.35616 -1.12009
v 0.80616 -0.35276 -1.12234
v 0.79688 -0.36295 -1.12825
v 0.80203 -0.37655 -1.13192
v 0.81647 -0.37996 -1.12968
v 0.82575 -0.36977 -1.12376
v 0.78779 -0.40290 -0.98723
v 0.77341 -0.39942 -0.98968
v 0.76411 -0.40963 -0.99553
v 0.76920 -0.42333 -0.99894
v 0.78358 -0.42681 -0.99649
v 0.79288 -0.41659 -0.99064
v 0.75253 -0.44834 -0.85124
v 0.73820 -0.44479 -0.85388
v 0.72889 -0.45502 -0.85968
v 0.73391 -0.46880 -0.86284
v 0.74824 -0.47235 -0.86019
v 0.75755 -0.46212 -0.85439
v 0.71493 -0.49234 -0.71254
v 0.70065 -0.48873 -0.71538
v 0.69133 -0.49897 -0.72113
v 0.69628 -0.51283 -0.72404
v 0.71056 -0.51644 -0.72120
v 0.71989 -0.50619 -0.71545
v 0.67511 -0.53475 -0.57159
v 0.66088 -0.53109 -0.57461
v 0.65154 -0.54135 -0.58031
v 0.65643 -0.55528 -0.58298
v 0.67066 -0.55894 -0.57996
v 0.68000 -0.54868 -0.57426
v 0.63319 -0.57546 -0.42881
v 0.61902 -0.57174 -0.43202
v 0.60966 -0.58201 -0.43767
v 0.61448 -0.59601 -0.44011
v 0.62865 -0.59973 -0.43690
v 0.63801 -0.58945 -0.43125
v 0.58931 -0.61432 -0.28467
v 0.57519 -0.61055 -0.28806
v 0.56582 -0.62084 -0.29365
v 0.57057 -0.63490 -0.29586
v 0.58468 -0.63866 -0.29248
v 0.59405 -0.62837 -0.28688
v 0.54360 -0.65122 -0.13961
v 0.52953 -0.64740 -0.14317
v 0.52015 -0.65770 -0.14872
v 0.52482 -0.67182 -0.15071
v 0.53889 -0.67563 -0.14714
v 0.54827 -0.66533 -0.14159
v 0.49620 -0.68603 0.00591
v 0.48220 -0.68218 0.00217
v 0.47280 -0.69249 -0.00334
v 0.47740 -0.70666 -0.00510
v 0.49140 -0.71051 -0.00135
v 0.50081 -0.70020 0.00415
v 0.44728 -0.71866 0.15142
v 0.43333 -0.71477 0.14751
v 0.42391 -0.72509 0.14205
v 0.42844 -0.73931 0.14052
v 0.44238 -0.74320 0.14444
v 0.45180 -0.73288 0.14989
v 0.39697 -0.74900 0.29648
v 0.38309 -0.74506 0.29239
v 0.37365 -0.75539 0.28698
v 0.37810 -0.76966 0.28567
v 0.39198 -0.77359 0.28977
v 0.40142 -0.76326 0.29517
v 0.34544 -0.77694 0.44063
v 0.33163 -0.77297 0.43635
v 0.32217 -0.78331 0.43100
v 0.32654 -0.79762 0.42992
v 0.34036 -0.80159 0.43419
v 0.34981 -0.79125 0.43955
v 0.29286 -0.80241 0.58340
v 0.27911 -0.79841 0.57894
v 0.26963 -0.80876 0.57364
v 0.27391 -0.82311 0.57279
v 0.28766 -0.82711 0.57725
v 0.29714 -0.81676 0.58255
v 0.23938 -0.82533 0.72436
v 0.22570 -0.82129 0.71971
v 0.21621 -0.83165 0.71446
v 0.22040 -0.84604 0.71385
v 0.23408 -0.85007 0.71849
v 0.24357 -0.83972 0.72375
v 0.18518 -0.84561 0.86305
v 0.17157 -0.84155 0.85821
v 0.16206 -0.85191 0.85301
v 0.16615 -0.86634 0.85265
v 0.17976 -0.87040 0.85748
v 0.18927 -0.86004 0.86269
v 0.13042 -0.86320 0.99905
v 0.11690 -0.85912 0.99401
v 0.10736 -0.86949 0.98886
v 0.11135 -0.88395 0.98875
v 0.12488 -0.88804 0.99378
v 0.13441 -0.87766 0.99893
v 0.07528 -0.87805 1.13191
v 0.06184 -0.87394 1.12667
v 0.05228 -0.88432 1.12158
v 0.05616 -0.89880 1.12173
v 0.06960 -0.90292 1.12697
v 0.07916 -0.89254 1.13206
v 0.01994 -0.89010 1.26123
v 0.00659 -0.88597 1.25577
v -0.00299 -0.89635 1.25074
v 0.00077 -0.91087 1.25116
v 0.01412 -0.91500 1.25662
v 0.02370 -0.90462 1.26165
v -0.03544 -0.89932 1.38659
v -0.04869 -0.89517 1.38091
v -0.05830 -0.90556 1.37594
v -0.05467 -0.92009 1.37665
v -0.04142 -0.92424 1.38234
v -0.03181 -0.91386 1.38731
v -0.09068 -0.90568 1.50761
v -0.10381 -0.90151 1.50168
v -0.11345 -0.91190 1.49678
v -0.10996 -0.92646 1.49780
v -0.09683 -0.93062 1.50372
v -0.08718 -0.92023 1.50863
v -0.14559 -0.90916 1.62389
v -0.15861 -0.90498 1.61771
v -0.16829 -0.91537 1.61288
v -0.16495 -0.92994 1.61422
v -0.15193 -0.93411 1.62040
v -0.14226 -0.92372 1.62524
v -0.20002 -0.90974 1.73508
v -0.21290 -0.90557 1.72862
v -0.22262 -0.91596 1.72386
v -0.21945 -0.93052 1.72556
v -0.20657 -0.93470 1.73201
v -0.19686 -0.92431 1.73678
v -0.25379 -0.90743 1.84082
v -0.26652 -0.90327 1.83406
v -0.27628 -0.91365 1.82938
v -0.27330 -0.92821 1.83145
v -0.26058 -0.93238 1.83821
v -0.25082 -0.92199 1.84289
v -0.30673 -0.90224 1.94077
v -0.31928 -0.89809 1.93370
v -0.32909 -0.90847 1.92910
v -0.32633 -0.92301 1.93158
v -0.31378 -0.92716 1.93866
v -0.30397 -0.91678 1.94326
v -0.35866 -0.89419 2.03463
v -0.37102 -0.89006 2.02720
v -0.38088 -0.90043 2.02270
v -0.37838 -0.91493 2.02563
v -0.36602 -0.91905 2.03306
v -0.35616 -0.90868 2.03756
v -0.40943 -0.88329 2.12209
v -0.42156 -0.87921 2.11427
v -0.43148 -0.88957 2.10987
v -0.42927 -0.90400 2.11330
v -0.41714 -0.90808 2.12112
v -0.40722 -0.89772 2.12552
v -0.45887 -0.86958 2.20288
v -0.47073 -0.86558 2.19462
v -0.48073 -0.87591 2.19034
v -0.47886 -0.89025 2.19432
v -0.46699 -0.89426 2.20258
v -0.45700 -0.88393 2.20685
v -0.50682 -0.85312 2.27674
v -0.51837 -0.84922 2.26800
v -0.52846 -0.85952 2.26385
v -0.52699 -0.87373 2.26844
v -0.51544 -0.87763 2.27717
v -0.50535 -0.86733 2.28132
v -0.55314 -0.83396 2.34343
v -0.56431 -0.83021 2.33416
v -0.57450 -0.84046 2.33015
v -0.57351 -0.85447 2.33542
v -0.56233 -0.85822 2.34469
v -0.55215 -0.84797 2.34870
v -0.59766 -0.81216 2.40275
v -0.60838 -0.80862 2.39287
v -0.61869 -0.81881 2.38903
v -0.61828 -0.83254 2.39505
v -0.60756 -0.83608 2.40493
v -0.59725 -0.82589 2.40878
v -0.64024 -0.78779 2.45451
v -0.65041 -0.78456 2.44397
v -0.66087 -0.79467 2.44029
v -0.66117 -0.80800 2.44716
v -0.65100 -0.81123 2.45771
v -0.64054 -0.80113 2.46138
v -0.68075 -0.76096 2.49855
v -0.69024 -0.75816 2.48727
v -0.70088 -0.76814 2.48378
v -0.70204 -0.78090 2.49157
v -0.69256 -0.78370 2.50284
v -0.68191 -0.77373 2.50634
v -0.71905 -0.73175 2.53473
v -0.72770 -0.72956 2.52268
v -0.73857 -0.73936 2.51938
v -0.74079 -0.75134 2.52813
v -0.73213 -0.75352 2.54018
v -0.72126 -0.74373 2.54348
v -0.75501 -0.70027 2.56296
v -0.76267 -0.69892 2.55014
v -0.77381 -0.70847 2.54702
v -0.77727 -0.71938 2.55672
v -0.76961 -0.72072 2.56954
v -0.75848 -0.71117 2.57266
v -0.78852 -0.66662 2.58317
v -0.79504 -0.66639 2.56966
v -0.80647 -0.67563 2.56669
v -0.81139 -0.68511 2.57722
v -0.80488 -0.68534 2.59073
v -0.79344 -0.67610 2.59371
v -0.81951 -0.63092 2.59533
v -0.82476 -0.63208 2.58133
v -0.83651 -0.64095 2.57843
v -0.84301 -0.64865 2.58954
v -0.83776 -0.64749 2.60355
v -0.82601 -0.63862 2.60644
v -0.84804 -0.59303 2.59939
v -0.85265 -0.59499 2.58526
v -0.86456 -0.60365 2.58238
v -0.87185 -0.61035 2.59365
v -0.86724 -0.60839 2.60779
v -0.85533 -0.59973 2.61066
s 1
f 1 8 7
s 1
f 3 8 2
s 1
f 4 9 3
s 1
f 5 10 4
s 1
f 5 12 11
s 1
f 6 7 12
s 1
f 8 13 7
s 1
f 8 15 14
s 1
f 9 16 15
s 1
f 10 17 16
s 1
f 11 18 17
s 1
f 7 18 12
s 1
f 14 19 13
s 1
f 14 21 20
s 1
f 15 22 21
s 1
f 16 23 22
s 1
f 18 23 17
s 1
f 13 24 18
s 1
f 20 25 19
s 1
f 20 27 26
s 1
f 21 28 27
s 1
f 22 29 28
s 1
f 24 29 23
s 1
f 19 30 24
s 1
f 26 31 25
s 1
f 26 33 32
s 1
f 27 34 33
s 1
f 28 35 34
s 1
f 30 35 29
s 1
f 25 36 30
s 1
f 32 37 31
s 1
f 32 39 38
s 1
f 33 40 39
s 1
f 34 41 40
s 1
f 36 41 35
s 1
f 31 42 36
s 1
f 38 43 37
s 1
f 38 45 44
s 1
f 39 46 45
s 1
f 40 47 46
s 1
f 42 47 41
s 1
f 37 48 42
s 1
f 44 49 43
s 1
f 44 51 50
s 1
f 45 52 51
s 1
f 46 53 52
s 1
f 48 53 47
s 1
f 43 54 48
s 1
f 50 55 49
s 1
f 50 57 56
s 1
f 51 58 57
s 1
f 52 59 58
s 1
f 54 59 53
s 1
f 49 60 54
s 1
f 56 61 55
s 1
f 56 63 62
s 1
f 57 64 63
s 1
f 58 65 64
s 1
f 60 65 59
s 1
f 55 66 60
s 1
f 62 67 61
s 1
f 62 69 68
s 1
f 63 70 69
s 1
f 64 71 70
s 1
f 66 71 65
s 1
f 61 72 66
s 1
f 68 73 67
s 1
f 68 75 74
s 1
f 69 76 75
s 1
f 70 77 76
s 1
f 72 77 71
s 1
f 67 78 72
s 1
f 74 79 73
s 1
f 74 81 80
s 1
f 75 82 81
s 1
f 76 83 82
s 1
f 78 83 77
s 1
f 73 84 78
s 1
f 80 85 79
s 1
f 80 87 86
s 1
f 81 88 87
s 1
f 82 89 88
s 1
f 84 89 83
s 1
f 79 90 84
s 1
f 86 91 85
s 1
f 86 93 92
s 1
f 87 94 93
s 1
f 88 95 94
s 1
f 90 95 89
s 1
f 85 96 90
s 1
f 92 97 91
s 1
f 92 99 98
s 1
f 93 100 99
s 1
f 94 101 100
s 1
f 96 101 95
s 1
f 91 102 96
s 1
f 98 103 97
s 1
f 98 105 104
s 1
f 99 106 105
s 1
f 100 107 106
s 1
f 102 107 101
s 1
f 97 108 102
s 1
f 104 109 103
s 1
f 104 111 110
s 1
f 105 112 111
s 1
f 106 113 112
s 1
f 108 113 107
s 1
f 103 114 108
s 1
f 110 115 109
s 1
f 110 117 116
s 1
f 111 118 117
s 1
f 112 119 118
s 1
f 114 119 113
s 1
f 109 120 114
s 1
f 116 121 115
s 1
f 116 123 122
s 1
f 117 124 123
s 1
f 118 125 124
s 1
f 120 125 119
s 1
f 115 126 120
s 1
f 122 127 121
s 1
f 122 129 128
s 1
f 123 130 129
s 1
f 124 131 130
s 1
f 126 131 125
s 1
f 121 132 126
s 1
f 128 133 127
s 1
f 128 135 134
s 1
f 129 136 135
s 1
f 130 137 136
s 1
f 132 137 131
s 1
f 127 138 132
s 1
f 134 139 133
s 1
f 134 141 140
s 1
f 135 142 141
s 1
f 136 143 142
s 1
f 138 143 137
s 1
f 133 144 138
s 1
f 140 145 139
s 1
f 140 147 146
s 1
f 141 148 147
s 1
f 142 149 148
s 1
f 144 149 143
s 1
f 139 150 144
s 1
f 146 151 145
s 1
f 146 153 152
s 1
f 147 154 153
s 1
f 148 155 154
s 1
f 150 155 149
s 1
f 145 156 150
s 1
f 152 157 151
s 1
f 153 158 152
s 1
f 153 160 159
s 1
f 154 161 160
s 1
f 155 162 161
s 1
f 156 157 162
s 1
f 158 163 157
s 1
f 158 165 164
s 1
f 159 166 165
s 1
f 160 167 166
s 1
f 162 167 161
s 1
f 157 168 162
s 1
f 163 170 169
s 1
f 165 170 164
s 1
f 165 172 171
s 1
f 167 172 166
s 1
f 167 174 173
s 1
f 168 169 174
s 1
f 169 176 175
s 1
f 170 177 176
s 1
f 172 177 171
s 1
f 172 179 178
s 1
f 174 179 173
s 1
f 174 175 180
s 1
f 175 182 181
s 1
f 177 182 176
s 1
f 178 183 177
s 1
f 179 184 178
s 1
f 179 186 185
s 1
f 180 181 186
s 1
f 181 188 187
s 1
f 183 188 182
s 1
f 184 189 183
s 1
f 185 190 184
s 1
f 185 192 191
s 1
f 186 187 192
s 1
f 187 194 193
s 1
f 188 195 194
s 1
f 190 195 189
s 1
f 191 196 190
s 1
f 192 197 191
s 1
f 192 193 198
s 1
f 193 200 199
s 1
f 195 200 194
s 1
f 196 201 195
s 1
f 197 202 196
s 1
f 197 204 203
s 1
f 198 199 204
s 1
f 199 206 205
s 1
f 201 206 200
s 1
f 202 207 201
s 1
f 203 208 202
s 1
f 203 210 209
s 1
f 204 205 210
s 1
f 205 212 211
s 1
f 206 213 212
s 1
f 208 213 207
s 1
f 209 214 208
s 1
f 209 216 215
s 1
f 210 211 216
s 1
f 211 218 217
s 1
f 212 219 218
s 1
f 214 219 213
s 1
f 215 220 214
s 1
f 215 222 221
s 1
f 216 217 222
s 1
f 217 224 223
s 1
f 219 224 218
s 1
f 220 225 219
s 1
f 221 226 220
s 1
f 221 228 227
s 1
f 222 223 228
s 1
f 223 230 229
s 1
f 225 230 224
s 1
f 226 231 225
s 1
f 227 232 226
s 1
f 227 234 233
s 1
f 228 229 234
s 1
f 229 236 235
s 1
f 231 236 230
s 1
f 232 237 231
s 1
f 233 238 232
s 1
f 233 240 239
s 1
f 234 235 240
s 1
f 235 242 241
s 1
f 237 242 236
s 1
f 238 243 237
s 1
f 239 244 238
s 1
f 239 246 245
s 1
f 240 241 246
s 1
f 241 248 247
s 1
f 243 248 242
s 1
f 244 249 243
s 1
f 245 250 244
s 1
f 245 252 251
s 1
f 246 247 252
s 1
f 247 254 253
s 1
f 249 254 248
s 1
f 250 255 249
s 1
f 251 256 250
s 1
f 251 258 257
s 1
f 252 253 258
s 1
f 253 260 259
s 1
f 255 260 254
s 1
f 256 261 255
s 1
f 257 262 256
s 1
f 257 264 263
s 1
f 258 259 264
s 1
f 259 266 265
s 1
f 261 266 260
s 1
f 262 267 261
s 1
f 263 268 262
s 1
f 263 270 269
s 1
f 264 265 270
s 1
f 265 272 271
s 1
f 267 272 266
s 1
f 268 273 267
s 1
f 269 274 268
s 1
f 269 276 275
s 1
f 270 271 276
s 1
f 271 278 277
s 1
f 273 278 272
s 1
f 274 279 273
s 1
f 275 280 274
s 1
f 275 282 281
s 1
f 276 277 282
s 1
f 277 284 283
s 1
f 279 284 278
s 1
f 280 285 279
s 1
f 281 286 280
s 1
f 281 288 287
s 1
f 282 283 288
s 1
f 283 290 289
s 1
f 285 290 284
s 1
f 286 291 285
s 1
f 287 292 286
s 1
f 287 294 293
s 1
f 288 289 294
s 1
f 289 296 295
s 1
f 291 296 290
s 1
f 292 297 291
s 1
f 293 298 292
s 1
f 293 300 299
s 1
f 294 295 300
s 1
f 295 302 301
s 1
f 297 302 296
s 1
f 298 303 297
s 1
f 299 304 298
s 1
f 299 306 305
s 1
f 300 301 306
s 1
f 301 308 307
s 1
f 303 308 302
s 1
f 304 309 303
s 1
f 305 310 304
s 1
f 305 312 311
s 1
f 306 307 312
s 1
f 307 314 313
s 1
f 309 314 308
s 1
f 310 315 309
s 1
f 311 316 310
s 1
f 311 318 317
s 1
f 312 313 318
s 1
f 313 320 319
s 1
f 315 320 314
s 1
f 316 321 315
s 1
f 317 322 316
s 1
f 317 324 323
s 1
f 318 319 324
s 1
f 319 326 325
s 1
f 320 327 326
s 1
f 322 327 321
s 1
f 323 328 322
s 1
f 323 330 329
s 1
f 324 325 330
s 1
f 325 332 331
s 1
f 326 333 332
s 1
f 328 333 327
s 1
f 329 334 328
s 1
f 329 336 335
s 1
f 330 331 336
s 1
f 331 338 337
s 1
f 332 339 338
s 1
f 333 340 339
s 1
f 334 341 340
s 1
f 335 342 341
s 1
f 336 337 342
s 1
f 337 344 343
s 1
f 338 345 344
s 1
f 339 346 345
s 1
f 340 347 346
s 1
f 341 348 347
s 1
f 342 343 348
s 1
f 344 349 343
s 1
f 344 351 350
s 1
f 345 352 351
s 1
f 346 353 352
s 1
f 347 354 353
s 1
f 343 354 348
s 1
f 350 355 349
s 1
f 350 357 356
s 1
f 351 358 357
s 1
f 352 359 358
s 1
f 353 360 359
s 1
f 349 360 354
s 1
f 356 361 355
s 1
f 356 363 362
s 1
f 357 364 363
s 1
f 358 365 364
s 1
f 360 365 359
s 1
f 355 366 360
s 1
f 362 367 361
s 1
f 362 369 368
s 1
f 363 370 369
s 1
f 364 371 370
s 1
f 366 371 365
s 1
f 361 372 366
s 1
f 368 373 367
s 1
f 368 375 374
s 1
f 369 376 375
s 1
f 370 377 376
s 1
f 372 377 371
s 1
f 367 378 372
s 1
f 374 379 373
s 1
f 374 381 380
s 1
f 375 382 381
s 1
f 376 383 382
s 1
f 378 383 377
s 1
f 373 384 378
s 1
f 380 385 379
s 1
f 380 387 386
s 1
f 381 388 387
s 1
f 382 389 388
s 1
f 384 389 383
s 1
f 379 390 384
s 1
f 386 391 385
s 1
f 386 393 392
s 1
f 387 394 393
s 1
f 388 395 394
s 1
f 390 395 389
s 1
f 385 396 390
s 1
f 392 397 391
s 1
f 392 399 398
s 1
f 393 400 399
s 1
f 394 401 400
s 1
f 396 401 395
s 1
f 391 402 396
s 1
f 398 403 397
s 1
f 398 405 404
s 1
f 399 406 405
s 1
f 400 407 406
s 1
f 402 407 401
s 1
f 397 408 402
s 1
f 404 409 403
s 1
f 404 411 410
s 1
f 405 412 411
s 1
f 406 413 412
s 1
f 408 413 407
s 1
f 403 414 408
s 1
f 410 415 409
s 1
f 410 417 416
s 1
f 411 418 417
s 1
f 412 419 418
s 1
f 414 419 413
s 1
f 409 420 414
s 1
f 416 421 415
s 1
f 416 423 422
s 1
f 417 424 423
s 1
f 418 425 424
s 1
f 420 425 419
s 1
f 415 426 420
s 1
f 422 427 421
s 1
f 422 429 428
s 1
f 423 430 429
s 1
f 424 431 430
s 1
f 426 431 425
s 1
f 421 432 426
s 1
f 428 433 427
s 1
f 428 435 434
s 1
f 429 436 435
s 1
f 430 437 436
s 1
f 432 437 431
s 1
f 427 438 432
s 1
f 434 439 433
s 1
f 434 441 440
s 1
f 435 442 441
s 1
f 436 443 442
s 1
f 438 443 437
s 1
f 433 444 438
s 1
f 440 445 439
s 1
f 440 447 446
s 1
f 441 448 447
s 1
f 442 449 448
s 1
f 444 449 443
s 1
f 439 450 444
s 1
f 446 451 445
s 1
f 446 453 452
s 1
f 447 454 453
s 1
f 448 455 454
s 1
f 450 455 449
s 1
f 445 456 450
s 1
f 452 457 451
s 1
f 452 459 458
s 1
f 453 460 459
s 1
f 454 461 460
s 1
f 456 461 455
s 1
f 451 462 456
s 1
f 458 463 457
s 1
f 458 465 464
s 1
f 459 466 465
s 1
f 460 467 466
s 1
f 462 467 461
s 1
f 457 468 462
s 1
f 464 469 463
s 1
f 464 471 470
s 1
f 465 472 471
s 1
f 466 473 472
s 1
f 468 473 467
s 1
f 463 474 468
s 1
f 470 475 469
s 1
f 470 477 476
s 1
f 471 478 477
s 1
f 472 479 478
s 1
f 474 479 473
s 1
f 469 480 474
s 1
f 476 481 475
s 1
f 476 483 482
s 1
f 477 484 483
s 1
f 478 485 484
s 1
f 480 485 479
s 1
f 475 486 480
s 1
f 482 487 481
s 1
f 482 489 488
s 1
f 483 490 489
s 1
f 484 491 490
s 1
f 485 492 491
s 1
f 481 492 486
s 1
f 488 493 487
s 1
f 488 495 494
s 1
f 489 496 495
s 1
f 490 497 496
s 1
f 492 497 491
s 1
f 487 498 492
s 1
f 494 499 493
s 1
f 494 501 500
s 1
f 495 502 501
s 1
f 496 503 502
s 1
f 497 504 503
s 1
f 493 504 498
s 1
f 500 505 499
s 1
f 500 507 506
s 1
f 502 507 501
s 1
f 502 509 508
s 1
f 504 509 503
s 1
f 499 510 504
s 1
f 506 511 505
s 1
f 507 512 506
s 1
f 508 513 507
s 1
f 508 515 514
s 1
f 509 516 515
s 1
f 510 511 516
s 1
f 511 518 517
s 1
f 512 519 518
s 1
f 514 519 513
s 1
f 515 520 514
s 1
f 516 521 515
s 1
f 516 517 522
s 1
f 517 524 523
s 1
f 519 524 518
s 1
f 520 525 519
s 1
f 521 526 520
s 1
f 522 527 521
s 1
f 522 523 528
s 1
f 523 530 529
s 1
f 525 530 524
s 1
f 526 531 525
s 1
f 527 532 526
s 1
f 527 534 533
s 1
f 528 529 534
s 1
f 529 536 535
s 1
f 531 536 530
s 1
f 532 537 531
s 1
f 533 538 532
s 1
f 533 540 539
s 1
f 534 535 540
s 1
f 535 542 541
s 1
f 537 542 536
s 1
f 538 543 537
s 1
f 539 544 538
s 1
f 539 546 545
s 1
f 540 541 546
s 1
f 541 548 547
s 1
f 543 548 542
s 1
f 544 549 543
s 1
f 545 550 544
s 1
f 545 552 551
s 1
f 546 547 552
s 1
f 547 554 553
s 1
f 549 554 548
s 1
f 550 555 549
s 1
f 551 556 550
s 1
f 551 558 557
s 1
f 552 553 558
s 1
f 553 560 559
s 1
f 555 560 554
s 1
f 556 561 555
s 1
f 557 562 556
s 1
f 557 564 563
s 1
f 558 559 564
s 1
f 559 566 565
s 1
f 561 566 560
s 1
f 562 567 561
s 1
f 563 568 562
s 1
f 563 570 569
s 1
f 564 565 570
s 1
f 565 572 571
s 1
f 567 572 566
s 1
f 568 573 567
s 1
f 569 574 568
s 1
f 569 576 575
s 1
f 570 571 576
s 1
f 571 578 577
s 1
f 573 578 572
s 1
f 574 579 573
s 1
f 575 580 574
s 1
f 575 582 581
s 1
f 576 577 582
s 1
f 577 584 583
s 1
f 579 584 578
s 1
f 580 585 579
s 1
f 581 586 580
s 1
f 581 588 587
s 1
f 582 583 588
s 1
f 583 590 589
s 1
f 585 590 584
s 1
f 586 591 585
s 1
f 587 592 586
s 1
f 587 594 593
s 1
f 588 589 594
s 1
f 589 596 595
s 1
f 591 596 590
s 1
f 592 597 591
s 1
f 593 598 592
s 1
f 593 600 599
s 1
f 594 595 600
s 1
f 595 602 601
s 1
f 597 602 596
s 1
f 598 603 597
s 1
f 599 604 598
s 1
f 599 606 605
s 1
f 600 601 606
s 1
f 601 608 607
s 1
f 603 608 602
s 1
f 604 609 603
s 1
f 605 610 604
s 1
f 605 612 611
s 1
f 606 607 612
s 1
f 607 614 613
s 1
f 609 614 608
s 1
f 610 615 609
s 1
f 611 616 610
s 1
f 611 618 617
s 1
f 612 613 618
s 1
f 613 620 619
s 1
f 615 620 614
s 1
f 616 621 615
s 1
f 617 622 616
s 1
f 617 624 623
s 1
f 618 619 624
s 1
f 619 626 625
s 1
f 621 626 620
s 1
f 622 627 621
s 1
f 623 628 622
s 1
f 623 630 629
s 1
f 624 625 630
s 1
f 625 632 631
s 1
f 627 632 626
s 1
f 628 633 627
s 1
f 629 634 628
s 1
f 629 636 635
s 1
f 630 631 636
s 1
f 631 638 637
s 1
f 633 638 632
s 1
f 634 639 633
s 1
f 635 640 634
s 1
f 635 642 641
s 1
f 636 637 642
s 1
f 637 644 643
s 1
f 639 644 638
s 1
f 640 645 639
s 1
f 641 646 640
s 1
f 641 648 647
s 1
f 642 643 648
s 1
f 643 650 649
s 1
f 645 650 644
s 1
f 646 651 645
s 1
f 647 652 646
s 1
f 647 654 653
s 1
f 648 649 654
s 1
f 649 656 655
s 1
f 651 656 650
s 1
f 652 657 651
s 1
f 653 658 652
s 1
f 653 660 659
s 1
f 654 655 660
s 1
f 655 662 661
s 1
f 656 663 662
s 1
f 658 663 657
s 1
f 659 664 658
s 1
f 659 666 665
s 1
f 660 661 666
s 1
f 661 668 667
s 1
f 662 669 668
s 1
f 664 669 663
s 1
f 665 670 664
s 1
f 665 672 671
s 1
f 666 667 672
s 1
f 668 673 667
s 1
f 668 675 674
s 1
f 669 676 675
s 1
f 670 677 676
s 1
f 672 677 671
s 1
f 667 678 672
s 1
f 1 2 8
s 1
f 3 9 8
s 1
f 4 10 9
s 1
f 5 11 10
s 1
f 5 6 12
s 1
f 6 1 7
s 1
f 8 14 13
s 1
f 8 9 15
s 1
f 9 10 16
s 1
f 10 11 17
s 1
f 11 12 18
s 1
f 7 13 18
s 1
f 14 20 19
s 1
f 14 15 21
s 1
f 15 16 22
s 1
f 16 17 23
s 1
f 18 24 23
s 1
f 13 19 24
s 1
f 20 26 25
s 1
f 20 21 27
s 1
f 21 22 28
s 1
f 22 23 29
s 1
f 24 30 29
s 1
f 19 25 30
s 1
f 26 32 31
s 1
f 26 27 33
s 1
f 27 28 34
s 1
f 28 29 35
s 1
f 30 36 35
s 1
f 25 31 36
s 1
f 32 38 37
s 1
f 32 33 39
s 1
f 33 34 40
s 1
f 34 35 41
s 1
f 36 42 41
s 1
f 31 37 42
s 1
f 38 44 43
s 1
f 38 39 45
s 1
f 39 40 46
s 1
f 40 41 47
s 1
f 42 48 47
s 1
f 37 43 48
s 1
f 44 50 49
s 1
f 44 45 51
s 1
f 45 46 52
s 1
f 46 47 53
s 1
f 48 54 53
s 1
f 43 49 54
s 1
f 50 56 55
s 1
f 50 51 57
s 1
f 51 52 58
s 1
f 52 53 59
s 1
f 54 60 59
s 1
f 49 55 60
s 1
f 56 62 61
s 1
f 56 57 63
s 1
f 57 58 64
s 1
f 58 59 65
s 1
f 60 66 65
s 1
f 55 61 66
s 1
f 62 68 67
s 1
f 62 63 69
s 1
f 63 64 70
s 1
f 64 65 71
s 1
f 66 72 71
s 1
f 61 67 72
s 1
f 68 74 73
s 1
f 68 69 75
s 1
f 69 70 76
s 1
f 70 71 77
s 1
f 72 78 77
s 1
f 67 73 78
s 1
f 74 80 79
s 1
f 74 75 81
s 1
f 75 76 82
s 1
f 76 77 83
s 1
f 78 84 83
s 1
f 73 79 84
s 1
f 80 86 85
s 1
f 80 81 87
s 1
f 81 82 88
s 1
f 82 83 89
s 1
f 84 90 89
s 1
f 79 85 90
s 1
f 86 92 91
s 1
f 86 87 93
s 1
f 87 88 94
s 1
f 88 89 95
s 1
f 90 96 95
s 1
f 85 91 96
s 1
f 92 98 97
s 1
f 92 93 99
s 1
f 93 94 100
s 1
f 94 95 101
s 1
f 96 102 101
s 1
f 91 97 102
s 1
f 98 104 103
s 1
f 98 99 105
s 1
f 99 100 106
s 1
f 100 101 107
s 1
f 102 108 107
s 1
f 97 103 108
s 1
f 104 110 109
s 1
f 104 105 111
s 1
f 105 106 112
s 1
f 106 107 113
s 1
f 108 114 113
s 1
f 103 109 114
s 1
f 110 116 115
s 1
f 110 111 117
s 1
f 111 112 118
s 1
f 112 113 119
s 1
f 114 120 119
s 1
f 109 115 120
s 1
f 116 122 121
s 1
f 116 117 123
s 1
f 117 118 124
s 1
f 118 119 125
s 1
f 120 126 125
s 1
f 115 121 126
s 1
f 122 128 127
s 1
f 122 123 129
s 1
f 123 124 130
s 1
f 124 125 131
s 1
f 126 132 131
s 1
f 121 127 132
s 1
f 128 134 133
s 1
f 128 129 135
s 1
f 129 130 136
s 1
f 130 131 137
s 1
f 132 138 137
s 1
f 127 133 138
s 1
f 134 140 139
s 1
f 134 135 141
s 1
f 135 136 142
s 1
f 136 137 143
s 1
f 138 144 143
s 1
f 133 139 144
s 1
f 140 146 145
s 1
f 140 141 147
s 1
f 141 142 148
s 1
f 142 143 149
s 1
f 144 150 149
s 1
f 139 145 150
s 1
f 146 152 151
s 1
f 146 147 153
s 1
f 147 148 154
s 1
f 148 149 155
s 1
f 150 156 155
s 1
f 145 151 156
s 1
f 152 158 157
s 1
f 153 159 158
s 1
f 153 154 160
s 1
f 154 155 161
s 1
f 155 156 162
s 1
f 156 151 157
s 1
f 158 164 163
s 1
f 158 159 165
s 1
f 159 160 166
s 1
f 160 161 167
s 1
f 162 168 167
s 1
f 157 163 168
s 1
f 163 164 170
s 1
f 165 171 170
s 1
f 165 166 172
s 1
f 167 173 172
s 1
f 167 168 174
s 1
f 168 163 169
s 1
f 169 170 176
s 1
f 170 171 177
s 1
f 172 178 177
s 1
f 172 173 179
s 1
f 174 180 179
s 1
f 174 169 175
s 1
f 175 176 182
s 1
f 177 183 182
s 1
f 178 184 183
s 1
f 179 185 184
s 1
f 179 180 186
s 1
f 180 175 181
s 1
f 181 182 188
s 1
f 183 189 188
s 1
f 184 190 189
s 1
f 185 191 190
s 1
f 185 186 192
s 1
f 186 181 187
s 1
f 187 188 194
s 1
f 188 189 195
s 1
f 190 196 195
s 1
f 191 197 196
s 1
f 192 198 197
s 1
f 192 187 193
s 1
f 193 194 200
s 1
f 195 201 200
s 1
f 196 202 201
s 1
f 197 203 202
s 1
f 197 198 204
s 1
f 198 193 199
s 1
f 199 200 206
s 1
f 201 207 206
s 1
f 202 208 207
s 1
f 203 209 208
s 1
f 203 204 210
s 1
f 204 199 205
s 1
f 205 206 212
s 1
f 206 207 213
s 1
f 208 214 213
s 1
f 209 215 214
s 1
f 209 210 216
s 1
f 210 205 211
s 1
f 211 212 218
s 1
f 212 213 219
s 1
f 214 220 219
s 1
f 215 221 220
s 1
f 215 216 222
s 1
f 216 211 217
s 1
f 217 218 224
s 1
f 219 225 224
s 1
f 220 226 225
s 1
f 221 227 226
s 1
f 221 222 228
s 1
f 222 217 223
s 1
f 223 224 230
s 1
f 225 231 230
s 1
f 226 232 231
s 1
f 227 233 232
s 1
f 227 228 234
s 1
f 228 223 229
s 1
f 229 230 236
s 1
f 231 237 236
s 1
f 232 238 237
s 1
f 233 239 238
s 1
f 233 234 240
s 1
f 234 229 235
s 1
f 235 236 242
s 1
f 237 243 242
s 1
f 238 244 243
s 1
f 239 245 244
s 1
f 239 240 246
s 1
f 240 235 241
s 1
f 241 242 248
s 1
f 243 249 248
s 1
f 244 250 249
s 1
f 245 251 250
s 1
f 245 246 252
s 1
f 246 241 247
s 1
f 247 248 254
s 1
f 249 255 254
s 1
f 250 256 255
s 1
f 251 257 256
s 1
f 251 252 258
s 1
f 252 247 253
s 1
f 253 254 260
s 1
f 255 261 260
s 1
f 256 262 261
s 1
f 257 263 262
s 1
f 257 258 264
s 1
f 258 253 259
s 1
f 259 260 266
s 1
f 261 267 266
s 1
f 262 268 267
s 1
f 263 269 268
s 1
f 263 264 270
s 1
f 264 259 265
s 1
f 265 266 272
s 1
f 267 273 272
s 1
f 268 274 273
s 1
f 269 275 274
s 1
f 269 270 276
s 1
f 270 265 271
s 1
f 271 272 278
s 1
f 273 279 278
s 1
f 274 280 279
s 1
f 275 281 280
s 1
f 275 276 282
s 1
f 276 271 277
s 1
f 277 278 284
s 1
f 279 285 284
s 1
f 280 286 285
s 1
f 281 287 286
s 1
f 281 282 288
s 1
f 282 277 283
s 1
f 283 284 290
s 1
f 285 291 290
s 1
f 286 292 291
s 1
f 287 293 292
s 1
f 287 288 294
s 1
f 288 283 289
s 1
f 289 290 296
s 1
f 291 297 296
s 1
f 292 298 297
s 1
f 293 299 298
s 1
f 293 294 300
s 1
f 294 289 295
s 1
f 295 296 302
s 1
f 297 303 302
s 1
f 298 304 303
s 1
f 299 305 304
s 1
f 299 300 306
s 1
f 300 295 301
s 1
f 301 302 308
s 1
f 303 309 308
s 1
f 304 310 309
s 1
f 305 311 310
s 1
f 305 306 312
s 1
f 306 301 307
s 1
f 307 308 314
s 1
f 309 315 314
s 1
f 310 316 315
s 1
f 311 317 316
s 1
f 311 312 318
s 1
f 312 307 313
s 1
f 313 314 320
s 1
f 315 321 320
s 1
f 316 322 321
s 1
f 317 323 322
s 1
f 317 318 324
s 1
f 318 313 319
s 1
f 319 320 326
s 1
f 320 321 327
s 1
f 322 328 327
s 1
f 323 329 328
s 1
f 323 324 330
s 1
f 324 319 325
s 1
f 325 326 332
s 1
f 326 327 333
s 1
f 328 334 333
s 1
f 329 335 334
s 1
f 329 330 336
s 1
f 330 325 331
s 1
f 331 332 338
s 1
f 332 333 339
s 1
f 333 334 340
s 1
f 334 335 341
s 1
f 335 336 342
s 1
f 336 331 337
s 1
f 337 338 344
s 1
f 338 339 345
s 1
f 339 340 346
s 1
f 340 341 347
s 1
f 341 342 348
s 1
f 342 337 343
s 1
f 344 350 349
s 1
f 344 345 351
s 1
f 345 346 352
s 1
f 346 347 353
s 1
f 347 348 354
s 1
f 343 349 354
s 1
f 350 356 355
s 1
f 350 351 357
s 1
f 351 352 358
s 1
f 352 353 359
s 1
f 353 354 360
s 1
f 349 355 360
s 1
f 356 362 361
s 1
f 356 357 363
s 1
f 357 358 364
s 1
f 358 359 365
s 1
f 360 366 365
s 1
f 355 361 366
s 1
f 362 368 367
s 1
f 362 363 369
s 1
f 363 364 370
s 1
f 364 365 371
s 1
f 366 372 371
s 1
f 361 367 372
s 1
f 368 374 373
s 1
f 368 369 375
s 1
f 369 370 376
s 1
f 370 371 377
s 1
f 372 378 377
s 1
f 367 373 378
s 1
f 374 380 379
s 1
f 374 375 381
s 1
f 375 376 382
s 1
f 376 377 383
s 1
f 378 384 383
s 1
f 373 379 384
s 1
f 380 386 385
s 1
f 380 381 387
s 1
f 381 382 388
s 1
f 382 383 389
s 1
f 384 390 389
s 1
f 379 385 390
s 1
f 386 392 391
s 1
f 386 387 393
s 1
f 387 388 394
s 1
f 388 389 395
s 1
f 390 396 395
s 1
f 385 391 396
s 1
f 392 398 397
s 1
f 392 393 399
s 1
f 393 394 400
s 1
f 394 395 401
s 1
f 396 402 401
s 1
f 391 397 402
s 1
f 398 404 403
s 1
f 398 399 405
s 1
f 399 400 406
s 1
f 400 401 407
s 1
f 402 408 407
s 1
f 397 403 408
s 1
f 404 410 409
s 1
f 404 405 411
s 1
f 405 406 412
s 1
f 406 407 413
s 1
f 408 414 413
s 1
f 403 409 414
s 1
f 410 416 415
s 1
f 410 411 417
s 1
f 411 412 418
s 1
f 412 413 419
s 1
f 414 420 419
s 1
f 409 415 420
s 1
f 416 422 421
s 1
f 416 417 423
s 1
f 417 418 424
s 1
f 418 419 425
s 1
f 420 426 425
s 1
f 415 421 426
s 1
f 422 428 427
s 1
f 422 423 429
s 1
f 423 424 430
s 1
f 424 425 431
s 1
f 426 432 431
s 1
f 421 427 432
s 1
f 428 434 433
s 1
f 428 429 435
s 1
f 429 430 436
s 1
f 430 431 437
s 1
f 432 438 437
s 1
f 427 433 438
s 1
f 434 440 439
s 1
f 434 435 441
s 1
f 435 436 442
s 1
f 436 437 443
s 1
f 438 444 443
s 1
f 433 439 444
s 1
f 440 446 445
s 1
f 440 441 447
s 1
f 441 442 448
s 1
f 442 443 449
s 1
f 444 450 449
s 1
f 439 445 450
s 1
f 446 452 451
s 1
f 446 447 453
s 1
f 447 448 454
s 1
f 448 449 455
s 1
f 450 456 455
s 1
f 445 451 456
s 1
f 452 458 457
s 1
f 452 453 459
s 1
f 453 454 460
s 1
f 454 455 461
s 1
f 456 462 461
s 1
f 451 457 462
s 1
f 458 464 463
s 1
f 458 459 465
s 1
f 459 460 466
s 1
f 460 461 467
s 1
f 462 468 467
s 1
f 457 463 468
s 1
f 464 470 469
s 1
f 464 465 471
s 1
f 465 466 472
s 1
f 466 467 473
s 1
f 468 474 473
s 1
f 463 469 474
s 1
f 470 476 475
s 1
f 470 471 477
s 1
f 471 472 478
s 1
f 472 473 479
s 1
f 474 480 479
s 1
f 469 475 480
s 1
f 476 482 481
s 1
f 476 477 483
s 1
f 477 478 484
s 1
f 478 479 485
s 1
f 480 486 485
s 1
f 475 481 486
s 1
f 482 488 487
s 1
f 482 483 489
s 1
f 483 484 490
s 1
f 484 485 491
s 1
f 485 486 492
s 1
f 481 487 492
s 1
f 488 494 493
s 1
f 488 489 495
s 1
f 489 490 496
s 1
f 490 491 497
s 1
f 492 498 497
s 1
f 487 493 498
s 1
f 494 500 499
s 1
f 494 495 501
s 1
f 495 496 502
s 1
f 496 497 503
s 1
f 497 498 504
s 1
f 493 499 504
s 1
f 500 506 505
s 1
f 500 501 507
s 1
f 502 508 507
s 1
f 502 503 509
s 1
f 504 510 509
s 1
f 499 505 510
s 1
f 506 512 511
s 1
f 507 513 512
s 1
f 508 514 513
s 1
f 508 509 515
s 1
f 509 510 516
s 1
f 510 505 511
s 1
f 511 512 518
s 1
f 512 513 519
s 1
f 514 520 519
s 1
f 515 521 520
s 1
f 516 522 521
s 1
f 516 511 517
s 1
f 517 518 524
s 1
f 519 525 524
s 1
f 520 526 525
s 1
f 521 527 526
s 1
f 522 528 527
s 1
f 522 517 523
s 1
f 523 524 530
s 1
f 525 531 530
s 1
f 526 532 531
s 1
f 527 533 532
s 1
f 527 528 534
s 1
f 528 523 529
s 1
f 529 530 536
s 1
f 531 537 536
s 1
f 532 538 537
s 1
f 533 539 538
s 1
f 533 534 540
s 1
f 534 529 535
s 1
f 535 536 542
s 1
f 537 543 542
s 1
f 538 544 543
s 1
f 539 545 544
s 1
f 539 540 546
s 1
f 540 535 541
s 1
f 541 542 548
s 1
f 543 549 548
s 1
f 544 550 549
s 1
f 545 551 550
s 1
f 545 546 552
s 1
f 546 541 547
s 1
f 547 548 554
s 1
f 549 555 554
s 1
f 550 556 555
s 1
f 551 557 556
s 1
f 551 552 558
s 1
f 552 547 553
s 1
f 553 554 560
s 1
f 555 561 560
s 1
f 556 562 561
s 1
f 557 563 562
s 1
f 557 558 564
s 1
f 558 553 559
s 1
f 559 560 566
s 1
f 561 567 566
s 1
f 562 568 567
s 1
f 563 569 568
s 1
f 563 564 570
s 1
f 564 559 565
s 1
f 565 566 572
s 1
f 567 573 572
s 1
f 568 574 573
s 1
f 569 575 574
s 1
f 569 570 576
s 1
f 570 565 571
s 1
f 571 572 578
s 1
f 573 579 578
s 1
f 574 580 579
s 1
f 575 581 580
s 1
f 575 576 582
s 1
f 576 571 577
s 1
f 577 578 584
s 1
f 579 585 584
s 1
f 580 586 585
s 1
f 581 587 586
s 1
f 581 582 588
s 1
f 582 577 583
s 1
f 583 584 590
s 1
f 585 591 590
s 1
f 586 592 591
s 1
f 587 593 592
s 1
f 587 588 594
s 1
f 588 583 589
s 1
f 589 590 596
s 1
f 591 597 596
s 1
f 592 598 597
s 1
f 593 599 598
s 1
f 593 594 600
s 1
f 594 589 595
s 1
f 595 596 602
s 1
f 597 603 602
s 1
f 598 604 603
s 1
f 599 605 604
s 1
f 599 600 606
s 1
f 600 595 601
s 1
f 601 602 608
s 1
f 603 609 608
s 1
f 604 610 609
s 1
f 605 611 610
s 1
f 605 606 612
s 1
f 606 601 607
s 1
f 607 608 614
s 1
f 609 615 614
s 1
f 610 616 615
s 1
f 611 617 616
s 1
f 611 612 618
s 1
f 612 607 613
s 1
f 613 614 620
s 1
f 615 621 620
s 1
f 616 622 621
s 1
f 617 623 622
s 1
f 617 618 624
s 1
f 618 613 619
s 1
f 619 620 626
s 1
f 621 627 626
s 1
f 622 628 627
s 1
f 623 629 628
s 1
f 623 624 630
s 1
f 624 619 625
s 1
f 625 626 632
s 1
f 627 633 632
s 1
f 628 634 633
s 1
f 629 635 634
s 1
f 629 630 636
s 1
f 630 625 631
s 1
f 631 632 638
s 1
f 633 639 638
s 1
f 634 640 639
s 1
f 635 641 640
s 1
f 635 636 642
s 1
f 636 631 637
s 1
f 637 638 644
s 1
f 639 645 644
s 1
f 640 646 645
s 1
f 641 647 646
s 1
f 641 642 648
s 1
f 642 637 643
s 1
f 643 644 650
s 1
f 645 651 650
s 1
f 646 652 651
s 1
f 647 653 652
s 1
f 647 648 654
s 1
f 648 643 649
s 1
f 649 650 656
s 1
f 651 657 656
s 1
f 652 658 657
s 1
f 653 659 658
s 1
f 653 654 660
s 1
f 654 649 655
s 1
f 655 656 662
s 1
f 656 657 663
s 1
f 658 664 663
s 1
f 659 665 664
s 1
f 659 660 666
s 1
f 660 655 661
s 1
f 661 662 668
s 1
f 662 663 669
s 1
f 664 670 669
s 1
f 665 671 670
s 1
f 665 666 672
s 1
f 666 661 667
s 1
f 668 674 673
s 1
f 668 669 675
s 1
f 669 670 676
s 1
f 670 671 677
s 1
f 672 678 677
s 1
f 667 673 678
