# eclipse Orbit2_OrbitTip.obj: Roblox cue frame, recentred on its bounding box
v -0.79184 -0.74769 2.30368
v -0.80367 -0.75832 2.27486
v -0.83109 -0.77553 2.28085
v -0.83620 -0.77553 2.31337
v -0.81194 -0.75832 2.32748
v -0.82042 -0.71010 2.29924
v -0.82988 -0.72079 2.27422
v -0.85461 -0.73466 2.27925
v -0.86044 -0.73255 2.30738
v -0.83931 -0.71737 2.31973
v -0.84614 -0.67095 2.28682
v -0.85290 -0.68238 2.26601
v -0.87518 -0.69237 2.26967
v -0.88219 -0.68711 2.29275
v -0.86424 -0.67388 2.30335
v -0.86924 -0.62984 2.26625
v -0.87402 -0.64104 2.24968
v -0.89325 -0.64797 2.25202
v -0.90035 -0.64105 2.27004
v -0.88551 -0.62984 2.27884
v -0.88957 -0.58693 2.23752
v -0.89292 -0.59702 2.22497
v -0.90867 -0.60164 2.22621
v -0.91505 -0.59440 2.23954
v -0.90325 -0.58530 2.24653
v -0.90703 -0.54243 2.20070
v -0.90931 -0.55069 2.19182
v -0.92130 -0.55360 2.19229
v -0.92643 -0.54712 2.20146
v -0.91761 -0.54022 2.20666
v -0.92153 -0.49654 2.15588
v -0.92295 -0.50242 2.15031
v -0.93101 -0.50406 2.15033
v -0.93458 -0.49919 2.15593
v -0.92872 -0.49454 2.15936
v -0.93300 -0.44945 2.10322
v -0.93369 -0.45247 2.10051
v -0.93774 -0.45322 2.10045
v -0.93954 -0.45067 2.10313
v -0.93661 -0.44834 2.10484
v -0.81495 -0.76308 2.30005
v -0.93612 -0.45083 2.10243
v 0.03241 0.76690 -1.55014
v 0.05729 0.74759 -1.54057
v 0.04884 0.71636 -1.54660
v 0.01873 0.71636 -1.55990
v 0.00858 0.74759 -1.56209
v 0.08801 0.77264 -1.67599
v 0.10966 0.75573 -1.66734
v 0.10217 0.72839 -1.67243
v 0.07590 0.72840 -1.68423
v 0.06714 0.75575 -1.68643
v 0.14353 0.77553 -1.79764
v 0.16186 0.76101 -1.78973
v 0.15529 0.73755 -1.79376
v 0.13290 0.73758 -1.80415
v 0.12563 0.76105 -1.80655
v 0.19870 0.77552 -1.91445
v 0.21376 0.76340 -1.90743
v 0.20814 0.74385 -1.91048
v 0.18960 0.74388 -1.91939
v 0.18376 0.76346 -1.92185
v 0.25333 0.77261 -2.02606
v 0.26520 0.76291 -2.02006
v 0.26057 0.74727 -2.02225
v 0.24584 0.74730 -2.02959
v 0.24137 0.76296 -2.03195
v 0.30724 0.76679 -2.13209
v 0.31599 0.75952 -2.12729
v 0.31241 0.74780 -2.12872
v 0.30145 0.74782 -2.13440
v 0.29826 0.75956 -2.13649
v 0.36026 0.75809 -2.23221
v 0.36597 0.75325 -2.22879
v 0.36350 0.74544 -2.22959
v 0.35626 0.74545 -2.23350
v 0.35426 0.75327 -2.23512
v 0.41217 0.74652 -2.32602
v 0.41499 0.74411 -2.32425
v 0.41374 0.74021 -2.32461
v 0.41014 0.74021 -2.32660
v 0.40917 0.74412 -2.32748
v 0.03317 0.73896 -1.55186
v 0.41204 0.74303 -2.32579
v 0.91206 -0.40476 -1.66755
v 0.88753 -0.42284 -1.68000
v 0.89986 -0.45210 -1.68870
v 0.93200 -0.45210 -1.68162
v 0.93954 -0.42284 -1.66855
v 0.88475 -0.45687 -1.54354
v 0.86329 -0.47269 -1.55443
v 0.87402 -0.49839 -1.56176
v 0.90211 -0.49846 -1.55541
v 0.90874 -0.47279 -1.54415
v 0.85483 -0.50793 -1.41569
v 0.83643 -0.52150 -1.42501
v 0.84551 -0.54370 -1.43084
v 0.86953 -0.54386 -1.42512
v 0.87528 -0.52175 -1.41575
v 0.82232 -0.55790 -1.28416
v 0.80698 -0.56920 -1.29192
v 0.81446 -0.58783 -1.29642
v 0.83442 -0.58804 -1.29143
v 0.83928 -0.56954 -1.28386
v 0.78734 -0.60661 -1.14940
v 0.77506 -0.61565 -1.15560
v 0.78097 -0.63065 -1.15891
v 0.79690 -0.63087 -1.15476
v 0.80083 -0.61601 -1.14888
v 0.74998 -0.65391 -1.01183
v 0.74078 -0.66070 -1.01647
v 0.74515 -0.67201 -1.01876
v 0.75706 -0.67222 -1.01552
v 0.76005 -0.66103 -1.01124
v 0.71038 -0.69967 -0.87190
v 0.70424 -0.70419 -0.87499
v 0.70712 -0.71177 -0.87638
v 0.71504 -0.71194 -0.87415
v 0.71705 -0.70445 -0.87138
v 0.66865 -0.74375 -0.73003
v 0.66558 -0.74601 -0.73157
v 0.66701 -0.74981 -0.73224
v 0.67096 -0.74990 -0.73110
v 0.67198 -0.74615 -0.72974
v 0.91420 -0.43093 -1.67729
v 0.66883 -0.74712 -0.73093
s 1
f 1 7 6
s 1
f 3 7 2
s 1
f 4 8 3
s 1
f 5 9 4
s 1
f 5 6 10
s 1
f 6 12 11
s 1
f 7 13 12
s 1
f 8 14 13
s 1
f 9 15 14
s 1
f 10 11 15
s 1
f 11 17 16
s 1
f 12 18 17
s 1
f 13 19 18
s 1
f 14 20 19
s 1
f 11 20 15
s 1
f 17 21 16
s 1
f 17 23 22
s 1
f 18 24 23
s 1
f 19 25 24
s 1
f 16 25 20
s 1
f 22 26 21
s 1
f 22 28 27
s 1
f 23 29 28
s 1
f 24 30 29
s 1
f 21 30 25
s 1
f 27 31 26
s 1
f 27 33 32
s 1
f 28 34 33
s 1
f 29 35 34
s 1
f 26 35 30
s 1
f 32 36 31
s 1
f 32 38 37
s 1
f 33 39 38
s 1
f 34 40 39
s 1
f 31 40 35
s 1
f 41 2 1
s 1
f 41 3 2
s 1
f 41 4 3
s 1
f 41 5 4
s 1
f 41 1 5
s 1
f 36 37 42
s 1
f 37 38 42
s 1
f 38 39 42
s 1
f 39 40 42
s 1
f 40 36 42
s 1
f 43 49 48
s 1
f 44 50 49
s 1
f 46 50 45
s 1
f 47 51 46
s 1
f 43 52 47
s 1
f 48 54 53
s 1
f 49 55 54
s 1
f 51 55 50
s 1
f 52 56 51
s 1
f 48 57 52
s 1
f 53 59 58
s 1
f 54 60 59
s 1
f 56 60 55
s 1
f 57 61 56
s 1
f 53 62 57
s 1
f 58 64 63
s 1
f 59 65 64
s 1
f 61 65 60
s 1
f 62 66 61
s 1
f 58 67 62
s 1
f 63 69 68
s 1
f 64 70 69
s 1
f 66 70 65
s 1
f 67 71 66
s 1
f 63 72 67
s 1
f 68 74 73
s 1
f 69 75 74
s 1
f 71 75 70
s 1
f 72 76 71
s 1
f 68 77 72
s 1
f 74 78 73
s 1
f 75 79 74
s 1
f 75 81 80
s 1
f 76 82 81
s 1
f 77 78 82
s 1
f 83 44 43
s 1
f 83 45 44
s 1
f 83 46 45
s 1
f 83 47 46
s 1
f 83 43 47
s 1
f 78 79 84
s 1
f 79 80 84
s 1
f 80 81 84
s 1
f 81 82 84
s 1
f 82 78 84
s 1
f 86 90 85
s 1
f 87 91 86
s 1
f 88 92 87
s 1
f 88 94 93
s 1
f 89 90 94
s 1
f 90 96 95
s 1
f 91 97 96
s 1
f 92 98 97
s 1
f 94 98 93
s 1
f 90 99 94
s 1
f 95 101 100
s 1
f 96 102 101
s 1
f 97 103 102
s 1
f 99 103 98
s 1
f 95 104 99
s 1
f 100 106 105
s 1
f 101 107 106
s 1
f 102 108 107
s 1
f 104 108 103
s 1
f 100 109 104
s 1
f 105 111 110
s 1
f 106 112 111
s 1
f 108 112 107
s 1
f 109 113 108
s 1
f 105 114 109
s 1
f 110 116 115
s 1
f 111 117 116
s 1
f 112 118 117
s 1
f 114 118 113
s 1
f 110 119 114
s 1
f 115 121 120
s 1
f 116 122 121
s 1
f 117 123 122
s 1
f 119 123 118
s 1
f 115 124 119
s 1
f 125 86 85
s 1
f 125 87 86
s 1
f 125 88 87
s 1
f 125 89 88
s 1
f 125 85 89
s 1
f 120 121 126
s 1
f 121 122 126
s 1
f 122 123 126
s 1
f 123 124 126
s 1
f 124 120 126
s 1
f 1 2 7
s 1
f 3 8 7
s 1
f 4 9 8
s 1
f 5 10 9
s 1
f 5 1 6
s 1
f 6 7 12
s 1
f 7 8 13
s 1
f 8 9 14
s 1
f 9 10 15
s 1
f 10 6 11
s 1
f 11 12 17
s 1
f 12 13 18
s 1
f 13 14 19
s 1
f 14 15 20
s 1
f 11 16 20
s 1
f 17 22 21
s 1
f 17 18 23
s 1
f 18 19 24
s 1
f 19 20 25
s 1
f 16 21 25
s 1
f 22 27 26
s 1
f 22 23 28
s 1
f 23 24 29
s 1
f 24 25 30
s 1
f 21 26 30
s 1
f 27 32 31
s 1
f 27 28 33
s 1
f 28 29 34
s 1
f 29 30 35
s 1
f 26 31 35
s 1
f 32 37 36
s 1
f 32 33 38
s 1
f 33 34 39
s 1
f 34 35 40
s 1
f 31 36 40
s 1
f 43 44 49
s 1
f 44 45 50
s 1
f 46 51 50
s 1
f 47 52 51
s 1
f 43 48 52
s 1
f 48 49 54
s 1
f 49 50 55
s 1
f 51 56 55
s 1
f 52 57 56
s 1
f 48 53 57
s 1
f 53 54 59
s 1
f 54 55 60
s 1
f 56 61 60
s 1
f 57 62 61
s 1
f 53 58 62
s 1
f 58 59 64
s 1
f 59 60 65
s 1
f 61 66 65
s 1
f 62 67 66
s 1
f 58 63 67
s 1
f 63 64 69
s 1
f 64 65 70
s 1
f 66 71 70
s 1
f 67 72 71
s 1
f 63 68 72
s 1
f 68 69 74
s 1
f 69 70 75
s 1
f 71 76 75
s 1
f 72 77 76
s 1
f 68 73 77
s 1
f 74 79 78
s 1
f 75 80 79
s 1
f 75 76 81
s 1
f 76 77 82
s 1
f 77 73 78
s 1
f 86 91 90
s 1
f 87 92 91
s 1
f 88 93 92
s 1
f 88 89 94
s 1
f 89 85 90
s 1
f 90 91 96
s 1
f 91 92 97
s 1
f 92 93 98
s 1
f 94 99 98
s 1
f 90 95 99
s 1
f 95 96 101
s 1
f 96 97 102
s 1
f 97 98 103
s 1
f 99 104 103
s 1
f 95 100 104
s 1
f 100 101 106
s 1
f 101 102 107
s 1
f 102 103 108
s 1
f 104 109 108
s 1
f 100 105 109
s 1
f 105 106 111
s 1
f 106 107 112
s 1
f 108 113 112
s 1
f 109 114 113
s 1
f 105 110 114
s 1
f 110 111 116
s 1
f 111 112 117
s 1
f 112 113 118
s 1
f 114 119 118
s 1
f 110 115 119
s 1
f 115 116 121
s 1
f 116 117 122
s 1
f 117 118 123
s 1
f 119 124 123
s 1
f 115 120 124
