# eclipse Orbital1_OrbitGlow.obj: Roblox cue frame, recentred on its bounding box
v -0.31777 -0.27203 0.32002
v -0.32905 -0.27904 0.33271
v -0.33459 -0.29595 0.33725
v -0.33116 -0.31287 0.33096
v -0.32076 -0.31987 0.31754
v -0.30949 -0.31287 0.30484
v -0.30394 -0.29595 0.30031
v -0.30737 -0.27904 0.30659
v -0.29101 -0.27486 0.34224
v -0.30182 -0.28191 0.35530
v -0.30698 -0.29886 0.36015
v -0.30346 -0.31578 0.35393
v -0.29332 -0.32276 0.34029
v -0.28250 -0.31571 0.32723
v -0.27734 -0.29876 0.32239
v -0.28087 -0.28184 0.32860
v -0.26336 -0.27640 0.36277
v -0.27323 -0.28352 0.37653
v -0.27758 -0.30052 0.38195
v -0.27385 -0.31745 0.37586
v -0.26425 -0.32438 0.36182
v -0.25438 -0.31726 0.34806
v -0.25004 -0.30025 0.34264
v -0.25376 -0.28333 0.34873
v -0.23462 -0.27668 0.38178
v -0.24349 -0.28383 0.39619
v -0.24700 -0.30084 0.40215
v -0.24308 -0.31776 0.39617
v -0.23403 -0.32467 0.38175
v -0.22515 -0.31752 0.36735
v -0.22164 -0.30051 0.36139
v -0.22557 -0.28359 0.36737
v -0.20489 -0.27570 0.39921
v -0.21275 -0.28283 0.41420
v -0.21538 -0.29983 0.42065
v -0.21125 -0.31673 0.41477
v -0.20278 -0.32365 0.40001
v -0.19492 -0.31651 0.38501
v -0.19229 -0.29952 0.37857
v -0.19642 -0.28261 0.38445
v -0.17431 -0.27347 0.41496
v -0.18111 -0.28054 0.43049
v -0.18286 -0.29748 0.43737
v -0.17852 -0.31436 0.43158
v -0.17064 -0.32130 0.41651
v -0.16384 -0.31423 0.40098
v -0.16209 -0.29729 0.39410
v -0.16643 -0.28040 0.39988
v -0.14301 -0.26999 0.42897
v -0.14874 -0.27696 0.44497
v -0.14957 -0.29380 0.45225
v -0.14502 -0.31066 0.44654
v -0.13775 -0.31765 0.43118
v -0.13202 -0.31068 0.41518
v -0.13119 -0.29383 0.40791
v -0.13574 -0.27698 0.41362
v -0.11112 -0.26528 0.44119
v -0.11575 -0.27210 0.45761
v -0.11565 -0.28882 0.46522
v -0.11089 -0.30564 0.45957
v -0.10425 -0.31270 0.44397
v -0.09962 -0.30588 0.42755
v -0.09971 -0.28916 0.41994
v -0.10448 -0.27234 0.42559
v -0.07878 -0.25936 0.45156
v -0.08229 -0.26600 0.46832
v -0.08126 -0.28255 0.47622
v -0.07628 -0.29932 0.47062
v -0.07027 -0.30649 0.45481
v -0.06676 -0.29985 0.43805
v -0.06779 -0.28330 0.43015
v -0.07277 -0.26653 0.43575
v -0.04612 -0.25225 0.46004
v -0.04852 -0.25867 0.47708
v -0.04654 -0.27502 0.48521
v -0.04134 -0.29174 0.47965
v -0.03598 -0.29903 0.46366
v -0.03358 -0.29262 0.44662
v -0.03556 -0.27626 0.43849
v -0.04076 -0.25954 0.44405
v -0.01329 -0.24399 0.46658
v -0.01456 -0.25014 0.48385
v -0.01163 -0.26627 0.49214
v -0.00622 -0.28293 0.48661
v -0.00151 -0.29036 0.47049
v -0.00024 -0.28422 0.45322
v -0.00317 -0.26809 0.44493
v -0.00858 -0.25143 0.45046
v 0.01956 -0.23461 0.47117
v 0.01943 -0.24045 0.48858
v 0.02331 -0.25632 0.49699
v 0.02893 -0.27291 0.49147
v 0.03300 -0.28052 0.47525
v 0.03313 -0.27468 0.45784
v 0.02925 -0.25881 0.44943
v 0.02363 -0.24222 0.45495
v 0.05232 -0.22415 0.47378
v 0.05331 -0.22965 0.49128
v 0.05814 -0.24522 0.49974
v 0.06396 -0.26174 0.49422
v 0.06738 -0.26954 0.47794
v 0.06638 -0.26404 0.46045
v 0.06156 -0.24847 0.45198
v 0.05573 -0.23195 0.45750
v 0.08482 -0.21266 0.47440
v 0.08694 -0.21778 0.49191
v 0.09270 -0.23303 0.50038
v 0.09873 -0.24947 0.49484
v 0.10150 -0.25748 0.47855
v 0.09938 -0.25236 0.46103
v 0.09362 -0.23711 0.45256
v 0.08759 -0.22067 0.45810
v 0.11694 -0.20018 0.47302
v 0.12016 -0.20489 0.49049
v 0.12684 -0.21978 0.49890
v 0.13308 -0.23614 0.49334
v 0.13520 -0.24438 0.47706
v 0.13198 -0.23967 0.45960
v 0.12529 -0.22478 0.45118
v 0.11906 -0.20842 0.45675
v 0.14853 -0.18676 0.46967
v 0.15284 -0.19103 0.48700
v 0.16043 -0.20555 0.49530
v 0.16686 -0.22182 0.48970
v 0.16835 -0.23031 0.47348
v 0.16404 -0.22605 0.45615
v 0.15645 -0.21153 0.44785
v 0.15002 -0.19525 0.45345
v 0.17945 -0.17248 0.46433
v 0.18483 -0.17627 0.48148
v 0.19332 -0.19039 0.48962
v 0.19993 -0.20656 0.48396
v 0.20080 -0.21532 0.46784
v 0.19542 -0.21153 0.45069
v 0.18694 -0.19741 0.44256
v 0.18033 -0.18123 0.44821
v 0.20959 -0.15737 0.45705
v 0.21601 -0.16066 0.47395
v 0.22536 -0.17436 0.48185
v 0.23215 -0.19044 0.47614
v 0.23242 -0.19948 0.46016
v 0.22600 -0.19619 0.44326
v 0.21665 -0.18250 0.43536
v 0.20986 -0.16642 0.44107
v 0.23880 -0.14152 0.44785
v 0.24623 -0.14428 0.46443
v 0.25641 -0.15753 0.47205
v 0.26338 -0.17351 0.46627
v 0.26306 -0.18286 0.45046
v 0.25563 -0.18010 0.43389
v 0.24545 -0.16685 0.42626
v 0.23848 -0.15087 0.43205
v 0.26697 -0.12498 0.43678
v 0.27537 -0.12719 0.45296
v 0.28636 -0.13998 0.46025
v 0.29349 -0.15585 0.45439
v 0.29260 -0.16552 0.43879
v 0.28420 -0.16331 0.42260
v 0.27321 -0.15052 0.41531
v 0.26608 -0.13465 0.42118
v 0.29397 -0.10784 0.42387
v 0.30330 -0.10947 0.43960
v 0.31506 -0.12178 0.44651
v 0.32235 -0.13755 0.44055
v 0.32091 -0.14754 0.42520
v 0.31157 -0.14591 0.40947
v 0.29982 -0.13360 0.40256
v 0.29253 -0.11783 0.40852
v 0.31968 -0.09015 0.40918
v 0.32991 -0.09120 0.42440
v 0.34240 -0.10301 0.43088
v 0.34983 -0.11867 0.42481
v 0.34786 -0.12900 0.40975
v 0.33764 -0.12796 0.39453
v 0.32515 -0.11615 0.38805
v 0.31771 -0.10049 0.39412
v 0.34400 -0.07200 0.39278
v 0.35507 -0.07244 0.40743
v 0.36825 -0.08375 0.41342
v 0.37582 -0.09930 0.40724
v 0.37336 -0.10998 0.39251
v 0.36229 -0.10955 0.37785
v 0.34911 -0.09824 0.37186
v 0.34154 -0.08269 0.37804
v 0.36683 -0.05347 0.37473
v 0.37868 -0.05329 0.38876
v 0.39251 -0.06408 0.39423
v 0.40021 -0.07951 0.38792
v 0.39727 -0.09056 0.37354
v 0.38542 -0.09075 0.35951
v 0.37159 -0.07996 0.35405
v 0.36389 -0.06452 0.36035
v 0.38805 -0.03464 0.35512
v 0.40064 -0.03382 0.36847
v 0.41507 -0.04408 0.37336
v 0.42289 -0.05941 0.36693
v 0.41951 -0.07082 0.35294
v 0.40692 -0.07164 0.33959
v 0.39249 -0.06138 0.33470
v 0.38467 -0.04605 0.34113
v 0.40759 -0.01557 0.33403
v 0.42086 -0.01412 0.34665
v 0.43584 -0.02385 0.35092
v 0.44376 -0.03906 0.34435
v 0.43998 -0.05085 0.33078
v 0.42671 -0.05231 0.31816
v 0.41173 -0.04258 0.31388
v 0.40381 -0.02736 0.32046
v 0.42536 0.00363 0.31154
v 0.43924 0.00573 0.32338
v 0.45473 -0.00346 0.32700
v 0.46274 -0.01857 0.32028
v 0.45858 -0.03073 0.30716
v 0.44470 -0.03283 0.29532
v 0.42921 -0.02364 0.29170
v 0.42120 -0.00853 0.29842
v 0.44128 0.02290 0.28776
v 0.45572 0.02564 0.29878
v 0.47165 0.01698 0.30171
v 0.47974 0.00199 0.29484
v 0.47525 -0.01055 0.28219
v 0.46081 -0.01330 0.27118
v 0.44488 -0.00464 0.26825
v 0.43679 0.01035 0.27511
v 0.45528 0.04214 0.26278
v 0.47021 0.04553 0.27293
v 0.48654 0.03741 0.27514
v 0.49469 0.02253 0.26812
v 0.48991 0.00960 0.25597
v 0.47498 0.00621 0.24582
v 0.45865 0.01434 0.24361
v 0.45049 0.02922 0.25064
v 0.46731 0.06128 0.23672
v 0.48266 0.06532 0.24597
v 0.49932 0.05772 0.24742
v 0.50753 0.04295 0.24024
v 0.50249 0.02965 0.22862
v 0.48714 0.02561 0.21937
v 0.47048 0.03321 0.21791
v 0.46226 0.04798 0.22510
v 0.47731 0.08024 0.20968
v 0.49301 0.08491 0.21799
v 0.50995 0.07784 0.21867
v 0.51821 0.06317 0.21132
v 0.51294 0.04949 0.20024
v 0.49724 0.04482 0.19193
v 0.48030 0.05189 0.19125
v 0.47205 0.06656 0.19860
v 0.48524 0.09893 0.18178
v 0.50122 0.10423 0.18912
v 0.51838 0.09767 0.18900
v 0.52667 0.08310 0.18148
v 0.52123 0.06906 0.17097
v 0.50525 0.06376 0.16363
v 0.48809 0.07031 0.16375
v 0.47980 0.08488 0.17127
v 0.49107 0.11727 0.15314
v 0.50726 0.12318 0.15949
v 0.52457 0.11713 0.15855
v 0.53288 0.10267 0.15086
v 0.52730 0.08825 0.14093
v 0.51111 0.08234 0.13458
v 0.49380 0.08839 0.13552
v 0.48549 0.10285 0.14321
v 0.49476 0.13518 0.12388
v 0.51109 0.14170 0.12922
v 0.52850 0.13614 0.12743
v 0.53681 0.12177 0.11957
v 0.53115 0.10700 0.11024
v 0.51482 0.10048 0.10490
v 0.49741 0.10604 0.10668
v 0.48910 0.12041 0.11454
v 0.49631 0.15260 0.09413
v 0.51270 0.15970 0.09843
v 0.53015 0.15462 0.09580
v 0.53845 0.14034 0.08777
v 0.53274 0.12522 0.07904
v 0.51636 0.11812 0.07473
v 0.49890 0.12320 0.07737
v 0.49060 0.13748 0.08540
v 0.49571 0.16943 0.06401
v 0.51208 0.17710 0.06727
v 0.52951 0.17248 0.06378
v 0.53780 0.15829 0.05557
v 0.53208 0.14283 0.04746
v 0.51571 0.13517 0.04420
v 0.49828 0.13978 0.04769
v 0.48999 0.15398 0.05590
v 0.49296 0.18562 0.03365
v 0.50924 0.19383 0.03587
v 0.52659 0.18966 0.03151
v 0.53484 0.17554 0.02313
v 0.52916 0.15976 0.01564
v 0.51288 0.15155 0.01343
v 0.49553 0.15573 0.01779
v 0.48728 0.16984 0.02617
v 0.48807 0.20109 0.00319
v 0.50419 0.20982 0.00435
v 0.52140 0.20607 -0.00087
v 0.52960 0.19203 -0.00942
v 0.52401 0.17594 -0.01629
v 0.50789 0.16721 -0.01744
v 0.49068 0.17097 -0.01222
v 0.48247 0.18500 -0.00367
v 0.48106 0.21578 -0.02724
v 0.49695 0.22500 -0.02714
v 0.51395 0.22164 -0.03323
v 0.52210 0.20768 -0.04195
v 0.51664 0.19129 -0.04818
v 0.50075 0.18207 -0.04829
v 0.48375 0.18543 -0.04220
v 0.47559 0.19939 -0.03348
v 0.47196 0.22962 -0.05753
v 0.48755 0.23930 -0.05847
v 0.50429 0.23631 -0.06542
v 0.51238 0.22242 -0.07431
v 0.50708 0.20575 -0.07992
v 0.49149 0.19607 -0.07897
v 0.47475 0.19905 -0.07202
v 0.46666 0.21295 -0.06314
v 0.46082 0.24255 -0.08752
v 0.47602 0.25266 -0.08951
v 0.49244 0.25003 -0.09731
v 0.50046 0.23619 -0.10636
v 0.49537 0.21926 -0.11135
v 0.48017 0.20915 -0.10936
v 0.46375 0.21178 -0.10156
v 0.45573 0.22562 -0.09251
v 0.44767 0.25452 -0.11711
v 0.46243 0.26503 -0.12012
v 0.47848 0.26271 -0.12876
v 0.48641 0.24893 -0.13796
v 0.48158 0.23176 -0.14234
v 0.46681 0.22125 -0.13933
v 0.45077 0.22357 -0.13069
v 0.44284 0.23735 -0.12149
v 0.43258 0.26548 -0.14616
v 0.44683 0.27635 -0.15018
v 0.46244 0.27432 -0.15964
v 0.47028 0.26059 -0.16899
v 0.46574 0.24320 -0.17276
v 0.45149 0.23233 -0.16874
v 0.43588 0.23435 -0.15928
v 0.42804 0.24808 -0.14993
v 0.41560 0.27537 -0.17454
v 0.42928 0.28657 -0.17955
v 0.44441 0.28481 -0.18981
v 0.45214 0.27112 -0.19931
v 0.44794 0.25352 -0.20249
v 0.43427 0.24233 -0.19748
v 0.41913 0.24409 -0.18722
v 0.41140 0.25777 -0.17772
v 0.39682 0.28417 -0.20214
v 0.40985 0.29565 -0.20810
v 0.42446 0.29412 -0.21914
v 0.43208 0.28047 -0.22879
v 0.42825 0.26269 -0.23138
v 0.41521 0.25121 -0.22542
v 0.40061 0.25274 -0.21438
v 0.39299 0.26639 -0.20474
v 0.37631 0.29182 -0.22883
v 0.38865 0.30356 -0.23573
v 0.40267 0.30222 -0.24752
v 0.41017 0.28860 -0.25729
v 0.40675 0.27067 -0.25933
v 0.39441 0.25893 -0.25244
v 0.38039 0.26026 -0.24065
v 0.37289 0.27389 -0.23087
v 0.35416 0.29830 -0.25451
v 0.36574 0.31025 -0.26230
v 0.37914 0.30908 -0.27481
v 0.38651 0.29547 -0.28471
v 0.38353 0.27741 -0.28621
v 0.37195 0.26546 -0.27842
v 0.35855 0.26663 -0.26591
v 0.35118 0.28024 -0.25600
v 0.33046 0.30358 -0.27906
v 0.34123 0.31569 -0.28770
v 0.35397 0.31465 -0.30090
v 0.36120 0.30107 -0.31092
v 0.35870 0.28290 -0.31190
v 0.34793 0.27078 -0.30326
v 0.33520 0.27182 -0.29006
v 0.32797 0.28541 -0.28003
v 0.30532 0.30763 -0.30237
v 0.31523 0.31987 -0.31182
v 0.32726 0.31893 -0.32568
v 0.33435 0.30536 -0.33582
v 0.33236 0.28710 -0.33630
v 0.32245 0.27486 -0.32684
v 0.31043 0.27581 -0.31299
v 0.30333 0.28938 -0.30285
v 0.27885 0.31045 -0.32435
v 0.28785 0.32277 -0.33457
v 0.29913 0.32189 -0.34904
v 0.30608 0.30832 -0.35928
v 0.30463 0.29001 -0.35930
v 0.29563 0.27768 -0.34908
v 0.28434 0.27857 -0.33461
v 0.27739 0.29214 -0.32437
v 0.25115 0.31201 -0.34490
v 0.25920 0.32437 -0.35584
v 0.26971 0.32352 -0.37089
v 0.27651 0.30994 -0.38122
v 0.27562 0.29160 -0.38080
v 0.26756 0.27924 -0.36986
v 0.25706 0.28009 -0.35482
v 0.25026 0.29367 -0.34448
v 0.22234 0.31231 -0.36394
v 0.22941 0.32467 -0.37555
v 0.23911 0.32381 -0.39112
v 0.24576 0.31022 -0.40154
v 0.24546 0.29187 -0.40071
v 0.23839 0.27951 -0.38911
v 0.22869 0.28038 -0.37353
v 0.22204 0.29397 -0.36311
v 0.19255 0.31135 -0.38138
v 0.19860 0.32367 -0.39360
v 0.20747 0.32276 -0.40966
v 0.21396 0.30915 -0.42016
v 0.21427 0.29083 -0.41894
v 0.20822 0.27851 -0.40673
v 0.19935 0.27942 -0.39067
v 0.19286 0.29303 -0.38017
v 0.16191 0.30914 -0.39715
v 0.16691 0.32136 -0.40992
v 0.17492 0.32037 -0.42642
v 0.18126 0.30674 -0.43698
v 0.18220 0.28847 -0.43543
v 0.17719 0.27624 -0.42266
v 0.16918 0.27723 -0.40616
v 0.16285 0.29086 -0.39560
v 0.13054 0.30567 -0.41118
v 0.13447 0.31776 -0.42444
v 0.14161 0.31666 -0.44133
v 0.14778 0.30300 -0.45195
v 0.14937 0.28480 -0.45009
v 0.14544 0.27271 -0.43683
v 0.13830 0.27381 -0.41994
v 0.13213 0.28747 -0.40932
v 0.09859 0.30098 -0.42341
v 0.10142 0.31289 -0.43710
v 0.10767 0.31164 -0.45433
v 0.11368 0.29795 -0.46500
v 0.11593 0.27984 -0.46286
v 0.11310 0.26793 -0.44918
v 0.10684 0.26918 -0.43195
v 0.10084 0.28287 -0.42128
v 0.06618 0.29507 -0.43379
v 0.06790 0.30676 -0.44784
v 0.07326 0.30533 -0.46536
v 0.07910 0.29160 -0.47607
v 0.08202 0.27362 -0.47370
v 0.08030 0.26192 -0.45964
v 0.07495 0.26336 -0.44213
v 0.06910 0.27709 -0.43142
v 0.03346 0.28797 -0.44226
v 0.03406 0.29941 -0.45662
v 0.03851 0.29776 -0.47437
v 0.04419 0.28398 -0.48511
v 0.04779 0.26615 -0.48255
v 0.04719 0.25471 -0.46819
v 0.04275 0.25636 -0.45044
v 0.03706 0.27014 -0.43970
v 0.00057 0.27971 -0.44881
v 0.00004 0.29086 -0.46340
v 0.00357 0.28896 -0.48133
v 0.00910 0.27513 -0.49209
v 0.01338 0.25748 -0.48937
v 0.01391 0.24633 -0.47478
v 0.01038 0.24823 -0.45685
v 0.00485 0.26206 -0.44610
v -0.03236 0.27034 -0.45339
v -0.03402 0.28114 -0.46815
v -0.03139 0.27897 -0.48620
v -0.02602 0.26509 -0.49697
v -0.02105 0.24763 -0.49414
v -0.01939 0.23682 -0.47938
v -0.02202 0.23900 -0.46133
v -0.02739 0.25288 -0.45057
v -0.06517 0.25988 -0.45600
v -0.06796 0.27031 -0.47086
v -0.06624 0.26783 -0.48897
v -0.06103 0.25389 -0.49974
v -0.05537 0.23665 -0.49684
v -0.05259 0.22622 -0.48198
v -0.05430 0.22870 -0.46386
v -0.05952 0.24264 -0.45310
v -0.09774 0.24838 -0.45660
v -0.10164 0.25840 -0.47150
v -0.10082 0.25559 -0.48963
v -0.09576 0.24158 -0.50038
v -0.08942 0.22459 -0.49745
v -0.08552 0.21457 -0.48256
v -0.08634 0.21739 -0.46443
v -0.09140 0.23139 -0.45368
v -0.12992 0.23590 -0.45522
v -0.13493 0.24548 -0.47007
v -0.13499 0.24230 -0.48816
v -0.13008 0.22822 -0.49889
v -0.12306 0.21150 -0.49598
v -0.11806 0.20192 -0.48113
v -0.11799 0.20510 -0.46303
v -0.12291 0.21917 -0.45230
v -0.16158 0.22248 -0.45184
v -0.16767 0.23158 -0.46659
v -0.16860 0.22801 -0.48458
v -0.16383 0.21387 -0.49528
v -0.15615 0.19743 -0.49242
v -0.15006 0.18833 -0.47768
v -0.14912 0.19190 -0.45968
v -0.15389 0.20604 -0.44898
v -0.19257 0.20819 -0.44649
v -0.19972 0.21678 -0.46106
v -0.20151 0.21280 -0.47890
v -0.19688 0.19858 -0.48957
v -0.18854 0.18245 -0.48680
v -0.18138 0.17385 -0.47223
v -0.17960 0.17783 -0.45439
v -0.18423 0.19205 -0.44372
v -0.22276 0.19307 -0.43918
v -0.23096 0.20113 -0.45351
v -0.23357 0.19672 -0.47115
v -0.22907 0.18242 -0.48177
v -0.22009 0.16661 -0.47914
v -0.21190 0.15855 -0.46481
v -0.20929 0.16297 -0.44717
v -0.21379 0.17726 -0.43656
v -0.25204 0.17721 -0.42996
v -0.26124 0.18471 -0.44398
v -0.26465 0.17985 -0.46136
v -0.26027 0.16547 -0.47192
v -0.25067 0.15000 -0.46947
v -0.24148 0.14250 -0.45545
v -0.23806 0.14736 -0.43807
v -0.24244 0.16174 -0.42751
v -0.28026 0.16067 -0.41885
v -0.29043 0.16758 -0.43249
v -0.29461 0.16224 -0.44956
v -0.29035 0.14778 -0.46006
v -0.28016 0.13267 -0.45783
v -0.26999 0.12576 -0.44419
v -0.26581 0.13109 -0.42712
v -0.27006 0.14555 -0.41662
v -0.30731 0.14351 -0.40590
v -0.31841 0.14982 -0.41911
v -0.32333 0.14399 -0.43582
v -0.31919 0.12945 -0.44625
v -0.30841 0.11470 -0.44428
v -0.29731 0.10839 -0.43107
v -0.29240 0.11422 -0.41436
v -0.29654 0.12876 -0.40393
v -0.33308 0.12581 -0.39118
v -0.34506 0.13150 -0.40389
v -0.35068 0.12517 -0.42019
v -0.34664 0.11054 -0.43054
v -0.33532 0.09618 -0.42887
v -0.32333 0.09049 -0.41616
v -0.31772 0.09682 -0.39985
v -0.32175 0.11145 -0.38951
v -0.35745 0.10765 -0.37474
v -0.37027 0.11270 -0.38689
v -0.37655 0.10586 -0.40274
v -0.37261 0.09114 -0.41300
v -0.36076 0.07717 -0.41166
v -0.34794 0.07212 -0.39951
v -0.34166 0.07896 -0.38366
v -0.34560 0.09368 -0.37340
v -0.38032 0.08911 -0.35665
v -0.39392 0.09350 -0.36819
v -0.40082 0.08613 -0.38354
v -0.39697 0.07133 -0.39371
v -0.38463 0.05776 -0.39274
v -0.37102 0.05337 -0.38120
v -0.36413 0.06073 -0.36585
v -0.36798 0.07554 -0.35568
v -0.40159 0.07026 -0.33699
v -0.41592 0.07398 -0.34786
v -0.42339 0.06609 -0.36267
v -0.41962 0.05120 -0.37274
v -0.40682 0.03804 -0.37218
v -0.39249 0.03431 -0.36131
v -0.38502 0.04220 -0.34650
v -0.38879 0.05709 -0.33643
v -0.42117 0.05118 -0.31585
v -0.43617 0.05423 -0.32600
v -0.44417 0.04580 -0.34022
v -0.44047 0.03083 -0.35020
v -0.42725 0.01808 -0.35007
v -0.41224 0.01503 -0.33992
v -0.40425 0.02346 -0.32570
v -0.40795 0.03843 -0.31572
v -0.43898 0.03196 -0.29331
v -0.45459 0.03434 -0.30269
v -0.46306 0.02537 -0.31630
v -0.45942 0.01030 -0.32616
v -0.44581 -0.00203 -0.32651
v -0.43020 -0.00440 -0.31713
v -0.42173 0.00457 -0.30352
v -0.42536 0.01963 -0.29365
v -0.45493 0.01268 -0.26948
v -0.47109 0.01438 -0.27804
v -0.47999 0.00486 -0.29100
v -0.47640 -0.01028 -0.30075
v -0.46244 -0.02219 -0.30159
v -0.44628 -0.02389 -0.29303
v -0.43739 -0.01438 -0.28007
v -0.44097 0.00077 -0.27032
v -0.46897 -0.00658 -0.24444
v -0.48561 -0.00556 -0.25215
v -0.49487 -0.01561 -0.26442
v -0.49134 -0.03084 -0.27406
v -0.47707 -0.04233 -0.27543
v -0.46043 -0.04335 -0.26772
v -0.45116 -0.03330 -0.25545
v -0.45470 -0.01807 -0.24581
v -0.48102 -0.02573 -0.21832
v -0.49808 -0.02539 -0.22514
v -0.50766 -0.03598 -0.23669
v -0.50416 -0.05129 -0.24622
v -0.48962 -0.06236 -0.24813
v -0.47257 -0.06270 -0.24131
v -0.46299 -0.05212 -0.22976
v -0.46649 -0.03680 -0.22023
v -0.49105 -0.04470 -0.19122
v -0.50844 -0.04503 -0.19711
v -0.51829 -0.05615 -0.20793
v -0.51481 -0.07154 -0.21733
v -0.50005 -0.08219 -0.21981
v -0.48266 -0.08186 -0.21392
v -0.47281 -0.07075 -0.20311
v -0.47629 -0.05536 -0.19371
v -0.49900 -0.06341 -0.16326
v -0.51666 -0.06439 -0.16820
v -0.52671 -0.07603 -0.17825
v -0.52325 -0.09150 -0.18753
v -0.50832 -0.10174 -0.19060
v -0.49065 -0.10075 -0.18567
v -0.48060 -0.08912 -0.17562
v -0.48406 -0.07365 -0.16634
v -0.50484 -0.08176 -0.13456
v -0.52270 -0.08340 -0.13851
v -0.53290 -0.09555 -0.14778
v -0.52945 -0.11109 -0.15694
v -0.51438 -0.12093 -0.16062
v -0.49651 -0.11929 -0.15667
v -0.48632 -0.10714 -0.14740
v -0.48977 -0.09159 -0.13824
v -0.50855 -0.09969 -0.10524
v -0.52654 -0.10196 -0.10818
v -0.53682 -0.11461 -0.11666
v -0.53337 -0.13022 -0.12569
v -0.51821 -0.13966 -0.12999
v -0.50022 -0.13739 -0.12705
v -0.48994 -0.12474 -0.11858
v -0.49339 -0.10913 -0.10954
v -0.51011 -0.11711 -0.07542
v -0.52815 -0.12000 -0.07735
v -0.53845 -0.13313 -0.08501
v -0.53499 -0.14882 -0.09392
v -0.51979 -0.15787 -0.09886
v -0.50175 -0.15498 -0.09693
v -0.49145 -0.14185 -0.08927
v -0.49491 -0.12616 -0.08036
v -0.50951 -0.13396 -0.04524
v -0.52753 -0.13744 -0.04613
v -0.53780 -0.15104 -0.05298
v -0.53432 -0.16680 -0.06176
v -0.51912 -0.17547 -0.06734
v -0.50111 -0.17199 -0.06645
v -0.49083 -0.15839 -0.05961
v -0.49431 -0.14264 -0.05082
v -0.50676 -0.15016 -0.01482
v -0.52468 -0.15422 -0.01467
v -0.53486 -0.16826 -0.02069
v -0.53136 -0.18408 -0.02935
v -0.51621 -0.19239 -0.03559
v -0.49829 -0.18833 -0.03574
v -0.48811 -0.17429 -0.02972
v -0.49161 -0.15847 -0.02106
v -0.50187 -0.16564 0.01570
v -0.51961 -0.17024 0.01690
v -0.52965 -0.18472 0.01171
v -0.52611 -0.20059 0.00316
v -0.51106 -0.20856 -0.00372
v -0.49331 -0.20395 -0.00492
v -0.48327 -0.18947 0.00027
v -0.48682 -0.17360 0.00882
v -0.49485 -0.18033 0.04620
v -0.51235 -0.18546 0.04845
v -0.52218 -0.20034 0.04408
v -0.51860 -0.21627 0.03565
v -0.50369 -0.22390 0.02811
v -0.48619 -0.21878 0.02587
v -0.47636 -0.20389 0.03024
v -0.47995 -0.18796 0.03866
v -0.48575 -0.19417 0.07655
v -0.50292 -0.19979 0.07983
v -0.51250 -0.21506 0.07628
v -0.50886 -0.23104 0.06797
v -0.49414 -0.23836 0.05978
v -0.47696 -0.23274 0.05649
v -0.46739 -0.21747 0.06005
v -0.47103 -0.20150 0.06835
v -0.47459 -0.20711 0.10661
v -0.49138 -0.21319 0.11093
v -0.50063 -0.22882 0.10818
v -0.49693 -0.24484 0.09999
v -0.48245 -0.25186 0.09114
v -0.46566 -0.24578 0.08683
v -0.45641 -0.23016 0.08957
v -0.46010 -0.21414 0.09777
v -0.46142 -0.21908 0.13626
v -0.47775 -0.22559 0.14159
v -0.48664 -0.24155 0.13964
v -0.48287 -0.25761 0.13156
v -0.46867 -0.26436 0.12208
v -0.45234 -0.25785 0.11675
v -0.44345 -0.24189 0.11869
v -0.44722 -0.22583 0.12678
v -0.44631 -0.23004 0.16537
v -0.46211 -0.23694 0.17170
v -0.47058 -0.25320 0.17053
v -0.46674 -0.26930 0.16255
v -0.45285 -0.27580 0.15244
v -0.43705 -0.26890 0.14611
v -0.42859 -0.25263 0.14728
v -0.43243 -0.23654 0.15525
v -0.42931 -0.23993 0.19381
v -0.44453 -0.24719 0.20112
v -0.45251 -0.26373 0.20071
v -0.44860 -0.27986 0.19284
v -0.43507 -0.28613 0.18210
v -0.41986 -0.27887 0.17480
v -0.41188 -0.26233 0.17520
v -0.41579 -0.24620 0.18308
v -0.41051 -0.24872 0.22147
v -0.42506 -0.25630 0.22972
v -0.43253 -0.27308 0.23005
v -0.42853 -0.28923 0.22228
v -0.41541 -0.29530 0.21094
v -0.40085 -0.28772 0.20269
v -0.39339 -0.27094 0.20235
v -0.39739 -0.25479 0.21013
v -0.38997 -0.25637 0.24822
v -0.40381 -0.26423 0.25739
v -0.41071 -0.28122 0.25844
v -0.40662 -0.29740 0.25075
v -0.39394 -0.30328 0.23883
v -0.38010 -0.29542 0.22966
v -0.37320 -0.27843 0.22861
v -0.37729 -0.26225 0.23630
v -0.36778 -0.26285 0.27395
v -0.38086 -0.27094 0.28400
v -0.38714 -0.28811 0.28573
v -0.38296 -0.30430 0.27813
v -0.37076 -0.31003 0.26565
v -0.35768 -0.30194 0.25560
v -0.35140 -0.28476 0.25387
v -0.35558 -0.26857 0.26147
v -0.34405 -0.26812 0.29855
v -0.35630 -0.27641 0.30944
v -0.36193 -0.29373 0.31183
v -0.35765 -0.30993 0.30431
v -0.34596 -0.31553 0.29129
v -0.33371 -0.30723 0.28040
v -0.32808 -0.28991 0.27801
v -0.33236 -0.27371 0.28553
v -0.31859 -0.27220 0.32215
v -0.33040 -0.28057 0.33345
v -0.33570 -0.29795 0.33616
v -0.33137 -0.31416 0.32868
v -0.31995 -0.31970 0.31540
v -0.30813 -0.31133 0.30410
v -0.30284 -0.29395 0.30140
v -0.30717 -0.27774 0.30887
f 2 9 1
f 3 10 2
f 4 11 3
f 4 13 12
f 5 14 13
f 6 15 14
f 7 16 15
f 1 16 8
f 10 17 9
f 11 18 10
f 12 19 11
f 13 20 12
f 14 21 13
f 15 22 14
f 16 23 15
f 9 24 16
f 18 25 17
f 19 26 18
f 20 27 19
f 21 28 20
f 22 29 21
f 23 30 22
f 24 31 23
f 17 32 24
f 26 33 25
f 27 34 26
f 28 35 27
f 29 36 28
f 30 37 29
f 31 38 30
f 32 39 31
f 25 40 32
f 34 41 33
f 35 42 34
f 36 43 35
f 37 44 36
f 38 45 37
f 39 46 38
f 40 47 39
f 33 48 40
f 42 49 41
f 43 50 42
f 44 51 43
f 45 52 44
f 46 53 45
f 47 54 46
f 48 55 47
f 41 56 48
f 50 57 49
f 51 58 50
f 52 59 51
f 53 60 52
f 54 61 53
f 55 62 54
f 56 63 55
f 49 64 56
f 58 65 57
f 59 66 58
f 60 67 59
f 61 68 60
f 62 69 61
f 63 70 62
f 64 71 63
f 57 72 64
f 66 73 65
f 67 74 66
f 68 75 67
f 69 76 68
f 70 77 69
f 71 78 70
f 72 79 71
f 65 80 72
f 74 81 73
f 75 82 74
f 76 83 75
f 77 84 76
f 78 85 77
f 79 86 78
f 80 87 79
f 73 88 80
f 82 89 81
f 83 90 82
f 84 91 83
f 85 92 84
f 86 93 85
f 87 94 86
f 88 95 87
f 81 96 88
f 90 97 89
f 91 98 90
f 92 99 91
f 93 100 92
f 94 101 93
f 95 102 94
f 96 103 95
f 89 104 96
f 98 105 97
f 99 106 98
f 100 107 99
f 101 108 100
f 102 109 101
f 103 110 102
f 104 111 103
f 97 112 104
f 106 113 105
f 107 114 106
f 108 115 107
f 109 116 108
f 110 117 109
f 111 118 110
f 112 119 111
f 105 120 112
f 114 121 113
f 115 122 114
f 116 123 115
f 117 124 116
f 118 125 117
f 119 126 118
f 120 127 119
f 113 128 120
f 122 129 121
f 123 130 122
f 124 131 123
f 125 132 124
f 126 133 125
f 127 134 126
f 128 135 127
f 121 136 128
f 130 137 129
f 131 138 130
f 132 139 131
f 133 140 132
f 134 141 133
f 135 142 134
f 136 143 135
f 129 144 136
f 138 145 137
f 139 146 138
f 140 147 139
f 141 148 140
f 142 149 141
f 143 150 142
f 144 151 143
f 137 152 144
f 146 153 145
f 147 154 146
f 148 155 147
f 149 156 148
f 150 157 149
f 151 158 150
f 152 159 151
f 145 160 152
f 154 161 153
f 155 162 154
f 156 163 155
f 157 164 156
f 158 165 157
f 159 166 158
f 160 167 159
f 153 168 160
f 162 169 161
f 163 170 162
f 164 171 163
f 165 172 164
f 166 173 165
f 167 174 166
f 168 175 167
f 161 176 168
f 170 177 169
f 171 178 170
f 172 179 171
f 173 180 172
f 174 181 173
f 175 182 174
f 176 183 175
f 169 184 176
f 178 185 177
f 179 186 178
f 180 187 179
f 181 188 180
f 182 189 181
f 183 190 182
f 184 191 183
f 177 192 184
f 186 193 185
f 187 194 186
f 188 195 187
f 189 196 188
f 190 197 189
f 191 198 190
f 192 199 191
f 185 200 192
f 194 201 193
f 195 202 194
f 196 203 195
f 197 204 196
f 198 205 197
f 199 206 198
f 200 207 199
f 193 208 200
f 202 209 201
f 203 210 202
f 204 211 203
f 205 212 204
f 206 213 205
f 207 214 206
f 208 215 207
f 201 216 208
f 210 217 209
f 211 218 210
f 212 219 211
f 213 220 212
f 214 221 213
f 215 222 214
f 216 223 215
f 209 224 216
f 218 225 217
f 219 226 218
f 220 227 219
f 221 228 220
f 222 229 221
f 223 230 222
f 224 231 223
f 217 232 224
f 226 233 225
f 227 234 226
f 228 235 227
f 229 236 228
f 230 237 229
f 231 238 230
f 232 239 231
f 225 240 232
f 234 241 233
f 235 242 234
f 236 243 235
f 237 244 236
f 238 245 237
f 239 246 238
f 240 247 239
f 233 248 240
f 242 249 241
f 243 250 242
f 244 251 243
f 245 252 244
f 246 253 245
f 247 254 246
f 248 255 247
f 241 256 248
f 250 257 249
f 251 258 250
f 252 259 251
f 253 260 252
f 254 261 253
f 255 262 254
f 256 263 255
f 249 264 256
f 258 265 257
f 259 266 258
f 260 267 259
f 261 268 260
f 262 269 261
f 263 270 262
f 264 271 263
f 257 272 264
f 266 273 265
f 267 274 266
f 268 275 267
f 269 276 268
f 270 277 269
f 271 278 270
f 272 279 271
f 265 280 272
f 274 281 273
f 275 282 274
f 276 283 275
f 277 284 276
f 278 285 277
f 279 286 278
f 280 287 279
f 273 288 280
f 282 289 281
f 283 290 282
f 284 291 283
f 285 292 284
f 286 293 285
f 287 294 286
f 288 295 287
f 281 296 288
f 290 297 289
f 291 298 290
f 292 299 291
f 293 300 292
f 294 301 293
f 295 302 294
f 296 303 295
f 289 304 296
f 298 305 297
f 299 306 298
f 300 307 299
f 301 308 300
f 302 309 301
f 303 310 302
f 304 311 303
f 297 312 304
f 306 313 305
f 307 314 306
f 308 315 307
f 309 316 308
f 310 317 309
f 311 318 310
f 312 319 311
f 305 320 312
f 314 321 313
f 315 322 314
f 316 323 315
f 317 324 316
f 318 325 317
f 319 326 318
f 320 327 319
f 313 328 320
f 322 329 321
f 323 330 322
f 324 331 323
f 325 332 324
f 326 333 325
f 327 334 326
f 328 335 327
f 321 336 328
f 330 337 329
f 331 338 330
f 332 339 331
f 333 340 332
f 334 341 333
f 335 342 334
f 336 343 335
f 329 344 336
f 338 345 337
f 339 346 338
f 340 347 339
f 341 348 340
f 342 349 341
f 343 350 342
f 344 351 343
f 337 352 344
f 346 353 345
f 347 354 346
f 348 355 347
f 349 356 348
f 350 357 349
f 351 358 350
f 352 359 351
f 345 360 352
f 354 361 353
f 355 362 354
f 356 363 355
f 357 364 356
f 358 365 357
f 359 366 358
f 360 367 359
f 353 368 360
f 362 369 361
f 363 370 362
f 364 371 363
f 365 372 364
f 366 373 365
f 367 374 366
f 368 375 367
f 361 376 368
f 370 377 369
f 371 378 370
f 372 379 371
f 373 380 372
f 374 381 373
f 375 382 374
f 376 383 375
f 369 384 376
f 378 385 377
f 379 386 378
f 380 387 379
f 381 388 380
f 382 389 381
f 383 390 382
f 384 391 383
f 377 392 384
f 386 393 385
f 387 394 386
f 388 395 387
f 389 396 388
f 390 397 389
f 391 398 390
f 392 399 391
f 385 400 392
f 394 401 393
f 395 402 394
f 396 403 395
f 397 404 396
f 398 405 397
f 399 406 398
f 400 407 399
f 393 408 400
f 402 409 401
f 403 410 402
f 404 411 403
f 405 412 404
f 406 413 405
f 407 414 406
f 408 415 407
f 401 416 408
f 410 417 409
f 411 418 410
f 412 419 411
f 413 420 412
f 414 421 413
f 415 422 414
f 416 423 415
f 409 424 416
f 418 425 417
f 419 426 418
f 420 427 419
f 421 428 420
f 422 429 421
f 423 430 422
f 424 431 423
f 417 432 424
f 426 433 425
f 427 434 426
f 428 435 427
f 429 436 428
f 430 437 429
f 431 438 430
f 432 439 431
f 425 440 432
f 434 441 433
f 435 442 434
f 436 443 435
f 437 444 436
f 438 445 437
f 439 446 438
f 440 447 439
f 433 448 440
f 442 449 441
f 443 450 442
f 444 451 443
f 445 452 444
f 446 453 445
f 447 454 446
f 448 455 447
f 441 456 448
f 450 457 449
f 451 458 450
f 452 459 451
f 453 460 452
f 454 461 453
f 455 462 454
f 456 463 455
f 449 464 456
f 458 465 457
f 459 466 458
f 460 467 459
f 461 468 460
f 462 469 461
f 463 470 462
f 464 471 463
f 457 472 464
f 466 473 465
f 467 474 466
f 468 475 467
f 469 476 468
f 470 477 469
f 471 478 470
f 472 479 471
f 465 480 472
f 474 481 473
f 475 482 474
f 476 483 475
f 477 484 476
f 478 485 477
f 479 486 478
f 480 487 479
f 473 488 480
f 482 489 481
f 483 490 482
f 484 491 483
f 485 492 484
f 486 493 485
f 487 494 486
f 488 495 487
f 481 496 488
f 490 497 489
f 491 498 490
f 492 499 491
f 493 500 492
f 494 501 493
f 495 502 494
f 496 503 495
f 489 504 496
f 498 505 497
f 499 506 498
f 500 507 499
f 501 508 500
f 502 509 501
f 503 510 502
f 504 511 503
f 497 512 504
f 506 513 505
f 507 514 506
f 508 515 507
f 509 516 508
f 510 517 509
f 511 518 510
f 512 519 511
f 505 520 512
f 514 521 513
f 515 522 514
f 516 523 515
f 517 524 516
f 518 525 517
f 519 526 518
f 520 527 519
f 513 528 520
f 522 529 521
f 523 530 522
f 524 531 523
f 525 532 524
f 526 533 525
f 527 534 526
f 528 535 527
f 521 536 528
f 530 537 529
f 531 538 530
f 532 539 531
f 533 540 532
f 534 541 533
f 535 542 534
f 536 543 535
f 529 544 536
f 538 545 537
f 539 546 538
f 540 547 539
f 541 548 540
f 542 549 541
f 543 550 542
f 544 551 543
f 537 552 544
f 546 553 545
f 547 554 546
f 548 555 547
f 549 556 548
f 550 557 549
f 551 558 550
f 552 559 551
f 545 560 552
f 554 561 553
f 555 562 554
f 556 563 555
f 557 564 556
f 558 565 557
f 559 566 558
f 560 567 559
f 553 568 560
f 562 569 561
f 563 570 562
f 564 571 563
f 565 572 564
f 566 573 565
f 567 574 566
f 568 575 567
f 561 576 568
f 570 577 569
f 571 578 570
f 572 579 571
f 573 580 572
f 574 581 573
f 575 582 574
f 576 583 575
f 569 584 576
f 578 585 577
f 579 586 578
f 580 587 579
f 581 588 580
f 582 589 581
f 583 590 582
f 584 591 583
f 577 592 584
f 586 593 585
f 587 594 586
f 588 595 587
f 589 596 588
f 590 597 589
f 591 598 590
f 592 599 591
f 585 600 592
f 594 601 593
f 595 602 594
f 596 603 595
f 597 604 596
f 598 605 597
f 599 606 598
f 600 607 599
f 593 608 600
f 602 609 601
f 603 610 602
f 604 611 603
f 605 612 604
f 606 613 605
f 607 614 606
f 608 615 607
f 601 616 608
f 610 617 609
f 611 618 610
f 612 619 611
f 613 620 612
f 614 621 613
f 615 622 614
f 616 623 615
f 609 624 616
f 618 625 617
f 619 626 618
f 620 627 619
f 621 628 620
f 622 629 621
f 623 630 622
f 624 631 623
f 617 632 624
f 626 633 625
f 627 634 626
f 628 635 627
f 629 636 628
f 630 637 629
f 631 638 630
f 632 639 631
f 625 640 632
f 634 641 633
f 635 642 634
f 636 643 635
f 637 644 636
f 638 645 637
f 639 646 638
f 640 647 639
f 633 648 640
f 642 649 641
f 643 650 642
f 644 651 643
f 645 652 644
f 646 653 645
f 647 654 646
f 648 655 647
f 641 656 648
f 650 657 649
f 651 658 650
f 652 659 651
f 653 660 652
f 654 661 653
f 655 662 654
f 656 663 655
f 649 664 656
f 658 665 657
f 659 666 658
f 660 667 659
f 661 668 660
f 662 669 661
f 663 670 662
f 664 671 663
f 657 672 664
f 666 673 665
f 667 674 666
f 668 675 667
f 669 676 668
f 670 677 669
f 671 678 670
f 672 679 671
f 665 680 672
f 674 681 673
f 675 682 674
f 676 683 675
f 677 684 676
f 678 685 677
f 679 686 678
f 680 687 679
f 673 688 680
f 682 689 681
f 683 690 682
f 684 691 683
f 685 692 684
f 686 693 685
f 687 694 686
f 688 695 687
f 681 696 688
f 690 697 689
f 691 698 690
f 692 699 691
f 693 700 692
f 694 701 693
f 695 702 694
f 696 703 695
f 689 704 696
f 698 705 697
f 699 706 698
f 700 707 699
f 701 708 700
f 702 709 701
f 703 710 702
f 704 711 703
f 697 712 704
f 706 713 705
f 707 714 706
f 708 715 707
f 709 716 708
f 710 717 709
f 711 718 710
f 712 719 711
f 705 720 712
f 714 721 713
f 715 722 714
f 716 723 715
f 717 724 716
f 718 725 717
f 719 726 718
f 720 727 719
f 713 728 720
f 722 729 721
f 723 730 722
f 724 731 723
f 725 732 724
f 726 733 725
f 727 734 726
f 728 735 727
f 721 736 728
f 730 737 729
f 731 738 730
f 732 739 731
f 733 740 732
f 734 741 733
f 735 742 734
f 736 743 735
f 729 744 736
f 738 745 737
f 739 746 738
f 740 747 739
f 741 748 740
f 742 749 741
f 743 750 742
f 744 751 743
f 737 752 744
f 746 753 745
f 747 754 746
f 748 755 747
f 749 756 748
f 750 757 749
f 751 758 750
f 752 759 751
f 745 760 752
f 754 761 753
f 755 762 754
f 756 763 755
f 757 764 756
f 758 765 757
f 759 766 758
f 760 767 759
f 753 768 760
f 761 770 769
f 762 771 770
f 763 772 771
f 765 772 764
f 766 773 765
f 767 774 766
f 768 775 767
f 768 769 776
f 2 10 9
f 3 11 10
f 4 12 11
f 4 5 13
f 5 6 14
f 6 7 15
f 7 8 16
f 1 9 16
f 10 18 17
f 11 19 18
f 12 20 19
f 13 21 20
f 14 22 21
f 15 23 22
f 16 24 23
f 9 17 24
f 18 26 25
f 19 27 26
f 20 28 27
f 21 29 28
f 22 30 29
f 23 31 30
f 24 32 31
f 17 25 32
f 26 34 33
f 27 35 34
f 28 36 35
f 29 37 36
f 30 38 37
f 31 39 38
f 32 40 39
f 25 33 40
f 34 42 41
f 35 43 42
f 36 44 43
f 37 45 44
f 38 46 45
f 39 47 46
f 40 48 47
f 33 41 48
f 42 50 49
f 43 51 50
f 44 52 51
f 45 53 52
f 46 54 53
f 47 55 54
f 48 56 55
f 41 49 56
f 50 58 57
f 51 59 58
f 52 60 59
f 53 61 60
f 54 62 61
f 55 63 62
f 56 64 63
f 49 57 64
f 58 66 65
f 59 67 66
f 60 68 67
f 61 69 68
f 62 70 69
f 63 71 70
f 64 72 71
f 57 65 72
f 66 74 73
f 67 75 74
f 68 76 75
f 69 77 76
f 70 78 77
f 71 79 78
f 72 80 79
f 65 73 80
f 74 82 81
f 75 83 82
f 76 84 83
f 77 85 84
f 78 86 85
f 79 87 86
f 80 88 87
f 73 81 88
f 82 90 89
f 83 91 90
f 84 92 91
f 85 93 92
f 86 94 93
f 87 95 94
f 88 96 95
f 81 89 96
f 90 98 97
f 91 99 98
f 92 100 99
f 93 101 100
f 94 102 101
f 95 103 102
f 96 104 103
f 89 97 104
f 98 106 105
f 99 107 106
f 100 108 107
f 101 109 108
f 102 110 109
f 103 111 110
f 104 112 111
f 97 105 112
f 106 114 113
f 107 115 114
f 108 116 115
f 109 117 116
f 110 118 117
f 111 119 118
f 112 120 119
f 105 113 120
f 114 122 121
f 115 123 122
f 116 124 123
f 117 125 124
f 118 126 125
f 119 127 126
f 120 128 127
f 113 121 128
f 122 130 129
f 123 131 130
f 124 132 131
f 125 133 132
f 126 134 133
f 127 135 134
f 128 136 135
f 121 129 136
f 130 138 137
f 131 139 138
f 132 140 139
f 133 141 140
f 134 142 141
f 135 143 142
f 136 144 143
f 129 137 144
f 138 146 145
f 139 147 146
f 140 148 147
f 141 149 148
f 142 150 149
f 143 151 150
f 144 152 151
f 137 145 152
f 146 154 153
f 147 155 154
f 148 156 155
f 149 157 156
f 150 158 157
f 151 159 158
f 152 160 159
f 145 153 160
f 154 162 161
f 155 163 162
f 156 164 163
f 157 165 164
f 158 166 165
f 159 167 166
f 160 168 167
f 153 161 168
f 162 170 169
f 163 171 170
f 164 172 171
f 165 173 172
f 166 174 173
f 167 175 174
f 168 176 175
f 161 169 176
f 170 178 177
f 171 179 178
f 172 180 179
f 173 181 180
f 174 182 181
f 175 183 182
f 176 184 183
f 169 177 184
f 178 186 185
f 179 187 186
f 180 188 187
f 181 189 188
f 182 190 189
f 183 191 190
f 184 192 191
f 177 185 192
f 186 194 193
f 187 195 194
f 188 196 195
f 189 197 196
f 190 198 197
f 191 199 198
f 192 200 199
f 185 193 200
f 194 202 201
f 195 203 202
f 196 204 203
f 197 205 204
f 198 206 205
f 199 207 206
f 200 208 207
f 193 201 208
f 202 210 209
f 203 211 210
f 204 212 211
f 205 213 212
f 206 214 213
f 207 215 214
f 208 216 215
f 201 209 216
f 210 218 217
f 211 219 218
f 212 220 219
f 213 221 220
f 214 222 221
f 215 223 222
f 216 224 223
f 209 217 224
f 218 226 225
f 219 227 226
f 220 228 227
f 221 229 228
f 222 230 229
f 223 231 230
f 224 232 231
f 217 225 232
f 226 234 233
f 227 235 234
f 228 236 235
f 229 237 236
f 230 238 237
f 231 239 238
f 232 240 239
f 225 233 240
f 234 242 241
f 235 243 242
f 236 244 243
f 237 245 244
f 238 246 245
f 239 247 246
f 240 248 247
f 233 241 248
f 242 250 249
f 243 251 250
f 244 252 251
f 245 253 252
f 246 254 253
f 247 255 254
f 248 256 255
f 241 249 256
f 250 258 257
f 251 259 258
f 252 260 259
f 253 261 260
f 254 262 261
f 255 263 262
f 256 264 263
f 249 257 264
f 258 266 265
f 259 267 266
f 260 268 267
f 261 269 268
f 262 270 269
f 263 271 270
f 264 272 271
f 257 265 272
f 266 274 273
f 267 275 274
f 268 276 275
f 269 277 276
f 270 278 277
f 271 279 278
f 272 280 279
f 265 273 280
f 274 282 281
f 275 283 282
f 276 284 283
f 277 285 284
f 278 286 285
f 279 287 286
f 280 288 287
f 273 281 288
f 282 290 289
f 283 291 290
f 284 292 291
f 285 293 292
f 286 294 293
f 287 295 294
f 288 296 295
f 281 289 296
f 290 298 297
f 291 299 298
f 292 300 299
f 293 301 300
f 294 302 301
f 295 303 302
f 296 304 303
f 289 297 304
f 298 306 305
f 299 307 306
f 300 308 307
f 301 309 308
f 302 310 309
f 303 311 310
f 304 312 311
f 297 305 312
f 306 314 313
f 307 315 314
f 308 316 315
f 309 317 316
f 310 318 317
f 311 319 318
f 312 320 319
f 305 313 320
f 314 322 321
f 315 323 322
f 316 324 323
f 317 325 324
f 318 326 325
f 319 327 326
f 320 328 327
f 313 321 328
f 322 330 329
f 323 331 330
f 324 332 331
f 325 333 332
f 326 334 333
f 327 335 334
f 328 336 335
f 321 329 336
f 330 338 337
f 331 339 338
f 332 340 339
f 333 341 340
f 334 342 341
f 335 343 342
f 336 344 343
f 329 337 344
f 338 346 345
f 339 347 346
f 340 348 347
f 341 349 348
f 342 350 349
f 343 351 350
f 344 352 351
f 337 345 352
f 346 354 353
f 347 355 354
f 348 356 355
f 349 357 356
f 350 358 357
f 351 359 358
f 352 360 359
f 345 353 360
f 354 362 361
f 355 363 362
f 356 364 363
f 357 365 364
f 358 366 365
f 359 367 366
f 360 368 367
f 353 361 368
f 362 370 369
f 363 371 370
f 364 372 371
f 365 373 372
f 366 374 373
f 367 375 374
f 368 376 375
f 361 369 376
f 370 378 377
f 371 379 378
f 372 380 379
f 373 381 380
f 374 382 381
f 375 383 382
f 376 384 383
f 369 377 384
f 378 386 385
f 379 387 386
f 380 388 387
f 381 389 388
f 382 390 389
f 383 391 390
f 384 392 391
f 377 385 392
f 386 394 393
f 387 395 394
f 388 396 395
f 389 397 396
f 390 398 397
f 391 399 398
f 392 400 399
f 385 393 400
f 394 402 401
f 395 403 402
f 396 404 403
f 397 405 404
f 398 406 405
f 399 407 406
f 400 408 407
f 393 401 408
f 402 410 409
f 403 411 410
f 404 412 411
f 405 413 412
f 406 414 413
f 407 415 414
f 408 416 415
f 401 409 416
f 410 418 417
f 411 419 418
f 412 420 419
f 413 421 420
f 414 422 421
f 415 423 422
f 416 424 423
f 409 417 424
f 418 426 425
f 419 427 426
f 420 428 427
f 421 429 428
f 422 430 429
f 423 431 430
f 424 432 431
f 417 425 432
f 426 434 433
f 427 435 434
f 428 436 435
f 429 437 436
f 430 438 437
f 431 439 438
f 432 440 439
f 425 433 440
f 434 442 441
f 435 443 442
f 436 444 443
f 437 445 444
f 438 446 445
f 439 447 446
f 440 448 447
f 433 441 448
f 442 450 449
f 443 451 450
f 444 452 451
f 445 453 452
f 446 454 453
f 447 455 454
f 448 456 455
f 441 449 456
f 450 458 457
f 451 459 458
f 452 460 459
f 453 461 460
f 454 462 461
f 455 463 462
f 456 464 463
f 449 457 464
f 458 466 465
f 459 467 466
f 460 468 467
f 461 469 468
f 462 470 469
f 463 471 470
f 464 472 471
f 457 465 472
f 466 474 473
f 467 475 474
f 468 476 475
f 469 477 476
f 470 478 477
f 471 479 478
f 472 480 479
f 465 473 480
f 474 482 481
f 475 483 482
f 476 484 483
f 477 485 484
f 478 486 485
f 479 487 486
f 480 488 487
f 473 481 488
f 482 490 489
f 483 491 490
f 484 492 491
f 485 493 492
f 486 494 493
f 487 495 494
f 488 496 495
f 481 489 496
f 490 498 497
f 491 499 498
f 492 500 499
f 493 501 500
f 494 502 501
f 495 503 502
f 496 504 503
f 489 497 504
f 498 506 505
f 499 507 506
f 500 508 507
f 501 509 508
f 502 510 509
f 503 511 510
f 504 512 511
f 497 505 512
f 506 514 513
f 507 515 514
f 508 516 515
f 509 517 516
f 510 518 517
f 511 519 518
f 512 520 519
f 505 513 520
f 514 522 521
f 515 523 522
f 516 524 523
f 517 525 524
f 518 526 525
f 519 527 526
f 520 528 527
f 513 521 528
f 522 530 529
f 523 531 530
f 524 532 531
f 525 533 532
f 526 534 533
f 527 535 534
f 528 536 535
f 521 529 536
f 530 538 537
f 531 539 538
f 532 540 539
f 533 541 540
f 534 542 541
f 535 543 542
f 536 544 543
f 529 537 544
f 538 546 545
f 539 547 546
f 540 548 547
f 541 549 548
f 542 550 549
f 543 551 550
f 544 552 551
f 537 545 552
f 546 554 553
f 547 555 554
f 548 556 555
f 549 557 556
f 550 558 557
f 551 559 558
f 552 560 559
f 545 553 560
f 554 562 561
f 555 563 562
f 556 564 563
f 557 565 564
f 558 566 565
f 559 567 566
f 560 568 567
f 553 561 568
f 562 570 569
f 563 571 570
f 564 572 571
f 565 573 572
f 566 574 573
f 567 575 574
f 568 576 575
f 561 569 576
f 570 578 577
f 571 579 578
f 572 580 579
f 573 581 580
f 574 582 581
f 575 583 582
f 576 584 583
f 569 577 584
f 578 586 585
f 579 587 586
f 580 588 587
f 581 589 588
f 582 590 589
f 583 591 590
f 584 592 591
f 577 585 592
f 586 594 593
f 587 595 594
f 588 596 595
f 589 597 596
f 590 598 597
f 591 599 598
f 592 600 599
f 585 593 600
f 594 602 601
f 595 603 602
f 596 604 603
f 597 605 604
f 598 606 605
f 599 607 606
f 600 608 607
f 593 601 608
f 602 610 609
f 603 611 610
f 604 612 611
f 605 613 612
f 606 614 613
f 607 615 614
f 608 616 615
f 601 609 616
f 610 618 617
f 611 619 618
f 612 620 619
f 613 621 620
f 614 622 621
f 615 623 622
f 616 624 623
f 609 617 624
f 618 626 625
f 619 627 626
f 620 628 627
f 621 629 628
f 622 630 629
f 623 631 630
f 624 632 631
f 617 625 632
f 626 634 633
f 627 635 634
f 628 636 635
f 629 637 636
f 630 638 637
f 631 639 638
f 632 640 639
f 625 633 640
f 634 642 641
f 635 643 642
f 636 644 643
f 637 645 644
f 638 646 645
f 639 647 646
f 640 648 647
f 633 641 648
f 642 650 649
f 643 651 650
f 644 652 651
f 645 653 652
f 646 654 653
f 647 655 654
f 648 656 655
f 641 649 656
f 650 658 657
f 651 659 658
f 652 660 659
f 653 661 660
f 654 662 661
f 655 663 662
f 656 664 663
f 649 657 664
f 658 666 665
f 659 667 666
f 660 668 667
f 661 669 668
f 662 670 669
f 663 671 670
f 664 672 671
f 657 665 672
f 666 674 673
f 667 675 674
f 668 676 675
f 669 677 676
f 670 678 677
f 671 679 678
f 672 680 679
f 665 673 680
f 674 682 681
f 675 683 682
f 676 684 683
f 677 685 684
f 678 686 685
f 679 687 686
f 680 688 687
f 673 681 688
f 682 690 689
f 683 691 690
f 684 692 691
f 685 693 692
f 686 694 693
f 687 695 694
f 688 696 695
f 681 689 696
f 690 698 697
f 691 699 698
f 692 700 699
f 693 701 700
f 694 702 701
f 695 703 702
f 696 704 703
f 689 697 704
f 698 706 705
f 699 707 706
f 700 708 707
f 701 709 708
f 702 710 709
f 703 711 710
f 704 712 711
f 697 705 712
f 706 714 713
f 707 715 714
f 708 716 715
f 709 717 716
f 710 718 717
f 711 719 718
f 712 720 719
f 705 713 720
f 714 722 721
f 715 723 722
f 716 724 723
f 717 725 724
f 718 726 725
f 719 727 726
f 720 728 727
f 713 721 728
f 722 730 729
f 723 731 730
f 724 732 731
f 725 733 732
f 726 734 733
f 727 735 734
f 728 736 735
f 721 729 736
f 730 738 737
f 731 739 738
f 732 740 739
f 733 741 740
f 734 742 741
f 735 743 742
f 736 744 743
f 729 737 744
f 738 746 745
f 739 747 746
f 740 748 747
f 741 749 748
f 742 750 749
f 743 751 750
f 744 752 751
f 737 745 752
f 746 754 753
f 747 755 754
f 748 756 755
f 749 757 756
f 750 758 757
f 751 759 758
f 752 760 759
f 745 753 760
f 754 762 761
f 755 763 762
f 756 764 763
f 757 765 764
f 758 766 765
f 759 767 766
f 760 768 767
f 753 761 768
f 761 762 770
f 762 763 771
f 763 764 772
f 765 773 772
f 766 774 773
f 767 775 774
f 768 776 775
f 768 761 769
