# eclipse Orbital4_OrbitGlow.obj: Roblox cue frame, recentred on its bounding box
v 0.38270 -0.51200 -0.37889
v 0.35979 -0.52154 -0.36048
v 0.34509 -0.54652 -0.34975
v 0.34421 -0.57739 -0.35081
v 0.35749 -0.60236 -0.36325
v 0.37986 -0.61190 -0.38232
v 0.40277 -0.60236 -0.40073
v 0.41747 -0.57739 -0.41145
v 0.41835 -0.54652 -0.41039
v 0.40507 -0.52154 -0.39796
v 0.41448 -0.51423 -0.34054
v 0.39129 -0.52375 -0.32246
v 0.37670 -0.54873 -0.31159
v 0.37627 -0.57962 -0.31208
v 0.39018 -0.60464 -0.32373
v 0.41311 -0.61421 -0.34211
v 0.43629 -0.60469 -0.36018
v 0.45089 -0.57972 -0.37105
v 0.45131 -0.54882 -0.37057
v 0.43740 -0.52381 -0.35891
v 0.44383 -0.51409 -0.30171
v 0.42011 -0.52358 -0.28433
v 0.40572 -0.54854 -0.27315
v 0.40615 -0.57943 -0.27245
v 0.42124 -0.60445 -0.28249
v 0.44523 -0.61406 -0.29944
v 0.46895 -0.60457 -0.31682
v 0.48335 -0.57961 -0.32800
v 0.48291 -0.54872 -0.32870
v 0.46782 -0.52369 -0.31866
v 0.47138 -0.51164 -0.26166
v 0.44715 -0.52114 -0.24499
v 0.43294 -0.54606 -0.23350
v 0.43417 -0.57688 -0.23157
v 0.45037 -0.60182 -0.23995
v 0.47536 -0.61137 -0.25542
v 0.49959 -0.60187 -0.27209
v 0.51380 -0.57695 -0.28358
v 0.51257 -0.54613 -0.28550
v 0.49636 -0.52119 -0.27713
v 0.49699 -0.50689 -0.22053
v 0.47229 -0.51645 -0.20461
v 0.45824 -0.54131 -0.19280
v 0.46021 -0.57199 -0.18962
v 0.47745 -0.59676 -0.19628
v 0.50336 -0.60616 -0.21024
v 0.52806 -0.59660 -0.22617
v 0.54211 -0.57174 -0.23798
v 0.54014 -0.54106 -0.24116
v 0.52290 -0.51630 -0.23449
v 0.52056 -0.49987 -0.17852
v 0.49542 -0.50952 -0.16335
v 0.48152 -0.53431 -0.15123
v 0.48417 -0.56477 -0.14677
v 0.50235 -0.58927 -0.15169
v 0.52912 -0.59845 -0.16410
v 0.55425 -0.58880 -0.17927
v 0.56815 -0.56401 -0.19140
v 0.56551 -0.53354 -0.19585
v 0.54732 -0.50904 -0.19094
v 0.54198 -0.49059 -0.13580
v 0.51645 -0.50038 -0.12141
v 0.50268 -0.52509 -0.10896
v 0.50594 -0.55527 -0.10321
v 0.52498 -0.57941 -0.10636
v 0.55252 -0.58828 -0.11719
v 0.57806 -0.57849 -0.13159
v 0.59182 -0.55378 -0.14404
v 0.58857 -0.52360 -0.14979
v 0.56953 -0.49946 -0.14664
v 0.56117 -0.47911 -0.09256
v 0.53528 -0.48907 -0.07896
v 0.52163 -0.51368 -0.06619
v 0.52543 -0.54352 -0.05913
v 0.54523 -0.56721 -0.06048
v 0.57347 -0.57568 -0.06972
v 0.59936 -0.56572 -0.08332
v 0.61302 -0.54111 -0.09609
v 0.60922 -0.51127 -0.10315
v 0.58942 -0.48758 -0.10180
v 0.57805 -0.46546 -0.04898
v 0.55184 -0.47565 -0.03617
v 0.53827 -0.50013 -0.02308
v 0.54255 -0.52957 -0.01471
v 0.56302 -0.55271 -0.01425
v 0.59187 -0.56072 -0.02188
v 0.61809 -0.55054 -0.03469
v 0.63165 -0.52605 -0.04778
v 0.62738 -0.49661 -0.05615
v 0.60690 -0.47347 -0.05661
v 0.59254 -0.44971 -0.00524
v 0.56604 -0.46016 0.00676
v 0.55256 -0.48451 0.02017
v 0.55723 -0.51348 0.02986
v 0.57828 -0.53600 0.03213
v 0.60765 -0.54346 0.02612
v 0.63414 -0.53301 0.01412
v 0.64763 -0.50866 0.00071
v 0.64296 -0.47969 -0.00898
v 0.62191 -0.45717 -0.01125
v 0.60457 -0.43193 0.03846
v 0.57785 -0.44267 0.04966
v 0.56442 -0.46689 0.06338
v 0.56941 -0.49533 0.07438
v 0.59093 -0.51713 0.07847
v 0.62074 -0.52397 0.07407
v 0.64747 -0.51323 0.06288
v 0.66090 -0.48901 0.04915
v 0.65590 -0.46057 0.03815
v 0.63438 -0.43877 0.03407
v 0.61410 -0.41219 0.08194
v 0.58719 -0.42326 0.09233
v 0.57380 -0.44732 0.10636
v 0.57905 -0.47518 0.11867
v 0.60093 -0.49619 0.12456
v 0.63108 -0.50233 0.12177
v 0.65800 -0.49126 0.11138
v 0.67139 -0.46720 0.09735
v 0.66614 -0.43934 0.08504
v 0.64426 -0.41833 0.07916
v 0.62109 -0.39057 0.12502
v 0.59403 -0.40202 0.13461
v 0.58066 -0.42591 0.14894
v 0.58609 -0.45312 0.16253
v 0.60823 -0.47326 0.17020
v 0.63864 -0.47864 0.16902
v 0.66569 -0.46720 0.15943
v 0.67906 -0.44331 0.14510
v 0.67364 -0.41609 0.13150
v 0.65150 -0.39595 0.12383
v 0.62550 -0.36717 0.16750
v 0.59835 -0.37902 0.17629
v 0.58498 -0.40273 0.19092
v 0.59050 -0.42926 0.20578
v 0.61280 -0.44846 0.21521
v 0.64336 -0.45300 0.21560
v 0.67052 -0.44116 0.20681
v 0.68389 -0.41744 0.19218
v 0.67837 -0.39092 0.17732
v 0.65607 -0.37172 0.16789
v 0.62732 -0.34209 0.20920
v 0.60012 -0.35437 0.21722
v 0.58674 -0.37790 0.23212
v 0.59228 -0.40368 0.24823
v 0.61463 -0.42188 0.25939
v 0.64525 -0.42553 0.26133
v 0.67245 -0.41324 0.25332
v 0.68584 -0.38972 0.23841
v 0.68030 -0.36393 0.22230
v 0.65795 -0.34574 0.21115
v 0.62654 -0.31543 0.24996
v 0.59934 -0.32818 0.25720
v 0.58592 -0.35151 0.27238
v 0.59140 -0.37651 0.28970
v 0.61369 -0.39363 0.30254
v 0.64428 -0.39633 0.30600
v 0.67148 -0.38358 0.29876
v 0.68491 -0.36025 0.28358
v 0.67942 -0.33525 0.26626
v 0.65713 -0.31813 0.25342
v 0.62316 -0.28731 0.28958
v 0.59601 -0.30056 0.29608
v 0.58254 -0.32369 0.31152
v 0.58788 -0.34786 0.33001
v 0.61001 -0.36384 0.34450
v 0.64047 -0.36553 0.34943
v 0.66762 -0.35229 0.34294
v 0.68110 -0.32916 0.32750
v 0.67575 -0.30499 0.30900
v 0.65362 -0.28900 0.29452
v 0.61720 -0.25785 0.32791
v 0.59015 -0.27162 0.33367
v 0.57660 -0.29454 0.34937
v 0.58174 -0.31785 0.36900
v 0.60360 -0.33264 0.38506
v 0.63383 -0.33327 0.39143
v 0.66088 -0.31950 0.38567
v 0.67443 -0.29659 0.36998
v 0.66929 -0.27328 0.35035
v 0.64743 -0.25848 0.33428
v 0.60868 -0.22717 0.36478
v 0.58177 -0.24150 0.36983
v 0.56814 -0.26420 0.38576
v 0.57299 -0.28660 0.40648
v 0.59447 -0.30016 0.42408
v 0.62438 -0.29969 0.43182
v 0.65130 -0.28537 0.42677
v 0.66493 -0.26267 0.41084
v 0.66008 -0.24026 0.39012
v 0.63859 -0.22670 0.37253
v 0.59764 -0.19541 0.40002
v 0.57092 -0.21031 0.40440
v 0.55718 -0.23278 0.42055
v 0.56167 -0.25426 0.44231
v 0.58268 -0.26654 0.46136
v 0.61218 -0.26492 0.47043
v 0.63890 -0.25003 0.46605
v 0.65263 -0.22755 0.44990
v 0.64814 -0.20607 0.42815
v 0.62714 -0.19379 0.40909
v 0.58412 -0.16270 0.43350
v 0.55764 -0.17819 0.43723
v 0.54378 -0.20044 0.45359
v 0.54785 -0.22097 0.47633
v 0.56827 -0.23192 0.49677
v 0.59726 -0.22912 0.50709
v 0.62374 -0.21364 0.50336
v 0.63760 -0.19138 0.48700
v 0.63354 -0.17086 0.46426
v 0.61311 -0.15990 0.44383
v 0.56819 -0.12918 0.46506
v 0.54199 -0.14528 0.46817
v 0.52800 -0.16730 0.48473
v 0.53156 -0.18685 0.50839
v 0.55131 -0.19645 0.53013
v 0.57970 -0.19244 0.54165
v 0.60590 -0.17635 0.53853
v 0.61989 -0.15432 0.52198
v 0.61633 -0.13477 0.49832
v 0.59658 -0.12517 0.47657
v 0.54990 -0.09500 0.49457
v 0.52404 -0.11171 0.49711
v 0.50990 -0.13351 0.51383
v 0.51289 -0.15207 0.53836
v 0.53187 -0.16029 0.56133
v 0.55958 -0.15504 0.57395
v 0.58544 -0.13832 0.57142
v 0.59958 -0.11652 0.55469
v 0.59659 -0.09797 0.53016
v 0.57762 -0.08974 0.50720
v 0.52935 -0.06029 0.52190
v 0.50386 -0.07765 0.52390
v 0.48956 -0.09922 0.54078
v 0.49192 -0.11677 0.56611
v 0.51002 -0.12359 0.59021
v 0.53697 -0.11708 0.60386
v 0.56246 -0.09972 0.60187
v 0.57675 -0.07815 0.58498
v 0.57440 -0.06060 0.55966
v 0.55629 -0.05378 0.53556
v 0.50661 -0.02521 0.54694
v 0.48154 -0.04322 0.54844
v 0.46707 -0.06456 0.56547
v 0.46872 -0.08109 0.59152
v 0.48587 -0.08650 0.61665
v 0.51197 -0.07872 0.63126
v 0.53704 -0.06071 0.62976
v 0.55151 -0.03937 0.61274
v 0.54986 -0.02284 0.58668
v 0.53271 -0.01743 0.56155
v 0.48179 0.01008 0.56958
v 0.45718 -0.00857 0.57062
v 0.44252 -0.02969 0.58777
v 0.44342 -0.04520 0.61448
v 0.45953 -0.04919 0.64055
v 0.48469 -0.04012 0.65602
v 0.50931 -0.02146 0.65498
v 0.52396 -0.00035 0.63783
v 0.52307 0.01517 0.61112
v 0.50696 0.01915 0.58505
v 0.45499 0.04545 0.58972
v 0.43087 0.02614 0.59035
v 0.41602 0.00524 0.60761
v 0.41610 -0.00925 0.63490
v 0.43109 -0.01181 0.66180
v 0.45526 -0.00145 0.67804
v 0.47937 0.01786 0.67741
v 0.49422 0.03875 0.66015
v 0.49414 0.05325 0.63286
v 0.47915 0.05581 0.60596
v 0.42632 0.08074 0.60727
v 0.40274 0.06076 0.60754
v 0.38768 0.04009 0.62488
v 0.38690 0.02661 0.65268
v 0.40069 0.02547 0.68031
v 0.42378 0.03711 0.69722
v 0.44736 0.05709 0.69696
v 0.46242 0.07776 0.67961
v 0.46320 0.09124 0.65182
v 0.44941 0.09238 0.62419
v 0.39591 0.11579 0.62217
v 0.37290 0.09516 0.62212
v 0.35763 0.07470 0.63953
v 0.35593 0.06223 0.66775
v 0.36845 0.06250 0.69600
v 0.39041 0.07542 0.71349
v 0.41342 0.09605 0.71354
v 0.42869 0.11651 0.69613
v 0.43039 0.12898 0.66791
v 0.41787 0.12871 0.63966
v 0.36389 0.15046 0.63433
v 0.34148 0.12918 0.63402
v 0.32599 0.10893 0.65148
v 0.32333 0.09745 0.68005
v 0.33452 0.09912 0.70881
v 0.35528 0.11330 0.72677
v 0.37768 0.13458 0.72708
v 0.39317 0.15483 0.70962
v 0.39583 0.16631 0.68106
v 0.38465 0.16464 0.65230
v 0.33039 0.18460 0.64372
v 0.30862 0.16267 0.64320
v 0.29290 0.14263 0.66070
v 0.28924 0.13212 0.68952
v 0.29903 0.13516 0.71868
v 0.31854 0.15060 0.73701
v 0.34031 0.17252 0.73754
v 0.35603 0.19257 0.72004
v 0.35969 0.20307 0.69121
v 0.34990 0.20003 0.66206
v 0.29556 0.21806 0.65029
v 0.27446 0.19550 0.64961
v 0.25851 0.17565 0.66712
v 0.25381 0.16610 0.69613
v 0.26215 0.17049 0.72556
v 0.28035 0.18714 0.74417
v 0.30146 0.20970 0.74485
v 0.31741 0.22955 0.72734
v 0.32211 0.23910 0.69833
v 0.31376 0.23472 0.66890
v 0.25955 0.25071 0.65402
v 0.23913 0.22752 0.65324
v 0.22295 0.20786 0.67074
v 0.21718 0.19924 0.69984
v 0.22402 0.20493 0.72943
v 0.24088 0.22278 0.74821
v 0.26129 0.24596 0.74899
v 0.27748 0.26562 0.73149
v 0.28325 0.27425 0.70238
v 0.27640 0.26855 0.67279
v 0.22251 0.28239 0.65488
v 0.20280 0.25860 0.65405
v 0.18638 0.23912 0.67153
v 0.17951 0.23139 0.70065
v 0.18482 0.23836 0.73028
v 0.20028 0.25736 0.74911
v 0.21999 0.28115 0.74994
v 0.23642 0.30063 0.73246
v 0.24329 0.30836 0.70334
v 0.23798 0.30140 0.67371
v 0.18460 0.31298 0.65287
v 0.16563 0.28860 0.65205
v 0.14896 0.26929 0.66949
v 0.14097 0.26242 0.69854
v 0.14471 0.27061 0.72810
v 0.15875 0.29074 0.74688
v 0.17772 0.31511 0.74771
v 0.19439 0.33442 0.73027
v 0.20238 0.34130 0.70122
v 0.19864 0.33310 0.67166
v 0.14599 0.34234 0.64801
v 0.12776 0.31740 0.64724
v 0.11085 0.29825 0.66463
v 0.10172 0.29220 0.69353
v 0.10386 0.30157 0.72290
v 0.11645 0.32277 0.74152
v 0.13468 0.34771 0.74229
v 0.15159 0.36686 0.72490
v 0.16071 0.37291 0.69601
v 0.15858 0.36354 0.66664
v 0.10683 0.37035 0.64031
v 0.08936 0.34487 0.63966
v 0.07221 0.32586 0.65697
v 0.06192 0.32060 0.68563
v 0.06244 0.33109 0.71470
v 0.07356 0.35332 0.73306
v 0.09103 0.37880 0.73371
v 0.10818 0.39780 0.71640
v 0.11846 0.40306 0.68774
v 0.11795 0.39257 0.65867
v 0.06729 0.39688 0.62980
v 0.05059 0.37089 0.62932
v 0.03320 0.35202 0.64655
v 0.02176 0.34750 0.67489
v 0.02064 0.35904 0.70354
v 0.03027 0.38224 0.72153
v 0.04697 0.40824 0.72201
v 0.06436 0.42710 0.70479
v 0.07581 0.43162 0.67644
v 0.07692 0.42008 0.64780
v 0.02756 0.42183 0.61653
v 0.01163 0.39535 0.61628
v -0.00600 0.37661 0.63340
v -0.01860 0.37278 0.66135
v -0.02136 0.38532 0.68946
v -0.01323 0.40943 0.70699
v 0.00269 0.43591 0.70724
v 0.02032 0.45465 0.69012
v 0.03293 0.45848 0.66217
v 0.03569 0.44595 0.63406
v -0.01222 0.44509 0.60056
v -0.02736 0.41815 0.60058
v -0.04522 0.39953 0.61758
v -0.05899 0.39634 0.64506
v -0.06340 0.40980 0.67253
v -0.05676 0.43476 0.68949
v -0.04162 0.46170 0.68946
v -0.02375 0.48032 0.67246
v -0.00999 0.48351 0.64498
v -0.00558 0.47005 0.61752
v -0.05185 0.46655 0.58195
v -0.06621 0.43919 0.58230
v -0.08431 0.42068 0.59917
v -0.09923 0.41807 0.62611
v -0.10528 0.43238 0.65282
v -0.10014 0.45813 0.66911
v -0.08578 0.48549 0.66876
v -0.06768 0.50401 0.65189
v -0.05276 0.50661 0.62495
v -0.04671 0.49231 0.59824
v -0.09119 0.48613 0.56078
v -0.10477 0.45839 0.56152
v -0.12309 0.43996 0.57824
v -0.13915 0.43789 0.60456
v -0.14682 0.45297 0.63042
v -0.14317 0.47943 0.64594
v -0.12959 0.50718 0.64520
v -0.11127 0.52561 0.62848
v -0.09520 0.52768 0.60216
v -0.08753 0.51260 0.57630
v -0.13004 0.50375 0.53715
v -0.14285 0.47565 0.53832
v -0.16139 0.45730 0.55488
v -0.17859 0.45570 0.58051
v -0.18786 0.47147 0.60541
v -0.18568 0.49858 0.62008
v -0.17287 0.52668 0.61891
v -0.15433 0.54503 0.60235
v -0.13713 0.54663 0.57672
v -0.12786 0.53086 0.55181
v -0.16826 0.51931 0.51114
v -0.18031 0.49090 0.51280
v -0.19906 0.47262 0.52919
v -0.21736 0.47143 0.55407
v -0.22821 0.48781 0.57792
v -0.22747 0.51549 0.59164
v -0.21543 0.54390 0.58999
v -0.19667 0.56219 0.57359
v -0.17838 0.56337 0.54872
v -0.16752 0.54699 0.52487
v -0.20567 0.53277 0.48289
v -0.21697 0.50409 0.48507
v -0.23593 0.48585 0.50128
v -0.25531 0.48502 0.52534
v -0.26770 0.50192 0.54805
v -0.26838 0.53009 0.56074
v -0.25709 0.55877 0.55856
v -0.23813 0.57701 0.54234
v -0.21875 0.57784 0.51829
v -0.20635 0.56094 0.49558
v -0.24212 0.54406 0.45250
v -0.25268 0.51515 0.45525
v -0.27184 0.49695 0.47127
v -0.29227 0.49641 0.49445
v -0.30617 0.51374 0.51593
v -0.30823 0.54232 0.52751
v -0.29767 0.57123 0.52476
v -0.27851 0.58943 0.50874
v -0.25809 0.58996 0.48556
v -0.24418 0.57264 0.46408
v -0.27745 0.55313 0.42011
v -0.28730 0.52403 0.42347
v -0.30664 0.50586 0.43930
v -0.32808 0.50554 0.46154
v -0.34344 0.52321 0.48171
v -0.34684 0.55212 0.49210
v -0.33700 0.58121 0.48874
v -0.31766 0.59939 0.47291
v -0.29621 0.59970 0.45066
v -0.28085 0.58203 0.43049
v -0.31150 0.55995 0.38585
v -0.32066 0.53071 0.38986
v -0.34017 0.51254 0.40548
v -0.36260 0.51239 0.42675
v -0.37936 0.53031 0.44553
v -0.38406 0.55945 0.45466
v -0.37491 0.58869 0.45064
v -0.35539 0.60686 0.43502
v -0.33297 0.60701 0.41376
v -0.31620 0.58909 0.39497
v -0.34414 0.56448 0.34986
v -0.35263 0.53514 0.35457
v -0.37231 0.51697 0.36998
v -0.39566 0.51691 0.39021
v -0.41377 0.53499 0.40754
v -0.41972 0.56429 0.41534
v -0.41123 0.59363 0.41064
v -0.39155 0.61180 0.39523
v -0.36819 0.61185 0.37500
v -0.35008 0.59378 0.35767
v -0.37522 0.56670 0.31232
v -0.38307 0.53731 0.31774
v -0.40290 0.51913 0.33294
v -0.42714 0.51910 0.35210
v -0.44654 0.53724 0.36791
v -0.45367 0.56661 0.37433
v -0.44582 0.59600 0.36890
v -0.42598 0.61418 0.35371
v -0.40174 0.61421 0.33455
v -0.38235 0.59608 0.31874
v -0.40460 0.56661 0.27337
v -0.41184 0.53721 0.27955
v -0.43182 0.51900 0.29452
v -0.45690 0.51894 0.31257
v -0.47751 0.53704 0.32681
v -0.48576 0.56640 0.33178
v -0.47852 0.59580 0.32561
v -0.45855 0.61401 0.31063
v -0.43346 0.61408 0.29258
v -0.41286 0.59597 0.27835
v -0.43217 0.56421 0.23318
v -0.43884 0.53485 0.24014
v -0.45894 0.51660 0.25489
v -0.48481 0.51643 0.27180
v -0.50655 0.53441 0.28441
v -0.51587 0.56366 0.28790
v -0.50920 0.59302 0.28094
v -0.48909 0.61127 0.26619
v -0.46323 0.61144 0.24928
v -0.44148 0.59347 0.23667
v -0.45780 0.55950 0.19192
v -0.46393 0.53023 0.19969
v -0.48416 0.51193 0.21421
v -0.51075 0.51159 0.22995
v -0.53355 0.52935 0.24089
v -0.54385 0.55841 0.24286
v -0.53772 0.58769 0.23509
v -0.51749 0.60599 0.22057
v -0.49090 0.60633 0.20483
v -0.46810 0.58857 0.19389
v -0.48138 0.55251 0.14978
v -0.48702 0.52337 0.15837
v -0.50735 0.50500 0.17266
v -0.53460 0.50443 0.18721
v -0.55838 0.52188 0.19645
v -0.56959 0.55067 0.19685
v -0.56396 0.57981 0.18826
v -0.54363 0.59818 0.17396
v -0.51637 0.59875 0.15942
v -0.49260 0.58130 0.15018
v -0.50282 0.54327 0.10692
v -0.50800 0.51430 0.11635
v -0.52842 0.49586 0.13042
v -0.55628 0.49499 0.14376
v -0.58094 0.51203 0.15127
v -0.59299 0.54047 0.15008
v -0.58781 0.56943 0.14065
v -0.56739 0.58787 0.12658
v -0.53953 0.58874 0.11324
v -0.51486 0.57170 0.10573
v -0.52202 0.53181 0.06354
v -0.52678 0.50306 0.07383
v -0.54728 0.48454 0.08767
v -0.57568 0.48331 0.09979
v -0.60114 0.49986 0.10554
v -0.61393 0.52785 0.10274
v -0.60917 0.55659 0.09245
v -0.58867 0.57512 0.07861
v -0.56027 0.57634 0.06649
v -0.53481 0.55980 0.06074
v -0.53889 0.51818 0.01982
v -0.54329 0.48970 0.03097
v -0.56385 0.47108 0.04459
v -0.59272 0.46944 0.05548
v -0.61888 0.48540 0.05947
v -0.63233 0.51287 0.05504
v -0.62794 0.54135 0.04389
v -0.60738 0.55997 0.03027
v -0.57850 0.56161 0.01938
v -0.55234 0.54565 0.01539
v -0.55337 0.50245 -0.02406
v -0.55745 0.47428 -0.01203
v -0.57806 0.45555 0.00137
v -0.60734 0.45343 0.01102
v -0.63410 0.46873 0.01324
v -0.64812 0.49559 0.00718
v -0.64404 0.52376 -0.00484
v -0.62343 0.54248 -0.01824
v -0.59416 0.54460 -0.02790
v -0.56739 0.52931 -0.03012
v -0.56539 0.48467 -0.06790
v -0.56919 0.45685 -0.05500
v -0.58984 0.43802 -0.04182
v -0.61945 0.43537 -0.03339
v -0.64672 0.44991 -0.03293
v -0.66122 0.47609 -0.04063
v -0.65742 0.50391 -0.05353
v -0.63677 0.52274 -0.06671
v -0.60716 0.52540 -0.07514
v -0.57990 0.51086 -0.07560
v -0.57491 0.46494 -0.11153
v -0.57848 0.43751 -0.09775
v -0.59916 0.41855 -0.08478
v -0.62903 0.41531 -0.07756
v -0.65669 0.42902 -0.07887
v -0.67158 0.45445 -0.08819
v -0.66800 0.48188 -0.10196
v -0.64733 0.50083 -0.11494
v -0.61746 0.50407 -0.12215
v -0.58979 0.49036 -0.12085
v -0.58187 0.44332 -0.15474
v -0.58527 0.41632 -0.14009
v -0.60596 0.39724 -0.12733
v -0.63602 0.39336 -0.12132
v -0.66398 0.40616 -0.12436
v -0.67916 0.43076 -0.13529
v -0.67575 0.45776 -0.14994
v -0.65507 0.47684 -0.16270
v -0.62501 0.48072 -0.16871
v -0.59705 0.46792 -0.16567
v -0.58625 0.41991 -0.19736
v -0.58954 0.39339 -0.18185
v -0.61022 0.37417 -0.16928
v -0.64039 0.36960 -0.16446
v -0.66854 0.38143 -0.16921
v -0.68391 0.40513 -0.18174
v -0.68063 0.43166 -0.19725
v -0.65995 0.45087 -0.20981
v -0.62977 0.45544 -0.21464
v -0.60162 0.44362 -0.20988
v -0.58804 0.39482 -0.23920
v -0.59125 0.36880 -0.22285
v -0.61191 0.34944 -0.21047
v -0.64214 0.34414 -0.20680
v -0.67037 0.35492 -0.21324
v -0.68584 0.37766 -0.22733
v -0.68262 0.40368 -0.24369
v -0.66196 0.42304 -0.25606
v -0.63174 0.42834 -0.25973
v -0.60350 0.41757 -0.25329
v -0.58721 0.36815 -0.28009
v -0.59041 0.34267 -0.26290
v -0.61105 0.32316 -0.25071
v -0.64124 0.31708 -0.24817
v -0.66945 0.32675 -0.25625
v -0.68491 0.34848 -0.27187
v -0.68172 0.37396 -0.28906
v -0.66108 0.39346 -0.30125
v -0.63089 0.39954 -0.30379
v -0.60268 0.38987 -0.29571
v -0.58378 0.34001 -0.31985
v -0.58702 0.31510 -0.30185
v -0.60761 0.29545 -0.28983
v -0.63770 0.28855 -0.28838
v -0.66579 0.29705 -0.29806
v -0.68115 0.31770 -0.31517
v -0.67792 0.34261 -0.33317
v -0.65732 0.36226 -0.34519
v -0.62723 0.36916 -0.34663
v -0.59915 0.36066 -0.33695
v -0.57777 0.31053 -0.35830
v -0.58109 0.28622 -0.33952
v -0.60163 0.26641 -0.32766
v -0.63155 0.25866 -0.32727
v -0.65940 0.26594 -0.33849
v -0.67456 0.28546 -0.35704
v -0.67124 0.30977 -0.37583
v -0.65070 0.32958 -0.38768
v -0.62079 0.33733 -0.38807
v -0.59293 0.33005 -0.37685
v -0.56918 0.27983 -0.39530
v -0.57265 0.25615 -0.37575
v -0.59313 0.23618 -0.36405
v -0.62279 0.22755 -0.36467
v -0.65032 0.23355 -0.37737
v -0.66518 0.25190 -0.39731
v -0.66172 0.27558 -0.41685
v -0.64124 0.29555 -0.42855
v -0.61157 0.30418 -0.42793
v -0.58405 0.29817 -0.41523
v -0.55807 0.24804 -0.43066
v -0.56174 0.22501 -0.41038
v -0.58214 0.20488 -0.39883
v -0.61149 0.19534 -0.40041
v -0.63857 0.20003 -0.41453
v -0.65305 0.21716 -0.43579
v -0.64938 0.24019 -0.45607
v -0.62898 0.26031 -0.46763
v -0.59963 0.26986 -0.46604
v -0.57255 0.26517 -0.45192
v -0.54448 0.21530 -0.46425
v -0.54839 0.19295 -0.44328
v -0.56871 0.17266 -0.43186
v -0.59767 0.16218 -0.43435
v -0.62422 0.16551 -0.44981
v -0.63821 0.18139 -0.47234
v -0.63430 0.20374 -0.49331
v -0.61398 0.22403 -0.50473
v -0.58502 0.23451 -0.50224
v -0.55847 0.23117 -0.48678
v -0.52846 0.18174 -0.49593
v -0.53267 0.16009 -0.47429
v -0.55290 0.13964 -0.46299
v -0.58141 0.12820 -0.46634
v -0.60732 0.13015 -0.48307
v -0.62073 0.14474 -0.50678
v -0.61652 0.16640 -0.52842
v -0.59630 0.18685 -0.53972
v -0.56779 0.19829 -0.53636
v -0.54188 0.19634 -0.51964
v -0.51009 0.14752 -0.52555
v -0.51465 0.12658 -0.50329
v -0.53477 0.10596 -0.49210
v -0.56276 0.09356 -0.49625
v -0.58794 0.09410 -0.51415
v -0.60069 0.10738 -0.53897
v -0.59613 0.12832 -0.56123
v -0.57601 0.14894 -0.57242
v -0.54802 0.16134 -0.56827
v -0.52284 0.16080 -0.55037
v -0.48945 0.11278 -0.55298
v -0.49440 0.09256 -0.53015
v -0.51441 0.07179 -0.51905
v -0.54182 0.05839 -0.52394
v -0.56618 0.05750 -0.54293
v -0.57817 0.06945 -0.56879
v -0.57322 0.08967 -0.59162
v -0.55321 0.11045 -0.60271
v -0.52579 0.12384 -0.59783
v -0.50144 0.12473 -0.57883
v -0.46661 0.07767 -0.57812
v -0.47201 0.05818 -0.55475
v -0.49189 0.03725 -0.54374
v -0.51867 0.02286 -0.54929
v -0.54212 0.02052 -0.56929
v -0.55327 0.03112 -0.59609
v -0.54788 0.05061 -0.61945
v -0.52799 0.07155 -0.63046
v -0.50121 0.08593 -0.62491
v -0.47777 0.08827 -0.60491
v -0.44168 0.04234 -0.60084
v -0.44757 0.02359 -0.57699
v -0.46733 0.00250 -0.56606
v -0.49341 -0.01288 -0.57221
v -0.51586 -0.01668 -0.59310
v -0.52610 -0.00743 -0.62075
v -0.52022 0.01131 -0.64460
v -0.50046 0.03241 -0.65554
v -0.47437 0.04779 -0.64939
v -0.45192 0.05158 -0.62850
v -0.41477 0.00693 -0.62107
v -0.42119 -0.01107 -0.59678
v -0.44081 -0.03232 -0.58591
v -0.46615 -0.04869 -0.59259
v -0.48753 -0.05394 -0.61428
v -0.49677 -0.04606 -0.64269
v -0.49036 -0.02806 -0.66697
v -0.47073 -0.00681 -0.67785
v -0.44539 0.00956 -0.67117
v -0.42402 0.01481 -0.64948
v -0.38599 -0.02839 -0.63870
v -0.39298 -0.04565 -0.61403
v -0.41246 -0.06705 -0.60320
v -0.43701 -0.08441 -0.61034
v -0.45723 -0.09112 -0.63272
v -0.46541 -0.08459 -0.66180
v -0.45843 -0.06734 -0.68646
v -0.43894 -0.04594 -0.69729
v -0.41440 -0.02857 -0.69016
v -0.39417 -0.02187 -0.66777
v -0.35546 -0.06348 -0.65366
v -0.36306 -0.08000 -0.62867
v -0.38240 -0.10154 -0.61787
v -0.40610 -0.11989 -0.62539
v -0.42511 -0.12803 -0.64836
v -0.43216 -0.12286 -0.67800
v -0.42456 -0.10635 -0.70299
v -0.40522 -0.08480 -0.71378
v -0.38152 -0.06646 -0.70626
v -0.36252 -0.05831 -0.68330
v -0.32332 -0.09819 -0.66589
v -0.33156 -0.11396 -0.64063
v -0.35076 -0.13565 -0.62985
v -0.37357 -0.15497 -0.63768
v -0.39129 -0.16454 -0.66112
v -0.39715 -0.16071 -0.69121
v -0.38891 -0.14493 -0.71648
v -0.36971 -0.12325 -0.72725
v -0.34690 -0.10393 -0.71943
v -0.32918 -0.09436 -0.69599
v -0.28970 -0.13237 -0.67534
v -0.29862 -0.14741 -0.64986
v -0.31766 -0.16924 -0.63909
v -0.33955 -0.18951 -0.64715
v -0.35593 -0.20048 -0.67094
v -0.36053 -0.19796 -0.70140
v -0.35161 -0.18292 -0.72687
v -0.33257 -0.16110 -0.73764
v -0.31068 -0.14082 -0.72959
v -0.29431 -0.12985 -0.70579
v -0.25474 -0.16586 -0.68196
v -0.26437 -0.18019 -0.65633
v -0.28326 -0.20215 -0.64556
v -0.30419 -0.22335 -0.65376
v -0.31917 -0.23570 -0.67780
v -0.32247 -0.23448 -0.70850
v -0.31284 -0.22015 -0.73413
v -0.29396 -0.19819 -0.74490
v -0.27302 -0.17699 -0.73670
v -0.25805 -0.16464 -0.71266
v -0.21860 -0.19854 -0.68573
v -0.22897 -0.21216 -0.66000
v -0.24770 -0.23424 -0.64921
v -0.26764 -0.25635 -0.65749
v -0.28117 -0.27004 -0.68166
v -0.28313 -0.27008 -0.71250
v -0.27276 -0.25646 -0.73822
v -0.25403 -0.23438 -0.74901
v -0.23409 -0.21227 -0.74074
v -0.22055 -0.19858 -0.71657
v -0.18142 -0.23025 -0.68662
v -0.19255 -0.24319 -0.66086
v -0.21113 -0.26539 -0.65005
v -0.23006 -0.28837 -0.65831
v -0.24211 -0.30337 -0.68250
v -0.24267 -0.30464 -0.71337
v -0.23154 -0.29170 -0.73913
v -0.21297 -0.26950 -0.74994
v -0.19404 -0.24651 -0.74168
v -0.18199 -0.23152 -0.71749
v -0.14338 -0.26087 -0.68465
v -0.15529 -0.27314 -0.65891
v -0.17371 -0.29545 -0.64805
v -0.19160 -0.31928 -0.65623
v -0.20213 -0.33553 -0.68032
v -0.20128 -0.33799 -0.71111
v -0.18936 -0.32572 -0.73685
v -0.17094 -0.30340 -0.74770
v -0.15305 -0.27957 -0.73952
v -0.14252 -0.26332 -0.71544
v -0.10462 -0.29025 -0.67980
v -0.11733 -0.30188 -0.65415
v -0.13560 -0.32430 -0.64325
v -0.15244 -0.34894 -0.65126
v -0.16142 -0.36639 -0.67512
v -0.15911 -0.36999 -0.70573
v -0.14640 -0.35836 -0.73138
v -0.12814 -0.33595 -0.74229
v -0.11130 -0.31131 -0.73427
v -0.10232 -0.29385 -0.71041
v -0.06532 -0.31828 -0.67211
v -0.07885 -0.32929 -0.64661
v -0.09696 -0.35181 -0.63564
v -0.11273 -0.37722 -0.64341
v -0.12014 -0.39582 -0.66694
v -0.11637 -0.40051 -0.69725
v -0.10284 -0.38950 -0.72276
v -0.08473 -0.36699 -0.73373
v -0.06896 -0.34158 -0.72596
v -0.06154 -0.32297 -0.70242
v -0.02565 -0.34484 -0.66161
v -0.04000 -0.35526 -0.63631
v -0.05795 -0.37786 -0.62528
v -0.07266 -0.40400 -0.63273
v -0.07849 -0.42370 -0.65581
v -0.07322 -0.42943 -0.68572
v -0.05887 -0.41900 -0.71102
v -0.04091 -0.39640 -0.72206
v -0.02621 -0.37026 -0.71461
v -0.02038 -0.35056 -0.69152
v 0.01423 -0.36980 -0.64834
v -0.00095 -0.37967 -0.62331
v -0.01876 -0.40235 -0.61219
v -0.03238 -0.42917 -0.61925
v -0.03662 -0.44990 -0.64178
v -0.02986 -0.45660 -0.67118
v -0.01468 -0.44673 -0.69621
v 0.00313 -0.42405 -0.70733
v 0.01676 -0.39722 -0.70027
v 0.02100 -0.37650 -0.67774
v 0.05415 -0.39307 -0.63236
v 0.03813 -0.40242 -0.60765
v 0.02047 -0.42517 -0.59645
v 0.00792 -0.45263 -0.60304
v 0.00527 -0.47430 -0.62490
v 0.01353 -0.48192 -0.65368
v 0.02955 -0.47257 -0.67840
v 0.04721 -0.44982 -0.68960
v 0.05976 -0.42236 -0.68301
v 0.06241 -0.40068 -0.66115
v 0.09393 -0.41454 -0.61374
v 0.07707 -0.42341 -0.58940
v 0.05955 -0.44622 -0.57811
v 0.04807 -0.47426 -0.58416
v 0.04700 -0.49682 -0.60525
v 0.05676 -0.50528 -0.63332
v 0.07362 -0.49641 -0.65765
v 0.09114 -0.47360 -0.66895
v 0.10262 -0.44556 -0.66290
v 0.10369 -0.42300 -0.64181
v 0.13340 -0.43412 -0.59255
v 0.11571 -0.44254 -0.56865
v 0.09833 -0.46541 -0.55725
v 0.08790 -0.49398 -0.56270
v 0.08841 -0.51735 -0.58291
v 0.09965 -0.52659 -0.61017
v 0.11734 -0.51816 -0.63407
v 0.13472 -0.49529 -0.64547
v 0.14515 -0.46672 -0.64002
v 0.14465 -0.44335 -0.61981
v 0.17240 -0.45172 -0.56889
v 0.15388 -0.45974 -0.54548
v 0.13664 -0.48266 -0.53397
v 0.12725 -0.51171 -0.53874
v 0.12930 -0.53580 -0.55798
v 0.14202 -0.54574 -0.58434
v 0.16053 -0.53772 -0.60774
v 0.17778 -0.51481 -0.61926
v 0.18717 -0.48575 -0.61448
v 0.18511 -0.46166 -0.59524
v 0.21076 -0.46728 -0.54285
v 0.19143 -0.47494 -0.51999
v 0.17431 -0.49789 -0.50836
v 0.16594 -0.52736 -0.51240
v 0.16952 -0.55210 -0.53057
v 0.18368 -0.56265 -0.55593
v 0.20301 -0.55500 -0.57879
v 0.22012 -0.53205 -0.59042
v 0.22849 -0.50258 -0.58638
v 0.22491 -0.47784 -0.56821
v 0.24831 -0.48073 -0.51456
v 0.22818 -0.48807 -0.49229
v 0.21118 -0.51104 -0.48054
v 0.20381 -0.54087 -0.48378
v 0.20888 -0.56617 -0.50079
v 0.22445 -0.57727 -0.52507
v 0.24458 -0.56993 -0.54733
v 0.26158 -0.54695 -0.55909
v 0.26895 -0.51712 -0.55584
v 0.26388 -0.49182 -0.53883
v 0.28489 -0.49199 -0.48412
v 0.26398 -0.49906 -0.46250
v 0.24709 -0.52206 -0.45061
v 0.24069 -0.55219 -0.45301
v 0.24721 -0.57796 -0.46878
v 0.26416 -0.58951 -0.49188
v 0.28507 -0.58245 -0.51351
v 0.30196 -0.55945 -0.52539
v 0.30836 -0.52932 -0.52299
v 0.30184 -0.50355 -0.50723
v 0.32035 -0.50104 -0.45168
v 0.29867 -0.50788 -0.43074
v 0.28190 -0.53089 -0.41873
v 0.27643 -0.56126 -0.42022
v 0.28435 -0.58741 -0.43466
v 0.30264 -0.59934 -0.45652
v 0.32432 -0.59250 -0.47746
v 0.34109 -0.56950 -0.48948
v 0.34656 -0.53912 -0.48798
v 0.33864 -0.51297 -0.47354
v 0.35453 -0.50783 -0.41736
v 0.33212 -0.51449 -0.39716
v 0.31545 -0.53750 -0.38500
v 0.31087 -0.56805 -0.38555
v 0.32015 -0.59449 -0.39859
v 0.33973 -0.60671 -0.41914
v 0.36214 -0.60004 -0.43934
v 0.37881 -0.57704 -0.45150
v 0.38339 -0.54648 -0.45095
v 0.37411 -0.52004 -0.43791
v 0.38797 -0.51240 -0.38050
v 0.36520 -0.51900 -0.36068
v 0.34858 -0.54201 -0.34846
v 0.34445 -0.57264 -0.34852
v 0.35438 -0.59918 -0.36084
v 0.37459 -0.61150 -0.38070
v 0.39736 -0.60490 -0.40053
v 0.41398 -0.58189 -0.41274
v 0.41811 -0.55127 -0.41268
v 0.40818 -0.52472 -0.40037
f 1 12 11
f 3 12 2
f 4 13 3
f 5 14 4
f 6 15 5
f 7 16 6
f 7 18 17
f 8 19 18
f 9 20 19
f 10 11 20
f 11 22 21
f 12 23 22
f 13 24 23
f 14 25 24
f 15 26 25
f 16 27 26
f 17 28 27
f 18 29 28
f 19 30 29
f 20 21 30
f 21 32 31
f 22 33 32
f 23 34 33
f 24 35 34
f 25 36 35
f 26 37 36
f 27 38 37
f 28 39 38
f 29 40 39
f 30 31 40
f 31 42 41
f 32 43 42
f 33 44 43
f 34 45 44
f 35 46 45
f 36 47 46
f 37 48 47
f 38 49 48
f 39 50 49
f 40 41 50
f 41 52 51
f 42 53 52
f 43 54 53
f 44 55 54
f 45 56 55
f 46 57 56
f 47 58 57
f 48 59 58
f 49 60 59
f 50 51 60
f 51 62 61
f 52 63 62
f 53 64 63
f 54 65 64
f 55 66 65
f 56 67 66
f 57 68 67
f 58 69 68
f 59 70 69
f 60 61 70
f 61 72 71
f 62 73 72
f 63 74 73
f 64 75 74
f 65 76 75
f 66 77 76
f 67 78 77
f 68 79 78
f 69 80 79
f 70 71 80
f 71 82 81
f 72 83 82
f 73 84 83
f 74 85 84
f 75 86 85
f 76 87 86
f 77 88 87
f 78 89 88
f 79 90 89
f 80 81 90
f 81 92 91
f 82 93 92
f 83 94 93
f 84 95 94
f 85 96 95
f 86 97 96
f 87 98 97
f 88 99 98
f 89 100 99
f 90 91 100
f 91 102 101
f 92 103 102
f 93 104 103
f 94 105 104
f 95 106 105
f 96 107 106
f 97 108 107
f 98 109 108
f 99 110 109
f 100 101 110
f 101 112 111
f 102 113 112
f 103 114 113
f 104 115 114
f 105 116 115
f 106 117 116
f 107 118 117
f 108 119 118
f 109 120 119
f 110 111 120
f 111 122 121
f 112 123 122
f 113 124 123
f 114 125 124
f 115 126 125
f 116 127 126
f 117 128 127
f 118 129 128
f 119 130 129
f 120 121 130
f 121 132 131
f 122 133 132
f 123 134 133
f 124 135 134
f 125 136 135
f 126 137 136
f 127 138 137
f 128 139 138
f 129 140 139
f 130 131 140
f 131 142 141
f 132 143 142
f 133 144 143
f 134 145 144
f 135 146 145
f 136 147 146
f 137 148 147
f 138 149 148
f 139 150 149
f 140 141 150
f 141 152 151
f 142 153 152
f 143 154 153
f 144 155 154
f 145 156 155
f 146 157 156
f 147 158 157
f 148 159 158
f 149 160 159
f 150 151 160
f 151 162 161
f 152 163 162
f 153 164 163
f 154 165 164
f 155 166 165
f 156 167 166
f 157 168 167
f 158 169 168
f 159 170 169
f 160 161 170
f 161 172 171
f 162 173 172
f 163 174 173
f 164 175 174
f 165 176 175
f 166 177 176
f 167 178 177
f 168 179 178
f 169 180 179
f 170 171 180
f 171 182 181
f 172 183 182
f 173 184 183
f 174 185 184
f 175 186 185
f 176 187 186
f 177 188 187
f 178 189 188
f 179 190 189
f 180 181 190
f 181 192 191
f 182 193 192
f 183 194 193
f 184 195 194
f 185 196 195
f 186 197 196
f 187 198 197
f 188 199 198
f 189 200 199
f 190 191 200
f 191 202 201
f 192 203 202
f 193 204 203
f 194 205 204
f 195 206 205
f 196 207 206
f 197 208 207
f 198 209 208
f 199 210 209
f 200 201 210
f 201 212 211
f 202 213 212
f 203 214 213
f 204 215 214
f 205 216 215
f 206 217 216
f 207 218 217
f 208 219 218
f 209 220 219
f 210 211 220
f 211 222 221
f 212 223 222
f 213 224 223
f 214 225 224
f 215 226 225
f 216 227 226
f 217 228 227
f 218 229 228
f 219 230 229
f 220 221 230
f 221 232 231
f 222 233 232
f 223 234 233
f 224 235 234
f 225 236 235
f 226 237 236
f 227 238 237
f 228 239 238
f 229 240 239
f 230 231 240
f 231 242 241
f 232 243 242
f 233 244 243
f 234 245 244
f 235 246 245
f 236 247 246
f 237 248 247
f 238 249 248
f 239 250 249
f 240 241 250
f 241 252 251
f 242 253 252
f 243 254 253
f 244 255 254
f 245 256 255
f 246 257 256
f 247 258 257
f 248 259 258
f 249 260 259
f 250 251 260
f 251 262 261
f 252 263 262
f 253 264 263
f 254 265 264
f 255 266 265
f 256 267 266
f 257 268 267
f 258 269 268
f 259 270 269
f 260 261 270
f 261 272 271
f 262 273 272
f 263 274 273
f 264 275 274
f 265 276 275
f 266 277 276
f 267 278 277
f 268 279 278
f 269 280 279
f 270 271 280
f 271 282 281
f 272 283 282
f 273 284 283
f 274 285 284
f 275 286 285
f 276 287 286
f 277 288 287
f 278 289 288
f 279 290 289
f 280 281 290
f 281 292 291
f 282 293 292
f 283 294 293
f 284 295 294
f 285 296 295
f 286 297 296
f 287 298 297
f 288 299 298
f 289 300 299
f 290 291 300
f 291 302 301
f 292 303 302
f 293 304 303
f 294 305 304
f 295 306 305
f 296 307 306
f 297 308 307
f 298 309 308
f 299 310 309
f 300 301 310
f 301 312 311
f 302 313 312
f 303 314 313
f 304 315 314
f 305 316 315
f 306 317 316
f 307 318 317
f 308 319 318
f 309 320 319
f 310 311 320
f 311 322 321
f 312 323 322
f 313 324 323
f 314 325 324
f 315 326 325
f 316 327 326
f 317 328 327
f 318 329 328
f 319 330 329
f 320 321 330
f 321 332 331
f 322 333 332
f 323 334 333
f 324 335 334
f 325 336 335
f 326 337 336
f 327 338 337
f 328 339 338
f 329 340 339
f 330 331 340
f 331 342 341
f 332 343 342
f 333 344 343
f 334 345 344
f 335 346 345
f 336 347 346
f 337 348 347
f 338 349 348
f 339 350 349
f 340 341 350
f 341 352 351
f 342 353 352
f 343 354 353
f 344 355 354
f 345 356 355
f 346 357 356
f 347 358 357
f 348 359 358
f 349 360 359
f 350 351 360
f 351 362 361
f 352 363 362
f 353 364 363
f 354 365 364
f 355 366 365
f 356 367 366
f 357 368 367
f 358 369 368
f 359 370 369
f 360 361 370
f 361 372 371
f 362 373 372
f 363 374 373
f 364 375 374
f 365 376 375
f 366 377 376
f 367 378 377
f 368 379 378
f 369 380 379
f 370 371 380
f 371 382 381
f 372 383 382
f 373 384 383
f 374 385 384
f 375 386 385
f 376 387 386
f 377 388 387
f 378 389 388
f 379 390 389
f 380 381 390
f 381 392 391
f 382 393 392
f 383 394 393
f 384 395 394
f 385 396 395
f 386 397 396
f 387 398 397
f 388 399 398
f 389 400 399
f 390 391 400
f 391 402 401
f 392 403 402
f 393 404 403
f 394 405 404
f 395 406 405
f 396 407 406
f 397 408 407
f 398 409 408
f 399 410 409
f 400 401 410
f 401 412 411
f 402 413 412
f 403 414 413
f 404 415 414
f 405 416 415
f 406 417 416
f 407 418 417
f 408 419 418
f 409 420 419
f 410 411 420
f 411 422 421
f 412 423 422
f 413 424 423
f 414 425 424
f 415 426 425
f 416 427 426
f 417 428 427
f 418 429 428
f 419 430 429
f 420 421 430
f 421 432 431
f 422 433 432
f 423 434 433
f 424 435 434
f 425 436 435
f 426 437 436
f 427 438 437
f 428 439 438
f 429 440 439
f 430 431 440
f 431 442 441
f 432 443 442
f 433 444 443
f 434 445 444
f 435 446 445
f 436 447 446
f 437 448 447
f 438 449 448
f 439 450 449
f 440 441 450
f 441 452 451
f 442 453 452
f 443 454 453
f 444 455 454
f 445 456 455
f 446 457 456
f 447 458 457
f 448 459 458
f 449 460 459
f 450 451 460
f 451 462 461
f 452 463 462
f 453 464 463
f 454 465 464
f 455 466 465
f 456 467 466
f 457 468 467
f 458 469 468
f 459 470 469
f 460 461 470
f 461 472 471
f 462 473 472
f 463 474 473
f 464 475 474
f 465 476 475
f 466 477 476
f 467 478 477
f 468 479 478
f 469 480 479
f 470 471 480
f 471 482 481
f 472 483 482
f 473 484 483
f 474 485 484
f 475 486 485
f 476 487 486
f 477 488 487
f 478 489 488
f 479 490 489
f 480 481 490
f 481 492 491
f 482 493 492
f 483 494 493
f 484 495 494
f 485 496 495
f 486 497 496
f 487 498 497
f 488 499 498
f 489 500 499
f 490 491 500
f 491 502 501
f 492 503 502
f 493 504 503
f 494 505 504
f 495 506 505
f 496 507 506
f 497 508 507
f 498 509 508
f 499 510 509
f 500 501 510
f 501 512 511
f 502 513 512
f 503 514 513
f 504 515 514
f 505 516 515
f 506 517 516
f 507 518 517
f 508 519 518
f 509 520 519
f 510 511 520
f 511 522 521
f 512 523 522
f 513 524 523
f 514 525 524
f 515 526 525
f 516 527 526
f 517 528 527
f 518 529 528
f 519 530 529
f 520 521 530
f 521 532 531
f 522 533 532
f 523 534 533
f 524 535 534
f 525 536 535
f 526 537 536
f 527 538 537
f 528 539 538
f 529 540 539
f 530 531 540
f 531 542 541
f 532 543 542
f 533 544 543
f 534 545 544
f 535 546 545
f 536 547 546
f 537 548 547
f 538 549 548
f 539 550 549
f 540 541 550
f 541 552 551
f 542 553 552
f 543 554 553
f 544 555 554
f 545 556 555
f 546 557 556
f 547 558 557
f 548 559 558
f 549 560 559
f 550 551 560
f 551 562 561
f 552 563 562
f 553 564 563
f 554 565 564
f 555 566 565
f 556 567 566
f 557 568 567
f 558 569 568
f 559 570 569
f 560 561 570
f 561 572 571
f 562 573 572
f 563 574 573
f 564 575 574
f 565 576 575
f 566 577 576
f 567 578 577
f 568 579 578
f 569 580 579
f 570 571 580
f 571 582 581
f 572 583 582
f 573 584 583
f 574 585 584
f 575 586 585
f 576 587 586
f 577 588 587
f 578 589 588
f 579 590 589
f 580 581 590
f 581 592 591
f 582 593 592
f 583 594 593
f 584 595 594
f 585 596 595
f 586 597 596
f 587 598 597
f 588 599 598
f 589 600 599
f 590 591 600
f 591 602 601
f 592 603 602
f 593 604 603
f 594 605 604
f 595 606 605
f 596 607 606
f 597 608 607
f 598 609 608
f 599 610 609
f 600 601 610
f 601 612 611
f 602 613 612
f 603 614 613
f 604 615 614
f 605 616 615
f 606 617 616
f 607 618 617
f 608 619 618
f 609 620 619
f 610 611 620
f 611 622 621
f 612 623 622
f 613 624 623
f 614 625 624
f 615 626 625
f 616 627 626
f 617 628 627
f 618 629 628
f 619 630 629
f 620 621 630
f 621 632 631
f 622 633 632
f 623 634 633
f 624 635 634
f 625 636 635
f 626 637 636
f 627 638 637
f 628 639 638
f 629 640 639
f 630 631 640
f 631 642 641
f 632 643 642
f 633 644 643
f 634 645 644
f 635 646 645
f 636 647 646
f 637 648 647
f 638 649 648
f 639 650 649
f 640 641 650
f 641 652 651
f 642 653 652
f 643 654 653
f 644 655 654
f 645 656 655
f 646 657 656
f 647 658 657
f 648 659 658
f 649 660 659
f 650 651 660
f 651 662 661
f 652 663 662
f 653 664 663
f 654 665 664
f 655 666 665
f 656 667 666
f 657 668 667
f 658 669 668
f 659 670 669
f 660 661 670
f 661 672 671
f 662 673 672
f 663 674 673
f 664 675 674
f 665 676 675
f 666 677 676
f 667 678 677
f 668 679 678
f 669 680 679
f 670 671 680
f 671 682 681
f 672 683 682
f 673 684 683
f 674 685 684
f 675 686 685
f 676 687 686
f 677 688 687
f 678 689 688
f 679 690 689
f 680 681 690
f 681 692 691
f 682 693 692
f 683 694 693
f 684 695 694
f 685 696 695
f 686 697 696
f 687 698 697
f 688 699 698
f 689 700 699
f 690 691 700
f 691 702 701
f 692 703 702
f 693 704 703
f 694 705 704
f 695 706 705
f 696 707 706
f 697 708 707
f 698 709 708
f 699 710 709
f 700 701 710
f 701 712 711
f 702 713 712
f 703 714 713
f 704 715 714
f 705 716 715
f 706 717 716
f 707 718 717
f 708 719 718
f 709 720 719
f 710 711 720
f 711 722 721
f 712 723 722
f 713 724 723
f 714 725 724
f 715 726 725
f 716 727 726
f 717 728 727
f 718 729 728
f 719 730 729
f 720 721 730
f 721 732 731
f 722 733 732
f 723 734 733
f 724 735 734
f 725 736 735
f 726 737 736
f 727 738 737
f 728 739 738
f 729 740 739
f 730 731 740
f 731 742 741
f 732 743 742
f 733 744 743
f 734 745 744
f 735 746 745
f 736 747 746
f 737 748 747
f 738 749 748
f 739 750 749
f 740 741 750
f 741 752 751
f 742 753 752
f 743 754 753
f 744 755 754
f 745 756 755
f 746 757 756
f 747 758 757
f 748 759 758
f 749 760 759
f 750 751 760
f 751 762 761
f 752 763 762
f 753 764 763
f 754 765 764
f 755 766 765
f 756 767 766
f 757 768 767
f 758 769 768
f 759 770 769
f 760 761 770
f 761 772 771
f 762 773 772
f 763 774 773
f 764 775 774
f 765 776 775
f 766 777 776
f 767 778 777
f 768 779 778
f 769 780 779
f 770 771 780
f 771 782 781
f 772 783 782
f 773 784 783
f 774 785 784
f 775 786 785
f 776 787 786
f 777 788 787
f 778 789 788
f 779 790 789
f 780 781 790
f 781 792 791
f 782 793 792
f 783 794 793
f 784 795 794
f 785 796 795
f 786 797 796
f 787 798 797
f 788 799 798
f 789 800 799
f 790 791 800
f 791 802 801
f 792 803 802
f 793 804 803
f 794 805 804
f 795 806 805
f 796 807 806
f 797 808 807
f 798 809 808
f 799 810 809
f 800 801 810
f 801 812 811
f 802 813 812
f 803 814 813
f 804 815 814
f 805 816 815
f 806 817 816
f 807 818 817
f 808 819 818
f 809 820 819
f 810 811 820
f 811 822 821
f 812 823 822
f 813 824 823
f 814 825 824
f 815 826 825
f 816 827 826
f 817 828 827
f 818 829 828
f 819 830 829
f 820 821 830
f 821 832 831
f 822 833 832
f 823 834 833
f 824 835 834
f 825 836 835
f 826 837 836
f 827 838 837
f 828 839 838
f 829 840 839
f 830 831 840
f 831 842 841
f 832 843 842
f 833 844 843
f 834 845 844
f 835 846 845
f 836 847 846
f 837 848 847
f 838 849 848
f 839 850 849
f 840 841 850
f 841 852 851
f 842 853 852
f 843 854 853
f 844 855 854
f 845 856 855
f 846 857 856
f 847 858 857
f 848 859 858
f 849 860 859
f 850 851 860
f 851 862 861
f 852 863 862
f 853 864 863
f 854 865 864
f 855 866 865
f 856 867 866
f 857 868 867
f 858 869 868
f 859 870 869
f 860 861 870
f 861 872 871
f 862 873 872
f 863 874 873
f 864 875 874
f 865 876 875
f 866 877 876
f 867 878 877
f 868 879 878
f 869 880 879
f 870 871 880
f 871 882 881
f 872 883 882
f 873 884 883
f 874 885 884
f 875 886 885
f 876 887 886
f 877 888 887
f 878 889 888
f 879 890 889
f 880 881 890
f 881 892 891
f 882 893 892
f 883 894 893
f 884 895 894
f 885 896 895
f 886 897 896
f 887 898 897
f 888 899 898
f 889 900 899
f 890 891 900
f 891 902 901
f 892 903 902
f 893 904 903
f 894 905 904
f 895 906 905
f 896 907 906
f 897 908 907
f 898 909 908
f 899 910 909
f 900 901 910
f 901 912 911
f 902 913 912
f 903 914 913
f 904 915 914
f 905 916 915
f 906 917 916
f 907 918 917
f 908 919 918
f 909 920 919
f 910 911 920
f 911 922 921
f 912 923 922
f 913 924 923
f 914 925 924
f 915 926 925
f 916 927 926
f 917 928 927
f 918 929 928
f 919 930 929
f 920 921 930
f 921 932 931
f 922 933 932
f 923 934 933
f 924 935 934
f 925 936 935
f 926 937 936
f 927 938 937
f 928 939 938
f 929 940 939
f 930 931 940
f 931 942 941
f 932 943 942
f 933 944 943
f 934 945 944
f 935 946 945
f 936 947 946
f 937 948 947
f 938 949 948
f 939 950 949
f 940 941 950
f 941 952 951
f 942 953 952
f 943 954 953
f 944 955 954
f 945 956 955
f 946 957 956
f 947 958 957
f 948 959 958
f 949 960 959
f 950 951 960
f 952 961 951
f 952 963 962
f 953 964 963
f 954 965 964
f 955 966 965
f 956 967 966
f 958 967 957
f 959 968 958
f 960 969 959
f 951 970 960
f 1 2 12
f 3 13 12
f 4 14 13
f 5 15 14
f 6 16 15
f 7 17 16
f 7 8 18
f 8 9 19
f 9 10 20
f 10 1 11
f 11 12 22
f 12 13 23
f 13 14 24
f 14 15 25
f 15 16 26
f 16 17 27
f 17 18 28
f 18 19 29
f 19 20 30
f 20 11 21
f 21 22 32
f 22 23 33
f 23 24 34
f 24 25 35
f 25 26 36
f 26 27 37
f 27 28 38
f 28 29 39
f 29 30 40
f 30 21 31
f 31 32 42
f 32 33 43
f 33 34 44
f 34 35 45
f 35 36 46
f 36 37 47
f 37 38 48
f 38 39 49
f 39 40 50
f 40 31 41
f 41 42 52
f 42 43 53
f 43 44 54
f 44 45 55
f 45 46 56
f 46 47 57
f 47 48 58
f 48 49 59
f 49 50 60
f 50 41 51
f 51 52 62
f 52 53 63
f 53 54 64
f 54 55 65
f 55 56 66
f 56 57 67
f 57 58 68
f 58 59 69
f 59 60 70
f 60 51 61
f 61 62 72
f 62 63 73
f 63 64 74
f 64 65 75
f 65 66 76
f 66 67 77
f 67 68 78
f 68 69 79
f 69 70 80
f 70 61 71
f 71 72 82
f 72 73 83
f 73 74 84
f 74 75 85
f 75 76 86
f 76 77 87
f 77 78 88
f 78 79 89
f 79 80 90
f 80 71 81
f 81 82 92
f 82 83 93
f 83 84 94
f 84 85 95
f 85 86 96
f 86 87 97
f 87 88 98
f 88 89 99
f 89 90 100
f 90 81 91
f 91 92 102
f 92 93 103
f 93 94 104
f 94 95 105
f 95 96 106
f 96 97 107
f 97 98 108
f 98 99 109
f 99 100 110
f 100 91 101
f 101 102 112
f 102 103 113
f 103 104 114
f 104 105 115
f 105 106 116
f 106 107 117
f 107 108 118
f 108 109 119
f 109 110 120
f 110 101 111
f 111 112 122
f 112 113 123
f 113 114 124
f 114 115 125
f 115 116 126
f 116 117 127
f 117 118 128
f 118 119 129
f 119 120 130
f 120 111 121
f 121 122 132
f 122 123 133
f 123 124 134
f 124 125 135
f 125 126 136
f 126 127 137
f 127 128 138
f 128 129 139
f 129 130 140
f 130 121 131
f 131 132 142
f 132 133 143
f 133 134 144
f 134 135 145
f 135 136 146
f 136 137 147
f 137 138 148
f 138 139 149
f 139 140 150
f 140 131 141
f 141 142 152
f 142 143 153
f 143 144 154
f 144 145 155
f 145 146 156
f 146 147 157
f 147 148 158
f 148 149 159
f 149 150 160
f 150 141 151
f 151 152 162
f 152 153 163
f 153 154 164
f 154 155 165
f 155 156 166
f 156 157 167
f 157 158 168
f 158 159 169
f 159 160 170
f 160 151 161
f 161 162 172
f 162 163 173
f 163 164 174
f 164 165 175
f 165 166 176
f 166 167 177
f 167 168 178
f 168 169 179
f 169 170 180
f 170 161 171
f 171 172 182
f 172 173 183
f 173 174 184
f 174 175 185
f 175 176 186
f 176 177 187
f 177 178 188
f 178 179 189
f 179 180 190
f 180 171 181
f 181 182 192
f 182 183 193
f 183 184 194
f 184 185 195
f 185 186 196
f 186 187 197
f 187 188 198
f 188 189 199
f 189 190 200
f 190 181 191
f 191 192 202
f 192 193 203
f 193 194 204
f 194 195 205
f 195 196 206
f 196 197 207
f 197 198 208
f 198 199 209
f 199 200 210
f 200 191 201
f 201 202 212
f 202 203 213
f 203 204 214
f 204 205 215
f 205 206 216
f 206 207 217
f 207 208 218
f 208 209 219
f 209 210 220
f 210 201 211
f 211 212 222
f 212 213 223
f 213 214 224
f 214 215 225
f 215 216 226
f 216 217 227
f 217 218 228
f 218 219 229
f 219 220 230
f 220 211 221
f 221 222 232
f 222 223 233
f 223 224 234
f 224 225 235
f 225 226 236
f 226 227 237
f 227 228 238
f 228 229 239
f 229 230 240
f 230 221 231
f 231 232 242
f 232 233 243
f 233 234 244
f 234 235 245
f 235 236 246
f 236 237 247
f 237 238 248
f 238 239 249
f 239 240 250
f 240 231 241
f 241 242 252
f 242 243 253
f 243 244 254
f 244 245 255
f 245 246 256
f 246 247 257
f 247 248 258
f 248 249 259
f 249 250 260
f 250 241 251
f 251 252 262
f 252 253 263
f 253 254 264
f 254 255 265
f 255 256 266
f 256 257 267
f 257 258 268
f 258 259 269
f 259 260 270
f 260 251 261
f 261 262 272
f 262 263 273
f 263 264 274
f 264 265 275
f 265 266 276
f 266 267 277
f 267 268 278
f 268 269 279
f 269 270 280
f 270 261 271
f 271 272 282
f 272 273 283
f 273 274 284
f 274 275 285
f 275 276 286
f 276 277 287
f 277 278 288
f 278 279 289
f 279 280 290
f 280 271 281
f 281 282 292
f 282 283 293
f 283 284 294
f 284 285 295
f 285 286 296
f 286 287 297
f 287 288 298
f 288 289 299
f 289 290 300
f 290 281 291
f 291 292 302
f 292 293 303
f 293 294 304
f 294 295 305
f 295 296 306
f 296 297 307
f 297 298 308
f 298 299 309
f 299 300 310
f 300 291 301
f 301 302 312
f 302 303 313
f 303 304 314
f 304 305 315
f 305 306 316
f 306 307 317
f 307 308 318
f 308 309 319
f 309 310 320
f 310 301 311
f 311 312 322
f 312 313 323
f 313 314 324
f 314 315 325
f 315 316 326
f 316 317 327
f 317 318 328
f 318 319 329
f 319 320 330
f 320 311 321
f 321 322 332
f 322 323 333
f 323 324 334
f 324 325 335
f 325 326 336
f 326 327 337
f 327 328 338
f 328 329 339
f 329 330 340
f 330 321 331
f 331 332 342
f 332 333 343
f 333 334 344
f 334 335 345
f 335 336 346
f 336 337 347
f 337 338 348
f 338 339 349
f 339 340 350
f 340 331 341
f 341 342 352
f 342 343 353
f 343 344 354
f 344 345 355
f 345 346 356
f 346 347 357
f 347 348 358
f 348 349 359
f 349 350 360
f 350 341 351
f 351 352 362
f 352 353 363
f 353 354 364
f 354 355 365
f 355 356 366
f 356 357 367
f 357 358 368
f 358 359 369
f 359 360 370
f 360 351 361
f 361 362 372
f 362 363 373
f 363 364 374
f 364 365 375
f 365 366 376
f 366 367 377
f 367 368 378
f 368 369 379
f 369 370 380
f 370 361 371
f 371 372 382
f 372 373 383
f 373 374 384
f 374 375 385
f 375 376 386
f 376 377 387
f 377 378 388
f 378 379 389
f 379 380 390
f 380 371 381
f 381 382 392
f 382 383 393
f 383 384 394
f 384 385 395
f 385 386 396
f 386 387 397
f 387 388 398
f 388 389 399
f 389 390 400
f 390 381 391
f 391 392 402
f 392 393 403
f 393 394 404
f 394 395 405
f 395 396 406
f 396 397 407
f 397 398 408
f 398 399 409
f 399 400 410
f 400 391 401
f 401 402 412
f 402 403 413
f 403 404 414
f 404 405 415
f 405 406 416
f 406 407 417
f 407 408 418
f 408 409 419
f 409 410 420
f 410 401 411
f 411 412 422
f 412 413 423
f 413 414 424
f 414 415 425
f 415 416 426
f 416 417 427
f 417 418 428
f 418 419 429
f 419 420 430
f 420 411 421
f 421 422 432
f 422 423 433
f 423 424 434
f 424 425 435
f 425 426 436
f 426 427 437
f 427 428 438
f 428 429 439
f 429 430 440
f 430 421 431
f 431 432 442
f 432 433 443
f 433 434 444
f 434 435 445
f 435 436 446
f 436 437 447
f 437 438 448
f 438 439 449
f 439 440 450
f 440 431 441
f 441 442 452
f 442 443 453
f 443 444 454
f 444 445 455
f 445 446 456
f 446 447 457
f 447 448 458
f 448 449 459
f 449 450 460
f 450 441 451
f 451 452 462
f 452 453 463
f 453 454 464
f 454 455 465
f 455 456 466
f 456 457 467
f 457 458 468
f 458 459 469
f 459 460 470
f 460 451 461
f 461 462 472
f 462 463 473
f 463 464 474
f 464 465 475
f 465 466 476
f 466 467 477
f 467 468 478
f 468 469 479
f 469 470 480
f 470 461 471
f 471 472 482
f 472 473 483
f 473 474 484
f 474 475 485
f 475 476 486
f 476 477 487
f 477 478 488
f 478 479 489
f 479 480 490
f 480 471 481
f 481 482 492
f 482 483 493
f 483 484 494
f 484 485 495
f 485 486 496
f 486 487 497
f 487 488 498
f 488 489 499
f 489 490 500
f 490 481 491
f 491 492 502
f 492 493 503
f 493 494 504
f 494 495 505
f 495 496 506
f 496 497 507
f 497 498 508
f 498 499 509
f 499 500 510
f 500 491 501
f 501 502 512
f 502 503 513
f 503 504 514
f 504 505 515
f 505 506 516
f 506 507 517
f 507 508 518
f 508 509 519
f 509 510 520
f 510 501 511
f 511 512 522
f 512 513 523
f 513 514 524
f 514 515 525
f 515 516 526
f 516 517 527
f 517 518 528
f 518 519 529
f 519 520 530
f 520 511 521
f 521 522 532
f 522 523 533
f 523 524 534
f 524 525 535
f 525 526 536
f 526 527 537
f 527 528 538
f 528 529 539
f 529 530 540
f 530 521 531
f 531 532 542
f 532 533 543
f 533 534 544
f 534 535 545
f 535 536 546
f 536 537 547
f 537 538 548
f 538 539 549
f 539 540 550
f 540 531 541
f 541 542 552
f 542 543 553
f 543 544 554
f 544 545 555
f 545 546 556
f 546 547 557
f 547 548 558
f 548 549 559
f 549 550 560
f 550 541 551
f 551 552 562
f 552 553 563
f 553 554 564
f 554 555 565
f 555 556 566
f 556 557 567
f 557 558 568
f 558 559 569
f 559 560 570
f 560 551 561
f 561 562 572
f 562 563 573
f 563 564 574
f 564 565 575
f 565 566 576
f 566 567 577
f 567 568 578
f 568 569 579
f 569 570 580
f 570 561 571
f 571 572 582
f 572 573 583
f 573 574 584
f 574 575 585
f 575 576 586
f 576 577 587
f 577 578 588
f 578 579 589
f 579 580 590
f 580 571 581
f 581 582 592
f 582 583 593
f 583 584 594
f 584 585 595
f 585 586 596
f 586 587 597
f 587 588 598
f 588 589 599
f 589 590 600
f 590 581 591
f 591 592 602
f 592 593 603
f 593 594 604
f 594 595 605
f 595 596 606
f 596 597 607
f 597 598 608
f 598 599 609
f 599 600 610
f 600 591 601
f 601 602 612
f 602 603 613
f 603 604 614
f 604 605 615
f 605 606 616
f 606 607 617
f 607 608 618
f 608 609 619
f 609 610 620
f 610 601 611
f 611 612 622
f 612 613 623
f 613 614 624
f 614 615 625
f 615 616 626
f 616 617 627
f 617 618 628
f 618 619 629
f 619 620 630
f 620 611 621
f 621 622 632
f 622 623 633
f 623 624 634
f 624 625 635
f 625 626 636
f 626 627 637
f 627 628 638
f 628 629 639
f 629 630 640
f 630 621 631
f 631 632 642
f 632 633 643
f 633 634 644
f 634 635 645
f 635 636 646
f 636 637 647
f 637 638 648
f 638 639 649
f 639 640 650
f 640 631 641
f 641 642 652
f 642 643 653
f 643 644 654
f 644 645 655
f 645 646 656
f 646 647 657
f 647 648 658
f 648 649 659
f 649 650 660
f 650 641 651
f 651 652 662
f 652 653 663
f 653 654 664
f 654 655 665
f 655 656 666
f 656 657 667
f 657 658 668
f 658 659 669
f 659 660 670
f 660 651 661
f 661 662 672
f 662 663 673
f 663 664 674
f 664 665 675
f 665 666 676
f 666 667 677
f 667 668 678
f 668 669 679
f 669 670 680
f 670 661 671
f 671 672 682
f 672 673 683
f 673 674 684
f 674 675 685
f 675 676 686
f 676 677 687
f 677 678 688
f 678 679 689
f 679 680 690
f 680 671 681
f 681 682 692
f 682 683 693
f 683 684 694
f 684 685 695
f 685 686 696
f 686 687 697
f 687 688 698
f 688 689 699
f 689 690 700
f 690 681 691
f 691 692 702
f 692 693 703
f 693 694 704
f 694 695 705
f 695 696 706
f 696 697 707
f 697 698 708
f 698 699 709
f 699 700 710
f 700 691 701
f 701 702 712
f 702 703 713
f 703 704 714
f 704 705 715
f 705 706 716
f 706 707 717
f 707 708 718
f 708 709 719
f 709 710 720
f 710 701 711
f 711 712 722
f 712 713 723
f 713 714 724
f 714 715 725
f 715 716 726
f 716 717 727
f 717 718 728
f 718 719 729
f 719 720 730
f 720 711 721
f 721 722 732
f 722 723 733
f 723 724 734
f 724 725 735
f 725 726 736
f 726 727 737
f 727 728 738
f 728 729 739
f 729 730 740
f 730 721 731
f 731 732 742
f 732 733 743
f 733 734 744
f 734 735 745
f 735 736 746
f 736 737 747
f 737 738 748
f 738 739 749
f 739 740 750
f 740 731 741
f 741 742 752
f 742 743 753
f 743 744 754
f 744 745 755
f 745 746 756
f 746 747 757
f 747 748 758
f 748 749 759
f 749 750 760
f 750 741 751
f 751 752 762
f 752 753 763
f 753 754 764
f 754 755 765
f 755 756 766
f 756 757 767
f 757 758 768
f 758 759 769
f 759 760 770
f 760 751 761
f 761 762 772
f 762 763 773
f 763 764 774
f 764 765 775
f 765 766 776
f 766 767 777
f 767 768 778
f 768 769 779
f 769 770 780
f 770 761 771
f 771 772 782
f 772 773 783
f 773 774 784
f 774 775 785
f 775 776 786
f 776 777 787
f 777 778 788
f 778 779 789
f 779 780 790
f 780 771 781
f 781 782 792
f 782 783 793
f 783 784 794
f 784 785 795
f 785 786 796
f 786 787 797
f 787 788 798
f 788 789 799
f 789 790 800
f 790 781 791
f 791 792 802
f 792 793 803
f 793 794 804
f 794 795 805
f 795 796 806
f 796 797 807
f 797 798 808
f 798 799 809
f 799 800 810
f 800 791 801
f 801 802 812
f 802 803 813
f 803 804 814
f 804 805 815
f 805 806 816
f 806 807 817
f 807 808 818
f 808 809 819
f 809 810 820
f 810 801 811
f 811 812 822
f 812 813 823
f 813 814 824
f 814 815 825
f 815 816 826
f 816 817 827
f 817 818 828
f 818 819 829
f 819 820 830
f 820 811 821
f 821 822 832
f 822 823 833
f 823 824 834
f 824 825 835
f 825 826 836
f 826 827 837
f 827 828 838
f 828 829 839
f 829 830 840
f 830 821 831
f 831 832 842
f 832 833 843
f 833 834 844
f 834 835 845
f 835 836 846
f 836 837 847
f 837 838 848
f 838 839 849
f 839 840 850
f 840 831 841
f 841 842 852
f 842 843 853
f 843 844 854
f 844 845 855
f 845 846 856
f 846 847 857
f 847 848 858
f 848 849 859
f 849 850 860
f 850 841 851
f 851 852 862
f 852 853 863
f 853 854 864
f 854 855 865
f 855 856 866
f 856 857 867
f 857 858 868
f 858 859 869
f 859 860 870
f 860 851 861
f 861 862 872
f 862 863 873
f 863 864 874
f 864 865 875
f 865 866 876
f 866 867 877
f 867 868 878
f 868 869 879
f 869 870 880
f 870 861 871
f 871 872 882
f 872 873 883
f 873 874 884
f 874 875 885
f 875 876 886
f 876 877 887
f 877 878 888
f 878 879 889
f 879 880 890
f 880 871 881
f 881 882 892
f 882 883 893
f 883 884 894
f 884 885 895
f 885 886 896
f 886 887 897
f 887 888 898
f 888 889 899
f 889 890 900
f 890 881 891
f 891 892 902
f 892 893 903
f 893 894 904
f 894 895 905
f 895 896 906
f 896 897 907
f 897 898 908
f 898 899 909
f 899 900 910
f 900 891 901
f 901 902 912
f 902 903 913
f 903 904 914
f 904 905 915
f 905 906 916
f 906 907 917
f 907 908 918
f 908 909 919
f 909 910 920
f 910 901 911
f 911 912 922
f 912 913 923
f 913 914 924
f 914 915 925
f 915 916 926
f 916 917 927
f 917 918 928
f 918 919 929
f 919 920 930
f 920 911 921
f 921 922 932
f 922 923 933
f 923 924 934
f 924 925 935
f 925 926 936
f 926 927 937
f 927 928 938
f 928 929 939
f 929 930 940
f 930 921 931
f 931 932 942
f 932 933 943
f 933 934 944
f 934 935 945
f 935 936 946
f 936 937 947
f 937 938 948
f 938 939 949
f 939 940 950
f 940 931 941
f 941 942 952
f 942 943 953
f 943 944 954
f 944 945 955
f 945 946 956
f 946 947 957
f 947 948 958
f 948 949 959
f 949 950 960
f 950 941 951
f 952 962 961
f 952 953 963
f 953 954 964
f 954 955 965
f 955 956 966
f 956 957 967
f 958 968 967
f 959 969 968
f 960 970 969
f 951 961 970
