# eclipse Orbital4_OrbitLine.obj: Roblox cue frame, recentred on its bounding box
v 0.38193 -0.55571 -0.38127
v 0.37716 -0.55920 -0.37753
v 0.37696 -0.56620 -0.37777
v 0.38153 -0.56969 -0.38175
v 0.38630 -0.56620 -0.38550
v 0.38650 -0.55920 -0.38526
v 0.41434 -0.55797 -0.34212
v 0.40954 -0.56147 -0.33842
v 0.40944 -0.56847 -0.33853
v 0.41415 -0.57197 -0.34234
v 0.41895 -0.56848 -0.34605
v 0.41905 -0.56148 -0.34594
v 0.44489 -0.55783 -0.30165
v 0.44002 -0.56131 -0.29803
v 0.44011 -0.56831 -0.29787
v 0.44508 -0.57182 -0.30133
v 0.44995 -0.56833 -0.30495
v 0.44986 -0.56134 -0.30511
v 0.47354 -0.55527 -0.25988
v 0.46861 -0.55876 -0.25635
v 0.46888 -0.56574 -0.25592
v 0.47410 -0.56923 -0.25901
v 0.47904 -0.56575 -0.26254
v 0.47876 -0.55877 -0.26298
v 0.50018 -0.55033 -0.21702
v 0.49518 -0.55382 -0.21358
v 0.49563 -0.56076 -0.21286
v 0.50107 -0.56422 -0.21558
v 0.50607 -0.56073 -0.21902
v 0.50562 -0.55378 -0.21974
v 0.52469 -0.54301 -0.17323
v 0.51964 -0.54651 -0.16988
v 0.52024 -0.55341 -0.16887
v 0.52589 -0.55681 -0.17121
v 0.53094 -0.55331 -0.17456
v 0.53034 -0.54641 -0.17557
v 0.54697 -0.53334 -0.12871
v 0.54186 -0.53686 -0.12546
v 0.54260 -0.54370 -0.12416
v 0.54844 -0.54702 -0.12611
v 0.55355 -0.54351 -0.12936
v 0.55281 -0.53667 -0.13066
v 0.56691 -0.52138 -0.08365
v 0.56176 -0.52492 -0.08049
v 0.56262 -0.53168 -0.07889
v 0.56864 -0.53490 -0.08045
v 0.57379 -0.53137 -0.08361
v 0.57293 -0.52461 -0.08520
v 0.58445 -0.50717 -0.03823
v 0.57925 -0.51073 -0.03518
v 0.58022 -0.51740 -0.03328
v 0.58638 -0.52051 -0.03444
v 0.59158 -0.51695 -0.03750
v 0.59061 -0.51028 -0.03939
v 0.59949 -0.49077 0.00733
v 0.59426 -0.49436 0.01029
v 0.59531 -0.50092 0.01249
v 0.60161 -0.50390 0.01173
v 0.60684 -0.50031 0.00877
v 0.60578 -0.49375 0.00657
v 0.61198 -0.47226 0.05286
v 0.60671 -0.47588 0.05572
v 0.60784 -0.48232 0.05821
v 0.61424 -0.48514 0.05785
v 0.61951 -0.48152 0.05499
v 0.61837 -0.47507 0.05250
v 0.62186 -0.45170 0.09816
v 0.61657 -0.45536 0.10091
v 0.61775 -0.46167 0.10370
v 0.62423 -0.46432 0.10374
v 0.62953 -0.46066 0.10098
v 0.62834 -0.45435 0.09819
v 0.62909 -0.42919 0.14303
v 0.62377 -0.43290 0.14568
v 0.62500 -0.43906 0.14876
v 0.63154 -0.44152 0.14919
v 0.63686 -0.43781 0.14653
v 0.63563 -0.43165 0.14345
v 0.63364 -0.40483 0.18727
v 0.62831 -0.40859 0.18982
v 0.62956 -0.41460 0.19319
v 0.63614 -0.41685 0.19401
v 0.64146 -0.41309 0.19146
v 0.64021 -0.40708 0.18809
v 0.63548 -0.37872 0.23071
v 0.63015 -0.38253 0.23316
v 0.63140 -0.38837 0.23681
v 0.63799 -0.39040 0.23801
v 0.64333 -0.38659 0.23555
v 0.64208 -0.38075 0.23191
v 0.63462 -0.35097 0.27315
v 0.62928 -0.35484 0.27550
v 0.63053 -0.36050 0.27942
v 0.63711 -0.36229 0.28099
v 0.64245 -0.35842 0.27864
v 0.64120 -0.35276 0.27472
v 0.63106 -0.32170 0.31441
v 0.62572 -0.32563 0.31666
v 0.62693 -0.33110 0.32085
v 0.63348 -0.33265 0.32279
v 0.63882 -0.32872 0.32053
v 0.63761 -0.32324 0.31634
v 0.62480 -0.29103 0.35432
v 0.61948 -0.29503 0.35648
v 0.62064 -0.30031 0.36092
v 0.62713 -0.30159 0.36321
v 0.63246 -0.29760 0.36105
v 0.63129 -0.29232 0.35660
v 0.61589 -0.25910 0.39270
v 0.61058 -0.26317 0.39477
v 0.61167 -0.26824 0.39946
v 0.61808 -0.26926 0.40208
v 0.62340 -0.26519 0.40002
v 0.62230 -0.26012 0.39532
v 0.60434 -0.22605 0.42939
v 0.59905 -0.23019 0.43137
v 0.60007 -0.23505 0.43630
v 0.60638 -0.23578 0.43925
v 0.61167 -0.23165 0.43727
v 0.61065 -0.22678 0.43234
v 0.59023 -0.19201 0.46423
v 0.58496 -0.19622 0.46613
v 0.58588 -0.20087 0.47128
v 0.59207 -0.20131 0.47454
v 0.59733 -0.19710 0.47264
v 0.59641 -0.19245 0.46749
v 0.57359 -0.15713 0.49708
v 0.56837 -0.16142 0.49890
v 0.56917 -0.16585 0.50426
v 0.57521 -0.16599 0.50781
v 0.58043 -0.16170 0.50599
v 0.57963 -0.15727 0.50063
v 0.55452 -0.12156 0.52779
v 0.54933 -0.12593 0.52953
v 0.55001 -0.13013 0.53509
v 0.55587 -0.12997 0.53891
v 0.56106 -0.12560 0.53717
v 0.56038 -0.12140 0.53161
v 0.53308 -0.08546 0.55624
v 0.52794 -0.08991 0.55790
v 0.52847 -0.09388 0.56364
v 0.53414 -0.09341 0.56771
v 0.53929 -0.08896 0.56605
v 0.53875 -0.08498 0.56031
v 0.50937 -0.04897 0.58229
v 0.50428 -0.05350 0.58389
v 0.50465 -0.05725 0.58979
v 0.51012 -0.05646 0.59409
v 0.51521 -0.05193 0.59249
v 0.51483 -0.04818 0.58659
v 0.48349 -0.01225 0.60584
v 0.47846 -0.01687 0.60738
v 0.47866 -0.02038 0.61343
v 0.48390 -0.01928 0.61794
v 0.48893 -0.01467 0.61640
v 0.48873 -0.01115 0.61035
v 0.45556 0.02453 0.62679
v 0.45059 0.01983 0.62827
v 0.45060 0.01655 0.63445
v 0.45559 0.01797 0.63915
v 0.46056 0.02267 0.63767
v 0.46054 0.02595 0.63149
v 0.42568 0.06123 0.64504
v 0.42078 0.05644 0.64647
v 0.42060 0.05339 0.65277
v 0.42533 0.05512 0.65763
v 0.43023 0.05991 0.65620
v 0.43041 0.06296 0.64991
v 0.39400 0.09768 0.66053
v 0.38917 0.09281 0.66191
v 0.38878 0.08998 0.66831
v 0.39323 0.09203 0.67331
v 0.39806 0.09690 0.67192
v 0.39844 0.09973 0.66553
v 0.36064 0.13373 0.67317
v 0.35589 0.12878 0.67452
v 0.35528 0.12617 0.68099
v 0.35943 0.12853 0.68611
v 0.36419 0.13349 0.68476
v 0.36479 0.13609 0.67829
v 0.32575 0.16923 0.68293
v 0.32108 0.16419 0.68425
v 0.32025 0.16181 0.69078
v 0.32409 0.16447 0.69599
v 0.32876 0.16951 0.69467
v 0.32959 0.17189 0.68814
v 0.28947 0.20402 0.68975
v 0.28489 0.19889 0.69105
v 0.28382 0.19673 0.69762
v 0.28734 0.19969 0.70289
v 0.29193 0.20481 0.70160
v 0.29300 0.20698 0.69502
v 0.25197 0.23795 0.69361
v 0.24748 0.23274 0.69489
v 0.24617 0.23079 0.70148
v 0.24936 0.23404 0.70680
v 0.25386 0.23925 0.70552
v 0.25516 0.24120 0.69892
v 0.21341 0.27088 0.69449
v 0.20900 0.26559 0.69576
v 0.20744 0.26384 0.70236
v 0.21029 0.26738 0.70768
v 0.21470 0.27267 0.70641
v 0.21626 0.27442 0.69982
v 0.17394 0.30267 0.69239
v 0.16963 0.29730 0.69366
v 0.16782 0.29574 0.70024
v 0.17032 0.29955 0.70555
v 0.17463 0.30492 0.70428
v 0.17644 0.30648 0.69770
v 0.13374 0.33317 0.68731
v 0.12952 0.32773 0.68858
v 0.12746 0.32636 0.69513
v 0.12960 0.33044 0.70040
v 0.13381 0.33588 0.69913
v 0.13588 0.33725 0.69258
v 0.09297 0.36227 0.67928
v 0.08886 0.35676 0.68057
v 0.08653 0.35556 0.68706
v 0.08832 0.35989 0.69227
v 0.09243 0.36541 0.69098
v 0.09476 0.36660 0.68449
v 0.05183 0.38984 0.66834
v 0.04782 0.38425 0.66964
v 0.04522 0.38323 0.67606
v 0.04664 0.38779 0.68118
v 0.05066 0.39338 0.67987
v 0.05325 0.39440 0.67345
v 0.01047 0.41575 0.65452
v 0.00656 0.41010 0.65585
v 0.00371 0.40923 0.66218
v 0.00476 0.41401 0.66718
v 0.00867 0.41967 0.66585
v 0.01152 0.42054 0.65952
v -0.03092 0.43990 0.63789
v -0.03472 0.43419 0.63925
v -0.03784 0.43346 0.64548
v -0.03716 0.43845 0.65034
v -0.03335 0.44417 0.64897
v -0.03023 0.44489 0.64275
v -0.07216 0.46218 0.61852
v -0.07586 0.45641 0.61993
v -0.07924 0.45582 0.62603
v -0.07892 0.46100 0.63072
v -0.07522 0.46678 0.62931
v -0.07184 0.46737 0.62321
v -0.11309 0.48250 0.59649
v -0.11668 0.47668 0.59795
v -0.12032 0.47621 0.60391
v -0.12036 0.48157 0.60841
v -0.11677 0.48739 0.60696
v -0.11313 0.48786 0.60100
v -0.15351 0.50078 0.57190
v -0.15701 0.49490 0.57341
v -0.16090 0.49454 0.57921
v -0.16130 0.50005 0.58351
v -0.15781 0.50593 0.58200
v -0.15391 0.50629 0.57619
v -0.19327 0.51692 0.54485
v -0.19666 0.51100 0.54642
v -0.20080 0.51073 0.55205
v -0.20156 0.51638 0.55612
v -0.19817 0.52230 0.55454
v -0.19402 0.52257 0.54891
v -0.23219 0.53087 0.51545
v -0.23548 0.52491 0.51709
v -0.23986 0.52472 0.52254
v -0.24096 0.53049 0.52635
v -0.23768 0.53645 0.52471
v -0.23329 0.53664 0.51926
v -0.27010 0.54256 0.48384
v -0.27329 0.53657 0.48556
v -0.27791 0.53645 0.49081
v -0.27935 0.54232 0.49435
v -0.27616 0.54831 0.49263
v -0.27153 0.54843 0.48738
v -0.30684 0.55195 0.45015
v -0.30993 0.54593 0.45195
v -0.31479 0.54586 0.45699
v -0.31655 0.55180 0.46023
v -0.31346 0.55782 0.45844
v -0.30860 0.55789 0.45340
v -0.34225 0.55898 0.41452
v -0.34525 0.55295 0.41640
v -0.35033 0.55291 0.42122
v -0.35241 0.55892 0.42416
v -0.34941 0.56495 0.42228
v -0.34433 0.56499 0.41746
v -0.37619 0.56365 0.37711
v -0.37909 0.55759 0.37908
v -0.38438 0.55758 0.38367
v -0.38677 0.56362 0.38628
v -0.38386 0.56968 0.38431
v -0.37857 0.56969 0.37972
v -0.40850 0.56591 0.33807
v -0.41132 0.55985 0.34014
v -0.41681 0.55984 0.34448
v -0.41948 0.56590 0.34675
v -0.41666 0.57196 0.34469
v -0.41117 0.57197 0.34035
v -0.43905 0.56577 0.29758
v -0.44178 0.55971 0.29975
v -0.44747 0.55969 0.30384
v -0.45041 0.56574 0.30576
v -0.44768 0.57181 0.30359
v -0.44199 0.57183 0.29950
v -0.46771 0.56323 0.25580
v -0.47036 0.55716 0.25807
v -0.47622 0.55712 0.26190
v -0.47942 0.56315 0.26346
v -0.47677 0.56921 0.26119
v -0.47091 0.56925 0.25736
v -0.49435 0.55829 0.21291
v -0.49693 0.55223 0.21530
v -0.50295 0.55215 0.21886
v -0.50640 0.55813 0.22004
v -0.50381 0.56419 0.21766
v -0.49779 0.56426 0.21410
v -0.51886 0.55097 0.16911
v -0.52137 0.54493 0.17160
v -0.52755 0.54480 0.17490
v -0.53121 0.55071 0.17570
v -0.52870 0.55675 0.17321
v -0.52252 0.55688 0.16991
v -0.54114 0.54131 0.12457
v -0.54359 0.53530 0.12717
v -0.54990 0.53510 0.13020
v -0.55376 0.54092 0.13061
v -0.55131 0.54694 0.12801
v -0.54500 0.54714 0.12498
v -0.56109 0.52936 0.07949
v -0.56348 0.52336 0.08221
v -0.56991 0.52309 0.08495
v -0.57395 0.52880 0.08497
v -0.57157 0.53479 0.08225
v -0.56513 0.53507 0.07951
v -0.57862 0.51515 0.03405
v -0.58096 0.50919 0.03689
v -0.58750 0.50882 0.03936
v -0.59170 0.51440 0.03898
v -0.58936 0.52036 0.03614
v -0.58282 0.52073 0.03368
v -0.59366 0.49875 -0.01154
v -0.59595 0.49283 -0.00858
v -0.60258 0.49235 -0.00639
v -0.60692 0.49779 -0.00716
v -0.60463 0.50371 -0.01012
v -0.59800 0.50419 -0.01231
v -0.60615 0.48023 -0.05709
v -0.60840 0.47436 -0.05401
v -0.61510 0.47376 -0.05210
v -0.61956 0.47903 -0.05327
v -0.61731 0.48490 -0.05635
v -0.61060 0.48550 -0.05825
v -0.61602 0.45968 -0.10240
v -0.61824 0.45386 -0.09920
v -0.62501 0.45313 -0.09757
v -0.62956 0.45821 -0.09913
v -0.62734 0.46403 -0.10233
v -0.62057 0.46476 -0.10397
v -0.62325 0.43717 -0.14729
v -0.62544 0.43141 -0.14397
v -0.63225 0.43053 -0.14261
v -0.63687 0.43541 -0.14456
v -0.63468 0.44117 -0.14788
v -0.62787 0.44205 -0.14924
v -0.62780 0.41281 -0.19155
v -0.62997 0.40711 -0.18811
v -0.63680 0.40607 -0.18702
v -0.64147 0.41074 -0.18937
v -0.63930 0.41644 -0.19280
v -0.63246 0.41747 -0.19390
v -0.62964 0.38669 -0.23501
v -0.63180 0.38106 -0.23145
v -0.63864 0.37986 -0.23062
v -0.64333 0.38429 -0.23334
v -0.64117 0.38992 -0.23690
v -0.63432 0.39112 -0.23773
v -0.62877 0.35894 -0.27747
v -0.63093 0.35338 -0.27379
v -0.63777 0.35201 -0.27322
v -0.64245 0.35619 -0.27631
v -0.64030 0.36174 -0.27999
v -0.63346 0.36312 -0.28056
v -0.62520 0.32967 -0.31875
v -0.62736 0.32419 -0.31496
v -0.63417 0.32263 -0.31463
v -0.63883 0.32655 -0.31809
v -0.63667 0.33202 -0.32188
v -0.62986 0.33359 -0.32220
v -0.61894 0.29900 -0.35867
v -0.62110 0.29360 -0.35478
v -0.62788 0.29185 -0.35469
v -0.63249 0.29549 -0.35849
v -0.63032 0.30089 -0.36239
v -0.62355 0.30264 -0.36248
v -0.61001 0.26707 -0.39707
v -0.61219 0.26176 -0.39307
v -0.61891 0.25980 -0.39321
v -0.62345 0.26316 -0.39735
v -0.62127 0.26847 -0.40135
v -0.61455 0.27043 -0.40121
v -0.59846 0.23401 -0.43378
v -0.60067 0.22879 -0.42967
v -0.60732 0.22663 -0.43003
v -0.61175 0.22969 -0.43450
v -0.60955 0.23491 -0.43860
v -0.60290 0.23707 -0.43824
v -0.58433 0.19997 -0.46864
v -0.58657 0.19484 -0.46444
v -0.59313 0.19247 -0.46500
v -0.59745 0.19522 -0.46977
v -0.59521 0.20035 -0.47397
v -0.58865 0.20272 -0.47341
v -0.56769 0.16509 -0.50150
v -0.56997 0.16005 -0.49721
v -0.57642 0.15746 -0.49797
v -0.58060 0.15991 -0.50302
v -0.57832 0.16494 -0.50732
v -0.57186 0.16753 -0.50656
v -0.54860 0.12951 -0.53223
v -0.55092 0.12458 -0.52784
v -0.55726 0.12177 -0.52878
v -0.56128 0.12389 -0.53411
v -0.55895 0.12883 -0.53850
v -0.55261 0.13164 -0.53756
v -0.52715 0.09340 -0.56069
v -0.52952 0.08857 -0.55622
v -0.53574 0.08553 -0.55733
v -0.53957 0.08733 -0.56290
v -0.53719 0.09217 -0.56737
v -0.53098 0.09520 -0.56626
v -0.50342 0.05691 -0.58675
v -0.50586 0.05217 -0.58221
v -0.51193 0.04892 -0.58347
v -0.51556 0.05039 -0.58927
v -0.51312 0.05512 -0.59381
v -0.50705 0.05838 -0.59256
v -0.47753 0.02019 -0.61032
v -0.48004 0.01556 -0.60570
v -0.48595 0.01207 -0.60709
v -0.48935 0.01322 -0.61310
v -0.48684 0.01785 -0.61772
v -0.48093 0.02133 -0.61632
v -0.44958 -0.01660 -0.63128
v -0.45216 -0.02113 -0.62660
v -0.45790 -0.02484 -0.62811
v -0.46106 -0.02402 -0.63430
v -0.45848 -0.01950 -0.63898
v -0.45274 -0.01579 -0.63747
v -0.41969 -0.05331 -0.64954
v -0.42235 -0.05773 -0.64481
v -0.42791 -0.06166 -0.64642
v -0.43081 -0.06118 -0.65277
v -0.42815 -0.05676 -0.65751
v -0.42259 -0.05282 -0.65589
v -0.38799 -0.08977 -0.66503
v -0.39073 -0.09408 -0.66025
v -0.39610 -0.09824 -0.66196
v -0.39873 -0.09808 -0.66844
v -0.39599 -0.09376 -0.67322
v -0.39062 -0.08961 -0.67152
v -0.35461 -0.12582 -0.67769
v -0.35744 -0.13003 -0.67287
v -0.36261 -0.13441 -0.67464
v -0.36495 -0.13457 -0.68124
v -0.36212 -0.13036 -0.68606
v -0.35695 -0.12599 -0.68429
v -0.31970 -0.16132 -0.68745
v -0.32263 -0.16543 -0.68260
v -0.32759 -0.17002 -0.68442
v -0.32962 -0.17051 -0.69110
v -0.32670 -0.16640 -0.69596
v -0.32174 -0.16181 -0.69413
v -0.28341 -0.19612 -0.69428
v -0.28644 -0.20012 -0.68940
v -0.29118 -0.20492 -0.69126
v -0.29290 -0.20572 -0.69800
v -0.28987 -0.20172 -0.70288
v -0.28513 -0.19691 -0.70102
v -0.24589 -0.23005 -0.69815
v -0.24902 -0.23396 -0.69325
v -0.25354 -0.23896 -0.69512
v -0.25493 -0.24007 -0.70190
v -0.25180 -0.23616 -0.70679
v -0.24729 -0.23116 -0.70492
v -0.20731 -0.26299 -0.69903
v -0.21054 -0.26679 -0.69413
v -0.21483 -0.27200 -0.69600
v -0.21588 -0.27340 -0.70278
v -0.21265 -0.26959 -0.70768
v -0.20836 -0.26439 -0.70581
v -0.16782 -0.29478 -0.69693
v -0.17116 -0.29849 -0.69203
v -0.17522 -0.30389 -0.69388
v -0.17593 -0.30557 -0.70064
v -0.17258 -0.30186 -0.70554
v -0.16853 -0.29646 -0.70369
v -0.12760 -0.32529 -0.69186
v -0.13106 -0.32891 -0.68697
v -0.13487 -0.33449 -0.68878
v -0.13523 -0.33645 -0.69549
v -0.13177 -0.33283 -0.70039
v -0.12796 -0.32725 -0.69857
v -0.08682 -0.35439 -0.68383
v -0.09039 -0.35792 -0.67896
v -0.09396 -0.36368 -0.68072
v -0.09396 -0.36590 -0.68735
v -0.09039 -0.36237 -0.69223
v -0.08682 -0.35662 -0.69047
v -0.04565 -0.38196 -0.67289
v -0.04934 -0.38540 -0.66804
v -0.05267 -0.39132 -0.66973
v -0.05231 -0.39380 -0.67626
v -0.04862 -0.39036 -0.68111
v -0.04529 -0.38443 -0.67943
v -0.00427 -0.40787 -0.65907
v -0.00808 -0.41124 -0.65426
v -0.01117 -0.41731 -0.65585
v -0.01045 -0.42002 -0.66227
v -0.00664 -0.41666 -0.66708
v -0.00355 -0.41058 -0.66548
v 0.03714 -0.43202 -0.64244
v 0.03321 -0.43531 -0.63767
v 0.03037 -0.44153 -0.63916
v 0.03145 -0.44446 -0.64543
v 0.03537 -0.44117 -0.65020
v 0.03822 -0.43495 -0.64870
v 0.07840 -0.45431 -0.62307
v 0.07435 -0.45752 -0.61835
v 0.07175 -0.46388 -0.61972
v 0.07320 -0.46701 -0.62581
v 0.07724 -0.46379 -0.63053
v 0.07984 -0.45744 -0.62916
v 0.11934 -0.47463 -0.60104
v 0.11518 -0.47778 -0.59638
v 0.11281 -0.48425 -0.59761
v 0.11462 -0.48757 -0.60350
v 0.11878 -0.48442 -0.60816
v 0.12115 -0.47795 -0.60693
v 0.15979 -0.49290 -0.57644
v 0.15550 -0.49599 -0.57185
v 0.15338 -0.50257 -0.57293
v 0.15553 -0.50606 -0.57860
v 0.15982 -0.50297 -0.58319
v 0.16195 -0.49639 -0.58211
v 0.19956 -0.50904 -0.54939
v 0.19516 -0.51208 -0.54487
v 0.19327 -0.51876 -0.54579
v 0.19577 -0.52239 -0.55122
v 0.20017 -0.51935 -0.55573
v 0.20207 -0.51268 -0.55482
v 0.23850 -0.52299 -0.51999
v 0.23398 -0.52598 -0.51555
v 0.23231 -0.53274 -0.51629
v 0.23516 -0.53650 -0.52146
v 0.23968 -0.53351 -0.52589
v 0.24135 -0.52675 -0.52515
v 0.27643 -0.53468 -0.48837
v 0.27180 -0.53763 -0.48403
v 0.27035 -0.54445 -0.48457
v 0.27353 -0.54833 -0.48946
v 0.27816 -0.54538 -0.49380
v 0.27961 -0.53855 -0.49326
v 0.31319 -0.54406 -0.45467
v 0.30845 -0.54697 -0.45043
v 0.30721 -0.55386 -0.45077
v 0.31071 -0.55782 -0.45535
v 0.31545 -0.55491 -0.45960
v 0.31669 -0.54802 -0.45926
v 0.34862 -0.55109 -0.41904
v 0.34377 -0.55398 -0.41489
v 0.34274 -0.56090 -0.41502
v 0.34655 -0.56494 -0.41928
v 0.35140 -0.56205 -0.42343
v 0.35243 -0.55513 -0.42330
v 0.38267 -0.55576 -0.38150
v 0.37777 -0.55864 -0.37741
v 0.37683 -0.56558 -0.37743
v 0.38080 -0.56964 -0.38153
v 0.38570 -0.56676 -0.38561
v 0.38663 -0.55982 -0.38560
f 1 8 7
f 3 8 2
f 4 9 3
f 5 10 4
f 5 12 11
f 6 7 12
f 7 14 13
f 8 15 14
f 9 16 15
f 10 17 16
f 11 18 17
f 12 13 18
f 13 20 19
f 14 21 20
f 15 22 21
f 16 23 22
f 17 24 23
f 18 19 24
f 19 26 25
f 20 27 26
f 21 28 27
f 22 29 28
f 23 30 29
f 24 25 30
f 25 32 31
f 26 33 32
f 27 34 33
f 28 35 34
f 29 36 35
f 30 31 36
f 31 38 37
f 32 39 38
f 33 40 39
f 34 41 40
f 35 42 41
f 36 37 42
f 37 44 43
f 38 45 44
f 39 46 45
f 40 47 46
f 41 48 47
f 42 43 48
f 43 50 49
f 44 51 50
f 45 52 51
f 46 53 52
f 47 54 53
f 48 49 54
f 49 56 55
f 50 57 56
f 51 58 57
f 52 59 58
f 53 60 59
f 54 55 60
f 55 62 61
f 56 63 62
f 57 64 63
f 58 65 64
f 59 66 65
f 60 61 66
f 61 68 67
f 62 69 68
f 63 70 69
f 64 71 70
f 65 72 71
f 66 67 72
f 67 74 73
f 68 75 74
f 69 76 75
f 70 77 76
f 71 78 77
f 72 73 78
f 73 80 79
f 74 81 80
f 75 82 81
f 76 83 82
f 77 84 83
f 78 79 84
f 79 86 85
f 80 87 86
f 81 88 87
f 82 89 88
f 83 90 89
f 84 85 90
f 85 92 91
f 86 93 92
f 87 94 93
f 88 95 94
f 89 96 95
f 90 91 96
f 91 98 97
f 92 99 98
f 93 100 99
f 94 101 100
f 95 102 101
f 96 97 102
f 97 104 103
f 98 105 104
f 99 106 105
f 100 107 106
f 101 108 107
f 102 103 108
f 103 110 109
f 104 111 110
f 105 112 111
f 106 113 112
f 107 114 113
f 108 109 114
f 109 116 115
f 110 117 116
f 111 118 117
f 112 119 118
f 113 120 119
f 114 115 120
f 115 122 121
f 116 123 122
f 117 124 123
f 118 125 124
f 119 126 125
f 120 121 126
f 121 128 127
f 122 129 128
f 123 130 129
f 124 131 130
f 125 132 131
f 126 127 132
f 127 134 133
f 128 135 134
f 129 136 135
f 130 137 136
f 131 138 137
f 132 133 138
f 133 140 139
f 134 141 140
f 135 142 141
f 136 143 142
f 137 144 143
f 138 139 144
f 139 146 145
f 140 147 146
f 141 148 147
f 142 149 148
f 143 150 149
f 144 145 150
f 145 152 151
f 146 153 152
f 147 154 153
f 148 155 154
f 149 156 155
f 150 151 156
f 151 158 157
f 152 159 158
f 153 160 159
f 154 161 160
f 155 162 161
f 156 157 162
f 157 164 163
f 158 165 164
f 159 166 165
f 160 167 166
f 161 168 167
f 162 163 168
f 163 170 169
f 164 171 170
f 165 172 171
f 166 173 172
f 167 174 173
f 168 169 174
f 169 176 175
f 170 177 176
f 171 178 177
f 172 179 178
f 173 180 179
f 174 175 180
f 175 182 181
f 176 183 182
f 177 184 183
f 178 185 184
f 179 186 185
f 180 181 186
f 181 188 187
f 182 189 188
f 183 190 189
f 184 191 190
f 185 192 191
f 186 187 192
f 187 194 193
f 188 195 194
f 189 196 195
f 190 197 196
f 191 198 197
f 192 193 198
f 193 200 199
f 194 201 200
f 195 202 201
f 196 203 202
f 197 204 203
f 198 199 204
f 199 206 205
f 200 207 206
f 201 208 207
f 202 209 208
f 203 210 209
f 204 205 210
f 205 212 211
f 206 213 212
f 207 214 213
f 208 215 214
f 209 216 215
f 210 211 216
f 211 218 217
f 212 219 218
f 213 220 219
f 214 221 220
f 215 222 221
f 216 217 222
f 217 224 223
f 218 225 224
f 219 226 225
f 220 227 226
f 221 228 227
f 222 223 228
f 223 230 229
f 224 231 230
f 225 232 231
f 226 233 232
f 227 234 233
f 228 229 234
f 229 236 235
f 230 237 236
f 231 238 237
f 232 239 238
f 233 240 239
f 234 235 240
f 235 242 241
f 236 243 242
f 237 244 243
f 238 245 244
f 239 246 245
f 240 241 246
f 241 248 247
f 242 249 248
f 243 250 249
f 244 251 250
f 245 252 251
f 246 247 252
f 247 254 253
f 248 255 254
f 249 256 255
f 250 257 256
f 251 258 257
f 252 253 258
f 253 260 259
f 254 261 260
f 255 262 261
f 256 263 262
f 257 264 263
f 258 259 264
f 259 266 265
f 260 267 266
f 261 268 267
f 262 269 268
f 263 270 269
f 264 265 270
f 265 272 271
f 266 273 272
f 267 274 273
f 268 275 274
f 269 276 275
f 270 271 276
f 271 278 277
f 272 279 278
f 273 280 279
f 274 281 280
f 275 282 281
f 276 277 282
f 277 284 283
f 278 285 284
f 279 286 285
f 280 287 286
f 281 288 287
f 282 283 288
f 283 290 289
f 284 291 290
f 285 292 291
f 286 293 292
f 287 294 293
f 288 289 294
f 289 296 295
f 290 297 296
f 291 298 297
f 292 299 298
f 293 300 299
f 294 295 300
f 295 302 301
f 296 303 302
f 297 304 303
f 298 305 304
f 299 306 305
f 300 301 306
f 301 308 307
f 302 309 308
f 303 310 309
f 304 311 310
f 305 312 311
f 306 307 312
f 307 314 313
f 308 315 314
f 309 316 315
f 310 317 316
f 311 318 317
f 312 313 318
f 313 320 319
f 314 321 320
f 315 322 321
f 316 323 322
f 317 324 323
f 318 319 324
f 319 326 325
f 320 327 326
f 321 328 327
f 322 329 328
f 323 330 329
f 324 325 330
f 325 332 331
f 326 333 332
f 327 334 333
f 328 335 334
f 329 336 335
f 330 331 336
f 331 338 337
f 332 339 338
f 333 340 339
f 334 341 340
f 335 342 341
f 336 337 342
f 337 344 343
f 338 345 344
f 339 346 345
f 340 347 346
f 341 348 347
f 342 343 348
f 343 350 349
f 344 351 350
f 345 352 351
f 346 353 352
f 347 354 353
f 348 349 354
f 349 356 355
f 350 357 356
f 351 358 357
f 352 359 358
f 353 360 359
f 354 355 360
f 355 362 361
f 356 363 362
f 357 364 363
f 358 365 364
f 359 366 365
f 360 361 366
f 361 368 367
f 362 369 368
f 363 370 369
f 364 371 370
f 365 372 371
f 366 367 372
f 367 374 373
f 368 375 374
f 369 376 375
f 370 377 376
f 371 378 377
f 372 373 378
f 373 380 379
f 374 381 380
f 375 382 381
f 376 383 382
f 377 384 383
f 378 379 384
f 379 386 385
f 380 387 386
f 381 388 387
f 382 389 388
f 383 390 389
f 384 385 390
f 385 392 391
f 386 393 392
f 387 394 393
f 388 395 394
f 389 396 395
f 390 391 396
f 391 398 397
f 392 399 398
f 393 400 399
f 394 401 400
f 395 402 401
f 396 397 402
f 397 404 403
f 398 405 404
f 399 406 405
f 400 407 406
f 401 408 407
f 402 403 408
f 403 410 409
f 404 411 410
f 405 412 411
f 406 413 412
f 407 414 413
f 408 409 414
f 409 416 415
f 410 417 416
f 411 418 417
f 412 419 418
f 413 420 419
f 414 415 420
f 415 422 421
f 416 423 422
f 417 424 423
f 418 425 424
f 419 426 425
f 420 421 426
f 421 428 427
f 422 429 428
f 423 430 429
f 424 431 430
f 425 432 431
f 426 427 432
f 427 434 433
f 428 435 434
f 429 436 435
f 430 437 436
f 431 438 437
f 432 433 438
f 433 440 439
f 434 441 440
f 435 442 441
f 436 443 442
f 437 444 443
f 438 439 444
f 439 446 445
f 440 447 446
f 441 448 447
f 442 449 448
f 443 450 449
f 444 445 450
f 445 452 451
f 446 453 452
f 447 454 453
f 448 455 454
f 449 456 455
f 450 451 456
f 451 458 457
f 452 459 458
f 453 460 459
f 454 461 460
f 455 462 461
f 456 457 462
f 457 464 463
f 458 465 464
f 459 466 465
f 460 467 466
f 461 468 467
f 462 463 468
f 463 470 469
f 464 471 470
f 465 472 471
f 466 473 472
f 467 474 473
f 468 469 474
f 469 476 475
f 470 477 476
f 471 478 477
f 472 479 478
f 473 480 479
f 474 475 480
f 475 482 481
f 476 483 482
f 477 484 483
f 478 485 484
f 479 486 485
f 480 481 486
f 481 488 487
f 482 489 488
f 483 490 489
f 484 491 490
f 485 492 491
f 486 487 492
f 487 494 493
f 488 495 494
f 489 496 495
f 490 497 496
f 491 498 497
f 492 493 498
f 493 500 499
f 494 501 500
f 495 502 501
f 496 503 502
f 497 504 503
f 498 499 504
f 499 506 505
f 500 507 506
f 501 508 507
f 502 509 508
f 503 510 509
f 504 505 510
f 505 512 511
f 506 513 512
f 507 514 513
f 508 515 514
f 509 516 515
f 510 511 516
f 511 518 517
f 512 519 518
f 513 520 519
f 514 521 520
f 515 522 521
f 516 517 522
f 517 524 523
f 518 525 524
f 519 526 525
f 520 527 526
f 521 528 527
f 522 523 528
f 523 530 529
f 524 531 530
f 525 532 531
f 526 533 532
f 527 534 533
f 528 529 534
f 529 536 535
f 530 537 536
f 531 538 537
f 532 539 538
f 533 540 539
f 534 535 540
f 535 542 541
f 536 543 542
f 537 544 543
f 538 545 544
f 539 546 545
f 540 541 546
f 541 548 547
f 542 549 548
f 543 550 549
f 544 551 550
f 545 552 551
f 546 547 552
f 547 554 553
f 548 555 554
f 549 556 555
f 550 557 556
f 551 558 557
f 552 553 558
f 553 560 559
f 554 561 560
f 555 562 561
f 556 563 562
f 557 564 563
f 558 559 564
f 559 566 565
f 560 567 566
f 561 568 567
f 562 569 568
f 563 570 569
f 564 565 570
f 565 572 571
f 566 573 572
f 567 574 573
f 568 575 574
f 569 576 575
f 570 571 576
f 572 577 571
f 572 579 578
f 573 580 579
f 574 581 580
f 576 581 575
f 571 582 576
f 1 2 8
f 3 9 8
f 4 10 9
f 5 11 10
f 5 6 12
f 6 1 7
f 7 8 14
f 8 9 15
f 9 10 16
f 10 11 17
f 11 12 18
f 12 7 13
f 13 14 20
f 14 15 21
f 15 16 22
f 16 17 23
f 17 18 24
f 18 13 19
f 19 20 26
f 20 21 27
f 21 22 28
f 22 23 29
f 23 24 30
f 24 19 25
f 25 26 32
f 26 27 33
f 27 28 34
f 28 29 35
f 29 30 36
f 30 25 31
f 31 32 38
f 32 33 39
f 33 34 40
f 34 35 41
f 35 36 42
f 36 31 37
f 37 38 44
f 38 39 45
f 39 40 46
f 40 41 47
f 41 42 48
f 42 37 43
f 43 44 50
f 44 45 51
f 45 46 52
f 46 47 53
f 47 48 54
f 48 43 49
f 49 50 56
f 50 51 57
f 51 52 58
f 52 53 59
f 53 54 60
f 54 49 55
f 55 56 62
f 56 57 63
f 57 58 64
f 58 59 65
f 59 60 66
f 60 55 61
f 61 62 68
f 62 63 69
f 63 64 70
f 64 65 71
f 65 66 72
f 66 61 67
f 67 68 74
f 68 69 75
f 69 70 76
f 70 71 77
f 71 72 78
f 72 67 73
f 73 74 80
f 74 75 81
f 75 76 82
f 76 77 83
f 77 78 84
f 78 73 79
f 79 80 86
f 80 81 87
f 81 82 88
f 82 83 89
f 83 84 90
f 84 79 85
f 85 86 92
f 86 87 93
f 87 88 94
f 88 89 95
f 89 90 96
f 90 85 91
f 91 92 98
f 92 93 99
f 93 94 100
f 94 95 101
f 95 96 102
f 96 91 97
f 97 98 104
f 98 99 105
f 99 100 106
f 100 101 107
f 101 102 108
f 102 97 103
f 103 104 110
f 104 105 111
f 105 106 112
f 106 107 113
f 107 108 114
f 108 103 109
f 109 110 116
f 110 111 117
f 111 112 118
f 112 113 119
f 113 114 120
f 114 109 115
f 115 116 122
f 116 117 123
f 117 118 124
f 118 119 125
f 119 120 126
f 120 115 121
f 121 122 128
f 122 123 129
f 123 124 130
f 124 125 131
f 125 126 132
f 126 121 127
f 127 128 134
f 128 129 135
f 129 130 136
f 130 131 137
f 131 132 138
f 132 127 133
f 133 134 140
f 134 135 141
f 135 136 142
f 136 137 143
f 137 138 144
f 138 133 139
f 139 140 146
f 140 141 147
f 141 142 148
f 142 143 149
f 143 144 150
f 144 139 145
f 145 146 152
f 146 147 153
f 147 148 154
f 148 149 155
f 149 150 156
f 150 145 151
f 151 152 158
f 152 153 159
f 153 154 160
f 154 155 161
f 155 156 162
f 156 151 157
f 157 158 164
f 158 159 165
f 159 160 166
f 160 161 167
f 161 162 168
f 162 157 163
f 163 164 170
f 164 165 171
f 165 166 172
f 166 167 173
f 167 168 174
f 168 163 169
f 169 170 176
f 170 171 177
f 171 172 178
f 172 173 179
f 173 174 180
f 174 169 175
f 175 176 182
f 176 177 183
f 177 178 184
f 178 179 185
f 179 180 186
f 180 175 181
f 181 182 188
f 182 183 189
f 183 184 190
f 184 185 191
f 185 186 192
f 186 181 187
f 187 188 194
f 188 189 195
f 189 190 196
f 190 191 197
f 191 192 198
f 192 187 193
f 193 194 200
f 194 195 201
f 195 196 202
f 196 197 203
f 197 198 204
f 198 193 199
f 199 200 206
f 200 201 207
f 201 202 208
f 202 203 209
f 203 204 210
f 204 199 205
f 205 206 212
f 206 207 213
f 207 208 214
f 208 209 215
f 209 210 216
f 210 205 211
f 211 212 218
f 212 213 219
f 213 214 220
f 214 215 221
f 215 216 222
f 216 211 217
f 217 218 224
f 218 219 225
f 219 220 226
f 220 221 227
f 221 222 228
f 222 217 223
f 223 224 230
f 224 225 231
f 225 226 232
f 226 227 233
f 227 228 234
f 228 223 229
f 229 230 236
f 230 231 237
f 231 232 238
f 232 233 239
f 233 234 240
f 234 229 235
f 235 236 242
f 236 237 243
f 237 238 244
f 238 239 245
f 239 240 246
f 240 235 241
f 241 242 248
f 242 243 249
f 243 244 250
f 244 245 251
f 245 246 252
f 246 241 247
f 247 248 254
f 248 249 255
f 249 250 256
f 250 251 257
f 251 252 258
f 252 247 253
f 253 254 260
f 254 255 261
f 255 256 262
f 256 257 263
f 257 258 264
f 258 253 259
f 259 260 266
f 260 261 267
f 261 262 268
f 262 263 269
f 263 264 270
f 264 259 265
f 265 266 272
f 266 267 273
f 267 268 274
f 268 269 275
f 269 270 276
f 270 265 271
f 271 272 278
f 272 273 279
f 273 274 280
f 274 275 281
f 275 276 282
f 276 271 277
f 277 278 284
f 278 279 285
f 279 280 286
f 280 281 287
f 281 282 288
f 282 277 283
f 283 284 290
f 284 285 291
f 285 286 292
f 286 287 293
f 287 288 294
f 288 283 289
f 289 290 296
f 290 291 297
f 291 292 298
f 292 293 299
f 293 294 300
f 294 289 295
f 295 296 302
f 296 297 303
f 297 298 304
f 298 299 305
f 299 300 306
f 300 295 301
f 301 302 308
f 302 303 309
f 303 304 310
f 304 305 311
f 305 306 312
f 306 301 307
f 307 308 314
f 308 309 315
f 309 310 316
f 310 311 317
f 311 312 318
f 312 307 313
f 313 314 320
f 314 315 321
f 315 316 322
f 316 317 323
f 317 318 324
f 318 313 319
f 319 320 326
f 320 321 327
f 321 322 328
f 322 323 329
f 323 324 330
f 324 319 325
f 325 326 332
f 326 327 333
f 327 328 334
f 328 329 335
f 329 330 336
f 330 325 331
f 331 332 338
f 332 333 339
f 333 334 340
f 334 335 341
f 335 336 342
f 336 331 337
f 337 338 344
f 338 339 345
f 339 340 346
f 340 341 347
f 341 342 348
f 342 337 343
f 343 344 350
f 344 345 351
f 345 346 352
f 346 347 353
f 347 348 354
f 348 343 349
f 349 350 356
f 350 351 357
f 351 352 358
f 352 353 359
f 353 354 360
f 354 349 355
f 355 356 362
f 356 357 363
f 357 358 364
f 358 359 365
f 359 360 366
f 360 355 361
f 361 362 368
f 362 363 369
f 363 364 370
f 364 365 371
f 365 366 372
f 366 361 367
f 367 368 374
f 368 369 375
f 369 370 376
f 370 371 377
f 371 372 378
f 372 367 373
f 373 374 380
f 374 375 381
f 375 376 382
f 376 377 383
f 377 378 384
f 378 373 379
f 379 380 386
f 380 381 387
f 381 382 388
f 382 383 389
f 383 384 390
f 384 379 385
f 385 386 392
f 386 387 393
f 387 388 394
f 388 389 395
f 389 390 396
f 390 385 391
f 391 392 398
f 392 393 399
f 393 394 400
f 394 395 401
f 395 396 402
f 396 391 397
f 397 398 404
f 398 399 405
f 399 400 406
f 400 401 407
f 401 402 408
f 402 397 403
f 403 404 410
f 404 405 411
f 405 406 412
f 406 407 413
f 407 408 414
f 408 403 409
f 409 410 416
f 410 411 417
f 411 412 418
f 412 413 419
f 413 414 420
f 414 409 415
f 415 416 422
f 416 417 423
f 417 418 424
f 418 419 425
f 419 420 426
f 420 415 421
f 421 422 428
f 422 423 429
f 423 424 430
f 424 425 431
f 425 426 432
f 426 421 427
f 427 428 434
f 428 429 435
f 429 430 436
f 430 431 437
f 431 432 438
f 432 427 433
f 433 434 440
f 434 435 441
f 435 436 442
f 436 437 443
f 437 438 444
f 438 433 439
f 439 440 446
f 440 441 447
f 441 442 448
f 442 443 449
f 443 444 450
f 444 439 445
f 445 446 452
f 446 447 453
f 447 448 454
f 448 449 455
f 449 450 456
f 450 445 451
f 451 452 458
f 452 453 459
f 453 454 460
f 454 455 461
f 455 456 462
f 456 451 457
f 457 458 464
f 458 459 465
f 459 460 466
f 460 461 467
f 461 462 468
f 462 457 463
f 463 464 470
f 464 465 471
f 465 466 472
f 466 467 473
f 467 468 474
f 468 463 469
f 469 470 476
f 470 471 477
f 471 472 478
f 472 473 479
f 473 474 480
f 474 469 475
f 475 476 482
f 476 477 483
f 477 478 484
f 478 479 485
f 479 480 486
f 480 475 481
f 481 482 488
f 482 483 489
f 483 484 490
f 484 485 491
f 485 486 492
f 486 481 487
f 487 488 494
f 488 489 495
f 489 490 496
f 490 491 497
f 491 492 498
f 492 487 493
f 493 494 500
f 494 495 501
f 495 496 502
f 496 497 503
f 497 498 504
f 498 493 499
f 499 500 506
f 500 501 507
f 501 502 508
f 502 503 509
f 503 504 510
f 504 499 505
f 505 506 512
f 506 507 513
f 507 508 514
f 508 509 515
f 509 510 516
f 510 505 511
f 511 512 518
f 512 513 519
f 513 514 520
f 514 515 521
f 515 516 522
f 516 511 517
f 517 518 524
f 518 519 525
f 519 520 526
f 520 521 527
f 521 522 528
f 522 517 523
f 523 524 530
f 524 525 531
f 525 526 532
f 526 527 533
f 527 528 534
f 528 523 529
f 529 530 536
f 530 531 537
f 531 532 538
f 532 533 539
f 533 534 540
f 534 529 535
f 535 536 542
f 536 537 543
f 537 538 544
f 538 539 545
f 539 540 546
f 540 535 541
f 541 542 548
f 542 543 549
f 543 544 550
f 544 545 551
f 545 546 552
f 546 541 547
f 547 548 554
f 548 549 555
f 549 550 556
f 550 551 557
f 551 552 558
f 552 547 553
f 553 554 560
f 554 555 561
f 555 556 562
f 556 557 563
f 557 558 564
f 558 553 559
f 559 560 566
f 560 561 567
f 561 562 568
f 562 563 569
f 563 564 570
f 564 559 565
f 565 566 572
f 566 567 573
f 567 568 574
f 568 569 575
f 569 570 576
f 570 565 571
f 572 578 577
f 572 573 579
f 573 574 580
f 574 575 581
f 576 582 581
f 571 577 582
