# eclipse Orbital2_OrbitGlow.obj: Roblox cue frame, recentred on its bounding box
v 0.42161 -0.36007 -0.35066
v 0.45197 -0.36580 -0.35107
v 0.47438 -0.38080 -0.36617
v 0.48027 -0.39933 -0.39018
v 0.46740 -0.41433 -0.41393
v 0.44068 -0.42006 -0.42836
v 0.41031 -0.41433 -0.42794
v 0.38791 -0.39933 -0.41285
v 0.38201 -0.38080 -0.38884
v 0.39489 -0.36580 -0.36508
v 0.42798 -0.32459 -0.37652
v 0.45844 -0.32974 -0.37735
v 0.48097 -0.34393 -0.39303
v 0.48697 -0.36174 -0.41755
v 0.47415 -0.37638 -0.44156
v 0.44741 -0.38225 -0.45588
v 0.41695 -0.37710 -0.45504
v 0.39441 -0.36291 -0.43937
v 0.38841 -0.34509 -0.41484
v 0.40123 -0.33046 -0.39084
v 0.43240 -0.28884 -0.39984
v 0.46300 -0.29279 -0.40149
v 0.48572 -0.30533 -0.41827
v 0.49188 -0.32165 -0.44377
v 0.47913 -0.33554 -0.46826
v 0.45233 -0.34168 -0.48237
v 0.42173 -0.33773 -0.48072
v 0.39900 -0.32519 -0.46394
v 0.39285 -0.30887 -0.43844
v 0.40560 -0.29498 -0.41395
v 0.43504 -0.25183 -0.42140
v 0.46573 -0.25454 -0.42380
v 0.48855 -0.26535 -0.44161
v 0.49479 -0.28014 -0.46801
v 0.48207 -0.29325 -0.49293
v 0.45523 -0.29968 -0.50685
v 0.42455 -0.29697 -0.50445
v 0.40172 -0.28615 -0.48664
v 0.39548 -0.27137 -0.46024
v 0.40821 -0.25825 -0.43532
v 0.43589 -0.21371 -0.44110
v 0.46660 -0.21514 -0.44419
v 0.48945 -0.22418 -0.46293
v 0.49569 -0.23739 -0.49016
v 0.48296 -0.24971 -0.51548
v 0.45611 -0.25644 -0.52922
v 0.42540 -0.25500 -0.52612
v 0.40255 -0.24596 -0.50738
v 0.39631 -0.23275 -0.48015
v 0.40904 -0.22043 -0.45483
v 0.43495 -0.17464 -0.45885
v 0.46563 -0.17476 -0.46257
v 0.48841 -0.18199 -0.48216
v 0.49459 -0.19358 -0.51013
v 0.48181 -0.20509 -0.53581
v 0.45495 -0.21212 -0.54937
v 0.42427 -0.21200 -0.54565
v 0.40150 -0.20477 -0.52606
v 0.39532 -0.19319 -0.49809
v 0.40809 -0.18168 -0.47241
v 0.43222 -0.13480 -0.47458
v 0.46280 -0.13358 -0.47886
v 0.48543 -0.13896 -0.49920
v 0.49147 -0.14889 -0.52783
v 0.47861 -0.15958 -0.55382
v 0.45176 -0.16694 -0.56724
v 0.42118 -0.16816 -0.56295
v 0.39855 -0.16278 -0.54261
v 0.39251 -0.15285 -0.51398
v 0.40538 -0.14216 -0.48799
v 0.42772 -0.09435 -0.48822
v 0.45814 -0.09177 -0.49299
v 0.48054 -0.09527 -0.51399
v 0.48636 -0.10353 -0.54319
v 0.47338 -0.11338 -0.56945
v 0.44656 -0.12107 -0.58272
v 0.41614 -0.12365 -0.57795
v 0.39374 -0.12015 -0.55696
v 0.38791 -0.11190 -0.52775
v 0.40089 -0.10204 -0.50150
v 0.42145 -0.05348 -0.49971
v 0.45166 -0.04951 -0.50490
v 0.47374 -0.05111 -0.52645
v 0.47928 -0.05768 -0.55614
v 0.46614 -0.06669 -0.58262
v 0.43936 -0.07471 -0.59578
v 0.40916 -0.07868 -0.59059
v 0.38707 -0.07708 -0.56903
v 0.38154 -0.07052 -0.53935
v 0.39467 -0.06150 -0.51287
v 0.41346 -0.01234 -0.50901
v 0.44339 -0.00698 -0.51454
v 0.46508 -0.00667 -0.53654
v 0.47025 -0.01154 -0.56662
v 0.45693 -0.01971 -0.59328
v 0.43020 -0.02807 -0.60633
v 0.40027 -0.03343 -0.60080
v 0.37858 -0.03374 -0.57880
v 0.37341 -0.02888 -0.54872
v 0.38673 -0.02071 -0.52206
v 0.40377 0.02888 -0.51607
v 0.43336 0.03563 -0.52186
v 0.45458 0.03786 -0.54422
v 0.45932 0.03470 -0.57459
v 0.44578 0.02736 -0.60138
v 0.41912 0.01865 -0.61435
v 0.38953 0.01189 -0.60855
v 0.36831 0.00967 -0.58620
v 0.36356 0.01283 -0.55583
v 0.37711 0.02017 -0.52904
v 0.39242 0.07000 -0.52086
v 0.42162 0.07815 -0.52685
v 0.44229 0.08229 -0.54944
v 0.44654 0.08083 -0.58002
v 0.43273 0.07432 -0.60689
v 0.40616 0.06527 -0.61980
v 0.37696 0.05711 -0.61381
v 0.35629 0.05298 -0.59121
v 0.35205 0.05444 -0.56064
v 0.36585 0.06094 -0.53377
v 0.37947 0.11085 -0.52336
v 0.40822 0.12039 -0.52946
v 0.42827 0.12643 -0.55220
v 0.43194 0.12665 -0.58288
v 0.41786 0.12097 -0.60979
v 0.39138 0.11157 -0.62265
v 0.36263 0.10202 -0.61655
v 0.34258 0.09599 -0.59381
v 0.33891 0.09577 -0.56313
v 0.35299 0.10144 -0.53622
v 0.36497 0.15126 -0.52357
v 0.39322 0.16218 -0.52970
v 0.41256 0.17009 -0.55246
v 0.41561 0.17197 -0.58315
v 0.40121 0.16711 -0.61006
v 0.37484 0.15735 -0.62289
v 0.34659 0.14643 -0.61675
v 0.32725 0.13852 -0.59399
v 0.32420 0.13664 -0.56330
v 0.33860 0.14150 -0.53640
v 0.34898 0.19104 -0.52147
v 0.37667 0.20332 -0.52756
v 0.39525 0.21308 -0.55024
v 0.39761 0.21660 -0.58085
v 0.38286 0.21254 -0.60770
v 0.35662 0.20243 -0.62052
v 0.32892 0.19016 -0.61443
v 0.31035 0.18039 -0.59175
v 0.30798 0.17687 -0.56114
v 0.32274 0.18094 -0.53430
v 0.33156 0.23004 -0.51708
v 0.35866 0.24365 -0.52305
v 0.37640 0.25523 -0.54555
v 0.37801 0.26035 -0.57598
v 0.36288 0.25706 -0.60272
v 0.33679 0.24662 -0.61556
v 0.30969 0.23300 -0.60959
v 0.29195 0.22143 -0.58709
v 0.29034 0.21630 -0.55666
v 0.30547 0.21959 -0.52992
v 0.31281 0.26808 -0.51042
v 0.33925 0.28299 -0.51619
v 0.35609 0.29634 -0.53839
v 0.35691 0.30302 -0.56855
v 0.34137 0.30049 -0.59514
v 0.31543 0.28971 -0.60802
v 0.28899 0.27479 -0.60225
v 0.27215 0.26145 -0.58004
v 0.27133 0.25476 -0.54989
v 0.28686 0.25730 -0.52329
v 0.29278 0.30500 -0.50151
v 0.31853 0.32118 -0.50700
v 0.33442 0.33624 -0.52881
v 0.33438 0.34444 -0.55860
v 0.31842 0.34264 -0.58501
v 0.29265 0.33152 -0.59793
v 0.26690 0.31534 -0.59244
v 0.25101 0.30028 -0.57063
v 0.25105 0.29208 -0.54084
v 0.26701 0.29389 -0.51444
v 0.27158 0.34064 -0.49040
v 0.29659 0.35805 -0.49553
v 0.31147 0.37477 -0.51684
v 0.31052 0.38443 -0.54618
v 0.29412 0.38332 -0.57235
v 0.26853 0.37189 -0.58534
v 0.24351 0.35448 -0.58021
v 0.22864 0.33776 -0.55890
v 0.22958 0.32810 -0.52956
v 0.24598 0.32921 -0.50340
v 0.24929 0.37486 -0.47713
v 0.27353 0.39344 -0.48183
v 0.28734 0.41175 -0.50254
v 0.28545 0.42281 -0.53133
v 0.26858 0.42237 -0.55722
v 0.24317 0.41062 -0.57031
v 0.21893 0.39204 -0.56561
v 0.20512 0.37373 -0.54490
v 0.20701 0.36267 -0.51610
v 0.22388 0.36311 -0.49022
v 0.22600 0.40750 -0.46175
v 0.24943 0.42720 -0.46596
v 0.26213 0.44703 -0.48596
v 0.25926 0.45942 -0.51413
v 0.24190 0.45962 -0.53969
v 0.21670 0.44757 -0.55290
v 0.19327 0.42786 -0.54869
v 0.18057 0.40803 -0.52869
v 0.18344 0.39565 -0.50052
v 0.20080 0.39544 -0.47495
v 0.20183 0.43842 -0.44434
v 0.22441 0.45919 -0.44797
v 0.23596 0.48046 -0.46718
v 0.23206 0.49410 -0.49463
v 0.21421 0.49491 -0.51984
v 0.18921 0.48256 -0.53317
v 0.16663 0.46179 -0.52954
v 0.15508 0.44052 -0.51033
v 0.15897 0.42688 -0.48288
v 0.17683 0.42607 -0.45767
v 0.17686 0.46749 -0.42496
v 0.19857 0.48927 -0.42795
v 0.20893 0.51189 -0.44628
v 0.20398 0.52671 -0.47293
v 0.18561 0.52808 -0.49774
v 0.16084 0.51546 -0.51123
v 0.13912 0.49368 -0.50824
v 0.12876 0.47105 -0.48991
v 0.13371 0.45623 -0.46326
v 0.15208 0.45487 -0.43845
v 0.15121 0.49459 -0.40370
v 0.17203 0.51731 -0.40599
v 0.18117 0.54119 -0.42334
v 0.17514 0.55711 -0.44913
v 0.15624 0.55899 -0.47350
v 0.13169 0.54611 -0.48716
v 0.11087 0.52339 -0.48487
v 0.10173 0.49951 -0.46752
v 0.10776 0.48359 -0.44173
v 0.12666 0.48171 -0.41736
v 0.12498 0.51960 -0.38066
v 0.14489 0.54319 -0.38217
v 0.15278 0.56823 -0.39846
v 0.14564 0.58516 -0.42331
v 0.12621 0.58752 -0.44722
v 0.10190 0.57439 -0.46106
v 0.08199 0.55080 -0.45954
v 0.07410 0.52576 -0.44325
v 0.08124 0.50883 -0.41841
v 0.10067 0.50647 -0.39450
v 0.09830 0.54241 -0.35592
v 0.11727 0.56679 -0.35660
v 0.12389 0.59290 -0.37176
v 0.11564 0.61075 -0.39559
v 0.09566 0.61353 -0.41900
v 0.07159 0.60018 -0.43305
v 0.05262 0.57580 -0.43236
v 0.04599 0.54969 -0.41721
v 0.05425 0.53184 -0.39338
v 0.07423 0.52906 -0.36996
v 0.07127 0.56293 -0.32960
v 0.08929 0.58803 -0.32940
v 0.09463 0.61509 -0.34334
v 0.08524 0.63376 -0.36609
v 0.06471 0.63693 -0.38898
v 0.04089 0.62337 -0.40324
v 0.02287 0.59827 -0.40344
v 0.01753 0.57121 -0.38950
v 0.02692 0.55253 -0.36674
v 0.04744 0.54937 -0.34386
v 0.04401 0.58106 -0.30180
v 0.06107 0.60680 -0.30066
v 0.06511 0.63470 -0.31332
v 0.05458 0.65410 -0.33494
v 0.03350 0.65760 -0.35727
v 0.00993 0.64385 -0.37177
v -0.00713 0.61812 -0.37291
v -0.01117 0.59022 -0.36025
v -0.00064 0.57081 -0.33863
v 0.02043 0.56732 -0.31630
v 0.01663 0.59674 -0.27265
v 0.03273 0.62303 -0.27053
v 0.03547 0.65165 -0.28184
v 0.02380 0.67168 -0.30227
v 0.00217 0.67546 -0.32402
v -0.02115 0.66155 -0.33877
v -0.03725 0.63526 -0.34090
v -0.03999 0.60663 -0.32958
v -0.02831 0.58661 -0.30915
v -0.00669 0.58283 -0.28740
v -0.01074 0.60989 -0.24227
v 0.00440 0.63664 -0.23912
v 0.00583 0.66587 -0.24903
v -0.00699 0.68642 -0.26822
v -0.02916 0.69043 -0.28937
v -0.05222 0.67637 -0.30439
v -0.06736 0.64962 -0.30754
v -0.06879 0.62039 -0.29763
v -0.05597 0.59984 -0.27843
v -0.03380 0.59583 -0.25729
v -0.03799 0.62045 -0.21079
v -0.02381 0.64758 -0.20657
v -0.02368 0.67730 -0.21503
v -0.03763 0.69826 -0.23294
v -0.06035 0.70245 -0.25346
v -0.08315 0.68827 -0.26876
v -0.09733 0.66114 -0.27298
v -0.09747 0.63142 -0.26452
v -0.08351 0.61046 -0.24661
v -0.06079 0.60627 -0.22609
v -0.06500 0.62838 -0.17835
v -0.05178 0.65580 -0.17302
v -0.05293 0.68589 -0.17998
v -0.06801 0.70715 -0.19657
v -0.09127 0.71147 -0.21646
v -0.11381 0.69719 -0.23204
v -0.12703 0.66978 -0.23737
v -0.12588 0.63969 -0.23041
v -0.11080 0.61843 -0.21382
v -0.08754 0.61411 -0.19393
v -0.09166 0.63366 -0.14508
v -0.07938 0.66127 -0.13861
v -0.08180 0.69159 -0.14403
v -0.09799 0.71305 -0.15927
v -0.12178 0.71744 -0.17851
v -0.14406 0.70309 -0.19439
v -0.15634 0.67548 -0.20086
v -0.15392 0.64516 -0.19544
v -0.13773 0.62370 -0.18020
v -0.11394 0.61931 -0.16096
v -0.11785 0.63624 -0.11112
v -0.10650 0.66395 -0.10350
v -0.11017 0.69439 -0.10735
v -0.12745 0.71593 -0.12121
v -0.15175 0.72035 -0.13978
v -0.17378 0.70595 -0.15597
v -0.18513 0.67824 -0.16360
v -0.18146 0.64780 -0.15975
v -0.16418 0.62626 -0.14589
v -0.13988 0.62184 -0.12732
v -0.14346 0.63613 -0.07663
v -0.13302 0.66385 -0.06782
v -0.13791 0.69428 -0.07008
v -0.15626 0.71579 -0.08254
v -0.18106 0.72018 -0.10044
v -0.20284 0.70575 -0.11695
v -0.21328 0.67804 -0.12576
v -0.20839 0.64761 -0.12350
v -0.19004 0.62609 -0.11105
v -0.16524 0.62171 -0.09314
v -0.16837 0.63332 -0.04175
v -0.15882 0.66095 -0.03174
v -0.16490 0.69124 -0.03239
v -0.18429 0.71262 -0.04343
v -0.20958 0.71692 -0.06066
v -0.23111 0.70250 -0.07749
v -0.24066 0.67487 -0.08750
v -0.23458 0.64458 -0.08686
v -0.21520 0.62320 -0.07581
v -0.18991 0.61890 -0.05858
v -0.19250 0.62783 -0.00662
v -0.18381 0.65528 0.00459
v -0.19104 0.68531 0.00557
v -0.21143 0.70644 -0.00405
v -0.23719 0.71060 -0.02060
v -0.25848 0.69621 -0.03776
v -0.26717 0.66876 -0.04898
v -0.25994 0.63873 -0.04996
v -0.23955 0.61760 -0.04034
v -0.21379 0.61343 -0.02378
v -0.21572 0.61967 0.02859
v -0.20786 0.64685 0.04102
v -0.21620 0.67649 0.04363
v -0.23756 0.69727 0.03544
v -0.26377 0.70125 0.01956
v -0.28482 0.68691 0.00206
v -0.29268 0.65973 -0.01036
v -0.28434 0.63009 -0.01298
v -0.26298 0.60931 -0.00478
v -0.23677 0.60533 0.01110
v -0.23794 0.60889 0.06375
v -0.23088 0.63570 0.07739
v -0.24028 0.66483 0.08163
v -0.26256 0.68515 0.07485
v -0.28920 0.68889 0.05965
v -0.31003 0.67463 0.04182
v -0.31709 0.64781 0.02818
v -0.30768 0.61869 0.02394
v -0.28541 0.59837 0.03072
v -0.25877 0.59463 0.04592
v -0.25906 0.59552 0.09870
v -0.25277 0.62188 0.11354
v -0.26318 0.65038 0.11940
v -0.28634 0.67013 0.11404
v -0.31338 0.67359 0.09950
v -0.33399 0.65943 0.08133
v -0.34029 0.63307 0.06649
v -0.32987 0.60458 0.06063
v -0.30672 0.58483 0.06599
v -0.27967 0.58137 0.08053
v -0.27900 0.57964 0.13329
v -0.27343 0.60545 0.14933
v -0.28480 0.63320 0.15679
v -0.30878 0.65228 0.15282
v -0.33621 0.65540 0.13893
v -0.35661 0.64138 0.12043
v -0.36218 0.61556 0.10439
v -0.35081 0.58782 0.09693
v -0.32683 0.56874 0.10090
v -0.29940 0.56561 0.11479
v -0.29767 0.56129 0.16737
v -0.29277 0.58648 0.18459
v -0.30504 0.61336 0.19363
v -0.32980 0.63167 0.19103
v -0.35758 0.63442 0.17778
v -0.37778 0.62055 0.15895
v -0.38268 0.59536 0.14173
v -0.37041 0.56848 0.13269
v -0.34565 0.55017 0.13529
v -0.31787 0.54743 0.14854
v -0.31498 0.54057 0.20080
v -0.31072 0.56504 0.21918
v -0.32382 0.59095 0.22976
v -0.34930 0.60839 0.22851
v -0.37741 0.61072 0.21589
v -0.39742 0.59703 0.19673
v -0.40169 0.57256 0.17835
v -0.38858 0.54665 0.16776
v -0.36311 0.52921 0.16902
v -0.33500 0.52689 0.18164
v -0.33087 0.51756 0.23343
v -0.32719 0.54124 0.25295
v -0.34106 0.56606 0.26504
v -0.36720 0.58255 0.26509
v -0.39561 0.58440 0.25309
v -0.41545 0.57092 0.23360
v -0.41913 0.54725 0.21408
v -0.40526 0.52243 0.20199
v -0.37912 0.50594 0.20193
v -0.35071 0.50408 0.21394
v -0.34527 0.49236 0.26512
v -0.34211 0.51516 0.28574
v -0.35669 0.53880 0.29931
v -0.38342 0.55424 0.30063
v -0.41210 0.55559 0.28921
v -0.43178 0.54234 0.26941
v -0.43493 0.51954 0.24879
v -0.42036 0.49591 0.23522
v -0.39362 0.48046 0.23390
v -0.36494 0.47911 0.24532
v -0.35810 0.46508 0.29575
v -0.35543 0.48693 0.31744
v -0.37063 0.50928 0.33241
v -0.39789 0.52360 0.33496
v -0.42682 0.52441 0.32411
v -0.44634 0.51140 0.30400
v -0.44902 0.48955 0.28231
v -0.43382 0.46720 0.26733
v -0.40655 0.45289 0.26478
v -0.37763 0.45208 0.27564
v -0.36933 0.43583 0.32517
v -0.36708 0.45666 0.34788
v -0.38282 0.47764 0.36422
v -0.41056 0.49074 0.36795
v -0.43969 0.49098 0.35763
v -0.45908 0.47825 0.33722
v -0.46134 0.45742 0.31450
v -0.44559 0.43644 0.29816
v -0.41785 0.42334 0.29444
v -0.38872 0.42310 0.30476
v -0.37890 0.40474 0.35326
v -0.37701 0.42449 0.37696
v -0.39323 0.44400 0.39460
v -0.42136 0.45583 0.39944
v -0.45067 0.45545 0.38964
v -0.46994 0.44301 0.36893
v -0.47183 0.42327 0.34524
v -0.45561 0.40376 0.32760
v -0.42748 0.39193 0.32276
v -0.39817 0.39231 0.33256
v -0.38676 0.37195 0.37991
v -0.38517 0.39054 0.40453
v -0.40179 0.40851 0.42340
v -0.43025 0.41899 0.42931
v -0.45970 0.41797 0.41999
v -0.47888 0.40585 0.39901
v -0.48046 0.38725 0.37438
v -0.46385 0.36929 0.35551
v -0.43538 0.35881 0.34961
v -0.40594 0.35983 0.35893
v -0.39289 0.33758 0.40499
v -0.39155 0.35498 0.43049
v -0.40847 0.37133 0.45052
v -0.43720 0.38039 0.45742
v -0.46675 0.37871 0.44855
v -0.48585 0.36692 0.42730
v -0.48719 0.34953 0.40180
v -0.47026 0.33318 0.38177
v -0.44154 0.32411 0.37487
v -0.41198 0.32579 0.38374
v -0.39726 0.30180 0.42840
v -0.39610 0.31794 0.45473
v -0.41325 0.33260 0.47583
v -0.44217 0.34020 0.48365
v -0.47180 0.33783 0.47520
v -0.49082 0.32639 0.45371
v -0.49198 0.31025 0.42738
v -0.47483 0.29558 0.40627
v -0.44591 0.28798 0.39845
v -0.41628 0.29036 0.40690
v -0.39984 0.26475 0.45004
v -0.39881 0.27958 0.47713
v -0.41611 0.29251 0.49923
v -0.44514 0.29859 0.50790
v -0.47481 0.29550 0.49983
v -0.49378 0.28443 0.47811
v -0.49482 0.26959 0.45102
v -0.47752 0.25667 0.42892
v -0.44849 0.25059 0.42024
v -0.41882 0.25367 0.42831
v -0.40064 0.22659 0.46981
v -0.39966 0.24008 0.49760
v -0.41702 0.25121 0.52061
v -0.44609 0.25573 0.53006
v -0.47577 0.25192 0.52234
v -0.49472 0.24122 0.50039
v -0.49569 0.22773 0.47261
v -0.47833 0.21660 0.44960
v -0.44926 0.21208 0.44015
v -0.41958 0.21589 0.44787
v -0.39964 0.18748 0.48764
v -0.39865 0.19959 0.51605
v -0.41599 0.20889 0.53988
v -0.44503 0.21181 0.55003
v -0.47468 0.20725 0.54262
v -0.49362 0.19695 0.52047
v -0.49460 0.18484 0.49206
v -0.47726 0.17555 0.46823
v -0.44822 0.17262 0.45808
v -0.41857 0.17718 0.46550
v -0.39684 0.14760 0.50345
v -0.39579 0.15830 0.53242
v -0.41302 0.16572 0.55697
v -0.44196 0.16702 0.56773
v -0.47155 0.16170 0.56058
v -0.49049 0.15180 0.53826
v -0.49155 0.14110 0.50929
v -0.47431 0.13369 0.48474
v -0.44537 0.13239 0.47398
v -0.41578 0.13770 0.48112
v -0.39227 0.10711 0.51716
v -0.39109 0.11638 0.54661
v -0.40813 0.12189 0.57179
v -0.43689 0.12154 0.58308
v -0.46639 0.11546 0.57616
v -0.48536 0.10598 0.55368
v -0.48654 0.09671 0.52422
v -0.46950 0.09120 0.49905
v -0.44073 0.09155 0.48776
v -0.41123 0.09763 0.49468
v -0.38594 0.06619 0.52872
v -0.38456 0.07401 0.55858
v -0.40133 0.07759 0.58429
v -0.42985 0.07558 0.59601
v -0.45922 0.06873 0.58928
v -0.47823 0.05967 0.56666
v -0.47961 0.05185 0.53680
v -0.46284 0.04827 0.51109
v -0.43432 0.05028 0.49937
v -0.40494 0.05713 0.50610
v -0.37787 0.02501 0.53808
v -0.37623 0.03136 0.56827
v -0.39265 0.03301 0.59440
v -0.42086 0.02933 0.60648
v -0.45007 0.02171 0.59989
v -0.46914 0.01308 0.57716
v -0.47078 0.00672 0.54696
v -0.45436 0.00507 0.52083
v -0.42615 0.00876 0.50876
v -0.39694 0.01637 0.51534
v -0.36810 -0.01626 0.54520
v -0.36615 -0.01137 0.57565
v -0.38214 -0.01166 0.60209
v -0.40996 -0.01702 0.61442
v -0.43899 -0.02540 0.60794
v -0.45813 -0.03361 0.58512
v -0.46009 -0.03849 0.55467
v -0.44410 -0.03820 0.52822
v -0.41628 -0.03284 0.51589
v -0.38725 -0.02446 0.52237
v -0.35668 -0.05742 0.55004
v -0.35435 -0.05400 0.58067
v -0.36983 -0.05623 0.60732
v -0.39720 -0.06326 0.61982
v -0.42601 -0.07240 0.61340
v -0.44525 -0.08017 0.59051
v -0.44758 -0.08360 0.55988
v -0.43211 -0.08137 0.53323
v -0.40474 -0.07434 0.52073
v -0.37593 -0.06519 0.52715
v -0.34365 -0.09832 0.55260
v -0.34088 -0.09636 0.58331
v -0.35577 -0.10051 0.61007
v -0.38263 -0.10920 0.62265
v -0.41119 -0.11909 0.61624
v -0.43056 -0.12643 0.59330
v -0.43332 -0.12839 0.56259
v -0.41843 -0.12424 0.53583
v -0.39157 -0.11555 0.52325
v -0.36301 -0.10565 0.52966
v -0.32906 -0.13877 0.55285
v -0.32581 -0.13825 0.58358
v -0.34004 -0.14431 0.61033
v -0.36632 -0.15463 0.62289
v -0.39461 -0.16527 0.61646
v -0.41410 -0.17217 0.59350
v -0.41736 -0.17269 0.56277
v -0.40312 -0.16663 0.53602
v -0.37684 -0.15631 0.52346
v -0.34855 -0.14567 0.52989
v -0.31298 -0.17860 0.55080
v -0.30918 -0.17951 0.58145
v -0.32269 -0.18744 0.60809
v -0.34833 -0.19937 0.62054
v -0.37632 -0.21074 0.61405
v -0.39597 -0.21721 0.59109
v -0.39976 -0.21630 0.56043
v -0.38626 -0.20837 0.53379
v -0.36062 -0.19644 0.52134
v -0.33263 -0.18507 0.52784
v -0.29548 -0.21764 0.54645
v -0.29109 -0.21995 0.57695
v -0.30380 -0.22972 0.60337
v -0.32875 -0.24322 0.61562
v -0.35641 -0.25530 0.60901
v -0.37623 -0.26134 0.58608
v -0.38062 -0.25904 0.55558
v -0.36791 -0.24927 0.52916
v -0.34296 -0.23576 0.51691
v -0.31529 -0.22368 0.52352
v -0.27663 -0.25573 0.53983
v -0.27159 -0.25940 0.57009
v -0.28344 -0.27097 0.59619
v -0.30765 -0.28600 0.60814
v -0.33497 -0.29877 0.60138
v -0.35496 -0.30439 0.57850
v -0.36000 -0.30072 0.54823
v -0.34815 -0.28915 0.52214
v -0.32394 -0.27412 0.51019
v -0.29662 -0.26135 0.51695
v -0.25651 -0.29269 0.53095
v -0.25079 -0.29769 0.56091
v -0.26172 -0.31100 0.58657
v -0.28513 -0.32752 0.59813
v -0.31208 -0.34096 0.59119
v -0.33227 -0.34616 0.56838
v -0.33800 -0.34116 0.53843
v -0.32706 -0.32786 0.51277
v -0.30365 -0.31133 0.50121
v -0.27670 -0.29790 0.50815
v -0.23521 -0.32837 0.51987
v -0.22875 -0.33466 0.54943
v -0.23871 -0.34965 0.57455
v -0.26128 -0.36761 0.58564
v -0.28784 -0.38168 0.57847
v -0.30825 -0.38649 0.55577
v -0.31470 -0.38020 0.52621
v -0.30475 -0.36521 0.50109
v -0.28218 -0.34725 0.48999
v -0.25562 -0.33318 0.49717
v -0.21282 -0.36262 0.50662
v -0.20559 -0.37015 0.53571
v -0.21452 -0.38675 0.56020
v -0.23621 -0.40609 0.57073
v -0.26236 -0.42077 0.56328
v -0.28299 -0.42519 0.54071
v -0.29022 -0.41766 0.51162
v -0.28129 -0.40106 0.48714
v -0.25961 -0.38173 0.47660
v -0.23345 -0.36705 0.48405
v -0.18944 -0.39530 0.49127
v -0.18140 -0.40401 0.51981
v -0.18926 -0.42215 0.54356
v -0.21002 -0.44279 0.55345
v -0.23575 -0.45805 0.54570
v -0.25662 -0.46210 0.52327
v -0.26466 -0.45339 0.49473
v -0.25680 -0.43525 0.47098
v -0.23604 -0.41460 0.46109
v -0.21031 -0.39934 0.46884
v -0.16515 -0.42625 0.47387
v -0.15627 -0.43608 0.50179
v -0.16302 -0.45568 0.52471
v -0.18282 -0.47757 0.53387
v -0.20811 -0.49337 0.52578
v -0.22924 -0.49706 0.50353
v -0.23812 -0.48723 0.47561
v -0.23137 -0.46763 0.45270
v -0.21157 -0.44575 0.44353
v -0.18628 -0.42994 0.45162
v -0.14008 -0.45535 0.45451
v -0.13033 -0.46624 0.48174
v -0.13593 -0.48722 0.50373
v -0.15474 -0.51026 0.51209
v -0.17958 -0.52658 0.50363
v -0.20096 -0.52993 0.48157
v -0.21072 -0.51904 0.45435
v -0.20512 -0.49806 0.43235
v -0.18631 -0.47502 0.42399
v -0.16147 -0.45870 0.43246
v -0.11433 -0.48248 0.43327
v -0.10367 -0.49436 0.45973
v -0.10809 -0.51661 0.48071
v -0.12589 -0.54074 0.48819
v -0.15027 -0.55753 0.47932
v -0.17192 -0.56056 0.45748
v -0.18258 -0.54867 0.43102
v -0.17816 -0.52642 0.41004
v -0.16036 -0.50229 0.40256
v -0.13598 -0.48551 0.41143
v -0.08800 -0.50751 0.41023
v -0.07642 -0.52031 0.43587
v -0.07963 -0.54374 0.45575
v -0.09639 -0.56887 0.46228
v -0.12030 -0.58608 0.45297
v -0.14224 -0.58881 0.43138
v -0.15381 -0.57602 0.40574
v -0.15060 -0.55258 0.38586
v -0.13384 -0.52745 0.37933
v -0.10993 -0.51024 0.38863
v -0.06120 -0.53034 0.38550
v -0.04869 -0.54398 0.41024
v -0.05067 -0.56849 0.42895
v -0.06637 -0.59453 0.43447
v -0.08981 -0.61213 0.42470
v -0.11203 -0.61458 0.40336
v -0.12455 -0.60095 0.37862
v -0.12257 -0.57643 0.35991
v -0.10686 -0.55040 0.35439
v -0.08342 -0.53279 0.36416
v -0.03406 -0.55087 0.35918
v -0.02060 -0.56527 0.38298
v -0.02133 -0.59076 0.40043
v -0.03597 -0.61761 0.40487
v -0.05893 -0.63556 0.39461
v -0.08144 -0.63776 0.37356
v -0.09491 -0.62336 0.34976
v -0.09418 -0.59787 0.33230
v -0.07954 -0.57102 0.32786
v -0.05658 -0.55307 0.33812
v -0.00669 -0.56902 0.33138
v 0.00773 -0.58409 0.35418
v 0.00826 -0.61044 0.37031
v -0.00530 -0.63800 0.37362
v -0.02778 -0.65626 0.36284
v -0.05060 -0.65823 0.34209
v -0.06502 -0.64316 0.31929
v -0.06555 -0.61681 0.30316
v -0.05199 -0.58924 0.29985
v -0.02951 -0.57099 0.31063
v 0.02079 -0.58470 0.30223
v 0.03618 -0.60036 0.32397
v 0.03798 -0.62745 0.33872
v 0.02549 -0.65564 0.34084
v 0.00349 -0.67415 0.32953
v -0.01962 -0.67591 0.30909
v -0.03502 -0.66026 0.28735
v -0.03681 -0.63317 0.27259
v -0.02433 -0.60498 0.27047
v -0.00232 -0.58647 0.28179
v 0.04827 -0.59785 0.27184
v 0.06463 -0.61400 0.29249
v 0.06769 -0.64172 0.30580
v 0.05628 -0.67043 0.30668
v 0.03476 -0.68915 0.29481
v 0.01134 -0.69074 0.27471
v -0.00503 -0.67459 0.25406
v -0.00809 -0.64687 0.24075
v 0.00333 -0.61817 0.23987
v 0.02485 -0.59944 0.25174
v 0.07563 -0.60842 0.24036
v 0.09296 -0.62497 0.25987
v 0.09728 -0.65319 0.27168
v 0.08693 -0.68231 0.27129
v 0.06588 -0.70120 0.25884
v 0.04216 -0.70264 0.23909
v 0.02483 -0.68609 0.21958
v 0.02051 -0.65786 0.20776
v 0.03085 -0.62874 0.20816
v 0.05191 -0.60986 0.22061
v 0.10275 -0.61634 0.20790
v 0.12104 -0.63321 0.22624
v 0.12660 -0.66181 0.23651
v 0.11732 -0.69124 0.23481
v 0.09673 -0.71024 0.22177
v 0.07271 -0.71156 0.20238
v 0.05442 -0.69470 0.18405
v 0.04885 -0.66610 0.17377
v 0.05814 -0.63667 0.17548
v 0.07872 -0.61767 0.18852
v 0.12952 -0.62161 0.17462
v 0.14875 -0.63868 0.19175
v 0.15555 -0.66754 0.20045
v 0.14731 -0.69717 0.19739
v 0.12718 -0.71624 0.18376
v 0.10285 -0.71748 0.16474
v 0.08361 -0.70040 0.14762
v 0.07682 -0.67154 0.13892
v 0.08506 -0.64191 0.14197
v 0.10519 -0.62284 0.15561
v 0.15582 -0.62418 0.14066
v 0.17599 -0.64137 0.15655
v 0.18399 -0.67036 0.16363
v 0.17677 -0.70008 0.15921
v 0.15709 -0.71917 0.14496
v 0.13246 -0.72035 0.12634
v 0.11229 -0.70316 0.11045
v 0.10429 -0.67416 0.10336
v 0.11151 -0.64444 0.10778
v 0.13119 -0.62535 0.12203
v 0.18153 -0.62404 0.10615
v 0.20262 -0.64126 0.12079
v 0.21180 -0.67025 0.12624
v 0.20558 -0.69996 0.12042
v 0.18634 -0.71903 0.10556
v 0.16141 -0.72017 0.08733
v 0.14033 -0.70296 0.07269
v 0.13114 -0.67396 0.06724
v 0.13736 -0.64426 0.07306
v 0.15661 -0.62519 0.08792
v 0.20656 -0.62121 0.07125
v 0.22853 -0.63834 0.08462
v 0.23887 -0.66722 0.08841
v 0.23362 -0.69680 0.08119
v 0.21479 -0.71580 0.06571
v 0.18958 -0.71695 0.04788
v 0.16761 -0.69981 0.03452
v 0.15727 -0.67094 0.03072
v 0.16252 -0.64135 0.03794
v 0.18135 -0.62236 0.05342
v 0.23079 -0.61569 0.03611
v 0.25362 -0.63264 0.04819
v 0.26507 -0.66127 0.05033
v 0.26075 -0.69062 0.04169
v 0.24233 -0.70950 0.02559
v 0.21684 -0.71068 0.00817
v 0.19400 -0.69373 -0.00391
v 0.18256 -0.66510 -0.00604
v 0.18687 -0.63574 0.00259
v 0.20529 -0.61687 0.01869
v 0.25411 -0.60750 0.00088
v 0.27778 -0.62418 0.01167
v 0.29029 -0.65243 0.01214
v 0.28688 -0.68145 0.00209
v 0.26884 -0.70016 -0.01463
v 0.24307 -0.70141 -0.03164
v 0.21941 -0.68473 -0.04244
v 0.20690 -0.65648 -0.04290
v 0.21031 -0.62745 -0.03285
v 0.22834 -0.60875 -0.01613
v 0.27644 -0.59667 -0.03430
v 0.30089 -0.61299 -0.02479
v 0.31443 -0.64074 -0.02599
v 0.31188 -0.66933 -0.03745
v 0.29421 -0.68783 -0.05479
v 0.26818 -0.68918 -0.07138
v 0.24372 -0.67286 -0.08089
v 0.23018 -0.64510 -0.07968
v 0.23273 -0.61652 -0.06822
v 0.25040 -0.59802 -0.05089
v 0.29766 -0.58327 -0.06926
v 0.32288 -0.59912 -0.06103
v 0.33739 -0.62626 -0.06390
v 0.33565 -0.65430 -0.07676
v 0.31833 -0.67255 -0.09470
v 0.29204 -0.67402 -0.11088
v 0.26682 -0.65816 -0.11910
v 0.25231 -0.63103 -0.11624
v 0.25405 -0.60299 -0.10338
v 0.27137 -0.58474 -0.08544
v 0.31770 -0.56733 -0.10386
v 0.34363 -0.58263 -0.09691
v 0.35906 -0.60903 -0.10141
v 0.35808 -0.63643 -0.11566
v 0.34109 -0.65438 -0.13420
v 0.31456 -0.65602 -0.14996
v 0.28863 -0.64071 -0.15692
v 0.27320 -0.61432 -0.15241
v 0.27417 -0.58691 -0.13817
v 0.29117 -0.56897 -0.11962
v 0.33647 -0.54893 -0.13796
v 0.36307 -0.56359 -0.13226
v 0.37935 -0.58913 -0.13838
v 0.37909 -0.61580 -0.15399
v 0.36239 -0.63341 -0.17312
v 0.33563 -0.63524 -0.18847
v 0.30903 -0.62058 -0.19417
v 0.29275 -0.59504 -0.18805
v 0.29301 -0.56837 -0.17244
v 0.30971 -0.55076 -0.15331
v 0.35388 -0.52816 -0.17140
v 0.38110 -0.54208 -0.16693
v 0.39817 -0.56666 -0.17464
v 0.39857 -0.59250 -0.19158
v 0.38215 -0.60973 -0.21129
v 0.35518 -0.61178 -0.22623
v 0.32796 -0.59785 -0.23070
v 0.31089 -0.57327 -0.22299
v 0.31048 -0.54743 -0.20605
v 0.32690 -0.53020 -0.18634
v 0.36986 -0.50508 -0.20405
v 0.39765 -0.51820 -0.20078
v 0.41545 -0.54170 -0.21004
v 0.41645 -0.56662 -0.22828
v 0.40028 -0.58344 -0.24855
v 0.37311 -0.58573 -0.26309
v 0.34532 -0.57262 -0.26635
v 0.32752 -0.54912 -0.25709
v 0.32652 -0.52420 -0.23885
v 0.34269 -0.50738 -0.21859
v 0.38434 -0.47982 -0.23576
v 0.41265 -0.49203 -0.23366
v 0.43110 -0.51436 -0.24443
v 0.43265 -0.53828 -0.26393
v 0.41670 -0.55465 -0.28473
v 0.38935 -0.55722 -0.29888
v 0.36104 -0.54500 -0.30097
v 0.34259 -0.52267 -0.29021
v 0.34104 -0.49876 -0.27070
v 0.35699 -0.48239 -0.24990
v 0.39727 -0.45247 -0.26639
v 0.42604 -0.46370 -0.26543
v 0.44507 -0.48476 -0.27765
v 0.44710 -0.50759 -0.29838
v 0.43135 -0.52348 -0.31969
v 0.40383 -0.52635 -0.33346
v 0.37506 -0.51511 -0.33442
v 0.35602 -0.49406 -0.32220
v 0.35400 -0.47123 -0.30147
v 0.36975 -0.45534 -0.28016
v 0.40858 -0.42314 -0.29582
v 0.43775 -0.43333 -0.29596
v 0.45729 -0.45303 -0.30957
v 0.45973 -0.47469 -0.33147
v 0.44415 -0.49007 -0.35328
v 0.41648 -0.49327 -0.36667
v 0.38731 -0.48308 -0.36654
v 0.36777 -0.46339 -0.35292
v 0.36533 -0.44172 -0.33103
v 0.38091 -0.42635 -0.30922
v 0.41822 -0.39198 -0.32392
v 0.44774 -0.40105 -0.32510
v 0.46771 -0.41929 -0.34006
v 0.47050 -0.43973 -0.36307
v 0.45505 -0.45455 -0.38534
v 0.42726 -0.45811 -0.39838
v 0.39775 -0.44904 -0.39720
v 0.37778 -0.43080 -0.38225
v 0.37499 -0.41036 -0.35924
v 0.39043 -0.39553 -0.33696
v 0.42637 -0.35804 -0.35141
v 0.45604 -0.36652 -0.35309
v 0.47619 -0.38400 -0.36869
v 0.47914 -0.40380 -0.39223
v 0.46376 -0.41835 -0.41473
v 0.43591 -0.42210 -0.42760
v 0.40625 -0.41361 -0.42592
v 0.38609 -0.39613 -0.41033
v 0.38314 -0.37633 -0.38679
v 0.39853 -0.36178 -0.36428
f 2 11 1
f 3 12 2
f 4 13 3
f 5 14 4
f 5 16 15
f 6 17 16
f 7 18 17
f 8 19 18
f 9 20 19
f 1 20 10
f 12 21 11
f 13 22 12
f 14 23 13
f 15 24 14
f 16 25 15
f 17 26 16
f 18 27 17
f 19 28 18
f 20 29 19
f 11 30 20
f 22 31 21
f 23 32 22
f 24 33 23
f 25 34 24
f 26 35 25
f 27 36 26
f 28 37 27
f 29 38 28
f 30 39 29
f 21 40 30
f 32 41 31
f 33 42 32
f 34 43 33
f 35 44 34
f 36 45 35
f 37 46 36
f 38 47 37
f 39 48 38
f 40 49 39
f 31 50 40
f 42 51 41
f 43 52 42
f 44 53 43
f 45 54 44
f 46 55 45
f 47 56 46
f 48 57 47
f 49 58 48
f 50 59 49
f 41 60 50
f 52 61 51
f 53 62 52
f 54 63 53
f 55 64 54
f 56 65 55
f 57 66 56
f 58 67 57
f 59 68 58
f 60 69 59
f 51 70 60
f 62 71 61
f 63 72 62
f 64 73 63
f 65 74 64
f 66 75 65
f 67 76 66
f 68 77 67
f 69 78 68
f 70 79 69
f 61 80 70
f 72 81 71
f 73 82 72
f 74 83 73
f 75 84 74
f 76 85 75
f 77 86 76
f 78 87 77
f 79 88 78
f 80 89 79
f 71 90 80
f 82 91 81
f 83 92 82
f 84 93 83
f 85 94 84
f 86 95 85
f 87 96 86
f 88 97 87
f 89 98 88
f 90 99 89
f 81 100 90
f 92 101 91
f 93 102 92
f 94 103 93
f 95 104 94
f 96 105 95
f 97 106 96
f 98 107 97
f 99 108 98
f 100 109 99
f 91 110 100
f 102 111 101
f 103 112 102
f 104 113 103
f 105 114 104
f 106 115 105
f 107 116 106
f 108 117 107
f 109 118 108
f 110 119 109
f 101 120 110
f 112 121 111
f 113 122 112
f 114 123 113
f 115 124 114
f 116 125 115
f 117 126 116
f 118 127 117
f 119 128 118
f 120 129 119
f 111 130 120
f 122 131 121
f 123 132 122
f 124 133 123
f 125 134 124
f 126 135 125
f 127 136 126
f 128 137 127
f 129 138 128
f 130 139 129
f 121 140 130
f 132 141 131
f 133 142 132
f 134 143 133
f 135 144 134
f 136 145 135
f 137 146 136
f 138 147 137
f 139 148 138
f 140 149 139
f 131 150 140
f 142 151 141
f 143 152 142
f 144 153 143
f 145 154 144
f 146 155 145
f 147 156 146
f 148 157 147
f 149 158 148
f 150 159 149
f 141 160 150
f 152 161 151
f 153 162 152
f 154 163 153
f 155 164 154
f 156 165 155
f 157 166 156
f 158 167 157
f 159 168 158
f 160 169 159
f 151 170 160
f 162 171 161
f 163 172 162
f 164 173 163
f 165 174 164
f 166 175 165
f 167 176 166
f 168 177 167
f 169 178 168
f 170 179 169
f 161 180 170
f 172 181 171
f 173 182 172
f 174 183 173
f 175 184 174
f 176 185 175
f 177 186 176
f 178 187 177
f 179 188 178
f 180 189 179
f 171 190 180
f 182 191 181
f 183 192 182
f 184 193 183
f 185 194 184
f 186 195 185
f 187 196 186
f 188 197 187
f 189 198 188
f 190 199 189
f 181 200 190
f 192 201 191
f 193 202 192
f 194 203 193
f 195 204 194
f 196 205 195
f 197 206 196
f 198 207 197
f 199 208 198
f 200 209 199
f 191 210 200
f 202 211 201
f 203 212 202
f 204 213 203
f 205 214 204
f 206 215 205
f 207 216 206
f 208 217 207
f 209 218 208
f 210 219 209
f 201 220 210
f 212 221 211
f 213 222 212
f 214 223 213
f 215 224 214
f 216 225 215
f 217 226 216
f 218 227 217
f 219 228 218
f 220 229 219
f 211 230 220
f 222 231 221
f 223 232 222
f 224 233 223
f 225 234 224
f 226 235 225
f 227 236 226
f 228 237 227
f 229 238 228
f 230 239 229
f 221 240 230
f 232 241 231
f 233 242 232
f 234 243 233
f 235 244 234
f 236 245 235
f 237 246 236
f 238 247 237
f 239 248 238
f 240 249 239
f 231 250 240
f 242 251 241
f 243 252 242
f 244 253 243
f 245 254 244
f 246 255 245
f 247 256 246
f 248 257 247
f 249 258 248
f 250 259 249
f 241 260 250
f 252 261 251
f 253 262 252
f 254 263 253
f 255 264 254
f 256 265 255
f 257 266 256
f 258 267 257
f 259 268 258
f 260 269 259
f 251 270 260
f 262 271 261
f 263 272 262
f 264 273 263
f 265 274 264
f 266 275 265
f 267 276 266
f 268 277 267
f 269 278 268
f 270 279 269
f 261 280 270
f 272 281 271
f 273 282 272
f 274 283 273
f 275 284 274
f 276 285 275
f 277 286 276
f 278 287 277
f 279 288 278
f 280 289 279
f 271 290 280
f 282 291 281
f 283 292 282
f 284 293 283
f 285 294 284
f 286 295 285
f 287 296 286
f 288 297 287
f 289 298 288
f 290 299 289
f 281 300 290
f 292 301 291
f 293 302 292
f 294 303 293
f 295 304 294
f 296 305 295
f 297 306 296
f 298 307 297
f 299 308 298
f 300 309 299
f 291 310 300
f 302 311 301
f 303 312 302
f 304 313 303
f 305 314 304
f 306 315 305
f 307 316 306
f 308 317 307
f 309 318 308
f 310 319 309
f 301 320 310
f 312 321 311
f 313 322 312
f 314 323 313
f 315 324 314
f 316 325 315
f 317 326 316
f 318 327 317
f 319 328 318
f 320 329 319
f 311 330 320
f 322 331 321
f 323 332 322
f 324 333 323
f 325 334 324
f 326 335 325
f 327 336 326
f 328 337 327
f 329 338 328
f 330 339 329
f 321 340 330
f 332 341 331
f 333 342 332
f 334 343 333
f 335 344 334
f 336 345 335
f 337 346 336
f 338 347 337
f 339 348 338
f 340 349 339
f 331 350 340
f 342 351 341
f 343 352 342
f 344 353 343
f 345 354 344
f 346 355 345
f 347 356 346
f 348 357 347
f 349 358 348
f 350 359 349
f 341 360 350
f 352 361 351
f 353 362 352
f 354 363 353
f 355 364 354
f 356 365 355
f 357 366 356
f 358 367 357
f 359 368 358
f 360 369 359
f 351 370 360
f 362 371 361
f 363 372 362
f 364 373 363
f 365 374 364
f 366 375 365
f 367 376 366
f 368 377 367
f 369 378 368
f 370 379 369
f 361 380 370
f 372 381 371
f 373 382 372
f 374 383 373
f 375 384 374
f 376 385 375
f 377 386 376
f 378 387 377
f 379 388 378
f 380 389 379
f 371 390 380
f 382 391 381
f 383 392 382
f 384 393 383
f 385 394 384
f 386 395 385
f 387 396 386
f 388 397 387
f 389 398 388
f 390 399 389
f 381 400 390
f 392 401 391
f 393 402 392
f 394 403 393
f 395 404 394
f 396 405 395
f 397 406 396
f 398 407 397
f 399 408 398
f 400 409 399
f 391 410 400
f 402 411 401
f 403 412 402
f 404 413 403
f 405 414 404
f 406 415 405
f 407 416 406
f 408 417 407
f 409 418 408
f 410 419 409
f 401 420 410
f 412 421 411
f 413 422 412
f 414 423 413
f 415 424 414
f 416 425 415
f 417 426 416
f 418 427 417
f 419 428 418
f 420 429 419
f 411 430 420
f 422 431 421
f 423 432 422
f 424 433 423
f 425 434 424
f 426 435 425
f 427 436 426
f 428 437 427
f 429 438 428
f 430 439 429
f 421 440 430
f 432 441 431
f 433 442 432
f 434 443 433
f 435 444 434
f 436 445 435
f 437 446 436
f 438 447 437
f 439 448 438
f 440 449 439
f 431 450 440
f 442 451 441
f 443 452 442
f 444 453 443
f 445 454 444
f 446 455 445
f 447 456 446
f 448 457 447
f 449 458 448
f 450 459 449
f 441 460 450
f 452 461 451
f 453 462 452
f 454 463 453
f 455 464 454
f 456 465 455
f 457 466 456
f 458 467 457
f 459 468 458
f 460 469 459
f 451 470 460
f 462 471 461
f 463 472 462
f 464 473 463
f 465 474 464
f 466 475 465
f 467 476 466
f 468 477 467
f 469 478 468
f 470 479 469
f 461 480 470
f 472 481 471
f 473 482 472
f 474 483 473
f 475 484 474
f 476 485 475
f 477 486 476
f 478 487 477
f 479 488 478
f 480 489 479
f 471 490 480
f 482 491 481
f 483 492 482
f 484 493 483
f 485 494 484
f 486 495 485
f 487 496 486
f 488 497 487
f 489 498 488
f 490 499 489
f 481 500 490
f 492 501 491
f 493 502 492
f 494 503 493
f 495 504 494
f 496 505 495
f 497 506 496
f 498 507 497
f 499 508 498
f 500 509 499
f 491 510 500
f 502 511 501
f 503 512 502
f 504 513 503
f 505 514 504
f 506 515 505
f 507 516 506
f 508 517 507
f 509 518 508
f 510 519 509
f 501 520 510
f 512 521 511
f 513 522 512
f 514 523 513
f 515 524 514
f 516 525 515
f 517 526 516
f 518 527 517
f 519 528 518
f 520 529 519
f 511 530 520
f 522 531 521
f 523 532 522
f 524 533 523
f 525 534 524
f 526 535 525
f 527 536 526
f 528 537 527
f 529 538 528
f 530 539 529
f 521 540 530
f 532 541 531
f 533 542 532
f 534 543 533
f 535 544 534
f 536 545 535
f 537 546 536
f 538 547 537
f 539 548 538
f 540 549 539
f 531 550 540
f 542 551 541
f 543 552 542
f 544 553 543
f 545 554 544
f 546 555 545
f 547 556 546
f 548 557 547
f 549 558 548
f 550 559 549
f 541 560 550
f 552 561 551
f 553 562 552
f 554 563 553
f 555 564 554
f 556 565 555
f 557 566 556
f 558 567 557
f 559 568 558
f 560 569 559
f 551 570 560
f 562 571 561
f 563 572 562
f 564 573 563
f 565 574 564
f 566 575 565
f 567 576 566
f 568 577 567
f 569 578 568
f 570 579 569
f 561 580 570
f 572 581 571
f 573 582 572
f 574 583 573
f 575 584 574
f 576 585 575
f 577 586 576
f 578 587 577
f 579 588 578
f 580 589 579
f 571 590 580
f 582 591 581
f 583 592 582
f 584 593 583
f 585 594 584
f 586 595 585
f 587 596 586
f 588 597 587
f 589 598 588
f 590 599 589
f 581 600 590
f 592 601 591
f 593 602 592
f 594 603 593
f 595 604 594
f 596 605 595
f 597 606 596
f 598 607 597
f 599 608 598
f 600 609 599
f 591 610 600
f 602 611 601
f 603 612 602
f 604 613 603
f 605 614 604
f 606 615 605
f 607 616 606
f 608 617 607
f 609 618 608
f 610 619 609
f 601 620 610
f 612 621 611
f 613 622 612
f 614 623 613
f 615 624 614
f 616 625 615
f 617 626 616
f 618 627 617
f 619 628 618
f 620 629 619
f 611 630 620
f 622 631 621
f 623 632 622
f 624 633 623
f 625 634 624
f 626 635 625
f 627 636 626
f 628 637 627
f 629 638 628
f 630 639 629
f 621 640 630
f 632 641 631
f 633 642 632
f 634 643 633
f 635 644 634
f 636 645 635
f 637 646 636
f 638 647 637
f 639 648 638
f 640 649 639
f 631 650 640
f 642 651 641
f 643 652 642
f 644 653 643
f 645 654 644
f 646 655 645
f 647 656 646
f 648 657 647
f 649 658 648
f 650 659 649
f 641 660 650
f 652 661 651
f 653 662 652
f 654 663 653
f 655 664 654
f 656 665 655
f 657 666 656
f 658 667 657
f 659 668 658
f 660 669 659
f 651 670 660
f 662 671 661
f 663 672 662
f 664 673 663
f 665 674 664
f 666 675 665
f 667 676 666
f 668 677 667
f 669 678 668
f 670 679 669
f 661 680 670
f 672 681 671
f 673 682 672
f 674 683 673
f 675 684 674
f 676 685 675
f 677 686 676
f 678 687 677
f 679 688 678
f 680 689 679
f 671 690 680
f 682 691 681
f 683 692 682
f 684 693 683
f 685 694 684
f 686 695 685
f 687 696 686
f 688 697 687
f 689 698 688
f 690 699 689
f 681 700 690
f 692 701 691
f 693 702 692
f 694 703 693
f 695 704 694
f 696 705 695
f 697 706 696
f 698 707 697
f 699 708 698
f 700 709 699
f 691 710 700
f 702 711 701
f 703 712 702
f 704 713 703
f 705 714 704
f 706 715 705
f 707 716 706
f 708 717 707
f 709 718 708
f 710 719 709
f 701 720 710
f 712 721 711
f 713 722 712
f 714 723 713
f 715 724 714
f 716 725 715
f 717 726 716
f 718 727 717
f 719 728 718
f 720 729 719
f 711 730 720
f 722 731 721
f 723 732 722
f 724 733 723
f 725 734 724
f 726 735 725
f 727 736 726
f 728 737 727
f 729 738 728
f 730 739 729
f 721 740 730
f 732 741 731
f 733 742 732
f 734 743 733
f 735 744 734
f 736 745 735
f 737 746 736
f 738 747 737
f 739 748 738
f 740 749 739
f 731 750 740
f 742 751 741
f 743 752 742
f 744 753 743
f 745 754 744
f 746 755 745
f 747 756 746
f 748 757 747
f 749 758 748
f 750 759 749
f 741 760 750
f 752 761 751
f 753 762 752
f 754 763 753
f 755 764 754
f 756 765 755
f 757 766 756
f 758 767 757
f 759 768 758
f 760 769 759
f 751 770 760
f 762 771 761
f 763 772 762
f 764 773 763
f 765 774 764
f 766 775 765
f 767 776 766
f 768 777 767
f 769 778 768
f 770 779 769
f 761 780 770
f 772 781 771
f 773 782 772
f 774 783 773
f 775 784 774
f 776 785 775
f 777 786 776
f 778 787 777
f 779 788 778
f 780 789 779
f 771 790 780
f 782 791 781
f 783 792 782
f 784 793 783
f 785 794 784
f 786 795 785
f 787 796 786
f 788 797 787
f 789 798 788
f 790 799 789
f 781 800 790
f 792 801 791
f 793 802 792
f 794 803 793
f 795 804 794
f 796 805 795
f 797 806 796
f 798 807 797
f 799 808 798
f 800 809 799
f 791 810 800
f 802 811 801
f 803 812 802
f 804 813 803
f 805 814 804
f 806 815 805
f 807 816 806
f 808 817 807
f 809 818 808
f 810 819 809
f 801 820 810
f 812 821 811
f 813 822 812
f 814 823 813
f 815 824 814
f 816 825 815
f 817 826 816
f 818 827 817
f 819 828 818
f 820 829 819
f 811 830 820
f 822 831 821
f 823 832 822
f 824 833 823
f 825 834 824
f 826 835 825
f 827 836 826
f 828 837 827
f 829 838 828
f 830 839 829
f 821 840 830
f 832 841 831
f 833 842 832
f 834 843 833
f 835 844 834
f 836 845 835
f 837 846 836
f 838 847 837
f 839 848 838
f 840 849 839
f 831 850 840
f 842 851 841
f 843 852 842
f 844 853 843
f 845 854 844
f 846 855 845
f 847 856 846
f 848 857 847
f 849 858 848
f 850 859 849
f 841 860 850
f 852 861 851
f 853 862 852
f 854 863 853
f 855 864 854
f 856 865 855
f 857 866 856
f 858 867 857
f 859 868 858
f 860 869 859
f 851 870 860
f 862 871 861
f 863 872 862
f 864 873 863
f 865 874 864
f 866 875 865
f 867 876 866
f 868 877 867
f 869 878 868
f 870 879 869
f 861 880 870
f 872 881 871
f 873 882 872
f 874 883 873
f 875 884 874
f 876 885 875
f 877 886 876
f 878 887 877
f 879 888 878
f 880 889 879
f 871 890 880
f 882 891 881
f 883 892 882
f 884 893 883
f 885 894 884
f 886 895 885
f 887 896 886
f 888 897 887
f 889 898 888
f 890 899 889
f 881 900 890
f 892 901 891
f 893 902 892
f 894 903 893
f 895 904 894
f 896 905 895
f 897 906 896
f 898 907 897
f 899 908 898
f 900 909 899
f 891 910 900
f 902 911 901
f 903 912 902
f 904 913 903
f 905 914 904
f 906 915 905
f 907 916 906
f 908 917 907
f 909 918 908
f 910 919 909
f 901 920 910
f 912 921 911
f 913 922 912
f 914 923 913
f 915 924 914
f 916 925 915
f 917 926 916
f 918 927 917
f 919 928 918
f 920 929 919
f 911 930 920
f 922 931 921
f 923 932 922
f 924 933 923
f 925 934 924
f 926 935 925
f 927 936 926
f 928 937 927
f 929 938 928
f 930 939 929
f 921 940 930
f 932 941 931
f 933 942 932
f 934 943 933
f 935 944 934
f 936 945 935
f 937 946 936
f 938 947 937
f 939 948 938
f 940 949 939
f 931 950 940
f 942 951 941
f 943 952 942
f 944 953 943
f 945 954 944
f 946 955 945
f 947 956 946
f 948 957 947
f 949 958 948
f 950 959 949
f 941 960 950
f 951 962 961
f 952 963 962
f 953 964 963
f 954 965 964
f 956 965 955
f 957 966 956
f 958 967 957
f 959 968 958
f 960 969 959
f 960 961 970
f 2 12 11
f 3 13 12
f 4 14 13
f 5 15 14
f 5 6 16
f 6 7 17
f 7 8 18
f 8 9 19
f 9 10 20
f 1 11 20
f 12 22 21
f 13 23 22
f 14 24 23
f 15 25 24
f 16 26 25
f 17 27 26
f 18 28 27
f 19 29 28
f 20 30 29
f 11 21 30
f 22 32 31
f 23 33 32
f 24 34 33
f 25 35 34
f 26 36 35
f 27 37 36
f 28 38 37
f 29 39 38
f 30 40 39
f 21 31 40
f 32 42 41
f 33 43 42
f 34 44 43
f 35 45 44
f 36 46 45
f 37 47 46
f 38 48 47
f 39 49 48
f 40 50 49
f 31 41 50
f 42 52 51
f 43 53 52
f 44 54 53
f 45 55 54
f 46 56 55
f 47 57 56
f 48 58 57
f 49 59 58
f 50 60 59
f 41 51 60
f 52 62 61
f 53 63 62
f 54 64 63
f 55 65 64
f 56 66 65
f 57 67 66
f 58 68 67
f 59 69 68
f 60 70 69
f 51 61 70
f 62 72 71
f 63 73 72
f 64 74 73
f 65 75 74
f 66 76 75
f 67 77 76
f 68 78 77
f 69 79 78
f 70 80 79
f 61 71 80
f 72 82 81
f 73 83 82
f 74 84 83
f 75 85 84
f 76 86 85
f 77 87 86
f 78 88 87
f 79 89 88
f 80 90 89
f 71 81 90
f 82 92 91
f 83 93 92
f 84 94 93
f 85 95 94
f 86 96 95
f 87 97 96
f 88 98 97
f 89 99 98
f 90 100 99
f 81 91 100
f 92 102 101
f 93 103 102
f 94 104 103
f 95 105 104
f 96 106 105
f 97 107 106
f 98 108 107
f 99 109 108
f 100 110 109
f 91 101 110
f 102 112 111
f 103 113 112
f 104 114 113
f 105 115 114
f 106 116 115
f 107 117 116
f 108 118 117
f 109 119 118
f 110 120 119
f 101 111 120
f 112 122 121
f 113 123 122
f 114 124 123
f 115 125 124
f 116 126 125
f 117 127 126
f 118 128 127
f 119 129 128
f 120 130 129
f 111 121 130
f 122 132 131
f 123 133 132
f 124 134 133
f 125 135 134
f 126 136 135
f 127 137 136
f 128 138 137
f 129 139 138
f 130 140 139
f 121 131 140
f 132 142 141
f 133 143 142
f 134 144 143
f 135 145 144
f 136 146 145
f 137 147 146
f 138 148 147
f 139 149 148
f 140 150 149
f 131 141 150
f 142 152 151
f 143 153 152
f 144 154 153
f 145 155 154
f 146 156 155
f 147 157 156
f 148 158 157
f 149 159 158
f 150 160 159
f 141 151 160
f 152 162 161
f 153 163 162
f 154 164 163
f 155 165 164
f 156 166 165
f 157 167 166
f 158 168 167
f 159 169 168
f 160 170 169
f 151 161 170
f 162 172 171
f 163 173 172
f 164 174 173
f 165 175 174
f 166 176 175
f 167 177 176
f 168 178 177
f 169 179 178
f 170 180 179
f 161 171 180
f 172 182 181
f 173 183 182
f 174 184 183
f 175 185 184
f 176 186 185
f 177 187 186
f 178 188 187
f 179 189 188
f 180 190 189
f 171 181 190
f 182 192 191
f 183 193 192
f 184 194 193
f 185 195 194
f 186 196 195
f 187 197 196
f 188 198 197
f 189 199 198
f 190 200 199
f 181 191 200
f 192 202 201
f 193 203 202
f 194 204 203
f 195 205 204
f 196 206 205
f 197 207 206
f 198 208 207
f 199 209 208
f 200 210 209
f 191 201 210
f 202 212 211
f 203 213 212
f 204 214 213
f 205 215 214
f 206 216 215
f 207 217 216
f 208 218 217
f 209 219 218
f 210 220 219
f 201 211 220
f 212 222 221
f 213 223 222
f 214 224 223
f 215 225 224
f 216 226 225
f 217 227 226
f 218 228 227
f 219 229 228
f 220 230 229
f 211 221 230
f 222 232 231
f 223 233 232
f 224 234 233
f 225 235 234
f 226 236 235
f 227 237 236
f 228 238 237
f 229 239 238
f 230 240 239
f 221 231 240
f 232 242 241
f 233 243 242
f 234 244 243
f 235 245 244
f 236 246 245
f 237 247 246
f 238 248 247
f 239 249 248
f 240 250 249
f 231 241 250
f 242 252 251
f 243 253 252
f 244 254 253
f 245 255 254
f 246 256 255
f 247 257 256
f 248 258 257
f 249 259 258
f 250 260 259
f 241 251 260
f 252 262 261
f 253 263 262
f 254 264 263
f 255 265 264
f 256 266 265
f 257 267 266
f 258 268 267
f 259 269 268
f 260 270 269
f 251 261 270
f 262 272 271
f 263 273 272
f 264 274 273
f 265 275 274
f 266 276 275
f 267 277 276
f 268 278 277
f 269 279 278
f 270 280 279
f 261 271 280
f 272 282 281
f 273 283 282
f 274 284 283
f 275 285 284
f 276 286 285
f 277 287 286
f 278 288 287
f 279 289 288
f 280 290 289
f 271 281 290
f 282 292 291
f 283 293 292
f 284 294 293
f 285 295 294
f 286 296 295
f 287 297 296
f 288 298 297
f 289 299 298
f 290 300 299
f 281 291 300
f 292 302 301
f 293 303 302
f 294 304 303
f 295 305 304
f 296 306 305
f 297 307 306
f 298 308 307
f 299 309 308
f 300 310 309
f 291 301 310
f 302 312 311
f 303 313 312
f 304 314 313
f 305 315 314
f 306 316 315
f 307 317 316
f 308 318 317
f 309 319 318
f 310 320 319
f 301 311 320
f 312 322 321
f 313 323 322
f 314 324 323
f 315 325 324
f 316 326 325
f 317 327 326
f 318 328 327
f 319 329 328
f 320 330 329
f 311 321 330
f 322 332 331
f 323 333 332
f 324 334 333
f 325 335 334
f 326 336 335
f 327 337 336
f 328 338 337
f 329 339 338
f 330 340 339
f 321 331 340
f 332 342 341
f 333 343 342
f 334 344 343
f 335 345 344
f 336 346 345
f 337 347 346
f 338 348 347
f 339 349 348
f 340 350 349
f 331 341 350
f 342 352 351
f 343 353 352
f 344 354 353
f 345 355 354
f 346 356 355
f 347 357 356
f 348 358 357
f 349 359 358
f 350 360 359
f 341 351 360
f 352 362 361
f 353 363 362
f 354 364 363
f 355 365 364
f 356 366 365
f 357 367 366
f 358 368 367
f 359 369 368
f 360 370 369
f 351 361 370
f 362 372 371
f 363 373 372
f 364 374 373
f 365 375 374
f 366 376 375
f 367 377 376
f 368 378 377
f 369 379 378
f 370 380 379
f 361 371 380
f 372 382 381
f 373 383 382
f 374 384 383
f 375 385 384
f 376 386 385
f 377 387 386
f 378 388 387
f 379 389 388
f 380 390 389
f 371 381 390
f 382 392 391
f 383 393 392
f 384 394 393
f 385 395 394
f 386 396 395
f 387 397 396
f 388 398 397
f 389 399 398
f 390 400 399
f 381 391 400
f 392 402 401
f 393 403 402
f 394 404 403
f 395 405 404
f 396 406 405
f 397 407 406
f 398 408 407
f 399 409 408
f 400 410 409
f 391 401 410
f 402 412 411
f 403 413 412
f 404 414 413
f 405 415 414
f 406 416 415
f 407 417 416
f 408 418 417
f 409 419 418
f 410 420 419
f 401 411 420
f 412 422 421
f 413 423 422
f 414 424 423
f 415 425 424
f 416 426 425
f 417 427 426
f 418 428 427
f 419 429 428
f 420 430 429
f 411 421 430
f 422 432 431
f 423 433 432
f 424 434 433
f 425 435 434
f 426 436 435
f 427 437 436
f 428 438 437
f 429 439 438
f 430 440 439
f 421 431 440
f 432 442 441
f 433 443 442
f 434 444 443
f 435 445 444
f 436 446 445
f 437 447 446
f 438 448 447
f 439 449 448
f 440 450 449
f 431 441 450
f 442 452 451
f 443 453 452
f 444 454 453
f 445 455 454
f 446 456 455
f 447 457 456
f 448 458 457
f 449 459 458
f 450 460 459
f 441 451 460
f 452 462 461
f 453 463 462
f 454 464 463
f 455 465 464
f 456 466 465
f 457 467 466
f 458 468 467
f 459 469 468
f 460 470 469
f 451 461 470
f 462 472 471
f 463 473 472
f 464 474 473
f 465 475 474
f 466 476 475
f 467 477 476
f 468 478 477
f 469 479 478
f 470 480 479
f 461 471 480
f 472 482 481
f 473 483 482
f 474 484 483
f 475 485 484
f 476 486 485
f 477 487 486
f 478 488 487
f 479 489 488
f 480 490 489
f 471 481 490
f 482 492 491
f 483 493 492
f 484 494 493
f 485 495 494
f 486 496 495
f 487 497 496
f 488 498 497
f 489 499 498
f 490 500 499
f 481 491 500
f 492 502 501
f 493 503 502
f 494 504 503
f 495 505 504
f 496 506 505
f 497 507 506
f 498 508 507
f 499 509 508
f 500 510 509
f 491 501 510
f 502 512 511
f 503 513 512
f 504 514 513
f 505 515 514
f 506 516 515
f 507 517 516
f 508 518 517
f 509 519 518
f 510 520 519
f 501 511 520
f 512 522 521
f 513 523 522
f 514 524 523
f 515 525 524
f 516 526 525
f 517 527 526
f 518 528 527
f 519 529 528
f 520 530 529
f 511 521 530
f 522 532 531
f 523 533 532
f 524 534 533
f 525 535 534
f 526 536 535
f 527 537 536
f 528 538 537
f 529 539 538
f 530 540 539
f 521 531 540
f 532 542 541
f 533 543 542
f 534 544 543
f 535 545 544
f 536 546 545
f 537 547 546
f 538 548 547
f 539 549 548
f 540 550 549
f 531 541 550
f 542 552 551
f 543 553 552
f 544 554 553
f 545 555 554
f 546 556 555
f 547 557 556
f 548 558 557
f 549 559 558
f 550 560 559
f 541 551 560
f 552 562 561
f 553 563 562
f 554 564 563
f 555 565 564
f 556 566 565
f 557 567 566
f 558 568 567
f 559 569 568
f 560 570 569
f 551 561 570
f 562 572 571
f 563 573 572
f 564 574 573
f 565 575 574
f 566 576 575
f 567 577 576
f 568 578 577
f 569 579 578
f 570 580 579
f 561 571 580
f 572 582 581
f 573 583 582
f 574 584 583
f 575 585 584
f 576 586 585
f 577 587 586
f 578 588 587
f 579 589 588
f 580 590 589
f 571 581 590
f 582 592 591
f 583 593 592
f 584 594 593
f 585 595 594
f 586 596 595
f 587 597 596
f 588 598 597
f 589 599 598
f 590 600 599
f 581 591 600
f 592 602 601
f 593 603 602
f 594 604 603
f 595 605 604
f 596 606 605
f 597 607 606
f 598 608 607
f 599 609 608
f 600 610 609
f 591 601 610
f 602 612 611
f 603 613 612
f 604 614 613
f 605 615 614
f 606 616 615
f 607 617 616
f 608 618 617
f 609 619 618
f 610 620 619
f 601 611 620
f 612 622 621
f 613 623 622
f 614 624 623
f 615 625 624
f 616 626 625
f 617 627 626
f 618 628 627
f 619 629 628
f 620 630 629
f 611 621 630
f 622 632 631
f 623 633 632
f 624 634 633
f 625 635 634
f 626 636 635
f 627 637 636
f 628 638 637
f 629 639 638
f 630 640 639
f 621 631 640
f 632 642 641
f 633 643 642
f 634 644 643
f 635 645 644
f 636 646 645
f 637 647 646
f 638 648 647
f 639 649 648
f 640 650 649
f 631 641 650
f 642 652 651
f 643 653 652
f 644 654 653
f 645 655 654
f 646 656 655
f 647 657 656
f 648 658 657
f 649 659 658
f 650 660 659
f 641 651 660
f 652 662 661
f 653 663 662
f 654 664 663
f 655 665 664
f 656 666 665
f 657 667 666
f 658 668 667
f 659 669 668
f 660 670 669
f 651 661 670
f 662 672 671
f 663 673 672
f 664 674 673
f 665 675 674
f 666 676 675
f 667 677 676
f 668 678 677
f 669 679 678
f 670 680 679
f 661 671 680
f 672 682 681
f 673 683 682
f 674 684 683
f 675 685 684
f 676 686 685
f 677 687 686
f 678 688 687
f 679 689 688
f 680 690 689
f 671 681 690
f 682 692 691
f 683 693 692
f 684 694 693
f 685 695 694
f 686 696 695
f 687 697 696
f 688 698 697
f 689 699 698
f 690 700 699
f 681 691 700
f 692 702 701
f 693 703 702
f 694 704 703
f 695 705 704
f 696 706 705
f 697 707 706
f 698 708 707
f 699 709 708
f 700 710 709
f 691 701 710
f 702 712 711
f 703 713 712
f 704 714 713
f 705 715 714
f 706 716 715
f 707 717 716
f 708 718 717
f 709 719 718
f 710 720 719
f 701 711 720
f 712 722 721
f 713 723 722
f 714 724 723
f 715 725 724
f 716 726 725
f 717 727 726
f 718 728 727
f 719 729 728
f 720 730 729
f 711 721 730
f 722 732 731
f 723 733 732
f 724 734 733
f 725 735 734
f 726 736 735
f 727 737 736
f 728 738 737
f 729 739 738
f 730 740 739
f 721 731 740
f 732 742 741
f 733 743 742
f 734 744 743
f 735 745 744
f 736 746 745
f 737 747 746
f 738 748 747
f 739 749 748
f 740 750 749
f 731 741 750
f 742 752 751
f 743 753 752
f 744 754 753
f 745 755 754
f 746 756 755
f 747 757 756
f 748 758 757
f 749 759 758
f 750 760 759
f 741 751 760
f 752 762 761
f 753 763 762
f 754 764 763
f 755 765 764
f 756 766 765
f 757 767 766
f 758 768 767
f 759 769 768
f 760 770 769
f 751 761 770
f 762 772 771
f 763 773 772
f 764 774 773
f 765 775 774
f 766 776 775
f 767 777 776
f 768 778 777
f 769 779 778
f 770 780 779
f 761 771 780
f 772 782 781
f 773 783 782
f 774 784 783
f 775 785 784
f 776 786 785
f 777 787 786
f 778 788 787
f 779 789 788
f 780 790 789
f 771 781 790
f 782 792 791
f 783 793 792
f 784 794 793
f 785 795 794
f 786 796 795
f 787 797 796
f 788 798 797
f 789 799 798
f 790 800 799
f 781 791 800
f 792 802 801
f 793 803 802
f 794 804 803
f 795 805 804
f 796 806 805
f 797 807 806
f 798 808 807
f 799 809 808
f 800 810 809
f 791 801 810
f 802 812 811
f 803 813 812
f 804 814 813
f 805 815 814
f 806 816 815
f 807 817 816
f 808 818 817
f 809 819 818
f 810 820 819
f 801 811 820
f 812 822 821
f 813 823 822
f 814 824 823
f 815 825 824
f 816 826 825
f 817 827 826
f 818 828 827
f 819 829 828
f 820 830 829
f 811 821 830
f 822 832 831
f 823 833 832
f 824 834 833
f 825 835 834
f 826 836 835
f 827 837 836
f 828 838 837
f 829 839 838
f 830 840 839
f 821 831 840
f 832 842 841
f 833 843 842
f 834 844 843
f 835 845 844
f 836 846 845
f 837 847 846
f 838 848 847
f 839 849 848
f 840 850 849
f 831 841 850
f 842 852 851
f 843 853 852
f 844 854 853
f 845 855 854
f 846 856 855
f 847 857 856
f 848 858 857
f 849 859 858
f 850 860 859
f 841 851 860
f 852 862 861
f 853 863 862
f 854 864 863
f 855 865 864
f 856 866 865
f 857 867 866
f 858 868 867
f 859 869 868
f 860 870 869
f 851 861 870
f 862 872 871
f 863 873 872
f 864 874 873
f 865 875 874
f 866 876 875
f 867 877 876
f 868 878 877
f 869 879 878
f 870 880 879
f 861 871 880
f 872 882 881
f 873 883 882
f 874 884 883
f 875 885 884
f 876 886 885
f 877 887 886
f 878 888 887
f 879 889 888
f 880 890 889
f 871 881 890
f 882 892 891
f 883 893 892
f 884 894 893
f 885 895 894
f 886 896 895
f 887 897 896
f 888 898 897
f 889 899 898
f 890 900 899
f 881 891 900
f 892 902 901
f 893 903 902
f 894 904 903
f 895 905 904
f 896 906 905
f 897 907 906
f 898 908 907
f 899 909 908
f 900 910 909
f 891 901 910
f 902 912 911
f 903 913 912
f 904 914 913
f 905 915 914
f 906 916 915
f 907 917 916
f 908 918 917
f 909 919 918
f 910 920 919
f 901 911 920
f 912 922 921
f 913 923 922
f 914 924 923
f 915 925 924
f 916 926 925
f 917 927 926
f 918 928 927
f 919 929 928
f 920 930 929
f 911 921 930
f 922 932 931
f 923 933 932
f 924 934 933
f 925 935 934
f 926 936 935
f 927 937 936
f 928 938 937
f 929 939 938
f 930 940 939
f 921 931 940
f 932 942 941
f 933 943 942
f 934 944 943
f 935 945 944
f 936 946 945
f 937 947 946
f 938 948 947
f 939 949 948
f 940 950 949
f 931 941 950
f 942 952 951
f 943 953 952
f 944 954 953
f 945 955 954
f 946 956 955
f 947 957 956
f 948 958 957
f 949 959 958
f 950 960 959
f 941 951 960
f 951 952 962
f 952 953 963
f 953 954 964
f 954 955 965
f 956 966 965
f 957 967 966
f 958 968 967
f 959 969 968
f 960 970 969
f 960 951 961
