# eclipse Planet2_OrbitLine.obj: Roblox cue frame, recentred on its bounding box
v -0.14851 0.00585 -0.00402
v -0.15440 0.00298 -0.00154
v -0.15408 -0.00276 0.00246
v -0.14787 -0.00563 0.00397
v -0.14199 -0.00276 0.00149
v -0.14231 0.00298 -0.00250
v -0.14724 0.01696 0.01185
v -0.15309 0.01431 0.01464
v -0.15277 0.00856 0.01862
v -0.14661 0.00546 0.01980
v -0.14076 0.00810 0.01701
v -0.14108 0.01386 0.01303
v -0.14345 0.02789 0.02745
v -0.14915 0.02567 0.03087
v -0.14884 0.01990 0.03481
v -0.14284 0.01634 0.03534
v -0.13714 0.01855 0.03193
v -0.13745 0.02433 0.02799
v -0.13720 0.03844 0.04252
v -0.14265 0.03665 0.04653
v -0.14236 0.03085 0.05045
v -0.13662 0.02684 0.05035
v -0.13117 0.02864 0.04634
v -0.13146 0.03443 0.04242
v -0.12861 0.04843 0.05679
v -0.13372 0.04704 0.06137
v -0.13345 0.04122 0.06525
v -0.12807 0.03680 0.06456
v -0.12296 0.03819 0.05998
v -0.12323 0.04401 0.05610
v -0.11781 0.05770 0.07002
v -0.12250 0.05667 0.07513
v -0.12225 0.05084 0.07898
v -0.11732 0.04602 0.07774
v -0.11264 0.04705 0.07264
v -0.11289 0.05288 0.06878
v -0.10500 0.06607 0.08199
v -0.10918 0.06538 0.08756
v -0.10896 0.05953 0.09140
v -0.10457 0.05437 0.08965
v -0.10040 0.05505 0.08408
v -0.10061 0.06091 0.08024
v -0.09040 0.07342 0.09248
v -0.09399 0.07302 0.09847
v -0.09381 0.06716 0.10228
v -0.09003 0.06168 0.10010
v -0.08643 0.06208 0.09411
v -0.08662 0.06794 0.09030
v -0.07424 0.07961 0.10131
v -0.07720 0.07946 0.10766
v -0.07705 0.07358 0.11146
v -0.07394 0.06785 0.10891
v -0.07099 0.06799 0.10257
v -0.07114 0.07387 0.09877
v -0.05682 0.08453 0.10835
v -0.05908 0.08459 0.11497
v -0.05897 0.07870 0.11876
v -0.05659 0.07276 0.11592
v -0.05433 0.07270 0.10930
v -0.05445 0.07859 0.10551
v -0.03843 0.08811 0.11346
v -0.03996 0.08831 0.12029
v -0.03988 0.08242 0.12407
v -0.03827 0.07633 0.12102
v -0.03674 0.07613 0.11419
v -0.03682 0.08202 0.11041
v -0.01938 0.09029 0.11656
v -0.02015 0.09057 0.12352
v -0.02011 0.08468 0.12729
v -0.01930 0.07849 0.12411
v -0.01853 0.07821 0.11716
v -0.01857 0.08410 0.11339
v 0.00001 0.09101 0.11760
v 0.00001 0.09133 0.12460
v 0.00001 0.08544 0.12837
v 0.00001 0.07922 0.12515
v 0.00001 0.07890 0.11816
v 0.00001 0.08480 0.11438
v 0.01939 0.09028 0.11656
v 0.02016 0.09058 0.12351
v 0.02012 0.08468 0.12729
v 0.01931 0.07850 0.12412
v 0.01854 0.07820 0.11716
v 0.01858 0.08410 0.11339
v 0.03844 0.08811 0.11345
v 0.03997 0.08832 0.12028
v 0.03989 0.08243 0.12407
v 0.03829 0.07633 0.12103
v 0.03676 0.07612 0.11420
v 0.03683 0.08201 0.11041
v 0.05683 0.08453 0.10834
v 0.05909 0.08459 0.11496
v 0.05898 0.07871 0.11876
v 0.05661 0.07277 0.11593
v 0.05435 0.07270 0.10931
v 0.05446 0.07858 0.10551
v 0.07425 0.07960 0.10130
v 0.07721 0.07947 0.10764
v 0.07707 0.07360 0.11145
v 0.07397 0.06786 0.10892
v 0.07101 0.06798 0.10258
v 0.07115 0.07385 0.09877
v 0.09039 0.07341 0.09246
v 0.09400 0.07304 0.09845
v 0.09383 0.06718 0.10228
v 0.09006 0.06169 0.10012
v 0.08645 0.06206 0.09413
v 0.08662 0.06792 0.09030
v 0.10500 0.06606 0.08197
v 0.10918 0.06540 0.08754
v 0.10899 0.05956 0.09139
v 0.10460 0.05438 0.08967
v 0.10042 0.05504 0.08410
v 0.10061 0.06088 0.08025
v 0.11780 0.05768 0.07001
v 0.12250 0.05669 0.07510
v 0.12228 0.05087 0.07898
v 0.11736 0.04603 0.07776
v 0.11267 0.04703 0.07266
v 0.11288 0.05285 0.06879
v 0.12859 0.04842 0.05678
v 0.13372 0.04706 0.06134
v 0.13348 0.04126 0.06524
v 0.12812 0.03681 0.06458
v 0.12299 0.03817 0.06001
v 0.12322 0.04397 0.05611
v 0.13717 0.03843 0.04251
v 0.14265 0.03668 0.04650
v 0.14240 0.03089 0.05043
v 0.13668 0.02685 0.05036
v 0.13120 0.02861 0.04637
v 0.13145 0.03440 0.04244
v 0.14341 0.02788 0.02744
v 0.14914 0.02571 0.03084
v 0.14888 0.01994 0.03479
v 0.14290 0.01634 0.03535
v 0.13718 0.01852 0.03196
v 0.13743 0.02429 0.02800
v 0.14720 0.01696 0.01184
v 0.15308 0.01435 0.01461
v 0.15281 0.00860 0.01859
v 0.14668 0.00546 0.01981
v 0.14080 0.00807 0.01704
v 0.14106 0.01382 0.01305
v 0.14847 0.00584 -0.00403
v 0.15440 0.00279 -0.00190
v 0.15413 -0.00294 0.00211
v 0.14794 -0.00562 0.00399
v 0.14202 -0.00257 0.00185
v 0.14228 0.00316 -0.00216
v 0.14720 -0.00527 -0.01991
v 0.15307 -0.00877 -0.01841
v 0.15282 -0.01448 -0.01437
v 0.14668 -0.01669 -0.01183
v 0.14080 -0.01320 -0.01333
v 0.14106 -0.00749 -0.01737
v 0.14341 -0.01620 -0.03551
v 0.14913 -0.02012 -0.03463
v 0.14888 -0.02582 -0.03057
v 0.14291 -0.02758 -0.02738
v 0.13718 -0.02365 -0.02825
v 0.13743 -0.01796 -0.03232
v 0.13716 -0.02674 -0.05057
v 0.14264 -0.03109 -0.05030
v 0.14240 -0.03677 -0.04620
v 0.13669 -0.03809 -0.04239
v 0.13121 -0.03374 -0.04266
v 0.13145 -0.02807 -0.04675
v 0.12857 -0.03673 -0.06484
v 0.13371 -0.04148 -0.06513
v 0.13349 -0.04714 -0.06102
v 0.12813 -0.04805 -0.05660
v 0.12300 -0.04330 -0.05631
v 0.12321 -0.03764 -0.06042
v 0.11778 -0.04599 -0.07806
v 0.12249 -0.05111 -0.07889
v 0.12229 -0.05675 -0.07475
v 0.11738 -0.05728 -0.06979
v 0.11268 -0.05216 -0.06896
v 0.11288 -0.04652 -0.07310
v 0.10498 -0.05437 -0.09002
v 0.10917 -0.05981 -0.09133
v 0.10900 -0.06544 -0.08717
v 0.10462 -0.06562 -0.08171
v 0.10043 -0.06018 -0.08040
v 0.10060 -0.05455 -0.08456
v 0.09038 -0.06171 -0.10051
v 0.09399 -0.06745 -0.10223
v 0.09384 -0.07307 -0.09806
v 0.09007 -0.07294 -0.09216
v 0.08646 -0.06720 -0.09043
v 0.08661 -0.06158 -0.09461
v 0.07423 -0.06789 -0.10934
v 0.07720 -0.07388 -0.11143
v 0.07707 -0.07949 -0.10724
v 0.07398 -0.07911 -0.10097
v 0.07102 -0.07312 -0.09889
v 0.07114 -0.06752 -0.10307
v 0.05681 -0.07282 -0.11638
v 0.05909 -0.07900 -0.11874
v 0.05899 -0.08460 -0.11455
v 0.05663 -0.08402 -0.10798
v 0.05436 -0.07784 -0.10562
v 0.05445 -0.07224 -0.10981
v 0.03843 -0.07640 -0.12149
v 0.03996 -0.08272 -0.12406
v 0.03990 -0.08832 -0.11986
v 0.03830 -0.08759 -0.11308
v 0.03676 -0.08127 -0.11051
v 0.03683 -0.07567 -0.11471
v 0.01938 -0.07857 -0.12459
v 0.02016 -0.08498 -0.12729
v 0.02013 -0.09058 -0.12308
v 0.01932 -0.08976 -0.11617
v 0.01854 -0.08335 -0.11348
v 0.01858 -0.07775 -0.11768
v 0.00001 -0.07930 -0.12563
v 0.00001 -0.08574 -0.12837
v 0.00001 -0.09133 -0.12416
v 0.00001 -0.09049 -0.11721
v 0.00001 -0.08405 -0.11447
v 0.00001 -0.07845 -0.11868
v -0.01937 -0.07857 -0.12458
v -0.02014 -0.08498 -0.12729
v -0.02011 -0.09058 -0.12308
v -0.01931 -0.08976 -0.11618
v -0.01853 -0.08335 -0.11348
v -0.01856 -0.07775 -0.11768
v -0.03841 -0.07639 -0.12148
v -0.03995 -0.08272 -0.12406
v -0.03989 -0.08832 -0.11986
v -0.03829 -0.08760 -0.11309
v -0.03675 -0.08127 -0.11051
v -0.03681 -0.07567 -0.11470
v -0.05680 -0.07281 -0.11637
v -0.05907 -0.07899 -0.11874
v -0.05898 -0.08460 -0.11456
v -0.05662 -0.08403 -0.10799
v -0.05434 -0.07785 -0.10561
v -0.05443 -0.07224 -0.10980
v -0.07421 -0.06789 -0.10933
v -0.07718 -0.07387 -0.11143
v -0.07707 -0.07948 -0.10725
v -0.07398 -0.07912 -0.10098
v -0.07101 -0.07314 -0.09888
v -0.07112 -0.06752 -0.10306
v -0.09035 -0.06170 -0.10049
v -0.09397 -0.06743 -0.10224
v -0.09383 -0.07306 -0.09808
v -0.09007 -0.07295 -0.09217
v -0.08645 -0.06722 -0.09043
v -0.08659 -0.06159 -0.09459
v -0.10495 -0.05435 -0.09001
v -0.10915 -0.05979 -0.09133
v -0.10899 -0.06543 -0.08719
v -0.10463 -0.06563 -0.08172
v -0.10042 -0.06020 -0.08039
v -0.10058 -0.05456 -0.08454
v -0.11775 -0.04598 -0.07805
v -0.12246 -0.05108 -0.07890
v -0.12229 -0.05674 -0.07477
v -0.11739 -0.05729 -0.06980
v -0.11267 -0.05219 -0.06895
v -0.11285 -0.04653 -0.07308
v -0.12853 -0.03672 -0.06482
v -0.13368 -0.04145 -0.06514
v -0.13349 -0.04712 -0.06104
v -0.12815 -0.04806 -0.05662
v -0.12300 -0.04333 -0.05630
v -0.12319 -0.03766 -0.06040
v -0.13711 -0.02673 -0.05056
v -0.14261 -0.03106 -0.05031
v -0.14241 -0.03674 -0.04623
v -0.13671 -0.03810 -0.04240
v -0.13121 -0.03377 -0.04265
v -0.13142 -0.02809 -0.04673
v -0.14335 -0.01619 -0.03550
v -0.14910 -0.02009 -0.03465
v -0.14889 -0.02579 -0.03059
v -0.14293 -0.02759 -0.02738
v -0.13719 -0.02368 -0.02824
v -0.13740 -0.01799 -0.03229
v -0.14714 -0.00527 -0.01990
v -0.15304 -0.00873 -0.01843
v -0.15283 -0.01445 -0.01439
v -0.14671 -0.01670 -0.01183
v -0.14081 -0.01323 -0.01331
v -0.14102 -0.00752 -0.01734
v -0.14841 0.00584 -0.00405
v -0.15435 0.00259 -0.00225
v -0.15413 -0.00313 0.00177
v -0.14798 -0.00561 0.00400
v -0.14204 -0.00237 0.00221
v -0.14225 0.00335 -0.00182
f 2 7 1
f 2 9 8
f 3 10 9
f 4 11 10
f 6 11 5
f 1 12 6
f 7 14 13
f 8 15 14
f 9 16 15
f 10 17 16
f 11 18 17
f 12 13 18
f 13 20 19
f 14 21 20
f 15 22 21
f 16 23 22
f 17 24 23
f 18 19 24
f 19 26 25
f 20 27 26
f 21 28 27
f 22 29 28
f 23 30 29
f 24 25 30
f 25 32 31
f 26 33 32
f 27 34 33
f 28 35 34
f 29 36 35
f 30 31 36
f 31 38 37
f 32 39 38
f 33 40 39
f 34 41 40
f 35 42 41
f 36 37 42
f 37 44 43
f 38 45 44
f 39 46 45
f 40 47 46
f 41 48 47
f 42 43 48
f 43 50 49
f 44 51 50
f 45 52 51
f 46 53 52
f 47 54 53
f 48 49 54
f 49 56 55
f 50 57 56
f 51 58 57
f 52 59 58
f 53 60 59
f 54 55 60
f 55 62 61
f 56 63 62
f 57 64 63
f 58 65 64
f 59 66 65
f 60 61 66
f 61 68 67
f 62 69 68
f 63 70 69
f 64 71 70
f 65 72 71
f 66 67 72
f 67 74 73
f 68 75 74
f 69 76 75
f 70 77 76
f 71 78 77
f 72 73 78
f 73 80 79
f 74 81 80
f 75 82 81
f 76 83 82
f 77 84 83
f 78 79 84
f 79 86 85
f 80 87 86
f 81 88 87
f 82 89 88
f 83 90 89
f 84 85 90
f 85 92 91
f 86 93 92
f 87 94 93
f 88 95 94
f 89 96 95
f 90 91 96
f 91 98 97
f 92 99 98
f 93 100 99
f 94 101 100
f 95 102 101
f 96 97 102
f 97 104 103
f 98 105 104
f 99 106 105
f 100 107 106
f 101 108 107
f 102 103 108
f 103 110 109
f 104 111 110
f 105 112 111
f 106 113 112
f 107 114 113
f 108 109 114
f 109 116 115
f 110 117 116
f 111 118 117
f 112 119 118
f 113 120 119
f 114 115 120
f 115 122 121
f 116 123 122
f 117 124 123
f 118 125 124
f 119 126 125
f 120 121 126
f 121 128 127
f 122 129 128
f 123 130 129
f 124 131 130
f 125 132 131
f 126 127 132
f 127 134 133
f 128 135 134
f 129 136 135
f 130 137 136
f 131 138 137
f 132 133 138
f 133 140 139
f 134 141 140
f 135 142 141
f 136 143 142
f 137 144 143
f 138 139 144
f 139 146 145
f 140 147 146
f 141 148 147
f 142 149 148
f 143 150 149
f 144 145 150
f 145 152 151
f 146 153 152
f 147 154 153
f 148 155 154
f 149 156 155
f 150 151 156
f 151 158 157
f 152 159 158
f 153 160 159
f 154 161 160
f 155 162 161
f 156 157 162
f 157 164 163
f 158 165 164
f 159 166 165
f 160 167 166
f 161 168 167
f 162 163 168
f 163 170 169
f 164 171 170
f 165 172 171
f 166 173 172
f 167 174 173
f 168 169 174
f 169 176 175
f 170 177 176
f 171 178 177
f 172 179 178
f 173 180 179
f 174 175 180
f 175 182 181
f 176 183 182
f 177 184 183
f 178 185 184
f 179 186 185
f 180 181 186
f 181 188 187
f 182 189 188
f 183 190 189
f 184 191 190
f 185 192 191
f 186 187 192
f 187 194 193
f 188 195 194
f 189 196 195
f 190 197 196
f 191 198 197
f 192 193 198
f 193 200 199
f 194 201 200
f 195 202 201
f 196 203 202
f 197 204 203
f 198 199 204
f 199 206 205
f 200 207 206
f 201 208 207
f 202 209 208
f 203 210 209
f 204 205 210
f 205 212 211
f 206 213 212
f 207 214 213
f 208 215 214
f 209 216 215
f 210 211 216
f 211 218 217
f 212 219 218
f 213 220 219
f 214 221 220
f 215 222 221
f 216 217 222
f 217 224 223
f 218 225 224
f 219 226 225
f 220 227 226
f 221 228 227
f 222 223 228
f 223 230 229
f 224 231 230
f 225 232 231
f 226 233 232
f 227 234 233
f 228 229 234
f 229 236 235
f 230 237 236
f 231 238 237
f 232 239 238
f 233 240 239
f 234 235 240
f 235 242 241
f 236 243 242
f 237 244 243
f 238 245 244
f 239 246 245
f 240 241 246
f 241 248 247
f 242 249 248
f 243 250 249
f 244 251 250
f 245 252 251
f 246 247 252
f 247 254 253
f 248 255 254
f 249 256 255
f 250 257 256
f 251 258 257
f 252 253 258
f 253 260 259
f 254 261 260
f 255 262 261
f 256 263 262
f 257 264 263
f 258 259 264
f 259 266 265
f 260 267 266
f 261 268 267
f 262 269 268
f 263 270 269
f 264 265 270
f 265 272 271
f 266 273 272
f 267 274 273
f 268 275 274
f 269 276 275
f 270 271 276
f 271 278 277
f 272 279 278
f 273 280 279
f 274 281 280
f 275 282 281
f 276 277 282
f 277 284 283
f 278 285 284
f 279 286 285
f 280 287 286
f 281 288 287
f 282 283 288
f 283 290 289
f 285 290 284
f 286 291 285
f 287 292 286
f 287 294 293
f 288 289 294
f 2 8 7
f 2 3 9
f 3 4 10
f 4 5 11
f 6 12 11
f 1 7 12
f 7 8 14
f 8 9 15
f 9 10 16
f 10 11 17
f 11 12 18
f 12 7 13
f 13 14 20
f 14 15 21
f 15 16 22
f 16 17 23
f 17 18 24
f 18 13 19
f 19 20 26
f 20 21 27
f 21 22 28
f 22 23 29
f 23 24 30
f 24 19 25
f 25 26 32
f 26 27 33
f 27 28 34
f 28 29 35
f 29 30 36
f 30 25 31
f 31 32 38
f 32 33 39
f 33 34 40
f 34 35 41
f 35 36 42
f 36 31 37
f 37 38 44
f 38 39 45
f 39 40 46
f 40 41 47
f 41 42 48
f 42 37 43
f 43 44 50
f 44 45 51
f 45 46 52
f 46 47 53
f 47 48 54
f 48 43 49
f 49 50 56
f 50 51 57
f 51 52 58
f 52 53 59
f 53 54 60
f 54 49 55
f 55 56 62
f 56 57 63
f 57 58 64
f 58 59 65
f 59 60 66
f 60 55 61
f 61 62 68
f 62 63 69
f 63 64 70
f 64 65 71
f 65 66 72
f 66 61 67
f 67 68 74
f 68 69 75
f 69 70 76
f 70 71 77
f 71 72 78
f 72 67 73
f 73 74 80
f 74 75 81
f 75 76 82
f 76 77 83
f 77 78 84
f 78 73 79
f 79 80 86
f 80 81 87
f 81 82 88
f 82 83 89
f 83 84 90
f 84 79 85
f 85 86 92
f 86 87 93
f 87 88 94
f 88 89 95
f 89 90 96
f 90 85 91
f 91 92 98
f 92 93 99
f 93 94 100
f 94 95 101
f 95 96 102
f 96 91 97
f 97 98 104
f 98 99 105
f 99 100 106
f 100 101 107
f 101 102 108
f 102 97 103
f 103 104 110
f 104 105 111
f 105 106 112
f 106 107 113
f 107 108 114
f 108 103 109
f 109 110 116
f 110 111 117
f 111 112 118
f 112 113 119
f 113 114 120
f 114 109 115
f 115 116 122
f 116 117 123
f 117 118 124
f 118 119 125
f 119 120 126
f 120 115 121
f 121 122 128
f 122 123 129
f 123 124 130
f 124 125 131
f 125 126 132
f 126 121 127
f 127 128 134
f 128 129 135
f 129 130 136
f 130 131 137
f 131 132 138
f 132 127 133
f 133 134 140
f 134 135 141
f 135 136 142
f 136 137 143
f 137 138 144
f 138 133 139
f 139 140 146
f 140 141 147
f 141 142 148
f 142 143 149
f 143 144 150
f 144 139 145
f 145 146 152
f 146 147 153
f 147 148 154
f 148 149 155
f 149 150 156
f 150 145 151
f 151 152 158
f 152 153 159
f 153 154 160
f 154 155 161
f 155 156 162
f 156 151 157
f 157 158 164
f 158 159 165
f 159 160 166
f 160 161 167
f 161 162 168
f 162 157 163
f 163 164 170
f 164 165 171
f 165 166 172
f 166 167 173
f 167 168 174
f 168 163 169
f 169 170 176
f 170 171 177
f 171 172 178
f 172 173 179
f 173 174 180
f 174 169 175
f 175 176 182
f 176 177 183
f 177 178 184
f 178 179 185
f 179 180 186
f 180 175 181
f 181 182 188
f 182 183 189
f 183 184 190
f 184 185 191
f 185 186 192
f 186 181 187
f 187 188 194
f 188 189 195
f 189 190 196
f 190 191 197
f 191 192 198
f 192 187 193
f 193 194 200
f 194 195 201
f 195 196 202
f 196 197 203
f 197 198 204
f 198 193 199
f 199 200 206
f 200 201 207
f 201 202 208
f 202 203 209
f 203 204 210
f 204 199 205
f 205 206 212
f 206 207 213
f 207 208 214
f 208 209 215
f 209 210 216
f 210 205 211
f 211 212 218
f 212 213 219
f 213 214 220
f 214 215 221
f 215 216 222
f 216 211 217
f 217 218 224
f 218 219 225
f 219 220 226
f 220 221 227
f 221 222 228
f 222 217 223
f 223 224 230
f 224 225 231
f 225 226 232
f 226 227 233
f 227 228 234
f 228 223 229
f 229 230 236
f 230 231 237
f 231 232 238
f 232 233 239
f 233 234 240
f 234 229 235
f 235 236 242
f 236 237 243
f 237 238 244
f 238 239 245
f 239 240 246
f 240 235 241
f 241 242 248
f 242 243 249
f 243 244 250
f 244 245 251
f 245 246 252
f 246 241 247
f 247 248 254
f 248 249 255
f 249 250 256
f 250 251 257
f 251 252 258
f 252 247 253
f 253 254 260
f 254 255 261
f 255 256 262
f 256 257 263
f 257 258 264
f 258 253 259
f 259 260 266
f 260 261 267
f 261 262 268
f 262 263 269
f 263 264 270
f 264 259 265
f 265 266 272
f 266 267 273
f 267 268 274
f 268 269 275
f 269 270 276
f 270 265 271
f 271 272 278
f 272 273 279
f 273 274 280
f 274 275 281
f 275 276 282
f 276 271 277
f 277 278 284
f 278 279 285
f 279 280 286
f 280 281 287
f 281 282 288
f 282 277 283
f 283 284 290
f 285 291 290
f 286 292 291
f 287 293 292
f 287 288 294
f 288 283 289
