# eclipse Planet2_Planet2.obj: Roblox cue frame, recentred on its bounding box
v -0.00000 0.07800 0.00000
v -0.00000 0.06755 0.03900
v -0.00000 0.05515 0.05515
v -0.00000 0.00000 0.07800
v -0.00000 -0.05515 0.05515
v -0.00000 -0.06755 0.03900
v -0.00000 -0.07534 0.02019
v -0.00000 -0.07800 0.00000
v -0.00624 0.07534 0.01920
v -0.01205 0.06755 0.03709
v -0.01704 0.05515 0.05245
v -0.02087 0.03900 0.06424
v -0.02328 0.02019 0.07165
v -0.02410 0.00000 0.07418
v -0.02328 -0.02019 0.07165
v -0.02087 -0.03900 0.06424
v -0.01704 -0.05515 0.05245
v -0.01205 -0.06755 0.03709
v -0.00624 -0.07534 0.01920
v -0.01187 0.07534 0.01633
v -0.02292 0.06755 0.03155
v -0.03242 0.05515 0.04462
v -0.03970 0.03900 0.05465
v -0.04429 0.02019 0.06095
v -0.04585 0.00000 0.06310
v -0.04429 -0.02019 0.06095
v -0.03970 -0.03900 0.05465
v -0.03242 -0.05515 0.04462
v -0.02292 -0.06755 0.03155
v -0.01187 -0.07534 0.01633
v -0.01633 0.07534 0.01187
v -0.03155 0.06755 0.02292
v -0.04462 0.05515 0.03242
v -0.05465 0.03900 0.03970
v -0.06095 0.02019 0.04429
v -0.06310 0.00000 0.04585
v -0.06095 -0.02019 0.04429
v -0.05465 -0.03900 0.03970
v -0.04462 -0.05515 0.03242
v -0.03155 -0.06755 0.02292
v -0.01633 -0.07534 0.01187
v -0.01920 0.07534 0.00624
v -0.03709 0.06755 0.01205
v -0.05245 0.05515 0.01704
v -0.06424 0.03900 0.02087
v -0.07165 0.02019 0.02328
v -0.07418 0.00000 0.02410
v -0.07165 -0.02019 0.02328
v -0.06424 -0.03900 0.02087
v -0.05245 -0.05515 0.01704
v -0.03709 -0.06755 0.01205
v -0.01920 -0.07534 0.00624
v -0.02019 0.07534 0.00000
v -0.03900 0.06755 0.00000
v -0.05515 0.05515 0.00000
v -0.06755 0.03900 0.00000
v -0.07534 0.02019 0.00000
v -0.07800 0.00000 0.00000
v -0.07534 -0.02019 0.00000
v -0.06755 -0.03900 0.00000
v -0.05515 -0.05515 0.00000
v -0.03900 -0.06755 0.00000
v -0.02019 -0.07534 0.00000
v -0.01920 0.07534 -0.00624
v -0.03709 0.06755 -0.01205
v -0.05245 0.05515 -0.01704
v -0.06424 0.03900 -0.02087
v -0.07165 0.02019 -0.02328
v -0.07418 0.00000 -0.02410
v -0.07165 -0.02019 -0.02328
v -0.06424 -0.03900 -0.02087
v -0.05245 -0.05515 -0.01704
v -0.03709 -0.06755 -0.01205
v -0.01920 -0.07534 -0.00624
v -0.01633 0.07534 -0.01187
v -0.03155 0.06755 -0.02292
v -0.04462 0.05515 -0.03242
v -0.05465 0.03900 -0.03970
v -0.06095 0.02019 -0.04429
v -0.06310 0.00000 -0.04585
v -0.06095 -0.02019 -0.04429
v -0.05465 -0.03900 -0.03970
v -0.04462 -0.05515 -0.03242
v -0.03155 -0.06755 -0.02292
v -0.01633 -0.07534 -0.01187
v -0.01187 0.07534 -0.01633
v -0.02292 0.06755 -0.03155
v -0.03242 0.05515 -0.04462
v -0.03970 0.03900 -0.05465
v -0.04429 0.02019 -0.06095
v -0.04585 0.00000 -0.06310
v -0.04429 -0.02019 -0.06095
v -0.03970 -0.03900 -0.05465
v -0.03242 -0.05515 -0.04462
v -0.02292 -0.06755 -0.03155
v -0.01187 -0.07534 -0.01633
v -0.00624 0.07534 -0.01920
v -0.01205 0.06755 -0.03709
v -0.01704 0.05515 -0.05245
v -0.02087 0.03900 -0.06424
v -0.02328 0.02019 -0.07165
v -0.02410 0.00000 -0.07418
v -0.02328 -0.02019 -0.07165
v -0.02087 -0.03900 -0.06424
v -0.01704 -0.05515 -0.05245
v -0.01205 -0.06755 -0.03709
v -0.00624 -0.07534 -0.01920
v -0.00000 0.07534 -0.02019
v -0.00000 0.06755 -0.03900
v -0.00000 0.05515 -0.05515
v -0.00000 0.03900 -0.06755
v -0.00000 0.02019 -0.07534
v -0.00000 0.00000 -0.07800
v -0.00000 -0.02019 -0.07534
v -0.00000 -0.03900 -0.06755
v -0.00000 -0.05515 -0.05515
v -0.00000 -0.06755 -0.03900
v -0.00000 -0.07534 -0.02019
v 0.00624 0.07534 -0.01920
v 0.01205 0.06755 -0.03709
v 0.01704 0.05515 -0.05245
v 0.02087 0.03900 -0.06424
v 0.02328 0.02019 -0.07165
v 0.02410 0.00000 -0.07418
v 0.02328 -0.02019 -0.07165
v 0.02087 -0.03900 -0.06424
v 0.01704 -0.05515 -0.05245
v 0.01205 -0.06755 -0.03709
v 0.00624 -0.07534 -0.01920
v 0.01187 0.07534 -0.01633
v 0.02292 0.06755 -0.03155
v 0.03242 0.05515 -0.04462
v 0.03970 0.03900 -0.05465
v 0.04429 0.02019 -0.06095
v 0.04585 0.00000 -0.06310
v 0.04429 -0.02019 -0.06095
v 0.03970 -0.03900 -0.05465
v 0.03242 -0.05515 -0.04462
v 0.02292 -0.06755 -0.03155
v 0.01187 -0.07534 -0.01633
v 0.01633 0.07534 -0.01187
v 0.03155 0.06755 -0.02292
v 0.04462 0.05515 -0.03242
v 0.05465 0.03900 -0.03970
v 0.06095 0.02019 -0.04429
v 0.06310 0.00000 -0.04585
v 0.06095 -0.02019 -0.04429
v 0.05465 -0.03900 -0.03970
v 0.04462 -0.05515 -0.03242
v 0.03155 -0.06755 -0.02292
v 0.01633 -0.07534 -0.01187
v 0.01920 0.07534 -0.00624
v 0.03709 0.06755 -0.01205
v 0.05245 0.05515 -0.01704
v 0.06424 0.03900 -0.02087
v 0.07165 0.02019 -0.02328
v 0.07418 0.00000 -0.02410
v 0.07165 -0.02019 -0.02328
v 0.06424 -0.03900 -0.02087
v 0.05245 -0.05515 -0.01704
v 0.03709 -0.06755 -0.01205
v 0.01920 -0.07534 -0.00624
v 0.02019 0.07534 0.00000
v 0.03900 0.06755 0.00000
v 0.05515 0.05515 0.00000
v 0.06755 0.03900 0.00000
v 0.07534 0.02019 0.00000
v 0.07800 0.00000 0.00000
v 0.07534 -0.02019 0.00000
v 0.06755 -0.03900 0.00000
v 0.05515 -0.05515 0.00000
v 0.03900 -0.06755 0.00000
v 0.02019 -0.07534 0.00000
v 0.01920 0.07534 0.00624
v 0.03709 0.06755 0.01205
v 0.05245 0.05515 0.01704
v 0.06424 0.03900 0.02087
v 0.07165 0.02019 0.02328
v 0.07418 0.00000 0.02410
v 0.07165 -0.02019 0.02328
v 0.06424 -0.03900 0.02087
v 0.05245 -0.05515 0.01704
v 0.03709 -0.06755 0.01205
v 0.01920 -0.07534 0.00624
v 0.01633 0.07534 0.01187
v 0.03155 0.06755 0.02292
v 0.04462 0.05515 0.03242
v 0.05465 0.03900 0.03970
v 0.06095 0.02019 0.04429
v 0.06310 0.00000 0.04585
v 0.06095 -0.02019 0.04429
v 0.05465 -0.03900 0.03970
v 0.04462 -0.05515 0.03242
v 0.03155 -0.06755 0.02292
v 0.01633 -0.07534 0.01187
v 0.01187 0.07534 0.01633
v 0.02292 0.06755 0.03155
v 0.03242 0.05515 0.04462
v 0.03970 0.03900 0.05465
v 0.04429 0.02019 0.06095
v 0.04585 0.00000 0.06310
v 0.04429 -0.02019 0.06095
v 0.03970 -0.03900 0.05465
v 0.03242 -0.05515 0.04462
v 0.02292 -0.06755 0.03155
v 0.01187 -0.07534 0.01633
v 0.00624 0.07534 0.01920
v 0.01205 0.06755 0.03709
v 0.01704 0.05515 0.05245
v 0.02087 0.03900 0.06424
v 0.02328 0.02019 0.07165
v 0.02410 0.00000 0.07418
v 0.02328 -0.02019 0.07165
v 0.02087 -0.03900 0.06424
v 0.01704 -0.05515 0.05245
v 0.01205 -0.06755 0.03709
v 0.00624 -0.07534 0.01920
v -0.00000 0.07534 0.02019
v -0.00000 0.03900 0.06755
v -0.00000 0.02019 0.07534
v -0.00000 -0.02019 0.07534
v -0.00000 -0.03900 0.06755
f 218 1 9
f 221 16 222
f 220 12 13
f 8 7 19
f 218 10 2
f 222 17 5
f 220 14 4
f 2 11 3
f 5 18 6
f 221 14 15
f 219 11 12
f 7 18 19
f 13 25 14
f 10 22 11
f 18 28 29
f 14 26 15
f 11 23 12
f 19 29 30
f 9 1 20
f 16 26 27
f 12 24 13
f 8 19 30
f 9 21 10
f 16 28 17
f 23 35 24
f 8 30 41
f 21 31 32
f 27 39 28
f 24 36 25
f 21 33 22
f 28 40 29
f 26 36 37
f 23 33 34
f 30 40 41
f 20 1 31
f 27 37 38
f 36 48 37
f 34 44 45
f 40 52 41
f 31 1 42
f 37 49 38
f 34 46 35
f 8 41 52
f 32 42 43
f 38 50 39
f 36 46 47
f 32 44 33
f 39 51 40
f 46 58 47
f 43 55 44
f 50 62 51
f 48 58 59
f 44 56 45
f 51 63 52
f 42 1 53
f 48 60 49
f 46 56 57
f 8 52 63
f 43 53 54
f 50 60 61
f 59 71 60
f 57 67 68
f 8 63 74
f 53 65 54
f 60 72 61
f 58 68 69
f 54 66 55
f 62 72 73
f 58 70 59
f 55 67 56
f 63 73 74
f 53 1 64
f 70 80 81
f 67 77 78
f 73 85 74
f 64 1 75
f 71 81 82
f 68 78 79
f 8 74 85
f 65 75 76
f 71 83 72
f 68 80 69
f 66 76 77
f 72 84 73
f 83 93 94
f 79 91 80
f 76 88 77
f 84 94 95
f 80 92 81
f 77 89 78
f 84 96 85
f 75 1 86
f 82 92 93
f 78 90 79
f 8 85 96
f 76 86 87
f 86 1 97
f 92 104 93
f 89 101 90
f 8 96 107
f 87 97 98
f 93 105 94
f 91 101 102
f 87 99 88
f 94 106 95
f 91 103 92
f 89 99 100
f 95 107 96
f 106 116 117
f 102 114 103
f 99 111 100
f 106 118 107
f 97 1 108
f 103 115 104
f 100 112 101
f 8 107 118
f 97 109 98
f 105 115 116
f 101 113 102
f 99 109 110
f 109 119 120
f 115 127 116
f 112 124 113
f 110 120 121
f 117 127 128
f 114 124 125
f 111 121 122
f 117 129 118
f 108 1 119
f 115 125 126
f 111 123 112
f 8 118 129
f 129 139 140
f 119 1 130
f 126 136 137
f 122 134 123
f 8 129 140
f 120 130 131
f 127 137 138
f 123 135 124
f 121 131 132
f 128 138 139
f 125 135 136
f 121 133 122
f 132 142 143
f 138 150 139
f 135 147 136
f 133 143 144
f 139 151 140
f 130 1 141
f 136 148 137
f 133 145 134
f 8 140 151
f 131 141 142
f 138 148 149
f 135 145 146
f 8 151 162
f 142 152 153
f 148 160 149
f 145 157 146
f 142 154 143
f 150 160 161
f 146 158 147
f 143 155 144
f 150 162 151
f 141 1 152
f 147 159 148
f 145 155 156
f 155 165 166
f 161 173 162
f 152 1 163
f 159 169 170
f 155 167 156
f 8 162 173
f 153 163 164
f 159 171 160
f 156 168 157
f 153 165 154
f 161 171 172
f 158 168 169
f 165 175 176
f 172 182 183
f 168 180 169
f 165 177 166
f 173 183 184
f 163 1 174
f 169 181 170
f 167 177 178
f 8 173 184
f 163 175 164
f 171 181 182
f 168 178 179
f 177 189 178
f 8 184 195
f 175 185 186
f 181 193 182
f 179 189 190
f 176 186 187
f 183 193 194
f 179 191 180
f 177 187 188
f 183 195 184
f 174 1 185
f 181 191 192
f 187 199 188
f 195 205 206
f 185 1 196
f 191 203 192
f 189 199 200
f 8 195 206
f 185 197 186
f 193 203 204
f 190 200 201
f 186 198 187
f 194 204 205
f 190 202 191
f 200 212 201
f 198 208 209
f 204 216 205
f 202 212 213
f 198 210 199
f 205 217 206
f 196 1 207
f 202 214 203
f 199 211 200
f 8 206 217
f 196 208 197
f 203 215 204
f 211 219 220
f 8 217 7
f 207 2 208
f 215 222 5
f 212 220 4
f 208 3 209
f 215 6 216
f 212 221 213
f 209 219 210
f 217 6 7
f 207 1 218
f 213 222 214
f 221 15 16
f 220 219 12
f 218 9 10
f 222 16 17
f 220 13 14
f 2 10 11
f 5 17 18
f 221 4 14
f 219 3 11
f 7 6 18
f 13 24 25
f 10 21 22
f 18 17 28
f 14 25 26
f 11 22 23
f 19 18 29
f 16 15 26
f 12 23 24
f 9 20 21
f 16 27 28
f 23 34 35
f 21 20 31
f 27 38 39
f 24 35 36
f 21 32 33
f 28 39 40
f 26 25 36
f 23 22 33
f 30 29 40
f 27 26 37
f 36 47 48
f 34 33 44
f 40 51 52
f 37 48 49
f 34 45 46
f 32 31 42
f 38 49 50
f 36 35 46
f 32 43 44
f 39 50 51
f 46 57 58
f 43 54 55
f 50 61 62
f 48 47 58
f 44 55 56
f 51 62 63
f 48 59 60
f 46 45 56
f 43 42 53
f 50 49 60
f 59 70 71
f 57 56 67
f 53 64 65
f 60 71 72
f 58 57 68
f 54 65 66
f 62 61 72
f 58 69 70
f 55 66 67
f 63 62 73
f 70 69 80
f 67 66 77
f 73 84 85
f 71 70 81
f 68 67 78
f 65 64 75
f 71 82 83
f 68 79 80
f 66 65 76
f 72 83 84
f 83 82 93
f 79 90 91
f 76 87 88
f 84 83 94
f 80 91 92
f 77 88 89
f 84 95 96
f 82 81 92
f 78 89 90
f 76 75 86
f 92 103 104
f 89 100 101
f 87 86 97
f 93 104 105
f 91 90 101
f 87 98 99
f 94 105 106
f 91 102 103
f 89 88 99
f 95 106 107
f 106 105 116
f 102 113 114
f 99 110 111
f 106 117 118
f 103 114 115
f 100 111 112
f 97 108 109
f 105 104 115
f 101 112 113
f 99 98 109
f 109 108 119
f 115 126 127
f 112 123 124
f 110 109 120
f 117 116 127
f 114 113 124
f 111 110 121
f 117 128 129
f 115 114 125
f 111 122 123
f 129 128 139
f 126 125 136
f 122 133 134
f 120 119 130
f 127 126 137
f 123 134 135
f 121 120 131
f 128 127 138
f 125 124 135
f 121 132 133
f 132 131 142
f 138 149 150
f 135 146 147
f 133 132 143
f 139 150 151
f 136 147 148
f 133 144 145
f 131 130 141
f 138 137 148
f 135 134 145
f 142 141 152
f 148 159 160
f 145 156 157
f 142 153 154
f 150 149 160
f 146 157 158
f 143 154 155
f 150 161 162
f 147 158 159
f 145 144 155
f 155 154 165
f 161 172 173
f 159 158 169
f 155 166 167
f 153 152 163
f 159 170 171
f 156 167 168
f 153 164 165
f 161 160 171
f 158 157 168
f 165 164 175
f 172 171 182
f 168 179 180
f 165 176 177
f 173 172 183
f 169 180 181
f 167 166 177
f 163 174 175
f 171 170 181
f 168 167 178
f 177 188 189
f 175 174 185
f 181 192 193
f 179 178 189
f 176 175 186
f 183 182 193
f 179 190 191
f 177 176 187
f 183 194 195
f 181 180 191
f 187 198 199
f 195 194 205
f 191 202 203
f 189 188 199
f 185 196 197
f 193 192 203
f 190 189 200
f 186 197 198
f 194 193 204
f 190 201 202
f 200 211 212
f 198 197 208
f 204 215 216
f 202 201 212
f 198 209 210
f 205 216 217
f 202 213 214
f 199 210 211
f 196 207 208
f 203 214 215
f 211 210 219
f 207 218 2
f 215 214 222
f 212 211 220
f 208 2 3
f 215 5 6
f 212 4 221
f 209 3 219
f 217 216 6
f 213 221 222
