# eclipse Planet3_Planet3.obj: Roblox cue frame, recentred on its bounding box
v -0.00000 0.05600 0.00000
v -0.00000 0.02800 0.04850
v -0.00000 0.01449 0.05409
v -0.00000 -0.01449 0.05409
v -0.00000 -0.02800 0.04850
v -0.00000 -0.05600 0.00000
v -0.00448 0.05409 0.01378
v -0.00865 0.04850 0.02663
v -0.01224 0.03960 0.03766
v -0.01499 0.02800 0.04612
v -0.01672 0.01449 0.05144
v -0.01730 0.00000 0.05326
v -0.01672 -0.01449 0.05144
v -0.01499 -0.02800 0.04612
v -0.01224 -0.03960 0.03766
v -0.00865 -0.04850 0.02663
v -0.00448 -0.05409 0.01378
v -0.00852 0.05409 0.01173
v -0.01646 0.04850 0.02265
v -0.02328 0.03960 0.03204
v -0.02851 0.02800 0.03924
v -0.03179 0.01449 0.04376
v -0.03292 0.00000 0.04530
v -0.03179 -0.01449 0.04376
v -0.02851 -0.02800 0.03924
v -0.02328 -0.03960 0.03204
v -0.01646 -0.04850 0.02265
v -0.00852 -0.05409 0.01173
v -0.01173 0.05409 0.00852
v -0.02265 0.04850 0.01646
v -0.03204 0.03960 0.02327
v -0.03924 0.02800 0.02851
v -0.04376 0.01449 0.03179
v -0.04530 0.00000 0.03292
v -0.04376 -0.01449 0.03179
v -0.03924 -0.02800 0.02851
v -0.03204 -0.03960 0.02327
v -0.02265 -0.04850 0.01646
v -0.01173 -0.05409 0.00852
v -0.01378 0.05409 0.00448
v -0.02663 0.04850 0.00865
v -0.03766 0.03960 0.01224
v -0.04612 0.02800 0.01499
v -0.05144 0.01449 0.01672
v -0.05326 0.00000 0.01730
v -0.05144 -0.01449 0.01672
v -0.04612 -0.02800 0.01499
v -0.03766 -0.03960 0.01224
v -0.02663 -0.04850 0.00865
v -0.01378 -0.05409 0.00448
v -0.01449 0.05409 0.00000
v -0.02800 0.04850 0.00000
v -0.03960 0.03960 0.00000
v -0.04850 0.02800 0.00000
v -0.05409 0.01449 0.00000
v -0.05600 0.00000 0.00000
v -0.05409 -0.01449 0.00000
v -0.04850 -0.02800 0.00000
v -0.03960 -0.03960 0.00000
v -0.02800 -0.04850 0.00000
v -0.01449 -0.05409 0.00000
v -0.01378 0.05409 -0.00448
v -0.02663 0.04850 -0.00865
v -0.03766 0.03960 -0.01224
v -0.04612 0.02800 -0.01499
v -0.05144 0.01449 -0.01672
v -0.05326 0.00000 -0.01730
v -0.05144 -0.01449 -0.01672
v -0.04612 -0.02800 -0.01499
v -0.03766 -0.03960 -0.01224
v -0.02663 -0.04850 -0.00865
v -0.01378 -0.05409 -0.00448
v -0.01173 0.05409 -0.00852
v -0.02265 0.04850 -0.01646
v -0.03204 0.03960 -0.02327
v -0.03924 0.02800 -0.02851
v -0.04376 0.01449 -0.03179
v -0.04530 0.00000 -0.03292
v -0.04376 -0.01449 -0.03179
v -0.03924 -0.02800 -0.02851
v -0.03204 -0.03960 -0.02327
v -0.02265 -0.04850 -0.01646
v -0.01173 -0.05409 -0.00852
v -0.00852 0.05409 -0.01173
v -0.01646 0.04850 -0.02265
v -0.02328 0.03960 -0.03204
v -0.02851 0.02800 -0.03924
v -0.03179 0.01449 -0.04376
v -0.03292 0.00000 -0.04530
v -0.03179 -0.01449 -0.04376
v -0.02851 -0.02800 -0.03924
v -0.02328 -0.03960 -0.03204
v -0.01646 -0.04850 -0.02265
v -0.00852 -0.05409 -0.01173
v -0.00448 0.05409 -0.01378
v -0.00865 0.04850 -0.02663
v -0.01224 0.03960 -0.03766
v -0.01499 0.02800 -0.04612
v -0.01672 0.01449 -0.05144
v -0.01730 0.00000 -0.05326
v -0.01672 -0.01449 -0.05144
v -0.01499 -0.02800 -0.04612
v -0.01224 -0.03960 -0.03766
v -0.00865 -0.04850 -0.02663
v -0.00448 -0.05409 -0.01378
v -0.00000 0.05409 -0.01449
v -0.00000 0.04850 -0.02800
v -0.00000 0.03960 -0.03960
v -0.00000 0.02800 -0.04850
v -0.00000 0.01449 -0.05409
v -0.00000 0.00000 -0.05600
v -0.00000 -0.01449 -0.05409
v -0.00000 -0.02800 -0.04850
v -0.00000 -0.03960 -0.03960
v -0.00000 -0.04850 -0.02800
v -0.00000 -0.05409 -0.01449
v 0.00448 0.05409 -0.01378
v 0.00865 0.04850 -0.02663
v 0.01224 0.03960 -0.03766
v 0.01499 0.02800 -0.04612
v 0.01672 0.01449 -0.05144
v 0.01730 0.00000 -0.05326
v 0.01672 -0.01449 -0.05144
v 0.01499 -0.02800 -0.04612
v 0.01224 -0.03960 -0.03766
v 0.00865 -0.04850 -0.02663
v 0.00448 -0.05409 -0.01378
v 0.00852 0.05409 -0.01173
v 0.01646 0.04850 -0.02265
v 0.02328 0.03960 -0.03204
v 0.02851 0.02800 -0.03924
v 0.03179 0.01449 -0.04376
v 0.03292 0.00000 -0.04530
v 0.03179 -0.01449 -0.04376
v 0.02851 -0.02800 -0.03924
v 0.02328 -0.03960 -0.03204
v 0.01646 -0.04850 -0.02265
v 0.00852 -0.05409 -0.01173
v 0.01173 0.05409 -0.00852
v 0.02265 0.04850 -0.01646
v 0.03204 0.03960 -0.02327
v 0.03924 0.02800 -0.02851
v 0.04376 0.01449 -0.03179
v 0.04530 0.00000 -0.03292
v 0.04376 -0.01449 -0.03179
v 0.03924 -0.02800 -0.02851
v 0.03204 -0.03960 -0.02327
v 0.02265 -0.04850 -0.01646
v 0.01173 -0.05409 -0.00852
v 0.01378 0.05409 -0.00448
v 0.02663 0.04850 -0.00865
v 0.03766 0.03960 -0.01224
v 0.04612 0.02800 -0.01499
v 0.05144 0.01449 -0.01672
v 0.05326 0.00000 -0.01730
v 0.05144 -0.01449 -0.01672
v 0.04612 -0.02800 -0.01499
v 0.03766 -0.03960 -0.01224
v 0.02663 -0.04850 -0.00865
v 0.01378 -0.05409 -0.00448
v 0.01449 0.05409 0.00000
v 0.02800 0.04850 0.00000
v 0.03960 0.03960 0.00000
v 0.04850 0.02800 0.00000
v 0.05409 0.01449 0.00000
v 0.05600 0.00000 0.00000
v 0.05409 -0.01449 0.00000
v 0.04850 -0.02800 0.00000
v 0.03960 -0.03960 0.00000
v 0.02800 -0.04850 0.00000
v 0.01449 -0.05409 0.00000
v 0.01378 0.05409 0.00448
v 0.02663 0.04850 0.00865
v 0.03766 0.03960 0.01224
v 0.04612 0.02800 0.01499
v 0.05144 0.01449 0.01672
v 0.05326 0.00000 0.01730
v 0.05144 -0.01449 0.01672
v 0.04612 -0.02800 0.01499
v 0.03766 -0.03960 0.01224
v 0.02663 -0.04850 0.00865
v 0.01378 -0.05409 0.00448
v 0.01173 0.05409 0.00852
v 0.02265 0.04850 0.01646
v 0.03204 0.03960 0.02327
v 0.03924 0.02800 0.02851
v 0.04376 0.01449 0.03179
v 0.04530 0.00000 0.03292
v 0.04376 -0.01449 0.03179
v 0.03924 -0.02800 0.02851
v 0.03204 -0.03960 0.02327
v 0.02265 -0.04850 0.01646
v 0.01173 -0.05409 0.00852
v 0.00852 0.05409 0.01173
v 0.01646 0.04850 0.02265
v 0.02328 0.03960 0.03204
v 0.02851 0.02800 0.03924
v 0.03179 0.01449 0.04376
v 0.03292 0.00000 0.04530
v 0.03179 -0.01449 0.04376
v 0.02851 -0.02800 0.03924
v 0.02328 -0.03960 0.03204
v 0.01646 -0.04850 0.02265
v 0.00852 -0.05409 0.01173
v 0.00448 0.05409 0.01378
v 0.00865 0.04850 0.02663
v 0.01224 0.03960 0.03766
v 0.01499 0.02800 0.04612
v 0.01672 0.01449 0.05144
v 0.01730 0.00000 0.05326
v 0.01672 -0.01449 0.05144
v 0.01499 -0.02800 0.04612
v 0.01224 -0.03960 0.03766
v 0.00865 -0.04850 0.02663
v 0.00448 -0.05409 0.01378
v -0.00000 0.05409 0.01449
v -0.00000 0.04850 0.02800
v -0.00000 0.03960 0.03960
v -0.00000 0.00000 0.05600
v -0.00000 -0.03960 0.03960
v -0.00000 -0.04850 0.02800
v -0.00000 -0.05409 0.01449
f 3 12 219
f 218 8 9
f 220 16 221
f 4 12 13
f 2 9 10
f 221 17 222
f 216 1 7
f 4 14 5
f 3 10 11
f 6 222 17
f 217 7 8
f 5 15 220
f 16 28 17
f 7 1 18
f 14 24 25
f 10 22 11
f 6 17 28
f 8 18 19
f 15 25 26
f 12 22 23
f 9 19 20
f 15 27 16
f 12 24 13
f 9 21 10
f 20 30 31
f 26 38 27
f 24 34 35
f 20 32 21
f 28 38 39
f 18 1 29
f 24 36 25
f 22 32 33
f 6 28 39
f 18 30 19
f 25 37 26
f 22 34 23
f 6 39 50
f 30 40 41
f 37 47 48
f 34 44 45
f 30 42 31
f 38 48 49
f 34 46 35
f 31 43 32
f 38 50 39
f 29 1 40
f 35 47 36
f 33 43 44
f 42 54 43
f 50 60 61
f 40 1 51
f 46 58 47
f 43 55 44
f 6 50 61
f 40 52 41
f 48 58 59
f 44 56 45
f 41 53 42
f 48 60 49
f 45 57 46
f 52 64 53
f 60 70 71
f 56 68 57
f 54 64 65
f 60 72 61
f 51 1 62
f 57 69 58
f 55 65 66
f 6 61 72
f 52 62 63
f 58 70 59
f 55 67 56
f 66 76 77
f 6 72 83
f 62 74 63
f 70 80 81
f 66 78 67
f 63 75 64
f 70 82 71
f 68 78 79
f 64 76 65
f 71 83 72
f 62 1 73
f 68 80 69
f 75 87 76
f 82 94 83
f 73 1 84
f 80 90 91
f 76 88 77
f 6 83 94
f 74 84 85
f 80 92 81
f 77 89 78
f 74 86 75
f 82 92 93
f 79 89 90
f 88 100 89
f 85 97 86
f 93 103 104
f 90 100 101
f 87 97 98
f 94 104 105
f 84 1 95
f 90 102 91
f 88 98 99
f 6 94 105
f 84 96 85
f 91 103 92
f 98 110 99
f 6 105 116
f 96 106 107
f 103 113 114
f 100 110 111
f 96 108 97
f 103 115 104
f 100 112 101
f 97 109 98
f 104 116 105
f 95 1 106
f 102 112 113
f 112 122 123
f 109 119 120
f 116 126 127
f 106 1 117
f 112 124 113
f 110 120 121
f 6 116 127
f 106 118 107
f 113 125 114
f 110 122 111
f 107 119 108
f 115 125 126
f 121 133 122
f 119 129 130
f 125 137 126
f 122 134 123
f 119 131 120
f 126 138 127
f 117 1 128
f 124 134 135
f 120 132 121
f 6 127 138
f 118 128 129
f 125 135 136
f 134 146 135
f 131 143 132
f 6 138 149
f 128 140 129
f 136 146 147
f 132 144 133
f 130 140 141
f 136 148 137
f 134 144 145
f 130 142 131
f 138 148 149
f 128 1 139
f 144 156 145
f 142 152 153
f 148 160 149
f 139 1 150
f 146 156 157
f 143 153 154
f 6 149 160
f 139 151 140
f 146 158 147
f 144 154 155
f 141 151 152
f 147 159 148
f 158 168 169
f 155 165 166
f 151 163 152
f 159 169 170
f 155 167 156
f 152 164 153
f 160 170 171
f 150 1 161
f 157 167 168
f 153 165 154
f 6 160 171
f 150 162 151
f 161 1 172
f 167 179 168
f 165 175 176
f 6 171 182
f 161 173 162
f 169 179 180
f 165 177 166
f 163 173 174
f 169 181 170
f 167 177 178
f 163 175 164
f 171 181 182
f 181 191 192
f 178 188 189
f 174 186 175
f 182 192 193
f 172 1 183
f 178 190 179
f 176 186 187
f 6 182 193
f 172 184 173
f 180 190 191
f 176 188 177
f 173 185 174
f 184 194 195
f 190 202 191
f 187 199 188
f 184 196 185
f 192 202 203
f 188 200 189
f 186 196 197
f 192 204 193
f 183 1 194
f 189 201 190
f 186 198 187
f 6 193 204
f 203 215 204
f 194 1 205
f 200 212 201
f 198 208 209
f 6 204 215
f 195 205 206
f 201 213 202
f 199 209 210
f 195 207 196
f 203 213 214
f 199 211 200
f 197 207 208
f 206 218 207
f 214 220 221
f 210 4 211
f 207 2 208
f 215 221 222
f 205 1 216
f 212 4 5
f 208 3 209
f 6 215 222
f 205 217 206
f 213 5 220
f 210 3 219
f 3 11 12
f 218 217 8
f 220 15 16
f 4 219 12
f 2 218 9
f 221 16 17
f 4 13 14
f 3 2 10
f 217 216 7
f 5 14 15
f 16 27 28
f 14 13 24
f 10 21 22
f 8 7 18
f 15 14 25
f 12 11 22
f 9 8 19
f 15 26 27
f 12 23 24
f 9 20 21
f 20 19 30
f 26 37 38
f 24 23 34
f 20 31 32
f 28 27 38
f 24 35 36
f 22 21 32
f 18 29 30
f 25 36 37
f 22 33 34
f 30 29 40
f 37 36 47
f 34 33 44
f 30 41 42
f 38 37 48
f 34 45 46
f 31 42 43
f 38 49 50
f 35 46 47
f 33 32 43
f 42 53 54
f 50 49 60
f 46 57 58
f 43 54 55
f 40 51 52
f 48 47 58
f 44 55 56
f 41 52 53
f 48 59 60
f 45 56 57
f 52 63 64
f 60 59 70
f 56 67 68
f 54 53 64
f 60 71 72
f 57 68 69
f 55 54 65
f 52 51 62
f 58 69 70
f 55 66 67
f 66 65 76
f 62 73 74
f 70 69 80
f 66 77 78
f 63 74 75
f 70 81 82
f 68 67 78
f 64 75 76
f 71 82 83
f 68 79 80
f 75 86 87
f 82 93 94
f 80 79 90
f 76 87 88
f 74 73 84
f 80 91 92
f 77 88 89
f 74 85 86
f 82 81 92
f 79 78 89
f 88 99 100
f 85 96 97
f 93 92 103
f 90 89 100
f 87 86 97
f 94 93 104
f 90 101 102
f 88 87 98
f 84 95 96
f 91 102 103
f 98 109 110
f 96 95 106
f 103 102 113
f 100 99 110
f 96 107 108
f 103 114 115
f 100 111 112
f 97 108 109
f 104 115 116
f 102 101 112
f 112 111 122
f 109 108 119
f 116 115 126
f 112 123 124
f 110 109 120
f 106 117 118
f 113 124 125
f 110 121 122
f 107 118 119
f 115 114 125
f 121 132 133
f 119 118 129
f 125 136 137
f 122 133 134
f 119 130 131
f 126 137 138
f 124 123 134
f 120 131 132
f 118 117 128
f 125 124 135
f 134 145 146
f 131 142 143
f 128 139 140
f 136 135 146
f 132 143 144
f 130 129 140
f 136 147 148
f 134 133 144
f 130 141 142
f 138 137 148
f 144 155 156
f 142 141 152
f 148 159 160
f 146 145 156
f 143 142 153
f 139 150 151
f 146 157 158
f 144 143 154
f 141 140 151
f 147 158 159
f 158 157 168
f 155 154 165
f 151 162 163
f 159 158 169
f 155 166 167
f 152 163 164
f 160 159 170
f 157 156 167
f 153 164 165
f 150 161 162
f 167 178 179
f 165 164 175
f 161 172 173
f 169 168 179
f 165 176 177
f 163 162 173
f 169 180 181
f 167 166 177
f 163 174 175
f 171 170 181
f 181 180 191
f 178 177 188
f 174 185 186
f 182 181 192
f 178 189 190
f 176 175 186
f 172 183 184
f 180 179 190
f 176 187 188
f 173 184 185
f 184 183 194
f 190 201 202
f 187 198 199
f 184 195 196
f 192 191 202
f 188 199 200
f 186 185 196
f 192 203 204
f 189 200 201
f 186 197 198
f 203 214 215
f 200 211 212
f 198 197 208
f 195 194 205
f 201 212 213
f 199 198 209
f 195 206 207
f 203 202 213
f 199 210 211
f 197 196 207
f 206 217 218
f 214 213 220
f 210 219 4
f 207 218 2
f 215 214 221
f 212 211 4
f 208 2 3
f 205 216 217
f 213 212 5
f 210 209 3
