# eclipse Planet4_Bead.obj: Roblox cue frame, recentred on its bounding box
v 0.00000 0.03000 0.00000
v 0.00000 0.01763 0.02427
v 0.00000 -0.00000 0.03000
v 0.00000 -0.00927 0.02853
v 0.00000 -0.01763 0.02427
v 0.00000 -0.02853 0.00927
v 0.00000 -0.03000 0.00000
v -0.00355 0.02853 0.00856
v -0.00675 0.02427 0.01629
v -0.00929 0.01763 0.02242
v -0.01092 0.00927 0.02636
v -0.01148 -0.00000 0.02772
v -0.01092 -0.00927 0.02636
v -0.00929 -0.01763 0.02242
v -0.00675 -0.02427 0.01629
v -0.00355 -0.02853 0.00856
v -0.00656 0.02853 0.00656
v -0.01247 0.02427 0.01247
v -0.01716 0.01763 0.01716
v -0.02017 0.00927 0.02017
v -0.02121 -0.00000 0.02121
v -0.02017 -0.00927 0.02017
v -0.01716 -0.01763 0.01716
v -0.01247 -0.02427 0.01247
v -0.00656 -0.02853 0.00656
v -0.00856 0.02853 0.00355
v -0.01629 0.02427 0.00675
v -0.02242 0.01763 0.00929
v -0.02636 0.00927 0.01092
v -0.02772 -0.00000 0.01148
v -0.02636 -0.00927 0.01092
v -0.02242 -0.01763 0.00929
v -0.01629 -0.02427 0.00675
v -0.00856 -0.02853 0.00355
v -0.00927 0.02853 0.00000
v -0.01763 0.02427 0.00000
v -0.02427 0.01763 0.00000
v -0.02853 0.00927 0.00000
v -0.03000 -0.00000 0.00000
v -0.02853 -0.00927 0.00000
v -0.02427 -0.01763 0.00000
v -0.01763 -0.02427 0.00000
v -0.00927 -0.02853 0.00000
v -0.00856 0.02853 -0.00355
v -0.01629 0.02427 -0.00675
v -0.02242 0.01763 -0.00929
v -0.02636 0.00927 -0.01092
v -0.02772 -0.00000 -0.01148
v -0.02636 -0.00927 -0.01092
v -0.02242 -0.01763 -0.00929
v -0.01629 -0.02427 -0.00675
v -0.00856 -0.02853 -0.00355
v -0.00656 0.02853 -0.00656
v -0.01247 0.02427 -0.01247
v -0.01716 0.01763 -0.01716
v -0.02017 0.00927 -0.02017
v -0.02121 -0.00000 -0.02121
v -0.02017 -0.00927 -0.02017
v -0.01716 -0.01763 -0.01716
v -0.01247 -0.02427 -0.01247
v -0.00656 -0.02853 -0.00656
v -0.00355 0.02853 -0.00856
v -0.00675 0.02427 -0.01629
v -0.00929 0.01763 -0.02242
v -0.01092 0.00927 -0.02636
v -0.01148 -0.00000 -0.02772
v -0.01092 -0.00927 -0.02636
v -0.00929 -0.01763 -0.02242
v -0.00675 -0.02427 -0.01629
v -0.00355 -0.02853 -0.00856
v 0.00000 0.02853 -0.00927
v 0.00000 0.02427 -0.01763
v 0.00000 0.01763 -0.02427
v 0.00000 0.00927 -0.02853
v 0.00000 -0.00000 -0.03000
v 0.00000 -0.00927 -0.02853
v 0.00000 -0.01763 -0.02427
v 0.00000 -0.02427 -0.01763
v 0.00000 -0.02853 -0.00927
v 0.00355 0.02853 -0.00856
v 0.00675 0.02427 -0.01629
v 0.00929 0.01763 -0.02242
v 0.01092 0.00927 -0.02636
v 0.01148 -0.00000 -0.02772
v 0.01092 -0.00927 -0.02636
v 0.00929 -0.01763 -0.02242
v 0.00675 -0.02427 -0.01629
v 0.00355 -0.02853 -0.00856
v 0.00656 0.02853 -0.00656
v 0.01247 0.02427 -0.01247
v 0.01716 0.01763 -0.01716
v 0.02017 0.00927 -0.02017
v 0.02121 -0.00000 -0.02121
v 0.02017 -0.00927 -0.02017
v 0.01716 -0.01763 -0.01716
v 0.01247 -0.02427 -0.01247
v 0.00656 -0.02853 -0.00656
v 0.00856 0.02853 -0.00355
v 0.01629 0.02427 -0.00675
v 0.02242 0.01763 -0.00929
v 0.02636 0.00927 -0.01092
v 0.02772 -0.00000 -0.01148
v 0.02636 -0.00927 -0.01092
v 0.02242 -0.01763 -0.00929
v 0.01629 -0.02427 -0.00675
v 0.00856 -0.02853 -0.00355
v 0.00927 0.02853 0.00000
v 0.01763 0.02427 0.00000
v 0.02427 0.01763 0.00000
v 0.02853 0.00927 0.00000
v 0.03000 -0.00000 0.00000
v 0.02853 -0.00927 0.00000
v 0.02427 -0.01763 0.00000
v 0.01763 -0.02427 0.00000
v 0.00927 -0.02853 0.00000
v 0.00856 0.02853 0.00355
v 0.01629 0.02427 0.00675
v 0.02242 0.01763 0.00929
v 0.02636 0.00927 0.01092
v 0.02772 -0.00000 0.01148
v 0.02636 -0.00927 0.01092
v 0.02242 -0.01763 0.00929
v 0.01629 -0.02427 0.00675
v 0.00856 -0.02853 0.00355
v 0.00656 0.02853 0.00656
v 0.01247 0.02427 0.01247
v 0.01716 0.01763 0.01716
v 0.02017 0.00927 0.02017
v 0.02121 -0.00000 0.02121
v 0.02017 -0.00927 0.02017
v 0.01716 -0.01763 0.01716
v 0.01247 -0.02427 0.01247
v 0.00656 -0.02853 0.00656
v 0.00355 0.02853 0.00856
v 0.00675 0.02427 0.01629
v 0.00929 0.01763 0.02242
v 0.01092 0.00927 0.02636
v 0.01148 -0.00000 0.02772
v 0.01092 -0.00927 0.02636
v 0.00929 -0.01763 0.02242
v 0.00675 -0.02427 0.01629
v 0.00355 -0.02853 0.00856
v 0.00000 0.02853 0.00927
v 0.00000 0.02427 0.01763
v 0.00000 0.00927 0.02853
v 0.00000 -0.02427 0.01763
f 7 6 16
f 4 14 5
f 145 10 11
f 143 1 8
f 146 14 15
f 3 11 12
f 143 9 144
f 6 15 16
f 3 13 4
f 144 10 2
f 14 22 23
f 10 20 11
f 8 1 17
f 14 24 15
f 11 21 12
f 9 17 18
f 15 25 16
f 13 21 22
f 10 18 19
f 7 16 25
f 19 27 28
f 7 25 34
f 23 31 32
f 19 29 20
f 17 1 26
f 24 32 33
f 21 29 30
f 17 27 18
f 24 34 25
f 21 31 22
f 33 43 34
f 30 40 31
f 28 36 37
f 7 34 43
f 32 40 41
f 28 38 29
f 26 1 35
f 32 42 33
f 30 38 39
f 26 36 27
f 39 47 48
f 35 45 36
f 43 51 52
f 39 49 40
f 36 46 37
f 7 43 52
f 40 50 41
f 38 46 47
f 35 1 44
f 42 50 51
f 44 1 53
f 51 59 60
f 47 57 48
f 45 53 54
f 52 60 61
f 49 57 58
f 45 55 46
f 7 52 61
f 49 59 50
f 47 55 56
f 56 64 65
f 53 1 62
f 60 68 69
f 56 66 57
f 54 62 63
f 60 70 61
f 58 66 67
f 54 64 55
f 7 61 70
f 58 68 59
f 7 70 79
f 67 77 68
f 64 74 65
f 62 1 71
f 68 78 69
f 66 74 75
f 62 72 63
f 70 78 79
f 67 75 76
f 64 72 73
f 76 84 85
f 73 81 82
f 7 79 88
f 76 86 77
f 73 83 74
f 71 1 80
f 77 87 78
f 74 84 75
f 72 80 81
f 79 87 88
f 80 90 81
f 87 97 88
f 84 94 85
f 82 90 91
f 7 88 97
f 86 94 95
f 82 92 83
f 80 1 89
f 86 96 87
f 84 92 93
f 93 101 102
f 90 98 99
f 96 106 97
f 93 103 94
f 91 99 100
f 7 97 106
f 94 104 95
f 91 101 92
f 89 1 98
f 95 105 96
f 98 1 107
f 104 114 105
f 101 111 102
f 98 108 99
f 106 114 115
f 102 112 103
f 99 109 100
f 7 106 115
f 103 113 104
f 101 109 110
f 113 121 122
f 109 119 110
f 107 1 116
f 113 123 114
f 110 120 111
f 108 116 117
f 114 124 115
f 112 120 121
f 109 117 118
f 7 115 124
f 117 127 118
f 7 124 133
f 121 131 122
f 119 127 128
f 116 1 125
f 123 131 132
f 119 129 120
f 116 126 117
f 123 133 124
f 121 129 130
f 130 138 139
f 126 136 127
f 7 133 142
f 130 140 131
f 127 137 128
f 125 1 134
f 132 140 141
f 128 138 129
f 126 134 135
f 133 141 142
f 134 144 135
f 141 6 142
f 138 4 139
f 136 144 2
f 7 142 6
f 139 5 140
f 136 145 137
f 134 1 143
f 140 146 141
f 137 3 138
f 4 13 14
f 145 2 10
f 146 5 14
f 3 145 11
f 143 8 9
f 6 146 15
f 3 12 13
f 144 9 10
f 14 13 22
f 10 19 20
f 14 23 24
f 11 20 21
f 9 8 17
f 15 24 25
f 13 12 21
f 10 9 18
f 19 18 27
f 23 22 31
f 19 28 29
f 24 23 32
f 21 20 29
f 17 26 27
f 24 33 34
f 21 30 31
f 33 42 43
f 30 39 40
f 28 27 36
f 32 31 40
f 28 37 38
f 32 41 42
f 30 29 38
f 26 35 36
f 39 38 47
f 35 44 45
f 43 42 51
f 39 48 49
f 36 45 46
f 40 49 50
f 38 37 46
f 42 41 50
f 51 50 59
f 47 56 57
f 45 44 53
f 52 51 60
f 49 48 57
f 45 54 55
f 49 58 59
f 47 46 55
f 56 55 64
f 60 59 68
f 56 65 66
f 54 53 62
f 60 69 70
f 58 57 66
f 54 63 64
f 58 67 68
f 67 76 77
f 64 73 74
f 68 77 78
f 66 65 74
f 62 71 72
f 70 69 78
f 67 66 75
f 64 63 72
f 76 75 84
f 73 72 81
f 76 85 86
f 73 82 83
f 77 86 87
f 74 83 84
f 72 71 80
f 79 78 87
f 80 89 90
f 87 96 97
f 84 93 94
f 82 81 90
f 86 85 94
f 82 91 92
f 86 95 96
f 84 83 92
f 93 92 101
f 90 89 98
f 96 105 106
f 93 102 103
f 91 90 99
f 94 103 104
f 91 100 101
f 95 104 105
f 104 113 114
f 101 110 111
f 98 107 108
f 106 105 114
f 102 111 112
f 99 108 109
f 103 112 113
f 101 100 109
f 113 112 121
f 109 118 119
f 113 122 123
f 110 119 120
f 108 107 116
f 114 123 124
f 112 111 120
f 109 108 117
f 117 126 127
f 121 130 131
f 119 118 127
f 123 122 131
f 119 128 129
f 116 125 126
f 123 132 133
f 121 120 129
f 130 129 138
f 126 135 136
f 130 139 140
f 127 136 137
f 132 131 140
f 128 137 138
f 126 125 134
f 133 132 141
f 134 143 144
f 141 146 6
f 138 3 4
f 136 135 144
f 139 4 5
f 136 2 145
f 140 5 146
f 137 145 3
