# eclipse Planet2_Bead.obj: Roblox cue frame, recentred on its bounding box
v 0.00000 0.03000 0.00000
v 0.00000 0.01763 0.02427
v 0.00000 0.00000 0.03000
v 0.00000 -0.00927 0.02853
v 0.00000 -0.01763 0.02427
v 0.00000 -0.02853 0.00927
v 0.00000 -0.03000 0.00000
v -0.00355 0.02853 0.00856
v -0.00675 0.02427 0.01629
v -0.00929 0.01763 0.02242
v -0.01092 0.00927 0.02636
v -0.01148 0.00000 0.02772
v -0.01092 -0.00927 0.02636
v -0.00929 -0.01763 0.02242
v -0.00675 -0.02427 0.01629
v -0.00355 -0.02853 0.00856
v -0.00656 0.02853 0.00656
v -0.01247 0.02427 0.01247
v -0.01716 0.01763 0.01716
v -0.02017 0.00927 0.02017
v -0.02121 0.00000 0.02121
v -0.02017 -0.00927 0.02017
v -0.01716 -0.01763 0.01716
v -0.01247 -0.02427 0.01247
v -0.00656 -0.02853 0.00656
v -0.00856 0.02853 0.00355
v -0.01629 0.02427 0.00675
v -0.02242 0.01763 0.00929
v -0.02636 0.00927 0.01092
v -0.02772 0.00000 0.01148
v -0.02636 -0.00927 0.01092
v -0.02242 -0.01763 0.00929
v -0.01629 -0.02427 0.00675
v -0.00856 -0.02853 0.00355
v -0.00927 0.02853 0.00000
v -0.01763 0.02427 0.00000
v -0.02427 0.01763 0.00000
v -0.02853 0.00927 0.00000
v -0.03000 0.00000 0.00000
v -0.02853 -0.00927 0.00000
v -0.02427 -0.01763 0.00000
v -0.01763 -0.02427 0.00000
v -0.00927 -0.02853 0.00000
v -0.00856 0.02853 -0.00355
v -0.01629 0.02427 -0.00675
v -0.02242 0.01763 -0.00929
v -0.02636 0.00927 -0.01092
v -0.02772 0.00000 -0.01148
v -0.02636 -0.00927 -0.01092
v -0.02242 -0.01763 -0.00929
v -0.01629 -0.02427 -0.00675
v -0.00856 -0.02853 -0.00355
v -0.00656 0.02853 -0.00656
v -0.01247 0.02427 -0.01247
v -0.01716 0.01763 -0.01716
v -0.02017 0.00927 -0.02017
v -0.02121 0.00000 -0.02121
v -0.02017 -0.00927 -0.02017
v -0.01716 -0.01763 -0.01716
v -0.01247 -0.02427 -0.01247
v -0.00656 -0.02853 -0.00656
v -0.00355 0.02853 -0.00856
v -0.00675 0.02427 -0.01629
v -0.00929 0.01763 -0.02242
v -0.01092 0.00927 -0.02636
v -0.01148 0.00000 -0.02772
v -0.01092 -0.00927 -0.02636
v -0.00929 -0.01763 -0.02242
v -0.00675 -0.02427 -0.01629
v -0.00355 -0.02853 -0.00856
v 0.00000 0.02853 -0.00927
v 0.00000 0.02427 -0.01763
v 0.00000 0.01763 -0.02427
v 0.00000 0.00927 -0.02853
v 0.00000 0.00000 -0.03000
v 0.00000 -0.00927 -0.02853
v 0.00000 -0.01763 -0.02427
v 0.00000 -0.02427 -0.01763
v 0.00000 -0.02853 -0.00927
v 0.00355 0.02853 -0.00856
v 0.00675 0.02427 -0.01629
v 0.00929 0.01763 -0.02242
v 0.01092 0.00927 -0.02636
v 0.01148 0.00000 -0.02772
v 0.01092 -0.00927 -0.02636
v 0.00929 -0.01763 -0.02242
v 0.00675 -0.02427 -0.01629
v 0.00355 -0.02853 -0.00856
v 0.00656 0.02853 -0.00656
v 0.01247 0.02427 -0.01247
v 0.01716 0.01763 -0.01716
v 0.02017 0.00927 -0.02017
v 0.02121 0.00000 -0.02121
v 0.02017 -0.00927 -0.02017
v 0.01716 -0.01763 -0.01716
v 0.01247 -0.02427 -0.01247
v 0.00656 -0.02853 -0.00656
v 0.00856 0.02853 -0.00355
v 0.01629 0.02427 -0.00675
v 0.02242 0.01763 -0.00929
v 0.02636 0.00927 -0.01092
v 0.02772 0.00000 -0.01148
v 0.02636 -0.00927 -0.01092
v 0.02242 -0.01763 -0.00929
v 0.01629 -0.02427 -0.00675
v 0.00856 -0.02853 -0.00355
v 0.00927 0.02853 0.00000
v 0.01763 0.02427 0.00000
v 0.02427 0.01763 0.00000
v 0.02853 0.00927 0.00000
v 0.03000 0.00000 0.00000
v 0.02853 -0.00927 0.00000
v 0.02427 -0.01763 0.00000
v 0.01763 -0.02427 0.00000
v 0.00927 -0.02853 0.00000
v 0.00856 0.02853 0.00355
v 0.01629 0.02427 0.00675
v 0.02242 0.01763 0.00929
v 0.02636 0.00927 0.01092
v 0.02772 0.00000 0.01148
v 0.02636 -0.00927 0.01092
v 0.02242 -0.01763 0.00929
v 0.01629 -0.02427 0.00675
v 0.00856 -0.02853 0.00355
v 0.00656 0.02853 0.00656
v 0.01247 0.02427 0.01247
v 0.01716 0.01763 0.01716
v 0.02017 0.00927 0.02017
v 0.02121 0.00000 0.02121
v 0.02017 -0.00927 0.02017
v 0.01716 -0.01763 0.01716
v 0.01247 -0.02427 0.01247
v 0.00656 -0.02853 0.00656
v 0.00355 0.02853 0.00856
v 0.00675 0.02427 0.01629
v 0.00929 0.01763 0.02242
v 0.01092 0.00927 0.02636
v 0.01148 0.00000 0.02772
v 0.01092 -0.00927 0.02636
v 0.00929 -0.01763 0.02242
v 0.00675 -0.02427 0.01629
v 0.00355 -0.02853 0.00856
v 0.00000 0.02853 0.00927
v 0.00000 0.02427 0.01763
v 0.00000 0.00927 0.02853
v 0.00000 -0.02427 0.01763
f 145 12 3
f 144 8 9
f 146 16 6
f 3 13 4
f 2 9 10
f 7 6 16
f 5 13 14
f 2 11 145
f 143 1 8
f 5 15 146
f 11 21 12
f 8 18 9
f 15 25 16
f 13 21 22
f 9 19 10
f 7 16 25
f 13 23 14
f 11 19 20
f 8 1 17
f 15 23 24
f 17 1 26
f 23 33 24
f 21 29 30
f 17 27 18
f 25 33 34
f 21 31 22
f 19 27 28
f 7 25 34
f 22 32 23
f 19 29 20
f 28 38 29
f 26 1 35
f 33 41 42
f 29 39 30
f 27 35 36
f 33 43 34
f 31 39 40
f 27 37 28
f 7 34 43
f 32 40 41
f 7 43 52
f 40 50 41
f 38 46 47
f 35 1 44
f 42 50 51
f 39 47 48
f 35 45 36
f 43 51 52
f 39 49 40
f 36 46 37
f 49 57 58
f 45 55 46
f 7 52 61
f 50 58 59
f 46 56 47
f 44 1 53
f 51 59 60
f 47 57 48
f 44 54 45
f 52 60 61
f 54 62 63
f 60 70 61
f 57 67 58
f 54 64 55
f 7 61 70
f 59 67 68
f 56 64 65
f 53 1 62
f 59 69 60
f 57 65 66
f 65 75 66
f 62 72 63
f 70 78 79
f 66 76 67
f 64 72 73
f 7 70 79
f 67 77 68
f 65 73 74
f 62 1 71
f 68 78 69
f 71 1 80
f 78 86 87
f 74 84 75
f 72 80 81
f 78 88 79
f 76 84 85
f 72 82 73
f 7 79 88
f 77 85 86
f 74 82 83
f 85 95 86
f 83 91 92
f 80 1 89
f 86 96 87
f 83 93 84
f 80 90 81
f 87 97 88
f 85 93 94
f 82 90 91
f 7 88 97
f 91 99 100
f 7 97 106
f 94 104 95
f 92 100 101
f 89 1 98
f 95 105 96
f 92 102 93
f 89 99 90
f 97 105 106
f 93 103 94
f 102 112 103
f 100 108 109
f 7 106 115
f 104 112 113
f 100 110 101
f 98 1 107
f 104 114 105
f 101 111 102
f 99 107 108
f 105 115 106
f 107 117 108
f 115 123 124
f 111 121 112
f 109 117 118
f 7 115 124
f 113 121 122
f 109 119 110
f 107 1 116
f 113 123 114
f 110 120 111
f 122 132 123
f 120 128 129
f 116 126 117
f 124 132 133
f 120 130 121
f 118 126 127
f 7 124 133
f 122 130 131
f 118 128 119
f 116 1 125
f 128 136 137
f 125 1 134
f 131 141 132
f 129 137 138
f 125 135 126
f 132 142 133
f 129 139 130
f 127 135 136
f 7 133 142
f 130 140 131
f 139 5 140
f 136 145 137
f 134 1 143
f 141 5 146
f 138 145 3
f 134 144 135
f 142 146 6
f 139 3 4
f 135 2 136
f 7 142 6
f 145 11 12
f 144 143 8
f 146 15 16
f 3 12 13
f 2 144 9
f 5 4 13
f 2 10 11
f 5 14 15
f 11 20 21
f 8 17 18
f 15 24 25
f 13 12 21
f 9 18 19
f 13 22 23
f 11 10 19
f 15 14 23
f 23 32 33
f 21 20 29
f 17 26 27
f 25 24 33
f 21 30 31
f 19 18 27
f 22 31 32
f 19 28 29
f 28 37 38
f 33 32 41
f 29 38 39
f 27 26 35
f 33 42 43
f 31 30 39
f 27 36 37
f 32 31 40
f 40 49 50
f 38 37 46
f 42 41 50
f 39 38 47
f 35 44 45
f 43 42 51
f 39 48 49
f 36 45 46
f 49 48 57
f 45 54 55
f 50 49 58
f 46 55 56
f 51 50 59
f 47 56 57
f 44 53 54
f 52 51 60
f 54 53 62
f 60 69 70
f 57 66 67
f 54 63 64
f 59 58 67
f 56 55 64
f 59 68 69
f 57 56 65
f 65 74 75
f 62 71 72
f 70 69 78
f 66 75 76
f 64 63 72
f 67 76 77
f 65 64 73
f 68 77 78
f 78 77 86
f 74 83 84
f 72 71 80
f 78 87 88
f 76 75 84
f 72 81 82
f 77 76 85
f 74 73 82
f 85 94 95
f 83 82 91
f 86 95 96
f 83 92 93
f 80 89 90
f 87 96 97
f 85 84 93
f 82 81 90
f 91 90 99
f 94 103 104
f 92 91 100
f 95 104 105
f 92 101 102
f 89 98 99
f 97 96 105
f 93 102 103
f 102 111 112
f 100 99 108
f 104 103 112
f 100 109 110
f 104 113 114
f 101 110 111
f 99 98 107
f 105 114 115
f 107 116 117
f 115 114 123
f 111 120 121
f 109 108 117
f 113 112 121
f 109 118 119
f 113 122 123
f 110 119 120
f 122 131 132
f 120 119 128
f 116 125 126
f 124 123 132
f 120 129 130
f 118 117 126
f 122 121 130
f 118 127 128
f 128 127 136
f 131 140 141
f 129 128 137
f 125 134 135
f 132 141 142
f 129 138 139
f 127 126 135
f 130 139 140
f 139 4 5
f 136 2 145
f 141 140 5
f 138 137 145
f 134 143 144
f 142 141 146
f 139 138 3
f 135 144 2
