# eclipse Planet3_Bead.obj: Roblox cue frame, recentred on its bounding box
v 0.00000 0.03000 0.00000
v 0.00000 0.01763 0.02427
v 0.00000 0.00000 0.03000
v 0.00000 -0.00927 0.02853
v 0.00000 -0.01763 0.02427
v 0.00000 -0.02853 0.00927
v 0.00000 -0.03000 0.00000
v -0.00355 0.02853 0.00856
v -0.00675 0.02427 0.01629
v -0.00929 0.01763 0.02242
v -0.01092 0.00927 0.02636
v -0.01148 0.00000 0.02772
v -0.01092 -0.00927 0.02636
v -0.00929 -0.01763 0.02242
v -0.00675 -0.02427 0.01629
v -0.00355 -0.02853 0.00856
v -0.00656 0.02853 0.00656
v -0.01247 0.02427 0.01247
v -0.01716 0.01763 0.01716
v -0.02017 0.00927 0.02017
v -0.02121 0.00000 0.02121
v -0.02017 -0.00927 0.02017
v -0.01716 -0.01763 0.01716
v -0.01247 -0.02427 0.01247
v -0.00656 -0.02853 0.00656
v -0.00856 0.02853 0.00355
v -0.01629 0.02427 0.00675
v -0.02242 0.01763 0.00929
v -0.02636 0.00927 0.01092
v -0.02772 0.00000 0.01148
v -0.02636 -0.00927 0.01092
v -0.02242 -0.01763 0.00929
v -0.01629 -0.02427 0.00675
v -0.00856 -0.02853 0.00355
v -0.00927 0.02853 0.00000
v -0.01763 0.02427 0.00000
v -0.02427 0.01763 0.00000
v -0.02853 0.00927 0.00000
v -0.03000 0.00000 0.00000
v -0.02853 -0.00927 0.00000
v -0.02427 -0.01763 0.00000
v -0.01763 -0.02427 0.00000
v -0.00927 -0.02853 0.00000
v -0.00856 0.02853 -0.00355
v -0.01629 0.02427 -0.00675
v -0.02242 0.01763 -0.00929
v -0.02636 0.00927 -0.01092
v -0.02772 0.00000 -0.01148
v -0.02636 -0.00927 -0.01092
v -0.02242 -0.01763 -0.00929
v -0.01629 -0.02427 -0.00675
v -0.00856 -0.02853 -0.00355
v -0.00656 0.02853 -0.00656
v -0.01247 0.02427 -0.01247
v -0.01716 0.01763 -0.01716
v -0.02017 0.00927 -0.02017
v -0.02121 0.00000 -0.02121
v -0.02017 -0.00927 -0.02017
v -0.01716 -0.01763 -0.01716
v -0.01247 -0.02427 -0.01247
v -0.00656 -0.02853 -0.00656
v -0.00355 0.02853 -0.00856
v -0.00675 0.02427 -0.01629
v -0.00929 0.01763 -0.02242
v -0.01092 0.00927 -0.02636
v -0.01148 0.00000 -0.02772
v -0.01092 -0.00927 -0.02636
v -0.00929 -0.01763 -0.02242
v -0.00675 -0.02427 -0.01629
v -0.00355 -0.02853 -0.00856
v 0.00000 0.02853 -0.00927
v 0.00000 0.02427 -0.01763
v 0.00000 0.01763 -0.02427
v 0.00000 0.00927 -0.02853
v 0.00000 0.00000 -0.03000
v 0.00000 -0.00927 -0.02853
v 0.00000 -0.01763 -0.02427
v 0.00000 -0.02427 -0.01763
v 0.00000 -0.02853 -0.00927
v 0.00355 0.02853 -0.00856
v 0.00675 0.02427 -0.01629
v 0.00929 0.01763 -0.02242
v 0.01092 0.00927 -0.02636
v 0.01148 0.00000 -0.02772
v 0.01092 -0.00927 -0.02636
v 0.00929 -0.01763 -0.02242
v 0.00675 -0.02427 -0.01629
v 0.00355 -0.02853 -0.00856
v 0.00656 0.02853 -0.00656
v 0.01247 0.02427 -0.01247
v 0.01716 0.01763 -0.01716
v 0.02017 0.00927 -0.02017
v 0.02121 0.00000 -0.02121
v 0.02017 -0.00927 -0.02017
v 0.01716 -0.01763 -0.01716
v 0.01247 -0.02427 -0.01247
v 0.00656 -0.02853 -0.00656
v 0.00856 0.02853 -0.00355
v 0.01629 0.02427 -0.00675
v 0.02242 0.01763 -0.00929
v 0.02636 0.00927 -0.01092
v 0.02772 0.00000 -0.01148
v 0.02636 -0.00927 -0.01092
v 0.02242 -0.01763 -0.00929
v 0.01629 -0.02427 -0.00675
v 0.00856 -0.02853 -0.00355
v 0.00927 0.02853 0.00000
v 0.01763 0.02427 0.00000
v 0.02427 0.01763 0.00000
v 0.02853 0.00927 0.00000
v 0.03000 0.00000 0.00000
v 0.02853 -0.00927 0.00000
v 0.02427 -0.01763 0.00000
v 0.01763 -0.02427 0.00000
v 0.00927 -0.02853 0.00000
v 0.00856 0.02853 0.00355
v 0.01629 0.02427 0.00675
v 0.02242 0.01763 0.00929
v 0.02636 0.00927 0.01092
v 0.02772 0.00000 0.01148
v 0.02636 -0.00927 0.01092
v 0.02242 -0.01763 0.00929
v 0.01629 -0.02427 0.00675
v 0.00856 -0.02853 0.00355
v 0.00656 0.02853 0.00656
v 0.01247 0.02427 0.01247
v 0.01716 0.01763 0.01716
v 0.02017 0.00927 0.02017
v 0.02121 0.00000 0.02121
v 0.02017 -0.00927 0.02017
v 0.01716 -0.01763 0.01716
v 0.01247 -0.02427 0.01247
v 0.00656 -0.02853 0.00656
v 0.00355 0.02853 0.00856
v 0.00675 0.02427 0.01629
v 0.00929 0.01763 0.02242
v 0.01092 0.00927 0.02636
v 0.01148 0.00000 0.02772
v 0.01092 -0.00927 0.02636
v 0.00929 -0.01763 0.02242
v 0.00675 -0.02427 0.01629
v 0.00355 -0.02853 0.00856
v 0.00000 0.02853 0.00927
v -0.00000 0.02427 0.01763
v -0.00000 0.00927 0.02853
v -0.00000 -0.02427 0.01763
f 145 12 3
f 143 9 144
f 146 16 6
f 4 12 13
f 144 10 2
f 7 6 16
f 4 14 5
f 2 11 145
f 143 1 8
f 146 14 15
f 12 20 21
f 8 18 9
f 16 24 25
f 12 22 13
f 10 18 19
f 7 16 25
f 14 22 23
f 10 20 11
f 8 1 17
f 14 24 15
f 17 1 26
f 23 33 24
f 21 29 30
f 17 27 18
f 25 33 34
f 21 31 22
f 18 28 19
f 7 25 34
f 23 31 32
f 19 29 20
f 28 38 29
f 26 1 35
f 33 41 42
f 30 38 39
f 26 36 27
f 34 42 43
f 30 40 31
f 27 37 28
f 7 34 43
f 32 40 41
f 7 43 52
f 40 50 41
f 38 46 47
f 35 1 44
f 41 51 42
f 38 48 39
f 36 44 45
f 42 52 43
f 40 48 49
f 37 45 46
f 49 57 58
f 45 55 46
f 7 52 61
f 49 59 50
f 46 56 47
f 44 1 53
f 51 59 60
f 47 57 48
f 44 54 45
f 51 61 52
f 53 63 54
f 60 70 61
f 58 66 67
f 54 64 55
f 7 61 70
f 59 67 68
f 56 64 65
f 53 1 62
f 60 68 69
f 56 66 57
f 66 74 75
f 63 71 72
f 69 79 70
f 66 76 67
f 64 72 73
f 7 70 79
f 68 76 77
f 64 74 65
f 62 1 71
f 69 77 78
f 71 1 80
f 77 87 78
f 74 84 75
f 71 81 72
f 79 87 88
f 76 84 85
f 72 82 73
f 7 79 88
f 77 85 86
f 73 83 74
f 86 94 95
f 82 92 83
f 80 1 89
f 86 96 87
f 83 93 84
f 80 90 81
f 87 97 88
f 84 94 85
f 81 91 82
f 7 88 97
f 91 99 100
f 7 97 106
f 95 103 104
f 91 101 92
f 89 1 98
f 95 105 96
f 93 101 102
f 90 98 99
f 96 106 97
f 93 103 94
f 103 111 112
f 100 108 109
f 7 106 115
f 104 112 113
f 100 110 101
f 98 1 107
f 104 114 105
f 101 111 102
f 98 108 99
f 105 115 106
f 108 116 117
f 114 124 115
f 111 121 112
f 108 118 109
f 7 115 124
f 113 121 122
f 109 119 110
f 107 1 116
f 114 122 123
f 110 120 111
f 123 131 132
f 119 129 120
f 117 125 126
f 123 133 124
f 121 129 130
f 117 127 118
f 7 124 133
f 122 130 131
f 118 128 119
f 116 1 125
f 127 137 128
f 125 1 134
f 131 141 132
f 128 138 129
f 126 134 135
f 132 142 133
f 130 138 139
f 127 135 136
f 7 133 142
f 131 139 140
f 139 5 140
f 137 2 145
f 134 1 143
f 141 5 146
f 137 3 138
f 135 143 144
f 141 6 142
f 138 4 139
f 135 2 136
f 7 142 6
f 145 11 12
f 143 8 9
f 146 15 16
f 4 3 12
f 144 9 10
f 4 13 14
f 2 10 11
f 146 5 14
f 12 11 20
f 8 17 18
f 16 15 24
f 12 21 22
f 10 9 18
f 14 13 22
f 10 19 20
f 14 23 24
f 23 32 33
f 21 20 29
f 17 26 27
f 25 24 33
f 21 30 31
f 18 27 28
f 23 22 31
f 19 28 29
f 28 37 38
f 33 32 41
f 30 29 38
f 26 35 36
f 34 33 42
f 30 39 40
f 27 36 37
f 32 31 40
f 40 49 50
f 38 37 46
f 41 50 51
f 38 47 48
f 36 35 44
f 42 51 52
f 40 39 48
f 37 36 45
f 49 48 57
f 45 54 55
f 49 58 59
f 46 55 56
f 51 50 59
f 47 56 57
f 44 53 54
f 51 60 61
f 53 62 63
f 60 69 70
f 58 57 66
f 54 63 64
f 59 58 67
f 56 55 64
f 60 59 68
f 56 65 66
f 66 65 74
f 63 62 71
f 69 78 79
f 66 75 76
f 64 63 72
f 68 67 76
f 64 73 74
f 69 68 77
f 77 86 87
f 74 83 84
f 71 80 81
f 79 78 87
f 76 75 84
f 72 81 82
f 77 76 85
f 73 82 83
f 86 85 94
f 82 91 92
f 86 95 96
f 83 92 93
f 80 89 90
f 87 96 97
f 84 93 94
f 81 90 91
f 91 90 99
f 95 94 103
f 91 100 101
f 95 104 105
f 93 92 101
f 90 89 98
f 96 105 106
f 93 102 103
f 103 102 111
f 100 99 108
f 104 103 112
f 100 109 110
f 104 113 114
f 101 110 111
f 98 107 108
f 105 114 115
f 108 107 116
f 114 123 124
f 111 120 121
f 108 117 118
f 113 112 121
f 109 118 119
f 114 113 122
f 110 119 120
f 123 122 131
f 119 128 129
f 117 116 125
f 123 132 133
f 121 120 129
f 117 126 127
f 122 121 130
f 118 127 128
f 127 136 137
f 131 140 141
f 128 137 138
f 126 125 134
f 132 141 142
f 130 129 138
f 127 126 135
f 131 130 139
f 139 4 5
f 137 136 2
f 141 140 5
f 137 145 3
f 135 134 143
f 141 146 6
f 138 3 4
f 135 144 2
