# eclipse Planet1_Bead.obj: Roblox cue frame, recentred on its bounding box
v 0.00000 0.03000 0.00000
v 0.00000 0.01763 0.02427
v 0.00000 0.00000 0.03000
v 0.00000 -0.00927 0.02853
v 0.00000 -0.01763 0.02427
v 0.00000 -0.02853 0.00927
v 0.00000 -0.03000 0.00000
v -0.00355 0.02853 0.00856
v -0.00675 0.02427 0.01629
v -0.00929 0.01763 0.02242
v -0.01092 0.00927 0.02636
v -0.01148 0.00000 0.02772
v -0.01092 -0.00927 0.02636
v -0.00929 -0.01763 0.02242
v -0.00675 -0.02427 0.01629
v -0.00355 -0.02853 0.00856
v -0.00656 0.02853 0.00656
v -0.01247 0.02427 0.01247
v -0.01716 0.01763 0.01716
v -0.02017 0.00927 0.02017
v -0.02121 0.00000 0.02121
v -0.02017 -0.00927 0.02017
v -0.01716 -0.01763 0.01716
v -0.01247 -0.02427 0.01247
v -0.00656 -0.02853 0.00656
v -0.00856 0.02853 0.00355
v -0.01629 0.02427 0.00675
v -0.02242 0.01763 0.00929
v -0.02636 0.00927 0.01092
v -0.02772 0.00000 0.01148
v -0.02636 -0.00927 0.01092
v -0.02242 -0.01763 0.00929
v -0.01629 -0.02427 0.00675
v -0.00856 -0.02853 0.00355
v -0.00927 0.02853 0.00000
v -0.01763 0.02427 0.00000
v -0.02427 0.01763 0.00000
v -0.02853 0.00927 0.00000
v -0.03000 0.00000 0.00000
v -0.02853 -0.00927 0.00000
v -0.02427 -0.01763 0.00000
v -0.01763 -0.02427 0.00000
v -0.00927 -0.02853 0.00000
v -0.00856 0.02853 -0.00355
v -0.01629 0.02427 -0.00675
v -0.02242 0.01763 -0.00929
v -0.02636 0.00927 -0.01092
v -0.02772 0.00000 -0.01148
v -0.02636 -0.00927 -0.01092
v -0.02242 -0.01763 -0.00929
v -0.01629 -0.02427 -0.00675
v -0.00856 -0.02853 -0.00355
v -0.00656 0.02853 -0.00656
v -0.01247 0.02427 -0.01247
v -0.01716 0.01763 -0.01716
v -0.02017 0.00927 -0.02017
v -0.02121 0.00000 -0.02121
v -0.02017 -0.00927 -0.02017
v -0.01716 -0.01763 -0.01716
v -0.01247 -0.02427 -0.01247
v -0.00656 -0.02853 -0.00656
v -0.00355 0.02853 -0.00856
v -0.00675 0.02427 -0.01629
v -0.00929 0.01763 -0.02242
v -0.01092 0.00927 -0.02636
v -0.01148 0.00000 -0.02772
v -0.01092 -0.00927 -0.02636
v -0.00929 -0.01763 -0.02242
v -0.00675 -0.02427 -0.01629
v -0.00355 -0.02853 -0.00856
v 0.00000 0.02853 -0.00927
v 0.00000 0.02427 -0.01763
v 0.00000 0.01763 -0.02427
v 0.00000 0.00927 -0.02853
v 0.00000 0.00000 -0.03000
v 0.00000 -0.00927 -0.02853
v 0.00000 -0.01763 -0.02427
v 0.00000 -0.02427 -0.01763
v 0.00000 -0.02853 -0.00927
v 0.00355 0.02853 -0.00856
v 0.00675 0.02427 -0.01629
v 0.00929 0.01763 -0.02242
v 0.01092 0.00927 -0.02636
v 0.01148 0.00000 -0.02772
v 0.01092 -0.00927 -0.02636
v 0.00929 -0.01763 -0.02242
v 0.00675 -0.02427 -0.01629
v 0.00355 -0.02853 -0.00856
v 0.00656 0.02853 -0.00656
v 0.01247 0.02427 -0.01247
v 0.01716 0.01763 -0.01716
v 0.02017 0.00927 -0.02017
v 0.02121 0.00000 -0.02121
v 0.02017 -0.00927 -0.02017
v 0.01716 -0.01763 -0.01716
v 0.01247 -0.02427 -0.01247
v 0.00656 -0.02853 -0.00656
v 0.00856 0.02853 -0.00355
v 0.01629 0.02427 -0.00675
v 0.02242 0.01763 -0.00929
v 0.02636 0.00927 -0.01092
v 0.02772 0.00000 -0.01148
v 0.02636 -0.00927 -0.01092
v 0.02242 -0.01763 -0.00929
v 0.01629 -0.02427 -0.00675
v 0.00856 -0.02853 -0.00355
v 0.00927 0.02853 0.00000
v 0.01763 0.02427 0.00000
v 0.02427 0.01763 0.00000
v 0.02853 0.00927 0.00000
v 0.03000 0.00000 0.00000
v 0.02853 -0.00927 0.00000
v 0.02427 -0.01763 0.00000
v 0.01763 -0.02427 0.00000
v 0.00927 -0.02853 0.00000
v 0.00856 0.02853 0.00355
v 0.01629 0.02427 0.00675
v 0.02242 0.01763 0.00929
v 0.02636 0.00927 0.01092
v 0.02772 0.00000 0.01148
v 0.02636 -0.00927 0.01092
v 0.02242 -0.01763 0.00929
v 0.01629 -0.02427 0.00675
v 0.00856 -0.02853 0.00355
v 0.00656 0.02853 0.00656
v 0.01247 0.02427 0.01247
v 0.01716 0.01763 0.01716
v 0.02017 0.00927 0.02017
v 0.02121 0.00000 0.02121
v 0.02017 -0.00927 0.02017
v 0.01716 -0.01763 0.01716
v 0.01247 -0.02427 0.01247
v 0.00656 -0.02853 0.00656
v 0.00355 0.02853 0.00856
v 0.00675 0.02427 0.01629
v 0.00929 0.01763 0.02242
v 0.01092 0.00927 0.02636
v 0.01148 0.00000 0.02772
v 0.01092 -0.00927 0.02636
v 0.00929 -0.01763 0.02242
v 0.00675 -0.02427 0.01629
v 0.00355 -0.02853 0.00856
v 0.00000 0.02853 0.00927
v 0.00000 0.02427 0.01763
v 0.00000 0.00927 0.02853
v 0.00000 -0.02427 0.01763
f 145 10 11
f 143 1 8
f 5 15 146
f 145 12 3
f 143 9 144
f 146 16 6
f 4 12 13
f 2 9 10
f 7 6 16
f 4 14 5
f 10 20 11
f 8 1 17
f 14 24 15
f 12 20 21
f 8 18 9
f 16 24 25
f 12 22 13
f 9 19 10
f 7 16 25
f 14 22 23
f 23 31 32
f 20 28 29
f 17 1 26
f 24 32 33
f 20 30 21
f 18 26 27
f 24 34 25
f 21 31 22
f 18 28 19
f 7 25 34
f 28 36 37
f 7 34 43
f 31 41 32
f 28 38 29
f 26 1 35
f 32 42 33
f 29 39 30
f 26 36 27
f 34 42 43
f 30 40 31
f 42 52 43
f 39 49 40
f 37 45 46
f 7 43 52
f 41 49 50
f 37 47 38
f 35 1 44
f 41 51 42
f 38 48 39
f 36 44 45
f 47 57 48
f 44 54 45
f 51 61 52
f 48 58 49
f 46 54 55
f 7 52 61
f 50 58 59
f 46 56 47
f 44 1 53
f 51 59 60
f 53 1 62
f 60 68 69
f 56 66 57
f 54 62 63
f 60 70 61
f 57 67 58
f 55 63 64
f 7 61 70
f 58 68 59
f 56 64 65
f 65 73 74
f 62 1 71
f 68 78 69
f 65 75 66
f 63 71 72
f 69 79 70
f 66 76 67
f 64 72 73
f 7 70 79
f 67 77 68
f 7 79 88
f 76 86 77
f 73 83 74
f 71 1 80
f 78 86 87
f 75 83 84
f 72 80 81
f 79 87 88
f 76 84 85
f 72 82 73
f 85 93 94
f 82 90 91
f 7 88 97
f 85 95 86
f 83 91 92
f 80 1 89
f 86 96 87
f 83 93 84
f 80 90 81
f 88 96 97
f 89 99 90
f 96 106 97
f 93 103 94
f 90 100 91
f 7 97 106
f 94 104 95
f 92 100 101
f 89 1 98
f 96 104 105
f 93 101 102
f 102 110 111
f 99 107 108
f 105 115 106
f 102 112 103
f 100 108 109
f 7 106 115
f 103 113 104
f 100 110 101
f 98 1 107
f 104 114 105
f 107 1 116
f 114 122 123
f 110 120 111
f 107 117 108
f 115 123 124
f 112 120 121
f 108 118 109
f 7 115 124
f 112 122 113
f 110 118 119
f 122 130 131
f 118 128 119
f 116 1 125
f 123 131 132
f 119 129 120
f 117 125 126
f 123 133 124
f 120 130 121
f 117 127 118
f 7 124 133
f 126 136 127
f 7 133 142
f 131 139 140
f 127 137 128
f 125 1 134
f 132 140 141
f 128 138 129
f 126 134 135
f 132 142 133
f 130 138 139
f 138 4 139
f 135 2 136
f 7 142 6
f 140 4 5
f 136 145 137
f 134 1 143
f 141 5 146
f 138 145 3
f 135 143 144
f 141 6 142
f 145 2 10
f 5 14 15
f 145 11 12
f 143 8 9
f 146 15 16
f 4 3 12
f 2 144 9
f 4 13 14
f 10 19 20
f 14 23 24
f 12 11 20
f 8 17 18
f 16 15 24
f 12 21 22
f 9 18 19
f 14 13 22
f 23 22 31
f 20 19 28
f 24 23 32
f 20 29 30
f 18 17 26
f 24 33 34
f 21 30 31
f 18 27 28
f 28 27 36
f 31 40 41
f 28 37 38
f 32 41 42
f 29 38 39
f 26 35 36
f 34 33 42
f 30 39 40
f 42 51 52
f 39 48 49
f 37 36 45
f 41 40 49
f 37 46 47
f 41 50 51
f 38 47 48
f 36 35 44
f 47 56 57
f 44 53 54
f 51 60 61
f 48 57 58
f 46 45 54
f 50 49 58
f 46 55 56
f 51 50 59
f 60 59 68
f 56 65 66
f 54 53 62
f 60 69 70
f 57 66 67
f 55 54 63
f 58 67 68
f 56 55 64
f 65 64 73
f 68 77 78
f 65 74 75
f 63 62 71
f 69 78 79
f 66 75 76
f 64 63 72
f 67 76 77
f 76 85 86
f 73 82 83
f 78 77 86
f 75 74 83
f 72 71 80
f 79 78 87
f 76 75 84
f 72 81 82
f 85 84 93
f 82 81 90
f 85 94 95
f 83 82 91
f 86 95 96
f 83 92 93
f 80 89 90
f 88 87 96
f 89 98 99
f 96 105 106
f 93 102 103
f 90 99 100
f 94 103 104
f 92 91 100
f 96 95 104
f 93 92 101
f 102 101 110
f 99 98 107
f 105 114 115
f 102 111 112
f 100 99 108
f 103 112 113
f 100 109 110
f 104 113 114
f 114 113 122
f 110 119 120
f 107 116 117
f 115 114 123
f 112 111 120
f 108 117 118
f 112 121 122
f 110 109 118
f 122 121 130
f 118 127 128
f 123 122 131
f 119 128 129
f 117 116 125
f 123 132 133
f 120 129 130
f 117 126 127
f 126 135 136
f 131 130 139
f 127 136 137
f 132 131 140
f 128 137 138
f 126 125 134
f 132 141 142
f 130 129 138
f 138 3 4
f 135 144 2
f 140 139 4
f 136 2 145
f 141 140 5
f 138 137 145
f 135 134 143
f 141 146 6
