# eclipse Prominences_Gold.obj: Roblox cue frame, recentred on its bounding box
v 0.02858 0.56110 0.59586
v 0.02858 0.67650 0.48046
v 0.01202 0.64617 0.56295
v 0.01202 0.74332 0.44575
v -0.00342 0.72712 0.52120
v -0.00342 0.80700 0.40495
v -0.01667 0.80112 0.47350
v -0.01667 0.86533 0.36087
v -0.02684 0.86632 0.42344
v -0.02684 0.91688 0.31683
v -0.03323 0.92184 0.37469
v -0.03323 0.96099 0.27614
v -0.03542 0.96767 0.33050
v -0.03542 0.99764 0.24168
v -0.03323 1.00441 0.29325
v -0.03323 1.02717 0.21550
v -0.02684 1.03289 0.26414
v -0.02684 1.05006 0.19858
v -0.01667 1.05403 0.24312
v -0.01667 1.06673 0.19080
v -0.00342 1.06870 0.22889
v -0.00342 1.07753 0.19098
v 0.01202 1.07775 0.21897
v 0.01202 1.08275 0.19718
v 0.02858 1.08241 0.20848
v 0.02858 1.08241 0.20848
v 0.02858 0.81749 0.22226
v 0.02858 0.85218 0.06279
v 0.01202 0.88048 0.14970
v 0.01202 0.89885 -0.00141
v -0.00342 0.93520 0.07027
v -0.00342 0.93955 -0.07072
v -0.01667 0.98046 -0.01188
v -0.01667 0.97358 -0.14135
v -0.02684 1.01633 -0.09236
v -0.02684 1.00123 -0.20938
v -0.03323 1.04391 -0.16714
v -0.03323 1.02357 -0.27121
v -0.03542 1.06487 -0.23303
v -0.03542 1.04206 -0.32395
v -0.03323 1.08099 -0.28793
v -0.03323 1.05810 -0.36565
v -0.02684 1.09365 -0.33097
v -0.02684 1.07265 -0.39540
v -0.01667 1.10361 -0.36248
v -0.01667 1.08601 -0.41336
v -0.00342 1.11087 -0.38397
v -0.00342 1.09780 -0.42063
v 0.01202 1.11476 -0.39804
v 0.01202 1.10718 -0.41907
v 0.02858 1.11357 -0.40958
v 0.02858 1.11357 -0.40958
v 0.02858 0.83119 -0.23064
v 0.02858 0.77416 -0.38355
v 0.01202 0.85145 -0.32888
v 0.01202 0.78520 -0.46593
v -0.00342 0.86030 -0.42950
v -0.00342 0.78774 -0.55045
v -0.01667 0.85885 -0.52807
v -0.01667 0.78307 -0.63327
v -0.02684 0.84950 -0.62059
v -0.02684 0.77353 -0.71087
v -0.03323 0.83541 -0.70390
v -0.03323 0.76204 -0.78045
v -0.03542 0.81988 -0.77587
v -0.03542 0.75153 -0.84002
v -0.03323 0.80569 -0.83543
v -0.03323 0.74443 -0.88843
v -0.02684 0.79465 -0.88239
v -0.02684 0.74215 -0.92525
v -0.01667 0.78729 -0.91734
v -0.01667 0.74498 -0.95063
v -0.00342 0.78283 -0.94148
v -0.00342 0.75201 -0.96525
v 0.01202 0.77921 -0.95663
v 0.01202 0.76146 -0.97023
v 0.02858 0.77225 -0.96609
v 0.02858 0.77225 -0.96609
v 0.02858 0.59786 -0.61906
v 0.02858 0.46722 -0.71686
v 0.01202 0.55610 -0.70335
v 0.01202 0.42627 -0.78283
v -0.00342 0.50525 -0.78269
v -0.00342 0.37882 -0.84522
v -0.01667 0.44860 -0.85447
v -0.01667 0.32798 -0.90200
v -0.02684 0.39009 -0.91709
v -0.02684 0.27737 -0.95196
v -0.03323 0.33369 -0.97000
v -0.03323 0.23057 -0.99473
v -0.03542 0.28284 -1.01351
v -0.03542 0.19067 -1.03053
v -0.03323 0.24005 -1.04842
v -0.03323 0.15986 -1.05989
v -0.02684 0.20657 -1.07569
v -0.02684 0.13924 -1.08335
v -0.01667 0.18233 -1.09616
v -0.01667 0.12874 -1.10128
v -0.00342 0.16594 -1.11049
v -0.00342 0.12716 -1.11383
v 0.01202 0.15479 -1.11913
v 0.01202 0.13251 -1.12098
v 0.02858 0.14378 -1.12261
v 0.02858 0.14378 -1.12261
v 0.02858 0.19158 -0.81967
v 0.02858 0.02880 -0.83131
v 0.01202 0.11098 -0.86324
v 0.01202 -0.04121 -0.85991
v -0.00342 0.02626 -0.89788
v -0.00342 -0.11391 -0.88212
v -0.01667 -0.05854 -0.92333
v -0.01667 -0.18571 -0.89809
v -0.02684 -0.13945 -0.94049
v -0.02684 -0.25313 -0.90888
v -0.03323 -0.21308 -0.95111
v -0.03323 -0.31319 -0.91617
v -0.03542 -0.27692 -0.95732
v -0.03542 -0.36366 -0.92181
v -0.03323 -0.32952 -0.96111
v -0.03323 -0.40319 -0.92740
v -0.02684 -0.37051 -0.96393
v -0.02684 -0.43130 -0.93398
v -0.01667 -0.40049 -0.96643
v -0.01667 -0.44835 -0.94176
v -0.00342 -0.42103 -0.96841
v -0.00342 -0.45546 -0.95025
v 0.01202 -0.43455 -0.96888
v 0.01202 -0.45429 -0.95839
v 0.02858 -0.44554 -0.96558
v 0.02858 -0.44554 -0.96558
v 0.02858 -0.25866 -0.76878
v 0.02858 -0.40190 -0.69056
v 0.01202 -0.35672 -0.77178
v 0.01202 -0.48295 -0.68671
v -0.00342 -0.45501 -0.76361
v -0.00342 -0.56441 -0.67457
v -0.01667 -0.54949 -0.74603
v -0.01667 -0.64283 -0.65605
v -0.02684 -0.63669 -0.72198
v -0.02684 -0.71524 -0.63394
v -0.03323 -0.71413 -0.69499
v -0.03323 -0.77946 -0.61147
v -0.03542 -0.78034 -0.66851
v -0.03542 -0.83412 -0.59173
v -0.03323 -0.83477 -0.64534
v -0.03323 -0.87852 -0.57716
v -0.02684 -0.87759 -0.62722
v -0.02684 -0.91253 -0.56916
v -0.01667 -0.90949 -0.61453
v -0.01667 -0.93642 -0.56791
v -0.00342 -0.93159 -0.60630
v -0.00342 -0.95074 -0.57241
v 0.01202 -0.94540 -0.60029
v 0.01202 -0.95634 -0.58079
v 0.02858 -0.95356 -0.59194
v 0.02858 -0.95356 -0.59194
v 0.02858 -0.60992 -0.48254
v 0.02858 -0.68813 -0.33931
v 0.01202 -0.69594 -0.43288
v 0.01202 -0.75613 -0.29307
v -0.00342 -0.77621 -0.37332
v -0.00342 -0.82011 -0.23927
v -0.01667 -0.84820 -0.30758
v -0.01667 -0.87807 -0.18142
v -0.02684 -0.91049 -0.24005
v -0.02684 -0.92896 -0.12351
v -0.03323 -0.96282 -0.17512
v -0.03323 -0.97263 -0.06954
v -0.03542 -1.00580 -0.11660
v -0.03542 -1.00953 -0.02294
v -0.03323 -1.04045 -0.06723
v -0.03323 -1.04039 0.01378
v -0.02684 -1.06782 -0.02844
v -0.02684 -1.06582 0.03930
v -0.01667 -1.08870 -0.00022
v -0.01667 -1.08615 0.05355
v -0.00342 -1.10350 0.01883
v -0.00342 -1.10129 0.05769
v 0.01202 -1.11227 0.03143
v 0.01202 -1.11093 0.05374
v 0.02858 -1.11476 0.04287
v 0.02858 -1.11476 0.04287
v 0.02858 -0.75067 -0.05185
v 0.02858 -0.73902 0.11094
v 0.01202 -0.78391 0.03439
v 0.01202 -0.75896 0.18456
v -0.00342 -0.80764 0.12373
v -0.00342 -0.77210 0.26023
v -0.01667 -0.82212 0.21205
v -0.01667 -0.77905 0.33433
v -0.02684 -0.82879 0.29549
v -0.02684 -0.78133 0.40351
v -0.03323 -0.82984 0.37085
v -0.03323 -0.78101 0.46497
v -0.03542 -0.82776 0.43589
v -0.03542 -0.78026 0.51669
v -0.03323 -0.82473 0.48937
v -0.03323 -0.78089 0.55749
v -0.02684 -0.82227 0.53108
v -0.02684 -0.78397 0.58699
v -0.01667 -0.82095 0.56169
v -0.01667 -0.78973 0.60555
v -0.00342 -0.82034 0.58269
v -0.00342 -0.79747 0.61419
v 0.01202 -0.81912 0.59635
v 0.01202 -0.80593 0.61440
v 0.02858 -0.81437 0.60683
v 0.02858 -0.81437 0.60683
v 0.02858 -0.63622 0.38657
v 0.02858 -0.53841 0.51722
v 0.01202 -0.61809 0.47758
v 0.01202 -0.51591 0.59041
v -0.00342 -0.59018 0.56612
v -0.00342 -0.48649 0.66173
v -0.01667 -0.55495 0.64886
v -0.01667 -0.45260 0.72845
v -0.02684 -0.51567 0.72329
v -0.02684 -0.41734 0.78851
v -0.03323 -0.47596 0.78787
v -0.03323 -0.38399 0.84065
v -0.03542 -0.43913 0.84202
v -0.03542 -0.35549 0.88432
v -0.03323 -0.40773 0.88588
v -0.03323 -0.33401 0.91948
v -0.02684 -0.38315 0.92006
v -0.02684 -0.32070 0.94638
v -0.01667 -0.36552 0.94542
v -0.01667 -0.31555 0.96543
v -0.00342 -0.35370 0.96299
v -0.00342 -0.31743 0.97712
v 0.01202 -0.34532 0.97396
v 0.01202 -0.32446 0.98201
v 0.02858 -0.33567 0.98025
v 0.02858 -0.33567 0.98025
v 0.02858 -0.30291 0.69352
v 0.02858 -0.15000 0.75055
v 0.01202 -0.24166 0.77213
v 0.01202 -0.09470 0.81181
v -0.00342 -0.17132 0.84366
v -0.00342 -0.03239 0.86803
v -0.01667 -0.09596 0.90609
v -0.01667 0.03317 0.91771
v -0.02684 -0.02013 0.95864
v -0.02684 0.09784 0.96035
v -0.03323 0.05174 1.00167
v -0.03323 0.15764 0.99635
v -0.03542 0.11596 1.03628
v -0.03542 0.20920 1.02664
v -0.03323 0.16993 1.06390
v -0.03323 0.25011 1.05231
v -0.02684 0.21237 1.08576
v -0.02684 0.27914 1.07415
v -0.01667 0.24339 1.10264
v -0.01667 0.29625 1.09246
v -0.00342 0.26442 1.11475
v -0.00342 0.30257 1.10703
v 0.01202 0.27817 1.12174
v 0.01202 0.30007 1.11724
v 0.02858 0.28986 1.12261
v 0.02858 0.28986 1.12261
v 0.02858 0.14343 0.77154
v 0.02858 0.30290 0.73684
v 0.01202 0.23641 0.80124
v 0.01202 0.38150 0.75518
v -0.00342 0.33264 0.82036
v -0.00342 0.46269 0.76575
v -0.01667 0.42775 0.82946
v -0.01667 0.54266 0.76942
v -0.02684 0.51763 0.83041
v -0.02684 0.61780 0.76806
v -0.03323 0.59896 0.82587
v -0.03323 0.68518 0.76414
v -0.03542 0.66939 0.81874
v -0.03542 0.74261 0.76023
v -0.03323 0.72763 0.81155
v -0.03323 0.78882 0.75846
v -0.02684 0.77339 0.80598
v -0.02684 0.82328 0.76011
v -0.01667 0.80725 0.80259
v -0.01667 0.84622 0.76544
v -0.00342 0.83054 0.80076
v -0.00342 0.85846 0.77364
v 0.01202 0.84536 0.79878
v 0.01202 0.86134 0.78315
v 0.02858 0.85550 0.79303
v 0.02858 0.85550 0.79303
v 0.03503 0.56347 0.59802
v 0.03503 0.67887 0.48262
v 0.01847 0.64855 0.56507
v 0.01852 0.74576 0.44765
v 0.00311 0.72956 0.52301
v 0.00321 0.80937 0.40649
v -0.01001 0.80344 0.47494
v -0.00988 0.86743 0.36200
v -0.01999 0.86830 0.42446
v -0.01985 0.91844 0.31754
v -0.02619 0.92320 0.37527
v -0.02608 0.96170 0.27642
v -0.02823 0.96808 0.33065
v -0.02823 0.99716 0.24154
v -0.02610 1.00347 0.29296
v -0.02633 1.02520 0.21494
v -0.02016 1.03029 0.26343
v -0.02065 1.04650 0.19766
v -0.01103 1.04969 0.24204
v -0.01157 1.06179 0.18960
v 0.00065 1.06292 0.22752
v 0.00034 1.07155 0.18958
v 0.01427 1.07109 0.21743
v 0.01420 1.07606 0.19564
v 0.02953 1.07545 0.20689
v 0.02953 1.07545 0.20689
v 0.03529 0.82006 0.22270
v 0.03529 0.85476 0.06323
v 0.01874 0.88304 0.15010
v 0.01877 0.90135 -0.00118
v 0.00335 0.93765 0.07043
v 0.00341 0.94184 -0.07070
v -0.00981 0.98264 -0.01192
v -0.00973 0.97549 -0.14149
v -0.01986 1.01808 -0.09253
v -0.01977 1.00259 -0.20957
v -0.02613 1.04504 -0.16733
v -0.02606 1.02418 -0.27133
v -0.02822 1.06518 -0.23309
v -0.02822 1.04172 -0.32385
v -0.02608 1.08021 -0.28771
v -0.02621 1.05658 -0.36518
v -0.01999 1.09154 -0.33030
v -0.02030 1.06979 -0.39446
v -0.01058 1.09998 -0.36125
v -0.01100 1.08181 -0.41191
v 0.00129 1.10574 -0.38216
v 0.00097 1.09242 -0.41873
v 0.01478 1.10850 -0.39579
v 0.01470 1.10089 -0.41681
v 0.02978 1.10689 -0.40718
v 0.02978 1.10689 -0.40718
v 0.03542 0.83329 -0.23153
v 0.03542 0.77625 -0.38444
v 0.01886 0.85351 -0.32979
v 0.01888 0.78714 -0.46693
v 0.00346 0.86216 -0.43053
v 0.00350 0.78942 -0.55152
v -0.00972 0.86041 -0.52913
v -0.00966 0.78440 -0.63426
v -0.01980 0.85068 -0.62153
v -0.01974 0.77443 -0.71165
v -0.02610 0.83613 -0.70455
v -0.02606 0.76243 -0.78083
v -0.02822 0.82006 -0.77604
v -0.02822 0.75134 -0.83980
v -0.02607 0.80522 -0.83489
v -0.02616 0.74355 -0.88740
v -0.01991 0.79341 -0.88090
v -0.02014 0.74050 -0.92321
v -0.01035 0.78515 -0.91464
v -0.01070 0.74250 -0.94747
v 0.00168 0.77971 -0.93746
v 0.00137 0.74872 -0.96100
v 0.01514 0.77526 -0.95149
v 0.01505 0.75749 -0.96505
v 0.02998 0.76796 -0.96048
v 0.02998 0.76796 -0.96048
v 0.03521 0.59945 -0.62139
v 0.03521 0.46880 -0.71920
v 0.01865 0.55764 -0.70569
v 0.01869 0.42762 -0.78518
v 0.00328 0.50651 -0.78504
v 0.00335 0.37986 -0.84747
v -0.00987 0.44955 -0.85665
v -0.00978 0.32870 -0.90395
v -0.01990 0.39072 -0.91890
v -0.01980 0.27779 -0.95339
v -0.02615 0.33402 -0.97122
v -0.02607 0.23073 -0.99538
v -0.02822 0.28292 -1.01385
v -0.02823 0.19061 -1.03013
v -0.02609 0.23992 -1.04757
v -0.02625 0.15963 -1.05816
v -0.02005 0.20628 -1.07333
v -0.02042 0.13889 -1.08012
v -0.01073 0.18192 -1.09211
v -0.01120 0.12829 -1.09662
v 0.00106 0.16544 -1.10487
v 0.00074 0.12665 -1.10797
v 0.01458 0.15423 -1.11243
v 0.01451 0.13195 -1.11424
v 0.02968 0.14319 -1.11552
v 0.02968 0.14319 -1.11552
v 0.03506 0.19166 -0.82281
v 0.03506 0.02888 -0.83446
v 0.01851 0.11102 -0.86636
v 0.01855 -0.04136 -0.86294
v 0.00314 0.02603 -0.90084
v 0.00323 -0.11430 -0.88486
v -0.00998 -0.05897 -0.92596
v -0.00986 -0.18622 -0.90037
v -0.01998 -0.13997 -0.94260
v -0.01984 -0.25361 -0.91049
v -0.02618 -0.21351 -0.95249
v -0.02607 -0.31344 -0.91688
v -0.02823 -0.27706 -0.95771
v -0.02823 -0.36346 -0.92136
v -0.02610 -0.32913 -0.96024
v -0.02632 -0.40234 -0.92560
v -0.02014 -0.36936 -0.96155
v -0.02061 -0.42969 -0.93075
v -0.01098 -0.39850 -0.96250
v -0.01151 -0.44605 -0.93730
v 0.00072 -0.41830 -0.96318
v 0.00040 -0.45262 -0.94485
v 0.01432 -0.43135 -0.96285
v 0.01424 -0.45108 -0.95234
v 0.02955 -0.44220 -0.95928
v 0.02955 -0.44220 -0.95928
v 0.03536 -0.25993 -0.77086
v 0.03536 -0.40316 -0.69265
v 0.01880 -0.35800 -0.77383
v 0.01883 -0.48431 -0.68861
v 0.00341 -0.45640 -0.76543
v 0.00346 -0.56580 -0.67619
v -0.00976 -0.55085 -0.74753
v -0.00969 -0.64409 -0.65731
v -0.01983 -0.63788 -0.72310
v -0.01976 -0.71621 -0.63477
v -0.02611 -0.71495 -0.69567
v -0.02606 -0.77993 -0.61183
v -0.02822 -0.78056 -0.66868
v -0.02822 -0.83385 -0.59155
v -0.02607 -0.83414 -0.64493
v -0.02619 -0.87728 -0.57638
v -0.01994 -0.87582 -0.62614
v -0.02021 -0.91012 -0.56772
v -0.01046 -0.90635 -0.61269
v -0.01084 -0.93275 -0.56579
v 0.00149 -0.92701 -0.60369
v 0.00118 -0.94592 -0.56967
v 0.01496 -0.93968 -0.59706
v 0.01487 -0.95057 -0.57755
v 0.02988 -0.94738 -0.58847
v 0.02988 -0.94738 -0.58847
v 0.03539 -0.61202 -0.48357
v 0.03539 -0.69024 -0.34034
v 0.01884 -0.69804 -0.43387
v 0.01886 -0.75822 -0.29390
v 0.00344 -0.77827 -0.37407
v 0.00349 -0.82207 -0.23987
v -0.00974 -0.85007 -0.30809
v -0.00968 -0.87974 -0.18178
v -0.01981 -0.91202 -0.24034
v -0.01975 -0.93018 -0.12369
v -0.02611 -0.96383 -0.17524
v -0.02606 -0.97319 -0.06959
v -0.02822 -1.00606 -0.11662
v -0.02822 -1.00923 -0.02294
v -0.02607 -1.03972 -0.06723
v -0.02617 -1.03899 0.01377
v -0.01992 -1.06582 -0.02848
v -0.02017 -1.06312 0.03921
v -0.01039 -1.08518 -0.00037
v -0.01076 -1.08204 0.05336
v 0.00160 -1.09834 0.01855
v 0.00129 -1.09585 0.05738
v 0.01507 -1.10576 0.03104
v 0.01497 -1.10437 0.05335
v 0.02994 -1.10770 0.04244
v 0.02994 -1.10770 0.04244
v 0.03512 -0.75368 -0.05150
v 0.03512 -0.74203 0.11129
v 0.01856 -0.78689 0.03478
v 0.01860 -0.76182 0.18512
v 0.00319 -0.81043 0.12435
v 0.00327 -0.77465 0.26097
v -0.00994 -0.82456 0.21282
v -0.00983 -0.78114 0.33512
v -0.01995 -0.83072 0.29626
v -0.01982 -0.78279 0.40418
v -0.02617 -0.83108 0.37145
v -0.02607 -0.78165 0.46531
v -0.02823 -0.82810 0.43607
v -0.02823 -0.77987 0.51645
v -0.02609 -0.82395 0.48888
v -0.02629 -0.77929 0.55644
v -0.02011 -0.82016 0.52966
v -0.02054 -0.78111 0.58501
v -0.01089 -0.81744 0.55922
v -0.01140 -0.78573 0.60270
v 0.00084 -0.81563 0.57929
v 0.00052 -0.79259 0.61065
v 0.01441 -0.81363 0.59235
v 0.01433 -0.80042 0.61038
v 0.02960 -0.80862 0.60263
v 0.02960 -0.80862 0.60263
v 0.03514 -0.63852 0.38846
v 0.03514 -0.54072 0.51911
v 0.01858 -0.62035 0.47949
v 0.01862 -0.51798 0.59240
v 0.00321 -0.59216 0.56812
v 0.00329 -0.48821 0.66371
v -0.00992 -0.55656 0.65080
v -0.00982 -0.45391 0.73022
v -0.01994 -0.51685 0.72496
v -0.01982 -0.41819 0.78984
v -0.02616 -0.47667 0.78902
v -0.02607 -0.38434 0.84127
v -0.02823 -0.43932 0.84235
v -0.02823 -0.35530 0.88392
v -0.02609 -0.40734 0.88505
v -0.02628 -0.33325 0.91777
v -0.02009 -0.38215 0.91775
v -0.02051 -0.31938 0.94322
v -0.01085 -0.36392 0.94149
v -0.01135 -0.31374 0.96092
v 0.00089 -0.35159 0.95762
v 0.00057 -0.31525 0.97154
v 0.01445 -0.34287 0.96764
v 0.01437 -0.32201 0.97566
v 0.02962 -0.33311 0.97360
v 0.02962 -0.33311 0.97360
v 0.03540 -0.30362 0.69572
v 0.03540 -0.15071 0.75276
v 0.01884 -0.24233 0.77433
v 0.01887 -0.09522 0.81398
v 0.00345 -0.17177 0.84578
v 0.00349 -0.03270 0.87003
v -0.00973 -0.09619 0.90800
v -0.00967 0.03305 0.91940
v -0.01981 -0.02020 0.96018
v -0.01974 0.09784 0.96156
v -0.02610 0.05176 1.00267
v -0.02606 0.15767 0.99690
v -0.02822 0.11598 1.03654
v -0.02822 0.20916 1.02635
v -0.02607 0.16983 1.06318
v -0.02617 0.24990 1.05094
v -0.01992 0.21205 1.08381
v -0.02016 0.27867 1.07151
v -0.01038 0.24274 1.09921
v -0.01074 0.29548 1.08846
v 0.00163 0.26341 1.10971
v 0.00132 0.30150 1.10171
v 0.01509 0.27687 1.11537
v 0.01500 0.29876 1.11082
v 0.02995 0.28843 1.11568
v 0.02995 0.28843 1.11568
v 0.03534 0.14407 0.77393
v 0.03534 0.30354 0.73924
v 0.01879 0.23708 0.80361
v 0.01881 0.38228 0.75743
v 0.00340 0.33347 0.82253
v 0.00345 0.46358 0.76772
v -0.00977 0.42864 0.83132
v -0.00970 0.54353 0.77101
v -0.01983 0.51847 0.83184
v -0.01976 0.61851 0.76915
v -0.02612 0.59956 0.82676
v -0.02606 0.68552 0.76462
v -0.02822 0.66956 0.81897
v -0.02822 0.74240 0.75997
v -0.02608 0.72713 0.81097
v -0.02619 0.78783 0.75734
v -0.01995 0.77198 0.80442
v -0.02023 0.82134 0.75802
v -0.01048 0.80472 0.79991
v -0.01088 0.84327 0.76234
v 0.00145 0.82685 0.79694
v 0.00113 0.85458 0.76963
v 0.01492 0.84076 0.79406
v 0.01483 0.85672 0.77840
v 0.02986 0.85054 0.78796
v 0.02986 0.85054 0.78796
s 1
f 3 2 1
s 1
f 5 4 3
s 1
f 7 6 5
s 1
f 9 8 7
s 1
f 11 10 9
s 1
f 13 12 11
s 1
f 15 14 13
s 1
f 17 16 15
s 1
f 19 18 17
s 1
f 21 20 19
s 1
f 23 22 21
s 1
f 23 26 24
s 1
f 29 28 27
s 1
f 31 30 29
s 1
f 33 32 31
s 1
f 35 34 33
s 1
f 37 36 35
s 1
f 39 38 37
s 1
f 41 40 39
s 1
f 43 42 41
s 1
f 45 44 43
s 1
f 47 46 45
s 1
f 49 48 47
s 1
f 49 52 50
s 1
f 55 54 53
s 1
f 57 56 55
s 1
f 59 58 57
s 1
f 61 60 59
s 1
f 63 62 61
s 1
f 65 64 63
s 1
f 67 66 65
s 1
f 69 68 67
s 1
f 71 70 69
s 1
f 73 72 71
s 1
f 75 74 73
s 1
f 75 78 76
s 1
f 81 80 79
s 1
f 83 82 81
s 1
f 85 84 83
s 1
f 87 86 85
s 1
f 89 88 87
s 1
f 91 90 89
s 1
f 93 92 91
s 1
f 95 94 93
s 1
f 97 96 95
s 1
f 99 98 97
s 1
f 101 100 99
s 1
f 101 104 102
s 1
f 107 106 105
s 1
f 109 108 107
s 1
f 111 110 109
s 1
f 113 112 111
s 1
f 115 114 113
s 1
f 117 116 115
s 1
f 119 118 117
s 1
f 121 120 119
s 1
f 123 122 121
s 1
f 125 124 123
s 1
f 127 126 125
s 1
f 127 130 128
s 1
f 133 132 131
s 1
f 135 134 133
s 1
f 137 136 135
s 1
f 139 138 137
s 1
f 141 140 139
s 1
f 143 142 141
s 1
f 145 144 143
s 1
f 147 146 145
s 1
f 149 148 147
s 1
f 151 150 149
s 1
f 153 152 151
s 1
f 153 156 154
s 1
f 159 158 157
s 1
f 161 160 159
s 1
f 163 162 161
s 1
f 165 164 163
s 1
f 167 166 165
s 1
f 169 168 167
s 1
f 171 170 169
s 1
f 173 172 171
s 1
f 175 174 173
s 1
f 177 176 175
s 1
f 179 178 177
s 1
f 179 182 180
s 1
f 185 184 183
s 1
f 187 186 185
s 1
f 189 188 187
s 1
f 191 190 189
s 1
f 193 192 191
s 1
f 195 194 193
s 1
f 197 196 195
s 1
f 199 198 197
s 1
f 201 200 199
s 1
f 203 202 201
s 1
f 205 204 203
s 1
f 205 208 206
s 1
f 211 210 209
s 1
f 213 212 211
s 1
f 215 214 213
s 1
f 217 216 215
s 1
f 219 218 217
s 1
f 221 220 219
s 1
f 223 222 221
s 1
f 225 224 223
s 1
f 227 226 225
s 1
f 229 228 227
s 1
f 231 230 229
s 1
f 231 234 232
s 1
f 237 236 235
s 1
f 239 238 237
s 1
f 241 240 239
s 1
f 243 242 241
s 1
f 245 244 243
s 1
f 247 246 245
s 1
f 249 248 247
s 1
f 251 250 249
s 1
f 253 252 251
s 1
f 255 254 253
s 1
f 257 256 255
s 1
f 257 260 258
s 1
f 263 262 261
s 1
f 265 264 263
s 1
f 267 266 265
s 1
f 269 268 267
s 1
f 271 270 269
s 1
f 273 272 271
s 1
f 275 274 273
s 1
f 277 276 275
s 1
f 279 278 277
s 1
f 281 280 279
s 1
f 283 282 281
s 1
f 283 286 284
s 1
f 288 289 287
s 1
f 290 291 289
s 1
f 292 293 291
s 1
f 294 295 293
s 1
f 296 297 295
s 1
f 298 299 297
s 1
f 300 301 299
s 1
f 302 303 301
s 1
f 304 305 303
s 1
f 306 307 305
s 1
f 308 309 307
s 1
f 309 312 311
s 1
f 314 315 313
s 1
f 316 317 315
s 1
f 318 319 317
s 1
f 320 321 319
s 1
f 322 323 321
s 1
f 324 325 323
s 1
f 326 327 325
s 1
f 328 329 327
s 1
f 330 331 329
s 1
f 332 333 331
s 1
f 334 335 333
s 1
f 335 338 337
s 1
f 340 341 339
s 1
f 342 343 341
s 1
f 344 345 343
s 1
f 346 347 345
s 1
f 348 349 347
s 1
f 350 351 349
s 1
f 352 353 351
s 1
f 354 355 353
s 1
f 356 357 355
s 1
f 358 359 357
s 1
f 360 361 359
s 1
f 361 364 363
s 1
f 366 367 365
s 1
f 368 369 367
s 1
f 370 371 369
s 1
f 372 373 371
s 1
f 374 375 373
s 1
f 376 377 375
s 1
f 378 379 377
s 1
f 380 381 379
s 1
f 382 383 381
s 1
f 384 385 383
s 1
f 386 387 385
s 1
f 387 390 389
s 1
f 392 393 391
s 1
f 394 395 393
s 1
f 396 397 395
s 1
f 398 399 397
s 1
f 400 401 399
s 1
f 402 403 401
s 1
f 404 405 403
s 1
f 406 407 405
s 1
f 408 409 407
s 1
f 410 411 409
s 1
f 412 413 411
s 1
f 413 416 415
s 1
f 418 419 417
s 1
f 420 421 419
s 1
f 422 423 421
s 1
f 424 425 423
s 1
f 426 427 425
s 1
f 428 429 427
s 1
f 430 431 429
s 1
f 432 433 431
s 1
f 434 435 433
s 1
f 436 437 435
s 1
f 438 439 437
s 1
f 439 442 441
s 1
f 444 445 443
s 1
f 446 447 445
s 1
f 448 449 447
s 1
f 450 451 449
s 1
f 452 453 451
s 1
f 454 455 453
s 1
f 456 457 455
s 1
f 458 459 457
s 1
f 460 461 459
s 1
f 462 463 461
s 1
f 464 465 463
s 1
f 465 468 467
s 1
f 470 471 469
s 1
f 472 473 471
s 1
f 474 475 473
s 1
f 476 477 475
s 1
f 478 479 477
s 1
f 480 481 479
s 1
f 482 483 481
s 1
f 484 485 483
s 1
f 486 487 485
s 1
f 488 489 487
s 1
f 490 491 489
s 1
f 491 494 493
s 1
f 496 497 495
s 1
f 498 499 497
s 1
f 500 501 499
s 1
f 502 503 501
s 1
f 504 505 503
s 1
f 506 507 505
s 1
f 508 509 507
s 1
f 510 511 509
s 1
f 512 513 511
s 1
f 514 515 513
s 1
f 516 517 515
s 1
f 517 520 519
s 1
f 522 523 521
s 1
f 524 525 523
s 1
f 526 527 525
s 1
f 528 529 527
s 1
f 530 531 529
s 1
f 532 533 531
s 1
f 534 535 533
s 1
f 536 537 535
s 1
f 538 539 537
s 1
f 540 541 539
s 1
f 542 543 541
s 1
f 543 546 545
s 1
f 548 549 547
s 1
f 550 551 549
s 1
f 552 553 551
s 1
f 554 555 553
s 1
f 556 557 555
s 1
f 558 559 557
s 1
f 560 561 559
s 1
f 562 563 561
s 1
f 564 565 563
s 1
f 566 567 565
s 1
f 568 569 567
s 1
f 569 572 571
s 1
f 2 287 1
s 1
f 3 287 289
s 1
f 2 290 288
s 1
f 5 289 291
s 1
f 4 292 290
s 1
f 7 291 293
s 1
f 6 294 292
s 1
f 9 293 295
s 1
f 8 296 294
s 1
f 11 295 297
s 1
f 10 298 296
s 1
f 13 297 299
s 1
f 12 300 298
s 1
f 15 299 301
s 1
f 14 302 300
s 1
f 17 301 303
s 1
f 16 304 302
s 1
f 19 303 305
s 1
f 18 306 304
s 1
f 21 305 307
s 1
f 20 308 306
s 1
f 23 307 309
s 1
f 24 308 22
s 1
f 25 309 311
s 1
f 26 311 312
s 1
f 26 310 24
s 1
f 28 313 27
s 1
f 29 313 315
s 1
f 28 316 314
s 1
f 31 315 317
s 1
f 30 318 316
s 1
f 33 317 319
s 1
f 32 320 318
s 1
f 35 319 321
s 1
f 34 322 320
s 1
f 37 321 323
s 1
f 36 324 322
s 1
f 39 323 325
s 1
f 38 326 324
s 1
f 41 325 327
s 1
f 40 328 326
s 1
f 43 327 329
s 1
f 42 330 328
s 1
f 45 329 331
s 1
f 44 332 330
s 1
f 47 331 333
s 1
f 46 334 332
s 1
f 49 333 335
s 1
f 50 334 48
s 1
f 51 335 337
s 1
f 52 337 338
s 1
f 52 336 50
s 1
f 54 339 53
s 1
f 55 339 341
s 1
f 54 342 340
s 1
f 57 341 343
s 1
f 56 344 342
s 1
f 59 343 345
s 1
f 58 346 344
s 1
f 61 345 347
s 1
f 60 348 346
s 1
f 63 347 349
s 1
f 62 350 348
s 1
f 65 349 351
s 1
f 64 352 350
s 1
f 67 351 353
s 1
f 66 354 352
s 1
f 69 353 355
s 1
f 68 356 354
s 1
f 71 355 357
s 1
f 70 358 356
s 1
f 73 357 359
s 1
f 72 360 358
s 1
f 75 359 361
s 1
f 76 360 74
s 1
f 77 361 363
s 1
f 78 363 364
s 1
f 78 362 76
s 1
f 80 365 79
s 1
f 81 365 367
s 1
f 80 368 366
s 1
f 83 367 369
s 1
f 82 370 368
s 1
f 85 369 371
s 1
f 84 372 370
s 1
f 87 371 373
s 1
f 86 374 372
s 1
f 89 373 375
s 1
f 88 376 374
s 1
f 91 375 377
s 1
f 90 378 376
s 1
f 93 377 379
s 1
f 92 380 378
s 1
f 95 379 381
s 1
f 94 382 380
s 1
f 97 381 383
s 1
f 96 384 382
s 1
f 99 383 385
s 1
f 98 386 384
s 1
f 101 385 387
s 1
f 102 386 100
s 1
f 103 387 389
s 1
f 104 389 390
s 1
f 104 388 102
s 1
f 106 391 105
s 1
f 107 391 393
s 1
f 106 394 392
s 1
f 109 393 395
s 1
f 108 396 394
s 1
f 111 395 397
s 1
f 110 398 396
s 1
f 113 397 399
s 1
f 112 400 398
s 1
f 115 399 401
s 1
f 114 402 400
s 1
f 117 401 403
s 1
f 116 404 402
s 1
f 119 403 405
s 1
f 118 406 404
s 1
f 121 405 407
s 1
f 120 408 406
s 1
f 123 407 409
s 1
f 122 410 408
s 1
f 125 409 411
s 1
f 124 412 410
s 1
f 127 411 413
s 1
f 128 412 126
s 1
f 129 413 415
s 1
f 130 415 416
s 1
f 130 414 128
s 1
f 132 417 131
s 1
f 133 417 419
s 1
f 132 420 418
s 1
f 135 419 421
s 1
f 134 422 420
s 1
f 137 421 423
s 1
f 136 424 422
s 1
f 139 423 425
s 1
f 138 426 424
s 1
f 141 425 427
s 1
f 140 428 426
s 1
f 143 427 429
s 1
f 142 430 428
s 1
f 145 429 431
s 1
f 144 432 430
s 1
f 147 431 433
s 1
f 146 434 432
s 1
f 149 433 435
s 1
f 148 436 434
s 1
f 151 435 437
s 1
f 150 438 436
s 1
f 153 437 439
s 1
f 154 438 152
s 1
f 155 439 441
s 1
f 156 441 442
s 1
f 156 440 154
s 1
f 158 443 157
s 1
f 159 443 445
s 1
f 158 446 444
s 1
f 161 445 447
s 1
f 160 448 446
s 1
f 163 447 449
s 1
f 162 450 448
s 1
f 165 449 451
s 1
f 164 452 450
s 1
f 167 451 453
s 1
f 166 454 452
s 1
f 169 453 455
s 1
f 168 456 454
s 1
f 171 455 457
s 1
f 170 458 456
s 1
f 173 457 459
s 1
f 172 460 458
s 1
f 175 459 461
s 1
f 174 462 460
s 1
f 177 461 463
s 1
f 176 464 462
s 1
f 179 463 465
s 1
f 180 464 178
s 1
f 181 465 467
s 1
f 182 467 468
s 1
f 182 466 180
s 1
f 184 469 183
s 1
f 185 469 471
s 1
f 184 472 470
s 1
f 187 471 473
s 1
f 186 474 472
s 1
f 189 473 475
s 1
f 188 476 474
s 1
f 191 475 477
s 1
f 190 478 476
s 1
f 193 477 479
s 1
f 192 480 478
s 1
f 195 479 481
s 1
f 194 482 480
s 1
f 197 481 483
s 1
f 196 484 482
s 1
f 199 483 485
s 1
f 198 486 484
s 1
f 201 485 487
s 1
f 200 488 486
s 1
f 203 487 489
s 1
f 202 490 488
s 1
f 205 489 491
s 1
f 206 490 204
s 1
f 207 491 493
s 1
f 208 493 494
s 1
f 208 492 206
s 1
f 210 495 209
s 1
f 211 495 497
s 1
f 210 498 496
s 1
f 213 497 499
s 1
f 212 500 498
s 1
f 215 499 501
s 1
f 214 502 500
s 1
f 217 501 503
s 1
f 216 504 502
s 1
f 219 503 505
s 1
f 218 506 504
s 1
f 221 505 507
s 1
f 220 508 506
s 1
f 223 507 509
s 1
f 222 510 508
s 1
f 225 509 511
s 1
f 224 512 510
s 1
f 227 511 513
s 1
f 226 514 512
s 1
f 229 513 515
s 1
f 228 516 514
s 1
f 231 515 517
s 1
f 232 516 230
s 1
f 233 517 519
s 1
f 234 519 520
s 1
f 234 518 232
s 1
f 236 521 235
s 1
f 237 521 523
s 1
f 236 524 522
s 1
f 239 523 525
s 1
f 238 526 524
s 1
f 241 525 527
s 1
f 240 528 526
s 1
f 243 527 529
s 1
f 242 530 528
s 1
f 245 529 531
s 1
f 244 532 530
s 1
f 247 531 533
s 1
f 246 534 532
s 1
f 249 533 535
s 1
f 248 536 534
s 1
f 251 535 537
s 1
f 250 538 536
s 1
f 253 537 539
s 1
f 252 540 538
s 1
f 255 539 541
s 1
f 254 542 540
s 1
f 257 541 543
s 1
f 258 542 256
s 1
f 259 543 545
s 1
f 260 545 546
s 1
f 260 544 258
s 1
f 262 547 261
s 1
f 263 547 549
s 1
f 262 550 548
s 1
f 265 549 551
s 1
f 264 552 550
s 1
f 267 551 553
s 1
f 266 554 552
s 1
f 269 553 555
s 1
f 268 556 554
s 1
f 271 555 557
s 1
f 270 558 556
s 1
f 273 557 559
s 1
f 272 560 558
s 1
f 275 559 561
s 1
f 274 562 560
s 1
f 277 561 563
s 1
f 276 564 562
s 1
f 279 563 565
s 1
f 278 566 564
s 1
f 281 565 567
s 1
f 280 568 566
s 1
f 283 567 569
s 1
f 284 568 282
s 1
f 285 569 571
s 1
f 286 571 572
s 1
f 286 570 284
s 1
f 3 4 2
s 1
f 5 6 4
s 1
f 7 8 6
s 1
f 9 10 8
s 1
f 11 12 10
s 1
f 13 14 12
s 1
f 15 16 14
s 1
f 17 18 16
s 1
f 19 20 18
s 1
f 21 22 20
s 1
f 23 24 22
s 1
f 23 25 26
s 1
f 29 30 28
s 1
f 31 32 30
s 1
f 33 34 32
s 1
f 35 36 34
s 1
f 37 38 36
s 1
f 39 40 38
s 1
f 41 42 40
s 1
f 43 44 42
s 1
f 45 46 44
s 1
f 47 48 46
s 1
f 49 50 48
s 1
f 49 51 52
s 1
f 55 56 54
s 1
f 57 58 56
s 1
f 59 60 58
s 1
f 61 62 60
s 1
f 63 64 62
s 1
f 65 66 64
s 1
f 67 68 66
s 1
f 69 70 68
s 1
f 71 72 70
s 1
f 73 74 72
s 1
f 75 76 74
s 1
f 75 77 78
s 1
f 81 82 80
s 1
f 83 84 82
s 1
f 85 86 84
s 1
f 87 88 86
s 1
f 89 90 88
s 1
f 91 92 90
s 1
f 93 94 92
s 1
f 95 96 94
s 1
f 97 98 96
s 1
f 99 100 98
s 1
f 101 102 100
s 1
f 101 103 104
s 1
f 107 108 106
s 1
f 109 110 108
s 1
f 111 112 110
s 1
f 113 114 112
s 1
f 115 116 114
s 1
f 117 118 116
s 1
f 119 120 118
s 1
f 121 122 120
s 1
f 123 124 122
s 1
f 125 126 124
s 1
f 127 128 126
s 1
f 127 129 130
s 1
f 133 134 132
s 1
f 135 136 134
s 1
f 137 138 136
s 1
f 139 140 138
s 1
f 141 142 140
s 1
f 143 144 142
s 1
f 145 146 144
s 1
f 147 148 146
s 1
f 149 150 148
s 1
f 151 152 150
s 1
f 153 154 152
s 1
f 153 155 156
s 1
f 159 160 158
s 1
f 161 162 160
s 1
f 163 164 162
s 1
f 165 166 164
s 1
f 167 168 166
s 1
f 169 170 168
s 1
f 171 172 170
s 1
f 173 174 172
s 1
f 175 176 174
s 1
f 177 178 176
s 1
f 179 180 178
s 1
f 179 181 182
s 1
f 185 186 184
s 1
f 187 188 186
s 1
f 189 190 188
s 1
f 191 192 190
s 1
f 193 194 192
s 1
f 195 196 194
s 1
f 197 198 196
s 1
f 199 200 198
s 1
f 201 202 200
s 1
f 203 204 202
s 1
f 205 206 204
s 1
f 205 207 208
s 1
f 211 212 210
s 1
f 213 214 212
s 1
f 215 216 214
s 1
f 217 218 216
s 1
f 219 220 218
s 1
f 221 222 220
s 1
f 223 224 222
s 1
f 225 226 224
s 1
f 227 228 226
s 1
f 229 230 228
s 1
f 231 232 230
s 1
f 231 233 234
s 1
f 237 238 236
s 1
f 239 240 238
s 1
f 241 242 240
s 1
f 243 244 242
s 1
f 245 246 244
s 1
f 247 248 246
s 1
f 249 250 248
s 1
f 251 252 250
s 1
f 253 254 252
s 1
f 255 256 254
s 1
f 257 258 256
s 1
f 257 259 260
s 1
f 263 264 262
s 1
f 265 266 264
s 1
f 267 268 266
s 1
f 269 270 268
s 1
f 271 272 270
s 1
f 273 274 272
s 1
f 275 276 274
s 1
f 277 278 276
s 1
f 279 280 278
s 1
f 281 282 280
s 1
f 283 284 282
s 1
f 283 285 286
s 1
f 288 290 289
s 1
f 290 292 291
s 1
f 292 294 293
s 1
f 294 296 295
s 1
f 296 298 297
s 1
f 298 300 299
s 1
f 300 302 301
s 1
f 302 304 303
s 1
f 304 306 305
s 1
f 306 308 307
s 1
f 308 310 309
s 1
f 309 310 312
s 1
f 314 316 315
s 1
f 316 318 317
s 1
f 318 320 319
s 1
f 320 322 321
s 1
f 322 324 323
s 1
f 324 326 325
s 1
f 326 328 327
s 1
f 328 330 329
s 1
f 330 332 331
s 1
f 332 334 333
s 1
f 334 336 335
s 1
f 335 336 338
s 1
f 340 342 341
s 1
f 342 344 343
s 1
f 344 346 345
s 1
f 346 348 347
s 1
f 348 350 349
s 1
f 350 352 351
s 1
f 352 354 353
s 1
f 354 356 355
s 1
f 356 358 357
s 1
f 358 360 359
s 1
f 360 362 361
s 1
f 361 362 364
s 1
f 366 368 367
s 1
f 368 370 369
s 1
f 370 372 371
s 1
f 372 374 373
s 1
f 374 376 375
s 1
f 376 378 377
s 1
f 378 380 379
s 1
f 380 382 381
s 1
f 382 384 383
s 1
f 384 386 385
s 1
f 386 388 387
s 1
f 387 388 390
s 1
f 392 394 393
s 1
f 394 396 395
s 1
f 396 398 397
s 1
f 398 400 399
s 1
f 400 402 401
s 1
f 402 404 403
s 1
f 404 406 405
s 1
f 406 408 407
s 1
f 408 410 409
s 1
f 410 412 411
s 1
f 412 414 413
s 1
f 413 414 416
s 1
f 418 420 419
s 1
f 420 422 421
s 1
f 422 424 423
s 1
f 424 426 425
s 1
f 426 428 427
s 1
f 428 430 429
s 1
f 430 432 431
s 1
f 432 434 433
s 1
f 434 436 435
s 1
f 436 438 437
s 1
f 438 440 439
s 1
f 439 440 442
s 1
f 444 446 445
s 1
f 446 448 447
s 1
f 448 450 449
s 1
f 450 452 451
s 1
f 452 454 453
s 1
f 454 456 455
s 1
f 456 458 457
s 1
f 458 460 459
s 1
f 460 462 461
s 1
f 462 464 463
s 1
f 464 466 465
s 1
f 465 466 468
s 1
f 470 472 471
s 1
f 472 474 473
s 1
f 474 476 475
s 1
f 476 478 477
s 1
f 478 480 479
s 1
f 480 482 481
s 1
f 482 484 483
s 1
f 484 486 485
s 1
f 486 488 487
s 1
f 488 490 489
s 1
f 490 492 491
s 1
f 491 492 494
s 1
f 496 498 497
s 1
f 498 500 499
s 1
f 500 502 501
s 1
f 502 504 503
s 1
f 504 506 505
s 1
f 506 508 507
s 1
f 508 510 509
s 1
f 510 512 511
s 1
f 512 514 513
s 1
f 514 516 515
s 1
f 516 518 517
s 1
f 517 518 520
s 1
f 522 524 523
s 1
f 524 526 525
s 1
f 526 528 527
s 1
f 528 530 529
s 1
f 530 532 531
s 1
f 532 534 533
s 1
f 534 536 535
s 1
f 536 538 537
s 1
f 538 540 539
s 1
f 540 542 541
s 1
f 542 544 543
s 1
f 543 544 546
s 1
f 548 550 549
s 1
f 550 552 551
s 1
f 552 554 553
s 1
f 554 556 555
s 1
f 556 558 557
s 1
f 558 560 559
s 1
f 560 562 561
s 1
f 562 564 563
s 1
f 564 566 565
s 1
f 566 568 567
s 1
f 568 570 569
s 1
f 569 570 572
s 1
f 2 288 287
s 1
f 3 1 287
s 1
f 2 4 290
s 1
f 5 3 289
s 1
f 4 6 292
s 1
f 7 5 291
s 1
f 6 8 294
s 1
f 9 7 293
s 1
f 8 10 296
s 1
f 11 9 295
s 1
f 10 12 298
s 1
f 13 11 297
s 1
f 12 14 300
s 1
f 15 13 299
s 1
f 14 16 302
s 1
f 17 15 301
s 1
f 16 18 304
s 1
f 19 17 303
s 1
f 18 20 306
s 1
f 21 19 305
s 1
f 20 22 308
s 1
f 23 21 307
s 1
f 24 310 308
s 1
f 25 23 309
s 1
f 26 25 311
s 1
f 26 312 310
s 1
f 28 314 313
s 1
f 29 27 313
s 1
f 28 30 316
s 1
f 31 29 315
s 1
f 30 32 318
s 1
f 33 31 317
s 1
f 32 34 320
s 1
f 35 33 319
s 1
f 34 36 322
s 1
f 37 35 321
s 1
f 36 38 324
s 1
f 39 37 323
s 1
f 38 40 326
s 1
f 41 39 325
s 1
f 40 42 328
s 1
f 43 41 327
s 1
f 42 44 330
s 1
f 45 43 329
s 1
f 44 46 332
s 1
f 47 45 331
s 1
f 46 48 334
s 1
f 49 47 333
s 1
f 50 336 334
s 1
f 51 49 335
s 1
f 52 51 337
s 1
f 52 338 336
s 1
f 54 340 339
s 1
f 55 53 339
s 1
f 54 56 342
s 1
f 57 55 341
s 1
f 56 58 344
s 1
f 59 57 343
s 1
f 58 60 346
s 1
f 61 59 345
s 1
f 60 62 348
s 1
f 63 61 347
s 1
f 62 64 350
s 1
f 65 63 349
s 1
f 64 66 352
s 1
f 67 65 351
s 1
f 66 68 354
s 1
f 69 67 353
s 1
f 68 70 356
s 1
f 71 69 355
s 1
f 70 72 358
s 1
f 73 71 357
s 1
f 72 74 360
s 1
f 75 73 359
s 1
f 76 362 360
s 1
f 77 75 361
s 1
f 78 77 363
s 1
f 78 364 362
s 1
f 80 366 365
s 1
f 81 79 365
s 1
f 80 82 368
s 1
f 83 81 367
s 1
f 82 84 370
s 1
f 85 83 369
s 1
f 84 86 372
s 1
f 87 85 371
s 1
f 86 88 374
s 1
f 89 87 373
s 1
f 88 90 376
s 1
f 91 89 375
s 1
f 90 92 378
s 1
f 93 91 377
s 1
f 92 94 380
s 1
f 95 93 379
s 1
f 94 96 382
s 1
f 97 95 381
s 1
f 96 98 384
s 1
f 99 97 383
s 1
f 98 100 386
s 1
f 101 99 385
s 1
f 102 388 386
s 1
f 103 101 387
s 1
f 104 103 389
s 1
f 104 390 388
s 1
f 106 392 391
s 1
f 107 105 391
s 1
f 106 108 394
s 1
f 109 107 393
s 1
f 108 110 396
s 1
f 111 109 395
s 1
f 110 112 398
s 1
f 113 111 397
s 1
f 112 114 400
s 1
f 115 113 399
s 1
f 114 116 402
s 1
f 117 115 401
s 1
f 116 118 404
s 1
f 119 117 403
s 1
f 118 120 406
s 1
f 121 119 405
s 1
f 120 122 408
s 1
f 123 121 407
s 1
f 122 124 410
s 1
f 125 123 409
s 1
f 124 126 412
s 1
f 127 125 411
s 1
f 128 414 412
s 1
f 129 127 413
s 1
f 130 129 415
s 1
f 130 416 414
s 1
f 132 418 417
s 1
f 133 131 417
s 1
f 132 134 420
s 1
f 135 133 419
s 1
f 134 136 422
s 1
f 137 135 421
s 1
f 136 138 424
s 1
f 139 137 423
s 1
f 138 140 426
s 1
f 141 139 425
s 1
f 140 142 428
s 1
f 143 141 427
s 1
f 142 144 430
s 1
f 145 143 429
s 1
f 144 146 432
s 1
f 147 145 431
s 1
f 146 148 434
s 1
f 149 147 433
s 1
f 148 150 436
s 1
f 151 149 435
s 1
f 150 152 438
s 1
f 153 151 437
s 1
f 154 440 438
s 1
f 155 153 439
s 1
f 156 155 441
s 1
f 156 442 440
s 1
f 158 444 443
s 1
f 159 157 443
s 1
f 158 160 446
s 1
f 161 159 445
s 1
f 160 162 448
s 1
f 163 161 447
s 1
f 162 164 450
s 1
f 165 163 449
s 1
f 164 166 452
s 1
f 167 165 451
s 1
f 166 168 454
s 1
f 169 167 453
s 1
f 168 170 456
s 1
f 171 169 455
s 1
f 170 172 458
s 1
f 173 171 457
s 1
f 172 174 460
s 1
f 175 173 459
s 1
f 174 176 462
s 1
f 177 175 461
s 1
f 176 178 464
s 1
f 179 177 463
s 1
f 180 466 464
s 1
f 181 179 465
s 1
f 182 181 467
s 1
f 182 468 466
s 1
f 184 470 469
s 1
f 185 183 469
s 1
f 184 186 472
s 1
f 187 185 471
s 1
f 186 188 474
s 1
f 189 187 473
s 1
f 188 190 476
s 1
f 191 189 475
s 1
f 190 192 478
s 1
f 193 191 477
s 1
f 192 194 480
s 1
f 195 193 479
s 1
f 194 196 482
s 1
f 197 195 481
s 1
f 196 198 484
s 1
f 199 197 483
s 1
f 198 200 486
s 1
f 201 199 485
s 1
f 200 202 488
s 1
f 203 201 487
s 1
f 202 204 490
s 1
f 205 203 489
s 1
f 206 492 490
s 1
f 207 205 491
s 1
f 208 207 493
s 1
f 208 494 492
s 1
f 210 496 495
s 1
f 211 209 495
s 1
f 210 212 498
s 1
f 213 211 497
s 1
f 212 214 500
s 1
f 215 213 499
s 1
f 214 216 502
s 1
f 217 215 501
s 1
f 216 218 504
s 1
f 219 217 503
s 1
f 218 220 506
s 1
f 221 219 505
s 1
f 220 222 508
s 1
f 223 221 507
s 1
f 222 224 510
s 1
f 225 223 509
s 1
f 224 226 512
s 1
f 227 225 511
s 1
f 226 228 514
s 1
f 229 227 513
s 1
f 228 230 516
s 1
f 231 229 515
s 1
f 232 518 516
s 1
f 233 231 517
s 1
f 234 233 519
s 1
f 234 520 518
s 1
f 236 522 521
s 1
f 237 235 521
s 1
f 236 238 524
s 1
f 239 237 523
s 1
f 238 240 526
s 1
f 241 239 525
s 1
f 240 242 528
s 1
f 243 241 527
s 1
f 242 244 530
s 1
f 245 243 529
s 1
f 244 246 532
s 1
f 247 245 531
s 1
f 246 248 534
s 1
f 249 247 533
s 1
f 248 250 536
s 1
f 251 249 535
s 1
f 250 252 538
s 1
f 253 251 537
s 1
f 252 254 540
s 1
f 255 253 539
s 1
f 254 256 542
s 1
f 257 255 541
s 1
f 258 544 542
s 1
f 259 257 543
s 1
f 260 259 545
s 1
f 260 546 544
s 1
f 262 548 547
s 1
f 263 261 547
s 1
f 262 264 550
s 1
f 265 263 549
s 1
f 264 266 552
s 1
f 267 265 551
s 1
f 266 268 554
s 1
f 269 267 553
s 1
f 268 270 556
s 1
f 271 269 555
s 1
f 270 272 558
s 1
f 273 271 557
s 1
f 272 274 560
s 1
f 275 273 559
s 1
f 274 276 562
s 1
f 277 275 561
s 1
f 276 278 564
s 1
f 279 277 563
s 1
f 278 280 566
s 1
f 281 279 565
s 1
f 280 282 568
s 1
f 283 281 567
s 1
f 284 570 568
s 1
f 285 283 569
s 1
f 286 285 571
s 1
f 286 572 570
