# eclipse Prominences_Contour.obj: Roblox cue frame, recentred on its bounding box
v 0.02858 0.54007 0.61622
v 0.02858 0.69620 0.46009
v 0.01202 0.62836 0.58363
v 0.01202 0.75980 0.42507
v -0.00342 0.71235 0.54171
v -0.00342 0.82043 0.38443
v -0.01667 0.78912 0.49338
v -0.01667 0.87599 0.34100
v -0.02684 0.85673 0.44225
v -0.02684 0.92513 0.29802
v -0.03323 0.91426 0.39208
v -0.03323 0.96723 0.25875
v -0.03542 0.96172 0.34617
v -0.03542 1.00226 0.22601
v -0.03323 0.99972 0.30697
v -0.03323 1.03052 0.20178
v -0.02684 1.02919 0.27571
v -0.02684 1.05242 0.18701
v -0.01667 1.05112 0.25235
v -0.01667 1.06831 0.18157
v -0.00342 1.06648 0.23558
v -0.00342 1.07842 0.18429
v 0.01202 1.07620 0.22281
v 0.01202 1.08296 0.19334
v 0.02858 1.08174 0.20848
v 0.02858 1.08174 0.20848
v 0.02858 0.81070 0.25040
v 0.02858 0.85763 0.03465
v 0.01202 0.87657 0.17637
v 0.01202 0.90142 -0.02808
v -0.00342 0.93376 0.09515
v -0.00342 0.93965 -0.09560
v -0.01667 0.98100 0.01097
v -0.01667 0.97170 -0.16419
v -0.02684 1.01833 -0.07171
v -0.02684 0.99789 -0.23003
v -0.03323 1.04683 -0.14877
v -0.03323 1.01931 -0.28957
v -0.03542 1.06823 -0.21699
v -0.03542 1.03737 -0.33999
v -0.03323 1.08436 -0.27422
v -0.03323 1.05340 -0.37936
v -0.02684 1.09669 -0.31960
v -0.02684 1.06828 -0.40677
v -0.01667 1.10605 -0.35350
v -0.01667 1.08223 -0.42234
v -0.00342 1.11251 -0.37750
v -0.00342 1.09483 -0.42710
v 0.01202 1.11542 -0.39432
v 0.01202 1.10517 -0.42278
v 0.02858 1.11290 -0.40958
v 0.02858 1.11290 -0.40958
v 0.02858 0.84059 -0.20366
v 0.02858 0.76343 -0.41054
v 0.01202 0.86247 -0.30469
v 0.01202 0.77284 -0.49012
v -0.00342 0.87243 -0.40815
v -0.00342 0.77426 -0.57180
v -0.01667 0.87155 -0.50951
v -0.01667 0.76903 -0.65183
v -0.02684 0.86224 -0.60466
v -0.02684 0.75945 -0.72680
v -0.03323 0.84769 -0.69039
v -0.03323 0.74842 -0.79396
v -0.03542 0.83127 -0.76455
v -0.03542 0.73881 -0.85134
v -0.03323 0.81583 -0.82607
v -0.03323 0.73295 -0.89779
v -0.02684 0.80325 -0.87483
v -0.02684 0.73222 -0.93281
v -0.01667 0.79409 -0.91147
v -0.01667 0.73684 -0.95650
v -0.00342 0.78760 -0.93728
v -0.00342 0.74590 -0.96945
v 0.01202 0.78167 -0.95423
v 0.01202 0.75767 -0.97263
v 0.02858 0.77158 -0.96609
v 0.02858 0.77158 -0.96609
v 0.02858 0.62025 -0.60180
v 0.02858 0.44349 -0.73412
v 0.01202 0.57834 -0.68932
v 0.01202 0.40269 -0.79685
v -0.00342 0.52689 -0.77166
v -0.00342 0.35584 -0.85626
v -0.01667 0.46922 -0.84609
v -0.01667 0.30603 -0.91038
v -0.02684 0.40931 -0.91093
v -0.02684 0.25681 -0.95811
v -0.03323 0.35121 -0.96563
v -0.03323 0.21171 -0.99909
v -0.03542 0.29844 -1.01050
v -0.03542 0.17373 -1.03353
v -0.03323 0.25354 -1.04640
v -0.03323 0.14504 -1.06191
v -0.02684 0.21779 -1.07433
v -0.02684 0.12669 -1.08471
v -0.01667 0.19112 -1.09526
v -0.01667 0.11861 -1.10219
v -0.00342 0.17212 -1.10990
v -0.00342 0.11965 -1.11442
v 0.01202 0.15805 -1.11880
v 0.01202 0.12791 -1.12130
v 0.02858 0.14311 -1.12261
v 0.02858 0.14311 -1.12261
v 0.02858 0.21964 -0.81761
v 0.02858 -0.00060 -0.83336
v 0.01202 0.13717 -0.86382
v 0.01202 -0.06873 -0.85932
v -0.00342 0.05032 -0.90066
v -0.00342 -0.13932 -0.87934
v -0.01667 -0.03677 -0.92778
v -0.01667 -0.20882 -0.89364
v -0.02684 -0.12006 -0.94606
v -0.02684 -0.27386 -0.90331
v -0.03323 -0.19608 -0.95728
v -0.03323 -0.33152 -0.91000
v -0.03542 -0.26228 -0.96359
v -0.03542 -0.37964 -0.91554
v -0.03323 -0.31719 -0.96706
v -0.03323 -0.41686 -0.92146
v -0.02684 -0.36045 -0.96922
v -0.02684 -0.44269 -0.92869
v -0.01667 -0.39272 -0.97078
v -0.01667 -0.45746 -0.93741
v -0.00342 -0.41562 -0.97161
v -0.00342 -0.46220 -0.94705
v 0.01202 -0.43173 -0.97074
v 0.01202 -0.45844 -0.95654
v 0.02858 -0.44621 -0.96558
v 0.02858 -0.44621 -0.96558
v 0.02858 -0.23405 -0.78258
v 0.02858 -0.42785 -0.67676
v 0.01202 -0.33511 -0.78680
v 0.01202 -0.50589 -0.67169
v -0.00342 -0.43638 -0.77932
v -0.00342 -0.58439 -0.65886
v -0.01667 -0.53369 -0.76191
v -0.01667 -0.65997 -0.64017
v -0.02684 -0.62350 -0.73752
v -0.02684 -0.72977 -0.61840
v -0.03323 -0.70327 -0.70973
v -0.03323 -0.79166 -0.59673
v -0.03542 -0.77152 -0.68205
v -0.03542 -0.84427 -0.57818
v -0.03323 -0.82772 -0.65738
v -0.03323 -0.88691 -0.56513
v -0.02684 -0.87209 -0.63747
v -0.02684 -0.91937 -0.55891
v -0.01667 -0.90541 -0.62275
v -0.01667 -0.94183 -0.55968
v -0.00342 -0.92888 -0.61228
v -0.00342 -0.95479 -0.56643
v 0.01202 -0.94414 -0.60373
v 0.01202 -0.95893 -0.57735
v 0.02858 -0.95422 -0.59194
v 0.02858 -0.95422 -0.59194
v 0.02858 -0.59679 -0.50782
v 0.02858 -0.70260 -0.31403
v 0.01202 -0.68598 -0.45756
v 0.01202 -0.76742 -0.26839
v -0.00342 -0.76914 -0.39697
v -0.00342 -0.82852 -0.21562
v -0.01667 -0.84359 -0.32984
v -0.01667 -0.88401 -0.15915
v -0.02684 -0.90790 -0.26061
v -0.02684 -0.93289 -0.10295
v -0.03323 -0.96176 -0.19375
v -0.03323 -0.97503 -0.05090
v -0.03542 -1.00581 -0.13313
v -0.03542 -1.01086 -0.00641
v -0.03323 -1.04113 -0.08153
v -0.03323 -1.04105 0.02808
v -0.02684 -1.06884 -0.04039
v -0.02684 -1.06614 0.05125
v -0.01667 -1.08982 -0.00971
v -0.01667 -1.08636 0.06304
v -0.00342 -1.10456 0.01197
v -0.00342 -1.10157 0.06454
v 0.01202 -1.11318 0.02749
v 0.01202 -1.11136 0.05768
v 0.02858 -1.11542 0.04287
v 0.02858 -1.11542 0.04287
v 0.02858 -0.75339 -0.08057
v 0.02858 -0.73764 0.13966
v 0.01202 -0.78898 0.00789
v 0.01202 -0.75522 0.21106
v -0.00342 -0.81458 0.09964
v -0.00342 -0.76649 0.28431
v -0.01667 -0.83039 0.19047
v -0.01667 -0.77211 0.35591
v -0.02684 -0.83783 0.27642
v -0.02684 -0.77362 0.42258
v -0.03323 -0.83913 0.35424
v -0.03323 -0.77306 0.48158
v -0.03542 -0.83681 0.42163
v -0.03542 -0.77255 0.53095
v -0.03323 -0.83314 0.47735
v -0.03323 -0.77382 0.56951
v -0.02684 -0.82970 0.52122
v -0.02684 -0.77788 0.59686
v -0.01667 -0.82713 0.55395
v -0.01667 -0.78488 0.61329
v -0.00342 -0.82505 0.57713
v -0.00342 -0.79410 0.61974
v 0.01202 -0.82212 0.59317
v 0.01202 -0.80427 0.61758
v 0.02858 -0.81504 0.60683
v 0.02858 -0.81504 0.60683
v 0.02858 -0.65414 0.36352
v 0.02858 -0.52182 0.54027
v 0.01202 -0.63679 0.45766
v 0.01202 -0.49855 0.61033
v -0.00342 -0.60915 0.54925
v -0.00342 -0.46886 0.67861
v -0.01667 -0.57368 0.63482
v -0.01667 -0.43520 0.74249
v -0.02684 -0.53369 0.71178
v -0.02684 -0.40066 0.80002
v -0.03323 -0.49286 0.77856
v -0.03323 -0.36843 0.84996
v -0.03542 -0.45456 0.83456
v -0.03542 -0.34139 0.89179
v -0.03323 -0.42140 0.87995
v -0.03323 -0.32167 0.92541
v -0.02684 -0.39484 0.91541
v -0.02684 -0.31035 0.95103
v -0.01667 -0.37501 0.94188
v -0.01667 -0.30739 0.96896
v -0.00342 -0.36077 0.96049
v -0.00342 -0.31170 0.97961
v 0.01202 -0.34967 0.97254
v 0.01202 -0.32145 0.98343
v 0.02858 -0.33634 0.98025
v 0.02858 -0.33634 0.98025
v 0.02858 -0.33056 0.68345
v 0.02858 -0.12368 0.76061
v 0.01202 -0.26826 0.76512
v 0.01202 -0.06943 0.81881
v -0.00342 -0.19651 0.83936
v -0.00342 -0.00854 0.87233
v -0.01667 -0.11941 0.90404
v -0.01667 0.05529 0.91976
v -0.02684 -0.04162 0.95834
v -0.02684 0.11800 0.96065
v -0.03323 0.03238 1.00261
v -0.03323 0.17566 0.99541
v -0.03542 0.09884 1.03798
v -0.03542 0.22499 1.02494
v -0.03323 0.15511 1.06594
v -0.03323 0.26359 1.05026
v -0.02684 0.19992 1.08781
v -0.02684 0.29025 1.07210
v -0.01667 0.23339 1.10444
v -0.01667 0.30491 1.09067
v -0.00342 0.25702 1.11612
v -0.00342 0.30863 1.10567
v 0.01202 0.27364 1.12254
v 0.01202 0.30326 1.11644
v 0.02858 0.28919 1.12261
v 0.02858 0.28919 1.12261
v 0.02858 0.11462 0.77766
v 0.02858 0.33038 0.73072
v 0.01202 0.21014 0.80937
v 0.01202 0.40644 0.74705
v -0.00342 0.30902 0.82999
v -0.00342 0.48498 0.75611
v -0.01667 0.40680 0.84005
v -0.01667 0.56226 0.75883
v -0.02684 0.49929 0.84141
v -0.02684 0.63481 0.75705
v -0.03323 0.58308 0.83676
v -0.03323 0.69972 0.75324
v -0.03542 0.65580 0.82907
v -0.03542 0.75487 0.74990
v -0.03323 0.71617 0.82092
v -0.03323 0.79895 0.74909
v -0.02684 0.76392 0.81407
v -0.02684 0.83142 0.75202
v -0.01667 0.79970 0.80914
v -0.01667 0.85243 0.75888
v -0.00342 0.82495 0.80555
v -0.00342 0.86272 0.76885
v 0.01202 0.84187 0.80154
v 0.01202 0.86350 0.78039
v 0.02858 0.85483 0.79303
v 0.02858 0.85483 0.79303
v 0.03503 0.54244 0.61839
v 0.03503 0.69857 0.46226
v 0.01848 0.63074 0.58575
v 0.01852 0.76224 0.42697
v 0.00311 0.71479 0.54352
v 0.00321 0.82280 0.38597
v -0.01001 0.79144 0.49481
v -0.00988 0.87809 0.34213
v -0.01999 0.85870 0.44327
v -0.01985 0.92669 0.29872
v -0.02619 0.91562 0.39267
v -0.02608 0.96794 0.25903
v -0.02823 0.96212 0.34633
v -0.02823 1.00178 0.22586
v -0.02610 0.99879 0.30669
v -0.02633 1.02856 0.20123
v -0.02016 1.02661 0.27501
v -0.02063 1.04890 0.18610
v -0.01100 1.04682 0.25128
v -0.01151 1.06343 0.18038
v 0.00070 1.06073 0.23422
v 0.00044 1.07250 0.18290
v 0.01435 1.06956 0.22128
v 0.01429 1.07631 0.19180
v 0.02953 1.07478 0.20689
v 0.02953 1.07478 0.20689
v 0.03529 0.81327 0.25084
v 0.03529 0.86021 0.03509
v 0.01874 0.87913 0.17677
v 0.01877 0.90392 -0.02784
v 0.00335 0.93621 0.09530
v 0.00341 0.94194 -0.09558
v -0.00981 0.98319 0.01092
v -0.00973 0.97361 -0.16434
v -0.01986 1.02008 -0.07188
v -0.01977 0.99925 -0.23022
v -0.02613 1.04796 -0.14896
v -0.02606 1.01993 -0.28969
v -0.02822 1.06854 -0.21705
v -0.02822 1.03703 -0.33989
v -0.02608 1.08359 -0.27400
v -0.02621 1.05189 -0.37890
v -0.01998 1.09460 -0.31893
v -0.02029 1.06545 -0.40584
v -0.01056 1.10244 -0.35228
v -0.01096 1.07809 -0.42091
v 0.00134 1.10741 -0.37571
v 0.00107 1.08952 -0.42522
v 0.01488 1.10920 -0.39209
v 0.01481 1.09893 -0.42054
v 0.02978 1.10622 -0.40718
v 0.02978 1.10622 -0.40718
v 0.03542 0.84268 -0.20455
v 0.03542 0.76552 -0.41143
v 0.01886 0.86453 -0.30561
v 0.01888 0.77478 -0.49112
v 0.00346 0.87429 -0.40919
v 0.00351 0.77594 -0.57286
v -0.00972 0.87312 -0.51056
v -0.00966 0.77035 -0.65283
v -0.01980 0.86342 -0.60560
v -0.01974 0.76035 -0.72758
v -0.02610 0.84841 -0.69104
v -0.02606 0.74881 -0.79434
v -0.02822 0.83145 -0.76472
v -0.02822 0.73862 -0.85112
v -0.02607 0.81537 -0.82555
v -0.02616 0.73208 -0.89676
v -0.01990 0.80202 -0.87335
v -0.02013 0.73058 -0.93079
v -0.01033 0.79197 -0.90880
v -0.01066 0.73439 -0.95338
v 0.00172 0.78450 -0.93330
v 0.00145 0.74265 -0.96526
v 0.01525 0.77775 -0.94913
v 0.01517 0.75372 -0.96750
v 0.02998 0.76729 -0.96048
v 0.02998 0.76729 -0.96048
v 0.03521 0.62184 -0.60414
v 0.03521 0.44508 -0.73646
v 0.01865 0.57989 -0.69166
v 0.01869 0.40404 -0.79921
v 0.00328 0.52815 -0.77400
v 0.00335 0.35688 -0.85850
v -0.00987 0.47017 -0.84826
v -0.00978 0.30674 -0.91233
v -0.01990 0.40994 -0.91275
v -0.01980 0.25723 -0.95954
v -0.02615 0.35155 -0.96685
v -0.02607 0.21186 -0.99975
v -0.02822 0.29852 -1.01085
v -0.02823 0.17367 -1.03313
v -0.02609 0.25341 -1.04555
v -0.02625 0.14481 -1.06019
v -0.02004 0.21750 -1.07199
v -0.02040 0.12634 -1.08151
v -0.01071 0.19071 -1.09124
v -0.01115 0.11817 -1.09759
v 0.00111 0.17162 -1.10432
v 0.00084 0.11914 -1.10863
v 0.01467 0.15749 -1.11213
v 0.01461 0.12735 -1.11461
v 0.02968 0.14252 -1.11552
v 0.02968 0.14252 -1.11552
v 0.03506 0.21972 -0.82076
v 0.03506 -0.00052 -0.83651
v 0.01851 0.13721 -0.86695
v 0.01855 -0.06889 -0.86235
v 0.00314 0.05010 -0.90362
v 0.00323 -0.13970 -0.88208
v -0.00998 -0.03720 -0.93041
v -0.00986 -0.20933 -0.89591
v -0.01998 -0.12057 -0.94818
v -0.01984 -0.27434 -0.90491
v -0.02618 -0.19651 -0.95865
v -0.02607 -0.33178 -0.91071
v -0.02823 -0.26242 -0.96398
v -0.02823 -0.37944 -0.91510
v -0.02610 -0.31680 -0.96619
v -0.02631 -0.41601 -0.91966
v -0.02014 -0.35931 -0.96685
v -0.02059 -0.44110 -0.92549
v -0.01095 -0.39074 -0.96688
v -0.01145 -0.45520 -0.93301
v 0.00077 -0.41291 -0.96642
v 0.00050 -0.45940 -0.94170
v 0.01440 -0.42855 -0.96473
v 0.01434 -0.45525 -0.95052
v 0.02955 -0.44286 -0.95928
v 0.02955 -0.44286 -0.95928
v 0.03536 -0.23532 -0.78466
v 0.03536 -0.42911 -0.67885
v 0.01880 -0.33639 -0.78884
v 0.01883 -0.50725 -0.67360
v 0.00341 -0.43776 -0.78114
v 0.00346 -0.58577 -0.66048
v -0.00976 -0.53504 -0.76341
v -0.00969 -0.66123 -0.64143
v -0.01983 -0.62468 -0.73864
v -0.01976 -0.73074 -0.61924
v -0.02611 -0.70409 -0.71041
v -0.02606 -0.79212 -0.59709
v -0.02822 -0.77175 -0.68223
v -0.02822 -0.84401 -0.57801
v -0.02607 -0.82709 -0.65697
v -0.02618 -0.88568 -0.56435
v -0.01994 -0.87034 -0.63640
v -0.02020 -0.91698 -0.55748
v -0.01044 -0.90230 -0.62093
v -0.01080 -0.93822 -0.55759
v 0.00154 -0.92434 -0.60969
v 0.00127 -0.95003 -0.56373
v 0.01506 -0.93845 -0.60053
v 0.01499 -0.95322 -0.57413
v 0.02988 -0.94805 -0.58847
v 0.02988 -0.94805 -0.58847
v 0.03539 -0.59889 -0.50885
v 0.03539 -0.70471 -0.31506
v 0.01884 -0.68808 -0.45854
v 0.01886 -0.76952 -0.26923
v 0.00344 -0.77120 -0.39773
v 0.00349 -0.83048 -0.21621
v -0.00974 -0.84547 -0.33035
v -0.00968 -0.88568 -0.15952
v -0.01981 -0.90943 -0.26090
v -0.01975 -0.93411 -0.10312
v -0.02611 -0.96277 -0.19387
v -0.02606 -0.97559 -0.05096
v -0.02822 -1.00608 -0.13315
v -0.02822 -1.01056 -0.00641
v -0.02607 -1.04041 -0.08152
v -0.02617 -1.03965 0.02806
v -0.01992 -1.06686 -0.04044
v -0.02016 -1.06346 0.05116
v -0.01038 -1.08633 -0.00986
v -0.01072 -1.08232 0.06285
v 0.00165 -1.09945 0.01169
v 0.00137 -1.09620 0.06425
v 0.01517 -1.10671 0.02711
v 0.01510 -1.10486 0.05730
v 0.02994 -1.10836 0.04244
v 0.02994 -1.10836 0.04244
v 0.03512 -0.75640 -0.08022
v 0.03512 -0.74065 0.14001
v 0.01856 -0.79196 0.00828
v 0.01860 -0.75808 0.21163
v 0.00319 -0.81737 0.10026
v 0.00327 -0.76905 0.28505
v -0.00994 -0.83283 0.19124
v -0.00983 -0.77421 0.35670
v -0.01995 -0.83976 0.27720
v -0.01982 -0.77508 0.42325
v -0.02617 -0.84037 0.35484
v -0.02607 -0.77370 0.48192
v -0.02823 -0.83716 0.42181
v -0.02823 -0.77216 0.53071
v -0.02609 -0.83237 0.47686
v -0.02629 -0.77223 0.56847
v -0.02010 -0.82760 0.51981
v -0.02052 -0.77505 0.59490
v -0.01086 -0.82364 0.55150
v -0.01134 -0.78094 0.61048
v 0.00089 -0.82036 0.57376
v 0.00062 -0.78927 0.61625
v 0.01449 -0.81665 0.58919
v 0.01444 -0.79879 0.61359
v 0.02960 -0.80928 0.60263
v 0.02960 -0.80928 0.60263
v 0.03514 -0.65645 0.36541
v 0.03514 -0.52413 0.54217
v 0.01858 -0.63905 0.45957
v 0.01862 -0.50062 0.61232
v 0.00321 -0.61113 0.55125
v 0.00329 -0.47058 0.68058
v -0.00992 -0.57529 0.63675
v -0.00981 -0.43652 0.74426
v -0.01994 -0.53487 0.71345
v -0.01982 -0.40151 0.80135
v -0.02616 -0.49356 0.77971
v -0.02607 -0.36878 0.85058
v -0.02823 -0.45475 0.83489
v -0.02823 -0.34121 0.89139
v -0.02609 -0.42102 0.87913
v -0.02628 -0.32092 0.92371
v -0.02008 -0.39385 0.91313
v -0.02049 -0.30905 0.94790
v -0.01083 -0.37342 0.93799
v -0.01129 -0.30561 0.96452
v 0.00094 -0.35867 0.95516
v 0.00067 -0.30954 0.97409
v 0.01453 -0.34723 0.96625
v 0.01448 -0.31901 0.97712
v 0.02962 -0.33378 0.97360
v 0.02962 -0.33378 0.97360
v 0.03540 -0.33127 0.68566
v 0.03540 -0.12440 0.76282
v 0.01884 -0.26893 0.76732
v 0.01887 -0.06995 0.82098
v 0.00345 -0.19695 0.84148
v 0.00349 -0.00885 0.87434
v -0.00973 -0.11965 0.90595
v -0.00967 0.05517 0.92145
v -0.01981 -0.04169 0.95988
v -0.01974 0.11799 0.96186
v -0.02610 0.03241 1.00361
v -0.02606 0.17569 0.99596
v -0.02822 0.09886 1.03824
v -0.02822 0.22494 1.02465
v -0.02607 0.15502 1.06524
v -0.02617 0.26338 1.04891
v -0.01991 0.19960 1.08588
v -0.02015 0.28979 1.06949
v -0.01036 0.23275 1.10103
v -0.01070 0.30415 1.08672
v 0.00167 0.25602 1.11112
v 0.00140 0.30758 1.10042
v 0.01519 0.27235 1.11621
v 0.01512 0.30196 1.11008
v 0.02995 0.28776 1.11568
v 0.02995 0.28776 1.11568
v 0.03534 0.11526 0.78005
v 0.03534 0.33101 0.73312
v 0.01879 0.21081 0.81174
v 0.01881 0.40722 0.74929
v 0.00340 0.30985 0.83216
v 0.00345 0.48586 0.75809
v -0.00977 0.40769 0.84191
v -0.00970 0.56314 0.76041
v -0.01983 0.50012 0.84284
v -0.01976 0.63551 0.75815
v -0.02612 0.58368 0.83766
v -0.02606 0.70007 0.75373
v -0.02822 0.65597 0.82930
v -0.02822 0.75465 0.74965
v -0.02607 0.71567 0.82035
v -0.02619 0.79796 0.74797
v -0.01995 0.76252 0.81253
v -0.02022 0.82950 0.74994
v -0.01046 0.79720 0.80648
v -0.01084 0.84952 0.75583
v 0.00149 0.82129 0.80176
v 0.00122 0.85889 0.76489
v 0.01502 0.83730 0.79685
v 0.01495 0.85891 0.77568
v 0.02986 0.84987 0.78796
v 0.02986 0.84987 0.78796
s 1
f 3 2 1
s 1
f 5 4 3
s 1
f 7 6 5
s 1
f 9 8 7
s 1
f 11 10 9
s 1
f 13 12 11
s 1
f 15 14 13
s 1
f 17 16 15
s 1
f 19 18 17
s 1
f 21 20 19
s 1
f 23 22 21
s 1
f 23 26 24
s 1
f 29 28 27
s 1
f 31 30 29
s 1
f 33 32 31
s 1
f 35 34 33
s 1
f 37 36 35
s 1
f 39 38 37
s 1
f 41 40 39
s 1
f 43 42 41
s 1
f 45 44 43
s 1
f 47 46 45
s 1
f 49 48 47
s 1
f 49 52 50
s 1
f 55 54 53
s 1
f 57 56 55
s 1
f 59 58 57
s 1
f 61 60 59
s 1
f 63 62 61
s 1
f 65 64 63
s 1
f 67 66 65
s 1
f 69 68 67
s 1
f 71 70 69
s 1
f 73 72 71
s 1
f 75 74 73
s 1
f 75 78 76
s 1
f 81 80 79
s 1
f 83 82 81
s 1
f 85 84 83
s 1
f 87 86 85
s 1
f 89 88 87
s 1
f 91 90 89
s 1
f 93 92 91
s 1
f 95 94 93
s 1
f 97 96 95
s 1
f 99 98 97
s 1
f 101 100 99
s 1
f 101 104 102
s 1
f 107 106 105
s 1
f 109 108 107
s 1
f 111 110 109
s 1
f 113 112 111
s 1
f 115 114 113
s 1
f 117 116 115
s 1
f 119 118 117
s 1
f 121 120 119
s 1
f 123 122 121
s 1
f 125 124 123
s 1
f 127 126 125
s 1
f 127 130 128
s 1
f 133 132 131
s 1
f 135 134 133
s 1
f 137 136 135
s 1
f 139 138 137
s 1
f 141 140 139
s 1
f 143 142 141
s 1
f 145 144 143
s 1
f 147 146 145
s 1
f 149 148 147
s 1
f 151 150 149
s 1
f 153 152 151
s 1
f 153 156 154
s 1
f 159 158 157
s 1
f 161 160 159
s 1
f 163 162 161
s 1
f 165 164 163
s 1
f 167 166 165
s 1
f 169 168 167
s 1
f 171 170 169
s 1
f 173 172 171
s 1
f 175 174 173
s 1
f 177 176 175
s 1
f 179 178 177
s 1
f 179 182 180
s 1
f 185 184 183
s 1
f 187 186 185
s 1
f 189 188 187
s 1
f 191 190 189
s 1
f 193 192 191
s 1
f 195 194 193
s 1
f 197 196 195
s 1
f 199 198 197
s 1
f 201 200 199
s 1
f 203 202 201
s 1
f 205 204 203
s 1
f 205 208 206
s 1
f 211 210 209
s 1
f 213 212 211
s 1
f 215 214 213
s 1
f 217 216 215
s 1
f 219 218 217
s 1
f 221 220 219
s 1
f 223 222 221
s 1
f 225 224 223
s 1
f 227 226 225
s 1
f 229 228 227
s 1
f 231 230 229
s 1
f 231 234 232
s 1
f 237 236 235
s 1
f 239 238 237
s 1
f 241 240 239
s 1
f 243 242 241
s 1
f 245 244 243
s 1
f 247 246 245
s 1
f 249 248 247
s 1
f 251 250 249
s 1
f 253 252 251
s 1
f 255 254 253
s 1
f 257 256 255
s 1
f 257 260 258
s 1
f 263 262 261
s 1
f 265 264 263
s 1
f 267 266 265
s 1
f 269 268 267
s 1
f 271 270 269
s 1
f 273 272 271
s 1
f 275 274 273
s 1
f 277 276 275
s 1
f 279 278 277
s 1
f 281 280 279
s 1
f 283 282 281
s 1
f 283 286 284
s 1
f 288 289 287
s 1
f 290 291 289
s 1
f 292 293 291
s 1
f 294 295 293
s 1
f 296 297 295
s 1
f 298 299 297
s 1
f 300 301 299
s 1
f 302 303 301
s 1
f 304 305 303
s 1
f 306 307 305
s 1
f 308 309 307
s 1
f 309 312 311
s 1
f 314 315 313
s 1
f 316 317 315
s 1
f 318 319 317
s 1
f 320 321 319
s 1
f 322 323 321
s 1
f 324 325 323
s 1
f 326 327 325
s 1
f 328 329 327
s 1
f 330 331 329
s 1
f 332 333 331
s 1
f 334 335 333
s 1
f 335 338 337
s 1
f 340 341 339
s 1
f 342 343 341
s 1
f 344 345 343
s 1
f 346 347 345
s 1
f 348 349 347
s 1
f 350 351 349
s 1
f 352 353 351
s 1
f 354 355 353
s 1
f 356 357 355
s 1
f 358 359 357
s 1
f 360 361 359
s 1
f 361 364 363
s 1
f 366 367 365
s 1
f 368 369 367
s 1
f 370 371 369
s 1
f 372 373 371
s 1
f 374 375 373
s 1
f 376 377 375
s 1
f 378 379 377
s 1
f 380 381 379
s 1
f 382 383 381
s 1
f 384 385 383
s 1
f 386 387 385
s 1
f 387 390 389
s 1
f 392 393 391
s 1
f 394 395 393
s 1
f 396 397 395
s 1
f 398 399 397
s 1
f 400 401 399
s 1
f 402 403 401
s 1
f 404 405 403
s 1
f 406 407 405
s 1
f 408 409 407
s 1
f 410 411 409
s 1
f 412 413 411
s 1
f 413 416 415
s 1
f 418 419 417
s 1
f 420 421 419
s 1
f 422 423 421
s 1
f 424 425 423
s 1
f 426 427 425
s 1
f 428 429 427
s 1
f 430 431 429
s 1
f 432 433 431
s 1
f 434 435 433
s 1
f 436 437 435
s 1
f 438 439 437
s 1
f 439 442 441
s 1
f 444 445 443
s 1
f 446 447 445
s 1
f 448 449 447
s 1
f 450 451 449
s 1
f 452 453 451
s 1
f 454 455 453
s 1
f 456 457 455
s 1
f 458 459 457
s 1
f 460 461 459
s 1
f 462 463 461
s 1
f 464 465 463
s 1
f 465 468 467
s 1
f 470 471 469
s 1
f 472 473 471
s 1
f 474 475 473
s 1
f 476 477 475
s 1
f 478 479 477
s 1
f 480 481 479
s 1
f 482 483 481
s 1
f 484 485 483
s 1
f 486 487 485
s 1
f 488 489 487
s 1
f 490 491 489
s 1
f 491 494 493
s 1
f 496 497 495
s 1
f 498 499 497
s 1
f 500 501 499
s 1
f 502 503 501
s 1
f 504 505 503
s 1
f 506 507 505
s 1
f 508 509 507
s 1
f 510 511 509
s 1
f 512 513 511
s 1
f 514 515 513
s 1
f 516 517 515
s 1
f 517 520 519
s 1
f 522 523 521
s 1
f 524 525 523
s 1
f 526 527 525
s 1
f 528 529 527
s 1
f 530 531 529
s 1
f 532 533 531
s 1
f 534 535 533
s 1
f 536 537 535
s 1
f 538 539 537
s 1
f 540 541 539
s 1
f 542 543 541
s 1
f 543 546 545
s 1
f 548 549 547
s 1
f 550 551 549
s 1
f 552 553 551
s 1
f 554 555 553
s 1
f 556 557 555
s 1
f 558 559 557
s 1
f 560 561 559
s 1
f 562 563 561
s 1
f 564 565 563
s 1
f 566 567 565
s 1
f 568 569 567
s 1
f 569 572 571
s 1
f 2 287 1
s 1
f 3 287 289
s 1
f 2 290 288
s 1
f 5 289 291
s 1
f 4 292 290
s 1
f 7 291 293
s 1
f 6 294 292
s 1
f 9 293 295
s 1
f 8 296 294
s 1
f 11 295 297
s 1
f 10 298 296
s 1
f 13 297 299
s 1
f 12 300 298
s 1
f 15 299 301
s 1
f 14 302 300
s 1
f 17 301 303
s 1
f 16 304 302
s 1
f 19 303 305
s 1
f 18 306 304
s 1
f 21 305 307
s 1
f 22 306 20
s 1
f 23 307 309
s 1
f 24 308 22
s 1
f 25 309 311
s 1
f 26 311 312
s 1
f 26 310 24
s 1
f 28 313 27
s 1
f 29 313 315
s 1
f 28 316 314
s 1
f 31 315 317
s 1
f 30 318 316
s 1
f 33 317 319
s 1
f 32 320 318
s 1
f 35 319 321
s 1
f 34 322 320
s 1
f 37 321 323
s 1
f 36 324 322
s 1
f 39 323 325
s 1
f 38 326 324
s 1
f 41 325 327
s 1
f 40 328 326
s 1
f 43 327 329
s 1
f 42 330 328
s 1
f 45 329 331
s 1
f 44 332 330
s 1
f 47 331 333
s 1
f 48 332 46
s 1
f 49 333 335
s 1
f 50 334 48
s 1
f 51 335 337
s 1
f 52 337 338
s 1
f 52 336 50
s 1
f 54 339 53
s 1
f 55 339 341
s 1
f 54 342 340
s 1
f 57 341 343
s 1
f 56 344 342
s 1
f 59 343 345
s 1
f 58 346 344
s 1
f 61 345 347
s 1
f 60 348 346
s 1
f 63 347 349
s 1
f 62 350 348
s 1
f 65 349 351
s 1
f 64 352 350
s 1
f 67 351 353
s 1
f 66 354 352
s 1
f 69 353 355
s 1
f 68 356 354
s 1
f 71 355 357
s 1
f 70 358 356
s 1
f 73 357 359
s 1
f 72 360 358
s 1
f 75 359 361
s 1
f 76 360 74
s 1
f 77 361 363
s 1
f 78 363 364
s 1
f 78 362 76
s 1
f 80 365 79
s 1
f 81 365 367
s 1
f 80 368 366
s 1
f 83 367 369
s 1
f 82 370 368
s 1
f 85 369 371
s 1
f 84 372 370
s 1
f 87 371 373
s 1
f 86 374 372
s 1
f 89 373 375
s 1
f 88 376 374
s 1
f 91 375 377
s 1
f 90 378 376
s 1
f 93 377 379
s 1
f 92 380 378
s 1
f 95 379 381
s 1
f 94 382 380
s 1
f 97 381 383
s 1
f 96 384 382
s 1
f 99 383 385
s 1
f 100 384 98
s 1
f 101 385 387
s 1
f 102 386 100
s 1
f 103 387 389
s 1
f 104 389 390
s 1
f 104 388 102
s 1
f 106 391 105
s 1
f 107 391 393
s 1
f 106 394 392
s 1
f 109 393 395
s 1
f 108 396 394
s 1
f 111 395 397
s 1
f 110 398 396
s 1
f 113 397 399
s 1
f 112 400 398
s 1
f 115 399 401
s 1
f 114 402 400
s 1
f 117 401 403
s 1
f 116 404 402
s 1
f 119 403 405
s 1
f 118 406 404
s 1
f 121 405 407
s 1
f 120 408 406
s 1
f 123 407 409
s 1
f 122 410 408
s 1
f 125 409 411
s 1
f 126 410 124
s 1
f 127 411 413
s 1
f 128 412 126
s 1
f 129 413 415
s 1
f 130 415 416
s 1
f 130 414 128
s 1
f 132 417 131
s 1
f 133 417 419
s 1
f 132 420 418
s 1
f 135 419 421
s 1
f 134 422 420
s 1
f 137 421 423
s 1
f 136 424 422
s 1
f 139 423 425
s 1
f 138 426 424
s 1
f 141 425 427
s 1
f 140 428 426
s 1
f 143 427 429
s 1
f 142 430 428
s 1
f 145 429 431
s 1
f 144 432 430
s 1
f 147 431 433
s 1
f 146 434 432
s 1
f 149 433 435
s 1
f 148 436 434
s 1
f 151 435 437
s 1
f 150 438 436
s 1
f 153 437 439
s 1
f 154 438 152
s 1
f 155 439 441
s 1
f 156 441 442
s 1
f 156 440 154
s 1
f 158 443 157
s 1
f 159 443 445
s 1
f 158 446 444
s 1
f 161 445 447
s 1
f 160 448 446
s 1
f 163 447 449
s 1
f 162 450 448
s 1
f 165 449 451
s 1
f 164 452 450
s 1
f 167 451 453
s 1
f 166 454 452
s 1
f 169 453 455
s 1
f 168 456 454
s 1
f 171 455 457
s 1
f 170 458 456
s 1
f 173 457 459
s 1
f 172 460 458
s 1
f 175 459 461
s 1
f 174 462 460
s 1
f 177 461 463
s 1
f 176 464 462
s 1
f 179 463 465
s 1
f 180 464 178
s 1
f 181 465 467
s 1
f 182 467 468
s 1
f 182 466 180
s 1
f 184 469 183
s 1
f 185 469 471
s 1
f 184 472 470
s 1
f 187 471 473
s 1
f 186 474 472
s 1
f 189 473 475
s 1
f 188 476 474
s 1
f 191 475 477
s 1
f 190 478 476
s 1
f 193 477 479
s 1
f 192 480 478
s 1
f 195 479 481
s 1
f 194 482 480
s 1
f 197 481 483
s 1
f 196 484 482
s 1
f 199 483 485
s 1
f 198 486 484
s 1
f 201 485 487
s 1
f 200 488 486
s 1
f 203 487 489
s 1
f 204 488 202
s 1
f 205 489 491
s 1
f 206 490 204
s 1
f 207 491 493
s 1
f 208 493 494
s 1
f 208 492 206
s 1
f 210 495 209
s 1
f 211 495 497
s 1
f 210 498 496
s 1
f 213 497 499
s 1
f 212 500 498
s 1
f 215 499 501
s 1
f 214 502 500
s 1
f 217 501 503
s 1
f 216 504 502
s 1
f 219 503 505
s 1
f 218 506 504
s 1
f 221 505 507
s 1
f 220 508 506
s 1
f 223 507 509
s 1
f 222 510 508
s 1
f 225 509 511
s 1
f 224 512 510
s 1
f 227 511 513
s 1
f 226 514 512
s 1
f 229 513 515
s 1
f 230 514 228
s 1
f 231 515 517
s 1
f 232 516 230
s 1
f 233 517 519
s 1
f 234 519 520
s 1
f 234 518 232
s 1
f 236 521 235
s 1
f 237 521 523
s 1
f 236 524 522
s 1
f 239 523 525
s 1
f 238 526 524
s 1
f 241 525 527
s 1
f 240 528 526
s 1
f 243 527 529
s 1
f 242 530 528
s 1
f 245 529 531
s 1
f 244 532 530
s 1
f 247 531 533
s 1
f 246 534 532
s 1
f 249 533 535
s 1
f 248 536 534
s 1
f 251 535 537
s 1
f 250 538 536
s 1
f 253 537 539
s 1
f 252 540 538
s 1
f 255 539 541
s 1
f 254 542 540
s 1
f 257 541 543
s 1
f 258 542 256
s 1
f 259 543 545
s 1
f 260 545 546
s 1
f 260 544 258
s 1
f 262 547 261
s 1
f 263 547 549
s 1
f 262 550 548
s 1
f 265 549 551
s 1
f 264 552 550
s 1
f 267 551 553
s 1
f 266 554 552
s 1
f 269 553 555
s 1
f 268 556 554
s 1
f 271 555 557
s 1
f 270 558 556
s 1
f 273 557 559
s 1
f 272 560 558
s 1
f 275 559 561
s 1
f 274 562 560
s 1
f 277 561 563
s 1
f 276 564 562
s 1
f 279 563 565
s 1
f 278 566 564
s 1
f 281 565 567
s 1
f 280 568 566
s 1
f 283 567 569
s 1
f 284 568 282
s 1
f 285 569 571
s 1
f 286 571 572
s 1
f 286 570 284
s 1
f 3 4 2
s 1
f 5 6 4
s 1
f 7 8 6
s 1
f 9 10 8
s 1
f 11 12 10
s 1
f 13 14 12
s 1
f 15 16 14
s 1
f 17 18 16
s 1
f 19 20 18
s 1
f 21 22 20
s 1
f 23 24 22
s 1
f 23 25 26
s 1
f 29 30 28
s 1
f 31 32 30
s 1
f 33 34 32
s 1
f 35 36 34
s 1
f 37 38 36
s 1
f 39 40 38
s 1
f 41 42 40
s 1
f 43 44 42
s 1
f 45 46 44
s 1
f 47 48 46
s 1
f 49 50 48
s 1
f 49 51 52
s 1
f 55 56 54
s 1
f 57 58 56
s 1
f 59 60 58
s 1
f 61 62 60
s 1
f 63 64 62
s 1
f 65 66 64
s 1
f 67 68 66
s 1
f 69 70 68
s 1
f 71 72 70
s 1
f 73 74 72
s 1
f 75 76 74
s 1
f 75 77 78
s 1
f 81 82 80
s 1
f 83 84 82
s 1
f 85 86 84
s 1
f 87 88 86
s 1
f 89 90 88
s 1
f 91 92 90
s 1
f 93 94 92
s 1
f 95 96 94
s 1
f 97 98 96
s 1
f 99 100 98
s 1
f 101 102 100
s 1
f 101 103 104
s 1
f 107 108 106
s 1
f 109 110 108
s 1
f 111 112 110
s 1
f 113 114 112
s 1
f 115 116 114
s 1
f 117 118 116
s 1
f 119 120 118
s 1
f 121 122 120
s 1
f 123 124 122
s 1
f 125 126 124
s 1
f 127 128 126
s 1
f 127 129 130
s 1
f 133 134 132
s 1
f 135 136 134
s 1
f 137 138 136
s 1
f 139 140 138
s 1
f 141 142 140
s 1
f 143 144 142
s 1
f 145 146 144
s 1
f 147 148 146
s 1
f 149 150 148
s 1
f 151 152 150
s 1
f 153 154 152
s 1
f 153 155 156
s 1
f 159 160 158
s 1
f 161 162 160
s 1
f 163 164 162
s 1
f 165 166 164
s 1
f 167 168 166
s 1
f 169 170 168
s 1
f 171 172 170
s 1
f 173 174 172
s 1
f 175 176 174
s 1
f 177 178 176
s 1
f 179 180 178
s 1
f 179 181 182
s 1
f 185 186 184
s 1
f 187 188 186
s 1
f 189 190 188
s 1
f 191 192 190
s 1
f 193 194 192
s 1
f 195 196 194
s 1
f 197 198 196
s 1
f 199 200 198
s 1
f 201 202 200
s 1
f 203 204 202
s 1
f 205 206 204
s 1
f 205 207 208
s 1
f 211 212 210
s 1
f 213 214 212
s 1
f 215 216 214
s 1
f 217 218 216
s 1
f 219 220 218
s 1
f 221 222 220
s 1
f 223 224 222
s 1
f 225 226 224
s 1
f 227 228 226
s 1
f 229 230 228
s 1
f 231 232 230
s 1
f 231 233 234
s 1
f 237 238 236
s 1
f 239 240 238
s 1
f 241 242 240
s 1
f 243 244 242
s 1
f 245 246 244
s 1
f 247 248 246
s 1
f 249 250 248
s 1
f 251 252 250
s 1
f 253 254 252
s 1
f 255 256 254
s 1
f 257 258 256
s 1
f 257 259 260
s 1
f 263 264 262
s 1
f 265 266 264
s 1
f 267 268 266
s 1
f 269 270 268
s 1
f 271 272 270
s 1
f 273 274 272
s 1
f 275 276 274
s 1
f 277 278 276
s 1
f 279 280 278
s 1
f 281 282 280
s 1
f 283 284 282
s 1
f 283 285 286
s 1
f 288 290 289
s 1
f 290 292 291
s 1
f 292 294 293
s 1
f 294 296 295
s 1
f 296 298 297
s 1
f 298 300 299
s 1
f 300 302 301
s 1
f 302 304 303
s 1
f 304 306 305
s 1
f 306 308 307
s 1
f 308 310 309
s 1
f 309 310 312
s 1
f 314 316 315
s 1
f 316 318 317
s 1
f 318 320 319
s 1
f 320 322 321
s 1
f 322 324 323
s 1
f 324 326 325
s 1
f 326 328 327
s 1
f 328 330 329
s 1
f 330 332 331
s 1
f 332 334 333
s 1
f 334 336 335
s 1
f 335 336 338
s 1
f 340 342 341
s 1
f 342 344 343
s 1
f 344 346 345
s 1
f 346 348 347
s 1
f 348 350 349
s 1
f 350 352 351
s 1
f 352 354 353
s 1
f 354 356 355
s 1
f 356 358 357
s 1
f 358 360 359
s 1
f 360 362 361
s 1
f 361 362 364
s 1
f 366 368 367
s 1
f 368 370 369
s 1
f 370 372 371
s 1
f 372 374 373
s 1
f 374 376 375
s 1
f 376 378 377
s 1
f 378 380 379
s 1
f 380 382 381
s 1
f 382 384 383
s 1
f 384 386 385
s 1
f 386 388 387
s 1
f 387 388 390
s 1
f 392 394 393
s 1
f 394 396 395
s 1
f 396 398 397
s 1
f 398 400 399
s 1
f 400 402 401
s 1
f 402 404 403
s 1
f 404 406 405
s 1
f 406 408 407
s 1
f 408 410 409
s 1
f 410 412 411
s 1
f 412 414 413
s 1
f 413 414 416
s 1
f 418 420 419
s 1
f 420 422 421
s 1
f 422 424 423
s 1
f 424 426 425
s 1
f 426 428 427
s 1
f 428 430 429
s 1
f 430 432 431
s 1
f 432 434 433
s 1
f 434 436 435
s 1
f 436 438 437
s 1
f 438 440 439
s 1
f 439 440 442
s 1
f 444 446 445
s 1
f 446 448 447
s 1
f 448 450 449
s 1
f 450 452 451
s 1
f 452 454 453
s 1
f 454 456 455
s 1
f 456 458 457
s 1
f 458 460 459
s 1
f 460 462 461
s 1
f 462 464 463
s 1
f 464 466 465
s 1
f 465 466 468
s 1
f 470 472 471
s 1
f 472 474 473
s 1
f 474 476 475
s 1
f 476 478 477
s 1
f 478 480 479
s 1
f 480 482 481
s 1
f 482 484 483
s 1
f 484 486 485
s 1
f 486 488 487
s 1
f 488 490 489
s 1
f 490 492 491
s 1
f 491 492 494
s 1
f 496 498 497
s 1
f 498 500 499
s 1
f 500 502 501
s 1
f 502 504 503
s 1
f 504 506 505
s 1
f 506 508 507
s 1
f 508 510 509
s 1
f 510 512 511
s 1
f 512 514 513
s 1
f 514 516 515
s 1
f 516 518 517
s 1
f 517 518 520
s 1
f 522 524 523
s 1
f 524 526 525
s 1
f 526 528 527
s 1
f 528 530 529
s 1
f 530 532 531
s 1
f 532 534 533
s 1
f 534 536 535
s 1
f 536 538 537
s 1
f 538 540 539
s 1
f 540 542 541
s 1
f 542 544 543
s 1
f 543 544 546
s 1
f 548 550 549
s 1
f 550 552 551
s 1
f 552 554 553
s 1
f 554 556 555
s 1
f 556 558 557
s 1
f 558 560 559
s 1
f 560 562 561
s 1
f 562 564 563
s 1
f 564 566 565
s 1
f 566 568 567
s 1
f 568 570 569
s 1
f 569 570 572
s 1
f 2 288 287
s 1
f 3 1 287
s 1
f 2 4 290
s 1
f 5 3 289
s 1
f 4 6 292
s 1
f 7 5 291
s 1
f 6 8 294
s 1
f 9 7 293
s 1
f 8 10 296
s 1
f 11 9 295
s 1
f 10 12 298
s 1
f 13 11 297
s 1
f 12 14 300
s 1
f 15 13 299
s 1
f 14 16 302
s 1
f 17 15 301
s 1
f 16 18 304
s 1
f 19 17 303
s 1
f 18 20 306
s 1
f 21 19 305
s 1
f 22 308 306
s 1
f 23 21 307
s 1
f 24 310 308
s 1
f 25 23 309
s 1
f 26 25 311
s 1
f 26 312 310
s 1
f 28 314 313
s 1
f 29 27 313
s 1
f 28 30 316
s 1
f 31 29 315
s 1
f 30 32 318
s 1
f 33 31 317
s 1
f 32 34 320
s 1
f 35 33 319
s 1
f 34 36 322
s 1
f 37 35 321
s 1
f 36 38 324
s 1
f 39 37 323
s 1
f 38 40 326
s 1
f 41 39 325
s 1
f 40 42 328
s 1
f 43 41 327
s 1
f 42 44 330
s 1
f 45 43 329
s 1
f 44 46 332
s 1
f 47 45 331
s 1
f 48 334 332
s 1
f 49 47 333
s 1
f 50 336 334
s 1
f 51 49 335
s 1
f 52 51 337
s 1
f 52 338 336
s 1
f 54 340 339
s 1
f 55 53 339
s 1
f 54 56 342
s 1
f 57 55 341
s 1
f 56 58 344
s 1
f 59 57 343
s 1
f 58 60 346
s 1
f 61 59 345
s 1
f 60 62 348
s 1
f 63 61 347
s 1
f 62 64 350
s 1
f 65 63 349
s 1
f 64 66 352
s 1
f 67 65 351
s 1
f 66 68 354
s 1
f 69 67 353
s 1
f 68 70 356
s 1
f 71 69 355
s 1
f 70 72 358
s 1
f 73 71 357
s 1
f 72 74 360
s 1
f 75 73 359
s 1
f 76 362 360
s 1
f 77 75 361
s 1
f 78 77 363
s 1
f 78 364 362
s 1
f 80 366 365
s 1
f 81 79 365
s 1
f 80 82 368
s 1
f 83 81 367
s 1
f 82 84 370
s 1
f 85 83 369
s 1
f 84 86 372
s 1
f 87 85 371
s 1
f 86 88 374
s 1
f 89 87 373
s 1
f 88 90 376
s 1
f 91 89 375
s 1
f 90 92 378
s 1
f 93 91 377
s 1
f 92 94 380
s 1
f 95 93 379
s 1
f 94 96 382
s 1
f 97 95 381
s 1
f 96 98 384
s 1
f 99 97 383
s 1
f 100 386 384
s 1
f 101 99 385
s 1
f 102 388 386
s 1
f 103 101 387
s 1
f 104 103 389
s 1
f 104 390 388
s 1
f 106 392 391
s 1
f 107 105 391
s 1
f 106 108 394
s 1
f 109 107 393
s 1
f 108 110 396
s 1
f 111 109 395
s 1
f 110 112 398
s 1
f 113 111 397
s 1
f 112 114 400
s 1
f 115 113 399
s 1
f 114 116 402
s 1
f 117 115 401
s 1
f 116 118 404
s 1
f 119 117 403
s 1
f 118 120 406
s 1
f 121 119 405
s 1
f 120 122 408
s 1
f 123 121 407
s 1
f 122 124 410
s 1
f 125 123 409
s 1
f 126 412 410
s 1
f 127 125 411
s 1
f 128 414 412
s 1
f 129 127 413
s 1
f 130 129 415
s 1
f 130 416 414
s 1
f 132 418 417
s 1
f 133 131 417
s 1
f 132 134 420
s 1
f 135 133 419
s 1
f 134 136 422
s 1
f 137 135 421
s 1
f 136 138 424
s 1
f 139 137 423
s 1
f 138 140 426
s 1
f 141 139 425
s 1
f 140 142 428
s 1
f 143 141 427
s 1
f 142 144 430
s 1
f 145 143 429
s 1
f 144 146 432
s 1
f 147 145 431
s 1
f 146 148 434
s 1
f 149 147 433
s 1
f 148 150 436
s 1
f 151 149 435
s 1
f 150 152 438
s 1
f 153 151 437
s 1
f 154 440 438
s 1
f 155 153 439
s 1
f 156 155 441
s 1
f 156 442 440
s 1
f 158 444 443
s 1
f 159 157 443
s 1
f 158 160 446
s 1
f 161 159 445
s 1
f 160 162 448
s 1
f 163 161 447
s 1
f 162 164 450
s 1
f 165 163 449
s 1
f 164 166 452
s 1
f 167 165 451
s 1
f 166 168 454
s 1
f 169 167 453
s 1
f 168 170 456
s 1
f 171 169 455
s 1
f 170 172 458
s 1
f 173 171 457
s 1
f 172 174 460
s 1
f 175 173 459
s 1
f 174 176 462
s 1
f 177 175 461
s 1
f 176 178 464
s 1
f 179 177 463
s 1
f 180 466 464
s 1
f 181 179 465
s 1
f 182 181 467
s 1
f 182 468 466
s 1
f 184 470 469
s 1
f 185 183 469
s 1
f 184 186 472
s 1
f 187 185 471
s 1
f 186 188 474
s 1
f 189 187 473
s 1
f 188 190 476
s 1
f 191 189 475
s 1
f 190 192 478
s 1
f 193 191 477
s 1
f 192 194 480
s 1
f 195 193 479
s 1
f 194 196 482
s 1
f 197 195 481
s 1
f 196 198 484
s 1
f 199 197 483
s 1
f 198 200 486
s 1
f 201 199 485
s 1
f 200 202 488
s 1
f 203 201 487
s 1
f 204 490 488
s 1
f 205 203 489
s 1
f 206 492 490
s 1
f 207 205 491
s 1
f 208 207 493
s 1
f 208 494 492
s 1
f 210 496 495
s 1
f 211 209 495
s 1
f 210 212 498
s 1
f 213 211 497
s 1
f 212 214 500
s 1
f 215 213 499
s 1
f 214 216 502
s 1
f 217 215 501
s 1
f 216 218 504
s 1
f 219 217 503
s 1
f 218 220 506
s 1
f 221 219 505
s 1
f 220 222 508
s 1
f 223 221 507
s 1
f 222 224 510
s 1
f 225 223 509
s 1
f 224 226 512
s 1
f 227 225 511
s 1
f 226 228 514
s 1
f 229 227 513
s 1
f 230 516 514
s 1
f 231 229 515
s 1
f 232 518 516
s 1
f 233 231 517
s 1
f 234 233 519
s 1
f 234 520 518
s 1
f 236 522 521
s 1
f 237 235 521
s 1
f 236 238 524
s 1
f 239 237 523
s 1
f 238 240 526
s 1
f 241 239 525
s 1
f 240 242 528
s 1
f 243 241 527
s 1
f 242 244 530
s 1
f 245 243 529
s 1
f 244 246 532
s 1
f 247 245 531
s 1
f 246 248 534
s 1
f 249 247 533
s 1
f 248 250 536
s 1
f 251 249 535
s 1
f 250 252 538
s 1
f 253 251 537
s 1
f 252 254 540
s 1
f 255 253 539
s 1
f 254 256 542
s 1
f 257 255 541
s 1
f 258 544 542
s 1
f 259 257 543
s 1
f 260 259 545
s 1
f 260 546 544
s 1
f 262 548 547
s 1
f 263 261 547
s 1
f 262 264 550
s 1
f 265 263 549
s 1
f 264 266 552
s 1
f 267 265 551
s 1
f 266 268 554
s 1
f 269 267 553
s 1
f 268 270 556
s 1
f 271 269 555
s 1
f 270 272 558
s 1
f 273 271 557
s 1
f 272 274 560
s 1
f 275 273 559
s 1
f 274 276 562
s 1
f 277 275 561
s 1
f 276 278 564
s 1
f 279 277 563
s 1
f 278 280 566
s 1
f 281 279 565
s 1
f 280 282 568
s 1
f 283 281 567
s 1
f 284 570 568
s 1
f 285 283 569
s 1
f 286 285 571
s 1
f 286 572 570
