# eclipse Ring1_Flare.obj: Roblox cue frame, recentred on its bounding box
v -0.56042 0.00146 -0.00354
v -0.56365 0.00070 -0.00130
v -0.56322 -0.00080 0.00238
v -0.55956 -0.00156 0.00382
v -0.55634 -0.00080 0.00158
v -0.55676 0.00070 -0.00210
v -0.55829 0.04673 0.01475
v -0.56150 0.04610 0.01705
v -0.56108 0.04458 0.02072
v -0.55743 0.04368 0.02210
v -0.55422 0.04430 0.01981
v -0.55464 0.04583 0.01613
v -0.55190 0.09167 0.03291
v -0.55509 0.09131 0.03531
v -0.55466 0.08975 0.03897
v -0.55106 0.08855 0.04023
v -0.54788 0.08892 0.03783
v -0.54830 0.09048 0.03417
v -0.54132 0.13593 0.05079
v -0.54444 0.13582 0.05329
v -0.54403 0.13423 0.05694
v -0.54050 0.13274 0.05808
v -0.53738 0.13285 0.05559
v -0.53779 0.13444 0.05194
v -0.52662 0.17916 0.06826
v -0.52965 0.17930 0.07086
v -0.52926 0.17768 0.07449
v -0.52582 0.17591 0.07553
v -0.52278 0.17577 0.07293
v -0.52318 0.17739 0.06929
v -0.50791 0.22104 0.08518
v -0.51084 0.22142 0.08787
v -0.51045 0.21977 0.09150
v -0.50714 0.21773 0.09242
v -0.50421 0.21734 0.08973
v -0.50459 0.21900 0.08611
v -0.48533 0.26125 0.10142
v -0.48813 0.26186 0.10421
v -0.48777 0.26018 0.10782
v -0.48460 0.25788 0.10864
v -0.48180 0.25726 0.10585
v -0.48216 0.25894 0.10225
v -0.45906 0.29948 0.11687
v -0.46171 0.30032 0.11975
v -0.46137 0.29860 0.12334
v -0.45837 0.29605 0.12407
v -0.45572 0.29521 0.12119
v -0.45607 0.29692 0.11759
v -0.42930 0.33544 0.13140
v -0.43177 0.33649 0.13436
v -0.43145 0.33475 0.13795
v -0.42866 0.33196 0.13858
v -0.42618 0.33091 0.13562
v -0.42650 0.33265 0.13203
v -0.39626 0.36886 0.14490
v -0.39855 0.37010 0.14794
v -0.39826 0.36834 0.15152
v -0.39568 0.36533 0.15206
v -0.39339 0.36409 0.14902
v -0.39368 0.36585 0.14544
v -0.36022 0.39948 0.15727
v -0.36230 0.40090 0.16038
v -0.36203 0.39912 0.16395
v -0.35969 0.39591 0.16441
v -0.35760 0.39449 0.16131
v -0.35787 0.39628 0.15774
v -0.32143 0.42708 0.16842
v -0.32329 0.42866 0.17159
v -0.32305 0.42685 0.17515
v -0.32096 0.42347 0.17555
v -0.31910 0.42189 0.17238
v -0.31934 0.42369 0.16881
v -0.28020 0.45143 0.17826
v -0.28182 0.45315 0.18149
v -0.28161 0.45133 0.18504
v -0.27978 0.44779 0.18537
v -0.27816 0.44607 0.18215
v -0.27837 0.44789 0.17859
v -0.23683 0.47236 0.18672
v -0.23820 0.47421 0.18999
v -0.23803 0.47237 0.19354
v -0.23648 0.46869 0.19382
v -0.23511 0.46685 0.19054
v -0.23529 0.46868 0.18699
v -0.19166 0.48971 0.19373
v -0.19277 0.49165 0.19704
v -0.19263 0.48981 0.20059
v -0.19138 0.48601 0.20082
v -0.19027 0.48407 0.19750
v -0.19041 0.48591 0.19396
v -0.14503 0.50334 0.19923
v -0.14587 0.50536 0.20258
v -0.14577 0.50351 0.20612
v -0.14482 0.49963 0.20632
v -0.14398 0.49760 0.20297
v -0.14409 0.49945 0.19943
v -0.09730 0.51315 0.20320
v -0.09787 0.51523 0.20656
v -0.09780 0.51337 0.21010
v -0.09716 0.50942 0.21028
v -0.09660 0.50734 0.20691
v -0.09667 0.50920 0.20337
v -0.04883 0.51906 0.20559
v -0.04912 0.52118 0.20897
v -0.04908 0.51932 0.21250
v -0.04876 0.51533 0.21266
v -0.04848 0.51321 0.20928
v -0.04852 0.51508 0.20575
v 0.00001 0.52104 0.20638
v 0.00001 0.52317 0.20977
v 0.00001 0.52131 0.21331
v 0.00001 0.51731 0.21346
v 0.00001 0.51518 0.21008
v 0.00001 0.51704 0.20654
v 0.04885 0.51906 0.20558
v 0.04913 0.52118 0.20896
v 0.04910 0.51932 0.21250
v 0.04878 0.51534 0.21267
v 0.04850 0.51321 0.20929
v 0.04853 0.51507 0.20575
v 0.09732 0.51314 0.20319
v 0.09789 0.51523 0.20656
v 0.09782 0.51337 0.21010
v 0.09718 0.50943 0.21028
v 0.09662 0.50734 0.20692
v 0.09669 0.50919 0.20337
v 0.14505 0.50333 0.19923
v 0.14589 0.50536 0.20257
v 0.14579 0.50352 0.20611
v 0.14484 0.49963 0.20632
v 0.14400 0.49760 0.20298
v 0.14411 0.49945 0.19944
v 0.19168 0.48970 0.19372
v 0.19279 0.49165 0.19703
v 0.19265 0.48982 0.20058
v 0.19141 0.48602 0.20082
v 0.19029 0.48407 0.19752
v 0.19043 0.48590 0.19396
v 0.23684 0.47235 0.18671
v 0.23822 0.47421 0.18998
v 0.23805 0.47238 0.19353
v 0.23651 0.46870 0.19383
v 0.23514 0.46685 0.19056
v 0.23530 0.46867 0.18700
v 0.28021 0.45142 0.17826
v 0.28183 0.45315 0.18147
v 0.28163 0.45135 0.18503
v 0.27981 0.44780 0.18538
v 0.27819 0.44607 0.18217
v 0.27838 0.44787 0.17860
v 0.32144 0.42706 0.16841
v 0.32330 0.42866 0.17157
v 0.32308 0.42687 0.17514
v 0.32099 0.42348 0.17556
v 0.31912 0.42189 0.17240
v 0.31935 0.42368 0.16883
v 0.36022 0.39947 0.15726
v 0.36231 0.40090 0.16036
v 0.36206 0.39914 0.16394
v 0.35972 0.39593 0.16442
v 0.35763 0.39449 0.16133
v 0.35788 0.39626 0.15775
v 0.39626 0.36884 0.14489
v 0.39856 0.37010 0.14791
v 0.39829 0.36836 0.15150
v 0.39571 0.36535 0.15207
v 0.39341 0.36409 0.14905
v 0.39369 0.36583 0.14546
v 0.42929 0.33542 0.13139
v 0.43178 0.33649 0.13433
v 0.43149 0.33477 0.13793
v 0.42870 0.33198 0.13859
v 0.42620 0.33091 0.13564
v 0.42650 0.33263 0.13205
v 0.45905 0.29946 0.11686
v 0.46172 0.30032 0.11971
v 0.46140 0.29862 0.12332
v 0.45842 0.29607 0.12408
v 0.45575 0.29521 0.12122
v 0.45607 0.29690 0.11761
v 0.48532 0.26123 0.10141
v 0.48814 0.26187 0.10418
v 0.48780 0.26020 0.10780
v 0.48465 0.25789 0.10865
v 0.48183 0.25725 0.10589
v 0.48216 0.25892 0.10227
v 0.50789 0.22102 0.08517
v 0.51084 0.22143 0.08784
v 0.51049 0.21979 0.09147
v 0.50719 0.21774 0.09243
v 0.50424 0.21734 0.08976
v 0.50459 0.21898 0.08613
v 0.52660 0.17915 0.06825
v 0.52966 0.17931 0.07082
v 0.52930 0.17770 0.07446
v 0.52588 0.17592 0.07554
v 0.52282 0.17576 0.07297
v 0.52318 0.17737 0.06932
v 0.54129 0.13592 0.05078
v 0.54444 0.13583 0.05325
v 0.54408 0.13425 0.05691
v 0.54056 0.13275 0.05809
v 0.53741 0.13284 0.05563
v 0.53778 0.13442 0.05197
v 0.55187 0.09166 0.03290
v 0.55508 0.09132 0.03527
v 0.55471 0.08977 0.03893
v 0.55113 0.08856 0.04024
v 0.54792 0.08890 0.03788
v 0.54829 0.09046 0.03421
v 0.55825 0.04673 0.01475
v 0.56150 0.04612 0.01700
v 0.56113 0.04460 0.02068
v 0.55750 0.04368 0.02211
v 0.55425 0.04429 0.01985
v 0.55463 0.04581 0.01617
v 0.56039 0.00144 -0.00355
v 0.56365 0.00057 -0.00140
v 0.56327 -0.00092 0.00229
v 0.55963 -0.00154 0.00384
v 0.55637 -0.00067 0.00169
v 0.55675 0.00082 -0.00200
v 0.55825 -0.04384 -0.02184
v 0.56150 -0.04497 -0.01980
v 0.56113 -0.04643 -0.01610
v 0.55751 -0.04676 -0.01444
v 0.55426 -0.04563 -0.01648
v 0.55463 -0.04417 -0.02018
v 0.55187 -0.08878 -0.04000
v 0.55508 -0.09017 -0.03807
v 0.55471 -0.09160 -0.03435
v 0.55113 -0.09164 -0.03257
v 0.54792 -0.09025 -0.03450
v 0.54829 -0.08882 -0.03822
v 0.54129 -0.13303 -0.05788
v 0.54444 -0.13468 -0.05605
v 0.54408 -0.13608 -0.05232
v 0.54057 -0.13584 -0.05042
v 0.53742 -0.13419 -0.05225
v 0.53778 -0.13279 -0.05598
v 0.52659 -0.17626 -0.07535
v 0.52965 -0.17816 -0.07362
v 0.52930 -0.17954 -0.06988
v 0.52589 -0.17901 -0.06786
v 0.52282 -0.17711 -0.06959
v 0.52317 -0.17573 -0.07333
v 0.50788 -0.21814 -0.09226
v 0.51083 -0.22028 -0.09064
v 0.51050 -0.22163 -0.08689
v 0.50721 -0.22083 -0.08476
v 0.50425 -0.21869 -0.08639
v 0.50458 -0.21734 -0.09014
v 0.48530 -0.25834 -0.10851
v 0.48813 -0.26072 -0.10698
v 0.48781 -0.26204 -0.10322
v 0.48467 -0.26098 -0.10098
v 0.48184 -0.25860 -0.10251
v 0.48216 -0.25728 -0.10628
v 0.45903 -0.29657 -0.12395
v 0.46171 -0.29917 -0.12251
v 0.46141 -0.30047 -0.11874
v 0.45843 -0.29916 -0.11641
v 0.45576 -0.29656 -0.11785
v 0.45606 -0.29526 -0.12162
v 0.42927 -0.33253 -0.13848
v 0.43178 -0.33534 -0.13713
v 0.43150 -0.33661 -0.13335
v 0.42871 -0.33507 -0.13092
v 0.42621 -0.33226 -0.13227
v 0.42649 -0.33099 -0.13605
v 0.39625 -0.36594 -0.15198
v 0.39856 -0.36895 -0.15071
v 0.39830 -0.37020 -0.14692
v 0.39573 -0.36845 -0.14440
v 0.39342 -0.36544 -0.14568
v 0.39368 -0.36419 -0.14947
v 0.36020 -0.39656 -0.16435
v 0.36230 -0.39975 -0.16316
v 0.36207 -0.40098 -0.15936
v 0.35974 -0.39903 -0.15676
v 0.35764 -0.39585 -0.15796
v 0.35787 -0.39461 -0.16176
v 0.32142 -0.42415 -0.17550
v 0.32329 -0.42750 -0.17437
v 0.32309 -0.42872 -0.17056
v 0.32101 -0.42659 -0.16789
v 0.31913 -0.42324 -0.16903
v 0.31934 -0.42203 -0.17283
v 0.28019 -0.44851 -0.18534
v 0.28182 -0.45200 -0.18427
v 0.28164 -0.45320 -0.18046
v 0.27983 -0.45091 -0.17772
v 0.27819 -0.44743 -0.17879
v 0.27837 -0.44622 -0.18261
v 0.23683 -0.46943 -0.19380
v 0.23821 -0.47305 -0.19277
v 0.23806 -0.47424 -0.18896
v 0.23652 -0.47182 -0.18617
v 0.23514 -0.46821 -0.18719
v 0.23529 -0.46701 -0.19101
v 0.19166 -0.48678 -0.20080
v 0.19278 -0.49049 -0.19982
v 0.19266 -0.49167 -0.19600
v 0.19142 -0.48914 -0.19317
v 0.19030 -0.48543 -0.19415
v 0.19042 -0.48425 -0.19797
v 0.14504 -0.50041 -0.20631
v 0.14589 -0.50420 -0.20536
v 0.14580 -0.50537 -0.20154
v 0.14486 -0.50276 -0.19867
v 0.14401 -0.49896 -0.19961
v 0.14410 -0.49779 -0.20344
v 0.09731 -0.51022 -0.21027
v 0.09788 -0.51407 -0.20935
v 0.09782 -0.51524 -0.20553
v 0.09719 -0.51255 -0.20262
v 0.09662 -0.50870 -0.20355
v 0.09668 -0.50753 -0.20737
v 0.04885 -0.51613 -0.21266
v 0.04913 -0.52002 -0.21176
v 0.04910 -0.52118 -0.20793
v 0.04879 -0.51846 -0.20501
v 0.04850 -0.51458 -0.20592
v 0.04853 -0.51341 -0.20975
v 0.00001 -0.51811 -0.21346
v 0.00001 -0.52200 -0.21256
v 0.00001 -0.52317 -0.20873
v 0.00001 -0.52044 -0.20581
v 0.00001 -0.51654 -0.20671
v 0.00001 -0.51538 -0.21054
v -0.04883 -0.51613 -0.21266
v -0.04911 -0.52001 -0.21176
v -0.04908 -0.52118 -0.20793
v -0.04877 -0.51847 -0.20501
v -0.04848 -0.51458 -0.20592
v -0.04851 -0.51341 -0.20974
v -0.09729 -0.51021 -0.21027
v -0.09786 -0.51406 -0.20935
v -0.09780 -0.51524 -0.20553
v -0.09717 -0.51256 -0.20263
v -0.09660 -0.50871 -0.20354
v -0.09666 -0.50753 -0.20737
v -0.14502 -0.50040 -0.20631
v -0.14587 -0.50419 -0.20537
v -0.14578 -0.50538 -0.20155
v -0.14484 -0.50276 -0.19867
v -0.14399 -0.49897 -0.19961
v -0.14408 -0.49779 -0.20343
v -0.19164 -0.48677 -0.20080
v -0.19276 -0.49048 -0.19983
v -0.19264 -0.49167 -0.19601
v -0.19140 -0.48915 -0.19317
v -0.19028 -0.48544 -0.19414
v -0.19040 -0.48425 -0.19796
v -0.23680 -0.46942 -0.19379
v -0.23819 -0.47304 -0.19278
v -0.23804 -0.47424 -0.18897
v -0.23651 -0.47183 -0.18617
v -0.23513 -0.46822 -0.18718
v -0.23527 -0.46701 -0.19099
v -0.28016 -0.44849 -0.18534
v -0.28180 -0.45198 -0.18428
v -0.28163 -0.45320 -0.18047
v -0.27982 -0.45093 -0.17772
v -0.27818 -0.44744 -0.17878
v -0.27835 -0.44622 -0.18259
v -0.32139 -0.42414 -0.17550
v -0.32327 -0.42749 -0.17438
v -0.32308 -0.42872 -0.17058
v -0.32100 -0.42661 -0.16790
v -0.31912 -0.42326 -0.16901
v -0.31931 -0.42202 -0.17281
v -0.36017 -0.39655 -0.16435
v -0.36228 -0.39973 -0.16317
v -0.36206 -0.40099 -0.15938
v -0.35973 -0.39905 -0.15676
v -0.35762 -0.39586 -0.15794
v -0.35784 -0.39461 -0.16174
v -0.39621 -0.36593 -0.15198
v -0.39853 -0.36893 -0.15073
v -0.39829 -0.37020 -0.14694
v -0.39573 -0.36847 -0.14441
v -0.39341 -0.36546 -0.14566
v -0.39365 -0.36419 -0.14944
v -0.42923 -0.33251 -0.13848
v -0.43175 -0.33532 -0.13715
v -0.43149 -0.33661 -0.13337
v -0.42872 -0.33509 -0.13092
v -0.42620 -0.33228 -0.13225
v -0.42646 -0.33099 -0.13603
v -0.45899 -0.29655 -0.12395
v -0.46168 -0.29915 -0.12254
v -0.46141 -0.30047 -0.11877
v -0.45844 -0.29918 -0.11641
v -0.45575 -0.29658 -0.11783
v -0.45603 -0.29526 -0.12159
v -0.48526 -0.25832 -0.10850
v -0.48810 -0.26070 -0.10700
v -0.48781 -0.26204 -0.10324
v -0.48467 -0.26100 -0.10099
v -0.48183 -0.25862 -0.10249
v -0.48212 -0.25728 -0.10625
v -0.50783 -0.21812 -0.09226
v -0.51080 -0.22026 -0.09067
v -0.51050 -0.22163 -0.08692
v -0.50722 -0.22085 -0.08476
v -0.50424 -0.21870 -0.08636
v -0.50455 -0.21734 -0.09011
v -0.52653 -0.17625 -0.07534
v -0.52962 -0.17814 -0.07365
v -0.52931 -0.17953 -0.06991
v -0.52591 -0.17902 -0.06787
v -0.52282 -0.17713 -0.06956
v -0.52313 -0.17574 -0.07330
v -0.54123 -0.13302 -0.05788
v -0.54440 -0.13466 -0.05608
v -0.54408 -0.13608 -0.05236
v -0.54059 -0.13585 -0.05042
v -0.53741 -0.13421 -0.05222
v -0.53773 -0.13279 -0.05595
v -0.55181 -0.08877 -0.04000
v -0.55505 -0.09016 -0.03810
v -0.55472 -0.09160 -0.03438
v -0.55116 -0.09165 -0.03257
v -0.54792 -0.09027 -0.03447
v -0.54825 -0.08883 -0.03818
v -0.55819 -0.04384 -0.02185
v -0.56146 -0.04496 -0.01984
v -0.56113 -0.04642 -0.01613
v -0.55753 -0.04677 -0.01443
v -0.55426 -0.04565 -0.01644
v -0.55458 -0.04418 -0.02014
v -0.56032 0.00143 -0.00356
v -0.56360 0.00044 -0.00150
v -0.56328 -0.00104 0.00220
v -0.55966 -0.00153 0.00385
v -0.55638 -0.00054 0.00179
v -0.55671 0.00094 -0.00191
f 2 7 1
f 2 9 8
f 3 10 9
f 4 11 10
f 6 11 5
f 1 12 6
f 7 14 13
f 8 15 14
f 10 15 9
f 10 17 16
f 11 18 17
f 12 13 18
f 14 19 13
f 14 21 20
f 15 22 21
f 16 23 22
f 17 24 23
f 18 19 24
f 19 26 25
f 20 27 26
f 21 28 27
f 23 28 22
f 23 30 29
f 24 25 30
f 26 31 25
f 26 33 32
f 27 34 33
f 28 35 34
f 29 36 35
f 30 31 36
f 31 38 37
f 33 38 32
f 33 40 39
f 35 40 34
f 35 42 41
f 36 37 42
f 37 44 43
f 38 45 44
f 39 46 45
f 40 47 46
f 41 48 47
f 42 43 48
f 43 50 49
f 44 51 50
f 45 52 51
f 46 53 52
f 48 53 47
f 48 49 54
f 49 56 55
f 50 57 56
f 51 58 57
f 52 59 58
f 53 60 59
f 49 60 54
f 56 61 55
f 57 62 56
f 57 64 63
f 59 64 58
f 59 66 65
f 60 61 66
f 61 68 67
f 63 68 62
f 63 70 69
f 65 70 64
f 65 72 71
f 66 67 72
f 67 74 73
f 68 75 74
f 69 76 75
f 70 77 76
f 71 78 77
f 72 73 78
f 74 79 73
f 75 80 74
f 75 82 81
f 76 83 82
f 77 84 83
f 78 79 84
f 79 86 85
f 80 87 86
f 81 88 87
f 83 88 82
f 83 90 89
f 84 85 90
f 85 92 91
f 86 93 92
f 87 94 93
f 88 95 94
f 89 96 95
f 90 91 96
f 91 98 97
f 92 99 98
f 93 100 99
f 94 101 100
f 95 102 101
f 96 97 102
f 97 104 103
f 98 105 104
f 99 106 105
f 100 107 106
f 101 108 107
f 102 103 108
f 103 110 109
f 104 111 110
f 105 112 111
f 106 113 112
f 107 114 113
f 108 109 114
f 109 116 115
f 111 116 110
f 111 118 117
f 112 119 118
f 113 120 119
f 114 115 120
f 115 122 121
f 116 123 122
f 117 124 123
f 118 125 124
f 119 126 125
f 120 121 126
f 121 128 127
f 123 128 122
f 123 130 129
f 124 131 130
f 125 132 131
f 126 127 132
f 127 134 133
f 128 135 134
f 129 136 135
f 130 137 136
f 131 138 137
f 132 133 138
f 133 140 139
f 135 140 134
f 135 142 141
f 136 143 142
f 137 144 143
f 138 139 144
f 139 146 145
f 141 146 140
f 141 148 147
f 142 149 148
f 143 150 149
f 144 145 150
f 145 152 151
f 147 152 146
f 147 154 153
f 148 155 154
f 149 156 155
f 150 151 156
f 152 157 151
f 152 159 158
f 153 160 159
f 154 161 160
f 155 162 161
f 156 157 162
f 157 164 163
f 158 165 164
f 159 166 165
f 161 166 160
f 161 168 167
f 162 163 168
f 163 170 169
f 164 171 170
f 165 172 171
f 166 173 172
f 167 174 173
f 168 169 174
f 169 176 175
f 170 177 176
f 171 178 177
f 173 178 172
f 173 180 179
f 169 180 174
f 175 182 181
f 176 183 182
f 177 184 183
f 178 185 184
f 179 186 185
f 180 181 186
f 182 187 181
f 182 189 188
f 183 190 189
f 184 191 190
f 185 192 191
f 186 187 192
f 187 194 193
f 188 195 194
f 189 196 195
f 190 197 196
f 191 198 197
f 192 193 198
f 193 200 199
f 194 201 200
f 195 202 201
f 196 203 202
f 197 204 203
f 198 199 204
f 199 206 205
f 200 207 206
f 201 208 207
f 203 208 202
f 203 210 209
f 204 205 210
f 205 212 211
f 206 213 212
f 207 214 213
f 208 215 214
f 209 216 215
f 210 211 216
f 212 217 211
f 212 219 218
f 214 219 213
f 214 221 220
f 215 222 221
f 216 217 222
f 218 223 217
f 218 225 224
f 220 225 219
f 220 227 226
f 221 228 227
f 222 223 228
f 223 230 229
f 224 231 230
f 225 232 231
f 226 233 232
f 227 234 233
f 223 234 228
f 229 236 235
f 231 236 230
f 231 238 237
f 232 239 238
f 233 240 239
f 234 235 240
f 236 241 235
f 236 243 242
f 237 244 243
f 238 245 244
f 239 246 245
f 240 241 246
f 241 248 247
f 242 249 248
f 243 250 249
f 244 251 250
f 245 252 251
f 246 247 252
f 247 254 253
f 248 255 254
f 249 256 255
f 250 257 256
f 251 258 257
f 252 253 258
f 254 259 253
f 254 261 260
f 255 262 261
f 256 263 262
f 257 264 263
f 258 259 264
f 259 266 265
f 260 267 266
f 261 268 267
f 262 269 268
f 264 269 263
f 264 265 270
f 265 272 271
f 266 273 272
f 267 274 273
f 268 275 274
f 269 276 275
f 265 276 270
f 271 278 277
f 272 279 278
f 273 280 279
f 274 281 280
f 276 281 275
f 276 277 282
f 278 283 277
f 279 284 278
f 279 286 285
f 280 287 286
f 281 288 287
f 282 283 288
f 283 290 289
f 284 291 290
f 285 292 291
f 286 293 292
f 287 294 293
f 288 289 294
f 289 296 295
f 290 297 296
f 292 297 291
f 292 299 298
f 293 300 299
f 294 295 300
f 296 301 295
f 296 303 302
f 297 304 303
f 298 305 304
f 299 306 305
f 295 306 300
f 301 308 307
f 302 309 308
f 303 310 309
f 304 311 310
f 305 312 311
f 306 307 312
f 307 314 313
f 309 314 308
f 309 316 315
f 310 317 316
f 311 318 317
f 312 313 318
f 313 320 319
f 314 321 320
f 315 322 321
f 316 323 322
f 317 324 323
f 318 319 324
f 319 326 325
f 320 327 326
f 321 328 327
f 322 329 328
f 323 330 329
f 324 325 330
f 325 332 331
f 326 333 332
f 327 334 333
f 328 335 334
f 329 336 335
f 330 331 336
f 331 338 337
f 333 338 332
f 333 340 339
f 334 341 340
f 336 341 335
f 336 337 342
f 337 344 343
f 338 345 344
f 339 346 345
f 340 347 346
f 341 348 347
f 342 343 348
f 343 350 349
f 344 351 350
f 345 352 351
f 346 353 352
f 347 354 353
f 348 349 354
f 349 356 355
f 351 356 350
f 351 358 357
f 352 359 358
f 354 359 353
f 349 360 354
f 356 361 355
f 356 363 362
f 358 363 357
f 358 365 364
f 359 366 365
f 355 366 360
f 361 368 367
f 362 369 368
f 363 370 369
f 364 371 370
f 366 371 365
f 361 372 366
f 367 374 373
f 369 374 368
f 369 376 375
f 370 377 376
f 371 378 377
f 367 378 372
f 373 380 379
f 374 381 380
f 375 382 381
f 377 382 376
f 377 384 383
f 373 384 378
f 379 386 385
f 380 387 386
f 382 387 381
f 382 389 388
f 383 390 389
f 384 385 390
f 385 392 391
f 387 392 386
f 387 394 393
f 388 395 394
f 390 395 389
f 385 396 390
f 391 398 397
f 392 399 398
f 393 400 399
f 394 401 400
f 395 402 401
f 396 397 402
f 397 404 403
f 398 405 404
f 399 406 405
f 400 407 406
f 401 408 407
f 397 408 402
f 403 410 409
f 404 411 410
f 405 412 411
f 406 413 412
f 407 414 413
f 408 409 414
f 409 416 415
f 410 417 416
f 411 418 417
f 412 419 418
f 414 419 413
f 414 415 420
f 415 422 421
f 416 423 422
f 417 424 423
f 419 424 418
f 419 426 425
f 415 426 420
f 421 428 427
f 422 429 428
f 423 430 429
f 425 430 424
f 425 432 431
f 421 432 426
f 427 434 433
f 429 434 428
f 430 435 429
f 431 436 430
f 431 438 437
f 432 433 438
f 2 8 7
f 2 3 9
f 3 4 10
f 4 5 11
f 6 12 11
f 1 7 12
f 7 8 14
f 8 9 15
f 10 16 15
f 10 11 17
f 11 12 18
f 12 7 13
f 14 20 19
f 14 15 21
f 15 16 22
f 16 17 23
f 17 18 24
f 18 13 19
f 19 20 26
f 20 21 27
f 21 22 28
f 23 29 28
f 23 24 30
f 24 19 25
f 26 32 31
f 26 27 33
f 27 28 34
f 28 29 35
f 29 30 36
f 30 25 31
f 31 32 38
f 33 39 38
f 33 34 40
f 35 41 40
f 35 36 42
f 36 31 37
f 37 38 44
f 38 39 45
f 39 40 46
f 40 41 47
f 41 42 48
f 42 37 43
f 43 44 50
f 44 45 51
f 45 46 52
f 46 47 53
f 48 54 53
f 48 43 49
f 49 50 56
f 50 51 57
f 51 52 58
f 52 53 59
f 53 54 60
f 49 55 60
f 56 62 61
f 57 63 62
f 57 58 64
f 59 65 64
f 59 60 66
f 60 55 61
f 61 62 68
f 63 69 68
f 63 64 70
f 65 71 70
f 65 66 72
f 66 61 67
f 67 68 74
f 68 69 75
f 69 70 76
f 70 71 77
f 71 72 78
f 72 67 73
f 74 80 79
f 75 81 80
f 75 76 82
f 76 77 83
f 77 78 84
f 78 73 79
f 79 80 86
f 80 81 87
f 81 82 88
f 83 89 88
f 83 84 90
f 84 79 85
f 85 86 92
f 86 87 93
f 87 88 94
f 88 89 95
f 89 90 96
f 90 85 91
f 91 92 98
f 92 93 99
f 93 94 100
f 94 95 101
f 95 96 102
f 96 91 97
f 97 98 104
f 98 99 105
f 99 100 106
f 100 101 107
f 101 102 108
f 102 97 103
f 103 104 110
f 104 105 111
f 105 106 112
f 106 107 113
f 107 108 114
f 108 103 109
f 109 110 116
f 111 117 116
f 111 112 118
f 112 113 119
f 113 114 120
f 114 109 115
f 115 116 122
f 116 117 123
f 117 118 124
f 118 119 125
f 119 120 126
f 120 115 121
f 121 122 128
f 123 129 128
f 123 124 130
f 124 125 131
f 125 126 132
f 126 121 127
f 127 128 134
f 128 129 135
f 129 130 136
f 130 131 137
f 131 132 138
f 132 127 133
f 133 134 140
f 135 141 140
f 135 136 142
f 136 137 143
f 137 138 144
f 138 133 139
f 139 140 146
f 141 147 146
f 141 142 148
f 142 143 149
f 143 144 150
f 144 139 145
f 145 146 152
f 147 153 152
f 147 148 154
f 148 149 155
f 149 150 156
f 150 145 151
f 152 158 157
f 152 153 159
f 153 154 160
f 154 155 161
f 155 156 162
f 156 151 157
f 157 158 164
f 158 159 165
f 159 160 166
f 161 167 166
f 161 162 168
f 162 157 163
f 163 164 170
f 164 165 171
f 165 166 172
f 166 167 173
f 167 168 174
f 168 163 169
f 169 170 176
f 170 171 177
f 171 172 178
f 173 179 178
f 173 174 180
f 169 175 180
f 175 176 182
f 176 177 183
f 177 178 184
f 178 179 185
f 179 180 186
f 180 175 181
f 182 188 187
f 182 183 189
f 183 184 190
f 184 185 191
f 185 186 192
f 186 181 187
f 187 188 194
f 188 189 195
f 189 190 196
f 190 191 197
f 191 192 198
f 192 187 193
f 193 194 200
f 194 195 201
f 195 196 202
f 196 197 203
f 197 198 204
f 198 193 199
f 199 200 206
f 200 201 207
f 201 202 208
f 203 209 208
f 203 204 210
f 204 199 205
f 205 206 212
f 206 207 213
f 207 208 214
f 208 209 215
f 209 210 216
f 210 205 211
f 212 218 217
f 212 213 219
f 214 220 219
f 214 215 221
f 215 216 222
f 216 211 217
f 218 224 223
f 218 219 225
f 220 226 225
f 220 221 227
f 221 222 228
f 222 217 223
f 223 224 230
f 224 225 231
f 225 226 232
f 226 227 233
f 227 228 234
f 223 229 234
f 229 230 236
f 231 237 236
f 231 232 238
f 232 233 239
f 233 234 240
f 234 229 235
f 236 242 241
f 236 237 243
f 237 238 244
f 238 239 245
f 239 240 246
f 240 235 241
f 241 242 248
f 242 243 249
f 243 244 250
f 244 245 251
f 245 246 252
f 246 241 247
f 247 248 254
f 248 249 255
f 249 250 256
f 250 251 257
f 251 252 258
f 252 247 253
f 254 260 259
f 254 255 261
f 255 256 262
f 256 257 263
f 257 258 264
f 258 253 259
f 259 260 266
f 260 261 267
f 261 262 268
f 262 263 269
f 264 270 269
f 264 259 265
f 265 266 272
f 266 267 273
f 267 268 274
f 268 269 275
f 269 270 276
f 265 271 276
f 271 272 278
f 272 273 279
f 273 274 280
f 274 275 281
f 276 282 281
f 276 271 277
f 278 284 283
f 279 285 284
f 279 280 286
f 280 281 287
f 281 282 288
f 282 277 283
f 283 284 290
f 284 285 291
f 285 286 292
f 286 287 293
f 287 288 294
f 288 283 289
f 289 290 296
f 290 291 297
f 292 298 297
f 292 293 299
f 293 294 300
f 294 289 295
f 296 302 301
f 296 297 303
f 297 298 304
f 298 299 305
f 299 300 306
f 295 301 306
f 301 302 308
f 302 303 309
f 303 304 310
f 304 305 311
f 305 306 312
f 306 301 307
f 307 308 314
f 309 315 314
f 309 310 316
f 310 311 317
f 311 312 318
f 312 307 313
f 313 314 320
f 314 315 321
f 315 316 322
f 316 317 323
f 317 318 324
f 318 313 319
f 319 320 326
f 320 321 327
f 321 322 328
f 322 323 329
f 323 324 330
f 324 319 325
f 325 326 332
f 326 327 333
f 327 328 334
f 328 329 335
f 329 330 336
f 330 325 331
f 331 332 338
f 333 339 338
f 333 334 340
f 334 335 341
f 336 342 341
f 336 331 337
f 337 338 344
f 338 339 345
f 339 340 346
f 340 341 347
f 341 342 348
f 342 337 343
f 343 344 350
f 344 345 351
f 345 346 352
f 346 347 353
f 347 348 354
f 348 343 349
f 349 350 356
f 351 357 356
f 351 352 358
f 352 353 359
f 354 360 359
f 349 355 360
f 356 362 361
f 356 357 363
f 358 364 363
f 358 359 365
f 359 360 366
f 355 361 366
f 361 362 368
f 362 363 369
f 363 364 370
f 364 365 371
f 366 372 371
f 361 367 372
f 367 368 374
f 369 375 374
f 369 370 376
f 370 371 377
f 371 372 378
f 367 373 378
f 373 374 380
f 374 375 381
f 375 376 382
f 377 383 382
f 377 378 384
f 373 379 384
f 379 380 386
f 380 381 387
f 382 388 387
f 382 383 389
f 383 384 390
f 384 379 385
f 385 386 392
f 387 393 392
f 387 388 394
f 388 389 395
f 390 396 395
f 385 391 396
f 391 392 398
f 392 393 399
f 393 394 400
f 394 395 401
f 395 396 402
f 396 391 397
f 397 398 404
f 398 399 405
f 399 400 406
f 400 401 407
f 401 402 408
f 397 403 408
f 403 404 410
f 404 405 411
f 405 406 412
f 406 407 413
f 407 408 414
f 408 403 409
f 409 410 416
f 410 411 417
f 411 412 418
f 412 413 419
f 414 420 419
f 414 409 415
f 415 416 422
f 416 417 423
f 417 418 424
f 419 425 424
f 419 420 426
f 415 421 426
f 421 422 428
f 422 423 429
f 423 424 430
f 425 431 430
f 425 426 432
f 421 427 432
f 427 428 434
f 429 435 434
f 430 436 435
f 431 437 436
f 431 432 438
f 432 427 433
