# eclipse Ring2_Flare.obj: Roblox cue frame, recentred on its bounding box
v -0.54972 0.00212 0.00331
v -0.55331 0.00105 0.00190
v -0.55359 -0.00107 -0.00147
v -0.55027 -0.00213 -0.00345
v -0.54668 -0.00107 -0.00204
v -0.54640 0.00105 0.00133
v -0.54762 -0.03853 0.02870
v -0.55120 -0.03972 0.02738
v -0.55148 -0.04186 0.02401
v -0.54818 -0.04280 0.02196
v -0.54460 -0.04160 0.02328
v -0.54432 -0.03947 0.02665
v -0.54137 -0.07885 0.05390
v -0.54491 -0.08031 0.05274
v -0.54518 -0.08246 0.04938
v -0.54191 -0.08316 0.04718
v -0.53837 -0.08170 0.04834
v -0.53810 -0.07954 0.05170
v -0.53099 -0.11855 0.07871
v -0.53446 -0.12027 0.07771
v -0.53472 -0.12245 0.07437
v -0.53152 -0.12290 0.07202
v -0.52805 -0.12119 0.07301
v -0.52778 -0.11901 0.07636
v -0.51657 -0.15734 0.10295
v -0.51994 -0.15932 0.10211
v -0.52020 -0.16151 0.09878
v -0.51708 -0.16173 0.09628
v -0.51371 -0.15976 0.09712
v -0.51345 -0.15756 0.10045
v -0.49821 -0.19492 0.12643
v -0.50147 -0.19714 0.12574
v -0.50172 -0.19935 0.12242
v -0.49871 -0.19934 0.11978
v -0.49546 -0.19712 0.12047
v -0.49521 -0.19491 0.12379
v -0.47607 -0.23099 0.14897
v -0.47918 -0.23345 0.14843
v -0.47942 -0.23568 0.14512
v -0.47654 -0.23545 0.14235
v -0.47343 -0.23300 0.14289
v -0.47320 -0.23077 0.14620
v -0.45030 -0.26529 0.17040
v -0.45325 -0.26797 0.17000
v -0.45347 -0.27022 0.16670
v -0.45075 -0.26979 0.16380
v -0.44781 -0.26711 0.16420
v -0.44759 -0.26486 0.16750
v -0.42111 -0.29756 0.19057
v -0.42386 -0.30045 0.19030
v -0.42407 -0.30271 0.18700
v -0.42153 -0.30209 0.18398
v -0.41877 -0.29919 0.18425
v -0.41857 -0.29693 0.18754
v -0.38871 -0.32755 0.20930
v -0.39125 -0.33063 0.20916
v -0.39144 -0.33291 0.20587
v -0.38909 -0.33210 0.20274
v -0.38655 -0.32901 0.20289
v -0.38636 -0.32674 0.20617
v -0.35335 -0.35502 0.22647
v -0.35566 -0.35829 0.22644
v -0.35584 -0.36058 0.22316
v -0.35370 -0.35960 0.21992
v -0.35139 -0.35634 0.21996
v -0.35122 -0.35405 0.22324
v -0.31531 -0.37978 0.24195
v -0.31737 -0.38321 0.24201
v -0.31752 -0.38551 0.23874
v -0.31561 -0.38438 0.23541
v -0.31356 -0.38096 0.23535
v -0.31340 -0.37866 0.23861
v -0.27486 -0.40164 0.25560
v -0.27666 -0.40521 0.25575
v -0.27679 -0.40752 0.25249
v -0.27513 -0.40626 0.24908
v -0.27333 -0.40269 0.24892
v -0.27320 -0.40038 0.25219
v -0.23232 -0.42042 0.26734
v -0.23384 -0.42411 0.26756
v -0.23395 -0.42643 0.26431
v -0.23255 -0.42505 0.26082
v -0.23103 -0.42136 0.26059
v -0.23092 -0.41904 0.26385
v -0.18801 -0.43598 0.27706
v -0.18924 -0.43978 0.27735
v -0.18933 -0.44210 0.27410
v -0.18820 -0.44063 0.27056
v -0.18697 -0.43684 0.27027
v -0.18688 -0.43451 0.27352
v -0.14228 -0.44821 0.28470
v -0.14320 -0.45209 0.28504
v -0.14327 -0.45442 0.28179
v -0.14241 -0.45287 0.27821
v -0.14148 -0.44900 0.27787
v -0.14142 -0.44667 0.28112
v -0.09545 -0.45702 0.29021
v -0.09608 -0.46095 0.29058
v -0.09612 -0.46328 0.28733
v -0.09555 -0.46168 0.28371
v -0.09492 -0.45775 0.28334
v -0.09488 -0.45542 0.28658
v -0.04791 -0.46232 0.29352
v -0.04822 -0.46629 0.29392
v -0.04824 -0.46863 0.29067
v -0.04795 -0.46700 0.28703
v -0.04764 -0.46303 0.28664
v -0.04762 -0.46069 0.28988
v 0.00001 -0.46410 0.29463
v 0.00001 -0.46808 0.29503
v 0.00001 -0.47042 0.29179
v 0.00001 -0.46877 0.28814
v 0.00001 -0.46479 0.28774
v 0.00001 -0.46246 0.29099
v 0.04792 -0.46233 0.29352
v 0.04823 -0.46629 0.29392
v 0.04825 -0.46863 0.29067
v 0.04796 -0.46700 0.28703
v 0.04765 -0.46303 0.28664
v 0.04763 -0.46069 0.28988
v 0.09547 -0.45702 0.29021
v 0.09609 -0.46095 0.29058
v 0.09614 -0.46328 0.28733
v 0.09556 -0.46168 0.28371
v 0.09493 -0.45775 0.28334
v 0.09489 -0.45542 0.28659
v 0.14229 -0.44822 0.28471
v 0.14322 -0.45209 0.28504
v 0.14328 -0.45442 0.28179
v 0.14242 -0.45287 0.27820
v 0.14150 -0.44899 0.27787
v 0.14143 -0.44667 0.28112
v 0.18803 -0.43599 0.27707
v 0.18926 -0.43978 0.27735
v 0.18934 -0.44210 0.27409
v 0.18820 -0.44063 0.27055
v 0.18698 -0.43683 0.27027
v 0.18689 -0.43451 0.27353
v 0.23234 -0.42042 0.26734
v 0.23385 -0.42412 0.26756
v 0.23396 -0.42643 0.26430
v 0.23255 -0.42505 0.26082
v 0.23104 -0.42135 0.26060
v 0.23093 -0.41904 0.26386
v 0.27488 -0.40164 0.25561
v 0.27667 -0.40522 0.25575
v 0.27680 -0.40752 0.25248
v 0.27513 -0.40625 0.24907
v 0.27334 -0.40268 0.24893
v 0.27321 -0.40037 0.25220
v 0.31533 -0.37979 0.24195
v 0.31738 -0.38322 0.24200
v 0.31753 -0.38551 0.23873
v 0.31562 -0.38438 0.23540
v 0.31356 -0.38094 0.23535
v 0.31342 -0.37865 0.23863
v 0.35338 -0.35503 0.22648
v 0.35568 -0.35830 0.22643
v 0.35584 -0.36058 0.22315
v 0.35370 -0.35959 0.21992
v 0.35140 -0.35632 0.21997
v 0.35124 -0.35404 0.22325
v 0.38874 -0.32756 0.20931
v 0.39127 -0.33065 0.20915
v 0.39145 -0.33291 0.20586
v 0.38909 -0.33209 0.20273
v 0.38656 -0.32900 0.20289
v 0.38638 -0.32673 0.20619
v 0.42114 -0.29757 0.19057
v 0.42388 -0.30047 0.19029
v 0.42408 -0.30272 0.18699
v 0.42152 -0.30208 0.18397
v 0.41878 -0.29918 0.18426
v 0.41859 -0.29693 0.18756
v 0.45033 -0.26530 0.17041
v 0.45327 -0.26799 0.16999
v 0.45347 -0.27023 0.16668
v 0.45074 -0.26978 0.16379
v 0.44781 -0.26709 0.16421
v 0.44761 -0.26486 0.16752
v 0.47610 -0.23100 0.14898
v 0.47921 -0.23346 0.14842
v 0.47942 -0.23569 0.14510
v 0.47654 -0.23544 0.14234
v 0.47343 -0.23298 0.14290
v 0.47322 -0.23076 0.14622
v 0.49825 -0.19493 0.12644
v 0.50150 -0.19715 0.12573
v 0.50172 -0.19936 0.12240
v 0.49870 -0.19933 0.11977
v 0.49545 -0.19711 0.12048
v 0.49523 -0.19490 0.12381
v 0.51660 -0.15735 0.10295
v 0.51997 -0.15933 0.10209
v 0.52020 -0.16152 0.09875
v 0.51707 -0.16172 0.09627
v 0.51370 -0.15974 0.09714
v 0.51347 -0.15755 0.10048
v 0.53103 -0.11856 0.07872
v 0.53449 -0.12029 0.07770
v 0.53472 -0.12246 0.07434
v 0.53150 -0.12290 0.07201
v 0.52804 -0.12117 0.07303
v 0.52781 -0.11900 0.07639
v 0.54141 -0.07885 0.05390
v 0.54493 -0.08032 0.05272
v 0.54518 -0.08248 0.04936
v 0.54189 -0.08316 0.04718
v 0.53837 -0.08168 0.04836
v 0.53812 -0.07953 0.05172
v 0.54767 -0.03853 0.02871
v 0.55124 -0.03974 0.02736
v 0.55148 -0.04187 0.02398
v 0.54816 -0.04280 0.02196
v 0.54459 -0.04158 0.02331
v 0.54435 -0.03945 0.02668
v 0.54976 0.00211 0.00332
v 0.55334 0.00116 0.00180
v 0.55359 -0.00096 -0.00158
v 0.55025 -0.00213 -0.00346
v 0.54667 -0.00118 -0.00194
v 0.54643 0.00094 0.00144
v 0.54767 0.04274 -0.02207
v 0.55124 0.04206 -0.02375
v 0.55148 0.03996 -0.02715
v 0.54815 0.03854 -0.02887
v 0.54459 0.03923 -0.02719
v 0.54435 0.04132 -0.02379
v 0.54141 0.08306 -0.04727
v 0.54494 0.08264 -0.04912
v 0.54517 0.08056 -0.05253
v 0.54189 0.07890 -0.05409
v 0.53836 0.07932 -0.05224
v 0.53813 0.08140 -0.04884
v 0.53103 0.12277 -0.07209
v 0.53449 0.12261 -0.07409
v 0.53472 0.12055 -0.07751
v 0.53150 0.11865 -0.07892
v 0.52804 0.11881 -0.07692
v 0.52781 0.12087 -0.07350
v 0.51661 0.16156 -0.09632
v 0.51997 0.16165 -0.09849
v 0.52020 0.15961 -0.10192
v 0.51706 0.15747 -0.10318
v 0.51370 0.15738 -0.10102
v 0.51347 0.15943 -0.09759
v 0.49826 0.19914 -0.11980
v 0.50150 0.19947 -0.12212
v 0.50172 0.19744 -0.12556
v 0.49869 0.19508 -0.12668
v 0.49545 0.19475 -0.12437
v 0.49523 0.19678 -0.12093
v 0.47611 0.23522 -0.14235
v 0.47921 0.23579 -0.14481
v 0.47942 0.23377 -0.14826
v 0.47653 0.23119 -0.14925
v 0.47343 0.23062 -0.14678
v 0.47322 0.23264 -0.14333
v 0.45035 0.26952 -0.16378
v 0.45328 0.27031 -0.16639
v 0.45347 0.26831 -0.16985
v 0.45073 0.26552 -0.17070
v 0.44780 0.26473 -0.16809
v 0.44761 0.26673 -0.16464
v 0.42115 0.30179 -0.18395
v 0.42389 0.30279 -0.18668
v 0.42407 0.30080 -0.19015
v 0.42151 0.29782 -0.19088
v 0.41877 0.29682 -0.18814
v 0.41859 0.29880 -0.18468
v 0.38875 0.33178 -0.20269
v 0.39128 0.33297 -0.20555
v 0.39144 0.33100 -0.20902
v 0.38908 0.32783 -0.20964
v 0.38655 0.32663 -0.20677
v 0.38639 0.32861 -0.20330
v 0.35339 0.35926 -0.21986
v 0.35569 0.36063 -0.22283
v 0.35584 0.35867 -0.22631
v 0.35369 0.35533 -0.22682
v 0.35139 0.35396 -0.22385
v 0.35124 0.35592 -0.22037
v 0.31534 0.38402 -0.23533
v 0.31739 0.38555 -0.23840
v 0.31752 0.38360 -0.24189
v 0.31561 0.38011 -0.24230
v 0.31356 0.37858 -0.23923
v 0.31342 0.38053 -0.23574
v 0.27489 0.40587 -0.24898
v 0.27668 0.40755 -0.25215
v 0.27679 0.40560 -0.25564
v 0.27512 0.40198 -0.25597
v 0.27334 0.40031 -0.25281
v 0.27322 0.40225 -0.24932
v 0.23235 0.42465 -0.26072
v 0.23386 0.42645 -0.26396
v 0.23396 0.42451 -0.26746
v 0.23254 0.42078 -0.26772
v 0.23103 0.41898 -0.26448
v 0.23094 0.42092 -0.26098
v 0.18804 0.44022 -0.27045
v 0.18926 0.44212 -0.27375
v 0.18934 0.44018 -0.27725
v 0.18820 0.43636 -0.27745
v 0.18697 0.43446 -0.27415
v 0.18689 0.43639 -0.27065
v 0.14230 0.45245 -0.27809
v 0.14322 0.45443 -0.28144
v 0.14328 0.45250 -0.28495
v 0.14242 0.44860 -0.28510
v 0.14149 0.44662 -0.28175
v 0.14143 0.44855 -0.27824
v 0.09547 0.46126 -0.28359
v 0.09609 0.46329 -0.28698
v 0.09613 0.46136 -0.29049
v 0.09555 0.45741 -0.29060
v 0.09493 0.45537 -0.28721
v 0.09489 0.45730 -0.28371
v 0.04792 0.46657 -0.28691
v 0.04823 0.46863 -0.29032
v 0.04825 0.46671 -0.29383
v 0.04796 0.46272 -0.29392
v 0.04765 0.46065 -0.29051
v 0.04763 0.46258 -0.28700
v 0.00001 0.46834 -0.28802
v 0.00001 0.47042 -0.29144
v 0.00001 0.46849 -0.29495
v 0.00001 0.46449 -0.29503
v 0.00001 0.46242 -0.29161
v 0.00001 0.46434 -0.28811
v -0.04791 0.46657 -0.28691
v -0.04822 0.46863 -0.29032
v -0.04824 0.46671 -0.29383
v -0.04795 0.46272 -0.29392
v -0.04764 0.46065 -0.29051
v -0.04762 0.46258 -0.28700
v -0.09546 0.46126 -0.28359
v -0.09608 0.46329 -0.28698
v -0.09612 0.46136 -0.29049
v -0.09554 0.45740 -0.29060
v -0.09492 0.45537 -0.28721
v -0.09488 0.45730 -0.28371
v -0.14229 0.45246 -0.27809
v -0.14321 0.45443 -0.28145
v -0.14327 0.45249 -0.28495
v -0.14240 0.44859 -0.28510
v -0.14148 0.44662 -0.28174
v -0.14142 0.44855 -0.27824
v -0.18803 0.44023 -0.27045
v -0.18925 0.44212 -0.27376
v -0.18933 0.44018 -0.27726
v -0.18818 0.43635 -0.27745
v -0.18696 0.43446 -0.27414
v -0.18688 0.43640 -0.27064
v -0.23234 0.42466 -0.26072
v -0.23385 0.42645 -0.26397
v -0.23394 0.42450 -0.26746
v -0.23253 0.42077 -0.26771
v -0.23102 0.41898 -0.26447
v -0.23093 0.42093 -0.26097
v -0.27488 0.40588 -0.24899
v -0.27667 0.40755 -0.25216
v -0.27678 0.40559 -0.25565
v -0.27511 0.40197 -0.25597
v -0.27332 0.40031 -0.25280
v -0.27321 0.40226 -0.24931
v -0.31533 0.38403 -0.23533
v -0.31738 0.38555 -0.23841
v -0.31751 0.38359 -0.24190
v -0.31559 0.38010 -0.24230
v -0.31354 0.37858 -0.23922
v -0.31341 0.38054 -0.23574
v -0.35339 0.35927 -0.21986
v -0.35568 0.36063 -0.22284
v -0.35582 0.35866 -0.22632
v -0.35367 0.35532 -0.22681
v -0.35137 0.35396 -0.22383
v -0.35123 0.35593 -0.22036
v -0.38875 0.33179 -0.20269
v -0.39127 0.33297 -0.20556
v -0.39143 0.33099 -0.20903
v -0.38906 0.32782 -0.20963
v -0.38653 0.32664 -0.20676
v -0.38638 0.32862 -0.20329
v -0.42115 0.30180 -0.18395
v -0.42388 0.30279 -0.18670
v -0.42405 0.30079 -0.19016
v -0.42149 0.29781 -0.19088
v -0.41875 0.29682 -0.18813
v -0.41858 0.29882 -0.18467
v -0.45035 0.26953 -0.16379
v -0.45327 0.27031 -0.16641
v -0.45345 0.26830 -0.16986
v -0.45071 0.26551 -0.17070
v -0.44778 0.26473 -0.16808
v -0.44760 0.26674 -0.16462
v -0.47612 0.23523 -0.14235
v -0.47921 0.23578 -0.14483
v -0.47940 0.23376 -0.14828
v -0.47650 0.23118 -0.14924
v -0.47341 0.23063 -0.14676
v -0.47322 0.23265 -0.14332
v -0.49827 0.19915 -0.11981
v -0.50150 0.19947 -0.12214
v -0.50170 0.19743 -0.12558
v -0.49866 0.19507 -0.12668
v -0.49543 0.19475 -0.12435
v -0.49523 0.19679 -0.12091
v -0.51662 0.16157 -0.09633
v -0.51997 0.16165 -0.09851
v -0.52018 0.15959 -0.10194
v -0.51703 0.15746 -0.10318
v -0.51368 0.15739 -0.10100
v -0.51347 0.15944 -0.09757
v -0.53105 0.12278 -0.07209
v -0.53449 0.12260 -0.07411
v -0.53470 0.12053 -0.07753
v -0.53146 0.11864 -0.07892
v -0.52802 0.11882 -0.07690
v -0.52781 0.12089 -0.07348
v -0.54143 0.08307 -0.04727
v -0.54494 0.08263 -0.04914
v -0.54515 0.08055 -0.05254
v -0.54185 0.07890 -0.05409
v -0.53834 0.07933 -0.05222
v -0.53813 0.08142 -0.04882
v -0.54769 0.04274 -0.02207
v -0.55124 0.04205 -0.02378
v -0.55145 0.03995 -0.02717
v -0.54811 0.03854 -0.02887
v -0.54456 0.03924 -0.02717
v -0.54435 0.04134 -0.02377
v -0.54978 0.00210 0.00332
v -0.55334 0.00127 0.00170
v -0.55356 -0.00084 -0.00169
v -0.55021 -0.00212 -0.00346
v -0.54664 -0.00129 -0.00184
v -0.54643 0.00082 0.00155
f 2 7 1
f 3 8 2
f 3 10 9
f 4 11 10
f 5 12 11
f 1 12 6
f 8 13 7
f 8 15 14
f 9 16 15
f 10 17 16
f 12 17 11
f 7 18 12
f 14 19 13
f 15 20 14
f 16 21 15
f 17 22 16
f 18 23 17
f 13 24 18
f 20 25 19
f 21 26 20
f 21 28 27
f 23 28 22
f 24 29 23
f 19 30 24
f 26 31 25
f 27 32 26
f 28 33 27
f 28 35 34
f 30 35 29
f 25 36 30
f 32 37 31
f 32 39 38
f 33 40 39
f 35 40 34
f 36 41 35
f 31 42 36
f 38 43 37
f 38 45 44
f 40 45 39
f 41 46 40
f 42 47 41
f 37 48 42
f 44 49 43
f 45 50 44
f 45 52 51
f 46 53 52
f 48 53 47
f 43 54 48
f 50 55 49
f 50 57 56
f 52 57 51
f 53 58 52
f 54 59 53
f 49 60 54
f 56 61 55
f 56 63 62
f 58 63 57
f 59 64 58
f 59 66 65
f 55 66 60
f 62 67 61
f 63 68 62
f 64 69 63
f 65 70 64
f 65 72 71
f 66 67 72
f 68 73 67
f 69 74 68
f 70 75 69
f 71 76 70
f 72 77 71
f 72 73 78
f 74 79 73
f 75 80 74
f 76 81 75
f 77 82 76
f 77 84 83
f 78 79 84
f 80 85 79
f 81 86 80
f 82 87 81
f 83 88 82
f 84 89 83
f 79 90 84
f 86 91 85
f 87 92 86
f 88 93 87
f 89 94 88
f 89 96 95
f 85 96 90
f 92 97 91
f 93 98 92
f 94 99 93
f 95 100 94
f 96 101 95
f 91 102 96
f 98 103 97
f 99 104 98
f 100 105 99
f 101 106 100
f 102 107 101
f 97 108 102
f 104 109 103
f 105 110 104
f 106 111 105
f 107 112 106
f 108 113 107
f 103 114 108
f 110 115 109
f 111 116 110
f 112 117 111
f 113 118 112
f 114 119 113
f 109 120 114
f 116 121 115
f 117 122 116
f 118 123 117
f 119 124 118
f 119 126 125
f 115 126 120
f 122 127 121
f 123 128 122
f 123 130 129
f 125 130 124
f 126 131 125
f 121 132 126
f 128 133 127
f 129 134 128
f 129 136 135
f 131 136 130
f 132 137 131
f 127 138 132
f 134 139 133
f 135 140 134
f 136 141 135
f 136 143 142
f 138 143 137
f 133 144 138
f 139 146 145
f 141 146 140
f 141 148 147
f 143 148 142
f 144 149 143
f 139 150 144
f 146 151 145
f 147 152 146
f 147 154 153
f 149 154 148
f 150 155 149
f 145 156 150
f 152 157 151
f 152 159 158
f 153 160 159
f 155 160 154
f 156 161 155
f 151 162 156
f 158 163 157
f 158 165 164
f 160 165 159
f 161 166 160
f 162 167 161
f 157 168 162
f 164 169 163
f 165 170 164
f 166 171 165
f 167 172 166
f 167 174 173
f 168 169 174
f 170 175 169
f 171 176 170
f 172 177 171
f 173 178 172
f 174 179 173
f 169 180 174
f 176 181 175
f 177 182 176
f 178 183 177
f 178 185 184
f 180 185 179
f 175 186 180
f 182 187 181
f 182 189 188
f 184 189 183
f 184 191 190
f 186 191 185
f 181 192 186
f 188 193 187
f 188 195 194
f 189 196 195
f 190 197 196
f 192 197 191
f 187 198 192
f 194 199 193
f 195 200 194
f 195 202 201
f 196 203 202
f 197 204 203
f 193 204 198
f 200 205 199
f 200 207 206
f 201 208 207
f 202 209 208
f 204 209 203
f 199 210 204
f 206 211 205
f 207 212 206
f 208 213 207
f 209 214 208
f 210 215 209
f 205 216 210
f 212 217 211
f 212 219 218
f 214 219 213
f 215 220 214
f 216 221 215
f 211 222 216
f 217 224 223
f 219 224 218
f 219 226 225
f 221 226 220
f 221 228 227
f 217 228 222
f 223 230 229
f 224 231 230
f 226 231 225
f 227 232 226
f 228 233 227
f 223 234 228
f 230 235 229
f 231 236 230
f 231 238 237
f 232 239 238
f 233 240 239
f 234 235 240
f 235 242 241
f 237 242 236
f 237 244 243
f 239 244 238
f 240 245 239
f 235 246 240
f 241 248 247
f 242 249 248
f 244 249 243
f 244 251 250
f 246 251 245
f 241 252 246
f 247 254 253
f 248 255 254
f 250 255 249
f 251 256 250
f 252 257 251
f 252 253 258
f 254 259 253
f 255 260 254
f 256 261 255
f 256 263 262
f 258 263 257
f 253 264 258
f 260 265 259
f 260 267 266
f 262 267 261
f 263 268 262
f 263 270 269
f 259 270 264
f 266 271 265
f 267 272 266
f 268 273 267
f 269 274 268
f 270 275 269
f 265 276 270
f 271 278 277
f 272 279 278
f 274 279 273
f 275 280 274
f 276 281 275
f 271 282 276
f 278 283 277
f 278 285 284
f 280 285 279
f 280 287 286
f 282 287 281
f 277 288 282
f 283 290 289
f 285 290 284
f 286 291 285
f 286 293 292
f 288 293 287
f 283 294 288
f 290 295 289
f 291 296 290
f 291 298 297
f 292 299 298
f 294 299 293
f 289 300 294
f 296 301 295
f 297 302 296
f 298 303 297
f 298 305 304
f 299 306 305
f 300 301 306
f 302 307 301
f 303 308 302
f 304 309 303
f 305 310 304
f 306 311 305
f 301 312 306
f 307 314 313
f 309 314 308
f 310 315 309
f 311 316 310
f 311 318 317
f 307 318 312
f 314 319 313
f 314 321 320
f 316 321 315
f 317 322 316
f 318 323 317
f 313 324 318
f 320 325 319
f 321 326 320
f 322 327 321
f 323 328 322
f 324 329 323
f 319 330 324
f 326 331 325
f 327 332 326
f 328 333 327
f 329 334 328
f 330 335 329
f 325 336 330
f 332 337 331
f 332 339 338
f 334 339 333
f 334 341 340
f 336 341 335
f 331 342 336
f 338 343 337
f 339 344 338
f 340 345 339
f 341 346 340
f 341 348 347
f 337 348 342
f 344 349 343
f 345 350 344
f 346 351 345
f 346 353 352
f 347 354 353
f 343 354 348
f 350 355 349
f 351 356 350
f 351 358 357
f 353 358 352
f 354 359 353
f 349 360 354
f 355 362 361
f 357 362 356
f 358 363 357
f 359 364 358
f 360 365 359
f 355 366 360
f 362 367 361
f 363 368 362
f 364 369 363
f 365 370 364
f 366 371 365
f 361 372 366
f 368 373 367
f 369 374 368
f 370 375 369
f 370 377 376
f 372 377 371
f 367 378 372
f 374 379 373
f 375 380 374
f 376 381 375
f 377 382 376
f 378 383 377
f 373 384 378
f 379 386 385
f 381 386 380
f 381 388 387
f 383 388 382
f 384 389 383
f 379 390 384
f 386 391 385
f 386 393 392
f 388 393 387
f 388 395 394
f 390 395 389
f 390 391 396
f 392 397 391
f 392 399 398
f 394 399 393
f 395 400 394
f 396 401 395
f 396 397 402
f 397 404 403
f 399 404 398
f 400 405 399
f 401 406 400
f 402 407 401
f 397 408 402
f 404 409 403
f 404 411 410
f 406 411 405
f 406 413 412
f 408 413 407
f 408 409 414
f 410 415 409
f 411 416 410
f 412 417 411
f 412 419 418
f 414 419 413
f 409 420 414
f 416 421 415
f 416 423 422
f 417 424 423
f 419 424 418
f 420 425 419
f 415 426 420
f 422 427 421
f 423 428 422
f 423 430 429
f 425 430 424
f 426 431 425
f 426 427 432
f 427 434 433
f 428 435 434
f 430 435 429
f 431 436 430
f 432 437 431
f 432 433 438
f 2 8 7
f 3 9 8
f 3 4 10
f 4 5 11
f 5 6 12
f 1 7 12
f 8 14 13
f 8 9 15
f 9 10 16
f 10 11 17
f 12 18 17
f 7 13 18
f 14 20 19
f 15 21 20
f 16 22 21
f 17 23 22
f 18 24 23
f 13 19 24
f 20 26 25
f 21 27 26
f 21 22 28
f 23 29 28
f 24 30 29
f 19 25 30
f 26 32 31
f 27 33 32
f 28 34 33
f 28 29 35
f 30 36 35
f 25 31 36
f 32 38 37
f 32 33 39
f 33 34 40
f 35 41 40
f 36 42 41
f 31 37 42
f 38 44 43
f 38 39 45
f 40 46 45
f 41 47 46
f 42 48 47
f 37 43 48
f 44 50 49
f 45 51 50
f 45 46 52
f 46 47 53
f 48 54 53
f 43 49 54
f 50 56 55
f 50 51 57
f 52 58 57
f 53 59 58
f 54 60 59
f 49 55 60
f 56 62 61
f 56 57 63
f 58 64 63
f 59 65 64
f 59 60 66
f 55 61 66
f 62 68 67
f 63 69 68
f 64 70 69
f 65 71 70
f 65 66 72
f 66 61 67
f 68 74 73
f 69 75 74
f 70 76 75
f 71 77 76
f 72 78 77
f 72 67 73
f 74 80 79
f 75 81 80
f 76 82 81
f 77 83 82
f 77 78 84
f 78 73 79
f 80 86 85
f 81 87 86
f 82 88 87
f 83 89 88
f 84 90 89
f 79 85 90
f 86 92 91
f 87 93 92
f 88 94 93
f 89 95 94
f 89 90 96
f 85 91 96
f 92 98 97
f 93 99 98
f 94 100 99
f 95 101 100
f 96 102 101
f 91 97 102
f 98 104 103
f 99 105 104
f 100 106 105
f 101 107 106
f 102 108 107
f 97 103 108
f 104 110 109
f 105 111 110
f 106 112 111
f 107 113 112
f 108 114 113
f 103 109 114
f 110 116 115
f 111 117 116
f 112 118 117
f 113 119 118
f 114 120 119
f 109 115 120
f 116 122 121
f 117 123 122
f 118 124 123
f 119 125 124
f 119 120 126
f 115 121 126
f 122 128 127
f 123 129 128
f 123 124 130
f 125 131 130
f 126 132 131
f 121 127 132
f 128 134 133
f 129 135 134
f 129 130 136
f 131 137 136
f 132 138 137
f 127 133 138
f 134 140 139
f 135 141 140
f 136 142 141
f 136 137 143
f 138 144 143
f 133 139 144
f 139 140 146
f 141 147 146
f 141 142 148
f 143 149 148
f 144 150 149
f 139 145 150
f 146 152 151
f 147 153 152
f 147 148 154
f 149 155 154
f 150 156 155
f 145 151 156
f 152 158 157
f 152 153 159
f 153 154 160
f 155 161 160
f 156 162 161
f 151 157 162
f 158 164 163
f 158 159 165
f 160 166 165
f 161 167 166
f 162 168 167
f 157 163 168
f 164 170 169
f 165 171 170
f 166 172 171
f 167 173 172
f 167 168 174
f 168 163 169
f 170 176 175
f 171 177 176
f 172 178 177
f 173 179 178
f 174 180 179
f 169 175 180
f 176 182 181
f 177 183 182
f 178 184 183
f 178 179 185
f 180 186 185
f 175 181 186
f 182 188 187
f 182 183 189
f 184 190 189
f 184 185 191
f 186 192 191
f 181 187 192
f 188 194 193
f 188 189 195
f 189 190 196
f 190 191 197
f 192 198 197
f 187 193 198
f 194 200 199
f 195 201 200
f 195 196 202
f 196 197 203
f 197 198 204
f 193 199 204
f 200 206 205
f 200 201 207
f 201 202 208
f 202 203 209
f 204 210 209
f 199 205 210
f 206 212 211
f 207 213 212
f 208 214 213
f 209 215 214
f 210 216 215
f 205 211 216
f 212 218 217
f 212 213 219
f 214 220 219
f 215 221 220
f 216 222 221
f 211 217 222
f 217 218 224
f 219 225 224
f 219 220 226
f 221 227 226
f 221 222 228
f 217 223 228
f 223 224 230
f 224 225 231
f 226 232 231
f 227 233 232
f 228 234 233
f 223 229 234
f 230 236 235
f 231 237 236
f 231 232 238
f 232 233 239
f 233 234 240
f 234 229 235
f 235 236 242
f 237 243 242
f 237 238 244
f 239 245 244
f 240 246 245
f 235 241 246
f 241 242 248
f 242 243 249
f 244 250 249
f 244 245 251
f 246 252 251
f 241 247 252
f 247 248 254
f 248 249 255
f 250 256 255
f 251 257 256
f 252 258 257
f 252 247 253
f 254 260 259
f 255 261 260
f 256 262 261
f 256 257 263
f 258 264 263
f 253 259 264
f 260 266 265
f 260 261 267
f 262 268 267
f 263 269 268
f 263 264 270
f 259 265 270
f 266 272 271
f 267 273 272
f 268 274 273
f 269 275 274
f 270 276 275
f 265 271 276
f 271 272 278
f 272 273 279
f 274 280 279
f 275 281 280
f 276 282 281
f 271 277 282
f 278 284 283
f 278 279 285
f 280 286 285
f 280 281 287
f 282 288 287
f 277 283 288
f 283 284 290
f 285 291 290
f 286 292 291
f 286 287 293
f 288 294 293
f 283 289 294
f 290 296 295
f 291 297 296
f 291 292 298
f 292 293 299
f 294 300 299
f 289 295 300
f 296 302 301
f 297 303 302
f 298 304 303
f 298 299 305
f 299 300 306
f 300 295 301
f 302 308 307
f 303 309 308
f 304 310 309
f 305 311 310
f 306 312 311
f 301 307 312
f 307 308 314
f 309 315 314
f 310 316 315
f 311 317 316
f 311 312 318
f 307 313 318
f 314 320 319
f 314 315 321
f 316 322 321
f 317 323 322
f 318 324 323
f 313 319 324
f 320 326 325
f 321 327 326
f 322 328 327
f 323 329 328
f 324 330 329
f 319 325 330
f 326 332 331
f 327 333 332
f 328 334 333
f 329 335 334
f 330 336 335
f 325 331 336
f 332 338 337
f 332 333 339
f 334 340 339
f 334 335 341
f 336 342 341
f 331 337 342
f 338 344 343
f 339 345 344
f 340 346 345
f 341 347 346
f 341 342 348
f 337 343 348
f 344 350 349
f 345 351 350
f 346 352 351
f 346 347 353
f 347 348 354
f 343 349 354
f 350 356 355
f 351 357 356
f 351 352 358
f 353 359 358
f 354 360 359
f 349 355 360
f 355 356 362
f 357 363 362
f 358 364 363
f 359 365 364
f 360 366 365
f 355 361 366
f 362 368 367
f 363 369 368
f 364 370 369
f 365 371 370
f 366 372 371
f 361 367 372
f 368 374 373
f 369 375 374
f 370 376 375
f 370 371 377
f 372 378 377
f 367 373 378
f 374 380 379
f 375 381 380
f 376 382 381
f 377 383 382
f 378 384 383
f 373 379 384
f 379 380 386
f 381 387 386
f 381 382 388
f 383 389 388
f 384 390 389
f 379 385 390
f 386 392 391
f 386 387 393
f 388 394 393
f 388 389 395
f 390 396 395
f 390 385 391
f 392 398 397
f 392 393 399
f 394 400 399
f 395 401 400
f 396 402 401
f 396 391 397
f 397 398 404
f 399 405 404
f 400 406 405
f 401 407 406
f 402 408 407
f 397 403 408
f 404 410 409
f 404 405 411
f 406 412 411
f 406 407 413
f 408 414 413
f 408 403 409
f 410 416 415
f 411 417 416
f 412 418 417
f 412 413 419
f 414 420 419
f 409 415 420
f 416 422 421
f 416 417 423
f 417 418 424
f 419 425 424
f 420 426 425
f 415 421 426
f 422 428 427
f 423 429 428
f 423 424 430
f 425 431 430
f 426 432 431
f 426 421 427
f 427 428 434
f 428 429 435
f 430 436 435
f 431 437 436
f 432 438 437
f 432 427 433
