# eclipse Shadow_Void.obj: Roblox cue frame, recentred on its bounding box
v -0.36998 0.00196 0.00000
v -0.36235 0.00159 0.02351
v -0.34237 0.00061 0.03804
v -0.31768 -0.00061 0.03804
v -0.29770 -0.00159 0.02351
v -0.29007 -0.00196 0.00000
v -0.29770 -0.00159 -0.02351
v -0.31768 -0.00061 -0.03804
v -0.34237 0.00061 -0.03804
v -0.36235 0.00159 -0.02351
v -0.36824 0.03627 0.00000
v -0.36064 0.03552 0.02351
v -0.34074 0.03356 0.03804
v -0.31613 0.03113 0.03804
v -0.29623 0.02917 0.02351
v -0.28863 0.02842 0.00000
v -0.29623 0.02917 -0.02351
v -0.31613 0.03113 -0.03804
v -0.34074 0.03356 -0.03804
v -0.36064 0.03552 -0.02351
v -0.36291 0.07218 0.00000
v -0.35542 0.07069 0.02351
v -0.33581 0.06679 0.03804
v -0.31156 0.06197 0.03804
v -0.29194 0.05807 0.02351
v -0.28445 0.05658 0.00000
v -0.29194 0.05807 -0.02351
v -0.31156 0.06197 -0.03804
v -0.33581 0.06679 -0.03804
v -0.35542 0.07069 -0.02351
v -0.35409 0.10741 0.00000
v -0.34678 0.10519 0.02351
v -0.32764 0.09938 0.03804
v -0.30399 0.09221 0.03804
v -0.28485 0.08640 0.02351
v -0.27754 0.08418 0.00000
v -0.28485 0.08640 -0.02351
v -0.30399 0.09221 -0.03804
v -0.32764 0.09938 -0.03804
v -0.34678 0.10519 -0.02351
v -0.34186 0.14159 0.00000
v -0.33480 0.13867 0.02351
v -0.31632 0.13102 0.03804
v -0.29348 0.12156 0.03804
v -0.27501 0.11390 0.02351
v -0.26795 0.11098 0.00000
v -0.27501 0.11390 -0.02351
v -0.29348 0.12156 -0.03804
v -0.31632 0.13102 -0.03804
v -0.33480 0.13867 -0.02351
v -0.32633 0.17442 0.00000
v -0.31960 0.17082 0.02351
v -0.30196 0.16139 0.03804
v -0.28016 0.14973 0.03804
v -0.26252 0.14031 0.02351
v -0.25578 0.13671 0.00000
v -0.26252 0.14031 -0.02351
v -0.28016 0.14973 -0.03804
v -0.30196 0.16139 -0.03804
v -0.31960 0.17082 -0.02351
v -0.30767 0.20556 0.00000
v -0.30132 0.20132 0.02351
v -0.28469 0.19021 0.03804
v -0.26413 0.17647 0.03804
v -0.24750 0.16536 0.02351
v -0.24115 0.16112 0.00000
v -0.24750 0.16536 -0.02351
v -0.26413 0.17647 -0.03804
v -0.28469 0.19021 -0.03804
v -0.30132 0.20132 -0.02351
v -0.28604 0.23473 0.00000
v -0.28013 0.22988 0.02351
v -0.26467 0.21719 0.03804
v -0.24556 0.20151 0.03804
v -0.23010 0.18882 0.02351
v -0.22420 0.18397 0.00000
v -0.23010 0.18882 -0.02351
v -0.24556 0.20151 -0.03804
v -0.26467 0.21719 -0.03804
v -0.28013 0.22988 -0.02351
v -0.26165 0.26163 0.00000
v -0.25625 0.25623 0.02351
v -0.24211 0.24209 0.03804
v -0.22463 0.22460 0.03804
v -0.21049 0.21046 0.02351
v -0.20509 0.20506 0.00000
v -0.21049 0.21046 -0.02351
v -0.22463 0.22460 -0.03804
v -0.24211 0.24209 -0.03804
v -0.25625 0.25623 -0.02351
v -0.23475 0.28601 0.00000
v -0.22990 0.28011 0.02351
v -0.21722 0.26465 0.03804
v -0.20153 0.24554 0.03804
v -0.18884 0.23008 0.02351
v -0.18400 0.22417 0.00000
v -0.18884 0.23008 -0.02351
v -0.20153 0.24554 -0.03804
v -0.21722 0.26465 -0.03804
v -0.22990 0.28011 -0.02351
v -0.20559 0.30764 0.00000
v -0.20134 0.30129 0.02351
v -0.19023 0.28466 0.03804
v -0.17650 0.26411 0.03804
v -0.16538 0.24748 0.02351
v -0.16114 0.24113 0.00000
v -0.16538 0.24748 -0.02351
v -0.17650 0.26411 -0.03804
v -0.19023 0.28466 -0.03804
v -0.20134 0.30129 -0.02351
v -0.17444 0.32631 0.00000
v -0.17084 0.31957 0.02351
v -0.16141 0.30194 0.03804
v -0.14976 0.28013 0.03804
v -0.14033 0.26249 0.02351
v -0.13673 0.25576 0.00000
v -0.14033 0.26249 -0.02351
v -0.14976 0.28013 -0.03804
v -0.16141 0.30194 -0.03804
v -0.17084 0.31957 -0.02351
v -0.14162 0.34184 0.00000
v -0.13869 0.33478 0.02351
v -0.13104 0.31630 0.03804
v -0.12158 0.29346 0.03804
v -0.11393 0.27498 0.02351
v -0.11100 0.26793 0.00000
v -0.11393 0.27498 -0.02351
v -0.12158 0.29346 -0.03804
v -0.13104 0.31630 -0.03804
v -0.13869 0.33478 -0.02351
v -0.10743 0.35407 0.00000
v -0.10521 0.34676 0.02351
v -0.09941 0.32762 0.03804
v -0.09223 0.30396 0.03804
v -0.08642 0.28482 0.02351
v -0.08421 0.27751 0.00000
v -0.08642 0.28482 -0.02351
v -0.09223 0.30396 -0.03804
v -0.09941 0.32762 -0.03804
v -0.10521 0.34676 -0.02351
v -0.07221 0.36289 0.00000
v -0.07072 0.35540 0.02351
v -0.06682 0.33578 0.03804
v -0.06199 0.31154 0.03804
v -0.05809 0.29192 0.02351
v -0.05660 0.28443 0.00000
v -0.05809 0.29192 -0.02351
v -0.06199 0.31154 -0.03804
v -0.06682 0.33578 -0.03804
v -0.07072 0.35540 -0.02351
v -0.03629 0.36822 0.00000
v -0.03554 0.36062 0.02351
v -0.03358 0.34071 0.03804
v -0.03116 0.31611 0.03804
v -0.02920 0.29621 0.02351
v -0.02845 0.28860 0.00000
v -0.02920 0.29621 -0.02351
v -0.03116 0.31611 -0.03804
v -0.03358 0.34071 -0.03804
v -0.03554 0.36062 -0.02351
v -0.00002 0.37000 0.00000
v -0.00002 0.36236 0.02351
v -0.00002 0.34236 0.03804
v -0.00002 0.31764 0.03804
v -0.00002 0.29764 0.02351
v -0.00002 0.29000 0.00000
v -0.00002 0.29764 -0.02351
v -0.00002 0.31764 -0.03804
v -0.00002 0.34236 -0.03804
v -0.00002 0.36236 -0.02351
v 0.03624 0.36822 0.00000
v 0.03549 0.36062 0.02351
v 0.03353 0.34071 0.03804
v 0.03111 0.31611 0.03804
v 0.02915 0.29621 0.02351
v 0.02840 0.28860 0.00000
v 0.02915 0.29621 -0.02351
v 0.03111 0.31611 -0.03804
v 0.03353 0.34071 -0.03804
v 0.03549 0.36062 -0.02351
v 0.07216 0.36289 0.00000
v 0.07067 0.35540 0.02351
v 0.06677 0.33578 0.03804
v 0.06194 0.31154 0.03804
v 0.05804 0.29192 0.02351
v 0.05655 0.28443 0.00000
v 0.05804 0.29192 -0.02351
v 0.06194 0.31154 -0.03804
v 0.06677 0.33578 -0.03804
v 0.07067 0.35540 -0.02351
v 0.10738 0.35407 0.00000
v 0.10516 0.34676 0.02351
v 0.09936 0.32762 0.03804
v 0.09218 0.30396 0.03804
v 0.08638 0.28482 0.02351
v 0.08416 0.27751 0.00000
v 0.08638 0.28482 -0.02351
v 0.09218 0.30396 -0.03804
v 0.09936 0.32762 -0.03804
v 0.10516 0.34676 -0.02351
v 0.14157 0.34184 0.00000
v 0.13865 0.33478 0.02351
v 0.13099 0.31630 0.03804
v 0.12153 0.29346 0.03804
v 0.11388 0.27498 0.02351
v 0.11095 0.26793 0.00000
v 0.11388 0.27498 -0.02351
v 0.12153 0.29346 -0.03804
v 0.13099 0.31630 -0.03804
v 0.13865 0.33478 -0.02351
v 0.17439 0.32631 0.00000
v 0.17079 0.31957 0.02351
v 0.16136 0.30194 0.03804
v 0.14971 0.28013 0.03804
v 0.14028 0.26249 0.02351
v 0.13668 0.25576 0.00000
v 0.14028 0.26249 -0.02351
v 0.14971 0.28013 -0.03804
v 0.16136 0.30194 -0.03804
v 0.17079 0.31957 -0.02351
v 0.20554 0.30764 0.00000
v 0.20129 0.30129 0.02351
v 0.19018 0.28466 0.03804
v 0.17645 0.26411 0.03804
v 0.16534 0.24748 0.02351
v 0.16109 0.24113 0.00000
v 0.16534 0.24748 -0.02351
v 0.17645 0.26411 -0.03804
v 0.19018 0.28466 -0.03804
v 0.20129 0.30129 -0.02351
v 0.23470 0.28601 0.00000
v 0.22986 0.28011 0.02351
v 0.21717 0.26465 0.03804
v 0.20148 0.24554 0.03804
v 0.18880 0.23008 0.02351
v 0.18395 0.22417 0.00000
v 0.18880 0.23008 -0.02351
v 0.20148 0.24554 -0.03804
v 0.21717 0.26465 -0.03804
v 0.22986 0.28011 -0.02351
v 0.26161 0.26163 0.00000
v 0.25620 0.25623 0.02351
v 0.24206 0.24209 0.03804
v 0.22458 0.22460 0.03804
v 0.21044 0.21046 0.02351
v 0.20504 0.20506 0.00000
v 0.21044 0.21046 -0.02351
v 0.22458 0.22460 -0.03804
v 0.24206 0.24209 -0.03804
v 0.25620 0.25623 -0.02351
v 0.28599 0.23473 0.00000
v 0.28008 0.22988 0.02351
v 0.26462 0.21719 0.03804
v 0.24551 0.20151 0.03804
v 0.23005 0.18882 0.02351
v 0.22415 0.18397 0.00000
v 0.23005 0.18882 -0.02351
v 0.24551 0.20151 -0.03804
v 0.26462 0.21719 -0.03804
v 0.28008 0.22988 -0.02351
v 0.30762 0.20556 0.00000
v 0.30127 0.20132 0.02351
v 0.28464 0.19021 0.03804
v 0.26408 0.17647 0.03804
v 0.24745 0.16536 0.02351
v 0.24110 0.16112 0.00000
v 0.24745 0.16536 -0.02351
v 0.26408 0.17647 -0.03804
v 0.28464 0.19021 -0.03804
v 0.30127 0.20132 -0.02351
v 0.32629 0.17442 0.00000
v 0.31955 0.17082 0.02351
v 0.30191 0.16139 0.03804
v 0.28011 0.14973 0.03804
v 0.26247 0.14031 0.02351
v 0.25573 0.13671 0.00000
v 0.26247 0.14031 -0.02351
v 0.28011 0.14973 -0.03804
v 0.30191 0.16139 -0.03804
v 0.31955 0.17082 -0.02351
v 0.34181 0.14159 0.00000
v 0.33475 0.13867 0.02351
v 0.31628 0.13102 0.03804
v 0.29344 0.12156 0.03804
v 0.27496 0.11390 0.02351
v 0.26790 0.11098 0.00000
v 0.27496 0.11390 -0.02351
v 0.29344 0.12156 -0.03804
v 0.31628 0.13102 -0.03804
v 0.33475 0.13867 -0.02351
v 0.35404 0.10741 0.00000
v 0.34673 0.10519 0.02351
v 0.32759 0.09938 0.03804
v 0.30394 0.09221 0.03804
v 0.28480 0.08640 0.02351
v 0.27749 0.08418 0.00000
v 0.28480 0.08640 -0.02351
v 0.30394 0.09221 -0.03804
v 0.32759 0.09938 -0.03804
v 0.34673 0.10519 -0.02351
v 0.36287 0.07218 0.00000
v 0.35537 0.07069 0.02351
v 0.33576 0.06679 0.03804
v 0.31151 0.06197 0.03804
v 0.29190 0.05807 0.02351
v 0.28440 0.05658 0.00000
v 0.29190 0.05807 -0.02351
v 0.31151 0.06197 -0.03804
v 0.33576 0.06679 -0.03804
v 0.35537 0.07069 -0.02351
v 0.36819 0.03627 0.00000
v 0.36059 0.03552 0.02351
v 0.34069 0.03356 0.03804
v 0.31609 0.03113 0.03804
v 0.29618 0.02917 0.02351
v 0.28858 0.02842 0.00000
v 0.29618 0.02917 -0.02351
v 0.31609 0.03113 -0.03804
v 0.34069 0.03356 -0.03804
v 0.36059 0.03552 -0.02351
v 0.36998 0.00000 0.00000
v 0.36234 0.00000 0.02351
v 0.34234 0.00000 0.03804
v 0.31762 0.00000 0.03804
v 0.29762 0.00000 0.02351
v 0.28998 0.00000 0.00000
v 0.29762 0.00000 -0.02351
v 0.31762 0.00000 -0.03804
v 0.34234 0.00000 -0.03804
v 0.36234 0.00000 -0.02351
v 0.36819 -0.03627 0.00000
v 0.36059 -0.03552 0.02351
v 0.34069 -0.03356 0.03804
v 0.31609 -0.03113 0.03804
v 0.29618 -0.02917 0.02351
v 0.28858 -0.02842 0.00000
v 0.29618 -0.02917 -0.02351
v 0.31609 -0.03113 -0.03804
v 0.34069 -0.03356 -0.03804
v 0.36059 -0.03552 -0.02351
v 0.36287 -0.07218 0.00000
v 0.35537 -0.07069 0.02351
v 0.33576 -0.06679 0.03804
v 0.31151 -0.06197 0.03804
v 0.29190 -0.05807 0.02351
v 0.28440 -0.05658 0.00000
v 0.29190 -0.05807 -0.02351
v 0.31151 -0.06197 -0.03804
v 0.33576 -0.06679 -0.03804
v 0.35537 -0.07069 -0.02351
v 0.35404 -0.10741 0.00000
v 0.34673 -0.10519 0.02351
v 0.32759 -0.09938 0.03804
v 0.30394 -0.09221 0.03804
v 0.28480 -0.08640 0.02351
v 0.27749 -0.08418 0.00000
v 0.28480 -0.08640 -0.02351
v 0.30394 -0.09221 -0.03804
v 0.32759 -0.09938 -0.03804
v 0.34673 -0.10519 -0.02351
v 0.34181 -0.14159 0.00000
v 0.33475 -0.13867 0.02351
v 0.31628 -0.13102 0.03804
v 0.29344 -0.12156 0.03804
v 0.27496 -0.11390 0.02351
v 0.26790 -0.11098 0.00000
v 0.27496 -0.11390 -0.02351
v 0.29344 -0.12156 -0.03804
v 0.31628 -0.13102 -0.03804
v 0.33475 -0.13867 -0.02351
v 0.32629 -0.17442 0.00000
v 0.31955 -0.17082 0.02351
v 0.30191 -0.16139 0.03804
v 0.28011 -0.14973 0.03804
v 0.26247 -0.14031 0.02351
v 0.25573 -0.13671 0.00000
v 0.26247 -0.14031 -0.02351
v 0.28011 -0.14973 -0.03804
v 0.30191 -0.16139 -0.03804
v 0.31955 -0.17082 -0.02351
v 0.30762 -0.20556 0.00000
v 0.30127 -0.20132 0.02351
v 0.28464 -0.19021 0.03804
v 0.26408 -0.17647 0.03804
v 0.24745 -0.16536 0.02351
v 0.24110 -0.16112 0.00000
v 0.24745 -0.16536 -0.02351
v 0.26408 -0.17647 -0.03804
v 0.28464 -0.19021 -0.03804
v 0.30127 -0.20132 -0.02351
v 0.28599 -0.23473 0.00000
v 0.28008 -0.22988 0.02351
v 0.26462 -0.21719 0.03804
v 0.24551 -0.20151 0.03804
v 0.23005 -0.18882 0.02351
v 0.22415 -0.18397 0.00000
v 0.23005 -0.18882 -0.02351
v 0.24551 -0.20151 -0.03804
v 0.26462 -0.21719 -0.03804
v 0.28008 -0.22988 -0.02351
v 0.26161 -0.26163 0.00000
v 0.25620 -0.25623 0.02351
v 0.24206 -0.24209 0.03804
v 0.22458 -0.22460 0.03804
v 0.21044 -0.21046 0.02351
v 0.20504 -0.20506 0.00000
v 0.21044 -0.21046 -0.02351
v 0.22458 -0.22460 -0.03804
v 0.24206 -0.24209 -0.03804
v 0.25620 -0.25623 -0.02351
v 0.23470 -0.28601 0.00000
v 0.22986 -0.28011 0.02351
v 0.21717 -0.26465 0.03804
v 0.20148 -0.24554 0.03804
v 0.18880 -0.23008 0.02351
v 0.18395 -0.22417 0.00000
v 0.18880 -0.23008 -0.02351
v 0.20148 -0.24554 -0.03804
v 0.21717 -0.26465 -0.03804
v 0.22986 -0.28011 -0.02351
v 0.20554 -0.30764 0.00000
v 0.20129 -0.30129 0.02351
v 0.19018 -0.28466 0.03804
v 0.17645 -0.26411 0.03804
v 0.16534 -0.24748 0.02351
v 0.16109 -0.24113 0.00000
v 0.16534 -0.24748 -0.02351
v 0.17645 -0.26411 -0.03804
v 0.19018 -0.28466 -0.03804
v 0.20129 -0.30129 -0.02351
v 0.17439 -0.32631 0.00000
v 0.17079 -0.31957 0.02351
v 0.16136 -0.30194 0.03804
v 0.14971 -0.28013 0.03804
v 0.14028 -0.26249 0.02351
v 0.13668 -0.25576 0.00000
v 0.14028 -0.26249 -0.02351
v 0.14971 -0.28013 -0.03804
v 0.16136 -0.30194 -0.03804
v 0.17079 -0.31957 -0.02351
v 0.14157 -0.34184 0.00000
v 0.13865 -0.33478 0.02351
v 0.13099 -0.31630 0.03804
v 0.12153 -0.29346 0.03804
v 0.11388 -0.27498 0.02351
v 0.11095 -0.26793 0.00000
v 0.11388 -0.27498 -0.02351
v 0.12153 -0.29346 -0.03804
v 0.13099 -0.31630 -0.03804
v 0.13865 -0.33478 -0.02351
v 0.10738 -0.35407 0.00000
v 0.10516 -0.34676 0.02351
v 0.09936 -0.32762 0.03804
v 0.09218 -0.30396 0.03804
v 0.08638 -0.28482 0.02351
v 0.08416 -0.27751 0.00000
v 0.08638 -0.28482 -0.02351
v 0.09218 -0.30396 -0.03804
v 0.09936 -0.32762 -0.03804
v 0.10516 -0.34676 -0.02351
v 0.07216 -0.36289 0.00000
v 0.07067 -0.35540 0.02351
v 0.06677 -0.33578 0.03804
v 0.06194 -0.31154 0.03804
v 0.05804 -0.29192 0.02351
v 0.05655 -0.28443 0.00000
v 0.05804 -0.29192 -0.02351
v 0.06194 -0.31154 -0.03804
v 0.06677 -0.33578 -0.03804
v 0.07067 -0.35540 -0.02351
v 0.03624 -0.36822 0.00000
v 0.03549 -0.36062 0.02351
v 0.03353 -0.34071 0.03804
v 0.03111 -0.31611 0.03804
v 0.02915 -0.29621 0.02351
v 0.02840 -0.28860 0.00000
v 0.02915 -0.29621 -0.02351
v 0.03111 -0.31611 -0.03804
v 0.03353 -0.34071 -0.03804
v 0.03549 -0.36062 -0.02351
v -0.00002 -0.37000 0.00000
v -0.00002 -0.36236 0.02351
v -0.00002 -0.34236 0.03804
v -0.00002 -0.31764 0.03804
v -0.00002 -0.29764 0.02351
v -0.00002 -0.29000 0.00000
v -0.00002 -0.29764 -0.02351
v -0.00002 -0.31764 -0.03804
v -0.00002 -0.34236 -0.03804
v -0.00002 -0.36236 -0.02351
v -0.03629 -0.36822 0.00000
v -0.03554 -0.36062 0.02351
v -0.03358 -0.34071 0.03804
v -0.03116 -0.31611 0.03804
v -0.02920 -0.29621 0.02351
v -0.02845 -0.28860 0.00000
v -0.02920 -0.29621 -0.02351
v -0.03116 -0.31611 -0.03804
v -0.03358 -0.34071 -0.03804
v -0.03554 -0.36062 -0.02351
v -0.07221 -0.36289 0.00000
v -0.07072 -0.35540 0.02351
v -0.06682 -0.33578 0.03804
v -0.06199 -0.31154 0.03804
v -0.05809 -0.29192 0.02351
v -0.05660 -0.28443 0.00000
v -0.05809 -0.29192 -0.02351
v -0.06199 -0.31154 -0.03804
v -0.06682 -0.33578 -0.03804
v -0.07072 -0.35540 -0.02351
v -0.10743 -0.35407 0.00000
v -0.10521 -0.34676 0.02351
v -0.09941 -0.32762 0.03804
v -0.09223 -0.30396 0.03804
v -0.08642 -0.28482 0.02351
v -0.08421 -0.27751 0.00000
v -0.08642 -0.28482 -0.02351
v -0.09223 -0.30396 -0.03804
v -0.09941 -0.32762 -0.03804
v -0.10521 -0.34676 -0.02351
v -0.14162 -0.34184 0.00000
v -0.13869 -0.33478 0.02351
v -0.13104 -0.31630 0.03804
v -0.12158 -0.29346 0.03804
v -0.11393 -0.27498 0.02351
v -0.11100 -0.26793 0.00000
v -0.11393 -0.27498 -0.02351
v -0.12158 -0.29346 -0.03804
v -0.13104 -0.31630 -0.03804
v -0.13869 -0.33478 -0.02351
v -0.17444 -0.32631 0.00000
v -0.17084 -0.31957 0.02351
v -0.16141 -0.30194 0.03804
v -0.14976 -0.28013 0.03804
v -0.14033 -0.26249 0.02351
v -0.13673 -0.25576 0.00000
v -0.14033 -0.26249 -0.02351
v -0.14976 -0.28013 -0.03804
v -0.16141 -0.30194 -0.03804
v -0.17084 -0.31957 -0.02351
v -0.20559 -0.30764 0.00000
v -0.20134 -0.30129 0.02351
v -0.19023 -0.28466 0.03804
v -0.17650 -0.26411 0.03804
v -0.16538 -0.24748 0.02351
v -0.16114 -0.24113 0.00000
v -0.16538 -0.24748 -0.02351
v -0.17650 -0.26411 -0.03804
v -0.19023 -0.28466 -0.03804
v -0.20134 -0.30129 -0.02351
v -0.23475 -0.28601 0.00000
v -0.22990 -0.28011 0.02351
v -0.21722 -0.26465 0.03804
v -0.20153 -0.24554 0.03804
v -0.18884 -0.23008 0.02351
v -0.18400 -0.22417 0.00000
v -0.18884 -0.23008 -0.02351
v -0.20153 -0.24554 -0.03804
v -0.21722 -0.26465 -0.03804
v -0.22990 -0.28011 -0.02351
v -0.26165 -0.26163 0.00000
v -0.25625 -0.25623 0.02351
v -0.24211 -0.24209 0.03804
v -0.22463 -0.22460 0.03804
v -0.21049 -0.21046 0.02351
v -0.20509 -0.20506 0.00000
v -0.21049 -0.21046 -0.02351
v -0.22463 -0.22460 -0.03804
v -0.24211 -0.24209 -0.03804
v -0.25625 -0.25623 -0.02351
v -0.28604 -0.23473 0.00000
v -0.28013 -0.22988 0.02351
v -0.26467 -0.21719 0.03804
v -0.24556 -0.20151 0.03804
v -0.23010 -0.18882 0.02351
v -0.22420 -0.18397 0.00000
v -0.23010 -0.18882 -0.02351
v -0.24556 -0.20151 -0.03804
v -0.26467 -0.21719 -0.03804
v -0.28013 -0.22988 -0.02351
v -0.30767 -0.20556 0.00000
v -0.30132 -0.20132 0.02351
v -0.28469 -0.19021 0.03804
v -0.26413 -0.17647 0.03804
v -0.24750 -0.16536 0.02351
v -0.24115 -0.16112 0.00000
v -0.24750 -0.16536 -0.02351
v -0.26413 -0.17647 -0.03804
v -0.28469 -0.19021 -0.03804
v -0.30132 -0.20132 -0.02351
v -0.32633 -0.17442 0.00000
v -0.31960 -0.17082 0.02351
v -0.30196 -0.16139 0.03804
v -0.28016 -0.14973 0.03804
v -0.26252 -0.14031 0.02351
v -0.25578 -0.13671 0.00000
v -0.26252 -0.14031 -0.02351
v -0.28016 -0.14973 -0.03804
v -0.30196 -0.16139 -0.03804
v -0.31960 -0.17082 -0.02351
v -0.34186 -0.14159 0.00000
v -0.33480 -0.13867 0.02351
v -0.31632 -0.13102 0.03804
v -0.29348 -0.12156 0.03804
v -0.27501 -0.11390 0.02351
v -0.26795 -0.11098 0.00000
v -0.27501 -0.11390 -0.02351
v -0.29348 -0.12156 -0.03804
v -0.31632 -0.13102 -0.03804
v -0.33480 -0.13867 -0.02351
v -0.35409 -0.10741 0.00000
v -0.34678 -0.10519 0.02351
v -0.32764 -0.09938 0.03804
v -0.30399 -0.09221 0.03804
v -0.28485 -0.08640 0.02351
v -0.27754 -0.08418 0.00000
v -0.28485 -0.08640 -0.02351
v -0.30399 -0.09221 -0.03804
v -0.32764 -0.09938 -0.03804
v -0.34678 -0.10519 -0.02351
v -0.36291 -0.07218 0.00000
v -0.35542 -0.07069 0.02351
v -0.33581 -0.06679 0.03804
v -0.31156 -0.06197 0.03804
v -0.29194 -0.05807 0.02351
v -0.28445 -0.05658 0.00000
v -0.29194 -0.05807 -0.02351
v -0.31156 -0.06197 -0.03804
v -0.33581 -0.06679 -0.03804
v -0.35542 -0.07069 -0.02351
v -0.36824 -0.03627 0.00000
v -0.36064 -0.03552 0.02351
v -0.34074 -0.03356 0.03804
v -0.31613 -0.03113 0.03804
v -0.29623 -0.02917 0.02351
v -0.28863 -0.02842 0.00000
v -0.29623 -0.02917 -0.02351
v -0.31613 -0.03113 -0.03804
v -0.34074 -0.03356 -0.03804
v -0.36064 -0.03552 -0.02351
v -0.36998 -0.00196 0.00000
v -0.36235 -0.00159 0.02351
v -0.34237 -0.00061 0.03804
v -0.31768 0.00061 0.03804
v -0.29770 0.00159 0.02351
v -0.29007 0.00196 0.00000
v -0.29770 0.00159 -0.02351
v -0.31768 0.00061 -0.03804
v -0.34237 -0.00061 -0.03804
v -0.36235 -0.00159 -0.02351
f 1 12 11
f 2 13 12
f 3 14 13
f 4 15 14
f 5 16 15
f 7 16 6
f 8 17 7
f 9 18 8
f 10 19 9
f 1 20 10
f 11 22 21
f 13 22 12
f 13 24 23
f 14 25 24
f 16 25 15
f 16 27 26
f 18 27 17
f 19 28 18
f 19 30 29
f 11 30 20
f 22 31 21
f 22 33 32
f 23 34 33
f 25 34 24
f 26 35 25
f 26 37 36
f 27 38 37
f 29 38 28
f 29 40 39
f 30 31 40
f 31 42 41
f 32 43 42
f 34 43 33
f 35 44 34
f 35 46 45
f 37 46 36
f 38 47 37
f 38 49 48
f 39 50 49
f 31 50 40
f 42 51 41
f 43 52 42
f 43 54 53
f 45 54 44
f 45 56 55
f 47 56 46
f 47 58 57
f 49 58 48
f 49 60 59
f 50 51 60
f 52 61 51
f 52 63 62
f 54 63 53
f 54 65 64
f 55 66 65
f 57 66 56
f 57 68 67
f 59 68 58
f 59 70 69
f 51 70 60
f 62 71 61
f 63 72 62
f 64 73 63
f 65 74 64
f 66 75 65
f 66 77 76
f 67 78 77
f 68 79 78
f 69 80 79
f 70 71 80
f 71 82 81
f 72 83 82
f 73 84 83
f 75 84 74
f 76 85 75
f 77 86 76
f 78 87 77
f 79 88 78
f 80 89 79
f 80 81 90
f 82 91 81
f 83 92 82
f 84 93 83
f 84 95 94
f 86 95 85
f 86 97 96
f 88 97 87
f 88 99 98
f 89 100 99
f 81 100 90
f 92 101 91
f 92 103 102
f 93 104 103
f 94 105 104
f 95 106 105
f 97 106 96
f 98 107 97
f 99 108 98
f 100 109 99
f 91 110 100
f 102 111 101
f 103 112 102
f 104 113 103
f 105 114 104
f 105 116 115
f 107 116 106
f 107 118 117
f 109 118 108
f 109 120 119
f 110 111 120
f 112 121 111
f 112 123 122
f 114 123 113
f 114 125 124
f 116 125 115
f 117 126 116
f 118 127 117
f 118 129 128
f 120 129 119
f 111 130 120
f 122 131 121
f 122 133 132
f 123 134 133
f 124 135 134
f 126 135 125
f 126 137 136
f 128 137 127
f 129 138 128
f 129 140 139
f 121 140 130
f 132 141 131
f 133 142 132
f 134 143 133
f 134 145 144
f 136 145 135
f 136 147 146
f 137 148 147
f 138 149 148
f 139 150 149
f 131 150 140
f 141 152 151
f 142 153 152
f 144 153 143
f 145 154 144
f 145 156 155
f 147 156 146
f 147 158 157
f 148 159 158
f 150 159 149
f 141 160 150
f 152 161 151
f 153 162 152
f 153 164 163
f 154 165 164
f 156 165 155
f 156 167 166
f 158 167 157
f 159 168 158
f 160 169 159
f 160 161 170
f 162 171 161
f 162 173 172
f 164 173 163
f 165 174 164
f 165 176 175
f 167 176 166
f 167 178 177
f 168 179 178
f 169 180 179
f 161 180 170
f 172 181 171
f 173 182 172
f 173 184 183
f 174 185 184
f 176 185 175
f 176 187 186
f 178 187 177
f 179 188 178
f 180 189 179
f 171 190 180
f 181 192 191
f 182 193 192
f 183 194 193
f 185 194 184
f 185 196 195
f 187 196 186
f 188 197 187
f 189 198 188
f 190 199 189
f 190 191 200
f 191 202 201
f 193 202 192
f 194 203 193
f 195 204 194
f 195 206 205
f 197 206 196
f 197 208 207
f 198 209 208
f 199 210 209
f 200 201 210
f 201 212 211
f 203 212 202
f 203 214 213
f 205 214 204
f 205 216 215
f 206 217 216
f 207 218 217
f 209 218 208
f 209 220 219
f 210 211 220
f 211 222 221
f 212 223 222
f 214 223 213
f 214 225 224
f 216 225 215
f 216 227 226
f 218 227 217
f 219 228 218
f 220 229 219
f 220 221 230
f 221 232 231
f 222 233 232
f 224 233 223
f 225 234 224
f 225 236 235
f 227 236 226
f 227 238 237
f 228 239 238
f 229 240 239
f 230 231 240
f 231 242 241
f 233 242 232
f 233 244 243
f 235 244 234
f 235 246 245
f 236 247 246
f 237 248 247
f 239 248 238
f 240 249 239
f 231 250 240
f 242 251 241
f 243 252 242
f 244 253 243
f 245 254 244
f 245 256 255
f 247 256 246
f 247 258 257
f 248 259 258
f 249 260 259
f 241 260 250
f 251 262 261
f 252 263 262
f 253 264 263
f 254 265 264
f 255 266 265
f 256 267 266
f 258 267 257
f 259 268 258
f 260 269 259
f 251 270 260
f 262 271 261
f 262 273 272
f 264 273 263
f 265 274 264
f 266 275 265
f 266 277 276
f 268 277 267
f 269 278 268
f 270 279 269
f 270 271 280
f 272 281 271
f 272 283 282
f 274 283 273
f 274 285 284
f 276 285 275
f 276 287 286
f 278 287 277
f 278 289 288
f 280 289 279
f 271 290 280
f 282 291 281
f 283 292 282
f 283 294 293
f 285 294 284
f 286 295 285
f 286 297 296
f 287 298 297
f 289 298 288
f 290 299 289
f 290 291 300
f 291 302 301
f 292 303 302
f 294 303 293
f 294 305 304
f 295 306 305
f 297 306 296
f 298 307 297
f 298 309 308
f 299 310 309
f 300 301 310
f 302 311 301
f 303 312 302
f 304 313 303
f 304 315 314
f 305 316 315
f 307 316 306
f 307 318 317
f 308 319 318
f 310 319 309
f 310 311 320
f 311 322 321
f 312 323 322
f 313 324 323
f 315 324 314
f 315 326 325
f 317 326 316
f 317 328 327
f 319 328 318
f 319 330 329
f 311 330 320
f 322 331 321
f 323 332 322
f 324 333 323
f 325 334 324
f 326 335 325
f 326 337 336
f 328 337 327
f 328 339 338
f 329 340 339
f 330 331 340
f 331 342 341
f 333 342 332
f 333 344 343
f 334 345 344
f 336 345 335
f 336 347 346
f 338 347 337
f 339 348 338
f 339 350 349
f 331 350 340
f 342 351 341
f 342 353 352
f 343 354 353
f 345 354 344
f 346 355 345
f 346 357 356
f 347 358 357
f 349 358 348
f 349 360 359
f 350 351 360
f 351 362 361
f 352 363 362
f 354 363 353
f 355 364 354
f 355 366 365
f 357 366 356
f 358 367 357
f 358 369 368
f 359 370 369
f 351 370 360
f 362 371 361
f 363 372 362
f 363 374 373
f 365 374 364
f 365 376 375
f 367 376 366
f 367 378 377
f 369 378 368
f 369 380 379
f 370 371 380
f 372 381 371
f 372 383 382
f 374 383 373
f 374 385 384
f 375 386 385
f 377 386 376
f 377 388 387
f 379 388 378
f 379 390 389
f 371 390 380
f 382 391 381
f 383 392 382
f 384 393 383
f 385 394 384
f 386 395 385
f 386 397 396
f 387 398 397
f 388 399 398
f 389 400 399
f 390 391 400
f 391 402 401
f 392 403 402
f 393 404 403
f 395 404 394
f 396 405 395
f 397 406 396
f 398 407 397
f 399 408 398
f 400 409 399
f 400 401 410
f 402 411 401
f 403 412 402
f 404 413 403
f 404 415 414
f 406 415 405
f 406 417 416
f 408 417 407
f 408 419 418
f 409 420 419
f 401 420 410
f 412 421 411
f 412 423 422
f 413 424 423
f 414 425 424
f 415 426 425
f 417 426 416
f 418 427 417
f 419 428 418
f 420 429 419
f 411 430 420
f 422 431 421
f 423 432 422
f 424 433 423
f 425 434 424
f 425 436 435
f 427 436 426
f 427 438 437
f 429 438 428
f 429 440 439
f 430 431 440
f 432 441 431
f 432 443 442
f 434 443 433
f 434 445 444
f 436 445 435
f 437 446 436
f 438 447 437
f 438 449 448
f 440 449 439
f 431 450 440
f 442 451 441
f 442 453 452
f 443 454 453
f 444 455 454
f 446 455 445
f 446 457 456
f 448 457 447
f 449 458 448
f 449 460 459
f 441 460 450
f 452 461 451
f 453 462 452
f 454 463 453
f 454 465 464
f 456 465 455
f 456 467 466
f 457 468 467
f 458 469 468
f 459 470 469
f 451 470 460
f 461 472 471
f 462 473 472
f 464 473 463
f 465 474 464
f 465 476 475
f 467 476 466
f 467 478 477
f 468 479 478
f 470 479 469
f 461 480 470
f 472 481 471
f 473 482 472
f 473 484 483
f 474 485 484
f 476 485 475
f 476 487 486
f 478 487 477
f 479 488 478
f 480 489 479
f 480 481 490
f 482 491 481
f 482 493 492
f 484 493 483
f 485 494 484
f 485 496 495
f 487 496 486
f 487 498 497
f 488 499 498
f 489 500 499
f 481 500 490
f 492 501 491
f 493 502 492
f 493 504 503
f 494 505 504
f 496 505 495
f 496 507 506
f 498 507 497
f 499 508 498
f 500 509 499
f 491 510 500
f 501 512 511
f 502 513 512
f 503 514 513
f 505 514 504
f 505 516 515
f 507 516 506
f 508 517 507
f 509 518 508
f 510 519 509
f 510 511 520
f 511 522 521
f 513 522 512
f 514 523 513
f 515 524 514
f 515 526 525
f 517 526 516
f 517 528 527
f 518 529 528
f 519 530 529
f 520 521 530
f 521 532 531
f 523 532 522
f 523 534 533
f 525 534 524
f 525 536 535
f 526 537 536
f 527 538 537
f 529 538 528
f 529 540 539
f 530 531 540
f 531 542 541
f 532 543 542
f 534 543 533
f 534 545 544
f 536 545 535
f 536 547 546
f 538 547 537
f 539 548 538
f 540 549 539
f 540 541 550
f 541 552 551
f 542 553 552
f 544 553 543
f 545 554 544
f 545 556 555
f 547 556 546
f 547 558 557
f 548 559 558
f 549 560 559
f 550 551 560
f 551 562 561
f 553 562 552
f 553 564 563
f 555 564 554
f 555 566 565
f 556 567 566
f 557 568 567
f 559 568 558
f 560 569 559
f 551 570 560
f 562 571 561
f 563 572 562
f 564 573 563
f 565 574 564
f 565 576 575
f 567 576 566
f 567 578 577
f 568 579 578
f 569 580 579
f 561 580 570
f 571 582 581
f 572 583 582
f 573 584 583
f 574 585 584
f 575 586 585
f 576 587 586
f 578 587 577
f 579 588 578
f 580 589 579
f 571 590 580
f 582 591 581
f 582 593 592
f 584 593 583
f 585 594 584
f 586 595 585
f 586 597 596
f 588 597 587
f 589 598 588
f 590 599 589
f 590 591 600
f 592 601 591
f 592 603 602
f 594 603 593
f 594 605 604
f 596 605 595
f 596 607 606
f 598 607 597
f 598 609 608
f 600 609 599
f 591 610 600
f 602 611 601
f 603 612 602
f 603 614 613
f 605 614 604
f 606 615 605
f 606 617 616
f 607 618 617
f 609 618 608
f 610 619 609
f 610 611 620
f 611 622 621
f 612 623 622
f 614 623 613
f 614 625 624
f 615 626 625
f 617 626 616
f 618 627 617
f 618 629 628
f 619 630 629
f 620 621 630
f 622 631 621
f 623 632 622
f 624 633 623
f 624 635 634
f 625 636 635
f 627 636 626
f 627 638 637
f 628 639 638
f 630 639 629
f 630 631 640
f 632 641 631
f 633 642 632
f 634 643 633
f 635 644 634
f 636 645 635
f 636 647 646
f 637 648 647
f 638 649 648
f 639 650 649
f 640 641 650
f 1 2 12
f 2 3 13
f 3 4 14
f 4 5 15
f 5 6 16
f 7 17 16
f 8 18 17
f 9 19 18
f 10 20 19
f 1 11 20
f 11 12 22
f 13 23 22
f 13 14 24
f 14 15 25
f 16 26 25
f 16 17 27
f 18 28 27
f 19 29 28
f 19 20 30
f 11 21 30
f 22 32 31
f 22 23 33
f 23 24 34
f 25 35 34
f 26 36 35
f 26 27 37
f 27 28 38
f 29 39 38
f 29 30 40
f 30 21 31
f 31 32 42
f 32 33 43
f 34 44 43
f 35 45 44
f 35 36 46
f 37 47 46
f 38 48 47
f 38 39 49
f 39 40 50
f 31 41 50
f 42 52 51
f 43 53 52
f 43 44 54
f 45 55 54
f 45 46 56
f 47 57 56
f 47 48 58
f 49 59 58
f 49 50 60
f 50 41 51
f 52 62 61
f 52 53 63
f 54 64 63
f 54 55 65
f 55 56 66
f 57 67 66
f 57 58 68
f 59 69 68
f 59 60 70
f 51 61 70
f 62 72 71
f 63 73 72
f 64 74 73
f 65 75 74
f 66 76 75
f 66 67 77
f 67 68 78
f 68 69 79
f 69 70 80
f 70 61 71
f 71 72 82
f 72 73 83
f 73 74 84
f 75 85 84
f 76 86 85
f 77 87 86
f 78 88 87
f 79 89 88
f 80 90 89
f 80 71 81
f 82 92 91
f 83 93 92
f 84 94 93
f 84 85 95
f 86 96 95
f 86 87 97
f 88 98 97
f 88 89 99
f 89 90 100
f 81 91 100
f 92 102 101
f 92 93 103
f 93 94 104
f 94 95 105
f 95 96 106
f 97 107 106
f 98 108 107
f 99 109 108
f 100 110 109
f 91 101 110
f 102 112 111
f 103 113 112
f 104 114 113
f 105 115 114
f 105 106 116
f 107 117 116
f 107 108 118
f 109 119 118
f 109 110 120
f 110 101 111
f 112 122 121
f 112 113 123
f 114 124 123
f 114 115 125
f 116 126 125
f 117 127 126
f 118 128 127
f 118 119 129
f 120 130 129
f 111 121 130
f 122 132 131
f 122 123 133
f 123 124 134
f 124 125 135
f 126 136 135
f 126 127 137
f 128 138 137
f 129 139 138
f 129 130 140
f 121 131 140
f 132 142 141
f 133 143 142
f 134 144 143
f 134 135 145
f 136 146 145
f 136 137 147
f 137 138 148
f 138 139 149
f 139 140 150
f 131 141 150
f 141 142 152
f 142 143 153
f 144 154 153
f 145 155 154
f 145 146 156
f 147 157 156
f 147 148 158
f 148 149 159
f 150 160 159
f 141 151 160
f 152 162 161
f 153 163 162
f 153 154 164
f 154 155 165
f 156 166 165
f 156 157 167
f 158 168 167
f 159 169 168
f 160 170 169
f 160 151 161
f 162 172 171
f 162 163 173
f 164 174 173
f 165 175 174
f 165 166 176
f 167 177 176
f 167 168 178
f 168 169 179
f 169 170 180
f 161 171 180
f 172 182 181
f 173 183 182
f 173 174 184
f 174 175 185
f 176 186 185
f 176 177 187
f 178 188 187
f 179 189 188
f 180 190 189
f 171 181 190
f 181 182 192
f 182 183 193
f 183 184 194
f 185 195 194
f 185 186 196
f 187 197 196
f 188 198 197
f 189 199 198
f 190 200 199
f 190 181 191
f 191 192 202
f 193 203 202
f 194 204 203
f 195 205 204
f 195 196 206
f 197 207 206
f 197 198 208
f 198 199 209
f 199 200 210
f 200 191 201
f 201 202 212
f 203 213 212
f 203 204 214
f 205 215 214
f 205 206 216
f 206 207 217
f 207 208 218
f 209 219 218
f 209 210 220
f 210 201 211
f 211 212 222
f 212 213 223
f 214 224 223
f 214 215 225
f 216 226 225
f 216 217 227
f 218 228 227
f 219 229 228
f 220 230 229
f 220 211 221
f 221 222 232
f 222 223 233
f 224 234 233
f 225 235 234
f 225 226 236
f 227 237 236
f 227 228 238
f 228 229 239
f 229 230 240
f 230 221 231
f 231 232 242
f 233 243 242
f 233 234 244
f 235 245 244
f 235 236 246
f 236 237 247
f 237 238 248
f 239 249 248
f 240 250 249
f 231 241 250
f 242 252 251
f 243 253 252
f 244 254 253
f 245 255 254
f 245 246 256
f 247 257 256
f 247 248 258
f 248 249 259
f 249 250 260
f 241 251 260
f 251 252 262
f 252 253 263
f 253 254 264
f 254 255 265
f 255 256 266
f 256 257 267
f 258 268 267
f 259 269 268
f 260 270 269
f 251 261 270
f 262 272 271
f 262 263 273
f 264 274 273
f 265 275 274
f 266 276 275
f 266 267 277
f 268 278 277
f 269 279 278
f 270 280 279
f 270 261 271
f 272 282 281
f 272 273 283
f 274 284 283
f 274 275 285
f 276 286 285
f 276 277 287
f 278 288 287
f 278 279 289
f 280 290 289
f 271 281 290
f 282 292 291
f 283 293 292
f 283 284 294
f 285 295 294
f 286 296 295
f 286 287 297
f 287 288 298
f 289 299 298
f 290 300 299
f 290 281 291
f 291 292 302
f 292 293 303
f 294 304 303
f 294 295 305
f 295 296 306
f 297 307 306
f 298 308 307
f 298 299 309
f 299 300 310
f 300 291 301
f 302 312 311
f 303 313 312
f 304 314 313
f 304 305 315
f 305 306 316
f 307 317 316
f 307 308 318
f 308 309 319
f 310 320 319
f 310 301 311
f 311 312 322
f 312 313 323
f 313 314 324
f 315 325 324
f 315 316 326
f 317 327 326
f 317 318 328
f 319 329 328
f 319 320 330
f 311 321 330
f 322 332 331
f 323 333 332
f 324 334 333
f 325 335 334
f 326 336 335
f 326 327 337
f 328 338 337
f 328 329 339
f 329 330 340
f 330 321 331
f 331 332 342
f 333 343 342
f 333 334 344
f 334 335 345
f 336 346 345
f 336 337 347
f 338 348 347
f 339 349 348
f 339 340 350
f 331 341 350
f 342 352 351
f 342 343 353
f 343 344 354
f 345 355 354
f 346 356 355
f 346 347 357
f 347 348 358
f 349 359 358
f 349 350 360
f 350 341 351
f 351 352 362
f 352 353 363
f 354 364 363
f 355 365 364
f 355 356 366
f 357 367 366
f 358 368 367
f 358 359 369
f 359 360 370
f 351 361 370
f 362 372 371
f 363 373 372
f 363 364 374
f 365 375 374
f 365 366 376
f 367 377 376
f 367 368 378
f 369 379 378
f 369 370 380
f 370 361 371
f 372 382 381
f 372 373 383
f 374 384 383
f 374 375 385
f 375 376 386
f 377 387 386
f 377 378 388
f 379 389 388
f 379 380 390
f 371 381 390
f 382 392 391
f 383 393 392
f 384 394 393
f 385 395 394
f 386 396 395
f 386 387 397
f 387 388 398
f 388 389 399
f 389 390 400
f 390 381 391
f 391 392 402
f 392 393 403
f 393 394 404
f 395 405 404
f 396 406 405
f 397 407 406
f 398 408 407
f 399 409 408
f 400 410 409
f 400 391 401
f 402 412 411
f 403 413 412
f 404 414 413
f 404 405 415
f 406 416 415
f 406 407 417
f 408 418 417
f 408 409 419
f 409 410 420
f 401 411 420
f 412 422 421
f 412 413 423
f 413 414 424
f 414 415 425
f 415 416 426
f 417 427 426
f 418 428 427
f 419 429 428
f 420 430 429
f 411 421 430
f 422 432 431
f 423 433 432
f 424 434 433
f 425 435 434
f 425 426 436
f 427 437 436
f 427 428 438
f 429 439 438
f 429 430 440
f 430 421 431
f 432 442 441
f 432 433 443
f 434 444 443
f 434 435 445
f 436 446 445
f 437 447 446
f 438 448 447
f 438 439 449
f 440 450 449
f 431 441 450
f 442 452 451
f 442 443 453
f 443 444 454
f 444 445 455
f 446 456 455
f 446 447 457
f 448 458 457
f 449 459 458
f 449 450 460
f 441 451 460
f 452 462 461
f 453 463 462
f 454 464 463
f 454 455 465
f 456 466 465
f 456 457 467
f 457 458 468
f 458 459 469
f 459 460 470
f 451 461 470
f 461 462 472
f 462 463 473
f 464 474 473
f 465 475 474
f 465 466 476
f 467 477 476
f 467 468 478
f 468 469 479
f 470 480 479
f 461 471 480
f 472 482 481
f 473 483 482
f 473 474 484
f 474 475 485
f 476 486 485
f 476 477 487
f 478 488 487
f 479 489 488
f 480 490 489
f 480 471 481
f 482 492 491
f 482 483 493
f 484 494 493
f 485 495 494
f 485 486 496
f 487 497 496
f 487 488 498
f 488 489 499
f 489 490 500
f 481 491 500
f 492 502 501
f 493 503 502
f 493 494 504
f 494 495 505
f 496 506 505
f 496 497 507
f 498 508 507
f 499 509 508
f 500 510 509
f 491 501 510
f 501 502 512
f 502 503 513
f 503 504 514
f 505 515 514
f 505 506 516
f 507 517 516
f 508 518 517
f 509 519 518
f 510 520 519
f 510 501 511
f 511 512 522
f 513 523 522
f 514 524 523
f 515 525 524
f 515 516 526
f 517 527 526
f 517 518 528
f 518 519 529
f 519 520 530
f 520 511 521
f 521 522 532
f 523 533 532
f 523 524 534
f 525 535 534
f 525 526 536
f 526 527 537
f 527 528 538
f 529 539 538
f 529 530 540
f 530 521 531
f 531 532 542
f 532 533 543
f 534 544 543
f 534 535 545
f 536 546 545
f 536 537 547
f 538 548 547
f 539 549 548
f 540 550 549
f 540 531 541
f 541 542 552
f 542 543 553
f 544 554 553
f 545 555 554
f 545 546 556
f 547 557 556
f 547 548 558
f 548 549 559
f 549 550 560
f 550 541 551
f 551 552 562
f 553 563 562
f 553 554 564
f 555 565 564
f 555 556 566
f 556 557 567
f 557 558 568
f 559 569 568
f 560 570 569
f 551 561 570
f 562 572 571
f 563 573 572
f 564 574 573
f 565 575 574
f 565 566 576
f 567 577 576
f 567 568 578
f 568 569 579
f 569 570 580
f 561 571 580
f 571 572 582
f 572 573 583
f 573 574 584
f 574 575 585
f 575 576 586
f 576 577 587
f 578 588 587
f 579 589 588
f 580 590 589
f 571 581 590
f 582 592 591
f 582 583 593
f 584 594 593
f 585 595 594
f 586 596 595
f 586 587 597
f 588 598 597
f 589 599 598
f 590 600 599
f 590 581 591
f 592 602 601
f 592 593 603
f 594 604 603
f 594 595 605
f 596 606 605
f 596 597 607
f 598 608 607
f 598 599 609
f 600 610 609
f 591 601 610
f 602 612 611
f 603 613 612
f 603 604 614
f 605 615 614
f 606 616 615
f 606 607 617
f 607 608 618
f 609 619 618
f 610 620 619
f 610 601 611
f 611 612 622
f 612 613 623
f 614 624 623
f 614 615 625
f 615 616 626
f 617 627 626
f 618 628 627
f 618 619 629
f 619 620 630
f 620 611 621
f 622 632 631
f 623 633 632
f 624 634 633
f 624 625 635
f 625 626 636
f 627 637 636
f 627 628 638
f 628 629 639
f 630 640 639
f 630 621 631
f 632 642 641
f 633 643 642
f 634 644 643
f 635 645 644
f 636 646 645
f 636 637 647
f 637 638 648
f 638 639 649
f 639 640 650
f 640 631 641
