# eclipse SheathCore_SheathCore.obj: Roblox cue frame, recentred on its bounding box
v -0.00000 0.00400 3.65000
v 0.00089 0.00390 3.65000
v 0.00174 0.00360 3.65000
v 0.00249 0.00313 3.65000
v 0.00313 0.00249 3.65000
v 0.00360 0.00174 3.65000
v 0.00390 0.00089 3.65000
v 0.00400 0.00000 3.65000
v 0.00390 -0.00089 3.65000
v 0.00360 -0.00174 3.65000
v 0.00313 -0.00249 3.65000
v 0.00249 -0.00313 3.65000
v 0.00174 -0.00360 3.65000
v 0.00089 -0.00390 3.65000
v 0.00000 -0.00400 3.65000
v -0.00089 -0.00390 3.65000
v -0.00174 -0.00360 3.65000
v -0.00249 -0.00313 3.65000
v -0.00313 -0.00249 3.65000
v -0.00360 -0.00174 3.65000
v -0.00390 -0.00089 3.65000
v -0.00400 -0.00000 3.65000
v -0.00390 0.00089 3.65000
v -0.00360 0.00174 3.65000
v -0.00313 0.00249 3.65000
v -0.00249 0.00313 3.65000
v -0.00174 0.00360 3.65000
v -0.00089 0.00390 3.65000
v -0.00000 0.16500 3.55000
v 0.03672 0.16086 3.55000
v 0.07159 0.14866 3.55000
v 0.10288 0.12900 3.55000
v 0.12900 0.10288 3.55000
v 0.14866 0.07159 3.55000
v 0.16086 0.03672 3.55000
v 0.16500 0.00000 3.55000
v 0.16086 -0.03672 3.55000
v 0.14866 -0.07159 3.55000
v 0.12900 -0.10288 3.55000
v 0.10288 -0.12900 3.55000
v 0.07159 -0.14866 3.55000
v 0.03672 -0.16086 3.55000
v 0.00000 -0.16500 3.55000
v -0.03672 -0.16086 3.55000
v -0.07159 -0.14866 3.55000
v -0.10288 -0.12900 3.55000
v -0.12900 -0.10288 3.55000
v -0.14866 -0.07159 3.55000
v -0.16086 -0.03672 3.55000
v -0.16500 -0.00000 3.55000
v -0.16086 0.03672 3.55000
v -0.14866 0.07159 3.55000
v -0.12900 0.10288 3.55000
v -0.10288 0.12900 3.55000
v -0.07159 0.14866 3.55000
v -0.03672 0.16086 3.55000
v -0.00000 0.25500 3.43000
v 0.05674 0.24861 3.43000
v 0.11064 0.22975 3.43000
v 0.15899 0.19937 3.43000
v 0.19937 0.15899 3.43000
v 0.22975 0.11064 3.43000
v 0.24861 0.05674 3.43000
v 0.25500 0.00000 3.43000
v 0.24861 -0.05674 3.43000
v 0.22975 -0.11064 3.43000
v 0.19937 -0.15899 3.43000
v 0.15899 -0.19937 3.43000
v 0.11064 -0.22975 3.43000
v 0.05674 -0.24861 3.43000
v 0.00000 -0.25500 3.43000
v -0.05674 -0.24861 3.43000
v -0.11064 -0.22975 3.43000
v -0.15899 -0.19937 3.43000
v -0.19937 -0.15899 3.43000
v -0.22975 -0.11064 3.43000
v -0.24861 -0.05674 3.43000
v -0.25500 -0.00000 3.43000
v -0.24861 0.05674 3.43000
v -0.22975 0.11064 3.43000
v -0.19937 0.15899 3.43000
v -0.15899 0.19937 3.43000
v -0.11064 0.22975 3.43000
v -0.05674 0.24861 3.43000
v -0.00000 0.30000 3.25000
v 0.06676 0.29248 3.25000
v 0.13017 0.27029 3.25000
v 0.18705 0.23455 3.25000
v 0.23455 0.18705 3.25000
v 0.27029 0.13017 3.25000
v 0.29248 0.06676 3.25000
v 0.30000 0.00000 3.25000
v 0.29248 -0.06676 3.25000
v 0.27029 -0.13017 3.25000
v 0.23455 -0.18705 3.25000
v 0.18705 -0.23455 3.25000
v 0.13017 -0.27029 3.25000
v 0.06676 -0.29248 3.25000
v 0.00000 -0.30000 3.25000
v -0.06676 -0.29248 3.25000
v -0.13017 -0.27029 3.25000
v -0.18705 -0.23455 3.25000
v -0.23455 -0.18705 3.25000
v -0.27029 -0.13017 3.25000
v -0.29248 -0.06676 3.25000
v -0.30000 -0.00000 3.25000
v -0.29248 0.06676 3.25000
v -0.27029 0.13017 3.25000
v -0.23455 0.18705 3.25000
v -0.18705 0.23455 3.25000
v -0.13017 0.27029 3.25000
v -0.06676 0.29248 3.25000
v -0.00000 0.30000 -3.15000
v 0.06676 0.29248 -3.15000
v 0.13017 0.27029 -3.15000
v 0.18705 0.23455 -3.15000
v 0.23455 0.18705 -3.15000
v 0.27029 0.13017 -3.15000
v 0.29248 0.06676 -3.15000
v 0.30000 0.00000 -3.15000
v 0.29248 -0.06676 -3.15000
v 0.27029 -0.13017 -3.15000
v 0.23455 -0.18705 -3.15000
v 0.18705 -0.23455 -3.15000
v 0.13017 -0.27029 -3.15000
v 0.06676 -0.29248 -3.15000
v 0.00000 -0.30000 -3.15000
v -0.06676 -0.29248 -3.15000
v -0.13017 -0.27029 -3.15000
v -0.18705 -0.23455 -3.15000
v -0.23455 -0.18705 -3.15000
v -0.27029 -0.13017 -3.15000
v -0.29248 -0.06676 -3.15000
v -0.30000 -0.00000 -3.15000
v -0.29248 0.06676 -3.15000
v -0.27029 0.13017 -3.15000
v -0.23455 0.18705 -3.15000
v -0.18705 0.23455 -3.15000
v -0.13017 0.27029 -3.15000
v -0.06676 0.29248 -3.15000
v -0.00000 0.25500 -3.40000
v 0.05674 0.24861 -3.40000
v 0.11064 0.22975 -3.40000
v 0.15899 0.19937 -3.40000
v 0.19937 0.15899 -3.40000
v 0.22975 0.11064 -3.40000
v 0.24861 0.05674 -3.40000
v 0.25500 0.00000 -3.40000
v 0.24861 -0.05674 -3.40000
v 0.22975 -0.11064 -3.40000
v 0.19937 -0.15899 -3.40000
v 0.15899 -0.19937 -3.40000
v 0.11064 -0.22975 -3.40000
v 0.05674 -0.24861 -3.40000
v 0.00000 -0.25500 -3.40000
v -0.05674 -0.24861 -3.40000
v -0.11064 -0.22975 -3.40000
v -0.15899 -0.19937 -3.40000
v -0.19937 -0.15899 -3.40000
v -0.22975 -0.11064 -3.40000
v -0.24861 -0.05674 -3.40000
v -0.25500 -0.00000 -3.40000
v -0.24861 0.05674 -3.40000
v -0.22975 0.11064 -3.40000
v -0.19937 0.15899 -3.40000
v -0.15899 0.19937 -3.40000
v -0.11064 0.22975 -3.40000
v -0.05674 0.24861 -3.40000
v -0.00000 0.16500 -3.55000
v 0.03672 0.16086 -3.55000
v 0.07159 0.14866 -3.55000
v 0.10288 0.12900 -3.55000
v 0.12900 0.10288 -3.55000
v 0.14866 0.07159 -3.55000
v 0.16086 0.03672 -3.55000
v 0.16500 0.00000 -3.55000
v 0.16086 -0.03672 -3.55000
v 0.14866 -0.07159 -3.55000
v 0.12900 -0.10288 -3.55000
v 0.10288 -0.12900 -3.55000
v 0.07159 -0.14866 -3.55000
v 0.03672 -0.16086 -3.55000
v 0.00000 -0.16500 -3.55000
v -0.03672 -0.16086 -3.55000
v -0.07159 -0.14866 -3.55000
v -0.10288 -0.12900 -3.55000
v -0.12900 -0.10288 -3.55000
v -0.14866 -0.07159 -3.55000
v -0.16086 -0.03672 -3.55000
v -0.16500 -0.00000 -3.55000
v -0.16086 0.03672 -3.55000
v -0.14866 0.07159 -3.55000
v -0.12900 0.10288 -3.55000
v -0.10288 0.12900 -3.55000
v -0.07159 0.14866 -3.55000
v -0.03672 0.16086 -3.55000
v -0.00000 0.00400 -3.65000
v 0.00089 0.00390 -3.65000
v 0.00174 0.00360 -3.65000
v 0.00249 0.00313 -3.65000
v 0.00313 0.00249 -3.65000
v 0.00360 0.00174 -3.65000
v 0.00390 0.00089 -3.65000
v 0.00400 0.00000 -3.65000
v 0.00390 -0.00089 -3.65000
v 0.00360 -0.00174 -3.65000
v 0.00313 -0.00249 -3.65000
v 0.00249 -0.00313 -3.65000
v 0.00174 -0.00360 -3.65000
v 0.00089 -0.00390 -3.65000
v 0.00000 -0.00400 -3.65000
v -0.00089 -0.00390 -3.65000
v -0.00174 -0.00360 -3.65000
v -0.00249 -0.00313 -3.65000
v -0.00313 -0.00249 -3.65000
v -0.00360 -0.00174 -3.65000
v -0.00390 -0.00089 -3.65000
v -0.00400 -0.00000 -3.65000
v -0.00390 0.00089 -3.65000
v -0.00360 0.00174 -3.65000
v -0.00313 0.00249 -3.65000
v -0.00249 0.00313 -3.65000
v -0.00174 0.00360 -3.65000
v -0.00089 0.00390 -3.65000
v 0.00000 -0.00000 3.65000
v 0.00000 -0.00000 -3.65000
f 2 29 1
f 3 30 2
f 4 31 3
f 5 32 4
f 6 33 5
f 7 34 6
f 8 35 7
f 9 36 8
f 9 38 37
f 11 38 10
f 11 40 39
f 13 40 12
f 13 42 41
f 15 42 14
f 16 43 15
f 17 44 16
f 18 45 17
f 19 46 18
f 20 47 19
f 21 48 20
f 22 49 21
f 23 50 22
f 23 52 51
f 25 52 24
f 25 54 53
f 27 54 26
f 27 56 55
f 1 56 28
f 29 58 57
f 31 58 30
f 32 59 31
f 33 60 32
f 34 61 33
f 35 62 34
f 36 63 35
f 37 64 36
f 38 65 37
f 39 66 38
f 40 67 39
f 41 68 40
f 42 69 41
f 43 70 42
f 43 72 71
f 45 72 44
f 46 73 45
f 47 74 46
f 48 75 47
f 49 76 48
f 50 77 49
f 51 78 50
f 52 79 51
f 53 80 52
f 54 81 53
f 55 82 54
f 56 83 55
f 29 84 56
f 58 85 57
f 59 86 58
f 60 87 59
f 61 88 60
f 62 89 61
f 63 90 62
f 64 91 63
f 65 92 64
f 66 93 65
f 67 94 66
f 67 96 95
f 68 97 96
f 70 97 69
f 71 98 70
f 72 99 71
f 73 100 72
f 74 101 73
f 75 102 74
f 76 103 75
f 77 104 76
f 78 105 77
f 79 106 78
f 80 107 79
f 81 108 80
f 81 110 109
f 82 111 110
f 84 111 83
f 57 112 84
f 86 113 85
f 87 114 86
f 88 115 87
f 89 116 88
f 90 117 89
f 91 118 90
f 92 119 91
f 93 120 92
f 94 121 93
f 95 122 94
f 96 123 95
f 97 124 96
f 98 125 97
f 99 126 98
f 100 127 99
f 101 128 100
f 102 129 101
f 103 130 102
f 104 131 103
f 105 132 104
f 106 133 105
f 107 134 106
f 108 135 107
f 109 136 108
f 110 137 109
f 111 138 110
f 112 139 111
f 85 140 112
f 114 141 113
f 115 142 114
f 115 144 143
f 116 145 144
f 118 145 117
f 118 147 146
f 120 147 119
f 120 149 148
f 122 149 121
f 122 151 150
f 124 151 123
f 125 152 124
f 125 154 153
f 126 155 154
f 128 155 127
f 129 156 128
f 129 158 157
f 130 159 158
f 132 159 131
f 132 161 160
f 134 161 133
f 134 163 162
f 136 163 135
f 136 165 164
f 138 165 137
f 139 166 138
f 139 168 167
f 140 141 168
f 141 170 169
f 143 170 142
f 143 172 171
f 145 172 144
f 145 174 173
f 147 174 146
f 147 176 175
f 149 176 148
f 149 178 177
f 151 178 150
f 151 180 179
f 153 180 152
f 153 182 181
f 155 182 154
f 155 184 183
f 157 184 156
f 157 186 185
f 159 186 158
f 159 188 187
f 161 188 160
f 161 190 189
f 163 190 162
f 163 192 191
f 165 192 164
f 165 194 193
f 167 194 166
f 167 196 195
f 141 196 168
f 170 197 169
f 170 199 198
f 171 200 199
f 173 200 172
f 173 202 201
f 174 203 202
f 176 203 175
f 176 205 204
f 178 205 177
f 179 206 178
f 179 208 207
f 181 208 180
f 182 209 181
f 182 211 210
f 184 211 183
f 184 213 212
f 185 214 213
f 187 214 186
f 187 216 215
f 188 217 216
f 190 217 189
f 190 219 218
f 192 219 191
f 193 220 192
f 193 222 221
f 195 222 194
f 196 223 195
f 196 197 224
f 225 2 1
f 225 3 2
f 225 4 3
f 225 5 4
f 225 6 5
f 225 7 6
f 225 8 7
f 225 9 8
f 225 10 9
f 225 11 10
f 225 12 11
f 225 13 12
f 225 14 13
f 225 15 14
f 225 16 15
f 225 17 16
f 225 18 17
f 225 19 18
f 225 20 19
f 225 21 20
f 225 22 21
f 225 23 22
f 225 24 23
f 225 25 24
f 225 26 25
f 225 27 26
f 225 28 27
f 225 1 28
f 197 198 226
f 198 199 226
f 199 200 226
f 200 201 226
f 201 202 226
f 202 203 226
f 203 204 226
f 204 205 226
f 205 206 226
f 206 207 226
f 207 208 226
f 208 209 226
f 209 210 226
f 210 211 226
f 211 212 226
f 212 213 226
f 213 214 226
f 214 215 226
f 215 216 226
f 216 217 226
f 217 218 226
f 218 219 226
f 219 220 226
f 220 221 226
f 221 222 226
f 222 223 226
f 223 224 226
f 224 197 226
f 2 30 29
f 3 31 30
f 4 32 31
f 5 33 32
f 6 34 33
f 7 35 34
f 8 36 35
f 9 37 36
f 9 10 38
f 11 39 38
f 11 12 40
f 13 41 40
f 13 14 42
f 15 43 42
f 16 44 43
f 17 45 44
f 18 46 45
f 19 47 46
f 20 48 47
f 21 49 48
f 22 50 49
f 23 51 50
f 23 24 52
f 25 53 52
f 25 26 54
f 27 55 54
f 27 28 56
f 1 29 56
f 29 30 58
f 31 59 58
f 32 60 59
f 33 61 60
f 34 62 61
f 35 63 62
f 36 64 63
f 37 65 64
f 38 66 65
f 39 67 66
f 40 68 67
f 41 69 68
f 42 70 69
f 43 71 70
f 43 44 72
f 45 73 72
f 46 74 73
f 47 75 74
f 48 76 75
f 49 77 76
f 50 78 77
f 51 79 78
f 52 80 79
f 53 81 80
f 54 82 81
f 55 83 82
f 56 84 83
f 29 57 84
f 58 86 85
f 59 87 86
f 60 88 87
f 61 89 88
f 62 90 89
f 63 91 90
f 64 92 91
f 65 93 92
f 66 94 93
f 67 95 94
f 67 68 96
f 68 69 97
f 70 98 97
f 71 99 98
f 72 100 99
f 73 101 100
f 74 102 101
f 75 103 102
f 76 104 103
f 77 105 104
f 78 106 105
f 79 107 106
f 80 108 107
f 81 109 108
f 81 82 110
f 82 83 111
f 84 112 111
f 57 85 112
f 86 114 113
f 87 115 114
f 88 116 115
f 89 117 116
f 90 118 117
f 91 119 118
f 92 120 119
f 93 121 120
f 94 122 121
f 95 123 122
f 96 124 123
f 97 125 124
f 98 126 125
f 99 127 126
f 100 128 127
f 101 129 128
f 102 130 129
f 103 131 130
f 104 132 131
f 105 133 132
f 106 134 133
f 107 135 134
f 108 136 135
f 109 137 136
f 110 138 137
f 111 139 138
f 112 140 139
f 85 113 140
f 114 142 141
f 115 143 142
f 115 116 144
f 116 117 145
f 118 146 145
f 118 119 147
f 120 148 147
f 120 121 149
f 122 150 149
f 122 123 151
f 124 152 151
f 125 153 152
f 125 126 154
f 126 127 155
f 128 156 155
f 129 157 156
f 129 130 158
f 130 131 159
f 132 160 159
f 132 133 161
f 134 162 161
f 134 135 163
f 136 164 163
f 136 137 165
f 138 166 165
f 139 167 166
f 139 140 168
f 140 113 141
f 141 142 170
f 143 171 170
f 143 144 172
f 145 173 172
f 145 146 174
f 147 175 174
f 147 148 176
f 149 177 176
f 149 150 178
f 151 179 178
f 151 152 180
f 153 181 180
f 153 154 182
f 155 183 182
f 155 156 184
f 157 185 184
f 157 158 186
f 159 187 186
f 159 160 188
f 161 189 188
f 161 162 190
f 163 191 190
f 163 164 192
f 165 193 192
f 165 166 194
f 167 195 194
f 167 168 196
f 141 169 196
f 170 198 197
f 170 171 199
f 171 172 200
f 173 201 200
f 173 174 202
f 174 175 203
f 176 204 203
f 176 177 205
f 178 206 205
f 179 207 206
f 179 180 208
f 181 209 208
f 182 210 209
f 182 183 211
f 184 212 211
f 184 185 213
f 185 186 214
f 187 215 214
f 187 188 216
f 188 189 217
f 190 218 217
f 190 191 219
f 192 220 219
f 193 221 220
f 193 194 222
f 195 223 222
f 196 224 223
f 196 169 197
