# eclipse Wires_Flare.obj: Roblox cue frame, recentred on its bounding box
v 0.38042 0.16861 2.54000
v 0.38042 0.16258 2.56250
v 0.38042 0.14611 2.57897
v 0.38042 0.12361 2.58500
v 0.38042 0.10111 2.57897
v 0.38042 0.08464 2.56250
v 0.38042 0.07861 2.54000
v 0.23511 0.36861 1.27000
v 0.36917 0.16258 2.55949
v 0.36094 0.14611 2.57375
v 0.35792 0.12361 2.57897
v 0.36094 0.10111 2.57375
v 0.36917 0.08464 2.55949
v -0.00000 0.44500 -0.00000
v 0.21261 0.36258 1.27000
v 0.36094 0.16258 2.55125
v 0.34667 0.14611 2.55949
v 0.34145 0.12361 2.56250
v 0.34667 0.10111 2.55949
v 0.36094 0.08464 2.55125
v 0.19614 0.34611 1.27000
v 0.19011 0.32361 1.27000
v 0.35792 0.16258 2.54000
v 0.34145 0.14611 2.54000
v 0.33542 0.12361 2.54000
v 0.34145 0.10111 2.54000
v 0.35792 0.08464 2.54000
v 0.19614 0.30111 1.27000
v 0.21261 0.28464 1.27000
v 0.36094 0.16258 2.52875
v 0.34667 0.14611 2.52051
v 0.34145 0.12361 2.51750
v 0.34667 0.10111 2.52051
v 0.36094 0.08464 2.52875
v 0.23511 0.27861 1.27000
v -0.23511 0.36861 -1.27000
v 0.36917 0.16258 2.52051
v 0.36094 0.14611 2.50625
v 0.35792 0.12361 2.50103
v 0.36094 0.10111 2.50625
v 0.36917 0.08464 2.52051
v 0.21563 0.28464 1.28125
v 0.20136 0.30111 1.28949
v 0.38042 0.16258 2.51750
v 0.38042 0.14611 2.50103
v 0.38042 0.12361 2.49500
v 0.38042 0.10111 2.50103
v 0.38042 0.08464 2.51750
v 0.19614 0.32361 1.29250
v 0.20136 0.34611 1.28949
v 0.39167 0.16258 2.52051
v 0.39991 0.14611 2.50625
v 0.40292 0.12361 2.50103
v 0.39991 0.10111 2.50625
v 0.39167 0.08464 2.52051
v 0.21563 0.36258 1.28125
v -0.02250 0.43897 -0.00000
v 0.39991 0.16258 2.52875
v 0.41417 0.14611 2.52051
v 0.41939 0.12361 2.51750
v 0.41417 0.10111 2.52051
v 0.39991 0.08464 2.52875
v -0.03897 0.42250 -0.00000
v 0.22386 0.36258 1.28949
v 0.40292 0.16258 2.54000
v 0.41939 0.14611 2.54000
v 0.42542 0.12361 2.54000
v 0.41939 0.10111 2.54000
v 0.40292 0.08464 2.54000
v 0.21563 0.34611 1.30375
v 0.21261 0.32361 1.30897
v 0.39991 0.16258 2.55125
v 0.41417 0.14611 2.55949
v 0.41939 0.12361 2.56250
v 0.41417 0.10111 2.55949
v 0.39991 0.08464 2.55125
v 0.21563 0.30111 1.30375
v 0.22386 0.28464 1.28949
v 0.39167 0.16258 2.55949
v 0.39991 0.14611 2.57375
v 0.40292 0.12361 2.57897
v 0.39991 0.10111 2.57375
v 0.39167 0.08464 2.55949
v -0.04500 0.40000 -0.00000
v -0.03897 0.37750 -0.00000
v 0.23511 0.28464 1.29250
v 0.23511 0.30111 1.30897
v 0.23511 0.32361 1.31500
v 0.23511 0.34611 1.30897
v 0.23511 0.36258 1.29250
v -0.02250 0.36103 -0.00000
v 0.21563 0.36258 1.25875
v 0.20136 0.34611 1.25051
v 0.19614 0.32361 1.24750
v 0.20136 0.30111 1.25051
v 0.21563 0.28464 1.25875
v -0.00000 0.35500 -0.00000
v -0.38042 0.16861 -2.54000
v 0.22386 0.36258 1.25051
v 0.21563 0.34611 1.23625
v 0.21261 0.32361 1.23103
v 0.21563 0.30111 1.23625
v 0.22386 0.28464 1.25051
v -0.01949 0.36103 0.01125
v -0.03375 0.37750 0.01949
v 0.23511 0.36258 1.24750
v 0.23511 0.34611 1.23103
v 0.23511 0.32361 1.22500
v 0.23511 0.30111 1.23103
v 0.23511 0.28464 1.24750
v -0.03897 0.40000 0.02250
v -0.03375 0.42250 0.01949
v 0.24636 0.36258 1.25051
v 0.25460 0.34611 1.23625
v 0.25761 0.32361 1.23103
v 0.25460 0.30111 1.23625
v 0.24636 0.28464 1.25051
v -0.01949 0.43897 0.01125
v -0.25761 0.36258 -1.27000
v 0.25460 0.36258 1.25875
v 0.26886 0.34611 1.25051
v 0.27409 0.32361 1.24750
v 0.26886 0.30111 1.25051
v 0.25460 0.28464 1.25875
v -0.27409 0.34611 -1.27000
v -0.01125 0.43897 0.01949
v 0.25761 0.36258 1.27000
v 0.27409 0.34611 1.27000
v 0.28011 0.32361 1.27000
v 0.27409 0.30111 1.27000
v 0.25761 0.28464 1.27000
v -0.01949 0.42250 0.03375
v -0.02250 0.40000 0.03897
v 0.25460 0.36258 1.28125
v 0.26886 0.34611 1.28949
v 0.27409 0.32361 1.29250
v 0.26886 0.30111 1.28949
v 0.25460 0.28464 1.28125
v -0.01949 0.37750 0.03375
v -0.01125 0.36103 0.01949
v 0.24636 0.36258 1.28949
v 0.25460 0.34611 1.30375
v 0.25761 0.32361 1.30897
v 0.25460 0.30111 1.30375
v 0.24636 0.28464 1.28949
v -0.28011 0.32361 -1.27000
v -0.27409 0.30111 -1.27000
v -0.00000 0.36103 0.02250
v -0.00000 0.37750 0.03897
v -0.00000 0.40000 0.04500
v -0.00000 0.42250 0.03897
v -0.00000 0.43897 0.02250
v -0.25761 0.28464 -1.27000
v -0.01949 0.43897 -0.01125
v -0.03375 0.42250 -0.01949
v -0.03897 0.40000 -0.02250
v -0.03375 0.37750 -0.01949
v -0.01949 0.36103 -0.01125
v -0.23511 0.27861 -1.27000
v -0.01125 0.43897 -0.01949
v -0.01949 0.42250 -0.03375
v -0.02250 0.40000 -0.03897
v -0.01949 0.37750 -0.03375
v -0.01125 0.36103 -0.01949
v -0.25460 0.28464 -1.25875
v -0.26886 0.30111 -1.25051
v -0.00000 0.43897 -0.02250
v 0.00000 0.42250 -0.03897
v -0.00000 0.40000 -0.04500
v 0.00000 0.37750 -0.03897
v -0.00000 0.36103 -0.02250
v -0.27409 0.32361 -1.24750
v -0.26886 0.34611 -1.25051
v 0.01125 0.43897 -0.01949
v 0.01949 0.42250 -0.03375
v 0.02250 0.40000 -0.03897
v 0.01949 0.37750 -0.03375
v 0.01125 0.36103 -0.01949
v -0.25460 0.36258 -1.25875
v -0.40292 0.16258 -2.54000
v 0.01949 0.43897 -0.01125
v 0.03375 0.42250 -0.01949
v 0.03897 0.40000 -0.02250
v 0.03375 0.37750 -0.01949
v 0.01949 0.36103 -0.01125
v -0.41939 0.14611 -2.54000
v -0.24636 0.36258 -1.25051
v 0.02250 0.43897 -0.00000
v 0.03897 0.42250 -0.00000
v 0.04500 0.40000 -0.00000
v 0.03897 0.37750 -0.00000
v 0.02250 0.36103 -0.00000
v -0.25460 0.34611 -1.23625
v -0.25761 0.32361 -1.23103
v 0.01949 0.43897 0.01125
v 0.03375 0.42250 0.01949
v 0.03897 0.40000 0.02250
v 0.03375 0.37750 0.01949
v 0.01949 0.36103 0.01125
v -0.25460 0.30111 -1.23625
v -0.24636 0.28464 -1.25051
v 0.01125 0.43897 0.01949
v 0.01949 0.42250 0.03375
v 0.02250 0.40000 0.03897
v 0.01949 0.37750 0.03375
v 0.01125 0.36103 0.01949
v -0.42542 0.12361 -2.54000
v -0.41939 0.10111 -2.54000
v -0.23511 0.28464 -1.24750
v -0.23511 0.30111 -1.23103
v -0.23511 0.32361 -1.22500
v -0.23511 0.34611 -1.23103
v -0.23511 0.36258 -1.24750
v -0.40292 0.08464 -2.54000
v -0.25460 0.36258 -1.28125
v -0.26886 0.34611 -1.28949
v -0.27409 0.32361 -1.29250
v -0.26886 0.30111 -1.28949
v -0.25460 0.28464 -1.28125
v -0.38042 0.07861 -2.54000
v -0.24636 0.36258 -1.28949
v -0.25460 0.34611 -1.30375
v -0.25761 0.32361 -1.30897
v -0.25460 0.30111 -1.30375
v -0.24636 0.28464 -1.28949
v -0.39991 0.08464 -2.52875
v -0.41417 0.10111 -2.52051
v -0.23511 0.36258 -1.29250
v -0.23511 0.34611 -1.30897
v -0.23511 0.32361 -1.31500
v -0.23511 0.30111 -1.30897
v -0.23511 0.28464 -1.29250
v -0.41939 0.12361 -2.51750
v -0.41417 0.14611 -2.52051
v -0.22386 0.36258 -1.28949
v -0.21563 0.34611 -1.30375
v -0.21261 0.32361 -1.30897
v -0.21563 0.30111 -1.30375
v -0.22386 0.28464 -1.28949
v -0.39991 0.16258 -2.52875
v -0.21563 0.36258 -1.28125
v -0.20136 0.34611 -1.28949
v -0.19614 0.32361 -1.29250
v -0.20136 0.30111 -1.28949
v -0.21563 0.28464 -1.28125
v -0.39167 0.16258 -2.52051
v -0.21261 0.36258 -1.27000
v -0.19614 0.34611 -1.27000
v -0.19011 0.32361 -1.27000
v -0.19614 0.30111 -1.27000
v -0.21261 0.28464 -1.27000
v -0.39991 0.14611 -2.50625
v -0.40292 0.12361 -2.50103
v -0.21563 0.36258 -1.25875
v -0.20136 0.34611 -1.25051
v -0.19614 0.32361 -1.24750
v -0.20136 0.30111 -1.25051
v -0.21563 0.28464 -1.25875
v -0.39991 0.10111 -2.50625
v -0.39167 0.08464 -2.52051
v -0.22386 0.36258 -1.25051
v -0.21563 0.34611 -1.23625
v -0.21261 0.32361 -1.23103
v -0.21563 0.30111 -1.23625
v -0.22386 0.28464 -1.25051
v -0.38042 0.08464 -2.51750
v -0.38042 0.10111 -2.50103
v -0.38042 0.12361 -2.49500
v -0.38042 0.14611 -2.50103
v -0.38042 0.16258 -2.51750
v -0.39991 0.16258 -2.55125
v -0.41417 0.14611 -2.55949
v -0.41939 0.12361 -2.56250
v -0.41417 0.10111 -2.55949
v -0.39991 0.08464 -2.55125
v -0.39167 0.16258 -2.55949
v -0.39991 0.14611 -2.57375
v -0.40292 0.12361 -2.57897
v -0.39991 0.10111 -2.57375
v -0.39167 0.08464 -2.55949
v -0.38042 0.16258 -2.56250
v -0.38042 0.14611 -2.57897
v -0.38042 0.12361 -2.58500
v -0.38042 0.10111 -2.57897
v -0.38042 0.08464 -2.56250
v -0.36917 0.16258 -2.55949
v -0.36094 0.14611 -2.57375
v -0.35792 0.12361 -2.57897
v -0.36094 0.10111 -2.57375
v -0.36917 0.08464 -2.55949
v -0.36094 0.16258 -2.55125
v -0.34667 0.14611 -2.55949
v -0.34145 0.12361 -2.56250
v -0.34667 0.10111 -2.55949
v -0.36094 0.08464 -2.55125
v -0.35792 0.16258 -2.54000
v -0.34145 0.14611 -2.54000
v -0.33542 0.12361 -2.54000
v -0.34145 0.10111 -2.54000
v -0.35792 0.08464 -2.54000
v -0.36094 0.16258 -2.52875
v -0.34667 0.14611 -2.52051
v -0.34145 0.12361 -2.51750
v -0.34667 0.10111 -2.52051
v -0.36094 0.08464 -2.52875
v -0.36917 0.16258 -2.52051
v -0.36094 0.14611 -2.50625
v -0.35792 0.12361 -2.50103
v -0.36094 0.10111 -2.50625
v -0.36917 0.08464 -2.52051
v -0.38042 -0.07861 2.54000
v -0.38042 -0.08464 2.56250
v -0.38042 -0.10111 2.57897
v -0.38042 -0.12361 2.58500
v -0.38042 -0.14611 2.57897
v -0.38042 -0.16258 2.56250
v -0.38042 -0.16861 2.54000
v -0.23511 -0.27861 1.27000
v -0.39167 -0.08464 2.55949
v -0.39991 -0.10111 2.57375
v -0.40292 -0.12361 2.57897
v -0.39991 -0.14611 2.57375
v -0.39167 -0.16258 2.55949
v 0.00000 -0.35500 -0.00000
v -0.25761 -0.28464 1.27000
v -0.39991 -0.08464 2.55125
v -0.41417 -0.10111 2.55949
v -0.41939 -0.12361 2.56250
v -0.41417 -0.14611 2.55949
v -0.39991 -0.16258 2.55125
v -0.27409 -0.30111 1.27000
v -0.28011 -0.32361 1.27000
v -0.40292 -0.08464 2.54000
v -0.41939 -0.10111 2.54000
v -0.42542 -0.12361 2.54000
v -0.41939 -0.14611 2.54000
v -0.40292 -0.16258 2.54000
v -0.27409 -0.34611 1.27000
v -0.25761 -0.36258 1.27000
v -0.39991 -0.08464 2.52875
v -0.41417 -0.10111 2.52051
v -0.41939 -0.12361 2.51750
v -0.41417 -0.14611 2.52051
v -0.39991 -0.16258 2.52875
v -0.23511 -0.36861 1.27000
v 0.23511 -0.27861 -1.27000
v -0.39167 -0.08464 2.52051
v -0.39991 -0.10111 2.50625
v -0.40292 -0.12361 2.50103
v -0.39991 -0.14611 2.50625
v -0.39167 -0.16258 2.52051
v -0.25460 -0.36258 1.28125
v -0.26886 -0.34611 1.28949
v -0.38042 -0.08464 2.51750
v -0.38042 -0.10111 2.50103
v -0.38042 -0.12361 2.49500
v -0.38042 -0.14611 2.50103
v -0.38042 -0.16258 2.51750
v -0.27409 -0.32361 1.29250
v -0.26886 -0.30111 1.28949
v -0.36917 -0.08464 2.52051
v -0.36094 -0.10111 2.50625
v -0.35792 -0.12361 2.50103
v -0.36094 -0.14611 2.50625
v -0.36917 -0.16258 2.52051
v -0.25460 -0.28464 1.28125
v -0.02250 -0.36103 -0.00000
v -0.36094 -0.08464 2.52875
v -0.34667 -0.10111 2.52051
v -0.34145 -0.12361 2.51750
v -0.34667 -0.14611 2.52051
v -0.36094 -0.16258 2.52875
v -0.03897 -0.37750 -0.00000
v -0.24636 -0.28464 1.28949
v -0.35792 -0.08464 2.54000
v -0.34145 -0.10111 2.54000
v -0.33542 -0.12361 2.54000
v -0.34145 -0.14611 2.54000
v -0.35792 -0.16258 2.54000
v -0.25460 -0.30111 1.30375
v -0.25761 -0.32361 1.30897
v -0.36094 -0.08464 2.55125
v -0.34667 -0.10111 2.55949
v -0.34145 -0.12361 2.56250
v -0.34667 -0.14611 2.55949
v -0.36094 -0.16258 2.55125
v -0.25460 -0.34611 1.30375
v -0.24636 -0.36258 1.28949
v -0.36917 -0.08464 2.55949
v -0.36094 -0.10111 2.57375
v -0.35792 -0.12361 2.57897
v -0.36094 -0.14611 2.57375
v -0.36917 -0.16258 2.55949
v -0.04500 -0.40000 -0.00000
v -0.03897 -0.42250 -0.00000
v -0.23511 -0.36258 1.29250
v -0.23511 -0.34611 1.30897
v -0.23511 -0.32361 1.31500
v -0.23511 -0.30111 1.30897
v -0.23511 -0.28464 1.29250
v -0.02250 -0.43897 -0.00000
v -0.25460 -0.28464 1.25875
v -0.26886 -0.30111 1.25051
v -0.27409 -0.32361 1.24750
v -0.26886 -0.34611 1.25051
v -0.25460 -0.36258 1.25875
v 0.00000 -0.44500 -0.00000
v 0.38042 -0.07861 -2.54000
v -0.24636 -0.28464 1.25051
v -0.25460 -0.30111 1.23625
v -0.25761 -0.32361 1.23103
v -0.25460 -0.34611 1.23625
v -0.24636 -0.36258 1.25051
v -0.01949 -0.43897 0.01125
v -0.03375 -0.42250 0.01949
v -0.23511 -0.28464 1.24750
v -0.23511 -0.30111 1.23103
v -0.23511 -0.32361 1.22500
v -0.23511 -0.34611 1.23103
v -0.23511 -0.36258 1.24750
v -0.03897 -0.40000 0.02250
v -0.03375 -0.37750 0.01949
v -0.22386 -0.28464 1.25051
v -0.21563 -0.30111 1.23625
v -0.21261 -0.32361 1.23103
v -0.21563 -0.34611 1.23625
v -0.22386 -0.36258 1.25051
v -0.01949 -0.36103 0.01125
v 0.21261 -0.28464 -1.27000
v -0.21563 -0.28464 1.25875
v -0.20136 -0.30111 1.25051
v -0.19614 -0.32361 1.24750
v -0.20136 -0.34611 1.25051
v -0.21563 -0.36258 1.25875
v 0.19614 -0.30111 -1.27000
v -0.01125 -0.36103 0.01949
v -0.21261 -0.28464 1.27000
v -0.19614 -0.30111 1.27000
v -0.19011 -0.32361 1.27000
v -0.19614 -0.34611 1.27000
v -0.21261 -0.36258 1.27000
v -0.01949 -0.37750 0.03375
v -0.02250 -0.40000 0.03897
v -0.21563 -0.28464 1.28125
v -0.20136 -0.30111 1.28949
v -0.19614 -0.32361 1.29250
v -0.20136 -0.34611 1.28949
v -0.21563 -0.36258 1.28125
v -0.01949 -0.42250 0.03375
v -0.01125 -0.43897 0.01949
v -0.22386 -0.28464 1.28949
v -0.21563 -0.30111 1.30375
v -0.21261 -0.32361 1.30897
v -0.21563 -0.34611 1.30375
v -0.22386 -0.36258 1.28949
v 0.19011 -0.32361 -1.27000
v 0.19614 -0.34611 -1.27000
v 0.00000 -0.43897 0.02250
v 0.00000 -0.42250 0.03897
v 0.00000 -0.40000 0.04500
v 0.00000 -0.37750 0.03897
v 0.00000 -0.36103 0.02250
v 0.21261 -0.36258 -1.27000
v -0.01949 -0.36103 -0.01125
v -0.03375 -0.37750 -0.01949
v -0.03897 -0.40000 -0.02250
v -0.03375 -0.42250 -0.01949
v -0.01949 -0.43897 -0.01125
v 0.23511 -0.36861 -1.27000
v -0.01125 -0.36103 -0.01949
v -0.01949 -0.37750 -0.03375
v -0.02250 -0.40000 -0.03897
v -0.01949 -0.42250 -0.03375
v -0.01125 -0.43897 -0.01949
v 0.21563 -0.36258 -1.25875
v 0.20136 -0.34611 -1.25051
v 0.00000 -0.36103 -0.02250
v 0.00000 -0.37750 -0.03897
v 0.00000 -0.40000 -0.04500
v 0.00000 -0.42250 -0.03897
v 0.00000 -0.43897 -0.02250
v 0.19614 -0.32361 -1.24750
v 0.20136 -0.30111 -1.25051
v 0.01125 -0.36103 -0.01949
v 0.01949 -0.37750 -0.03375
v 0.02250 -0.40000 -0.03897
v 0.01949 -0.42250 -0.03375
v 0.01125 -0.43897 -0.01949
v 0.21563 -0.28464 -1.25875
v 0.35792 -0.08464 -2.54000
v 0.01949 -0.36103 -0.01125
v 0.03375 -0.37750 -0.01949
v 0.03897 -0.40000 -0.02250
v 0.03375 -0.42250 -0.01949
v 0.01949 -0.43897 -0.01125
v 0.34145 -0.10111 -2.54000
v 0.22386 -0.28464 -1.25051
v 0.02250 -0.36103 -0.00000
v 0.03897 -0.37750 -0.00000
v 0.04500 -0.40000 -0.00000
v 0.03897 -0.42250 -0.00000
v 0.02250 -0.43897 -0.00000
v 0.21563 -0.30111 -1.23625
v 0.21261 -0.32361 -1.23103
v 0.01949 -0.36103 0.01125
v 0.03375 -0.37750 0.01949
v 0.03897 -0.40000 0.02250
v 0.03375 -0.42250 0.01949
v 0.01949 -0.43897 0.01125
v 0.21563 -0.34611 -1.23625
v 0.22386 -0.36258 -1.25051
v 0.01125 -0.36103 0.01949
v 0.01949 -0.37750 0.03375
v 0.02250 -0.40000 0.03897
v 0.01949 -0.42250 0.03375
v 0.01125 -0.43897 0.01949
v 0.33542 -0.12361 -2.54000
v 0.34145 -0.14611 -2.54000
v 0.23511 -0.36258 -1.24750
v 0.23511 -0.34611 -1.23103
v 0.23511 -0.32361 -1.22500
v 0.23511 -0.30111 -1.23103
v 0.23511 -0.28464 -1.24750
v 0.35792 -0.16258 -2.54000
v 0.21563 -0.28464 -1.28125
v 0.20136 -0.30111 -1.28949
v 0.19614 -0.32361 -1.29250
v 0.20136 -0.34611 -1.28949
v 0.21563 -0.36258 -1.28125
v 0.38042 -0.16861 -2.54000
v 0.22386 -0.28464 -1.28949
v 0.21563 -0.30111 -1.30375
v 0.21261 -0.32361 -1.30897
v 0.21563 -0.34611 -1.30375
v 0.22386 -0.36258 -1.28949
v 0.36094 -0.16258 -2.52875
v 0.34667 -0.14611 -2.52051
v 0.23511 -0.28464 -1.29250
v 0.23511 -0.30111 -1.30897
v 0.23511 -0.32361 -1.31500
v 0.23511 -0.34611 -1.30897
v 0.23511 -0.36258 -1.29250
v 0.34145 -0.12361 -2.51750
v 0.34667 -0.10111 -2.52051
v 0.24636 -0.28464 -1.28949
v 0.25460 -0.30111 -1.30375
v 0.25761 -0.32361 -1.30897
v 0.25460 -0.34611 -1.30375
v 0.24636 -0.36258 -1.28949
v 0.36094 -0.08464 -2.52875
v 0.25460 -0.28464 -1.28125
v 0.26886 -0.30111 -1.28949
v 0.27409 -0.32361 -1.29250
v 0.26886 -0.34611 -1.28949
v 0.25460 -0.36258 -1.28125
v 0.36917 -0.08464 -2.52051
v 0.25761 -0.28464 -1.27000
v 0.27409 -0.30111 -1.27000
v 0.28011 -0.32361 -1.27000
v 0.27409 -0.34611 -1.27000
v 0.25761 -0.36258 -1.27000
v 0.36094 -0.10111 -2.50625
v 0.35792 -0.12361 -2.50103
v 0.25460 -0.28464 -1.25875
v 0.26886 -0.30111 -1.25051
v 0.27409 -0.32361 -1.24750
v 0.26886 -0.34611 -1.25051
v 0.25460 -0.36258 -1.25875
v 0.36094 -0.14611 -2.50625
v 0.36917 -0.16258 -2.52051
v 0.24636 -0.28464 -1.25051
v 0.25460 -0.30111 -1.23625
v 0.25761 -0.32361 -1.23103
v 0.25460 -0.34611 -1.23625
v 0.24636 -0.36258 -1.25051
v 0.38042 -0.16258 -2.51750
v 0.38042 -0.14611 -2.50103
v 0.38042 -0.12361 -2.49500
v 0.38042 -0.10111 -2.50103
v 0.38042 -0.08464 -2.51750
v 0.36094 -0.08464 -2.55125
v 0.34667 -0.10111 -2.55949
v 0.34145 -0.12361 -2.56250
v 0.34667 -0.14611 -2.55949
v 0.36094 -0.16258 -2.55125
v 0.36917 -0.08464 -2.55949
v 0.36094 -0.10111 -2.57375
v 0.35792 -0.12361 -2.57897
v 0.36094 -0.14611 -2.57375
v 0.36917 -0.16258 -2.55949
v 0.38042 -0.08464 -2.56250
v 0.38042 -0.10111 -2.57897
v 0.38042 -0.12361 -2.58500
v 0.38042 -0.14611 -2.57897
v 0.38042 -0.16258 -2.56250
v 0.39167 -0.08464 -2.55949
v 0.39991 -0.10111 -2.57375
v 0.40292 -0.12361 -2.57897
v 0.39991 -0.14611 -2.57375
v 0.39167 -0.16258 -2.55949
v 0.39991 -0.08464 -2.55125
v 0.41417 -0.10111 -2.55949
v 0.41939 -0.12361 -2.56250
v 0.41417 -0.14611 -2.55949
v 0.39991 -0.16258 -2.55125
v 0.40292 -0.08464 -2.54000
v 0.41939 -0.10111 -2.54000
v 0.42542 -0.12361 -2.54000
v 0.41939 -0.14611 -2.54000
v 0.40292 -0.16258 -2.54000
v 0.39991 -0.08464 -2.52875
v 0.41417 -0.10111 -2.52051
v 0.41939 -0.12361 -2.51750
v 0.41417 -0.14611 -2.52051
v 0.39991 -0.16258 -2.52875
v 0.39167 -0.08464 -2.52051
v 0.39991 -0.10111 -2.50625
v 0.40292 -0.12361 -2.50103
v 0.39991 -0.14611 -2.50625
v 0.39167 -0.16258 -2.52051
f 7 6 13
f 4 12 5
f 3 9 10
f 5 13 6
f 4 10 11
f 2 1 9
f 9 17 10
f 12 20 13
f 11 17 18
f 9 1 16
f 7 13 20
f 11 19 12
f 20 26 27
f 18 24 25
f 16 1 23
f 7 20 27
f 18 26 19
f 16 24 17
f 26 34 27
f 24 32 25
f 23 1 30
f 7 27 34
f 26 32 33
f 23 31 24
f 34 40 41
f 32 38 39
f 30 1 37
f 7 34 41
f 32 40 33
f 30 38 31
f 40 48 41
f 38 46 39
f 37 1 44
f 7 41 48
f 39 47 40
f 38 44 45
f 46 52 53
f 44 1 51
f 7 48 55
f 46 54 47
f 44 52 45
f 48 54 55
f 51 1 58
f 7 55 62
f 54 60 61
f 52 58 59
f 54 62 55
f 52 60 53
f 7 62 69
f 60 68 61
f 58 66 59
f 61 69 62
f 60 66 67
f 58 1 65
f 7 69 76
f 68 74 75
f 66 72 73
f 69 75 76
f 66 74 67
f 65 1 72
f 7 76 83
f 75 81 82
f 73 79 80
f 76 82 83
f 73 81 74
f 72 1 79
f 81 5 82
f 79 3 80
f 83 5 6
f 80 4 81
f 79 1 2
f 7 83 6
f 90 8 64
f 88 70 71
f 86 77 78
f 90 70 89
f 88 77 87
f 35 86 78
f 64 8 56
f 35 78 42
f 77 49 43
f 70 56 50
f 78 43 42
f 70 49 71
f 56 8 15
f 42 28 29
f 50 22 49
f 43 22 28
f 50 15 21
f 35 42 29
f 35 29 96
f 21 92 93
f 22 95 28
f 22 93 94
f 28 96 29
f 15 8 92
f 92 100 93
f 94 102 95
f 35 96 103
f 94 100 101
f 92 8 99
f 96 102 103
f 100 106 107
f 101 109 102
f 35 103 110
f 99 8 106
f 101 107 108
f 102 110 103
f 108 116 109
f 35 110 117
f 106 8 113
f 108 114 115
f 110 116 117
f 106 114 107
f 35 117 124
f 113 8 120
f 114 122 115
f 116 124 117
f 113 121 114
f 116 122 123
f 120 8 127
f 121 129 122
f 124 130 131
f 120 128 121
f 123 129 130
f 35 124 131
f 127 8 134
f 129 135 136
f 131 137 138
f 127 135 128
f 129 137 130
f 35 131 138
f 134 8 141
f 136 142 143
f 138 144 145
f 135 141 142
f 136 144 137
f 35 138 145
f 142 88 143
f 144 86 145
f 142 90 89
f 144 88 87
f 35 145 86
f 141 8 90
f 152 14 126
f 150 132 133
f 148 139 140
f 152 132 151
f 150 139 149
f 97 148 140
f 126 14 118
f 97 140 104
f 139 111 105
f 126 112 132
f 139 104 140
f 132 111 133
f 118 14 57
f 105 84 85
f 105 91 104
f 112 84 111
f 112 57 63
f 97 104 91
f 97 91 158
f 57 155 63
f 63 156 84
f 91 157 158
f 57 14 154
f 84 157 85
f 154 14 160
f 156 163 157
f 155 160 161
f 97 158 164
f 156 161 162
f 157 164 158
f 161 167 168
f 162 170 163
f 97 164 171
f 160 14 167
f 161 169 162
f 163 171 164
f 169 177 170
f 97 171 178
f 167 14 174
f 169 175 176
f 171 177 178
f 167 175 168
f 97 178 185
f 174 14 181
f 176 182 183
f 177 185 178
f 174 182 175
f 176 184 177
f 181 14 188
f 182 190 183
f 184 192 185
f 182 188 189
f 184 190 191
f 97 185 192
f 188 14 195
f 189 197 190
f 192 198 199
f 188 196 189
f 191 197 198
f 97 192 199
f 195 14 202
f 196 204 197
f 199 205 206
f 195 203 196
f 198 204 205
f 97 199 206
f 203 150 204
f 205 148 206
f 203 152 151
f 205 150 149
f 97 206 148
f 202 14 152
f 213 36 187
f 212 194 211
f 209 200 201
f 213 193 212
f 210 194 200
f 159 209 201
f 187 36 179
f 159 201 165
f 194 166 200
f 187 173 193
f 200 165 201
f 193 172 194
f 179 36 119
f 166 146 147
f 165 147 153
f 173 146 172
f 173 119 125
f 159 165 153
f 159 153 219
f 119 216 125
f 119 36 215
f 125 217 146
f 153 218 219
f 146 218 147
f 215 36 221
f 218 223 224
f 215 222 216
f 159 219 225
f 219 224 225
f 216 223 217
f 222 228 229
f 223 231 224
f 159 225 232
f 221 36 228
f 223 229 230
f 224 232 225
f 230 238 231
f 159 232 239
f 228 36 235
f 230 236 237
f 231 239 232
f 229 235 236
f 159 239 245
f 235 36 241
f 236 243 237
f 238 245 239
f 235 242 236
f 238 243 244
f 241 36 247
f 242 249 243
f 244 251 245
f 242 247 248
f 243 250 244
f 159 245 251
f 247 36 254
f 249 255 256
f 251 257 258
f 247 255 248
f 249 257 250
f 159 251 258
f 254 36 261
f 256 262 263
f 257 265 258
f 254 262 255
f 256 264 257
f 159 258 265
f 262 211 263
f 265 210 209
f 261 212 262
f 264 211 210
f 159 265 209
f 261 36 213
f 270 98 246
f 268 252 253
f 267 260 266
f 269 246 252
f 268 259 267
f 220 266 260
f 246 98 240
f 220 260 226
f 253 227 259
f 246 234 252
f 260 227 226
f 253 234 233
f 240 98 180
f 233 208 227
f 227 214 226
f 234 207 233
f 234 180 186
f 220 226 214
f 220 214 275
f 186 271 272
f 180 98 271
f 207 272 273
f 208 275 214
f 207 274 208
f 273 277 278
f 271 98 276
f 220 275 280
f 274 280 275
f 274 278 279
f 272 276 277
f 277 281 282
f 279 283 284
f 220 280 285
f 276 98 281
f 277 283 278
f 280 284 285
f 283 289 284
f 220 285 290
f 281 98 286
f 282 288 283
f 284 290 285
f 281 287 282
f 220 290 295
f 286 98 291
f 287 293 288
f 289 295 290
f 286 292 287
f 288 294 289
f 291 98 296
f 292 298 293
f 294 300 295
f 291 297 292
f 294 298 299
f 220 295 300
f 296 98 301
f 297 303 298
f 300 304 305
f 296 302 297
f 299 303 304
f 220 300 305
f 301 98 306
f 302 308 303
f 305 309 310
f 302 306 307
f 304 308 309
f 220 305 310
f 307 268 308
f 310 267 266
f 307 270 269
f 308 267 309
f 220 310 266
f 306 98 270
f 4 11 12
f 3 2 9
f 5 12 13
f 4 3 10
f 9 16 17
f 12 19 20
f 11 10 17
f 11 18 19
f 20 19 26
f 18 17 24
f 18 25 26
f 16 23 24
f 26 33 34
f 24 31 32
f 26 25 32
f 23 30 31
f 34 33 40
f 32 31 38
f 32 39 40
f 30 37 38
f 40 47 48
f 38 45 46
f 39 46 47
f 38 37 44
f 46 45 52
f 46 53 54
f 44 51 52
f 48 47 54
f 54 53 60
f 52 51 58
f 54 61 62
f 52 59 60
f 60 67 68
f 58 65 66
f 61 68 69
f 60 59 66
f 68 67 74
f 66 65 72
f 69 68 75
f 66 73 74
f 75 74 81
f 73 72 79
f 76 75 82
f 73 80 81
f 81 4 5
f 79 2 3
f 83 82 5
f 80 3 4
f 88 89 70
f 86 87 77
f 90 64 70
f 88 71 77
f 77 71 49
f 70 64 56
f 78 77 43
f 70 50 49
f 42 43 28
f 50 21 22
f 43 49 22
f 50 56 15
f 21 15 92
f 22 94 95
f 22 21 93
f 28 95 96
f 92 99 100
f 94 101 102
f 94 93 100
f 96 95 102
f 100 99 106
f 101 108 109
f 101 100 107
f 102 109 110
f 108 115 116
f 108 107 114
f 110 109 116
f 106 113 114
f 114 121 122
f 116 123 124
f 113 120 121
f 116 115 122
f 121 128 129
f 124 123 130
f 120 127 128
f 123 122 129
f 129 128 135
f 131 130 137
f 127 134 135
f 129 136 137
f 136 135 142
f 138 137 144
f 135 134 141
f 136 143 144
f 142 89 88
f 144 87 86
f 142 141 90
f 144 143 88
f 150 151 132
f 148 149 139
f 152 126 132
f 150 133 139
f 139 133 111
f 126 118 112
f 139 105 104
f 132 112 111
f 105 111 84
f 105 85 91
f 112 63 84
f 112 118 57
f 57 154 155
f 63 155 156
f 91 85 157
f 84 156 157
f 156 162 163
f 155 154 160
f 156 155 161
f 157 163 164
f 161 160 167
f 162 169 170
f 161 168 169
f 163 170 171
f 169 176 177
f 169 168 175
f 171 170 177
f 167 174 175
f 176 175 182
f 177 184 185
f 174 181 182
f 176 183 184
f 182 189 190
f 184 191 192
f 182 181 188
f 184 183 190
f 189 196 197
f 192 191 198
f 188 195 196
f 191 190 197
f 196 203 204
f 199 198 205
f 195 202 203
f 198 197 204
f 203 151 150
f 205 149 148
f 203 202 152
f 205 204 150
f 212 193 194
f 209 210 200
f 213 187 193
f 210 211 194
f 194 172 166
f 187 179 173
f 200 166 165
f 193 173 172
f 166 172 146
f 165 166 147
f 173 125 146
f 173 179 119
f 119 215 216
f 125 216 217
f 153 147 218
f 146 217 218
f 218 217 223
f 215 221 222
f 219 218 224
f 216 222 223
f 222 221 228
f 223 230 231
f 223 222 229
f 224 231 232
f 230 237 238
f 230 229 236
f 231 238 239
f 229 228 235
f 236 242 243
f 238 244 245
f 235 241 242
f 238 237 243
f 242 248 249
f 244 250 251
f 242 241 247
f 243 249 250
f 249 248 255
f 251 250 257
f 247 254 255
f 249 256 257
f 256 255 262
f 257 264 265
f 254 261 262
f 256 263 264
f 262 212 211
f 265 264 210
f 261 213 212
f 264 263 211
f 268 269 252
f 267 259 260
f 269 270 246
f 268 253 259
f 253 233 227
f 246 240 234
f 260 259 227
f 253 252 234
f 233 207 208
f 227 208 214
f 234 186 207
f 234 240 180
f 186 180 271
f 207 186 272
f 208 274 275
f 207 273 274
f 273 272 277
f 274 279 280
f 274 273 278
f 272 271 276
f 277 276 281
f 279 278 283
f 277 282 283
f 280 279 284
f 283 288 289
f 282 287 288
f 284 289 290
f 281 286 287
f 287 292 293
f 289 294 295
f 286 291 292
f 288 293 294
f 292 297 298
f 294 299 300
f 291 296 297
f 294 293 298
f 297 302 303
f 300 299 304
f 296 301 302
f 299 298 303
f 302 307 308
f 305 304 309
f 302 301 306
f 304 303 308
f 307 269 268
f 310 309 267
f 307 306 270
f 308 268 267
f 317 316 323
f 315 321 322
f 313 319 320
f 315 323 316
f 313 321 314
f 312 311 319
f 320 326 327
f 323 329 330
f 321 327 328
f 319 311 326
f 317 323 330
f 321 329 322
f 329 337 330
f 328 334 335
f 326 311 333
f 317 330 337
f 328 336 329
f 326 334 327
f 336 344 337
f 334 342 335
f 333 311 340
f 317 337 344
f 336 342 343
f 333 341 334
f 344 350 351
f 342 348 349
f 340 311 347
f 317 344 351
f 342 350 343
f 340 348 341
f 350 358 351
f 349 355 356
f 347 311 354
f 317 351 358
f 350 356 357
f 348 354 355
f 355 363 356
f 354 311 361
f 317 358 365
f 356 364 357
f 354 362 355
f 358 364 365
f 361 311 368
f 317 365 372
f 364 370 371
f 362 368 369
f 364 372 365
f 362 370 363
f 317 372 379
f 370 378 371
f 368 376 369
f 371 379 372
f 370 376 377
f 368 311 375
f 317 379 386
f 378 384 385
f 375 383 376
f 378 386 379
f 376 384 377
f 375 311 382
f 317 386 393
f 385 391 392
f 382 390 383
f 385 393 386
f 383 391 384
f 382 311 389
f 392 314 315
f 389 313 390
f 393 315 316
f 391 313 314
f 389 311 312
f 317 393 316
f 400 318 374
f 399 381 398
f 396 387 388
f 400 380 399
f 397 381 387
f 345 396 388
f 374 318 366
f 345 388 352
f 387 359 353
f 380 366 360
f 388 353 352
f 380 359 381
f 366 318 325
f 353 339 352
f 360 332 359
f 353 332 338
f 366 331 360
f 345 352 339
f 345 339 406
f 331 402 403
f 332 405 338
f 332 403 404
f 338 406 339
f 325 318 402
f 402 410 403
f 404 412 405
f 345 406 413
f 403 411 404
f 402 318 409
f 405 413 406
f 410 416 417
f 412 418 419
f 345 413 420
f 409 318 416
f 410 418 411
f 412 420 413
f 419 425 426
f 345 420 427
f 416 318 423
f 417 425 418
f 420 426 427
f 416 424 417
f 345 427 434
f 423 318 430
f 424 432 425
f 427 433 434
f 424 430 431
f 426 432 433
f 430 318 437
f 431 439 432
f 433 441 434
f 431 437 438
f 433 439 440
f 345 434 441
f 437 318 444
f 439 445 446
f 440 448 441
f 437 445 438
f 439 447 440
f 345 441 448
f 444 318 451
f 446 452 453
f 447 455 448
f 445 451 452
f 446 454 447
f 345 448 455
f 453 399 398
f 454 396 455
f 452 400 399
f 453 397 454
f 345 455 396
f 451 318 400
f 462 324 436
f 460 442 443
f 458 449 450
f 462 442 461
f 460 449 459
f 407 458 450
f 436 324 428
f 407 450 414
f 449 421 415
f 442 428 422
f 450 415 414
f 442 421 443
f 428 324 367
f 415 394 395
f 415 401 414
f 422 394 421
f 422 367 373
f 407 414 401
f 407 401 468
f 367 465 373
f 373 466 394
f 401 467 468
f 367 324 464
f 395 466 467
f 464 324 470
f 466 473 467
f 464 471 465
f 407 468 474
f 466 471 472
f 468 473 474
f 471 477 478
f 473 479 480
f 407 474 481
f 470 324 477
f 471 479 472
f 473 481 474
f 479 487 480
f 407 481 488
f 477 324 484
f 479 485 486
f 481 487 488
f 477 485 478
f 407 488 495
f 484 324 491
f 486 492 493
f 488 494 495
f 484 492 485
f 486 494 487
f 491 324 498
f 492 500 493
f 494 502 495
f 492 498 499
f 494 500 501
f 407 495 502
f 498 324 505
f 499 507 500
f 502 508 509
f 498 506 499
f 500 508 501
f 407 502 509
f 505 324 512
f 506 514 507
f 508 516 509
f 505 513 506
f 507 515 508
f 407 509 516
f 513 460 514
f 515 458 516
f 513 462 461
f 514 459 515
f 407 516 458
f 512 324 462
f 523 346 497
f 522 504 521
f 520 511 519
f 522 497 503
f 521 510 520
f 469 519 511
f 497 346 489
f 469 511 475
f 504 476 510
f 497 483 503
f 511 476 475
f 504 483 482
f 489 346 429
f 482 457 476
f 476 463 475
f 483 456 482
f 483 429 435
f 469 475 463
f 469 463 529
f 429 526 435
f 429 346 525
f 456 526 527
f 463 528 529
f 456 528 457
f 525 346 531
f 527 534 528
f 526 531 532
f 469 529 535
f 528 535 529
f 527 532 533
f 531 539 532
f 534 540 541
f 469 535 542
f 531 346 538
f 532 540 533
f 535 541 542
f 541 547 548
f 469 542 549
f 538 346 545
f 539 547 540
f 542 548 549
f 538 546 539
f 469 549 555
f 545 346 551
f 547 552 553
f 548 555 549
f 546 551 552
f 547 554 548
f 551 346 557
f 552 559 553
f 554 561 555
f 552 557 558
f 553 560 554
f 469 555 561
f 557 346 564
f 559 565 566
f 560 568 561
f 557 565 558
f 559 567 560
f 469 561 568
f 564 346 571
f 566 572 573
f 567 575 568
f 564 572 565
f 567 573 574
f 469 568 575
f 573 522 521
f 574 519 575
f 572 523 522
f 573 520 574
f 469 575 519
f 571 346 523
f 580 408 556
f 579 563 578
f 576 569 570
f 579 556 562
f 577 563 569
f 530 576 570
f 556 408 550
f 530 570 536
f 563 537 569
f 556 544 562
f 570 537 536
f 562 543 563
f 550 408 490
f 543 518 537
f 537 524 536
f 543 496 517
f 544 490 496
f 530 536 524
f 530 524 585
f 490 582 496
f 490 408 581
f 517 582 583
f 524 584 585
f 517 584 518
f 582 588 583
f 581 408 586
f 530 585 590
f 584 590 585
f 584 588 589
f 581 587 582
f 586 592 587
f 588 594 589
f 530 590 595
f 586 408 591
f 587 593 588
f 589 595 590
f 593 599 594
f 530 595 600
f 591 408 596
f 593 597 598
f 595 599 600
f 592 596 597
f 530 600 605
f 596 408 601
f 598 602 603
f 600 604 605
f 596 602 597
f 598 604 599
f 601 408 606
f 602 608 603
f 605 609 610
f 601 607 602
f 604 608 609
f 530 605 610
f 606 408 611
f 607 613 608
f 609 615 610
f 606 612 607
f 608 614 609
f 530 610 615
f 611 408 616
f 613 617 618
f 614 620 615
f 612 616 617
f 614 618 619
f 530 615 620
f 617 578 618
f 620 577 576
f 616 579 617
f 619 578 577
f 530 620 576
f 616 408 580
f 315 314 321
f 313 312 319
f 315 322 323
f 313 320 321
f 320 319 326
f 323 322 329
f 321 320 327
f 321 328 329
f 329 336 337
f 328 327 334
f 328 335 336
f 326 333 334
f 336 343 344
f 334 341 342
f 336 335 342
f 333 340 341
f 344 343 350
f 342 341 348
f 342 349 350
f 340 347 348
f 350 357 358
f 349 348 355
f 350 349 356
f 348 347 354
f 355 362 363
f 356 363 364
f 354 361 362
f 358 357 364
f 364 363 370
f 362 361 368
f 364 371 372
f 362 369 370
f 370 377 378
f 368 375 376
f 371 378 379
f 370 369 376
f 378 377 384
f 375 382 383
f 378 385 386
f 376 383 384
f 385 384 391
f 382 389 390
f 385 392 393
f 383 390 391
f 392 391 314
f 389 312 313
f 393 392 315
f 391 390 313
f 399 380 381
f 396 397 387
f 400 374 380
f 397 398 381
f 387 381 359
f 380 374 366
f 388 387 353
f 380 360 359
f 353 338 339
f 360 331 332
f 353 359 332
f 366 325 331
f 331 325 402
f 332 404 405
f 332 331 403
f 338 405 406
f 402 409 410
f 404 411 412
f 403 410 411
f 405 412 413
f 410 409 416
f 412 411 418
f 410 417 418
f 412 419 420
f 419 418 425
f 417 424 425
f 420 419 426
f 416 423 424
f 424 431 432
f 427 426 433
f 424 423 430
f 426 425 432
f 431 438 439
f 433 440 441
f 431 430 437
f 433 432 439
f 439 438 445
f 440 447 448
f 437 444 445
f 439 446 447
f 446 445 452
f 447 454 455
f 445 444 451
f 446 453 454
f 453 452 399
f 454 397 396
f 452 451 400
f 453 398 397
f 460 461 442
f 458 459 449
f 462 436 442
f 460 443 449
f 449 443 421
f 442 436 428
f 450 449 415
f 442 422 421
f 415 421 394
f 415 395 401
f 422 373 394
f 422 428 367
f 367 464 465
f 373 465 466
f 401 395 467
f 395 394 466
f 466 472 473
f 464 470 471
f 466 465 471
f 468 467 473
f 471 470 477
f 473 472 479
f 471 478 479
f 473 480 481
f 479 486 487
f 479 478 485
f 481 480 487
f 477 484 485
f 486 485 492
f 488 487 494
f 484 491 492
f 486 493 494
f 492 499 500
f 494 501 502
f 492 491 498
f 494 493 500
f 499 506 507
f 502 501 508
f 498 505 506
f 500 507 508
f 506 513 514
f 508 515 516
f 505 512 513
f 507 514 515
f 513 461 460
f 515 459 458
f 513 512 462
f 514 460 459
f 522 503 504
f 520 510 511
f 522 523 497
f 521 504 510
f 504 482 476
f 497 489 483
f 511 510 476
f 504 503 483
f 482 456 457
f 476 457 463
f 483 435 456
f 483 489 429
f 429 525 526
f 456 435 526
f 463 457 528
f 456 527 528
f 527 533 534
f 526 525 531
f 528 534 535
f 527 526 532
f 531 538 539
f 534 533 540
f 532 539 540
f 535 534 541
f 541 540 547
f 539 546 547
f 542 541 548
f 538 545 546
f 547 546 552
f 548 554 555
f 546 545 551
f 547 553 554
f 552 558 559
f 554 560 561
f 552 551 557
f 553 559 560
f 559 558 565
f 560 567 568
f 557 564 565
f 559 566 567
f 566 565 572
f 567 574 575
f 564 571 572
f 567 566 573
f 573 572 522
f 574 520 519
f 572 571 523
f 573 521 520
f 579 562 563
f 576 577 569
f 579 580 556
f 577 578 563
f 563 543 537
f 556 550 544
f 570 569 537
f 562 544 543
f 543 517 518
f 537 518 524
f 543 544 496
f 544 550 490
f 490 581 582
f 517 496 582
f 524 518 584
f 517 583 584
f 582 587 588
f 584 589 590
f 584 583 588
f 581 586 587
f 586 591 592
f 588 593 594
f 587 592 593
f 589 594 595
f 593 598 599
f 593 592 597
f 595 594 599
f 592 591 596
f 598 597 602
f 600 599 604
f 596 601 602
f 598 603 604
f 602 607 608
f 605 604 609
f 601 606 607
f 604 603 608
f 607 612 613
f 609 614 615
f 606 611 612
f 608 613 614
f 613 612 617
f 614 619 620
f 612 611 616
f 614 613 618
f 617 579 578
f 620 619 577
f 616 580 579
f 619 618 578
