# grand_opening RibbonA_RibbonA.obj: Roblox cue frame, recentred on its bounding box
v -0.21333 0.06755 3.33322
v -0.19877 0.10270 3.30077
v -0.21947 0.04620 3.30757
v -0.20854 0.08259 3.27508
v -0.22353 0.02398 3.28192
v -0.21633 0.06125 3.24938
v -0.22535 0.00142 3.25626
v -0.22193 0.03919 3.22368
v -0.22489 -0.02127 3.23061
v -0.22529 0.01661 3.19798
v -0.22215 -0.04385 3.20496
v -0.22636 -0.00624 3.17228
v -0.21714 -0.06609 3.17930
v -0.22510 -0.02914 3.14658
v -0.20991 -0.08777 3.15365
v -0.22154 -0.05184 3.12088
v -0.20051 -0.10866 3.12800
v -0.21568 -0.07412 3.09518
v -0.18903 -0.12855 3.10235
v -0.20759 -0.09575 3.06948
v -0.17559 -0.14723 3.07669
v -0.19732 -0.11650 3.04379
v -0.16030 -0.16451 3.05104
v -0.18499 -0.13615 3.01809
v -0.14331 -0.18020 3.02539
v -0.17070 -0.15450 2.99239
v -0.12479 -0.19414 2.99973
v -0.15460 -0.17135 2.96669
v -0.10491 -0.20617 2.97408
v -0.13683 -0.18652 2.94099
v -0.08388 -0.21618 2.94843
v -0.11758 -0.19985 2.91529
v -0.06190 -0.22403 2.92277
v -0.09703 -0.21120 2.88960
v -0.03919 -0.22966 2.89712
v -0.07540 -0.22043 2.86390
v -0.01597 -0.23298 2.87147
v -0.05289 -0.22745 2.83820
v 0.00752 -0.23395 2.84581
v -0.02973 -0.23217 2.81250
v 0.03104 -0.23256 2.82016
v -0.00616 -0.23453 2.78680
v 0.05435 -0.22880 2.79450
v 0.01758 -0.23450 2.76111
v 0.07723 -0.22271 2.76885
v 0.04125 -0.23207 2.73541
v 0.09942 -0.21433 2.74320
v 0.06461 -0.22725 2.70971
v 0.12071 -0.20374 2.71754
v 0.08742 -0.22008 2.68401
v 0.14088 -0.19103 2.69189
v 0.10943 -0.21062 2.65832
v 0.15971 -0.17633 2.66623
v 0.13042 -0.19897 2.63262
v 0.17700 -0.15978 2.64058
v 0.15017 -0.18522 2.60692
v 0.19258 -0.14153 2.61493
v 0.16848 -0.16951 2.58122
v 0.20629 -0.12176 2.58927
v 0.18514 -0.15199 2.55553
v 0.21796 -0.10067 2.56362
v 0.19998 -0.13284 2.52983
v 0.22747 -0.07846 2.53796
v 0.21284 -0.11225 2.50413
v 0.23473 -0.05536 2.51231
v 0.22359 -0.09041 2.47843
v 0.23963 -0.03159 2.48665
v 0.23208 -0.06754 2.45274
v 0.24213 -0.00739 2.46100
v 0.23825 -0.04389 2.42704
v 0.24219 0.01698 2.43534
v 0.24200 -0.01968 2.40134
v 0.23979 0.04130 2.40969
v 0.24329 0.00484 2.37565
v 0.23495 0.06530 2.38403
v 0.24209 0.02942 2.34995
v 0.22771 0.08875 2.35838
v 0.23841 0.05381 2.32425
v 0.21813 0.11140 2.33272
v 0.23228 0.07775 2.29856
v 0.20629 0.13303 2.30707
v 0.22374 0.10100 2.27286
v 0.19232 0.15340 2.28141
v 0.21287 0.12332 2.24716
v 0.17633 0.17230 2.25576
v 0.19978 0.14448 2.22147
v 0.15848 0.18954 2.23010
v 0.18459 0.16425 2.19577
v 0.13895 0.20493 2.20445
v 0.16744 0.18242 2.17008
v 0.11792 0.21831 2.17879
v 0.14850 0.19880 2.14438
v 0.09561 0.22954 2.15314
v 0.12796 0.21323 2.11868
v 0.07223 0.23849 2.12748
v 0.10603 0.22553 2.09299
v 0.04802 0.24505 2.10182
v 0.08291 0.23557 2.06729
v 0.02322 0.24916 2.07617
v 0.05885 0.24325 2.04160
v -0.00193 0.25077 2.05051
v 0.03408 0.24847 2.01590
v -0.02716 0.24983 2.02486
v 0.00886 0.25117 1.99020
v -0.05222 0.24636 1.99920
v -0.01656 0.25131 1.96451
v -0.07686 0.24037 1.97355
v -0.04192 0.24888 1.93881
v -0.10083 0.23192 1.94789
v -0.06695 0.24389 1.91312
v -0.12388 0.22108 1.92223
v -0.09141 0.23638 1.88742
v -0.14576 0.20795 1.89658
v -0.11504 0.22643 1.86173
v -0.16626 0.19266 1.87092
v -0.13758 0.21411 1.83603
v -0.18516 0.17535 1.84526
v -0.15882 0.19955 1.81034
v -0.20227 0.15619 1.81961
v -0.17851 0.18289 1.78464
v -0.21739 0.13536 1.79395
v -0.19647 0.16428 1.75894
v -0.23037 0.11307 1.76830
v -0.21248 0.14392 1.73325
v -0.24106 0.08953 1.74264
v -0.22639 0.12200 1.70755
v -0.24936 0.06499 1.71698
v -0.23804 0.09873 1.68186
v -0.25516 0.03969 1.69133
v -0.24730 0.07436 1.65616
v -0.25839 0.01388 1.66567
v -0.25407 0.04913 1.63047
v -0.25902 -0.01218 1.64001
v -0.25827 0.02329 1.60477
v -0.25702 -0.03822 1.61435
v -0.25984 -0.00290 1.57908
v -0.25240 -0.06399 1.58870
v -0.25875 -0.02916 1.55339
v -0.24521 -0.08921 1.56304
v -0.25502 -0.05524 1.52769
v -0.23549 -0.11362 1.53739
v -0.24866 -0.08085 1.50200
v -0.22350 -0.13705 1.51175
v -0.23987 -0.10582 1.47631
v -0.20918 -0.15924 1.48610
v -0.22859 -0.12985 1.45061
v -0.19266 -0.17993 1.46045
v -0.21490 -0.15268 1.42491
v -0.17410 -0.19891 1.43480
v -0.19893 -0.17408 1.39921
v -0.15367 -0.21598 1.40915
v -0.18084 -0.19380 1.37351
v -0.13156 -0.23094 1.38350
v -0.16078 -0.21164 1.34781
v -0.10800 -0.24365 1.35785
v -0.13898 -0.22741 1.32211
v -0.08322 -0.25395 1.33220
v -0.11563 -0.24093 1.29641
v -0.05746 -0.26173 1.30654
v -0.09096 -0.25205 1.27071
v -0.03098 -0.26690 1.28089
v -0.06523 -0.26065 1.24501
v -0.00403 -0.26939 1.25524
v -0.03870 -0.26662 1.21931
v 0.02309 -0.26916 1.22959
v -0.01162 -0.26989 1.19361
v 0.05013 -0.26619 1.20393
v 0.01571 -0.27041 1.16791
v 0.07681 -0.26051 1.17828
v 0.04304 -0.26816 1.14221
v 0.10285 -0.25216 1.15263
v 0.07006 -0.26315 1.11651
v 0.12798 -0.24120 1.12698
v 0.09652 -0.25542 1.09082
v 0.15194 -0.22774 1.10133
v 0.12211 -0.24503 1.06512
v 0.17457 -0.21203 1.07570
v 0.14668 -0.23220 1.03943
v 0.19560 -0.19409 1.05005
v 0.16993 -0.21692 1.01373
v 0.21479 -0.17406 1.02440
v 0.19159 -0.19931 0.98802
v 0.23192 -0.15213 0.99876
v 0.21142 -0.17954 0.96232
v 0.24682 -0.12851 0.97311
v 0.22921 -0.15780 0.93661
v 0.25930 -0.10343 0.94746
v 0.24476 -0.13429 0.91091
v 0.26924 -0.07715 0.92181
v 0.25789 -0.10926 0.88520
v 0.27651 -0.04991 0.89617
v 0.26846 -0.08294 0.85950
v 0.28101 -0.02198 0.87052
v 0.27635 -0.05560 0.83380
v 0.28270 0.00634 0.84487
v 0.28144 -0.02751 0.80809
v 0.28153 0.03478 0.81922
v 0.28368 0.00104 0.78239
v 0.27749 0.06305 0.79357
v 0.28302 0.02975 0.75669
v 0.27061 0.09086 0.76792
v 0.27945 0.05835 0.73098
v 0.26095 0.11793 0.74227
v 0.27299 0.08652 0.70528
v 0.24857 0.14396 0.71662
v 0.26369 0.11398 0.67958
v 0.23359 0.16870 0.69097
v 0.25162 0.14044 0.65387
v 0.21615 0.19188 0.66533
v 0.23690 0.16563 0.62817
v 0.19644 0.21329 0.63968
v 0.21968 0.18930 0.60247
v 0.17462 0.23268 0.61403
v 0.20010 0.21119 0.57677
v 0.15087 0.24983 0.58839
v 0.17834 0.23105 0.55106
v 0.12544 0.26456 0.56274
v 0.15461 0.24867 0.52536
v 0.09858 0.27670 0.53709
v 0.12913 0.26385 0.49966
v 0.07053 0.28611 0.51144
v 0.10217 0.27642 0.47395
v 0.04159 0.29268 0.48579
v 0.07398 0.28623 0.44825
v 0.01204 0.29631 0.46014
v 0.04486 0.29317 0.42255
v -0.01782 0.29696 0.43449
v 0.01508 0.29714 0.39685
v -0.04769 0.29460 0.40884
v -0.01503 0.29808 0.37114
v -0.07727 0.28924 0.38319
v -0.04519 0.29597 0.34544
v -0.10625 0.28090 0.35754
v -0.07507 0.29081 0.31974
v -0.13433 0.26965 0.33189
v -0.10436 0.28263 0.29404
v -0.16123 0.25560 0.30624
v -0.13277 0.27150 0.26833
v -0.18666 0.23886 0.28059
v -0.16000 0.25751 0.24263
v -0.21036 0.21959 0.25494
v -0.18575 0.24079 0.21693
v -0.23207 0.19796 0.22929
v -0.20976 0.22149 0.19122
v -0.25147 0.17412 0.20363
v -0.23168 0.19973 0.16552
v -0.26841 0.14837 0.17797
v -0.25131 0.17580 0.13982
v -0.28270 0.12097 0.15232
v -0.26848 0.14994 0.11412
v -0.29420 0.09220 0.12666
v -0.28298 0.12240 0.08843
v -0.30277 0.06234 0.10101
v -0.29466 0.09347 0.06273
v -0.30831 0.03169 0.07535
v -0.30339 0.06342 0.03703
v -0.31075 0.00055 0.04970
v -0.30905 0.03257 0.01133
v -0.31004 -0.03075 0.02404
v -0.31157 0.00122 -0.01436
v -0.30618 -0.06191 -0.00161
v -0.31092 -0.03030 -0.04006
v -0.29919 -0.09261 -0.02727
v -0.30707 -0.06168 -0.06576
v -0.28913 -0.12252 -0.05292
v -0.30006 -0.09259 -0.09145
v -0.27608 -0.15134 -0.07858
v -0.28994 -0.12271 -0.11715
v -0.26015 -0.17878 -0.10423
v -0.27680 -0.15173 -0.14285
v -0.24150 -0.20454 -0.12989
v -0.26076 -0.17935 -0.16854
v -0.22029 -0.22837 -0.15554
v -0.24196 -0.20528 -0.19424
v -0.19674 -0.24999 -0.18120
v -0.22059 -0.22923 -0.21994
v -0.17106 -0.26920 -0.20687
v -0.19683 -0.25097 -0.24564
v -0.14335 -0.28553 -0.23255
v -0.17080 -0.27000 -0.27135
v -0.11406 -0.29891 -0.25822
v -0.14291 -0.28624 -0.29704
v -0.08354 -0.30929 -0.28389
v -0.11350 -0.29959 -0.32273
v -0.05209 -0.31656 -0.30955
v -0.08284 -0.30993 -0.34841
v -0.02002 -0.32064 -0.33522
v -0.05126 -0.31714 -0.37410
v 0.01234 -0.32146 -0.36088
v -0.01907 -0.32113 -0.39978
v 0.04466 -0.31903 -0.38655
v 0.01341 -0.32186 -0.42547
v 0.07662 -0.31335 -0.41221
v 0.04583 -0.31931 -0.45116
v 0.10788 -0.30448 -0.43788
v 0.07788 -0.31349 -0.47684
v 0.13814 -0.29249 -0.46354
v 0.10922 -0.30447 -0.50253
v 0.16707 -0.27750 -0.48921
v 0.13953 -0.29231 -0.52822
v 0.19439 -0.25965 -0.51487
v 0.16849 -0.27715 -0.55390
v 0.21980 -0.23911 -0.54054
v 0.19582 -0.25911 -0.57959
v 0.24306 -0.21609 -0.56620
v 0.22123 -0.23839 -0.60527
v 0.26390 -0.19082 -0.59187
v 0.24445 -0.21518 -0.63096
v 0.28213 -0.16354 -0.61753
v 0.26524 -0.18971 -0.65665
v 0.29754 -0.13453 -0.64320
v 0.28338 -0.16225 -0.68233
v 0.30997 -0.10408 -0.66887
v 0.29868 -0.13306 -0.70802
v 0.31929 -0.07249 -0.69453
v 0.31098 -0.10243 -0.73370
v 0.32539 -0.04008 -0.72020
v 0.32014 -0.07068 -0.75939
v 0.32820 -0.00717 -0.74586
v 0.32606 -0.03812 -0.78508
v 0.32769 0.02589 -0.77153
v 0.32867 -0.00509 -0.81076
v 0.32385 0.05878 -0.79719
v 0.32795 0.02808 -0.83645
v 0.31671 0.09116 -0.82286
v 0.32387 0.06105 -0.86213
v 0.30634 0.12269 -0.84853
v 0.31649 0.09349 -0.88782
v 0.29284 0.15307 -0.87419
v 0.30586 0.12505 -0.91351
v 0.27632 0.18196 -0.89986
v 0.29208 0.15543 -0.93919
v 0.25696 0.20909 -0.92552
v 0.27530 0.18430 -0.96488
v 0.23494 0.23417 -0.95119
v 0.25566 0.21136 -0.99056
v 0.21047 0.25693 -0.97685
v 0.23337 0.23634 -1.01625
v 0.18381 0.27714 -1.00252
v 0.20864 0.25898 -1.04193
v 0.15521 0.29459 -1.02819
v 0.18172 0.27904 -1.06762
v 0.12496 0.30910 -1.05385
v 0.15288 0.29630 -1.09330
v 0.09336 0.32050 -1.07952
v 0.12241 0.31059 -1.11899
v 0.06074 0.32868 -1.10518
v 0.09061 0.32175 -1.14468
v 0.02741 0.33355 -1.13085
v 0.05780 0.32966 -1.17036
v -0.00627 0.33504 -1.15652
v 0.02433 0.33422 -1.19605
v -0.03999 0.33313 -1.18218
v -0.00948 0.33540 -1.22173
v -0.07338 0.32783 -1.20785
v -0.04328 0.33315 -1.24742
v -0.10611 0.31919 -1.23351
v -0.07672 0.32751 -1.27310
v -0.13784 0.30728 -1.25918
v -0.10947 0.31851 -1.29879
v -0.16826 0.29223 -1.28484
v -0.14119 0.30624 -1.32447
v -0.19705 0.27417 -1.31051
v -0.17154 0.29082 -1.35016
v -0.22391 0.25328 -1.33618
v -0.20022 0.27240 -1.37584
v -0.24856 0.22976 -1.36184
v -0.22694 0.25115 -1.40153
v -0.27075 0.20385 -1.38751
v -0.25141 0.22729 -1.42722
v -0.29025 0.17580 -1.41318
v -0.27338 0.20105 -1.45290
v -0.30684 0.14590 -1.43884
v -0.29261 0.17269 -1.47859
v -0.32037 0.11444 -1.46451
v -0.30891 0.14250 -1.50427
v -0.33067 0.08173 -1.49017
v -0.32211 0.11078 -1.52996
v -0.33764 0.04811 -1.51584
v -0.33205 0.07786 -1.55564
v -0.34120 0.01392 -1.54151
v -0.33863 0.04405 -1.58133
v -0.34130 -0.02050 -1.56717
v -0.34178 0.00971 -1.60701
v -0.33794 -0.05479 -1.59284
v -0.34145 -0.02481 -1.63270
v -0.33113 -0.08862 -1.61851
v -0.33764 -0.05917 -1.65838
v -0.32094 -0.12164 -1.64417
v -0.33038 -0.09301 -1.68407
v -0.30747 -0.15350 -1.66984
v -0.31973 -0.12599 -1.70975
v -0.29084 -0.18388 -1.69551
v -0.30579 -0.15777 -1.73544
v -0.27121 -0.21248 -1.72117
v -0.28870 -0.18802 -1.76112
v -0.24878 -0.23898 -1.74684
v -0.26863 -0.21643 -1.78681
v -0.22376 -0.26313 -1.77251
v -0.24576 -0.24271 -1.81249
v -0.19641 -0.28466 -1.79817
v -0.22033 -0.26658 -1.83818
v -0.16696 -0.30337 -1.82386
v -0.19257 -0.28778 -1.86388
v -0.13556 -0.31865 -1.84955
v -0.16260 -0.30573 -1.88957
v -0.10279 -0.33069 -1.87523
v -0.13100 -0.32055 -1.91525
v -0.06898 -0.33936 -1.90091
v -0.09807 -0.33212 -1.94092
v -0.03447 -0.34459 -1.92658
v -0.06414 -0.34031 -1.96660
v 0.00039 -0.34632 -1.95226
v -0.02956 -0.34505 -1.99227
v 0.03525 -0.34454 -1.97793
v 0.00532 -0.34629 -2.01795
v 0.06975 -0.33925 -2.00361
v 0.04015 -0.34400 -2.04362
v 0.10354 -0.33051 -2.02928
v 0.07457 -0.33822 -2.06930
v 0.13629 -0.31842 -2.05496
v 0.10824 -0.32901 -2.09498
v 0.16765 -0.30310 -2.08064
v 0.14081 -0.31645 -2.12065
v 0.19730 -0.28469 -2.10631
v 0.17194 -0.30068 -2.14633
v 0.22496 -0.26340 -2.13199
v 0.20134 -0.28186 -2.17200
v 0.25033 -0.23943 -2.15766
v 0.22869 -0.26017 -2.19768
v 0.27316 -0.21302 -2.18334
v 0.25371 -0.23584 -2.22335
v 0.29321 -0.18445 -2.20901
v 0.27616 -0.20911 -2.24903
v 0.31029 -0.15401 -2.23469
v 0.29581 -0.18026 -2.27471
v 0.32422 -0.12201 -2.26037
v 0.31245 -0.14958 -2.30038
v 0.33485 -0.08876 -2.28604
v 0.32592 -0.11738 -2.32606
v 0.34209 -0.05462 -2.31172
v 0.33608 -0.08399 -2.35173
v 0.34585 -0.01991 -2.33739
v 0.34283 -0.04974 -2.37741
v 0.34610 0.01499 -2.36307
v 0.34610 -0.01499 -2.40308
v 0.34283 0.04974 -2.38874
v 0.34585 0.01991 -2.42876
v 0.33608 0.08399 -2.41442
v 0.34209 0.05462 -2.45444
v 0.32592 0.11738 -2.44009
v 0.33485 0.08876 -2.48011
v 0.31245 0.14958 -2.46577
v 0.32422 0.12201 -2.50579
v 0.29581 0.18026 -2.49145
v 0.31029 0.15401 -2.53146
v 0.27616 0.20911 -2.51712
v 0.29321 0.18445 -2.55714
v 0.25371 0.23584 -2.54280
v 0.27316 0.21302 -2.58281
v 0.22869 0.26017 -2.56847
v 0.25033 0.23943 -2.60849
v 0.20134 0.28186 -2.59415
v 0.22496 0.26340 -2.63416
v 0.17195 0.30068 -2.61982
v 0.19730 0.28469 -2.65984
v 0.14081 0.31645 -2.64550
v 0.16765 0.30310 -2.68552
v 0.10824 0.32901 -2.67118
v 0.13629 0.31842 -2.71119
v 0.07457 0.33822 -2.69685
v 0.10354 0.33051 -2.73687
v 0.04015 0.34400 -2.72253
v 0.06975 0.33925 -2.76254
v 0.00532 0.34629 -2.74820
v 0.03525 0.34454 -2.78822
v -0.02956 0.34505 -2.77388
v 0.00039 0.34632 -2.81389
v -0.06414 0.34031 -2.79955
v -0.03447 0.34459 -2.83957
v -0.09807 0.33212 -2.82523
v -0.06898 0.33936 -2.86525
v -0.13100 0.32055 -2.85091
v -0.10279 0.33069 -2.89092
v -0.16260 0.30573 -2.87658
v -0.13556 0.31865 -2.91660
v -0.19255 0.28780 -2.90226
v -0.16694 0.30338 -2.94227
v -0.22054 0.26694 -2.92793
v -0.19663 0.28502 -2.96795
v -0.24629 0.24338 -2.95361
v -0.22432 0.26377 -2.99362
v -0.26954 0.21734 -2.97928
v -0.24973 0.23985 -3.01930
v -0.29005 0.18910 -3.00496
v -0.27261 0.21348 -3.04498
v -0.30761 0.15893 -3.03064
v -0.29271 0.18495 -3.07065
v -0.32204 0.12715 -3.05631
v -0.30984 0.15453 -3.09633
v -0.33320 0.09408 -3.08199
v -0.32382 0.12255 -3.12200
v -0.34098 0.06005 -3.10766
v -0.33451 0.08932 -3.14768
v -0.34529 0.02542 -3.13334
v -0.34180 0.05519 -3.17335
v -0.34610 -0.00948 -3.15901
v -0.34562 0.02050 -3.19903
v -0.34338 -0.04428 -3.18469
v -0.34593 -0.01441 -3.22471
v -0.33718 -0.07863 -3.21036
v -0.34272 -0.04916 -3.25038
v -0.32756 -0.11218 -3.23604
v -0.33603 -0.08342 -3.27606
v -0.31460 -0.14459 -3.26172
v -0.32593 -0.11683 -3.30173
v -0.29850 -0.17544 -3.28745
v -0.31256 -0.14896 -3.32747
v -0.28781 -0.19188 -3.33322
v -0.28781 -0.19188 -3.33322
v -0.20206 0.06341 3.33307
v -0.18751 0.09856 3.30063
v -0.20802 0.04262 3.30742
v -0.19708 0.07902 3.27493
v -0.21178 0.02158 3.28177
v -0.20457 0.05885 3.24923
v -0.21341 0.00021 3.25612
v -0.21000 0.03798 3.22353
v -0.21289 -0.02127 3.23047
v -0.21329 0.01662 3.19783
v -0.21021 -0.04264 3.20481
v -0.21442 -0.00503 3.17213
v -0.20538 -0.06368 3.17916
v -0.21335 -0.02673 3.14644
v -0.19845 -0.08419 3.15351
v -0.21008 -0.04826 3.12074
v -0.18947 -0.10395 3.12786
v -0.20465 -0.06941 3.09504
v -0.17853 -0.12275 3.10220
v -0.19708 -0.08995 3.06934
v -0.16572 -0.14041 3.07655
v -0.18746 -0.10967 3.04364
v -0.15117 -0.15672 3.05090
v -0.17586 -0.12836 3.01794
v -0.13501 -0.17154 3.02524
v -0.16240 -0.14583 2.99225
v -0.11740 -0.18468 2.99959
v -0.14721 -0.16189 2.96655
v -0.09851 -0.19602 2.97394
v -0.13043 -0.17637 2.94085
v -0.07854 -0.20543 2.94828
v -0.11224 -0.18911 2.91515
v -0.05766 -0.21281 2.92263
v -0.09280 -0.19997 2.88945
v -0.03610 -0.21806 2.89698
v -0.07231 -0.20884 2.86376
v -0.01407 -0.22113 2.87132
v -0.05098 -0.21560 2.83806
v 0.00822 -0.22197 2.84567
v -0.02903 -0.22019 2.81236
v 0.03053 -0.22057 2.82002
v -0.00667 -0.22255 2.78666
v 0.05264 -0.21692 2.79436
v 0.01587 -0.22263 2.76097
v 0.07432 -0.21106 2.76871
v 0.03835 -0.22043 2.73527
v 0.09536 -0.20304 2.74306
v 0.06055 -0.21596 2.70957
v 0.11554 -0.19291 2.71740
v 0.08224 -0.20926 2.68387
v 0.13464 -0.18078 2.69175
v 0.10319 -0.20037 2.65818
v 0.15247 -0.16676 2.66610
v 0.12318 -0.18940 2.63248
v 0.16884 -0.15098 2.64044
v 0.14201 -0.17643 2.60678
v 0.18358 -0.13360 2.61479
v 0.15947 -0.16158 2.58109
v 0.19653 -0.11478 2.58913
v 0.17538 -0.14502 2.55539
v 0.20754 -0.09471 2.56348
v 0.18957 -0.12688 2.52969
v 0.21651 -0.07358 2.53782
v 0.20188 -0.10736 2.50399
v 0.22333 -0.05160 2.51217
v 0.21219 -0.08665 2.47830
v 0.22792 -0.02900 2.48652
v 0.22037 -0.06496 2.45260
v 0.23022 -0.00600 2.46086
v 0.22633 -0.04249 2.42690
v 0.23019 0.01717 2.43521
v 0.23000 -0.01949 2.40121
v 0.22784 0.04028 2.40955
v 0.23133 0.00382 2.37551
v 0.22316 0.06309 2.38390
v 0.23030 0.02720 2.34982
v 0.21620 0.08536 2.35824
v 0.22690 0.05041 2.32412
v 0.20702 0.10687 2.33259
v 0.22117 0.07322 2.29842
v 0.19570 0.12740 2.30693
v 0.21314 0.09537 2.27273
v 0.18234 0.14673 2.28128
v 0.20290 0.11666 2.24703
v 0.16707 0.16466 2.25562
v 0.19053 0.13684 2.22133
v 0.15004 0.18101 2.22997
v 0.17615 0.15572 2.19564
v 0.13141 0.19560 2.20431
v 0.15990 0.17308 2.16994
v 0.11136 0.20827 2.17866
v 0.14194 0.18876 2.14425
v 0.09009 0.21888 2.15300
v 0.12245 0.20257 2.11855
v 0.06782 0.22733 2.12735
v 0.10162 0.21437 2.09285
v 0.04475 0.23351 2.10169
v 0.07965 0.22403 2.06716
v 0.02113 0.23735 2.07604
v 0.05676 0.23143 2.04146
v -0.00282 0.23880 2.05038
v 0.03319 0.23650 2.01577
v -0.02684 0.23784 2.02473
v 0.00918 0.23917 1.99007
v -0.05070 0.23446 1.99907
v -0.01503 0.23941 1.96438
v -0.07415 0.22868 1.97341
v -0.03920 0.23719 1.93868
v -0.09695 0.22057 1.94776
v -0.06308 0.23254 1.91299
v -0.11888 0.21017 1.92210
v -0.08641 0.22548 1.88729
v -0.13969 0.19761 1.89645
v -0.10896 0.21608 1.86160
v -0.15918 0.18298 1.87079
v -0.13050 0.20443 1.83590
v -0.17714 0.16643 1.84513
v -0.15079 0.19063 1.81021
v -0.19339 0.14812 1.81948
v -0.16963 0.17482 1.78451
v -0.20774 0.12822 1.79382
v -0.18682 0.15715 1.75882
v -0.22005 0.10694 1.76817
v -0.20216 0.13779 1.73312
v -0.23018 0.08448 1.74251
v -0.21551 0.11694 1.70743
v -0.23802 0.06106 1.71685
v -0.22670 0.09480 1.68173
v -0.24348 0.03692 1.69120
v -0.23563 0.07159 1.65604
v -0.24650 0.01230 1.66554
v -0.24218 0.04754 1.63034
v -0.24703 -0.01256 1.63988
v -0.24627 0.02291 1.60465
v -0.24505 -0.03739 1.61423
v -0.24787 -0.00207 1.57895
v -0.24058 -0.06196 1.58857
v -0.24693 -0.02713 1.55326
v -0.23364 -0.08600 1.56291
v -0.24346 -0.05203 1.52756
v -0.22431 -0.10928 1.53725
v -0.23748 -0.07651 1.50186
v -0.21279 -0.13163 1.51159
v -0.22917 -0.10039 1.47615
v -0.19908 -0.15277 1.48594
v -0.21849 -0.12338 1.45045
v -0.18326 -0.17247 1.46029
v -0.20550 -0.14523 1.42475
v -0.16550 -0.19055 1.43464
v -0.19033 -0.16571 1.39905
v -0.14595 -0.20679 1.40898
v -0.17312 -0.18461 1.37335
v -0.12481 -0.22103 1.38333
v -0.15403 -0.20172 1.34765
v -0.10228 -0.23310 1.35768
v -0.13326 -0.21686 1.32195
v -0.07859 -0.24288 1.33203
v -0.11100 -0.22986 1.29625
v -0.05397 -0.25025 1.30638
v -0.08747 -0.24057 1.27055
v -0.02866 -0.25513 1.28073
v -0.06292 -0.24888 1.24485
v -0.00291 -0.25744 1.25508
v -0.03758 -0.25468 1.21915
v 0.02301 -0.25716 1.22942
v -0.01171 -0.25789 1.19345
v 0.04884 -0.25426 1.20377
v 0.01442 -0.25848 1.16775
v 0.07432 -0.24877 1.17812
v 0.04055 -0.25643 1.14205
v 0.09919 -0.24073 1.15247
v 0.06641 -0.25173 1.11635
v 0.12319 -0.23020 1.12682
v 0.09173 -0.24442 1.09066
v 0.14608 -0.21727 1.10116
v 0.11626 -0.23456 1.06495
v 0.16771 -0.20219 1.07550
v 0.13982 -0.22236 1.03923
v 0.18779 -0.18499 1.04985
v 0.16212 -0.20782 1.01353
v 0.20610 -0.16579 1.02421
v 0.18290 -0.19104 0.98782
v 0.22244 -0.14477 0.99856
v 0.20194 -0.17219 0.96212
v 0.23664 -0.12215 0.97291
v 0.21904 -0.15144 0.93642
v 0.24854 -0.09813 0.94727
v 0.23400 -0.12899 0.91071
v 0.25800 -0.07295 0.92162
v 0.24665 -0.10506 0.88501
v 0.26490 -0.04686 0.89597
v 0.25686 -0.07989 0.85931
v 0.26916 -0.02012 0.87032
v 0.26449 -0.05374 0.83360
v 0.27072 0.00700 0.84468
v 0.26946 -0.02686 0.80790
v 0.26954 0.03423 0.81903
v 0.27169 0.00048 0.78220
v 0.26562 0.06130 0.79338
v 0.27115 0.02799 0.75649
v 0.25898 0.08792 0.76773
v 0.26782 0.05540 0.73079
v 0.24967 0.11383 0.74208
v 0.26171 0.08242 0.70509
v 0.23776 0.13875 0.71643
v 0.25288 0.10877 0.67939
v 0.22337 0.16243 0.69079
v 0.24139 0.13417 0.65368
v 0.20661 0.18461 0.66514
v 0.22735 0.15836 0.62798
v 0.18767 0.20510 0.63949
v 0.21091 0.18111 0.60227
v 0.16671 0.22365 0.61384
v 0.19220 0.20216 0.57657
v 0.14392 0.24005 0.58819
v 0.17139 0.22127 0.55087
v 0.11951 0.25413 0.56254
v 0.14867 0.23824 0.52516
v 0.09372 0.26573 0.53689
v 0.12428 0.25288 0.49946
v 0.06681 0.27471 0.51125
v 0.09844 0.26502 0.47376
v 0.03903 0.28095 0.48560
v 0.07143 0.27451 0.44806
v 0.01068 0.28439 0.45995
v 0.04349 0.28125 0.42236
v -0.01798 0.28497 0.43430
v 0.01493 0.28514 0.39665
v -0.04664 0.28265 0.40865
v -0.01398 0.28613 0.37095
v -0.07502 0.27745 0.38300
v -0.04294 0.28419 0.34525
v -0.10283 0.26940 0.35735
v -0.07164 0.27931 0.31955
v -0.12977 0.25856 0.33170
v -0.09980 0.27153 0.29385
v -0.15558 0.24502 0.30605
v -0.12711 0.26092 0.26814
v -0.17997 0.22890 0.28041
v -0.15330 0.24755 0.24244
v -0.20269 0.21036 0.25476
v -0.17809 0.23156 0.21674
v -0.22351 0.18956 0.22911
v -0.20120 0.21308 0.19105
v -0.24210 0.16663 0.20346
v -0.22230 0.19224 0.16536
v -0.25832 0.14186 0.17781
v -0.24123 0.16929 0.13966
v -0.27201 0.11551 0.15216
v -0.25779 0.14448 0.11396
v -0.28302 0.08784 0.12650
v -0.27180 0.11805 0.08827
v -0.29120 0.05913 0.10085
v -0.28310 0.09026 0.06257
v -0.29648 0.02966 0.07520
v -0.29156 0.06140 0.03687
v -0.29878 -0.00027 0.04954
v -0.29708 0.03175 0.01118
v -0.29805 -0.03037 0.02389
v -0.29958 0.00161 -0.01452
v -0.29429 -0.06032 -0.00177
v -0.29902 -0.02871 -0.04022
v -0.28752 -0.08983 -0.02742
v -0.29540 -0.05890 -0.06591
v -0.27780 -0.11858 -0.05308
v -0.28873 -0.08865 -0.09161
v -0.26520 -0.14628 -0.07873
v -0.27906 -0.11765 -0.11730
v -0.24983 -0.17265 -0.10439
v -0.26649 -0.14560 -0.14300
v -0.23185 -0.19741 -0.13004
v -0.25111 -0.17221 -0.16870
v -0.21142 -0.22029 -0.15570
v -0.23308 -0.19720 -0.19439
v -0.18872 -0.24107 -0.18135
v -0.21257 -0.22031 -0.22009
v -0.16400 -0.25949 -0.20699
v -0.18978 -0.24126 -0.24577
v -0.13734 -0.27514 -0.23264
v -0.16480 -0.25961 -0.27144
v -0.10914 -0.28797 -0.25830
v -0.13800 -0.27529 -0.29712
v -0.07975 -0.29791 -0.28397
v -0.10971 -0.28821 -0.32281
v -0.04946 -0.30485 -0.30963
v -0.08022 -0.29822 -0.34849
v -0.01858 -0.30872 -0.33530
v -0.04983 -0.30523 -0.37418
v 0.01257 -0.30947 -0.36096
v -0.01884 -0.30913 -0.39986
v 0.04368 -0.30707 -0.38663
v 0.01243 -0.30990 -0.42555
v 0.07444 -0.30155 -0.41229
v 0.04365 -0.30751 -0.45124
v 0.10453 -0.29296 -0.43796
v 0.07452 -0.30197 -0.47692
v 0.13364 -0.28136 -0.46362
v 0.10472 -0.29334 -0.50261
v 0.16148 -0.26688 -0.48929
v 0.13393 -0.28170 -0.52829
v 0.18775 -0.24965 -0.51495
v 0.16186 -0.26715 -0.55398
v 0.21219 -0.22983 -0.54062
v 0.18821 -0.24983 -0.57967
v 0.23455 -0.20763 -0.56628
v 0.21272 -0.22992 -0.60535
v 0.25459 -0.18325 -0.59195
v 0.23513 -0.20761 -0.63104
v 0.27210 -0.15695 -0.61761
v 0.25521 -0.18313 -0.65672
v 0.28690 -0.12899 -0.64328
v 0.27274 -0.15670 -0.68241
v 0.29882 -0.09963 -0.66894
v 0.28754 -0.12861 -0.70810
v 0.30775 -0.06918 -0.69461
v 0.29944 -0.09913 -0.73378
v 0.31358 -0.03795 -0.72027
v 0.30833 -0.06855 -0.75947
v 0.31624 -0.00625 -0.74594
v 0.31410 -0.03719 -0.78515
v 0.31569 0.02561 -0.77161
v 0.31668 -0.00537 -0.81084
v 0.31194 0.05729 -0.79727
v 0.31604 0.02659 -0.83653
v 0.30502 0.08847 -0.82294
v 0.31218 0.05837 -0.86221
v 0.29498 0.11885 -0.84860
v 0.30512 0.08964 -0.88790
v 0.28191 0.14810 -0.87427
v 0.29494 0.12008 -0.91358
v 0.26595 0.17592 -0.89993
v 0.28172 0.14938 -0.93927
v 0.24725 0.20204 -0.92560
v 0.26559 0.17724 -0.96495
v 0.22599 0.22617 -0.95126
v 0.24672 0.20336 -0.99064
v 0.20238 0.24807 -0.97693
v 0.22527 0.22749 -1.01632
v 0.17664 0.26752 -1.00260
v 0.20148 0.24935 -1.04201
v 0.14905 0.28430 -1.02826
v 0.17556 0.26874 -1.06770
v 0.11987 0.29823 -1.05393
v 0.14779 0.28543 -1.09338
v 0.08939 0.30918 -1.07959
v 0.11844 0.29926 -1.11907
v 0.05793 0.31702 -1.10526
v 0.08780 0.31008 -1.14475
v 0.02579 0.32166 -1.13093
v 0.05618 0.31777 -1.17044
v -0.00669 0.32304 -1.15659
v 0.02391 0.32223 -1.19612
v -0.03919 0.32115 -1.18226
v -0.00869 0.32342 -1.22181
v -0.07138 0.31599 -1.20792
v -0.04129 0.32132 -1.24749
v -0.10293 0.30762 -1.23359
v -0.07355 0.31594 -1.27318
v -0.13352 0.29609 -1.25925
v -0.10515 0.30732 -1.29886
v -0.16283 0.28153 -1.28492
v -0.13576 0.29554 -1.32455
v -0.19057 0.26407 -1.31059
v -0.16506 0.28072 -1.35023
v -0.21644 0.24388 -1.33625
v -0.19276 0.26300 -1.37592
v -0.24019 0.22116 -1.36192
v -0.21857 0.24255 -1.40160
v -0.26156 0.19614 -1.38758
v -0.24222 0.21957 -1.42729
v -0.28032 0.16905 -1.41325
v -0.26345 0.19430 -1.45298
v -0.29629 0.14018 -1.43892
v -0.28206 0.16698 -1.47866
v -0.30929 0.10981 -1.46458
v -0.29784 0.13788 -1.50435
v -0.31919 0.07825 -1.49025
v -0.31063 0.10730 -1.53003
v -0.32587 0.04580 -1.51591
v -0.32028 0.07555 -1.55572
v -0.32925 0.01281 -1.54158
v -0.32669 0.04294 -1.58140
v -0.32930 -0.02040 -1.56725
v -0.32978 0.00981 -1.60709
v -0.32601 -0.05349 -1.59291
v -0.32952 -0.02351 -1.63277
v -0.31939 -0.08613 -1.61858
v -0.32590 -0.05667 -1.65846
v -0.30951 -0.11797 -1.64425
v -0.31895 -0.08935 -1.68414
v -0.29647 -0.14870 -1.66991
v -0.30873 -0.12120 -1.70983
v -0.28038 -0.17800 -1.69558
v -0.29533 -0.15189 -1.73551
v -0.26139 -0.20557 -1.72125
v -0.27888 -0.18112 -1.76120
v -0.23971 -0.23113 -1.74691
v -0.25955 -0.20858 -1.78688
v -0.21553 -0.25440 -1.77258
v -0.23753 -0.23398 -1.81257
v -0.18910 -0.27515 -1.79824
v -0.21302 -0.25706 -1.83825
v -0.16068 -0.29314 -1.82390
v -0.18630 -0.27756 -1.86391
v -0.13038 -0.30782 -1.84955
v -0.15743 -0.29490 -1.88957
v -0.09873 -0.31939 -1.87523
v -0.12695 -0.30926 -1.91525
v -0.06608 -0.32772 -1.90091
v -0.09517 -0.32048 -1.94092
v -0.03276 -0.33272 -1.92658
v -0.06243 -0.32844 -1.96660
v 0.00090 -0.33434 -1.95226
v -0.02905 -0.33306 -1.99227
v 0.03455 -0.33256 -1.97793
v 0.00462 -0.33431 -2.01795
v 0.06785 -0.32740 -2.00361
v 0.03825 -0.33215 -2.04362
v 0.10046 -0.31892 -2.02928
v 0.07149 -0.32663 -2.06930
v 0.13205 -0.30720 -2.05496
v 0.10400 -0.31778 -2.09498
v 0.16230 -0.29235 -2.08064
v 0.13546 -0.30571 -2.12065
v 0.19090 -0.27454 -2.10631
v 0.16554 -0.29053 -2.14633
v 0.21757 -0.25394 -2.13199
v 0.19395 -0.27240 -2.17200
v 0.24203 -0.23076 -2.15766
v 0.22038 -0.25150 -2.19768
v 0.26403 -0.20524 -2.18334
v 0.24458 -0.22805 -2.22335
v 0.28334 -0.17763 -2.20901
v 0.26629 -0.20229 -2.24903
v 0.29979 -0.14822 -2.23469
v 0.28530 -0.17447 -2.27471
v 0.31318 -0.11730 -2.26037
v 0.30142 -0.14487 -2.30038
v 0.32340 -0.08519 -2.28604
v 0.31447 -0.11380 -2.32606
v 0.33033 -0.05221 -2.31172
v 0.32433 -0.08158 -2.35173
v 0.33391 -0.01871 -2.33739
v 0.33089 -0.04853 -2.37741
v 0.33410 0.01499 -2.36307
v 0.33410 -0.01499 -2.40308
v 0.33089 0.04853 -2.38874
v 0.33391 0.01871 -2.42876
v 0.32433 0.08158 -2.41442
v 0.33033 0.05221 -2.45444
v 0.31447 0.11381 -2.44009
v 0.32340 0.08519 -2.48011
v 0.30142 0.14487 -2.46577
v 0.31318 0.11730 -2.50579
v 0.28530 0.17446 -2.49145
v 0.29979 0.14822 -2.53146
v 0.26629 0.20229 -2.51712
v 0.28334 0.17763 -2.55714
v 0.24458 0.22805 -2.54280
v 0.26403 0.20524 -2.58281
v 0.22038 0.25151 -2.56847
v 0.24203 0.23076 -2.60849
v 0.19395 0.27240 -2.59415
v 0.21757 0.25394 -2.63416
v 0.16555 0.29053 -2.61982
v 0.19090 0.27454 -2.65984
v 0.13546 0.30571 -2.64550
v 0.16230 0.29235 -2.68552
v 0.10400 0.31778 -2.67118
v 0.13205 0.30720 -2.71119
v 0.07149 0.32663 -2.69685
v 0.10046 0.31892 -2.73687
v 0.03825 0.33215 -2.72253
v 0.06785 0.32740 -2.76254
v 0.00462 0.33431 -2.74820
v 0.03455 0.33256 -2.78822
v -0.02905 0.33306 -2.77388
v 0.00090 0.33434 -2.81389
v -0.06243 0.32844 -2.79955
v -0.03276 0.33272 -2.83957
v -0.09517 0.32047 -2.82523
v -0.06608 0.32772 -2.86525
v -0.12695 0.30926 -2.85091
v -0.09873 0.31939 -2.89092
v -0.15743 0.29490 -2.87658
v -0.13038 0.30782 -2.91660
v -0.18631 0.27754 -2.90226
v -0.16070 0.29313 -2.94227
v -0.21331 0.25737 -2.92793
v -0.18939 0.27545 -2.96795
v -0.23813 0.23458 -2.95361
v -0.21616 0.25498 -2.99362
v -0.26053 0.20941 -2.97928
v -0.24072 0.23192 -3.01930
v -0.28029 0.18212 -3.00496
v -0.26285 0.20650 -3.04498
v -0.29719 0.15297 -3.03064
v -0.28230 0.17898 -3.07065
v -0.31108 0.12227 -3.05631
v -0.29888 0.14965 -3.09633
v -0.32181 0.09032 -3.08199
v -0.31242 0.11880 -3.12200
v -0.32926 0.05746 -3.10766
v -0.32279 0.08673 -3.14768
v -0.33337 0.02402 -3.13334
v -0.32988 0.05379 -3.17335
v -0.33410 -0.00967 -3.15901
v -0.33362 0.02030 -3.19903
v -0.33143 -0.04326 -3.18469
v -0.33397 -0.01339 -3.22471
v -0.32539 -0.07641 -3.21036
v -0.33093 -0.04695 -3.25038
v -0.31605 -0.10879 -3.23604
v -0.32452 -0.08003 -3.27606
v -0.30349 -0.14006 -3.26172
v -0.31481 -0.11230 -3.30173
v -0.28780 -0.17000 -3.28733
v -0.30186 -0.14352 -3.32735
v -0.27740 -0.18591 -3.33293
v -0.27740 -0.18591 -3.33293
f 1 4 3
f 3 6 5
f 5 8 7
f 7 10 9
f 9 12 11
f 11 14 13
f 13 16 15
f 15 18 17
f 17 20 19
f 19 22 21
f 21 24 23
f 23 26 25
f 25 28 27
f 27 30 29
f 29 32 31
f 31 34 33
f 33 36 35
f 35 38 37
f 37 40 39
f 39 42 41
f 41 44 43
f 43 46 45
f 45 48 47
f 47 50 49
f 49 52 51
f 51 54 53
f 53 56 55
f 55 58 57
f 57 60 59
f 59 62 61
f 61 64 63
f 63 66 65
f 65 68 67
f 67 70 69
f 69 72 71
f 71 74 73
f 73 76 75
f 75 78 77
f 77 80 79
f 79 82 81
f 81 84 83
f 83 86 85
f 85 88 87
f 87 90 89
f 89 92 91
f 91 94 93
f 93 96 95
f 95 98 97
f 97 100 99
f 99 102 101
f 101 104 103
f 103 106 105
f 105 108 107
f 107 110 109
f 109 112 111
f 111 114 113
f 113 116 115
f 115 118 117
f 117 120 119
f 119 122 121
f 121 124 123
f 123 126 125
f 125 128 127
f 127 130 129
f 129 132 131
f 131 134 133
f 133 136 135
f 135 138 137
f 137 140 139
f 139 142 141
f 141 144 143
f 143 146 145
f 145 148 147
f 147 150 149
f 149 152 151
f 151 154 153
f 153 156 155
f 155 158 157
f 157 160 159
f 159 162 161
f 161 164 163
f 163 166 165
f 165 168 167
f 167 170 169
f 169 172 171
f 171 174 173
f 173 176 175
f 175 178 177
f 177 180 179
f 179 182 181
f 181 184 183
f 183 186 185
f 185 188 187
f 187 190 189
f 189 192 191
f 191 194 193
f 193 196 195
f 195 198 197
f 197 200 199
f 199 202 201
f 201 204 203
f 203 206 205
f 205 208 207
f 207 210 209
f 209 212 211
f 211 214 213
f 213 216 215
f 215 218 217
f 217 220 219
f 219 222 221
f 221 224 223
f 223 226 225
f 225 228 227
f 227 230 229
f 229 232 231
f 231 234 233
f 233 236 235
f 235 238 237
f 237 240 239
f 239 242 241
f 241 244 243
f 243 246 245
f 245 248 247
f 247 250 249
f 249 252 251
f 251 254 253
f 253 256 255
f 255 258 257
f 257 260 259
f 259 262 261
f 261 264 263
f 263 266 265
f 265 268 267
f 267 270 269
f 269 272 271
f 271 274 273
f 273 276 275
f 275 278 277
f 277 280 279
f 279 282 281
f 281 284 283
f 283 286 285
f 285 288 287
f 287 290 289
f 289 292 291
f 291 294 293
f 293 296 295
f 295 298 297
f 297 300 299
f 299 302 301
f 301 304 303
f 303 306 305
f 305 308 307
f 307 310 309
f 309 312 311
f 311 314 313
f 313 316 315
f 315 318 317
f 317 320 319
f 319 322 321
f 321 324 323
f 323 326 325
f 325 328 327
f 327 330 329
f 329 332 331
f 331 334 333
f 333 336 335
f 335 338 337
f 337 340 339
f 339 342 341
f 341 344 343
f 343 346 345
f 345 348 347
f 347 350 349
f 349 352 351
f 351 354 353
f 353 356 355
f 355 358 357
f 357 360 359
f 359 362 361
f 361 364 363
f 363 366 365
f 365 368 367
f 367 370 369
f 369 372 371
f 371 374 373
f 373 376 375
f 375 378 377
f 377 380 379
f 379 382 381
f 381 384 383
f 383 386 385
f 385 388 387
f 387 390 389
f 389 392 391
f 391 394 393
f 393 396 395
f 395 398 397
f 397 400 399
f 399 402 401
f 401 404 403
f 403 406 405
f 405 408 407
f 407 410 409
f 409 412 411
f 411 414 413
f 413 416 415
f 415 418 417
f 417 420 419
f 419 422 421
f 421 424 423
f 423 426 425
f 425 428 427
f 427 430 429
f 429 432 431
f 431 434 433
f 433 436 435
f 435 438 437
f 437 440 439
f 439 442 441
f 441 444 443
f 443 446 445
f 445 448 447
f 447 450 449
f 449 452 451
f 451 454 453
f 453 456 455
f 455 458 457
f 457 460 459
f 459 462 461
f 461 464 463
f 463 466 465
f 465 468 467
f 467 470 469
f 469 472 471
f 471 474 473
f 473 476 475
f 475 478 477
f 477 480 479
f 479 482 481
f 481 484 483
f 483 486 485
f 485 488 487
f 487 490 489
f 489 492 491
f 491 494 493
f 493 496 495
f 495 498 497
f 497 500 499
f 499 502 501
f 501 504 503
f 503 506 505
f 505 508 507
f 507 510 509
f 509 512 511
f 511 514 513
f 513 516 515
f 515 518 517
f 517 520 519
f 523 522 521
f 525 524 523
f 527 526 525
f 529 528 527
f 531 530 529
f 533 532 531
f 535 534 533
f 537 536 535
f 539 538 537
f 541 540 539
f 543 542 541
f 545 544 543
f 547 546 545
f 549 548 547
f 551 550 549
f 553 552 551
f 555 554 553
f 557 556 555
f 559 558 557
f 561 560 559
f 563 562 561
f 565 564 563
f 567 566 565
f 569 568 567
f 571 570 569
f 573 572 571
f 575 574 573
f 577 576 575
f 579 578 577
f 581 580 579
f 583 582 581
f 585 584 583
f 587 586 585
f 589 588 587
f 591 590 589
f 593 592 591
f 595 594 593
f 597 596 595
f 599 598 597
f 601 600 599
f 603 602 601
f 605 604 603
f 607 606 605
f 609 608 607
f 611 610 609
f 613 612 611
f 615 614 613
f 617 616 615
f 619 618 617
f 621 620 619
f 623 622 621
f 625 624 623
f 627 626 625
f 629 628 627
f 631 630 629
f 633 632 631
f 635 634 633
f 637 636 635
f 639 638 637
f 641 640 639
f 643 642 641
f 645 644 643
f 647 646 645
f 649 648 647
f 651 650 649
f 653 652 651
f 655 654 653
f 657 656 655
f 659 658 657
f 661 660 659
f 663 662 661
f 665 664 663
f 667 666 665
f 669 668 667
f 671 670 669
f 673 672 671
f 675 674 673
f 677 676 675
f 679 678 677
f 681 680 679
f 683 682 681
f 685 684 683
f 687 686 685
f 689 688 687
f 691 690 689
f 693 692 691
f 695 694 693
f 697 696 695
f 699 698 697
f 701 700 699
f 703 702 701
f 705 704 703
f 707 706 705
f 709 708 707
f 711 710 709
f 713 712 711
f 715 714 713
f 717 716 715
f 719 718 717
f 721 720 719
f 723 722 721
f 725 724 723
f 727 726 725
f 729 728 727
f 731 730 729
f 733 732 731
f 735 734 733
f 737 736 735
f 739 738 737
f 741 740 739
f 743 742 741
f 745 744 743
f 747 746 745
f 749 748 747
f 751 750 749
f 753 752 751
f 755 754 753
f 757 756 755
f 759 758 757
f 761 760 759
f 763 762 761
f 765 764 763
f 767 766 765
f 769 768 767
f 771 770 769
f 773 772 771
f 775 774 773
f 777 776 775
f 779 778 777
f 781 780 779
f 783 782 781
f 785 784 783
f 787 786 785
f 789 788 787
f 791 790 789
f 793 792 791
f 795 794 793
f 797 796 795
f 799 798 797
f 801 800 799
f 803 802 801
f 805 804 803
f 807 806 805
f 809 808 807
f 811 810 809
f 813 812 811
f 815 814 813
f 817 816 815
f 819 818 817
f 821 820 819
f 823 822 821
f 825 824 823
f 827 826 825
f 829 828 827
f 831 830 829
f 833 832 831
f 835 834 833
f 837 836 835
f 839 838 837
f 841 840 839
f 843 842 841
f 845 844 843
f 847 846 845
f 849 848 847
f 851 850 849
f 853 852 851
f 855 854 853
f 857 856 855
f 859 858 857
f 861 860 859
f 863 862 861
f 865 864 863
f 867 866 865
f 869 868 867
f 871 870 869
f 873 872 871
f 875 874 873
f 877 876 875
f 879 878 877
f 881 880 879
f 883 882 881
f 885 884 883
f 887 886 885
f 889 888 887
f 891 890 889
f 893 892 891
f 895 894 893
f 897 896 895
f 899 898 897
f 901 900 899
f 903 902 901
f 905 904 903
f 907 906 905
f 909 908 907
f 911 910 909
f 913 912 911
f 915 914 913
f 917 916 915
f 919 918 917
f 921 920 919
f 923 922 921
f 925 924 923
f 927 926 925
f 929 928 927
f 931 930 929
f 933 932 931
f 935 934 933
f 937 936 935
f 939 938 937
f 941 940 939
f 943 942 941
f 945 944 943
f 947 946 945
f 949 948 947
f 951 950 949
f 953 952 951
f 955 954 953
f 957 956 955
f 959 958 957
f 961 960 959
f 963 962 961
f 965 964 963
f 967 966 965
f 969 968 967
f 971 970 969
f 973 972 971
f 975 974 973
f 977 976 975
f 979 978 977
f 981 980 979
f 983 982 981
f 985 984 983
f 987 986 985
f 989 988 987
f 991 990 989
f 993 992 991
f 995 994 993
f 997 996 995
f 999 998 997
f 1001 1000 999
f 1003 1002 1001
f 1005 1004 1003
f 1007 1006 1005
f 1009 1008 1007
f 1011 1010 1009
f 1013 1012 1011
f 1015 1014 1013
f 1017 1016 1015
f 1019 1018 1017
f 1021 1020 1019
f 1023 1022 1021
f 1025 1024 1023
f 1027 1026 1025
f 1029 1028 1027
f 1031 1030 1029
f 1033 1032 1031
f 1035 1034 1033
f 1037 1036 1035
f 1037 1040 1038
f 3 521 1
f 2 521 522
f 2 524 4
f 5 523 3
f 4 526 6
f 7 525 5
f 6 528 8
f 9 527 7
f 8 530 10
f 11 529 9
f 10 532 12
f 13 531 11
f 12 534 14
f 15 533 13
f 14 536 16
f 17 535 15
f 16 538 18
f 19 537 17
f 18 540 20
f 21 539 19
f 20 542 22
f 23 541 21
f 22 544 24
f 25 543 23
f 24 546 26
f 27 545 25
f 26 548 28
f 29 547 27
f 28 550 30
f 31 549 29
f 30 552 32
f 33 551 31
f 32 554 34
f 35 553 33
f 34 556 36
f 37 555 35
f 36 558 38
f 39 557 37
f 38 560 40
f 41 559 39
f 40 562 42
f 43 561 41
f 42 564 44
f 45 563 43
f 44 566 46
f 47 565 45
f 46 568 48
f 49 567 47
f 48 570 50
f 51 569 49
f 50 572 52
f 53 571 51
f 52 574 54
f 55 573 53
f 54 576 56
f 57 575 55
f 56 578 58
f 59 577 57
f 58 580 60
f 61 579 59
f 60 582 62
f 63 581 61
f 62 584 64
f 65 583 63
f 64 586 66
f 67 585 65
f 66 588 68
f 69 587 67
f 68 590 70
f 71 589 69
f 70 592 72
f 73 591 71
f 72 594 74
f 75 593 73
f 74 596 76
f 77 595 75
f 76 598 78
f 79 597 77
f 78 600 80
f 81 599 79
f 80 602 82
f 83 601 81
f 82 604 84
f 85 603 83
f 84 606 86
f 87 605 85
f 86 608 88
f 89 607 87
f 88 610 90
f 91 609 89
f 90 612 92
f 93 611 91
f 92 614 94
f 95 613 93
f 94 616 96
f 97 615 95
f 96 618 98
f 99 617 97
f 98 620 100
f 101 619 99
f 100 622 102
f 103 621 101
f 102 624 104
f 105 623 103
f 104 626 106
f 107 625 105
f 106 628 108
f 109 627 107
f 108 630 110
f 111 629 109
f 110 632 112
f 113 631 111
f 112 634 114
f 115 633 113
f 114 636 116
f 117 635 115
f 116 638 118
f 119 637 117
f 118 640 120
f 121 639 119
f 120 642 122
f 123 641 121
f 122 644 124
f 125 643 123
f 124 646 126
f 127 645 125
f 126 648 128
f 129 647 127
f 128 650 130
f 131 649 129
f 130 652 132
f 133 651 131
f 132 654 134
f 135 653 133
f 134 656 136
f 137 655 135
f 136 658 138
f 139 657 137
f 138 660 140
f 141 659 139
f 140 662 142
f 143 661 141
f 142 664 144
f 145 663 143
f 144 666 146
f 147 665 145
f 146 668 148
f 149 667 147
f 148 670 150
f 151 669 149
f 150 672 152
f 153 671 151
f 152 674 154
f 155 673 153
f 154 676 156
f 157 675 155
f 156 678 158
f 159 677 157
f 158 680 160
f 161 679 159
f 160 682 162
f 163 681 161
f 162 684 164
f 165 683 163
f 164 686 166
f 167 685 165
f 166 688 168
f 169 687 167
f 168 690 170
f 171 689 169
f 170 692 172
f 173 691 171
f 172 694 174
f 175 693 173
f 174 696 176
f 177 695 175
f 176 698 178
f 179 697 177
f 178 700 180
f 181 699 179
f 180 702 182
f 183 701 181
f 182 704 184
f 185 703 183
f 184 706 186
f 187 705 185
f 186 708 188
f 189 707 187
f 188 710 190
f 191 709 189
f 190 712 192
f 193 711 191
f 192 714 194
f 195 713 193
f 194 716 196
f 197 715 195
f 196 718 198
f 199 717 197
f 198 720 200
f 201 719 199
f 200 722 202
f 203 721 201
f 202 724 204
f 205 723 203
f 204 726 206
f 207 725 205
f 206 728 208
f 209 727 207
f 208 730 210
f 211 729 209
f 210 732 212
f 213 731 211
f 212 734 214
f 215 733 213
f 214 736 216
f 217 735 215
f 216 738 218
f 219 737 217
f 218 740 220
f 221 739 219
f 220 742 222
f 223 741 221
f 222 744 224
f 225 743 223
f 224 746 226
f 227 745 225
f 226 748 228
f 229 747 227
f 228 750 230
f 231 749 229
f 230 752 232
f 233 751 231
f 232 754 234
f 235 753 233
f 234 756 236
f 237 755 235
f 236 758 238
f 239 757 237
f 238 760 240
f 241 759 239
f 240 762 242
f 243 761 241
f 242 764 244
f 245 763 243
f 244 766 246
f 247 765 245
f 246 768 248
f 249 767 247
f 248 770 250
f 251 769 249
f 250 772 252
f 253 771 251
f 252 774 254
f 255 773 253
f 254 776 256
f 257 775 255
f 256 778 258
f 259 777 257
f 258 780 260
f 261 779 259
f 260 782 262
f 263 781 261
f 262 784 264
f 265 783 263
f 264 786 266
f 267 785 265
f 266 788 268
f 269 787 267
f 268 790 270
f 271 789 269
f 270 792 272
f 273 791 271
f 272 794 274
f 275 793 273
f 274 796 276
f 277 795 275
f 276 798 278
f 279 797 277
f 278 800 280
f 281 799 279
f 280 802 282
f 283 801 281
f 282 804 284
f 285 803 283
f 284 806 286
f 287 805 285
f 286 808 288
f 289 807 287
f 288 810 290
f 291 809 289
f 290 812 292
f 293 811 291
f 292 814 294
f 295 813 293
f 294 816 296
f 297 815 295
f 296 818 298
f 299 817 297
f 298 820 300
f 301 819 299
f 300 822 302
f 303 821 301
f 302 824 304
f 305 823 303
f 304 826 306
f 307 825 305
f 306 828 308
f 309 827 307
f 308 830 310
f 311 829 309
f 310 832 312
f 313 831 311
f 312 834 314
f 315 833 313
f 314 836 316
f 317 835 315
f 316 838 318
f 319 837 317
f 318 840 320
f 321 839 319
f 320 842 322
f 323 841 321
f 322 844 324
f 325 843 323
f 324 846 326
f 327 845 325
f 326 848 328
f 329 847 327
f 328 850 330
f 331 849 329
f 330 852 332
f 333 851 331
f 332 854 334
f 335 853 333
f 334 856 336
f 337 855 335
f 336 858 338
f 339 857 337
f 338 860 340
f 341 859 339
f 340 862 342
f 343 861 341
f 342 864 344
f 345 863 343
f 344 866 346
f 347 865 345
f 346 868 348
f 349 867 347
f 348 870 350
f 351 869 349
f 350 872 352
f 353 871 351
f 352 874 354
f 355 873 353
f 354 876 356
f 357 875 355
f 356 878 358
f 359 877 357
f 358 880 360
f 361 879 359
f 360 882 362
f 363 881 361
f 362 884 364
f 365 883 363
f 364 886 366
f 367 885 365
f 366 888 368
f 369 887 367
f 368 890 370
f 371 889 369
f 370 892 372
f 373 891 371
f 372 894 374
f 375 893 373
f 374 896 376
f 377 895 375
f 376 898 378
f 379 897 377
f 378 900 380
f 381 899 379
f 380 902 382
f 383 901 381
f 382 904 384
f 385 903 383
f 384 906 386
f 387 905 385
f 386 908 388
f 389 907 387
f 388 910 390
f 391 909 389
f 390 912 392
f 393 911 391
f 392 914 394
f 395 913 393
f 394 916 396
f 397 915 395
f 396 918 398
f 399 917 397
f 398 920 400
f 401 919 399
f 400 922 402
f 403 921 401
f 402 924 404
f 405 923 403
f 404 926 406
f 407 925 405
f 406 928 408
f 409 927 407
f 408 930 410
f 411 929 409
f 410 932 412
f 413 931 411
f 412 934 414
f 415 933 413
f 414 936 416
f 417 935 415
f 416 938 418
f 419 937 417
f 418 940 420
f 421 939 419
f 420 942 422
f 423 941 421
f 422 944 424
f 425 943 423
f 424 946 426
f 427 945 425
f 426 948 428
f 429 947 427
f 428 950 430
f 431 949 429
f 430 952 432
f 433 951 431
f 432 954 434
f 435 953 433
f 434 956 436
f 437 955 435
f 436 958 438
f 439 957 437
f 438 960 440
f 441 959 439
f 440 962 442
f 443 961 441
f 442 964 444
f 445 963 443
f 444 966 446
f 447 965 445
f 446 968 448
f 449 967 447
f 448 970 450
f 451 969 449
f 450 972 452
f 453 971 451
f 452 974 454
f 455 973 453
f 454 976 456
f 457 975 455
f 456 978 458
f 459 977 457
f 458 980 460
f 461 979 459
f 460 982 462
f 463 981 461
f 462 984 464
f 465 983 463
f 464 986 466
f 467 985 465
f 466 988 468
f 469 987 467
f 468 990 470
f 471 989 469
f 470 992 472
f 473 991 471
f 472 994 474
f 475 993 473
f 474 996 476
f 477 995 475
f 476 998 478
f 479 997 477
f 478 1000 480
f 481 999 479
f 480 1002 482
f 483 1001 481
f 482 1004 484
f 485 1003 483
f 484 1006 486
f 487 1005 485
f 486 1008 488
f 489 1007 487
f 488 1010 490
f 491 1009 489
f 490 1012 492
f 493 1011 491
f 492 1014 494
f 495 1013 493
f 494 1016 496
f 497 1015 495
f 496 1018 498
f 499 1017 497
f 498 1020 500
f 501 1019 499
f 500 1022 502
f 503 1021 501
f 502 1024 504
f 505 1023 503
f 504 1026 506
f 507 1025 505
f 506 1028 508
f 509 1027 507
f 508 1030 510
f 511 1029 509
f 510 1032 512
f 513 1031 511
f 512 1034 514
f 515 1033 513
f 514 1036 516
f 517 1035 515
f 516 1038 518
f 519 1037 517
f 520 1038 1040
f 519 1040 1039
f 1 2 4
f 3 4 6
f 5 6 8
f 7 8 10
f 9 10 12
f 11 12 14
f 13 14 16
f 15 16 18
f 17 18 20
f 19 20 22
f 21 22 24
f 23 24 26
f 25 26 28
f 27 28 30
f 29 30 32
f 31 32 34
f 33 34 36
f 35 36 38
f 37 38 40
f 39 40 42
f 41 42 44
f 43 44 46
f 45 46 48
f 47 48 50
f 49 50 52
f 51 52 54
f 53 54 56
f 55 56 58
f 57 58 60
f 59 60 62
f 61 62 64
f 63 64 66
f 65 66 68
f 67 68 70
f 69 70 72
f 71 72 74
f 73 74 76
f 75 76 78
f 77 78 80
f 79 80 82
f 81 82 84
f 83 84 86
f 85 86 88
f 87 88 90
f 89 90 92
f 91 92 94
f 93 94 96
f 95 96 98
f 97 98 100
f 99 100 102
f 101 102 104
f 103 104 106
f 105 106 108
f 107 108 110
f 109 110 112
f 111 112 114
f 113 114 116
f 115 116 118
f 117 118 120
f 119 120 122
f 121 122 124
f 123 124 126
f 125 126 128
f 127 128 130
f 129 130 132
f 131 132 134
f 133 134 136
f 135 136 138
f 137 138 140
f 139 140 142
f 141 142 144
f 143 144 146
f 145 146 148
f 147 148 150
f 149 150 152
f 151 152 154
f 153 154 156
f 155 156 158
f 157 158 160
f 159 160 162
f 161 162 164
f 163 164 166
f 165 166 168
f 167 168 170
f 169 170 172
f 171 172 174
f 173 174 176
f 175 176 178
f 177 178 180
f 179 180 182
f 181 182 184
f 183 184 186
f 185 186 188
f 187 188 190
f 189 190 192
f 191 192 194
f 193 194 196
f 195 196 198
f 197 198 200
f 199 200 202
f 201 202 204
f 203 204 206
f 205 206 208
f 207 208 210
f 209 210 212
f 211 212 214
f 213 214 216
f 215 216 218
f 217 218 220
f 219 220 222
f 221 222 224
f 223 224 226
f 225 226 228
f 227 228 230
f 229 230 232
f 231 232 234
f 233 234 236
f 235 236 238
f 237 238 240
f 239 240 242
f 241 242 244
f 243 244 246
f 245 246 248
f 247 248 250
f 249 250 252
f 251 252 254
f 253 254 256
f 255 256 258
f 257 258 260
f 259 260 262
f 261 262 264
f 263 264 266
f 265 266 268
f 267 268 270
f 269 270 272
f 271 272 274
f 273 274 276
f 275 276 278
f 277 278 280
f 279 280 282
f 281 282 284
f 283 284 286
f 285 286 288
f 287 288 290
f 289 290 292
f 291 292 294
f 293 294 296
f 295 296 298
f 297 298 300
f 299 300 302
f 301 302 304
f 303 304 306
f 305 306 308
f 307 308 310
f 309 310 312
f 311 312 314
f 313 314 316
f 315 316 318
f 317 318 320
f 319 320 322
f 321 322 324
f 323 324 326
f 325 326 328
f 327 328 330
f 329 330 332
f 331 332 334
f 333 334 336
f 335 336 338
f 337 338 340
f 339 340 342
f 341 342 344
f 343 344 346
f 345 346 348
f 347 348 350
f 349 350 352
f 351 352 354
f 353 354 356
f 355 356 358
f 357 358 360
f 359 360 362
f 361 362 364
f 363 364 366
f 365 366 368
f 367 368 370
f 369 370 372
f 371 372 374
f 373 374 376
f 375 376 378
f 377 378 380
f 379 380 382
f 381 382 384
f 383 384 386
f 385 386 388
f 387 388 390
f 389 390 392
f 391 392 394
f 393 394 396
f 395 396 398
f 397 398 400
f 399 400 402
f 401 402 404
f 403 404 406
f 405 406 408
f 407 408 410
f 409 410 412
f 411 412 414
f 413 414 416
f 415 416 418
f 417 418 420
f 419 420 422
f 421 422 424
f 423 424 426
f 425 426 428
f 427 428 430
f 429 430 432
f 431 432 434
f 433 434 436
f 435 436 438
f 437 438 440
f 439 440 442
f 441 442 444
f 443 444 446
f 445 446 448
f 447 448 450
f 449 450 452
f 451 452 454
f 453 454 456
f 455 456 458
f 457 458 460
f 459 460 462
f 461 462 464
f 463 464 466
f 465 466 468
f 467 468 470
f 469 470 472
f 471 472 474
f 473 474 476
f 475 476 478
f 477 478 480
f 479 480 482
f 481 482 484
f 483 484 486
f 485 486 488
f 487 488 490
f 489 490 492
f 491 492 494
f 493 494 496
f 495 496 498
f 497 498 500
f 499 500 502
f 501 502 504
f 503 504 506
f 505 506 508
f 507 508 510
f 509 510 512
f 511 512 514
f 513 514 516
f 515 516 518
f 517 518 520
f 523 524 522
f 525 526 524
f 527 528 526
f 529 530 528
f 531 532 530
f 533 534 532
f 535 536 534
f 537 538 536
f 539 540 538
f 541 542 540
f 543 544 542
f 545 546 544
f 547 548 546
f 549 550 548
f 551 552 550
f 553 554 552
f 555 556 554
f 557 558 556
f 559 560 558
f 561 562 560
f 563 564 562
f 565 566 564
f 567 568 566
f 569 570 568
f 571 572 570
f 573 574 572
f 575 576 574
f 577 578 576
f 579 580 578
f 581 582 580
f 583 584 582
f 585 586 584
f 587 588 586
f 589 590 588
f 591 592 590
f 593 594 592
f 595 596 594
f 597 598 596
f 599 600 598
f 601 602 600
f 603 604 602
f 605 606 604
f 607 608 606
f 609 610 608
f 611 612 610
f 613 614 612
f 615 616 614
f 617 618 616
f 619 620 618
f 621 622 620
f 623 624 622
f 625 626 624
f 627 628 626
f 629 630 628
f 631 632 630
f 633 634 632
f 635 636 634
f 637 638 636
f 639 640 638
f 641 642 640
f 643 644 642
f 645 646 644
f 647 648 646
f 649 650 648
f 651 652 650
f 653 654 652
f 655 656 654
f 657 658 656
f 659 660 658
f 661 662 660
f 663 664 662
f 665 666 664
f 667 668 666
f 669 670 668
f 671 672 670
f 673 674 672
f 675 676 674
f 677 678 676
f 679 680 678
f 681 682 680
f 683 684 682
f 685 686 684
f 687 688 686
f 689 690 688
f 691 692 690
f 693 694 692
f 695 696 694
f 697 698 696
f 699 700 698
f 701 702 700
f 703 704 702
f 705 706 704
f 707 708 706
f 709 710 708
f 711 712 710
f 713 714 712
f 715 716 714
f 717 718 716
f 719 720 718
f 721 722 720
f 723 724 722
f 725 726 724
f 727 728 726
f 729 730 728
f 731 732 730
f 733 734 732
f 735 736 734
f 737 738 736
f 739 740 738
f 741 742 740
f 743 744 742
f 745 746 744
f 747 748 746
f 749 750 748
f 751 752 750
f 753 754 752
f 755 756 754
f 757 758 756
f 759 760 758
f 761 762 760
f 763 764 762
f 765 766 764
f 767 768 766
f 769 770 768
f 771 772 770
f 773 774 772
f 775 776 774
f 777 778 776
f 779 780 778
f 781 782 780
f 783 784 782
f 785 786 784
f 787 788 786
f 789 790 788
f 791 792 790
f 793 794 792
f 795 796 794
f 797 798 796
f 799 800 798
f 801 802 800
f 803 804 802
f 805 806 804
f 807 808 806
f 809 810 808
f 811 812 810
f 813 814 812
f 815 816 814
f 817 818 816
f 819 820 818
f 821 822 820
f 823 824 822
f 825 826 824
f 827 828 826
f 829 830 828
f 831 832 830
f 833 834 832
f 835 836 834
f 837 838 836
f 839 840 838
f 841 842 840
f 843 844 842
f 845 846 844
f 847 848 846
f 849 850 848
f 851 852 850
f 853 854 852
f 855 856 854
f 857 858 856
f 859 860 858
f 861 862 860
f 863 864 862
f 865 866 864
f 867 868 866
f 869 870 868
f 871 872 870
f 873 874 872
f 875 876 874
f 877 878 876
f 879 880 878
f 881 882 880
f 883 884 882
f 885 886 884
f 887 888 886
f 889 890 888
f 891 892 890
f 893 894 892
f 895 896 894
f 897 898 896
f 899 900 898
f 901 902 900
f 903 904 902
f 905 906 904
f 907 908 906
f 909 910 908
f 911 912 910
f 913 914 912
f 915 916 914
f 917 918 916
f 919 920 918
f 921 922 920
f 923 924 922
f 925 926 924
f 927 928 926
f 929 930 928
f 931 932 930
f 933 934 932
f 935 936 934
f 937 938 936
f 939 940 938
f 941 942 940
f 943 944 942
f 945 946 944
f 947 948 946
f 949 950 948
f 951 952 950
f 953 954 952
f 955 956 954
f 957 958 956
f 959 960 958
f 961 962 960
f 963 964 962
f 965 966 964
f 967 968 966
f 969 970 968
f 971 972 970
f 973 974 972
f 975 976 974
f 977 978 976
f 979 980 978
f 981 982 980
f 983 984 982
f 985 986 984
f 987 988 986
f 989 990 988
f 991 992 990
f 993 994 992
f 995 996 994
f 997 998 996
f 999 1000 998
f 1001 1002 1000
f 1003 1004 1002
f 1005 1006 1004
f 1007 1008 1006
f 1009 1010 1008
f 1011 1012 1010
f 1013 1014 1012
f 1015 1016 1014
f 1017 1018 1016
f 1019 1020 1018
f 1021 1022 1020
f 1023 1024 1022
f 1025 1026 1024
f 1027 1028 1026
f 1029 1030 1028
f 1031 1032 1030
f 1033 1034 1032
f 1035 1036 1034
f 1037 1038 1036
f 1037 1039 1040
f 3 523 521
f 2 1 521
f 2 522 524
f 5 525 523
f 4 524 526
f 7 527 525
f 6 526 528
f 9 529 527
f 8 528 530
f 11 531 529
f 10 530 532
f 13 533 531
f 12 532 534
f 15 535 533
f 14 534 536
f 17 537 535
f 16 536 538
f 19 539 537
f 18 538 540
f 21 541 539
f 20 540 542
f 23 543 541
f 22 542 544
f 25 545 543
f 24 544 546
f 27 547 545
f 26 546 548
f 29 549 547
f 28 548 550
f 31 551 549
f 30 550 552
f 33 553 551
f 32 552 554
f 35 555 553
f 34 554 556
f 37 557 555
f 36 556 558
f 39 559 557
f 38 558 560
f 41 561 559
f 40 560 562
f 43 563 561
f 42 562 564
f 45 565 563
f 44 564 566
f 47 567 565
f 46 566 568
f 49 569 567
f 48 568 570
f 51 571 569
f 50 570 572
f 53 573 571
f 52 572 574
f 55 575 573
f 54 574 576
f 57 577 575
f 56 576 578
f 59 579 577
f 58 578 580
f 61 581 579
f 60 580 582
f 63 583 581
f 62 582 584
f 65 585 583
f 64 584 586
f 67 587 585
f 66 586 588
f 69 589 587
f 68 588 590
f 71 591 589
f 70 590 592
f 73 593 591
f 72 592 594
f 75 595 593
f 74 594 596
f 77 597 595
f 76 596 598
f 79 599 597
f 78 598 600
f 81 601 599
f 80 600 602
f 83 603 601
f 82 602 604
f 85 605 603
f 84 604 606
f 87 607 605
f 86 606 608
f 89 609 607
f 88 608 610
f 91 611 609
f 90 610 612
f 93 613 611
f 92 612 614
f 95 615 613
f 94 614 616
f 97 617 615
f 96 616 618
f 99 619 617
f 98 618 620
f 101 621 619
f 100 620 622
f 103 623 621
f 102 622 624
f 105 625 623
f 104 624 626
f 107 627 625
f 106 626 628
f 109 629 627
f 108 628 630
f 111 631 629
f 110 630 632
f 113 633 631
f 112 632 634
f 115 635 633
f 114 634 636
f 117 637 635
f 116 636 638
f 119 639 637
f 118 638 640
f 121 641 639
f 120 640 642
f 123 643 641
f 122 642 644
f 125 645 643
f 124 644 646
f 127 647 645
f 126 646 648
f 129 649 647
f 128 648 650
f 131 651 649
f 130 650 652
f 133 653 651
f 132 652 654
f 135 655 653
f 134 654 656
f 137 657 655
f 136 656 658
f 139 659 657
f 138 658 660
f 141 661 659
f 140 660 662
f 143 663 661
f 142 662 664
f 145 665 663
f 144 664 666
f 147 667 665
f 146 666 668
f 149 669 667
f 148 668 670
f 151 671 669
f 150 670 672
f 153 673 671
f 152 672 674
f 155 675 673
f 154 674 676
f 157 677 675
f 156 676 678
f 159 679 677
f 158 678 680
f 161 681 679
f 160 680 682
f 163 683 681
f 162 682 684
f 165 685 683
f 164 684 686
f 167 687 685
f 166 686 688
f 169 689 687
f 168 688 690
f 171 691 689
f 170 690 692
f 173 693 691
f 172 692 694
f 175 695 693
f 174 694 696
f 177 697 695
f 176 696 698
f 179 699 697
f 178 698 700
f 181 701 699
f 180 700 702
f 183 703 701
f 182 702 704
f 185 705 703
f 184 704 706
f 187 707 705
f 186 706 708
f 189 709 707
f 188 708 710
f 191 711 709
f 190 710 712
f 193 713 711
f 192 712 714
f 195 715 713
f 194 714 716
f 197 717 715
f 196 716 718
f 199 719 717
f 198 718 720
f 201 721 719
f 200 720 722
f 203 723 721
f 202 722 724
f 205 725 723
f 204 724 726
f 207 727 725
f 206 726 728
f 209 729 727
f 208 728 730
f 211 731 729
f 210 730 732
f 213 733 731
f 212 732 734
f 215 735 733
f 214 734 736
f 217 737 735
f 216 736 738
f 219 739 737
f 218 738 740
f 221 741 739
f 220 740 742
f 223 743 741
f 222 742 744
f 225 745 743
f 224 744 746
f 227 747 745
f 226 746 748
f 229 749 747
f 228 748 750
f 231 751 749
f 230 750 752
f 233 753 751
f 232 752 754
f 235 755 753
f 234 754 756
f 237 757 755
f 236 756 758
f 239 759 757
f 238 758 760
f 241 761 759
f 240 760 762
f 243 763 761
f 242 762 764
f 245 765 763
f 244 764 766
f 247 767 765
f 246 766 768
f 249 769 767
f 248 768 770
f 251 771 769
f 250 770 772
f 253 773 771
f 252 772 774
f 255 775 773
f 254 774 776
f 257 777 775
f 256 776 778
f 259 779 777
f 258 778 780
f 261 781 779
f 260 780 782
f 263 783 781
f 262 782 784
f 265 785 783
f 264 784 786
f 267 787 785
f 266 786 788
f 269 789 787
f 268 788 790
f 271 791 789
f 270 790 792
f 273 793 791
f 272 792 794
f 275 795 793
f 274 794 796
f 277 797 795
f 276 796 798
f 279 799 797
f 278 798 800
f 281 801 799
f 280 800 802
f 283 803 801
f 282 802 804
f 285 805 803
f 284 804 806
f 287 807 805
f 286 806 808
f 289 809 807
f 288 808 810
f 291 811 809
f 290 810 812
f 293 813 811
f 292 812 814
f 295 815 813
f 294 814 816
f 297 817 815
f 296 816 818
f 299 819 817
f 298 818 820
f 301 821 819
f 300 820 822
f 303 823 821
f 302 822 824
f 305 825 823
f 304 824 826
f 307 827 825
f 306 826 828
f 309 829 827
f 308 828 830
f 311 831 829
f 310 830 832
f 313 833 831
f 312 832 834
f 315 835 833
f 314 834 836
f 317 837 835
f 316 836 838
f 319 839 837
f 318 838 840
f 321 841 839
f 320 840 842
f 323 843 841
f 322 842 844
f 325 845 843
f 324 844 846
f 327 847 845
f 326 846 848
f 329 849 847
f 328 848 850
f 331 851 849
f 330 850 852
f 333 853 851
f 332 852 854
f 335 855 853
f 334 854 856
f 337 857 855
f 336 856 858
f 339 859 857
f 338 858 860
f 341 861 859
f 340 860 862
f 343 863 861
f 342 862 864
f 345 865 863
f 344 864 866
f 347 867 865
f 346 866 868
f 349 869 867
f 348 868 870
f 351 871 869
f 350 870 872
f 353 873 871
f 352 872 874
f 355 875 873
f 354 874 876
f 357 877 875
f 356 876 878
f 359 879 877
f 358 878 880
f 361 881 879
f 360 880 882
f 363 883 881
f 362 882 884
f 365 885 883
f 364 884 886
f 367 887 885
f 366 886 888
f 369 889 887
f 368 888 890
f 371 891 889
f 370 890 892
f 373 893 891
f 372 892 894
f 375 895 893
f 374 894 896
f 377 897 895
f 376 896 898
f 379 899 897
f 378 898 900
f 381 901 899
f 380 900 902
f 383 903 901
f 382 902 904
f 385 905 903
f 384 904 906
f 387 907 905
f 386 906 908
f 389 909 907
f 388 908 910
f 391 911 909
f 390 910 912
f 393 913 911
f 392 912 914
f 395 915 913
f 394 914 916
f 397 917 915
f 396 916 918
f 399 919 917
f 398 918 920
f 401 921 919
f 400 920 922
f 403 923 921
f 402 922 924
f 405 925 923
f 404 924 926
f 407 927 925
f 406 926 928
f 409 929 927
f 408 928 930
f 411 931 929
f 410 930 932
f 413 933 931
f 412 932 934
f 415 935 933
f 414 934 936
f 417 937 935
f 416 936 938
f 419 939 937
f 418 938 940
f 421 941 939
f 420 940 942
f 423 943 941
f 422 942 944
f 425 945 943
f 424 944 946
f 427 947 945
f 426 946 948
f 429 949 947
f 428 948 950
f 431 951 949
f 430 950 952
f 433 953 951
f 432 952 954
f 435 955 953
f 434 954 956
f 437 957 955
f 436 956 958
f 439 959 957
f 438 958 960
f 441 961 959
f 440 960 962
f 443 963 961
f 442 962 964
f 445 965 963
f 444 964 966
f 447 967 965
f 446 966 968
f 449 969 967
f 448 968 970
f 451 971 969
f 450 970 972
f 453 973 971
f 452 972 974
f 455 975 973
f 454 974 976
f 457 977 975
f 456 976 978
f 459 979 977
f 458 978 980
f 461 981 979
f 460 980 982
f 463 983 981
f 462 982 984
f 465 985 983
f 464 984 986
f 467 987 985
f 466 986 988
f 469 989 987
f 468 988 990
f 471 991 989
f 470 990 992
f 473 993 991
f 472 992 994
f 475 995 993
f 474 994 996
f 477 997 995
f 476 996 998
f 479 999 997
f 478 998 1000
f 481 1001 999
f 480 1000 1002
f 483 1003 1001
f 482 1002 1004
f 485 1005 1003
f 484 1004 1006
f 487 1007 1005
f 486 1006 1008
f 489 1009 1007
f 488 1008 1010
f 491 1011 1009
f 490 1010 1012
f 493 1013 1011
f 492 1012 1014
f 495 1015 1013
f 494 1014 1016
f 497 1017 1015
f 496 1016 1018
f 499 1019 1017
f 498 1018 1020
f 501 1021 1019
f 500 1020 1022
f 503 1023 1021
f 502 1022 1024
f 505 1025 1023
f 504 1024 1026
f 507 1027 1025
f 506 1026 1028
f 509 1029 1027
f 508 1028 1030
f 511 1031 1029
f 510 1030 1032
f 513 1033 1031
f 512 1032 1034
f 515 1035 1033
f 514 1034 1036
f 517 1037 1035
f 516 1036 1038
f 519 1039 1037
f 520 518 1038
f 519 520 1040
