# kraken Tentacle2_4_Core.obj: Roblox cue frame, recentred on its bounding box
v 0.23445 0.09243 -0.25183
v 0.22633 0.08849 -0.25974
v 0.22549 0.07898 -0.26699
v 0.23240 0.06948 -0.26935
v 0.24303 0.06554 -0.26543
v 0.25114 0.06948 -0.25753
v 0.25199 0.07898 -0.25027
v 0.24507 0.08849 -0.24791
v 0.20932 0.06347 -0.21201
v 0.20161 0.05976 -0.21965
v 0.20072 0.05058 -0.22647
v 0.20717 0.04131 -0.22847
v 0.21718 0.03738 -0.22449
v 0.22489 0.04109 -0.21685
v 0.22579 0.05026 -0.21003
v 0.21934 0.05954 -0.20802
v 0.18168 0.03695 -0.17241
v 0.17442 0.03352 -0.17984
v 0.17339 0.02461 -0.18611
v 0.17920 0.01545 -0.18755
v 0.18844 0.01140 -0.18331
v 0.19570 0.01484 -0.17588
v 0.19672 0.02375 -0.16961
v 0.19092 0.03290 -0.16818
v 0.15147 0.01281 -0.13279
v 0.14465 0.00962 -0.13996
v 0.14348 0.00102 -0.14568
v 0.14864 -0.00796 -0.14659
v 0.15711 -0.01205 -0.14217
v 0.16393 -0.00886 -0.13500
v 0.16510 -0.00026 -0.12928
v 0.15994 0.00872 -0.12836
v 0.11885 -0.00880 -0.09313
v 0.11246 -0.01176 -0.10000
v 0.11115 -0.02003 -0.10517
v 0.11567 -0.02876 -0.10561
v 0.12339 -0.03283 -0.10106
v 0.12977 -0.02986 -0.09419
v 0.13109 -0.02160 -0.08902
v 0.12656 -0.01287 -0.08858
v 0.08401 -0.02771 -0.05343
v 0.07804 -0.03047 -0.05996
v 0.07658 -0.03836 -0.06459
v 0.08049 -0.04677 -0.06460
v 0.08746 -0.05076 -0.05999
v 0.09343 -0.04800 -0.05346
v 0.09489 -0.04011 -0.04883
v 0.09098 -0.03170 -0.04882
v 0.04714 -0.04377 -0.01368
v 0.04159 -0.04633 -0.01983
v 0.03999 -0.05381 -0.02393
v 0.04329 -0.06183 -0.02357
v 0.04956 -0.06568 -0.01897
v 0.05511 -0.06312 -0.01282
v 0.05670 -0.05564 -0.00872
v 0.05340 -0.04762 -0.00908
v 0.00847 -0.05683 0.02611
v 0.00331 -0.05920 0.02038
v 0.00160 -0.06622 0.01681
v 0.00433 -0.07378 0.01748
v 0.00990 -0.07744 0.02201
v 0.01505 -0.07507 0.02774
v 0.01676 -0.06805 0.03131
v 0.01404 -0.06049 0.03064
v -0.03180 -0.06675 0.06595
v -0.03655 -0.06893 0.06068
v -0.03836 -0.07544 0.05761
v -0.03617 -0.08247 0.05855
v -0.03126 -0.08590 0.06294
v -0.02651 -0.08372 0.06821
v -0.02470 -0.07721 0.07127
v -0.02689 -0.07018 0.07034
v -0.07342 -0.07342 0.10585
v -0.07776 -0.07540 0.10108
v -0.07963 -0.08135 0.09850
v -0.07793 -0.08779 0.09963
v -0.07366 -0.09093 0.10381
v -0.06932 -0.08895 0.10858
v -0.06745 -0.08300 0.11116
v -0.06915 -0.07656 0.11003
v -0.11615 -0.07673 0.14582
v -0.12006 -0.07850 0.14158
v -0.12194 -0.08384 0.13947
v -0.12069 -0.08960 0.14073
v -0.11704 -0.09243 0.14461
v -0.11313 -0.09066 0.14885
v -0.11124 -0.08533 0.15096
v -0.11250 -0.07956 0.14970
v -0.15974 -0.07663 0.18585
v -0.16319 -0.07817 0.18220
v -0.16502 -0.08281 0.18054
v -0.16416 -0.08782 0.18184
v -0.16111 -0.09028 0.18534
v -0.15766 -0.08874 0.18900
v -0.15583 -0.08410 0.19066
v -0.15669 -0.07909 0.18936
v -0.20395 -0.07309 0.22597
v -0.20686 -0.07436 0.22297
v -0.20855 -0.07819 0.22174
v -0.20802 -0.08234 0.22299
v -0.20559 -0.08438 0.22600
v -0.20268 -0.08310 0.22899
v -0.20100 -0.07927 0.23023
v -0.20152 -0.07512 0.22897
v -0.24869 -0.06642 0.26628
v -0.25075 -0.06731 0.26419
v -0.25199 -0.06999 0.26338
v -0.25168 -0.07288 0.26432
v -0.25001 -0.07431 0.26646
v -0.24796 -0.07342 0.26854
v -0.24672 -0.07074 0.26935
v -0.24702 -0.06784 0.26842
v 0.23874 0.07898 -0.25863
v -0.24935 -0.07036 0.26637
f 1 10 9
f 3 10 2
f 4 11 3
f 5 12 4
f 6 13 5
f 6 15 14
f 7 16 15
f 8 9 16
f 10 17 9
f 11 18 10
f 11 20 19
f 12 21 20
f 13 22 21
f 14 23 22
f 15 24 23
f 9 24 16
f 18 25 17
f 19 26 18
f 19 28 27
f 20 29 28
f 21 30 29
f 22 31 30
f 23 32 31
f 17 32 24
f 26 33 25
f 27 34 26
f 27 36 35
f 28 37 36
f 29 38 37
f 30 39 38
f 31 40 39
f 25 40 32
f 34 41 33
f 35 42 34
f 35 44 43
f 36 45 44
f 37 46 45
f 38 47 46
f 39 48 47
f 33 48 40
f 42 49 41
f 43 50 42
f 43 52 51
f 44 53 52
f 45 54 53
f 46 55 54
f 47 56 55
f 41 56 48
f 50 57 49
f 51 58 50
f 51 60 59
f 52 61 60
f 53 62 61
f 54 63 62
f 55 64 63
f 49 64 56
f 58 65 57
f 59 66 58
f 59 68 67
f 60 69 68
f 61 70 69
f 62 71 70
f 63 72 71
f 57 72 64
f 66 73 65
f 67 74 66
f 67 76 75
f 68 77 76
f 69 78 77
f 70 79 78
f 71 80 79
f 65 80 72
f 74 81 73
f 75 82 74
f 75 84 83
f 76 85 84
f 77 86 85
f 78 87 86
f 79 88 87
f 73 88 80
f 82 89 81
f 83 90 82
f 83 92 91
f 84 93 92
f 85 94 93
f 86 95 94
f 87 96 95
f 81 96 88
f 90 97 89
f 91 98 90
f 91 100 99
f 92 101 100
f 93 102 101
f 94 103 102
f 96 103 95
f 89 104 96
f 97 106 105
f 98 107 106
f 99 108 107
f 100 109 108
f 102 109 101
f 103 110 102
f 104 111 103
f 97 112 104
f 113 2 1
f 113 3 2
f 113 4 3
f 113 5 4
f 113 6 5
f 113 7 6
f 113 8 7
f 113 1 8
f 105 106 114
f 106 107 114
f 107 108 114
f 108 109 114
f 109 110 114
f 110 111 114
f 111 112 114
f 112 105 114
f 1 2 10
f 3 11 10
f 4 12 11
f 5 13 12
f 6 14 13
f 6 7 15
f 7 8 16
f 8 1 9
f 10 18 17
f 11 19 18
f 11 12 20
f 12 13 21
f 13 14 22
f 14 15 23
f 15 16 24
f 9 17 24
f 18 26 25
f 19 27 26
f 19 20 28
f 20 21 29
f 21 22 30
f 22 23 31
f 23 24 32
f 17 25 32
f 26 34 33
f 27 35 34
f 27 28 36
f 28 29 37
f 29 30 38
f 30 31 39
f 31 32 40
f 25 33 40
f 34 42 41
f 35 43 42
f 35 36 44
f 36 37 45
f 37 38 46
f 38 39 47
f 39 40 48
f 33 41 48
f 42 50 49
f 43 51 50
f 43 44 52
f 44 45 53
f 45 46 54
f 46 47 55
f 47 48 56
f 41 49 56
f 50 58 57
f 51 59 58
f 51 52 60
f 52 53 61
f 53 54 62
f 54 55 63
f 55 56 64
f 49 57 64
f 58 66 65
f 59 67 66
f 59 60 68
f 60 61 69
f 61 62 70
f 62 63 71
f 63 64 72
f 57 65 72
f 66 74 73
f 67 75 74
f 67 68 76
f 68 69 77
f 69 70 78
f 70 71 79
f 71 72 80
f 65 73 80
f 74 82 81
f 75 83 82
f 75 76 84
f 76 77 85
f 77 78 86
f 78 79 87
f 79 80 88
f 73 81 88
f 82 90 89
f 83 91 90
f 83 84 92
f 84 85 93
f 85 86 94
f 86 87 95
f 87 88 96
f 81 89 96
f 90 98 97
f 91 99 98
f 91 92 100
f 92 93 101
f 93 94 102
f 94 95 103
f 96 104 103
f 89 97 104
f 97 98 106
f 98 99 107
f 99 100 108
f 100 101 109
f 102 110 109
f 103 111 110
f 104 112 111
f 97 105 112
