# kraken Tentacle2_2_Ink.obj: Roblox cue frame, recentred on its bounding box
v -0.11486 0.08043 -0.30371
v -0.14299 0.07247 -0.29303
v -0.16279 0.05074 -0.28282
v -0.16895 0.02105 -0.27582
v -0.15982 -0.00864 -0.27389
v -0.13785 -0.03038 -0.27756
v -0.10892 -0.03833 -0.28584
v -0.08079 -0.03038 -0.29652
v -0.06100 -0.00864 -0.30673
v -0.05484 0.02105 -0.31374
v -0.06396 0.05074 -0.31567
v -0.08594 0.07247 -0.31200
v -0.09946 0.08699 -0.25740
v -0.12697 0.07923 -0.24670
v -0.14641 0.05790 -0.23676
v -0.15258 0.02872 -0.23025
v -0.14381 -0.00048 -0.22891
v -0.12247 -0.02190 -0.23310
v -0.09426 -0.02978 -0.24169
v -0.06675 -0.02201 -0.25240
v -0.04731 -0.00069 -0.26233
v -0.04114 0.02849 -0.26885
v -0.04990 0.05769 -0.27019
v -0.07125 0.07911 -0.26600
v -0.08237 0.09209 -0.21014
v -0.10920 0.08454 -0.19924
v -0.12834 0.06362 -0.18971
v -0.13467 0.03492 -0.18409
v -0.12650 0.00614 -0.18389
v -0.10600 -0.01501 -0.18916
v -0.07869 -0.02287 -0.19849
v -0.05186 -0.01532 -0.20939
v -0.03272 0.00560 -0.21892
v -0.02638 0.03430 -0.22454
v -0.03456 0.06308 -0.22474
v -0.05505 0.08423 -0.21947
v -0.06400 0.09535 -0.16275
v -0.09017 0.08800 -0.15178
v -0.10906 0.06748 -0.14277
v -0.11561 0.03929 -0.13813
v -0.10806 0.01098 -0.13910
v -0.08845 -0.00986 -0.14543
v -0.06201 -0.01764 -0.15542
v -0.03585 -0.01029 -0.16639
v -0.01696 0.01023 -0.17540
v -0.01041 0.03842 -0.18004
v -0.01795 0.06672 -0.17907
v -0.03757 0.08756 -0.17274
v -0.04449 0.09654 -0.11526
v -0.07004 0.08936 -0.10434
v -0.08873 0.06926 -0.09597
v -0.09555 0.04161 -0.09239
v -0.08867 0.01384 -0.09456
v -0.06994 -0.00663 -0.10190
v -0.04438 -0.01430 -0.11244
v -0.01883 -0.00713 -0.12337
v -0.00014 0.01298 -0.13174
v 0.00668 0.04062 -0.13532
v -0.00020 0.06840 -0.13315
v -0.01893 0.08886 -0.12581
v -0.02404 0.09542 -0.06769
v -0.04901 0.08840 -0.05695
v -0.06755 0.06874 -0.04934
v -0.07469 0.04169 -0.04689
v -0.06851 0.01451 -0.05027
v -0.05067 -0.00552 -0.05856
v -0.02595 -0.01304 -0.06955
v -0.00097 -0.00602 -0.08030
v 0.01757 0.01364 -0.08791
v 0.02470 0.04069 -0.09036
v 0.01852 0.06787 -0.08698
v 0.00068 0.08790 -0.07869
v -0.00288 0.09176 -0.02007
v -0.02733 0.08492 -0.00964
v -0.04578 0.06573 -0.00290
v -0.05327 0.03935 -0.00165
v -0.04780 0.01284 -0.00622
v -0.03083 -0.00670 -0.01540
v -0.00691 -0.01403 -0.02671
v 0.01754 -0.00718 -0.03714
v 0.03599 0.01201 -0.04388
v 0.04348 0.03839 -0.04513
v 0.03801 0.06490 -0.04056
v 0.02104 0.08444 -0.03139
v 0.01870 0.08537 0.02757
v -0.00530 0.07871 0.03754
v -0.02369 0.06005 0.04330
v -0.03156 0.03441 0.04331
v -0.02680 0.00865 0.03757
v -0.01067 -0.01034 0.02761
v 0.01249 -0.01745 0.01610
v 0.03649 -0.01079 0.00613
v 0.05489 0.00787 0.00037
v 0.06276 0.03351 0.00036
v 0.05799 0.05928 0.00611
v 0.04186 0.07826 0.01607
v 0.04036 0.07606 0.07520
v 0.01677 0.06962 0.08457
v -0.00162 0.05156 0.08926
v -0.00988 0.02674 0.08799
v -0.00580 0.00180 0.08112
v 0.00953 -0.01657 0.07049
v 0.03201 -0.02346 0.05894
v 0.05560 -0.01702 0.04957
v 0.07398 0.00103 0.04488
v 0.08224 0.02585 0.04614
v 0.07816 0.05079 0.05301
v 0.06283 0.06917 0.06365
v 0.06171 0.06369 0.12277
v 0.03848 0.05752 0.13141
v 0.02007 0.04015 0.13493
v 0.01144 0.01625 0.13239
v 0.01488 -0.00780 0.12446
v 0.02947 -0.02553 0.11327
v 0.05132 -0.03220 0.10183
v 0.07455 -0.02603 0.09319
v 0.09296 -0.00866 0.08967
v 0.10159 0.01525 0.09221
v 0.09815 0.03929 0.10014
v 0.08355 0.05702 0.11132
v 0.08235 0.04819 0.17024
v 0.05943 0.04235 0.17802
v 0.04101 0.02576 0.18031
v 0.03202 0.00286 0.17649
v 0.03488 -0.02022 0.16760
v 0.04881 -0.03729 0.15600
v 0.07009 -0.04378 0.14482
v 0.09301 -0.03794 0.13704
v 0.11143 -0.02135 0.13475
v 0.12042 0.00155 0.13857
v 0.11756 0.02463 0.14746
v 0.10363 0.04170 0.15906
v 0.10181 0.02951 0.21757
v 0.07918 0.02410 0.22437
v 0.06076 0.00838 0.22538
v 0.05147 -0.01344 0.22033
v 0.05382 -0.03551 0.21057
v 0.06717 -0.05192 0.19872
v 0.08795 -0.05826 0.18795
v 0.11058 -0.05285 0.18115
v 0.12900 -0.03712 0.18014
v 0.13829 -0.01530 0.18519
v 0.13594 0.00676 0.19495
v 0.12259 0.02317 0.20680
v 0.11963 0.00771 0.26472
v 0.09729 0.00281 0.27044
v 0.07890 -0.01195 0.27014
v 0.06939 -0.03261 0.26391
v 0.07132 -0.05364 0.25341
v 0.08416 -0.06940 0.24146
v 0.10448 -0.07567 0.23126
v 0.12682 -0.07077 0.22555
v 0.14521 -0.05602 0.22584
v 0.15472 -0.03535 0.23207
v 0.15279 -0.01432 0.24257
v 0.13995 0.00144 0.25452
v 0.13501 -0.01658 0.31057
v 0.11314 -0.02112 0.31567
v 0.09506 -0.03516 0.31474
v 0.08561 -0.05494 0.30806
v 0.08732 -0.07514 0.29739
v 0.09974 -0.09037 0.28561
v 0.11954 -0.09654 0.27587
v 0.14141 -0.09199 0.27078
v 0.15950 -0.07795 0.27170
v 0.16895 -0.05818 0.27839
v 0.16723 -0.03798 0.28905
v 0.15481 -0.02275 0.30083
v -0.11189 0.02105 -0.29478
v 0.12728 -0.05656 0.29322
f 2 13 1
f 2 15 14
f 3 16 15
f 4 17 16
f 5 18 17
f 6 19 18
f 7 20 19
f 9 20 8
f 10 21 9
f 11 22 10
f 12 23 11
f 1 24 12
f 13 26 25
f 14 27 26
f 15 28 27
f 16 29 28
f 17 30 29
f 18 31 30
f 20 31 19
f 21 32 20
f 22 33 21
f 23 34 22
f 23 36 35
f 24 25 36
f 25 38 37
f 26 39 38
f 27 40 39
f 28 41 40
f 29 42 41
f 30 43 42
f 32 43 31
f 33 44 32
f 34 45 33
f 35 46 34
f 35 48 47
f 36 37 48
f 37 50 49
f 38 51 50
f 39 52 51
f 40 53 52
f 41 54 53
f 43 54 42
f 44 55 43
f 45 56 44
f 46 57 45
f 47 58 46
f 47 60 59
f 48 49 60
f 49 62 61
f 50 63 62
f 51 64 63
f 52 65 64
f 53 66 65
f 55 66 54
f 56 67 55
f 57 68 56
f 58 69 57
f 59 70 58
f 59 72 71
f 60 61 72
f 61 74 73
f 62 75 74
f 63 76 75
f 64 77 76
f 65 78 77
f 67 78 66
f 68 79 67
f 69 80 68
f 70 81 69
f 71 82 70
f 71 84 83
f 72 73 84
f 73 86 85
f 74 87 86
f 75 88 87
f 76 89 88
f 78 89 77
f 79 90 78
f 80 91 79
f 81 92 80
f 82 93 81
f 83 94 82
f 83 96 95
f 84 85 96
f 85 98 97
f 86 99 98
f 87 100 99
f 88 101 100
f 90 101 89
f 91 102 90
f 92 103 91
f 93 104 92
f 94 105 93
f 95 106 94
f 95 108 107
f 96 97 108
f 97 110 109
f 98 111 110
f 99 112 111
f 101 112 100
f 102 113 101
f 103 114 102
f 104 115 103
f 105 116 104
f 106 117 105
f 107 118 106
f 107 120 119
f 108 109 120
f 109 122 121
f 110 123 122
f 111 124 123
f 113 124 112
f 114 125 113
f 115 126 114
f 116 127 115
f 117 128 116
f 118 129 117
f 119 130 118
f 119 132 131
f 120 121 132
f 121 134 133
f 122 135 134
f 123 136 135
f 125 136 124
f 126 137 125
f 127 138 126
f 128 139 127
f 129 140 128
f 130 141 129
f 131 142 130
f 131 144 143
f 132 133 144
f 133 146 145
f 134 147 146
f 136 147 135
f 137 148 136
f 138 149 137
f 139 150 138
f 140 151 139
f 141 152 140
f 142 153 141
f 143 154 142
f 143 156 155
f 144 145 156
f 146 157 145
f 147 158 146
f 148 159 147
f 149 160 148
f 150 161 149
f 150 163 162
f 151 164 163
f 152 165 164
f 153 166 165
f 154 167 166
f 155 168 167
f 145 168 156
f 169 2 1
f 169 3 2
f 169 4 3
f 169 5 4
f 169 6 5
f 169 7 6
f 169 8 7
f 169 9 8
f 169 10 9
f 169 11 10
f 169 12 11
f 169 1 12
f 157 158 170
f 158 159 170
f 159 160 170
f 160 161 170
f 161 162 170
f 162 163 170
f 163 164 170
f 164 165 170
f 165 166 170
f 166 167 170
f 167 168 170
f 168 157 170
f 2 14 13
f 2 3 15
f 3 4 16
f 4 5 17
f 5 6 18
f 6 7 19
f 7 8 20
f 9 21 20
f 10 22 21
f 11 23 22
f 12 24 23
f 1 13 24
f 13 14 26
f 14 15 27
f 15 16 28
f 16 17 29
f 17 18 30
f 18 19 31
f 20 32 31
f 21 33 32
f 22 34 33
f 23 35 34
f 23 24 36
f 24 13 25
f 25 26 38
f 26 27 39
f 27 28 40
f 28 29 41
f 29 30 42
f 30 31 43
f 32 44 43
f 33 45 44
f 34 46 45
f 35 47 46
f 35 36 48
f 36 25 37
f 37 38 50
f 38 39 51
f 39 40 52
f 40 41 53
f 41 42 54
f 43 55 54
f 44 56 55
f 45 57 56
f 46 58 57
f 47 59 58
f 47 48 60
f 48 37 49
f 49 50 62
f 50 51 63
f 51 52 64
f 52 53 65
f 53 54 66
f 55 67 66
f 56 68 67
f 57 69 68
f 58 70 69
f 59 71 70
f 59 60 72
f 60 49 61
f 61 62 74
f 62 63 75
f 63 64 76
f 64 65 77
f 65 66 78
f 67 79 78
f 68 80 79
f 69 81 80
f 70 82 81
f 71 83 82
f 71 72 84
f 72 61 73
f 73 74 86
f 74 75 87
f 75 76 88
f 76 77 89
f 78 90 89
f 79 91 90
f 80 92 91
f 81 93 92
f 82 94 93
f 83 95 94
f 83 84 96
f 84 73 85
f 85 86 98
f 86 87 99
f 87 88 100
f 88 89 101
f 90 102 101
f 91 103 102
f 92 104 103
f 93 105 104
f 94 106 105
f 95 107 106
f 95 96 108
f 96 85 97
f 97 98 110
f 98 99 111
f 99 100 112
f 101 113 112
f 102 114 113
f 103 115 114
f 104 116 115
f 105 117 116
f 106 118 117
f 107 119 118
f 107 108 120
f 108 97 109
f 109 110 122
f 110 111 123
f 111 112 124
f 113 125 124
f 114 126 125
f 115 127 126
f 116 128 127
f 117 129 128
f 118 130 129
f 119 131 130
f 119 120 132
f 120 109 121
f 121 122 134
f 122 123 135
f 123 124 136
f 125 137 136
f 126 138 137
f 127 139 138
f 128 140 139
f 129 141 140
f 130 142 141
f 131 143 142
f 131 132 144
f 132 121 133
f 133 134 146
f 134 135 147
f 136 148 147
f 137 149 148
f 138 150 149
f 139 151 150
f 140 152 151
f 141 153 152
f 142 154 153
f 143 155 154
f 143 144 156
f 144 133 145
f 146 158 157
f 147 159 158
f 148 160 159
f 149 161 160
f 150 162 161
f 150 151 163
f 151 152 164
f 152 153 165
f 153 154 166
f 154 155 167
f 155 156 168
f 145 157 168
