# kraken Tentacle3_3_Sucker.obj: Roblox cue frame, recentred on its bounding box
v -0.06915 0.13236 -0.15937
v -0.06915 0.12148 -0.16312
v -0.08215 0.12956 -0.15622
v -0.07955 0.11923 -0.16059
v -0.09018 0.12222 -0.14795
v -0.08597 0.11336 -0.15399
v -0.09018 0.11315 -0.13774
v -0.08598 0.10611 -0.14581
v -0.08216 0.10581 -0.12947
v -0.07955 0.10024 -0.13920
v -0.06917 0.10301 -0.12631
v -0.06916 0.09800 -0.13667
v -0.05617 0.10581 -0.12946
v -0.05877 0.10024 -0.13919
v -0.04814 0.11315 -0.13772
v -0.05234 0.10611 -0.14580
v -0.04813 0.12222 -0.14794
v -0.05234 0.11336 -0.15397
v -0.05616 0.12956 -0.15620
v -0.05876 0.11923 -0.16059
v -0.05454 0.04712 -0.05634
v -0.05266 0.03773 -0.06073
v -0.06646 0.04418 -0.05873
v -0.06219 0.03538 -0.06264
v -0.07581 0.03648 -0.05561
v -0.06967 0.02922 -0.06014
v -0.07901 0.02696 -0.04815
v -0.07223 0.02160 -0.05418
v -0.07485 0.01926 -0.03922
v -0.06890 0.01544 -0.04704
v -0.06491 0.01632 -0.03222
v -0.06095 0.01309 -0.04144
v -0.05299 0.01926 -0.02983
v -0.05142 0.01544 -0.03952
v -0.04365 0.02696 -0.03295
v -0.04394 0.02160 -0.04202
v -0.04045 0.03648 -0.04041
v -0.04138 0.02922 -0.04798
v -0.04461 0.04418 -0.04934
v -0.04471 0.03538 -0.05513
v -0.00781 -0.03541 0.04803
v -0.00418 -0.04256 0.04289
v -0.01747 -0.03855 0.04308
v -0.01191 -0.04507 0.03893
v -0.02522 -0.04676 0.04252
v -0.01810 -0.05164 0.03849
v -0.02808 -0.05692 0.04658
v -0.02040 -0.05977 0.04174
v -0.02498 -0.06513 0.05370
v -0.01791 -0.06634 0.04743
v -0.01709 -0.06827 0.06116
v -0.01160 -0.06885 0.05340
v -0.00742 -0.06513 0.06611
v -0.00387 -0.06634 0.05736
v 0.00032 -0.05692 0.06666
v 0.00233 -0.05977 0.05780
v 0.00319 -0.04676 0.06260
v 0.00462 -0.05164 0.05455
v 0.00009 -0.03855 0.05549
v 0.00214 -0.04507 0.04886
v 0.07681 -0.10026 0.15119
v 0.08113 -0.10469 0.14542
v 0.06888 -0.10333 0.14585
v 0.07479 -0.10714 0.14115
v 0.06339 -0.11135 0.14332
v 0.07040 -0.11356 0.13913
v 0.06245 -0.12127 0.14458
v 0.06965 -0.12150 0.14013
v 0.06642 -0.12929 0.14913
v 0.07282 -0.12792 0.14378
v 0.07377 -0.13236 0.15525
v 0.07870 -0.13037 0.14867
v 0.08170 -0.12929 0.16059
v 0.08504 -0.12792 0.15294
v 0.08718 -0.12127 0.16312
v 0.08943 -0.12150 0.15496
v 0.08812 -0.11135 0.16186
v 0.09018 -0.11356 0.15396
v 0.08416 -0.10333 0.15731
v 0.08701 -0.10714 0.15031
f 32 33 31
f 26 27 25
f 2 3 1
f 48 49 47
f 4 5 3
f 5 8 7
f 29 32 31
f 23 26 25
f 8 9 7
f 9 12 11
f 68 69 67
f 12 13 11
f 27 30 29
f 21 24 23
f 13 16 15
f 44 45 43
f 45 48 47
f 16 17 15
f 14 10 6
f 52 53 51
f 17 20 19
f 50 51 49
f 19 2 1
f 11 15 19
f 41 44 43
f 33 36 35
f 63 66 65
f 65 68 67
f 36 37 35
f 26 22 34
f 71 74 73
f 37 40 39
f 70 71 69
f 39 22 21
f 29 31 39
f 62 63 61
f 53 56 55
f 55 58 57
f 44 60 52
f 58 59 57
f 59 42 41
f 55 59 43
f 73 76 75
f 76 77 75
f 66 78 74
f 78 79 77
f 80 61 79
f 77 61 65
f 32 34 33
f 26 28 27
f 2 4 3
f 48 50 49
f 4 6 5
f 5 6 8
f 29 30 32
f 23 24 26
f 8 10 9
f 9 10 12
f 68 70 69
f 12 14 13
f 27 28 30
f 21 22 24
f 13 14 16
f 44 46 45
f 45 46 48
f 16 18 17
f 6 4 2
f 2 20 6
f 20 18 6
f 18 16 14
f 14 12 10
f 10 8 6
f 18 14 6
f 52 54 53
f 17 18 20
f 50 52 51
f 19 20 2
f 19 1 3
f 3 5 19
f 5 7 19
f 7 9 11
f 11 13 15
f 15 17 19
f 7 11 19
f 41 42 44
f 33 34 36
f 63 64 66
f 65 66 68
f 36 38 37
f 30 28 26
f 26 24 22
f 22 40 34
f 40 38 34
f 38 36 34
f 34 32 30
f 30 26 34
f 71 72 74
f 37 38 40
f 70 72 71
f 39 40 22
f 31 33 35
f 35 37 31
f 37 39 31
f 39 21 23
f 23 25 39
f 25 27 39
f 27 29 39
f 62 64 63
f 53 54 56
f 55 56 58
f 48 46 44
f 44 42 60
f 60 58 56
f 56 54 60
f 54 52 60
f 52 50 48
f 48 44 52
f 58 60 59
f 59 60 42
f 43 45 47
f 47 49 51
f 51 53 55
f 55 57 59
f 59 41 43
f 43 47 51
f 51 55 43
f 73 74 76
f 76 78 77
f 74 72 70
f 70 68 74
f 68 66 74
f 66 64 62
f 62 80 66
f 80 78 66
f 78 76 74
f 78 80 79
f 80 62 61
f 69 71 77
f 71 73 77
f 73 75 77
f 77 79 61
f 61 63 65
f 65 67 77
f 67 69 77
