# kraken Tentacle1_1_Ink.obj: Roblox cue frame, recentred on its bounding box
v 0.04426 0.19285 -0.26847
v 0.01181 0.18315 -0.28638
v -0.01017 0.15664 -0.30315
v -0.01580 0.12042 -0.31429
v -0.00358 0.08421 -0.31682
v 0.02323 0.05770 -0.31006
v 0.05744 0.04800 -0.29582
v 0.08989 0.05770 -0.27791
v 0.11187 0.08421 -0.26114
v 0.11751 0.12042 -0.25000
v 0.10528 0.15664 -0.24747
v 0.07847 0.18315 -0.25423
v 0.02233 0.18105 -0.22292
v -0.00974 0.17144 -0.24030
v -0.03123 0.14543 -0.25714
v -0.03639 0.10999 -0.26894
v -0.02385 0.07460 -0.27252
v 0.00305 0.04876 -0.26694
v 0.03709 0.03939 -0.25368
v 0.06915 0.04900 -0.23630
v 0.09064 0.07501 -0.21946
v 0.09581 0.11046 -0.20766
v 0.08326 0.14584 -0.20408
v 0.05636 0.17168 -0.20966
v 0.00150 0.16579 -0.17567
v -0.03034 0.15619 -0.19216
v -0.05129 0.13077 -0.20927
v -0.05573 0.09634 -0.22240
v -0.04249 0.06213 -0.22805
v -0.01511 0.03731 -0.22470
v 0.01909 0.02852 -0.21324
v 0.05092 0.03812 -0.19675
v 0.07187 0.06354 -0.17964
v 0.07632 0.09796 -0.16650
v 0.06307 0.13217 -0.16085
v 0.03569 0.15700 -0.16421
v -0.01693 0.14788 -0.12884
v -0.04859 0.13817 -0.14423
v -0.06912 0.11329 -0.16134
v -0.07302 0.07989 -0.17556
v -0.05925 0.04692 -0.18310
v -0.03150 0.02322 -0.18194
v 0.00280 0.01514 -0.17238
v 0.03446 0.02484 -0.15698
v 0.05499 0.04973 -0.13988
v 0.05890 0.08313 -0.12565
v 0.04512 0.11610 -0.11811
v 0.01737 0.13980 -0.11928
v -0.03268 0.12768 -0.08244
v -0.06418 0.11776 -0.09655
v -0.08439 0.09332 -0.11340
v -0.08790 0.06091 -0.12847
v -0.07377 0.02922 -0.13773
v -0.04579 0.00674 -0.13868
v -0.01145 -0.00052 -0.13108
v 0.02005 0.00940 -0.11697
v 0.04026 0.03384 -0.10012
v 0.04377 0.06625 -0.08505
v 0.02964 0.09794 -0.07579
v 0.00166 0.12043 -0.07484
v -0.04553 0.10558 -0.03647
v -0.07684 0.09532 -0.04915
v -0.09680 0.07123 -0.06551
v -0.10005 0.03976 -0.08118
v -0.08572 0.00935 -0.09196
v -0.05766 -0.01187 -0.09495
v -0.02338 -0.01819 -0.08936
v 0.00793 -0.00793 -0.07668
v 0.02789 0.01616 -0.06031
v 0.03114 0.04763 -0.04465
v 0.01681 0.07804 -0.03387
v -0.01125 0.09925 -0.03088
v -0.05529 0.08197 0.00905
v -0.08636 0.07126 -0.00205
v -0.10609 0.04740 -0.01771
v -0.10918 0.01679 -0.03374
v -0.09481 -0.01238 -0.04584
v -0.06682 -0.03228 -0.05076
v -0.03273 -0.03759 -0.04719
v -0.00165 -0.02689 -0.03609
v 0.01807 -0.00303 -0.02042
v 0.02116 0.02758 -0.00439
v 0.00679 0.05675 0.00770
v -0.02119 0.07665 0.01262
v -0.06181 0.05724 0.05414
v -0.09257 0.04599 0.04472
v -0.11206 0.02225 0.02995
v -0.11506 -0.00760 0.01380
v -0.10078 -0.03558 0.00059
v -0.07303 -0.05418 -0.00614
v -0.03926 -0.05842 -0.00458
v -0.00850 -0.04717 0.00484
v 0.01099 -0.02343 0.01960
v 0.01400 0.00642 0.03575
v -0.00029 0.03440 0.04896
v -0.02804 0.05300 0.05569
v -0.06500 0.03181 0.09879
v -0.09533 0.01992 0.09114
v -0.11454 -0.00380 0.07745
v -0.11751 -0.03300 0.06140
v -0.10342 -0.05987 0.04729
v -0.07605 -0.07719 0.03889
v -0.04275 -0.08033 0.03846
v -0.01242 -0.06845 0.04611
v 0.00679 -0.04472 0.05980
v 0.00976 -0.01552 0.07584
v -0.00433 0.01135 0.08996
v -0.03170 0.02867 0.09836
v -0.06480 0.00609 0.14300
v -0.09456 -0.00649 0.13718
v -0.11344 -0.03030 0.12475
v -0.11636 -0.05897 0.10902
v -0.10255 -0.08482 0.09422
v -0.07571 -0.10092 0.08431
v -0.04302 -0.10295 0.08194
v -0.01326 -0.09038 0.08776
v 0.00562 -0.06657 0.10020
v 0.00854 -0.03790 0.11592
v -0.00527 -0.01205 0.13072
v -0.03211 0.00405 0.14063
v -0.06117 -0.01949 0.18675
v -0.09023 -0.03283 0.18289
v -0.10865 -0.05684 0.17190
v -0.11151 -0.08511 0.15674
v -0.09803 -0.11005 0.14147
v -0.07183 -0.12499 0.13017
v -0.03993 -0.12591 0.12588
v -0.01087 -0.11258 0.12975
v 0.00755 -0.08856 0.14073
v 0.01041 -0.06029 0.15589
v -0.00307 -0.03535 0.17117
v -0.02927 -0.02042 0.18246
v -0.05391 -0.04438 0.23003
v -0.08209 -0.05848 0.22816
v -0.09993 -0.08278 0.21879
v -0.10266 -0.11076 0.20442
v -0.08953 -0.13492 0.18891
v -0.06407 -0.14879 0.17642
v -0.03310 -0.14866 0.17029
v -0.00492 -0.13455 0.17216
v 0.01292 -0.11026 0.18154
v 0.01564 -0.08228 0.19590
v 0.00251 -0.05811 0.21141
v -0.02294 -0.04424 0.22390
v -0.04328 -0.06816 0.27290
v -0.07044 -0.08296 0.27294
v -0.08756 -0.10753 0.26522
v -0.09006 -0.13530 0.25182
v -0.07727 -0.15881 0.23632
v -0.05261 -0.17177 0.22289
v -0.02269 -0.17071 0.21511
v 0.00447 -0.15591 0.21508
v 0.02159 -0.13134 0.22280
v 0.02409 -0.10357 0.23620
v 0.01130 -0.08006 0.25169
v -0.01336 -0.06710 0.26513
v -0.02931 -0.09070 0.31587
v -0.05563 -0.10565 0.31682
v -0.07217 -0.13008 0.31000
v -0.07450 -0.15746 0.29725
v -0.06200 -0.18043 0.28198
v -0.03801 -0.19285 0.26829
v -0.00897 -0.19139 0.25984
v 0.01735 -0.17644 0.25889
v 0.03390 -0.15200 0.26571
v 0.03623 -0.12463 0.27846
v 0.02373 -0.10165 0.29373
v -0.00026 -0.08923 0.30742
v 0.05085 0.12042 -0.28215
v -0.01914 -0.14104 0.28785
f 2 13 1
f 2 15 14
f 3 16 15
f 4 17 16
f 5 18 17
f 6 19 18
f 7 20 19
f 9 20 8
f 10 21 9
f 11 22 10
f 12 23 11
f 1 24 12
f 14 25 13
f 15 26 14
f 16 27 15
f 16 29 28
f 17 30 29
f 18 31 30
f 19 32 31
f 20 33 32
f 21 34 33
f 22 35 34
f 23 36 35
f 24 25 36
f 26 37 25
f 27 38 26
f 28 39 27
f 28 41 40
f 29 42 41
f 30 43 42
f 31 44 43
f 32 45 44
f 33 46 45
f 34 47 46
f 35 48 47
f 36 37 48
f 38 49 37
f 39 50 38
f 40 51 39
f 40 53 52
f 41 54 53
f 42 55 54
f 43 56 55
f 44 57 56
f 45 58 57
f 46 59 58
f 47 60 59
f 48 49 60
f 50 61 49
f 51 62 50
f 52 63 51
f 52 65 64
f 53 66 65
f 54 67 66
f 55 68 67
f 56 69 68
f 57 70 69
f 58 71 70
f 59 72 71
f 60 61 72
f 62 73 61
f 63 74 62
f 64 75 63
f 64 77 76
f 65 78 77
f 66 79 78
f 67 80 79
f 68 81 80
f 69 82 81
f 70 83 82
f 71 84 83
f 72 73 84
f 74 85 73
f 75 86 74
f 76 87 75
f 77 88 76
f 77 90 89
f 78 91 90
f 79 92 91
f 80 93 92
f 81 94 93
f 82 95 94
f 83 96 95
f 84 85 96
f 86 97 85
f 87 98 86
f 88 99 87
f 89 100 88
f 89 102 101
f 90 103 102
f 91 104 103
f 92 105 104
f 93 106 105
f 94 107 106
f 95 108 107
f 96 97 108
f 98 109 97
f 99 110 98
f 100 111 99
f 101 112 100
f 101 114 113
f 102 115 114
f 103 116 115
f 104 117 116
f 105 118 117
f 106 119 118
f 107 120 119
f 108 109 120
f 110 121 109
f 111 122 110
f 112 123 111
f 113 124 112
f 113 126 125
f 114 127 126
f 115 128 127
f 116 129 128
f 117 130 129
f 118 131 130
f 119 132 131
f 109 132 120
f 122 133 121
f 123 134 122
f 124 135 123
f 125 136 124
f 126 137 125
f 127 138 126
f 127 140 139
f 128 141 140
f 129 142 141
f 130 143 142
f 131 144 143
f 132 133 144
f 134 145 133
f 135 146 134
f 136 147 135
f 137 148 136
f 138 149 137
f 139 150 138
f 139 152 151
f 140 153 152
f 141 154 153
f 142 155 154
f 143 156 155
f 144 145 156
f 145 158 157
f 146 159 158
f 147 160 159
f 149 160 148
f 150 161 149
f 151 162 150
f 152 163 151
f 153 164 152
f 154 165 153
f 154 167 166
f 155 168 167
f 156 157 168
f 169 2 1
f 169 3 2
f 169 4 3
f 169 5 4
f 169 6 5
f 169 7 6
f 169 8 7
f 169 9 8
f 169 10 9
f 169 11 10
f 169 12 11
f 169 1 12
f 157 158 170
f 158 159 170
f 159 160 170
f 160 161 170
f 161 162 170
f 162 163 170
f 163 164 170
f 164 165 170
f 165 166 170
f 166 167 170
f 167 168 170
f 168 157 170
f 2 14 13
f 2 3 15
f 3 4 16
f 4 5 17
f 5 6 18
f 6 7 19
f 7 8 20
f 9 21 20
f 10 22 21
f 11 23 22
f 12 24 23
f 1 13 24
f 14 26 25
f 15 27 26
f 16 28 27
f 16 17 29
f 17 18 30
f 18 19 31
f 19 20 32
f 20 21 33
f 21 22 34
f 22 23 35
f 23 24 36
f 24 13 25
f 26 38 37
f 27 39 38
f 28 40 39
f 28 29 41
f 29 30 42
f 30 31 43
f 31 32 44
f 32 33 45
f 33 34 46
f 34 35 47
f 35 36 48
f 36 25 37
f 38 50 49
f 39 51 50
f 40 52 51
f 40 41 53
f 41 42 54
f 42 43 55
f 43 44 56
f 44 45 57
f 45 46 58
f 46 47 59
f 47 48 60
f 48 37 49
f 50 62 61
f 51 63 62
f 52 64 63
f 52 53 65
f 53 54 66
f 54 55 67
f 55 56 68
f 56 57 69
f 57 58 70
f 58 59 71
f 59 60 72
f 60 49 61
f 62 74 73
f 63 75 74
f 64 76 75
f 64 65 77
f 65 66 78
f 66 67 79
f 67 68 80
f 68 69 81
f 69 70 82
f 70 71 83
f 71 72 84
f 72 61 73
f 74 86 85
f 75 87 86
f 76 88 87
f 77 89 88
f 77 78 90
f 78 79 91
f 79 80 92
f 80 81 93
f 81 82 94
f 82 83 95
f 83 84 96
f 84 73 85
f 86 98 97
f 87 99 98
f 88 100 99
f 89 101 100
f 89 90 102
f 90 91 103
f 91 92 104
f 92 93 105
f 93 94 106
f 94 95 107
f 95 96 108
f 96 85 97
f 98 110 109
f 99 111 110
f 100 112 111
f 101 113 112
f 101 102 114
f 102 103 115
f 103 104 116
f 104 105 117
f 105 106 118
f 106 107 119
f 107 108 120
f 108 97 109
f 110 122 121
f 111 123 122
f 112 124 123
f 113 125 124
f 113 114 126
f 114 115 127
f 115 116 128
f 116 117 129
f 117 118 130
f 118 119 131
f 119 120 132
f 109 121 132
f 122 134 133
f 123 135 134
f 124 136 135
f 125 137 136
f 126 138 137
f 127 139 138
f 127 128 140
f 128 129 141
f 129 130 142
f 130 131 143
f 131 132 144
f 132 121 133
f 134 146 145
f 135 147 146
f 136 148 147
f 137 149 148
f 138 150 149
f 139 151 150
f 139 140 152
f 140 141 153
f 141 142 154
f 142 143 155
f 143 144 156
f 144 133 145
f 145 146 158
f 146 147 159
f 147 148 160
f 149 161 160
f 150 162 161
f 151 163 162
f 152 164 163
f 153 165 164
f 154 166 165
f 154 155 167
f 155 156 168
f 156 145 157
