# kraken Tentacle3_3_Ink.obj: Roblox cue frame, recentred on its bounding box
v -0.08337 0.24881 -0.19104
v -0.10183 0.24404 -0.20536
v -0.11165 0.23100 -0.22274
v -0.11019 0.21319 -0.23853
v -0.09786 0.19539 -0.24849
v -0.07795 0.18235 -0.24996
v -0.05580 0.17758 -0.24254
v -0.03734 0.18235 -0.22822
v -0.02753 0.19539 -0.21083
v -0.02898 0.21319 -0.19504
v -0.04131 0.23100 -0.18508
v -0.06122 0.24404 -0.18362
v -0.10177 0.21515 -0.15654
v -0.11998 0.21009 -0.17003
v -0.12957 0.19738 -0.18694
v -0.12796 0.18044 -0.20274
v -0.11559 0.16379 -0.21319
v -0.09577 0.15191 -0.21550
v -0.07381 0.14797 -0.20904
v -0.05560 0.15304 -0.19555
v -0.04601 0.16574 -0.17863
v -0.04762 0.18269 -0.16284
v -0.06000 0.19933 -0.15238
v -0.07982 0.21121 -0.15008
v -0.11583 0.17731 -0.12109
v -0.13396 0.17148 -0.13324
v -0.14339 0.15902 -0.14957
v -0.14160 0.14328 -0.16568
v -0.12907 0.12847 -0.17727
v -0.10914 0.11856 -0.18123
v -0.08717 0.11622 -0.17649
v -0.06904 0.12205 -0.16433
v -0.05961 0.13451 -0.14801
v -0.06140 0.15025 -0.13189
v -0.07393 0.16506 -0.12031
v -0.09386 0.17496 -0.11635
v -0.12443 0.13715 -0.08602
v -0.14235 0.13038 -0.09677
v -0.15165 0.11799 -0.11234
v -0.14983 0.10330 -0.12856
v -0.13739 0.09024 -0.14110
v -0.11764 0.08232 -0.14659
v -0.09590 0.08166 -0.14355
v -0.07798 0.08843 -0.13281
v -0.06868 0.10083 -0.11724
v -0.07050 0.11552 -0.10101
v -0.08294 0.12857 -0.08847
v -0.10268 0.13649 -0.08299
v -0.12720 0.09545 -0.05135
v -0.14473 0.08762 -0.06062
v -0.15385 0.07511 -0.07529
v -0.15211 0.06129 -0.09144
v -0.13997 0.04986 -0.10473
v -0.12069 0.04387 -0.11161
v -0.09944 0.04494 -0.11023
v -0.08191 0.05277 -0.10096
v -0.07279 0.06527 -0.08628
v -0.07453 0.07909 -0.07014
v -0.08667 0.09053 -0.05685
v -0.10594 0.09652 -0.04997
v -0.12386 0.05304 -0.01705
v -0.14079 0.04407 -0.02482
v -0.14963 0.03131 -0.03847
v -0.14801 0.01817 -0.05435
v -0.13636 0.00818 -0.06821
v -0.11781 0.00401 -0.07632
v -0.09732 0.00678 -0.07653
v -0.08039 0.01575 -0.06876
v -0.07155 0.02852 -0.05511
v -0.07317 0.04166 -0.03922
v -0.08482 0.05165 -0.02537
v -0.10337 0.05581 -0.01725
v -0.11427 0.01081 0.01689
v -0.13036 0.00068 0.01063
v -0.13878 -0.01246 -0.00191
v -0.13727 -0.02510 -0.01736
v -0.12623 -0.03385 -0.03159
v -0.10862 -0.03636 -0.04078
v -0.08916 -0.03196 -0.04247
v -0.07307 -0.02184 -0.03621
v -0.06465 -0.00869 -0.02367
v -0.06616 0.00394 -0.00822
v -0.07720 0.01269 0.00601
v -0.09481 0.01520 0.01520
v -0.09837 -0.03035 0.05050
v -0.11339 -0.04158 0.04572
v -0.12121 -0.05517 0.03437
v -0.11975 -0.06747 0.01950
v -0.10939 -0.07518 0.00509
v -0.09291 -0.07624 -0.00501
v -0.07473 -0.07037 -0.00807
v -0.05971 -0.05913 -0.00329
v -0.05189 -0.04554 0.00805
v -0.05335 -0.03325 0.02292
v -0.06371 -0.02554 0.03734
v -0.08019 -0.02447 0.04743
v -0.07626 -0.06950 0.08380
v -0.08997 -0.08174 0.08046
v -0.09701 -0.09578 0.07035
v -0.09549 -0.10786 0.05619
v -0.08583 -0.11474 0.04176
v -0.07061 -0.11458 0.03094
v -0.05391 -0.10743 0.02663
v -0.04020 -0.09519 0.02997
v -0.03316 -0.08115 0.04008
v -0.03467 -0.06907 0.05424
v -0.04434 -0.06219 0.06866
v -0.05956 -0.06234 0.07948
v -0.04816 -0.10572 0.11682
v -0.06036 -0.11880 0.11485
v -0.06642 -0.13325 0.10601
v -0.06472 -0.14519 0.09267
v -0.05572 -0.15144 0.07840
v -0.04183 -0.15031 0.06703
v -0.02676 -0.14211 0.06160
v -0.01456 -0.12903 0.06357
v -0.00850 -0.11459 0.07241
v -0.01020 -0.10264 0.08576
v -0.01920 -0.09639 0.10003
v -0.03309 -0.09752 0.11140
v -0.01423 -0.13826 0.14977
v -0.02471 -0.15200 0.14913
v -0.02962 -0.16675 0.14155
v -0.02766 -0.17854 0.12906
v -0.01935 -0.18422 0.11500
v -0.00692 -0.18227 0.10314
v 0.00630 -0.17321 0.09666
v 0.01677 -0.15946 0.09729
v 0.02169 -0.14472 0.10487
v 0.01973 -0.13292 0.11737
v 0.01142 -0.12724 0.13143
v -0.00101 -0.12920 0.14329
v 0.02680 -0.16679 0.18256
v 0.01826 -0.18098 0.18320
v 0.01468 -0.19589 0.17688
v 0.01703 -0.20751 0.16529
v 0.02467 -0.21272 0.15153
v 0.03556 -0.21015 0.13929
v 0.04678 -0.20046 0.13186
v 0.05532 -0.18627 0.13122
v 0.05890 -0.17136 0.13754
v 0.05655 -0.15974 0.14914
v 0.04891 -0.15452 0.16290
v 0.03802 -0.15710 0.17513
v 0.07412 -0.18944 0.21506
v 0.06764 -0.20380 0.21686
v 0.06562 -0.21868 0.21179
v 0.06860 -0.23011 0.20120
v 0.07578 -0.23501 0.18794
v 0.08524 -0.23207 0.17556
v 0.09444 -0.22209 0.16737
v 0.10092 -0.20773 0.16557
v 0.10294 -0.19284 0.17064
v 0.09996 -0.18142 0.18122
v 0.09278 -0.17652 0.19448
v 0.08332 -0.17945 0.20687
v 0.12716 -0.20474 0.24769
v 0.12184 -0.21871 0.24996
v 0.12065 -0.23313 0.24560
v 0.12390 -0.24415 0.23578
v 0.13074 -0.24881 0.22312
v 0.13931 -0.24586 0.21103
v 0.14734 -0.23610 0.20274
v 0.15266 -0.22213 0.20047
v 0.15385 -0.20771 0.20483
v 0.15059 -0.19669 0.21465
v 0.14376 -0.19203 0.22730
v 0.13518 -0.19498 0.23940
v -0.06959 0.21319 -0.21679
v 0.13725 -0.22042 0.22521
f 2 13 1
f 2 15 14
f 3 16 15
f 4 17 16
f 5 18 17
f 6 19 18
f 7 20 19
f 8 21 20
f 10 21 9
f 11 22 10
f 12 23 11
f 1 24 12
f 14 25 13
f 15 26 14
f 15 28 27
f 16 29 28
f 17 30 29
f 18 31 30
f 19 32 31
f 20 33 32
f 21 34 33
f 22 35 34
f 23 36 35
f 24 25 36
f 26 37 25
f 27 38 26
f 27 40 39
f 28 41 40
f 29 42 41
f 30 43 42
f 31 44 43
f 32 45 44
f 33 46 45
f 34 47 46
f 35 48 47
f 36 37 48
f 38 49 37
f 39 50 38
f 40 51 39
f 40 53 52
f 41 54 53
f 42 55 54
f 43 56 55
f 44 57 56
f 45 58 57
f 46 59 58
f 47 60 59
f 48 49 60
f 50 61 49
f 51 62 50
f 52 63 51
f 52 65 64
f 53 66 65
f 54 67 66
f 55 68 67
f 56 69 68
f 57 70 69
f 58 71 70
f 59 72 71
f 60 61 72
f 62 73 61
f 63 74 62
f 64 75 63
f 65 76 64
f 65 78 77
f 66 79 78
f 67 80 79
f 68 81 80
f 69 82 81
f 70 83 82
f 71 84 83
f 72 73 84
f 74 85 73
f 75 86 74
f 76 87 75
f 77 88 76
f 77 90 89
f 78 91 90
f 79 92 91
f 80 93 92
f 81 94 93
f 82 95 94
f 83 96 95
f 84 85 96
f 86 97 85
f 87 98 86
f 88 99 87
f 89 100 88
f 90 101 89
f 90 103 102
f 91 104 103
f 92 105 104
f 93 106 105
f 94 107 106
f 95 108 107
f 85 108 96
f 98 109 97
f 99 110 98
f 100 111 99
f 101 112 100
f 102 113 101
f 102 115 114
f 103 116 115
f 104 117 116
f 105 118 117
f 106 119 118
f 107 120 119
f 97 120 108
f 110 121 109
f 111 122 110
f 111 124 123
f 112 125 124
f 113 126 125
f 114 127 126
f 115 128 127
f 116 129 128
f 118 129 117
f 119 130 118
f 120 131 119
f 109 132 120
f 122 133 121
f 123 134 122
f 124 135 123
f 125 136 124
f 126 137 125
f 126 139 138
f 127 140 139
f 128 141 140
f 129 142 141
f 130 143 142
f 131 144 143
f 121 144 132
f 134 145 133
f 135 146 134
f 136 147 135
f 137 148 136
f 138 149 137
f 139 150 138
f 139 152 151
f 140 153 152
f 141 154 153
f 142 155 154
f 143 156 155
f 133 156 144
f 145 158 157
f 146 159 158
f 147 160 159
f 149 160 148
f 150 161 149
f 151 162 150
f 152 163 151
f 153 164 152
f 154 165 153
f 154 167 166
f 155 168 167
f 156 157 168
f 169 2 1
f 169 3 2
f 169 4 3
f 169 5 4
f 169 6 5
f 169 7 6
f 169 8 7
f 169 9 8
f 169 10 9
f 169 11 10
f 169 12 11
f 169 1 12
f 157 158 170
f 158 159 170
f 159 160 170
f 160 161 170
f 161 162 170
f 162 163 170
f 163 164 170
f 164 165 170
f 165 166 170
f 166 167 170
f 167 168 170
f 168 157 170
f 2 14 13
f 2 3 15
f 3 4 16
f 4 5 17
f 5 6 18
f 6 7 19
f 7 8 20
f 8 9 21
f 10 22 21
f 11 23 22
f 12 24 23
f 1 13 24
f 14 26 25
f 15 27 26
f 15 16 28
f 16 17 29
f 17 18 30
f 18 19 31
f 19 20 32
f 20 21 33
f 21 22 34
f 22 23 35
f 23 24 36
f 24 13 25
f 26 38 37
f 27 39 38
f 27 28 40
f 28 29 41
f 29 30 42
f 30 31 43
f 31 32 44
f 32 33 45
f 33 34 46
f 34 35 47
f 35 36 48
f 36 25 37
f 38 50 49
f 39 51 50
f 40 52 51
f 40 41 53
f 41 42 54
f 42 43 55
f 43 44 56
f 44 45 57
f 45 46 58
f 46 47 59
f 47 48 60
f 48 37 49
f 50 62 61
f 51 63 62
f 52 64 63
f 52 53 65
f 53 54 66
f 54 55 67
f 55 56 68
f 56 57 69
f 57 58 70
f 58 59 71
f 59 60 72
f 60 49 61
f 62 74 73
f 63 75 74
f 64 76 75
f 65 77 76
f 65 66 78
f 66 67 79
f 67 68 80
f 68 69 81
f 69 70 82
f 70 71 83
f 71 72 84
f 72 61 73
f 74 86 85
f 75 87 86
f 76 88 87
f 77 89 88
f 77 78 90
f 78 79 91
f 79 80 92
f 80 81 93
f 81 82 94
f 82 83 95
f 83 84 96
f 84 73 85
f 86 98 97
f 87 99 98
f 88 100 99
f 89 101 100
f 90 102 101
f 90 91 103
f 91 92 104
f 92 93 105
f 93 94 106
f 94 95 107
f 95 96 108
f 85 97 108
f 98 110 109
f 99 111 110
f 100 112 111
f 101 113 112
f 102 114 113
f 102 103 115
f 103 104 116
f 104 105 117
f 105 106 118
f 106 107 119
f 107 108 120
f 97 109 120
f 110 122 121
f 111 123 122
f 111 112 124
f 112 113 125
f 113 114 126
f 114 115 127
f 115 116 128
f 116 117 129
f 118 130 129
f 119 131 130
f 120 132 131
f 109 121 132
f 122 134 133
f 123 135 134
f 124 136 135
f 125 137 136
f 126 138 137
f 126 127 139
f 127 128 140
f 128 129 141
f 129 130 142
f 130 131 143
f 131 132 144
f 121 133 144
f 134 146 145
f 135 147 146
f 136 148 147
f 137 149 148
f 138 150 149
f 139 151 150
f 139 140 152
f 140 141 153
f 141 142 154
f 142 143 155
f 143 144 156
f 133 145 156
f 145 146 158
f 146 147 159
f 147 148 160
f 149 161 160
f 150 162 161
f 151 163 162
f 152 164 163
f 153 165 164
f 154 166 165
f 154 155 167
f 155 156 168
f 156 145 157
