# kraken Tentacle3_2_Sucker.obj: Roblox cue frame, recentred on its bounding box
v 0.13000 0.08423 -0.15130
v 0.11883 0.08157 -0.16154
v 0.11735 0.07873 -0.13934
v 0.10872 0.07716 -0.15197
v 0.10772 0.06431 -0.13361
v 0.10101 0.06563 -0.14739
v 0.10478 0.04650 -0.13631
v 0.09866 0.05138 -0.14955
v 0.10966 0.03208 -0.14640
v 0.10256 0.03985 -0.15762
v 0.12049 0.02658 -0.16003
v 0.11122 0.03545 -0.16852
v 0.13313 0.03208 -0.17199
v 0.12134 0.03985 -0.17809
v 0.14276 0.04650 -0.17772
v 0.12905 0.05138 -0.18267
v 0.14570 0.06431 -0.17502
v 0.13140 0.06563 -0.18052
v 0.14083 0.07873 -0.16493
v 0.12750 0.07716 -0.17244
v 0.03103 0.08348 -0.05089
v 0.02192 0.07627 -0.05947
v 0.02035 0.07823 -0.03855
v 0.01338 0.07206 -0.04959
v 0.01474 0.06448 -0.02999
v 0.00889 0.06106 -0.04274
v 0.01635 0.04747 -0.02848
v 0.01017 0.04746 -0.04153
v 0.02456 0.03372 -0.03459
v 0.01674 0.03646 -0.04643
v 0.03623 0.02847 -0.04600
v 0.02608 0.03225 -0.05555
v 0.04690 0.03372 -0.05834
v 0.03462 0.03646 -0.06543
v 0.05251 0.04747 -0.06690
v 0.03910 0.04746 -0.07227
v 0.05090 0.06448 -0.06841
v 0.03782 0.06106 -0.07348
v 0.04270 0.07823 -0.06230
v 0.03125 0.07206 -0.06859
v -0.06179 0.03961 0.05018
v -0.06746 0.02959 0.04316
v -0.07229 0.03515 0.06140
v -0.07586 0.02602 0.05214
v -0.07611 0.02345 0.07163
v -0.07892 0.01666 0.06033
v -0.07179 0.00900 0.07697
v -0.07546 0.00510 0.06460
v -0.06098 -0.00269 0.07539
v -0.06681 -0.00425 0.06333
v -0.04781 -0.00716 0.06747
v -0.05628 -0.00782 0.05700
v -0.03731 -0.00269 0.05625
v -0.04788 -0.00425 0.04802
v -0.03349 0.00900 0.04602
v -0.04482 0.00510 0.03983
v -0.03781 0.02345 0.04067
v -0.04828 0.01666 0.03556
v -0.04862 0.03515 0.04226
v -0.05692 0.02602 0.03683
v -0.12852 -0.04315 0.15251
v -0.13085 -0.05404 0.14687
v -0.14047 -0.04675 0.16051
v -0.14041 -0.05693 0.15326
v -0.14570 -0.05618 0.17068
v -0.14460 -0.06447 0.16140
v -0.14221 -0.06784 0.17915
v -0.14180 -0.07380 0.16818
v -0.13133 -0.07728 0.18267
v -0.13310 -0.08135 0.17100
v -0.11721 -0.08088 0.17991
v -0.12180 -0.08423 0.16879
v -0.10526 -0.07728 0.17192
v -0.11224 -0.08135 0.16239
v -0.10003 -0.06784 0.16174
v -0.10805 -0.07380 0.15425
v -0.10352 -0.05618 0.15328
v -0.11085 -0.06447 0.14748
v -0.11440 -0.04675 0.14975
v -0.11955 -0.05693 0.14466
f 32 33 31
f 25 28 27
f 1 4 3
f 47 50 49
f 3 6 5
f 5 8 7
f 30 31 29
f 24 25 23
f 8 9 7
f 9 12 11
f 68 69 67
f 12 13 11
f 27 30 29
f 22 23 21
f 14 15 13
f 43 46 45
f 45 48 47
f 16 17 15
f 8 6 18
f 52 53 51
f 18 19 17
f 50 51 49
f 19 2 1
f 17 19 7
f 41 44 43
f 34 35 33
f 64 65 63
f 65 68 67
f 36 37 35
f 22 34 30
f 71 74 73
f 37 40 39
f 70 71 69
f 40 21 39
f 35 39 27
f 61 64 63
f 53 56 55
f 56 57 55
f 60 56 52
f 58 59 57
f 59 42 41
f 41 43 51
f 73 76 75
f 75 78 77
f 66 78 74
f 77 80 79
f 80 61 79
f 67 69 77
f 32 34 33
f 25 26 28
f 1 2 4
f 47 48 50
f 3 4 6
f 5 6 8
f 30 32 31
f 24 26 25
f 8 10 9
f 9 10 12
f 68 70 69
f 12 14 13
f 27 28 30
f 22 24 23
f 14 16 15
f 43 44 46
f 45 46 48
f 16 18 17
f 6 4 18
f 4 2 18
f 2 20 18
f 18 16 14
f 14 12 18
f 12 10 18
f 10 8 18
f 52 54 53
f 18 20 19
f 50 52 51
f 19 20 2
f 19 1 3
f 3 5 19
f 5 7 19
f 7 9 15
f 9 11 15
f 11 13 15
f 15 17 7
f 41 42 44
f 34 36 35
f 64 66 65
f 65 66 68
f 36 38 37
f 30 28 26
f 26 24 22
f 22 40 38
f 38 36 22
f 36 34 22
f 34 32 30
f 30 26 22
f 71 72 74
f 37 38 40
f 70 72 71
f 40 22 21
f 31 33 35
f 35 37 39
f 39 21 23
f 23 25 39
f 25 27 39
f 27 29 31
f 31 35 27
f 61 62 64
f 53 54 56
f 56 58 57
f 48 46 44
f 44 42 60
f 60 58 56
f 56 54 52
f 52 50 48
f 48 44 52
f 44 60 52
f 58 60 59
f 59 60 42
f 43 45 51
f 45 47 51
f 47 49 51
f 51 53 55
f 55 57 51
f 57 59 51
f 59 41 51
f 73 74 76
f 75 76 78
f 74 72 70
f 70 68 66
f 66 64 62
f 62 80 66
f 80 78 66
f 78 76 74
f 74 70 66
f 77 78 80
f 80 62 61
f 69 71 77
f 71 73 77
f 73 75 77
f 77 79 65
f 79 61 65
f 61 63 65
f 65 67 77
