# kraken Tentacle2_3_Sucker.obj: Roblox cue frame, recentred on its bounding box
v 0.00037 0.15012 -0.19667
v -0.00017 0.15675 -0.18727
v 0.01313 0.14787 -0.19236
v 0.01004 0.15494 -0.18383
v 0.02062 0.14196 -0.18258
v 0.01603 0.15022 -0.17600
v 0.01996 0.13466 -0.17105
v 0.01550 0.14438 -0.16677
v 0.01141 0.12876 -0.16218
v 0.00866 0.13965 -0.15968
v -0.00177 0.12650 -0.15936
v -0.00188 0.13785 -0.15742
v -0.01454 0.12876 -0.16366
v -0.01209 0.13965 -0.16086
v -0.02202 0.13466 -0.17345
v -0.01808 0.14438 -0.16869
v -0.02136 0.14196 -0.18498
v -0.01755 0.15022 -0.17792
v -0.01281 0.14787 -0.19385
v -0.01071 0.15494 -0.18501
v 0.01700 0.06489 -0.07191
v 0.02064 0.06992 -0.06339
v 0.02912 0.06246 -0.07381
v 0.03034 0.06798 -0.06492
v 0.03897 0.05611 -0.06946
v 0.03822 0.06289 -0.06144
v 0.04280 0.04825 -0.06051
v 0.04128 0.05661 -0.05428
v 0.03913 0.04190 -0.05039
v 0.03835 0.05153 -0.04618
v 0.02938 0.03947 -0.04295
v 0.03054 0.04959 -0.04022
v 0.01726 0.04190 -0.04104
v 0.02085 0.05153 -0.03870
v 0.00741 0.04825 -0.04539
v 0.01297 0.05661 -0.04218
v 0.00358 0.05611 -0.05434
v 0.00991 0.06289 -0.04934
v 0.00725 0.06246 -0.06447
v 0.01284 0.06798 -0.05744
v 0.00706 -0.03208 0.05377
v 0.01262 -0.02945 0.06104
v 0.01693 -0.03481 0.04898
v 0.02051 -0.03164 0.05721
v 0.02567 -0.04196 0.04948
v 0.02751 -0.03736 0.05761
v 0.02995 -0.05079 0.05508
v 0.03093 -0.04443 0.06209
v 0.02813 -0.05794 0.06364
v 0.02947 -0.05015 0.06894
v 0.02091 -0.06067 0.07190
v 0.02369 -0.05233 0.07555
v 0.01104 -0.05794 0.07669
v 0.01580 -0.05015 0.07938
v 0.00230 -0.05079 0.07619
v 0.00881 -0.04443 0.07898
v -0.00198 -0.04196 0.07059
v 0.00539 -0.03736 0.07450
v -0.00016 -0.03481 0.06202
v 0.00684 -0.03164 0.06765
v -0.03565 -0.12749 0.17678
v -0.02955 -0.12701 0.18262
v -0.02808 -0.13028 0.17081
v -0.02349 -0.12925 0.17784
v -0.02144 -0.13760 0.16898
v -0.01818 -0.13510 0.17638
v -0.01828 -0.14664 0.17200
v -0.01565 -0.14233 0.17880
v -0.01981 -0.15395 0.17871
v -0.01687 -0.14818 0.18416
v -0.02543 -0.15675 0.18655
v -0.02137 -0.15042 0.19043
v -0.03301 -0.15395 0.19252
v -0.02743 -0.14818 0.19521
v -0.03964 -0.14664 0.19434
v -0.03274 -0.14233 0.19667
v -0.04280 -0.13760 0.19133
v -0.03526 -0.13510 0.19425
v -0.04128 -0.13028 0.18462
v -0.03405 -0.12925 0.18889
f 31 34 33
f 25 28 27
f 1 4 3
f 47 50 49
f 4 5 3
f 6 7 5
f 29 32 31
f 24 25 23
f 8 9 7
f 9 12 11
f 67 70 69
f 12 13 11
f 27 30 29
f 22 23 21
f 14 15 13
f 43 46 45
f 45 48 47
f 15 18 17
f 8 6 18
f 52 53 51
f 17 20 19
f 50 51 49
f 19 2 1
f 7 11 15
f 41 44 43
f 34 35 33
f 64 65 63
f 65 68 67
f 35 38 37
f 22 38 34
f 72 73 71
f 37 40 39
f 70 71 69
f 40 21 39
f 23 27 31
f 62 63 61
f 53 56 55
f 56 57 55
f 60 52 48
f 57 60 59
f 59 42 41
f 51 55 59
f 73 76 75
f 76 77 75
f 66 62 78
f 78 79 77
f 80 61 79
f 61 65 69
f 31 32 34
f 25 26 28
f 1 2 4
f 47 48 50
f 4 6 5
f 6 8 7
f 29 30 32
f 24 26 25
f 8 10 9
f 9 10 12
f 67 68 70
f 12 14 13
f 27 28 30
f 22 24 23
f 14 16 15
f 43 44 46
f 45 46 48
f 15 16 18
f 6 4 2
f 2 20 6
f 20 18 6
f 18 16 14
f 14 12 18
f 12 10 18
f 10 8 18
f 52 54 53
f 17 18 20
f 50 52 51
f 19 20 2
f 19 1 3
f 3 5 7
f 7 9 11
f 11 13 15
f 15 17 19
f 19 3 15
f 3 7 15
f 41 42 44
f 34 36 35
f 64 66 65
f 65 66 68
f 35 36 38
f 30 28 26
f 26 24 30
f 24 22 30
f 22 40 38
f 38 36 34
f 34 32 22
f 32 30 22
f 72 74 73
f 37 38 40
f 70 72 71
f 40 22 21
f 31 33 35
f 35 37 39
f 39 21 23
f 23 25 27
f 27 29 31
f 31 35 39
f 39 23 31
f 62 64 63
f 53 54 56
f 56 58 57
f 48 46 44
f 44 42 48
f 42 60 48
f 60 58 52
f 58 56 52
f 56 54 52
f 52 50 48
f 57 58 60
f 59 60 42
f 43 45 51
f 45 47 51
f 47 49 51
f 51 53 55
f 55 57 59
f 59 41 51
f 41 43 51
f 73 74 76
f 76 78 77
f 74 72 70
f 70 68 66
f 66 64 62
f 62 80 78
f 78 76 74
f 74 70 78
f 70 66 78
f 78 80 79
f 80 62 61
f 69 71 73
f 73 75 69
f 75 77 69
f 77 79 61
f 61 63 65
f 65 67 69
f 77 61 69
