# kraken Tentacle3_4_Core.obj: Roblox cue frame, recentred on its bounding box
v -0.26481 -0.20946 -0.20530
v -0.27190 -0.21385 -0.19668
v -0.27709 -0.22445 -0.19455
v -0.27734 -0.23505 -0.20016
v -0.27251 -0.23944 -0.21021
v -0.26542 -0.23505 -0.21883
v -0.26023 -0.22445 -0.22096
v -0.25998 -0.21385 -0.21536
v -0.21462 -0.22835 -0.17323
v -0.22099 -0.23268 -0.16473
v -0.22529 -0.24303 -0.16229
v -0.22500 -0.25333 -0.16733
v -0.22030 -0.25755 -0.17690
v -0.21393 -0.25321 -0.18540
v -0.20963 -0.24286 -0.18784
v -0.20992 -0.23256 -0.18280
v -0.16062 -0.23922 -0.14158
v -0.16593 -0.24352 -0.13303
v -0.16873 -0.25364 -0.12996
v -0.16737 -0.26365 -0.13416
v -0.16266 -0.26769 -0.14317
v -0.15736 -0.26339 -0.15171
v -0.15456 -0.25327 -0.15479
v -0.15591 -0.24326 -0.15059
v -0.10330 -0.24126 -0.10985
v -0.10768 -0.24537 -0.10137
v -0.10906 -0.25502 -0.09775
v -0.10664 -0.26455 -0.10112
v -0.10183 -0.26838 -0.10951
v -0.09746 -0.26427 -0.11799
v -0.09607 -0.25462 -0.12161
v -0.09849 -0.24509 -0.11824
v -0.04415 -0.23355 -0.07804
v -0.04775 -0.23736 -0.06972
v -0.04787 -0.24633 -0.06565
v -0.04444 -0.25518 -0.06823
v -0.03947 -0.25874 -0.07594
v -0.03587 -0.25492 -0.08426
v -0.03575 -0.24596 -0.08832
v -0.03918 -0.23711 -0.08574
v 0.01511 -0.21543 -0.04612
v 0.01213 -0.21889 -0.03806
v 0.01309 -0.22699 -0.03365
v 0.01741 -0.23497 -0.03548
v 0.02258 -0.23817 -0.04247
v 0.02556 -0.23471 -0.05053
v 0.02461 -0.22662 -0.05494
v 0.02028 -0.21863 -0.05311
v 0.07261 -0.18655 -0.01409
v 0.07010 -0.18963 -0.00638
v 0.07190 -0.19673 -0.00173
v 0.07696 -0.20369 -0.00286
v 0.08231 -0.20643 -0.00912
v 0.08482 -0.20335 -0.01683
v 0.08301 -0.19625 -0.02148
v 0.07796 -0.18929 -0.02034
v 0.12633 -0.14690 0.01806
v 0.12416 -0.14962 0.02534
v 0.12656 -0.15565 0.03012
v 0.13213 -0.16146 0.02961
v 0.13760 -0.16364 0.02411
v 0.13977 -0.16092 0.01684
v 0.13737 -0.15489 0.01206
v 0.13180 -0.14909 0.01256
v 0.17418 -0.09686 0.05035
v 0.17225 -0.09925 0.05711
v 0.17500 -0.10419 0.06191
v 0.18084 -0.10878 0.06195
v 0.18633 -0.11033 0.05721
v 0.18827 -0.10793 0.05046
v 0.18551 -0.10299 0.04565
v 0.17967 -0.09840 0.04561
v 0.21409 -0.03719 0.08279
v 0.21233 -0.03933 0.08894
v 0.21521 -0.04321 0.09365
v 0.22104 -0.04657 0.09416
v 0.22641 -0.04744 0.09016
v 0.22817 -0.04530 0.08401
v 0.22530 -0.04141 0.07930
v 0.21946 -0.03805 0.07879
v 0.24407 0.03089 0.11538
v 0.24245 0.02895 0.12086
v 0.24523 0.02604 0.12535
v 0.25079 0.02384 0.12622
v 0.25586 0.02366 0.12295
v 0.25748 0.02559 0.11747
v 0.25470 0.02851 0.11298
v 0.24914 0.03070 0.11211
v 0.26230 0.10575 0.14815
v 0.26084 0.10398 0.15288
v 0.26335 0.10191 0.15701
v 0.26835 0.10075 0.15812
v 0.27292 0.10119 0.15557
v 0.27438 0.10296 0.15084
v 0.27188 0.10502 0.14671
v 0.26687 0.10618 0.14559
v 0.26725 0.18536 0.18115
v 0.26600 0.18376 0.18502
v 0.26808 0.18241 0.18861
v 0.27226 0.18209 0.18983
v 0.27610 0.18299 0.18795
v 0.27734 0.18459 0.18408
v 0.27527 0.18594 0.18049
v 0.27109 0.18626 0.17927
v 0.25792 0.26755 0.21476
v 0.25705 0.26637 0.21745
v 0.25849 0.26554 0.22002
v 0.26140 0.26554 0.22096
v 0.26408 0.26638 0.21973
v 0.26495 0.26755 0.21704
v 0.26351 0.26838 0.21447
v 0.26060 0.26838 0.21352
v -0.26866 -0.22445 -0.20776
v 0.26100 0.26696 0.21724
f 2 9 1
f 3 10 2
f 4 11 3
f 5 12 4
f 5 14 13
f 6 15 14
f 7 16 15
f 8 9 16
f 9 18 17
f 11 18 10
f 12 19 11
f 13 20 12
f 14 21 13
f 14 23 22
f 15 24 23
f 16 17 24
f 17 26 25
f 19 26 18
f 20 27 19
f 21 28 20
f 22 29 21
f 22 31 30
f 23 32 31
f 24 25 32
f 25 34 33
f 27 34 26
f 28 35 27
f 29 36 28
f 30 37 29
f 30 39 38
f 31 40 39
f 32 33 40
f 33 42 41
f 35 42 34
f 36 43 35
f 37 44 36
f 38 45 37
f 38 47 46
f 39 48 47
f 40 41 48
f 41 50 49
f 42 51 50
f 44 51 43
f 45 52 44
f 46 53 45
f 46 55 54
f 47 56 55
f 48 49 56
f 49 58 57
f 50 59 58
f 52 59 51
f 53 60 52
f 54 61 53
f 54 63 62
f 55 64 63
f 56 57 64
f 57 66 65
f 58 67 66
f 60 67 59
f 61 68 60
f 62 69 61
f 63 70 62
f 63 72 71
f 64 65 72
f 65 74 73
f 66 75 74
f 68 75 67
f 69 76 68
f 70 77 69
f 71 78 70
f 71 80 79
f 72 73 80
f 73 82 81
f 74 83 82
f 76 83 75
f 77 84 76
f 78 85 77
f 79 86 78
f 79 88 87
f 80 81 88
f 81 90 89
f 82 91 90
f 84 91 83
f 85 92 84
f 86 93 85
f 87 94 86
f 87 96 95
f 88 89 96
f 89 98 97
f 90 99 98
f 92 99 91
f 93 100 92
f 94 101 93
f 95 102 94
f 95 104 103
f 96 97 104
f 98 105 97
f 98 107 106
f 99 108 107
f 100 109 108
f 101 110 109
f 103 110 102
f 104 111 103
f 97 112 104
f 113 2 1
f 113 3 2
f 113 4 3
f 113 5 4
f 113 6 5
f 113 7 6
f 113 8 7
f 113 1 8
f 105 106 114
f 106 107 114
f 107 108 114
f 108 109 114
f 109 110 114
f 110 111 114
f 111 112 114
f 112 105 114
f 2 10 9
f 3 11 10
f 4 12 11
f 5 13 12
f 5 6 14
f 6 7 15
f 7 8 16
f 8 1 9
f 9 10 18
f 11 19 18
f 12 20 19
f 13 21 20
f 14 22 21
f 14 15 23
f 15 16 24
f 16 9 17
f 17 18 26
f 19 27 26
f 20 28 27
f 21 29 28
f 22 30 29
f 22 23 31
f 23 24 32
f 24 17 25
f 25 26 34
f 27 35 34
f 28 36 35
f 29 37 36
f 30 38 37
f 30 31 39
f 31 32 40
f 32 25 33
f 33 34 42
f 35 43 42
f 36 44 43
f 37 45 44
f 38 46 45
f 38 39 47
f 39 40 48
f 40 33 41
f 41 42 50
f 42 43 51
f 44 52 51
f 45 53 52
f 46 54 53
f 46 47 55
f 47 48 56
f 48 41 49
f 49 50 58
f 50 51 59
f 52 60 59
f 53 61 60
f 54 62 61
f 54 55 63
f 55 56 64
f 56 49 57
f 57 58 66
f 58 59 67
f 60 68 67
f 61 69 68
f 62 70 69
f 63 71 70
f 63 64 72
f 64 57 65
f 65 66 74
f 66 67 75
f 68 76 75
f 69 77 76
f 70 78 77
f 71 79 78
f 71 72 80
f 72 65 73
f 73 74 82
f 74 75 83
f 76 84 83
f 77 85 84
f 78 86 85
f 79 87 86
f 79 80 88
f 80 73 81
f 81 82 90
f 82 83 91
f 84 92 91
f 85 93 92
f 86 94 93
f 87 95 94
f 87 88 96
f 88 81 89
f 89 90 98
f 90 91 99
f 92 100 99
f 93 101 100
f 94 102 101
f 95 103 102
f 95 96 104
f 96 89 97
f 98 106 105
f 98 99 107
f 99 100 108
f 100 101 109
f 101 102 110
f 103 111 110
f 104 112 111
f 97 105 112
