# kraken Tentacle3_4_Sucker.obj: Roblox cue frame, recentred on its bounding box
v -0.00121 0.01279 0.00453
v 0.00159 0.01147 -0.00151
v -0.00796 0.01035 0.00087
v -0.00382 0.00951 -0.00444
v -0.01173 0.00395 -0.00229
v -0.00683 0.00440 -0.00697
v -0.01106 -0.00395 -0.00373
v -0.00629 -0.00192 -0.00813
v -0.00622 -0.01035 -0.00291
v -0.00242 -0.00704 -0.00747
v 0.00095 -0.01279 -0.00014
v 0.00331 -0.00899 -0.00525
v 0.00770 -0.01035 0.00352
v 0.00872 -0.00704 -0.00232
v 0.01146 -0.00395 0.00668
v 0.01173 -0.00192 0.00020
v 0.01080 0.00395 0.00813
v 0.01119 0.00440 0.00136
v 0.00596 0.01035 0.00731
v 0.00732 0.00951 0.00070
f 2 3 1
f 4 5 3
f 5 8 7
f 8 9 7
f 9 12 11
f 11 14 13
f 14 15 13
f 16 17 15
f 6 2 18
f 18 19 17
f 20 1 19
f 7 11 15
f 2 4 3
f 4 6 5
f 5 6 8
f 8 10 9
f 9 10 12
f 11 12 14
f 14 16 15
f 16 18 17
f 6 4 2
f 2 20 18
f 18 16 10
f 16 14 10
f 14 12 10
f 10 8 18
f 8 6 18
f 18 20 19
f 20 2 1
f 19 1 7
f 1 3 7
f 3 5 7
f 7 9 11
f 11 13 15
f 15 17 7
f 17 19 7
