# kraken Tentacle4_3_Ink.obj: Roblox cue frame, recentred on its bounding box
v -0.12747 -0.10731 -0.22243
v -0.15078 -0.11178 -0.22011
v -0.16854 -0.12399 -0.20993
v -0.17601 -0.14068 -0.19462
v -0.17118 -0.15737 -0.17829
v -0.15535 -0.16959 -0.16532
v -0.13275 -0.17406 -0.15916
v -0.10944 -0.16959 -0.16149
v -0.09168 -0.15737 -0.17167
v -0.08421 -0.14068 -0.18697
v -0.08904 -0.12399 -0.20330
v -0.10488 -0.11178 -0.21628
v -0.13004 -0.07994 -0.19202
v -0.15278 -0.08351 -0.18894
v -0.17011 -0.09473 -0.17831
v -0.17740 -0.11059 -0.16299
v -0.17269 -0.12684 -0.14708
v -0.15724 -0.13913 -0.13485
v -0.13519 -0.14416 -0.12957
v -0.11245 -0.14059 -0.13266
v -0.09511 -0.12937 -0.14328
v -0.08782 -0.11351 -0.15860
v -0.09254 -0.09726 -0.17451
v -0.10799 -0.08497 -0.18674
v -0.12871 -0.05164 -0.16183
v -0.15076 -0.05358 -0.15724
v -0.16754 -0.06320 -0.14556
v -0.17458 -0.07793 -0.12993
v -0.16997 -0.09381 -0.11453
v -0.15497 -0.10660 -0.10349
v -0.13358 -0.11287 -0.09977
v -0.11153 -0.11093 -0.10436
v -0.09475 -0.10131 -0.11603
v -0.08771 -0.08658 -0.13166
v -0.09232 -0.07069 -0.14706
v -0.10732 -0.05790 -0.15810
v -0.12314 -0.02239 -0.13129
v -0.14427 -0.02275 -0.12530
v -0.16035 -0.03090 -0.11275
v -0.16707 -0.04465 -0.09700
v -0.16262 -0.06032 -0.08226
v -0.14821 -0.07371 -0.07249
v -0.12769 -0.08123 -0.07031
v -0.10656 -0.08087 -0.07629
v -0.09048 -0.07272 -0.08884
v -0.08376 -0.05897 -0.10460
v -0.08821 -0.04330 -0.11933
v -0.10262 -0.02991 -0.12910
v -0.11301 0.00722 -0.10044
v -0.13303 0.00832 -0.09318
v -0.14827 0.00149 -0.07993
v -0.15466 -0.01146 -0.06423
v -0.15047 -0.02704 -0.05029
v -0.13683 -0.04109 -0.04185
v -0.11739 -0.04984 -0.04116
v -0.09737 -0.05094 -0.04841
v -0.08212 -0.04411 -0.06166
v -0.07574 -0.03117 -0.07736
v -0.07993 -0.01558 -0.09130
v -0.09357 -0.00153 -0.09975
v -0.09809 0.03649 -0.06931
v -0.11683 0.03891 -0.06092
v -0.13116 0.03321 -0.04715
v -0.13723 0.02092 -0.03167
v -0.13342 0.00533 -0.01864
v -0.12075 -0.00939 -0.01154
v -0.10261 -0.01928 -0.01229
v -0.08386 -0.02171 -0.02067
v -0.06953 -0.01601 -0.03444
v -0.06346 -0.00371 -0.04992
v -0.06727 0.01188 -0.06295
v -0.07995 0.02659 -0.07005
v -0.07827 0.06469 -0.03793
v -0.09561 0.06824 -0.02857
v -0.10897 0.06349 -0.01445
v -0.11479 0.05171 0.00066
v -0.11151 0.03605 0.01269
v -0.09999 0.02071 0.01843
v -0.08333 0.00981 0.01634
v -0.06600 0.00625 0.00698
v -0.05263 0.01100 -0.00715
v -0.04681 0.02279 -0.02225
v -0.05010 0.03844 -0.03428
v -0.06161 0.05378 -0.04002
v -0.05355 0.09102 -0.00636
v -0.06939 0.09550 0.00383
v -0.08180 0.09151 0.01813
v -0.08746 0.08013 0.03273
v -0.08485 0.06440 0.04369
v -0.07467 0.04854 0.04810
v -0.05966 0.03679 0.04476
v -0.04382 0.03232 0.03458
v -0.03141 0.03630 0.02027
v -0.02575 0.04769 0.00568
v -0.02836 0.06342 -0.00529
v -0.03854 0.07928 -0.00969
v -0.02406 0.11468 0.02539
v -0.03836 0.11986 0.03624
v -0.04985 0.11646 0.05056
v -0.05546 0.10539 0.06452
v -0.05369 0.08963 0.07438
v -0.04501 0.07339 0.07749
v -0.03174 0.06102 0.07302
v -0.01745 0.05585 0.06217
v -0.00596 0.05924 0.04784
v -0.00035 0.07031 0.03388
v -0.00212 0.08607 0.02403
v -0.01080 0.10232 0.02092
v 0.00993 0.13485 0.05726
v -0.00282 0.14050 0.06861
v -0.01347 0.13754 0.08281
v -0.01916 0.12675 0.09604
v -0.01836 0.11104 0.10476
v -0.01129 0.09460 0.10663
v 0.00015 0.08185 0.10115
v 0.01291 0.07619 0.08979
v 0.02355 0.07916 0.07560
v 0.02924 0.08994 0.06237
v 0.02844 0.10565 0.05365
v 0.02138 0.12209 0.05178
v 0.04808 0.15075 0.08928
v 0.03665 0.15660 0.10087
v 0.02662 0.15389 0.11469
v 0.02067 0.14336 0.12704
v 0.02040 0.12781 0.13461
v 0.02587 0.11143 0.13538
v 0.03563 0.09859 0.12913
v 0.04705 0.09275 0.11754
v 0.05708 0.09545 0.10372
v 0.06303 0.10599 0.09136
v 0.06331 0.12154 0.08379
v 0.05783 0.13792 0.08303
v 0.08788 0.16172 0.12138
v 0.07756 0.16755 0.13297
v 0.06793 0.16500 0.14623
v 0.06159 0.15474 0.15760
v 0.06023 0.13952 0.16405
v 0.06422 0.12343 0.16384
v 0.07248 0.11077 0.15703
v 0.08280 0.10494 0.14544
v 0.09243 0.10749 0.13218
v 0.09877 0.11775 0.12080
v 0.10013 0.13297 0.11436
v 0.09614 0.14906 0.11457
v 0.12875 0.16776 0.15343
v 0.11947 0.17347 0.16495
v 0.11022 0.17106 0.17760
v 0.10349 0.16117 0.18800
v 0.10109 0.14644 0.19337
v 0.10364 0.13083 0.19226
v 0.11048 0.11852 0.18497
v 0.11976 0.11281 0.17346
v 0.12901 0.11522 0.16081
v 0.13574 0.12512 0.15040
v 0.13815 0.13984 0.14504
v 0.13559 0.15545 0.14615
v 0.16957 0.16858 0.18480
v 0.16101 0.17406 0.19599
v 0.15216 0.17177 0.20803
v 0.14542 0.16231 0.21771
v 0.14258 0.14824 0.22243
v 0.14440 0.13331 0.22093
v 0.15040 0.12153 0.21360
v 0.15897 0.11605 0.20242
v 0.16781 0.11834 0.19038
v 0.17456 0.12779 0.18070
v 0.17740 0.14187 0.17598
v 0.17558 0.15680 0.17748
v -0.13011 -0.14068 -0.19080
v 0.15999 0.14505 0.19920
f 2 13 1
f 3 14 2
f 4 15 3
f 5 16 4
f 5 18 17
f 6 19 18
f 7 20 19
f 8 21 20
f 9 22 21
f 11 22 10
f 12 23 11
f 1 24 12
f 14 25 13
f 15 26 14
f 15 28 27
f 16 29 28
f 17 30 29
f 18 31 30
f 19 32 31
f 21 32 20
f 22 33 21
f 23 34 22
f 24 35 23
f 13 36 24
f 26 37 25
f 26 39 38
f 27 40 39
f 28 41 40
f 29 42 41
f 30 43 42
f 31 44 43
f 33 44 32
f 34 45 33
f 35 46 34
f 36 47 35
f 25 48 36
f 38 49 37
f 38 51 50
f 39 52 51
f 40 53 52
f 41 54 53
f 42 55 54
f 43 56 55
f 45 56 44
f 46 57 45
f 47 58 46
f 48 59 47
f 37 60 48
f 49 62 61
f 50 63 62
f 51 64 63
f 52 65 64
f 53 66 65
f 54 67 66
f 55 68 67
f 57 68 56
f 58 69 57
f 59 70 58
f 60 71 59
f 49 72 60
f 61 74 73
f 62 75 74
f 63 76 75
f 64 77 76
f 65 78 77
f 66 79 78
f 67 80 79
f 69 80 68
f 70 81 69
f 71 82 70
f 72 83 71
f 61 84 72
f 73 86 85
f 74 87 86
f 75 88 87
f 76 89 88
f 77 90 89
f 78 91 90
f 79 92 91
f 81 92 80
f 82 93 81
f 83 94 82
f 84 95 83
f 84 85 96
f 85 98 97
f 86 99 98
f 87 100 99
f 88 101 100
f 89 102 101
f 90 103 102
f 91 104 103
f 93 104 92
f 94 105 93
f 95 106 94
f 96 107 95
f 96 97 108
f 97 110 109
f 98 111 110
f 99 112 111
f 100 113 112
f 101 114 113
f 102 115 114
f 103 116 115
f 105 116 104
f 106 117 105
f 107 118 106
f 108 119 107
f 108 109 120
f 109 122 121
f 110 123 122
f 111 124 123
f 112 125 124
f 113 126 125
f 115 126 114
f 116 127 115
f 117 128 116
f 118 129 117
f 119 130 118
f 119 132 131
f 120 121 132
f 121 134 133
f 122 135 134
f 123 136 135
f 124 137 136
f 125 138 137
f 126 139 138
f 127 140 139
f 128 141 140
f 129 142 141
f 130 143 142
f 131 144 143
f 132 133 144
f 133 146 145
f 134 147 146
f 135 148 147
f 136 149 148
f 137 150 149
f 138 151 150
f 139 152 151
f 140 153 152
f 141 154 153
f 143 154 142
f 143 156 155
f 144 145 156
f 145 158 157
f 147 158 146
f 148 159 147
f 149 160 148
f 150 161 149
f 151 162 150
f 152 163 151
f 152 165 164
f 153 166 165
f 154 167 166
f 155 168 167
f 156 157 168
f 169 2 1
f 169 3 2
f 169 4 3
f 169 5 4
f 169 6 5
f 169 7 6
f 169 8 7
f 169 9 8
f 169 10 9
f 169 11 10
f 169 12 11
f 169 1 12
f 157 158 170
f 158 159 170
f 159 160 170
f 160 161 170
f 161 162 170
f 162 163 170
f 163 164 170
f 164 165 170
f 165 166 170
f 166 167 170
f 167 168 170
f 168 157 170
f 2 14 13
f 3 15 14
f 4 16 15
f 5 17 16
f 5 6 18
f 6 7 19
f 7 8 20
f 8 9 21
f 9 10 22
f 11 23 22
f 12 24 23
f 1 13 24
f 14 26 25
f 15 27 26
f 15 16 28
f 16 17 29
f 17 18 30
f 18 19 31
f 19 20 32
f 21 33 32
f 22 34 33
f 23 35 34
f 24 36 35
f 13 25 36
f 26 38 37
f 26 27 39
f 27 28 40
f 28 29 41
f 29 30 42
f 30 31 43
f 31 32 44
f 33 45 44
f 34 46 45
f 35 47 46
f 36 48 47
f 25 37 48
f 38 50 49
f 38 39 51
f 39 40 52
f 40 41 53
f 41 42 54
f 42 43 55
f 43 44 56
f 45 57 56
f 46 58 57
f 47 59 58
f 48 60 59
f 37 49 60
f 49 50 62
f 50 51 63
f 51 52 64
f 52 53 65
f 53 54 66
f 54 55 67
f 55 56 68
f 57 69 68
f 58 70 69
f 59 71 70
f 60 72 71
f 49 61 72
f 61 62 74
f 62 63 75
f 63 64 76
f 64 65 77
f 65 66 78
f 66 67 79
f 67 68 80
f 69 81 80
f 70 82 81
f 71 83 82
f 72 84 83
f 61 73 84
f 73 74 86
f 74 75 87
f 75 76 88
f 76 77 89
f 77 78 90
f 78 79 91
f 79 80 92
f 81 93 92
f 82 94 93
f 83 95 94
f 84 96 95
f 84 73 85
f 85 86 98
f 86 87 99
f 87 88 100
f 88 89 101
f 89 90 102
f 90 91 103
f 91 92 104
f 93 105 104
f 94 106 105
f 95 107 106
f 96 108 107
f 96 85 97
f 97 98 110
f 98 99 111
f 99 100 112
f 100 101 113
f 101 102 114
f 102 103 115
f 103 104 116
f 105 117 116
f 106 118 117
f 107 119 118
f 108 120 119
f 108 97 109
f 109 110 122
f 110 111 123
f 111 112 124
f 112 113 125
f 113 114 126
f 115 127 126
f 116 128 127
f 117 129 128
f 118 130 129
f 119 131 130
f 119 120 132
f 120 109 121
f 121 122 134
f 122 123 135
f 123 124 136
f 124 125 137
f 125 126 138
f 126 127 139
f 127 128 140
f 128 129 141
f 129 130 142
f 130 131 143
f 131 132 144
f 132 121 133
f 133 134 146
f 134 135 147
f 135 136 148
f 136 137 149
f 137 138 150
f 138 139 151
f 139 140 152
f 140 141 153
f 141 142 154
f 143 155 154
f 143 144 156
f 144 133 145
f 145 146 158
f 147 159 158
f 148 160 159
f 149 161 160
f 150 162 161
f 151 163 162
f 152 164 163
f 152 153 165
f 153 154 166
f 154 155 167
f 155 156 168
f 156 145 157
