# kraken Tentacle2_2_Sucker.obj: Roblox cue frame, recentred on its bounding box
v -0.12676 0.06308 -0.19602
v -0.13917 0.05788 -0.18856
v -0.11805 0.05745 -0.18100
v -0.13220 0.05337 -0.17654
v -0.11314 0.04269 -0.17143
v -0.12827 0.04157 -0.16889
v -0.11391 0.02446 -0.17097
v -0.12888 0.02698 -0.16852
v -0.12006 0.00971 -0.17979
v -0.13381 0.01518 -0.17557
v -0.12925 0.00407 -0.19453
v -0.14116 0.01067 -0.18736
v -0.13796 0.00971 -0.20955
v -0.14813 0.01518 -0.19938
v -0.14287 0.02446 -0.21912
v -0.15206 0.02698 -0.20704
v -0.14210 0.04269 -0.21958
v -0.15144 0.04157 -0.20741
v -0.13595 0.05745 -0.21076
v -0.14652 0.05337 -0.20035
v -0.03260 0.06625 -0.06998
v -0.04439 0.06574 -0.06165
v -0.02471 0.06129 -0.05559
v -0.03808 0.06177 -0.05014
v -0.02288 0.04830 -0.04455
v -0.03661 0.05138 -0.04131
v -0.02779 0.03225 -0.04108
v -0.04055 0.03854 -0.03853
v -0.03759 0.01926 -0.04650
v -0.04838 0.02815 -0.04287
v -0.04851 0.01430 -0.05874
v -0.05712 0.02418 -0.05266
v -0.05640 0.01926 -0.07313
v -0.06343 0.02815 -0.06417
v -0.05824 0.03225 -0.08417
v -0.06490 0.03854 -0.07301
v -0.05332 0.04830 -0.08765
v -0.06097 0.05138 -0.07579
v -0.04353 0.06129 -0.08223
v -0.05313 0.06177 -0.07145
v 0.06031 0.03387 0.05571
v 0.05104 0.03705 0.06496
v 0.06900 0.02988 0.06854
v 0.05799 0.03386 0.07523
v 0.07023 0.01944 0.08061
v 0.05897 0.02551 0.08488
v 0.06353 0.00654 0.08730
v 0.05362 0.01519 0.09024
v 0.05146 -0.00390 0.08605
v 0.04396 0.00684 0.08924
v 0.03864 -0.00789 0.07735
v 0.03370 0.00365 0.08228
v 0.02995 -0.00390 0.06452
v 0.02676 0.00684 0.07201
v 0.02873 0.00654 0.05245
v 0.02577 0.01519 0.06236
v 0.03542 0.01944 0.04576
v 0.03113 0.02551 0.05701
v 0.04749 0.02988 0.04700
v 0.04078 0.03386 0.05800
v 0.13726 -0.03382 0.18156
v 0.13212 -0.02856 0.19166
v 0.14830 -0.03692 0.19097
v 0.14095 -0.03104 0.19918
v 0.15206 -0.04502 0.20280
v 0.14396 -0.03752 0.20865
v 0.14710 -0.05504 0.21254
v 0.13999 -0.04554 0.21644
v 0.13532 -0.06315 0.21646
v 0.13057 -0.05203 0.21958
v 0.12122 -0.06625 0.21307
v 0.11929 -0.05451 0.21687
v 0.11019 -0.06315 0.20367
v 0.11046 -0.05203 0.20935
v 0.10643 -0.05504 0.19184
v 0.10746 -0.04554 0.19988
v 0.11139 -0.04502 0.18210
v 0.11142 -0.03752 0.19209
v 0.12317 -0.03692 0.17817
v 0.12084 -0.03104 0.18895
f 31 34 33
f 25 28 27
f 2 3 1
f 48 49 47
f 3 6 5
f 5 8 7
f 29 32 31
f 23 26 25
f 8 9 7
f 9 12 11
f 67 70 69
f 11 14 13
f 27 30 29
f 22 23 21
f 13 16 15
f 44 45 43
f 46 47 45
f 16 17 15
f 8 6 18
f 52 53 51
f 17 20 19
f 49 52 51
f 19 2 1
f 7 15 19
f 42 43 41
f 34 35 33
f 63 66 65
f 65 68 67
f 36 37 35
f 38 34 30
f 71 74 73
f 37 40 39
f 69 72 71
f 39 22 21
f 35 39 27
f 61 64 63
f 53 56 55
f 55 58 57
f 50 48 60
f 57 60 59
f 60 41 59
f 47 51 59
f 73 76 75
f 76 77 75
f 76 74 66
f 78 79 77
f 79 62 61
f 61 65 69
f 31 32 34
f 25 26 28
f 2 4 3
f 48 50 49
f 3 4 6
f 5 6 8
f 29 30 32
f 23 24 26
f 8 10 9
f 9 10 12
f 67 68 70
f 11 12 14
f 27 28 30
f 22 24 23
f 13 14 16
f 44 46 45
f 46 48 47
f 16 18 17
f 6 4 2
f 2 20 6
f 20 18 6
f 18 16 14
f 14 12 18
f 12 10 18
f 10 8 18
f 52 54 53
f 17 18 20
f 49 50 52
f 19 20 2
f 19 1 7
f 1 3 7
f 3 5 7
f 7 9 11
f 11 13 15
f 15 17 19
f 7 11 15
f 42 44 43
f 34 36 35
f 63 64 66
f 65 66 68
f 36 38 37
f 30 28 22
f 28 26 22
f 26 24 22
f 22 40 38
f 38 36 34
f 34 32 30
f 22 38 30
f 71 72 74
f 37 38 40
f 69 70 72
f 39 40 22
f 31 33 35
f 35 37 39
f 39 21 27
f 21 23 27
f 23 25 27
f 27 29 31
f 31 35 27
f 61 62 64
f 53 54 56
f 55 56 58
f 48 46 44
f 44 42 48
f 42 60 48
f 60 58 52
f 58 56 52
f 56 54 52
f 52 50 60
f 57 58 60
f 60 42 41
f 43 45 47
f 47 49 51
f 51 53 59
f 53 55 59
f 55 57 59
f 59 41 43
f 43 47 59
f 73 74 76
f 76 78 77
f 74 72 66
f 72 70 66
f 70 68 66
f 66 64 62
f 62 80 66
f 80 78 66
f 78 76 66
f 78 80 79
f 79 80 62
f 69 71 73
f 73 75 77
f 77 79 61
f 61 63 65
f 65 67 69
f 69 73 77
f 77 61 69
