# kraken Tentacle3_2_Ink.obj: Roblox cue frame, recentred on its bounding box
v 0.21180 0.05338 -0.25710
v 0.18486 0.04625 -0.27097
v 0.16094 0.02675 -0.27495
v 0.14642 0.00011 -0.26799
v 0.14521 -0.02652 -0.25193
v 0.15763 -0.04602 -0.23109
v 0.18035 -0.05316 -0.21105
v 0.20728 -0.04602 -0.19719
v 0.23121 -0.02652 -0.19320
v 0.24572 0.00011 -0.20017
v 0.24693 0.02675 -0.21622
v 0.23451 0.04625 -0.23706
v 0.18511 0.07671 -0.21817
v 0.15934 0.06915 -0.23266
v 0.13671 0.04930 -0.23773
v 0.12328 0.02250 -0.23200
v 0.12266 -0.00409 -0.21702
v 0.13501 -0.02333 -0.19680
v 0.15702 -0.03007 -0.17675
v 0.18279 -0.02251 -0.16226
v 0.20542 -0.00266 -0.15720
v 0.21885 0.02414 -0.16292
v 0.21947 0.05073 -0.17790
v 0.20712 0.06997 -0.19812
v 0.15308 0.09697 -0.17740
v 0.12912 0.08861 -0.19326
v 0.10873 0.06793 -0.20043
v 0.09736 0.04047 -0.19699
v 0.09806 0.01359 -0.18387
v 0.11064 -0.00551 -0.16458
v 0.13173 -0.01171 -0.14429
v 0.15569 -0.00334 -0.12843
v 0.17608 0.01734 -0.12126
v 0.18745 0.04480 -0.12470
v 0.18675 0.07168 -0.13782
v 0.17417 0.09078 -0.15711
v 0.11758 0.11233 -0.13655
v 0.09539 0.10348 -0.15354
v 0.07729 0.08231 -0.16267
v 0.06813 0.05449 -0.16150
v 0.07037 0.02748 -0.15035
v 0.08340 0.00851 -0.13220
v 0.10373 0.00266 -0.11191
v 0.12592 0.01151 -0.09493
v 0.14402 0.03268 -0.08579
v 0.15318 0.06050 -0.08696
v 0.15094 0.08751 -0.09811
v 0.13791 0.10648 -0.11626
v 0.07938 0.12219 -0.09567
v 0.05884 0.11314 -0.11354
v 0.04301 0.09183 -0.12447
v 0.03616 0.06399 -0.12552
v 0.04010 0.03706 -0.11642
v 0.05379 0.01827 -0.09960
v 0.07355 0.01264 -0.07956
v 0.09410 0.02169 -0.06169
v 0.10992 0.04300 -0.05076
v 0.11678 0.07084 -0.04971
v 0.11283 0.09777 -0.05881
v 0.09915 0.11656 -0.07563
v 0.03934 0.12608 -0.05480
v 0.02026 0.11706 -0.07332
v 0.00662 0.09596 -0.08586
v 0.00207 0.06844 -0.08906
v 0.00784 0.04187 -0.08206
v 0.02238 0.02337 -0.06674
v 0.04179 0.01789 -0.04720
v 0.06087 0.02691 -0.02868
v 0.07451 0.04801 -0.01614
v 0.07905 0.07553 -0.01294
v 0.07328 0.10211 -0.01994
v 0.05875 0.12061 -0.03526
v -0.00161 0.12368 -0.01401
v -0.01945 0.11486 -0.03292
v -0.03107 0.09427 -0.04687
v -0.03337 0.06742 -0.05212
v -0.02572 0.04150 -0.04725
v -0.01018 0.02347 -0.03358
v 0.00909 0.01814 -0.01476
v 0.02693 0.02696 0.00415
v 0.03855 0.04755 0.01810
v 0.04085 0.07440 0.02335
v 0.03320 0.10032 0.01848
v 0.01766 0.11835 0.00481
v -0.04246 0.11477 0.02666
v -0.05929 0.10627 0.00759
v -0.06913 0.08643 -0.00755
v -0.06932 0.06059 -0.01472
v -0.05982 0.03565 -0.01199
v -0.04318 0.01831 -0.00008
v -0.02384 0.01320 0.01780
v -0.00700 0.02171 0.03687
v 0.00283 0.04154 0.05202
v 0.00302 0.06739 0.05918
v -0.00648 0.09233 0.05645
v -0.02312 0.10967 0.04455
v -0.08216 0.09935 0.06716
v -0.09825 0.09118 0.04818
v -0.10656 0.07229 0.03206
v -0.10487 0.04774 0.02311
v -0.09362 0.02410 0.02374
v -0.07583 0.00770 0.03378
v -0.05627 0.00295 0.05054
v -0.04018 0.01112 0.06952
v -0.03186 0.03001 0.08564
v -0.03356 0.05456 0.09458
v -0.04481 0.07821 0.09395
v -0.06260 0.09460 0.08391
v -0.11967 0.07754 0.10743
v -0.13525 0.06967 0.08877
v -0.14233 0.05183 0.07191
v -0.13902 0.02881 0.06136
v -0.12619 0.00676 0.05994
v -0.10730 -0.00841 0.06805
v -0.08739 -0.01262 0.08350
v -0.07181 -0.00476 0.10215
v -0.06473 0.01308 0.11902
v -0.06805 0.03611 0.12957
v -0.08087 0.05816 0.13098
v -0.09976 0.07332 0.12288
v -0.15394 0.04965 0.14742
v -0.16921 0.04197 0.12932
v -0.17536 0.02523 0.11195
v -0.17074 0.00389 0.09997
v -0.15659 -0.01632 0.09660
v -0.13670 -0.02998 0.10273
v -0.11640 -0.03344 0.11673
v -0.10113 -0.02577 0.13484
v -0.09498 -0.00902 0.15221
v -0.09960 0.01231 0.16418
v -0.11375 0.03252 0.16755
v -0.13364 0.04619 0.16142
v -0.18399 0.01616 0.18711
v -0.19911 0.00852 0.16976
v -0.20460 -0.00719 0.15212
v -0.19901 -0.02674 0.13893
v -0.18383 -0.04491 0.13371
v -0.16313 -0.05683 0.13786
v -0.14246 -0.05929 0.15028
v -0.12735 -0.05165 0.16763
v -0.12185 -0.03595 0.18526
v -0.12744 -0.01639 0.19846
v -0.14262 0.00177 0.20368
v -0.16332 0.01369 0.19952
v -0.20890 -0.02229 0.22643
v -0.22394 -0.03010 0.21003
v -0.22903 -0.04487 0.19237
v -0.22280 -0.06263 0.17817
v -0.20693 -0.07864 0.17124
v -0.18567 -0.08860 0.17344
v -0.16471 -0.08984 0.18418
v -0.14968 -0.08203 0.20058
v -0.14459 -0.06727 0.21825
v -0.15081 -0.04950 0.23245
v -0.16668 -0.03349 0.23938
v -0.18795 -0.02353 0.23717
v -0.22731 -0.06343 0.26393
v -0.24208 -0.07128 0.24826
v -0.24693 -0.08542 0.23090
v -0.24058 -0.10206 0.21649
v -0.22471 -0.11674 0.20889
v -0.20359 -0.12554 0.21015
v -0.18288 -0.12608 0.21992
v -0.16811 -0.11824 0.23558
v -0.16326 -0.10410 0.25295
v -0.16961 -0.08746 0.26736
v -0.18548 -0.07277 0.27495
v -0.20660 -0.06398 0.27370
v 0.19607 0.00011 -0.23408
v -0.20509 -0.09476 0.24192
f 1 14 13
f 2 15 14
f 3 16 15
f 4 17 16
f 5 18 17
f 7 18 6
f 8 19 7
f 9 20 8
f 10 21 9
f 11 22 10
f 12 23 11
f 12 13 24
f 14 25 13
f 15 26 14
f 16 27 15
f 17 28 16
f 17 30 29
f 19 30 18
f 20 31 19
f 21 32 20
f 22 33 21
f 23 34 22
f 24 35 23
f 13 36 24
f 26 37 25
f 27 38 26
f 28 39 27
f 29 40 28
f 29 42 41
f 30 43 42
f 32 43 31
f 33 44 32
f 34 45 33
f 35 46 34
f 36 47 35
f 25 48 36
f 38 49 37
f 39 50 38
f 40 51 39
f 40 53 52
f 41 54 53
f 42 55 54
f 43 56 55
f 45 56 44
f 46 57 45
f 47 58 46
f 48 59 47
f 37 60 48
f 50 61 49
f 51 62 50
f 52 63 51
f 52 65 64
f 53 66 65
f 54 67 66
f 55 68 67
f 57 68 56
f 58 69 57
f 59 70 58
f 60 71 59
f 49 72 60
f 62 73 61
f 63 74 62
f 64 75 63
f 64 77 76
f 65 78 77
f 66 79 78
f 67 80 79
f 68 81 80
f 70 81 69
f 71 82 70
f 72 83 71
f 61 84 72
f 74 85 73
f 75 86 74
f 76 87 75
f 76 89 88
f 77 90 89
f 78 91 90
f 79 92 91
f 80 93 92
f 82 93 81
f 83 94 82
f 84 95 83
f 73 96 84
f 86 97 85
f 87 98 86
f 87 100 99
f 88 101 100
f 89 102 101
f 90 103 102
f 91 104 103
f 92 105 104
f 93 106 105
f 95 106 94
f 96 107 95
f 85 108 96
f 98 109 97
f 99 110 98
f 99 112 111
f 100 113 112
f 101 114 113
f 102 115 114
f 103 116 115
f 104 117 116
f 105 118 117
f 106 119 118
f 108 119 107
f 97 120 108
f 110 121 109
f 111 122 110
f 111 124 123
f 112 125 124
f 113 126 125
f 114 127 126
f 115 128 127
f 116 129 128
f 117 130 129
f 118 131 130
f 120 131 119
f 109 132 120
f 122 133 121
f 123 134 122
f 123 136 135
f 124 137 136
f 125 138 137
f 126 139 138
f 127 140 139
f 128 141 140
f 129 142 141
f 130 143 142
f 131 144 143
f 121 144 132
f 134 145 133
f 135 146 134
f 135 148 147
f 136 149 148
f 137 150 149
f 138 151 150
f 139 152 151
f 140 153 152
f 141 154 153
f 142 155 154
f 143 156 155
f 133 156 144
f 145 158 157
f 147 158 146
f 148 159 147
f 149 160 148
f 150 161 149
f 151 162 150
f 152 163 151
f 152 165 164
f 153 166 165
f 154 167 166
f 155 168 167
f 156 157 168
f 169 2 1
f 169 3 2
f 169 4 3
f 169 5 4
f 169 6 5
f 169 7 6
f 169 8 7
f 169 9 8
f 169 10 9
f 169 11 10
f 169 12 11
f 169 1 12
f 157 158 170
f 158 159 170
f 159 160 170
f 160 161 170
f 161 162 170
f 162 163 170
f 163 164 170
f 164 165 170
f 165 166 170
f 166 167 170
f 167 168 170
f 168 157 170
f 1 2 14
f 2 3 15
f 3 4 16
f 4 5 17
f 5 6 18
f 7 19 18
f 8 20 19
f 9 21 20
f 10 22 21
f 11 23 22
f 12 24 23
f 12 1 13
f 14 26 25
f 15 27 26
f 16 28 27
f 17 29 28
f 17 18 30
f 19 31 30
f 20 32 31
f 21 33 32
f 22 34 33
f 23 35 34
f 24 36 35
f 13 25 36
f 26 38 37
f 27 39 38
f 28 40 39
f 29 41 40
f 29 30 42
f 30 31 43
f 32 44 43
f 33 45 44
f 34 46 45
f 35 47 46
f 36 48 47
f 25 37 48
f 38 50 49
f 39 51 50
f 40 52 51
f 40 41 53
f 41 42 54
f 42 43 55
f 43 44 56
f 45 57 56
f 46 58 57
f 47 59 58
f 48 60 59
f 37 49 60
f 50 62 61
f 51 63 62
f 52 64 63
f 52 53 65
f 53 54 66
f 54 55 67
f 55 56 68
f 57 69 68
f 58 70 69
f 59 71 70
f 60 72 71
f 49 61 72
f 62 74 73
f 63 75 74
f 64 76 75
f 64 65 77
f 65 66 78
f 66 67 79
f 67 68 80
f 68 69 81
f 70 82 81
f 71 83 82
f 72 84 83
f 61 73 84
f 74 86 85
f 75 87 86
f 76 88 87
f 76 77 89
f 77 78 90
f 78 79 91
f 79 80 92
f 80 81 93
f 82 94 93
f 83 95 94
f 84 96 95
f 73 85 96
f 86 98 97
f 87 99 98
f 87 88 100
f 88 89 101
f 89 90 102
f 90 91 103
f 91 92 104
f 92 93 105
f 93 94 106
f 95 107 106
f 96 108 107
f 85 97 108
f 98 110 109
f 99 111 110
f 99 100 112
f 100 101 113
f 101 102 114
f 102 103 115
f 103 104 116
f 104 105 117
f 105 106 118
f 106 107 119
f 108 120 119
f 97 109 120
f 110 122 121
f 111 123 122
f 111 112 124
f 112 113 125
f 113 114 126
f 114 115 127
f 115 116 128
f 116 117 129
f 117 118 130
f 118 119 131
f 120 132 131
f 109 121 132
f 122 134 133
f 123 135 134
f 123 124 136
f 124 125 137
f 125 126 138
f 126 127 139
f 127 128 140
f 128 129 141
f 129 130 142
f 130 131 143
f 131 132 144
f 121 133 144
f 134 146 145
f 135 147 146
f 135 136 148
f 136 137 149
f 137 138 150
f 138 139 151
f 139 140 152
f 140 141 153
f 141 142 154
f 142 143 155
f 143 144 156
f 133 145 156
f 145 146 158
f 147 159 158
f 148 160 159
f 149 161 160
f 150 162 161
f 151 163 162
f 152 164 163
f 152 153 165
f 153 154 166
f 154 155 167
f 155 156 168
f 156 145 157
