# kraken Tentacle4_3_Sucker.obj: Roblox cue frame, recentred on its bounding box
v -0.14231 -0.10117 -0.11542
v -0.14464 -0.11056 -0.10917
v -0.12935 -0.10475 -0.11298
v -0.13427 -0.11342 -0.10722
v -0.11978 -0.11413 -0.11566
v -0.12662 -0.12092 -0.10937
v -0.11725 -0.12571 -0.12245
v -0.12459 -0.13019 -0.11479
v -0.12273 -0.13508 -0.13074
v -0.12898 -0.13768 -0.12143
v -0.13413 -0.13866 -0.13738
v -0.13809 -0.14055 -0.12674
v -0.14708 -0.13508 -0.13982
v -0.14846 -0.13768 -0.12869
v -0.15665 -0.12571 -0.13713
v -0.15611 -0.13019 -0.12654
v -0.15918 -0.11413 -0.13034
v -0.15814 -0.12092 -0.12111
v -0.15370 -0.10475 -0.12205
v -0.15375 -0.11342 -0.11448
v -0.08918 0.00970 -0.03540
v -0.09288 0.00247 -0.02869
v -0.07810 0.00608 -0.03085
v -0.08402 -0.00042 -0.02505
v -0.06994 -0.00338 -0.03043
v -0.07749 -0.00799 -0.02471
v -0.06780 -0.01508 -0.03430
v -0.07578 -0.01735 -0.02781
v -0.07250 -0.02454 -0.04099
v -0.07954 -0.02492 -0.03316
v -0.08225 -0.02816 -0.04794
v -0.08734 -0.02781 -0.03872
v -0.09333 -0.02454 -0.05249
v -0.09620 -0.02492 -0.04236
v -0.10149 -0.01508 -0.05291
v -0.10274 -0.01735 -0.04270
v -0.10363 -0.00338 -0.04904
v -0.10445 -0.00799 -0.03960
v -0.09893 0.00608 -0.04235
v -0.10068 -0.00042 -0.03425
v 0.01263 0.09682 0.04499
v 0.00832 0.09195 0.05195
v 0.02203 0.09336 0.05023
v 0.01584 0.08918 0.05614
v 0.02836 0.08431 0.05262
v 0.02091 0.08194 0.05805
v 0.02921 0.07312 0.05125
v 0.02159 0.07299 0.05696
v 0.02425 0.06407 0.04665
v 0.01762 0.06575 0.05327
v 0.01537 0.06061 0.04056
v 0.01052 0.06298 0.04840
v 0.00597 0.06407 0.03532
v 0.00300 0.06575 0.04421
v -0.00036 0.07312 0.03293
v -0.00207 0.07299 0.04230
v -0.00121 0.08431 0.03430
v -0.00275 0.08194 0.04339
v 0.00375 0.09336 0.03891
v 0.00122 0.08918 0.04708
v 0.14657 0.14055 0.12548
v 0.14224 0.13781 0.13222
v 0.15450 0.13745 0.13081
v 0.14859 0.13533 0.13648
v 0.15918 0.12934 0.13444
v 0.15234 0.12884 0.13938
v 0.15883 0.11932 0.13498
v 0.15206 0.12083 0.13982
v 0.15359 0.11121 0.13223
v 0.14786 0.11434 0.13762
v 0.14544 0.10812 0.12724
v 0.14134 0.11186 0.13362
v 0.13751 0.11121 0.12191
v 0.13500 0.11434 0.12936
v 0.13283 0.11932 0.11829
v 0.13125 0.12083 0.12646
v 0.13317 0.12934 0.11774
v 0.13153 0.12884 0.12603
v 0.13842 0.13745 0.12049
v 0.13573 0.13533 0.12823
f 31 34 33
f 25 28 27
f 2 3 1
f 47 50 49
f 3 6 5
f 5 8 7
f 30 31 29
f 24 25 23
f 7 10 9
f 9 12 11
f 68 69 67
f 12 13 11
f 28 29 27
f 22 23 21
f 13 16 15
f 43 46 45
f 45 48 47
f 16 17 15
f 14 10 6
f 51 54 53
f 17 20 19
f 49 52 51
f 19 2 1
f 3 7 15
f 41 44 43
f 33 36 35
f 63 66 65
f 66 67 65
f 35 38 37
f 32 30 22
f 72 73 71
f 37 40 39
f 70 71 69
f 39 22 21
f 23 27 31
f 61 64 63
f 54 55 53
f 56 57 55
f 44 60 52
f 57 60 59
f 60 41 59
f 41 43 51
f 74 75 73
f 75 78 77
f 70 66 78
f 78 79 77
f 79 62 61
f 67 69 77
f 31 32 34
f 25 26 28
f 2 4 3
f 47 48 50
f 3 4 6
f 5 6 8
f 30 32 31
f 24 26 25
f 7 8 10
f 9 10 12
f 68 70 69
f 12 14 13
f 28 30 29
f 22 24 23
f 13 14 16
f 43 44 46
f 45 46 48
f 16 18 17
f 6 4 2
f 2 20 18
f 18 16 14
f 14 12 10
f 10 8 6
f 6 2 18
f 18 14 6
f 51 52 54
f 17 18 20
f 49 50 52
f 19 20 2
f 19 1 3
f 3 5 7
f 7 9 11
f 11 13 7
f 13 15 7
f 15 17 19
f 19 3 15
f 41 42 44
f 33 34 36
f 63 64 66
f 66 68 67
f 35 36 38
f 30 28 22
f 28 26 22
f 26 24 22
f 22 40 38
f 38 36 22
f 36 34 22
f 34 32 22
f 72 74 73
f 37 38 40
f 70 72 71
f 39 40 22
f 31 33 35
f 35 37 39
f 39 21 23
f 23 25 27
f 27 29 31
f 31 35 39
f 39 23 31
f 61 62 64
f 54 56 55
f 56 58 57
f 48 46 44
f 44 42 60
f 60 58 56
f 56 54 60
f 54 52 60
f 52 50 48
f 48 44 52
f 57 58 60
f 60 42 41
f 43 45 51
f 45 47 51
f 47 49 51
f 51 53 55
f 55 57 51
f 57 59 51
f 59 41 51
f 74 76 75
f 75 76 78
f 74 72 70
f 70 68 66
f 66 64 62
f 62 80 66
f 80 78 66
f 78 76 74
f 74 70 78
f 78 80 79
f 79 80 62
f 69 71 73
f 73 75 69
f 75 77 69
f 77 79 65
f 79 61 65
f 61 63 65
f 65 67 77
