# kraken Tentacle4_2_Ink.obj: Roblox cue frame, recentred on its bounding box
v 0.09650 -0.02240 -0.20497
v 0.07131 -0.03043 -0.22139
v 0.05360 -0.05235 -0.23459
v 0.04812 -0.08230 -0.24103
v 0.05634 -0.11225 -0.23900
v 0.07605 -0.13418 -0.22903
v 0.10197 -0.14220 -0.21379
v 0.12716 -0.13418 -0.19737
v 0.14487 -0.11225 -0.18417
v 0.15035 -0.08230 -0.17772
v 0.14214 -0.05235 -0.17976
v 0.12243 -0.03043 -0.18973
v 0.07770 -0.02670 -0.17456
v 0.05299 -0.03457 -0.19066
v 0.03532 -0.05611 -0.20313
v 0.02941 -0.08555 -0.20861
v 0.03685 -0.11500 -0.20564
v 0.05564 -0.13657 -0.19502
v 0.08076 -0.14449 -0.17958
v 0.10546 -0.13662 -0.16347
v 0.12314 -0.11509 -0.15101
v 0.12905 -0.08565 -0.14553
v 0.12161 -0.05619 -0.14850
v 0.10281 -0.03462 -0.15912
v 0.05919 -0.02834 -0.14591
v 0.03490 -0.03604 -0.16160
v 0.01689 -0.05715 -0.17278
v 0.00999 -0.08603 -0.17645
v 0.01603 -0.11493 -0.17164
v 0.03341 -0.13612 -0.15962
v 0.05746 -0.14391 -0.14362
v 0.08174 -0.13621 -0.12792
v 0.09975 -0.11510 -0.11674
v 0.10666 -0.08622 -0.11307
v 0.10061 -0.05732 -0.11789
v 0.08324 -0.03613 -0.12991
v 0.04016 -0.02736 -0.11726
v 0.01617 -0.03486 -0.13232
v -0.00228 -0.05545 -0.14207
v -0.01024 -0.08360 -0.14388
v -0.00558 -0.11177 -0.13726
v 0.01045 -0.13242 -0.12401
v 0.03356 -0.14000 -0.10765
v 0.05756 -0.13250 -0.09258
v 0.07601 -0.11191 -0.08284
v 0.08397 -0.08376 -0.08103
v 0.07931 -0.05559 -0.08764
v 0.06328 -0.03495 -0.10090
v 0.02093 -0.02359 -0.08855
v -0.00290 -0.03085 -0.10279
v -0.02188 -0.05077 -0.11096
v -0.03091 -0.07800 -0.11087
v -0.02758 -0.10527 -0.10255
v -0.01277 -0.12525 -0.08823
v 0.00954 -0.13259 -0.07174
v 0.03337 -0.12533 -0.05750
v 0.05235 -0.10541 -0.04934
v 0.06138 -0.07818 -0.04942
v 0.05805 -0.05091 -0.05774
v 0.04324 -0.03093 -0.07206
v 0.00184 -0.01690 -0.05974
v -0.02196 -0.02382 -0.07295
v -0.04151 -0.04290 -0.07943
v -0.05158 -0.06903 -0.07744
v -0.04948 -0.09522 -0.06753
v -0.03576 -0.11444 -0.05233
v -0.01410 -0.12154 -0.03594
v 0.00970 -0.11462 -0.02273
v 0.02925 -0.09554 -0.01625
v 0.03932 -0.06941 -0.01823
v 0.03722 -0.04322 -0.02815
v 0.02350 -0.02400 -0.04335
v -0.01674 -0.00719 -0.03077
v -0.04058 -0.01363 -0.04276
v -0.06072 -0.03169 -0.04746
v -0.07176 -0.05653 -0.04361
v -0.07074 -0.08149 -0.03223
v -0.05794 -0.09989 -0.01637
v -0.03678 -0.10680 -0.00030
v -0.01294 -0.10036 0.01170
v 0.00719 -0.08230 0.01640
v 0.01823 -0.05746 0.01254
v 0.01721 -0.03249 0.00116
v 0.00441 -0.01410 -0.01469
v -0.03438 0.00561 -0.00157
v -0.05832 -0.00019 -0.01219
v -0.07900 -0.01703 -0.01505
v -0.09088 -0.04040 -0.00938
v -0.09078 -0.06404 0.00330
v -0.07872 -0.08161 0.01959
v -0.05794 -0.08841 0.03513
v -0.03400 -0.08261 0.04575
v -0.01332 -0.06577 0.04861
v -0.00144 -0.04240 0.04294
v -0.00154 -0.01876 0.03026
v -0.01360 -0.00119 0.01396
v -0.05061 0.02152 0.02789
v -0.07466 0.01654 0.01879
v -0.09579 0.00110 0.01780
v -0.10835 -0.02065 0.02520
v -0.10897 -0.04291 0.03899
v -0.09748 -0.05969 0.05549
v -0.07697 -0.06651 0.07027
v -0.05292 -0.06153 0.07938
v -0.03179 -0.04610 0.08037
v -0.01923 -0.02434 0.07297
v -0.01861 -0.00209 0.05918
v -0.03010 0.01470 0.04268
v -0.06493 0.04047 0.05768
v -0.08904 0.03652 0.05021
v -0.11048 0.02266 0.05109
v -0.12352 0.00262 0.06009
v -0.12465 -0.01824 0.07480
v -0.11359 -0.03432 0.09127
v -0.09328 -0.04133 0.10510
v -0.06917 -0.03737 0.11258
v -0.04773 -0.02351 0.11169
v -0.03469 -0.00347 0.10269
v -0.03355 0.01739 0.08799
v -0.04462 0.03347 0.07151
v -0.07681 0.06236 0.08784
v -0.10087 0.05961 0.08207
v -0.12244 0.04746 0.08478
v -0.13574 0.02919 0.09524
v -0.13719 0.00968 0.11065
v -0.12642 -0.00583 0.12687
v -0.10630 -0.01320 0.13956
v -0.08224 -0.01044 0.14532
v -0.06067 0.00170 0.14261
v -0.04738 0.01997 0.13216
v -0.04592 0.03948 0.11675
v -0.05670 0.05500 0.10053
v -0.08569 0.08696 0.11839
v -0.10956 0.08557 0.11439
v -0.13103 0.07523 0.11886
v -0.14435 0.05873 0.13060
v -0.14595 0.04047 0.14647
v -0.13540 0.02536 0.16222
v -0.11552 0.01744 0.17362
v -0.09165 0.01883 0.17763
v -0.07018 0.02916 0.17316
v -0.05686 0.04567 0.16141
v -0.05527 0.06393 0.14554
v -0.06582 0.07904 0.12979
v -0.09102 0.11395 0.14936
v -0.11450 0.11404 0.14713
v -0.13563 0.10555 0.15326
v -0.14875 0.09075 0.16610
v -0.15035 0.07360 0.18221
v -0.14000 0.05871 0.19728
v -0.12047 0.05006 0.20727
v -0.09699 0.04997 0.20950
v -0.07586 0.05846 0.20337
v -0.06274 0.07326 0.19053
v -0.06114 0.09040 0.17442
v -0.07149 0.10530 0.15935
v -0.09218 0.14364 0.18157
v -0.11503 0.14449 0.18021
v -0.13560 0.13702 0.18700
v -0.14838 0.12325 0.20011
v -0.14993 0.10686 0.21605
v -0.13985 0.09224 0.23053
v -0.12084 0.08332 0.23967
v -0.09798 0.08247 0.24103
v -0.07741 0.08993 0.23425
v -0.06464 0.10371 0.22113
v -0.06308 0.12010 0.20520
v -0.07316 0.13472 0.19072
v 0.09924 -0.08230 -0.20938
v -0.10651 0.11348 0.21062
f 1 14 13
f 3 14 2
f 4 15 3
f 5 16 4
f 6 17 5
f 7 18 6
f 7 20 19
f 8 21 20
f 9 22 21
f 10 23 22
f 11 24 23
f 12 13 24
f 14 25 13
f 15 26 14
f 16 27 15
f 17 28 16
f 17 30 29
f 18 31 30
f 19 32 31
f 20 33 32
f 21 34 33
f 22 35 34
f 23 36 35
f 13 36 24
f 26 37 25
f 27 38 26
f 28 39 27
f 29 40 28
f 29 42 41
f 30 43 42
f 31 44 43
f 32 45 44
f 33 46 45
f 34 47 46
f 36 47 35
f 25 48 36
f 38 49 37
f 39 50 38
f 40 51 39
f 41 52 40
f 41 54 53
f 42 55 54
f 43 56 55
f 44 57 56
f 45 58 57
f 46 59 58
f 48 59 47
f 37 60 48
f 50 61 49
f 51 62 50
f 52 63 51
f 53 64 52
f 53 66 65
f 54 67 66
f 55 68 67
f 56 69 68
f 57 70 69
f 59 70 58
f 60 71 59
f 49 72 60
f 62 73 61
f 63 74 62
f 64 75 63
f 65 76 64
f 65 78 77
f 66 79 78
f 67 80 79
f 68 81 80
f 69 82 81
f 71 82 70
f 72 83 71
f 61 84 72
f 74 85 73
f 75 86 74
f 76 87 75
f 77 88 76
f 77 90 89
f 78 91 90
f 79 92 91
f 80 93 92
f 82 93 81
f 83 94 82
f 84 95 83
f 73 96 84
f 86 97 85
f 87 98 86
f 88 99 87
f 89 100 88
f 89 102 101
f 90 103 102
f 91 104 103
f 93 104 92
f 94 105 93
f 95 106 94
f 96 107 95
f 85 108 96
f 98 109 97
f 99 110 98
f 100 111 99
f 101 112 100
f 101 114 113
f 102 115 114
f 103 116 115
f 105 116 104
f 106 117 105
f 107 118 106
f 108 119 107
f 97 120 108
f 110 121 109
f 111 122 110
f 112 123 111
f 113 124 112
f 113 126 125
f 114 127 126
f 115 128 127
f 117 128 116
f 118 129 117
f 119 130 118
f 120 131 119
f 109 132 120
f 122 133 121
f 123 134 122
f 124 135 123
f 125 136 124
f 125 138 137
f 126 139 138
f 128 139 127
f 129 140 128
f 130 141 129
f 131 142 130
f 132 143 131
f 121 144 132
f 134 145 133
f 135 146 134
f 136 147 135
f 137 148 136
f 137 150 149
f 138 151 150
f 140 151 139
f 141 152 140
f 142 153 141
f 143 154 142
f 144 155 143
f 133 156 144
f 145 158 157
f 146 159 158
f 147 160 159
f 148 161 160
f 150 161 149
f 151 162 150
f 152 163 151
f 153 164 152
f 154 165 153
f 155 166 154
f 155 168 167
f 156 157 168
f 169 2 1
f 169 3 2
f 169 4 3
f 169 5 4
f 169 6 5
f 169 7 6
f 169 8 7
f 169 9 8
f 169 10 9
f 169 11 10
f 169 12 11
f 169 1 12
f 157 158 170
f 158 159 170
f 159 160 170
f 160 161 170
f 161 162 170
f 162 163 170
f 163 164 170
f 164 165 170
f 165 166 170
f 166 167 170
f 167 168 170
f 168 157 170
f 1 2 14
f 3 15 14
f 4 16 15
f 5 17 16
f 6 18 17
f 7 19 18
f 7 8 20
f 8 9 21
f 9 10 22
f 10 11 23
f 11 12 24
f 12 1 13
f 14 26 25
f 15 27 26
f 16 28 27
f 17 29 28
f 17 18 30
f 18 19 31
f 19 20 32
f 20 21 33
f 21 22 34
f 22 23 35
f 23 24 36
f 13 25 36
f 26 38 37
f 27 39 38
f 28 40 39
f 29 41 40
f 29 30 42
f 30 31 43
f 31 32 44
f 32 33 45
f 33 34 46
f 34 35 47
f 36 48 47
f 25 37 48
f 38 50 49
f 39 51 50
f 40 52 51
f 41 53 52
f 41 42 54
f 42 43 55
f 43 44 56
f 44 45 57
f 45 46 58
f 46 47 59
f 48 60 59
f 37 49 60
f 50 62 61
f 51 63 62
f 52 64 63
f 53 65 64
f 53 54 66
f 54 55 67
f 55 56 68
f 56 57 69
f 57 58 70
f 59 71 70
f 60 72 71
f 49 61 72
f 62 74 73
f 63 75 74
f 64 76 75
f 65 77 76
f 65 66 78
f 66 67 79
f 67 68 80
f 68 69 81
f 69 70 82
f 71 83 82
f 72 84 83
f 61 73 84
f 74 86 85
f 75 87 86
f 76 88 87
f 77 89 88
f 77 78 90
f 78 79 91
f 79 80 92
f 80 81 93
f 82 94 93
f 83 95 94
f 84 96 95
f 73 85 96
f 86 98 97
f 87 99 98
f 88 100 99
f 89 101 100
f 89 90 102
f 90 91 103
f 91 92 104
f 93 105 104
f 94 106 105
f 95 107 106
f 96 108 107
f 85 97 108
f 98 110 109
f 99 111 110
f 100 112 111
f 101 113 112
f 101 102 114
f 102 103 115
f 103 104 116
f 105 117 116
f 106 118 117
f 107 119 118
f 108 120 119
f 97 109 120
f 110 122 121
f 111 123 122
f 112 124 123
f 113 125 124
f 113 114 126
f 114 115 127
f 115 116 128
f 117 129 128
f 118 130 129
f 119 131 130
f 120 132 131
f 109 121 132
f 122 134 133
f 123 135 134
f 124 136 135
f 125 137 136
f 125 126 138
f 126 127 139
f 128 140 139
f 129 141 140
f 130 142 141
f 131 143 142
f 132 144 143
f 121 133 144
f 134 146 145
f 135 147 146
f 136 148 147
f 137 149 148
f 137 138 150
f 138 139 151
f 140 152 151
f 141 153 152
f 142 154 153
f 143 155 154
f 144 156 155
f 133 145 156
f 145 146 158
f 146 147 159
f 147 148 160
f 148 149 161
f 150 162 161
f 151 163 162
f 152 164 163
f 153 165 164
f 154 166 165
f 155 167 166
f 155 156 168
f 156 145 157
