# kraken Tentacle3_3_Core.obj: Roblox cue frame, recentred on its bounding box
v -0.05775 0.19389 -0.20826
v -0.07113 0.18819 -0.21822
v -0.07372 0.17441 -0.22891
v -0.06400 0.16063 -0.23406
v -0.04768 0.15493 -0.23066
v -0.03430 0.16063 -0.22071
v -0.03171 0.17441 -0.21002
v -0.04142 0.18819 -0.20487
v -0.07315 0.16946 -0.17394
v -0.08629 0.16374 -0.18341
v -0.08871 0.15051 -0.19408
v -0.07900 0.13752 -0.19970
v -0.06285 0.13237 -0.19699
v -0.04971 0.13808 -0.18752
v -0.04729 0.15131 -0.17685
v -0.05700 0.16431 -0.17122
v -0.08540 0.14176 -0.13913
v -0.09839 0.13583 -0.14781
v -0.10063 0.12331 -0.15864
v -0.09081 0.11152 -0.16526
v -0.07470 0.10737 -0.16380
v -0.06172 0.11330 -0.15511
v -0.05947 0.12582 -0.14429
v -0.06929 0.13761 -0.13767
v -0.09373 0.11170 -0.10451
v -0.10652 0.10544 -0.11232
v -0.10867 0.09352 -0.12314
v -0.09891 0.08293 -0.13063
v -0.08296 0.07986 -0.13041
v -0.07017 0.08612 -0.12261
v -0.06803 0.09804 -0.11179
v -0.07779 0.10863 -0.10430
v -0.09770 0.07984 -0.07011
v -0.11022 0.07313 -0.07695
v -0.11232 0.06171 -0.08760
v -0.10277 0.05225 -0.09583
v -0.08715 0.05030 -0.09682
v -0.07463 0.05700 -0.08998
v -0.07253 0.06843 -0.07933
v -0.08209 0.07789 -0.07109
v -0.09694 0.04679 -0.03591
v -0.10909 0.03955 -0.04172
v -0.11116 0.02849 -0.05207
v -0.10193 0.02009 -0.06089
v -0.08682 0.01926 -0.06302
v -0.07467 0.02649 -0.05721
v -0.07260 0.03755 -0.04686
v -0.08183 0.04596 -0.03804
v -0.09119 0.01325 -0.00191
v -0.10283 0.00543 -0.00665
v -0.10483 -0.00538 -0.01656
v -0.09603 -0.01285 -0.02582
v -0.08158 -0.01260 -0.02902
v -0.06995 -0.00478 -0.02427
v -0.06794 0.00603 -0.01437
v -0.07674 0.01350 -0.00510
v -0.08026 -0.02004 0.03190
v -0.09124 -0.02846 0.02824
v -0.09312 -0.03912 0.01888
v -0.08481 -0.04578 0.00933
v -0.07118 -0.04454 0.00517
v -0.06021 -0.03612 0.00884
v -0.05832 -0.02546 0.01819
v -0.06663 -0.01879 0.02774
v -0.06409 -0.05228 0.06554
v -0.07424 -0.06127 0.06294
v -0.07591 -0.07186 0.05424
v -0.06813 -0.07785 0.04455
v -0.05544 -0.07574 0.03953
v -0.04528 -0.06675 0.04213
v -0.04361 -0.05615 0.05083
v -0.05140 -0.05016 0.06053
v -0.04272 -0.08267 0.09903
v -0.05191 -0.09215 0.09746
v -0.05326 -0.10272 0.08950
v -0.04598 -0.10817 0.07980
v -0.03433 -0.10532 0.07404
v -0.02514 -0.09584 0.07561
v -0.02379 -0.08527 0.08357
v -0.03107 -0.07982 0.09328
v -0.01624 -0.11043 0.13246
v -0.02430 -0.12033 0.13193
v -0.02524 -0.13085 0.12472
v -0.01850 -0.13582 0.11506
v -0.00803 -0.13233 0.10861
v 0.00004 -0.12243 0.10915
v 0.00098 -0.11191 0.11635
v -0.00577 -0.10694 0.12601
v 0.01652 -0.13524 0.16580
v 0.00974 -0.14544 0.16627
v 0.00935 -0.15589 0.15986
v 0.01556 -0.16045 0.15034
v 0.02475 -0.15647 0.14327
v 0.03153 -0.14626 0.14280
v 0.03193 -0.13582 0.14921
v 0.02571 -0.13125 0.15873
v 0.05510 -0.15549 0.19898
v 0.04973 -0.16582 0.20037
v 0.05005 -0.17614 0.19483
v 0.05588 -0.18042 0.18560
v 0.06380 -0.17615 0.17810
v 0.06918 -0.16582 0.17670
v 0.06885 -0.15550 0.18224
v 0.06302 -0.15122 0.19147
v 0.09895 -0.16980 0.23229
v 0.09440 -0.17985 0.23406
v 0.09509 -0.18983 0.22908
v 0.10063 -0.19389 0.22027
v 0.10777 -0.18966 0.21278
v 0.11232 -0.17961 0.21101
v 0.11163 -0.16963 0.21599
v 0.10609 -0.16557 0.22481
v -0.05271 0.17441 -0.21946
v 0.10336 -0.17973 0.22254
f 2 9 1
f 2 11 10
f 3 12 11
f 4 13 12
f 5 14 13
f 7 14 6
f 8 15 7
f 1 16 8
f 10 17 9
f 11 18 10
f 11 20 19
f 12 21 20
f 13 22 21
f 14 23 22
f 15 24 23
f 9 24 16
f 18 25 17
f 19 26 18
f 19 28 27
f 20 29 28
f 21 30 29
f 22 31 30
f 23 32 31
f 17 32 24
f 26 33 25
f 27 34 26
f 28 35 27
f 28 37 36
f 29 38 37
f 30 39 38
f 31 40 39
f 25 40 32
f 34 41 33
f 35 42 34
f 36 43 35
f 36 45 44
f 37 46 45
f 38 47 46
f 39 48 47
f 33 48 40
f 42 49 41
f 43 50 42
f 44 51 43
f 44 53 52
f 45 54 53
f 46 55 54
f 47 56 55
f 41 56 48
f 50 57 49
f 51 58 50
f 52 59 51
f 52 61 60
f 53 62 61
f 54 63 62
f 55 64 63
f 49 64 56
f 58 65 57
f 59 66 58
f 60 67 59
f 60 69 68
f 61 70 69
f 62 71 70
f 63 72 71
f 64 65 72
f 66 73 65
f 67 74 66
f 68 75 67
f 69 76 68
f 69 78 77
f 70 79 78
f 71 80 79
f 72 73 80
f 74 81 73
f 75 82 74
f 75 84 83
f 76 85 84
f 77 86 85
f 78 87 86
f 80 87 79
f 73 88 80
f 82 89 81
f 83 90 82
f 84 91 83
f 85 92 84
f 85 94 93
f 86 95 94
f 87 96 95
f 81 96 88
f 90 97 89
f 91 98 90
f 92 99 91
f 93 100 92
f 93 102 101
f 94 103 102
f 95 104 103
f 96 97 104
f 97 106 105
f 98 107 106
f 100 107 99
f 101 108 100
f 102 109 101
f 103 110 102
f 103 112 111
f 104 105 112
f 113 2 1
f 113 3 2
f 113 4 3
f 113 5 4
f 113 6 5
f 113 7 6
f 113 8 7
f 113 1 8
f 105 106 114
f 106 107 114
f 107 108 114
f 108 109 114
f 109 110 114
f 110 111 114
f 111 112 114
f 112 105 114
f 2 10 9
f 2 3 11
f 3 4 12
f 4 5 13
f 5 6 14
f 7 15 14
f 8 16 15
f 1 9 16
f 10 18 17
f 11 19 18
f 11 12 20
f 12 13 21
f 13 14 22
f 14 15 23
f 15 16 24
f 9 17 24
f 18 26 25
f 19 27 26
f 19 20 28
f 20 21 29
f 21 22 30
f 22 23 31
f 23 24 32
f 17 25 32
f 26 34 33
f 27 35 34
f 28 36 35
f 28 29 37
f 29 30 38
f 30 31 39
f 31 32 40
f 25 33 40
f 34 42 41
f 35 43 42
f 36 44 43
f 36 37 45
f 37 38 46
f 38 39 47
f 39 40 48
f 33 41 48
f 42 50 49
f 43 51 50
f 44 52 51
f 44 45 53
f 45 46 54
f 46 47 55
f 47 48 56
f 41 49 56
f 50 58 57
f 51 59 58
f 52 60 59
f 52 53 61
f 53 54 62
f 54 55 63
f 55 56 64
f 49 57 64
f 58 66 65
f 59 67 66
f 60 68 67
f 60 61 69
f 61 62 70
f 62 63 71
f 63 64 72
f 64 57 65
f 66 74 73
f 67 75 74
f 68 76 75
f 69 77 76
f 69 70 78
f 70 71 79
f 71 72 80
f 72 65 73
f 74 82 81
f 75 83 82
f 75 76 84
f 76 77 85
f 77 78 86
f 78 79 87
f 80 88 87
f 73 81 88
f 82 90 89
f 83 91 90
f 84 92 91
f 85 93 92
f 85 86 94
f 86 87 95
f 87 88 96
f 81 89 96
f 90 98 97
f 91 99 98
f 92 100 99
f 93 101 100
f 93 94 102
f 94 95 103
f 95 96 104
f 96 89 97
f 97 98 106
f 98 99 107
f 100 108 107
f 101 109 108
f 102 110 109
f 103 111 110
f 103 104 112
f 104 97 105
