# kraken Tentacle2_1_Sucker.obj: Roblox cue frame, recentred on its bounding box
v -0.01232 -0.10426 -0.20127
v -0.01185 -0.12369 -0.19930
v 0.00767 -0.10768 -0.21250
v 0.00414 -0.12643 -0.20828
v 0.01712 -0.11664 -0.23168
v 0.01170 -0.13359 -0.22363
v 0.01240 -0.12772 -0.25149
v 0.00792 -0.14245 -0.23948
v -0.00467 -0.13667 -0.26437
v -0.00573 -0.14962 -0.24978
v -0.02758 -0.14010 -0.26539
v -0.02406 -0.15236 -0.25059
v -0.04757 -0.13667 -0.25416
v -0.04005 -0.14962 -0.24161
v -0.05701 -0.12772 -0.23497
v -0.04760 -0.14245 -0.22626
v -0.05229 -0.11664 -0.21516
v -0.04383 -0.13359 -0.21041
v -0.03522 -0.10768 -0.20229
v -0.03017 -0.12643 -0.20011
v -0.04911 -0.01627 -0.05158
v -0.05083 -0.03448 -0.04873
v -0.02827 -0.01996 -0.04570
v -0.03416 -0.03743 -0.04402
v -0.00953 -0.02963 -0.05183
v -0.01916 -0.04516 -0.04892
v -0.00003 -0.04158 -0.06762
v -0.01156 -0.05472 -0.06156
v -0.00341 -0.05125 -0.08705
v -0.01427 -0.06246 -0.07710
v -0.01838 -0.05494 -0.10270
v -0.02624 -0.06541 -0.08962
v -0.03922 -0.05125 -0.10858
v -0.04291 -0.06246 -0.09433
v -0.05797 -0.04158 -0.10246
v -0.05791 -0.05472 -0.08943
v -0.06746 -0.02963 -0.08666
v -0.06551 -0.04516 -0.07679
v -0.06408 -0.01996 -0.06723
v -0.06280 -0.03743 -0.06125
v -0.02689 0.07674 0.09238
v -0.03342 0.06136 0.09744
v -0.01162 0.07178 0.10547
v -0.02120 0.05739 0.10791
v 0.00422 0.05878 0.10860
v -0.00853 0.04699 0.11042
v 0.01456 0.04271 0.10057
v -0.00026 0.03414 0.10400
v 0.01545 0.02971 0.08446
v 0.00046 0.02374 0.09111
v 0.00656 0.02475 0.06641
v -0.00666 0.01977 0.07667
v -0.00871 0.02971 0.05332
v -0.01888 0.02374 0.06620
v -0.02455 0.04271 0.05019
v -0.03154 0.03414 0.06369
v -0.03489 0.05878 0.05821
v -0.03982 0.04699 0.07011
v -0.03578 0.07178 0.07433
v -0.04053 0.05739 0.08300
v 0.04139 0.15236 0.24111
v 0.03066 0.14180 0.24758
v 0.05249 0.14662 0.25602
v 0.03954 0.13722 0.25951
v 0.06245 0.13162 0.26336
v 0.04750 0.12521 0.26539
v 0.06746 0.11307 0.26034
v 0.05151 0.11037 0.26297
v 0.06561 0.09806 0.24811
v 0.05003 0.09836 0.25318
v 0.05761 0.09233 0.23133
v 0.04363 0.09378 0.23976
v 0.04651 0.09806 0.21642
v 0.03475 0.09836 0.22783
v 0.03655 0.11307 0.20907
v 0.02678 0.11037 0.22195
v 0.03154 0.13162 0.21210
v 0.02277 0.12521 0.22437
v 0.03339 0.14662 0.22433
v 0.02425 0.13722 0.23416
f 31 34 33
f 25 28 27
f 1 4 3
f 47 50 49
f 3 6 5
f 6 7 5
f 30 31 29
f 23 26 25
f 7 10 9
f 10 11 9
f 67 70 69
f 12 13 11
f 27 30 29
f 22 23 21
f 13 16 15
f 44 45 43
f 46 47 45
f 16 17 15
f 14 10 6
f 52 53 51
f 17 20 19
f 50 51 49
f 19 2 1
f 7 15 19
f 41 44 43
f 34 35 33
f 63 66 65
f 65 68 67
f 35 38 37
f 32 30 22
f 72 73 71
f 38 39 37
f 70 71 69
f 39 22 21
f 39 23 27
f 61 64 63
f 53 56 55
f 56 57 55
f 44 60 52
f 57 60 59
f 60 41 59
f 41 43 51
f 74 75 73
f 75 78 77
f 66 78 74
f 78 79 77
f 80 61 79
f 77 61 65
f 31 32 34
f 25 26 28
f 1 2 4
f 47 48 50
f 3 4 6
f 6 8 7
f 30 32 31
f 23 24 26
f 7 8 10
f 10 12 11
f 67 68 70
f 12 14 13
f 27 28 30
f 22 24 23
f 13 14 16
f 44 46 45
f 46 48 47
f 16 18 17
f 6 4 2
f 2 20 6
f 20 18 6
f 18 16 14
f 14 12 10
f 10 8 6
f 18 14 6
f 52 54 53
f 17 18 20
f 50 52 51
f 19 20 2
f 19 1 3
f 3 5 7
f 7 9 11
f 11 13 7
f 13 15 7
f 15 17 19
f 19 3 7
f 41 42 44
f 34 36 35
f 63 64 66
f 65 66 68
f 35 36 38
f 30 28 22
f 28 26 22
f 26 24 22
f 22 40 34
f 40 38 34
f 38 36 34
f 34 32 22
f 72 74 73
f 38 40 39
f 70 72 71
f 39 40 22
f 31 33 39
f 33 35 39
f 35 37 39
f 39 21 23
f 23 25 27
f 27 29 39
f 29 31 39
f 61 62 64
f 53 54 56
f 56 58 57
f 48 46 44
f 44 42 60
f 60 58 52
f 58 56 52
f 56 54 52
f 52 50 48
f 48 44 52
f 57 58 60
f 60 42 41
f 43 45 51
f 45 47 51
f 47 49 51
f 51 53 59
f 53 55 59
f 55 57 59
f 59 41 51
f 74 76 75
f 75 76 78
f 74 72 66
f 72 70 66
f 70 68 66
f 66 64 62
f 62 80 78
f 78 76 74
f 66 62 78
f 78 80 79
f 80 62 61
f 69 71 73
f 73 75 77
f 77 79 61
f 61 63 65
f 65 67 77
f 67 69 77
f 69 73 77
