# kraken Tentacle1_2_Sucker.obj: Roblox cue frame, recentred on its bounding box
v -0.09822 0.03625 -0.18307
v -0.09057 0.02417 -0.18873
v -0.11076 0.03133 -0.19539
v -0.10060 0.02023 -0.19859
v -0.12293 0.01843 -0.19973
v -0.11034 0.00991 -0.20206
v -0.13009 0.00249 -0.19443
v -0.11606 -0.00284 -0.19782
v -0.12949 -0.01041 -0.18152
v -0.11559 -0.01316 -0.18750
v -0.12138 -0.01533 -0.16593
v -0.10909 -0.01710 -0.17502
v -0.10884 -0.01041 -0.15361
v -0.09906 -0.01316 -0.16516
v -0.09666 0.00249 -0.14927
v -0.08932 -0.00284 -0.16169
v -0.08951 0.01843 -0.15456
v -0.08360 0.00991 -0.16593
v -0.09010 0.03133 -0.16747
v -0.08408 0.02023 -0.17625
v -0.03953 0.01436 -0.05783
v -0.02930 0.00672 -0.06459
v -0.04923 0.00913 -0.07097
v -0.03706 0.00254 -0.07509
v -0.05666 -0.00455 -0.07813
v -0.04301 -0.00841 -0.08083
v -0.05899 -0.02147 -0.07660
v -0.04486 -0.02194 -0.07960
v -0.05531 -0.03515 -0.06695
v -0.04193 -0.03289 -0.07188
v -0.04705 -0.04038 -0.05287
v -0.03532 -0.03707 -0.06061
v -0.03735 -0.03515 -0.03973
v -0.02755 -0.03289 -0.05011
v -0.02991 -0.02147 -0.03257
v -0.02161 -0.02194 -0.04437
v -0.02759 -0.00455 -0.03410
v -0.01975 -0.00841 -0.04560
v -0.03126 0.00913 -0.04375
v -0.02268 0.00254 -0.05332
v 0.02837 0.01358 0.06647
v 0.03908 0.01069 0.05881
v 0.02023 0.00871 0.05358
v 0.03257 0.00679 0.04850
v 0.01662 -0.00403 0.04459
v 0.02969 -0.00340 0.04131
v 0.01893 -0.01978 0.04295
v 0.03153 -0.01600 0.03999
v 0.02626 -0.03252 0.04927
v 0.03740 -0.02619 0.04505
v 0.03582 -0.03739 0.06114
v 0.04504 -0.03009 0.05455
v 0.04396 -0.03252 0.07403
v 0.05155 -0.02619 0.06486
v 0.04757 -0.01978 0.08301
v 0.05444 -0.01600 0.07205
v 0.04526 -0.00403 0.08466
v 0.05260 -0.00340 0.07336
v 0.03793 0.00871 0.07834
v 0.04673 0.00679 0.06831
v 0.09993 0.03920 0.19075
v 0.10900 0.04038 0.18224
v 0.09185 0.03516 0.17899
v 0.10253 0.03714 0.17283
v 0.08999 0.02457 0.16879
v 0.10105 0.02867 0.16467
v 0.09506 0.01147 0.16402
v 0.10510 0.01820 0.16086
v 0.10513 0.00088 0.16653
v 0.11316 0.00972 0.16286
v 0.11635 -0.00316 0.17534
v 0.12213 0.00649 0.16991
v 0.12443 0.00088 0.18709
v 0.12860 0.00972 0.17931
v 0.12629 0.01147 0.19730
v 0.13009 0.01820 0.18748
v 0.12122 0.02457 0.20206
v 0.12603 0.02867 0.19129
v 0.11115 0.03516 0.19956
v 0.11797 0.03714 0.18928
f 31 34 33
f 26 27 25
f 2 3 1
f 48 49 47
f 4 5 3
f 5 8 7
f 30 31 29
f 23 26 25
f 8 9 7
f 9 12 11
f 68 69 67
f 12 13 11
f 28 29 27
f 22 23 21
f 14 15 13
f 43 46 45
f 46 47 45
f 16 17 15
f 14 10 6
f 52 53 51
f 18 19 17
f 50 51 49
f 20 1 19
f 17 19 7
f 41 44 43
f 34 35 33
f 63 66 65
f 66 67 65
f 35 38 37
f 22 34 30
f 71 74 73
f 37 40 39
f 69 72 71
f 39 22 21
f 39 27 31
f 62 63 61
f 53 56 55
f 55 58 57
f 60 56 52
f 57 60 59
f 59 42 41
f 55 59 43
f 74 75 73
f 76 77 75
f 76 74 66
f 78 79 77
f 79 62 61
f 67 69 77
f 31 32 34
f 26 28 27
f 2 4 3
f 48 50 49
f 4 6 5
f 5 6 8
f 30 32 31
f 23 24 26
f 8 10 9
f 9 10 12
f 68 70 69
f 12 14 13
f 28 30 29
f 22 24 23
f 14 16 15
f 43 44 46
f 46 48 47
f 16 18 17
f 6 4 2
f 2 20 6
f 20 18 6
f 18 16 14
f 14 12 10
f 10 8 6
f 18 14 6
f 52 54 53
f 18 20 19
f 50 52 51
f 20 2 1
f 19 1 7
f 1 3 7
f 3 5 7
f 7 9 11
f 11 13 7
f 13 15 7
f 15 17 7
f 41 42 44
f 34 36 35
f 63 64 66
f 66 68 67
f 35 36 38
f 30 28 22
f 28 26 22
f 26 24 22
f 22 40 34
f 40 38 34
f 38 36 34
f 34 32 30
f 71 72 74
f 37 38 40
f 69 70 72
f 39 40 22
f 31 33 35
f 35 37 31
f 37 39 31
f 39 21 23
f 23 25 39
f 25 27 39
f 27 29 31
f 62 64 63
f 53 54 56
f 55 56 58
f 48 46 60
f 46 44 60
f 44 42 60
f 60 58 56
f 56 54 52
f 52 50 60
f 50 48 60
f 57 58 60
f 59 60 42
f 43 45 47
f 47 49 43
f 49 51 43
f 51 53 55
f 55 57 59
f 59 41 43
f 51 55 43
f 74 76 75
f 76 78 77
f 74 72 66
f 72 70 66
f 70 68 66
f 66 64 78
f 64 62 78
f 62 80 78
f 78 76 66
f 78 80 79
f 79 80 62
f 69 71 77
f 71 73 77
f 73 75 77
f 77 79 65
f 79 61 65
f 61 63 65
f 65 67 77
