# kraken Tentacle2_3_Ink.obj: Roblox cue frame, recentred on its bounding box
v 0.01545 0.25573 -0.24693
v -0.00707 0.25046 -0.24112
v -0.02600 0.23606 -0.24281
v -0.03627 0.21639 -0.25154
v -0.03512 0.19672 -0.26497
v -0.02287 0.18232 -0.27949
v -0.00280 0.17705 -0.29123
v 0.01971 0.18232 -0.29704
v 0.03864 0.19672 -0.29535
v 0.04891 0.21639 -0.28662
v 0.04777 0.23606 -0.27319
v 0.03552 0.25046 -0.25867
v 0.03287 0.22641 -0.20455
v 0.01071 0.22165 -0.19947
v -0.00798 0.20807 -0.20178
v -0.01821 0.18930 -0.21088
v -0.01723 0.17039 -0.22431
v -0.00530 0.15638 -0.23849
v 0.01437 0.15105 -0.24961
v 0.03653 0.15580 -0.25469
v 0.05523 0.16938 -0.25238
v 0.06545 0.18815 -0.24328
v 0.06447 0.20706 -0.22985
v 0.05254 0.22107 -0.21567
v 0.04760 0.19378 -0.16138
v 0.02565 0.18994 -0.15758
v 0.00703 0.17764 -0.16115
v -0.00327 0.16018 -0.17113
v -0.00251 0.14223 -0.18484
v 0.00913 0.12862 -0.19862
v 0.02851 0.12297 -0.20878
v 0.05046 0.12682 -0.21258
v 0.06907 0.13912 -0.20901
v 0.07938 0.15658 -0.19903
v 0.07862 0.17452 -0.18532
v 0.06698 0.18814 -0.17154
v 0.05886 0.15880 -0.11847
v 0.03722 0.15596 -0.11597
v 0.01880 0.14498 -0.12074
v 0.00854 0.12881 -0.13150
v 0.00917 0.11178 -0.14535
v 0.02055 0.09846 -0.15860
v 0.03960 0.09240 -0.16769
v 0.06124 0.09524 -0.17019
v 0.07966 0.10622 -0.16542
v 0.08993 0.12239 -0.15466
v 0.08929 0.13942 -0.14081
v 0.07792 0.15274 -0.12756
v 0.06614 0.12183 -0.07581
v 0.04492 0.12010 -0.07468
v 0.02683 0.11049 -0.08062
v 0.01673 0.09559 -0.09204
v 0.01731 0.07938 -0.10588
v 0.02843 0.06621 -0.11844
v 0.04710 0.05961 -0.12635
v 0.06832 0.06134 -0.12748
v 0.08641 0.07095 -0.12154
v 0.09652 0.08585 -0.11012
v 0.09593 0.10206 -0.09628
v 0.08482 0.11523 -0.08372
v 0.06882 0.08344 -0.03346
v 0.04815 0.08282 -0.03362
v 0.03054 0.07453 -0.04060
v 0.02071 0.06080 -0.05253
v 0.02128 0.04531 -0.06622
v 0.03211 0.03221 -0.07799
v 0.05030 0.02501 -0.08470
v 0.07096 0.02564 -0.08454
v 0.08857 0.03393 -0.07756
v 0.09841 0.04765 -0.06563
v 0.09783 0.06314 -0.05194
v 0.08700 0.07624 -0.04017
v 0.06712 0.04407 0.00860
v 0.04715 0.04449 0.00726
v 0.03015 0.03742 -0.00059
v 0.02067 0.02476 -0.01287
v 0.02125 0.00991 -0.02627
v 0.03174 -0.00317 -0.03721
v 0.04933 -0.01096 -0.04276
v 0.06930 -0.01138 -0.04142
v 0.08630 -0.00431 -0.03357
v 0.09578 0.00835 -0.02130
v 0.09520 0.02321 -0.00789
v 0.08471 0.03628 0.00305
v 0.06084 0.00418 0.05041
v 0.04169 0.00561 0.04797
v 0.02541 -0.00031 0.03935
v 0.01634 -0.01200 0.02687
v 0.01693 -0.02632 0.01386
v 0.02702 -0.03943 0.00382
v 0.04389 -0.04783 -0.00057
v 0.06303 -0.04926 0.00187
v 0.07932 -0.04334 0.01049
v 0.08838 -0.03165 0.02297
v 0.08779 -0.01733 0.03598
v 0.07771 -0.00421 0.04602
v 0.04981 -0.03571 0.09198
v 0.03161 -0.03333 0.08851
v 0.01614 -0.03820 0.07925
v 0.00753 -0.04902 0.06669
v 0.00810 -0.06289 0.05419
v 0.01769 -0.07609 0.04511
v 0.03373 -0.08508 0.04186
v 0.05193 -0.08746 0.04533
v 0.06740 -0.08259 0.05459
v 0.07601 -0.07178 0.06715
v 0.07544 -0.05791 0.07965
v 0.06585 -0.04471 0.08873
v 0.03392 -0.07507 0.13332
v 0.01678 -0.07181 0.12891
v 0.00219 -0.07574 0.11915
v -0.00594 -0.08580 0.10664
v -0.00543 -0.09928 0.09474
v 0.00357 -0.11258 0.08664
v 0.01866 -0.12214 0.08451
v 0.03580 -0.12539 0.08892
v 0.05039 -0.12146 0.09869
v 0.05852 -0.11141 0.11120
v 0.05801 -0.09793 0.12310
v 0.04901 -0.08462 0.13120
v 0.01326 -0.11308 0.17421
v -0.00280 -0.10918 0.16910
v -0.01654 -0.11243 0.15911
v -0.02428 -0.12196 0.14694
v -0.02396 -0.13520 0.13583
v -0.01565 -0.14862 0.12876
v -0.00158 -0.15862 0.12763
v 0.01447 -0.16251 0.13274
v 0.02821 -0.15926 0.14273
v 0.03595 -0.14974 0.15490
v 0.03563 -0.13649 0.16601
v 0.02732 -0.12307 0.17308
v -0.01040 -0.14792 0.21475
v -0.02540 -0.14361 0.20916
v -0.03837 -0.14641 0.19922
v -0.04583 -0.15557 0.18759
v -0.04579 -0.16864 0.17739
v -0.03825 -0.18211 0.17135
v -0.02523 -0.19238 0.17109
v -0.01023 -0.19669 0.17668
v 0.00274 -0.19389 0.18662
v 0.01020 -0.18473 0.19825
v 0.01016 -0.17166 0.20845
v 0.00262 -0.15818 0.21449
v -0.03694 -0.18000 0.25534
v -0.05088 -0.17538 0.24936
v -0.06307 -0.17779 0.23950
v -0.07024 -0.18657 0.22842
v -0.07047 -0.19938 0.21908
v -0.06370 -0.21279 0.21399
v -0.05175 -0.22319 0.21450
v -0.03781 -0.22781 0.22048
v -0.02562 -0.22540 0.23034
v -0.01845 -0.21661 0.24142
v -0.01822 -0.20380 0.25076
v -0.02499 -0.19040 0.25585
v -0.06663 -0.20965 0.29618
v -0.07971 -0.20503 0.29017
v -0.09121 -0.20720 0.28061
v -0.09805 -0.21558 0.27005
v -0.09841 -0.22793 0.26134
v -0.09218 -0.24093 0.25680
v -0.08103 -0.25111 0.25766
v -0.06796 -0.25573 0.26367
v -0.05646 -0.25356 0.27323
v -0.04961 -0.24517 0.28379
v -0.04925 -0.23282 0.29250
v -0.05548 -0.21982 0.29704
v 0.00632 0.21639 -0.26908
v -0.07383 -0.23038 0.27692
f 1 14 13
f 2 15 14
f 3 16 15
f 4 17 16
f 5 18 17
f 7 18 6
f 8 19 7
f 9 20 8
f 10 21 9
f 11 22 10
f 12 23 11
f 12 13 24
f 13 26 25
f 15 26 14
f 16 27 15
f 17 28 16
f 18 29 17
f 19 30 18
f 20 31 19
f 21 32 20
f 22 33 21
f 22 35 34
f 23 36 35
f 24 25 36
f 25 38 37
f 26 39 38
f 28 39 27
f 29 40 28
f 30 41 29
f 31 42 30
f 32 43 31
f 33 44 32
f 34 45 33
f 34 47 46
f 35 48 47
f 36 37 48
f 37 50 49
f 38 51 50
f 40 51 39
f 41 52 40
f 42 53 41
f 43 54 42
f 44 55 43
f 45 56 44
f 46 57 45
f 46 59 58
f 47 60 59
f 48 49 60
f 50 61 49
f 51 62 50
f 52 63 51
f 53 64 52
f 54 65 53
f 55 66 54
f 55 68 67
f 56 69 68
f 57 70 69
f 58 71 70
f 60 71 59
f 49 72 60
f 61 74 73
f 63 74 62
f 64 75 63
f 65 76 64
f 66 77 65
f 67 78 66
f 68 79 67
f 69 80 68
f 69 82 81
f 70 83 82
f 71 84 83
f 72 73 84
f 73 86 85
f 75 86 74
f 76 87 75
f 77 88 76
f 78 89 77
f 79 90 78
f 80 91 79
f 81 92 80
f 81 94 93
f 82 95 94
f 83 96 95
f 84 85 96
f 85 98 97
f 87 98 86
f 88 99 87
f 89 100 88
f 90 101 89
f 91 102 90
f 92 103 91
f 93 104 92
f 93 106 105
f 94 107 106
f 95 108 107
f 96 97 108
f 97 110 109
f 99 110 98
f 100 111 99
f 101 112 100
f 102 113 101
f 103 114 102
f 104 115 103
f 104 117 116
f 105 118 117
f 106 119 118
f 107 120 119
f 108 109 120
f 110 121 109
f 111 122 110
f 112 123 111
f 113 124 112
f 114 125 113
f 114 127 126
f 115 128 127
f 116 129 128
f 117 130 129
f 118 131 130
f 119 132 131
f 109 132 120
f 122 133 121
f 123 134 122
f 124 135 123
f 124 137 136
f 125 138 137
f 126 139 138
f 127 140 139
f 128 141 140
f 129 142 141
f 130 143 142
f 132 143 131
f 121 144 132
f 133 146 145
f 134 147 146
f 135 148 147
f 136 149 148
f 137 150 149
f 138 151 150
f 139 152 151
f 141 152 140
f 142 153 141
f 143 154 142
f 144 155 143
f 144 145 156
f 146 157 145
f 147 158 146
f 147 160 159
f 148 161 160
f 149 162 161
f 150 163 162
f 151 164 163
f 152 165 164
f 154 165 153
f 155 166 154
f 156 167 155
f 145 168 156
f 169 2 1
f 169 3 2
f 169 4 3
f 169 5 4
f 169 6 5
f 169 7 6
f 169 8 7
f 169 9 8
f 169 10 9
f 169 11 10
f 169 12 11
f 169 1 12
f 157 158 170
f 158 159 170
f 159 160 170
f 160 161 170
f 161 162 170
f 162 163 170
f 163 164 170
f 164 165 170
f 165 166 170
f 166 167 170
f 167 168 170
f 168 157 170
f 1 2 14
f 2 3 15
f 3 4 16
f 4 5 17
f 5 6 18
f 7 19 18
f 8 20 19
f 9 21 20
f 10 22 21
f 11 23 22
f 12 24 23
f 12 1 13
f 13 14 26
f 15 27 26
f 16 28 27
f 17 29 28
f 18 30 29
f 19 31 30
f 20 32 31
f 21 33 32
f 22 34 33
f 22 23 35
f 23 24 36
f 24 13 25
f 25 26 38
f 26 27 39
f 28 40 39
f 29 41 40
f 30 42 41
f 31 43 42
f 32 44 43
f 33 45 44
f 34 46 45
f 34 35 47
f 35 36 48
f 36 25 37
f 37 38 50
f 38 39 51
f 40 52 51
f 41 53 52
f 42 54 53
f 43 55 54
f 44 56 55
f 45 57 56
f 46 58 57
f 46 47 59
f 47 48 60
f 48 37 49
f 50 62 61
f 51 63 62
f 52 64 63
f 53 65 64
f 54 66 65
f 55 67 66
f 55 56 68
f 56 57 69
f 57 58 70
f 58 59 71
f 60 72 71
f 49 61 72
f 61 62 74
f 63 75 74
f 64 76 75
f 65 77 76
f 66 78 77
f 67 79 78
f 68 80 79
f 69 81 80
f 69 70 82
f 70 71 83
f 71 72 84
f 72 61 73
f 73 74 86
f 75 87 86
f 76 88 87
f 77 89 88
f 78 90 89
f 79 91 90
f 80 92 91
f 81 93 92
f 81 82 94
f 82 83 95
f 83 84 96
f 84 73 85
f 85 86 98
f 87 99 98
f 88 100 99
f 89 101 100
f 90 102 101
f 91 103 102
f 92 104 103
f 93 105 104
f 93 94 106
f 94 95 107
f 95 96 108
f 96 85 97
f 97 98 110
f 99 111 110
f 100 112 111
f 101 113 112
f 102 114 113
f 103 115 114
f 104 116 115
f 104 105 117
f 105 106 118
f 106 107 119
f 107 108 120
f 108 97 109
f 110 122 121
f 111 123 122
f 112 124 123
f 113 125 124
f 114 126 125
f 114 115 127
f 115 116 128
f 116 117 129
f 117 118 130
f 118 119 131
f 119 120 132
f 109 121 132
f 122 134 133
f 123 135 134
f 124 136 135
f 124 125 137
f 125 126 138
f 126 127 139
f 127 128 140
f 128 129 141
f 129 130 142
f 130 131 143
f 132 144 143
f 121 133 144
f 133 134 146
f 134 135 147
f 135 136 148
f 136 137 149
f 137 138 150
f 138 139 151
f 139 140 152
f 141 153 152
f 142 154 153
f 143 155 154
f 144 156 155
f 144 133 145
f 146 158 157
f 147 159 158
f 147 148 160
f 148 149 161
f 149 150 162
f 150 151 163
f 151 152 164
f 152 153 165
f 154 166 165
f 155 167 166
f 156 168 167
f 145 157 168
