# kraken Tentacle2_1_Core.obj: Roblox cue frame, recentred on its bounding box
v -0.05536 -0.08402 -0.32919
v -0.08187 -0.09389 -0.32781
v -0.09390 -0.11771 -0.31834
v -0.08441 -0.14153 -0.30632
v -0.05896 -0.15139 -0.29880
v -0.03245 -0.14153 -0.30018
v -0.02042 -0.11771 -0.30965
v -0.02991 -0.09389 -0.32167
v -0.06110 -0.06245 -0.28067
v -0.08727 -0.07186 -0.27864
v -0.09915 -0.09514 -0.26894
v -0.08979 -0.11865 -0.25724
v -0.06467 -0.12862 -0.25040
v -0.03851 -0.11921 -0.25242
v -0.02662 -0.09594 -0.26213
v -0.03598 -0.07243 -0.27383
v -0.06400 -0.04046 -0.23222
v -0.08983 -0.04912 -0.22894
v -0.10156 -0.07172 -0.21870
v -0.09232 -0.09500 -0.20751
v -0.06753 -0.10534 -0.20192
v -0.04170 -0.09668 -0.20520
v -0.02997 -0.07408 -0.21544
v -0.03921 -0.05079 -0.22663
v -0.06408 -0.01823 -0.18360
v -0.08949 -0.02619 -0.17916
v -0.10103 -0.04816 -0.16854
v -0.09194 -0.07127 -0.15796
v -0.06754 -0.08199 -0.15362
v -0.04213 -0.07403 -0.15806
v -0.03059 -0.05206 -0.16868
v -0.03968 -0.02894 -0.17926
v -0.06134 0.00392 -0.13481
v -0.08626 -0.00338 -0.12931
v -0.09759 -0.02479 -0.11844
v -0.08868 -0.04777 -0.10857
v -0.06476 -0.05886 -0.10548
v -0.03983 -0.05156 -0.11099
v -0.02851 -0.03016 -0.12186
v -0.03741 -0.00717 -0.13173
v -0.05581 0.02568 -0.08588
v -0.08019 0.01900 -0.07941
v -0.09130 -0.00191 -0.06841
v -0.08262 -0.02479 -0.05934
v -0.05924 -0.03624 -0.05750
v -0.03485 -0.02955 -0.06397
v -0.02375 -0.00865 -0.07496
v -0.03243 0.01423 -0.08404
v -0.04754 0.04678 -0.03681
v -0.07133 0.04065 -0.02947
v -0.08222 0.02020 -0.01847
v -0.07382 -0.00260 -0.01026
v -0.05105 -0.01439 -0.00964
v -0.02725 -0.00826 -0.01698
v -0.01636 0.01219 -0.02798
v -0.02477 0.03499 -0.03619
v -0.03658 0.06691 0.01239
v -0.05976 0.06128 0.02050
v -0.07044 0.04123 0.03138
v -0.06237 0.01850 0.03866
v -0.04028 0.00642 0.03808
v -0.01710 0.01205 0.02997
v -0.00642 0.03210 0.01909
v -0.01449 0.05482 0.01181
v -0.02302 0.08581 0.06171
v -0.04556 0.08061 0.07048
v -0.05607 0.06092 0.08114
v -0.04839 0.03827 0.08744
v -0.02703 0.02592 0.08569
v -0.00450 0.03111 0.07691
v 0.00601 0.05080 0.06626
v -0.00166 0.07346 0.05996
v -0.00696 0.10316 0.11114
v -0.02884 0.09835 0.12047
v -0.03921 0.07898 0.13079
v -0.03200 0.05641 0.13606
v -0.01142 0.04386 0.13318
v 0.01046 0.04868 0.12385
v 0.02083 0.06805 0.11352
v 0.01361 0.09061 0.10826
v 0.01148 0.11870 0.16066
v -0.00975 0.11420 0.17045
v -0.02003 0.09514 0.18034
v -0.01333 0.07268 0.18454
v 0.00642 0.05999 0.18058
v 0.02765 0.06449 0.17079
v 0.03792 0.08355 0.16090
v 0.03122 0.10601 0.15670
v 0.03214 0.13213 0.21028
v 0.01155 0.12789 0.22042
v 0.00132 0.10911 0.22977
v 0.00745 0.08680 0.23287
v 0.02633 0.07403 0.22788
v 0.04692 0.07827 0.21774
v 0.05715 0.09705 0.20839
v 0.05103 0.11936 0.20530
v 0.05486 0.14316 0.25999
v 0.03488 0.13912 0.27036
v 0.02464 0.12063 0.27908
v 0.03013 0.09852 0.28105
v 0.04813 0.08574 0.27510
v 0.06811 0.08978 0.26473
v 0.07835 0.10827 0.25600
v 0.07286 0.13038 0.25404
v 0.07907 0.15139 0.30916
v 0.05961 0.14748 0.31951
v 0.04946 0.12933 0.32781
v 0.05457 0.10758 0.32919
v 0.07194 0.09496 0.32285
v 0.09141 0.09887 0.31250
v 0.10156 0.11702 0.30421
v 0.09645 0.13878 0.30282
v -0.05716 -0.11771 -0.31399
v 0.07551 0.12318 0.31601
f 2 9 1
f 3 10 2
f 3 12 11
f 4 13 12
f 5 14 13
f 6 15 14
f 8 15 7
f 1 16 8
f 9 18 17
f 10 19 18
f 11 20 19
f 12 21 20
f 14 21 13
f 15 22 14
f 16 23 15
f 9 24 16
f 17 26 25
f 18 27 26
f 19 28 27
f 20 29 28
f 22 29 21
f 23 30 22
f 24 31 23
f 17 32 24
f 25 34 33
f 26 35 34
f 27 36 35
f 28 37 36
f 30 37 29
f 31 38 30
f 32 39 31
f 25 40 32
f 33 42 41
f 34 43 42
f 35 44 43
f 36 45 44
f 38 45 37
f 39 46 38
f 40 47 39
f 33 48 40
f 41 50 49
f 42 51 50
f 43 52 51
f 44 53 52
f 46 53 45
f 47 54 46
f 48 55 47
f 41 56 48
f 49 58 57
f 50 59 58
f 51 60 59
f 52 61 60
f 54 61 53
f 55 62 54
f 56 63 55
f 49 64 56
f 57 66 65
f 58 67 66
f 59 68 67
f 60 69 68
f 62 69 61
f 63 70 62
f 64 71 63
f 64 65 72
f 65 74 73
f 66 75 74
f 67 76 75
f 68 77 76
f 70 77 69
f 71 78 70
f 72 79 71
f 72 73 80
f 73 82 81
f 74 83 82
f 75 84 83
f 76 85 84
f 78 85 77
f 79 86 78
f 80 87 79
f 80 81 88
f 81 90 89
f 82 91 90
f 83 92 91
f 84 93 92
f 86 93 85
f 87 94 86
f 88 95 87
f 88 89 96
f 89 98 97
f 90 99 98
f 91 100 99
f 92 101 100
f 94 101 93
f 95 102 94
f 96 103 95
f 96 97 104
f 97 106 105
f 99 106 98
f 100 107 99
f 101 108 100
f 102 109 101
f 102 111 110
f 103 112 111
f 104 105 112
f 113 2 1
f 113 3 2
f 113 4 3
f 113 5 4
f 113 6 5
f 113 7 6
f 113 8 7
f 113 1 8
f 105 106 114
f 106 107 114
f 107 108 114
f 108 109 114
f 109 110 114
f 110 111 114
f 111 112 114
f 112 105 114
f 2 10 9
f 3 11 10
f 3 4 12
f 4 5 13
f 5 6 14
f 6 7 15
f 8 16 15
f 1 9 16
f 9 10 18
f 10 11 19
f 11 12 20
f 12 13 21
f 14 22 21
f 15 23 22
f 16 24 23
f 9 17 24
f 17 18 26
f 18 19 27
f 19 20 28
f 20 21 29
f 22 30 29
f 23 31 30
f 24 32 31
f 17 25 32
f 25 26 34
f 26 27 35
f 27 28 36
f 28 29 37
f 30 38 37
f 31 39 38
f 32 40 39
f 25 33 40
f 33 34 42
f 34 35 43
f 35 36 44
f 36 37 45
f 38 46 45
f 39 47 46
f 40 48 47
f 33 41 48
f 41 42 50
f 42 43 51
f 43 44 52
f 44 45 53
f 46 54 53
f 47 55 54
f 48 56 55
f 41 49 56
f 49 50 58
f 50 51 59
f 51 52 60
f 52 53 61
f 54 62 61
f 55 63 62
f 56 64 63
f 49 57 64
f 57 58 66
f 58 59 67
f 59 60 68
f 60 61 69
f 62 70 69
f 63 71 70
f 64 72 71
f 64 57 65
f 65 66 74
f 66 67 75
f 67 68 76
f 68 69 77
f 70 78 77
f 71 79 78
f 72 80 79
f 72 65 73
f 73 74 82
f 74 75 83
f 75 76 84
f 76 77 85
f 78 86 85
f 79 87 86
f 80 88 87
f 80 73 81
f 81 82 90
f 82 83 91
f 83 84 92
f 84 85 93
f 86 94 93
f 87 95 94
f 88 96 95
f 88 81 89
f 89 90 98
f 90 91 99
f 91 92 100
f 92 93 101
f 94 102 101
f 95 103 102
f 96 104 103
f 96 89 97
f 97 98 106
f 99 107 106
f 100 108 107
f 101 109 108
f 102 110 109
f 102 103 111
f 103 104 112
f 104 97 105
