# kraken Tentacle1_2_Ink.obj: Roblox cue frame, recentred on its bounding box
v -0.10198 0.09685 -0.24596
v -0.13206 0.08928 -0.24337
v -0.15505 0.06862 -0.24691
v -0.16481 0.04038 -0.25565
v -0.15870 0.01215 -0.26723
v -0.13838 -0.00852 -0.27856
v -0.10928 -0.01609 -0.28660
v -0.07920 -0.00852 -0.28919
v -0.05621 0.01215 -0.28565
v -0.04645 0.04038 -0.27691
v -0.05256 0.06862 -0.26533
v -0.07288 0.08928 -0.25400
v -0.09479 0.08073 -0.20588
v -0.12415 0.07304 -0.20262
v -0.14658 0.05253 -0.20546
v -0.15606 0.02469 -0.21363
v -0.15006 -0.00301 -0.22494
v -0.13019 -0.02317 -0.23636
v -0.10176 -0.03037 -0.24484
v -0.07240 -0.02268 -0.24809
v -0.04998 -0.00217 -0.24526
v -0.04049 0.02567 -0.23709
v -0.04649 0.05337 -0.22578
v -0.06636 0.07353 -0.21436
v -0.08561 0.06544 -0.16637
v -0.11406 0.05739 -0.16178
v -0.13573 0.03682 -0.16325
v -0.14482 0.00922 -0.17041
v -0.13888 -0.01800 -0.18132
v -0.11952 -0.03755 -0.19306
v -0.09191 -0.04419 -0.20250
v -0.06346 -0.03615 -0.20709
v -0.04179 -0.01557 -0.20562
v -0.03271 0.01202 -0.19847
v -0.03864 0.03924 -0.18756
v -0.05801 0.05879 -0.17581
v -0.07441 0.05113 -0.12713
v -0.10188 0.04277 -0.12124
v -0.12270 0.02214 -0.12131
v -0.13131 -0.00522 -0.12734
v -0.12538 -0.03199 -0.13770
v -0.10651 -0.05100 -0.14961
v -0.07976 -0.05714 -0.15990
v -0.05230 -0.04879 -0.16579
v -0.03147 -0.02816 -0.16571
v -0.02287 -0.00080 -0.15969
v -0.02879 0.02598 -0.14933
v -0.04766 0.04498 -0.13741
v -0.06124 0.03807 -0.08814
v -0.08767 0.02946 -0.08101
v -0.10756 0.00882 -0.07966
v -0.11559 -0.01831 -0.08446
v -0.10961 -0.04466 -0.09412
v -0.09121 -0.06317 -0.10604
v -0.06533 -0.06889 -0.11704
v -0.03890 -0.06028 -0.12417
v -0.01900 -0.03964 -0.12551
v -0.01097 -0.01251 -0.12072
v -0.01696 0.01384 -0.11106
v -0.03536 0.03236 -0.09914
v -0.04620 0.02656 -0.04938
v -0.07154 0.01776 -0.04110
v -0.09043 -0.00283 -0.03833
v -0.09779 -0.02970 -0.04181
v -0.09167 -0.05565 -0.05061
v -0.07369 -0.07372 -0.06238
v -0.04867 -0.07908 -0.07395
v -0.02332 -0.07028 -0.08224
v -0.00444 -0.04969 -0.08501
v 0.00293 -0.02282 -0.08152
v -0.00320 0.00313 -0.07272
v -0.02118 0.02120 -0.06095
v -0.02941 0.01687 -0.01083
v -0.05365 0.00797 -0.00150
v -0.07146 -0.01250 0.00268
v -0.07807 -0.03906 0.00058
v -0.07171 -0.06460 -0.00723
v -0.05408 -0.08227 -0.01866
v -0.02991 -0.08734 -0.03066
v -0.00567 -0.07844 -0.03999
v 0.01214 -0.05797 -0.04417
v 0.01875 -0.03141 -0.04207
v 0.01239 -0.00587 -0.03426
v -0.00524 0.01180 -0.02282
v -0.01105 0.00928 0.02754
v -0.03417 0.00038 0.03781
v -0.05086 -0.01988 0.04335
v -0.05663 -0.04607 0.04269
v -0.04994 -0.07117 0.03599
v -0.03259 -0.08845 0.02506
v -0.00921 -0.09329 0.01282
v 0.01391 -0.08439 0.00255
v 0.03060 -0.06413 -0.00299
v 0.03637 -0.03795 -0.00233
v 0.02968 -0.01285 0.00437
v 0.01233 0.00444 0.01530
v 0.00868 0.00407 0.06577
v -0.01336 -0.00475 0.07683
v -0.02889 -0.02469 0.08367
v -0.03376 -0.05041 0.08447
v -0.02666 -0.07501 0.07901
v -0.00948 -0.09192 0.06875
v 0.01316 -0.09658 0.05644
v 0.03520 -0.08776 0.04538
v 0.05073 -0.06782 0.03853
v 0.05560 -0.04210 0.03773
v 0.04850 -0.01749 0.04320
v 0.03132 -0.00059 0.05346
v 0.02953 0.00151 0.10390
v 0.00852 -0.00714 0.11559
v -0.00586 -0.02665 0.12365
v -0.00978 -0.05179 0.12592
v -0.00218 -0.07583 0.12178
v 0.01490 -0.09232 0.11235
v 0.03688 -0.09685 0.10015
v 0.05788 -0.08820 0.08846
v 0.07227 -0.06869 0.08040
v 0.07619 -0.04354 0.07814
v 0.06859 -0.01951 0.08227
v 0.05151 -0.00301 0.09170
v 0.05118 0.00184 0.14198
v 0.03115 -0.00657 0.15413
v 0.01787 -0.02554 0.16329
v 0.01492 -0.04999 0.16700
v 0.02307 -0.07335 0.16427
v 0.04015 -0.08938 0.15582
v 0.06158 -0.09378 0.14392
v 0.08161 -0.08537 0.13176
v 0.09488 -0.06640 0.12260
v 0.09784 -0.04195 0.11889
v 0.08968 -0.01859 0.12163
v 0.07261 -0.00256 0.13008
v 0.07330 0.00528 0.18005
v 0.05414 -0.00285 0.19249
v 0.04192 -0.02117 0.20262
v 0.03992 -0.04479 0.20772
v 0.04866 -0.06736 0.20644
v 0.06581 -0.08285 0.19911
v 0.08677 -0.08710 0.18769
v 0.10593 -0.07898 0.17526
v 0.11815 -0.06065 0.16513
v 0.12016 -0.03704 0.16002
v 0.11141 -0.01446 0.16130
v 0.09426 0.00103 0.16864
v 0.09549 0.01202 0.21818
v 0.07711 0.00420 0.23071
v 0.06585 -0.01339 0.24165
v 0.06474 -0.03605 0.24808
v 0.07407 -0.05771 0.24827
v 0.09135 -0.07255 0.24217
v 0.11194 -0.07661 0.23141
v 0.13033 -0.06880 0.21888
v 0.14158 -0.05120 0.20794
v 0.14269 -0.02854 0.20151
v 0.13336 -0.00689 0.20132
v 0.11608 0.00796 0.20742
v 0.11812 0.02267 0.25787
v 0.10035 0.01513 0.27021
v 0.08970 -0.00183 0.28135
v 0.08902 -0.02365 0.28830
v 0.09849 -0.04449 0.28919
v 0.11558 -0.05877 0.28380
v 0.13571 -0.06265 0.27356
v 0.15348 -0.05511 0.26122
v 0.16413 -0.03815 0.25009
v 0.16481 -0.01633 0.24314
v 0.15533 0.00451 0.24224
v 0.13824 0.01879 0.24763
v -0.10563 0.04038 -0.26628
v 0.12691 -0.01999 0.26572
f 2 13 1
f 3 14 2
f 4 15 3
f 5 16 4
f 5 18 17
f 6 19 18
f 7 20 19
f 8 21 20
f 9 22 21
f 10 23 22
f 12 23 11
f 1 24 12
f 14 25 13
f 15 26 14
f 16 27 15
f 17 28 16
f 18 29 17
f 19 30 18
f 20 31 19
f 20 33 32
f 21 34 33
f 22 35 34
f 23 36 35
f 13 36 24
f 26 37 25
f 27 38 26
f 28 39 27
f 29 40 28
f 30 41 29
f 31 42 30
f 32 43 31
f 32 45 44
f 33 46 45
f 34 47 46
f 35 48 47
f 25 48 36
f 38 49 37
f 39 50 38
f 40 51 39
f 41 52 40
f 42 53 41
f 43 54 42
f 44 55 43
f 44 57 56
f 45 58 57
f 46 59 58
f 47 60 59
f 37 60 48
f 50 61 49
f 51 62 50
f 52 63 51
f 53 64 52
f 54 65 53
f 55 66 54
f 56 67 55
f 57 68 56
f 57 70 69
f 58 71 70
f 59 72 71
f 49 72 60
f 62 73 61
f 63 74 62
f 64 75 63
f 65 76 64
f 66 77 65
f 67 78 66
f 68 79 67
f 69 80 68
f 69 82 81
f 70 83 82
f 71 84 83
f 72 73 84
f 74 85 73
f 75 86 74
f 76 87 75
f 77 88 76
f 78 89 77
f 79 90 78
f 80 91 79
f 81 92 80
f 81 94 93
f 82 95 94
f 83 96 95
f 84 85 96
f 86 97 85
f 87 98 86
f 88 99 87
f 89 100 88
f 90 101 89
f 91 102 90
f 92 103 91
f 93 104 92
f 93 106 105
f 94 107 106
f 95 108 107
f 96 97 108
f 97 110 109
f 99 110 98
f 100 111 99
f 101 112 100
f 102 113 101
f 103 114 102
f 104 115 103
f 105 116 104
f 105 118 117
f 106 119 118
f 107 120 119
f 108 109 120
f 109 122 121
f 111 122 110
f 112 123 111
f 113 124 112
f 114 125 113
f 115 126 114
f 116 127 115
f 117 128 116
f 117 130 129
f 118 131 130
f 119 132 131
f 120 121 132
f 121 134 133
f 122 135 134
f 124 135 123
f 125 136 124
f 126 137 125
f 127 138 126
f 128 139 127
f 129 140 128
f 129 142 141
f 130 143 142
f 131 144 143
f 132 133 144
f 133 146 145
f 134 147 146
f 136 147 135
f 137 148 136
f 138 149 137
f 139 150 138
f 140 151 139
f 141 152 140
f 141 154 153
f 142 155 154
f 143 156 155
f 144 145 156
f 145 158 157
f 146 159 158
f 147 160 159
f 148 161 160
f 149 162 161
f 150 163 162
f 152 163 151
f 153 164 152
f 154 165 153
f 155 166 154
f 156 167 155
f 145 168 156
f 169 2 1
f 169 3 2
f 169 4 3
f 169 5 4
f 169 6 5
f 169 7 6
f 169 8 7
f 169 9 8
f 169 10 9
f 169 11 10
f 169 12 11
f 169 1 12
f 157 158 170
f 158 159 170
f 159 160 170
f 160 161 170
f 161 162 170
f 162 163 170
f 163 164 170
f 164 165 170
f 165 166 170
f 166 167 170
f 167 168 170
f 168 157 170
f 2 14 13
f 3 15 14
f 4 16 15
f 5 17 16
f 5 6 18
f 6 7 19
f 7 8 20
f 8 9 21
f 9 10 22
f 10 11 23
f 12 24 23
f 1 13 24
f 14 26 25
f 15 27 26
f 16 28 27
f 17 29 28
f 18 30 29
f 19 31 30
f 20 32 31
f 20 21 33
f 21 22 34
f 22 23 35
f 23 24 36
f 13 25 36
f 26 38 37
f 27 39 38
f 28 40 39
f 29 41 40
f 30 42 41
f 31 43 42
f 32 44 43
f 32 33 45
f 33 34 46
f 34 35 47
f 35 36 48
f 25 37 48
f 38 50 49
f 39 51 50
f 40 52 51
f 41 53 52
f 42 54 53
f 43 55 54
f 44 56 55
f 44 45 57
f 45 46 58
f 46 47 59
f 47 48 60
f 37 49 60
f 50 62 61
f 51 63 62
f 52 64 63
f 53 65 64
f 54 66 65
f 55 67 66
f 56 68 67
f 57 69 68
f 57 58 70
f 58 59 71
f 59 60 72
f 49 61 72
f 62 74 73
f 63 75 74
f 64 76 75
f 65 77 76
f 66 78 77
f 67 79 78
f 68 80 79
f 69 81 80
f 69 70 82
f 70 71 83
f 71 72 84
f 72 61 73
f 74 86 85
f 75 87 86
f 76 88 87
f 77 89 88
f 78 90 89
f 79 91 90
f 80 92 91
f 81 93 92
f 81 82 94
f 82 83 95
f 83 84 96
f 84 73 85
f 86 98 97
f 87 99 98
f 88 100 99
f 89 101 100
f 90 102 101
f 91 103 102
f 92 104 103
f 93 105 104
f 93 94 106
f 94 95 107
f 95 96 108
f 96 85 97
f 97 98 110
f 99 111 110
f 100 112 111
f 101 113 112
f 102 114 113
f 103 115 114
f 104 116 115
f 105 117 116
f 105 106 118
f 106 107 119
f 107 108 120
f 108 97 109
f 109 110 122
f 111 123 122
f 112 124 123
f 113 125 124
f 114 126 125
f 115 127 126
f 116 128 127
f 117 129 128
f 117 118 130
f 118 119 131
f 119 120 132
f 120 109 121
f 121 122 134
f 122 123 135
f 124 136 135
f 125 137 136
f 126 138 137
f 127 139 138
f 128 140 139
f 129 141 140
f 129 130 142
f 130 131 143
f 131 132 144
f 132 121 133
f 133 134 146
f 134 135 147
f 136 148 147
f 137 149 148
f 138 150 149
f 139 151 150
f 140 152 151
f 141 153 152
f 141 142 154
f 142 143 155
f 143 144 156
f 144 133 145
f 145 146 158
f 146 147 159
f 147 148 160
f 148 149 161
f 149 150 162
f 150 151 163
f 152 164 163
f 153 165 164
f 154 166 165
f 155 167 166
f 156 168 167
f 145 157 168
