# kraken Tentacle1_2_Core.obj: Roblox cue frame, recentred on its bounding box
v -0.14449 0.07905 -0.25246
v -0.16598 0.07112 -0.25021
v -0.17702 0.05199 -0.25664
v -0.17115 0.03285 -0.26799
v -0.15181 0.02492 -0.27761
v -0.13032 0.03285 -0.27986
v -0.11928 0.05199 -0.27343
v -0.12515 0.07112 -0.26208
v -0.13280 0.05812 -0.21221
v -0.15367 0.05002 -0.20936
v -0.16434 0.03099 -0.21515
v -0.15855 0.01219 -0.22619
v -0.13970 0.00461 -0.23602
v -0.11883 0.01271 -0.23887
v -0.10816 0.03173 -0.23307
v -0.11395 0.05054 -0.22203
v -0.11849 0.03878 -0.17243
v -0.13849 0.03024 -0.16839
v -0.14855 0.01109 -0.17302
v -0.14276 -0.00745 -0.18361
v -0.12453 -0.01452 -0.19395
v -0.10453 -0.00598 -0.19799
v -0.09448 0.01317 -0.19336
v -0.10026 0.03171 -0.18277
v -0.10157 0.02121 -0.13276
v -0.12064 0.01230 -0.12760
v -0.13000 -0.00694 -0.13103
v -0.12416 -0.02524 -0.14105
v -0.10654 -0.03189 -0.15178
v -0.08747 -0.02299 -0.15694
v -0.07812 -0.00375 -0.15350
v -0.08396 0.01456 -0.14348
v -0.08222 0.00573 -0.09318
v -0.10031 -0.00344 -0.08698
v -0.10888 -0.02272 -0.08919
v -0.10291 -0.04082 -0.09852
v -0.08589 -0.04712 -0.10951
v -0.06779 -0.03795 -0.11571
v -0.05922 -0.01867 -0.11349
v -0.06520 -0.00058 -0.10416
v -0.06063 -0.00732 -0.05369
v -0.07773 -0.01666 -0.04653
v -0.08544 -0.03591 -0.04751
v -0.07925 -0.05378 -0.05605
v -0.06278 -0.05982 -0.06715
v -0.04568 -0.05048 -0.07431
v -0.03797 -0.03123 -0.07333
v -0.04416 -0.01335 -0.06479
v -0.03706 -0.01761 -0.01426
v -0.05316 -0.02702 -0.00624
v -0.05996 -0.04614 -0.00599
v -0.05347 -0.06378 -0.01365
v -0.03749 -0.06960 -0.02474
v -0.02139 -0.06020 -0.03275
v -0.01459 -0.04107 -0.03300
v -0.02109 -0.02343 -0.02534
v -0.01181 -0.02485 0.02513
v -0.02693 -0.03422 0.03389
v -0.03277 -0.05311 0.03535
v -0.02590 -0.07047 0.02866
v -0.01035 -0.07612 0.01772
v 0.00477 -0.06676 0.00896
v 0.01061 -0.04786 0.00750
v 0.00374 -0.03050 0.01420
v 0.01478 -0.02875 0.06449
v 0.00059 -0.03798 0.07388
v -0.00427 -0.05654 0.07652
v 0.00304 -0.07355 0.07086
v 0.01825 -0.07905 0.06021
v 0.03244 -0.06982 0.05082
v 0.03731 -0.05126 0.04818
v 0.02999 -0.03425 0.05384
v 0.04233 -0.02906 0.10384
v 0.02901 -0.03807 0.11374
v 0.02511 -0.05616 0.11751
v 0.03292 -0.07274 0.11293
v 0.04787 -0.07809 0.10270
v 0.06119 -0.06908 0.09281
v 0.06509 -0.05099 0.08904
v 0.05728 -0.03441 0.09361
v 0.07039 -0.02555 0.14321
v 0.05785 -0.03428 0.15348
v 0.05489 -0.05179 0.15831
v 0.06323 -0.06783 0.15487
v 0.07800 -0.07301 0.14518
v 0.09054 -0.06429 0.13491
v 0.09350 -0.04677 0.13008
v 0.08516 -0.03073 0.13352
v 0.09849 -0.01807 0.18262
v 0.08664 -0.02646 0.19312
v 0.08454 -0.04328 0.19894
v 0.09343 -0.05868 0.19666
v 0.10809 -0.06363 0.18762
v 0.11994 -0.05524 0.17711
v 0.12203 -0.03842 0.17129
v 0.11315 -0.02302 0.17357
v 0.12610 -0.00647 0.22209
v 0.11484 -0.01451 0.23269
v 0.11352 -0.03055 0.23940
v 0.12292 -0.04519 0.23828
v 0.13754 -0.04986 0.23000
v 0.14880 -0.04182 0.21939
v 0.15011 -0.02578 0.21268
v 0.14071 -0.01114 0.21380
v 0.15314 0.00960 0.26239
v 0.14230 0.00185 0.27285
v 0.14136 -0.01354 0.27986
v 0.15086 -0.02755 0.27932
v 0.16524 -0.03198 0.27154
v 0.17607 -0.02423 0.26108
v 0.17702 -0.00884 0.25407
v 0.16752 0.00517 0.25461
v -0.14815 0.05199 -0.26504
v 0.15919 -0.01119 0.26696
f 2 9 1
f 3 10 2
f 4 11 3
f 4 13 12
f 5 14 13
f 6 15 14
f 7 16 15
f 1 16 8
f 10 17 9
f 11 18 10
f 12 19 11
f 13 20 12
f 14 21 13
f 14 23 22
f 15 24 23
f 16 17 24
f 18 25 17
f 19 26 18
f 20 27 19
f 21 28 20
f 22 29 21
f 22 31 30
f 23 32 31
f 24 25 32
f 26 33 25
f 27 34 26
f 28 35 27
f 29 36 28
f 30 37 29
f 30 39 38
f 31 40 39
f 32 33 40
f 34 41 33
f 35 42 34
f 36 43 35
f 37 44 36
f 38 45 37
f 38 47 46
f 39 48 47
f 40 41 48
f 42 49 41
f 43 50 42
f 44 51 43
f 45 52 44
f 46 53 45
f 46 55 54
f 47 56 55
f 48 49 56
f 49 58 57
f 51 58 50
f 52 59 51
f 53 60 52
f 54 61 53
f 54 63 62
f 55 64 63
f 56 57 64
f 57 66 65
f 59 66 58
f 60 67 59
f 61 68 60
f 62 69 61
f 62 71 70
f 63 72 71
f 64 65 72
f 65 74 73
f 67 74 66
f 68 75 67
f 69 76 68
f 70 77 69
f 70 79 78
f 71 80 79
f 72 73 80
f 73 82 81
f 75 82 74
f 76 83 75
f 77 84 76
f 78 85 77
f 78 87 86
f 79 88 87
f 80 81 88
f 81 90 89
f 83 90 82
f 84 91 83
f 85 92 84
f 86 93 85
f 87 94 86
f 87 96 95
f 88 89 96
f 89 98 97
f 90 99 98
f 92 99 91
f 93 100 92
f 94 101 93
f 95 102 94
f 95 104 103
f 96 97 104
f 97 106 105
f 98 107 106
f 99 108 107
f 100 109 108
f 102 109 101
f 103 110 102
f 104 111 103
f 97 112 104
f 113 2 1
f 113 3 2
f 113 4 3
f 113 5 4
f 113 6 5
f 113 7 6
f 113 8 7
f 113 1 8
f 105 106 114
f 106 107 114
f 107 108 114
f 108 109 114
f 109 110 114
f 110 111 114
f 111 112 114
f 112 105 114
f 2 10 9
f 3 11 10
f 4 12 11
f 4 5 13
f 5 6 14
f 6 7 15
f 7 8 16
f 1 9 16
f 10 18 17
f 11 19 18
f 12 20 19
f 13 21 20
f 14 22 21
f 14 15 23
f 15 16 24
f 16 9 17
f 18 26 25
f 19 27 26
f 20 28 27
f 21 29 28
f 22 30 29
f 22 23 31
f 23 24 32
f 24 17 25
f 26 34 33
f 27 35 34
f 28 36 35
f 29 37 36
f 30 38 37
f 30 31 39
f 31 32 40
f 32 25 33
f 34 42 41
f 35 43 42
f 36 44 43
f 37 45 44
f 38 46 45
f 38 39 47
f 39 40 48
f 40 33 41
f 42 50 49
f 43 51 50
f 44 52 51
f 45 53 52
f 46 54 53
f 46 47 55
f 47 48 56
f 48 41 49
f 49 50 58
f 51 59 58
f 52 60 59
f 53 61 60
f 54 62 61
f 54 55 63
f 55 56 64
f 56 49 57
f 57 58 66
f 59 67 66
f 60 68 67
f 61 69 68
f 62 70 69
f 62 63 71
f 63 64 72
f 64 57 65
f 65 66 74
f 67 75 74
f 68 76 75
f 69 77 76
f 70 78 77
f 70 71 79
f 71 72 80
f 72 65 73
f 73 74 82
f 75 83 82
f 76 84 83
f 77 85 84
f 78 86 85
f 78 79 87
f 79 80 88
f 80 73 81
f 81 82 90
f 83 91 90
f 84 92 91
f 85 93 92
f 86 94 93
f 87 95 94
f 87 88 96
f 88 81 89
f 89 90 98
f 90 91 99
f 92 100 99
f 93 101 100
f 94 102 101
f 95 103 102
f 95 96 104
f 96 89 97
f 97 98 106
f 98 99 107
f 99 100 108
f 100 101 109
f 102 110 109
f 103 111 110
f 104 112 111
f 97 105 112
