# kraken Tentacle2_2_Core.obj: Roblox cue frame, recentred on its bounding box
v -0.16356 0.08116 -0.29855
v -0.18155 0.07250 -0.28712
v -0.18749 0.05160 -0.27956
v -0.17790 0.03069 -0.28030
v -0.15840 0.02204 -0.28891
v -0.14041 0.03069 -0.30035
v -0.13447 0.05160 -0.30791
v -0.14406 0.07250 -0.30716
v -0.13894 0.09020 -0.25254
v -0.15658 0.08172 -0.24131
v -0.16263 0.06114 -0.23429
v -0.15355 0.04053 -0.23560
v -0.13465 0.03195 -0.24446
v -0.11701 0.04044 -0.25569
v -0.11096 0.06101 -0.26271
v -0.12005 0.08163 -0.26140
v -0.11250 0.09656 -0.20585
v -0.12980 0.08826 -0.19487
v -0.13621 0.06797 -0.18880
v -0.12795 0.04759 -0.19121
v -0.10988 0.03906 -0.20069
v -0.09257 0.04736 -0.21167
v -0.08617 0.06765 -0.21774
v -0.09442 0.08803 -0.21533
v -0.08485 0.09987 -0.15916
v -0.10188 0.09173 -0.14852
v -0.10868 0.07179 -0.14345
v -0.10127 0.05173 -0.14694
v -0.08398 0.04330 -0.15692
v -0.06695 0.05144 -0.16757
v -0.06015 0.07138 -0.17263
v -0.06756 0.09144 -0.16914
v -0.05631 0.09992 -0.11246
v -0.07312 0.09195 -0.10227
v -0.08036 0.07242 -0.09825
v -0.07378 0.05276 -0.10276
v -0.05724 0.04449 -0.11316
v -0.04043 0.05246 -0.12335
v -0.03319 0.07199 -0.12737
v -0.03976 0.09165 -0.12286
v -0.02722 0.09653 -0.06578
v -0.04387 0.08876 -0.05613
v -0.05158 0.06971 -0.05319
v -0.04581 0.05053 -0.05868
v -0.02996 0.04247 -0.06938
v -0.01330 0.05024 -0.07903
v -0.00560 0.06929 -0.08197
v -0.01137 0.08846 -0.07648
v 0.00203 0.08954 -0.01913
v -0.01452 0.08200 -0.01012
v -0.02269 0.06352 -0.00827
v -0.01770 0.04491 -0.01467
v -0.00247 0.03709 -0.02557
v 0.01408 0.04463 -0.03458
v 0.02225 0.06311 -0.03643
v 0.01726 0.08172 -0.03003
v 0.03103 0.07885 0.02748
v 0.01454 0.07159 0.03577
v 0.00590 0.05376 0.03651
v 0.01017 0.03580 0.02927
v 0.02485 0.02823 0.01829
v 0.04134 0.03549 0.01000
v 0.04998 0.05332 0.00926
v 0.04571 0.07128 0.01650
v 0.05934 0.06439 0.07402
v 0.04288 0.05747 0.08151
v 0.03379 0.04038 0.08115
v 0.03741 0.02312 0.07315
v 0.05160 0.01580 0.06221
v 0.06807 0.02272 0.05472
v 0.07715 0.03981 0.05508
v 0.07354 0.05707 0.06307
v 0.08648 0.04612 0.12049
v 0.07003 0.03963 0.12710
v 0.06054 0.02336 0.12566
v 0.06358 0.00685 0.11700
v 0.07737 -0.00023 0.10620
v 0.09382 0.00627 0.09959
v 0.10331 0.02253 0.10103
v 0.10027 0.03904 0.10969
v 0.11197 0.02410 0.16686
v 0.09552 0.01810 0.17254
v 0.08569 0.00274 0.17004
v 0.08824 -0.01299 0.16083
v 0.10168 -0.01987 0.15029
v 0.11813 -0.01387 0.14461
v 0.12796 0.00149 0.14711
v 0.12540 0.01722 0.15633
v 0.13529 -0.00158 0.21313
v 0.11886 -0.00700 0.21783
v 0.10877 -0.02139 0.21432
v 0.11093 -0.03633 0.20465
v 0.12407 -0.04306 0.19448
v 0.14049 -0.03764 0.18978
v 0.15058 -0.02325 0.19329
v 0.14843 -0.00831 0.20296
v 0.15593 -0.03076 0.25927
v 0.13957 -0.03551 0.26296
v 0.12931 -0.04888 0.25850
v 0.13116 -0.06303 0.24849
v 0.14404 -0.06968 0.23880
v 0.16040 -0.06493 0.23511
v 0.17066 -0.05156 0.23958
v 0.16881 -0.03741 0.24958
v 0.17323 -0.06283 0.30476
v 0.15716 -0.06716 0.30791
v 0.14700 -0.07982 0.30307
v 0.14869 -0.09339 0.29307
v 0.16126 -0.09992 0.28378
v 0.17733 -0.09559 0.28063
v 0.18749 -0.08293 0.28547
v 0.18579 -0.06936 0.29546
v -0.16098 0.05160 -0.29373
v 0.16724 -0.08137 0.29427
f 2 9 1
f 2 11 10
f 3 12 11
f 4 13 12
f 5 14 13
f 7 14 6
f 8 15 7
f 1 16 8
f 9 18 17
f 10 19 18
f 11 20 19
f 13 20 12
f 14 21 13
f 15 22 14
f 16 23 15
f 16 17 24
f 17 26 25
f 18 27 26
f 19 28 27
f 21 28 20
f 22 29 21
f 23 30 22
f 24 31 23
f 24 25 32
f 25 34 33
f 26 35 34
f 27 36 35
f 29 36 28
f 30 37 29
f 31 38 30
f 32 39 31
f 32 33 40
f 33 42 41
f 34 43 42
f 35 44 43
f 37 44 36
f 38 45 37
f 39 46 38
f 40 47 39
f 40 41 48
f 41 50 49
f 42 51 50
f 44 51 43
f 45 52 44
f 46 53 45
f 47 54 46
f 47 56 55
f 48 49 56
f 49 58 57
f 50 59 58
f 52 59 51
f 53 60 52
f 54 61 53
f 55 62 54
f 55 64 63
f 56 57 64
f 57 66 65
f 58 67 66
f 60 67 59
f 61 68 60
f 62 69 61
f 63 70 62
f 63 72 71
f 64 65 72
f 65 74 73
f 66 75 74
f 68 75 67
f 69 76 68
f 70 77 69
f 71 78 70
f 71 80 79
f 72 73 80
f 73 82 81
f 74 83 82
f 76 83 75
f 77 84 76
f 78 85 77
f 79 86 78
f 79 88 87
f 80 81 88
f 81 90 89
f 82 91 90
f 84 91 83
f 85 92 84
f 86 93 85
f 87 94 86
f 87 96 95
f 88 89 96
f 89 98 97
f 91 98 90
f 92 99 91
f 93 100 92
f 94 101 93
f 95 102 94
f 95 104 103
f 96 97 104
f 98 105 97
f 99 106 98
f 100 107 99
f 100 109 108
f 101 110 109
f 102 111 110
f 103 112 111
f 97 112 104
f 113 2 1
f 113 3 2
f 113 4 3
f 113 5 4
f 113 6 5
f 113 7 6
f 113 8 7
f 113 1 8
f 105 106 114
f 106 107 114
f 107 108 114
f 108 109 114
f 109 110 114
f 110 111 114
f 111 112 114
f 112 105 114
f 2 10 9
f 2 3 11
f 3 4 12
f 4 5 13
f 5 6 14
f 7 15 14
f 8 16 15
f 1 9 16
f 9 10 18
f 10 11 19
f 11 12 20
f 13 21 20
f 14 22 21
f 15 23 22
f 16 24 23
f 16 9 17
f 17 18 26
f 18 19 27
f 19 20 28
f 21 29 28
f 22 30 29
f 23 31 30
f 24 32 31
f 24 17 25
f 25 26 34
f 26 27 35
f 27 28 36
f 29 37 36
f 30 38 37
f 31 39 38
f 32 40 39
f 32 25 33
f 33 34 42
f 34 35 43
f 35 36 44
f 37 45 44
f 38 46 45
f 39 47 46
f 40 48 47
f 40 33 41
f 41 42 50
f 42 43 51
f 44 52 51
f 45 53 52
f 46 54 53
f 47 55 54
f 47 48 56
f 48 41 49
f 49 50 58
f 50 51 59
f 52 60 59
f 53 61 60
f 54 62 61
f 55 63 62
f 55 56 64
f 56 49 57
f 57 58 66
f 58 59 67
f 60 68 67
f 61 69 68
f 62 70 69
f 63 71 70
f 63 64 72
f 64 57 65
f 65 66 74
f 66 67 75
f 68 76 75
f 69 77 76
f 70 78 77
f 71 79 78
f 71 72 80
f 72 65 73
f 73 74 82
f 74 75 83
f 76 84 83
f 77 85 84
f 78 86 85
f 79 87 86
f 79 80 88
f 80 73 81
f 81 82 90
f 82 83 91
f 84 92 91
f 85 93 92
f 86 94 93
f 87 95 94
f 87 88 96
f 88 81 89
f 89 90 98
f 91 99 98
f 92 100 99
f 93 101 100
f 94 102 101
f 95 103 102
f 95 96 104
f 96 89 97
f 98 106 105
f 99 107 106
f 100 108 107
f 100 101 109
f 101 102 110
f 102 103 111
f 103 104 112
f 97 105 112
