# kraken Tentacle1_1_Core.obj: Roblox cue frame, recentred on its bounding box
v 0.04831 0.16143 -0.27707
v 0.02571 0.15082 -0.29044
v 0.01828 0.12521 -0.29998
v 0.03037 0.09961 -0.30010
v 0.05490 0.08900 -0.29074
v 0.07750 0.09961 -0.27737
v 0.08493 0.12521 -0.26783
v 0.07284 0.15082 -0.26771
v 0.02677 0.15042 -0.23237
v 0.00448 0.13997 -0.24545
v -0.00259 0.11489 -0.25538
v 0.00970 0.08989 -0.25633
v 0.03415 0.07960 -0.24775
v 0.05644 0.09005 -0.23467
v 0.06351 0.11513 -0.22474
v 0.05122 0.14014 -0.22379
v 0.00665 0.13626 -0.18682
v -0.01541 0.12592 -0.19945
v -0.02197 0.10154 -0.21019
v -0.00919 0.07739 -0.21274
v 0.01544 0.06763 -0.20561
v 0.03750 0.07796 -0.19297
v 0.04406 0.10235 -0.18224
v 0.03128 0.12650 -0.17969
v -0.01124 0.11948 -0.14148
v -0.03312 0.10919 -0.15349
v -0.03929 0.08549 -0.16485
v -0.02614 0.06226 -0.16889
v -0.00137 0.05311 -0.16325
v 0.02050 0.06340 -0.15124
v 0.02667 0.08711 -0.13989
v 0.01352 0.11033 -0.13585
v -0.02662 0.10042 -0.09636
v -0.04834 0.09009 -0.10760
v -0.05423 0.06704 -0.11938
v -0.04083 0.04476 -0.12480
v -0.01600 0.03632 -0.12068
v 0.00572 0.04665 -0.10944
v 0.01161 0.06970 -0.09766
v -0.00179 0.09198 -0.09224
v -0.03924 0.07943 -0.05145
v -0.06080 0.06897 -0.06178
v -0.06649 0.04652 -0.07381
v -0.05297 0.02521 -0.08048
v -0.02816 0.01754 -0.07790
v -0.00659 0.02799 -0.06756
v -0.00090 0.05045 -0.05554
v -0.01442 0.07175 -0.04887
v -0.04889 0.05686 -0.00677
v -0.07028 0.04620 -0.01607
v -0.07584 0.02428 -0.02817
v -0.06231 0.00393 -0.03596
v -0.03761 -0.00292 -0.03489
v -0.01622 0.00775 -0.02558
v -0.01067 0.02967 -0.01349
v -0.02420 0.05002 -0.00570
v -0.05542 0.03311 0.03770
v -0.07658 0.02217 0.02952
v -0.08204 0.00069 0.01753
v -0.06860 -0.01873 0.00876
v -0.04414 -0.02472 0.00834
v -0.02298 -0.01377 0.01652
v -0.01751 0.00770 0.02851
v -0.03095 0.02712 0.03728
v -0.05868 0.00856 0.08194
v -0.07955 -0.00274 0.07498
v -0.08493 -0.02384 0.06325
v -0.07168 -0.04239 0.05365
v -0.04756 -0.04751 0.05178
v -0.02669 -0.03620 0.05875
v -0.02130 -0.01510 0.07047
v -0.03456 0.00344 0.08008
v -0.05860 -0.01639 0.12597
v -0.07908 -0.02809 0.12028
v -0.08438 -0.04891 0.10898
v -0.07138 -0.06665 0.09870
v -0.04771 -0.07090 0.09545
v -0.02723 -0.05920 0.10114
v -0.02193 -0.03838 0.11244
v -0.03492 -0.02064 0.12272
v -0.05510 -0.04131 0.16977
v -0.07510 -0.05349 0.16547
v -0.08027 -0.07412 0.15477
v -0.06759 -0.09111 0.14395
v -0.04448 -0.09452 0.13934
v -0.02449 -0.08234 0.14365
v -0.01931 -0.06171 0.15434
v -0.03200 -0.04471 0.16517
v -0.04795 -0.06566 0.21334
v -0.06734 -0.07833 0.21047
v -0.07233 -0.09885 0.20053
v -0.05999 -0.11520 0.18935
v -0.03755 -0.11780 0.18347
v -0.01816 -0.10513 0.18634
v -0.01318 -0.08461 0.19627
v -0.02552 -0.06826 0.20746
v -0.03738 -0.08901 0.25670
v -0.05605 -0.10213 0.25523
v -0.06077 -0.12258 0.24615
v -0.04877 -0.13838 0.23479
v -0.02708 -0.14029 0.22780
v -0.00841 -0.12717 0.22927
v -0.00369 -0.10672 0.23834
v -0.01569 -0.09091 0.24970
v -0.02347 -0.11108 0.30010
v -0.04155 -0.12426 0.29932
v -0.04607 -0.14446 0.29079
v -0.03436 -0.15986 0.27951
v -0.01330 -0.16143 0.27208
v 0.00479 -0.14825 0.27287
v 0.00930 -0.12805 0.28140
v -0.00240 -0.11265 0.29268
v 0.05161 0.12521 -0.28391
v -0.01838 -0.13625 0.28609
f 2 9 1
f 2 11 10
f 3 12 11
f 4 13 12
f 5 14 13
f 7 14 6
f 8 15 7
f 1 16 8
f 10 17 9
f 11 18 10
f 11 20 19
f 12 21 20
f 13 22 21
f 14 23 22
f 15 24 23
f 9 24 16
f 18 25 17
f 19 26 18
f 19 28 27
f 20 29 28
f 21 30 29
f 22 31 30
f 23 32 31
f 17 32 24
f 26 33 25
f 27 34 26
f 27 36 35
f 28 37 36
f 29 38 37
f 30 39 38
f 31 40 39
f 25 40 32
f 34 41 33
f 35 42 34
f 36 43 35
f 36 45 44
f 37 46 45
f 38 47 46
f 39 48 47
f 40 41 48
f 42 49 41
f 43 50 42
f 44 51 43
f 44 53 52
f 45 54 53
f 46 55 54
f 47 56 55
f 48 49 56
f 50 57 49
f 51 58 50
f 52 59 51
f 52 61 60
f 53 62 61
f 54 63 62
f 55 64 63
f 56 57 64
f 58 65 57
f 59 66 58
f 60 67 59
f 60 69 68
f 61 70 69
f 62 71 70
f 63 72 71
f 64 65 72
f 66 73 65
f 67 74 66
f 68 75 67
f 68 77 76
f 69 78 77
f 70 79 78
f 71 80 79
f 72 73 80
f 74 81 73
f 75 82 74
f 76 83 75
f 76 85 84
f 77 86 85
f 78 87 86
f 79 88 87
f 73 88 80
f 82 89 81
f 83 90 82
f 84 91 83
f 85 92 84
f 85 94 93
f 86 95 94
f 87 96 95
f 88 89 96
f 90 97 89
f 91 98 90
f 92 99 91
f 93 100 92
f 93 102 101
f 94 103 102
f 95 104 103
f 96 97 104
f 97 106 105
f 98 107 106
f 100 107 99
f 101 108 100
f 102 109 101
f 103 110 102
f 103 112 111
f 104 105 112
f 113 2 1
f 113 3 2
f 113 4 3
f 113 5 4
f 113 6 5
f 113 7 6
f 113 8 7
f 113 1 8
f 105 106 114
f 106 107 114
f 107 108 114
f 108 109 114
f 109 110 114
f 110 111 114
f 111 112 114
f 112 105 114
f 2 10 9
f 2 3 11
f 3 4 12
f 4 5 13
f 5 6 14
f 7 15 14
f 8 16 15
f 1 9 16
f 10 18 17
f 11 19 18
f 11 12 20
f 12 13 21
f 13 14 22
f 14 15 23
f 15 16 24
f 9 17 24
f 18 26 25
f 19 27 26
f 19 20 28
f 20 21 29
f 21 22 30
f 22 23 31
f 23 24 32
f 17 25 32
f 26 34 33
f 27 35 34
f 27 28 36
f 28 29 37
f 29 30 38
f 30 31 39
f 31 32 40
f 25 33 40
f 34 42 41
f 35 43 42
f 36 44 43
f 36 37 45
f 37 38 46
f 38 39 47
f 39 40 48
f 40 33 41
f 42 50 49
f 43 51 50
f 44 52 51
f 44 45 53
f 45 46 54
f 46 47 55
f 47 48 56
f 48 41 49
f 50 58 57
f 51 59 58
f 52 60 59
f 52 53 61
f 53 54 62
f 54 55 63
f 55 56 64
f 56 49 57
f 58 66 65
f 59 67 66
f 60 68 67
f 60 61 69
f 61 62 70
f 62 63 71
f 63 64 72
f 64 57 65
f 66 74 73
f 67 75 74
f 68 76 75
f 68 69 77
f 69 70 78
f 70 71 79
f 71 72 80
f 72 65 73
f 74 82 81
f 75 83 82
f 76 84 83
f 76 77 85
f 77 78 86
f 78 79 87
f 79 80 88
f 73 81 88
f 82 90 89
f 83 91 90
f 84 92 91
f 85 93 92
f 85 86 94
f 86 87 95
f 87 88 96
f 88 81 89
f 90 98 97
f 91 99 98
f 92 100 99
f 93 101 100
f 93 94 102
f 94 95 103
f 95 96 104
f 96 89 97
f 97 98 106
f 98 99 107
f 100 108 107
f 101 109 108
f 102 110 109
f 103 111 110
f 103 104 112
f 104 97 105
