# kraken Tentacle1_4_Core.obj: Roblox cue frame, recentred on its bounding box
v 0.28416 -0.08608 -0.24333
v 0.27276 -0.08948 -0.24484
v 0.26563 -0.09771 -0.23982
v 0.26694 -0.10593 -0.23119
v 0.27592 -0.10934 -0.22402
v 0.28732 -0.10593 -0.22250
v 0.29445 -0.09771 -0.22753
v 0.29314 -0.08948 -0.23615
v 0.26829 -0.05053 -0.20616
v 0.25760 -0.05422 -0.20805
v 0.25093 -0.06239 -0.20354
v 0.25218 -0.07025 -0.19528
v 0.26063 -0.07319 -0.18810
v 0.27132 -0.06950 -0.18621
v 0.27800 -0.06133 -0.19072
v 0.27674 -0.05347 -0.19899
v 0.24600 -0.01559 -0.16877
v 0.23630 -0.01991 -0.17138
v 0.23031 -0.02828 -0.16767
v 0.23155 -0.03580 -0.15981
v 0.23929 -0.03805 -0.15242
v 0.24900 -0.03373 -0.14981
v 0.25498 -0.02535 -0.15352
v 0.25374 -0.01784 -0.16138
v 0.21721 0.01740 -0.13131
v 0.20859 0.01258 -0.13454
v 0.20341 0.00405 -0.13163
v 0.20471 -0.00319 -0.12428
v 0.21173 -0.00489 -0.11680
v 0.22035 -0.00006 -0.11357
v 0.22553 0.00847 -0.11648
v 0.22423 0.01570 -0.12383
v 0.18202 0.04719 -0.09382
v 0.17453 0.04201 -0.09757
v 0.17026 0.03341 -0.09543
v 0.17170 0.02643 -0.08865
v 0.17801 0.02514 -0.08121
v 0.18549 0.03032 -0.07747
v 0.18976 0.03892 -0.07961
v 0.18833 0.04591 -0.08638
v 0.14071 0.07249 -0.05632
v 0.13439 0.06715 -0.06048
v 0.13108 0.05861 -0.05907
v 0.13274 0.05187 -0.05292
v 0.13838 0.05089 -0.04564
v 0.14471 0.05624 -0.04148
v 0.14801 0.06478 -0.04289
v 0.14635 0.07151 -0.04904
v 0.09384 0.09207 -0.01883
v 0.08865 0.08673 -0.02328
v 0.08635 0.07839 -0.02255
v 0.08829 0.07195 -0.01707
v 0.09333 0.07118 -0.01005
v 0.09852 0.07652 -0.00560
v 0.10082 0.08485 -0.00633
v 0.09888 0.09129 -0.01181
v 0.04220 0.10472 0.01863
v 0.03808 0.09955 0.01401
v 0.03677 0.09159 0.01413
v 0.03902 0.08551 0.01892
v 0.04353 0.08487 0.02557
v 0.04765 0.09004 0.03019
v 0.04896 0.09799 0.03007
v 0.04670 0.10407 0.02528
v -0.01318 0.10934 0.05603
v -0.01632 0.10450 0.05136
v -0.01672 0.09710 0.05095
v -0.01413 0.09147 0.05505
v -0.01008 0.09092 0.06124
v -0.00694 0.09576 0.06591
v -0.00655 0.10316 0.06632
v -0.00913 0.10878 0.06223
v -0.07103 0.10499 0.09336
v -0.07332 0.10061 0.08877
v -0.07290 0.09392 0.08793
v -0.07002 0.08885 0.09133
v -0.06636 0.08837 0.09699
v -0.06408 0.09276 0.10158
v -0.06449 0.09944 0.10242
v -0.06737 0.10451 0.09902
v -0.12985 0.09093 0.13061
v -0.13142 0.08710 0.12622
v -0.13035 0.08128 0.12505
v -0.12726 0.07688 0.12778
v -0.12396 0.07647 0.13282
v -0.12239 0.08030 0.13721
v -0.12346 0.08612 0.13838
v -0.12655 0.09053 0.13565
v -0.18796 0.06665 0.16775
v -0.18897 0.06345 0.16371
v -0.18745 0.05861 0.16233
v -0.18429 0.05497 0.16442
v -0.18134 0.05466 0.16875
v -0.18033 0.05786 0.17280
v -0.18185 0.06270 0.17418
v -0.18501 0.06634 0.17209
v -0.24351 0.03190 0.20476
v -0.24410 0.02939 0.20124
v -0.24239 0.02564 0.19980
v -0.23937 0.02285 0.20129
v -0.23681 0.02267 0.20482
v -0.23622 0.02518 0.20834
v -0.23794 0.02893 0.20978
v -0.24096 0.03171 0.20829
v -0.29411 -0.01327 0.24144
v -0.29445 -0.01498 0.23892
v -0.29310 -0.01750 0.23781
v -0.29086 -0.01935 0.23876
v -0.28903 -0.01945 0.24122
v -0.28869 -0.01774 0.24374
v -0.29004 -0.01522 0.24484
v -0.29228 -0.01337 0.24389
v 0.28004 -0.09771 -0.23367
v -0.29157 -0.01636 0.24133
f 1 10 9
f 2 11 10
f 4 11 3
f 5 12 4
f 6 13 5
f 7 14 6
f 7 16 15
f 8 9 16
f 9 18 17
f 10 19 18
f 11 20 19
f 12 21 20
f 14 21 13
f 15 22 14
f 16 23 15
f 9 24 16
f 17 26 25
f 18 27 26
f 19 28 27
f 20 29 28
f 22 29 21
f 23 30 22
f 24 31 23
f 17 32 24
f 25 34 33
f 26 35 34
f 27 36 35
f 28 37 36
f 30 37 29
f 31 38 30
f 32 39 31
f 25 40 32
f 34 41 33
f 34 43 42
f 35 44 43
f 36 45 44
f 38 45 37
f 39 46 38
f 40 47 39
f 33 48 40
f 42 49 41
f 42 51 50
f 43 52 51
f 44 53 52
f 46 53 45
f 47 54 46
f 48 55 47
f 41 56 48
f 50 57 49
f 50 59 58
f 51 60 59
f 52 61 60
f 54 61 53
f 55 62 54
f 56 63 55
f 49 64 56
f 58 65 57
f 58 67 66
f 59 68 67
f 60 69 68
f 61 70 69
f 63 70 62
f 64 71 63
f 57 72 64
f 66 73 65
f 66 75 74
f 67 76 75
f 68 77 76
f 69 78 77
f 71 78 70
f 72 79 71
f 65 80 72
f 74 81 73
f 74 83 82
f 75 84 83
f 76 85 84
f 77 86 85
f 79 86 78
f 80 87 79
f 73 88 80
f 82 89 81
f 82 91 90
f 83 92 91
f 84 93 92
f 85 94 93
f 87 94 86
f 88 95 87
f 81 96 88
f 90 97 89
f 90 99 98
f 91 100 99
f 92 101 100
f 93 102 101
f 95 102 94
f 96 103 95
f 89 104 96
f 98 105 97
f 99 106 98
f 100 107 99
f 101 108 100
f 101 110 109
f 102 111 110
f 103 112 111
f 104 105 112
f 113 2 1
f 113 3 2
f 113 4 3
f 113 5 4
f 113 6 5
f 113 7 6
f 113 8 7
f 113 1 8
f 105 106 114
f 106 107 114
f 107 108 114
f 108 109 114
f 109 110 114
f 110 111 114
f 111 112 114
f 112 105 114
f 1 2 10
f 2 3 11
f 4 12 11
f 5 13 12
f 6 14 13
f 7 15 14
f 7 8 16
f 8 1 9
f 9 10 18
f 10 11 19
f 11 12 20
f 12 13 21
f 14 22 21
f 15 23 22
f 16 24 23
f 9 17 24
f 17 18 26
f 18 19 27
f 19 20 28
f 20 21 29
f 22 30 29
f 23 31 30
f 24 32 31
f 17 25 32
f 25 26 34
f 26 27 35
f 27 28 36
f 28 29 37
f 30 38 37
f 31 39 38
f 32 40 39
f 25 33 40
f 34 42 41
f 34 35 43
f 35 36 44
f 36 37 45
f 38 46 45
f 39 47 46
f 40 48 47
f 33 41 48
f 42 50 49
f 42 43 51
f 43 44 52
f 44 45 53
f 46 54 53
f 47 55 54
f 48 56 55
f 41 49 56
f 50 58 57
f 50 51 59
f 51 52 60
f 52 53 61
f 54 62 61
f 55 63 62
f 56 64 63
f 49 57 64
f 58 66 65
f 58 59 67
f 59 60 68
f 60 61 69
f 61 62 70
f 63 71 70
f 64 72 71
f 57 65 72
f 66 74 73
f 66 67 75
f 67 68 76
f 68 69 77
f 69 70 78
f 71 79 78
f 72 80 79
f 65 73 80
f 74 82 81
f 74 75 83
f 75 76 84
f 76 77 85
f 77 78 86
f 79 87 86
f 80 88 87
f 73 81 88
f 82 90 89
f 82 83 91
f 83 84 92
f 84 85 93
f 85 86 94
f 87 95 94
f 88 96 95
f 81 89 96
f 90 98 97
f 90 91 99
f 91 92 100
f 92 93 101
f 93 94 102
f 95 103 102
f 96 104 103
f 89 97 104
f 98 106 105
f 99 107 106
f 100 108 107
f 101 109 108
f 101 102 110
f 102 103 111
f 103 104 112
f 104 97 105
