# kraken Tentacle4_1_Core.obj: Roblox cue frame, recentred on its bounding box
v 0.08772 0.15586 -0.20210
v 0.06078 0.14717 -0.20298
v 0.04692 0.12620 -0.21602
v 0.05426 0.10523 -0.23358
v 0.07849 0.09654 -0.24537
v 0.10543 0.10523 -0.24449
v 0.11929 0.12620 -0.23145
v 0.11196 0.14717 -0.21389
v 0.09509 0.12871 -0.16743
v 0.06838 0.12093 -0.16933
v 0.05462 0.10078 -0.18281
v 0.06187 0.08006 -0.19999
v 0.08589 0.07090 -0.21080
v 0.11259 0.07867 -0.20891
v 0.12635 0.09883 -0.19542
v 0.11910 0.11955 -0.17824
v 0.09837 0.10053 -0.13255
v 0.07190 0.09441 -0.13641
v 0.05827 0.07549 -0.15087
v 0.06546 0.05485 -0.16746
v 0.08926 0.04459 -0.17646
v 0.11573 0.05071 -0.17260
v 0.12936 0.06963 -0.15814
v 0.12217 0.09027 -0.14155
v 0.09750 0.07232 -0.09797
v 0.07150 0.06778 -0.10367
v 0.05813 0.04993 -0.11887
v 0.06521 0.02922 -0.13467
v 0.08859 0.01778 -0.14181
v 0.11459 0.02231 -0.13611
v 0.12796 0.04016 -0.12090
v 0.12088 0.06088 -0.10511
v 0.09255 0.04461 -0.06367
v 0.06723 0.04155 -0.07107
v 0.05419 0.02460 -0.08679
v 0.06105 0.00367 -0.10162
v 0.08381 -0.00896 -0.10687
v 0.10912 -0.00590 -0.09947
v 0.12216 0.01106 -0.08375
v 0.11530 0.03198 -0.06892
v 0.08364 0.01795 -0.02964
v 0.05919 0.01623 -0.03859
v 0.04650 -0.00001 -0.05460
v 0.05301 -0.02125 -0.06831
v 0.07491 -0.03504 -0.07168
v 0.09937 -0.03331 -0.06273
v 0.11206 -0.01707 -0.04671
v 0.10554 0.00416 -0.03300
v 0.07097 -0.00715 0.00415
v 0.04750 -0.00772 -0.00618
v 0.03515 -0.02340 -0.02229
v 0.04115 -0.04501 -0.03474
v 0.06199 -0.05988 -0.03623
v 0.08546 -0.05931 -0.02590
v 0.09781 -0.04363 -0.00979
v 0.09181 -0.02203 0.00265
v 0.05474 -0.03022 0.03771
v 0.03236 -0.02982 0.02617
v 0.02028 -0.04508 0.01017
v 0.02560 -0.06708 -0.00090
v 0.04519 -0.08292 -0.00056
v 0.06757 -0.08332 0.01098
v 0.07965 -0.06805 0.02697
v 0.07433 -0.04606 0.03805
v 0.03525 -0.05079 0.07107
v 0.01399 -0.04961 0.05849
v 0.00210 -0.06458 0.04280
v 0.00654 -0.08694 0.03320
v 0.02472 -0.10358 0.03530
v 0.04598 -0.10476 0.04789
v 0.05787 -0.08979 0.06358
v 0.05343 -0.06743 0.07318
v 0.01282 -0.06842 0.10425
v -0.00731 -0.06666 0.09081
v -0.01914 -0.08142 0.07561
v -0.01575 -0.10406 0.06755
v 0.00089 -0.12132 0.07135
v 0.02102 -0.12309 0.08480
v 0.03285 -0.10833 0.10000
v 0.02946 -0.08568 0.10806
v -0.01217 -0.08273 0.13728
v -0.03121 -0.08056 0.12316
v -0.04313 -0.09515 0.10861
v -0.04095 -0.11796 0.10215
v -0.02593 -0.13562 0.10756
v -0.00689 -0.13780 0.12168
v 0.00503 -0.12320 0.13623
v 0.00284 -0.10039 0.14269
v -0.03930 -0.09333 0.17016
v -0.05734 -0.09092 0.15555
v -0.06950 -0.10534 0.14181
v -0.06865 -0.12816 0.13699
v -0.05529 -0.14601 0.14391
v -0.03726 -0.14842 0.15852
v -0.02510 -0.13400 0.17226
v -0.02595 -0.11118 0.17708
v -0.06810 -0.09992 0.20294
v -0.08524 -0.09738 0.18802
v -0.09778 -0.11160 0.17523
v -0.09837 -0.13423 0.17206
v -0.08666 -0.15203 0.18037
v -0.06952 -0.15457 0.19528
v -0.05698 -0.14035 0.20807
v -0.05639 -0.11772 0.21124
v -0.09889 -0.10219 0.23650
v -0.11544 -0.09967 0.22164
v -0.12807 -0.11361 0.20949
v -0.12936 -0.13584 0.20716
v -0.11857 -0.15334 0.21603
v -0.10202 -0.15586 0.23089
v -0.08939 -0.14192 0.24305
v -0.08810 -0.11969 0.24537
v 0.08311 0.12620 -0.22373
v -0.10873 -0.12777 0.22627
f 1 10 9
f 2 11 10
f 4 11 3
f 5 12 4
f 6 13 5
f 7 14 6
f 7 16 15
f 8 9 16
f 10 17 9
f 11 18 10
f 12 19 11
f 13 20 12
f 14 21 13
f 14 23 22
f 15 24 23
f 16 17 24
f 18 25 17
f 19 26 18
f 20 27 19
f 21 28 20
f 21 30 29
f 22 31 30
f 23 32 31
f 24 25 32
f 26 33 25
f 27 34 26
f 28 35 27
f 29 36 28
f 29 38 37
f 30 39 38
f 31 40 39
f 32 33 40
f 34 41 33
f 35 42 34
f 36 43 35
f 37 44 36
f 37 46 45
f 38 47 46
f 39 48 47
f 40 41 48
f 42 49 41
f 43 50 42
f 44 51 43
f 45 52 44
f 45 54 53
f 46 55 54
f 47 56 55
f 48 49 56
f 50 57 49
f 51 58 50
f 52 59 51
f 52 61 60
f 53 62 61
f 54 63 62
f 55 64 63
f 56 57 64
f 58 65 57
f 59 66 58
f 60 67 59
f 60 69 68
f 61 70 69
f 62 71 70
f 63 72 71
f 64 65 72
f 66 73 65
f 67 74 66
f 68 75 67
f 68 77 76
f 69 78 77
f 70 79 78
f 71 80 79
f 72 73 80
f 74 81 73
f 75 82 74
f 76 83 75
f 76 85 84
f 77 86 85
f 78 87 86
f 79 88 87
f 80 81 88
f 82 89 81
f 83 90 82
f 84 91 83
f 84 93 92
f 85 94 93
f 86 95 94
f 87 96 95
f 88 89 96
f 90 97 89
f 91 98 90
f 92 99 91
f 92 101 100
f 93 102 101
f 94 103 102
f 95 104 103
f 96 97 104
f 98 105 97
f 98 107 106
f 99 108 107
f 100 109 108
f 101 110 109
f 103 110 102
f 104 111 103
f 97 112 104
f 113 2 1
f 113 3 2
f 113 4 3
f 113 5 4
f 113 6 5
f 113 7 6
f 113 8 7
f 113 1 8
f 105 106 114
f 106 107 114
f 107 108 114
f 108 109 114
f 109 110 114
f 110 111 114
f 111 112 114
f 112 105 114
f 1 2 10
f 2 3 11
f 4 12 11
f 5 13 12
f 6 14 13
f 7 15 14
f 7 8 16
f 8 1 9
f 10 18 17
f 11 19 18
f 12 20 19
f 13 21 20
f 14 22 21
f 14 15 23
f 15 16 24
f 16 9 17
f 18 26 25
f 19 27 26
f 20 28 27
f 21 29 28
f 21 22 30
f 22 23 31
f 23 24 32
f 24 17 25
f 26 34 33
f 27 35 34
f 28 36 35
f 29 37 36
f 29 30 38
f 30 31 39
f 31 32 40
f 32 25 33
f 34 42 41
f 35 43 42
f 36 44 43
f 37 45 44
f 37 38 46
f 38 39 47
f 39 40 48
f 40 33 41
f 42 50 49
f 43 51 50
f 44 52 51
f 45 53 52
f 45 46 54
f 46 47 55
f 47 48 56
f 48 41 49
f 50 58 57
f 51 59 58
f 52 60 59
f 52 53 61
f 53 54 62
f 54 55 63
f 55 56 64
f 56 49 57
f 58 66 65
f 59 67 66
f 60 68 67
f 60 61 69
f 61 62 70
f 62 63 71
f 63 64 72
f 64 57 65
f 66 74 73
f 67 75 74
f 68 76 75
f 68 69 77
f 69 70 78
f 70 71 79
f 71 72 80
f 72 65 73
f 74 82 81
f 75 83 82
f 76 84 83
f 76 77 85
f 77 78 86
f 78 79 87
f 79 80 88
f 80 73 81
f 82 90 89
f 83 91 90
f 84 92 91
f 84 85 93
f 85 86 94
f 86 87 95
f 87 88 96
f 88 81 89
f 90 98 97
f 91 99 98
f 92 100 99
f 92 93 101
f 93 94 102
f 94 95 103
f 95 96 104
f 96 89 97
f 98 106 105
f 98 99 107
f 99 100 108
f 100 101 109
f 101 102 110
f 103 111 110
f 104 112 111
f 97 105 112
