# kraken Tentacle4_4_Core.obj: Roblox cue frame, recentred on its bounding box
v -0.21563 0.14687 -0.18379
v -0.22195 0.14230 -0.17468
v -0.22391 0.13127 -0.17041
v -0.22036 0.12023 -0.17348
v -0.21337 0.11566 -0.18209
v -0.20705 0.12023 -0.19120
v -0.20509 0.13127 -0.19547
v -0.20864 0.14230 -0.19240
v -0.17661 0.15058 -0.15448
v -0.18279 0.14619 -0.14587
v -0.18505 0.13561 -0.14207
v -0.18206 0.12502 -0.14532
v -0.17559 0.12063 -0.15370
v -0.16941 0.12501 -0.16232
v -0.16715 0.13560 -0.16612
v -0.17013 0.14619 -0.16287
v -0.13641 0.14969 -0.12484
v -0.14256 0.14552 -0.11681
v -0.14545 0.13543 -0.11373
v -0.14338 0.12533 -0.11739
v -0.13756 0.12114 -0.12566
v -0.13141 0.12531 -0.13368
v -0.12853 0.13541 -0.13677
v -0.13060 0.14550 -0.13310
v -0.09600 0.14424 -0.09529
v -0.10212 0.14030 -0.08786
v -0.10556 0.13079 -0.08544
v -0.10429 0.12128 -0.08944
v -0.09907 0.11733 -0.09751
v -0.09295 0.12127 -0.10494
v -0.08951 0.13078 -0.10736
v -0.09078 0.14029 -0.10337
v -0.05580 0.13419 -0.06583
v -0.06188 0.13054 -0.05902
v -0.06579 0.12169 -0.05721
v -0.06522 0.11283 -0.06146
v -0.06052 0.10916 -0.06928
v -0.05444 0.11281 -0.07609
v -0.05053 0.12166 -0.07790
v -0.05110 0.13052 -0.07365
v -0.01625 0.11958 -0.03646
v -0.02229 0.11624 -0.03027
v -0.02657 0.10812 -0.02902
v -0.02660 0.09998 -0.03345
v -0.02236 0.09658 -0.04095
v -0.01633 0.09993 -0.04714
v -0.01204 0.10805 -0.04839
v -0.01201 0.11619 -0.04397
v 0.02217 0.10047 -0.00719
v 0.01623 0.09748 -0.00163
v 0.01166 0.09014 -0.00089
v 0.01115 0.08275 -0.00540
v 0.01499 0.07964 -0.01253
v 0.02094 0.08263 -0.01810
v 0.02550 0.08997 -0.01884
v 0.02601 0.09736 -0.01432
v 0.05902 0.07695 0.02198
v 0.05321 0.07434 0.02692
v 0.04848 0.06782 0.02721
v 0.04760 0.06121 0.02268
v 0.05108 0.05838 0.01599
v 0.05689 0.06099 0.01105
v 0.06162 0.06751 0.01075
v 0.06251 0.07412 0.01528
v 0.09385 0.04918 0.05105
v 0.08823 0.04698 0.05537
v 0.08345 0.04130 0.05528
v 0.08230 0.03548 0.05082
v 0.08547 0.03292 0.04461
v 0.09108 0.03512 0.04029
v 0.09586 0.04080 0.04038
v 0.09701 0.04662 0.04484
v 0.12621 0.01734 0.08001
v 0.12086 0.01556 0.08372
v 0.11616 0.01073 0.08331
v 0.11486 0.00569 0.07901
v 0.11772 0.00339 0.07335
v 0.12306 0.00518 0.06963
v 0.12776 0.01000 0.07004
v 0.12907 0.01504 0.07434
v 0.15569 -0.01833 0.10885
v 0.15071 -0.01970 0.11197
v 0.14622 -0.02368 0.11131
v 0.14486 -0.02795 0.10726
v 0.14742 -0.03000 0.10220
v 0.15240 -0.02863 0.09908
v 0.15689 -0.02465 0.09973
v 0.15825 -0.02038 0.10378
v 0.18188 -0.05759 0.13755
v 0.17738 -0.05856 0.14009
v 0.17326 -0.06171 0.13927
v 0.17193 -0.06521 0.13558
v 0.17417 -0.06700 0.13118
v 0.17868 -0.06604 0.12865
v 0.18280 -0.06289 0.12946
v 0.18413 -0.05939 0.13315
v 0.20439 -0.10016 0.16609
v 0.20053 -0.10074 0.16804
v 0.19695 -0.10309 0.16716
v 0.19575 -0.10582 0.16397
v 0.19764 -0.10733 0.16034
v 0.20150 -0.10675 0.15839
v 0.20508 -0.10440 0.15927
v 0.20627 -0.10167 0.16246
v 0.22258 -0.14577 0.19415
v 0.21983 -0.14610 0.19547
v 0.21728 -0.14765 0.19478
v 0.21641 -0.14950 0.19251
v 0.21774 -0.15058 0.18997
v 0.22049 -0.15024 0.18865
v 0.22304 -0.14870 0.18934
v 0.22391 -0.14685 0.19162
v -0.21450 0.13127 -0.18294
v 0.22016 -0.14817 0.19206
f 1 10 9
f 2 11 10
f 3 12 11
f 4 13 12
f 6 13 5
f 7 14 6
f 8 15 7
f 1 16 8
f 9 18 17
f 10 19 18
f 12 19 11
f 13 20 12
f 14 21 13
f 14 23 22
f 15 24 23
f 16 17 24
f 17 26 25
f 18 27 26
f 20 27 19
f 21 28 20
f 22 29 21
f 23 30 22
f 23 32 31
f 24 25 32
f 25 34 33
f 26 35 34
f 28 35 27
f 29 36 28
f 30 37 29
f 31 38 30
f 31 40 39
f 32 33 40
f 33 42 41
f 34 43 42
f 36 43 35
f 37 44 36
f 38 45 37
f 39 46 38
f 39 48 47
f 40 41 48
f 41 50 49
f 42 51 50
f 44 51 43
f 45 52 44
f 46 53 45
f 47 54 46
f 47 56 55
f 48 49 56
f 49 58 57
f 50 59 58
f 52 59 51
f 53 60 52
f 54 61 53
f 55 62 54
f 55 64 63
f 56 57 64
f 57 66 65
f 58 67 66
f 60 67 59
f 61 68 60
f 62 69 61
f 63 70 62
f 63 72 71
f 64 65 72
f 65 74 73
f 66 75 74
f 68 75 67
f 69 76 68
f 70 77 69
f 71 78 70
f 71 80 79
f 72 73 80
f 73 82 81
f 74 83 82
f 76 83 75
f 77 84 76
f 78 85 77
f 79 86 78
f 79 88 87
f 80 81 88
f 81 90 89
f 83 90 82
f 84 91 83
f 85 92 84
f 86 93 85
f 87 94 86
f 87 96 95
f 88 89 96
f 89 98 97
f 91 98 90
f 92 99 91
f 93 100 92
f 94 101 93
f 95 102 94
f 95 104 103
f 96 97 104
f 98 105 97
f 99 106 98
f 100 107 99
f 100 109 108
f 101 110 109
f 102 111 110
f 103 112 111
f 97 112 104
f 113 2 1
f 113 3 2
f 113 4 3
f 113 5 4
f 113 6 5
f 113 7 6
f 113 8 7
f 113 1 8
f 105 106 114
f 106 107 114
f 107 108 114
f 108 109 114
f 109 110 114
f 110 111 114
f 111 112 114
f 112 105 114
f 1 2 10
f 2 3 11
f 3 4 12
f 4 5 13
f 6 14 13
f 7 15 14
f 8 16 15
f 1 9 16
f 9 10 18
f 10 11 19
f 12 20 19
f 13 21 20
f 14 22 21
f 14 15 23
f 15 16 24
f 16 9 17
f 17 18 26
f 18 19 27
f 20 28 27
f 21 29 28
f 22 30 29
f 23 31 30
f 23 24 32
f 24 17 25
f 25 26 34
f 26 27 35
f 28 36 35
f 29 37 36
f 30 38 37
f 31 39 38
f 31 32 40
f 32 25 33
f 33 34 42
f 34 35 43
f 36 44 43
f 37 45 44
f 38 46 45
f 39 47 46
f 39 40 48
f 40 33 41
f 41 42 50
f 42 43 51
f 44 52 51
f 45 53 52
f 46 54 53
f 47 55 54
f 47 48 56
f 48 41 49
f 49 50 58
f 50 51 59
f 52 60 59
f 53 61 60
f 54 62 61
f 55 63 62
f 55 56 64
f 56 49 57
f 57 58 66
f 58 59 67
f 60 68 67
f 61 69 68
f 62 70 69
f 63 71 70
f 63 64 72
f 64 57 65
f 65 66 74
f 66 67 75
f 68 76 75
f 69 77 76
f 70 78 77
f 71 79 78
f 71 72 80
f 72 65 73
f 73 74 82
f 74 75 83
f 76 84 83
f 77 85 84
f 78 86 85
f 79 87 86
f 79 80 88
f 80 73 81
f 81 82 90
f 83 91 90
f 84 92 91
f 85 93 92
f 86 94 93
f 87 95 94
f 87 88 96
f 88 81 89
f 89 90 98
f 91 99 98
f 92 100 99
f 93 101 100
f 94 102 101
f 95 103 102
f 95 96 104
f 96 89 97
f 98 106 105
f 99 107 106
f 100 108 107
f 100 101 109
f 101 102 110
f 102 103 111
f 103 104 112
f 97 105 112
