# kraken Tentacle4_2_Core.obj: Roblox cue frame, recentred on its bounding box
v 0.14298 -0.11029 -0.20647
v 0.12827 -0.11908 -0.22182
v 0.12300 -0.14029 -0.22902
v 0.13027 -0.16150 -0.22385
v 0.14581 -0.17028 -0.20933
v 0.16052 -0.16150 -0.19397
v 0.16578 -0.14029 -0.18677
v 0.15852 -0.11908 -0.19195
v 0.11214 -0.11385 -0.17522
v 0.09749 -0.12248 -0.19006
v 0.09163 -0.14332 -0.19642
v 0.09799 -0.16417 -0.19058
v 0.11284 -0.17281 -0.17595
v 0.12749 -0.16419 -0.16111
v 0.13335 -0.14334 -0.15475
v 0.12699 -0.12250 -0.16060
v 0.08157 -0.11305 -0.14495
v 0.06671 -0.12148 -0.15900
v 0.05954 -0.14184 -0.16384
v 0.06428 -0.16221 -0.15663
v 0.07814 -0.17065 -0.14161
v 0.09301 -0.16223 -0.12756
v 0.10017 -0.14187 -0.12272
v 0.09543 -0.12150 -0.12993
v 0.05080 -0.10786 -0.11462
v 0.03560 -0.11599 -0.12775
v 0.02714 -0.13567 -0.13106
v 0.03037 -0.15535 -0.12259
v 0.04340 -0.16352 -0.10732
v 0.05859 -0.15538 -0.09419
v 0.06705 -0.13571 -0.09089
v 0.06383 -0.11602 -0.09935
v 0.02040 -0.09815 -0.08421
v 0.00479 -0.10588 -0.09632
v -0.00493 -0.12465 -0.09809
v -0.00307 -0.14348 -0.08848
v 0.00929 -0.15132 -0.07312
v 0.02491 -0.14359 -0.06102
v 0.03463 -0.12482 -0.05925
v 0.03276 -0.10600 -0.06885
v -0.00901 -0.08390 -0.05369
v -0.02510 -0.09107 -0.06468
v -0.03599 -0.10874 -0.06494
v -0.03530 -0.12656 -0.05431
v -0.02344 -0.13409 -0.03903
v -0.00736 -0.12692 -0.02804
v 0.00353 -0.10925 -0.02778
v 0.00285 -0.09143 -0.03840
v -0.03680 -0.06512 -0.02305
v -0.05337 -0.07157 -0.03284
v -0.06530 -0.08795 -0.03162
v -0.06559 -0.10466 -0.02011
v -0.05409 -0.11193 -0.00505
v -0.03752 -0.10548 0.00474
v -0.02559 -0.08910 0.00352
v -0.02530 -0.07239 -0.00799
v -0.06231 -0.04195 0.00773
v -0.07933 -0.04750 -0.00080
v -0.09212 -0.06243 0.00184
v -0.09319 -0.07799 0.01409
v -0.08190 -0.08506 0.02878
v -0.06488 -0.07951 0.03731
v -0.05209 -0.06459 0.03468
v -0.05103 -0.04903 0.02243
v -0.08487 -0.01459 0.03867
v -0.10227 -0.01908 0.03145
v -0.11571 -0.03242 0.03543
v -0.11734 -0.04682 0.04828
v -0.10618 -0.05383 0.06246
v -0.08878 -0.04934 0.06968
v -0.07534 -0.03599 0.06570
v -0.07371 -0.02160 0.05285
v -0.10381 0.01665 0.06977
v -0.12146 0.01339 0.06389
v -0.13534 0.00170 0.06913
v -0.13732 -0.01157 0.08242
v -0.12623 -0.01865 0.09598
v -0.10858 -0.01539 0.10186
v -0.09471 -0.00370 0.09662
v -0.09273 0.00957 0.08332
v -0.11849 0.05136 0.10105
v -0.13623 0.04945 0.09651
v -0.15029 0.03945 0.10292
v -0.15245 0.02722 0.11650
v -0.14143 0.01992 0.12932
v -0.12369 0.02183 0.13385
v -0.10962 0.03183 0.12745
v -0.10747 0.04406 0.11386
v -0.12828 0.08902 0.13251
v -0.14591 0.08855 0.12931
v -0.15993 0.08022 0.13676
v -0.16212 0.06891 0.15050
v -0.15120 0.06125 0.16247
v -0.13357 0.06172 0.16566
v -0.11955 0.07005 0.15821
v -0.11737 0.08136 0.14448
v -0.13263 0.12899 0.16416
v -0.14994 0.13001 0.16227
v -0.16367 0.12328 0.17065
v -0.16578 0.11275 0.18438
v -0.15505 0.10459 0.19543
v -0.13775 0.10358 0.19732
v -0.12402 0.11030 0.18894
v -0.12190 0.12083 0.17521
v -0.13095 0.17108 0.19644
v -0.14775 0.17281 0.19519
v -0.16108 0.16694 0.20384
v -0.16312 0.15691 0.21734
v -0.15268 0.14859 0.22777
v -0.13588 0.14686 0.22902
v -0.12256 0.15273 0.22037
v -0.12051 0.16276 0.20687
v 0.14439 -0.14029 -0.20790
v -0.14182 0.15984 0.21210
f 2 9 1
f 3 10 2
f 4 11 3
f 5 12 4
f 5 14 13
f 6 15 14
f 7 16 15
f 8 9 16
f 10 17 9
f 11 18 10
f 11 20 19
f 12 21 20
f 13 22 21
f 14 23 22
f 15 24 23
f 9 24 16
f 18 25 17
f 19 26 18
f 19 28 27
f 20 29 28
f 21 30 29
f 22 31 30
f 24 31 23
f 17 32 24
f 26 33 25
f 27 34 26
f 27 36 35
f 28 37 36
f 29 38 37
f 30 39 38
f 32 39 31
f 25 40 32
f 34 41 33
f 35 42 34
f 35 44 43
f 36 45 44
f 37 46 45
f 38 47 46
f 40 47 39
f 33 48 40
f 42 49 41
f 43 50 42
f 43 52 51
f 44 53 52
f 45 54 53
f 46 55 54
f 48 55 47
f 41 56 48
f 50 57 49
f 51 58 50
f 51 60 59
f 52 61 60
f 53 62 61
f 55 62 54
f 56 63 55
f 49 64 56
f 58 65 57
f 59 66 58
f 59 68 67
f 60 69 68
f 61 70 69
f 63 70 62
f 64 71 63
f 57 72 64
f 66 73 65
f 67 74 66
f 67 76 75
f 68 77 76
f 69 78 77
f 71 78 70
f 72 79 71
f 65 80 72
f 74 81 73
f 75 82 74
f 75 84 83
f 76 85 84
f 77 86 85
f 79 86 78
f 80 87 79
f 73 88 80
f 82 89 81
f 83 90 82
f 83 92 91
f 84 93 92
f 85 94 93
f 87 94 86
f 88 95 87
f 81 96 88
f 90 97 89
f 91 98 90
f 91 100 99
f 92 101 100
f 93 102 101
f 95 102 94
f 96 103 95
f 89 104 96
f 97 106 105
f 98 107 106
f 99 108 107
f 101 108 100
f 102 109 101
f 103 110 102
f 104 111 103
f 104 105 112
f 113 2 1
f 113 3 2
f 113 4 3
f 113 5 4
f 113 6 5
f 113 7 6
f 113 8 7
f 113 1 8
f 105 106 114
f 106 107 114
f 107 108 114
f 108 109 114
f 109 110 114
f 110 111 114
f 111 112 114
f 112 105 114
f 2 10 9
f 3 11 10
f 4 12 11
f 5 13 12
f 5 6 14
f 6 7 15
f 7 8 16
f 8 1 9
f 10 18 17
f 11 19 18
f 11 12 20
f 12 13 21
f 13 14 22
f 14 15 23
f 15 16 24
f 9 17 24
f 18 26 25
f 19 27 26
f 19 20 28
f 20 21 29
f 21 22 30
f 22 23 31
f 24 32 31
f 17 25 32
f 26 34 33
f 27 35 34
f 27 28 36
f 28 29 37
f 29 30 38
f 30 31 39
f 32 40 39
f 25 33 40
f 34 42 41
f 35 43 42
f 35 36 44
f 36 37 45
f 37 38 46
f 38 39 47
f 40 48 47
f 33 41 48
f 42 50 49
f 43 51 50
f 43 44 52
f 44 45 53
f 45 46 54
f 46 47 55
f 48 56 55
f 41 49 56
f 50 58 57
f 51 59 58
f 51 52 60
f 52 53 61
f 53 54 62
f 55 63 62
f 56 64 63
f 49 57 64
f 58 66 65
f 59 67 66
f 59 60 68
f 60 61 69
f 61 62 70
f 63 71 70
f 64 72 71
f 57 65 72
f 66 74 73
f 67 75 74
f 67 68 76
f 68 69 77
f 69 70 78
f 71 79 78
f 72 80 79
f 65 73 80
f 74 82 81
f 75 83 82
f 75 76 84
f 76 77 85
f 77 78 86
f 79 87 86
f 80 88 87
f 73 81 88
f 82 90 89
f 83 91 90
f 83 84 92
f 84 85 93
f 85 86 94
f 87 95 94
f 88 96 95
f 81 89 96
f 90 98 97
f 91 99 98
f 91 92 100
f 92 93 101
f 93 94 102
f 95 103 102
f 96 104 103
f 89 97 104
f 97 98 106
f 98 99 107
f 99 100 108
f 101 109 108
f 102 110 109
f 103 111 110
f 104 112 111
f 104 97 105
