# kraken Tentacle4_2_Sucker.obj: Roblox cue frame, recentred on its bounding box
v 0.09671 -0.03557 -0.13400
v 0.10627 -0.04546 -0.12712
v 0.10548 -0.04095 -0.14908
v 0.11328 -0.04977 -0.13918
v 0.10816 -0.05504 -0.16038
v 0.11542 -0.06104 -0.14822
v 0.10371 -0.07245 -0.16358
v 0.11187 -0.07497 -0.15078
v 0.09385 -0.08655 -0.15745
v 0.10398 -0.08624 -0.14588
v 0.08233 -0.09193 -0.14435
v 0.09476 -0.09055 -0.13540
v 0.07356 -0.08655 -0.12927
v 0.08775 -0.08624 -0.12334
v 0.07088 -0.07245 -0.11797
v 0.08561 -0.07497 -0.11430
v 0.07533 -0.05504 -0.11478
v 0.08916 -0.06104 -0.11174
v 0.08519 -0.04095 -0.12090
v 0.09705 -0.04977 -0.11664
v 0.02737 -0.02819 -0.03367
v 0.03263 -0.04042 -0.02807
v 0.03716 -0.03252 -0.04706
v 0.04047 -0.04388 -0.03878
v 0.03903 -0.04384 -0.05980
v 0.04196 -0.05294 -0.04897
v 0.03226 -0.05784 -0.06701
v 0.03654 -0.06414 -0.05474
v 0.01943 -0.06917 -0.06595
v 0.02628 -0.07320 -0.05389
v 0.00545 -0.07349 -0.05702
v 0.01510 -0.07666 -0.04675
v -0.00434 -0.06917 -0.04363
v 0.00726 -0.07320 -0.03604
v -0.00621 -0.05784 -0.03090
v 0.00577 -0.06414 -0.02585
v 0.00056 -0.04384 -0.02368
v 0.01118 -0.05294 -0.02008
v 0.01339 -0.03252 -0.02474
v 0.02144 -0.04388 -0.02093
v -0.04256 0.01444 0.06584
v -0.04079 0.00183 0.07026
v -0.02978 0.01105 0.05683
v -0.03056 -0.00088 0.06305
v -0.02456 0.00218 0.04458
v -0.02638 -0.00798 0.05325
v -0.02889 -0.00879 0.03377
v -0.02985 -0.01676 0.04461
v -0.04113 -0.01767 0.02853
v -0.03964 -0.02386 0.04041
v -0.05660 -0.02106 0.03085
v -0.05202 -0.02657 0.04227
v -0.06938 -0.01767 0.03986
v -0.06224 -0.02386 0.04948
v -0.07460 -0.00879 0.05211
v -0.06642 -0.01676 0.05927
v -0.07027 0.00218 0.06292
v -0.06295 -0.00798 0.06792
v -0.05803 0.01105 0.06816
v -0.05316 -0.00088 0.07212
v -0.09396 0.09193 0.15924
v -0.09440 0.08022 0.16358
v -0.07959 0.08880 0.15734
v -0.08291 0.07772 0.16206
v -0.07003 0.08062 0.14950
v -0.07526 0.07118 0.15579
v -0.06892 0.07051 0.13872
v -0.07438 0.06309 0.14716
v -0.07670 0.06233 0.12910
v -0.08060 0.05654 0.13947
v -0.09039 0.05920 0.12433
v -0.09155 0.05404 0.13565
v -0.10476 0.06233 0.12623
v -0.10304 0.05654 0.13717
v -0.11432 0.07051 0.13407
v -0.11069 0.06309 0.14344
v -0.11542 0.08062 0.14486
v -0.11157 0.07118 0.15207
v -0.10765 0.08880 0.15447
v -0.10535 0.07772 0.15976
f 31 34 33
f 25 28 27
f 1 4 3
f 47 50 49
f 4 5 3
f 5 8 7
f 29 32 31
f 24 25 23
f 7 10 9
f 9 12 11
f 68 69 67
f 11 14 13
f 27 30 29
f 22 23 21
f 14 15 13
f 44 45 43
f 45 48 47
f 16 17 15
f 2 18 10
f 52 53 51
f 17 20 19
f 50 51 49
f 20 1 19
f 11 15 19
f 41 44 43
f 33 36 35
f 64 65 63
f 66 67 65
f 35 38 37
f 26 22 34
f 71 74 73
f 37 40 39
f 69 72 71
f 40 21 39
f 23 27 31
f 62 63 61
f 53 56 55
f 56 57 55
f 56 52 48
f 58 59 57
f 60 41 59
f 51 59 43
f 74 75 73
f 75 78 77
f 62 78 74
f 78 79 77
f 80 61 79
f 77 65 69
f 31 32 34
f 25 26 28
f 1 2 4
f 47 48 50
f 4 6 5
f 5 6 8
f 29 30 32
f 24 26 25
f 7 8 10
f 9 10 12
f 68 70 69
f 11 12 14
f 27 28 30
f 22 24 23
f 14 16 15
f 44 46 45
f 45 46 48
f 16 18 17
f 6 4 2
f 2 20 18
f 18 16 10
f 16 14 10
f 14 12 10
f 10 8 6
f 6 2 10
f 52 54 53
f 17 18 20
f 50 52 51
f 20 2 1
f 19 1 3
f 3 5 19
f 5 7 19
f 7 9 11
f 11 13 15
f 15 17 19
f 7 11 19
f 41 42 44
f 33 34 36
f 64 66 65
f 66 68 67
f 35 36 38
f 30 28 26
f 26 24 22
f 22 40 34
f 40 38 34
f 38 36 34
f 34 32 30
f 30 26 34
f 71 72 74
f 37 38 40
f 69 70 72
f 40 22 21
f 31 33 35
f 35 37 31
f 37 39 31
f 39 21 23
f 23 25 27
f 27 29 31
f 39 23 31
f 62 64 63
f 53 54 56
f 56 58 57
f 48 46 60
f 46 44 60
f 44 42 60
f 60 58 56
f 56 54 52
f 52 50 48
f 60 56 48
f 58 60 59
f 60 42 41
f 43 45 47
f 47 49 43
f 49 51 43
f 51 53 55
f 55 57 59
f 59 41 43
f 51 55 59
f 74 76 75
f 75 76 78
f 74 72 66
f 72 70 66
f 70 68 66
f 66 64 62
f 62 80 78
f 78 76 74
f 66 62 74
f 78 80 79
f 80 62 61
f 69 71 73
f 73 75 69
f 75 77 69
f 77 79 65
f 79 61 65
f 61 63 65
f 65 67 69
