# kraken Tentacle3_1_Sucker.obj: Roblox cue frame, recentred on its bounding box
v -0.02126 -0.09891 -0.17537
v -0.00714 -0.09707 -0.18874
v -0.03397 -0.10524 -0.19370
v -0.01731 -0.10213 -0.20340
v -0.03695 -0.12180 -0.20964
v -0.01969 -0.11538 -0.21616
v -0.02905 -0.14227 -0.21712
v -0.01337 -0.13176 -0.22214
v -0.01329 -0.15883 -0.21328
v -0.00076 -0.14501 -0.21906
v 0.00431 -0.16516 -0.19958
v 0.01332 -0.15007 -0.20810
v 0.01703 -0.15883 -0.18125
v 0.02349 -0.14501 -0.19344
v 0.02000 -0.14227 -0.16531
v 0.02587 -0.13176 -0.18069
v 0.01210 -0.12180 -0.15783
v 0.01955 -0.11538 -0.17470
v -0.00366 -0.10524 -0.16167
v 0.00694 -0.10213 -0.17778
v 0.01999 -0.01958 -0.03480
v 0.02715 -0.01182 -0.05000
v 0.00322 -0.02418 -0.04821
v 0.01373 -0.01550 -0.06073
v -0.00290 -0.03621 -0.06554
v 0.00884 -0.02513 -0.07459
v 0.00399 -0.05109 -0.08017
v 0.01434 -0.03703 -0.08629
v 0.02124 -0.06312 -0.08650
v 0.02814 -0.04665 -0.09136
v 0.04227 -0.06772 -0.08212
v 0.04497 -0.05033 -0.08786
v 0.05904 -0.06312 -0.06871
v 0.05839 -0.04665 -0.07713
v 0.06515 -0.05109 -0.05138
v 0.06328 -0.03703 -0.06326
v 0.05827 -0.03621 -0.03675
v 0.05777 -0.02513 -0.05156
v 0.04102 -0.02418 -0.03042
v 0.04397 -0.01550 -0.04650
v 0.02761 0.07511 0.09532
v 0.02401 0.08316 0.08026
v 0.00730 0.07100 0.09512
v 0.00777 0.07987 0.08009
v -0.00753 0.06023 0.08545
v -0.00410 0.07126 0.07235
v -0.01122 0.04693 0.06999
v -0.00705 0.06062 0.05999
v -0.00235 0.03617 0.05466
v 0.00004 0.05201 0.04773
v 0.01568 0.03205 0.04531
v 0.01447 0.04872 0.04025
v 0.03599 0.03617 0.04552
v 0.03072 0.05201 0.04041
v 0.05082 0.04693 0.05519
v 0.04258 0.06062 0.04815
v 0.05451 0.06023 0.07064
v 0.04553 0.07126 0.06051
v 0.04564 0.07100 0.08597
v 0.03844 0.07987 0.07278
v -0.02479 0.16195 0.21251
v -0.03499 0.16516 0.20009
v -0.04122 0.15696 0.22166
v -0.04813 0.16116 0.20741
v -0.05562 0.14389 0.22214
v -0.05965 0.15071 0.20779
v -0.06250 0.12774 0.21376
v -0.06515 0.13779 0.20109
v -0.05923 0.11468 0.19973
v -0.06254 0.12734 0.18987
v -0.04705 0.10969 0.18540
v -0.05280 0.12334 0.17840
v -0.03063 0.11468 0.17625
v -0.03966 0.12734 0.17108
v -0.01623 0.12774 0.17577
v -0.02814 0.13779 0.17070
v -0.00935 0.14389 0.18415
v -0.02264 0.15071 0.17740
v -0.01262 0.15696 0.19818
v -0.02526 0.16116 0.18863
f 31 34 33
f 26 27 25
f 2 3 1
f 48 49 47
f 4 5 3
f 6 7 5
f 30 31 29
f 24 25 23
f 7 10 9
f 10 11 9
f 68 69 67
f 12 13 11
f 27 30 29
f 22 23 21
f 14 15 13
f 44 45 43
f 46 47 45
f 15 18 17
f 14 10 6
f 51 54 53
f 18 19 17
f 50 51 49
f 19 2 1
f 11 15 19
f 42 43 41
f 33 36 35
f 63 66 65
f 66 67 65
f 35 38 37
f 30 26 22
f 71 74 73
f 37 40 39
f 70 71 69
f 39 22 21
f 35 39 27
f 61 64 63
f 53 56 55
f 55 58 57
f 60 52 48
f 57 60 59
f 59 42 41
f 51 59 43
f 73 76 75
f 75 78 77
f 76 74 66
f 77 80 79
f 79 62 61
f 77 65 69
f 31 32 34
f 26 28 27
f 2 4 3
f 48 50 49
f 4 6 5
f 6 8 7
f 30 32 31
f 24 26 25
f 7 8 10
f 10 12 11
f 68 70 69
f 12 14 13
f 27 28 30
f 22 24 23
f 14 16 15
f 44 46 45
f 46 48 47
f 15 16 18
f 6 4 18
f 4 2 18
f 2 20 18
f 18 16 14
f 14 12 10
f 10 8 6
f 18 14 6
f 51 52 54
f 18 20 19
f 50 52 51
f 19 20 2
f 19 1 3
f 3 5 7
f 7 9 11
f 11 13 15
f 15 17 19
f 19 3 7
f 7 11 19
f 42 44 43
f 33 34 36
f 63 64 66
f 66 68 67
f 35 36 38
f 30 28 26
f 26 24 22
f 22 40 34
f 40 38 34
f 38 36 34
f 34 32 22
f 32 30 22
f 71 72 74
f 37 38 40
f 70 72 71
f 39 40 22
f 31 33 35
f 35 37 39
f 39 21 27
f 21 23 27
f 23 25 27
f 27 29 31
f 31 35 27
f 61 62 64
f 53 54 56
f 55 56 58
f 48 46 44
f 44 42 60
f 60 58 52
f 58 56 52
f 56 54 52
f 52 50 48
f 48 44 60
f 57 58 60
f 59 60 42
f 43 45 47
f 47 49 43
f 49 51 43
f 51 53 59
f 53 55 59
f 55 57 59
f 59 41 43
f 73 74 76
f 75 76 78
f 74 72 66
f 72 70 66
f 70 68 66
f 66 64 78
f 64 62 78
f 62 80 78
f 78 76 66
f 77 78 80
f 79 80 62
f 69 71 73
f 73 75 69
f 75 77 69
f 77 79 61
f 61 63 77
f 63 65 77
f 65 67 69
