# kraken Tentacle1_3_Sucker.obj: Roblox cue frame, recentred on its bounding box
v -0.03288 -0.13026 -0.14812
v -0.02722 -0.12675 -0.15751
v -0.04260 -0.13348 -0.15717
v -0.03500 -0.12932 -0.16475
v -0.04579 -0.14190 -0.16744
v -0.03755 -0.13606 -0.17297
v -0.04122 -0.15231 -0.17502
v -0.03390 -0.14438 -0.17904
v -0.03065 -0.16073 -0.17702
v -0.02545 -0.15112 -0.18063
v -0.01811 -0.16394 -0.17266
v -0.01541 -0.15369 -0.17715
v -0.00839 -0.16073 -0.16362
v -0.00763 -0.15112 -0.16991
v -0.00520 -0.15231 -0.15334
v -0.00508 -0.14438 -0.16169
v -0.00976 -0.14190 -0.14576
v -0.00873 -0.13606 -0.15562
v -0.02033 -0.13348 -0.14377
v -0.01719 -0.12932 -0.15403
v 0.01391 -0.04925 -0.03578
v 0.01559 -0.04503 -0.04529
v 0.00269 -0.05192 -0.04061
v 0.00661 -0.04717 -0.04915
v -0.00328 -0.05893 -0.04908
v 0.00184 -0.05277 -0.05593
v -0.00170 -0.06758 -0.05797
v 0.00310 -0.05969 -0.06304
v 0.00681 -0.07458 -0.06388
v 0.00991 -0.06530 -0.06776
v 0.01901 -0.07726 -0.06455
v 0.01967 -0.06744 -0.06830
v 0.03023 -0.07458 -0.05973
v 0.02865 -0.06530 -0.06444
v 0.03619 -0.06758 -0.05125
v 0.03342 -0.05969 -0.05766
v 0.03462 -0.05893 -0.04236
v 0.03216 -0.05277 -0.05055
v 0.02611 -0.05192 -0.03646
v 0.02535 -0.04717 -0.04583
v 0.03055 0.05143 0.07260
v 0.02872 0.05482 0.06389
v 0.01953 0.04890 0.07246
v 0.01991 0.05279 0.06377
v 0.01174 0.04226 0.06767
v 0.01368 0.04748 0.05994
v 0.01015 0.03405 0.06006
v 0.01240 0.04091 0.05386
v 0.01536 0.02741 0.05255
v 0.01657 0.03560 0.04785
v 0.02538 0.02487 0.04799
v 0.02459 0.03357 0.04420
v 0.03640 0.02741 0.04813
v 0.03340 0.03560 0.04432
v 0.04419 0.03405 0.05292
v 0.03964 0.04091 0.04815
v 0.04579 0.04226 0.06053
v 0.04091 0.04748 0.05423
v 0.04058 0.04890 0.06804
v 0.03674 0.05279 0.06024
v 0.00310 0.16260 0.17803
v -0.00047 0.16394 0.17047
v -0.00623 0.15996 0.18063
v -0.00793 0.16183 0.17256
v -0.01339 0.15305 0.17929
v -0.01366 0.15630 0.17148
v -0.01564 0.14451 0.17452
v -0.01546 0.14947 0.16767
v -0.01213 0.13759 0.16814
v -0.01265 0.14394 0.16256
v -0.00419 0.13495 0.16259
v -0.00630 0.14182 0.15812
v 0.00514 0.13759 0.15998
v 0.00117 0.14394 0.15604
v 0.01230 0.14451 0.16132
v 0.00689 0.14947 0.15711
v 0.01456 0.15305 0.16609
v 0.00870 0.15630 0.16092
v 0.01104 0.15996 0.17247
v 0.00589 0.16183 0.16603
f 31 34 33
f 26 27 25
f 1 4 3
f 47 50 49
f 4 5 3
f 6 7 5
f 29 32 31
f 24 25 23
f 7 10 9
f 10 11 9
f 68 69 67
f 11 14 13
f 28 29 27
f 21 24 23
f 13 16 15
f 44 45 43
f 45 48 47
f 16 17 15
f 18 10 6
f 51 54 53
f 18 19 17
f 49 52 51
f 19 2 1
f 7 11 15
f 41 44 43
f 33 36 35
f 64 65 63
f 65 68 67
f 35 38 37
f 32 30 22
f 72 73 71
f 37 40 39
f 69 72 71
f 39 22 21
f 23 27 31
f 61 64 63
f 54 55 53
f 56 57 55
f 50 48 60
f 58 59 57
f 60 41 59
f 51 59 43
f 74 75 73
f 75 78 77
f 66 62 78
f 77 80 79
f 79 62 61
f 61 65 69
f 31 32 34
f 26 28 27
f 1 2 4
f 47 48 50
f 4 6 5
f 6 8 7
f 29 30 32
f 24 26 25
f 7 8 10
f 10 12 11
f 68 70 69
f 11 12 14
f 28 30 29
f 21 22 24
f 13 14 16
f 44 46 45
f 45 46 48
f 16 18 17
f 6 4 2
f 2 20 6
f 20 18 6
f 18 16 10
f 16 14 10
f 14 12 10
f 10 8 6
f 51 52 54
f 18 20 19
f 49 50 52
f 19 20 2
f 19 1 3
f 3 5 7
f 7 9 11
f 11 13 15
f 15 17 19
f 19 3 15
f 3 7 15
f 41 42 44
f 33 34 36
f 64 66 65
f 65 66 68
f 35 36 38
f 30 28 22
f 28 26 22
f 26 24 22
f 22 40 38
f 38 36 22
f 36 34 22
f 34 32 22
f 72 74 73
f 37 38 40
f 69 70 72
f 39 40 22
f 31 33 35
f 35 37 39
f 39 21 23
f 23 25 27
f 27 29 31
f 31 35 39
f 39 23 31
f 61 62 64
f 54 56 55
f 56 58 57
f 48 46 44
f 44 42 48
f 42 60 48
f 60 58 56
f 56 54 60
f 54 52 60
f 52 50 60
f 58 60 59
f 60 42 41
f 43 45 47
f 47 49 43
f 49 51 43
f 51 53 55
f 55 57 51
f 57 59 51
f 59 41 43
f 74 76 75
f 75 76 78
f 74 72 70
f 70 68 66
f 66 64 62
f 62 80 78
f 78 76 66
f 76 74 66
f 74 70 66
f 77 78 80
f 79 80 62
f 69 71 77
f 71 73 77
f 73 75 77
f 77 79 61
f 61 63 65
f 65 67 69
f 77 61 69
