# kraken Tentacle3_2_Core.obj: Roblox cue frame, recentred on its bounding box
v 0.13590 0.02419 -0.24766
v 0.11499 0.01598 -0.25264
v 0.10395 -0.00383 -0.24879
v 0.10924 -0.02365 -0.23836
v 0.12777 -0.03186 -0.22746
v 0.14868 -0.02365 -0.22248
v 0.15972 -0.00383 -0.22633
v 0.15443 0.01598 -0.23676
v 0.12078 0.03926 -0.21016
v 0.10057 0.03092 -0.21575
v 0.09004 0.01120 -0.21266
v 0.09536 -0.00834 -0.20271
v 0.11340 -0.01626 -0.19173
v 0.13361 -0.00792 -0.18614
v 0.14414 0.01180 -0.18923
v 0.13883 0.03134 -0.19918
v 0.10269 0.05246 -0.17194
v 0.08352 0.04377 -0.17875
v 0.07389 0.02393 -0.17712
v 0.07943 0.00456 -0.16799
v 0.09690 -0.00300 -0.15672
v 0.11607 0.00570 -0.14991
v 0.12570 0.02554 -0.15154
v 0.12016 0.04491 -0.16067
v 0.08215 0.06307 -0.13360
v 0.06405 0.05416 -0.14152
v 0.05542 0.03429 -0.14135
v 0.06130 0.01509 -0.13320
v 0.07825 0.00782 -0.12183
v 0.09635 0.01673 -0.11391
v 0.10498 0.03660 -0.11408
v 0.09910 0.05580 -0.12223
v 0.05951 0.07065 -0.09517
v 0.04247 0.06166 -0.10407
v 0.03490 0.04188 -0.10536
v 0.04123 0.02290 -0.09830
v 0.05776 0.01584 -0.08702
v 0.07479 0.02483 -0.07813
v 0.08236 0.04461 -0.07684
v 0.07603 0.06358 -0.08390
v 0.03518 0.07479 -0.05669
v 0.01916 0.06585 -0.06640
v 0.01270 0.04631 -0.06913
v 0.01958 0.02762 -0.06328
v 0.03578 0.02073 -0.05228
v 0.05180 0.02968 -0.04257
v 0.05826 0.04921 -0.03984
v 0.05137 0.06790 -0.04569
v 0.00966 0.07516 -0.01818
v -0.00542 0.06638 -0.02854
v -0.01076 0.04724 -0.03265
v -0.00324 0.02894 -0.02810
v 0.01275 0.02222 -0.01756
v 0.02783 0.03100 -0.00720
v 0.03317 0.05014 -0.00309
v 0.02565 0.06844 -0.00763
v -0.01646 0.07147 0.02033
v -0.03071 0.06294 0.00949
v -0.03498 0.04435 0.00407
v -0.02676 0.02658 0.00725
v -0.01088 0.02005 0.01717
v 0.00337 0.02858 0.02800
v 0.00764 0.04717 0.03342
v -0.00058 0.06494 0.03024
v -0.04256 0.06353 0.05879
v -0.05611 0.05531 0.04767
v -0.05937 0.03741 0.04105
v -0.05045 0.02032 0.04281
v -0.03456 0.01405 0.05193
v -0.02102 0.02227 0.06306
v -0.01775 0.04017 0.06968
v -0.02668 0.05726 0.06791
v -0.06795 0.05123 0.09718
v -0.08093 0.04333 0.08596
v -0.08331 0.02625 0.07826
v -0.07370 0.00999 0.07860
v -0.05773 0.00408 0.08677
v -0.04476 0.01198 0.09800
v -0.04238 0.02907 0.10570
v -0.05199 0.04532 0.10536
v -0.09190 0.03459 0.13547
v -0.10444 0.02699 0.12434
v -0.10608 0.01082 0.11570
v -0.09585 -0.00445 0.11461
v -0.07976 -0.00987 0.12172
v -0.06722 -0.00227 0.13285
v -0.06559 0.01390 0.14149
v -0.07581 0.02917 0.14257
v -0.11368 0.01375 0.17361
v -0.12589 0.00638 0.16277
v -0.12695 -0.00883 0.15335
v -0.11622 -0.02298 0.15088
v -0.10000 -0.02777 0.15680
v -0.08778 -0.02040 0.16765
v -0.08673 -0.00518 0.17707
v -0.09745 0.00896 0.17954
v -0.13254 -0.01104 0.21159
v -0.14452 -0.01828 0.20120
v -0.14516 -0.03253 0.19118
v -0.13408 -0.04544 0.18739
v -0.11776 -0.04945 0.19206
v -0.10578 -0.04221 0.20244
v -0.10514 -0.02796 0.21246
v -0.11622 -0.01505 0.21625
v -0.14755 -0.03886 0.24866
v -0.15925 -0.04598 0.23869
v -0.15972 -0.05955 0.22857
v -0.14868 -0.07164 0.22424
v -0.13259 -0.07516 0.22822
v -0.12089 -0.06805 0.23819
v -0.12042 -0.05447 0.24830
v -0.13147 -0.04238 0.25264
v 0.13183 -0.00383 -0.23756
v -0.14007 -0.05701 0.23844
f 1 10 9
f 2 11 10
f 3 12 11
f 5 12 4
f 6 13 5
f 7 14 6
f 8 15 7
f 8 9 16
f 10 17 9
f 10 19 18
f 11 20 19
f 12 21 20
f 14 21 13
f 15 22 14
f 16 23 15
f 9 24 16
f 18 25 17
f 18 27 26
f 19 28 27
f 20 29 28
f 22 29 21
f 23 30 22
f 24 31 23
f 17 32 24
f 26 33 25
f 26 35 34
f 27 36 35
f 28 37 36
f 29 38 37
f 31 38 30
f 32 39 31
f 25 40 32
f 34 41 33
f 34 43 42
f 35 44 43
f 36 45 44
f 37 46 45
f 39 46 38
f 40 47 39
f 33 48 40
f 42 49 41
f 43 50 42
f 43 52 51
f 44 53 52
f 45 54 53
f 47 54 46
f 48 55 47
f 41 56 48
f 50 57 49
f 51 58 50
f 51 60 59
f 52 61 60
f 53 62 61
f 55 62 54
f 56 63 55
f 49 64 56
f 58 65 57
f 59 66 58
f 59 68 67
f 60 69 68
f 61 70 69
f 62 71 70
f 64 71 63
f 57 72 64
f 66 73 65
f 67 74 66
f 67 76 75
f 68 77 76
f 69 78 77
f 70 79 78
f 72 79 71
f 65 80 72
f 74 81 73
f 75 82 74
f 75 84 83
f 76 85 84
f 77 86 85
f 78 87 86
f 80 87 79
f 73 88 80
f 82 89 81
f 83 90 82
f 83 92 91
f 84 93 92
f 85 94 93
f 86 95 94
f 88 95 87
f 81 96 88
f 90 97 89
f 91 98 90
f 91 100 99
f 92 101 100
f 93 102 101
f 94 103 102
f 95 104 103
f 89 104 96
f 97 106 105
f 99 106 98
f 100 107 99
f 101 108 100
f 102 109 101
f 102 111 110
f 103 112 111
f 104 105 112
f 113 2 1
f 113 3 2
f 113 4 3
f 113 5 4
f 113 6 5
f 113 7 6
f 113 8 7
f 113 1 8
f 105 106 114
f 106 107 114
f 107 108 114
f 108 109 114
f 109 110 114
f 110 111 114
f 111 112 114
f 112 105 114
f 1 2 10
f 2 3 11
f 3 4 12
f 5 13 12
f 6 14 13
f 7 15 14
f 8 16 15
f 8 1 9
f 10 18 17
f 10 11 19
f 11 12 20
f 12 13 21
f 14 22 21
f 15 23 22
f 16 24 23
f 9 17 24
f 18 26 25
f 18 19 27
f 19 20 28
f 20 21 29
f 22 30 29
f 23 31 30
f 24 32 31
f 17 25 32
f 26 34 33
f 26 27 35
f 27 28 36
f 28 29 37
f 29 30 38
f 31 39 38
f 32 40 39
f 25 33 40
f 34 42 41
f 34 35 43
f 35 36 44
f 36 37 45
f 37 38 46
f 39 47 46
f 40 48 47
f 33 41 48
f 42 50 49
f 43 51 50
f 43 44 52
f 44 45 53
f 45 46 54
f 47 55 54
f 48 56 55
f 41 49 56
f 50 58 57
f 51 59 58
f 51 52 60
f 52 53 61
f 53 54 62
f 55 63 62
f 56 64 63
f 49 57 64
f 58 66 65
f 59 67 66
f 59 60 68
f 60 61 69
f 61 62 70
f 62 63 71
f 64 72 71
f 57 65 72
f 66 74 73
f 67 75 74
f 67 68 76
f 68 69 77
f 69 70 78
f 70 71 79
f 72 80 79
f 65 73 80
f 74 82 81
f 75 83 82
f 75 76 84
f 76 77 85
f 77 78 86
f 78 79 87
f 80 88 87
f 73 81 88
f 82 90 89
f 83 91 90
f 83 84 92
f 84 85 93
f 85 86 94
f 86 87 95
f 88 96 95
f 81 89 96
f 90 98 97
f 91 99 98
f 91 92 100
f 92 93 101
f 93 94 102
f 94 95 103
f 95 96 104
f 89 97 104
f 97 98 106
f 99 107 106
f 100 108 107
f 101 109 108
f 102 110 109
f 102 103 111
f 103 104 112
f 104 97 105
