# kraken Tentacle1_3_Ink.obj: Roblox cue frame, recentred on its bounding box
v -0.06796 -0.11514 -0.25449
v -0.08726 -0.12116 -0.24185
v -0.10002 -0.13760 -0.23022
v -0.10284 -0.16006 -0.22273
v -0.09495 -0.18252 -0.22137
v -0.07847 -0.19896 -0.22652
v -0.05781 -0.20498 -0.23680
v -0.03851 -0.19896 -0.24944
v -0.02575 -0.18252 -0.26107
v -0.02293 -0.16006 -0.26856
v -0.03082 -0.13760 -0.26991
v -0.04730 -0.12116 -0.26476
v -0.04680 -0.10675 -0.21761
v -0.06556 -0.11259 -0.20524
v -0.07777 -0.12849 -0.19351
v -0.08015 -0.15018 -0.18557
v -0.07206 -0.17185 -0.18354
v -0.05568 -0.18771 -0.18797
v -0.03538 -0.19348 -0.19767
v -0.01662 -0.18764 -0.21005
v -0.00441 -0.17174 -0.22178
v -0.00203 -0.15005 -0.22972
v -0.01012 -0.12837 -0.23175
v -0.02650 -0.11252 -0.22732
v -0.02693 -0.09564 -0.18195
v -0.04517 -0.10130 -0.16988
v -0.05666 -0.11651 -0.15774
v -0.05832 -0.13720 -0.14879
v -0.04970 -0.15781 -0.14543
v -0.03311 -0.17284 -0.14856
v -0.01300 -0.17825 -0.15733
v 0.00525 -0.17259 -0.16941
v 0.01673 -0.15738 -0.18155
v 0.01839 -0.13669 -0.19049
v 0.00977 -0.11607 -0.19386
v -0.00682 -0.10105 -0.19073
v -0.00800 -0.08145 -0.14611
v -0.02581 -0.08699 -0.13450
v -0.03669 -0.10151 -0.12212
v -0.03773 -0.12113 -0.11229
v -0.02865 -0.14058 -0.10765
v -0.01189 -0.15466 -0.10944
v 0.00807 -0.15960 -0.11717
v 0.02587 -0.15407 -0.12879
v 0.03675 -0.13954 -0.14117
v 0.03779 -0.11993 -0.15100
v 0.02871 -0.10047 -0.15564
v 0.01195 -0.08639 -0.15385
v 0.00954 -0.06418 -0.11005
v -0.00788 -0.06966 -0.09905
v -0.01826 -0.08352 -0.08659
v -0.01880 -0.10204 -0.07603
v -0.00938 -0.12025 -0.07019
v 0.00750 -0.13328 -0.07063
v 0.02730 -0.13763 -0.07724
v 0.04472 -0.13215 -0.08824
v 0.05510 -0.11829 -0.10069
v 0.05564 -0.09977 -0.11126
v 0.04621 -0.08156 -0.11710
v 0.02934 -0.06853 -0.11666
v 0.02523 -0.04386 -0.07374
v 0.00815 -0.04940 -0.06348
v -0.00181 -0.06265 -0.05112
v -0.00199 -0.08006 -0.03998
v 0.00767 -0.09698 -0.03303
v 0.02457 -0.10885 -0.03214
v 0.04419 -0.11252 -0.03755
v 0.06126 -0.10698 -0.04781
v 0.07122 -0.09373 -0.06017
v 0.07140 -0.07631 -0.07131
v 0.06175 -0.05940 -0.07826
v 0.04484 -0.04753 -0.07915
v 0.03858 -0.02064 -0.03714
v 0.02184 -0.02633 -0.02775
v 0.01222 -0.03905 -0.01566
v 0.01229 -0.05539 -0.00409
v 0.02203 -0.07098 0.00384
v 0.03885 -0.08163 0.00602
v 0.05822 -0.08449 0.00185
v 0.07496 -0.07880 -0.00753
v 0.08458 -0.06608 -0.01963
v 0.08451 -0.04974 -0.03120
v 0.07476 -0.03415 -0.03913
v 0.05795 -0.02350 -0.04131
v 0.04910 0.00529 -0.00025
v 0.03272 -0.00066 0.00817
v 0.02339 -0.01295 0.01985
v 0.02360 -0.02827 0.03167
v 0.03330 -0.04253 0.04046
v 0.04988 -0.05190 0.04386
v 0.06892 -0.05388 0.04096
v 0.08530 -0.04792 0.03254
v 0.09463 -0.03564 0.02086
v 0.09442 -0.02031 0.00904
v 0.08472 -0.00606 0.00025
v 0.06813 0.00332 -0.00314
v 0.05630 0.03365 0.03696
v 0.04034 0.02733 0.04433
v 0.03128 0.01538 0.05546
v 0.03154 0.00099 0.06736
v 0.04105 -0.01198 0.07685
v 0.05727 -0.02006 0.08138
v 0.07585 -0.02108 0.07975
v 0.09180 -0.01476 0.07238
v 0.10087 -0.00281 0.06125
v 0.10061 0.01158 0.04935
v 0.09109 0.02455 0.03986
v 0.07488 0.03263 0.03533
v 0.05970 0.06406 0.07449
v 0.04425 0.05730 0.08075
v 0.03547 0.04558 0.09120
v 0.03572 0.03202 0.10302
v 0.04492 0.02027 0.11306
v 0.06062 0.01347 0.11862
v 0.07861 0.01345 0.11822
v 0.09406 0.02020 0.11196
v 0.10284 0.03193 0.10151
v 0.10259 0.04549 0.08969
v 0.09339 0.05724 0.07965
v 0.07769 0.06404 0.07409
v 0.05890 0.09581 0.11205
v 0.04407 0.08854 0.11716
v 0.03561 0.07701 0.12688
v 0.03579 0.06430 0.13860
v 0.04457 0.05381 0.14918
v 0.05960 0.04837 0.15579
v 0.07683 0.04942 0.15666
v 0.09167 0.05668 0.15155
v 0.10013 0.06822 0.14183
v 0.09994 0.08093 0.13011
v 0.09116 0.09141 0.11953
v 0.07614 0.09686 0.11292
v 0.05277 0.12986 0.14978
v 0.03870 0.12200 0.15368
v 0.03062 0.11059 0.16259
v 0.03071 0.09867 0.17412
v 0.03893 0.08944 0.18517
v 0.05308 0.08537 0.19279
v 0.06938 0.08756 0.19493
v 0.08345 0.09542 0.19103
v 0.09152 0.10683 0.18212
v 0.09144 0.11875 0.17060
v 0.08322 0.12798 0.15954
v 0.06906 0.13205 0.15192
v 0.04039 0.16547 0.18801
v 0.02728 0.15696 0.19068
v 0.01973 0.14550 0.19862
v 0.01975 0.13416 0.20970
v 0.02735 0.12599 0.22096
v 0.04049 0.12316 0.22938
v 0.05564 0.12644 0.23270
v 0.06875 0.13496 0.23003
v 0.07630 0.14642 0.22209
v 0.07628 0.15775 0.21101
v 0.06868 0.16593 0.19975
v 0.05554 0.16876 0.19133
v 0.02120 0.20129 0.22680
v 0.00894 0.19268 0.22883
v 0.00188 0.18146 0.23609
v 0.00191 0.17063 0.24664
v 0.00902 0.16310 0.25765
v 0.02130 0.16088 0.26617
v 0.03548 0.16457 0.26991
v 0.04773 0.17318 0.26789
v 0.05479 0.18440 0.26062
v 0.05476 0.19523 0.25008
v 0.04765 0.20276 0.23907
v 0.03537 0.20498 0.23055
v -0.06288 -0.16006 -0.24564
v 0.02834 0.18293 0.24836
f 2 13 1
f 3 14 2
f 4 15 3
f 5 16 4
f 6 17 5
f 7 18 6
f 7 20 19
f 8 21 20
f 9 22 21
f 10 23 22
f 11 24 23
f 12 13 24
f 13 26 25
f 14 27 26
f 15 28 27
f 17 28 16
f 18 29 17
f 19 30 18
f 20 31 19
f 21 32 20
f 21 34 33
f 22 35 34
f 23 36 35
f 24 25 36
f 25 38 37
f 26 39 38
f 27 40 39
f 28 41 40
f 30 41 29
f 31 42 30
f 32 43 31
f 33 44 32
f 33 46 45
f 34 47 46
f 35 48 47
f 36 37 48
f 37 50 49
f 38 51 50
f 39 52 51
f 40 53 52
f 42 53 41
f 43 54 42
f 44 55 43
f 45 56 44
f 45 58 57
f 46 59 58
f 47 60 59
f 48 49 60
f 49 62 61
f 50 63 62
f 51 64 63
f 52 65 64
f 54 65 53
f 55 66 54
f 56 67 55
f 57 68 56
f 57 70 69
f 58 71 70
f 59 72 71
f 60 61 72
f 61 74 73
f 62 75 74
f 63 76 75
f 64 77 76
f 65 78 77
f 67 78 66
f 68 79 67
f 69 80 68
f 69 82 81
f 70 83 82
f 71 84 83
f 72 73 84
f 73 86 85
f 74 87 86
f 75 88 87
f 76 89 88
f 77 90 89
f 79 90 78
f 80 91 79
f 81 92 80
f 82 93 81
f 82 95 94
f 83 96 95
f 84 85 96
f 85 98 97
f 86 99 98
f 87 100 99
f 88 101 100
f 89 102 101
f 91 102 90
f 92 103 91
f 93 104 92
f 94 105 93
f 94 107 106
f 95 108 107
f 96 97 108
f 97 110 109
f 98 111 110
f 99 112 111
f 100 113 112
f 101 114 113
f 103 114 102
f 104 115 103
f 105 116 104
f 106 117 105
f 106 119 118
f 107 120 119
f 108 109 120
f 109 122 121
f 110 123 122
f 112 123 111
f 113 124 112
f 114 125 113
f 115 126 114
f 116 127 115
f 116 129 128
f 117 130 129
f 118 131 130
f 119 132 131
f 120 121 132
f 121 134 133
f 122 135 134
f 123 136 135
f 124 137 136
f 125 138 137
f 127 138 126
f 128 139 127
f 129 140 128
f 130 141 129
f 131 142 130
f 131 144 143
f 132 133 144
f 133 146 145
f 134 147 146
f 135 148 147
f 136 149 148
f 137 150 149
f 139 150 138
f 140 151 139
f 141 152 140
f 142 153 141
f 143 154 142
f 143 156 155
f 144 145 156
f 146 157 145
f 147 158 146
f 148 159 147
f 148 161 160
f 149 162 161
f 150 163 162
f 151 164 163
f 152 165 164
f 153 166 165
f 155 166 154
f 156 167 155
f 145 168 156
f 169 2 1
f 169 3 2
f 169 4 3
f 169 5 4
f 169 6 5
f 169 7 6
f 169 8 7
f 169 9 8
f 169 10 9
f 169 11 10
f 169 12 11
f 169 1 12
f 157 158 170
f 158 159 170
f 159 160 170
f 160 161 170
f 161 162 170
f 162 163 170
f 163 164 170
f 164 165 170
f 165 166 170
f 166 167 170
f 167 168 170
f 168 157 170
f 2 14 13
f 3 15 14
f 4 16 15
f 5 17 16
f 6 18 17
f 7 19 18
f 7 8 20
f 8 9 21
f 9 10 22
f 10 11 23
f 11 12 24
f 12 1 13
f 13 14 26
f 14 15 27
f 15 16 28
f 17 29 28
f 18 30 29
f 19 31 30
f 20 32 31
f 21 33 32
f 21 22 34
f 22 23 35
f 23 24 36
f 24 13 25
f 25 26 38
f 26 27 39
f 27 28 40
f 28 29 41
f 30 42 41
f 31 43 42
f 32 44 43
f 33 45 44
f 33 34 46
f 34 35 47
f 35 36 48
f 36 25 37
f 37 38 50
f 38 39 51
f 39 40 52
f 40 41 53
f 42 54 53
f 43 55 54
f 44 56 55
f 45 57 56
f 45 46 58
f 46 47 59
f 47 48 60
f 48 37 49
f 49 50 62
f 50 51 63
f 51 52 64
f 52 53 65
f 54 66 65
f 55 67 66
f 56 68 67
f 57 69 68
f 57 58 70
f 58 59 71
f 59 60 72
f 60 49 61
f 61 62 74
f 62 63 75
f 63 64 76
f 64 65 77
f 65 66 78
f 67 79 78
f 68 80 79
f 69 81 80
f 69 70 82
f 70 71 83
f 71 72 84
f 72 61 73
f 73 74 86
f 74 75 87
f 75 76 88
f 76 77 89
f 77 78 90
f 79 91 90
f 80 92 91
f 81 93 92
f 82 94 93
f 82 83 95
f 83 84 96
f 84 73 85
f 85 86 98
f 86 87 99
f 87 88 100
f 88 89 101
f 89 90 102
f 91 103 102
f 92 104 103
f 93 105 104
f 94 106 105
f 94 95 107
f 95 96 108
f 96 85 97
f 97 98 110
f 98 99 111
f 99 100 112
f 100 101 113
f 101 102 114
f 103 115 114
f 104 116 115
f 105 117 116
f 106 118 117
f 106 107 119
f 107 108 120
f 108 97 109
f 109 110 122
f 110 111 123
f 112 124 123
f 113 125 124
f 114 126 125
f 115 127 126
f 116 128 127
f 116 117 129
f 117 118 130
f 118 119 131
f 119 120 132
f 120 109 121
f 121 122 134
f 122 123 135
f 123 124 136
f 124 125 137
f 125 126 138
f 127 139 138
f 128 140 139
f 129 141 140
f 130 142 141
f 131 143 142
f 131 132 144
f 132 121 133
f 133 134 146
f 134 135 147
f 135 136 148
f 136 137 149
f 137 138 150
f 139 151 150
f 140 152 151
f 141 153 152
f 142 154 153
f 143 155 154
f 143 144 156
f 144 133 145
f 146 158 157
f 147 159 158
f 148 160 159
f 148 149 161
f 149 150 162
f 150 151 163
f 151 152 164
f 152 153 165
f 153 154 166
f 155 167 166
f 156 168 167
f 145 157 168
