# beta Collars_Magenta.obj: Roblox cue frame, recentred on its bounding box
v -0.16881 -0.00078 1.62500
v -0.15684 -0.00000 1.61300
v -0.14486 0.00078 1.62500
v -0.15684 0.00000 1.63700
v -0.16739 -0.02204 1.62500
v -0.15549 -0.02047 1.61300
v -0.14360 -0.01890 1.62500
v -0.15549 -0.02047 1.63700
v -0.16308 -0.04369 1.62500
v -0.15149 -0.04059 1.61300
v -0.13990 -0.03748 1.62500
v -0.15149 -0.04059 1.63700
v -0.15599 -0.06461 1.62500
v -0.14490 -0.06001 1.61300
v -0.13381 -0.05542 1.62500
v -0.14490 -0.06001 1.63700
v -0.14622 -0.08441 1.62500
v -0.13583 -0.07841 1.61300
v -0.12543 -0.07241 1.62500
v -0.13583 -0.07841 1.63700
v -0.13395 -0.10277 1.62500
v -0.12443 -0.09547 1.61300
v -0.11491 -0.08816 1.62500
v -0.12443 -0.09547 1.63700
v -0.11939 -0.11938 1.62500
v -0.11090 -0.11089 1.61300
v -0.10242 -0.10241 1.62500
v -0.11090 -0.11089 1.63700
v -0.10279 -0.13394 1.62500
v -0.09548 -0.12442 1.61300
v -0.08818 -0.11490 1.62500
v -0.09548 -0.12442 1.63700
v -0.08442 -0.14621 1.62500
v -0.07842 -0.13581 1.61300
v -0.07242 -0.12542 1.62500
v -0.07842 -0.13581 1.63700
v -0.06462 -0.15597 1.62500
v -0.06003 -0.14489 1.61300
v -0.05543 -0.13380 1.62500
v -0.06003 -0.14489 1.63700
v -0.04371 -0.16307 1.62500
v -0.04060 -0.15148 1.61300
v -0.03750 -0.13989 1.62500
v -0.04060 -0.15148 1.63700
v -0.02205 -0.16738 1.62500
v -0.02048 -0.15548 1.61300
v -0.01892 -0.14358 1.62500
v -0.02048 -0.15548 1.63700
v -0.00001 -0.16882 1.62500
v -0.00001 -0.15682 1.61300
v -0.00001 -0.14482 1.62500
v -0.00001 -0.15682 1.63700
v 0.02202 -0.16738 1.62500
v 0.02046 -0.15548 1.61300
v 0.01889 -0.14358 1.62500
v 0.02046 -0.15548 1.63700
v 0.04368 -0.16307 1.62500
v 0.04058 -0.15148 1.61300
v 0.03747 -0.13989 1.62500
v 0.04058 -0.15148 1.63700
v 0.06459 -0.15597 1.62500
v 0.06000 -0.14489 1.61300
v 0.05541 -0.13380 1.62500
v 0.06000 -0.14489 1.63700
v 0.08440 -0.14621 1.62500
v 0.07840 -0.13581 1.61300
v 0.07240 -0.12542 1.62500
v 0.07840 -0.13581 1.63700
v 0.10276 -0.13394 1.62500
v 0.09546 -0.12442 1.61300
v 0.08815 -0.11490 1.62500
v 0.09546 -0.12442 1.63700
v 0.11936 -0.11938 1.62500
v 0.11088 -0.11089 1.61300
v 0.10239 -0.10241 1.62500
v 0.11088 -0.11089 1.63700
v 0.13392 -0.10277 1.62500
v 0.12440 -0.09547 1.61300
v 0.11488 -0.08816 1.62500
v 0.12440 -0.09547 1.63700
v 0.14619 -0.08441 1.62500
v 0.13580 -0.07841 1.61300
v 0.12541 -0.07241 1.62500
v 0.13580 -0.07841 1.63700
v 0.15596 -0.06461 1.62500
v 0.14487 -0.06001 1.61300
v 0.13379 -0.05542 1.62500
v 0.14487 -0.06001 1.63700
v 0.16306 -0.04369 1.62500
v 0.15147 -0.04059 1.61300
v 0.13988 -0.03748 1.62500
v 0.15147 -0.04059 1.63700
v 0.16737 -0.02204 1.62500
v 0.15547 -0.02047 1.61300
v 0.14357 -0.01890 1.62500
v 0.15547 -0.02047 1.63700
v 0.16881 -0.00000 1.62500
v 0.15681 -0.00000 1.61300
v 0.14481 0.00000 1.62500
v 0.15681 -0.00000 1.63700
v 0.16737 0.02204 1.62500
v 0.15547 0.02047 1.61300
v 0.14357 0.01890 1.62500
v 0.15547 0.02047 1.63700
v 0.16306 0.04369 1.62500
v 0.15147 0.04059 1.61300
v 0.13988 0.03748 1.62500
v 0.15147 0.04059 1.63700
v 0.15596 0.06461 1.62500
v 0.14487 0.06001 1.61300
v 0.13379 0.05542 1.62500
v 0.14487 0.06001 1.63700
v 0.14619 0.08441 1.62500
v 0.13580 0.07841 1.61300
v 0.12541 0.07241 1.62500
v 0.13580 0.07841 1.63700
v 0.13392 0.10277 1.62500
v 0.12440 0.09547 1.61300
v 0.11488 0.08816 1.62500
v 0.12440 0.09547 1.63700
v 0.11936 0.11938 1.62500
v 0.11088 0.11089 1.61300
v 0.10239 0.10241 1.62500
v 0.11088 0.11089 1.63700
v 0.10276 0.13394 1.62500
v 0.09546 0.12442 1.61300
v 0.08815 0.11490 1.62500
v 0.09546 0.12442 1.63700
v 0.08440 0.14621 1.62500
v 0.07840 0.13581 1.61300
v 0.07240 0.12542 1.62500
v 0.07840 0.13581 1.63700
v 0.06459 0.15597 1.62500
v 0.06000 0.14489 1.61300
v 0.05541 0.13380 1.62500
v 0.06000 0.14489 1.63700
v 0.04368 0.16307 1.62500
v 0.04058 0.15148 1.61300
v 0.03747 0.13989 1.62500
v 0.04058 0.15148 1.63700
v 0.02202 0.16738 1.62500
v 0.02046 0.15548 1.61300
v 0.01889 0.14358 1.62500
v 0.02046 0.15548 1.63700
v -0.00001 0.16882 1.62500
v -0.00001 0.15682 1.61300
v -0.00001 0.14482 1.62500
v -0.00001 0.15682 1.63700
v -0.02205 0.16738 1.62500
v -0.02048 0.15548 1.61300
v -0.01892 0.14358 1.62500
v -0.02048 0.15548 1.63700
v -0.04371 0.16307 1.62500
v -0.04060 0.15148 1.61300
v -0.03750 0.13989 1.62500
v -0.04060 0.15148 1.63700
v -0.06462 0.15597 1.62500
v -0.06003 0.14489 1.61300
v -0.05543 0.13380 1.62500
v -0.06003 0.14489 1.63700
v -0.08442 0.14621 1.62500
v -0.07842 0.13581 1.61300
v -0.07242 0.12542 1.62500
v -0.07842 0.13581 1.63700
v -0.10279 0.13394 1.62500
v -0.09548 0.12442 1.61300
v -0.08818 0.11490 1.62500
v -0.09548 0.12442 1.63700
v -0.11939 0.11938 1.62500
v -0.11090 0.11089 1.61300
v -0.10242 0.10241 1.62500
v -0.11090 0.11089 1.63700
v -0.13395 0.10277 1.62500
v -0.12443 0.09547 1.61300
v -0.11491 0.08816 1.62500
v -0.12443 0.09547 1.63700
v -0.14622 0.08441 1.62500
v -0.13583 0.07841 1.61300
v -0.12543 0.07241 1.62500
v -0.13583 0.07841 1.63700
v -0.15599 0.06461 1.62500
v -0.14490 0.06001 1.61300
v -0.13381 0.05542 1.62500
v -0.14490 0.06001 1.63700
v -0.16308 0.04369 1.62500
v -0.15149 0.04059 1.61300
v -0.13990 0.03748 1.62500
v -0.15149 0.04059 1.63700
v -0.16739 0.02204 1.62500
v -0.15549 0.02047 1.61300
v -0.14360 0.01890 1.62500
v -0.15549 0.02047 1.63700
v -0.16881 0.00078 1.62500
v -0.15684 0.00000 1.61300
v -0.14486 -0.00078 1.62500
v -0.15684 0.00000 1.63700
v -0.15684 0.00000 1.62500
v -0.15684 0.00000 1.62500
v -0.17200 -0.00078 1.52500
v -0.16002 -0.00000 1.51300
v -0.14805 0.00078 1.52500
v -0.16002 0.00000 1.53700
v -0.17055 -0.02245 1.52500
v -0.15865 -0.02089 1.51300
v -0.14676 -0.01932 1.52500
v -0.15865 -0.02089 1.53700
v -0.16616 -0.04452 1.52500
v -0.15457 -0.04141 1.51300
v -0.14298 -0.03831 1.52500
v -0.15457 -0.04141 1.53700
v -0.15893 -0.06582 1.52500
v -0.14784 -0.06123 1.51300
v -0.13676 -0.05664 1.52500
v -0.14784 -0.06123 1.53700
v -0.14898 -0.08600 1.52500
v -0.13858 -0.08000 1.51300
v -0.12819 -0.07400 1.52500
v -0.13858 -0.08000 1.53700
v -0.13648 -0.10471 1.52500
v -0.12696 -0.09741 1.51300
v -0.11744 -0.09010 1.52500
v -0.12696 -0.09741 1.53700
v -0.12164 -0.12163 1.52500
v -0.11316 -0.11314 1.51300
v -0.10467 -0.10466 1.52500
v -0.11316 -0.11314 1.53700
v -0.10473 -0.13646 1.52500
v -0.09742 -0.12694 1.51300
v -0.09011 -0.11742 1.52500
v -0.09742 -0.12694 1.53700
v -0.08602 -0.14896 1.52500
v -0.08002 -0.13857 1.51300
v -0.07402 -0.12818 1.52500
v -0.08002 -0.13857 1.53700
v -0.06584 -0.15892 1.52500
v -0.06125 -0.14783 1.51300
v -0.05665 -0.13674 1.52500
v -0.06125 -0.14783 1.53700
v -0.04453 -0.16615 1.52500
v -0.04143 -0.15456 1.51300
v -0.03832 -0.14297 1.52500
v -0.04143 -0.15456 1.53700
v -0.02246 -0.17054 1.52500
v -0.02090 -0.15864 1.51300
v -0.01933 -0.14674 1.52500
v -0.02090 -0.15864 1.53700
v -0.00001 -0.17201 1.52500
v -0.00001 -0.16001 1.51300
v -0.00001 -0.14801 1.52500
v -0.00001 -0.16001 1.53700
v 0.02244 -0.17054 1.52500
v 0.02087 -0.15864 1.51300
v 0.01931 -0.14674 1.52500
v 0.02087 -0.15864 1.53700
v 0.04451 -0.16615 1.52500
v 0.04140 -0.15456 1.51300
v 0.03829 -0.14297 1.52500
v 0.04140 -0.15456 1.53700
v 0.06581 -0.15892 1.52500
v 0.06122 -0.14783 1.51300
v 0.05663 -0.13674 1.52500
v 0.06122 -0.14783 1.53700
v 0.08599 -0.14896 1.52500
v 0.07999 -0.13857 1.51300
v 0.07399 -0.12818 1.52500
v 0.07999 -0.13857 1.53700
v 0.10470 -0.13646 1.52500
v 0.09739 -0.12694 1.51300
v 0.09009 -0.11742 1.52500
v 0.09739 -0.12694 1.53700
v 0.12162 -0.12163 1.52500
v 0.11313 -0.11314 1.51300
v 0.10465 -0.10466 1.52500
v 0.11313 -0.11314 1.53700
v 0.13645 -0.10471 1.52500
v 0.12693 -0.09741 1.51300
v 0.11741 -0.09010 1.52500
v 0.12693 -0.09741 1.53700
v 0.14895 -0.08600 1.52500
v 0.13856 -0.08000 1.51300
v 0.12817 -0.07400 1.52500
v 0.13856 -0.08000 1.53700
v 0.15890 -0.06582 1.52500
v 0.14782 -0.06123 1.51300
v 0.13673 -0.05664 1.52500
v 0.14782 -0.06123 1.53700
v 0.16613 -0.04452 1.52500
v 0.15454 -0.04141 1.51300
v 0.14295 -0.03831 1.52500
v 0.15454 -0.04141 1.53700
v 0.17052 -0.02245 1.52500
v 0.15863 -0.02089 1.51300
v 0.14673 -0.01932 1.52500
v 0.15863 -0.02089 1.53700
v 0.17200 -0.00000 1.52500
v 0.16000 -0.00000 1.51300
v 0.14800 -0.00000 1.52500
v 0.16000 -0.00000 1.53700
v 0.17052 0.02245 1.52500
v 0.15863 0.02089 1.51300
v 0.14673 0.01932 1.52500
v 0.15863 0.02089 1.53700
v 0.16613 0.04452 1.52500
v 0.15454 0.04141 1.51300
v 0.14295 0.03831 1.52500
v 0.15454 0.04141 1.53700
v 0.15890 0.06582 1.52500
v 0.14782 0.06123 1.51300
v 0.13673 0.05664 1.52500
v 0.14782 0.06123 1.53700
v 0.14895 0.08600 1.52500
v 0.13856 0.08000 1.51300
v 0.12817 0.07400 1.52500
v 0.13856 0.08000 1.53700
v 0.13645 0.10471 1.52500
v 0.12693 0.09741 1.51300
v 0.11741 0.09010 1.52500
v 0.12693 0.09741 1.53700
v 0.12162 0.12163 1.52500
v 0.11313 0.11314 1.51300
v 0.10465 0.10466 1.52500
v 0.11313 0.11314 1.53700
v 0.10470 0.13646 1.52500
v 0.09739 0.12694 1.51300
v 0.09009 0.11742 1.52500
v 0.09739 0.12694 1.53700
v 0.08599 0.14896 1.52500
v 0.07999 0.13857 1.51300
v 0.07399 0.12818 1.52500
v 0.07999 0.13857 1.53700
v 0.06581 0.15892 1.52500
v 0.06122 0.14783 1.51300
v 0.05663 0.13674 1.52500
v 0.06122 0.14783 1.53700
v 0.04451 0.16615 1.52500
v 0.04140 0.15456 1.51300
v 0.03829 0.14297 1.52500
v 0.04140 0.15456 1.53700
v 0.02244 0.17054 1.52500
v 0.02087 0.15864 1.51300
v 0.01931 0.14674 1.52500
v 0.02087 0.15864 1.53700
v -0.00001 0.17201 1.52500
v -0.00001 0.16001 1.51300
v -0.00001 0.14801 1.52500
v -0.00001 0.16001 1.53700
v -0.02246 0.17054 1.52500
v -0.02090 0.15864 1.51300
v -0.01933 0.14674 1.52500
v -0.02090 0.15864 1.53700
v -0.04453 0.16615 1.52500
v -0.04143 0.15456 1.51300
v -0.03832 0.14297 1.52500
v -0.04143 0.15456 1.53700
v -0.06584 0.15892 1.52500
v -0.06125 0.14783 1.51300
v -0.05665 0.13674 1.52500
v -0.06125 0.14783 1.53700
v -0.08602 0.14896 1.52500
v -0.08002 0.13857 1.51300
v -0.07402 0.12818 1.52500
v -0.08002 0.13857 1.53700
v -0.10473 0.13646 1.52500
v -0.09742 0.12694 1.51300
v -0.09011 0.11742 1.52500
v -0.09742 0.12694 1.53700
v -0.12164 0.12163 1.52500
v -0.11316 0.11314 1.51300
v -0.10467 0.10466 1.52500
v -0.11316 0.11314 1.53700
v -0.13648 0.10471 1.52500
v -0.12696 0.09741 1.51300
v -0.11744 0.09010 1.52500
v -0.12696 0.09741 1.53700
v -0.14898 0.08600 1.52500
v -0.13858 0.08000 1.51300
v -0.12819 0.07400 1.52500
v -0.13858 0.08000 1.53700
v -0.15893 0.06582 1.52500
v -0.14784 0.06123 1.51300
v -0.13676 0.05664 1.52500
v -0.14784 0.06123 1.53700
v -0.16616 0.04452 1.52500
v -0.15457 0.04141 1.51300
v -0.14298 0.03831 1.52500
v -0.15457 0.04141 1.53700
v -0.17055 0.02245 1.52500
v -0.15865 0.02089 1.51300
v -0.14676 0.01932 1.52500
v -0.15865 0.02089 1.53700
v -0.17200 0.00078 1.52500
v -0.16002 0.00000 1.51300
v -0.14805 -0.00078 1.52500
v -0.16002 0.00000 1.53700
v -0.16002 0.00000 1.52500
v -0.16002 0.00000 1.52500
v -0.20096 -0.00078 -0.08500
v -0.18899 -0.00000 -0.09700
v -0.17701 0.00078 -0.08500
v -0.18899 0.00000 -0.07300
v -0.19927 -0.02623 -0.08500
v -0.18737 -0.02467 -0.09700
v -0.17547 -0.02310 -0.08500
v -0.18737 -0.02467 -0.07300
v -0.19414 -0.05202 -0.08500
v -0.18255 -0.04891 -0.09700
v -0.17096 -0.04580 -0.08500
v -0.18255 -0.04891 -0.07300
v -0.18569 -0.07691 -0.08500
v -0.17460 -0.07232 -0.09700
v -0.16352 -0.06773 -0.08500
v -0.17460 -0.07232 -0.07300
v -0.17406 -0.10049 -0.08500
v -0.16367 -0.09449 -0.09700
v -0.15328 -0.08849 -0.08500
v -0.16367 -0.09449 -0.07300
v -0.15946 -0.12235 -0.08500
v -0.14994 -0.11504 -0.09700
v -0.14042 -0.10774 -0.08500
v -0.14994 -0.11504 -0.07300
v -0.14212 -0.14211 -0.08500
v -0.13364 -0.13363 -0.09700
v -0.12515 -0.12514 -0.08500
v -0.13364 -0.13363 -0.07300
v -0.12236 -0.15944 -0.08500
v -0.11505 -0.14992 -0.09700
v -0.10775 -0.14040 -0.08500
v -0.11505 -0.14992 -0.07300
v -0.10050 -0.17405 -0.08500
v -0.09450 -0.16366 -0.09700
v -0.08850 -0.15326 -0.08500
v -0.09450 -0.16366 -0.07300
v -0.07692 -0.18568 -0.08500
v -0.07233 -0.17459 -0.09700
v -0.06774 -0.16350 -0.08500
v -0.07233 -0.17459 -0.07300
v -0.05203 -0.19413 -0.08500
v -0.04892 -0.18254 -0.09700
v -0.04582 -0.17094 -0.08500
v -0.04892 -0.18254 -0.07300
v -0.02625 -0.19926 -0.08500
v -0.02468 -0.18736 -0.09700
v -0.02311 -0.17546 -0.08500
v -0.02468 -0.18736 -0.07300
v -0.00001 -0.20098 -0.08500
v -0.00001 -0.18898 -0.09700
v -0.00001 -0.17698 -0.08500
v -0.00001 -0.18898 -0.07300
v 0.02622 -0.19926 -0.08500
v 0.02465 -0.18736 -0.09700
v 0.02309 -0.17546 -0.08500
v 0.02465 -0.18736 -0.07300
v 0.05200 -0.19413 -0.08500
v 0.04890 -0.18254 -0.09700
v 0.04579 -0.17094 -0.08500
v 0.04890 -0.18254 -0.07300
v 0.07690 -0.18568 -0.08500
v 0.07230 -0.17459 -0.09700
v 0.06771 -0.16350 -0.08500
v 0.07230 -0.17459 -0.07300
v 0.10047 -0.17405 -0.08500
v 0.09447 -0.16366 -0.09700
v 0.08847 -0.15326 -0.08500
v 0.09447 -0.16366 -0.07300
v 0.12233 -0.15944 -0.08500
v 0.11503 -0.14992 -0.09700
v 0.10772 -0.14040 -0.08500
v 0.11503 -0.14992 -0.07300
v 0.14210 -0.14211 -0.08500
v 0.13361 -0.13363 -0.09700
v 0.12513 -0.12514 -0.08500
v 0.13361 -0.13363 -0.07300
v 0.15943 -0.12235 -0.08500
v 0.14991 -0.11504 -0.09700
v 0.14039 -0.10774 -0.08500
v 0.14991 -0.11504 -0.07300
v 0.17404 -0.10049 -0.08500
v 0.16364 -0.09449 -0.09700
v 0.15325 -0.08849 -0.08500
v 0.16364 -0.09449 -0.07300
v 0.18566 -0.07691 -0.08500
v 0.17458 -0.07232 -0.09700
v 0.16349 -0.06773 -0.08500
v 0.17458 -0.07232 -0.07300
v 0.19411 -0.05202 -0.08500
v 0.18252 -0.04891 -0.09700
v 0.17093 -0.04580 -0.08500
v 0.18252 -0.04891 -0.07300
v 0.19924 -0.02623 -0.08500
v 0.18735 -0.02467 -0.09700
v 0.17545 -0.02310 -0.08500
v 0.18735 -0.02467 -0.07300
v 0.20096 -0.00000 -0.08500
v 0.18896 -0.00000 -0.09700
v 0.17696 0.00000 -0.08500
v 0.18896 -0.00000 -0.07300
v 0.19924 0.02623 -0.08500
v 0.18735 0.02467 -0.09700
v 0.17545 0.02310 -0.08500
v 0.18735 0.02467 -0.07300
v 0.19411 0.05202 -0.08500
v 0.18252 0.04891 -0.09700
v 0.17093 0.04580 -0.08500
v 0.18252 0.04891 -0.07300
v 0.18566 0.07691 -0.08500
v 0.17458 0.07232 -0.09700
v 0.16349 0.06773 -0.08500
v 0.17458 0.07232 -0.07300
v 0.17404 0.10049 -0.08500
v 0.16364 0.09449 -0.09700
v 0.15325 0.08849 -0.08500
v 0.16364 0.09449 -0.07300
v 0.15943 0.12235 -0.08500
v 0.14991 0.11504 -0.09700
v 0.14039 0.10774 -0.08500
v 0.14991 0.11504 -0.07300
v 0.14210 0.14211 -0.08500
v 0.13361 0.13363 -0.09700
v 0.12513 0.12514 -0.08500
v 0.13361 0.13363 -0.07300
v 0.12233 0.15944 -0.08500
v 0.11503 0.14992 -0.09700
v 0.10772 0.14040 -0.08500
v 0.11503 0.14992 -0.07300
v 0.10047 0.17405 -0.08500
v 0.09447 0.16366 -0.09700
v 0.08847 0.15326 -0.08500
v 0.09447 0.16366 -0.07300
v 0.07690 0.18568 -0.08500
v 0.07230 0.17459 -0.09700
v 0.06771 0.16350 -0.08500
v 0.07230 0.17459 -0.07300
v 0.05200 0.19413 -0.08500
v 0.04890 0.18254 -0.09700
v 0.04579 0.17094 -0.08500
v 0.04890 0.18254 -0.07300
v 0.02622 0.19926 -0.08500
v 0.02465 0.18736 -0.09700
v 0.02309 0.17546 -0.08500
v 0.02465 0.18736 -0.07300
v -0.00001 0.20098 -0.08500
v -0.00001 0.18898 -0.09700
v -0.00001 0.17698 -0.08500
v -0.00001 0.18898 -0.07300
v -0.02625 0.19926 -0.08500
v -0.02468 0.18736 -0.09700
v -0.02311 0.17546 -0.08500
v -0.02468 0.18736 -0.07300
v -0.05203 0.19413 -0.08500
v -0.04892 0.18254 -0.09700
v -0.04582 0.17094 -0.08500
v -0.04892 0.18254 -0.07300
v -0.07692 0.18568 -0.08500
v -0.07233 0.17459 -0.09700
v -0.06774 0.16350 -0.08500
v -0.07233 0.17459 -0.07300
v -0.10050 0.17405 -0.08500
v -0.09450 0.16366 -0.09700
v -0.08850 0.15326 -0.08500
v -0.09450 0.16366 -0.07300
v -0.12236 0.15944 -0.08500
v -0.11505 0.14992 -0.09700
v -0.10775 0.14040 -0.08500
v -0.11505 0.14992 -0.07300
v -0.14212 0.14211 -0.08500
v -0.13364 0.13363 -0.09700
v -0.12515 0.12514 -0.08500
v -0.13364 0.13363 -0.07300
v -0.15946 0.12235 -0.08500
v -0.14994 0.11504 -0.09700
v -0.14042 0.10774 -0.08500
v -0.14994 0.11504 -0.07300
v -0.17406 0.10049 -0.08500
v -0.16367 0.09449 -0.09700
v -0.15328 0.08849 -0.08500
v -0.16367 0.09449 -0.07300
v -0.18569 0.07691 -0.08500
v -0.17460 0.07232 -0.09700
v -0.16352 0.06773 -0.08500
v -0.17460 0.07232 -0.07300
v -0.19414 0.05202 -0.08500
v -0.18255 0.04891 -0.09700
v -0.17096 0.04580 -0.08500
v -0.18255 0.04891 -0.07300
v -0.19927 0.02623 -0.08500
v -0.18737 0.02467 -0.09700
v -0.17547 0.02310 -0.08500
v -0.18737 0.02467 -0.07300
v -0.20096 0.00078 -0.08500
v -0.18899 0.00000 -0.09700
v -0.17701 -0.00078 -0.08500
v -0.18899 0.00000 -0.07300
v -0.18899 0.00000 -0.08500
v -0.18899 0.00000 -0.08500
v -0.20197 -0.00078 -0.14500
v -0.19000 -0.00000 -0.15700
v -0.17803 0.00078 -0.14500
v -0.19000 0.00000 -0.13300
v -0.20027 -0.02636 -0.14500
v -0.18837 -0.02480 -0.15700
v -0.17648 -0.02323 -0.14500
v -0.18837 -0.02480 -0.13300
v -0.19512 -0.05228 -0.14500
v -0.18353 -0.04917 -0.15700
v -0.17194 -0.04607 -0.14500
v -0.18353 -0.04917 -0.13300
v -0.18662 -0.07730 -0.14500
v -0.17554 -0.07271 -0.15700
v -0.16445 -0.06811 -0.14500
v -0.17554 -0.07271 -0.13300
v -0.17494 -0.10099 -0.14500
v -0.16455 -0.09499 -0.15700
v -0.15415 -0.08899 -0.14500
v -0.16455 -0.09499 -0.13300
v -0.16026 -0.12296 -0.14500
v -0.15074 -0.11566 -0.15700
v -0.14122 -0.10835 -0.14500
v -0.15074 -0.11566 -0.13300
v -0.14284 -0.14283 -0.14500
v -0.13435 -0.13434 -0.15700
v -0.12587 -0.12586 -0.14500
v -0.13435 -0.13434 -0.13300
v -0.12298 -0.16025 -0.14500
v -0.11567 -0.15073 -0.15700
v -0.10836 -0.14121 -0.14500
v -0.11567 -0.15073 -0.13300
v -0.10101 -0.17493 -0.14500
v -0.09501 -0.16453 -0.15700
v -0.08901 -0.15414 -0.14500
v -0.09501 -0.16453 -0.13300
v -0.07731 -0.18661 -0.14500
v -0.07272 -0.17553 -0.15700
v -0.06813 -0.16444 -0.14500
v -0.07272 -0.17553 -0.13300
v -0.05229 -0.19510 -0.14500
v -0.04919 -0.18351 -0.15700
v -0.04608 -0.17192 -0.14500
v -0.04919 -0.18351 -0.13300
v -0.02638 -0.20026 -0.14500
v -0.02481 -0.18836 -0.15700
v -0.02324 -0.17646 -0.14500
v -0.02481 -0.18836 -0.13300
v -0.00001 -0.20199 -0.14500
v -0.00001 -0.18999 -0.15700
v -0.00001 -0.17799 -0.14500
v -0.00001 -0.18999 -0.13300
v 0.02635 -0.20026 -0.14500
v 0.02479 -0.18836 -0.15700
v 0.02322 -0.17646 -0.14500
v 0.02479 -0.18836 -0.13300
v 0.05227 -0.19510 -0.14500
v 0.04916 -0.18351 -0.15700
v 0.04605 -0.17192 -0.14500
v 0.04916 -0.18351 -0.13300
v 0.07728 -0.18661 -0.14500
v 0.07269 -0.17553 -0.15700
v 0.06810 -0.16444 -0.14500
v 0.07269 -0.17553 -0.13300
v 0.10098 -0.17493 -0.14500
v 0.09498 -0.16453 -0.15700
v 0.08898 -0.15414 -0.14500
v 0.09498 -0.16453 -0.13300
v 0.12295 -0.16025 -0.14500
v 0.11564 -0.15073 -0.15700
v 0.10834 -0.14121 -0.14500
v 0.11564 -0.15073 -0.13300
v 0.14281 -0.14283 -0.14500
v 0.13433 -0.13434 -0.15700
v 0.12584 -0.12586 -0.14500
v 0.13433 -0.13434 -0.13300
v 0.16023 -0.12296 -0.14500
v 0.15071 -0.11566 -0.15700
v 0.14119 -0.10835 -0.14500
v 0.15071 -0.11566 -0.13300
v 0.17491 -0.10099 -0.14500
v 0.16452 -0.09499 -0.15700
v 0.15413 -0.08899 -0.14500
v 0.16452 -0.09499 -0.13300
v 0.18660 -0.07730 -0.14500
v 0.17551 -0.07271 -0.15700
v 0.16443 -0.06811 -0.14500
v 0.17551 -0.07271 -0.13300
v 0.19509 -0.05228 -0.14500
v 0.18350 -0.04917 -0.15700
v 0.17191 -0.04607 -0.14500
v 0.18350 -0.04917 -0.13300
v 0.20025 -0.02636 -0.14500
v 0.18835 -0.02480 -0.15700
v 0.17645 -0.02323 -0.14500
v 0.18835 -0.02480 -0.13300
v 0.20197 -0.00000 -0.14500
v 0.18997 -0.00000 -0.15700
v 0.17797 -0.00000 -0.14500
v 0.18997 -0.00000 -0.13300
v 0.20025 0.02636 -0.14500
v 0.18835 0.02480 -0.15700
v 0.17645 0.02323 -0.14500
v 0.18835 0.02480 -0.13300
v 0.19509 0.05228 -0.14500
v 0.18350 0.04917 -0.15700
v 0.17191 0.04607 -0.14500
v 0.18350 0.04917 -0.13300
v 0.18660 0.07730 -0.14500
v 0.17551 0.07271 -0.15700
v 0.16443 0.06811 -0.14500
v 0.17551 0.07271 -0.13300
v 0.17491 0.10099 -0.14500
v 0.16452 0.09499 -0.15700
v 0.15413 0.08899 -0.14500
v 0.16452 0.09499 -0.13300
v 0.16023 0.12296 -0.14500
v 0.15071 0.11566 -0.15700
v 0.14119 0.10835 -0.14500
v 0.15071 0.11566 -0.13300
v 0.14281 0.14283 -0.14500
v 0.13433 0.13434 -0.15700
v 0.12584 0.12586 -0.14500
v 0.13433 0.13434 -0.13300
v 0.12295 0.16025 -0.14500
v 0.11564 0.15073 -0.15700
v 0.10834 0.14121 -0.14500
v 0.11564 0.15073 -0.13300
v 0.10098 0.17493 -0.14500
v 0.09498 0.16453 -0.15700
v 0.08898 0.15414 -0.14500
v 0.09498 0.16453 -0.13300
v 0.07728 0.18661 -0.14500
v 0.07269 0.17553 -0.15700
v 0.06810 0.16444 -0.14500
v 0.07269 0.17553 -0.13300
v 0.05227 0.19510 -0.14500
v 0.04916 0.18351 -0.15700
v 0.04605 0.17192 -0.14500
v 0.04916 0.18351 -0.13300
v 0.02635 0.20026 -0.14500
v 0.02479 0.18836 -0.15700
v 0.02322 0.17646 -0.14500
v 0.02479 0.18836 -0.13300
v -0.00001 0.20199 -0.14500
v -0.00001 0.18999 -0.15700
v -0.00001 0.17799 -0.14500
v -0.00001 0.18999 -0.13300
v -0.02638 0.20026 -0.14500
v -0.02481 0.18836 -0.15700
v -0.02324 0.17646 -0.14500
v -0.02481 0.18836 -0.13300
v -0.05229 0.19510 -0.14500
v -0.04919 0.18351 -0.15700
v -0.04608 0.17192 -0.14500
v -0.04919 0.18351 -0.13300
v -0.07731 0.18661 -0.14500
v -0.07272 0.17553 -0.15700
v -0.06813 0.16444 -0.14500
v -0.07272 0.17553 -0.13300
v -0.10101 0.17493 -0.14500
v -0.09501 0.16453 -0.15700
v -0.08901 0.15414 -0.14500
v -0.09501 0.16453 -0.13300
v -0.12298 0.16025 -0.14500
v -0.11567 0.15073 -0.15700
v -0.10836 0.14121 -0.14500
v -0.11567 0.15073 -0.13300
v -0.14284 0.14283 -0.14500
v -0.13435 0.13434 -0.15700
v -0.12587 0.12586 -0.14500
v -0.13435 0.13434 -0.13300
v -0.16026 0.12296 -0.14500
v -0.15074 0.11566 -0.15700
v -0.14122 0.10835 -0.14500
v -0.15074 0.11566 -0.13300
v -0.17494 0.10099 -0.14500
v -0.16455 0.09499 -0.15700
v -0.15415 0.08899 -0.14500
v -0.16455 0.09499 -0.13300
v -0.18662 0.07730 -0.14500
v -0.17554 0.07271 -0.15700
v -0.16445 0.06811 -0.14500
v -0.17554 0.07271 -0.13300
v -0.19512 0.05228 -0.14500
v -0.18353 0.04917 -0.15700
v -0.17194 0.04607 -0.14500
v -0.18353 0.04917 -0.13300
v -0.20027 0.02636 -0.14500
v -0.18837 0.02480 -0.15700
v -0.17648 0.02323 -0.14500
v -0.18837 0.02480 -0.13300
v -0.20197 0.00078 -0.14500
v -0.19000 0.00000 -0.15700
v -0.17803 -0.00078 -0.14500
v -0.19000 0.00000 -0.13300
v -0.19000 0.00000 -0.14500
v -0.19000 0.00000 -0.14500
v -0.20299 -0.00078 -1.62500
v -0.19101 -0.00000 -1.63700
v -0.17904 0.00078 -1.62500
v -0.19101 0.00000 -1.61300
v -0.20128 -0.02650 -1.62500
v -0.18938 -0.02493 -1.63700
v -0.17748 -0.02336 -1.62500
v -0.18938 -0.02493 -1.61300
v -0.19610 -0.05254 -1.62500
v -0.18450 -0.04943 -1.63700
v -0.17291 -0.04633 -1.62500
v -0.18450 -0.04943 -1.61300
v -0.18756 -0.07768 -1.62500
v -0.17647 -0.07309 -1.63700
v -0.16539 -0.06850 -1.62500
v -0.17647 -0.07309 -1.61300
v -0.17582 -0.10150 -1.62500
v -0.16542 -0.09550 -1.63700
v -0.15503 -0.08950 -1.62500
v -0.16542 -0.09550 -1.61300
v -0.16106 -0.12358 -1.62500
v -0.15154 -0.11627 -1.63700
v -0.14202 -0.10897 -1.62500
v -0.15154 -0.11627 -1.61300
v -0.14356 -0.14354 -1.62500
v -0.13507 -0.13506 -1.63700
v -0.12658 -0.12657 -1.62500
v -0.13507 -0.13506 -1.61300
v -0.12359 -0.16105 -1.62500
v -0.11629 -0.15153 -1.63700
v -0.10898 -0.14201 -1.62500
v -0.11629 -0.15153 -1.61300
v -0.10151 -0.17580 -1.62500
v -0.09551 -0.16541 -1.63700
v -0.08951 -0.15502 -1.62500
v -0.09551 -0.16541 -1.61300
v -0.07770 -0.18755 -1.62500
v -0.07311 -0.17646 -1.63700
v -0.06851 -0.16537 -1.62500
v -0.07311 -0.17646 -1.61300
v -0.05255 -0.19608 -1.62500
v -0.04945 -0.18449 -1.63700
v -0.04634 -0.17290 -1.62500
v -0.04945 -0.18449 -1.61300
v -0.02651 -0.20126 -1.62500
v -0.02494 -0.18937 -1.63700
v -0.02338 -0.17747 -1.62500
v -0.02494 -0.18937 -1.61300
v -0.00001 -0.20300 -1.62500
v -0.00001 -0.19100 -1.63700
v -0.00001 -0.17900 -1.62500
v -0.00001 -0.19100 -1.61300
v 0.02648 -0.20126 -1.62500
v 0.02492 -0.18937 -1.63700
v 0.02335 -0.17747 -1.62500
v 0.02492 -0.18937 -1.61300
v 0.05253 -0.19608 -1.62500
v 0.04942 -0.18449 -1.63700
v 0.04632 -0.17290 -1.62500
v 0.04942 -0.18449 -1.61300
v 0.07767 -0.18755 -1.62500
v 0.07308 -0.17646 -1.63700
v 0.06849 -0.16537 -1.62500
v 0.07308 -0.17646 -1.61300
v 0.10149 -0.17580 -1.62500
v 0.09549 -0.16541 -1.63700
v 0.08949 -0.15502 -1.62500
v 0.09549 -0.16541 -1.61300
v 0.12357 -0.16105 -1.62500
v 0.11626 -0.15153 -1.63700
v 0.10896 -0.14201 -1.62500
v 0.11626 -0.15153 -1.61300
v 0.14353 -0.14354 -1.62500
v 0.13504 -0.13506 -1.63700
v 0.12656 -0.12657 -1.62500
v 0.13504 -0.13506 -1.61300
v 0.16104 -0.12358 -1.62500
v 0.15152 -0.11627 -1.63700
v 0.14200 -0.10897 -1.62500
v 0.15152 -0.11627 -1.61300
v 0.17579 -0.10150 -1.62500
v 0.16540 -0.09550 -1.63700
v 0.15501 -0.08950 -1.62500
v 0.16540 -0.09550 -1.61300
v 0.18753 -0.07768 -1.62500
v 0.17645 -0.07309 -1.63700
v 0.16536 -0.06850 -1.62500
v 0.17645 -0.07309 -1.61300
v 0.19607 -0.05254 -1.62500
v 0.18448 -0.04943 -1.63700
v 0.17289 -0.04633 -1.62500
v 0.18448 -0.04943 -1.61300
v 0.20125 -0.02650 -1.62500
v 0.18935 -0.02493 -1.63700
v 0.17746 -0.02336 -1.62500
v 0.18935 -0.02493 -1.61300
v 0.20299 -0.00000 -1.62500
v 0.19099 -0.00000 -1.63700
v 0.17899 -0.00000 -1.62500
v 0.19099 -0.00000 -1.61300
v 0.20125 0.02650 -1.62500
v 0.18935 0.02493 -1.63700
v 0.17746 0.02336 -1.62500
v 0.18935 0.02493 -1.61300
v 0.19607 0.05254 -1.62500
v 0.18448 0.04943 -1.63700
v 0.17289 0.04633 -1.62500
v 0.18448 0.04943 -1.61300
v 0.18753 0.07768 -1.62500
v 0.17645 0.07309 -1.63700
v 0.16536 0.06850 -1.62500
v 0.17645 0.07309 -1.61300
v 0.17579 0.10150 -1.62500
v 0.16540 0.09550 -1.63700
v 0.15501 0.08950 -1.62500
v 0.16540 0.09550 -1.61300
v 0.16104 0.12358 -1.62500
v 0.15152 0.11627 -1.63700
v 0.14200 0.10897 -1.62500
v 0.15152 0.11627 -1.61300
v 0.14353 0.14354 -1.62500
v 0.13504 0.13506 -1.63700
v 0.12656 0.12657 -1.62500
v 0.13504 0.13506 -1.61300
v 0.12357 0.16105 -1.62500
v 0.11626 0.15153 -1.63700
v 0.10896 0.14201 -1.62500
v 0.11626 0.15153 -1.61300
v 0.10149 0.17580 -1.62500
v 0.09549 0.16541 -1.63700
v 0.08949 0.15502 -1.62500
v 0.09549 0.16541 -1.61300
v 0.07767 0.18755 -1.62500
v 0.07308 0.17646 -1.63700
v 0.06849 0.16537 -1.62500
v 0.07308 0.17646 -1.61300
v 0.05253 0.19608 -1.62500
v 0.04942 0.18449 -1.63700
v 0.04632 0.17290 -1.62500
v 0.04942 0.18449 -1.61300
v 0.02648 0.20126 -1.62500
v 0.02492 0.18937 -1.63700
v 0.02335 0.17747 -1.62500
v 0.02492 0.18937 -1.61300
v -0.00001 0.20300 -1.62500
v -0.00001 0.19100 -1.63700
v -0.00001 0.17900 -1.62500
v -0.00001 0.19100 -1.61300
v -0.02651 0.20126 -1.62500
v -0.02494 0.18937 -1.63700
v -0.02338 0.17747 -1.62500
v -0.02494 0.18937 -1.61300
v -0.05255 0.19608 -1.62500
v -0.04945 0.18449 -1.63700
v -0.04634 0.17290 -1.62500
v -0.04945 0.18449 -1.61300
v -0.07770 0.18755 -1.62500
v -0.07311 0.17646 -1.63700
v -0.06851 0.16537 -1.62500
v -0.07311 0.17646 -1.61300
v -0.10151 0.17580 -1.62500
v -0.09551 0.16541 -1.63700
v -0.08951 0.15502 -1.62500
v -0.09551 0.16541 -1.61300
v -0.12359 0.16105 -1.62500
v -0.11629 0.15153 -1.63700
v -0.10898 0.14201 -1.62500
v -0.11629 0.15153 -1.61300
v -0.14356 0.14354 -1.62500
v -0.13507 0.13506 -1.63700
v -0.12658 0.12657 -1.62500
v -0.13507 0.13506 -1.61300
v -0.16106 0.12358 -1.62500
v -0.15154 0.11627 -1.63700
v -0.14202 0.10897 -1.62500
v -0.15154 0.11627 -1.61300
v -0.17582 0.10150 -1.62500
v -0.16542 0.09550 -1.63700
v -0.15503 0.08950 -1.62500
v -0.16542 0.09550 -1.61300
v -0.18756 0.07768 -1.62500
v -0.17647 0.07309 -1.63700
v -0.16539 0.06850 -1.62500
v -0.17647 0.07309 -1.61300
v -0.19610 0.05254 -1.62500
v -0.18450 0.04943 -1.63700
v -0.17291 0.04633 -1.62500
v -0.18450 0.04943 -1.61300
v -0.20128 0.02650 -1.62500
v -0.18938 0.02493 -1.63700
v -0.17748 0.02336 -1.62500
v -0.18938 0.02493 -1.61300
v -0.20299 0.00078 -1.62500
v -0.19101 0.00000 -1.63700
v -0.17904 -0.00078 -1.62500
v -0.19101 0.00000 -1.61300
v -0.19101 0.00000 -1.62500
v -0.19101 0.00000 -1.62500
s 1
f 1 6 5
s 1
f 2 7 6
s 1
f 4 7 3
s 1
f 1 8 4
s 1
f 6 9 5
s 1
f 6 11 10
s 1
f 8 11 7
s 1
f 5 12 8
s 1
f 10 13 9
s 1
f 10 15 14
s 1
f 12 15 11
s 1
f 12 13 16
s 1
f 13 18 17
s 1
f 14 19 18
s 1
f 16 19 15
s 1
f 13 20 16
s 1
f 17 22 21
s 1
f 18 23 22
s 1
f 19 24 23
s 1
f 20 21 24
s 1
f 21 26 25
s 1
f 22 27 26
s 1
f 24 27 23
s 1
f 21 28 24
s 1
f 26 29 25
s 1
f 27 30 26
s 1
f 27 32 31
s 1
f 28 29 32
s 1
f 29 34 33
s 1
f 31 34 30
s 1
f 31 36 35
s 1
f 32 33 36
s 1
f 33 38 37
s 1
f 35 38 34
s 1
f 35 40 39
s 1
f 33 40 36
s 1
f 37 42 41
s 1
f 39 42 38
s 1
f 40 43 39
s 1
f 40 41 44
s 1
f 41 46 45
s 1
f 42 47 46
s 1
f 44 47 43
s 1
f 41 48 44
s 1
f 45 50 49
s 1
f 46 51 50
s 1
f 48 51 47
s 1
f 45 52 48
s 1
f 50 53 49
s 1
f 51 54 50
s 1
f 51 56 55
s 1
f 52 53 56
s 1
f 54 57 53
s 1
f 55 58 54
s 1
f 55 60 59
s 1
f 56 57 60
s 1
f 58 61 57
s 1
f 59 62 58
s 1
f 59 64 63
s 1
f 60 61 64
s 1
f 61 66 65
s 1
f 62 67 66
s 1
f 64 67 63
s 1
f 64 65 68
s 1
f 66 69 65
s 1
f 66 71 70
s 1
f 68 71 67
s 1
f 68 69 72
s 1
f 69 74 73
s 1
f 71 74 70
s 1
f 72 75 71
s 1
f 69 76 72
s 1
f 74 77 73
s 1
f 75 78 74
s 1
f 75 80 79
s 1
f 76 77 80
s 1
f 78 81 77
s 1
f 79 82 78
s 1
f 80 83 79
s 1
f 80 81 84
s 1
f 82 85 81
s 1
f 83 86 82
s 1
f 83 88 87
s 1
f 84 85 88
s 1
f 85 90 89
s 1
f 87 90 86
s 1
f 87 92 91
s 1
f 85 92 88
s 1
f 89 94 93
s 1
f 91 94 90
s 1
f 91 96 95
s 1
f 92 93 96
s 1
f 93 98 97
s 1
f 94 99 98
s 1
f 96 99 95
s 1
f 93 100 96
s 1
f 98 101 97
s 1
f 99 102 98
s 1
f 99 104 103
s 1
f 100 101 104
s 1
f 102 105 101
s 1
f 102 107 106
s 1
f 104 107 103
s 1
f 101 108 104
s 1
f 106 109 105
s 1
f 106 111 110
s 1
f 108 111 107
s 1
f 108 109 112
s 1
f 109 114 113
s 1
f 110 115 114
s 1
f 112 115 111
s 1
f 109 116 112
s 1
f 113 118 117
s 1
f 114 119 118
s 1
f 115 120 119
s 1
f 116 117 120
s 1
f 117 122 121
s 1
f 118 123 122
s 1
f 120 123 119
s 1
f 117 124 120
s 1
f 122 125 121
s 1
f 123 126 122
s 1
f 123 128 127
s 1
f 124 125 128
s 1
f 125 130 129
s 1
f 127 130 126
s 1
f 127 132 131
s 1
f 128 129 132
s 1
f 129 134 133
s 1
f 131 134 130
s 1
f 131 136 135
s 1
f 129 136 132
s 1
f 133 138 137
s 1
f 135 138 134
s 1
f 136 139 135
s 1
f 136 137 140
s 1
f 137 142 141
s 1
f 138 143 142
s 1
f 140 143 139
s 1
f 137 144 140
s 1
f 141 146 145
s 1
f 142 147 146
s 1
f 144 147 143
s 1
f 141 148 144
s 1
f 146 149 145
s 1
f 147 150 146
s 1
f 147 152 151
s 1
f 148 149 152
s 1
f 150 153 149
s 1
f 151 154 150
s 1
f 151 156 155
s 1
f 152 153 156
s 1
f 154 157 153
s 1
f 155 158 154
s 1
f 155 160 159
s 1
f 156 157 160
s 1
f 157 162 161
s 1
f 158 163 162
s 1
f 160 163 159
s 1
f 160 161 164
s 1
f 162 165 161
s 1
f 162 167 166
s 1
f 164 167 163
s 1
f 164 165 168
s 1
f 165 170 169
s 1
f 167 170 166
s 1
f 168 171 167
s 1
f 165 172 168
s 1
f 170 173 169
s 1
f 171 174 170
s 1
f 171 176 175
s 1
f 172 173 176
s 1
f 174 177 173
s 1
f 175 178 174
s 1
f 176 179 175
s 1
f 176 177 180
s 1
f 178 181 177
s 1
f 179 182 178
s 1
f 179 184 183
s 1
f 180 181 184
s 1
f 181 186 185
s 1
f 183 186 182
s 1
f 183 188 187
s 1
f 181 188 184
s 1
f 185 190 189
s 1
f 187 190 186
s 1
f 187 192 191
s 1
f 188 189 192
s 1
f 190 193 189
s 1
f 191 194 190
s 1
f 191 196 195
s 1
f 192 193 196
s 1
f 197 2 1
s 1
f 197 3 2
s 1
f 197 4 3
s 1
f 197 1 4
s 1
f 193 194 198
s 1
f 194 195 198
s 1
f 195 196 198
s 1
f 196 193 198
s 1
f 199 204 203
s 1
f 200 205 204
s 1
f 202 205 201
s 1
f 199 206 202
s 1
f 204 207 203
s 1
f 204 209 208
s 1
f 206 209 205
s 1
f 206 207 210
s 1
f 207 212 211
s 1
f 208 213 212
s 1
f 210 213 209
s 1
f 207 214 210
s 1
f 212 215 211
s 1
f 213 216 212
s 1
f 213 218 217
s 1
f 214 215 218
s 1
f 216 219 215
s 1
f 216 221 220
s 1
f 218 221 217
s 1
f 215 222 218
s 1
f 219 224 223
s 1
f 221 224 220
s 1
f 222 225 221
s 1
f 222 223 226
s 1
f 223 228 227
s 1
f 224 229 228
s 1
f 225 230 229
s 1
f 226 227 230
s 1
f 227 232 231
s 1
f 228 233 232
s 1
f 230 233 229
s 1
f 227 234 230
s 1
f 231 236 235
s 1
f 233 236 232
s 1
f 233 238 237
s 1
f 231 238 234
s 1
f 236 239 235
s 1
f 236 241 240
s 1
f 237 242 241
s 1
f 238 239 242
s 1
f 239 244 243
s 1
f 240 245 244
s 1
f 242 245 241
s 1
f 239 246 242
s 1
f 244 247 243
s 1
f 245 248 244
s 1
f 245 250 249
s 1
f 246 247 250
s 1
f 247 252 251
s 1
f 248 253 252
s 1
f 250 253 249
s 1
f 247 254 250
s 1
f 252 255 251
s 1
f 253 256 252
s 1
f 253 258 257
s 1
f 254 255 258
s 1
f 255 260 259
s 1
f 257 260 256
s 1
f 258 261 257
s 1
f 255 262 258
s 1
f 260 263 259
s 1
f 260 265 264
s 1
f 262 265 261
s 1
f 262 263 266
s 1
f 264 267 263
s 1
f 265 268 264
s 1
f 265 270 269
s 1
f 266 267 270
s 1
f 268 271 267
s 1
f 269 272 268
s 1
f 270 273 269
s 1
f 267 274 270
s 1
f 272 275 271
s 1
f 272 277 276
s 1
f 274 277 273
s 1
f 274 275 278
s 1
f 275 280 279
s 1
f 276 281 280
s 1
f 277 282 281
s 1
f 275 282 278
s 1
f 279 284 283
s 1
f 280 285 284
s 1
f 282 285 281
s 1
f 279 286 282
s 1
f 284 287 283
s 1
f 285 288 284
s 1
f 285 290 289
s 1
f 286 287 290
s 1
f 287 292 291
s 1
f 289 292 288
s 1
f 289 294 293
s 1
f 287 294 290
s 1
f 292 295 291
s 1
f 293 296 292
s 1
f 293 298 297
s 1
f 294 295 298
s 1
f 295 300 299
s 1
f 296 301 300
s 1
f 298 301 297
s 1
f 295 302 298
s 1
f 300 303 299
s 1
f 300 305 304
s 1
f 302 305 301
s 1
f 302 303 306
s 1
f 303 308 307
s 1
f 304 309 308
s 1
f 306 309 305
s 1
f 303 310 306
s 1
f 308 311 307
s 1
f 309 312 308
s 1
f 309 314 313
s 1
f 310 311 314
s 1
f 312 315 311
s 1
f 312 317 316
s 1
f 314 317 313
s 1
f 311 318 314
s 1
f 315 320 319
s 1
f 317 320 316
s 1
f 318 321 317
s 1
f 318 319 322
s 1
f 319 324 323
s 1
f 320 325 324
s 1
f 321 326 325
s 1
f 322 323 326
s 1
f 323 328 327
s 1
f 324 329 328
s 1
f 326 329 325
s 1
f 323 330 326
s 1
f 327 332 331
s 1
f 329 332 328
s 1
f 329 334 333
s 1
f 327 334 330
s 1
f 332 335 331
s 1
f 332 337 336
s 1
f 333 338 337
s 1
f 334 335 338
s 1
f 335 340 339
s 1
f 336 341 340
s 1
f 338 341 337
s 1
f 335 342 338
s 1
f 340 343 339
s 1
f 341 344 340
s 1
f 341 346 345
s 1
f 342 343 346
s 1
f 343 348 347
s 1
f 344 349 348
s 1
f 346 349 345
s 1
f 343 350 346
s 1
f 348 351 347
s 1
f 349 352 348
s 1
f 349 354 353
s 1
f 350 351 354
s 1
f 351 356 355
s 1
f 353 356 352
s 1
f 354 357 353
s 1
f 351 358 354
s 1
f 356 359 355
s 1
f 356 361 360
s 1
f 358 361 357
s 1
f 358 359 362
s 1
f 360 363 359
s 1
f 361 364 360
s 1
f 361 366 365
s 1
f 362 363 366
s 1
f 364 367 363
s 1
f 365 368 364
s 1
f 366 369 365
s 1
f 363 370 366
s 1
f 368 371 367
s 1
f 368 373 372
s 1
f 370 373 369
s 1
f 370 371 374
s 1
f 371 376 375
s 1
f 372 377 376
s 1
f 373 378 377
s 1
f 371 378 374
s 1
f 375 380 379
s 1
f 376 381 380
s 1
f 378 381 377
s 1
f 375 382 378
s 1
f 380 383 379
s 1
f 381 384 380
s 1
f 381 386 385
s 1
f 382 383 386
s 1
f 383 388 387
s 1
f 385 388 384
s 1
f 385 390 389
s 1
f 383 390 386
s 1
f 388 391 387
s 1
f 389 392 388
s 1
f 389 394 393
s 1
f 390 391 394
s 1
f 395 200 199
s 1
f 395 201 200
s 1
f 395 202 201
s 1
f 395 199 202
s 1
f 391 392 396
s 1
f 392 393 396
s 1
f 393 394 396
s 1
f 394 391 396
s 1
f 397 402 401
s 1
f 398 403 402
s 1
f 400 403 399
s 1
f 397 404 400
s 1
f 402 405 401
s 1
f 402 407 406
s 1
f 403 408 407
s 1
f 401 408 404
s 1
f 406 409 405
s 1
f 406 411 410
s 1
f 407 412 411
s 1
f 408 409 412
s 1
f 410 413 409
s 1
f 411 414 410
s 1
f 411 416 415
s 1
f 412 413 416
s 1
f 413 418 417
s 1
f 415 418 414
s 1
f 415 420 419
s 1
f 413 420 416
s 1
f 417 422 421
s 1
f 418 423 422
s 1
f 420 423 419
s 1
f 417 424 420
s 1
f 422 425 421
s 1
f 423 426 422
s 1
f 424 427 423
s 1
f 424 425 428
s 1
f 425 430 429
s 1
f 427 430 426
s 1
f 427 432 431
s 1
f 428 429 432
s 1
f 430 433 429
s 1
f 431 434 430
s 1
f 431 436 435
s 1
f 432 433 436
s 1
f 434 437 433
s 1
f 434 439 438
s 1
f 436 439 435
s 1
f 436 437 440
s 1
f 438 441 437
s 1
f 439 442 438
s 1
f 440 443 439
s 1
f 437 444 440
s 1
f 442 445 441
s 1
f 442 447 446
s 1
f 444 447 443
s 1
f 444 445 448
s 1
f 445 450 449
s 1
f 447 450 446
s 1
f 447 452 451
s 1
f 445 452 448
s 1
f 449 454 453
s 1
f 450 455 454
s 1
f 451 456 455
s 1
f 452 453 456
s 1
f 453 458 457
s 1
f 454 459 458
s 1
f 455 460 459
s 1
f 453 460 456
s 1
f 457 462 461
s 1
f 458 463 462
s 1
f 460 463 459
s 1
f 460 461 464
s 1
f 462 465 461
s 1
f 462 467 466
s 1
f 464 467 463
s 1
f 461 468 464
s 1
f 465 470 469
s 1
f 466 471 470
s 1
f 467 472 471
s 1
f 465 472 468
s 1
f 470 473 469
s 1
f 471 474 470
s 1
f 471 476 475
s 1
f 472 473 476
s 1
f 474 477 473
s 1
f 474 479 478
s 1
f 476 479 475
s 1
f 476 477 480
s 1
f 477 482 481
s 1
f 479 482 478
s 1
f 480 483 479
s 1
f 477 484 480
s 1
f 481 486 485
s 1
f 483 486 482
s 1
f 484 487 483
s 1
f 481 488 484
s 1
f 485 490 489
s 1
f 487 490 486
s 1
f 488 491 487
s 1
f 488 489 492
s 1
f 489 494 493
s 1
f 491 494 490
s 1
f 491 496 495
s 1
f 489 496 492
s 1
f 494 497 493
s 1
f 494 499 498
s 1
f 496 499 495
s 1
f 496 497 500
s 1
f 498 501 497
s 1
f 498 503 502
s 1
f 499 504 503
s 1
f 497 504 500
s 1
f 502 505 501
s 1
f 502 507 506
s 1
f 503 508 507
s 1
f 504 505 508
s 1
f 506 509 505
s 1
f 507 510 506
s 1
f 507 512 511
s 1
f 508 509 512
s 1
f 509 514 513
s 1
f 511 514 510
s 1
f 511 516 515
s 1
f 509 516 512
s 1
f 513 518 517
s 1
f 514 519 518
s 1
f 516 519 515
s 1
f 513 520 516
s 1
f 518 521 517
s 1
f 519 522 518
s 1
f 520 523 519
s 1
f 520 521 524
s 1
f 521 526 525
s 1
f 523 526 522
s 1
f 523 528 527
s 1
f 524 525 528
s 1
f 526 529 525
s 1
f 527 530 526
s 1
f 527 532 531
s 1
f 528 529 532
s 1
f 530 533 529
s 1
f 530 535 534
s 1
f 532 535 531
s 1
f 532 533 536
s 1
f 534 537 533
s 1
f 535 538 534
s 1
f 536 539 535
s 1
f 533 540 536
s 1
f 538 541 537
s 1
f 538 543 542
s 1
f 540 543 539
s 1
f 540 541 544
s 1
f 541 546 545
s 1
f 543 546 542
s 1
f 543 548 547
s 1
f 541 548 544
s 1
f 545 550 549
s 1
f 546 551 550
s 1
f 547 552 551
s 1
f 548 549 552
s 1
f 549 554 553
s 1
f 550 555 554
s 1
f 551 556 555
s 1
f 549 556 552
s 1
f 553 558 557
s 1
f 554 559 558
s 1
f 556 559 555
s 1
f 556 557 560
s 1
f 558 561 557
s 1
f 558 563 562
s 1
f 560 563 559
s 1
f 557 564 560
s 1
f 561 566 565
s 1
f 562 567 566
s 1
f 563 568 567
s 1
f 561 568 564
s 1
f 566 569 565
s 1
f 567 570 566
s 1
f 567 572 571
s 1
f 568 569 572
s 1
f 570 573 569
s 1
f 570 575 574
s 1
f 572 575 571
s 1
f 572 573 576
s 1
f 573 578 577
s 1
f 575 578 574
s 1
f 576 579 575
s 1
f 573 580 576
s 1
f 577 582 581
s 1
f 579 582 578
s 1
f 580 583 579
s 1
f 577 584 580
s 1
f 581 586 585
s 1
f 583 586 582
s 1
f 584 587 583
s 1
f 584 585 588
s 1
f 586 589 585
s 1
f 587 590 586
s 1
f 587 592 591
s 1
f 588 589 592
s 1
f 593 398 397
s 1
f 593 399 398
s 1
f 593 400 399
s 1
f 593 397 400
s 1
f 589 590 594
s 1
f 590 591 594
s 1
f 591 592 594
s 1
f 592 589 594
s 1
f 595 600 599
s 1
f 596 601 600
s 1
f 598 601 597
s 1
f 595 602 598
s 1
f 599 604 603
s 1
f 601 604 600
s 1
f 601 606 605
s 1
f 602 603 606
s 1
f 603 608 607
s 1
f 605 608 604
s 1
f 606 609 605
s 1
f 603 610 606
s 1
f 607 612 611
s 1
f 608 613 612
s 1
f 610 613 609
s 1
f 607 614 610
s 1
f 611 616 615
s 1
f 612 617 616
s 1
f 614 617 613
s 1
f 611 618 614
s 1
f 615 620 619
s 1
f 616 621 620
s 1
f 617 622 621
s 1
f 618 619 622
s 1
f 620 623 619
s 1
f 620 625 624
s 1
f 622 625 621
s 1
f 619 626 622
s 1
f 624 627 623
s 1
f 624 629 628
s 1
f 625 630 629
s 1
f 626 627 630
s 1
f 628 631 627
s 1
f 628 633 632
s 1
f 629 634 633
s 1
f 630 631 634
s 1
f 632 635 631
s 1
f 633 636 632
s 1
f 633 638 637
s 1
f 631 638 634
s 1
f 635 640 639
s 1
f 637 640 636
s 1
f 637 642 641
s 1
f 635 642 638
s 1
f 640 643 639
s 1
f 641 644 640
s 1
f 641 646 645
s 1
f 642 643 646
s 1
f 643 648 647
s 1
f 644 649 648
s 1
f 646 649 645
s 1
f 643 650 646
s 1
f 648 651 647
s 1
f 648 653 652
s 1
f 650 653 649
s 1
f 647 654 650
s 1
f 651 656 655
s 1
f 652 657 656
s 1
f 653 658 657
s 1
f 654 655 658
s 1
f 655 660 659
s 1
f 657 660 656
s 1
f 658 661 657
s 1
f 658 659 662
s 1
f 660 663 659
s 1
f 661 664 660
s 1
f 662 665 661
s 1
f 659 666 662
s 1
f 663 668 667
s 1
f 665 668 664
s 1
f 665 670 669
s 1
f 666 667 670
s 1
f 668 671 667
s 1
f 669 672 668
s 1
f 670 673 669
s 1
f 667 674 670
s 1
f 672 675 671
s 1
f 673 676 672
s 1
f 673 678 677
s 1
f 674 675 678
s 1
f 676 679 675
s 1
f 677 680 676
s 1
f 677 682 681
s 1
f 678 679 682
s 1
f 680 683 679
s 1
f 680 685 684
s 1
f 682 685 681
s 1
f 682 683 686
s 1
f 684 687 683
s 1
f 684 689 688
s 1
f 686 689 685
s 1
f 686 687 690
s 1
f 687 692 691
s 1
f 688 693 692
s 1
f 690 693 689
s 1
f 687 694 690
s 1
f 692 695 691
s 1
f 693 696 692
s 1
f 693 698 697
s 1
f 694 695 698
s 1
f 695 700 699
s 1
f 697 700 696
s 1
f 697 702 701
s 1
f 698 699 702
s 1
f 699 704 703
s 1
f 701 704 700
s 1
f 702 705 701
s 1
f 699 706 702
s 1
f 703 708 707
s 1
f 704 709 708
s 1
f 706 709 705
s 1
f 703 710 706
s 1
f 707 712 711
s 1
f 708 713 712
s 1
f 710 713 709
s 1
f 707 714 710
s 1
f 711 716 715
s 1
f 712 717 716
s 1
f 713 718 717
s 1
f 714 715 718
s 1
f 716 719 715
s 1
f 716 721 720
s 1
f 718 721 717
s 1
f 715 722 718
s 1
f 720 723 719
s 1
f 720 725 724
s 1
f 721 726 725
s 1
f 722 723 726
s 1
f 724 727 723
s 1
f 724 729 728
s 1
f 725 730 729
s 1
f 726 727 730
s 1
f 728 731 727
s 1
f 729 732 728
s 1
f 729 734 733
s 1
f 727 734 730
s 1
f 731 736 735
s 1
f 733 736 732
s 1
f 733 738 737
s 1
f 731 738 734
s 1
f 736 739 735
s 1
f 737 740 736
s 1
f 737 742 741
s 1
f 738 739 742
s 1
f 739 744 743
s 1
f 740 745 744
s 1
f 742 745 741
s 1
f 739 746 742
s 1
f 744 747 743
s 1
f 744 749 748
s 1
f 746 749 745
s 1
f 743 750 746
s 1
f 747 752 751
s 1
f 748 753 752
s 1
f 749 754 753
s 1
f 750 751 754
s 1
f 751 756 755
s 1
f 753 756 752
s 1
f 754 757 753
s 1
f 754 755 758
s 1
f 756 759 755
s 1
f 757 760 756
s 1
f 758 761 757
s 1
f 755 762 758
s 1
f 759 764 763
s 1
f 761 764 760
s 1
f 761 766 765
s 1
f 762 763 766
s 1
f 764 767 763
s 1
f 765 768 764
s 1
f 766 769 765
s 1
f 763 770 766
s 1
f 768 771 767
s 1
f 769 772 768
s 1
f 769 774 773
s 1
f 770 771 774
s 1
f 772 775 771
s 1
f 773 776 772
s 1
f 773 778 777
s 1
f 774 775 778
s 1
f 776 779 775
s 1
f 776 781 780
s 1
f 778 781 777
s 1
f 778 779 782
s 1
f 780 783 779
s 1
f 780 785 784
s 1
f 782 785 781
s 1
f 782 783 786
s 1
f 784 787 783
s 1
f 785 788 784
s 1
f 785 790 789
s 1
f 786 787 790
s 1
f 791 596 595
s 1
f 791 597 596
s 1
f 791 598 597
s 1
f 791 595 598
s 1
f 787 788 792
s 1
f 788 789 792
s 1
f 789 790 792
s 1
f 790 787 792
s 1
f 793 798 797
s 1
f 794 799 798
s 1
f 796 799 795
s 1
f 793 800 796
s 1
f 798 801 797
s 1
f 799 802 798
s 1
f 800 803 799
s 1
f 800 801 804
s 1
f 801 806 805
s 1
f 803 806 802
s 1
f 803 808 807
s 1
f 801 808 804
s 1
f 806 809 805
s 1
f 806 811 810
s 1
f 808 811 807
s 1
f 805 812 808
s 1
f 810 813 809
s 1
f 810 815 814
s 1
f 812 815 811
s 1
f 812 813 816
s 1
f 814 817 813
s 1
f 815 818 814
s 1
f 815 820 819
s 1
f 816 817 820
s 1
f 818 821 817
s 1
f 818 823 822
s 1
f 820 823 819
s 1
f 820 821 824
s 1
f 822 825 821
s 1
f 823 826 822
s 1
f 824 827 823
s 1
f 821 828 824
s 1
f 825 830 829
s 1
f 827 830 826
s 1
f 828 831 827
s 1
f 828 829 832
s 1
f 830 833 829
s 1
f 830 835 834
s 1
f 831 836 835
s 1
f 832 833 836
s 1
f 833 838 837
s 1
f 835 838 834
s 1
f 835 840 839
s 1
f 833 840 836
s 1
f 838 841 837
s 1
f 839 842 838
s 1
f 839 844 843
s 1
f 840 841 844
s 1
f 841 846 845
s 1
f 842 847 846
s 1
f 844 847 843
s 1
f 841 848 844
s 1
f 846 849 845
s 1
f 846 851 850
s 1
f 848 851 847
s 1
f 848 849 852
s 1
f 849 854 853
s 1
f 851 854 850
s 1
f 852 855 851
s 1
f 849 856 852
s 1
f 854 857 853
s 1
f 854 859 858
s 1
f 855 860 859
s 1
f 853 860 856
s 1
f 858 861 857
s 1
f 858 863 862
s 1
f 859 864 863
s 1
f 857 864 860
s 1
f 861 866 865
s 1
f 863 866 862
s 1
f 863 868 867
s 1
f 861 868 864
s 1
f 866 869 865
s 1
f 866 871 870
s 1
f 868 871 867
s 1
f 868 869 872
s 1
f 869 874 873
s 1
f 871 874 870
s 1
f 872 875 871
s 1
f 869 876 872
s 1
f 874 877 873
s 1
f 875 878 874
s 1
f 876 879 875
s 1
f 876 877 880
s 1
f 878 881 877
s 1
f 878 883 882
s 1
f 880 883 879
s 1
f 880 881 884
s 1
f 881 886 885
s 1
f 882 887 886
s 1
f 883 888 887
s 1
f 881 888 884
s 1
f 885 890 889
s 1
f 886 891 890
s 1
f 888 891 887
s 1
f 885 892 888
s 1
f 890 893 889
s 1
f 891 894 890
s 1
f 891 896 895
s 1
f 892 893 896
s 1
f 894 897 893
s 1
f 895 898 894
s 1
f 896 899 895
s 1
f 896 897 900
s 1
f 897 902 901
s 1
f 899 902 898
s 1
f 899 904 903
s 1
f 897 904 900
s 1
f 902 905 901
s 1
f 902 907 906
s 1
f 904 907 903
s 1
f 901 908 904
s 1
f 906 909 905
s 1
f 906 911 910
s 1
f 908 911 907
s 1
f 908 909 912
s 1
f 910 913 909
s 1
f 911 914 910
s 1
f 911 916 915
s 1
f 912 913 916
s 1
f 914 917 913
s 1
f 914 919 918
s 1
f 916 919 915
s 1
f 916 917 920
s 1
f 918 921 917
s 1
f 919 922 918
s 1
f 920 923 919
s 1
f 917 924 920
s 1
f 921 926 925
s 1
f 923 926 922
s 1
f 924 927 923
s 1
f 924 925 928
s 1
f 926 929 925
s 1
f 926 931 930
s 1
f 927 932 931
s 1
f 928 929 932
s 1
f 929 934 933
s 1
f 931 934 930
s 1
f 931 936 935
s 1
f 929 936 932
s 1
f 934 937 933
s 1
f 935 938 934
s 1
f 935 940 939
s 1
f 936 937 940
s 1
f 937 942 941
s 1
f 938 943 942
s 1
f 940 943 939
s 1
f 937 944 940
s 1
f 942 945 941
s 1
f 942 947 946
s 1
f 944 947 943
s 1
f 944 945 948
s 1
f 945 950 949
s 1
f 947 950 946
s 1
f 948 951 947
s 1
f 945 952 948
s 1
f 950 953 949
s 1
f 950 955 954
s 1
f 951 956 955
s 1
f 949 956 952
s 1
f 954 957 953
s 1
f 954 959 958
s 1
f 955 960 959
s 1
f 953 960 956
s 1
f 957 962 961
s 1
f 959 962 958
s 1
f 959 964 963
s 1
f 957 964 960
s 1
f 962 965 961
s 1
f 962 967 966
s 1
f 964 967 963
s 1
f 964 965 968
s 1
f 965 970 969
s 1
f 967 970 966
s 1
f 968 971 967
s 1
f 965 972 968
s 1
f 970 973 969
s 1
f 971 974 970
s 1
f 972 975 971
s 1
f 972 973 976
s 1
f 974 977 973
s 1
f 974 979 978
s 1
f 976 979 975
s 1
f 976 977 980
s 1
f 977 982 981
s 1
f 978 983 982
s 1
f 979 984 983
s 1
f 977 984 980
s 1
f 982 985 981
s 1
f 983 986 982
s 1
f 983 988 987
s 1
f 984 985 988
s 1
f 989 794 793
s 1
f 989 795 794
s 1
f 989 796 795
s 1
f 989 793 796
s 1
f 985 986 990
s 1
f 986 987 990
s 1
f 987 988 990
s 1
f 988 985 990
s 1
f 1 2 6
s 1
f 2 3 7
s 1
f 4 8 7
s 1
f 1 5 8
s 1
f 6 10 9
s 1
f 6 7 11
s 1
f 8 12 11
s 1
f 5 9 12
s 1
f 10 14 13
s 1
f 10 11 15
s 1
f 12 16 15
s 1
f 12 9 13
s 1
f 13 14 18
s 1
f 14 15 19
s 1
f 16 20 19
s 1
f 13 17 20
s 1
f 17 18 22
s 1
f 18 19 23
s 1
f 19 20 24
s 1
f 20 17 21
s 1
f 21 22 26
s 1
f 22 23 27
s 1
f 24 28 27
s 1
f 21 25 28
s 1
f 26 30 29
s 1
f 27 31 30
s 1
f 27 28 32
s 1
f 28 25 29
s 1
f 29 30 34
s 1
f 31 35 34
s 1
f 31 32 36
s 1
f 32 29 33
s 1
f 33 34 38
s 1
f 35 39 38
s 1
f 35 36 40
s 1
f 33 37 40
s 1
f 37 38 42
s 1
f 39 43 42
s 1
f 40 44 43
s 1
f 40 37 41
s 1
f 41 42 46
s 1
f 42 43 47
s 1
f 44 48 47
s 1
f 41 45 48
s 1
f 45 46 50
s 1
f 46 47 51
s 1
f 48 52 51
s 1
f 45 49 52
s 1
f 50 54 53
s 1
f 51 55 54
s 1
f 51 52 56
s 1
f 52 49 53
s 1
f 54 58 57
s 1
f 55 59 58
s 1
f 55 56 60
s 1
f 56 53 57
s 1
f 58 62 61
s 1
f 59 63 62
s 1
f 59 60 64
s 1
f 60 57 61
s 1
f 61 62 66
s 1
f 62 63 67
s 1
f 64 68 67
s 1
f 64 61 65
s 1
f 66 70 69
s 1
f 66 67 71
s 1
f 68 72 71
s 1
f 68 65 69
s 1
f 69 70 74
s 1
f 71 75 74
s 1
f 72 76 75
s 1
f 69 73 76
s 1
f 74 78 77
s 1
f 75 79 78
s 1
f 75 76 80
s 1
f 76 73 77
s 1
f 78 82 81
s 1
f 79 83 82
s 1
f 80 84 83
s 1
f 80 77 81
s 1
f 82 86 85
s 1
f 83 87 86
s 1
f 83 84 88
s 1
f 84 81 85
s 1
f 85 86 90
s 1
f 87 91 90
s 1
f 87 88 92
s 1
f 85 89 92
s 1
f 89 90 94
s 1
f 91 95 94
s 1
f 91 92 96
s 1
f 92 89 93
s 1
f 93 94 98
s 1
f 94 95 99
s 1
f 96 100 99
s 1
f 93 97 100
s 1
f 98 102 101
s 1
f 99 103 102
s 1
f 99 100 104
s 1
f 100 97 101
s 1
f 102 106 105
s 1
f 102 103 107
s 1
f 104 108 107
s 1
f 101 105 108
s 1
f 106 110 109
s 1
f 106 107 111
s 1
f 108 112 111
s 1
f 108 105 109
s 1
f 109 110 114
s 1
f 110 111 115
s 1
f 112 116 115
s 1
f 109 113 116
s 1
f 113 114 118
s 1
f 114 115 119
s 1
f 115 116 120
s 1
f 116 113 117
s 1
f 117 118 122
s 1
f 118 119 123
s 1
f 120 124 123
s 1
f 117 121 124
s 1
f 122 126 125
s 1
f 123 127 126
s 1
f 123 124 128
s 1
f 124 121 125
s 1
f 125 126 130
s 1
f 127 131 130
s 1
f 127 128 132
s 1
f 128 125 129
s 1
f 129 130 134
s 1
f 131 135 134
s 1
f 131 132 136
s 1
f 129 133 136
s 1
f 133 134 138
s 1
f 135 139 138
s 1
f 136 140 139
s 1
f 136 133 137
s 1
f 137 138 142
s 1
f 138 139 143
s 1
f 140 144 143
s 1
f 137 141 144
s 1
f 141 142 146
s 1
f 142 143 147
s 1
f 144 148 147
s 1
f 141 145 148
s 1
f 146 150 149
s 1
f 147 151 150
s 1
f 147 148 152
s 1
f 148 145 149
s 1
f 150 154 153
s 1
f 151 155 154
s 1
f 151 152 156
s 1
f 152 149 153
s 1
f 154 158 157
s 1
f 155 159 158
s 1
f 155 156 160
s 1
f 156 153 157
s 1
f 157 158 162
s 1
f 158 159 163
s 1
f 160 164 163
s 1
f 160 157 161
s 1
f 162 166 165
s 1
f 162 163 167
s 1
f 164 168 167
s 1
f 164 161 165
s 1
f 165 166 170
s 1
f 167 171 170
s 1
f 168 172 171
s 1
f 165 169 172
s 1
f 170 174 173
s 1
f 171 175 174
s 1
f 171 172 176
s 1
f 172 169 173
s 1
f 174 178 177
s 1
f 175 179 178
s 1
f 176 180 179
s 1
f 176 173 177
s 1
f 178 182 181
s 1
f 179 183 182
s 1
f 179 180 184
s 1
f 180 177 181
s 1
f 181 182 186
s 1
f 183 187 186
s 1
f 183 184 188
s 1
f 181 185 188
s 1
f 185 186 190
s 1
f 187 191 190
s 1
f 187 188 192
s 1
f 188 185 189
s 1
f 190 194 193
s 1
f 191 195 194
s 1
f 191 192 196
s 1
f 192 189 193
s 1
f 199 200 204
s 1
f 200 201 205
s 1
f 202 206 205
s 1
f 199 203 206
s 1
f 204 208 207
s 1
f 204 205 209
s 1
f 206 210 209
s 1
f 206 203 207
s 1
f 207 208 212
s 1
f 208 209 213
s 1
f 210 214 213
s 1
f 207 211 214
s 1
f 212 216 215
s 1
f 213 217 216
s 1
f 213 214 218
s 1
f 214 211 215
s 1
f 216 220 219
s 1
f 216 217 221
s 1
f 218 222 221
s 1
f 215 219 222
s 1
f 219 220 224
s 1
f 221 225 224
s 1
f 222 226 225
s 1
f 222 219 223
s 1
f 223 224 228
s 1
f 224 225 229
s 1
f 225 226 230
s 1
f 226 223 227
s 1
f 227 228 232
s 1
f 228 229 233
s 1
f 230 234 233
s 1
f 227 231 234
s 1
f 231 232 236
s 1
f 233 237 236
s 1
f 233 234 238
s 1
f 231 235 238
s 1
f 236 240 239
s 1
f 236 237 241
s 1
f 237 238 242
s 1
f 238 235 239
s 1
f 239 240 244
s 1
f 240 241 245
s 1
f 242 246 245
s 1
f 239 243 246
s 1
f 244 248 247
s 1
f 245 249 248
s 1
f 245 246 250
s 1
f 246 243 247
s 1
f 247 248 252
s 1
f 248 249 253
s 1
f 250 254 253
s 1
f 247 251 254
s 1
f 252 256 255
s 1
f 253 257 256
s 1
f 253 254 258
s 1
f 254 251 255
s 1
f 255 256 260
s 1
f 257 261 260
s 1
f 258 262 261
s 1
f 255 259 262
s 1
f 260 264 263
s 1
f 260 261 265
s 1
f 262 266 265
s 1
f 262 259 263
s 1
f 264 268 267
s 1
f 265 269 268
s 1
f 265 266 270
s 1
f 266 263 267
s 1
f 268 272 271
s 1
f 269 273 272
s 1
f 270 274 273
s 1
f 267 271 274
s 1
f 272 276 275
s 1
f 272 273 277
s 1
f 274 278 277
s 1
f 274 271 275
s 1
f 275 276 280
s 1
f 276 277 281
s 1
f 277 278 282
s 1
f 275 279 282
s 1
f 279 280 284
s 1
f 280 281 285
s 1
f 282 286 285
s 1
f 279 283 286
s 1
f 284 288 287
s 1
f 285 289 288
s 1
f 285 286 290
s 1
f 286 283 287
s 1
f 287 288 292
s 1
f 289 293 292
s 1
f 289 290 294
s 1
f 287 291 294
s 1
f 292 296 295
s 1
f 293 297 296
s 1
f 293 294 298
s 1
f 294 291 295
s 1
f 295 296 300
s 1
f 296 297 301
s 1
f 298 302 301
s 1
f 295 299 302
s 1
f 300 304 303
s 1
f 300 301 305
s 1
f 302 306 305
s 1
f 302 299 303
s 1
f 303 304 308
s 1
f 304 305 309
s 1
f 306 310 309
s 1
f 303 307 310
s 1
f 308 312 311
s 1
f 309 313 312
s 1
f 309 310 314
s 1
f 310 307 311
s 1
f 312 316 315
s 1
f 312 313 317
s 1
f 314 318 317
s 1
f 311 315 318
s 1
f 315 316 320
s 1
f 317 321 320
s 1
f 318 322 321
s 1
f 318 315 319
s 1
f 319 320 324
s 1
f 320 321 325
s 1
f 321 322 326
s 1
f 322 319 323
s 1
f 323 324 328
s 1
f 324 325 329
s 1
f 326 330 329
s 1
f 323 327 330
s 1
f 327 328 332
s 1
f 329 333 332
s 1
f 329 330 334
s 1
f 327 331 334
s 1
f 332 336 335
s 1
f 332 333 337
s 1
f 333 334 338
s 1
f 334 331 335
s 1
f 335 336 340
s 1
f 336 337 341
s 1
f 338 342 341
s 1
f 335 339 342
s 1
f 340 344 343
s 1
f 341 345 344
s 1
f 341 342 346
s 1
f 342 339 343
s 1
f 343 344 348
s 1
f 344 345 349
s 1
f 346 350 349
s 1
f 343 347 350
s 1
f 348 352 351
s 1
f 349 353 352
s 1
f 349 350 354
s 1
f 350 347 351
s 1
f 351 352 356
s 1
f 353 357 356
s 1
f 354 358 357
s 1
f 351 355 358
s 1
f 356 360 359
s 1
f 356 357 361
s 1
f 358 362 361
s 1
f 358 355 359
s 1
f 360 364 363
s 1
f 361 365 364
s 1
f 361 362 366
s 1
f 362 359 363
s 1
f 364 368 367
s 1
f 365 369 368
s 1
f 366 370 369
s 1
f 363 367 370
s 1
f 368 372 371
s 1
f 368 369 373
s 1
f 370 374 373
s 1
f 370 367 371
s 1
f 371 372 376
s 1
f 372 373 377
s 1
f 373 374 378
s 1
f 371 375 378
s 1
f 375 376 380
s 1
f 376 377 381
s 1
f 378 382 381
s 1
f 375 379 382
s 1
f 380 384 383
s 1
f 381 385 384
s 1
f 381 382 386
s 1
f 382 379 383
s 1
f 383 384 388
s 1
f 385 389 388
s 1
f 385 386 390
s 1
f 383 387 390
s 1
f 388 392 391
s 1
f 389 393 392
s 1
f 389 390 394
s 1
f 390 387 391
s 1
f 397 398 402
s 1
f 398 399 403
s 1
f 400 404 403
s 1
f 397 401 404
s 1
f 402 406 405
s 1
f 402 403 407
s 1
f 403 404 408
s 1
f 401 405 408
s 1
f 406 410 409
s 1
f 406 407 411
s 1
f 407 408 412
s 1
f 408 405 409
s 1
f 410 414 413
s 1
f 411 415 414
s 1
f 411 412 416
s 1
f 412 409 413
s 1
f 413 414 418
s 1
f 415 419 418
s 1
f 415 416 420
s 1
f 413 417 420
s 1
f 417 418 422
s 1
f 418 419 423
s 1
f 420 424 423
s 1
f 417 421 424
s 1
f 422 426 425
s 1
f 423 427 426
s 1
f 424 428 427
s 1
f 424 421 425
s 1
f 425 426 430
s 1
f 427 431 430
s 1
f 427 428 432
s 1
f 428 425 429
s 1
f 430 434 433
s 1
f 431 435 434
s 1
f 431 432 436
s 1
f 432 429 433
s 1
f 434 438 437
s 1
f 434 435 439
s 1
f 436 440 439
s 1
f 436 433 437
s 1
f 438 442 441
s 1
f 439 443 442
s 1
f 440 444 443
s 1
f 437 441 444
s 1
f 442 446 445
s 1
f 442 443 447
s 1
f 444 448 447
s 1
f 444 441 445
s 1
f 445 446 450
s 1
f 447 451 450
s 1
f 447 448 452
s 1
f 445 449 452
s 1
f 449 450 454
s 1
f 450 451 455
s 1
f 451 452 456
s 1
f 452 449 453
s 1
f 453 454 458
s 1
f 454 455 459
s 1
f 455 456 460
s 1
f 453 457 460
s 1
f 457 458 462
s 1
f 458 459 463
s 1
f 460 464 463
s 1
f 460 457 461
s 1
f 462 466 465
s 1
f 462 463 467
s 1
f 464 468 467
s 1
f 461 465 468
s 1
f 465 466 470
s 1
f 466 467 471
s 1
f 467 468 472
s 1
f 465 469 472
s 1
f 470 474 473
s 1
f 471 475 474
s 1
f 471 472 476
s 1
f 472 469 473
s 1
f 474 478 477
s 1
f 474 475 479
s 1
f 476 480 479
s 1
f 476 473 477
s 1
f 477 478 482
s 1
f 479 483 482
s 1
f 480 484 483
s 1
f 477 481 484
s 1
f 481 482 486
s 1
f 483 487 486
s 1
f 484 488 487
s 1
f 481 485 488
s 1
f 485 486 490
s 1
f 487 491 490
s 1
f 488 492 491
s 1
f 488 485 489
s 1
f 489 490 494
s 1
f 491 495 494
s 1
f 491 492 496
s 1
f 489 493 496
s 1
f 494 498 497
s 1
f 494 495 499
s 1
f 496 500 499
s 1
f 496 493 497
s 1
f 498 502 501
s 1
f 498 499 503
s 1
f 499 500 504
s 1
f 497 501 504
s 1
f 502 506 505
s 1
f 502 503 507
s 1
f 503 504 508
s 1
f 504 501 505
s 1
f 506 510 509
s 1
f 507 511 510
s 1
f 507 508 512
s 1
f 508 505 509
s 1
f 509 510 514
s 1
f 511 515 514
s 1
f 511 512 516
s 1
f 509 513 516
s 1
f 513 514 518
s 1
f 514 515 519
s 1
f 516 520 519
s 1
f 513 517 520
s 1
f 518 522 521
s 1
f 519 523 522
s 1
f 520 524 523
s 1
f 520 517 521
s 1
f 521 522 526
s 1
f 523 527 526
s 1
f 523 524 528
s 1
f 524 521 525
s 1
f 526 530 529
s 1
f 527 531 530
s 1
f 527 528 532
s 1
f 528 525 529
s 1
f 530 534 533
s 1
f 530 531 535
s 1
f 532 536 535
s 1
f 532 529 533
s 1
f 534 538 537
s 1
f 535 539 538
s 1
f 536 540 539
s 1
f 533 537 540
s 1
f 538 542 541
s 1
f 538 539 543
s 1
f 540 544 543
s 1
f 540 537 541
s 1
f 541 542 546
s 1
f 543 547 546
s 1
f 543 544 548
s 1
f 541 545 548
s 1
f 545 546 550
s 1
f 546 547 551
s 1
f 547 548 552
s 1
f 548 545 549
s 1
f 549 550 554
s 1
f 550 551 555
s 1
f 551 552 556
s 1
f 549 553 556
s 1
f 553 554 558
s 1
f 554 555 559
s 1
f 556 560 559
s 1
f 556 553 557
s 1
f 558 562 561
s 1
f 558 559 563
s 1
f 560 564 563
s 1
f 557 561 564
s 1
f 561 562 566
s 1
f 562 563 567
s 1
f 563 564 568
s 1
f 561 565 568
s 1
f 566 570 569
s 1
f 567 571 570
s 1
f 567 568 572
s 1
f 568 565 569
s 1
f 570 574 573
s 1
f 570 571 575
s 1
f 572 576 575
s 1
f 572 569 573
s 1
f 573 574 578
s 1
f 575 579 578
s 1
f 576 580 579
s 1
f 573 577 580
s 1
f 577 578 582
s 1
f 579 583 582
s 1
f 580 584 583
s 1
f 577 581 584
s 1
f 581 582 586
s 1
f 583 587 586
s 1
f 584 588 587
s 1
f 584 581 585
s 1
f 586 590 589
s 1
f 587 591 590
s 1
f 587 588 592
s 1
f 588 585 589
s 1
f 595 596 600
s 1
f 596 597 601
s 1
f 598 602 601
s 1
f 595 599 602
s 1
f 599 600 604
s 1
f 601 605 604
s 1
f 601 602 606
s 1
f 602 599 603
s 1
f 603 604 608
s 1
f 605 609 608
s 1
f 606 610 609
s 1
f 603 607 610
s 1
f 607 608 612
s 1
f 608 609 613
s 1
f 610 614 613
s 1
f 607 611 614
s 1
f 611 612 616
s 1
f 612 613 617
s 1
f 614 618 617
s 1
f 611 615 618
s 1
f 615 616 620
s 1
f 616 617 621
s 1
f 617 618 622
s 1
f 618 615 619
s 1
f 620 624 623
s 1
f 620 621 625
s 1
f 622 626 625
s 1
f 619 623 626
s 1
f 624 628 627
s 1
f 624 625 629
s 1
f 625 626 630
s 1
f 626 623 627
s 1
f 628 632 631
s 1
f 628 629 633
s 1
f 629 630 634
s 1
f 630 627 631
s 1
f 632 636 635
s 1
f 633 637 636
s 1
f 633 634 638
s 1
f 631 635 638
s 1
f 635 636 640
s 1
f 637 641 640
s 1
f 637 638 642
s 1
f 635 639 642
s 1
f 640 644 643
s 1
f 641 645 644
s 1
f 641 642 646
s 1
f 642 639 643
s 1
f 643 644 648
s 1
f 644 645 649
s 1
f 646 650 649
s 1
f 643 647 650
s 1
f 648 652 651
s 1
f 648 649 653
s 1
f 650 654 653
s 1
f 647 651 654
s 1
f 651 652 656
s 1
f 652 653 657
s 1
f 653 654 658
s 1
f 654 651 655
s 1
f 655 656 660
s 1
f 657 661 660
s 1
f 658 662 661
s 1
f 658 655 659
s 1
f 660 664 663
s 1
f 661 665 664
s 1
f 662 666 665
s 1
f 659 663 666
s 1
f 663 664 668
s 1
f 665 669 668
s 1
f 665 666 670
s 1
f 666 663 667
s 1
f 668 672 671
s 1
f 669 673 672
s 1
f 670 674 673
s 1
f 667 671 674
s 1
f 672 676 675
s 1
f 673 677 676
s 1
f 673 674 678
s 1
f 674 671 675
s 1
f 676 680 679
s 1
f 677 681 680
s 1
f 677 678 682
s 1
f 678 675 679
s 1
f 680 684 683
s 1
f 680 681 685
s 1
f 682 686 685
s 1
f 682 679 683
s 1
f 684 688 687
s 1
f 684 685 689
s 1
f 686 690 689
s 1
f 686 683 687
s 1
f 687 688 692
s 1
f 688 689 693
s 1
f 690 694 693
s 1
f 687 691 694
s 1
f 692 696 695
s 1
f 693 697 696
s 1
f 693 694 698
s 1
f 694 691 695
s 1
f 695 696 700
s 1
f 697 701 700
s 1
f 697 698 702
s 1
f 698 695 699
s 1
f 699 700 704
s 1
f 701 705 704
s 1
f 702 706 705
s 1
f 699 703 706
s 1
f 703 704 708
s 1
f 704 705 709
s 1
f 706 710 709
s 1
f 703 707 710
s 1
f 707 708 712
s 1
f 708 709 713
s 1
f 710 714 713
s 1
f 707 711 714
s 1
f 711 712 716
s 1
f 712 713 717
s 1
f 713 714 718
s 1
f 714 711 715
s 1
f 716 720 719
s 1
f 716 717 721
s 1
f 718 722 721
s 1
f 715 719 722
s 1
f 720 724 723
s 1
f 720 721 725
s 1
f 721 722 726
s 1
f 722 719 723
s 1
f 724 728 727
s 1
f 724 725 729
s 1
f 725 726 730
s 1
f 726 723 727
s 1
f 728 732 731
s 1
f 729 733 732
s 1
f 729 730 734
s 1
f 727 731 734
s 1
f 731 732 736
s 1
f 733 737 736
s 1
f 733 734 738
s 1
f 731 735 738
s 1
f 736 740 739
s 1
f 737 741 740
s 1
f 737 738 742
s 1
f 738 735 739
s 1
f 739 740 744
s 1
f 740 741 745
s 1
f 742 746 745
s 1
f 739 743 746
s 1
f 744 748 747
s 1
f 744 745 749
s 1
f 746 750 749
s 1
f 743 747 750
s 1
f 747 748 752
s 1
f 748 749 753
s 1
f 749 750 754
s 1
f 750 747 751
s 1
f 751 752 756
s 1
f 753 757 756
s 1
f 754 758 757
s 1
f 754 751 755
s 1
f 756 760 759
s 1
f 757 761 760
s 1
f 758 762 761
s 1
f 755 759 762
s 1
f 759 760 764
s 1
f 761 765 764
s 1
f 761 762 766
s 1
f 762 759 763
s 1
f 764 768 767
s 1
f 765 769 768
s 1
f 766 770 769
s 1
f 763 767 770
s 1
f 768 772 771
s 1
f 769 773 772
s 1
f 769 770 774
s 1
f 770 767 771
s 1
f 772 776 775
s 1
f 773 777 776
s 1
f 773 774 778
s 1
f 774 771 775
s 1
f 776 780 779
s 1
f 776 777 781
s 1
f 778 782 781
s 1
f 778 775 779
s 1
f 780 784 783
s 1
f 780 781 785
s 1
f 782 786 785
s 1
f 782 779 783
s 1
f 784 788 787
s 1
f 785 789 788
s 1
f 785 786 790
s 1
f 786 783 787
s 1
f 793 794 798
s 1
f 794 795 799
s 1
f 796 800 799
s 1
f 793 797 800
s 1
f 798 802 801
s 1
f 799 803 802
s 1
f 800 804 803
s 1
f 800 797 801
s 1
f 801 802 806
s 1
f 803 807 806
s 1
f 803 804 808
s 1
f 801 805 808
s 1
f 806 810 809
s 1
f 806 807 811
s 1
f 808 812 811
s 1
f 805 809 812
s 1
f 810 814 813
s 1
f 810 811 815
s 1
f 812 816 815
s 1
f 812 809 813
s 1
f 814 818 817
s 1
f 815 819 818
s 1
f 815 816 820
s 1
f 816 813 817
s 1
f 818 822 821
s 1
f 818 819 823
s 1
f 820 824 823
s 1
f 820 817 821
s 1
f 822 826 825
s 1
f 823 827 826
s 1
f 824 828 827
s 1
f 821 825 828
s 1
f 825 826 830
s 1
f 827 831 830
s 1
f 828 832 831
s 1
f 828 825 829
s 1
f 830 834 833
s 1
f 830 831 835
s 1
f 831 832 836
s 1
f 832 829 833
s 1
f 833 834 838
s 1
f 835 839 838
s 1
f 835 836 840
s 1
f 833 837 840
s 1
f 838 842 841
s 1
f 839 843 842
s 1
f 839 840 844
s 1
f 840 837 841
s 1
f 841 842 846
s 1
f 842 843 847
s 1
f 844 848 847
s 1
f 841 845 848
s 1
f 846 850 849
s 1
f 846 847 851
s 1
f 848 852 851
s 1
f 848 845 849
s 1
f 849 850 854
s 1
f 851 855 854
s 1
f 852 856 855
s 1
f 849 853 856
s 1
f 854 858 857
s 1
f 854 855 859
s 1
f 855 856 860
s 1
f 853 857 860
s 1
f 858 862 861
s 1
f 858 859 863
s 1
f 859 860 864
s 1
f 857 861 864
s 1
f 861 862 866
s 1
f 863 867 866
s 1
f 863 864 868
s 1
f 861 865 868
s 1
f 866 870 869
s 1
f 866 867 871
s 1
f 868 872 871
s 1
f 868 865 869
s 1
f 869 870 874
s 1
f 871 875 874
s 1
f 872 876 875
s 1
f 869 873 876
s 1
f 874 878 877
s 1
f 875 879 878
s 1
f 876 880 879
s 1
f 876 873 877
s 1
f 878 882 881
s 1
f 878 879 883
s 1
f 880 884 883
s 1
f 880 877 881
s 1
f 881 882 886
s 1
f 882 883 887
s 1
f 883 884 888
s 1
f 881 885 888
s 1
f 885 886 890
s 1
f 886 887 891
s 1
f 888 892 891
s 1
f 885 889 892
s 1
f 890 894 893
s 1
f 891 895 894
s 1
f 891 892 896
s 1
f 892 889 893
s 1
f 894 898 897
s 1
f 895 899 898
s 1
f 896 900 899
s 1
f 896 893 897
s 1
f 897 898 902
s 1
f 899 903 902
s 1
f 899 900 904
s 1
f 897 901 904
s 1
f 902 906 905
s 1
f 902 903 907
s 1
f 904 908 907
s 1
f 901 905 908
s 1
f 906 910 909
s 1
f 906 907 911
s 1
f 908 912 911
s 1
f 908 905 909
s 1
f 910 914 913
s 1
f 911 915 914
s 1
f 911 912 916
s 1
f 912 909 913
s 1
f 914 918 917
s 1
f 914 915 919
s 1
f 916 920 919
s 1
f 916 913 917
s 1
f 918 922 921
s 1
f 919 923 922
s 1
f 920 924 923
s 1
f 917 921 924
s 1
f 921 922 926
s 1
f 923 927 926
s 1
f 924 928 927
s 1
f 924 921 925
s 1
f 926 930 929
s 1
f 926 927 931
s 1
f 927 928 932
s 1
f 928 925 929
s 1
f 929 930 934
s 1
f 931 935 934
s 1
f 931 932 936
s 1
f 929 933 936
s 1
f 934 938 937
s 1
f 935 939 938
s 1
f 935 936 940
s 1
f 936 933 937
s 1
f 937 938 942
s 1
f 938 939 943
s 1
f 940 944 943
s 1
f 937 941 944
s 1
f 942 946 945
s 1
f 942 943 947
s 1
f 944 948 947
s 1
f 944 941 945
s 1
f 945 946 950
s 1
f 947 951 950
s 1
f 948 952 951
s 1
f 945 949 952
s 1
f 950 954 953
s 1
f 950 951 955
s 1
f 951 952 956
s 1
f 949 953 956
s 1
f 954 958 957
s 1
f 954 955 959
s 1
f 955 956 960
s 1
f 953 957 960
s 1
f 957 958 962
s 1
f 959 963 962
s 1
f 959 960 964
s 1
f 957 961 964
s 1
f 962 966 965
s 1
f 962 963 967
s 1
f 964 968 967
s 1
f 964 961 965
s 1
f 965 966 970
s 1
f 967 971 970
s 1
f 968 972 971
s 1
f 965 969 972
s 1
f 970 974 973
s 1
f 971 975 974
s 1
f 972 976 975
s 1
f 972 969 973
s 1
f 974 978 977
s 1
f 974 975 979
s 1
f 976 980 979
s 1
f 976 973 977
s 1
f 977 978 982
s 1
f 978 979 983
s 1
f 979 980 984
s 1
f 977 981 984
s 1
f 982 986 985
s 1
f 983 987 986
s 1
f 983 984 988
s 1
f 984 981 985
