# beta Elevation_Blue.obj: Roblox cue frame, recentred on its bounding box
v 0.35961 -0.25180 -0.55100
v 0.37493 -0.24910 -0.55100
v 0.37763 -0.26442 -0.55100
v 0.36231 -0.26712 -0.55100
v 0.36048 -0.25241 -0.94529
v 0.37493 -0.24910 -0.95000
v 0.37676 -0.26381 -0.95471
v 0.36231 -0.26712 -0.95000
v 0.21380 -0.14970 -0.93900
v 0.22011 -0.14069 -0.95000
v 0.21380 -0.14970 -0.96100
v 0.20749 -0.15871 -0.95000
v 0.36862 -0.25811 -0.55100
v 0.21380 -0.14970 -0.95000
v -0.37763 0.26442 -0.55100
v -0.36231 0.26712 -0.55100
v -0.35961 0.25180 -0.55100
v -0.37493 0.24910 -0.55100
v -0.37676 0.26381 -0.95471
v -0.36231 0.26712 -0.95000
v -0.36048 0.25241 -0.94529
v -0.37493 0.24910 -0.95000
v -0.21380 0.14970 -0.96100
v -0.20749 0.15871 -0.95000
v -0.21380 0.14970 -0.93900
v -0.22011 0.14069 -0.95000
v -0.36862 0.25811 -0.55100
v -0.21380 0.14970 -0.95000
v 0.35961 -0.25180 0.55100
v 0.36231 -0.26712 0.55100
v 0.37763 -0.26442 0.55100
v 0.37493 -0.24910 0.55100
v 0.36048 -0.25241 0.94529
v 0.36231 -0.26712 0.95000
v 0.37676 -0.26381 0.95471
v 0.37493 -0.24910 0.95000
v 0.21380 -0.14970 0.93900
v 0.20749 -0.15871 0.95000
v 0.21380 -0.14970 0.96100
v 0.22011 -0.14069 0.95000
v 0.36862 -0.25811 0.55100
v 0.21380 -0.14970 0.95000
v -0.37763 0.26442 0.55100
v -0.37493 0.24910 0.55100
v -0.35961 0.25180 0.55100
v -0.36231 0.26712 0.55100
v -0.37676 0.26381 0.95471
v -0.37493 0.24910 0.95000
v -0.36048 0.25241 0.94529
v -0.36231 0.26712 0.95000
v -0.21380 0.14970 0.96100
v -0.22011 0.14069 0.95000
v -0.21380 0.14970 0.93900
v -0.20749 0.15871 0.95000
v -0.36862 0.25811 0.55100
v -0.21380 0.14970 0.95000
v 0.30554 -0.21394 -0.80750
v 0.30677 -0.22091 -0.80750
v 0.31374 -0.21968 -0.80750
v 0.31251 -0.21272 -0.80750
v 0.30554 -0.21394 0.42750
v 0.30677 -0.22091 0.42750
v 0.31374 -0.21968 0.42750
v 0.31251 -0.21272 0.42750
v 0.30964 -0.21681 -0.80750
v 0.30964 -0.21681 0.42750
v 0.28465 -0.20542 -0.76000
v 0.28752 -0.20133 -0.75500
v 0.29039 -0.19723 -0.76000
v 0.28752 -0.20133 -0.76500
v 0.23673 -0.17187 -0.76000
v 0.23960 -0.16777 -0.75500
v 0.24247 -0.16368 -0.76000
v 0.23960 -0.16777 -0.76500
v 0.28752 -0.20133 -0.76000
v 0.23960 -0.16777 -0.76000
v 0.28465 -0.20542 -0.61750
v 0.28752 -0.20133 -0.61250
v 0.29039 -0.19723 -0.61750
v 0.28752 -0.20133 -0.62250
v 0.25517 -0.18477 -0.61750
v 0.25803 -0.18068 -0.61250
v 0.26090 -0.17658 -0.61750
v 0.25803 -0.18068 -0.62250
v 0.28752 -0.20133 -0.61750
v 0.25803 -0.18068 -0.61750
v 0.28465 -0.20542 -0.47500
v 0.28752 -0.20133 -0.47000
v 0.29039 -0.19723 -0.47500
v 0.28752 -0.20133 -0.48000
v 0.23673 -0.17187 -0.47500
v 0.23960 -0.16777 -0.47000
v 0.24247 -0.16368 -0.47500
v 0.23960 -0.16777 -0.48000
v 0.28752 -0.20133 -0.47500
v 0.23960 -0.16777 -0.47500
v 0.28465 -0.20542 -0.33250
v 0.28752 -0.20133 -0.32750
v 0.29039 -0.19723 -0.33250
v 0.28752 -0.20133 -0.33750
v 0.25517 -0.18477 -0.33250
v 0.25803 -0.18068 -0.32750
v 0.26090 -0.17658 -0.33250
v 0.25803 -0.18068 -0.33750
v 0.28752 -0.20133 -0.33250
v 0.25803 -0.18068 -0.33250
v 0.28465 -0.20542 -0.19000
v 0.28752 -0.20133 -0.18500
v 0.29039 -0.19723 -0.19000
v 0.28752 -0.20133 -0.19500
v 0.23673 -0.17187 -0.19000
v 0.23960 -0.16777 -0.18500
v 0.24247 -0.16368 -0.19000
v 0.23960 -0.16777 -0.19500
v 0.28752 -0.20133 -0.19000
v 0.23960 -0.16777 -0.19000
v 0.28465 -0.20542 -0.04750
v 0.28752 -0.20133 -0.04250
v 0.29039 -0.19723 -0.04750
v 0.28752 -0.20133 -0.05250
v 0.25517 -0.18477 -0.04750
v 0.25803 -0.18068 -0.04250
v 0.26090 -0.17658 -0.04750
v 0.25803 -0.18068 -0.05250
v 0.28752 -0.20133 -0.04750
v 0.25803 -0.18068 -0.04750
v 0.28465 -0.20542 0.09500
v 0.28752 -0.20133 0.10000
v 0.29039 -0.19723 0.09500
v 0.28752 -0.20133 0.09000
v 0.23673 -0.17187 0.09500
v 0.23960 -0.16777 0.10000
v 0.24247 -0.16368 0.09500
v 0.23960 -0.16777 0.09000
v 0.28752 -0.20133 0.09500
v 0.23960 -0.16777 0.09500
v 0.28465 -0.20542 0.23750
v 0.28752 -0.20133 0.24250
v 0.29039 -0.19723 0.23750
v 0.28752 -0.20133 0.23250
v 0.25517 -0.18477 0.23750
v 0.25803 -0.18068 0.24250
v 0.26090 -0.17658 0.23750
v 0.25803 -0.18068 0.23250
v 0.28752 -0.20133 0.23750
v 0.25803 -0.18068 0.23750
v 0.01394 -0.00976 -0.77851
v 0.01638 -0.02368 -0.77900
v 0.03030 -0.02122 -0.77949
v 0.02785 -0.00730 -0.77900
v 0.07291 -0.05105 0.68441
v 0.07536 -0.06498 0.68400
v 0.08928 -0.06251 0.68359
v 0.08683 -0.04859 0.68400
v 0.07136 -0.04997 0.73143
v 0.06799 -0.05981 0.74100
v 0.07609 -0.05328 0.75057
v 0.07946 -0.04343 0.74100
v -0.07136 0.04997 0.73143
v -0.07946 0.04343 0.74100
v -0.07609 0.05328 0.75057
v -0.06799 0.05981 0.74100
v -0.07291 0.05105 0.68441
v -0.08683 0.04859 0.68400
v -0.08928 0.06251 0.68359
v -0.07536 0.06498 0.68400
v -0.01396 0.00977 -0.77814
v -0.02785 0.00730 -0.77900
v -0.03028 0.02120 -0.77986
v -0.01638 0.02368 -0.77900
v 0.02212 -0.01549 -0.76900
v 0.01638 -0.02368 -0.77900
v 0.02212 -0.01549 -0.78900
v 0.02785 -0.00730 -0.77900
v 0.02212 -0.01549 -0.77900
v 0.02212 -0.01549 -0.77900
v -0.00410 0.00287 -0.83600
v -0.00287 -0.00410 -0.83600
v 0.00410 -0.00287 -0.83600
v 0.00287 0.00410 -0.83600
v -0.00410 0.00287 0.85500
v -0.00287 -0.00410 0.85500
v 0.00410 -0.00287 0.85500
v 0.00287 0.00410 0.85500
v 0.00000 -0.00000 -0.83600
v 0.00000 -0.00000 0.85500
v 0.10346 -0.07977 -0.45600
v 0.10690 -0.07485 -0.45000
v 0.11034 -0.06994 -0.45600
v 0.10690 -0.07485 -0.46200
v -0.11034 0.06994 -0.45600
v -0.10690 0.07485 -0.45000
v -0.10346 0.07977 -0.45600
v -0.10690 0.07485 -0.46200
v 0.10690 -0.07485 -0.45600
v -0.10690 0.07485 -0.45600
v 0.10346 -0.07977 -0.09500
v 0.10690 -0.07485 -0.08900
v 0.11034 -0.06994 -0.09500
v 0.10690 -0.07485 -0.10100
v -0.11034 0.06994 -0.09500
v -0.10690 0.07485 -0.08900
v -0.10346 0.07977 -0.09500
v -0.10690 0.07485 -0.10100
v 0.10690 -0.07485 -0.09500
v -0.10690 0.07485 -0.09500
v 0.10346 -0.07977 0.33250
v 0.10690 -0.07485 0.33850
v 0.11034 -0.06994 0.33250
v 0.10690 -0.07485 0.32650
v -0.11034 0.06994 0.33250
v -0.10690 0.07485 0.33850
v -0.10346 0.07977 0.33250
v -0.10690 0.07485 0.32650
v 0.10690 -0.07485 0.33250
v -0.10690 0.07485 0.33250
v 0.10346 -0.07977 0.57950
v 0.10690 -0.07485 0.58550
v 0.11034 -0.06994 0.57950
v 0.10690 -0.07485 0.57350
v -0.11034 0.06994 0.57950
v -0.10690 0.07485 0.58550
v -0.10346 0.07977 0.57950
v -0.10690 0.07485 0.57350
v 0.10690 -0.07485 0.57950
v -0.10690 0.07485 0.57950
v -0.21953 0.15372 -0.68400
v -0.21781 0.14397 -0.68400
v -0.20806 0.14569 -0.68400
v -0.20978 0.15544 -0.68400
v -0.21953 0.15372 0.64600
v -0.21781 0.14397 0.64600
v -0.20806 0.14569 0.64600
v -0.20978 0.15544 0.64600
v -0.21380 0.14970 -0.68400
v -0.21380 0.14970 0.64600
v -0.18916 0.13245 -0.74474
v -0.18832 0.12332 -0.74100
v -0.17946 0.12566 -0.73726
v -0.18029 0.13479 -0.74100
v -0.21380 0.14970 -0.69100
v -0.21781 0.14397 -0.68400
v -0.21380 0.14970 -0.67700
v -0.20978 0.15544 -0.68400
v -0.23844 0.16696 -0.74474
v -0.24730 0.16462 -0.74100
v -0.24814 0.17375 -0.73726
v -0.23927 0.17609 -0.74100
v -0.18431 0.12905 -0.74100
v -0.24329 0.17035 -0.74100
v -0.18916 0.13245 0.58526
v -0.18832 0.12332 0.58900
v -0.17946 0.12566 0.59274
v -0.18029 0.13479 0.58900
v -0.21380 0.14970 0.63900
v -0.21781 0.14397 0.64600
v -0.21380 0.14970 0.65300
v -0.20978 0.15544 0.64600
v -0.23844 0.16696 0.58526
v -0.24730 0.16462 0.58900
v -0.24814 0.17375 0.59274
v -0.23927 0.17609 0.58900
v -0.18431 0.12905 0.58900
v -0.24329 0.17035 0.58900
s 1
f 2 5 1
s 1
f 3 6 2
s 1
f 3 8 7
s 1
f 4 5 8
s 1
f 5 10 9
s 1
f 6 11 10
s 1
f 8 11 7
s 1
f 5 12 8
s 1
f 13 2 1
s 1
f 13 3 2
s 1
f 13 4 3
s 1
f 13 1 4
s 1
f 9 10 14
s 1
f 10 11 14
s 1
f 11 12 14
s 1
f 12 9 14
s 1
f 15 20 19
s 1
f 16 21 20
s 1
f 18 21 17
s 1
f 15 22 18
s 1
f 20 23 19
s 1
f 21 24 20
s 1
f 21 26 25
s 1
f 22 23 26
s 1
f 27 16 15
s 1
f 27 17 16
s 1
f 27 18 17
s 1
f 27 15 18
s 1
f 23 24 28
s 1
f 24 25 28
s 1
f 25 26 28
s 1
f 26 23 28
s 1
f 30 33 29
s 1
f 31 34 30
s 1
f 31 36 35
s 1
f 32 33 36
s 1
f 33 38 37
s 1
f 34 39 38
s 1
f 36 39 35
s 1
f 33 40 36
s 1
f 41 30 29
s 1
f 41 31 30
s 1
f 41 32 31
s 1
f 41 29 32
s 1
f 37 38 42
s 1
f 38 39 42
s 1
f 39 40 42
s 1
f 40 37 42
s 1
f 43 48 47
s 1
f 44 49 48
s 1
f 46 49 45
s 1
f 43 50 46
s 1
f 48 51 47
s 1
f 49 52 48
s 1
f 49 54 53
s 1
f 50 51 54
s 1
f 55 44 43
s 1
f 55 45 44
s 1
f 55 46 45
s 1
f 55 43 46
s 1
f 51 52 56
s 1
f 52 53 56
s 1
f 53 54 56
s 1
f 54 51 56
s 1
f 58 61 57
s 1
f 59 62 58
s 1
f 60 63 59
s 1
f 57 64 60
s 1
f 65 58 57
s 1
f 65 59 58
s 1
f 65 60 59
s 1
f 65 57 60
s 1
f 61 62 66
s 1
f 62 63 66
s 1
f 63 64 66
s 1
f 64 61 66
s 1
f 68 71 67
s 1
f 68 73 72
s 1
f 69 74 73
s 1
f 70 71 74
s 1
f 75 68 67
s 1
f 75 69 68
s 1
f 75 70 69
s 1
f 75 67 70
s 1
f 71 72 76
s 1
f 72 73 76
s 1
f 73 74 76
s 1
f 74 71 76
s 1
f 78 81 77
s 1
f 78 83 82
s 1
f 80 83 79
s 1
f 80 81 84
s 1
f 85 78 77
s 1
f 85 79 78
s 1
f 85 80 79
s 1
f 85 77 80
s 1
f 81 82 86
s 1
f 82 83 86
s 1
f 83 84 86
s 1
f 84 81 86
s 1
f 88 91 87
s 1
f 88 93 92
s 1
f 90 93 89
s 1
f 90 91 94
s 1
f 95 88 87
s 1
f 95 89 88
s 1
f 95 90 89
s 1
f 95 87 90
s 1
f 91 92 96
s 1
f 92 93 96
s 1
f 93 94 96
s 1
f 94 91 96
s 1
f 97 102 101
s 1
f 99 102 98
s 1
f 99 104 103
s 1
f 97 104 100
s 1
f 105 98 97
s 1
f 105 99 98
s 1
f 105 100 99
s 1
f 105 97 100
s 1
f 101 102 106
s 1
f 102 103 106
s 1
f 103 104 106
s 1
f 104 101 106
s 1
f 107 112 111
s 1
f 108 113 112
s 1
f 110 113 109
s 1
f 107 114 110
s 1
f 115 108 107
s 1
f 115 109 108
s 1
f 115 110 109
s 1
f 115 107 110
s 1
f 111 112 116
s 1
f 112 113 116
s 1
f 113 114 116
s 1
f 114 111 116
s 1
f 118 121 117
s 1
f 118 123 122
s 1
f 120 123 119
s 1
f 117 124 120
s 1
f 125 118 117
s 1
f 125 119 118
s 1
f 125 120 119
s 1
f 125 117 120
s 1
f 121 122 126
s 1
f 122 123 126
s 1
f 123 124 126
s 1
f 124 121 126
s 1
f 127 132 131
s 1
f 128 133 132
s 1
f 129 134 133
s 1
f 130 131 134
s 1
f 135 128 127
s 1
f 135 129 128
s 1
f 135 130 129
s 1
f 135 127 130
s 1
f 131 132 136
s 1
f 132 133 136
s 1
f 133 134 136
s 1
f 134 131 136
s 1
f 137 142 141
s 1
f 138 143 142
s 1
f 139 144 143
s 1
f 140 141 144
s 1
f 145 138 137
s 1
f 145 139 138
s 1
f 145 140 139
s 1
f 145 137 140
s 1
f 141 142 146
s 1
f 142 143 146
s 1
f 143 144 146
s 1
f 144 141 146
s 1
f 148 151 147
s 1
f 149 152 148
s 1
f 149 154 153
s 1
f 150 151 154
s 1
f 152 155 151
s 1
f 153 156 152
s 1
f 153 158 157
s 1
f 154 155 158
s 1
f 155 160 159
s 1
f 157 160 156
s 1
f 157 162 161
s 1
f 158 159 162
s 1
f 159 164 163
s 1
f 160 165 164
s 1
f 162 165 161
s 1
f 159 166 162
s 1
f 164 167 163
s 1
f 165 168 164
s 1
f 165 170 169
s 1
f 166 167 170
s 1
f 167 172 171
s 1
f 168 173 172
s 1
f 170 173 169
s 1
f 167 174 170
s 1
f 175 148 147
s 1
f 175 149 148
s 1
f 175 150 149
s 1
f 175 147 150
s 1
f 171 172 176
s 1
f 172 173 176
s 1
f 173 174 176
s 1
f 174 171 176
s 1
f 178 181 177
s 1
f 179 182 178
s 1
f 180 183 179
s 1
f 177 184 180
s 1
f 185 178 177
s 1
f 185 179 178
s 1
f 185 180 179
s 1
f 185 177 180
s 1
f 181 182 186
s 1
f 182 183 186
s 1
f 183 184 186
s 1
f 184 181 186
s 1
f 188 191 187
s 1
f 189 192 188
s 1
f 189 194 193
s 1
f 190 191 194
s 1
f 195 188 187
s 1
f 195 189 188
s 1
f 195 190 189
s 1
f 195 187 190
s 1
f 191 192 196
s 1
f 192 193 196
s 1
f 193 194 196
s 1
f 194 191 196
s 1
f 198 201 197
s 1
f 199 202 198
s 1
f 199 204 203
s 1
f 200 201 204
s 1
f 205 198 197
s 1
f 205 199 198
s 1
f 205 200 199
s 1
f 205 197 200
s 1
f 201 202 206
s 1
f 202 203 206
s 1
f 203 204 206
s 1
f 204 201 206
s 1
f 208 211 207
s 1
f 209 212 208
s 1
f 209 214 213
s 1
f 207 214 210
s 1
f 215 208 207
s 1
f 215 209 208
s 1
f 215 210 209
s 1
f 215 207 210
s 1
f 211 212 216
s 1
f 212 213 216
s 1
f 213 214 216
s 1
f 214 211 216
s 1
f 218 221 217
s 1
f 219 222 218
s 1
f 219 224 223
s 1
f 220 221 224
s 1
f 225 218 217
s 1
f 225 219 218
s 1
f 225 220 219
s 1
f 225 217 220
s 1
f 221 222 226
s 1
f 222 223 226
s 1
f 223 224 226
s 1
f 224 221 226
s 1
f 228 231 227
s 1
f 229 232 228
s 1
f 230 233 229
s 1
f 227 234 230
s 1
f 235 228 227
s 1
f 235 229 228
s 1
f 235 230 229
s 1
f 235 227 230
s 1
f 231 232 236
s 1
f 232 233 236
s 1
f 233 234 236
s 1
f 234 231 236
s 1
f 238 241 237
s 1
f 239 242 238
s 1
f 239 244 243
s 1
f 240 241 244
s 1
f 241 246 245
s 1
f 242 247 246
s 1
f 244 247 243
s 1
f 241 248 244
s 1
f 249 238 237
s 1
f 249 239 238
s 1
f 249 240 239
s 1
f 249 237 240
s 1
f 245 246 250
s 1
f 246 247 250
s 1
f 247 248 250
s 1
f 248 245 250
s 1
f 252 255 251
s 1
f 253 256 252
s 1
f 253 258 257
s 1
f 254 255 258
s 1
f 255 260 259
s 1
f 256 261 260
s 1
f 258 261 257
s 1
f 255 262 258
s 1
f 263 252 251
s 1
f 263 253 252
s 1
f 263 254 253
s 1
f 263 251 254
s 1
f 259 260 264
s 1
f 260 261 264
s 1
f 261 262 264
s 1
f 262 259 264
s 1
f 2 6 5
s 1
f 3 7 6
s 1
f 3 4 8
s 1
f 4 1 5
s 1
f 5 6 10
s 1
f 6 7 11
s 1
f 8 12 11
s 1
f 5 9 12
s 1
f 15 16 20
s 1
f 16 17 21
s 1
f 18 22 21
s 1
f 15 19 22
s 1
f 20 24 23
s 1
f 21 25 24
s 1
f 21 22 26
s 1
f 22 19 23
s 1
f 30 34 33
s 1
f 31 35 34
s 1
f 31 32 36
s 1
f 32 29 33
s 1
f 33 34 38
s 1
f 34 35 39
s 1
f 36 40 39
s 1
f 33 37 40
s 1
f 43 44 48
s 1
f 44 45 49
s 1
f 46 50 49
s 1
f 43 47 50
s 1
f 48 52 51
s 1
f 49 53 52
s 1
f 49 50 54
s 1
f 50 47 51
s 1
f 58 62 61
s 1
f 59 63 62
s 1
f 60 64 63
s 1
f 57 61 64
s 1
f 68 72 71
s 1
f 68 69 73
s 1
f 69 70 74
s 1
f 70 67 71
s 1
f 78 82 81
s 1
f 78 79 83
s 1
f 80 84 83
s 1
f 80 77 81
s 1
f 88 92 91
s 1
f 88 89 93
s 1
f 90 94 93
s 1
f 90 87 91
s 1
f 97 98 102
s 1
f 99 103 102
s 1
f 99 100 104
s 1
f 97 101 104
s 1
f 107 108 112
s 1
f 108 109 113
s 1
f 110 114 113
s 1
f 107 111 114
s 1
f 118 122 121
s 1
f 118 119 123
s 1
f 120 124 123
s 1
f 117 121 124
s 1
f 127 128 132
s 1
f 128 129 133
s 1
f 129 130 134
s 1
f 130 127 131
s 1
f 137 138 142
s 1
f 138 139 143
s 1
f 139 140 144
s 1
f 140 137 141
s 1
f 148 152 151
s 1
f 149 153 152
s 1
f 149 150 154
s 1
f 150 147 151
s 1
f 152 156 155
s 1
f 153 157 156
s 1
f 153 154 158
s 1
f 154 151 155
s 1
f 155 156 160
s 1
f 157 161 160
s 1
f 157 158 162
s 1
f 158 155 159
s 1
f 159 160 164
s 1
f 160 161 165
s 1
f 162 166 165
s 1
f 159 163 166
s 1
f 164 168 167
s 1
f 165 169 168
s 1
f 165 166 170
s 1
f 166 163 167
s 1
f 167 168 172
s 1
f 168 169 173
s 1
f 170 174 173
s 1
f 167 171 174
s 1
f 178 182 181
s 1
f 179 183 182
s 1
f 180 184 183
s 1
f 177 181 184
s 1
f 188 192 191
s 1
f 189 193 192
s 1
f 189 190 194
s 1
f 190 187 191
s 1
f 198 202 201
s 1
f 199 203 202
s 1
f 199 200 204
s 1
f 200 197 201
s 1
f 208 212 211
s 1
f 209 213 212
s 1
f 209 210 214
s 1
f 207 211 214
s 1
f 218 222 221
s 1
f 219 223 222
s 1
f 219 220 224
s 1
f 220 217 221
s 1
f 228 232 231
s 1
f 229 233 232
s 1
f 230 234 233
s 1
f 227 231 234
s 1
f 238 242 241
s 1
f 239 243 242
s 1
f 239 240 244
s 1
f 240 237 241
s 1
f 241 242 246
s 1
f 242 243 247
s 1
f 244 248 247
s 1
f 241 245 248
s 1
f 252 256 255
s 1
f 253 257 256
s 1
f 253 254 258
s 1
f 254 251 255
s 1
f 255 256 260
s 1
f 256 257 261
s 1
f 258 262 261
s 1
f 255 259 262
