# beta Lattice_Lattice.obj: Roblox cue frame, recentred on its bounding box
v -0.00000 -0.09504 3.29978
v -0.00000 -0.10903 3.30007
v -0.05586 -0.07689 3.29978
v -0.06409 -0.08821 3.30007
v -0.09038 -0.02937 3.29978
v -0.10370 -0.03369 3.30007
v -0.09038 0.02937 3.29978
v -0.10370 0.03369 3.30007
v -0.05586 0.07689 3.29978
v -0.06409 0.08821 3.30007
v -0.00000 0.09504 3.29978
v -0.00000 0.10903 3.30007
v 0.05586 0.07689 3.29978
v 0.06409 0.08821 3.30007
v 0.09038 0.02937 3.29978
v 0.10370 0.03369 3.30007
v 0.09038 -0.02937 3.29978
v 0.10370 -0.03369 3.30007
v 0.05586 -0.07689 3.29978
v 0.06409 -0.08821 3.30007
v -0.00000 -0.10179 2.97978
v -0.00000 -0.11579 2.98007
v -0.05983 -0.08235 2.97978
v -0.06806 -0.09367 2.98007
v -0.09681 -0.03145 2.97978
v -0.11012 -0.03578 2.98007
v -0.09681 0.03145 2.97978
v -0.11012 0.03578 2.98007
v -0.05983 0.08235 2.97978
v -0.06806 0.09367 2.98007
v -0.00000 0.10179 2.97978
v -0.00000 0.11579 2.98007
v 0.05983 0.08235 2.97978
v 0.06806 0.09367 2.98007
v 0.09681 0.03145 2.97978
v 0.11012 0.03578 2.98007
v 0.09681 -0.03145 2.97978
v 0.11012 -0.03578 2.98007
v 0.05983 -0.08235 2.97978
v 0.06806 -0.09367 2.98007
v -0.00000 -0.10854 2.65978
v -0.00000 -0.12254 2.66007
v -0.06380 -0.08781 2.65978
v -0.07203 -0.09914 2.66007
v -0.10323 -0.03354 2.65978
v -0.11654 -0.03787 2.66007
v -0.10323 0.03354 2.65978
v -0.11654 0.03787 2.66007
v -0.06380 0.08781 2.65978
v -0.07203 0.09914 2.66007
v -0.00000 0.10854 2.65978
v -0.00000 0.12254 2.66007
v 0.06380 0.08781 2.65978
v 0.07203 0.09914 2.66007
v 0.10323 0.03354 2.65978
v 0.11654 0.03787 2.66007
v 0.10323 -0.03354 2.65978
v 0.11654 -0.03787 2.66007
v 0.06380 -0.08781 2.65978
v 0.07203 -0.09914 2.66007
v -0.00000 -0.11530 2.33978
v -0.00000 -0.12929 2.34007
v -0.06777 -0.09328 2.33978
v -0.07600 -0.10460 2.34007
v -0.10965 -0.03563 2.33978
v -0.12297 -0.03995 2.34007
v -0.10965 0.03563 2.33978
v -0.12297 0.03995 2.34007
v -0.06777 0.09328 2.33978
v -0.07600 0.10460 2.34007
v -0.00000 0.11530 2.33978
v -0.00000 0.12929 2.34007
v 0.06777 0.09328 2.33978
v 0.07600 0.10460 2.34007
v 0.10965 0.03563 2.33978
v 0.12297 0.03995 2.34007
v 0.10965 -0.03563 2.33978
v 0.12297 -0.03995 2.34007
v 0.06777 -0.09328 2.33978
v 0.07600 -0.10460 2.34007
v -0.00000 -0.12205 2.01978
v -0.00000 -0.13605 2.02007
v -0.07174 -0.09874 2.01978
v -0.07997 -0.11007 2.02007
v -0.11608 -0.03772 2.01978
v -0.12939 -0.04204 2.02007
v -0.11608 0.03772 2.01978
v -0.12939 0.04204 2.02007
v -0.07174 0.09874 2.01978
v -0.07997 0.11007 2.02007
v -0.00000 0.12205 2.01978
v -0.00000 0.13605 2.02007
v 0.07174 0.09874 2.01978
v 0.07997 0.11007 2.02007
v 0.11608 0.03772 2.01978
v 0.12939 0.04204 2.02007
v 0.11608 -0.03772 2.01978
v 0.12939 -0.04204 2.02007
v 0.07174 -0.09874 2.01978
v 0.07997 -0.11007 2.02007
v -0.00000 -0.12881 1.69977
v -0.00000 -0.14280 1.70008
v -0.07571 -0.10421 1.69977
v -0.08394 -0.11553 1.70008
v -0.12250 -0.03980 1.69977
v -0.13581 -0.04413 1.70008
v -0.12250 0.03980 1.69977
v -0.13581 0.04413 1.70008
v -0.07571 0.10421 1.69977
v -0.08394 0.11553 1.70008
v -0.00000 0.12881 1.69977
v -0.00000 0.14280 1.70008
v 0.07571 0.10421 1.69977
v 0.08394 0.11553 1.70008
v 0.12250 0.03980 1.69977
v 0.13581 0.04413 1.70008
v 0.12250 -0.03980 1.69977
v 0.13581 -0.04413 1.70008
v 0.07571 -0.10421 1.69977
v 0.08394 -0.11553 1.70008
v -0.00000 -0.13639 1.37974
v -0.00000 -0.15039 1.38011
v -0.08017 -0.11034 1.37974
v -0.08839 -0.12166 1.38011
v -0.12972 -0.04215 1.37974
v -0.14303 -0.04647 1.38011
v -0.12972 0.04215 1.37974
v -0.14303 0.04647 1.38011
v -0.08017 0.11034 1.37974
v -0.08839 0.12166 1.38011
v -0.00000 0.13639 1.37974
v -0.00000 0.15039 1.38011
v 0.08017 0.11034 1.37974
v 0.08839 0.12166 1.38011
v 0.12972 0.04215 1.37974
v 0.14303 0.04647 1.38011
v 0.12972 -0.04215 1.37974
v 0.14303 -0.04647 1.38011
v 0.08017 -0.11034 1.37974
v 0.08839 -0.12166 1.38011
v -0.00000 -0.14538 1.05970
v -0.00000 -0.15937 1.06015
v -0.08545 -0.11761 1.05970
v -0.09368 -0.12893 1.06015
v -0.13826 -0.04492 1.05970
v -0.15157 -0.04925 1.06015
v -0.13826 0.04492 1.05970
v -0.15157 0.04925 1.06015
v -0.08545 0.11761 1.05970
v -0.09368 0.12893 1.06015
v -0.00000 0.14538 1.05970
v -0.00000 0.15937 1.06015
v 0.08545 0.11761 1.05970
v 0.09368 0.12893 1.06015
v 0.13826 0.04492 1.05970
v 0.15157 0.04925 1.06015
v 0.13826 -0.04492 1.05970
v 0.15157 -0.04925 1.06015
v 0.08545 -0.11761 1.05970
v 0.09368 -0.12893 1.06015
v -0.00000 -0.15662 0.73968
v -0.00000 -0.17061 0.74018
v -0.09206 -0.12671 0.73968
v -0.10028 -0.13803 0.74018
v -0.14895 -0.04840 0.73968
v -0.16226 -0.05272 0.74018
v -0.14895 0.04840 0.73968
v -0.16226 0.05272 0.74018
v -0.09206 0.12671 0.73968
v -0.10028 0.13803 0.74018
v -0.00000 0.15662 0.73968
v -0.00000 0.17061 0.74018
v 0.09206 0.12671 0.73968
v 0.10028 0.13803 0.74018
v 0.14895 0.04840 0.73968
v 0.16226 0.05272 0.74018
v 0.14895 -0.04840 0.73968
v 0.16226 -0.05272 0.74018
v 0.09206 -0.12671 0.73968
v 0.10028 -0.13803 0.74018
v -0.00000 -0.16827 0.41967
v -0.00000 -0.18226 0.42018
v -0.09891 -0.13613 0.41967
v -0.10713 -0.14745 0.42018
v -0.16003 -0.05200 0.41967
v -0.17334 -0.05632 0.42018
v -0.16003 0.05200 0.41967
v -0.17334 0.05632 0.42018
v -0.09891 0.13613 0.41967
v -0.10713 0.14745 0.42018
v -0.00000 0.16827 0.41967
v -0.00000 0.18226 0.42018
v 0.09891 0.13613 0.41967
v 0.10713 0.14745 0.42018
v 0.16003 0.05200 0.41967
v 0.17334 0.05632 0.42018
v 0.16003 -0.05200 0.41967
v 0.17334 -0.05632 0.42018
v 0.09891 -0.13613 0.41967
v 0.10713 -0.14745 0.42018
v -0.00000 -0.17969 0.09969
v -0.00000 -0.19368 0.10016
v -0.10562 -0.14537 0.09969
v -0.11384 -0.15669 0.10016
v -0.17089 -0.05553 0.09969
v -0.18420 -0.05985 0.10016
v -0.17089 0.05553 0.09969
v -0.18420 0.05985 0.10016
v -0.10562 0.14537 0.09969
v -0.11384 0.15669 0.10016
v -0.00000 0.17969 0.09969
v -0.00000 0.19368 0.10016
v 0.10562 0.14537 0.09969
v 0.11384 0.15669 0.10016
v 0.17089 0.05553 0.09969
v 0.18420 0.05985 0.10016
v 0.17089 -0.05553 0.09969
v 0.18420 -0.05985 0.10016
v 0.10562 -0.14537 0.09969
v 0.11384 -0.15669 0.10016
v -0.00000 -0.18988 -0.22025
v -0.00000 -0.20387 -0.21990
v -0.11161 -0.15361 -0.22025
v -0.11983 -0.16494 -0.21990
v -0.18058 -0.05868 -0.22025
v -0.19390 -0.06300 -0.21990
v -0.18058 0.05868 -0.22025
v -0.19390 0.06300 -0.21990
v -0.11161 0.15361 -0.22025
v -0.11983 0.16494 -0.21990
v -0.00000 0.18988 -0.22025
v -0.00000 0.20387 -0.21990
v 0.11161 0.15361 -0.22025
v 0.11983 0.16494 -0.21990
v 0.18058 0.05868 -0.22025
v 0.19390 0.06300 -0.21990
v 0.18058 -0.05868 -0.22025
v 0.19390 -0.06300 -0.21990
v 0.11161 -0.15361 -0.22025
v 0.11983 -0.16494 -0.21990
v -0.00000 -0.19573 -0.54020
v -0.00000 -0.20972 -0.53995
v -0.11504 -0.15835 -0.54020
v -0.12327 -0.16967 -0.53995
v -0.18615 -0.06048 -0.54020
v -0.19946 -0.06481 -0.53995
v -0.18615 0.06048 -0.54020
v -0.19946 0.06481 -0.53995
v -0.11504 0.15835 -0.54020
v -0.12327 0.16967 -0.53995
v -0.00000 0.19573 -0.54020
v -0.00000 0.20972 -0.53995
v 0.11504 0.15835 -0.54020
v 0.12327 0.16967 -0.53995
v 0.18615 0.06048 -0.54020
v 0.19946 0.06481 -0.53995
v 0.18615 -0.06048 -0.54020
v 0.19946 -0.06481 -0.53995
v 0.11504 -0.15835 -0.54020
v 0.12327 -0.16967 -0.53995
v -0.00000 -0.20113 -0.86019
v -0.00000 -0.21512 -0.85996
v -0.11822 -0.16271 -0.86019
v -0.12645 -0.17404 -0.85996
v -0.19128 -0.06215 -0.86019
v -0.20460 -0.06648 -0.85996
v -0.19128 0.06215 -0.86019
v -0.20460 0.06648 -0.85996
v -0.11822 0.16271 -0.86019
v -0.12645 0.17404 -0.85996
v -0.00000 0.20113 -0.86019
v -0.00000 0.21512 -0.85996
v 0.11822 0.16271 -0.86019
v 0.12645 0.17404 -0.85996
v 0.19128 0.06215 -0.86019
v 0.20460 0.06648 -0.85996
v 0.19128 -0.06215 -0.86019
v 0.20460 -0.06648 -0.85996
v 0.11822 -0.16271 -0.86019
v 0.12645 -0.17404 -0.85996
v -0.00000 -0.20653 -1.18019
v -0.00000 -0.22052 -1.17996
v -0.12139 -0.16708 -1.18019
v -0.12962 -0.17841 -1.17996
v -0.19642 -0.06382 -1.18019
v -0.20973 -0.06815 -1.17996
v -0.19642 0.06382 -1.18019
v -0.20973 0.06815 -1.17996
v -0.12139 0.16708 -1.18019
v -0.12962 0.17841 -1.17996
v -0.00000 0.20653 -1.18019
v -0.00000 0.22052 -1.17996
v 0.12139 0.16708 -1.18019
v 0.12962 0.17841 -1.17996
v 0.19642 0.06382 -1.18019
v 0.20973 0.06815 -1.17996
v 0.19642 -0.06382 -1.18019
v 0.20973 -0.06815 -1.17996
v 0.12139 -0.16708 -1.18019
v 0.12962 -0.17841 -1.17996
v -0.00000 -0.21193 -1.50019
v -0.00000 -0.22592 -1.49996
v -0.12457 -0.17145 -1.50019
v -0.13279 -0.18278 -1.49996
v -0.20155 -0.06549 -1.50019
v -0.21487 -0.06981 -1.49996
v -0.20155 0.06549 -1.50019
v -0.21487 0.06981 -1.49996
v -0.12457 0.17145 -1.50019
v -0.13279 0.18278 -1.49996
v -0.00000 0.21193 -1.50019
v -0.00000 0.22592 -1.49996
v 0.12457 0.17145 -1.50019
v 0.13279 0.18278 -1.49996
v 0.20155 0.06549 -1.50019
v 0.21487 0.06981 -1.49996
v 0.20155 -0.06549 -1.50019
v 0.21487 -0.06981 -1.49996
v 0.12457 -0.17145 -1.50019
v 0.13279 -0.18278 -1.49996
v 0.00072 -0.22202 -1.80010
v -0.00072 -0.23595 -1.80005
v -0.12992 -0.18004 -1.80010
v -0.13927 -0.19047 -1.80005
v -0.21094 -0.06929 -1.80010
v -0.22462 -0.07223 -1.80005
v -0.21138 0.06793 -1.80010
v -0.22418 0.07359 -1.80005
v -0.13108 0.17920 -1.80010
v -0.13811 0.19131 -1.80005
v -0.00072 0.22202 -1.80010
v 0.00072 0.23595 -1.80005
v 0.12992 0.18004 -1.80010
v 0.13927 0.19047 -1.80005
v 0.21094 0.06929 -1.80010
v 0.22462 0.07223 -1.80005
v 0.21138 -0.06793 -1.80010
v 0.22418 -0.07359 -1.80005
v 0.13108 -0.17920 -1.80010
v 0.13811 -0.19131 -1.80005
v -0.06891 -0.21209 -2.05009
v -0.07324 -0.22540 -2.05006
v -0.18041 -0.13108 -2.05009
v -0.19174 -0.13930 -2.05006
v -0.22300 -0.00000 -2.05009
v -0.23700 0.00000 -2.05006
v -0.18041 0.13108 -2.05009
v -0.19174 0.13931 -2.05006
v -0.06891 0.21209 -2.05009
v -0.07324 0.22540 -2.05006
v 0.06891 0.21209 -2.05009
v 0.07324 0.22540 -2.05006
v 0.18041 0.13108 -2.05009
v 0.19174 0.13930 -2.05006
v 0.22300 0.00000 -2.05009
v 0.23700 -0.00000 -2.05006
v 0.18041 -0.13108 -2.05009
v 0.19174 -0.13931 -2.05006
v 0.06891 -0.21209 -2.05009
v 0.07324 -0.22540 -2.05006
v -0.13108 -0.18041 -2.30007
v -0.13931 -0.19174 -2.30007
v -0.21209 -0.06891 -2.30007
v -0.22540 -0.07324 -2.30007
v -0.21209 0.06891 -2.30007
v -0.22540 0.07324 -2.30007
v -0.13108 0.18041 -2.30007
v -0.13931 0.19174 -2.30007
v -0.00000 0.22300 -2.30007
v -0.00000 0.23700 -2.30007
v 0.13108 0.18041 -2.30007
v 0.13931 0.19174 -2.30007
v 0.21209 0.06891 -2.30007
v 0.22540 0.07324 -2.30007
v 0.21209 -0.06891 -2.30007
v 0.22540 -0.07324 -2.30007
v 0.13108 -0.18041 -2.30007
v 0.13931 -0.19174 -2.30007
v 0.00000 -0.22300 -2.30007
v 0.00000 -0.23700 -2.30007
v -0.18041 -0.13108 -2.55007
v -0.19174 -0.13931 -2.55007
v -0.22300 0.00000 -2.55007
v -0.23700 -0.00000 -2.55007
v -0.18041 0.13108 -2.55007
v -0.19174 0.13931 -2.55007
v -0.06891 0.21209 -2.55007
v -0.07324 0.22540 -2.55007
v 0.06891 0.21209 -2.55007
v 0.07324 0.22540 -2.55007
v 0.18041 0.13108 -2.55007
v 0.19174 0.13931 -2.55007
v 0.22300 -0.00000 -2.55007
v 0.23700 0.00000 -2.55007
v 0.18041 -0.13108 -2.55007
v 0.19174 -0.13931 -2.55007
v 0.06891 -0.21209 -2.55007
v 0.07324 -0.22540 -2.55007
v -0.06891 -0.21209 -2.55007
v -0.07324 -0.22540 -2.55007
v -0.21209 -0.06891 -2.80007
v -0.22540 -0.07324 -2.80007
v -0.21209 0.06891 -2.80007
v -0.22540 0.07324 -2.80007
v -0.13108 0.18041 -2.80007
v -0.13931 0.19174 -2.80007
v -0.00000 0.22300 -2.80007
v -0.00000 0.23700 -2.80007
v 0.13108 0.18041 -2.80007
v 0.13931 0.19174 -2.80007
v 0.21209 0.06891 -2.80007
v 0.22540 0.07324 -2.80007
v 0.21209 -0.06891 -2.80007
v 0.22540 -0.07324 -2.80007
v 0.13108 -0.18041 -2.80007
v 0.13931 -0.19174 -2.80007
v 0.00000 -0.22300 -2.80007
v 0.00000 -0.23700 -2.80007
v -0.13108 -0.18041 -2.80007
v -0.13931 -0.19174 -2.80007
v -0.22300 -0.00000 -3.05007
v -0.23700 0.00000 -3.05007
v -0.18041 0.13108 -3.05007
v -0.19174 0.13931 -3.05007
v -0.06891 0.21209 -3.05007
v -0.07324 0.22540 -3.05007
v 0.06891 0.21209 -3.05007
v 0.07324 0.22540 -3.05007
v 0.18041 0.13108 -3.05007
v 0.19174 0.13931 -3.05007
v 0.22300 0.00000 -3.05007
v 0.23700 -0.00000 -3.05007
v 0.18041 -0.13108 -3.05007
v 0.19174 -0.13931 -3.05007
v 0.06891 -0.21209 -3.05007
v 0.07324 -0.22540 -3.05007
v -0.06891 -0.21209 -3.05007
v -0.07324 -0.22540 -3.05007
v -0.18041 -0.13108 -3.05007
v -0.19174 -0.13931 -3.05007
v -0.21190 0.06960 -3.30007
v -0.22559 0.07255 -3.30007
v -0.13052 0.18086 -3.30007
v -0.13986 0.19129 -3.30007
v 0.00071 0.22304 -3.30007
v -0.00071 0.23696 -3.30007
v 0.13168 0.18002 -3.30007
v 0.13871 0.19213 -3.30007
v 0.21234 0.06824 -3.30007
v 0.22514 0.07391 -3.30007
v 0.21190 -0.06960 -3.30007
v 0.22559 -0.07255 -3.30007
v 0.13052 -0.18086 -3.30007
v 0.13986 -0.19129 -3.30007
v -0.00071 -0.22304 -3.30007
v 0.00071 -0.23696 -3.30007
v -0.13168 -0.18002 -3.30007
v -0.13871 -0.19213 -3.30007
v -0.21234 -0.06824 -3.30007
v -0.22514 -0.07391 -3.30007
v -0.00472 -0.10060 3.29496
v -0.05531 -0.08417 3.29496
v -0.05919 -0.08945 2.98486
v -0.00469 -0.10716 2.98486
v -0.06295 -0.07861 3.29496
v -0.09422 -0.03558 3.29496
v -0.10046 -0.03758 2.98486
v -0.06678 -0.08394 2.98486
v -0.09714 -0.02660 3.29496
v -0.09714 0.02660 3.29496
v -0.10336 0.02865 2.98486
v -0.10336 -0.02865 2.98486
v -0.09422 0.03558 3.29496
v -0.06295 0.07861 3.29496
v -0.06678 0.08394 2.98486
v -0.10046 0.03758 2.98486
v -0.05531 0.08417 3.29496
v -0.00472 0.10060 3.29496
v -0.00469 0.10716 2.98486
v -0.05919 0.08945 2.98486
v 0.00472 0.10060 3.29496
v 0.05531 0.08417 3.29496
v 0.05919 0.08945 2.98486
v 0.00469 0.10716 2.98486
v 0.06295 0.07861 3.29496
v 0.09422 0.03558 3.29496
v 0.10046 0.03758 2.98486
v 0.06678 0.08394 2.98486
v 0.09714 0.02660 3.29496
v 0.09714 -0.02660 3.29496
v 0.10336 -0.02865 2.98486
v 0.10336 0.02865 2.98486
v 0.09422 -0.03558 3.29496
v 0.06295 -0.07861 3.29496
v 0.06678 -0.08394 2.98486
v 0.10046 -0.03758 2.98486
v 0.05531 -0.08417 3.29496
v 0.00472 -0.10060 3.29496
v 0.00469 -0.10716 2.98486
v 0.05919 -0.08945 2.98486
v -0.00472 -0.10736 2.97496
v -0.05928 -0.08963 2.97496
v -0.06316 -0.09492 2.66486
v -0.00469 -0.11391 2.66486
v -0.06692 -0.08408 2.97496
v -0.10064 -0.03767 2.97496
v -0.10689 -0.03966 2.66486
v -0.07075 -0.08940 2.66486
v -0.10356 -0.02868 2.97496
v -0.10356 0.02868 2.97496
v -0.10979 0.03074 2.66486
v -0.10979 -0.03074 2.66486
v -0.10064 0.03767 2.97496
v -0.06692 0.08408 2.97496
v -0.07075 0.08940 2.66486
v -0.10689 0.03966 2.66486
v -0.05928 0.08963 2.97496
v -0.00472 0.10736 2.97496
v -0.00469 0.11391 2.66486
v -0.06316 0.09492 2.66486
v 0.00472 0.10736 2.97496
v 0.05928 0.08963 2.97496
v 0.06316 0.09492 2.66486
v 0.00469 0.11391 2.66486
v 0.06692 0.08408 2.97496
v 0.10064 0.03767 2.97496
v 0.10689 0.03966 2.66486
v 0.07075 0.08940 2.66486
v 0.10356 0.02868 2.97496
v 0.10356 -0.02868 2.97496
v 0.10979 -0.03074 2.66486
v 0.10979 0.03074 2.66486
v 0.10064 -0.03767 2.97496
v 0.06692 -0.08408 2.97496
v 0.07075 -0.08940 2.66486
v 0.10689 -0.03966 2.66486
v 0.05928 -0.08963 2.97496
v 0.00472 -0.10736 2.97496
v 0.00469 -0.11391 2.66486
v 0.06316 -0.09492 2.66486
v -0.00472 -0.11411 2.65496
v -0.06325 -0.09509 2.65496
v -0.06713 -0.10038 2.34486
v -0.00469 -0.12067 2.34486
v -0.07089 -0.08954 2.65496
v -0.10707 -0.03975 2.65496
v -0.11331 -0.04175 2.34486
v -0.07472 -0.09486 2.34486
v -0.10999 -0.03077 2.65496
v -0.10999 0.03077 2.65496
v -0.11621 0.03283 2.34486
v -0.11621 -0.03283 2.34486
v -0.10707 0.03975 2.65496
v -0.07089 0.08954 2.65496
v -0.07472 0.09486 2.34486
v -0.11331 0.04175 2.34486
v -0.06325 0.09509 2.65496
v -0.00472 0.11411 2.65496
v -0.00469 0.12067 2.34486
v -0.06713 0.10038 2.34486
v 0.00472 0.11411 2.65496
v 0.06325 0.09509 2.65496
v 0.06713 0.10038 2.34486
v 0.00469 0.12067 2.34486
v 0.07089 0.08954 2.65496
v 0.10707 0.03975 2.65496
v 0.11331 0.04175 2.34486
v 0.07472 0.09486 2.34486
v 0.10999 0.03077 2.65496
v 0.10999 -0.03077 2.65496
v 0.11621 -0.03283 2.34486
v 0.11621 0.03283 2.34486
v 0.10707 -0.03975 2.65496
v 0.07089 -0.08954 2.65496
v 0.07472 -0.09486 2.34486
v 0.11331 -0.04175 2.34486
v 0.06325 -0.09509 2.65496
v 0.00472 -0.11411 2.65496
v 0.00469 -0.12067 2.34486
v 0.06713 -0.10038 2.34486
v -0.00472 -0.12087 2.33496
v -0.06722 -0.10056 2.33496
v -0.07110 -0.10584 2.02486
v -0.00469 -0.12742 2.02486
v -0.07486 -0.09501 2.33496
v -0.11349 -0.04184 2.33496
v -0.11973 -0.04384 2.02486
v -0.07869 -0.10033 2.02486
v -0.11641 -0.03286 2.33496
v -0.11641 0.03286 2.33496
v -0.12263 0.03491 2.02486
v -0.12263 -0.03491 2.02486
v -0.11349 0.04184 2.33496
v -0.07486 0.09501 2.33496
v -0.07869 0.10033 2.02486
v -0.11973 0.04384 2.02486
v -0.06722 0.10056 2.33496
v -0.00472 0.12087 2.33496
v -0.00469 0.12742 2.02486
v -0.07110 0.10584 2.02486
v 0.00472 0.12087 2.33496
v 0.06722 0.10056 2.33496
v 0.07110 0.10584 2.02486
v 0.00469 0.12742 2.02486
v 0.07486 0.09501 2.33496
v 0.11349 0.04184 2.33496
v 0.11973 0.04384 2.02486
v 0.07869 0.10033 2.02486
v 0.11641 0.03286 2.33496
v 0.11641 -0.03286 2.33496
v 0.12263 -0.03491 2.02486
v 0.12263 0.03491 2.02486
v 0.11349 -0.04184 2.33496
v 0.07486 -0.09501 2.33496
v 0.07869 -0.10033 2.02486
v 0.11973 -0.04384 2.02486
v 0.06722 -0.10056 2.33496
v 0.00472 -0.12087 2.33496
v 0.00469 -0.12742 2.02486
v 0.07110 -0.10584 2.02486
v -0.00472 -0.12762 2.01496
v -0.07119 -0.10602 2.01496
v -0.07507 -0.11131 1.70486
v -0.00469 -0.13418 1.70486
v -0.07883 -0.10047 2.01496
v -0.11991 -0.04393 2.01496
v -0.12616 -0.04592 1.70486
v -0.08266 -0.10579 1.70486
v -0.12283 -0.03494 2.01496
v -0.12283 0.03494 2.01496
v -0.12906 0.03700 1.70486
v -0.12906 -0.03700 1.70486
v -0.11991 0.04393 2.01496
v -0.07883 0.10047 2.01496
v -0.08266 0.10579 1.70486
v -0.12616 0.04592 1.70486
v -0.07119 0.10602 2.01496
v -0.00472 0.12762 2.01496
v -0.00469 0.13418 1.70486
v -0.07507 0.11131 1.70486
v 0.00472 0.12762 2.01496
v 0.07119 0.10602 2.01496
v 0.07507 0.11131 1.70486
v 0.00469 0.13418 1.70486
v 0.07883 0.10047 2.01496
v 0.11991 0.04393 2.01496
v 0.12616 0.04592 1.70486
v 0.08266 0.10579 1.70486
v 0.12283 0.03494 2.01496
v 0.12283 -0.03494 2.01496
v 0.12906 -0.03700 1.70486
v 0.12906 0.03700 1.70486
v 0.11991 -0.04393 2.01496
v 0.07883 -0.10047 2.01496
v 0.08266 -0.10579 1.70486
v 0.12616 -0.04592 1.70486
v 0.07119 -0.10602 2.01496
v 0.00472 -0.12762 2.01496
v 0.00469 -0.13418 1.70486
v 0.07507 -0.11131 1.70486
v -0.00472 -0.13439 1.69496
v -0.07517 -0.11150 1.69496
v -0.07952 -0.11743 1.38486
v -0.00469 -0.14175 1.38486
v -0.08281 -0.10594 1.69496
v -0.12635 -0.04602 1.69496
v -0.13336 -0.04826 1.38486
v -0.08711 -0.11192 1.38486
v -0.12927 -0.03703 1.69496
v -0.12927 0.03703 1.69496
v -0.13626 0.03934 1.38486
v -0.13626 -0.03934 1.38486
v -0.12635 0.04602 1.69496
v -0.08281 0.10594 1.69496
v -0.08711 0.11192 1.38486
v -0.13336 0.04826 1.38486
v -0.07517 0.11150 1.69496
v -0.00472 0.13439 1.69496
v -0.00469 0.14175 1.38486
v -0.07952 0.11743 1.38486
v 0.00472 0.13439 1.69496
v 0.07517 0.11150 1.69496
v 0.07952 0.11743 1.38486
v 0.00469 0.14175 1.38486
v 0.08281 0.10594 1.69496
v 0.12635 0.04602 1.69496
v 0.13336 0.04826 1.38486
v 0.08711 0.11192 1.38486
v 0.12927 0.03703 1.69496
v 0.12927 -0.03703 1.69496
v 0.13626 -0.03934 1.38486
v 0.13626 0.03934 1.38486
v 0.12635 -0.04602 1.69496
v 0.08281 -0.10594 1.69496
v 0.08711 -0.11192 1.38486
v 0.13336 -0.04826 1.38486
v 0.07517 -0.11150 1.69496
v 0.00472 -0.13439 1.69496
v 0.00469 -0.14175 1.38486
v 0.07952 -0.11743 1.38486
v -0.00473 -0.14199 1.37496
v -0.07964 -0.11765 1.37496
v -0.08479 -0.12468 1.06485
v -0.00469 -0.15071 1.06485
v -0.08729 -0.11209 1.37496
v -0.13358 -0.04837 1.37496
v -0.14189 -0.05103 1.06485
v -0.09238 -0.11917 1.06485
v -0.13650 -0.03938 1.37496
v -0.13650 0.03938 1.37496
v -0.14479 0.04212 1.06485
v -0.14479 -0.04212 1.06485
v -0.13358 0.04837 1.37496
v -0.08729 0.11209 1.37496
v -0.09238 0.11917 1.06485
v -0.14189 0.05103 1.06485
v -0.07964 0.11765 1.37496
v -0.00473 0.14199 1.37496
v -0.00469 0.15071 1.06485
v -0.08479 0.12468 1.06485
v 0.00473 0.14199 1.37496
v 0.07964 0.11765 1.37496
v 0.08479 0.12468 1.06485
v 0.00469 0.15071 1.06485
v 0.08729 0.11209 1.37496
v 0.13358 0.04837 1.37496
v 0.14189 0.05103 1.06485
v 0.09238 0.11917 1.06485
v 0.13650 0.03938 1.37496
v 0.13650 -0.03938 1.37496
v 0.14479 -0.04212 1.06485
v 0.14479 0.04212 1.06485
v 0.13358 -0.04837 1.37496
v 0.08729 -0.11209 1.37496
v 0.09238 -0.11917 1.06485
v 0.14189 -0.05103 1.06485
v 0.07964 -0.11765 1.37496
v 0.00473 -0.14199 1.37496
v 0.00469 -0.15071 1.06485
v 0.08479 -0.12468 1.06485
v -0.00473 -0.15101 1.05495
v -0.08493 -0.12495 1.05495
v -0.09139 -0.13375 0.74485
v -0.00468 -0.16192 0.74485
v -0.09259 -0.11939 1.05495
v -0.14216 -0.05117 1.05495
v -0.15255 -0.05449 0.74485
v -0.09896 -0.12824 0.74485
v -0.14508 -0.04216 1.05495
v -0.14508 0.04216 1.05495
v -0.15544 0.04558 0.74485
v -0.15544 -0.04558 0.74485
v -0.14216 0.05117 1.05495
v -0.09259 0.11939 1.05495
v -0.09896 0.12824 0.74485
v -0.15255 0.05449 0.74485
v -0.08493 0.12495 1.05495
v -0.00473 0.15101 1.05495
v -0.00468 0.16192 0.74485
v -0.09139 0.13375 0.74485
v 0.00473 0.15101 1.05495
v 0.08493 0.12495 1.05495
v 0.09139 0.13375 0.74485
v 0.00468 0.16192 0.74485
v 0.09259 0.11939 1.05495
v 0.14216 0.05117 1.05495
v 0.15255 0.05449 0.74485
v 0.09896 0.12824 0.74485
v 0.14508 0.04216 1.05495
v 0.14508 -0.04216 1.05495
v 0.15544 -0.04558 0.74485
v 0.15544 0.04558 0.74485
v 0.14216 -0.05117 1.05495
v 0.09259 -0.11939 1.05495
v 0.09896 -0.12824 0.74485
v 0.15255 -0.05449 0.74485
v 0.08493 -0.12495 1.05495
v 0.00473 -0.15101 1.05495
v 0.00468 -0.16192 0.74485
v 0.09139 -0.13375 0.74485
v -0.00473 -0.16226 0.73495
v -0.09154 -0.13405 0.73495
v -0.09823 -0.14317 0.42484
v -0.00468 -0.17356 0.42484
v -0.09920 -0.12849 0.73495
v -0.15285 -0.05464 0.73495
v -0.16362 -0.05809 0.42484
v -0.10581 -0.13766 0.42484
v -0.15578 -0.04564 0.73495
v -0.15578 0.04564 0.73495
v -0.16651 0.04918 0.42484
v -0.16651 -0.04918 0.42484
v -0.15285 0.05464 0.73495
v -0.09920 0.12849 0.73495
v -0.10581 0.13766 0.42484
v -0.16362 0.05809 0.42484
v -0.09154 0.13405 0.73495
v -0.00473 0.16226 0.73495
v -0.00468 0.17356 0.42484
v -0.09823 0.14317 0.42484
v 0.00473 0.16226 0.73495
v 0.09154 0.13405 0.73495
v 0.09823 0.14317 0.42484
v 0.00468 0.17356 0.42484
v 0.09920 0.12849 0.73495
v 0.15285 0.05464 0.73495
v 0.16362 0.05809 0.42484
v 0.10581 0.13766 0.42484
v 0.15578 0.04564 0.73495
v 0.15578 -0.04564 0.73495
v 0.16651 -0.04918 0.42484
v 0.16651 0.04918 0.42484
v 0.15285 -0.05464 0.73495
v 0.09920 -0.12849 0.73495
v 0.10581 -0.13766 0.42484
v 0.16362 -0.05809 0.42484
v 0.09154 -0.13405 0.73495
v 0.00473 -0.16226 0.73495
v 0.00468 -0.17356 0.42484
v 0.09823 -0.14317 0.42484
v -0.00473 -0.17390 0.41495
v -0.09839 -0.14347 0.41495
v -0.10494 -0.15241 0.10485
v -0.00468 -0.18499 0.10485
v -0.10605 -0.13791 0.41495
v -0.16393 -0.05824 0.41495
v -0.17449 -0.06162 0.10485
v -0.11252 -0.14690 0.10485
v -0.16685 -0.04924 0.41495
v -0.16685 0.04924 0.41495
v -0.17738 0.05271 0.10485
v -0.17738 -0.05271 0.10485
v -0.16393 0.05824 0.41495
v -0.10605 0.13791 0.41495
v -0.11252 0.14690 0.10485
v -0.17449 0.06162 0.10485
v -0.09839 0.14347 0.41495
v -0.00473 0.17390 0.41495
v -0.00468 0.18499 0.10485
v -0.10494 0.15241 0.10485
v 0.00473 0.17390 0.41495
v 0.09839 0.14347 0.41495
v 0.10494 0.15241 0.10485
v 0.00468 0.18499 0.10485
v 0.10605 0.13791 0.41495
v 0.16393 0.05824 0.41495
v 0.17449 0.06162 0.10485
v 0.11252 0.14690 0.10485
v 0.16685 0.04924 0.41495
v 0.16685 -0.04924 0.41495
v 0.17738 -0.05271 0.10485
v 0.17738 0.05271 0.10485
v 0.16393 -0.05824 0.41495
v 0.10605 -0.13791 0.41495
v 0.11252 -0.14690 0.10485
v 0.17449 -0.06162 0.10485
v 0.09839 -0.14347 0.41495
v 0.00473 -0.17390 0.41495
v 0.00468 -0.18499 0.10485
v 0.10494 -0.15241 0.10485
v -0.00473 -0.18530 0.09495
v -0.10509 -0.15269 0.09495
v -0.11094 -0.16067 -0.21515
v -0.00468 -0.19520 -0.21515
v -0.11275 -0.14713 0.09495
v -0.17477 -0.06176 0.09495
v -0.18420 -0.06477 -0.21515
v -0.11852 -0.15516 -0.21515
v -0.17770 -0.05276 0.09495
v -0.17770 0.05276 0.09495
v -0.18709 0.05586 -0.21515
v -0.18709 -0.05586 -0.21515
v -0.17477 0.06176 0.09495
v -0.11275 0.14713 0.09495
v -0.11852 0.15516 -0.21515
v -0.18420 0.06477 -0.21515
v -0.10509 0.15269 0.09495
v -0.00473 0.18530 0.09495
v -0.00468 0.19520 -0.21515
v -0.11094 0.16067 -0.21515
v 0.00473 0.18530 0.09495
v 0.10509 0.15269 0.09495
v 0.11094 0.16067 -0.21515
v 0.00468 0.19520 -0.21515
v 0.11275 0.14713 0.09495
v 0.17477 0.06176 0.09495
v 0.18420 0.06477 -0.21515
v 0.11852 0.15516 -0.21515
v 0.17770 0.05276 0.09495
v 0.17770 -0.05276 0.09495
v 0.18709 -0.05586 -0.21515
v 0.18709 0.05586 -0.21515
v 0.17477 -0.06176 0.09495
v 0.11275 -0.14713 0.09495
v 0.11852 -0.15516 -0.21515
v 0.18420 -0.06477 -0.21515
v 0.10509 -0.15269 0.09495
v 0.00473 -0.18530 0.09495
v 0.00468 -0.19520 -0.21515
v 0.11094 -0.16067 -0.21515
v -0.00472 -0.19543 -0.22504
v -0.11105 -0.16088 -0.22504
v -0.11441 -0.16546 -0.53514
v -0.00469 -0.20111 -0.53514
v -0.11869 -0.15533 -0.22504
v -0.18441 -0.06488 -0.22504
v -0.18982 -0.06661 -0.53514
v -0.12201 -0.15994 -0.53514
v -0.18733 -0.05590 -0.22504
v -0.18733 0.05590 -0.22504
v -0.19272 0.05768 -0.53514
v -0.19272 -0.05768 -0.53514
v -0.18441 0.06488 -0.22504
v -0.11869 0.15533 -0.22504
v -0.12201 0.15994 -0.53514
v -0.18982 0.06661 -0.53514
v -0.11105 0.16088 -0.22504
v -0.00472 0.19543 -0.22504
v -0.00469 0.20111 -0.53514
v -0.11441 0.16546 -0.53514
v 0.00472 0.19543 -0.22504
v 0.11105 0.16088 -0.22504
v 0.11441 0.16546 -0.53514
v 0.00469 0.20111 -0.53514
v 0.11869 0.15533 -0.22504
v 0.18441 0.06488 -0.22504
v 0.18982 0.06661 -0.53514
v 0.12201 0.15994 -0.53514
v 0.18733 0.05590 -0.22504
v 0.18733 -0.05590 -0.22504
v 0.19272 -0.05768 -0.53514
v 0.19272 0.05768 -0.53514
v 0.18441 -0.06488 -0.22504
v 0.11869 -0.15533 -0.22504
v 0.12201 -0.15994 -0.53514
v 0.18982 -0.06661 -0.53514
v 0.11105 -0.16088 -0.22504
v 0.00472 -0.19543 -0.22504
v 0.00469 -0.20111 -0.53514
v 0.11441 -0.16546 -0.53514
v -0.00472 -0.20128 -0.54504
v -0.11449 -0.16561 -0.54504
v -0.11759 -0.16983 -0.85514
v -0.00470 -0.20652 -0.85514
v -0.12212 -0.16006 -0.54504
v -0.18997 -0.06669 -0.54504
v -0.19496 -0.06828 -0.85514
v -0.12519 -0.16432 -0.85514
v -0.19288 -0.05771 -0.54504
v -0.19288 0.05771 -0.54504
v -0.19786 0.05935 -0.85514
v -0.19786 -0.05935 -0.85514
v -0.18997 0.06669 -0.54504
v -0.12212 0.16006 -0.54504
v -0.12519 0.16432 -0.85514
v -0.19496 0.06828 -0.85514
v -0.11449 0.16561 -0.54504
v -0.00472 0.20128 -0.54504
v -0.00470 0.20652 -0.85514
v -0.11759 0.16983 -0.85514
v 0.00472 0.20128 -0.54504
v 0.11449 0.16561 -0.54504
v 0.11759 0.16983 -0.85514
v 0.00470 0.20652 -0.85514
v 0.12212 0.16006 -0.54504
v 0.18997 0.06669 -0.54504
v 0.19496 0.06828 -0.85514
v 0.12519 0.16432 -0.85514
v 0.19288 0.05771 -0.54504
v 0.19288 -0.05771 -0.54504
v 0.19786 -0.05935 -0.85514
v 0.19786 0.05935 -0.85514
v 0.18997 -0.06669 -0.54504
v 0.12212 -0.16006 -0.54504
v 0.12519 -0.16432 -0.85514
v 0.19496 -0.06828 -0.85514
v 0.11449 -0.16561 -0.54504
v 0.00472 -0.20128 -0.54504
v 0.00470 -0.20652 -0.85514
v 0.11759 -0.16983 -0.85514
v -0.00472 -0.20668 -0.86504
v -0.11766 -0.16998 -0.86504
v -0.12076 -0.17420 -1.17514
v -0.00470 -0.21192 -1.17514
v -0.12530 -0.16443 -0.86504
v -0.19510 -0.06835 -0.86504
v -0.20009 -0.06995 -1.17514
v -0.12836 -0.16868 -1.17514
v -0.19802 -0.05938 -0.86504
v -0.19802 0.05938 -0.86504
v -0.20300 0.06102 -1.17514
v -0.20300 -0.06102 -1.17514
v -0.19510 0.06835 -0.86504
v -0.12530 0.16443 -0.86504
v -0.12836 0.16868 -1.17514
v -0.20009 0.06995 -1.17514
v -0.11766 0.16998 -0.86504
v -0.00472 0.20668 -0.86504
v -0.00470 0.21192 -1.17514
v -0.12076 0.17420 -1.17514
v 0.00472 0.20668 -0.86504
v 0.11766 0.16998 -0.86504
v 0.12076 0.17420 -1.17514
v 0.00470 0.21192 -1.17514
v 0.12530 0.16443 -0.86504
v 0.19510 0.06835 -0.86504
v 0.20009 0.06995 -1.17514
v 0.12836 0.16868 -1.17514
v 0.19802 0.05938 -0.86504
v 0.19802 -0.05938 -0.86504
v 0.20300 -0.06102 -1.17514
v 0.20300 0.06102 -1.17514
v 0.19510 -0.06835 -0.86504
v 0.12530 -0.16443 -0.86504
v 0.12836 -0.16868 -1.17514
v 0.20009 -0.06995 -1.17514
v 0.11766 -0.16998 -0.86504
v 0.00472 -0.20668 -0.86504
v 0.00470 -0.21192 -1.17514
v 0.12076 -0.17420 -1.17514
v -0.00472 -0.21208 -1.18504
v -0.12084 -0.17435 -1.18504
v -0.12394 -0.17857 -1.49514
v -0.00470 -0.21732 -1.49514
v -0.12847 -0.16880 -1.18504
v -0.20024 -0.07002 -1.18504
v -0.20523 -0.07162 -1.49514
v -0.13153 -0.17305 -1.49514
v -0.20315 -0.06105 -1.18504
v -0.20315 0.06105 -1.18504
v -0.20813 0.06269 -1.49514
v -0.20813 -0.06269 -1.49514
v -0.20024 0.07002 -1.18504
v -0.12847 0.16880 -1.18504
v -0.13153 0.17305 -1.49514
v -0.20523 0.07162 -1.49514
v -0.12084 0.17435 -1.18504
v -0.00472 0.21208 -1.18504
v -0.00470 0.21732 -1.49514
v -0.12394 0.17857 -1.49514
v 0.00472 0.21208 -1.18504
v 0.12084 0.17435 -1.18504
v 0.12394 0.17857 -1.49514
v 0.00470 0.21732 -1.49514
v 0.12847 0.16880 -1.18504
v 0.20024 0.07002 -1.18504
v 0.20523 0.07162 -1.49514
v 0.13153 0.17305 -1.49514
v 0.20315 0.06105 -1.18504
v 0.20315 -0.06105 -1.18504
v 0.20813 -0.06269 -1.49514
v 0.20813 0.06269 -1.49514
v 0.20024 -0.07002 -1.18504
v 0.12847 -0.16880 -1.18504
v 0.13153 -0.17305 -1.49514
v 0.20523 -0.07162 -1.49514
v 0.12084 -0.17435 -1.18504
v 0.00472 -0.21208 -1.18504
v 0.00470 -0.21732 -1.49514
v 0.12394 -0.17857 -1.49514
v -0.00537 -0.22746 -1.80429
v -0.13030 -0.18592 -1.80556
v -0.18166 -0.13861 -2.04586
v -0.07412 -0.21562 -2.04460
v -0.13804 -0.18086 -1.80429
v -0.21469 -0.07383 -1.80556
v -0.22844 -0.00537 -2.04586
v -0.18671 -0.13087 -2.04460
v -0.21799 -0.06518 -1.80429
v -0.21708 0.06647 -1.80556
v -0.18796 0.12993 -2.04586
v -0.22797 0.00387 -2.04460
v -0.21467 0.07540 -1.80429
v -0.13656 0.18137 -1.80556
v -0.07569 0.21560 -2.04586
v -0.18216 0.13713 -2.04460
v -0.12935 0.18718 -1.80429
v -0.00387 0.22700 -1.80556
v 0.06549 0.21892 -2.04586
v -0.06677 0.21801 -2.04460
v 0.00537 0.22746 -1.80429
v 0.13030 0.18592 -1.80556
v 0.18166 0.13861 -2.04586
v 0.07412 0.21562 -2.04460
v 0.13804 0.18086 -1.80429
v 0.21469 0.07383 -1.80556
v 0.22844 0.00537 -2.04586
v 0.18671 0.13087 -2.04460
v 0.21799 0.06518 -1.80429
v 0.21708 -0.06647 -1.80556
v 0.18796 -0.12993 -2.04586
v 0.22797 -0.00387 -2.04460
v 0.21467 -0.07540 -1.80429
v 0.13656 -0.18137 -1.80556
v 0.07569 -0.21560 -2.04586
v 0.18216 -0.13713 -2.04460
v 0.12935 -0.18718 -1.80429
v 0.00387 -0.22700 -1.80556
v -0.06549 -0.21892 -2.04586
v 0.06677 -0.21801 -2.04460
v -0.07570 -0.21561 -2.05429
v -0.18218 -0.13714 -2.05555
v -0.21561 -0.07570 -2.29586
v -0.13714 -0.18218 -2.29459
v -0.18798 -0.12994 -2.05429
v -0.22799 -0.00387 -2.05555
v -0.21893 0.06549 -2.29586
v -0.21803 -0.06678 -2.29459
v -0.22845 0.00537 -2.05429
v -0.18672 0.13088 -2.05555
v -0.13863 0.18167 -2.29586
v -0.21564 0.07413 -2.29459
v -0.18167 0.13863 -2.05429
v -0.07413 0.21564 -2.05555
v -0.00537 0.22845 -2.29586
v -0.13088 0.18672 -2.29459
v -0.06549 0.21893 -2.05429
v 0.06678 0.21803 -2.05555
v 0.12994 0.18798 -2.29586
v 0.00387 0.22799 -2.29459
v 0.07570 0.21561 -2.05429
v 0.18218 0.13714 -2.05555
v 0.21561 0.07570 -2.29586
v 0.13714 0.18218 -2.29459
v 0.18798 0.12994 -2.05429
v 0.22799 0.00387 -2.05555
v 0.21893 -0.06549 -2.29586
v 0.21803 0.06678 -2.29459
v 0.22845 -0.00537 -2.05429
v 0.18672 -0.13088 -2.05555
v 0.13863 -0.18167 -2.29586
v 0.21564 -0.07413 -2.29459
v 0.18167 -0.13863 -2.05429
v 0.07413 -0.21564 -2.05555
v 0.00537 -0.22845 -2.29586
v 0.13088 -0.18672 -2.29459
v 0.06549 -0.21893 -2.05429
v -0.06678 -0.21803 -2.05555
v -0.12994 -0.18798 -2.29586
v -0.00387 -0.22799 -2.29459
v -0.13863 -0.18167 -2.30429
v -0.21564 -0.07413 -2.30555
v -0.22845 -0.00537 -2.54586
v -0.18672 -0.13088 -2.54459
v -0.21893 -0.06549 -2.30429
v -0.21803 0.06678 -2.30555
v -0.18798 0.12994 -2.54586
v -0.22799 0.00387 -2.54459
v -0.21561 0.07570 -2.30429
v -0.13714 0.18218 -2.30555
v -0.07570 0.21561 -2.54586
v -0.18218 0.13714 -2.54459
v -0.12994 0.18798 -2.30429
v -0.00387 0.22799 -2.30555
v 0.06549 0.21893 -2.54586
v -0.06678 0.21803 -2.54459
v 0.00537 0.22845 -2.30429
v 0.13088 0.18672 -2.30555
v 0.18167 0.13863 -2.54586
v 0.07413 0.21564 -2.54459
v 0.13863 0.18167 -2.30429
v 0.21564 0.07413 -2.30555
v 0.22845 0.00537 -2.54586
v 0.18672 0.13088 -2.54459
v 0.21893 0.06549 -2.30429
v 0.21803 -0.06678 -2.30555
v 0.18798 -0.12994 -2.54586
v 0.22799 -0.00387 -2.54459
v 0.21561 -0.07570 -2.30429
v 0.13714 -0.18218 -2.30555
v 0.07570 -0.21561 -2.54586
v 0.18218 -0.13714 -2.54459
v 0.12994 -0.18798 -2.30429
v 0.00387 -0.22799 -2.30555
v -0.06549 -0.21893 -2.54586
v 0.06678 -0.21803 -2.54459
v -0.00537 -0.22845 -2.30429
v -0.13088 -0.18672 -2.30555
v -0.18167 -0.13863 -2.54586
v -0.07413 -0.21564 -2.54459
v -0.18798 -0.12994 -2.55429
v -0.22799 -0.00387 -2.55555
v -0.21893 0.06549 -2.79586
v -0.21803 -0.06678 -2.79459
v -0.22845 0.00537 -2.55429
v -0.18672 0.13088 -2.55555
v -0.13863 0.18167 -2.79586
v -0.21564 0.07413 -2.79459
v -0.18167 0.13863 -2.55429
v -0.07413 0.21564 -2.55555
v -0.00537 0.22845 -2.79586
v -0.13088 0.18672 -2.79459
v -0.06549 0.21893 -2.55429
v 0.06678 0.21803 -2.55555
v 0.12994 0.18798 -2.79586
v 0.00387 0.22799 -2.79459
v 0.07570 0.21561 -2.55429
v 0.18218 0.13714 -2.55555
v 0.21561 0.07570 -2.79586
v 0.13714 0.18218 -2.79459
v 0.18798 0.12994 -2.55429
v 0.22799 0.00387 -2.55555
v 0.21893 -0.06549 -2.79586
v 0.21803 0.06678 -2.79459
v 0.22845 -0.00537 -2.55429
v 0.18672 -0.13088 -2.55555
v 0.13863 -0.18167 -2.79586
v 0.21564 -0.07413 -2.79459
v 0.18167 -0.13863 -2.55429
v 0.07413 -0.21564 -2.55555
v 0.00537 -0.22845 -2.79586
v 0.13088 -0.18672 -2.79459
v 0.06549 -0.21893 -2.55429
v -0.06678 -0.21803 -2.55555
v -0.12994 -0.18798 -2.79586
v -0.00387 -0.22799 -2.79459
v -0.07570 -0.21561 -2.55429
v -0.18218 -0.13714 -2.55555
v -0.21561 -0.07570 -2.79586
v -0.13714 -0.18218 -2.79459
v -0.21893 -0.06549 -2.80429
v -0.21803 0.06678 -2.80555
v -0.18798 0.12994 -3.04586
v -0.22799 0.00387 -3.04459
v -0.21561 0.07570 -2.80429
v -0.13714 0.18218 -2.80555
v -0.07570 0.21561 -3.04586
v -0.18218 0.13714 -3.04459
v -0.12994 0.18798 -2.80429
v -0.00387 0.22799 -2.80555
v 0.06549 0.21893 -3.04586
v -0.06678 0.21803 -3.04459
v 0.00537 0.22845 -2.80429
v 0.13088 0.18672 -2.80555
v 0.18167 0.13863 -3.04586
v 0.07413 0.21564 -3.04459
v 0.13863 0.18167 -2.80429
v 0.21564 0.07413 -2.80555
v 0.22845 0.00537 -3.04586
v 0.18672 0.13088 -3.04459
v 0.21893 0.06549 -2.80429
v 0.21803 -0.06678 -2.80555
v 0.18798 -0.12994 -3.04586
v 0.22799 -0.00387 -3.04459
v 0.21561 -0.07570 -2.80429
v 0.13714 -0.18218 -2.80555
v 0.07570 -0.21561 -3.04586
v 0.18218 -0.13714 -3.04459
v 0.12994 -0.18798 -2.80429
v 0.00387 -0.22799 -2.80555
v -0.06549 -0.21893 -3.04586
v 0.06678 -0.21803 -3.04459
v -0.00537 -0.22845 -2.80429
v -0.13088 -0.18672 -2.80555
v -0.18167 -0.13863 -3.04586
v -0.07413 -0.21564 -3.04459
v -0.13863 -0.18167 -2.80429
v -0.21564 -0.07413 -2.80555
v -0.22845 -0.00537 -3.04586
v -0.18672 -0.13088 -3.04459
v -0.22845 0.00537 -3.05429
v -0.18672 0.13088 -3.05555
v -0.13863 0.18167 -3.29586
v -0.21564 0.07413 -3.29459
v -0.18167 0.13863 -3.05429
v -0.07413 0.21564 -3.05555
v -0.00537 0.22845 -3.29586
v -0.13088 0.18672 -3.29459
v -0.06549 0.21893 -3.05429
v 0.06678 0.21803 -3.05555
v 0.12994 0.18798 -3.29586
v 0.00387 0.22799 -3.29459
v 0.07570 0.21561 -3.05429
v 0.18218 0.13714 -3.05555
v 0.21561 0.07570 -3.29586
v 0.13714 0.18218 -3.29459
v 0.18798 0.12994 -3.05429
v 0.22799 0.00387 -3.05555
v 0.21893 -0.06549 -3.29586
v 0.21803 0.06678 -3.29459
v 0.22845 -0.00537 -3.05429
v 0.18672 -0.13088 -3.05555
v 0.13863 -0.18167 -3.29586
v 0.21564 -0.07413 -3.29459
v 0.18167 -0.13863 -3.05429
v 0.07413 -0.21564 -3.05555
v 0.00537 -0.22845 -3.29586
v 0.13088 -0.18672 -3.29459
v 0.06549 -0.21893 -3.05429
v -0.06678 -0.21803 -3.05555
v -0.12994 -0.18798 -3.29586
v -0.00387 -0.22799 -3.29459
v -0.07570 -0.21561 -3.05429
v -0.18218 -0.13714 -3.05555
v -0.21561 -0.07570 -3.29586
v -0.13714 -0.18218 -3.29459
v -0.18798 -0.12994 -3.05429
v -0.22799 -0.00387 -3.05555
v -0.21893 0.06549 -3.29586
v -0.21803 -0.06678 -3.29459
f 462 1 461
f 461 4 462
f 463 3 462
f 463 4 24
f 463 21 23
f 463 22 464
f 464 1 21
f 464 2 461
f 465 5 3
f 466 4 6
f 467 5 466
f 467 6 26
f 468 25 467
f 467 24 468
f 468 3 23
f 468 4 465
f 470 5 469
f 469 8 470
f 471 7 470
f 471 8 28
f 472 27 471
f 471 26 472
f 472 5 25
f 472 6 469
f 473 9 7
f 473 10 474
f 475 9 474
f 475 10 30
f 475 27 29
f 475 28 476
f 476 7 27
f 476 8 473
f 477 11 9
f 478 10 12
f 479 11 478
f 479 12 32
f 480 31 479
f 480 32 30
f 480 9 29
f 480 10 477
f 482 11 481
f 481 14 482
f 483 13 482
f 483 14 34
f 483 31 33
f 483 32 484
f 484 11 31
f 484 12 481
f 485 15 13
f 486 14 16
f 487 15 486
f 487 16 36
f 488 35 487
f 487 34 488
f 488 13 33
f 488 14 485
f 490 15 489
f 489 18 490
f 491 17 490
f 491 18 38
f 492 37 491
f 491 36 492
f 492 15 35
f 492 16 489
f 493 19 17
f 493 20 494
f 495 19 494
f 495 20 40
f 495 37 39
f 495 38 496
f 496 17 37
f 496 18 493
f 497 1 19
f 498 20 2
f 499 1 498
f 499 2 22
f 500 21 499
f 500 22 40
f 500 19 39
f 500 20 497
f 502 21 501
f 501 24 502
f 503 23 502
f 503 24 44
f 503 41 43
f 504 44 42
f 504 21 41
f 504 22 501
f 506 23 505
f 505 26 506
f 507 25 506
f 507 26 46
f 507 43 45
f 508 46 44
f 508 23 43
f 508 24 505
f 510 25 509
f 509 28 510
f 511 27 510
f 511 28 48
f 512 47 511
f 511 46 512
f 512 25 45
f 512 26 509
f 514 27 513
f 513 30 514
f 515 29 514
f 515 30 50
f 516 49 515
f 516 50 48
f 516 27 47
f 516 28 513
f 518 29 517
f 518 30 32
f 519 31 518
f 519 32 52
f 520 51 519
f 519 50 520
f 520 29 49
f 520 30 517
f 522 31 521
f 521 34 522
f 523 33 522
f 523 34 54
f 523 51 53
f 524 54 52
f 524 31 51
f 524 32 521
f 526 33 525
f 525 36 526
f 527 35 526
f 527 36 56
f 527 53 55
f 528 56 54
f 528 33 53
f 528 34 525
f 530 35 529
f 529 38 530
f 531 37 530
f 531 38 58
f 532 57 531
f 531 56 532
f 532 35 55
f 532 36 529
f 534 37 533
f 533 40 534
f 535 39 534
f 535 40 60
f 536 59 535
f 536 60 58
f 536 37 57
f 536 38 533
f 538 39 537
f 538 40 22
f 539 21 538
f 539 22 42
f 540 41 539
f 539 60 540
f 540 39 59
f 540 40 537
f 542 41 541
f 541 44 542
f 543 43 542
f 543 44 64
f 543 61 63
f 543 62 544
f 544 41 61
f 544 42 541
f 546 43 545
f 545 46 546
f 547 45 546
f 547 46 66
f 547 63 65
f 547 64 548
f 548 43 63
f 548 44 545
f 550 45 549
f 549 48 550
f 551 47 550
f 551 48 68
f 551 65 67
f 552 68 66
f 552 45 65
f 552 46 549
f 554 47 553
f 553 50 554
f 555 49 554
f 555 50 70
f 556 69 555
f 556 70 68
f 556 47 67
f 556 48 553
f 558 49 557
f 557 52 558
f 559 51 558
f 559 52 72
f 560 71 559
f 560 72 70
f 560 49 69
f 560 50 557
f 562 51 561
f 561 54 562
f 563 53 562
f 563 54 74
f 563 71 73
f 563 72 564
f 564 51 71
f 564 52 561
f 566 53 565
f 565 56 566
f 567 55 566
f 567 56 76
f 567 73 75
f 567 74 568
f 568 53 73
f 568 54 565
f 570 55 569
f 569 58 570
f 571 57 570
f 571 58 78
f 571 75 77
f 572 78 76
f 572 55 75
f 572 56 569
f 574 57 573
f 573 60 574
f 575 59 574
f 575 60 80
f 576 79 575
f 576 80 78
f 576 57 77
f 576 58 573
f 578 59 577
f 577 42 578
f 579 41 578
f 579 42 62
f 580 61 579
f 580 62 80
f 580 59 79
f 580 60 577
f 582 61 581
f 581 64 582
f 583 63 582
f 583 64 84
f 583 81 83
f 583 82 584
f 584 61 81
f 584 62 581
f 585 65 63
f 586 64 66
f 587 65 586
f 587 66 86
f 588 85 587
f 587 84 588
f 588 63 83
f 588 64 585
f 590 65 589
f 589 68 590
f 591 67 590
f 591 68 88
f 592 87 591
f 592 88 86
f 592 65 85
f 592 66 589
f 594 67 593
f 593 70 594
f 595 69 594
f 595 70 90
f 595 87 89
f 595 88 596
f 596 67 87
f 596 68 593
f 597 71 69
f 598 70 72
f 599 71 598
f 599 72 92
f 600 91 599
f 600 92 90
f 600 69 89
f 600 70 597
f 602 71 601
f 601 74 602
f 603 73 602
f 603 74 94
f 603 91 93
f 603 92 604
f 604 71 91
f 604 72 601
f 605 75 73
f 606 74 76
f 607 75 606
f 607 76 96
f 608 95 607
f 607 94 608
f 608 73 93
f 608 74 605
f 610 75 609
f 609 78 610
f 611 77 610
f 611 78 98
f 612 97 611
f 612 98 96
f 612 75 95
f 612 76 609
f 614 77 613
f 613 80 614
f 615 79 614
f 615 80 100
f 615 97 99
f 615 98 616
f 616 77 97
f 616 78 613
f 617 61 79
f 618 80 62
f 619 61 618
f 619 62 82
f 620 81 619
f 620 82 100
f 620 79 99
f 620 80 617
f 621 83 81
f 621 84 622
f 623 83 622
f 623 84 104
f 624 103 623
f 624 104 102
f 624 81 101
f 624 82 621
f 625 85 83
f 626 84 86
f 627 85 626
f 627 86 106
f 628 105 627
f 628 106 104
f 628 83 103
f 628 84 625
f 629 87 85
f 630 86 88
f 631 87 630
f 631 88 108
f 632 107 631
f 631 106 632
f 632 85 105
f 632 86 629
f 634 87 633
f 633 90 634
f 635 89 634
f 635 90 110
f 635 107 109
f 635 108 636
f 636 87 107
f 636 88 633
f 638 89 637
f 638 90 92
f 639 91 638
f 639 92 112
f 639 109 111
f 639 110 640
f 640 89 109
f 640 90 637
f 641 93 91
f 641 94 642
f 643 93 642
f 643 94 114
f 644 113 643
f 644 114 112
f 644 91 111
f 644 92 641
f 645 95 93
f 646 94 96
f 647 95 646
f 647 96 116
f 648 115 647
f 648 116 114
f 648 93 113
f 648 94 645
f 649 97 95
f 650 96 98
f 651 97 650
f 651 98 118
f 652 117 651
f 651 116 652
f 652 95 115
f 652 96 649
f 654 97 653
f 653 100 654
f 655 99 654
f 655 100 120
f 655 117 119
f 655 118 656
f 656 97 117
f 656 98 653
f 658 99 657
f 658 100 82
f 659 81 658
f 659 82 102
f 659 119 101
f 659 120 660
f 660 99 119
f 660 100 657
f 662 101 661
f 661 104 662
f 663 103 662
f 663 104 124
f 663 121 123
f 663 122 664
f 664 101 121
f 664 102 661
f 666 103 665
f 665 106 666
f 667 105 666
f 667 106 126
f 667 123 125
f 667 124 668
f 668 103 123
f 668 104 665
f 670 105 669
f 669 108 670
f 671 107 670
f 671 108 128
f 672 127 671
f 671 126 672
f 672 105 125
f 672 106 669
f 673 109 107
f 674 108 110
f 675 109 674
f 675 110 130
f 675 127 129
f 676 130 128
f 676 107 127
f 676 108 673
f 677 111 109
f 678 110 112
f 679 111 678
f 679 112 132
f 680 131 679
f 680 132 130
f 680 109 129
f 680 110 677
f 682 111 681
f 681 114 682
f 683 113 682
f 683 114 134
f 683 131 133
f 683 132 684
f 684 111 131
f 684 112 681
f 686 113 685
f 685 116 686
f 687 115 686
f 687 116 136
f 687 133 135
f 687 134 688
f 688 113 133
f 688 114 685
f 690 115 689
f 689 118 690
f 691 117 690
f 691 118 138
f 692 137 691
f 691 136 692
f 692 115 135
f 692 116 689
f 693 119 117
f 694 118 120
f 695 119 694
f 695 120 140
f 695 137 139
f 696 140 138
f 696 117 137
f 696 118 693
f 697 101 119
f 698 120 102
f 699 101 698
f 699 102 122
f 700 121 699
f 700 122 140
f 700 119 139
f 700 120 697
f 701 123 121
f 701 124 702
f 703 123 702
f 703 124 144
f 704 143 703
f 704 144 142
f 704 121 141
f 704 122 701
f 705 125 123
f 706 124 126
f 707 125 706
f 707 126 146
f 707 143 145
f 707 144 708
f 708 123 143
f 708 124 705
f 710 125 709
f 709 128 710
f 711 127 710
f 711 128 148
f 712 147 711
f 711 146 712
f 712 125 145
f 712 126 709
f 713 129 127
f 714 128 130
f 715 129 714
f 715 130 150
f 715 147 149
f 716 150 148
f 716 127 147
f 716 128 713
f 718 129 717
f 717 132 718
f 719 131 718
f 719 132 152
f 719 149 151
f 719 150 720
f 720 129 149
f 720 130 717
f 721 133 131
f 721 134 722
f 723 133 722
f 723 134 154
f 724 153 723
f 724 154 152
f 724 131 151
f 724 132 721
f 725 135 133
f 726 134 136
f 727 135 726
f 727 136 156
f 727 153 155
f 727 154 728
f 728 133 153
f 728 134 725
f 730 135 729
f 729 138 730
f 731 137 730
f 731 138 158
f 732 157 731
f 731 156 732
f 732 135 155
f 732 136 729
f 733 139 137
f 734 138 140
f 735 139 734
f 735 140 160
f 735 157 159
f 736 160 158
f 736 137 157
f 736 138 733
f 738 139 737
f 737 122 738
f 739 121 738
f 739 122 142
f 739 159 141
f 739 160 740
f 740 139 159
f 740 140 737
f 742 141 741
f 741 144 742
f 743 143 742
f 743 144 164
f 744 163 743
f 744 164 162
f 744 141 161
f 744 142 741
f 745 145 143
f 745 146 746
f 747 145 746
f 747 146 166
f 748 165 747
f 748 166 164
f 748 143 163
f 748 144 745
f 750 145 749
f 749 148 750
f 751 147 750
f 751 148 168
f 752 167 751
f 751 166 752
f 752 145 165
f 752 146 749
f 753 149 147
f 754 148 150
f 755 149 754
f 755 150 170
f 756 169 755
f 755 168 756
f 756 147 167
f 756 148 753
f 758 149 757
f 758 150 152
f 759 151 758
f 759 152 172
f 760 171 759
f 759 170 760
f 760 149 169
f 760 150 757
f 762 151 761
f 761 154 762
f 763 153 762
f 763 154 174
f 764 173 763
f 764 174 172
f 764 151 171
f 764 152 761
f 765 155 153
f 765 156 766
f 767 155 766
f 767 156 176
f 768 175 767
f 768 176 174
f 768 153 173
f 768 154 765
f 770 155 769
f 769 158 770
f 771 157 770
f 771 158 178
f 772 177 771
f 771 176 772
f 772 155 175
f 772 156 769
f 773 159 157
f 774 158 160
f 775 159 774
f 775 160 180
f 776 179 775
f 775 178 776
f 776 157 177
f 776 158 773
f 778 159 777
f 778 160 142
f 779 141 778
f 779 142 162
f 780 161 779
f 779 180 780
f 780 159 179
f 780 160 777
f 782 161 781
f 782 162 164
f 783 163 782
f 783 164 184
f 783 181 183
f 783 182 784
f 784 161 181
f 784 162 781
f 785 165 163
f 785 166 786
f 787 165 786
f 787 166 186
f 788 185 787
f 788 186 184
f 788 163 183
f 788 164 785
f 790 165 789
f 789 168 790
f 791 167 790
f 791 168 188
f 792 187 791
f 791 186 792
f 792 165 185
f 792 166 789
f 794 167 793
f 794 168 170
f 795 169 794
f 795 170 190
f 796 189 795
f 795 188 796
f 796 167 187
f 796 168 793
f 797 171 169
f 797 172 798
f 799 171 798
f 799 172 192
f 800 191 799
f 800 192 190
f 800 169 189
f 800 170 797
f 802 171 801
f 802 172 174
f 803 173 802
f 803 174 194
f 803 191 193
f 803 192 804
f 804 171 191
f 804 172 801
f 805 175 173
f 805 176 806
f 807 175 806
f 807 176 196
f 808 195 807
f 808 196 194
f 808 173 193
f 808 174 805
f 810 175 809
f 809 178 810
f 811 177 810
f 811 178 198
f 812 197 811
f 811 196 812
f 812 175 195
f 812 176 809
f 814 177 813
f 814 178 180
f 815 179 814
f 815 180 200
f 816 199 815
f 815 198 816
f 816 177 197
f 816 178 813
f 817 161 179
f 817 162 818
f 819 161 818
f 819 162 182
f 820 181 819
f 820 182 200
f 820 179 199
f 820 180 817
f 821 183 181
f 822 182 184
f 823 183 822
f 823 184 204
f 824 203 823
f 823 202 824
f 824 181 201
f 824 182 821
f 826 183 825
f 826 184 186
f 827 185 826
f 827 186 206
f 827 203 205
f 828 206 204
f 828 183 203
f 828 184 825
f 830 185 829
f 829 188 830
f 831 187 830
f 831 188 208
f 832 207 831
f 831 206 832
f 832 185 205
f 832 186 829
f 833 189 187
f 833 190 834
f 835 189 834
f 835 190 210
f 836 209 835
f 835 208 836
f 836 187 207
f 836 188 833
f 838 189 837
f 837 192 838
f 839 191 838
f 839 192 212
f 839 209 211
f 840 212 210
f 840 189 209
f 840 190 837
f 841 193 191
f 842 192 194
f 843 193 842
f 843 194 214
f 844 213 843
f 843 212 844
f 844 191 211
f 844 192 841
f 846 193 845
f 846 194 196
f 847 195 846
f 847 196 216
f 847 213 215
f 848 216 214
f 848 193 213
f 848 194 845
f 850 195 849
f 849 198 850
f 851 197 850
f 851 198 218
f 852 217 851
f 851 216 852
f 852 195 215
f 852 196 849
f 853 199 197
f 853 200 854
f 855 199 854
f 855 200 220
f 856 219 855
f 855 218 856
f 856 197 217
f 856 198 853
f 858 199 857
f 857 182 858
f 859 181 858
f 859 182 202
f 859 219 201
f 860 202 220
f 860 199 219
f 860 200 857
f 862 201 861
f 861 204 862
f 863 203 862
f 863 204 224
f 863 221 223
f 864 224 222
f 864 201 221
f 864 202 861
f 866 203 865
f 865 206 866
f 867 205 866
f 867 206 226
f 867 223 225
f 868 226 224
f 868 203 223
f 868 204 865
f 870 205 869
f 869 208 870
f 871 207 870
f 871 208 228
f 872 227 871
f 871 226 872
f 872 205 225
f 872 206 869
f 873 209 207
f 874 208 210
f 875 209 874
f 875 210 230
f 875 227 229
f 875 228 876
f 876 207 227
f 876 208 873
f 877 211 209
f 878 210 212
f 879 211 878
f 879 212 232
f 880 231 879
f 879 230 880
f 880 209 229
f 880 210 877
f 882 211 881
f 881 214 882
f 883 213 882
f 883 214 234
f 883 231 233
f 884 234 232
f 884 211 231
f 884 212 881
f 886 213 885
f 885 216 886
f 887 215 886
f 887 216 236
f 887 233 235
f 888 236 234
f 888 213 233
f 888 214 885
f 890 215 889
f 889 218 890
f 891 217 890
f 891 218 238
f 892 237 891
f 891 236 892
f 892 215 235
f 892 216 889
f 893 219 217
f 894 218 220
f 895 219 894
f 895 220 240
f 895 237 239
f 895 238 896
f 896 217 237
f 896 218 893
f 897 201 219
f 898 220 202
f 899 201 898
f 899 202 222
f 900 221 899
f 899 240 900
f 900 219 239
f 900 220 897
f 902 221 901
f 901 224 902
f 903 223 902
f 902 244 903
f 903 241 243
f 904 244 242
f 904 221 241
f 901 242 222
f 905 225 223
f 905 226 906
f 907 225 906
f 906 246 907
f 907 243 245
f 908 246 244
f 908 223 243
f 905 244 224
f 910 225 909
f 909 228 910
f 911 227 910
f 910 248 911
f 912 247 911
f 911 246 912
f 912 225 245
f 909 246 226
f 913 229 227
f 914 228 230
f 915 229 914
f 914 250 915
f 916 249 915
f 915 248 916
f 916 227 247
f 913 248 228
f 918 229 917
f 917 232 918
f 919 231 918
f 918 252 919
f 920 251 919
f 920 252 250
f 920 229 249
f 917 250 230
f 922 231 921
f 921 234 922
f 923 233 922
f 922 254 923
f 923 251 253
f 924 254 252
f 924 231 251
f 921 252 232
f 925 235 233
f 925 236 926
f 927 235 926
f 926 256 927
f 927 253 255
f 928 256 254
f 928 233 253
f 925 254 234
f 930 235 929
f 929 238 930
f 931 237 930
f 930 258 931
f 932 257 931
f 931 256 932
f 932 235 255
f 929 256 236
f 933 239 237
f 934 238 240
f 935 239 934
f 934 260 935
f 936 259 935
f 935 258 936
f 936 237 257
f 933 258 238
f 938 239 937
f 937 222 938
f 939 221 938
f 938 242 939
f 940 241 939
f 940 242 260
f 940 239 259
f 937 260 240
f 942 241 941
f 942 242 244
f 943 243 942
f 943 244 264
f 943 261 263
f 944 264 262
f 944 241 261
f 944 242 941
f 946 243 945
f 945 246 946
f 947 245 946
f 947 246 266
f 947 263 265
f 947 264 948
f 948 243 263
f 948 244 945
f 950 245 949
f 949 248 950
f 951 247 950
f 951 248 268
f 952 267 951
f 951 266 952
f 952 245 265
f 952 246 949
f 953 249 247
f 954 248 250
f 955 249 954
f 955 250 270
f 956 269 955
f 956 270 268
f 956 247 267
f 956 248 953
f 957 251 249
f 957 252 958
f 959 251 958
f 959 252 272
f 960 271 959
f 959 270 960
f 960 249 269
f 960 250 957
f 962 251 961
f 962 252 254
f 963 253 962
f 963 254 274
f 963 271 273
f 964 274 272
f 964 251 271
f 964 252 961
f 966 253 965
f 965 256 966
f 967 255 966
f 967 256 276
f 967 273 275
f 967 274 968
f 968 253 273
f 968 254 965
f 970 255 969
f 969 258 970
f 971 257 970
f 971 258 278
f 972 277 971
f 971 276 972
f 972 255 275
f 972 256 969
f 973 259 257
f 974 258 260
f 975 259 974
f 975 260 280
f 976 279 975
f 976 280 278
f 976 257 277
f 976 258 973
f 977 241 259
f 977 242 978
f 979 241 978
f 979 242 262
f 980 261 979
f 979 280 980
f 980 259 279
f 980 260 977
f 982 261 981
f 981 264 982
f 983 263 982
f 983 264 284
f 983 281 283
f 983 282 984
f 984 261 281
f 984 262 981
f 986 263 985
f 985 266 986
f 987 265 986
f 987 266 286
f 987 283 285
f 988 286 284
f 988 263 283
f 988 264 985
f 990 265 989
f 989 268 990
f 991 267 990
f 991 268 288
f 992 287 991
f 991 286 992
f 992 265 285
f 992 266 989
f 993 269 267
f 994 268 270
f 995 269 994
f 995 270 290
f 996 289 995
f 995 288 996
f 996 267 287
f 996 268 993
f 998 269 997
f 997 272 998
f 999 271 998
f 999 272 292
f 1000 291 999
f 1000 292 290
f 1000 269 289
f 1000 270 997
f 1002 271 1001
f 1001 274 1002
f 1003 273 1002
f 1003 274 294
f 1003 291 293
f 1003 292 1004
f 1004 271 291
f 1004 272 1001
f 1006 273 1005
f 1005 276 1006
f 1007 275 1006
f 1007 276 296
f 1007 293 295
f 1008 296 294
f 1008 273 293
f 1008 274 1005
f 1010 275 1009
f 1009 278 1010
f 1011 277 1010
f 1011 278 298
f 1012 297 1011
f 1011 296 1012
f 1012 275 295
f 1012 276 1009
f 1013 279 277
f 1014 278 280
f 1015 279 1014
f 1015 280 300
f 1016 299 1015
f 1015 298 1016
f 1016 277 297
f 1016 278 1013
f 1018 279 1017
f 1017 262 1018
f 1019 261 1018
f 1019 262 282
f 1020 281 1019
f 1020 282 300
f 1020 279 299
f 1020 280 1017
f 1022 281 1021
f 1022 282 284
f 1023 283 1022
f 1023 284 304
f 1024 303 1023
f 1023 302 1024
f 1024 281 301
f 1024 282 1021
f 1026 283 1025
f 1026 284 286
f 1027 285 1026
f 1027 286 306
f 1027 303 305
f 1027 304 1028
f 1028 283 303
f 1028 284 1025
f 1030 285 1029
f 1029 288 1030
f 1031 287 1030
f 1031 288 308
f 1032 307 1031
f 1031 306 1032
f 1032 285 305
f 1032 286 1029
f 1034 287 1033
f 1033 290 1034
f 1035 289 1034
f 1035 290 310
f 1035 307 309
f 1036 310 308
f 1036 287 307
f 1036 288 1033
f 1037 291 289
f 1037 292 1038
f 1039 291 1038
f 1039 292 312
f 1040 311 1039
f 1039 310 1040
f 1040 289 309
f 1040 290 1037
f 1042 291 1041
f 1042 292 294
f 1043 293 1042
f 1043 294 314
f 1044 313 1043
f 1043 312 1044
f 1044 291 311
f 1044 292 1041
f 1046 293 1045
f 1046 294 296
f 1047 295 1046
f 1047 296 316
f 1047 313 315
f 1047 314 1048
f 1048 293 313
f 1048 294 1045
f 1050 295 1049
f 1049 298 1050
f 1051 297 1050
f 1051 298 318
f 1052 317 1051
f 1051 316 1052
f 1052 295 315
f 1052 296 1049
f 1054 297 1053
f 1053 300 1054
f 1055 299 1054
f 1055 300 320
f 1055 317 319
f 1056 320 318
f 1056 297 317
f 1056 298 1053
f 1057 281 299
f 1057 282 1058
f 1059 281 1058
f 1059 282 302
f 1060 301 1059
f 1059 320 1060
f 1060 299 319
f 1060 300 1057
f 1061 323 321
f 1061 324 1062
f 1063 323 1062
f 1063 324 344
f 1063 341 343
f 1063 342 1064
f 1061 341 1064
f 1061 342 322
f 1065 325 323
f 1065 326 1066
f 1067 325 1066
f 1067 326 346
f 1067 343 345
f 1067 344 1068
f 1065 343 1068
f 1065 344 324
f 1069 327 325
f 1069 328 1070
f 1071 327 1070
f 1071 328 348
f 1071 345 347
f 1071 346 1072
f 1069 345 1072
f 1069 346 326
f 1073 329 327
f 1073 330 1074
f 1075 329 1074
f 1075 330 350
f 1075 347 349
f 1075 348 1076
f 1073 347 1076
f 1073 348 328
f 1077 331 329
f 1077 332 1078
f 1079 331 1078
f 1079 332 352
f 1079 349 351
f 1079 350 1080
f 1077 349 1080
f 1077 350 330
f 1081 333 331
f 1081 334 1082
f 1083 333 1082
f 1083 334 354
f 1083 351 353
f 1083 352 1084
f 1081 351 1084
f 1081 352 332
f 1085 335 333
f 1085 336 1086
f 1087 335 1086
f 1087 336 356
f 1087 353 355
f 1087 354 1088
f 1085 353 1088
f 1085 354 334
f 1089 337 335
f 1089 338 1090
f 1091 337 1090
f 1091 338 358
f 1091 355 357
f 1091 356 1092
f 1089 355 1092
f 1089 356 336
f 1093 339 337
f 1093 340 1094
f 1095 339 1094
f 1095 340 360
f 1095 357 359
f 1095 358 1096
f 1093 357 1096
f 1093 358 338
f 1097 321 339
f 1097 322 1098
f 1099 321 1098
f 1099 322 342
f 1099 359 341
f 1099 360 1100
f 1097 359 1100
f 1097 360 340
f 1101 343 341
f 1101 344 1102
f 1103 343 1102
f 1103 344 364
f 1103 361 363
f 1103 362 1104
f 1101 361 1104
f 1101 362 342
f 1105 345 343
f 1105 346 1106
f 1107 345 1106
f 1107 346 366
f 1107 363 365
f 1107 364 1108
f 1105 363 1108
f 1105 364 344
f 1109 347 345
f 1109 348 1110
f 1111 347 1110
f 1111 348 368
f 1111 365 367
f 1111 366 1112
f 1109 365 1112
f 1109 366 346
f 1113 349 347
f 1113 350 1114
f 1115 349 1114
f 1115 350 370
f 1115 367 369
f 1115 368 1116
f 1113 367 1116
f 1113 368 348
f 1117 351 349
f 1117 352 1118
f 1119 351 1118
f 1119 352 372
f 1119 369 371
f 1119 370 1120
f 1117 369 1120
f 1117 370 350
f 1121 353 351
f 1121 354 1122
f 1123 353 1122
f 1123 354 374
f 1123 371 373
f 1123 372 1124
f 1121 371 1124
f 1121 372 352
f 1125 355 353
f 1125 356 1126
f 1127 355 1126
f 1127 356 376
f 1127 373 375
f 1127 374 1128
f 1125 373 1128
f 1125 374 354
f 1129 357 355
f 1129 358 1130
f 1131 357 1130
f 1131 358 378
f 1131 375 377
f 1131 376 1132
f 1129 375 1132
f 1129 376 356
f 1133 359 357
f 1133 360 1134
f 1135 359 1134
f 1135 360 380
f 1135 377 379
f 1135 378 1136
f 1133 377 1136
f 1133 378 358
f 1137 341 359
f 1137 342 1138
f 1139 341 1138
f 1139 342 362
f 1139 379 361
f 1139 380 1140
f 1137 379 1140
f 1137 380 360
f 1141 363 361
f 1141 364 1142
f 1143 363 1142
f 1143 364 384
f 1143 381 383
f 1143 382 1144
f 1141 381 1144
f 1141 382 362
f 1145 365 363
f 1145 366 1146
f 1147 365 1146
f 1147 366 386
f 1147 383 385
f 1147 384 1148
f 1145 383 1148
f 1145 384 364
f 1149 367 365
f 1149 368 1150
f 1151 367 1150
f 1151 368 388
f 1151 385 387
f 1151 386 1152
f 1149 385 1152
f 1149 386 366
f 1153 369 367
f 1153 370 1154
f 1155 369 1154
f 1155 370 390
f 1155 387 389
f 1155 388 1156
f 1153 387 1156
f 1153 388 368
f 1157 371 369
f 1157 372 1158
f 1159 371 1158
f 1159 372 392
f 1159 389 391
f 1159 390 1160
f 1157 389 1160
f 1157 390 370
f 1161 373 371
f 1161 374 1162
f 1163 373 1162
f 1163 374 394
f 1163 391 393
f 1163 392 1164
f 1161 391 1164
f 1161 392 372
f 1165 375 373
f 1165 376 1166
f 1167 375 1166
f 1167 376 396
f 1167 393 395
f 1167 394 1168
f 1165 393 1168
f 1165 394 374
f 1169 377 375
f 1169 378 1170
f 1171 377 1170
f 1171 378 398
f 1171 395 397
f 1171 396 1172
f 1169 395 1172
f 1169 396 376
f 1173 379 377
f 1173 380 1174
f 1175 379 1174
f 1175 380 400
f 1175 397 399
f 1175 398 1176
f 1173 397 1176
f 1173 398 378
f 1177 361 379
f 1177 362 1178
f 1179 361 1178
f 1179 362 382
f 1179 399 381
f 1179 400 1180
f 1177 399 1180
f 1177 400 380
f 1181 383 381
f 1181 384 1182
f 1183 383 1182
f 1183 384 404
f 1183 401 403
f 1183 402 1184
f 1181 401 1184
f 1181 402 382
f 1185 385 383
f 1185 386 1186
f 1187 385 1186
f 1187 386 406
f 1187 403 405
f 1187 404 1188
f 1185 403 1188
f 1185 404 384
f 1189 387 385
f 1189 388 1190
f 1191 387 1190
f 1191 388 408
f 1191 405 407
f 1191 406 1192
f 1189 405 1192
f 1189 406 386
f 1193 389 387
f 1193 390 1194
f 1195 389 1194
f 1195 390 410
f 1195 407 409
f 1195 408 1196
f 1193 407 1196
f 1193 408 388
f 1197 391 389
f 1197 392 1198
f 1199 391 1198
f 1199 392 412
f 1199 409 411
f 1199 410 1200
f 1197 409 1200
f 1197 410 390
f 1201 393 391
f 1201 394 1202
f 1203 393 1202
f 1203 394 414
f 1203 411 413
f 1203 412 1204
f 1201 411 1204
f 1201 412 392
f 1205 395 393
f 1205 396 1206
f 1207 395 1206
f 1207 396 416
f 1207 413 415
f 1207 414 1208
f 1205 413 1208
f 1205 414 394
f 1209 397 395
f 1209 398 1210
f 1211 397 1210
f 1211 398 418
f 1211 415 417
f 1211 416 1212
f 1209 415 1212
f 1209 416 396
f 1213 399 397
f 1213 400 1214
f 1215 399 1214
f 1215 400 420
f 1215 417 419
f 1215 418 1216
f 1213 417 1216
f 1213 418 398
f 1217 381 399
f 1217 382 1218
f 1219 381 1218
f 1219 382 402
f 1219 419 401
f 1219 420 1220
f 1217 419 1220
f 1217 420 400
f 1221 403 401
f 1221 404 1222
f 1223 403 1222
f 1223 404 424
f 1223 421 423
f 1223 422 1224
f 1221 421 1224
f 1221 422 402
f 1225 405 403
f 1225 406 1226
f 1227 405 1226
f 1227 406 426
f 1227 423 425
f 1227 424 1228
f 1225 423 1228
f 1225 424 404
f 1229 407 405
f 1229 408 1230
f 1231 407 1230
f 1231 408 428
f 1231 425 427
f 1231 426 1232
f 1229 425 1232
f 1229 426 406
f 1233 409 407
f 1233 410 1234
f 1235 409 1234
f 1235 410 430
f 1235 427 429
f 1235 428 1236
f 1233 427 1236
f 1233 428 408
f 1237 411 409
f 1237 412 1238
f 1239 411 1238
f 1239 412 432
f 1239 429 431
f 1239 430 1240
f 1237 429 1240
f 1237 430 410
f 1241 413 411
f 1241 414 1242
f 1243 413 1242
f 1243 414 434
f 1243 431 433
f 1243 432 1244
f 1241 431 1244
f 1241 432 412
f 1245 415 413
f 1245 416 1246
f 1247 415 1246
f 1247 416 436
f 1247 433 435
f 1247 434 1248
f 1245 433 1248
f 1245 434 414
f 1249 417 415
f 1249 418 1250
f 1251 417 1250
f 1251 418 438
f 1251 435 437
f 1251 436 1252
f 1249 435 1252
f 1249 436 416
f 1253 419 417
f 1253 420 1254
f 1255 419 1254
f 1255 420 440
f 1255 437 439
f 1255 438 1256
f 1253 437 1256
f 1253 438 418
f 1257 401 419
f 1257 402 1258
f 1259 401 1258
f 1259 402 422
f 1259 439 421
f 1259 440 1260
f 1257 439 1260
f 1257 440 420
f 1261 423 421
f 1261 424 1262
f 1263 423 1262
f 1263 424 444
f 1263 441 443
f 1263 442 1264
f 1261 441 1264
f 1261 442 422
f 1265 425 423
f 1265 426 1266
f 1267 425 1266
f 1267 426 446
f 1267 443 445
f 1267 444 1268
f 1265 443 1268
f 1265 444 424
f 1269 427 425
f 1269 428 1270
f 1271 427 1270
f 1271 428 448
f 1271 445 447
f 1271 446 1272
f 1269 445 1272
f 1269 446 426
f 1273 429 427
f 1273 430 1274
f 1275 429 1274
f 1275 430 450
f 1275 447 449
f 1275 448 1276
f 1273 447 1276
f 1273 448 428
f 1277 431 429
f 1277 432 1278
f 1279 431 1278
f 1279 432 452
f 1279 449 451
f 1279 450 1280
f 1277 449 1280
f 1277 450 430
f 1281 433 431
f 1281 434 1282
f 1283 433 1282
f 1283 434 454
f 1283 451 453
f 1283 452 1284
f 1281 451 1284
f 1281 452 432
f 1285 435 433
f 1285 436 1286
f 1287 435 1286
f 1287 436 456
f 1287 453 455
f 1287 454 1288
f 1285 453 1288
f 1285 454 434
f 1289 437 435
f 1289 438 1290
f 1291 437 1290
f 1291 438 458
f 1291 455 457
f 1291 456 1292
f 1289 455 1292
f 1289 456 436
f 1293 439 437
f 1293 440 1294
f 1295 439 1294
f 1295 440 460
f 1295 457 459
f 1295 458 1296
f 1293 457 1296
f 1293 458 438
f 1297 421 439
f 1297 422 1298
f 1299 421 1298
f 1299 422 442
f 1299 459 441
f 1299 460 1300
f 1297 459 1300
f 1297 460 440
f 462 3 1
f 461 2 4
f 463 23 3
f 463 462 4
f 463 464 21
f 463 24 22
f 464 461 1
f 464 22 2
f 465 466 5
f 466 465 4
f 467 25 5
f 467 466 6
f 468 23 25
f 467 26 24
f 468 465 3
f 468 24 4
f 470 7 5
f 469 6 8
f 471 27 7
f 471 470 8
f 472 25 27
f 471 28 26
f 472 469 5
f 472 26 6
f 473 474 9
f 473 8 10
f 475 29 9
f 475 474 10
f 475 476 27
f 475 30 28
f 476 473 7
f 476 28 8
f 477 478 11
f 478 477 10
f 479 31 11
f 479 478 12
f 480 29 31
f 480 479 32
f 480 477 9
f 480 30 10
f 482 13 11
f 481 12 14
f 483 33 13
f 483 482 14
f 483 484 31
f 483 34 32
f 484 481 11
f 484 32 12
f 485 486 15
f 486 485 14
f 487 35 15
f 487 486 16
f 488 33 35
f 487 36 34
f 488 485 13
f 488 34 14
f 490 17 15
f 489 16 18
f 491 37 17
f 491 490 18
f 492 35 37
f 491 38 36
f 492 489 15
f 492 36 16
f 493 494 19
f 493 18 20
f 495 39 19
f 495 494 20
f 495 496 37
f 495 40 38
f 496 493 17
f 496 38 18
f 497 498 1
f 498 497 20
f 499 21 1
f 499 498 2
f 500 39 21
f 500 499 22
f 500 497 19
f 500 40 20
f 502 23 21
f 501 22 24
f 503 43 23
f 503 502 24
f 503 504 41
f 504 503 44
f 504 501 21
f 504 42 22
f 506 25 23
f 505 24 26
f 507 45 25
f 507 506 26
f 507 508 43
f 508 507 46
f 508 505 23
f 508 44 24
f 510 27 25
f 509 26 28
f 511 47 27
f 511 510 28
f 512 45 47
f 511 48 46
f 512 509 25
f 512 46 26
f 514 29 27
f 513 28 30
f 515 49 29
f 515 514 30
f 516 47 49
f 516 515 50
f 516 513 27
f 516 48 28
f 518 31 29
f 518 517 30
f 519 51 31
f 519 518 32
f 520 49 51
f 519 52 50
f 520 517 29
f 520 50 30
f 522 33 31
f 521 32 34
f 523 53 33
f 523 522 34
f 523 524 51
f 524 523 54
f 524 521 31
f 524 52 32
f 526 35 33
f 525 34 36
f 527 55 35
f 527 526 36
f 527 528 53
f 528 527 56
f 528 525 33
f 528 54 34
f 530 37 35
f 529 36 38
f 531 57 37
f 531 530 38
f 532 55 57
f 531 58 56
f 532 529 35
f 532 56 36
f 534 39 37
f 533 38 40
f 535 59 39
f 535 534 40
f 536 57 59
f 536 535 60
f 536 533 37
f 536 58 38
f 538 21 39
f 538 537 40
f 539 41 21
f 539 538 22
f 540 59 41
f 539 42 60
f 540 537 39
f 540 60 40
f 542 43 41
f 541 42 44
f 543 63 43
f 543 542 44
f 543 544 61
f 543 64 62
f 544 541 41
f 544 62 42
f 546 45 43
f 545 44 46
f 547 65 45
f 547 546 46
f 547 548 63
f 547 66 64
f 548 545 43
f 548 64 44
f 550 47 45
f 549 46 48
f 551 67 47
f 551 550 48
f 551 552 65
f 552 551 68
f 552 549 45
f 552 66 46
f 554 49 47
f 553 48 50
f 555 69 49
f 555 554 50
f 556 67 69
f 556 555 70
f 556 553 47
f 556 68 48
f 558 51 49
f 557 50 52
f 559 71 51
f 559 558 52
f 560 69 71
f 560 559 72
f 560 557 49
f 560 70 50
f 562 53 51
f 561 52 54
f 563 73 53
f 563 562 54
f 563 564 71
f 563 74 72
f 564 561 51
f 564 72 52
f 566 55 53
f 565 54 56
f 567 75 55
f 567 566 56
f 567 568 73
f 567 76 74
f 568 565 53
f 568 74 54
f 570 57 55
f 569 56 58
f 571 77 57
f 571 570 58
f 571 572 75
f 572 571 78
f 572 569 55
f 572 76 56
f 574 59 57
f 573 58 60
f 575 79 59
f 575 574 60
f 576 77 79
f 576 575 80
f 576 573 57
f 576 78 58
f 578 41 59
f 577 60 42
f 579 61 41
f 579 578 42
f 580 79 61
f 580 579 62
f 580 577 59
f 580 80 60
f 582 63 61
f 581 62 64
f 583 83 63
f 583 582 64
f 583 584 81
f 583 84 82
f 584 581 61
f 584 82 62
f 585 586 65
f 586 585 64
f 587 85 65
f 587 586 66
f 588 83 85
f 587 86 84
f 588 585 63
f 588 84 64
f 590 67 65
f 589 66 68
f 591 87 67
f 591 590 68
f 592 85 87
f 592 591 88
f 592 589 65
f 592 86 66
f 594 69 67
f 593 68 70
f 595 89 69
f 595 594 70
f 595 596 87
f 595 90 88
f 596 593 67
f 596 88 68
f 597 598 71
f 598 597 70
f 599 91 71
f 599 598 72
f 600 89 91
f 600 599 92
f 600 597 69
f 600 90 70
f 602 73 71
f 601 72 74
f 603 93 73
f 603 602 74
f 603 604 91
f 603 94 92
f 604 601 71
f 604 92 72
f 605 606 75
f 606 605 74
f 607 95 75
f 607 606 76
f 608 93 95
f 607 96 94
f 608 605 73
f 608 94 74
f 610 77 75
f 609 76 78
f 611 97 77
f 611 610 78
f 612 95 97
f 612 611 98
f 612 609 75
f 612 96 76
f 614 79 77
f 613 78 80
f 615 99 79
f 615 614 80
f 615 616 97
f 615 100 98
f 616 613 77
f 616 98 78
f 617 618 61
f 618 617 80
f 619 81 61
f 619 618 62
f 620 99 81
f 620 619 82
f 620 617 79
f 620 100 80
f 621 622 83
f 621 82 84
f 623 103 83
f 623 622 84
f 624 101 103
f 624 623 104
f 624 621 81
f 624 102 82
f 625 626 85
f 626 625 84
f 627 105 85
f 627 626 86
f 628 103 105
f 628 627 106
f 628 625 83
f 628 104 84
f 629 630 87
f 630 629 86
f 631 107 87
f 631 630 88
f 632 105 107
f 631 108 106
f 632 629 85
f 632 106 86
f 634 89 87
f 633 88 90
f 635 109 89
f 635 634 90
f 635 636 107
f 635 110 108
f 636 633 87
f 636 108 88
f 638 91 89
f 638 637 90
f 639 111 91
f 639 638 92
f 639 640 109
f 639 112 110
f 640 637 89
f 640 110 90
f 641 642 93
f 641 92 94
f 643 113 93
f 643 642 94
f 644 111 113
f 644 643 114
f 644 641 91
f 644 112 92
f 645 646 95
f 646 645 94
f 647 115 95
f 647 646 96
f 648 113 115
f 648 647 116
f 648 645 93
f 648 114 94
f 649 650 97
f 650 649 96
f 651 117 97
f 651 650 98
f 652 115 117
f 651 118 116
f 652 649 95
f 652 116 96
f 654 99 97
f 653 98 100
f 655 119 99
f 655 654 100
f 655 656 117
f 655 120 118
f 656 653 97
f 656 118 98
f 658 81 99
f 658 657 100
f 659 101 81
f 659 658 82
f 659 660 119
f 659 102 120
f 660 657 99
f 660 120 100
f 662 103 101
f 661 102 104
f 663 123 103
f 663 662 104
f 663 664 121
f 663 124 122
f 664 661 101
f 664 122 102
f 666 105 103
f 665 104 106
f 667 125 105
f 667 666 106
f 667 668 123
f 667 126 124
f 668 665 103
f 668 124 104
f 670 107 105
f 669 106 108
f 671 127 107
f 671 670 108
f 672 125 127
f 671 128 126
f 672 669 105
f 672 126 106
f 673 674 109
f 674 673 108
f 675 129 109
f 675 674 110
f 675 676 127
f 676 675 130
f 676 673 107
f 676 128 108
f 677 678 111
f 678 677 110
f 679 131 111
f 679 678 112
f 680 129 131
f 680 679 132
f 680 677 109
f 680 130 110
f 682 113 111
f 681 112 114
f 683 133 113
f 683 682 114
f 683 684 131
f 683 134 132
f 684 681 111
f 684 132 112
f 686 115 113
f 685 114 116
f 687 135 115
f 687 686 116
f 687 688 133
f 687 136 134
f 688 685 113
f 688 134 114
f 690 117 115
f 689 116 118
f 691 137 117
f 691 690 118
f 692 135 137
f 691 138 136
f 692 689 115
f 692 136 116
f 693 694 119
f 694 693 118
f 695 139 119
f 695 694 120
f 695 696 137
f 696 695 140
f 696 693 117
f 696 138 118
f 697 698 101
f 698 697 120
f 699 121 101
f 699 698 102
f 700 139 121
f 700 699 122
f 700 697 119
f 700 140 120
f 701 702 123
f 701 122 124
f 703 143 123
f 703 702 124
f 704 141 143
f 704 703 144
f 704 701 121
f 704 142 122
f 705 706 125
f 706 705 124
f 707 145 125
f 707 706 126
f 707 708 143
f 707 146 144
f 708 705 123
f 708 144 124
f 710 127 125
f 709 126 128
f 711 147 127
f 711 710 128
f 712 145 147
f 711 148 146
f 712 709 125
f 712 146 126
f 713 714 129
f 714 713 128
f 715 149 129
f 715 714 130
f 715 716 147
f 716 715 150
f 716 713 127
f 716 148 128
f 718 131 129
f 717 130 132
f 719 151 131
f 719 718 132
f 719 720 149
f 719 152 150
f 720 717 129
f 720 150 130
f 721 722 133
f 721 132 134
f 723 153 133
f 723 722 134
f 724 151 153
f 724 723 154
f 724 721 131
f 724 152 132
f 725 726 135
f 726 725 134
f 727 155 135
f 727 726 136
f 727 728 153
f 727 156 154
f 728 725 133
f 728 154 134
f 730 137 135
f 729 136 138
f 731 157 137
f 731 730 138
f 732 155 157
f 731 158 156
f 732 729 135
f 732 156 136
f 733 734 139
f 734 733 138
f 735 159 139
f 735 734 140
f 735 736 157
f 736 735 160
f 736 733 137
f 736 158 138
f 738 121 139
f 737 140 122
f 739 141 121
f 739 738 122
f 739 740 159
f 739 142 160
f 740 737 139
f 740 160 140
f 742 143 141
f 741 142 144
f 743 163 143
f 743 742 144
f 744 161 163
f 744 743 164
f 744 741 141
f 744 162 142
f 745 746 145
f 745 144 146
f 747 165 145
f 747 746 146
f 748 163 165
f 748 747 166
f 748 745 143
f 748 164 144
f 750 147 145
f 749 146 148
f 751 167 147
f 751 750 148
f 752 165 167
f 751 168 166
f 752 749 145
f 752 166 146
f 753 754 149
f 754 753 148
f 755 169 149
f 755 754 150
f 756 167 169
f 755 170 168
f 756 753 147
f 756 168 148
f 758 151 149
f 758 757 150
f 759 171 151
f 759 758 152
f 760 169 171
f 759 172 170
f 760 757 149
f 760 170 150
f 762 153 151
f 761 152 154
f 763 173 153
f 763 762 154
f 764 171 173
f 764 763 174
f 764 761 151
f 764 172 152
f 765 766 155
f 765 154 156
f 767 175 155
f 767 766 156
f 768 173 175
f 768 767 176
f 768 765 153
f 768 174 154
f 770 157 155
f 769 156 158
f 771 177 157
f 771 770 158
f 772 175 177
f 771 178 176
f 772 769 155
f 772 176 156
f 773 774 159
f 774 773 158
f 775 179 159
f 775 774 160
f 776 177 179
f 775 180 178
f 776 773 157
f 776 178 158
f 778 141 159
f 778 777 160
f 779 161 141
f 779 778 142
f 780 179 161
f 779 162 180
f 780 777 159
f 780 180 160
f 782 163 161
f 782 781 162
f 783 183 163
f 783 782 164
f 783 784 181
f 783 184 182
f 784 781 161
f 784 182 162
f 785 786 165
f 785 164 166
f 787 185 165
f 787 786 166
f 788 183 185
f 788 787 186
f 788 785 163
f 788 184 164
f 790 167 165
f 789 166 168
f 791 187 167
f 791 790 168
f 792 185 187
f 791 188 186
f 792 789 165
f 792 186 166
f 794 169 167
f 794 793 168
f 795 189 169
f 795 794 170
f 796 187 189
f 795 190 188
f 796 793 167
f 796 188 168
f 797 798 171
f 797 170 172
f 799 191 171
f 799 798 172
f 800 189 191
f 800 799 192
f 800 797 169
f 800 190 170
f 802 173 171
f 802 801 172
f 803 193 173
f 803 802 174
f 803 804 191
f 803 194 192
f 804 801 171
f 804 192 172
f 805 806 175
f 805 174 176
f 807 195 175
f 807 806 176
f 808 193 195
f 808 807 196
f 808 805 173
f 808 194 174
f 810 177 175
f 809 176 178
f 811 197 177
f 811 810 178
f 812 195 197
f 811 198 196
f 812 809 175
f 812 196 176
f 814 179 177
f 814 813 178
f 815 199 179
f 815 814 180
f 816 197 199
f 815 200 198
f 816 813 177
f 816 198 178
f 817 818 161
f 817 180 162
f 819 181 161
f 819 818 162
f 820 199 181
f 820 819 182
f 820 817 179
f 820 200 180
f 821 822 183
f 822 821 182
f 823 203 183
f 823 822 184
f 824 201 203
f 823 204 202
f 824 821 181
f 824 202 182
f 826 185 183
f 826 825 184
f 827 205 185
f 827 826 186
f 827 828 203
f 828 827 206
f 828 825 183
f 828 204 184
f 830 187 185
f 829 186 188
f 831 207 187
f 831 830 188
f 832 205 207
f 831 208 206
f 832 829 185
f 832 206 186
f 833 834 189
f 833 188 190
f 835 209 189
f 835 834 190
f 836 207 209
f 835 210 208
f 836 833 187
f 836 208 188
f 838 191 189
f 837 190 192
f 839 211 191
f 839 838 192
f 839 840 209
f 840 839 212
f 840 837 189
f 840 210 190
f 841 842 193
f 842 841 192
f 843 213 193
f 843 842 194
f 844 211 213
f 843 214 212
f 844 841 191
f 844 212 192
f 846 195 193
f 846 845 194
f 847 215 195
f 847 846 196
f 847 848 213
f 848 847 216
f 848 845 193
f 848 214 194
f 850 197 195
f 849 196 198
f 851 217 197
f 851 850 198
f 852 215 217
f 851 218 216
f 852 849 195
f 852 216 196
f 853 854 199
f 853 198 200
f 855 219 199
f 855 854 200
f 856 217 219
f 855 220 218
f 856 853 197
f 856 218 198
f 858 181 199
f 857 200 182
f 859 201 181
f 859 858 182
f 859 860 219
f 860 859 202
f 860 857 199
f 860 220 200
f 862 203 201
f 861 202 204
f 863 223 203
f 863 862 204
f 863 864 221
f 864 863 224
f 864 861 201
f 864 222 202
f 866 205 203
f 865 204 206
f 867 225 205
f 867 866 206
f 867 868 223
f 868 867 226
f 868 865 203
f 868 224 204
f 870 207 205
f 869 206 208
f 871 227 207
f 871 870 208
f 872 225 227
f 871 228 226
f 872 869 205
f 872 226 206
f 873 874 209
f 874 873 208
f 875 229 209
f 875 874 210
f 875 876 227
f 875 230 228
f 876 873 207
f 876 228 208
f 877 878 211
f 878 877 210
f 879 231 211
f 879 878 212
f 880 229 231
f 879 232 230
f 880 877 209
f 880 230 210
f 882 213 211
f 881 212 214
f 883 233 213
f 883 882 214
f 883 884 231
f 884 883 234
f 884 881 211
f 884 232 212
f 886 215 213
f 885 214 216
f 887 235 215
f 887 886 216
f 887 888 233
f 888 887 236
f 888 885 213
f 888 234 214
f 890 217 215
f 889 216 218
f 891 237 217
f 891 890 218
f 892 235 237
f 891 238 236
f 892 889 215
f 892 236 216
f 893 894 219
f 894 893 218
f 895 239 219
f 895 894 220
f 895 896 237
f 895 240 238
f 896 893 217
f 896 238 218
f 897 898 201
f 898 897 220
f 899 221 201
f 899 898 202
f 900 239 221
f 899 222 240
f 900 897 219
f 900 240 220
f 902 223 221
f 901 222 224
f 903 243 223
f 902 224 244
f 903 904 241
f 904 903 244
f 904 901 221
f 901 904 242
f 905 906 225
f 905 224 226
f 907 245 225
f 906 226 246
f 907 908 243
f 908 907 246
f 908 905 223
f 905 908 244
f 910 227 225
f 909 226 228
f 911 247 227
f 910 228 248
f 912 245 247
f 911 248 246
f 912 909 225
f 909 912 246
f 913 914 229
f 914 913 228
f 915 249 229
f 914 230 250
f 916 247 249
f 915 250 248
f 916 913 227
f 913 916 248
f 918 231 229
f 917 230 232
f 919 251 231
f 918 232 252
f 920 249 251
f 920 919 252
f 920 917 229
f 917 920 250
f 922 233 231
f 921 232 234
f 923 253 233
f 922 234 254
f 923 924 251
f 924 923 254
f 924 921 231
f 921 924 252
f 925 926 235
f 925 234 236
f 927 255 235
f 926 236 256
f 927 928 253
f 928 927 256
f 928 925 233
f 925 928 254
f 930 237 235
f 929 236 238
f 931 257 237
f 930 238 258
f 932 255 257
f 931 258 256
f 932 929 235
f 929 932 256
f 933 934 239
f 934 933 238
f 935 259 239
f 934 240 260
f 936 257 259
f 935 260 258
f 936 933 237
f 933 936 258
f 938 221 239
f 937 240 222
f 939 241 221
f 938 222 242
f 940 259 241
f 940 939 242
f 940 937 239
f 937 940 260
f 942 243 241
f 942 941 242
f 943 263 243
f 943 942 244
f 943 944 261
f 944 943 264
f 944 941 241
f 944 262 242
f 946 245 243
f 945 244 246
f 947 265 245
f 947 946 246
f 947 948 263
f 947 266 264
f 948 945 243
f 948 264 244
f 950 247 245
f 949 246 248
f 951 267 247
f 951 950 248
f 952 265 267
f 951 268 266
f 952 949 245
f 952 266 246
f 953 954 249
f 954 953 248
f 955 269 249
f 955 954 250
f 956 267 269
f 956 955 270
f 956 953 247
f 956 268 248
f 957 958 251
f 957 250 252
f 959 271 251
f 959 958 252
f 960 269 271
f 959 272 270
f 960 957 249
f 960 270 250
f 962 253 251
f 962 961 252
f 963 273 253
f 963 962 254
f 963 964 271
f 964 963 274
f 964 961 251
f 964 272 252
f 966 255 253
f 965 254 256
f 967 275 255
f 967 966 256
f 967 968 273
f 967 276 274
f 968 965 253
f 968 274 254
f 970 257 255
f 969 256 258
f 971 277 257
f 971 970 258
f 972 275 277
f 971 278 276
f 972 969 255
f 972 276 256
f 973 974 259
f 974 973 258
f 975 279 259
f 975 974 260
f 976 277 279
f 976 975 280
f 976 973 257
f 976 278 258
f 977 978 241
f 977 260 242
f 979 261 241
f 979 978 242
f 980 279 261
f 979 262 280
f 980 977 259
f 980 280 260
f 982 263 261
f 981 262 264
f 983 283 263
f 983 982 264
f 983 984 281
f 983 284 282
f 984 981 261
f 984 282 262
f 986 265 263
f 985 264 266
f 987 285 265
f 987 986 266
f 987 988 283
f 988 987 286
f 988 985 263
f 988 284 264
f 990 267 265
f 989 266 268
f 991 287 267
f 991 990 268
f 992 285 287
f 991 288 286
f 992 989 265
f 992 286 266
f 993 994 269
f 994 993 268
f 995 289 269
f 995 994 270
f 996 287 289
f 995 290 288
f 996 993 267
f 996 288 268
f 998 271 269
f 997 270 272
f 999 291 271
f 999 998 272
f 1000 289 291
f 1000 999 292
f 1000 997 269
f 1000 290 270
f 1002 273 271
f 1001 272 274
f 1003 293 273
f 1003 1002 274
f 1003 1004 291
f 1003 294 292
f 1004 1001 271
f 1004 292 272
f 1006 275 273
f 1005 274 276
f 1007 295 275
f 1007 1006 276
f 1007 1008 293
f 1008 1007 296
f 1008 1005 273
f 1008 294 274
f 1010 277 275
f 1009 276 278
f 1011 297 277
f 1011 1010 278
f 1012 295 297
f 1011 298 296
f 1012 1009 275
f 1012 296 276
f 1013 1014 279
f 1014 1013 278
f 1015 299 279
f 1015 1014 280
f 1016 297 299
f 1015 300 298
f 1016 1013 277
f 1016 298 278
f 1018 261 279
f 1017 280 262
f 1019 281 261
f 1019 1018 262
f 1020 299 281
f 1020 1019 282
f 1020 1017 279
f 1020 300 280
f 1022 283 281
f 1022 1021 282
f 1023 303 283
f 1023 1022 284
f 1024 301 303
f 1023 304 302
f 1024 1021 281
f 1024 302 282
f 1026 285 283
f 1026 1025 284
f 1027 305 285
f 1027 1026 286
f 1027 1028 303
f 1027 306 304
f 1028 1025 283
f 1028 304 284
f 1030 287 285
f 1029 286 288
f 1031 307 287
f 1031 1030 288
f 1032 305 307
f 1031 308 306
f 1032 1029 285
f 1032 306 286
f 1034 289 287
f 1033 288 290
f 1035 309 289
f 1035 1034 290
f 1035 1036 307
f 1036 1035 310
f 1036 1033 287
f 1036 308 288
f 1037 1038 291
f 1037 290 292
f 1039 311 291
f 1039 1038 292
f 1040 309 311
f 1039 312 310
f 1040 1037 289
f 1040 310 290
f 1042 293 291
f 1042 1041 292
f 1043 313 293
f 1043 1042 294
f 1044 311 313
f 1043 314 312
f 1044 1041 291
f 1044 312 292
f 1046 295 293
f 1046 1045 294
f 1047 315 295
f 1047 1046 296
f 1047 1048 313
f 1047 316 314
f 1048 1045 293
f 1048 314 294
f 1050 297 295
f 1049 296 298
f 1051 317 297
f 1051 1050 298
f 1052 315 317
f 1051 318 316
f 1052 1049 295
f 1052 316 296
f 1054 299 297
f 1053 298 300
f 1055 319 299
f 1055 1054 300
f 1055 1056 317
f 1056 1055 320
f 1056 1053 297
f 1056 318 298
f 1057 1058 281
f 1057 300 282
f 1059 301 281
f 1059 1058 282
f 1060 319 301
f 1059 302 320
f 1060 1057 299
f 1060 320 300
f 1061 1062 323
f 1061 322 324
f 1063 343 323
f 1063 1062 324
f 1063 1064 341
f 1063 344 342
f 1061 321 341
f 1061 1064 342
f 1065 1066 325
f 1065 324 326
f 1067 345 325
f 1067 1066 326
f 1067 1068 343
f 1067 346 344
f 1065 323 343
f 1065 1068 344
f 1069 1070 327
f 1069 326 328
f 1071 347 327
f 1071 1070 328
f 1071 1072 345
f 1071 348 346
f 1069 325 345
f 1069 1072 346
f 1073 1074 329
f 1073 328 330
f 1075 349 329
f 1075 1074 330
f 1075 1076 347
f 1075 350 348
f 1073 327 347
f 1073 1076 348
f 1077 1078 331
f 1077 330 332
f 1079 351 331
f 1079 1078 332
f 1079 1080 349
f 1079 352 350
f 1077 329 349
f 1077 1080 350
f 1081 1082 333
f 1081 332 334
f 1083 353 333
f 1083 1082 334
f 1083 1084 351
f 1083 354 352
f 1081 331 351
f 1081 1084 352
f 1085 1086 335
f 1085 334 336
f 1087 355 335
f 1087 1086 336
f 1087 1088 353
f 1087 356 354
f 1085 333 353
f 1085 1088 354
f 1089 1090 337
f 1089 336 338
f 1091 357 337
f 1091 1090 338
f 1091 1092 355
f 1091 358 356
f 1089 335 355
f 1089 1092 356
f 1093 1094 339
f 1093 338 340
f 1095 359 339
f 1095 1094 340
f 1095 1096 357
f 1095 360 358
f 1093 337 357
f 1093 1096 358
f 1097 1098 321
f 1097 340 322
f 1099 341 321
f 1099 1098 322
f 1099 1100 359
f 1099 342 360
f 1097 339 359
f 1097 1100 360
f 1101 1102 343
f 1101 342 344
f 1103 363 343
f 1103 1102 344
f 1103 1104 361
f 1103 364 362
f 1101 341 361
f 1101 1104 362
f 1105 1106 345
f 1105 344 346
f 1107 365 345
f 1107 1106 346
f 1107 1108 363
f 1107 366 364
f 1105 343 363
f 1105 1108 364
f 1109 1110 347
f 1109 346 348
f 1111 367 347
f 1111 1110 348
f 1111 1112 365
f 1111 368 366
f 1109 345 365
f 1109 1112 366
f 1113 1114 349
f 1113 348 350
f 1115 369 349
f 1115 1114 350
f 1115 1116 367
f 1115 370 368
f 1113 347 367
f 1113 1116 368
f 1117 1118 351
f 1117 350 352
f 1119 371 351
f 1119 1118 352
f 1119 1120 369
f 1119 372 370
f 1117 349 369
f 1117 1120 370
f 1121 1122 353
f 1121 352 354
f 1123 373 353
f 1123 1122 354
f 1123 1124 371
f 1123 374 372
f 1121 351 371
f 1121 1124 372
f 1125 1126 355
f 1125 354 356
f 1127 375 355
f 1127 1126 356
f 1127 1128 373
f 1127 376 374
f 1125 353 373
f 1125 1128 374
f 1129 1130 357
f 1129 356 358
f 1131 377 357
f 1131 1130 358
f 1131 1132 375
f 1131 378 376
f 1129 355 375
f 1129 1132 376
f 1133 1134 359
f 1133 358 360
f 1135 379 359
f 1135 1134 360
f 1135 1136 377
f 1135 380 378
f 1133 357 377
f 1133 1136 378
f 1137 1138 341
f 1137 360 342
f 1139 361 341
f 1139 1138 342
f 1139 1140 379
f 1139 362 380
f 1137 359 379
f 1137 1140 380
f 1141 1142 363
f 1141 362 364
f 1143 383 363
f 1143 1142 364
f 1143 1144 381
f 1143 384 382
f 1141 361 381
f 1141 1144 382
f 1145 1146 365
f 1145 364 366
f 1147 385 365
f 1147 1146 366
f 1147 1148 383
f 1147 386 384
f 1145 363 383
f 1145 1148 384
f 1149 1150 367
f 1149 366 368
f 1151 387 367
f 1151 1150 368
f 1151 1152 385
f 1151 388 386
f 1149 365 385
f 1149 1152 386
f 1153 1154 369
f 1153 368 370
f 1155 389 369
f 1155 1154 370
f 1155 1156 387
f 1155 390 388
f 1153 367 387
f 1153 1156 388
f 1157 1158 371
f 1157 370 372
f 1159 391 371
f 1159 1158 372
f 1159 1160 389
f 1159 392 390
f 1157 369 389
f 1157 1160 390
f 1161 1162 373
f 1161 372 374
f 1163 393 373
f 1163 1162 374
f 1163 1164 391
f 1163 394 392
f 1161 371 391
f 1161 1164 392
f 1165 1166 375
f 1165 374 376
f 1167 395 375
f 1167 1166 376
f 1167 1168 393
f 1167 396 394
f 1165 373 393
f 1165 1168 394
f 1169 1170 377
f 1169 376 378
f 1171 397 377
f 1171 1170 378
f 1171 1172 395
f 1171 398 396
f 1169 375 395
f 1169 1172 396
f 1173 1174 379
f 1173 378 380
f 1175 399 379
f 1175 1174 380
f 1175 1176 397
f 1175 400 398
f 1173 377 397
f 1173 1176 398
f 1177 1178 361
f 1177 380 362
f 1179 381 361
f 1179 1178 362
f 1179 1180 399
f 1179 382 400
f 1177 379 399
f 1177 1180 400
f 1181 1182 383
f 1181 382 384
f 1183 403 383
f 1183 1182 384
f 1183 1184 401
f 1183 404 402
f 1181 381 401
f 1181 1184 402
f 1185 1186 385
f 1185 384 386
f 1187 405 385
f 1187 1186 386
f 1187 1188 403
f 1187 406 404
f 1185 383 403
f 1185 1188 404
f 1189 1190 387
f 1189 386 388
f 1191 407 387
f 1191 1190 388
f 1191 1192 405
f 1191 408 406
f 1189 385 405
f 1189 1192 406
f 1193 1194 389
f 1193 388 390
f 1195 409 389
f 1195 1194 390
f 1195 1196 407
f 1195 410 408
f 1193 387 407
f 1193 1196 408
f 1197 1198 391
f 1197 390 392
f 1199 411 391
f 1199 1198 392
f 1199 1200 409
f 1199 412 410
f 1197 389 409
f 1197 1200 410
f 1201 1202 393
f 1201 392 394
f 1203 413 393
f 1203 1202 394
f 1203 1204 411
f 1203 414 412
f 1201 391 411
f 1201 1204 412
f 1205 1206 395
f 1205 394 396
f 1207 415 395
f 1207 1206 396
f 1207 1208 413
f 1207 416 414
f 1205 393 413
f 1205 1208 414
f 1209 1210 397
f 1209 396 398
f 1211 417 397
f 1211 1210 398
f 1211 1212 415
f 1211 418 416
f 1209 395 415
f 1209 1212 416
f 1213 1214 399
f 1213 398 400
f 1215 419 399
f 1215 1214 400
f 1215 1216 417
f 1215 420 418
f 1213 397 417
f 1213 1216 418
f 1217 1218 381
f 1217 400 382
f 1219 401 381
f 1219 1218 382
f 1219 1220 419
f 1219 402 420
f 1217 399 419
f 1217 1220 420
f 1221 1222 403
f 1221 402 404
f 1223 423 403
f 1223 1222 404
f 1223 1224 421
f 1223 424 422
f 1221 401 421
f 1221 1224 422
f 1225 1226 405
f 1225 404 406
f 1227 425 405
f 1227 1226 406
f 1227 1228 423
f 1227 426 424
f 1225 403 423
f 1225 1228 424
f 1229 1230 407
f 1229 406 408
f 1231 427 407
f 1231 1230 408
f 1231 1232 425
f 1231 428 426
f 1229 405 425
f 1229 1232 426
f 1233 1234 409
f 1233 408 410
f 1235 429 409
f 1235 1234 410
f 1235 1236 427
f 1235 430 428
f 1233 407 427
f 1233 1236 428
f 1237 1238 411
f 1237 410 412
f 1239 431 411
f 1239 1238 412
f 1239 1240 429
f 1239 432 430
f 1237 409 429
f 1237 1240 430
f 1241 1242 413
f 1241 412 414
f 1243 433 413
f 1243 1242 414
f 1243 1244 431
f 1243 434 432
f 1241 411 431
f 1241 1244 432
f 1245 1246 415
f 1245 414 416
f 1247 435 415
f 1247 1246 416
f 1247 1248 433
f 1247 436 434
f 1245 413 433
f 1245 1248 434
f 1249 1250 417
f 1249 416 418
f 1251 437 417
f 1251 1250 418
f 1251 1252 435
f 1251 438 436
f 1249 415 435
f 1249 1252 436
f 1253 1254 419
f 1253 418 420
f 1255 439 419
f 1255 1254 420
f 1255 1256 437
f 1255 440 438
f 1253 417 437
f 1253 1256 438
f 1257 1258 401
f 1257 420 402
f 1259 421 401
f 1259 1258 402
f 1259 1260 439
f 1259 422 440
f 1257 419 439
f 1257 1260 440
f 1261 1262 423
f 1261 422 424
f 1263 443 423
f 1263 1262 424
f 1263 1264 441
f 1263 444 442
f 1261 421 441
f 1261 1264 442
f 1265 1266 425
f 1265 424 426
f 1267 445 425
f 1267 1266 426
f 1267 1268 443
f 1267 446 444
f 1265 423 443
f 1265 1268 444
f 1269 1270 427
f 1269 426 428
f 1271 447 427
f 1271 1270 428
f 1271 1272 445
f 1271 448 446
f 1269 425 445
f 1269 1272 446
f 1273 1274 429
f 1273 428 430
f 1275 449 429
f 1275 1274 430
f 1275 1276 447
f 1275 450 448
f 1273 427 447
f 1273 1276 448
f 1277 1278 431
f 1277 430 432
f 1279 451 431
f 1279 1278 432
f 1279 1280 449
f 1279 452 450
f 1277 429 449
f 1277 1280 450
f 1281 1282 433
f 1281 432 434
f 1283 453 433
f 1283 1282 434
f 1283 1284 451
f 1283 454 452
f 1281 431 451
f 1281 1284 452
f 1285 1286 435
f 1285 434 436
f 1287 455 435
f 1287 1286 436
f 1287 1288 453
f 1287 456 454
f 1285 433 453
f 1285 1288 454
f 1289 1290 437
f 1289 436 438
f 1291 457 437
f 1291 1290 438
f 1291 1292 455
f 1291 458 456
f 1289 435 455
f 1289 1292 456
f 1293 1294 439
f 1293 438 440
f 1295 459 439
f 1295 1294 440
f 1295 1296 457
f 1295 460 458
f 1293 437 457
f 1293 1296 458
f 1297 1298 421
f 1297 440 422
f 1299 441 421
f 1299 1298 422
f 1299 1300 459
f 1299 442 460
f 1297 439 459
f 1297 1300 460
