# beta Panel6_Frame.obj: Roblox cue frame, recentred on its bounding box
v 0.44238 -0.15463 0.59659
v -0.26669 0.10345 0.70264
v 0.43828 -0.16591 0.59659
v -0.27080 0.09218 0.70264
v 0.44081 -0.15406 0.58471
v -0.26826 0.10403 0.69076
v 0.43671 -0.16533 0.58471
v -0.27237 0.09275 0.69076
v 0.27237 -0.09275 -0.69076
v -0.43671 0.16533 -0.58471
v 0.26826 -0.10403 -0.69076
v -0.44081 0.15406 -0.58471
v 0.27080 -0.09218 -0.70264
v -0.43828 0.16591 -0.59659
v 0.26669 -0.10345 -0.70264
v -0.44238 0.15463 -0.59659
v 0.44238 -0.15463 0.59659
v 0.43122 -0.15056 0.59826
v 0.43828 -0.16591 0.59659
v 0.42711 -0.16184 0.59826
v 0.27080 -0.09218 -0.70264
v 0.25963 -0.08811 -0.70097
v 0.26669 -0.10345 -0.70264
v 0.25553 -0.09939 -0.70097
v -0.25553 0.09939 0.70097
v -0.26669 0.10345 0.70264
v -0.25963 0.08811 0.70097
v -0.27080 0.09218 0.70264
v -0.42711 0.16184 -0.59826
v -0.43828 0.16591 -0.59659
v -0.43122 0.15056 -0.59826
v -0.44238 0.15463 -0.59659
f 1 4 2
f 6 7 5
f 1 7 3
f 4 6 2
f 2 5 1
f 7 4 3
f 11 10 9
f 14 15 13
f 9 15 11
f 12 14 10
f 10 13 9
f 15 12 11
f 17 20 18
f 21 24 23
f 17 23 19
f 20 22 18
f 17 22 21
f 23 20 19
f 25 28 26
f 29 32 31
f 29 27 25
f 28 30 26
f 25 30 29
f 31 28 27
f 1 3 4
f 6 8 7
f 1 5 7
f 4 8 6
f 2 6 5
f 7 8 4
f 11 12 10
f 14 16 15
f 9 13 15
f 12 16 14
f 10 14 13
f 15 16 12
f 17 19 20
f 21 22 24
f 17 21 23
f 20 24 22
f 17 18 22
f 23 24 20
f 25 27 28
f 29 30 32
f 29 31 27
f 28 32 30
f 25 26 30
f 31 32 28
