# beta Panel8_Leader.obj: Roblox cue frame, recentred on its bounding box
v -0.62735 0.27231 -0.10440
v -0.63050 0.26633 -0.10011
v -0.62812 0.26794 -0.11105
v -0.63127 0.26196 -0.10677
v 0.61217 -0.24205 0.08958
v 0.60902 -0.24803 0.09386
v 0.61140 -0.24642 0.08292
v 0.60825 -0.25239 0.08720
v 0.60384 -0.22214 0.09070
v 0.59203 -0.24455 0.10676
v 0.60096 -0.23851 0.06573
v 0.58914 -0.26093 0.08179
v 0.63127 -0.23352 0.09499
v 0.61945 -0.25593 0.11105
v 0.62838 -0.24989 0.07002
v 0.61657 -0.27231 0.08608
f 1 4 2
f 5 8 7
f 5 3 1
f 2 8 6
f 1 6 5
f 3 8 4
f 9 12 10
f 13 16 15
f 9 15 11
f 12 14 10
f 9 14 13
f 11 16 12
f 1 3 4
f 5 6 8
f 5 7 3
f 2 4 8
f 1 2 6
f 3 7 8
f 9 11 12
f 13 14 16
f 9 13 15
f 12 16 14
f 9 10 14
f 11 15 16
