# beta Panel7_Leader.obj: Roblox cue frame, recentred on its bounding box
v 0.47610 -0.04981 0.03758
v 0.47547 -0.05749 0.03544
v 0.47534 -0.05188 0.04527
v 0.47471 -0.05956 0.04314
v -0.45793 0.04464 -0.02858
v -0.45856 0.03696 -0.03071
v -0.45868 0.04257 -0.02088
v -0.45931 0.03488 -0.02302
v -0.44115 0.05655 -0.03516
v -0.44349 0.02773 -0.04316
v -0.44397 0.04878 -0.00633
v -0.44632 0.01996 -0.01432
v -0.47092 0.05956 -0.03727
v -0.47327 0.03074 -0.04527
v -0.47375 0.05179 -0.00843
v -0.47610 0.02297 -0.01643
f 1 4 2
f 5 8 7
f 5 3 1
f 4 6 2
f 1 6 5
f 7 4 3
f 11 10 9
f 13 16 15
f 9 15 11
f 12 14 10
f 9 14 13
f 11 16 12
f 1 3 4
f 5 6 8
f 5 7 3
f 4 8 6
f 1 2 6
f 7 8 4
f 11 12 10
f 13 14 16
f 9 13 15
f 12 16 14
f 9 10 14
f 11 15 16
