# beta Panel2_Leader.obj: Roblox cue frame, recentred on its bounding box
v 0.16175 -0.72278 0.05571
v 0.16185 -0.72327 0.04772
v 0.15392 -0.72444 0.05571
v 0.15403 -0.72492 0.04772
v -0.14003 0.70733 -0.03581
v -0.13993 0.70684 -0.04379
v -0.14786 0.70568 -0.03581
v -0.14775 0.70519 -0.04379
v -0.12632 0.69563 -0.02389
v -0.12593 0.69379 -0.05383
v -0.15567 0.68943 -0.02389
v -0.15528 0.68760 -0.05383
v -0.13250 0.72492 -0.02577
v -0.13211 0.72309 -0.05571
v -0.16185 0.71873 -0.02577
v -0.16147 0.71690 -0.05571
f 1 4 2
f 5 8 7
f 5 3 1
f 2 8 6
f 1 6 5
f 3 8 4
f 9 12 10
f 13 16 15
f 13 11 9
f 12 14 10
f 10 13 9
f 15 12 11
f 1 3 4
f 5 6 8
f 5 7 3
f 2 4 8
f 1 2 6
f 3 7 8
f 9 11 12
f 13 14 16
f 13 15 11
f 12 16 14
f 10 14 13
f 15 16 12
