# beta Panel7_Frame.obj: Roblox cue frame, recentred on its bounding box
v 0.03932 0.12558 0.43405
v -0.12243 -0.31884 0.29843
v 0.05060 0.12147 0.43405
v -0.11116 -0.32295 0.29843
v 0.04045 0.12869 0.42251
v -0.12130 -0.31573 0.28690
v 0.05173 0.12458 0.42251
v -0.11003 -0.31984 0.28690
v 0.11003 0.31984 -0.28690
v -0.05173 -0.12458 -0.42251
v 0.12130 0.31573 -0.28690
v -0.04045 -0.12869 -0.42251
v 0.11116 0.32295 -0.29843
v -0.05060 -0.12147 -0.43405
v 0.12243 0.31884 -0.29843
v -0.03932 -0.12558 -0.43405
v 0.03932 0.12558 0.43405
v 0.03538 0.11474 0.43074
v 0.05060 0.12147 0.43405
v 0.04665 0.11063 0.43074
v 0.11116 0.32295 -0.29843
v 0.10721 0.31211 -0.30174
v 0.12243 0.31884 -0.29843
v 0.11849 0.30800 -0.30174
v -0.11849 -0.30800 0.30174
v -0.12243 -0.31884 0.29843
v -0.10721 -0.31211 0.30174
v -0.11116 -0.32295 0.29843
v -0.04665 -0.11063 -0.43074
v -0.05060 -0.12147 -0.43405
v -0.03538 -0.11474 -0.43074
v -0.03932 -0.12558 -0.43405
f 3 2 1
f 6 7 5
f 5 3 1
f 4 6 2
f 1 6 5
f 3 8 4
f 11 10 9
f 14 15 13
f 13 11 9
f 10 16 14
f 9 14 13
f 11 16 12
f 17 20 18
f 21 24 23
f 21 19 17
f 20 22 18
f 17 22 21
f 19 24 20
f 27 26 25
f 29 32 31
f 29 27 25
f 28 30 26
f 25 30 29
f 27 32 28
f 3 4 2
f 6 8 7
f 5 7 3
f 4 8 6
f 1 2 6
f 3 7 8
f 11 12 10
f 14 16 15
f 13 15 11
f 10 12 16
f 9 10 14
f 11 15 16
f 17 19 20
f 21 22 24
f 21 23 19
f 20 24 22
f 17 18 22
f 19 23 24
f 27 28 26
f 29 30 32
f 29 31 27
f 28 32 30
f 25 26 30
f 27 31 32
