# beta Panel1_Leader.obj: Roblox cue frame, recentred on its bounding box
v -0.42944 0.28708 0.04971
v -0.42534 0.29353 0.04734
v -0.42755 0.28867 0.05732
v -0.42345 0.29511 0.05495
v 0.40282 -0.27570 -0.03990
v 0.40693 -0.26925 -0.04227
v 0.40472 -0.27411 -0.03229
v 0.40882 -0.26766 -0.03466
v 0.38220 -0.27838 -0.04578
v 0.39759 -0.25420 -0.05466
v 0.38930 -0.27242 -0.01724
v 0.40469 -0.24824 -0.02612
v 0.40695 -0.29511 -0.04844
v 0.42234 -0.27094 -0.05732
v 0.41405 -0.28916 -0.01991
v 0.42944 -0.26498 -0.02879
f 1 4 2
f 6 7 5
f 1 7 3
f 4 6 2
f 1 6 5
f 7 4 3
f 9 12 10
f 13 16 15
f 13 11 9
f 12 14 10
f 10 13 9
f 11 16 12
f 1 3 4
f 6 8 7
f 1 5 7
f 4 8 6
f 1 2 6
f 7 8 4
f 9 11 12
f 13 14 16
f 13 15 11
f 12 16 14
f 10 14 13
f 11 15 16
