# beta Panel1_Frame.obj: Roblox cue frame, recentred on its bounding box
v -0.09793 -0.09001 0.54893
v 0.33337 0.27190 0.36599
v -0.10565 -0.08081 0.54893
v 0.32566 0.28109 0.36599
v -0.10077 -0.09239 0.53751
v 0.33053 0.26952 0.35458
v -0.10849 -0.08320 0.53751
v 0.32282 0.27871 0.35458
v -0.32282 -0.27871 -0.35458
v 0.10849 0.08320 -0.53751
v -0.33053 -0.26952 -0.35458
v 0.10077 0.09239 -0.53751
v -0.32566 -0.28109 -0.36599
v 0.10565 0.08081 -0.54893
v -0.33337 -0.27190 -0.36599
v 0.09793 0.09001 -0.54893
v -0.09793 -0.09001 0.54893
v -0.08919 -0.08267 0.54522
v -0.10565 -0.08081 0.54893
v -0.09690 -0.07348 0.54522
v -0.32566 -0.28109 -0.36599
v -0.31691 -0.27376 -0.36970
v -0.33337 -0.27190 -0.36599
v -0.32463 -0.26456 -0.36970
v 0.32463 0.26456 0.36970
v 0.33337 0.27190 0.36599
v 0.31691 0.27376 0.36970
v 0.32566 0.28109 0.36599
v 0.09690 0.07348 -0.54522
v 0.10565 0.08081 -0.54893
v 0.08919 0.08267 -0.54522
v 0.09793 0.09001 -0.54893
f 1 4 2
f 6 7 5
f 1 7 3
f 2 8 6
f 2 5 1
f 7 4 3
f 9 12 10
f 13 16 15
f 13 11 9
f 12 14 10
f 10 13 9
f 11 16 12
f 17 20 18
f 22 23 21
f 21 19 17
f 18 24 22
f 17 22 21
f 19 24 20
f 27 26 25
f 30 31 29
f 25 31 27
f 28 30 26
f 26 29 25
f 31 28 27
f 1 3 4
f 6 8 7
f 1 5 7
f 2 4 8
f 2 6 5
f 7 8 4
f 9 11 12
f 13 14 16
f 13 15 11
f 12 16 14
f 10 14 13
f 11 15 16
f 17 19 20
f 22 24 23
f 21 23 19
f 18 20 24
f 17 18 22
f 19 23 24
f 27 28 26
f 30 32 31
f 25 29 31
f 28 32 30
f 26 30 29
f 31 32 28
