# beta Panel5_Frame.obj: Roblox cue frame, recentred on its bounding box
v -0.08644 -0.03785 0.58379
v 0.44678 0.15623 0.35453
v -0.09054 -0.02657 0.58379
v 0.44268 0.16751 0.35453
v -0.09066 -0.03938 0.57266
v 0.44256 0.15469 0.34340
v -0.09476 -0.02811 0.57266
v 0.43845 0.16597 0.34340
v -0.43845 -0.16597 -0.34340
v 0.09476 0.02811 -0.57266
v -0.44256 -0.15469 -0.34340
v 0.09066 0.03938 -0.57266
v -0.44268 -0.16751 -0.35453
v 0.09054 0.02657 -0.58379
v -0.44678 -0.15623 -0.35453
v 0.08644 0.03785 -0.58379
v -0.08644 -0.03785 0.58378
v -0.07598 -0.03404 0.57929
v -0.09054 -0.02657 0.58378
v -0.08009 -0.02276 0.57929
v -0.44268 -0.16751 -0.35453
v -0.43222 -0.16370 -0.35902
v -0.44678 -0.15623 -0.35453
v -0.43632 -0.15242 -0.35902
v 0.43632 0.15242 0.35902
v 0.44678 0.15623 0.35453
v 0.43222 0.16370 0.35902
v 0.44268 0.16751 0.35453
v 0.08009 0.02276 -0.57929
v 0.09054 0.02657 -0.58378
v 0.07598 0.03404 -0.57929
v 0.08644 0.03785 -0.58378
f 3 2 1
f 5 8 7
f 1 7 3
f 4 6 2
f 1 6 5
f 3 8 4
f 11 10 9
f 14 15 13
f 13 11 9
f 12 14 10
f 9 14 13
f 11 16 12
f 19 18 17
f 22 23 21
f 17 23 19
f 18 24 22
f 18 21 17
f 23 20 19
f 27 26 25
f 30 31 29
f 29 27 25
f 26 32 30
f 26 29 25
f 27 32 28
f 3 4 2
f 5 6 8
f 1 5 7
f 4 8 6
f 1 2 6
f 3 7 8
f 11 12 10
f 14 16 15
f 13 15 11
f 12 16 14
f 9 10 14
f 11 15 16
f 19 20 18
f 22 24 23
f 17 21 23
f 18 20 24
f 18 22 21
f 23 24 20
f 27 28 26
f 30 32 31
f 29 31 27
f 26 28 32
f 26 30 29
f 27 31 32
