# beta Panel3_Leader.obj: Roblox cue frame, recentred on its bounding box
v -0.33119 -0.32023 0.03477
v -0.33668 -0.31455 0.03350
v -0.33167 -0.31893 0.04265
v -0.33716 -0.31325 0.04137
v 0.31808 0.29337 -0.02775
v 0.31259 0.29905 -0.02902
v 0.31761 0.29467 -0.01987
v 0.31212 0.30035 -0.02114
v 0.31541 0.27349 -0.03578
v 0.29482 0.29478 -0.04055
v 0.31363 0.27838 -0.00624
v 0.29304 0.29968 -0.01101
v 0.33716 0.29404 -0.03788
v 0.31657 0.31534 -0.04265
v 0.33538 0.29894 -0.00833
v 0.31479 0.32023 -0.01310
f 1 4 2
f 5 8 7
f 1 7 3
f 4 6 2
f 1 6 5
f 3 8 4
f 11 10 9
f 14 15 13
f 9 15 11
f 12 14 10
f 9 14 13
f 15 12 11
f 1 3 4
f 5 6 8
f 1 5 7
f 4 8 6
f 1 2 6
f 3 7 8
f 11 12 10
f 14 16 15
f 9 13 15
f 12 16 14
f 9 10 14
f 15 16 12
