# beta Rings_Ring.obj: Roblox cue frame, recentred on its bounding box
v -0.20250 0.00000 1.64000
v -0.19830 0.00000 1.65293
v -0.18730 0.00000 1.66092
v -0.17371 0.00000 1.66092
v -0.16271 0.00000 1.65293
v -0.15850 0.00000 1.64000
v -0.16271 0.00000 1.62707
v -0.17371 0.00000 1.61908
v -0.18730 0.00000 1.61908
v -0.19830 0.00000 1.62707
v -0.19861 -0.03951 1.64000
v -0.19449 -0.03869 1.65293
v -0.18370 -0.03654 1.66092
v -0.17037 -0.03389 1.66092
v -0.15958 -0.03174 1.65293
v -0.15546 -0.03092 1.64000
v -0.15958 -0.03174 1.62707
v -0.17037 -0.03389 1.61908
v -0.18370 -0.03654 1.61908
v -0.19449 -0.03869 1.62707
v -0.18709 -0.07750 1.64000
v -0.18321 -0.07589 1.65293
v -0.17305 -0.07168 1.66092
v -0.16048 -0.06647 1.66092
v -0.15032 -0.06227 1.65293
v -0.14644 -0.06066 1.64000
v -0.15032 -0.06227 1.62707
v -0.16048 -0.06647 1.61908
v -0.17305 -0.07168 1.61908
v -0.18321 -0.07589 1.62707
v -0.16838 -0.11251 1.64000
v -0.16488 -0.11017 1.65293
v -0.15574 -0.10406 1.66092
v -0.14443 -0.09651 1.66092
v -0.13529 -0.09039 1.65293
v -0.13179 -0.08806 1.64000
v -0.13529 -0.09039 1.62707
v -0.14443 -0.09651 1.61908
v -0.15574 -0.10406 1.61908
v -0.16488 -0.11017 1.62707
v -0.14319 -0.14319 1.64000
v -0.14022 -0.14022 1.65293
v -0.13244 -0.13244 1.66092
v -0.12283 -0.12283 1.66092
v -0.11505 -0.11505 1.65293
v -0.11208 -0.11208 1.64000
v -0.11505 -0.11505 1.62707
v -0.12283 -0.12283 1.61908
v -0.13244 -0.13244 1.61908
v -0.14022 -0.14022 1.62707
v -0.11251 -0.16838 1.64000
v -0.11017 -0.16488 1.65293
v -0.10406 -0.15574 1.66092
v -0.09651 -0.14443 1.66092
v -0.09039 -0.13529 1.65293
v -0.08806 -0.13179 1.64000
v -0.09039 -0.13529 1.62707
v -0.09651 -0.14443 1.61908
v -0.10406 -0.15574 1.61908
v -0.11017 -0.16488 1.62707
v -0.07750 -0.18709 1.64000
v -0.07589 -0.18321 1.65293
v -0.07168 -0.17305 1.66092
v -0.06647 -0.16048 1.66092
v -0.06227 -0.15032 1.65293
v -0.06066 -0.14644 1.64000
v -0.06227 -0.15032 1.62707
v -0.06647 -0.16048 1.61908
v -0.07168 -0.17305 1.61908
v -0.07589 -0.18321 1.62707
v -0.03951 -0.19861 1.64000
v -0.03869 -0.19449 1.65293
v -0.03654 -0.18370 1.66092
v -0.03389 -0.17037 1.66092
v -0.03174 -0.15958 1.65293
v -0.03092 -0.15546 1.64000
v -0.03174 -0.15958 1.62707
v -0.03389 -0.17037 1.61908
v -0.03654 -0.18370 1.61908
v -0.03869 -0.19449 1.62707
v -0.00000 -0.20250 1.64000
v -0.00000 -0.19830 1.65293
v -0.00000 -0.18730 1.66092
v -0.00000 -0.17371 1.66092
v -0.00000 -0.16271 1.65293
v -0.00000 -0.15850 1.64000
v -0.00000 -0.16271 1.62707
v -0.00000 -0.17371 1.61908
v -0.00000 -0.18730 1.61908
v -0.00000 -0.19830 1.62707
v 0.03951 -0.19861 1.64000
v 0.03869 -0.19449 1.65293
v 0.03654 -0.18370 1.66092
v 0.03389 -0.17037 1.66092
v 0.03174 -0.15958 1.65293
v 0.03092 -0.15546 1.64000
v 0.03174 -0.15958 1.62707
v 0.03389 -0.17037 1.61908
v 0.03654 -0.18370 1.61908
v 0.03869 -0.19449 1.62707
v 0.07750 -0.18709 1.64000
v 0.07589 -0.18321 1.65293
v 0.07168 -0.17305 1.66092
v 0.06647 -0.16048 1.66092
v 0.06227 -0.15032 1.65293
v 0.06066 -0.14644 1.64000
v 0.06227 -0.15032 1.62707
v 0.06647 -0.16048 1.61908
v 0.07168 -0.17305 1.61908
v 0.07589 -0.18321 1.62707
v 0.11251 -0.16838 1.64000
v 0.11017 -0.16488 1.65293
v 0.10406 -0.15574 1.66092
v 0.09651 -0.14443 1.66092
v 0.09039 -0.13529 1.65293
v 0.08806 -0.13179 1.64000
v 0.09039 -0.13529 1.62707
v 0.09651 -0.14443 1.61908
v 0.10406 -0.15574 1.61908
v 0.11017 -0.16488 1.62707
v 0.14319 -0.14319 1.64000
v 0.14022 -0.14022 1.65293
v 0.13244 -0.13244 1.66092
v 0.12283 -0.12283 1.66092
v 0.11505 -0.11505 1.65293
v 0.11208 -0.11208 1.64000
v 0.11505 -0.11505 1.62707
v 0.12283 -0.12283 1.61908
v 0.13244 -0.13244 1.61908
v 0.14022 -0.14022 1.62707
v 0.16838 -0.11251 1.64000
v 0.16488 -0.11017 1.65293
v 0.15574 -0.10406 1.66092
v 0.14443 -0.09651 1.66092
v 0.13529 -0.09039 1.65293
v 0.13179 -0.08806 1.64000
v 0.13529 -0.09039 1.62707
v 0.14443 -0.09651 1.61908
v 0.15574 -0.10406 1.61908
v 0.16488 -0.11017 1.62707
v 0.18709 -0.07750 1.64000
v 0.18321 -0.07589 1.65293
v 0.17305 -0.07168 1.66092
v 0.16048 -0.06647 1.66092
v 0.15032 -0.06227 1.65293
v 0.14644 -0.06066 1.64000
v 0.15032 -0.06227 1.62707
v 0.16048 -0.06647 1.61908
v 0.17305 -0.07168 1.61908
v 0.18321 -0.07589 1.62707
v 0.19861 -0.03951 1.64000
v 0.19449 -0.03869 1.65293
v 0.18370 -0.03654 1.66092
v 0.17037 -0.03389 1.66092
v 0.15958 -0.03174 1.65293
v 0.15546 -0.03092 1.64000
v 0.15958 -0.03174 1.62707
v 0.17037 -0.03389 1.61908
v 0.18370 -0.03654 1.61908
v 0.19449 -0.03869 1.62707
v 0.20250 -0.00000 1.64000
v 0.19830 -0.00000 1.65293
v 0.18730 -0.00000 1.66092
v 0.17371 -0.00000 1.66092
v 0.16271 -0.00000 1.65293
v 0.15850 -0.00000 1.64000
v 0.16271 -0.00000 1.62707
v 0.17371 -0.00000 1.61908
v 0.18730 -0.00000 1.61908
v 0.19830 -0.00000 1.62707
v 0.19861 0.03951 1.64000
v 0.19449 0.03869 1.65293
v 0.18370 0.03654 1.66092
v 0.17037 0.03389 1.66092
v 0.15958 0.03174 1.65293
v 0.15546 0.03092 1.64000
v 0.15958 0.03174 1.62707
v 0.17037 0.03389 1.61908
v 0.18370 0.03654 1.61908
v 0.19449 0.03869 1.62707
v 0.18709 0.07750 1.64000
v 0.18321 0.07589 1.65293
v 0.17305 0.07168 1.66092
v 0.16048 0.06647 1.66092
v 0.15032 0.06227 1.65293
v 0.14644 0.06066 1.64000
v 0.15032 0.06227 1.62707
v 0.16048 0.06647 1.61908
v 0.17305 0.07168 1.61908
v 0.18321 0.07589 1.62707
v 0.16838 0.11251 1.64000
v 0.16488 0.11017 1.65293
v 0.15574 0.10406 1.66092
v 0.14443 0.09651 1.66092
v 0.13529 0.09039 1.65293
v 0.13179 0.08806 1.64000
v 0.13529 0.09039 1.62707
v 0.14443 0.09651 1.61908
v 0.15574 0.10406 1.61908
v 0.16488 0.11017 1.62707
v 0.14319 0.14319 1.64000
v 0.14022 0.14022 1.65293
v 0.13244 0.13244 1.66092
v 0.12283 0.12283 1.66092
v 0.11505 0.11505 1.65293
v 0.11208 0.11208 1.64000
v 0.11505 0.11505 1.62707
v 0.12283 0.12283 1.61908
v 0.13244 0.13244 1.61908
v 0.14022 0.14022 1.62707
v 0.11251 0.16838 1.64000
v 0.11017 0.16488 1.65293
v 0.10406 0.15574 1.66092
v 0.09651 0.14443 1.66092
v 0.09039 0.13529 1.65293
v 0.08806 0.13179 1.64000
v 0.09039 0.13529 1.62707
v 0.09651 0.14443 1.61908
v 0.10406 0.15574 1.61908
v 0.11017 0.16488 1.62707
v 0.07750 0.18709 1.64000
v 0.07589 0.18321 1.65293
v 0.07168 0.17305 1.66092
v 0.06647 0.16048 1.66092
v 0.06227 0.15032 1.65293
v 0.06066 0.14644 1.64000
v 0.06227 0.15032 1.62707
v 0.06647 0.16048 1.61908
v 0.07168 0.17305 1.61908
v 0.07589 0.18321 1.62707
v 0.03951 0.19861 1.64000
v 0.03869 0.19449 1.65293
v 0.03654 0.18370 1.66092
v 0.03389 0.17037 1.66092
v 0.03174 0.15958 1.65293
v 0.03092 0.15546 1.64000
v 0.03174 0.15958 1.62707
v 0.03389 0.17037 1.61908
v 0.03654 0.18370 1.61908
v 0.03869 0.19449 1.62707
v 0.00000 0.20250 1.64000
v 0.00000 0.19830 1.65293
v 0.00000 0.18730 1.66092
v 0.00000 0.17371 1.66092
v 0.00000 0.16271 1.65293
v 0.00000 0.15850 1.64000
v 0.00000 0.16271 1.62707
v 0.00000 0.17371 1.61908
v 0.00000 0.18730 1.61908
v 0.00000 0.19830 1.62707
v -0.03951 0.19861 1.64000
v -0.03869 0.19449 1.65293
v -0.03654 0.18370 1.66092
v -0.03389 0.17037 1.66092
v -0.03174 0.15958 1.65293
v -0.03092 0.15546 1.64000
v -0.03174 0.15958 1.62707
v -0.03389 0.17037 1.61908
v -0.03654 0.18370 1.61908
v -0.03869 0.19449 1.62707
v -0.07750 0.18709 1.64000
v -0.07589 0.18321 1.65293
v -0.07168 0.17305 1.66092
v -0.06647 0.16048 1.66092
v -0.06227 0.15032 1.65293
v -0.06066 0.14644 1.64000
v -0.06227 0.15032 1.62707
v -0.06647 0.16048 1.61908
v -0.07168 0.17305 1.61908
v -0.07589 0.18321 1.62707
v -0.11251 0.16838 1.64000
v -0.11017 0.16488 1.65293
v -0.10406 0.15574 1.66092
v -0.09651 0.14443 1.66092
v -0.09039 0.13529 1.65293
v -0.08806 0.13179 1.64000
v -0.09039 0.13529 1.62707
v -0.09651 0.14443 1.61908
v -0.10406 0.15574 1.61908
v -0.11017 0.16488 1.62707
v -0.14319 0.14319 1.64000
v -0.14022 0.14022 1.65293
v -0.13244 0.13244 1.66092
v -0.12283 0.12283 1.66092
v -0.11505 0.11505 1.65293
v -0.11208 0.11208 1.64000
v -0.11505 0.11505 1.62707
v -0.12283 0.12283 1.61908
v -0.13244 0.13244 1.61908
v -0.14022 0.14022 1.62707
v -0.16838 0.11251 1.64000
v -0.16488 0.11017 1.65293
v -0.15574 0.10406 1.66092
v -0.14443 0.09651 1.66092
v -0.13529 0.09039 1.65293
v -0.13179 0.08806 1.64000
v -0.13529 0.09039 1.62707
v -0.14443 0.09651 1.61908
v -0.15574 0.10406 1.61908
v -0.16488 0.11017 1.62707
v -0.18709 0.07750 1.64000
v -0.18321 0.07589 1.65293
v -0.17305 0.07168 1.66092
v -0.16048 0.06647 1.66092
v -0.15032 0.06227 1.65293
v -0.14644 0.06066 1.64000
v -0.15032 0.06227 1.62707
v -0.16048 0.06647 1.61908
v -0.17305 0.07168 1.61908
v -0.18321 0.07589 1.62707
v -0.19861 0.03951 1.64000
v -0.19449 0.03869 1.65293
v -0.18370 0.03654 1.66092
v -0.17037 0.03389 1.66092
v -0.15958 0.03174 1.65293
v -0.15546 0.03092 1.64000
v -0.15958 0.03174 1.62707
v -0.17037 0.03389 1.61908
v -0.18370 0.03654 1.61908
v -0.19449 0.03869 1.62707
v -0.20760 0.00000 1.48000
v -0.20340 0.00000 1.49293
v -0.19240 0.00000 1.50092
v -0.17880 0.00000 1.50092
v -0.16780 0.00000 1.49293
v -0.16360 0.00000 1.48000
v -0.16780 0.00000 1.46707
v -0.17880 0.00000 1.45908
v -0.19240 0.00000 1.45908
v -0.20340 0.00000 1.46707
v -0.20361 -0.04050 1.48000
v -0.19949 -0.03968 1.49293
v -0.18870 -0.03754 1.50092
v -0.17537 -0.03488 1.50092
v -0.16458 -0.03274 1.49293
v -0.16046 -0.03192 1.48000
v -0.16458 -0.03274 1.46707
v -0.17537 -0.03488 1.45908
v -0.18870 -0.03754 1.45908
v -0.19949 -0.03968 1.46707
v -0.19180 -0.07945 1.48000
v -0.18792 -0.07784 1.49293
v -0.17775 -0.07363 1.50092
v -0.16519 -0.06842 1.50092
v -0.15503 -0.06422 1.49293
v -0.15115 -0.06261 1.48000
v -0.15503 -0.06422 1.46707
v -0.16519 -0.06842 1.45908
v -0.17775 -0.07363 1.45908
v -0.18792 -0.07784 1.46707
v -0.17261 -0.11534 1.48000
v -0.16912 -0.11300 1.49293
v -0.15997 -0.10689 1.50092
v -0.14867 -0.09934 1.50092
v -0.13952 -0.09323 1.49293
v -0.13603 -0.09089 1.48000
v -0.13952 -0.09323 1.46707
v -0.14867 -0.09934 1.45908
v -0.15997 -0.10689 1.45908
v -0.16912 -0.11300 1.46707
v -0.14680 -0.14680 1.48000
v -0.14383 -0.14383 1.49293
v -0.13605 -0.13605 1.50092
v -0.12643 -0.12643 1.50092
v -0.11865 -0.11865 1.49293
v -0.11568 -0.11568 1.48000
v -0.11865 -0.11865 1.46707
v -0.12643 -0.12643 1.45908
v -0.13605 -0.13605 1.45908
v -0.14383 -0.14383 1.46707
v -0.11534 -0.17261 1.48000
v -0.11300 -0.16912 1.49293
v -0.10689 -0.15997 1.50092
v -0.09934 -0.14867 1.50092
v -0.09323 -0.13952 1.49293
v -0.09089 -0.13603 1.48000
v -0.09323 -0.13952 1.46707
v -0.09934 -0.14867 1.45908
v -0.10689 -0.15997 1.45908
v -0.11300 -0.16912 1.46707
v -0.07945 -0.19180 1.48000
v -0.07784 -0.18792 1.49293
v -0.07363 -0.17775 1.50092
v -0.06842 -0.16519 1.50092
v -0.06422 -0.15503 1.49293
v -0.06261 -0.15115 1.48000
v -0.06422 -0.15503 1.46707
v -0.06842 -0.16519 1.45908
v -0.07363 -0.17775 1.45908
v -0.07784 -0.18792 1.46707
v -0.04050 -0.20361 1.48000
v -0.03968 -0.19949 1.49293
v -0.03754 -0.18870 1.50092
v -0.03488 -0.17537 1.50092
v -0.03274 -0.16458 1.49293
v -0.03192 -0.16046 1.48000
v -0.03274 -0.16458 1.46707
v -0.03488 -0.17537 1.45908
v -0.03754 -0.18870 1.45908
v -0.03968 -0.19949 1.46707
v -0.00000 -0.20760 1.48000
v -0.00000 -0.20340 1.49293
v -0.00000 -0.19240 1.50092
v -0.00000 -0.17880 1.50092
v -0.00000 -0.16780 1.49293
v -0.00000 -0.16360 1.48000
v -0.00000 -0.16780 1.46707
v -0.00000 -0.17880 1.45908
v -0.00000 -0.19240 1.45908
v -0.00000 -0.20340 1.46707
v 0.04050 -0.20361 1.48000
v 0.03968 -0.19949 1.49293
v 0.03754 -0.18870 1.50092
v 0.03488 -0.17537 1.50092
v 0.03274 -0.16458 1.49293
v 0.03192 -0.16046 1.48000
v 0.03274 -0.16458 1.46707
v 0.03488 -0.17537 1.45908
v 0.03754 -0.18870 1.45908
v 0.03968 -0.19949 1.46707
v 0.07945 -0.19180 1.48000
v 0.07784 -0.18792 1.49293
v 0.07363 -0.17775 1.50092
v 0.06842 -0.16519 1.50092
v 0.06422 -0.15503 1.49293
v 0.06261 -0.15115 1.48000
v 0.06422 -0.15503 1.46707
v 0.06842 -0.16519 1.45908
v 0.07363 -0.17775 1.45908
v 0.07784 -0.18792 1.46707
v 0.11534 -0.17261 1.48000
v 0.11300 -0.16912 1.49293
v 0.10689 -0.15997 1.50092
v 0.09934 -0.14867 1.50092
v 0.09323 -0.13952 1.49293
v 0.09089 -0.13603 1.48000
v 0.09323 -0.13952 1.46707
v 0.09934 -0.14867 1.45908
v 0.10689 -0.15997 1.45908
v 0.11300 -0.16912 1.46707
v 0.14680 -0.14680 1.48000
v 0.14383 -0.14383 1.49293
v 0.13605 -0.13605 1.50092
v 0.12643 -0.12643 1.50092
v 0.11865 -0.11865 1.49293
v 0.11568 -0.11568 1.48000
v 0.11865 -0.11865 1.46707
v 0.12643 -0.12643 1.45908
v 0.13605 -0.13605 1.45908
v 0.14383 -0.14383 1.46707
v 0.17261 -0.11534 1.48000
v 0.16912 -0.11300 1.49293
v 0.15997 -0.10689 1.50092
v 0.14867 -0.09934 1.50092
v 0.13952 -0.09323 1.49293
v 0.13603 -0.09089 1.48000
v 0.13952 -0.09323 1.46707
v 0.14867 -0.09934 1.45908
v 0.15997 -0.10689 1.45908
v 0.16912 -0.11300 1.46707
v 0.19180 -0.07945 1.48000
v 0.18792 -0.07784 1.49293
v 0.17775 -0.07363 1.50092
v 0.16519 -0.06842 1.50092
v 0.15503 -0.06422 1.49293
v 0.15115 -0.06261 1.48000
v 0.15503 -0.06422 1.46707
v 0.16519 -0.06842 1.45908
v 0.17775 -0.07363 1.45908
v 0.18792 -0.07784 1.46707
v 0.20361 -0.04050 1.48000
v 0.19949 -0.03968 1.49293
v 0.18870 -0.03754 1.50092
v 0.17537 -0.03488 1.50092
v 0.16458 -0.03274 1.49293
v 0.16046 -0.03192 1.48000
v 0.16458 -0.03274 1.46707
v 0.17537 -0.03488 1.45908
v 0.18870 -0.03754 1.45908
v 0.19949 -0.03968 1.46707
v 0.20760 -0.00000 1.48000
v 0.20340 -0.00000 1.49293
v 0.19240 -0.00000 1.50092
v 0.17880 -0.00000 1.50092
v 0.16780 -0.00000 1.49293
v 0.16360 -0.00000 1.48000
v 0.16780 -0.00000 1.46707
v 0.17880 -0.00000 1.45908
v 0.19240 -0.00000 1.45908
v 0.20340 -0.00000 1.46707
v 0.20361 0.04050 1.48000
v 0.19949 0.03968 1.49293
v 0.18870 0.03754 1.50092
v 0.17537 0.03488 1.50092
v 0.16458 0.03274 1.49293
v 0.16046 0.03192 1.48000
v 0.16458 0.03274 1.46707
v 0.17537 0.03488 1.45908
v 0.18870 0.03754 1.45908
v 0.19949 0.03968 1.46707
v 0.19180 0.07945 1.48000
v 0.18792 0.07784 1.49293
v 0.17775 0.07363 1.50092
v 0.16519 0.06842 1.50092
v 0.15503 0.06422 1.49293
v 0.15115 0.06261 1.48000
v 0.15503 0.06422 1.46707
v 0.16519 0.06842 1.45908
v 0.17775 0.07363 1.45908
v 0.18792 0.07784 1.46707
v 0.17261 0.11534 1.48000
v 0.16912 0.11300 1.49293
v 0.15997 0.10689 1.50092
v 0.14867 0.09934 1.50092
v 0.13952 0.09323 1.49293
v 0.13603 0.09089 1.48000
v 0.13952 0.09323 1.46707
v 0.14867 0.09934 1.45908
v 0.15997 0.10689 1.45908
v 0.16912 0.11300 1.46707
v 0.14680 0.14680 1.48000
v 0.14383 0.14383 1.49293
v 0.13605 0.13605 1.50092
v 0.12643 0.12643 1.50092
v 0.11865 0.11865 1.49293
v 0.11568 0.11568 1.48000
v 0.11865 0.11865 1.46707
v 0.12643 0.12643 1.45908
v 0.13605 0.13605 1.45908
v 0.14383 0.14383 1.46707
v 0.11534 0.17261 1.48000
v 0.11300 0.16912 1.49293
v 0.10689 0.15997 1.50092
v 0.09934 0.14867 1.50092
v 0.09323 0.13952 1.49293
v 0.09089 0.13603 1.48000
v 0.09323 0.13952 1.46707
v 0.09934 0.14867 1.45908
v 0.10689 0.15997 1.45908
v 0.11300 0.16912 1.46707
v 0.07945 0.19180 1.48000
v 0.07784 0.18792 1.49293
v 0.07363 0.17775 1.50092
v 0.06842 0.16519 1.50092
v 0.06422 0.15503 1.49293
v 0.06261 0.15115 1.48000
v 0.06422 0.15503 1.46707
v 0.06842 0.16519 1.45908
v 0.07363 0.17775 1.45908
v 0.07784 0.18792 1.46707
v 0.04050 0.20361 1.48000
v 0.03968 0.19949 1.49293
v 0.03754 0.18870 1.50092
v 0.03488 0.17537 1.50092
v 0.03274 0.16458 1.49293
v 0.03192 0.16046 1.48000
v 0.03274 0.16458 1.46707
v 0.03488 0.17537 1.45908
v 0.03754 0.18870 1.45908
v 0.03968 0.19949 1.46707
v 0.00000 0.20760 1.48000
v 0.00000 0.20340 1.49293
v 0.00000 0.19240 1.50092
v 0.00000 0.17880 1.50092
v 0.00000 0.16780 1.49293
v 0.00000 0.16360 1.48000
v 0.00000 0.16780 1.46707
v 0.00000 0.17880 1.45908
v 0.00000 0.19240 1.45908
v 0.00000 0.20340 1.46707
v -0.04050 0.20361 1.48000
v -0.03968 0.19949 1.49293
v -0.03754 0.18870 1.50092
v -0.03488 0.17537 1.50092
v -0.03274 0.16458 1.49293
v -0.03192 0.16046 1.48000
v -0.03274 0.16458 1.46707
v -0.03488 0.17537 1.45908
v -0.03754 0.18870 1.45908
v -0.03968 0.19949 1.46707
v -0.07945 0.19180 1.48000
v -0.07784 0.18792 1.49293
v -0.07363 0.17775 1.50092
v -0.06842 0.16519 1.50092
v -0.06422 0.15503 1.49293
v -0.06261 0.15115 1.48000
v -0.06422 0.15503 1.46707
v -0.06842 0.16519 1.45908
v -0.07363 0.17775 1.45908
v -0.07784 0.18792 1.46707
v -0.11534 0.17261 1.48000
v -0.11300 0.16912 1.49293
v -0.10689 0.15997 1.50092
v -0.09934 0.14867 1.50092
v -0.09323 0.13952 1.49293
v -0.09089 0.13603 1.48000
v -0.09323 0.13952 1.46707
v -0.09934 0.14867 1.45908
v -0.10689 0.15997 1.45908
v -0.11300 0.16912 1.46707
v -0.14680 0.14680 1.48000
v -0.14383 0.14383 1.49293
v -0.13605 0.13605 1.50092
v -0.12643 0.12643 1.50092
v -0.11865 0.11865 1.49293
v -0.11568 0.11568 1.48000
v -0.11865 0.11865 1.46707
v -0.12643 0.12643 1.45908
v -0.13605 0.13605 1.45908
v -0.14383 0.14383 1.46707
v -0.17261 0.11534 1.48000
v -0.16912 0.11300 1.49293
v -0.15997 0.10689 1.50092
v -0.14867 0.09934 1.50092
v -0.13952 0.09323 1.49293
v -0.13603 0.09089 1.48000
v -0.13952 0.09323 1.46707
v -0.14867 0.09934 1.45908
v -0.15997 0.10689 1.45908
v -0.16912 0.11300 1.46707
v -0.19180 0.07945 1.48000
v -0.18792 0.07784 1.49293
v -0.17775 0.07363 1.50092
v -0.16519 0.06842 1.50092
v -0.15503 0.06422 1.49293
v -0.15115 0.06261 1.48000
v -0.15503 0.06422 1.46707
v -0.16519 0.06842 1.45908
v -0.17775 0.07363 1.45908
v -0.18792 0.07784 1.46707
v -0.20361 0.04050 1.48000
v -0.19949 0.03968 1.49293
v -0.18870 0.03754 1.50092
v -0.17537 0.03488 1.50092
v -0.16458 0.03274 1.49293
v -0.16046 0.03192 1.48000
v -0.16458 0.03274 1.46707
v -0.17537 0.03488 1.45908
v -0.18870 0.03754 1.45908
v -0.19949 0.03968 1.46707
v -0.23700 0.00000 -1.50000
v -0.23280 0.00000 -1.48707
v -0.22180 0.00000 -1.47908
v -0.20820 0.00000 -1.47908
v -0.19720 0.00000 -1.48707
v -0.19300 0.00000 -1.50000
v -0.19720 0.00000 -1.51293
v -0.20820 0.00000 -1.52092
v -0.22180 0.00000 -1.52092
v -0.23280 0.00000 -1.51293
v -0.23245 -0.04624 -1.50000
v -0.22833 -0.04542 -1.48707
v -0.21754 -0.04327 -1.47908
v -0.20420 -0.04062 -1.47908
v -0.19341 -0.03847 -1.48707
v -0.18929 -0.03765 -1.50000
v -0.19341 -0.03847 -1.51293
v -0.20420 -0.04062 -1.52092
v -0.21754 -0.04327 -1.52092
v -0.22833 -0.04542 -1.51293
v -0.21896 -0.09070 -1.50000
v -0.21508 -0.08909 -1.48707
v -0.20491 -0.08488 -1.47908
v -0.19235 -0.07968 -1.47908
v -0.18219 -0.07547 -1.48707
v -0.17831 -0.07386 -1.50000
v -0.18219 -0.07547 -1.51293
v -0.19235 -0.07968 -1.52092
v -0.20491 -0.08488 -1.52092
v -0.21508 -0.08909 -1.51293
v -0.19706 -0.13167 -1.50000
v -0.19356 -0.12934 -1.48707
v -0.18442 -0.12322 -1.47908
v -0.17311 -0.11567 -1.47908
v -0.16397 -0.10956 -1.48707
v -0.16047 -0.10723 -1.50000
v -0.16397 -0.10956 -1.51293
v -0.17311 -0.11567 -1.52092
v -0.18442 -0.12322 -1.52092
v -0.19356 -0.12934 -1.51293
v -0.16758 -0.16758 -1.50000
v -0.16461 -0.16461 -1.48707
v -0.15684 -0.15684 -1.47908
v -0.14722 -0.14722 -1.47908
v -0.13944 -0.13944 -1.48707
v -0.13647 -0.13647 -1.50000
v -0.13944 -0.13944 -1.51293
v -0.14722 -0.14722 -1.52092
v -0.15684 -0.15684 -1.52092
v -0.16461 -0.16461 -1.51293
v -0.13167 -0.19706 -1.50000
v -0.12934 -0.19356 -1.48707
v -0.12322 -0.18442 -1.47908
v -0.11567 -0.17311 -1.47908
v -0.10956 -0.16397 -1.48707
v -0.10723 -0.16047 -1.50000
v -0.10956 -0.16397 -1.51293
v -0.11567 -0.17311 -1.52092
v -0.12322 -0.18442 -1.52092
v -0.12934 -0.19356 -1.51293
v -0.09070 -0.21896 -1.50000
v -0.08909 -0.21508 -1.48707
v -0.08488 -0.20491 -1.47908
v -0.07968 -0.19235 -1.47908
v -0.07547 -0.18219 -1.48707
v -0.07386 -0.17831 -1.50000
v -0.07547 -0.18219 -1.51293
v -0.07968 -0.19235 -1.52092
v -0.08488 -0.20491 -1.52092
v -0.08909 -0.21508 -1.51293
v -0.04624 -0.23245 -1.50000
v -0.04542 -0.22833 -1.48707
v -0.04327 -0.21754 -1.47908
v -0.04062 -0.20420 -1.47908
v -0.03847 -0.19341 -1.48707
v -0.03765 -0.18929 -1.50000
v -0.03847 -0.19341 -1.51293
v -0.04062 -0.20420 -1.52092
v -0.04327 -0.21754 -1.52092
v -0.04542 -0.22833 -1.51293
v -0.00000 -0.23700 -1.50000
v -0.00000 -0.23280 -1.48707
v -0.00000 -0.22180 -1.47908
v -0.00000 -0.20820 -1.47908
v -0.00000 -0.19720 -1.48707
v -0.00000 -0.19300 -1.50000
v -0.00000 -0.19720 -1.51293
v -0.00000 -0.20820 -1.52092
v -0.00000 -0.22180 -1.52092
v -0.00000 -0.23280 -1.51293
v 0.04624 -0.23245 -1.50000
v 0.04542 -0.22833 -1.48707
v 0.04327 -0.21754 -1.47908
v 0.04062 -0.20420 -1.47908
v 0.03847 -0.19341 -1.48707
v 0.03765 -0.18929 -1.50000
v 0.03847 -0.19341 -1.51293
v 0.04062 -0.20420 -1.52092
v 0.04327 -0.21754 -1.52092
v 0.04542 -0.22833 -1.51293
v 0.09070 -0.21896 -1.50000
v 0.08909 -0.21508 -1.48707
v 0.08488 -0.20491 -1.47908
v 0.07968 -0.19235 -1.47908
v 0.07547 -0.18219 -1.48707
v 0.07386 -0.17831 -1.50000
v 0.07547 -0.18219 -1.51293
v 0.07968 -0.19235 -1.52092
v 0.08488 -0.20491 -1.52092
v 0.08909 -0.21508 -1.51293
v 0.13167 -0.19706 -1.50000
v 0.12934 -0.19356 -1.48707
v 0.12322 -0.18442 -1.47908
v 0.11567 -0.17311 -1.47908
v 0.10956 -0.16397 -1.48707
v 0.10723 -0.16047 -1.50000
v 0.10956 -0.16397 -1.51293
v 0.11567 -0.17311 -1.52092
v 0.12322 -0.18442 -1.52092
v 0.12934 -0.19356 -1.51293
v 0.16758 -0.16758 -1.50000
v 0.16461 -0.16461 -1.48707
v 0.15684 -0.15684 -1.47908
v 0.14722 -0.14722 -1.47908
v 0.13944 -0.13944 -1.48707
v 0.13647 -0.13647 -1.50000
v 0.13944 -0.13944 -1.51293
v 0.14722 -0.14722 -1.52092
v 0.15684 -0.15684 -1.52092
v 0.16461 -0.16461 -1.51293
v 0.19706 -0.13167 -1.50000
v 0.19356 -0.12934 -1.48707
v 0.18442 -0.12322 -1.47908
v 0.17311 -0.11567 -1.47908
v 0.16397 -0.10956 -1.48707
v 0.16047 -0.10723 -1.50000
v 0.16397 -0.10956 -1.51293
v 0.17311 -0.11567 -1.52092
v 0.18442 -0.12322 -1.52092
v 0.19356 -0.12934 -1.51293
v 0.21896 -0.09070 -1.50000
v 0.21508 -0.08909 -1.48707
v 0.20491 -0.08488 -1.47908
v 0.19235 -0.07968 -1.47908
v 0.18219 -0.07547 -1.48707
v 0.17831 -0.07386 -1.50000
v 0.18219 -0.07547 -1.51293
v 0.19235 -0.07968 -1.52092
v 0.20491 -0.08488 -1.52092
v 0.21508 -0.08909 -1.51293
v 0.23245 -0.04624 -1.50000
v 0.22833 -0.04542 -1.48707
v 0.21754 -0.04327 -1.47908
v 0.20420 -0.04062 -1.47908
v 0.19341 -0.03847 -1.48707
v 0.18929 -0.03765 -1.50000
v 0.19341 -0.03847 -1.51293
v 0.20420 -0.04062 -1.52092
v 0.21754 -0.04327 -1.52092
v 0.22833 -0.04542 -1.51293
v 0.23700 -0.00000 -1.50000
v 0.23280 -0.00000 -1.48707
v 0.22180 -0.00000 -1.47908
v 0.20820 -0.00000 -1.47908
v 0.19720 -0.00000 -1.48707
v 0.19300 -0.00000 -1.50000
v 0.19720 -0.00000 -1.51293
v 0.20820 -0.00000 -1.52092
v 0.22180 -0.00000 -1.52092
v 0.23280 -0.00000 -1.51293
v 0.23245 0.04624 -1.50000
v 0.22833 0.04542 -1.48707
v 0.21754 0.04327 -1.47908
v 0.20420 0.04062 -1.47908
v 0.19341 0.03847 -1.48707
v 0.18929 0.03765 -1.50000
v 0.19341 0.03847 -1.51293
v 0.20420 0.04062 -1.52092
v 0.21754 0.04327 -1.52092
v 0.22833 0.04542 -1.51293
v 0.21896 0.09070 -1.50000
v 0.21508 0.08909 -1.48707
v 0.20491 0.08488 -1.47908
v 0.19235 0.07968 -1.47908
v 0.18219 0.07547 -1.48707
v 0.17831 0.07386 -1.50000
v 0.18219 0.07547 -1.51293
v 0.19235 0.07968 -1.52092
v 0.20491 0.08488 -1.52092
v 0.21508 0.08909 -1.51293
v 0.19706 0.13167 -1.50000
v 0.19356 0.12934 -1.48707
v 0.18442 0.12322 -1.47908
v 0.17311 0.11567 -1.47908
v 0.16397 0.10956 -1.48707
v 0.16047 0.10723 -1.50000
v 0.16397 0.10956 -1.51293
v 0.17311 0.11567 -1.52092
v 0.18442 0.12322 -1.52092
v 0.19356 0.12934 -1.51293
v 0.16758 0.16758 -1.50000
v 0.16461 0.16461 -1.48707
v 0.15684 0.15684 -1.47908
v 0.14722 0.14722 -1.47908
v 0.13944 0.13944 -1.48707
v 0.13647 0.13647 -1.50000
v 0.13944 0.13944 -1.51293
v 0.14722 0.14722 -1.52092
v 0.15684 0.15684 -1.52092
v 0.16461 0.16461 -1.51293
v 0.13167 0.19706 -1.50000
v 0.12934 0.19356 -1.48707
v 0.12322 0.18442 -1.47908
v 0.11567 0.17311 -1.47908
v 0.10956 0.16397 -1.48707
v 0.10723 0.16047 -1.50000
v 0.10956 0.16397 -1.51293
v 0.11567 0.17311 -1.52092
v 0.12322 0.18442 -1.52092
v 0.12934 0.19356 -1.51293
v 0.09070 0.21896 -1.50000
v 0.08909 0.21508 -1.48707
v 0.08488 0.20491 -1.47908
v 0.07968 0.19235 -1.47908
v 0.07547 0.18219 -1.48707
v 0.07386 0.17831 -1.50000
v 0.07547 0.18219 -1.51293
v 0.07968 0.19235 -1.52092
v 0.08488 0.20491 -1.52092
v 0.08909 0.21508 -1.51293
v 0.04624 0.23245 -1.50000
v 0.04542 0.22833 -1.48707
v 0.04327 0.21754 -1.47908
v 0.04062 0.20420 -1.47908
v 0.03847 0.19341 -1.48707
v 0.03765 0.18929 -1.50000
v 0.03847 0.19341 -1.51293
v 0.04062 0.20420 -1.52092
v 0.04327 0.21754 -1.52092
v 0.04542 0.22833 -1.51293
v 0.00000 0.23700 -1.50000
v 0.00000 0.23280 -1.48707
v 0.00000 0.22180 -1.47908
v 0.00000 0.20820 -1.47908
v 0.00000 0.19720 -1.48707
v 0.00000 0.19300 -1.50000
v 0.00000 0.19720 -1.51293
v 0.00000 0.20820 -1.52092
v 0.00000 0.22180 -1.52092
v 0.00000 0.23280 -1.51293
v -0.04624 0.23245 -1.50000
v -0.04542 0.22833 -1.48707
v -0.04327 0.21754 -1.47908
v -0.04062 0.20420 -1.47908
v -0.03847 0.19341 -1.48707
v -0.03765 0.18929 -1.50000
v -0.03847 0.19341 -1.51293
v -0.04062 0.20420 -1.52092
v -0.04327 0.21754 -1.52092
v -0.04542 0.22833 -1.51293
v -0.09070 0.21896 -1.50000
v -0.08909 0.21508 -1.48707
v -0.08488 0.20491 -1.47908
v -0.07968 0.19235 -1.47908
v -0.07547 0.18219 -1.48707
v -0.07386 0.17831 -1.50000
v -0.07547 0.18219 -1.51293
v -0.07968 0.19235 -1.52092
v -0.08488 0.20491 -1.52092
v -0.08909 0.21508 -1.51293
v -0.13167 0.19706 -1.50000
v -0.12934 0.19356 -1.48707
v -0.12322 0.18442 -1.47908
v -0.11567 0.17311 -1.47908
v -0.10956 0.16397 -1.48707
v -0.10723 0.16047 -1.50000
v -0.10956 0.16397 -1.51293
v -0.11567 0.17311 -1.52092
v -0.12322 0.18442 -1.52092
v -0.12934 0.19356 -1.51293
v -0.16758 0.16758 -1.50000
v -0.16461 0.16461 -1.48707
v -0.15684 0.15684 -1.47908
v -0.14722 0.14722 -1.47908
v -0.13944 0.13944 -1.48707
v -0.13647 0.13647 -1.50000
v -0.13944 0.13944 -1.51293
v -0.14722 0.14722 -1.52092
v -0.15684 0.15684 -1.52092
v -0.16461 0.16461 -1.51293
v -0.19706 0.13167 -1.50000
v -0.19356 0.12934 -1.48707
v -0.18442 0.12322 -1.47908
v -0.17311 0.11567 -1.47908
v -0.16397 0.10956 -1.48707
v -0.16047 0.10723 -1.50000
v -0.16397 0.10956 -1.51293
v -0.17311 0.11567 -1.52092
v -0.18442 0.12322 -1.52092
v -0.19356 0.12934 -1.51293
v -0.21896 0.09070 -1.50000
v -0.21508 0.08909 -1.48707
v -0.20491 0.08488 -1.47908
v -0.19235 0.07968 -1.47908
v -0.18219 0.07547 -1.48707
v -0.17831 0.07386 -1.50000
v -0.18219 0.07547 -1.51293
v -0.19235 0.07968 -1.52092
v -0.20491 0.08488 -1.52092
v -0.21508 0.08909 -1.51293
v -0.23245 0.04624 -1.50000
v -0.22833 0.04542 -1.48707
v -0.21754 0.04327 -1.47908
v -0.20420 0.04062 -1.47908
v -0.19341 0.03847 -1.48707
v -0.18929 0.03765 -1.50000
v -0.19341 0.03847 -1.51293
v -0.20420 0.04062 -1.52092
v -0.21754 0.04327 -1.52092
v -0.22833 0.04542 -1.51293
v -0.23700 0.00000 -1.64000
v -0.23280 0.00000 -1.62707
v -0.22180 0.00000 -1.61908
v -0.20820 0.00000 -1.61908
v -0.19720 0.00000 -1.62707
v -0.19300 0.00000 -1.64000
v -0.19720 0.00000 -1.65293
v -0.20820 0.00000 -1.66092
v -0.22180 0.00000 -1.66092
v -0.23280 0.00000 -1.65293
v -0.23245 -0.04624 -1.64000
v -0.22833 -0.04542 -1.62707
v -0.21754 -0.04327 -1.61908
v -0.20420 -0.04062 -1.61908
v -0.19341 -0.03847 -1.62707
v -0.18929 -0.03765 -1.64000
v -0.19341 -0.03847 -1.65293
v -0.20420 -0.04062 -1.66092
v -0.21754 -0.04327 -1.66092
v -0.22833 -0.04542 -1.65293
v -0.21896 -0.09070 -1.64000
v -0.21508 -0.08909 -1.62707
v -0.20491 -0.08488 -1.61908
v -0.19235 -0.07968 -1.61908
v -0.18219 -0.07547 -1.62707
v -0.17831 -0.07386 -1.64000
v -0.18219 -0.07547 -1.65293
v -0.19235 -0.07968 -1.66092
v -0.20491 -0.08488 -1.66092
v -0.21508 -0.08909 -1.65293
v -0.19706 -0.13167 -1.64000
v -0.19356 -0.12934 -1.62707
v -0.18442 -0.12322 -1.61908
v -0.17311 -0.11567 -1.61908
v -0.16397 -0.10956 -1.62707
v -0.16047 -0.10723 -1.64000
v -0.16397 -0.10956 -1.65293
v -0.17311 -0.11567 -1.66092
v -0.18442 -0.12322 -1.66092
v -0.19356 -0.12934 -1.65293
v -0.16758 -0.16758 -1.64000
v -0.16461 -0.16461 -1.62707
v -0.15684 -0.15684 -1.61908
v -0.14722 -0.14722 -1.61908
v -0.13944 -0.13944 -1.62707
v -0.13647 -0.13647 -1.64000
v -0.13944 -0.13944 -1.65293
v -0.14722 -0.14722 -1.66092
v -0.15684 -0.15684 -1.66092
v -0.16461 -0.16461 -1.65293
v -0.13167 -0.19706 -1.64000
v -0.12934 -0.19356 -1.62707
v -0.12322 -0.18442 -1.61908
v -0.11567 -0.17311 -1.61908
v -0.10956 -0.16397 -1.62707
v -0.10723 -0.16047 -1.64000
v -0.10956 -0.16397 -1.65293
v -0.11567 -0.17311 -1.66092
v -0.12322 -0.18442 -1.66092
v -0.12934 -0.19356 -1.65293
v -0.09070 -0.21896 -1.64000
v -0.08909 -0.21508 -1.62707
v -0.08488 -0.20491 -1.61908
v -0.07968 -0.19235 -1.61908
v -0.07547 -0.18219 -1.62707
v -0.07386 -0.17831 -1.64000
v -0.07547 -0.18219 -1.65293
v -0.07968 -0.19235 -1.66092
v -0.08488 -0.20491 -1.66092
v -0.08909 -0.21508 -1.65293
v -0.04624 -0.23245 -1.64000
v -0.04542 -0.22833 -1.62707
v -0.04327 -0.21754 -1.61908
v -0.04062 -0.20420 -1.61908
v -0.03847 -0.19341 -1.62707
v -0.03765 -0.18929 -1.64000
v -0.03847 -0.19341 -1.65293
v -0.04062 -0.20420 -1.66092
v -0.04327 -0.21754 -1.66092
v -0.04542 -0.22833 -1.65293
v -0.00000 -0.23700 -1.64000
v -0.00000 -0.23280 -1.62707
v -0.00000 -0.22180 -1.61908
v -0.00000 -0.20820 -1.61908
v -0.00000 -0.19720 -1.62707
v -0.00000 -0.19300 -1.64000
v -0.00000 -0.19720 -1.65293
v -0.00000 -0.20820 -1.66092
v -0.00000 -0.22180 -1.66092
v -0.00000 -0.23280 -1.65293
v 0.04624 -0.23245 -1.64000
v 0.04542 -0.22833 -1.62707
v 0.04327 -0.21754 -1.61908
v 0.04062 -0.20420 -1.61908
v 0.03847 -0.19341 -1.62707
v 0.03765 -0.18929 -1.64000
v 0.03847 -0.19341 -1.65293
v 0.04062 -0.20420 -1.66092
v 0.04327 -0.21754 -1.66092
v 0.04542 -0.22833 -1.65293
v 0.09070 -0.21896 -1.64000
v 0.08909 -0.21508 -1.62707
v 0.08488 -0.20491 -1.61908
v 0.07968 -0.19235 -1.61908
v 0.07547 -0.18219 -1.62707
v 0.07386 -0.17831 -1.64000
v 0.07547 -0.18219 -1.65293
v 0.07968 -0.19235 -1.66092
v 0.08488 -0.20491 -1.66092
v 0.08909 -0.21508 -1.65293
v 0.13167 -0.19706 -1.64000
v 0.12934 -0.19356 -1.62707
v 0.12322 -0.18442 -1.61908
v 0.11567 -0.17311 -1.61908
v 0.10956 -0.16397 -1.62707
v 0.10723 -0.16047 -1.64000
v 0.10956 -0.16397 -1.65293
v 0.11567 -0.17311 -1.66092
v 0.12322 -0.18442 -1.66092
v 0.12934 -0.19356 -1.65293
v 0.16758 -0.16758 -1.64000
v 0.16461 -0.16461 -1.62707
v 0.15684 -0.15684 -1.61908
v 0.14722 -0.14722 -1.61908
v 0.13944 -0.13944 -1.62707
v 0.13647 -0.13647 -1.64000
v 0.13944 -0.13944 -1.65293
v 0.14722 -0.14722 -1.66092
v 0.15684 -0.15684 -1.66092
v 0.16461 -0.16461 -1.65293
v 0.19706 -0.13167 -1.64000
v 0.19356 -0.12934 -1.62707
v 0.18442 -0.12322 -1.61908
v 0.17311 -0.11567 -1.61908
v 0.16397 -0.10956 -1.62707
v 0.16047 -0.10723 -1.64000
v 0.16397 -0.10956 -1.65293
v 0.17311 -0.11567 -1.66092
v 0.18442 -0.12322 -1.66092
v 0.19356 -0.12934 -1.65293
v 0.21896 -0.09070 -1.64000
v 0.21508 -0.08909 -1.62707
v 0.20491 -0.08488 -1.61908
v 0.19235 -0.07968 -1.61908
v 0.18219 -0.07547 -1.62707
v 0.17831 -0.07386 -1.64000
v 0.18219 -0.07547 -1.65293
v 0.19235 -0.07968 -1.66092
v 0.20491 -0.08488 -1.66092
v 0.21508 -0.08909 -1.65293
v 0.23245 -0.04624 -1.64000
v 0.22833 -0.04542 -1.62707
v 0.21754 -0.04327 -1.61908
v 0.20420 -0.04062 -1.61908
v 0.19341 -0.03847 -1.62707
v 0.18929 -0.03765 -1.64000
v 0.19341 -0.03847 -1.65293
v 0.20420 -0.04062 -1.66092
v 0.21754 -0.04327 -1.66092
v 0.22833 -0.04542 -1.65293
v 0.23700 -0.00000 -1.64000
v 0.23280 -0.00000 -1.62707
v 0.22180 -0.00000 -1.61908
v 0.20820 -0.00000 -1.61908
v 0.19720 -0.00000 -1.62707
v 0.19300 -0.00000 -1.64000
v 0.19720 -0.00000 -1.65293
v 0.20820 -0.00000 -1.66092
v 0.22180 -0.00000 -1.66092
v 0.23280 -0.00000 -1.65293
v 0.23245 0.04624 -1.64000
v 0.22833 0.04542 -1.62707
v 0.21754 0.04327 -1.61908
v 0.20420 0.04062 -1.61908
v 0.19341 0.03847 -1.62707
v 0.18929 0.03765 -1.64000
v 0.19341 0.03847 -1.65293
v 0.20420 0.04062 -1.66092
v 0.21754 0.04327 -1.66092
v 0.22833 0.04542 -1.65293
v 0.21896 0.09070 -1.64000
v 0.21508 0.08909 -1.62707
v 0.20491 0.08488 -1.61908
v 0.19235 0.07968 -1.61908
v 0.18219 0.07547 -1.62707
v 0.17831 0.07386 -1.64000
v 0.18219 0.07547 -1.65293
v 0.19235 0.07968 -1.66092
v 0.20491 0.08488 -1.66092
v 0.21508 0.08909 -1.65293
v 0.19706 0.13167 -1.64000
v 0.19356 0.12934 -1.62707
v 0.18442 0.12322 -1.61908
v 0.17311 0.11567 -1.61908
v 0.16397 0.10956 -1.62707
v 0.16047 0.10723 -1.64000
v 0.16397 0.10956 -1.65293
v 0.17311 0.11567 -1.66092
v 0.18442 0.12322 -1.66092
v 0.19356 0.12934 -1.65293
v 0.16758 0.16758 -1.64000
v 0.16461 0.16461 -1.62707
v 0.15684 0.15684 -1.61908
v 0.14722 0.14722 -1.61908
v 0.13944 0.13944 -1.62707
v 0.13647 0.13647 -1.64000
v 0.13944 0.13944 -1.65293
v 0.14722 0.14722 -1.66092
v 0.15684 0.15684 -1.66092
v 0.16461 0.16461 -1.65293
v 0.13167 0.19706 -1.64000
v 0.12934 0.19356 -1.62707
v 0.12322 0.18442 -1.61908
v 0.11567 0.17311 -1.61908
v 0.10956 0.16397 -1.62707
v 0.10723 0.16047 -1.64000
v 0.10956 0.16397 -1.65293
v 0.11567 0.17311 -1.66092
v 0.12322 0.18442 -1.66092
v 0.12934 0.19356 -1.65293
v 0.09070 0.21896 -1.64000
v 0.08909 0.21508 -1.62707
v 0.08488 0.20491 -1.61908
v 0.07968 0.19235 -1.61908
v 0.07547 0.18219 -1.62707
v 0.07386 0.17831 -1.64000
v 0.07547 0.18219 -1.65293
v 0.07968 0.19235 -1.66092
v 0.08488 0.20491 -1.66092
v 0.08909 0.21508 -1.65293
v 0.04624 0.23245 -1.64000
v 0.04542 0.22833 -1.62707
v 0.04327 0.21754 -1.61908
v 0.04062 0.20420 -1.61908
v 0.03847 0.19341 -1.62707
v 0.03765 0.18929 -1.64000
v 0.03847 0.19341 -1.65293
v 0.04062 0.20420 -1.66092
v 0.04327 0.21754 -1.66092
v 0.04542 0.22833 -1.65293
v 0.00000 0.23700 -1.64000
v 0.00000 0.23280 -1.62707
v 0.00000 0.22180 -1.61908
v 0.00000 0.20820 -1.61908
v 0.00000 0.19720 -1.62707
v 0.00000 0.19300 -1.64000
v 0.00000 0.19720 -1.65293
v 0.00000 0.20820 -1.66092
v 0.00000 0.22180 -1.66092
v 0.00000 0.23280 -1.65293
v -0.04624 0.23245 -1.64000
v -0.04542 0.22833 -1.62707
v -0.04327 0.21754 -1.61908
v -0.04062 0.20420 -1.61908
v -0.03847 0.19341 -1.62707
v -0.03765 0.18929 -1.64000
v -0.03847 0.19341 -1.65293
v -0.04062 0.20420 -1.66092
v -0.04327 0.21754 -1.66092
v -0.04542 0.22833 -1.65293
v -0.09070 0.21896 -1.64000
v -0.08909 0.21508 -1.62707
v -0.08488 0.20491 -1.61908
v -0.07968 0.19235 -1.61908
v -0.07547 0.18219 -1.62707
v -0.07386 0.17831 -1.64000
v -0.07547 0.18219 -1.65293
v -0.07968 0.19235 -1.66092
v -0.08488 0.20491 -1.66092
v -0.08909 0.21508 -1.65293
v -0.13167 0.19706 -1.64000
v -0.12934 0.19356 -1.62707
v -0.12322 0.18442 -1.61908
v -0.11567 0.17311 -1.61908
v -0.10956 0.16397 -1.62707
v -0.10723 0.16047 -1.64000
v -0.10956 0.16397 -1.65293
v -0.11567 0.17311 -1.66092
v -0.12322 0.18442 -1.66092
v -0.12934 0.19356 -1.65293
v -0.16758 0.16758 -1.64000
v -0.16461 0.16461 -1.62707
v -0.15684 0.15684 -1.61908
v -0.14722 0.14722 -1.61908
v -0.13944 0.13944 -1.62707
v -0.13647 0.13647 -1.64000
v -0.13944 0.13944 -1.65293
v -0.14722 0.14722 -1.66092
v -0.15684 0.15684 -1.66092
v -0.16461 0.16461 -1.65293
v -0.19706 0.13167 -1.64000
v -0.19356 0.12934 -1.62707
v -0.18442 0.12322 -1.61908
v -0.17311 0.11567 -1.61908
v -0.16397 0.10956 -1.62707
v -0.16047 0.10723 -1.64000
v -0.16397 0.10956 -1.65293
v -0.17311 0.11567 -1.66092
v -0.18442 0.12322 -1.66092
v -0.19356 0.12934 -1.65293
v -0.21896 0.09070 -1.64000
v -0.21508 0.08909 -1.62707
v -0.20491 0.08488 -1.61908
v -0.19235 0.07968 -1.61908
v -0.18219 0.07547 -1.62707
v -0.17831 0.07386 -1.64000
v -0.18219 0.07547 -1.65293
v -0.19235 0.07968 -1.66092
v -0.20491 0.08488 -1.66092
v -0.21508 0.08909 -1.65293
v -0.23245 0.04624 -1.64000
v -0.22833 0.04542 -1.62707
v -0.21754 0.04327 -1.61908
v -0.20420 0.04062 -1.61908
v -0.19341 0.03847 -1.62707
v -0.18929 0.03765 -1.64000
v -0.19341 0.03847 -1.65293
v -0.20420 0.04062 -1.66092
v -0.21754 0.04327 -1.66092
v -0.22833 0.04542 -1.65293
f 1 12 2
f 2 13 3
f 13 4 3
f 14 5 4
f 15 6 5
f 6 17 7
f 17 8 7
f 18 9 8
f 19 10 9
f 20 1 10
f 21 12 11
f 12 23 13
f 13 24 14
f 24 15 14
f 25 16 15
f 16 27 17
f 27 18 17
f 28 19 18
f 29 20 19
f 20 21 11
f 21 32 22
f 32 23 22
f 33 24 23
f 34 25 24
f 35 26 25
f 36 27 26
f 27 38 28
f 38 29 28
f 29 40 30
f 40 21 30
f 41 32 31
f 32 43 33
f 43 34 33
f 44 35 34
f 35 46 36
f 36 47 37
f 37 48 38
f 38 49 39
f 49 40 39
f 50 31 40
f 41 52 42
f 52 43 42
f 43 54 44
f 54 45 44
f 55 46 45
f 46 57 47
f 57 48 47
f 58 49 48
f 59 50 49
f 60 41 50
f 51 62 52
f 52 63 53
f 63 54 53
f 64 55 54
f 55 66 56
f 66 57 56
f 57 68 58
f 58 69 59
f 59 70 60
f 70 51 60
f 71 62 61
f 72 63 62
f 73 64 63
f 74 65 64
f 65 76 66
f 76 67 66
f 67 78 68
f 68 79 69
f 69 80 70
f 70 71 61
f 81 72 71
f 72 83 73
f 83 74 73
f 74 85 75
f 75 86 76
f 86 77 76
f 87 78 77
f 88 79 78
f 89 80 79
f 90 71 80
f 81 92 82
f 92 83 82
f 93 84 83
f 94 85 84
f 95 86 85
f 86 97 87
f 87 98 88
f 98 89 88
f 89 100 90
f 100 81 90
f 91 102 92
f 92 103 93
f 93 104 94
f 94 105 95
f 105 96 95
f 96 107 97
f 107 98 97
f 108 99 98
f 109 100 99
f 110 91 100
f 111 102 101
f 112 103 102
f 113 104 103
f 104 115 105
f 115 106 105
f 106 117 107
f 117 108 107
f 118 109 108
f 119 110 109
f 110 111 101
f 121 112 111
f 112 123 113
f 123 114 113
f 124 115 114
f 115 126 116
f 126 117 116
f 127 118 117
f 118 129 119
f 119 130 120
f 120 121 111
f 121 132 122
f 132 123 122
f 123 134 124
f 124 135 125
f 135 126 125
f 136 127 126
f 137 128 127
f 138 129 128
f 129 140 130
f 140 121 130
f 141 132 131
f 132 143 133
f 143 134 133
f 144 135 134
f 135 146 136
f 136 147 137
f 147 138 137
f 138 149 139
f 149 140 139
f 140 141 131
f 141 152 142
f 152 143 142
f 153 144 143
f 144 155 145
f 145 156 146
f 156 147 146
f 147 158 148
f 148 159 149
f 149 160 150
f 160 141 150
f 161 152 151
f 162 153 152
f 163 154 153
f 154 165 155
f 155 166 156
f 166 157 156
f 157 168 158
f 168 159 158
f 169 160 159
f 160 161 151
f 161 172 162
f 162 173 163
f 173 164 163
f 174 165 164
f 175 166 165
f 166 177 167
f 177 168 167
f 178 169 168
f 179 170 169
f 180 161 170
f 181 172 171
f 172 183 173
f 173 184 174
f 184 175 174
f 185 176 175
f 176 187 177
f 187 178 177
f 188 179 178
f 189 180 179
f 180 181 171
f 181 192 182
f 192 183 182
f 193 184 183
f 194 185 184
f 195 186 185
f 196 187 186
f 187 198 188
f 198 189 188
f 189 200 190
f 200 181 190
f 201 192 191
f 192 203 193
f 203 194 193
f 204 195 194
f 195 206 196
f 196 207 197
f 197 208 198
f 198 209 199
f 209 200 199
f 210 191 200
f 201 212 202
f 212 203 202
f 203 214 204
f 214 205 204
f 215 206 205
f 206 217 207
f 217 208 207
f 218 209 208
f 219 210 209
f 220 201 210
f 211 222 212
f 212 223 213
f 223 214 213
f 224 215 214
f 215 226 216
f 226 217 216
f 217 228 218
f 218 229 219
f 219 230 220
f 230 211 220
f 231 222 221
f 232 223 222
f 233 224 223
f 234 225 224
f 225 236 226
f 236 227 226
f 227 238 228
f 228 239 229
f 229 240 230
f 230 231 221
f 241 232 231
f 232 243 233
f 243 234 233
f 234 245 235
f 235 246 236
f 246 237 236
f 247 238 237
f 248 239 238
f 249 240 239
f 250 231 240
f 241 252 242
f 252 243 242
f 253 244 243
f 254 245 244
f 255 246 245
f 246 257 247
f 247 258 248
f 258 249 248
f 249 260 250
f 260 241 250
f 251 262 252
f 252 263 253
f 253 264 254
f 254 265 255
f 265 256 255
f 256 267 257
f 267 258 257
f 268 259 258
f 269 260 259
f 270 251 260
f 271 262 261
f 272 263 262
f 273 264 263
f 264 275 265
f 275 266 265
f 266 277 267
f 277 268 267
f 278 269 268
f 279 270 269
f 270 271 261
f 281 272 271
f 272 283 273
f 283 274 273
f 284 275 274
f 275 286 276
f 286 277 276
f 287 278 277
f 278 289 279
f 279 290 280
f 280 281 271
f 281 292 282
f 292 283 282
f 283 294 284
f 284 295 285
f 295 286 285
f 296 287 286
f 297 288 287
f 298 289 288
f 289 300 290
f 300 281 290
f 301 292 291
f 292 303 293
f 303 294 293
f 304 295 294
f 295 306 296
f 296 307 297
f 307 298 297
f 298 309 299
f 309 300 299
f 300 301 291
f 301 312 302
f 312 303 302
f 313 304 303
f 304 315 305
f 305 316 306
f 316 307 306
f 307 318 308
f 308 319 309
f 309 320 310
f 320 301 310
f 1 312 311
f 2 313 312
f 3 314 313
f 314 5 315
f 315 6 316
f 6 317 316
f 317 8 318
f 8 319 318
f 9 320 319
f 320 1 311
f 321 332 322
f 322 333 323
f 333 324 323
f 324 335 325
f 325 336 326
f 336 327 326
f 337 328 327
f 328 339 329
f 339 330 329
f 340 321 330
f 331 342 332
f 342 333 332
f 333 344 334
f 344 335 334
f 335 346 336
f 346 337 336
f 337 348 338
f 348 339 338
f 339 350 340
f 350 331 340
f 341 352 342
f 342 353 343
f 353 344 343
f 344 355 345
f 355 346 345
f 346 357 347
f 347 358 348
f 348 359 349
f 349 360 350
f 360 341 350
f 351 362 352
f 362 353 352
f 353 364 354
f 354 365 355
f 355 366 356
f 356 367 357
f 367 358 357
f 368 359 358
f 359 370 360
f 370 351 360
f 371 362 361
f 372 363 362
f 373 364 363
f 364 375 365
f 365 376 366
f 376 367 366
f 377 368 367
f 378 369 368
f 369 380 370
f 370 371 361
f 371 382 372
f 372 383 373
f 383 374 373
f 374 385 375
f 375 386 376
f 386 377 376
f 387 378 377
f 388 379 378
f 379 390 380
f 390 371 380
f 381 392 382
f 382 393 383
f 393 384 383
f 394 385 384
f 395 386 385
f 386 397 387
f 397 388 387
f 388 399 389
f 399 390 389
f 390 391 381
f 391 402 392
f 392 403 393
f 393 404 394
f 404 395 394
f 405 396 395
f 396 407 397
f 397 408 398
f 408 399 398
f 409 400 399
f 410 391 400
f 411 402 401
f 412 403 402
f 413 404 403
f 404 415 405
f 405 416 406
f 416 407 406
f 417 408 407
f 408 419 409
f 409 420 410
f 410 411 401
f 421 412 411
f 422 413 412
f 413 424 414
f 414 425 415
f 415 426 416
f 426 417 416
f 417 428 418
f 428 419 418
f 419 430 420
f 430 411 420
f 431 422 421
f 432 423 422
f 433 424 423
f 434 425 424
f 435 426 425
f 426 437 427
f 427 438 428
f 428 439 429
f 439 430 429
f 430 431 421
f 431 442 432
f 432 443 433
f 433 444 434
f 444 435 434
f 445 436 435
f 436 447 437
f 437 448 438
f 448 439 438
f 449 440 439
f 450 431 440
f 451 442 441
f 442 453 443
f 453 444 443
f 454 445 444
f 455 446 445
f 446 457 447
f 447 458 448
f 458 449 448
f 459 450 449
f 460 441 450
f 461 452 451
f 462 453 452
f 463 454 453
f 464 455 454
f 455 466 456
f 466 457 456
f 467 458 457
f 468 459 458
f 469 460 459
f 460 461 451
f 471 462 461
f 462 473 463
f 473 464 463
f 464 475 465
f 475 466 465
f 466 477 467
f 477 468 467
f 468 479 469
f 479 470 469
f 470 471 461
f 481 472 471
f 472 483 473
f 473 484 474
f 484 475 474
f 485 476 475
f 476 487 477
f 477 488 478
f 488 479 478
f 489 480 479
f 480 481 471
f 481 492 482
f 482 493 483
f 493 484 483
f 484 495 485
f 485 496 486
f 496 487 486
f 497 488 487
f 488 499 489
f 499 490 489
f 500 481 490
f 491 502 492
f 502 493 492
f 493 504 494
f 504 495 494
f 495 506 496
f 506 497 496
f 497 508 498
f 508 499 498
f 499 510 500
f 510 491 500
f 501 512 502
f 502 513 503
f 513 504 503
f 504 515 505
f 515 506 505
f 506 517 507
f 507 518 508
f 508 519 509
f 509 520 510
f 520 501 510
f 511 522 512
f 522 513 512
f 513 524 514
f 514 525 515
f 515 526 516
f 516 527 517
f 527 518 517
f 528 519 518
f 519 530 520
f 530 511 520
f 531 522 521
f 532 523 522
f 533 524 523
f 524 535 525
f 525 536 526
f 536 527 526
f 537 528 527
f 538 529 528
f 529 540 530
f 530 531 521
f 531 542 532
f 532 543 533
f 543 534 533
f 534 545 535
f 535 546 536
f 546 537 536
f 547 538 537
f 548 539 538
f 539 550 540
f 550 531 540
f 541 552 542
f 542 553 543
f 553 544 543
f 554 545 544
f 555 546 545
f 546 557 547
f 557 548 547
f 548 559 549
f 559 550 549
f 550 551 541
f 551 562 552
f 552 563 553
f 553 564 554
f 564 555 554
f 565 556 555
f 556 567 557
f 557 568 558
f 568 559 558
f 569 560 559
f 570 551 560
f 571 562 561
f 572 563 562
f 573 564 563
f 564 575 565
f 565 576 566
f 576 567 566
f 577 568 567
f 568 579 569
f 569 580 570
f 570 571 561
f 581 572 571
f 582 573 572
f 573 584 574
f 574 585 575
f 575 586 576
f 586 577 576
f 577 588 578
f 588 579 578
f 579 590 580
f 590 571 580
f 591 582 581
f 592 583 582
f 593 584 583
f 594 585 584
f 595 586 585
f 586 597 587
f 587 598 588
f 588 599 589
f 599 590 589
f 590 591 581
f 591 602 592
f 592 603 593
f 593 604 594
f 604 595 594
f 605 596 595
f 596 607 597
f 597 608 598
f 608 599 598
f 609 600 599
f 610 591 600
f 611 602 601
f 602 613 603
f 613 604 603
f 614 605 604
f 615 606 605
f 606 617 607
f 607 618 608
f 618 609 608
f 619 610 609
f 620 601 610
f 621 612 611
f 622 613 612
f 623 614 613
f 624 615 614
f 615 626 616
f 626 617 616
f 627 618 617
f 628 619 618
f 629 620 619
f 620 621 611
f 631 622 621
f 622 633 623
f 633 624 623
f 624 635 625
f 635 626 625
f 626 637 627
f 637 628 627
f 628 639 629
f 639 630 629
f 630 631 621
f 321 632 631
f 632 323 633
f 633 324 634
f 324 635 634
f 325 636 635
f 636 327 637
f 637 328 638
f 328 639 638
f 329 640 639
f 640 321 631
f 651 642 641
f 652 643 642
f 653 644 643
f 644 655 645
f 655 646 645
f 646 657 647
f 647 658 648
f 658 649 648
f 649 660 650
f 650 651 641
f 661 652 651
f 652 663 653
f 653 664 654
f 664 655 654
f 665 656 655
f 666 657 656
f 667 658 657
f 668 659 658
f 669 660 659
f 660 661 651
f 661 672 662
f 672 663 662
f 673 664 663
f 664 675 665
f 665 676 666
f 666 677 667
f 677 668 667
f 678 669 668
f 679 670 669
f 680 661 670
f 671 682 672
f 682 673 672
f 673 684 674
f 674 685 675
f 685 676 675
f 676 687 677
f 677 688 678
f 688 679 678
f 689 680 679
f 690 671 680
f 681 692 682
f 682 693 683
f 693 684 683
f 694 685 684
f 695 686 685
f 686 697 687
f 687 698 688
f 688 699 689
f 699 690 689
f 690 691 681
f 701 692 691
f 702 693 692
f 703 694 693
f 704 695 694
f 695 706 696
f 706 697 696
f 697 708 698
f 708 699 698
f 699 710 700
f 710 691 700
f 701 712 702
f 712 703 702
f 713 704 703
f 714 705 704
f 705 716 706
f 716 707 706
f 717 708 707
f 708 719 709
f 709 720 710
f 710 711 701
f 711 722 712
f 712 723 713
f 713 724 714
f 724 715 714
f 715 726 716
f 716 727 717
f 727 718 717
f 728 719 718
f 719 730 720
f 720 721 711
f 731 722 721
f 732 723 722
f 733 724 723
f 724 735 725
f 735 726 725
f 736 727 726
f 727 738 728
f 738 729 728
f 739 730 729
f 740 721 730
f 731 742 732
f 732 743 733
f 733 744 734
f 734 745 735
f 745 736 735
f 736 747 737
f 737 748 738
f 748 739 738
f 749 740 739
f 750 731 740
f 741 752 742
f 742 753 743
f 753 744 743
f 744 755 745
f 755 746 745
f 746 757 747
f 757 748 747
f 758 749 748
f 759 750 749
f 750 751 741
f 761 752 751
f 762 753 752
f 753 764 754
f 764 755 754
f 755 766 756
f 766 757 756
f 767 758 757
f 768 759 758
f 759 770 760
f 770 751 760
f 761 772 762
f 762 773 763
f 773 764 763
f 774 765 764
f 765 776 766
f 776 767 766
f 777 768 767
f 768 779 769
f 769 780 770
f 770 771 761
f 781 772 771
f 772 783 773
f 783 774 773
f 784 775 774
f 785 776 775
f 786 777 776
f 777 788 778
f 788 779 778
f 779 790 780
f 790 771 780
f 781 792 782
f 792 783 782
f 793 784 783
f 784 795 785
f 785 796 786
f 796 787 786
f 787 798 788
f 788 799 789
f 789 800 790
f 800 781 790
f 791 802 792
f 792 803 793
f 793 804 794
f 804 795 794
f 795 806 796
f 806 797 796
f 807 798 797
f 808 799 798
f 809 800 799
f 810 791 800
f 811 802 801
f 812 803 802
f 813 804 803
f 804 815 805
f 815 806 805
f 806 817 807
f 807 818 808
f 818 809 808
f 809 820 810
f 810 811 801
f 821 812 811
f 812 823 813
f 813 824 814
f 824 815 814
f 825 816 815
f 826 817 816
f 827 818 817
f 828 819 818
f 829 820 819
f 820 821 811
f 821 832 822
f 832 823 822
f 833 824 823
f 824 835 825
f 825 836 826
f 826 837 827
f 837 828 827
f 838 829 828
f 839 830 829
f 840 821 830
f 831 842 832
f 842 833 832
f 833 844 834
f 834 845 835
f 845 836 835
f 836 847 837
f 837 848 838
f 848 839 838
f 849 840 839
f 850 831 840
f 841 852 842
f 842 853 843
f 853 844 843
f 854 845 844
f 855 846 845
f 846 857 847
f 847 858 848
f 848 859 849
f 859 850 849
f 850 851 841
f 861 852 851
f 862 853 852
f 863 854 853
f 864 855 854
f 855 866 856
f 866 857 856
f 857 868 858
f 868 859 858
f 859 870 860
f 870 851 860
f 861 872 862
f 872 863 862
f 873 864 863
f 874 865 864
f 865 876 866
f 876 867 866
f 877 868 867
f 868 879 869
f 869 880 870
f 870 871 861
f 871 882 872
f 872 883 873
f 873 884 874
f 884 875 874
f 875 886 876
f 876 887 877
f 887 878 877
f 888 879 878
f 879 890 880
f 880 881 871
f 891 882 881
f 892 883 882
f 893 884 883
f 884 895 885
f 895 886 885
f 896 887 886
f 887 898 888
f 898 889 888
f 899 890 889
f 900 881 890
f 891 902 892
f 892 903 893
f 893 904 894
f 894 905 895
f 905 896 895
f 896 907 897
f 897 908 898
f 908 899 898
f 909 900 899
f 910 891 900
f 901 912 902
f 902 913 903
f 913 904 903
f 904 915 905
f 915 906 905
f 906 917 907
f 917 908 907
f 918 909 908
f 919 910 909
f 910 911 901
f 921 912 911
f 922 913 912
f 913 924 914
f 924 915 914
f 915 926 916
f 926 917 916
f 927 918 917
f 928 919 918
f 919 930 920
f 930 911 920
f 921 932 922
f 922 933 923
f 933 924 923
f 934 925 924
f 925 936 926
f 936 927 926
f 937 928 927
f 928 939 929
f 929 940 930
f 930 931 921
f 941 932 931
f 932 943 933
f 943 934 933
f 944 935 934
f 945 936 935
f 946 937 936
f 937 948 938
f 948 939 938
f 939 950 940
f 950 931 940
f 941 952 942
f 952 943 942
f 953 944 943
f 944 955 945
f 945 956 946
f 956 947 946
f 947 958 948
f 948 959 949
f 949 960 950
f 960 941 950
f 951 642 952
f 952 643 953
f 953 644 954
f 644 955 954
f 955 646 956
f 646 957 956
f 647 958 957
f 648 959 958
f 649 960 959
f 650 951 960
f 971 962 961
f 972 963 962
f 973 964 963
f 964 975 965
f 975 966 965
f 976 967 966
f 977 968 967
f 978 969 968
f 969 980 970
f 970 971 961
f 981 972 971
f 982 973 972
f 973 984 974
f 984 975 974
f 985 976 975
f 976 987 977
f 987 978 977
f 988 979 978
f 989 980 979
f 980 981 971
f 991 982 981
f 982 993 983
f 993 984 983
f 984 995 985
f 995 986 985
f 986 997 987
f 997 988 987
f 998 989 988
f 989 1000 990
f 1000 981 990
f 991 1002 992
f 1002 993 992
f 993 1004 994
f 1004 995 994
f 1005 996 995
f 996 1007 997
f 1007 998 997
f 1008 999 998
f 999 1010 1000
f 1000 1001 991
f 1001 1012 1002
f 1002 1013 1003
f 1013 1004 1003
f 1004 1015 1005
f 1015 1006 1005
f 1006 1017 1007
f 1007 1018 1008
f 1008 1019 1009
f 1009 1020 1010
f 1010 1011 1001
f 1011 1022 1012
f 1022 1013 1012
f 1023 1014 1013
f 1014 1025 1015
f 1015 1026 1016
f 1026 1017 1016
f 1017 1028 1018
f 1028 1019 1018
f 1019 1030 1020
f 1020 1021 1011
f 1031 1022 1021
f 1022 1033 1023
f 1033 1024 1023
f 1034 1025 1024
f 1035 1026 1025
f 1036 1027 1026
f 1037 1028 1027
f 1028 1039 1029
f 1039 1030 1029
f 1040 1021 1030
f 1031 1042 1032
f 1032 1043 1033
f 1033 1044 1034
f 1034 1045 1035
f 1035 1046 1036
f 1046 1037 1036
f 1047 1038 1037
f 1048 1039 1038
f 1049 1040 1039
f 1040 1041 1031
f 1051 1042 1041
f 1052 1043 1042
f 1053 1044 1043
f 1054 1045 1044
f 1055 1046 1045
f 1046 1057 1047
f 1047 1058 1048
f 1058 1049 1048
f 1049 1060 1050
f 1060 1041 1050
f 1051 1062 1052
f 1062 1053 1052
f 1053 1064 1054
f 1054 1065 1055
f 1065 1056 1055
f 1056 1067 1057
f 1057 1068 1058
f 1068 1059 1058
f 1059 1070 1060
f 1060 1061 1051
f 1071 1062 1061
f 1062 1073 1063
f 1073 1064 1063
f 1074 1065 1064
f 1075 1066 1065
f 1066 1077 1067
f 1077 1068 1067
f 1078 1069 1068
f 1079 1070 1069
f 1080 1061 1070
f 1071 1082 1072
f 1072 1083 1073
f 1073 1084 1074
f 1074 1085 1075
f 1075 1086 1076
f 1076 1087 1077
f 1087 1078 1077
f 1088 1079 1078
f 1089 1080 1079
f 1080 1081 1071
f 1091 1082 1081
f 1092 1083 1082
f 1093 1084 1083
f 1084 1095 1085
f 1085 1096 1086
f 1096 1087 1086
f 1087 1098 1088
f 1088 1099 1089
f 1099 1090 1089
f 1100 1081 1090
f 1091 1102 1092
f 1102 1093 1092
f 1103 1094 1093
f 1104 1095 1094
f 1095 1106 1096
f 1106 1097 1096
f 1097 1108 1098
f 1108 1099 1098
f 1109 1100 1099
f 1100 1101 1091
f 1101 1112 1102
f 1102 1113 1103
f 1113 1104 1103
f 1104 1115 1105
f 1105 1116 1106
f 1116 1107 1106
f 1107 1118 1108
f 1108 1119 1109
f 1109 1120 1110
f 1120 1101 1110
f 1121 1112 1111
f 1112 1123 1113
f 1113 1124 1114
f 1124 1115 1114
f 1115 1126 1116
f 1116 1127 1117
f 1117 1128 1118
f 1128 1119 1118
f 1129 1120 1119
f 1130 1111 1120
f 1131 1122 1121
f 1132 1123 1122
f 1133 1124 1123
f 1124 1135 1125
f 1135 1126 1125
f 1136 1127 1126
f 1137 1128 1127
f 1138 1129 1128
f 1129 1140 1130
f 1130 1131 1121
f 1141 1132 1131
f 1142 1133 1132
f 1133 1144 1134
f 1144 1135 1134
f 1145 1136 1135
f 1136 1147 1137
f 1147 1138 1137
f 1148 1139 1138
f 1149 1140 1139
f 1140 1141 1131
f 1151 1142 1141
f 1142 1153 1143
f 1153 1144 1143
f 1144 1155 1145
f 1155 1146 1145
f 1146 1157 1147
f 1157 1148 1147
f 1158 1149 1148
f 1149 1160 1150
f 1160 1141 1150
f 1151 1162 1152
f 1162 1153 1152
f 1153 1164 1154
f 1164 1155 1154
f 1165 1156 1155
f 1156 1167 1157
f 1167 1158 1157
f 1168 1159 1158
f 1159 1170 1160
f 1160 1161 1151
f 1161 1172 1162
f 1162 1173 1163
f 1173 1164 1163
f 1164 1175 1165
f 1175 1166 1165
f 1166 1177 1167
f 1167 1178 1168
f 1168 1179 1169
f 1169 1180 1170
f 1170 1171 1161
f 1171 1182 1172
f 1182 1173 1172
f 1183 1174 1173
f 1174 1185 1175
f 1175 1186 1176
f 1186 1177 1176
f 1177 1188 1178
f 1188 1179 1178
f 1179 1190 1180
f 1180 1181 1171
f 1191 1182 1181
f 1182 1193 1183
f 1193 1184 1183
f 1194 1185 1184
f 1195 1186 1185
f 1196 1187 1186
f 1197 1188 1187
f 1188 1199 1189
f 1199 1190 1189
f 1200 1181 1190
f 1191 1202 1192
f 1192 1203 1193
f 1193 1204 1194
f 1194 1205 1195
f 1195 1206 1196
f 1206 1197 1196
f 1207 1198 1197
f 1208 1199 1198
f 1209 1200 1199
f 1200 1201 1191
f 1211 1202 1201
f 1212 1203 1202
f 1213 1204 1203
f 1214 1205 1204
f 1215 1206 1205
f 1206 1217 1207
f 1207 1218 1208
f 1218 1209 1208
f 1209 1220 1210
f 1220 1201 1210
f 1211 1222 1212
f 1222 1213 1212
f 1213 1224 1214
f 1214 1225 1215
f 1225 1216 1215
f 1216 1227 1217
f 1217 1228 1218
f 1228 1219 1218
f 1219 1230 1220
f 1220 1221 1211
f 1231 1222 1221
f 1222 1233 1223
f 1233 1224 1223
f 1234 1225 1224
f 1235 1226 1225
f 1226 1237 1227
f 1237 1228 1227
f 1238 1229 1228
f 1239 1230 1229
f 1240 1221 1230
f 1231 1242 1232
f 1232 1243 1233
f 1233 1244 1234
f 1234 1245 1235
f 1235 1246 1236
f 1236 1247 1237
f 1247 1238 1237
f 1248 1239 1238
f 1249 1240 1239
f 1240 1241 1231
f 1251 1242 1241
f 1252 1243 1242
f 1253 1244 1243
f 1244 1255 1245
f 1245 1256 1246
f 1256 1247 1246
f 1247 1258 1248
f 1248 1259 1249
f 1259 1250 1249
f 1260 1241 1250
f 1251 1262 1252
f 1262 1253 1252
f 1263 1254 1253
f 1264 1255 1254
f 1255 1266 1256
f 1266 1257 1256
f 1257 1268 1258
f 1268 1259 1258
f 1269 1260 1259
f 1260 1261 1251
f 1261 1272 1262
f 1262 1273 1263
f 1273 1264 1263
f 1264 1275 1265
f 1265 1276 1266
f 1276 1267 1266
f 1267 1278 1268
f 1268 1279 1269
f 1269 1280 1270
f 1280 1261 1270
f 961 1272 1271
f 1272 963 1273
f 1273 964 1274
f 964 1275 1274
f 1275 966 1276
f 1276 967 1277
f 1277 968 1278
f 968 1279 1278
f 969 1280 1279
f 970 1271 1280
f 1 11 12
f 2 12 13
f 13 14 4
f 14 15 5
f 15 16 6
f 6 16 17
f 17 18 8
f 18 19 9
f 19 20 10
f 20 11 1
f 21 22 12
f 12 22 23
f 13 23 24
f 24 25 15
f 25 26 16
f 16 26 27
f 27 28 18
f 28 29 19
f 29 30 20
f 20 30 21
f 21 31 32
f 32 33 23
f 33 34 24
f 34 35 25
f 35 36 26
f 36 37 27
f 27 37 38
f 38 39 29
f 29 39 40
f 40 31 21
f 41 42 32
f 32 42 43
f 43 44 34
f 44 45 35
f 35 45 46
f 36 46 47
f 37 47 48
f 38 48 49
f 49 50 40
f 50 41 31
f 41 51 52
f 52 53 43
f 43 53 54
f 54 55 45
f 55 56 46
f 46 56 57
f 57 58 48
f 58 59 49
f 59 60 50
f 60 51 41
f 51 61 62
f 52 62 63
f 63 64 54
f 64 65 55
f 55 65 66
f 66 67 57
f 57 67 68
f 58 68 69
f 59 69 70
f 70 61 51
f 71 72 62
f 72 73 63
f 73 74 64
f 74 75 65
f 65 75 76
f 76 77 67
f 67 77 78
f 68 78 79
f 69 79 80
f 70 80 71
f 81 82 72
f 72 82 83
f 83 84 74
f 74 84 85
f 75 85 86
f 86 87 77
f 87 88 78
f 88 89 79
f 89 90 80
f 90 81 71
f 81 91 92
f 92 93 83
f 93 94 84
f 94 95 85
f 95 96 86
f 86 96 97
f 87 97 98
f 98 99 89
f 89 99 100
f 100 91 81
f 91 101 102
f 92 102 103
f 93 103 104
f 94 104 105
f 105 106 96
f 96 106 107
f 107 108 98
f 108 109 99
f 109 110 100
f 110 101 91
f 111 112 102
f 112 113 103
f 113 114 104
f 104 114 115
f 115 116 106
f 106 116 117
f 117 118 108
f 118 119 109
f 119 120 110
f 110 120 111
f 121 122 112
f 112 122 123
f 123 124 114
f 124 125 115
f 115 125 126
f 126 127 117
f 127 128 118
f 118 128 129
f 119 129 130
f 120 130 121
f 121 131 132
f 132 133 123
f 123 133 134
f 124 134 135
f 135 136 126
f 136 137 127
f 137 138 128
f 138 139 129
f 129 139 140
f 140 131 121
f 141 142 132
f 132 142 143
f 143 144 134
f 144 145 135
f 135 145 146
f 136 146 147
f 147 148 138
f 138 148 149
f 149 150 140
f 140 150 141
f 141 151 152
f 152 153 143
f 153 154 144
f 144 154 155
f 145 155 156
f 156 157 147
f 147 157 158
f 148 158 159
f 149 159 160
f 160 151 141
f 161 162 152
f 162 163 153
f 163 164 154
f 154 164 165
f 155 165 166
f 166 167 157
f 157 167 168
f 168 169 159
f 169 170 160
f 160 170 161
f 161 171 172
f 162 172 173
f 173 174 164
f 174 175 165
f 175 176 166
f 166 176 177
f 177 178 168
f 178 179 169
f 179 180 170
f 180 171 161
f 181 182 172
f 172 182 183
f 173 183 184
f 184 185 175
f 185 186 176
f 176 186 187
f 187 188 178
f 188 189 179
f 189 190 180
f 180 190 181
f 181 191 192
f 192 193 183
f 193 194 184
f 194 195 185
f 195 196 186
f 196 197 187
f 187 197 198
f 198 199 189
f 189 199 200
f 200 191 181
f 201 202 192
f 192 202 203
f 203 204 194
f 204 205 195
f 195 205 206
f 196 206 207
f 197 207 208
f 198 208 209
f 209 210 200
f 210 201 191
f 201 211 212
f 212 213 203
f 203 213 214
f 214 215 205
f 215 216 206
f 206 216 217
f 217 218 208
f 218 219 209
f 219 220 210
f 220 211 201
f 211 221 222
f 212 222 223
f 223 224 214
f 224 225 215
f 215 225 226
f 226 227 217
f 217 227 228
f 218 228 229
f 219 229 230
f 230 221 211
f 231 232 222
f 232 233 223
f 233 234 224
f 234 235 225
f 225 235 236
f 236 237 227
f 227 237 238
f 228 238 239
f 229 239 240
f 230 240 231
f 241 242 232
f 232 242 243
f 243 244 234
f 234 244 245
f 235 245 246
f 246 247 237
f 247 248 238
f 248 249 239
f 249 250 240
f 250 241 231
f 241 251 252
f 252 253 243
f 253 254 244
f 254 255 245
f 255 256 246
f 246 256 257
f 247 257 258
f 258 259 249
f 249 259 260
f 260 251 241
f 251 261 262
f 252 262 263
f 253 263 264
f 254 264 265
f 265 266 256
f 256 266 267
f 267 268 258
f 268 269 259
f 269 270 260
f 270 261 251
f 271 272 262
f 272 273 263
f 273 274 264
f 264 274 275
f 275 276 266
f 266 276 277
f 277 278 268
f 278 279 269
f 279 280 270
f 270 280 271
f 281 282 272
f 272 282 283
f 283 284 274
f 284 285 275
f 275 285 286
f 286 287 277
f 287 288 278
f 278 288 289
f 279 289 290
f 280 290 281
f 281 291 292
f 292 293 283
f 283 293 294
f 284 294 295
f 295 296 286
f 296 297 287
f 297 298 288
f 298 299 289
f 289 299 300
f 300 291 281
f 301 302 292
f 292 302 303
f 303 304 294
f 304 305 295
f 295 305 306
f 296 306 307
f 307 308 298
f 298 308 309
f 309 310 300
f 300 310 301
f 301 311 312
f 312 313 303
f 313 314 304
f 304 314 315
f 305 315 316
f 316 317 307
f 307 317 318
f 308 318 319
f 309 319 320
f 320 311 301
f 1 2 312
f 2 3 313
f 3 4 314
f 314 4 5
f 315 5 6
f 6 7 317
f 317 7 8
f 8 9 319
f 9 10 320
f 320 10 1
f 321 331 332
f 322 332 333
f 333 334 324
f 324 334 335
f 325 335 336
f 336 337 327
f 337 338 328
f 328 338 339
f 339 340 330
f 340 331 321
f 331 341 342
f 342 343 333
f 333 343 344
f 344 345 335
f 335 345 346
f 346 347 337
f 337 347 348
f 348 349 339
f 339 349 350
f 350 341 331
f 341 351 352
f 342 352 353
f 353 354 344
f 344 354 355
f 355 356 346
f 346 356 357
f 347 357 358
f 348 358 359
f 349 359 360
f 360 351 341
f 351 361 362
f 362 363 353
f 353 363 364
f 354 364 365
f 355 365 366
f 356 366 367
f 367 368 358
f 368 369 359
f 359 369 370
f 370 361 351
f 371 372 362
f 372 373 363
f 373 374 364
f 364 374 375
f 365 375 376
f 376 377 367
f 377 378 368
f 378 379 369
f 369 379 380
f 370 380 371
f 371 381 382
f 372 382 383
f 383 384 374
f 374 384 385
f 375 385 386
f 386 387 377
f 387 388 378
f 388 389 379
f 379 389 390
f 390 381 371
f 381 391 392
f 382 392 393
f 393 394 384
f 394 395 385
f 395 396 386
f 386 396 397
f 397 398 388
f 388 398 399
f 399 400 390
f 390 400 391
f 391 401 402
f 392 402 403
f 393 403 404
f 404 405 395
f 405 406 396
f 396 406 407
f 397 407 408
f 408 409 399
f 409 410 400
f 410 401 391
f 411 412 402
f 412 413 403
f 413 414 404
f 404 414 415
f 405 415 416
f 416 417 407
f 417 418 408
f 408 418 419
f 409 419 420
f 410 420 411
f 421 422 412
f 422 423 413
f 413 423 424
f 414 424 425
f 415 425 426
f 426 427 417
f 417 427 428
f 428 429 419
f 419 429 430
f 430 421 411
f 431 432 422
f 432 433 423
f 433 434 424
f 434 435 425
f 435 436 426
f 426 436 437
f 427 437 438
f 428 438 439
f 439 440 430
f 430 440 431
f 431 441 442
f 432 442 443
f 433 443 444
f 444 445 435
f 445 446 436
f 436 446 447
f 437 447 448
f 448 449 439
f 449 450 440
f 450 441 431
f 451 452 442
f 442 452 453
f 453 454 444
f 454 455 445
f 455 456 446
f 446 456 457
f 447 457 458
f 458 459 449
f 459 460 450
f 460 451 441
f 461 462 452
f 462 463 453
f 463 464 454
f 464 465 455
f 455 465 466
f 466 467 457
f 467 468 458
f 468 469 459
f 469 470 460
f 460 470 461
f 471 472 462
f 462 472 473
f 473 474 464
f 464 474 475
f 475 476 466
f 466 476 477
f 477 478 468
f 468 478 479
f 479 480 470
f 470 480 471
f 481 482 472
f 472 482 483
f 473 483 484
f 484 485 475
f 485 486 476
f 476 486 487
f 477 487 488
f 488 489 479
f 489 490 480
f 480 490 481
f 481 491 492
f 482 492 493
f 493 494 484
f 484 494 495
f 485 495 496
f 496 497 487
f 497 498 488
f 488 498 499
f 499 500 490
f 500 491 481
f 491 501 502
f 502 503 493
f 493 503 504
f 504 505 495
f 495 505 506
f 506 507 497
f 497 507 508
f 508 509 499
f 499 509 510
f 510 501 491
f 501 511 512
f 502 512 513
f 513 514 504
f 504 514 515
f 515 516 506
f 506 516 517
f 507 517 518
f 508 518 519
f 509 519 520
f 520 511 501
f 511 521 522
f 522 523 513
f 513 523 524
f 514 524 525
f 515 525 526
f 516 526 527
f 527 528 518
f 528 529 519
f 519 529 530
f 530 521 511
f 531 532 522
f 532 533 523
f 533 534 524
f 524 534 535
f 525 535 536
f 536 537 527
f 537 538 528
f 538 539 529
f 529 539 540
f 530 540 531
f 531 541 542
f 532 542 543
f 543 544 534
f 534 544 545
f 535 545 546
f 546 547 537
f 547 548 538
f 548 549 539
f 539 549 550
f 550 541 531
f 541 551 552
f 542 552 553
f 553 554 544
f 554 555 545
f 555 556 546
f 546 556 557
f 557 558 548
f 548 558 559
f 559 560 550
f 550 560 551
f 551 561 562
f 552 562 563
f 553 563 564
f 564 565 555
f 565 566 556
f 556 566 567
f 557 567 568
f 568 569 559
f 569 570 560
f 570 561 551
f 571 572 562
f 572 573 563
f 573 574 564
f 564 574 575
f 565 575 576
f 576 577 567
f 577 578 568
f 568 578 579
f 569 579 580
f 570 580 571
f 581 582 572
f 582 583 573
f 573 583 584
f 574 584 585
f 575 585 586
f 586 587 577
f 577 587 588
f 588 589 579
f 579 589 590
f 590 581 571
f 591 592 582
f 592 593 583
f 593 594 584
f 594 595 585
f 595 596 586
f 586 596 597
f 587 597 598
f 588 598 599
f 599 600 590
f 590 600 591
f 591 601 602
f 592 602 603
f 593 603 604
f 604 605 595
f 605 606 596
f 596 606 607
f 597 607 608
f 608 609 599
f 609 610 600
f 610 601 591
f 611 612 602
f 602 612 613
f 613 614 604
f 614 615 605
f 615 616 606
f 606 616 617
f 607 617 618
f 618 619 609
f 619 620 610
f 620 611 601
f 621 622 612
f 622 623 613
f 623 624 614
f 624 625 615
f 615 625 626
f 626 627 617
f 627 628 618
f 628 629 619
f 629 630 620
f 620 630 621
f 631 632 622
f 622 632 633
f 633 634 624
f 624 634 635
f 635 636 626
f 626 636 637
f 637 638 628
f 628 638 639
f 639 640 630
f 630 640 631
f 321 322 632
f 632 322 323
f 633 323 324
f 324 325 635
f 325 326 636
f 636 326 327
f 637 327 328
f 328 329 639
f 329 330 640
f 640 330 321
f 651 652 642
f 652 653 643
f 653 654 644
f 644 654 655
f 655 656 646
f 646 656 657
f 647 657 658
f 658 659 649
f 649 659 660
f 650 660 651
f 661 662 652
f 652 662 663
f 653 663 664
f 664 665 655
f 665 666 656
f 666 667 657
f 667 668 658
f 668 669 659
f 669 670 660
f 660 670 661
f 661 671 672
f 672 673 663
f 673 674 664
f 664 674 675
f 665 675 676
f 666 676 677
f 677 678 668
f 678 679 669
f 679 680 670
f 680 671 661
f 671 681 682
f 682 683 673
f 673 683 684
f 674 684 685
f 685 686 676
f 676 686 687
f 677 687 688
f 688 689 679
f 689 690 680
f 690 681 671
f 681 691 692
f 682 692 693
f 693 694 684
f 694 695 685
f 695 696 686
f 686 696 697
f 687 697 698
f 688 698 699
f 699 700 690
f 690 700 691
f 701 702 692
f 702 703 693
f 703 704 694
f 704 705 695
f 695 705 706
f 706 707 697
f 697 707 708
f 708 709 699
f 699 709 710
f 710 701 691
f 701 711 712
f 712 713 703
f 713 714 704
f 714 715 705
f 705 715 716
f 716 717 707
f 717 718 708
f 708 718 719
f 709 719 720
f 710 720 711
f 711 721 722
f 712 722 723
f 713 723 724
f 724 725 715
f 715 725 726
f 716 726 727
f 727 728 718
f 728 729 719
f 719 729 730
f 720 730 721
f 731 732 722
f 732 733 723
f 733 734 724
f 724 734 735
f 735 736 726
f 736 737 727
f 727 737 738
f 738 739 729
f 739 740 730
f 740 731 721
f 731 741 742
f 732 742 743
f 733 743 744
f 734 744 745
f 745 746 736
f 736 746 747
f 737 747 748
f 748 749 739
f 749 750 740
f 750 741 731
f 741 751 752
f 742 752 753
f 753 754 744
f 744 754 755
f 755 756 746
f 746 756 757
f 757 758 748
f 758 759 749
f 759 760 750
f 750 760 751
f 761 762 752
f 762 763 753
f 753 763 764
f 764 765 755
f 755 765 766
f 766 767 757
f 767 768 758
f 768 769 759
f 759 769 770
f 770 761 751
f 761 771 772
f 762 772 773
f 773 774 764
f 774 775 765
f 765 775 776
f 776 777 767
f 777 778 768
f 768 778 779
f 769 779 780
f 770 780 771
f 781 782 772
f 772 782 783
f 783 784 774
f 784 785 775
f 785 786 776
f 786 787 777
f 777 787 788
f 788 789 779
f 779 789 790
f 790 781 771
f 781 791 792
f 792 793 783
f 793 794 784
f 784 794 795
f 785 795 796
f 796 797 787
f 787 797 798
f 788 798 799
f 789 799 800
f 800 791 781
f 791 801 802
f 792 802 803
f 793 803 804
f 804 805 795
f 795 805 806
f 806 807 797
f 807 808 798
f 808 809 799
f 809 810 800
f 810 801 791
f 811 812 802
f 812 813 803
f 813 814 804
f 804 814 815
f 815 816 806
f 806 816 817
f 807 817 818
f 818 819 809
f 809 819 820
f 810 820 811
f 821 822 812
f 812 822 823
f 813 823 824
f 824 825 815
f 825 826 816
f 826 827 817
f 827 828 818
f 828 829 819
f 829 830 820
f 820 830 821
f 821 831 832
f 832 833 823
f 833 834 824
f 824 834 835
f 825 835 836
f 826 836 837
f 837 838 828
f 838 839 829
f 839 840 830
f 840 831 821
f 831 841 842
f 842 843 833
f 833 843 844
f 834 844 845
f 845 846 836
f 836 846 847
f 837 847 848
f 848 849 839
f 849 850 840
f 850 841 831
f 841 851 852
f 842 852 853
f 853 854 844
f 854 855 845
f 855 856 846
f 846 856 857
f 847 857 858
f 848 858 859
f 859 860 850
f 850 860 851
f 861 862 852
f 862 863 853
f 863 864 854
f 864 865 855
f 855 865 866
f 866 867 857
f 857 867 868
f 868 869 859
f 859 869 870
f 870 861 851
f 861 871 872
f 872 873 863
f 873 874 864
f 874 875 865
f 865 875 876
f 876 877 867
f 877 878 868
f 868 878 879
f 869 879 880
f 870 880 871
f 871 881 882
f 872 882 883
f 873 883 884
f 884 885 875
f 875 885 886
f 876 886 887
f 887 888 878
f 888 889 879
f 879 889 890
f 880 890 881
f 891 892 882
f 892 893 883
f 893 894 884
f 884 894 895
f 895 896 886
f 896 897 887
f 887 897 898
f 898 899 889
f 899 900 890
f 900 891 881
f 891 901 902
f 892 902 903
f 893 903 904
f 894 904 905
f 905 906 896
f 896 906 907
f 897 907 908
f 908 909 899
f 909 910 900
f 910 901 891
f 901 911 912
f 902 912 913
f 913 914 904
f 904 914 915
f 915 916 906
f 906 916 917
f 917 918 908
f 918 919 909
f 919 920 910
f 910 920 911
f 921 922 912
f 922 923 913
f 913 923 924
f 924 925 915
f 915 925 926
f 926 927 917
f 927 928 918
f 928 929 919
f 919 929 930
f 930 921 911
f 921 931 932
f 922 932 933
f 933 934 924
f 934 935 925
f 925 935 936
f 936 937 927
f 937 938 928
f 928 938 939
f 929 939 940
f 930 940 931
f 941 942 932
f 932 942 943
f 943 944 934
f 944 945 935
f 945 946 936
f 946 947 937
f 937 947 948
f 948 949 939
f 939 949 950
f 950 941 931
f 941 951 952
f 952 953 943
f 953 954 944
f 944 954 955
f 945 955 956
f 956 957 947
f 947 957 958
f 948 958 959
f 949 959 960
f 960 951 941
f 951 641 642
f 952 642 643
f 953 643 644
f 644 645 955
f 955 645 646
f 646 647 957
f 647 648 958
f 648 649 959
f 649 650 960
f 650 641 951
f 971 972 962
f 972 973 963
f 973 974 964
f 964 974 975
f 975 976 966
f 976 977 967
f 977 978 968
f 978 979 969
f 969 979 980
f 970 980 971
f 981 982 972
f 982 983 973
f 973 983 984
f 984 985 975
f 985 986 976
f 976 986 987
f 987 988 978
f 988 989 979
f 989 990 980
f 980 990 981
f 991 992 982
f 982 992 993
f 993 994 984
f 984 994 995
f 995 996 986
f 986 996 997
f 997 998 988
f 998 999 989
f 989 999 1000
f 1000 991 981
f 991 1001 1002
f 1002 1003 993
f 993 1003 1004
f 1004 1005 995
f 1005 1006 996
f 996 1006 1007
f 1007 1008 998
f 1008 1009 999
f 999 1009 1010
f 1000 1010 1001
f 1001 1011 1012
f 1002 1012 1013
f 1013 1014 1004
f 1004 1014 1015
f 1015 1016 1006
f 1006 1016 1017
f 1007 1017 1018
f 1008 1018 1019
f 1009 1019 1020
f 1010 1020 1011
f 1011 1021 1022
f 1022 1023 1013
f 1023 1024 1014
f 1014 1024 1025
f 1015 1025 1026
f 1026 1027 1017
f 1017 1027 1028
f 1028 1029 1019
f 1019 1029 1030
f 1020 1030 1021
f 1031 1032 1022
f 1022 1032 1033
f 1033 1034 1024
f 1034 1035 1025
f 1035 1036 1026
f 1036 1037 1027
f 1037 1038 1028
f 1028 1038 1039
f 1039 1040 1030
f 1040 1031 1021
f 1031 1041 1042
f 1032 1042 1043
f 1033 1043 1044
f 1034 1044 1045
f 1035 1045 1046
f 1046 1047 1037
f 1047 1048 1038
f 1048 1049 1039
f 1049 1050 1040
f 1040 1050 1041
f 1051 1052 1042
f 1052 1053 1043
f 1053 1054 1044
f 1054 1055 1045
f 1055 1056 1046
f 1046 1056 1057
f 1047 1057 1058
f 1058 1059 1049
f 1049 1059 1060
f 1060 1051 1041
f 1051 1061 1062
f 1062 1063 1053
f 1053 1063 1064
f 1054 1064 1065
f 1065 1066 1056
f 1056 1066 1067
f 1057 1067 1068
f 1068 1069 1059
f 1059 1069 1070
f 1060 1070 1061
f 1071 1072 1062
f 1062 1072 1073
f 1073 1074 1064
f 1074 1075 1065
f 1075 1076 1066
f 1066 1076 1077
f 1077 1078 1068
f 1078 1079 1069
f 1079 1080 1070
f 1080 1071 1061
f 1071 1081 1082
f 1072 1082 1083
f 1073 1083 1084
f 1074 1084 1085
f 1075 1085 1086
f 1076 1086 1087
f 1087 1088 1078
f 1088 1089 1079
f 1089 1090 1080
f 1080 1090 1081
f 1091 1092 1082
f 1092 1093 1083
f 1093 1094 1084
f 1084 1094 1095
f 1085 1095 1096
f 1096 1097 1087
f 1087 1097 1098
f 1088 1098 1099
f 1099 1100 1090
f 1100 1091 1081
f 1091 1101 1102
f 1102 1103 1093
f 1103 1104 1094
f 1104 1105 1095
f 1095 1105 1106
f 1106 1107 1097
f 1097 1107 1108
f 1108 1109 1099
f 1109 1110 1100
f 1100 1110 1101
f 1101 1111 1112
f 1102 1112 1113
f 1113 1114 1104
f 1104 1114 1115
f 1105 1115 1116
f 1116 1117 1107
f 1107 1117 1118
f 1108 1118 1119
f 1109 1119 1120
f 1120 1111 1101
f 1121 1122 1112
f 1112 1122 1123
f 1113 1123 1124
f 1124 1125 1115
f 1115 1125 1126
f 1116 1126 1127
f 1117 1127 1128
f 1128 1129 1119
f 1129 1130 1120
f 1130 1121 1111
f 1131 1132 1122
f 1132 1133 1123
f 1133 1134 1124
f 1124 1134 1135
f 1135 1136 1126
f 1136 1137 1127
f 1137 1138 1128
f 1138 1139 1129
f 1129 1139 1140
f 1130 1140 1131
f 1141 1142 1132
f 1142 1143 1133
f 1133 1143 1144
f 1144 1145 1135
f 1145 1146 1136
f 1136 1146 1147
f 1147 1148 1138
f 1148 1149 1139
f 1149 1150 1140
f 1140 1150 1141
f 1151 1152 1142
f 1142 1152 1153
f 1153 1154 1144
f 1144 1154 1155
f 1155 1156 1146
f 1146 1156 1157
f 1157 1158 1148
f 1158 1159 1149
f 1149 1159 1160
f 1160 1151 1141
f 1151 1161 1162
f 1162 1163 1153
f 1153 1163 1164
f 1164 1165 1155
f 1165 1166 1156
f 1156 1166 1167
f 1167 1168 1158
f 1168 1169 1159
f 1159 1169 1170
f 1160 1170 1161
f 1161 1171 1172
f 1162 1172 1173
f 1173 1174 1164
f 1164 1174 1175
f 1175 1176 1166
f 1166 1176 1177
f 1167 1177 1178
f 1168 1178 1179
f 1169 1179 1180
f 1170 1180 1171
f 1171 1181 1182
f 1182 1183 1173
f 1183 1184 1174
f 1174 1184 1185
f 1175 1185 1186
f 1186 1187 1177
f 1177 1187 1188
f 1188 1189 1179
f 1179 1189 1190
f 1180 1190 1181
f 1191 1192 1182
f 1182 1192 1193
f 1193 1194 1184
f 1194 1195 1185
f 1195 1196 1186
f 1196 1197 1187
f 1197 1198 1188
f 1188 1198 1199
f 1199 1200 1190
f 1200 1191 1181
f 1191 1201 1202
f 1192 1202 1203
f 1193 1203 1204
f 1194 1204 1205
f 1195 1205 1206
f 1206 1207 1197
f 1207 1208 1198
f 1208 1209 1199
f 1209 1210 1200
f 1200 1210 1201
f 1211 1212 1202
f 1212 1213 1203
f 1213 1214 1204
f 1214 1215 1205
f 1215 1216 1206
f 1206 1216 1217
f 1207 1217 1218
f 1218 1219 1209
f 1209 1219 1220
f 1220 1211 1201
f 1211 1221 1222
f 1222 1223 1213
f 1213 1223 1224
f 1214 1224 1225
f 1225 1226 1216
f 1216 1226 1227
f 1217 1227 1228
f 1228 1229 1219
f 1219 1229 1230
f 1220 1230 1221
f 1231 1232 1222
f 1222 1232 1233
f 1233 1234 1224
f 1234 1235 1225
f 1235 1236 1226
f 1226 1236 1237
f 1237 1238 1228
f 1238 1239 1229
f 1239 1240 1230
f 1240 1231 1221
f 1231 1241 1242
f 1232 1242 1243
f 1233 1243 1244
f 1234 1244 1245
f 1235 1245 1246
f 1236 1246 1247
f 1247 1248 1238
f 1248 1249 1239
f 1249 1250 1240
f 1240 1250 1241
f 1251 1252 1242
f 1252 1253 1243
f 1253 1254 1244
f 1244 1254 1255
f 1245 1255 1256
f 1256 1257 1247
f 1247 1257 1258
f 1248 1258 1259
f 1259 1260 1250
f 1260 1251 1241
f 1251 1261 1262
f 1262 1263 1253
f 1263 1264 1254
f 1264 1265 1255
f 1255 1265 1266
f 1266 1267 1257
f 1257 1267 1268
f 1268 1269 1259
f 1269 1270 1260
f 1260 1270 1261
f 1261 1271 1272
f 1262 1272 1273
f 1273 1274 1264
f 1264 1274 1275
f 1265 1275 1276
f 1276 1277 1267
f 1267 1277 1278
f 1268 1278 1279
f 1269 1279 1280
f 1280 1271 1261
f 961 962 1272
f 1272 962 963
f 1273 963 964
f 964 965 1275
f 1275 965 966
f 1276 966 967
f 1277 967 968
f 968 969 1279
f 969 970 1280
f 970 961 1271
