# beta Scan_ScanDisc.obj: Roblox cue frame, recentred on its bounding box
v -0.00000 -0.26500 -0.00400
v -0.04146 -0.26174 -0.00400
v -0.08189 -0.25203 -0.00400
v -0.12031 -0.23612 -0.00400
v -0.15576 -0.21439 -0.00400
v -0.18738 -0.18738 -0.00400
v -0.21439 -0.15576 -0.00400
v -0.23612 -0.12031 -0.00400
v -0.25203 -0.08189 -0.00400
v -0.26174 -0.04146 -0.00400
v -0.26500 -0.00000 -0.00400
v -0.26174 0.04146 -0.00400
v -0.25203 0.08189 -0.00400
v -0.23612 0.12031 -0.00400
v -0.21439 0.15576 -0.00400
v -0.18738 0.18738 -0.00400
v -0.15576 0.21439 -0.00400
v -0.12031 0.23612 -0.00400
v -0.08189 0.25203 -0.00400
v -0.04146 0.26174 -0.00400
v -0.00000 0.26500 -0.00400
v 0.04146 0.26174 -0.00400
v 0.08189 0.25203 -0.00400
v 0.12031 0.23612 -0.00400
v 0.15576 0.21439 -0.00400
v 0.18738 0.18738 -0.00400
v 0.21439 0.15576 -0.00400
v 0.23612 0.12031 -0.00400
v 0.25203 0.08189 -0.00400
v 0.26174 0.04146 -0.00400
v 0.26500 0.00000 -0.00400
v 0.26174 -0.04146 -0.00400
v 0.25203 -0.08189 -0.00400
v 0.23612 -0.12031 -0.00400
v 0.21439 -0.15576 -0.00400
v 0.18738 -0.18738 -0.00400
v 0.15576 -0.21439 -0.00400
v 0.12031 -0.23612 -0.00400
v 0.08189 -0.25203 -0.00400
v 0.04146 -0.26174 -0.00400
v -0.00000 -0.26500 0.00400
v -0.04146 -0.26174 0.00400
v -0.08189 -0.25203 0.00400
v -0.12031 -0.23612 0.00400
v -0.15576 -0.21439 0.00400
v -0.18738 -0.18738 0.00400
v -0.21439 -0.15576 0.00400
v -0.23612 -0.12031 0.00400
v -0.25203 -0.08189 0.00400
v -0.26174 -0.04146 0.00400
v -0.26500 -0.00000 0.00400
v -0.26174 0.04146 0.00400
v -0.25203 0.08189 0.00400
v -0.23612 0.12031 0.00400
v -0.21439 0.15576 0.00400
v -0.18738 0.18738 0.00400
v -0.15576 0.21439 0.00400
v -0.12031 0.23612 0.00400
v -0.08189 0.25203 0.00400
v -0.04146 0.26174 0.00400
v -0.00000 0.26500 0.00400
v 0.04146 0.26174 0.00400
v 0.08189 0.25203 0.00400
v 0.12031 0.23612 0.00400
v 0.15576 0.21439 0.00400
v 0.18738 0.18738 0.00400
v 0.21439 0.15576 0.00400
v 0.23612 0.12031 0.00400
v 0.25203 0.08189 0.00400
v 0.26174 0.04146 0.00400
v 0.26500 0.00000 0.00400
v 0.26174 -0.04146 0.00400
v 0.25203 -0.08189 0.00400
v 0.23612 -0.12031 0.00400
v 0.21439 -0.15576 0.00400
v 0.18738 -0.18738 0.00400
v 0.15576 -0.21439 0.00400
v 0.12031 -0.23612 0.00400
v 0.08189 -0.25203 0.00400
v 0.04146 -0.26174 0.00400
v -0.00000 -0.00000 -0.00400
v -0.00000 -0.00000 0.00400
f 2 41 1
f 3 42 2
f 4 43 3
f 5 44 4
f 6 45 5
f 7 46 6
f 8 47 7
f 9 48 8
f 10 49 9
f 11 50 10
f 12 51 11
f 13 52 12
f 14 53 13
f 15 54 14
f 16 55 15
f 17 56 16
f 18 57 17
f 19 58 18
f 20 59 19
f 21 60 20
f 22 61 21
f 23 62 22
f 24 63 23
f 25 64 24
f 26 65 25
f 27 66 26
f 28 67 27
f 29 68 28
f 30 69 29
f 31 70 30
f 32 71 31
f 33 72 32
f 34 73 33
f 35 74 34
f 36 75 35
f 37 76 36
f 38 77 37
f 39 78 38
f 40 79 39
f 1 80 40
f 81 2 1
f 81 3 2
f 81 4 3
f 81 5 4
f 81 6 5
f 81 7 6
f 81 8 7
f 81 9 8
f 81 10 9
f 81 11 10
f 81 12 11
f 81 13 12
f 81 14 13
f 81 15 14
f 81 16 15
f 81 17 16
f 81 18 17
f 81 19 18
f 81 20 19
f 81 21 20
f 81 22 21
f 81 23 22
f 81 24 23
f 81 25 24
f 81 26 25
f 81 27 26
f 81 28 27
f 81 29 28
f 81 30 29
f 81 31 30
f 81 32 31
f 81 33 32
f 81 34 33
f 81 35 34
f 81 36 35
f 81 37 36
f 81 38 37
f 81 39 38
f 81 40 39
f 81 1 40
f 41 42 82
f 42 43 82
f 43 44 82
f 44 45 82
f 45 46 82
f 46 47 82
f 47 48 82
f 48 49 82
f 49 50 82
f 50 51 82
f 51 52 82
f 52 53 82
f 53 54 82
f 54 55 82
f 55 56 82
f 56 57 82
f 57 58 82
f 58 59 82
f 59 60 82
f 60 61 82
f 61 62 82
f 62 63 82
f 63 64 82
f 64 65 82
f 65 66 82
f 66 67 82
f 67 68 82
f 68 69 82
f 69 70 82
f 70 71 82
f 71 72 82
f 72 73 82
f 73 74 82
f 74 75 82
f 75 76 82
f 76 77 82
f 77 78 82
f 78 79 82
f 79 80 82
f 80 41 82
f 2 42 41
f 3 43 42
f 4 44 43
f 5 45 44
f 6 46 45
f 7 47 46
f 8 48 47
f 9 49 48
f 10 50 49
f 11 51 50
f 12 52 51
f 13 53 52
f 14 54 53
f 15 55 54
f 16 56 55
f 17 57 56
f 18 58 57
f 19 59 58
f 20 60 59
f 21 61 60
f 22 62 61
f 23 63 62
f 24 64 63
f 25 65 64
f 26 66 65
f 27 67 66
f 28 68 67
f 29 69 68
f 30 70 69
f 31 71 70
f 32 72 71
f 33 73 72
f 34 74 73
f 35 75 74
f 36 76 75
f 37 77 76
f 38 78 77
f 39 79 78
f 40 80 79
f 1 41 80
