# beta Scan_ScanRim.obj: Roblox cue frame, recentred on its bounding box
v -0.28000 0.00000 0.00000
v -0.27500 0.00000 0.00866
v -0.26500 0.00000 0.00866
v -0.26000 0.00000 0.00000
v -0.26500 0.00000 -0.00866
v -0.27500 0.00000 -0.00866
v -0.27655 -0.04380 0.00000
v -0.27161 -0.04302 0.00866
v -0.26174 -0.04146 0.00866
v -0.25680 -0.04067 0.00000
v -0.26174 -0.04146 -0.00866
v -0.27161 -0.04302 -0.00866
v -0.26630 -0.08652 0.00000
v -0.26154 -0.08498 0.00866
v -0.25203 -0.08189 0.00866
v -0.24727 -0.08034 0.00000
v -0.25203 -0.08189 -0.00866
v -0.26154 -0.08498 -0.00866
v -0.24948 -0.12712 0.00000
v -0.24503 -0.12485 0.00866
v -0.23612 -0.12031 0.00866
v -0.23166 -0.11804 0.00000
v -0.23612 -0.12031 -0.00866
v -0.24503 -0.12485 -0.00866
v -0.22652 -0.16458 0.00000
v -0.22248 -0.16164 0.00866
v -0.21439 -0.15576 0.00866
v -0.21034 -0.15282 0.00000
v -0.21439 -0.15576 -0.00866
v -0.22248 -0.16164 -0.00866
v -0.19799 -0.19799 0.00000
v -0.19445 -0.19445 0.00866
v -0.18738 -0.18738 0.00866
v -0.18385 -0.18385 0.00000
v -0.18738 -0.18738 -0.00866
v -0.19445 -0.19445 -0.00866
v -0.16458 -0.22652 0.00000
v -0.16164 -0.22248 0.00866
v -0.15576 -0.21439 0.00866
v -0.15282 -0.21034 0.00000
v -0.15576 -0.21439 -0.00866
v -0.16164 -0.22248 -0.00866
v -0.12712 -0.24948 0.00000
v -0.12485 -0.24503 0.00866
v -0.12031 -0.23612 0.00866
v -0.11804 -0.23166 0.00000
v -0.12031 -0.23612 -0.00866
v -0.12485 -0.24503 -0.00866
v -0.08652 -0.26630 0.00000
v -0.08498 -0.26154 0.00866
v -0.08189 -0.25203 0.00866
v -0.08034 -0.24727 0.00000
v -0.08189 -0.25203 -0.00866
v -0.08498 -0.26154 -0.00866
v -0.04380 -0.27655 0.00000
v -0.04302 -0.27161 0.00866
v -0.04146 -0.26174 0.00866
v -0.04067 -0.25680 0.00000
v -0.04146 -0.26174 -0.00866
v -0.04302 -0.27161 -0.00866
v -0.00000 -0.28000 0.00000
v -0.00000 -0.27500 0.00866
v -0.00000 -0.26500 0.00866
v -0.00000 -0.26000 0.00000
v -0.00000 -0.26500 -0.00866
v -0.00000 -0.27500 -0.00866
v 0.04380 -0.27655 0.00000
v 0.04302 -0.27161 0.00866
v 0.04146 -0.26174 0.00866
v 0.04067 -0.25680 0.00000
v 0.04146 -0.26174 -0.00866
v 0.04302 -0.27161 -0.00866
v 0.08652 -0.26630 0.00000
v 0.08498 -0.26154 0.00866
v 0.08189 -0.25203 0.00866
v 0.08034 -0.24727 0.00000
v 0.08189 -0.25203 -0.00866
v 0.08498 -0.26154 -0.00866
v 0.12712 -0.24948 0.00000
v 0.12485 -0.24503 0.00866
v 0.12031 -0.23612 0.00866
v 0.11804 -0.23166 0.00000
v 0.12031 -0.23612 -0.00866
v 0.12485 -0.24503 -0.00866
v 0.16458 -0.22652 0.00000
v 0.16164 -0.22248 0.00866
v 0.15576 -0.21439 0.00866
v 0.15282 -0.21034 0.00000
v 0.15576 -0.21439 -0.00866
v 0.16164 -0.22248 -0.00866
v 0.19799 -0.19799 0.00000
v 0.19445 -0.19445 0.00866
v 0.18738 -0.18738 0.00866
v 0.18385 -0.18385 0.00000
v 0.18738 -0.18738 -0.00866
v 0.19445 -0.19445 -0.00866
v 0.22652 -0.16458 0.00000
v 0.22248 -0.16164 0.00866
v 0.21439 -0.15576 0.00866
v 0.21034 -0.15282 0.00000
v 0.21439 -0.15576 -0.00866
v 0.22248 -0.16164 -0.00866
v 0.24948 -0.12712 0.00000
v 0.24503 -0.12485 0.00866
v 0.23612 -0.12031 0.00866
v 0.23166 -0.11804 0.00000
v 0.23612 -0.12031 -0.00866
v 0.24503 -0.12485 -0.00866
v 0.26630 -0.08652 0.00000
v 0.26154 -0.08498 0.00866
v 0.25203 -0.08189 0.00866
v 0.24727 -0.08034 0.00000
v 0.25203 -0.08189 -0.00866
v 0.26154 -0.08498 -0.00866
v 0.27655 -0.04380 0.00000
v 0.27161 -0.04302 0.00866
v 0.26174 -0.04146 0.00866
v 0.25680 -0.04067 0.00000
v 0.26174 -0.04146 -0.00866
v 0.27161 -0.04302 -0.00866
v 0.28000 -0.00000 0.00000
v 0.27500 -0.00000 0.00866
v 0.26500 -0.00000 0.00866
v 0.26000 -0.00000 0.00000
v 0.26500 -0.00000 -0.00866
v 0.27500 -0.00000 -0.00866
v 0.27655 0.04380 0.00000
v 0.27161 0.04302 0.00866
v 0.26174 0.04146 0.00866
v 0.25680 0.04067 0.00000
v 0.26174 0.04146 -0.00866
v 0.27161 0.04302 -0.00866
v 0.26630 0.08652 0.00000
v 0.26154 0.08498 0.00866
v 0.25203 0.08189 0.00866
v 0.24727 0.08034 0.00000
v 0.25203 0.08189 -0.00866
v 0.26154 0.08498 -0.00866
v 0.24948 0.12712 0.00000
v 0.24503 0.12485 0.00866
v 0.23612 0.12031 0.00866
v 0.23166 0.11804 0.00000
v 0.23612 0.12031 -0.00866
v 0.24503 0.12485 -0.00866
v 0.22652 0.16458 0.00000
v 0.22248 0.16164 0.00866
v 0.21439 0.15576 0.00866
v 0.21034 0.15282 0.00000
v 0.21439 0.15576 -0.00866
v 0.22248 0.16164 -0.00866
v 0.19799 0.19799 0.00000
v 0.19445 0.19445 0.00866
v 0.18738 0.18738 0.00866
v 0.18385 0.18385 0.00000
v 0.18738 0.18738 -0.00866
v 0.19445 0.19445 -0.00866
v 0.16458 0.22652 0.00000
v 0.16164 0.22248 0.00866
v 0.15576 0.21439 0.00866
v 0.15282 0.21034 0.00000
v 0.15576 0.21439 -0.00866
v 0.16164 0.22248 -0.00866
v 0.12712 0.24948 0.00000
v 0.12485 0.24503 0.00866
v 0.12031 0.23612 0.00866
v 0.11804 0.23166 0.00000
v 0.12031 0.23612 -0.00866
v 0.12485 0.24503 -0.00866
v 0.08652 0.26630 0.00000
v 0.08498 0.26154 0.00866
v 0.08189 0.25203 0.00866
v 0.08034 0.24727 0.00000
v 0.08189 0.25203 -0.00866
v 0.08498 0.26154 -0.00866
v 0.04380 0.27655 0.00000
v 0.04302 0.27161 0.00866
v 0.04146 0.26174 0.00866
v 0.04067 0.25680 0.00000
v 0.04146 0.26174 -0.00866
v 0.04302 0.27161 -0.00866
v 0.00000 0.28000 0.00000
v 0.00000 0.27500 0.00866
v 0.00000 0.26500 0.00866
v 0.00000 0.26000 0.00000
v 0.00000 0.26500 -0.00866
v 0.00000 0.27500 -0.00866
v -0.04380 0.27655 0.00000
v -0.04302 0.27161 0.00866
v -0.04146 0.26174 0.00866
v -0.04067 0.25680 0.00000
v -0.04146 0.26174 -0.00866
v -0.04302 0.27161 -0.00866
v -0.08652 0.26630 0.00000
v -0.08498 0.26154 0.00866
v -0.08189 0.25203 0.00866
v -0.08034 0.24727 0.00000
v -0.08189 0.25203 -0.00866
v -0.08498 0.26154 -0.00866
v -0.12712 0.24948 0.00000
v -0.12485 0.24503 0.00866
v -0.12031 0.23612 0.00866
v -0.11804 0.23166 0.00000
v -0.12031 0.23612 -0.00866
v -0.12485 0.24503 -0.00866
v -0.16458 0.22652 0.00000
v -0.16164 0.22248 0.00866
v -0.15576 0.21439 0.00866
v -0.15282 0.21034 0.00000
v -0.15576 0.21439 -0.00866
v -0.16164 0.22248 -0.00866
v -0.19799 0.19799 0.00000
v -0.19445 0.19445 0.00866
v -0.18738 0.18738 0.00866
v -0.18385 0.18385 0.00000
v -0.18738 0.18738 -0.00866
v -0.19445 0.19445 -0.00866
v -0.22652 0.16458 0.00000
v -0.22248 0.16164 0.00866
v -0.21439 0.15576 0.00866
v -0.21034 0.15282 0.00000
v -0.21439 0.15576 -0.00866
v -0.22248 0.16164 -0.00866
v -0.24948 0.12712 0.00000
v -0.24503 0.12485 0.00866
v -0.23612 0.12031 0.00866
v -0.23166 0.11804 0.00000
v -0.23612 0.12031 -0.00866
v -0.24503 0.12485 -0.00866
v -0.26630 0.08652 0.00000
v -0.26154 0.08498 0.00866
v -0.25203 0.08189 0.00866
v -0.24727 0.08034 0.00000
v -0.25203 0.08189 -0.00866
v -0.26154 0.08498 -0.00866
v -0.27655 0.04380 0.00000
v -0.27161 0.04302 0.00866
v -0.26174 0.04146 0.00866
v -0.25680 0.04067 0.00000
v -0.26174 0.04146 -0.00866
v -0.27161 0.04302 -0.00866
f 7 2 1
f 8 3 2
f 9 4 3
f 10 5 4
f 11 6 5
f 6 7 1
f 7 14 8
f 14 9 8
f 9 16 10
f 10 17 11
f 11 18 12
f 18 7 12
f 13 20 14
f 20 15 14
f 21 16 15
f 22 17 16
f 23 18 17
f 18 19 13
f 19 26 20
f 26 21 20
f 21 28 22
f 28 23 22
f 23 30 24
f 24 25 19
f 25 32 26
f 32 27 26
f 33 28 27
f 28 35 29
f 29 36 30
f 30 31 25
f 37 32 31
f 32 39 33
f 33 40 34
f 34 41 35
f 41 36 35
f 36 37 31
f 37 44 38
f 38 45 39
f 45 40 39
f 40 47 41
f 47 42 41
f 48 37 42
f 43 50 44
f 50 45 44
f 45 52 46
f 46 53 47
f 53 48 47
f 48 49 43
f 55 50 49
f 50 57 51
f 57 52 51
f 52 59 53
f 59 54 53
f 54 55 49
f 61 56 55
f 62 57 56
f 57 64 58
f 64 59 58
f 65 60 59
f 60 61 55
f 61 68 62
f 68 63 62
f 69 64 63
f 64 71 65
f 71 66 65
f 72 61 66
f 67 74 68
f 74 69 68
f 69 76 70
f 76 71 70
f 71 78 72
f 72 73 67
f 73 80 74
f 74 81 75
f 81 76 75
f 82 77 76
f 83 78 77
f 84 73 78
f 85 80 79
f 86 81 80
f 81 88 82
f 82 89 83
f 83 90 84
f 84 85 79
f 85 92 86
f 92 87 86
f 93 88 87
f 94 89 88
f 89 96 90
f 96 85 90
f 97 92 91
f 92 99 93
f 93 100 94
f 100 95 94
f 101 96 95
f 102 91 96
f 103 98 97
f 104 99 98
f 105 100 99
f 106 101 100
f 107 102 101
f 108 97 102
f 109 104 103
f 110 105 104
f 105 112 106
f 106 113 107
f 113 108 107
f 114 103 108
f 115 110 109
f 110 117 111
f 117 112 111
f 118 113 112
f 119 114 113
f 120 109 114
f 115 122 116
f 122 117 116
f 117 124 118
f 124 119 118
f 125 120 119
f 126 115 120
f 127 122 121
f 128 123 122
f 129 124 123
f 130 125 124
f 131 126 125
f 126 127 121
f 127 134 128
f 134 129 128
f 129 136 130
f 130 137 131
f 131 138 132
f 138 127 132
f 133 140 134
f 140 135 134
f 141 136 135
f 142 137 136
f 143 138 137
f 138 139 133
f 139 146 140
f 146 141 140
f 141 148 142
f 148 143 142
f 143 150 144
f 144 145 139
f 145 152 146
f 152 147 146
f 153 148 147
f 148 155 149
f 149 156 150
f 150 151 145
f 157 152 151
f 152 159 153
f 153 160 154
f 154 161 155
f 161 156 155
f 156 157 151
f 157 164 158
f 158 165 159
f 165 160 159
f 160 167 161
f 167 162 161
f 168 157 162
f 163 170 164
f 170 165 164
f 165 172 166
f 166 173 167
f 173 168 167
f 168 169 163
f 175 170 169
f 170 177 171
f 177 172 171
f 172 179 173
f 179 174 173
f 174 175 169
f 181 176 175
f 182 177 176
f 177 184 178
f 184 179 178
f 185 180 179
f 180 181 175
f 181 188 182
f 188 183 182
f 189 184 183
f 184 191 185
f 191 186 185
f 192 181 186
f 187 194 188
f 194 189 188
f 189 196 190
f 196 191 190
f 191 198 192
f 192 193 187
f 193 200 194
f 194 201 195
f 201 196 195
f 202 197 196
f 203 198 197
f 204 193 198
f 205 200 199
f 206 201 200
f 201 208 202
f 202 209 203
f 203 210 204
f 204 205 199
f 205 212 206
f 212 207 206
f 213 208 207
f 214 209 208
f 209 216 210
f 216 205 210
f 217 212 211
f 212 219 213
f 213 220 214
f 220 215 214
f 221 216 215
f 222 211 216
f 223 218 217
f 224 219 218
f 225 220 219
f 226 221 220
f 227 222 221
f 228 217 222
f 229 224 223
f 230 225 224
f 225 232 226
f 226 233 227
f 233 228 227
f 234 223 228
f 235 230 229
f 230 237 231
f 237 232 231
f 238 233 232
f 239 234 233
f 240 229 234
f 235 2 236
f 2 237 236
f 237 4 238
f 4 239 238
f 5 240 239
f 6 235 240
f 7 8 2
f 8 9 3
f 9 10 4
f 10 11 5
f 11 12 6
f 6 12 7
f 7 13 14
f 14 15 9
f 9 15 16
f 10 16 17
f 11 17 18
f 18 13 7
f 13 19 20
f 20 21 15
f 21 22 16
f 22 23 17
f 23 24 18
f 18 24 19
f 19 25 26
f 26 27 21
f 21 27 28
f 28 29 23
f 23 29 30
f 24 30 25
f 25 31 32
f 32 33 27
f 33 34 28
f 28 34 35
f 29 35 36
f 30 36 31
f 37 38 32
f 32 38 39
f 33 39 40
f 34 40 41
f 41 42 36
f 36 42 37
f 37 43 44
f 38 44 45
f 45 46 40
f 40 46 47
f 47 48 42
f 48 43 37
f 43 49 50
f 50 51 45
f 45 51 52
f 46 52 53
f 53 54 48
f 48 54 49
f 55 56 50
f 50 56 57
f 57 58 52
f 52 58 59
f 59 60 54
f 54 60 55
f 61 62 56
f 62 63 57
f 57 63 64
f 64 65 59
f 65 66 60
f 60 66 61
f 61 67 68
f 68 69 63
f 69 70 64
f 64 70 71
f 71 72 66
f 72 67 61
f 67 73 74
f 74 75 69
f 69 75 76
f 76 77 71
f 71 77 78
f 72 78 73
f 73 79 80
f 74 80 81
f 81 82 76
f 82 83 77
f 83 84 78
f 84 79 73
f 85 86 80
f 86 87 81
f 81 87 88
f 82 88 89
f 83 89 90
f 84 90 85
f 85 91 92
f 92 93 87
f 93 94 88
f 94 95 89
f 89 95 96
f 96 91 85
f 97 98 92
f 92 98 99
f 93 99 100
f 100 101 95
f 101 102 96
f 102 97 91
f 103 104 98
f 104 105 99
f 105 106 100
f 106 107 101
f 107 108 102
f 108 103 97
f 109 110 104
f 110 111 105
f 105 111 112
f 106 112 113
f 113 114 108
f 114 109 103
f 115 116 110
f 110 116 117
f 117 118 112
f 118 119 113
f 119 120 114
f 120 115 109
f 115 121 122
f 122 123 117
f 117 123 124
f 124 125 119
f 125 126 120
f 126 121 115
f 127 128 122
f 128 129 123
f 129 130 124
f 130 131 125
f 131 132 126
f 126 132 127
f 127 133 134
f 134 135 129
f 129 135 136
f 130 136 137
f 131 137 138
f 138 133 127
f 133 139 140
f 140 141 135
f 141 142 136
f 142 143 137
f 143 144 138
f 138 144 139
f 139 145 146
f 146 147 141
f 141 147 148
f 148 149 143
f 143 149 150
f 144 150 145
f 145 151 152
f 152 153 147
f 153 154 148
f 148 154 155
f 149 155 156
f 150 156 151
f 157 158 152
f 152 158 159
f 153 159 160
f 154 160 161
f 161 162 156
f 156 162 157
f 157 163 164
f 158 164 165
f 165 166 160
f 160 166 167
f 167 168 162
f 168 163 157
f 163 169 170
f 170 171 165
f 165 171 172
f 166 172 173
f 173 174 168
f 168 174 169
f 175 176 170
f 170 176 177
f 177 178 172
f 172 178 179
f 179 180 174
f 174 180 175
f 181 182 176
f 182 183 177
f 177 183 184
f 184 185 179
f 185 186 180
f 180 186 181
f 181 187 188
f 188 189 183
f 189 190 184
f 184 190 191
f 191 192 186
f 192 187 181
f 187 193 194
f 194 195 189
f 189 195 196
f 196 197 191
f 191 197 198
f 192 198 193
f 193 199 200
f 194 200 201
f 201 202 196
f 202 203 197
f 203 204 198
f 204 199 193
f 205 206 200
f 206 207 201
f 201 207 208
f 202 208 209
f 203 209 210
f 204 210 205
f 205 211 212
f 212 213 207
f 213 214 208
f 214 215 209
f 209 215 216
f 216 211 205
f 217 218 212
f 212 218 219
f 213 219 220
f 220 221 215
f 221 222 216
f 222 217 211
f 223 224 218
f 224 225 219
f 225 226 220
f 226 227 221
f 227 228 222
f 228 223 217
f 229 230 224
f 230 231 225
f 225 231 232
f 226 232 233
f 233 234 228
f 234 229 223
f 235 236 230
f 230 236 237
f 237 238 232
f 238 239 233
f 239 240 234
f 240 235 229
f 235 1 2
f 2 3 237
f 237 3 4
f 4 5 239
f 5 6 240
f 6 1 235
