# beta Schematic_Blue.obj: Roblox cue frame, recentred on its bounding box
v -1.01142 0.70820 -0.17446
v -0.98800 0.71256 -0.17118
v -0.98409 0.68907 -0.16790
v -1.00750 0.68471 -0.17118
v -0.99005 0.69324 -0.30695
v -0.96680 0.69772 -0.30277
v -0.96306 0.67434 -0.29858
v -0.98631 0.66987 -0.30277
v -0.95679 0.66995 -0.43671
v -0.93400 0.67475 -0.43075
v -0.93071 0.65169 -0.42480
v -0.95350 0.64690 -0.43075
v -0.91216 0.63870 -0.56127
v -0.88998 0.64392 -0.55362
v -0.88729 0.62129 -0.54597
v -0.90948 0.61607 -0.55362
v -0.85669 0.59986 -0.67916
v -0.83526 0.60561 -0.66991
v -0.83333 0.58350 -0.66065
v -0.85476 0.57776 -0.66991
v -0.79103 0.55388 -0.78898
v -0.77049 0.56026 -0.77823
v -0.76946 0.53878 -0.76747
v -0.79000 0.53241 -0.77823
v -0.71597 0.50133 -0.88942
v -0.69646 0.50842 -0.87730
v -0.69645 0.48766 -0.86517
v -0.71596 0.48057 -0.87730
v -0.63239 0.44281 -0.97929
v -0.61402 0.45070 -0.96594
v -0.61515 0.43073 -0.95259
v -0.63352 0.42284 -0.96594
v -0.54130 0.37902 -1.05752
v -0.52417 0.38778 -1.04310
v -0.52654 0.36869 -1.02868
v -0.54367 0.35993 -1.04310
v -0.44378 0.31074 -1.12317
v -0.42798 0.32043 -1.10786
v -0.43168 0.30226 -1.09255
v -0.44748 0.29258 -1.10786
v -0.34098 0.23876 -1.17547
v -0.32658 0.24943 -1.15945
v -0.33168 0.23225 -1.14342
v -0.34608 0.22157 -1.15945
v -0.23412 0.16394 -1.21380
v -0.22118 0.17563 -1.19726
v -0.22774 0.15947 -1.18071
v -0.24068 0.14778 -1.19726
v -0.12449 0.08717 -1.23770
v -0.11304 0.09990 -1.22083
v -0.12109 0.08479 -1.20396
v -0.13254 0.07205 -1.22083
v -0.01337 0.00936 -1.24689
v -0.00344 0.02316 -1.22989
v -0.01301 0.00911 -1.21290
v -0.02294 -0.00469 -1.22989
v 0.09790 -0.06855 -1.24126
v 0.10632 -0.05369 -1.22434
v 0.09524 -0.06668 -1.20742
v 0.08682 -0.08154 -1.22434
v 0.20802 -0.14565 -1.22087
v 0.21493 -0.12974 -1.20423
v 0.20234 -0.14168 -1.18758
v 0.19543 -0.15759 -1.20423
v 0.31493 -0.22051 -1.18623
v 0.32110 -0.20409 -1.16980
v 0.30778 -0.21551 -1.15337
v 0.30160 -0.23194 -1.16980
v -0.99775 0.69863 -0.17118
v 0.31135 -0.21801 -1.16980
v -0.81950 0.57382 -0.42508
v -0.81034 0.57595 -0.42199
v -0.80921 0.56662 -0.41890
v -0.81837 0.56448 -0.42199
v -0.77574 0.54318 -0.53361
v -0.76673 0.54542 -0.53018
v -0.76575 0.53619 -0.52674
v -0.77476 0.53395 -0.53018
v -0.72219 0.50568 -0.63585
v -0.71352 0.50816 -0.63175
v -0.71288 0.49917 -0.62766
v -0.72155 0.49669 -0.63175
v -0.65963 0.46188 -0.73016
v -0.65136 0.46463 -0.72546
v -0.65113 0.45593 -0.72076
v -0.65939 0.45317 -0.72546
v -0.58884 0.41231 -0.81537
v -0.58104 0.41539 -0.81012
v -0.58126 0.40700 -0.80487
v -0.58907 0.40392 -0.81012
v -0.51072 0.35761 -0.89042
v -0.50342 0.36104 -0.88468
v -0.50415 0.35301 -0.87895
v -0.51145 0.34958 -0.88468
v -0.42624 0.29845 -0.95437
v -0.41948 0.30227 -0.94822
v -0.42075 0.29461 -0.94208
v -0.42751 0.29080 -0.94822
v -0.33644 0.23558 -1.00642
v -0.33025 0.23979 -0.99994
v -0.33210 0.23254 -0.99346
v -0.33828 0.22832 -0.99994
v -0.24244 0.16976 -1.04593
v -0.23687 0.17440 -1.03920
v -0.23932 0.16757 -1.03246
v -0.24490 0.16293 -1.03920
v -0.14543 0.10183 -1.07240
v -0.14048 0.10691 -1.06550
v -0.14356 0.10052 -1.05859
v -0.14851 0.09544 -1.06550
v -0.04692 0.03285 -1.08548
v -0.04229 0.03815 -1.07852
v -0.04568 0.03199 -1.07156
v -0.05032 0.02669 -1.07852
v -0.81436 0.57022 -0.42199
v -0.04630 0.03242 -1.07852
v 0.61116 -0.42794 -0.95645
v 0.61056 -0.44827 -0.96925
v 0.62947 -0.44076 -0.98206
v 0.63006 -0.42042 -0.96925
v 0.69335 -0.48549 -0.86887
v 0.69331 -0.50622 -0.88105
v 0.71278 -0.49909 -0.89323
v 0.71281 -0.47836 -0.88105
v 0.76671 -0.53686 -0.77156
v 0.76770 -0.55831 -0.78238
v 0.78820 -0.55190 -0.79319
v 0.78721 -0.53045 -0.78238
v 0.83096 -0.58184 -0.66508
v 0.83286 -0.60392 -0.67440
v 0.85425 -0.59815 -0.68372
v 0.85236 -0.57607 -0.67440
v 0.88533 -0.61992 -0.55069
v 0.88799 -0.64253 -0.55841
v 0.91015 -0.63729 -0.56613
v 0.90749 -0.61468 -0.55841
v 0.92918 -0.65062 -0.42975
v 0.93245 -0.67366 -0.43578
v 0.95522 -0.66886 -0.44180
v 0.95195 -0.64581 -0.43578
v 0.96198 -0.67359 -0.30371
v 0.96571 -0.69695 -0.30797
v 0.98895 -0.69247 -0.31222
v 0.98521 -0.66910 -0.30797
v 0.98335 -0.68855 -0.17406
v 0.98738 -0.71212 -0.17650
v 1.01091 -0.70785 -0.17894
v 1.00688 -0.68427 -0.17650
v 0.99303 -0.69532 -0.04233
v 0.99719 -0.71899 -0.04293
v 1.02086 -0.71481 -0.04352
v 1.01669 -0.69114 -0.04293
v 0.99090 -0.69384 0.08989
v 0.99504 -0.71748 0.09115
v 1.01867 -0.71328 0.09241
v 1.01454 -0.68963 0.09115
v 0.97699 -0.68410 0.22105
v 0.98093 -0.70761 0.22415
v 1.00438 -0.70327 0.22725
v 1.00044 -0.67976 0.22415
v 0.95147 -0.66623 0.34958
v 0.95506 -0.68949 0.35448
v 0.97814 -0.68490 0.35938
v 0.97456 -0.66164 0.35448
v 0.91464 -0.64044 0.47396
v 0.91771 -0.66334 0.48060
v 0.94028 -0.65839 0.48724
v 0.93721 -0.63549 0.48060
v 0.86694 -0.60704 0.59270
v 0.86934 -0.62947 0.60100
v 0.89124 -0.62405 0.60931
v 0.88884 -0.60162 0.60100
v 0.80893 -0.56642 0.70439
v 0.81052 -0.58828 0.71426
v 0.83160 -0.58230 0.72414
v 0.83002 -0.56043 0.71426
v 0.74131 -0.51907 0.80771
v 0.74194 -0.54027 0.81903
v 0.76208 -0.53362 0.83035
v 0.76145 -0.51242 0.81903
v 0.66432 -0.46516 0.90207
v 0.66444 -0.48600 0.91407
v 0.68406 -0.47898 0.92606
v 0.68394 -0.45815 0.91407
v 0.62031 -0.43435 -0.96925
v 0.67419 -0.47207 0.91407
v 0.70178 -0.49139 -0.64607
v 0.70253 -0.50046 -0.64996
v 0.71131 -0.49806 -0.65385
v 0.71056 -0.48899 -0.64996
v 0.75655 -0.52974 -0.54620
v 0.75747 -0.53893 -0.54976
v 0.76642 -0.53665 -0.55333
v 0.76550 -0.52746 -0.54976
v 0.80171 -0.56136 -0.43985
v 0.80292 -0.57076 -0.44272
v 0.81217 -0.56869 -0.44559
v 0.81095 -0.55929 -0.44272
v 0.83687 -0.58599 -0.32801
v 0.83832 -0.59554 -0.33015
v 0.84779 -0.59363 -0.33229
v 0.84635 -0.58407 -0.33015
v 0.86161 -0.60331 -0.21209
v 0.86322 -0.61298 -0.21347
v 0.87285 -0.61118 -0.21485
v 0.87125 -0.60151 -0.21347
v 0.87561 -0.61311 -0.09352
v 0.87730 -0.62284 -0.09413
v 0.88703 -0.62111 -0.09474
v 0.88533 -0.61137 -0.09413
v 0.87869 -0.61526 0.02622
v 0.88041 -0.62501 0.02639
v 0.89015 -0.62329 0.02656
v 0.88844 -0.61354 0.02639
v 0.87082 -0.60975 0.14562
v 0.87248 -0.61947 0.14657
v 0.88218 -0.61771 0.14752
v 0.88051 -0.60800 0.14657
v 0.85209 -0.59664 0.26322
v 0.85364 -0.60627 0.26493
v 0.86321 -0.60443 0.26665
v 0.86167 -0.59480 0.26493
v 0.82275 -0.57610 0.37753
v 0.82410 -0.58559 0.37999
v 0.83348 -0.58361 0.38245
v 0.83213 -0.57412 0.37999
v 0.78301 -0.54827 0.48749
v 0.78424 -0.55768 0.49031
v 0.79351 -0.55562 0.49313
v 0.79227 -0.54621 0.49031
v 0.70654 -0.49472 -0.64996
v 0.78826 -0.55195 0.49031
v 0.37293 -0.26113 1.12435
v 0.36769 -0.27821 1.14044
v 0.38194 -0.26744 1.15652
v 0.38719 -0.25036 1.14044
v 0.26971 -0.18885 1.16746
v 0.26374 -0.20543 1.18382
v 0.27727 -0.19415 1.20018
v 0.28324 -0.17758 1.18382
v 0.16400 -0.11483 1.19636
v 0.15654 -0.13037 1.21313
v 0.16859 -0.11805 1.22990
v 0.17605 -0.10252 1.21313
v 0.05633 -0.03944 1.21105
v 0.04737 -0.05392 1.22802
v 0.05791 -0.04055 1.24499
v 0.06687 -0.02607 1.22802
v -0.05200 0.03641 1.21134
v -0.06248 0.02300 1.22831
v -0.05346 0.03743 1.24529
v -0.04298 0.05085 1.22831
v -0.15972 0.11184 1.19723
v -0.17171 0.09948 1.21401
v -0.16420 0.11497 1.23078
v -0.15221 0.12733 1.21401
v -0.26554 0.18593 1.16888
v -0.27901 0.17461 1.18527
v -0.27298 0.19114 1.20165
v -0.25951 0.20246 1.18527
v -0.36820 0.25781 1.12665
v -0.38311 0.24750 1.14244
v -0.37852 0.26504 1.15823
v -0.36361 0.27535 1.14244
v -0.46648 0.32663 1.07102
v -0.48277 0.31729 1.08603
v -0.47956 0.33579 1.10104
v -0.46327 0.34514 1.08603
v -0.55922 0.39157 1.00265
v -0.57681 0.38313 1.01671
v -0.57490 0.40255 1.03076
v -0.55731 0.41098 1.01671
v -0.64531 0.45185 0.92237
v -0.66411 0.44426 0.93530
v -0.66340 0.46452 0.94823
v -0.64461 0.47211 0.93530
v -0.72373 0.50676 0.83113
v -0.74363 0.49994 0.84278
v -0.74402 0.52097 0.85442
v -0.72412 0.52779 0.84278
v -0.79355 0.55565 0.73000
v -0.81442 0.54951 0.74023
v -0.81579 0.57122 0.75046
v -0.79492 0.57736 0.74023
v -0.85393 0.59793 0.62020
v -0.87565 0.59238 0.62889
v -0.87787 0.61469 0.63758
v -0.85615 0.62024 0.62889
v -0.90417 0.63310 0.50302
v -0.92659 0.62805 0.51007
v -0.92951 0.65085 0.51712
v -0.90709 0.65590 0.51007
v -0.94365 0.66075 0.37987
v -0.96663 0.65609 0.38519
v -0.97010 0.67927 0.39052
v -0.94713 0.68394 0.38519
v -0.97210 0.68067 0.25130
v -0.99529 0.67616 0.25573
v -0.99898 0.69950 0.26017
v -0.97579 0.70401 0.25573
v 0.37744 -0.26428 1.14044
v -0.98554 0.69008 0.25573
v 0.10380 -0.08123 1.07195
v 0.10820 -0.07576 1.07893
v 0.11183 -0.06976 1.07195
v 0.10744 -0.07523 1.06497
v 0.00525 -0.01222 1.07994
v 0.00932 -0.00653 1.08694
v 0.01328 -0.00075 1.07994
v 0.00920 -0.00644 1.07294
v -0.09342 0.05687 1.07447
v -0.08998 0.06301 1.08144
v -0.08539 0.06833 1.07447
v -0.08882 0.06219 1.06751
v -0.19097 0.12517 1.05561
v -0.18817 0.13176 1.06245
v -0.18294 0.13664 1.05561
v -0.18574 0.13006 1.04877
v -0.28619 0.19185 1.02359
v -0.28401 0.19886 1.03022
v -0.27816 0.20332 1.02359
v -0.28035 0.19630 1.01696
v -0.37790 0.25606 0.97881
v -0.37631 0.26349 0.98516
v -0.36987 0.26753 0.97881
v -0.37146 0.26010 0.97247
v -0.46494 0.31701 0.92184
v -0.46392 0.32484 0.92781
v -0.45691 0.32848 0.92184
v -0.45794 0.32065 0.91586
v -0.54624 0.37394 0.85337
v -0.54574 0.38213 0.85890
v -0.53821 0.38541 0.85337
v -0.53871 0.37721 0.84784
v -0.62079 0.42613 0.77426
v -0.62077 0.43467 0.77928
v -0.61276 0.43760 0.77426
v -0.61277 0.42907 0.76925
v -0.68764 0.47295 0.68551
v -0.68806 0.48178 0.68995
v -0.67961 0.48441 0.68551
v -0.67919 0.47558 0.68107
v -0.74597 0.51379 0.58821
v -0.74659 0.52276 0.59234
v -0.73794 0.52526 0.58821
v -0.73733 0.51629 0.58408
v 0.10782 -0.07549 1.07195
v -0.74196 0.51952 0.58821
v -0.00737 0.00516 1.24000
v -0.00516 -0.00737 1.24000
v 0.00737 -0.00516 1.24000
v 0.00516 0.00737 1.24000
v -0.00737 0.00516 1.35000
v -0.00516 -0.00737 1.35000
v 0.00737 -0.00516 1.35000
v 0.00516 0.00737 1.35000
v 0.00000 -0.00000 1.24000
v 0.00000 -0.00000 1.35000
v -0.27002 0.18907 1.19542
v -0.26806 0.17671 1.19775
v -0.25577 0.17909 1.20008
v -0.25773 0.19145 1.19775
v -0.28062 0.19649 1.24372
v -0.27866 0.18413 1.24604
v -0.26637 0.18652 1.24837
v -0.26833 0.19888 1.24604
v -0.26290 0.18408 1.19775
v -0.27350 0.19150 1.24604
v -0.51426 0.36009 1.06937
v -0.51304 0.34824 1.07387
v -0.50149 0.35115 1.07837
v -0.50271 0.36299 1.07387
v -0.53474 0.37443 1.11267
v -0.53352 0.36258 1.11717
v -0.52197 0.36549 1.12167
v -0.52319 0.37733 1.11717
v -0.50787 0.35562 1.07387
v -0.52835 0.36996 1.11717
v -0.72346 0.50657 0.87045
v -0.72340 0.49555 0.87681
v -0.71303 0.49927 0.88318
v -0.71308 0.51029 0.87681
v -0.78717 0.55118 0.94823
v -0.78712 0.54016 0.95459
v -0.77674 0.54388 0.96096
v -0.77680 0.55491 0.95459
v -0.71824 0.50292 0.87681
v -0.78196 0.54753 0.95459
v -0.88335 0.61853 0.61221
v -0.88483 0.60857 0.62000
v -0.87598 0.61337 0.62779
v -0.87450 0.62332 0.62000
v -0.91882 0.64337 0.63721
v -0.92030 0.63341 0.64500
v -0.91145 0.63820 0.65279
v -0.90997 0.64816 0.64500
v -0.87966 0.61595 0.62000
v -0.91513 0.64078 0.64500
v -0.98630 0.67963 0.32094
v -0.97923 0.68566 0.32963
v -0.97598 0.69437 0.32094
v -0.98305 0.68834 0.31224
v -1.02586 0.70733 0.33388
v -1.01879 0.71337 0.34257
v -1.01554 0.72207 0.33388
v -1.02261 0.71604 0.32518
v -0.98114 0.68700 0.32094
v -1.02070 0.71470 0.33388
v -1.02091 0.70386 0.00000
v -1.01575 0.71123 0.00900
v -1.01059 0.71861 0.00000
v -1.01575 0.71123 -0.00900
v -1.11102 0.76696 0.00000
v -1.10586 0.77433 0.00900
v -1.10069 0.78170 0.00000
v -1.10586 0.77433 -0.00900
v -1.01575 0.71123 0.00000
v -1.10586 0.77433 0.00000
v -0.98630 0.67963 -0.32094
v -0.98305 0.68834 -0.31224
v -0.97598 0.69437 -0.32094
v -0.97923 0.68566 -0.32963
v -1.02586 0.70733 -0.33388
v -1.02261 0.71604 -0.32518
v -1.01554 0.72207 -0.33388
v -1.01879 0.71337 -0.34257
v -0.98114 0.68700 -0.32094
v -1.02070 0.71470 -0.33388
v -0.88335 0.61853 -0.61221
v -0.87450 0.62332 -0.62000
v -0.87598 0.61337 -0.62779
v -0.88483 0.60857 -0.62000
v -0.91882 0.64336 -0.63721
v -0.90997 0.64816 -0.64500
v -0.91145 0.63820 -0.65279
v -0.92030 0.63341 -0.64500
v -0.87966 0.61595 -0.62000
v -0.91513 0.64078 -0.64500
v -0.72346 0.50657 -0.87045
v -0.71308 0.51029 -0.87681
v -0.71303 0.49927 -0.88318
v -0.72340 0.49555 -0.87681
v -0.78717 0.55118 -0.94823
v -0.77680 0.55491 -0.95459
v -0.77674 0.54388 -0.96096
v -0.78712 0.54016 -0.95459
v -0.71824 0.50292 -0.87681
v -0.78196 0.54753 -0.95459
v -0.51426 0.36009 -1.06937
v -0.50271 0.36299 -1.07387
v -0.50149 0.35115 -1.07837
v -0.51304 0.34824 -1.07387
v -0.53474 0.37443 -1.11267
v -0.52319 0.37733 -1.11717
v -0.52197 0.36549 -1.12167
v -0.53352 0.36258 -1.11717
v -0.50787 0.35562 -1.07387
v -0.52835 0.36996 -1.11717
v -0.27002 0.18907 -1.19542
v -0.25773 0.19145 -1.19775
v -0.25577 0.17909 -1.20008
v -0.26806 0.17671 -1.19775
v -0.28062 0.19649 -1.24372
v -0.26833 0.19888 -1.24604
v -0.26637 0.18652 -1.24837
v -0.27866 0.18413 -1.24604
v -0.26290 0.18408 -1.19775
v -0.27350 0.19150 -1.24604
v -0.00737 0.00516 -1.24000
v 0.00516 0.00737 -1.24000
v 0.00737 -0.00516 -1.24000
v -0.00516 -0.00737 -1.24000
v -0.00737 0.00516 -1.35000
v 0.00516 0.00737 -1.35000
v 0.00737 -0.00516 -1.35000
v -0.00516 -0.00737 -1.35000
v -0.00000 0.00000 -1.24000
v -0.00000 0.00000 -1.35000
v 0.25577 -0.17909 -1.20008
v 0.26806 -0.17671 -1.19775
v 0.27002 -0.18907 -1.19542
v 0.25773 -0.19145 -1.19775
v 0.26637 -0.18652 -1.24837
v 0.27866 -0.18413 -1.24604
v 0.28062 -0.19649 -1.24372
v 0.26833 -0.19888 -1.24604
v 0.26290 -0.18408 -1.19775
v 0.27350 -0.19150 -1.24604
v 0.50149 -0.35115 -1.07837
v 0.51304 -0.34824 -1.07387
v 0.51426 -0.36009 -1.06937
v 0.50271 -0.36299 -1.07387
v 0.52197 -0.36549 -1.12167
v 0.53352 -0.36258 -1.11717
v 0.53474 -0.37443 -1.11267
v 0.52319 -0.37733 -1.11717
v 0.50787 -0.35562 -1.07387
v 0.52835 -0.36996 -1.11717
v 0.71303 -0.49927 -0.88318
v 0.72340 -0.49555 -0.87681
v 0.72346 -0.50657 -0.87045
v 0.71308 -0.51029 -0.87681
v 0.77674 -0.54388 -0.96096
v 0.78712 -0.54016 -0.95459
v 0.78717 -0.55118 -0.94823
v 0.77680 -0.55491 -0.95459
v 0.71824 -0.50292 -0.87681
v 0.78196 -0.54753 -0.95459
v 0.87598 -0.61337 -0.62779
v 0.88483 -0.60857 -0.62000
v 0.88335 -0.61853 -0.61221
v 0.87450 -0.62332 -0.62000
v 0.91145 -0.63820 -0.65279
v 0.92030 -0.63341 -0.64500
v 0.91882 -0.64336 -0.63721
v 0.90997 -0.64816 -0.64500
v 0.87966 -0.61595 -0.62000
v 0.91513 -0.64078 -0.64500
v 0.97598 -0.69437 -0.32094
v 0.97923 -0.68566 -0.32963
v 0.98630 -0.67963 -0.32094
v 0.98305 -0.68834 -0.31224
v 1.01554 -0.72207 -0.33388
v 1.01879 -0.71337 -0.34257
v 1.02586 -0.70733 -0.33388
v 1.02261 -0.71604 -0.32518
v 0.98114 -0.68700 -0.32094
v 1.02070 -0.71470 -0.33388
v 1.01059 -0.71861 0.00000
v 1.01575 -0.71123 -0.00900
v 1.02091 -0.70386 0.00000
v 1.01575 -0.71123 0.00900
v 1.10069 -0.78170 0.00000
v 1.10586 -0.77433 -0.00900
v 1.11102 -0.76696 0.00000
v 1.10586 -0.77433 0.00900
v 1.01575 -0.71123 0.00000
v 1.10586 -0.77433 0.00000
v 0.97598 -0.69437 0.32094
v 0.98305 -0.68834 0.31224
v 0.98630 -0.67963 0.32094
v 0.97923 -0.68566 0.32963
v 1.01554 -0.72207 0.33388
v 1.02261 -0.71604 0.32518
v 1.02586 -0.70733 0.33388
v 1.01879 -0.71337 0.34257
v 0.98114 -0.68700 0.32094
v 1.02070 -0.71470 0.33388
v 0.87598 -0.61337 0.62779
v 0.87450 -0.62332 0.62000
v 0.88335 -0.61853 0.61221
v 0.88483 -0.60857 0.62000
v 0.91145 -0.63820 0.65279
v 0.90997 -0.64816 0.64500
v 0.91882 -0.64337 0.63721
v 0.92030 -0.63341 0.64500
v 0.87966 -0.61595 0.62000
v 0.91513 -0.64078 0.64500
v 0.71303 -0.49927 0.88318
v 0.71308 -0.51029 0.87681
v 0.72346 -0.50657 0.87045
v 0.72340 -0.49555 0.87681
v 0.77674 -0.54388 0.96096
v 0.77680 -0.55491 0.95459
v 0.78717 -0.55118 0.94823
v 0.78712 -0.54016 0.95459
v 0.71824 -0.50292 0.87681
v 0.78196 -0.54753 0.95459
v 0.50149 -0.35115 1.07837
v 0.50271 -0.36299 1.07387
v 0.51426 -0.36009 1.06937
v 0.51304 -0.34824 1.07387
v 0.52197 -0.36549 1.12167
v 0.52319 -0.37733 1.11717
v 0.53474 -0.37443 1.11267
v 0.53352 -0.36258 1.11717
v 0.50787 -0.35562 1.07387
v 0.52835 -0.36996 1.11717
v 0.25577 -0.17909 1.20008
v 0.25773 -0.19145 1.19775
v 0.27002 -0.18907 1.19542
v 0.26806 -0.17671 1.19775
v 0.26637 -0.18652 1.24837
v 0.26833 -0.19888 1.24604
v 0.28062 -0.19649 1.24372
v 0.27866 -0.18413 1.24604
v 0.26290 -0.18408 1.19775
v 0.27350 -0.19150 1.24604
s 1
f 1 6 5
s 1
f 2 7 6
s 1
f 4 7 3
s 1
f 1 8 4
s 1
f 5 10 9
s 1
f 7 10 6
s 1
f 7 12 11
s 1
f 8 9 12
s 1
f 9 14 13
s 1
f 10 15 14
s 1
f 11 16 15
s 1
f 12 13 16
s 1
f 13 18 17
s 1
f 14 19 18
s 1
f 15 20 19
s 1
f 16 17 20
s 1
f 18 21 17
s 1
f 19 22 18
s 1
f 19 24 23
s 1
f 17 24 20
s 1
f 22 25 21
s 1
f 23 26 22
s 1
f 24 27 23
s 1
f 21 28 24
s 1
f 25 30 29
s 1
f 26 31 30
s 1
f 27 32 31
s 1
f 25 32 28
s 1
f 30 33 29
s 1
f 30 35 34
s 1
f 32 35 31
s 1
f 29 36 32
s 1
f 34 37 33
s 1
f 34 39 38
s 1
f 35 40 39
s 1
f 36 37 40
s 1
f 38 41 37
s 1
f 38 43 42
s 1
f 39 44 43
s 1
f 37 44 40
s 1
f 42 45 41
s 1
f 42 47 46
s 1
f 44 47 43
s 1
f 41 48 44
s 1
f 45 50 49
s 1
f 47 50 46
s 1
f 48 51 47
s 1
f 48 49 52
s 1
f 49 54 53
s 1
f 51 54 50
s 1
f 51 56 55
s 1
f 49 56 52
s 1
f 53 58 57
s 1
f 55 58 54
s 1
f 56 59 55
s 1
f 56 57 60
s 1
f 58 61 57
s 1
f 59 62 58
s 1
f 60 63 59
s 1
f 57 64 60
s 1
f 62 65 61
s 1
f 63 66 62
s 1
f 63 68 67
s 1
f 64 65 68
s 1
f 69 2 1
s 1
f 69 3 2
s 1
f 69 4 3
s 1
f 69 1 4
s 1
f 65 66 70
s 1
f 66 67 70
s 1
f 67 68 70
s 1
f 68 65 70
s 1
f 71 76 75
s 1
f 72 77 76
s 1
f 74 77 73
s 1
f 71 78 74
s 1
f 76 79 75
s 1
f 76 81 80
s 1
f 77 82 81
s 1
f 78 79 82
s 1
f 79 84 83
s 1
f 81 84 80
s 1
f 82 85 81
s 1
f 82 83 86
s 1
f 84 87 83
s 1
f 84 89 88
s 1
f 86 89 85
s 1
f 86 87 90
s 1
f 88 91 87
s 1
f 89 92 88
s 1
f 90 93 89
s 1
f 87 94 90
s 1
f 92 95 91
s 1
f 93 96 92
s 1
f 93 98 97
s 1
f 94 95 98
s 1
f 95 100 99
s 1
f 96 101 100
s 1
f 98 101 97
s 1
f 95 102 98
s 1
f 99 104 103
s 1
f 101 104 100
s 1
f 102 105 101
s 1
f 99 106 102
s 1
f 104 107 103
s 1
f 105 108 104
s 1
f 106 109 105
s 1
f 103 110 106
s 1
f 108 111 107
s 1
f 109 112 108
s 1
f 109 114 113
s 1
f 110 111 114
s 1
f 115 72 71
s 1
f 115 73 72
s 1
f 115 74 73
s 1
f 115 71 74
s 1
f 111 112 116
s 1
f 112 113 116
s 1
f 113 114 116
s 1
f 114 111 116
s 1
f 118 121 117
s 1
f 119 122 118
s 1
f 119 124 123
s 1
f 120 121 124
s 1
f 122 125 121
s 1
f 123 126 122
s 1
f 123 128 127
s 1
f 124 125 128
s 1
f 125 130 129
s 1
f 127 130 126
s 1
f 128 131 127
s 1
f 128 129 132
s 1
f 130 133 129
s 1
f 131 134 130
s 1
f 132 135 131
s 1
f 132 133 136
s 1
f 134 137 133
s 1
f 134 139 138
s 1
f 135 140 139
s 1
f 133 140 136
s 1
f 138 141 137
s 1
f 139 142 138
s 1
f 140 143 139
s 1
f 137 144 140
s 1
f 141 146 145
s 1
f 143 146 142
s 1
f 143 148 147
s 1
f 144 145 148
s 1
f 145 150 149
s 1
f 146 151 150
s 1
f 147 152 151
s 1
f 148 149 152
s 1
f 150 153 149
s 1
f 150 155 154
s 1
f 152 155 151
s 1
f 152 153 156
s 1
f 153 158 157
s 1
f 154 159 158
s 1
f 156 159 155
s 1
f 156 157 160
s 1
f 157 162 161
s 1
f 159 162 158
s 1
f 160 163 159
s 1
f 160 161 164
s 1
f 162 165 161
s 1
f 162 167 166
s 1
f 164 167 163
s 1
f 161 168 164
s 1
f 166 169 165
s 1
f 167 170 166
s 1
f 168 171 167
s 1
f 165 172 168
s 1
f 169 174 173
s 1
f 170 175 174
s 1
f 172 175 171
s 1
f 169 176 172
s 1
f 173 178 177
s 1
f 175 178 174
s 1
f 175 180 179
s 1
f 176 177 180
s 1
f 177 182 181
s 1
f 178 183 182
s 1
f 180 183 179
s 1
f 177 184 180
s 1
f 185 118 117
s 1
f 185 119 118
s 1
f 185 120 119
s 1
f 185 117 120
s 1
f 181 182 186
s 1
f 182 183 186
s 1
f 183 184 186
s 1
f 184 181 186
s 1
f 188 191 187
s 1
f 189 192 188
s 1
f 189 194 193
s 1
f 190 191 194
s 1
f 191 196 195
s 1
f 193 196 192
s 1
f 194 197 193
s 1
f 191 198 194
s 1
f 195 200 199
s 1
f 196 201 200
s 1
f 198 201 197
s 1
f 195 202 198
s 1
f 200 203 199
s 1
f 200 205 204
s 1
f 202 205 201
s 1
f 199 206 202
s 1
f 203 208 207
s 1
f 205 208 204
s 1
f 206 209 205
s 1
f 203 210 206
s 1
f 208 211 207
s 1
f 208 213 212
s 1
f 210 213 209
s 1
f 210 211 214
s 1
f 211 216 215
s 1
f 213 216 212
s 1
f 214 217 213
s 1
f 211 218 214
s 1
f 215 220 219
s 1
f 217 220 216
s 1
f 217 222 221
s 1
f 215 222 218
s 1
f 219 224 223
s 1
f 220 225 224
s 1
f 222 225 221
s 1
f 219 226 222
s 1
f 223 228 227
s 1
f 224 229 228
s 1
f 226 229 225
s 1
f 223 230 226
s 1
f 231 188 187
s 1
f 231 189 188
s 1
f 231 190 189
s 1
f 231 187 190
s 1
f 227 228 232
s 1
f 228 229 232
s 1
f 229 230 232
s 1
f 230 227 232
s 1
f 234 237 233
s 1
f 235 238 234
s 1
f 235 240 239
s 1
f 236 237 240
s 1
f 238 241 237
s 1
f 239 242 238
s 1
f 239 244 243
s 1
f 240 241 244
s 1
f 241 246 245
s 1
f 243 246 242
s 1
f 244 247 243
s 1
f 241 248 244
s 1
f 245 250 249
s 1
f 247 250 246
s 1
f 247 252 251
s 1
f 248 249 252
s 1
f 249 254 253
s 1
f 251 254 250
s 1
f 252 255 251
s 1
f 252 253 256
s 1
f 253 258 257
s 1
f 255 258 254
s 1
f 256 259 255
s 1
f 253 260 256
s 1
f 257 262 261
s 1
f 258 263 262
s 1
f 259 264 263
s 1
f 260 261 264
s 1
f 262 265 261
s 1
f 263 266 262
s 1
f 264 267 263
s 1
f 261 268 264
s 1
f 265 270 269
s 1
f 267 270 266
s 1
f 268 271 267
s 1
f 265 272 268
s 1
f 270 273 269
s 1
f 270 275 274
s 1
f 271 276 275
s 1
f 272 273 276
s 1
f 273 278 277
s 1
f 275 278 274
s 1
f 276 279 275
s 1
f 276 277 280
s 1
f 278 281 277
s 1
f 279 282 278
s 1
f 280 283 279
s 1
f 280 281 284
s 1
f 281 286 285
s 1
f 283 286 282
s 1
f 283 288 287
s 1
f 284 285 288
s 1
f 286 289 285
s 1
f 287 290 286
s 1
f 287 292 291
s 1
f 288 289 292
s 1
f 289 294 293
s 1
f 290 295 294
s 1
f 291 296 295
s 1
f 289 296 292
s 1
f 293 298 297
s 1
f 294 299 298
s 1
f 296 299 295
s 1
f 293 300 296
s 1
f 301 234 233
s 1
f 301 235 234
s 1
f 301 236 235
s 1
f 301 233 236
s 1
f 297 298 302
s 1
f 298 299 302
s 1
f 299 300 302
s 1
f 300 297 302
s 1
f 304 307 303
s 1
f 304 309 308
s 1
f 305 310 309
s 1
f 303 310 306
s 1
f 308 311 307
s 1
f 309 312 308
s 1
f 310 313 309
s 1
f 310 311 314
s 1
f 311 316 315
s 1
f 313 316 312
s 1
f 313 318 317
s 1
f 311 318 314
s 1
f 315 320 319
s 1
f 317 320 316
s 1
f 318 321 317
s 1
f 315 322 318
s 1
f 319 324 323
s 1
f 320 325 324
s 1
f 322 325 321
s 1
f 322 323 326
s 1
f 323 328 327
s 1
f 324 329 328
s 1
f 325 330 329
s 1
f 323 330 326
s 1
f 328 331 327
s 1
f 329 332 328
s 1
f 329 334 333
s 1
f 330 331 334
s 1
f 331 336 335
s 1
f 333 336 332
s 1
f 333 338 337
s 1
f 334 335 338
s 1
f 335 340 339
s 1
f 337 340 336
s 1
f 338 341 337
s 1
f 338 339 342
s 1
f 339 344 343
s 1
f 341 344 340
s 1
f 342 345 341
s 1
f 342 343 346
s 1
f 347 304 303
s 1
f 347 305 304
s 1
f 347 306 305
s 1
f 347 303 306
s 1
f 343 344 348
s 1
f 344 345 348
s 1
f 345 346 348
s 1
f 346 343 348
s 1
f 350 353 349
s 1
f 351 354 350
s 1
f 352 355 351
s 1
f 349 356 352
s 1
f 357 350 349
s 1
f 357 351 350
s 1
f 357 352 351
s 1
f 357 349 352
s 1
f 353 354 358
s 1
f 354 355 358
s 1
f 355 356 358
s 1
f 356 353 358
s 1
f 359 364 363
s 1
f 360 365 364
s 1
f 362 365 361
s 1
f 359 366 362
s 1
f 367 360 359
s 1
f 367 361 360
s 1
f 367 362 361
s 1
f 367 359 362
s 1
f 363 364 368
s 1
f 364 365 368
s 1
f 365 366 368
s 1
f 366 363 368
s 1
f 369 374 373
s 1
f 371 374 370
s 1
f 371 376 375
s 1
f 369 376 372
s 1
f 377 370 369
s 1
f 377 371 370
s 1
f 377 372 371
s 1
f 377 369 372
s 1
f 373 374 378
s 1
f 374 375 378
s 1
f 375 376 378
s 1
f 376 373 378
s 1
f 380 383 379
s 1
f 380 385 384
s 1
f 382 385 381
s 1
f 379 386 382
s 1
f 387 380 379
s 1
f 387 381 380
s 1
f 387 382 381
s 1
f 387 379 382
s 1
f 383 384 388
s 1
f 384 385 388
s 1
f 385 386 388
s 1
f 386 383 388
s 1
f 390 393 389
s 1
f 391 394 390
s 1
f 391 396 395
s 1
f 389 396 392
s 1
f 397 390 389
s 1
f 397 391 390
s 1
f 397 392 391
s 1
f 397 389 392
s 1
f 393 394 398
s 1
f 394 395 398
s 1
f 395 396 398
s 1
f 396 393 398
s 1
f 399 404 403
s 1
f 401 404 400
s 1
f 402 405 401
s 1
f 402 403 406
s 1
f 407 400 399
s 1
f 407 401 400
s 1
f 407 402 401
s 1
f 407 399 402
s 1
f 403 404 408
s 1
f 404 405 408
s 1
f 405 406 408
s 1
f 406 403 408
s 1
f 410 413 409
s 1
f 411 414 410
s 1
f 412 415 411
s 1
f 412 413 416
s 1
f 417 410 409
s 1
f 417 411 410
s 1
f 417 412 411
s 1
f 417 409 412
s 1
f 413 414 418
s 1
f 414 415 418
s 1
f 415 416 418
s 1
f 416 413 418
s 1
f 420 423 419
s 1
f 421 424 420
s 1
f 422 425 421
s 1
f 422 423 426
s 1
f 427 420 419
s 1
f 427 421 420
s 1
f 427 422 421
s 1
f 427 419 422
s 1
f 423 424 428
s 1
f 424 425 428
s 1
f 425 426 428
s 1
f 426 423 428
s 1
f 429 434 433
s 1
f 431 434 430
s 1
f 431 436 435
s 1
f 432 433 436
s 1
f 437 430 429
s 1
f 437 431 430
s 1
f 437 432 431
s 1
f 437 429 432
s 1
f 433 434 438
s 1
f 434 435 438
s 1
f 435 436 438
s 1
f 436 433 438
s 1
f 439 444 443
s 1
f 440 445 444
s 1
f 441 446 445
s 1
f 439 446 442
s 1
f 447 440 439
s 1
f 447 441 440
s 1
f 447 442 441
s 1
f 447 439 442
s 1
f 443 444 448
s 1
f 444 445 448
s 1
f 445 446 448
s 1
f 446 443 448
s 1
f 449 454 453
s 1
f 450 455 454
s 1
f 452 455 451
s 1
f 449 456 452
s 1
f 457 450 449
s 1
f 457 451 450
s 1
f 457 452 451
s 1
f 457 449 452
s 1
f 453 454 458
s 1
f 454 455 458
s 1
f 455 456 458
s 1
f 456 453 458
s 1
f 460 463 459
s 1
f 461 464 460
s 1
f 462 465 461
s 1
f 459 466 462
s 1
f 467 460 459
s 1
f 467 461 460
s 1
f 467 462 461
s 1
f 467 459 462
s 1
f 463 464 468
s 1
f 464 465 468
s 1
f 465 466 468
s 1
f 466 463 468
s 1
f 470 473 469
s 1
f 471 474 470
s 1
f 472 475 471
s 1
f 469 476 472
s 1
f 477 470 469
s 1
f 477 471 470
s 1
f 477 472 471
s 1
f 477 469 472
s 1
f 473 474 478
s 1
f 474 475 478
s 1
f 475 476 478
s 1
f 476 473 478
s 1
f 480 483 479
s 1
f 481 484 480
s 1
f 482 485 481
s 1
f 479 486 482
s 1
f 487 480 479
s 1
f 487 481 480
s 1
f 487 482 481
s 1
f 487 479 482
s 1
f 483 484 488
s 1
f 484 485 488
s 1
f 485 486 488
s 1
f 486 483 488
s 1
f 490 493 489
s 1
f 491 494 490
s 1
f 491 496 495
s 1
f 492 493 496
s 1
f 497 490 489
s 1
f 497 491 490
s 1
f 497 492 491
s 1
f 497 489 492
s 1
f 493 494 498
s 1
f 494 495 498
s 1
f 495 496 498
s 1
f 496 493 498
s 1
f 499 504 503
s 1
f 501 504 500
s 1
f 501 506 505
s 1
f 502 503 506
s 1
f 507 500 499
s 1
f 507 501 500
s 1
f 507 502 501
s 1
f 507 499 502
s 1
f 503 504 508
s 1
f 504 505 508
s 1
f 505 506 508
s 1
f 506 503 508
s 1
f 509 514 513
s 1
f 510 515 514
s 1
f 511 516 515
s 1
f 509 516 512
s 1
f 517 510 509
s 1
f 517 511 510
s 1
f 517 512 511
s 1
f 517 509 512
s 1
f 513 514 518
s 1
f 514 515 518
s 1
f 515 516 518
s 1
f 516 513 518
s 1
f 520 523 519
s 1
f 520 525 524
s 1
f 522 525 521
s 1
f 519 526 522
s 1
f 527 520 519
s 1
f 527 521 520
s 1
f 527 522 521
s 1
f 527 519 522
s 1
f 523 524 528
s 1
f 524 525 528
s 1
f 525 526 528
s 1
f 526 523 528
s 1
f 530 533 529
s 1
f 530 535 534
s 1
f 532 535 531
s 1
f 529 536 532
s 1
f 537 530 529
s 1
f 537 531 530
s 1
f 537 532 531
s 1
f 537 529 532
s 1
f 533 534 538
s 1
f 534 535 538
s 1
f 535 536 538
s 1
f 536 533 538
s 1
f 540 543 539
s 1
f 540 545 544
s 1
f 541 546 545
s 1
f 539 546 542
s 1
f 547 540 539
s 1
f 547 541 540
s 1
f 547 542 541
s 1
f 547 539 542
s 1
f 543 544 548
s 1
f 544 545 548
s 1
f 545 546 548
s 1
f 546 543 548
s 1
f 549 554 553
s 1
f 551 554 550
s 1
f 552 555 551
s 1
f 549 556 552
s 1
f 557 550 549
s 1
f 557 551 550
s 1
f 557 552 551
s 1
f 557 549 552
s 1
f 553 554 558
s 1
f 554 555 558
s 1
f 555 556 558
s 1
f 556 553 558
s 1
f 560 563 559
s 1
f 561 564 560
s 1
f 562 565 561
s 1
f 562 563 566
s 1
f 567 560 559
s 1
f 567 561 560
s 1
f 567 562 561
s 1
f 567 559 562
s 1
f 563 564 568
s 1
f 564 565 568
s 1
f 565 566 568
s 1
f 566 563 568
s 1
f 569 574 573
s 1
f 571 574 570
s 1
f 571 576 575
s 1
f 569 576 572
s 1
f 577 570 569
s 1
f 577 571 570
s 1
f 577 572 571
s 1
f 577 569 572
s 1
f 573 574 578
s 1
f 574 575 578
s 1
f 575 576 578
s 1
f 576 573 578
s 1
f 580 583 579
s 1
f 581 584 580
s 1
f 581 586 585
s 1
f 582 583 586
s 1
f 587 580 579
s 1
f 587 581 580
s 1
f 587 582 581
s 1
f 587 579 582
s 1
f 583 584 588
s 1
f 584 585 588
s 1
f 585 586 588
s 1
f 586 583 588
s 1
f 1 2 6
s 1
f 2 3 7
s 1
f 4 8 7
s 1
f 1 5 8
s 1
f 5 6 10
s 1
f 7 11 10
s 1
f 7 8 12
s 1
f 8 5 9
s 1
f 9 10 14
s 1
f 10 11 15
s 1
f 11 12 16
s 1
f 12 9 13
s 1
f 13 14 18
s 1
f 14 15 19
s 1
f 15 16 20
s 1
f 16 13 17
s 1
f 18 22 21
s 1
f 19 23 22
s 1
f 19 20 24
s 1
f 17 21 24
s 1
f 22 26 25
s 1
f 23 27 26
s 1
f 24 28 27
s 1
f 21 25 28
s 1
f 25 26 30
s 1
f 26 27 31
s 1
f 27 28 32
s 1
f 25 29 32
s 1
f 30 34 33
s 1
f 30 31 35
s 1
f 32 36 35
s 1
f 29 33 36
s 1
f 34 38 37
s 1
f 34 35 39
s 1
f 35 36 40
s 1
f 36 33 37
s 1
f 38 42 41
s 1
f 38 39 43
s 1
f 39 40 44
s 1
f 37 41 44
s 1
f 42 46 45
s 1
f 42 43 47
s 1
f 44 48 47
s 1
f 41 45 48
s 1
f 45 46 50
s 1
f 47 51 50
s 1
f 48 52 51
s 1
f 48 45 49
s 1
f 49 50 54
s 1
f 51 55 54
s 1
f 51 52 56
s 1
f 49 53 56
s 1
f 53 54 58
s 1
f 55 59 58
s 1
f 56 60 59
s 1
f 56 53 57
s 1
f 58 62 61
s 1
f 59 63 62
s 1
f 60 64 63
s 1
f 57 61 64
s 1
f 62 66 65
s 1
f 63 67 66
s 1
f 63 64 68
s 1
f 64 61 65
s 1
f 71 72 76
s 1
f 72 73 77
s 1
f 74 78 77
s 1
f 71 75 78
s 1
f 76 80 79
s 1
f 76 77 81
s 1
f 77 78 82
s 1
f 78 75 79
s 1
f 79 80 84
s 1
f 81 85 84
s 1
f 82 86 85
s 1
f 82 79 83
s 1
f 84 88 87
s 1
f 84 85 89
s 1
f 86 90 89
s 1
f 86 83 87
s 1
f 88 92 91
s 1
f 89 93 92
s 1
f 90 94 93
s 1
f 87 91 94
s 1
f 92 96 95
s 1
f 93 97 96
s 1
f 93 94 98
s 1
f 94 91 95
s 1
f 95 96 100
s 1
f 96 97 101
s 1
f 98 102 101
s 1
f 95 99 102
s 1
f 99 100 104
s 1
f 101 105 104
s 1
f 102 106 105
s 1
f 99 103 106
s 1
f 104 108 107
s 1
f 105 109 108
s 1
f 106 110 109
s 1
f 103 107 110
s 1
f 108 112 111
s 1
f 109 113 112
s 1
f 109 110 114
s 1
f 110 107 111
s 1
f 118 122 121
s 1
f 119 123 122
s 1
f 119 120 124
s 1
f 120 117 121
s 1
f 122 126 125
s 1
f 123 127 126
s 1
f 123 124 128
s 1
f 124 121 125
s 1
f 125 126 130
s 1
f 127 131 130
s 1
f 128 132 131
s 1
f 128 125 129
s 1
f 130 134 133
s 1
f 131 135 134
s 1
f 132 136 135
s 1
f 132 129 133
s 1
f 134 138 137
s 1
f 134 135 139
s 1
f 135 136 140
s 1
f 133 137 140
s 1
f 138 142 141
s 1
f 139 143 142
s 1
f 140 144 143
s 1
f 137 141 144
s 1
f 141 142 146
s 1
f 143 147 146
s 1
f 143 144 148
s 1
f 144 141 145
s 1
f 145 146 150
s 1
f 146 147 151
s 1
f 147 148 152
s 1
f 148 145 149
s 1
f 150 154 153
s 1
f 150 151 155
s 1
f 152 156 155
s 1
f 152 149 153
s 1
f 153 154 158
s 1
f 154 155 159
s 1
f 156 160 159
s 1
f 156 153 157
s 1
f 157 158 162
s 1
f 159 163 162
s 1
f 160 164 163
s 1
f 160 157 161
s 1
f 162 166 165
s 1
f 162 163 167
s 1
f 164 168 167
s 1
f 161 165 168
s 1
f 166 170 169
s 1
f 167 171 170
s 1
f 168 172 171
s 1
f 165 169 172
s 1
f 169 170 174
s 1
f 170 171 175
s 1
f 172 176 175
s 1
f 169 173 176
s 1
f 173 174 178
s 1
f 175 179 178
s 1
f 175 176 180
s 1
f 176 173 177
s 1
f 177 178 182
s 1
f 178 179 183
s 1
f 180 184 183
s 1
f 177 181 184
s 1
f 188 192 191
s 1
f 189 193 192
s 1
f 189 190 194
s 1
f 190 187 191
s 1
f 191 192 196
s 1
f 193 197 196
s 1
f 194 198 197
s 1
f 191 195 198
s 1
f 195 196 200
s 1
f 196 197 201
s 1
f 198 202 201
s 1
f 195 199 202
s 1
f 200 204 203
s 1
f 200 201 205
s 1
f 202 206 205
s 1
f 199 203 206
s 1
f 203 204 208
s 1
f 205 209 208
s 1
f 206 210 209
s 1
f 203 207 210
s 1
f 208 212 211
s 1
f 208 209 213
s 1
f 210 214 213
s 1
f 210 207 211
s 1
f 211 212 216
s 1
f 213 217 216
s 1
f 214 218 217
s 1
f 211 215 218
s 1
f 215 216 220
s 1
f 217 221 220
s 1
f 217 218 222
s 1
f 215 219 222
s 1
f 219 220 224
s 1
f 220 221 225
s 1
f 222 226 225
s 1
f 219 223 226
s 1
f 223 224 228
s 1
f 224 225 229
s 1
f 226 230 229
s 1
f 223 227 230
s 1
f 234 238 237
s 1
f 235 239 238
s 1
f 235 236 240
s 1
f 236 233 237
s 1
f 238 242 241
s 1
f 239 243 242
s 1
f 239 240 244
s 1
f 240 237 241
s 1
f 241 242 246
s 1
f 243 247 246
s 1
f 244 248 247
s 1
f 241 245 248
s 1
f 245 246 250
s 1
f 247 251 250
s 1
f 247 248 252
s 1
f 248 245 249
s 1
f 249 250 254
s 1
f 251 255 254
s 1
f 252 256 255
s 1
f 252 249 253
s 1
f 253 254 258
s 1
f 255 259 258
s 1
f 256 260 259
s 1
f 253 257 260
s 1
f 257 258 262
s 1
f 258 259 263
s 1
f 259 260 264
s 1
f 260 257 261
s 1
f 262 266 265
s 1
f 263 267 266
s 1
f 264 268 267
s 1
f 261 265 268
s 1
f 265 266 270
s 1
f 267 271 270
s 1
f 268 272 271
s 1
f 265 269 272
s 1
f 270 274 273
s 1
f 270 271 275
s 1
f 271 272 276
s 1
f 272 269 273
s 1
f 273 274 278
s 1
f 275 279 278
s 1
f 276 280 279
s 1
f 276 273 277
s 1
f 278 282 281
s 1
f 279 283 282
s 1
f 280 284 283
s 1
f 280 277 281
s 1
f 281 282 286
s 1
f 283 287 286
s 1
f 283 284 288
s 1
f 284 281 285
s 1
f 286 290 289
s 1
f 287 291 290
s 1
f 287 288 292
s 1
f 288 285 289
s 1
f 289 290 294
s 1
f 290 291 295
s 1
f 291 292 296
s 1
f 289 293 296
s 1
f 293 294 298
s 1
f 294 295 299
s 1
f 296 300 299
s 1
f 293 297 300
s 1
f 304 308 307
s 1
f 304 305 309
s 1
f 305 306 310
s 1
f 303 307 310
s 1
f 308 312 311
s 1
f 309 313 312
s 1
f 310 314 313
s 1
f 310 307 311
s 1
f 311 312 316
s 1
f 313 317 316
s 1
f 313 314 318
s 1
f 311 315 318
s 1
f 315 316 320
s 1
f 317 321 320
s 1
f 318 322 321
s 1
f 315 319 322
s 1
f 319 320 324
s 1
f 320 321 325
s 1
f 322 326 325
s 1
f 322 319 323
s 1
f 323 324 328
s 1
f 324 325 329
s 1
f 325 326 330
s 1
f 323 327 330
s 1
f 328 332 331
s 1
f 329 333 332
s 1
f 329 330 334
s 1
f 330 327 331
s 1
f 331 332 336
s 1
f 333 337 336
s 1
f 333 334 338
s 1
f 334 331 335
s 1
f 335 336 340
s 1
f 337 341 340
s 1
f 338 342 341
s 1
f 338 335 339
s 1
f 339 340 344
s 1
f 341 345 344
s 1
f 342 346 345
s 1
f 342 339 343
s 1
f 350 354 353
s 1
f 351 355 354
s 1
f 352 356 355
s 1
f 349 353 356
s 1
f 359 360 364
s 1
f 360 361 365
s 1
f 362 366 365
s 1
f 359 363 366
s 1
f 369 370 374
s 1
f 371 375 374
s 1
f 371 372 376
s 1
f 369 373 376
s 1
f 380 384 383
s 1
f 380 381 385
s 1
f 382 386 385
s 1
f 379 383 386
s 1
f 390 394 393
s 1
f 391 395 394
s 1
f 391 392 396
s 1
f 389 393 396
s 1
f 399 400 404
s 1
f 401 405 404
s 1
f 402 406 405
s 1
f 402 399 403
s 1
f 410 414 413
s 1
f 411 415 414
s 1
f 412 416 415
s 1
f 412 409 413
s 1
f 420 424 423
s 1
f 421 425 424
s 1
f 422 426 425
s 1
f 422 419 423
s 1
f 429 430 434
s 1
f 431 435 434
s 1
f 431 432 436
s 1
f 432 429 433
s 1
f 439 440 444
s 1
f 440 441 445
s 1
f 441 442 446
s 1
f 439 443 446
s 1
f 449 450 454
s 1
f 450 451 455
s 1
f 452 456 455
s 1
f 449 453 456
s 1
f 460 464 463
s 1
f 461 465 464
s 1
f 462 466 465
s 1
f 459 463 466
s 1
f 470 474 473
s 1
f 471 475 474
s 1
f 472 476 475
s 1
f 469 473 476
s 1
f 480 484 483
s 1
f 481 485 484
s 1
f 482 486 485
s 1
f 479 483 486
s 1
f 490 494 493
s 1
f 491 495 494
s 1
f 491 492 496
s 1
f 492 489 493
s 1
f 499 500 504
s 1
f 501 505 504
s 1
f 501 502 506
s 1
f 502 499 503
s 1
f 509 510 514
s 1
f 510 511 515
s 1
f 511 512 516
s 1
f 509 513 516
s 1
f 520 524 523
s 1
f 520 521 525
s 1
f 522 526 525
s 1
f 519 523 526
s 1
f 530 534 533
s 1
f 530 531 535
s 1
f 532 536 535
s 1
f 529 533 536
s 1
f 540 544 543
s 1
f 540 541 545
s 1
f 541 542 546
s 1
f 539 543 546
s 1
f 549 550 554
s 1
f 551 555 554
s 1
f 552 556 555
s 1
f 549 553 556
s 1
f 560 564 563
s 1
f 561 565 564
s 1
f 562 566 565
s 1
f 562 559 563
s 1
f 569 570 574
s 1
f 571 575 574
s 1
f 571 572 576
s 1
f 569 573 576
s 1
f 580 584 583
s 1
f 581 585 584
s 1
f 581 582 586
s 1
f 582 579 583
