# beta_pocket DraftBase_Blue.obj: Roblox cue frame, recentred on its bounding box
v 1.47437 0.01020 -0.12899
v 1.48922 -0.00000 -0.13109
v 1.47437 -0.01020 -0.12899
v 1.45952 -0.00000 -0.12689
v 1.45240 0.01020 -0.28451
v 1.46712 -0.00000 -0.28739
v 1.45240 -0.01020 -0.28451
v 1.43768 -0.00000 -0.28163
v 1.41407 0.01020 -0.43683
v 1.42840 -0.00000 -0.44125
v 1.41407 -0.01020 -0.43683
v 1.39973 -0.00000 -0.43240
v 1.35981 0.01020 -0.58422
v 1.37359 -0.00000 -0.59014
v 1.35981 -0.01020 -0.58422
v 1.34603 -0.00000 -0.57830
v 1.29024 0.01020 -0.72504
v 1.30332 -0.00000 -0.73239
v 1.29024 -0.01020 -0.72504
v 1.27716 -0.00000 -0.71769
v 1.20614 0.01020 -0.85769
v 1.21836 -0.00000 -0.86638
v 1.20614 -0.01020 -0.85769
v 1.19392 -0.00000 -0.84899
v 1.10845 0.01020 -0.98068
v 1.11969 -0.00000 -0.99062
v 1.10845 -0.01020 -0.98068
v 1.09722 -0.00000 -0.97074
v 0.99829 0.01020 -1.09262
v 1.00840 -0.00000 -1.10370
v 0.99829 -0.01020 -1.09262
v 0.98817 -0.00000 -1.08155
v 0.87687 0.01020 -1.19226
v 0.88576 -0.00000 -1.20435
v 0.87687 -0.01020 -1.19226
v 0.86799 -0.00000 -1.18018
v 0.74559 0.01020 -1.27848
v 0.75314 -0.00000 -1.29143
v 0.74559 -0.01020 -1.27848
v 0.73803 -0.00000 -1.26552
v 0.60590 0.01020 -1.35029
v 0.61204 -0.00000 -1.36398
v 0.60590 -0.01020 -1.35029
v 0.59976 -0.00000 -1.33661
v 0.45939 0.01020 -1.40690
v 0.46405 -0.00000 -1.42116
v 0.45939 -0.01020 -1.40690
v 0.45474 -0.00000 -1.39264
v 0.30771 0.01020 -1.44766
v 0.31160 -0.00000 -1.46214
v 0.30771 -0.01020 -1.44766
v 0.30382 -0.00000 -1.43317
v 1.47437 -0.00000 -0.12899
v 0.30771 -0.00000 -1.44766
v -1.30000 0.00680 0.00000
v -1.30000 -0.00000 -0.01000
v -1.30000 -0.00680 -0.00000
v -1.30000 -0.00000 0.01000
v -1.70000 0.00680 0.00000
v -1.70000 -0.00000 -0.01000
v -1.70000 -0.00680 -0.00000
v -1.70000 -0.00000 0.01000
v -1.30000 -0.00000 0.00000
v -1.70000 -0.00000 0.00000
v -0.12899 0.01020 -1.47437
v -0.13109 -0.00000 -1.48922
v -0.12899 -0.01020 -1.47437
v -0.12689 -0.00000 -1.45952
v -0.28451 0.01020 -1.45240
v -0.28739 -0.00000 -1.46712
v -0.28451 -0.01020 -1.45240
v -0.28163 -0.00000 -1.43768
v -0.43683 0.01020 -1.41407
v -0.44125 -0.00000 -1.42840
v -0.43683 -0.01020 -1.41407
v -0.43240 -0.00000 -1.39973
v -0.58422 0.01020 -1.35981
v -0.59014 -0.00000 -1.37359
v -0.58422 -0.01020 -1.35981
v -0.57830 -0.00000 -1.34603
v -0.72504 0.01020 -1.29024
v -0.73239 -0.00000 -1.30332
v -0.72504 -0.01020 -1.29024
v -0.71769 -0.00000 -1.27716
v -0.85769 0.01020 -1.20614
v -0.86638 -0.00000 -1.21836
v -0.85769 -0.01020 -1.20614
v -0.84899 -0.00000 -1.19392
v -0.98068 0.01020 -1.10845
v -0.99062 -0.00000 -1.11969
v -0.98068 -0.01020 -1.10845
v -0.97074 -0.00000 -1.09722
v -1.09262 0.01020 -0.99829
v -1.10370 -0.00000 -1.00840
v -1.09262 -0.01020 -0.99829
v -1.08155 -0.00000 -0.98817
v -1.19226 0.01020 -0.87687
v -1.20435 -0.00000 -0.88576
v -1.19226 -0.01020 -0.87687
v -1.18018 -0.00000 -0.86799
v -1.27848 0.01020 -0.74559
v -1.29143 -0.00000 -0.75314
v -1.27848 -0.01020 -0.74559
v -1.26552 -0.00000 -0.73803
v -1.35029 0.01020 -0.60590
v -1.36398 -0.00000 -0.61204
v -1.35029 -0.01020 -0.60590
v -1.33661 -0.00000 -0.59976
v -1.40690 0.01020 -0.45939
v -1.42116 -0.00000 -0.46405
v -1.40690 -0.01020 -0.45939
v -1.39264 -0.00000 -0.45474
v -1.44766 0.01020 -0.30771
v -1.46214 -0.00000 -0.31160
v -1.44766 -0.01020 -0.30771
v -1.43317 -0.00000 -0.30382
v -0.12899 -0.00000 -1.47437
v -1.44766 -0.00000 -0.30771
v -0.00000 0.00680 1.30000
v -0.01000 -0.00000 1.30000
v -0.00000 -0.00680 1.30000
v 0.01000 -0.00000 1.30000
v -0.00000 0.00680 1.70000
v -0.01000 -0.00000 1.70000
v -0.00000 -0.00680 1.70000
v 0.01000 -0.00000 1.70000
v -0.00000 -0.00000 1.30000
v -0.00000 -0.00000 1.70000
v -1.47437 0.01020 0.12899
v -1.48922 -0.00000 0.13109
v -1.47437 -0.01020 0.12899
v -1.45952 -0.00000 0.12689
v -1.45240 0.01020 0.28451
v -1.46712 -0.00000 0.28739
v -1.45240 -0.01020 0.28451
v -1.43768 -0.00000 0.28163
v -1.41407 0.01020 0.43683
v -1.42840 -0.00000 0.44125
v -1.41407 -0.01020 0.43683
v -1.39973 -0.00000 0.43240
v -1.35981 0.01020 0.58422
v -1.37359 -0.00000 0.59014
v -1.35981 -0.01020 0.58422
v -1.34603 -0.00000 0.57830
v -1.29024 0.01020 0.72504
v -1.30332 -0.00000 0.73239
v -1.29024 -0.01020 0.72504
v -1.27716 -0.00000 0.71769
v -1.20614 0.01020 0.85769
v -1.21836 -0.00000 0.86638
v -1.20614 -0.01020 0.85769
v -1.19392 -0.00000 0.84899
v -1.10845 0.01020 0.98068
v -1.11969 -0.00000 0.99062
v -1.10845 -0.01020 0.98068
v -1.09722 -0.00000 0.97074
v -0.99829 0.01020 1.09262
v -1.00840 -0.00000 1.10370
v -0.99829 -0.01020 1.09262
v -0.98817 -0.00000 1.08155
v -0.87687 0.01020 1.19226
v -0.88576 -0.00000 1.20435
v -0.87687 -0.01020 1.19226
v -0.86799 -0.00000 1.18018
v -0.74559 0.01020 1.27848
v -0.75314 -0.00000 1.29143
v -0.74559 -0.01020 1.27848
v -0.73803 -0.00000 1.26552
v -0.60590 0.01020 1.35029
v -0.61204 -0.00000 1.36398
v -0.60590 -0.01020 1.35029
v -0.59976 -0.00000 1.33661
v -0.45939 0.01020 1.40690
v -0.46405 -0.00000 1.42116
v -0.45939 -0.01020 1.40690
v -0.45474 -0.00000 1.39264
v -0.30771 0.01020 1.44766
v -0.31160 -0.00000 1.46214
v -0.30771 -0.01020 1.44766
v -0.30382 -0.00000 1.43317
v -1.47437 -0.00000 0.12899
v -0.30771 -0.00000 1.44766
v 1.30000 0.00680 0.00000
v 1.30000 -0.00000 0.01000
v 1.30000 -0.00680 0.00000
v 1.30000 -0.00000 -0.01000
v 1.70000 0.00680 0.00000
v 1.70000 -0.00000 0.01000
v 1.70000 -0.00680 0.00000
v 1.70000 -0.00000 -0.01000
v 1.30000 -0.00000 0.00000
v 1.70000 -0.00000 0.00000
v 0.12899 0.01020 1.47437
v 0.13109 -0.00000 1.48922
v 0.12899 -0.01020 1.47437
v 0.12689 -0.00000 1.45952
v 0.28451 0.01020 1.45240
v 0.28739 -0.00000 1.46712
v 0.28451 -0.01020 1.45240
v 0.28163 -0.00000 1.43768
v 0.43683 0.01020 1.41407
v 0.44125 -0.00000 1.42840
v 0.43683 -0.01020 1.41407
v 0.43240 -0.00000 1.39973
v 0.58422 0.01020 1.35981
v 0.59014 -0.00000 1.37359
v 0.58422 -0.01020 1.35981
v 0.57830 -0.00000 1.34603
v 0.72504 0.01020 1.29024
v 0.73239 -0.00000 1.30332
v 0.72504 -0.01020 1.29024
v 0.71769 -0.00000 1.27716
v 0.85769 0.01020 1.20614
v 0.86638 -0.00000 1.21836
v 0.85769 -0.01020 1.20614
v 0.84899 -0.00000 1.19392
v 0.98068 0.01020 1.10845
v 0.99062 -0.00000 1.11969
v 0.98068 -0.01020 1.10845
v 0.97074 -0.00000 1.09722
v 1.09262 0.01020 0.99829
v 1.10370 -0.00000 1.00840
v 1.09262 -0.01020 0.99829
v 1.08155 -0.00000 0.98817
v 1.19226 0.01020 0.87687
v 1.20435 -0.00000 0.88576
v 1.19226 -0.01020 0.87687
v 1.18018 -0.00000 0.86799
v 1.27848 0.01020 0.74559
v 1.29143 -0.00000 0.75314
v 1.27848 -0.01020 0.74559
v 1.26552 -0.00000 0.73803
v 1.35029 0.01020 0.60590
v 1.36398 -0.00000 0.61204
v 1.35029 -0.01020 0.60590
v 1.33661 -0.00000 0.59976
v 1.40690 0.01020 0.45939
v 1.42116 -0.00000 0.46405
v 1.40690 -0.01020 0.45939
v 1.39264 -0.00000 0.45474
v 1.44766 0.01020 0.30771
v 1.46214 -0.00000 0.31160
v 1.44766 -0.01020 0.30771
v 1.43317 -0.00000 0.30382
v 0.12899 -0.00000 1.47437
v 1.44766 -0.00000 0.30771
v 0.00000 0.00680 -1.30000
v 0.01000 -0.00000 -1.30000
v 0.00000 -0.00680 -1.30000
v -0.01000 -0.00000 -1.30000
v 0.00000 0.00680 -1.70000
v 0.01000 -0.00000 -1.70000
v 0.00000 -0.00680 -1.70000
v -0.01000 -0.00000 -1.70000
v -0.00000 -0.00000 -1.30000
v -0.00000 -0.00000 -1.70000
s 1
f 2 5 1
s 1
f 2 7 6
s 1
f 3 8 7
s 1
f 1 8 4
s 1
f 5 10 9
s 1
f 7 10 6
s 1
f 7 12 11
s 1
f 5 12 8
s 1
f 10 13 9
s 1
f 10 15 14
s 1
f 11 16 15
s 1
f 9 16 12
s 1
f 14 17 13
s 1
f 14 19 18
s 1
f 16 19 15
s 1
f 16 17 20
s 1
f 18 21 17
s 1
f 19 22 18
s 1
f 19 24 23
s 1
f 20 21 24
s 1
f 22 25 21
s 1
f 23 26 22
s 1
f 23 28 27
s 1
f 21 28 24
s 1
f 26 29 25
s 1
f 26 31 30
s 1
f 27 32 31
s 1
f 25 32 28
s 1
f 30 33 29
s 1
f 31 34 30
s 1
f 32 35 31
s 1
f 29 36 32
s 1
f 33 38 37
s 1
f 35 38 34
s 1
f 35 40 39
s 1
f 33 40 36
s 1
f 38 41 37
s 1
f 39 42 38
s 1
f 40 43 39
s 1
f 37 44 40
s 1
f 42 45 41
s 1
f 43 46 42
s 1
f 43 48 47
s 1
f 41 48 44
s 1
f 45 50 49
s 1
f 47 50 46
s 1
f 48 51 47
s 1
f 48 49 52
s 1
f 53 2 1
s 1
f 53 3 2
s 1
f 53 4 3
s 1
f 53 1 4
s 1
f 49 50 54
s 1
f 50 51 54
s 1
f 51 52 54
s 1
f 52 49 54
s 1
f 56 59 55
s 1
f 57 60 56
s 1
f 58 61 57
s 1
f 55 62 58
s 1
f 63 56 55
s 1
f 63 57 56
s 1
f 63 58 57
s 1
f 63 55 58
s 1
f 59 60 64
s 1
f 60 61 64
s 1
f 61 62 64
s 1
f 62 59 64
s 1
f 66 69 65
s 1
f 66 71 70
s 1
f 67 72 71
s 1
f 65 72 68
s 1
f 69 74 73
s 1
f 71 74 70
s 1
f 71 76 75
s 1
f 69 76 72
s 1
f 74 77 73
s 1
f 74 79 78
s 1
f 75 80 79
s 1
f 73 80 76
s 1
f 78 81 77
s 1
f 78 83 82
s 1
f 80 83 79
s 1
f 80 81 84
s 1
f 82 85 81
s 1
f 83 86 82
s 1
f 83 88 87
s 1
f 84 85 88
s 1
f 86 89 85
s 1
f 87 90 86
s 1
f 87 92 91
s 1
f 85 92 88
s 1
f 90 93 89
s 1
f 90 95 94
s 1
f 91 96 95
s 1
f 89 96 92
s 1
f 94 97 93
s 1
f 95 98 94
s 1
f 96 99 95
s 1
f 93 100 96
s 1
f 97 102 101
s 1
f 99 102 98
s 1
f 99 104 103
s 1
f 97 104 100
s 1
f 102 105 101
s 1
f 103 106 102
s 1
f 104 107 103
s 1
f 101 108 104
s 1
f 106 109 105
s 1
f 107 110 106
s 1
f 107 112 111
s 1
f 105 112 108
s 1
f 109 114 113
s 1
f 111 114 110
s 1
f 112 115 111
s 1
f 112 113 116
s 1
f 117 66 65
s 1
f 117 67 66
s 1
f 117 68 67
s 1
f 117 65 68
s 1
f 113 114 118
s 1
f 114 115 118
s 1
f 115 116 118
s 1
f 116 113 118
s 1
f 120 123 119
s 1
f 121 124 120
s 1
f 122 125 121
s 1
f 119 126 122
s 1
f 127 120 119
s 1
f 127 121 120
s 1
f 127 122 121
s 1
f 127 119 122
s 1
f 123 124 128
s 1
f 124 125 128
s 1
f 125 126 128
s 1
f 126 123 128
s 1
f 130 133 129
s 1
f 130 135 134
s 1
f 131 136 135
s 1
f 129 136 132
s 1
f 133 138 137
s 1
f 135 138 134
s 1
f 135 140 139
s 1
f 133 140 136
s 1
f 138 141 137
s 1
f 138 143 142
s 1
f 139 144 143
s 1
f 137 144 140
s 1
f 142 145 141
s 1
f 142 147 146
s 1
f 144 147 143
s 1
f 144 145 148
s 1
f 146 149 145
s 1
f 147 150 146
s 1
f 147 152 151
s 1
f 148 149 152
s 1
f 150 153 149
s 1
f 151 154 150
s 1
f 151 156 155
s 1
f 149 156 152
s 1
f 154 157 153
s 1
f 154 159 158
s 1
f 155 160 159
s 1
f 153 160 156
s 1
f 158 161 157
s 1
f 159 162 158
s 1
f 160 163 159
s 1
f 157 164 160
s 1
f 161 166 165
s 1
f 163 166 162
s 1
f 163 168 167
s 1
f 161 168 164
s 1
f 166 169 165
s 1
f 167 170 166
s 1
f 168 171 167
s 1
f 165 172 168
s 1
f 170 173 169
s 1
f 171 174 170
s 1
f 171 176 175
s 1
f 169 176 172
s 1
f 173 178 177
s 1
f 175 178 174
s 1
f 176 179 175
s 1
f 176 177 180
s 1
f 181 130 129
s 1
f 181 131 130
s 1
f 181 132 131
s 1
f 181 129 132
s 1
f 177 178 182
s 1
f 178 179 182
s 1
f 179 180 182
s 1
f 180 177 182
s 1
f 184 187 183
s 1
f 185 188 184
s 1
f 186 189 185
s 1
f 183 190 186
s 1
f 191 184 183
s 1
f 191 185 184
s 1
f 191 186 185
s 1
f 191 183 186
s 1
f 187 188 192
s 1
f 188 189 192
s 1
f 189 190 192
s 1
f 190 187 192
s 1
f 194 197 193
s 1
f 194 199 198
s 1
f 195 200 199
s 1
f 193 200 196
s 1
f 197 202 201
s 1
f 199 202 198
s 1
f 199 204 203
s 1
f 197 204 200
s 1
f 202 205 201
s 1
f 202 207 206
s 1
f 203 208 207
s 1
f 201 208 204
s 1
f 206 209 205
s 1
f 206 211 210
s 1
f 208 211 207
s 1
f 208 209 212
s 1
f 210 213 209
s 1
f 211 214 210
s 1
f 211 216 215
s 1
f 212 213 216
s 1
f 214 217 213
s 1
f 215 218 214
s 1
f 215 220 219
s 1
f 213 220 216
s 1
f 218 221 217
s 1
f 218 223 222
s 1
f 219 224 223
s 1
f 217 224 220
s 1
f 222 225 221
s 1
f 223 226 222
s 1
f 224 227 223
s 1
f 221 228 224
s 1
f 225 230 229
s 1
f 227 230 226
s 1
f 227 232 231
s 1
f 225 232 228
s 1
f 230 233 229
s 1
f 231 234 230
s 1
f 232 235 231
s 1
f 229 236 232
s 1
f 234 237 233
s 1
f 235 238 234
s 1
f 235 240 239
s 1
f 233 240 236
s 1
f 237 242 241
s 1
f 239 242 238
s 1
f 240 243 239
s 1
f 240 241 244
s 1
f 245 194 193
s 1
f 245 195 194
s 1
f 245 196 195
s 1
f 245 193 196
s 1
f 241 242 246
s 1
f 242 243 246
s 1
f 243 244 246
s 1
f 244 241 246
s 1
f 248 251 247
s 1
f 249 252 248
s 1
f 250 253 249
s 1
f 247 254 250
s 1
f 255 248 247
s 1
f 255 249 248
s 1
f 255 250 249
s 1
f 255 247 250
s 1
f 251 252 256
s 1
f 252 253 256
s 1
f 253 254 256
s 1
f 254 251 256
s 1
f 2 6 5
s 1
f 2 3 7
s 1
f 3 4 8
s 1
f 1 5 8
s 1
f 5 6 10
s 1
f 7 11 10
s 1
f 7 8 12
s 1
f 5 9 12
s 1
f 10 14 13
s 1
f 10 11 15
s 1
f 11 12 16
s 1
f 9 13 16
s 1
f 14 18 17
s 1
f 14 15 19
s 1
f 16 20 19
s 1
f 16 13 17
s 1
f 18 22 21
s 1
f 19 23 22
s 1
f 19 20 24
s 1
f 20 17 21
s 1
f 22 26 25
s 1
f 23 27 26
s 1
f 23 24 28
s 1
f 21 25 28
s 1
f 26 30 29
s 1
f 26 27 31
s 1
f 27 28 32
s 1
f 25 29 32
s 1
f 30 34 33
s 1
f 31 35 34
s 1
f 32 36 35
s 1
f 29 33 36
s 1
f 33 34 38
s 1
f 35 39 38
s 1
f 35 36 40
s 1
f 33 37 40
s 1
f 38 42 41
s 1
f 39 43 42
s 1
f 40 44 43
s 1
f 37 41 44
s 1
f 42 46 45
s 1
f 43 47 46
s 1
f 43 44 48
s 1
f 41 45 48
s 1
f 45 46 50
s 1
f 47 51 50
s 1
f 48 52 51
s 1
f 48 45 49
s 1
f 56 60 59
s 1
f 57 61 60
s 1
f 58 62 61
s 1
f 55 59 62
s 1
f 66 70 69
s 1
f 66 67 71
s 1
f 67 68 72
s 1
f 65 69 72
s 1
f 69 70 74
s 1
f 71 75 74
s 1
f 71 72 76
s 1
f 69 73 76
s 1
f 74 78 77
s 1
f 74 75 79
s 1
f 75 76 80
s 1
f 73 77 80
s 1
f 78 82 81
s 1
f 78 79 83
s 1
f 80 84 83
s 1
f 80 77 81
s 1
f 82 86 85
s 1
f 83 87 86
s 1
f 83 84 88
s 1
f 84 81 85
s 1
f 86 90 89
s 1
f 87 91 90
s 1
f 87 88 92
s 1
f 85 89 92
s 1
f 90 94 93
s 1
f 90 91 95
s 1
f 91 92 96
s 1
f 89 93 96
s 1
f 94 98 97
s 1
f 95 99 98
s 1
f 96 100 99
s 1
f 93 97 100
s 1
f 97 98 102
s 1
f 99 103 102
s 1
f 99 100 104
s 1
f 97 101 104
s 1
f 102 106 105
s 1
f 103 107 106
s 1
f 104 108 107
s 1
f 101 105 108
s 1
f 106 110 109
s 1
f 107 111 110
s 1
f 107 108 112
s 1
f 105 109 112
s 1
f 109 110 114
s 1
f 111 115 114
s 1
f 112 116 115
s 1
f 112 109 113
s 1
f 120 124 123
s 1
f 121 125 124
s 1
f 122 126 125
s 1
f 119 123 126
s 1
f 130 134 133
s 1
f 130 131 135
s 1
f 131 132 136
s 1
f 129 133 136
s 1
f 133 134 138
s 1
f 135 139 138
s 1
f 135 136 140
s 1
f 133 137 140
s 1
f 138 142 141
s 1
f 138 139 143
s 1
f 139 140 144
s 1
f 137 141 144
s 1
f 142 146 145
s 1
f 142 143 147
s 1
f 144 148 147
s 1
f 144 141 145
s 1
f 146 150 149
s 1
f 147 151 150
s 1
f 147 148 152
s 1
f 148 145 149
s 1
f 150 154 153
s 1
f 151 155 154
s 1
f 151 152 156
s 1
f 149 153 156
s 1
f 154 158 157
s 1
f 154 155 159
s 1
f 155 156 160
s 1
f 153 157 160
s 1
f 158 162 161
s 1
f 159 163 162
s 1
f 160 164 163
s 1
f 157 161 164
s 1
f 161 162 166
s 1
f 163 167 166
s 1
f 163 164 168
s 1
f 161 165 168
s 1
f 166 170 169
s 1
f 167 171 170
s 1
f 168 172 171
s 1
f 165 169 172
s 1
f 170 174 173
s 1
f 171 175 174
s 1
f 171 172 176
s 1
f 169 173 176
s 1
f 173 174 178
s 1
f 175 179 178
s 1
f 176 180 179
s 1
f 176 173 177
s 1
f 184 188 187
s 1
f 185 189 188
s 1
f 186 190 189
s 1
f 183 187 190
s 1
f 194 198 197
s 1
f 194 195 199
s 1
f 195 196 200
s 1
f 193 197 200
s 1
f 197 198 202
s 1
f 199 203 202
s 1
f 199 200 204
s 1
f 197 201 204
s 1
f 202 206 205
s 1
f 202 203 207
s 1
f 203 204 208
s 1
f 201 205 208
s 1
f 206 210 209
s 1
f 206 207 211
s 1
f 208 212 211
s 1
f 208 205 209
s 1
f 210 214 213
s 1
f 211 215 214
s 1
f 211 212 216
s 1
f 212 209 213
s 1
f 214 218 217
s 1
f 215 219 218
s 1
f 215 216 220
s 1
f 213 217 220
s 1
f 218 222 221
s 1
f 218 219 223
s 1
f 219 220 224
s 1
f 217 221 224
s 1
f 222 226 225
s 1
f 223 227 226
s 1
f 224 228 227
s 1
f 221 225 228
s 1
f 225 226 230
s 1
f 227 231 230
s 1
f 227 228 232
s 1
f 225 229 232
s 1
f 230 234 233
s 1
f 231 235 234
s 1
f 232 236 235
s 1
f 229 233 236
s 1
f 234 238 237
s 1
f 235 239 238
s 1
f 235 236 240
s 1
f 233 237 240
s 1
f 237 238 242
s 1
f 239 243 242
s 1
f 240 244 243
s 1
f 240 237 241
s 1
f 248 252 251
s 1
f 249 253 252
s 1
f 250 254 253
s 1
f 247 251 254
