# beta_pocket Funnel_Skin.obj: Roblox cue frame, recentred on its bounding box
v -0.00000 1.80000 -0.30000
v -0.11481 1.80000 -0.27716
v -0.21213 1.80000 -0.21213
v -0.27716 1.80000 -0.11480
v -0.30000 1.80000 0.00000
v -0.27716 1.80000 0.11481
v -0.21213 1.80000 0.21213
v -0.11481 1.80000 0.27716
v -0.00000 1.80000 0.30000
v 0.11481 1.80000 0.27716
v 0.21213 1.80000 0.21213
v 0.27716 1.80000 0.11481
v 0.30000 1.80000 0.00000
v 0.27716 1.80000 -0.11480
v 0.21213 1.80000 -0.21213
v 0.11481 1.80000 -0.27716
v -0.00000 1.52308 -0.31482
v -0.12048 1.52308 -0.29086
v -0.22261 1.52308 -0.22261
v -0.29086 1.52308 -0.12048
v -0.31482 1.52308 0.00000
v -0.29086 1.52308 0.12048
v -0.22261 1.52308 0.22261
v -0.12048 1.52308 0.29086
v -0.00000 1.52308 0.31483
v 0.12048 1.52308 0.29086
v 0.22261 1.52308 0.22261
v 0.29086 1.52308 0.12048
v 0.31482 1.52308 0.00000
v 0.29086 1.52308 -0.12048
v 0.22261 1.52308 -0.22261
v 0.12048 1.52308 -0.29086
v -0.00000 1.24615 -0.35162
v -0.13456 1.24615 -0.32486
v -0.24864 1.24615 -0.24864
v -0.32486 1.24615 -0.13456
v -0.35162 1.24615 0.00000
v -0.32486 1.24615 0.13456
v -0.24864 1.24615 0.24864
v -0.13456 1.24615 0.32486
v -0.00000 1.24615 0.35162
v 0.13456 1.24615 0.32486
v 0.24864 1.24615 0.24864
v 0.32486 1.24615 0.13456
v 0.35162 1.24615 0.00000
v 0.32486 1.24615 -0.13456
v 0.24864 1.24615 -0.24864
v 0.13456 1.24615 -0.32486
v -0.00000 0.96923 -0.40711
v -0.15579 0.96923 -0.37612
v -0.28787 0.96923 -0.28787
v -0.37612 0.96923 -0.15579
v -0.40711 0.96923 0.00000
v -0.37612 0.96923 0.15579
v -0.28787 0.96923 0.28787
v -0.15579 0.96923 0.37612
v -0.00000 0.96923 0.40711
v 0.15579 0.96923 0.37612
v 0.28787 0.96923 0.28787
v 0.37612 0.96923 0.15579
v 0.40711 0.96923 0.00000
v 0.37612 0.96923 -0.15579
v 0.28787 0.96923 -0.28787
v 0.15579 0.96923 -0.37612
v -0.00000 0.69231 -0.47976
v -0.18360 0.69231 -0.44324
v -0.33924 0.69231 -0.33924
v -0.44324 0.69231 -0.18360
v -0.47976 0.69231 0.00000
v -0.44324 0.69231 0.18360
v -0.33924 0.69231 0.33924
v -0.18360 0.69231 0.44324
v -0.00000 0.69231 0.47976
v 0.18360 0.69231 0.44324
v 0.33924 0.69231 0.33924
v 0.44324 0.69231 0.18360
v 0.47976 0.69231 0.00000
v 0.44324 0.69231 -0.18360
v 0.33924 0.69231 -0.33924
v 0.18360 0.69231 -0.44324
v -0.00000 0.41538 -0.56862
v -0.21760 0.41538 -0.52534
v -0.40208 0.41538 -0.40208
v -0.52534 0.41538 -0.21760
v -0.56862 0.41538 0.00000
v -0.52534 0.41538 0.21760
v -0.40208 0.41538 0.40208
v -0.21760 0.41538 0.52534
v -0.00000 0.41538 0.56862
v 0.21760 0.41538 0.52534
v 0.40208 0.41538 0.40208
v 0.52534 0.41538 0.21760
v 0.56862 0.41538 0.00000
v 0.52534 0.41538 -0.21760
v 0.40208 0.41538 -0.40208
v 0.21760 0.41538 -0.52534
v -0.00000 0.13846 -0.67296
v -0.25753 0.13846 -0.62174
v -0.47586 0.13846 -0.47586
v -0.62174 0.13846 -0.25753
v -0.67296 0.13846 0.00000
v -0.62174 0.13846 0.25753
v -0.47586 0.13846 0.47586
v -0.25753 0.13846 0.62174
v -0.00000 0.13846 0.67296
v 0.25753 0.13846 0.62174
v 0.47586 0.13846 0.47586
v 0.62174 0.13846 0.25753
v 0.67296 0.13846 0.00000
v 0.62174 0.13846 -0.25753
v 0.47586 0.13846 -0.47586
v 0.25753 0.13846 -0.62174
v -0.00000 -0.13846 -0.79223
v -0.30317 -0.13846 -0.73193
v -0.56019 -0.13846 -0.56019
v -0.73193 -0.13846 -0.30317
v -0.79223 -0.13846 0.00000
v -0.73193 -0.13846 0.30317
v -0.56019 -0.13846 0.56019
v -0.30317 -0.13846 0.73193
v -0.00000 -0.13846 0.79223
v 0.30317 -0.13846 0.73193
v 0.56019 -0.13846 0.56019
v 0.73193 -0.13846 0.30317
v 0.79223 -0.13846 0.00000
v 0.73193 -0.13846 -0.30317
v 0.56019 -0.13846 -0.56019
v 0.30317 -0.13846 -0.73193
v -0.00000 -0.41538 -0.92597
v -0.35435 -0.41538 -0.85549
v -0.65476 -0.41538 -0.65476
v -0.85549 -0.41538 -0.35435
v -0.92597 -0.41538 0.00000
v -0.85549 -0.41538 0.35435
v -0.65476 -0.41538 0.65476
v -0.35435 -0.41538 0.85549
v -0.00000 -0.41538 0.92597
v 0.35435 -0.41538 0.85549
v 0.65476 -0.41538 0.65476
v 0.85549 -0.41538 0.35435
v 0.92597 -0.41538 0.00000
v 0.85549 -0.41538 -0.35435
v 0.65476 -0.41538 -0.65476
v 0.35435 -0.41538 -0.85549
v -0.00000 -0.69231 -1.07380
v -0.41093 -0.69231 -0.99206
v -0.75929 -0.69231 -0.75929
v -0.99206 -0.69231 -0.41093
v -1.07380 -0.69231 0.00000
v -0.99206 -0.69231 0.41093
v -0.75929 -0.69231 0.75929
v -0.41093 -0.69231 0.99206
v -0.00000 -0.69231 1.07380
v 0.41093 -0.69231 0.99206
v 0.75929 -0.69231 0.75929
v 0.99206 -0.69231 0.41093
v 1.07380 -0.69231 0.00000
v 0.99206 -0.69231 -0.41093
v 0.75929 -0.69231 -0.75929
v 0.41093 -0.69231 -0.99206
v -0.00000 -0.96923 -1.23539
v -0.47276 -0.96923 -1.14135
v -0.87355 -0.96923 -0.87355
v -1.14135 -0.96923 -0.47276
v -1.23539 -0.96923 -0.00000
v -1.14135 -0.96923 0.47276
v -0.87355 -0.96923 0.87355
v -0.47276 -0.96923 1.14135
v -0.00000 -0.96923 1.23539
v 0.47276 -0.96923 1.14135
v 0.87355 -0.96923 0.87355
v 1.14135 -0.96923 0.47276
v 1.23539 -0.96923 -0.00000
v 1.14135 -0.96923 -0.47276
v 0.87355 -0.96923 -0.87355
v 0.47276 -0.96923 -1.14135
v -0.00000 -1.24615 -1.41045
v -0.53976 -1.24615 -1.30309
v -0.99734 -1.24615 -0.99734
v -1.30309 -1.24615 -0.53976
v -1.41045 -1.24615 -0.00000
v -1.30309 -1.24615 0.53976
v -0.99734 -1.24615 0.99734
v -0.53976 -1.24615 1.30309
v -0.00000 -1.24615 1.41045
v 0.53976 -1.24615 1.30309
v 0.99734 -1.24615 0.99734
v 1.30309 -1.24615 0.53976
v 1.41045 -1.24615 -0.00000
v 1.30309 -1.24615 -0.53976
v 0.99734 -1.24615 -0.99734
v 0.53976 -1.24615 -1.30309
v -0.00000 -1.52308 -1.59873
v -0.61181 -1.52308 -1.47704
v -1.13047 -1.52308 -1.13047
v -1.47704 -1.52308 -0.61181
v -1.59873 -1.52308 -0.00000
v -1.47704 -1.52308 0.61181
v -1.13047 -1.52308 1.13047
v -0.61181 -1.52308 1.47704
v -0.00000 -1.52308 1.59873
v 0.61181 -1.52308 1.47704
v 1.13047 -1.52308 1.13047
v 1.47704 -1.52308 0.61181
v 1.59873 -1.52308 -0.00000
v 1.47704 -1.52308 -0.61181
v 1.13047 -1.52308 -1.13047
v 0.61181 -1.52308 -1.47704
v -0.00000 -1.80000 -1.80000
v -0.68883 -1.80000 -1.66298
v -1.27279 -1.80000 -1.27279
v -1.66298 -1.80000 -0.68883
v -1.80000 -1.80000 -0.00000
v -1.66298 -1.80000 0.68883
v -1.27279 -1.80000 1.27279
v -0.68883 -1.80000 1.66298
v -0.00000 -1.80000 1.80000
v 0.68883 -1.80000 1.66298
v 1.27279 -1.80000 1.27279
v 1.66298 -1.80000 0.68883
v 1.80000 -1.80000 -0.00000
v 1.66298 -1.80000 -0.68883
v 1.27279 -1.80000 -1.27279
v 0.68883 -1.80000 -1.66298
f 2 17 1
f 3 18 2
f 4 19 3
f 4 21 20
f 6 21 5
f 7 22 6
f 8 23 7
f 9 24 8
f 10 25 9
f 11 26 10
f 12 27 11
f 13 28 12
f 14 29 13
f 15 30 14
f 15 32 31
f 1 32 16
f 18 33 17
f 18 35 34
f 19 36 35
f 21 36 20
f 21 38 37
f 23 38 22
f 24 39 23
f 25 40 24
f 26 41 25
f 27 42 26
f 28 43 27
f 29 44 28
f 30 45 29
f 31 46 30
f 32 47 31
f 17 48 32
f 34 49 33
f 34 51 50
f 36 51 35
f 37 52 36
f 37 54 53
f 39 54 38
f 40 55 39
f 41 56 40
f 42 57 41
f 42 59 58
f 44 59 43
f 44 61 60
f 46 61 45
f 47 62 46
f 48 63 47
f 33 64 48
f 50 65 49
f 51 66 50
f 51 68 67
f 52 69 68
f 54 69 53
f 54 71 70
f 56 71 55
f 56 73 72
f 57 74 73
f 59 74 58
f 60 75 59
f 61 76 60
f 62 77 61
f 63 78 62
f 64 79 63
f 49 80 64
f 65 82 81
f 67 82 66
f 67 84 83
f 69 84 68
f 69 86 85
f 71 86 70
f 72 87 71
f 73 88 72
f 73 90 89
f 75 90 74
f 75 92 91
f 77 92 76
f 78 93 77
f 79 94 78
f 79 96 95
f 65 96 80
f 82 97 81
f 83 98 82
f 84 99 83
f 85 100 84
f 86 101 85
f 87 102 86
f 88 103 87
f 89 104 88
f 89 106 105
f 91 106 90
f 91 108 107
f 93 108 92
f 94 109 93
f 95 110 94
f 96 111 95
f 81 112 96
f 98 113 97
f 99 114 98
f 100 115 99
f 101 116 100
f 101 118 117
f 103 118 102
f 104 119 103
f 105 120 104
f 106 121 105
f 107 122 106
f 108 123 107
f 109 124 108
f 110 125 109
f 111 126 110
f 112 127 111
f 97 128 112
f 114 129 113
f 114 131 130
f 116 131 115
f 117 132 116
f 118 133 117
f 118 135 134
f 119 136 135
f 120 137 136
f 122 137 121
f 123 138 122
f 124 139 123
f 125 140 124
f 126 141 125
f 127 142 126
f 128 143 127
f 113 144 128
f 129 146 145
f 131 146 130
f 131 148 147
f 132 149 148
f 134 149 133
f 134 151 150
f 136 151 135
f 137 152 136
f 138 153 137
f 138 155 154
f 140 155 139
f 141 156 140
f 142 157 141
f 143 158 142
f 144 159 143
f 129 160 144
f 145 162 161
f 147 162 146
f 148 163 147
f 149 164 148
f 149 166 165
f 150 167 166
f 152 167 151
f 153 168 152
f 154 169 153
f 155 170 154
f 156 171 155
f 157 172 156
f 157 174 173
f 159 174 158
f 159 176 175
f 145 176 160
f 162 177 161
f 163 178 162
f 164 179 163
f 165 180 164
f 166 181 165
f 167 182 166
f 167 184 183
f 169 184 168
f 170 185 169
f 171 186 170
f 172 187 171
f 173 188 172
f 174 189 173
f 175 190 174
f 175 192 191
f 161 192 176
f 178 193 177
f 179 194 178
f 180 195 179
f 181 196 180
f 181 198 197
f 183 198 182
f 184 199 183
f 185 200 184
f 185 202 201
f 187 202 186
f 188 203 187
f 189 204 188
f 190 205 189
f 191 206 190
f 192 207 191
f 177 208 192
f 194 209 193
f 195 210 194
f 196 211 195
f 197 212 196
f 198 213 197
f 199 214 198
f 200 215 199
f 201 216 200
f 202 217 201
f 203 218 202
f 204 219 203
f 205 220 204
f 206 221 205
f 207 222 206
f 208 223 207
f 193 224 208
f 2 18 17
f 3 19 18
f 4 20 19
f 4 5 21
f 6 22 21
f 7 23 22
f 8 24 23
f 9 25 24
f 10 26 25
f 11 27 26
f 12 28 27
f 13 29 28
f 14 30 29
f 15 31 30
f 15 16 32
f 1 17 32
f 18 34 33
f 18 19 35
f 19 20 36
f 21 37 36
f 21 22 38
f 23 39 38
f 24 40 39
f 25 41 40
f 26 42 41
f 27 43 42
f 28 44 43
f 29 45 44
f 30 46 45
f 31 47 46
f 32 48 47
f 17 33 48
f 34 50 49
f 34 35 51
f 36 52 51
f 37 53 52
f 37 38 54
f 39 55 54
f 40 56 55
f 41 57 56
f 42 58 57
f 42 43 59
f 44 60 59
f 44 45 61
f 46 62 61
f 47 63 62
f 48 64 63
f 33 49 64
f 50 66 65
f 51 67 66
f 51 52 68
f 52 53 69
f 54 70 69
f 54 55 71
f 56 72 71
f 56 57 73
f 57 58 74
f 59 75 74
f 60 76 75
f 61 77 76
f 62 78 77
f 63 79 78
f 64 80 79
f 49 65 80
f 65 66 82
f 67 83 82
f 67 68 84
f 69 85 84
f 69 70 86
f 71 87 86
f 72 88 87
f 73 89 88
f 73 74 90
f 75 91 90
f 75 76 92
f 77 93 92
f 78 94 93
f 79 95 94
f 79 80 96
f 65 81 96
f 82 98 97
f 83 99 98
f 84 100 99
f 85 101 100
f 86 102 101
f 87 103 102
f 88 104 103
f 89 105 104
f 89 90 106
f 91 107 106
f 91 92 108
f 93 109 108
f 94 110 109
f 95 111 110
f 96 112 111
f 81 97 112
f 98 114 113
f 99 115 114
f 100 116 115
f 101 117 116
f 101 102 118
f 103 119 118
f 104 120 119
f 105 121 120
f 106 122 121
f 107 123 122
f 108 124 123
f 109 125 124
f 110 126 125
f 111 127 126
f 112 128 127
f 97 113 128
f 114 130 129
f 114 115 131
f 116 132 131
f 117 133 132
f 118 134 133
f 118 119 135
f 119 120 136
f 120 121 137
f 122 138 137
f 123 139 138
f 124 140 139
f 125 141 140
f 126 142 141
f 127 143 142
f 128 144 143
f 113 129 144
f 129 130 146
f 131 147 146
f 131 132 148
f 132 133 149
f 134 150 149
f 134 135 151
f 136 152 151
f 137 153 152
f 138 154 153
f 138 139 155
f 140 156 155
f 141 157 156
f 142 158 157
f 143 159 158
f 144 160 159
f 129 145 160
f 145 146 162
f 147 163 162
f 148 164 163
f 149 165 164
f 149 150 166
f 150 151 167
f 152 168 167
f 153 169 168
f 154 170 169
f 155 171 170
f 156 172 171
f 157 173 172
f 157 158 174
f 159 175 174
f 159 160 176
f 145 161 176
f 162 178 177
f 163 179 178
f 164 180 179
f 165 181 180
f 166 182 181
f 167 183 182
f 167 168 184
f 169 185 184
f 170 186 185
f 171 187 186
f 172 188 187
f 173 189 188
f 174 190 189
f 175 191 190
f 175 176 192
f 161 177 192
f 178 194 193
f 179 195 194
f 180 196 195
f 181 197 196
f 181 182 198
f 183 199 198
f 184 200 199
f 185 201 200
f 185 186 202
f 187 203 202
f 188 204 203
f 189 205 204
f 190 206 205
f 191 207 206
f 192 208 207
f 177 193 208
f 194 210 209
f 195 211 210
f 196 212 211
f 197 213 212
f 198 214 213
f 199 215 214
f 200 216 215
f 201 217 216
f 202 218 217
f 203 219 218
f 204 220 219
f 205 221 220
f 206 222 221
f 207 223 222
f 208 224 223
f 193 209 224
