# beta_pocket Funnel_Ring.obj: Roblox cue frame, recentred on its bounding box
v -0.50007 -0.90000 0.00000
v -0.47957 -0.85050 0.00000
v -0.43007 -0.83000 0.00000
v -0.38057 -0.85050 0.00000
v -0.36007 -0.90000 0.00000
v -0.38057 -0.94950 0.00000
v -0.43007 -0.97000 0.00000
v -0.47957 -0.94950 0.00000
v -0.49391 -0.90000 0.07823
v -0.47366 -0.85050 0.07502
v -0.42478 -0.83000 0.06728
v -0.37589 -0.85050 0.05953
v -0.35564 -0.90000 0.05633
v -0.37589 -0.94950 0.05953
v -0.42478 -0.97000 0.06728
v -0.47366 -0.94950 0.07502
v -0.47560 -0.90000 0.15453
v -0.45610 -0.85050 0.14819
v -0.40902 -0.83000 0.13290
v -0.36195 -0.85050 0.11760
v -0.34245 -0.90000 0.11127
v -0.36195 -0.94950 0.11760
v -0.40902 -0.97000 0.13290
v -0.45610 -0.94950 0.14819
v -0.44557 -0.90000 0.22703
v -0.42730 -0.85050 0.21772
v -0.38320 -0.83000 0.19525
v -0.33909 -0.85050 0.17278
v -0.32083 -0.90000 0.16347
v -0.33909 -0.94950 0.17278
v -0.38320 -0.97000 0.19525
v -0.42730 -0.94950 0.21772
v -0.40457 -0.90000 0.29393
v -0.38798 -0.85050 0.28188
v -0.34793 -0.83000 0.25279
v -0.30789 -0.85050 0.22370
v -0.29130 -0.90000 0.21164
v -0.30789 -0.94950 0.22370
v -0.34793 -0.97000 0.25279
v -0.38798 -0.94950 0.28188
v -0.35360 -0.90000 0.35360
v -0.33911 -0.85050 0.33911
v -0.30411 -0.83000 0.30411
v -0.26911 -0.85050 0.26911
v -0.25461 -0.90000 0.25461
v -0.26911 -0.94950 0.26911
v -0.30411 -0.97000 0.30411
v -0.33911 -0.94950 0.33911
v -0.29393 -0.90000 0.40457
v -0.28188 -0.85050 0.38798
v -0.25279 -0.83000 0.34793
v -0.22370 -0.85050 0.30789
v -0.21164 -0.90000 0.29130
v -0.22370 -0.94950 0.30789
v -0.25279 -0.97000 0.34793
v -0.28188 -0.94950 0.38798
v -0.22703 -0.90000 0.44557
v -0.21772 -0.85050 0.42730
v -0.19525 -0.83000 0.38320
v -0.17278 -0.85050 0.33909
v -0.16347 -0.90000 0.32083
v -0.17278 -0.94950 0.33909
v -0.19525 -0.97000 0.38320
v -0.21772 -0.94950 0.42730
v -0.15453 -0.90000 0.47560
v -0.14819 -0.85050 0.45610
v -0.13290 -0.83000 0.40902
v -0.11760 -0.85050 0.36195
v -0.11127 -0.90000 0.34245
v -0.11760 -0.94950 0.36195
v -0.13290 -0.97000 0.40902
v -0.14819 -0.94950 0.45610
v -0.07823 -0.90000 0.49391
v -0.07502 -0.85050 0.47366
v -0.06728 -0.83000 0.42478
v -0.05953 -0.85050 0.37589
v -0.05633 -0.90000 0.35564
v -0.05953 -0.94950 0.37589
v -0.06728 -0.97000 0.42478
v -0.07502 -0.94950 0.47366
v -0.00000 -0.90000 0.50007
v -0.00000 -0.85050 0.47957
v -0.00000 -0.83000 0.43007
v -0.00000 -0.85050 0.38057
v -0.00000 -0.90000 0.36007
v -0.00000 -0.94950 0.38057
v -0.00000 -0.97000 0.43007
v -0.00000 -0.94950 0.47957
v 0.07823 -0.90000 0.49391
v 0.07502 -0.85050 0.47366
v 0.06728 -0.83000 0.42478
v 0.05953 -0.85050 0.37589
v 0.05633 -0.90000 0.35564
v 0.05953 -0.94950 0.37589
v 0.06728 -0.97000 0.42478
v 0.07502 -0.94950 0.47366
v 0.15453 -0.90000 0.47560
v 0.14819 -0.85050 0.45610
v 0.13290 -0.83000 0.40902
v 0.11760 -0.85050 0.36195
v 0.11127 -0.90000 0.34245
v 0.11760 -0.94950 0.36195
v 0.13290 -0.97000 0.40902
v 0.14819 -0.94950 0.45610
v 0.22703 -0.90000 0.44557
v 0.21772 -0.85050 0.42730
v 0.19525 -0.83000 0.38320
v 0.17278 -0.85050 0.33909
v 0.16347 -0.90000 0.32083
v 0.17278 -0.94950 0.33909
v 0.19525 -0.97000 0.38320
v 0.21772 -0.94950 0.42730
v 0.29393 -0.90000 0.40457
v 0.28188 -0.85050 0.38798
v 0.25279 -0.83000 0.34793
v 0.22370 -0.85050 0.30789
v 0.21164 -0.90000 0.29130
v 0.22370 -0.94950 0.30789
v 0.25279 -0.97000 0.34793
v 0.28188 -0.94950 0.38798
v 0.35360 -0.90000 0.35360
v 0.33911 -0.85050 0.33911
v 0.30411 -0.83000 0.30411
v 0.26911 -0.85050 0.26911
v 0.25461 -0.90000 0.25461
v 0.26911 -0.94950 0.26911
v 0.30411 -0.97000 0.30411
v 0.33911 -0.94950 0.33911
v 0.40457 -0.90000 0.29393
v 0.38798 -0.85050 0.28188
v 0.34793 -0.83000 0.25279
v 0.30789 -0.85050 0.22370
v 0.29130 -0.90000 0.21164
v 0.30789 -0.94950 0.22370
v 0.34793 -0.97000 0.25279
v 0.38798 -0.94950 0.28188
v 0.44557 -0.90000 0.22703
v 0.42730 -0.85050 0.21772
v 0.38320 -0.83000 0.19525
v 0.33909 -0.85050 0.17278
v 0.32083 -0.90000 0.16347
v 0.33909 -0.94950 0.17278
v 0.38320 -0.97000 0.19525
v 0.42730 -0.94950 0.21772
v 0.47560 -0.90000 0.15453
v 0.45610 -0.85050 0.14819
v 0.40902 -0.83000 0.13290
v 0.36195 -0.85050 0.11760
v 0.34245 -0.90000 0.11127
v 0.36195 -0.94950 0.11760
v 0.40902 -0.97000 0.13290
v 0.45610 -0.94950 0.14819
v 0.49391 -0.90000 0.07823
v 0.47366 -0.85050 0.07502
v 0.42478 -0.83000 0.06728
v 0.37589 -0.85050 0.05953
v 0.35564 -0.90000 0.05633
v 0.37589 -0.94950 0.05953
v 0.42478 -0.97000 0.06728
v 0.47366 -0.94950 0.07502
v 0.50007 -0.90000 0.00000
v 0.47957 -0.85050 0.00000
v 0.43007 -0.83000 0.00000
v 0.38057 -0.85050 0.00000
v 0.36007 -0.90000 0.00000
v 0.38057 -0.94950 0.00000
v 0.43007 -0.97000 0.00000
v 0.47957 -0.94950 0.00000
v 0.49391 -0.90000 -0.07823
v 0.47366 -0.85050 -0.07502
v 0.42478 -0.83000 -0.06728
v 0.37589 -0.85050 -0.05953
v 0.35564 -0.90000 -0.05633
v 0.37589 -0.94950 -0.05953
v 0.42478 -0.97000 -0.06728
v 0.47366 -0.94950 -0.07502
v 0.47560 -0.90000 -0.15453
v 0.45610 -0.85050 -0.14819
v 0.40902 -0.83000 -0.13290
v 0.36195 -0.85050 -0.11760
v 0.34245 -0.90000 -0.11127
v 0.36195 -0.94950 -0.11760
v 0.40902 -0.97000 -0.13290
v 0.45610 -0.94950 -0.14819
v 0.44557 -0.90000 -0.22703
v 0.42730 -0.85050 -0.21772
v 0.38320 -0.83000 -0.19525
v 0.33909 -0.85050 -0.17278
v 0.32083 -0.90000 -0.16347
v 0.33909 -0.94950 -0.17278
v 0.38320 -0.97000 -0.19525
v 0.42730 -0.94950 -0.21772
v 0.40457 -0.90000 -0.29393
v 0.38798 -0.85050 -0.28188
v 0.34793 -0.83000 -0.25279
v 0.30789 -0.85050 -0.22370
v 0.29130 -0.90000 -0.21164
v 0.30789 -0.94950 -0.22370
v 0.34793 -0.97000 -0.25279
v 0.38798 -0.94950 -0.28188
v 0.35360 -0.90000 -0.35360
v 0.33911 -0.85050 -0.33911
v 0.30411 -0.83000 -0.30411
v 0.26911 -0.85050 -0.26911
v 0.25461 -0.90000 -0.25461
v 0.26911 -0.94950 -0.26911
v 0.30411 -0.97000 -0.30411
v 0.33911 -0.94950 -0.33911
v 0.29393 -0.90000 -0.40457
v 0.28188 -0.85050 -0.38798
v 0.25279 -0.83000 -0.34793
v 0.22370 -0.85050 -0.30789
v 0.21164 -0.90000 -0.29130
v 0.22370 -0.94950 -0.30789
v 0.25279 -0.97000 -0.34793
v 0.28188 -0.94950 -0.38798
v 0.22703 -0.90000 -0.44557
v 0.21772 -0.85050 -0.42730
v 0.19525 -0.83000 -0.38320
v 0.17278 -0.85050 -0.33909
v 0.16347 -0.90000 -0.32083
v 0.17278 -0.94950 -0.33909
v 0.19525 -0.97000 -0.38320
v 0.21772 -0.94950 -0.42730
v 0.15453 -0.90000 -0.47560
v 0.14819 -0.85050 -0.45610
v 0.13290 -0.83000 -0.40902
v 0.11760 -0.85050 -0.36195
v 0.11127 -0.90000 -0.34245
v 0.11760 -0.94950 -0.36195
v 0.13290 -0.97000 -0.40902
v 0.14819 -0.94950 -0.45610
v 0.07823 -0.90000 -0.49391
v 0.07502 -0.85050 -0.47366
v 0.06728 -0.83000 -0.42478
v 0.05953 -0.85050 -0.37589
v 0.05633 -0.90000 -0.35564
v 0.05953 -0.94950 -0.37589
v 0.06728 -0.97000 -0.42478
v 0.07502 -0.94950 -0.47366
v 0.00000 -0.90000 -0.50007
v 0.00000 -0.85050 -0.47957
v 0.00000 -0.83000 -0.43007
v 0.00000 -0.85050 -0.38057
v 0.00000 -0.90000 -0.36007
v 0.00000 -0.94950 -0.38057
v 0.00000 -0.97000 -0.43007
v 0.00000 -0.94950 -0.47957
v -0.07823 -0.90000 -0.49391
v -0.07502 -0.85050 -0.47366
v -0.06728 -0.83000 -0.42478
v -0.05953 -0.85050 -0.37589
v -0.05633 -0.90000 -0.35564
v -0.05953 -0.94950 -0.37589
v -0.06728 -0.97000 -0.42478
v -0.07502 -0.94950 -0.47366
v -0.15453 -0.90000 -0.47560
v -0.14819 -0.85050 -0.45610
v -0.13290 -0.83000 -0.40902
v -0.11760 -0.85050 -0.36195
v -0.11127 -0.90000 -0.34245
v -0.11760 -0.94950 -0.36195
v -0.13290 -0.97000 -0.40902
v -0.14819 -0.94950 -0.45610
v -0.22703 -0.90000 -0.44557
v -0.21772 -0.85050 -0.42730
v -0.19525 -0.83000 -0.38320
v -0.17278 -0.85050 -0.33909
v -0.16347 -0.90000 -0.32083
v -0.17278 -0.94950 -0.33909
v -0.19525 -0.97000 -0.38320
v -0.21772 -0.94950 -0.42730
v -0.29393 -0.90000 -0.40457
v -0.28188 -0.85050 -0.38798
v -0.25279 -0.83000 -0.34793
v -0.22370 -0.85050 -0.30789
v -0.21164 -0.90000 -0.29130
v -0.22370 -0.94950 -0.30789
v -0.25279 -0.97000 -0.34793
v -0.28188 -0.94950 -0.38798
v -0.35360 -0.90000 -0.35360
v -0.33911 -0.85050 -0.33911
v -0.30411 -0.83000 -0.30411
v -0.26911 -0.85050 -0.26911
v -0.25461 -0.90000 -0.25461
v -0.26911 -0.94950 -0.26911
v -0.30411 -0.97000 -0.30411
v -0.33911 -0.94950 -0.33911
v -0.40457 -0.90000 -0.29393
v -0.38798 -0.85050 -0.28188
v -0.34793 -0.83000 -0.25279
v -0.30789 -0.85050 -0.22370
v -0.29130 -0.90000 -0.21164
v -0.30789 -0.94950 -0.22370
v -0.34793 -0.97000 -0.25279
v -0.38798 -0.94950 -0.28188
v -0.44557 -0.90000 -0.22703
v -0.42730 -0.85050 -0.21772
v -0.38320 -0.83000 -0.19525
v -0.33909 -0.85050 -0.17278
v -0.32083 -0.90000 -0.16347
v -0.33909 -0.94950 -0.17278
v -0.38320 -0.97000 -0.19525
v -0.42730 -0.94950 -0.21772
v -0.47560 -0.90000 -0.15453
v -0.45610 -0.85050 -0.14819
v -0.40902 -0.83000 -0.13290
v -0.36195 -0.85050 -0.11760
v -0.34245 -0.90000 -0.11127
v -0.36195 -0.94950 -0.11760
v -0.40902 -0.97000 -0.13290
v -0.45610 -0.94950 -0.14819
v -0.49391 -0.90000 -0.07823
v -0.47366 -0.85050 -0.07502
v -0.42478 -0.83000 -0.06728
v -0.37589 -0.85050 -0.05953
v -0.35564 -0.90000 -0.05633
v -0.37589 -0.94950 -0.05953
v -0.42478 -0.97000 -0.06728
v -0.47366 -0.94950 -0.07502
v -1.23502 0.90000 0.00000
v -1.21452 0.94950 0.00000
v -1.16502 0.97000 0.00000
v -1.11553 0.94950 0.00000
v -1.09502 0.90000 0.00000
v -1.11553 0.85050 0.00000
v -1.16502 0.83000 0.00000
v -1.21452 0.85050 0.00000
v -1.21982 0.90000 0.19320
v -1.19957 0.94950 0.18999
v -1.15068 0.97000 0.18225
v -1.10179 0.94950 0.17451
v -1.08154 0.90000 0.17130
v -1.10179 0.85050 0.17451
v -1.15068 0.83000 0.18225
v -1.19957 0.85050 0.18999
v -1.17458 0.90000 0.38164
v -1.15508 0.94950 0.37531
v -1.10800 0.97000 0.36001
v -1.06093 0.94950 0.34472
v -1.04143 0.90000 0.33838
v -1.06093 0.85050 0.34472
v -1.10800 0.83000 0.36001
v -1.15508 0.85050 0.37531
v -1.10041 0.90000 0.56069
v -1.08215 0.94950 0.55138
v -1.03804 0.97000 0.52891
v -0.99394 0.94950 0.50644
v -0.97567 0.90000 0.49713
v -0.99394 0.85050 0.50644
v -1.03804 0.83000 0.52891
v -1.08215 0.85050 0.55138
v -0.99916 0.90000 0.72593
v -0.98257 0.94950 0.71388
v -0.94252 0.97000 0.68478
v -0.90248 0.94950 0.65569
v -0.88589 0.90000 0.64364
v -0.90248 0.85050 0.65569
v -0.94252 0.83000 0.68478
v -0.98257 0.85050 0.71388
v -0.87329 0.90000 0.87329
v -0.85880 0.94950 0.85880
v -0.82380 0.97000 0.82380
v -0.78880 0.94950 0.78880
v -0.77430 0.90000 0.77430
v -0.78880 0.85050 0.78880
v -0.82380 0.83000 0.82380
v -0.85880 0.85050 0.85880
v -0.72593 0.90000 0.99916
v -0.71388 0.94950 0.98257
v -0.68478 0.97000 0.94252
v -0.65569 0.94950 0.90248
v -0.64364 0.90000 0.88589
v -0.65569 0.85050 0.90248
v -0.68478 0.83000 0.94252
v -0.71388 0.85050 0.98257
v -0.56069 0.90000 1.10041
v -0.55138 0.94950 1.08215
v -0.52891 0.97000 1.03804
v -0.50644 0.94950 0.99394
v -0.49713 0.90000 0.97567
v -0.50644 0.85050 0.99394
v -0.52891 0.83000 1.03804
v -0.55138 0.85050 1.08215
v -0.38164 0.90000 1.17458
v -0.37531 0.94950 1.15508
v -0.36001 0.97000 1.10800
v -0.34472 0.94950 1.06093
v -0.33838 0.90000 1.04143
v -0.34472 0.85050 1.06093
v -0.36001 0.83000 1.10800
v -0.37531 0.85050 1.15508
v -0.19320 0.90000 1.21982
v -0.18999 0.94950 1.19957
v -0.18225 0.97000 1.15068
v -0.17451 0.94950 1.10179
v -0.17130 0.90000 1.08154
v -0.17451 0.85050 1.10179
v -0.18225 0.83000 1.15068
v -0.18999 0.85050 1.19957
v -0.00000 0.90000 1.23502
v -0.00000 0.94950 1.21452
v -0.00000 0.97000 1.16502
v -0.00000 0.94950 1.11553
v -0.00000 0.90000 1.09502
v -0.00000 0.85050 1.11553
v -0.00000 0.83000 1.16502
v -0.00000 0.85050 1.21452
v 0.19320 0.90000 1.21982
v 0.18999 0.94950 1.19957
v 0.18225 0.97000 1.15068
v 0.17451 0.94950 1.10179
v 0.17130 0.90000 1.08154
v 0.17451 0.85050 1.10179
v 0.18225 0.83000 1.15068
v 0.18999 0.85050 1.19957
v 0.38164 0.90000 1.17458
v 0.37531 0.94950 1.15508
v 0.36001 0.97000 1.10800
v 0.34472 0.94950 1.06093
v 0.33838 0.90000 1.04143
v 0.34472 0.85050 1.06093
v 0.36001 0.83000 1.10800
v 0.37531 0.85050 1.15508
v 0.56069 0.90000 1.10041
v 0.55138 0.94950 1.08215
v 0.52891 0.97000 1.03804
v 0.50644 0.94950 0.99394
v 0.49713 0.90000 0.97567
v 0.50644 0.85050 0.99394
v 0.52891 0.83000 1.03804
v 0.55138 0.85050 1.08215
v 0.72593 0.90000 0.99916
v 0.71388 0.94950 0.98257
v 0.68478 0.97000 0.94252
v 0.65569 0.94950 0.90248
v 0.64364 0.90000 0.88589
v 0.65569 0.85050 0.90248
v 0.68478 0.83000 0.94252
v 0.71388 0.85050 0.98257
v 0.87329 0.90000 0.87329
v 0.85880 0.94950 0.85880
v 0.82380 0.97000 0.82380
v 0.78880 0.94950 0.78880
v 0.77430 0.90000 0.77430
v 0.78880 0.85050 0.78880
v 0.82380 0.83000 0.82380
v 0.85880 0.85050 0.85880
v 0.99916 0.90000 0.72593
v 0.98257 0.94950 0.71388
v 0.94252 0.97000 0.68478
v 0.90248 0.94950 0.65569
v 0.88589 0.90000 0.64364
v 0.90248 0.85050 0.65569
v 0.94252 0.83000 0.68478
v 0.98257 0.85050 0.71388
v 1.10041 0.90000 0.56069
v 1.08215 0.94950 0.55138
v 1.03804 0.97000 0.52891
v 0.99394 0.94950 0.50644
v 0.97567 0.90000 0.49713
v 0.99394 0.85050 0.50644
v 1.03804 0.83000 0.52891
v 1.08215 0.85050 0.55138
v 1.17458 0.90000 0.38164
v 1.15508 0.94950 0.37531
v 1.10800 0.97000 0.36001
v 1.06093 0.94950 0.34472
v 1.04143 0.90000 0.33838
v 1.06093 0.85050 0.34472
v 1.10800 0.83000 0.36001
v 1.15508 0.85050 0.37531
v 1.21982 0.90000 0.19320
v 1.19957 0.94950 0.18999
v 1.15068 0.97000 0.18225
v 1.10179 0.94950 0.17451
v 1.08154 0.90000 0.17130
v 1.10179 0.85050 0.17451
v 1.15068 0.83000 0.18225
v 1.19957 0.85050 0.18999
v 1.23502 0.90000 0.00000
v 1.21452 0.94950 0.00000
v 1.16502 0.97000 0.00000
v 1.11553 0.94950 0.00000
v 1.09502 0.90000 0.00000
v 1.11553 0.85050 0.00000
v 1.16502 0.83000 0.00000
v 1.21452 0.85050 0.00000
v 1.21982 0.90000 -0.19320
v 1.19957 0.94950 -0.18999
v 1.15068 0.97000 -0.18225
v 1.10179 0.94950 -0.17451
v 1.08154 0.90000 -0.17130
v 1.10179 0.85050 -0.17451
v 1.15068 0.83000 -0.18225
v 1.19957 0.85050 -0.18999
v 1.17458 0.90000 -0.38164
v 1.15508 0.94950 -0.37531
v 1.10800 0.97000 -0.36001
v 1.06093 0.94950 -0.34472
v 1.04143 0.90000 -0.33838
v 1.06093 0.85050 -0.34472
v 1.10800 0.83000 -0.36001
v 1.15508 0.85050 -0.37531
v 1.10041 0.90000 -0.56069
v 1.08215 0.94950 -0.55138
v 1.03804 0.97000 -0.52891
v 0.99394 0.94950 -0.50644
v 0.97567 0.90000 -0.49713
v 0.99394 0.85050 -0.50644
v 1.03804 0.83000 -0.52891
v 1.08215 0.85050 -0.55138
v 0.99916 0.90000 -0.72593
v 0.98257 0.94950 -0.71388
v 0.94252 0.97000 -0.68478
v 0.90248 0.94950 -0.65569
v 0.88589 0.90000 -0.64364
v 0.90248 0.85050 -0.65569
v 0.94252 0.83000 -0.68478
v 0.98257 0.85050 -0.71388
v 0.87329 0.90000 -0.87329
v 0.85880 0.94950 -0.85880
v 0.82380 0.97000 -0.82380
v 0.78880 0.94950 -0.78880
v 0.77430 0.90000 -0.77430
v 0.78880 0.85050 -0.78880
v 0.82380 0.83000 -0.82380
v 0.85880 0.85050 -0.85880
v 0.72593 0.90000 -0.99916
v 0.71388 0.94950 -0.98257
v 0.68478 0.97000 -0.94252
v 0.65569 0.94950 -0.90248
v 0.64364 0.90000 -0.88589
v 0.65569 0.85050 -0.90248
v 0.68478 0.83000 -0.94252
v 0.71388 0.85050 -0.98257
v 0.56069 0.90000 -1.10041
v 0.55138 0.94950 -1.08215
v 0.52891 0.97000 -1.03804
v 0.50644 0.94950 -0.99394
v 0.49713 0.90000 -0.97567
v 0.50644 0.85050 -0.99394
v 0.52891 0.83000 -1.03804
v 0.55138 0.85050 -1.08215
v 0.38164 0.90000 -1.17458
v 0.37531 0.94950 -1.15508
v 0.36001 0.97000 -1.10800
v 0.34472 0.94950 -1.06093
v 0.33838 0.90000 -1.04143
v 0.34472 0.85050 -1.06093
v 0.36001 0.83000 -1.10800
v 0.37531 0.85050 -1.15508
v 0.19320 0.90000 -1.21982
v 0.18999 0.94950 -1.19957
v 0.18225 0.97000 -1.15068
v 0.17451 0.94950 -1.10179
v 0.17130 0.90000 -1.08154
v 0.17451 0.85050 -1.10179
v 0.18225 0.83000 -1.15068
v 0.18999 0.85050 -1.19957
v 0.00000 0.90000 -1.23502
v 0.00000 0.94950 -1.21452
v 0.00000 0.97000 -1.16502
v 0.00000 0.94950 -1.11553
v 0.00000 0.90000 -1.09502
v 0.00000 0.85050 -1.11553
v 0.00000 0.83000 -1.16502
v 0.00000 0.85050 -1.21452
v -0.19320 0.90000 -1.21982
v -0.18999 0.94950 -1.19957
v -0.18225 0.97000 -1.15068
v -0.17451 0.94950 -1.10179
v -0.17130 0.90000 -1.08154
v -0.17451 0.85050 -1.10179
v -0.18225 0.83000 -1.15068
v -0.18999 0.85050 -1.19957
v -0.38164 0.90000 -1.17458
v -0.37531 0.94950 -1.15508
v -0.36001 0.97000 -1.10800
v -0.34472 0.94950 -1.06093
v -0.33838 0.90000 -1.04143
v -0.34472 0.85050 -1.06093
v -0.36001 0.83000 -1.10800
v -0.37531 0.85050 -1.15508
v -0.56069 0.90000 -1.10041
v -0.55138 0.94950 -1.08215
v -0.52891 0.97000 -1.03804
v -0.50644 0.94950 -0.99394
v -0.49713 0.90000 -0.97567
v -0.50644 0.85050 -0.99394
v -0.52891 0.83000 -1.03804
v -0.55138 0.85050 -1.08215
v -0.72593 0.90000 -0.99916
v -0.71388 0.94950 -0.98257
v -0.68478 0.97000 -0.94252
v -0.65569 0.94950 -0.90248
v -0.64364 0.90000 -0.88589
v -0.65569 0.85050 -0.90248
v -0.68478 0.83000 -0.94252
v -0.71388 0.85050 -0.98257
v -0.87329 0.90000 -0.87329
v -0.85880 0.94950 -0.85880
v -0.82380 0.97000 -0.82380
v -0.78880 0.94950 -0.78880
v -0.77430 0.90000 -0.77430
v -0.78880 0.85050 -0.78880
v -0.82380 0.83000 -0.82380
v -0.85880 0.85050 -0.85880
v -0.99916 0.90000 -0.72593
v -0.98257 0.94950 -0.71388
v -0.94252 0.97000 -0.68478
v -0.90248 0.94950 -0.65569
v -0.88589 0.90000 -0.64364
v -0.90248 0.85050 -0.65569
v -0.94252 0.83000 -0.68478
v -0.98257 0.85050 -0.71388
v -1.10041 0.90000 -0.56069
v -1.08215 0.94950 -0.55138
v -1.03804 0.97000 -0.52891
v -0.99394 0.94950 -0.50644
v -0.97567 0.90000 -0.49713
v -0.99394 0.85050 -0.50644
v -1.03804 0.83000 -0.52891
v -1.08215 0.85050 -0.55138
v -1.17458 0.90000 -0.38164
v -1.15508 0.94950 -0.37531
v -1.10800 0.97000 -0.36001
v -1.06093 0.94950 -0.34472
v -1.04143 0.90000 -0.33838
v -1.06093 0.85050 -0.34472
v -1.10800 0.83000 -0.36001
v -1.15508 0.85050 -0.37531
v -1.21982 0.90000 -0.19320
v -1.19957 0.94950 -0.18999
v -1.15068 0.97000 -0.18225
v -1.10179 0.94950 -0.17451
v -1.08154 0.90000 -0.17130
v -1.10179 0.85050 -0.17451
v -1.15068 0.83000 -0.18225
v -1.19957 0.85050 -0.18999
f 1 10 2
f 10 3 2
f 11 4 3
f 12 5 4
f 13 6 5
f 14 7 6
f 15 8 7
f 16 1 8
f 17 10 9
f 10 19 11
f 11 20 12
f 20 13 12
f 21 14 13
f 22 15 14
f 23 16 15
f 16 17 9
f 17 26 18
f 26 19 18
f 27 20 19
f 28 21 20
f 29 22 21
f 22 31 23
f 31 24 23
f 32 17 24
f 33 26 25
f 34 27 26
f 35 28 27
f 36 29 28
f 37 30 29
f 38 31 30
f 39 32 31
f 32 33 25
f 41 34 33
f 42 35 34
f 43 36 35
f 44 37 36
f 37 46 38
f 46 39 38
f 47 40 39
f 40 41 33
f 41 50 42
f 50 43 42
f 51 44 43
f 44 53 45
f 53 46 45
f 54 47 46
f 55 48 47
f 56 41 48
f 57 50 49
f 58 51 50
f 59 52 51
f 52 61 53
f 61 54 53
f 54 63 55
f 63 56 55
f 64 49 56
f 65 58 57
f 66 59 58
f 59 68 60
f 68 61 60
f 69 62 61
f 70 63 62
f 71 64 63
f 64 65 57
f 73 66 65
f 74 67 66
f 75 68 67
f 76 69 68
f 77 70 69
f 70 79 71
f 71 80 72
f 72 73 65
f 73 82 74
f 82 75 74
f 83 76 75
f 84 77 76
f 85 78 77
f 86 79 78
f 87 80 79
f 88 73 80
f 81 90 82
f 90 83 82
f 91 84 83
f 92 85 84
f 93 86 85
f 94 87 86
f 95 88 87
f 96 81 88
f 97 90 89
f 90 99 91
f 91 100 92
f 100 93 92
f 101 94 93
f 102 95 94
f 103 96 95
f 96 97 89
f 97 106 98
f 106 99 98
f 107 100 99
f 108 101 100
f 109 102 101
f 102 111 103
f 111 104 103
f 112 97 104
f 113 106 105
f 114 107 106
f 115 108 107
f 116 109 108
f 117 110 109
f 118 111 110
f 119 112 111
f 112 113 105
f 121 114 113
f 122 115 114
f 123 116 115
f 124 117 116
f 117 126 118
f 126 119 118
f 127 120 119
f 120 121 113
f 121 130 122
f 130 123 122
f 131 124 123
f 124 133 125
f 133 126 125
f 134 127 126
f 135 128 127
f 136 121 128
f 137 130 129
f 138 131 130
f 139 132 131
f 132 141 133
f 141 134 133
f 134 143 135
f 143 136 135
f 144 129 136
f 145 138 137
f 146 139 138
f 139 148 140
f 148 141 140
f 149 142 141
f 150 143 142
f 151 144 143
f 144 145 137
f 153 146 145
f 154 147 146
f 155 148 147
f 156 149 148
f 157 150 149
f 150 159 151
f 151 160 152
f 152 153 145
f 153 162 154
f 162 155 154
f 163 156 155
f 164 157 156
f 165 158 157
f 166 159 158
f 167 160 159
f 168 153 160
f 161 170 162
f 170 163 162
f 171 164 163
f 172 165 164
f 173 166 165
f 174 167 166
f 175 168 167
f 176 161 168
f 177 170 169
f 170 179 171
f 171 180 172
f 180 173 172
f 181 174 173
f 182 175 174
f 183 176 175
f 176 177 169
f 177 186 178
f 186 179 178
f 187 180 179
f 188 181 180
f 189 182 181
f 182 191 183
f 191 184 183
f 192 177 184
f 193 186 185
f 194 187 186
f 195 188 187
f 196 189 188
f 197 190 189
f 198 191 190
f 199 192 191
f 192 193 185
f 201 194 193
f 202 195 194
f 203 196 195
f 204 197 196
f 197 206 198
f 206 199 198
f 207 200 199
f 200 201 193
f 201 210 202
f 210 203 202
f 211 204 203
f 204 213 205
f 213 206 205
f 214 207 206
f 215 208 207
f 216 201 208
f 217 210 209
f 218 211 210
f 219 212 211
f 212 221 213
f 221 214 213
f 214 223 215
f 223 216 215
f 224 209 216
f 225 218 217
f 226 219 218
f 219 228 220
f 228 221 220
f 229 222 221
f 230 223 222
f 231 224 223
f 224 225 217
f 233 226 225
f 234 227 226
f 235 228 227
f 236 229 228
f 237 230 229
f 230 239 231
f 231 240 232
f 232 233 225
f 233 242 234
f 242 235 234
f 243 236 235
f 244 237 236
f 245 238 237
f 246 239 238
f 247 240 239
f 248 233 240
f 241 250 242
f 250 243 242
f 251 244 243
f 252 245 244
f 253 246 245
f 254 247 246
f 255 248 247
f 256 241 248
f 257 250 249
f 250 259 251
f 251 260 252
f 260 253 252
f 261 254 253
f 262 255 254
f 263 256 255
f 256 257 249
f 257 266 258
f 266 259 258
f 267 260 259
f 268 261 260
f 269 262 261
f 262 271 263
f 271 264 263
f 272 257 264
f 273 266 265
f 274 267 266
f 275 268 267
f 276 269 268
f 277 270 269
f 278 271 270
f 279 272 271
f 272 273 265
f 281 274 273
f 282 275 274
f 283 276 275
f 284 277 276
f 277 286 278
f 286 279 278
f 287 280 279
f 280 281 273
f 281 290 282
f 290 283 282
f 291 284 283
f 284 293 285
f 293 286 285
f 294 287 286
f 295 288 287
f 296 281 288
f 297 290 289
f 298 291 290
f 299 292 291
f 292 301 293
f 301 294 293
f 294 303 295
f 303 296 295
f 304 289 296
f 305 298 297
f 306 299 298
f 299 308 300
f 308 301 300
f 309 302 301
f 310 303 302
f 311 304 303
f 304 305 297
f 313 306 305
f 314 307 306
f 315 308 307
f 316 309 308
f 317 310 309
f 310 319 311
f 311 320 312
f 312 313 305
f 313 2 314
f 2 315 314
f 3 316 315
f 4 317 316
f 5 318 317
f 6 319 318
f 7 320 319
f 8 313 320
f 329 322 321
f 330 323 322
f 323 332 324
f 332 325 324
f 333 326 325
f 334 327 326
f 335 328 327
f 328 329 321
f 337 330 329
f 338 331 330
f 331 340 332
f 340 333 332
f 333 342 334
f 342 335 334
f 343 336 335
f 344 329 336
f 345 338 337
f 346 339 338
f 347 340 339
f 348 341 340
f 341 350 342
f 350 343 342
f 343 352 344
f 352 337 344
f 353 346 345
f 354 347 346
f 355 348 347
f 356 349 348
f 357 350 349
f 350 359 351
f 359 352 351
f 352 353 345
f 361 354 353
f 362 355 354
f 363 356 355
f 364 357 356
f 365 358 357
f 358 367 359
f 367 360 359
f 360 361 353
f 361 370 362
f 362 371 363
f 363 372 364
f 372 365 364
f 373 366 365
f 374 367 366
f 367 376 368
f 376 361 368
f 369 378 370
f 378 371 370
f 371 380 372
f 380 373 372
f 381 374 373
f 382 375 374
f 383 376 375
f 384 369 376
f 385 378 377
f 378 387 379
f 387 380 379
f 380 389 381
f 389 382 381
f 382 391 383
f 391 384 383
f 384 385 377
f 393 386 385
f 394 387 386
f 395 388 387
f 396 389 388
f 397 390 389
f 390 399 391
f 391 400 392
f 392 393 385
f 401 394 393
f 402 395 394
f 403 396 395
f 404 397 396
f 397 406 398
f 406 399 398
f 407 400 399
f 400 401 393
f 409 402 401
f 410 403 402
f 403 412 404
f 412 405 404
f 413 406 405
f 414 407 406
f 415 408 407
f 408 409 401
f 417 410 409
f 418 411 410
f 411 420 412
f 420 413 412
f 413 422 414
f 422 415 414
f 423 416 415
f 424 409 416
f 425 418 417
f 426 419 418
f 427 420 419
f 428 421 420
f 421 430 422
f 430 423 422
f 423 432 424
f 432 417 424
f 433 426 425
f 434 427 426
f 435 428 427
f 436 429 428
f 437 430 429
f 430 439 431
f 439 432 431
f 432 433 425
f 441 434 433
f 442 435 434
f 443 436 435
f 444 437 436
f 445 438 437
f 438 447 439
f 447 440 439
f 440 441 433
f 441 450 442
f 442 451 443
f 443 452 444
f 452 445 444
f 453 446 445
f 454 447 446
f 447 456 448
f 456 441 448
f 449 458 450
f 458 451 450
f 451 460 452
f 460 453 452
f 461 454 453
f 462 455 454
f 463 456 455
f 464 449 456
f 465 458 457
f 458 467 459
f 467 460 459
f 460 469 461
f 469 462 461
f 462 471 463
f 471 464 463
f 464 465 457
f 473 466 465
f 474 467 466
f 475 468 467
f 476 469 468
f 477 470 469
f 470 479 471
f 471 480 472
f 472 473 465
f 481 474 473
f 482 475 474
f 483 476 475
f 484 477 476
f 477 486 478
f 486 479 478
f 487 480 479
f 480 481 473
f 489 482 481
f 490 483 482
f 483 492 484
f 492 485 484
f 493 486 485
f 494 487 486
f 495 488 487
f 488 489 481
f 497 490 489
f 498 491 490
f 491 500 492
f 500 493 492
f 493 502 494
f 502 495 494
f 503 496 495
f 504 489 496
f 505 498 497
f 506 499 498
f 507 500 499
f 508 501 500
f 501 510 502
f 510 503 502
f 503 512 504
f 512 497 504
f 513 506 505
f 514 507 506
f 515 508 507
f 516 509 508
f 517 510 509
f 510 519 511
f 519 512 511
f 512 513 505
f 521 514 513
f 522 515 514
f 523 516 515
f 524 517 516
f 525 518 517
f 518 527 519
f 527 520 519
f 520 521 513
f 521 530 522
f 522 531 523
f 523 532 524
f 532 525 524
f 533 526 525
f 534 527 526
f 527 536 528
f 536 521 528
f 529 538 530
f 538 531 530
f 531 540 532
f 540 533 532
f 541 534 533
f 542 535 534
f 543 536 535
f 544 529 536
f 545 538 537
f 538 547 539
f 547 540 539
f 540 549 541
f 549 542 541
f 542 551 543
f 551 544 543
f 544 545 537
f 553 546 545
f 554 547 546
f 555 548 547
f 556 549 548
f 557 550 549
f 550 559 551
f 551 560 552
f 552 553 545
f 561 554 553
f 562 555 554
f 563 556 555
f 564 557 556
f 557 566 558
f 566 559 558
f 567 560 559
f 560 561 553
f 569 562 561
f 570 563 562
f 563 572 564
f 572 565 564
f 573 566 565
f 574 567 566
f 575 568 567
f 568 569 561
f 577 570 569
f 578 571 570
f 571 580 572
f 580 573 572
f 573 582 574
f 582 575 574
f 583 576 575
f 584 569 576
f 585 578 577
f 586 579 578
f 587 580 579
f 588 581 580
f 581 590 582
f 590 583 582
f 583 592 584
f 592 577 584
f 593 586 585
f 594 587 586
f 595 588 587
f 596 589 588
f 597 590 589
f 590 599 591
f 599 592 591
f 592 593 585
f 601 594 593
f 602 595 594
f 603 596 595
f 604 597 596
f 605 598 597
f 598 607 599
f 607 600 599
f 600 601 593
f 601 610 602
f 602 611 603
f 603 612 604
f 612 605 604
f 613 606 605
f 614 607 606
f 607 616 608
f 616 601 608
f 609 618 610
f 618 611 610
f 611 620 612
f 620 613 612
f 621 614 613
f 622 615 614
f 623 616 615
f 624 609 616
f 625 618 617
f 618 627 619
f 627 620 619
f 620 629 621
f 629 622 621
f 622 631 623
f 631 624 623
f 624 625 617
f 633 626 625
f 634 627 626
f 635 628 627
f 636 629 628
f 637 630 629
f 630 639 631
f 631 640 632
f 632 633 625
f 321 634 633
f 322 635 634
f 323 636 635
f 324 637 636
f 637 326 638
f 326 639 638
f 327 640 639
f 640 321 633
f 1 9 10
f 10 11 3
f 11 12 4
f 12 13 5
f 13 14 6
f 14 15 7
f 15 16 8
f 16 9 1
f 17 18 10
f 10 18 19
f 11 19 20
f 20 21 13
f 21 22 14
f 22 23 15
f 23 24 16
f 16 24 17
f 17 25 26
f 26 27 19
f 27 28 20
f 28 29 21
f 29 30 22
f 22 30 31
f 31 32 24
f 32 25 17
f 33 34 26
f 34 35 27
f 35 36 28
f 36 37 29
f 37 38 30
f 38 39 31
f 39 40 32
f 32 40 33
f 41 42 34
f 42 43 35
f 43 44 36
f 44 45 37
f 37 45 46
f 46 47 39
f 47 48 40
f 40 48 41
f 41 49 50
f 50 51 43
f 51 52 44
f 44 52 53
f 53 54 46
f 54 55 47
f 55 56 48
f 56 49 41
f 57 58 50
f 58 59 51
f 59 60 52
f 52 60 61
f 61 62 54
f 54 62 63
f 63 64 56
f 64 57 49
f 65 66 58
f 66 67 59
f 59 67 68
f 68 69 61
f 69 70 62
f 70 71 63
f 71 72 64
f 64 72 65
f 73 74 66
f 74 75 67
f 75 76 68
f 76 77 69
f 77 78 70
f 70 78 79
f 71 79 80
f 72 80 73
f 73 81 82
f 82 83 75
f 83 84 76
f 84 85 77
f 85 86 78
f 86 87 79
f 87 88 80
f 88 81 73
f 81 89 90
f 90 91 83
f 91 92 84
f 92 93 85
f 93 94 86
f 94 95 87
f 95 96 88
f 96 89 81
f 97 98 90
f 90 98 99
f 91 99 100
f 100 101 93
f 101 102 94
f 102 103 95
f 103 104 96
f 96 104 97
f 97 105 106
f 106 107 99
f 107 108 100
f 108 109 101
f 109 110 102
f 102 110 111
f 111 112 104
f 112 105 97
f 113 114 106
f 114 115 107
f 115 116 108
f 116 117 109
f 117 118 110
f 118 119 111
f 119 120 112
f 112 120 113
f 121 122 114
f 122 123 115
f 123 124 116
f 124 125 117
f 117 125 126
f 126 127 119
f 127 128 120
f 120 128 121
f 121 129 130
f 130 131 123
f 131 132 124
f 124 132 133
f 133 134 126
f 134 135 127
f 135 136 128
f 136 129 121
f 137 138 130
f 138 139 131
f 139 140 132
f 132 140 141
f 141 142 134
f 134 142 143
f 143 144 136
f 144 137 129
f 145 146 138
f 146 147 139
f 139 147 148
f 148 149 141
f 149 150 142
f 150 151 143
f 151 152 144
f 144 152 145
f 153 154 146
f 154 155 147
f 155 156 148
f 156 157 149
f 157 158 150
f 150 158 159
f 151 159 160
f 152 160 153
f 153 161 162
f 162 163 155
f 163 164 156
f 164 165 157
f 165 166 158
f 166 167 159
f 167 168 160
f 168 161 153
f 161 169 170
f 170 171 163
f 171 172 164
f 172 173 165
f 173 174 166
f 174 175 167
f 175 176 168
f 176 169 161
f 177 178 170
f 170 178 179
f 171 179 180
f 180 181 173
f 181 182 174
f 182 183 175
f 183 184 176
f 176 184 177
f 177 185 186
f 186 187 179
f 187 188 180
f 188 189 181
f 189 190 182
f 182 190 191
f 191 192 184
f 192 185 177
f 193 194 186
f 194 195 187
f 195 196 188
f 196 197 189
f 197 198 190
f 198 199 191
f 199 200 192
f 192 200 193
f 201 202 194
f 202 203 195
f 203 204 196
f 204 205 197
f 197 205 206
f 206 207 199
f 207 208 200
f 200 208 201
f 201 209 210
f 210 211 203
f 211 212 204
f 204 212 213
f 213 214 206
f 214 215 207
f 215 216 208
f 216 209 201
f 217 218 210
f 218 219 211
f 219 220 212
f 212 220 221
f 221 222 214
f 214 222 223
f 223 224 216
f 224 217 209
f 225 226 218
f 226 227 219
f 219 227 228
f 228 229 221
f 229 230 222
f 230 231 223
f 231 232 224
f 224 232 225
f 233 234 226
f 234 235 227
f 235 236 228
f 236 237 229
f 237 238 230
f 230 238 239
f 231 239 240
f 232 240 233
f 233 241 242
f 242 243 235
f 243 244 236
f 244 245 237
f 245 246 238
f 246 247 239
f 247 248 240
f 248 241 233
f 241 249 250
f 250 251 243
f 251 252 244
f 252 253 245
f 253 254 246
f 254 255 247
f 255 256 248
f 256 249 241
f 257 258 250
f 250 258 259
f 251 259 260
f 260 261 253
f 261 262 254
f 262 263 255
f 263 264 256
f 256 264 257
f 257 265 266
f 266 267 259
f 267 268 260
f 268 269 261
f 269 270 262
f 262 270 271
f 271 272 264
f 272 265 257
f 273 274 266
f 274 275 267
f 275 276 268
f 276 277 269
f 277 278 270
f 278 279 271
f 279 280 272
f 272 280 273
f 281 282 274
f 282 283 275
f 283 284 276
f 284 285 277
f 277 285 286
f 286 287 279
f 287 288 280
f 280 288 281
f 281 289 290
f 290 291 283
f 291 292 284
f 284 292 293
f 293 294 286
f 294 295 287
f 295 296 288
f 296 289 281
f 297 298 290
f 298 299 291
f 299 300 292
f 292 300 301
f 301 302 294
f 294 302 303
f 303 304 296
f 304 297 289
f 305 306 298
f 306 307 299
f 299 307 308
f 308 309 301
f 309 310 302
f 310 311 303
f 311 312 304
f 304 312 305
f 313 314 306
f 314 315 307
f 315 316 308
f 316 317 309
f 317 318 310
f 310 318 319
f 311 319 320
f 312 320 313
f 313 1 2
f 2 3 315
f 3 4 316
f 4 5 317
f 5 6 318
f 6 7 319
f 7 8 320
f 8 1 313
f 329 330 322
f 330 331 323
f 323 331 332
f 332 333 325
f 333 334 326
f 334 335 327
f 335 336 328
f 328 336 329
f 337 338 330
f 338 339 331
f 331 339 340
f 340 341 333
f 333 341 342
f 342 343 335
f 343 344 336
f 344 337 329
f 345 346 338
f 346 347 339
f 347 348 340
f 348 349 341
f 341 349 350
f 350 351 343
f 343 351 352
f 352 345 337
f 353 354 346
f 354 355 347
f 355 356 348
f 356 357 349
f 357 358 350
f 350 358 359
f 359 360 352
f 352 360 353
f 361 362 354
f 362 363 355
f 363 364 356
f 364 365 357
f 365 366 358
f 358 366 367
f 367 368 360
f 360 368 361
f 361 369 370
f 362 370 371
f 363 371 372
f 372 373 365
f 373 374 366
f 374 375 367
f 367 375 376
f 376 369 361
f 369 377 378
f 378 379 371
f 371 379 380
f 380 381 373
f 381 382 374
f 382 383 375
f 383 384 376
f 384 377 369
f 385 386 378
f 378 386 387
f 387 388 380
f 380 388 389
f 389 390 382
f 382 390 391
f 391 392 384
f 384 392 385
f 393 394 386
f 394 395 387
f 395 396 388
f 396 397 389
f 397 398 390
f 390 398 399
f 391 399 400
f 392 400 393
f 401 402 394
f 402 403 395
f 403 404 396
f 404 405 397
f 397 405 406
f 406 407 399
f 407 408 400
f 400 408 401
f 409 410 402
f 410 411 403
f 403 411 412
f 412 413 405
f 413 414 406
f 414 415 407
f 415 416 408
f 408 416 409
f 417 418 410
f 418 419 411
f 411 419 420
f 420 421 413
f 413 421 422
f 422 423 415
f 423 424 416
f 424 417 409
f 425 426 418
f 426 427 419
f 427 428 420
f 428 429 421
f 421 429 430
f 430 431 423
f 423 431 432
f 432 425 417
f 433 434 426
f 434 435 427
f 435 436 428
f 436 437 429
f 437 438 430
f 430 438 439
f 439 440 432
f 432 440 433
f 441 442 434
f 442 443 435
f 443 444 436
f 444 445 437
f 445 446 438
f 438 446 447
f 447 448 440
f 440 448 441
f 441 449 450
f 442 450 451
f 443 451 452
f 452 453 445
f 453 454 446
f 454 455 447
f 447 455 456
f 456 449 441
f 449 457 458
f 458 459 451
f 451 459 460
f 460 461 453
f 461 462 454
f 462 463 455
f 463 464 456
f 464 457 449
f 465 466 458
f 458 466 467
f 467 468 460
f 460 468 469
f 469 470 462
f 462 470 471
f 471 472 464
f 464 472 465
f 473 474 466
f 474 475 467
f 475 476 468
f 476 477 469
f 477 478 470
f 470 478 479
f 471 479 480
f 472 480 473
f 481 482 474
f 482 483 475
f 483 484 476
f 484 485 477
f 477 485 486
f 486 487 479
f 487 488 480
f 480 488 481
f 489 490 482
f 490 491 483
f 483 491 492
f 492 493 485
f 493 494 486
f 494 495 487
f 495 496 488
f 488 496 489
f 497 498 490
f 498 499 491
f 491 499 500
f 500 501 493
f 493 501 502
f 502 503 495
f 503 504 496
f 504 497 489
f 505 506 498
f 506 507 499
f 507 508 500
f 508 509 501
f 501 509 510
f 510 511 503
f 503 511 512
f 512 505 497
f 513 514 506
f 514 515 507
f 515 516 508
f 516 517 509
f 517 518 510
f 510 518 519
f 519 520 512
f 512 520 513
f 521 522 514
f 522 523 515
f 523 524 516
f 524 525 517
f 525 526 518
f 518 526 527
f 527 528 520
f 520 528 521
f 521 529 530
f 522 530 531
f 523 531 532
f 532 533 525
f 533 534 526
f 534 535 527
f 527 535 536
f 536 529 521
f 529 537 538
f 538 539 531
f 531 539 540
f 540 541 533
f 541 542 534
f 542 543 535
f 543 544 536
f 544 537 529
f 545 546 538
f 538 546 547
f 547 548 540
f 540 548 549
f 549 550 542
f 542 550 551
f 551 552 544
f 544 552 545
f 553 554 546
f 554 555 547
f 555 556 548
f 556 557 549
f 557 558 550
f 550 558 559
f 551 559 560
f 552 560 553
f 561 562 554
f 562 563 555
f 563 564 556
f 564 565 557
f 557 565 566
f 566 567 559
f 567 568 560
f 560 568 561
f 569 570 562
f 570 571 563
f 563 571 572
f 572 573 565
f 573 574 566
f 574 575 567
f 575 576 568
f 568 576 569
f 577 578 570
f 578 579 571
f 571 579 580
f 580 581 573
f 573 581 582
f 582 583 575
f 583 584 576
f 584 577 569
f 585 586 578
f 586 587 579
f 587 588 580
f 588 589 581
f 581 589 590
f 590 591 583
f 583 591 592
f 592 585 577
f 593 594 586
f 594 595 587
f 595 596 588
f 596 597 589
f 597 598 590
f 590 598 599
f 599 600 592
f 592 600 593
f 601 602 594
f 602 603 595
f 603 604 596
f 604 605 597
f 605 606 598
f 598 606 607
f 607 608 600
f 600 608 601
f 601 609 610
f 602 610 611
f 603 611 612
f 612 613 605
f 613 614 606
f 614 615 607
f 607 615 616
f 616 609 601
f 609 617 618
f 618 619 611
f 611 619 620
f 620 621 613
f 621 622 614
f 622 623 615
f 623 624 616
f 624 617 609
f 625 626 618
f 618 626 627
f 627 628 620
f 620 628 629
f 629 630 622
f 622 630 631
f 631 632 624
f 624 632 625
f 633 634 626
f 634 635 627
f 635 636 628
f 636 637 629
f 637 638 630
f 630 638 639
f 631 639 640
f 632 640 633
f 321 322 634
f 322 323 635
f 323 324 636
f 324 325 637
f 637 325 326
f 326 327 639
f 327 328 640
f 640 328 321
