# beta_pocket Funnel_Rim.obj: Roblox cue frame, recentred on its bounding box
v -0.74865 -0.87500 0.00000
v -0.73986 -0.85379 0.00000
v -0.71865 -0.84500 0.00000
v -0.69743 -0.85379 0.00000
v -0.68865 -0.87500 0.00000
v -0.69743 -0.89621 0.00000
v -0.71865 -0.90500 0.00000
v -0.73986 -0.89621 0.00000
v -0.73943 -0.87500 0.11711
v -0.73075 -0.85379 0.11574
v -0.70980 -0.84500 0.11242
v -0.68885 -0.85379 0.10910
v -0.68017 -0.87500 0.10773
v -0.68885 -0.89621 0.10910
v -0.70980 -0.90500 0.11242
v -0.73075 -0.89621 0.11574
v -0.71201 -0.87500 0.23134
v -0.70365 -0.85379 0.22863
v -0.68347 -0.84500 0.22207
v -0.66330 -0.85379 0.21552
v -0.65494 -0.87500 0.21280
v -0.66330 -0.89621 0.21552
v -0.68347 -0.90500 0.22207
v -0.70365 -0.89621 0.22863
v -0.66705 -0.87500 0.33988
v -0.65922 -0.85379 0.33589
v -0.64032 -0.84500 0.32626
v -0.62142 -0.85379 0.31663
v -0.61359 -0.87500 0.31264
v -0.62142 -0.89621 0.31663
v -0.64032 -0.90500 0.32626
v -0.65922 -0.89621 0.33589
v -0.60567 -0.87500 0.44004
v -0.59856 -0.85379 0.43488
v -0.58140 -0.84500 0.42241
v -0.56424 -0.85379 0.40994
v -0.55713 -0.87500 0.40478
v -0.56424 -0.89621 0.40994
v -0.58140 -0.90500 0.42241
v -0.59856 -0.89621 0.43488
v -0.52937 -0.87500 0.52937
v -0.52316 -0.85379 0.52316
v -0.50816 -0.84500 0.50816
v -0.49316 -0.85379 0.49316
v -0.48695 -0.87500 0.48695
v -0.49316 -0.89621 0.49316
v -0.50816 -0.90500 0.50816
v -0.52316 -0.89621 0.52316
v -0.44004 -0.87500 0.60567
v -0.43488 -0.85379 0.59856
v -0.42241 -0.84500 0.58140
v -0.40994 -0.85379 0.56424
v -0.40478 -0.87500 0.55713
v -0.40994 -0.89621 0.56424
v -0.42241 -0.90500 0.58140
v -0.43488 -0.89621 0.59856
v -0.33988 -0.87500 0.66705
v -0.33589 -0.85379 0.65922
v -0.32626 -0.84500 0.64032
v -0.31663 -0.85379 0.62142
v -0.31264 -0.87500 0.61359
v -0.31663 -0.89621 0.62142
v -0.32626 -0.90500 0.64032
v -0.33589 -0.89621 0.65922
v -0.23134 -0.87500 0.71201
v -0.22863 -0.85379 0.70365
v -0.22207 -0.84500 0.68347
v -0.21552 -0.85379 0.66330
v -0.21280 -0.87500 0.65494
v -0.21552 -0.89621 0.66330
v -0.22207 -0.90500 0.68347
v -0.22863 -0.89621 0.70365
v -0.11711 -0.87500 0.73943
v -0.11574 -0.85379 0.73075
v -0.11242 -0.84500 0.70980
v -0.10910 -0.85379 0.68885
v -0.10773 -0.87500 0.68017
v -0.10910 -0.89621 0.68885
v -0.11242 -0.90500 0.70980
v -0.11574 -0.89621 0.73075
v -0.00000 -0.87500 0.74865
v -0.00000 -0.85379 0.73986
v -0.00000 -0.84500 0.71865
v -0.00000 -0.85379 0.69743
v -0.00000 -0.87500 0.68865
v -0.00000 -0.89621 0.69743
v -0.00000 -0.90500 0.71865
v -0.00000 -0.89621 0.73986
v 0.11711 -0.87500 0.73943
v 0.11574 -0.85379 0.73075
v 0.11242 -0.84500 0.70980
v 0.10910 -0.85379 0.68885
v 0.10773 -0.87500 0.68017
v 0.10910 -0.89621 0.68885
v 0.11242 -0.90500 0.70980
v 0.11574 -0.89621 0.73075
v 0.23134 -0.87500 0.71201
v 0.22863 -0.85379 0.70365
v 0.22207 -0.84500 0.68347
v 0.21552 -0.85379 0.66330
v 0.21280 -0.87500 0.65494
v 0.21552 -0.89621 0.66330
v 0.22207 -0.90500 0.68347
v 0.22863 -0.89621 0.70365
v 0.33988 -0.87500 0.66705
v 0.33589 -0.85379 0.65922
v 0.32626 -0.84500 0.64032
v 0.31663 -0.85379 0.62142
v 0.31264 -0.87500 0.61359
v 0.31663 -0.89621 0.62142
v 0.32626 -0.90500 0.64032
v 0.33589 -0.89621 0.65922
v 0.44004 -0.87500 0.60567
v 0.43488 -0.85379 0.59856
v 0.42241 -0.84500 0.58140
v 0.40994 -0.85379 0.56424
v 0.40478 -0.87500 0.55713
v 0.40994 -0.89621 0.56424
v 0.42241 -0.90500 0.58140
v 0.43488 -0.89621 0.59856
v 0.52937 -0.87500 0.52937
v 0.52316 -0.85379 0.52316
v 0.50816 -0.84500 0.50816
v 0.49316 -0.85379 0.49316
v 0.48695 -0.87500 0.48695
v 0.49316 -0.89621 0.49316
v 0.50816 -0.90500 0.50816
v 0.52316 -0.89621 0.52316
v 0.60567 -0.87500 0.44004
v 0.59856 -0.85379 0.43488
v 0.58140 -0.84500 0.42241
v 0.56424 -0.85379 0.40994
v 0.55713 -0.87500 0.40478
v 0.56424 -0.89621 0.40994
v 0.58140 -0.90500 0.42241
v 0.59856 -0.89621 0.43488
v 0.66705 -0.87500 0.33988
v 0.65922 -0.85379 0.33589
v 0.64032 -0.84500 0.32626
v 0.62142 -0.85379 0.31663
v 0.61359 -0.87500 0.31264
v 0.62142 -0.89621 0.31663
v 0.64032 -0.90500 0.32626
v 0.65922 -0.89621 0.33589
v 0.71201 -0.87500 0.23134
v 0.70365 -0.85379 0.22863
v 0.68347 -0.84500 0.22207
v 0.66330 -0.85379 0.21552
v 0.65494 -0.87500 0.21280
v 0.66330 -0.89621 0.21552
v 0.68347 -0.90500 0.22207
v 0.70365 -0.89621 0.22863
v 0.73943 -0.87500 0.11711
v 0.73075 -0.85379 0.11574
v 0.70980 -0.84500 0.11242
v 0.68885 -0.85379 0.10910
v 0.68017 -0.87500 0.10773
v 0.68885 -0.89621 0.10910
v 0.70980 -0.90500 0.11242
v 0.73075 -0.89621 0.11574
v 0.74865 -0.87500 0.00000
v 0.73986 -0.85379 0.00000
v 0.71865 -0.84500 0.00000
v 0.69743 -0.85379 0.00000
v 0.68865 -0.87500 0.00000
v 0.69743 -0.89621 0.00000
v 0.71865 -0.90500 0.00000
v 0.73986 -0.89621 0.00000
v 0.73943 -0.87500 -0.11711
v 0.73075 -0.85379 -0.11574
v 0.70980 -0.84500 -0.11242
v 0.68885 -0.85379 -0.10910
v 0.68017 -0.87500 -0.10773
v 0.68885 -0.89621 -0.10910
v 0.70980 -0.90500 -0.11242
v 0.73075 -0.89621 -0.11574
v 0.71201 -0.87500 -0.23134
v 0.70365 -0.85379 -0.22863
v 0.68347 -0.84500 -0.22207
v 0.66330 -0.85379 -0.21552
v 0.65494 -0.87500 -0.21280
v 0.66330 -0.89621 -0.21552
v 0.68347 -0.90500 -0.22207
v 0.70365 -0.89621 -0.22863
v 0.66705 -0.87500 -0.33988
v 0.65922 -0.85379 -0.33589
v 0.64032 -0.84500 -0.32626
v 0.62142 -0.85379 -0.31663
v 0.61359 -0.87500 -0.31264
v 0.62142 -0.89621 -0.31663
v 0.64032 -0.90500 -0.32626
v 0.65922 -0.89621 -0.33589
v 0.60567 -0.87500 -0.44004
v 0.59856 -0.85379 -0.43488
v 0.58140 -0.84500 -0.42241
v 0.56424 -0.85379 -0.40994
v 0.55713 -0.87500 -0.40478
v 0.56424 -0.89621 -0.40994
v 0.58140 -0.90500 -0.42241
v 0.59856 -0.89621 -0.43488
v 0.52937 -0.87500 -0.52937
v 0.52316 -0.85379 -0.52316
v 0.50816 -0.84500 -0.50816
v 0.49316 -0.85379 -0.49316
v 0.48695 -0.87500 -0.48695
v 0.49316 -0.89621 -0.49316
v 0.50816 -0.90500 -0.50816
v 0.52316 -0.89621 -0.52316
v 0.44004 -0.87500 -0.60567
v 0.43488 -0.85379 -0.59856
v 0.42241 -0.84500 -0.58140
v 0.40994 -0.85379 -0.56424
v 0.40478 -0.87500 -0.55713
v 0.40994 -0.89621 -0.56424
v 0.42241 -0.90500 -0.58140
v 0.43488 -0.89621 -0.59856
v 0.33988 -0.87500 -0.66705
v 0.33589 -0.85379 -0.65922
v 0.32626 -0.84500 -0.64032
v 0.31663 -0.85379 -0.62142
v 0.31264 -0.87500 -0.61359
v 0.31663 -0.89621 -0.62142
v 0.32626 -0.90500 -0.64032
v 0.33589 -0.89621 -0.65922
v 0.23134 -0.87500 -0.71201
v 0.22863 -0.85379 -0.70365
v 0.22207 -0.84500 -0.68347
v 0.21552 -0.85379 -0.66330
v 0.21280 -0.87500 -0.65494
v 0.21552 -0.89621 -0.66330
v 0.22207 -0.90500 -0.68347
v 0.22863 -0.89621 -0.70365
v 0.11711 -0.87500 -0.73943
v 0.11574 -0.85379 -0.73075
v 0.11242 -0.84500 -0.70980
v 0.10910 -0.85379 -0.68885
v 0.10773 -0.87500 -0.68017
v 0.10910 -0.89621 -0.68885
v 0.11242 -0.90500 -0.70980
v 0.11574 -0.89621 -0.73075
v 0.00000 -0.87500 -0.74865
v 0.00000 -0.85379 -0.73986
v 0.00000 -0.84500 -0.71865
v 0.00000 -0.85379 -0.69743
v 0.00000 -0.87500 -0.68865
v 0.00000 -0.89621 -0.69743
v 0.00000 -0.90500 -0.71865
v 0.00000 -0.89621 -0.73986
v -0.11711 -0.87500 -0.73943
v -0.11574 -0.85379 -0.73075
v -0.11242 -0.84500 -0.70980
v -0.10910 -0.85379 -0.68885
v -0.10773 -0.87500 -0.68017
v -0.10910 -0.89621 -0.68885
v -0.11242 -0.90500 -0.70980
v -0.11574 -0.89621 -0.73075
v -0.23134 -0.87500 -0.71201
v -0.22863 -0.85379 -0.70365
v -0.22207 -0.84500 -0.68347
v -0.21552 -0.85379 -0.66330
v -0.21280 -0.87500 -0.65494
v -0.21552 -0.89621 -0.66330
v -0.22207 -0.90500 -0.68347
v -0.22863 -0.89621 -0.70365
v -0.33988 -0.87500 -0.66705
v -0.33589 -0.85379 -0.65922
v -0.32626 -0.84500 -0.64032
v -0.31663 -0.85379 -0.62142
v -0.31264 -0.87500 -0.61359
v -0.31663 -0.89621 -0.62142
v -0.32626 -0.90500 -0.64032
v -0.33589 -0.89621 -0.65922
v -0.44004 -0.87500 -0.60567
v -0.43488 -0.85379 -0.59856
v -0.42241 -0.84500 -0.58140
v -0.40994 -0.85379 -0.56424
v -0.40478 -0.87500 -0.55713
v -0.40994 -0.89621 -0.56424
v -0.42241 -0.90500 -0.58140
v -0.43488 -0.89621 -0.59856
v -0.52937 -0.87500 -0.52937
v -0.52316 -0.85379 -0.52316
v -0.50816 -0.84500 -0.50816
v -0.49316 -0.85379 -0.49316
v -0.48695 -0.87500 -0.48695
v -0.49316 -0.89621 -0.49316
v -0.50816 -0.90500 -0.50816
v -0.52316 -0.89621 -0.52316
v -0.60567 -0.87500 -0.44004
v -0.59856 -0.85379 -0.43488
v -0.58140 -0.84500 -0.42241
v -0.56424 -0.85379 -0.40994
v -0.55713 -0.87500 -0.40478
v -0.56424 -0.89621 -0.40994
v -0.58140 -0.90500 -0.42241
v -0.59856 -0.89621 -0.43488
v -0.66705 -0.87500 -0.33988
v -0.65922 -0.85379 -0.33589
v -0.64032 -0.84500 -0.32626
v -0.62142 -0.85379 -0.31663
v -0.61359 -0.87500 -0.31264
v -0.62142 -0.89621 -0.31663
v -0.64032 -0.90500 -0.32626
v -0.65922 -0.89621 -0.33589
v -0.71201 -0.87500 -0.23134
v -0.70365 -0.85379 -0.22863
v -0.68347 -0.84500 -0.22207
v -0.66330 -0.85379 -0.21552
v -0.65494 -0.87500 -0.21280
v -0.66330 -0.89621 -0.21552
v -0.68347 -0.90500 -0.22207
v -0.70365 -0.89621 -0.22863
v -0.73943 -0.87500 -0.11711
v -0.73075 -0.85379 -0.11574
v -0.70980 -0.84500 -0.11242
v -0.68885 -0.85379 -0.10910
v -0.68017 -0.87500 -0.10773
v -0.68885 -0.89621 -0.10910
v -0.70980 -0.90500 -0.11242
v -0.73075 -0.89621 -0.11574
v -1.74938 0.87500 0.00000
v -1.74059 0.89621 0.00000
v -1.71938 0.90500 0.00000
v -1.69817 0.89621 0.00000
v -1.68938 0.87500 0.00000
v -1.69817 0.85379 0.00000
v -1.71938 0.84500 0.00000
v -1.74059 0.85379 0.00000
v -1.72784 0.87500 0.27366
v -1.71916 0.89621 0.27229
v -1.69821 0.90500 0.26897
v -1.67726 0.89621 0.26565
v -1.66858 0.87500 0.26428
v -1.67726 0.85379 0.26565
v -1.69821 0.84500 0.26897
v -1.71916 0.85379 0.27229
v -1.66376 0.87500 0.54059
v -1.65540 0.89621 0.53787
v -1.63523 0.90500 0.53132
v -1.61505 0.89621 0.52476
v -1.60670 0.87500 0.52205
v -1.61505 0.85379 0.52476
v -1.63523 0.84500 0.53132
v -1.65540 0.85379 0.53787
v -1.55871 0.87500 0.79420
v -1.55088 0.89621 0.79021
v -1.53198 0.90500 0.78058
v -1.51308 0.89621 0.77095
v -1.50525 0.87500 0.76696
v -1.51308 0.85379 0.77095
v -1.53198 0.84500 0.78058
v -1.55088 0.85379 0.79021
v -1.41528 0.87500 1.02826
v -1.40817 0.89621 1.02310
v -1.39101 0.90500 1.01063
v -1.37385 0.89621 0.99816
v -1.36674 0.87500 0.99299
v -1.37385 0.85379 0.99816
v -1.39101 0.84500 1.01063
v -1.40817 0.85379 1.02310
v -1.23700 0.87500 1.23700
v -1.23079 0.89621 1.23079
v -1.21579 0.90500 1.21579
v -1.20079 0.89621 1.20079
v -1.19457 0.87500 1.19457
v -1.20079 0.85379 1.20079
v -1.21579 0.84500 1.21579
v -1.23079 0.85379 1.23079
v -1.02826 0.87500 1.41528
v -1.02310 0.89621 1.40817
v -1.01063 0.90500 1.39101
v -0.99816 0.89621 1.37385
v -0.99299 0.87500 1.36674
v -0.99816 0.85379 1.37385
v -1.01063 0.84500 1.39101
v -1.02310 0.85379 1.40817
v -0.79420 0.87500 1.55871
v -0.79021 0.89621 1.55088
v -0.78058 0.90500 1.53198
v -0.77095 0.89621 1.51308
v -0.76696 0.87500 1.50525
v -0.77095 0.85379 1.51308
v -0.78058 0.84500 1.53198
v -0.79021 0.85379 1.55088
v -0.54059 0.87500 1.66376
v -0.53787 0.89621 1.65540
v -0.53132 0.90500 1.63523
v -0.52476 0.89621 1.61505
v -0.52205 0.87500 1.60670
v -0.52476 0.85379 1.61505
v -0.53132 0.84500 1.63523
v -0.53787 0.85379 1.65540
v -0.27366 0.87500 1.72784
v -0.27229 0.89621 1.71916
v -0.26897 0.90500 1.69821
v -0.26565 0.89621 1.67726
v -0.26428 0.87500 1.66858
v -0.26565 0.85379 1.67726
v -0.26897 0.84500 1.69821
v -0.27229 0.85379 1.71916
v -0.00000 0.87500 1.74938
v -0.00000 0.89621 1.74059
v -0.00000 0.90500 1.71938
v -0.00000 0.89621 1.69817
v -0.00000 0.87500 1.68938
v -0.00000 0.85379 1.69817
v -0.00000 0.84500 1.71938
v -0.00000 0.85379 1.74059
v 0.27366 0.87500 1.72784
v 0.27229 0.89621 1.71916
v 0.26897 0.90500 1.69821
v 0.26565 0.89621 1.67726
v 0.26428 0.87500 1.66858
v 0.26565 0.85379 1.67726
v 0.26897 0.84500 1.69821
v 0.27229 0.85379 1.71916
v 0.54059 0.87500 1.66376
v 0.53787 0.89621 1.65540
v 0.53132 0.90500 1.63523
v 0.52476 0.89621 1.61505
v 0.52205 0.87500 1.60670
v 0.52476 0.85379 1.61505
v 0.53132 0.84500 1.63523
v 0.53787 0.85379 1.65540
v 0.79420 0.87500 1.55871
v 0.79021 0.89621 1.55088
v 0.78058 0.90500 1.53198
v 0.77095 0.89621 1.51308
v 0.76696 0.87500 1.50525
v 0.77095 0.85379 1.51308
v 0.78058 0.84500 1.53198
v 0.79021 0.85379 1.55088
v 1.02826 0.87500 1.41528
v 1.02310 0.89621 1.40817
v 1.01063 0.90500 1.39101
v 0.99816 0.89621 1.37385
v 0.99299 0.87500 1.36674
v 0.99816 0.85379 1.37385
v 1.01063 0.84500 1.39101
v 1.02310 0.85379 1.40817
v 1.23700 0.87500 1.23700
v 1.23079 0.89621 1.23079
v 1.21579 0.90500 1.21579
v 1.20079 0.89621 1.20079
v 1.19457 0.87500 1.19457
v 1.20079 0.85379 1.20079
v 1.21579 0.84500 1.21579
v 1.23079 0.85379 1.23079
v 1.41528 0.87500 1.02826
v 1.40817 0.89621 1.02310
v 1.39101 0.90500 1.01063
v 1.37385 0.89621 0.99816
v 1.36674 0.87500 0.99299
v 1.37385 0.85379 0.99816
v 1.39101 0.84500 1.01063
v 1.40817 0.85379 1.02310
v 1.55871 0.87500 0.79420
v 1.55088 0.89621 0.79021
v 1.53198 0.90500 0.78058
v 1.51308 0.89621 0.77095
v 1.50525 0.87500 0.76696
v 1.51308 0.85379 0.77095
v 1.53198 0.84500 0.78058
v 1.55088 0.85379 0.79021
v 1.66376 0.87500 0.54059
v 1.65540 0.89621 0.53787
v 1.63523 0.90500 0.53132
v 1.61505 0.89621 0.52476
v 1.60670 0.87500 0.52205
v 1.61505 0.85379 0.52476
v 1.63523 0.84500 0.53132
v 1.65540 0.85379 0.53787
v 1.72784 0.87500 0.27366
v 1.71916 0.89621 0.27229
v 1.69821 0.90500 0.26897
v 1.67726 0.89621 0.26565
v 1.66858 0.87500 0.26428
v 1.67726 0.85379 0.26565
v 1.69821 0.84500 0.26897
v 1.71916 0.85379 0.27229
v 1.74938 0.87500 0.00000
v 1.74059 0.89621 0.00000
v 1.71938 0.90500 0.00000
v 1.69817 0.89621 0.00000
v 1.68938 0.87500 0.00000
v 1.69817 0.85379 0.00000
v 1.71938 0.84500 0.00000
v 1.74059 0.85379 0.00000
v 1.72784 0.87500 -0.27366
v 1.71916 0.89621 -0.27229
v 1.69821 0.90500 -0.26897
v 1.67726 0.89621 -0.26565
v 1.66858 0.87500 -0.26428
v 1.67726 0.85379 -0.26565
v 1.69821 0.84500 -0.26897
v 1.71916 0.85379 -0.27229
v 1.66376 0.87500 -0.54059
v 1.65540 0.89621 -0.53787
v 1.63523 0.90500 -0.53132
v 1.61505 0.89621 -0.52476
v 1.60670 0.87500 -0.52205
v 1.61505 0.85379 -0.52476
v 1.63523 0.84500 -0.53132
v 1.65540 0.85379 -0.53787
v 1.55871 0.87500 -0.79420
v 1.55088 0.89621 -0.79021
v 1.53198 0.90500 -0.78058
v 1.51308 0.89621 -0.77095
v 1.50525 0.87500 -0.76696
v 1.51308 0.85379 -0.77095
v 1.53198 0.84500 -0.78058
v 1.55088 0.85379 -0.79021
v 1.41528 0.87500 -1.02826
v 1.40817 0.89621 -1.02310
v 1.39101 0.90500 -1.01063
v 1.37385 0.89621 -0.99816
v 1.36674 0.87500 -0.99299
v 1.37385 0.85379 -0.99816
v 1.39101 0.84500 -1.01063
v 1.40817 0.85379 -1.02310
v 1.23700 0.87500 -1.23700
v 1.23079 0.89621 -1.23079
v 1.21579 0.90500 -1.21579
v 1.20079 0.89621 -1.20079
v 1.19457 0.87500 -1.19457
v 1.20079 0.85379 -1.20079
v 1.21579 0.84500 -1.21579
v 1.23079 0.85379 -1.23079
v 1.02826 0.87500 -1.41528
v 1.02310 0.89621 -1.40817
v 1.01063 0.90500 -1.39101
v 0.99816 0.89621 -1.37385
v 0.99299 0.87500 -1.36674
v 0.99816 0.85379 -1.37385
v 1.01063 0.84500 -1.39101
v 1.02310 0.85379 -1.40817
v 0.79420 0.87500 -1.55871
v 0.79021 0.89621 -1.55088
v 0.78058 0.90500 -1.53198
v 0.77095 0.89621 -1.51308
v 0.76696 0.87500 -1.50525
v 0.77095 0.85379 -1.51308
v 0.78058 0.84500 -1.53198
v 0.79021 0.85379 -1.55088
v 0.54059 0.87500 -1.66376
v 0.53787 0.89621 -1.65540
v 0.53132 0.90500 -1.63523
v 0.52476 0.89621 -1.61505
v 0.52205 0.87500 -1.60670
v 0.52476 0.85379 -1.61505
v 0.53132 0.84500 -1.63523
v 0.53787 0.85379 -1.65540
v 0.27366 0.87500 -1.72784
v 0.27229 0.89621 -1.71916
v 0.26897 0.90500 -1.69821
v 0.26565 0.89621 -1.67726
v 0.26428 0.87500 -1.66858
v 0.26565 0.85379 -1.67726
v 0.26897 0.84500 -1.69821
v 0.27229 0.85379 -1.71916
v 0.00000 0.87500 -1.74938
v 0.00000 0.89621 -1.74059
v 0.00000 0.90500 -1.71938
v 0.00000 0.89621 -1.69817
v 0.00000 0.87500 -1.68938
v 0.00000 0.85379 -1.69817
v 0.00000 0.84500 -1.71938
v 0.00000 0.85379 -1.74059
v -0.27366 0.87500 -1.72784
v -0.27229 0.89621 -1.71916
v -0.26897 0.90500 -1.69821
v -0.26565 0.89621 -1.67726
v -0.26428 0.87500 -1.66858
v -0.26565 0.85379 -1.67726
v -0.26897 0.84500 -1.69821
v -0.27229 0.85379 -1.71916
v -0.54059 0.87500 -1.66376
v -0.53787 0.89621 -1.65540
v -0.53132 0.90500 -1.63523
v -0.52476 0.89621 -1.61505
v -0.52205 0.87500 -1.60670
v -0.52476 0.85379 -1.61505
v -0.53132 0.84500 -1.63523
v -0.53787 0.85379 -1.65540
v -0.79420 0.87500 -1.55871
v -0.79021 0.89621 -1.55088
v -0.78058 0.90500 -1.53198
v -0.77095 0.89621 -1.51308
v -0.76696 0.87500 -1.50525
v -0.77095 0.85379 -1.51308
v -0.78058 0.84500 -1.53198
v -0.79021 0.85379 -1.55088
v -1.02826 0.87500 -1.41528
v -1.02310 0.89621 -1.40817
v -1.01063 0.90500 -1.39101
v -0.99816 0.89621 -1.37385
v -0.99299 0.87500 -1.36674
v -0.99816 0.85379 -1.37385
v -1.01063 0.84500 -1.39101
v -1.02310 0.85379 -1.40817
v -1.23700 0.87500 -1.23700
v -1.23079 0.89621 -1.23079
v -1.21579 0.90500 -1.21579
v -1.20079 0.89621 -1.20079
v -1.19457 0.87500 -1.19457
v -1.20079 0.85379 -1.20079
v -1.21579 0.84500 -1.21579
v -1.23079 0.85379 -1.23079
v -1.41528 0.87500 -1.02826
v -1.40817 0.89621 -1.02310
v -1.39101 0.90500 -1.01063
v -1.37385 0.89621 -0.99816
v -1.36674 0.87500 -0.99299
v -1.37385 0.85379 -0.99816
v -1.39101 0.84500 -1.01063
v -1.40817 0.85379 -1.02310
v -1.55871 0.87500 -0.79420
v -1.55088 0.89621 -0.79021
v -1.53198 0.90500 -0.78058
v -1.51308 0.89621 -0.77095
v -1.50525 0.87500 -0.76696
v -1.51308 0.85379 -0.77095
v -1.53198 0.84500 -0.78058
v -1.55088 0.85379 -0.79021
v -1.66376 0.87500 -0.54059
v -1.65540 0.89621 -0.53787
v -1.63523 0.90500 -0.53132
v -1.61505 0.89621 -0.52476
v -1.60670 0.87500 -0.52205
v -1.61505 0.85379 -0.52476
v -1.63523 0.84500 -0.53132
v -1.65540 0.85379 -0.53787
v -1.72784 0.87500 -0.27366
v -1.71916 0.89621 -0.27229
v -1.69821 0.90500 -0.26897
v -1.67726 0.89621 -0.26565
v -1.66858 0.87500 -0.26428
v -1.67726 0.85379 -0.26565
v -1.69821 0.84500 -0.26897
v -1.71916 0.85379 -0.27229
f 9 2 1
f 10 3 2
f 3 12 4
f 4 13 5
f 13 6 5
f 14 7 6
f 15 8 7
f 16 1 8
f 17 10 9
f 18 11 10
f 19 12 11
f 20 13 12
f 21 14 13
f 22 15 14
f 23 16 15
f 16 17 9
f 25 18 17
f 26 19 18
f 27 20 19
f 28 21 20
f 29 22 21
f 30 23 22
f 23 32 24
f 24 25 17
f 33 26 25
f 34 27 26
f 27 36 28
f 36 29 28
f 37 30 29
f 38 31 30
f 31 40 32
f 40 25 32
f 41 34 33
f 42 35 34
f 43 36 35
f 44 37 36
f 37 46 38
f 46 39 38
f 39 48 40
f 48 33 40
f 49 42 41
f 42 51 43
f 51 44 43
f 52 45 44
f 53 46 45
f 54 47 46
f 55 48 47
f 56 41 48
f 57 50 49
f 50 59 51
f 59 52 51
f 60 53 52
f 61 54 53
f 54 63 55
f 63 56 55
f 64 49 56
f 57 66 58
f 58 67 59
f 67 60 59
f 60 69 61
f 69 62 61
f 70 63 62
f 71 64 63
f 72 57 64
f 65 74 66
f 66 75 67
f 75 68 67
f 68 77 69
f 77 70 69
f 78 71 70
f 79 72 71
f 80 65 72
f 81 74 73
f 82 75 74
f 83 76 75
f 84 77 76
f 85 78 77
f 78 87 79
f 87 80 79
f 88 73 80
f 89 82 81
f 90 83 82
f 83 92 84
f 84 93 85
f 93 86 85
f 94 87 86
f 95 88 87
f 96 81 88
f 97 90 89
f 98 91 90
f 99 92 91
f 100 93 92
f 101 94 93
f 102 95 94
f 103 96 95
f 96 97 89
f 105 98 97
f 106 99 98
f 107 100 99
f 108 101 100
f 109 102 101
f 110 103 102
f 103 112 104
f 104 105 97
f 113 106 105
f 114 107 106
f 107 116 108
f 116 109 108
f 117 110 109
f 118 111 110
f 111 120 112
f 120 105 112
f 121 114 113
f 122 115 114
f 123 116 115
f 124 117 116
f 117 126 118
f 126 119 118
f 119 128 120
f 128 113 120
f 129 122 121
f 122 131 123
f 131 124 123
f 132 125 124
f 133 126 125
f 134 127 126
f 135 128 127
f 136 121 128
f 137 130 129
f 130 139 131
f 139 132 131
f 140 133 132
f 141 134 133
f 134 143 135
f 143 136 135
f 144 129 136
f 137 146 138
f 138 147 139
f 147 140 139
f 140 149 141
f 149 142 141
f 150 143 142
f 151 144 143
f 152 137 144
f 145 154 146
f 146 155 147
f 155 148 147
f 148 157 149
f 157 150 149
f 158 151 150
f 159 152 151
f 160 145 152
f 161 154 153
f 162 155 154
f 163 156 155
f 164 157 156
f 165 158 157
f 158 167 159
f 167 160 159
f 168 153 160
f 169 162 161
f 170 163 162
f 163 172 164
f 164 173 165
f 173 166 165
f 174 167 166
f 175 168 167
f 176 161 168
f 177 170 169
f 178 171 170
f 179 172 171
f 180 173 172
f 181 174 173
f 182 175 174
f 183 176 175
f 176 177 169
f 185 178 177
f 186 179 178
f 187 180 179
f 188 181 180
f 189 182 181
f 190 183 182
f 183 192 184
f 184 185 177
f 193 186 185
f 194 187 186
f 187 196 188
f 196 189 188
f 197 190 189
f 198 191 190
f 191 200 192
f 200 185 192
f 201 194 193
f 202 195 194
f 203 196 195
f 204 197 196
f 197 206 198
f 206 199 198
f 199 208 200
f 208 193 200
f 209 202 201
f 202 211 203
f 211 204 203
f 212 205 204
f 213 206 205
f 214 207 206
f 215 208 207
f 216 201 208
f 217 210 209
f 210 219 211
f 219 212 211
f 220 213 212
f 221 214 213
f 214 223 215
f 223 216 215
f 224 209 216
f 217 226 218
f 218 227 219
f 227 220 219
f 220 229 221
f 229 222 221
f 230 223 222
f 231 224 223
f 232 217 224
f 225 234 226
f 226 235 227
f 235 228 227
f 228 237 229
f 237 230 229
f 238 231 230
f 239 232 231
f 240 225 232
f 241 234 233
f 242 235 234
f 243 236 235
f 244 237 236
f 245 238 237
f 238 247 239
f 247 240 239
f 248 233 240
f 249 242 241
f 250 243 242
f 243 252 244
f 244 253 245
f 253 246 245
f 254 247 246
f 255 248 247
f 256 241 248
f 257 250 249
f 258 251 250
f 259 252 251
f 260 253 252
f 261 254 253
f 262 255 254
f 263 256 255
f 256 257 249
f 265 258 257
f 266 259 258
f 267 260 259
f 268 261 260
f 269 262 261
f 270 263 262
f 263 272 264
f 264 265 257
f 273 266 265
f 274 267 266
f 267 276 268
f 276 269 268
f 277 270 269
f 278 271 270
f 271 280 272
f 280 265 272
f 281 274 273
f 282 275 274
f 283 276 275
f 284 277 276
f 277 286 278
f 286 279 278
f 279 288 280
f 288 273 280
f 289 282 281
f 282 291 283
f 291 284 283
f 292 285 284
f 293 286 285
f 294 287 286
f 295 288 287
f 296 281 288
f 297 290 289
f 290 299 291
f 299 292 291
f 300 293 292
f 301 294 293
f 294 303 295
f 303 296 295
f 304 289 296
f 297 306 298
f 298 307 299
f 307 300 299
f 300 309 301
f 309 302 301
f 310 303 302
f 311 304 303
f 312 297 304
f 305 314 306
f 306 315 307
f 315 308 307
f 308 317 309
f 317 310 309
f 318 311 310
f 319 312 311
f 320 305 312
f 1 314 313
f 2 315 314
f 3 316 315
f 4 317 316
f 5 318 317
f 318 7 319
f 7 320 319
f 8 313 320
f 329 322 321
f 330 323 322
f 331 324 323
f 332 325 324
f 325 334 326
f 334 327 326
f 335 328 327
f 336 321 328
f 329 338 330
f 330 339 331
f 339 332 331
f 340 333 332
f 341 334 333
f 342 335 334
f 343 336 335
f 344 329 336
f 345 338 337
f 346 339 338
f 347 340 339
f 348 341 340
f 341 350 342
f 350 343 342
f 351 344 343
f 352 337 344
f 353 346 345
f 346 355 347
f 355 348 347
f 356 349 348
f 357 350 349
f 358 351 350
f 359 352 351
f 352 353 345
f 361 354 353
f 362 355 354
f 363 356 355
f 364 357 356
f 365 358 357
f 366 359 358
f 367 360 359
f 368 353 360
f 369 362 361
f 370 363 362
f 363 372 364
f 372 365 364
f 373 366 365
f 374 367 366
f 375 368 367
f 376 361 368
f 369 378 370
f 378 371 370
f 379 372 371
f 380 373 372
f 381 374 373
f 374 383 375
f 383 376 375
f 384 369 376
f 377 386 378
f 386 379 378
f 387 380 379
f 380 389 381
f 389 382 381
f 390 383 382
f 391 384 383
f 392 377 384
f 393 386 385
f 394 387 386
f 395 388 387
f 396 389 388
f 397 390 389
f 390 399 391
f 391 400 392
f 392 393 385
f 393 402 394
f 402 395 394
f 403 396 395
f 404 397 396
f 405 398 397
f 398 407 399
f 407 400 399
f 408 393 400
f 409 402 401
f 410 403 402
f 411 404 403
f 412 405 404
f 405 414 406
f 414 407 406
f 415 408 407
f 416 401 408
f 409 418 410
f 410 419 411
f 419 412 411
f 420 413 412
f 421 414 413
f 422 415 414
f 423 416 415
f 424 409 416
f 425 418 417
f 426 419 418
f 427 420 419
f 428 421 420
f 421 430 422
f 430 423 422
f 431 424 423
f 432 417 424
f 433 426 425
f 426 435 427
f 435 428 427
f 436 429 428
f 437 430 429
f 438 431 430
f 439 432 431
f 432 433 425
f 441 434 433
f 442 435 434
f 443 436 435
f 444 437 436
f 445 438 437
f 446 439 438
f 447 440 439
f 448 433 440
f 449 442 441
f 450 443 442
f 443 452 444
f 452 445 444
f 453 446 445
f 454 447 446
f 455 448 447
f 456 441 448
f 449 458 450
f 458 451 450
f 459 452 451
f 460 453 452
f 461 454 453
f 454 463 455
f 463 456 455
f 464 449 456
f 457 466 458
f 466 459 458
f 467 460 459
f 460 469 461
f 469 462 461
f 470 463 462
f 471 464 463
f 472 457 464
f 473 466 465
f 474 467 466
f 475 468 467
f 476 469 468
f 477 470 469
f 470 479 471
f 471 480 472
f 472 473 465
f 473 482 474
f 482 475 474
f 483 476 475
f 484 477 476
f 485 478 477
f 478 487 479
f 487 480 479
f 488 473 480
f 489 482 481
f 490 483 482
f 491 484 483
f 492 485 484
f 485 494 486
f 494 487 486
f 495 488 487
f 496 481 488
f 489 498 490
f 490 499 491
f 499 492 491
f 500 493 492
f 501 494 493
f 502 495 494
f 503 496 495
f 504 489 496
f 505 498 497
f 506 499 498
f 507 500 499
f 508 501 500
f 501 510 502
f 510 503 502
f 511 504 503
f 512 497 504
f 513 506 505
f 506 515 507
f 515 508 507
f 516 509 508
f 517 510 509
f 518 511 510
f 519 512 511
f 512 513 505
f 521 514 513
f 522 515 514
f 523 516 515
f 524 517 516
f 525 518 517
f 526 519 518
f 527 520 519
f 528 513 520
f 529 522 521
f 530 523 522
f 523 532 524
f 532 525 524
f 533 526 525
f 534 527 526
f 535 528 527
f 536 521 528
f 529 538 530
f 538 531 530
f 539 532 531
f 540 533 532
f 541 534 533
f 534 543 535
f 543 536 535
f 544 529 536
f 537 546 538
f 546 539 538
f 547 540 539
f 540 549 541
f 549 542 541
f 550 543 542
f 551 544 543
f 552 537 544
f 553 546 545
f 554 547 546
f 555 548 547
f 556 549 548
f 557 550 549
f 550 559 551
f 551 560 552
f 552 553 545
f 553 562 554
f 562 555 554
f 563 556 555
f 564 557 556
f 565 558 557
f 558 567 559
f 567 560 559
f 568 553 560
f 569 562 561
f 570 563 562
f 571 564 563
f 572 565 564
f 565 574 566
f 574 567 566
f 575 568 567
f 576 561 568
f 569 578 570
f 570 579 571
f 579 572 571
f 580 573 572
f 581 574 573
f 582 575 574
f 583 576 575
f 584 569 576
f 585 578 577
f 586 579 578
f 587 580 579
f 588 581 580
f 581 590 582
f 590 583 582
f 591 584 583
f 592 577 584
f 593 586 585
f 586 595 587
f 595 588 587
f 596 589 588
f 597 590 589
f 598 591 590
f 599 592 591
f 592 593 585
f 601 594 593
f 602 595 594
f 603 596 595
f 604 597 596
f 605 598 597
f 606 599 598
f 607 600 599
f 608 593 600
f 609 602 601
f 610 603 602
f 603 612 604
f 612 605 604
f 613 606 605
f 614 607 606
f 615 608 607
f 616 601 608
f 609 618 610
f 618 611 610
f 619 612 611
f 620 613 612
f 621 614 613
f 614 623 615
f 623 616 615
f 624 609 616
f 617 626 618
f 626 619 618
f 627 620 619
f 620 629 621
f 629 622 621
f 630 623 622
f 631 624 623
f 632 617 624
f 633 626 625
f 634 627 626
f 635 628 627
f 636 629 628
f 637 630 629
f 630 639 631
f 631 640 632
f 632 633 625
f 633 322 634
f 322 635 634
f 323 636 635
f 324 637 636
f 325 638 637
f 638 327 639
f 327 640 639
f 328 633 640
f 9 10 2
f 10 11 3
f 3 11 12
f 4 12 13
f 13 14 6
f 14 15 7
f 15 16 8
f 16 9 1
f 17 18 10
f 18 19 11
f 19 20 12
f 20 21 13
f 21 22 14
f 22 23 15
f 23 24 16
f 16 24 17
f 25 26 18
f 26 27 19
f 27 28 20
f 28 29 21
f 29 30 22
f 30 31 23
f 23 31 32
f 24 32 25
f 33 34 26
f 34 35 27
f 27 35 36
f 36 37 29
f 37 38 30
f 38 39 31
f 31 39 40
f 40 33 25
f 41 42 34
f 42 43 35
f 43 44 36
f 44 45 37
f 37 45 46
f 46 47 39
f 39 47 48
f 48 41 33
f 49 50 42
f 42 50 51
f 51 52 44
f 52 53 45
f 53 54 46
f 54 55 47
f 55 56 48
f 56 49 41
f 57 58 50
f 50 58 59
f 59 60 52
f 60 61 53
f 61 62 54
f 54 62 63
f 63 64 56
f 64 57 49
f 57 65 66
f 58 66 67
f 67 68 60
f 60 68 69
f 69 70 62
f 70 71 63
f 71 72 64
f 72 65 57
f 65 73 74
f 66 74 75
f 75 76 68
f 68 76 77
f 77 78 70
f 78 79 71
f 79 80 72
f 80 73 65
f 81 82 74
f 82 83 75
f 83 84 76
f 84 85 77
f 85 86 78
f 78 86 87
f 87 88 80
f 88 81 73
f 89 90 82
f 90 91 83
f 83 91 92
f 84 92 93
f 93 94 86
f 94 95 87
f 95 96 88
f 96 89 81
f 97 98 90
f 98 99 91
f 99 100 92
f 100 101 93
f 101 102 94
f 102 103 95
f 103 104 96
f 96 104 97
f 105 106 98
f 106 107 99
f 107 108 100
f 108 109 101
f 109 110 102
f 110 111 103
f 103 111 112
f 104 112 105
f 113 114 106
f 114 115 107
f 107 115 116
f 116 117 109
f 117 118 110
f 118 119 111
f 111 119 120
f 120 113 105
f 121 122 114
f 122 123 115
f 123 124 116
f 124 125 117
f 117 125 126
f 126 127 119
f 119 127 128
f 128 121 113
f 129 130 122
f 122 130 131
f 131 132 124
f 132 133 125
f 133 134 126
f 134 135 127
f 135 136 128
f 136 129 121
f 137 138 130
f 130 138 139
f 139 140 132
f 140 141 133
f 141 142 134
f 134 142 143
f 143 144 136
f 144 137 129
f 137 145 146
f 138 146 147
f 147 148 140
f 140 148 149
f 149 150 142
f 150 151 143
f 151 152 144
f 152 145 137
f 145 153 154
f 146 154 155
f 155 156 148
f 148 156 157
f 157 158 150
f 158 159 151
f 159 160 152
f 160 153 145
f 161 162 154
f 162 163 155
f 163 164 156
f 164 165 157
f 165 166 158
f 158 166 167
f 167 168 160
f 168 161 153
f 169 170 162
f 170 171 163
f 163 171 172
f 164 172 173
f 173 174 166
f 174 175 167
f 175 176 168
f 176 169 161
f 177 178 170
f 178 179 171
f 179 180 172
f 180 181 173
f 181 182 174
f 182 183 175
f 183 184 176
f 176 184 177
f 185 186 178
f 186 187 179
f 187 188 180
f 188 189 181
f 189 190 182
f 190 191 183
f 183 191 192
f 184 192 185
f 193 194 186
f 194 195 187
f 187 195 196
f 196 197 189
f 197 198 190
f 198 199 191
f 191 199 200
f 200 193 185
f 201 202 194
f 202 203 195
f 203 204 196
f 204 205 197
f 197 205 206
f 206 207 199
f 199 207 208
f 208 201 193
f 209 210 202
f 202 210 211
f 211 212 204
f 212 213 205
f 213 214 206
f 214 215 207
f 215 216 208
f 216 209 201
f 217 218 210
f 210 218 219
f 219 220 212
f 220 221 213
f 221 222 214
f 214 222 223
f 223 224 216
f 224 217 209
f 217 225 226
f 218 226 227
f 227 228 220
f 220 228 229
f 229 230 222
f 230 231 223
f 231 232 224
f 232 225 217
f 225 233 234
f 226 234 235
f 235 236 228
f 228 236 237
f 237 238 230
f 238 239 231
f 239 240 232
f 240 233 225
f 241 242 234
f 242 243 235
f 243 244 236
f 244 245 237
f 245 246 238
f 238 246 247
f 247 248 240
f 248 241 233
f 249 250 242
f 250 251 243
f 243 251 252
f 244 252 253
f 253 254 246
f 254 255 247
f 255 256 248
f 256 249 241
f 257 258 250
f 258 259 251
f 259 260 252
f 260 261 253
f 261 262 254
f 262 263 255
f 263 264 256
f 256 264 257
f 265 266 258
f 266 267 259
f 267 268 260
f 268 269 261
f 269 270 262
f 270 271 263
f 263 271 272
f 264 272 265
f 273 274 266
f 274 275 267
f 267 275 276
f 276 277 269
f 277 278 270
f 278 279 271
f 271 279 280
f 280 273 265
f 281 282 274
f 282 283 275
f 283 284 276
f 284 285 277
f 277 285 286
f 286 287 279
f 279 287 288
f 288 281 273
f 289 290 282
f 282 290 291
f 291 292 284
f 292 293 285
f 293 294 286
f 294 295 287
f 295 296 288
f 296 289 281
f 297 298 290
f 290 298 299
f 299 300 292
f 300 301 293
f 301 302 294
f 294 302 303
f 303 304 296
f 304 297 289
f 297 305 306
f 298 306 307
f 307 308 300
f 300 308 309
f 309 310 302
f 310 311 303
f 311 312 304
f 312 305 297
f 305 313 314
f 306 314 315
f 315 316 308
f 308 316 317
f 317 318 310
f 318 319 311
f 319 320 312
f 320 313 305
f 1 2 314
f 2 3 315
f 3 4 316
f 4 5 317
f 5 6 318
f 318 6 7
f 7 8 320
f 8 1 313
f 329 330 322
f 330 331 323
f 331 332 324
f 332 333 325
f 325 333 334
f 334 335 327
f 335 336 328
f 336 329 321
f 329 337 338
f 330 338 339
f 339 340 332
f 340 341 333
f 341 342 334
f 342 343 335
f 343 344 336
f 344 337 329
f 345 346 338
f 346 347 339
f 347 348 340
f 348 349 341
f 341 349 350
f 350 351 343
f 351 352 344
f 352 345 337
f 353 354 346
f 346 354 355
f 355 356 348
f 356 357 349
f 357 358 350
f 358 359 351
f 359 360 352
f 352 360 353
f 361 362 354
f 362 363 355
f 363 364 356
f 364 365 357
f 365 366 358
f 366 367 359
f 367 368 360
f 368 361 353
f 369 370 362
f 370 371 363
f 363 371 372
f 372 373 365
f 373 374 366
f 374 375 367
f 375 376 368
f 376 369 361
f 369 377 378
f 378 379 371
f 379 380 372
f 380 381 373
f 381 382 374
f 374 382 383
f 383 384 376
f 384 377 369
f 377 385 386
f 386 387 379
f 387 388 380
f 380 388 389
f 389 390 382
f 390 391 383
f 391 392 384
f 392 385 377
f 393 394 386
f 394 395 387
f 395 396 388
f 396 397 389
f 397 398 390
f 390 398 399
f 391 399 400
f 392 400 393
f 393 401 402
f 402 403 395
f 403 404 396
f 404 405 397
f 405 406 398
f 398 406 407
f 407 408 400
f 408 401 393
f 409 410 402
f 410 411 403
f 411 412 404
f 412 413 405
f 405 413 414
f 414 415 407
f 415 416 408
f 416 409 401
f 409 417 418
f 410 418 419
f 419 420 412
f 420 421 413
f 421 422 414
f 422 423 415
f 423 424 416
f 424 417 409
f 425 426 418
f 426 427 419
f 427 428 420
f 428 429 421
f 421 429 430
f 430 431 423
f 431 432 424
f 432 425 417
f 433 434 426
f 426 434 435
f 435 436 428
f 436 437 429
f 437 438 430
f 438 439 431
f 439 440 432
f 432 440 433
f 441 442 434
f 442 443 435
f 443 444 436
f 444 445 437
f 445 446 438
f 446 447 439
f 447 448 440
f 448 441 433
f 449 450 442
f 450 451 443
f 443 451 452
f 452 453 445
f 453 454 446
f 454 455 447
f 455 456 448
f 456 449 441
f 449 457 458
f 458 459 451
f 459 460 452
f 460 461 453
f 461 462 454
f 454 462 463
f 463 464 456
f 464 457 449
f 457 465 466
f 466 467 459
f 467 468 460
f 460 468 469
f 469 470 462
f 470 471 463
f 471 472 464
f 472 465 457
f 473 474 466
f 474 475 467
f 475 476 468
f 476 477 469
f 477 478 470
f 470 478 479
f 471 479 480
f 472 480 473
f 473 481 482
f 482 483 475
f 483 484 476
f 484 485 477
f 485 486 478
f 478 486 487
f 487 488 480
f 488 481 473
f 489 490 482
f 490 491 483
f 491 492 484
f 492 493 485
f 485 493 494
f 494 495 487
f 495 496 488
f 496 489 481
f 489 497 498
f 490 498 499
f 499 500 492
f 500 501 493
f 501 502 494
f 502 503 495
f 503 504 496
f 504 497 489
f 505 506 498
f 506 507 499
f 507 508 500
f 508 509 501
f 501 509 510
f 510 511 503
f 511 512 504
f 512 505 497
f 513 514 506
f 506 514 515
f 515 516 508
f 516 517 509
f 517 518 510
f 518 519 511
f 519 520 512
f 512 520 513
f 521 522 514
f 522 523 515
f 523 524 516
f 524 525 517
f 525 526 518
f 526 527 519
f 527 528 520
f 528 521 513
f 529 530 522
f 530 531 523
f 523 531 532
f 532 533 525
f 533 534 526
f 534 535 527
f 535 536 528
f 536 529 521
f 529 537 538
f 538 539 531
f 539 540 532
f 540 541 533
f 541 542 534
f 534 542 543
f 543 544 536
f 544 537 529
f 537 545 546
f 546 547 539
f 547 548 540
f 540 548 549
f 549 550 542
f 550 551 543
f 551 552 544
f 552 545 537
f 553 554 546
f 554 555 547
f 555 556 548
f 556 557 549
f 557 558 550
f 550 558 559
f 551 559 560
f 552 560 553
f 553 561 562
f 562 563 555
f 563 564 556
f 564 565 557
f 565 566 558
f 558 566 567
f 567 568 560
f 568 561 553
f 569 570 562
f 570 571 563
f 571 572 564
f 572 573 565
f 565 573 574
f 574 575 567
f 575 576 568
f 576 569 561
f 569 577 578
f 570 578 579
f 579 580 572
f 580 581 573
f 581 582 574
f 582 583 575
f 583 584 576
f 584 577 569
f 585 586 578
f 586 587 579
f 587 588 580
f 588 589 581
f 581 589 590
f 590 591 583
f 591 592 584
f 592 585 577
f 593 594 586
f 586 594 595
f 595 596 588
f 596 597 589
f 597 598 590
f 598 599 591
f 599 600 592
f 592 600 593
f 601 602 594
f 602 603 595
f 603 604 596
f 604 605 597
f 605 606 598
f 606 607 599
f 607 608 600
f 608 601 593
f 609 610 602
f 610 611 603
f 603 611 612
f 612 613 605
f 613 614 606
f 614 615 607
f 615 616 608
f 616 609 601
f 609 617 618
f 618 619 611
f 619 620 612
f 620 621 613
f 621 622 614
f 614 622 623
f 623 624 616
f 624 617 609
f 617 625 626
f 626 627 619
f 627 628 620
f 620 628 629
f 629 630 622
f 630 631 623
f 631 632 624
f 632 625 617
f 633 634 626
f 634 635 627
f 635 636 628
f 636 637 629
f 637 638 630
f 630 638 639
f 631 639 640
f 632 640 633
f 633 321 322
f 322 323 635
f 323 324 636
f 324 325 637
f 325 326 638
f 638 326 327
f 327 328 640
f 328 321 633
