# beta_pocket Rim_Magenta.obj: Roblox cue frame, recentred on its bounding box
v 1.21776 0.01496 -0.10653
v 1.23954 0.00000 -0.10962
v 1.21776 -0.01496 -0.10653
v 1.19597 0.00000 -0.10343
v 1.19926 0.01496 -0.23667
v 1.22084 0.00000 -0.24094
v 1.19926 -0.01496 -0.23667
v 1.17768 0.00000 -0.23241
v 1.16687 0.01496 -0.36407
v 1.18787 0.00000 -0.37063
v 1.16687 -0.01496 -0.36407
v 1.14587 0.00000 -0.35751
v 1.12096 0.01496 -0.48724
v 1.14113 0.00000 -0.49603
v 1.12096 -0.01496 -0.48724
v 1.10079 0.00000 -0.47846
v 1.06207 0.01496 -0.60476
v 1.08118 0.00000 -0.61567
v 1.06207 -0.01496 -0.60476
v 1.04296 0.00000 -0.59386
v 0.99087 0.01496 -0.71527
v 1.00869 0.00000 -0.72816
v 0.99087 -0.01496 -0.71527
v 0.97304 0.00000 -0.70237
v 0.90820 0.01496 -0.81747
v 0.92453 0.00000 -0.83220
v 0.90820 -0.01496 -0.81747
v 0.89186 0.00000 -0.80273
v 0.81501 0.01496 -0.91018
v 0.82966 0.00000 -0.92659
v 0.81501 -0.01496 -0.91018
v 0.80035 0.00000 -0.89377
v 0.71238 0.01496 -0.99233
v 0.72519 0.00000 -1.01022
v 0.71238 -0.01496 -0.99233
v 0.69958 0.00000 -0.97443
v 0.60152 0.01496 -1.06295
v 0.61232 0.00000 -1.08212
v 0.60152 -0.01496 -1.06295
v 0.59071 0.00000 -1.04379
v 0.48370 0.01496 -1.12125
v 0.49238 0.00000 -1.14146
v 0.48370 -0.01496 -1.12125
v 0.47502 0.00000 -1.10103
v 0.36029 0.01496 -1.16652
v 0.36674 0.00000 -1.18755
v 0.36029 -0.01496 -1.16652
v 0.35384 0.00000 -1.14549
v 0.23273 0.01496 -1.19826
v 0.23688 0.00000 -1.21986
v 0.23273 -0.01496 -1.19826
v 0.22857 0.00000 -1.17665
v 0.10249 0.01496 -1.21608
v 0.10429 0.00000 -1.23801
v 0.10249 -0.01496 -1.21608
v 0.10068 0.00000 -1.19416
v -0.02891 0.01496 -1.21979
v -0.02948 0.00000 -1.24179
v -0.02891 -0.01496 -1.21979
v -0.02835 0.00000 -1.19780
v -0.15995 0.01496 -1.20935
v -0.16288 0.00000 -1.23115
v -0.15995 -0.01496 -1.20935
v -0.15702 0.00000 -1.18754
v -0.28910 0.01496 -1.18486
v -0.29436 0.00000 -1.20622
v -0.28910 -0.01496 -1.18486
v -0.28384 0.00000 -1.16350
v -0.41487 0.01496 -1.14662
v -0.42127 0.00000 -1.16767
v -0.41487 -0.01496 -1.14662
v -0.40847 0.00000 -1.12557
v 1.21776 0.00000 -0.10653
v -0.41487 0.00000 -1.14662
v -0.69737 0.01496 -0.99956
v -0.71094 0.00000 -1.01688
v -0.69737 -0.01496 -0.99956
v -0.68379 0.00000 -0.98225
v -0.80083 0.01496 -0.91847
v -0.81531 0.00000 -0.93503
v -0.80083 -0.01496 -0.91847
v -0.78634 0.00000 -0.90191
v -0.89496 0.01496 -0.82672
v -0.91114 0.00000 -0.84163
v -0.89496 -0.01496 -0.82672
v -0.87878 0.00000 -0.81182
v -0.97868 0.01496 -0.72538
v -0.99637 0.00000 -0.73845
v -0.97868 -0.01496 -0.72538
v -0.96099 0.00000 -0.71230
v -1.05101 0.01496 -0.61561
v -1.07000 0.00000 -0.62671
v -1.05101 -0.01496 -0.61561
v -1.03201 0.00000 -0.60451
v -1.11111 0.01496 -0.49870
v -1.13119 0.00000 -0.50769
v -1.11111 -0.01496 -0.49870
v -1.09103 0.00000 -0.48971
v -1.15828 0.01496 -0.37601
v -1.17921 0.00000 -0.38278
v -1.15828 -0.01496 -0.37601
v -1.13735 0.00000 -0.36923
v -1.19197 0.01496 -0.24895
v -1.21351 0.00000 -0.25343
v -1.19197 -0.01496 -0.24895
v -1.17044 0.00000 -0.24446
v -1.21180 0.01496 -0.11900
v -1.23370 0.00000 -0.12114
v -1.21180 -0.01496 -0.11900
v -1.18991 0.00000 -0.11686
v -1.21754 0.01496 0.01233
v -1.23954 0.00000 0.01255
v -1.21754 -0.01496 0.01233
v -1.19554 0.00000 0.01210
v -1.20911 0.01496 0.14351
v -1.23096 0.00000 0.14610
v -1.20911 -0.01496 0.14351
v -1.18726 0.00000 0.14092
v -1.18661 0.01496 0.27302
v -1.20806 0.00000 0.27795
v -1.18661 -0.01496 0.27302
v -1.16517 0.00000 0.26810
v -1.15032 0.01496 0.39936
v -1.17110 0.00000 0.40657
v -1.15032 -0.01496 0.39936
v -1.12953 0.00000 0.39216
v -1.10064 0.01496 0.52107
v -1.12053 0.00000 0.53047
v -1.10064 -0.01496 0.52107
v -1.08075 0.00000 0.51167
v -1.03815 0.01496 0.63672
v -1.05691 0.00000 0.64820
v -1.03815 -0.01496 0.63672
v -1.01939 0.00000 0.62523
v -0.96358 0.01496 0.74497
v -0.98100 0.00000 0.75841
v -0.96358 -0.01496 0.74497
v -0.94616 0.00000 0.73154
v -0.87780 0.01496 0.84458
v -0.89368 0.00000 0.85981
v -0.87780 -0.01496 0.84458
v -0.86193 0.00000 0.82935
v -0.78180 0.01496 0.93438
v -0.79683 0.00000 0.95044
v -0.78180 -0.01496 0.93438
v -0.76677 0.00000 0.91831
v -0.69737 0.00000 -0.99956
v -0.78180 0.00000 0.93438
v -0.51320 0.01496 1.10550
v -0.52141 0.00000 1.12591
v -0.51320 -0.01496 1.10550
v -0.50499 0.00000 1.08509
v -0.39124 0.01496 1.15455
v -0.39834 0.00000 1.17538
v -0.39124 -0.01496 1.15455
v -0.38414 0.00000 1.13373
v -0.26471 0.01496 1.19020
v -0.26953 0.00000 1.21167
v -0.26471 -0.01496 1.19020
v -0.25990 0.00000 1.16874
v -0.13509 0.01496 1.21203
v -0.13757 0.00000 1.23389
v -0.13509 -0.01496 1.21203
v -0.13261 0.00000 1.19017
v -0.00386 0.01496 1.21979
v -0.00398 0.00000 1.24179
v -0.00386 -0.01496 1.21979
v -0.00375 0.00000 1.19779
v 0.12743 0.01496 1.21338
v 0.12969 0.00000 1.23526
v 0.12743 -0.01496 1.21338
v 0.12518 0.00000 1.19150
v 0.25728 0.01496 1.19288
v 0.26187 0.00000 1.21440
v 0.25728 -0.01496 1.19288
v 0.25268 0.00000 1.17137
v 0.38416 0.01496 1.15853
v 0.39104 0.00000 1.17943
v 0.38416 -0.01496 1.15853
v 0.37728 0.00000 1.13764
v 0.50661 0.01496 1.11073
v 0.51571 0.00000 1.13077
v 0.50661 -0.01496 1.11073
v 0.49752 0.00000 1.09070
v 0.62321 0.01496 1.05004
v 0.63441 0.00000 1.06898
v 0.62321 -0.01496 1.05004
v 0.61202 0.00000 1.03110
v 0.73260 0.01496 0.97715
v 0.74577 0.00000 0.99477
v 0.73260 -0.01496 0.97715
v 0.71944 0.00000 0.95952
v 0.83352 0.01496 0.89291
v 0.84851 0.00000 0.90901
v 0.83352 -0.01496 0.89291
v 0.81853 0.00000 0.87680
v 0.92479 0.01496 0.79830
v 0.94142 0.00000 0.81270
v 0.92479 -0.01496 0.79830
v 0.90815 0.00000 0.78390
v 1.00534 0.01496 0.69443
v 1.02343 0.00000 0.70695
v 1.00534 -0.01496 0.69443
v 0.98726 0.00000 0.68190
v 1.07426 0.01496 0.58249
v 1.09358 0.00000 0.59300
v 1.07426 -0.01496 0.58249
v 1.05493 0.00000 0.57198
v 1.13073 0.01496 0.46378
v 1.15107 0.00000 0.47215
v 1.13073 -0.01496 0.46378
v 1.11038 0.00000 0.45542
v 1.17410 0.01496 0.33969
v 1.19522 0.00000 0.34582
v 1.17410 -0.01496 0.33969
v 1.15297 0.00000 0.33356
v 1.20386 0.01496 0.21165
v 1.22529 0.00000 0.21664
v 1.20386 -0.01496 0.21165
v 1.18243 0.00000 0.20667
v -0.51320 0.00000 1.10550
v 1.20386 0.00000 0.21165
s 1
f 2 5 1
s 1
f 2 7 6
s 1
f 3 8 7
s 1
f 1 8 4
s 1
f 6 9 5
s 1
f 7 10 6
s 1
f 8 11 7
s 1
f 8 9 12
s 1
f 9 14 13
s 1
f 11 14 10
s 1
f 12 15 11
s 1
f 12 13 16
s 1
f 14 17 13
s 1
f 15 18 14
s 1
f 15 20 19
s 1
f 13 20 16
s 1
f 18 21 17
s 1
f 19 22 18
s 1
f 20 23 19
s 1
f 20 21 24
s 1
f 22 25 21
s 1
f 22 27 26
s 1
f 24 27 23
s 1
f 21 28 24
s 1
f 26 29 25
s 1
f 26 31 30
s 1
f 27 32 31
s 1
f 28 29 32
s 1
f 29 34 33
s 1
f 31 34 30
s 1
f 31 36 35
s 1
f 29 36 32
s 1
f 33 38 37
s 1
f 34 39 38
s 1
f 35 40 39
s 1
f 33 40 36
s 1
f 37 42 41
s 1
f 38 43 42
s 1
f 40 43 39
s 1
f 40 41 44
s 1
f 41 46 45
s 1
f 43 46 42
s 1
f 44 47 43
s 1
f 44 45 48
s 1
f 46 49 45
s 1
f 46 51 50
s 1
f 48 51 47
s 1
f 45 52 48
s 1
f 49 54 53
s 1
f 51 54 50
s 1
f 52 55 51
s 1
f 49 56 52
s 1
f 54 57 53
s 1
f 54 59 58
s 1
f 56 59 55
s 1
f 56 57 60
s 1
f 57 62 61
s 1
f 59 62 58
s 1
f 59 64 63
s 1
f 57 64 60
s 1
f 62 65 61
s 1
f 63 66 62
s 1
f 64 67 63
s 1
f 61 68 64
s 1
f 65 70 69
s 1
f 67 70 66
s 1
f 68 71 67
s 1
f 68 69 72
s 1
f 73 2 1
s 1
f 73 3 2
s 1
f 73 4 3
s 1
f 73 1 4
s 1
f 69 70 74
s 1
f 70 71 74
s 1
f 71 72 74
s 1
f 72 69 74
s 1
f 76 79 75
s 1
f 76 81 80
s 1
f 77 82 81
s 1
f 75 82 78
s 1
f 80 83 79
s 1
f 81 84 80
s 1
f 81 86 85
s 1
f 79 86 82
s 1
f 84 87 83
s 1
f 85 88 84
s 1
f 86 89 85
s 1
f 86 87 90
s 1
f 87 92 91
s 1
f 89 92 88
s 1
f 89 94 93
s 1
f 87 94 90
s 1
f 91 96 95
s 1
f 93 96 92
s 1
f 93 98 97
s 1
f 91 98 94
s 1
f 95 100 99
s 1
f 96 101 100
s 1
f 98 101 97
s 1
f 95 102 98
s 1
f 100 103 99
s 1
f 101 104 100
s 1
f 102 105 101
s 1
f 99 106 102
s 1
f 103 108 107
s 1
f 105 108 104
s 1
f 106 109 105
s 1
f 103 110 106
s 1
f 108 111 107
s 1
f 109 112 108
s 1
f 110 113 109
s 1
f 110 111 114
s 1
f 111 116 115
s 1
f 113 116 112
s 1
f 114 117 113
s 1
f 111 118 114
s 1
f 116 119 115
s 1
f 117 120 116
s 1
f 118 121 117
s 1
f 118 119 122
s 1
f 119 124 123
s 1
f 121 124 120
s 1
f 122 125 121
s 1
f 119 126 122
s 1
f 124 127 123
s 1
f 124 129 128
s 1
f 126 129 125
s 1
f 123 130 126
s 1
f 128 131 127
s 1
f 129 132 128
s 1
f 130 133 129
s 1
f 130 131 134
s 1
f 132 135 131
s 1
f 133 136 132
s 1
f 134 137 133
s 1
f 131 138 134
s 1
f 136 139 135
s 1
f 137 140 136
s 1
f 138 141 137
s 1
f 138 139 142
s 1
f 139 144 143
s 1
f 141 144 140
s 1
f 142 145 141
s 1
f 142 143 146
s 1
f 147 76 75
s 1
f 147 77 76
s 1
f 147 78 77
s 1
f 147 75 78
s 1
f 143 144 148
s 1
f 144 145 148
s 1
f 145 146 148
s 1
f 146 143 148
s 1
f 150 153 149
s 1
f 150 155 154
s 1
f 151 156 155
s 1
f 149 156 152
s 1
f 154 157 153
s 1
f 154 159 158
s 1
f 156 159 155
s 1
f 153 160 156
s 1
f 158 161 157
s 1
f 159 162 158
s 1
f 159 164 163
s 1
f 157 164 160
s 1
f 162 165 161
s 1
f 163 166 162
s 1
f 164 167 163
s 1
f 161 168 164
s 1
f 166 169 165
s 1
f 167 170 166
s 1
f 168 171 167
s 1
f 165 172 168
s 1
f 170 173 169
s 1
f 171 174 170
s 1
f 171 176 175
s 1
f 169 176 172
s 1
f 174 177 173
s 1
f 175 178 174
s 1
f 176 179 175
s 1
f 173 180 176
s 1
f 178 181 177
s 1
f 178 183 182
s 1
f 179 184 183
s 1
f 177 184 180
s 1
f 181 186 185
s 1
f 183 186 182
s 1
f 184 187 183
s 1
f 181 188 184
s 1
f 186 189 185
s 1
f 187 190 186
s 1
f 188 191 187
s 1
f 188 189 192
s 1
f 190 193 189
s 1
f 190 195 194
s 1
f 191 196 195
s 1
f 189 196 192
s 1
f 194 197 193
s 1
f 195 198 194
s 1
f 195 200 199
s 1
f 196 197 200
s 1
f 198 201 197
s 1
f 199 202 198
s 1
f 199 204 203
s 1
f 197 204 200
s 1
f 201 206 205
s 1
f 203 206 202
s 1
f 204 207 203
s 1
f 204 205 208
s 1
f 206 209 205
s 1
f 206 211 210
s 1
f 207 212 211
s 1
f 205 212 208
s 1
f 210 213 209
s 1
f 210 215 214
s 1
f 211 216 215
s 1
f 209 216 212
s 1
f 213 218 217
s 1
f 215 218 214
s 1
f 216 219 215
s 1
f 216 217 220
s 1
f 221 150 149
s 1
f 221 151 150
s 1
f 221 152 151
s 1
f 221 149 152
s 1
f 217 218 222
s 1
f 218 219 222
s 1
f 219 220 222
s 1
f 220 217 222
s 1
f 2 6 5
s 1
f 2 3 7
s 1
f 3 4 8
s 1
f 1 5 8
s 1
f 6 10 9
s 1
f 7 11 10
s 1
f 8 12 11
s 1
f 8 5 9
s 1
f 9 10 14
s 1
f 11 15 14
s 1
f 12 16 15
s 1
f 12 9 13
s 1
f 14 18 17
s 1
f 15 19 18
s 1
f 15 16 20
s 1
f 13 17 20
s 1
f 18 22 21
s 1
f 19 23 22
s 1
f 20 24 23
s 1
f 20 17 21
s 1
f 22 26 25
s 1
f 22 23 27
s 1
f 24 28 27
s 1
f 21 25 28
s 1
f 26 30 29
s 1
f 26 27 31
s 1
f 27 28 32
s 1
f 28 25 29
s 1
f 29 30 34
s 1
f 31 35 34
s 1
f 31 32 36
s 1
f 29 33 36
s 1
f 33 34 38
s 1
f 34 35 39
s 1
f 35 36 40
s 1
f 33 37 40
s 1
f 37 38 42
s 1
f 38 39 43
s 1
f 40 44 43
s 1
f 40 37 41
s 1
f 41 42 46
s 1
f 43 47 46
s 1
f 44 48 47
s 1
f 44 41 45
s 1
f 46 50 49
s 1
f 46 47 51
s 1
f 48 52 51
s 1
f 45 49 52
s 1
f 49 50 54
s 1
f 51 55 54
s 1
f 52 56 55
s 1
f 49 53 56
s 1
f 54 58 57
s 1
f 54 55 59
s 1
f 56 60 59
s 1
f 56 53 57
s 1
f 57 58 62
s 1
f 59 63 62
s 1
f 59 60 64
s 1
f 57 61 64
s 1
f 62 66 65
s 1
f 63 67 66
s 1
f 64 68 67
s 1
f 61 65 68
s 1
f 65 66 70
s 1
f 67 71 70
s 1
f 68 72 71
s 1
f 68 65 69
s 1
f 76 80 79
s 1
f 76 77 81
s 1
f 77 78 82
s 1
f 75 79 82
s 1
f 80 84 83
s 1
f 81 85 84
s 1
f 81 82 86
s 1
f 79 83 86
s 1
f 84 88 87
s 1
f 85 89 88
s 1
f 86 90 89
s 1
f 86 83 87
s 1
f 87 88 92
s 1
f 89 93 92
s 1
f 89 90 94
s 1
f 87 91 94
s 1
f 91 92 96
s 1
f 93 97 96
s 1
f 93 94 98
s 1
f 91 95 98
s 1
f 95 96 100
s 1
f 96 97 101
s 1
f 98 102 101
s 1
f 95 99 102
s 1
f 100 104 103
s 1
f 101 105 104
s 1
f 102 106 105
s 1
f 99 103 106
s 1
f 103 104 108
s 1
f 105 109 108
s 1
f 106 110 109
s 1
f 103 107 110
s 1
f 108 112 111
s 1
f 109 113 112
s 1
f 110 114 113
s 1
f 110 107 111
s 1
f 111 112 116
s 1
f 113 117 116
s 1
f 114 118 117
s 1
f 111 115 118
s 1
f 116 120 119
s 1
f 117 121 120
s 1
f 118 122 121
s 1
f 118 115 119
s 1
f 119 120 124
s 1
f 121 125 124
s 1
f 122 126 125
s 1
f 119 123 126
s 1
f 124 128 127
s 1
f 124 125 129
s 1
f 126 130 129
s 1
f 123 127 130
s 1
f 128 132 131
s 1
f 129 133 132
s 1
f 130 134 133
s 1
f 130 127 131
s 1
f 132 136 135
s 1
f 133 137 136
s 1
f 134 138 137
s 1
f 131 135 138
s 1
f 136 140 139
s 1
f 137 141 140
s 1
f 138 142 141
s 1
f 138 135 139
s 1
f 139 140 144
s 1
f 141 145 144
s 1
f 142 146 145
s 1
f 142 139 143
s 1
f 150 154 153
s 1
f 150 151 155
s 1
f 151 152 156
s 1
f 149 153 156
s 1
f 154 158 157
s 1
f 154 155 159
s 1
f 156 160 159
s 1
f 153 157 160
s 1
f 158 162 161
s 1
f 159 163 162
s 1
f 159 160 164
s 1
f 157 161 164
s 1
f 162 166 165
s 1
f 163 167 166
s 1
f 164 168 167
s 1
f 161 165 168
s 1
f 166 170 169
s 1
f 167 171 170
s 1
f 168 172 171
s 1
f 165 169 172
s 1
f 170 174 173
s 1
f 171 175 174
s 1
f 171 172 176
s 1
f 169 173 176
s 1
f 174 178 177
s 1
f 175 179 178
s 1
f 176 180 179
s 1
f 173 177 180
s 1
f 178 182 181
s 1
f 178 179 183
s 1
f 179 180 184
s 1
f 177 181 184
s 1
f 181 182 186
s 1
f 183 187 186
s 1
f 184 188 187
s 1
f 181 185 188
s 1
f 186 190 189
s 1
f 187 191 190
s 1
f 188 192 191
s 1
f 188 185 189
s 1
f 190 194 193
s 1
f 190 191 195
s 1
f 191 192 196
s 1
f 189 193 196
s 1
f 194 198 197
s 1
f 195 199 198
s 1
f 195 196 200
s 1
f 196 193 197
s 1
f 198 202 201
s 1
f 199 203 202
s 1
f 199 200 204
s 1
f 197 201 204
s 1
f 201 202 206
s 1
f 203 207 206
s 1
f 204 208 207
s 1
f 204 201 205
s 1
f 206 210 209
s 1
f 206 207 211
s 1
f 207 208 212
s 1
f 205 209 212
s 1
f 210 214 213
s 1
f 210 211 215
s 1
f 211 212 216
s 1
f 209 213 216
s 1
f 213 214 218
s 1
f 215 219 218
s 1
f 216 220 219
s 1
f 216 213 217
