# beta_pocket Scan0_Ice.obj: Roblox cue frame, recentred on its bounding box
v 0.70001 0.01020 0.00000
v 0.71499 0.00000 -0.00079
v 0.70001 -0.01020 -0.00000
v 0.68503 0.00000 0.00079
v 0.69618 0.01020 -0.07317
v 0.71109 0.00000 -0.07474
v 0.69618 -0.01020 -0.07317
v 0.68126 0.00000 -0.07160
v 0.68471 0.01020 -0.14554
v 0.69939 0.00000 -0.14866
v 0.68471 -0.01020 -0.14554
v 0.67004 0.00000 -0.14242
v 0.66575 0.01020 -0.21631
v 0.68002 0.00000 -0.22095
v 0.66575 -0.01020 -0.21631
v 0.65148 0.00000 -0.21168
v 0.63949 0.01020 -0.28472
v 0.65320 0.00000 -0.29082
v 0.63949 -0.01020 -0.28472
v 0.62579 0.00000 -0.27861
v 0.60623 0.01020 -0.35000
v 0.61922 0.00000 -0.35750
v 0.60623 -0.01020 -0.35000
v 0.59324 0.00000 -0.34250
v 0.56632 0.01020 -0.41145
v 0.57846 0.00000 -0.42027
v 0.56632 -0.01020 -0.41145
v 0.55419 0.00000 -0.40263
v 0.52021 0.01020 -0.46839
v 0.53136 0.00000 -0.47843
v 0.52021 -0.01020 -0.46839
v 0.50906 0.00000 -0.45835
v 0.46840 0.01020 -0.52020
v 0.47844 0.00000 -0.53135
v 0.46840 -0.01020 -0.52020
v 0.45836 0.00000 -0.50905
v 0.41146 0.01020 -0.56631
v 0.42028 0.00000 -0.57845
v 0.41146 -0.01020 -0.56631
v 0.40264 0.00000 -0.55418
v 0.35001 0.01020 -0.60622
v 0.35751 0.00000 -0.61921
v 0.35001 -0.01020 -0.60622
v 0.34251 0.00000 -0.59323
v 0.28473 0.01020 -0.63948
v 0.29083 0.00000 -0.65318
v 0.28473 -0.01020 -0.63948
v 0.27862 0.00000 -0.62578
v 0.21632 0.01020 -0.66574
v 0.22096 0.00000 -0.68001
v 0.21632 -0.01020 -0.66574
v 0.21169 0.00000 -0.65147
v 0.14555 0.01020 -0.68470
v 0.14867 0.00000 -0.69938
v 0.14555 -0.01020 -0.68470
v 0.14243 0.00000 -0.67003
v 0.07318 0.01020 -0.69617
v 0.07475 0.00000 -0.71108
v 0.07318 -0.01020 -0.69617
v 0.07161 0.00000 -0.68125
v 0.00001 0.01020 -0.70000
v 0.00001 0.00000 -0.71500
v 0.00001 -0.01020 -0.70000
v 0.00001 0.00000 -0.68500
v -0.07316 0.01020 -0.69617
v -0.07473 0.00000 -0.71108
v -0.07316 -0.01020 -0.69617
v -0.07159 0.00000 -0.68125
v -0.14553 0.01020 -0.68470
v -0.14865 0.00000 -0.69938
v -0.14553 -0.01020 -0.68470
v -0.14241 0.00000 -0.67003
v -0.21630 0.01020 -0.66574
v -0.22094 0.00000 -0.68001
v -0.21630 -0.01020 -0.66574
v -0.21167 0.00000 -0.65147
v -0.28471 0.01020 -0.63948
v -0.29081 0.00000 -0.65318
v -0.28471 -0.01020 -0.63948
v -0.27860 0.00000 -0.62578
v -0.34999 0.01020 -0.60622
v -0.35749 0.00000 -0.61921
v -0.34999 -0.01020 -0.60622
v -0.34249 0.00000 -0.59323
v -0.41144 0.01020 -0.56631
v -0.42026 0.00000 -0.57845
v -0.41144 -0.01020 -0.56631
v -0.40262 0.00000 -0.55418
v -0.46838 0.01020 -0.52020
v -0.47842 0.00000 -0.53135
v -0.46838 -0.01020 -0.52020
v -0.45834 0.00000 -0.50905
v -0.52019 0.01020 -0.46839
v -0.53134 0.00000 -0.47843
v -0.52019 -0.01020 -0.46839
v -0.50904 0.00000 -0.45835
v -0.56630 0.01020 -0.41145
v -0.57844 0.00000 -0.42027
v -0.56630 -0.01020 -0.41145
v -0.55417 0.00000 -0.40263
v -0.60621 0.01020 -0.35000
v -0.61920 0.00000 -0.35750
v -0.60621 -0.01020 -0.35000
v -0.59322 0.00000 -0.34250
v -0.63947 0.01020 -0.28472
v -0.65317 0.00000 -0.29082
v -0.63947 -0.01020 -0.28472
v -0.62577 0.00000 -0.27861
v -0.66573 0.01020 -0.21631
v -0.68000 0.00000 -0.22095
v -0.66573 -0.01020 -0.21631
v -0.65146 0.00000 -0.21168
v -0.68469 0.01020 -0.14554
v -0.69937 0.00000 -0.14866
v -0.68469 -0.01020 -0.14554
v -0.67002 0.00000 -0.14242
v -0.69616 0.01020 -0.07317
v -0.71107 0.00000 -0.07474
v -0.69616 -0.01020 -0.07317
v -0.68124 0.00000 -0.07160
v -0.69999 0.01020 -0.00000
v -0.71499 0.00000 -0.00000
v -0.69999 -0.01020 -0.00000
v -0.68499 0.00000 -0.00000
v -0.69616 0.01020 0.07317
v -0.71107 0.00000 0.07474
v -0.69616 -0.01020 0.07317
v -0.68124 0.00000 0.07160
v -0.68469 0.01020 0.14554
v -0.69937 0.00000 0.14866
v -0.68469 -0.01020 0.14554
v -0.67002 0.00000 0.14242
v -0.66573 0.01020 0.21631
v -0.68000 0.00000 0.22095
v -0.66573 -0.01020 0.21631
v -0.65146 0.00000 0.21168
v -0.63947 0.01020 0.28472
v -0.65317 0.00000 0.29082
v -0.63947 -0.01020 0.28472
v -0.62577 0.00000 0.27861
v -0.60621 0.01020 0.35000
v -0.61920 0.00000 0.35750
v -0.60621 -0.01020 0.35000
v -0.59322 0.00000 0.34250
v -0.56630 0.01020 0.41145
v -0.57844 0.00000 0.42027
v -0.56630 -0.01020 0.41145
v -0.55417 0.00000 0.40263
v -0.52019 0.01020 0.46839
v -0.53134 0.00000 0.47843
v -0.52019 -0.01020 0.46839
v -0.50904 0.00000 0.45835
v -0.46838 0.01020 0.52020
v -0.47842 0.00000 0.53135
v -0.46838 -0.01020 0.52020
v -0.45834 0.00000 0.50905
v -0.41144 0.01020 0.56631
v -0.42026 0.00000 0.57845
v -0.41144 -0.01020 0.56631
v -0.40262 0.00000 0.55418
v -0.34999 0.01020 0.60622
v -0.35749 0.00000 0.61921
v -0.34999 -0.01020 0.60622
v -0.34249 0.00000 0.59323
v -0.28471 0.01020 0.63948
v -0.29081 0.00000 0.65318
v -0.28471 -0.01020 0.63948
v -0.27860 0.00000 0.62578
v -0.21630 0.01020 0.66574
v -0.22094 0.00000 0.68001
v -0.21630 -0.01020 0.66574
v -0.21167 0.00000 0.65147
v -0.14553 0.01020 0.68470
v -0.14865 0.00000 0.69938
v -0.14553 -0.01020 0.68470
v -0.14241 0.00000 0.67003
v -0.07316 0.01020 0.69617
v -0.07473 0.00000 0.71108
v -0.07316 -0.01020 0.69617
v -0.07159 0.00000 0.68125
v 0.00001 0.01020 0.70000
v 0.00001 0.00000 0.71500
v 0.00001 -0.01020 0.70000
v 0.00001 0.00000 0.68500
v 0.07318 0.01020 0.69617
v 0.07475 0.00000 0.71108
v 0.07318 -0.01020 0.69617
v 0.07161 0.00000 0.68125
v 0.14555 0.01020 0.68470
v 0.14867 0.00000 0.69938
v 0.14555 -0.01020 0.68470
v 0.14243 0.00000 0.67003
v 0.21632 0.01020 0.66574
v 0.22096 0.00000 0.68001
v 0.21632 -0.01020 0.66574
v 0.21169 0.00000 0.65147
v 0.28473 0.01020 0.63948
v 0.29083 0.00000 0.65318
v 0.28473 -0.01020 0.63948
v 0.27862 0.00000 0.62578
v 0.35001 0.01020 0.60622
v 0.35751 0.00000 0.61921
v 0.35001 -0.01020 0.60622
v 0.34251 0.00000 0.59323
v 0.41146 0.01020 0.56631
v 0.42028 0.00000 0.57845
v 0.41146 -0.01020 0.56631
v 0.40264 0.00000 0.55418
v 0.46840 0.01020 0.52020
v 0.47844 0.00000 0.53135
v 0.46840 -0.01020 0.52020
v 0.45836 0.00000 0.50905
v 0.52021 0.01020 0.46839
v 0.53136 0.00000 0.47843
v 0.52021 -0.01020 0.46839
v 0.50906 0.00000 0.45835
v 0.56632 0.01020 0.41145
v 0.57846 0.00000 0.42027
v 0.56632 -0.01020 0.41145
v 0.55419 0.00000 0.40263
v 0.60623 0.01020 0.35000
v 0.61922 0.00000 0.35750
v 0.60623 -0.01020 0.35000
v 0.59324 0.00000 0.34250
v 0.63949 0.01020 0.28472
v 0.65320 0.00000 0.29082
v 0.63949 -0.01020 0.28472
v 0.62579 0.00000 0.27861
v 0.66575 0.01020 0.21631
v 0.68002 0.00000 0.22095
v 0.66575 -0.01020 0.21631
v 0.65148 0.00000 0.21168
v 0.68471 0.01020 0.14554
v 0.69939 0.00000 0.14866
v 0.68471 -0.01020 0.14554
v 0.67004 0.00000 0.14242
v 0.69618 0.01020 0.07317
v 0.71109 0.00000 0.07474
v 0.69618 -0.01020 0.07317
v 0.68126 0.00000 0.07160
v 0.70001 0.01020 0.00000
v 0.71499 0.00000 0.00079
v 0.70001 -0.01020 0.00000
v 0.68503 0.00000 -0.00079
v 0.70001 0.00000 0.00000
v 0.70001 0.00000 0.00000
s 1
f 2 5 1
s 1
f 2 7 6
s 1
f 3 8 7
s 1
f 1 8 4
s 1
f 6 9 5
s 1
f 7 10 6
s 1
f 8 11 7
s 1
f 5 12 8
s 1
f 10 13 9
s 1
f 11 14 10
s 1
f 12 15 11
s 1
f 12 13 16
s 1
f 13 18 17
s 1
f 15 18 14
s 1
f 16 19 15
s 1
f 13 20 16
s 1
f 18 21 17
s 1
f 18 23 22
s 1
f 19 24 23
s 1
f 17 24 20
s 1
f 21 26 25
s 1
f 23 26 22
s 1
f 24 27 23
s 1
f 21 28 24
s 1
f 25 30 29
s 1
f 27 30 26
s 1
f 28 31 27
s 1
f 28 29 32
s 1
f 30 33 29
s 1
f 31 34 30
s 1
f 32 35 31
s 1
f 32 33 36
s 1
f 34 37 33
s 1
f 34 39 38
s 1
f 36 39 35
s 1
f 36 37 40
s 1
f 38 41 37
s 1
f 39 42 38
s 1
f 40 43 39
s 1
f 37 44 40
s 1
f 42 45 41
s 1
f 43 46 42
s 1
f 44 47 43
s 1
f 44 45 48
s 1
f 46 49 45
s 1
f 46 51 50
s 1
f 47 52 51
s 1
f 45 52 48
s 1
f 50 53 49
s 1
f 50 55 54
s 1
f 51 56 55
s 1
f 49 56 52
s 1
f 54 57 53
s 1
f 55 58 54
s 1
f 56 59 55
s 1
f 53 60 56
s 1
f 58 61 57
s 1
f 59 62 58
s 1
f 60 63 59
s 1
f 60 61 64
s 1
f 62 65 61
s 1
f 63 66 62
s 1
f 64 67 63
s 1
f 61 68 64
s 1
f 66 69 65
s 1
f 67 70 66
s 1
f 68 71 67
s 1
f 65 72 68
s 1
f 70 73 69
s 1
f 71 74 70
s 1
f 72 75 71
s 1
f 72 73 76
s 1
f 73 78 77
s 1
f 75 78 74
s 1
f 76 79 75
s 1
f 73 80 76
s 1
f 78 81 77
s 1
f 78 83 82
s 1
f 79 84 83
s 1
f 77 84 80
s 1
f 81 86 85
s 1
f 83 86 82
s 1
f 84 87 83
s 1
f 81 88 84
s 1
f 85 90 89
s 1
f 87 90 86
s 1
f 88 91 87
s 1
f 88 89 92
s 1
f 90 93 89
s 1
f 91 94 90
s 1
f 92 95 91
s 1
f 92 93 96
s 1
f 94 97 93
s 1
f 94 99 98
s 1
f 96 99 95
s 1
f 96 97 100
s 1
f 98 101 97
s 1
f 99 102 98
s 1
f 100 103 99
s 1
f 97 104 100
s 1
f 102 105 101
s 1
f 103 106 102
s 1
f 104 107 103
s 1
f 104 105 108
s 1
f 106 109 105
s 1
f 106 111 110
s 1
f 107 112 111
s 1
f 105 112 108
s 1
f 110 113 109
s 1
f 110 115 114
s 1
f 111 116 115
s 1
f 109 116 112
s 1
f 114 117 113
s 1
f 115 118 114
s 1
f 116 119 115
s 1
f 113 120 116
s 1
f 118 121 117
s 1
f 119 122 118
s 1
f 120 123 119
s 1
f 120 121 124
s 1
f 122 125 121
s 1
f 123 126 122
s 1
f 124 127 123
s 1
f 121 128 124
s 1
f 126 129 125
s 1
f 127 130 126
s 1
f 128 131 127
s 1
f 125 132 128
s 1
f 130 133 129
s 1
f 131 134 130
s 1
f 132 135 131
s 1
f 132 133 136
s 1
f 133 138 137
s 1
f 135 138 134
s 1
f 136 139 135
s 1
f 133 140 136
s 1
f 138 141 137
s 1
f 138 143 142
s 1
f 139 144 143
s 1
f 137 144 140
s 1
f 141 146 145
s 1
f 143 146 142
s 1
f 144 147 143
s 1
f 141 148 144
s 1
f 145 150 149
s 1
f 147 150 146
s 1
f 148 151 147
s 1
f 148 149 152
s 1
f 150 153 149
s 1
f 151 154 150
s 1
f 152 155 151
s 1
f 152 153 156
s 1
f 154 157 153
s 1
f 154 159 158
s 1
f 156 159 155
s 1
f 156 157 160
s 1
f 158 161 157
s 1
f 159 162 158
s 1
f 160 163 159
s 1
f 157 164 160
s 1
f 162 165 161
s 1
f 163 166 162
s 1
f 164 167 163
s 1
f 164 165 168
s 1
f 166 169 165
s 1
f 166 171 170
s 1
f 167 172 171
s 1
f 165 172 168
s 1
f 170 173 169
s 1
f 170 175 174
s 1
f 171 176 175
s 1
f 169 176 172
s 1
f 174 177 173
s 1
f 175 178 174
s 1
f 176 179 175
s 1
f 173 180 176
s 1
f 178 181 177
s 1
f 179 182 178
s 1
f 180 183 179
s 1
f 180 181 184
s 1
f 182 185 181
s 1
f 183 186 182
s 1
f 184 187 183
s 1
f 181 188 184
s 1
f 186 189 185
s 1
f 187 190 186
s 1
f 188 191 187
s 1
f 185 192 188
s 1
f 190 193 189
s 1
f 191 194 190
s 1
f 192 195 191
s 1
f 192 193 196
s 1
f 193 198 197
s 1
f 195 198 194
s 1
f 196 199 195
s 1
f 193 200 196
s 1
f 198 201 197
s 1
f 198 203 202
s 1
f 199 204 203
s 1
f 197 204 200
s 1
f 201 206 205
s 1
f 203 206 202
s 1
f 204 207 203
s 1
f 201 208 204
s 1
f 205 210 209
s 1
f 207 210 206
s 1
f 208 211 207
s 1
f 208 209 212
s 1
f 210 213 209
s 1
f 211 214 210
s 1
f 212 215 211
s 1
f 212 213 216
s 1
f 214 217 213
s 1
f 214 219 218
s 1
f 216 219 215
s 1
f 216 217 220
s 1
f 218 221 217
s 1
f 219 222 218
s 1
f 220 223 219
s 1
f 217 224 220
s 1
f 222 225 221
s 1
f 223 226 222
s 1
f 224 227 223
s 1
f 224 225 228
s 1
f 226 229 225
s 1
f 226 231 230
s 1
f 227 232 231
s 1
f 225 232 228
s 1
f 230 233 229
s 1
f 230 235 234
s 1
f 231 236 235
s 1
f 229 236 232
s 1
f 234 237 233
s 1
f 235 238 234
s 1
f 236 239 235
s 1
f 233 240 236
s 1
f 237 242 241
s 1
f 239 242 238
s 1
f 240 243 239
s 1
f 240 241 244
s 1
f 245 2 1
s 1
f 245 3 2
s 1
f 245 4 3
s 1
f 245 1 4
s 1
f 241 242 246
s 1
f 242 243 246
s 1
f 243 244 246
s 1
f 244 241 246
s 1
f 2 6 5
s 1
f 2 3 7
s 1
f 3 4 8
s 1
f 1 5 8
s 1
f 6 10 9
s 1
f 7 11 10
s 1
f 8 12 11
s 1
f 5 9 12
s 1
f 10 14 13
s 1
f 11 15 14
s 1
f 12 16 15
s 1
f 12 9 13
s 1
f 13 14 18
s 1
f 15 19 18
s 1
f 16 20 19
s 1
f 13 17 20
s 1
f 18 22 21
s 1
f 18 19 23
s 1
f 19 20 24
s 1
f 17 21 24
s 1
f 21 22 26
s 1
f 23 27 26
s 1
f 24 28 27
s 1
f 21 25 28
s 1
f 25 26 30
s 1
f 27 31 30
s 1
f 28 32 31
s 1
f 28 25 29
s 1
f 30 34 33
s 1
f 31 35 34
s 1
f 32 36 35
s 1
f 32 29 33
s 1
f 34 38 37
s 1
f 34 35 39
s 1
f 36 40 39
s 1
f 36 33 37
s 1
f 38 42 41
s 1
f 39 43 42
s 1
f 40 44 43
s 1
f 37 41 44
s 1
f 42 46 45
s 1
f 43 47 46
s 1
f 44 48 47
s 1
f 44 41 45
s 1
f 46 50 49
s 1
f 46 47 51
s 1
f 47 48 52
s 1
f 45 49 52
s 1
f 50 54 53
s 1
f 50 51 55
s 1
f 51 52 56
s 1
f 49 53 56
s 1
f 54 58 57
s 1
f 55 59 58
s 1
f 56 60 59
s 1
f 53 57 60
s 1
f 58 62 61
s 1
f 59 63 62
s 1
f 60 64 63
s 1
f 60 57 61
s 1
f 62 66 65
s 1
f 63 67 66
s 1
f 64 68 67
s 1
f 61 65 68
s 1
f 66 70 69
s 1
f 67 71 70
s 1
f 68 72 71
s 1
f 65 69 72
s 1
f 70 74 73
s 1
f 71 75 74
s 1
f 72 76 75
s 1
f 72 69 73
s 1
f 73 74 78
s 1
f 75 79 78
s 1
f 76 80 79
s 1
f 73 77 80
s 1
f 78 82 81
s 1
f 78 79 83
s 1
f 79 80 84
s 1
f 77 81 84
s 1
f 81 82 86
s 1
f 83 87 86
s 1
f 84 88 87
s 1
f 81 85 88
s 1
f 85 86 90
s 1
f 87 91 90
s 1
f 88 92 91
s 1
f 88 85 89
s 1
f 90 94 93
s 1
f 91 95 94
s 1
f 92 96 95
s 1
f 92 89 93
s 1
f 94 98 97
s 1
f 94 95 99
s 1
f 96 100 99
s 1
f 96 93 97
s 1
f 98 102 101
s 1
f 99 103 102
s 1
f 100 104 103
s 1
f 97 101 104
s 1
f 102 106 105
s 1
f 103 107 106
s 1
f 104 108 107
s 1
f 104 101 105
s 1
f 106 110 109
s 1
f 106 107 111
s 1
f 107 108 112
s 1
f 105 109 112
s 1
f 110 114 113
s 1
f 110 111 115
s 1
f 111 112 116
s 1
f 109 113 116
s 1
f 114 118 117
s 1
f 115 119 118
s 1
f 116 120 119
s 1
f 113 117 120
s 1
f 118 122 121
s 1
f 119 123 122
s 1
f 120 124 123
s 1
f 120 117 121
s 1
f 122 126 125
s 1
f 123 127 126
s 1
f 124 128 127
s 1
f 121 125 128
s 1
f 126 130 129
s 1
f 127 131 130
s 1
f 128 132 131
s 1
f 125 129 132
s 1
f 130 134 133
s 1
f 131 135 134
s 1
f 132 136 135
s 1
f 132 129 133
s 1
f 133 134 138
s 1
f 135 139 138
s 1
f 136 140 139
s 1
f 133 137 140
s 1
f 138 142 141
s 1
f 138 139 143
s 1
f 139 140 144
s 1
f 137 141 144
s 1
f 141 142 146
s 1
f 143 147 146
s 1
f 144 148 147
s 1
f 141 145 148
s 1
f 145 146 150
s 1
f 147 151 150
s 1
f 148 152 151
s 1
f 148 145 149
s 1
f 150 154 153
s 1
f 151 155 154
s 1
f 152 156 155
s 1
f 152 149 153
s 1
f 154 158 157
s 1
f 154 155 159
s 1
f 156 160 159
s 1
f 156 153 157
s 1
f 158 162 161
s 1
f 159 163 162
s 1
f 160 164 163
s 1
f 157 161 164
s 1
f 162 166 165
s 1
f 163 167 166
s 1
f 164 168 167
s 1
f 164 161 165
s 1
f 166 170 169
s 1
f 166 167 171
s 1
f 167 168 172
s 1
f 165 169 172
s 1
f 170 174 173
s 1
f 170 171 175
s 1
f 171 172 176
s 1
f 169 173 176
s 1
f 174 178 177
s 1
f 175 179 178
s 1
f 176 180 179
s 1
f 173 177 180
s 1
f 178 182 181
s 1
f 179 183 182
s 1
f 180 184 183
s 1
f 180 177 181
s 1
f 182 186 185
s 1
f 183 187 186
s 1
f 184 188 187
s 1
f 181 185 188
s 1
f 186 190 189
s 1
f 187 191 190
s 1
f 188 192 191
s 1
f 185 189 192
s 1
f 190 194 193
s 1
f 191 195 194
s 1
f 192 196 195
s 1
f 192 189 193
s 1
f 193 194 198
s 1
f 195 199 198
s 1
f 196 200 199
s 1
f 193 197 200
s 1
f 198 202 201
s 1
f 198 199 203
s 1
f 199 200 204
s 1
f 197 201 204
s 1
f 201 202 206
s 1
f 203 207 206
s 1
f 204 208 207
s 1
f 201 205 208
s 1
f 205 206 210
s 1
f 207 211 210
s 1
f 208 212 211
s 1
f 208 205 209
s 1
f 210 214 213
s 1
f 211 215 214
s 1
f 212 216 215
s 1
f 212 209 213
s 1
f 214 218 217
s 1
f 214 215 219
s 1
f 216 220 219
s 1
f 216 213 217
s 1
f 218 222 221
s 1
f 219 223 222
s 1
f 220 224 223
s 1
f 217 221 224
s 1
f 222 226 225
s 1
f 223 227 226
s 1
f 224 228 227
s 1
f 224 221 225
s 1
f 226 230 229
s 1
f 226 227 231
s 1
f 227 228 232
s 1
f 225 229 232
s 1
f 230 234 233
s 1
f 230 231 235
s 1
f 231 232 236
s 1
f 229 233 236
s 1
f 234 238 237
s 1
f 235 239 238
s 1
f 236 240 239
s 1
f 233 237 240
s 1
f 237 238 242
s 1
f 239 243 242
s 1
f 240 244 243
s 1
f 240 237 241
