# beta_pocket Scan1_Ice.obj: Roblox cue frame, recentred on its bounding box
v 0.93001 0.01020 0.00000
v 0.94499 0.00000 -0.00079
v 0.93001 -0.01020 -0.00000
v 0.91503 0.00000 0.00079
v 0.92492 0.01020 -0.09721
v 0.93983 0.00000 -0.09878
v 0.92492 -0.01020 -0.09721
v 0.91000 0.00000 -0.09564
v 0.90969 0.01020 -0.19336
v 0.92436 0.00000 -0.19648
v 0.90969 -0.01020 -0.19336
v 0.89502 0.00000 -0.19024
v 0.88449 0.01020 -0.28739
v 0.89876 0.00000 -0.29202
v 0.88449 -0.01020 -0.28739
v 0.87023 0.00000 -0.28275
v 0.84961 0.01020 -0.37827
v 0.86331 0.00000 -0.38437
v 0.84961 -0.01020 -0.37827
v 0.83590 0.00000 -0.37216
v 0.80541 0.01020 -0.46500
v 0.81840 0.00000 -0.47250
v 0.80541 -0.01020 -0.46500
v 0.79242 0.00000 -0.45750
v 0.75240 0.01020 -0.54664
v 0.76453 0.00000 -0.55546
v 0.75240 -0.01020 -0.54664
v 0.74026 0.00000 -0.53782
v 0.69113 0.01020 -0.62229
v 0.70228 0.00000 -0.63233
v 0.69113 -0.01020 -0.62229
v 0.67999 0.00000 -0.61225
v 0.62230 0.01020 -0.69112
v 0.63234 0.00000 -0.70227
v 0.62230 -0.01020 -0.69112
v 0.61226 0.00000 -0.67998
v 0.54665 0.01020 -0.75239
v 0.55547 0.00000 -0.76452
v 0.54665 -0.01020 -0.75239
v 0.53783 0.00000 -0.74025
v 0.46501 0.01020 -0.80540
v 0.47251 0.00000 -0.81839
v 0.46501 -0.01020 -0.80540
v 0.45751 0.00000 -0.79241
v 0.37828 0.01020 -0.84960
v 0.38438 0.00000 -0.86330
v 0.37828 -0.01020 -0.84960
v 0.37217 0.00000 -0.83589
v 0.28740 0.01020 -0.88448
v 0.29203 0.00000 -0.89875
v 0.28740 -0.01020 -0.88448
v 0.28276 0.00000 -0.87022
v 0.19337 0.01020 -0.90968
v 0.19649 0.00000 -0.92435
v 0.19337 -0.01020 -0.90968
v 0.19025 0.00000 -0.89501
v 0.09722 0.01020 -0.92491
v 0.09879 0.00000 -0.93982
v 0.09722 -0.01020 -0.92491
v 0.09565 0.00000 -0.90999
v 0.00001 0.01020 -0.93000
v 0.00001 0.00000 -0.94500
v 0.00001 -0.01020 -0.93000
v 0.00001 0.00000 -0.91500
v -0.09720 0.01020 -0.92491
v -0.09877 0.00000 -0.93982
v -0.09720 -0.01020 -0.92491
v -0.09563 0.00000 -0.90999
v -0.19335 0.01020 -0.90968
v -0.19647 0.00000 -0.92435
v -0.19335 -0.01020 -0.90968
v -0.19023 0.00000 -0.89501
v -0.28738 0.01020 -0.88448
v -0.29201 0.00000 -0.89875
v -0.28738 -0.01020 -0.88448
v -0.28274 0.00000 -0.87022
v -0.37825 0.01020 -0.84960
v -0.38436 0.00000 -0.86330
v -0.37825 -0.01020 -0.84960
v -0.37215 0.00000 -0.83589
v -0.46499 0.01020 -0.80540
v -0.47249 0.00000 -0.81839
v -0.46499 -0.01020 -0.80540
v -0.45749 0.00000 -0.79241
v -0.54663 0.01020 -0.75239
v -0.55545 0.00000 -0.76452
v -0.54663 -0.01020 -0.75239
v -0.53781 0.00000 -0.74025
v -0.62228 0.01020 -0.69112
v -0.63232 0.00000 -0.70227
v -0.62228 -0.01020 -0.69112
v -0.61224 0.00000 -0.67998
v -0.69111 0.01020 -0.62229
v -0.70226 0.00000 -0.63233
v -0.69111 -0.01020 -0.62229
v -0.67997 0.00000 -0.61225
v -0.75238 0.01020 -0.54664
v -0.76451 0.00000 -0.55546
v -0.75238 -0.01020 -0.54664
v -0.74024 0.00000 -0.53782
v -0.80539 0.01020 -0.46500
v -0.81838 0.00000 -0.47250
v -0.80539 -0.01020 -0.46500
v -0.79240 0.00000 -0.45750
v -0.84959 0.01020 -0.37827
v -0.86329 0.00000 -0.38437
v -0.84959 -0.01020 -0.37827
v -0.83588 0.00000 -0.37216
v -0.88447 0.01020 -0.28739
v -0.89874 0.00000 -0.29202
v -0.88447 -0.01020 -0.28739
v -0.87021 0.00000 -0.28275
v -0.90967 0.01020 -0.19336
v -0.92434 0.00000 -0.19648
v -0.90967 -0.01020 -0.19336
v -0.89499 0.00000 -0.19024
v -0.92490 0.01020 -0.09721
v -0.93981 0.00000 -0.09878
v -0.92490 -0.01020 -0.09721
v -0.90998 0.00000 -0.09564
v -0.92999 0.01020 -0.00000
v -0.94499 0.00000 -0.00000
v -0.92999 -0.01020 -0.00000
v -0.91499 0.00000 -0.00000
v -0.92490 0.01020 0.09721
v -0.93981 0.00000 0.09878
v -0.92490 -0.01020 0.09721
v -0.90998 0.00000 0.09564
v -0.90967 0.01020 0.19336
v -0.92434 0.00000 0.19648
v -0.90967 -0.01020 0.19336
v -0.89499 0.00000 0.19024
v -0.88447 0.01020 0.28739
v -0.89874 0.00000 0.29202
v -0.88447 -0.01020 0.28739
v -0.87021 0.00000 0.28275
v -0.84959 0.01020 0.37827
v -0.86329 0.00000 0.38437
v -0.84959 -0.01020 0.37827
v -0.83588 0.00000 0.37216
v -0.80539 0.01020 0.46500
v -0.81838 0.00000 0.47250
v -0.80539 -0.01020 0.46500
v -0.79240 0.00000 0.45750
v -0.75238 0.01020 0.54664
v -0.76451 0.00000 0.55546
v -0.75238 -0.01020 0.54664
v -0.74024 0.00000 0.53782
v -0.69111 0.01020 0.62229
v -0.70226 0.00000 0.63233
v -0.69111 -0.01020 0.62229
v -0.67997 0.00000 0.61225
v -0.62228 0.01020 0.69112
v -0.63232 0.00000 0.70227
v -0.62228 -0.01020 0.69112
v -0.61224 0.00000 0.67998
v -0.54663 0.01020 0.75239
v -0.55545 0.00000 0.76452
v -0.54663 -0.01020 0.75239
v -0.53781 0.00000 0.74025
v -0.46499 0.01020 0.80540
v -0.47249 0.00000 0.81839
v -0.46499 -0.01020 0.80540
v -0.45749 0.00000 0.79241
v -0.37825 0.01020 0.84960
v -0.38436 0.00000 0.86330
v -0.37825 -0.01020 0.84960
v -0.37215 0.00000 0.83589
v -0.28738 0.01020 0.88448
v -0.29201 0.00000 0.89875
v -0.28738 -0.01020 0.88448
v -0.28274 0.00000 0.87022
v -0.19335 0.01020 0.90968
v -0.19647 0.00000 0.92435
v -0.19335 -0.01020 0.90968
v -0.19023 0.00000 0.89501
v -0.09720 0.01020 0.92491
v -0.09877 0.00000 0.93982
v -0.09720 -0.01020 0.92491
v -0.09563 0.00000 0.90999
v 0.00001 0.01020 0.93000
v 0.00001 0.00000 0.94500
v 0.00001 -0.01020 0.93000
v 0.00001 0.00000 0.91500
v 0.09722 0.01020 0.92491
v 0.09879 0.00000 0.93982
v 0.09722 -0.01020 0.92491
v 0.09565 0.00000 0.90999
v 0.19337 0.01020 0.90968
v 0.19649 0.00000 0.92435
v 0.19337 -0.01020 0.90968
v 0.19025 0.00000 0.89501
v 0.28740 0.01020 0.88448
v 0.29203 0.00000 0.89875
v 0.28740 -0.01020 0.88448
v 0.28276 0.00000 0.87022
v 0.37828 0.01020 0.84960
v 0.38438 0.00000 0.86330
v 0.37828 -0.01020 0.84960
v 0.37217 0.00000 0.83589
v 0.46501 0.01020 0.80540
v 0.47251 0.00000 0.81839
v 0.46501 -0.01020 0.80540
v 0.45751 0.00000 0.79241
v 0.54665 0.01020 0.75239
v 0.55547 0.00000 0.76452
v 0.54665 -0.01020 0.75239
v 0.53783 0.00000 0.74025
v 0.62230 0.01020 0.69112
v 0.63234 0.00000 0.70227
v 0.62230 -0.01020 0.69112
v 0.61226 0.00000 0.67998
v 0.69113 0.01020 0.62229
v 0.70228 0.00000 0.63233
v 0.69113 -0.01020 0.62229
v 0.67999 0.00000 0.61225
v 0.75240 0.01020 0.54664
v 0.76453 0.00000 0.55546
v 0.75240 -0.01020 0.54664
v 0.74026 0.00000 0.53782
v 0.80541 0.01020 0.46500
v 0.81840 0.00000 0.47250
v 0.80541 -0.01020 0.46500
v 0.79242 0.00000 0.45750
v 0.84961 0.01020 0.37827
v 0.86331 0.00000 0.38437
v 0.84961 -0.01020 0.37827
v 0.83590 0.00000 0.37216
v 0.88449 0.01020 0.28739
v 0.89876 0.00000 0.29202
v 0.88449 -0.01020 0.28739
v 0.87023 0.00000 0.28275
v 0.90969 0.01020 0.19336
v 0.92436 0.00000 0.19648
v 0.90969 -0.01020 0.19336
v 0.89502 0.00000 0.19024
v 0.92492 0.01020 0.09721
v 0.93983 0.00000 0.09878
v 0.92492 -0.01020 0.09721
v 0.91000 0.00000 0.09564
v 0.93001 0.01020 0.00000
v 0.94499 0.00000 0.00079
v 0.93001 -0.01020 0.00000
v 0.91503 0.00000 -0.00079
v 0.93001 0.00000 0.00000
v 0.93001 0.00000 0.00000
s 1
f 2 5 1
s 1
f 2 7 6
s 1
f 3 8 7
s 1
f 1 8 4
s 1
f 6 9 5
s 1
f 6 11 10
s 1
f 7 12 11
s 1
f 5 12 8
s 1
f 9 14 13
s 1
f 11 14 10
s 1
f 12 15 11
s 1
f 9 16 12
s 1
f 14 17 13
s 1
f 14 19 18
s 1
f 16 19 15
s 1
f 16 17 20
s 1
f 17 22 21
s 1
f 19 22 18
s 1
f 20 23 19
s 1
f 17 24 20
s 1
f 22 25 21
s 1
f 22 27 26
s 1
f 24 27 23
s 1
f 21 28 24
s 1
f 25 30 29
s 1
f 27 30 26
s 1
f 28 31 27
s 1
f 28 29 32
s 1
f 30 33 29
s 1
f 31 34 30
s 1
f 32 35 31
s 1
f 29 36 32
s 1
f 34 37 33
s 1
f 34 39 38
s 1
f 36 39 35
s 1
f 33 40 36
s 1
f 37 42 41
s 1
f 39 42 38
s 1
f 39 44 43
s 1
f 40 41 44
s 1
f 42 45 41
s 1
f 43 46 42
s 1
f 43 48 47
s 1
f 41 48 44
s 1
f 46 49 45
s 1
f 47 50 46
s 1
f 47 52 51
s 1
f 45 52 48
s 1
f 50 53 49
s 1
f 50 55 54
s 1
f 51 56 55
s 1
f 49 56 52
s 1
f 54 57 53
s 1
f 55 58 54
s 1
f 56 59 55
s 1
f 56 57 60
s 1
f 57 62 61
s 1
f 58 63 62
s 1
f 59 64 63
s 1
f 57 64 60
s 1
f 62 65 61
s 1
f 63 66 62
s 1
f 64 67 63
s 1
f 64 65 68
s 1
f 66 69 65
s 1
f 66 71 70
s 1
f 67 72 71
s 1
f 65 72 68
s 1
f 69 74 73
s 1
f 71 74 70
s 1
f 72 75 71
s 1
f 69 76 72
s 1
f 74 77 73
s 1
f 74 79 78
s 1
f 76 79 75
s 1
f 76 77 80
s 1
f 77 82 81
s 1
f 79 82 78
s 1
f 80 83 79
s 1
f 77 84 80
s 1
f 82 85 81
s 1
f 82 87 86
s 1
f 84 87 83
s 1
f 81 88 84
s 1
f 85 90 89
s 1
f 87 90 86
s 1
f 88 91 87
s 1
f 88 89 92
s 1
f 90 93 89
s 1
f 91 94 90
s 1
f 92 95 91
s 1
f 89 96 92
s 1
f 94 97 93
s 1
f 94 99 98
s 1
f 96 99 95
s 1
f 93 100 96
s 1
f 97 102 101
s 1
f 99 102 98
s 1
f 99 104 103
s 1
f 100 101 104
s 1
f 102 105 101
s 1
f 103 106 102
s 1
f 103 108 107
s 1
f 101 108 104
s 1
f 106 109 105
s 1
f 107 110 106
s 1
f 107 112 111
s 1
f 105 112 108
s 1
f 110 113 109
s 1
f 110 115 114
s 1
f 111 116 115
s 1
f 109 116 112
s 1
f 114 117 113
s 1
f 115 118 114
s 1
f 116 119 115
s 1
f 116 117 120
s 1
f 117 122 121
s 1
f 118 123 122
s 1
f 119 124 123
s 1
f 117 124 120
s 1
f 122 125 121
s 1
f 123 126 122
s 1
f 124 127 123
s 1
f 124 125 128
s 1
f 126 129 125
s 1
f 126 131 130
s 1
f 127 132 131
s 1
f 125 132 128
s 1
f 129 134 133
s 1
f 131 134 130
s 1
f 132 135 131
s 1
f 129 136 132
s 1
f 134 137 133
s 1
f 134 139 138
s 1
f 136 139 135
s 1
f 136 137 140
s 1
f 137 142 141
s 1
f 139 142 138
s 1
f 140 143 139
s 1
f 137 144 140
s 1
f 142 145 141
s 1
f 142 147 146
s 1
f 144 147 143
s 1
f 141 148 144
s 1
f 145 150 149
s 1
f 147 150 146
s 1
f 148 151 147
s 1
f 148 149 152
s 1
f 150 153 149
s 1
f 151 154 150
s 1
f 152 155 151
s 1
f 149 156 152
s 1
f 154 157 153
s 1
f 154 159 158
s 1
f 156 159 155
s 1
f 153 160 156
s 1
f 157 162 161
s 1
f 159 162 158
s 1
f 159 164 163
s 1
f 160 161 164
s 1
f 162 165 161
s 1
f 163 166 162
s 1
f 163 168 167
s 1
f 161 168 164
s 1
f 166 169 165
s 1
f 167 170 166
s 1
f 167 172 171
s 1
f 165 172 168
s 1
f 170 173 169
s 1
f 170 175 174
s 1
f 171 176 175
s 1
f 169 176 172
s 1
f 174 177 173
s 1
f 175 178 174
s 1
f 176 179 175
s 1
f 176 177 180
s 1
f 177 182 181
s 1
f 178 183 182
s 1
f 179 184 183
s 1
f 177 184 180
s 1
f 182 185 181
s 1
f 183 186 182
s 1
f 184 187 183
s 1
f 184 185 188
s 1
f 186 189 185
s 1
f 186 191 190
s 1
f 187 192 191
s 1
f 185 192 188
s 1
f 189 194 193
s 1
f 191 194 190
s 1
f 192 195 191
s 1
f 189 196 192
s 1
f 194 197 193
s 1
f 194 199 198
s 1
f 196 199 195
s 1
f 196 197 200
s 1
f 197 202 201
s 1
f 199 202 198
s 1
f 200 203 199
s 1
f 197 204 200
s 1
f 202 205 201
s 1
f 202 207 206
s 1
f 204 207 203
s 1
f 201 208 204
s 1
f 205 210 209
s 1
f 207 210 206
s 1
f 208 211 207
s 1
f 208 209 212
s 1
f 210 213 209
s 1
f 211 214 210
s 1
f 212 215 211
s 1
f 209 216 212
s 1
f 214 217 213
s 1
f 214 219 218
s 1
f 216 219 215
s 1
f 213 220 216
s 1
f 217 222 221
s 1
f 219 222 218
s 1
f 219 224 223
s 1
f 220 221 224
s 1
f 222 225 221
s 1
f 223 226 222
s 1
f 223 228 227
s 1
f 221 228 224
s 1
f 226 229 225
s 1
f 227 230 226
s 1
f 227 232 231
s 1
f 225 232 228
s 1
f 230 233 229
s 1
f 230 235 234
s 1
f 231 236 235
s 1
f 229 236 232
s 1
f 234 237 233
s 1
f 235 238 234
s 1
f 236 239 235
s 1
f 236 237 240
s 1
f 237 242 241
s 1
f 239 242 238
s 1
f 240 243 239
s 1
f 240 241 244
s 1
f 245 2 1
s 1
f 245 3 2
s 1
f 245 4 3
s 1
f 245 1 4
s 1
f 241 242 246
s 1
f 242 243 246
s 1
f 243 244 246
s 1
f 244 241 246
s 1
f 2 6 5
s 1
f 2 3 7
s 1
f 3 4 8
s 1
f 1 5 8
s 1
f 6 10 9
s 1
f 6 7 11
s 1
f 7 8 12
s 1
f 5 9 12
s 1
f 9 10 14
s 1
f 11 15 14
s 1
f 12 16 15
s 1
f 9 13 16
s 1
f 14 18 17
s 1
f 14 15 19
s 1
f 16 20 19
s 1
f 16 13 17
s 1
f 17 18 22
s 1
f 19 23 22
s 1
f 20 24 23
s 1
f 17 21 24
s 1
f 22 26 25
s 1
f 22 23 27
s 1
f 24 28 27
s 1
f 21 25 28
s 1
f 25 26 30
s 1
f 27 31 30
s 1
f 28 32 31
s 1
f 28 25 29
s 1
f 30 34 33
s 1
f 31 35 34
s 1
f 32 36 35
s 1
f 29 33 36
s 1
f 34 38 37
s 1
f 34 35 39
s 1
f 36 40 39
s 1
f 33 37 40
s 1
f 37 38 42
s 1
f 39 43 42
s 1
f 39 40 44
s 1
f 40 37 41
s 1
f 42 46 45
s 1
f 43 47 46
s 1
f 43 44 48
s 1
f 41 45 48
s 1
f 46 50 49
s 1
f 47 51 50
s 1
f 47 48 52
s 1
f 45 49 52
s 1
f 50 54 53
s 1
f 50 51 55
s 1
f 51 52 56
s 1
f 49 53 56
s 1
f 54 58 57
s 1
f 55 59 58
s 1
f 56 60 59
s 1
f 56 53 57
s 1
f 57 58 62
s 1
f 58 59 63
s 1
f 59 60 64
s 1
f 57 61 64
s 1
f 62 66 65
s 1
f 63 67 66
s 1
f 64 68 67
s 1
f 64 61 65
s 1
f 66 70 69
s 1
f 66 67 71
s 1
f 67 68 72
s 1
f 65 69 72
s 1
f 69 70 74
s 1
f 71 75 74
s 1
f 72 76 75
s 1
f 69 73 76
s 1
f 74 78 77
s 1
f 74 75 79
s 1
f 76 80 79
s 1
f 76 73 77
s 1
f 77 78 82
s 1
f 79 83 82
s 1
f 80 84 83
s 1
f 77 81 84
s 1
f 82 86 85
s 1
f 82 83 87
s 1
f 84 88 87
s 1
f 81 85 88
s 1
f 85 86 90
s 1
f 87 91 90
s 1
f 88 92 91
s 1
f 88 85 89
s 1
f 90 94 93
s 1
f 91 95 94
s 1
f 92 96 95
s 1
f 89 93 96
s 1
f 94 98 97
s 1
f 94 95 99
s 1
f 96 100 99
s 1
f 93 97 100
s 1
f 97 98 102
s 1
f 99 103 102
s 1
f 99 100 104
s 1
f 100 97 101
s 1
f 102 106 105
s 1
f 103 107 106
s 1
f 103 104 108
s 1
f 101 105 108
s 1
f 106 110 109
s 1
f 107 111 110
s 1
f 107 108 112
s 1
f 105 109 112
s 1
f 110 114 113
s 1
f 110 111 115
s 1
f 111 112 116
s 1
f 109 113 116
s 1
f 114 118 117
s 1
f 115 119 118
s 1
f 116 120 119
s 1
f 116 113 117
s 1
f 117 118 122
s 1
f 118 119 123
s 1
f 119 120 124
s 1
f 117 121 124
s 1
f 122 126 125
s 1
f 123 127 126
s 1
f 124 128 127
s 1
f 124 121 125
s 1
f 126 130 129
s 1
f 126 127 131
s 1
f 127 128 132
s 1
f 125 129 132
s 1
f 129 130 134
s 1
f 131 135 134
s 1
f 132 136 135
s 1
f 129 133 136
s 1
f 134 138 137
s 1
f 134 135 139
s 1
f 136 140 139
s 1
f 136 133 137
s 1
f 137 138 142
s 1
f 139 143 142
s 1
f 140 144 143
s 1
f 137 141 144
s 1
f 142 146 145
s 1
f 142 143 147
s 1
f 144 148 147
s 1
f 141 145 148
s 1
f 145 146 150
s 1
f 147 151 150
s 1
f 148 152 151
s 1
f 148 145 149
s 1
f 150 154 153
s 1
f 151 155 154
s 1
f 152 156 155
s 1
f 149 153 156
s 1
f 154 158 157
s 1
f 154 155 159
s 1
f 156 160 159
s 1
f 153 157 160
s 1
f 157 158 162
s 1
f 159 163 162
s 1
f 159 160 164
s 1
f 160 157 161
s 1
f 162 166 165
s 1
f 163 167 166
s 1
f 163 164 168
s 1
f 161 165 168
s 1
f 166 170 169
s 1
f 167 171 170
s 1
f 167 168 172
s 1
f 165 169 172
s 1
f 170 174 173
s 1
f 170 171 175
s 1
f 171 172 176
s 1
f 169 173 176
s 1
f 174 178 177
s 1
f 175 179 178
s 1
f 176 180 179
s 1
f 176 173 177
s 1
f 177 178 182
s 1
f 178 179 183
s 1
f 179 180 184
s 1
f 177 181 184
s 1
f 182 186 185
s 1
f 183 187 186
s 1
f 184 188 187
s 1
f 184 181 185
s 1
f 186 190 189
s 1
f 186 187 191
s 1
f 187 188 192
s 1
f 185 189 192
s 1
f 189 190 194
s 1
f 191 195 194
s 1
f 192 196 195
s 1
f 189 193 196
s 1
f 194 198 197
s 1
f 194 195 199
s 1
f 196 200 199
s 1
f 196 193 197
s 1
f 197 198 202
s 1
f 199 203 202
s 1
f 200 204 203
s 1
f 197 201 204
s 1
f 202 206 205
s 1
f 202 203 207
s 1
f 204 208 207
s 1
f 201 205 208
s 1
f 205 206 210
s 1
f 207 211 210
s 1
f 208 212 211
s 1
f 208 205 209
s 1
f 210 214 213
s 1
f 211 215 214
s 1
f 212 216 215
s 1
f 209 213 216
s 1
f 214 218 217
s 1
f 214 215 219
s 1
f 216 220 219
s 1
f 213 217 220
s 1
f 217 218 222
s 1
f 219 223 222
s 1
f 219 220 224
s 1
f 220 217 221
s 1
f 222 226 225
s 1
f 223 227 226
s 1
f 223 224 228
s 1
f 221 225 228
s 1
f 226 230 229
s 1
f 227 231 230
s 1
f 227 228 232
s 1
f 225 229 232
s 1
f 230 234 233
s 1
f 230 231 235
s 1
f 231 232 236
s 1
f 229 233 236
s 1
f 234 238 237
s 1
f 235 239 238
s 1
f 236 240 239
s 1
f 236 233 237
s 1
f 237 238 242
s 1
f 239 243 242
s 1
f 240 244 243
s 1
f 240 237 241
