# kraken_pocket Seg1_Core.obj: Roblox cue frame, recentred on its bounding box
v -0.15707 -0.35191 0.01817
v -0.11886 -0.33329 0.13654
v -0.01884 -0.30759 0.20832
v 0.10480 -0.28462 0.20610
v 0.20482 -0.27317 0.13072
v 0.24303 -0.27761 0.01097
v 0.20482 -0.29623 -0.10740
v 0.10480 -0.32194 -0.17918
v -0.01884 -0.34490 -0.17695
v -0.11886 -0.35635 -0.10157
v -0.16311 -0.30887 0.01400
v -0.12527 -0.29043 0.13121
v -0.02623 -0.26500 0.20229
v 0.09620 -0.24227 0.20009
v 0.19524 -0.23094 0.12545
v 0.23307 -0.23532 0.00688
v 0.19523 -0.25375 -0.11033
v 0.09619 -0.27919 -0.18141
v -0.02623 -0.30192 -0.17921
v -0.12528 -0.31325 -0.10457
v -0.16914 -0.26578 0.00984
v -0.13167 -0.24757 0.12588
v -0.03361 -0.22243 0.19626
v 0.08761 -0.19996 0.19408
v 0.18567 -0.18875 0.12019
v 0.22312 -0.19307 0.00279
v 0.18565 -0.21128 -0.11325
v 0.08759 -0.23642 -0.18363
v -0.03363 -0.25889 -0.18145
v -0.13169 -0.27010 -0.10756
v -0.17515 -0.22266 0.00568
v -0.13806 -0.20470 0.12057
v -0.04096 -0.17988 0.19024
v 0.07904 -0.15769 0.18809
v 0.17612 -0.14661 0.11494
v 0.21319 -0.15086 -0.00127
v 0.17609 -0.16883 -0.11616
v 0.07899 -0.19364 -0.18583
v -0.04101 -0.21583 -0.18369
v -0.13809 -0.22691 -0.11053
v -0.18115 -0.17951 0.00154
v -0.14441 -0.16181 0.11527
v -0.04829 -0.13735 0.18424
v 0.07051 -0.11546 0.18212
v 0.16660 -0.10451 0.10972
v 0.20328 -0.10868 -0.00532
v 0.16654 -0.12638 -0.11904
v 0.07042 -0.15084 -0.18801
v -0.04837 -0.17272 -0.18589
v -0.14446 -0.18367 -0.11349
v -0.18711 -0.13632 -0.00257
v -0.15073 -0.11892 0.10999
v -0.05558 -0.09483 0.17826
v 0.06201 -0.07327 0.17618
v 0.15711 -0.06246 0.10452
v 0.19341 -0.06654 -0.00933
v 0.15703 -0.08394 -0.12189
v 0.06187 -0.10802 -0.19016
v -0.05571 -0.12958 -0.18807
v -0.15081 -0.14039 -0.11642
v -0.19302 -0.09310 -0.00665
v -0.15700 -0.07601 0.10474
v -0.06282 -0.05234 0.17232
v 0.05356 -0.03111 0.17026
v 0.14767 -0.02045 0.09936
v 0.18357 -0.02442 -0.01330
v 0.14755 -0.04151 -0.12469
v 0.05337 -0.06518 -0.19227
v -0.06301 -0.08641 -0.19021
v -0.15712 -0.09707 -0.11931
v -0.19889 -0.04985 -0.01069
v -0.16323 -0.03310 0.09954
v -0.07001 -0.00985 0.16641
v 0.04516 0.01101 0.16439
v 0.13828 0.02152 0.09424
v 0.17379 0.01766 -0.01723
v 0.13812 0.00091 -0.12746
v 0.04490 -0.02233 -0.19433
v -0.07026 -0.04320 -0.19231
v -0.16339 -0.05371 -0.12216
v -0.20471 -0.00657 -0.01468
v -0.16939 0.00982 0.09437
v -0.07714 0.03262 0.16055
v 0.03682 0.05310 0.15856
v 0.12895 0.06345 0.08917
v 0.16406 0.05972 -0.02111
v 0.12874 0.04332 -0.13016
v 0.03649 0.02053 -0.19634
v -0.07747 0.00005 -0.19435
v -0.16959 -0.01031 -0.12496
v -0.21045 0.03673 -0.01862
v -0.17548 0.05275 0.08926
v -0.08420 0.07507 0.15473
v 0.02855 0.09516 0.15278
v 0.11968 0.10535 0.08416
v 0.15439 0.10174 -0.02493
v 0.11943 0.08573 -0.13281
v 0.02814 0.06341 -0.19828
v -0.08461 0.04332 -0.19634
v -0.17574 0.03313 -0.12771
v -0.21612 0.08007 -0.02250
v -0.18150 0.09569 0.08421
v -0.09118 0.11751 0.14898
v 0.02035 0.13719 0.14707
v 0.11049 0.14721 0.07921
v 0.14480 0.14375 -0.02869
v 0.11018 0.12812 -0.13540
v 0.01985 0.10630 -0.20017
v -0.09168 0.08662 -0.19826
v -0.18181 0.07660 -0.13039
v -0.22171 0.12343 -0.02632
v -0.18744 0.13864 0.07922
v -0.09808 0.15994 0.14328
v 0.01224 0.17919 0.14141
v 0.10137 0.18904 0.07432
v 0.13528 0.18572 -0.03237
v 0.10101 0.17051 -0.13791
v 0.01165 0.14921 -0.20197
v -0.09867 0.12996 -0.20010
v -0.18780 0.12011 -0.13301
v -0.22720 0.16681 -0.03006
v -0.19328 0.18159 0.07430
v -0.10488 0.20236 0.13766
v 0.00422 0.22116 0.13583
v 0.09235 0.23083 0.06951
v 0.12585 0.22767 -0.03598
v 0.09192 0.21288 -0.14034
v 0.00353 0.19212 -0.20370
v -0.10557 0.17332 -0.20187
v -0.19370 0.16365 -0.13554
v -0.23260 0.21021 -0.03372
v -0.19902 0.22456 0.06946
v -0.11159 0.24476 0.13211
v -0.00371 0.26311 0.13033
v 0.08342 0.27260 0.06477
v 0.11651 0.26960 -0.03951
v 0.08293 0.25526 -0.14268
v -0.00450 0.23505 -0.20534
v -0.11238 0.21670 -0.20355
v -0.19951 0.20721 -0.13800
v -0.23789 0.25364 -0.03729
v -0.20465 0.26753 0.06470
v -0.11819 0.28716 0.12665
v -0.01153 0.30504 0.12490
v 0.07459 0.31434 0.06012
v 0.10727 0.31150 -0.04295
v 0.07403 0.29762 -0.14493
v -0.01243 0.27799 -0.20689
v -0.11909 0.26011 -0.20514
v -0.20521 0.25081 -0.14036
v -0.24303 0.29686 -0.04075
v -0.21016 0.31044 0.06003
v -0.12470 0.32966 0.12126
v -0.01928 0.34720 0.11954
v 0.06581 0.35635 0.05554
v 0.09810 0.35362 -0.04631
v 0.06523 0.34004 -0.14709
v -0.02023 0.32082 -0.20832
v -0.12565 0.30328 -0.20661
v -0.21075 0.29413 -0.14260
v 0.04298 -0.31476 0.01457
v -0.07247 0.32524 -0.04353
f 1 12 11
f 2 13 12
f 3 14 13
f 4 15 14
f 6 15 5
f 7 16 6
f 8 17 7
f 9 18 8
f 10 19 9
f 10 11 20
f 11 22 21
f 12 23 22
f 13 24 23
f 14 25 24
f 16 25 15
f 17 26 16
f 18 27 17
f 19 28 18
f 20 29 19
f 20 21 30
f 21 32 31
f 22 33 32
f 23 34 33
f 24 35 34
f 26 35 25
f 27 36 26
f 28 37 27
f 29 38 28
f 30 39 29
f 30 31 40
f 31 42 41
f 32 43 42
f 33 44 43
f 34 45 44
f 36 45 35
f 37 46 36
f 38 47 37
f 39 48 38
f 40 49 39
f 40 41 50
f 41 52 51
f 42 53 52
f 43 54 53
f 44 55 54
f 46 55 45
f 47 56 46
f 48 57 47
f 49 58 48
f 50 59 49
f 50 51 60
f 51 62 61
f 52 63 62
f 53 64 63
f 54 65 64
f 56 65 55
f 57 66 56
f 58 67 57
f 59 68 58
f 60 69 59
f 60 61 70
f 61 72 71
f 62 73 72
f 63 74 73
f 64 75 74
f 66 75 65
f 67 76 66
f 68 77 67
f 69 78 68
f 70 79 69
f 70 71 80
f 71 82 81
f 72 83 82
f 73 84 83
f 74 85 84
f 76 85 75
f 77 86 76
f 78 87 77
f 79 88 78
f 80 89 79
f 80 81 90
f 81 92 91
f 82 93 92
f 83 94 93
f 84 95 94
f 86 95 85
f 87 96 86
f 88 97 87
f 89 98 88
f 90 99 89
f 90 91 100
f 91 102 101
f 92 103 102
f 93 104 103
f 94 105 104
f 96 105 95
f 97 106 96
f 98 107 97
f 99 108 98
f 100 109 99
f 100 101 110
f 101 112 111
f 102 113 112
f 103 114 113
f 104 115 114
f 106 115 105
f 107 116 106
f 108 117 107
f 109 118 108
f 110 119 109
f 110 111 120
f 111 122 121
f 112 123 122
f 113 124 123
f 114 125 124
f 116 125 115
f 117 126 116
f 118 127 117
f 119 128 118
f 120 129 119
f 120 121 130
f 121 132 131
f 122 133 132
f 123 134 133
f 124 135 134
f 126 135 125
f 127 136 126
f 128 137 127
f 129 138 128
f 130 139 129
f 130 131 140
f 131 142 141
f 132 143 142
f 133 144 143
f 134 145 144
f 136 145 135
f 137 146 136
f 138 147 137
f 139 148 138
f 140 149 139
f 140 141 150
f 142 151 141
f 143 152 142
f 144 153 143
f 145 154 144
f 145 156 155
f 146 157 156
f 147 158 157
f 148 159 158
f 149 160 159
f 141 160 150
f 161 2 1
f 161 3 2
f 161 4 3
f 161 5 4
f 161 6 5
f 161 7 6
f 161 8 7
f 161 9 8
f 161 10 9
f 161 1 10
f 151 152 162
f 152 153 162
f 153 154 162
f 154 155 162
f 155 156 162
f 156 157 162
f 157 158 162
f 158 159 162
f 159 160 162
f 160 151 162
f 1 2 12
f 2 3 13
f 3 4 14
f 4 5 15
f 6 16 15
f 7 17 16
f 8 18 17
f 9 19 18
f 10 20 19
f 10 1 11
f 11 12 22
f 12 13 23
f 13 14 24
f 14 15 25
f 16 26 25
f 17 27 26
f 18 28 27
f 19 29 28
f 20 30 29
f 20 11 21
f 21 22 32
f 22 23 33
f 23 24 34
f 24 25 35
f 26 36 35
f 27 37 36
f 28 38 37
f 29 39 38
f 30 40 39
f 30 21 31
f 31 32 42
f 32 33 43
f 33 34 44
f 34 35 45
f 36 46 45
f 37 47 46
f 38 48 47
f 39 49 48
f 40 50 49
f 40 31 41
f 41 42 52
f 42 43 53
f 43 44 54
f 44 45 55
f 46 56 55
f 47 57 56
f 48 58 57
f 49 59 58
f 50 60 59
f 50 41 51
f 51 52 62
f 52 53 63
f 53 54 64
f 54 55 65
f 56 66 65
f 57 67 66
f 58 68 67
f 59 69 68
f 60 70 69
f 60 51 61
f 61 62 72
f 62 63 73
f 63 64 74
f 64 65 75
f 66 76 75
f 67 77 76
f 68 78 77
f 69 79 78
f 70 80 79
f 70 61 71
f 71 72 82
f 72 73 83
f 73 74 84
f 74 75 85
f 76 86 85
f 77 87 86
f 78 88 87
f 79 89 88
f 80 90 89
f 80 71 81
f 81 82 92
f 82 83 93
f 83 84 94
f 84 85 95
f 86 96 95
f 87 97 96
f 88 98 97
f 89 99 98
f 90 100 99
f 90 81 91
f 91 92 102
f 92 93 103
f 93 94 104
f 94 95 105
f 96 106 105
f 97 107 106
f 98 108 107
f 99 109 108
f 100 110 109
f 100 91 101
f 101 102 112
f 102 103 113
f 103 104 114
f 104 105 115
f 106 116 115
f 107 117 116
f 108 118 117
f 109 119 118
f 110 120 119
f 110 101 111
f 111 112 122
f 112 113 123
f 113 114 124
f 114 115 125
f 116 126 125
f 117 127 126
f 118 128 127
f 119 129 128
f 120 130 129
f 120 111 121
f 121 122 132
f 122 123 133
f 123 124 134
f 124 125 135
f 126 136 135
f 127 137 136
f 128 138 137
f 129 139 138
f 130 140 139
f 130 121 131
f 131 132 142
f 132 133 143
f 133 134 144
f 134 135 145
f 136 146 145
f 137 147 146
f 138 148 147
f 139 149 148
f 140 150 149
f 140 131 141
f 142 152 151
f 143 153 152
f 144 154 153
f 145 155 154
f 145 146 156
f 146 147 157
f 147 148 158
f 148 149 159
f 149 150 160
f 141 151 160
