# kraken_pocket Seg1_Sucker.obj: Roblox cue frame, recentred on its bounding box
v 0.03090 -0.10191 0.01404
v -0.04230 -0.14677 0.01404
v 0.03468 -0.12208 0.09060
v -0.03928 -0.16290 0.07528
v 0.04499 -0.17716 0.14664
v -0.03103 -0.20696 0.12012
v 0.05907 -0.25241 0.16715
v -0.01976 -0.26716 0.13653
v 0.07315 -0.32766 0.14664
v -0.00850 -0.32736 0.12012
v 0.08346 -0.38274 0.09060
v -0.00025 -0.37143 0.07528
v 0.08724 -0.40291 0.01404
v 0.00277 -0.38756 0.01404
v 0.08346 -0.38274 -0.06252
v -0.00025 -0.37143 -0.04720
v 0.07315 -0.32766 -0.11856
v -0.00850 -0.32736 -0.09204
v 0.05907 -0.25241 -0.13907
v -0.01976 -0.26716 -0.10845
v 0.04499 -0.17716 -0.11856
v -0.03103 -0.20696 -0.09204
v 0.03468 -0.12208 -0.06252
v -0.03928 -0.16290 -0.04720
v 0.01657 0.02372 0.00174
v -0.05451 -0.01965 0.00174
v 0.02019 0.00416 0.07599
v -0.05161 -0.03530 0.06114
v 0.03009 -0.04929 0.13035
v -0.04369 -0.07806 0.10463
v 0.04361 -0.12230 0.15025
v -0.03288 -0.13647 0.12055
v 0.05713 -0.19531 0.13035
v -0.02206 -0.19488 0.10463
v 0.06703 -0.24876 0.07599
v -0.01414 -0.23763 0.06114
v 0.07066 -0.26832 0.00174
v -0.01124 -0.25328 0.00174
v 0.06703 -0.24876 -0.07251
v -0.01414 -0.23763 -0.05766
v 0.05713 -0.19531 -0.12686
v -0.02206 -0.19488 -0.10114
v 0.04361 -0.12230 -0.14676
v -0.03288 -0.13647 -0.11706
v 0.03009 -0.04929 -0.12686
v -0.04369 -0.07806 -0.10114
v 0.02019 0.00416 -0.07251
v -0.05161 -0.03530 -0.05766
v 0.00278 0.14977 -0.01027
v -0.06622 0.10800 -0.01027
v 0.00623 0.13081 0.06166
v -0.06346 0.09283 0.04727
v 0.01563 0.07900 0.11431
v -0.05594 0.05138 0.08940
v 0.02848 0.00823 0.13359
v -0.04566 -0.00523 0.10482
v 0.04133 -0.06254 0.11431
v -0.03538 -0.06185 0.08940
v 0.05074 -0.11435 0.06166
v -0.02785 -0.10330 0.04727
v 0.05418 -0.13331 -0.01027
v -0.02510 -0.11847 -0.01027
v 0.05074 -0.11435 -0.08220
v -0.02785 -0.10330 -0.06781
v 0.04133 -0.06254 -0.13485
v -0.03538 -0.06185 -0.10994
v 0.02848 0.00823 -0.15413
v -0.04566 -0.00523 -0.12536
v 0.01563 0.07900 -0.13485
v -0.05594 0.05138 -0.10994
v 0.00623 0.13081 -0.08220
v -0.06346 0.09283 -0.06781
v -0.01024 0.27619 -0.02181
v -0.07720 0.23612 -0.02181
v -0.00700 0.25783 0.04777
v -0.07461 0.22143 0.03385
v 0.00184 0.20766 0.09871
v -0.06754 0.18130 0.07460
v 0.01392 0.13913 0.11735
v -0.05787 0.12648 0.08952
v 0.02600 0.07060 0.09871
v -0.04821 0.07166 0.07460
v 0.03484 0.02044 0.04777
v -0.04114 0.03152 0.03385
v 0.03808 0.00208 -0.02181
v -0.03855 0.01683 -0.02181
v 0.03484 0.02044 -0.09140
v -0.04114 0.03152 -0.07748
v 0.02600 0.07060 -0.14234
v -0.04821 0.07166 -0.11823
v 0.01392 0.13913 -0.16098
v -0.05787 0.12648 -0.13315
v 0.00184 0.20766 -0.14234
v -0.06754 0.18130 -0.11823
v -0.00700 0.25783 -0.09140
v -0.07461 0.22143 -0.07748
v -0.02229 0.40291 -0.03271
v -0.08724 0.36464 -0.03271
v -0.01929 0.38515 0.03451
v -0.08483 0.35043 0.02106
v -0.01107 0.33663 0.08371
v -0.07826 0.31162 0.06043
v 0.00015 0.27036 0.10172
v -0.06928 0.25860 0.07484
v 0.01137 0.20408 0.08371
v -0.06030 0.20558 0.06043
v 0.01959 0.15556 0.03451
v -0.05373 0.16677 0.02106
v 0.02259 0.13781 -0.03271
v -0.05133 0.15256 -0.03271
v 0.01959 0.15556 -0.09993
v -0.05373 0.16677 -0.08649
v 0.01137 0.20408 -0.14914
v -0.06030 0.20558 -0.12585
v 0.00015 0.27036 -0.16715
v -0.06928 0.25860 -0.14026
v -0.01107 0.33663 -0.14914
v -0.07826 0.31162 -0.12585
v -0.01929 0.38515 -0.09993
v -0.08483 0.35043 -0.08649
f 58 59 57
f 2 3 1
f 80 81 79
f 110 111 109
f 3 6 5
f 85 88 87
f 30 31 29
f 5 8 7
f 76 77 75
f 53 56 55
f 7 10 9
f 36 37 35
f 99 102 101
f 9 12 11
f 52 53 51
f 27 30 29
f 11 14 13
f 13 16 15
f 34 35 33
f 81 84 83
f 16 17 15
f 77 80 79
f 25 28 27
f 18 19 17
f 59 62 61
f 20 21 19
f 22 14 6
f 103 106 105
f 22 23 21
f 38 39 37
f 31 34 33
f 24 1 23
f 11 15 23
f 40 41 39
f 84 85 83
f 50 51 49
f 42 43 41
f 102 103 101
f 43 46 45
f 44 40 36
f 45 48 47
f 62 63 61
f 55 58 57
f 48 25 47
f 45 29 37
f 63 66 65
f 74 75 73
f 108 109 107
f 66 67 65
f 68 69 67
f 65 69 49
f 70 71 69
f 106 107 105
f 72 49 71
f 50 66 58
f 88 89 87
f 98 99 97
f 90 91 89
f 91 94 93
f 93 73 81
f 94 95 93
f 95 74 73
f 86 82 74
f 112 113 111
f 114 115 113
f 115 118 117
f 104 120 112
f 118 119 117
f 120 97 119
f 109 113 97
f 58 60 59
f 2 4 3
f 80 82 81
f 110 112 111
f 3 4 6
f 85 86 88
f 30 32 31
f 5 6 8
f 76 78 77
f 53 54 56
f 7 8 10
f 36 38 37
f 99 100 102
f 9 10 12
f 52 54 53
f 27 28 30
f 11 12 14
f 13 14 16
f 34 36 35
f 81 82 84
f 16 18 17
f 77 78 80
f 25 26 28
f 18 20 19
f 59 60 62
f 20 22 21
f 6 4 2
f 2 24 6
f 24 22 6
f 22 20 18
f 18 16 22
f 16 14 22
f 14 12 10
f 10 8 6
f 14 10 6
f 103 104 106
f 22 24 23
f 38 40 39
f 31 32 34
f 24 2 1
f 23 1 3
f 3 5 7
f 7 9 11
f 11 13 15
f 15 17 23
f 17 19 23
f 19 21 23
f 23 3 7
f 7 11 23
f 40 42 41
f 84 86 85
f 50 52 51
f 42 44 43
f 102 104 103
f 43 44 46
f 36 34 32
f 32 30 28
f 28 26 48
f 48 46 44
f 44 42 40
f 40 38 36
f 36 32 28
f 28 48 36
f 48 44 36
f 45 46 48
f 62 64 63
f 55 56 58
f 48 26 25
f 37 39 45
f 39 41 45
f 41 43 45
f 45 47 25
f 25 27 45
f 27 29 45
f 29 31 37
f 31 33 37
f 33 35 37
f 63 64 66
f 74 76 75
f 108 110 109
f 66 68 67
f 68 70 69
f 49 51 53
f 53 55 57
f 57 59 65
f 59 61 65
f 61 63 65
f 65 67 69
f 69 71 49
f 49 53 65
f 53 57 65
f 70 72 71
f 106 108 107
f 72 50 49
f 58 56 54
f 54 52 50
f 50 72 70
f 70 68 66
f 66 64 62
f 62 60 58
f 58 54 50
f 50 70 66
f 66 62 58
f 88 90 89
f 98 100 99
f 90 92 91
f 91 92 94
f 81 83 85
f 85 87 81
f 87 89 81
f 89 91 93
f 93 95 73
f 73 75 81
f 75 77 81
f 77 79 81
f 89 93 81
f 94 96 95
f 95 96 74
f 90 88 86
f 86 84 82
f 82 80 78
f 78 76 82
f 76 74 82
f 74 96 90
f 96 94 90
f 94 92 90
f 90 86 74
f 112 114 113
f 114 116 115
f 115 116 118
f 112 110 108
f 108 106 104
f 104 102 100
f 100 98 104
f 98 120 104
f 120 118 116
f 116 114 120
f 114 112 120
f 112 108 104
f 118 120 119
f 120 98 97
f 105 107 109
f 109 111 113
f 113 115 117
f 117 119 113
f 119 97 113
f 97 99 105
f 99 101 105
f 101 103 105
f 105 109 97
