# kraken_pocket Seg2_Core.obj: Roblox cue frame, recentred on its bounding box
v -0.14210 -0.34972 0.00768
v -0.10880 -0.33562 0.11081
v -0.02163 -0.31566 0.17363
v 0.08612 -0.29748 0.17214
v 0.17329 -0.28800 0.10691
v 0.20659 -0.29087 0.00286
v 0.17329 -0.30497 -0.10026
v 0.08612 -0.32492 -0.16308
v -0.02163 -0.34311 -0.16159
v -0.10880 -0.35258 -0.09637
v -0.14747 -0.30541 0.00406
v -0.11455 -0.29163 0.10596
v -0.02839 -0.27210 0.16803
v 0.07808 -0.25427 0.16657
v 0.16421 -0.24495 0.10213
v 0.19710 -0.24771 -0.00067
v 0.16417 -0.26149 -0.10257
v 0.07802 -0.28102 -0.16464
v -0.02846 -0.29885 -0.16318
v -0.11459 -0.30817 -0.09875
v -0.15275 -0.26087 0.00051
v -0.12018 -0.24758 0.10119
v -0.03502 -0.22865 0.16254
v 0.07020 -0.21132 0.16111
v 0.15529 -0.20220 0.09747
v 0.18775 -0.20478 -0.00409
v 0.15518 -0.21807 -0.10477
v 0.07002 -0.23700 -0.16611
v -0.03520 -0.25434 -0.16469
v -0.12029 -0.26346 -0.10105
v -0.15790 -0.21632 -0.00293
v -0.12568 -0.20352 0.09652
v -0.04151 -0.18521 0.15714
v 0.06245 -0.16838 0.15576
v 0.14650 -0.15947 0.09291
v 0.17853 -0.16187 -0.00740
v 0.14631 -0.17467 -0.10685
v 0.06214 -0.19298 -0.16747
v -0.04183 -0.20980 -0.16609
v -0.12587 -0.21872 -0.10324
v -0.16292 -0.17174 -0.00626
v -0.13104 -0.15945 0.09196
v -0.04787 -0.14177 0.15184
v 0.05483 -0.12547 0.15050
v 0.13783 -0.11676 0.08846
v 0.16943 -0.11898 -0.01060
v 0.13756 -0.13127 -0.10882
v 0.05439 -0.14895 -0.16870
v -0.04831 -0.16525 -0.16736
v -0.13132 -0.17396 -0.10532
v -0.16778 -0.12715 -0.00947
v -0.13626 -0.11537 0.08752
v -0.05409 -0.09835 0.14666
v 0.04735 -0.08257 0.14536
v 0.12930 -0.07408 0.08411
v 0.16047 -0.07611 -0.01368
v 0.12895 -0.08788 -0.11067
v 0.04678 -0.10491 -0.16981
v -0.05466 -0.12068 -0.16851
v -0.13661 -0.12917 -0.10727
v -0.17249 -0.08254 -0.01256
v -0.14132 -0.07129 0.08319
v -0.06016 -0.05492 0.14159
v 0.04001 -0.03969 0.14033
v 0.12091 -0.03141 0.07989
v 0.15165 -0.03325 -0.01664
v 0.12048 -0.04450 -0.11240
v 0.03931 -0.06086 -0.17080
v -0.06085 -0.07609 -0.16953
v -0.14175 -0.08437 -0.10909
v -0.17704 -0.03792 -0.01552
v -0.14622 -0.02720 0.07899
v -0.06606 -0.01151 0.13664
v 0.03283 0.00318 0.13542
v 0.11267 0.01124 0.07579
v 0.14297 0.00960 -0.01948
v 0.11216 -0.00112 -0.11399
v 0.03200 -0.01681 -0.17164
v -0.06689 -0.03150 -0.17042
v -0.14673 -0.03956 -0.11079
v -0.18141 0.00671 -0.01835
v -0.15096 0.01689 0.07491
v -0.07181 0.03191 0.13182
v 0.02580 0.04604 0.13063
v 0.10459 0.05388 0.07181
v 0.13445 0.05243 -0.02218
v 0.10400 0.04226 -0.11544
v 0.02485 0.02724 -0.17234
v -0.07276 0.01311 -0.17116
v -0.15154 0.00527 -0.11234
v -0.18561 0.05136 -0.02103
v -0.15551 0.06099 0.07097
v -0.07738 0.07532 0.12712
v 0.01894 0.08889 0.12598
v 0.09666 0.09650 0.06797
v 0.12609 0.09526 -0.02474
v 0.09600 0.08563 -0.11674
v 0.01787 0.07129 -0.17290
v -0.07846 0.05772 -0.17175
v -0.15618 0.05011 -0.11374
v -0.18962 0.09601 -0.02358
v -0.15988 0.10509 0.06717
v -0.08277 0.11874 0.12256
v 0.01225 0.13173 0.12145
v 0.08891 0.13912 0.06426
v 0.11790 0.13807 -0.02716
v 0.08817 0.12899 -0.11790
v 0.01106 0.11534 -0.17330
v -0.08397 0.10235 -0.17219
v -0.16062 0.09496 -0.11500
v -0.19343 0.14067 -0.02597
v -0.16406 0.14920 0.06351
v -0.08798 0.16215 0.11814
v 0.00574 0.17458 0.11707
v 0.08132 0.18173 0.06070
v 0.10988 0.18088 -0.02944
v 0.08051 0.17235 -0.11891
v 0.00443 0.15940 -0.17355
v -0.08930 0.14697 -0.17247
v -0.16488 0.13982 -0.11610
v -0.19705 0.18533 -0.02820
v -0.16805 0.19331 0.05999
v -0.09300 0.20556 0.11386
v -0.00058 0.21742 0.11282
v 0.07392 0.22434 0.05727
v 0.10204 0.22368 -0.03156
v 0.07304 0.21570 -0.11976
v -0.00201 0.20345 -0.17363
v -0.09443 0.19160 -0.17259
v -0.16893 0.18468 -0.11704
v -0.20046 0.23000 -0.03028
v -0.17183 0.23742 0.05663
v -0.09783 0.24898 0.10973
v -0.00672 0.26025 0.10872
v 0.06670 0.26694 0.05400
v 0.09438 0.26648 -0.03354
v 0.06575 0.25906 -0.12045
v -0.00825 0.24750 -0.17355
v -0.09936 0.23623 -0.17254
v -0.17278 0.22954 -0.11782
v -0.20365 0.27467 -0.03220
v -0.17540 0.28154 0.05342
v -0.10245 0.29240 0.10574
v -0.01266 0.30310 0.10477
v 0.05967 0.30954 0.05088
v 0.08691 0.30928 -0.03535
v 0.05866 0.30241 -0.12098
v -0.01430 0.29155 -0.17330
v -0.10409 0.28085 -0.17232
v -0.17641 0.27440 -0.11843
v -0.20659 0.31900 -0.03394
v -0.17874 0.32555 0.05038
v -0.10688 0.33598 0.10190
v -0.01844 0.34630 0.10095
v 0.05278 0.35258 0.04789
v 0.07959 0.35242 -0.03702
v 0.05175 0.34587 -0.12134
v -0.02012 0.33544 -0.17287
v -0.10855 0.32511 -0.17192
v -0.17978 0.31883 -0.11885
v 0.03224 -0.32029 0.00527
v -0.06350 0.33571 -0.03548
f 1 12 11
f 2 13 12
f 3 14 13
f 4 15 14
f 6 15 5
f 7 16 6
f 8 17 7
f 9 18 8
f 10 19 9
f 10 11 20
f 11 22 21
f 12 23 22
f 13 24 23
f 14 25 24
f 16 25 15
f 17 26 16
f 18 27 17
f 19 28 18
f 20 29 19
f 20 21 30
f 21 32 31
f 22 33 32
f 23 34 33
f 24 35 34
f 26 35 25
f 27 36 26
f 28 37 27
f 29 38 28
f 30 39 29
f 30 31 40
f 31 42 41
f 32 43 42
f 33 44 43
f 34 45 44
f 36 45 35
f 37 46 36
f 38 47 37
f 39 48 38
f 40 49 39
f 40 41 50
f 41 52 51
f 42 53 52
f 43 54 53
f 44 55 54
f 46 55 45
f 47 56 46
f 48 57 47
f 49 58 48
f 50 59 49
f 50 51 60
f 51 62 61
f 52 63 62
f 53 64 63
f 54 65 64
f 56 65 55
f 57 66 56
f 58 67 57
f 59 68 58
f 60 69 59
f 60 61 70
f 61 72 71
f 62 73 72
f 63 74 73
f 64 75 74
f 66 75 65
f 67 76 66
f 68 77 67
f 69 78 68
f 70 79 69
f 70 71 80
f 71 82 81
f 72 83 82
f 73 84 83
f 74 85 84
f 76 85 75
f 77 86 76
f 78 87 77
f 79 88 78
f 80 89 79
f 80 81 90
f 81 92 91
f 82 93 92
f 83 94 93
f 84 95 94
f 86 95 85
f 87 96 86
f 88 97 87
f 89 98 88
f 90 99 89
f 90 91 100
f 91 102 101
f 92 103 102
f 93 104 103
f 94 105 104
f 96 105 95
f 97 106 96
f 98 107 97
f 99 108 98
f 100 109 99
f 100 101 110
f 101 112 111
f 102 113 112
f 103 114 113
f 104 115 114
f 106 115 105
f 107 116 106
f 108 117 107
f 109 118 108
f 110 119 109
f 110 111 120
f 111 122 121
f 112 123 122
f 113 124 123
f 114 125 124
f 116 125 115
f 117 126 116
f 118 127 117
f 119 128 118
f 120 129 119
f 120 121 130
f 121 132 131
f 122 133 132
f 123 134 133
f 124 135 134
f 126 135 125
f 127 136 126
f 128 137 127
f 129 138 128
f 130 139 129
f 130 131 140
f 131 142 141
f 132 143 142
f 133 144 143
f 134 145 144
f 136 145 135
f 137 146 136
f 138 147 137
f 139 148 138
f 140 149 139
f 140 141 150
f 142 151 141
f 143 152 142
f 144 153 143
f 145 154 144
f 145 156 155
f 146 157 156
f 147 158 157
f 148 159 158
f 149 160 159
f 141 160 150
f 161 2 1
f 161 3 2
f 161 4 3
f 161 5 4
f 161 6 5
f 161 7 6
f 161 8 7
f 161 9 8
f 161 10 9
f 161 1 10
f 151 152 162
f 152 153 162
f 153 154 162
f 154 155 162
f 155 156 162
f 156 157 162
f 157 158 162
f 158 159 162
f 159 160 162
f 160 151 162
f 1 2 12
f 2 3 13
f 3 4 14
f 4 5 15
f 6 16 15
f 7 17 16
f 8 18 17
f 9 19 18
f 10 20 19
f 10 1 11
f 11 12 22
f 12 13 23
f 13 14 24
f 14 15 25
f 16 26 25
f 17 27 26
f 18 28 27
f 19 29 28
f 20 30 29
f 20 11 21
f 21 22 32
f 22 23 33
f 23 24 34
f 24 25 35
f 26 36 35
f 27 37 36
f 28 38 37
f 29 39 38
f 30 40 39
f 30 21 31
f 31 32 42
f 32 33 43
f 33 34 44
f 34 35 45
f 36 46 45
f 37 47 46
f 38 48 47
f 39 49 48
f 40 50 49
f 40 31 41
f 41 42 52
f 42 43 53
f 43 44 54
f 44 45 55
f 46 56 55
f 47 57 56
f 48 58 57
f 49 59 58
f 50 60 59
f 50 41 51
f 51 52 62
f 52 53 63
f 53 54 64
f 54 55 65
f 56 66 65
f 57 67 66
f 58 68 67
f 59 69 68
f 60 70 69
f 60 51 61
f 61 62 72
f 62 63 73
f 63 64 74
f 64 65 75
f 66 76 75
f 67 77 76
f 68 78 77
f 69 79 78
f 70 80 79
f 70 61 71
f 71 72 82
f 72 73 83
f 73 74 84
f 74 75 85
f 76 86 85
f 77 87 86
f 78 88 87
f 79 89 88
f 80 90 89
f 80 71 81
f 81 82 92
f 82 83 93
f 83 84 94
f 84 85 95
f 86 96 95
f 87 97 96
f 88 98 97
f 89 99 98
f 90 100 99
f 90 81 91
f 91 92 102
f 92 93 103
f 93 94 104
f 94 95 105
f 96 106 105
f 97 107 106
f 98 108 107
f 99 109 108
f 100 110 109
f 100 91 101
f 101 102 112
f 102 103 113
f 103 104 114
f 104 105 115
f 106 116 115
f 107 117 116
f 108 118 117
f 109 119 118
f 110 120 119
f 110 101 111
f 111 112 122
f 112 113 123
f 113 114 124
f 114 115 125
f 116 126 125
f 117 127 126
f 118 128 127
f 119 129 128
f 120 130 129
f 120 111 121
f 121 122 132
f 122 123 133
f 123 124 134
f 124 125 135
f 126 136 135
f 127 137 136
f 128 138 137
f 129 139 138
f 130 140 139
f 130 121 131
f 131 132 142
f 132 133 143
f 133 134 144
f 134 135 145
f 136 146 145
f 137 147 146
f 138 148 147
f 139 149 148
f 140 150 149
f 140 131 141
f 142 152 151
f 143 153 152
f 144 154 153
f 145 155 154
f 145 146 156
f 146 147 157
f 147 148 158
f 148 149 159
f 149 150 160
f 141 151 160
