# kraken_pocket Seg2_Sucker.obj: Roblox cue frame, recentred on its bounding box
v 0.02072 -0.10072 0.00496
v -0.04231 -0.13720 0.00496
v 0.02349 -0.11790 0.06991
v -0.04010 -0.15094 0.05692
v 0.03106 -0.16484 0.11746
v -0.03404 -0.18850 0.09496
v 0.04141 -0.22896 0.13486
v -0.02577 -0.23979 0.10888
v 0.05175 -0.29308 0.11746
v -0.01750 -0.29109 0.09496
v 0.05932 -0.34002 0.06991
v -0.01144 -0.32864 0.05692
v 0.06209 -0.35720 0.00496
v -0.00922 -0.34239 0.00496
v 0.05932 -0.34002 -0.05998
v -0.01144 -0.32864 -0.04699
v 0.05175 -0.29308 -0.10753
v -0.01750 -0.29109 -0.08503
v 0.04141 -0.22896 -0.12493
v -0.02577 -0.23979 -0.09895
v 0.03106 -0.16484 -0.10753
v -0.03404 -0.18850 -0.08503
v 0.02349 -0.11790 -0.05998
v -0.04010 -0.15094 -0.04699
v 0.01201 0.01368 -0.00334
v -0.04923 -0.02105 -0.00334
v 0.01454 -0.00295 0.05944
v -0.04720 -0.03436 0.04689
v 0.02147 -0.04838 0.10540
v -0.04166 -0.07070 0.08365
v 0.03093 -0.11044 0.12222
v -0.03409 -0.12035 0.09711
v 0.04039 -0.17251 0.10540
v -0.02652 -0.17000 0.08365
v 0.04731 -0.21794 0.05944
v -0.02098 -0.20635 0.04689
v 0.04985 -0.23457 -0.00334
v -0.01895 -0.21965 -0.00334
v 0.04731 -0.21794 -0.06611
v -0.02098 -0.20635 -0.05356
v 0.04039 -0.17251 -0.11207
v -0.02652 -0.17000 -0.09032
v 0.03093 -0.11044 -0.12889
v -0.03409 -0.12035 -0.10378
v 0.02147 -0.04838 -0.11207
v -0.04166 -0.07070 -0.09032
v 0.01454 -0.00295 -0.06611
v -0.04720 -0.03436 -0.05356
v 0.00451 0.12817 -0.01075
v -0.05491 0.09523 -0.01075
v 0.00680 0.11210 0.04983
v -0.05308 0.08237 0.03772
v 0.01305 0.06819 0.09419
v -0.04808 0.04724 0.07320
v 0.02160 0.00820 0.11042
v -0.04124 -0.00075 0.08619
v 0.03014 -0.05178 0.09419
v -0.03441 -0.04873 0.07320
v 0.03640 -0.09569 0.04983
v -0.02940 -0.08386 0.03772
v 0.03869 -0.11176 -0.01075
v -0.02757 -0.09672 -0.01075
v 0.03640 -0.09569 -0.07134
v -0.02940 -0.08386 -0.05922
v 0.03014 -0.05178 -0.11570
v -0.03441 -0.04873 -0.09471
v 0.02160 0.00820 -0.13193
v -0.04124 -0.00075 -0.10769
v 0.01305 0.06819 -0.11570
v -0.04808 0.04724 -0.09471
v 0.00680 0.11210 -0.07134
v -0.05308 0.08237 -0.05922
v -0.00165 0.24269 -0.01720
v -0.05924 0.21158 -0.01720
v 0.00039 0.22718 0.04118
v -0.05761 0.19917 0.02950
v 0.00596 0.18482 0.08391
v -0.05316 0.16527 0.06369
v 0.01356 0.12694 0.09955
v -0.04707 0.11897 0.07620
v 0.02117 0.06906 0.08391
v -0.04099 0.07267 0.06369
v 0.02673 0.02669 0.04118
v -0.03654 0.03878 0.02950
v 0.02877 0.01118 -0.01720
v -0.03491 0.02637 -0.01720
v 0.02673 0.02669 -0.07557
v -0.03654 0.03878 -0.06390
v 0.02117 0.06906 -0.11831
v -0.04099 0.07267 -0.09808
v 0.01356 0.12694 -0.13395
v -0.04707 0.11897 -0.11060
v 0.00596 0.18482 -0.11831
v -0.05316 0.16527 -0.09808
v 0.00039 0.22718 -0.07557
v -0.05761 0.19917 -0.06390
v -0.00635 0.35720 -0.02259
v -0.06209 0.32793 -0.02259
v -0.00457 0.34226 0.03355
v -0.06066 0.31599 0.02232
v 0.00030 0.30146 0.07464
v -0.05677 0.28334 0.05520
v 0.00695 0.24572 0.08969
v -0.05144 0.23875 0.06723
v 0.01360 0.18998 0.07464
v -0.04612 0.19415 0.05520
v 0.01847 0.14917 0.03355
v -0.04223 0.16151 0.02232
v 0.02026 0.13423 -0.02259
v -0.04080 0.14956 -0.02259
v 0.01847 0.14917 -0.07873
v -0.04223 0.16151 -0.06750
v 0.01360 0.18998 -0.11982
v -0.04612 0.19415 -0.10037
v 0.00695 0.24572 -0.13486
v -0.05144 0.23875 -0.11241
v 0.00030 0.30146 -0.11982
v -0.05677 0.28334 -0.10038
v -0.00457 0.34226 -0.07873
v -0.06066 0.31599 -0.06750
f 57 60 59
f 2 3 1
f 80 81 79
f 109 112 111
f 3 6 5
f 86 87 85
f 29 32 31
f 5 8 7
f 75 78 77
f 53 56 55
f 7 10 9
f 36 37 35
f 99 102 101
f 10 11 9
f 51 54 53
f 28 29 27
f 11 14 13
f 14 15 13
f 34 35 33
f 81 84 83
f 16 17 15
f 78 79 77
f 26 27 25
f 17 20 19
f 59 62 61
f 20 21 19
f 22 14 6
f 103 106 105
f 22 23 21
f 37 40 39
f 31 34 33
f 24 1 23
f 7 15 23
f 39 42 41
f 84 85 83
f 50 51 49
f 41 44 43
f 102 103 101
f 44 45 43
f 40 36 28
f 46 47 45
f 62 63 61
f 55 58 57
f 48 25 47
f 41 45 29
f 63 66 65
f 73 76 75
f 108 109 107
f 66 67 65
f 68 69 67
f 69 49 57
f 69 72 71
f 105 108 107
f 71 50 49
f 66 62 58
f 87 90 89
f 98 99 97
f 90 91 89
f 92 93 91
f 89 73 81
f 94 95 93
f 95 74 73
f 82 74 90
f 111 114 113
f 113 116 115
f 116 117 115
f 108 104 120
f 117 120 119
f 119 98 97
f 113 117 97
f 57 58 60
f 2 4 3
f 80 82 81
f 109 110 112
f 3 4 6
f 86 88 87
f 29 30 32
f 5 6 8
f 75 76 78
f 53 54 56
f 7 8 10
f 36 38 37
f 99 100 102
f 10 12 11
f 51 52 54
f 28 30 29
f 11 12 14
f 14 16 15
f 34 36 35
f 81 82 84
f 16 18 17
f 78 80 79
f 26 28 27
f 17 18 20
f 59 60 62
f 20 22 21
f 6 4 2
f 2 24 6
f 24 22 6
f 22 20 18
f 18 16 22
f 16 14 22
f 14 12 10
f 10 8 14
f 8 6 14
f 103 104 106
f 22 24 23
f 37 38 40
f 31 32 34
f 24 2 1
f 23 1 3
f 3 5 7
f 7 9 11
f 11 13 15
f 15 17 19
f 19 21 23
f 23 3 7
f 7 11 15
f 15 19 23
f 39 40 42
f 84 86 85
f 50 52 51
f 41 42 44
f 102 104 103
f 44 46 45
f 36 34 32
f 32 30 28
f 28 26 48
f 48 46 28
f 46 44 28
f 44 42 40
f 40 38 36
f 36 32 28
f 44 40 28
f 46 48 47
f 62 64 63
f 55 56 58
f 48 26 25
f 37 39 41
f 41 43 45
f 45 47 29
f 47 25 29
f 25 27 29
f 29 31 37
f 31 33 37
f 33 35 37
f 37 41 29
f 63 64 66
f 73 74 76
f 108 110 109
f 66 68 67
f 68 70 69
f 49 51 53
f 53 55 57
f 57 59 61
f 61 63 65
f 65 67 69
f 69 71 49
f 49 53 57
f 57 61 65
f 65 69 57
f 69 70 72
f 105 106 108
f 71 72 50
f 58 56 54
f 54 52 50
f 50 72 70
f 70 68 66
f 66 64 62
f 62 60 58
f 58 54 50
f 50 70 58
f 70 66 58
f 87 88 90
f 98 100 99
f 90 92 91
f 92 94 93
f 81 83 85
f 85 87 81
f 87 89 81
f 89 91 93
f 93 95 89
f 95 73 89
f 73 75 81
f 75 77 81
f 77 79 81
f 94 96 95
f 95 96 74
f 90 88 86
f 86 84 82
f 82 80 74
f 80 78 74
f 78 76 74
f 74 96 94
f 94 92 74
f 92 90 74
f 90 86 82
f 111 112 114
f 113 114 116
f 116 118 117
f 112 110 108
f 108 106 104
f 104 102 100
f 100 98 104
f 98 120 104
f 120 118 112
f 118 116 112
f 116 114 112
f 112 108 120
f 117 118 120
f 119 120 98
f 105 107 109
f 109 111 113
f 113 115 117
f 117 119 97
f 97 99 105
f 99 101 105
f 101 103 105
f 105 109 97
f 109 113 97
