# kraken_pocket Seg2_Ink.obj: Roblox cue frame, recentred on its bounding box
v -0.29753 -0.36779 0.00438
v -0.27340 -0.35368 0.12667
v -0.20469 -0.33357 0.22968
v -0.10185 -0.31052 0.29772
v 0.01946 -0.28805 0.32043
v 0.14077 -0.26957 0.29436
v 0.24360 -0.25790 0.22348
v 0.31232 -0.25481 0.11858
v 0.33645 -0.26078 -0.00438
v 0.31232 -0.27489 -0.12667
v 0.24360 -0.29500 -0.22968
v 0.14077 -0.31805 -0.29772
v 0.01946 -0.34052 -0.32043
v -0.10185 -0.35900 -0.29436
v -0.20469 -0.37067 -0.22348
v -0.27340 -0.37376 -0.11858
v -0.30121 -0.32301 0.00071
v -0.27735 -0.30923 0.12155
v -0.20942 -0.28956 0.22333
v -0.10779 -0.26700 0.29056
v 0.01209 -0.24498 0.31302
v 0.13196 -0.22685 0.28728
v 0.23357 -0.21537 0.21725
v 0.30145 -0.21230 0.11361
v 0.32527 -0.21809 -0.00788
v 0.30140 -0.23187 -0.12871
v 0.23348 -0.25154 -0.23049
v 0.13185 -0.27411 -0.29773
v 0.01197 -0.29613 -0.32018
v -0.10790 -0.31426 -0.29444
v -0.20951 -0.32573 -0.22441
v -0.27739 -0.32880 -0.12077
v -0.30483 -0.27781 -0.00288
v -0.28120 -0.26453 0.11650
v -0.21404 -0.24551 0.21707
v -0.11358 -0.22365 0.28351
v 0.00489 -0.20226 0.30572
v 0.12334 -0.18462 0.28032
v 0.22373 -0.17340 0.21116
v 0.29077 -0.17031 0.10878
v 0.31427 -0.17582 -0.01124
v 0.29063 -0.18910 -0.13062
v 0.22347 -0.20812 -0.23119
v 0.12301 -0.22999 -0.29764
v 0.00454 -0.25137 -0.31985
v -0.11391 -0.26902 -0.29444
v -0.21430 -0.28024 -0.22528
v -0.28134 -0.28333 -0.12290
v -0.30832 -0.23258 -0.00638
v -0.28493 -0.21982 0.11155
v -0.21853 -0.20146 0.21090
v -0.11924 -0.18031 0.27656
v -0.00217 -0.15958 0.29852
v 0.11485 -0.14242 0.27345
v 0.21401 -0.13146 0.20516
v 0.28021 -0.12836 0.10404
v 0.30338 -0.13359 -0.01450
v 0.27998 -0.14635 -0.13243
v 0.21358 -0.16471 -0.23178
v 0.11430 -0.18586 -0.29744
v -0.00277 -0.20659 -0.31940
v -0.11979 -0.22375 -0.29433
v -0.21895 -0.23471 -0.22604
v -0.28515 -0.23781 -0.12492
v -0.31166 -0.18731 -0.00976
v -0.28850 -0.17508 0.10670
v -0.22287 -0.15740 0.20484
v -0.12476 -0.13698 0.26970
v -0.00911 -0.11691 0.29142
v 0.10648 -0.10027 0.26668
v 0.20441 -0.08957 0.19926
v 0.26977 -0.08645 0.09942
v 0.29261 -0.09139 -0.01765
v 0.26945 -0.10363 -0.13411
v 0.20382 -0.12130 -0.23225
v 0.10571 -0.14173 -0.29711
v -0.00995 -0.16179 -0.31882
v -0.12554 -0.17844 -0.29409
v -0.22347 -0.18913 -0.22667
v -0.28883 -0.19225 -0.12683
v -0.31485 -0.14202 -0.01303
v -0.29193 -0.13032 0.10197
v -0.22707 -0.11333 0.19888
v -0.13014 -0.09365 0.26294
v -0.01590 -0.07427 0.28441
v 0.09826 -0.05814 0.26002
v 0.19495 -0.04771 0.19347
v 0.25946 -0.04458 0.09490
v 0.28197 -0.04922 -0.02068
v 0.25905 -0.06092 -0.13568
v 0.19418 -0.07790 -0.23258
v 0.09725 -0.09758 -0.29665
v -0.01698 -0.11697 -0.31812
v -0.13114 -0.13310 -0.29372
v -0.22783 -0.14352 -0.22717
v -0.29235 -0.14666 -0.12861
v -0.31788 -0.09670 -0.01617
v -0.29519 -0.08554 0.09736
v -0.23110 -0.06926 0.19304
v -0.13536 -0.05034 0.25630
v -0.02254 -0.03165 0.27752
v 0.09017 -0.01604 0.25346
v 0.18563 -0.00589 0.18779
v 0.24929 -0.00274 0.09050
v 0.27147 -0.00707 -0.02359
v 0.24878 -0.01823 -0.13711
v 0.18469 -0.03451 -0.23279
v 0.08894 -0.05343 -0.29605
v -0.02387 -0.07212 -0.31727
v -0.13659 -0.08773 -0.29322
v -0.23204 -0.09788 -0.22754
v -0.29570 -0.10103 -0.13026
v -0.32074 -0.05135 -0.01918
v -0.29829 -0.04075 0.09287
v -0.23497 -0.02518 0.18731
v -0.14042 -0.00703 0.24977
v -0.02903 0.01096 0.27073
v 0.08224 0.02603 0.24702
v 0.17645 0.03591 0.18223
v 0.23926 0.03907 0.08623
v 0.26110 0.03505 -0.02637
v 0.23866 0.02444 -0.13842
v 0.17534 0.00888 -0.23286
v 0.08078 -0.00928 -0.29532
v -0.03061 -0.02726 -0.31628
v -0.14188 -0.04234 -0.29257
v -0.23609 -0.05221 -0.22777
v -0.29889 -0.05537 -0.13177
v -0.32342 -0.00598 -0.02206
v -0.30121 0.00406 0.08851
v -0.23867 0.01890 0.18171
v -0.14531 0.03628 0.24336
v -0.03535 0.05355 0.26407
v 0.07446 0.06809 0.24069
v 0.16743 0.07768 0.17678
v 0.22938 0.08086 0.08207
v 0.25089 0.07714 -0.02902
v 0.22868 0.06710 -0.13958
v 0.16614 0.05226 -0.23278
v 0.07278 0.03488 -0.29443
v -0.03717 0.01761 -0.31514
v -0.14699 0.00307 -0.29177
v -0.23995 -0.00652 -0.22786
v -0.30191 -0.00969 -0.13315
v -0.32591 0.03941 -0.02479
v -0.30394 0.04888 0.08428
v -0.24218 0.06299 0.17623
v -0.15003 0.07959 0.23707
v -0.04151 0.09614 0.25752
v 0.06685 0.11013 0.23449
v 0.15855 0.11943 0.17147
v 0.21965 0.12262 0.07805
v 0.24082 0.11922 -0.03153
v 0.21886 0.10975 -0.14060
v 0.15710 0.09564 -0.23255
v 0.06495 0.07904 -0.29339
v -0.04357 0.06249 -0.31385
v -0.15193 0.04850 -0.29081
v -0.24364 0.03920 -0.22779
v -0.30473 0.03601 -0.13438
v -0.32821 0.08481 -0.02738
v -0.30649 0.09372 0.08019
v -0.24552 0.10709 0.17089
v -0.15457 0.12289 0.23090
v -0.04750 0.13872 0.25110
v 0.05940 0.15216 0.22841
v 0.14985 0.16117 0.16628
v 0.21008 0.16437 0.07416
v 0.23092 0.16129 -0.03391
v 0.20920 0.15238 -0.14148
v 0.14823 0.13901 -0.23217
v 0.05728 0.12321 -0.29219
v -0.04979 0.10738 -0.31239
v -0.15668 0.09394 -0.28970
v -0.24713 0.08493 -0.22756
v -0.30736 0.08172 -0.13545
v -0.33030 0.13022 -0.02982
v -0.30883 0.13856 0.07624
v -0.24865 0.15119 0.16568
v -0.15892 0.16620 0.22487
v -0.05331 0.18129 0.24481
v 0.05212 0.19418 0.22246
v 0.14130 0.20289 0.16122
v 0.20067 0.20611 0.07041
v 0.22118 0.20334 -0.03613
v 0.19971 0.19500 -0.14220
v 0.13953 0.18237 -0.23164
v 0.04980 0.16737 -0.29083
v -0.05582 0.15227 -0.31077
v -0.16124 0.13939 -0.28841
v -0.25043 0.13067 -0.22717
v -0.30979 0.12746 -0.13637
v -0.33219 0.17565 -0.03210
v -0.31097 0.18341 0.07245
v -0.25159 0.19530 0.16062
v -0.16308 0.20951 0.21898
v -0.05893 0.22386 0.23865
v 0.04502 0.23619 0.21664
v 0.13293 0.24461 0.15630
v 0.19143 0.24783 0.06680
v 0.21161 0.24538 -0.03821
v 0.19039 0.23762 -0.14276
v 0.13100 0.22573 -0.23093
v 0.04250 0.21152 -0.28930
v -0.06166 0.19717 -0.30897
v -0.16560 0.18484 -0.28696
v -0.25352 0.17642 -0.22661
v -0.31201 0.17320 -0.13712
v -0.33386 0.22108 -0.03423
v -0.31289 0.22827 0.06880
v -0.25432 0.23942 0.15569
v -0.16704 0.25282 0.21322
v -0.06436 0.26644 0.23263
v 0.03810 0.27820 0.21096
v 0.12474 0.28632 0.15151
v 0.18237 0.28956 0.06334
v 0.20221 0.28741 -0.04014
v 0.18124 0.28022 -0.14317
v 0.12267 0.26908 -0.23006
v 0.03539 0.25568 -0.28759
v -0.06729 0.24206 -0.30700
v -0.16975 0.23029 -0.28533
v -0.25639 0.22217 -0.22588
v -0.31402 0.21894 -0.13771
v -0.33530 0.26652 -0.03619
v -0.31460 0.27314 0.06531
v -0.25683 0.28354 0.15092
v -0.17079 0.29614 0.20761
v -0.06959 0.30902 0.22674
v 0.03137 0.32022 0.20542
v 0.11673 0.32804 0.14687
v 0.17348 0.33128 0.06002
v 0.19299 0.32945 -0.04192
v 0.17228 0.32283 -0.14341
v 0.11452 0.31242 -0.22902
v 0.02848 0.29982 -0.28571
v -0.07272 0.28694 -0.30485
v -0.17369 0.27574 -0.28352
v -0.25905 0.26793 -0.22497
v -0.31580 0.26469 -0.13812
v -0.33645 0.31133 -0.03796
v -0.31603 0.31762 0.06199
v -0.25912 0.32758 0.14630
v -0.17437 0.33968 0.20213
v -0.07468 0.35210 0.22098
v 0.02476 0.36294 0.19999
v 0.10881 0.37054 0.14234
v 0.16469 0.37376 0.05682
v 0.18388 0.37209 -0.04355
v 0.16347 0.36581 -0.14350
v 0.10655 0.35585 -0.22781
v 0.02180 0.34374 -0.28364
v -0.07788 0.33133 -0.30249
v -0.17732 0.32049 -0.28150
v -0.26138 0.31289 -0.22386
v -0.31726 0.30967 -0.13834
v 0.01946 -0.31429 0.00000
v -0.07628 0.34171 -0.04076
f 1 18 17
f 2 19 18
f 3 20 19
f 4 21 20
f 5 22 21
f 6 23 22
f 8 23 7
f 9 24 8
f 10 25 9
f 11 26 10
f 12 27 11
f 13 28 12
f 14 29 13
f 15 30 14
f 15 32 31
f 16 17 32
f 17 34 33
f 18 35 34
f 19 36 35
f 20 37 36
f 21 38 37
f 22 39 38
f 24 39 23
f 25 40 24
f 26 41 25
f 27 42 26
f 28 43 27
f 29 44 28
f 30 45 29
f 31 46 30
f 32 47 31
f 32 33 48
f 33 50 49
f 34 51 50
f 35 52 51
f 36 53 52
f 37 54 53
f 38 55 54
f 40 55 39
f 41 56 40
f 42 57 41
f 43 58 42
f 44 59 43
f 45 60 44
f 46 61 45
f 47 62 46
f 48 63 47
f 48 49 64
f 49 66 65
f 50 67 66
f 51 68 67
f 52 69 68
f 53 70 69
f 54 71 70
f 56 71 55
f 57 72 56
f 58 73 57
f 59 74 58
f 60 75 59
f 61 76 60
f 62 77 61
f 63 78 62
f 64 79 63
f 64 65 80
f 65 82 81
f 66 83 82
f 67 84 83
f 68 85 84
f 69 86 85
f 70 87 86
f 72 87 71
f 73 88 72
f 74 89 73
f 75 90 74
f 76 91 75
f 77 92 76
f 78 93 77
f 79 94 78
f 80 95 79
f 80 81 96
f 81 98 97
f 82 99 98
f 83 100 99
f 84 101 100
f 85 102 101
f 86 103 102
f 88 103 87
f 89 104 88
f 90 105 89
f 91 106 90
f 92 107 91
f 93 108 92
f 94 109 93
f 95 110 94
f 96 111 95
f 96 97 112
f 97 114 113
f 98 115 114
f 99 116 115
f 100 117 116
f 101 118 117
f 102 119 118
f 104 119 103
f 105 120 104
f 106 121 105
f 107 122 106
f 108 123 107
f 109 124 108
f 110 125 109
f 111 126 110
f 112 127 111
f 112 113 128
f 113 130 129
f 114 131 130
f 115 132 131
f 116 133 132
f 117 134 133
f 118 135 134
f 120 135 119
f 121 136 120
f 122 137 121
f 123 138 122
f 124 139 123
f 125 140 124
f 126 141 125
f 127 142 126
f 128 143 127
f 128 129 144
f 129 146 145
f 130 147 146
f 131 148 147
f 132 149 148
f 133 150 149
f 134 151 150
f 136 151 135
f 137 152 136
f 138 153 137
f 139 154 138
f 140 155 139
f 141 156 140
f 142 157 141
f 143 158 142
f 144 159 143
f 144 145 160
f 145 162 161
f 146 163 162
f 147 164 163
f 148 165 164
f 149 166 165
f 150 167 166
f 152 167 151
f 153 168 152
f 154 169 153
f 155 170 154
f 156 171 155
f 157 172 156
f 158 173 157
f 159 174 158
f 160 175 159
f 160 161 176
f 161 178 177
f 162 179 178
f 163 180 179
f 164 181 180
f 165 182 181
f 166 183 182
f 168 183 167
f 169 184 168
f 170 185 169
f 171 186 170
f 172 187 171
f 173 188 172
f 174 189 173
f 175 190 174
f 176 191 175
f 176 177 192
f 177 194 193
f 178 195 194
f 179 196 195
f 180 197 196
f 181 198 197
f 182 199 198
f 184 199 183
f 185 200 184
f 186 201 185
f 187 202 186
f 188 203 187
f 189 204 188
f 190 205 189
f 191 206 190
f 192 207 191
f 192 193 208
f 193 210 209
f 194 211 210
f 195 212 211
f 196 213 212
f 197 214 213
f 198 215 214
f 200 215 199
f 201 216 200
f 202 217 201
f 203 218 202
f 204 219 203
f 205 220 204
f 206 221 205
f 207 222 206
f 208 223 207
f 208 209 224
f 209 226 225
f 210 227 226
f 211 228 227
f 212 229 228
f 213 230 229
f 214 231 230
f 216 231 215
f 217 232 216
f 218 233 217
f 219 234 218
f 220 235 219
f 221 236 220
f 222 237 221
f 223 238 222
f 224 239 223
f 224 225 240
f 226 241 225
f 227 242 226
f 228 243 227
f 229 244 228
f 230 245 229
f 231 246 230
f 231 248 247
f 232 249 248
f 233 250 249
f 234 251 250
f 235 252 251
f 236 253 252
f 237 254 253
f 238 255 254
f 240 255 239
f 225 256 240
f 257 2 1
f 257 3 2
f 257 4 3
f 257 5 4
f 257 6 5
f 257 7 6
f 257 8 7
f 257 9 8
f 257 10 9
f 257 11 10
f 257 12 11
f 257 13 12
f 257 14 13
f 257 15 14
f 257 16 15
f 257 1 16
f 241 242 258
f 242 243 258
f 243 244 258
f 244 245 258
f 245 246 258
f 246 247 258
f 247 248 258
f 248 249 258
f 249 250 258
f 250 251 258
f 251 252 258
f 252 253 258
f 253 254 258
f 254 255 258
f 255 256 258
f 256 241 258
f 1 2 18
f 2 3 19
f 3 4 20
f 4 5 21
f 5 6 22
f 6 7 23
f 8 24 23
f 9 25 24
f 10 26 25
f 11 27 26
f 12 28 27
f 13 29 28
f 14 30 29
f 15 31 30
f 15 16 32
f 16 1 17
f 17 18 34
f 18 19 35
f 19 20 36
f 20 21 37
f 21 22 38
f 22 23 39
f 24 40 39
f 25 41 40
f 26 42 41
f 27 43 42
f 28 44 43
f 29 45 44
f 30 46 45
f 31 47 46
f 32 48 47
f 32 17 33
f 33 34 50
f 34 35 51
f 35 36 52
f 36 37 53
f 37 38 54
f 38 39 55
f 40 56 55
f 41 57 56
f 42 58 57
f 43 59 58
f 44 60 59
f 45 61 60
f 46 62 61
f 47 63 62
f 48 64 63
f 48 33 49
f 49 50 66
f 50 51 67
f 51 52 68
f 52 53 69
f 53 54 70
f 54 55 71
f 56 72 71
f 57 73 72
f 58 74 73
f 59 75 74
f 60 76 75
f 61 77 76
f 62 78 77
f 63 79 78
f 64 80 79
f 64 49 65
f 65 66 82
f 66 67 83
f 67 68 84
f 68 69 85
f 69 70 86
f 70 71 87
f 72 88 87
f 73 89 88
f 74 90 89
f 75 91 90
f 76 92 91
f 77 93 92
f 78 94 93
f 79 95 94
f 80 96 95
f 80 65 81
f 81 82 98
f 82 83 99
f 83 84 100
f 84 85 101
f 85 86 102
f 86 87 103
f 88 104 103
f 89 105 104
f 90 106 105
f 91 107 106
f 92 108 107
f 93 109 108
f 94 110 109
f 95 111 110
f 96 112 111
f 96 81 97
f 97 98 114
f 98 99 115
f 99 100 116
f 100 101 117
f 101 102 118
f 102 103 119
f 104 120 119
f 105 121 120
f 106 122 121
f 107 123 122
f 108 124 123
f 109 125 124
f 110 126 125
f 111 127 126
f 112 128 127
f 112 97 113
f 113 114 130
f 114 115 131
f 115 116 132
f 116 117 133
f 117 118 134
f 118 119 135
f 120 136 135
f 121 137 136
f 122 138 137
f 123 139 138
f 124 140 139
f 125 141 140
f 126 142 141
f 127 143 142
f 128 144 143
f 128 113 129
f 129 130 146
f 130 131 147
f 131 132 148
f 132 133 149
f 133 134 150
f 134 135 151
f 136 152 151
f 137 153 152
f 138 154 153
f 139 155 154
f 140 156 155
f 141 157 156
f 142 158 157
f 143 159 158
f 144 160 159
f 144 129 145
f 145 146 162
f 146 147 163
f 147 148 164
f 148 149 165
f 149 150 166
f 150 151 167
f 152 168 167
f 153 169 168
f 154 170 169
f 155 171 170
f 156 172 171
f 157 173 172
f 158 174 173
f 159 175 174
f 160 176 175
f 160 145 161
f 161 162 178
f 162 163 179
f 163 164 180
f 164 165 181
f 165 166 182
f 166 167 183
f 168 184 183
f 169 185 184
f 170 186 185
f 171 187 186
f 172 188 187
f 173 189 188
f 174 190 189
f 175 191 190
f 176 192 191
f 176 161 177
f 177 178 194
f 178 179 195
f 179 180 196
f 180 181 197
f 181 182 198
f 182 183 199
f 184 200 199
f 185 201 200
f 186 202 201
f 187 203 202
f 188 204 203
f 189 205 204
f 190 206 205
f 191 207 206
f 192 208 207
f 192 177 193
f 193 194 210
f 194 195 211
f 195 196 212
f 196 197 213
f 197 198 214
f 198 199 215
f 200 216 215
f 201 217 216
f 202 218 217
f 203 219 218
f 204 220 219
f 205 221 220
f 206 222 221
f 207 223 222
f 208 224 223
f 208 193 209
f 209 210 226
f 210 211 227
f 211 212 228
f 212 213 229
f 213 214 230
f 214 215 231
f 216 232 231
f 217 233 232
f 218 234 233
f 219 235 234
f 220 236 235
f 221 237 236
f 222 238 237
f 223 239 238
f 224 240 239
f 224 209 225
f 226 242 241
f 227 243 242
f 228 244 243
f 229 245 244
f 230 246 245
f 231 247 246
f 231 232 248
f 232 233 249
f 233 234 250
f 234 235 251
f 235 236 252
f 236 237 253
f 237 238 254
f 238 239 255
f 240 256 255
f 225 241 256
