# kraken_pocket Seg3_Sucker.obj: Roblox cue frame, recentred on its bounding box
v 0.01547 -0.09542 0.00000
v -0.03848 -0.12293 -0.00000
v 0.01701 -0.10981 0.05400
v -0.03725 -0.13444 0.04320
v 0.02122 -0.14911 0.09353
v -0.03388 -0.16588 0.07483
v 0.02697 -0.20281 0.10800
v -0.02928 -0.20884 0.08640
v 0.03273 -0.25650 0.09353
v -0.02467 -0.25179 0.07483
v 0.03694 -0.29581 0.05400
v -0.02130 -0.28324 0.04320
v 0.03848 -0.31020 0.00000
v -0.02007 -0.29475 0.00000
v 0.03694 -0.29581 -0.05400
v -0.02130 -0.28324 -0.04320
v 0.03273 -0.25650 -0.09353
v -0.02467 -0.25179 -0.07483
v 0.02697 -0.20281 -0.10800
v -0.02928 -0.20884 -0.08640
v 0.02122 -0.14911 -0.09353
v -0.03388 -0.16588 -0.07483
v 0.01701 -0.10981 -0.05400
v -0.03725 -0.13444 -0.04320
v 0.01396 0.00621 -0.00287
v -0.03828 -0.01963 -0.00287
v 0.01527 -0.00765 0.04910
v -0.03722 -0.03072 0.03871
v 0.01887 -0.04552 0.08714
v -0.03434 -0.06102 0.06914
v 0.02379 -0.09726 0.10107
v -0.03041 -0.10241 0.08028
v 0.02871 -0.14899 0.08714
v -0.02647 -0.14380 0.06914
v 0.03231 -0.18687 0.04910
v -0.02360 -0.17410 0.03871
v 0.03362 -0.20073 -0.00287
v -0.02254 -0.18519 -0.00287
v 0.03231 -0.18687 -0.05484
v -0.02360 -0.17410 -0.04444
v 0.02871 -0.14899 -0.09288
v -0.02647 -0.14380 -0.07488
v 0.02379 -0.09726 -0.10681
v -0.03041 -0.10241 -0.08602
v 0.01887 -0.04552 -0.09288
v -0.03434 -0.06102 -0.07488
v 0.01527 -0.00765 -0.05484
v -0.03722 -0.03072 -0.04444
v 0.01380 0.10771 -0.00479
v -0.03668 0.08352 -0.00479
v 0.01489 0.09438 0.04513
v -0.03580 0.07286 0.03515
v 0.01789 0.05797 0.08167
v -0.03340 0.04373 0.06438
v 0.02199 0.00822 0.09504
v -0.03012 0.00393 0.07508
v 0.02609 -0.04152 0.08167
v -0.02685 -0.03586 0.06438
v 0.02909 -0.07793 0.04513
v -0.02445 -0.06499 0.03515
v 0.03018 -0.09126 -0.00479
v -0.02357 -0.07566 -0.00479
v 0.02909 -0.07793 -0.05470
v -0.02445 -0.06499 -0.04472
v 0.02609 -0.04152 -0.09124
v -0.02685 -0.03586 -0.07395
v 0.02199 0.00822 -0.10461
v -0.03012 0.00393 -0.08465
v 0.01789 0.05797 -0.09124
v -0.03340 0.04373 -0.07395
v 0.01489 0.09438 -0.05470
v -0.03580 0.07286 -0.04472
v 0.01503 0.20905 -0.00573
v -0.03364 0.18651 -0.00573
v 0.01592 0.19627 0.04210
v -0.03293 0.17628 0.03254
v 0.01833 0.16133 0.07712
v -0.03100 0.14833 0.06055
v 0.02164 0.11362 0.08994
v -0.02835 0.11016 0.07080
v 0.02494 0.06590 0.07712
v -0.02571 0.07198 0.06055
v 0.02736 0.03097 0.04210
v -0.02378 0.04404 0.03254
v 0.02824 0.01818 -0.00573
v -0.02307 0.03381 -0.00573
v 0.02736 0.03097 -0.05356
v -0.02378 0.04404 -0.04399
v 0.02494 0.06590 -0.08858
v -0.02571 0.07198 -0.07201
v 0.02164 0.11362 -0.10139
v -0.02835 0.11016 -0.08226
v 0.01833 0.16133 -0.08858
v -0.03100 0.14833 -0.07201
v 0.01592 0.19627 -0.05356
v -0.03293 0.17628 -0.04399
v 0.01771 0.31020 -0.00569
v -0.02911 0.28927 -0.00569
v 0.01839 0.29796 0.04004
v -0.02856 0.27949 0.03089
v 0.02025 0.26454 0.07351
v -0.02707 0.25275 0.05767
v 0.02279 0.21888 0.08576
v -0.02504 0.21622 0.06747
v 0.02533 0.17323 0.07351
v -0.02301 0.17970 0.05767
v 0.02719 0.13981 0.04004
v -0.02152 0.15296 0.03089
v 0.02787 0.12757 -0.00569
v -0.02098 0.14318 -0.00569
v 0.02719 0.13981 -0.05141
v -0.02152 0.15296 -0.04227
v 0.02533 0.17323 -0.08489
v -0.02301 0.17970 -0.06905
v 0.02279 0.21888 -0.09714
v -0.02504 0.21622 -0.07885
v 0.02025 0.26454 -0.08489
v -0.02707 0.25275 -0.06905
v 0.01839 0.29796 -0.05141
v -0.02856 0.27949 -0.04227
f 58 59 57
f 1 4 3
f 79 82 81
f 109 112 111
f 3 6 5
f 86 87 85
f 29 32 31
f 6 7 5
f 76 77 75
f 53 56 55
f 7 10 9
f 35 38 37
f 99 102 101
f 10 11 9
f 51 54 53
f 28 29 27
f 12 13 11
f 14 15 13
f 34 35 33
f 81 84 83
f 15 18 17
f 78 79 77
f 26 27 25
f 18 19 17
f 60 61 59
f 19 22 21
f 10 6 22
f 104 105 103
f 21 24 23
f 37 40 39
f 32 33 31
f 24 1 23
f 7 15 23
f 40 41 39
f 83 86 85
f 50 51 49
f 41 44 43
f 102 103 101
f 43 46 45
f 40 36 28
f 45 48 47
f 62 63 61
f 55 58 57
f 48 25 47
f 33 37 45
f 63 66 65
f 74 75 73
f 108 109 107
f 65 68 67
f 67 70 69
f 61 65 49
f 70 71 69
f 106 107 105
f 72 49 71
f 62 58 50
f 88 89 87
f 97 100 99
f 90 91 89
f 91 94 93
f 89 73 81
f 94 95 93
f 95 74 73
f 78 74 90
f 111 114 113
f 113 116 115
f 115 118 117
f 100 120 112
f 118 119 117
f 120 97 119
f 117 97 105
f 58 60 59
f 1 2 4
f 79 80 82
f 109 110 112
f 3 4 6
f 86 88 87
f 29 30 32
f 6 8 7
f 76 78 77
f 53 54 56
f 7 8 10
f 35 36 38
f 99 100 102
f 10 12 11
f 51 52 54
f 28 30 29
f 12 14 13
f 14 16 15
f 34 36 35
f 81 82 84
f 15 16 18
f 78 80 79
f 26 28 27
f 18 20 19
f 60 62 61
f 19 20 22
f 6 4 22
f 4 2 22
f 2 24 22
f 22 20 18
f 18 16 14
f 14 12 10
f 10 8 6
f 22 18 14
f 14 10 22
f 104 106 105
f 21 22 24
f 37 38 40
f 32 34 33
f 24 2 1
f 23 1 7
f 1 3 7
f 3 5 7
f 7 9 15
f 9 11 15
f 11 13 15
f 15 17 23
f 17 19 23
f 19 21 23
f 40 42 41
f 83 84 86
f 50 52 51
f 41 42 44
f 102 104 103
f 43 44 46
f 36 34 32
f 32 30 28
f 28 26 48
f 48 46 44
f 44 42 40
f 40 38 36
f 36 32 28
f 28 48 44
f 44 40 28
f 45 46 48
f 62 64 63
f 55 56 58
f 48 26 25
f 37 39 41
f 41 43 45
f 45 47 25
f 25 27 29
f 29 31 33
f 33 35 37
f 37 41 45
f 45 25 29
f 29 33 45
f 63 64 66
f 74 76 75
f 108 110 109
f 65 66 68
f 67 68 70
f 49 51 57
f 51 53 57
f 53 55 57
f 57 59 61
f 61 63 65
f 65 67 69
f 69 71 65
f 71 49 65
f 57 61 49
f 70 72 71
f 106 108 107
f 72 50 49
f 58 56 54
f 54 52 58
f 52 50 58
f 50 72 66
f 72 70 66
f 70 68 66
f 66 64 62
f 62 60 58
f 66 62 50
f 88 90 89
f 97 98 100
f 90 92 91
f 91 92 94
f 81 83 85
f 85 87 89
f 89 91 93
f 93 95 73
f 73 75 77
f 77 79 81
f 81 85 89
f 89 93 73
f 73 77 81
f 94 96 95
f 95 96 74
f 90 88 86
f 86 84 90
f 84 82 90
f 82 80 78
f 78 76 74
f 74 96 90
f 96 94 90
f 94 92 90
f 82 78 90
f 111 112 114
f 113 114 116
f 115 116 118
f 112 110 108
f 108 106 104
f 104 102 100
f 100 98 120
f 120 118 112
f 118 116 112
f 116 114 112
f 112 108 104
f 104 100 112
f 118 120 119
f 120 98 97
f 105 107 109
f 109 111 105
f 111 113 105
f 113 115 117
f 117 119 97
f 97 99 105
f 99 101 105
f 101 103 105
f 113 117 105
