# kraken_pocket Seg3_Core.obj: Roblox cue frame, recentred on its bounding box
v -0.13599 -0.30790 0.00075
v -0.10790 -0.30082 0.08762
v -0.03436 -0.28964 0.14103
v 0.05655 -0.27863 0.14056
v 0.13010 -0.27199 0.08641
v 0.15819 -0.27226 -0.00075
v 0.13010 -0.27934 -0.08762
v 0.05655 -0.29052 -0.14103
v -0.03436 -0.30154 -0.14056
v -0.10790 -0.30817 -0.08641
v -0.13882 -0.26789 -0.00094
v -0.11108 -0.26111 0.08476
v -0.03851 -0.25032 0.13744
v 0.05118 -0.23964 0.13699
v 0.12374 -0.23316 0.08358
v 0.15144 -0.23334 -0.00240
v 0.12370 -0.24013 -0.08809
v 0.05113 -0.25092 -0.14078
v -0.03857 -0.26159 -0.14033
v -0.11112 -0.26807 -0.08691
v -0.14150 -0.22757 -0.00250
v -0.11410 -0.22129 0.08202
v -0.04248 -0.21113 0.13399
v 0.04602 -0.20097 0.13356
v 0.11758 -0.19471 0.08089
v 0.14487 -0.19473 -0.00390
v 0.11748 -0.20101 -0.08842
v 0.04585 -0.21117 -0.14039
v -0.04264 -0.22133 -0.13996
v -0.11420 -0.22759 -0.08729
v -0.14399 -0.18726 -0.00393
v -0.11694 -0.18146 0.07941
v -0.04627 -0.17193 0.13067
v 0.04102 -0.16230 0.13025
v 0.11158 -0.15626 0.07833
v 0.13848 -0.15611 -0.00527
v 0.11142 -0.16191 -0.08861
v 0.04075 -0.17144 -0.13987
v -0.04654 -0.18107 -0.13946
v -0.11710 -0.18711 -0.08753
v -0.14630 -0.14695 -0.00522
v -0.11959 -0.14164 0.07694
v -0.04988 -0.13273 0.12747
v 0.03619 -0.12362 0.12707
v 0.10576 -0.11780 0.07590
v 0.13224 -0.11748 -0.00650
v 0.10553 -0.12280 -0.08866
v 0.03583 -0.13171 -0.13919
v -0.05025 -0.14081 -0.13880
v -0.11982 -0.14663 -0.08763
v -0.14842 -0.10664 -0.00637
v -0.12205 -0.10181 0.07459
v -0.05332 -0.09352 0.12440
v 0.03154 -0.08493 0.12402
v 0.10010 -0.07933 0.07360
v 0.12618 -0.07886 -0.00760
v 0.09982 -0.08369 -0.08857
v 0.03108 -0.09198 -0.13837
v -0.05378 -0.10057 -0.13799
v -0.12234 -0.10617 -0.08758
v -0.15034 -0.06634 -0.00738
v -0.12433 -0.06198 0.07239
v -0.05657 -0.05430 0.12146
v 0.02706 -0.04624 0.12110
v 0.09461 -0.04086 0.07144
v 0.12029 -0.04023 -0.00856
v 0.09428 -0.04458 -0.08833
v 0.02652 -0.05226 -0.13740
v -0.05711 -0.06033 -0.13704
v -0.12466 -0.06571 -0.08737
v -0.15205 -0.02604 -0.00824
v -0.12640 -0.02216 0.07032
v -0.05963 -0.01508 0.11866
v 0.02276 -0.00753 0.11831
v 0.08930 -0.00238 0.06940
v 0.11457 -0.00159 -0.00938
v 0.08892 -0.00548 -0.08794
v 0.02214 -0.01255 -0.13628
v -0.06025 -0.02010 -0.13593
v -0.12679 -0.02526 -0.08702
v -0.15357 0.01425 -0.00896
v -0.12828 0.01767 0.06839
v -0.06249 0.02414 0.11599
v 0.01865 0.03119 0.11565
v 0.08417 0.03612 0.06750
v 0.10903 0.03705 -0.01006
v 0.08374 0.03363 -0.08741
v 0.01796 0.02716 -0.13500
v -0.06319 0.02011 -0.13467
v -0.12871 0.01518 -0.08652
v -0.15488 0.05453 -0.00953
v -0.12995 0.05750 0.06660
v -0.06517 0.06338 0.11345
v 0.01473 0.06992 0.11312
v 0.07922 0.07463 0.06574
v 0.10367 0.07570 -0.01059
v 0.07875 0.07273 -0.08673
v 0.01396 0.06685 -0.13357
v -0.06593 0.06031 -0.13325
v -0.13042 0.05560 -0.08586
v -0.15597 0.09480 -0.00995
v -0.13142 0.09733 0.06495
v -0.06764 0.10262 0.11105
v 0.01099 0.10867 0.11073
v 0.07445 0.11316 0.06412
v 0.09850 0.11437 -0.01099
v 0.07394 0.11184 -0.08589
v 0.01017 0.10654 -0.13199
v -0.06847 0.10050 -0.13167
v -0.13193 0.09601 -0.08506
v -0.15685 0.13506 -0.01023
v -0.13268 0.13715 0.06344
v -0.06992 0.14188 0.10878
v 0.00745 0.14743 0.10847
v 0.06987 0.15170 0.06263
v 0.09351 0.15304 -0.01124
v 0.06933 0.15095 -0.08491
v 0.00657 0.14622 -0.13025
v -0.07080 0.14067 -0.12994
v -0.13322 0.13640 -0.08409
v -0.15752 0.17531 -0.01035
v -0.13372 0.17698 0.06208
v -0.07199 0.18114 0.10665
v 0.00410 0.18621 0.10634
v 0.06548 0.19026 0.06127
v 0.08871 0.19172 -0.01135
v 0.06491 0.19006 -0.08378
v 0.00317 0.18589 -0.12835
v -0.07292 0.18082 -0.12804
v -0.13429 0.17678 -0.08297
v -0.15797 0.21554 -0.01033
v -0.13455 0.21680 0.06085
v -0.07385 0.22042 0.10465
v 0.00095 0.22501 0.10435
v 0.06128 0.22884 0.06006
v 0.08409 0.23042 -0.01131
v 0.06068 0.22917 -0.08249
v -0.00002 0.22555 -0.12630
v -0.07482 0.22095 -0.12599
v -0.13515 0.21713 -0.08170
v -0.15819 0.25576 -0.01016
v -0.13517 0.25662 0.05976
v -0.07551 0.25970 0.10279
v -0.00201 0.26383 0.10249
v 0.05727 0.26744 0.05898
v 0.07967 0.26914 -0.01113
v 0.05665 0.26828 -0.08105
v -0.00301 0.26520 -0.12408
v -0.07651 0.26107 -0.12378
v -0.13579 0.25746 -0.08027
v -0.15818 0.29566 -0.00985
v -0.13556 0.29631 0.05882
v -0.07696 0.29910 0.10107
v -0.00477 0.30297 0.10077
v 0.05344 0.30644 0.05804
v 0.07543 0.30817 -0.01080
v 0.05281 0.30752 -0.07946
v -0.00578 0.30473 -0.12172
v -0.07797 0.30086 -0.12142
v -0.13618 0.29740 -0.07869
v 0.01110 -0.29008 0.00000
v -0.04137 0.30192 -0.01032
f 1 12 11
f 2 13 12
f 3 14 13
f 4 15 14
f 6 15 5
f 7 16 6
f 8 17 7
f 9 18 8
f 10 19 9
f 10 11 20
f 11 22 21
f 12 23 22
f 13 24 23
f 14 25 24
f 16 25 15
f 17 26 16
f 18 27 17
f 19 28 18
f 20 29 19
f 20 21 30
f 21 32 31
f 22 33 32
f 23 34 33
f 24 35 34
f 26 35 25
f 27 36 26
f 28 37 27
f 29 38 28
f 30 39 29
f 30 31 40
f 31 42 41
f 32 43 42
f 33 44 43
f 34 45 44
f 36 45 35
f 37 46 36
f 38 47 37
f 39 48 38
f 40 49 39
f 40 41 50
f 41 52 51
f 42 53 52
f 43 54 53
f 44 55 54
f 46 55 45
f 47 56 46
f 48 57 47
f 49 58 48
f 50 59 49
f 50 51 60
f 51 62 61
f 52 63 62
f 53 64 63
f 54 65 64
f 56 65 55
f 57 66 56
f 58 67 57
f 59 68 58
f 60 69 59
f 60 61 70
f 61 72 71
f 62 73 72
f 63 74 73
f 64 75 74
f 66 75 65
f 67 76 66
f 68 77 67
f 69 78 68
f 70 79 69
f 70 71 80
f 71 82 81
f 72 83 82
f 73 84 83
f 74 85 84
f 76 85 75
f 77 86 76
f 78 87 77
f 79 88 78
f 80 89 79
f 80 81 90
f 81 92 91
f 82 93 92
f 83 94 93
f 84 95 94
f 86 95 85
f 87 96 86
f 88 97 87
f 89 98 88
f 90 99 89
f 90 91 100
f 91 102 101
f 92 103 102
f 93 104 103
f 94 105 104
f 96 105 95
f 97 106 96
f 98 107 97
f 99 108 98
f 100 109 99
f 100 101 110
f 101 112 111
f 102 113 112
f 103 114 113
f 104 115 114
f 106 115 105
f 107 116 106
f 108 117 107
f 109 118 108
f 110 119 109
f 101 120 110
f 111 122 121
f 112 123 122
f 113 124 123
f 114 125 124
f 116 125 115
f 117 126 116
f 118 127 117
f 119 128 118
f 120 129 119
f 111 130 120
f 121 132 131
f 122 133 132
f 123 134 133
f 124 135 134
f 126 135 125
f 127 136 126
f 128 137 127
f 129 138 128
f 130 139 129
f 121 140 130
f 131 142 141
f 132 143 142
f 133 144 143
f 134 145 144
f 136 145 135
f 137 146 136
f 138 147 137
f 139 148 138
f 140 149 139
f 131 150 140
f 142 151 141
f 143 152 142
f 144 153 143
f 145 154 144
f 145 156 155
f 146 157 156
f 147 158 157
f 148 159 158
f 149 160 159
f 141 160 150
f 161 2 1
f 161 3 2
f 161 4 3
f 161 5 4
f 161 6 5
f 161 7 6
f 161 8 7
f 161 9 8
f 161 10 9
f 161 1 10
f 151 152 162
f 152 153 162
f 153 154 162
f 154 155 162
f 155 156 162
f 156 157 162
f 157 158 162
f 158 159 162
f 159 160 162
f 160 151 162
f 1 2 12
f 2 3 13
f 3 4 14
f 4 5 15
f 6 16 15
f 7 17 16
f 8 18 17
f 9 19 18
f 10 20 19
f 10 1 11
f 11 12 22
f 12 13 23
f 13 14 24
f 14 15 25
f 16 26 25
f 17 27 26
f 18 28 27
f 19 29 28
f 20 30 29
f 20 11 21
f 21 22 32
f 22 23 33
f 23 24 34
f 24 25 35
f 26 36 35
f 27 37 36
f 28 38 37
f 29 39 38
f 30 40 39
f 30 21 31
f 31 32 42
f 32 33 43
f 33 34 44
f 34 35 45
f 36 46 45
f 37 47 46
f 38 48 47
f 39 49 48
f 40 50 49
f 40 31 41
f 41 42 52
f 42 43 53
f 43 44 54
f 44 45 55
f 46 56 55
f 47 57 56
f 48 58 57
f 49 59 58
f 50 60 59
f 50 41 51
f 51 52 62
f 52 53 63
f 53 54 64
f 54 55 65
f 56 66 65
f 57 67 66
f 58 68 67
f 59 69 68
f 60 70 69
f 60 51 61
f 61 62 72
f 62 63 73
f 63 64 74
f 64 65 75
f 66 76 75
f 67 77 76
f 68 78 77
f 69 79 78
f 70 80 79
f 70 61 71
f 71 72 82
f 72 73 83
f 73 74 84
f 74 75 85
f 76 86 85
f 77 87 86
f 78 88 87
f 79 89 88
f 80 90 89
f 80 71 81
f 81 82 92
f 82 83 93
f 83 84 94
f 84 85 95
f 86 96 95
f 87 97 96
f 88 98 97
f 89 99 98
f 90 100 99
f 90 81 91
f 91 92 102
f 92 93 103
f 93 94 104
f 94 95 105
f 96 106 105
f 97 107 106
f 98 108 107
f 99 109 108
f 100 110 109
f 100 91 101
f 101 102 112
f 102 103 113
f 103 104 114
f 104 105 115
f 106 116 115
f 107 117 116
f 108 118 117
f 109 119 118
f 110 120 119
f 101 111 120
f 111 112 122
f 112 113 123
f 113 114 124
f 114 115 125
f 116 126 125
f 117 127 126
f 118 128 127
f 119 129 128
f 120 130 129
f 111 121 130
f 121 122 132
f 122 123 133
f 123 124 134
f 124 125 135
f 126 136 135
f 127 137 136
f 128 138 137
f 129 139 138
f 130 140 139
f 121 131 140
f 131 132 142
f 132 133 143
f 133 134 144
f 134 135 145
f 136 146 145
f 137 147 146
f 138 148 147
f 139 149 148
f 140 150 149
f 131 141 150
f 142 152 151
f 143 153 152
f 144 154 153
f 145 155 154
f 145 146 156
f 146 147 157
f 147 148 158
f 148 149 159
f 149 150 160
f 141 151 160
