# kraken_pocket Seg4_Sucker.obj: Roblox cue frame, recentred on its bounding box
v 0.02218 -0.05372 -0.00000
v -0.02284 -0.07314 -0.00000
v 0.02268 -0.06543 0.04373
v -0.02244 -0.08251 0.03498
v 0.02404 -0.09741 0.07573
v -0.02135 -0.10809 0.06059
v 0.02590 -0.14109 0.08745
v -0.01986 -0.14304 0.06996
v 0.02776 -0.18478 0.07573
v -0.01837 -0.17799 0.06059
v 0.02913 -0.21676 0.04373
v -0.01728 -0.20357 0.03498
v 0.02962 -0.22846 0.00000
v -0.01689 -0.21294 0.00000
v 0.02913 -0.21676 -0.04373
v -0.01728 -0.20357 -0.03498
v 0.02776 -0.18478 -0.07573
v -0.01837 -0.17799 -0.06059
v 0.02590 -0.14109 -0.08745
v -0.01986 -0.14304 -0.06996
v 0.02404 -0.09741 -0.07573
v -0.02135 -0.10809 -0.06059
v 0.02268 -0.06543 -0.04373
v -0.02244 -0.08251 -0.03498
v 0.02695 0.03438 0.00164
v -0.01635 0.01633 0.00164
v 0.02729 0.02318 0.04347
v -0.01608 0.00737 0.03511
v 0.02822 -0.00743 0.07410
v -0.01534 -0.01712 0.05961
v 0.02948 -0.04925 0.08531
v -0.01432 -0.05057 0.06857
v 0.03075 -0.09106 0.07410
v -0.01331 -0.08403 0.05961
v 0.03167 -0.12167 0.04347
v -0.01257 -0.10851 0.03511
v 0.03201 -0.13288 0.00164
v -0.01230 -0.11748 0.00164
v 0.03167 -0.12167 -0.04019
v -0.01257 -0.10851 -0.03183
v 0.03075 -0.09106 -0.07082
v -0.01331 -0.08403 -0.05633
v 0.02948 -0.04925 -0.08203
v -0.01432 -0.05057 -0.06529
v 0.02822 -0.00743 -0.07082
v -0.01534 -0.01712 -0.05633
v 0.02729 0.02318 -0.04019
v -0.01608 0.00737 -0.03183
v 0.02026 0.09768 0.00401
v -0.01816 0.07472 0.00401
v 0.02211 0.08715 0.04393
v -0.01668 0.06630 0.03594
v 0.02717 0.05837 0.07315
v -0.01264 0.04327 0.05932
v 0.03408 0.01906 0.08384
v -0.00711 0.01182 0.06788
v 0.04098 -0.02026 0.07315
v -0.00158 -0.01963 0.05932
v 0.04604 -0.04904 0.04393
v 0.00246 -0.04266 0.03594
v 0.04789 -0.05957 0.00401
v 0.00394 -0.05108 0.00401
v 0.04604 -0.04904 -0.03591
v 0.00246 -0.04266 -0.02792
v 0.04098 -0.02026 -0.06513
v -0.00158 -0.01963 -0.05130
v 0.03408 0.01906 -0.07582
v -0.00711 0.01182 -0.05986
v 0.02717 0.05837 -0.06513
v -0.01264 0.04327 -0.05130
v 0.02211 0.08715 -0.03591
v -0.01668 0.06630 -0.02792
v 0.00331 0.16223 0.00710
v -0.03006 0.13578 0.00710
v 0.00637 0.15252 0.04507
v -0.02761 0.12801 0.03747
v 0.01473 0.12601 0.07286
v -0.02093 0.10681 0.05971
v 0.02615 0.08980 0.08304
v -0.01179 0.07784 0.06785
v 0.03757 0.05359 0.07286
v -0.00265 0.04887 0.05971
v 0.04593 0.02708 0.04507
v 0.00403 0.02766 0.03747
v 0.04899 0.01737 0.00710
v 0.00648 0.01989 0.00710
v 0.04593 0.02708 -0.03088
v 0.00403 0.02766 -0.02328
v 0.03757 0.05359 -0.05867
v -0.00265 0.04887 -0.04552
v 0.02615 0.08980 -0.06885
v -0.01179 0.07784 -0.05366
v 0.01473 0.12601 -0.05867
v -0.02093 0.10681 -0.04552
v 0.00637 0.15252 -0.03088
v -0.02761 0.12801 -0.02328
v -0.02017 0.22846 0.01087
v -0.04899 0.20020 0.01087
v -0.01632 0.21962 0.04687
v -0.04590 0.19313 0.03967
v -0.00579 0.19547 0.07322
v -0.03748 0.17380 0.06075
v 0.00859 0.16247 0.08287
v -0.02598 0.14740 0.06847
v 0.02297 0.12947 0.07322
v -0.01447 0.12100 0.06075
v 0.03350 0.10531 0.04687
v -0.00605 0.10168 0.03967
v 0.03735 0.09647 0.01087
v -0.00297 0.09460 0.01087
v 0.03350 0.10531 -0.02512
v -0.00605 0.10168 -0.01792
v 0.02297 0.12947 -0.05147
v -0.01447 0.12100 -0.03900
v 0.00859 0.16247 -0.06112
v -0.02598 0.14740 -0.04672
v -0.00579 0.19547 -0.05147
v -0.03748 0.17380 -0.03900
v -0.01632 0.21962 -0.02512
v -0.04590 0.19313 -0.01792
f 57 60 59
f 1 4 3
f 80 81 79
f 109 112 111
f 4 5 3
f 86 87 85
f 29 32 31
f 5 8 7
f 75 78 77
f 54 55 53
f 8 9 7
f 35 38 37
f 100 101 99
f 9 12 11
f 52 53 51
f 28 29 27
f 12 13 11
f 13 16 15
f 33 36 35
f 81 84 83
f 16 17 15
f 78 79 77
f 25 28 27
f 18 19 17
f 59 62 61
f 19 22 21
f 22 14 6
f 103 106 105
f 21 24 23
f 38 39 37
f 31 34 33
f 24 1 23
f 7 15 23
f 40 41 39
f 83 86 85
f 50 51 49
f 42 43 41
f 101 104 103
f 44 45 43
f 32 28 44
f 45 48 47
f 61 64 63
f 55 58 57
f 47 26 25
f 29 33 37
f 63 66 65
f 73 76 75
f 108 109 107
f 66 67 65
f 68 69 67
f 57 65 49
f 69 72 71
f 105 108 107
f 72 49 71
f 62 58 50
f 87 90 89
f 97 100 99
f 89 92 91
f 92 93 91
f 77 81 89
f 93 96 95
f 95 74 73
f 78 74 90
f 112 113 111
f 114 115 113
f 116 117 115
f 104 120 112
f 117 120 119
f 120 97 119
f 97 101 105
f 57 58 60
f 1 2 4
f 80 82 81
f 109 110 112
f 4 6 5
f 86 88 87
f 29 30 32
f 5 6 8
f 75 76 78
f 54 56 55
f 8 10 9
f 35 36 38
f 100 102 101
f 9 10 12
f 52 54 53
f 28 30 29
f 12 14 13
f 13 14 16
f 33 34 36
f 81 82 84
f 16 18 17
f 78 80 79
f 25 26 28
f 18 20 19
f 59 60 62
f 19 20 22
f 6 4 2
f 2 24 22
f 22 20 18
f 18 16 14
f 14 12 10
f 10 8 6
f 6 2 22
f 22 18 14
f 14 10 6
f 103 104 106
f 21 22 24
f 38 40 39
f 31 32 34
f 24 2 1
f 23 1 7
f 1 3 7
f 3 5 7
f 7 9 11
f 11 13 7
f 13 15 7
f 15 17 19
f 19 21 23
f 15 19 23
f 40 42 41
f 83 84 86
f 50 52 51
f 42 44 43
f 101 102 104
f 44 46 45
f 36 34 32
f 32 30 28
f 28 26 44
f 26 48 44
f 48 46 44
f 44 42 40
f 40 38 44
f 38 36 44
f 36 32 44
f 45 46 48
f 61 62 64
f 55 56 58
f 47 48 26
f 37 39 41
f 41 43 45
f 45 47 25
f 25 27 29
f 29 31 33
f 33 35 37
f 37 41 45
f 45 25 37
f 25 29 37
f 63 64 66
f 73 74 76
f 108 110 109
f 66 68 67
f 68 70 69
f 49 51 53
f 53 55 49
f 55 57 49
f 57 59 65
f 59 61 65
f 61 63 65
f 65 67 49
f 67 69 49
f 69 71 49
f 69 70 72
f 105 106 108
f 72 50 49
f 58 56 54
f 54 52 50
f 50 72 70
f 70 68 66
f 66 64 62
f 62 60 58
f 58 54 50
f 50 70 66
f 66 62 50
f 87 88 90
f 97 98 100
f 89 90 92
f 92 94 93
f 81 83 85
f 85 87 89
f 89 91 93
f 93 95 89
f 95 73 89
f 73 75 77
f 77 79 81
f 81 85 89
f 73 77 89
f 93 94 96
f 95 96 74
f 90 88 86
f 86 84 90
f 84 82 90
f 82 80 78
f 78 76 74
f 74 96 90
f 96 94 90
f 94 92 90
f 82 78 90
f 112 114 113
f 114 116 115
f 116 118 117
f 112 110 108
f 108 106 112
f 106 104 112
f 104 102 100
f 100 98 104
f 98 120 104
f 120 118 112
f 118 116 112
f 116 114 112
f 117 118 120
f 120 98 97
f 105 107 109
f 109 111 105
f 111 113 105
f 113 115 117
f 117 119 97
f 97 99 101
f 101 103 105
f 113 117 105
f 117 97 105
