# kraken_pocket Seg5_Ink.obj: Roblox cue frame, recentred on its bounding box
v 0.26739 -0.22144 -0.02000
v 0.24685 -0.22632 -0.08499
v 0.20482 -0.24024 -0.13704
v 0.14770 -0.26105 -0.16822
v 0.08418 -0.28561 -0.17380
v 0.02393 -0.31017 -0.15291
v -0.02387 -0.33099 -0.10875
v -0.05195 -0.34490 -0.04803
v -0.05603 -0.34978 0.02000
v -0.03550 -0.34490 0.08499
v 0.00653 -0.33099 0.13704
v 0.06365 -0.31017 0.16822
v 0.12717 -0.28561 0.17380
v 0.18742 -0.26105 0.15291
v 0.23522 -0.24024 0.10875
v 0.26330 -0.22632 0.04803
v 0.25002 -0.18725 -0.01786
v 0.23004 -0.19231 -0.08148
v 0.18919 -0.20665 -0.13246
v 0.13370 -0.22808 -0.16303
v 0.07202 -0.25334 -0.16855
v 0.01354 -0.27859 -0.14817
v -0.03284 -0.29998 -0.10499
v -0.06006 -0.31426 -0.04559
v -0.06397 -0.31924 0.02099
v -0.04398 -0.31418 0.08461
v -0.00314 -0.29984 0.13559
v 0.05235 -0.27841 0.16616
v 0.11403 -0.25315 0.17168
v 0.17251 -0.22790 0.15130
v 0.21889 -0.20651 0.10812
v 0.24611 -0.19224 0.04872
v 0.23010 -0.15100 -0.01545
v 0.21078 -0.15649 -0.07771
v 0.17143 -0.17190 -0.12765
v 0.11803 -0.19488 -0.15766
v 0.05873 -0.22195 -0.16318
v 0.00255 -0.24898 -0.14337
v -0.04197 -0.27185 -0.10123
v -0.06804 -0.28709 -0.04320
v -0.07169 -0.29237 0.02191
v -0.05237 -0.28688 0.08417
v -0.01302 -0.27148 0.13411
v 0.04037 -0.24849 0.16413
v 0.09968 -0.22142 0.16965
v 0.15586 -0.19439 0.14983
v 0.20038 -0.17152 0.10770
v 0.22645 -0.15628 0.04966
v 0.20897 -0.11608 -0.01293
v 0.19033 -0.12194 -0.07382
v 0.15249 -0.13831 -0.12271
v 0.10123 -0.16270 -0.15216
v 0.04434 -0.19140 -0.15769
v -0.00951 -0.22003 -0.13844
v -0.05212 -0.24425 -0.09736
v -0.07701 -0.26036 -0.04070
v -0.08039 -0.26591 0.02293
v -0.06174 -0.26005 0.08382
v -0.02391 -0.24368 0.13271
v 0.02736 -0.21929 0.16216
v 0.08424 -0.19059 0.16769
v 0.13809 -0.16196 0.14844
v 0.18070 -0.13774 0.10736
v 0.20559 -0.12163 0.05070
v 0.19430 -0.09790 -0.01119
v 0.17574 -0.10288 -0.07063
v 0.13778 -0.11674 -0.11828
v 0.08621 -0.13738 -0.14687
v 0.02888 -0.16165 -0.15206
v -0.02549 -0.18585 -0.13306
v -0.06862 -0.20631 -0.09275
v -0.09394 -0.21991 -0.03728
v -0.09759 -0.22457 0.02492
v -0.07903 -0.21959 0.08436
v -0.04107 -0.20573 0.13201
v 0.01050 -0.18510 0.16060
v 0.06784 -0.16083 0.16579
v 0.12220 -0.13662 0.14679
v 0.16533 -0.11616 0.10648
v 0.19065 -0.10257 0.05101
v 0.17696 -0.06006 -0.00915
v 0.15860 -0.06433 -0.06715
v 0.12089 -0.07620 -0.11358
v 0.06956 -0.09386 -0.14138
v 0.01243 -0.11462 -0.14631
v -0.04180 -0.13531 -0.12762
v -0.08489 -0.15280 -0.08816
v -0.11026 -0.16441 -0.03393
v -0.11406 -0.16839 0.02680
v -0.09570 -0.16411 0.08480
v -0.05799 -0.15224 0.13124
v -0.00666 -0.13459 0.15903
v 0.05047 -0.11383 0.16396
v 0.10470 -0.09313 0.14528
v 0.14779 -0.07565 0.10582
v 0.17316 -0.06403 0.05159
v 0.15448 -0.01095 -0.00653
v 0.13667 -0.01535 -0.06311
v 0.10012 -0.02756 -0.10843
v 0.05041 -0.04570 -0.13558
v -0.00491 -0.06703 -0.14044
v -0.05740 -0.08829 -0.12226
v -0.09909 -0.10624 -0.08380
v -0.12361 -0.11816 -0.03094
v -0.12724 -0.12223 0.02829
v -0.10943 -0.11783 0.08488
v -0.07288 -0.10562 0.13019
v -0.02317 -0.08748 0.15735
v 0.03215 -0.06615 0.16220
v 0.08465 -0.04489 0.14402
v 0.12633 -0.02694 0.10557
v 0.15085 -0.01502 0.05271
v 0.13063 0.03767 -0.00376
v 0.11340 0.03307 -0.05892
v 0.07812 0.02032 -0.10312
v 0.03018 0.00138 -0.12964
v -0.02313 -0.02088 -0.13444
v -0.07369 -0.04306 -0.11679
v -0.11381 -0.06180 -0.07938
v -0.13738 -0.07423 -0.02789
v -0.14081 -0.07847 0.02982
v -0.12358 -0.07386 0.08498
v -0.08831 -0.06112 0.12918
v -0.04036 -0.04217 0.15570
v 0.01295 -0.01992 0.16051
v 0.06351 0.00227 0.14285
v 0.10363 0.02100 0.10544
v 0.12720 0.03344 0.05396
v 0.10572 0.08471 -0.00088
v 0.08908 0.07990 -0.05460
v 0.05513 0.06659 -0.09769
v 0.00904 0.04682 -0.12357
v -0.04219 0.02360 -0.12833
v -0.09074 0.00045 -0.11122
v -0.12924 -0.01909 -0.07485
v -0.15181 -0.03205 -0.02477
v -0.15502 -0.03646 0.03141
v -0.13838 -0.03165 0.08514
v -0.10443 -0.01835 0.12822
v -0.05834 0.00142 0.15411
v -0.00711 0.02465 0.15886
v 0.04144 0.04779 0.14175
v 0.07994 0.06733 0.10539
v 0.10251 0.08030 0.05530
v 0.07974 0.12997 0.00212
v 0.06372 0.12494 -0.05016
v 0.03115 0.11105 -0.09212
v -0.01302 0.09042 -0.11738
v -0.06206 0.06618 -0.12209
v -0.10851 0.04203 -0.10554
v -0.14529 0.02164 -0.07024
v -0.16681 0.00812 -0.02157
v -0.16979 0.00352 0.03306
v -0.15377 0.00855 0.08534
v -0.12120 0.02244 0.12730
v -0.07703 0.04307 0.15256
v -0.02799 0.06731 0.15728
v 0.01846 0.09146 0.14072
v 0.05524 0.11185 0.10542
v 0.07676 0.12537 0.05675
v 0.05265 0.17326 0.00524
v 0.03728 0.16800 -0.04559
v 0.00616 0.15350 -0.08642
v -0.03598 0.13195 -0.11106
v -0.08271 0.10664 -0.11574
v -0.12693 0.08143 -0.09976
v -0.16190 0.06015 -0.06554
v -0.18231 0.04603 -0.01831
v -0.18503 0.04124 0.03476
v -0.16966 0.04650 0.08558
v -0.13853 0.06100 0.12642
v -0.09640 0.08255 0.15105
v -0.04966 0.10786 0.15574
v -0.00544 0.13307 0.13975
v 0.02953 0.15435 0.10554
v 0.04993 0.16847 0.05830
v 0.02442 0.21439 0.00848
v 0.00972 0.20889 -0.04088
v -0.01986 0.19373 -0.08059
v -0.05984 0.17121 -0.10460
v -0.10412 0.14477 -0.10927
v -0.14596 0.11842 -0.09388
v -0.17900 0.09619 -0.06077
v -0.19820 0.08145 -0.01499
v -0.20064 0.07645 0.03650
v -0.18595 0.08194 0.08585
v -0.15636 0.09711 0.12556
v -0.11639 0.11962 0.14957
v -0.07211 0.14607 0.15424
v -0.03026 0.17241 0.13885
v 0.00278 0.19465 0.10574
v 0.02198 0.20939 0.05996
v -0.00504 0.25315 0.01185
v -0.01901 0.24740 -0.03603
v -0.04696 0.23154 -0.07461
v -0.08461 0.20799 -0.09801
v -0.12626 0.18034 -0.10268
v -0.16554 0.15279 -0.08790
v -0.19649 0.12954 -0.05593
v -0.21439 0.11414 -0.01163
v -0.21652 0.10891 0.03826
v -0.20254 0.11467 0.08613
v -0.17460 0.13053 0.12471
v -0.13694 0.15408 0.14812
v -0.09530 0.18173 0.15279
v -0.05602 0.20927 0.13801
v -0.02507 0.23252 0.10604
v -0.00717 0.24793 0.06173
v -0.03582 0.28934 0.01536
v -0.04902 0.28331 -0.03103
v -0.07518 0.26672 -0.06848
v -0.11033 0.24207 -0.09128
v -0.14910 0.21314 -0.09598
v -0.18560 0.18432 -0.08184
v -0.21427 0.16001 -0.05103
v -0.23074 0.14389 -0.00824
v -0.23252 0.13843 0.04003
v -0.21931 0.14446 0.08641
v -0.19315 0.16106 0.12386
v -0.15801 0.18570 0.14667
v -0.11923 0.21464 0.15136
v -0.08273 0.24346 0.13723
v -0.05406 0.26777 0.10642
v -0.03759 0.28389 0.06363
v -0.06802 0.32273 0.01903
v -0.08039 0.31641 -0.02586
v -0.10462 0.29904 -0.06219
v -0.13701 0.27326 -0.08441
v -0.17263 0.24298 -0.08916
v -0.20607 0.21284 -0.07570
v -0.23222 0.18740 -0.04609
v -0.24712 0.17055 -0.00484
v -0.24849 0.16485 0.04179
v -0.23612 0.17116 0.08668
v -0.21189 0.18854 0.12300
v -0.17950 0.21432 0.14522
v -0.14388 0.24459 0.14997
v -0.11044 0.27474 0.13651
v -0.08429 0.30018 0.10690
v -0.06939 0.31703 0.06565
v -0.09867 0.34978 0.02251
v -0.11039 0.34344 -0.02084
v -0.13317 0.32599 -0.05597
v -0.16353 0.30011 -0.07752
v -0.19687 0.26971 -0.08222
v -0.22810 0.23945 -0.06935
v -0.25246 0.21391 -0.04087
v -0.26626 0.19700 -0.00111
v -0.26739 0.19128 0.04387
v -0.25567 0.19762 0.08722
v -0.23289 0.21507 0.12234
v -0.20252 0.24096 0.14390
v -0.16919 0.27135 0.14860
v -0.13796 0.30161 0.13572
v -0.11359 0.32715 0.10724
v -0.09980 0.34406 0.06749
v 0.10568 -0.28561 -0.00000
v -0.18303 0.27053 0.03319
f 1 18 17
f 2 19 18
f 3 20 19
f 4 21 20
f 5 22 21
f 6 23 22
f 7 24 23
f 8 25 24
f 10 25 9
f 11 26 10
f 12 27 11
f 13 28 12
f 14 29 13
f 15 30 14
f 16 31 15
f 1 32 16
f 18 33 17
f 18 35 34
f 19 36 35
f 20 37 36
f 21 38 37
f 22 39 38
f 23 40 39
f 24 41 40
f 26 41 25
f 27 42 26
f 28 43 27
f 29 44 28
f 30 45 29
f 31 46 30
f 32 47 31
f 17 48 32
f 34 49 33
f 34 51 50
f 35 52 51
f 36 53 52
f 37 54 53
f 38 55 54
f 39 56 55
f 40 57 56
f 42 57 41
f 43 58 42
f 44 59 43
f 45 60 44
f 46 61 45
f 47 62 46
f 48 63 47
f 33 64 48
f 50 65 49
f 51 66 50
f 52 67 51
f 53 68 52
f 54 69 53
f 55 70 54
f 56 71 55
f 57 72 56
f 57 74 73
f 58 75 74
f 59 76 75
f 60 77 76
f 61 78 77
f 62 79 78
f 63 80 79
f 64 65 80
f 65 82 81
f 66 83 82
f 67 84 83
f 68 85 84
f 69 86 85
f 70 87 86
f 71 88 87
f 72 89 88
f 74 89 73
f 75 90 74
f 76 91 75
f 77 92 76
f 78 93 77
f 79 94 78
f 80 95 79
f 65 96 80
f 81 98 97
f 82 99 98
f 83 100 99
f 84 101 100
f 85 102 101
f 86 103 102
f 87 104 103
f 88 105 104
f 90 105 89
f 91 106 90
f 92 107 91
f 93 108 92
f 94 109 93
f 95 110 94
f 96 111 95
f 81 112 96
f 97 114 113
f 98 115 114
f 99 116 115
f 100 117 116
f 101 118 117
f 102 119 118
f 103 120 119
f 104 121 120
f 106 121 105
f 107 122 106
f 108 123 107
f 109 124 108
f 110 125 109
f 111 126 110
f 112 127 111
f 97 128 112
f 113 130 129
f 114 131 130
f 115 132 131
f 116 133 132
f 117 134 133
f 118 135 134
f 119 136 135
f 120 137 136
f 122 137 121
f 123 138 122
f 124 139 123
f 125 140 124
f 126 141 125
f 127 142 126
f 128 143 127
f 113 144 128
f 129 146 145
f 130 147 146
f 131 148 147
f 132 149 148
f 133 150 149
f 134 151 150
f 135 152 151
f 136 153 152
f 138 153 137
f 139 154 138
f 140 155 139
f 141 156 140
f 142 157 141
f 143 158 142
f 144 159 143
f 129 160 144
f 145 162 161
f 146 163 162
f 147 164 163
f 148 165 164
f 149 166 165
f 150 167 166
f 151 168 167
f 152 169 168
f 154 169 153
f 155 170 154
f 156 171 155
f 157 172 156
f 158 173 157
f 159 174 158
f 160 175 159
f 145 176 160
f 161 178 177
f 162 179 178
f 163 180 179
f 164 181 180
f 165 182 181
f 166 183 182
f 167 184 183
f 168 185 184
f 170 185 169
f 171 186 170
f 172 187 171
f 173 188 172
f 174 189 173
f 175 190 174
f 176 191 175
f 161 192 176
f 177 194 193
f 178 195 194
f 179 196 195
f 180 197 196
f 181 198 197
f 182 199 198
f 183 200 199
f 184 201 200
f 186 201 185
f 187 202 186
f 188 203 187
f 189 204 188
f 190 205 189
f 191 206 190
f 192 207 191
f 177 208 192
f 193 210 209
f 194 211 210
f 195 212 211
f 196 213 212
f 197 214 213
f 198 215 214
f 199 216 215
f 200 217 216
f 202 217 201
f 203 218 202
f 204 219 203
f 205 220 204
f 206 221 205
f 207 222 206
f 208 223 207
f 193 224 208
f 209 226 225
f 210 227 226
f 211 228 227
f 212 229 228
f 213 230 229
f 214 231 230
f 215 232 231
f 216 233 232
f 218 233 217
f 219 234 218
f 220 235 219
f 221 236 220
f 222 237 221
f 223 238 222
f 224 239 223
f 209 240 224
f 226 241 225
f 227 242 226
f 228 243 227
f 229 244 228
f 230 245 229
f 231 246 230
f 232 247 231
f 233 248 232
f 233 250 249
f 234 251 250
f 235 252 251
f 236 253 252
f 237 254 253
f 238 255 254
f 239 256 255
f 240 241 256
f 257 2 1
f 257 3 2
f 257 4 3
f 257 5 4
f 257 6 5
f 257 7 6
f 257 8 7
f 257 9 8
f 257 10 9
f 257 11 10
f 257 12 11
f 257 13 12
f 257 14 13
f 257 15 14
f 257 16 15
f 257 1 16
f 241 242 258
f 242 243 258
f 243 244 258
f 244 245 258
f 245 246 258
f 246 247 258
f 247 248 258
f 248 249 258
f 249 250 258
f 250 251 258
f 251 252 258
f 252 253 258
f 253 254 258
f 254 255 258
f 255 256 258
f 256 241 258
f 1 2 18
f 2 3 19
f 3 4 20
f 4 5 21
f 5 6 22
f 6 7 23
f 7 8 24
f 8 9 25
f 10 26 25
f 11 27 26
f 12 28 27
f 13 29 28
f 14 30 29
f 15 31 30
f 16 32 31
f 1 17 32
f 18 34 33
f 18 19 35
f 19 20 36
f 20 21 37
f 21 22 38
f 22 23 39
f 23 24 40
f 24 25 41
f 26 42 41
f 27 43 42
f 28 44 43
f 29 45 44
f 30 46 45
f 31 47 46
f 32 48 47
f 17 33 48
f 34 50 49
f 34 35 51
f 35 36 52
f 36 37 53
f 37 38 54
f 38 39 55
f 39 40 56
f 40 41 57
f 42 58 57
f 43 59 58
f 44 60 59
f 45 61 60
f 46 62 61
f 47 63 62
f 48 64 63
f 33 49 64
f 50 66 65
f 51 67 66
f 52 68 67
f 53 69 68
f 54 70 69
f 55 71 70
f 56 72 71
f 57 73 72
f 57 58 74
f 58 59 75
f 59 60 76
f 60 61 77
f 61 62 78
f 62 63 79
f 63 64 80
f 64 49 65
f 65 66 82
f 66 67 83
f 67 68 84
f 68 69 85
f 69 70 86
f 70 71 87
f 71 72 88
f 72 73 89
f 74 90 89
f 75 91 90
f 76 92 91
f 77 93 92
f 78 94 93
f 79 95 94
f 80 96 95
f 65 81 96
f 81 82 98
f 82 83 99
f 83 84 100
f 84 85 101
f 85 86 102
f 86 87 103
f 87 88 104
f 88 89 105
f 90 106 105
f 91 107 106
f 92 108 107
f 93 109 108
f 94 110 109
f 95 111 110
f 96 112 111
f 81 97 112
f 97 98 114
f 98 99 115
f 99 100 116
f 100 101 117
f 101 102 118
f 102 103 119
f 103 104 120
f 104 105 121
f 106 122 121
f 107 123 122
f 108 124 123
f 109 125 124
f 110 126 125
f 111 127 126
f 112 128 127
f 97 113 128
f 113 114 130
f 114 115 131
f 115 116 132
f 116 117 133
f 117 118 134
f 118 119 135
f 119 120 136
f 120 121 137
f 122 138 137
f 123 139 138
f 124 140 139
f 125 141 140
f 126 142 141
f 127 143 142
f 128 144 143
f 113 129 144
f 129 130 146
f 130 131 147
f 131 132 148
f 132 133 149
f 133 134 150
f 134 135 151
f 135 136 152
f 136 137 153
f 138 154 153
f 139 155 154
f 140 156 155
f 141 157 156
f 142 158 157
f 143 159 158
f 144 160 159
f 129 145 160
f 145 146 162
f 146 147 163
f 147 148 164
f 148 149 165
f 149 150 166
f 150 151 167
f 151 152 168
f 152 153 169
f 154 170 169
f 155 171 170
f 156 172 171
f 157 173 172
f 158 174 173
f 159 175 174
f 160 176 175
f 145 161 176
f 161 162 178
f 162 163 179
f 163 164 180
f 164 165 181
f 165 166 182
f 166 167 183
f 167 168 184
f 168 169 185
f 170 186 185
f 171 187 186
f 172 188 187
f 173 189 188
f 174 190 189
f 175 191 190
f 176 192 191
f 161 177 192
f 177 178 194
f 178 179 195
f 179 180 196
f 180 181 197
f 181 182 198
f 182 183 199
f 183 184 200
f 184 185 201
f 186 202 201
f 187 203 202
f 188 204 203
f 189 205 204
f 190 206 205
f 191 207 206
f 192 208 207
f 177 193 208
f 193 194 210
f 194 195 211
f 195 196 212
f 196 197 213
f 197 198 214
f 198 199 215
f 199 200 216
f 200 201 217
f 202 218 217
f 203 219 218
f 204 220 219
f 205 221 220
f 206 222 221
f 207 223 222
f 208 224 223
f 193 209 224
f 209 210 226
f 210 211 227
f 211 212 228
f 212 213 229
f 213 214 230
f 214 215 231
f 215 216 232
f 216 217 233
f 218 234 233
f 219 235 234
f 220 236 235
f 221 237 236
f 222 238 237
f 223 239 238
f 224 240 239
f 209 225 240
f 226 242 241
f 227 243 242
f 228 244 243
f 229 245 244
f 230 246 245
f 231 247 246
f 232 248 247
f 233 249 248
f 233 234 250
f 234 235 251
f 235 236 252
f 236 237 253
f 237 238 254
f 238 239 255
f 239 240 256
f 240 225 241
