# kraken_pocket Seg5_Core.obj: Roblox cue frame, recentred on its bounding box
v 0.21202 -0.24692 -0.01153
v 0.18809 -0.25366 -0.06562
v 0.13932 -0.27131 -0.09484
v 0.08435 -0.29313 -0.08804
v 0.04418 -0.31077 -0.04782
v 0.03414 -0.31751 0.01047
v 0.05808 -0.31077 0.06456
v 0.10684 -0.29313 0.09378
v 0.16181 -0.27131 0.08698
v 0.20198 -0.25366 0.04676
v 0.19678 -0.21355 -0.00965
v 0.17350 -0.22052 -0.06260
v 0.12613 -0.23869 -0.09125
v 0.07276 -0.26112 -0.08465
v 0.03378 -0.27925 -0.04532
v 0.02408 -0.28615 0.01172
v 0.04736 -0.27919 0.06467
v 0.09473 -0.26102 0.09332
v 0.14810 -0.23859 0.08672
v 0.18708 -0.22046 0.04739
v 0.17960 -0.17942 -0.00757
v 0.15713 -0.18693 -0.05941
v 0.11155 -0.20642 -0.08752
v 0.06025 -0.23045 -0.08117
v 0.02285 -0.24983 -0.04279
v 0.01362 -0.25717 0.01297
v 0.03609 -0.24966 0.06481
v 0.08167 -0.23017 0.09293
v 0.13296 -0.20614 0.08658
v 0.17037 -0.18676 0.04819
v 0.16127 -0.14640 -0.00539
v 0.13962 -0.15440 -0.05610
v 0.09585 -0.17508 -0.08368
v 0.04667 -0.20054 -0.07758
v 0.01087 -0.22107 -0.04015
v 0.00212 -0.22880 0.01433
v 0.02377 -0.22081 0.06504
v 0.06754 -0.20012 0.09261
v 0.11672 -0.17466 0.08652
v 0.15252 -0.15414 0.04909
v 0.14603 -0.12301 -0.00359
v 0.12440 -0.12979 -0.05307
v 0.08038 -0.14729 -0.07986
v 0.03077 -0.16882 -0.07373
v -0.00548 -0.18616 -0.03701
v -0.01451 -0.19268 0.01626
v 0.00712 -0.18589 0.06575
v 0.05114 -0.16839 0.09253
v 0.10075 -0.14687 0.08640
v 0.13700 -0.12953 0.04968
v 0.12888 -0.08104 -0.00159
v 0.10745 -0.08686 -0.04985
v 0.06364 -0.10183 -0.07591
v 0.01418 -0.12024 -0.06980
v -0.02204 -0.13506 -0.03386
v -0.03117 -0.14062 0.01818
v -0.00974 -0.13480 0.06645
v 0.03407 -0.11983 0.09250
v 0.08353 -0.10142 0.08639
v 0.11975 -0.08660 0.05045
v 0.10850 -0.03259 0.00078
v 0.08771 -0.03858 -0.04631
v 0.04527 -0.05397 -0.07176
v -0.00261 -0.07288 -0.06584
v -0.03764 -0.08809 -0.03082
v -0.04645 -0.09380 0.01993
v -0.02566 -0.08781 0.06702
v 0.01678 -0.07242 0.09247
v 0.06466 -0.05351 0.08655
v 0.09969 -0.03830 0.05153
v 0.08696 0.01493 0.00327
v 0.06687 0.00868 -0.04264
v 0.02595 -0.00739 -0.06749
v -0.02019 -0.02713 -0.06179
v -0.05391 -0.04300 -0.02770
v -0.06233 -0.04894 0.02174
v -0.04225 -0.04269 0.06765
v -0.00132 -0.02662 0.09250
v 0.04482 -0.00688 0.08679
v 0.07853 0.00899 0.05271
v 0.06446 0.06084 0.00586
v 0.04509 0.05431 -0.03887
v 0.00574 0.03754 -0.06312
v -0.03858 0.01695 -0.05763
v -0.07092 0.00039 -0.02450
v -0.07895 -0.00581 0.02362
v -0.05958 0.00073 0.06834
v -0.02023 0.01749 0.09259
v 0.02409 0.03809 0.08711
v 0.05643 0.05464 0.05398
v 0.04100 0.10491 0.00855
v 0.02239 0.09809 -0.03498
v -0.01533 0.08059 -0.05863
v -0.05774 0.05910 -0.05338
v -0.08864 0.04183 -0.02121
v -0.09624 0.03537 0.02557
v -0.07763 0.04219 0.06910
v -0.03991 0.05969 0.09276
v 0.00250 0.08118 0.08750
v 0.03340 0.09845 0.05533
v 0.01658 0.14695 0.01135
v -0.00125 0.13982 -0.03098
v -0.03723 0.12155 -0.05404
v -0.07762 0.09911 -0.04902
v -0.10700 0.08108 -0.01784
v -0.11414 0.07434 0.02759
v -0.09632 0.08147 0.06992
v -0.06034 0.09974 0.09298
v -0.01994 0.12218 0.08796
v 0.00944 0.14021 0.05678
v -0.00882 0.18674 0.01425
v -0.02581 0.17929 -0.02687
v -0.05996 0.16019 -0.04934
v -0.09821 0.13675 -0.04458
v -0.12595 0.11791 -0.01440
v -0.13260 0.11088 0.02966
v -0.11560 0.11833 0.07078
v -0.08146 0.13743 0.09326
v -0.04321 0.16087 0.08849
v -0.01546 0.17971 0.05832
v -0.03522 0.22409 0.01726
v -0.05133 0.21629 -0.02265
v -0.08350 0.19632 -0.04454
v -0.11944 0.17180 -0.04005
v -0.14543 0.15211 -0.01090
v -0.15153 0.14476 0.03178
v -0.13542 0.15256 0.07169
v -0.10325 0.17253 0.09358
v -0.06731 0.19705 0.08909
v -0.04132 0.21674 0.05994
v -0.06267 0.25878 0.02038
v -0.07783 0.25062 -0.01831
v -0.10786 0.22972 -0.03962
v -0.14129 0.20407 -0.03543
v -0.16535 0.18347 -0.00733
v -0.17085 0.17578 0.03395
v -0.15570 0.18395 0.07263
v -0.12567 0.20485 0.09395
v -0.09223 0.23050 0.08976
v -0.06817 0.25110 0.06166
v -0.09122 0.29060 0.02362
v -0.10535 0.28205 -0.01384
v -0.13304 0.26018 -0.03460
v -0.16371 0.23334 -0.03073
v -0.18565 0.21180 -0.00371
v -0.19048 0.20376 0.03613
v -0.17635 0.21231 0.07359
v -0.14867 0.23418 0.09435
v -0.11800 0.26102 0.09048
v -0.09605 0.28257 0.06347
v -0.11923 0.31751 0.02678
v -0.13256 0.30892 -0.00940
v -0.15853 0.28697 -0.02952
v -0.18720 0.26003 -0.02590
v -0.20763 0.23840 0.00010
v -0.21202 0.23033 0.03853
v -0.19869 0.23892 0.07472
v -0.17272 0.26088 0.09484
v -0.14405 0.28782 0.09121
v -0.12361 0.30945 0.06522
v 0.12308 -0.28222 -0.00053
v -0.16562 0.27392 0.03266
f 1 12 11
f 2 13 12
f 3 14 13
f 4 15 14
f 5 16 15
f 7 16 6
f 8 17 7
f 9 18 8
f 10 19 9
f 1 20 10
f 11 22 21
f 12 23 22
f 13 24 23
f 14 25 24
f 15 26 25
f 17 26 16
f 18 27 17
f 19 28 18
f 20 29 19
f 11 30 20
f 21 32 31
f 22 33 32
f 23 34 33
f 24 35 34
f 25 36 35
f 27 36 26
f 28 37 27
f 29 38 28
f 30 39 29
f 21 40 30
f 32 41 31
f 33 42 32
f 34 43 33
f 35 44 34
f 36 45 35
f 36 47 46
f 37 48 47
f 38 49 48
f 39 50 49
f 40 41 50
f 41 52 51
f 42 53 52
f 43 54 53
f 44 55 54
f 45 56 55
f 47 56 46
f 48 57 47
f 49 58 48
f 50 59 49
f 41 60 50
f 51 62 61
f 52 63 62
f 53 64 63
f 54 65 64
f 55 66 65
f 57 66 56
f 58 67 57
f 59 68 58
f 60 69 59
f 51 70 60
f 61 72 71
f 62 73 72
f 63 74 73
f 64 75 74
f 65 76 75
f 67 76 66
f 68 77 67
f 69 78 68
f 70 79 69
f 61 80 70
f 71 82 81
f 72 83 82
f 73 84 83
f 74 85 84
f 75 86 85
f 77 86 76
f 78 87 77
f 79 88 78
f 80 89 79
f 71 90 80
f 81 92 91
f 82 93 92
f 83 94 93
f 84 95 94
f 85 96 95
f 87 96 86
f 88 97 87
f 89 98 88
f 90 99 89
f 81 100 90
f 91 102 101
f 92 103 102
f 93 104 103
f 94 105 104
f 95 106 105
f 97 106 96
f 98 107 97
f 99 108 98
f 100 109 99
f 91 110 100
f 101 112 111
f 102 113 112
f 103 114 113
f 104 115 114
f 105 116 115
f 107 116 106
f 108 117 107
f 109 118 108
f 110 119 109
f 101 120 110
f 111 122 121
f 112 123 122
f 113 124 123
f 114 125 124
f 115 126 125
f 117 126 116
f 118 127 117
f 119 128 118
f 120 129 119
f 111 130 120
f 121 132 131
f 122 133 132
f 123 134 133
f 124 135 134
f 125 136 135
f 127 136 126
f 128 137 127
f 129 138 128
f 130 139 129
f 121 140 130
f 131 142 141
f 132 143 142
f 133 144 143
f 134 145 144
f 135 146 145
f 137 146 136
f 138 147 137
f 139 148 138
f 140 149 139
f 131 150 140
f 142 151 141
f 143 152 142
f 144 153 143
f 145 154 144
f 146 155 145
f 146 157 156
f 147 158 157
f 148 159 158
f 149 160 159
f 150 151 160
f 161 2 1
f 161 3 2
f 161 4 3
f 161 5 4
f 161 6 5
f 161 7 6
f 161 8 7
f 161 9 8
f 161 10 9
f 161 1 10
f 151 152 162
f 152 153 162
f 153 154 162
f 154 155 162
f 155 156 162
f 156 157 162
f 157 158 162
f 158 159 162
f 159 160 162
f 160 151 162
f 1 2 12
f 2 3 13
f 3 4 14
f 4 5 15
f 5 6 16
f 7 17 16
f 8 18 17
f 9 19 18
f 10 20 19
f 1 11 20
f 11 12 22
f 12 13 23
f 13 14 24
f 14 15 25
f 15 16 26
f 17 27 26
f 18 28 27
f 19 29 28
f 20 30 29
f 11 21 30
f 21 22 32
f 22 23 33
f 23 24 34
f 24 25 35
f 25 26 36
f 27 37 36
f 28 38 37
f 29 39 38
f 30 40 39
f 21 31 40
f 32 42 41
f 33 43 42
f 34 44 43
f 35 45 44
f 36 46 45
f 36 37 47
f 37 38 48
f 38 39 49
f 39 40 50
f 40 31 41
f 41 42 52
f 42 43 53
f 43 44 54
f 44 45 55
f 45 46 56
f 47 57 56
f 48 58 57
f 49 59 58
f 50 60 59
f 41 51 60
f 51 52 62
f 52 53 63
f 53 54 64
f 54 55 65
f 55 56 66
f 57 67 66
f 58 68 67
f 59 69 68
f 60 70 69
f 51 61 70
f 61 62 72
f 62 63 73
f 63 64 74
f 64 65 75
f 65 66 76
f 67 77 76
f 68 78 77
f 69 79 78
f 70 80 79
f 61 71 80
f 71 72 82
f 72 73 83
f 73 74 84
f 74 75 85
f 75 76 86
f 77 87 86
f 78 88 87
f 79 89 88
f 80 90 89
f 71 81 90
f 81 82 92
f 82 83 93
f 83 84 94
f 84 85 95
f 85 86 96
f 87 97 96
f 88 98 97
f 89 99 98
f 90 100 99
f 81 91 100
f 91 92 102
f 92 93 103
f 93 94 104
f 94 95 105
f 95 96 106
f 97 107 106
f 98 108 107
f 99 109 108
f 100 110 109
f 91 101 110
f 101 102 112
f 102 103 113
f 103 104 114
f 104 105 115
f 105 106 116
f 107 117 116
f 108 118 117
f 109 119 118
f 110 120 119
f 101 111 120
f 111 112 122
f 112 113 123
f 113 114 124
f 114 115 125
f 115 116 126
f 117 127 126
f 118 128 127
f 119 129 128
f 120 130 129
f 111 121 130
f 121 122 132
f 122 123 133
f 123 124 134
f 124 125 135
f 125 126 136
f 127 137 136
f 128 138 137
f 129 139 138
f 130 140 139
f 121 131 140
f 131 132 142
f 132 133 143
f 133 134 144
f 134 135 145
f 135 136 146
f 137 147 146
f 138 148 147
f 139 149 148
f 140 150 149
f 131 141 150
f 142 152 151
f 143 153 152
f 144 154 153
f 145 155 154
f 146 156 155
f 146 147 157
f 147 148 158
f 148 149 159
f 149 150 160
f 150 141 151
