# kraken_pocket Seg6_Ink.obj: Roblox cue frame, recentred on its bounding box
v 0.33463 0.00914 -0.01102
v 0.32180 0.00319 -0.05798
v 0.29604 -0.01377 -0.09611
v 0.26128 -0.03915 -0.11961
v 0.22279 -0.06908 -0.12490
v 0.18645 -0.09902 -0.11118
v 0.15778 -0.12440 -0.08053
v 0.14115 -0.14135 -0.03762
v 0.13910 -0.14731 0.01102
v 0.15192 -0.14135 0.05798
v 0.17768 -0.12440 0.09611
v 0.21245 -0.09902 0.11961
v 0.25094 -0.06908 0.12490
v 0.28728 -0.03915 0.11118
v 0.31595 -0.01377 0.08053
v 0.33257 0.00319 0.03762
v 0.29767 0.04750 -0.00685
v 0.28562 0.04149 -0.05192
v 0.26160 0.02439 -0.08857
v 0.22928 -0.00120 -0.11123
v 0.19358 -0.03138 -0.11644
v 0.15993 -0.06156 -0.10341
v 0.13346 -0.08714 -0.07413
v 0.11819 -0.10423 -0.03306
v 0.11646 -0.11023 0.01357
v 0.12852 -0.10422 0.05863
v 0.15253 -0.08712 0.09529
v 0.18485 -0.06154 0.11794
v 0.22055 -0.03136 0.12316
v 0.25420 -0.00118 0.11013
v 0.28067 0.02441 0.08085
v 0.29594 0.04150 0.03977
v 0.25550 0.08477 -0.00212
v 0.24454 0.07842 -0.04530
v 0.22317 0.06035 -0.08055
v 0.19466 0.03332 -0.10250
v 0.16333 0.00144 -0.10780
v 0.13397 -0.03043 -0.09565
v 0.11104 -0.05744 -0.06791
v 0.09803 -0.07548 -0.02878
v 0.09692 -0.08180 0.01576
v 0.10788 -0.07545 0.05894
v 0.12925 -0.05738 0.09419
v 0.15777 -0.03035 0.11614
v 0.18909 0.00153 0.12144
v 0.21845 0.03340 0.10930
v 0.24139 0.06041 0.08155
v 0.25440 0.07845 0.04243
v 0.21064 0.11662 0.00290
v 0.20090 0.10993 -0.03839
v 0.18255 0.09094 -0.07224
v 0.15839 0.06254 -0.09352
v 0.13208 0.02904 -0.09898
v 0.10763 -0.00444 -0.08779
v 0.08878 -0.03281 -0.06165
v 0.07838 -0.05176 -0.02455
v 0.07802 -0.05839 0.01787
v 0.08775 -0.05170 0.05916
v 0.10610 -0.03271 0.09301
v 0.13027 -0.00430 0.11429
v 0.15658 0.02919 0.11975
v 0.18102 0.06267 0.10856
v 0.19988 0.09105 0.08242
v 0.21028 0.10999 0.04532
v 0.16291 0.14214 0.00821
v 0.15455 0.13517 -0.03116
v 0.13963 0.11542 -0.06364
v 0.12042 0.08589 -0.08429
v 0.09984 0.05107 -0.08998
v 0.08103 0.01628 -0.07983
v 0.06685 -0.01321 -0.05538
v 0.05945 -0.03289 -0.02037
v 0.05998 -0.03977 0.01988
v 0.06833 -0.03280 0.05924
v 0.08325 -0.01305 0.09172
v 0.10246 0.01648 0.11238
v 0.12304 0.05130 0.11806
v 0.14185 0.08609 0.10791
v 0.15604 0.11558 0.08347
v 0.16343 0.13526 0.04846
v 0.11247 0.16012 0.01378
v 0.10563 0.15301 -0.02364
v 0.09453 0.13285 -0.05475
v 0.08084 0.10273 -0.07482
v 0.06666 0.06722 -0.08079
v 0.05414 0.03173 -0.07176
v 0.04518 0.00167 -0.04909
v 0.04116 -0.01839 -0.01624
v 0.04269 -0.02539 0.02179
v 0.04952 -0.01828 0.05921
v 0.06063 0.00188 0.09033
v 0.07432 0.03200 0.11040
v 0.08850 0.06751 0.11637
v 0.10102 0.10300 0.10733
v 0.10997 0.13306 0.08466
v 0.11399 0.15312 0.05181
v 0.06010 0.16930 0.01954
v 0.05487 0.16223 -0.01591
v 0.04780 0.14224 -0.04564
v 0.03996 0.11238 -0.06513
v 0.03254 0.07718 -0.07142
v 0.02668 0.04200 -0.06354
v 0.02327 0.01221 -0.04270
v 0.02282 -0.00767 -0.01207
v 0.02541 -0.01460 0.02369
v 0.03064 -0.00753 0.05913
v 0.03772 0.01245 0.08886
v 0.04556 0.04232 0.10836
v 0.05297 0.07752 0.11465
v 0.05883 0.11269 0.10677
v 0.06225 0.14249 0.08593
v 0.06269 0.16236 0.05530
v 0.00730 0.16873 0.02530
v 0.00365 0.16197 -0.00812
v 0.00051 0.14286 -0.03641
v -0.00165 0.11431 -0.05528
v -0.00249 0.08067 -0.06185
v -0.00188 0.04706 -0.05512
v 0.00008 0.01859 -0.03611
v 0.00309 -0.00040 -0.00772
v 0.00670 -0.00702 0.02573
v 0.01035 -0.00026 0.05914
v 0.01350 0.01885 0.08744
v 0.01565 0.04739 0.10630
v 0.01649 0.08103 0.11287
v 0.01588 0.11465 0.10614
v 0.01392 0.14312 0.08713
v 0.01091 0.16211 0.05874
v -0.04415 0.15833 0.03086
v -0.04640 0.15212 -0.00045
v -0.04610 0.13457 -0.02720
v -0.04329 0.10834 -0.04533
v -0.03842 0.07745 -0.05206
v -0.03221 0.04657 -0.04639
v -0.02562 0.02042 -0.02916
v -0.01965 0.00298 -0.00301
v -0.01520 -0.00309 0.02809
v -0.01295 0.00311 0.05940
v -0.01325 0.02066 0.08616
v -0.01606 0.04689 0.10428
v -0.02093 0.07779 0.11102
v -0.02714 0.10866 0.10534
v -0.03373 0.13481 0.08812
v -0.03971 0.15225 0.06196
v -0.09295 0.13885 0.03609
v -0.09405 0.13335 0.00698
v -0.09108 0.11782 -0.01809
v -0.08448 0.09461 -0.03531
v -0.07525 0.06726 -0.04205
v -0.06481 0.03992 -0.03729
v -0.05474 0.01677 -0.02175
v -0.04658 0.00133 0.00220
v -0.04156 -0.00406 0.03091
v -0.04046 0.00144 0.06002
v -0.04343 0.01697 0.08510
v -0.05003 0.04018 0.10231
v -0.05926 0.06753 0.10906
v -0.06970 0.09487 0.10430
v -0.07977 0.11802 0.08876
v -0.08793 0.13346 0.06481
v -0.13868 0.11134 0.04094
v -0.13895 0.10663 0.01415
v -0.13416 0.09330 -0.00908
v -0.12504 0.07337 -0.02521
v -0.11298 0.04988 -0.03178
v -0.09982 0.02640 -0.02778
v -0.08755 0.00651 -0.01384
v -0.07806 -0.00676 0.00793
v -0.07277 -0.01139 0.03422
v -0.07250 -0.00668 0.06102
v -0.07729 0.00665 0.08425
v -0.08641 0.02658 0.10037
v -0.09847 0.05007 0.10694
v -0.11163 0.07355 0.10295
v -0.12389 0.09344 0.08900
v -0.13339 0.10671 0.06723
v -0.18166 0.07660 0.04545
v -0.18136 0.07267 0.02109
v -0.17555 0.06150 -0.00013
v -0.16509 0.04480 -0.01498
v -0.15158 0.02511 -0.02120
v -0.13708 0.00543 -0.01785
v -0.12380 -0.01125 -0.00543
v -0.11375 -0.02238 0.01417
v -0.10848 -0.02628 0.03796
v -0.10877 -0.02235 0.06231
v -0.11459 -0.01118 0.08353
v -0.12505 0.00552 0.09838
v -0.13855 0.02521 0.10461
v -0.15305 0.04489 0.10125
v -0.16634 0.06157 0.08883
v -0.17638 0.07271 0.06924
v -0.22251 0.03499 0.04968
v -0.22188 0.03177 0.02791
v -0.21567 0.02262 0.00888
v -0.20484 0.00893 -0.00452
v -0.19103 -0.00722 -0.01025
v -0.17635 -0.02337 -0.00744
v -0.16302 -0.03706 0.00349
v -0.15308 -0.04620 0.02087
v -0.14804 -0.04941 0.04205
v -0.14867 -0.04620 0.06381
v -0.15488 -0.03705 0.08284
v -0.16571 -0.02335 0.09624
v -0.17952 -0.00720 0.10198
v -0.19420 0.00895 0.09916
v -0.20753 0.02263 0.08824
v -0.21747 0.03178 0.07086
v -0.26178 -0.01352 0.05368
v -0.26098 -0.01608 0.03472
v -0.25492 -0.02339 0.01809
v -0.24449 -0.03434 0.00632
v -0.23131 -0.04726 0.00122
v -0.21737 -0.06019 0.00354
v -0.20479 -0.07115 0.01295
v -0.19549 -0.07848 0.02801
v -0.19089 -0.08106 0.04643
v -0.19169 -0.07850 0.06539
v -0.19776 -0.07119 0.08202
v -0.20818 -0.06024 0.09379
v -0.22136 -0.04732 0.09889
v -0.23530 -0.03439 0.09656
v -0.24788 -0.02343 0.08715
v -0.25718 -0.01610 0.07210
v -0.29975 -0.06921 0.05749
v -0.29893 -0.07117 0.04164
v -0.29344 -0.07678 0.02772
v -0.28411 -0.08520 0.01784
v -0.27236 -0.09514 0.01351
v -0.25999 -0.10508 0.01538
v -0.24888 -0.11352 0.02317
v -0.24071 -0.11917 0.03569
v -0.23673 -0.12117 0.05105
v -0.23755 -0.11921 0.06689
v -0.24304 -0.11359 0.08081
v -0.25237 -0.10518 0.09069
v -0.26411 -0.09524 0.09502
v -0.27649 -0.08529 0.09315
v -0.28760 -0.07685 0.08536
v -0.29577 -0.07121 0.07284
v -0.33463 -0.13270 0.06091
v -0.33398 -0.13408 0.04930
v -0.32983 -0.13803 0.03910
v -0.32281 -0.14396 0.03184
v -0.31399 -0.15095 0.02865
v -0.30471 -0.15796 0.02999
v -0.29638 -0.16390 0.03568
v -0.29028 -0.16789 0.04484
v -0.28733 -0.16930 0.05608
v -0.28797 -0.16792 0.06769
v -0.29212 -0.16397 0.07789
v -0.29914 -0.15804 0.08515
v -0.30797 -0.15105 0.08834
v -0.31725 -0.14404 0.08700
v -0.32557 -0.13810 0.08131
v -0.33168 -0.13411 0.07215
v 0.23686 -0.06908 0.00000
v -0.31098 -0.15100 0.05849
f 1 18 17
f 2 19 18
f 3 20 19
f 4 21 20
f 5 22 21
f 6 23 22
f 7 24 23
f 8 25 24
f 10 25 9
f 11 26 10
f 12 27 11
f 13 28 12
f 14 29 13
f 15 30 14
f 16 31 15
f 1 32 16
f 17 34 33
f 18 35 34
f 19 36 35
f 20 37 36
f 21 38 37
f 22 39 38
f 23 40 39
f 24 41 40
f 26 41 25
f 27 42 26
f 28 43 27
f 29 44 28
f 30 45 29
f 31 46 30
f 32 47 31
f 17 48 32
f 33 50 49
f 34 51 50
f 35 52 51
f 36 53 52
f 37 54 53
f 38 55 54
f 39 56 55
f 40 57 56
f 42 57 41
f 43 58 42
f 44 59 43
f 45 60 44
f 46 61 45
f 47 62 46
f 48 63 47
f 33 64 48
f 49 66 65
f 50 67 66
f 51 68 67
f 52 69 68
f 53 70 69
f 54 71 70
f 55 72 71
f 56 73 72
f 58 73 57
f 59 74 58
f 60 75 59
f 61 76 60
f 62 77 61
f 63 78 62
f 64 79 63
f 49 80 64
f 65 82 81
f 66 83 82
f 67 84 83
f 68 85 84
f 69 86 85
f 70 87 86
f 71 88 87
f 72 89 88
f 74 89 73
f 75 90 74
f 76 91 75
f 77 92 76
f 78 93 77
f 79 94 78
f 80 95 79
f 65 96 80
f 81 98 97
f 82 99 98
f 83 100 99
f 84 101 100
f 85 102 101
f 86 103 102
f 87 104 103
f 88 105 104
f 90 105 89
f 91 106 90
f 92 107 91
f 93 108 92
f 94 109 93
f 95 110 94
f 96 111 95
f 81 112 96
f 97 114 113
f 98 115 114
f 99 116 115
f 100 117 116
f 101 118 117
f 102 119 118
f 103 120 119
f 104 121 120
f 106 121 105
f 107 122 106
f 108 123 107
f 109 124 108
f 110 125 109
f 111 126 110
f 112 127 111
f 97 128 112
f 113 130 129
f 114 131 130
f 115 132 131
f 116 133 132
f 117 134 133
f 118 135 134
f 119 136 135
f 120 137 136
f 122 137 121
f 123 138 122
f 124 139 123
f 125 140 124
f 126 141 125
f 127 142 126
f 128 143 127
f 113 144 128
f 129 146 145
f 130 147 146
f 131 148 147
f 132 149 148
f 133 150 149
f 135 150 134
f 136 151 135
f 137 152 136
f 138 153 137
f 139 154 138
f 140 155 139
f 141 156 140
f 142 157 141
f 143 158 142
f 144 159 143
f 129 160 144
f 146 161 145
f 147 162 146
f 148 163 147
f 149 164 148
f 150 165 149
f 151 166 150
f 152 167 151
f 153 168 152
f 153 170 169
f 154 171 170
f 155 172 171
f 156 173 172
f 157 174 173
f 158 175 174
f 159 176 175
f 145 176 160
f 162 177 161
f 163 178 162
f 164 179 163
f 165 180 164
f 166 181 165
f 167 182 166
f 168 183 167
f 169 184 168
f 169 186 185
f 170 187 186
f 171 188 187
f 172 189 188
f 173 190 189
f 174 191 190
f 175 192 191
f 176 177 192
f 178 193 177
f 179 194 178
f 180 195 179
f 181 196 180
f 182 197 181
f 183 198 182
f 184 199 183
f 185 200 184
f 185 202 201
f 186 203 202
f 187 204 203
f 188 205 204
f 189 206 205
f 190 207 206
f 191 208 207
f 192 193 208
f 194 209 193
f 195 210 194
f 196 211 195
f 197 212 196
f 198 213 197
f 199 214 198
f 200 215 199
f 201 216 200
f 201 218 217
f 202 219 218
f 203 220 219
f 204 221 220
f 205 222 221
f 206 223 222
f 207 224 223
f 208 209 224
f 210 225 209
f 211 226 210
f 212 227 211
f 213 228 212
f 214 229 213
f 215 230 214
f 216 231 215
f 217 232 216
f 217 234 233
f 218 235 234
f 219 236 235
f 220 237 236
f 221 238 237
f 222 239 238
f 223 240 239
f 224 225 240
f 226 241 225
f 227 242 226
f 228 243 227
f 229 244 228
f 230 245 229
f 231 246 230
f 232 247 231
f 233 248 232
f 233 250 249
f 234 251 250
f 235 252 251
f 236 253 252
f 237 254 253
f 238 255 254
f 239 256 255
f 240 241 256
f 257 2 1
f 257 3 2
f 257 4 3
f 257 5 4
f 257 6 5
f 257 7 6
f 257 8 7
f 257 9 8
f 257 10 9
f 257 11 10
f 257 12 11
f 257 13 12
f 257 14 13
f 257 15 14
f 257 16 15
f 257 1 16
f 241 242 258
f 242 243 258
f 243 244 258
f 244 245 258
f 245 246 258
f 246 247 258
f 247 248 258
f 248 249 258
f 249 250 258
f 250 251 258
f 251 252 258
f 252 253 258
f 253 254 258
f 254 255 258
f 255 256 258
f 256 241 258
f 1 2 18
f 2 3 19
f 3 4 20
f 4 5 21
f 5 6 22
f 6 7 23
f 7 8 24
f 8 9 25
f 10 26 25
f 11 27 26
f 12 28 27
f 13 29 28
f 14 30 29
f 15 31 30
f 16 32 31
f 1 17 32
f 17 18 34
f 18 19 35
f 19 20 36
f 20 21 37
f 21 22 38
f 22 23 39
f 23 24 40
f 24 25 41
f 26 42 41
f 27 43 42
f 28 44 43
f 29 45 44
f 30 46 45
f 31 47 46
f 32 48 47
f 17 33 48
f 33 34 50
f 34 35 51
f 35 36 52
f 36 37 53
f 37 38 54
f 38 39 55
f 39 40 56
f 40 41 57
f 42 58 57
f 43 59 58
f 44 60 59
f 45 61 60
f 46 62 61
f 47 63 62
f 48 64 63
f 33 49 64
f 49 50 66
f 50 51 67
f 51 52 68
f 52 53 69
f 53 54 70
f 54 55 71
f 55 56 72
f 56 57 73
f 58 74 73
f 59 75 74
f 60 76 75
f 61 77 76
f 62 78 77
f 63 79 78
f 64 80 79
f 49 65 80
f 65 66 82
f 66 67 83
f 67 68 84
f 68 69 85
f 69 70 86
f 70 71 87
f 71 72 88
f 72 73 89
f 74 90 89
f 75 91 90
f 76 92 91
f 77 93 92
f 78 94 93
f 79 95 94
f 80 96 95
f 65 81 96
f 81 82 98
f 82 83 99
f 83 84 100
f 84 85 101
f 85 86 102
f 86 87 103
f 87 88 104
f 88 89 105
f 90 106 105
f 91 107 106
f 92 108 107
f 93 109 108
f 94 110 109
f 95 111 110
f 96 112 111
f 81 97 112
f 97 98 114
f 98 99 115
f 99 100 116
f 100 101 117
f 101 102 118
f 102 103 119
f 103 104 120
f 104 105 121
f 106 122 121
f 107 123 122
f 108 124 123
f 109 125 124
f 110 126 125
f 111 127 126
f 112 128 127
f 97 113 128
f 113 114 130
f 114 115 131
f 115 116 132
f 116 117 133
f 117 118 134
f 118 119 135
f 119 120 136
f 120 121 137
f 122 138 137
f 123 139 138
f 124 140 139
f 125 141 140
f 126 142 141
f 127 143 142
f 128 144 143
f 113 129 144
f 129 130 146
f 130 131 147
f 131 132 148
f 132 133 149
f 133 134 150
f 135 151 150
f 136 152 151
f 137 153 152
f 138 154 153
f 139 155 154
f 140 156 155
f 141 157 156
f 142 158 157
f 143 159 158
f 144 160 159
f 129 145 160
f 146 162 161
f 147 163 162
f 148 164 163
f 149 165 164
f 150 166 165
f 151 167 166
f 152 168 167
f 153 169 168
f 153 154 170
f 154 155 171
f 155 156 172
f 156 157 173
f 157 158 174
f 158 159 175
f 159 160 176
f 145 161 176
f 162 178 177
f 163 179 178
f 164 180 179
f 165 181 180
f 166 182 181
f 167 183 182
f 168 184 183
f 169 185 184
f 169 170 186
f 170 171 187
f 171 172 188
f 172 173 189
f 173 174 190
f 174 175 191
f 175 176 192
f 176 161 177
f 178 194 193
f 179 195 194
f 180 196 195
f 181 197 196
f 182 198 197
f 183 199 198
f 184 200 199
f 185 201 200
f 185 186 202
f 186 187 203
f 187 188 204
f 188 189 205
f 189 190 206
f 190 191 207
f 191 192 208
f 192 177 193
f 194 210 209
f 195 211 210
f 196 212 211
f 197 213 212
f 198 214 213
f 199 215 214
f 200 216 215
f 201 217 216
f 201 202 218
f 202 203 219
f 203 204 220
f 204 205 221
f 205 206 222
f 206 207 223
f 207 208 224
f 208 193 209
f 210 226 225
f 211 227 226
f 212 228 227
f 213 229 228
f 214 230 229
f 215 231 230
f 216 232 231
f 217 233 232
f 217 218 234
f 218 219 235
f 219 220 236
f 220 221 237
f 221 222 238
f 222 223 239
f 223 224 240
f 224 209 225
f 226 242 241
f 227 243 242
f 228 244 243
f 229 245 244
f 230 246 245
f 231 247 246
f 232 248 247
f 233 249 248
f 233 234 250
f 234 235 251
f 235 236 252
f 236 237 253
f 237 238 254
f 238 239 255
f 239 240 256
f 240 225 241
