# apex Arc1_HudOrange.obj: Roblox cue frame, recentred on its bounding box
v -0.00048 0.36335 -0.00000
v -0.00024 0.35936 -0.00693
v 0.00024 0.35137 -0.00693
v 0.00048 0.34738 -0.00000
v 0.00024 0.35137 0.00693
v -0.00024 0.35936 0.00693
v -0.04357 0.36137 -0.00000
v -0.04305 0.35709 -0.00747
v -0.04202 0.34853 -0.00747
v -0.04151 0.34424 -0.00000
v -0.04202 0.34853 0.00747
v -0.04305 0.35709 0.00747
v -0.08666 0.35416 -0.00000
v -0.08556 0.34967 -0.00801
v -0.08337 0.34069 -0.00801
v -0.08227 0.33619 -0.00000
v -0.08337 0.34069 0.00801
v -0.08556 0.34967 0.00801
v -0.12865 0.34183 -0.00000
v -0.12692 0.33721 -0.00855
v -0.12344 0.32796 -0.00855
v -0.12170 0.32334 -0.00000
v -0.12344 0.32796 0.00855
v -0.12692 0.33721 0.00855
v -0.16894 0.32452 -0.00000
v -0.16651 0.31987 -0.00909
v -0.16166 0.31055 -0.00909
v -0.15924 0.30590 -0.00000
v -0.16166 0.31055 0.00909
v -0.16651 0.31987 0.00909
v -0.20692 0.30248 -0.00000
v -0.20378 0.29789 -0.00963
v -0.19750 0.28871 -0.00963
v -0.19436 0.28412 -0.00000
v -0.19750 0.28871 0.00963
v -0.20378 0.29789 0.00963
v -0.24205 0.27601 -0.00000
v -0.23818 0.27159 -0.01018
v -0.23043 0.26276 -0.01018
v -0.22656 0.25834 -0.00000
v -0.23043 0.26276 0.01018
v -0.23818 0.27159 0.01018
v -0.27382 0.24547 -0.00000
v -0.26921 0.24134 -0.01072
v -0.26000 0.23308 -0.01072
v -0.25539 0.22895 -0.00000
v -0.26000 0.23308 0.01072
v -0.26921 0.24134 0.01072
v -0.30174 0.21128 -0.00000
v -0.29642 0.20756 -0.01126
v -0.28577 0.20010 -0.01126
v -0.28045 0.19637 -0.00000
v -0.28577 0.20010 0.01126
v -0.29642 0.20756 0.01126
v -0.32432 0.17335 -0.00000
v -0.31886 0.17043 -0.01072
v -0.30794 0.16460 -0.01072
v -0.30249 0.16168 -0.00000
v -0.30794 0.16460 0.01072
v -0.31886 0.17043 0.01072
v -0.34215 0.13306 -0.00000
v -0.33668 0.13093 -0.01018
v -0.32573 0.12667 -0.01018
v -0.32025 0.12454 -0.00000
v -0.32573 0.12667 0.01018
v -0.33668 0.13093 0.01018
v -0.35501 0.09099 -0.00000
v -0.34963 0.08961 -0.00963
v -0.33885 0.08684 -0.00963
v -0.33346 0.08546 -0.00000
v -0.33885 0.08684 0.00963
v -0.34963 0.08961 0.00963
v -0.36273 0.04775 -0.00000
v -0.35753 0.04707 -0.00909
v -0.34712 0.04570 -0.00909
v -0.34191 0.04501 -0.00000
v -0.34712 0.04570 0.00909
v -0.35753 0.04707 0.00909
v -0.36522 0.00398 -0.00000
v -0.36028 0.00393 -0.00855
v -0.35040 0.00382 -0.00855
v -0.34547 0.00377 -0.00000
v -0.35040 0.00382 0.00855
v -0.36028 0.00393 0.00855
v -0.36245 -0.03969 -0.00000
v -0.35785 -0.03919 -0.00801
v -0.34865 -0.03818 -0.00801
v -0.34406 -0.03768 -0.00000
v -0.34865 -0.03818 0.00801
v -0.35785 -0.03919 0.00801
v -0.35448 -0.08265 -0.00000
v -0.35028 -0.08167 -0.00747
v -0.34188 -0.07972 -0.00747
v -0.33768 -0.07874 -0.00000
v -0.34188 -0.07972 0.00747
v -0.35028 -0.08167 0.00747
v -0.34160 -0.12382 -0.00000
v -0.33777 -0.12268 -0.00693
v -0.33010 -0.12040 -0.00693
v -0.32626 -0.11926 -0.00000
v -0.33010 -0.12040 0.00693
v -0.33777 -0.12268 0.00693
v 0.00000 0.35536 -0.00000
v -0.33393 -0.12154 -0.00000
v -0.00048 -0.34738 -0.00000
v -0.00024 -0.35137 0.00693
v 0.00024 -0.35936 0.00693
v 0.00048 -0.36335 -0.00000
v 0.00024 -0.35936 -0.00693
v -0.00024 -0.35137 -0.00693
v 0.04151 -0.34424 -0.00000
v 0.04202 -0.34853 0.00747
v 0.04305 -0.35709 0.00747
v 0.04357 -0.36137 -0.00000
v 0.04305 -0.35709 -0.00747
v 0.04202 -0.34853 -0.00747
v 0.08227 -0.33619 -0.00000
v 0.08337 -0.34069 0.00801
v 0.08556 -0.34967 0.00801
v 0.08666 -0.35416 -0.00000
v 0.08556 -0.34967 -0.00801
v 0.08337 -0.34069 -0.00801
v 0.12170 -0.32334 -0.00000
v 0.12344 -0.32796 0.00855
v 0.12692 -0.33721 0.00855
v 0.12865 -0.34183 -0.00000
v 0.12692 -0.33721 -0.00855
v 0.12344 -0.32796 -0.00855
v 0.15924 -0.30590 -0.00000
v 0.16166 -0.31055 0.00909
v 0.16651 -0.31987 0.00909
v 0.16894 -0.32452 -0.00000
v 0.16651 -0.31987 -0.00909
v 0.16166 -0.31055 -0.00909
v 0.19436 -0.28412 -0.00000
v 0.19750 -0.28871 0.00963
v 0.20378 -0.29789 0.00963
v 0.20692 -0.30248 -0.00000
v 0.20378 -0.29789 -0.00963
v 0.19750 -0.28871 -0.00963
v 0.22656 -0.25834 -0.00000
v 0.23043 -0.26276 0.01018
v 0.23818 -0.27159 0.01018
v 0.24205 -0.27601 -0.00000
v 0.23818 -0.27159 -0.01018
v 0.23043 -0.26276 -0.01018
v 0.25539 -0.22895 -0.00000
v 0.26000 -0.23308 0.01072
v 0.26921 -0.24134 0.01072
v 0.27382 -0.24547 -0.00000
v 0.26921 -0.24134 -0.01072
v 0.26000 -0.23308 -0.01072
v 0.28045 -0.19637 -0.00000
v 0.28577 -0.20010 0.01126
v 0.29642 -0.20756 0.01126
v 0.30174 -0.21128 -0.00000
v 0.29642 -0.20756 -0.01126
v 0.28577 -0.20010 -0.01126
v 0.30249 -0.16168 -0.00000
v 0.30794 -0.16460 0.01072
v 0.31886 -0.17043 0.01072
v 0.32432 -0.17335 -0.00000
v 0.31886 -0.17043 -0.01072
v 0.30794 -0.16460 -0.01072
v 0.32025 -0.12454 -0.00000
v 0.32573 -0.12667 0.01018
v 0.33668 -0.13093 0.01018
v 0.34215 -0.13306 -0.00000
v 0.33668 -0.13093 -0.01018
v 0.32573 -0.12667 -0.01018
v 0.33346 -0.08546 -0.00000
v 0.33885 -0.08684 0.00963
v 0.34963 -0.08961 0.00963
v 0.35501 -0.09099 -0.00000
v 0.34963 -0.08961 -0.00963
v 0.33885 -0.08684 -0.00963
v 0.34191 -0.04501 -0.00000
v 0.34712 -0.04570 0.00909
v 0.35753 -0.04707 0.00909
v 0.36273 -0.04775 -0.00000
v 0.35753 -0.04707 -0.00909
v 0.34712 -0.04570 -0.00909
v 0.34547 -0.00377 -0.00000
v 0.35040 -0.00382 0.00855
v 0.36028 -0.00393 0.00855
v 0.36522 -0.00398 -0.00000
v 0.36028 -0.00393 -0.00855
v 0.35040 -0.00382 -0.00855
v 0.34406 0.03768 -0.00000
v 0.34865 0.03818 0.00801
v 0.35785 0.03919 0.00801
v 0.36245 0.03969 -0.00000
v 0.35785 0.03919 -0.00801
v 0.34865 0.03818 -0.00801
v 0.33768 0.07874 -0.00000
v 0.34188 0.07972 0.00747
v 0.35028 0.08167 0.00747
v 0.35448 0.08265 -0.00000
v 0.35028 0.08167 -0.00747
v 0.34188 0.07972 -0.00747
v 0.32626 0.11926 -0.00000
v 0.33010 0.12040 0.00693
v 0.33777 0.12268 0.00693
v 0.34160 0.12382 -0.00000
v 0.33777 0.12268 -0.00693
v 0.33010 0.12040 -0.00693
v 0.00000 -0.35536 0.00000
v 0.33393 0.12154 0.00000
f 1 8 7
f 2 9 8
f 3 10 9
f 5 10 4
f 6 11 5
f 1 12 6
f 8 13 7
f 9 14 8
f 10 15 9
f 10 17 16
f 11 18 17
f 12 13 18
f 14 19 13
f 15 20 14
f 16 21 15
f 16 23 22
f 17 24 23
f 18 19 24
f 20 25 19
f 21 26 20
f 22 27 21
f 22 29 28
f 23 30 29
f 24 25 30
f 26 31 25
f 27 32 26
f 28 33 27
f 28 35 34
f 29 36 35
f 30 31 36
f 32 37 31
f 33 38 32
f 34 39 33
f 34 41 40
f 35 42 41
f 36 37 42
f 38 43 37
f 39 44 38
f 40 45 39
f 40 47 46
f 41 48 47
f 42 43 48
f 44 49 43
f 45 50 44
f 46 51 45
f 46 53 52
f 47 54 53
f 48 49 54
f 49 56 55
f 50 57 56
f 51 58 57
f 53 58 52
f 54 59 53
f 49 60 54
f 55 62 61
f 56 63 62
f 57 64 63
f 59 64 58
f 60 65 59
f 55 66 60
f 61 68 67
f 62 69 68
f 63 70 69
f 65 70 64
f 66 71 65
f 61 72 66
f 67 74 73
f 68 75 74
f 69 76 75
f 71 76 70
f 72 77 71
f 67 78 72
f 73 80 79
f 74 81 80
f 75 82 81
f 77 82 76
f 78 83 77
f 73 84 78
f 79 86 85
f 80 87 86
f 81 88 87
f 83 88 82
f 84 89 83
f 79 90 84
f 85 92 91
f 86 93 92
f 87 94 93
f 89 94 88
f 90 95 89
f 85 96 90
f 92 97 91
f 93 98 92
f 94 99 93
f 94 101 100
f 95 102 101
f 96 97 102
f 103 2 1
f 103 3 2
f 103 4 3
f 103 5 4
f 103 6 5
f 103 1 6
f 97 98 104
f 98 99 104
f 99 100 104
f 100 101 104
f 101 102 104
f 102 97 104
f 106 111 105
f 107 112 106
f 108 113 107
f 108 115 114
f 109 116 115
f 110 111 116
f 111 118 117
f 112 119 118
f 113 120 119
f 115 120 114
f 116 121 115
f 111 122 116
f 117 124 123
f 118 125 124
f 119 126 125
f 121 126 120
f 122 127 121
f 117 128 122
f 123 130 129
f 124 131 130
f 125 132 131
f 127 132 126
f 128 133 127
f 123 134 128
f 129 136 135
f 130 137 136
f 131 138 137
f 133 138 132
f 134 139 133
f 129 140 134
f 135 142 141
f 136 143 142
f 137 144 143
f 139 144 138
f 140 145 139
f 135 146 140
f 141 148 147
f 142 149 148
f 143 150 149
f 145 150 144
f 146 151 145
f 141 152 146
f 147 154 153
f 148 155 154
f 149 156 155
f 151 156 150
f 152 157 151
f 147 158 152
f 154 159 153
f 155 160 154
f 156 161 155
f 156 163 162
f 157 164 163
f 158 159 164
f 160 165 159
f 161 166 160
f 162 167 161
f 162 169 168
f 163 170 169
f 164 165 170
f 166 171 165
f 167 172 166
f 168 173 167
f 168 175 174
f 169 176 175
f 170 171 176
f 172 177 171
f 173 178 172
f 174 179 173
f 174 181 180
f 175 182 181
f 176 177 182
f 178 183 177
f 179 184 178
f 180 185 179
f 180 187 186
f 181 188 187
f 182 183 188
f 184 189 183
f 185 190 184
f 186 191 185
f 186 193 192
f 187 194 193
f 188 189 194
f 190 195 189
f 191 196 190
f 192 197 191
f 192 199 198
f 193 200 199
f 194 195 200
f 195 202 201
f 196 203 202
f 197 204 203
f 199 204 198
f 200 205 199
f 195 206 200
f 207 106 105
f 207 107 106
f 207 108 107
f 207 109 108
f 207 110 109
f 207 105 110
f 201 202 208
f 202 203 208
f 203 204 208
f 204 205 208
f 205 206 208
f 206 201 208
f 1 2 8
f 2 3 9
f 3 4 10
f 5 11 10
f 6 12 11
f 1 7 12
f 8 14 13
f 9 15 14
f 10 16 15
f 10 11 17
f 11 12 18
f 12 7 13
f 14 20 19
f 15 21 20
f 16 22 21
f 16 17 23
f 17 18 24
f 18 13 19
f 20 26 25
f 21 27 26
f 22 28 27
f 22 23 29
f 23 24 30
f 24 19 25
f 26 32 31
f 27 33 32
f 28 34 33
f 28 29 35
f 29 30 36
f 30 25 31
f 32 38 37
f 33 39 38
f 34 40 39
f 34 35 41
f 35 36 42
f 36 31 37
f 38 44 43
f 39 45 44
f 40 46 45
f 40 41 47
f 41 42 48
f 42 37 43
f 44 50 49
f 45 51 50
f 46 52 51
f 46 47 53
f 47 48 54
f 48 43 49
f 49 50 56
f 50 51 57
f 51 52 58
f 53 59 58
f 54 60 59
f 49 55 60
f 55 56 62
f 56 57 63
f 57 58 64
f 59 65 64
f 60 66 65
f 55 61 66
f 61 62 68
f 62 63 69
f 63 64 70
f 65 71 70
f 66 72 71
f 61 67 72
f 67 68 74
f 68 69 75
f 69 70 76
f 71 77 76
f 72 78 77
f 67 73 78
f 73 74 80
f 74 75 81
f 75 76 82
f 77 83 82
f 78 84 83
f 73 79 84
f 79 80 86
f 80 81 87
f 81 82 88
f 83 89 88
f 84 90 89
f 79 85 90
f 85 86 92
f 86 87 93
f 87 88 94
f 89 95 94
f 90 96 95
f 85 91 96
f 92 98 97
f 93 99 98
f 94 100 99
f 94 95 101
f 95 96 102
f 96 91 97
f 106 112 111
f 107 113 112
f 108 114 113
f 108 109 115
f 109 110 116
f 110 105 111
f 111 112 118
f 112 113 119
f 113 114 120
f 115 121 120
f 116 122 121
f 111 117 122
f 117 118 124
f 118 119 125
f 119 120 126
f 121 127 126
f 122 128 127
f 117 123 128
f 123 124 130
f 124 125 131
f 125 126 132
f 127 133 132
f 128 134 133
f 123 129 134
f 129 130 136
f 130 131 137
f 131 132 138
f 133 139 138
f 134 140 139
f 129 135 140
f 135 136 142
f 136 137 143
f 137 138 144
f 139 145 144
f 140 146 145
f 135 141 146
f 141 142 148
f 142 143 149
f 143 144 150
f 145 151 150
f 146 152 151
f 141 147 152
f 147 148 154
f 148 149 155
f 149 150 156
f 151 157 156
f 152 158 157
f 147 153 158
f 154 160 159
f 155 161 160
f 156 162 161
f 156 157 163
f 157 158 164
f 158 153 159
f 160 166 165
f 161 167 166
f 162 168 167
f 162 163 169
f 163 164 170
f 164 159 165
f 166 172 171
f 167 173 172
f 168 174 173
f 168 169 175
f 169 170 176
f 170 165 171
f 172 178 177
f 173 179 178
f 174 180 179
f 174 175 181
f 175 176 182
f 176 171 177
f 178 184 183
f 179 185 184
f 180 186 185
f 180 181 187
f 181 182 188
f 182 177 183
f 184 190 189
f 185 191 190
f 186 192 191
f 186 187 193
f 187 188 194
f 188 183 189
f 190 196 195
f 191 197 196
f 192 198 197
f 192 193 199
f 193 194 200
f 194 189 195
f 195 196 202
f 196 197 203
f 197 198 204
f 199 205 204
f 200 206 205
f 195 201 206
