# apex Claw1_Amber.obj: Roblox cue frame, recentred on its bounding box
v 0.04650 -0.06350 0.11650
v -0.04650 -0.06350 0.11650
v 0.04650 -0.07250 0.11409
v -0.04650 -0.07250 0.11409
v 0.04650 -0.07909 0.10750
v -0.04650 -0.07909 0.10750
v 0.04650 -0.08150 0.09850
v -0.04650 -0.08150 0.09850
v 0.04650 -0.07909 0.08950
v -0.04650 -0.07909 0.08950
v 0.04650 -0.07250 0.08291
v -0.04650 -0.07250 0.08291
v 0.04650 -0.06350 0.08050
v -0.04650 -0.06350 0.08050
v 0.04650 -0.05450 0.08291
v -0.04650 -0.05450 0.08291
v 0.04650 -0.04791 0.08950
v -0.04650 -0.04791 0.08950
v 0.04650 -0.04550 0.09850
v -0.04650 -0.04550 0.09850
v 0.04650 -0.04791 0.10750
v -0.04650 -0.04791 0.10750
v 0.04650 -0.05450 0.11409
v -0.04650 -0.05450 0.11409
v 0.04650 0.06650 -0.08650
v -0.04650 0.06650 -0.08650
v 0.04650 0.05900 -0.08851
v -0.04650 0.05900 -0.08851
v 0.04650 0.05351 -0.09400
v -0.04650 0.05351 -0.09400
v 0.04650 0.05150 -0.10150
v -0.04650 0.05150 -0.10150
v 0.04650 0.05351 -0.10900
v -0.04650 0.05351 -0.10900
v 0.04650 0.05900 -0.11449
v -0.04650 0.05900 -0.11449
v 0.04650 0.06650 -0.11650
v -0.04650 0.06650 -0.11650
v 0.04650 0.07400 -0.11449
v -0.04650 0.07400 -0.11449
v 0.04650 0.07949 -0.10900
v -0.04650 0.07949 -0.10900
v 0.04650 0.08150 -0.10150
v -0.04650 0.08150 -0.10150
v 0.04650 0.07949 -0.09400
v -0.04650 0.07949 -0.09400
v 0.04650 0.07400 -0.08851
v -0.04650 0.07400 -0.08851
f 2 3 1
f 4 5 3
f 30 31 29
f 6 7 5
f 7 10 9
f 36 37 35
f 10 11 9
f 28 29 27
f 12 13 11
f 14 15 13
f 34 35 33
f 16 17 15
f 26 27 25
f 17 20 19
f 20 21 19
f 22 14 6
f 22 23 21
f 38 39 37
f 31 34 33
f 24 1 23
f 7 11 15
f 40 41 39
f 42 43 41
f 43 46 45
f 32 28 44
f 46 47 45
f 48 25 47
f 25 29 37
f 2 4 3
f 4 6 5
f 30 32 31
f 6 8 7
f 7 8 10
f 36 38 37
f 10 12 11
f 28 30 29
f 12 14 13
f 14 16 15
f 34 36 35
f 16 18 17
f 26 28 27
f 17 18 20
f 20 22 21
f 6 4 2
f 2 24 6
f 24 22 6
f 22 20 18
f 18 16 22
f 16 14 22
f 14 12 6
f 12 10 6
f 10 8 6
f 22 24 23
f 38 40 39
f 31 32 34
f 24 2 1
f 23 1 3
f 3 5 7
f 7 9 11
f 11 13 15
f 15 17 19
f 19 21 15
f 21 23 15
f 23 3 15
f 3 7 15
f 40 42 41
f 42 44 43
f 43 44 46
f 36 34 32
f 32 30 28
f 28 26 44
f 26 48 44
f 48 46 44
f 44 42 40
f 40 38 44
f 38 36 44
f 36 32 44
f 46 48 47
f 48 26 25
f 37 39 41
f 41 43 37
f 43 45 37
f 45 47 25
f 25 27 29
f 29 31 37
f 31 33 37
f 33 35 37
f 45 25 37
