# apex Claw1_Gunmetal.obj: Roblox cue frame, recentred on its bounding box
v 0.04250 -0.06200 0.12892
v 0.03850 -0.06200 0.13300
v -0.04250 -0.06200 0.12892
v -0.03850 -0.06200 0.13300
v 0.04250 -0.07422 0.12649
v 0.03850 -0.07578 0.13026
v -0.04250 -0.07422 0.12649
v -0.03850 -0.07578 0.13026
v 0.04250 -0.08457 0.11957
v 0.03850 -0.08746 0.12246
v -0.04250 -0.08457 0.11957
v -0.03850 -0.08746 0.12246
v 0.04250 -0.09149 0.10922
v 0.03850 -0.09526 0.11078
v -0.04250 -0.09149 0.10922
v -0.03850 -0.09526 0.11078
v 0.04250 -0.09392 0.09700
v 0.03850 -0.09800 0.09700
v -0.04250 -0.09392 0.09700
v -0.03850 -0.09800 0.09700
v 0.04250 -0.09149 0.08478
v 0.03850 -0.09526 0.08322
v -0.04250 -0.09149 0.08478
v -0.03850 -0.09526 0.08322
v 0.04250 -0.08457 0.07443
v 0.03850 -0.08746 0.07154
v -0.04250 -0.08457 0.07443
v -0.03850 -0.08746 0.07154
v 0.04250 -0.07422 0.06751
v 0.03850 -0.07578 0.06374
v -0.04250 -0.07422 0.06751
v -0.03850 -0.07578 0.06374
v 0.04250 -0.06200 0.06508
v 0.03850 -0.06200 0.06100
v -0.04250 -0.06200 0.06508
v -0.03850 -0.06200 0.06100
v 0.04250 -0.04978 0.06751
v 0.03850 -0.04822 0.06374
v -0.04250 -0.04978 0.06751
v -0.03850 -0.04822 0.06374
v 0.04250 -0.03943 0.07443
v 0.03850 -0.03654 0.07154
v -0.04250 -0.03943 0.07443
v -0.03850 -0.03654 0.07154
v 0.04250 -0.03251 0.08478
v 0.03850 -0.02874 0.08322
v -0.04250 -0.03251 0.08478
v -0.03850 -0.02874 0.08322
v 0.04250 -0.03008 0.09700
v 0.03850 -0.02600 0.09700
v -0.04250 -0.03008 0.09700
v -0.03850 -0.02600 0.09700
v 0.04250 -0.03251 0.10922
v 0.03850 -0.02874 0.11078
v -0.04250 -0.03251 0.10922
v -0.03850 -0.02874 0.11078
v 0.04250 -0.03943 0.11957
v 0.03850 -0.03654 0.12246
v -0.04250 -0.03943 0.11957
v -0.03850 -0.03654 0.12246
v 0.04250 -0.04978 0.12649
v 0.03850 -0.04822 0.13026
v -0.04250 -0.04978 0.12649
v -0.03850 -0.04822 0.13026
v 0.04250 0.06800 -0.07708
v 0.03850 0.06800 -0.07300
v -0.04250 0.06800 -0.07708
v -0.03850 0.06800 -0.07300
v 0.04250 0.05808 -0.07905
v 0.03850 0.05652 -0.07528
v -0.04250 0.05808 -0.07905
v -0.03850 0.05652 -0.07528
v 0.04250 0.04967 -0.08467
v 0.03850 0.04679 -0.08179
v -0.04250 0.04967 -0.08467
v -0.03850 0.04679 -0.08179
v 0.03850 0.04028 -0.09152
v 0.04250 0.04405 -0.09308
v -0.04250 0.04405 -0.09308
v -0.03850 0.04028 -0.09152
v 0.04250 0.04208 -0.10300
v 0.03850 0.03800 -0.10300
v -0.04250 0.04208 -0.10300
v -0.03850 0.03800 -0.10300
v 0.04250 0.04405 -0.11292
v 0.03850 0.04028 -0.11448
v -0.04250 0.04405 -0.11292
v -0.03850 0.04028 -0.11448
v 0.04250 0.04967 -0.12133
v 0.03850 0.04679 -0.12421
v -0.04250 0.04967 -0.12133
v -0.03850 0.04679 -0.12421
v 0.04250 0.05808 -0.12695
v 0.03850 0.05652 -0.13072
v -0.04250 0.05808 -0.12695
v -0.03850 0.05652 -0.13072
v 0.04250 0.06800 -0.12892
v 0.03850 0.06800 -0.13300
v -0.04250 0.06800 -0.12892
v -0.03850 0.06800 -0.13300
v 0.04250 0.07792 -0.12695
v 0.03850 0.07948 -0.13072
v -0.04250 0.07792 -0.12695
v -0.03850 0.07948 -0.13072
v 0.04250 0.08633 -0.12133
v 0.03850 0.08921 -0.12421
v -0.04250 0.08633 -0.12133
v -0.03850 0.08921 -0.12421
v 0.04250 0.09195 -0.11292
v 0.03850 0.09572 -0.11448
v -0.04250 0.09195 -0.11292
v -0.03850 0.09572 -0.11448
v 0.04250 0.09392 -0.10300
v 0.03850 0.09800 -0.10300
v -0.04250 0.09392 -0.10300
v -0.03850 0.09800 -0.10300
v 0.04250 0.09195 -0.09308
v 0.03850 0.09572 -0.09152
v -0.04250 0.09195 -0.09308
v -0.03850 0.09572 -0.09152
v 0.04250 0.08633 -0.08467
v 0.03850 0.08921 -0.08179
v -0.04250 0.08633 -0.08467
v -0.03850 0.08921 -0.08179
v 0.04250 0.07792 -0.07905
v 0.03850 0.07948 -0.07528
v -0.04250 0.07792 -0.07905
v -0.03850 0.07948 -0.07528
v 0.02100 -0.05026 0.10463
v 0.02494 -0.04812 0.10125
v 0.02094 -0.04477 0.10343
v 0.02381 -0.04963 0.10364
v 0.02328 -0.04742 0.10446
v 0.02377 -0.04575 0.10279
v 0.02098 -0.04726 0.10518
v 0.01725 0.07747 -0.09684
v 0.01731 0.07869 -0.09128
v 0.02131 0.07533 -0.09346
v 0.01727 0.07922 -0.09431
v 0.01959 0.07851 -0.09415
v 0.02014 0.07770 -0.09192
v 0.02010 0.07685 -0.09585
v -0.02100 -0.05026 0.10463
v -0.02094 -0.04477 0.10343
v -0.02494 -0.04812 0.10125
v -0.02098 -0.04726 0.10518
v -0.02328 -0.04742 0.10446
v -0.02377 -0.04575 0.10279
v -0.02381 -0.04963 0.10364
v -0.01725 0.07747 -0.09684
v -0.02131 0.07533 -0.09346
v -0.01731 0.07869 -0.09128
v -0.02010 0.07685 -0.09585
v -0.01959 0.07851 -0.09415
v -0.02014 0.07770 -0.09192
v -0.01727 0.07922 -0.09431
v -0.02100 -0.07374 0.08937
v -0.02494 -0.07152 0.08604
v -0.02094 -0.07487 0.08386
v -0.02381 -0.07309 0.08840
v -0.02328 -0.07474 0.08671
v -0.02377 -0.07389 0.08450
v -0.02098 -0.07546 0.08685
v -0.01725 0.05853 -0.10916
v -0.01731 0.05295 -0.10801
v -0.02131 0.05631 -0.10583
v -0.01727 0.05550 -0.10972
v -0.01959 0.05565 -0.10901
v -0.02014 0.05394 -0.10737
v -0.02010 0.05788 -0.10818
v 0.02100 -0.07374 0.08937
v 0.02094 -0.07487 0.08386
v 0.02494 -0.07152 0.08604
v 0.02098 -0.07546 0.08685
v 0.02328 -0.07474 0.08671
v 0.02377 -0.07389 0.08450
v 0.02381 -0.07309 0.08840
v 0.01725 0.05853 -0.10916
v 0.02131 0.05631 -0.10583
v 0.01731 0.05295 -0.10801
v 0.02010 0.05788 -0.10818
v 0.01959 0.05565 -0.10901
v 0.02014 0.05394 -0.10737
v 0.01727 0.05550 -0.10972
f 92 87 91
f 2 5 1
f 74 78 73
f 4 7 8
f 90 85 86
f 6 9 5
f 8 11 12
f 14 9 10
f 16 11 15
f 14 17 13
f 72 75 76
f 16 19 20
f 88 83 87
f 22 17 18
f 24 19 23
f 26 21 22
f 70 73 69
f 24 27 28
f 86 81 82
f 30 25 26
f 32 27 31
f 34 29 30
f 36 31 35
f 34 37 33
f 36 39 40
f 84 79 83
f 42 37 38
f 68 71 72
f 40 43 44
f 46 41 42
f 48 43 47
f 82 78 77
f 46 49 45
f 48 51 52
f 54 49 50
f 66 69 65
f 56 51 55
f 58 53 54
f 60 55 59
f 76 79 80
f 58 61 57
f 64 59 63
f 2 61 62
f 4 63 3
f 94 89 90
f 92 95 96
f 98 93 94
f 100 95 99
f 98 101 97
f 100 103 104
f 106 101 102
f 104 107 108
f 110 105 106
f 112 107 111
f 110 113 109
f 112 115 116
f 118 113 114
f 120 115 119
f 122 117 118
f 124 119 123
f 126 121 122
f 124 127 128
f 66 125 126
f 68 127 67
f 13 29 45
f 4 6 2
f 64 2 62
f 19 11 43
f 8 10 6
f 12 14 10
f 16 18 14
f 20 22 18
f 24 26 22
f 28 30 26
f 32 34 30
f 36 38 34
f 40 42 38
f 44 46 42
f 48 50 46
f 52 54 50
f 56 58 54
f 60 62 58
f 128 66 126
f 68 70 66
f 93 101 69
f 115 107 91
f 72 74 70
f 76 77 74
f 80 82 77
f 84 86 82
f 88 90 86
f 92 94 90
f 96 98 94
f 100 102 98
f 104 106 102
f 108 110 106
f 112 114 110
f 116 118 114
f 120 122 118
f 124 126 122
f 92 88 87
f 2 6 5
f 74 77 78
f 4 3 7
f 90 89 85
f 6 10 9
f 8 7 11
f 14 13 9
f 16 12 11
f 14 18 17
f 72 71 75
f 16 15 19
f 88 84 83
f 22 21 17
f 24 20 19
f 26 25 21
f 70 74 73
f 24 23 27
f 86 85 81
f 30 29 25
f 32 28 27
f 34 33 29
f 36 32 31
f 34 38 37
f 36 35 39
f 84 80 79
f 42 41 37
f 68 67 71
f 40 39 43
f 46 45 41
f 48 44 43
f 82 81 78
f 46 50 49
f 48 47 51
f 54 53 49
f 66 70 69
f 56 52 51
f 58 57 53
f 60 56 55
f 76 75 79
f 58 62 61
f 64 60 59
f 2 1 61
f 4 64 63
f 94 93 89
f 92 91 95
f 98 97 93
f 100 96 95
f 98 102 101
f 100 99 103
f 106 105 101
f 104 103 107
f 110 109 105
f 112 108 107
f 110 114 113
f 112 111 115
f 118 117 113
f 120 116 115
f 122 121 117
f 124 120 119
f 126 125 121
f 124 123 127
f 66 65 125
f 68 128 127
f 61 1 13
f 1 5 13
f 5 9 13
f 13 17 29
f 17 21 29
f 21 25 29
f 29 33 45
f 33 37 45
f 37 41 45
f 45 49 61
f 49 53 61
f 53 57 61
f 61 13 45
f 4 8 6
f 64 4 2
f 11 7 3
f 3 63 59
f 59 55 51
f 51 47 43
f 43 39 35
f 35 31 27
f 27 23 19
f 19 15 11
f 11 3 59
f 59 51 11
f 51 43 11
f 43 35 27
f 27 19 43
f 8 12 10
f 12 16 14
f 16 20 18
f 20 24 22
f 24 28 26
f 28 32 30
f 32 36 34
f 36 40 38
f 40 44 42
f 44 48 46
f 48 52 50
f 52 56 54
f 56 60 58
f 60 64 62
f 128 68 66
f 68 72 70
f 101 105 109
f 109 113 101
f 113 117 101
f 117 121 125
f 125 65 69
f 69 73 78
f 78 81 69
f 81 85 69
f 85 89 93
f 93 97 101
f 117 125 101
f 125 69 101
f 85 93 69
f 91 87 83
f 83 79 75
f 75 71 123
f 71 67 123
f 67 127 123
f 123 119 115
f 115 111 107
f 107 103 91
f 103 99 91
f 99 95 91
f 91 83 123
f 83 75 123
f 123 115 91
f 72 76 74
f 76 80 77
f 80 84 82
f 84 88 86
f 88 92 90
f 92 96 94
f 96 100 98
f 100 104 102
f 104 108 106
f 108 112 110
f 112 116 114
f 116 120 118
f 120 124 122
f 124 128 126
f 129 133 135
f 130 133 132
f 131 133 134
f 136 140 142
f 137 140 139
f 138 140 141
f 143 147 149
f 144 147 146
f 145 147 148
f 150 154 156
f 151 154 153
f 152 154 155
f 157 161 163
f 158 161 160
f 159 161 162
f 164 168 170
f 165 168 167
f 166 168 169
f 171 175 177
f 172 175 174
f 173 175 176
f 178 182 184
f 179 182 181
f 180 182 183
f 144 135 131
f 146 129 135
f 137 156 152
f 139 150 156
f 130 141 134
f 141 131 134
f 145 155 151
f 155 144 152
f 158 149 145
f 149 157 143
f 151 170 166
f 170 150 164
f 159 169 165
f 169 158 166
f 172 163 159
f 163 171 157
f 165 184 180
f 167 178 184
f 173 183 179
f 183 172 180
f 173 132 177
f 132 171 177
f 138 181 142
f 181 136 142
f 143 171 129
f 137 144 131
f 173 138 130
f 150 178 164
f 151 158 145
f 159 180 172
f 129 132 133
f 130 134 133
f 131 135 133
f 136 139 140
f 137 141 140
f 138 142 140
f 143 146 147
f 144 148 147
f 145 149 147
f 150 153 154
f 151 155 154
f 152 156 154
f 157 160 161
f 158 162 161
f 159 163 161
f 164 167 168
f 165 169 168
f 166 170 168
f 171 174 175
f 172 176 175
f 173 177 175
f 178 181 182
f 179 183 182
f 180 184 182
f 144 146 135
f 146 143 129
f 137 139 156
f 139 136 150
f 130 138 141
f 141 137 131
f 145 148 155
f 155 148 144
f 158 160 149
f 149 160 157
f 151 153 170
f 170 153 150
f 159 162 169
f 169 162 158
f 172 174 163
f 163 174 171
f 165 167 184
f 167 164 178
f 173 176 183
f 183 176 172
f 173 130 132
f 132 129 171
f 138 179 181
f 181 178 136
f 143 157 171
f 137 152 144
f 173 179 138
f 150 136 178
f 151 166 158
f 159 165 180
