# apex Claw1_Armour.obj: Roblox cue frame, recentred on its bounding box
v 0.06120 -0.08460 0.15200
v 0.06970 -0.07982 0.14439
v 0.06068 -0.07226 0.14928
v 0.06742 -0.08320 0.14977
v 0.06618 -0.07822 0.15161
v 0.06705 -0.07448 0.14785
v 0.06105 -0.07786 0.15323
v 0.04154 0.10264 -0.14622
v 0.04203 0.10540 -0.13370
v 0.05105 0.09786 -0.13861
v 0.04168 0.10657 -0.14052
v 0.04695 0.10497 -0.14017
v 0.04840 0.10319 -0.13514
v 0.04806 0.10124 -0.14400
v -0.06120 -0.08460 0.15200
v -0.06068 -0.07226 0.14928
v -0.06970 -0.07982 0.14439
v -0.06105 -0.07786 0.15323
v -0.06618 -0.07822 0.15161
v -0.06705 -0.07448 0.14785
v -0.06742 -0.08320 0.14977
v -0.04154 0.10264 -0.14622
v -0.05105 0.09786 -0.13861
v -0.04203 0.10540 -0.13370
v -0.04806 0.10124 -0.14400
v -0.04695 0.10497 -0.14017
v -0.04840 0.10319 -0.13514
v -0.04168 0.10657 -0.14052
v -0.06120 -0.10271 0.14023
v -0.06970 -0.09769 0.13277
v -0.06068 -0.10523 0.12785
v -0.06742 -0.10124 0.13804
v -0.06618 -0.10494 0.13424
v -0.06705 -0.10302 0.12929
v -0.06105 -0.10657 0.13457
v -0.04154 0.09382 -0.15195
v -0.04203 0.08125 -0.14939
v -0.05105 0.08881 -0.14449
v -0.04168 0.08701 -0.15323
v -0.04695 0.08734 -0.15163
v -0.04840 0.08347 -0.14796
v -0.04806 0.09236 -0.14977
v 0.06120 -0.10271 0.14023
v 0.06068 -0.10523 0.12785
v 0.06970 -0.09769 0.13277
v 0.06105 -0.10657 0.13457
v 0.06618 -0.10494 0.13424
v 0.06705 -0.10302 0.12929
v 0.06742 -0.10124 0.13804
v 0.04154 0.09382 -0.15195
v 0.05105 0.08881 -0.14449
v 0.04203 0.08125 -0.14939
v 0.04806 0.09236 -0.14977
v 0.04695 0.08734 -0.15163
v 0.04840 0.08347 -0.14796
v 0.04168 0.08701 -0.15323
f 1 5 7
f 2 5 4
f 3 5 6
f 8 12 14
f 9 12 11
f 10 12 13
f 15 19 21
f 16 19 18
f 17 19 20
f 22 26 28
f 23 26 25
f 24 26 27
f 29 33 35
f 30 33 32
f 31 33 34
f 36 40 42
f 37 40 39
f 38 40 41
f 43 47 49
f 44 47 46
f 45 47 48
f 50 54 56
f 51 54 53
f 52 54 55
f 3 18 7
f 18 1 7
f 24 11 28
f 28 8 22
f 10 6 2
f 13 3 6
f 23 20 27
f 27 16 24
f 17 32 21
f 32 15 21
f 38 25 42
f 25 36 42
f 31 41 37
f 34 38 41
f 31 46 35
f 35 43 29
f 37 56 52
f 39 50 56
f 51 48 55
f 55 44 52
f 2 49 45
f 4 43 49
f 10 53 14
f 53 8 14
f 15 43 1
f 9 16 3
f 51 2 45
f 8 36 22
f 17 38 30
f 37 44 31
f 1 4 5
f 2 6 5
f 3 7 5
f 8 11 12
f 9 13 12
f 10 14 12
f 15 18 19
f 16 20 19
f 17 21 19
f 22 25 26
f 23 27 26
f 24 28 26
f 29 32 33
f 30 34 33
f 31 35 33
f 36 39 40
f 37 41 40
f 38 42 40
f 43 46 47
f 44 48 47
f 45 49 47
f 50 53 54
f 51 55 54
f 52 56 54
f 3 16 18
f 18 15 1
f 24 9 11
f 28 11 8
f 10 13 6
f 13 9 3
f 23 17 20
f 27 20 16
f 17 30 32
f 32 29 15
f 38 23 25
f 25 22 36
f 31 34 41
f 34 30 38
f 31 44 46
f 35 46 43
f 37 39 56
f 39 36 50
f 51 45 48
f 55 48 44
f 2 4 49
f 4 1 43
f 10 51 53
f 53 50 8
f 15 29 43
f 9 24 16
f 51 10 2
f 8 50 36
f 17 23 38
f 37 52 44
