# apex Claw2_Gunmetal.obj: Roblox cue frame, recentred on its bounding box
v 0.05191 0.10849 0.20628
v 0.05511 0.10295 0.21280
v 0.11991 -0.00929 0.20628
v 0.11671 -0.00375 0.21280
v 0.06884 0.11826 0.20239
v 0.07420 0.11397 0.20842
v 0.13684 0.00048 0.20239
v 0.13580 0.00727 0.20842
v 0.08319 0.12655 0.19132
v 0.09038 0.12331 0.19593
v 0.15119 0.00877 0.19132
v 0.15198 0.01662 0.19593
v 0.09277 0.13208 0.17475
v 0.10120 0.12955 0.17724
v 0.16077 0.01430 0.17475
v 0.16280 0.02286 0.17724
v 0.09614 0.13403 0.15520
v 0.10499 0.13175 0.15520
v 0.16414 0.01625 0.15520
v 0.16659 0.02505 0.15520
v 0.09277 0.13208 0.13565
v 0.10120 0.12955 0.13316
v 0.16077 0.01430 0.13565
v 0.16280 0.02286 0.13316
v 0.08319 0.12655 0.11909
v 0.09038 0.12331 0.11447
v 0.15119 0.00877 0.11908
v 0.15198 0.01662 0.11447
v 0.06884 0.11826 0.10801
v 0.07420 0.11397 0.10198
v 0.13684 0.00048 0.10801
v 0.13580 0.00727 0.10198
v 0.05191 0.10849 0.10413
v 0.05511 0.10295 0.09760
v 0.11991 -0.00929 0.10413
v 0.11671 -0.00375 0.09760
v 0.03498 0.09872 0.10801
v 0.03602 0.09193 0.10198
v 0.10298 -0.01906 0.10801
v 0.09762 -0.01477 0.10198
v 0.02063 0.09043 0.11909
v 0.01984 0.08258 0.11447
v 0.08863 -0.02735 0.11909
v 0.08144 -0.02411 0.11447
v 0.01104 0.08490 0.13565
v 0.00902 0.07634 0.13316
v 0.07904 -0.03288 0.13565
v 0.07062 -0.03035 0.13316
v 0.00768 0.08295 0.15520
v 0.00523 0.07415 0.15520
v 0.07568 -0.03483 0.15520
v 0.06683 -0.03255 0.15520
v 0.01104 0.08490 0.17475
v 0.00902 0.07634 0.17724
v 0.07904 -0.03288 0.17475
v 0.07062 -0.03035 0.17724
v 0.02063 0.09043 0.19132
v 0.01984 0.08258 0.19593
v 0.08863 -0.02735 0.19132
v 0.08144 -0.02411 0.19593
v 0.03498 0.09872 0.20239
v 0.03602 0.09193 0.20842
v 0.10298 -0.01906 0.20239
v 0.09762 -0.01477 0.20842
v -0.12822 0.00449 -0.12332
v -0.12502 -0.00105 -0.11680
v -0.06022 -0.11329 -0.12332
v -0.06342 -0.10775 -0.11680
v -0.11448 0.01243 -0.12648
v -0.10912 0.00813 -0.12045
v -0.04648 -0.10535 -0.12648
v -0.04752 -0.09856 -0.12045
v -0.10283 0.01915 -0.13547
v -0.09563 0.01592 -0.13086
v -0.03483 -0.09863 -0.13547
v -0.03403 -0.09078 -0.13086
v -0.08662 0.02112 -0.14643
v -0.09504 0.02365 -0.14893
v -0.02704 -0.09413 -0.14893
v -0.02502 -0.08557 -0.14643
v -0.09231 0.02523 -0.16480
v -0.08345 0.02295 -0.16480
v -0.02431 -0.09255 -0.16480
v -0.02185 -0.08375 -0.16480
v -0.09504 0.02365 -0.18067
v -0.08662 0.02112 -0.18317
v -0.02704 -0.09413 -0.18067
v -0.02502 -0.08557 -0.18317
v -0.10283 0.01915 -0.19413
v -0.09563 0.01592 -0.19874
v -0.03483 -0.09863 -0.19413
v -0.03403 -0.09078 -0.19874
v -0.11448 0.01243 -0.20312
v -0.10912 0.00813 -0.20915
v -0.04648 -0.10535 -0.20312
v -0.04752 -0.09856 -0.20915
v -0.12822 0.00449 -0.20627
v -0.12502 -0.00105 -0.21280
v -0.06022 -0.11329 -0.20627
v -0.06342 -0.10775 -0.21280
v -0.14197 -0.00345 -0.20312
v -0.14093 -0.01024 -0.20915
v -0.07397 -0.12123 -0.20312
v -0.07933 -0.11693 -0.20915
v -0.15362 -0.01017 -0.19413
v -0.15442 -0.01802 -0.19874
v -0.08562 -0.12795 -0.19413
v -0.09282 -0.12472 -0.19874
v -0.16141 -0.01467 -0.18067
v -0.16343 -0.02323 -0.18317
v -0.09341 -0.13245 -0.18067
v -0.10183 -0.12992 -0.18317
v -0.16414 -0.01625 -0.16480
v -0.16659 -0.02505 -0.16480
v -0.09614 -0.13403 -0.16480
v -0.10499 -0.13175 -0.16480
v -0.16141 -0.01467 -0.14893
v -0.16343 -0.02323 -0.14643
v -0.09341 -0.13245 -0.14893
v -0.10183 -0.12992 -0.14643
v -0.15362 -0.01017 -0.13547
v -0.15442 -0.01802 -0.13086
v -0.08562 -0.12795 -0.13547
v -0.09282 -0.12472 -0.13086
v -0.14197 -0.00345 -0.12648
v -0.14093 -0.01024 -0.12045
v -0.07397 -0.12123 -0.12648
v -0.07933 -0.11693 -0.12045
v 0.05284 0.06931 0.16741
v 0.04673 0.07305 0.16200
v 0.04528 0.06482 0.16549
v 0.04973 0.07270 0.16583
v 0.04708 0.07020 0.16714
v 0.04438 0.06953 0.16447
v 0.04870 0.06688 0.16829
v -0.12115 -0.03808 -0.15495
v -0.12288 -0.03896 -0.14605
v -0.12143 -0.03073 -0.14954
v -0.12358 -0.03945 -0.15090
v -0.12445 -0.03567 -0.15065
v -0.12378 -0.03425 -0.14707
v -0.12256 -0.03363 -0.15336
v 0.08644 0.01111 0.16741
v 0.07878 0.00680 0.16549
v 0.08663 0.00394 0.16200
v 0.08227 0.00874 0.16829
v 0.08433 0.00567 0.16714
v 0.08240 0.00367 0.16447
v 0.08782 0.00672 0.16583
v -0.09355 -0.08588 -0.15495
v -0.08733 -0.08980 -0.14954
v -0.09518 -0.08694 -0.14605
v -0.09040 -0.08932 -0.15336
v -0.09311 -0.08994 -0.15065
v -0.09156 -0.09007 -0.14707
v -0.09595 -0.08730 -0.15090
v 0.11897 0.02989 0.14299
v 0.11905 0.02266 0.13767
v 0.12050 0.03089 0.13418
v 0.12032 0.02548 0.14143
v 0.12219 0.02753 0.13873
v 0.12140 0.02618 0.13520
v 0.12135 0.03130 0.13897
v -0.06730 -0.07072 -0.17465
v -0.05953 -0.06635 -0.17281
v -0.06097 -0.07458 -0.16933
v -0.06309 -0.06833 -0.17556
v -0.06145 -0.07166 -0.17442
v -0.05862 -0.07106 -0.17179
v -0.06412 -0.07415 -0.17309
v 0.08537 0.08809 0.14299
v 0.08700 0.08891 0.13418
v 0.07915 0.09177 0.13767
v 0.08778 0.08944 0.13897
v 0.08493 0.09205 0.13873
v 0.08338 0.09204 0.13520
v 0.08223 0.09146 0.14143
v -0.09490 -0.02292 -0.17465
v -0.09507 -0.01551 -0.16933
v -0.08723 -0.01837 -0.17281
v -0.09627 -0.01845 -0.17309
v -0.09278 -0.01738 -0.17442
v -0.09085 -0.01524 -0.17179
v -0.09072 -0.02048 -0.17556
f 88 91 92
f 2 5 1
f 74 78 73
f 4 7 8
f 86 89 85
f 10 5 6
f 12 7 11
f 10 13 9
f 12 15 16
f 14 17 13
f 72 75 76
f 16 19 20
f 88 83 87
f 22 17 18
f 24 19 23
f 26 21 22
f 70 73 69
f 28 23 27
f 86 81 82
f 30 25 26
f 32 27 31
f 34 29 30
f 36 31 35
f 34 37 33
f 36 39 40
f 80 83 84
f 42 37 38
f 68 71 72
f 40 43 44
f 42 45 41
f 48 43 47
f 77 81 78
f 50 45 46
f 48 51 52
f 54 49 50
f 66 69 65
f 56 51 55
f 58 53 54
f 60 55 59
f 76 79 80
f 58 61 57
f 60 63 64
f 2 61 62
f 4 63 3
f 90 93 89
f 96 91 95
f 98 93 94
f 100 95 99
f 98 101 97
f 100 103 104
f 102 105 101
f 104 107 108
f 110 105 106
f 112 107 111
f 110 113 109
f 116 111 115
f 118 113 114
f 120 115 119
f 122 117 118
f 124 119 123
f 126 121 122
f 128 123 127
f 66 125 126
f 68 127 67
f 13 29 45
f 2 8 6
f 62 4 2
f 19 11 43
f 8 10 6
f 10 16 14
f 16 18 14
f 20 22 18
f 22 28 26
f 28 30 26
f 32 34 30
f 36 38 34
f 40 42 38
f 42 48 46
f 48 50 46
f 52 54 50
f 56 58 54
f 60 62 58
f 126 68 66
f 66 72 70
f 93 101 69
f 123 107 91
f 72 74 70
f 76 77 74
f 77 84 82
f 82 88 86
f 88 90 86
f 90 96 94
f 96 98 94
f 100 102 98
f 102 108 106
f 106 112 110
f 112 114 110
f 116 118 114
f 118 124 122
f 124 126 122
f 88 87 91
f 2 6 5
f 74 77 78
f 4 3 7
f 86 90 89
f 10 9 5
f 12 8 7
f 10 14 13
f 12 11 15
f 14 18 17
f 72 71 75
f 16 15 19
f 88 84 83
f 22 21 17
f 24 20 19
f 26 25 21
f 70 74 73
f 28 24 23
f 86 85 81
f 30 29 25
f 32 28 27
f 34 33 29
f 36 32 31
f 34 38 37
f 36 35 39
f 80 79 83
f 42 41 37
f 68 67 71
f 40 39 43
f 42 46 45
f 48 44 43
f 77 82 81
f 50 49 45
f 48 47 51
f 54 53 49
f 66 70 69
f 56 52 51
f 58 57 53
f 60 56 55
f 76 75 79
f 58 62 61
f 60 59 63
f 2 1 61
f 4 64 63
f 90 94 93
f 96 92 91
f 98 97 93
f 100 96 95
f 98 102 101
f 100 99 103
f 102 106 105
f 104 103 107
f 110 109 105
f 112 108 107
f 110 114 113
f 116 112 111
f 118 117 113
f 120 116 115
f 122 121 117
f 124 120 119
f 126 125 121
f 128 124 123
f 66 65 125
f 68 128 127
f 61 1 5
f 5 9 61
f 9 13 61
f 13 17 21
f 21 25 13
f 25 29 13
f 29 33 37
f 37 41 29
f 41 45 29
f 45 49 53
f 53 57 45
f 57 61 45
f 61 13 45
f 2 4 8
f 62 64 4
f 11 7 3
f 3 63 59
f 59 55 51
f 51 47 43
f 43 39 35
f 35 31 27
f 27 23 19
f 19 15 11
f 11 3 59
f 59 51 11
f 51 43 11
f 43 35 27
f 27 19 43
f 8 12 10
f 10 12 16
f 16 20 18
f 20 24 22
f 22 24 28
f 28 32 30
f 32 36 34
f 36 40 38
f 40 44 42
f 42 44 48
f 48 52 50
f 52 56 54
f 56 60 58
f 60 64 62
f 126 128 68
f 66 68 72
f 101 105 109
f 109 113 101
f 113 117 101
f 117 121 125
f 125 65 69
f 69 73 78
f 78 81 69
f 81 85 69
f 85 89 93
f 93 97 101
f 117 125 101
f 125 69 101
f 85 93 69
f 91 87 75
f 87 83 75
f 83 79 75
f 75 71 67
f 67 127 123
f 123 119 107
f 119 115 107
f 115 111 107
f 107 103 91
f 103 99 91
f 99 95 91
f 75 67 91
f 67 123 91
f 72 76 74
f 76 80 77
f 77 80 84
f 82 84 88
f 88 92 90
f 90 92 96
f 96 100 98
f 100 104 102
f 102 104 108
f 106 108 112
f 112 116 114
f 116 120 118
f 118 120 124
f 124 128 126
f 129 133 135
f 130 133 132
f 131 133 134
f 136 140 142
f 137 140 139
f 138 140 141
f 143 147 149
f 144 147 146
f 145 147 148
f 150 154 156
f 151 154 153
f 152 154 155
f 157 161 163
f 158 161 160
f 159 161 162
f 164 168 170
f 165 168 167
f 166 168 169
f 171 175 177
f 172 175 174
f 173 175 176
f 178 182 184
f 179 182 181
f 180 182 183
f 144 135 131
f 146 129 135
f 152 139 156
f 156 136 150
f 130 141 134
f 141 131 134
f 145 155 151
f 155 144 152
f 158 149 145
f 149 157 143
f 166 153 170
f 170 150 164
f 159 169 165
f 169 158 166
f 172 163 159
f 163 171 157
f 165 184 180
f 167 178 184
f 173 183 179
f 183 172 180
f 130 177 173
f 177 129 171
f 138 181 142
f 142 178 136
f 129 157 171
f 137 144 131
f 179 130 173
f 136 164 150
f 151 158 145
f 159 180 172
f 129 132 133
f 130 134 133
f 131 135 133
f 136 139 140
f 137 141 140
f 138 142 140
f 143 146 147
f 144 148 147
f 145 149 147
f 150 153 154
f 151 155 154
f 152 156 154
f 157 160 161
f 158 162 161
f 159 163 161
f 164 167 168
f 165 169 168
f 166 170 168
f 171 174 175
f 172 176 175
f 173 177 175
f 178 181 182
f 179 183 182
f 180 184 182
f 144 146 135
f 146 143 129
f 152 137 139
f 156 139 136
f 130 138 141
f 141 137 131
f 145 148 155
f 155 148 144
f 158 160 149
f 149 160 157
f 166 151 153
f 170 153 150
f 159 162 169
f 169 162 158
f 172 174 163
f 163 174 171
f 165 167 184
f 167 164 178
f 173 176 183
f 183 176 172
f 130 132 177
f 177 132 129
f 138 179 181
f 142 181 178
f 129 143 157
f 137 152 144
f 179 138 130
f 136 178 164
f 151 166 158
f 159 165 180
