# apex Claw2_Armour.obj: Roblox cue frame, recentred on its bounding box
v 0.03787 0.08716 0.15200
v 0.02948 0.09213 0.14439
v 0.02745 0.08055 0.14928
v 0.03355 0.09185 0.14977
v 0.02985 0.08829 0.15161
v 0.02618 0.08717 0.14785
v 0.03211 0.08366 0.15323
v -0.11445 -0.02348 -0.14622
v -0.11709 -0.02443 -0.13370
v -0.11506 -0.01286 -0.13861
v -0.11793 -0.02532 -0.14052
v -0.11918 -0.01996 -0.14017
v -0.11836 -0.01781 -0.13514
v -0.11650 -0.01714 -0.14400
v 0.09907 -0.01884 0.15200
v 0.08813 -0.02456 0.14928
v 0.09918 -0.02859 0.14439
v 0.09315 -0.02207 0.15323
v 0.09603 -0.02634 0.15161
v 0.09323 -0.02897 0.14785
v 0.10097 -0.02492 0.14977
v -0.07291 -0.09543 -0.14622
v -0.06402 -0.10127 -0.13861
v -0.07505 -0.09724 -0.13370
v -0.06844 -0.10037 -0.14400
v -0.07223 -0.10128 -0.14017
v -0.06996 -0.10165 -0.13514
v -0.07624 -0.09752 -0.14052
v 0.11475 -0.00978 0.14023
v 0.11466 -0.01965 0.13277
v 0.11668 -0.00808 0.12785
v 0.11659 -0.01590 0.13804
v 0.11918 -0.01298 0.13424
v 0.11795 -0.01470 0.12929
v 0.11802 -0.00772 0.13457
v -0.06528 -0.09103 -0.15195
v -0.05415 -0.08516 -0.14939
v -0.05618 -0.09675 -0.14449
v -0.05931 -0.08774 -0.15323
v -0.05696 -0.09247 -0.15163
v -0.05288 -0.09179 -0.14796
v -0.06075 -0.09593 -0.14977
v 0.05355 0.09622 0.14023
v 0.05599 0.09703 0.12785
v 0.04496 0.10107 0.13277
v 0.05697 0.09802 0.13457
v 0.05300 0.10165 0.13424
v 0.05090 0.10145 0.12929
v 0.04917 0.10087 0.13804
v -0.10682 -0.01907 -0.15195
v -0.10723 -0.00833 -0.14449
v -0.09618 -0.01236 -0.14939
v -0.10881 -0.01269 -0.14977
v -0.10391 -0.01115 -0.15163
v -0.10128 -0.00795 -0.14796
v -0.10099 -0.01554 -0.15323
f 1 5 7
f 2 5 4
f 3 5 6
f 8 12 14
f 9 12 11
f 10 12 13
f 15 19 21
f 16 19 18
f 17 19 20
f 22 26 28
f 23 26 25
f 24 26 27
f 29 33 35
f 30 33 32
f 31 33 34
f 36 40 42
f 37 40 39
f 38 40 41
f 43 47 49
f 44 47 46
f 45 47 48
f 50 54 56
f 51 54 53
f 52 54 55
f 3 18 7
f 18 1 7
f 24 11 28
f 28 8 22
f 10 6 2
f 13 3 6
f 23 20 27
f 27 16 24
f 17 32 21
f 32 15 21
f 23 42 38
f 25 36 42
f 31 41 37
f 34 38 41
f 31 46 35
f 35 43 29
f 37 56 52
f 56 36 50
f 51 48 55
f 55 44 52
f 2 49 45
f 49 1 43
f 51 14 10
f 53 8 14
f 15 43 1
f 3 24 16
f 51 2 45
f 22 50 36
f 17 38 30
f 37 44 31
f 1 4 5
f 2 6 5
f 3 7 5
f 8 11 12
f 9 13 12
f 10 14 12
f 15 18 19
f 16 20 19
f 17 21 19
f 22 25 26
f 23 27 26
f 24 28 26
f 29 32 33
f 30 34 33
f 31 35 33
f 36 39 40
f 37 41 40
f 38 42 40
f 43 46 47
f 44 48 47
f 45 49 47
f 50 53 54
f 51 55 54
f 52 56 54
f 3 16 18
f 18 15 1
f 24 9 11
f 28 11 8
f 10 13 6
f 13 9 3
f 23 17 20
f 27 20 16
f 17 30 32
f 32 29 15
f 23 25 42
f 25 22 36
f 31 34 41
f 34 30 38
f 31 44 46
f 35 46 43
f 37 39 56
f 56 39 36
f 51 45 48
f 55 48 44
f 2 4 49
f 49 4 1
f 51 53 14
f 53 50 8
f 15 29 43
f 3 9 24
f 51 10 2
f 22 8 50
f 17 23 38
f 37 52 44
