# apex Claw3_Amber.obj: Roblox cue frame, recentred on its bounding box
v -0.14084 -0.01534 0.20970
v -0.05714 0.12964 0.20970
v -0.15487 -0.00724 0.20536
v -0.07117 0.13774 0.20536
v -0.16514 -0.00131 0.19350
v -0.08144 0.14367 0.19350
v -0.16890 0.00086 0.17730
v -0.08520 0.14584 0.17730
v -0.16514 -0.00131 0.16110
v -0.08144 0.14367 0.16110
v -0.15487 -0.00724 0.14924
v -0.07117 0.13774 0.14924
v -0.14084 -0.01534 0.14490
v -0.05714 0.12964 0.14490
v -0.12681 -0.02344 0.14924
v -0.04311 0.12154 0.14924
v -0.11654 -0.02937 0.16110
v -0.03284 0.11561 0.16110
v -0.11278 -0.03154 0.17730
v -0.02908 0.11344 0.17730
v -0.11654 -0.02937 0.19350
v -0.03284 0.11561 0.19350
v -0.12681 -0.02344 0.20536
v -0.04311 0.12154 0.20536
v 0.06181 -0.13234 -0.15570
v 0.14551 0.01264 -0.15570
v 0.05012 -0.12559 -0.15932
v 0.13382 0.01939 -0.15932
v 0.04156 -0.12064 -0.16920
v 0.12526 0.02433 -0.16920
v 0.03843 -0.11884 -0.18270
v 0.12213 0.02614 -0.18270
v 0.04156 -0.12064 -0.19620
v 0.12526 0.02433 -0.19620
v 0.05012 -0.12559 -0.20608
v 0.13382 0.01939 -0.20608
v 0.06181 -0.13234 -0.20970
v 0.14551 0.01264 -0.20970
v 0.07350 -0.13909 -0.20608
v 0.15720 0.00589 -0.20608
v 0.08206 -0.14403 -0.19620
v 0.16576 0.00095 -0.19620
v 0.08520 -0.14584 -0.18270
v 0.16890 -0.00086 -0.18270
v 0.08206 -0.14403 -0.16920
v 0.16576 0.00095 -0.16920
v 0.07350 -0.13909 -0.15932
v 0.15720 0.00589 -0.15932
f 2 3 1
f 3 6 5
f 29 32 31
f 6 7 5
f 8 9 7
f 36 37 35
f 10 11 9
f 28 29 27
f 11 14 13
f 14 15 13
f 33 36 35
f 15 18 17
f 25 28 27
f 17 20 19
f 19 22 21
f 22 14 6
f 22 23 21
f 38 39 37
f 32 33 31
f 24 1 23
f 11 15 23
f 39 42 41
f 41 44 43
f 43 46 45
f 32 28 44
f 46 47 45
f 48 25 47
f 25 29 37
f 2 4 3
f 3 4 6
f 29 30 32
f 6 8 7
f 8 10 9
f 36 38 37
f 10 12 11
f 28 30 29
f 11 12 14
f 14 16 15
f 33 34 36
f 15 16 18
f 25 26 28
f 17 18 20
f 19 20 22
f 6 4 22
f 4 2 22
f 2 24 22
f 22 20 18
f 18 16 22
f 16 14 22
f 14 12 6
f 12 10 6
f 10 8 6
f 22 24 23
f 38 40 39
f 32 34 33
f 24 2 1
f 23 1 3
f 3 5 23
f 5 7 23
f 7 9 11
f 11 13 15
f 15 17 19
f 19 21 15
f 21 23 15
f 7 11 23
f 39 40 42
f 41 42 44
f 43 44 46
f 36 34 32
f 32 30 28
f 28 26 44
f 26 48 44
f 48 46 44
f 44 42 40
f 40 38 44
f 38 36 44
f 36 32 44
f 46 48 47
f 48 26 25
f 37 39 41
f 41 43 37
f 43 45 37
f 45 47 25
f 25 27 29
f 29 31 37
f 31 33 37
f 33 35 37
f 45 25 37
