# apex Housing_Armour.obj: Roblox cue frame, recentred on its bounding box
v -0.06944 0.10221 0.01636
v -0.08235 0.09146 0.01637
v -0.09363 0.07901 0.01637
v -0.10303 0.06509 0.01637
v -0.11038 0.04999 0.01637
v -0.11553 0.03400 0.01637
v -0.11838 0.01744 0.01636
v -0.06339 0.10707 -0.01698
v -0.07901 0.09544 -0.01697
v -0.09253 0.08144 -0.01697
v -0.10361 0.06542 -0.01697
v -0.11194 0.04783 -0.01697
v -0.11730 0.02911 -0.01697
v -0.11956 0.00978 -0.01698
v -0.06004 0.10986 -0.05034
v -0.07726 0.09782 -0.05034
v -0.09213 0.08297 -0.05034
v -0.10419 0.06576 -0.05034
v -0.11306 0.04671 -0.05034
v -0.11849 0.02641 -0.05034
v -0.12030 0.00547 -0.05034
v -0.06410 0.10820 -0.08371
v -0.07989 0.09644 -0.08371
v -0.09357 0.08228 -0.08371
v -0.10476 0.06609 -0.08371
v -0.11319 0.04830 -0.08371
v -0.11861 0.02938 -0.08371
v -0.12090 0.00982 -0.08371
v -0.07100 0.10437 -0.11666
v -0.08420 0.09339 -0.11667
v -0.09572 0.08065 -0.11668
v -0.10534 0.06642 -0.11668
v -0.11285 0.05098 -0.11668
v -0.11812 0.03463 -0.11667
v -0.12103 0.01771 -0.11666
v -0.08377 0.07843 0.11744
v -0.09613 0.06111 0.11744
v -0.10495 0.04174 0.11744
v -0.04894 -0.10283 0.01636
v -0.03318 -0.10864 0.01637
v -0.01676 -0.11218 0.01637
v -0.00000 -0.11336 0.01637
v 0.01676 -0.11218 0.01637
v 0.03318 -0.10864 0.01637
v 0.04894 -0.10283 0.01636
v -0.05617 -0.10002 -0.01698
v -0.03829 -0.10774 -0.01697
v -0.01940 -0.11245 -0.01697
v -0.00000 -0.11403 -0.01697
v 0.01940 -0.11245 -0.01697
v 0.03829 -0.10774 -0.01697
v 0.05617 -0.10002 -0.01698
v -0.06027 -0.09851 -0.05034
v -0.04123 -0.10741 -0.05034
v -0.02093 -0.11286 -0.05034
v -0.00000 -0.11470 -0.05034
v 0.02093 -0.11286 -0.05034
v 0.04123 -0.10741 -0.05034
v 0.06027 -0.09851 -0.05034
v -0.05680 -0.10120 -0.08371
v -0.03872 -0.10900 -0.08371
v -0.01962 -0.11376 -0.08371
v -0.00000 -0.11536 -0.08371
v 0.01962 -0.11376 -0.08371
v 0.03872 -0.10900 -0.08371
v 0.05680 -0.10120 -0.08371
v -0.05003 -0.10526 -0.11666
v -0.03392 -0.11120 -0.11667
v -0.01713 -0.11481 -0.11668
v -0.00000 -0.11603 -0.11668
v 0.01713 -0.11481 -0.11668
v 0.03392 -0.11120 -0.11667
v 0.05003 -0.10526 -0.11666
v -0.02118 -0.10335 0.11744
v -0.00000 -0.10539 0.11744
v 0.02118 -0.10335 0.11744
v 0.11838 0.01744 0.01636
v 0.11553 0.03400 0.01637
v 0.11038 0.04999 0.01637
v 0.10303 0.06509 0.01637
v 0.09363 0.07901 0.01637
v 0.08235 0.09146 0.01637
v 0.06944 0.10221 0.01636
v 0.11956 0.00978 -0.01698
v 0.11730 0.02911 -0.01697
v 0.11194 0.04783 -0.01697
v 0.10361 0.06542 -0.01697
v 0.09253 0.08144 -0.01697
v 0.07901 0.09544 -0.01697
v 0.06339 0.10707 -0.01698
v 0.12030 0.00547 -0.05034
v 0.11849 0.02641 -0.05034
v 0.11306 0.04671 -0.05034
v 0.10419 0.06576 -0.05034
v 0.09213 0.08297 -0.05034
v 0.07726 0.09782 -0.05034
v 0.06004 0.10986 -0.05034
v 0.12090 0.00982 -0.08371
v 0.11861 0.02938 -0.08371
v 0.11319 0.04830 -0.08371
v 0.10476 0.06609 -0.08371
v 0.09357 0.08228 -0.08371
v 0.07989 0.09644 -0.08371
v 0.06410 0.10820 -0.08371
v 0.12103 0.01771 -0.11666
v 0.11812 0.03463 -0.11667
v 0.11285 0.05098 -0.11668
v 0.10534 0.06642 -0.11668
v 0.09572 0.08065 -0.11668
v 0.08420 0.09339 -0.11667
v 0.07100 0.10437 -0.11666
v 0.10495 0.04174 0.11744
v 0.09613 0.06111 0.11744
v 0.08377 0.07843 0.11744
v -0.07762 0.11357 0.01661
v -0.09205 0.10156 0.01661
v -0.10464 0.08764 0.01661
v -0.11515 0.07209 0.01661
v -0.12337 0.05521 0.01661
v -0.12912 0.03735 0.01661
v -0.13231 0.01885 0.01661
v -0.07086 0.11891 -0.01673
v -0.08828 0.10593 -0.01673
v -0.10337 0.09029 -0.01673
v -0.11573 0.07242 -0.01673
v -0.12503 0.05278 -0.01673
v -0.13102 0.03190 -0.01673
v -0.13355 0.01032 -0.01673
v -0.06715 0.12191 -0.05006
v -0.08633 0.10849 -0.05006
v -0.10288 0.09193 -0.05006
v -0.11631 0.07276 -0.05006
v -0.12620 0.05154 -0.05006
v -0.13226 0.02893 -0.05006
v -0.13430 0.00561 -0.05006
v -0.07156 0.12004 -0.08339
v -0.08916 0.10693 -0.08339
v -0.10440 0.09114 -0.08339
v -0.11688 0.07309 -0.08339
v -0.12628 0.05326 -0.08339
v -0.13233 0.03216 -0.08339
v -0.13488 0.01037 -0.08339
v -0.07918 0.11573 -0.11673
v -0.09390 0.10348 -0.11673
v -0.10674 0.08929 -0.11673
v -0.11746 0.07342 -0.11673
v -0.12584 0.05621 -0.11673
v -0.13171 0.03798 -0.11673
v -0.13496 0.01911 -0.11673
v -0.09434 0.08761 0.11744
v -0.10825 0.06811 0.11744
v -0.11819 0.04630 0.11744
v -0.05468 -0.11559 0.01661
v -0.03707 -0.12209 0.01661
v -0.01872 -0.12604 0.01661
v -0.00000 -0.12736 0.01661
v 0.01872 -0.12604 0.01661
v 0.03707 -0.12209 0.01661
v 0.05468 -0.11559 0.01661
v -0.06269 -0.11241 -0.01673
v -0.04274 -0.12101 -0.01673
v -0.02166 -0.12626 -0.01673
v -0.00000 -0.12803 -0.01673
v 0.02166 -0.12626 -0.01673
v 0.04274 -0.12101 -0.01673
v 0.06269 -0.11241 -0.01673
v -0.06715 -0.11070 -0.05006
v -0.04593 -0.12059 -0.05006
v -0.02332 -0.12665 -0.05006
v -0.00000 -0.12869 -0.05006
v 0.02332 -0.12665 -0.05006
v 0.04593 -0.12059 -0.05006
v 0.06715 -0.11070 -0.05006
v -0.06332 -0.11359 -0.08339
v -0.04317 -0.12227 -0.08339
v -0.02187 -0.12758 -0.08339
v -0.00000 -0.12936 -0.08339
v 0.02187 -0.12758 -0.08339
v 0.04317 -0.12227 -0.08339
v 0.06332 -0.11359 -0.08339
v -0.05578 -0.11803 -0.11673
v -0.03782 -0.12465 -0.11673
v -0.01910 -0.12868 -0.11673
v -0.00000 -0.13003 -0.11673
v 0.01910 -0.12868 -0.11673
v 0.03782 -0.12465 -0.11673
v 0.05578 -0.11803 -0.11673
v -0.02385 -0.11710 0.11744
v -0.00000 -0.11939 0.11744
v 0.02385 -0.11710 0.11744
v 0.13231 0.01885 0.01661
v 0.12912 0.03735 0.01661
v 0.12337 0.05521 0.01661
v 0.11515 0.07209 0.01661
v 0.10464 0.08764 0.01661
v 0.09205 0.10156 0.01661
v 0.07762 0.11357 0.01661
v 0.13355 0.01032 -0.01673
v 0.13102 0.03190 -0.01673
v 0.12503 0.05278 -0.01673
v 0.11573 0.07242 -0.01673
v 0.10337 0.09029 -0.01673
v 0.08828 0.10593 -0.01673
v 0.07086 0.11891 -0.01673
v 0.13430 0.00561 -0.05006
v 0.13226 0.02893 -0.05006
v 0.12620 0.05154 -0.05006
v 0.11631 0.07276 -0.05006
v 0.10288 0.09193 -0.05006
v 0.08633 0.10849 -0.05006
v 0.06715 0.12191 -0.05006
v 0.13488 0.01037 -0.08339
v 0.13233 0.03216 -0.08339
v 0.12628 0.05326 -0.08339
v 0.11688 0.07309 -0.08339
v 0.10440 0.09114 -0.08339
v 0.08916 0.10693 -0.08339
v 0.07156 0.12004 -0.08339
v 0.13496 0.01911 -0.11673
v 0.13171 0.03798 -0.11673
v 0.12584 0.05621 -0.11673
v 0.11746 0.07342 -0.11673
v 0.10674 0.08929 -0.11673
v 0.09390 0.10348 -0.11673
v 0.07918 0.11573 -0.11673
v 0.11819 0.04630 0.11744
v 0.10825 0.06811 0.11744
v 0.09434 0.08761 0.11744
v -0.06707 0.10787 0.04607
v -0.07157 0.10460 0.04976
v -0.06806 0.10208 0.04568
v -0.07970 0.09841 0.04976
v -0.07626 0.09610 0.04569
v -0.08960 0.08886 0.04977
v -0.08621 0.08671 0.04570
v -0.09838 0.07826 0.04977
v -0.09500 0.07623 0.04571
v -0.10591 0.06675 0.04977
v -0.10252 0.06480 0.04571
v -0.11211 0.05447 0.04977
v -0.10866 0.05257 0.04571
v -0.11690 0.04158 0.04977
v -0.11334 0.03971 0.04570
v -0.12022 0.02822 0.04976
v -0.11650 0.02640 0.04569
v -0.12152 0.01809 0.04976
v -0.12210 0.01256 0.04607
v -0.11758 0.01631 0.04568
v -0.05798 0.10924 0.01636
v -0.05647 0.11487 0.01643
v -0.12286 -0.00012 0.01643
v -0.11874 0.00400 0.01636
v -0.04883 0.11456 -0.01698
v -0.04695 0.12002 -0.01691
v -0.12256 -0.01095 -0.01691
v -0.11877 -0.00658 -0.01698
v -0.04357 0.11748 -0.05034
v -0.04153 0.12283 -0.05026
v -0.12228 -0.01704 -0.05026
v -0.11867 -0.01260 -0.05034
v -0.04934 0.11579 -0.08370
v -0.04746 0.12125 -0.08362
v -0.12388 -0.01112 -0.08362
v -0.12009 -0.00675 -0.08370
v -0.05921 0.11161 -0.11673
v -0.05771 0.11723 -0.11675
v -0.12552 -0.00023 -0.11675
v -0.12141 0.00388 -0.11673
v -0.06830 0.10977 -0.14607
v -0.06928 0.10399 -0.14560
v -0.07280 0.10643 -0.14974
v -0.07769 0.09785 -0.14561
v -0.08113 0.10008 -0.14974
v -0.08784 0.08828 -0.14563
v -0.09121 0.09036 -0.14975
v -0.09681 0.07759 -0.14564
v -0.10015 0.07958 -0.14975
v -0.10448 0.06593 -0.14564
v -0.10782 0.06786 -0.14976
v -0.11074 0.05346 -0.14564
v -0.11413 0.05535 -0.14975
v -0.11551 0.04034 -0.14563
v -0.11901 0.04222 -0.14975
v -0.11873 0.02677 -0.14561
v -0.12238 0.02862 -0.14974
v -0.12435 0.01267 -0.14607
v -0.12372 0.01824 -0.14974
v -0.11984 0.01641 -0.14560
v -0.07007 0.09685 0.14594
v -0.07298 0.09411 0.14994
v -0.07023 0.09121 0.14594
v -0.08681 0.08107 0.14994
v -0.08377 0.07843 0.14594
v -0.09961 0.06312 0.14994
v -0.09613 0.06111 0.14594
v -0.10875 0.04305 0.14994
v -0.10495 0.04174 0.14594
v -0.11314 0.02456 0.14994
v -0.11406 0.02067 0.14594
v -0.10925 0.02363 0.14594
v -0.07023 0.09121 0.11744
v -0.07007 0.09685 0.11744
v -0.11406 0.02067 0.11744
v -0.10925 0.02363 0.11744
v -0.07007 0.09685 0.08894
v -0.07023 0.09121 0.08894
v -0.07298 0.09411 0.08494
v -0.08377 0.07843 0.08894
v -0.08681 0.08107 0.08494
v -0.09613 0.06111 0.08894
v -0.09961 0.06312 0.08494
v -0.10495 0.04174 0.08894
v -0.10875 0.04305 0.08494
v -0.11406 0.02067 0.08894
v -0.11314 0.02456 0.08494
v -0.10925 0.02363 0.08894
v -0.05503 -0.10361 0.04607
v -0.04995 -0.10587 0.04976
v -0.04952 -0.10158 0.04568
v -0.04052 -0.10981 0.04976
v -0.04024 -0.10568 0.04569
v -0.02730 -0.11362 0.04977
v -0.02714 -0.10961 0.04570
v -0.01374 -0.11592 0.04977
v -0.01366 -0.11198 0.04571
v -0.00000 -0.11669 0.04977
v -0.00000 -0.11278 0.04571
v 0.01374 -0.11592 0.04977
v 0.01366 -0.11198 0.04571
v 0.02730 -0.11362 0.04977
v 0.02714 -0.10961 0.04570
v 0.04052 -0.10981 0.04976
v 0.04024 -0.10568 0.04569
v 0.04995 -0.10587 0.04976
v 0.05503 -0.10361 0.04607
v 0.04952 -0.10158 0.04568
v -0.06076 -0.09643 0.01636
v -0.06639 -0.09793 0.01643
v 0.06639 -0.09793 0.01643
v 0.06076 -0.09643 0.01636
v -0.06994 -0.09116 -0.01698
v -0.07561 -0.09226 -0.01691
v 0.07561 -0.09226 -0.01691
v 0.06994 -0.09116 -0.01698
v -0.07510 -0.08806 -0.05034
v -0.08076 -0.08897 -0.05026
v 0.08076 -0.08897 -0.05026
v 0.07510 -0.08806 -0.05034
v -0.07075 -0.09222 -0.08370
v -0.07642 -0.09332 -0.08362
v 0.07642 -0.09332 -0.08362
v 0.07075 -0.09222 -0.08370
v -0.06219 -0.09867 -0.11673
v -0.06781 -0.10018 -0.11675
v 0.06781 -0.10018 -0.11675
v 0.06219 -0.09867 -0.11673
v -0.05606 -0.10562 -0.14607
v -0.05056 -0.10358 -0.14560
v -0.05092 -0.10785 -0.14974
v -0.04104 -0.10780 -0.14561
v -0.04126 -0.11189 -0.14974
v -0.02767 -0.11180 -0.14563
v -0.02780 -0.11576 -0.14975
v -0.01393 -0.11423 -0.14564
v -0.01399 -0.11811 -0.14975
v -0.00000 -0.11504 -0.14564
v -0.00000 -0.11889 -0.14976
v 0.01393 -0.11423 -0.14564
v 0.01399 -0.11811 -0.14975
v 0.02767 -0.11180 -0.14563
v 0.02780 -0.11576 -0.14975
v 0.04104 -0.10780 -0.14561
v 0.04126 -0.11189 -0.14974
v 0.05606 -0.10562 -0.14607
v 0.05092 -0.10785 -0.14974
v 0.05056 -0.10358 -0.14560
v -0.04399 -0.10070 0.14594
v -0.04015 -0.10185 0.14994
v -0.03902 -0.09802 0.14594
v -0.02195 -0.10730 0.14994
v -0.02118 -0.10335 0.14594
v -0.00000 -0.10941 0.14994
v -0.00000 -0.10539 0.14594
v 0.02195 -0.10730 0.14994
v 0.02118 -0.10335 0.14594
v 0.04015 -0.10185 0.14994
v 0.04399 -0.10070 0.14594
v 0.03902 -0.09802 0.14594
v -0.03902 -0.09802 0.11744
v -0.04399 -0.10070 0.11744
v 0.04399 -0.10070 0.11744
v 0.03902 -0.09802 0.11744
v -0.04399 -0.10070 0.08894
v -0.03902 -0.09802 0.08894
v -0.04015 -0.10185 0.08494
v -0.02118 -0.10335 0.08894
v -0.02195 -0.10730 0.08494
v -0.00000 -0.10539 0.08894
v -0.00000 -0.10941 0.08494
v 0.02118 -0.10335 0.08894
v 0.02195 -0.10730 0.08494
v 0.04399 -0.10070 0.08894
v 0.04015 -0.10185 0.08494
v 0.03902 -0.09802 0.08894
v 0.12210 0.01256 0.04607
v 0.12152 0.01809 0.04976
v 0.11758 0.01631 0.04568
v 0.12022 0.02822 0.04976
v 0.11650 0.02640 0.04569
v 0.11690 0.04158 0.04977
v 0.11334 0.03971 0.04570
v 0.11211 0.05447 0.04977
v 0.10866 0.05257 0.04571
v 0.10591 0.06675 0.04977
v 0.10252 0.06480 0.04571
v 0.09838 0.07826 0.04977
v 0.09500 0.07623 0.04571
v 0.08960 0.08886 0.04977
v 0.08621 0.08671 0.04570
v 0.07970 0.09841 0.04976
v 0.07626 0.09610 0.04569
v 0.07157 0.10460 0.04976
v 0.06707 0.10787 0.04607
v 0.06806 0.10208 0.04568
v 0.11874 0.00400 0.01636
v 0.12286 -0.00012 0.01643
v 0.05647 0.11487 0.01643
v 0.05798 0.10924 0.01636
v 0.11877 -0.00658 -0.01698
v 0.12256 -0.01095 -0.01691
v 0.04695 0.12002 -0.01691
v 0.04883 0.11456 -0.01698
v 0.11867 -0.01260 -0.05034
v 0.12228 -0.01704 -0.05026
v 0.04153 0.12283 -0.05026
v 0.04357 0.11748 -0.05034
v 0.12009 -0.00675 -0.08370
v 0.12388 -0.01112 -0.08362
v 0.04746 0.12125 -0.08362
v 0.04934 0.11579 -0.08370
v 0.12141 0.00388 -0.11673
v 0.12552 -0.00023 -0.11675
v 0.05771 0.11723 -0.11675
v 0.05921 0.11161 -0.11673
v 0.12435 0.01267 -0.14607
v 0.11984 0.01641 -0.14560
v 0.12372 0.01824 -0.14974
v 0.11873 0.02677 -0.14561
v 0.12238 0.02862 -0.14974
v 0.11551 0.04034 -0.14563
v 0.11901 0.04222 -0.14975
v 0.11074 0.05346 -0.14564
v 0.11413 0.05535 -0.14975
v 0.10448 0.06593 -0.14564
v 0.10782 0.06786 -0.14976
v 0.09681 0.07759 -0.14564
v 0.10015 0.07958 -0.14975
v 0.08784 0.08828 -0.14563
v 0.09121 0.09036 -0.14975
v 0.07769 0.09785 -0.14561
v 0.08113 0.10008 -0.14974
v 0.06830 0.10977 -0.14607
v 0.07280 0.10643 -0.14974
v 0.06928 0.10399 -0.14560
v 0.11406 0.02067 0.14594
v 0.11314 0.02456 0.14994
v 0.10925 0.02363 0.14594
v 0.10875 0.04305 0.14994
v 0.10495 0.04174 0.14594
v 0.09961 0.06312 0.14994
v 0.09613 0.06111 0.14594
v 0.08681 0.08107 0.14994
v 0.08377 0.07843 0.14594
v 0.07298 0.09411 0.14994
v 0.07007 0.09685 0.14594
v 0.07023 0.09121 0.14594
v 0.10925 0.02363 0.11744
v 0.11406 0.02067 0.11744
v 0.07007 0.09685 0.11744
v 0.07023 0.09121 0.11744
v 0.11406 0.02067 0.08894
v 0.10925 0.02363 0.08894
v 0.11314 0.02456 0.08494
v 0.10495 0.04174 0.08894
v 0.10875 0.04305 0.08494
v 0.09613 0.06111 0.08894
v 0.09961 0.06312 0.08494
v 0.08377 0.07843 0.08894
v 0.08681 0.08107 0.08494
v 0.07007 0.09685 0.08894
v 0.07298 0.09411 0.08494
v 0.07023 0.09121 0.08894
v -0.07038 0.11287 0.04621
v -0.07587 0.11370 0.04594
v -0.07491 0.10954 0.04987
v -0.08493 0.10709 0.04594
v -0.08342 0.10307 0.04987
v -0.09619 0.09652 0.04594
v -0.09389 0.09304 0.04987
v -0.10615 0.08470 0.04594
v -0.10316 0.08189 0.04987
v -0.11464 0.07180 0.04594
v -0.11112 0.06976 0.04987
v -0.12157 0.05798 0.04594
v -0.11764 0.05681 0.04987
v -0.12683 0.04345 0.04594
v -0.12266 0.04320 0.04987
v -0.13035 0.02841 0.04594
v -0.12611 0.02912 0.04987
v -0.12746 0.01852 0.04986
v -0.13155 0.01726 0.04594
v -0.12808 0.01293 0.04621
v -0.05958 0.12000 0.01653
v -0.06524 0.12120 0.01661
v -0.13273 0.00431 0.01661
v -0.12885 0.00000 0.01653
v -0.04971 0.12534 -0.01680
v -0.05530 0.12696 -0.01673
v -0.13274 -0.00718 -0.01673
v -0.12855 -0.01121 -0.01680
v -0.04417 0.12822 -0.05014
v -0.04975 0.13003 -0.05006
v -0.13263 -0.01352 -0.05006
v -0.12827 -0.01745 -0.05014
v -0.05023 0.12658 -0.08348
v -0.05582 0.12819 -0.08339
v -0.13407 -0.00735 -0.08339
v -0.12988 -0.01138 -0.08348
v -0.06081 0.12236 -0.11673
v -0.06648 0.12357 -0.11673
v -0.13539 0.00420 -0.11673
v -0.13151 -0.00011 -0.11673
v -0.07162 0.11475 -0.14629
v -0.07614 0.11136 -0.14993
v -0.07710 0.11559 -0.14606
v -0.08485 0.10474 -0.14993
v -0.08637 0.10882 -0.14606
v -0.09550 0.09454 -0.14994
v -0.09783 0.09807 -0.14606
v -0.10493 0.08320 -0.14994
v -0.10795 0.08605 -0.14607
v -0.11302 0.07086 -0.14994
v -0.11660 0.07292 -0.14607
v -0.11966 0.05768 -0.14994
v -0.12364 0.05887 -0.14607
v -0.12477 0.04384 -0.14994
v -0.12899 0.04410 -0.14606
v -0.12828 0.02952 -0.14993
v -0.13257 0.02880 -0.14606
v -0.13033 0.01306 -0.14629
v -0.13380 0.01738 -0.14606
v -0.12966 0.01867 -0.14993
v -0.07420 0.10121 0.14594
v -0.07986 0.10135 0.14594
v -0.07711 0.09845 0.14994
v -0.09434 0.08761 0.14594
v -0.09131 0.08498 0.14994
v -0.10825 0.06811 0.14594
v -0.10477 0.06610 0.14994
v -0.11819 0.04630 0.14594
v -0.11439 0.04499 0.14994
v -0.11896 0.02596 0.14994
v -0.12285 0.02689 0.14594
v -0.11989 0.02207 0.14594
v -0.07420 0.10121 0.11744
v -0.07986 0.10135 0.11744
v -0.12285 0.02689 0.11744
v -0.11989 0.02207 0.11744
v -0.07420 0.10121 0.08894
v -0.07711 0.09845 0.08494
v -0.07986 0.10135 0.08894
v -0.09131 0.08498 0.08494
v -0.09434 0.08761 0.08894
v -0.10477 0.06610 0.08494
v -0.10825 0.06811 0.08894
v -0.11439 0.04499 0.08494
v -0.11819 0.04630 0.08894
v -0.11989 0.02207 0.08894
v -0.12285 0.02689 0.08894
v -0.11896 0.02596 0.08494
v -0.05770 -0.10898 0.04621
v -0.05568 -0.11415 0.04594
v -0.05255 -0.11123 0.04987
v -0.04543 -0.11868 0.04594
v -0.04270 -0.11537 0.04987
v -0.03064 -0.12316 0.04594
v -0.02877 -0.11942 0.04987
v -0.01543 -0.12587 0.04594
v -0.01448 -0.12188 0.04987
v -0.00000 -0.12677 0.04594
v -0.00000 -0.12270 0.04987
v 0.01543 -0.12587 0.04594
v 0.01448 -0.12188 0.04987
v 0.03064 -0.12316 0.04594
v 0.02877 -0.11942 0.04987
v 0.04543 -0.11868 0.04594
v 0.04270 -0.11537 0.04987
v 0.05255 -0.11123 0.04986
v 0.05568 -0.11415 0.04594
v 0.05770 -0.10898 0.04621
v -0.06928 -0.10318 0.01653
v -0.06749 -0.10869 0.01661
v 0.06749 -0.10869 0.01661
v 0.06928 -0.10318 0.01653
v -0.07884 -0.09732 -0.01680
v -0.07744 -0.10296 -0.01673
v 0.07744 -0.10296 -0.01673
v 0.07884 -0.09732 -0.01680
v -0.08410 -0.09395 -0.05014
v -0.08288 -0.09969 -0.05006
v 0.08288 -0.09969 -0.05006
v 0.08410 -0.09395 -0.05014
v -0.07965 -0.09838 -0.08348
v -0.07825 -0.10402 -0.08339
v 0.07825 -0.10402 -0.08339
v 0.07965 -0.09838 -0.08348
v -0.07070 -0.10543 -0.11673
v -0.06892 -0.11094 -0.11673
v 0.06892 -0.11094 -0.11673
v 0.07070 -0.10543 -0.11673
v -0.05871 -0.11099 -0.14629
v -0.05351 -0.11321 -0.14993
v -0.05670 -0.11616 -0.14606
v -0.04343 -0.11744 -0.14993
v -0.04620 -0.12080 -0.14606
v -0.02927 -0.12157 -0.14994
v -0.03116 -0.12535 -0.14606
v -0.01473 -0.12406 -0.14994
v -0.01569 -0.12811 -0.14607
v -0.00000 -0.12490 -0.14994
v -0.00000 -0.12903 -0.14607
v 0.01473 -0.12406 -0.14994
v 0.01569 -0.12811 -0.14607
v 0.02927 -0.12157 -0.14994
v 0.03116 -0.12535 -0.14606
v 0.04343 -0.11744 -0.14993
v 0.04620 -0.12080 -0.14606
v 0.05871 -0.11099 -0.14629
v 0.05670 -0.11616 -0.14606
v 0.05351 -0.11321 -0.14993
v -0.04569 -0.10646 0.14594
v -0.04299 -0.11143 0.14594
v -0.04185 -0.10759 0.14994
v -0.02385 -0.11710 0.14594
v -0.02308 -0.11315 0.14994
v -0.00000 -0.11939 0.14594
v -0.00000 -0.11538 0.14994
v 0.02385 -0.11710 0.14594
v 0.02308 -0.11315 0.14994
v 0.04185 -0.10759 0.14994
v 0.04299 -0.11143 0.14594
v 0.04569 -0.10646 0.14594
v -0.04569 -0.10646 0.11744
v -0.04299 -0.11143 0.11744
v 0.04299 -0.11143 0.11744
v 0.04569 -0.10646 0.11744
v -0.04569 -0.10646 0.08894
v -0.04185 -0.10759 0.08494
v -0.04299 -0.11143 0.08894
v -0.02308 -0.11315 0.08494
v -0.02385 -0.11710 0.08894
v -0.00000 -0.11538 0.08494
v -0.00000 -0.11939 0.08894
v 0.02308 -0.11315 0.08494
v 0.02385 -0.11710 0.08894
v 0.04569 -0.10646 0.08894
v 0.04299 -0.11143 0.08894
v 0.04185 -0.10759 0.08494
v 0.12808 0.01293 0.04621
v 0.13155 0.01726 0.04594
v 0.12746 0.01852 0.04987
v 0.13035 0.02841 0.04594
v 0.12611 0.02912 0.04987
v 0.12683 0.04345 0.04594
v 0.12266 0.04320 0.04987
v 0.12157 0.05798 0.04594
v 0.11764 0.05681 0.04987
v 0.11464 0.07180 0.04594
v 0.11112 0.06976 0.04987
v 0.10615 0.08470 0.04594
v 0.10316 0.08189 0.04987
v 0.09619 0.09652 0.04594
v 0.09389 0.09304 0.04987
v 0.08493 0.10709 0.04594
v 0.08342 0.10307 0.04987
v 0.07491 0.10954 0.04986
v 0.07587 0.11370 0.04594
v 0.07038 0.11287 0.04621
v 0.12885 0.00000 0.01653
v 0.13273 0.00431 0.01661
v 0.06524 0.12120 0.01661
v 0.05958 0.12000 0.01653
v 0.12855 -0.01121 -0.01680
v 0.13274 -0.00718 -0.01673
v 0.05530 0.12696 -0.01673
v 0.04971 0.12534 -0.01680
v 0.12827 -0.01745 -0.05014
v 0.13263 -0.01352 -0.05006
v 0.04975 0.13003 -0.05006
v 0.04417 0.12822 -0.05014
v 0.12988 -0.01138 -0.08348
v 0.13407 -0.00735 -0.08339
v 0.05582 0.12819 -0.08339
v 0.05023 0.12658 -0.08348
v 0.13151 -0.00011 -0.11673
v 0.13539 0.00420 -0.11673
v 0.06648 0.12357 -0.11673
v 0.06081 0.12236 -0.11673
v 0.13033 0.01306 -0.14629
v 0.12966 0.01867 -0.14993
v 0.13380 0.01738 -0.14606
v 0.12828 0.02952 -0.14993
v 0.13257 0.02880 -0.14606
v 0.12477 0.04384 -0.14994
v 0.12899 0.04410 -0.14606
v 0.11966 0.05768 -0.14994
v 0.12364 0.05887 -0.14607
v 0.11302 0.07086 -0.14994
v 0.11660 0.07292 -0.14607
v 0.10493 0.08320 -0.14994
v 0.10795 0.08605 -0.14607
v 0.09550 0.09454 -0.14994
v 0.09783 0.09807 -0.14606
v 0.08485 0.10474 -0.14993
v 0.08637 0.10882 -0.14606
v 0.07162 0.11475 -0.14629
v 0.07710 0.11559 -0.14606
v 0.07614 0.11136 -0.14993
v 0.11989 0.02207 0.14594
v 0.12285 0.02689 0.14594
v 0.11896 0.02596 0.14994
v 0.11819 0.04630 0.14594
v 0.11439 0.04499 0.14994
v 0.10825 0.06811 0.14594
v 0.10477 0.06610 0.14994
v 0.09434 0.08761 0.14594
v 0.09131 0.08498 0.14994
v 0.07711 0.09845 0.14994
v 0.07986 0.10135 0.14594
v 0.07420 0.10121 0.14594
v 0.11989 0.02207 0.11744
v 0.12285 0.02689 0.11744
v 0.07986 0.10135 0.11744
v 0.07420 0.10121 0.11744
v 0.11989 0.02207 0.08894
v 0.11896 0.02596 0.08494
v 0.12285 0.02689 0.08894
v 0.11439 0.04499 0.08494
v 0.11819 0.04630 0.08894
v 0.10477 0.06610 0.08494
v 0.10825 0.06811 0.08894
v 0.09131 0.08498 0.08494
v 0.09434 0.08761 0.08894
v 0.07420 0.10121 0.08894
v 0.07986 0.10135 0.08894
v 0.07711 0.09845 0.08494
f 1 9 8
f 2 10 9
f 3 11 10
f 5 11 4
f 6 12 5
f 7 13 6
f 8 16 15
f 9 17 16
f 10 18 17
f 12 18 11
f 13 19 12
f 14 20 13
f 16 22 15
f 17 23 16
f 18 24 17
f 18 26 25
f 19 27 26
f 20 28 27
f 23 29 22
f 24 30 23
f 25 31 24
f 25 33 32
f 26 34 33
f 27 35 34
f 39 47 46
f 40 48 47
f 41 49 48
f 43 49 42
f 44 50 43
f 45 51 44
f 46 54 53
f 47 55 54
f 48 56 55
f 50 56 49
f 51 57 50
f 52 58 51
f 54 60 53
f 55 61 54
f 56 62 55
f 56 64 63
f 57 65 64
f 58 66 65
f 61 67 60
f 62 68 61
f 63 69 62
f 63 71 70
f 64 72 71
f 65 73 72
f 77 85 84
f 78 86 85
f 79 87 86
f 81 87 80
f 82 88 81
f 83 89 82
f 84 92 91
f 85 93 92
f 86 94 93
f 88 94 87
f 89 95 88
f 90 96 89
f 92 98 91
f 93 99 92
f 94 100 93
f 94 102 101
f 95 103 102
f 96 104 103
f 99 105 98
f 100 106 99
f 101 107 100
f 101 109 108
f 102 110 109
f 103 111 110
f 115 123 116
f 116 124 117
f 117 125 118
f 125 119 118
f 126 120 119
f 127 121 120
f 122 130 123
f 123 131 124
f 124 132 125
f 132 126 125
f 133 127 126
f 134 128 127
f 136 130 129
f 137 131 130
f 138 132 131
f 132 140 133
f 133 141 134
f 134 142 135
f 143 137 136
f 144 138 137
f 145 139 138
f 139 147 140
f 140 148 141
f 141 149 142
f 153 161 154
f 154 162 155
f 155 163 156
f 163 157 156
f 164 158 157
f 165 159 158
f 160 168 161
f 161 169 162
f 162 170 163
f 170 164 163
f 171 165 164
f 172 166 165
f 174 168 167
f 175 169 168
f 176 170 169
f 170 178 171
f 171 179 172
f 172 180 173
f 181 175 174
f 182 176 175
f 183 177 176
f 177 185 178
f 178 186 179
f 179 187 180
f 191 199 192
f 192 200 193
f 193 201 194
f 201 195 194
f 202 196 195
f 203 197 196
f 198 206 199
f 199 207 200
f 200 208 201
f 208 202 201
f 209 203 202
f 210 204 203
f 212 206 205
f 213 207 206
f 214 208 207
f 208 216 209
f 209 217 210
f 210 218 211
f 219 213 212
f 220 214 213
f 221 215 214
f 215 223 216
f 216 224 217
f 217 225 218
f 229 230 231
f 246 247 248
f 269 270 271
f 286 287 288
f 289 290 291
f 298 299 300
f 305 306 307
f 314 315 316
f 317 318 319
f 334 335 336
f 357 358 359
f 374 375 376
f 377 378 379
f 386 387 388
f 393 394 395
f 402 403 404
f 405 406 407
f 422 423 424
f 445 446 447
f 462 463 464
f 465 466 467
f 474 475 476
f 481 482 483
f 490 491 492
f 493 494 495
f 510 511 512
f 533 534 535
f 550 551 552
f 553 554 555
f 562 563 564
f 569 570 571
f 578 579 580
f 581 582 583
f 598 599 600
f 621 622 623
f 638 639 640
f 641 642 643
f 650 651 652
f 657 658 659
f 666 667 668
f 669 670 671
f 686 687 688
f 709 710 711
f 726 727 728
f 729 730 731
f 738 739 740
f 745 746 747
f 754 755 756
f 229 249 250
f 230 233 231
f 232 235 233
f 234 237 235
f 236 239 237
f 240 239 238
f 242 241 240
f 244 243 242
f 246 245 244
f 247 252 248
f 250 253 254
f 251 256 252
f 254 257 258
f 255 260 256
f 262 257 261
f 263 260 259
f 266 261 265
f 267 264 263
f 269 265 270
f 271 272 273
f 273 274 275
f 275 276 277
f 277 278 279
f 281 278 280
f 283 280 282
f 285 282 284
f 286 268 267
f 287 284 288
f 302 291 301
f 290 293 291
f 294 293 292
f 294 297 295
f 298 297 296
f 299 304 300
f 305 301 306
f 307 308 309
f 311 308 310
f 313 310 312
f 303 316 304
f 315 312 316
f 317 337 338
f 318 321 319
f 320 323 321
f 322 325 323
f 324 327 325
f 328 327 326
f 330 329 328
f 332 331 330
f 334 333 332
f 335 340 336
f 338 341 342
f 339 344 340
f 342 345 346
f 343 348 344
f 350 345 349
f 351 348 347
f 354 349 353
f 355 352 351
f 357 353 358
f 359 360 361
f 361 362 363
f 363 364 365
f 365 366 367
f 369 366 368
f 371 368 370
f 373 370 372
f 374 356 355
f 375 372 376
f 377 389 390
f 378 381 379
f 382 381 380
f 382 385 383
f 386 385 384
f 391 388 387
f 390 394 393
f 395 396 397
f 399 396 398
f 401 398 400
f 402 392 391
f 403 400 404
f 405 425 426
f 406 409 407
f 408 411 409
f 410 413 411
f 412 415 413
f 416 415 414
f 418 417 416
f 420 419 418
f 422 421 420
f 423 428 424
f 426 429 430
f 427 432 428
f 430 433 434
f 431 436 432
f 438 433 437
f 439 436 435
f 442 437 441
f 443 440 439
f 445 441 446
f 447 448 449
f 449 450 451
f 451 452 453
f 453 454 455
f 457 454 456
f 459 456 458
f 461 458 460
f 462 444 443
f 463 460 464
f 465 477 478
f 466 469 467
f 470 469 468
f 470 473 471
f 474 473 472
f 479 476 475
f 478 482 481
f 483 484 485
f 485 486 487
f 487 488 489
f 490 480 479
f 491 488 492
f 514 493 513
f 496 495 494
f 498 497 496
f 500 499 498
f 502 501 500
f 502 505 503
f 504 507 505
f 506 509 507
f 508 510 509
f 515 512 511
f 518 513 517
f 519 516 515
f 522 517 521
f 523 520 519
f 522 525 526
f 523 528 524
f 526 529 530
f 527 532 528
f 530 533 535
f 537 534 536
f 539 536 538
f 541 538 540
f 543 540 542
f 543 544 545
f 545 546 547
f 547 548 549
f 531 550 532
f 549 552 551
f 566 553 565
f 554 557 555
f 558 557 556
f 560 559 558
f 563 561 560
f 567 564 563
f 571 565 569
f 571 572 573
f 575 572 574
f 575 576 577
f 579 568 567
f 579 576 580
f 602 581 601
f 584 583 582
f 586 585 584
f 588 587 586
f 590 589 588
f 590 593 591
f 592 595 593
f 594 597 595
f 596 598 597
f 603 600 599
f 606 601 605
f 607 604 603
f 610 605 609
f 611 608 607
f 610 613 614
f 611 616 612
f 614 617 618
f 615 620 616
f 618 621 623
f 625 622 624
f 627 624 626
f 629 626 628
f 631 628 630
f 631 632 633
f 633 634 635
f 635 636 637
f 619 638 620
f 637 640 639
f 642 653 654
f 642 645 643
f 646 645 644
f 646 649 647
f 651 649 648
f 655 652 651
f 654 657 659
f 659 660 661
f 663 660 662
f 665 662 664
f 667 656 655
f 667 664 668
f 690 669 689
f 672 671 670
f 674 673 672
f 676 675 674
f 678 677 676
f 678 681 679
f 680 683 681
f 682 685 683
f 684 686 685
f 691 688 687
f 694 689 693
f 695 692 691
f 698 693 697
f 699 696 695
f 698 701 702
f 699 704 700
f 702 705 706
f 703 708 704
f 706 709 711
f 713 710 712
f 715 712 714
f 717 714 716
f 719 716 718
f 719 720 721
f 721 722 723
f 723 724 725
f 707 726 708
f 725 728 727
f 730 741 742
f 730 733 731
f 732 735 733
f 736 735 734
f 739 737 736
f 743 740 739
f 742 745 747
f 747 748 749
f 751 748 750
f 751 752 753
f 755 744 743
f 755 752 756
f 229 495 230
f 510 247 246
f 534 269 271
f 286 552 287
f 553 290 289
f 298 564 299
f 307 569 305
f 578 315 314
f 317 583 318
f 598 335 334
f 622 357 359
f 374 640 375
f 641 378 377
f 386 652 387
f 395 657 393
f 666 403 402
f 405 671 406
f 686 423 422
f 710 445 447
f 462 728 463
f 729 466 465
f 474 740 475
f 483 745 481
f 754 491 490
f 229 513 493
f 231 1 249
f 230 497 232
f 233 2 1
f 232 499 234
f 235 3 2
f 234 501 236
f 237 4 3
f 236 503 238
f 241 4 239
f 240 503 505
f 243 5 241
f 242 505 507
f 245 6 243
f 244 507 509
f 248 7 245
f 246 509 510
f 247 516 251
f 249 8 253
f 250 517 513
f 252 14 7
f 251 520 255
f 253 15 257
f 254 521 517
f 256 21 14
f 255 524 259
f 15 261 257
f 262 521 258
f 21 264 28
f 263 524 528
f 22 265 261
f 266 525 262
f 28 268 35
f 267 528 532
f 29 270 265
f 266 533 529
f 35 288 284
f 267 550 286
f 271 536 534
f 30 272 29
f 273 538 536
f 31 274 30
f 275 540 538
f 32 276 31
f 277 542 540
f 32 280 278
f 281 542 279
f 33 282 280
f 283 544 281
f 34 284 282
f 285 546 283
f 287 548 285
f 302 553 289
f 293 301 291
f 292 555 557
f 295 36 293
f 294 557 559
f 297 37 295
f 296 559 561
f 300 38 297
f 296 562 298
f 299 568 303
f 36 306 301
f 305 565 302
f 304 312 38
f 303 578 314
f 309 570 307
f 37 308 36
f 309 574 572
f 38 310 37
f 311 576 574
f 313 580 576
f 317 601 581
f 319 39 337
f 318 585 320
f 321 40 39
f 320 587 322
f 323 41 40
f 322 589 324
f 325 42 41
f 324 591 326
f 329 42 327
f 328 591 593
f 331 43 329
f 330 593 595
f 333 44 331
f 332 595 597
f 336 45 333
f 334 597 598
f 335 604 339
f 337 46 341
f 338 605 601
f 340 52 45
f 339 608 343
f 341 53 345
f 342 609 605
f 344 59 52
f 343 612 347
f 53 349 345
f 350 609 346
f 59 352 66
f 351 612 616
f 60 353 349
f 354 613 350
f 66 356 73
f 355 616 620
f 67 358 353
f 354 621 617
f 73 376 372
f 355 638 374
f 359 624 622
f 68 360 67
f 361 626 624
f 69 362 68
f 363 628 626
f 70 364 69
f 365 630 628
f 70 368 366
f 369 630 367
f 71 370 368
f 371 632 369
f 72 372 370
f 373 634 371
f 375 636 373
f 390 641 377
f 381 389 379
f 380 643 645
f 383 74 381
f 380 647 382
f 385 75 383
f 382 649 384
f 388 76 385
f 384 650 386
f 387 656 391
f 74 394 389
f 393 653 390
f 392 400 76
f 402 656 666
f 397 658 395
f 75 396 74
f 397 662 660
f 76 398 75
f 401 662 399
f 401 668 664
f 405 689 669
f 407 77 425
f 406 673 408
f 409 78 77
f 408 675 410
f 411 79 78
f 410 677 412
f 413 80 79
f 412 679 414
f 417 80 415
f 416 679 681
f 419 81 417
f 418 681 683
f 421 82 419
f 420 683 685
f 424 83 421
f 422 685 686
f 423 692 427
f 425 84 429
f 426 693 689
f 428 90 83
f 427 696 431
f 429 91 433
f 430 697 693
f 432 97 90
f 431 700 435
f 91 437 433
f 438 697 434
f 97 440 104
f 439 700 704
f 98 441 437
f 442 701 438
f 104 444 111
f 443 704 708
f 105 446 441
f 442 709 705
f 111 464 460
f 443 726 462
f 447 712 710
f 106 448 105
f 449 714 712
f 107 450 106
f 451 716 714
f 108 452 107
f 453 718 716
f 108 456 454
f 457 718 455
f 109 458 456
f 459 720 457
f 110 460 458
f 461 722 459
f 463 724 461
f 465 741 729
f 467 112 477
f 468 731 733
f 469 113 112
f 468 735 470
f 471 114 113
f 470 737 472
f 473 480 114
f 472 738 474
f 475 744 479
f 477 484 482
f 478 745 741
f 114 492 488
f 479 754 490
f 485 746 483
f 112 486 484
f 487 748 485
f 113 488 486
f 489 750 487
f 489 756 752
f 494 115 496
f 496 116 498
f 498 117 500
f 500 118 502
f 118 504 502
f 119 506 504
f 120 508 506
f 121 511 508
f 514 122 115
f 128 515 121
f 518 129 122
f 135 519 128
f 526 129 522
f 135 527 523
f 530 136 526
f 142 531 527
f 535 143 530
f 149 551 531
f 537 144 143
f 539 145 144
f 541 146 145
f 146 545 147
f 147 547 148
f 148 549 149
f 566 556 554
f 150 558 556
f 151 560 558
f 152 563 560
f 571 150 566
f 577 567 152
f 573 151 150
f 575 152 151
f 582 153 584
f 584 154 586
f 586 155 588
f 588 156 590
f 156 592 590
f 157 594 592
f 158 596 594
f 159 599 596
f 602 160 153
f 166 603 159
f 606 167 160
f 173 607 166
f 614 167 610
f 173 615 611
f 618 174 614
f 180 619 615
f 623 181 618
f 187 639 619
f 625 182 181
f 627 183 182
f 629 184 183
f 184 633 185
f 185 635 186
f 186 637 187
f 654 644 642
f 188 646 644
f 189 648 646
f 190 651 648
f 659 188 654
f 665 655 190
f 661 189 188
f 663 190 189
f 670 191 672
f 672 192 674
f 674 193 676
f 676 194 678
f 194 680 678
f 195 682 680
f 196 684 682
f 197 687 684
f 690 198 191
f 204 691 197
f 694 205 198
f 211 695 204
f 702 205 698
f 211 703 699
f 706 212 702
f 218 707 703
f 711 219 706
f 225 727 707
f 713 220 219
f 715 221 220
f 717 222 221
f 222 721 223
f 223 723 224
f 224 725 225
f 742 732 730
f 226 734 732
f 227 736 734
f 228 739 736
f 747 226 742
f 753 743 228
f 749 227 226
f 751 228 227
f 1 2 9
f 2 3 10
f 3 4 11
f 5 12 11
f 6 13 12
f 7 14 13
f 8 9 16
f 9 10 17
f 10 11 18
f 12 19 18
f 13 20 19
f 14 21 20
f 16 23 22
f 17 24 23
f 18 25 24
f 18 19 26
f 19 20 27
f 20 21 28
f 23 30 29
f 24 31 30
f 25 32 31
f 25 26 33
f 26 27 34
f 27 28 35
f 39 40 47
f 40 41 48
f 41 42 49
f 43 50 49
f 44 51 50
f 45 52 51
f 46 47 54
f 47 48 55
f 48 49 56
f 50 57 56
f 51 58 57
f 52 59 58
f 54 61 60
f 55 62 61
f 56 63 62
f 56 57 64
f 57 58 65
f 58 59 66
f 61 68 67
f 62 69 68
f 63 70 69
f 63 64 71
f 64 65 72
f 65 66 73
f 77 78 85
f 78 79 86
f 79 80 87
f 81 88 87
f 82 89 88
f 83 90 89
f 84 85 92
f 85 86 93
f 86 87 94
f 88 95 94
f 89 96 95
f 90 97 96
f 92 99 98
f 93 100 99
f 94 101 100
f 94 95 102
f 95 96 103
f 96 97 104
f 99 106 105
f 100 107 106
f 101 108 107
f 101 102 109
f 102 103 110
f 103 104 111
f 115 122 123
f 116 123 124
f 117 124 125
f 125 126 119
f 126 127 120
f 127 128 121
f 122 129 130
f 123 130 131
f 124 131 132
f 132 133 126
f 133 134 127
f 134 135 128
f 136 137 130
f 137 138 131
f 138 139 132
f 132 139 140
f 133 140 141
f 134 141 142
f 143 144 137
f 144 145 138
f 145 146 139
f 139 146 147
f 140 147 148
f 141 148 149
f 153 160 161
f 154 161 162
f 155 162 163
f 163 164 157
f 164 165 158
f 165 166 159
f 160 167 168
f 161 168 169
f 162 169 170
f 170 171 164
f 171 172 165
f 172 173 166
f 174 175 168
f 175 176 169
f 176 177 170
f 170 177 178
f 171 178 179
f 172 179 180
f 181 182 175
f 182 183 176
f 183 184 177
f 177 184 185
f 178 185 186
f 179 186 187
f 191 198 199
f 192 199 200
f 193 200 201
f 201 202 195
f 202 203 196
f 203 204 197
f 198 205 206
f 199 206 207
f 200 207 208
f 208 209 202
f 209 210 203
f 210 211 204
f 212 213 206
f 213 214 207
f 214 215 208
f 208 215 216
f 209 216 217
f 210 217 218
f 219 220 213
f 220 221 214
f 221 222 215
f 215 222 223
f 216 223 224
f 217 224 225
f 229 231 249
f 230 232 233
f 232 234 235
f 234 236 237
f 236 238 239
f 240 241 239
f 242 243 241
f 244 245 243
f 246 248 245
f 247 251 252
f 250 249 253
f 251 255 256
f 254 253 257
f 255 259 260
f 262 258 257
f 263 264 260
f 266 262 261
f 267 268 264
f 269 266 265
f 271 270 272
f 273 272 274
f 275 274 276
f 277 276 278
f 281 279 278
f 283 281 280
f 285 283 282
f 286 288 268
f 287 285 284
f 302 289 291
f 290 292 293
f 294 295 293
f 294 296 297
f 298 300 297
f 299 303 304
f 305 302 301
f 307 306 308
f 311 309 308
f 313 311 310
f 303 314 316
f 315 313 312
f 317 319 337
f 318 320 321
f 320 322 323
f 322 324 325
f 324 326 327
f 328 329 327
f 330 331 329
f 332 333 331
f 334 336 333
f 335 339 340
f 338 337 341
f 339 343 344
f 342 341 345
f 343 347 348
f 350 346 345
f 351 352 348
f 354 350 349
f 355 356 352
f 357 354 353
f 359 358 360
f 361 360 362
f 363 362 364
f 365 364 366
f 369 367 366
f 371 369 368
f 373 371 370
f 374 376 356
f 375 373 372
f 377 379 389
f 378 380 381
f 382 383 381
f 382 384 385
f 386 388 385
f 391 392 388
f 390 389 394
f 395 394 396
f 399 397 396
f 401 399 398
f 402 404 392
f 403 401 400
f 405 407 425
f 406 408 409
f 408 410 411
f 410 412 413
f 412 414 415
f 416 417 415
f 418 419 417
f 420 421 419
f 422 424 421
f 423 427 428
f 426 425 429
f 427 431 432
f 430 429 433
f 431 435 436
f 438 434 433
f 439 440 436
f 442 438 437
f 443 444 440
f 445 442 441
f 447 446 448
f 449 448 450
f 451 450 452
f 453 452 454
f 457 455 454
f 459 457 456
f 461 459 458
f 462 464 444
f 463 461 460
f 465 467 477
f 466 468 469
f 470 471 469
f 470 472 473
f 474 476 473
f 479 480 476
f 478 477 482
f 483 482 484
f 485 484 486
f 487 486 488
f 490 492 480
f 491 489 488
f 514 494 493
f 496 497 495
f 498 499 497
f 500 501 499
f 502 503 501
f 502 504 505
f 504 506 507
f 506 508 509
f 508 511 510
f 515 516 512
f 518 514 513
f 519 520 516
f 522 518 517
f 523 524 520
f 522 521 525
f 523 527 528
f 526 525 529
f 527 531 532
f 530 529 533
f 537 535 534
f 539 537 536
f 541 539 538
f 543 541 540
f 543 542 544
f 545 544 546
f 547 546 548
f 531 551 550
f 549 548 552
f 566 554 553
f 554 556 557
f 558 559 557
f 560 561 559
f 563 562 561
f 567 568 564
f 571 566 565
f 571 570 572
f 575 573 572
f 575 574 576
f 579 578 568
f 579 577 576
f 602 582 581
f 584 585 583
f 586 587 585
f 588 589 587
f 590 591 589
f 590 592 593
f 592 594 595
f 594 596 597
f 596 599 598
f 603 604 600
f 606 602 601
f 607 608 604
f 610 606 605
f 611 612 608
f 610 609 613
f 611 615 616
f 614 613 617
f 615 619 620
f 618 617 621
f 625 623 622
f 627 625 624
f 629 627 626
f 631 629 628
f 631 630 632
f 633 632 634
f 635 634 636
f 619 639 638
f 637 636 640
f 642 641 653
f 642 644 645
f 646 647 645
f 646 648 649
f 651 650 649
f 655 656 652
f 654 653 657
f 659 658 660
f 663 661 660
f 665 663 662
f 667 666 656
f 667 665 664
f 690 670 669
f 672 673 671
f 674 675 673
f 676 677 675
f 678 679 677
f 678 680 681
f 680 682 683
f 682 684 685
f 684 687 686
f 691 692 688
f 694 690 689
f 695 696 692
f 698 694 693
f 699 700 696
f 698 697 701
f 699 703 704
f 702 701 705
f 703 707 708
f 706 705 709
f 713 711 710
f 715 713 712
f 717 715 714
f 719 717 716
f 719 718 720
f 721 720 722
f 723 722 724
f 707 727 726
f 725 724 728
f 730 729 741
f 730 732 733
f 732 734 735
f 736 737 735
f 739 738 737
f 743 744 740
f 742 741 745
f 747 746 748
f 751 749 748
f 751 750 752
f 755 754 744
f 755 753 752
f 229 493 495
f 510 512 247
f 534 533 269
f 286 550 552
f 553 555 290
f 298 562 564
f 307 570 569
f 578 580 315
f 317 581 583
f 598 600 335
f 622 621 357
f 374 638 640
f 641 643 378
f 386 650 652
f 395 658 657
f 666 668 403
f 405 669 671
f 686 688 423
f 710 709 445
f 462 726 728
f 729 731 466
f 474 738 740
f 483 746 745
f 754 756 491
f 229 250 513
f 231 233 1
f 230 495 497
f 233 235 2
f 232 497 499
f 235 237 3
f 234 499 501
f 237 239 4
f 236 501 503
f 241 5 4
f 240 238 503
f 243 6 5
f 242 240 505
f 245 7 6
f 244 242 507
f 248 252 7
f 246 244 509
f 247 512 516
f 249 1 8
f 250 254 517
f 252 256 14
f 251 516 520
f 253 8 15
f 254 258 521
f 256 260 21
f 255 520 524
f 15 22 261
f 262 525 521
f 21 260 264
f 263 259 524
f 22 29 265
f 266 529 525
f 28 264 268
f 267 263 528
f 29 272 270
f 266 269 533
f 35 268 288
f 267 532 550
f 271 273 536
f 30 274 272
f 273 275 538
f 31 276 274
f 275 277 540
f 32 278 276
f 277 279 542
f 32 33 280
f 281 544 542
f 33 34 282
f 283 546 544
f 34 35 284
f 285 548 546
f 287 552 548
f 302 565 553
f 293 36 301
f 292 290 555
f 295 37 36
f 294 292 557
f 297 38 37
f 296 294 559
f 300 304 38
f 296 561 562
f 299 564 568
f 36 308 306
f 305 569 565
f 304 316 312
f 303 568 578
f 309 572 570
f 37 310 308
f 309 311 574
f 38 312 310
f 311 313 576
f 313 315 580
f 317 338 601
f 319 321 39
f 318 583 585
f 321 323 40
f 320 585 587
f 323 325 41
f 322 587 589
f 325 327 42
f 324 589 591
f 329 43 42
f 328 326 591
f 331 44 43
f 330 328 593
f 333 45 44
f 332 330 595
f 336 340 45
f 334 332 597
f 335 600 604
f 337 39 46
f 338 342 605
f 340 344 52
f 339 604 608
f 341 46 53
f 342 346 609
f 344 348 59
f 343 608 612
f 53 60 349
f 350 613 609
f 59 348 352
f 351 347 612
f 60 67 353
f 354 617 613
f 66 352 356
f 355 351 616
f 67 360 358
f 354 357 621
f 73 356 376
f 355 620 638
f 359 361 624
f 68 362 360
f 361 363 626
f 69 364 362
f 363 365 628
f 70 366 364
f 365 367 630
f 70 71 368
f 369 632 630
f 71 72 370
f 371 634 632
f 72 73 372
f 373 636 634
f 375 640 636
f 390 653 641
f 381 74 389
f 380 378 643
f 383 75 74
f 380 645 647
f 385 76 75
f 382 647 649
f 388 392 76
f 384 649 650
f 387 652 656
f 74 396 394
f 393 657 653
f 392 404 400
f 402 391 656
f 397 660 658
f 75 398 396
f 397 399 662
f 76 400 398
f 401 664 662
f 401 403 668
f 405 426 689
f 407 409 77
f 406 671 673
f 409 411 78
f 408 673 675
f 411 413 79
f 410 675 677
f 413 415 80
f 412 677 679
f 417 81 80
f 416 414 679
f 419 82 81
f 418 416 681
f 421 83 82
f 420 418 683
f 424 428 83
f 422 420 685
f 423 688 692
f 425 77 84
f 426 430 693
f 428 432 90
f 427 692 696
f 429 84 91
f 430 434 697
f 432 436 97
f 431 696 700
f 91 98 437
f 438 701 697
f 97 436 440
f 439 435 700
f 98 105 441
f 442 705 701
f 104 440 444
f 443 439 704
f 105 448 446
f 442 445 709
f 111 444 464
f 443 708 726
f 447 449 712
f 106 450 448
f 449 451 714
f 107 452 450
f 451 453 716
f 108 454 452
f 453 455 718
f 108 109 456
f 457 720 718
f 109 110 458
f 459 722 720
f 110 111 460
f 461 724 722
f 463 728 724
f 465 478 741
f 467 469 112
f 468 466 731
f 469 471 113
f 468 733 735
f 471 473 114
f 470 735 737
f 473 476 480
f 472 737 738
f 475 740 744
f 477 112 484
f 478 481 745
f 114 480 492
f 479 744 754
f 485 748 746
f 112 113 486
f 487 750 748
f 113 114 488
f 489 752 750
f 489 491 756
f 494 514 115
f 496 115 116
f 498 116 117
f 500 117 118
f 118 119 504
f 119 120 506
f 120 121 508
f 121 515 511
f 514 518 122
f 128 519 515
f 518 522 129
f 135 523 519
f 526 136 129
f 135 142 527
f 530 143 136
f 142 149 531
f 535 537 143
f 149 549 551
f 537 539 144
f 539 541 145
f 541 543 146
f 146 543 545
f 147 545 547
f 148 547 549
f 566 150 556
f 150 151 558
f 151 152 560
f 152 567 563
f 571 573 150
f 577 579 567
f 573 575 151
f 575 577 152
f 582 602 153
f 584 153 154
f 586 154 155
f 588 155 156
f 156 157 592
f 157 158 594
f 158 159 596
f 159 603 599
f 602 606 160
f 166 607 603
f 606 610 167
f 173 611 607
f 614 174 167
f 173 180 615
f 618 181 174
f 180 187 619
f 623 625 181
f 187 637 639
f 625 627 182
f 627 629 183
f 629 631 184
f 184 631 633
f 185 633 635
f 186 635 637
f 654 188 644
f 188 189 646
f 189 190 648
f 190 655 651
f 659 661 188
f 665 667 655
f 661 663 189
f 663 665 190
f 670 690 191
f 672 191 192
f 674 192 193
f 676 193 194
f 194 195 680
f 195 196 682
f 196 197 684
f 197 691 687
f 690 694 198
f 204 695 691
f 694 698 205
f 211 699 695
f 702 212 205
f 211 218 703
f 706 219 212
f 218 225 707
f 711 713 219
f 225 725 727
f 713 715 220
f 715 717 221
f 717 719 222
f 222 719 721
f 223 721 723
f 224 723 725
f 742 226 732
f 226 227 734
f 227 228 736
f 228 743 739
f 747 749 226
f 753 755 743
f 749 751 227
f 751 753 228
