# apex Housing_Cyan.obj: Roblox cue frame, recentred on its bounding box
v 0.01760 0.21200 0.14800
v 0.01760 0.21200 -0.10800
v -0.01760 0.21200 0.14800
v -0.01760 0.21200 -0.10800
v -0.01760 0.20240 0.14800
v -0.01760 0.20240 -0.10800
v 0.01760 0.20240 0.14800
v 0.01760 0.20240 -0.10800
v -0.20279 -0.10876 0.14800
v -0.20279 -0.10876 -0.10800
v -0.18519 -0.13924 0.14800
v -0.18519 -0.13924 -0.10800
v -0.17688 -0.13444 0.14800
v -0.17688 -0.13444 -0.10800
v -0.19448 -0.10396 0.14800
v -0.19448 -0.10396 -0.10800
v 0.18519 -0.13924 0.14800
v 0.18519 -0.13924 -0.10800
v 0.20279 -0.10876 0.14800
v 0.20279 -0.10876 -0.10800
v 0.19448 -0.10396 0.14800
v 0.19448 -0.10396 -0.10800
v 0.17688 -0.13444 0.14800
v 0.17688 -0.13444 -0.10800
v -0.00084 0.18797 0.33520
v -0.00059 0.18423 0.32615
v -0.00000 0.17520 0.32240
v 0.00059 0.16617 0.32615
v 0.00084 0.16243 0.33520
v 0.00059 0.16617 0.34425
v 0.00000 0.17520 0.34800
v -0.00059 0.18423 0.34425
v -0.02611 0.18629 0.33520
v -0.02562 0.18257 0.32615
v -0.02443 0.17360 0.32240
v -0.02325 0.16462 0.32615
v -0.02276 0.16091 0.33520
v -0.02325 0.16462 0.34425
v -0.02443 0.17360 0.34800
v -0.02562 0.18257 0.34425
v -0.05176 0.18119 0.33520
v -0.05079 0.17756 0.32615
v -0.04845 0.16882 0.32240
v -0.04611 0.16008 0.32615
v -0.04514 0.15646 0.33520
v -0.04611 0.16008 0.34425
v -0.04845 0.16882 0.34800
v -0.05079 0.17756 0.34425
v -0.07654 0.17278 0.33520
v -0.07510 0.16931 0.32615
v -0.07164 0.16095 0.32240
v -0.06817 0.15259 0.32615
v -0.06674 0.14912 0.33520
v -0.06817 0.15259 0.34425
v -0.07164 0.16095 0.34800
v -0.07510 0.16931 0.34425
v -0.10000 0.16121 0.33520
v -0.09813 0.15796 0.32615
v -0.09360 0.15012 0.32240
v -0.08907 0.14228 0.32615
v -0.08720 0.13903 0.33520
v -0.08907 0.14228 0.34425
v -0.09360 0.15012 0.34800
v -0.09813 0.15796 0.34425
v -0.12175 0.14667 0.33520
v -0.11947 0.14370 0.32615
v -0.11396 0.13652 0.32240
v -0.10845 0.12934 0.32615
v -0.10617 0.12636 0.33520
v -0.10845 0.12934 0.34425
v -0.11396 0.13652 0.34800
v -0.11947 0.14370 0.34425
v -0.14142 0.12942 0.33520
v -0.13877 0.12677 0.32615
v -0.13237 0.12037 0.32240
v -0.12597 0.11397 0.32615
v -0.12332 0.11132 0.33520
v -0.12597 0.11397 0.34425
v -0.13237 0.12037 0.34800
v -0.13877 0.12677 0.34425
v -0.15867 0.10975 0.33520
v -0.15570 0.10747 0.32615
v -0.14852 0.10196 0.32240
v -0.14134 0.09645 0.32615
v -0.13836 0.09417 0.33520
v -0.14134 0.09645 0.34425
v -0.14852 0.10196 0.34800
v -0.15570 0.10747 0.34425
v -0.17321 0.08800 0.33520
v -0.16996 0.08613 0.32615
v -0.16212 0.08160 0.32240
v -0.15428 0.07707 0.32615
v -0.15103 0.07520 0.33520
v -0.15428 0.07707 0.34425
v -0.16212 0.08160 0.34800
v -0.16996 0.08613 0.34425
v -0.18478 0.06454 0.33520
v -0.18131 0.06310 0.32615
v -0.17295 0.05964 0.32240
v -0.16459 0.05617 0.32615
v -0.16112 0.05474 0.33520
v -0.16459 0.05617 0.34425
v -0.17295 0.05964 0.34800
v -0.18131 0.06310 0.34425
v -0.19319 0.03976 0.33520
v -0.18956 0.03879 0.32615
v -0.18082 0.03645 0.32240
v -0.17208 0.03411 0.32615
v -0.16846 0.03314 0.33520
v -0.17208 0.03411 0.34425
v -0.18082 0.03645 0.34800
v -0.18956 0.03879 0.34425
v -0.19829 0.01411 0.33520
v -0.19457 0.01362 0.32615
v -0.18560 0.01243 0.32240
v -0.17662 0.01125 0.32615
v -0.17291 0.01076 0.33520
v -0.17662 0.01125 0.34425
v -0.18560 0.01243 0.34800
v -0.19457 0.01362 0.34425
v -0.20000 -0.01200 0.33520
v -0.19625 -0.01200 0.32615
v -0.18720 -0.01200 0.32240
v -0.17815 -0.01200 0.32615
v -0.17440 -0.01200 0.33520
v -0.17815 -0.01200 0.34425
v -0.18720 -0.01200 0.34800
v -0.19625 -0.01200 0.34425
v -0.19829 -0.03811 0.33520
v -0.19457 -0.03762 0.32615
v -0.18560 -0.03643 0.32240
v -0.17662 -0.03525 0.32615
v -0.17291 -0.03476 0.33520
v -0.17662 -0.03525 0.34425
v -0.18560 -0.03643 0.34800
v -0.19457 -0.03762 0.34425
v -0.19319 -0.06376 0.33520
v -0.18956 -0.06279 0.32615
v -0.18082 -0.06045 0.32240
v -0.17208 -0.05811 0.32615
v -0.16846 -0.05714 0.33520
v -0.17208 -0.05811 0.34425
v -0.18082 -0.06045 0.34800
v -0.18956 -0.06279 0.34425
v -0.18478 -0.08854 0.33520
v -0.18131 -0.08710 0.32615
v -0.17295 -0.08364 0.32240
v -0.16459 -0.08017 0.32615
v -0.16112 -0.07874 0.33520
v -0.16459 -0.08017 0.34425
v -0.17295 -0.08364 0.34800
v -0.18131 -0.08710 0.34425
v -0.17321 -0.11200 0.33520
v -0.16996 -0.11013 0.32615
v -0.16212 -0.10560 0.32240
v -0.15428 -0.10107 0.32615
v -0.15103 -0.09920 0.33520
v -0.15428 -0.10107 0.34425
v -0.16212 -0.10560 0.34800
v -0.16996 -0.11013 0.34425
v -0.15867 -0.13375 0.33520
v -0.15570 -0.13147 0.32615
v -0.14852 -0.12596 0.32240
v -0.14134 -0.12045 0.32615
v -0.13836 -0.11817 0.33520
v -0.14134 -0.12045 0.34425
v -0.14852 -0.12596 0.34800
v -0.15570 -0.13147 0.34425
v -0.14142 -0.15342 0.33520
v -0.13877 -0.15077 0.32615
v -0.13237 -0.14437 0.32240
v -0.12597 -0.13797 0.32615
v -0.12332 -0.13532 0.33520
v -0.12597 -0.13797 0.34425
v -0.13237 -0.14437 0.34800
v -0.13877 -0.15077 0.34425
v -0.12175 -0.17067 0.33520
v -0.11947 -0.16770 0.32615
v -0.11396 -0.16052 0.32240
v -0.10845 -0.15334 0.32615
v -0.10617 -0.15036 0.33520
v -0.10845 -0.15334 0.34425
v -0.11396 -0.16052 0.34800
v -0.11947 -0.16770 0.34425
v -0.10000 -0.18521 0.33520
v -0.09813 -0.18196 0.32615
v -0.09360 -0.17412 0.32240
v -0.08907 -0.16628 0.32615
v -0.08720 -0.16303 0.33520
v -0.08907 -0.16628 0.34425
v -0.09360 -0.17412 0.34800
v -0.09813 -0.18196 0.34425
v -0.07654 -0.19678 0.33520
v -0.07510 -0.19331 0.32615
v -0.07164 -0.18495 0.32240
v -0.06817 -0.17659 0.32615
v -0.06674 -0.17312 0.33520
v -0.06817 -0.17659 0.34425
v -0.07164 -0.18495 0.34800
v -0.07510 -0.19331 0.34425
v -0.05176 -0.20519 0.33520
v -0.05079 -0.20156 0.32615
v -0.04845 -0.19282 0.32240
v -0.04611 -0.18408 0.32615
v -0.04514 -0.18046 0.33520
v -0.04611 -0.18408 0.34425
v -0.04845 -0.19282 0.34800
v -0.05079 -0.20156 0.34425
v -0.02611 -0.21029 0.33520
v -0.02562 -0.20657 0.32615
v -0.02443 -0.19760 0.32240
v -0.02325 -0.18862 0.32615
v -0.02276 -0.18491 0.33520
v -0.02325 -0.18862 0.34425
v -0.02443 -0.19760 0.34800
v -0.02562 -0.20657 0.34425
v -0.00000 -0.21200 0.33520
v -0.00000 -0.20825 0.32615
v -0.00000 -0.19920 0.32240
v 0.00000 -0.19015 0.32615
v 0.00000 -0.18640 0.33520
v 0.00000 -0.19015 0.34425
v -0.00000 -0.19920 0.34800
v -0.00000 -0.20825 0.34425
v 0.02611 -0.21029 0.33520
v 0.02562 -0.20657 0.32615
v 0.02443 -0.19760 0.32240
v 0.02325 -0.18862 0.32615
v 0.02276 -0.18491 0.33520
v 0.02325 -0.18862 0.34425
v 0.02443 -0.19760 0.34800
v 0.02562 -0.20657 0.34425
v 0.05176 -0.20519 0.33520
v 0.05079 -0.20156 0.32615
v 0.04845 -0.19282 0.32240
v 0.04611 -0.18408 0.32615
v 0.04514 -0.18046 0.33520
v 0.04611 -0.18408 0.34425
v 0.04845 -0.19282 0.34800
v 0.05079 -0.20156 0.34425
v 0.07654 -0.19678 0.33520
v 0.07510 -0.19331 0.32615
v 0.07164 -0.18495 0.32240
v 0.06817 -0.17659 0.32615
v 0.06674 -0.17312 0.33520
v 0.06817 -0.17659 0.34425
v 0.07164 -0.18495 0.34800
v 0.07510 -0.19331 0.34425
v 0.10000 -0.18521 0.33520
v 0.09813 -0.18196 0.32615
v 0.09360 -0.17412 0.32240
v 0.08907 -0.16628 0.32615
v 0.08720 -0.16303 0.33520
v 0.08907 -0.16628 0.34425
v 0.09360 -0.17412 0.34800
v 0.09813 -0.18196 0.34425
v 0.12175 -0.17067 0.33520
v 0.11947 -0.16770 0.32615
v 0.11396 -0.16052 0.32240
v 0.10845 -0.15334 0.32615
v 0.10617 -0.15036 0.33520
v 0.10845 -0.15334 0.34425
v 0.11396 -0.16052 0.34800
v 0.11947 -0.16770 0.34425
v 0.14142 -0.15342 0.33520
v 0.13877 -0.15077 0.32615
v 0.13237 -0.14437 0.32240
v 0.12597 -0.13797 0.32615
v 0.12332 -0.13532 0.33520
v 0.12597 -0.13797 0.34425
v 0.13237 -0.14437 0.34800
v 0.13877 -0.15077 0.34425
v 0.15867 -0.13375 0.33520
v 0.15570 -0.13147 0.32615
v 0.14852 -0.12596 0.32240
v 0.14134 -0.12045 0.32615
v 0.13836 -0.11817 0.33520
v 0.14134 -0.12045 0.34425
v 0.14852 -0.12596 0.34800
v 0.15570 -0.13147 0.34425
v 0.17321 -0.11200 0.33520
v 0.16996 -0.11013 0.32615
v 0.16212 -0.10560 0.32240
v 0.15428 -0.10107 0.32615
v 0.15103 -0.09920 0.33520
v 0.15428 -0.10107 0.34425
v 0.16212 -0.10560 0.34800
v 0.16996 -0.11013 0.34425
v 0.18478 -0.08854 0.33520
v 0.18131 -0.08710 0.32615
v 0.17295 -0.08364 0.32240
v 0.16459 -0.08017 0.32615
v 0.16112 -0.07874 0.33520
v 0.16459 -0.08017 0.34425
v 0.17295 -0.08364 0.34800
v 0.18131 -0.08710 0.34425
v 0.19319 -0.06376 0.33520
v 0.18956 -0.06279 0.32615
v 0.18082 -0.06045 0.32240
v 0.17208 -0.05811 0.32615
v 0.16846 -0.05714 0.33520
v 0.17208 -0.05811 0.34425
v 0.18082 -0.06045 0.34800
v 0.18956 -0.06279 0.34425
v 0.19829 -0.03811 0.33520
v 0.19457 -0.03762 0.32615
v 0.18560 -0.03643 0.32240
v 0.17662 -0.03525 0.32615
v 0.17291 -0.03476 0.33520
v 0.17662 -0.03525 0.34425
v 0.18560 -0.03643 0.34800
v 0.19457 -0.03762 0.34425
v 0.20000 -0.01200 0.33520
v 0.19625 -0.01200 0.32615
v 0.18720 -0.01200 0.32240
v 0.17815 -0.01200 0.32615
v 0.17440 -0.01200 0.33520
v 0.17815 -0.01200 0.34425
v 0.18720 -0.01200 0.34800
v 0.19625 -0.01200 0.34425
v 0.19829 0.01411 0.33520
v 0.19457 0.01362 0.32615
v 0.18560 0.01243 0.32240
v 0.17662 0.01125 0.32615
v 0.17291 0.01076 0.33520
v 0.17662 0.01125 0.34425
v 0.18560 0.01243 0.34800
v 0.19457 0.01362 0.34425
v 0.19319 0.03976 0.33520
v 0.18956 0.03879 0.32615
v 0.18082 0.03645 0.32240
v 0.17208 0.03411 0.32615
v 0.16846 0.03314 0.33520
v 0.17208 0.03411 0.34425
v 0.18082 0.03645 0.34800
v 0.18956 0.03879 0.34425
v 0.18478 0.06454 0.33520
v 0.18131 0.06310 0.32615
v 0.17295 0.05964 0.32240
v 0.16459 0.05617 0.32615
v 0.16112 0.05474 0.33520
v 0.16459 0.05617 0.34425
v 0.17295 0.05964 0.34800
v 0.18131 0.06310 0.34425
v 0.17321 0.08800 0.33520
v 0.16996 0.08613 0.32615
v 0.16212 0.08160 0.32240
v 0.15428 0.07707 0.32615
v 0.15103 0.07520 0.33520
v 0.15428 0.07707 0.34425
v 0.16212 0.08160 0.34800
v 0.16996 0.08613 0.34425
v 0.15867 0.10975 0.33520
v 0.15570 0.10747 0.32615
v 0.14852 0.10196 0.32240
v 0.14134 0.09645 0.32615
v 0.13836 0.09417 0.33520
v 0.14134 0.09645 0.34425
v 0.14852 0.10196 0.34800
v 0.15570 0.10747 0.34425
v 0.14142 0.12942 0.33520
v 0.13877 0.12677 0.32615
v 0.13237 0.12037 0.32240
v 0.12597 0.11397 0.32615
v 0.12332 0.11132 0.33520
v 0.12597 0.11397 0.34425
v 0.13237 0.12037 0.34800
v 0.13877 0.12677 0.34425
v 0.12175 0.14667 0.33520
v 0.11947 0.14370 0.32615
v 0.11396 0.13652 0.32240
v 0.10845 0.12934 0.32615
v 0.10617 0.12636 0.33520
v 0.10845 0.12934 0.34425
v 0.11396 0.13652 0.34800
v 0.11947 0.14370 0.34425
v 0.10000 0.16121 0.33520
v 0.09813 0.15796 0.32615
v 0.09360 0.15012 0.32240
v 0.08907 0.14228 0.32615
v 0.08720 0.13903 0.33520
v 0.08907 0.14228 0.34425
v 0.09360 0.15012 0.34800
v 0.09813 0.15796 0.34425
v 0.07654 0.17278 0.33520
v 0.07510 0.16931 0.32615
v 0.07164 0.16095 0.32240
v 0.06817 0.15259 0.32615
v 0.06674 0.14912 0.33520
v 0.06817 0.15259 0.34425
v 0.07164 0.16095 0.34800
v 0.07510 0.16931 0.34425
v 0.05176 0.18119 0.33520
v 0.05079 0.17756 0.32615
v 0.04845 0.16882 0.32240
v 0.04611 0.16008 0.32615
v 0.04514 0.15646 0.33520
v 0.04611 0.16008 0.34425
v 0.04845 0.16882 0.34800
v 0.05079 0.17756 0.34425
v 0.02611 0.18629 0.33520
v 0.02562 0.18257 0.32615
v 0.02443 0.17360 0.32240
v 0.02325 0.16462 0.32615
v 0.02276 0.16091 0.33520
v 0.02325 0.16462 0.34425
v 0.02443 0.17360 0.34800
v 0.02562 0.18257 0.34425
v 0.00084 0.18797 0.33520
v 0.00059 0.18423 0.32615
v 0.00000 0.17520 0.32240
v -0.00059 0.16617 0.32615
v -0.00084 0.16243 0.33520
v -0.00059 0.16617 0.34425
v 0.00000 0.17520 0.34800
v 0.00059 0.18423 0.34425
v -0.00000 0.04240 -0.31600
v -0.00000 0.00882 -0.28644
v -0.00000 -0.01200 -0.28400
v -0.00000 -0.03282 -0.28644
v -0.00000 -0.06226 -0.30375
v -0.00000 -0.06640 -0.31600
v -0.00797 0.03826 -0.30469
v -0.01472 0.02647 -0.29509
v -0.01923 0.00882 -0.28869
v -0.02082 -0.01200 -0.28644
v -0.01923 -0.03282 -0.28869
v -0.01472 -0.05047 -0.29509
v -0.00797 -0.06226 -0.30469
v -0.01472 0.03826 -0.30734
v -0.02720 0.02647 -0.30000
v -0.03554 0.00882 -0.29509
v -0.03847 -0.01200 -0.29337
v -0.03554 -0.03282 -0.29509
v -0.02720 -0.05047 -0.30000
v -0.01472 -0.06226 -0.30734
v -0.01923 0.03826 -0.31131
v -0.03554 0.02647 -0.30734
v -0.04643 0.00882 -0.30469
v -0.05026 -0.01200 -0.30375
v -0.04643 -0.03282 -0.30469
v -0.03554 -0.05047 -0.30734
v -0.01923 -0.06226 -0.31131
v -0.02082 0.03826 -0.31600
v -0.03847 0.02647 -0.31600
v -0.05026 0.00882 -0.31600
v -0.05440 -0.01200 -0.31600
v -0.05026 -0.03282 -0.31600
v -0.03847 -0.05047 -0.31600
v -0.02082 -0.06226 -0.31600
v -0.01923 0.03826 -0.32069
v -0.03554 0.02647 -0.32466
v -0.04643 0.00882 -0.32731
v -0.05026 -0.01200 -0.32825
v -0.04643 -0.03282 -0.32731
v -0.03554 -0.05047 -0.32466
v -0.01923 -0.06226 -0.32069
v -0.01472 0.03826 -0.32466
v -0.02720 0.02647 -0.33200
v -0.03554 0.00882 -0.33691
v -0.03847 -0.01200 -0.33863
v -0.03554 -0.03282 -0.33691
v -0.02720 -0.05047 -0.33200
v -0.01472 -0.06226 -0.32466
v -0.00797 0.03826 -0.32731
v -0.01472 0.02647 -0.33691
v -0.01923 0.00882 -0.34331
v -0.02082 -0.01200 -0.34556
v -0.01923 -0.03282 -0.34331
v -0.01472 -0.05047 -0.33691
v -0.00797 -0.06226 -0.32731
v 0.00000 0.03826 -0.32825
v 0.00000 0.02647 -0.33863
v 0.00000 0.00882 -0.34556
v 0.00000 -0.01200 -0.34800
v 0.00000 -0.03282 -0.34556
v 0.00000 -0.05047 -0.33863
v 0.00000 -0.06226 -0.32825
v 0.00797 0.03826 -0.32731
v 0.01472 0.02647 -0.33691
v 0.01923 0.00882 -0.34331
v 0.02082 -0.01200 -0.34556
v 0.01923 -0.03282 -0.34331
v 0.01472 -0.05047 -0.33691
v 0.00797 -0.06226 -0.32731
v 0.01472 0.03826 -0.32466
v 0.02720 0.02647 -0.33200
v 0.03554 0.00882 -0.33691
v 0.03847 -0.01200 -0.33863
v 0.03554 -0.03282 -0.33691
v 0.02720 -0.05047 -0.33200
v 0.01472 -0.06226 -0.32466
v 0.01923 0.03826 -0.32069
v 0.03554 0.02647 -0.32466
v 0.04643 0.00882 -0.32731
v 0.05026 -0.01200 -0.32825
v 0.04643 -0.03282 -0.32731
v 0.03554 -0.05047 -0.32466
v 0.01923 -0.06226 -0.32069
v 0.02082 0.03826 -0.31600
v 0.03847 0.02647 -0.31600
v 0.05026 0.00882 -0.31600
v 0.05440 -0.01200 -0.31600
v 0.05026 -0.03282 -0.31600
v 0.03847 -0.05047 -0.31600
v 0.02082 -0.06226 -0.31600
v 0.01923 0.03826 -0.31131
v 0.03554 0.02647 -0.30734
v 0.04643 0.00882 -0.30469
v 0.05026 -0.01200 -0.30375
v 0.04643 -0.03282 -0.30469
v 0.03554 -0.05047 -0.30734
v 0.01923 -0.06226 -0.31131
v 0.01472 0.03826 -0.30734
v 0.02720 0.02647 -0.30000
v 0.03554 0.00882 -0.29509
v 0.03847 -0.01200 -0.29337
v 0.03554 -0.03282 -0.29509
v 0.02720 -0.05047 -0.30000
v 0.01472 -0.06226 -0.30734
v 0.00797 0.03826 -0.30469
v 0.01472 0.02647 -0.29509
v 0.01923 0.00882 -0.28869
v 0.02082 -0.01200 -0.28644
v 0.01923 -0.03282 -0.28869
v 0.01472 -0.05047 -0.29509
v 0.00797 -0.06226 -0.30469
v -0.00000 0.03826 -0.30375
v -0.00000 0.02647 -0.29337
v -0.00000 -0.05047 -0.29337
f 12 13 11
f 10 11 9
f 2 3 1
f 10 14 12
f 18 19 17
f 4 5 3
f 4 8 6
f 20 21 19
f 6 7 5
f 8 1 7
f 3 7 1
f 14 15 13
f 16 9 15
f 13 9 11
f 23 19 21
f 22 23 21
f 24 17 23
f 20 24 22
f 12 14 13
f 10 12 11
f 2 4 3
f 10 16 14
f 18 20 19
f 4 6 5
f 4 2 8
f 20 22 21
f 6 8 7
f 8 2 1
f 3 5 7
f 14 16 15
f 16 10 9
f 13 15 9
f 23 17 19
f 22 24 23
f 24 18 17
f 20 18 24
f 25 34 33
f 26 35 34
f 27 36 35
f 28 37 36
f 30 37 29
f 31 38 30
f 32 39 31
f 25 40 32
f 33 42 41
f 35 42 34
f 35 44 43
f 36 45 44
f 38 45 37
f 38 47 46
f 40 47 39
f 40 41 48
f 41 50 49
f 42 51 50
f 43 52 51
f 45 52 44
f 46 53 45
f 47 54 46
f 48 55 47
f 48 49 56
f 50 57 49
f 50 59 58
f 52 59 51
f 52 61 60
f 53 62 61
f 54 63 62
f 56 63 55
f 56 57 64
f 57 66 65
f 59 66 58
f 59 68 67
f 61 68 60
f 61 70 69
f 63 70 62
f 63 72 71
f 57 72 64
f 66 73 65
f 66 75 74
f 67 76 75
f 68 77 76
f 70 77 69
f 71 78 70
f 71 80 79
f 65 80 72
f 74 81 73
f 75 82 74
f 75 84 83
f 76 85 84
f 78 85 77
f 79 86 78
f 79 88 87
f 73 88 80
f 82 89 81
f 83 90 82
f 83 92 91
f 84 93 92
f 86 93 85
f 86 95 94
f 87 96 95
f 88 89 96
f 90 97 89
f 90 99 98
f 92 99 91
f 92 101 100
f 93 102 101
f 94 103 102
f 96 103 95
f 89 104 96
f 98 105 97
f 99 106 98
f 100 107 99
f 100 109 108
f 102 109 101
f 102 111 110
f 104 111 103
f 97 112 104
f 106 113 105
f 106 115 114
f 108 115 107
f 108 117 116
f 110 117 109
f 110 119 118
f 112 119 111
f 105 120 112
f 114 121 113
f 115 122 114
f 115 124 123
f 116 125 124
f 117 126 125
f 119 126 118
f 119 128 127
f 120 121 128
f 121 130 129
f 122 131 130
f 124 131 123
f 125 132 124
f 126 133 125
f 127 134 126
f 128 135 127
f 121 136 128
f 129 138 137
f 131 138 130
f 131 140 139
f 133 140 132
f 133 142 141
f 135 142 134
f 135 144 143
f 136 137 144
f 138 145 137
f 139 146 138
f 139 148 147
f 141 148 140
f 141 150 149
f 143 150 142
f 143 152 151
f 137 152 144
f 146 153 145
f 147 154 146
f 147 156 155
f 148 157 156
f 150 157 149
f 151 158 150
f 151 160 159
f 152 153 160
f 153 162 161
f 154 163 162
f 156 163 155
f 156 165 164
f 157 166 165
f 159 166 158
f 160 167 159
f 160 161 168
f 161 170 169
f 163 170 162
f 163 172 171
f 165 172 164
f 165 174 173
f 166 175 174
f 168 175 167
f 168 169 176
f 169 178 177
f 170 179 178
f 172 179 171
f 173 180 172
f 173 182 181
f 174 183 182
f 176 183 175
f 169 184 176
f 178 185 177
f 178 187 186
f 180 187 179
f 180 189 188
f 181 190 189
f 182 191 190
f 184 191 183
f 184 185 192
f 185 194 193
f 186 195 194
f 187 196 195
f 189 196 188
f 190 197 189
f 191 198 190
f 192 199 191
f 192 193 200
f 194 201 193
f 194 203 202
f 196 203 195
f 196 205 204
f 197 206 205
f 199 206 198
f 199 208 207
f 193 208 200
f 202 209 201
f 202 211 210
f 204 211 203
f 205 212 204
f 205 214 213
f 207 214 206
f 207 216 215
f 201 216 208
f 209 218 217
f 211 218 210
f 212 219 211
f 212 221 220
f 214 221 213
f 214 223 222
f 215 224 223
f 216 217 224
f 218 225 217
f 218 227 226
f 220 227 219
f 221 228 220
f 222 229 221
f 223 230 222
f 224 231 223
f 217 232 224
f 225 234 233
f 227 234 226
f 227 236 235
f 228 237 236
f 230 237 229
f 230 239 238
f 232 239 231
f 232 233 240
f 233 242 241
f 234 243 242
f 235 244 243
f 236 245 244
f 237 246 245
f 239 246 238
f 240 247 239
f 240 241 248
f 242 249 241
f 242 251 250
f 244 251 243
f 245 252 244
f 246 253 245
f 246 255 254
f 248 255 247
f 241 256 248
f 249 258 257
f 251 258 250
f 251 260 259
f 253 260 252
f 253 262 261
f 255 262 254
f 255 264 263
f 249 264 256
f 258 265 257
f 258 267 266
f 259 268 267
f 260 269 268
f 262 269 261
f 263 270 262
f 263 272 271
f 257 272 264
f 266 273 265
f 267 274 266
f 267 276 275
f 268 277 276
f 270 277 269
f 271 278 270
f 271 280 279
f 265 280 272
f 274 281 273
f 275 282 274
f 275 284 283
f 276 285 284
f 278 285 277
f 278 287 286
f 279 288 287
f 280 281 288
f 282 289 281
f 282 291 290
f 284 291 283
f 284 293 292
f 285 294 293
f 286 295 294
f 288 295 287
f 281 296 288
f 290 297 289
f 291 298 290
f 292 299 291
f 292 301 300
f 294 301 293
f 294 303 302
f 296 303 295
f 289 304 296
f 298 305 297
f 298 307 306
f 300 307 299
f 300 309 308
f 302 309 301
f 302 311 310
f 304 311 303
f 297 312 304
f 306 313 305
f 307 314 306
f 307 316 315
f 308 317 316
f 309 318 317
f 311 318 310
f 311 320 319
f 312 313 320
f 313 322 321
f 314 323 322
f 316 323 315
f 317 324 316
f 318 325 317
f 319 326 318
f 320 327 319
f 313 328 320
f 321 330 329
f 323 330 322
f 323 332 331
f 325 332 324
f 325 334 333
f 327 334 326
f 327 336 335
f 328 329 336
f 330 337 329
f 331 338 330
f 331 340 339
f 333 340 332
f 333 342 341
f 335 342 334
f 335 344 343
f 329 344 336
f 338 345 337
f 339 346 338
f 339 348 347
f 340 349 348
f 342 349 341
f 343 350 342
f 343 352 351
f 344 345 352
f 345 354 353
f 346 355 354
f 348 355 347
f 348 357 356
f 349 358 357
f 351 358 350
f 352 359 351
f 352 353 360
f 353 362 361
f 355 362 354
f 355 364 363
f 357 364 356
f 357 366 365
f 358 367 366
f 360 367 359
f 360 361 368
f 361 370 369
f 362 371 370
f 364 371 363
f 365 372 364
f 365 374 373
f 366 375 374
f 368 375 367
f 361 376 368
f 370 377 369
f 370 379 378
f 372 379 371
f 372 381 380
f 373 382 381
f 374 383 382
f 376 383 375
f 376 377 384
f 377 386 385
f 378 387 386
f 379 388 387
f 381 388 380
f 382 389 381
f 383 390 382
f 384 391 383
f 384 385 392
f 386 393 385
f 386 395 394
f 388 395 387
f 388 397 396
f 389 398 397
f 391 398 390
f 391 400 399
f 385 400 392
f 394 401 393
f 394 403 402
f 396 403 395
f 397 404 396
f 397 406 405
f 399 406 398
f 399 408 407
f 393 408 400
f 402 409 401
f 403 410 402
f 404 411 403
f 405 412 404
f 405 414 413
f 406 415 414
f 407 416 415
f 408 409 416
f 25 26 34
f 26 27 35
f 27 28 36
f 28 29 37
f 30 38 37
f 31 39 38
f 32 40 39
f 25 33 40
f 33 34 42
f 35 43 42
f 35 36 44
f 36 37 45
f 38 46 45
f 38 39 47
f 40 48 47
f 40 33 41
f 41 42 50
f 42 43 51
f 43 44 52
f 45 53 52
f 46 54 53
f 47 55 54
f 48 56 55
f 48 41 49
f 50 58 57
f 50 51 59
f 52 60 59
f 52 53 61
f 53 54 62
f 54 55 63
f 56 64 63
f 56 49 57
f 57 58 66
f 59 67 66
f 59 60 68
f 61 69 68
f 61 62 70
f 63 71 70
f 63 64 72
f 57 65 72
f 66 74 73
f 66 67 75
f 67 68 76
f 68 69 77
f 70 78 77
f 71 79 78
f 71 72 80
f 65 73 80
f 74 82 81
f 75 83 82
f 75 76 84
f 76 77 85
f 78 86 85
f 79 87 86
f 79 80 88
f 73 81 88
f 82 90 89
f 83 91 90
f 83 84 92
f 84 85 93
f 86 94 93
f 86 87 95
f 87 88 96
f 88 81 89
f 90 98 97
f 90 91 99
f 92 100 99
f 92 93 101
f 93 94 102
f 94 95 103
f 96 104 103
f 89 97 104
f 98 106 105
f 99 107 106
f 100 108 107
f 100 101 109
f 102 110 109
f 102 103 111
f 104 112 111
f 97 105 112
f 106 114 113
f 106 107 115
f 108 116 115
f 108 109 117
f 110 118 117
f 110 111 119
f 112 120 119
f 105 113 120
f 114 122 121
f 115 123 122
f 115 116 124
f 116 117 125
f 117 118 126
f 119 127 126
f 119 120 128
f 120 113 121
f 121 122 130
f 122 123 131
f 124 132 131
f 125 133 132
f 126 134 133
f 127 135 134
f 128 136 135
f 121 129 136
f 129 130 138
f 131 139 138
f 131 132 140
f 133 141 140
f 133 134 142
f 135 143 142
f 135 136 144
f 136 129 137
f 138 146 145
f 139 147 146
f 139 140 148
f 141 149 148
f 141 142 150
f 143 151 150
f 143 144 152
f 137 145 152
f 146 154 153
f 147 155 154
f 147 148 156
f 148 149 157
f 150 158 157
f 151 159 158
f 151 152 160
f 152 145 153
f 153 154 162
f 154 155 163
f 156 164 163
f 156 157 165
f 157 158 166
f 159 167 166
f 160 168 167
f 160 153 161
f 161 162 170
f 163 171 170
f 163 164 172
f 165 173 172
f 165 166 174
f 166 167 175
f 168 176 175
f 168 161 169
f 169 170 178
f 170 171 179
f 172 180 179
f 173 181 180
f 173 174 182
f 174 175 183
f 176 184 183
f 169 177 184
f 178 186 185
f 178 179 187
f 180 188 187
f 180 181 189
f 181 182 190
f 182 183 191
f 184 192 191
f 184 177 185
f 185 186 194
f 186 187 195
f 187 188 196
f 189 197 196
f 190 198 197
f 191 199 198
f 192 200 199
f 192 185 193
f 194 202 201
f 194 195 203
f 196 204 203
f 196 197 205
f 197 198 206
f 199 207 206
f 199 200 208
f 193 201 208
f 202 210 209
f 202 203 211
f 204 212 211
f 205 213 212
f 205 206 214
f 207 215 214
f 207 208 216
f 201 209 216
f 209 210 218
f 211 219 218
f 212 220 219
f 212 213 221
f 214 222 221
f 214 215 223
f 215 216 224
f 216 209 217
f 218 226 225
f 218 219 227
f 220 228 227
f 221 229 228
f 222 230 229
f 223 231 230
f 224 232 231
f 217 225 232
f 225 226 234
f 227 235 234
f 227 228 236
f 228 229 237
f 230 238 237
f 230 231 239
f 232 240 239
f 232 225 233
f 233 234 242
f 234 235 243
f 235 236 244
f 236 237 245
f 237 238 246
f 239 247 246
f 240 248 247
f 240 233 241
f 242 250 249
f 242 243 251
f 244 252 251
f 245 253 252
f 246 254 253
f 246 247 255
f 248 256 255
f 241 249 256
f 249 250 258
f 251 259 258
f 251 252 260
f 253 261 260
f 253 254 262
f 255 263 262
f 255 256 264
f 249 257 264
f 258 266 265
f 258 259 267
f 259 260 268
f 260 261 269
f 262 270 269
f 263 271 270
f 263 264 272
f 257 265 272
f 266 274 273
f 267 275 274
f 267 268 276
f 268 269 277
f 270 278 277
f 271 279 278
f 271 272 280
f 265 273 280
f 274 282 281
f 275 283 282
f 275 276 284
f 276 277 285
f 278 286 285
f 278 279 287
f 279 280 288
f 280 273 281
f 282 290 289
f 282 283 291
f 284 292 291
f 284 285 293
f 285 286 294
f 286 287 295
f 288 296 295
f 281 289 296
f 290 298 297
f 291 299 298
f 292 300 299
f 292 293 301
f 294 302 301
f 294 295 303
f 296 304 303
f 289 297 304
f 298 306 305
f 298 299 307
f 300 308 307
f 300 301 309
f 302 310 309
f 302 303 311
f 304 312 311
f 297 305 312
f 306 314 313
f 307 315 314
f 307 308 316
f 308 309 317
f 309 310 318
f 311 319 318
f 311 312 320
f 312 305 313
f 313 314 322
f 314 315 323
f 316 324 323
f 317 325 324
f 318 326 325
f 319 327 326
f 320 328 327
f 313 321 328
f 321 322 330
f 323 331 330
f 323 324 332
f 325 333 332
f 325 326 334
f 327 335 334
f 327 328 336
f 328 321 329
f 330 338 337
f 331 339 338
f 331 332 340
f 333 341 340
f 333 334 342
f 335 343 342
f 335 336 344
f 329 337 344
f 338 346 345
f 339 347 346
f 339 340 348
f 340 341 349
f 342 350 349
f 343 351 350
f 343 344 352
f 344 337 345
f 345 346 354
f 346 347 355
f 348 356 355
f 348 349 357
f 349 350 358
f 351 359 358
f 352 360 359
f 352 345 353
f 353 354 362
f 355 363 362
f 355 356 364
f 357 365 364
f 357 358 366
f 358 359 367
f 360 368 367
f 360 353 361
f 361 362 370
f 362 363 371
f 364 372 371
f 365 373 372
f 365 366 374
f 366 367 375
f 368 376 375
f 361 369 376
f 370 378 377
f 370 371 379
f 372 380 379
f 372 373 381
f 373 374 382
f 374 375 383
f 376 384 383
f 376 369 377
f 377 378 386
f 378 379 387
f 379 380 388
f 381 389 388
f 382 390 389
f 383 391 390
f 384 392 391
f 384 377 385
f 386 394 393
f 386 387 395
f 388 396 395
f 388 389 397
f 389 390 398
f 391 399 398
f 391 392 400
f 385 393 400
f 394 402 401
f 394 395 403
f 396 404 403
f 397 405 404
f 397 398 406
f 399 407 406
f 399 400 408
f 393 401 408
f 402 410 409
f 403 411 410
f 404 412 411
f 405 413 412
f 405 406 414
f 406 407 415
f 407 408 416
f 408 401 409
f 422 421 429
f 420 428 530
f 419 425 426
f 529 423 424
f 530 429 421
f 419 427 420
f 418 424 425
f 528 417 423
f 424 430 431
f 428 436 429
f 426 434 427
f 425 431 432
f 423 417 430
f 422 429 436
f 427 435 428
f 426 432 433
f 435 443 436
f 433 441 434
f 432 438 439
f 430 417 437
f 422 436 443
f 434 442 435
f 433 439 440
f 431 437 438
f 437 417 444
f 422 443 450
f 441 449 442
f 440 446 447
f 438 444 445
f 442 450 443
f 440 448 441
f 439 445 446
f 449 455 456
f 446 454 447
f 444 452 445
f 450 456 457
f 448 454 455
f 445 453 446
f 444 417 451
f 422 450 457
f 457 463 464
f 455 461 462
f 452 460 453
f 451 417 458
f 422 457 464
f 456 462 463
f 453 461 454
f 451 459 452
f 462 468 469
f 459 467 460
f 458 417 465
f 422 464 471
f 463 469 470
f 460 468 461
f 458 466 459
f 464 470 471
f 422 471 478
f 470 476 477
f 467 475 468
f 465 473 466
f 471 477 478
f 469 475 476
f 466 474 467
f 465 417 472
f 475 481 482
f 473 479 480
f 477 485 478
f 475 483 476
f 474 480 481
f 472 417 479
f 422 478 485
f 476 484 477
f 484 492 485
f 482 490 483
f 481 487 488
f 479 417 486
f 422 485 492
f 483 491 484
f 482 488 489
f 480 486 487
f 488 494 495
f 486 417 493
f 422 492 499
f 490 498 491
f 489 495 496
f 487 493 494
f 491 499 492
f 489 497 490
f 422 499 506
f 497 505 498
f 496 502 503
f 494 500 501
f 498 506 499
f 496 504 497
f 495 501 502
f 493 417 500
f 500 508 501
f 506 512 513
f 504 510 511
f 501 509 502
f 500 417 507
f 422 506 513
f 505 511 512
f 502 510 503
f 513 519 520
f 511 517 518
f 508 516 509
f 507 417 514
f 422 513 520
f 512 518 519
f 509 517 510
f 507 515 508
f 514 417 521
f 422 520 527
f 519 525 526
f 516 524 517
f 514 522 515
f 520 526 527
f 518 524 525
f 515 523 516
f 526 420 530
f 523 419 524
f 521 529 522
f 527 530 421
f 525 419 420
f 522 418 523
f 521 417 528
f 422 527 421
f 420 427 428
f 419 418 425
f 529 528 423
f 530 428 429
f 419 426 427
f 418 529 424
f 424 423 430
f 428 435 436
f 426 433 434
f 425 424 431
f 427 434 435
f 426 425 432
f 435 442 443
f 433 440 441
f 432 431 438
f 434 441 442
f 433 432 439
f 431 430 437
f 441 448 449
f 440 439 446
f 438 437 444
f 442 449 450
f 440 447 448
f 439 438 445
f 449 448 455
f 446 453 454
f 444 451 452
f 450 449 456
f 448 447 454
f 445 452 453
f 457 456 463
f 455 454 461
f 452 459 460
f 456 455 462
f 453 460 461
f 451 458 459
f 462 461 468
f 459 466 467
f 463 462 469
f 460 467 468
f 458 465 466
f 464 463 470
f 470 469 476
f 467 474 475
f 465 472 473
f 471 470 477
f 469 468 475
f 466 473 474
f 475 474 481
f 473 472 479
f 477 484 485
f 475 482 483
f 474 473 480
f 476 483 484
f 484 491 492
f 482 489 490
f 481 480 487
f 483 490 491
f 482 481 488
f 480 479 486
f 488 487 494
f 490 497 498
f 489 488 495
f 487 486 493
f 491 498 499
f 489 496 497
f 497 504 505
f 496 495 502
f 494 493 500
f 498 505 506
f 496 503 504
f 495 494 501
f 500 507 508
f 506 505 512
f 504 503 510
f 501 508 509
f 505 504 511
f 502 509 510
f 513 512 519
f 511 510 517
f 508 515 516
f 512 511 518
f 509 516 517
f 507 514 515
f 519 518 525
f 516 523 524
f 514 521 522
f 520 519 526
f 518 517 524
f 515 522 523
f 526 525 420
f 523 418 419
f 521 528 529
f 527 526 530
f 525 524 419
f 522 529 418
