# apex Housing_Gunmetal.obj: Roblox cue frame, recentred on its bounding box
v -0.00000 0.21180 0.40519
v 0.02928 0.20950 0.40519
v 0.05785 0.20264 0.40519
v 0.08499 0.19140 0.40519
v 0.11003 0.17605 0.40519
v 0.13237 0.15697 0.40519
v 0.15145 0.13464 0.40519
v 0.16680 0.10959 0.40519
v 0.17804 0.08245 0.40519
v 0.18490 0.05389 0.40519
v 0.18720 0.02460 0.40519
v 0.18490 -0.00468 0.40519
v 0.17804 -0.03325 0.40519
v 0.16680 -0.06038 0.40519
v 0.15145 -0.08543 0.40519
v 0.13237 -0.10777 0.40519
v 0.11003 -0.12685 0.40519
v 0.08499 -0.14219 0.40519
v 0.05785 -0.15344 0.40519
v 0.02928 -0.16029 0.40519
v 0.00000 -0.16260 0.40519
v -0.02928 -0.16029 0.40519
v -0.05785 -0.15344 0.40519
v -0.08499 -0.14219 0.40519
v -0.11003 -0.12685 0.40519
v -0.13237 -0.10777 0.40519
v -0.15145 -0.08543 0.40519
v -0.16680 -0.06038 0.40519
v -0.17804 -0.03325 0.40519
v -0.18490 -0.00468 0.40519
v -0.18720 0.02460 0.40519
v -0.18490 0.05389 0.40519
v -0.17804 0.08245 0.40519
v -0.16680 0.10959 0.40519
v -0.15145 0.13464 0.40519
v -0.13237 0.15697 0.40519
v -0.11003 0.17605 0.40519
v -0.08499 0.19140 0.40519
v -0.05785 0.20264 0.40519
v -0.02928 0.20950 0.40519
v -0.00000 0.21900 0.31519
v 0.03041 0.21661 0.31519
v 0.06007 0.20949 0.31519
v 0.08826 0.19781 0.31519
v 0.11427 0.18188 0.31519
v 0.13746 0.16206 0.31519
v 0.15727 0.13887 0.31519
v 0.17321 0.11286 0.31519
v 0.18489 0.08468 0.31519
v 0.19201 0.05501 0.31519
v 0.19440 0.02460 0.31519
v 0.19201 -0.00581 0.31519
v 0.18489 -0.03547 0.31519
v 0.17321 -0.06365 0.31519
v 0.15727 -0.08966 0.31519
v 0.13746 -0.11286 0.31519
v 0.11427 -0.13267 0.31519
v 0.08826 -0.14861 0.31519
v 0.06007 -0.16028 0.31519
v 0.03041 -0.16740 0.31519
v 0.00000 -0.16980 0.31519
v -0.03041 -0.16740 0.31519
v -0.06007 -0.16028 0.31519
v -0.08826 -0.14861 0.31519
v -0.11427 -0.13267 0.31519
v -0.13746 -0.11286 0.31519
v -0.15727 -0.08966 0.31519
v -0.17321 -0.06365 0.31519
v -0.18489 -0.03547 0.31519
v -0.19201 -0.00581 0.31519
v -0.19440 0.02460 0.31519
v -0.19201 0.05501 0.31519
v -0.18489 0.08468 0.31519
v -0.17321 0.11286 0.31519
v -0.15727 0.13887 0.31519
v -0.13746 0.16206 0.31519
v -0.11427 0.18188 0.31519
v -0.08826 0.19781 0.31519
v -0.06007 0.20949 0.31519
v -0.03041 0.21661 0.31519
v -0.00000 0.24240 0.30619
v 0.03407 0.23972 0.30619
v 0.06730 0.23174 0.30619
v 0.09888 0.21866 0.30619
v 0.12802 0.20081 0.30619
v 0.15401 0.17861 0.30619
v 0.17620 0.15262 0.30619
v 0.19406 0.12348 0.30619
v 0.20714 0.09191 0.30619
v 0.21512 0.05867 0.30619
v 0.21780 0.02460 0.30619
v 0.21512 -0.00947 0.30619
v 0.20714 -0.04270 0.30619
v 0.19406 -0.07428 0.30619
v 0.17620 -0.10342 0.30619
v 0.15401 -0.12941 0.30619
v 0.12802 -0.15160 0.30619
v 0.09888 -0.16946 0.30619
v 0.06730 -0.18254 0.30619
v 0.03407 -0.19052 0.30619
v 0.00000 -0.19320 0.30619
v -0.03407 -0.19052 0.30619
v -0.06730 -0.18254 0.30619
v -0.09888 -0.16946 0.30619
v -0.12802 -0.15160 0.30619
v -0.15401 -0.12941 0.30619
v -0.17620 -0.10342 0.30619
v -0.19406 -0.07428 0.30619
v -0.20714 -0.04270 0.30619
v -0.21512 -0.00947 0.30619
v -0.21780 0.02460 0.30619
v -0.21512 0.05867 0.30619
v -0.20714 0.09191 0.30619
v -0.19406 0.12348 0.30619
v -0.17620 0.15262 0.30619
v -0.15401 0.17861 0.30619
v -0.12802 0.20081 0.30619
v -0.09888 0.21866 0.30619
v -0.06730 0.23174 0.30619
v -0.03407 0.23972 0.30619
v -0.00000 0.25140 0.17119
v 0.03548 0.24861 0.17119
v 0.07009 0.24030 0.17119
v 0.10297 0.22668 0.17119
v 0.13331 0.20809 0.17119
v 0.16037 0.18497 0.17119
v 0.18349 0.15791 0.17119
v 0.20208 0.12757 0.17119
v 0.21570 0.09469 0.17119
v 0.22401 0.06008 0.17119
v 0.22680 0.02460 0.17119
v 0.22401 -0.01088 0.17119
v 0.21570 -0.04548 0.17119
v 0.20208 -0.07836 0.17119
v 0.18349 -0.10871 0.17119
v 0.16037 -0.13577 0.17119
v 0.13331 -0.15888 0.17119
v 0.10297 -0.17748 0.17119
v 0.07009 -0.19110 0.17119
v 0.03548 -0.19941 0.17119
v 0.00000 -0.20220 0.17119
v -0.03548 -0.19941 0.17119
v -0.07009 -0.19110 0.17119
v -0.10297 -0.17748 0.17119
v -0.13331 -0.15888 0.17119
v -0.16037 -0.13577 0.17119
v -0.18349 -0.10871 0.17119
v -0.20208 -0.07836 0.17119
v -0.21570 -0.04548 0.17119
v -0.22401 -0.01088 0.17119
v -0.22680 0.02460 0.17119
v -0.22401 0.06008 0.17119
v -0.21570 0.09469 0.17119
v -0.20208 0.12757 0.17119
v -0.18349 0.15791 0.17119
v -0.16037 0.18497 0.17119
v -0.13331 0.20809 0.17119
v -0.10297 0.22668 0.17119
v -0.07009 0.24030 0.17119
v -0.03548 0.24861 0.17119
v -0.00000 0.25860 0.13520
v 0.03661 0.25572 0.13520
v 0.07231 0.24715 0.13520
v 0.10623 0.23310 0.13520
v 0.13754 0.21391 0.13520
v 0.16546 0.19007 0.13520
v 0.18931 0.16214 0.13520
v 0.20850 0.13084 0.13520
v 0.22255 0.09691 0.13520
v 0.23112 0.06121 0.13520
v 0.23400 0.02460 0.13520
v 0.23112 -0.01200 0.13520
v 0.22255 -0.04771 0.13520
v 0.20850 -0.08163 0.13520
v 0.18931 -0.11294 0.13520
v 0.16546 -0.14086 0.13520
v 0.13754 -0.16471 0.13520
v 0.10623 -0.18389 0.13520
v 0.07231 -0.19794 0.13520
v 0.03661 -0.20652 0.13520
v 0.00000 -0.20940 0.13520
v -0.03661 -0.20652 0.13520
v -0.07231 -0.19794 0.13520
v -0.10623 -0.18389 0.13520
v -0.13754 -0.16471 0.13520
v -0.16546 -0.14086 0.13520
v -0.18931 -0.11294 0.13520
v -0.20850 -0.08163 0.13520
v -0.22255 -0.04771 0.13520
v -0.23112 -0.01200 0.13520
v -0.23400 0.02460 0.13520
v -0.23112 0.06121 0.13520
v -0.22255 0.09691 0.13520
v -0.20850 0.13084 0.13520
v -0.18931 0.16214 0.13520
v -0.16546 0.19007 0.13520
v -0.13754 0.21391 0.13520
v -0.10623 0.23310 0.13520
v -0.07231 0.24715 0.13520
v -0.03661 0.25572 0.13520
v -0.00000 0.26580 -0.22480
v 0.03773 0.26283 -0.22480
v 0.07453 0.25400 -0.22480
v 0.10950 0.23951 -0.22480
v 0.14177 0.21974 -0.22480
v 0.17055 0.19516 -0.22480
v 0.19513 0.16638 -0.22480
v 0.21491 0.13410 -0.22480
v 0.22939 0.09914 -0.22480
v 0.23823 0.06233 -0.22480
v 0.24120 0.02460 -0.22480
v 0.23823 -0.01313 -0.22480
v 0.22939 -0.04993 -0.22480
v 0.21491 -0.08490 -0.22480
v 0.19513 -0.11717 -0.22480
v 0.17055 -0.14595 -0.22480
v 0.14177 -0.17053 -0.22480
v 0.10950 -0.19031 -0.22480
v 0.07453 -0.20479 -0.22480
v 0.03773 -0.21363 -0.22480
v 0.00000 -0.21660 -0.22480
v -0.03773 -0.21363 -0.22480
v -0.07453 -0.20479 -0.22480
v -0.10950 -0.19031 -0.22480
v -0.14177 -0.17053 -0.22480
v -0.17055 -0.14595 -0.22480
v -0.19513 -0.11717 -0.22480
v -0.21491 -0.08490 -0.22480
v -0.22939 -0.04993 -0.22480
v -0.23823 -0.01313 -0.22480
v -0.24120 0.02460 -0.22480
v -0.23823 0.06233 -0.22480
v -0.22939 0.09914 -0.22480
v -0.21491 0.13410 -0.22480
v -0.19513 0.16638 -0.22480
v -0.17055 0.19516 -0.22480
v -0.14177 0.21974 -0.22480
v -0.10950 0.23951 -0.22480
v -0.07453 0.25400 -0.22480
v -0.03773 0.26283 -0.22480
v -0.00000 0.26040 -0.27881
v 0.03689 0.25750 -0.27881
v 0.07287 0.24886 -0.27881
v 0.10705 0.23470 -0.27881
v 0.13860 0.21537 -0.27881
v 0.16674 0.19134 -0.27881
v 0.19077 0.16320 -0.27881
v 0.21010 0.13165 -0.27881
v 0.22426 0.09747 -0.27881
v 0.23290 0.06149 -0.27881
v 0.23580 0.02460 -0.27881
v 0.23290 -0.01228 -0.27881
v 0.22426 -0.04826 -0.27881
v 0.21010 -0.08245 -0.27881
v 0.19077 -0.11400 -0.27881
v 0.16674 -0.14213 -0.27881
v 0.13860 -0.16616 -0.27881
v 0.10705 -0.18550 -0.27881
v 0.07287 -0.19966 -0.27881
v 0.03689 -0.20829 -0.27881
v 0.00000 -0.21120 -0.27881
v -0.03689 -0.20829 -0.27881
v -0.07287 -0.19966 -0.27881
v -0.10705 -0.18550 -0.27881
v -0.13860 -0.16616 -0.27881
v -0.16674 -0.14213 -0.27881
v -0.19077 -0.11400 -0.27881
v -0.21010 -0.08245 -0.27881
v -0.22426 -0.04826 -0.27881
v -0.23290 -0.01228 -0.27881
v -0.23580 0.02460 -0.27881
v -0.23290 0.06149 -0.27881
v -0.22426 0.09747 -0.27881
v -0.21010 0.13165 -0.27881
v -0.19077 0.16320 -0.27881
v -0.16674 0.19134 -0.27881
v -0.13860 0.21537 -0.27881
v -0.10705 0.23470 -0.27881
v -0.07287 0.24886 -0.27881
v -0.03689 0.25750 -0.27881
v -0.00000 0.23700 -0.32381
v 0.03323 0.23439 -0.32381
v 0.06564 0.22661 -0.32381
v 0.09643 0.21385 -0.32381
v 0.12485 0.19644 -0.32381
v 0.15019 0.17479 -0.32381
v 0.17184 0.14945 -0.32381
v 0.18925 0.12103 -0.32381
v 0.20200 0.09024 -0.32381
v 0.20978 0.05783 -0.32381
v 0.21240 0.02460 -0.32381
v 0.20978 -0.00862 -0.32381
v 0.20200 -0.04103 -0.32381
v 0.18925 -0.07183 -0.32381
v 0.17184 -0.10024 -0.32381
v 0.15019 -0.12559 -0.32381
v 0.12485 -0.14723 -0.32381
v 0.09643 -0.16465 -0.32381
v 0.06564 -0.17740 -0.32381
v 0.03323 -0.18518 -0.32381
v 0.00000 -0.18780 -0.32381
v -0.03323 -0.18518 -0.32381
v -0.06564 -0.17740 -0.32381
v -0.09643 -0.16465 -0.32381
v -0.12485 -0.14723 -0.32381
v -0.15019 -0.12559 -0.32381
v -0.17184 -0.10024 -0.32381
v -0.18925 -0.07183 -0.32381
v -0.20200 -0.04103 -0.32381
v -0.20978 -0.00862 -0.32381
v -0.21240 0.02460 -0.32381
v -0.20978 0.05783 -0.32381
v -0.20200 0.09024 -0.32381
v -0.18925 0.12103 -0.32381
v -0.17184 0.14945 -0.32381
v -0.15019 0.17479 -0.32381
v -0.12485 0.19644 -0.32381
v -0.09643 0.21385 -0.32381
v -0.06564 0.22661 -0.32381
v -0.03323 0.23439 -0.32381
v -0.00000 0.20460 -0.35080
v 0.02816 0.20239 -0.35080
v 0.05562 0.19579 -0.35080
v 0.08172 0.18498 -0.35080
v 0.10580 0.17023 -0.35080
v 0.12728 0.15188 -0.35080
v 0.14562 0.13040 -0.35080
v 0.16038 0.10632 -0.35080
v 0.17119 0.08023 -0.35080
v 0.17778 0.05276 -0.35080
v 0.18000 0.02460 -0.35080
v 0.17778 -0.00356 -0.35080
v 0.17119 -0.03102 -0.35080
v 0.16038 -0.05712 -0.35080
v 0.14562 -0.08120 -0.35080
v 0.12728 -0.10268 -0.35080
v 0.10580 -0.12102 -0.35080
v 0.08172 -0.13578 -0.35080
v 0.05562 -0.14659 -0.35080
v 0.02816 -0.15318 -0.35080
v 0.00000 -0.15540 -0.35080
v -0.02816 -0.15318 -0.35080
v -0.05562 -0.14659 -0.35080
v -0.08172 -0.13578 -0.35080
v -0.10580 -0.12102 -0.35080
v -0.12728 -0.10268 -0.35080
v -0.14562 -0.08120 -0.35080
v -0.16038 -0.05712 -0.35080
v -0.17119 -0.03102 -0.35080
v -0.17778 -0.00356 -0.35080
v -0.18000 0.02460 -0.35080
v -0.17778 0.05276 -0.35080
v -0.17119 0.08023 -0.35080
v -0.16038 0.10632 -0.35080
v -0.14562 0.13040 -0.35080
v -0.12728 0.15188 -0.35080
v -0.10580 0.17023 -0.35080
v -0.08172 0.18498 -0.35080
v -0.05562 0.19579 -0.35080
v -0.02816 0.20239 -0.35080
v -0.00000 0.19920 -0.37780
v 0.02731 0.19705 -0.37780
v 0.05395 0.19066 -0.37780
v 0.07927 0.18017 -0.37780
v 0.10263 0.16586 -0.37780
v 0.12346 0.14806 -0.37780
v 0.14125 0.12723 -0.37780
v 0.15557 0.10387 -0.37780
v 0.16605 0.07856 -0.37780
v 0.17245 0.05192 -0.37780
v 0.17460 0.02460 -0.37780
v 0.17245 -0.00271 -0.37780
v 0.16605 -0.02935 -0.37780
v 0.15557 -0.05466 -0.37780
v 0.14125 -0.07802 -0.37780
v 0.12346 -0.09886 -0.37780
v 0.10263 -0.11665 -0.37780
v 0.07927 -0.13097 -0.37780
v 0.05395 -0.14145 -0.37780
v 0.02731 -0.14785 -0.37780
v 0.00000 -0.15000 -0.37780
v -0.02731 -0.14785 -0.37780
v -0.05395 -0.14145 -0.37780
v -0.07927 -0.13097 -0.37780
v -0.10263 -0.11665 -0.37780
v -0.12346 -0.09886 -0.37780
v -0.14125 -0.07802 -0.37780
v -0.15557 -0.05466 -0.37780
v -0.16605 -0.02935 -0.37780
v -0.17245 -0.00271 -0.37780
v -0.17460 0.02460 -0.37780
v -0.17245 0.05192 -0.37780
v -0.16605 0.07856 -0.37780
v -0.15557 0.10387 -0.37780
v -0.14125 0.12723 -0.37780
v -0.12346 0.14806 -0.37780
v -0.10263 0.16586 -0.37780
v -0.07927 0.18017 -0.37780
v -0.05395 0.19066 -0.37780
v -0.02731 0.19705 -0.37780
v -0.00000 0.02460 0.40519
v 0.00000 0.02460 -0.37781
v -0.13805 0.06640 0.25079
v -0.13932 0.06266 0.25983
v -0.20068 0.10969 0.35176
v -0.19482 0.10103 0.34930
v -0.16039 0.05945 0.24051
v -0.16430 0.05490 0.24834
v -0.21882 0.10405 0.34342
v -0.21608 0.09442 0.33953
v -0.18184 0.06343 0.22721
v -0.18828 0.05934 0.23347
v -0.23624 0.10728 0.33261
v -0.23648 0.09820 0.32687
v -0.19815 0.07754 0.21350
v -0.20651 0.07512 0.21815
v -0.24948 0.11874 0.32149
v -0.25199 0.11162 0.31384
v -0.20609 0.09899 0.20211
v -0.21538 0.09910 0.20542
v -0.25592 0.13615 0.31224
v -0.25954 0.13203 0.30300
v -0.20408 0.12354 0.19530
v -0.21314 0.12654 0.19780
v -0.25429 0.15608 0.30671
v -0.25763 0.15538 0.29652
v -0.19253 0.14631 0.19440
v -0.20022 0.15200 0.19680
v -0.24491 0.17457 0.30598
v -0.24664 0.17704 0.29567
v -0.17372 0.16281 0.19961
v -0.17920 0.17044 0.20261
v -0.22964 0.18796 0.31021
v -0.22875 0.19273 0.30062
v -0.15138 0.16975 0.20988
v -0.15422 0.17820 0.21410
v -0.21150 0.19360 0.31855
v -0.20750 0.19934 0.31039
v -0.12993 0.16578 0.22318
v -0.13024 0.17376 0.22897
v -0.19409 0.19037 0.32935
v -0.18710 0.19556 0.32305
v -0.11362 0.15166 0.23689
v -0.11201 0.15798 0.24429
v -0.18085 0.17892 0.34047
v -0.17159 0.18213 0.33608
v -0.10568 0.13021 0.24828
v -0.10314 0.13400 0.25702
v -0.17441 0.16150 0.34972
v -0.16404 0.16173 0.34691
v -0.10769 0.10567 0.25509
v -0.10538 0.10656 0.26464
v -0.17603 0.14157 0.35526
v -0.16594 0.13838 0.35340
v -0.11924 0.08289 0.25599
v -0.11830 0.08110 0.26564
v -0.18541 0.12308 0.35598
v -0.17693 0.11671 0.35425
v -0.00000 -0.20360 0.19400
v -0.00000 -0.21318 0.19635
v -0.00000 -0.26298 0.30566
v -0.00000 -0.26580 0.29529
v -0.02491 -0.19883 0.19709
v -0.02785 -0.20785 0.19980
v -0.02023 -0.25911 0.30817
v -0.02370 -0.26126 0.29823
v -0.04489 -0.18545 0.20575
v -0.05018 -0.19289 0.20948
v -0.03645 -0.24825 0.31519
v -0.04270 -0.24854 0.30646
v -0.05598 -0.16612 0.21826
v -0.06258 -0.17129 0.22346
v -0.04545 -0.23256 0.32535
v -0.05325 -0.23015 0.31836
v -0.05598 -0.14467 0.23214
v -0.06258 -0.14730 0.23898
v -0.04545 -0.21514 0.33662
v -0.05325 -0.20975 0.33156
v -0.04489 -0.12534 0.24464
v -0.05018 -0.12570 0.25296
v -0.03645 -0.19945 0.34677
v -0.04270 -0.19136 0.34346
v -0.02491 -0.11197 0.25330
v -0.02785 -0.11074 0.26264
v -0.02023 -0.18859 0.35380
v -0.02370 -0.17864 0.35169
v -0.00000 -0.10719 0.25639
v -0.00000 -0.10541 0.26609
v -0.00000 -0.18471 0.35631
v -0.00000 -0.17410 0.35463
v 0.02491 -0.11197 0.25330
v 0.02785 -0.11074 0.26264
v 0.02023 -0.18859 0.35380
v 0.02370 -0.17864 0.35169
v 0.04489 -0.12534 0.24464
v 0.05018 -0.12570 0.25296
v 0.03645 -0.19945 0.34677
v 0.04270 -0.19136 0.34346
v 0.05598 -0.14467 0.23214
v 0.06258 -0.14730 0.23898
v 0.04545 -0.21514 0.33662
v 0.05325 -0.20975 0.33156
v 0.05598 -0.16612 0.21826
v 0.06258 -0.17129 0.22346
v 0.04545 -0.23256 0.32535
v 0.05325 -0.23015 0.31836
v 0.04489 -0.18545 0.20575
v 0.05018 -0.19289 0.20948
v 0.03645 -0.24825 0.31519
v 0.04270 -0.24854 0.30646
v 0.02491 -0.19883 0.19709
v 0.02785 -0.20785 0.19980
v 0.02023 -0.25911 0.30817
v 0.02370 -0.26126 0.29823
v 0.13805 0.06640 0.25079
v 0.13932 0.06266 0.25983
v 0.20068 0.10969 0.35176
v 0.19482 0.10103 0.34930
v 0.11924 0.08289 0.25599
v 0.11830 0.08110 0.26564
v 0.18541 0.12308 0.35598
v 0.17693 0.11671 0.35425
v 0.10769 0.10567 0.25509
v 0.10538 0.10656 0.26464
v 0.17603 0.14157 0.35526
v 0.16594 0.13838 0.35340
v 0.10568 0.13021 0.24828
v 0.10314 0.13400 0.25702
v 0.17441 0.16150 0.34972
v 0.16404 0.16173 0.34691
v 0.11362 0.15166 0.23689
v 0.11201 0.15798 0.24429
v 0.18085 0.17892 0.34047
v 0.17159 0.18213 0.33608
v 0.12993 0.16578 0.22318
v 0.13024 0.17376 0.22897
v 0.19409 0.19037 0.32935
v 0.18710 0.19556 0.32305
v 0.15138 0.16975 0.20988
v 0.15422 0.17820 0.21410
v 0.21150 0.19360 0.31855
v 0.20750 0.19934 0.31039
v 0.17372 0.16281 0.19961
v 0.17920 0.17044 0.20261
v 0.22964 0.18796 0.31021
v 0.22875 0.19273 0.30062
v 0.19253 0.14631 0.19440
v 0.20022 0.15200 0.19680
v 0.24491 0.17457 0.30598
v 0.24664 0.17704 0.29567
v 0.20408 0.12354 0.19530
v 0.21314 0.12654 0.19780
v 0.25429 0.15608 0.30671
v 0.25763 0.15538 0.29652
v 0.20609 0.09899 0.20211
v 0.21538 0.09910 0.20542
v 0.25592 0.13615 0.31224
v 0.25954 0.13203 0.30300
v 0.19815 0.07754 0.21350
v 0.20651 0.07512 0.21815
v 0.24948 0.11874 0.32149
v 0.25199 0.11162 0.31384
v 0.18184 0.06343 0.22721
v 0.18828 0.05934 0.23347
v 0.23624 0.10728 0.33261
v 0.23648 0.09820 0.32687
v 0.16039 0.05945 0.24051
v 0.16430 0.05490 0.24834
v 0.21882 0.10405 0.34342
v 0.21608 0.09442 0.33953
v -0.00188 0.21174 -0.37780
v -0.00152 0.20625 -0.39473
v -0.00058 0.19188 -0.40519
v 0.00058 0.17412 -0.40519
v 0.00152 0.15975 -0.39473
v 0.00188 0.15426 -0.37780
v 0.00152 0.15975 -0.36088
v 0.00058 0.17412 -0.35041
v -0.00058 0.19188 -0.35041
v -0.00152 0.20625 -0.36088
v -0.02443 0.21020 -0.37780
v -0.02372 0.20475 -0.39473
v -0.02184 0.19047 -0.40519
v -0.01951 0.17282 -0.40519
v -0.01763 0.15855 -0.39473
v -0.01692 0.15309 -0.37780
v -0.01763 0.15855 -0.36088
v -0.01951 0.17282 -0.35041
v -0.02184 0.19047 -0.35041
v -0.02372 0.20475 -0.36088
v -0.04845 0.20542 -0.37780
v -0.04703 0.20011 -0.39473
v -0.04330 0.18620 -0.40519
v -0.03869 0.16901 -0.40519
v -0.03497 0.15510 -0.39473
v -0.03354 0.14979 -0.37780
v -0.03497 0.15510 -0.36088
v -0.03869 0.16901 -0.35041
v -0.04330 0.18620 -0.35041
v -0.04703 0.20011 -0.36088
v -0.07164 0.19755 -0.37780
v -0.06953 0.19247 -0.39473
v -0.06402 0.17917 -0.40519
v -0.05721 0.16272 -0.40519
v -0.05170 0.14942 -0.39473
v -0.04960 0.14434 -0.37780
v -0.05170 0.14942 -0.36088
v -0.05721 0.16272 -0.35041
v -0.06402 0.17917 -0.35041
v -0.06953 0.19247 -0.36088
v -0.09360 0.18672 -0.37780
v -0.09085 0.18196 -0.39473
v -0.08365 0.16949 -0.40519
v -0.07475 0.15407 -0.40519
v -0.06755 0.14160 -0.39473
v -0.06480 0.13684 -0.37780
v -0.06755 0.14160 -0.36088
v -0.07475 0.15407 -0.35041
v -0.08365 0.16949 -0.35041
v -0.09085 0.18196 -0.36088
v -0.11396 0.17312 -0.37780
v -0.11061 0.16875 -0.39473
v -0.10185 0.15733 -0.40519
v -0.09101 0.14321 -0.40519
v -0.08224 0.13178 -0.39473
v -0.07890 0.12742 -0.37780
v -0.08224 0.13178 -0.36088
v -0.09101 0.14321 -0.35041
v -0.10185 0.15733 -0.35041
v -0.11061 0.16875 -0.36088
v -0.13237 0.15697 -0.37780
v -0.12848 0.15308 -0.39473
v -0.11830 0.14290 -0.40519
v -0.10571 0.13032 -0.40519
v -0.09553 0.12013 -0.39473
v -0.09164 0.11624 -0.37780
v -0.09553 0.12013 -0.36088
v -0.10571 0.13032 -0.35041
v -0.11830 0.14290 -0.35041
v -0.12848 0.15308 -0.36088
v -0.14852 0.13856 -0.37780
v -0.14415 0.13521 -0.39473
v -0.13273 0.12645 -0.40519
v -0.11861 0.11561 -0.40519
v -0.10718 0.10685 -0.39473
v -0.10282 0.10350 -0.37780
v -0.10718 0.10685 -0.36088
v -0.11861 0.11561 -0.35041
v -0.13273 0.12645 -0.35041
v -0.14415 0.13521 -0.36088
v -0.16212 0.11820 -0.37780
v -0.15736 0.11545 -0.39473
v -0.14489 0.10825 -0.40519
v -0.12947 0.09935 -0.40519
v -0.11700 0.09215 -0.39473
v -0.11224 0.08940 -0.37780
v -0.11700 0.09215 -0.36088
v -0.12947 0.09935 -0.35041
v -0.14489 0.10825 -0.35041
v -0.15736 0.11545 -0.36088
v -0.17295 0.09624 -0.37780
v -0.16787 0.09414 -0.39473
v -0.15456 0.08863 -0.40519
v -0.13812 0.08181 -0.40519
v -0.12482 0.07630 -0.39473
v -0.11973 0.07420 -0.37780
v -0.12482 0.07630 -0.36088
v -0.13812 0.08181 -0.35041
v -0.15456 0.08863 -0.35041
v -0.16787 0.09414 -0.36088
v -0.18082 0.07305 -0.37780
v -0.17551 0.07163 -0.39473
v -0.16160 0.06790 -0.40519
v -0.14441 0.06330 -0.40519
v -0.13050 0.05957 -0.39473
v -0.12518 0.05815 -0.37780
v -0.13050 0.05957 -0.36088
v -0.14441 0.06330 -0.35041
v -0.16160 0.06790 -0.35041
v -0.17551 0.07163 -0.36088
v -0.18560 0.04904 -0.37780
v -0.18015 0.04832 -0.39473
v -0.16587 0.04644 -0.40519
v -0.14822 0.04412 -0.40519
v -0.13394 0.04224 -0.39473
v -0.12849 0.04152 -0.37780
v -0.13394 0.04224 -0.36088
v -0.14822 0.04412 -0.35041
v -0.16587 0.04644 -0.35041
v -0.18015 0.04832 -0.36088
v -0.18720 0.02460 -0.37780
v -0.18170 0.02460 -0.39473
v -0.16730 0.02460 -0.40519
v -0.14950 0.02460 -0.40519
v -0.13510 0.02460 -0.39473
v -0.12960 0.02460 -0.37780
v -0.13510 0.02460 -0.36088
v -0.14950 0.02460 -0.35041
v -0.16730 0.02460 -0.35041
v -0.18170 0.02460 -0.36088
v -0.18560 0.00017 -0.37780
v -0.18015 0.00089 -0.39473
v -0.16587 0.00277 -0.40519
v -0.14822 0.00509 -0.40519
v -0.13394 0.00697 -0.39473
v -0.12849 0.00769 -0.37780
v -0.13394 0.00697 -0.36088
v -0.14822 0.00509 -0.35041
v -0.16587 0.00277 -0.35041
v -0.18015 0.00089 -0.36088
v -0.18082 -0.02385 -0.37780
v -0.17551 -0.02242 -0.39473
v -0.16160 -0.01870 -0.40519
v -0.14441 -0.01409 -0.40519
v -0.13050 -0.01036 -0.39473
v -0.12518 -0.00894 -0.37780
v -0.13050 -0.01036 -0.36088
v -0.14441 -0.01409 -0.35041
v -0.16160 -0.01870 -0.35041
v -0.17551 -0.02242 -0.36088
v -0.17295 -0.04704 -0.37780
v -0.16787 -0.04493 -0.39473
v -0.15456 -0.03942 -0.40519
v -0.13812 -0.03261 -0.40519
v -0.12482 -0.02710 -0.39473
v -0.11973 -0.02499 -0.37780
v -0.12482 -0.02710 -0.36088
v -0.13812 -0.03261 -0.35041
v -0.15456 -0.03942 -0.35041
v -0.16787 -0.04493 -0.36088
v -0.16212 -0.06900 -0.37780
v -0.15736 -0.06625 -0.39473
v -0.14489 -0.05905 -0.40519
v -0.12947 -0.05015 -0.40519
v -0.11700 -0.04295 -0.39473
v -0.11224 -0.04020 -0.37780
v -0.11700 -0.04295 -0.36088
v -0.12947 -0.05015 -0.35041
v -0.14489 -0.05905 -0.35041
v -0.15736 -0.06625 -0.36088
v -0.14852 -0.08936 -0.37780
v -0.14415 -0.08601 -0.39473
v -0.13273 -0.07724 -0.40519
v -0.11861 -0.06641 -0.40519
v -0.10718 -0.05764 -0.39473
v -0.10282 -0.05429 -0.37780
v -0.10718 -0.05764 -0.36088
v -0.11861 -0.06641 -0.35041
v -0.13273 -0.07724 -0.35041
v -0.14415 -0.08601 -0.36088
v -0.13237 -0.10777 -0.37780
v -0.12848 -0.10388 -0.39473
v -0.11830 -0.09370 -0.40519
v -0.10571 -0.08111 -0.40519
v -0.09553 -0.07093 -0.39473
v -0.09164 -0.06704 -0.37780
v -0.09553 -0.07093 -0.36088
v -0.10571 -0.08111 -0.35041
v -0.11830 -0.09370 -0.35041
v -0.12848 -0.10388 -0.36088
v -0.11396 -0.12391 -0.37780
v -0.11061 -0.11955 -0.39473
v -0.10185 -0.10813 -0.40519
v -0.09101 -0.09400 -0.40519
v -0.08224 -0.08258 -0.39473
v -0.07890 -0.07822 -0.37780
v -0.08224 -0.08258 -0.36088
v -0.09101 -0.09400 -0.35041
v -0.10185 -0.10813 -0.35041
v -0.11061 -0.11955 -0.36088
v -0.09360 -0.13752 -0.37780
v -0.09085 -0.13275 -0.39473
v -0.08365 -0.12028 -0.40519
v -0.07475 -0.10487 -0.40519
v -0.06755 -0.09240 -0.39473
v -0.06480 -0.08763 -0.37780
v -0.06755 -0.09240 -0.36088
v -0.07475 -0.10487 -0.35041
v -0.08365 -0.12028 -0.35041
v -0.09085 -0.13275 -0.36088
v -0.07164 -0.14835 -0.37780
v -0.06953 -0.14327 -0.39473
v -0.06402 -0.12996 -0.40519
v -0.05721 -0.11352 -0.40519
v -0.05170 -0.10021 -0.39473
v -0.04960 -0.09513 -0.37780
v -0.05170 -0.10021 -0.36088
v -0.05721 -0.11352 -0.35041
v -0.06402 -0.12996 -0.35041
v -0.06953 -0.14327 -0.36088
v -0.04845 -0.15622 -0.37780
v -0.04703 -0.15091 -0.39473
v -0.04330 -0.13700 -0.40519
v -0.03869 -0.11980 -0.40519
v -0.03497 -0.10589 -0.39473
v -0.03354 -0.10058 -0.37780
v -0.03497 -0.10589 -0.36088
v -0.03869 -0.11980 -0.35041
v -0.04330 -0.13700 -0.35041
v -0.04703 -0.15091 -0.36088
v -0.02443 -0.16100 -0.37780
v -0.02372 -0.15554 -0.39473
v -0.02184 -0.14127 -0.40519
v -0.01951 -0.12362 -0.40519
v -0.01763 -0.10934 -0.39473
v -0.01692 -0.10389 -0.37780
v -0.01763 -0.10934 -0.36088
v -0.01951 -0.12362 -0.35041
v -0.02184 -0.14127 -0.35041
v -0.02372 -0.15554 -0.36088
v -0.00000 -0.16260 -0.37780
v -0.00000 -0.15710 -0.39473
v -0.00000 -0.14270 -0.40519
v 0.00000 -0.12490 -0.40519
v 0.00000 -0.11050 -0.39473
v 0.00000 -0.10500 -0.37780
v 0.00000 -0.11050 -0.36088
v 0.00000 -0.12490 -0.35041
v -0.00000 -0.14270 -0.35041
v -0.00000 -0.15710 -0.36088
v 0.02443 -0.16100 -0.37780
v 0.02372 -0.15554 -0.39473
v 0.02184 -0.14127 -0.40519
v 0.01951 -0.12362 -0.40519
v 0.01763 -0.10934 -0.39473
v 0.01692 -0.10389 -0.37780
v 0.01763 -0.10934 -0.36088
v 0.01951 -0.12362 -0.35041
v 0.02184 -0.14127 -0.35041
v 0.02372 -0.15554 -0.36088
v 0.04845 -0.15622 -0.37780
v 0.04703 -0.15091 -0.39473
v 0.04330 -0.13700 -0.40519
v 0.03869 -0.11980 -0.40519
v 0.03497 -0.10589 -0.39473
v 0.03354 -0.10058 -0.37780
v 0.03497 -0.10589 -0.36088
v 0.03869 -0.11980 -0.35041
v 0.04330 -0.13700 -0.35041
v 0.04703 -0.15091 -0.36088
v 0.07164 -0.14835 -0.37780
v 0.06953 -0.14327 -0.39473
v 0.06402 -0.12996 -0.40519
v 0.05721 -0.11352 -0.40519
v 0.05170 -0.10021 -0.39473
v 0.04960 -0.09513 -0.37780
v 0.05170 -0.10021 -0.36088
v 0.05721 -0.11352 -0.35041
v 0.06402 -0.12996 -0.35041
v 0.06953 -0.14327 -0.36088
v 0.09360 -0.13752 -0.37780
v 0.09085 -0.13275 -0.39473
v 0.08365 -0.12028 -0.40519
v 0.07475 -0.10487 -0.40519
v 0.06755 -0.09240 -0.39473
v 0.06480 -0.08763 -0.37780
v 0.06755 -0.09240 -0.36088
v 0.07475 -0.10487 -0.35041
v 0.08365 -0.12028 -0.35041
v 0.09085 -0.13275 -0.36088
v 0.11396 -0.12391 -0.37780
v 0.11061 -0.11955 -0.39473
v 0.10185 -0.10813 -0.40519
v 0.09101 -0.09400 -0.40519
v 0.08224 -0.08258 -0.39473
v 0.07890 -0.07822 -0.37780
v 0.08224 -0.08258 -0.36088
v 0.09101 -0.09400 -0.35041
v 0.10185 -0.10813 -0.35041
v 0.11061 -0.11955 -0.36088
v 0.13237 -0.10777 -0.37780
v 0.12848 -0.10388 -0.39473
v 0.11830 -0.09370 -0.40519
v 0.10571 -0.08111 -0.40519
v 0.09553 -0.07093 -0.39473
v 0.09164 -0.06704 -0.37780
v 0.09553 -0.07093 -0.36088
v 0.10571 -0.08111 -0.35041
v 0.11830 -0.09370 -0.35041
v 0.12848 -0.10388 -0.36088
v 0.14852 -0.08936 -0.37780
v 0.14415 -0.08601 -0.39473
v 0.13273 -0.07724 -0.40519
v 0.11861 -0.06641 -0.40519
v 0.10718 -0.05764 -0.39473
v 0.10282 -0.05429 -0.37780
v 0.10718 -0.05764 -0.36088
v 0.11861 -0.06641 -0.35041
v 0.13273 -0.07724 -0.35041
v 0.14415 -0.08601 -0.36088
v 0.16212 -0.06900 -0.37780
v 0.15736 -0.06625 -0.39473
v 0.14489 -0.05905 -0.40519
v 0.12947 -0.05015 -0.40519
v 0.11700 -0.04295 -0.39473
v 0.11224 -0.04020 -0.37780
v 0.11700 -0.04295 -0.36088
v 0.12947 -0.05015 -0.35041
v 0.14489 -0.05905 -0.35041
v 0.15736 -0.06625 -0.36088
v 0.17295 -0.04704 -0.37780
v 0.16787 -0.04493 -0.39473
v 0.15456 -0.03942 -0.40519
v 0.13812 -0.03261 -0.40519
v 0.12482 -0.02710 -0.39473
v 0.11973 -0.02499 -0.37780
v 0.12482 -0.02710 -0.36088
v 0.13812 -0.03261 -0.35041
v 0.15456 -0.03942 -0.35041
v 0.16787 -0.04493 -0.36088
v 0.18082 -0.02385 -0.37780
v 0.17551 -0.02242 -0.39473
v 0.16160 -0.01870 -0.40519
v 0.14441 -0.01409 -0.40519
v 0.13050 -0.01036 -0.39473
v 0.12518 -0.00894 -0.37780
v 0.13050 -0.01036 -0.36088
v 0.14441 -0.01409 -0.35041
v 0.16160 -0.01870 -0.35041
v 0.17551 -0.02242 -0.36088
v 0.18560 0.00017 -0.37780
v 0.18015 0.00089 -0.39473
v 0.16587 0.00277 -0.40519
v 0.14822 0.00509 -0.40519
v 0.13394 0.00697 -0.39473
v 0.12849 0.00769 -0.37780
v 0.13394 0.00697 -0.36088
v 0.14822 0.00509 -0.35041
v 0.16587 0.00277 -0.35041
v 0.18015 0.00089 -0.36088
v 0.18720 0.02460 -0.37780
v 0.18170 0.02460 -0.39473
v 0.16730 0.02460 -0.40519
v 0.14950 0.02460 -0.40519
v 0.13510 0.02460 -0.39473
v 0.12960 0.02460 -0.37780
v 0.13510 0.02460 -0.36088
v 0.14950 0.02460 -0.35041
v 0.16730 0.02460 -0.35041
v 0.18170 0.02460 -0.36088
v 0.18560 0.04904 -0.37780
v 0.18015 0.04832 -0.39473
v 0.16587 0.04644 -0.40519
v 0.14822 0.04412 -0.40519
v 0.13394 0.04224 -0.39473
v 0.12849 0.04152 -0.37780
v 0.13394 0.04224 -0.36088
v 0.14822 0.04412 -0.35041
v 0.16587 0.04644 -0.35041
v 0.18015 0.04832 -0.36088
v 0.18082 0.07305 -0.37780
v 0.17551 0.07163 -0.39473
v 0.16160 0.06790 -0.40519
v 0.14441 0.06330 -0.40519
v 0.13050 0.05957 -0.39473
v 0.12518 0.05815 -0.37780
v 0.13050 0.05957 -0.36088
v 0.14441 0.06330 -0.35041
v 0.16160 0.06790 -0.35041
v 0.17551 0.07163 -0.36088
v 0.17295 0.09624 -0.37780
v 0.16787 0.09414 -0.39473
v 0.15456 0.08863 -0.40519
v 0.13812 0.08181 -0.40519
v 0.12482 0.07630 -0.39473
v 0.11973 0.07420 -0.37780
v 0.12482 0.07630 -0.36088
v 0.13812 0.08181 -0.35041
v 0.15456 0.08863 -0.35041
v 0.16787 0.09414 -0.36088
v 0.16212 0.11820 -0.37780
v 0.15736 0.11545 -0.39473
v 0.14489 0.10825 -0.40519
v 0.12947 0.09935 -0.40519
v 0.11700 0.09215 -0.39473
v 0.11224 0.08940 -0.37780
v 0.11700 0.09215 -0.36088
v 0.12947 0.09935 -0.35041
v 0.14489 0.10825 -0.35041
v 0.15736 0.11545 -0.36088
v 0.14852 0.13856 -0.37780
v 0.14415 0.13521 -0.39473
v 0.13273 0.12645 -0.40519
v 0.11861 0.11561 -0.40519
v 0.10718 0.10685 -0.39473
v 0.10282 0.10350 -0.37780
v 0.10718 0.10685 -0.36088
v 0.11861 0.11561 -0.35041
v 0.13273 0.12645 -0.35041
v 0.14415 0.13521 -0.36088
v 0.13237 0.15697 -0.37780
v 0.12848 0.15308 -0.39473
v 0.11830 0.14290 -0.40519
v 0.10571 0.13032 -0.40519
v 0.09553 0.12013 -0.39473
v 0.09164 0.11624 -0.37780
v 0.09553 0.12013 -0.36088
v 0.10571 0.13032 -0.35041
v 0.11830 0.14290 -0.35041
v 0.12848 0.15308 -0.36088
v 0.11396 0.17312 -0.37780
v 0.11061 0.16875 -0.39473
v 0.10185 0.15733 -0.40519
v 0.09101 0.14321 -0.40519
v 0.08224 0.13178 -0.39473
v 0.07890 0.12742 -0.37780
v 0.08224 0.13178 -0.36088
v 0.09101 0.14321 -0.35041
v 0.10185 0.15733 -0.35041
v 0.11061 0.16875 -0.36088
v 0.09360 0.18672 -0.37780
v 0.09085 0.18196 -0.39473
v 0.08365 0.16949 -0.40519
v 0.07475 0.15407 -0.40519
v 0.06755 0.14160 -0.39473
v 0.06480 0.13684 -0.37780
v 0.06755 0.14160 -0.36088
v 0.07475 0.15407 -0.35041
v 0.08365 0.16949 -0.35041
v 0.09085 0.18196 -0.36088
v 0.07164 0.19755 -0.37780
v 0.06953 0.19247 -0.39473
v 0.06402 0.17917 -0.40519
v 0.05721 0.16272 -0.40519
v 0.05170 0.14942 -0.39473
v 0.04960 0.14434 -0.37780
v 0.05170 0.14942 -0.36088
v 0.05721 0.16272 -0.35041
v 0.06402 0.17917 -0.35041
v 0.06953 0.19247 -0.36088
v 0.04845 0.20542 -0.37780
v 0.04703 0.20011 -0.39473
v 0.04330 0.18620 -0.40519
v 0.03869 0.16901 -0.40519
v 0.03497 0.15510 -0.39473
v 0.03354 0.14979 -0.37780
v 0.03497 0.15510 -0.36088
v 0.03869 0.16901 -0.35041
v 0.04330 0.18620 -0.35041
v 0.04703 0.20011 -0.36088
v 0.02443 0.21020 -0.37780
v 0.02372 0.20475 -0.39473
v 0.02184 0.19047 -0.40519
v 0.01951 0.17282 -0.40519
v 0.01763 0.15855 -0.39473
v 0.01692 0.15309 -0.37780
v 0.01763 0.15855 -0.36088
v 0.01951 0.17282 -0.35041
v 0.02184 0.19047 -0.35041
v 0.02372 0.20475 -0.36088
v 0.00188 0.21174 -0.37780
v 0.00152 0.20625 -0.39473
v 0.00058 0.19188 -0.40519
v -0.00058 0.17412 -0.40519
v -0.00152 0.15975 -0.39473
v -0.00188 0.15426 -0.37780
v -0.00152 0.15975 -0.36088
v -0.00058 0.17412 -0.35041
v 0.00058 0.19188 -0.35041
v 0.00152 0.20625 -0.36088
f 1 42 41
f 2 43 42
f 3 44 43
f 4 45 44
f 6 45 5
f 6 47 46
f 8 47 7
f 9 48 8
f 10 49 9
f 11 50 10
f 11 52 51
f 12 53 52
f 13 54 53
f 14 55 54
f 16 55 15
f 16 57 56
f 18 57 17
f 19 58 18
f 20 59 19
f 21 60 20
f 21 62 61
f 22 63 62
f 23 64 63
f 24 65 64
f 26 65 25
f 26 67 66
f 28 67 27
f 29 68 28
f 30 69 29
f 31 70 30
f 31 72 71
f 32 73 72
f 33 74 73
f 34 75 74
f 36 75 35
f 36 77 76
f 38 77 37
f 39 78 38
f 40 79 39
f 1 80 40
f 41 82 81
f 43 82 42
f 43 84 83
f 44 85 84
f 45 86 85
f 47 86 46
f 47 88 87
f 48 89 88
f 50 89 49
f 50 91 90
f 52 91 51
f 52 93 92
f 54 93 53
f 55 94 54
f 55 96 95
f 57 96 56
f 58 97 57
f 59 98 58
f 59 100 99
f 61 100 60
f 61 102 101
f 63 102 62
f 63 104 103
f 64 105 104
f 65 106 105
f 67 106 66
f 67 108 107
f 68 109 108
f 70 109 69
f 70 111 110
f 72 111 71
f 72 113 112
f 74 113 73
f 75 114 74
f 75 116 115
f 77 116 76
f 78 117 77
f 79 118 78
f 79 120 119
f 41 120 80
f 82 121 81
f 83 122 82
f 83 124 123
f 84 125 124
f 85 126 125
f 86 127 126
f 88 127 87
f 88 129 128
f 90 129 89
f 91 130 90
f 91 132 131
f 93 132 92
f 94 133 93
f 94 135 134
f 96 135 95
f 97 136 96
f 98 137 97
f 99 138 98
f 100 139 99
f 101 140 100
f 102 141 101
f 103 142 102
f 103 144 143
f 104 145 144
f 105 146 145
f 106 147 146
f 108 147 107
f 108 149 148
f 110 149 109
f 111 150 110
f 111 152 151
f 113 152 112
f 114 153 113
f 114 155 154
f 116 155 115
f 117 156 116
f 118 157 117
f 119 158 118
f 120 159 119
f 81 160 120
f 121 162 161
f 122 163 162
f 124 163 123
f 125 164 124
f 126 165 125
f 127 166 126
f 127 168 167
f 128 169 168
f 130 169 129
f 130 171 170
f 132 171 131
f 132 173 172
f 134 173 133
f 135 174 134
f 135 176 175
f 137 176 136
f 137 178 177
f 138 179 178
f 140 179 139
f 141 180 140
f 141 182 181
f 142 183 182
f 144 183 143
f 145 184 144
f 146 185 145
f 147 186 146
f 147 188 187
f 148 189 188
f 150 189 149
f 150 191 190
f 152 191 151
f 152 193 192
f 154 193 153
f 155 194 154
f 155 196 195
f 157 196 156
f 157 198 197
f 158 199 198
f 160 199 159
f 121 200 160
f 161 202 201
f 162 203 202
f 164 203 163
f 164 205 204
f 166 205 165
f 167 206 166
f 167 208 207
f 169 208 168
f 169 210 209
f 171 210 170
f 171 212 211
f 173 212 172
f 173 214 213
f 175 214 174
f 175 216 215
f 177 216 176
f 178 217 177
f 178 219 218
f 180 219 179
f 181 220 180
f 181 222 221
f 182 223 222
f 184 223 183
f 184 225 224
f 186 225 185
f 187 226 186
f 187 228 227
f 189 228 188
f 189 230 229
f 191 230 190
f 191 232 231
f 193 232 192
f 193 234 233
f 195 234 194
f 195 236 235
f 197 236 196
f 198 237 197
f 198 239 238
f 200 239 199
f 161 240 200
f 202 241 201
f 203 242 202
f 203 244 243
f 205 244 204
f 206 245 205
f 206 247 246
f 208 247 207
f 209 248 208
f 210 249 209
f 211 250 210
f 211 252 251
f 212 253 252
f 213 254 253
f 214 255 254
f 216 255 215
f 216 257 256
f 217 258 257
f 219 258 218
f 219 260 259
f 220 261 260
f 222 261 221
f 223 262 222
f 223 264 263
f 225 264 224
f 226 265 225
f 226 267 266
f 228 267 227
f 229 268 228
f 230 269 229
f 231 270 230
f 231 272 271
f 232 273 272
f 233 274 273
f 234 275 274
f 236 275 235
f 236 277 276
f 237 278 277
f 239 278 238
f 239 280 279
f 240 241 280
f 242 281 241
f 242 283 282
f 243 284 283
f 245 284 244
f 245 286 285
f 247 286 246
f 248 287 247
f 248 289 288
f 250 289 249
f 251 290 250
f 251 292 291
f 252 293 292
f 254 293 253
f 254 295 294
f 255 296 295
f 257 296 256
f 257 298 297
f 259 298 258
f 260 299 259
f 260 301 300
f 262 301 261
f 262 303 302
f 263 304 303
f 265 304 264
f 265 306 305
f 267 306 266
f 268 307 267
f 268 309 308
f 270 309 269
f 271 310 270
f 271 312 311
f 272 313 312
f 274 313 273
f 274 315 314
f 275 316 315
f 277 316 276
f 277 318 317
f 279 318 278
f 280 319 279
f 280 281 320
f 282 321 281
f 282 323 322
f 284 323 283
f 284 325 324
f 286 325 285
f 287 326 286
f 287 328 327
f 288 329 328
f 289 330 329
f 291 330 290
f 291 332 331
f 293 332 292
f 293 334 333
f 294 335 334
f 295 336 335
f 296 337 336
f 298 337 297
f 298 339 338
f 300 339 299
f 300 341 340
f 302 341 301
f 302 343 342
f 304 343 303
f 304 345 344
f 306 345 305
f 307 346 306
f 307 348 347
f 308 349 348
f 309 350 349
f 311 350 310
f 311 352 351
f 313 352 312
f 313 354 353
f 314 355 354
f 315 356 355
f 316 357 356
f 318 357 317
f 318 359 358
f 320 359 319
f 320 321 360
f 322 361 321
f 322 363 362
f 323 364 363
f 325 364 324
f 326 365 325
f 327 366 326
f 327 368 367
f 329 368 328
f 329 370 369
f 330 371 370
f 332 371 331
f 333 372 332
f 333 374 373
f 335 374 334
f 335 376 375
f 336 377 376
f 337 378 377
f 339 378 338
f 340 379 339
f 340 381 380
f 342 381 341
f 342 383 382
f 343 384 383
f 345 384 344
f 346 385 345
f 347 386 346
f 347 388 387
f 349 388 348
f 349 390 389
f 350 391 390
f 352 391 351
f 353 392 352
f 353 394 393
f 355 394 354
f 355 396 395
f 356 397 396
f 357 398 397
f 359 398 358
f 360 399 359
f 360 361 400
f 401 2 1
f 401 3 2
f 401 4 3
f 401 5 4
f 401 6 5
f 401 7 6
f 401 8 7
f 401 9 8
f 401 10 9
f 401 11 10
f 401 12 11
f 401 13 12
f 401 14 13
f 401 15 14
f 401 16 15
f 401 17 16
f 401 18 17
f 401 19 18
f 401 20 19
f 401 21 20
f 401 22 21
f 401 23 22
f 401 24 23
f 401 25 24
f 401 26 25
f 401 27 26
f 401 28 27
f 401 29 28
f 401 30 29
f 401 31 30
f 401 32 31
f 401 33 32
f 401 34 33
f 401 35 34
f 401 36 35
f 401 37 36
f 401 38 37
f 401 39 38
f 401 40 39
f 401 1 40
f 361 362 402
f 362 363 402
f 363 364 402
f 364 365 402
f 365 366 402
f 366 367 402
f 367 368 402
f 368 369 402
f 369 370 402
f 370 371 402
f 371 372 402
f 372 373 402
f 373 374 402
f 374 375 402
f 375 376 402
f 376 377 402
f 377 378 402
f 378 379 402
f 379 380 402
f 380 381 402
f 381 382 402
f 382 383 402
f 383 384 402
f 384 385 402
f 385 386 402
f 386 387 402
f 387 388 402
f 388 389 402
f 389 390 402
f 390 391 402
f 391 392 402
f 392 393 402
f 393 394 402
f 394 395 402
f 395 396 402
f 396 397 402
f 397 398 402
f 398 399 402
f 399 400 402
f 400 361 402
f 1 2 42
f 2 3 43
f 3 4 44
f 4 5 45
f 6 46 45
f 6 7 47
f 8 48 47
f 9 49 48
f 10 50 49
f 11 51 50
f 11 12 52
f 12 13 53
f 13 14 54
f 14 15 55
f 16 56 55
f 16 17 57
f 18 58 57
f 19 59 58
f 20 60 59
f 21 61 60
f 21 22 62
f 22 23 63
f 23 24 64
f 24 25 65
f 26 66 65
f 26 27 67
f 28 68 67
f 29 69 68
f 30 70 69
f 31 71 70
f 31 32 72
f 32 33 73
f 33 34 74
f 34 35 75
f 36 76 75
f 36 37 77
f 38 78 77
f 39 79 78
f 40 80 79
f 1 41 80
f 41 42 82
f 43 83 82
f 43 44 84
f 44 45 85
f 45 46 86
f 47 87 86
f 47 48 88
f 48 49 89
f 50 90 89
f 50 51 91
f 52 92 91
f 52 53 93
f 54 94 93
f 55 95 94
f 55 56 96
f 57 97 96
f 58 98 97
f 59 99 98
f 59 60 100
f 61 101 100
f 61 62 102
f 63 103 102
f 63 64 104
f 64 65 105
f 65 66 106
f 67 107 106
f 67 68 108
f 68 69 109
f 70 110 109
f 70 71 111
f 72 112 111
f 72 73 113
f 74 114 113
f 75 115 114
f 75 76 116
f 77 117 116
f 78 118 117
f 79 119 118
f 79 80 120
f 41 81 120
f 82 122 121
f 83 123 122
f 83 84 124
f 84 85 125
f 85 86 126
f 86 87 127
f 88 128 127
f 88 89 129
f 90 130 129
f 91 131 130
f 91 92 132
f 93 133 132
f 94 134 133
f 94 95 135
f 96 136 135
f 97 137 136
f 98 138 137
f 99 139 138
f 100 140 139
f 101 141 140
f 102 142 141
f 103 143 142
f 103 104 144
f 104 105 145
f 105 106 146
f 106 107 147
f 108 148 147
f 108 109 149
f 110 150 149
f 111 151 150
f 111 112 152
f 113 153 152
f 114 154 153
f 114 115 155
f 116 156 155
f 117 157 156
f 118 158 157
f 119 159 158
f 120 160 159
f 81 121 160
f 121 122 162
f 122 123 163
f 124 164 163
f 125 165 164
f 126 166 165
f 127 167 166
f 127 128 168
f 128 129 169
f 130 170 169
f 130 131 171
f 132 172 171
f 132 133 173
f 134 174 173
f 135 175 174
f 135 136 176
f 137 177 176
f 137 138 178
f 138 139 179
f 140 180 179
f 141 181 180
f 141 142 182
f 142 143 183
f 144 184 183
f 145 185 184
f 146 186 185
f 147 187 186
f 147 148 188
f 148 149 189
f 150 190 189
f 150 151 191
f 152 192 191
f 152 153 193
f 154 194 193
f 155 195 194
f 155 156 196
f 157 197 196
f 157 158 198
f 158 159 199
f 160 200 199
f 121 161 200
f 161 162 202
f 162 163 203
f 164 204 203
f 164 165 205
f 166 206 205
f 167 207 206
f 167 168 208
f 169 209 208
f 169 170 210
f 171 211 210
f 171 172 212
f 173 213 212
f 173 174 214
f 175 215 214
f 175 176 216
f 177 217 216
f 178 218 217
f 178 179 219
f 180 220 219
f 181 221 220
f 181 182 222
f 182 183 223
f 184 224 223
f 184 185 225
f 186 226 225
f 187 227 226
f 187 188 228
f 189 229 228
f 189 190 230
f 191 231 230
f 191 192 232
f 193 233 232
f 193 194 234
f 195 235 234
f 195 196 236
f 197 237 236
f 198 238 237
f 198 199 239
f 200 240 239
f 161 201 240
f 202 242 241
f 203 243 242
f 203 204 244
f 205 245 244
f 206 246 245
f 206 207 247
f 208 248 247
f 209 249 248
f 210 250 249
f 211 251 250
f 211 212 252
f 212 213 253
f 213 214 254
f 214 215 255
f 216 256 255
f 216 217 257
f 217 218 258
f 219 259 258
f 219 220 260
f 220 221 261
f 222 262 261
f 223 263 262
f 223 224 264
f 225 265 264
f 226 266 265
f 226 227 267
f 228 268 267
f 229 269 268
f 230 270 269
f 231 271 270
f 231 232 272
f 232 233 273
f 233 234 274
f 234 235 275
f 236 276 275
f 236 237 277
f 237 238 278
f 239 279 278
f 239 240 280
f 240 201 241
f 242 282 281
f 242 243 283
f 243 244 284
f 245 285 284
f 245 246 286
f 247 287 286
f 248 288 287
f 248 249 289
f 250 290 289
f 251 291 290
f 251 252 292
f 252 253 293
f 254 294 293
f 254 255 295
f 255 256 296
f 257 297 296
f 257 258 298
f 259 299 298
f 260 300 299
f 260 261 301
f 262 302 301
f 262 263 303
f 263 264 304
f 265 305 304
f 265 266 306
f 267 307 306
f 268 308 307
f 268 269 309
f 270 310 309
f 271 311 310
f 271 272 312
f 272 273 313
f 274 314 313
f 274 275 315
f 275 276 316
f 277 317 316
f 277 278 318
f 279 319 318
f 280 320 319
f 280 241 281
f 282 322 321
f 282 283 323
f 284 324 323
f 284 285 325
f 286 326 325
f 287 327 326
f 287 288 328
f 288 289 329
f 289 290 330
f 291 331 330
f 291 292 332
f 293 333 332
f 293 294 334
f 294 295 335
f 295 296 336
f 296 297 337
f 298 338 337
f 298 299 339
f 300 340 339
f 300 301 341
f 302 342 341
f 302 303 343
f 304 344 343
f 304 305 345
f 306 346 345
f 307 347 346
f 307 308 348
f 308 309 349
f 309 310 350
f 311 351 350
f 311 312 352
f 313 353 352
f 313 314 354
f 314 315 355
f 315 316 356
f 316 317 357
f 318 358 357
f 318 319 359
f 320 360 359
f 320 281 321
f 322 362 361
f 322 323 363
f 323 324 364
f 325 365 364
f 326 366 365
f 327 367 366
f 327 328 368
f 329 369 368
f 329 330 370
f 330 331 371
f 332 372 371
f 333 373 372
f 333 334 374
f 335 375 374
f 335 336 376
f 336 337 377
f 337 338 378
f 339 379 378
f 340 380 379
f 340 341 381
f 342 382 381
f 342 343 383
f 343 344 384
f 345 385 384
f 346 386 385
f 347 387 386
f 347 348 388
f 349 389 388
f 349 350 390
f 350 351 391
f 352 392 391
f 353 393 392
f 353 354 394
f 355 395 394
f 355 356 396
f 356 357 397
f 357 358 398
f 359 399 398
f 360 400 399
f 360 321 361
f 478 481 482
f 404 407 403
f 410 405 409
f 408 411 407
f 470 465 469
f 414 409 413
f 476 479 475
f 412 415 411
f 418 413 417
f 416 419 415
f 464 467 463
f 418 421 422
f 420 423 419
f 526 521 525
f 422 425 426
f 474 477 478
f 428 423 424
f 426 429 430
f 432 427 428
f 430 433 434
f 476 471 472
f 432 435 431
f 466 461 465
f 434 437 438
f 520 523 519
f 436 439 435
f 538 533 537
f 442 437 441
f 440 443 439
f 442 445 446
f 474 469 473
f 448 443 444
f 464 459 460
f 446 449 450
f 536 531 532
f 452 447 448
f 454 449 453
f 472 467 468
f 456 451 452
f 454 457 458
f 456 403 455
f 406 457 405
f 480 483 479
f 530 533 534
f 486 481 485
f 484 487 483
f 486 489 490
f 518 521 522
f 492 487 488
f 528 531 527
f 494 489 493
f 496 491 492
f 494 497 498
f 500 495 496
f 502 497 501
f 520 515 516
f 500 503 499
f 526 529 530
f 506 501 505
f 508 503 504
f 510 505 509
f 508 511 507
f 524 527 523
f 510 513 514
f 512 459 511
f 514 461 462
f 540 535 536
f 538 541 542
f 544 539 540
f 546 541 545
f 544 547 543
f 550 545 549
f 552 547 548
f 554 549 553
f 556 551 552
f 558 553 557
f 560 555 556
f 562 557 561
f 564 559 560
f 562 565 566
f 568 563 564
f 566 569 570
f 516 567 568
f 570 517 518
f 455 415 431
f 404 410 408
f 458 404 456
f 429 421 453
f 410 412 408
f 414 416 412
f 416 422 420
f 420 426 424
f 426 428 424
f 428 434 432
f 432 438 436
f 438 440 436
f 442 444 440
f 446 448 444
f 448 454 452
f 454 456 452
f 514 460 512
f 460 466 464
f 503 511 463
f 501 485 469
f 466 468 464
f 468 474 472
f 474 476 472
f 476 482 480
f 480 486 484
f 486 488 484
f 488 494 492
f 494 496 492
f 498 500 496
f 500 506 504
f 506 508 504
f 508 514 512
f 570 516 568
f 516 522 520
f 535 551 567
f 553 537 521
f 520 526 524
f 526 528 524
f 528 534 532
f 532 538 536
f 536 542 540
f 542 544 540
f 546 548 544
f 548 554 552
f 554 556 552
f 558 560 556
f 560 566 564
f 564 570 568
f 478 477 481
f 404 408 407
f 410 406 405
f 408 412 411
f 470 466 465
f 414 410 409
f 476 480 479
f 412 416 415
f 418 414 413
f 416 420 419
f 464 468 467
f 418 417 421
f 420 424 423
f 526 522 521
f 422 421 425
f 474 473 477
f 428 427 423
f 426 425 429
f 432 431 427
f 430 429 433
f 476 475 471
f 432 436 435
f 466 462 461
f 434 433 437
f 520 524 523
f 436 440 439
f 538 534 533
f 442 438 437
f 440 444 443
f 442 441 445
f 474 470 469
f 448 447 443
f 464 463 459
f 446 445 449
f 536 535 531
f 452 451 447
f 454 450 449
f 472 471 467
f 456 455 451
f 454 453 457
f 456 404 403
f 406 458 457
f 480 484 483
f 530 529 533
f 486 482 481
f 484 488 487
f 486 485 489
f 518 517 521
f 492 491 487
f 528 532 531
f 494 490 489
f 496 495 491
f 494 493 497
f 500 499 495
f 502 498 497
f 520 519 515
f 500 504 503
f 526 525 529
f 506 502 501
f 508 507 503
f 510 506 505
f 508 512 511
f 524 528 527
f 510 509 513
f 512 460 459
f 514 513 461
f 540 539 535
f 538 537 541
f 544 543 539
f 546 542 541
f 544 548 547
f 550 546 545
f 552 551 547
f 554 550 549
f 556 555 551
f 558 554 553
f 560 559 555
f 562 558 557
f 564 563 559
f 562 561 565
f 568 567 563
f 566 565 569
f 516 515 567
f 570 569 517
f 455 403 407
f 407 411 415
f 415 419 423
f 423 427 415
f 427 431 415
f 431 435 439
f 439 443 447
f 447 451 455
f 455 407 415
f 431 439 447
f 447 455 431
f 404 406 410
f 458 406 404
f 413 409 405
f 405 457 413
f 457 453 413
f 453 449 445
f 445 441 437
f 437 433 429
f 429 425 421
f 421 417 453
f 417 413 453
f 453 445 437
f 437 429 453
f 410 414 412
f 414 418 416
f 416 418 422
f 420 422 426
f 426 430 428
f 428 430 434
f 432 434 438
f 438 442 440
f 442 446 444
f 446 450 448
f 448 450 454
f 454 458 456
f 514 462 460
f 460 462 466
f 471 475 479
f 479 483 487
f 487 491 495
f 495 499 503
f 503 507 511
f 511 459 463
f 463 467 471
f 471 479 463
f 479 487 463
f 487 495 463
f 495 503 463
f 501 497 493
f 493 489 485
f 485 481 469
f 481 477 469
f 477 473 469
f 469 465 509
f 465 461 509
f 461 513 509
f 509 505 501
f 501 493 485
f 509 501 469
f 466 470 468
f 468 470 474
f 474 478 476
f 476 478 482
f 480 482 486
f 486 490 488
f 488 490 494
f 494 498 496
f 498 502 500
f 500 502 506
f 506 510 508
f 508 510 514
f 570 518 516
f 516 518 522
f 535 539 543
f 543 547 535
f 547 551 535
f 551 555 567
f 555 559 567
f 559 563 567
f 567 515 519
f 519 523 527
f 527 531 535
f 567 519 527
f 527 535 567
f 553 549 545
f 545 541 553
f 541 537 553
f 537 533 521
f 533 529 521
f 529 525 521
f 521 517 569
f 569 565 521
f 565 561 521
f 561 557 553
f 561 553 521
f 520 522 526
f 526 530 528
f 528 530 534
f 532 534 538
f 536 538 542
f 542 546 544
f 546 550 548
f 548 550 554
f 554 558 556
f 558 562 560
f 560 562 566
f 564 566 570
f 571 582 581
f 572 583 582
f 573 584 583
f 574 585 584
f 575 586 585
f 577 586 576
f 578 587 577
f 579 588 578
f 580 589 579
f 571 590 580
f 581 592 591
f 582 593 592
f 584 593 583
f 585 594 584
f 586 595 585
f 587 596 586
f 587 598 597
f 589 598 588
f 589 600 599
f 590 591 600
f 591 602 601
f 593 602 592
f 594 603 593
f 595 604 594
f 596 605 595
f 597 606 596
f 597 608 607
f 598 609 608
f 599 610 609
f 600 601 610
f 601 612 611
f 603 612 602
f 603 614 613
f 605 614 604
f 606 615 605
f 607 616 606
f 607 618 617
f 609 618 608
f 610 619 609
f 601 620 610
f 611 622 621
f 612 623 622
f 613 624 623
f 614 625 624
f 616 625 615
f 616 627 626
f 618 627 617
f 619 628 618
f 619 630 629
f 611 630 620
f 622 631 621
f 622 633 632
f 624 633 623
f 624 635 634
f 625 636 635
f 627 636 626
f 628 637 627
f 628 639 638
f 630 639 629
f 621 640 630
f 632 641 631
f 633 642 632
f 633 644 643
f 634 645 644
f 636 645 635
f 637 646 636
f 638 647 637
f 639 648 638
f 639 650 649
f 640 641 650
f 642 651 641
f 643 652 642
f 644 653 643
f 645 654 644
f 646 655 645
f 647 656 646
f 648 657 647
f 648 659 658
f 650 659 649
f 641 660 650
f 651 662 661
f 652 663 662
f 654 663 653
f 655 664 654
f 655 666 665
f 657 666 656
f 658 667 657
f 658 669 668
f 660 669 659
f 651 670 660
f 661 672 671
f 663 672 662
f 663 674 673
f 665 674 664
f 665 676 675
f 666 677 676
f 667 678 677
f 669 678 668
f 669 680 679
f 661 680 670
f 672 681 671
f 673 682 672
f 673 684 683
f 675 684 674
f 675 686 685
f 676 687 686
f 677 688 687
f 679 688 678
f 679 690 689
f 671 690 680
f 681 692 691
f 682 693 692
f 684 693 683
f 685 694 684
f 685 696 695
f 686 697 696
f 687 698 697
f 689 698 688
f 690 699 689
f 681 700 690
f 692 701 691
f 693 702 692
f 694 703 693
f 694 705 704
f 696 705 695
f 697 706 696
f 698 707 697
f 699 708 698
f 699 710 709
f 700 701 710
f 701 712 711
f 702 713 712
f 704 713 703
f 704 715 714
f 706 715 705
f 707 716 706
f 708 717 707
f 708 719 718
f 710 719 709
f 710 711 720
f 712 721 711
f 712 723 722
f 714 723 713
f 714 725 724
f 716 725 715
f 717 726 716
f 718 727 717
f 718 729 728
f 720 729 719
f 720 721 730
f 722 731 721
f 723 732 722
f 723 734 733
f 724 735 734
f 726 735 725
f 726 737 736
f 727 738 737
f 729 738 728
f 729 740 739
f 730 731 740
f 731 742 741
f 732 743 742
f 733 744 743
f 734 745 744
f 735 746 745
f 736 747 746
f 737 748 747
f 739 748 738
f 739 750 749
f 740 741 750
f 741 752 751
f 742 753 752
f 744 753 743
f 745 754 744
f 745 756 755
f 746 757 756
f 747 758 757
f 748 759 758
f 750 759 749
f 741 760 750
f 751 762 761
f 753 762 752
f 753 764 763
f 755 764 754
f 756 765 755
f 756 767 766
f 757 768 767
f 759 768 758
f 759 770 769
f 760 761 770
f 762 771 761
f 763 772 762
f 764 773 763
f 765 774 764
f 765 776 775
f 767 776 766
f 767 778 777
f 768 779 778
f 770 779 769
f 770 771 780
f 772 781 771
f 773 782 772
f 774 783 773
f 774 785 784
f 775 786 785
f 776 787 786
f 778 787 777
f 778 789 788
f 779 790 789
f 780 781 790
f 782 791 781
f 782 793 792
f 783 794 793
f 784 795 794
f 785 796 795
f 786 797 796
f 788 797 787
f 789 798 788
f 790 799 789
f 790 791 800
f 792 801 791
f 793 802 792
f 793 804 803
f 794 805 804
f 795 806 805
f 796 807 806
f 798 807 797
f 799 808 798
f 800 809 799
f 791 810 800
f 801 812 811
f 803 812 802
f 804 813 803
f 804 815 814
f 805 816 815
f 806 817 816
f 808 817 807
f 809 818 808
f 809 820 819
f 801 820 810
f 812 821 811
f 812 823 822
f 814 823 813
f 815 824 814
f 816 825 815
f 817 826 816
f 817 828 827
f 819 828 818
f 820 829 819
f 820 821 830
f 821 832 831
f 822 833 832
f 824 833 823
f 825 834 824
f 826 835 825
f 827 836 826
f 827 838 837
f 829 838 828
f 829 840 839
f 830 831 840
f 831 842 841
f 833 842 832
f 834 843 833
f 835 844 834
f 836 845 835
f 837 846 836
f 837 848 847
f 838 849 848
f 839 850 849
f 840 841 850
f 841 852 851
f 843 852 842
f 843 854 853
f 845 854 844
f 846 855 845
f 847 856 846
f 847 858 857
f 849 858 848
f 850 859 849
f 841 860 850
f 851 862 861
f 852 863 862
f 853 864 863
f 854 865 864
f 856 865 855
f 856 867 866
f 858 867 857
f 859 868 858
f 859 870 869
f 851 870 860
f 862 871 861
f 862 873 872
f 864 873 863
f 864 875 874
f 865 876 875
f 867 876 866
f 868 877 867
f 868 879 878
f 870 879 869
f 861 880 870
f 872 881 871
f 873 882 872
f 873 884 883
f 874 885 884
f 876 885 875
f 877 886 876
f 878 887 877
f 879 888 878
f 879 890 889
f 880 881 890
f 882 891 881
f 883 892 882
f 884 893 883
f 885 894 884
f 886 895 885
f 887 896 886
f 888 897 887
f 888 899 898
f 890 899 889
f 881 900 890
f 891 902 901
f 892 903 902
f 894 903 893
f 895 904 894
f 895 906 905
f 897 906 896
f 898 907 897
f 898 909 908
f 900 909 899
f 891 910 900
f 901 912 911
f 903 912 902
f 903 914 913
f 905 914 904
f 905 916 915
f 906 917 916
f 907 918 917
f 909 918 908
f 909 920 919
f 901 920 910
f 912 921 911
f 913 922 912
f 913 924 923
f 915 924 914
f 915 926 925
f 916 927 926
f 917 928 927
f 919 928 918
f 919 930 929
f 911 930 920
f 921 932 931
f 922 933 932
f 924 933 923
f 925 934 924
f 925 936 935
f 926 937 936
f 927 938 937
f 929 938 928
f 930 939 929
f 921 940 930
f 932 941 931
f 933 942 932
f 934 943 933
f 934 945 944
f 936 945 935
f 937 946 936
f 938 947 937
f 939 948 938
f 939 950 949
f 940 941 950
f 941 952 951
f 942 953 952
f 944 953 943
f 944 955 954
f 946 955 945
f 947 956 946
f 948 957 947
f 948 959 958
f 950 959 949
f 950 951 960
f 952 961 951
f 952 963 962
f 954 963 953
f 954 965 964
f 956 965 955
f 957 966 956
f 958 967 957
f 958 969 968
f 960 969 959
f 960 961 970
f 962 971 961
f 963 972 962
f 963 974 973
f 964 975 974
f 966 975 965
f 966 977 976
f 967 978 977
f 969 978 968
f 969 980 979
f 970 971 980
f 971 982 981
f 972 983 982
f 973 984 983
f 974 985 984
f 975 986 985
f 976 987 986
f 977 988 987
f 979 988 978
f 979 990 989
f 980 981 990
f 981 992 991
f 982 993 992
f 984 993 983
f 985 994 984
f 985 996 995
f 986 997 996
f 987 998 997
f 988 999 998
f 990 999 989
f 981 1000 990
f 991 1002 1001
f 993 1002 992
f 993 1004 1003
f 995 1004 994
f 996 1005 995
f 996 1007 1006
f 997 1008 1007
f 999 1008 998
f 999 1010 1009
f 1000 1001 1010
f 1002 1011 1001
f 1003 1012 1002
f 1004 1013 1003
f 1005 1014 1004
f 1005 1016 1015
f 1007 1016 1006
f 1007 1018 1017
f 1008 1019 1018
f 1010 1019 1009
f 1010 1011 1020
f 1012 1021 1011
f 1013 1022 1012
f 1014 1023 1013
f 1014 1025 1024
f 1015 1026 1025
f 1016 1027 1026
f 1018 1027 1017
f 1018 1029 1028
f 1019 1030 1029
f 1020 1021 1030
f 1022 1031 1021
f 1022 1033 1032
f 1023 1034 1033
f 1024 1035 1034
f 1025 1036 1035
f 1026 1037 1036
f 1028 1037 1027
f 1029 1038 1028
f 1030 1039 1029
f 1030 1031 1040
f 1032 1041 1031
f 1033 1042 1032
f 1033 1044 1043
f 1034 1045 1044
f 1035 1046 1045
f 1036 1047 1046
f 1038 1047 1037
f 1039 1048 1038
f 1040 1049 1039
f 1031 1050 1040
f 1042 1051 1041
f 1043 1052 1042
f 1044 1053 1043
f 1045 1054 1044
f 1046 1055 1045
f 1046 1057 1056
f 1047 1058 1057
f 1048 1059 1058
f 1049 1060 1059
f 1050 1051 1060
f 571 572 582
f 572 573 583
f 573 574 584
f 574 575 585
f 575 576 586
f 577 587 586
f 578 588 587
f 579 589 588
f 580 590 589
f 571 581 590
f 581 582 592
f 582 583 593
f 584 594 593
f 585 595 594
f 586 596 595
f 587 597 596
f 587 588 598
f 589 599 598
f 589 590 600
f 590 581 591
f 591 592 602
f 593 603 602
f 594 604 603
f 595 605 604
f 596 606 605
f 597 607 606
f 597 598 608
f 598 599 609
f 599 600 610
f 600 591 601
f 601 602 612
f 603 613 612
f 603 604 614
f 605 615 614
f 606 616 615
f 607 617 616
f 607 608 618
f 609 619 618
f 610 620 619
f 601 611 620
f 611 612 622
f 612 613 623
f 613 614 624
f 614 615 625
f 616 626 625
f 616 617 627
f 618 628 627
f 619 629 628
f 619 620 630
f 611 621 630
f 622 632 631
f 622 623 633
f 624 634 633
f 624 625 635
f 625 626 636
f 627 637 636
f 628 638 637
f 628 629 639
f 630 640 639
f 621 631 640
f 632 642 641
f 633 643 642
f 633 634 644
f 634 635 645
f 636 646 645
f 637 647 646
f 638 648 647
f 639 649 648
f 639 640 650
f 640 631 641
f 642 652 651
f 643 653 652
f 644 654 653
f 645 655 654
f 646 656 655
f 647 657 656
f 648 658 657
f 648 649 659
f 650 660 659
f 641 651 660
f 651 652 662
f 652 653 663
f 654 664 663
f 655 665 664
f 655 656 666
f 657 667 666
f 658 668 667
f 658 659 669
f 660 670 669
f 651 661 670
f 661 662 672
f 663 673 672
f 663 664 674
f 665 675 674
f 665 666 676
f 666 667 677
f 667 668 678
f 669 679 678
f 669 670 680
f 661 671 680
f 672 682 681
f 673 683 682
f 673 674 684
f 675 685 684
f 675 676 686
f 676 677 687
f 677 678 688
f 679 689 688
f 679 680 690
f 671 681 690
f 681 682 692
f 682 683 693
f 684 694 693
f 685 695 694
f 685 686 696
f 686 687 697
f 687 688 698
f 689 699 698
f 690 700 699
f 681 691 700
f 692 702 701
f 693 703 702
f 694 704 703
f 694 695 705
f 696 706 705
f 697 707 706
f 698 708 707
f 699 709 708
f 699 700 710
f 700 691 701
f 701 702 712
f 702 703 713
f 704 714 713
f 704 705 715
f 706 716 715
f 707 717 716
f 708 718 717
f 708 709 719
f 710 720 719
f 710 701 711
f 712 722 721
f 712 713 723
f 714 724 723
f 714 715 725
f 716 726 725
f 717 727 726
f 718 728 727
f 718 719 729
f 720 730 729
f 720 711 721
f 722 732 731
f 723 733 732
f 723 724 734
f 724 725 735
f 726 736 735
f 726 727 737
f 727 728 738
f 729 739 738
f 729 730 740
f 730 721 731
f 731 732 742
f 732 733 743
f 733 734 744
f 734 735 745
f 735 736 746
f 736 737 747
f 737 738 748
f 739 749 748
f 739 740 750
f 740 731 741
f 741 742 752
f 742 743 753
f 744 754 753
f 745 755 754
f 745 746 756
f 746 747 757
f 747 748 758
f 748 749 759
f 750 760 759
f 741 751 760
f 751 752 762
f 753 763 762
f 753 754 764
f 755 765 764
f 756 766 765
f 756 757 767
f 757 758 768
f 759 769 768
f 759 760 770
f 760 751 761
f 762 772 771
f 763 773 772
f 764 774 773
f 765 775 774
f 765 766 776
f 767 777 776
f 767 768 778
f 768 769 779
f 770 780 779
f 770 761 771
f 772 782 781
f 773 783 782
f 774 784 783
f 774 775 785
f 775 776 786
f 776 777 787
f 778 788 787
f 778 779 789
f 779 780 790
f 780 771 781
f 782 792 791
f 782 783 793
f 783 784 794
f 784 785 795
f 785 786 796
f 786 787 797
f 788 798 797
f 789 799 798
f 790 800 799
f 790 781 791
f 792 802 801
f 793 803 802
f 793 794 804
f 794 795 805
f 795 796 806
f 796 797 807
f 798 808 807
f 799 809 808
f 800 810 809
f 791 801 810
f 801 802 812
f 803 813 812
f 804 814 813
f 804 805 815
f 805 806 816
f 806 807 817
f 808 818 817
f 809 819 818
f 809 810 820
f 801 811 820
f 812 822 821
f 812 813 823
f 814 824 823
f 815 825 824
f 816 826 825
f 817 827 826
f 817 818 828
f 819 829 828
f 820 830 829
f 820 811 821
f 821 822 832
f 822 823 833
f 824 834 833
f 825 835 834
f 826 836 835
f 827 837 836
f 827 828 838
f 829 839 838
f 829 830 840
f 830 821 831
f 831 832 842
f 833 843 842
f 834 844 843
f 835 845 844
f 836 846 845
f 837 847 846
f 837 838 848
f 838 839 849
f 839 840 850
f 840 831 841
f 841 842 852
f 843 853 852
f 843 844 854
f 845 855 854
f 846 856 855
f 847 857 856
f 847 848 858
f 849 859 858
f 850 860 859
f 841 851 860
f 851 852 862
f 852 853 863
f 853 854 864
f 854 855 865
f 856 866 865
f 856 857 867
f 858 868 867
f 859 869 868
f 859 860 870
f 851 861 870
f 862 872 871
f 862 863 873
f 864 874 873
f 864 865 875
f 865 866 876
f 867 877 876
f 868 878 877
f 868 869 879
f 870 880 879
f 861 871 880
f 872 882 881
f 873 883 882
f 873 874 884
f 874 875 885
f 876 886 885
f 877 887 886
f 878 888 887
f 879 889 888
f 879 880 890
f 880 871 881
f 882 892 891
f 883 893 892
f 884 894 893
f 885 895 894
f 886 896 895
f 887 897 896
f 888 898 897
f 888 889 899
f 890 900 899
f 881 891 900
f 891 892 902
f 892 893 903
f 894 904 903
f 895 905 904
f 895 896 906
f 897 907 906
f 898 908 907
f 898 899 909
f 900 910 909
f 891 901 910
f 901 902 912
f 903 913 912
f 903 904 914
f 905 915 914
f 905 906 916
f 906 907 917
f 907 908 918
f 909 919 918
f 909 910 920
f 901 911 920
f 912 922 921
f 913 923 922
f 913 914 924
f 915 925 924
f 915 916 926
f 916 917 927
f 917 918 928
f 919 929 928
f 919 920 930
f 911 921 930
f 921 922 932
f 922 923 933
f 924 934 933
f 925 935 934
f 925 926 936
f 926 927 937
f 927 928 938
f 929 939 938
f 930 940 939
f 921 931 940
f 932 942 941
f 933 943 942
f 934 944 943
f 934 935 945
f 936 946 945
f 937 947 946
f 938 948 947
f 939 949 948
f 939 940 950
f 940 931 941
f 941 942 952
f 942 943 953
f 944 954 953
f 944 945 955
f 946 956 955
f 947 957 956
f 948 958 957
f 948 949 959
f 950 960 959
f 950 941 951
f 952 962 961
f 952 953 963
f 954 964 963
f 954 955 965
f 956 966 965
f 957 967 966
f 958 968 967
f 958 959 969
f 960 970 969
f 960 951 961
f 962 972 971
f 963 973 972
f 963 964 974
f 964 965 975
f 966 976 975
f 966 967 977
f 967 968 978
f 969 979 978
f 969 970 980
f 970 961 971
f 971 972 982
f 972 973 983
f 973 974 984
f 974 975 985
f 975 976 986
f 976 977 987
f 977 978 988
f 979 989 988
f 979 980 990
f 980 971 981
f 981 982 992
f 982 983 993
f 984 994 993
f 985 995 994
f 985 986 996
f 986 987 997
f 987 988 998
f 988 989 999
f 990 1000 999
f 981 991 1000
f 991 992 1002
f 993 1003 1002
f 993 994 1004
f 995 1005 1004
f 996 1006 1005
f 996 997 1007
f 997 998 1008
f 999 1009 1008
f 999 1000 1010
f 1000 991 1001
f 1002 1012 1011
f 1003 1013 1012
f 1004 1014 1013
f 1005 1015 1014
f 1005 1006 1016
f 1007 1017 1016
f 1007 1008 1018
f 1008 1009 1019
f 1010 1020 1019
f 1010 1001 1011
f 1012 1022 1021
f 1013 1023 1022
f 1014 1024 1023
f 1014 1015 1025
f 1015 1016 1026
f 1016 1017 1027
f 1018 1028 1027
f 1018 1019 1029
f 1019 1020 1030
f 1020 1011 1021
f 1022 1032 1031
f 1022 1023 1033
f 1023 1024 1034
f 1024 1025 1035
f 1025 1026 1036
f 1026 1027 1037
f 1028 1038 1037
f 1029 1039 1038
f 1030 1040 1039
f 1030 1021 1031
f 1032 1042 1041
f 1033 1043 1042
f 1033 1034 1044
f 1034 1035 1045
f 1035 1036 1046
f 1036 1037 1047
f 1038 1048 1047
f 1039 1049 1048
f 1040 1050 1049
f 1031 1041 1050
f 1042 1052 1051
f 1043 1053 1052
f 1044 1054 1053
f 1045 1055 1054
f 1046 1056 1055
f 1046 1047 1057
f 1047 1048 1058
f 1048 1049 1059
f 1049 1050 1060
f 1050 1041 1051
