# apex Hud1_HudCyan.obj: Roblox cue frame, recentred on its bounding box
v -0.02917 0.23568 0.00000
v -0.02857 0.23173 -0.00693
v -0.02737 0.22382 -0.00693
v -0.02676 0.21986 0.00000
v -0.02737 0.22382 0.00693
v -0.02857 0.23173 0.00693
v -0.04240 0.23367 0.00000
v -0.04169 0.22973 -0.00693
v -0.04026 0.22186 -0.00693
v -0.03955 0.21792 0.00000
v -0.04026 0.22186 0.00693
v -0.04169 0.22973 0.00693
v -0.05573 0.23085 0.00000
v -0.05479 0.22696 -0.00693
v -0.05291 0.21919 -0.00693
v -0.05197 0.21530 0.00000
v -0.05291 0.21919 0.00693
v -0.05479 0.22696 0.00693
v -0.06887 0.22728 0.00000
v -0.06771 0.22345 -0.00693
v -0.06539 0.21579 -0.00693
v -0.06423 0.21196 0.00000
v -0.06539 0.21579 0.00693
v -0.06771 0.22345 0.00693
v -0.08178 0.22296 0.00000
v -0.08040 0.21920 -0.00693
v -0.07765 0.21169 -0.00693
v -0.07627 0.20794 0.00000
v -0.07765 0.21169 0.00693
v -0.08040 0.21920 0.00693
v -0.09442 0.21790 0.00000
v -0.09283 0.21423 -0.00693
v -0.08965 0.20689 -0.00693
v -0.08806 0.20322 0.00000
v -0.08965 0.20689 0.00693
v -0.09283 0.21423 0.00693
v -0.10676 0.21213 0.00000
v -0.10496 0.20856 -0.00693
v -0.10136 0.20141 -0.00693
v -0.09957 0.19784 0.00000
v -0.10136 0.20141 0.00693
v -0.10496 0.20856 0.00693
v -0.11874 0.20567 0.00000
v -0.11674 0.20220 -0.00693
v -0.11274 0.19527 -0.00693
v -0.11074 0.19181 0.00000
v -0.11274 0.19527 0.00693
v -0.11674 0.20220 0.00693
v -0.13033 0.19852 0.00000
v -0.12814 0.19518 -0.00693
v -0.12375 0.18849 -0.00693
v -0.12155 0.18515 0.00000
v -0.12375 0.18849 0.00693
v -0.12814 0.19518 0.00693
v -0.14150 0.19073 0.00000
v -0.13911 0.18751 -0.00693
v -0.13435 0.18109 -0.00693
v -0.13196 0.17788 0.00000
v -0.13435 0.18109 0.00693
v -0.13911 0.18751 0.00693
v -0.15220 0.18230 0.00000
v -0.14963 0.17923 -0.00693
v -0.14451 0.17309 -0.00693
v -0.14194 0.17002 0.00000
v -0.14451 0.17309 0.00693
v -0.14963 0.17923 0.00693
v -0.16239 0.17328 0.00000
v -0.15966 0.17036 -0.00693
v -0.15419 0.16452 -0.00693
v -0.15145 0.16160 0.00000
v -0.15419 0.16452 0.00693
v -0.15966 0.17036 0.00693
v -0.17206 0.16369 0.00000
v -0.16916 0.16093 -0.00693
v -0.16336 0.15542 -0.00693
v -0.16047 0.15266 0.00000
v -0.16336 0.15542 0.00693
v -0.16916 0.16093 0.00693
v -0.18116 0.15356 0.00000
v -0.17811 0.15097 -0.00693
v -0.17200 0.14580 -0.00693
v -0.16895 0.14321 0.00000
v -0.17200 0.14580 0.00693
v -0.17811 0.15097 0.00693
v -0.18952 0.14310 0.00000
v -0.18640 0.14060 -0.00693
v -0.18015 0.13561 -0.00693
v -0.17702 0.13311 0.00000
v -0.18015 0.13561 0.00693
v -0.18640 0.14060 0.00693
v -0.02797 0.22777 0.00000
v -0.18327 0.13811 0.00000
v -0.21869 0.09258 0.00000
v -0.21496 0.09112 -0.00693
v -0.20751 0.08821 -0.00693
v -0.20379 0.08675 0.00000
v -0.20751 0.08821 0.00693
v -0.21496 0.09112 0.00693
v -0.22356 0.08011 0.00000
v -0.21980 0.07876 -0.00693
v -0.21227 0.07606 -0.00693
v -0.20850 0.07471 0.00000
v -0.21227 0.07606 0.00693
v -0.21980 0.07876 0.00693
v -0.22779 0.06716 0.00000
v -0.22395 0.06603 -0.00693
v -0.21628 0.06377 -0.00693
v -0.21244 0.06264 0.00000
v -0.21628 0.06377 0.00693
v -0.22395 0.06603 0.00693
v -0.23126 0.05400 0.00000
v -0.22737 0.05309 -0.00693
v -0.21958 0.05127 -0.00693
v -0.21568 0.05036 0.00000
v -0.21958 0.05127 0.00693
v -0.22737 0.05309 0.00693
v -0.23398 0.04066 0.00000
v -0.23003 0.03997 -0.00693
v -0.22215 0.03860 -0.00693
v -0.21821 0.03792 0.00000
v -0.22215 0.03860 0.00693
v -0.23003 0.03997 0.00693
v -0.23592 0.02718 0.00000
v -0.23195 0.02672 -0.00693
v -0.22400 0.02580 -0.00693
v -0.22003 0.02535 0.00000
v -0.22400 0.02580 0.00693
v -0.23195 0.02672 0.00693
v -0.23709 0.01361 0.00000
v -0.23310 0.01338 -0.00693
v -0.22511 0.01292 -0.00693
v -0.22112 0.01269 0.00000
v -0.22511 0.01292 0.00693
v -0.23310 0.01338 0.00693
v -0.23748 0.00000 0.00000
v -0.23348 0.00000 -0.00693
v -0.22548 -0.00000 -0.00693
v -0.22148 -0.00000 0.00000
v -0.22548 -0.00000 0.00693
v -0.23348 0.00000 0.00693
v -0.23709 -0.01361 0.00000
v -0.23310 -0.01338 -0.00693
v -0.22511 -0.01292 -0.00693
v -0.22112 -0.01269 0.00000
v -0.22511 -0.01292 0.00693
v -0.23310 -0.01338 0.00693
v -0.23592 -0.02718 0.00000
v -0.23195 -0.02672 -0.00693
v -0.22400 -0.02580 -0.00693
v -0.22003 -0.02535 0.00000
v -0.22400 -0.02580 0.00693
v -0.23195 -0.02672 0.00693
v -0.23398 -0.04066 0.00000
v -0.23003 -0.03997 -0.00693
v -0.22215 -0.03860 -0.00693
v -0.21821 -0.03792 0.00000
v -0.22215 -0.03860 0.00693
v -0.23003 -0.03997 0.00693
v -0.23126 -0.05400 0.00000
v -0.22737 -0.05309 -0.00693
v -0.21958 -0.05127 -0.00693
v -0.21568 -0.05036 0.00000
v -0.21958 -0.05127 0.00693
v -0.22737 -0.05309 0.00693
v -0.22779 -0.06716 0.00000
v -0.22395 -0.06603 -0.00693
v -0.21628 -0.06377 -0.00693
v -0.21244 -0.06264 0.00000
v -0.21628 -0.06377 0.00693
v -0.22395 -0.06603 0.00693
v -0.22356 -0.08011 0.00000
v -0.21980 -0.07876 -0.00693
v -0.21227 -0.07606 -0.00693
v -0.20850 -0.07471 0.00000
v -0.21227 -0.07606 0.00693
v -0.21980 -0.07876 0.00693
v -0.21869 -0.09258 0.00000
v -0.21496 -0.09112 -0.00693
v -0.20751 -0.08821 -0.00693
v -0.20379 -0.08675 0.00000
v -0.20751 -0.08821 0.00693
v -0.21496 -0.09112 0.00693
v -0.21124 0.08967 0.00000
v -0.21124 -0.08967 0.00000
v -0.17702 -0.13311 0.00000
v -0.18015 -0.13561 0.00693
v -0.18640 -0.14060 0.00693
v -0.18952 -0.14310 0.00000
v -0.18640 -0.14060 -0.00693
v -0.18015 -0.13561 -0.00693
v -0.16895 -0.14321 0.00000
v -0.17200 -0.14580 0.00693
v -0.17811 -0.15097 0.00693
v -0.18116 -0.15356 0.00000
v -0.17811 -0.15097 -0.00693
v -0.17200 -0.14580 -0.00693
v -0.16047 -0.15266 0.00000
v -0.16336 -0.15542 0.00693
v -0.16916 -0.16093 0.00693
v -0.17206 -0.16369 0.00000
v -0.16916 -0.16093 -0.00693
v -0.16336 -0.15542 -0.00693
v -0.15145 -0.16160 0.00000
v -0.15419 -0.16452 0.00693
v -0.15966 -0.17036 0.00693
v -0.16239 -0.17328 0.00000
v -0.15966 -0.17036 -0.00693
v -0.15419 -0.16452 -0.00693
v -0.14194 -0.17002 0.00000
v -0.14451 -0.17309 0.00693
v -0.14963 -0.17923 0.00693
v -0.15220 -0.18230 0.00000
v -0.14963 -0.17923 -0.00693
v -0.14451 -0.17309 -0.00693
v -0.13196 -0.17788 0.00000
v -0.13435 -0.18109 0.00693
v -0.13911 -0.18751 0.00693
v -0.14150 -0.19073 0.00000
v -0.13911 -0.18751 -0.00693
v -0.13435 -0.18109 -0.00693
v -0.12155 -0.18515 0.00000
v -0.12375 -0.18849 0.00693
v -0.12814 -0.19518 0.00693
v -0.13033 -0.19852 0.00000
v -0.12814 -0.19518 -0.00693
v -0.12375 -0.18849 -0.00693
v -0.11074 -0.19181 0.00000
v -0.11274 -0.19527 0.00693
v -0.11674 -0.20220 0.00693
v -0.11874 -0.20567 0.00000
v -0.11674 -0.20220 -0.00693
v -0.11274 -0.19527 -0.00693
v -0.09957 -0.19784 0.00000
v -0.10136 -0.20141 0.00693
v -0.10496 -0.20856 0.00693
v -0.10676 -0.21213 0.00000
v -0.10496 -0.20856 -0.00693
v -0.10136 -0.20141 -0.00693
v -0.08806 -0.20322 0.00000
v -0.08965 -0.20689 0.00693
v -0.09283 -0.21423 0.00693
v -0.09442 -0.21790 0.00000
v -0.09283 -0.21423 -0.00693
v -0.08965 -0.20689 -0.00693
v -0.07627 -0.20794 0.00000
v -0.07765 -0.21169 0.00693
v -0.08040 -0.21920 0.00693
v -0.08178 -0.22296 0.00000
v -0.08040 -0.21920 -0.00693
v -0.07765 -0.21169 -0.00693
v -0.06423 -0.21196 0.00000
v -0.06539 -0.21579 0.00693
v -0.06771 -0.22345 0.00693
v -0.06887 -0.22728 0.00000
v -0.06771 -0.22345 -0.00693
v -0.06539 -0.21579 -0.00693
v -0.05197 -0.21530 0.00000
v -0.05291 -0.21919 0.00693
v -0.05479 -0.22696 0.00693
v -0.05573 -0.23085 0.00000
v -0.05479 -0.22696 -0.00693
v -0.05291 -0.21919 -0.00693
v -0.03955 -0.21792 0.00000
v -0.04026 -0.22186 0.00693
v -0.04169 -0.22973 0.00693
v -0.04240 -0.23367 0.00000
v -0.04169 -0.22973 -0.00693
v -0.04026 -0.22186 -0.00693
v -0.02676 -0.21986 0.00000
v -0.02737 -0.22382 0.00693
v -0.02857 -0.23173 0.00693
v -0.02917 -0.23568 0.00000
v -0.02857 -0.23173 -0.00693
v -0.02737 -0.22382 -0.00693
v -0.18327 -0.13811 0.00000
v -0.02797 -0.22777 0.00000
v 0.02676 -0.21986 0.00000
v 0.02737 -0.22382 0.00693
v 0.02857 -0.23173 0.00693
v 0.02917 -0.23568 0.00000
v 0.02857 -0.23173 -0.00693
v 0.02737 -0.22382 -0.00693
v 0.03955 -0.21792 0.00000
v 0.04026 -0.22186 0.00693
v 0.04169 -0.22973 0.00693
v 0.04240 -0.23367 0.00000
v 0.04169 -0.22973 -0.00693
v 0.04026 -0.22186 -0.00693
v 0.05197 -0.21530 0.00000
v 0.05291 -0.21919 0.00693
v 0.05479 -0.22696 0.00693
v 0.05573 -0.23085 0.00000
v 0.05479 -0.22696 -0.00693
v 0.05291 -0.21919 -0.00693
v 0.06423 -0.21196 0.00000
v 0.06539 -0.21579 0.00693
v 0.06771 -0.22345 0.00693
v 0.06887 -0.22728 0.00000
v 0.06771 -0.22345 -0.00693
v 0.06539 -0.21579 -0.00693
v 0.07627 -0.20794 0.00000
v 0.07765 -0.21169 0.00693
v 0.08040 -0.21920 0.00693
v 0.08178 -0.22296 0.00000
v 0.08040 -0.21920 -0.00693
v 0.07765 -0.21169 -0.00693
v 0.08806 -0.20322 0.00000
v 0.08965 -0.20689 0.00693
v 0.09283 -0.21423 0.00693
v 0.09442 -0.21790 0.00000
v 0.09283 -0.21423 -0.00693
v 0.08965 -0.20689 -0.00693
v 0.09957 -0.19784 0.00000
v 0.10136 -0.20141 0.00693
v 0.10496 -0.20856 0.00693
v 0.10676 -0.21213 0.00000
v 0.10496 -0.20856 -0.00693
v 0.10136 -0.20141 -0.00693
v 0.11074 -0.19181 0.00000
v 0.11274 -0.19527 0.00693
v 0.11674 -0.20220 0.00693
v 0.11874 -0.20567 0.00000
v 0.11674 -0.20220 -0.00693
v 0.11274 -0.19527 -0.00693
v 0.12155 -0.18515 0.00000
v 0.12375 -0.18849 0.00693
v 0.12814 -0.19518 0.00693
v 0.13033 -0.19852 0.00000
v 0.12814 -0.19518 -0.00693
v 0.12375 -0.18849 -0.00693
v 0.13196 -0.17788 0.00000
v 0.13435 -0.18109 0.00693
v 0.13911 -0.18751 0.00693
v 0.14150 -0.19073 0.00000
v 0.13911 -0.18751 -0.00693
v 0.13435 -0.18109 -0.00693
v 0.14194 -0.17002 0.00000
v 0.14451 -0.17309 0.00693
v 0.14963 -0.17923 0.00693
v 0.15220 -0.18230 0.00000
v 0.14963 -0.17923 -0.00693
v 0.14451 -0.17309 -0.00693
v 0.15145 -0.16160 0.00000
v 0.15419 -0.16452 0.00693
v 0.15966 -0.17036 0.00693
v 0.16239 -0.17328 0.00000
v 0.15966 -0.17036 -0.00693
v 0.15419 -0.16452 -0.00693
v 0.16047 -0.15266 0.00000
v 0.16336 -0.15542 0.00693
v 0.16916 -0.16093 0.00693
v 0.17206 -0.16369 0.00000
v 0.16916 -0.16093 -0.00693
v 0.16336 -0.15542 -0.00693
v 0.16895 -0.14321 0.00000
v 0.17200 -0.14580 0.00693
v 0.17811 -0.15097 0.00693
v 0.18116 -0.15356 0.00000
v 0.17811 -0.15097 -0.00693
v 0.17200 -0.14580 -0.00693
v 0.17702 -0.13311 0.00000
v 0.18015 -0.13561 0.00693
v 0.18640 -0.14060 0.00693
v 0.18952 -0.14310 0.00000
v 0.18640 -0.14060 -0.00693
v 0.18015 -0.13561 -0.00693
v 0.02797 -0.22777 0.00000
v 0.18327 -0.13811 0.00000
v 0.20379 -0.08675 0.00000
v 0.20751 -0.08821 0.00693
v 0.21496 -0.09112 0.00693
v 0.21869 -0.09258 0.00000
v 0.21496 -0.09112 -0.00693
v 0.20751 -0.08821 -0.00693
v 0.20850 -0.07471 0.00000
v 0.21227 -0.07606 0.00693
v 0.21980 -0.07876 0.00693
v 0.22356 -0.08011 0.00000
v 0.21980 -0.07876 -0.00693
v 0.21227 -0.07606 -0.00693
v 0.21244 -0.06264 0.00000
v 0.21628 -0.06377 0.00693
v 0.22395 -0.06603 0.00693
v 0.22779 -0.06716 0.00000
v 0.22395 -0.06603 -0.00693
v 0.21628 -0.06377 -0.00693
v 0.21568 -0.05036 0.00000
v 0.21958 -0.05127 0.00693
v 0.22737 -0.05309 0.00693
v 0.23126 -0.05400 0.00000
v 0.22737 -0.05309 -0.00693
v 0.21958 -0.05127 -0.00693
v 0.21821 -0.03792 0.00000
v 0.22215 -0.03860 0.00693
v 0.23003 -0.03997 0.00693
v 0.23398 -0.04066 0.00000
v 0.23003 -0.03997 -0.00693
v 0.22215 -0.03860 -0.00693
v 0.22003 -0.02535 0.00000
v 0.22400 -0.02580 0.00693
v 0.23195 -0.02672 0.00693
v 0.23592 -0.02718 0.00000
v 0.23195 -0.02672 -0.00693
v 0.22400 -0.02580 -0.00693
v 0.22112 -0.01269 0.00000
v 0.22511 -0.01292 0.00693
v 0.23310 -0.01338 0.00693
v 0.23709 -0.01361 0.00000
v 0.23310 -0.01338 -0.00693
v 0.22511 -0.01292 -0.00693
v 0.22148 0.00000 0.00000
v 0.22548 0.00000 0.00693
v 0.23348 -0.00000 0.00693
v 0.23748 -0.00000 0.00000
v 0.23348 -0.00000 -0.00693
v 0.22548 0.00000 -0.00693
v 0.22112 0.01269 0.00000
v 0.22511 0.01292 0.00693
v 0.23310 0.01338 0.00693
v 0.23709 0.01361 0.00000
v 0.23310 0.01338 -0.00693
v 0.22511 0.01292 -0.00693
v 0.22003 0.02535 0.00000
v 0.22400 0.02580 0.00693
v 0.23195 0.02672 0.00693
v 0.23592 0.02718 0.00000
v 0.23195 0.02672 -0.00693
v 0.22400 0.02580 -0.00693
v 0.21821 0.03792 0.00000
v 0.22215 0.03860 0.00693
v 0.23003 0.03997 0.00693
v 0.23398 0.04066 0.00000
v 0.23003 0.03997 -0.00693
v 0.22215 0.03860 -0.00693
v 0.21568 0.05036 0.00000
v 0.21958 0.05127 0.00693
v 0.22737 0.05309 0.00693
v 0.23126 0.05400 0.00000
v 0.22737 0.05309 -0.00693
v 0.21958 0.05127 -0.00693
v 0.21244 0.06264 0.00000
v 0.21628 0.06377 0.00693
v 0.22395 0.06603 0.00693
v 0.22779 0.06716 0.00000
v 0.22395 0.06603 -0.00693
v 0.21628 0.06377 -0.00693
v 0.20850 0.07471 0.00000
v 0.21227 0.07606 0.00693
v 0.21980 0.07876 0.00693
v 0.22356 0.08011 0.00000
v 0.21980 0.07876 -0.00693
v 0.21227 0.07606 -0.00693
v 0.20379 0.08675 0.00000
v 0.20751 0.08821 0.00693
v 0.21496 0.09112 0.00693
v 0.21869 0.09258 0.00000
v 0.21496 0.09112 -0.00693
v 0.20751 0.08821 -0.00693
v 0.21124 -0.08967 0.00000
v 0.21124 0.08967 0.00000
v 0.18952 0.14310 0.00000
v 0.18640 0.14060 -0.00693
v 0.18015 0.13561 -0.00693
v 0.17702 0.13311 0.00000
v 0.18015 0.13561 0.00693
v 0.18640 0.14060 0.00693
v 0.18116 0.15356 0.00000
v 0.17811 0.15097 -0.00693
v 0.17200 0.14580 -0.00693
v 0.16895 0.14321 0.00000
v 0.17200 0.14580 0.00693
v 0.17811 0.15097 0.00693
v 0.17206 0.16369 0.00000
v 0.16916 0.16093 -0.00693
v 0.16336 0.15542 -0.00693
v 0.16047 0.15266 0.00000
v 0.16336 0.15542 0.00693
v 0.16916 0.16093 0.00693
v 0.16239 0.17328 0.00000
v 0.15966 0.17036 -0.00693
v 0.15419 0.16452 -0.00693
v 0.15145 0.16160 0.00000
v 0.15419 0.16452 0.00693
v 0.15966 0.17036 0.00693
v 0.15220 0.18230 0.00000
v 0.14963 0.17923 -0.00693
v 0.14451 0.17309 -0.00693
v 0.14194 0.17002 0.00000
v 0.14451 0.17309 0.00693
v 0.14963 0.17923 0.00693
v 0.14150 0.19073 0.00000
v 0.13911 0.18751 -0.00693
v 0.13435 0.18109 -0.00693
v 0.13196 0.17788 0.00000
v 0.13435 0.18109 0.00693
v 0.13911 0.18751 0.00693
v 0.13033 0.19852 0.00000
v 0.12814 0.19518 -0.00693
v 0.12375 0.18849 -0.00693
v 0.12155 0.18515 0.00000
v 0.12375 0.18849 0.00693
v 0.12814 0.19518 0.00693
v 0.11874 0.20567 0.00000
v 0.11674 0.20220 -0.00693
v 0.11274 0.19527 -0.00693
v 0.11074 0.19181 0.00000
v 0.11274 0.19527 0.00693
v 0.11674 0.20220 0.00693
v 0.10676 0.21213 0.00000
v 0.10496 0.20856 -0.00693
v 0.10136 0.20141 -0.00693
v 0.09957 0.19784 0.00000
v 0.10136 0.20141 0.00693
v 0.10496 0.20856 0.00693
v 0.09442 0.21790 0.00000
v 0.09283 0.21423 -0.00693
v 0.08965 0.20689 -0.00693
v 0.08806 0.20322 0.00000
v 0.08965 0.20689 0.00693
v 0.09283 0.21423 0.00693
v 0.08178 0.22296 0.00000
v 0.08040 0.21920 -0.00693
v 0.07765 0.21169 -0.00693
v 0.07627 0.20794 0.00000
v 0.07765 0.21169 0.00693
v 0.08040 0.21920 0.00693
v 0.06887 0.22728 0.00000
v 0.06771 0.22345 -0.00693
v 0.06539 0.21579 -0.00693
v 0.06423 0.21196 0.00000
v 0.06539 0.21579 0.00693
v 0.06771 0.22345 0.00693
v 0.05573 0.23085 0.00000
v 0.05479 0.22696 -0.00693
v 0.05291 0.21919 -0.00693
v 0.05197 0.21530 0.00000
v 0.05291 0.21919 0.00693
v 0.05479 0.22696 0.00693
v 0.04240 0.23367 0.00000
v 0.04169 0.22973 -0.00693
v 0.04026 0.22186 -0.00693
v 0.03955 0.21792 0.00000
v 0.04026 0.22186 0.00693
v 0.04169 0.22973 0.00693
v 0.02917 0.23568 0.00000
v 0.02857 0.23173 -0.00693
v 0.02737 0.22382 -0.00693
v 0.02676 0.21986 0.00000
v 0.02737 0.22382 0.00693
v 0.02857 0.23173 0.00693
v 0.18327 0.13811 0.00000
v 0.02797 0.22777 0.00000
v -0.00640 0.20948 0.00000
v -0.00000 0.20948 0.00640
v 0.00640 0.20948 0.00000
v 0.00000 0.20948 -0.00640
v -0.00640 0.26448 0.00000
v -0.00000 0.26448 0.00640
v 0.00640 0.26448 0.00000
v 0.00000 0.26448 -0.00640
v 0.00000 0.20948 0.00000
v 0.00000 0.26448 0.00000
v -0.09920 0.18462 0.00000
v -0.10474 0.18142 -0.00640
v -0.11028 0.17822 0.00000
v -0.10474 0.18142 0.00640
v -0.12670 0.23225 0.00000
v -0.13224 0.22905 -0.00640
v -0.13778 0.22585 0.00000
v -0.13224 0.22905 0.00640
v -0.10474 0.18142 0.00000
v -0.13224 0.22905 0.00000
v -0.17822 0.11028 0.00000
v -0.18142 0.10474 -0.00640
v -0.18462 0.09920 0.00000
v -0.18142 0.10474 0.00640
v -0.22585 0.13778 0.00000
v -0.22905 0.13224 -0.00640
v -0.23225 0.12670 0.00000
v -0.22905 0.13224 0.00640
v -0.18142 0.10474 0.00000
v -0.22905 0.13224 0.00000
v -0.20948 0.00640 0.00000
v -0.20948 0.00000 -0.00640
v -0.20948 -0.00640 0.00000
v -0.20948 0.00000 0.00640
v -0.26448 0.00640 0.00000
v -0.26448 0.00000 -0.00640
v -0.26448 -0.00640 0.00000
v -0.26448 0.00000 0.00640
v -0.20948 0.00000 0.00000
v -0.26448 0.00000 0.00000
v -0.18462 -0.09920 0.00000
v -0.18142 -0.10474 -0.00640
v -0.17822 -0.11028 0.00000
v -0.18142 -0.10474 0.00640
v -0.23225 -0.12670 0.00000
v -0.22905 -0.13224 -0.00640
v -0.22585 -0.13778 0.00000
v -0.22905 -0.13224 0.00640
v -0.18142 -0.10474 0.00000
v -0.22905 -0.13224 0.00000
v -0.11028 -0.17822 0.00000
v -0.10474 -0.18142 -0.00640
v -0.09920 -0.18462 0.00000
v -0.10474 -0.18142 0.00640
v -0.13778 -0.22585 0.00000
v -0.13224 -0.22905 -0.00640
v -0.12670 -0.23225 0.00000
v -0.13224 -0.22905 0.00640
v -0.10474 -0.18142 0.00000
v -0.13224 -0.22905 0.00000
v -0.00640 -0.20948 0.00000
v -0.00000 -0.20948 -0.00640
v 0.00640 -0.20948 0.00000
v -0.00000 -0.20948 0.00640
v -0.00640 -0.26448 0.00000
v -0.00000 -0.26448 -0.00640
v 0.00640 -0.26448 0.00000
v -0.00000 -0.26448 0.00640
v -0.00000 -0.20948 0.00000
v -0.00000 -0.26448 0.00000
v 0.11028 -0.17822 0.00000
v 0.10474 -0.18142 0.00640
v 0.09920 -0.18462 0.00000
v 0.10474 -0.18142 -0.00640
v 0.13778 -0.22585 0.00000
v 0.13224 -0.22905 0.00640
v 0.12670 -0.23225 0.00000
v 0.13224 -0.22905 -0.00640
v 0.10474 -0.18142 0.00000
v 0.13224 -0.22905 0.00000
v 0.18462 -0.09920 0.00000
v 0.18142 -0.10474 0.00640
v 0.17822 -0.11028 0.00000
v 0.18142 -0.10474 -0.00640
v 0.23225 -0.12670 0.00000
v 0.22905 -0.13224 0.00640
v 0.22585 -0.13778 0.00000
v 0.22905 -0.13224 -0.00640
v 0.18142 -0.10474 0.00000
v 0.22905 -0.13224 0.00000
v 0.20948 0.00640 0.00000
v 0.20948 -0.00000 0.00640
v 0.20948 -0.00640 0.00000
v 0.20948 -0.00000 -0.00640
v 0.26448 0.00640 0.00000
v 0.26448 -0.00000 0.00640
v 0.26448 -0.00640 0.00000
v 0.26448 -0.00000 -0.00640
v 0.20948 -0.00000 0.00000
v 0.26448 -0.00000 0.00000
v 0.17822 0.11028 0.00000
v 0.18142 0.10474 0.00640
v 0.18462 0.09920 0.00000
v 0.18142 0.10474 -0.00640
v 0.22585 0.13778 0.00000
v 0.22905 0.13224 0.00640
v 0.23225 0.12670 0.00000
v 0.22905 0.13224 -0.00640
v 0.18142 0.10474 0.00000
v 0.22905 0.13224 0.00000
v 0.09920 0.18462 0.00000
v 0.10474 0.18142 0.00640
v 0.11028 0.17822 0.00000
v 0.10474 0.18142 -0.00640
v 0.12670 0.23225 0.00000
v 0.13224 0.22905 0.00640
v 0.13778 0.22585 0.00000
v 0.13224 0.22905 -0.00640
v 0.10474 0.18142 0.00000
v 0.13224 0.22905 0.00000
f 1 8 7
f 2 9 8
f 3 10 9
f 5 10 4
f 6 11 5
f 1 12 6
f 8 13 7
f 8 15 14
f 10 15 9
f 10 17 16
f 12 17 11
f 12 13 18
f 13 20 19
f 15 20 14
f 16 21 15
f 17 22 16
f 17 24 23
f 13 24 18
f 19 26 25
f 20 27 26
f 21 28 27
f 23 28 22
f 24 29 23
f 19 30 24
f 26 31 25
f 27 32 26
f 28 33 27
f 29 34 28
f 29 36 35
f 30 31 36
f 31 38 37
f 33 38 32
f 34 39 33
f 34 41 40
f 35 42 41
f 31 42 36
f 37 44 43
f 39 44 38
f 40 45 39
f 41 46 40
f 41 48 47
f 42 43 48
f 44 49 43
f 45 50 44
f 45 52 51
f 47 52 46
f 47 54 53
f 48 49 54
f 50 55 49
f 50 57 56
f 52 57 51
f 52 59 58
f 54 59 53
f 54 55 60
f 56 61 55
f 56 63 62
f 57 64 63
f 59 64 58
f 60 65 59
f 55 66 60
f 62 67 61
f 62 69 68
f 64 69 63
f 65 70 64
f 66 71 65
f 61 72 66
f 68 73 67
f 68 75 74
f 69 76 75
f 71 76 70
f 72 77 71
f 72 73 78
f 74 79 73
f 74 81 80
f 76 81 75
f 76 83 82
f 78 83 77
f 78 79 84
f 80 85 79
f 81 86 80
f 82 87 81
f 82 89 88
f 83 90 89
f 84 85 90
f 91 2 1
f 91 3 2
f 91 4 3
f 91 5 4
f 91 6 5
f 91 1 6
f 85 86 92
f 86 87 92
f 87 88 92
f 88 89 92
f 89 90 92
f 90 85 92
f 93 100 99
f 94 101 100
f 95 102 101
f 97 102 96
f 98 103 97
f 93 104 98
f 100 105 99
f 101 106 100
f 101 108 107
f 103 108 102
f 103 110 109
f 104 105 110
f 105 112 111
f 107 112 106
f 107 114 113
f 108 115 114
f 110 115 109
f 110 111 116
f 111 118 117
f 113 118 112
f 114 119 113
f 114 121 120
f 115 122 121
f 116 117 122
f 118 123 117
f 119 124 118
f 120 125 119
f 120 127 126
f 122 127 121
f 122 123 128
f 124 129 123
f 124 131 130
f 125 132 131
f 127 132 126
f 128 133 127
f 128 129 134
f 130 135 129
f 131 136 130
f 132 137 131
f 133 138 132
f 133 140 139
f 134 135 140
f 136 141 135
f 136 143 142
f 137 144 143
f 138 145 144
f 140 145 139
f 135 146 140
f 142 147 141
f 143 148 142
f 144 149 143
f 144 151 150
f 145 152 151
f 141 152 146
f 147 154 153
f 148 155 154
f 149 156 155
f 151 156 150
f 152 157 151
f 152 153 158
f 154 159 153
f 155 160 154
f 156 161 155
f 157 162 156
f 158 163 157
f 153 164 158
f 160 165 159
f 161 166 160
f 162 167 161
f 163 168 162
f 164 169 163
f 159 170 164
f 166 171 165
f 166 173 172
f 168 173 167
f 168 175 174
f 170 175 169
f 170 171 176
f 172 177 171
f 173 178 172
f 174 179 173
f 174 181 180
f 175 182 181
f 176 177 182
f 183 94 93
f 183 95 94
f 183 96 95
f 183 97 96
f 183 98 97
f 183 93 98
f 177 178 184
f 178 179 184
f 179 180 184
f 180 181 184
f 181 182 184
f 182 177 184
f 186 191 185
f 187 192 186
f 188 193 187
f 188 195 194
f 189 196 195
f 190 191 196
f 192 197 191
f 192 199 198
f 194 199 193
f 194 201 200
f 196 201 195
f 196 197 202
f 197 204 203
f 198 205 204
f 200 205 199
f 200 207 206
f 202 207 201
f 197 208 202
f 204 209 203
f 204 211 210
f 205 212 211
f 206 213 212
f 208 213 207
f 208 209 214
f 209 216 215
f 210 217 216
f 211 218 217
f 213 218 212
f 214 219 213
f 209 220 214
f 215 222 221
f 216 223 222
f 218 223 217
f 218 225 224
f 220 225 219
f 220 221 226
f 221 228 227
f 223 228 222
f 224 229 223
f 224 231 230
f 225 232 231
f 221 232 226
f 228 233 227
f 228 235 234
f 230 235 229
f 230 237 236
f 232 237 231
f 232 233 238
f 234 239 233
f 234 241 240
f 235 242 241
f 236 243 242
f 238 243 237
f 233 244 238
f 239 246 245
f 241 246 240
f 242 247 241
f 243 248 242
f 243 250 249
f 244 245 250
f 245 252 251
f 246 253 252
f 247 254 253
f 249 254 248
f 250 255 249
f 245 256 250
f 252 257 251
f 253 258 252
f 253 260 259
f 255 260 254
f 255 262 261
f 256 257 262
f 258 263 257
f 258 265 264
f 260 265 259
f 260 267 266
f 262 267 261
f 262 263 268
f 263 270 269
f 264 271 270
f 265 272 271
f 267 272 266
f 268 273 267
f 263 274 268
f 275 186 185
f 275 187 186
f 275 188 187
f 275 189 188
f 275 190 189
f 275 185 190
f 269 270 276
f 270 271 276
f 271 272 276
f 272 273 276
f 273 274 276
f 274 269 276
f 278 283 277
f 279 284 278
f 280 285 279
f 280 287 286
f 281 288 287
f 282 283 288
f 283 290 289
f 285 290 284
f 285 292 291
f 287 292 286
f 287 294 293
f 283 294 288
f 290 295 289
f 290 297 296
f 292 297 291
f 292 299 298
f 294 299 293
f 289 300 294
f 296 301 295
f 297 302 296
f 298 303 297
f 298 305 304
f 299 306 305
f 300 301 306
f 302 307 301
f 302 309 308
f 303 310 309
f 305 310 304
f 306 311 305
f 301 312 306
f 307 314 313
f 308 315 314
f 310 315 309
f 310 317 316
f 312 317 311
f 307 318 312
f 314 319 313
f 314 321 320
f 315 322 321
f 316 323 322
f 318 323 317
f 313 324 318
f 320 325 319
f 320 327 326
f 321 328 327
f 323 328 322
f 324 329 323
f 324 325 330
f 325 332 331
f 327 332 326
f 327 334 333
f 329 334 328
f 329 336 335
f 325 336 330
f 332 337 331
f 333 338 332
f 334 339 333
f 335 340 334
f 335 342 341
f 336 337 342
f 338 343 337
f 339 344 338
f 340 345 339
f 341 346 340
f 341 348 347
f 337 348 342
f 344 349 343
f 345 350 344
f 345 352 351
f 347 352 346
f 347 354 353
f 348 349 354
f 349 356 355
f 351 356 350
f 351 358 357
f 353 358 352
f 353 360 359
f 349 360 354
f 355 362 361
f 356 363 362
f 357 364 363
f 359 364 358
f 360 365 359
f 355 366 360
f 367 278 277
f 367 279 278
f 367 280 279
f 367 281 280
f 367 282 281
f 367 277 282
f 361 362 368
f 362 363 368
f 363 364 368
f 364 365 368
f 365 366 368
f 366 361 368
f 370 375 369
f 371 376 370
f 372 377 371
f 372 379 378
f 373 380 379
f 374 375 380
f 376 381 375
f 376 383 382
f 377 384 383
f 379 384 378
f 380 385 379
f 380 381 386
f 381 388 387
f 383 388 382
f 383 390 389
f 384 391 390
f 386 391 385
f 386 387 392
f 387 394 393
f 388 395 394
f 389 396 395
f 390 397 396
f 392 397 391
f 387 398 392
f 393 400 399
f 395 400 394
f 395 402 401
f 397 402 396
f 398 403 397
f 393 404 398
f 400 405 399
f 401 406 400
f 401 408 407
f 403 408 402
f 403 410 409
f 404 405 410
f 406 411 405
f 406 413 412
f 407 414 413
f 409 414 408
f 410 415 409
f 405 416 410
f 411 418 417
f 413 418 412
f 414 419 413
f 415 420 414
f 415 422 421
f 416 417 422
f 417 424 423
f 418 425 424
f 420 425 419
f 421 426 420
f 422 427 421
f 417 428 422
f 424 429 423
f 425 430 424
f 425 432 431
f 426 433 432
f 427 434 433
f 428 429 434
f 430 435 429
f 431 436 430
f 432 437 431
f 433 438 432
f 434 439 433
f 429 440 434
f 436 441 435
f 437 442 436
f 438 443 437
f 439 444 438
f 440 445 439
f 435 446 440
f 441 448 447
f 443 448 442
f 443 450 449
f 445 450 444
f 445 452 451
f 441 452 446
f 447 454 453
f 448 455 454
f 449 456 455
f 451 456 450
f 452 457 451
f 447 458 452
f 459 370 369
f 459 371 370
f 459 372 371
f 459 373 372
f 459 374 373
f 459 369 374
f 453 454 460
f 454 455 460
f 455 456 460
f 456 457 460
f 457 458 460
f 458 453 460
f 461 468 467
f 462 469 468
f 463 470 469
f 465 470 464
f 466 471 465
f 461 472 466
f 467 474 473
f 469 474 468
f 469 476 475
f 471 476 470
f 471 478 477
f 467 478 472
f 473 480 479
f 475 480 474
f 476 481 475
f 476 483 482
f 477 484 483
f 473 484 478
f 479 486 485
f 481 486 480
f 481 488 487
f 483 488 482
f 483 490 489
f 484 485 490
f 486 491 485
f 487 492 486
f 488 493 487
f 488 495 494
f 489 496 495
f 490 491 496
f 491 498 497
f 493 498 492
f 493 500 499
f 494 501 500
f 495 502 501
f 491 502 496
f 497 504 503
f 498 505 504
f 500 505 499
f 500 507 506
f 502 507 501
f 497 508 502
f 503 510 509
f 505 510 504
f 505 512 511
f 507 512 506
f 507 514 513
f 503 514 508
f 509 516 515
f 511 516 510
f 512 517 511
f 513 518 512
f 513 520 519
f 514 515 520
f 516 521 515
f 516 523 522
f 517 524 523
f 518 525 524
f 520 525 519
f 515 526 520
f 522 527 521
f 523 528 522
f 524 529 523
f 524 531 530
f 525 532 531
f 526 527 532
f 528 533 527
f 528 535 534
f 529 536 535
f 531 536 530
f 532 537 531
f 532 533 538
f 533 540 539
f 535 540 534
f 535 542 541
f 537 542 536
f 537 544 543
f 533 544 538
f 540 545 539
f 541 546 540
f 542 547 541
f 542 549 548
f 543 550 549
f 544 545 550
f 551 462 461
f 551 463 462
f 551 464 463
f 551 465 464
f 551 466 465
f 551 461 466
f 545 546 552
f 546 547 552
f 547 548 552
f 548 549 552
f 549 550 552
f 550 545 552
f 554 557 553
f 555 558 554
f 556 559 555
f 553 560 556
f 561 554 553
f 561 555 554
f 561 556 555
f 561 553 556
f 557 558 562
f 558 559 562
f 559 560 562
f 560 557 562
f 563 568 567
f 564 569 568
f 566 569 565
f 566 567 570
f 571 564 563
f 571 565 564
f 571 566 565
f 571 563 566
f 567 568 572
f 568 569 572
f 569 570 572
f 570 567 572
f 573 578 577
f 575 578 574
f 575 580 579
f 573 580 576
f 581 574 573
f 581 575 574
f 581 576 575
f 581 573 576
f 577 578 582
f 578 579 582
f 579 580 582
f 580 577 582
f 584 587 583
f 585 588 584
f 586 589 585
f 583 590 586
f 591 584 583
f 591 585 584
f 591 586 585
f 591 583 586
f 587 588 592
f 588 589 592
f 589 590 592
f 590 587 592
f 593 598 597
f 595 598 594
f 596 599 595
f 593 600 596
f 601 594 593
f 601 595 594
f 601 596 595
f 601 593 596
f 597 598 602
f 598 599 602
f 599 600 602
f 600 597 602
f 604 607 603
f 605 608 604
f 606 609 605
f 606 607 610
f 611 604 603
f 611 605 604
f 611 606 605
f 611 603 606
f 607 608 612
f 608 609 612
f 609 610 612
f 610 607 612
f 614 617 613
f 615 618 614
f 616 619 615
f 613 620 616
f 621 614 613
f 621 615 614
f 621 616 615
f 621 613 616
f 617 618 622
f 618 619 622
f 619 620 622
f 620 617 622
f 624 627 623
f 624 629 628
f 625 630 629
f 626 627 630
f 631 624 623
f 631 625 624
f 631 626 625
f 631 623 626
f 627 628 632
f 628 629 632
f 629 630 632
f 630 627 632
f 633 638 637
f 635 638 634
f 635 640 639
f 633 640 636
f 641 634 633
f 641 635 634
f 641 636 635
f 641 633 636
f 637 638 642
f 638 639 642
f 639 640 642
f 640 637 642
f 644 647 643
f 645 648 644
f 646 649 645
f 643 650 646
f 651 644 643
f 651 645 644
f 651 646 645
f 651 643 646
f 647 648 652
f 648 649 652
f 649 650 652
f 650 647 652
f 654 657 653
f 655 658 654
f 655 660 659
f 653 660 656
f 661 654 653
f 661 655 654
f 661 656 655
f 661 653 656
f 657 658 662
f 658 659 662
f 659 660 662
f 660 657 662
f 664 667 663
f 664 669 668
f 666 669 665
f 663 670 666
f 671 664 663
f 671 665 664
f 671 666 665
f 671 663 666
f 667 668 672
f 668 669 672
f 669 670 672
f 670 667 672
f 1 2 8
f 2 3 9
f 3 4 10
f 5 11 10
f 6 12 11
f 1 7 12
f 8 14 13
f 8 9 15
f 10 16 15
f 10 11 17
f 12 18 17
f 12 7 13
f 13 14 20
f 15 21 20
f 16 22 21
f 17 23 22
f 17 18 24
f 13 19 24
f 19 20 26
f 20 21 27
f 21 22 28
f 23 29 28
f 24 30 29
f 19 25 30
f 26 32 31
f 27 33 32
f 28 34 33
f 29 35 34
f 29 30 36
f 30 25 31
f 31 32 38
f 33 39 38
f 34 40 39
f 34 35 41
f 35 36 42
f 31 37 42
f 37 38 44
f 39 45 44
f 40 46 45
f 41 47 46
f 41 42 48
f 42 37 43
f 44 50 49
f 45 51 50
f 45 46 52
f 47 53 52
f 47 48 54
f 48 43 49
f 50 56 55
f 50 51 57
f 52 58 57
f 52 53 59
f 54 60 59
f 54 49 55
f 56 62 61
f 56 57 63
f 57 58 64
f 59 65 64
f 60 66 65
f 55 61 66
f 62 68 67
f 62 63 69
f 64 70 69
f 65 71 70
f 66 72 71
f 61 67 72
f 68 74 73
f 68 69 75
f 69 70 76
f 71 77 76
f 72 78 77
f 72 67 73
f 74 80 79
f 74 75 81
f 76 82 81
f 76 77 83
f 78 84 83
f 78 73 79
f 80 86 85
f 81 87 86
f 82 88 87
f 82 83 89
f 83 84 90
f 84 79 85
f 93 94 100
f 94 95 101
f 95 96 102
f 97 103 102
f 98 104 103
f 93 99 104
f 100 106 105
f 101 107 106
f 101 102 108
f 103 109 108
f 103 104 110
f 104 99 105
f 105 106 112
f 107 113 112
f 107 108 114
f 108 109 115
f 110 116 115
f 110 105 111
f 111 112 118
f 113 119 118
f 114 120 119
f 114 115 121
f 115 116 122
f 116 111 117
f 118 124 123
f 119 125 124
f 120 126 125
f 120 121 127
f 122 128 127
f 122 117 123
f 124 130 129
f 124 125 131
f 125 126 132
f 127 133 132
f 128 134 133
f 128 123 129
f 130 136 135
f 131 137 136
f 132 138 137
f 133 139 138
f 133 134 140
f 134 129 135
f 136 142 141
f 136 137 143
f 137 138 144
f 138 139 145
f 140 146 145
f 135 141 146
f 142 148 147
f 143 149 148
f 144 150 149
f 144 145 151
f 145 146 152
f 141 147 152
f 147 148 154
f 148 149 155
f 149 150 156
f 151 157 156
f 152 158 157
f 152 147 153
f 154 160 159
f 155 161 160
f 156 162 161
f 157 163 162
f 158 164 163
f 153 159 164
f 160 166 165
f 161 167 166
f 162 168 167
f 163 169 168
f 164 170 169
f 159 165 170
f 166 172 171
f 166 167 173
f 168 174 173
f 168 169 175
f 170 176 175
f 170 165 171
f 172 178 177
f 173 179 178
f 174 180 179
f 174 175 181
f 175 176 182
f 176 171 177
f 186 192 191
f 187 193 192
f 188 194 193
f 188 189 195
f 189 190 196
f 190 185 191
f 192 198 197
f 192 193 199
f 194 200 199
f 194 195 201
f 196 202 201
f 196 191 197
f 197 198 204
f 198 199 205
f 200 206 205
f 200 201 207
f 202 208 207
f 197 203 208
f 204 210 209
f 204 205 211
f 205 206 212
f 206 207 213
f 208 214 213
f 208 203 209
f 209 210 216
f 210 211 217
f 211 212 218
f 213 219 218
f 214 220 219
f 209 215 220
f 215 216 222
f 216 217 223
f 218 224 223
f 218 219 225
f 220 226 225
f 220 215 221
f 221 222 228
f 223 229 228
f 224 230 229
f 224 225 231
f 225 226 232
f 221 227 232
f 228 234 233
f 228 229 235
f 230 236 235
f 230 231 237
f 232 238 237
f 232 227 233
f 234 240 239
f 234 235 241
f 235 236 242
f 236 237 243
f 238 244 243
f 233 239 244
f 239 240 246
f 241 247 246
f 242 248 247
f 243 249 248
f 243 244 250
f 244 239 245
f 245 246 252
f 246 247 253
f 247 248 254
f 249 255 254
f 250 256 255
f 245 251 256
f 252 258 257
f 253 259 258
f 253 254 260
f 255 261 260
f 255 256 262
f 256 251 257
f 258 264 263
f 258 259 265
f 260 266 265
f 260 261 267
f 262 268 267
f 262 257 263
f 263 264 270
f 264 265 271
f 265 266 272
f 267 273 272
f 268 274 273
f 263 269 274
f 278 284 283
f 279 285 284
f 280 286 285
f 280 281 287
f 281 282 288
f 282 277 283
f 283 284 290
f 285 291 290
f 285 286 292
f 287 293 292
f 287 288 294
f 283 289 294
f 290 296 295
f 290 291 297
f 292 298 297
f 292 293 299
f 294 300 299
f 289 295 300
f 296 302 301
f 297 303 302
f 298 304 303
f 298 299 305
f 299 300 306
f 300 295 301
f 302 308 307
f 302 303 309
f 303 304 310
f 305 311 310
f 306 312 311
f 301 307 312
f 307 308 314
f 308 309 315
f 310 316 315
f 310 311 317
f 312 318 317
f 307 313 318
f 314 320 319
f 314 315 321
f 315 316 322
f 316 317 323
f 318 324 323
f 313 319 324
f 320 326 325
f 320 321 327
f 321 322 328
f 323 329 328
f 324 330 329
f 324 319 325
f 325 326 332
f 327 333 332
f 327 328 334
f 329 335 334
f 329 330 336
f 325 331 336
f 332 338 337
f 333 339 338
f 334 340 339
f 335 341 340
f 335 336 342
f 336 331 337
f 338 344 343
f 339 345 344
f 340 346 345
f 341 347 346
f 341 342 348
f 337 343 348
f 344 350 349
f 345 351 350
f 345 346 352
f 347 353 352
f 347 348 354
f 348 343 349
f 349 350 356
f 351 357 356
f 351 352 358
f 353 359 358
f 353 354 360
f 349 355 360
f 355 356 362
f 356 357 363
f 357 358 364
f 359 365 364
f 360 366 365
f 355 361 366
f 370 376 375
f 371 377 376
f 372 378 377
f 372 373 379
f 373 374 380
f 374 369 375
f 376 382 381
f 376 377 383
f 377 378 384
f 379 385 384
f 380 386 385
f 380 375 381
f 381 382 388
f 383 389 388
f 383 384 390
f 384 385 391
f 386 392 391
f 386 381 387
f 387 388 394
f 388 389 395
f 389 390 396
f 390 391 397
f 392 398 397
f 387 393 398
f 393 394 400
f 395 401 400
f 395 396 402
f 397 403 402
f 398 404 403
f 393 399 404
f 400 406 405
f 401 407 406
f 401 402 408
f 403 409 408
f 403 404 410
f 404 399 405
f 406 412 411
f 406 407 413
f 407 408 414
f 409 415 414
f 410 416 415
f 405 411 416
f 411 412 418
f 413 419 418
f 414 420 419
f 415 421 420
f 415 416 422
f 416 411 417
f 417 418 424
f 418 419 425
f 420 426 425
f 421 427 426
f 422 428 427
f 417 423 428
f 424 430 429
f 425 431 430
f 425 426 432
f 426 427 433
f 427 428 434
f 428 423 429
f 430 436 435
f 431 437 436
f 432 438 437
f 433 439 438
f 434 440 439
f 429 435 440
f 436 442 441
f 437 443 442
f 438 444 443
f 439 445 444
f 440 446 445
f 435 441 446
f 441 442 448
f 443 449 448
f 443 444 450
f 445 451 450
f 445 446 452
f 441 447 452
f 447 448 454
f 448 449 455
f 449 450 456
f 451 457 456
f 452 458 457
f 447 453 458
f 461 462 468
f 462 463 469
f 463 464 470
f 465 471 470
f 466 472 471
f 461 467 472
f 467 468 474
f 469 475 474
f 469 470 476
f 471 477 476
f 471 472 478
f 467 473 478
f 473 474 480
f 475 481 480
f 476 482 481
f 476 477 483
f 477 478 484
f 473 479 484
f 479 480 486
f 481 487 486
f 481 482 488
f 483 489 488
f 483 484 490
f 484 479 485
f 486 492 491
f 487 493 492
f 488 494 493
f 488 489 495
f 489 490 496
f 490 485 491
f 491 492 498
f 493 499 498
f 493 494 500
f 494 495 501
f 495 496 502
f 491 497 502
f 497 498 504
f 498 499 505
f 500 506 505
f 500 501 507
f 502 508 507
f 497 503 508
f 503 504 510
f 505 511 510
f 505 506 512
f 507 513 512
f 507 508 514
f 503 509 514
f 509 510 516
f 511 517 516
f 512 518 517
f 513 519 518
f 513 514 520
f 514 509 515
f 516 522 521
f 516 517 523
f 517 518 524
f 518 519 525
f 520 526 525
f 515 521 526
f 522 528 527
f 523 529 528
f 524 530 529
f 524 525 531
f 525 526 532
f 526 521 527
f 528 534 533
f 528 529 535
f 529 530 536
f 531 537 536
f 532 538 537
f 532 527 533
f 533 534 540
f 535 541 540
f 535 536 542
f 537 543 542
f 537 538 544
f 533 539 544
f 540 546 545
f 541 547 546
f 542 548 547
f 542 543 549
f 543 544 550
f 544 539 545
f 554 558 557
f 555 559 558
f 556 560 559
f 553 557 560
f 563 564 568
f 564 565 569
f 566 570 569
f 566 563 567
f 573 574 578
f 575 579 578
f 575 576 580
f 573 577 580
f 584 588 587
f 585 589 588
f 586 590 589
f 583 587 590
f 593 594 598
f 595 599 598
f 596 600 599
f 593 597 600
f 604 608 607
f 605 609 608
f 606 610 609
f 606 603 607
f 614 618 617
f 615 619 618
f 616 620 619
f 613 617 620
f 624 628 627
f 624 625 629
f 625 626 630
f 626 623 627
f 633 634 638
f 635 639 638
f 635 636 640
f 633 637 640
f 644 648 647
f 645 649 648
f 646 650 649
f 643 647 650
f 654 658 657
f 655 659 658
f 655 656 660
f 653 657 660
f 664 668 667
f 664 665 669
f 666 670 669
f 663 667 670
