# apex Jet1_JetCore.obj: Roblox cue frame, recentred on its bounding box
v 0.04801 0.01091 -0.10030
v 0.03143 0.00524 -0.10775
v 0.01963 -0.00958 -0.10957
v 0.01710 -0.02790 -0.10506
v 0.02482 -0.04272 -0.09594
v 0.03983 -0.04838 -0.08570
v 0.05640 -0.04272 -0.07824
v 0.06821 -0.02790 -0.07642
v 0.07074 -0.00958 -0.08093
v 0.06302 0.00524 -0.09005
v 0.03695 0.01912 -0.08056
v 0.01943 0.01314 -0.08845
v 0.00695 -0.00253 -0.09037
v 0.00427 -0.02190 -0.08560
v 0.01243 -0.03757 -0.07596
v 0.02830 -0.04356 -0.06513
v 0.04583 -0.03757 -0.05725
v 0.05831 -0.02190 -0.05533
v 0.06098 -0.00253 -0.06009
v 0.05282 0.01314 -0.06974
v 0.02574 0.02623 -0.06056
v 0.00789 0.02013 -0.06859
v -0.00482 0.00417 -0.07055
v -0.00755 -0.01556 -0.06569
v 0.00076 -0.03153 -0.05587
v 0.01693 -0.03762 -0.04484
v 0.03478 -0.03153 -0.03681
v 0.04750 -0.01556 -0.03485
v 0.05022 0.00417 -0.03971
v 0.04191 0.02013 -0.04953
v 0.01435 0.03201 -0.04023
v -0.00309 0.02605 -0.04807
v -0.01551 0.01046 -0.04999
v -0.01817 -0.00882 -0.04524
v -0.01006 -0.02441 -0.03565
v 0.00574 -0.03037 -0.02487
v 0.02318 -0.02441 -0.01702
v 0.03560 -0.00882 -0.01511
v 0.03826 0.01046 -0.01986
v 0.03014 0.02605 -0.02945
v 0.00277 0.03644 -0.01957
v -0.01350 0.03088 -0.02689
v -0.02510 0.01633 -0.02867
v -0.02758 -0.00165 -0.02424
v -0.02000 -0.01621 -0.01529
v -0.00526 -0.02176 -0.00523
v 0.01101 -0.01621 0.00209
v 0.02260 -0.00165 0.00387
v 0.02508 0.01633 -0.00056
v 0.01751 0.03088 -0.00951
v -0.00898 0.03966 0.00140
v -0.02341 0.03473 -0.00509
v -0.03368 0.02183 -0.00668
v -0.03588 0.00588 -0.00275
v -0.02917 -0.00702 0.00519
v -0.01610 -0.01195 0.01410
v -0.00167 -0.00702 0.02059
v 0.00861 0.00588 0.02218
v 0.01081 0.02183 0.01825
v 0.00409 0.03473 0.01031
v -0.02085 0.04195 0.02259
v -0.03292 0.03783 0.01716
v -0.04151 0.02704 0.01584
v -0.04335 0.01371 0.01912
v -0.03773 0.00292 0.02576
v -0.02681 -0.00120 0.03321
v -0.01474 0.00292 0.03864
v -0.00615 0.01371 0.03996
v -0.00431 0.02704 0.03668
v -0.00993 0.03783 0.03004
v -0.03281 0.04368 0.04392
v -0.04219 0.04047 0.03970
v -0.04887 0.03208 0.03866
v -0.05030 0.02171 0.04122
v -0.04594 0.01332 0.04638
v -0.03744 0.01011 0.05218
v -0.02805 0.01332 0.05640
v -0.02137 0.02171 0.05743
v -0.01994 0.03208 0.05488
v -0.02431 0.04047 0.04972
v -0.04478 0.04524 0.06529
v -0.05139 0.04298 0.06231
v -0.05610 0.03707 0.06159
v -0.05711 0.02976 0.06339
v -0.05403 0.02385 0.06702
v -0.04804 0.02159 0.07111
v -0.04143 0.02385 0.07408
v -0.03673 0.02976 0.07481
v -0.03572 0.03707 0.07301
v -0.03879 0.04298 0.06937
v -0.05674 0.04693 0.08663
v -0.06065 0.04559 0.08487
v -0.06344 0.04210 0.08444
v -0.06403 0.03777 0.08550
v -0.06221 0.03427 0.08765
v -0.05867 0.03294 0.09007
v -0.05476 0.03427 0.09183
v -0.05197 0.03777 0.09226
v -0.05137 0.04210 0.09120
v -0.05319 0.04559 0.08904
v -0.06873 0.04838 0.10802
v -0.06981 0.04801 0.10754
v -0.07057 0.04705 0.10742
v -0.07074 0.04586 0.10771
v -0.07023 0.04490 0.10831
v -0.06926 0.04453 0.10897
v -0.06818 0.04490 0.10946
v -0.06742 0.04586 0.10957
v -0.06725 0.04705 0.10928
v -0.06775 0.04801 0.10869
v 0.04392 -0.01874 -0.09300
v -0.06899 0.04645 0.10850
f 1 12 11
f 2 13 12
f 3 14 13
f 4 15 14
f 6 15 5
f 7 16 6
f 7 18 17
f 8 19 18
f 9 20 19
f 1 20 10
f 11 22 21
f 12 23 22
f 14 23 13
f 14 25 24
f 15 26 25
f 17 26 16
f 18 27 17
f 19 28 18
f 20 29 19
f 11 30 20
f 21 32 31
f 23 32 22
f 23 34 33
f 24 35 34
f 26 35 25
f 27 36 26
f 28 37 27
f 29 38 28
f 29 40 39
f 30 31 40
f 32 41 31
f 33 42 32
f 34 43 33
f 34 45 44
f 36 45 35
f 37 46 36
f 38 47 37
f 38 49 48
f 40 49 39
f 31 50 40
f 42 51 41
f 43 52 42
f 44 53 43
f 44 55 54
f 46 55 45
f 47 56 46
f 48 57 47
f 49 58 48
f 49 60 59
f 41 60 50
f 52 61 51
f 53 62 52
f 54 63 53
f 54 65 64
f 55 66 65
f 56 67 66
f 57 68 67
f 58 69 68
f 60 69 59
f 51 70 60
f 62 71 61
f 62 73 72
f 64 73 63
f 64 75 74
f 66 75 65
f 66 77 76
f 68 77 67
f 69 78 68
f 70 79 69
f 70 71 80
f 71 82 81
f 73 82 72
f 74 83 73
f 75 84 74
f 75 86 85
f 77 86 76
f 77 88 87
f 79 88 78
f 79 90 89
f 71 90 80
f 82 91 81
f 83 92 82
f 83 94 93
f 85 94 84
f 86 95 85
f 86 97 96
f 88 97 87
f 89 98 88
f 89 100 99
f 90 91 100
f 92 101 91
f 93 102 92
f 93 104 103
f 94 105 104
f 96 105 95
f 97 106 96
f 97 108 107
f 99 108 98
f 100 109 99
f 100 101 110
f 111 2 1
f 111 3 2
f 111 4 3
f 111 5 4
f 111 6 5
f 111 7 6
f 111 8 7
f 111 9 8
f 111 10 9
f 111 1 10
f 101 102 112
f 102 103 112
f 103 104 112
f 104 105 112
f 105 106 112
f 106 107 112
f 107 108 112
f 108 109 112
f 109 110 112
f 110 101 112
f 1 2 12
f 2 3 13
f 3 4 14
f 4 5 15
f 6 16 15
f 7 17 16
f 7 8 18
f 8 9 19
f 9 10 20
f 1 11 20
f 11 12 22
f 12 13 23
f 14 24 23
f 14 15 25
f 15 16 26
f 17 27 26
f 18 28 27
f 19 29 28
f 20 30 29
f 11 21 30
f 21 22 32
f 23 33 32
f 23 24 34
f 24 25 35
f 26 36 35
f 27 37 36
f 28 38 37
f 29 39 38
f 29 30 40
f 30 21 31
f 32 42 41
f 33 43 42
f 34 44 43
f 34 35 45
f 36 46 45
f 37 47 46
f 38 48 47
f 38 39 49
f 40 50 49
f 31 41 50
f 42 52 51
f 43 53 52
f 44 54 53
f 44 45 55
f 46 56 55
f 47 57 56
f 48 58 57
f 49 59 58
f 49 50 60
f 41 51 60
f 52 62 61
f 53 63 62
f 54 64 63
f 54 55 65
f 55 56 66
f 56 57 67
f 57 58 68
f 58 59 69
f 60 70 69
f 51 61 70
f 62 72 71
f 62 63 73
f 64 74 73
f 64 65 75
f 66 76 75
f 66 67 77
f 68 78 77
f 69 79 78
f 70 80 79
f 70 61 71
f 71 72 82
f 73 83 82
f 74 84 83
f 75 85 84
f 75 76 86
f 77 87 86
f 77 78 88
f 79 89 88
f 79 80 90
f 71 81 90
f 82 92 91
f 83 93 92
f 83 84 94
f 85 95 94
f 86 96 95
f 86 87 97
f 88 98 97
f 89 99 98
f 89 90 100
f 90 81 91
f 92 102 101
f 93 103 102
f 93 94 104
f 94 95 105
f 96 106 105
f 97 107 106
f 97 98 108
f 99 109 108
f 100 110 109
f 100 91 101
