# apex Jet1_JetFlame.obj: Roblox cue frame, recentred on its bounding box
v 0.08055 0.03323 -0.17482
v 0.04654 0.02162 -0.19012
v 0.02231 -0.00880 -0.19385
v 0.01713 -0.04639 -0.18460
v 0.03296 -0.07680 -0.16589
v 0.06376 -0.08842 -0.14487
v 0.09777 -0.07680 -0.12957
v 0.12200 -0.04639 -0.12583
v 0.12718 -0.00880 -0.13509
v 0.11135 0.02162 -0.15380
v 0.06128 0.04824 -0.14044
v 0.02526 0.03594 -0.15665
v -0.00040 0.00373 -0.16061
v -0.00589 -0.03609 -0.15080
v 0.01088 -0.06831 -0.13098
v 0.04351 -0.08061 -0.10872
v 0.07953 -0.06831 -0.09251
v 0.10519 -0.03609 -0.08855
v 0.11068 0.00373 -0.09836
v 0.09391 0.03594 -0.11818
v 0.04170 0.06090 -0.10549
v 0.00498 0.04836 -0.12201
v -0.02118 0.01552 -0.12604
v -0.02678 -0.02507 -0.11605
v -0.00969 -0.05791 -0.09584
v 0.02357 -0.07045 -0.07315
v 0.06030 -0.05791 -0.05663
v 0.08645 -0.02507 -0.05260
v 0.09205 0.01552 -0.06259
v 0.07496 0.04836 -0.08279
v 0.02172 0.07075 -0.06984
v -0.01413 0.05850 -0.08597
v -0.03966 0.02645 -0.08991
v -0.04513 -0.01318 -0.08015
v -0.02844 -0.04524 -0.06043
v 0.00403 -0.05748 -0.03827
v 0.03988 -0.04524 -0.02214
v 0.06541 -0.01318 -0.01821
v 0.07088 0.02645 -0.02796
v 0.05419 0.05850 -0.04769
v 0.00135 0.07772 -0.03349
v -0.03202 0.06632 -0.04850
v -0.05579 0.03648 -0.05216
v -0.06088 -0.00040 -0.04308
v -0.04534 -0.03024 -0.02472
v -0.01512 -0.04164 -0.00410
v 0.01825 -0.03024 0.01091
v 0.04202 -0.00040 0.01458
v 0.04711 0.03648 0.00549
v 0.03157 0.06632 -0.01286
v -0.01938 0.08212 0.00350
v -0.04883 0.07206 -0.00975
v -0.06980 0.04572 -0.01298
v -0.07429 0.01317 -0.00497
v -0.06058 -0.01316 0.01123
v -0.03391 -0.02322 0.02943
v -0.00446 -0.01316 0.04268
v 0.01651 0.01317 0.04592
v 0.02101 0.04572 0.03790
v 0.00730 0.07206 0.02170
v -0.04038 0.08454 0.04097
v -0.06480 0.07620 0.02999
v -0.08220 0.05436 0.02731
v -0.08592 0.02736 0.03395
v -0.07455 0.00552 0.04739
v -0.05243 -0.00282 0.06248
v -0.02801 0.00552 0.07347
v -0.01061 0.02736 0.07615
v -0.00689 0.05436 0.06951
v -0.01826 0.07620 0.05607
v -0.06154 0.08576 0.07874
v -0.08027 0.07937 0.07032
v -0.09361 0.06262 0.06826
v -0.09647 0.04191 0.07336
v -0.08775 0.02516 0.08366
v -0.07078 0.01877 0.09524
v -0.05205 0.02516 0.10367
v -0.03871 0.04191 0.10572
v -0.03586 0.06262 0.10063
v -0.04458 0.07937 0.09032
v -0.08276 0.08663 0.11660
v -0.09559 0.08224 0.11083
v -0.10473 0.07077 0.10942
v -0.10669 0.05658 0.11291
v -0.10071 0.04510 0.11997
v -0.08909 0.04072 0.12790
v -0.07625 0.04510 0.13368
v -0.06711 0.05658 0.13509
v -0.06516 0.07077 0.13160
v -0.07113 0.08224 0.12453
v -0.10393 0.08778 0.15439
v -0.11103 0.08536 0.15119
v -0.11609 0.07901 0.15041
v -0.11717 0.07116 0.15235
v -0.11387 0.06481 0.15625
v -0.10743 0.06238 0.16064
v -0.10033 0.06481 0.16384
v -0.09527 0.07116 0.16462
v -0.09419 0.07901 0.16268
v -0.09750 0.08536 0.15878
v -0.12518 0.08842 0.19230
v -0.12625 0.08805 0.19182
v -0.12702 0.08709 0.19170
v -0.12718 0.08590 0.19199
v -0.12668 0.08493 0.19259
v -0.12571 0.08457 0.19325
v -0.12463 0.08493 0.19374
v -0.12386 0.08590 0.19385
v -0.12370 0.08709 0.19356
v -0.12420 0.08805 0.19297
v 0.07216 -0.02759 -0.15984
v -0.12544 0.08649 0.19278
f 1 12 11
f 2 13 12
f 4 13 3
f 5 14 4
f 5 16 15
f 6 17 16
f 8 17 7
f 9 18 8
f 9 20 19
f 1 20 10
f 11 22 21
f 13 22 12
f 13 24 23
f 15 24 14
f 15 26 25
f 17 26 16
f 18 27 17
f 19 28 18
f 19 30 29
f 11 30 20
f 22 31 21
f 23 32 22
f 24 33 23
f 25 34 24
f 26 35 25
f 27 36 26
f 28 37 27
f 29 38 28
f 30 39 29
f 30 31 40
f 32 41 31
f 32 43 42
f 33 44 43
f 35 44 34
f 36 45 35
f 37 46 36
f 37 48 47
f 39 48 38
f 40 49 39
f 40 41 50
f 42 51 41
f 43 52 42
f 44 53 43
f 44 55 54
f 46 55 45
f 47 56 46
f 48 57 47
f 48 59 58
f 50 59 49
f 41 60 50
f 51 62 61
f 52 63 62
f 54 63 53
f 54 65 64
f 56 65 55
f 56 67 66
f 58 67 57
f 58 69 68
f 60 69 59
f 51 70 60
f 62 71 61
f 62 73 72
f 63 74 73
f 64 75 74
f 66 75 65
f 67 76 66
f 68 77 67
f 68 79 78
f 69 80 79
f 70 71 80
f 72 81 71
f 72 83 82
f 73 84 83
f 75 84 74
f 75 86 85
f 76 87 86
f 78 87 77
f 79 88 78
f 80 89 79
f 71 90 80
f 82 91 81
f 82 93 92
f 83 94 93
f 85 94 84
f 86 95 85
f 87 96 86
f 88 97 87
f 89 98 88
f 89 100 99
f 90 91 100
f 91 102 101
f 92 103 102
f 93 104 103
f 94 105 104
f 95 106 105
f 97 106 96
f 98 107 97
f 99 108 98
f 100 109 99
f 100 101 110
f 111 2 1
f 111 3 2
f 111 4 3
f 111 5 4
f 111 6 5
f 111 7 6
f 111 8 7
f 111 9 8
f 111 10 9
f 111 1 10
f 101 102 112
f 102 103 112
f 103 104 112
f 104 105 112
f 105 106 112
f 106 107 112
f 107 108 112
f 108 109 112
f 109 110 112
f 110 101 112
f 1 2 12
f 2 3 13
f 4 14 13
f 5 15 14
f 5 6 16
f 6 7 17
f 8 18 17
f 9 19 18
f 9 10 20
f 1 11 20
f 11 12 22
f 13 23 22
f 13 14 24
f 15 25 24
f 15 16 26
f 17 27 26
f 18 28 27
f 19 29 28
f 19 20 30
f 11 21 30
f 22 32 31
f 23 33 32
f 24 34 33
f 25 35 34
f 26 36 35
f 27 37 36
f 28 38 37
f 29 39 38
f 30 40 39
f 30 21 31
f 32 42 41
f 32 33 43
f 33 34 44
f 35 45 44
f 36 46 45
f 37 47 46
f 37 38 48
f 39 49 48
f 40 50 49
f 40 31 41
f 42 52 51
f 43 53 52
f 44 54 53
f 44 45 55
f 46 56 55
f 47 57 56
f 48 58 57
f 48 49 59
f 50 60 59
f 41 51 60
f 51 52 62
f 52 53 63
f 54 64 63
f 54 55 65
f 56 66 65
f 56 57 67
f 58 68 67
f 58 59 69
f 60 70 69
f 51 61 70
f 62 72 71
f 62 63 73
f 63 64 74
f 64 65 75
f 66 76 75
f 67 77 76
f 68 78 77
f 68 69 79
f 69 70 80
f 70 61 71
f 72 82 81
f 72 73 83
f 73 74 84
f 75 85 84
f 75 76 86
f 76 77 87
f 78 88 87
f 79 89 88
f 80 90 89
f 71 81 90
f 82 92 91
f 82 83 93
f 83 84 94
f 85 95 94
f 86 96 95
f 87 97 96
f 88 98 97
f 89 99 98
f 89 90 100
f 90 81 91
f 91 92 102
f 92 93 103
f 93 94 104
f 94 95 105
f 95 96 106
f 97 107 106
f 98 108 107
f 99 109 108
f 100 110 109
f 100 91 101
