# apex Jet2_JetFlame.obj: Roblox cue frame, recentred on its bounding box
v -0.00000 0.14145 -0.12535
v -0.03715 0.13132 -0.13191
v -0.06011 0.10479 -0.14908
v -0.06011 0.07200 -0.17030
v -0.03715 0.04546 -0.18746
v -0.00000 0.03533 -0.19402
v 0.03715 0.04546 -0.18746
v 0.06011 0.07200 -0.17030
v 0.06011 0.10479 -0.14908
v 0.03715 0.13132 -0.13191
v -0.00000 0.12178 -0.08806
v -0.03935 0.11105 -0.09500
v -0.06367 0.08294 -0.11319
v -0.06367 0.04821 -0.13566
v -0.03935 0.02010 -0.15385
v -0.00000 0.00937 -0.16079
v 0.03935 0.02010 -0.15385
v 0.06367 0.04821 -0.13566
v 0.06367 0.08294 -0.11319
v 0.03935 0.11105 -0.09500
v -0.00000 0.10005 -0.05209
v -0.04011 0.08911 -0.05917
v -0.06490 0.06046 -0.07771
v -0.06490 0.02505 -0.10062
v -0.04011 -0.00359 -0.11915
v -0.00000 -0.01453 -0.12623
v 0.04011 -0.00359 -0.11915
v 0.06490 0.02505 -0.10062
v 0.06490 0.06046 -0.07771
v 0.04011 0.08911 -0.05917
v -0.00000 0.07587 -0.01771
v -0.03916 0.06519 -0.02462
v -0.06336 0.03723 -0.04272
v -0.06336 0.00266 -0.06508
v -0.03916 -0.02531 -0.08318
v -0.00000 -0.03599 -0.09009
v 0.03916 -0.02531 -0.08318
v 0.06336 0.00266 -0.06508
v 0.06336 0.03723 -0.04272
v 0.03916 0.06519 -0.02462
v -0.00000 0.04919 0.01505
v -0.03645 0.03924 0.00861
v -0.05897 0.01321 -0.00823
v -0.05897 -0.01896 -0.02905
v -0.03645 -0.04499 -0.04589
v -0.00000 -0.05494 -0.05233
v 0.03645 -0.04499 -0.04589
v 0.05897 -0.01896 -0.02905
v 0.05897 0.01321 -0.00823
v 0.03645 0.03924 0.00861
v -0.00000 0.02025 0.04635
v -0.03217 0.01148 0.04067
v -0.05205 -0.01149 0.02581
v -0.05205 -0.03989 0.00744
v -0.03217 -0.06286 -0.00743
v -0.00000 -0.07164 -0.01311
v 0.03217 -0.06286 -0.00743
v 0.05205 -0.03989 0.00744
v 0.05205 -0.01149 0.02581
v 0.03217 0.01148 0.04067
v -0.00000 -0.01040 0.07654
v -0.02668 -0.01768 0.07183
v -0.04316 -0.03673 0.05950
v -0.04316 -0.06028 0.04427
v -0.02668 -0.07933 0.03194
v -0.00000 -0.08661 0.02723
v 0.02668 -0.07933 0.03194
v 0.04316 -0.06028 0.04427
v 0.04316 -0.03673 0.05950
v 0.02668 -0.01768 0.07183
v -0.00000 -0.04210 0.10606
v -0.02046 -0.04768 0.10245
v -0.03310 -0.06229 0.09299
v -0.03310 -0.08035 0.08130
v -0.02046 -0.09497 0.07185
v -0.00000 -0.10055 0.06824
v 0.02046 -0.09497 0.07185
v 0.03310 -0.08035 0.08130
v 0.03310 -0.06229 0.09299
v 0.02046 -0.04768 0.10245
v -0.00000 -0.07412 0.13537
v -0.01402 -0.07794 0.13289
v -0.02268 -0.08795 0.12641
v -0.02268 -0.10033 0.11840
v -0.01402 -0.11034 0.11193
v -0.00000 -0.11417 0.10945
v 0.01402 -0.11034 0.11193
v 0.02268 -0.10033 0.11840
v 0.02268 -0.08795 0.12641
v 0.01402 -0.07794 0.13289
v -0.00000 -0.10588 0.16484
v -0.00776 -0.10799 0.16347
v -0.01255 -0.11353 0.15989
v -0.01255 -0.12038 0.15546
v -0.00776 -0.12592 0.15187
v -0.00000 -0.12804 0.15050
v 0.00776 -0.12592 0.15187
v 0.01255 -0.12038 0.15546
v 0.01255 -0.11353 0.15989
v 0.00776 -0.10799 0.16347
v -0.00000 -0.13809 0.19402
v -0.00118 -0.13842 0.19381
v -0.00190 -0.13925 0.19327
v -0.00190 -0.14029 0.19260
v -0.00118 -0.14113 0.19205
v -0.00000 -0.14145 0.19185
v 0.00118 -0.14113 0.19205
v 0.00190 -0.14029 0.19260
v 0.00190 -0.13925 0.19327
v 0.00118 -0.13842 0.19381
v -0.00000 0.08839 -0.15969
v 0.00000 -0.13977 0.19293
f 2 11 1
f 3 12 2
f 3 14 13
f 5 14 4
f 6 15 5
f 6 17 16
f 7 18 17
f 9 18 8
f 9 20 19
f 10 11 20
f 11 22 21
f 13 22 12
f 14 23 13
f 14 25 24
f 16 25 15
f 16 27 26
f 18 27 17
f 18 29 28
f 19 30 29
f 11 30 20
f 22 31 21
f 22 33 32
f 24 33 23
f 24 35 34
f 26 35 25
f 26 37 36
f 28 37 27
f 28 39 38
f 30 39 29
f 30 31 40
f 32 41 31
f 33 42 32
f 34 43 33
f 34 45 44
f 36 45 35
f 36 47 46
f 38 47 37
f 38 49 48
f 39 50 49
f 31 50 40
f 42 51 41
f 43 52 42
f 44 53 43
f 45 54 44
f 46 55 45
f 46 57 56
f 47 58 57
f 48 59 58
f 49 60 59
f 50 51 60
f 51 62 61
f 52 63 62
f 54 63 53
f 55 64 54
f 55 66 65
f 57 66 56
f 57 68 67
f 58 69 68
f 60 69 59
f 51 70 60
f 61 72 71
f 62 73 72
f 64 73 63
f 64 75 74
f 65 76 75
f 67 76 66
f 68 77 67
f 68 79 78
f 70 79 69
f 61 80 70
f 72 81 71
f 72 83 82
f 74 83 73
f 74 85 84
f 76 85 75
f 76 87 86
f 78 87 77
f 78 89 88
f 80 89 79
f 80 81 90
f 82 91 81
f 83 92 82
f 83 94 93
f 84 95 94
f 86 95 85
f 86 97 96
f 88 97 87
f 89 98 88
f 89 100 99
f 90 91 100
f 91 102 101
f 93 102 92
f 94 103 93
f 95 104 94
f 96 105 95
f 97 106 96
f 97 108 107
f 98 109 108
f 99 110 109
f 91 110 100
f 111 2 1
f 111 3 2
f 111 4 3
f 111 5 4
f 111 6 5
f 111 7 6
f 111 8 7
f 111 9 8
f 111 10 9
f 111 1 10
f 101 102 112
f 102 103 112
f 103 104 112
f 104 105 112
f 105 106 112
f 106 107 112
f 107 108 112
f 108 109 112
f 109 110 112
f 110 101 112
f 2 12 11
f 3 13 12
f 3 4 14
f 5 15 14
f 6 16 15
f 6 7 17
f 7 8 18
f 9 19 18
f 9 10 20
f 10 1 11
f 11 12 22
f 13 23 22
f 14 24 23
f 14 15 25
f 16 26 25
f 16 17 27
f 18 28 27
f 18 19 29
f 19 20 30
f 11 21 30
f 22 32 31
f 22 23 33
f 24 34 33
f 24 25 35
f 26 36 35
f 26 27 37
f 28 38 37
f 28 29 39
f 30 40 39
f 30 21 31
f 32 42 41
f 33 43 42
f 34 44 43
f 34 35 45
f 36 46 45
f 36 37 47
f 38 48 47
f 38 39 49
f 39 40 50
f 31 41 50
f 42 52 51
f 43 53 52
f 44 54 53
f 45 55 54
f 46 56 55
f 46 47 57
f 47 48 58
f 48 49 59
f 49 50 60
f 50 41 51
f 51 52 62
f 52 53 63
f 54 64 63
f 55 65 64
f 55 56 66
f 57 67 66
f 57 58 68
f 58 59 69
f 60 70 69
f 51 61 70
f 61 62 72
f 62 63 73
f 64 74 73
f 64 65 75
f 65 66 76
f 67 77 76
f 68 78 77
f 68 69 79
f 70 80 79
f 61 71 80
f 72 82 81
f 72 73 83
f 74 84 83
f 74 75 85
f 76 86 85
f 76 77 87
f 78 88 87
f 78 79 89
f 80 90 89
f 80 71 81
f 82 92 91
f 83 93 92
f 83 84 94
f 84 85 95
f 86 96 95
f 86 87 97
f 88 98 97
f 89 99 98
f 89 90 100
f 90 81 91
f 91 92 102
f 93 103 102
f 94 104 103
f 95 105 104
f 96 106 105
f 97 107 106
f 97 98 108
f 98 99 109
f 99 100 110
f 91 101 110
