# apex Jet2_JetCore.obj: Roblox cue frame, recentred on its bounding box
v -0.00000 0.07896 -0.07619
v -0.01810 0.07402 -0.07939
v -0.02929 0.06109 -0.08776
v -0.02929 0.04511 -0.09810
v -0.01810 0.03218 -0.10646
v -0.00000 0.02724 -0.10966
v 0.01810 0.03218 -0.10646
v 0.02929 0.04511 -0.09810
v 0.02929 0.06109 -0.08776
v 0.01810 0.07402 -0.07939
v -0.00000 0.06740 -0.05509
v -0.01914 0.06218 -0.05847
v -0.03097 0.04851 -0.06731
v -0.03097 0.03161 -0.07824
v -0.01914 0.01795 -0.08709
v -0.00000 0.01272 -0.09047
v 0.01914 0.01795 -0.08709
v 0.03097 0.03161 -0.07824
v 0.03097 0.04851 -0.06731
v 0.01914 0.06218 -0.05847
v -0.00000 0.05487 -0.03461
v -0.01950 0.04956 -0.03805
v -0.03155 0.03563 -0.04706
v -0.03155 0.01842 -0.05819
v -0.01950 0.00449 -0.06720
v -0.00000 -0.00083 -0.07065
v 0.01950 0.00449 -0.06720
v 0.03155 0.01842 -0.05819
v 0.03155 0.03563 -0.04706
v 0.01950 0.04956 -0.03805
v -0.00000 0.04120 -0.01487
v -0.01905 0.03600 -0.01823
v -0.03082 0.02239 -0.02704
v -0.03082 0.00558 -0.03792
v -0.01905 -0.00803 -0.04672
v -0.00000 -0.01322 -0.05008
v 0.01905 -0.00803 -0.04672
v 0.03082 0.00558 -0.03792
v 0.03082 0.02239 -0.02704
v 0.01905 0.03600 -0.01823
v -0.00000 0.02634 0.00410
v -0.01777 0.02149 0.00096
v -0.02876 0.00879 -0.00725
v -0.02876 -0.00690 -0.01740
v -0.01777 -0.01959 -0.02562
v -0.00000 -0.02444 -0.02875
v 0.01777 -0.01959 -0.02562
v 0.02876 -0.00690 -0.01740
v 0.02876 0.00879 -0.00725
v 0.01777 0.02149 0.00096
v -0.00000 0.01042 0.02239
v -0.01576 0.00612 0.01961
v -0.02550 -0.00513 0.01232
v -0.02550 -0.01905 0.00332
v -0.01576 -0.03030 -0.00396
v -0.00000 -0.03460 -0.00674
v 0.01576 -0.03030 -0.00396
v 0.02550 -0.01905 0.00332
v 0.02550 -0.00513 0.01232
v 0.01576 0.00612 0.01961
v -0.00000 -0.00631 0.04015
v -0.01318 -0.00990 0.03782
v -0.02132 -0.01931 0.03174
v -0.02132 -0.03094 0.02421
v -0.01318 -0.04035 0.01812
v -0.00000 -0.04395 0.01579
v 0.01318 -0.04035 0.01812
v 0.02132 -0.03094 0.02421
v 0.02132 -0.01931 0.03174
v 0.01318 -0.00990 0.03782
v -0.00000 -0.02352 0.05760
v -0.01025 -0.02632 0.05579
v -0.01659 -0.03364 0.05105
v -0.01659 -0.04269 0.04520
v -0.01025 -0.05001 0.04046
v -0.00000 -0.05281 0.03865
v 0.01025 -0.05001 0.04046
v 0.01659 -0.04269 0.04520
v 0.01659 -0.03364 0.05105
v 0.01025 -0.02632 0.05579
v -0.00000 -0.04089 0.07494
v -0.00722 -0.04286 0.07367
v -0.01168 -0.04802 0.07033
v -0.01168 -0.05439 0.06621
v -0.00722 -0.05955 0.06287
v -0.00000 -0.06152 0.06160
v 0.00722 -0.05955 0.06287
v 0.01168 -0.05439 0.06621
v 0.01168 -0.04802 0.07033
v 0.00722 -0.04286 0.07367
v -0.00000 -0.05814 0.09237
v -0.00427 -0.05930 0.09162
v -0.00691 -0.06236 0.08964
v -0.00691 -0.06613 0.08720
v -0.00427 -0.06918 0.08523
v -0.00000 -0.07035 0.08447
v 0.00427 -0.06918 0.08523
v 0.00691 -0.06613 0.08720
v 0.00691 -0.06236 0.08964
v 0.00427 -0.05930 0.09162
v -0.00000 -0.07560 0.10966
v -0.00118 -0.07592 0.10945
v -0.00190 -0.07676 0.10891
v -0.00190 -0.07780 0.10824
v -0.00118 -0.07864 0.10769
v -0.00000 -0.07896 0.10748
v 0.00118 -0.07864 0.10769
v 0.00190 -0.07780 0.10824
v 0.00190 -0.07676 0.10891
v 0.00118 -0.07592 0.10945
v -0.00000 0.05310 -0.09293
v -0.00000 -0.07728 0.10857
f 1 12 11
f 3 12 2
f 4 13 3
f 5 14 4
f 5 16 15
f 7 16 6
f 7 18 17
f 8 19 18
f 9 20 19
f 10 11 20
f 11 22 21
f 13 22 12
f 14 23 13
f 14 25 24
f 16 25 15
f 16 27 26
f 17 28 27
f 18 29 28
f 19 30 29
f 11 30 20
f 21 32 31
f 22 33 32
f 23 34 33
f 25 34 24
f 25 36 35
f 27 36 26
f 27 38 37
f 29 38 28
f 30 39 29
f 21 40 30
f 31 42 41
f 32 43 42
f 34 43 33
f 34 45 44
f 36 45 35
f 36 47 46
f 38 47 37
f 39 48 38
f 40 49 39
f 31 50 40
f 41 52 51
f 43 52 42
f 44 53 43
f 44 55 54
f 46 55 45
f 46 57 56
f 48 57 47
f 48 59 58
f 49 60 59
f 50 51 60
f 51 62 61
f 52 63 62
f 54 63 53
f 55 64 54
f 55 66 65
f 56 67 66
f 57 68 67
f 58 69 68
f 60 69 59
f 51 70 60
f 61 72 71
f 63 72 62
f 64 73 63
f 64 75 74
f 66 75 65
f 66 77 76
f 68 77 67
f 68 79 78
f 69 80 79
f 61 80 70
f 72 81 71
f 72 83 82
f 73 84 83
f 75 84 74
f 75 86 85
f 77 86 76
f 77 88 87
f 79 88 78
f 80 89 79
f 80 81 90
f 82 91 81
f 82 93 92
f 84 93 83
f 84 95 94
f 86 95 85
f 86 97 96
f 88 97 87
f 88 99 98
f 90 99 89
f 90 91 100
f 91 102 101
f 92 103 102
f 94 103 93
f 95 104 94
f 96 105 95
f 97 106 96
f 97 108 107
f 98 109 108
f 99 110 109
f 91 110 100
f 111 2 1
f 111 3 2
f 111 4 3
f 111 5 4
f 111 6 5
f 111 7 6
f 111 8 7
f 111 9 8
f 111 10 9
f 111 1 10
f 101 102 112
f 102 103 112
f 103 104 112
f 104 105 112
f 105 106 112
f 106 107 112
f 107 108 112
f 108 109 112
f 109 110 112
f 110 101 112
f 1 2 12
f 3 13 12
f 4 14 13
f 5 15 14
f 5 6 16
f 7 17 16
f 7 8 18
f 8 9 19
f 9 10 20
f 10 1 11
f 11 12 22
f 13 23 22
f 14 24 23
f 14 15 25
f 16 26 25
f 16 17 27
f 17 18 28
f 18 19 29
f 19 20 30
f 11 21 30
f 21 22 32
f 22 23 33
f 23 24 34
f 25 35 34
f 25 26 36
f 27 37 36
f 27 28 38
f 29 39 38
f 30 40 39
f 21 31 40
f 31 32 42
f 32 33 43
f 34 44 43
f 34 35 45
f 36 46 45
f 36 37 47
f 38 48 47
f 39 49 48
f 40 50 49
f 31 41 50
f 41 42 52
f 43 53 52
f 44 54 53
f 44 45 55
f 46 56 55
f 46 47 57
f 48 58 57
f 48 49 59
f 49 50 60
f 50 41 51
f 51 52 62
f 52 53 63
f 54 64 63
f 55 65 64
f 55 56 66
f 56 57 67
f 57 58 68
f 58 59 69
f 60 70 69
f 51 61 70
f 61 62 72
f 63 73 72
f 64 74 73
f 64 65 75
f 66 76 75
f 66 67 77
f 68 78 77
f 68 69 79
f 69 70 80
f 61 71 80
f 72 82 81
f 72 73 83
f 73 74 84
f 75 85 84
f 75 76 86
f 77 87 86
f 77 78 88
f 79 89 88
f 80 90 89
f 80 71 81
f 82 92 91
f 82 83 93
f 84 94 93
f 84 85 95
f 86 96 95
f 86 87 97
f 88 98 97
f 88 89 99
f 90 100 99
f 90 81 91
f 91 92 102
f 92 93 103
f 94 104 103
f 95 105 104
f 96 106 105
f 97 107 106
f 97 98 108
f 98 99 109
f 99 100 110
f 91 101 110
