# apex Rotor_Dark.obj: Roblox cue frame, recentred on its bounding box
v 0.01200 0.08800 0.01000
v 0.01455 0.08766 0.00703
v 0.01152 0.09067 0.00702
v 0.00900 0.08580 -0.01000
v 0.00941 0.08913 -0.00702
v 0.01245 0.08611 -0.00703
v -0.01200 0.08800 0.01000
v -0.01152 0.09067 0.00702
v -0.01455 0.08766 0.00703
v -0.00900 0.08580 -0.01000
v -0.01245 0.08611 -0.00703
v -0.00941 0.08913 -0.00702
v -0.01200 0.07200 0.01000
v -0.01455 0.07234 0.00703
v -0.01152 0.06933 0.00702
v -0.00900 0.07420 -0.01000
v -0.00941 0.07087 -0.00702
v -0.01245 0.07389 -0.00703
v 0.01200 0.07200 0.01000
v 0.01152 0.06933 0.00702
v 0.01455 0.07234 0.00703
v 0.00900 0.07420 -0.01000
v 0.01245 0.07389 -0.00703
v 0.00941 0.07087 -0.00702
v -0.03975 0.07947 0.00703
v -0.04398 0.08013 0.00702
v -0.04202 0.07825 0.01000
v -0.04055 0.07698 -0.00703
v -0.04315 0.07470 -0.01000
v -0.04477 0.07764 -0.00702
v -0.06330 0.06236 0.00703
v -0.06143 0.06414 0.01000
v -0.06262 0.06658 0.00702
v -0.06068 0.06235 -0.00703
v -0.06000 0.06657 -0.00702
v -0.05771 0.06412 -0.01000
v -0.05203 0.05120 0.01000
v -0.05430 0.04997 0.00703
v -0.05007 0.04932 0.00702
v -0.05089 0.05474 -0.01000
v -0.04927 0.05180 -0.00702
v -0.05350 0.05246 -0.00703
v -0.03261 0.06530 0.01000
v -0.03143 0.06286 0.00702
v -0.03075 0.06708 0.00703
v -0.03633 0.06532 -0.01000
v -0.03336 0.06709 -0.00703
v -0.03404 0.06287 -0.00702
v -0.07887 0.04093 0.00703
v -0.08267 0.03897 0.00702
v -0.07998 0.03861 0.01000
v -0.07805 0.03844 -0.00703
v -0.07882 0.03507 -0.01000
v -0.08186 0.03650 -0.00702
v -0.08740 0.01578 0.01000
v -0.08979 0.01706 0.00702
v -0.08786 0.01324 0.00703
v -0.08574 0.01477 -0.00703
v -0.08767 0.01859 -0.00702
v -0.08438 0.01795 -0.01000
v -0.07218 0.01084 0.01000
v -0.07330 0.00851 0.00703
v -0.06949 0.01047 0.00702
v -0.07335 0.01437 -0.01000
v -0.07031 0.01295 -0.00702
v -0.07412 0.01100 -0.00703
v -0.06477 0.03366 0.01000
v -0.06238 0.03238 0.00702
v -0.06431 0.03620 0.00703
v -0.06779 0.03149 -0.01000
v -0.06643 0.03467 -0.00703
v -0.06449 0.03085 -0.00702
v -0.08740 -0.01578 0.01000
v -0.08786 -0.01324 0.00703
v -0.08979 -0.01706 0.00702
v -0.08574 -0.01477 -0.00703
v -0.08438 -0.01795 -0.01000
v -0.08767 -0.01859 -0.00702
v -0.07887 -0.04093 0.00703
v -0.07998 -0.03861 0.01000
v -0.08267 -0.03897 0.00702
v -0.07805 -0.03844 -0.00703
v -0.08186 -0.03650 -0.00702
v -0.07882 -0.03507 -0.01000
v -0.06477 -0.03366 0.01000
v -0.06431 -0.03620 0.00703
v -0.06238 -0.03238 0.00702
v -0.06779 -0.03149 -0.01000
v -0.06449 -0.03085 -0.00702
v -0.06643 -0.03467 -0.00703
v -0.07218 -0.01084 0.01000
v -0.06949 -0.01047 0.00702
v -0.07330 -0.00851 0.00703
v -0.07335 -0.01437 -0.01000
v -0.07412 -0.01100 -0.00703
v -0.07031 -0.01295 -0.00702
v -0.06330 -0.06236 0.00703
v -0.06262 -0.06658 0.00702
v -0.06143 -0.06414 0.01000
v -0.06068 -0.06235 -0.00703
v -0.05771 -0.06412 -0.01000
v -0.06000 -0.06657 -0.00702
v -0.03975 -0.07947 0.00703
v -0.04202 -0.07825 0.01000
v -0.04398 -0.08013 0.00702
v -0.04055 -0.07698 -0.00703
v -0.04477 -0.07764 -0.00702
v -0.04315 -0.07470 -0.01000
v -0.03261 -0.06530 0.01000
v -0.03075 -0.06708 0.00703
v -0.03143 -0.06286 0.00702
v -0.03633 -0.06532 -0.01000
v -0.03404 -0.06287 -0.00702
v -0.03336 -0.06709 -0.00703
v -0.05203 -0.05120 0.01000
v -0.05007 -0.04932 0.00702
v -0.05430 -0.04997 0.00703
v -0.05089 -0.05474 -0.01000
v -0.05350 -0.05246 -0.00703
v -0.04927 -0.05180 -0.00702
v -0.01200 -0.08800 0.01000
v -0.01455 -0.08766 0.00703
v -0.01152 -0.09067 0.00702
v -0.01245 -0.08611 -0.00703
v -0.00900 -0.08580 -0.01000
v -0.00941 -0.08913 -0.00702
v 0.01455 -0.08766 0.00703
v 0.01200 -0.08800 0.01000
v 0.01152 -0.09067 0.00702
v 0.01245 -0.08611 -0.00703
v 0.00941 -0.08913 -0.00702
v 0.00900 -0.08580 -0.01000
v 0.01200 -0.07200 0.01000
v 0.01455 -0.07234 0.00703
v 0.01152 -0.06933 0.00702
v 0.00900 -0.07420 -0.01000
v 0.00941 -0.07087 -0.00702
v 0.01245 -0.07389 -0.00703
v -0.01200 -0.07200 0.01000
v -0.01152 -0.06933 0.00702
v -0.01455 -0.07234 0.00703
v -0.00900 -0.07420 -0.01000
v -0.01245 -0.07389 -0.00703
v -0.00941 -0.07087 -0.00702
v 0.03975 -0.07947 0.00703
v 0.04398 -0.08013 0.00702
v 0.04202 -0.07825 0.01000
v 0.04055 -0.07698 -0.00703
v 0.04315 -0.07470 -0.01000
v 0.04477 -0.07764 -0.00702
v 0.06330 -0.06236 0.00703
v 0.06143 -0.06414 0.01000
v 0.06262 -0.06658 0.00702
v 0.06068 -0.06235 -0.00703
v 0.06000 -0.06657 -0.00702
v 0.05771 -0.06412 -0.01000
v 0.05203 -0.05120 0.01000
v 0.05430 -0.04997 0.00703
v 0.05007 -0.04932 0.00702
v 0.05089 -0.05474 -0.01000
v 0.04927 -0.05180 -0.00702
v 0.05350 -0.05246 -0.00703
v 0.03261 -0.06530 0.01000
v 0.03143 -0.06286 0.00702
v 0.03075 -0.06708 0.00703
v 0.03633 -0.06532 -0.01000
v 0.03336 -0.06709 -0.00703
v 0.03404 -0.06287 -0.00702
v 0.07998 -0.03861 0.01000
v 0.07887 -0.04093 0.00703
v 0.08267 -0.03897 0.00702
v 0.07805 -0.03844 -0.00703
v 0.07882 -0.03507 -0.01000
v 0.08186 -0.03650 -0.00702
v 0.08786 -0.01324 0.00703
v 0.08740 -0.01578 0.01000
v 0.08979 -0.01706 0.00702
v 0.08574 -0.01477 -0.00703
v 0.08767 -0.01859 -0.00702
v 0.08438 -0.01795 -0.01000
v 0.07218 -0.01084 0.01000
v 0.07330 -0.00851 0.00703
v 0.06949 -0.01047 0.00702
v 0.07335 -0.01437 -0.01000
v 0.07031 -0.01295 -0.00702
v 0.07412 -0.01100 -0.00703
v 0.06477 -0.03366 0.01000
v 0.06238 -0.03238 0.00702
v 0.06431 -0.03620 0.00703
v 0.06779 -0.03149 -0.01000
v 0.06643 -0.03467 -0.00703
v 0.06449 -0.03085 -0.00702
v 0.08786 0.01324 0.00703
v 0.08979 0.01706 0.00702
v 0.08740 0.01578 0.01000
v 0.08574 0.01477 -0.00703
v 0.08438 0.01795 -0.01000
v 0.08767 0.01859 -0.00702
v 0.07887 0.04093 0.00703
v 0.07998 0.03861 0.01000
v 0.08267 0.03897 0.00702
v 0.07805 0.03844 -0.00703
v 0.08186 0.03650 -0.00702
v 0.07882 0.03507 -0.01000
v 0.06477 0.03366 0.01000
v 0.06431 0.03620 0.00703
v 0.06238 0.03238 0.00702
v 0.06779 0.03149 -0.01000
v 0.06449 0.03085 -0.00702
v 0.06643 0.03467 -0.00703
v 0.07218 0.01084 0.01000
v 0.06949 0.01047 0.00702
v 0.07330 0.00851 0.00703
v 0.07335 0.01437 -0.01000
v 0.07412 0.01100 -0.00703
v 0.07031 0.01295 -0.00702
v 0.06143 0.06414 0.01000
v 0.06330 0.06236 0.00703
v 0.06262 0.06658 0.00702
v 0.06068 0.06235 -0.00703
v 0.05771 0.06412 -0.01000
v 0.06000 0.06657 -0.00702
v 0.03975 0.07947 0.00703
v 0.04202 0.07825 0.01000
v 0.04398 0.08013 0.00702
v 0.04055 0.07698 -0.00703
v 0.04477 0.07764 -0.00702
v 0.04315 0.07470 -0.01000
v 0.03261 0.06530 0.01000
v 0.03075 0.06708 0.00703
v 0.03143 0.06286 0.00702
v 0.03633 0.06532 -0.01000
v 0.03404 0.06287 -0.00702
v 0.03336 0.06709 -0.00703
v 0.05203 0.05120 0.01000
v 0.05007 0.04932 0.00702
v 0.05430 0.04997 0.00703
v 0.05089 0.05474 -0.01000
v 0.05350 0.05246 -0.00703
v 0.04927 0.05180 -0.00702
f 1 2 3
f 4 5 6
f 7 8 9
f 10 11 12
f 13 14 15
f 16 17 18
f 19 20 21
f 22 23 24
f 25 26 27
f 28 29 30
f 31 32 33
f 34 35 36
f 37 38 39
f 40 41 42
f 43 44 45
f 46 47 48
f 49 50 51
f 52 53 54
f 55 56 57
f 58 59 60
f 61 62 63
f 64 65 66
f 67 68 69
f 70 71 72
f 73 74 75
f 76 77 78
f 79 80 81
f 82 83 84
f 85 86 87
f 88 89 90
f 91 92 93
f 94 95 96
f 97 98 99
f 100 101 102
f 103 104 105
f 106 107 108
f 109 110 111
f 112 113 114
f 115 116 117
f 118 119 120
f 121 122 123
f 124 125 126
f 127 128 129
f 130 131 132
f 133 134 135
f 136 137 138
f 139 140 141
f 142 143 144
f 145 146 147
f 148 149 150
f 151 152 153
f 154 155 156
f 157 158 159
f 160 161 162
f 163 164 165
f 166 167 168
f 169 170 171
f 172 173 174
f 175 176 177
f 178 179 180
f 181 182 183
f 184 185 186
f 187 188 189
f 190 191 192
f 193 194 195
f 196 197 198
f 199 200 201
f 202 203 204
f 205 206 207
f 208 209 210
f 211 212 213
f 214 215 216
f 217 218 219
f 220 221 222
f 223 224 225
f 226 227 228
f 229 230 231
f 232 233 234
f 235 236 237
f 238 239 240
f 34 33 35
f 28 26 25
f 8 1 3
f 82 81 83
f 33 27 26
f 5 10 12
f 6 3 2
f 11 8 12
f 35 29 36
f 14 7 9
f 52 50 49
f 11 16 18
f 15 18 17
f 50 55 51
f 20 13 15
f 58 56 59
f 17 22 24
f 23 20 24
f 2 19 21
f 23 4 6
f 59 53 60
f 38 32 31
f 75 80 73
f 34 40 42
f 39 42 41
f 76 75 74
f 44 37 39
f 130 129 131
f 41 46 48
f 47 44 48
f 45 27 43
f 28 46 29
f 100 98 97
f 57 61 55
f 83 77 84
f 66 60 64
f 63 66 65
f 106 105 107
f 68 61 63
f 98 104 99
f 72 64 70
f 71 68 72
f 49 67 69
f 71 53 52
f 102 108 107
f 79 85 80
f 129 121 123
f 90 84 88
f 87 90 89
f 124 123 122
f 87 91 85
f 178 177 179
f 96 88 94
f 95 92 96
f 74 91 93
f 95 77 76
f 148 146 145
f 110 104 103
f 126 132 131
f 114 108 112
f 111 114 113
f 154 153 155
f 111 115 109
f 153 147 146
f 113 118 120
f 119 116 120
f 117 99 115
f 100 118 101
f 155 149 156
f 134 128 127
f 171 176 169
f 130 136 138
f 135 138 137
f 172 171 170
f 140 133 135
f 226 225 227
f 137 142 144
f 143 140 144
f 122 139 141
f 143 125 124
f 196 194 193
f 158 152 151
f 179 173 180
f 154 160 162
f 159 162 161
f 202 201 203
f 164 157 159
f 194 200 195
f 161 166 168
f 167 164 168
f 165 147 163
f 148 166 149
f 203 197 204
f 175 181 176
f 219 224 217
f 186 180 184
f 183 186 185
f 220 219 218
f 188 181 183
f 192 184 190
f 191 188 192
f 170 187 189
f 191 173 172
f 199 205 200
f 222 228 227
f 210 204 208
f 207 210 209
f 207 211 205
f 216 208 214
f 215 212 216
f 193 211 213
f 215 197 196
f 230 224 223
f 234 228 232
f 231 234 233
f 231 235 229
f 233 238 240
f 239 236 240
f 237 217 235
f 220 238 221
f 7 19 1
f 5 8 3
f 23 2 21
f 10 22 16
f 11 14 9
f 17 20 15
f 47 25 45
f 26 35 33
f 37 27 32
f 29 40 36
f 31 42 38
f 41 44 39
f 71 49 69
f 50 59 56
f 67 55 61
f 53 64 60
f 57 66 62
f 63 72 68
f 80 91 73
f 78 81 75
f 95 74 93
f 88 77 94
f 79 90 86
f 89 92 87
f 119 97 117
f 102 105 98
f 115 104 109
f 108 118 112
f 103 114 110
f 111 120 116
f 128 139 121
f 126 129 123
f 143 122 141
f 132 142 136
f 130 134 127
f 137 140 135
f 167 145 165
f 146 155 153
f 157 147 152
f 149 160 156
f 151 162 158
f 161 164 159
f 176 187 169
f 171 179 177
f 191 170 189
f 180 190 184
f 175 186 182
f 183 192 188
f 215 193 213
f 198 201 194
f 211 200 205
f 197 208 204
f 199 210 206
f 209 212 207
f 224 235 217
f 222 225 219
f 239 218 237
f 228 238 232
f 223 234 230
f 231 240 236
f 34 31 33
f 28 30 26
f 8 7 1
f 82 79 81
f 33 32 27
f 5 4 10
f 6 5 3
f 11 9 8
f 35 30 29
f 14 13 7
f 52 54 50
f 11 10 16
f 15 14 18
f 50 56 55
f 20 19 13
f 58 57 56
f 17 16 22
f 23 21 20
f 2 1 19
f 23 22 4
f 59 54 53
f 38 37 32
f 75 81 80
f 34 36 40
f 39 38 42
f 76 78 75
f 44 43 37
f 130 127 129
f 41 40 46
f 47 45 44
f 45 25 27
f 28 47 46
f 100 102 98
f 57 62 61
f 83 78 77
f 66 58 60
f 63 62 66
f 106 103 105
f 68 67 61
f 98 105 104
f 72 65 64
f 71 69 68
f 49 51 67
f 71 70 53
f 102 101 108
f 79 86 85
f 129 128 121
f 90 82 84
f 87 86 90
f 124 126 123
f 87 92 91
f 178 175 177
f 96 89 88
f 95 93 92
f 74 73 91
f 95 94 77
f 148 150 146
f 110 109 104
f 126 125 132
f 114 106 108
f 111 110 114
f 154 151 153
f 111 116 115
f 153 152 147
f 113 112 118
f 119 117 116
f 117 97 99
f 100 119 118
f 155 150 149
f 134 133 128
f 171 177 176
f 130 132 136
f 135 134 138
f 172 174 171
f 140 139 133
f 226 223 225
f 137 136 142
f 143 141 140
f 122 121 139
f 143 142 125
f 196 198 194
f 158 157 152
f 179 174 173
f 154 156 160
f 159 158 162
f 202 199 201
f 164 163 157
f 194 201 200
f 161 160 166
f 167 165 164
f 165 145 147
f 148 167 166
f 203 198 197
f 175 182 181
f 219 225 224
f 186 178 180
f 183 182 186
f 220 222 219
f 188 187 181
f 192 185 184
f 191 189 188
f 170 169 187
f 191 190 173
f 199 206 205
f 222 221 228
f 210 202 204
f 207 206 210
f 207 212 211
f 216 209 208
f 215 213 212
f 193 195 211
f 215 214 197
f 230 229 224
f 234 226 228
f 231 230 234
f 231 236 235
f 233 232 238
f 239 237 236
f 237 218 217
f 220 239 238
f 7 13 19
f 5 12 8
f 23 6 2
f 10 4 22
f 11 18 14
f 17 24 20
f 47 28 25
f 26 30 35
f 37 43 27
f 29 46 40
f 31 34 42
f 41 48 44
f 71 52 49
f 50 54 59
f 67 51 55
f 53 70 64
f 57 58 66
f 63 65 72
f 80 85 91
f 78 83 81
f 95 76 74
f 88 84 77
f 79 82 90
f 89 96 92
f 119 100 97
f 102 107 105
f 115 99 104
f 108 101 118
f 103 106 114
f 111 113 120
f 128 133 139
f 126 131 129
f 143 124 122
f 132 125 142
f 130 138 134
f 137 144 140
f 167 148 145
f 146 150 155
f 157 163 147
f 149 166 160
f 151 154 162
f 161 168 164
f 176 181 187
f 171 174 179
f 191 172 170
f 180 173 190
f 175 178 186
f 183 185 192
f 215 196 193
f 198 203 201
f 211 195 200
f 197 214 208
f 199 202 210
f 209 216 212
f 224 229 235
f 222 227 225
f 239 220 218
f 228 221 238
f 223 226 234
f 231 233 240
