# apex Talon2_Steel.obj: Roblox cue frame, recentred on its bounding box
v -0.04989 -0.07838 0.09387
v -0.11563 -0.05629 0.09064
v -0.10189 0.01168 0.09387
v -0.02622 -0.00467 0.09791
v -0.05006 -0.07618 0.08030
v -0.11213 -0.05427 0.07109
v -0.10007 0.01043 0.08030
v -0.02874 -0.00612 0.09181
v -0.04687 -0.07194 0.06673
v -0.10344 -0.04925 0.04927
v -0.09480 0.01109 0.06673
v -0.03008 -0.00690 0.08854
v -0.04128 -0.06624 0.05316
v -0.09255 -0.04297 0.03171
v -0.08706 0.01307 0.05316
v -0.02869 -0.00610 0.07996
v -0.03368 -0.05927 0.03958
v -0.08008 -0.03577 0.01628
v -0.07723 0.01617 0.03958
v -0.02467 -0.00377 0.06871
v -0.02430 -0.05115 0.02601
v -0.06625 -0.02778 0.00216
v -0.06552 0.02023 0.02601
v -0.01823 -0.00006 0.05583
v -0.01332 -0.04197 0.01244
v -0.05114 -0.01906 -0.01109
v -0.05207 0.02515 0.01244
v -0.00964 0.00490 0.04186
v -0.00086 -0.03177 -0.00113
v -0.03480 -0.00963 -0.02372
v -0.03701 0.03084 -0.00113
v 0.00090 0.01099 0.02711
v 0.01297 -0.02058 -0.01470
v -0.01726 0.00050 -0.03587
v -0.02041 0.03722 -0.01470
v 0.01321 0.01809 0.01175
v 0.02807 -0.00841 -0.02827
v 0.00147 0.01132 -0.04761
v -0.00231 0.04421 -0.02827
v 0.02714 0.02614 -0.00410
v 0.04435 0.00477 -0.04184
v 0.02138 0.02281 -0.05900
v 0.01724 0.05172 -0.04184
v 0.04256 0.03504 -0.02040
v 0.06169 0.01903 -0.05542
v 0.04247 0.03499 -0.07000
v 0.03826 0.05961 -0.05542
v 0.05935 0.04474 -0.03718
v 0.07994 0.03451 -0.06899
v 0.06475 0.04785 -0.08056
v 0.06079 0.06767 -0.06899
v 0.07738 0.05515 -0.05452
v 0.09879 0.05167 -0.08256
v 0.08830 0.06145 -0.09045
v 0.08507 0.07542 -0.08256
v 0.09647 0.06616 -0.07269
v 0.11563 0.07492 -0.09613
v 0.11384 0.07619 -0.09791
v 0.11363 0.07838 -0.09613
v 0.11563 0.07723 -0.09391
f 2 5 1
f 2 7 6
f 3 8 7
f 1 8 4
f 6 9 5
f 6 11 10
f 7 12 11
f 5 12 8
f 10 13 9
f 10 15 14
f 11 16 15
f 9 16 12
f 14 17 13
f 14 19 18
f 15 20 19
f 13 20 16
f 18 21 17
f 18 23 22
f 19 24 23
f 17 24 20
f 22 25 21
f 22 27 26
f 23 28 27
f 21 28 24
f 26 29 25
f 26 31 30
f 27 32 31
f 25 32 28
f 30 33 29
f 30 35 34
f 31 36 35
f 29 36 32
f 34 37 33
f 34 39 38
f 35 40 39
f 33 40 36
f 38 41 37
f 38 43 42
f 39 44 43
f 37 44 40
f 42 45 41
f 42 47 46
f 43 48 47
f 41 48 44
f 46 49 45
f 46 51 50
f 48 51 47
f 48 49 52
f 50 53 49
f 50 55 54
f 52 55 51
f 52 53 56
f 54 57 53
f 54 59 58
f 56 59 55
f 56 57 60
f 4 2 1
f 57 59 60
f 2 6 5
f 2 3 7
f 3 4 8
f 1 5 8
f 6 10 9
f 6 7 11
f 7 8 12
f 5 9 12
f 10 14 13
f 10 11 15
f 11 12 16
f 9 13 16
f 14 18 17
f 14 15 19
f 15 16 20
f 13 17 20
f 18 22 21
f 18 19 23
f 19 20 24
f 17 21 24
f 22 26 25
f 22 23 27
f 23 24 28
f 21 25 28
f 26 30 29
f 26 27 31
f 27 28 32
f 25 29 32
f 30 34 33
f 30 31 35
f 31 32 36
f 29 33 36
f 34 38 37
f 34 35 39
f 35 36 40
f 33 37 40
f 38 42 41
f 38 39 43
f 39 40 44
f 37 41 44
f 42 46 45
f 42 43 47
f 43 44 48
f 41 45 48
f 46 50 49
f 46 47 51
f 48 52 51
f 48 45 49
f 50 54 53
f 50 51 55
f 52 56 55
f 52 49 53
f 54 58 57
f 54 55 59
f 56 60 59
f 56 53 57
f 4 3 2
f 57 58 59
