# apex Talon1_Steel.obj: Roblox cue frame, recentred on its bounding box
v -0.08320 0.14021 0.15019
v -0.00000 0.21363 0.14502
v 0.08320 0.14021 0.15019
v -0.00000 0.04844 0.15665
v -0.08000 0.13868 0.12848
v -0.00000 0.20716 0.11374
v 0.08000 0.13868 0.12848
v -0.00000 0.05309 0.14690
v -0.07670 0.13086 0.10676
v -0.00000 0.19110 0.07884
v 0.07670 0.13086 0.10676
v -0.00000 0.05556 0.14167
v -0.07326 0.11855 0.08505
v -0.00000 0.17099 0.05074
v 0.07326 0.11855 0.08505
v -0.00000 0.05301 0.12794
v -0.06968 0.10244 0.06333
v -0.00000 0.14795 0.02605
v 0.06968 0.10244 0.06333
v -0.00000 0.04557 0.10994
v -0.06594 0.08297 0.04162
v -0.00000 0.12239 0.00346
v 0.06594 0.08297 0.04162
v -0.00000 0.03368 0.08933
v -0.06201 0.06041 0.01991
v -0.00000 0.09448 -0.01775
v 0.06201 0.06041 0.01991
v -0.00000 0.01781 0.06697
v -0.05784 0.03498 -0.00181
v -0.00000 0.06430 -0.03795
v 0.05784 0.03498 -0.00181
v -0.00000 -0.00166 0.04337
v -0.05340 0.00687 -0.02352
v -0.00000 0.03189 -0.05739
v 0.05340 0.00687 -0.02352
v -0.00000 -0.02441 0.01881
v -0.04861 -0.02380 -0.04524
v -0.00000 -0.00272 -0.07618
v 0.04861 -0.02380 -0.04524
v -0.00000 -0.05015 -0.00655
v -0.04337 -0.05690 -0.06695
v -0.00000 -0.03951 -0.09439
v 0.04337 -0.05690 -0.06695
v -0.00000 -0.07864 -0.03265
v -0.03749 -0.09233 -0.08867
v -0.00000 -0.07846 -0.11201
v 0.03749 -0.09233 -0.08867
v -0.00000 -0.10966 -0.05949
v -0.03063 -0.13000 -0.11038
v -0.00000 -0.11963 -0.12890
v 0.03063 -0.13000 -0.11038
v -0.00000 -0.14297 -0.08723
v -0.02194 -0.16985 -0.13209
v -0.00000 -0.16314 -0.14472
v 0.02194 -0.16985 -0.13209
v -0.00000 -0.17823 -0.11631
v -0.00320 -0.21179 -0.15381
v -0.00000 -0.21032 -0.15665
v 0.00320 -0.21179 -0.15381
v -0.00000 -0.21363 -0.15026
f 2 5 1
f 2 7 6
f 3 8 7
f 1 8 4
f 6 9 5
f 6 11 10
f 7 12 11
f 5 12 8
f 10 13 9
f 10 15 14
f 11 16 15
f 9 16 12
f 14 17 13
f 14 19 18
f 15 20 19
f 13 20 16
f 18 21 17
f 18 23 22
f 19 24 23
f 17 24 20
f 22 25 21
f 22 27 26
f 23 28 27
f 21 28 24
f 26 29 25
f 26 31 30
f 27 32 31
f 25 32 28
f 30 33 29
f 30 35 34
f 31 36 35
f 29 36 32
f 34 37 33
f 34 39 38
f 35 40 39
f 33 40 36
f 38 41 37
f 38 43 42
f 39 44 43
f 37 44 40
f 42 45 41
f 42 47 46
f 43 48 47
f 41 48 44
f 46 49 45
f 46 51 50
f 48 51 47
f 48 49 52
f 50 53 49
f 50 55 54
f 52 55 51
f 52 53 56
f 54 57 53
f 54 59 58
f 56 59 55
f 56 57 60
f 4 2 1
f 57 59 60
f 2 6 5
f 2 3 7
f 3 4 8
f 1 5 8
f 6 10 9
f 6 7 11
f 7 8 12
f 5 9 12
f 10 14 13
f 10 11 15
f 11 12 16
f 9 13 16
f 14 18 17
f 14 15 19
f 15 16 20
f 13 17 20
f 18 22 21
f 18 19 23
f 19 20 24
f 17 21 24
f 22 26 25
f 22 23 27
f 23 24 28
f 21 25 28
f 26 30 29
f 26 27 31
f 27 28 32
f 25 29 32
f 30 34 33
f 30 31 35
f 31 32 36
f 29 33 36
f 34 38 37
f 34 35 39
f 35 36 40
f 33 37 40
f 38 42 41
f 38 39 43
f 39 40 44
f 37 41 44
f 42 46 45
f 42 43 47
f 43 44 48
f 41 45 48
f 46 50 49
f 46 47 51
f 48 52 51
f 48 45 49
f 50 54 53
f 50 51 55
f 52 56 55
f 52 49 53
f 54 58 57
f 54 55 59
f 56 60 59
f 56 53 57
f 4 3 2
f 57 58 59
