# apex Talon3_Armour.obj: Roblox cue frame, recentred on its bounding box
v 0.11262 0.07624 0.11271
v 0.11387 0.07085 0.11780
v 0.11845 0.06915 0.11210
v 0.12963 -0.06650 0.11201
v 0.12931 -0.07142 0.10649
v 0.13373 -0.06375 0.10649
v 0.00280 -0.12152 0.11780
v -0.00249 -0.12313 0.11271
v 0.00656 -0.12464 0.11210
v -0.04861 -0.07730 0.12249
v -0.05175 -0.07294 0.11749
v -0.05057 -0.08112 0.11722
v 0.04987 0.09327 0.12249
v 0.05220 0.09687 0.11722
v 0.04452 0.09381 0.11749
v 0.11419 0.06735 0.08931
v 0.10852 0.07440 0.09112
v 0.12248 -0.06748 0.07325
v 0.12691 -0.05982 0.07325
v -0.00295 -0.11867 0.09112
v 0.00599 -0.12005 0.08931
v -0.04939 -0.07111 0.10490
v -0.04819 -0.07931 0.10379
v 0.05182 0.09390 0.10379
v 0.04411 0.09084 0.10490
v 0.10162 0.06917 0.05976
v 0.09658 0.07593 0.06335
v 0.10428 -0.05695 0.02946
v 0.10869 -0.04932 0.02946
v -0.01025 -0.10909 0.06335
v -0.00187 -0.11007 0.05976
v -0.05015 -0.06595 0.08937
v -0.04924 -0.07400 0.08714
v 0.04670 0.09216 0.08714
v 0.03926 0.08892 0.08937
v 0.08471 0.07331 0.03278
v 0.08024 0.07978 0.03743
v 0.08225 -0.04423 -0.00428
v 0.08665 -0.03660 -0.00428
v -0.02175 -0.09687 0.03743
v -0.01391 -0.09750 0.03278
v -0.05546 -0.05798 0.06926
v -0.05486 -0.06587 0.06633
v 0.03684 0.09296 0.06633
v 0.02971 0.08954 0.06926
v 0.06427 0.07926 0.00708
v 0.06031 0.08547 0.01244
v 0.05763 -0.03002 -0.03298
v 0.06204 -0.02238 -0.03298
v -0.03663 -0.08245 0.01244
v -0.02928 -0.08277 0.00708
v -0.06489 -0.04743 0.04683
v -0.06458 -0.05517 0.04344
v 0.02271 0.09603 0.04344
v 0.01586 0.09243 0.04683
v 0.04070 0.08675 -0.01782
v 0.03719 0.09273 -0.01198
v 0.03083 -0.01456 -0.05858
v 0.03525 -0.00690 -0.05858
v -0.05449 -0.06605 -0.01198
v -0.04755 -0.06611 -0.01782
v -0.07800 -0.03452 0.02300
v -0.07795 -0.04212 0.01928
v 0.00473 0.10108 0.01928
v -0.00188 0.09733 0.02300
v 0.01423 0.09560 -0.04220
v 0.01109 0.10139 -0.03600
v 0.00196 0.00209 -0.08211
v 0.00639 0.00978 -0.08211
v -0.07503 -0.04778 -0.03600
v -0.06845 -0.04761 -0.04220
v -0.09442 -0.01942 -0.00178
v -0.09459 -0.02690 -0.00575
v -0.01677 0.10789 -0.00575
v -0.02317 0.10400 -0.00178
v -0.01500 0.10568 -0.06620
v -0.01781 0.11130 -0.05975
v -0.02895 0.01992 -0.10417
v -0.02450 0.02763 -0.10417
v -0.09806 -0.02771 -0.05975
v -0.09180 -0.02733 -0.06620
v -0.11383 -0.00226 -0.02722
v -0.11420 -0.00965 -0.03138
v -0.04151 0.11625 -0.03138
v -0.04773 0.11223 -0.02722
v -0.04524 0.12085 -0.08017
v -0.04271 0.11537 -0.08679
v -0.05047 0.11722 -0.08549
v -0.05778 0.03654 -0.12249
v -0.06146 0.04383 -0.12227
v -0.05331 0.04429 -0.12249
v -0.12005 -0.00873 -0.08017
v -0.11952 -0.00238 -0.08549
v -0.11404 -0.00818 -0.08679
v -0.13288 0.01419 -0.04957
v -0.13373 0.01431 -0.05753
v -0.13345 0.00690 -0.05391
v -0.06547 0.12464 -0.05391
v -0.07203 0.12118 -0.05753
v -0.07150 0.12050 -0.04957
f 1 2 3
f 4 5 6
f 7 8 9
f 10 11 12
f 13 14 15
f 86 87 88
f 89 90 91
f 92 93 94
f 95 96 97
f 98 99 100
f 17 3 16
f 4 3 2
f 5 19 6
f 4 9 5
f 20 9 8
f 10 8 7
f 11 23 12
f 13 11 10
f 24 15 14
f 13 1 14
f 27 16 26
f 18 29 19
f 30 21 20
f 22 33 23
f 34 25 24
f 37 26 36
f 28 39 29
f 40 31 30
f 32 43 33
f 44 35 34
f 47 36 46
f 48 39 38
f 50 41 40
f 42 53 43
f 54 45 44
f 57 46 56
f 58 49 48
f 60 51 50
f 52 63 53
f 64 55 54
f 67 56 66
f 68 59 58
f 70 61 60
f 62 73 63
f 74 65 64
f 77 66 76
f 68 79 69
f 80 71 70
f 72 83 73
f 84 75 74
f 86 76 87
f 78 91 79
f 88 91 90
f 92 81 80
f 93 89 94
f 82 97 83
f 96 92 97
f 98 85 84
f 99 95 100
f 99 86 88
f 1 24 14
f 6 16 3
f 10 7 4
f 5 21 18
f 8 23 20
f 15 22 11
f 24 27 34
f 19 26 16
f 18 31 28
f 23 30 20
f 25 32 22
f 34 37 44
f 29 36 26
f 28 41 38
f 33 40 30
f 32 45 42
f 44 47 54
f 39 46 36
f 38 51 48
f 43 50 40
f 42 55 52
f 54 57 64
f 49 56 46
f 48 61 58
f 53 60 50
f 55 62 52
f 64 67 74
f 59 66 56
f 58 71 68
f 63 70 60
f 62 75 72
f 74 77 84
f 69 76 66
f 68 81 78
f 73 80 70
f 75 82 72
f 84 86 98
f 79 87 76
f 78 94 89
f 83 92 80
f 82 100 95
f 90 96 99
f 17 1 3
f 4 6 3
f 5 18 19
f 4 7 9
f 20 21 9
f 10 12 8
f 11 22 23
f 13 15 11
f 24 25 15
f 13 2 1
f 27 17 16
f 18 28 29
f 30 31 21
f 22 32 33
f 34 35 25
f 37 27 26
f 28 38 39
f 40 41 31
f 32 42 43
f 44 45 35
f 47 37 36
f 48 49 39
f 50 51 41
f 42 52 53
f 54 55 45
f 57 47 46
f 58 59 49
f 60 61 51
f 52 62 63
f 64 65 55
f 67 57 56
f 68 69 59
f 70 71 61
f 62 72 73
f 74 75 65
f 77 67 66
f 68 78 79
f 80 81 71
f 72 82 83
f 84 85 75
f 86 77 76
f 78 89 91
f 88 87 91
f 92 94 81
f 93 90 89
f 82 95 97
f 96 93 92
f 98 100 85
f 99 96 95
f 99 98 86
f 1 17 24
f 6 19 16
f 2 13 4
f 13 10 4
f 5 9 21
f 8 12 23
f 15 25 22
f 24 17 27
f 19 29 26
f 18 21 31
f 23 33 30
f 25 35 32
f 34 27 37
f 29 39 36
f 28 31 41
f 33 43 40
f 32 35 45
f 44 37 47
f 39 49 46
f 38 41 51
f 43 53 50
f 42 45 55
f 54 47 57
f 49 59 56
f 48 51 61
f 53 63 60
f 55 65 62
f 64 57 67
f 59 69 66
f 58 61 71
f 63 73 70
f 62 65 75
f 74 67 77
f 69 79 76
f 68 71 81
f 73 83 80
f 75 85 82
f 84 77 86
f 79 91 87
f 78 81 94
f 83 97 92
f 82 85 100
f 99 88 90
f 90 93 96
