# apex Talon1_Armour.obj: Roblox cue frame, recentred on its bounding box
v -0.10232 0.04182 0.10019
v -0.09873 0.04518 0.10471
v -0.09945 0.04946 0.09964
v -0.00000 0.11836 0.09956
v 0.00393 0.12030 0.09465
v -0.00393 0.12030 0.09465
v 0.09873 0.04518 0.10471
v 0.10232 0.04182 0.10019
v 0.09945 0.04946 0.09964
v 0.08754 -0.01405 0.10888
v 0.08557 -0.01841 0.10443
v 0.09135 -0.01386 0.10419
v -0.08754 -0.01405 0.10888
v -0.09135 -0.01386 0.10419
v -0.08557 -0.01841 0.10443
v -0.09617 0.04698 0.07939
v -0.09908 0.03948 0.08100
v 0.00393 0.11329 0.06512
v -0.00393 0.11329 0.06512
v 0.09908 0.03948 0.08100
v 0.09617 0.04698 0.07939
v 0.08311 -0.01740 0.09324
v 0.08890 -0.01283 0.09226
v -0.08890 -0.01283 0.09226
v -0.08311 -0.01740 0.09324
v -0.09199 0.03650 0.05312
v -0.09495 0.02961 0.05631
v 0.00392 0.09460 0.02619
v -0.00392 0.09460 0.02619
v 0.09495 0.02961 0.05631
v 0.09199 0.03650 0.05312
v 0.07948 -0.02028 0.07944
v 0.08528 -0.01600 0.07746
v -0.08528 -0.01600 0.07746
v -0.07948 -0.02028 0.07944
v -0.08766 0.02164 0.02914
v -0.09066 0.01532 0.03327
v 0.00392 0.07198 -0.00381
v -0.00392 0.07198 -0.00381
v 0.09066 0.01532 0.03327
v 0.08766 0.02164 0.02914
v 0.07571 -0.02791 0.06156
v 0.08151 -0.02394 0.05896
v -0.08151 -0.02394 0.05896
v -0.07571 -0.02791 0.06156
v -0.08315 0.00326 0.00630
v -0.08618 -0.00254 0.01105
v 0.00392 0.04672 -0.02931
v -0.00392 0.04672 -0.02931
v 0.08618 -0.00254 0.01105
v 0.08315 0.00326 0.00630
v 0.07178 -0.03986 0.04163
v 0.07759 -0.03618 0.03862
v -0.07759 -0.03618 0.03862
v -0.07178 -0.03986 0.04163
v -0.07845 -0.01821 -0.01584
v -0.08149 -0.02358 -0.01065
v 0.00393 0.01921 -0.05207
v -0.00393 0.01921 -0.05207
v 0.08149 -0.02358 -0.01065
v 0.07845 -0.01821 -0.01584
v 0.06766 -0.05569 0.02044
v 0.07349 -0.05227 0.01713
v -0.07349 -0.05227 0.01713
v -0.06766 -0.05569 0.02044
v -0.07350 -0.04252 -0.03751
v -0.07656 -0.04751 -0.03200
v 0.00394 -0.01041 -0.07299
v -0.00394 -0.01041 -0.07299
v 0.07656 -0.04751 -0.03200
v 0.07350 -0.04252 -0.03751
v 0.06334 -0.07504 -0.00158
v 0.06917 -0.07185 -0.00511
v -0.06917 -0.07185 -0.00511
v -0.06334 -0.07504 -0.00158
v -0.06826 -0.06951 -0.05885
v -0.07134 -0.07416 -0.05311
v 0.00396 -0.04213 -0.09260
v -0.00396 -0.04213 -0.09260
v 0.07134 -0.07416 -0.05311
v 0.06826 -0.06951 -0.05885
v 0.05876 -0.09761 -0.02420
v 0.06461 -0.09461 -0.02790
v -0.06461 -0.09461 -0.02790
v -0.05876 -0.09761 -0.02420
v -0.06650 -0.09953 -0.07126
v -0.06341 -0.09514 -0.07715
v -0.06138 -0.10194 -0.07599
v 0.00398 -0.07171 -0.10888
v -0.00000 -0.07778 -0.10868
v -0.00398 -0.07171 -0.10888
v 0.06650 -0.09953 -0.07126
v 0.06138 -0.10194 -0.07599
v 0.06341 -0.09514 -0.07715
v 0.05456 -0.11959 -0.04406
v 0.05485 -0.12029 -0.05114
v 0.06042 -0.11678 -0.04792
v -0.06042 -0.11678 -0.04792
v -0.05485 -0.12030 -0.05114
v -0.05456 -0.11959 -0.04406
f 1 2 3
f 4 5 6
f 7 8 9
f 10 11 12
f 13 14 15
f 86 87 88
f 89 90 91
f 92 93 94
f 95 96 97
f 98 99 100
f 17 3 16
f 4 3 2
f 18 6 5
f 4 9 5
f 20 9 8
f 10 8 7
f 11 23 12
f 13 11 10
f 24 15 14
f 13 1 14
f 27 16 26
f 28 19 18
f 30 21 20
f 22 33 23
f 34 25 24
f 37 26 36
f 38 29 28
f 40 31 30
f 32 43 33
f 44 35 34
f 47 36 46
f 38 49 39
f 50 41 40
f 42 53 43
f 54 45 44
f 57 46 56
f 58 49 48
f 60 51 50
f 52 63 53
f 64 55 54
f 67 56 66
f 58 69 59
f 70 61 60
f 62 73 63
f 74 65 64
f 77 66 76
f 78 69 68
f 80 71 70
f 72 83 73
f 84 75 74
f 86 76 87
f 89 79 78
f 88 91 90
f 92 81 80
f 93 89 94
f 82 97 83
f 96 92 97
f 98 85 84
f 96 100 99
f 99 86 88
f 1 24 14
f 6 16 3
f 10 7 4
f 5 21 18
f 8 23 20
f 15 22 11
f 24 27 34
f 19 26 16
f 18 31 28
f 23 30 20
f 25 32 22
f 34 37 44
f 29 36 26
f 28 41 38
f 33 40 30
f 35 42 32
f 44 47 54
f 39 46 36
f 38 51 48
f 43 50 40
f 45 52 42
f 54 57 64
f 49 56 46
f 48 61 58
f 53 60 50
f 55 62 52
f 64 67 74
f 59 66 56
f 58 71 68
f 63 70 60
f 65 72 62
f 74 77 84
f 69 76 66
f 68 81 78
f 73 80 70
f 75 82 72
f 84 86 98
f 79 87 76
f 78 94 89
f 83 92 80
f 82 100 95
f 90 96 99
f 17 1 3
f 4 6 3
f 18 19 6
f 4 7 9
f 20 21 9
f 10 12 8
f 11 22 23
f 13 15 11
f 24 25 15
f 13 2 1
f 27 17 16
f 28 29 19
f 30 31 21
f 22 32 33
f 34 35 25
f 37 27 26
f 38 39 29
f 40 41 31
f 32 42 43
f 44 45 35
f 47 37 36
f 38 48 49
f 50 51 41
f 42 52 53
f 54 55 45
f 57 47 46
f 58 59 49
f 60 61 51
f 52 62 63
f 64 65 55
f 67 57 56
f 58 68 69
f 70 71 61
f 62 72 73
f 74 75 65
f 77 67 66
f 78 79 69
f 80 81 71
f 72 82 83
f 84 85 75
f 86 77 76
f 89 91 79
f 88 87 91
f 92 94 81
f 93 90 89
f 82 95 97
f 96 93 92
f 98 100 85
f 96 95 100
f 99 98 86
f 1 17 24
f 6 19 16
f 2 13 4
f 13 10 4
f 5 9 21
f 8 12 23
f 15 25 22
f 24 17 27
f 19 29 26
f 18 21 31
f 23 33 30
f 25 35 32
f 34 27 37
f 29 39 36
f 28 31 41
f 33 43 40
f 35 45 42
f 44 37 47
f 39 49 46
f 38 41 51
f 43 53 50
f 45 55 52
f 54 47 57
f 49 59 56
f 48 51 61
f 53 63 60
f 55 65 62
f 64 57 67
f 59 69 66
f 58 61 71
f 63 73 70
f 65 75 72
f 74 67 77
f 69 79 76
f 68 71 81
f 73 83 80
f 75 85 82
f 84 77 86
f 79 91 87
f 78 81 94
f 83 97 92
f 82 85 100
f 99 88 90
f 90 93 96
