# apex Talon3_Steel.obj: Roblox cue frame, recentred on its bounding box
v 0.16303 0.01869 0.15019
v 0.18501 -0.09007 0.14502
v 0.07983 -0.12541 0.15019
v 0.04195 -0.00747 0.15665
v 0.16011 0.01669 0.12848
v 0.17941 -0.08683 0.11374
v 0.08010 -0.12188 0.12848
v 0.04598 -0.00980 0.14690
v 0.15168 0.01774 0.10676
v 0.16550 -0.07881 0.07884
v 0.07499 -0.11511 0.10676
v 0.04812 -0.01103 0.14167
v 0.13930 0.02092 0.08505
v 0.14808 -0.06875 0.05074
v 0.06604 -0.10598 0.08505
v 0.04591 -0.00976 0.12794
v 0.12357 0.02587 0.06333
v 0.12813 -0.05723 0.02605
v 0.05388 -0.09482 0.06333
v 0.03947 -0.00604 0.10994
v 0.10482 0.03237 0.04162
v 0.10600 -0.04445 0.00346
v 0.03888 -0.08184 0.04162
v 0.02917 -0.00010 0.08933
v 0.08332 0.04024 0.01991
v 0.08183 -0.03049 -0.01775
v 0.02131 -0.06715 0.01991
v 0.01543 0.00784 0.06697
v 0.05922 0.04935 -0.00181
v 0.05569 -0.01540 -0.03795
v 0.00138 -0.05084 -0.00181
v -0.00144 0.01758 0.04337
v 0.03265 0.05956 -0.02352
v 0.02762 0.00080 -0.05739
v -0.02075 -0.03293 -0.02352
v -0.02113 0.02895 0.01881
v 0.00370 0.07074 -0.04524
v -0.00235 0.01811 -0.07618
v -0.04491 -0.01345 -0.04524
v -0.04342 0.04182 -0.00655
v -0.02759 0.08275 -0.06695
v -0.03421 0.03650 -0.09439
v -0.07095 0.00764 -0.06695
v -0.06810 0.05606 -0.03265
v -0.06121 0.09538 -0.08867
v -0.06795 0.05598 -0.11201
v -0.09870 0.03045 -0.08867
v -0.09496 0.07158 -0.05949
v -0.09727 0.10828 -0.11038
v -0.10360 0.07656 -0.12890
v -0.12790 0.05522 -0.11038
v -0.12382 0.08823 -0.08723
v -0.13612 0.12067 -0.13209
v -0.14128 0.09832 -0.14472
v -0.15806 0.08267 -0.13209
v -0.15435 0.10586 -0.11631
v -0.18181 0.12541 -0.15381
v -0.18214 0.12191 -0.15665
v -0.18501 0.11987 -0.15381
v -0.18500 0.12356 -0.15026
f 2 5 1
f 2 7 6
f 3 8 7
f 1 8 4
f 6 9 5
f 6 11 10
f 7 12 11
f 5 12 8
f 10 13 9
f 10 15 14
f 11 16 15
f 9 16 12
f 14 17 13
f 14 19 18
f 15 20 19
f 13 20 16
f 18 21 17
f 18 23 22
f 19 24 23
f 17 24 20
f 22 25 21
f 22 27 26
f 23 28 27
f 21 28 24
f 26 29 25
f 26 31 30
f 27 32 31
f 25 32 28
f 30 33 29
f 30 35 34
f 31 36 35
f 29 36 32
f 34 37 33
f 34 39 38
f 35 40 39
f 33 40 36
f 38 41 37
f 38 43 42
f 39 44 43
f 37 44 40
f 42 45 41
f 42 47 46
f 43 48 47
f 41 48 44
f 46 49 45
f 46 51 50
f 48 51 47
f 48 49 52
f 50 53 49
f 50 55 54
f 52 55 51
f 52 53 56
f 54 57 53
f 54 59 58
f 56 59 55
f 56 57 60
f 4 2 1
f 57 59 60
f 2 6 5
f 2 3 7
f 3 4 8
f 1 5 8
f 6 10 9
f 6 7 11
f 7 8 12
f 5 9 12
f 10 14 13
f 10 11 15
f 11 12 16
f 9 13 16
f 14 18 17
f 14 15 19
f 15 16 20
f 13 17 20
f 18 22 21
f 18 19 23
f 19 20 24
f 17 21 24
f 22 26 25
f 22 23 27
f 23 24 28
f 21 25 28
f 26 30 29
f 26 27 31
f 27 28 32
f 25 29 32
f 30 34 33
f 30 31 35
f 31 32 36
f 29 33 36
f 34 38 37
f 34 35 39
f 35 36 40
f 33 37 40
f 38 42 41
f 38 39 43
f 39 40 44
f 37 41 44
f 42 46 45
f 42 43 47
f 43 44 48
f 41 45 48
f 46 50 49
f 46 47 51
f 48 52 51
f 48 45 49
f 50 54 53
f 50 51 55
f 52 56 55
f 52 49 53
f 54 58 57
f 54 55 59
f 56 60 59
f 56 53 57
f 4 3 2
f 57 58 59
