# phoenix PrimariesLeft_Ember.obj: Roblox cue frame, recentred on its bounding box
v -0.12029 -0.07762 0.07900
v -0.15049 -0.08045 0.07076
v -0.20242 -0.10534 0.05715
v -0.22415 -0.12740 0.05179
v -0.19396 -0.12457 0.06004
v -0.14203 -0.09968 0.07364
v -0.06932 -0.05877 -0.01410
v -0.10739 -0.06615 -0.02438
v -0.17564 -0.09886 -0.04226
v -0.20581 -0.12419 -0.04985
v -0.16774 -0.11681 -0.03957
v -0.09949 -0.08410 -0.02169
v -0.02765 -0.04024 -0.10975
v -0.06860 -0.04977 -0.12077
v -0.14316 -0.08551 -0.14030
v -0.17677 -0.11172 -0.14882
v -0.13582 -0.10219 -0.13780
v -0.06126 -0.06645 -0.11827
v -0.00056 -0.02457 -0.20934
v -0.03774 -0.03305 -0.21935
v -0.10532 -0.06545 -0.23705
v -0.13572 -0.08935 -0.24475
v -0.09853 -0.08086 -0.23474
v -0.03095 -0.04847 -0.21704
v -0.08244 -0.05835 0.09349
v -0.11112 -0.06116 0.08095
v -0.16003 -0.08601 0.05876
v -0.18025 -0.10804 0.04911
v -0.15157 -0.10523 0.06165
v -0.10266 -0.08039 0.08384
v -0.01967 -0.03326 0.00374
v -0.05575 -0.04061 -0.01218
v -0.12002 -0.07326 -0.04134
v -0.14820 -0.09856 -0.05457
v -0.11212 -0.09121 -0.03865
v -0.04785 -0.05856 -0.00949
v 0.02863 -0.01112 -0.09239
v -0.01015 -0.02062 -0.10957
v -0.08037 -0.05629 -0.14143
v -0.11181 -0.08247 -0.15610
v -0.07303 -0.07298 -0.13892
v -0.00281 -0.03730 -0.10707
v 0.05779 0.00569 -0.19702
v 0.02258 -0.00277 -0.21262
v -0.04106 -0.03510 -0.24149
v -0.06949 -0.05898 -0.25477
v -0.03428 -0.05052 -0.23918
v 0.02936 -0.01818 -0.21030
v -0.06818 -0.04965 0.10787
v -0.09468 -0.05213 0.09115
v -0.13921 -0.07631 0.06060
v -0.15725 -0.09801 0.04677
v -0.13075 -0.09553 0.06349
v -0.08622 -0.07135 0.09403
v -0.00306 -0.02297 0.01961
v -0.03627 -0.02988 -0.00180
v -0.09480 -0.06165 -0.04195
v -0.12011 -0.08651 -0.06067
v -0.08690 -0.07960 -0.03926
v -0.02837 -0.04783 0.00089
v 0.04684 0.00005 -0.07851
v 0.01120 -0.00897 -0.10169
v -0.05275 -0.04368 -0.14555
v -0.08105 -0.06938 -0.16623
v -0.04541 -0.06037 -0.14305
v 0.01854 -0.02565 -0.09919
v 0.07922 0.01814 -0.18809
v 0.04685 0.01012 -0.20912
v -0.01111 -0.02134 -0.24888
v -0.03670 -0.04479 -0.26760
v -0.00433 -0.03676 -0.24657
v 0.05363 -0.00530 -0.20681
v -0.06521 -0.04657 0.11914
v -0.08899 -0.04841 0.09868
v -0.12809 -0.07133 0.06064
v -0.14341 -0.09239 0.04306
v -0.11963 -0.09055 0.06352
v -0.08053 -0.06764 0.10156
v 0.00491 -0.01688 0.03560
v -0.02473 -0.02295 0.00926
v -0.07611 -0.05306 -0.04074
v -0.09786 -0.07709 -0.06438
v -0.06821 -0.07102 -0.03804
v -0.01683 -0.04091 0.01195
v 0.06474 0.01149 -0.05692
v 0.03299 0.00338 -0.08548
v -0.02315 -0.02952 -0.14011
v -0.04755 -0.05431 -0.16617
v -0.01581 -0.04620 -0.13760
v 0.04034 -0.01330 -0.08298
v 0.11347 0.03806 -0.15919
v 0.08463 0.03086 -0.18510
v 0.03374 0.00104 -0.23461
v 0.01169 -0.02158 -0.25821
v 0.04053 -0.01438 -0.23230
v 0.09142 0.01544 -0.18279
v -0.05580 -0.03902 0.14265
v -0.07658 -0.04001 0.11909
v -0.10967 -0.06120 0.07486
v -0.12199 -0.08141 0.05418
v -0.10121 -0.08043 0.07774
v -0.06812 -0.05923 0.12198
v 0.02637 -0.00157 0.07641
v 0.00067 -0.00652 0.04600
v -0.04282 -0.03438 -0.01213
v -0.06061 -0.05728 -0.03985
v -0.03492 -0.05233 -0.00944
v 0.00857 -0.02448 0.04869
v 0.10340 0.03732 0.00492
v 0.07597 0.03045 -0.02809
v 0.02845 0.00001 -0.09160
v 0.00836 -0.02355 -0.12211
v 0.03579 -0.01667 -0.08910
v 0.08331 0.01376 -0.02559
v 0.17408 0.07688 -0.07344
v 0.14916 0.07080 -0.10338
v 0.10609 0.04321 -0.16094
v 0.08795 0.02171 -0.18857
v 0.11287 0.02780 -0.15863
v 0.15594 0.05538 -0.10106
v -0.04184 -0.02639 0.18790
v -0.05959 -0.02640 0.16196
v -0.08661 -0.04564 0.11297
v -0.09590 -0.06487 0.08991
v -0.07816 -0.06486 0.11585
v -0.05113 -0.04562 0.16485
v 0.05091 0.01939 0.14862
v 0.02920 0.01572 0.11508
v -0.00632 -0.00956 0.05070
v -0.02013 -0.03118 0.01985
v 0.00158 -0.02752 0.05339
v 0.03710 -0.00223 0.11778
v 0.13968 0.06702 0.10444
v 0.11661 0.06155 0.06802
v 0.07780 0.03392 -0.00233
v 0.06207 0.01176 -0.03625
v 0.08514 0.01723 0.00017
v 0.12395 0.04486 0.07052
v 0.22227 0.11494 0.05137
v 0.20129 0.11012 0.01833
v 0.16612 0.08508 -0.04543
v 0.15193 0.06485 -0.07616
v 0.17290 0.06967 -0.04312
v 0.20808 0.09471 0.02064
v -0.03794 -0.01762 0.23804
v -0.05282 -0.01662 0.21038
v -0.07412 -0.03386 0.15793
v -0.08054 -0.05209 0.13315
v -0.06566 -0.05308 0.16082
v -0.04436 -0.03585 0.21326
v 0.05554 0.03109 0.22002
v 0.03759 0.02874 0.18421
v 0.00961 0.00609 0.11529
v -0.00043 -0.01422 0.08218
v 0.01751 -0.01187 0.11799
v 0.04549 0.01078 0.18691
v 0.14364 0.08002 0.19191
v 0.12468 0.07599 0.15300
v 0.09410 0.05124 0.07770
v 0.08248 0.03052 0.04130
v 0.10144 0.03456 0.08020
v 0.13202 0.05930 0.15551
v 0.22415 0.12740 0.14826
v 0.20691 0.12389 0.11298
v 0.17919 0.10146 0.04473
v 0.16872 0.08253 0.01176
v 0.18597 0.08604 0.04704
v 0.21369 0.10847 0.11529
v -0.04997 -0.01907 0.26760
v -0.06226 -0.01712 0.23874
v -0.07837 -0.03243 0.18390
v -0.08220 -0.04970 0.15793
v -0.06991 -0.05166 0.18679
v -0.05380 -0.03634 0.24162
v 0.03578 0.02645 0.25597
v 0.02124 0.02536 0.21860
v 0.00007 0.00524 0.14654
v -0.00657 -0.01380 0.11185
v 0.00797 -0.01272 0.14923
v 0.02914 0.00741 0.22129
v 0.11572 0.07089 0.22880
v 0.10048 0.06824 0.18818
v 0.07735 0.04625 0.10945
v 0.06945 0.02691 0.07133
v 0.08469 0.02957 0.11195
v 0.10783 0.05156 0.19069
v 0.18854 0.11301 0.18159
v 0.17466 0.11075 0.14476
v 0.15369 0.09082 0.07339
v 0.14659 0.07315 0.03887
v 0.16047 0.07540 0.07571
v 0.18144 0.09534 0.14707
f 1 8 7
f 2 9 8
f 3 10 9
f 4 11 10
f 6 11 5
f 1 12 6
f 7 14 13
f 8 15 14
f 9 16 15
f 11 16 10
f 12 17 11
f 7 18 12
f 13 20 19
f 14 21 20
f 15 22 21
f 17 22 16
f 18 23 17
f 13 24 18
f 25 32 31
f 26 33 32
f 28 33 27
f 28 35 34
f 30 35 29
f 25 36 30
f 31 38 37
f 32 39 38
f 33 40 39
f 34 41 40
f 36 41 35
f 31 42 36
f 38 43 37
f 39 44 38
f 39 46 45
f 41 46 40
f 41 48 47
f 42 43 48
f 49 56 50
f 56 51 50
f 57 52 51
f 52 59 53
f 53 60 54
f 60 49 54
f 61 56 55
f 62 57 56
f 63 58 57
f 58 65 59
f 59 66 60
f 60 61 55
f 67 62 61
f 68 63 62
f 69 64 63
f 64 71 65
f 65 72 66
f 66 67 61
f 79 74 73
f 80 75 74
f 81 76 75
f 76 83 77
f 77 84 78
f 84 73 78
f 85 80 79
f 86 81 80
f 87 82 81
f 82 89 83
f 83 90 84
f 84 85 79
f 91 86 85
f 92 87 86
f 93 88 87
f 88 95 89
f 89 96 90
f 90 91 85
f 97 104 98
f 104 99 98
f 105 100 99
f 100 107 101
f 101 108 102
f 108 97 102
f 109 104 103
f 110 105 104
f 111 106 105
f 106 113 107
f 107 114 108
f 114 103 108
f 115 110 109
f 110 117 111
f 111 118 112
f 118 113 112
f 119 114 113
f 120 109 114
f 121 128 122
f 122 129 123
f 129 124 123
f 124 131 125
f 131 126 125
f 132 121 126
f 127 134 128
f 128 135 129
f 129 136 130
f 136 131 130
f 137 132 131
f 138 127 132
f 133 140 134
f 134 141 135
f 135 142 136
f 142 137 136
f 143 138 137
f 144 133 138
f 186 192 187
f 185 191 192
f 184 190 191
f 183 189 190
f 188 189 183
f 187 188 182
f 186 181 175
f 185 186 180
f 178 184 185
f 183 184 178
f 176 182 183
f 175 181 182
f 180 175 169
f 179 180 174
f 172 178 179
f 177 178 172
f 170 176 177
f 169 175 176
f 168 163 157
f 167 168 162
f 166 167 161
f 159 165 166
f 158 164 165
f 157 163 164
f 162 157 151
f 161 162 156
f 160 161 155
f 153 159 160
f 152 158 159
f 151 157 158
f 156 151 145
f 155 156 150
f 148 154 155
f 147 153 154
f 146 152 153
f 145 151 152
f 144 139 133
f 143 144 138
f 142 143 137
f 135 141 142
f 134 140 141
f 133 139 140
f 138 133 127
f 137 138 132
f 136 137 131
f 129 135 136
f 145 152 146
f 146 153 147
f 147 154 148
f 148 155 149
f 155 150 149
f 156 145 150
f 151 158 152
f 152 159 153
f 153 160 154
f 160 155 154
f 161 156 155
f 162 151 156
f 157 164 158
f 158 165 159
f 159 166 160
f 166 161 160
f 167 162 161
f 168 157 162
f 128 134 135
f 127 133 134
f 132 127 121
f 131 132 126
f 124 130 131
f 129 130 124
f 122 128 129
f 121 127 128
f 120 115 109
f 119 120 114
f 118 119 113
f 111 117 118
f 110 116 117
f 115 116 110
f 114 109 103
f 107 113 114
f 106 112 113
f 111 112 106
f 110 111 105
f 109 110 104
f 108 103 97
f 101 107 108
f 100 106 107
f 105 106 100
f 104 105 99
f 97 103 104
f 90 96 91
f 89 95 96
f 88 94 95
f 93 94 88
f 92 93 87
f 91 92 86
f 84 90 85
f 83 89 90
f 82 88 89
f 87 88 82
f 86 87 81
f 85 86 80
f 84 79 73
f 77 83 84
f 76 82 83
f 81 82 76
f 80 81 75
f 79 80 74
f 66 72 67
f 65 71 72
f 64 70 71
f 69 70 64
f 68 69 63
f 67 68 62
f 60 66 61
f 59 65 66
f 58 64 65
f 63 64 58
f 62 63 57
f 169 176 170
f 170 177 171
f 177 172 171
f 172 179 173
f 179 174 173
f 180 169 174
f 175 182 176
f 176 183 177
f 183 178 177
f 178 185 179
f 185 180 179
f 186 175 180
f 187 182 181
f 188 183 182
f 183 190 184
f 184 191 185
f 185 192 186
f 186 187 181
f 61 62 56
f 60 55 49
f 53 59 60
f 52 58 59
f 57 58 52
f 56 57 51
f 49 55 56
f 42 37 43
f 41 42 48
f 41 47 46
f 39 40 46
f 39 45 44
f 38 44 43
f 31 37 42
f 36 42 41
f 34 35 41
f 33 34 40
f 32 33 39
f 31 32 38
f 25 31 36
f 30 36 35
f 28 29 35
f 28 34 33
f 26 27 33
f 25 26 32
f 13 19 24
f 18 24 23
f 17 23 22
f 15 16 22
f 14 15 21
f 13 14 20
f 7 13 18
f 12 18 17
f 11 17 16
f 9 10 16
f 8 9 15
f 7 8 14
f 1 7 12
f 6 12 11
f 4 5 11
f 3 4 10
f 2 3 9
f 1 2 8
