# phoenix PrimariesRight_Gold.obj: Roblox cue frame, recentred on its bounding box
v 0.40706 -0.26426 -0.29610
v 0.39665 -0.25378 -0.29353
v 0.37184 -0.24189 -0.28703
v 0.35744 -0.24048 -0.28310
v 0.36785 -0.25096 -0.28567
v 0.39266 -0.26285 -0.29217
v 0.36363 -0.21594 -0.39212
v 0.35822 -0.20862 -0.39084
v 0.34397 -0.20180 -0.38711
v 0.33513 -0.20228 -0.38466
v 0.34054 -0.20959 -0.38594
v 0.35479 -0.21642 -0.38967
v 0.31289 -0.15997 -0.48635
v 0.31241 -0.15865 -0.48626
v 0.31065 -0.15781 -0.48580
v 0.30938 -0.15829 -0.48543
v 0.30986 -0.15962 -0.48553
v 0.31161 -0.16046 -0.48599
v 0.14981 -0.13560 -0.26602
v 0.14012 -0.12513 -0.26140
v 0.11676 -0.11326 -0.25080
v 0.10308 -0.11186 -0.24482
v 0.11277 -0.12233 -0.24944
v 0.13613 -0.13420 -0.26004
v 0.08670 -0.07514 -0.35419
v 0.08171 -0.06783 -0.35173
v 0.06829 -0.06101 -0.34564
v 0.05986 -0.06150 -0.34201
v 0.06486 -0.06881 -0.34447
v 0.07828 -0.07563 -0.35056
v 0.02543 -0.01121 -0.44300
v 0.02500 -0.00988 -0.44277
v 0.02335 -0.00904 -0.44202
v 0.02213 -0.00953 -0.44150
v 0.02255 -0.01085 -0.44174
v 0.02421 -0.01169 -0.44249
v -0.04240 -0.03185 -0.18310
v -0.05105 -0.02154 -0.17648
v -0.07232 -0.00999 -0.16189
v -0.08495 -0.00875 -0.15391
v -0.07631 -0.01906 -0.16053
v -0.05504 -0.03061 -0.17512
v -0.09569 0.02515 -0.27496
v -0.10009 0.03237 -0.27135
v -0.11231 0.03900 -0.26297
v -0.12013 0.03842 -0.25820
v -0.11574 0.03120 -0.26180
v -0.10352 0.02457 -0.27018
v -0.14084 0.08232 -0.37185
v -0.14119 0.08364 -0.37147
v -0.14269 0.08446 -0.37043
v -0.14385 0.08396 -0.36978
v -0.14349 0.08264 -0.37016
v -0.14199 0.08182 -0.37120
v -0.11287 0.00964 -0.12667
v -0.12021 0.01965 -0.11826
v -0.13889 0.03059 -0.10009
v -0.15022 0.03153 -0.09032
v -0.14288 0.02152 -0.09873
v -0.12420 0.01058 -0.11690
v -0.15513 0.06065 -0.22899
v -0.15877 0.06769 -0.22436
v -0.16950 0.07398 -0.21392
v -0.17658 0.07322 -0.20812
v -0.17293 0.06618 -0.21275
v -0.16221 0.05989 -0.22319
v -0.19235 0.11341 -0.33518
v -0.19262 0.11470 -0.33467
v -0.19394 0.11548 -0.33338
v -0.19500 0.11496 -0.33260
v -0.19474 0.11366 -0.33311
v -0.19341 0.11289 -0.33440
v -0.13388 0.02107 -0.09324
v -0.13978 0.03067 -0.08335
v -0.15559 0.04079 -0.06222
v -0.16549 0.04132 -0.05098
v -0.15958 0.03172 -0.06086
v -0.14377 0.02160 -0.08199
v -0.18696 0.07777 -0.18541
v -0.18979 0.08457 -0.17992
v -0.19886 0.09039 -0.16779
v -0.20512 0.08940 -0.16113
v -0.20230 0.08259 -0.16662
v -0.19322 0.07678 -0.17875
v -0.24203 0.14047 -0.27330
v -0.24219 0.14174 -0.27269
v -0.24331 0.14245 -0.27120
v -0.24427 0.14191 -0.27031
v -0.24411 0.14064 -0.27092
v -0.24299 0.13992 -0.27242
v -0.17983 0.04933 0.01028
v -0.18429 0.05846 0.02130
v -0.19720 0.06765 0.04471
v -0.20565 0.06772 0.05709
v -0.20119 0.05859 0.04607
v -0.18828 0.04940 0.02266
v -0.25496 0.12008 -0.04243
v -0.25695 0.12662 -0.03630
v -0.26437 0.13190 -0.02285
v -0.26979 0.13064 -0.01555
v -0.26780 0.12410 -0.02168
v -0.26039 0.11882 -0.03513
v -0.33443 0.19860 -0.08497
v -0.33449 0.19984 -0.08428
v -0.33541 0.20049 -0.08263
v -0.33626 0.19990 -0.08166
v -0.33620 0.19867 -0.08235
v -0.33529 0.19802 -0.08401
v -0.23407 0.09282 0.21836
v -0.23716 0.10147 0.23021
v -0.24733 0.10970 0.25526
v -0.25441 0.10928 0.26847
v -0.25132 0.10063 0.25662
v -0.24115 0.09240 0.23157
v -0.31921 0.17144 0.20505
v -0.32042 0.17771 0.21166
v -0.32626 0.18244 0.22605
v -0.33090 0.18090 0.23383
v -0.32969 0.17464 0.22722
v -0.32385 0.16991 0.21283
v -0.40558 0.25564 0.19791
v -0.40554 0.25684 0.19866
v -0.40626 0.25742 0.20043
v -0.40702 0.25681 0.20145
v -0.40706 0.25561 0.20070
v -0.40634 0.25503 0.19893
v -0.24053 0.11313 0.43396
v -0.24239 0.12132 0.44638
v -0.25008 0.12864 0.47257
v -0.25593 0.12776 0.48635
v -0.25407 0.11957 0.47393
v -0.24638 0.11225 0.44774
v -0.31831 0.18664 0.42899
v -0.31880 0.19264 0.43592
v -0.32322 0.19684 0.45097
v -0.32715 0.19504 0.45908
v -0.32665 0.18904 0.45214
v -0.32223 0.18484 0.43709
v -0.39396 0.26258 0.42100
v -0.39383 0.26374 0.42179
v -0.39437 0.26426 0.42364
v -0.39505 0.26361 0.42471
v -0.39517 0.26245 0.42392
v -0.39463 0.26193 0.42206
f 2 7 1
f 3 8 2
f 3 10 9
f 4 11 10
f 5 12 11
f 6 7 12
f 8 13 7
f 9 14 8
f 9 16 15
f 10 17 16
f 11 18 17
f 12 13 18
f 25 20 19
f 26 21 20
f 27 22 21
f 22 29 23
f 23 30 24
f 24 25 19
f 31 26 25
f 32 27 26
f 27 34 28
f 28 35 29
f 29 36 30
f 30 31 25
f 43 38 37
f 44 39 38
f 39 46 40
f 40 47 41
f 41 48 42
f 48 37 42
f 49 44 43
f 44 51 45
f 45 52 46
f 46 53 47
f 53 48 47
f 54 43 48
f 55 62 61
f 56 63 62
f 57 64 63
f 59 64 58
f 60 65 59
f 55 66 60
f 62 67 61
f 62 69 68
f 63 70 69
f 65 70 64
f 66 71 65
f 61 72 66
f 73 80 74
f 74 81 75
f 75 82 76
f 82 77 76
f 83 78 77
f 84 73 78
f 85 80 79
f 80 87 81
f 81 88 82
f 88 83 82
f 89 84 83
f 90 79 84
f 97 92 91
f 98 93 92
f 93 100 94
f 94 101 95
f 95 102 96
f 102 91 96
f 103 98 97
f 104 99 98
f 99 106 100
f 100 107 101
f 101 108 102
f 108 97 102
f 144 139 133
f 137 143 144
f 136 142 143
f 135 141 142
f 140 141 135
f 139 140 134
f 132 138 133
f 131 137 138
f 130 136 137
f 129 135 136
f 134 135 129
f 133 134 128
f 120 126 121
f 119 125 126
f 118 124 125
f 117 123 124
f 122 123 117
f 121 122 116
f 114 120 115
f 113 119 120
f 112 118 119
f 117 118 112
f 116 117 111
f 115 116 110
f 108 103 97
f 101 107 108
f 100 106 107
f 99 105 106
f 104 105 99
f 103 104 98
f 102 97 91
f 95 101 102
f 94 100 101
f 93 99 100
f 115 110 109
f 116 111 110
f 117 112 111
f 112 119 113
f 113 120 114
f 114 115 109
f 121 116 115
f 122 117 116
f 117 124 118
f 118 125 119
f 119 126 120
f 120 121 115
f 98 99 93
f 97 98 92
f 90 85 79
f 89 90 84
f 88 89 83
f 81 87 88
f 80 86 87
f 85 86 80
f 84 79 73
f 83 84 78
f 82 83 77
f 75 81 82
f 74 80 81
f 73 79 80
f 61 67 72
f 66 72 71
f 65 71 70
f 63 64 70
f 62 63 69
f 62 68 67
f 55 61 66
f 60 66 65
f 59 65 64
f 57 58 64
f 56 57 63
f 55 56 62
f 54 49 43
f 53 54 48
f 46 52 53
f 45 51 52
f 44 50 51
f 49 50 44
f 48 43 37
f 41 47 48
f 40 46 47
f 39 45 46
f 44 45 39
f 43 44 38
f 30 36 31
f 29 35 36
f 28 34 35
f 27 33 34
f 32 33 27
f 31 32 26
f 24 30 25
f 23 29 30
f 22 28 29
f 27 28 22
f 26 27 21
f 25 26 20
f 12 7 13
f 11 12 18
f 10 11 17
f 9 10 16
f 9 15 14
f 8 14 13
f 6 1 7
f 5 6 12
f 4 5 11
f 3 4 10
f 3 9 8
f 133 128 127
f 134 129 128
f 129 136 130
f 130 137 131
f 131 138 132
f 132 133 127
f 139 134 133
f 140 135 134
f 135 142 136
f 136 143 137
f 137 144 138
f 144 133 138
f 2 8 7
