# phoenix PrimariesLeft_Crimson.obj: Roblox cue frame, recentred on its bounding box
v -0.09111 -0.03472 0.10737
v -0.09765 -0.02468 0.10528
v -0.10116 -0.02636 0.10436
v -0.09813 -0.03809 0.10553
v -0.09159 -0.04813 0.10762
v -0.08808 -0.04644 0.10854
v -0.03749 -0.02288 0.01520
v -0.05601 -0.01934 0.00999
v -0.08403 -0.03277 0.00265
v -0.09352 -0.04973 0.00052
v -0.07501 -0.05327 0.00573
v -0.04699 -0.03984 0.01307
v 0.01881 -0.00561 -0.07638
v -0.01138 -0.00844 -0.08463
v -0.06331 -0.03333 -0.09823
v -0.08505 -0.05539 -0.10359
v -0.05485 -0.05256 -0.09535
v -0.00292 -0.02767 -0.08174
v -0.09131 -0.03472 0.10795
v -0.09776 -0.02468 0.10557
v -0.10106 -0.02636 0.10407
v -0.09793 -0.03808 0.10495
v -0.09149 -0.04812 0.10733
v -0.08818 -0.04645 0.10883
v -0.01645 -0.01229 0.02333
v -0.03415 -0.00875 0.01581
v -0.06054 -0.02215 0.00384
v -0.06922 -0.03910 -0.00061
v -0.05152 -0.04264 0.00691
v -0.02514 -0.02924 0.01888
v 0.05667 0.01366 -0.06189
v 0.02799 0.01085 -0.07443
v -0.02092 -0.01400 -0.09662
v -0.04114 -0.03603 -0.10627
v -0.01246 -0.03322 -0.09373
v 0.03644 -0.00838 -0.07155
v -0.09161 -0.03477 0.10851
v -0.09790 -0.02470 0.10585
v -0.10091 -0.02634 0.10378
v -0.09763 -0.03804 0.10438
v -0.09134 -0.04810 0.10705
v -0.08833 -0.04647 0.10911
v -0.00722 -0.00680 0.03236
v -0.02374 -0.00308 0.02258
v -0.04776 -0.01612 0.00610
v -0.05527 -0.03289 -0.00060
v -0.03875 -0.03662 0.00918
v -0.01472 -0.02357 0.02566
v 0.07093 0.02236 -0.04752
v 0.04443 0.01988 -0.06423
v -0.00010 -0.00430 -0.09478
v -0.01814 -0.02600 -0.10861
v 0.00835 -0.02352 -0.09190
v 0.05289 0.00066 -0.06135
v -0.09198 -0.03485 0.10902
v -0.09809 -0.02475 0.10610
v -0.10073 -0.02630 0.10353
v -0.09726 -0.03795 0.10388
v -0.09115 -0.04806 0.10679
v -0.08851 -0.04651 0.10937
v -0.00617 -0.00538 0.03866
v -0.02123 -0.00131 0.02686
v -0.04233 -0.01368 0.00633
v -0.04837 -0.03010 -0.00239
v -0.03331 -0.03417 0.00941
v -0.01221 -0.02181 0.02993
v 0.07390 0.02544 -0.03624
v 0.05012 0.02360 -0.05670
v 0.01102 0.00068 -0.09475
v -0.00430 -0.02038 -0.11233
v 0.01948 -0.01854 -0.09186
v 0.05858 0.00437 -0.05382
v -0.09238 -0.03497 0.10944
v -0.09829 -0.02481 0.10631
v -0.10053 -0.02624 0.10332
v -0.09686 -0.03784 0.10346
v -0.09095 -0.04800 0.10659
v -0.08871 -0.04657 0.10958
v -0.00368 -0.00281 0.04869
v -0.01712 0.00172 0.03522
v -0.03497 -0.00971 0.01136
v -0.03939 -0.02568 0.00096
v -0.02595 -0.03021 0.01443
v -0.00810 -0.01877 0.03830
v 0.08330 0.03299 -0.01273
v 0.06253 0.03200 -0.03629
v 0.02943 0.01081 -0.08052
v 0.01712 -0.00940 -0.10120
v 0.03789 -0.00842 -0.07764
v 0.07099 0.01278 -0.03341
v -0.09279 -0.03510 0.10976
v -0.09849 -0.02487 0.10647
v -0.10032 -0.02617 0.10316
v -0.09645 -0.03770 0.10314
v -0.09075 -0.04794 0.10642
v -0.08892 -0.04663 0.10974
v 0.00187 0.00266 0.06933
v -0.00993 0.00771 0.05457
v -0.02451 -0.00267 0.02814
v -0.02729 -0.01810 0.01646
v -0.01549 -0.02316 0.03121
v -0.00091 -0.01278 0.05765
v 0.09726 0.04562 0.03252
v 0.07952 0.04561 0.00658
v 0.05249 0.02637 -0.04241
v 0.04321 0.00714 -0.06547
v 0.06095 0.00715 -0.03953
v 0.08798 0.02639 0.00946
v -0.09318 -0.03524 0.10999
v -0.09869 -0.02494 0.10659
v -0.10013 -0.02610 0.10304
v -0.09606 -0.03757 0.10290
v -0.09055 -0.04787 0.10631
v -0.08911 -0.04670 0.10985
v 0.00406 0.00734 0.09492
v -0.00619 0.01294 0.07923
v -0.01768 0.00364 0.05094
v -0.01892 -0.01126 0.03833
v -0.00867 -0.01685 0.05401
v 0.00282 -0.00756 0.08231
v 0.10116 0.05439 0.08266
v 0.08629 0.05539 0.05500
v 0.06499 0.03815 0.00255
v 0.05857 0.01992 -0.02223
v 0.07345 0.01893 0.00543
v 0.09474 0.03616 0.05788
v -0.09353 -0.03537 0.11016
v -0.09886 -0.02500 0.10667
v -0.09995 -0.02604 0.10296
v -0.09571 -0.03744 0.10274
v -0.09038 -0.04780 0.10623
v -0.08929 -0.04677 0.10993
v -0.00124 0.00747 0.11233
v -0.01010 0.01359 0.09600
v -0.01879 0.00532 0.06641
v -0.01863 -0.00905 0.05316
v -0.00977 -0.01517 0.06949
v -0.00108 -0.00691 0.09907
v 0.08914 0.05294 0.11222
v 0.07685 0.05490 0.08336
v 0.06074 0.03958 0.02852
v 0.05691 0.02231 0.00255
v 0.06919 0.02036 0.03141
v 0.08531 0.03567 0.08624
f 1 8 7
f 2 9 8
f 4 9 3
f 4 11 10
f 6 11 5
f 1 12 6
f 7 14 13
f 8 15 14
f 10 15 9
f 10 17 16
f 12 17 11
f 7 18 12
f 3 2 1
f 19 26 25
f 20 27 26
f 22 27 21
f 22 29 28
f 24 29 23
f 19 30 24
f 25 32 31
f 26 33 32
f 28 33 27
f 28 35 34
f 30 35 29
f 25 36 30
f 21 20 19
f 37 44 38
f 38 45 39
f 45 40 39
f 40 47 41
f 47 42 41
f 48 37 42
f 43 50 44
f 44 51 45
f 51 46 45
f 46 53 47
f 53 48 47
f 54 43 48
f 40 41 37
f 55 62 56
f 62 57 56
f 63 58 57
f 58 65 59
f 59 66 60
f 66 55 60
f 61 68 62
f 68 63 62
f 69 64 63
f 64 71 65
f 65 72 66
f 72 61 66
f 58 59 55
f 73 80 74
f 80 75 74
f 81 76 75
f 76 83 77
f 77 84 78
f 84 73 78
f 79 86 80
f 86 81 80
f 87 82 81
f 82 89 83
f 83 90 84
f 90 79 84
f 76 77 73
f 91 98 92
f 98 93 92
f 99 94 93
f 94 101 95
f 95 102 96
f 102 91 96
f 97 104 98
f 104 99 98
f 105 100 99
f 100 107 101
f 101 108 102
f 108 97 102
f 94 95 91
f 109 116 110
f 110 117 111
f 117 112 111
f 112 119 113
f 119 114 113
f 120 109 114
f 115 122 116
f 116 123 117
f 123 118 117
f 118 125 119
f 125 120 119
f 126 115 120
f 129 130 127
f 127 128 129
f 131 132 127
f 144 139 133
f 143 144 138
f 136 142 143
f 141 142 136
f 134 140 141
f 133 139 140
f 138 133 127
f 137 138 132
f 130 136 137
f 135 136 130
f 128 134 135
f 127 133 134
f 111 112 109
f 109 110 111
f 113 114 109
f 126 121 115
f 125 126 120
f 118 124 125
f 123 124 118
f 116 122 123
f 115 121 122
f 120 115 109
f 119 120 114
f 112 118 119
f 117 118 112
f 110 116 117
f 109 115 116
f 93 94 91
f 91 92 93
f 95 96 91
f 108 103 97
f 101 107 108
f 100 106 107
f 105 106 100
f 104 105 99
f 97 103 104
f 102 97 91
f 95 101 102
f 94 100 101
f 99 100 94
f 98 99 93
f 91 97 98
f 75 76 73
f 73 74 75
f 77 78 73
f 90 85 79
f 83 89 90
f 82 88 89
f 87 88 82
f 86 87 81
f 79 85 86
f 84 79 73
f 77 83 84
f 76 82 83
f 81 82 76
f 80 81 75
f 73 79 80
f 112 113 109
f 127 134 128
f 128 135 129
f 135 130 129
f 130 137 131
f 137 132 131
f 138 127 132
f 133 140 134
f 134 141 135
f 141 136 135
f 136 143 137
f 143 138 137
f 144 133 138
f 57 58 55
f 55 56 57
f 59 60 55
f 72 67 61
f 65 71 72
f 64 70 71
f 69 70 64
f 68 69 63
f 61 67 68
f 66 61 55
f 59 65 66
f 58 64 65
f 63 64 58
f 62 63 57
f 55 61 62
f 39 40 37
f 37 38 39
f 41 42 37
f 54 49 43
f 53 54 48
f 46 52 53
f 51 52 46
f 44 50 51
f 43 49 50
f 48 43 37
f 47 48 42
f 40 46 47
f 45 46 40
f 38 44 45
f 37 43 44
f 22 21 19
f 23 22 19
f 19 24 23
f 25 31 36
f 30 36 35
f 28 29 35
f 28 34 33
f 26 27 33
f 25 26 32
f 19 25 30
f 24 30 29
f 22 23 29
f 22 28 27
f 20 21 27
f 19 20 26
f 4 3 1
f 5 4 1
f 1 6 5
f 7 13 18
f 12 18 17
f 10 11 17
f 10 16 15
f 8 9 15
f 7 8 14
f 1 7 12
f 6 12 11
f 4 5 11
f 4 10 9
f 2 3 9
f 1 2 8
f 130 131 127
