# phoenix PrimariesRight_Crimson.obj: Roblox cue frame, recentred on its bounding box
v 0.10071 -0.03069 0.11250
v 0.10374 -0.01897 0.11132
v 0.10023 -0.01729 0.11224
v 0.09369 -0.02733 0.11434
v 0.09065 -0.03905 0.11551
v 0.09416 -0.04073 0.11459
v 0.10123 -0.04480 0.00615
v 0.09174 -0.02784 0.00828
v 0.06372 -0.01441 0.01562
v 0.04520 -0.01795 0.02082
v 0.05470 -0.03491 0.01869
v 0.08272 -0.04834 0.01135
v 0.10746 -0.05750 -0.10182
v 0.08572 -0.03545 -0.09646
v 0.03379 -0.01056 -0.08285
v 0.00360 -0.00772 -0.07461
v 0.02533 -0.02978 -0.07997
v 0.07726 -0.05467 -0.09357
v 0.10050 -0.03069 0.11192
v 0.10364 -0.01897 0.11103
v 0.10033 -0.01729 0.11253
v 0.09389 -0.02733 0.11492
v 0.09076 -0.03905 0.11580
v 0.09406 -0.04073 0.11430
v 0.09104 -0.04148 -0.00237
v 0.08235 -0.02453 0.00208
v 0.05597 -0.01113 0.01405
v 0.03827 -0.01467 0.02157
v 0.04695 -0.03162 0.01712
v 0.07334 -0.04503 0.00515
v 0.08299 -0.04860 -0.11712
v 0.06277 -0.02656 -0.10747
v 0.01387 -0.00172 -0.08528
v -0.01481 0.00110 -0.07275
v 0.00541 -0.02094 -0.08240
v 0.05431 -0.04579 -0.10459
v 0.10021 -0.03065 0.11135
v 0.10349 -0.01895 0.11075
v 0.10048 -0.01731 0.11282
v 0.09419 -0.02738 0.11548
v 0.09090 -0.03908 0.11608
v 0.09391 -0.04071 0.11402
v 0.06945 -0.03180 -0.00159
v 0.06195 -0.01503 0.00511
v 0.03792 -0.00199 0.02159
v 0.02140 -0.00571 0.03137
v 0.02890 -0.02248 0.02466
v 0.05293 -0.03553 0.00818
v 0.03571 -0.02674 -0.11193
v 0.01767 -0.00504 -0.09809
v -0.02687 0.01914 -0.06755
v -0.05337 0.02161 -0.05083
v -0.03533 -0.00009 -0.06466
v 0.00921 -0.02426 -0.09521
v 0.09984 -0.03056 0.11084
v 0.10331 -0.01890 0.11050
v 0.10066 -0.01736 0.11307
v 0.09455 -0.02746 0.11599
v 0.09109 -0.03912 0.11633
v 0.09373 -0.04067 0.11376
v 0.04427 -0.01880 0.01107
v 0.03823 -0.00237 0.01979
v 0.01714 0.00999 0.04032
v 0.00208 0.00592 0.05211
v 0.00812 -0.01051 0.04339
v 0.02921 -0.02287 0.02287
v -0.01374 -0.00091 -0.08530
v -0.02906 0.02016 -0.06772
v -0.06816 0.04307 -0.02968
v -0.09194 0.04491 -0.00921
v -0.07662 0.02384 -0.02679
v -0.03752 0.00093 -0.06484
v 0.09943 -0.03044 0.11043
v 0.10310 -0.01885 0.11029
v 0.10087 -0.01741 0.11328
v 0.09496 -0.02758 0.11641
v 0.09129 -0.03918 0.11654
v 0.09353 -0.04061 0.11355
v 0.02831 -0.00954 0.02618
v 0.02390 0.00642 0.03657
v 0.00604 0.01786 0.06044
v -0.00739 0.01333 0.07391
v -0.00298 -0.00264 0.06351
v 0.01488 -0.01407 0.03965
v -0.04127 0.01511 -0.05850
v -0.05359 0.03532 -0.03783
v -0.08668 0.05652 0.00641
v -0.10746 0.05750 0.02997
v -0.09514 0.03729 0.00929
v -0.06205 0.01610 -0.03494
v 0.09902 -0.03031 0.11010
v 0.10290 -0.01878 0.11013
v 0.10107 -0.01748 0.11344
v 0.09537 -0.02771 0.11673
v 0.09150 -0.03924 0.11670
v 0.09332 -0.04054 0.11339
v 0.02449 -0.00689 0.03317
v 0.02171 0.00855 0.04485
v 0.00713 0.01893 0.07128
v -0.00467 0.01387 0.08604
v -0.00189 -0.00156 0.07436
v 0.01269 -0.01194 0.04793
v -0.04617 0.01847 -0.04846
v -0.05546 0.03771 -0.02540
v -0.08249 0.05695 0.02359
v -0.10023 0.05696 0.04953
v -0.09094 0.03772 0.02648
v -0.06392 0.01848 -0.02252
v 0.09864 -0.03018 0.10987
v 0.10270 -0.01871 0.11001
v 0.10126 -0.01755 0.11356
v 0.09576 -0.02785 0.11696
v 0.09169 -0.03931 0.11682
v 0.09313 -0.04048 0.11328
v 0.02590 -0.00743 0.03446
v 0.02466 0.00747 0.04707
v 0.01317 0.01677 0.07536
v 0.00292 0.01117 0.09104
v 0.00415 -0.00373 0.07843
v 0.01564 -0.01303 0.05014
v -0.04400 0.01761 -0.04480
v -0.05042 0.03584 -0.02002
v -0.07172 0.05307 0.03243
v -0.08660 0.05208 0.06010
v -0.08018 0.03385 0.03532
v -0.05888 0.01661 -0.01713
v 0.09829 -0.03005 0.10971
v 0.10253 -0.01865 0.10993
v 0.10144 -0.01761 0.11364
v 0.09611 -0.02798 0.11712
v 0.09186 -0.03938 0.11690
v 0.09295 -0.04041 0.11319
v 0.02682 -0.00700 0.04101
v 0.02698 0.00738 0.05427
v 0.01829 0.01564 0.08385
v 0.00943 0.00952 0.10018
v 0.00927 -0.00485 0.08693
v 0.01797 -0.01312 0.05734
v -0.04379 0.01969 -0.02634
v -0.04762 0.03696 -0.00037
v -0.06374 0.05227 0.05447
v -0.07602 0.05032 0.08333
v -0.07220 0.03305 0.05735
v -0.05608 0.01773 0.00252
f 1 8 7
f 2 9 8
f 4 9 3
f 4 11 10
f 6 11 5
f 1 12 6
f 7 14 13
f 8 15 14
f 10 15 9
f 10 17 16
f 12 17 11
f 7 18 12
f 3 2 1
f 19 26 20
f 20 27 21
f 27 22 21
f 22 29 23
f 29 24 23
f 30 19 24
f 25 32 26
f 26 33 27
f 33 28 27
f 28 35 29
f 35 30 29
f 36 25 30
f 22 23 19
f 37 44 38
f 38 45 39
f 45 40 39
f 40 47 41
f 47 42 41
f 48 37 42
f 43 50 44
f 44 51 45
f 51 46 45
f 46 53 47
f 53 48 47
f 54 43 48
f 40 41 37
f 55 62 61
f 57 62 56
f 58 63 57
f 58 65 64
f 59 66 65
f 55 66 60
f 61 68 67
f 63 68 62
f 64 69 63
f 64 71 70
f 65 72 71
f 61 72 66
f 57 56 55
f 73 80 74
f 80 75 74
f 81 76 75
f 76 83 77
f 77 84 78
f 84 73 78
f 79 86 80
f 86 81 80
f 87 82 81
f 82 89 83
f 83 90 84
f 90 79 84
f 76 77 73
f 91 98 92
f 98 93 92
f 99 94 93
f 94 101 95
f 95 102 96
f 102 91 96
f 97 104 98
f 104 99 98
f 105 100 99
f 100 107 101
f 101 108 102
f 108 97 102
f 94 95 91
f 109 116 110
f 110 117 111
f 117 112 111
f 112 119 113
f 119 114 113
f 120 109 114
f 115 122 116
f 116 123 117
f 123 118 117
f 118 125 119
f 125 120 119
f 126 115 120
f 129 130 127
f 127 128 129
f 131 132 127
f 144 139 133
f 143 144 138
f 136 142 143
f 141 142 136
f 134 140 141
f 133 139 140
f 138 133 127
f 137 138 132
f 130 136 137
f 135 136 130
f 128 134 135
f 127 133 134
f 111 112 109
f 109 110 111
f 113 114 109
f 126 121 115
f 125 126 120
f 118 124 125
f 123 124 118
f 116 122 123
f 115 121 122
f 120 115 109
f 119 120 114
f 112 118 119
f 117 118 112
f 110 116 117
f 109 115 116
f 93 94 91
f 91 92 93
f 95 96 91
f 108 103 97
f 101 107 108
f 100 106 107
f 105 106 100
f 104 105 99
f 97 103 104
f 102 97 91
f 95 101 102
f 94 100 101
f 99 100 94
f 98 99 93
f 91 97 98
f 75 76 73
f 73 74 75
f 77 78 73
f 90 85 79
f 83 89 90
f 82 88 89
f 87 88 82
f 86 87 81
f 79 85 86
f 84 79 73
f 77 83 84
f 76 82 83
f 81 82 76
f 80 81 75
f 73 79 80
f 112 113 109
f 127 134 128
f 128 135 129
f 135 130 129
f 130 137 131
f 137 132 131
f 138 127 132
f 133 140 134
f 134 141 135
f 141 136 135
f 136 143 137
f 143 138 137
f 144 133 138
f 58 57 55
f 59 58 55
f 55 60 59
f 61 67 72
f 65 66 72
f 64 65 71
f 64 70 69
f 63 69 68
f 61 62 68
f 55 61 66
f 59 60 66
f 58 59 65
f 58 64 63
f 57 63 62
f 55 56 62
f 39 40 37
f 37 38 39
f 41 42 37
f 54 49 43
f 53 54 48
f 46 52 53
f 51 52 46
f 44 50 51
f 43 49 50
f 48 43 37
f 47 48 42
f 40 46 47
f 45 46 40
f 38 44 45
f 37 43 44
f 21 22 19
f 19 20 21
f 23 24 19
f 36 31 25
f 35 36 30
f 28 34 35
f 33 34 28
f 26 32 33
f 25 31 32
f 30 25 19
f 29 30 24
f 22 28 29
f 27 28 22
f 20 26 27
f 19 25 26
f 4 3 1
f 5 4 1
f 1 6 5
f 7 13 18
f 12 18 17
f 10 11 17
f 10 16 15
f 8 9 15
f 7 8 14
f 1 7 12
f 6 12 11
f 4 5 11
f 4 10 9
f 2 3 9
f 1 2 8
f 130 131 127
