# phoenix PrimariesRight_Ember.obj: Roblox cue frame, recentred on its bounding box
v 0.22565 -0.11566 0.07303
v 0.20391 -0.09361 0.07839
v 0.15198 -0.06872 0.09199
v 0.12179 -0.06588 0.10024
v 0.14352 -0.08794 0.09488
v 0.19545 -0.11283 0.08127
v 0.22954 -0.12311 -0.03444
v 0.19937 -0.09778 -0.02685
v 0.13113 -0.06507 -0.00897
v 0.09306 -0.05770 0.00131
v 0.12323 -0.08303 -0.00628
v 0.19147 -0.11573 -0.02416
v 0.22715 -0.12341 -0.14038
v 0.19354 -0.09720 -0.13187
v 0.11897 -0.06146 -0.11234
v 0.07802 -0.05193 -0.10132
v 0.11163 -0.07815 -0.10983
v 0.18619 -0.11388 -0.12937
v 0.21318 -0.11402 -0.24341
v 0.18278 -0.09012 -0.23572
v 0.11520 -0.05773 -0.21801
v 0.07801 -0.04924 -0.20800
v 0.10841 -0.07314 -0.21570
v 0.17599 -0.10553 -0.23340
v 0.20118 -0.10676 0.05772
v 0.18096 -0.08472 0.06738
v 0.13206 -0.05987 0.08956
v 0.10338 -0.05706 0.10210
v 0.12360 -0.07910 0.09245
v 0.17250 -0.10394 0.07026
v 0.18596 -0.10582 -0.05359
v 0.15778 -0.08052 -0.04036
v 0.09351 -0.04787 -0.01120
v 0.05743 -0.04052 0.00472
v 0.08561 -0.06582 -0.00851
v 0.14988 -0.09847 -0.03767
v 0.15942 -0.09474 -0.15960
v 0.12798 -0.06856 -0.14492
v 0.05777 -0.03288 -0.11306
v 0.01899 -0.02339 -0.09588
v 0.05042 -0.04957 -0.11056
v 0.12064 -0.08524 -0.14242
v 0.11692 -0.07114 -0.25818
v 0.08849 -0.04727 -0.24490
v 0.02484 -0.01493 -0.21602
v -0.01037 -0.00647 -0.20043
v 0.01806 -0.03035 -0.21371
v 0.08170 -0.06268 -0.24258
v 0.15390 -0.08490 0.06292
v 0.13586 -0.06320 0.07675
v 0.09132 -0.03902 0.10730
v 0.06483 -0.03654 0.12402
v 0.08286 -0.05825 0.11019
v 0.12740 -0.08242 0.07964
v 0.11039 -0.06995 -0.04015
v 0.08507 -0.04508 -0.02143
v 0.02655 -0.01331 0.01872
v -0.00666 -0.00640 0.04014
v 0.01865 -0.03126 0.02141
v 0.07717 -0.06304 -0.01873
v 0.05493 -0.04391 -0.13446
v 0.02662 -0.01821 -0.11378
v -0.03732 0.01650 -0.06992
v -0.07297 0.02552 -0.04674
v -0.04466 -0.00018 -0.06742
v 0.01928 -0.03490 -0.11128
v -0.01480 -0.00554 -0.21843
v -0.04039 0.01790 -0.19970
v -0.09834 0.04936 -0.15995
v -0.13072 0.05739 -0.13892
v -0.10513 0.03395 -0.15764
v -0.04717 0.00248 -0.19739
v 0.10445 -0.05907 0.08955
v 0.08913 -0.03800 0.10713
v 0.05003 -0.01509 0.14517
v 0.02625 -0.01325 0.16563
v 0.04157 -0.03431 0.14805
v 0.08067 -0.05723 0.11001
v 0.03978 -0.03257 0.00070
v 0.01804 -0.00854 0.02435
v -0.03334 0.02157 0.07435
v -0.06299 0.02765 0.10069
v -0.04124 0.00361 0.07704
v 0.01014 -0.02649 0.02705
v -0.03189 0.00274 -0.08028
v -0.05629 0.02753 -0.05422
v -0.11244 0.06043 0.00040
v -0.14418 0.06853 0.02896
v -0.11978 0.04374 0.00290
v -0.06364 0.01084 -0.05172
v -0.11137 0.04732 -0.15264
v -0.13342 0.06994 -0.12904
v -0.18431 0.09976 -0.07954
v -0.21314 0.10696 -0.05362
v -0.19109 0.08434 -0.07722
v -0.14020 0.05452 -0.12673
v 0.07692 -0.04305 0.11635
v 0.06460 -0.02284 0.13702
v 0.03151 -0.00164 0.18126
v 0.01073 -0.00066 0.20482
v 0.02305 -0.02087 0.18414
v 0.05614 -0.04206 0.13990
v 0.00577 -0.01266 0.03538
v -0.01203 0.01025 0.06310
v -0.05552 0.03810 0.12123
v -0.08121 0.04305 0.15164
v -0.06342 0.02015 0.12392
v -0.01993 -0.00771 0.06579
v -0.06727 0.02368 -0.04145
v -0.08736 0.04724 -0.01094
v -0.13488 0.07767 0.05257
v -0.16231 0.08455 0.08558
v -0.14222 0.06099 0.05507
v -0.09470 0.03055 -0.00844
v -0.14341 0.06673 -0.11252
v -0.16155 0.08823 -0.08489
v -0.20462 0.11582 -0.02732
v -0.22954 0.12190 0.00262
v -0.21140 0.10040 -0.02501
v -0.16833 0.07282 -0.08258
v 0.07202 -0.03968 0.12639
v 0.06273 -0.02045 0.14944
v 0.03570 -0.00121 0.19844
v 0.01796 -0.00120 0.22438
v 0.02725 -0.02043 0.20132
v 0.05427 -0.03968 0.15233
v 0.00186 -0.00999 0.04616
v -0.01195 0.01163 0.07700
v -0.04747 0.03691 0.14139
v -0.06918 0.04058 0.17493
v -0.05537 0.01896 0.14408
v -0.01985 -0.00633 0.07970
v -0.06914 0.02499 -0.03024
v -0.08488 0.04714 0.00368
v -0.12368 0.07477 0.07403
v -0.14676 0.08024 0.11046
v -0.13103 0.05808 0.07653
v -0.09222 0.03046 0.00618
v -0.14318 0.06682 -0.09882
v -0.15738 0.08705 -0.06809
v -0.19255 0.11209 -0.00433
v -0.21353 0.11690 0.02871
v -0.19934 0.09667 -0.00202
v -0.16416 0.07163 -0.06578
v 0.07419 -0.04055 0.13005
v 0.06777 -0.02232 0.15483
v 0.04647 -0.00509 0.20728
v 0.03159 -0.00608 0.23494
v 0.03801 -0.02431 0.21016
v 0.05931 -0.04155 0.15772
v 0.00364 -0.01041 0.05555
v -0.00640 0.00989 0.08867
v -0.03439 0.03254 0.15759
v -0.05233 0.03489 0.19339
v -0.04229 0.01459 0.16028
v -0.01430 -0.00806 0.09136
v -0.06931 0.02626 -0.00987
v -0.08093 0.04698 0.02653
v -0.11151 0.07173 0.10184
v -0.13047 0.07576 0.14074
v -0.11885 0.05504 0.10434
v -0.08827 0.03029 0.02904
v -0.14688 0.07125 -0.06077
v -0.15735 0.09018 -0.02780
v -0.18506 0.11261 0.04045
v -0.20231 0.11612 0.07573
v -0.19184 0.09719 0.04276
v -0.16413 0.07476 -0.02549
v 0.07440 -0.03847 0.14851
v 0.07057 -0.02120 0.17448
v 0.05445 -0.00589 0.22932
v 0.04217 -0.00784 0.25818
v 0.04599 -0.02511 0.23220
v 0.06211 -0.04043 0.17737
v 0.00191 -0.00556 0.09173
v -0.00473 0.01348 0.12641
v -0.02590 0.03360 0.19847
v -0.04044 0.03469 0.23585
v -0.03380 0.01565 0.20117
v -0.01263 -0.00448 0.12910
v -0.07362 0.03469 0.04955
v -0.08152 0.05403 0.08767
v -0.10466 0.07602 0.16640
v -0.11990 0.07867 0.20702
v -0.11200 0.05933 0.16891
v -0.08886 0.03734 0.09017
v -0.15353 0.08355 0.02647
v -0.16062 0.10122 0.06100
v -0.18159 0.12115 0.13236
v -0.19547 0.12341 0.16920
v -0.18837 0.10573 0.13468
v -0.16740 0.08580 0.06331
f 1 8 7
f 2 9 8
f 3 10 9
f 4 11 10
f 6 11 5
f 1 12 6
f 7 14 13
f 8 15 14
f 9 16 15
f 11 16 10
f 12 17 11
f 7 18 12
f 13 20 19
f 14 21 20
f 15 22 21
f 17 22 16
f 18 23 17
f 13 24 18
f 25 32 26
f 26 33 27
f 33 28 27
f 28 35 29
f 35 30 29
f 36 25 30
f 31 38 32
f 32 39 33
f 33 40 34
f 34 41 35
f 41 36 35
f 42 31 36
f 43 38 37
f 44 39 38
f 39 46 40
f 46 41 40
f 41 48 42
f 42 43 37
f 49 56 50
f 56 51 50
f 57 52 51
f 52 59 53
f 53 60 54
f 60 49 54
f 61 56 55
f 62 57 56
f 63 58 57
f 58 65 59
f 59 66 60
f 60 61 55
f 67 62 61
f 68 63 62
f 69 64 63
f 64 71 65
f 65 72 66
f 66 67 61
f 74 79 73
f 75 80 74
f 76 81 75
f 76 83 82
f 77 84 83
f 73 84 78
f 80 85 79
f 81 86 80
f 82 87 81
f 82 89 88
f 83 90 89
f 84 85 90
f 86 91 85
f 87 92 86
f 88 93 87
f 88 95 94
f 89 96 95
f 90 91 96
f 97 104 98
f 104 99 98
f 105 100 99
f 100 107 101
f 101 108 102
f 108 97 102
f 109 104 103
f 110 105 104
f 111 106 105
f 106 113 107
f 107 114 108
f 114 103 108
f 115 110 109
f 110 117 111
f 111 118 112
f 118 113 112
f 119 114 113
f 120 109 114
f 121 128 122
f 122 129 123
f 129 124 123
f 124 131 125
f 131 126 125
f 132 121 126
f 127 134 128
f 128 135 129
f 129 136 130
f 136 131 130
f 137 132 131
f 138 127 132
f 133 140 134
f 134 141 135
f 135 142 136
f 142 137 136
f 143 138 137
f 144 133 138
f 186 192 187
f 185 191 192
f 184 190 191
f 183 189 190
f 188 189 183
f 187 188 182
f 186 181 175
f 185 186 180
f 178 184 185
f 183 184 178
f 176 182 183
f 175 181 182
f 180 175 169
f 179 180 174
f 172 178 179
f 177 178 172
f 170 176 177
f 169 175 176
f 168 163 157
f 167 168 162
f 166 167 161
f 159 165 166
f 158 164 165
f 157 163 164
f 162 157 151
f 161 162 156
f 160 161 155
f 153 159 160
f 152 158 159
f 151 157 158
f 156 151 145
f 155 156 150
f 148 154 155
f 147 153 154
f 146 152 153
f 145 151 152
f 144 139 133
f 143 144 138
f 142 143 137
f 135 141 142
f 134 140 141
f 133 139 140
f 138 133 127
f 137 138 132
f 136 137 131
f 129 135 136
f 145 152 146
f 146 153 147
f 147 154 148
f 148 155 149
f 155 150 149
f 156 145 150
f 151 158 152
f 152 159 153
f 153 160 154
f 160 155 154
f 161 156 155
f 162 151 156
f 157 164 158
f 158 165 159
f 159 166 160
f 166 161 160
f 167 162 161
f 168 157 162
f 128 134 135
f 127 133 134
f 132 127 121
f 131 132 126
f 124 130 131
f 129 130 124
f 122 128 129
f 121 127 128
f 120 115 109
f 119 120 114
f 118 119 113
f 111 117 118
f 110 116 117
f 115 116 110
f 114 109 103
f 107 113 114
f 106 112 113
f 111 112 106
f 110 111 105
f 109 110 104
f 108 103 97
f 101 107 108
f 100 106 107
f 105 106 100
f 104 105 99
f 97 103 104
f 90 85 91
f 89 90 96
f 88 89 95
f 88 94 93
f 87 93 92
f 86 92 91
f 84 79 85
f 83 84 90
f 82 83 89
f 82 88 87
f 81 87 86
f 80 86 85
f 73 79 84
f 77 78 84
f 76 77 83
f 76 82 81
f 75 81 80
f 74 80 79
f 66 72 67
f 65 71 72
f 64 70 71
f 69 70 64
f 68 69 63
f 67 68 62
f 60 66 61
f 59 65 66
f 58 64 65
f 63 64 58
f 62 63 57
f 169 176 170
f 170 177 171
f 177 172 171
f 172 179 173
f 179 174 173
f 180 169 174
f 175 182 176
f 176 183 177
f 183 178 177
f 178 185 179
f 185 180 179
f 186 175 180
f 187 182 181
f 188 183 182
f 183 190 184
f 184 191 185
f 185 192 186
f 186 187 181
f 61 62 56
f 60 55 49
f 53 59 60
f 52 58 59
f 57 58 52
f 56 57 51
f 49 55 56
f 42 48 43
f 41 47 48
f 46 47 41
f 39 45 46
f 44 45 39
f 43 44 38
f 42 37 31
f 41 42 36
f 34 40 41
f 33 39 40
f 32 38 39
f 31 37 38
f 36 31 25
f 35 36 30
f 28 34 35
f 33 34 28
f 26 32 33
f 25 31 32
f 13 19 24
f 18 24 23
f 17 23 22
f 15 16 22
f 14 15 21
f 13 14 20
f 7 13 18
f 12 18 17
f 11 17 16
f 9 10 16
f 8 9 15
f 7 8 14
f 1 7 12
f 6 12 11
f 4 5 11
f 3 4 10
f 2 3 9
f 1 2 8
