# phoenix PrimariesLeft_Gold.obj: Roblox cue frame, recentred on its bounding box
v -0.31563 -0.21735 -0.15619
v -0.33003 -0.21876 -0.16012
v -0.35484 -0.23065 -0.16662
v -0.36525 -0.24113 -0.16919
v -0.35085 -0.23972 -0.16526
v -0.32604 -0.22783 -0.15876
v -0.33603 -0.19962 -0.26894
v -0.34487 -0.19913 -0.27139
v -0.35912 -0.20596 -0.27512
v -0.36453 -0.21327 -0.27640
v -0.35569 -0.21376 -0.27395
v -0.34144 -0.20693 -0.27022
v -0.36675 -0.18270 -0.38450
v -0.36803 -0.18221 -0.38487
v -0.36978 -0.18305 -0.38533
v -0.37026 -0.18438 -0.38542
v -0.36898 -0.18486 -0.38505
v -0.36723 -0.18402 -0.38459
v -0.26763 -0.19072 -0.19252
v -0.28131 -0.19212 -0.19850
v -0.30467 -0.20399 -0.20910
v -0.31436 -0.21446 -0.21372
v -0.30068 -0.21306 -0.20774
v -0.27732 -0.20119 -0.19714
v -0.27806 -0.16762 -0.31405
v -0.28648 -0.16712 -0.31768
v -0.29990 -0.17394 -0.32376
v -0.30490 -0.18125 -0.32622
v -0.29647 -0.18174 -0.32259
v -0.28305 -0.17492 -0.31650
v -0.28981 -0.14079 -0.43600
v -0.29104 -0.14030 -0.43651
v -0.29269 -0.14114 -0.43726
v -0.29312 -0.14246 -0.43750
v -0.29189 -0.14295 -0.43698
v -0.29024 -0.14211 -0.43623
v -0.15600 -0.13282 -0.17890
v -0.16863 -0.13406 -0.18688
v -0.18991 -0.14561 -0.20147
v -0.19855 -0.15592 -0.20809
v -0.18592 -0.15468 -0.20011
v -0.16464 -0.14313 -0.18552
v -0.12676 -0.08887 -0.28726
v -0.13458 -0.08829 -0.29204
v -0.14680 -0.09493 -0.30042
v -0.15120 -0.10214 -0.30402
v -0.14337 -0.10272 -0.29925
v -0.13115 -0.09609 -0.29087
v -0.09263 -0.03768 -0.39171
v -0.09379 -0.03719 -0.39236
v -0.09529 -0.03800 -0.39339
v -0.09564 -0.03932 -0.39377
v -0.09449 -0.03982 -0.39312
v -0.09299 -0.03900 -0.39209
v 0.03445 -0.02710 -0.04622
v 0.02311 -0.02803 -0.05598
v 0.00443 -0.03898 -0.07416
v -0.00291 -0.04899 -0.08256
v 0.00842 -0.04805 -0.07280
v 0.02710 -0.03710 -0.05462
v 0.10065 0.03794 -0.12525
v 0.09357 0.03869 -0.13106
v 0.08284 0.03241 -0.14149
v 0.07919 0.02536 -0.14613
v 0.08627 0.02461 -0.14032
v 0.09700 0.03089 -0.12989
v 0.16859 0.10869 -0.20155
v 0.16753 0.10921 -0.20233
v 0.16620 0.10844 -0.20362
v 0.16594 0.10714 -0.20413
v 0.16700 0.10662 -0.20335
v 0.16832 0.10740 -0.20206
v 0.19977 0.07561 0.17245
v 0.18987 0.07509 0.16121
v 0.17406 0.06496 0.14008
v 0.16815 0.05536 0.13019
v 0.17805 0.05589 0.14144
v 0.19386 0.06602 0.16257
v 0.27400 0.14586 0.10855
v 0.26774 0.14685 0.10190
v 0.25866 0.14103 0.08976
v 0.25584 0.13422 0.08428
v 0.26209 0.13323 0.09093
v 0.27117 0.13905 0.10307
v 0.34299 0.21748 0.03926
v 0.34203 0.21803 0.03838
v 0.34091 0.21731 0.03688
v 0.34075 0.21604 0.03627
v 0.34171 0.21550 0.03715
v 0.34283 0.21621 0.03865
v 0.25246 0.11748 0.34687
v 0.24401 0.11742 0.33449
v 0.23109 0.10822 0.31108
v 0.22663 0.09910 0.30006
v 0.23508 0.09916 0.31244
v 0.24800 0.10835 0.33585
v 0.31510 0.17933 0.27151
v 0.30967 0.18059 0.26420
v 0.30226 0.17531 0.25076
v 0.30027 0.16877 0.24462
v 0.30569 0.16751 0.25193
v 0.31310 0.17279 0.26537
v 0.37026 0.24055 0.18490
v 0.36940 0.24113 0.18393
v 0.36849 0.24048 0.18228
v 0.36843 0.23925 0.18158
v 0.36929 0.23866 0.18255
v 0.37020 0.23931 0.18420
v 0.21357 0.09826 0.41010
v 0.20649 0.09867 0.39689
v 0.19631 0.09044 0.37184
v 0.19322 0.08179 0.35999
v 0.20030 0.08137 0.37320
v 0.21048 0.08961 0.39825
v 0.26866 0.15256 0.32277
v 0.26402 0.15409 0.31499
v 0.25818 0.14936 0.30061
v 0.25697 0.14310 0.29400
v 0.26161 0.14156 0.30178
v 0.26745 0.14629 0.31616
v 0.31955 0.20805 0.22828
v 0.31880 0.20866 0.22725
v 0.31808 0.20808 0.22548
v 0.31811 0.20688 0.22473
v 0.31887 0.20627 0.22575
v 0.31959 0.20685 0.22753
v 0.15454 0.06152 0.43750
v 0.14870 0.06240 0.42372
v 0.14100 0.05508 0.39752
v 0.13914 0.04689 0.38511
v 0.14499 0.04601 0.39888
v 0.15269 0.05333 0.42508
v 0.21293 0.11660 0.36654
v 0.20900 0.11840 0.35843
v 0.20458 0.11420 0.34339
v 0.20408 0.10820 0.33645
v 0.20801 0.10640 0.34456
v 0.21243 0.11060 0.35960
v 0.27068 0.17553 0.29766
v 0.27001 0.17618 0.29659
v 0.26946 0.17566 0.29474
v 0.26959 0.17450 0.29395
v 0.27026 0.17385 0.29501
v 0.27081 0.17437 0.29687
f 2 7 1
f 3 8 2
f 3 10 9
f 4 11 10
f 5 12 11
f 6 7 12
f 8 13 7
f 9 14 8
f 9 16 15
f 10 17 16
f 11 18 17
f 12 13 18
f 20 25 19
f 21 26 20
f 22 27 21
f 22 29 28
f 23 30 29
f 24 25 30
f 26 31 25
f 27 32 26
f 27 34 33
f 28 35 34
f 29 36 35
f 30 31 36
f 43 38 37
f 44 39 38
f 39 46 40
f 40 47 41
f 41 48 42
f 48 37 42
f 49 44 43
f 44 51 45
f 45 52 46
f 46 53 47
f 53 48 47
f 54 43 48
f 55 62 56
f 56 63 57
f 57 64 58
f 64 59 58
f 65 60 59
f 66 55 60
f 67 62 61
f 62 69 63
f 63 70 64
f 70 65 64
f 71 66 65
f 72 61 66
f 73 80 74
f 74 81 75
f 75 82 76
f 82 77 76
f 83 78 77
f 84 73 78
f 85 80 79
f 80 87 81
f 81 88 82
f 88 83 82
f 89 84 83
f 90 79 84
f 97 92 91
f 98 93 92
f 93 100 94
f 94 101 95
f 95 102 96
f 102 91 96
f 103 98 97
f 104 99 98
f 99 106 100
f 100 107 101
f 101 108 102
f 108 97 102
f 144 139 133
f 137 143 144
f 136 142 143
f 135 141 142
f 140 141 135
f 139 140 134
f 132 138 133
f 131 137 138
f 130 136 137
f 129 135 136
f 134 135 129
f 133 134 128
f 120 126 121
f 119 125 126
f 118 124 125
f 117 123 124
f 122 123 117
f 121 122 116
f 114 120 115
f 113 119 120
f 112 118 119
f 117 118 112
f 116 117 111
f 115 116 110
f 108 103 97
f 101 107 108
f 100 106 107
f 99 105 106
f 104 105 99
f 103 104 98
f 102 97 91
f 95 101 102
f 94 100 101
f 93 99 100
f 115 110 109
f 116 111 110
f 117 112 111
f 112 119 113
f 113 120 114
f 114 115 109
f 121 116 115
f 122 117 116
f 117 124 118
f 118 125 119
f 119 126 120
f 120 121 115
f 98 99 93
f 97 98 92
f 90 85 79
f 89 90 84
f 88 89 83
f 81 87 88
f 80 86 87
f 85 86 80
f 84 79 73
f 83 84 78
f 82 83 77
f 75 81 82
f 74 80 81
f 73 79 80
f 72 67 61
f 71 72 66
f 70 71 65
f 63 69 70
f 62 68 69
f 67 68 62
f 66 61 55
f 65 66 60
f 64 65 59
f 57 63 64
f 56 62 63
f 55 61 62
f 54 49 43
f 53 54 48
f 46 52 53
f 45 51 52
f 44 50 51
f 49 50 44
f 48 43 37
f 41 47 48
f 40 46 47
f 39 45 46
f 44 45 39
f 43 44 38
f 30 25 31
f 29 30 36
f 28 29 35
f 27 28 34
f 27 33 32
f 26 32 31
f 24 19 25
f 23 24 30
f 22 23 29
f 22 28 27
f 21 27 26
f 20 26 25
f 12 7 13
f 11 12 18
f 10 11 17
f 9 10 16
f 9 15 14
f 8 14 13
f 6 1 7
f 5 6 12
f 4 5 11
f 3 4 10
f 3 9 8
f 133 128 127
f 134 129 128
f 129 136 130
f 130 137 131
f 131 138 132
f 132 133 127
f 139 134 133
f 140 135 134
f 135 142 136
f 136 143 137
f 137 144 138
f 144 133 138
f 2 8 7
