# phoenix PrimariesLeft_Flame.obj: Roblox cue frame, recentred on its bounding box
v -0.12525 -0.09361 -0.06187
v -0.16243 -0.10210 -0.07188
v -0.23001 -0.13449 -0.08958
v -0.26041 -0.15839 -0.09728
v -0.22323 -0.14991 -0.08727
v -0.15565 -0.11752 -0.06957
v -0.10245 -0.07586 -0.16271
v -0.13543 -0.08310 -0.17160
v -0.19517 -0.11174 -0.18724
v -0.22193 -0.13313 -0.19401
v -0.18895 -0.12588 -0.18512
v -0.12921 -0.09725 -0.16947
v -0.08548 -0.05676 -0.26519
v -0.11413 -0.06270 -0.27292
v -0.16576 -0.08744 -0.28644
v -0.18874 -0.10626 -0.29224
v -0.16009 -0.10032 -0.28451
v -0.10846 -0.07557 -0.27099
v -0.06690 -0.06335 -0.04956
v -0.10211 -0.07181 -0.06515
v -0.16576 -0.10415 -0.09403
v -0.19419 -0.12802 -0.10731
v -0.15897 -0.11956 -0.09171
v -0.09533 -0.08723 -0.06284
v -0.04615 -0.04641 -0.15783
v -0.07739 -0.05363 -0.17165
v -0.13365 -0.08221 -0.19718
v -0.15867 -0.10358 -0.20888
v -0.12743 -0.09636 -0.19506
v -0.07117 -0.06778 -0.16953
v -0.03360 -0.02923 -0.26964
v -0.06074 -0.03515 -0.28164
v -0.10937 -0.05985 -0.30370
v -0.13085 -0.07864 -0.31377
v -0.10370 -0.07273 -0.30177
v -0.05508 -0.04802 -0.27971
v -0.04547 -0.05090 -0.04062
v -0.07784 -0.05893 -0.06166
v -0.13580 -0.09039 -0.10141
v -0.16139 -0.11383 -0.12013
v -0.12902 -0.10581 -0.09910
v -0.07106 -0.07434 -0.05934
v -0.01879 -0.03131 -0.15355
v -0.04752 -0.03814 -0.17218
v -0.09876 -0.06595 -0.20732
v -0.12126 -0.08694 -0.22383
v -0.09253 -0.08010 -0.20520
v -0.04130 -0.05229 -0.17006
v 0.00439 -0.00902 -0.26832
v -0.02059 -0.01460 -0.28447
v -0.06487 -0.03864 -0.31484
v -0.08418 -0.05710 -0.32906
v -0.05920 -0.05152 -0.31291
v -0.01492 -0.02748 -0.28254
v -0.01122 -0.03099 -0.01172
v -0.04006 -0.03819 -0.03763
v -0.09095 -0.06801 -0.08714
v -0.11300 -0.09062 -0.11074
v -0.08416 -0.08342 -0.08483
v -0.03328 -0.05361 -0.03532
v 0.03755 0.00031 -0.11291
v 0.01194 -0.00580 -0.13586
v -0.03304 -0.03215 -0.17962
v -0.05242 -0.05241 -0.20044
v -0.02681 -0.04630 -0.17750
v 0.01817 -0.01994 -0.13373
v 0.08844 0.03756 -0.21100
v 0.06617 0.03260 -0.23088
v 0.02729 0.00982 -0.26870
v 0.01069 -0.00800 -0.28665
v 0.03296 -0.00305 -0.26677
v 0.07184 0.01973 -0.22894
v 0.04939 0.00784 0.07403
v 0.02446 0.00175 0.04409
v -0.01860 -0.02583 -0.01348
v -0.03675 -0.04733 -0.04110
v -0.01182 -0.04125 -0.01116
v 0.03125 -0.01366 0.04640
v 0.12214 0.05345 0.00005
v 0.09999 0.04833 -0.02646
v 0.06192 0.02395 -0.07734
v 0.04599 0.00468 -0.10173
v 0.06814 0.00980 -0.07522
v 0.10621 0.03419 -0.02433
v 0.19731 0.10536 -0.06907
v 0.17803 0.10126 -0.09202
v 0.14512 0.08019 -0.13601
v 0.13150 0.06321 -0.15703
v 0.15079 0.06731 -0.13407
v 0.18369 0.08838 -0.09009
v 0.09758 0.04589 0.19883
v 0.07660 0.04108 0.16580
v 0.04143 0.01604 0.10204
v 0.02723 -0.00419 0.07131
v 0.04821 0.00062 0.10435
v 0.08339 0.02566 0.16811
v 0.17965 0.09812 0.14712
v 0.16099 0.09413 0.11788
v 0.12989 0.07199 0.06151
v 0.11746 0.05385 0.03439
v 0.13612 0.05785 0.06363
v 0.16721 0.07998 0.12000
v 0.26041 0.15412 0.09535
v 0.24414 0.15099 0.07003
v 0.21727 0.13186 0.02132
v 0.20666 0.11586 -0.00207
v 0.22293 0.11898 0.02325
v 0.24980 0.13812 0.07196
v 0.09946 0.05835 0.29573
v 0.08221 0.05485 0.26045
v 0.05450 0.03241 0.19219
v 0.04403 0.01349 0.15922
v 0.06128 0.01700 0.19451
v 0.08900 0.03943 0.26276
v 0.17665 0.10762 0.24706
v 0.16129 0.10478 0.21583
v 0.13679 0.08495 0.15549
v 0.12766 0.06796 0.12639
v 0.14302 0.07081 0.15762
v 0.16752 0.09064 0.21795
v 0.25004 0.15839 0.19216
v 0.23662 0.15626 0.16512
v 0.21544 0.13913 0.11297
v 0.20769 0.12412 0.08787
v 0.22111 0.12625 0.11490
v 0.24228 0.14339 0.16705
v 0.06385 0.04396 0.32906
v 0.04997 0.04171 0.29222
v 0.02900 0.02177 0.22086
v 0.02190 0.00410 0.18634
v 0.03578 0.00636 0.22317
v 0.05675 0.02629 0.29454
v 0.13329 0.08732 0.27460
v 0.12090 0.08558 0.24200
v 0.10237 0.06796 0.17892
v 0.09621 0.05208 0.14844
v 0.10859 0.05382 0.18104
v 0.12713 0.07144 0.24412
v 0.19964 0.13219 0.21387
v 0.18880 0.13102 0.18564
v 0.17278 0.11579 0.13112
v 0.16760 0.10174 0.10483
v 0.17844 0.10291 0.13305
v 0.19446 0.11814 0.18757
f 1 8 7
f 2 9 8
f 3 10 9
f 5 10 4
f 6 11 5
f 1 12 6
f 8 13 7
f 8 15 14
f 9 16 15
f 11 16 10
f 12 17 11
f 7 18 12
f 20 25 19
f 21 26 20
f 21 28 27
f 22 29 28
f 23 30 29
f 24 25 30
f 26 31 25
f 27 32 26
f 28 33 27
f 28 35 34
f 29 36 35
f 30 31 36
f 43 38 37
f 44 39 38
f 45 40 39
f 40 47 41
f 41 48 42
f 42 43 37
f 49 44 43
f 50 45 44
f 51 46 45
f 46 53 47
f 47 54 48
f 48 49 43
f 61 56 55
f 62 57 56
f 63 58 57
f 58 65 59
f 59 66 60
f 60 61 55
f 67 62 61
f 68 63 62
f 63 70 64
f 64 71 65
f 65 72 66
f 66 67 61
f 79 74 73
f 74 81 75
f 75 82 76
f 82 77 76
f 83 78 77
f 84 73 78
f 79 86 80
f 80 87 81
f 81 88 82
f 88 83 82
f 89 84 83
f 90 79 84
f 91 98 92
f 92 99 93
f 93 100 94
f 100 95 94
f 101 96 95
f 102 91 96
f 97 104 98
f 98 105 99
f 99 106 100
f 106 101 100
f 107 102 101
f 108 97 102
f 138 144 139
f 137 143 144
f 136 142 143
f 141 142 136
f 115 110 109
f 110 117 111
f 111 118 112
f 118 113 112
f 119 114 113
f 120 109 114
f 121 116 115
f 116 123 117
f 117 124 118
f 124 119 118
f 125 120 119
f 126 115 120
f 140 141 135
f 139 140 134
f 132 138 133
f 131 137 138
f 130 136 137
f 135 136 130
f 134 135 129
f 133 134 128
f 126 121 115
f 125 126 120
f 124 125 119
f 117 123 124
f 116 122 123
f 121 122 116
f 120 115 109
f 119 120 114
f 118 119 113
f 111 117 118
f 110 116 117
f 115 116 110
f 108 103 97
f 107 108 102
f 106 107 101
f 99 105 106
f 98 104 105
f 97 103 104
f 102 97 91
f 101 102 96
f 100 101 95
f 93 99 100
f 92 98 99
f 91 97 98
f 90 85 79
f 89 90 84
f 88 89 83
f 81 87 88
f 80 86 87
f 79 85 86
f 84 79 73
f 83 84 78
f 82 83 77
f 75 81 82
f 74 80 81
f 79 80 74
f 66 72 67
f 65 71 72
f 64 70 71
f 63 69 70
f 68 69 63
f 67 68 62
f 60 66 61
f 59 65 66
f 58 64 65
f 63 64 58
f 62 63 57
f 61 62 56
f 48 54 49
f 47 53 54
f 46 52 53
f 51 52 46
f 50 51 45
f 133 128 127
f 134 129 128
f 135 130 129
f 130 137 131
f 131 138 132
f 132 133 127
f 139 134 133
f 140 135 134
f 141 136 135
f 136 143 137
f 137 144 138
f 138 139 133
f 49 50 44
f 42 48 43
f 41 47 48
f 40 46 47
f 45 46 40
f 44 45 39
f 43 44 38
f 30 25 31
f 29 30 36
f 28 29 35
f 28 34 33
f 27 33 32
f 26 32 31
f 24 19 25
f 23 24 30
f 22 23 29
f 21 22 28
f 21 27 26
f 20 26 25
f 7 13 18
f 12 18 17
f 11 17 16
f 9 10 16
f 8 9 15
f 8 14 13
f 1 7 12
f 6 12 11
f 5 11 10
f 3 4 10
f 2 3 9
f 1 2 8
