# phoenix WingRight_Flame.obj: Roblox cue frame, recentred on its bounding box
v 0.57401 -0.22575 0.31353
v 0.54626 -0.20455 0.31099
v 0.48397 -0.17755 0.30824
v 0.44943 -0.17176 0.30802
v 0.47718 -0.19297 0.31055
v 0.53948 -0.21996 0.31331
v 0.57333 -0.22498 0.26549
v 0.54891 -0.20597 0.26321
v 0.49384 -0.18211 0.26078
v 0.46320 -0.17725 0.26062
v 0.48762 -0.19626 0.26290
v 0.54268 -0.22012 0.26533
v 0.57130 -0.22226 0.21720
v 0.55034 -0.20551 0.21518
v 0.50274 -0.18489 0.21308
v 0.47612 -0.18101 0.21299
v 0.49708 -0.19776 0.21501
v 0.54467 -0.21839 0.21711
v 0.45338 -0.18103 0.24991
v 0.42568 -0.15964 0.24869
v 0.36348 -0.13229 0.24858
v 0.32899 -0.12633 0.24967
v 0.35669 -0.14771 0.25089
v 0.41889 -0.17506 0.25101
v 0.44524 -0.17693 0.19866
v 0.42086 -0.15777 0.19755
v 0.36588 -0.13359 0.19744
v 0.33528 -0.12858 0.19845
v 0.35966 -0.14774 0.19956
v 0.41464 -0.17192 0.19967
v 0.43464 -0.17029 0.14722
v 0.41371 -0.15341 0.14621
v 0.36619 -0.13251 0.14612
v 0.33960 -0.12850 0.14704
v 0.36053 -0.14539 0.14805
v 0.40805 -0.16628 0.14814
v 0.31707 -0.12925 0.18730
v 0.28947 -0.10770 0.18747
v 0.22747 -0.08003 0.19013
v 0.19308 -0.07389 0.19262
v 0.22069 -0.09544 0.19245
v 0.28268 -0.12312 0.18978
v 0.30137 -0.12170 0.13343
v 0.27708 -0.10239 0.13354
v 0.22228 -0.07793 0.13589
v 0.19177 -0.07277 0.13813
v 0.21606 -0.09207 0.13802
v 0.27086 -0.11654 0.13566
v 0.28418 -0.11192 0.07945
v 0.26333 -0.09491 0.07950
v 0.21597 -0.07376 0.08154
v 0.18945 -0.06963 0.08352
v 0.21030 -0.08664 0.08347
v 0.25766 -0.10779 0.08143
v 0.17643 -0.07525 0.12681
v 0.14898 -0.05355 0.12844
v 0.08731 -0.02558 0.13402
v 0.05309 -0.01930 0.13796
v 0.08053 -0.04100 0.13633
v 0.14220 -0.06897 0.13075
v 0.15763 -0.06617 0.07055
v 0.13349 -0.04673 0.07195
v 0.07897 -0.02201 0.07688
v 0.04860 -0.01672 0.08041
v 0.07275 -0.03615 0.07900
v 0.12726 -0.06088 0.07407
v 0.13990 -0.05591 0.01403
v 0.11917 -0.03879 0.01520
v 0.07206 -0.01742 0.01946
v 0.04567 -0.01317 0.02256
v 0.06639 -0.03030 0.02139
v 0.11351 -0.05167 0.01713
v 0.04618 -0.02571 0.06705
v 0.01897 -0.00389 0.07021
v -0.04223 0.02433 0.07883
v -0.07622 0.03073 0.08430
v -0.04902 0.00892 0.08115
v 0.01219 -0.01931 0.07252
v 0.02991 -0.01767 0.00781
v 0.00597 0.00188 0.01056
v -0.04813 0.02683 0.01819
v -0.07829 0.03223 0.02306
v -0.05436 0.01268 0.02031
v -0.00025 -0.01226 0.01269
v 0.01696 -0.00939 -0.05202
v -0.00359 0.00783 -0.04969
v -0.05035 0.02939 -0.04310
v -0.07656 0.03373 -0.03884
v -0.05601 0.01651 -0.04117
v -0.00926 -0.00505 -0.04776
v -0.06747 0.01621 0.00520
v -0.09437 0.03813 0.00994
v -0.15495 0.06655 0.02173
v -0.18863 0.07306 0.02879
v -0.16173 0.05114 0.02405
v -0.10115 0.02271 0.01225
v -0.07922 0.02222 -0.05781
v -0.10288 0.04186 -0.05365
v -0.15643 0.06698 -0.04323
v -0.18631 0.07247 -0.03695
v -0.16265 0.05284 -0.04111
v -0.10910 0.02771 -0.05153
v -0.08750 0.02847 -0.12158
v -0.10781 0.04576 -0.11804
v -0.15409 0.06748 -0.10903
v -0.18006 0.07190 -0.10356
v -0.15975 0.05460 -0.10710
v -0.11347 0.03289 -0.11611
v -0.17286 0.05406 -0.05955
v -0.19935 0.07605 -0.05318
v -0.25913 0.10461 -0.03811
v -0.29242 0.11118 -0.02942
v -0.26592 0.08919 -0.03580
v -0.20614 0.06063 -0.05086
v -0.18392 0.05977 -0.12606
v -0.20723 0.07947 -0.12046
v -0.26008 0.10472 -0.10714
v -0.28961 0.11027 -0.09942
v -0.26630 0.09057 -0.10502
v -0.21346 0.06532 -0.11834
v -0.19377 0.06686 -0.19294
v -0.21377 0.08421 -0.18815
v -0.25944 0.10603 -0.17664
v -0.28511 0.11050 -0.16992
v -0.26511 0.09315 -0.17471
v -0.21944 0.07133 -0.18622
v -0.28723 0.09597 -0.12357
v -0.31324 0.11800 -0.11552
v -0.37204 0.14663 -0.09710
v -0.40483 0.15324 -0.08673
v -0.37882 0.13121 -0.09479
v -0.32002 0.10258 -0.11321
v -0.30494 0.10490 -0.19164
v -0.32782 0.12463 -0.18456
v -0.37979 0.14994 -0.16827
v -0.40890 0.15552 -0.15907
v -0.38602 0.13579 -0.16615
v -0.33404 0.11048 -0.18243
v -0.32442 0.11674 -0.25917
v -0.34405 0.13412 -0.25309
v -0.38897 0.15600 -0.23902
v -0.41426 0.16050 -0.23102
v -0.39463 0.14312 -0.23709
v -0.34971 0.12124 -0.25116
v -0.42334 0.14848 -0.18069
v -0.44876 0.17050 -0.17093
v -0.50638 0.19913 -0.14909
v -0.53858 0.20574 -0.13702
v -0.51316 0.18372 -0.14678
v -0.45554 0.15509 -0.16862
v -0.45308 0.16338 -0.24772
v -0.47544 0.18311 -0.23913
v -0.52637 0.20842 -0.21983
v -0.55495 0.21400 -0.20912
v -0.53260 0.19427 -0.21771
v -0.48166 0.16896 -0.23701
v -0.48597 0.18201 -0.31353
v -0.50515 0.19938 -0.30615
v -0.54917 0.22125 -0.28947
v -0.57401 0.22575 -0.28016
v -0.55483 0.20838 -0.28754
v -0.51081 0.18650 -0.30422
v 0.54394 -0.19846 0.29771
v 0.53526 -0.18930 0.29658
v 0.51392 -0.18005 0.29568
v 0.50126 -0.17995 0.29591
v 0.50993 -0.18912 0.29704
v 0.53127 -0.19837 0.29794
v 0.53374 -0.19543 0.27150
v 0.52933 -0.18887 0.27066
v 0.51707 -0.18355 0.27014
v 0.50922 -0.18480 0.27047
v 0.51364 -0.19135 0.27131
v 0.52589 -0.19667 0.27183
v 0.52180 -0.19140 0.24518
v 0.52128 -0.19010 0.24501
v 0.51944 -0.18930 0.24493
v 0.51813 -0.18981 0.24503
v 0.51865 -0.19112 0.24520
v 0.52048 -0.19191 0.24528
v 0.39141 -0.14100 0.22900
v 0.38275 -0.13177 0.22837
v 0.36145 -0.12238 0.22847
v 0.34880 -0.12222 0.22920
v 0.35746 -0.13145 0.22983
v 0.37876 -0.14084 0.22973
v 0.37985 -0.13737 0.20184
v 0.37545 -0.13078 0.20128
v 0.36322 -0.12538 0.20134
v 0.35538 -0.12659 0.20195
v 0.35978 -0.13318 0.20251
v 0.37202 -0.13857 0.20245
v 0.36733 -0.13307 0.17465
v 0.36682 -0.13176 0.17452
v 0.36499 -0.13096 0.17453
v 0.36367 -0.13146 0.17467
v 0.36419 -0.13277 0.17480
v 0.36602 -0.13358 0.17479
v 0.24420 -0.08574 0.16125
v 0.23559 -0.07645 0.16115
v 0.21437 -0.06694 0.16231
v 0.20177 -0.06672 0.16357
v 0.21038 -0.07601 0.16367
v 0.23160 -0.08552 0.16251
v 0.23394 -0.08269 0.13310
v 0.22956 -0.07606 0.13285
v 0.21738 -0.07059 0.13351
v 0.20957 -0.07176 0.13443
v 0.21394 -0.07839 0.13468
v 0.22613 -0.08385 0.13402
v 0.22314 -0.07914 0.10495
v 0.22263 -0.07782 0.10486
v 0.22080 -0.07700 0.10496
v 0.21949 -0.07750 0.10515
v 0.22001 -0.07882 0.10524
v 0.22183 -0.07964 0.10514
v 0.10545 -0.03423 0.09325
v 0.09691 -0.02489 0.09371
v 0.07583 -0.01527 0.09599
v 0.06330 -0.01500 0.09781
v 0.07184 -0.02434 0.09735
v 0.09292 -0.03395 0.09507
v 0.09555 -0.03136 0.06403
v 0.09121 -0.02470 0.06410
v 0.07911 -0.01918 0.06541
v 0.07134 -0.02032 0.06665
v 0.07568 -0.02698 0.06658
v 0.08778 -0.03250 0.06527
v 0.08451 -0.02770 0.03492
v 0.08400 -0.02638 0.03488
v 0.08219 -0.02555 0.03507
v 0.08089 -0.02605 0.03531
v 0.08140 -0.02737 0.03535
v 0.08321 -0.02819 0.03515
v -0.03741 0.01913 0.02555
v -0.04586 0.02852 0.02659
v -0.06673 0.03822 0.03004
v -0.07917 0.03854 0.03244
v -0.07072 0.02915 0.03140
v -0.04985 0.01945 0.02795
v -0.05059 0.02349 -0.00425
v -0.05487 0.03018 -0.00384
v -0.06686 0.03575 -0.00186
v -0.07457 0.03464 -0.00029
v -0.07029 0.02795 -0.00069
v -0.05830 0.02238 -0.00267
v -0.06569 0.02904 -0.03374
v -0.06619 0.03036 -0.03373
v -0.06798 0.03119 -0.03343
v -0.06928 0.03070 -0.03315
v -0.06878 0.02938 -0.03316
v -0.06699 0.02855 -0.03346
v -0.19459 0.07926 -0.03903
v -0.20290 0.08868 -0.03738
v -0.22351 0.09844 -0.03272
v -0.23580 0.09879 -0.02970
v -0.22750 0.08938 -0.03136
v -0.20689 0.07961 -0.03602
v -0.21226 0.08574 -0.06882
v -0.21647 0.09244 -0.06806
v -0.22830 0.09805 -0.06538
v -0.23594 0.09696 -0.06346
v -0.23173 0.09025 -0.06421
v -0.21990 0.08464 -0.06689
v -0.23161 0.09331 -0.09824
v -0.23209 0.09463 -0.09817
v -0.23386 0.09547 -0.09777
v -0.23515 0.09499 -0.09744
v -0.23466 0.09366 -0.09750
v -0.23289 0.09282 -0.09790
v -0.35799 0.14263 -0.10024
v -0.36612 0.15207 -0.09796
v -0.38639 0.16187 -0.09204
v -0.39852 0.16224 -0.08840
v -0.39038 0.15280 -0.09068
v -0.37011 0.14300 -0.09660
v -0.37715 0.14984 -0.13041
v -0.38125 0.15656 -0.12930
v -0.39289 0.16219 -0.12590
v -0.40043 0.16111 -0.12361
v -0.39632 0.15439 -0.12473
v -0.38468 0.14876 -0.12813
v -0.39698 0.15769 -0.16040
v -0.39745 0.15902 -0.16028
v -0.39919 0.15986 -0.15977
v -0.40046 0.15938 -0.15938
v -0.39999 0.15805 -0.15950
v -0.39825 0.15721 -0.16001
f 2 7 1
f 2 9 8
f 3 10 9
f 5 10 4
f 6 11 5
f 1 12 6
f 8 13 7
f 8 15 14
f 9 16 15
f 11 16 10
f 12 17 11
f 12 13 18
f 20 25 19
f 21 26 20
f 21 28 27
f 23 28 22
f 23 30 29
f 24 25 30
f 26 31 25
f 27 32 26
f 27 34 33
f 28 35 34
f 29 36 35
f 30 31 36
f 43 38 37
f 44 39 38
f 39 46 40
f 40 47 41
f 41 48 42
f 42 43 37
f 49 44 43
f 50 45 44
f 51 46 45
f 46 53 47
f 47 54 48
f 48 49 43
f 56 61 55
f 57 62 56
f 58 63 57
f 58 65 64
f 59 66 65
f 60 61 66
f 62 67 61
f 63 68 62
f 63 70 69
f 64 71 70
f 65 72 71
f 66 67 72
f 74 79 73
f 75 80 74
f 75 82 81
f 77 82 76
f 77 84 83
f 78 79 84
f 80 85 79
f 80 87 86
f 81 88 87
f 83 88 82
f 84 89 83
f 84 85 90
f 92 97 91
f 92 99 98
f 93 100 99
f 95 100 94
f 96 101 95
f 91 102 96
f 97 104 103
f 98 105 104
f 99 106 105
f 101 106 100
f 102 107 101
f 97 108 102
f 109 116 115
f 110 117 116
f 111 118 117
f 113 118 112
f 114 119 113
f 109 120 114
f 115 122 121
f 116 123 122
f 117 124 123
f 119 124 118
f 120 125 119
f 115 126 120
f 128 133 127
f 128 135 134
f 129 136 135
f 131 136 130
f 132 137 131
f 127 138 132
f 134 139 133
f 134 141 140
f 135 142 141
f 137 142 136
f 138 143 137
f 133 144 138
f 151 146 145
f 152 147 146
f 147 154 148
f 154 149 148
f 149 156 150
f 150 151 145
f 157 152 151
f 158 153 152
f 153 160 154
f 154 161 155
f 155 162 156
f 156 157 151
f 169 164 163
f 170 165 164
f 165 172 166
f 172 167 166
f 167 174 168
f 168 169 163
f 175 170 169
f 176 171 170
f 171 178 172
f 178 173 172
f 173 180 174
f 174 175 169
f 187 182 181
f 188 183 182
f 183 190 184
f 190 185 184
f 185 192 186
f 186 187 181
f 193 188 187
f 194 189 188
f 189 196 190
f 196 191 190
f 191 198 192
f 192 193 187
f 205 200 199
f 200 207 201
f 201 208 202
f 208 203 202
f 209 204 203
f 204 205 199
f 211 206 205
f 206 213 207
f 207 214 208
f 214 209 208
f 215 210 209
f 210 211 205
f 223 218 217
f 218 225 219
f 219 226 220
f 226 221 220
f 227 222 221
f 222 223 217
f 229 224 223
f 224 231 225
f 225 232 226
f 232 227 226
f 233 228 227
f 228 229 223
f 241 236 235
f 236 243 237
f 237 244 238
f 244 239 238
f 245 240 239
f 240 241 235
f 247 242 241
f 248 243 242
f 243 250 244
f 250 245 244
f 245 252 246
f 246 247 241
f 282 288 283
f 281 287 288
f 286 287 281
f 279 285 286
f 284 285 279
f 283 284 278
f 276 282 277
f 275 281 282
f 280 281 275
f 273 279 280
f 278 279 273
f 277 278 272
f 264 270 265
f 263 269 270
f 268 269 263
f 261 267 268
f 266 267 261
f 265 266 260
f 258 264 259
f 257 263 264
f 262 263 257
f 255 261 262
f 260 261 255
f 259 260 254
f 246 252 247
f 245 251 252
f 250 251 245
f 243 249 250
f 248 249 243
f 247 248 242
f 240 246 241
f 245 246 240
f 244 245 239
f 237 243 244
f 236 242 243
f 241 242 236
f 228 234 229
f 233 234 228
f 232 233 227
f 225 231 232
f 224 230 231
f 229 230 224
f 222 228 223
f 227 228 222
f 226 227 221
f 259 254 253
f 260 255 254
f 255 262 256
f 262 257 256
f 257 264 258
f 258 259 253
f 265 260 259
f 266 261 260
f 261 268 262
f 268 263 262
f 263 270 264
f 264 265 259
f 219 225 226
f 218 224 225
f 223 224 218
f 210 216 211
f 215 216 210
f 214 215 209
f 207 213 214
f 206 212 213
f 211 212 206
f 204 210 205
f 209 210 204
f 208 209 203
f 201 207 208
f 200 206 207
f 205 206 200
f 192 198 193
f 191 197 198
f 196 197 191
f 189 195 196
f 194 195 189
f 193 194 188
f 186 192 187
f 185 191 192
f 190 191 185
f 183 189 190
f 188 189 183
f 187 188 182
f 174 180 175
f 173 179 180
f 178 179 173
f 171 177 178
f 176 177 171
f 175 176 170
f 168 174 169
f 167 173 174
f 172 173 167
f 165 171 172
f 170 171 165
f 169 170 164
f 156 162 157
f 155 161 162
f 154 160 161
f 153 159 160
f 158 159 153
f 157 158 152
f 150 156 151
f 149 155 156
f 154 155 149
f 147 153 154
f 152 153 147
f 151 152 146
f 133 139 144
f 138 144 143
f 137 143 142
f 135 136 142
f 134 135 141
f 134 140 139
f 127 133 138
f 132 138 137
f 131 137 136
f 129 130 136
f 277 272 271
f 278 273 272
f 273 280 274
f 280 275 274
f 275 282 276
f 276 277 271
f 283 278 277
f 284 279 278
f 279 286 280
f 286 281 280
f 281 288 282
f 282 283 277
f 128 129 135
f 128 134 133
f 115 121 126
f 120 126 125
f 119 125 124
f 117 118 124
f 116 117 123
f 115 116 122
f 109 115 120
f 114 120 119
f 113 119 118
f 111 112 118
f 110 111 117
f 109 110 116
f 97 103 108
f 102 108 107
f 101 107 106
f 99 100 106
f 98 99 105
f 97 98 104
f 91 97 102
f 96 102 101
f 95 101 100
f 93 94 100
f 92 93 99
f 92 98 97
f 84 79 85
f 84 90 89
f 83 89 88
f 81 82 88
f 80 81 87
f 80 86 85
f 78 73 79
f 77 78 84
f 77 83 82
f 75 76 82
f 75 81 80
f 74 80 79
f 66 61 67
f 65 66 72
f 64 65 71
f 63 64 70
f 63 69 68
f 62 68 67
f 60 55 61
f 59 60 66
f 58 59 65
f 58 64 63
f 57 63 62
f 56 62 61
f 48 54 49
f 47 53 54
f 46 52 53
f 51 52 46
f 50 51 45
f 49 50 44
f 42 48 43
f 41 47 48
f 40 46 47
f 39 45 46
f 44 45 39
f 43 44 38
f 30 25 31
f 29 30 36
f 28 29 35
f 27 28 34
f 27 33 32
f 26 32 31
f 24 19 25
f 23 24 30
f 23 29 28
f 21 22 28
f 21 27 26
f 20 26 25
f 12 7 13
f 12 18 17
f 11 17 16
f 9 10 16
f 8 9 15
f 8 14 13
f 1 7 12
f 6 12 11
f 5 11 10
f 3 4 10
f 2 3 9
f 2 8 7
