# phoenix WingLeft_Flame.obj: Roblox cue frame, recentred on its bounding box
v -0.44517 -0.17101 0.30150
v -0.47971 -0.17680 0.30172
v -0.54200 -0.20380 0.30448
v -0.56975 -0.22500 0.30701
v -0.53521 -0.21921 0.30679
v -0.47292 -0.19222 0.30404
v -0.44977 -0.17253 0.25370
v -0.48042 -0.17739 0.25385
v -0.53548 -0.20125 0.25629
v -0.55990 -0.22026 0.25857
v -0.52926 -0.21540 0.25841
v -0.47419 -0.19154 0.25598
v -0.45673 -0.17371 0.20580
v -0.48335 -0.17758 0.20589
v -0.53095 -0.19820 0.20800
v -0.55191 -0.21495 0.21002
v -0.52528 -0.21108 0.20993
v -0.47769 -0.19046 0.20782
v -0.32900 -0.12722 0.24477
v -0.36349 -0.13318 0.24367
v -0.42569 -0.16053 0.24379
v -0.45340 -0.18192 0.24500
v -0.41891 -0.17595 0.24610
v -0.35671 -0.14860 0.24598
v -0.33768 -0.13052 0.19355
v -0.36829 -0.13554 0.19254
v -0.42327 -0.15971 0.19265
v -0.44765 -0.17887 0.19376
v -0.41704 -0.17386 0.19477
v -0.36206 -0.14968 0.19466
v -0.34991 -0.13392 0.14215
v -0.37650 -0.13793 0.14123
v -0.42402 -0.15882 0.14132
v -0.44495 -0.17571 0.14233
v -0.41835 -0.17170 0.14325
v -0.37083 -0.15080 0.14316
v -0.22520 -0.08889 0.18784
v -0.25959 -0.09502 0.18535
v -0.32158 -0.12270 0.18269
v -0.34919 -0.14424 0.18252
v -0.31480 -0.13811 0.18500
v -0.25280 -0.11044 0.18767
v -0.23740 -0.09380 0.13277
v -0.26791 -0.09896 0.13054
v -0.32272 -0.12342 0.12818
v -0.34701 -0.14273 0.12807
v -0.31649 -0.13757 0.13031
v -0.26169 -0.11310 0.13266
v -0.25225 -0.09832 0.07742
v -0.27876 -0.10246 0.07544
v -0.32613 -0.12360 0.07341
v -0.34698 -0.14061 0.07336
v -0.32046 -0.13648 0.07534
v -0.27310 -0.11533 0.07737
v -0.12227 -0.05110 0.12990
v -0.15649 -0.05738 0.12596
v -0.21816 -0.08535 0.12038
v -0.24560 -0.10704 0.11874
v -0.21138 -0.10076 0.12269
v -0.14971 -0.07279 0.12827
v -0.13283 -0.05534 0.07098
v -0.16320 -0.06063 0.06746
v -0.21772 -0.08536 0.06253
v -0.24186 -0.10479 0.06112
v -0.21149 -0.09950 0.06465
v -0.15698 -0.07478 0.06958
v -0.14356 -0.05799 0.01190
v -0.16995 -0.06224 0.00880
v -0.21707 -0.08361 0.00454
v -0.23779 -0.10073 0.00337
v -0.21140 -0.09649 0.00647
v -0.16428 -0.07512 0.01073
v -0.00537 -0.00706 0.07269
v -0.03936 -0.01346 0.06722
v -0.10056 -0.04168 0.05859
v -0.12777 -0.06350 0.05544
v -0.09378 -0.05710 0.06091
v -0.03258 -0.02888 0.06953
v -0.00797 -0.00771 0.01079
v -0.03813 -0.01311 0.00592
v -0.09223 -0.03806 -0.00171
v -0.11617 -0.05761 -0.00446
v -0.08601 -0.05221 0.00042
v -0.03191 -0.02726 0.00804
v -0.00854 -0.00568 -0.05095
v -0.03475 -0.01002 -0.05521
v -0.08151 -0.03158 -0.06180
v -0.10206 -0.04880 -0.06413
v -0.07584 -0.04446 -0.05987
v -0.02909 -0.02290 -0.05328
v 0.13174 0.04647 0.01940
v 0.09806 0.03997 0.01235
v 0.03749 0.01155 0.00056
v 0.01059 -0.01037 -0.00418
v 0.04427 -0.00387 0.00287
v 0.10485 0.02455 0.01466
v 0.13984 0.05077 -0.04431
v 0.10995 0.04528 -0.05059
v 0.05640 0.02016 -0.06101
v 0.03274 0.00052 -0.06516
v 0.06262 0.00601 -0.05889
v 0.11617 0.03113 -0.04846
v 0.15003 0.05792 -0.10772
v 0.12406 0.05350 -0.11319
v 0.07778 0.03178 -0.12220
v 0.05747 0.01448 -0.12574
v 0.08345 0.01890 -0.12027
v 0.12973 0.04062 -0.11126
v 0.28074 0.10600 -0.02875
v 0.24746 0.09942 -0.03744
v 0.18768 0.07086 -0.05250
v 0.16118 0.04887 -0.05888
v 0.19446 0.05545 -0.05019
v 0.25424 0.08401 -0.03512
v 0.29640 0.11391 -0.09410
v 0.26686 0.10835 -0.10182
v 0.21402 0.08310 -0.11514
v 0.19071 0.06341 -0.12073
v 0.22024 0.06896 -0.11301
v 0.27309 0.09421 -0.09970
v 0.31185 0.12367 -0.15956
v 0.28618 0.11920 -0.16628
v 0.24051 0.09738 -0.17779
v 0.22051 0.08003 -0.18258
v 0.24618 0.08450 -0.17586
v 0.29185 0.10632 -0.16435
v 0.42427 0.16341 -0.07497
v 0.39148 0.15680 -0.08534
v 0.33268 0.12816 -0.10376
v 0.30667 0.10614 -0.11181
v 0.33946 0.11275 -0.10144
v 0.39826 0.14138 -0.08302
v 0.44088 0.17180 -0.14338
v 0.41178 0.16622 -0.15258
v 0.35980 0.14091 -0.16886
v 0.33693 0.12118 -0.17594
v 0.36603 0.12676 -0.16674
v 0.41800 0.15207 -0.15046
v 0.45423 0.18067 -0.21282
v 0.42894 0.17617 -0.22082
v 0.38402 0.15429 -0.23490
v 0.36439 0.13691 -0.24097
v 0.38968 0.14141 -0.23297
v 0.43460 0.16329 -0.21889
v 0.54944 0.21217 -0.12503
v 0.51723 0.20556 -0.13711
v 0.45961 0.17693 -0.15894
v 0.43419 0.15491 -0.16870
v 0.46640 0.16151 -0.15663
v 0.52402 0.19014 -0.13479
v 0.56228 0.21867 -0.19847
v 0.53370 0.21309 -0.20918
v 0.48276 0.18778 -0.22848
v 0.46041 0.16806 -0.23707
v 0.48899 0.17364 -0.22636
v 0.53993 0.19894 -0.20705
v 0.57042 0.22500 -0.27365
v 0.54558 0.22050 -0.28296
v 0.50156 0.19863 -0.29964
v 0.48238 0.18126 -0.30701
v 0.50722 0.18575 -0.29771
v 0.55124 0.20763 -0.28103
v -0.52774 -0.19253 0.29077
v -0.54041 -0.19262 0.29054
v -0.56175 -0.20187 0.29144
v -0.57042 -0.21104 0.29257
v -0.55776 -0.21094 0.29280
v -0.53642 -0.20169 0.29190
v -0.53876 -0.19869 0.26545
v -0.54660 -0.19745 0.26513
v -0.55886 -0.20276 0.26564
v -0.56327 -0.20932 0.26649
v -0.55543 -0.21056 0.26681
v -0.54317 -0.20525 0.26630
v -0.55169 -0.20545 0.24019
v -0.55300 -0.20494 0.24009
v -0.55484 -0.20574 0.24017
v -0.55535 -0.20704 0.24034
v -0.55404 -0.20755 0.24044
v -0.55220 -0.20675 0.24036
v -0.39281 -0.14247 0.22431
v -0.40545 -0.14263 0.22358
v -0.42675 -0.15201 0.22348
v -0.43541 -0.16124 0.22411
v -0.42276 -0.16108 0.22484
v -0.40146 -0.15169 0.22494
v -0.40306 -0.14845 0.19704
v -0.41090 -0.14725 0.19643
v -0.42313 -0.15264 0.19637
v -0.42753 -0.15923 0.19693
v -0.41970 -0.16044 0.19754
v -0.40746 -0.15505 0.19760
v -0.41446 -0.15469 0.16974
v -0.41578 -0.15419 0.16960
v -0.41761 -0.15500 0.16959
v -0.41812 -0.15631 0.16972
v -0.41681 -0.15681 0.16986
v -0.41498 -0.15600 0.16987
v -0.24900 -0.08848 0.15798
v -0.26160 -0.08870 0.15672
v -0.28282 -0.09821 0.15556
v -0.29143 -0.10750 0.15566
v -0.27883 -0.10728 0.15692
v -0.25761 -0.09777 0.15808
v -0.25550 -0.09295 0.12892
v -0.26330 -0.09178 0.12800
v -0.27549 -0.09724 0.12733
v -0.27987 -0.10387 0.12758
v -0.27206 -0.10504 0.12850
v -0.25987 -0.09958 0.12917
v -0.26272 -0.09747 0.09978
v -0.26403 -0.09698 0.09959
v -0.26585 -0.09779 0.09949
v -0.26636 -0.09911 0.09958
v -0.26505 -0.09961 0.09976
v -0.26323 -0.09879 0.09986
v -0.09306 -0.02891 0.09338
v -0.10560 -0.02918 0.09156
v -0.12667 -0.03880 0.08928
v -0.13522 -0.04814 0.08882
v -0.12268 -0.04786 0.09064
v -0.10161 -0.03825 0.09292
v -0.09636 -0.03206 0.06273
v -0.10413 -0.03092 0.06150
v -0.11623 -0.03644 0.06019
v -0.12057 -0.04310 0.06012
v -0.11280 -0.04424 0.06136
v -0.10070 -0.03872 0.06267
v -0.10100 -0.03555 0.03192
v -0.10230 -0.03506 0.03169
v -0.10411 -0.03588 0.03149
v -0.10462 -0.03720 0.03153
v -0.10331 -0.03770 0.03176
v -0.10150 -0.03687 0.03196
v 0.06251 0.03075 0.03039
v 0.05007 0.03044 0.02799
v 0.02920 0.02073 0.02454
v 0.02076 0.01135 0.02350
v 0.03319 0.01166 0.02590
v 0.05406 0.02137 0.02935
v 0.05914 0.02743 -0.00213
v 0.05143 0.02854 -0.00371
v 0.03944 0.02297 -0.00569
v 0.03516 0.01628 -0.00609
v 0.04287 0.01517 -0.00452
v 0.05486 0.02074 -0.00254
v 0.05365 0.02340 -0.03503
v 0.05235 0.02389 -0.03531
v 0.05056 0.02305 -0.03561
v 0.05006 0.02173 -0.03562
v 0.05136 0.02124 -0.03534
v 0.05315 0.02207 -0.03504
v 0.20752 0.08565 -0.03335
v 0.19522 0.08530 -0.03636
v 0.17461 0.07553 -0.04103
v 0.16630 0.06612 -0.04268
v 0.17860 0.06647 -0.03967
v 0.19921 0.07623 -0.03500
v 0.20324 0.08173 -0.06811
v 0.19561 0.08282 -0.07003
v 0.18377 0.07721 -0.07271
v 0.17957 0.07051 -0.07347
v 0.18720 0.06941 -0.07154
v 0.19904 0.07502 -0.06886
v 0.19708 0.07721 -0.10330
v 0.19580 0.07770 -0.10364
v 0.19403 0.07686 -0.10404
v 0.19354 0.07553 -0.10410
v 0.19483 0.07505 -0.10376
v 0.19660 0.07588 -0.10336
v 0.34995 0.13934 -0.09762
v 0.33783 0.13897 -0.10126
v 0.31756 0.12917 -0.10718
v 0.30942 0.11973 -0.10947
v 0.32155 0.12010 -0.10582
v 0.34182 0.12990 -0.09990
v 0.34814 0.13641 -0.13392
v 0.34061 0.13749 -0.13621
v 0.32897 0.13186 -0.13961
v 0.32486 0.12514 -0.14072
v 0.33240 0.12406 -0.13844
v 0.34404 0.12969 -0.13504
v 0.34544 0.13336 -0.17049
v 0.34417 0.13384 -0.17088
v 0.34243 0.13300 -0.17139
v 0.34196 0.13167 -0.17151
v 0.34323 0.13118 -0.17112
v 0.34497 0.13203 -0.17061
f 7 2 1
f 2 9 3
f 3 10 4
f 10 5 4
f 11 6 5
f 12 1 6
f 13 8 7
f 8 15 9
f 9 16 10
f 16 11 10
f 17 12 11
f 12 13 7
f 25 20 19
f 26 21 20
f 21 28 22
f 28 23 22
f 23 30 24
f 24 25 19
f 31 26 25
f 32 27 26
f 27 34 28
f 28 35 29
f 29 36 30
f 30 31 25
f 38 43 37
f 39 44 38
f 39 46 45
f 40 47 46
f 41 48 47
f 42 43 48
f 44 49 43
f 45 50 44
f 46 51 45
f 46 53 52
f 47 54 53
f 48 49 54
f 56 61 55
f 57 62 56
f 58 63 57
f 58 65 64
f 59 66 65
f 60 61 66
f 62 67 61
f 63 68 62
f 63 70 69
f 64 71 70
f 65 72 71
f 66 67 72
f 74 79 73
f 75 80 74
f 75 82 81
f 77 82 76
f 77 84 83
f 78 79 84
f 80 85 79
f 80 87 86
f 81 88 87
f 83 88 82
f 84 89 83
f 84 85 90
f 92 97 91
f 92 99 98
f 93 100 99
f 95 100 94
f 96 101 95
f 91 102 96
f 97 104 103
f 98 105 104
f 99 106 105
f 101 106 100
f 102 107 101
f 97 108 102
f 109 116 115
f 110 117 116
f 111 118 117
f 113 118 112
f 114 119 113
f 109 120 114
f 115 122 121
f 116 123 122
f 117 124 123
f 119 124 118
f 120 125 119
f 115 126 120
f 128 133 127
f 128 135 134
f 129 136 135
f 131 136 130
f 132 137 131
f 127 138 132
f 134 139 133
f 134 141 140
f 135 142 141
f 137 142 136
f 138 143 137
f 133 144 138
f 146 151 145
f 147 152 146
f 147 154 153
f 149 154 148
f 149 156 155
f 150 151 156
f 152 157 151
f 153 158 152
f 153 160 159
f 154 161 160
f 155 162 161
f 156 157 162
f 169 164 163
f 170 165 164
f 165 172 166
f 172 167 166
f 167 174 168
f 168 169 163
f 175 170 169
f 176 171 170
f 171 178 172
f 178 173 172
f 173 180 174
f 174 175 169
f 187 182 181
f 188 183 182
f 183 190 184
f 190 185 184
f 185 192 186
f 186 187 181
f 193 188 187
f 194 189 188
f 189 196 190
f 196 191 190
f 191 198 192
f 192 193 187
f 205 200 199
f 200 207 201
f 201 208 202
f 208 203 202
f 209 204 203
f 204 205 199
f 211 206 205
f 206 213 207
f 207 214 208
f 214 209 208
f 215 210 209
f 210 211 205
f 223 218 217
f 218 225 219
f 219 226 220
f 226 221 220
f 227 222 221
f 222 223 217
f 229 224 223
f 224 231 225
f 225 232 226
f 232 227 226
f 233 228 227
f 228 229 223
f 241 236 235
f 236 243 237
f 237 244 238
f 244 239 238
f 245 240 239
f 240 241 235
f 247 242 241
f 248 243 242
f 243 250 244
f 250 245 244
f 245 252 246
f 246 247 241
f 282 288 283
f 281 287 288
f 286 287 281
f 279 285 286
f 284 285 279
f 283 284 278
f 276 282 277
f 275 281 282
f 280 281 275
f 273 279 280
f 278 279 273
f 277 278 272
f 264 270 265
f 263 269 270
f 268 269 263
f 261 267 268
f 266 267 261
f 265 266 260
f 258 264 259
f 257 263 264
f 262 263 257
f 255 261 262
f 260 261 255
f 259 260 254
f 246 252 247
f 245 251 252
f 250 251 245
f 243 249 250
f 248 249 243
f 247 248 242
f 240 246 241
f 245 246 240
f 244 245 239
f 237 243 244
f 236 242 243
f 241 242 236
f 228 234 229
f 233 234 228
f 232 233 227
f 225 231 232
f 224 230 231
f 229 230 224
f 222 228 223
f 227 228 222
f 226 227 221
f 259 254 253
f 260 255 254
f 255 262 256
f 262 257 256
f 257 264 258
f 258 259 253
f 265 260 259
f 266 261 260
f 261 268 262
f 268 263 262
f 263 270 264
f 264 265 259
f 219 225 226
f 218 224 225
f 223 224 218
f 210 216 211
f 215 216 210
f 214 215 209
f 207 213 214
f 206 212 213
f 211 212 206
f 204 210 205
f 209 210 204
f 208 209 203
f 201 207 208
f 200 206 207
f 205 206 200
f 192 198 193
f 191 197 198
f 196 197 191
f 189 195 196
f 194 195 189
f 193 194 188
f 186 192 187
f 185 191 192
f 190 191 185
f 183 189 190
f 188 189 183
f 187 188 182
f 174 180 175
f 173 179 180
f 178 179 173
f 171 177 178
f 176 177 171
f 175 176 170
f 168 174 169
f 167 173 174
f 172 173 167
f 165 171 172
f 170 171 165
f 169 170 164
f 156 151 157
f 155 156 162
f 154 155 161
f 153 154 160
f 153 159 158
f 152 158 157
f 150 145 151
f 149 150 156
f 149 155 154
f 147 148 154
f 147 153 152
f 146 152 151
f 133 139 144
f 138 144 143
f 137 143 142
f 135 136 142
f 134 135 141
f 134 140 139
f 127 133 138
f 132 138 137
f 131 137 136
f 129 130 136
f 277 272 271
f 278 273 272
f 273 280 274
f 280 275 274
f 275 282 276
f 276 277 271
f 283 278 277
f 284 279 278
f 279 286 280
f 286 281 280
f 281 288 282
f 282 283 277
f 128 129 135
f 128 134 133
f 115 121 126
f 120 126 125
f 119 125 124
f 117 118 124
f 116 117 123
f 115 116 122
f 109 115 120
f 114 120 119
f 113 119 118
f 111 112 118
f 110 111 117
f 109 110 116
f 97 103 108
f 102 108 107
f 101 107 106
f 99 100 106
f 98 99 105
f 97 98 104
f 91 97 102
f 96 102 101
f 95 101 100
f 93 94 100
f 92 93 99
f 92 98 97
f 84 79 85
f 84 90 89
f 83 89 88
f 81 82 88
f 80 81 87
f 80 86 85
f 78 73 79
f 77 78 84
f 77 83 82
f 75 76 82
f 75 81 80
f 74 80 79
f 66 61 67
f 65 66 72
f 64 65 71
f 63 64 70
f 63 69 68
f 62 68 67
f 60 55 61
f 59 60 66
f 58 59 65
f 58 64 63
f 57 63 62
f 56 62 61
f 48 43 49
f 47 48 54
f 46 47 53
f 46 52 51
f 45 51 50
f 44 50 49
f 42 37 43
f 41 42 48
f 40 41 47
f 39 40 46
f 39 45 44
f 38 44 43
f 30 36 31
f 29 35 36
f 28 34 35
f 27 33 34
f 32 33 27
f 31 32 26
f 24 30 25
f 23 29 30
f 28 29 23
f 21 27 28
f 26 27 21
f 25 26 20
f 12 18 13
f 17 18 12
f 16 17 11
f 9 15 16
f 8 14 15
f 13 14 8
f 12 7 1
f 11 12 6
f 10 11 5
f 3 9 10
f 2 8 9
f 7 8 2
