# phoenix WingLeft_Amber.obj: Roblox cue frame, recentred on its bounding box
v -0.46767 -0.18803 0.31966
v -0.49430 -0.19191 0.31975
v -0.54189 -0.21253 0.32186
v -0.56285 -0.22928 0.32388
v -0.53623 -0.22541 0.32379
v -0.48863 -0.20478 0.32168
v -0.47777 -0.18920 0.27172
v -0.50023 -0.19202 0.27173
v -0.54004 -0.20928 0.27349
v -0.55739 -0.22371 0.27524
v -0.53493 -0.22088 0.27523
v -0.49512 -0.20363 0.27347
v -0.49163 -0.19064 0.22374
v -0.50972 -0.19232 0.22366
v -0.54135 -0.20603 0.22506
v -0.55489 -0.21805 0.22654
v -0.53680 -0.21637 0.22661
v -0.50517 -0.20266 0.22521
v -0.50971 -0.19253 0.17575
v -0.52314 -0.19295 0.17558
v -0.54601 -0.20286 0.17659
v -0.55544 -0.21235 0.17778
v -0.54202 -0.21193 0.17795
v -0.51915 -0.20202 0.17694
v -0.36085 -0.14825 0.25601
v -0.38745 -0.15226 0.25509
v -0.43497 -0.17315 0.25518
v -0.45589 -0.19004 0.25619
v -0.42930 -0.18603 0.25711
v -0.38178 -0.16513 0.25702
v -0.37670 -0.15177 0.20444
v -0.39913 -0.15471 0.20360
v -0.43888 -0.17219 0.20368
v -0.45620 -0.18673 0.20459
v -0.43377 -0.18380 0.20542
v -0.39402 -0.16632 0.20535
v -0.39596 -0.15534 0.15268
v -0.41402 -0.15711 0.15194
v -0.44560 -0.17100 0.15200
v -0.45912 -0.18311 0.15280
v -0.44105 -0.18134 0.15355
v -0.40947 -0.16745 0.15349
v -0.41819 -0.15875 0.10075
v -0.43160 -0.15923 0.10009
v -0.45443 -0.16927 0.10014
v -0.46385 -0.17883 0.10084
v -0.45044 -0.17834 0.10150
v -0.42761 -0.16830 0.10145
v -0.26319 -0.11265 0.19128
v -0.28971 -0.11678 0.18930
v -0.33707 -0.13793 0.18727
v -0.35792 -0.15494 0.18721
v -0.33141 -0.15081 0.18920
v -0.28404 -0.12966 0.19123
v -0.27994 -0.11647 0.13568
v -0.30231 -0.11951 0.13396
v -0.34193 -0.13719 0.13226
v -0.35918 -0.15184 0.13228
v -0.33682 -0.14880 0.13400
v -0.29720 -0.13111 0.13570
v -0.29769 -0.11917 0.07986
v -0.31570 -0.12102 0.07841
v -0.34718 -0.13507 0.07706
v -0.36064 -0.14727 0.07716
v -0.34263 -0.14541 0.07861
v -0.31115 -0.13136 0.07996
v -0.31549 -0.12033 0.02387
v -0.32886 -0.12087 0.02270
v -0.35162 -0.13103 0.02172
v -0.36100 -0.14065 0.02191
v -0.34763 -0.14010 0.02308
v -0.32487 -0.12994 0.02406
v -0.15451 -0.07232 0.12576
v -0.18090 -0.07657 0.12266
v -0.22801 -0.09794 0.11840
v -0.24874 -0.11506 0.11723
v -0.22235 -0.11081 0.12033
v -0.17523 -0.08944 0.12459
v -0.16438 -0.07293 0.06660
v -0.18664 -0.07607 0.06394
v -0.22606 -0.09394 0.06038
v -0.24321 -0.10868 0.05947
v -0.22095 -0.10555 0.06212
v -0.18154 -0.08767 0.06568
v -0.17254 -0.07110 0.00744
v -0.19046 -0.07303 0.00525
v -0.22177 -0.08723 0.00242
v -0.23516 -0.09950 0.00178
v -0.21723 -0.09757 0.00397
v -0.18592 -0.08337 0.00680
v -0.17835 -0.06655 -0.05166
v -0.19167 -0.06715 -0.05336
v -0.21430 -0.07742 -0.05541
v -0.22363 -0.08709 -0.05575
v -0.21031 -0.08649 -0.05405
v -0.18768 -0.07622 -0.05200
v -0.01949 -0.02000 0.06291
v -0.04570 -0.02435 0.05865
v -0.09246 -0.04591 0.05206
v -0.11300 -0.06313 0.04973
v -0.08679 -0.05879 0.05399
v -0.04003 -0.03722 0.06058
v -0.01757 -0.01506 0.00140
v -0.03968 -0.01828 -0.00223
v -0.07880 -0.03632 -0.00774
v -0.09580 -0.05114 -0.00963
v -0.07369 -0.04792 -0.00600
v -0.03457 -0.02989 -0.00049
v -0.01311 -0.00719 -0.05989
v -0.03092 -0.00919 -0.06285
v -0.06199 -0.02352 -0.06723
v -0.07525 -0.03585 -0.06865
v -0.05744 -0.03385 -0.06568
v -0.02637 -0.01952 -0.06130
v -0.00648 0.00343 -0.12100
v -0.01971 0.00279 -0.12326
v -0.04218 -0.00757 -0.12643
v -0.05141 -0.01728 -0.12733
v -0.03819 -0.01664 -0.12507
v -0.01572 -0.00628 -0.12190
v 0.13909 0.04359 0.00614
v 0.11311 0.03917 0.00067
v 0.06683 0.01745 -0.00834
v 0.04653 0.00016 -0.01188
v 0.07250 0.00458 -0.00641
v 0.11878 0.02629 0.00260
v 0.15083 0.05331 -0.05706
v 0.12892 0.05003 -0.06170
v 0.09021 0.03187 -0.06924
v 0.07340 0.01698 -0.07213
v 0.09531 0.02026 -0.06749
v 0.13403 0.03843 -0.05996
v 0.16317 0.06518 -0.12024
v 0.14552 0.06313 -0.12401
v 0.11476 0.04870 -0.13000
v 0.10166 0.03631 -0.13222
v 0.11931 0.03836 -0.12845
v 0.15007 0.05279 -0.12246
v 0.17479 0.07856 -0.18367
v 0.16168 0.07788 -0.18651
v 0.13944 0.06744 -0.19084
v 0.13032 0.05769 -0.19233
v 0.14343 0.05838 -0.18948
v 0.16567 0.06881 -0.18515
v 0.30091 0.10935 -0.04570
v 0.27524 0.10487 -0.05242
v 0.22957 0.08305 -0.06393
v 0.20956 0.06570 -0.06872
v 0.23523 0.07017 -0.06200
v 0.28090 0.09200 -0.05049
v 0.31490 0.12037 -0.11160
v 0.29324 0.11705 -0.11729
v 0.25503 0.09879 -0.12691
v 0.23849 0.08386 -0.13086
v 0.26014 0.08719 -0.12517
v 0.29835 0.10544 -0.11554
v 0.32605 0.13200 -0.17828
v 0.30860 0.12992 -0.18288
v 0.27825 0.11541 -0.19053
v 0.26535 0.10299 -0.19358
v 0.28280 0.10508 -0.18898
v 0.31315 0.11958 -0.18133
v 0.33297 0.14356 -0.24608
v 0.32000 0.14285 -0.24953
v 0.29806 0.13237 -0.25506
v 0.28908 0.12259 -0.25714
v 0.30205 0.12330 -0.25370
v 0.32399 0.13379 -0.24817
v 0.44329 0.16634 -0.09896
v 0.41799 0.16184 -0.10697
v 0.37307 0.13996 -0.12104
v 0.35344 0.12258 -0.12711
v 0.37874 0.12708 -0.11911
v 0.42366 0.14896 -0.10503
v 0.45232 0.17516 -0.16978
v 0.43098 0.17181 -0.17654
v 0.39340 0.15351 -0.18831
v 0.37716 0.13856 -0.19333
v 0.39851 0.14190 -0.18657
v 0.43608 0.16021 -0.17480
v 0.45622 0.18354 -0.24223
v 0.43902 0.18144 -0.24769
v 0.40916 0.16690 -0.25704
v 0.39651 0.15446 -0.26094
v 0.41371 0.15656 -0.25549
v 0.44356 0.17110 -0.24614
v 0.45446 0.19122 -0.31648
v 0.44167 0.19050 -0.32054
v 0.42009 0.17999 -0.32730
v 0.41129 0.17020 -0.33000
v 0.42408 0.17092 -0.32594
v 0.44566 0.18143 -0.31918
v 0.55948 0.21067 -0.15979
v 0.53463 0.20617 -0.16910
v 0.49061 0.18430 -0.18578
v 0.47143 0.16693 -0.19315
v 0.49628 0.17143 -0.18385
v 0.54030 0.19330 -0.16717
v 0.56285 0.21680 -0.23675
v 0.54189 0.21345 -0.24460
v 0.50506 0.19516 -0.25855
v 0.48920 0.18021 -0.26466
v 0.51017 0.18355 -0.25681
v 0.54699 0.20185 -0.24286
v 0.56180 0.22289 -0.31536
v 0.54490 0.22079 -0.32168
v 0.51565 0.20625 -0.33276
v 0.50329 0.19382 -0.33753
v 0.52020 0.19592 -0.33121
v 0.54945 0.21045 -0.32013
v 0.55702 0.22928 -0.39536
v 0.54445 0.22856 -0.40004
v 0.52330 0.21805 -0.40806
v 0.51472 0.20826 -0.41138
v 0.52729 0.20898 -0.40670
v 0.54844 0.21949 -0.39868
v 0.14262 0.06007 0.41138
v 0.13515 0.06582 0.39817
v 0.12818 0.05920 0.37445
v 0.12869 0.04682 0.36395
v 0.13616 0.04106 0.37717
v 0.14313 0.04769 0.40089
v 0.22250 0.08960 0.37399
v 0.21614 0.09513 0.36334
v 0.21060 0.08987 0.34450
v 0.21142 0.07908 0.33631
v 0.21778 0.07354 0.34695
v 0.22332 0.07881 0.36579
v 0.30227 0.11904 0.33625
v 0.29707 0.12439 0.32835
v 0.29307 0.12058 0.31473
v 0.29426 0.11143 0.30901
v 0.29945 0.10608 0.31690
v 0.30346 0.10988 0.33052
v 0.38187 0.14831 0.29793
v 0.37792 0.15357 0.29306
v 0.37562 0.15138 0.28524
v 0.37727 0.14394 0.28228
v 0.38121 0.13869 0.28715
v 0.38351 0.14087 0.29497
f 7 2 1
f 2 9 3
f 3 10 4
f 10 5 4
f 11 6 5
f 6 7 1
f 13 8 7
f 14 9 8
f 9 16 10
f 16 11 10
f 11 18 12
f 12 13 7
f 19 14 13
f 20 15 14
f 15 22 16
f 16 23 17
f 17 24 18
f 18 19 13
f 31 26 25
f 32 27 26
f 27 34 28
f 28 35 29
f 29 36 30
f 30 31 25
f 37 32 31
f 38 33 32
f 33 40 34
f 34 41 35
f 35 42 36
f 36 37 31
f 43 38 37
f 44 39 38
f 45 40 39
f 40 47 41
f 41 48 42
f 42 43 37
f 50 55 49
f 51 56 50
f 52 57 51
f 52 59 58
f 53 60 59
f 54 55 60
f 56 61 55
f 57 62 56
f 58 63 57
f 58 65 64
f 59 66 65
f 60 61 66
f 62 67 61
f 63 68 62
f 63 70 69
f 64 71 70
f 65 72 71
f 66 67 72
f 74 79 73
f 75 80 74
f 75 82 81
f 76 83 82
f 77 84 83
f 78 79 84
f 80 85 79
f 81 86 80
f 81 88 87
f 82 89 88
f 83 90 89
f 84 85 90
f 86 91 85
f 86 93 92
f 87 94 93
f 89 94 88
f 90 95 89
f 90 91 96
f 98 103 97
f 98 105 104
f 99 106 105
f 101 106 100
f 102 107 101
f 97 108 102
f 104 109 103
f 104 111 110
f 105 112 111
f 107 112 106
f 108 113 107
f 103 114 108
f 110 115 109
f 110 117 116
f 111 118 117
f 113 118 112
f 114 119 113
f 109 120 114
f 121 128 127
f 122 129 128
f 123 130 129
f 125 130 124
f 126 131 125
f 121 132 126
f 127 134 133
f 128 135 134
f 129 136 135
f 131 136 130
f 132 137 131
f 127 138 132
f 133 140 139
f 134 141 140
f 135 142 141
f 137 142 136
f 138 143 137
f 133 144 138
f 145 152 151
f 146 153 152
f 147 154 153
f 149 154 148
f 150 155 149
f 145 156 150
f 152 157 151
f 152 159 158
f 153 160 159
f 155 160 154
f 156 161 155
f 151 162 156
f 158 163 157
f 158 165 164
f 159 166 165
f 161 166 160
f 162 167 161
f 157 168 162
f 170 175 169
f 170 177 176
f 171 178 177
f 173 178 172
f 174 179 173
f 174 175 180
f 176 181 175
f 177 182 176
f 177 184 183
f 178 185 184
f 179 186 185
f 180 181 186
f 182 187 181
f 183 188 182
f 183 190 189
f 184 191 190
f 185 192 191
f 186 187 192
f 194 199 193
f 195 200 194
f 196 201 195
f 196 203 202
f 197 204 203
f 198 199 204
f 200 205 199
f 201 206 200
f 202 207 201
f 202 209 208
f 203 210 209
f 204 205 210
f 206 211 205
f 207 212 206
f 208 213 207
f 208 215 214
f 209 216 215
f 210 211 216
f 234 240 235
f 233 239 240
f 238 239 233
f 231 237 238
f 236 237 231
f 235 236 230
f 228 234 229
f 233 234 228
f 232 233 227
f 225 231 232
f 224 230 231
f 229 230 224
f 222 228 223
f 221 227 228
f 226 227 221
f 219 225 226
f 218 224 225
f 223 224 218
f 210 205 211
f 209 210 216
f 208 209 215
f 208 214 213
f 207 213 212
f 206 212 211
f 204 199 205
f 203 204 210
f 202 203 209
f 202 208 207
f 201 207 206
f 200 206 205
f 198 193 199
f 197 198 204
f 196 197 203
f 196 202 201
f 195 201 200
f 194 200 199
f 186 181 187
f 185 186 192
f 184 185 191
f 183 184 190
f 183 189 188
f 182 188 187
f 180 175 181
f 179 180 186
f 178 179 185
f 177 178 184
f 177 183 182
f 176 182 181
f 174 169 175
f 174 180 179
f 173 179 178
f 171 172 178
f 170 171 177
f 170 176 175
f 157 163 168
f 162 168 167
f 161 167 166
f 159 160 166
f 158 159 165
f 158 164 163
f 151 157 162
f 156 162 161
f 155 161 160
f 153 154 160
f 152 153 159
f 152 158 157
f 145 151 156
f 150 156 155
f 149 155 154
f 147 148 154
f 146 147 153
f 145 146 152
f 133 139 144
f 138 144 143
f 137 143 142
f 135 136 142
f 134 135 141
f 133 134 140
f 127 133 138
f 132 138 137
f 131 137 136
f 129 130 136
f 128 129 135
f 127 128 134
f 121 127 132
f 126 132 131
f 125 131 130
f 123 124 130
f 122 123 129
f 121 122 128
f 109 115 120
f 114 120 119
f 113 119 118
f 111 112 118
f 110 111 117
f 110 116 115
f 103 109 114
f 108 114 113
f 107 113 112
f 105 106 112
f 104 105 111
f 104 110 109
f 97 103 108
f 102 108 107
f 101 107 106
f 99 100 106
f 98 99 105
f 98 104 103
f 90 85 91
f 90 96 95
f 89 95 94
f 87 88 94
f 86 87 93
f 86 92 91
f 84 79 85
f 83 84 90
f 82 83 89
f 81 82 88
f 81 87 86
f 80 86 85
f 78 73 79
f 77 78 84
f 76 77 83
f 75 76 82
f 75 81 80
f 74 80 79
f 66 61 67
f 65 66 72
f 64 65 71
f 63 64 70
f 63 69 68
f 62 68 67
f 60 55 61
f 59 60 66
f 58 59 65
f 58 64 63
f 57 63 62
f 56 62 61
f 54 49 55
f 53 54 60
f 52 53 59
f 52 58 57
f 51 57 56
f 50 56 55
f 42 48 43
f 41 47 48
f 40 46 47
f 45 46 40
f 44 45 39
f 43 44 38
f 36 42 37
f 35 41 42
f 34 40 41
f 33 39 40
f 38 39 33
f 37 38 32
f 30 36 31
f 29 35 36
f 28 34 35
f 27 33 34
f 32 33 27
f 31 32 26
f 18 24 19
f 17 23 24
f 16 22 23
f 15 21 22
f 20 21 15
f 19 20 14
f 12 18 13
f 11 17 18
f 16 17 11
f 9 15 16
f 14 15 9
f 223 218 217
f 218 225 219
f 219 226 220
f 226 221 220
f 221 228 222
f 222 223 217
f 229 224 223
f 224 231 225
f 225 232 226
f 232 227 226
f 233 228 227
f 228 229 223
f 235 230 229
f 236 231 230
f 231 238 232
f 238 233 232
f 233 240 234
f 234 235 229
f 13 14 8
f 6 12 7
f 11 12 6
f 10 11 5
f 3 9 10
f 2 8 9
f 7 8 2
