# phoenix WingLeft_Gold.obj: Roblox cue frame, recentred on its bounding box
v -0.50649 -0.20895 0.30653
v -0.51992 -0.20937 0.30636
v -0.54278 -0.21928 0.30737
v -0.55222 -0.22877 0.30856
v -0.53879 -0.22835 0.30873
v -0.51593 -0.21844 0.30772
v -0.52914 -0.21146 0.25856
v -0.53742 -0.21041 0.25826
v -0.55055 -0.21610 0.25884
v -0.55540 -0.22284 0.25972
v -0.54712 -0.22390 0.26001
v -0.53399 -0.21820 0.25943
v -0.55657 -0.21468 0.21060
v -0.55789 -0.21417 0.21050
v -0.55972 -0.21496 0.21058
v -0.56024 -0.21626 0.21076
v -0.55892 -0.21677 0.21085
v -0.55709 -0.21598 0.21077
v -0.41497 -0.17517 0.23153
v -0.42838 -0.17565 0.23087
v -0.45121 -0.18569 0.23092
v -0.46063 -0.19524 0.23162
v -0.44722 -0.19476 0.23228
v -0.42439 -0.18472 0.23223
v -0.43967 -0.17820 0.17942
v -0.44794 -0.17718 0.17884
v -0.46106 -0.18295 0.17887
v -0.46590 -0.18973 0.17947
v -0.45763 -0.19075 0.18004
v -0.44451 -0.18498 0.18001
v -0.46635 -0.18064 0.12712
v -0.46767 -0.18013 0.12699
v -0.46950 -0.18094 0.12699
v -0.47001 -0.18225 0.12713
v -0.46870 -0.18275 0.12726
v -0.46687 -0.18195 0.12726
v -0.31227 -0.13675 0.15464
v -0.32564 -0.13729 0.15348
v -0.34840 -0.14745 0.15250
v -0.35778 -0.15706 0.15269
v -0.34441 -0.15652 0.15386
v -0.32165 -0.14636 0.15484
v -0.32939 -0.13604 0.09851
v -0.33764 -0.13506 0.09765
v -0.35071 -0.14090 0.09709
v -0.35553 -0.14771 0.09739
v -0.34728 -0.14870 0.09826
v -0.33421 -0.14286 0.09882
v -0.34539 -0.13328 0.04226
v -0.34670 -0.13278 0.04208
v -0.34853 -0.13360 0.04200
v -0.34904 -0.13491 0.04210
v -0.34773 -0.13541 0.04227
v -0.34591 -0.13460 0.04235
v -0.17513 -0.08297 0.07912
v -0.18845 -0.08357 0.07742
v -0.21108 -0.09384 0.07537
v -0.22041 -0.10350 0.07503
v -0.20709 -0.10290 0.07673
v -0.18446 -0.09264 0.07878
v -0.17853 -0.07566 0.02009
v -0.18675 -0.07471 0.01892
v -0.19975 -0.08061 0.01774
v -0.20453 -0.08746 0.01774
v -0.19632 -0.08841 0.01891
v -0.18331 -0.08251 0.02009
v -0.17998 -0.06582 -0.03892
v -0.18128 -0.06532 -0.03914
v -0.18310 -0.06614 -0.03930
v -0.18361 -0.06746 -0.03925
v -0.18230 -0.06796 -0.03903
v -0.18048 -0.06713 -0.03887
v -0.00326 -0.01298 0.00978
v -0.01649 -0.01363 0.00751
v -0.03895 -0.02399 0.00435
v -0.04819 -0.03370 0.00344
v -0.03496 -0.03306 0.00571
v -0.01250 -0.02270 0.00887
v 0.00451 -0.00007 -0.05130
v -0.00366 0.00085 -0.05279
v -0.01656 -0.00510 -0.05461
v -0.02130 -0.01197 -0.05494
v -0.01313 -0.01289 -0.05344
v -0.00023 -0.00694 -0.05162
v 0.01187 0.01441 -0.11256
v 0.01057 0.01490 -0.11283
v 0.00877 0.01407 -0.11308
v 0.00827 0.01275 -0.11307
v 0.00957 0.01226 -0.11281
v 0.01137 0.01309 -0.11256
v 0.17801 0.06214 -0.05289
v 0.16490 0.06146 -0.05574
v 0.14266 0.05103 -0.06007
v 0.13354 0.04128 -0.06155
v 0.14665 0.04196 -0.05871
v 0.16889 0.05239 -0.05438
v 0.18721 0.07625 -0.11689
v 0.17911 0.07715 -0.11872
v 0.16634 0.07116 -0.12120
v 0.16167 0.06426 -0.12186
v 0.16977 0.06336 -0.12003
v 0.18254 0.06935 -0.11755
v 0.19200 0.09014 -0.18184
v 0.19071 0.09063 -0.18215
v 0.18893 0.08979 -0.18250
v 0.18844 0.08847 -0.18253
v 0.18973 0.08798 -0.18222
v 0.19151 0.08882 -0.18188
v 0.33619 0.12714 -0.11530
v 0.32322 0.12644 -0.11875
v 0.30128 0.11595 -0.12428
v 0.29230 0.10618 -0.12637
v 0.30527 0.10688 -0.12292
v 0.32721 0.11737 -0.11739
v 0.33746 0.13796 -0.18460
v 0.32944 0.13885 -0.18677
v 0.31684 0.13283 -0.18995
v 0.31225 0.12592 -0.19095
v 0.32027 0.12503 -0.18878
v 0.33287 0.13105 -0.18560
v 0.33176 0.14742 -0.25571
v 0.33048 0.14790 -0.25607
v 0.32872 0.14706 -0.25651
v 0.32824 0.14573 -0.25660
v 0.32952 0.14525 -0.25624
v 0.33128 0.14609 -0.25580
v 0.45768 0.17481 -0.18570
v 0.44489 0.17408 -0.18976
v 0.42331 0.16357 -0.19652
v 0.41451 0.15378 -0.19922
v 0.42730 0.15451 -0.19516
v 0.44888 0.16502 -0.18840
v 0.44998 0.18166 -0.26182
v 0.44207 0.18254 -0.26435
v 0.42967 0.17650 -0.26823
v 0.42519 0.16958 -0.26959
v 0.43310 0.16870 -0.26706
v 0.44550 0.17474 -0.26318
v 0.43632 0.18766 -0.33984
v 0.43506 0.18815 -0.34024
v 0.43333 0.18731 -0.34079
v 0.43286 0.18598 -0.34092
v 0.43413 0.18549 -0.34051
v 0.43586 0.18634 -0.33997
v 0.56024 0.21286 -0.26458
v 0.54767 0.21214 -0.26926
v 0.52652 0.20164 -0.27728
v 0.51794 0.19185 -0.28061
v 0.53051 0.19257 -0.27592
v 0.55166 0.20308 -0.26790
v 0.55256 0.21998 -0.34564
v 0.54477 0.22086 -0.34853
v 0.53262 0.21483 -0.35313
v 0.52826 0.20791 -0.35485
v 0.53605 0.20703 -0.35196
v 0.54820 0.21307 -0.34736
v 0.54290 0.22828 -0.42742
v 0.54166 0.22877 -0.42788
v 0.53996 0.22793 -0.42852
v 0.53951 0.22660 -0.42871
v 0.54076 0.22611 -0.42825
v 0.54245 0.22696 -0.42761
v 0.38509 0.13190 0.42871
v 0.38114 0.13715 0.42384
v 0.37884 0.13497 0.41602
v 0.38049 0.12753 0.41306
v 0.38443 0.12227 0.41792
v 0.38673 0.12445 0.42575
v 0.46463 0.16112 0.39021
v 0.46396 0.16177 0.38915
v 0.46342 0.16125 0.38730
v 0.46355 0.16009 0.38651
v 0.46422 0.15944 0.38757
v 0.46476 0.15996 0.38942
f 7 2 1
f 8 3 2
f 3 10 4
f 4 11 5
f 5 12 6
f 6 7 1
f 13 8 7
f 14 9 8
f 9 16 10
f 10 17 11
f 11 18 12
f 12 13 7
f 25 20 19
f 26 21 20
f 21 28 22
f 22 29 23
f 23 30 24
f 24 25 19
f 31 26 25
f 32 27 26
f 27 34 28
f 28 35 29
f 29 36 30
f 30 31 25
f 38 43 37
f 39 44 38
f 39 46 45
f 40 47 46
f 41 48 47
f 42 43 48
f 44 49 43
f 45 50 44
f 45 52 51
f 46 53 52
f 47 54 53
f 43 54 48
f 56 61 55
f 56 63 62
f 57 64 63
f 59 64 58
f 60 65 59
f 55 66 60
f 62 67 61
f 62 69 68
f 63 70 69
f 65 70 64
f 66 71 65
f 61 72 66
f 74 79 73
f 74 81 80
f 75 82 81
f 77 82 76
f 78 83 77
f 73 84 78
f 80 85 79
f 80 87 86
f 81 88 87
f 83 88 82
f 84 89 83
f 79 90 84
f 92 97 91
f 92 99 98
f 93 100 99
f 95 100 94
f 96 101 95
f 91 102 96
f 98 103 97
f 98 105 104
f 99 106 105
f 101 106 100
f 102 107 101
f 97 108 102
f 110 115 109
f 110 117 116
f 111 118 117
f 112 119 118
f 114 119 113
f 109 120 114
f 116 121 115
f 117 122 116
f 117 124 123
f 118 125 124
f 119 126 125
f 115 126 120
f 128 133 127
f 129 134 128
f 129 136 135
f 130 137 136
f 131 138 137
f 132 133 138
f 134 139 133
f 135 140 134
f 135 142 141
f 136 143 142
f 137 144 143
f 138 139 144
f 146 151 145
f 147 152 146
f 148 153 147
f 148 155 154
f 149 156 155
f 150 151 156
f 152 157 151
f 153 158 152
f 153 160 159
f 154 161 160
f 155 162 161
f 156 157 162
f 168 174 169
f 173 174 168
f 172 173 167
f 165 171 172
f 170 171 165
f 169 170 164
f 156 151 157
f 155 156 162
f 154 155 161
f 153 154 160
f 153 159 158
f 152 158 157
f 150 145 151
f 149 150 156
f 148 149 155
f 148 154 153
f 147 153 152
f 146 152 151
f 138 133 139
f 137 138 144
f 136 137 143
f 135 136 142
f 135 141 140
f 134 140 139
f 132 127 133
f 131 132 138
f 130 131 137
f 129 130 136
f 129 135 134
f 128 134 133
f 115 121 126
f 119 120 126
f 118 119 125
f 117 118 124
f 117 123 122
f 116 122 121
f 109 115 120
f 114 120 119
f 112 113 119
f 111 112 118
f 110 111 117
f 110 116 115
f 97 103 108
f 102 108 107
f 101 107 106
f 99 100 106
f 98 99 105
f 98 104 103
f 91 97 102
f 96 102 101
f 95 101 100
f 93 94 100
f 92 93 99
f 92 98 97
f 79 85 90
f 84 90 89
f 83 89 88
f 81 82 88
f 80 81 87
f 80 86 85
f 73 79 84
f 78 84 83
f 77 83 82
f 75 76 82
f 74 75 81
f 74 80 79
f 61 67 72
f 66 72 71
f 65 71 70
f 63 64 70
f 62 63 69
f 62 68 67
f 55 61 66
f 60 66 65
f 59 65 64
f 57 58 64
f 56 57 63
f 56 62 61
f 43 49 54
f 47 48 54
f 46 47 53
f 45 46 52
f 45 51 50
f 44 50 49
f 42 37 43
f 41 42 48
f 40 41 47
f 39 40 46
f 39 45 44
f 38 44 43
f 30 36 31
f 29 35 36
f 28 34 35
f 27 33 34
f 32 33 27
f 31 32 26
f 24 30 25
f 23 29 30
f 22 28 29
f 21 27 28
f 26 27 21
f 25 26 20
f 12 18 13
f 11 17 18
f 10 16 17
f 9 15 16
f 14 15 9
f 13 14 8
f 6 12 7
f 5 11 12
f 4 10 11
f 3 9 10
f 8 9 3
f 169 164 163
f 170 165 164
f 165 172 166
f 172 167 166
f 173 168 167
f 168 169 163
f 7 8 2
