# phoenix WingRight_Amber.obj: Roblox cue frame, recentred on its bounding box
v 0.60787 -0.25142 0.31809
v 0.58691 -0.23467 0.31607
v 0.53932 -0.21404 0.31396
v 0.51269 -0.21017 0.31388
v 0.53365 -0.22692 0.31589
v 0.58124 -0.24754 0.31800
v 0.60371 -0.24641 0.26951
v 0.58636 -0.23198 0.26776
v 0.54655 -0.21473 0.26599
v 0.52409 -0.21190 0.26598
v 0.54144 -0.22633 0.26774
v 0.58125 -0.24358 0.26950
v 0.59679 -0.23884 0.22061
v 0.58325 -0.22681 0.21914
v 0.55162 -0.21311 0.21774
v 0.53354 -0.21142 0.21781
v 0.54708 -0.22345 0.21929
v 0.57870 -0.23715 0.22069
v 0.58666 -0.22851 0.17138
v 0.57723 -0.21902 0.17019
v 0.55436 -0.20911 0.16918
v 0.54093 -0.20869 0.16936
v 0.55037 -0.21818 0.17054
v 0.57324 -0.22809 0.17155
v 0.47121 -0.19945 0.24811
v 0.45029 -0.18256 0.24709
v 0.40277 -0.16167 0.24700
v 0.37617 -0.15766 0.24792
v 0.39710 -0.17455 0.24894
v 0.44462 -0.19544 0.24903
v 0.45807 -0.19023 0.19648
v 0.44075 -0.17569 0.19557
v 0.40100 -0.15821 0.19549
v 0.37857 -0.15527 0.19632
v 0.39589 -0.16982 0.19723
v 0.43564 -0.18729 0.19731
v 0.44259 -0.17852 0.14466
v 0.42907 -0.16641 0.14385
v 0.39749 -0.15252 0.14379
v 0.37943 -0.15075 0.14454
v 0.39294 -0.16286 0.14534
v 0.42452 -0.17675 0.14540
v 0.42521 -0.16451 0.09265
v 0.41579 -0.15496 0.09195
v 0.39296 -0.14492 0.09190
v 0.37955 -0.14444 0.09256
v 0.38897 -0.15399 0.09326
v 0.41180 -0.16403 0.09331
v 0.32075 -0.14108 0.18034
v 0.29990 -0.12407 0.18039
v 0.25254 -0.10292 0.18242
v 0.22602 -0.09879 0.18440
v 0.24687 -0.11580 0.18435
v 0.29424 -0.13694 0.18232
v 0.30280 -0.12940 0.12622
v 0.28555 -0.11475 0.12620
v 0.24592 -0.09707 0.12790
v 0.22356 -0.09402 0.12962
v 0.24082 -0.10867 0.12965
v 0.28044 -0.12636 0.12794
v 0.28500 -0.11623 0.07193
v 0.27154 -0.10404 0.07183
v 0.24006 -0.08998 0.07318
v 0.22205 -0.08813 0.07463
v 0.23551 -0.10032 0.07473
v 0.26699 -0.11437 0.07338
v 0.26830 -0.10199 0.01742
v 0.25892 -0.09238 0.01723
v 0.23616 -0.08222 0.01821
v 0.22279 -0.08167 0.01937
v 0.23217 -0.09129 0.01957
v 0.25493 -0.10145 0.01859
v 0.17647 -0.08507 0.11492
v 0.15575 -0.06795 0.11609
v 0.10863 -0.04658 0.12035
v 0.08224 -0.04233 0.12345
v 0.10296 -0.05945 0.12228
v 0.15008 -0.08082 0.11802
v 0.16080 -0.07409 0.05807
v 0.14365 -0.05935 0.05898
v 0.10423 -0.04148 0.06255
v 0.08197 -0.03834 0.06520
v 0.09913 -0.05308 0.06429
v 0.13854 -0.07096 0.06073
v 0.14807 -0.06279 0.00080
v 0.13469 -0.05052 0.00144
v 0.10338 -0.03632 0.00428
v 0.08545 -0.03439 0.00647
v 0.09883 -0.04666 0.00583
v 0.13014 -0.06086 0.00300
v 0.13890 -0.05144 -0.05694
v 0.12957 -0.04178 -0.05659
v 0.10694 -0.03151 -0.05455
v 0.09362 -0.03091 -0.05284
v 0.10295 -0.04058 -0.05319
v 0.12558 -0.05084 -0.05523
v 0.05353 -0.03855 0.04887
v 0.03298 -0.02133 0.05120
v -0.01378 0.00023 0.05779
v -0.03999 0.00457 0.06205
v -0.01944 -0.01265 0.05972
v 0.02732 -0.03421 0.05313
v 0.04435 -0.03026 -0.01163
v 0.02734 -0.01544 -0.00974
v -0.01177 0.00260 -0.00423
v -0.03388 0.00582 -0.00060
v -0.01688 -0.00901 -0.00249
v 0.02224 -0.02704 -0.00800
v 0.03900 -0.02198 -0.07279
v 0.02574 -0.00965 -0.07138
v -0.00533 0.00468 -0.06700
v -0.02314 0.00668 -0.06403
v -0.00988 -0.00566 -0.06544
v 0.02119 -0.01998 -0.06982
v 0.03710 -0.01353 -0.13457
v 0.02786 -0.00382 -0.13366
v 0.00540 0.00654 -0.13050
v -0.00783 0.00719 -0.12823
v 0.00141 -0.00253 -0.12914
v 0.02387 -0.01288 -0.13230
v -0.05093 -0.00069 -0.02070
v -0.07123 0.01661 -0.01716
v -0.11752 0.03832 -0.00815
v -0.14349 0.04274 -0.00268
v -0.12318 0.02545 -0.00622
v -0.07690 0.00373 -0.01523
v -0.05631 0.00605 -0.08514
v -0.07311 0.02094 -0.08224
v -0.11183 0.03910 -0.07470
v -0.13374 0.04238 -0.07006
v -0.11694 0.02750 -0.07296
v -0.07822 0.00933 -0.08050
v -0.05974 0.01374 -0.15006
v -0.07285 0.02612 -0.14784
v -0.10360 0.04055 -0.14185
v -0.12125 0.04260 -0.13808
v -0.10815 0.03021 -0.14030
v -0.07740 0.01578 -0.14629
v -0.06254 0.02298 -0.21520
v -0.07166 0.03273 -0.21372
v -0.09390 0.04316 -0.20939
v -0.10701 0.04385 -0.20654
v -0.09789 0.03409 -0.20803
v -0.07565 0.02366 -0.21236
v -0.15719 0.03770 -0.09205
v -0.17720 0.05505 -0.08726
v -0.22287 0.07687 -0.07575
v -0.24854 0.08135 -0.06903
v -0.22854 0.06400 -0.07382
v -0.18286 0.04217 -0.08533
v -0.16708 0.04677 -0.15898
v -0.18363 0.06170 -0.15504
v -0.22184 0.07995 -0.14541
v -0.24349 0.08327 -0.13973
v -0.22694 0.06834 -0.14367
v -0.18874 0.05009 -0.15330
v -0.17838 0.05846 -0.22562
v -0.19128 0.07088 -0.22257
v -0.22164 0.08539 -0.21492
v -0.23909 0.08747 -0.21032
v -0.22618 0.07505 -0.21337
v -0.19583 0.06055 -0.22102
v -0.19249 0.07346 -0.29162
v -0.20147 0.08324 -0.28953
v -0.22341 0.09372 -0.28400
v -0.23638 0.09443 -0.28056
v -0.22740 0.08465 -0.28264
v -0.20546 0.07417 -0.28817
v -0.28784 0.08759 -0.15828
v -0.30747 0.10496 -0.15221
v -0.35240 0.12684 -0.13813
v -0.37769 0.13134 -0.13013
v -0.35806 0.11396 -0.13620
v -0.31314 0.09209 -0.15028
v -0.31015 0.10287 -0.22494
v -0.32638 0.11782 -0.21993
v -0.36396 0.13612 -0.20815
v -0.38530 0.13947 -0.20140
v -0.36907 0.12452 -0.20641
v -0.33149 0.10622 -0.21819
v -0.33609 0.12199 -0.29049
v -0.34874 0.13442 -0.28658
v -0.37860 0.14896 -0.27723
v -0.39580 0.15106 -0.27178
v -0.38315 0.13862 -0.27568
v -0.35329 0.12409 -0.28503
v -0.36620 0.14519 -0.35475
v -0.37499 0.15498 -0.35205
v -0.39658 0.16549 -0.34528
v -0.40936 0.16621 -0.34122
v -0.40057 0.15642 -0.34392
v -0.37898 0.14591 -0.35069
v -0.44939 0.15285 -0.21264
v -0.46857 0.17022 -0.20527
v -0.51260 0.19210 -0.18858
v -0.53744 0.19659 -0.17928
v -0.51826 0.17922 -0.18665
v -0.47424 0.15735 -0.20334
v -0.48548 0.17523 -0.27721
v -0.50134 0.19018 -0.27110
v -0.53817 0.20848 -0.25715
v -0.55914 0.21182 -0.24930
v -0.54328 0.19687 -0.25540
v -0.50645 0.17857 -0.26936
v -0.52444 0.20119 -0.34066
v -0.53679 0.21363 -0.33589
v -0.56605 0.22816 -0.32480
v -0.58295 0.23026 -0.31849
v -0.57059 0.21783 -0.32325
v -0.54134 0.20329 -0.33434
v -0.56557 0.23040 -0.40325
v -0.57415 0.24019 -0.39993
v -0.59530 0.25070 -0.39191
v -0.60787 0.25142 -0.38722
v -0.59929 0.24163 -0.39055
v -0.57814 0.23112 -0.39857
v -0.13662 0.04763 0.35582
v -0.13611 0.06001 0.36632
v -0.14308 0.06663 0.39004
v -0.15056 0.06088 0.40325
v -0.15106 0.04850 0.39276
v -0.14409 0.04187 0.36904
v -0.21936 0.07989 0.32818
v -0.21853 0.09068 0.33637
v -0.22407 0.09594 0.35521
v -0.23043 0.09041 0.36586
v -0.23125 0.07962 0.35766
v -0.22571 0.07436 0.33882
v -0.30219 0.11224 0.30087
v -0.30100 0.12140 0.30660
v -0.30500 0.12520 0.32022
v -0.31020 0.11985 0.32812
v -0.31139 0.11069 0.32239
v -0.30739 0.10689 0.30877
v -0.38520 0.14475 0.27415
v -0.38356 0.15219 0.27711
v -0.38586 0.15438 0.28493
v -0.38980 0.14912 0.28980
v -0.39144 0.14168 0.28684
v -0.38914 0.13950 0.27901
f 2 7 1
f 2 9 8
f 3 10 9
f 5 10 4
f 6 11 5
f 6 7 12
f 8 13 7
f 9 14 8
f 9 16 15
f 11 16 10
f 11 18 17
f 12 13 18
f 14 19 13
f 15 20 14
f 15 22 21
f 16 23 22
f 17 24 23
f 18 19 24
f 26 31 25
f 27 32 26
f 27 34 33
f 28 35 34
f 29 36 35
f 30 31 36
f 32 37 31
f 33 38 32
f 33 40 39
f 34 41 40
f 35 42 41
f 36 37 42
f 38 43 37
f 39 44 38
f 40 45 39
f 40 47 46
f 41 48 47
f 42 43 48
f 55 50 49
f 56 51 50
f 57 52 51
f 52 59 53
f 53 60 54
f 54 55 49
f 61 56 55
f 62 57 56
f 63 58 57
f 58 65 59
f 59 66 60
f 60 61 55
f 67 62 61
f 68 63 62
f 63 70 64
f 64 71 65
f 65 72 66
f 66 67 61
f 74 79 73
f 75 80 74
f 75 82 81
f 76 83 82
f 77 84 83
f 78 79 84
f 80 85 79
f 81 86 80
f 81 88 87
f 82 89 88
f 83 90 89
f 84 85 90
f 86 91 85
f 86 93 92
f 87 94 93
f 89 94 88
f 90 95 89
f 90 91 96
f 98 103 97
f 98 105 104
f 99 106 105
f 101 106 100
f 102 107 101
f 97 108 102
f 104 109 103
f 104 111 110
f 105 112 111
f 107 112 106
f 108 113 107
f 103 114 108
f 110 115 109
f 110 117 116
f 111 118 117
f 113 118 112
f 114 119 113
f 109 120 114
f 121 128 127
f 122 129 128
f 123 130 129
f 125 130 124
f 126 131 125
f 121 132 126
f 127 134 133
f 128 135 134
f 129 136 135
f 131 136 130
f 132 137 131
f 127 138 132
f 133 140 139
f 134 141 140
f 135 142 141
f 137 142 136
f 138 143 137
f 133 144 138
f 145 152 151
f 146 153 152
f 147 154 153
f 149 154 148
f 150 155 149
f 145 156 150
f 152 157 151
f 152 159 158
f 153 160 159
f 155 160 154
f 156 161 155
f 151 162 156
f 158 163 157
f 158 165 164
f 159 166 165
f 161 166 160
f 162 167 161
f 157 168 162
f 170 175 169
f 170 177 176
f 171 178 177
f 173 178 172
f 174 179 173
f 174 175 180
f 176 181 175
f 177 182 176
f 177 184 183
f 178 185 184
f 179 186 185
f 180 181 186
f 182 187 181
f 183 188 182
f 183 190 189
f 184 191 190
f 185 192 191
f 186 187 192
f 199 194 193
f 200 195 194
f 201 196 195
f 196 203 197
f 197 204 198
f 198 199 193
f 205 200 199
f 206 201 200
f 207 202 201
f 202 209 203
f 203 210 204
f 204 205 199
f 211 206 205
f 212 207 206
f 213 208 207
f 208 215 209
f 209 216 210
f 210 211 205
f 234 240 235
f 233 239 240
f 238 239 233
f 231 237 238
f 236 237 231
f 235 236 230
f 228 234 229
f 227 233 234
f 232 233 227
f 225 231 232
f 224 230 231
f 229 230 224
f 222 228 223
f 227 228 222
f 226 227 221
f 219 225 226
f 224 225 219
f 223 224 218
f 210 216 211
f 209 215 216
f 208 214 215
f 213 214 208
f 212 213 207
f 211 212 206
f 204 210 205
f 203 209 210
f 202 208 209
f 207 208 202
f 206 207 201
f 205 206 200
f 198 204 199
f 197 203 204
f 196 202 203
f 201 202 196
f 200 201 195
f 199 200 194
f 186 181 187
f 185 186 192
f 184 185 191
f 183 184 190
f 183 189 188
f 182 188 187
f 180 175 181
f 179 180 186
f 178 179 185
f 177 178 184
f 177 183 182
f 176 182 181
f 174 169 175
f 174 180 179
f 173 179 178
f 171 172 178
f 170 171 177
f 170 176 175
f 157 163 168
f 162 168 167
f 161 167 166
f 159 160 166
f 158 159 165
f 158 164 163
f 151 157 162
f 156 162 161
f 155 161 160
f 153 154 160
f 152 153 159
f 152 158 157
f 145 151 156
f 150 156 155
f 149 155 154
f 147 148 154
f 146 147 153
f 145 146 152
f 133 139 144
f 138 144 143
f 137 143 142
f 135 136 142
f 134 135 141
f 133 134 140
f 127 133 138
f 132 138 137
f 131 137 136
f 129 130 136
f 128 129 135
f 127 128 134
f 121 127 132
f 126 132 131
f 125 131 130
f 123 124 130
f 122 123 129
f 121 122 128
f 109 115 120
f 114 120 119
f 113 119 118
f 111 112 118
f 110 111 117
f 110 116 115
f 103 109 114
f 108 114 113
f 107 113 112
f 105 106 112
f 104 105 111
f 104 110 109
f 97 103 108
f 102 108 107
f 101 107 106
f 99 100 106
f 98 99 105
f 98 104 103
f 90 85 91
f 90 96 95
f 89 95 94
f 87 88 94
f 86 87 93
f 86 92 91
f 84 79 85
f 83 84 90
f 82 83 89
f 81 82 88
f 81 87 86
f 80 86 85
f 78 73 79
f 77 78 84
f 76 77 83
f 75 76 82
f 75 81 80
f 74 80 79
f 66 72 67
f 65 71 72
f 64 70 71
f 63 69 70
f 68 69 63
f 67 68 62
f 60 66 61
f 59 65 66
f 58 64 65
f 63 64 58
f 62 63 57
f 61 62 56
f 54 60 55
f 53 59 60
f 52 58 59
f 57 58 52
f 56 57 51
f 55 56 50
f 42 37 43
f 41 42 48
f 40 41 47
f 40 46 45
f 39 45 44
f 38 44 43
f 36 31 37
f 35 36 42
f 34 35 41
f 33 34 40
f 33 39 38
f 32 38 37
f 30 25 31
f 29 30 36
f 28 29 35
f 27 28 34
f 27 33 32
f 26 32 31
f 18 13 19
f 17 18 24
f 16 17 23
f 15 16 22
f 15 21 20
f 14 20 19
f 12 7 13
f 11 12 18
f 11 17 16
f 9 10 16
f 9 15 14
f 223 218 217
f 224 219 218
f 219 226 220
f 226 221 220
f 227 222 221
f 222 223 217
f 229 224 223
f 224 231 225
f 225 232 226
f 232 227 226
f 227 234 228
f 228 229 223
f 235 230 229
f 236 231 230
f 231 238 232
f 238 233 232
f 233 240 234
f 234 235 229
f 8 14 13
f 6 1 7
f 6 12 11
f 5 11 10
f 3 4 10
f 2 3 9
f 2 8 7
