# phoenix WingRight_Gold.obj: Roblox cue frame, recentred on its bounding box
v 0.62048 -0.26376 0.29008
v 0.61104 -0.25427 0.28889
v 0.58818 -0.24436 0.28788
v 0.57475 -0.24394 0.28805
v 0.58419 -0.25343 0.28924
v 0.60705 -0.26333 0.29025
v 0.60680 -0.25052 0.24049
v 0.60195 -0.24378 0.23962
v 0.58882 -0.23808 0.23904
v 0.58054 -0.23914 0.23933
v 0.58539 -0.24588 0.24021
v 0.59852 -0.25157 0.24079
v 0.58934 -0.23428 0.19055
v 0.58882 -0.23298 0.19037
v 0.58699 -0.23218 0.19029
v 0.58567 -0.23269 0.19038
v 0.58619 -0.23400 0.19056
v 0.58803 -0.23479 0.19064
v 0.45903 -0.19976 0.21135
v 0.44961 -0.19021 0.21064
v 0.42678 -0.18017 0.21060
v 0.41337 -0.17968 0.21126
v 0.42279 -0.18924 0.21196
v 0.44562 -0.19928 0.21200
v 0.44026 -0.18368 0.15915
v 0.43542 -0.17690 0.15855
v 0.42231 -0.17113 0.15853
v 0.41404 -0.17215 0.15910
v 0.41888 -0.17893 0.15970
v 0.43199 -0.18470 0.15972
v 0.42060 -0.16574 0.10677
v 0.42008 -0.16443 0.10663
v 0.41825 -0.16363 0.10663
v 0.41694 -0.16413 0.10676
v 0.41745 -0.16544 0.10690
v 0.41928 -0.16624 0.10690
v 0.30211 -0.13724 0.13612
v 0.29273 -0.12762 0.13593
v 0.26997 -0.11746 0.13690
v 0.25660 -0.11692 0.13807
v 0.26598 -0.12653 0.13826
v 0.28874 -0.13669 0.13729
v 0.28724 -0.12225 0.08136
v 0.28242 -0.11544 0.08105
v 0.26935 -0.10960 0.08161
v 0.26110 -0.11058 0.08248
v 0.26592 -0.11740 0.08278
v 0.27899 -0.12324 0.08222
v 0.27463 -0.10672 0.02633
v 0.27411 -0.10540 0.02623
v 0.27229 -0.10459 0.02631
v 0.27098 -0.10509 0.02649
v 0.27149 -0.10640 0.02658
v 0.27332 -0.10722 0.02651
v 0.17271 -0.08669 0.06176
v 0.16339 -0.07702 0.06210
v 0.14075 -0.06675 0.06415
v 0.12744 -0.06615 0.06585
v 0.13676 -0.07582 0.06551
v 0.15940 -0.08609 0.06346
v 0.16718 -0.07533 0.00354
v 0.16239 -0.06848 0.00354
v 0.14939 -0.06259 0.00472
v 0.14117 -0.06354 0.00589
v 0.14596 -0.07039 0.00589
v 0.15896 -0.07628 0.00471
v 0.16480 -0.06375 -0.05513
v 0.16430 -0.06243 -0.05518
v 0.16248 -0.06161 -0.05502
v 0.16117 -0.06211 -0.05480
v 0.16168 -0.06342 -0.05474
v 0.16350 -0.06425 -0.05491
v 0.07091 -0.04878 -0.01587
v 0.06168 -0.03906 -0.01497
v 0.03921 -0.02870 -0.01180
v 0.02598 -0.02806 -0.00954
v 0.03522 -0.03777 -0.01044
v 0.05769 -0.04813 -0.01361
v 0.07145 -0.03969 -0.07812
v 0.06671 -0.03282 -0.07779
v 0.05381 -0.02687 -0.07597
v 0.04564 -0.02779 -0.07448
v 0.05038 -0.03467 -0.07480
v 0.06328 -0.04062 -0.07662
v 0.07285 -0.02926 -0.14062
v 0.07235 -0.02793 -0.14062
v 0.07055 -0.02710 -0.14037
v 0.06925 -0.02759 -0.14011
v 0.06975 -0.02892 -0.14010
v 0.07155 -0.02975 -0.14035
v -0.02872 -0.01227 -0.09650
v -0.03784 -0.00252 -0.09502
v -0.06008 0.00792 -0.09069
v -0.07319 0.00860 -0.08785
v -0.06407 -0.00115 -0.08933
v -0.04183 -0.01159 -0.09366
v -0.03259 -0.00067 -0.16154
v -0.03726 0.00623 -0.16088
v -0.05003 0.01222 -0.15839
v -0.05813 0.01132 -0.15656
v -0.05346 0.00442 -0.15722
v -0.04069 -0.00157 -0.15971
v -0.03950 0.01422 -0.22608
v -0.03999 0.01555 -0.22604
v -0.04177 0.01638 -0.22569
v -0.04307 0.01590 -0.22538
v -0.04257 0.01457 -0.22542
v -0.04079 0.01373 -0.22577
v -0.15868 0.03821 -0.17292
v -0.16765 0.04799 -0.17084
v -0.18960 0.05848 -0.16531
v -0.20256 0.05918 -0.16186
v -0.19359 0.04941 -0.16395
v -0.17164 0.03892 -0.16948
v -0.17701 0.05719 -0.23791
v -0.18160 0.06410 -0.23691
v -0.19420 0.07012 -0.23373
v -0.20222 0.06924 -0.23156
v -0.19764 0.06233 -0.23256
v -0.18503 0.05630 -0.23574
v -0.20089 0.08077 -0.30157
v -0.20138 0.08210 -0.30149
v -0.20313 0.08294 -0.30104
v -0.20441 0.08246 -0.30068
v -0.20393 0.08113 -0.30077
v -0.20217 0.08029 -0.30121
v -0.33238 0.10994 -0.23605
v -0.34118 0.11973 -0.23335
v -0.36276 0.13024 -0.22659
v -0.37555 0.13096 -0.22253
v -0.36675 0.12117 -0.22523
v -0.34517 0.11066 -0.23199
v -0.36694 0.13737 -0.29894
v -0.37142 0.14429 -0.29758
v -0.38382 0.15032 -0.29369
v -0.39173 0.14944 -0.29117
v -0.38725 0.14253 -0.29252
v -0.37485 0.13649 -0.29641
v -0.40596 0.16903 -0.36044
v -0.40643 0.17036 -0.36031
v -0.40816 0.17121 -0.35977
v -0.40942 0.17072 -0.35936
v -0.40896 0.16939 -0.35949
v -0.40723 0.16855 -0.36004
v -0.53175 0.19515 -0.28456
v -0.54033 0.20494 -0.28123
v -0.56148 0.21545 -0.27321
v -0.57405 0.21617 -0.26853
v -0.56547 0.20638 -0.27185
v -0.54432 0.19587 -0.27987
v -0.57422 0.22719 -0.34662
v -0.57857 0.23410 -0.34490
v -0.59072 0.24014 -0.34030
v -0.59851 0.23926 -0.33741
v -0.59415 0.23234 -0.33913
v -0.58201 0.22630 -0.34373
v -0.61709 0.26158 -0.40849
v -0.61754 0.26291 -0.40831
v -0.61923 0.26376 -0.40767
v -0.62048 0.26327 -0.40721
v -0.62003 0.26194 -0.40739
v -0.61834 0.26110 -0.40804
v -0.35138 0.10951 0.39285
v -0.34974 0.11695 0.39581
v -0.35204 0.11913 0.40363
v -0.35598 0.11388 0.40849
v -0.35763 0.10644 0.40553
v -0.35533 0.10425 0.39771
v -0.43444 0.14207 0.36630
v -0.43432 0.14324 0.36709
v -0.43486 0.14375 0.36894
v -0.43553 0.14311 0.37000
v -0.43566 0.14194 0.36921
v -0.43511 0.14142 0.36736
f 2 7 1
f 3 8 2
f 3 10 9
f 4 11 10
f 5 12 11
f 6 7 12
f 8 13 7
f 9 14 8
f 9 16 15
f 10 17 16
f 11 18 17
f 12 13 18
f 20 25 19
f 21 26 20
f 21 28 27
f 22 29 28
f 23 30 29
f 24 25 30
f 26 31 25
f 27 32 26
f 27 34 33
f 28 35 34
f 29 36 35
f 30 31 36
f 43 38 37
f 44 39 38
f 39 46 40
f 40 47 41
f 41 48 42
f 42 43 37
f 49 44 43
f 50 45 44
f 45 52 46
f 46 53 47
f 47 54 48
f 54 43 48
f 56 61 55
f 56 63 62
f 57 64 63
f 59 64 58
f 60 65 59
f 55 66 60
f 62 67 61
f 62 69 68
f 63 70 69
f 65 70 64
f 66 71 65
f 61 72 66
f 74 79 73
f 74 81 80
f 75 82 81
f 77 82 76
f 78 83 77
f 73 84 78
f 80 85 79
f 80 87 86
f 81 88 87
f 83 88 82
f 84 89 83
f 79 90 84
f 92 97 91
f 92 99 98
f 93 100 99
f 95 100 94
f 96 101 95
f 91 102 96
f 98 103 97
f 98 105 104
f 99 106 105
f 101 106 100
f 102 107 101
f 97 108 102
f 110 115 109
f 110 117 116
f 111 118 117
f 112 119 118
f 114 119 113
f 109 120 114
f 116 121 115
f 117 122 116
f 117 124 123
f 118 125 124
f 119 126 125
f 115 126 120
f 128 133 127
f 129 134 128
f 129 136 135
f 130 137 136
f 131 138 137
f 132 133 138
f 134 139 133
f 135 140 134
f 135 142 141
f 136 143 142
f 137 144 143
f 138 139 144
f 151 146 145
f 152 147 146
f 153 148 147
f 148 155 149
f 149 156 150
f 150 151 145
f 157 152 151
f 158 153 152
f 153 160 154
f 154 161 155
f 155 162 156
f 156 157 151
f 168 174 169
f 173 174 168
f 172 173 167
f 165 171 172
f 170 171 165
f 169 170 164
f 156 162 157
f 155 161 162
f 154 160 161
f 153 159 160
f 158 159 153
f 157 158 152
f 150 156 151
f 149 155 156
f 148 154 155
f 153 154 148
f 152 153 147
f 151 152 146
f 138 133 139
f 137 138 144
f 136 137 143
f 135 136 142
f 135 141 140
f 134 140 139
f 132 127 133
f 131 132 138
f 130 131 137
f 129 130 136
f 129 135 134
f 128 134 133
f 115 121 126
f 119 120 126
f 118 119 125
f 117 118 124
f 117 123 122
f 116 122 121
f 109 115 120
f 114 120 119
f 112 113 119
f 111 112 118
f 110 111 117
f 110 116 115
f 97 103 108
f 102 108 107
f 101 107 106
f 99 100 106
f 98 99 105
f 98 104 103
f 91 97 102
f 96 102 101
f 95 101 100
f 93 94 100
f 92 93 99
f 92 98 97
f 79 85 90
f 84 90 89
f 83 89 88
f 81 82 88
f 80 81 87
f 80 86 85
f 73 79 84
f 78 84 83
f 77 83 82
f 75 76 82
f 74 75 81
f 74 80 79
f 61 67 72
f 66 72 71
f 65 71 70
f 63 64 70
f 62 63 69
f 62 68 67
f 55 61 66
f 60 66 65
f 59 65 64
f 57 58 64
f 56 57 63
f 56 62 61
f 54 49 43
f 47 53 54
f 46 52 53
f 45 51 52
f 50 51 45
f 49 50 44
f 42 48 43
f 41 47 48
f 40 46 47
f 39 45 46
f 44 45 39
f 43 44 38
f 30 25 31
f 29 30 36
f 28 29 35
f 27 28 34
f 27 33 32
f 26 32 31
f 24 19 25
f 23 24 30
f 22 23 29
f 21 22 28
f 21 27 26
f 20 26 25
f 12 7 13
f 11 12 18
f 10 11 17
f 9 10 16
f 9 15 14
f 8 14 13
f 6 1 7
f 5 6 12
f 4 5 11
f 3 4 10
f 3 9 8
f 169 164 163
f 170 165 164
f 165 172 166
f 172 167 166
f 173 168 167
f 168 169 163
f 2 8 7
