<svg xmlns="http://www.w3.org/2000/svg" width="512" height="512" viewBox="0 0 256 256"><defs><linearGradient id="blue" x1="0" y1="0" x2="0.35" y2="1"><stop offset="0" stop-color="#9ED3FF"/><stop offset="0.45" stop-color="#3B9BFF"/><stop offset="1" stop-color="#1F6BD0"/></linearGradient><linearGradient id="green" x1="0" y1="0" x2="0.35" y2="1"><stop offset="0" stop-color="#A8F5BE"/><stop offset="0.45" stop-color="#3DD66B"/><stop offset="1" stop-color="#1E9E47"/></linearGradient><linearGradient id="red" x1="0" y1="0" x2="0.35" y2="1"><stop offset="0" stop-color="#FFA3A3"/><stop offset="0.45" stop-color="#FF4D4D"/><stop offset="1" stop-color="#C9283A"/></linearGradient><linearGradient id="gold" x1="0" y1="0" x2="0.35" y2="1"><stop offset="0" stop-color="#FFF1A0"/><stop offset="0.45" stop-color="#FFC928"/><stop offset="1" stop-color="#DB8E00"/></linearGradient><linearGradient id="wood" x1="0" y1="0" x2="0.35" y2="1"><stop offset="0" stop-color="#FFD9A0"/><stop offset="0.45" stop-color="#E7A35C"/><stop offset="1" stop-color="#A8622A"/></linearGradient><linearGradient id="darkwood" x1="0" y1="0" x2="0.35" y2="1"><stop offset="0" stop-color="#C07A45"/><stop offset="0.45" stop-color="#8A4B22"/><stop offset="1" stop-color="#5E3014"/></linearGradient><linearGradient id="white" x1="0" y1="0" x2="0.35" y2="1"><stop offset="0" stop-color="#FFFFFF"/><stop offset="0.45" stop-color="#F4F8FF"/><stop offset="1" stop-color="#C9D6EA"/></linearGradient><linearGradient id="grey" x1="0" y1="0" x2="0.35" y2="1"><stop offset="0" stop-color="#E4E9F2"/><stop offset="0.45" stop-color="#AEB8C8"/><stop offset="1" stop-color="#7B869A"/></linearGradient><linearGradient id="steel" x1="0" y1="0" x2="0.35" y2="1"><stop offset="0" stop-color="#D8E6F7"/><stop offset="0.45" stop-color="#9FB2CC"/><stop offset="1" stop-color="#6A7D98"/></linearGradient><linearGradient id="cloth" x1="0" y1="0" x2="0.35" y2="1"><stop offset="0" stop-color="#6FE08E"/><stop offset="0.45" stop-color="#2FA24F"/><stop offset="1" stop-color="#1C7A37"/></linearGradient><linearGradient id="sad" x1="0" y1="0" x2="0.35" y2="1"><stop offset="0" stop-color="#C4D4EE"/><stop offset="0.45" stop-color="#8EA3C7"/><stop offset="1" stop-color="#5E7299"/></linearGradient><linearGradient id="purple" x1="0" y1="0" x2="0.35" y2="1"><stop offset="0" stop-color="#D7B8FF"/><stop offset="0.45" stop-color="#A259FF"/><stop offset="1" stop-color="#6E2FD0"/></linearGradient><radialGradient id="shine" cx="0.5" cy="0.5" r="0.5"><stop offset="0" stop-color="#FFFFFF" stop-opacity="0.9"/><stop offset="1" stop-color="#FFFFFF" stop-opacity="0"/></radialGradient>
<filter id="ink" x="-30%" y="-30%" width="160%" height="160%" color-interpolation-filters="sRGB">
  <feGaussianBlur in="SourceAlpha" stdDeviation="6.92" result="blur"/>
  <feComponentTransfer in="blur" result="grown"><feFuncA type="linear" slope="7" intercept="-0.35"/></feComponentTransfer>
  <feOffset in="grown" dy="6" result="lip"/>
  <feMerge result="both"><feMergeNode in="lip"/><feMergeNode in="grown"/></feMerge>
  <feFlood flood-color="#1B2033"/>
  <feComposite in2="both" operator="in" result="outline"/>
  <feMerge><feMergeNode in="outline"/><feMergeNode in="SourceGraphic"/></feMerge>
</filter></defs><defs><filter id="badgeInk" x="-20%" y="-20%" width="140%" height="140%" color-interpolation-filters="sRGB">
  <feGaussianBlur in="SourceAlpha" stdDeviation="3.2" result="blur"/>
  <feComponentTransfer in="blur" result="grown"><feFuncA type="linear" slope="40" intercept="-0.716"/></feComponentTransfer>
  <feOffset in="grown" dy="5" result="lip"/>
  <feMerge result="both"><feMergeNode in="lip"/><feMergeNode in="grown"/></feMerge>
  <feFlood flood-color="#1B2033"/>
  <feComposite in2="both" operator="in" result="outline"/>
  <feMerge><feMergeNode in="outline"/><feMergeNode in="SourceGraphic"/></feMerge>
</filter></defs><defs><linearGradient id="m" x1="0" y1="0" x2="0.35" y2="1"><stop offset="0" stop-color="#FFF3A6"/><stop offset="0.5" stop-color="#FFC928"/><stop offset="1" stop-color="#C97F00"/></linearGradient><linearGradient id="r" x1="0" y1="0" x2="0.35" y2="1"><stop offset="0" stop-color="#E7A816"/><stop offset="0.6" stop-color="#FFC928"/><stop offset="1" stop-color="#FFE274"/></linearGradient><linearGradient id="w" x1="0" y1="0" x2="0.35" y2="1"><stop offset="0" stop-color="#FFE47A"/><stop offset="0.55" stop-color="#FFC928"/><stop offset="1" stop-color="#C97F00"/></linearGradient><linearGradient id="p" x1="0" y1="0" x2="0.2" y2="1"><stop offset="0" stop-color="#FFFAD7"/><stop offset="0.55" stop-color="#FFF3A6"/><stop offset="1" stop-color="#FFC928"/></linearGradient><linearGradient id="c" x1="0" y1="0" x2="0.3" y2="1"><stop offset="0" stop-color="#FFF8CA"/><stop offset="0.55" stop-color="#FFDC61"/><stop offset="1" stop-color="#FFC928"/></linearGradient><linearGradient id="g" x1="0" y1="0" x2="0.35" y2="1"><stop offset="0" stop-color="#FFF3A6"/><stop offset="0.5" stop-color="#FFC928"/><stop offset="1" stop-color="#C97F00"/></linearGradient><linearGradient id="gr" x1="0" y1="0" x2="0.35" y2="1"><stop offset="0" stop-color="#E7A816"/><stop offset="0.6" stop-color="#FFC928"/><stop offset="1" stop-color="#FFE274"/></linearGradient><radialGradient id="ball" cx="0.38" cy="0.32" r="0.78"><stop offset="0" stop-color="#5C6275"/><stop offset="0.4" stop-color="#23262F"/><stop offset="1" stop-color="#06070B"/></radialGradient></defs><g filter="url(#badgeInk)"><path d="M38.0 170.0 L86.0 198.0 L82.8 201.9 L52.9 184.5 Z" fill="#F4C238" stroke="#F4C238" stroke-width="0.8"/><path d="M86.0 198.0 L112.0 228.0 L101.1 223.0 L82.8 201.9 Z" fill="#EEB423" stroke="#EEB423" stroke-width="0.8"/><path d="M112.0 228.0 L74.0 228.0 L76.8 223.0 L101.1 223.0 Z" fill="#B77B08" stroke="#B77B08" stroke-width="0.8"/><path d="M74.0 228.0 L38.0 170.0 L52.9 184.5 L76.8 223.0 Z" fill="#EDB01C" stroke="#EDB01C" stroke-width="0.8"/><path d="M52.9 184.5 L82.8 201.9 L101.1 223.0 L76.8 223.0 Z" fill="url(#m)" /><path d="M52.9 184.5 L82.8 201.9 L101.1 223.0 L76.8 223.0 Z" fill="none" stroke="#1B2033" stroke-width="1.6" stroke-opacity="0.45" stroke-linejoin="round"/><path d="M38.0 170.0 L86.0 198.0 L112.0 228.0 L74.0 228.0 Z" fill="none" stroke="#1B2033" stroke-width="3.5" stroke-linejoin="round" /><path d="M12.0 74.0 L60.0 90.0 L54.9 94.6 L20.5 83.1 Z" fill="#FFE06E" stroke="#FFE06E" stroke-width="0.8"/><path d="M60.0 90.0 L86.0 206.0 L77.6 195.8 L54.9 94.6 Z" fill="#EFB31C" stroke="#EFB31C" stroke-width="0.8"/><path d="M86.0 206.0 L40.0 186.0 L45.1 181.7 L77.6 195.8 Z" fill="#E6A716" stroke="#E6A716" stroke-width="0.8"/><path d="M40.0 186.0 L12.0 74.0 L20.5 83.1 L45.1 181.7 Z" fill="#FFD64E" stroke="#FFD64E" stroke-width="0.8"/><path d="M20.5 83.1 L54.9 94.6 L77.6 195.8 L45.1 181.7 Z" fill="url(#m)" /><path d="M20.5 83.1 L54.9 94.6 L77.6 195.8 L45.1 181.7 Z" fill="none" stroke="#1B2033" stroke-width="1.6" stroke-opacity="0.45" stroke-linejoin="round"/><path d="M12.0 74.0 L60.0 90.0 L86.0 206.0 L40.0 186.0 Z" fill="none" stroke="#1B2033" stroke-width="3.5" stroke-linejoin="round" /><g transform="matrix(-1 0 0 1 256 0)"><path d="M38.0 170.0 L86.0 198.0 L82.8 201.9 L52.9 184.5 Z" fill="#F4C238" stroke="#F4C238" stroke-width="0.8"/><path d="M86.0 198.0 L112.0 228.0 L101.1 223.0 L82.8 201.9 Z" fill="#EEB423" stroke="#EEB423" stroke-width="0.8"/><path d="M112.0 228.0 L74.0 228.0 L76.8 223.0 L101.1 223.0 Z" fill="#B77B08" stroke="#B77B08" stroke-width="0.8"/><path d="M74.0 228.0 L38.0 170.0 L52.9 184.5 L76.8 223.0 Z" fill="#EDB01C" stroke="#EDB01C" stroke-width="0.8"/><path d="M52.9 184.5 L82.8 201.9 L101.1 223.0 L76.8 223.0 Z" fill="url(#m)" /><path d="M52.9 184.5 L82.8 201.9 L101.1 223.0 L76.8 223.0 Z" fill="none" stroke="#1B2033" stroke-width="1.6" stroke-opacity="0.45" stroke-linejoin="round"/><path d="M38.0 170.0 L86.0 198.0 L112.0 228.0 L74.0 228.0 Z" fill="none" stroke="#1B2033" stroke-width="3.5" stroke-linejoin="round" /><path d="M12.0 74.0 L60.0 90.0 L54.9 94.6 L20.5 83.1 Z" fill="#FFE06E" stroke="#FFE06E" stroke-width="0.8"/><path d="M60.0 90.0 L86.0 206.0 L77.6 195.8 L54.9 94.6 Z" fill="#EFB31C" stroke="#EFB31C" stroke-width="0.8"/><path d="M86.0 206.0 L40.0 186.0 L45.1 181.7 L77.6 195.8 Z" fill="#E6A716" stroke="#E6A716" stroke-width="0.8"/><path d="M40.0 186.0 L12.0 74.0 L20.5 83.1 L45.1 181.7 Z" fill="#FFD64E" stroke="#FFD64E" stroke-width="0.8"/><path d="M20.5 83.1 L54.9 94.6 L77.6 195.8 L45.1 181.7 Z" fill="url(#m)" /><path d="M20.5 83.1 L54.9 94.6 L77.6 195.8 L45.1 181.7 Z" fill="none" stroke="#1B2033" stroke-width="1.6" stroke-opacity="0.45" stroke-linejoin="round"/><path d="M12.0 74.0 L60.0 90.0 L86.0 206.0 L40.0 186.0 Z" fill="none" stroke="#1B2033" stroke-width="3.5" stroke-linejoin="round" /></g><path d="M128.0 42.0 L198.0 84.0 L188.0 89.7 L128.0 53.7 Z" fill="#FFD959" stroke="#FFD959" stroke-width="0.8"/><path d="M198.0 84.0 L198.0 180.0 L188.0 174.7 L188.0 89.7 Z" fill="#E6A615" stroke="#E6A615" stroke-width="0.8"/><path d="M198.0 180.0 L128.0 228.0 L128.0 215.9 L188.0 174.7 Z" fill="#D18A06" stroke="#D18A06" stroke-width="0.8"/><path d="M128.0 228.0 L58.0 180.0 L68.0 174.7 L128.0 215.9 Z" fill="#EEB21B" stroke="#EEB21B" stroke-width="0.8"/><path d="M58.0 180.0 L58.0 84.0 L68.0 89.7 L68.0 174.7 Z" fill="#FFDE66" stroke="#FFDE66" stroke-width="0.8"/><path d="M58.0 84.0 L128.0 42.0 L128.0 53.7 L68.0 89.7 Z" fill="#FFEF99" stroke="#FFEF99" stroke-width="0.8"/><path d="M128.0 53.7 L188.0 89.7 L188.0 174.7 L128.0 215.9 L68.0 174.7 L68.0 89.7 Z" fill="url(#r)" /><path d="M128.0 53.7 L188.0 89.7 L188.0 174.7 L128.0 215.9 L68.0 174.7 L68.0 89.7 Z" fill="none" stroke="#1B2033" stroke-width="1.6" stroke-opacity="0.45" stroke-linejoin="round"/><path d="M128.0 42.0 L198.0 84.0 L198.0 180.0 L128.0 228.0 L58.0 180.0 L58.0 84.0 Z" fill="none" stroke="#1B2033" stroke-width="3.5" stroke-linejoin="round" /><ellipse cx="86" cy="76" rx="16" ry="6" fill="url(#shine)" opacity="0.75" transform="rotate(-32 86 76)"/><circle cx="128" cy="138" r="58" fill="url(#r)" stroke="#1B2033" stroke-width="3.5"/><circle cx="128" cy="138" r="53" fill="url(#m)"/><circle cx="128" cy="138" r="50" fill="#1B2033"/><ellipse cx="92" cy="102" rx="14" ry="6" fill="url(#shine)" opacity="0.8" transform="rotate(-45 92 102)"/><circle cx="128" cy="138" r="46" fill="url(#ball)"/><circle cx="128.0" cy="135.2" r="20.2" fill="#FFFFFF"/><text x="128.0" y="145.4" font-family="Arial Black, Arial, sans-serif" font-weight="900" font-size="29.3" text-anchor="middle" fill="#1B2033">8</text><ellipse cx="108.68" cy="115.0" rx="15.64" ry="7.82" fill="url(#shine)" opacity="0.85" transform="rotate(-35 108.68 115.0)"/><ellipse cx="148.7" cy="161.0" rx="6.44" ry="3.22" fill="url(#shine)" opacity="0.35" transform="rotate(-40 148.7 161.0)"/><path d="M127.3 194.5 Q128.0 193.0 128.7 194.5 L131.5 200.8 Q132.1 202.3 133.7 202.5 L140.7 203.2 Q142.3 203.4 141.1 204.4 L135.9 209.1 Q134.7 210.2 135.0 211.7 L136.5 218.6 Q136.8 220.1 135.4 219.3 L129.4 215.8 Q128.0 215.1 126.6 215.8 L120.6 219.3 Q119.2 220.1 119.5 218.6 L121.0 211.7 Q121.3 210.2 120.1 209.1 L114.9 204.4 Q113.7 203.4 115.3 203.2 L122.3 202.5 Q123.9 202.3 124.5 200.8 Z" fill="url(#p)" stroke="#1B2033" stroke-width="3.5" stroke-linejoin="round" /><ellipse cx="124.7" cy="203.5" rx="4.8" ry="2.6999999999999997" fill="url(#shine)" opacity="0.85" transform="rotate(-25 124.7 203.5)"/></g></svg>