<svg xmlns="http://www.w3.org/2000/svg" width="512" height="512" viewBox="0 0 256 256"><defs><linearGradient id="blue" x1="0" y1="0" x2="0.35" y2="1"><stop offset="0" stop-color="#9ED3FF"/><stop offset="0.45" stop-color="#3B9BFF"/><stop offset="1" stop-color="#1F6BD0"/></linearGradient><linearGradient id="green" x1="0" y1="0" x2="0.35" y2="1"><stop offset="0" stop-color="#A8F5BE"/><stop offset="0.45" stop-color="#3DD66B"/><stop offset="1" stop-color="#1E9E47"/></linearGradient><linearGradient id="red" x1="0" y1="0" x2="0.35" y2="1"><stop offset="0" stop-color="#FFA3A3"/><stop offset="0.45" stop-color="#FF4D4D"/><stop offset="1" stop-color="#C9283A"/></linearGradient><linearGradient id="gold" x1="0" y1="0" x2="0.35" y2="1"><stop offset="0" stop-color="#FFF1A0"/><stop offset="0.45" stop-color="#FFC928"/><stop offset="1" stop-color="#DB8E00"/></linearGradient><linearGradient id="wood" x1="0" y1="0" x2="0.35" y2="1"><stop offset="0" stop-color="#FFD9A0"/><stop offset="0.45" stop-color="#E7A35C"/><stop offset="1" stop-color="#A8622A"/></linearGradient><linearGradient id="darkwood" x1="0" y1="0" x2="0.35" y2="1"><stop offset="0" stop-color="#C07A45"/><stop offset="0.45" stop-color="#8A4B22"/><stop offset="1" stop-color="#5E3014"/></linearGradient><linearGradient id="white" x1="0" y1="0" x2="0.35" y2="1"><stop offset="0" stop-color="#FFFFFF"/><stop offset="0.45" stop-color="#F4F8FF"/><stop offset="1" stop-color="#C9D6EA"/></linearGradient><linearGradient id="grey" x1="0" y1="0" x2="0.35" y2="1"><stop offset="0" stop-color="#E4E9F2"/><stop offset="0.45" stop-color="#AEB8C8"/><stop offset="1" stop-color="#7B869A"/></linearGradient><linearGradient id="steel" x1="0" y1="0" x2="0.35" y2="1"><stop offset="0" stop-color="#D8E6F7"/><stop offset="0.45" stop-color="#9FB2CC"/><stop offset="1" stop-color="#6A7D98"/></linearGradient><linearGradient id="cloth" x1="0" y1="0" x2="0.35" y2="1"><stop offset="0" stop-color="#6FE08E"/><stop offset="0.45" stop-color="#2FA24F"/><stop offset="1" stop-color="#1C7A37"/></linearGradient><linearGradient id="sad" x1="0" y1="0" x2="0.35" y2="1"><stop offset="0" stop-color="#C4D4EE"/><stop offset="0.45" stop-color="#8EA3C7"/><stop offset="1" stop-color="#5E7299"/></linearGradient><linearGradient id="purple" x1="0" y1="0" x2="0.35" y2="1"><stop offset="0" stop-color="#D7B8FF"/><stop offset="0.45" stop-color="#A259FF"/><stop offset="1" stop-color="#6E2FD0"/></linearGradient><radialGradient id="shine" cx="0.5" cy="0.5" r="0.5"><stop offset="0" stop-color="#FFFFFF" stop-opacity="0.9"/><stop offset="1" stop-color="#FFFFFF" stop-opacity="0"/></radialGradient>
<filter id="ink" x="-30%" y="-30%" width="160%" height="160%" color-interpolation-filters="sRGB">
  <feGaussianBlur in="SourceAlpha" stdDeviation="6.92" result="blur"/>
  <feComponentTransfer in="blur" result="grown"><feFuncA type="linear" slope="7" intercept="-0.35"/></feComponentTransfer>
  <feOffset in="grown" dy="6" result="lip"/>
  <feMerge result="both"><feMergeNode in="lip"/><feMergeNode in="grown"/></feMerge>
  <feFlood flood-color="#1B2033"/>
  <feComposite in2="both" operator="in" result="outline"/>
  <feMerge><feMergeNode in="outline"/><feMergeNode in="SourceGraphic"/></feMerge>
</filter></defs><defs><filter id="badgeInk" x="-20%" y="-20%" width="140%" height="140%" color-interpolation-filters="sRGB">
  <feGaussianBlur in="SourceAlpha" stdDeviation="3.2" result="blur"/>
  <feComponentTransfer in="blur" result="grown"><feFuncA type="linear" slope="40" intercept="-0.716"/></feComponentTransfer>
  <feOffset in="grown" dy="5" result="lip"/>
  <feMerge result="both"><feMergeNode in="lip"/><feMergeNode in="grown"/></feMerge>
  <feFlood flood-color="#1B2033"/>
  <feComposite in2="both" operator="in" result="outline"/>
  <feMerge><feMergeNode in="outline"/><feMergeNode in="SourceGraphic"/></feMerge>
</filter></defs><defs><linearGradient id="m" x1="0" y1="0" x2="0.35" y2="1"><stop offset="0.00" stop-color="#FFF3A6"/><stop offset="0.50" stop-color="#FFC928"/><stop offset="1.00" stop-color="#C97F00"/></linearGradient><linearGradient id="r" x1="0" y1="0" x2="0.35" y2="1"><stop offset="0.00" stop-color="#E7A816"/><stop offset="0.60" stop-color="#FFC928"/><stop offset="1.00" stop-color="#FFE274"/></linearGradient><linearGradient id="w" x1="0" y1="0" x2="0.35" y2="1"><stop offset="0.00" stop-color="#FFE47A"/><stop offset="0.55" stop-color="#FFC928"/><stop offset="1.00" stop-color="#C97F00"/></linearGradient><linearGradient id="c" x1="0" y1="0" x2="0.3" y2="1"><stop offset="0.00" stop-color="#FFF8CA"/><stop offset="0.55" stop-color="#FFDC61"/><stop offset="1.00" stop-color="#FFC928"/></linearGradient><linearGradient id="s" x1="0" y1="0" x2="0.2" y2="1"><stop offset="0.00" stop-color="#FFFFFF"/><stop offset="0.50" stop-color="#FFF8CA"/><stop offset="1.00" stop-color="#FFE680"/></linearGradient><linearGradient id="g" x1="0" y1="0" x2="0.35" y2="1"><stop offset="0.00" stop-color="#FFF3A6"/><stop offset="0.50" stop-color="#FFC928"/><stop offset="1.00" stop-color="#C97F00"/></linearGradient><linearGradient id="gr" x1="0" y1="0" x2="0.35" y2="1"><stop offset="0.00" stop-color="#E7A816"/><stop offset="0.60" stop-color="#FFC928"/><stop offset="1.00" stop-color="#FFE274"/></linearGradient><radialGradient id="ball" cx="0.38" cy="0.32" r="0.78"><stop offset="0" stop-color="#5C6275"/><stop offset="0.4" stop-color="#23262F"/><stop offset="1" stop-color="#06070B"/></radialGradient></defs><g filter="url(#badgeInk)"><path d="M38.0 170.0 L86.0 198.0 L82.8 201.9 L52.9 184.5 Z" fill="#F4C238" stroke="#F4C238" stroke-width="0.8"/><path d="M86.0 198.0 L112.0 228.0 L101.1 223.0 L82.8 201.9 Z" fill="#EEB423" stroke="#EEB423" stroke-width="0.8"/><path d="M112.0 228.0 L74.0 228.0 L76.8 223.0 L101.1 223.0 Z" fill="#B77B08" stroke="#B77B08" stroke-width="0.8"/><path d="M74.0 228.0 L38.0 170.0 L52.9 184.5 L76.8 223.0 Z" fill="#EDB01C" stroke="#EDB01C" stroke-width="0.8"/><path d="M52.9 184.5 L82.8 201.9 L101.1 223.0 L76.8 223.0 Z" fill="url(#m)" /><path d="M52.9 184.5 L82.8 201.9 L101.1 223.0 L76.8 223.0 Z" fill="none" stroke="#1B2033" stroke-width="1.6" stroke-opacity="0.45" stroke-linejoin="round"/><path d="M38.0 170.0 L86.0 198.0 L112.0 228.0 L74.0 228.0 Z" fill="none" stroke="#1B2033" stroke-width="3.5" stroke-linejoin="round" /><path d="M12.0 74.0 L60.0 90.0 L54.9 94.6 L20.5 83.1 Z" fill="#FFE06E" stroke="#FFE06E" stroke-width="0.8"/><path d="M60.0 90.0 L86.0 206.0 L77.6 195.8 L54.9 94.6 Z" fill="#EFB31C" stroke="#EFB31C" stroke-width="0.8"/><path d="M86.0 206.0 L40.0 186.0 L45.1 181.7 L77.6 195.8 Z" fill="#E6A716" stroke="#E6A716" stroke-width="0.8"/><path d="M40.0 186.0 L12.0 74.0 L20.5 83.1 L45.1 181.7 Z" fill="#FFD64E" stroke="#FFD64E" stroke-width="0.8"/><path d="M20.5 83.1 L54.9 94.6 L77.6 195.8 L45.1 181.7 Z" fill="url(#m)" /><path d="M20.5 83.1 L54.9 94.6 L77.6 195.8 L45.1 181.7 Z" fill="none" stroke="#1B2033" stroke-width="1.6" stroke-opacity="0.45" stroke-linejoin="round"/><path d="M12.0 74.0 L60.0 90.0 L86.0 206.0 L40.0 186.0 Z" fill="none" stroke="#1B2033" stroke-width="3.5" stroke-linejoin="round" /><g transform="matrix(-1 0 0 1 256 0)"><path d="M38.0 170.0 L86.0 198.0 L82.8 201.9 L52.9 184.5 Z" fill="#F4C238" stroke="#F4C238" stroke-width="0.8"/><path d="M86.0 198.0 L112.0 228.0 L101.1 223.0 L82.8 201.9 Z" fill="#EEB423" stroke="#EEB423" stroke-width="0.8"/><path d="M112.0 228.0 L74.0 228.0 L76.8 223.0 L101.1 223.0 Z" fill="#B77B08" stroke="#B77B08" stroke-width="0.8"/><path d="M74.0 228.0 L38.0 170.0 L52.9 184.5 L76.8 223.0 Z" fill="#EDB01C" stroke="#EDB01C" stroke-width="0.8"/><path d="M52.9 184.5 L82.8 201.9 L101.1 223.0 L76.8 223.0 Z" fill="url(#m)" /><path d="M52.9 184.5 L82.8 201.9 L101.1 223.0 L76.8 223.0 Z" fill="none" stroke="#1B2033" stroke-width="1.6" stroke-opacity="0.45" stroke-linejoin="round"/><path d="M38.0 170.0 L86.0 198.0 L112.0 228.0 L74.0 228.0 Z" fill="none" stroke="#1B2033" stroke-width="3.5" stroke-linejoin="round" /><path d="M12.0 74.0 L60.0 90.0 L54.9 94.6 L20.5 83.1 Z" fill="#FFE06E" stroke="#FFE06E" stroke-width="0.8"/><path d="M60.0 90.0 L86.0 206.0 L77.6 195.8 L54.9 94.6 Z" fill="#EFB31C" stroke="#EFB31C" stroke-width="0.8"/><path d="M86.0 206.0 L40.0 186.0 L45.1 181.7 L77.6 195.8 Z" fill="#E6A716" stroke="#E6A716" stroke-width="0.8"/><path d="M40.0 186.0 L12.0 74.0 L20.5 83.1 L45.1 181.7 Z" fill="#FFD64E" stroke="#FFD64E" stroke-width="0.8"/><path d="M20.5 83.1 L54.9 94.6 L77.6 195.8 L45.1 181.7 Z" fill="url(#m)" /><path d="M20.5 83.1 L54.9 94.6 L77.6 195.8 L45.1 181.7 Z" fill="none" stroke="#1B2033" stroke-width="1.6" stroke-opacity="0.45" stroke-linejoin="round"/><path d="M12.0 74.0 L60.0 90.0 L86.0 206.0 L40.0 186.0 Z" fill="none" stroke="#1B2033" stroke-width="3.5" stroke-linejoin="round" /></g><path d="M128.0 42.0 L198.0 84.0 L188.0 89.7 L128.0 53.7 Z" fill="#FFD959" stroke="#FFD959" stroke-width="0.8"/><path d="M198.0 84.0 L198.0 180.0 L188.0 174.7 L188.0 89.7 Z" fill="#E6A615" stroke="#E6A615" stroke-width="0.8"/><path d="M198.0 180.0 L128.0 228.0 L128.0 215.9 L188.0 174.7 Z" fill="#D18A06" stroke="#D18A06" stroke-width="0.8"/><path d="M128.0 228.0 L58.0 180.0 L68.0 174.7 L128.0 215.9 Z" fill="#EEB21B" stroke="#EEB21B" stroke-width="0.8"/><path d="M58.0 180.0 L58.0 84.0 L68.0 89.7 L68.0 174.7 Z" fill="#FFDE66" stroke="#FFDE66" stroke-width="0.8"/><path d="M58.0 84.0 L128.0 42.0 L128.0 53.7 L68.0 89.7 Z" fill="#FFEF99" stroke="#FFEF99" stroke-width="0.8"/><path d="M128.0 53.7 L188.0 89.7 L188.0 174.7 L128.0 215.9 L68.0 174.7 L68.0 89.7 Z" fill="url(#r)" /><path d="M128.0 53.7 L188.0 89.7 L188.0 174.7 L128.0 215.9 L68.0 174.7 L68.0 89.7 Z" fill="none" stroke="#1B2033" stroke-width="1.6" stroke-opacity="0.45" stroke-linejoin="round"/><path d="M128.0 42.0 L198.0 84.0 L198.0 180.0 L128.0 228.0 L58.0 180.0 L58.0 84.0 Z" fill="none" stroke="#1B2033" stroke-width="3.5" stroke-linejoin="round" /><ellipse cx="86" cy="76" rx="16" ry="6" fill="url(#shine)" opacity="0.75" transform="rotate(-32 86 76)"/><circle cx="128" cy="138" r="58" fill="url(#r)" stroke="#1B2033" stroke-width="3.5"/><circle cx="128" cy="138" r="53" fill="url(#m)"/><circle cx="128" cy="138" r="50" fill="#1B2033"/><ellipse cx="92" cy="102" rx="14" ry="6" fill="url(#shine)" opacity="0.8" transform="rotate(-45 92 102)"/><circle cx="128" cy="138" r="46" fill="url(#ball)"/><circle cx="128.0" cy="135.2" r="20.2" fill="#FFFFFF"/><text x="128.0" y="145.4" font-family="Arial Black, Arial, sans-serif" font-weight="900" font-size="29.3" text-anchor="middle" fill="#1B2033">8</text><ellipse cx="108.68" cy="115.0" rx="15.64" ry="7.82" fill="url(#shine)" opacity="0.85" transform="rotate(-35 108.68 115.0)"/><ellipse cx="148.7" cy="161.0" rx="6.44" ry="3.22" fill="url(#shine)" opacity="0.35" transform="rotate(-40 148.7 161.0)"/><defs><linearGradient id="tray" gradientUnits="userSpaceOnUse" x1="0" y1="156.0" x2="0" y2="229.0"><stop offset="0" stop-color="#3E3329"/><stop offset="0.55" stop-color="#61461F"/><stop offset="1" stop-color="#8C5E12"/></linearGradient><radialGradient id="glow"><stop offset="0" stop-color="#FFFFFF" stop-opacity="0.5"/><stop offset="1" stop-color="#FFFFFF" stop-opacity="0"/></radialGradient></defs><path d="M84.5 176.0 L113.5 194.0 L142.5 194.0 L171.5 176.0" fill="none" stroke-linecap="round" stroke-linejoin="miter" stroke-miterlimit="4" stroke="#1B2033" stroke-width="43.5"/><path d="M84.5 176.0 L113.5 194.0 L142.5 194.0 L171.5 176.0" fill="none" stroke-linecap="round" stroke-linejoin="miter" stroke-miterlimit="4" stroke="url(#tray)" stroke-width="36.5"/><path d="M84.5 193.7 L113.5 211.7 L142.5 211.7 L171.5 193.7" fill="none" stroke="#FFF3A6" stroke-width="1.6" stroke-opacity="0.45" stroke-linecap="round"/><path d="M84.5 159.0 L113.5 176.9 L142.5 176.9 L171.5 159.0" fill="none" stroke="#000000" stroke-width="2.4" stroke-opacity="0.35" stroke-linecap="round"/><circle cx="84.5" cy="176.0" r="19.0" fill="url(#glow)" opacity="0.8"/><path opacity="0.4" d="M83.8 163.2 Q84.5 161.7 85.2 163.2 L88.4 170.5 Q89.1 172.0 90.6 172.1 L98.6 173.0 Q100.2 173.1 99.0 174.2 L93.1 179.6 Q91.9 180.6 92.2 182.2 L93.9 190.0 Q94.2 191.6 92.8 190.8 L85.9 186.8 Q84.5 186.0 83.1 186.8 L76.2 190.8 Q74.8 191.6 75.1 190.0 L76.8 182.2 Q77.1 180.6 75.9 179.6 L70.0 174.2 Q68.8 173.1 70.4 173.0 L78.4 172.1 Q79.9 172.0 80.6 170.5 Z" fill="#000000" stroke="#1B2033" stroke-width="3.5" stroke-linejoin="round" /><ellipse cx="80.87" cy="173.28" rx="5.28" ry="2.9699999999999998" fill="url(#shine)" opacity="0.85" transform="rotate(-25 80.87 173.28)"/><path d="M83.8 161.0 Q84.5 159.5 85.2 161.0 L88.4 168.3 Q89.1 169.8 90.6 169.9 L98.6 170.8 Q100.2 170.9 99.0 172.0 L93.1 177.4 Q91.9 178.4 92.2 180.0 L93.9 187.8 Q94.2 189.4 92.8 188.6 L85.9 184.6 Q84.5 183.8 83.1 184.6 L76.2 188.6 Q74.8 189.4 75.1 187.8 L76.8 180.0 Q77.1 178.4 75.9 177.4 L70.0 172.0 Q68.8 170.9 70.4 170.8 L78.4 169.9 Q79.9 169.8 80.6 168.3 Z" fill="url(#s)" stroke="#1B2033" stroke-width="3.5" stroke-linejoin="round" /><ellipse cx="80.87" cy="171.08" rx="5.28" ry="2.9699999999999998" fill="url(#shine)" opacity="0.85" transform="rotate(-25 80.87 171.08)"/><circle cx="113.5" cy="194.0" r="19.0" fill="url(#glow)" opacity="0.8"/><path opacity="0.4" d="M112.8 181.2 Q113.5 179.7 114.2 181.2 L117.4 188.5 Q118.1 189.9 119.6 190.1 L127.6 190.9 Q129.2 191.1 128.0 192.2 L122.1 197.5 Q120.9 198.6 121.2 200.2 L122.9 208.0 Q123.2 209.6 121.8 208.8 L114.9 204.8 Q113.5 204.0 112.1 204.8 L105.2 208.8 Q103.8 209.6 104.1 208.0 L105.8 200.2 Q106.1 198.6 104.9 197.5 L99.0 192.2 Q97.8 191.1 99.4 190.9 L107.4 190.1 Q108.9 189.9 109.6 188.5 Z" fill="#000000" stroke="#1B2033" stroke-width="3.5" stroke-linejoin="round" /><ellipse cx="109.87" cy="191.26" rx="5.28" ry="2.9699999999999998" fill="url(#shine)" opacity="0.85" transform="rotate(-25 109.87 191.26)"/><path d="M112.8 179.0 Q113.5 177.5 114.2 179.0 L117.4 186.3 Q118.1 187.7 119.6 187.9 L127.6 188.7 Q129.2 188.9 128.0 190.0 L122.1 195.3 Q120.9 196.4 121.2 198.0 L122.9 205.8 Q123.2 207.4 121.8 206.6 L114.9 202.6 Q113.5 201.8 112.1 202.6 L105.2 206.6 Q103.8 207.4 104.1 205.8 L105.8 198.0 Q106.1 196.4 104.9 195.3 L99.0 190.0 Q97.8 188.9 99.4 188.7 L107.4 187.9 Q108.9 187.7 109.6 186.3 Z" fill="url(#s)" stroke="#1B2033" stroke-width="3.5" stroke-linejoin="round" /><ellipse cx="109.87" cy="189.06" rx="5.28" ry="2.9699999999999998" fill="url(#shine)" opacity="0.85" transform="rotate(-25 109.87 189.06)"/><circle cx="142.5" cy="194.0" r="19.0" fill="url(#glow)" opacity="0.8"/><path opacity="0.4" d="M141.8 181.2 Q142.5 179.7 143.2 181.2 L146.4 188.5 Q147.1 189.9 148.6 190.1 L156.6 190.9 Q158.2 191.1 157.0 192.2 L151.1 197.5 Q149.9 198.6 150.2 200.2 L151.9 208.0 Q152.2 209.6 150.8 208.8 L143.9 204.8 Q142.5 204.0 141.1 204.8 L134.2 208.8 Q132.8 209.6 133.1 208.0 L134.8 200.2 Q135.1 198.6 133.9 197.5 L128.0 192.2 Q126.8 191.1 128.4 190.9 L136.4 190.1 Q137.9 189.9 138.6 188.5 Z" fill="#000000" stroke="#1B2033" stroke-width="3.5" stroke-linejoin="round" /><ellipse cx="138.87" cy="191.26" rx="5.28" ry="2.9699999999999998" fill="url(#shine)" opacity="0.85" transform="rotate(-25 138.87 191.26)"/><path d="M141.8 179.0 Q142.5 177.5 143.2 179.0 L146.4 186.3 Q147.1 187.7 148.6 187.9 L156.6 188.7 Q158.2 188.9 157.0 190.0 L151.1 195.3 Q149.9 196.4 150.2 198.0 L151.9 205.8 Q152.2 207.4 150.8 206.6 L143.9 202.6 Q142.5 201.8 141.1 202.6 L134.2 206.6 Q132.8 207.4 133.1 205.8 L134.8 198.0 Q135.1 196.4 133.9 195.3 L128.0 190.0 Q126.8 188.9 128.4 188.7 L136.4 187.9 Q137.9 187.7 138.6 186.3 Z" fill="url(#s)" stroke="#1B2033" stroke-width="3.5" stroke-linejoin="round" /><ellipse cx="138.87" cy="189.06" rx="5.28" ry="2.9699999999999998" fill="url(#shine)" opacity="0.85" transform="rotate(-25 138.87 189.06)"/><circle cx="171.5" cy="176.0" r="19.0" fill="url(#glow)" opacity="0.8"/><path opacity="0.4" d="M170.8 163.2 Q171.5 161.7 172.2 163.2 L175.4 170.5 Q176.1 172.0 177.6 172.1 L185.6 173.0 Q187.2 173.1 186.0 174.2 L180.1 179.6 Q178.9 180.6 179.2 182.2 L180.9 190.0 Q181.2 191.6 179.8 190.8 L172.9 186.8 Q171.5 186.0 170.1 186.8 L163.2 190.8 Q161.8 191.6 162.1 190.0 L163.8 182.2 Q164.1 180.6 162.9 179.6 L157.0 174.2 Q155.8 173.1 157.4 173.0 L165.4 172.1 Q166.9 172.0 167.6 170.5 Z" fill="#000000" stroke="#1B2033" stroke-width="3.5" stroke-linejoin="round" /><ellipse cx="167.87" cy="173.28" rx="5.28" ry="2.9699999999999998" fill="url(#shine)" opacity="0.85" transform="rotate(-25 167.87 173.28)"/><path d="M170.8 161.0 Q171.5 159.5 172.2 161.0 L175.4 168.3 Q176.1 169.8 177.6 169.9 L185.6 170.8 Q187.2 170.9 186.0 172.0 L180.1 177.4 Q178.9 178.4 179.2 180.0 L180.9 187.8 Q181.2 189.4 179.8 188.6 L172.9 184.6 Q171.5 183.8 170.1 184.6 L163.2 188.6 Q161.8 189.4 162.1 187.8 L163.8 180.0 Q164.1 178.4 162.9 177.4 L157.0 172.0 Q155.8 170.9 157.4 170.8 L165.4 169.9 Q166.9 169.8 167.6 168.3 Z" fill="url(#s)" stroke="#1B2033" stroke-width="3.5" stroke-linejoin="round" /><ellipse cx="167.87" cy="171.08" rx="5.28" ry="2.9699999999999998" fill="url(#shine)" opacity="0.85" transform="rotate(-25 167.87 171.08)"/></g></svg>