<svg xmlns="http://www.w3.org/2000/svg" width="512" height="512" viewBox="0 0 256 256"><defs><linearGradient id="blue" x1="0" y1="0" x2="0.35" y2="1"><stop offset="0" stop-color="#9ED3FF"/><stop offset="0.45" stop-color="#3B9BFF"/><stop offset="1" stop-color="#1F6BD0"/></linearGradient><linearGradient id="green" x1="0" y1="0" x2="0.35" y2="1"><stop offset="0" stop-color="#A8F5BE"/><stop offset="0.45" stop-color="#3DD66B"/><stop offset="1" stop-color="#1E9E47"/></linearGradient><linearGradient id="red" x1="0" y1="0" x2="0.35" y2="1"><stop offset="0" stop-color="#FFA3A3"/><stop offset="0.45" stop-color="#FF4D4D"/><stop offset="1" stop-color="#C9283A"/></linearGradient><linearGradient id="gold" x1="0" y1="0" x2="0.35" y2="1"><stop offset="0" stop-color="#FFF1A0"/><stop offset="0.45" stop-color="#FFC928"/><stop offset="1" stop-color="#DB8E00"/></linearGradient><linearGradient id="wood" x1="0" y1="0" x2="0.35" y2="1"><stop offset="0" stop-color="#FFD9A0"/><stop offset="0.45" stop-color="#E7A35C"/><stop offset="1" stop-color="#A8622A"/></linearGradient><linearGradient id="darkwood" x1="0" y1="0" x2="0.35" y2="1"><stop offset="0" stop-color="#C07A45"/><stop offset="0.45" stop-color="#8A4B22"/><stop offset="1" stop-color="#5E3014"/></linearGradient><linearGradient id="white" x1="0" y1="0" x2="0.35" y2="1"><stop offset="0" stop-color="#FFFFFF"/><stop offset="0.45" stop-color="#F4F8FF"/><stop offset="1" stop-color="#C9D6EA"/></linearGradient><linearGradient id="grey" x1="0" y1="0" x2="0.35" y2="1"><stop offset="0" stop-color="#E4E9F2"/><stop offset="0.45" stop-color="#AEB8C8"/><stop offset="1" stop-color="#7B869A"/></linearGradient><linearGradient id="steel" x1="0" y1="0" x2="0.35" y2="1"><stop offset="0" stop-color="#D8E6F7"/><stop offset="0.45" stop-color="#9FB2CC"/><stop offset="1" stop-color="#6A7D98"/></linearGradient><linearGradient id="cloth" x1="0" y1="0" x2="0.35" y2="1"><stop offset="0" stop-color="#6FE08E"/><stop offset="0.45" stop-color="#2FA24F"/><stop offset="1" stop-color="#1C7A37"/></linearGradient><linearGradient id="sad" x1="0" y1="0" x2="0.35" y2="1"><stop offset="0" stop-color="#C4D4EE"/><stop offset="0.45" stop-color="#8EA3C7"/><stop offset="1" stop-color="#5E7299"/></linearGradient><linearGradient id="purple" x1="0" y1="0" x2="0.35" y2="1"><stop offset="0" stop-color="#D7B8FF"/><stop offset="0.45" stop-color="#A259FF"/><stop offset="1" stop-color="#6E2FD0"/></linearGradient><radialGradient id="shine" cx="0.5" cy="0.5" r="0.5"><stop offset="0" stop-color="#FFFFFF" stop-opacity="0.9"/><stop offset="1" stop-color="#FFFFFF" stop-opacity="0"/></radialGradient>
<filter id="ink" x="-30%" y="-30%" width="160%" height="160%" color-interpolation-filters="sRGB">
  <feGaussianBlur in="SourceAlpha" stdDeviation="6.92" result="blur"/>
  <feComponentTransfer in="blur" result="grown"><feFuncA type="linear" slope="7" intercept="-0.35"/></feComponentTransfer>
  <feOffset in="grown" dy="6" result="lip"/>
  <feMerge result="both"><feMergeNode in="lip"/><feMergeNode in="grown"/></feMerge>
  <feFlood flood-color="#1B2033"/>
  <feComposite in2="both" operator="in" result="outline"/>
  <feMerge><feMergeNode in="outline"/><feMergeNode in="SourceGraphic"/></feMerge>
</filter></defs><defs><filter id="badgeInk" x="-20%" y="-20%" width="140%" height="140%" color-interpolation-filters="sRGB">
  <feGaussianBlur in="SourceAlpha" stdDeviation="3.2" result="blur"/>
  <feComponentTransfer in="blur" result="grown"><feFuncA type="linear" slope="40" intercept="-0.716"/></feComponentTransfer>
  <feOffset in="grown" dy="5" result="lip"/>
  <feMerge result="both"><feMergeNode in="lip"/><feMergeNode in="grown"/></feMerge>
  <feFlood flood-color="#1B2033"/>
  <feComposite in2="both" operator="in" result="outline"/>
  <feMerge><feMergeNode in="outline"/><feMergeNode in="SourceGraphic"/></feMerge>
</filter></defs><defs><linearGradient id="m" x1="0" y1="0" x2="0.35" y2="1"><stop offset="0.00" stop-color="#FFF3A6"/><stop offset="0.50" stop-color="#FFC928"/><stop offset="1.00" stop-color="#C97F00"/></linearGradient><linearGradient id="r" x1="0" y1="0" x2="0.35" y2="1"><stop offset="0.00" stop-color="#E7A816"/><stop offset="0.60" stop-color="#FFC928"/><stop offset="1.00" stop-color="#FFE274"/></linearGradient><linearGradient id="w" x1="0" y1="0" x2="0.35" y2="1"><stop offset="0.00" stop-color="#FFE47A"/><stop offset="0.55" stop-color="#FFC928"/><stop offset="1.00" stop-color="#C97F00"/></linearGradient><linearGradient id="c" x1="0" y1="0" x2="0.3" y2="1"><stop offset="0.00" stop-color="#FFF8CA"/><stop offset="0.55" stop-color="#FFDC61"/><stop offset="1.00" stop-color="#FFC928"/></linearGradient><linearGradient id="s" x1="0" y1="0" x2="0.2" y2="1"><stop offset="0.00" stop-color="#FFFFFF"/><stop offset="0.50" stop-color="#FFF8CA"/><stop offset="1.00" stop-color="#FFE680"/></linearGradient><linearGradient id="g" x1="0" y1="0" x2="0.35" y2="1"><stop offset="0.00" stop-color="#FFF3A6"/><stop offset="0.50" stop-color="#FFC928"/><stop offset="1.00" stop-color="#C97F00"/></linearGradient><linearGradient id="gr" x1="0" y1="0" x2="0.35" y2="1"><stop offset="0.00" stop-color="#E7A816"/><stop offset="0.60" stop-color="#FFC928"/><stop offset="1.00" stop-color="#FFE274"/></linearGradient><radialGradient id="ball" cx="0.38" cy="0.32" r="0.78"><stop offset="0" stop-color="#5C6275"/><stop offset="0.4" stop-color="#23262F"/><stop offset="1" stop-color="#06070B"/></radialGradient></defs><g filter="url(#badgeInk)"><path d="M38.0 170.0 L86.0 198.0 L82.8 201.9 L52.9 184.5 Z" fill="#F4C238" stroke="#F4C238" stroke-width="0.8"/><path d="M86.0 198.0 L112.0 228.0 L101.1 223.0 L82.8 201.9 Z" fill="#EEB423" stroke="#EEB423" stroke-width="0.8"/><path d="M112.0 228.0 L74.0 228.0 L76.8 223.0 L101.1 223.0 Z" fill="#B77B08" stroke="#B77B08" stroke-width="0.8"/><path d="M74.0 228.0 L38.0 170.0 L52.9 184.5 L76.8 223.0 Z" fill="#EDB01C" stroke="#EDB01C" stroke-width="0.8"/><path d="M52.9 184.5 L82.8 201.9 L101.1 223.0 L76.8 223.0 Z" fill="url(#m)" /><path d="M52.9 184.5 L82.8 201.9 L101.1 223.0 L76.8 223.0 Z" fill="none" stroke="#1B2033" stroke-width="1.6" stroke-opacity="0.45" stroke-linejoin="round"/><path d="M38.0 170.0 L86.0 198.0 L112.0 228.0 L74.0 228.0 Z" fill="none" stroke="#1B2033" stroke-width="3.5" stroke-linejoin="round" /><path d="M12.0 74.0 L60.0 90.0 L54.9 94.6 L20.5 83.1 Z" fill="#FFE06E" stroke="#FFE06E" stroke-width="0.8"/><path d="M60.0 90.0 L86.0 206.0 L77.6 195.8 L54.9 94.6 Z" fill="#EFB31C" stroke="#EFB31C" stroke-width="0.8"/><path d="M86.0 206.0 L40.0 186.0 L45.1 181.7 L77.6 195.8 Z" fill="#E6A716" stroke="#E6A716" stroke-width="0.8"/><path d="M40.0 186.0 L12.0 74.0 L20.5 83.1 L45.1 181.7 Z" fill="#FFD64E" stroke="#FFD64E" stroke-width="0.8"/><path d="M20.5 83.1 L54.9 94.6 L77.6 195.8 L45.1 181.7 Z" fill="url(#m)" /><path d="M20.5 83.1 L54.9 94.6 L77.6 195.8 L45.1 181.7 Z" fill="none" stroke="#1B2033" stroke-width="1.6" stroke-opacity="0.45" stroke-linejoin="round"/><path d="M12.0 74.0 L60.0 90.0 L86.0 206.0 L40.0 186.0 Z" fill="none" stroke="#1B2033" stroke-width="3.5" stroke-linejoin="round" /><g transform="matrix(-1 0 0 1 256 0)"><path d="M38.0 170.0 L86.0 198.0 L82.8 201.9 L52.9 184.5 Z" fill="#F4C238" stroke="#F4C238" stroke-width="0.8"/><path d="M86.0 198.0 L112.0 228.0 L101.1 223.0 L82.8 201.9 Z" fill="#EEB423" stroke="#EEB423" stroke-width="0.8"/><path d="M112.0 228.0 L74.0 228.0 L76.8 223.0 L101.1 223.0 Z" fill="#B77B08" stroke="#B77B08" stroke-width="0.8"/><path d="M74.0 228.0 L38.0 170.0 L52.9 184.5 L76.8 223.0 Z" fill="#EDB01C" stroke="#EDB01C" stroke-width="0.8"/><path d="M52.9 184.5 L82.8 201.9 L101.1 223.0 L76.8 223.0 Z" fill="url(#m)" /><path d="M52.9 184.5 L82.8 201.9 L101.1 223.0 L76.8 223.0 Z" fill="none" stroke="#1B2033" stroke-width="1.6" stroke-opacity="0.45" stroke-linejoin="round"/><path d="M38.0 170.0 L86.0 198.0 L112.0 228.0 L74.0 228.0 Z" fill="none" stroke="#1B2033" stroke-width="3.5" stroke-linejoin="round" /><path d="M12.0 74.0 L60.0 90.0 L54.9 94.6 L20.5 83.1 Z" fill="#FFE06E" stroke="#FFE06E" stroke-width="0.8"/><path d="M60.0 90.0 L86.0 206.0 L77.6 195.8 L54.9 94.6 Z" fill="#EFB31C" stroke="#EFB31C" stroke-width="0.8"/><path d="M86.0 206.0 L40.0 186.0 L45.1 181.7 L77.6 195.8 Z" fill="#E6A716" stroke="#E6A716" stroke-width="0.8"/><path d="M40.0 186.0 L12.0 74.0 L20.5 83.1 L45.1 181.7 Z" fill="#FFD64E" stroke="#FFD64E" stroke-width="0.8"/><path d="M20.5 83.1 L54.9 94.6 L77.6 195.8 L45.1 181.7 Z" fill="url(#m)" /><path d="M20.5 83.1 L54.9 94.6 L77.6 195.8 L45.1 181.7 Z" fill="none" stroke="#1B2033" stroke-width="1.6" stroke-opacity="0.45" stroke-linejoin="round"/><path d="M12.0 74.0 L60.0 90.0 L86.0 206.0 L40.0 186.0 Z" fill="none" stroke="#1B2033" stroke-width="3.5" stroke-linejoin="round" /></g><path d="M128.0 42.0 L198.0 84.0 L188.0 89.7 L128.0 53.7 Z" fill="#FFD959" stroke="#FFD959" stroke-width="0.8"/><path d="M198.0 84.0 L198.0 180.0 L188.0 174.7 L188.0 89.7 Z" fill="#E6A615" stroke="#E6A615" stroke-width="0.8"/><path d="M198.0 180.0 L128.0 228.0 L128.0 215.9 L188.0 174.7 Z" fill="#D18A06" stroke="#D18A06" stroke-width="0.8"/><path d="M128.0 228.0 L58.0 180.0 L68.0 174.7 L128.0 215.9 Z" fill="#EEB21B" stroke="#EEB21B" stroke-width="0.8"/><path d="M58.0 180.0 L58.0 84.0 L68.0 89.7 L68.0 174.7 Z" fill="#FFDE66" stroke="#FFDE66" stroke-width="0.8"/><path d="M58.0 84.0 L128.0 42.0 L128.0 53.7 L68.0 89.7 Z" fill="#FFEF99" stroke="#FFEF99" stroke-width="0.8"/><path d="M128.0 53.7 L188.0 89.7 L188.0 174.7 L128.0 215.9 L68.0 174.7 L68.0 89.7 Z" fill="url(#r)" /><path d="M128.0 53.7 L188.0 89.7 L188.0 174.7 L128.0 215.9 L68.0 174.7 L68.0 89.7 Z" fill="none" stroke="#1B2033" stroke-width="1.6" stroke-opacity="0.45" stroke-linejoin="round"/><path d="M128.0 42.0 L198.0 84.0 L198.0 180.0 L128.0 228.0 L58.0 180.0 L58.0 84.0 Z" fill="none" stroke="#1B2033" stroke-width="3.5" stroke-linejoin="round" /><ellipse cx="86" cy="76" rx="16" ry="6" fill="url(#shine)" opacity="0.75" transform="rotate(-32 86 76)"/><circle cx="128" cy="138" r="58" fill="url(#r)" stroke="#1B2033" stroke-width="3.5"/><circle cx="128" cy="138" r="53" fill="url(#m)"/><circle cx="128" cy="138" r="50" fill="#1B2033"/><ellipse cx="92" cy="102" rx="14" ry="6" fill="url(#shine)" opacity="0.8" transform="rotate(-45 92 102)"/><circle cx="128" cy="138" r="46" fill="url(#ball)"/><circle cx="128.0" cy="135.2" r="20.2" fill="#FFFFFF"/><text x="128.0" y="145.4" font-family="Arial Black, Arial, sans-serif" font-weight="900" font-size="29.3" text-anchor="middle" fill="#1B2033">8</text><ellipse cx="108.68" cy="115.0" rx="15.64" ry="7.82" fill="url(#shine)" opacity="0.85" transform="rotate(-35 108.68 115.0)"/><ellipse cx="148.7" cy="161.0" rx="6.44" ry="3.22" fill="url(#shine)" opacity="0.35" transform="rotate(-40 148.7 161.0)"/><circle cx="193.8" cy="176.0" r="24.0" fill="#694B1C" stroke="#1B2033" stroke-width="3.5"/><circle cx="166.0" cy="203.8" r="24.0" fill="#694B1C" stroke="#1B2033" stroke-width="3.5"/><circle cx="128.0" cy="214.0" r="24.0" fill="#694B1C" stroke="#1B2033" stroke-width="3.5"/><circle cx="90.0" cy="203.8" r="24.0" fill="#694B1C" stroke="#1B2033" stroke-width="3.5"/><circle cx="62.2" cy="176.0" r="24.0" fill="#694B1C" stroke="#1B2033" stroke-width="3.5"/><circle cx="193.8" cy="176.0" r="22.25" fill="#694B1C"/><circle cx="166.0" cy="203.8" r="22.25" fill="#694B1C"/><circle cx="128.0" cy="214.0" r="22.25" fill="#694B1C"/><circle cx="90.0" cy="203.8" r="22.25" fill="#694B1C"/><circle cx="62.2" cy="176.0" r="22.25" fill="#694B1C"/><path d="M193.2 157.0 Q193.8 155.5 194.5 157.0 L198.8 166.7 Q199.5 168.2 201.1 168.4 L211.7 169.5 Q213.3 169.7 212.1 170.7 L204.2 177.9 Q203.0 179.0 203.3 180.5 L205.5 191.0 Q205.9 192.6 204.5 191.8 L195.2 186.4 Q193.8 185.6 192.4 186.4 L183.2 191.8 Q181.8 192.6 182.1 191.0 L184.3 180.5 Q184.7 179.0 183.5 177.9 L175.5 170.7 Q174.3 169.7 175.9 169.5 L186.6 168.4 Q188.2 168.2 188.8 166.7 Z" fill="url(#s)" stroke="#1B2033" stroke-width="3.5" stroke-linejoin="round" /><ellipse cx="189.30793068761736" cy="169.85" rx="6.5600000000000005" ry="3.69" fill="url(#shine)" opacity="0.85" transform="rotate(-25 189.30793068761736 169.85)"/><path d="M165.3 184.8 Q166.0 183.3 166.7 184.8 L171.0 194.6 Q171.7 196.0 173.3 196.2 L183.9 197.3 Q185.5 197.5 184.3 198.6 L176.4 205.7 Q175.2 206.8 175.5 208.4 L177.7 218.8 Q178.0 220.4 176.7 219.6 L167.4 214.3 Q166.0 213.5 164.6 214.3 L155.3 219.6 Q154.0 220.4 154.3 218.8 L156.5 208.4 Q156.8 206.8 155.6 205.7 L147.7 198.6 Q146.5 197.5 148.1 197.3 L158.7 196.2 Q160.3 196.0 161.0 194.6 Z" fill="url(#s)" stroke="#1B2033" stroke-width="3.5" stroke-linejoin="round" /><ellipse cx="161.49" cy="197.66793068761731" rx="6.5600000000000005" ry="3.69" fill="url(#shine)" opacity="0.85" transform="rotate(-25 161.49 197.66793068761731)"/><path d="M127.3 195.0 Q128.0 193.5 128.7 195.0 L133.0 204.7 Q133.7 206.2 135.3 206.4 L145.9 207.5 Q147.5 207.7 146.3 208.7 L138.4 215.9 Q137.2 217.0 137.5 218.5 L139.7 229.0 Q140.0 230.6 138.7 229.8 L129.4 224.4 Q128.0 223.6 126.6 224.4 L117.3 229.8 Q116.0 230.6 116.3 229.0 L118.5 218.5 Q118.8 217.0 117.6 215.9 L109.7 208.7 Q108.5 207.7 110.1 207.5 L120.7 206.4 Q122.3 206.2 123.0 204.7 Z" fill="url(#s)" stroke="#1B2033" stroke-width="3.5" stroke-linejoin="round" /><ellipse cx="123.49" cy="207.85" rx="6.5600000000000005" ry="3.69" fill="url(#shine)" opacity="0.85" transform="rotate(-25 123.49 207.85)"/><path d="M89.3 184.8 Q90.0 183.3 90.7 184.8 L95.0 194.6 Q95.7 196.0 97.3 196.2 L107.9 197.3 Q109.5 197.5 108.3 198.6 L100.4 205.7 Q99.2 206.8 99.5 208.4 L101.7 218.8 Q102.0 220.4 100.7 219.6 L91.4 214.3 Q90.0 213.5 88.6 214.3 L79.3 219.6 Q78.0 220.4 78.3 218.8 L80.5 208.4 Q80.8 206.8 79.6 205.7 L71.7 198.6 Q70.5 197.5 72.1 197.3 L82.7 196.2 Q84.3 196.0 85.0 194.6 Z" fill="url(#s)" stroke="#1B2033" stroke-width="3.5" stroke-linejoin="round" /><ellipse cx="85.49000000000001" cy="197.66793068761734" rx="6.5600000000000005" ry="3.69" fill="url(#shine)" opacity="0.85" transform="rotate(-25 85.49000000000001 197.66793068761734)"/><path d="M61.5 157.0 Q62.2 155.5 62.8 157.0 L67.2 166.7 Q67.8 168.2 69.4 168.4 L80.1 169.5 Q81.7 169.7 80.5 170.7 L72.5 177.9 Q71.3 179.0 71.7 180.5 L73.9 191.0 Q74.2 192.6 72.8 191.8 L63.6 186.4 Q62.2 185.6 60.8 186.4 L51.5 191.8 Q50.1 192.6 50.5 191.0 L52.7 180.5 Q53.0 179.0 51.8 177.9 L43.9 170.7 Q42.7 169.7 44.3 169.5 L54.9 168.4 Q56.5 168.2 57.2 166.7 Z" fill="url(#s)" stroke="#1B2033" stroke-width="3.5" stroke-linejoin="round" /><ellipse cx="57.67206931238265" cy="169.85" rx="6.5600000000000005" ry="3.69" fill="url(#shine)" opacity="0.85" transform="rotate(-25 57.67206931238265 169.85)"/></g></svg>