<svg xmlns="http://www.w3.org/2000/svg" width="512" height="512" viewBox="0 0 256 256"><defs><linearGradient id="blue" x1="0" y1="0" x2="0.35" y2="1"><stop offset="0" stop-color="#9ED3FF"/><stop offset="0.45" stop-color="#3B9BFF"/><stop offset="1" stop-color="#1F6BD0"/></linearGradient><linearGradient id="green" x1="0" y1="0" x2="0.35" y2="1"><stop offset="0" stop-color="#A8F5BE"/><stop offset="0.45" stop-color="#3DD66B"/><stop offset="1" stop-color="#1E9E47"/></linearGradient><linearGradient id="red" x1="0" y1="0" x2="0.35" y2="1"><stop offset="0" stop-color="#FFA3A3"/><stop offset="0.45" stop-color="#FF4D4D"/><stop offset="1" stop-color="#C9283A"/></linearGradient><linearGradient id="gold" x1="0" y1="0" x2="0.35" y2="1"><stop offset="0" stop-color="#FFF1A0"/><stop offset="0.45" stop-color="#FFC928"/><stop offset="1" stop-color="#DB8E00"/></linearGradient><linearGradient id="wood" x1="0" y1="0" x2="0.35" y2="1"><stop offset="0" stop-color="#FFD9A0"/><stop offset="0.45" stop-color="#E7A35C"/><stop offset="1" stop-color="#A8622A"/></linearGradient><linearGradient id="darkwood" x1="0" y1="0" x2="0.35" y2="1"><stop offset="0" stop-color="#C07A45"/><stop offset="0.45" stop-color="#8A4B22"/><stop offset="1" stop-color="#5E3014"/></linearGradient><linearGradient id="white" x1="0" y1="0" x2="0.35" y2="1"><stop offset="0" stop-color="#FFFFFF"/><stop offset="0.45" stop-color="#F4F8FF"/><stop offset="1" stop-color="#C9D6EA"/></linearGradient><linearGradient id="grey" x1="0" y1="0" x2="0.35" y2="1"><stop offset="0" stop-color="#E4E9F2"/><stop offset="0.45" stop-color="#AEB8C8"/><stop offset="1" stop-color="#7B869A"/></linearGradient><linearGradient id="steel" x1="0" y1="0" x2="0.35" y2="1"><stop offset="0" stop-color="#D8E6F7"/><stop offset="0.45" stop-color="#9FB2CC"/><stop offset="1" stop-color="#6A7D98"/></linearGradient><linearGradient id="cloth" x1="0" y1="0" x2="0.35" y2="1"><stop offset="0" stop-color="#6FE08E"/><stop offset="0.45" stop-color="#2FA24F"/><stop offset="1" stop-color="#1C7A37"/></linearGradient><linearGradient id="sad" x1="0" y1="0" x2="0.35" y2="1"><stop offset="0" stop-color="#C4D4EE"/><stop offset="0.45" stop-color="#8EA3C7"/><stop offset="1" stop-color="#5E7299"/></linearGradient><linearGradient id="purple" x1="0" y1="0" x2="0.35" y2="1"><stop offset="0" stop-color="#D7B8FF"/><stop offset="0.45" stop-color="#A259FF"/><stop offset="1" stop-color="#6E2FD0"/></linearGradient><radialGradient id="shine" cx="0.5" cy="0.5" r="0.5"><stop offset="0" stop-color="#FFFFFF" stop-opacity="0.9"/><stop offset="1" stop-color="#FFFFFF" stop-opacity="0"/></radialGradient>
<filter id="ink" x="-30%" y="-30%" width="160%" height="160%" color-interpolation-filters="sRGB">
  <feGaussianBlur in="SourceAlpha" stdDeviation="6.92" result="blur"/>
  <feComponentTransfer in="blur" result="grown"><feFuncA type="linear" slope="7" intercept="-0.35"/></feComponentTransfer>
  <feOffset in="grown" dy="6" result="lip"/>
  <feMerge result="both"><feMergeNode in="lip"/><feMergeNode in="grown"/></feMerge>
  <feFlood flood-color="#1B2033"/>
  <feComposite in2="both" operator="in" result="outline"/>
  <feMerge><feMergeNode in="outline"/><feMergeNode in="SourceGraphic"/></feMerge>
</filter></defs><defs><filter id="badgeInk" x="-20%" y="-20%" width="140%" height="140%" color-interpolation-filters="sRGB">
  <feGaussianBlur in="SourceAlpha" stdDeviation="3.2" result="blur"/>
  <feComponentTransfer in="blur" result="grown"><feFuncA type="linear" slope="40" intercept="-0.716"/></feComponentTransfer>
  <feOffset in="grown" dy="5" result="lip"/>
  <feMerge result="both"><feMergeNode in="lip"/><feMergeNode in="grown"/></feMerge>
  <feFlood flood-color="#1B2033"/>
  <feComposite in2="both" operator="in" result="outline"/>
  <feMerge><feMergeNode in="outline"/><feMergeNode in="SourceGraphic"/></feMerge>
</filter></defs><defs><linearGradient id="m" x1="0" y1="0" x2="0.35" y2="1"><stop offset="0.00" stop-color="#E8D6FF"/><stop offset="0.34" stop-color="#DEC4FF"/><stop offset="0.46" stop-color="#9B55F5"/><stop offset="0.52" stop-color="#E5D0FF"/><stop offset="0.60" stop-color="#9B55F5"/><stop offset="1.00" stop-color="#4C18A8"/></linearGradient><linearGradient id="r" x1="0" y1="0" x2="0.35" y2="1"><stop offset="0.00" stop-color="#773AD2"/><stop offset="0.60" stop-color="#9B55F5"/><stop offset="1.00" stop-color="#C398FB"/></linearGradient><linearGradient id="w" x1="0" y1="0" x2="0.35" y2="1"><stop offset="0.00" stop-color="#C79DFC"/><stop offset="0.55" stop-color="#9B55F5"/><stop offset="1.00" stop-color="#4C18A8"/></linearGradient><linearGradient id="c" x1="0" y1="0" x2="0.3" y2="1"><stop offset="0.00" stop-color="#EBDCFF"/><stop offset="0.55" stop-color="#B987FA"/><stop offset="1.00" stop-color="#9B55F5"/></linearGradient><linearGradient id="s" x1="0" y1="0" x2="0.2" y2="1"><stop offset="0.00" stop-color="#FFFFFF"/><stop offset="0.50" stop-color="#EBDCFF"/><stop offset="1.00" stop-color="#CAA3FC"/></linearGradient><linearGradient id="g" x1="0" y1="0" x2="0.35" y2="1"><stop offset="0.00" stop-color="#FFF3A6"/><stop offset="0.50" stop-color="#FFC928"/><stop offset="1.00" stop-color="#C97F00"/></linearGradient><linearGradient id="gr" x1="0" y1="0" x2="0.35" y2="1"><stop offset="0.00" stop-color="#E7A816"/><stop offset="0.60" stop-color="#FFC928"/><stop offset="1.00" stop-color="#FFE274"/></linearGradient><radialGradient id="ball" cx="0.38" cy="0.32" r="0.78"><stop offset="0" stop-color="#5C6275"/><stop offset="0.4" stop-color="#23262F"/><stop offset="1" stop-color="#06070B"/></radialGradient></defs><g filter="url(#badgeInk)"><path d="M83.1 177.3 L65.1 92.1 L74.7 53.2 L94.8 88.0 L100.9 174.7 Z" fill="url(#w)" stroke="#1B2033" stroke-width="3.5" stroke-linejoin="round" /><path d="M92.0 176.0 L100.9 174.7 L94.8 88.0 L74.7 53.2 Z" fill="#000000" opacity="0.25"/><path d="M92.0 176.0 L83.1 177.3 L65.1 92.1 L74.7 53.2 Z" fill="#DEC4FF" opacity="0.18"/><path d="M90.6 166.2 L76.5 65.5" fill="none" stroke="#DEC4FF" stroke-width="2.2" stroke-linecap="round" stroke-linejoin="round" opacity="0.6"/><path d="M83.1 177.3 L65.1 92.1 L74.7 53.2 L94.8 88.0 L100.9 174.7 Z" fill="none" stroke="#1B2033" stroke-width="3.5" stroke-linejoin="round" /><path d="M84.2 180.5 L38.4 113.2 L34.0 75.5 L64.4 98.2 L99.8 171.5 Z" fill="url(#w)" stroke="#1B2033" stroke-width="3.5" stroke-linejoin="round" /><path d="M92.0 176.0 L99.8 171.5 L64.4 98.2 L34.0 75.5 Z" fill="#000000" opacity="0.25"/><path d="M92.0 176.0 L84.2 180.5 L38.4 113.2 L34.0 75.5 Z" fill="#DEC4FF" opacity="0.18"/><path d="M87.4 168.0 L39.8 85.6" fill="none" stroke="#DEC4FF" stroke-width="2.2" stroke-linecap="round" stroke-linejoin="round" opacity="0.6"/><path d="M84.2 180.5 L38.4 113.2 L34.0 75.5 L64.4 98.2 L99.8 171.5 Z" fill="none" stroke="#1B2033" stroke-width="3.5" stroke-linejoin="round" /><path d="M86.7 183.3 L31.1 150.3 L17.6 121.9 L48.7 126.0 L97.3 168.7 Z" fill="url(#w)" stroke="#1B2033" stroke-width="3.5" stroke-linejoin="round" /><path d="M92.0 176.0 L97.3 168.7 L48.7 126.0 L17.6 121.9 Z" fill="#000000" opacity="0.25"/><path d="M92.0 176.0 L86.7 183.3 L31.1 150.3 L17.6 121.9 Z" fill="#DEC4FF" opacity="0.18"/><path d="M86.0 171.7 L25.0 127.3" fill="none" stroke="#DEC4FF" stroke-width="2.2" stroke-linecap="round" stroke-linejoin="round" opacity="0.6"/><path d="M86.7 183.3 L31.1 150.3 L17.6 121.9 L48.7 126.0 L97.3 168.7 Z" fill="none" stroke="#1B2033" stroke-width="3.5" stroke-linejoin="round" /><path d="M89.8 184.7 L40.8 178.7 L24.1 159.1 L48.1 149.6 L94.2 167.3 Z" fill="url(#w)" stroke="#1B2033" stroke-width="3.5" stroke-linejoin="round" /><path d="M92.0 176.0 L94.2 167.3 L48.1 149.6 L24.1 159.1 Z" fill="#000000" opacity="0.25"/><path d="M92.0 176.0 L89.8 184.7 L40.8 178.7 L24.1 159.1 Z" fill="#DEC4FF" opacity="0.18"/><path d="M86.6 174.6 L30.9 160.8" fill="none" stroke="#DEC4FF" stroke-width="2.2" stroke-linecap="round" stroke-linejoin="round" opacity="0.6"/><path d="M89.8 184.7 L40.8 178.7 L24.1 159.1 L48.1 149.6 L94.2 167.3 Z" fill="none" stroke="#1B2033" stroke-width="3.5" stroke-linejoin="round" /><path d="M93.3 184.9 L62.2 195.3 L46.4 182.4 L58.0 165.6 L90.7 167.1 Z" fill="url(#w)" stroke="#1B2033" stroke-width="3.5" stroke-linejoin="round" /><path d="M92.0 176.0 L90.7 167.1 L58.0 165.6 L46.4 182.4 Z" fill="#000000" opacity="0.25"/><path d="M92.0 176.0 L93.3 184.9 L62.2 195.3 L46.4 182.4 Z" fill="#DEC4FF" opacity="0.18"/><path d="M88.4 176.5 L51.0 181.8" fill="none" stroke="#DEC4FF" stroke-width="2.2" stroke-linecap="round" stroke-linejoin="round" opacity="0.6"/><path d="M93.3 184.9 L62.2 195.3 L46.4 182.4 L58.0 165.6 L90.7 167.1 Z" fill="none" stroke="#1B2033" stroke-width="3.5" stroke-linejoin="round" /><g transform="matrix(-1 0 0 1 256 0)"><path d="M83.1 177.3 L65.1 92.1 L74.7 53.2 L94.8 88.0 L100.9 174.7 Z" fill="url(#w)" stroke="#1B2033" stroke-width="3.5" stroke-linejoin="round" /><path d="M92.0 176.0 L100.9 174.7 L94.8 88.0 L74.7 53.2 Z" fill="#000000" opacity="0.25"/><path d="M92.0 176.0 L83.1 177.3 L65.1 92.1 L74.7 53.2 Z" fill="#DEC4FF" opacity="0.18"/><path d="M90.6 166.2 L76.5 65.5" fill="none" stroke="#DEC4FF" stroke-width="2.2" stroke-linecap="round" stroke-linejoin="round" opacity="0.6"/><path d="M83.1 177.3 L65.1 92.1 L74.7 53.2 L94.8 88.0 L100.9 174.7 Z" fill="none" stroke="#1B2033" stroke-width="3.5" stroke-linejoin="round" /><path d="M84.2 180.5 L38.4 113.2 L34.0 75.5 L64.4 98.2 L99.8 171.5 Z" fill="url(#w)" stroke="#1B2033" stroke-width="3.5" stroke-linejoin="round" /><path d="M92.0 176.0 L99.8 171.5 L64.4 98.2 L34.0 75.5 Z" fill="#000000" opacity="0.25"/><path d="M92.0 176.0 L84.2 180.5 L38.4 113.2 L34.0 75.5 Z" fill="#DEC4FF" opacity="0.18"/><path d="M87.4 168.0 L39.8 85.6" fill="none" stroke="#DEC4FF" stroke-width="2.2" stroke-linecap="round" stroke-linejoin="round" opacity="0.6"/><path d="M84.2 180.5 L38.4 113.2 L34.0 75.5 L64.4 98.2 L99.8 171.5 Z" fill="none" stroke="#1B2033" stroke-width="3.5" stroke-linejoin="round" /><path d="M86.7 183.3 L31.1 150.3 L17.6 121.9 L48.7 126.0 L97.3 168.7 Z" fill="url(#w)" stroke="#1B2033" stroke-width="3.5" stroke-linejoin="round" /><path d="M92.0 176.0 L97.3 168.7 L48.7 126.0 L17.6 121.9 Z" fill="#000000" opacity="0.25"/><path d="M92.0 176.0 L86.7 183.3 L31.1 150.3 L17.6 121.9 Z" fill="#DEC4FF" opacity="0.18"/><path d="M86.0 171.7 L25.0 127.3" fill="none" stroke="#DEC4FF" stroke-width="2.2" stroke-linecap="round" stroke-linejoin="round" opacity="0.6"/><path d="M86.7 183.3 L31.1 150.3 L17.6 121.9 L48.7 126.0 L97.3 168.7 Z" fill="none" stroke="#1B2033" stroke-width="3.5" stroke-linejoin="round" /><path d="M89.8 184.7 L40.8 178.7 L24.1 159.1 L48.1 149.6 L94.2 167.3 Z" fill="url(#w)" stroke="#1B2033" stroke-width="3.5" stroke-linejoin="round" /><path d="M92.0 176.0 L94.2 167.3 L48.1 149.6 L24.1 159.1 Z" fill="#000000" opacity="0.25"/><path d="M92.0 176.0 L89.8 184.7 L40.8 178.7 L24.1 159.1 Z" fill="#DEC4FF" opacity="0.18"/><path d="M86.6 174.6 L30.9 160.8" fill="none" stroke="#DEC4FF" stroke-width="2.2" stroke-linecap="round" stroke-linejoin="round" opacity="0.6"/><path d="M89.8 184.7 L40.8 178.7 L24.1 159.1 L48.1 149.6 L94.2 167.3 Z" fill="none" stroke="#1B2033" stroke-width="3.5" stroke-linejoin="round" /><path d="M93.3 184.9 L62.2 195.3 L46.4 182.4 L58.0 165.6 L90.7 167.1 Z" fill="url(#w)" stroke="#1B2033" stroke-width="3.5" stroke-linejoin="round" /><path d="M92.0 176.0 L90.7 167.1 L58.0 165.6 L46.4 182.4 Z" fill="#000000" opacity="0.25"/><path d="M92.0 176.0 L93.3 184.9 L62.2 195.3 L46.4 182.4 Z" fill="#DEC4FF" opacity="0.18"/><path d="M88.4 176.5 L51.0 181.8" fill="none" stroke="#DEC4FF" stroke-width="2.2" stroke-linecap="round" stroke-linejoin="round" opacity="0.6"/><path d="M93.3 184.9 L62.2 195.3 L46.4 182.4 L58.0 165.6 L90.7 167.1 Z" fill="none" stroke="#1B2033" stroke-width="3.5" stroke-linejoin="round" /></g><path d="M96.0 72.0 L160.0 72.0 L156.9 82.0 L99.1 82.0 Z" fill="#DBC0FD" stroke="#DBC0FD" stroke-width="0.8"/><path d="M160.0 72.0 L198.0 98.0 L188.0 103.3 L156.9 82.0 Z" fill="#B885F9" stroke="#B885F9" stroke-width="0.8"/><path d="M198.0 98.0 L198.0 176.0 L188.0 169.9 L188.0 103.3 Z" fill="#6A31BD" stroke="#6A31BD" stroke-width="0.8"/><path d="M198.0 176.0 L128.0 212.0 L128.0 200.8 L188.0 169.9 Z" fill="#421590" stroke="#421590" stroke-width="0.8"/><path d="M128.0 212.0 L58.0 176.0 L68.0 169.9 L128.0 200.8 Z" fill="#6F35C3" stroke="#6F35C3" stroke-width="0.8"/><path d="M58.0 176.0 L58.0 98.0 L68.0 103.3 L68.0 169.9 Z" fill="#C59CFA" stroke="#C59CFA" stroke-width="0.8"/><path d="M58.0 98.0 L96.0 72.0 L99.1 82.0 L68.0 103.3 Z" fill="#E8D5FF" stroke="#E8D5FF" stroke-width="0.8"/><path d="M106.3 75.3 L146.6 75.3" fill="none" stroke="#FFFFFF" stroke-width="2.2" stroke-linecap="round" stroke-linejoin="round" opacity="0.76"/><path d="M164.3 79.0 L187.5 94.9" fill="none" stroke="#FFFFFF" stroke-width="2.2" stroke-linecap="round" stroke-linejoin="round" opacity="0.54"/><path d="M61.3 162.8 L61.3 114.6" fill="none" stroke="#FFFFFF" stroke-width="2.2" stroke-linecap="round" stroke-linejoin="round" opacity="0.62"/><path d="M66.7 96.1 L89.9 80.2" fill="none" stroke="#FFFFFF" stroke-width="2.2" stroke-linecap="round" stroke-linejoin="round" opacity="0.85"/><path d="M99.1 82.0 L156.9 82.0 L188.0 103.3 L188.0 169.9 L128.0 200.8 L68.0 169.9 L68.0 103.3 Z" fill="url(#r)" /><path d="M99.1 82.0 L156.9 82.0 L188.0 103.3 L188.0 169.9 L128.0 200.8 L68.0 169.9 L68.0 103.3 Z" fill="none" stroke="#1B2033" stroke-width="1.8" stroke-opacity="0.6" stroke-linejoin="round"/><path d="M96.0 72.0 L160.0 72.0 L198.0 98.0 L198.0 176.0 L128.0 212.0 L58.0 176.0 L58.0 98.0 Z" fill="none" stroke="#1B2033" stroke-width="3.5" stroke-linejoin="round" /><ellipse cx="86" cy="76" rx="16" ry="6" fill="url(#shine)" opacity="0.75" transform="rotate(-32 86 76)"/><circle cx="58.0" cy="98.0" r="5.0" fill="url(#shine)" opacity="0.85"/><path d="M58.0 89.0 C58.9 96.7 59.4 97.1 67.0 98.0 C59.4 98.9 58.9 99.3 58.0 107.0 C57.1 99.3 56.6 98.9 49.0 98.0 C56.6 97.1 57.1 96.7 58.0 89.0 Z" fill="#FFFFFF" opacity="0.95"/><path d="M86.5 80.0 Q84.0 80.0 83.6 77.5 L78.4 48.5 Q78.0 46.0 80.0 47.6 L88.5 54.4 Q90.5 56.0 91.9 53.9 L101.6 40.1 Q103.0 38.0 104.4 40.1 L114.1 53.9 Q115.5 56.0 116.6 53.7 L126.9 32.3 Q128.0 30.0 129.1 32.3 L139.4 53.7 Q140.5 56.0 141.9 53.9 L151.6 40.1 Q153.0 38.0 154.4 40.1 L164.1 53.9 Q165.5 56.0 167.5 54.4 L176.0 47.6 Q178.0 46.0 177.6 48.5 L172.4 77.5 Q172.0 80.0 169.5 80.0 Z" fill="url(#c)" stroke="#1B2033" stroke-width="3.5" stroke-linejoin="round" /><path d="M78.0 46.0 L78.0 64.0 L90.5 56.0 Z" fill="#000000" opacity="0.16"/><path d="M103.0 38.0 L103.0 64.0 L115.5 56.0 Z" fill="#000000" opacity="0.16"/><path d="M128.0 30.0 L128.0 64.0 L140.5 56.0 Z" fill="#000000" opacity="0.16"/><path d="M153.0 38.0 L153.0 64.0 L165.5 56.0 Z" fill="#000000" opacity="0.16"/><path d="M178.0 46.0 L178.0 64.0 L175.0 64.0 Z" fill="#000000" opacity="0.16"/><path d="M86.5 80.0 Q84.0 80.0 83.6 77.5 L78.4 48.5 Q78.0 46.0 80.0 47.6 L88.5 54.4 Q90.5 56.0 91.9 53.9 L101.6 40.1 Q103.0 38.0 104.4 40.1 L114.1 53.9 Q115.5 56.0 116.6 53.7 L126.9 32.3 Q128.0 30.0 129.1 32.3 L139.4 53.7 Q140.5 56.0 141.9 53.9 L151.6 40.1 Q153.0 38.0 154.4 40.1 L164.1 53.9 Q165.5 56.0 167.5 54.4 L176.0 47.6 Q178.0 46.0 177.6 48.5 L172.4 77.5 Q172.0 80.0 169.5 80.0 Z" fill="none" stroke="#1B2033" stroke-width="3.5" stroke-linejoin="round" /><circle cx="78.0" cy="46.0" r="5.5" fill="url(#c)" stroke="#1B2033" stroke-width="3.5"/><circle cx="103.0" cy="38.0" r="5.5" fill="url(#c)" stroke="#1B2033" stroke-width="3.5"/><circle cx="128.0" cy="30.0" r="5.5" fill="url(#c)" stroke="#1B2033" stroke-width="3.5"/><circle cx="153.0" cy="38.0" r="5.5" fill="url(#c)" stroke="#1B2033" stroke-width="3.5"/><circle cx="178.0" cy="46.0" r="5.5" fill="url(#c)" stroke="#1B2033" stroke-width="3.5"/><path d="M80.7 67.9 Q80.0 64.0 84.0 64.0 L172.0 64.0 Q176.0 64.0 175.3 67.9 L173.7 76.1 Q173.0 80.0 169.0 80.0 L87.0 80.0 Q83.0 80.0 82.3 76.1 Z" fill="url(#r)" stroke="#1B2033" stroke-width="3.5" stroke-linejoin="round" /><ellipse cx="101.6" cy="49.0" rx="5" ry="13" fill="url(#shine)" opacity="0.75" transform="rotate(-15 101.6 49.0)"/><path d="M118.0 67.2 L128.0 53.3 L128.0 64.7 Z" fill="#F2E8FF" /><path d="M128.0 53.3 L138.0 67.2 L128.0 64.7 Z" fill="#EBDCFF" /><path d="M118.0 67.2 L128.0 64.7 L128.0 81.1 Z" fill="#DEC4FF" /><path d="M128.0 64.7 L138.0 67.2 L128.0 81.1 Z" fill="#9B55F5" /><path d="M128.0 53.3 L138.0 67.2 L128.0 81.1 L118.0 67.2 Z" fill="none" stroke="#1B2033" stroke-width="3.5" stroke-linejoin="round" /><path d="M118.0 67.2 L128.0 64.7 L138.0 67.2 M128.0 64.7 L128.0 81.1" fill="none" stroke="#1B2033" stroke-width="1.4" opacity="0.45"/><ellipse cx="124.99328" cy="60.936" rx="2.2049279999999998" ry="1.9488" fill="url(#shine)" opacity="0.9" transform="rotate(-40 124.99328 60.936)"/><circle cx="101.6" cy="72.0" r="4.0" fill="#F1E6FF" stroke="#1B2033" stroke-width="2"/><circle cx="154.4" cy="72.0" r="4.0" fill="#F1E6FF" stroke="#1B2033" stroke-width="2"/><circle cx="128" cy="138" r="58" fill="url(#r)" stroke="#1B2033" stroke-width="3.5"/><circle cx="128" cy="138" r="53" fill="url(#m)"/><circle cx="128" cy="138" r="50" fill="#1B2033"/><ellipse cx="92" cy="102" rx="14" ry="6" fill="url(#shine)" opacity="0.8" transform="rotate(-45 92 102)"/><circle cx="128" cy="138" r="46" fill="url(#ball)"/><circle cx="128.0" cy="135.2" r="20.2" fill="#FFFFFF"/><text x="128.0" y="145.4" font-family="Arial Black, Arial, sans-serif" font-weight="900" font-size="29.3" text-anchor="middle" fill="#1B2033">8</text><ellipse cx="111.44" cy="117.76" rx="23.0" ry="12.88" fill="url(#shine)" opacity="0.45" transform="rotate(-35 111.44 117.76)"/><ellipse cx="108.68" cy="114.08" rx="13.799999999999999" ry="5.98" fill="url(#shine)" opacity="0.95" transform="rotate(-35 108.68 114.08)"/><circle cx="104.1" cy="116.8" r="4.0" fill="url(#shine)" opacity="0.85"/><path d="M104.1 109.5 C104.8 115.7 105.2 116.1 111.4 116.8 C105.2 117.6 104.8 117.9 104.1 124.2 C103.3 117.9 103.0 117.6 96.7 116.8 C103.0 116.1 103.3 115.7 104.1 109.5 Z" fill="#FFFFFF" opacity="0.95"/><path d="M170.8 151.8 A44.6 44.6 0 0 1 137.2 181.7" fill="none" stroke="#FFFFFF" stroke-width="3.2" stroke-linecap="round" opacity="0.35"/><defs><radialGradient id="glow"><stop offset="0" stop-color="#FFFFFF" stop-opacity="0.55"/><stop offset="1" stop-color="#FFFFFF" stop-opacity="0"/></radialGradient></defs><circle cx="112.7" cy="196.0" r="23.1" fill="url(#glow)"/><path d="M112.7 177.6 L128.3 196.0 L112.7 214.5 L97.2 196.0 Z" fill="#1B2033" stroke="#1B2033" stroke-width="7.5" stroke-linejoin="round"/><path d="M97.2 196.0 L112.7 177.6 L112.7 192.7 Z" fill="#F5EDFF" /><path d="M112.7 177.6 L128.3 196.0 L112.7 192.7 Z" fill="#EEE2FF" /><path d="M97.2 196.0 L112.7 192.7 L112.7 214.5 Z" fill="#DEC4FF" /><path d="M112.7 192.7 L128.3 196.0 L112.7 214.5 Z" fill="#AF76F8" /><path d="M112.7 177.6 L128.3 196.0 L112.7 214.5 L97.2 196.0 Z" fill="none" stroke="#1B2033" stroke-width="3.5" stroke-linejoin="round" /><path d="M97.2 196.0 L112.7 192.7 L128.3 196.0 M112.7 192.7 L112.7 214.5" fill="none" stroke="#1B2033" stroke-width="1.4" opacity="0.45"/><ellipse cx="108.08315661457883" cy="187.7156325" rx="3.4128863999999997" ry="2.5855200000000003" fill="url(#shine)" opacity="0.9" transform="rotate(-40 108.08315661457883 187.7156325)"/><circle cx="143.3" cy="196.0" r="23.1" fill="url(#glow)"/><path d="M143.3 177.6 L158.8 196.0 L143.3 214.5 L127.7 196.0 Z" fill="#1B2033" stroke="#1B2033" stroke-width="7.5" stroke-linejoin="round"/><path d="M127.7 196.0 L143.3 177.6 L143.3 192.7 Z" fill="#F5EDFF" /><path d="M143.3 177.6 L158.8 196.0 L143.3 192.7 Z" fill="#EEE2FF" /><path d="M127.7 196.0 L143.3 192.7 L143.3 214.5 Z" fill="#DEC4FF" /><path d="M143.3 192.7 L158.8 196.0 L143.3 214.5 Z" fill="#AF76F8" /><path d="M143.3 177.6 L158.8 196.0 L143.3 214.5 L127.7 196.0 Z" fill="none" stroke="#1B2033" stroke-width="3.5" stroke-linejoin="round" /><path d="M127.7 196.0 L143.3 192.7 L158.8 196.0 M143.3 192.7 L143.3 214.5" fill="none" stroke="#1B2033" stroke-width="1.4" opacity="0.45"/><ellipse cx="138.60897138542117" cy="187.7156325" rx="3.4128863999999997" ry="2.5855200000000003" fill="url(#shine)" opacity="0.9" transform="rotate(-40 138.60897138542117 187.7156325)"/></g></svg>