<svg xmlns="http://www.w3.org/2000/svg" width="512" height="512" viewBox="0 0 256 256"><defs><linearGradient id="blue" x1="0" y1="0" x2="0.35" y2="1"><stop offset="0" stop-color="#9ED3FF"/><stop offset="0.45" stop-color="#3B9BFF"/><stop offset="1" stop-color="#1F6BD0"/></linearGradient><linearGradient id="green" x1="0" y1="0" x2="0.35" y2="1"><stop offset="0" stop-color="#A8F5BE"/><stop offset="0.45" stop-color="#3DD66B"/><stop offset="1" stop-color="#1E9E47"/></linearGradient><linearGradient id="red" x1="0" y1="0" x2="0.35" y2="1"><stop offset="0" stop-color="#FFA3A3"/><stop offset="0.45" stop-color="#FF4D4D"/><stop offset="1" stop-color="#C9283A"/></linearGradient><linearGradient id="gold" x1="0" y1="0" x2="0.35" y2="1"><stop offset="0" stop-color="#FFF1A0"/><stop offset="0.45" stop-color="#FFC928"/><stop offset="1" stop-color="#DB8E00"/></linearGradient><linearGradient id="wood" x1="0" y1="0" x2="0.35" y2="1"><stop offset="0" stop-color="#FFD9A0"/><stop offset="0.45" stop-color="#E7A35C"/><stop offset="1" stop-color="#A8622A"/></linearGradient><linearGradient id="darkwood" x1="0" y1="0" x2="0.35" y2="1"><stop offset="0" stop-color="#C07A45"/><stop offset="0.45" stop-color="#8A4B22"/><stop offset="1" stop-color="#5E3014"/></linearGradient><linearGradient id="white" x1="0" y1="0" x2="0.35" y2="1"><stop offset="0" stop-color="#FFFFFF"/><stop offset="0.45" stop-color="#F4F8FF"/><stop offset="1" stop-color="#C9D6EA"/></linearGradient><linearGradient id="grey" x1="0" y1="0" x2="0.35" y2="1"><stop offset="0" stop-color="#E4E9F2"/><stop offset="0.45" stop-color="#AEB8C8"/><stop offset="1" stop-color="#7B869A"/></linearGradient><linearGradient id="steel" x1="0" y1="0" x2="0.35" y2="1"><stop offset="0" stop-color="#D8E6F7"/><stop offset="0.45" stop-color="#9FB2CC"/><stop offset="1" stop-color="#6A7D98"/></linearGradient><linearGradient id="cloth" x1="0" y1="0" x2="0.35" y2="1"><stop offset="0" stop-color="#6FE08E"/><stop offset="0.45" stop-color="#2FA24F"/><stop offset="1" stop-color="#1C7A37"/></linearGradient><linearGradient id="sad" x1="0" y1="0" x2="0.35" y2="1"><stop offset="0" stop-color="#C4D4EE"/><stop offset="0.45" stop-color="#8EA3C7"/><stop offset="1" stop-color="#5E7299"/></linearGradient><linearGradient id="purple" x1="0" y1="0" x2="0.35" y2="1"><stop offset="0" stop-color="#D7B8FF"/><stop offset="0.45" stop-color="#A259FF"/><stop offset="1" stop-color="#6E2FD0"/></linearGradient><radialGradient id="shine" cx="0.5" cy="0.5" r="0.5"><stop offset="0" stop-color="#FFFFFF" stop-opacity="0.9"/><stop offset="1" stop-color="#FFFFFF" stop-opacity="0"/></radialGradient>
<filter id="ink" x="-30%" y="-30%" width="160%" height="160%" color-interpolation-filters="sRGB">
  <feGaussianBlur in="SourceAlpha" stdDeviation="6.92" result="blur"/>
  <feComponentTransfer in="blur" result="grown"><feFuncA type="linear" slope="7" intercept="-0.35"/></feComponentTransfer>
  <feOffset in="grown" dy="6" result="lip"/>
  <feMerge result="both"><feMergeNode in="lip"/><feMergeNode in="grown"/></feMerge>
  <feFlood flood-color="#1B2033"/>
  <feComposite in2="both" operator="in" result="outline"/>
  <feMerge><feMergeNode in="outline"/><feMergeNode in="SourceGraphic"/></feMerge>
</filter></defs><defs><filter id="badgeInk" x="-20%" y="-20%" width="140%" height="140%" color-interpolation-filters="sRGB">
  <feGaussianBlur in="SourceAlpha" stdDeviation="3.2" result="blur"/>
  <feComponentTransfer in="blur" result="grown"><feFuncA type="linear" slope="40" intercept="-0.716"/></feComponentTransfer>
  <feOffset in="grown" dy="5" result="lip"/>
  <feMerge result="both"><feMergeNode in="lip"/><feMergeNode in="grown"/></feMerge>
  <feFlood flood-color="#1B2033"/>
  <feComposite in2="both" operator="in" result="outline"/>
  <feMerge><feMergeNode in="outline"/><feMergeNode in="SourceGraphic"/></feMerge>
</filter></defs><defs><linearGradient id="m" x1="0" y1="0" x2="0.35" y2="1"><stop offset="0.00" stop-color="#F2FBFF"/><stop offset="0.50" stop-color="#A6D6F2"/><stop offset="1.00" stop-color="#5588B8"/></linearGradient><linearGradient id="r" x1="0" y1="0" x2="0.35" y2="1"><stop offset="0.00" stop-color="#82B3D8"/><stop offset="0.60" stop-color="#A6D6F2"/><stop offset="1.00" stop-color="#D4ECFA"/></linearGradient><linearGradient id="w" x1="0" y1="0" x2="0.35" y2="1"><stop offset="0.00" stop-color="#D7EEFA"/><stop offset="0.55" stop-color="#A6D6F2"/><stop offset="1.00" stop-color="#5588B8"/></linearGradient><linearGradient id="c" x1="0" y1="0" x2="0.3" y2="1"><stop offset="0.00" stop-color="#F7FDFF"/><stop offset="0.55" stop-color="#C8E7F8"/><stop offset="1.00" stop-color="#A6D6F2"/></linearGradient><linearGradient id="s" x1="0" y1="0" x2="0.2" y2="1"><stop offset="0.00" stop-color="#FFFFFF"/><stop offset="0.50" stop-color="#F7FDFF"/><stop offset="1.00" stop-color="#DBF0FB"/></linearGradient><linearGradient id="g" x1="0" y1="0" x2="0.35" y2="1"><stop offset="0.00" stop-color="#FFF3A6"/><stop offset="0.50" stop-color="#FFC928"/><stop offset="1.00" stop-color="#C97F00"/></linearGradient><linearGradient id="gr" x1="0" y1="0" x2="0.35" y2="1"><stop offset="0.00" stop-color="#E7A816"/><stop offset="0.60" stop-color="#FFC928"/><stop offset="1.00" stop-color="#FFE274"/></linearGradient><radialGradient id="ball" cx="0.38" cy="0.32" r="0.78"><stop offset="0" stop-color="#5C6275"/><stop offset="0.4" stop-color="#23262F"/><stop offset="1" stop-color="#06070B"/></radialGradient></defs><g filter="url(#badgeInk)"><path d="M76.1 178.9 Q49.8 128.8 55.1 67.3 Q89.3 114.5 91.9 173.1 Z" fill="url(#w)" stroke="#1B2033" stroke-width="3.5" stroke-linejoin="round" /><path d="M84.0 176.0 L91.9 173.1 Q89.3 114.5 55.1 67.3 Z" fill="#000000" opacity="0.22"/><path d="M79.6 163.3 L61.6 98.3" fill="none" stroke="#F2FBFF" stroke-width="2.6" stroke-linecap="round" stroke-linejoin="round" opacity="0.7"/><path d="M76.1 178.9 Q49.8 128.8 55.1 67.3 Q89.3 114.5 91.9 173.1 Z" fill="none" stroke="#1B2033" stroke-width="3.5" stroke-linejoin="round" /><path d="M77.4 181.2 Q40.6 146.5 30.3 91.0 Q73.7 120.6 90.6 170.8 Z" fill="url(#w)" stroke="#1B2033" stroke-width="3.5" stroke-linejoin="round" /><path d="M84.0 176.0 L90.6 170.8 Q73.7 120.6 30.3 91.0 Z" fill="#000000" opacity="0.22"/><path d="M76.8 166.4 L44.0 115.9" fill="none" stroke="#F2FBFF" stroke-width="2.6" stroke-linecap="round" stroke-linejoin="round" opacity="0.7"/><path d="M77.4 181.2 Q40.6 146.5 30.3 91.0 Q73.7 120.6 90.6 170.8 Z" fill="none" stroke="#1B2033" stroke-width="3.5" stroke-linejoin="round" /><path d="M79.3 183.0 Q41.9 166.9 23.3 123.0 Q65.4 132.1 88.7 169.0 Z" fill="url(#w)" stroke="#1B2033" stroke-width="3.5" stroke-linejoin="round" /><path d="M84.0 176.0 L88.7 169.0 Q65.4 132.1 23.3 123.0 Z" fill="#000000" opacity="0.22"/><path d="M76.2 170.5 L39.3 139.2" fill="none" stroke="#F2FBFF" stroke-width="2.6" stroke-linecap="round" stroke-linejoin="round" opacity="0.7"/><path d="M79.3 183.0 Q41.9 166.9 23.3 123.0 Q65.4 132.1 88.7 169.0 Z" fill="none" stroke="#1B2033" stroke-width="3.5" stroke-linejoin="round" /><path d="M81.7 184.1 Q50.8 183.1 29.1 149.8 Q62.3 142.7 86.3 167.9 Z" fill="url(#w)" stroke="#1B2033" stroke-width="3.5" stroke-linejoin="round" /><path d="M84.0 176.0 L86.3 167.9 Q62.3 142.7 29.1 149.8 Z" fill="#000000" opacity="0.22"/><path d="M77.1 173.8 L44.0 158.8" fill="none" stroke="#F2FBFF" stroke-width="2.6" stroke-linecap="round" stroke-linejoin="round" opacity="0.7"/><path d="M81.7 184.1 Q50.8 183.1 29.1 149.8 Q62.3 142.7 86.3 167.9 Z" fill="none" stroke="#1B2033" stroke-width="3.5" stroke-linejoin="round" /><g transform="matrix(-1 0 0 1 256 0)"><path d="M76.1 178.9 Q49.8 128.8 55.1 67.3 Q89.3 114.5 91.9 173.1 Z" fill="url(#w)" stroke="#1B2033" stroke-width="3.5" stroke-linejoin="round" /><path d="M84.0 176.0 L91.9 173.1 Q89.3 114.5 55.1 67.3 Z" fill="#000000" opacity="0.22"/><path d="M79.6 163.3 L61.6 98.3" fill="none" stroke="#F2FBFF" stroke-width="2.6" stroke-linecap="round" stroke-linejoin="round" opacity="0.7"/><path d="M76.1 178.9 Q49.8 128.8 55.1 67.3 Q89.3 114.5 91.9 173.1 Z" fill="none" stroke="#1B2033" stroke-width="3.5" stroke-linejoin="round" /><path d="M77.4 181.2 Q40.6 146.5 30.3 91.0 Q73.7 120.6 90.6 170.8 Z" fill="url(#w)" stroke="#1B2033" stroke-width="3.5" stroke-linejoin="round" /><path d="M84.0 176.0 L90.6 170.8 Q73.7 120.6 30.3 91.0 Z" fill="#000000" opacity="0.22"/><path d="M76.8 166.4 L44.0 115.9" fill="none" stroke="#F2FBFF" stroke-width="2.6" stroke-linecap="round" stroke-linejoin="round" opacity="0.7"/><path d="M77.4 181.2 Q40.6 146.5 30.3 91.0 Q73.7 120.6 90.6 170.8 Z" fill="none" stroke="#1B2033" stroke-width="3.5" stroke-linejoin="round" /><path d="M79.3 183.0 Q41.9 166.9 23.3 123.0 Q65.4 132.1 88.7 169.0 Z" fill="url(#w)" stroke="#1B2033" stroke-width="3.5" stroke-linejoin="round" /><path d="M84.0 176.0 L88.7 169.0 Q65.4 132.1 23.3 123.0 Z" fill="#000000" opacity="0.22"/><path d="M76.2 170.5 L39.3 139.2" fill="none" stroke="#F2FBFF" stroke-width="2.6" stroke-linecap="round" stroke-linejoin="round" opacity="0.7"/><path d="M79.3 183.0 Q41.9 166.9 23.3 123.0 Q65.4 132.1 88.7 169.0 Z" fill="none" stroke="#1B2033" stroke-width="3.5" stroke-linejoin="round" /><path d="M81.7 184.1 Q50.8 183.1 29.1 149.8 Q62.3 142.7 86.3 167.9 Z" fill="url(#w)" stroke="#1B2033" stroke-width="3.5" stroke-linejoin="round" /><path d="M84.0 176.0 L86.3 167.9 Q62.3 142.7 29.1 149.8 Z" fill="#000000" opacity="0.22"/><path d="M77.1 173.8 L44.0 158.8" fill="none" stroke="#F2FBFF" stroke-width="2.6" stroke-linecap="round" stroke-linejoin="round" opacity="0.7"/><path d="M81.7 184.1 Q50.8 183.1 29.1 149.8 Q62.3 142.7 86.3 167.9 Z" fill="none" stroke="#1B2033" stroke-width="3.5" stroke-linejoin="round" /></g><path d="M128.0 42.0 L198.0 84.0 L188.0 89.7 L128.0 53.7 Z" fill="#C3E4F7" stroke="#C3E4F7" stroke-width="0.8"/><path d="M198.0 84.0 L198.0 180.0 L188.0 174.7 L188.0 89.7 Z" fill="#80B2D7" stroke="#80B2D7" stroke-width="0.8"/><path d="M198.0 180.0 L128.0 228.0 L128.0 215.9 L188.0 174.7 Z" fill="#6194C1" stroke="#6194C1" stroke-width="0.8"/><path d="M128.0 228.0 L58.0 180.0 L68.0 174.7 L128.0 215.9 Z" fill="#8CBDE0" stroke="#8CBDE0" stroke-width="0.8"/><path d="M58.0 180.0 L58.0 84.0 L68.0 89.7 L68.0 174.7 Z" fill="#CCE8F8" stroke="#CCE8F8" stroke-width="0.8"/><path d="M58.0 84.0 L128.0 42.0 L128.0 53.7 L68.0 89.7 Z" fill="#EAF7FE" stroke="#EAF7FE" stroke-width="0.8"/><path d="M128.0 53.7 L188.0 89.7 L188.0 174.7 L128.0 215.9 L68.0 174.7 L68.0 89.7 Z" fill="url(#r)" /><path d="M128.0 53.7 L188.0 89.7 L188.0 174.7 L128.0 215.9 L68.0 174.7 L68.0 89.7 Z" fill="none" stroke="#1B2033" stroke-width="1.6" stroke-opacity="0.45" stroke-linejoin="round"/><path d="M128.0 42.0 L198.0 84.0 L198.0 180.0 L128.0 228.0 L58.0 180.0 L58.0 84.0 Z" fill="none" stroke="#1B2033" stroke-width="3.5" stroke-linejoin="round" /><ellipse cx="86" cy="76" rx="16" ry="6" fill="url(#shine)" opacity="0.75" transform="rotate(-32 86 76)"/><circle cx="128" cy="138" r="58" fill="url(#r)" stroke="#1B2033" stroke-width="3.5"/><circle cx="128" cy="138" r="53" fill="url(#m)"/><circle cx="128" cy="138" r="50" fill="#1B2033"/><ellipse cx="92" cy="102" rx="14" ry="6" fill="url(#shine)" opacity="0.8" transform="rotate(-45 92 102)"/><circle cx="128" cy="138" r="46" fill="url(#ball)"/><circle cx="128.0" cy="135.2" r="20.2" fill="#FFFFFF"/><text x="128.0" y="145.4" font-family="Arial Black, Arial, sans-serif" font-weight="900" font-size="29.3" text-anchor="middle" fill="#1B2033">8</text><ellipse cx="108.68" cy="115.0" rx="15.64" ry="7.82" fill="url(#shine)" opacity="0.85" transform="rotate(-35 108.68 115.0)"/><ellipse cx="148.7" cy="161.0" rx="6.44" ry="3.22" fill="url(#shine)" opacity="0.35" transform="rotate(-40 148.7 161.0)"/><defs><radialGradient id="tray" gradientUnits="userSpaceOnUse" cx="128" cy="138" r="97.0"><stop offset="0.526" stop-color="#27354E"/><stop offset="0.763" stop-color="#324A68"/><stop offset="1" stop-color="#3F6085"/></radialGradient><radialGradient id="glow"><stop offset="0" stop-color="#FFFFFF" stop-opacity="0.5"/><stop offset="1" stop-color="#FFFFFF" stop-opacity="0"/></radialGradient></defs><path d="M165.0 202.1 A74 74 0 0 1 91.0 202.1" fill="none" stroke="#1B2033" stroke-width="49.5" stroke-linecap="round"/><path d="M165.0 202.1 A74 74 0 0 1 91.0 202.1" fill="none" stroke="url(#tray)" stroke-width="42.5" stroke-linecap="round"/><path d="M174.2 217.9 A92.3 92.3 0 0 1 81.8 217.9" fill="none" stroke="#F2FBFF" stroke-width="1.6" stroke-opacity="0.45" stroke-linecap="round"/><path d="M156.0 186.5 A56.0 56.0 0 0 1 100.0 186.5" fill="none" stroke="#000000" stroke-width="2.4" stroke-opacity="0.35" stroke-linecap="round"/><circle cx="165.0" cy="202.1" r="21.3" fill="url(#glow)" opacity="0.8"/><path opacity="0.4" d="M164.3 187.4 Q165.0 186.0 165.7 187.4 L169.5 196.0 Q170.1 197.5 171.7 197.6 L181.0 198.6 Q182.6 198.8 181.4 199.8 L174.5 206.1 Q173.3 207.2 173.6 208.7 L175.5 217.9 Q175.9 219.5 174.5 218.7 L166.4 214.0 Q165.0 213.2 163.6 214.0 L155.5 218.7 Q154.1 219.5 154.5 217.9 L156.4 208.7 Q156.7 207.2 155.5 206.1 L148.6 199.8 Q147.4 198.8 149.0 198.6 L158.3 197.6 Q159.9 197.5 160.5 196.0 Z" fill="#000000" stroke="#1B2033" stroke-width="3.5" stroke-linejoin="round" /><ellipse cx="160.93" cy="198.93587988004845" rx="5.92" ry="3.33" fill="url(#shine)" opacity="0.85" transform="rotate(-25 160.93 198.93587988004845)"/><path d="M164.3 185.0 Q165.0 183.6 165.7 185.0 L169.5 193.6 Q170.1 195.1 171.7 195.2 L181.0 196.2 Q182.6 196.4 181.4 197.4 L174.5 203.7 Q173.3 204.8 173.6 206.3 L175.5 215.5 Q175.9 217.1 174.5 216.3 L166.4 211.6 Q165.0 210.8 163.6 211.6 L155.5 216.3 Q154.1 217.1 154.5 215.5 L156.4 206.3 Q156.7 204.8 155.5 203.7 L148.6 197.4 Q147.4 196.4 149.0 196.2 L158.3 195.2 Q159.9 195.1 160.5 193.6 Z" fill="url(#s)" stroke="#1B2033" stroke-width="3.5" stroke-linejoin="round" /><ellipse cx="160.93" cy="196.53587988004844" rx="5.92" ry="3.33" fill="url(#shine)" opacity="0.85" transform="rotate(-25 160.93 196.53587988004844)"/><circle cx="128.0" cy="212.0" r="21.3" fill="url(#glow)" opacity="0.8"/><path opacity="0.4" d="M127.3 197.4 Q128.0 195.9 128.7 197.4 L132.5 205.9 Q133.1 207.4 134.7 207.5 L144.0 208.5 Q145.6 208.7 144.4 209.8 L137.5 216.0 Q136.3 217.1 136.6 218.7 L138.5 227.8 Q138.9 229.4 137.5 228.6 L129.4 223.9 Q128.0 223.1 126.6 223.9 L118.5 228.6 Q117.1 229.4 117.5 227.8 L119.4 218.7 Q119.7 217.1 118.5 216.0 L111.6 209.8 Q110.4 208.7 112.0 208.5 L121.3 207.5 Q122.9 207.4 123.5 205.9 Z" fill="#000000" stroke="#1B2033" stroke-width="3.5" stroke-linejoin="round" /><ellipse cx="123.93" cy="208.85" rx="5.92" ry="3.33" fill="url(#shine)" opacity="0.85" transform="rotate(-25 123.93 208.85)"/><path d="M127.3 195.0 Q128.0 193.5 128.7 195.0 L132.5 203.5 Q133.1 205.0 134.7 205.1 L144.0 206.1 Q145.6 206.3 144.4 207.4 L137.5 213.6 Q136.3 214.7 136.6 216.3 L138.5 225.4 Q138.9 227.0 137.5 226.2 L129.4 221.5 Q128.0 220.7 126.6 221.5 L118.5 226.2 Q117.1 227.0 117.5 225.4 L119.4 216.3 Q119.7 214.7 118.5 213.6 L111.6 207.4 Q110.4 206.3 112.0 206.1 L121.3 205.1 Q122.9 205.0 123.5 203.5 Z" fill="url(#s)" stroke="#1B2033" stroke-width="3.5" stroke-linejoin="round" /><ellipse cx="123.93" cy="206.45" rx="5.92" ry="3.33" fill="url(#shine)" opacity="0.85" transform="rotate(-25 123.93 206.45)"/><circle cx="91.0" cy="202.1" r="21.3" fill="url(#glow)" opacity="0.8"/><path opacity="0.4" d="M90.3 187.4 Q91.0 186.0 91.7 187.4 L95.5 196.0 Q96.1 197.5 97.7 197.6 L107.0 198.6 Q108.6 198.8 107.4 199.8 L100.5 206.1 Q99.3 207.2 99.6 208.7 L101.5 217.9 Q101.9 219.5 100.5 218.7 L92.4 214.0 Q91.0 213.2 89.6 214.0 L81.5 218.7 Q80.1 219.5 80.5 217.9 L82.4 208.7 Q82.7 207.2 81.5 206.1 L74.6 199.8 Q73.4 198.8 75.0 198.6 L84.3 197.6 Q85.9 197.5 86.5 196.0 Z" fill="#000000" stroke="#1B2033" stroke-width="3.5" stroke-linejoin="round" /><ellipse cx="86.93" cy="198.93587988004847" rx="5.92" ry="3.33" fill="url(#shine)" opacity="0.85" transform="rotate(-25 86.93 198.93587988004847)"/><path d="M90.3 185.0 Q91.0 183.6 91.7 185.0 L95.5 193.6 Q96.1 195.1 97.7 195.2 L107.0 196.2 Q108.6 196.4 107.4 197.4 L100.5 203.7 Q99.3 204.8 99.6 206.3 L101.5 215.5 Q101.9 217.1 100.5 216.3 L92.4 211.6 Q91.0 210.8 89.6 211.6 L81.5 216.3 Q80.1 217.1 80.5 215.5 L82.4 206.3 Q82.7 204.8 81.5 203.7 L74.6 197.4 Q73.4 196.4 75.0 196.2 L84.3 195.2 Q85.9 195.1 86.5 193.6 Z" fill="url(#s)" stroke="#1B2033" stroke-width="3.5" stroke-linejoin="round" /><ellipse cx="86.93" cy="196.53587988004847" rx="5.92" ry="3.33" fill="url(#shine)" opacity="0.85" transform="rotate(-25 86.93 196.53587988004847)"/></g></svg>