<svg xmlns="http://www.w3.org/2000/svg" width="512" height="512" viewBox="0 0 256 256"><defs><linearGradient id="blue" x1="0" y1="0" x2="0.35" y2="1"><stop offset="0" stop-color="#9ED3FF"/><stop offset="0.45" stop-color="#3B9BFF"/><stop offset="1" stop-color="#1F6BD0"/></linearGradient><linearGradient id="green" x1="0" y1="0" x2="0.35" y2="1"><stop offset="0" stop-color="#A8F5BE"/><stop offset="0.45" stop-color="#3DD66B"/><stop offset="1" stop-color="#1E9E47"/></linearGradient><linearGradient id="red" x1="0" y1="0" x2="0.35" y2="1"><stop offset="0" stop-color="#FFA3A3"/><stop offset="0.45" stop-color="#FF4D4D"/><stop offset="1" stop-color="#C9283A"/></linearGradient><linearGradient id="gold" x1="0" y1="0" x2="0.35" y2="1"><stop offset="0" stop-color="#FFF1A0"/><stop offset="0.45" stop-color="#FFC928"/><stop offset="1" stop-color="#DB8E00"/></linearGradient><linearGradient id="wood" x1="0" y1="0" x2="0.35" y2="1"><stop offset="0" stop-color="#FFD9A0"/><stop offset="0.45" stop-color="#E7A35C"/><stop offset="1" stop-color="#A8622A"/></linearGradient><linearGradient id="darkwood" x1="0" y1="0" x2="0.35" y2="1"><stop offset="0" stop-color="#C07A45"/><stop offset="0.45" stop-color="#8A4B22"/><stop offset="1" stop-color="#5E3014"/></linearGradient><linearGradient id="white" x1="0" y1="0" x2="0.35" y2="1"><stop offset="0" stop-color="#FFFFFF"/><stop offset="0.45" stop-color="#F4F8FF"/><stop offset="1" stop-color="#C9D6EA"/></linearGradient><linearGradient id="grey" x1="0" y1="0" x2="0.35" y2="1"><stop offset="0" stop-color="#E4E9F2"/><stop offset="0.45" stop-color="#AEB8C8"/><stop offset="1" stop-color="#7B869A"/></linearGradient><linearGradient id="steel" x1="0" y1="0" x2="0.35" y2="1"><stop offset="0" stop-color="#D8E6F7"/><stop offset="0.45" stop-color="#9FB2CC"/><stop offset="1" stop-color="#6A7D98"/></linearGradient><linearGradient id="cloth" x1="0" y1="0" x2="0.35" y2="1"><stop offset="0" stop-color="#6FE08E"/><stop offset="0.45" stop-color="#2FA24F"/><stop offset="1" stop-color="#1C7A37"/></linearGradient><linearGradient id="sad" x1="0" y1="0" x2="0.35" y2="1"><stop offset="0" stop-color="#C4D4EE"/><stop offset="0.45" stop-color="#8EA3C7"/><stop offset="1" stop-color="#5E7299"/></linearGradient><linearGradient id="purple" x1="0" y1="0" x2="0.35" y2="1"><stop offset="0" stop-color="#D7B8FF"/><stop offset="0.45" stop-color="#A259FF"/><stop offset="1" stop-color="#6E2FD0"/></linearGradient><radialGradient id="shine" cx="0.5" cy="0.5" r="0.5"><stop offset="0" stop-color="#FFFFFF" stop-opacity="0.9"/><stop offset="1" stop-color="#FFFFFF" stop-opacity="0"/></radialGradient>
<filter id="ink" x="-30%" y="-30%" width="160%" height="160%" color-interpolation-filters="sRGB">
  <feGaussianBlur in="SourceAlpha" stdDeviation="6.92" result="blur"/>
  <feComponentTransfer in="blur" result="grown"><feFuncA type="linear" slope="7" intercept="-0.35"/></feComponentTransfer>
  <feOffset in="grown" dy="6" result="lip"/>
  <feMerge result="both"><feMergeNode in="lip"/><feMergeNode in="grown"/></feMerge>
  <feFlood flood-color="#1B2033"/>
  <feComposite in2="both" operator="in" result="outline"/>
  <feMerge><feMergeNode in="outline"/><feMergeNode in="SourceGraphic"/></feMerge>
</filter></defs><defs><filter id="badgeInk" x="-20%" y="-20%" width="140%" height="140%" color-interpolation-filters="sRGB">
  <feGaussianBlur in="SourceAlpha" stdDeviation="3.2" result="blur"/>
  <feComponentTransfer in="blur" result="grown"><feFuncA type="linear" slope="40" intercept="-0.716"/></feComponentTransfer>
  <feOffset in="grown" dy="5" result="lip"/>
  <feMerge result="both"><feMergeNode in="lip"/><feMergeNode in="grown"/></feMerge>
  <feFlood flood-color="#1B2033"/>
  <feComposite in2="both" operator="in" result="outline"/>
  <feMerge><feMergeNode in="outline"/><feMergeNode in="SourceGraphic"/></feMerge>
</filter></defs><defs><linearGradient id="m" x1="0" y1="0" x2="0.35" y2="1"><stop offset="0" stop-color="#F2FBFF"/><stop offset="0.5" stop-color="#A6D6F2"/><stop offset="1" stop-color="#5588B8"/></linearGradient><linearGradient id="r" x1="0" y1="0" x2="0.35" y2="1"><stop offset="0" stop-color="#82B3D8"/><stop offset="0.6" stop-color="#A6D6F2"/><stop offset="1" stop-color="#D4ECFA"/></linearGradient><linearGradient id="w" x1="0" y1="0" x2="0.35" y2="1"><stop offset="0" stop-color="#D7EEFA"/><stop offset="0.55" stop-color="#A6D6F2"/><stop offset="1" stop-color="#5588B8"/></linearGradient><linearGradient id="p" x1="0" y1="0" x2="0.2" y2="1"><stop offset="0" stop-color="#F9FDFF"/><stop offset="0.55" stop-color="#F2FBFF"/><stop offset="1" stop-color="#A6D6F2"/></linearGradient><linearGradient id="c" x1="0" y1="0" x2="0.3" y2="1"><stop offset="0" stop-color="#F7FDFF"/><stop offset="0.55" stop-color="#C8E7F8"/><stop offset="1" stop-color="#A6D6F2"/></linearGradient><linearGradient id="g" x1="0" y1="0" x2="0.35" y2="1"><stop offset="0" stop-color="#FFF3A6"/><stop offset="0.5" stop-color="#FFC928"/><stop offset="1" stop-color="#C97F00"/></linearGradient><linearGradient id="gr" x1="0" y1="0" x2="0.35" y2="1"><stop offset="0" stop-color="#E7A816"/><stop offset="0.6" stop-color="#FFC928"/><stop offset="1" stop-color="#FFE274"/></linearGradient><radialGradient id="ball" cx="0.38" cy="0.32" r="0.78"><stop offset="0" stop-color="#5C6275"/><stop offset="0.4" stop-color="#23262F"/><stop offset="1" stop-color="#06070B"/></radialGradient></defs><g filter="url(#badgeInk)"><path d="M81.5 157.1 Q60.8 122.1 73.9 74.7 Q103.1 106.7 98.5 150.9 Z" fill="url(#w)" stroke="#1B2033" stroke-width="3.5" stroke-linejoin="round" /><path d="M90.0 154.0 L98.5 150.9 Q103.1 106.7 73.9 74.7 Z" fill="#000000" opacity="0.22"/><path d="M86.9 144.9 L76.5 97.6" fill="none" stroke="#F2FBFF" stroke-width="2.6" stroke-linecap="round" stroke-linejoin="round" opacity="0.7"/><path d="M81.5 157.1 Q60.8 122.1 73.9 74.7 Q103.1 106.7 98.5 150.9 Z" fill="none" stroke="#1B2033" stroke-width="3.5" stroke-linejoin="round" /><path d="M83.3 160.0 Q45.0 128.6 33.3 73.1 Q78.4 98.5 96.7 148.0 Z" fill="url(#w)" stroke="#1B2033" stroke-width="3.5" stroke-linejoin="round" /><path d="M90.0 154.0 L96.7 148.0 Q78.4 98.5 33.3 73.1 Z" fill="#000000" opacity="0.22"/><path d="M82.3 145.1 L47.7 97.1" fill="none" stroke="#F2FBFF" stroke-width="2.6" stroke-linecap="round" stroke-linejoin="round" opacity="0.7"/><path d="M83.3 160.0 Q45.0 128.6 33.3 73.1 Q78.4 98.5 96.7 148.0 Z" fill="none" stroke="#1B2033" stroke-width="3.5" stroke-linejoin="round" /><path d="M86.1 162.1 Q45.0 150.4 19.8 106.4 Q64.7 110.0 93.9 145.9 Z" fill="url(#w)" stroke="#1B2033" stroke-width="3.5" stroke-linejoin="round" /><path d="M90.0 154.0 L93.9 145.9 Q64.7 110.0 19.8 106.4 Z" fill="#000000" opacity="0.22"/><path d="M81.0 149.4 L38.5 121.6" fill="none" stroke="#F2FBFF" stroke-width="2.6" stroke-linecap="round" stroke-linejoin="round" opacity="0.7"/><path d="M86.1 162.1 Q45.0 150.4 19.8 106.4 Q64.7 110.0 93.9 145.9 Z" fill="none" stroke="#1B2033" stroke-width="3.5" stroke-linejoin="round" /><path d="M89.1 163.0 Q51.5 166.5 17.7 134.3 Q56.2 121.8 90.9 145.0 Z" fill="url(#w)" stroke="#1B2033" stroke-width="3.5" stroke-linejoin="round" /><path d="M90.0 154.0 L90.9 145.0 Q56.2 121.8 17.7 134.3 Z" fill="#000000" opacity="0.22"/><path d="M81.2 152.8 L37.7 141.9" fill="none" stroke="#F2FBFF" stroke-width="2.6" stroke-linecap="round" stroke-linejoin="round" opacity="0.7"/><path d="M89.1 163.0 Q51.5 166.5 17.7 134.3 Q56.2 121.8 90.9 145.0 Z" fill="none" stroke="#1B2033" stroke-width="3.5" stroke-linejoin="round" /><g transform="matrix(-1 0 0 1 256 0)"><path d="M81.5 157.1 Q60.8 122.1 73.9 74.7 Q103.1 106.7 98.5 150.9 Z" fill="url(#w)" stroke="#1B2033" stroke-width="3.5" stroke-linejoin="round" /><path d="M90.0 154.0 L98.5 150.9 Q103.1 106.7 73.9 74.7 Z" fill="#000000" opacity="0.22"/><path d="M86.9 144.9 L76.5 97.6" fill="none" stroke="#F2FBFF" stroke-width="2.6" stroke-linecap="round" stroke-linejoin="round" opacity="0.7"/><path d="M81.5 157.1 Q60.8 122.1 73.9 74.7 Q103.1 106.7 98.5 150.9 Z" fill="none" stroke="#1B2033" stroke-width="3.5" stroke-linejoin="round" /><path d="M83.3 160.0 Q45.0 128.6 33.3 73.1 Q78.4 98.5 96.7 148.0 Z" fill="url(#w)" stroke="#1B2033" stroke-width="3.5" stroke-linejoin="round" /><path d="M90.0 154.0 L96.7 148.0 Q78.4 98.5 33.3 73.1 Z" fill="#000000" opacity="0.22"/><path d="M82.3 145.1 L47.7 97.1" fill="none" stroke="#F2FBFF" stroke-width="2.6" stroke-linecap="round" stroke-linejoin="round" opacity="0.7"/><path d="M83.3 160.0 Q45.0 128.6 33.3 73.1 Q78.4 98.5 96.7 148.0 Z" fill="none" stroke="#1B2033" stroke-width="3.5" stroke-linejoin="round" /><path d="M86.1 162.1 Q45.0 150.4 19.8 106.4 Q64.7 110.0 93.9 145.9 Z" fill="url(#w)" stroke="#1B2033" stroke-width="3.5" stroke-linejoin="round" /><path d="M90.0 154.0 L93.9 145.9 Q64.7 110.0 19.8 106.4 Z" fill="#000000" opacity="0.22"/><path d="M81.0 149.4 L38.5 121.6" fill="none" stroke="#F2FBFF" stroke-width="2.6" stroke-linecap="round" stroke-linejoin="round" opacity="0.7"/><path d="M86.1 162.1 Q45.0 150.4 19.8 106.4 Q64.7 110.0 93.9 145.9 Z" fill="none" stroke="#1B2033" stroke-width="3.5" stroke-linejoin="round" /><path d="M89.1 163.0 Q51.5 166.5 17.7 134.3 Q56.2 121.8 90.9 145.0 Z" fill="url(#w)" stroke="#1B2033" stroke-width="3.5" stroke-linejoin="round" /><path d="M90.0 154.0 L90.9 145.0 Q56.2 121.8 17.7 134.3 Z" fill="#000000" opacity="0.22"/><path d="M81.2 152.8 L37.7 141.9" fill="none" stroke="#F2FBFF" stroke-width="2.6" stroke-linecap="round" stroke-linejoin="round" opacity="0.7"/><path d="M89.1 163.0 Q51.5 166.5 17.7 134.3 Q56.2 121.8 90.9 145.0 Z" fill="none" stroke="#1B2033" stroke-width="3.5" stroke-linejoin="round" /></g><path d="M114.8 71.0 Q128.0 64.0 141.2 71.0 L178.8 91.0 Q192.0 98.0 192.0 113.0 L192.0 163.0 Q192.0 178.0 180.2 187.2 L139.8 218.8 Q128.0 228.0 116.2 218.8 L75.8 187.2 Q64.0 178.0 64.0 163.0 L64.0 113.0 Q64.0 98.0 77.2 91.0 Z" fill="url(#r)" stroke="#1B2033" stroke-width="3.5" stroke-linejoin="round" /><path d="M117.4 80.5 Q128.0 74.9 138.6 80.5 L173.1 98.9 Q183.7 104.5 183.7 116.5 L183.7 162.1 Q183.7 174.1 174.2 181.5 L137.5 210.2 Q128.0 217.6 118.5 210.2 L81.8 181.5 Q72.3 174.1 72.3 162.1 L72.3 116.5 Q72.3 104.5 82.9 98.9 Z" fill="url(#m)" /><ellipse cx="94" cy="104" rx="18" ry="9" fill="url(#shine)" opacity="0.7" transform="rotate(-35 94 104)"/><circle cx="128" cy="148" r="52" fill="url(#r)" stroke="#1B2033" stroke-width="3.5"/><circle cx="128" cy="148" r="47" fill="url(#m)"/><circle cx="128" cy="148" r="43" fill="#1B2033"/><ellipse cx="97" cy="116" rx="13" ry="5.5" fill="url(#shine)" opacity="0.8" transform="rotate(-45 97 116)"/><circle cx="128" cy="148" r="38" fill="url(#ball)"/><circle cx="128.0" cy="145.7" r="16.7" fill="#FFFFFF"/><text x="128.0" y="154.1" font-family="Arial Black, Arial, sans-serif" font-weight="900" font-size="24.2" text-anchor="middle" fill="#1B2033">8</text><ellipse cx="112.04" cy="129.0" rx="12.920000000000002" ry="6.460000000000001" fill="url(#shine)" opacity="0.85" transform="rotate(-35 112.04 129.0)"/><ellipse cx="145.1" cy="167.0" rx="5.32" ry="2.66" fill="url(#shine)" opacity="0.35" transform="rotate(-40 145.1 167.0)"/><path d="M158.0 196.9 Q158.7 195.4 159.3 196.9 L162.3 203.6 Q163.0 205.0 164.6 205.2 L171.8 206.0 Q173.4 206.1 172.2 207.2 L166.8 212.1 Q165.6 213.2 165.9 214.7 L167.5 221.9 Q167.8 223.5 166.4 222.7 L160.1 219.0 Q158.7 218.2 157.3 219.0 L151.0 222.7 Q149.6 223.5 149.9 221.9 L151.4 214.7 Q151.8 213.2 150.6 212.1 L145.1 207.2 Q143.9 206.1 145.5 206.0 L152.8 205.2 Q154.4 205.0 155.1 203.6 Z" fill="url(#p)" stroke="#1B2033" stroke-width="3.5" stroke-linejoin="round" /><ellipse cx="155.2759802752354" cy="206.26558324094168" rx="4.96" ry="2.79" fill="url(#shine)" opacity="0.85" transform="rotate(-25 155.2759802752354 206.26558324094168)"/><path d="M127.3 204.0 Q128.0 202.5 128.7 204.0 L131.6 210.6 Q132.3 212.1 133.9 212.3 L141.2 213.0 Q142.7 213.2 141.6 214.3 L136.1 219.2 Q134.9 220.3 135.3 221.8 L136.8 229.0 Q137.1 230.5 135.7 229.7 L129.4 226.1 Q128.0 225.3 126.6 226.1 L120.3 229.7 Q118.9 230.5 119.2 229.0 L120.7 221.8 Q121.1 220.3 119.9 219.2 L114.4 214.3 Q113.3 213.2 114.8 213.0 L122.1 212.3 Q123.7 212.1 124.4 210.6 Z" fill="url(#p)" stroke="#1B2033" stroke-width="3.5" stroke-linejoin="round" /><ellipse cx="124.59" cy="213.35" rx="4.96" ry="2.79" fill="url(#shine)" opacity="0.85" transform="rotate(-25 124.59 213.35)"/><path d="M96.7 196.9 Q97.3 195.4 98.0 196.9 L100.9 203.6 Q101.6 205.0 103.2 205.2 L110.5 206.0 Q112.1 206.1 110.9 207.2 L105.4 212.1 Q104.2 213.2 104.6 214.7 L106.1 221.9 Q106.4 223.5 105.0 222.7 L98.7 219.0 Q97.3 218.2 95.9 219.0 L89.6 222.7 Q88.2 223.5 88.5 221.9 L90.1 214.7 Q90.4 213.2 89.2 212.1 L83.8 207.2 Q82.6 206.1 84.2 206.0 L91.4 205.2 Q93.0 205.0 93.7 203.6 Z" fill="url(#p)" stroke="#1B2033" stroke-width="3.5" stroke-linejoin="round" /><ellipse cx="93.90401972476458" cy="206.26558324094168" rx="4.96" ry="2.79" fill="url(#shine)" opacity="0.85" transform="rotate(-25 93.90401972476458 206.26558324094168)"/></g></svg>