# eclipse_carrier Asteroid9_Rock.obj: Roblox cue frame, recentred on its bounding box
v -0.00400 -0.10707 0.00883
v -0.08002 -0.03612 -0.04992
v 0.03378 -0.05238 -0.11484
v 0.11164 -0.04857 0.00883
v 0.02799 -0.04160 0.11354
v -0.08306 -0.03828 0.06994
v -0.03112 0.06840 -0.07995
v 0.08730 0.08283 -0.06172
v 0.06700 0.06839 0.06370
v -0.03612 0.07771 0.11400
v -0.09730 0.07159 0.00883
v -0.00400 0.13059 0.00883
v 0.01687 -0.10772 -0.05946
v -0.07198 -0.13846 -0.04370
v -0.02544 -0.03141 -0.06138
v -0.07940 -0.03567 0.00883
v -0.05409 -0.09730 0.04754
v 0.06541 -0.11123 0.00883
v 0.07133 -0.04826 -0.04937
v 0.02255 -0.14194 0.09574
v 0.05328 -0.03239 0.05309
v -0.02848 -0.03839 0.08898
v -0.09780 0.01793 -0.02358
v -0.13677 0.01793 0.05472
v -0.00400 0.01793 -0.13722
v -0.06762 0.01793 -0.08430
v 0.13677 0.01793 -0.03981
v 0.06437 0.01793 -0.09125
v 0.06674 0.01793 0.11239
v 0.10241 0.01793 0.04561
v -0.07222 0.01793 0.10872
v -0.00400 0.01793 0.13722
v -0.09509 0.09797 -0.06156
v 0.03870 0.11614 -0.13092
v 0.12964 0.11292 0.00883
v 0.03494 0.10750 0.13630
v -0.09366 0.09671 0.07813
v -0.02174 0.12481 -0.04926
v -0.07063 0.14194 0.00883
v 0.03562 0.10906 -0.02178
v 0.04508 0.13082 0.04676
v -0.01939 0.11066 0.05924
f 1 14 13
f 2 14 16
f 1 13 18
f 1 18 20
f 1 20 17
f 2 16 23
f 3 15 25
f 4 19 27
f 5 21 29
f 6 22 31
f 2 23 26
f 3 25 28
f 4 27 30
f 5 29 32
f 6 31 24
f 7 33 38
f 8 34 40
f 9 35 41
f 10 36 42
f 11 37 39
f 39 42 12
f 39 37 42
f 37 10 42
f 42 41 12
f 42 36 41
f 36 9 41
f 41 40 12
f 41 35 40
f 35 8 40
f 40 38 12
f 40 34 38
f 34 7 38
f 38 39 12
f 38 33 39
f 33 11 39
f 24 37 11
f 24 31 37
f 31 10 37
f 32 36 10
f 32 29 36
f 29 9 36
f 30 35 9
f 30 27 35
f 27 8 35
f 28 34 8
f 28 25 34
f 25 7 34
f 26 33 7
f 26 23 33
f 23 11 33
f 31 32 10
f 31 22 32
f 22 5 32
f 29 30 9
f 29 21 30
f 21 4 30
f 27 28 8
f 27 19 28
f 19 3 28
f 25 26 7
f 25 15 26
f 15 2 26
f 23 24 11
f 23 16 24
f 16 6 24
f 17 22 6
f 17 20 22
f 20 5 22
f 20 21 5
f 20 18 21
f 18 4 21
f 18 19 4
f 18 13 19
f 13 3 19
f 16 17 6
f 16 14 17
f 14 1 17
f 13 15 3
f 13 14 15
f 14 2 15
