# eclipse_carrier Asteroid7_Rock.obj: Roblox cue frame, recentred on its bounding box
v -0.00973 -0.14648 -0.00135
v -0.17970 -0.07668 -0.14146
v 0.05227 -0.07347 -0.21789
v 0.19739 -0.07567 -0.00135
v 0.05356 -0.07489 0.21969
v -0.17183 -0.07336 0.13227
v -0.04662 0.03586 -0.13016
v 0.11804 0.04904 -0.10668
v 0.11666 0.04845 0.10285
v -0.04491 0.03396 0.12148
v -0.12129 0.03319 -0.00135
v -0.00973 0.14648 -0.00135
v 0.01998 -0.11122 -0.10512
v -0.08646 -0.10976 -0.06460
v -0.05398 -0.06538 -0.15587
v -0.14618 -0.06253 -0.00135
v -0.08800 -0.11187 0.06317
v 0.05835 -0.08018 -0.00135
v 0.14372 -0.08501 -0.12785
v 0.01976 -0.11042 0.10164
v 0.14081 -0.08349 0.12275
v -0.05285 -0.06383 0.14921
v -0.20432 -0.00492 -0.07308
v -0.19536 -0.00492 0.06708
v -0.00973 -0.00492 -0.22676
v -0.14750 -0.00492 -0.21650
v 0.19289 -0.00492 -0.07605
v 0.13415 -0.00492 -0.22605
v 0.13633 -0.00492 0.22676
v 0.20432 -0.00492 0.07757
v -0.14906 -0.00492 0.21624
v -0.00973 -0.00492 0.21396
v -0.15241 0.06955 -0.11896
v 0.04390 0.06836 -0.18862
v 0.16095 0.06715 -0.00135
v 0.04465 0.06939 0.18855
v -0.14487 0.06561 0.11006
v -0.03861 0.09837 -0.10217
v -0.11469 0.11110 -0.00135
v 0.07856 0.11573 -0.07413
v 0.07250 0.10744 0.06644
v -0.04062 0.10556 0.10650
f 1 14 13
f 2 14 16
f 1 13 18
f 1 18 20
f 1 20 17
f 2 16 23
f 3 15 25
f 4 19 27
f 5 21 29
f 6 22 31
f 2 23 26
f 3 25 28
f 4 27 30
f 5 29 32
f 6 31 24
f 7 33 38
f 8 34 40
f 9 35 41
f 10 36 42
f 11 37 39
f 39 42 12
f 39 37 42
f 37 10 42
f 42 41 12
f 42 36 41
f 36 9 41
f 41 40 12
f 41 35 40
f 35 8 40
f 40 38 12
f 40 34 38
f 34 7 38
f 38 39 12
f 38 33 39
f 33 11 39
f 24 37 11
f 24 31 37
f 31 10 37
f 32 36 10
f 32 29 36
f 29 9 36
f 30 35 9
f 30 27 35
f 27 8 35
f 28 34 8
f 28 25 34
f 25 7 34
f 26 33 7
f 26 23 33
f 23 11 33
f 31 32 10
f 31 22 32
f 22 5 32
f 29 30 9
f 29 21 30
f 21 4 30
f 27 28 8
f 27 19 28
f 19 3 28
f 25 26 7
f 25 15 26
f 15 2 26
f 23 24 11
f 23 16 24
f 16 6 24
f 17 22 6
f 17 20 22
f 20 5 22
f 20 21 5
f 20 18 21
f 18 4 21
f 18 19 4
f 18 13 19
f 13 3 19
f 16 17 6
f 16 14 17
f 14 1 17
f 13 15 3
f 13 14 15
f 14 2 15
