# eclipse_carrier Asteroid5_Rock.obj: Roblox cue frame, recentred on its bounding box
v 0.00033 -0.16531 0.01446
v -0.20663 -0.07784 -0.15437
v 0.06747 -0.06640 -0.21759
v 0.20618 -0.06300 0.01446
v 0.06128 -0.06045 0.22512
v -0.16753 -0.06349 0.15139
v -0.06415 0.06013 -0.20837
v 0.21206 0.07589 -0.15827
v 0.15570 0.05519 0.14121
v -0.06595 0.06186 0.24350
v -0.21206 0.06123 0.01446
v 0.00033 0.16531 0.01446
v 0.02576 -0.08099 -0.07345
v -0.10302 -0.12465 -0.06985
v -0.06023 -0.07380 -0.19480
v -0.19243 -0.07263 0.01446
v -0.06959 -0.08493 0.07150
v 0.09766 -0.09542 0.01446
v 0.20100 -0.09293 -0.14925
v 0.03795 -0.11888 0.14447
v 0.14100 -0.06570 0.12922
v -0.06075 -0.07442 0.22552
v -0.17015 -0.00185 -0.04774
v -0.21000 -0.00185 0.09119
v 0.00033 -0.00185 -0.24350
v -0.12392 -0.00185 -0.17756
v 0.19358 -0.00185 -0.05605
v 0.12387 -0.00185 -0.17647
v 0.14233 -0.00185 0.23392
v 0.17919 -0.00185 0.07971
v -0.14404 -0.00185 0.23756
v 0.00033 -0.00185 0.16931
v -0.18118 0.08052 -0.13361
v 0.05477 0.06283 -0.17368
v 0.16498 0.05860 0.01446
v 0.05027 0.05749 0.18705
v -0.13347 0.05887 0.12360
v -0.03176 0.09794 -0.09641
v -0.10032 0.09490 0.01446
v 0.10149 0.11835 -0.06807
v 0.08830 0.10267 0.08622
v -0.03800 0.11736 0.14689
f 1 14 13
f 2 14 16
f 1 13 18
f 1 18 20
f 1 20 17
f 2 16 23
f 3 15 25
f 4 19 27
f 5 21 29
f 6 22 31
f 2 23 26
f 3 25 28
f 4 27 30
f 5 29 32
f 6 31 24
f 7 33 38
f 8 34 40
f 9 35 41
f 10 36 42
f 11 37 39
f 39 42 12
f 39 37 42
f 37 10 42
f 42 41 12
f 42 36 41
f 36 9 41
f 41 40 12
f 41 35 40
f 35 8 40
f 40 38 12
f 40 34 38
f 34 7 38
f 38 39 12
f 38 33 39
f 33 11 39
f 24 37 11
f 24 31 37
f 31 10 37
f 32 36 10
f 32 29 36
f 29 9 36
f 30 35 9
f 30 27 35
f 27 8 35
f 28 34 8
f 28 25 34
f 25 7 34
f 26 33 7
f 26 23 33
f 23 11 33
f 31 32 10
f 31 22 32
f 22 5 32
f 29 30 9
f 29 21 30
f 21 4 30
f 27 28 8
f 27 19 28
f 19 3 28
f 25 26 7
f 25 15 26
f 15 2 26
f 23 24 11
f 23 16 24
f 16 6 24
f 17 22 6
f 17 20 22
f 20 5 22
f 20 21 5
f 20 18 21
f 18 4 21
f 18 19 4
f 18 13 19
f 13 3 19
f 16 17 6
f 16 14 17
f 14 1 17
f 13 15 3
f 13 14 15
f 14 2 15
