# eclipse_carrier Asteroid3_Rock.obj: Roblox cue frame, recentred on its bounding box
v -0.00389 -0.19113 0.00674
v -0.18934 -0.05355 -0.07842
v 0.08927 -0.07850 -0.17448
v 0.26395 -0.06689 0.00674
v 0.06676 -0.05334 0.14417
v -0.22582 -0.06913 0.10866
v -0.07934 0.10992 -0.14004
v 0.25850 0.13760 -0.11375
v 0.19983 0.11256 0.10030
v -0.10083 0.13394 0.19533
v -0.28010 0.12098 0.00674
v -0.00389 0.22159 0.00674
v 0.04445 -0.14921 -0.08730
v -0.18284 -0.22159 -0.07544
v -0.06278 -0.05574 -0.10781
v -0.21627 -0.06505 0.00674
v -0.12169 -0.13711 0.06084
v 0.17284 -0.17189 0.00674
v 0.20109 -0.08254 -0.08739
v 0.06296 -0.21615 0.13679
v 0.15471 -0.05807 0.07958
v -0.07615 -0.07420 0.14731
v -0.21907 0.02560 -0.03745
v -0.37145 0.02560 0.08223
v -0.00389 0.02560 -0.19814
v -0.17908 0.02560 -0.14567
v 0.37145 0.02560 -0.07034
v 0.17964 0.02560 -0.15292
v 0.17956 0.02560 0.16634
v 0.22499 0.02560 0.05375
v -0.18811 0.02560 0.16702
v -0.00389 0.02560 0.19814
v -0.23162 0.14576 -0.09784
v 0.09948 0.16839 -0.19434
v 0.30817 0.15880 0.00674
v 0.08519 0.14864 0.18002
v -0.25297 0.15702 0.12113
v -0.05387 0.20635 -0.09049
v -0.15414 0.19350 0.00674
v 0.08491 0.14826 -0.03404
v 0.13524 0.21778 0.07063
v -0.03964 0.15489 0.07629
f 1 14 13
f 2 14 16
f 1 13 18
f 1 18 20
f 1 20 17
f 2 16 23
f 3 15 25
f 4 19 27
f 5 21 29
f 6 22 31
f 2 23 26
f 3 25 28
f 4 27 30
f 5 29 32
f 6 31 24
f 7 33 38
f 8 34 40
f 9 35 41
f 10 36 42
f 11 37 39
f 39 42 12
f 39 37 42
f 37 10 42
f 42 41 12
f 42 36 41
f 36 9 41
f 41 40 12
f 41 35 40
f 35 8 40
f 40 38 12
f 40 34 38
f 34 7 38
f 38 39 12
f 38 33 39
f 33 11 39
f 24 37 11
f 24 31 37
f 31 10 37
f 32 36 10
f 32 29 36
f 29 9 36
f 30 35 9
f 30 27 35
f 27 8 35
f 28 34 8
f 28 25 34
f 25 7 34
f 26 33 7
f 26 23 33
f 23 11 33
f 31 32 10
f 31 22 32
f 22 5 32
f 29 30 9
f 29 21 30
f 21 4 30
f 27 28 8
f 27 19 28
f 19 3 28
f 25 26 7
f 25 15 26
f 15 2 26
f 23 24 11
f 23 16 24
f 16 6 24
f 17 22 6
f 17 20 22
f 20 5 22
f 20 21 5
f 20 18 21
f 18 4 21
f 18 19 4
f 18 13 19
f 13 3 19
f 16 17 6
f 16 14 17
f 14 1 17
f 13 15 3
f 13 14 15
f 14 2 15
