# eclipse_carrier Asteroid4_Rock.obj: Roblox cue frame, recentred on its bounding box
v 0.02088 -0.07675 0.00165
v -0.05437 -0.02680 -0.05487
v 0.04984 -0.02707 -0.09047
v 0.11341 -0.02661 0.00165
v 0.05055 -0.02797 0.09602
v -0.04891 -0.02416 0.05406
v -0.02349 0.06590 -0.13951
v 0.11553 0.05548 -0.06943
v 0.11384 0.05466 0.07146
v -0.02245 0.06458 0.13951
v -0.12384 0.06634 0.00165
v 0.02088 0.08986 0.00165
v 0.04190 -0.07660 -0.06522
v -0.03334 -0.07533 -0.03907
v -0.01568 -0.04766 -0.11467
v -0.09979 -0.04880 0.00165
v -0.03381 -0.07606 0.04272
v 0.10586 -0.09809 0.00165
v 0.09333 -0.03372 -0.05276
v 0.04194 -0.07676 0.06865
v 0.09064 -0.03211 0.05404
v -0.01498 -0.04656 0.11575
v -0.09108 0.00964 -0.03595
v -0.08610 0.00964 0.03758
v 0.02088 0.00964 -0.12692
v -0.03130 0.00964 -0.07259
v 0.11696 0.00964 -0.03062
v 0.06938 0.00964 -0.06734
v 0.07100 0.00964 0.07296
v 0.12384 0.00964 0.03623
v -0.03256 0.00964 0.07769
v 0.02088 0.00964 0.12311
v -0.06007 0.05810 -0.05915
v 0.05127 0.05726 -0.09501
v 0.12289 0.05904 0.00165
v 0.05167 0.05788 0.09958
v -0.05469 0.05488 0.05841
v 0.00067 0.09259 -0.06267
v -0.04394 0.09183 0.00165
v 0.07307 0.09142 -0.03754
v 0.06911 0.08522 0.03787
v -0.00067 0.09809 0.07023
f 1 14 13
f 2 14 16
f 1 13 18
f 1 18 20
f 1 20 17
f 2 16 23
f 3 15 25
f 4 19 27
f 5 21 29
f 6 22 31
f 2 23 26
f 3 25 28
f 4 27 30
f 5 29 32
f 6 31 24
f 7 33 38
f 8 34 40
f 9 35 41
f 10 36 42
f 11 37 39
f 39 42 12
f 39 37 42
f 37 10 42
f 42 41 12
f 42 36 41
f 36 9 41
f 41 40 12
f 41 35 40
f 35 8 40
f 40 38 12
f 40 34 38
f 34 7 38
f 38 39 12
f 38 33 39
f 33 11 39
f 24 37 11
f 24 31 37
f 31 10 37
f 32 36 10
f 32 29 36
f 29 9 36
f 30 35 9
f 30 27 35
f 27 8 35
f 28 34 8
f 28 25 34
f 25 7 34
f 26 33 7
f 26 23 33
f 23 11 33
f 31 32 10
f 31 22 32
f 22 5 32
f 29 30 9
f 29 21 30
f 21 4 30
f 27 28 8
f 27 19 28
f 19 3 28
f 25 26 7
f 25 15 26
f 15 2 26
f 23 24 11
f 23 16 24
f 16 6 24
f 17 22 6
f 17 20 22
f 20 5 22
f 20 21 5
f 20 18 21
f 18 4 21
f 18 19 4
f 18 13 19
f 13 3 19
f 16 17 6
f 16 14 17
f 14 1 17
f 13 15 3
f 13 14 15
f 14 2 15
