# eclipse_carrier Asteroid10_Rock.obj: Roblox cue frame, recentred on its bounding box
v 0.03204 -0.14596 -0.01256
v -0.09111 -0.04149 -0.12340
v 0.08567 -0.04913 -0.21702
v 0.19151 -0.04408 -0.01256
v 0.08034 -0.04295 0.17158
v -0.11766 -0.05324 0.12218
v -0.04904 0.10696 -0.32172
v 0.21787 0.09524 -0.17980
v 0.21864 0.09558 0.15539
v -0.05563 0.11459 0.32172
v -0.24710 0.11295 -0.01256
v 0.03204 0.15826 -0.01256
v 0.07055 -0.13135 -0.15935
v -0.07644 -0.14235 -0.11019
v -0.03406 -0.08166 -0.26458
v -0.19345 -0.08678 -0.01256
v -0.06801 -0.13028 0.07750
v 0.19049 -0.17056 -0.01256
v 0.16700 -0.06081 -0.13402
v 0.07234 -0.13809 0.14109
v 0.17325 -0.06423 0.11453
v -0.03837 -0.08784 0.25592
v -0.16489 0.01301 -0.09182
v -0.20172 0.01301 0.08153
v 0.03204 0.01301 -0.27946
v -0.08322 0.01301 -0.20910
v 0.24710 0.01301 -0.09912
v 0.14067 0.01301 -0.19777
v 0.13392 0.01301 0.16114
v 0.20298 0.01301 0.05624
v -0.07894 0.01301 0.17667
v 0.03204 0.01301 0.28691
v -0.11230 0.09196 -0.14247
v 0.09020 0.09628 -0.23426
v 0.21867 0.09560 -0.01256
v 0.08702 0.09173 0.19703
v -0.13689 0.10541 0.13949
v -0.00998 0.17056 -0.17277
v -0.07931 0.14202 -0.01256
v 0.11438 0.13092 -0.08667
v 0.13616 0.16211 0.08115
v -0.00291 0.14404 0.12069
f 1 14 13
f 2 14 16
f 1 13 18
f 1 18 20
f 1 20 17
f 2 16 23
f 3 15 25
f 4 19 27
f 5 21 29
f 6 22 31
f 2 23 26
f 3 25 28
f 4 27 30
f 5 29 32
f 6 31 24
f 7 33 38
f 8 34 40
f 9 35 41
f 10 36 42
f 11 37 39
f 39 42 12
f 39 37 42
f 37 10 42
f 42 41 12
f 42 36 41
f 36 9 41
f 41 40 12
f 41 35 40
f 35 8 40
f 40 38 12
f 40 34 38
f 34 7 38
f 38 39 12
f 38 33 39
f 33 11 39
f 24 37 11
f 24 31 37
f 31 10 37
f 32 36 10
f 32 29 36
f 29 9 36
f 30 35 9
f 30 27 35
f 27 8 35
f 28 34 8
f 28 25 34
f 25 7 34
f 26 33 7
f 26 23 33
f 23 11 33
f 31 32 10
f 31 22 32
f 22 5 32
f 29 30 9
f 29 21 30
f 21 4 30
f 27 28 8
f 27 19 28
f 19 3 28
f 25 26 7
f 25 15 26
f 15 2 26
f 23 24 11
f 23 16 24
f 16 6 24
f 17 22 6
f 17 20 22
f 20 5 22
f 20 21 5
f 20 18 21
f 18 4 21
f 18 19 4
f 18 13 19
f 13 3 19
f 16 17 6
f 16 14 17
f 14 1 17
f 13 15 3
f 13 14 15
f 14 2 15
