# eclipse_carrier Orbit2_OrbitLine.obj: Roblox cue frame, recentred on its bounding box
v -1.92201 1.02293 1.93102
v -1.93919 1.01437 1.94362
v -1.94896 0.99372 1.94586
v -1.94561 0.97306 1.93641
v -1.93109 0.96450 1.92082
v -1.91391 0.97306 1.90822
v -1.90413 0.99372 1.90598
v -1.90749 1.01437 1.91543
v -1.82972 0.99049 2.03477
v -1.84663 0.98184 2.04767
v -1.85639 0.96118 2.04992
v -1.85329 0.94061 2.04020
v -1.83913 0.93218 2.02420
v -1.82223 0.94083 2.01130
v -1.81247 0.96149 2.00905
v -1.81557 0.98206 2.01877
v -1.73283 0.95566 2.13378
v -1.74918 0.94682 2.14727
v -1.75891 0.92615 2.14955
v -1.75633 0.90576 2.13931
v -1.74295 0.89760 2.12253
v -1.72660 0.90645 2.10905
v -1.71687 0.92712 2.10676
v -1.71945 0.94750 2.11701
v -1.63174 0.91860 2.22766
v -1.64750 0.90955 2.24169
v -1.65721 0.88887 2.24401
v -1.65518 0.86868 2.23327
v -1.64259 0.86080 2.21575
v -1.62683 0.86985 2.20172
v -1.61712 0.89053 2.19940
v -1.61915 0.91072 2.21014
v -1.52669 0.87938 2.31615
v -1.54184 0.87011 2.33070
v -1.55152 0.84943 2.33306
v -1.55006 0.82944 2.32185
v -1.53830 0.82187 2.30364
v -1.52315 0.83114 2.28909
v -1.51347 0.85182 2.28673
v -1.51493 0.87181 2.29794
v -1.41793 0.83811 2.39907
v -1.43246 0.82861 2.41410
v -1.44211 0.80791 2.41649
v -1.44123 0.78815 2.40484
v -1.43034 0.78089 2.38598
v -1.41581 0.79039 2.37095
v -1.40616 0.81109 2.36855
v -1.40704 0.83085 2.38020
v -1.30573 0.79489 2.47619
v -1.31961 0.78514 2.49168
v -1.32922 0.76443 2.49410
v -1.32895 0.74489 2.48205
v -1.31895 0.73797 2.46257
v -1.30508 0.74771 2.44709
v -1.29546 0.76842 2.44466
v -1.29573 0.78796 2.45672
v -1.19037 0.74981 2.54734
v -1.20357 0.73981 2.56325
v -1.21315 0.71909 2.56570
v -1.21350 0.69978 2.55328
v -1.20441 0.69320 2.53324
v -1.19121 0.70320 2.51734
v -1.18163 0.72392 2.51488
v -1.18128 0.74323 2.52731
v -1.07210 0.70298 2.61235
v -1.08462 0.69272 2.62864
v -1.09417 0.67199 2.63112
v -1.09515 0.65293 2.61836
v -1.08700 0.64671 2.59781
v -1.07448 0.65697 2.58153
v -1.06494 0.67771 2.57904
v -1.06395 0.69676 2.59181
v -0.95123 0.65453 2.67106
v -0.96305 0.64399 2.68770
v -0.97256 0.62324 2.69021
v -0.97419 0.60444 2.67713
v -0.96699 0.59860 2.65613
v -0.95518 0.60913 2.63950
v -0.94567 0.62988 2.63698
v -0.94403 0.64868 2.65006
v -0.82804 0.60456 2.72333
v -0.83914 0.59374 2.74027
v -0.84861 0.57298 2.74281
v -0.85091 0.55444 2.72946
v -0.84469 0.54898 2.70805
v -0.83359 0.55980 2.69111
v -0.82412 0.58056 2.68857
v -0.82182 0.59910 2.70192
v -0.70283 0.55320 2.76903
v -0.71320 0.54208 2.78624
v -0.72263 0.52131 2.78881
v -0.72560 0.50304 2.77522
v -0.72037 0.49798 2.75345
v -0.71000 0.50909 2.73623
v -0.70057 0.52986 2.73367
v -0.69760 0.54814 2.74726
v -0.57590 0.50056 2.80806
v -0.58553 0.48915 2.82550
v -0.59492 0.46836 2.82809
v -0.59857 0.45037 2.81430
v -0.59434 0.44571 2.79222
v -0.58471 0.45712 2.77477
v -0.57532 0.47792 2.77219
v -0.57167 0.49591 2.78597
v -0.44756 0.44679 2.84031
v -0.45644 0.43507 2.85795
v -0.46579 0.41426 2.86055
v -0.47013 0.39655 2.84660
v -0.46691 0.39231 2.82426
v -0.45803 0.40403 2.80663
v -0.44868 0.42484 2.80402
v -0.44435 0.44255 2.81797
v -0.31811 0.39200 2.86571
v -0.32624 0.37997 2.88350
v -0.33554 0.35914 2.88613
v -0.34057 0.34172 2.87204
v -0.33838 0.33790 2.84951
v -0.33026 0.34993 2.83172
v -0.32095 0.37076 2.82910
v -0.31592 0.38818 2.84318
v -0.18787 0.33633 2.88421
v -0.19524 0.32398 2.90211
v -0.20450 0.30313 2.90475
v -0.21022 0.28600 2.89057
v -0.20906 0.28262 2.86789
v -0.20170 0.29496 2.84999
v -0.19244 0.31581 2.84735
v -0.18671 0.33294 2.86153
v -0.05715 0.27991 2.89575
v -0.06376 0.26724 2.91372
v -0.07297 0.24638 2.91637
v -0.07939 0.22954 2.90214
v -0.07927 0.22659 2.87937
v -0.07267 0.23926 2.86140
v -0.06345 0.26012 2.85875
v -0.05703 0.27696 2.87298
v 0.07373 0.22288 2.90030
v 0.06789 0.20988 2.91831
v 0.05873 0.18900 2.92097
v 0.05160 0.17246 2.90673
v 0.05069 0.16995 2.88392
v 0.05653 0.18295 2.86591
v 0.06569 0.20383 2.86325
v 0.07282 0.22037 2.87750
v 0.20446 0.16537 2.89787
v 0.19939 0.15205 2.91586
v 0.19027 0.13115 2.91853
v 0.18245 0.11491 2.90431
v 0.18050 0.11285 2.88152
v 0.18558 0.12617 2.86352
v 0.19469 0.14707 2.86086
v 0.20252 0.16331 2.87508
v 0.33472 0.10753 2.88844
v 0.33041 0.09388 2.90639
v 0.32134 0.07295 2.90907
v 0.31283 0.05702 2.89490
v 0.30985 0.05540 2.87219
v 0.31416 0.06906 2.85424
v 0.32323 0.08998 2.85156
v 0.33175 0.10592 2.86573
v 0.46421 0.04950 2.87205
v 0.46066 0.03551 2.88991
v 0.45164 0.01456 2.89259
v 0.44243 -0.00107 2.87852
v 0.43843 -0.00223 2.85594
v 0.44198 0.01175 2.83808
v 0.45100 0.03270 2.83540
v 0.46021 0.04833 2.84947
v 0.59260 -0.00860 2.84874
v 0.58980 -0.02292 2.86647
v 0.58083 -0.04388 2.86915
v 0.57094 -0.05921 2.85520
v 0.56593 -0.05993 2.83281
v 0.56872 -0.04561 2.81508
v 0.57770 -0.02464 2.81240
v 0.58759 -0.00931 2.82634
v 0.71959 -0.06661 2.81856
v 0.71754 -0.08126 2.83612
v 0.70861 -0.10225 2.83879
v 0.69805 -0.11727 2.82501
v 0.69203 -0.11754 2.80286
v 0.69409 -0.10289 2.78530
v 0.70301 -0.08190 2.78262
v 0.71357 -0.06687 2.79640
v 0.84487 -0.12439 2.78158
v 0.84355 -0.13938 2.79893
v 0.83468 -0.16039 2.80160
v 0.82345 -0.17511 2.78802
v 0.81644 -0.17493 2.76616
v 0.81776 -0.15995 2.74881
v 0.82663 -0.13894 2.74614
v 0.83786 -0.12421 2.75971
v 0.96815 -0.18182 2.73789
v 0.96755 -0.19713 2.75499
v 0.95873 -0.21816 2.75765
v 0.94685 -0.23259 2.74432
v 0.93886 -0.23196 2.72280
v 0.93945 -0.21665 2.70570
v 0.94828 -0.19562 2.70304
v 0.96016 -0.18119 2.71637
v 1.08911 -0.23874 2.68761
v 1.08923 -0.25438 2.70442
v 1.08046 -0.27544 2.70707
v 1.06793 -0.28957 2.69400
v 1.05899 -0.28850 2.67288
v 1.05887 -0.27286 2.65607
v 1.06765 -0.25181 2.65342
v 1.08017 -0.23767 2.66648
v 1.20748 -0.29503 2.63084
v 1.20830 -0.31099 2.64732
v 1.19957 -0.33207 2.64996
v 1.18642 -0.34591 2.63720
v 1.17654 -0.34440 2.61653
v 1.17573 -0.32844 2.60005
v 1.18445 -0.30736 2.59741
v 1.19761 -0.29352 2.61017
v 1.32297 -0.35054 2.56773
v 1.32447 -0.36682 2.58385
v 1.31579 -0.38792 2.58647
v 1.30202 -0.40147 2.57405
v 1.29123 -0.39954 2.55388
v 1.28974 -0.38326 2.53776
v 1.29842 -0.36216 2.53514
v 1.31218 -0.34861 2.54755
v 1.43530 -0.40515 2.49843
v 1.43745 -0.42174 2.51414
v 1.42883 -0.44286 2.51674
v 1.41447 -0.45613 2.50470
v 1.40279 -0.45378 2.48507
v 1.40063 -0.43718 2.46936
v 1.40926 -0.41606 2.46676
v 1.42362 -0.40279 2.47880
v 1.54419 -0.45871 2.42310
v 1.54699 -0.47562 2.43838
v 1.53841 -0.49676 2.44096
v 1.52348 -0.50975 2.42932
v 1.51094 -0.50698 2.41029
v 1.50814 -0.49007 2.39501
v 1.51672 -0.46893 2.39243
v 1.53165 -0.45594 2.40407
v 1.64939 -0.51111 2.34193
v 1.65281 -0.52832 2.35674
v 1.64428 -0.54948 2.35929
v 1.62879 -0.56220 2.34809
v 1.61542 -0.55903 2.32970
v 1.61200 -0.54182 2.31489
v 1.62053 -0.52066 2.31233
v 1.63602 -0.50794 2.32354
v 1.75065 -0.56221 2.25511
v 1.75467 -0.57972 2.26942
v 1.74618 -0.60090 2.27194
v 1.73015 -0.61336 2.26121
v 1.71598 -0.60979 2.24350
v 1.71196 -0.59229 2.22919
v 1.72045 -0.57110 2.22667
v 1.73647 -0.55864 2.23740
v 1.84771 -0.61190 2.16286
v 1.85230 -0.62969 2.17663
v 1.84386 -0.65090 2.17912
v 1.82732 -0.66310 2.16888
v 1.81238 -0.65914 2.15190
v 1.80779 -0.64135 2.13813
v 1.81623 -0.62015 2.13563
v 1.83277 -0.60795 2.14587
v 1.94035 -0.66005 2.06538
v 1.94549 -0.67812 2.07859
v 1.93709 -0.69934 2.08105
v 1.92007 -0.71130 2.07132
v 1.90439 -0.70697 2.05511
v 1.89925 -0.68891 2.04191
v 1.90765 -0.66768 2.03945
v 1.92467 -0.65573 2.04917
v 2.02834 -0.70655 1.96293
v 2.03400 -0.72488 1.97554
v 2.02565 -0.74613 1.97796
v 2.00816 -0.75784 1.96878
v 1.99179 -0.75316 1.95338
v 1.98612 -0.73483 1.94078
v 1.99448 -0.71358 1.93835
v 2.01197 -0.70187 1.94753
v 2.11147 -0.75128 1.85574
v 2.11763 -0.76987 1.86772
v 2.10931 -0.79114 1.87011
v 2.09139 -0.80263 1.86150
v 2.07436 -0.79760 1.84695
v 2.06820 -0.77901 1.83497
v 2.07651 -0.75774 1.83258
v 2.09444 -0.74625 1.84119
v 2.18954 -0.79414 1.74408
v 2.19616 -0.81298 1.75541
v 2.18788 -0.83427 1.75776
v 2.16955 -0.84553 1.74974
v 2.15190 -0.84018 1.73607
v 2.14528 -0.82134 1.72474
v 2.15356 -0.80005 1.72239
v 2.17189 -0.78878 1.73040
v 2.26236 -0.83502 1.62821
v 2.26942 -0.85410 1.63886
v 2.26118 -0.87541 1.64117
v 2.24246 -0.88646 1.63377
v 2.22424 -0.88079 1.62100
v 2.21718 -0.86172 1.61035
v 2.22542 -0.84041 1.60805
v 2.24413 -0.82935 1.61545
v 2.32976 -0.87383 1.50841
v 2.33722 -0.89313 1.51836
v 2.32901 -0.91446 1.52062
v 2.30995 -0.92532 1.51386
v 2.29119 -0.91935 1.50204
v 2.28372 -0.90005 1.49209
v 2.29193 -0.87872 1.48983
v 2.31100 -0.86787 1.49659
v 2.39157 -0.91047 1.38497
v 2.39940 -0.92999 1.39420
v 2.39123 -0.95133 1.39641
v 2.37184 -0.96200 1.39031
v 2.35259 -0.95575 1.37946
v 2.34476 -0.93624 1.37023
v 2.35293 -0.91490 1.36802
v 2.37232 -0.90423 1.37413
v 2.44765 -0.94486 1.25820
v 2.45582 -0.96457 1.26668
v 2.44767 -0.98593 1.26884
v 2.42799 -0.99643 1.26341
v 2.40830 -0.98992 1.25356
v 2.40013 -0.97021 1.24507
v 2.40827 -0.94885 1.24291
v 2.42795 -0.93835 1.24835
v 2.49785 -0.97691 1.12838
v 2.50633 -0.99680 1.13611
v 2.49821 -1.01818 1.13821
v 2.47827 -1.02851 1.13347
v 2.45817 -1.02176 1.12464
v 2.44970 -1.00187 1.11692
v 2.45782 -0.98049 1.11481
v 2.47776 -0.97015 1.11956
v 2.54207 -1.00654 0.99584
v 2.55081 -1.02660 1.00279
v 2.54272 -1.04799 1.00484
v 2.52255 -1.05818 1.00080
v 2.50211 -1.05120 0.99302
v 2.49337 -1.03114 0.98607
v 2.50145 -1.00975 0.98402
v 2.52163 -0.99956 0.98806
v 2.58019 -1.03368 0.86090
v 2.58916 -1.05390 0.86706
v 2.58110 -1.07531 0.86905
v 2.56073 -1.08536 0.86572
v 2.53998 -1.07817 0.85900
v 2.53101 -1.05795 0.85285
v 2.53907 -1.03655 0.85085
v 2.55944 -1.02649 0.85419
v 2.61212 -1.05827 0.72388
v 2.62129 -1.07863 0.72923
v 2.61325 -1.10005 0.73117
v 2.59271 -1.10998 0.72856
v 2.57171 -1.10261 0.72292
v 2.56254 -1.08225 0.71757
v 2.57058 -1.06083 0.71563
v 2.59112 -1.05090 0.71824
v 2.63778 -1.08025 0.58510
v 2.64711 -1.10073 0.58964
v 2.63909 -1.12217 0.59152
v 2.61842 -1.13199 0.58964
v 2.59721 -1.12445 0.58510
v 2.58789 -1.10397 0.58056
v 2.59591 -1.08253 0.57869
v 2.61658 -1.07271 0.58057
v 2.65712 -1.09956 0.44492
v 2.66657 -1.12016 0.44863
v 2.65857 -1.14160 0.45045
v 2.63780 -1.15133 0.44931
v 2.61644 -1.14365 0.44588
v 2.60699 -1.12305 0.44216
v 2.61499 -1.10161 0.44034
v 2.63576 -1.09188 0.44148
v 2.67008 -1.11616 0.30366
v 2.67962 -1.13685 0.30654
v 2.67163 -1.15831 0.30829
v 2.65080 -1.16796 0.30790
v 2.62933 -1.16015 0.30558
v 2.61980 -1.13946 0.30269
v 2.62779 -1.11801 0.30094
v 2.64862 -1.10836 0.30134
v 2.67664 -1.13001 0.16166
v 2.68622 -1.15078 0.16370
v 2.67824 -1.17224 0.16540
v 2.65738 -1.18183 0.16574
v 2.63586 -1.17392 0.16454
v 2.62628 -1.15315 0.16250
v 2.63426 -1.13169 0.16080
v 2.65512 -1.12211 0.16045
v 2.67678 -1.14108 0.01926
v 2.68636 -1.16191 0.02047
v 2.67839 -1.18338 0.02210
v 2.65754 -1.19291 0.02319
v 2.63601 -1.18493 0.02312
v 2.62642 -1.16410 0.02191
v 2.63439 -1.14263 0.02028
v 2.65525 -1.13309 0.01918
v 2.67049 -1.14933 -0.12318
v 2.68005 -1.17020 -0.12282
v 2.67209 -1.19168 -0.12125
v 2.65126 -1.20118 -0.11941
v 2.62978 -1.19314 -0.11836
v 2.62023 -1.17227 -0.11873
v 2.62819 -1.15079 -0.12030
v 2.64901 -1.14129 -0.12214
v 2.65780 -1.15475 -0.26534
v 2.66729 -1.17565 -0.26581
v 2.65933 -1.19714 -0.26431
v 2.63858 -1.20662 -0.26172
v 2.61719 -1.19854 -0.25956
v 2.60770 -1.17764 -0.25909
v 2.61567 -1.15615 -0.26058
v 2.63642 -1.14667 -0.26317
v 2.63874 -1.15733 -0.40686
v 2.64812 -1.17824 -0.40817
v 2.64016 -1.19973 -0.40673
v 2.61951 -1.20920 -0.40340
v 2.59827 -1.20112 -0.40012
v 2.58889 -1.18020 -0.39882
v 2.59685 -1.15871 -0.40025
v 2.61750 -1.14924 -0.40358
v 2.61334 -1.15705 -0.54740
v 2.62258 -1.17796 -0.54954
v 2.61461 -1.19946 -0.54818
v 2.59410 -1.20894 -0.54411
v 2.57306 -1.20086 -0.53972
v 2.56382 -1.17995 -0.53758
v 2.57179 -1.15846 -0.53895
v 2.59230 -1.14898 -0.54302
v 2.58168 -1.15393 -0.68664
v 2.59074 -1.17482 -0.68960
v 2.58276 -1.19631 -0.68830
v 2.56242 -1.20582 -0.68350
v 2.54163 -1.19777 -0.67802
v 2.53256 -1.17688 -0.67506
v 2.54054 -1.15539 -0.67635
v 2.56088 -1.14588 -0.68115
v 2.54382 -1.14797 -0.82422
v 2.55267 -1.16881 -0.82799
v 2.54468 -1.19031 -0.82676
v 2.52454 -1.19985 -0.82125
v 2.50404 -1.19186 -0.81468
v 2.49519 -1.17101 -0.81090
v 2.50318 -1.14952 -0.81213
v 2.52332 -1.13997 -0.81765
v 2.49986 -1.13917 -0.95982
v 2.50846 -1.15996 -0.96440
v 2.50046 -1.18146 -0.96323
v 2.48055 -1.19106 -0.95701
v 2.46040 -1.18314 -0.94937
v 2.45180 -1.16235 -0.94479
v 2.45980 -1.14086 -0.94596
v 2.47971 -1.13126 -0.95218
v 2.44991 -1.12757 -1.09312
v 2.45822 -1.14829 -1.09848
v 2.45020 -1.16978 -1.09738
v 2.43056 -1.17945 -1.09047
v 2.41079 -1.17163 -1.08178
v 2.40249 -1.15091 -1.07641
v 2.41050 -1.12942 -1.07751
v 2.43014 -1.11976 -1.08443
v 2.39408 -1.11319 -1.22378
v 2.40207 -1.13382 -1.22992
v 2.39403 -1.15531 -1.22889
v 2.37468 -1.16506 -1.22129
v 2.35536 -1.15737 -1.21157
v 2.34737 -1.13673 -1.20543
v 2.35541 -1.11525 -1.20646
v 2.37475 -1.10550 -1.21406
v 2.33251 -1.09607 -1.35151
v 2.34014 -1.11659 -1.35841
v 2.33209 -1.13807 -1.35744
v 2.31306 -1.14792 -1.34917
v 2.29422 -1.14037 -1.33845
v 2.28659 -1.11984 -1.33155
v 2.29465 -1.09836 -1.33252
v 2.31367 -1.08852 -1.34078
v 2.26536 -1.07624 -1.47598
v 2.27260 -1.09665 -1.48362
v 2.26451 -1.11812 -1.48272
v 2.24584 -1.12808 -1.47380
v 2.22752 -1.12069 -1.46210
v 2.22028 -1.10028 -1.45446
v 2.22837 -1.07881 -1.45536
v 2.24704 -1.06885 -1.46427
v 2.19277 -1.05376 -1.59690
v 2.19959 -1.07403 -1.60526
v 2.19147 -1.09549 -1.60442
v 2.17319 -1.10558 -1.59488
v 2.15543 -1.09837 -1.58222
v 2.14862 -1.07810 -1.57386
v 2.15673 -1.05664 -1.57470
v 2.17502 -1.04656 -1.58424
v 2.11493 -1.02867 -1.71398
v 2.12129 -1.04879 -1.72304
v 2.11315 -1.07025 -1.72226
v 2.09527 -1.08047 -1.71211
v 2.07813 -1.07347 -1.69853
v 2.07176 -1.05335 -1.68948
v 2.07991 -1.03190 -1.69025
v 2.09778 -1.02168 -1.70040
v 2.03202 -1.00105 -1.82694
v 2.03789 -1.02100 -1.83667
v 2.02972 -1.04244 -1.83595
v 2.01227 -1.05282 -1.82522
v 1.99578 -1.04605 -1.81075
v 1.98990 -1.02610 -1.80102
v 1.99808 -1.00465 -1.80173
v 2.01552 -0.99428 -1.81247
v 1.94424 -0.97095 -1.93550
v 1.94960 -0.99072 -1.94588
v 1.94139 -1.01215 -1.94522
v 1.92440 -1.02269 -1.93392
v 1.90860 -1.01616 -1.91860
v 1.90324 -0.99640 -1.90822
v 1.91145 -0.97496 -1.90888
v 1.92844 -0.96443 -1.92018
v 1.85181 -0.93845 -2.03941
v 1.85663 -0.95803 -2.05040
v 1.84837 -0.97944 -2.04980
v 1.83187 -0.99016 -2.03796
v 1.81679 -0.98390 -2.02182
v 1.81197 -0.96432 -2.01083
v 1.82023 -0.94291 -2.01143
v 1.83673 -0.93219 -2.02326
v 1.75494 -0.90363 -2.13840
v 1.75920 -0.92299 -2.14999
v 1.75090 -0.94439 -2.14945
v 1.73490 -0.95530 -2.13710
v 1.72058 -0.94932 -2.12017
v 1.71633 -0.92996 -2.10859
v 1.72463 -0.90855 -2.10913
v 1.74062 -0.89765 -2.12148
v 1.65387 -0.86657 -2.23225
v 1.65754 -0.88571 -2.24440
v 1.64919 -0.90709 -2.24391
v 1.63372 -0.91820 -2.23108
v 1.62020 -0.91252 -2.21341
v 1.61654 -0.89338 -2.20127
v 1.62488 -0.87199 -2.20176
v 1.64035 -0.86089 -2.21459
v 1.54885 -0.82736 -2.32073
v 1.55190 -0.84626 -2.33341
v 1.54350 -0.86763 -2.33297
v 1.52858 -0.87894 -2.31968
v 1.51588 -0.87358 -2.30132
v 1.51284 -0.85467 -2.28865
v 1.52123 -0.83331 -2.28908
v 1.53615 -0.82199 -2.30237
v 1.44012 -0.78609 -2.40362
v 1.44253 -0.80474 -2.41680
v 1.43409 -0.82609 -2.41641
v 1.41974 -0.83763 -2.40269
v 1.40789 -0.83260 -2.38368
v 1.40548 -0.81394 -2.37051
v 1.41392 -0.79259 -2.37089
v 1.42827 -0.78106 -2.38461
v 1.32796 -0.74286 -2.48073
v 1.32970 -0.76126 -2.49437
v 1.32120 -0.78258 -2.49403
v 1.30744 -0.79435 -2.47991
v 1.29647 -0.78967 -2.46029
v 1.29472 -0.77128 -2.44666
v 1.30322 -0.74995 -2.44700
v 1.31699 -0.73818 -2.46111
v 1.21262 -0.69779 -2.55187
v 1.21369 -0.71591 -2.56593
v 1.20513 -0.73722 -2.56563
v 1.19197 -0.74923 -2.55116
v 1.18190 -0.74490 -2.53098
v 1.18083 -0.72678 -2.51691
v 1.18939 -0.70548 -2.51721
v 1.20255 -0.69347 -2.53169
v 1.09439 -0.65097 -2.61687
v 1.09476 -0.66881 -2.63132
v 1.08614 -0.69009 -2.63106
v 1.07359 -0.70235 -2.61625
v 1.06446 -0.69841 -2.59556
v 1.06409 -0.68057 -2.58111
v 1.07270 -0.65928 -2.58136
v 1.08525 -0.64702 -2.59617
v 0.97355 -0.60252 -2.67556
v 0.97320 -0.62007 -2.69037
v 0.96453 -0.64133 -2.69015
v 0.95261 -0.65384 -2.67504
v 0.94442 -0.65029 -2.65389
v 0.94476 -0.63274 -2.63908
v 0.95344 -0.61148 -2.63930
v 0.96536 -0.59896 -2.65441
v 0.85039 -0.55256 -2.72782
v 0.84932 -0.56980 -2.74294
v 0.84058 -0.59103 -2.74276
v 0.82930 -0.60382 -2.72738
v 0.82208 -0.60067 -2.70582
v 0.82315 -0.58342 -2.69069
v 0.83189 -0.56219 -2.69088
v 0.84317 -0.54940 -2.70625
v 0.72521 -0.50120 -2.77351
v 0.72340 -0.51813 -2.78891
v 0.71460 -0.53934 -2.78876
v 0.70397 -0.55240 -2.77315
v 0.69773 -0.54966 -2.75123
v 0.69954 -0.53272 -2.73583
v 0.70834 -0.51151 -2.73598
v 0.71897 -0.49846 -2.75159
v 0.59831 -0.44857 -2.81253
v 0.59575 -0.46519 -2.82816
v 0.58689 -0.48637 -2.82804
v 0.57692 -0.49971 -2.81224
v 0.57167 -0.49739 -2.79000
v 0.57423 -0.48077 -2.77437
v 0.58310 -0.45959 -2.77449
v 0.59307 -0.44625 -2.79029
v 0.47000 -0.39480 -2.84477
v 0.46668 -0.41109 -2.86061
v 0.45775 -0.43225 -2.86051
v 0.44844 -0.44587 -2.84454
v 0.44421 -0.44398 -2.82206
v 0.44753 -0.42769 -2.80622
v 0.45646 -0.40653 -2.80632
v 0.46577 -0.39291 -2.82229
v 0.34059 -0.34002 -2.87017
v 0.33650 -0.35598 -2.88616
v 0.32751 -0.37710 -2.88609
v 0.31887 -0.39102 -2.87000
v 0.31565 -0.38957 -2.84731
v 0.31973 -0.37360 -2.83132
v 0.32873 -0.35248 -2.83139
v 0.33737 -0.33857 -2.84748
v 0.21038 -0.28435 -2.88866
v 0.20553 -0.29998 -2.90477
v 0.19646 -0.32107 -2.90471
v 0.18849 -0.33528 -2.88853
v 0.18629 -0.33427 -2.86570
v 0.19115 -0.31865 -2.84959
v 0.20022 -0.29755 -2.84964
v 0.20819 -0.28335 -2.86583
v 0.07970 -0.22794 -2.90020
v 0.07407 -0.24322 -2.91638
v 0.06493 -0.26429 -2.91634
v 0.05764 -0.27879 -2.90010
v 0.05646 -0.27824 -2.87718
v 0.06210 -0.26296 -2.86100
v 0.07124 -0.24189 -2.86104
v 0.07853 -0.22739 -2.87728
v -0.05115 -0.17092 -2.90476
v -0.05756 -0.18586 -2.92097
v -0.06677 -0.20689 -2.92094
v -0.07338 -0.22169 -2.90469
v -0.07353 -0.22160 -2.88173
v -0.06712 -0.20666 -2.86551
v -0.05791 -0.18562 -2.86554
v -0.05130 -0.17082 -2.88180
v -0.18185 -0.11342 -2.90232
v -0.18903 -0.12801 -2.91853
v -0.19831 -0.14901 -2.91850
v -0.20425 -0.16412 -2.90227
v -0.20337 -0.16448 -2.87933
v -0.19619 -0.14989 -2.86312
v -0.18691 -0.12889 -2.86314
v -0.18097 -0.11378 -2.87938
v -0.31208 -0.05558 -2.89290
v -0.32004 -0.06983 -2.90906
v -0.32939 -0.09080 -2.90904
v -0.33466 -0.10621 -2.89285
v -0.33276 -0.10704 -2.86999
v -0.32480 -0.09279 -2.85383
v -0.31545 -0.07182 -2.85385
v -0.31018 -0.05641 -2.87003
v -0.44153 0.00245 -2.87652
v -0.45026 -0.01144 -2.89258
v -0.45968 -0.03238 -2.89256
v -0.46429 -0.04810 -2.87647
v -0.46137 -0.04939 -2.85373
v -0.45264 -0.03550 -2.83767
v -0.44321 -0.01456 -2.83769
v -0.43861 0.00115 -2.85378
v -0.56989 0.06053 -2.85321
v -0.57938 0.04699 -2.86914
v -0.58888 0.02609 -2.86912
v -0.59282 0.01007 -2.85315
v -0.58890 0.00831 -2.83060
v -0.57940 0.02185 -2.81466
v -0.56991 0.04275 -2.81469
v -0.56596 0.05878 -2.83065
v -0.69685 0.11854 -2.82304
v -0.70709 0.10535 -2.83879
v -0.71666 0.08448 -2.83876
v -0.71995 0.06815 -2.82295
v -0.71503 0.06593 -2.80064
v -0.70479 0.07912 -2.78488
v -0.69521 0.09999 -2.78491
v -0.69193 0.11632 -2.80072
v -0.82210 0.17632 -2.78607
v -0.83309 0.16348 -2.80161
v -0.84273 0.14264 -2.80156
v -0.84538 0.12601 -2.78596
v -0.83948 0.12333 -2.76393
v -0.82848 0.13616 -2.74839
v -0.81884 0.15700 -2.74843
v -0.81619 0.17363 -2.76404
v -0.94534 0.23373 -2.74239
v -0.95707 0.22125 -2.75768
v -0.96678 0.20044 -2.75762
v -0.96880 0.18351 -2.74224
v -0.96193 0.18037 -2.72056
v -0.95020 0.19286 -2.70527
v -0.94048 0.21366 -2.70533
v -0.93847 0.23059 -2.72071
v -1.06628 0.29065 -2.69212
v -1.07872 0.27851 -2.70711
v -1.08851 0.25774 -2.70703
v -1.08990 0.24051 -2.69192
v -1.08209 0.23691 -2.67063
v -1.06964 0.24905 -2.65564
v -1.05985 0.26982 -2.65572
v -1.05846 0.28705 -2.67083
v -1.18462 0.34693 -2.63537
v -1.19777 0.33513 -2.65002
v -1.20763 0.31439 -2.64992
v -1.20842 0.29687 -2.63510
v -1.19967 0.29282 -2.61426
v -1.18651 0.30462 -2.59960
v -1.17666 0.32536 -2.59971
v -1.17587 0.34288 -2.61452
v -1.30007 0.40244 -2.57227
v -1.31392 0.39097 -2.58656
v -1.32385 0.37027 -2.58642
v -1.32404 0.35245 -2.57194
v -1.31439 0.34796 -2.55159
v -1.30055 0.35942 -2.53731
v -1.29062 0.38013 -2.53744
v -1.29042 0.39794 -2.55193
v -1.41237 0.45704 -2.50298
v -1.42689 0.44591 -2.51686
v -1.43688 0.42524 -2.51669
v -1.43650 0.40713 -2.50257
v -1.42597 0.40220 -2.48277
v -1.41146 0.41333 -2.46889
v -1.40146 0.43400 -2.46906
v -1.40184 0.45211 -2.48319
v -1.52124 0.51060 -2.42768
v -1.53640 0.49979 -2.44111
v -1.54647 0.47915 -2.44090
v -1.54553 0.46077 -2.42718
v -1.53415 0.45541 -2.40797
v -1.51898 0.46622 -2.39453
v -1.50892 0.48685 -2.39474
v -1.50985 0.50524 -2.40847
v -1.62641 0.56299 -2.34652
v -1.64221 0.55250 -2.35948
v -1.65234 0.53190 -2.35923
v -1.65087 0.51324 -2.34593
v -1.63866 0.50747 -2.32736
v -1.62286 0.51795 -2.31440
v -1.61273 0.53855 -2.31465
v -1.61420 0.55721 -2.32796
v -1.72764 0.61409 -2.25973
v -1.74404 0.60392 -2.27217
v -1.75423 0.58334 -2.27188
v -1.75225 0.56442 -2.25902
v -1.73925 0.55823 -2.24114
v -1.72284 0.56840 -2.22870
v -1.71265 0.58898 -2.22899
v -1.71464 0.60790 -2.24184
v -1.82468 0.66377 -2.16749
v -1.84166 0.65390 -2.17939
v -1.85192 0.63336 -2.17905
v -1.84943 0.61418 -2.16667
v -1.83567 0.60759 -2.14951
v -1.81869 0.61746 -2.13762
v -1.80844 0.63800 -2.13796
v -1.81092 0.65718 -2.15034
v -1.91729 0.71192 -2.07005
v -1.93483 0.70234 -2.08136
v -1.94514 0.68183 -2.08097
v -1.94219 0.66240 -2.06910
v -1.92771 0.65543 -2.05271
v -1.91017 0.66500 -2.04139
v -1.89985 0.68551 -2.04179
v -1.90280 0.70494 -2.05365
v -2.00526 0.75841 -1.96762
v -2.02332 0.74912 -1.97832
v -2.03370 0.72864 -1.97788
v -2.03030 0.70897 -1.96654
v -2.01512 0.70162 -1.95095
v -1.99706 0.71091 -1.94025
v -1.98669 0.73139 -1.94069
v -1.99008 0.75106 -1.95203
v -2.08837 0.80314 -1.86046
v -2.10693 0.79413 -1.87052
v -2.11736 0.77367 -1.87002
v -2.11354 0.75377 -1.85924
v -2.09772 0.74606 -1.84449
v -2.07915 0.75507 -1.83442
v -2.06872 0.77552 -1.83493
v -2.07254 0.79543 -1.84571
v -2.16642 0.84599 -1.74882
v -2.18545 0.83725 -1.75822
v -2.19593 0.81682 -1.75766
v -2.19172 0.79669 -1.74745
v -2.17528 0.78864 -1.73358
v -2.15625 0.79739 -1.72418
v -2.14577 0.81781 -1.72475
v -2.14998 0.83794 -1.73495
v -2.23922 0.88688 -1.63298
v -2.25869 0.87838 -1.64169
v -2.26922 0.85798 -1.64106
v -2.26464 0.83764 -1.63145
v -2.24763 0.82926 -1.61850
v -2.22816 0.83776 -1.60978
v -2.21763 0.85815 -1.61042
v -2.22221 0.87850 -1.62002
v -2.30660 0.92568 -1.51321
v -2.32648 0.91743 -1.52121
v -2.33705 0.89706 -1.52050
v -2.33213 0.87651 -1.51152
v -2.31460 0.86782 -1.49950
v -2.29473 0.87607 -1.49151
v -2.28415 0.89644 -1.49221
v -2.28907 0.91699 -1.50120
v -2.36840 0.96232 -1.38980
v -2.38864 0.95429 -1.39706
v -2.39926 0.93395 -1.39629
v -2.39404 0.91321 -1.38794
v -2.37602 0.90422 -1.37690
v -2.35577 0.91225 -1.36963
v -2.34515 0.93260 -1.37041
v -2.35038 0.95334 -1.37876
v -2.42446 0.99671 -1.26305
v -2.44504 0.98889 -1.26955
v -2.45570 0.96857 -1.26871
v -2.45020 0.94765 -1.26101
v -2.43174 0.93839 -1.25097
v -2.41116 0.94621 -1.24446
v -2.40050 0.96652 -1.24531
v -2.40600 0.98744 -1.25301
v -2.47465 1.02875 -1.13326
v -2.49554 1.02114 -1.13899
v -2.50624 1.00084 -1.13807
v -2.50048 0.97976 -1.13104
v -2.48164 0.97023 -1.12202
v -2.46075 0.97785 -1.11629
v -2.45005 0.99814 -1.11721
v -2.45581 1.01923 -1.12424
v -2.51886 1.05838 -1.00076
v -2.54001 1.05095 -1.00569
v -2.55075 1.03068 -1.00469
v -2.54477 1.00944 -0.99834
v -2.52558 0.99967 -0.99036
v -2.50442 1.00710 -0.98543
v -2.49369 1.02738 -0.98643
v -2.49967 1.04862 -0.99278
v -2.55696 1.08553 -0.86584
v -2.57835 1.07827 -0.86997
v -2.58911 1.05801 -0.86889
v -2.58295 1.03663 -0.86324
v -2.56346 1.02664 -0.85632
v -2.54208 1.03391 -0.85219
v -2.53131 1.05416 -0.85327
v -2.53748 1.07554 -0.85893
v -2.58888 1.11012 -0.72885
v -2.61047 1.10301 -0.73216
v -2.62126 1.08278 -0.73100
v -2.61493 1.06127 -0.72605
v -2.59520 1.05108 -0.72020
v -2.57362 1.05819 -0.71689
v -2.56283 1.07842 -0.71806
v -2.56915 1.09993 -0.72301
v -2.61454 1.13210 -0.59012
v -2.63628 1.12513 -0.59259
v -2.64709 1.10491 -0.59134
v -2.64065 1.08329 -0.58710
v -2.62072 1.07292 -0.58235
v -2.59898 1.07989 -0.57987
v -2.58817 1.10010 -0.58112
v -2.59461 1.12173 -0.58536
v -2.63387 1.15141 -0.44996
v -2.65573 1.14457 -0.45160
v -2.66656 1.12437 -0.45026
v -2.66002 1.10264 -0.44674
v -2.63995 1.09212 -0.44309
v -2.61809 1.09896 -0.44145
v -2.60726 1.11916 -0.44279
v -2.61379 1.14089 -0.44631
v -2.64683 1.16801 -0.30873
v -2.66877 1.16128 -0.30952
v -2.67961 1.14109 -0.30810
v -2.67302 1.11928 -0.30530
v -2.65284 1.10862 -0.30276
v -2.63090 1.11535 -0.30197
v -2.62006 1.13554 -0.30339
v -2.62665 1.15735 -0.30619
v -2.65338 1.18187 -0.16676
v -2.67536 1.17522 -0.16670
v -2.68622 1.15505 -0.16519
v -2.67960 1.13316 -0.16311
v -2.65937 1.12238 -0.16169
v -2.63740 1.12903 -0.16176
v -2.62654 1.14920 -0.16327
v -2.63316 1.17109 -0.16534
v -2.65352 1.19294 -0.02440
v -2.67550 1.18637 -0.02348
v -2.68636 1.16620 -0.02188
v -2.67975 1.14426 -0.02053
v -2.65953 1.13338 -0.02023
v -2.63755 1.13995 -0.02115
v -2.62668 1.16012 -0.02275
v -2.63330 1.18206 -0.02410
v -2.64723 1.20119 0.11801
v -2.66918 1.19468 0.11978
v -2.68005 1.17453 0.12148
v -2.67347 1.15254 0.12210
v -2.65330 1.14159 0.12128
v -2.63136 1.14810 0.11951
v -2.62049 1.16826 0.11781
v -2.62706 1.19025 0.11719
v -2.63454 1.20662 0.26013
v -2.65641 1.20015 0.26276
v -2.66728 1.18000 0.26455
v -2.66078 1.15798 0.26444
v -2.64071 1.14699 0.26251
v -2.61884 1.15346 0.25988
v -2.60797 1.17361 0.25809
v -2.61448 1.19563 0.25820
v -2.61548 1.20920 0.40162
v -2.63724 1.20276 0.40510
v -2.64810 1.18261 0.40698
v -2.64170 1.16058 0.40615
v -2.62179 1.14956 0.40310
v -2.60003 1.15600 0.39962
v -2.58917 1.17615 0.39774
v -2.59557 1.19818 0.39857
v -2.59008 1.20894 0.54213
v -2.61169 1.20250 0.54646
v -2.62255 1.18236 0.54843
v -2.61629 1.16032 0.54689
v -2.59658 1.14929 0.54274
v -2.57497 1.15574 0.53841
v -2.56412 1.17587 0.53644
v -2.57038 1.19791 0.53798
v -2.55842 1.20582 0.68133
v -2.57984 1.19937 0.68650
v -2.59068 1.17923 0.68856
v -2.58459 1.15721 0.68631
v -2.56514 1.14620 0.68106
v -2.54372 1.15265 0.67590
v -2.53288 1.17279 0.67383
v -2.53897 1.19481 0.67609
v -2.52057 1.19986 0.81888
v -2.54177 1.19338 0.82488
v -2.55259 1.17325 0.82703
v -2.54670 1.15125 0.82408
v -2.52755 1.14028 0.81775
v -2.50635 1.14676 0.81176
v -2.49553 1.16690 0.80960
v -2.50142 1.18889 0.81256
v -2.47662 1.19108 0.95445
v -2.49756 1.18455 0.96127
v -2.50836 1.16441 0.96351
v -2.50270 1.14246 0.95987
v -2.48389 1.13155 0.95248
v -2.46296 1.13808 0.94567
v -2.45216 1.15822 0.94342
v -2.45782 1.18017 0.94706
v -2.42668 1.17949 1.08772
v -2.44731 1.17290 1.09534
v -2.45809 1.15276 1.09767
v -2.45269 1.13086 1.09336
v -2.43428 1.12004 1.08492
v -2.41365 1.12662 1.07730
v -2.40287 1.14677 1.07496
v -2.40827 1.16866 1.07928
v -2.37086 1.16512 1.21836
v -2.39116 1.15845 1.22676
v -2.40190 1.13830 1.22919
v -2.39680 1.11648 1.22421
v -2.37883 1.10576 1.21474
v -2.35853 1.11243 1.20633
v -2.34779 1.13257 1.20391
v -2.35290 1.15440 1.20889
v -2.30931 1.14800 1.34605
v -2.32924 1.14124 1.35523
v -2.33995 1.12108 1.35774
v -2.33516 1.09934 1.35212
v -2.31768 1.08875 1.34165
v -2.29775 1.09552 1.33247
v -2.28705 1.11567 1.32995
v -2.29183 1.13741 1.33558
v -2.24216 1.12819 1.47050
v -2.26169 1.12131 1.48043
v -2.27236 1.10115 1.48303
v -2.26792 1.07950 1.47677
v -2.25098 1.06906 1.46532
v -2.23145 1.07594 1.45539
v -2.22078 1.09610 1.45279
v -2.22522 1.11774 1.45905
v -2.16959 1.10572 1.59139
v -2.18868 1.09871 1.60206
v -2.19931 1.07854 1.60474
v -2.19524 1.05701 1.59787
v -2.17887 1.04673 1.58547
v -2.15978 1.05374 1.57481
v -2.14916 1.07391 1.57213
v -2.15322 1.09544 1.57899
v -2.09176 1.08064 1.70845
v -2.11038 1.07350 1.71982
v -2.12096 1.05331 1.72259
v -2.11730 1.03190 1.71513
v -2.10155 1.02182 1.70181
v -2.08293 1.02897 1.69044
v -2.07235 1.04916 1.68767
v -2.07601 1.07056 1.69513
v -2.00887 1.05303 1.82138
v -2.02699 1.04573 1.83344
v -2.03752 1.02552 1.83629
v -2.03429 1.00425 1.82826
v -2.01919 0.99438 1.81405
v -2.00107 1.00169 1.80199
v -1.99054 1.02189 1.79914
v -1.99377 1.04316 1.80717
v -1.92125 1.02300 1.92975
v -1.93911 1.01560 1.94214
v -1.94961 0.99539 1.94503
v -1.94660 0.97420 1.93672
v -1.93185 0.96444 1.92209
v -1.91399 0.97183 1.90970
v -1.90348 0.99205 1.90681
v -1.90649 1.01324 1.91512
f 2 9 1
f 3 10 2
f 3 12 11
f 4 13 12
f 5 14 13
f 6 15 14
f 8 15 7
f 1 16 8
f 9 18 17
f 10 19 18
f 11 20 19
f 12 21 20
f 13 22 21
f 14 23 22
f 15 24 23
f 16 17 24
f 17 26 25
f 18 27 26
f 19 28 27
f 20 29 28
f 21 30 29
f 22 31 30
f 23 32 31
f 24 25 32
f 25 34 33
f 26 35 34
f 27 36 35
f 28 37 36
f 29 38 37
f 30 39 38
f 31 40 39
f 32 33 40
f 33 42 41
f 34 43 42
f 35 44 43
f 36 45 44
f 37 46 45
f 38 47 46
f 39 48 47
f 40 41 48
f 41 50 49
f 42 51 50
f 43 52 51
f 44 53 52
f 45 54 53
f 46 55 54
f 47 56 55
f 48 49 56
f 49 58 57
f 50 59 58
f 51 60 59
f 52 61 60
f 53 62 61
f 54 63 62
f 55 64 63
f 56 57 64
f 57 66 65
f 58 67 66
f 59 68 67
f 60 69 68
f 61 70 69
f 62 71 70
f 63 72 71
f 64 65 72
f 65 74 73
f 66 75 74
f 67 76 75
f 68 77 76
f 69 78 77
f 70 79 78
f 71 80 79
f 72 73 80
f 73 82 81
f 74 83 82
f 75 84 83
f 76 85 84
f 77 86 85
f 78 87 86
f 79 88 87
f 80 81 88
f 81 90 89
f 82 91 90
f 83 92 91
f 84 93 92
f 85 94 93
f 86 95 94
f 87 96 95
f 88 89 96
f 89 98 97
f 90 99 98
f 91 100 99
f 92 101 100
f 93 102 101
f 94 103 102
f 95 104 103
f 96 97 104
f 97 106 105
f 98 107 106
f 99 108 107
f 100 109 108
f 101 110 109
f 102 111 110
f 103 112 111
f 104 105 112
f 105 114 113
f 106 115 114
f 107 116 115
f 108 117 116
f 109 118 117
f 110 119 118
f 111 120 119
f 112 113 120
f 113 122 121
f 114 123 122
f 115 124 123
f 116 125 124
f 117 126 125
f 118 127 126
f 119 128 127
f 120 121 128
f 121 130 129
f 122 131 130
f 123 132 131
f 124 133 132
f 125 134 133
f 126 135 134
f 127 136 135
f 128 129 136
f 129 138 137
f 130 139 138
f 131 140 139
f 132 141 140
f 133 142 141
f 134 143 142
f 135 144 143
f 136 137 144
f 137 146 145
f 138 147 146
f 139 148 147
f 140 149 148
f 141 150 149
f 142 151 150
f 143 152 151
f 144 145 152
f 145 154 153
f 146 155 154
f 147 156 155
f 148 157 156
f 149 158 157
f 150 159 158
f 151 160 159
f 152 153 160
f 153 162 161
f 154 163 162
f 155 164 163
f 156 165 164
f 157 166 165
f 158 167 166
f 159 168 167
f 160 161 168
f 161 170 169
f 162 171 170
f 163 172 171
f 164 173 172
f 165 174 173
f 166 175 174
f 167 176 175
f 168 169 176
f 169 178 177
f 170 179 178
f 171 180 179
f 172 181 180
f 173 182 181
f 174 183 182
f 175 184 183
f 176 177 184
f 177 186 185
f 178 187 186
f 179 188 187
f 180 189 188
f 181 190 189
f 182 191 190
f 183 192 191
f 184 185 192
f 185 194 193
f 186 195 194
f 187 196 195
f 188 197 196
f 189 198 197
f 190 199 198
f 191 200 199
f 192 193 200
f 193 202 201
f 194 203 202
f 195 204 203
f 196 205 204
f 197 206 205
f 198 207 206
f 199 208 207
f 200 201 208
f 201 210 209
f 202 211 210
f 203 212 211
f 204 213 212
f 205 214 213
f 206 215 214
f 207 216 215
f 208 209 216
f 209 218 217
f 210 219 218
f 211 220 219
f 212 221 220
f 213 222 221
f 214 223 222
f 215 224 223
f 216 217 224
f 217 226 225
f 218 227 226
f 219 228 227
f 220 229 228
f 221 230 229
f 222 231 230
f 223 232 231
f 224 225 232
f 225 234 233
f 226 235 234
f 227 236 235
f 228 237 236
f 229 238 237
f 230 239 238
f 231 240 239
f 232 233 240
f 233 242 241
f 234 243 242
f 235 244 243
f 236 245 244
f 237 246 245
f 238 247 246
f 239 248 247
f 240 241 248
f 241 250 249
f 242 251 250
f 243 252 251
f 244 253 252
f 245 254 253
f 246 255 254
f 247 256 255
f 248 249 256
f 249 258 257
f 250 259 258
f 251 260 259
f 252 261 260
f 253 262 261
f 254 263 262
f 255 264 263
f 256 257 264
f 257 266 265
f 258 267 266
f 259 268 267
f 260 269 268
f 261 270 269
f 262 271 270
f 263 272 271
f 264 265 272
f 265 274 273
f 266 275 274
f 267 276 275
f 268 277 276
f 269 278 277
f 270 279 278
f 271 280 279
f 272 273 280
f 273 282 281
f 274 283 282
f 275 284 283
f 276 285 284
f 277 286 285
f 278 287 286
f 279 288 287
f 280 281 288
f 281 290 289
f 282 291 290
f 283 292 291
f 284 293 292
f 285 294 293
f 286 295 294
f 287 296 295
f 288 289 296
f 289 298 297
f 290 299 298
f 291 300 299
f 292 301 300
f 293 302 301
f 294 303 302
f 295 304 303
f 296 297 304
f 297 306 305
f 298 307 306
f 299 308 307
f 300 309 308
f 301 310 309
f 302 311 310
f 303 312 311
f 304 305 312
f 305 314 313
f 306 315 314
f 307 316 315
f 308 317 316
f 309 318 317
f 310 319 318
f 311 320 319
f 312 313 320
f 313 322 321
f 314 323 322
f 315 324 323
f 316 325 324
f 317 326 325
f 318 327 326
f 319 328 327
f 320 321 328
f 321 330 329
f 322 331 330
f 323 332 331
f 324 333 332
f 325 334 333
f 326 335 334
f 327 336 335
f 328 329 336
f 329 338 337
f 330 339 338
f 331 340 339
f 332 341 340
f 333 342 341
f 334 343 342
f 335 344 343
f 336 337 344
f 337 346 345
f 338 347 346
f 339 348 347
f 340 349 348
f 341 350 349
f 342 351 350
f 343 352 351
f 344 345 352
f 345 354 353
f 346 355 354
f 347 356 355
f 348 357 356
f 349 358 357
f 350 359 358
f 351 360 359
f 352 353 360
f 353 362 361
f 354 363 362
f 355 364 363
f 356 365 364
f 357 366 365
f 358 367 366
f 359 368 367
f 360 361 368
f 361 370 369
f 362 371 370
f 363 372 371
f 364 373 372
f 365 374 373
f 366 375 374
f 367 376 375
f 368 369 376
f 369 378 377
f 370 379 378
f 371 380 379
f 372 381 380
f 373 382 381
f 374 383 382
f 375 384 383
f 376 377 384
f 377 386 385
f 378 387 386
f 379 388 387
f 380 389 388
f 381 390 389
f 382 391 390
f 383 392 391
f 384 385 392
f 385 394 393
f 386 395 394
f 387 396 395
f 388 397 396
f 389 398 397
f 390 399 398
f 391 400 399
f 392 393 400
f 393 402 401
f 394 403 402
f 395 404 403
f 396 405 404
f 397 406 405
f 398 407 406
f 399 408 407
f 400 401 408
f 401 410 409
f 402 411 410
f 403 412 411
f 404 413 412
f 405 414 413
f 406 415 414
f 407 416 415
f 408 409 416
f 409 418 417
f 410 419 418
f 411 420 419
f 412 421 420
f 413 422 421
f 414 423 422
f 415 424 423
f 416 417 424
f 417 426 425
f 418 427 426
f 419 428 427
f 420 429 428
f 421 430 429
f 422 431 430
f 423 432 431
f 424 425 432
f 425 434 433
f 426 435 434
f 427 436 435
f 428 437 436
f 429 438 437
f 430 439 438
f 431 440 439
f 432 433 440
f 433 442 441
f 434 443 442
f 435 444 443
f 436 445 444
f 437 446 445
f 438 447 446
f 439 448 447
f 440 441 448
f 441 450 449
f 442 451 450
f 443 452 451
f 444 453 452
f 445 454 453
f 446 455 454
f 447 456 455
f 448 449 456
f 449 458 457
f 450 459 458
f 451 460 459
f 452 461 460
f 453 462 461
f 454 463 462
f 455 464 463
f 456 457 464
f 457 466 465
f 458 467 466
f 459 468 467
f 460 469 468
f 461 470 469
f 462 471 470
f 463 472 471
f 464 465 472
f 465 474 473
f 466 475 474
f 467 476 475
f 468 477 476
f 469 478 477
f 470 479 478
f 471 480 479
f 472 473 480
f 473 482 481
f 474 483 482
f 475 484 483
f 476 485 484
f 477 486 485
f 478 487 486
f 479 488 487
f 480 481 488
f 481 490 489
f 482 491 490
f 483 492 491
f 484 493 492
f 485 494 493
f 486 495 494
f 487 496 495
f 488 489 496
f 489 498 497
f 490 499 498
f 491 500 499
f 492 501 500
f 493 502 501
f 494 503 502
f 495 504 503
f 496 497 504
f 497 506 505
f 498 507 506
f 499 508 507
f 500 509 508
f 501 510 509
f 502 511 510
f 503 512 511
f 504 505 512
f 505 514 513
f 506 515 514
f 507 516 515
f 508 517 516
f 509 518 517
f 510 519 518
f 511 520 519
f 512 513 520
f 513 522 521
f 514 523 522
f 515 524 523
f 516 525 524
f 517 526 525
f 518 527 526
f 519 528 527
f 520 521 528
f 521 530 529
f 522 531 530
f 523 532 531
f 524 533 532
f 525 534 533
f 526 535 534
f 527 536 535
f 528 529 536
f 529 538 537
f 530 539 538
f 531 540 539
f 532 541 540
f 533 542 541
f 534 543 542
f 535 544 543
f 536 537 544
f 537 546 545
f 538 547 546
f 539 548 547
f 540 549 548
f 541 550 549
f 542 551 550
f 543 552 551
f 544 545 552
f 545 554 553
f 546 555 554
f 547 556 555
f 548 557 556
f 549 558 557
f 550 559 558
f 551 560 559
f 552 553 560
f 553 562 561
f 554 563 562
f 555 564 563
f 556 565 564
f 557 566 565
f 558 567 566
f 559 568 567
f 560 561 568
f 561 570 569
f 562 571 570
f 563 572 571
f 564 573 572
f 565 574 573
f 566 575 574
f 567 576 575
f 568 569 576
f 569 578 577
f 570 579 578
f 571 580 579
f 572 581 580
f 573 582 581
f 574 583 582
f 575 584 583
f 576 577 584
f 577 586 585
f 578 587 586
f 579 588 587
f 580 589 588
f 581 590 589
f 582 591 590
f 583 592 591
f 584 585 592
f 585 594 593
f 586 595 594
f 587 596 595
f 588 597 596
f 589 598 597
f 590 599 598
f 591 600 599
f 592 593 600
f 593 602 601
f 594 603 602
f 595 604 603
f 596 605 604
f 597 606 605
f 598 607 606
f 599 608 607
f 600 601 608
f 601 610 609
f 602 611 610
f 603 612 611
f 604 613 612
f 605 614 613
f 606 615 614
f 607 616 615
f 608 609 616
f 609 618 617
f 610 619 618
f 611 620 619
f 612 621 620
f 613 622 621
f 614 623 622
f 615 624 623
f 616 617 624
f 617 626 625
f 618 627 626
f 619 628 627
f 620 629 628
f 621 630 629
f 622 631 630
f 623 632 631
f 624 625 632
f 625 634 633
f 626 635 634
f 627 636 635
f 628 637 636
f 629 638 637
f 630 639 638
f 631 640 639
f 632 633 640
f 633 642 641
f 634 643 642
f 635 644 643
f 636 645 644
f 637 646 645
f 638 647 646
f 639 648 647
f 640 641 648
f 641 650 649
f 642 651 650
f 643 652 651
f 644 653 652
f 645 654 653
f 646 655 654
f 647 656 655
f 648 649 656
f 649 658 657
f 650 659 658
f 651 660 659
f 652 661 660
f 653 662 661
f 654 663 662
f 655 664 663
f 656 657 664
f 657 666 665
f 658 667 666
f 659 668 667
f 660 669 668
f 661 670 669
f 662 671 670
f 663 672 671
f 664 665 672
f 665 674 673
f 666 675 674
f 667 676 675
f 668 677 676
f 669 678 677
f 670 679 678
f 671 680 679
f 672 673 680
f 673 682 681
f 674 683 682
f 675 684 683
f 676 685 684
f 677 686 685
f 678 687 686
f 679 688 687
f 680 681 688
f 681 690 689
f 682 691 690
f 683 692 691
f 684 693 692
f 685 694 693
f 686 695 694
f 687 696 695
f 688 689 696
f 689 698 697
f 690 699 698
f 691 700 699
f 692 701 700
f 693 702 701
f 694 703 702
f 695 704 703
f 696 697 704
f 697 706 705
f 698 707 706
f 699 708 707
f 700 709 708
f 701 710 709
f 702 711 710
f 703 712 711
f 704 705 712
f 705 714 713
f 706 715 714
f 707 716 715
f 708 717 716
f 709 718 717
f 710 719 718
f 711 720 719
f 712 713 720
f 713 722 721
f 714 723 722
f 715 724 723
f 716 725 724
f 717 726 725
f 718 727 726
f 719 728 727
f 720 721 728
f 721 730 729
f 722 731 730
f 723 732 731
f 724 733 732
f 725 734 733
f 726 735 734
f 727 736 735
f 728 729 736
f 729 738 737
f 730 739 738
f 731 740 739
f 732 741 740
f 733 742 741
f 734 743 742
f 735 744 743
f 736 737 744
f 737 746 745
f 738 747 746
f 739 748 747
f 740 749 748
f 741 750 749
f 742 751 750
f 743 752 751
f 744 745 752
f 745 754 753
f 746 755 754
f 747 756 755
f 748 757 756
f 749 758 757
f 750 759 758
f 751 760 759
f 752 753 760
f 753 762 761
f 754 763 762
f 755 764 763
f 756 765 764
f 757 766 765
f 758 767 766
f 759 768 767
f 760 761 768
f 761 770 769
f 762 771 770
f 763 772 771
f 764 773 772
f 765 774 773
f 766 775 774
f 767 776 775
f 768 769 776
f 769 778 777
f 770 779 778
f 771 780 779
f 772 781 780
f 773 782 781
f 774 783 782
f 775 784 783
f 776 777 784
f 777 786 785
f 778 787 786
f 779 788 787
f 780 789 788
f 781 790 789
f 782 791 790
f 783 792 791
f 784 785 792
f 785 794 793
f 786 795 794
f 787 796 795
f 788 797 796
f 789 798 797
f 790 799 798
f 791 800 799
f 792 793 800
f 793 802 801
f 794 803 802
f 795 804 803
f 796 805 804
f 797 806 805
f 798 807 806
f 799 808 807
f 800 801 808
f 801 810 809
f 802 811 810
f 803 812 811
f 804 813 812
f 805 814 813
f 806 815 814
f 807 816 815
f 808 809 816
f 809 818 817
f 810 819 818
f 811 820 819
f 812 821 820
f 813 822 821
f 814 823 822
f 815 824 823
f 816 817 824
f 817 826 825
f 818 827 826
f 819 828 827
f 820 829 828
f 821 830 829
f 822 831 830
f 823 832 831
f 824 825 832
f 825 834 833
f 826 835 834
f 827 836 835
f 828 837 836
f 829 838 837
f 830 839 838
f 831 840 839
f 832 833 840
f 833 842 841
f 834 843 842
f 835 844 843
f 836 845 844
f 837 846 845
f 838 847 846
f 839 848 847
f 840 841 848
f 841 850 849
f 842 851 850
f 843 852 851
f 844 853 852
f 845 854 853
f 846 855 854
f 847 856 855
f 848 849 856
f 849 858 857
f 850 859 858
f 851 860 859
f 852 861 860
f 853 862 861
f 854 863 862
f 855 864 863
f 856 857 864
f 857 866 865
f 858 867 866
f 859 868 867
f 860 869 868
f 861 870 869
f 862 871 870
f 863 872 871
f 864 865 872
f 865 874 873
f 866 875 874
f 867 876 875
f 868 877 876
f 869 878 877
f 870 879 878
f 871 880 879
f 872 873 880
f 873 882 881
f 874 883 882
f 875 884 883
f 876 885 884
f 877 886 885
f 878 887 886
f 879 888 887
f 880 881 888
f 881 890 889
f 882 891 890
f 883 892 891
f 884 893 892
f 885 894 893
f 886 895 894
f 887 896 895
f 888 889 896
f 889 898 897
f 890 899 898
f 891 900 899
f 892 901 900
f 893 902 901
f 894 903 902
f 895 904 903
f 896 897 904
f 897 906 905
f 898 907 906
f 899 908 907
f 900 909 908
f 901 910 909
f 902 911 910
f 903 912 911
f 904 905 912
f 905 914 913
f 906 915 914
f 907 916 915
f 908 917 916
f 909 918 917
f 910 919 918
f 911 920 919
f 912 913 920
f 913 922 921
f 914 923 922
f 915 924 923
f 916 925 924
f 917 926 925
f 918 927 926
f 919 928 927
f 920 921 928
f 921 930 929
f 922 931 930
f 923 932 931
f 924 933 932
f 925 934 933
f 926 935 934
f 927 936 935
f 928 929 936
f 929 938 937
f 930 939 938
f 931 940 939
f 932 941 940
f 933 942 941
f 934 943 942
f 935 944 943
f 936 937 944
f 937 946 945
f 938 947 946
f 939 948 947
f 940 949 948
f 941 950 949
f 942 951 950
f 943 952 951
f 944 945 952
f 945 954 953
f 946 955 954
f 947 956 955
f 948 957 956
f 949 958 957
f 950 959 958
f 951 960 959
f 952 953 960
f 953 962 961
f 954 963 962
f 955 964 963
f 956 965 964
f 957 966 965
f 958 967 966
f 959 968 967
f 960 961 968
f 961 970 969
f 962 971 970
f 963 972 971
f 964 973 972
f 965 974 973
f 966 975 974
f 967 976 975
f 968 969 976
f 969 978 977
f 970 979 978
f 971 980 979
f 972 981 980
f 973 982 981
f 974 983 982
f 975 984 983
f 976 977 984
f 977 986 985
f 978 987 986
f 979 988 987
f 980 989 988
f 981 990 989
f 982 991 990
f 983 992 991
f 984 985 992
f 985 994 993
f 986 995 994
f 987 996 995
f 988 997 996
f 989 998 997
f 990 999 998
f 991 1000 999
f 992 993 1000
f 993 1002 1001
f 994 1003 1002
f 995 1004 1003
f 996 1005 1004
f 997 1006 1005
f 998 1007 1006
f 999 1008 1007
f 1000 1001 1008
f 1001 1010 1009
f 1002 1011 1010
f 1003 1012 1011
f 1004 1013 1012
f 1005 1014 1013
f 1006 1015 1014
f 1007 1016 1015
f 1008 1009 1016
f 1009 1018 1017
f 1010 1019 1018
f 1011 1020 1019
f 1012 1021 1020
f 1013 1022 1021
f 1014 1023 1022
f 1015 1024 1023
f 1016 1017 1024
f 1017 1026 1025
f 1018 1027 1026
f 1020 1027 1019
f 1021 1028 1020
f 1022 1029 1021
f 1023 1030 1022
f 1023 1032 1031
f 1024 1025 1032
f 2 10 9
f 3 11 10
f 3 4 12
f 4 5 13
f 5 6 14
f 6 7 15
f 8 16 15
f 1 9 16
f 9 10 18
f 10 11 19
f 11 12 20
f 12 13 21
f 13 14 22
f 14 15 23
f 15 16 24
f 16 9 17
f 17 18 26
f 18 19 27
f 19 20 28
f 20 21 29
f 21 22 30
f 22 23 31
f 23 24 32
f 24 17 25
f 25 26 34
f 26 27 35
f 27 28 36
f 28 29 37
f 29 30 38
f 30 31 39
f 31 32 40
f 32 25 33
f 33 34 42
f 34 35 43
f 35 36 44
f 36 37 45
f 37 38 46
f 38 39 47
f 39 40 48
f 40 33 41
f 41 42 50
f 42 43 51
f 43 44 52
f 44 45 53
f 45 46 54
f 46 47 55
f 47 48 56
f 48 41 49
f 49 50 58
f 50 51 59
f 51 52 60
f 52 53 61
f 53 54 62
f 54 55 63
f 55 56 64
f 56 49 57
f 57 58 66
f 58 59 67
f 59 60 68
f 60 61 69
f 61 62 70
f 62 63 71
f 63 64 72
f 64 57 65
f 65 66 74
f 66 67 75
f 67 68 76
f 68 69 77
f 69 70 78
f 70 71 79
f 71 72 80
f 72 65 73
f 73 74 82
f 74 75 83
f 75 76 84
f 76 77 85
f 77 78 86
f 78 79 87
f 79 80 88
f 80 73 81
f 81 82 90
f 82 83 91
f 83 84 92
f 84 85 93
f 85 86 94
f 86 87 95
f 87 88 96
f 88 81 89
f 89 90 98
f 90 91 99
f 91 92 100
f 92 93 101
f 93 94 102
f 94 95 103
f 95 96 104
f 96 89 97
f 97 98 106
f 98 99 107
f 99 100 108
f 100 101 109
f 101 102 110
f 102 103 111
f 103 104 112
f 104 97 105
f 105 106 114
f 106 107 115
f 107 108 116
f 108 109 117
f 109 110 118
f 110 111 119
f 111 112 120
f 112 105 113
f 113 114 122
f 114 115 123
f 115 116 124
f 116 117 125
f 117 118 126
f 118 119 127
f 119 120 128
f 120 113 121
f 121 122 130
f 122 123 131
f 123 124 132
f 124 125 133
f 125 126 134
f 126 127 135
f 127 128 136
f 128 121 129
f 129 130 138
f 130 131 139
f 131 132 140
f 132 133 141
f 133 134 142
f 134 135 143
f 135 136 144
f 136 129 137
f 137 138 146
f 138 139 147
f 139 140 148
f 140 141 149
f 141 142 150
f 142 143 151
f 143 144 152
f 144 137 145
f 145 146 154
f 146 147 155
f 147 148 156
f 148 149 157
f 149 150 158
f 150 151 159
f 151 152 160
f 152 145 153
f 153 154 162
f 154 155 163
f 155 156 164
f 156 157 165
f 157 158 166
f 158 159 167
f 159 160 168
f 160 153 161
f 161 162 170
f 162 163 171
f 163 164 172
f 164 165 173
f 165 166 174
f 166 167 175
f 167 168 176
f 168 161 169
f 169 170 178
f 170 171 179
f 171 172 180
f 172 173 181
f 173 174 182
f 174 175 183
f 175 176 184
f 176 169 177
f 177 178 186
f 178 179 187
f 179 180 188
f 180 181 189
f 181 182 190
f 182 183 191
f 183 184 192
f 184 177 185
f 185 186 194
f 186 187 195
f 187 188 196
f 188 189 197
f 189 190 198
f 190 191 199
f 191 192 200
f 192 185 193
f 193 194 202
f 194 195 203
f 195 196 204
f 196 197 205
f 197 198 206
f 198 199 207
f 199 200 208
f 200 193 201
f 201 202 210
f 202 203 211
f 203 204 212
f 204 205 213
f 205 206 214
f 206 207 215
f 207 208 216
f 208 201 209
f 209 210 218
f 210 211 219
f 211 212 220
f 212 213 221
f 213 214 222
f 214 215 223
f 215 216 224
f 216 209 217
f 217 218 226
f 218 219 227
f 219 220 228
f 220 221 229
f 221 222 230
f 222 223 231
f 223 224 232
f 224 217 225
f 225 226 234
f 226 227 235
f 227 228 236
f 228 229 237
f 229 230 238
f 230 231 239
f 231 232 240
f 232 225 233
f 233 234 242
f 234 235 243
f 235 236 244
f 236 237 245
f 237 238 246
f 238 239 247
f 239 240 248
f 240 233 241
f 241 242 250
f 242 243 251
f 243 244 252
f 244 245 253
f 245 246 254
f 246 247 255
f 247 248 256
f 248 241 249
f 249 250 258
f 250 251 259
f 251 252 260
f 252 253 261
f 253 254 262
f 254 255 263
f 255 256 264
f 256 249 257
f 257 258 266
f 258 259 267
f 259 260 268
f 260 261 269
f 261 262 270
f 262 263 271
f 263 264 272
f 264 257 265
f 265 266 274
f 266 267 275
f 267 268 276
f 268 269 277
f 269 270 278
f 270 271 279
f 271 272 280
f 272 265 273
f 273 274 282
f 274 275 283
f 275 276 284
f 276 277 285
f 277 278 286
f 278 279 287
f 279 280 288
f 280 273 281
f 281 282 290
f 282 283 291
f 283 284 292
f 284 285 293
f 285 286 294
f 286 287 295
f 287 288 296
f 288 281 289
f 289 290 298
f 290 291 299
f 291 292 300
f 292 293 301
f 293 294 302
f 294 295 303
f 295 296 304
f 296 289 297
f 297 298 306
f 298 299 307
f 299 300 308
f 300 301 309
f 301 302 310
f 302 303 311
f 303 304 312
f 304 297 305
f 305 306 314
f 306 307 315
f 307 308 316
f 308 309 317
f 309 310 318
f 310 311 319
f 311 312 320
f 312 305 313
f 313 314 322
f 314 315 323
f 315 316 324
f 316 317 325
f 317 318 326
f 318 319 327
f 319 320 328
f 320 313 321
f 321 322 330
f 322 323 331
f 323 324 332
f 324 325 333
f 325 326 334
f 326 327 335
f 327 328 336
f 328 321 329
f 329 330 338
f 330 331 339
f 331 332 340
f 332 333 341
f 333 334 342
f 334 335 343
f 335 336 344
f 336 329 337
f 337 338 346
f 338 339 347
f 339 340 348
f 340 341 349
f 341 342 350
f 342 343 351
f 343 344 352
f 344 337 345
f 345 346 354
f 346 347 355
f 347 348 356
f 348 349 357
f 349 350 358
f 350 351 359
f 351 352 360
f 352 345 353
f 353 354 362
f 354 355 363
f 355 356 364
f 356 357 365
f 357 358 366
f 358 359 367
f 359 360 368
f 360 353 361
f 361 362 370
f 362 363 371
f 363 364 372
f 364 365 373
f 365 366 374
f 366 367 375
f 367 368 376
f 368 361 369
f 369 370 378
f 370 371 379
f 371 372 380
f 372 373 381
f 373 374 382
f 374 375 383
f 375 376 384
f 376 369 377
f 377 378 386
f 378 379 387
f 379 380 388
f 380 381 389
f 381 382 390
f 382 383 391
f 383 384 392
f 384 377 385
f 385 386 394
f 386 387 395
f 387 388 396
f 388 389 397
f 389 390 398
f 390 391 399
f 391 392 400
f 392 385 393
f 393 394 402
f 394 395 403
f 395 396 404
f 396 397 405
f 397 398 406
f 398 399 407
f 399 400 408
f 400 393 401
f 401 402 410
f 402 403 411
f 403 404 412
f 404 405 413
f 405 406 414
f 406 407 415
f 407 408 416
f 408 401 409
f 409 410 418
f 410 411 419
f 411 412 420
f 412 413 421
f 413 414 422
f 414 415 423
f 415 416 424
f 416 409 417
f 417 418 426
f 418 419 427
f 419 420 428
f 420 421 429
f 421 422 430
f 422 423 431
f 423 424 432
f 424 417 425
f 425 426 434
f 426 427 435
f 427 428 436
f 428 429 437
f 429 430 438
f 430 431 439
f 431 432 440
f 432 425 433
f 433 434 442
f 434 435 443
f 435 436 444
f 436 437 445
f 437 438 446
f 438 439 447
f 439 440 448
f 440 433 441
f 441 442 450
f 442 443 451
f 443 444 452
f 444 445 453
f 445 446 454
f 446 447 455
f 447 448 456
f 448 441 449
f 449 450 458
f 450 451 459
f 451 452 460
f 452 453 461
f 453 454 462
f 454 455 463
f 455 456 464
f 456 449 457
f 457 458 466
f 458 459 467
f 459 460 468
f 460 461 469
f 461 462 470
f 462 463 471
f 463 464 472
f 464 457 465
f 465 466 474
f 466 467 475
f 467 468 476
f 468 469 477
f 469 470 478
f 470 471 479
f 471 472 480
f 472 465 473
f 473 474 482
f 474 475 483
f 475 476 484
f 476 477 485
f 477 478 486
f 478 479 487
f 479 480 488
f 480 473 481
f 481 482 490
f 482 483 491
f 483 484 492
f 484 485 493
f 485 486 494
f 486 487 495
f 487 488 496
f 488 481 489
f 489 490 498
f 490 491 499
f 491 492 500
f 492 493 501
f 493 494 502
f 494 495 503
f 495 496 504
f 496 489 497
f 497 498 506
f 498 499 507
f 499 500 508
f 500 501 509
f 501 502 510
f 502 503 511
f 503 504 512
f 504 497 505
f 505 506 514
f 506 507 515
f 507 508 516
f 508 509 517
f 509 510 518
f 510 511 519
f 511 512 520
f 512 505 513
f 513 514 522
f 514 515 523
f 515 516 524
f 516 517 525
f 517 518 526
f 518 519 527
f 519 520 528
f 520 513 521
f 521 522 530
f 522 523 531
f 523 524 532
f 524 525 533
f 525 526 534
f 526 527 535
f 527 528 536
f 528 521 529
f 529 530 538
f 530 531 539
f 531 532 540
f 532 533 541
f 533 534 542
f 534 535 543
f 535 536 544
f 536 529 537
f 537 538 546
f 538 539 547
f 539 540 548
f 540 541 549
f 541 542 550
f 542 543 551
f 543 544 552
f 544 537 545
f 545 546 554
f 546 547 555
f 547 548 556
f 548 549 557
f 549 550 558
f 550 551 559
f 551 552 560
f 552 545 553
f 553 554 562
f 554 555 563
f 555 556 564
f 556 557 565
f 557 558 566
f 558 559 567
f 559 560 568
f 560 553 561
f 561 562 570
f 562 563 571
f 563 564 572
f 564 565 573
f 565 566 574
f 566 567 575
f 567 568 576
f 568 561 569
f 569 570 578
f 570 571 579
f 571 572 580
f 572 573 581
f 573 574 582
f 574 575 583
f 575 576 584
f 576 569 577
f 577 578 586
f 578 579 587
f 579 580 588
f 580 581 589
f 581 582 590
f 582 583 591
f 583 584 592
f 584 577 585
f 585 586 594
f 586 587 595
f 587 588 596
f 588 589 597
f 589 590 598
f 590 591 599
f 591 592 600
f 592 585 593
f 593 594 602
f 594 595 603
f 595 596 604
f 596 597 605
f 597 598 606
f 598 599 607
f 599 600 608
f 600 593 601
f 601 602 610
f 602 603 611
f 603 604 612
f 604 605 613
f 605 606 614
f 606 607 615
f 607 608 616
f 608 601 609
f 609 610 618
f 610 611 619
f 611 612 620
f 612 613 621
f 613 614 622
f 614 615 623
f 615 616 624
f 616 609 617
f 617 618 626
f 618 619 627
f 619 620 628
f 620 621 629
f 621 622 630
f 622 623 631
f 623 624 632
f 624 617 625
f 625 626 634
f 626 627 635
f 627 628 636
f 628 629 637
f 629 630 638
f 630 631 639
f 631 632 640
f 632 625 633
f 633 634 642
f 634 635 643
f 635 636 644
f 636 637 645
f 637 638 646
f 638 639 647
f 639 640 648
f 640 633 641
f 641 642 650
f 642 643 651
f 643 644 652
f 644 645 653
f 645 646 654
f 646 647 655
f 647 648 656
f 648 641 649
f 649 650 658
f 650 651 659
f 651 652 660
f 652 653 661
f 653 654 662
f 654 655 663
f 655 656 664
f 656 649 657
f 657 658 666
f 658 659 667
f 659 660 668
f 660 661 669
f 661 662 670
f 662 663 671
f 663 664 672
f 664 657 665
f 665 666 674
f 666 667 675
f 667 668 676
f 668 669 677
f 669 670 678
f 670 671 679
f 671 672 680
f 672 665 673
f 673 674 682
f 674 675 683
f 675 676 684
f 676 677 685
f 677 678 686
f 678 679 687
f 679 680 688
f 680 673 681
f 681 682 690
f 682 683 691
f 683 684 692
f 684 685 693
f 685 686 694
f 686 687 695
f 687 688 696
f 688 681 689
f 689 690 698
f 690 691 699
f 691 692 700
f 692 693 701
f 693 694 702
f 694 695 703
f 695 696 704
f 696 689 697
f 697 698 706
f 698 699 707
f 699 700 708
f 700 701 709
f 701 702 710
f 702 703 711
f 703 704 712
f 704 697 705
f 705 706 714
f 706 707 715
f 707 708 716
f 708 709 717
f 709 710 718
f 710 711 719
f 711 712 720
f 712 705 713
f 713 714 722
f 714 715 723
f 715 716 724
f 716 717 725
f 717 718 726
f 718 719 727
f 719 720 728
f 720 713 721
f 721 722 730
f 722 723 731
f 723 724 732
f 724 725 733
f 725 726 734
f 726 727 735
f 727 728 736
f 728 721 729
f 729 730 738
f 730 731 739
f 731 732 740
f 732 733 741
f 733 734 742
f 734 735 743
f 735 736 744
f 736 729 737
f 737 738 746
f 738 739 747
f 739 740 748
f 740 741 749
f 741 742 750
f 742 743 751
f 743 744 752
f 744 737 745
f 745 746 754
f 746 747 755
f 747 748 756
f 748 749 757
f 749 750 758
f 750 751 759
f 751 752 760
f 752 745 753
f 753 754 762
f 754 755 763
f 755 756 764
f 756 757 765
f 757 758 766
f 758 759 767
f 759 760 768
f 760 753 761
f 761 762 770
f 762 763 771
f 763 764 772
f 764 765 773
f 765 766 774
f 766 767 775
f 767 768 776
f 768 761 769
f 769 770 778
f 770 771 779
f 771 772 780
f 772 773 781
f 773 774 782
f 774 775 783
f 775 776 784
f 776 769 777
f 777 778 786
f 778 779 787
f 779 780 788
f 780 781 789
f 781 782 790
f 782 783 791
f 783 784 792
f 784 777 785
f 785 786 794
f 786 787 795
f 787 788 796
f 788 789 797
f 789 790 798
f 790 791 799
f 791 792 800
f 792 785 793
f 793 794 802
f 794 795 803
f 795 796 804
f 796 797 805
f 797 798 806
f 798 799 807
f 799 800 808
f 800 793 801
f 801 802 810
f 802 803 811
f 803 804 812
f 804 805 813
f 805 806 814
f 806 807 815
f 807 808 816
f 808 801 809
f 809 810 818
f 810 811 819
f 811 812 820
f 812 813 821
f 813 814 822
f 814 815 823
f 815 816 824
f 816 809 817
f 817 818 826
f 818 819 827
f 819 820 828
f 820 821 829
f 821 822 830
f 822 823 831
f 823 824 832
f 824 817 825
f 825 826 834
f 826 827 835
f 827 828 836
f 828 829 837
f 829 830 838
f 830 831 839
f 831 832 840
f 832 825 833
f 833 834 842
f 834 835 843
f 835 836 844
f 836 837 845
f 837 838 846
f 838 839 847
f 839 840 848
f 840 833 841
f 841 842 850
f 842 843 851
f 843 844 852
f 844 845 853
f 845 846 854
f 846 847 855
f 847 848 856
f 848 841 849
f 849 850 858
f 850 851 859
f 851 852 860
f 852 853 861
f 853 854 862
f 854 855 863
f 855 856 864
f 856 849 857
f 857 858 866
f 858 859 867
f 859 860 868
f 860 861 869
f 861 862 870
f 862 863 871
f 863 864 872
f 864 857 865
f 865 866 874
f 866 867 875
f 867 868 876
f 868 869 877
f 869 870 878
f 870 871 879
f 871 872 880
f 872 865 873
f 873 874 882
f 874 875 883
f 875 876 884
f 876 877 885
f 877 878 886
f 878 879 887
f 879 880 888
f 880 873 881
f 881 882 890
f 882 883 891
f 883 884 892
f 884 885 893
f 885 886 894
f 886 887 895
f 887 888 896
f 888 881 889
f 889 890 898
f 890 891 899
f 891 892 900
f 892 893 901
f 893 894 902
f 894 895 903
f 895 896 904
f 896 889 897
f 897 898 906
f 898 899 907
f 899 900 908
f 900 901 909
f 901 902 910
f 902 903 911
f 903 904 912
f 904 897 905
f 905 906 914
f 906 907 915
f 907 908 916
f 908 909 917
f 909 910 918
f 910 911 919
f 911 912 920
f 912 905 913
f 913 914 922
f 914 915 923
f 915 916 924
f 916 917 925
f 917 918 926
f 918 919 927
f 919 920 928
f 920 913 921
f 921 922 930
f 922 923 931
f 923 924 932
f 924 925 933
f 925 926 934
f 926 927 935
f 927 928 936
f 928 921 929
f 929 930 938
f 930 931 939
f 931 932 940
f 932 933 941
f 933 934 942
f 934 935 943
f 935 936 944
f 936 929 937
f 937 938 946
f 938 939 947
f 939 940 948
f 940 941 949
f 941 942 950
f 942 943 951
f 943 944 952
f 944 937 945
f 945 946 954
f 946 947 955
f 947 948 956
f 948 949 957
f 949 950 958
f 950 951 959
f 951 952 960
f 952 945 953
f 953 954 962
f 954 955 963
f 955 956 964
f 956 957 965
f 957 958 966
f 958 959 967
f 959 960 968
f 960 953 961
f 961 962 970
f 962 963 971
f 963 964 972
f 964 965 973
f 965 966 974
f 966 967 975
f 967 968 976
f 968 961 969
f 969 970 978
f 970 971 979
f 971 972 980
f 972 973 981
f 973 974 982
f 974 975 983
f 975 976 984
f 976 969 977
f 977 978 986
f 978 979 987
f 979 980 988
f 980 981 989
f 981 982 990
f 982 983 991
f 983 984 992
f 984 977 985
f 985 986 994
f 986 987 995
f 987 988 996
f 988 989 997
f 989 990 998
f 990 991 999
f 991 992 1000
f 992 985 993
f 993 994 1002
f 994 995 1003
f 995 996 1004
f 996 997 1005
f 997 998 1006
f 998 999 1007
f 999 1000 1008
f 1000 993 1001
f 1001 1002 1010
f 1002 1003 1011
f 1003 1004 1012
f 1004 1005 1013
f 1005 1006 1014
f 1006 1007 1015
f 1007 1008 1016
f 1008 1001 1009
f 1009 1010 1018
f 1010 1011 1019
f 1011 1012 1020
f 1012 1013 1021
f 1013 1014 1022
f 1014 1015 1023
f 1015 1016 1024
f 1016 1009 1017
f 1017 1018 1026
f 1018 1019 1027
f 1020 1028 1027
f 1021 1029 1028
f 1022 1030 1029
f 1023 1031 1030
f 1023 1024 1032
f 1024 1017 1025
