# eclipse_carrier Orbit1_OrbitGlow.obj: Roblox cue frame, recentred on its bounding box
v -1.66423 0.60094 1.64529
v -1.68721 0.58880 1.67592
v -1.69751 0.55701 1.69821
v -1.69120 0.51771 1.70365
v -1.67068 0.48591 1.69015
v -1.64380 0.47377 1.66288
v -1.62082 0.48591 1.63225
v -1.61052 0.51771 1.60996
v -1.61684 0.55701 1.60452
v -1.63735 0.58880 1.61802
v -1.57662 0.62545 1.72071
v -1.59897 0.61348 1.75187
v -1.60899 0.58177 1.77440
v -1.60285 0.54242 1.77970
v -1.58290 0.51047 1.76573
v -1.55676 0.49812 1.73784
v -1.53441 0.51009 1.70668
v -1.52439 0.54181 1.68415
v -1.53053 0.58115 1.67886
v -1.55048 0.61310 1.69282
v -1.48494 0.64867 1.79217
v -1.50599 0.63704 1.82435
v -1.51543 0.60548 1.84734
v -1.50966 0.56605 1.85236
v -1.49087 0.53380 1.83750
v -1.46625 0.52106 1.80843
v -1.44519 0.53269 1.77625
v -1.43575 0.56425 1.75326
v -1.44153 0.60368 1.74824
v -1.46031 0.63593 1.76310
v -1.38967 0.67048 1.85927
v -1.40938 0.65917 1.89240
v -1.41822 0.62775 1.91582
v -1.41282 0.58823 1.92060
v -1.39525 0.55570 1.90489
v -1.37220 0.54259 1.87471
v -1.35250 0.55390 1.84158
v -1.34365 0.58531 1.81816
v -1.34905 0.62483 1.81339
v -1.36663 0.65736 1.82909
v -1.29106 0.69081 1.92184
v -1.30937 0.67980 1.95586
v -1.31760 0.64852 1.97969
v -1.31259 0.60892 1.98423
v -1.29626 0.57613 1.96774
v -1.27485 0.56267 1.93653
v -1.25654 0.57368 1.90251
v -1.24832 0.60496 1.87868
v -1.25333 0.64456 1.87414
v -1.26966 0.67735 1.89063
v -1.18935 0.70963 1.97973
v -1.20622 0.69889 2.01457
v -1.21379 0.66774 2.03878
v -1.20918 0.62807 2.04310
v -1.19415 0.59503 2.02589
v -1.17443 0.58125 1.99372
v -1.15756 0.59198 1.95888
v -1.14998 0.62313 1.93468
v -1.15459 0.66281 1.93035
v -1.16962 0.69584 1.94756
v -1.08476 0.72688 2.03281
v -1.10015 0.71640 2.06841
v -1.10707 0.68536 2.09296
v -1.10287 0.64563 2.09708
v -1.08916 0.61236 2.07921
v -1.07117 0.59828 2.04616
v -1.05578 0.60876 2.01057
v -1.04887 0.63980 1.98602
v -1.05307 0.67954 1.98189
v -1.06678 0.71280 1.99976
v -0.97757 0.74252 2.08094
v -0.99144 0.73228 2.11722
v -0.99768 0.70135 2.14209
v -0.99390 0.66155 2.14604
v -0.98154 0.62808 2.12756
v -0.96534 0.61373 2.09372
v -0.95146 0.62398 2.05744
v -0.94523 0.65491 2.03258
v -0.94901 0.69471 2.02863
v -0.96136 0.72817 2.04710
v -0.86802 0.75652 2.12401
v -0.88034 0.74648 2.16091
v -0.88588 0.71565 2.18605
v -0.88253 0.67580 2.18985
v -0.87156 0.64215 2.17084
v -0.85717 0.62756 2.13629
v -0.84485 0.63759 2.09939
v -0.83931 0.66843 2.07425
v -0.84266 0.70828 2.07045
v -0.85363 0.74193 2.08946
v -0.75639 0.76884 2.16192
v -0.76712 0.75899 2.19935
v -0.77196 0.72824 2.22475
v -0.76904 0.68834 2.22841
v -0.75948 0.65453 2.20893
v -0.74694 0.63973 2.17375
v -0.73621 0.64958 2.13632
v -0.73137 0.68033 2.11092
v -0.73429 0.72022 2.10726
v -0.74385 0.75403 2.12674
v -0.64293 0.77945 2.19457
v -0.65206 0.76976 2.23247
v -0.65617 0.73909 2.25808
v -0.65369 0.69915 2.26163
v -0.64557 0.66520 2.24174
v -0.63491 0.65021 2.20603
v -0.62578 0.65990 2.16813
v -0.62167 0.69057 2.14251
v -0.62415 0.73051 2.13897
v -0.63227 0.76446 2.15885
v -0.52793 0.78833 2.22188
v -0.53542 0.77878 2.26018
v -0.53880 0.74817 2.28597
v -0.53677 0.70820 2.28942
v -0.53010 0.67413 2.26920
v -0.52135 0.65898 2.23304
v -0.51385 0.66854 2.19475
v -0.51048 0.69914 2.16895
v -0.51251 0.73912 2.16550
v -0.51917 0.77318 2.18572
v -0.41165 0.79546 2.24380
v -0.41750 0.78602 2.28241
v -0.42013 0.75546 2.30835
v -0.41855 0.71546 2.31173
v -0.41335 0.68130 2.29124
v -0.40653 0.66602 2.25472
v -0.40068 0.67546 2.21611
v -0.39805 0.70602 2.19017
v -0.39963 0.74602 2.18679
v -0.40483 0.78018 2.20728
v -0.29439 0.80081 2.26026
v -0.29857 0.79146 2.29911
v -0.30045 0.76094 2.32517
v -0.29932 0.72092 2.32849
v -0.29561 0.68669 2.30780
v -0.29073 0.67131 2.27101
v -0.28655 0.68067 2.23217
v -0.28466 0.71118 2.20611
v -0.28579 0.75120 2.20279
v -0.28951 0.78544 2.22347
v -0.17642 0.80438 2.27124
v -0.17892 0.79509 2.31024
v -0.18005 0.76460 2.33638
v -0.17938 0.72457 2.33967
v -0.17715 0.69028 2.31885
v -0.17423 0.67484 2.28188
v -0.17172 0.68413 2.24288
v -0.17059 0.71462 2.21674
v -0.17127 0.75465 2.21345
v -0.17349 0.78894 2.23427
v -0.05802 0.80616 2.27669
v -0.05885 0.79690 2.31577
v -0.05922 0.76643 2.34195
v -0.05900 0.72640 2.34523
v -0.05826 0.69208 2.32436
v -0.05730 0.67660 2.28730
v -0.05648 0.68585 2.24822
v -0.05611 0.71632 2.22204
v -0.05633 0.75636 2.21876
v -0.05706 0.79067 2.23964
v 0.06051 0.80614 2.27661
v 0.06137 0.79689 2.31570
v 0.06176 0.76643 2.34189
v 0.06153 0.72639 2.34518
v 0.06076 0.69207 2.32431
v 0.05976 0.67658 2.28726
v 0.05890 0.68583 2.24818
v 0.05851 0.71629 2.22199
v 0.05874 0.75632 2.21870
v 0.05951 0.79064 2.23956
v 0.17890 0.80432 2.27100
v 0.18144 0.79506 2.31001
v 0.18259 0.76459 2.33617
v 0.18190 0.72456 2.33949
v 0.17965 0.69026 2.31871
v 0.17668 0.67478 2.28176
v 0.17414 0.68405 2.24275
v 0.17299 0.71451 2.21659
v 0.17367 0.75454 2.21327
v 0.17593 0.78884 2.23405
v 0.29685 0.80071 2.25988
v 0.30107 0.79140 2.29873
v 0.30298 0.76092 2.32483
v 0.30184 0.72091 2.32820
v 0.29810 0.68665 2.30757
v 0.29318 0.67122 2.27080
v 0.28896 0.68053 2.23195
v 0.28705 0.71101 2.20585
v 0.28818 0.75102 2.20248
v 0.29193 0.78528 2.22311
v 0.41408 0.79531 2.24326
v 0.41997 0.78594 2.28188
v 0.42263 0.75544 2.30788
v 0.42105 0.71544 2.31133
v 0.41584 0.68124 2.29091
v 0.40897 0.66590 2.25442
v 0.40308 0.67527 2.21581
v 0.40042 0.70577 2.18981
v 0.40200 0.74577 2.18636
v 0.40722 0.77997 2.20677
v 0.53032 0.78815 2.22119
v 0.53786 0.77869 2.25950
v 0.54127 0.74814 2.28536
v 0.53925 0.70817 2.28891
v 0.53257 0.67406 2.26878
v 0.52378 0.65882 2.23266
v 0.51623 0.66828 2.19436
v 0.51282 0.69883 2.16849
v 0.51484 0.73879 2.16494
v 0.52153 0.77291 2.18507
v 0.64528 0.77923 2.19372
v 0.65445 0.76965 2.23164
v 0.65861 0.73905 2.25734
v 0.65615 0.69912 2.26100
v 0.64802 0.66511 2.24122
v 0.63733 0.65001 2.20557
v 0.62815 0.65959 2.16765
v 0.62399 0.69019 2.14195
v 0.62645 0.73012 2.13829
v 0.63458 0.76413 2.15807
v 0.75868 0.76857 2.16093
v 0.76947 0.75886 2.19838
v 0.77436 0.72820 2.22387
v 0.77147 0.68831 2.22767
v 0.76192 0.65443 2.20832
v 0.74934 0.63949 2.17321
v 0.73855 0.64921 2.13575
v 0.73366 0.67987 2.11026
v 0.73654 0.71976 2.10647
v 0.74610 0.75364 2.12582
v 0.87025 0.75622 2.12288
v 0.88263 0.74633 2.15979
v 0.88824 0.71560 2.18505
v 0.88494 0.67576 2.18900
v 0.87398 0.64203 2.17013
v 0.85955 0.62729 2.13566
v 0.84717 0.63717 2.09874
v 0.84155 0.66791 2.07349
v 0.84486 0.70775 2.06954
v 0.85582 0.74148 2.08840
v 0.97972 0.74218 2.07967
v 0.99366 0.73211 2.11597
v 0.99998 0.70129 2.14095
v 0.99627 0.66150 2.14508
v 0.98393 0.62794 2.12677
v 0.96769 0.61343 2.09301
v 0.95375 0.62350 2.05671
v 0.94743 0.65432 2.03172
v 0.95114 0.69410 2.02760
v 0.96348 0.72767 2.04591
v 1.08683 0.72650 2.03140
v 1.10230 0.71622 2.06702
v 1.10932 0.68530 2.09170
v 1.10520 0.64558 2.09602
v 1.09152 0.61221 2.07832
v 1.07350 0.59794 2.04537
v 1.05803 0.60823 2.00975
v 1.05101 0.63914 1.98507
v 1.05513 0.67887 1.98075
v 1.06881 0.71224 1.99845
v 1.19132 0.70922 1.97819
v 1.20828 0.69870 2.01306
v 1.21598 0.66768 2.03740
v 1.21147 0.62802 2.04193
v 1.19648 0.59486 2.02491
v 1.17673 0.58087 1.99285
v 1.15977 0.59140 1.95798
v 1.15207 0.62241 1.93364
v 1.15658 0.66207 1.92911
v 1.17157 0.69523 1.94613
v 1.29294 0.69037 1.92018
v 1.31135 0.67959 1.95421
v 1.31971 0.64846 1.97819
v 1.31482 0.60887 1.98295
v 1.29855 0.57595 1.96667
v 1.27712 0.56226 1.93557
v 1.25871 0.57304 1.90153
v 1.25035 0.60417 1.87755
v 1.25524 0.64376 1.87280
v 1.27151 0.67669 1.88908
v 1.39144 0.67001 1.85749
v 1.41126 0.65895 1.89063
v 1.42026 0.62769 1.91421
v 1.41501 0.58818 1.91921
v 1.39750 0.55550 1.90373
v 1.37444 0.54214 1.87367
v 1.35462 0.55321 1.84053
v 1.34562 0.58446 1.81695
v 1.35088 0.62397 1.81195
v 1.36838 0.65665 1.82743
v 1.48659 0.64817 1.79028
v 1.50777 0.63681 1.82247
v 1.51739 0.60542 1.84562
v 1.51178 0.56599 1.85088
v 1.49309 0.53358 1.83625
v 1.46845 0.52058 1.80731
v 1.44727 0.53194 1.77512
v 1.43765 0.56333 1.75197
v 1.44326 0.60276 1.74671
v 1.46195 0.63517 1.76134
v 1.57816 0.62492 1.71871
v 1.60064 0.61324 1.74988
v 1.61087 0.58171 1.77257
v 1.60492 0.54236 1.77811
v 1.58508 0.51024 1.76439
v 1.55892 0.49761 1.73664
v 1.53643 0.50930 1.70547
v 1.52621 0.54083 1.68278
v 1.53216 0.58017 1.67724
v 1.55200 0.61229 1.69096
v 1.66592 0.60031 1.64295
v 1.68966 0.58829 1.67305
v 1.70046 0.55660 1.69525
v 1.69419 0.51735 1.70109
v 1.67325 0.48554 1.68833
v 1.64563 0.47330 1.66184
v 1.62189 0.48533 1.63174
v 1.61110 0.51701 1.60953
v 1.61737 0.55626 1.60370
v 1.63831 0.58808 1.61646
v 1.74967 0.57440 1.56319
v 1.77461 0.56202 1.59215
v 1.78595 0.53017 1.61385
v 1.77938 0.49102 1.61999
v 1.75739 0.45952 1.60824
v 1.72839 0.44771 1.58307
v 1.70345 0.46009 1.55411
v 1.69210 0.49194 1.53242
v 1.69868 0.53109 1.52628
v 1.72067 0.56259 1.53803
v 1.82920 0.54725 1.47962
v 1.85528 0.53449 1.50739
v 1.86715 0.50247 1.52855
v 1.86028 0.46342 1.53501
v 1.83730 0.43226 1.52432
v 1.80698 0.42089 1.50054
v 1.78090 0.43365 1.47277
v 1.76903 0.46567 1.45161
v 1.77590 0.50472 1.44515
v 1.79889 0.53588 1.45585
v 1.90433 0.51893 1.39244
v 1.93148 0.50577 1.41897
v 1.94384 0.47358 1.43956
v 1.93670 0.43463 1.44636
v 1.91278 0.40382 1.43677
v 1.88121 0.39291 1.41444
v 1.85407 0.40606 1.38791
v 1.84170 0.43826 1.36732
v 1.84884 0.47720 1.36052
v 1.87277 0.50801 1.37012
v 1.97487 0.48950 1.30186
v 2.00302 0.47594 1.32710
v 2.01586 0.44355 1.34711
v 2.00846 0.40472 1.35425
v 1.98365 0.37427 1.34580
v 1.95092 0.36383 1.32498
v 1.92276 0.37740 1.29974
v 1.90993 0.40978 1.27973
v 1.91733 0.44861 1.27259
v 1.94213 0.47907 1.28104
v 2.04064 0.45904 1.20810
v 2.06974 0.44505 1.23200
v 2.08301 0.41248 1.25140
v 2.07537 0.37376 1.25891
v 2.04975 0.34368 1.25164
v 2.01593 0.33374 1.23237
v 1.98683 0.34773 1.20847
v 1.97356 0.38031 1.18907
v 1.98120 0.41902 1.18157
v 2.00682 0.44910 1.18883
v 2.10150 0.42762 1.11138
v 2.13148 0.41319 1.13390
v 2.14515 0.38042 1.15268
v 2.13729 0.34181 1.16055
v 2.11091 0.31213 1.15450
v 2.07608 0.30270 1.13684
v 2.04611 0.31712 1.11432
v 2.03244 0.34990 1.09554
v 2.04029 0.38850 1.08767
v 2.06667 0.41819 1.09372
v 2.15730 0.39531 1.01194
v 2.18807 0.38043 1.03304
v 2.20212 0.34745 1.05118
v 2.19406 0.30897 1.05942
v 2.16699 0.27968 1.05463
v 2.13123 0.27078 1.03862
v 2.10046 0.28566 1.01752
v 2.08641 0.31864 0.99938
v 2.09447 0.35712 0.99114
v 2.12154 0.38641 0.99593
v 2.20790 0.36220 0.91001
v 2.23940 0.34686 0.92966
v 2.25378 0.31367 0.94713
v 2.24555 0.27531 0.95577
v 2.21784 0.24643 0.95226
v 2.18125 0.23806 0.93794
v 2.14975 0.25340 0.91830
v 2.13537 0.28659 0.90082
v 2.14360 0.32495 0.89219
v 2.17131 0.35383 0.89570
v 2.25318 0.32836 0.80585
v 2.28533 0.31254 0.82401
v 2.30002 0.27914 0.84081
v 2.29162 0.24090 0.84983
v 2.26336 0.21244 0.84763
v 2.22601 0.20463 0.83505
v 2.19386 0.22044 0.81689
v 2.17917 0.25385 0.80009
v 2.18757 0.29208 0.79107
v 2.21583 0.32054 0.79327
v 2.29303 0.29387 0.69970
v 2.32575 0.27757 0.71634
v 2.34071 0.24395 0.73245
v 2.33218 0.20584 0.74188
v 2.30342 0.17781 0.74101
v 2.26541 0.17055 0.73019
v 2.23269 0.18685 0.71355
v 2.21773 0.22048 0.69744
v 2.22626 0.25858 0.68802
v 2.25502 0.28662 0.68888
v 2.32735 0.25882 0.59182
v 2.36057 0.24203 0.60692
v 2.37576 0.20818 0.62233
v 2.36711 0.17021 0.63216
v 2.33793 0.14260 0.63265
v 2.29936 0.13592 0.62362
v 2.26613 0.15271 0.60852
v 2.25095 0.18656 0.59311
v 2.25960 0.22454 0.58328
v 2.28878 0.25214 0.58279
v 2.35607 0.22330 0.48247
v 2.38971 0.20601 0.49601
v 2.40509 0.17193 0.51070
v 2.39635 0.13408 0.52094
v 2.36681 0.10692 0.52281
v 2.32776 0.10082 0.51560
v 2.29412 0.11811 0.50206
v 2.27874 0.15218 0.48736
v 2.28749 0.19003 0.47712
v 2.31702 0.21719 0.47525
v 2.37911 0.18738 0.37191
v 2.41308 0.16959 0.38387
v 2.42863 0.13528 0.39784
v 2.41981 0.09756 0.40849
v 2.38999 0.07084 0.41175
v 2.35056 0.06532 0.40637
v 2.31659 0.08312 0.39441
v 2.30104 0.11742 0.38044
v 2.30986 0.15514 0.36979
v 2.33968 0.18186 0.36653
v 2.39642 0.15115 0.26041
v 2.43065 0.13285 0.27077
v 2.44631 0.09831 0.28402
v 2.43744 0.06073 0.29508
v 2.40741 0.03446 0.29974
v 2.36769 0.02953 0.29621
v 2.33347 0.04783 0.28585
v 2.31780 0.08237 0.27260
v 2.32668 0.11995 0.26154
v 2.35671 0.14623 0.25688
v 2.40796 0.11471 0.14823
v 2.44235 0.09590 0.15699
v 2.45810 0.06112 0.16950
v 2.44920 0.02367 0.18099
v 2.41903 -0.00215 0.18705
v 2.37912 -0.00648 0.18539
v 2.34473 0.01233 0.17663
v 2.32898 0.04710 0.16412
v 2.33788 0.08455 0.15264
v 2.36805 0.11038 0.14657
v 2.41369 0.07814 0.03566
v 2.44817 0.05881 0.04281
v 2.46397 0.02380 0.05458
v 2.45505 -0.01352 0.06648
v 2.42482 -0.03889 0.07396
v 2.38482 -0.04263 0.07417
v 2.35034 -0.02330 0.06702
v 2.33454 0.01171 0.05524
v 2.34346 0.04902 0.04334
v 2.37369 0.07440 0.03586
v 2.41361 0.04152 -0.07705
v 2.44810 0.02168 -0.07151
v 2.46391 -0.01357 -0.06048
v 2.45500 -0.05075 -0.04816
v 2.42477 -0.07567 -0.03927
v 2.38478 -0.07881 -0.03719
v 2.35029 -0.05897 -0.04273
v 2.33448 -0.02373 -0.05376
v 2.34339 0.01346 -0.06608
v 2.37361 0.03838 -0.07498
v 2.40772 0.00495 -0.18962
v 2.44213 -0.01541 -0.18569
v 2.45791 -0.05089 -0.17540
v 2.44903 -0.08794 -0.16266
v 2.41888 -0.11241 -0.15236
v 2.37899 -0.11496 -0.14841
v 2.34458 -0.09460 -0.15234
v 2.32880 -0.05912 -0.16263
v 2.33767 -0.02207 -0.17537
v 2.36782 0.00240 -0.18567
v 2.39602 -0.03149 -0.30177
v 2.43027 -0.05236 -0.29945
v 2.44598 -0.08807 -0.28990
v 2.43716 -0.12499 -0.27675
v 2.40717 -0.14902 -0.26504
v 2.36746 -0.15097 -0.25923
v 2.33321 -0.13010 -0.26155
v 2.31750 -0.09438 -0.27111
v 2.32633 -0.05746 -0.28426
v 2.35632 -0.03344 -0.29597
v 2.37855 -0.06771 -0.41325
v 2.41256 -0.08908 -0.41252
v 2.42817 -0.12503 -0.40370
v 2.41941 -0.16182 -0.39015
v 2.38965 -0.18540 -0.37704
v 2.35024 -0.18676 -0.36938
v 2.31623 -0.16538 -0.37010
v 2.30062 -0.12943 -0.37893
v 2.30937 -0.09264 -0.39248
v 2.33914 -0.06907 -0.40559
v 2.35536 -0.10361 -0.52377
v 2.38903 -0.12550 -0.52463
v 2.40450 -0.16168 -0.51654
v 2.39584 -0.19834 -0.50258
v 2.36637 -0.22147 -0.48808
v 2.32735 -0.22225 -0.47859
v 2.29367 -0.20037 -0.47773
v 2.27820 -0.16419 -0.48583
v 2.28686 -0.12753 -0.49979
v 2.31633 -0.10439 -0.51428
v 2.32648 -0.13913 -0.63308
v 2.35976 -0.16151 -0.63551
v 2.37504 -0.19792 -0.62813
v 2.36650 -0.23445 -0.61377
v 2.33740 -0.25715 -0.59791
v 2.29885 -0.25735 -0.58661
v 2.26558 -0.23497 -0.58418
v 2.25029 -0.19856 -0.59155
v 2.25883 -0.16202 -0.60591
v 2.28794 -0.13932 -0.62177
v 2.29201 -0.17416 -0.74091
v 2.32479 -0.19703 -0.74488
v 2.33986 -0.23367 -0.73822
v 2.33146 -0.27008 -0.72347
v 2.30279 -0.29235 -0.70625
v 2.26481 -0.29198 -0.69316
v 2.23203 -0.26910 -0.68919
v 2.21696 -0.23246 -0.69585
v 2.22537 -0.19605 -0.71060
v 2.25403 -0.17378 -0.72781
v 2.25201 -0.20862 -0.84699
v 2.28423 -0.23198 -0.85249
v 2.29904 -0.26885 -0.84653
v 2.29079 -0.30513 -0.83139
v 2.26264 -0.32698 -0.81285
v 2.22532 -0.32604 -0.79800
v 2.19311 -0.30268 -0.79250
v 2.17829 -0.26582 -0.79846
v 2.18654 -0.22954 -0.81360
v 2.21470 -0.20769 -0.83214
v 2.20659 -0.24244 -0.95109
v 2.23816 -0.26628 -0.95808
v 2.25269 -0.30336 -0.95281
v 2.24461 -0.33952 -0.93729
v 2.21703 -0.36096 -0.91745
v 2.18047 -0.35947 -0.90087
v 2.14890 -0.33563 -0.89388
v 2.13437 -0.29855 -0.89915
v 2.14245 -0.26239 -0.91467
v 2.17003 -0.24096 -0.93450
v 2.15585 -0.27553 -1.05293
v 2.18670 -0.29983 -1.06139
v 2.20090 -0.33713 -1.05679
v 2.19302 -0.37318 -1.04091
v 2.16608 -0.39420 -1.01980
v 2.13036 -0.39218 -1.00152
v 2.09951 -0.36788 -0.99307
v 2.08531 -0.33058 -0.99766
v 2.09319 -0.29453 -1.01355
v 2.12013 -0.27351 -1.03466
v 2.09992 -0.30781 -1.15229
v 2.12998 -0.33257 -1.16217
v 2.14382 -0.37007 -1.15824
v 2.13615 -0.40601 -1.14199
v 2.10991 -0.42664 -1.11964
v 2.07512 -0.42409 -1.09972
v 2.04507 -0.39933 -1.08984
v 2.03123 -0.36182 -1.09377
v 2.03889 -0.32589 -1.11002
v 2.06513 -0.30526 -1.13237
v 2.03893 -0.33920 -1.24892
v 2.06812 -0.36440 -1.26019
v 2.08157 -0.40211 -1.25689
v 2.07413 -0.43793 -1.24030
v 2.04866 -0.45818 -1.21674
v 2.01488 -0.45512 -1.19522
v 1.98569 -0.42992 -1.18395
v 1.97225 -0.39221 -1.18724
v 1.97968 -0.35639 -1.20383
v 2.00515 -0.33614 -1.22739
v 1.97304 -0.36963 -1.34258
v 2.00128 -0.39526 -1.35519
v 2.01430 -0.43317 -1.35253
v 2.00712 -0.46888 -1.33560
v 1.98247 -0.48876 -1.31087
v 1.94979 -0.48520 -1.28779
v 1.92154 -0.45958 -1.27517
v 1.90852 -0.42167 -1.27784
v 1.91570 -0.38595 -1.29477
v 1.94035 -0.36608 -1.31950
v 1.90238 -0.39902 -1.43305
v 1.92962 -0.42506 -1.44697
v 1.94218 -0.46317 -1.44491
v 1.93526 -0.49878 -1.42765
v 1.91151 -0.51830 -1.40180
v 1.87999 -0.51426 -1.37721
v 1.85275 -0.48822 -1.36330
v 1.84019 -0.45012 -1.36536
v 1.84711 -0.41451 -1.38262
v 1.87087 -0.39499 -1.40847
v 1.82715 -0.42731 -1.52012
v 1.85332 -0.45375 -1.53529
v 1.86539 -0.49203 -1.53381
v 1.85875 -0.52755 -1.51624
v 1.83594 -0.54672 -1.48930
v 1.80567 -0.54223 -1.46328
v 1.77950 -0.51579 -1.44811
v 1.76743 -0.47751 -1.44959
v 1.77407 -0.44199 -1.46715
v 1.79688 -0.42282 -1.49409
v 1.74751 -0.45442 -1.60357
v 1.77255 -0.48124 -1.61994
v 1.78410 -0.51970 -1.61902
v 1.77775 -0.55512 -1.60116
v 1.75594 -0.57397 -1.57318
v 1.72699 -0.56904 -1.54576
v 1.70196 -0.54222 -1.52939
v 1.69041 -0.50375 -1.53032
v 1.69675 -0.46834 -1.54818
v 1.71856 -0.44949 -1.57616
v 1.66367 -0.48029 -1.68321
v 1.68750 -0.50747 -1.70072
v 1.69851 -0.54611 -1.70034
v 1.69248 -0.58144 -1.68219
v 1.67172 -0.59997 -1.65322
v 1.64416 -0.59462 -1.62448
v 1.62032 -0.56744 -1.60697
v 1.60932 -0.52880 -1.60735
v 1.61535 -0.49347 -1.62550
v 1.63611 -0.47494 -1.65447
v 1.57582 -0.50486 -1.75883
v 1.59840 -0.53239 -1.77744
v 1.60883 -0.57118 -1.77756
v 1.60312 -0.60643 -1.75915
v 1.58346 -0.62466 -1.72923
v 1.55736 -0.61891 -1.69924
v 1.53478 -0.59139 -1.68063
v 1.52435 -0.55259 -1.68051
v 1.53005 -0.51735 -1.69893
v 1.54971 -0.49911 -1.72884
v 1.48417 -0.52807 -1.83026
v 1.50544 -0.55592 -1.84990
v 1.51527 -0.59486 -1.85050
v 1.50990 -0.63003 -1.83184
v 1.49139 -0.64798 -1.80104
v 1.46680 -0.64186 -1.76986
v 1.44553 -0.61401 -1.75022
v 1.43571 -0.57506 -1.74962
v 1.44107 -0.53990 -1.76829
v 1.45959 -0.52195 -1.79909
v 1.38895 -0.54985 -1.89734
v 1.40886 -0.57801 -1.91794
v 1.41806 -0.61710 -1.91900
v 1.41305 -0.65219 -1.90009
v 1.39573 -0.66988 -1.86846
v 1.37272 -0.66341 -1.83617
v 1.35281 -0.63525 -1.81556
v 1.34361 -0.59616 -1.81451
v 1.34862 -0.56107 -1.83341
v 1.36594 -0.54338 -1.86505
v 1.29039 -0.57017 -1.95988
v 1.30889 -0.59861 -1.98139
v 1.31744 -0.63784 -1.98287
v 1.31279 -0.67286 -1.96375
v 1.29670 -0.69030 -1.93133
v 1.27532 -0.68351 -1.89801
v 1.25682 -0.65507 -1.87650
v 1.24827 -0.61584 -1.87502
v 1.25292 -0.58082 -1.89414
v 1.26901 -0.56338 -1.92655
v 1.18872 -0.58897 -2.01775
v 1.20576 -0.61768 -2.04010
v 1.21364 -0.65702 -2.04197
v 1.20936 -0.69198 -2.02265
v 1.19454 -0.70920 -1.98951
v 1.17485 -0.70210 -1.95523
v 1.15781 -0.67340 -1.93288
v 1.14992 -0.63405 -1.93101
v 1.15421 -0.59909 -1.95033
v 1.16902 -0.58187 -1.98346
v 1.08418 -0.60621 -2.07081
v 1.09973 -0.63515 -2.09392
v 1.10692 -0.67461 -2.09615
v 1.10302 -0.70951 -2.07665
v 1.08951 -0.72653 -2.04286
v 1.07155 -0.71915 -2.00769
v 1.05600 -0.69021 -1.98457
v 1.04881 -0.65075 -1.98234
v 1.05271 -0.61585 -2.00185
v 1.06622 -0.59883 -2.03564
v 0.97704 -0.62184 -2.11892
v 0.99105 -0.65100 -2.14273
v 0.99754 -0.69056 -2.14529
v 0.99402 -0.72541 -2.12562
v 0.98185 -0.74224 -2.09124
v 0.96567 -0.73461 -2.05527
v 0.95165 -0.70545 -2.03145
v 0.94516 -0.66589 -2.02889
v 0.94868 -0.63104 -2.04856
v 0.96085 -0.61421 -2.08295
v 0.86754 -0.63582 -2.16197
v 0.87998 -0.66518 -2.18641
v 0.88575 -0.70483 -2.18927
v 0.88263 -0.73964 -2.16945
v 0.87182 -0.75630 -2.13453
v 0.85745 -0.74845 -2.09785
v 0.84501 -0.71910 -2.07341
v 0.83924 -0.67944 -2.07055
v 0.84236 -0.64464 -2.09037
v 0.85317 -0.62798 -2.12529
v 0.75595 -0.64813 -2.19987
v 0.76680 -0.67766 -2.22486
v 0.77182 -0.71739 -2.22797
v 0.76911 -0.75216 -2.20803
v 0.75970 -0.76867 -2.17264
v 0.74717 -0.76064 -2.13533
v 0.73633 -0.73111 -2.11034
v 0.73130 -0.69138 -2.10722
v 0.73401 -0.65661 -2.12716
v 0.74343 -0.64009 -2.16255
v 0.64254 -0.65873 -2.23251
v 0.65176 -0.68840 -2.25797
v 0.65604 -0.72821 -2.26132
v 0.65374 -0.76294 -2.24126
v 0.64574 -0.77933 -2.20547
v 0.63509 -0.77113 -2.16761
v 0.62587 -0.74146 -2.14215
v 0.62160 -0.70166 -2.13881
v 0.62390 -0.66692 -2.15886
v 0.63190 -0.65053 -2.19465
v 0.52759 -0.66760 -2.25981
v 0.53516 -0.69739 -2.28568
v 0.53868 -0.73725 -2.28921
v 0.53679 -0.77196 -2.26907
v 0.53022 -0.78825 -2.23294
v 0.52148 -0.77991 -2.19463
v 0.51391 -0.75012 -2.16877
v 0.51039 -0.71026 -2.16523
v 0.51228 -0.67555 -2.18538
v 0.51885 -0.65926 -2.22150
v 0.41137 -0.67472 -2.28173
v 0.41727 -0.70460 -2.30791
v 0.42001 -0.74451 -2.31160
v 0.41854 -0.77920 -2.29139
v 0.41342 -0.79541 -2.25499
v 0.40661 -0.78696 -2.21632
v 0.40070 -0.75707 -2.19013
v 0.39796 -0.71717 -2.18644
v 0.39943 -0.68248 -2.20665
v 0.40455 -0.66627 -2.24305
v 0.29416 -0.68006 -2.29819
v 0.29838 -0.71002 -2.32462
v 0.30034 -0.74996 -2.32843
v 0.29929 -0.78463 -2.30816
v 0.29563 -0.80079 -2.27157
v 0.29076 -0.79226 -2.23261
v 0.28653 -0.76230 -2.20618
v 0.28457 -0.72236 -2.20237
v 0.28562 -0.68769 -2.22264
v 0.28928 -0.67153 -2.25923
v 0.17624 -0.68362 -2.30916
v 0.17877 -0.71362 -2.33575
v 0.17994 -0.75359 -2.33965
v 0.17931 -0.78825 -2.31935
v 0.17712 -0.80438 -2.28262
v 0.17420 -0.79580 -2.24349
v 0.17167 -0.76580 -2.21689
v 0.17050 -0.72583 -2.21300
v 0.17112 -0.69117 -2.23329
v 0.17332 -0.67504 -2.27002
v 0.05789 -0.68539 -2.31461
v 0.05873 -0.71541 -2.34129
v 0.05911 -0.75539 -2.34523
v 0.05891 -0.79005 -2.32493
v 0.05819 -0.80616 -2.28814
v 0.05723 -0.79756 -2.24891
v 0.05639 -0.76754 -2.22223
v 0.05601 -0.72757 -2.21828
v 0.05621 -0.69290 -2.23859
v 0.05693 -0.67679 -2.27538
v -0.06059 -0.68536 -2.31454
v -0.06146 -0.71538 -2.34122
v -0.06186 -0.75535 -2.34518
v -0.06164 -0.79002 -2.32488
v -0.06089 -0.80614 -2.28809
v -0.05989 -0.79755 -2.24886
v -0.05902 -0.76754 -2.22217
v -0.05862 -0.72756 -2.21822
v -0.05883 -0.69289 -2.23852
v -0.05958 -0.67678 -2.27531
v -0.17892 -0.68354 -2.30893
v -0.18149 -0.71352 -2.33555
v -0.18268 -0.75348 -2.33947
v -0.18205 -0.78816 -2.31921
v -0.17982 -0.80431 -2.28249
v -0.17686 -0.79576 -2.24335
v -0.17429 -0.76578 -2.21673
v -0.17310 -0.72582 -2.21281
v -0.17373 -0.69114 -2.23308
v -0.17596 -0.67499 -2.26979
v -0.29682 -0.67992 -2.29781
v -0.30108 -0.70984 -2.32428
v -0.30307 -0.74978 -2.32814
v -0.30201 -0.78448 -2.30792
v -0.29832 -0.80068 -2.27135
v -0.29341 -0.79221 -2.23239
v -0.28915 -0.76228 -2.20592
v -0.28716 -0.72235 -2.20206
v -0.28822 -0.68765 -2.22228
v -0.29191 -0.67144 -2.25886
v -0.41400 -0.67452 -2.28121
v -0.41995 -0.70436 -2.30744
v -0.42272 -0.74426 -2.31120
v -0.42125 -0.77898 -2.29105
v -0.41611 -0.79526 -2.25468
v -0.40925 -0.78688 -2.21600
v -0.40331 -0.75705 -2.18977
v -0.40054 -0.71715 -2.18601
v -0.40201 -0.68242 -2.20616
v -0.40715 -0.66614 -2.24252
v -0.53019 -0.66735 -2.25915
v -0.53781 -0.69708 -2.28507
v -0.54136 -0.73693 -2.28870
v -0.53948 -0.77168 -2.26863
v -0.53289 -0.78806 -2.23255
v -0.52411 -0.77981 -2.19422
v -0.51649 -0.75008 -2.16830
v -0.51295 -0.71023 -2.16468
v -0.51482 -0.67548 -2.18474
v -0.52141 -0.65910 -2.22083
v -0.64510 -0.65843 -2.23170
v -0.65437 -0.68802 -2.25724
v -0.65869 -0.72781 -2.26068
v -0.65640 -0.76260 -2.24073
v -0.64839 -0.77910 -2.20498
v -0.63771 -0.77101 -2.16711
v -0.62844 -0.74141 -2.14158
v -0.62412 -0.70162 -2.13813
v -0.62640 -0.66684 -2.15809
v -0.63441 -0.65034 -2.19383
v -0.75845 -0.64777 -2.19892
v -0.76935 -0.67721 -2.22399
v -0.77443 -0.71693 -2.22723
v -0.77175 -0.75176 -2.20740
v -0.76233 -0.76840 -2.17207
v -0.74977 -0.76049 -2.13474
v -0.73887 -0.73106 -2.10966
v -0.73379 -0.69134 -2.10643
v -0.73647 -0.65651 -2.12626
v -0.74589 -0.63987 -2.16159
v -0.86997 -0.63541 -2.16089
v -0.88248 -0.66466 -2.18542
v -0.88831 -0.70430 -2.18842
v -0.88524 -0.73918 -2.16872
v -0.87444 -0.75598 -2.13387
v -0.86003 -0.74829 -2.09717
v -0.84752 -0.71904 -2.07263
v -0.84169 -0.67940 -2.06964
v -0.84476 -0.64453 -2.08933
v -0.85557 -0.62772 -2.12419
v -0.97940 -0.62138 -2.11770
v -0.99348 -0.65042 -2.14162
v -1.00005 -0.68996 -2.14433
v -0.99659 -0.72489 -2.12480
v -0.98444 -0.74188 -2.09049
v -0.96822 -0.73443 -2.05450
v -0.95414 -0.70539 -2.03058
v -0.94757 -0.66585 -2.02787
v -0.95102 -0.63091 -2.04740
v -0.96318 -0.61393 -2.08171
v -1.08646 -0.60570 -2.06946
v -1.10208 -0.63451 -2.09269
v -1.10938 -0.67394 -2.09509
v -1.10555 -0.70893 -2.07574
v -1.09207 -0.72612 -2.04203
v -1.07408 -0.71894 -2.00683
v -1.05845 -0.69013 -1.98360
v -1.05116 -0.65070 -1.98120
v -1.05499 -0.61571 -2.00055
v -1.06847 -0.59852 -2.03427
v -1.19091 -0.58842 -2.01628
v -1.20804 -0.61697 -2.03876
v -1.21603 -0.65629 -2.04081
v -1.21184 -0.69134 -2.02165
v -1.19707 -0.70876 -1.98860
v -1.17735 -0.70187 -1.95428
v -1.16022 -0.67332 -1.93181
v -1.15222 -0.63400 -1.92976
v -1.15641 -0.59894 -1.94892
v -1.17119 -0.58153 -1.98197
v -1.29248 -0.56957 -1.95829
v -1.31108 -0.59785 -1.97994
v -1.31976 -0.63703 -1.98161
v -1.31522 -0.67216 -1.96266
v -1.29918 -0.68982 -1.93033
v -1.27778 -0.68326 -1.89698
v -1.25919 -0.65498 -1.87533
v -1.25051 -0.61579 -1.87366
v -1.25505 -0.58066 -1.89261
v -1.27108 -0.56301 -1.92493
v -1.39094 -0.54921 -1.89563
v -1.41096 -0.57718 -1.91639
v -1.42031 -0.61623 -1.91764
v -1.41542 -0.65144 -1.89892
v -1.39817 -0.66936 -1.86737
v -1.37514 -0.66314 -1.83505
v -1.35513 -0.63516 -1.81430
v -1.34578 -0.59612 -1.81304
v -1.35066 -0.56091 -1.83176
v -1.36791 -0.54299 -1.86331
v -1.48605 -0.52738 -1.82845
v -1.50744 -0.55503 -1.84825
v -1.51743 -0.59393 -1.84906
v -1.51222 -0.62922 -1.83058
v -1.49380 -0.64742 -1.79987
v -1.46919 -0.64157 -1.76866
v -1.44781 -0.61392 -1.74886
v -1.43781 -0.57502 -1.74805
v -1.44302 -0.53973 -1.76653
v -1.46145 -0.52153 -1.79724
v -1.57758 -0.50413 -1.75692
v -1.60029 -0.53144 -1.77569
v -1.61090 -0.57019 -1.77603
v -1.60538 -0.60556 -1.75781
v -1.58582 -0.62405 -1.72799
v -1.55970 -0.61860 -1.69795
v -1.53700 -0.59129 -1.67918
v -1.52638 -0.55255 -1.67884
v -1.53191 -0.51717 -1.69707
v -1.55146 -0.49868 -1.72689
v -1.66531 -0.47952 -1.68120
v -1.68928 -0.50648 -1.69889
v -1.70049 -0.54505 -1.69872
v -1.69467 -0.58052 -1.68077
v -1.67403 -0.59932 -1.65189
v -1.64645 -0.59429 -1.62311
v -1.62248 -0.56734 -1.60543
v -1.61127 -0.52876 -1.60559
v -1.61710 -0.49330 -1.62354
v -1.63774 -0.47449 -1.65242
v -1.74902 -0.45362 -1.60148
v -1.77420 -0.48019 -1.61802
v -1.78598 -0.51859 -1.61733
v -1.77987 -0.55415 -1.59966
v -1.75820 -0.57328 -1.57177
v -1.72924 -0.56869 -1.54431
v -1.70406 -0.54211 -1.52777
v -1.69228 -0.50372 -1.52846
v -1.69839 -0.46816 -1.54612
v -1.72006 -0.44902 -1.57401
v -1.82852 -0.42647 -1.51795
v -1.85485 -0.45265 -1.53329
v -1.86717 -0.49086 -1.53205
v -1.86079 -0.52652 -1.51468
v -1.83814 -0.54600 -1.48782
v -1.80787 -0.54186 -1.46174
v -1.78154 -0.51569 -1.44639
v -1.76921 -0.47747 -1.44764
v -1.77559 -0.44182 -1.46501
v -1.79825 -0.42234 -1.49186
v -1.90361 -0.39816 -1.43080
v -1.93103 -0.42392 -1.44490
v -1.94387 -0.46194 -1.44308
v -1.93723 -0.49770 -1.42602
v -1.91365 -0.51754 -1.40024
v -1.88214 -0.51388 -1.37560
v -1.85472 -0.48812 -1.36150
v -1.84188 -0.45010 -1.36333
v -1.84852 -0.41434 -1.38039
v -1.87210 -0.39450 -1.40616
v -1.97412 -0.36873 -1.34027
v -2.00255 -0.39406 -1.35307
v -2.01588 -0.43188 -1.35063
v -2.00900 -0.46775 -1.33389
v -1.98455 -0.48796 -1.30924
v -1.95187 -0.48480 -1.28610
v -1.92344 -0.45947 -1.27330
v -1.91012 -0.42165 -1.27573
v -1.91699 -0.38578 -1.29247
v -1.94144 -0.36557 -1.31712
v -2.03987 -0.33828 -1.24655
v -2.06925 -0.36316 -1.25800
v -2.08303 -0.40077 -1.25494
v -2.07593 -0.43675 -1.23853
v -2.05068 -0.45735 -1.21505
v -2.01691 -0.45470 -1.19345
v -1.98752 -0.42982 -1.18199
v -1.97375 -0.39220 -1.18505
v -1.98084 -0.35623 -1.20146
v -2.00610 -0.33563 -1.22495
v -2.10070 -0.30686 -1.14987
v -2.13097 -0.33129 -1.15994
v -2.14516 -0.36868 -1.15623
v -2.13786 -0.40477 -1.14016
v -2.11186 -0.42577 -1.11787
v -2.07709 -0.42365 -1.09787
v -2.04682 -0.39923 -1.08781
v -2.03263 -0.36183 -1.09151
v -2.03993 -0.32574 -1.10758
v -2.06593 -0.30475 -1.12987
v -2.15648 -0.27456 -1.05047
v -2.18755 -0.29851 -1.05912
v -2.20213 -0.33569 -1.05474
v -2.19465 -0.37190 -1.03902
v -2.16796 -0.39330 -1.01796
v -2.13226 -0.39172 -0.99961
v -2.10119 -0.36777 -0.99096
v -2.08661 -0.33060 -0.99534
v -2.09409 -0.29439 -1.01106
v -2.12078 -0.27299 -1.03212
v -2.20706 -0.24146 -0.94859
v -2.23886 -0.26492 -0.95577
v -2.25379 -0.30188 -0.95072
v -2.24614 -0.33820 -0.93535
v -2.21883 -0.36002 -0.91555
v -2.18230 -0.35900 -0.89888
v -2.15049 -0.33553 -0.89170
v -2.13556 -0.29858 -0.89676
v -2.14321 -0.26226 -0.91212
v -2.17052 -0.24044 -0.93192
v -2.25232 -0.20763 -0.84448
v -2.28478 -0.23060 -0.85016
v -2.30002 -0.26732 -0.84440
v -2.29222 -0.30376 -0.82941
v -2.26436 -0.32600 -0.81089
v -2.22708 -0.32556 -0.79594
v -2.19462 -0.30258 -0.79026
v -2.17937 -0.26587 -0.79602
v -2.18717 -0.22942 -0.81102
v -2.21503 -0.20718 -0.82953
v -2.29215 -0.17315 -0.73838
v -2.32519 -0.19561 -0.74253
v -2.34071 -0.23210 -0.73606
v -2.33279 -0.26866 -0.72143
v -2.30444 -0.29134 -0.70424
v -2.26650 -0.29147 -0.69104
v -2.23345 -0.26901 -0.68688
v -2.21793 -0.23252 -0.69335
v -2.22586 -0.19596 -0.70798
v -2.25421 -0.17328 -0.72518
v -2.32646 -0.13811 -0.63055
v -2.36000 -0.16006 -0.63315
v -2.37577 -0.19630 -0.62595
v -2.36773 -0.23299 -0.61170
v -2.33896 -0.25611 -0.59583
v -2.30045 -0.25683 -0.58442
v -2.26691 -0.23488 -0.58181
v -2.25115 -0.19864 -0.58901
v -2.25919 -0.16195 -0.60326
v -2.28795 -0.13883 -0.61913
v -2.35517 -0.10259 -0.52124
v -2.38913 -0.12402 -0.52228
v -2.40510 -0.16002 -0.51434
v -2.39697 -0.19684 -0.50047
v -2.36785 -0.22040 -0.48595
v -2.32887 -0.22172 -0.47634
v -2.29491 -0.20029 -0.47531
v -2.27894 -0.16429 -0.48324
v -2.28707 -0.12748 -0.49712
v -2.31618 -0.10391 -0.51163
v -2.37820 -0.06668 -0.41073
v -2.41250 -0.08759 -0.41018
v -2.42863 -0.12334 -0.40149
v -2.42043 -0.16028 -0.38800
v -2.39104 -0.18430 -0.37485
v -2.35167 -0.18622 -0.36707
v -2.31738 -0.16531 -0.36762
v -2.30125 -0.12956 -0.37631
v -2.30944 -0.09262 -0.38980
v -2.33884 -0.06860 -0.40295
v -2.39550 -0.03046 -0.29928
v -2.43006 -0.05084 -0.29712
v -2.44631 -0.08634 -0.28769
v -2.43807 -0.12341 -0.27458
v -2.40847 -0.14788 -0.26280
v -2.36882 -0.15041 -0.25686
v -2.33426 -0.13004 -0.25902
v -2.31800 -0.09453 -0.26846
v -2.32625 -0.05747 -0.28157
v -2.35585 -0.03299 -0.29334
v -2.40704 0.00597 -0.18716
v -2.44176 -0.01387 -0.18338
v -2.45810 -0.04912 -0.17319
v -2.44983 -0.08632 -0.16047
v -2.42009 -0.11125 -0.15008
v -2.38025 -0.11439 -0.14599
v -2.34553 -0.09455 -0.14976
v -2.32918 -0.05930 -0.15996
v -2.33746 -0.02210 -0.17268
v -2.36720 0.00283 -0.18307
v -2.41277 0.04254 -0.07463
v -2.44758 0.02323 -0.06924
v -2.46397 -0.01177 -0.05828
v -2.45569 -0.04909 -0.04594
v -2.42588 -0.07448 -0.03694
v -2.38595 -0.07824 -0.03471
v -2.35114 -0.05893 -0.04011
v -2.33475 -0.02393 -0.05107
v -2.34303 0.01339 -0.06340
v -2.37284 0.03878 -0.07240
v -2.41269 0.07914 0.03803
v -2.44751 0.06037 0.04504
v -2.46391 0.02562 0.05677
v -2.45563 -0.01183 0.06872
v -2.42584 -0.03767 0.07633
v -2.38590 -0.04205 0.07670
v -2.35109 -0.02327 0.06968
v -2.33469 0.01147 0.05796
v -2.34296 0.04892 0.04601
v -2.37276 0.07477 0.03839
v -2.40680 0.11571 0.15054
v -2.44153 0.09747 0.15918
v -2.45791 0.06298 0.17167
v -2.44966 0.02540 0.18323
v -2.41994 -0.00091 0.18946
v -2.38011 -0.00589 0.18797
v -2.34537 0.01234 0.17933
v -2.32900 0.04684 0.16684
v -2.33725 0.08441 0.15528
v -2.36697 0.11072 0.14905
v -2.39511 0.15214 0.26265
v -2.42968 0.13443 0.27290
v -2.44598 0.10019 0.28615
v -2.43778 0.06249 0.29734
v -2.40822 0.03572 0.30218
v -2.36858 0.03013 0.29884
v -2.33401 0.04783 0.28858
v -2.31771 0.08207 0.27533
v -2.32590 0.11977 0.26415
v -2.35547 0.14654 0.25930
v -2.37765 0.18834 0.37407
v -2.41198 0.17117 0.38593
v -2.42817 0.13718 0.39994
v -2.42004 0.09935 0.41075
v -2.39069 0.07213 0.41422
v -2.35134 0.06593 0.40903
v -2.31702 0.08310 0.39717
v -2.30083 0.11709 0.38316
v -2.30896 0.15492 0.37236
v -2.33830 0.18214 0.36889
v -2.35446 0.22424 0.48455
v -2.38846 0.20760 0.49800
v -2.40450 0.17385 0.51276
v -2.39646 0.13590 0.52319
v -2.36741 0.10824 0.52530
v -2.32844 0.10142 0.51829
v -2.29445 0.11807 0.50484
v -2.27841 0.15181 0.49008
v -2.28645 0.18977 0.47965
v -2.31550 0.21743 0.47754
v -2.32561 0.25975 0.59381
v -2.35919 0.24362 0.60884
v -2.37504 0.21012 0.62434
v -2.36711 0.17205 0.63440
v -2.33842 0.14394 0.63517
v -2.29993 0.13653 0.62636
v -2.26635 0.15266 0.61132
v -2.25050 0.18615 0.59582
v -2.25843 0.22423 0.58576
v -2.28712 0.25234 0.58499
v -2.29115 0.29477 0.70159
v -2.32424 0.27916 0.71817
v -2.33986 0.24591 0.73442
v -2.33206 0.20771 0.74411
v -2.30380 0.17916 0.74355
v -2.26588 0.17117 0.73296
v -2.23279 0.18678 0.71637
v -2.21717 0.22003 0.70013
v -2.22497 0.25823 0.69043
v -2.25323 0.28677 0.69099
v -2.25117 0.32923 0.80763
v -2.28369 0.31412 0.82575
v -2.29905 0.28111 0.84271
v -2.29139 0.24280 0.85205
v -2.26363 0.21382 0.85019
v -2.22637 0.20524 0.83784
v -2.19386 0.22035 0.81972
v -2.17849 0.25336 0.80276
v -2.18615 0.29167 0.79342
v -2.21391 0.32065 0.79528
v -2.20577 0.36304 0.91168
v -2.23763 0.34843 0.93130
v -2.25269 0.31565 0.94898
v -2.24519 0.27722 0.95796
v -2.21800 0.24782 0.95482
v -2.18150 0.23868 0.94076
v -2.14963 0.25328 0.92114
v -2.13457 0.28606 0.90346
v -2.14207 0.32449 0.89447
v -2.16926 0.35389 0.89761
v -2.15505 0.39612 1.01348
v -2.18619 0.38200 1.03457
v -2.20091 0.34945 1.05295
v -2.19359 0.31091 1.06159
v -2.16703 0.28109 1.05720
v -2.13137 0.27139 1.04146
v -2.10023 0.28551 1.02037
v -2.08551 0.31806 1.00199
v -2.09283 0.35660 0.99334
v -2.11939 0.38642 0.99773
v -2.09915 0.42839 1.11279
v -2.12948 0.41475 1.13532
v -2.14383 0.38242 1.15438
v -2.13671 0.34377 1.16269
v -2.11084 0.31355 1.15708
v -2.07611 0.30331 1.13969
v -2.04577 0.31695 1.11717
v -2.03142 0.34928 1.09811
v -2.03854 0.38793 1.08980
v -2.06441 0.41815 1.09540
v -2.03818 0.45978 1.20938
v -2.06764 0.44659 1.23330
v -2.08158 0.41449 1.25302
v -2.07468 0.37573 1.26101
v -2.04956 0.34512 1.25422
v -2.01584 0.33435 1.23523
v -1.98638 0.34753 1.21131
v -1.97244 0.37963 1.19159
v -1.97935 0.41839 1.18360
v -2.00446 0.44900 1.19039
v -1.97231 0.49020 1.30300
v -2.00082 0.47747 1.32827
v -2.01432 0.44558 1.34864
v -2.00764 0.40671 1.35632
v -1.98335 0.37572 1.34838
v -1.95071 0.36444 1.32785
v -1.92220 0.37717 1.30257
v -1.90871 0.40906 1.28221
v -1.91538 0.44792 1.27453
v -1.93968 0.47892 1.28247
v -1.90169 0.51959 1.39343
v -1.92918 0.50729 1.42002
v -1.94220 0.47560 1.44100
v -1.93578 0.43664 1.44838
v -1.91236 0.40528 1.43933
v -1.88089 0.39350 1.41731
v -1.85340 0.40580 1.39073
v -1.84038 0.43749 1.36974
v -1.84680 0.47645 1.36236
v -1.87022 0.50781 1.37141
v -1.82649 0.54787 1.48046
v -1.85290 0.53598 1.50830
v -1.86541 0.50450 1.52989
v -1.85924 0.46544 1.53698
v -1.83675 0.43373 1.52687
v -1.80653 0.42147 1.50341
v -1.78012 0.43336 1.47557
v -1.76761 0.46484 1.45398
v -1.77378 0.50390 1.44689
v -1.79627 0.53561 1.45700
v -1.74689 0.57497 1.56388
v -1.77215 0.56349 1.59293
v -1.78412 0.53220 1.61509
v -1.77823 0.49305 1.62191
v -1.75673 0.46100 1.61077
v -1.72782 0.44829 1.58594
v -1.70256 0.45977 1.55689
v -1.69059 0.49106 1.53472
v -1.69648 0.53021 1.52791
v -1.71798 0.56226 1.53904
v -1.66332 0.60077 1.64327
v -1.68798 0.58948 1.67290
v -1.69967 0.55828 1.69534
v -1.69392 0.51909 1.70203
v -1.67293 0.48687 1.69040
v -1.64471 0.47394 1.66490
v -1.62005 0.48523 1.63527
v -1.60836 0.51643 1.61282
v -1.61411 0.55562 1.60614
v -1.63510 0.58784 1.61777
f 2 11 1
f 3 12 2
f 3 14 13
f 4 15 14
f 5 16 15
f 6 17 16
f 7 18 17
f 9 18 8
f 10 19 9
f 1 20 10
f 11 22 21
f 12 23 22
f 13 24 23
f 14 25 24
f 15 26 25
f 16 27 26
f 17 28 27
f 18 29 28
f 19 30 29
f 20 21 30
f 21 32 31
f 22 33 32
f 23 34 33
f 24 35 34
f 25 36 35
f 26 37 36
f 27 38 37
f 28 39 38
f 29 40 39
f 30 31 40
f 31 42 41
f 32 43 42
f 33 44 43
f 34 45 44
f 35 46 45
f 36 47 46
f 37 48 47
f 38 49 48
f 39 50 49
f 40 41 50
f 41 52 51
f 42 53 52
f 43 54 53
f 44 55 54
f 45 56 55
f 46 57 56
f 47 58 57
f 48 59 58
f 49 60 59
f 50 51 60
f 51 62 61
f 52 63 62
f 53 64 63
f 54 65 64
f 55 66 65
f 56 67 66
f 57 68 67
f 58 69 68
f 59 70 69
f 60 61 70
f 61 72 71
f 62 73 72
f 63 74 73
f 64 75 74
f 65 76 75
f 66 77 76
f 67 78 77
f 68 79 78
f 69 80 79
f 70 71 80
f 71 82 81
f 72 83 82
f 73 84 83
f 74 85 84
f 75 86 85
f 76 87 86
f 77 88 87
f 78 89 88
f 79 90 89
f 80 81 90
f 81 92 91
f 82 93 92
f 83 94 93
f 84 95 94
f 85 96 95
f 86 97 96
f 87 98 97
f 88 99 98
f 89 100 99
f 90 91 100
f 91 102 101
f 92 103 102
f 93 104 103
f 94 105 104
f 95 106 105
f 96 107 106
f 97 108 107
f 98 109 108
f 99 110 109
f 100 101 110
f 101 112 111
f 102 113 112
f 103 114 113
f 104 115 114
f 105 116 115
f 106 117 116
f 107 118 117
f 108 119 118
f 109 120 119
f 110 111 120
f 111 122 121
f 112 123 122
f 113 124 123
f 114 125 124
f 115 126 125
f 116 127 126
f 117 128 127
f 118 129 128
f 119 130 129
f 120 121 130
f 121 132 131
f 122 133 132
f 123 134 133
f 124 135 134
f 125 136 135
f 126 137 136
f 127 138 137
f 128 139 138
f 129 140 139
f 130 131 140
f 131 142 141
f 132 143 142
f 133 144 143
f 134 145 144
f 135 146 145
f 136 147 146
f 137 148 147
f 138 149 148
f 139 150 149
f 140 141 150
f 141 152 151
f 142 153 152
f 143 154 153
f 144 155 154
f 145 156 155
f 146 157 156
f 147 158 157
f 148 159 158
f 149 160 159
f 150 151 160
f 151 162 161
f 152 163 162
f 153 164 163
f 154 165 164
f 155 166 165
f 156 167 166
f 157 168 167
f 158 169 168
f 159 170 169
f 160 161 170
f 161 172 171
f 162 173 172
f 163 174 173
f 164 175 174
f 165 176 175
f 166 177 176
f 167 178 177
f 168 179 178
f 169 180 179
f 170 171 180
f 171 182 181
f 172 183 182
f 173 184 183
f 174 185 184
f 175 186 185
f 176 187 186
f 177 188 187
f 178 189 188
f 179 190 189
f 180 181 190
f 181 192 191
f 182 193 192
f 183 194 193
f 184 195 194
f 185 196 195
f 186 197 196
f 187 198 197
f 188 199 198
f 189 200 199
f 190 191 200
f 191 202 201
f 192 203 202
f 193 204 203
f 194 205 204
f 195 206 205
f 196 207 206
f 197 208 207
f 198 209 208
f 199 210 209
f 200 201 210
f 201 212 211
f 202 213 212
f 203 214 213
f 204 215 214
f 205 216 215
f 206 217 216
f 207 218 217
f 208 219 218
f 209 220 219
f 210 211 220
f 211 222 221
f 212 223 222
f 213 224 223
f 214 225 224
f 215 226 225
f 216 227 226
f 217 228 227
f 218 229 228
f 219 230 229
f 220 221 230
f 221 232 231
f 222 233 232
f 223 234 233
f 224 235 234
f 225 236 235
f 226 237 236
f 227 238 237
f 228 239 238
f 229 240 239
f 230 231 240
f 231 242 241
f 232 243 242
f 233 244 243
f 234 245 244
f 235 246 245
f 236 247 246
f 237 248 247
f 238 249 248
f 239 250 249
f 240 241 250
f 241 252 251
f 242 253 252
f 243 254 253
f 244 255 254
f 245 256 255
f 246 257 256
f 247 258 257
f 248 259 258
f 249 260 259
f 250 251 260
f 251 262 261
f 252 263 262
f 253 264 263
f 254 265 264
f 255 266 265
f 256 267 266
f 257 268 267
f 258 269 268
f 259 270 269
f 260 261 270
f 261 272 271
f 262 273 272
f 263 274 273
f 264 275 274
f 265 276 275
f 266 277 276
f 267 278 277
f 268 279 278
f 269 280 279
f 270 271 280
f 271 282 281
f 272 283 282
f 273 284 283
f 274 285 284
f 275 286 285
f 276 287 286
f 277 288 287
f 278 289 288
f 279 290 289
f 280 281 290
f 281 292 291
f 282 293 292
f 283 294 293
f 284 295 294
f 285 296 295
f 286 297 296
f 287 298 297
f 288 299 298
f 289 300 299
f 290 291 300
f 291 302 301
f 292 303 302
f 293 304 303
f 294 305 304
f 295 306 305
f 296 307 306
f 297 308 307
f 298 309 308
f 299 310 309
f 300 301 310
f 301 312 311
f 302 313 312
f 303 314 313
f 304 315 314
f 305 316 315
f 306 317 316
f 307 318 317
f 308 319 318
f 309 320 319
f 310 311 320
f 311 322 321
f 312 323 322
f 313 324 323
f 314 325 324
f 315 326 325
f 316 327 326
f 317 328 327
f 318 329 328
f 319 330 329
f 320 321 330
f 321 332 331
f 322 333 332
f 323 334 333
f 324 335 334
f 325 336 335
f 326 337 336
f 327 338 337
f 328 339 338
f 329 340 339
f 330 331 340
f 331 342 341
f 332 343 342
f 333 344 343
f 334 345 344
f 335 346 345
f 336 347 346
f 337 348 347
f 338 349 348
f 339 350 349
f 340 341 350
f 341 352 351
f 342 353 352
f 343 354 353
f 344 355 354
f 345 356 355
f 346 357 356
f 347 358 357
f 348 359 358
f 349 360 359
f 350 351 360
f 351 362 361
f 352 363 362
f 353 364 363
f 354 365 364
f 355 366 365
f 356 367 366
f 357 368 367
f 358 369 368
f 359 370 369
f 360 361 370
f 361 372 371
f 362 373 372
f 363 374 373
f 364 375 374
f 365 376 375
f 366 377 376
f 367 378 377
f 368 379 378
f 369 380 379
f 370 371 380
f 371 382 381
f 372 383 382
f 373 384 383
f 374 385 384
f 375 386 385
f 376 387 386
f 377 388 387
f 378 389 388
f 379 390 389
f 380 381 390
f 381 392 391
f 382 393 392
f 383 394 393
f 384 395 394
f 385 396 395
f 386 397 396
f 387 398 397
f 388 399 398
f 389 400 399
f 390 391 400
f 391 402 401
f 392 403 402
f 393 404 403
f 394 405 404
f 395 406 405
f 396 407 406
f 397 408 407
f 398 409 408
f 399 410 409
f 400 401 410
f 401 412 411
f 402 413 412
f 403 414 413
f 404 415 414
f 405 416 415
f 406 417 416
f 407 418 417
f 408 419 418
f 409 420 419
f 410 411 420
f 411 422 421
f 412 423 422
f 413 424 423
f 414 425 424
f 415 426 425
f 416 427 426
f 417 428 427
f 418 429 428
f 419 430 429
f 420 421 430
f 421 432 431
f 422 433 432
f 423 434 433
f 424 435 434
f 425 436 435
f 426 437 436
f 427 438 437
f 428 439 438
f 429 440 439
f 430 431 440
f 431 442 441
f 432 443 442
f 433 444 443
f 434 445 444
f 435 446 445
f 436 447 446
f 437 448 447
f 438 449 448
f 439 450 449
f 440 441 450
f 441 452 451
f 442 453 452
f 443 454 453
f 444 455 454
f 445 456 455
f 446 457 456
f 447 458 457
f 448 459 458
f 449 460 459
f 450 451 460
f 451 462 461
f 452 463 462
f 453 464 463
f 454 465 464
f 455 466 465
f 456 467 466
f 457 468 467
f 458 469 468
f 459 470 469
f 460 461 470
f 461 472 471
f 462 473 472
f 463 474 473
f 464 475 474
f 465 476 475
f 466 477 476
f 467 478 477
f 468 479 478
f 469 480 479
f 470 471 480
f 471 482 481
f 472 483 482
f 473 484 483
f 474 485 484
f 475 486 485
f 476 487 486
f 477 488 487
f 478 489 488
f 479 490 489
f 480 481 490
f 481 492 491
f 482 493 492
f 483 494 493
f 484 495 494
f 485 496 495
f 486 497 496
f 487 498 497
f 488 499 498
f 489 500 499
f 490 491 500
f 491 502 501
f 492 503 502
f 493 504 503
f 494 505 504
f 495 506 505
f 496 507 506
f 497 508 507
f 498 509 508
f 499 510 509
f 500 501 510
f 501 512 511
f 502 513 512
f 503 514 513
f 504 515 514
f 505 516 515
f 506 517 516
f 507 518 517
f 508 519 518
f 509 520 519
f 510 511 520
f 511 522 521
f 512 523 522
f 513 524 523
f 514 525 524
f 515 526 525
f 516 527 526
f 517 528 527
f 518 529 528
f 519 530 529
f 520 521 530
f 521 532 531
f 522 533 532
f 523 534 533
f 524 535 534
f 525 536 535
f 526 537 536
f 527 538 537
f 528 539 538
f 529 540 539
f 530 531 540
f 531 542 541
f 532 543 542
f 533 544 543
f 534 545 544
f 535 546 545
f 536 547 546
f 537 548 547
f 538 549 548
f 539 550 549
f 540 541 550
f 541 552 551
f 542 553 552
f 543 554 553
f 544 555 554
f 545 556 555
f 546 557 556
f 547 558 557
f 548 559 558
f 549 560 559
f 550 551 560
f 551 562 561
f 552 563 562
f 553 564 563
f 554 565 564
f 555 566 565
f 556 567 566
f 557 568 567
f 558 569 568
f 559 570 569
f 560 561 570
f 561 572 571
f 562 573 572
f 563 574 573
f 564 575 574
f 565 576 575
f 566 577 576
f 567 578 577
f 568 579 578
f 569 580 579
f 570 571 580
f 571 582 581
f 572 583 582
f 573 584 583
f 574 585 584
f 575 586 585
f 576 587 586
f 577 588 587
f 578 589 588
f 579 590 589
f 580 581 590
f 581 592 591
f 582 593 592
f 583 594 593
f 584 595 594
f 585 596 595
f 586 597 596
f 587 598 597
f 588 599 598
f 589 600 599
f 590 591 600
f 591 602 601
f 592 603 602
f 593 604 603
f 594 605 604
f 595 606 605
f 596 607 606
f 597 608 607
f 598 609 608
f 599 610 609
f 600 601 610
f 601 612 611
f 602 613 612
f 603 614 613
f 604 615 614
f 605 616 615
f 606 617 616
f 607 618 617
f 608 619 618
f 609 620 619
f 610 611 620
f 611 622 621
f 612 623 622
f 613 624 623
f 614 625 624
f 615 626 625
f 616 627 626
f 617 628 627
f 618 629 628
f 619 630 629
f 620 621 630
f 621 632 631
f 622 633 632
f 623 634 633
f 624 635 634
f 625 636 635
f 626 637 636
f 627 638 637
f 628 639 638
f 629 640 639
f 630 631 640
f 631 642 641
f 632 643 642
f 633 644 643
f 634 645 644
f 635 646 645
f 636 647 646
f 637 648 647
f 638 649 648
f 639 650 649
f 640 641 650
f 641 652 651
f 642 653 652
f 643 654 653
f 644 655 654
f 645 656 655
f 646 657 656
f 647 658 657
f 648 659 658
f 649 660 659
f 650 651 660
f 651 662 661
f 652 663 662
f 653 664 663
f 654 665 664
f 655 666 665
f 656 667 666
f 657 668 667
f 658 669 668
f 659 670 669
f 660 661 670
f 661 672 671
f 662 673 672
f 663 674 673
f 664 675 674
f 665 676 675
f 666 677 676
f 667 678 677
f 668 679 678
f 669 680 679
f 670 671 680
f 671 682 681
f 672 683 682
f 673 684 683
f 674 685 684
f 675 686 685
f 676 687 686
f 677 688 687
f 678 689 688
f 679 690 689
f 680 681 690
f 681 692 691
f 682 693 692
f 683 694 693
f 684 695 694
f 685 696 695
f 686 697 696
f 687 698 697
f 688 699 698
f 689 700 699
f 690 691 700
f 691 702 701
f 692 703 702
f 693 704 703
f 694 705 704
f 695 706 705
f 696 707 706
f 697 708 707
f 698 709 708
f 699 710 709
f 700 701 710
f 701 712 711
f 702 713 712
f 703 714 713
f 704 715 714
f 705 716 715
f 706 717 716
f 707 718 717
f 708 719 718
f 709 720 719
f 710 711 720
f 711 722 721
f 712 723 722
f 713 724 723
f 714 725 724
f 715 726 725
f 716 727 726
f 717 728 727
f 718 729 728
f 719 730 729
f 720 721 730
f 721 732 731
f 722 733 732
f 723 734 733
f 724 735 734
f 725 736 735
f 726 737 736
f 727 738 737
f 728 739 738
f 729 740 739
f 730 731 740
f 731 742 741
f 732 743 742
f 733 744 743
f 734 745 744
f 735 746 745
f 736 747 746
f 737 748 747
f 738 749 748
f 739 750 749
f 740 741 750
f 741 752 751
f 742 753 752
f 743 754 753
f 744 755 754
f 745 756 755
f 746 757 756
f 747 758 757
f 748 759 758
f 749 760 759
f 750 751 760
f 751 762 761
f 752 763 762
f 753 764 763
f 754 765 764
f 755 766 765
f 756 767 766
f 757 768 767
f 758 769 768
f 759 770 769
f 760 761 770
f 761 772 771
f 762 773 772
f 763 774 773
f 764 775 774
f 765 776 775
f 766 777 776
f 767 778 777
f 768 779 778
f 769 780 779
f 770 771 780
f 771 782 781
f 772 783 782
f 773 784 783
f 774 785 784
f 775 786 785
f 776 787 786
f 777 788 787
f 778 789 788
f 779 790 789
f 780 781 790
f 781 792 791
f 782 793 792
f 783 794 793
f 784 795 794
f 785 796 795
f 786 797 796
f 787 798 797
f 788 799 798
f 789 800 799
f 790 791 800
f 791 802 801
f 792 803 802
f 793 804 803
f 794 805 804
f 795 806 805
f 796 807 806
f 797 808 807
f 798 809 808
f 799 810 809
f 800 801 810
f 801 812 811
f 802 813 812
f 803 814 813
f 804 815 814
f 805 816 815
f 806 817 816
f 807 818 817
f 808 819 818
f 809 820 819
f 810 811 820
f 811 822 821
f 812 823 822
f 813 824 823
f 814 825 824
f 815 826 825
f 816 827 826
f 817 828 827
f 818 829 828
f 819 830 829
f 820 821 830
f 821 832 831
f 822 833 832
f 823 834 833
f 824 835 834
f 825 836 835
f 826 837 836
f 827 838 837
f 828 839 838
f 829 840 839
f 830 831 840
f 831 842 841
f 832 843 842
f 833 844 843
f 834 845 844
f 835 846 845
f 836 847 846
f 837 848 847
f 838 849 848
f 839 850 849
f 840 841 850
f 841 852 851
f 842 853 852
f 843 854 853
f 844 855 854
f 845 856 855
f 846 857 856
f 847 858 857
f 848 859 858
f 849 860 859
f 850 851 860
f 851 862 861
f 852 863 862
f 853 864 863
f 854 865 864
f 855 866 865
f 856 867 866
f 857 868 867
f 858 869 868
f 859 870 869
f 860 861 870
f 861 872 871
f 862 873 872
f 863 874 873
f 864 875 874
f 865 876 875
f 866 877 876
f 867 878 877
f 868 879 878
f 869 880 879
f 870 871 880
f 871 882 881
f 872 883 882
f 873 884 883
f 874 885 884
f 875 886 885
f 876 887 886
f 877 888 887
f 878 889 888
f 879 890 889
f 880 881 890
f 881 892 891
f 882 893 892
f 883 894 893
f 884 895 894
f 885 896 895
f 886 897 896
f 887 898 897
f 888 899 898
f 889 900 899
f 890 891 900
f 891 902 901
f 892 903 902
f 893 904 903
f 894 905 904
f 895 906 905
f 896 907 906
f 897 908 907
f 898 909 908
f 899 910 909
f 900 901 910
f 901 912 911
f 902 913 912
f 903 914 913
f 904 915 914
f 905 916 915
f 906 917 916
f 907 918 917
f 908 919 918
f 909 920 919
f 910 911 920
f 911 922 921
f 912 923 922
f 913 924 923
f 914 925 924
f 915 926 925
f 916 927 926
f 917 928 927
f 918 929 928
f 919 930 929
f 920 921 930
f 921 932 931
f 922 933 932
f 923 934 933
f 924 935 934
f 925 936 935
f 926 937 936
f 927 938 937
f 928 939 938
f 929 940 939
f 930 931 940
f 931 942 941
f 932 943 942
f 933 944 943
f 934 945 944
f 935 946 945
f 936 947 946
f 937 948 947
f 938 949 948
f 939 950 949
f 940 941 950
f 941 952 951
f 942 953 952
f 943 954 953
f 944 955 954
f 945 956 955
f 946 957 956
f 947 958 957
f 948 959 958
f 949 960 959
f 950 951 960
f 951 962 961
f 952 963 962
f 953 964 963
f 954 965 964
f 955 966 965
f 956 967 966
f 957 968 967
f 958 969 968
f 959 970 969
f 960 961 970
f 961 972 971
f 962 973 972
f 963 974 973
f 964 975 974
f 965 976 975
f 966 977 976
f 967 978 977
f 968 979 978
f 969 980 979
f 970 971 980
f 971 982 981
f 972 983 982
f 973 984 983
f 974 985 984
f 975 986 985
f 976 987 986
f 977 988 987
f 978 989 988
f 979 990 989
f 980 981 990
f 981 992 991
f 982 993 992
f 983 994 993
f 984 995 994
f 985 996 995
f 986 997 996
f 987 998 997
f 988 999 998
f 989 1000 999
f 990 991 1000
f 991 1002 1001
f 992 1003 1002
f 993 1004 1003
f 994 1005 1004
f 995 1006 1005
f 996 1007 1006
f 997 1008 1007
f 998 1009 1008
f 999 1010 1009
f 1000 1001 1010
f 1001 1012 1011
f 1002 1013 1012
f 1003 1014 1013
f 1004 1015 1014
f 1005 1016 1015
f 1006 1017 1016
f 1007 1018 1017
f 1008 1019 1018
f 1009 1020 1019
f 1010 1011 1020
f 1011 1022 1021
f 1012 1023 1022
f 1013 1024 1023
f 1014 1025 1024
f 1015 1026 1025
f 1016 1027 1026
f 1017 1028 1027
f 1018 1029 1028
f 1019 1030 1029
f 1020 1021 1030
f 1021 1032 1031
f 1022 1033 1032
f 1023 1034 1033
f 1024 1035 1034
f 1025 1036 1035
f 1026 1037 1036
f 1027 1038 1037
f 1028 1039 1038
f 1029 1040 1039
f 1030 1031 1040
f 1031 1042 1041
f 1032 1043 1042
f 1033 1044 1043
f 1034 1045 1044
f 1035 1046 1045
f 1036 1047 1046
f 1037 1048 1047
f 1038 1049 1048
f 1039 1050 1049
f 1040 1041 1050
f 1041 1052 1051
f 1042 1053 1052
f 1043 1054 1053
f 1044 1055 1054
f 1045 1056 1055
f 1046 1057 1056
f 1047 1058 1057
f 1048 1059 1058
f 1049 1060 1059
f 1050 1051 1060
f 1051 1062 1061
f 1052 1063 1062
f 1053 1064 1063
f 1054 1065 1064
f 1055 1066 1065
f 1056 1067 1066
f 1057 1068 1067
f 1058 1069 1068
f 1059 1070 1069
f 1060 1061 1070
f 1061 1072 1071
f 1062 1073 1072
f 1063 1074 1073
f 1064 1075 1074
f 1065 1076 1075
f 1066 1077 1076
f 1067 1078 1077
f 1068 1079 1078
f 1069 1080 1079
f 1070 1071 1080
f 1071 1082 1081
f 1072 1083 1082
f 1073 1084 1083
f 1074 1085 1084
f 1075 1086 1085
f 1076 1087 1086
f 1077 1088 1087
f 1078 1089 1088
f 1079 1090 1089
f 1080 1081 1090
f 1081 1092 1091
f 1082 1093 1092
f 1083 1094 1093
f 1084 1095 1094
f 1085 1096 1095
f 1086 1097 1096
f 1087 1098 1097
f 1088 1099 1098
f 1089 1100 1099
f 1090 1091 1100
f 1091 1102 1101
f 1092 1103 1102
f 1093 1104 1103
f 1094 1105 1104
f 1095 1106 1105
f 1096 1107 1106
f 1097 1108 1107
f 1098 1109 1108
f 1099 1110 1109
f 1100 1101 1110
f 1101 1112 1111
f 1102 1113 1112
f 1103 1114 1113
f 1104 1115 1114
f 1105 1116 1115
f 1106 1117 1116
f 1107 1118 1117
f 1108 1119 1118
f 1109 1120 1119
f 1110 1111 1120
f 1111 1122 1121
f 1112 1123 1122
f 1113 1124 1123
f 1114 1125 1124
f 1115 1126 1125
f 1116 1127 1126
f 1117 1128 1127
f 1118 1129 1128
f 1119 1130 1129
f 1120 1121 1130
f 1121 1132 1131
f 1122 1133 1132
f 1123 1134 1133
f 1124 1135 1134
f 1125 1136 1135
f 1126 1137 1136
f 1127 1138 1137
f 1128 1139 1138
f 1129 1140 1139
f 1130 1131 1140
f 1131 1142 1141
f 1132 1143 1142
f 1133 1144 1143
f 1134 1145 1144
f 1135 1146 1145
f 1136 1147 1146
f 1137 1148 1147
f 1138 1149 1148
f 1139 1150 1149
f 1140 1141 1150
f 1141 1152 1151
f 1142 1153 1152
f 1143 1154 1153
f 1144 1155 1154
f 1145 1156 1155
f 1146 1157 1156
f 1147 1158 1157
f 1148 1159 1158
f 1149 1160 1159
f 1150 1151 1160
f 1151 1162 1161
f 1152 1163 1162
f 1153 1164 1163
f 1154 1165 1164
f 1155 1166 1165
f 1156 1167 1166
f 1157 1168 1167
f 1158 1169 1168
f 1159 1170 1169
f 1160 1161 1170
f 1161 1172 1171
f 1162 1173 1172
f 1163 1174 1173
f 1164 1175 1174
f 1165 1176 1175
f 1166 1177 1176
f 1167 1178 1177
f 1168 1179 1178
f 1169 1180 1179
f 1170 1171 1180
f 1171 1182 1181
f 1172 1183 1182
f 1173 1184 1183
f 1174 1185 1184
f 1175 1186 1185
f 1176 1187 1186
f 1177 1188 1187
f 1178 1189 1188
f 1179 1190 1189
f 1180 1181 1190
f 1181 1192 1191
f 1182 1193 1192
f 1183 1194 1193
f 1184 1195 1194
f 1185 1196 1195
f 1186 1197 1196
f 1187 1198 1197
f 1188 1199 1198
f 1189 1200 1199
f 1190 1191 1200
f 1191 1202 1201
f 1192 1203 1202
f 1193 1204 1203
f 1194 1205 1204
f 1195 1206 1205
f 1196 1207 1206
f 1197 1208 1207
f 1198 1209 1208
f 1199 1210 1209
f 1200 1201 1210
f 1201 1212 1211
f 1202 1213 1212
f 1203 1214 1213
f 1204 1215 1214
f 1205 1216 1215
f 1206 1217 1216
f 1207 1218 1217
f 1208 1219 1218
f 1209 1220 1219
f 1210 1211 1220
f 1211 1222 1221
f 1212 1223 1222
f 1213 1224 1223
f 1214 1225 1224
f 1215 1226 1225
f 1216 1227 1226
f 1217 1228 1227
f 1218 1229 1228
f 1219 1230 1229
f 1220 1221 1230
f 1221 1232 1231
f 1222 1233 1232
f 1223 1234 1233
f 1224 1235 1234
f 1225 1236 1235
f 1226 1237 1236
f 1227 1238 1237
f 1228 1239 1238
f 1229 1240 1239
f 1230 1231 1240
f 1231 1242 1241
f 1232 1243 1242
f 1233 1244 1243
f 1234 1245 1244
f 1235 1246 1245
f 1236 1247 1246
f 1237 1248 1247
f 1238 1249 1248
f 1239 1250 1249
f 1240 1241 1250
f 1241 1252 1251
f 1242 1253 1252
f 1243 1254 1253
f 1244 1255 1254
f 1245 1256 1255
f 1246 1257 1256
f 1247 1258 1257
f 1248 1259 1258
f 1249 1260 1259
f 1250 1251 1260
f 1251 1262 1261
f 1252 1263 1262
f 1253 1264 1263
f 1254 1265 1264
f 1255 1266 1265
f 1256 1267 1266
f 1257 1268 1267
f 1258 1269 1268
f 1259 1270 1269
f 1260 1261 1270
f 1261 1272 1271
f 1262 1273 1272
f 1263 1274 1273
f 1264 1275 1274
f 1265 1276 1275
f 1266 1277 1276
f 1267 1278 1277
f 1268 1279 1278
f 1269 1280 1279
f 1270 1271 1280
f 1271 1282 1281
f 1272 1283 1282
f 1274 1283 1273
f 1275 1284 1274
f 1276 1285 1275
f 1277 1286 1276
f 1278 1287 1277
f 1278 1289 1288
f 1279 1290 1289
f 1280 1281 1290
f 2 12 11
f 3 13 12
f 3 4 14
f 4 5 15
f 5 6 16
f 6 7 17
f 7 8 18
f 9 19 18
f 10 20 19
f 1 11 20
f 11 12 22
f 12 13 23
f 13 14 24
f 14 15 25
f 15 16 26
f 16 17 27
f 17 18 28
f 18 19 29
f 19 20 30
f 20 11 21
f 21 22 32
f 22 23 33
f 23 24 34
f 24 25 35
f 25 26 36
f 26 27 37
f 27 28 38
f 28 29 39
f 29 30 40
f 30 21 31
f 31 32 42
f 32 33 43
f 33 34 44
f 34 35 45
f 35 36 46
f 36 37 47
f 37 38 48
f 38 39 49
f 39 40 50
f 40 31 41
f 41 42 52
f 42 43 53
f 43 44 54
f 44 45 55
f 45 46 56
f 46 47 57
f 47 48 58
f 48 49 59
f 49 50 60
f 50 41 51
f 51 52 62
f 52 53 63
f 53 54 64
f 54 55 65
f 55 56 66
f 56 57 67
f 57 58 68
f 58 59 69
f 59 60 70
f 60 51 61
f 61 62 72
f 62 63 73
f 63 64 74
f 64 65 75
f 65 66 76
f 66 67 77
f 67 68 78
f 68 69 79
f 69 70 80
f 70 61 71
f 71 72 82
f 72 73 83
f 73 74 84
f 74 75 85
f 75 76 86
f 76 77 87
f 77 78 88
f 78 79 89
f 79 80 90
f 80 71 81
f 81 82 92
f 82 83 93
f 83 84 94
f 84 85 95
f 85 86 96
f 86 87 97
f 87 88 98
f 88 89 99
f 89 90 100
f 90 81 91
f 91 92 102
f 92 93 103
f 93 94 104
f 94 95 105
f 95 96 106
f 96 97 107
f 97 98 108
f 98 99 109
f 99 100 110
f 100 91 101
f 101 102 112
f 102 103 113
f 103 104 114
f 104 105 115
f 105 106 116
f 106 107 117
f 107 108 118
f 108 109 119
f 109 110 120
f 110 101 111
f 111 112 122
f 112 113 123
f 113 114 124
f 114 115 125
f 115 116 126
f 116 117 127
f 117 118 128
f 118 119 129
f 119 120 130
f 120 111 121
f 121 122 132
f 122 123 133
f 123 124 134
f 124 125 135
f 125 126 136
f 126 127 137
f 127 128 138
f 128 129 139
f 129 130 140
f 130 121 131
f 131 132 142
f 132 133 143
f 133 134 144
f 134 135 145
f 135 136 146
f 136 137 147
f 137 138 148
f 138 139 149
f 139 140 150
f 140 131 141
f 141 142 152
f 142 143 153
f 143 144 154
f 144 145 155
f 145 146 156
f 146 147 157
f 147 148 158
f 148 149 159
f 149 150 160
f 150 141 151
f 151 152 162
f 152 153 163
f 153 154 164
f 154 155 165
f 155 156 166
f 156 157 167
f 157 158 168
f 158 159 169
f 159 160 170
f 160 151 161
f 161 162 172
f 162 163 173
f 163 164 174
f 164 165 175
f 165 166 176
f 166 167 177
f 167 168 178
f 168 169 179
f 169 170 180
f 170 161 171
f 171 172 182
f 172 173 183
f 173 174 184
f 174 175 185
f 175 176 186
f 176 177 187
f 177 178 188
f 178 179 189
f 179 180 190
f 180 171 181
f 181 182 192
f 182 183 193
f 183 184 194
f 184 185 195
f 185 186 196
f 186 187 197
f 187 188 198
f 188 189 199
f 189 190 200
f 190 181 191
f 191 192 202
f 192 193 203
f 193 194 204
f 194 195 205
f 195 196 206
f 196 197 207
f 197 198 208
f 198 199 209
f 199 200 210
f 200 191 201
f 201 202 212
f 202 203 213
f 203 204 214
f 204 205 215
f 205 206 216
f 206 207 217
f 207 208 218
f 208 209 219
f 209 210 220
f 210 201 211
f 211 212 222
f 212 213 223
f 213 214 224
f 214 215 225
f 215 216 226
f 216 217 227
f 217 218 228
f 218 219 229
f 219 220 230
f 220 211 221
f 221 222 232
f 222 223 233
f 223 224 234
f 224 225 235
f 225 226 236
f 226 227 237
f 227 228 238
f 228 229 239
f 229 230 240
f 230 221 231
f 231 232 242
f 232 233 243
f 233 234 244
f 234 235 245
f 235 236 246
f 236 237 247
f 237 238 248
f 238 239 249
f 239 240 250
f 240 231 241
f 241 242 252
f 242 243 253
f 243 244 254
f 244 245 255
f 245 246 256
f 246 247 257
f 247 248 258
f 248 249 259
f 249 250 260
f 250 241 251
f 251 252 262
f 252 253 263
f 253 254 264
f 254 255 265
f 255 256 266
f 256 257 267
f 257 258 268
f 258 259 269
f 259 260 270
f 260 251 261
f 261 262 272
f 262 263 273
f 263 264 274
f 264 265 275
f 265 266 276
f 266 267 277
f 267 268 278
f 268 269 279
f 269 270 280
f 270 261 271
f 271 272 282
f 272 273 283
f 273 274 284
f 274 275 285
f 275 276 286
f 276 277 287
f 277 278 288
f 278 279 289
f 279 280 290
f 280 271 281
f 281 282 292
f 282 283 293
f 283 284 294
f 284 285 295
f 285 286 296
f 286 287 297
f 287 288 298
f 288 289 299
f 289 290 300
f 290 281 291
f 291 292 302
f 292 293 303
f 293 294 304
f 294 295 305
f 295 296 306
f 296 297 307
f 297 298 308
f 298 299 309
f 299 300 310
f 300 291 301
f 301 302 312
f 302 303 313
f 303 304 314
f 304 305 315
f 305 306 316
f 306 307 317
f 307 308 318
f 308 309 319
f 309 310 320
f 310 301 311
f 311 312 322
f 312 313 323
f 313 314 324
f 314 315 325
f 315 316 326
f 316 317 327
f 317 318 328
f 318 319 329
f 319 320 330
f 320 311 321
f 321 322 332
f 322 323 333
f 323 324 334
f 324 325 335
f 325 326 336
f 326 327 337
f 327 328 338
f 328 329 339
f 329 330 340
f 330 321 331
f 331 332 342
f 332 333 343
f 333 334 344
f 334 335 345
f 335 336 346
f 336 337 347
f 337 338 348
f 338 339 349
f 339 340 350
f 340 331 341
f 341 342 352
f 342 343 353
f 343 344 354
f 344 345 355
f 345 346 356
f 346 347 357
f 347 348 358
f 348 349 359
f 349 350 360
f 350 341 351
f 351 352 362
f 352 353 363
f 353 354 364
f 354 355 365
f 355 356 366
f 356 357 367
f 357 358 368
f 358 359 369
f 359 360 370
f 360 351 361
f 361 362 372
f 362 363 373
f 363 364 374
f 364 365 375
f 365 366 376
f 366 367 377
f 367 368 378
f 368 369 379
f 369 370 380
f 370 361 371
f 371 372 382
f 372 373 383
f 373 374 384
f 374 375 385
f 375 376 386
f 376 377 387
f 377 378 388
f 378 379 389
f 379 380 390
f 380 371 381
f 381 382 392
f 382 383 393
f 383 384 394
f 384 385 395
f 385 386 396
f 386 387 397
f 387 388 398
f 388 389 399
f 389 390 400
f 390 381 391
f 391 392 402
f 392 393 403
f 393 394 404
f 394 395 405
f 395 396 406
f 396 397 407
f 397 398 408
f 398 399 409
f 399 400 410
f 400 391 401
f 401 402 412
f 402 403 413
f 403 404 414
f 404 405 415
f 405 406 416
f 406 407 417
f 407 408 418
f 408 409 419
f 409 410 420
f 410 401 411
f 411 412 422
f 412 413 423
f 413 414 424
f 414 415 425
f 415 416 426
f 416 417 427
f 417 418 428
f 418 419 429
f 419 420 430
f 420 411 421
f 421 422 432
f 422 423 433
f 423 424 434
f 424 425 435
f 425 426 436
f 426 427 437
f 427 428 438
f 428 429 439
f 429 430 440
f 430 421 431
f 431 432 442
f 432 433 443
f 433 434 444
f 434 435 445
f 435 436 446
f 436 437 447
f 437 438 448
f 438 439 449
f 439 440 450
f 440 431 441
f 441 442 452
f 442 443 453
f 443 444 454
f 444 445 455
f 445 446 456
f 446 447 457
f 447 448 458
f 448 449 459
f 449 450 460
f 450 441 451
f 451 452 462
f 452 453 463
f 453 454 464
f 454 455 465
f 455 456 466
f 456 457 467
f 457 458 468
f 458 459 469
f 459 460 470
f 460 451 461
f 461 462 472
f 462 463 473
f 463 464 474
f 464 465 475
f 465 466 476
f 466 467 477
f 467 468 478
f 468 469 479
f 469 470 480
f 470 461 471
f 471 472 482
f 472 473 483
f 473 474 484
f 474 475 485
f 475 476 486
f 476 477 487
f 477 478 488
f 478 479 489
f 479 480 490
f 480 471 481
f 481 482 492
f 482 483 493
f 483 484 494
f 484 485 495
f 485 486 496
f 486 487 497
f 487 488 498
f 488 489 499
f 489 490 500
f 490 481 491
f 491 492 502
f 492 493 503
f 493 494 504
f 494 495 505
f 495 496 506
f 496 497 507
f 497 498 508
f 498 499 509
f 499 500 510
f 500 491 501
f 501 502 512
f 502 503 513
f 503 504 514
f 504 505 515
f 505 506 516
f 506 507 517
f 507 508 518
f 508 509 519
f 509 510 520
f 510 501 511
f 511 512 522
f 512 513 523
f 513 514 524
f 514 515 525
f 515 516 526
f 516 517 527
f 517 518 528
f 518 519 529
f 519 520 530
f 520 511 521
f 521 522 532
f 522 523 533
f 523 524 534
f 524 525 535
f 525 526 536
f 526 527 537
f 527 528 538
f 528 529 539
f 529 530 540
f 530 521 531
f 531 532 542
f 532 533 543
f 533 534 544
f 534 535 545
f 535 536 546
f 536 537 547
f 537 538 548
f 538 539 549
f 539 540 550
f 540 531 541
f 541 542 552
f 542 543 553
f 543 544 554
f 544 545 555
f 545 546 556
f 546 547 557
f 547 548 558
f 548 549 559
f 549 550 560
f 550 541 551
f 551 552 562
f 552 553 563
f 553 554 564
f 554 555 565
f 555 556 566
f 556 557 567
f 557 558 568
f 558 559 569
f 559 560 570
f 560 551 561
f 561 562 572
f 562 563 573
f 563 564 574
f 564 565 575
f 565 566 576
f 566 567 577
f 567 568 578
f 568 569 579
f 569 570 580
f 570 561 571
f 571 572 582
f 572 573 583
f 573 574 584
f 574 575 585
f 575 576 586
f 576 577 587
f 577 578 588
f 578 579 589
f 579 580 590
f 580 571 581
f 581 582 592
f 582 583 593
f 583 584 594
f 584 585 595
f 585 586 596
f 586 587 597
f 587 588 598
f 588 589 599
f 589 590 600
f 590 581 591
f 591 592 602
f 592 593 603
f 593 594 604
f 594 595 605
f 595 596 606
f 596 597 607
f 597 598 608
f 598 599 609
f 599 600 610
f 600 591 601
f 601 602 612
f 602 603 613
f 603 604 614
f 604 605 615
f 605 606 616
f 606 607 617
f 607 608 618
f 608 609 619
f 609 610 620
f 610 601 611
f 611 612 622
f 612 613 623
f 613 614 624
f 614 615 625
f 615 616 626
f 616 617 627
f 617 618 628
f 618 619 629
f 619 620 630
f 620 611 621
f 621 622 632
f 622 623 633
f 623 624 634
f 624 625 635
f 625 626 636
f 626 627 637
f 627 628 638
f 628 629 639
f 629 630 640
f 630 621 631
f 631 632 642
f 632 633 643
f 633 634 644
f 634 635 645
f 635 636 646
f 636 637 647
f 637 638 648
f 638 639 649
f 639 640 650
f 640 631 641
f 641 642 652
f 642 643 653
f 643 644 654
f 644 645 655
f 645 646 656
f 646 647 657
f 647 648 658
f 648 649 659
f 649 650 660
f 650 641 651
f 651 652 662
f 652 653 663
f 653 654 664
f 654 655 665
f 655 656 666
f 656 657 667
f 657 658 668
f 658 659 669
f 659 660 670
f 660 651 661
f 661 662 672
f 662 663 673
f 663 664 674
f 664 665 675
f 665 666 676
f 666 667 677
f 667 668 678
f 668 669 679
f 669 670 680
f 670 661 671
f 671 672 682
f 672 673 683
f 673 674 684
f 674 675 685
f 675 676 686
f 676 677 687
f 677 678 688
f 678 679 689
f 679 680 690
f 680 671 681
f 681 682 692
f 682 683 693
f 683 684 694
f 684 685 695
f 685 686 696
f 686 687 697
f 687 688 698
f 688 689 699
f 689 690 700
f 690 681 691
f 691 692 702
f 692 693 703
f 693 694 704
f 694 695 705
f 695 696 706
f 696 697 707
f 697 698 708
f 698 699 709
f 699 700 710
f 700 691 701
f 701 702 712
f 702 703 713
f 703 704 714
f 704 705 715
f 705 706 716
f 706 707 717
f 707 708 718
f 708 709 719
f 709 710 720
f 710 701 711
f 711 712 722
f 712 713 723
f 713 714 724
f 714 715 725
f 715 716 726
f 716 717 727
f 717 718 728
f 718 719 729
f 719 720 730
f 720 711 721
f 721 722 732
f 722 723 733
f 723 724 734
f 724 725 735
f 725 726 736
f 726 727 737
f 727 728 738
f 728 729 739
f 729 730 740
f 730 721 731
f 731 732 742
f 732 733 743
f 733 734 744
f 734 735 745
f 735 736 746
f 736 737 747
f 737 738 748
f 738 739 749
f 739 740 750
f 740 731 741
f 741 742 752
f 742 743 753
f 743 744 754
f 744 745 755
f 745 746 756
f 746 747 757
f 747 748 758
f 748 749 759
f 749 750 760
f 750 741 751
f 751 752 762
f 752 753 763
f 753 754 764
f 754 755 765
f 755 756 766
f 756 757 767
f 757 758 768
f 758 759 769
f 759 760 770
f 760 751 761
f 761 762 772
f 762 763 773
f 763 764 774
f 764 765 775
f 765 766 776
f 766 767 777
f 767 768 778
f 768 769 779
f 769 770 780
f 770 761 771
f 771 772 782
f 772 773 783
f 773 774 784
f 774 775 785
f 775 776 786
f 776 777 787
f 777 778 788
f 778 779 789
f 779 780 790
f 780 771 781
f 781 782 792
f 782 783 793
f 783 784 794
f 784 785 795
f 785 786 796
f 786 787 797
f 787 788 798
f 788 789 799
f 789 790 800
f 790 781 791
f 791 792 802
f 792 793 803
f 793 794 804
f 794 795 805
f 795 796 806
f 796 797 807
f 797 798 808
f 798 799 809
f 799 800 810
f 800 791 801
f 801 802 812
f 802 803 813
f 803 804 814
f 804 805 815
f 805 806 816
f 806 807 817
f 807 808 818
f 808 809 819
f 809 810 820
f 810 801 811
f 811 812 822
f 812 813 823
f 813 814 824
f 814 815 825
f 815 816 826
f 816 817 827
f 817 818 828
f 818 819 829
f 819 820 830
f 820 811 821
f 821 822 832
f 822 823 833
f 823 824 834
f 824 825 835
f 825 826 836
f 826 827 837
f 827 828 838
f 828 829 839
f 829 830 840
f 830 821 831
f 831 832 842
f 832 833 843
f 833 834 844
f 834 835 845
f 835 836 846
f 836 837 847
f 837 838 848
f 838 839 849
f 839 840 850
f 840 831 841
f 841 842 852
f 842 843 853
f 843 844 854
f 844 845 855
f 845 846 856
f 846 847 857
f 847 848 858
f 848 849 859
f 849 850 860
f 850 841 851
f 851 852 862
f 852 853 863
f 853 854 864
f 854 855 865
f 855 856 866
f 856 857 867
f 857 858 868
f 858 859 869
f 859 860 870
f 860 851 861
f 861 862 872
f 862 863 873
f 863 864 874
f 864 865 875
f 865 866 876
f 866 867 877
f 867 868 878
f 868 869 879
f 869 870 880
f 870 861 871
f 871 872 882
f 872 873 883
f 873 874 884
f 874 875 885
f 875 876 886
f 876 877 887
f 877 878 888
f 878 879 889
f 879 880 890
f 880 871 881
f 881 882 892
f 882 883 893
f 883 884 894
f 884 885 895
f 885 886 896
f 886 887 897
f 887 888 898
f 888 889 899
f 889 890 900
f 890 881 891
f 891 892 902
f 892 893 903
f 893 894 904
f 894 895 905
f 895 896 906
f 896 897 907
f 897 898 908
f 898 899 909
f 899 900 910
f 900 891 901
f 901 902 912
f 902 903 913
f 903 904 914
f 904 905 915
f 905 906 916
f 906 907 917
f 907 908 918
f 908 909 919
f 909 910 920
f 910 901 911
f 911 912 922
f 912 913 923
f 913 914 924
f 914 915 925
f 915 916 926
f 916 917 927
f 917 918 928
f 918 919 929
f 919 920 930
f 920 911 921
f 921 922 932
f 922 923 933
f 923 924 934
f 924 925 935
f 925 926 936
f 926 927 937
f 927 928 938
f 928 929 939
f 929 930 940
f 930 921 931
f 931 932 942
f 932 933 943
f 933 934 944
f 934 935 945
f 935 936 946
f 936 937 947
f 937 938 948
f 938 939 949
f 939 940 950
f 940 931 941
f 941 942 952
f 942 943 953
f 943 944 954
f 944 945 955
f 945 946 956
f 946 947 957
f 947 948 958
f 948 949 959
f 949 950 960
f 950 941 951
f 951 952 962
f 952 953 963
f 953 954 964
f 954 955 965
f 955 956 966
f 956 957 967
f 957 958 968
f 958 959 969
f 959 960 970
f 960 951 961
f 961 962 972
f 962 963 973
f 963 964 974
f 964 965 975
f 965 966 976
f 966 967 977
f 967 968 978
f 968 969 979
f 969 970 980
f 970 961 971
f 971 972 982
f 972 973 983
f 973 974 984
f 974 975 985
f 975 976 986
f 976 977 987
f 977 978 988
f 978 979 989
f 979 980 990
f 980 971 981
f 981 982 992
f 982 983 993
f 983 984 994
f 984 985 995
f 985 986 996
f 986 987 997
f 987 988 998
f 988 989 999
f 989 990 1000
f 990 981 991
f 991 992 1002
f 992 993 1003
f 993 994 1004
f 994 995 1005
f 995 996 1006
f 996 997 1007
f 997 998 1008
f 998 999 1009
f 999 1000 1010
f 1000 991 1001
f 1001 1002 1012
f 1002 1003 1013
f 1003 1004 1014
f 1004 1005 1015
f 1005 1006 1016
f 1006 1007 1017
f 1007 1008 1018
f 1008 1009 1019
f 1009 1010 1020
f 1010 1001 1011
f 1011 1012 1022
f 1012 1013 1023
f 1013 1014 1024
f 1014 1015 1025
f 1015 1016 1026
f 1016 1017 1027
f 1017 1018 1028
f 1018 1019 1029
f 1019 1020 1030
f 1020 1011 1021
f 1021 1022 1032
f 1022 1023 1033
f 1023 1024 1034
f 1024 1025 1035
f 1025 1026 1036
f 1026 1027 1037
f 1027 1028 1038
f 1028 1029 1039
f 1029 1030 1040
f 1030 1021 1031
f 1031 1032 1042
f 1032 1033 1043
f 1033 1034 1044
f 1034 1035 1045
f 1035 1036 1046
f 1036 1037 1047
f 1037 1038 1048
f 1038 1039 1049
f 1039 1040 1050
f 1040 1031 1041
f 1041 1042 1052
f 1042 1043 1053
f 1043 1044 1054
f 1044 1045 1055
f 1045 1046 1056
f 1046 1047 1057
f 1047 1048 1058
f 1048 1049 1059
f 1049 1050 1060
f 1050 1041 1051
f 1051 1052 1062
f 1052 1053 1063
f 1053 1054 1064
f 1054 1055 1065
f 1055 1056 1066
f 1056 1057 1067
f 1057 1058 1068
f 1058 1059 1069
f 1059 1060 1070
f 1060 1051 1061
f 1061 1062 1072
f 1062 1063 1073
f 1063 1064 1074
f 1064 1065 1075
f 1065 1066 1076
f 1066 1067 1077
f 1067 1068 1078
f 1068 1069 1079
f 1069 1070 1080
f 1070 1061 1071
f 1071 1072 1082
f 1072 1073 1083
f 1073 1074 1084
f 1074 1075 1085
f 1075 1076 1086
f 1076 1077 1087
f 1077 1078 1088
f 1078 1079 1089
f 1079 1080 1090
f 1080 1071 1081
f 1081 1082 1092
f 1082 1083 1093
f 1083 1084 1094
f 1084 1085 1095
f 1085 1086 1096
f 1086 1087 1097
f 1087 1088 1098
f 1088 1089 1099
f 1089 1090 1100
f 1090 1081 1091
f 1091 1092 1102
f 1092 1093 1103
f 1093 1094 1104
f 1094 1095 1105
f 1095 1096 1106
f 1096 1097 1107
f 1097 1098 1108
f 1098 1099 1109
f 1099 1100 1110
f 1100 1091 1101
f 1101 1102 1112
f 1102 1103 1113
f 1103 1104 1114
f 1104 1105 1115
f 1105 1106 1116
f 1106 1107 1117
f 1107 1108 1118
f 1108 1109 1119
f 1109 1110 1120
f 1110 1101 1111
f 1111 1112 1122
f 1112 1113 1123
f 1113 1114 1124
f 1114 1115 1125
f 1115 1116 1126
f 1116 1117 1127
f 1117 1118 1128
f 1118 1119 1129
f 1119 1120 1130
f 1120 1111 1121
f 1121 1122 1132
f 1122 1123 1133
f 1123 1124 1134
f 1124 1125 1135
f 1125 1126 1136
f 1126 1127 1137
f 1127 1128 1138
f 1128 1129 1139
f 1129 1130 1140
f 1130 1121 1131
f 1131 1132 1142
f 1132 1133 1143
f 1133 1134 1144
f 1134 1135 1145
f 1135 1136 1146
f 1136 1137 1147
f 1137 1138 1148
f 1138 1139 1149
f 1139 1140 1150
f 1140 1131 1141
f 1141 1142 1152
f 1142 1143 1153
f 1143 1144 1154
f 1144 1145 1155
f 1145 1146 1156
f 1146 1147 1157
f 1147 1148 1158
f 1148 1149 1159
f 1149 1150 1160
f 1150 1141 1151
f 1151 1152 1162
f 1152 1153 1163
f 1153 1154 1164
f 1154 1155 1165
f 1155 1156 1166
f 1156 1157 1167
f 1157 1158 1168
f 1158 1159 1169
f 1159 1160 1170
f 1160 1151 1161
f 1161 1162 1172
f 1162 1163 1173
f 1163 1164 1174
f 1164 1165 1175
f 1165 1166 1176
f 1166 1167 1177
f 1167 1168 1178
f 1168 1169 1179
f 1169 1170 1180
f 1170 1161 1171
f 1171 1172 1182
f 1172 1173 1183
f 1173 1174 1184
f 1174 1175 1185
f 1175 1176 1186
f 1176 1177 1187
f 1177 1178 1188
f 1178 1179 1189
f 1179 1180 1190
f 1180 1171 1181
f 1181 1182 1192
f 1182 1183 1193
f 1183 1184 1194
f 1184 1185 1195
f 1185 1186 1196
f 1186 1187 1197
f 1187 1188 1198
f 1188 1189 1199
f 1189 1190 1200
f 1190 1181 1191
f 1191 1192 1202
f 1192 1193 1203
f 1193 1194 1204
f 1194 1195 1205
f 1195 1196 1206
f 1196 1197 1207
f 1197 1198 1208
f 1198 1199 1209
f 1199 1200 1210
f 1200 1191 1201
f 1201 1202 1212
f 1202 1203 1213
f 1203 1204 1214
f 1204 1205 1215
f 1205 1206 1216
f 1206 1207 1217
f 1207 1208 1218
f 1208 1209 1219
f 1209 1210 1220
f 1210 1201 1211
f 1211 1212 1222
f 1212 1213 1223
f 1213 1214 1224
f 1214 1215 1225
f 1215 1216 1226
f 1216 1217 1227
f 1217 1218 1228
f 1218 1219 1229
f 1219 1220 1230
f 1220 1211 1221
f 1221 1222 1232
f 1222 1223 1233
f 1223 1224 1234
f 1224 1225 1235
f 1225 1226 1236
f 1226 1227 1237
f 1227 1228 1238
f 1228 1229 1239
f 1229 1230 1240
f 1230 1221 1231
f 1231 1232 1242
f 1232 1233 1243
f 1233 1234 1244
f 1234 1235 1245
f 1235 1236 1246
f 1236 1237 1247
f 1237 1238 1248
f 1238 1239 1249
f 1239 1240 1250
f 1240 1231 1241
f 1241 1242 1252
f 1242 1243 1253
f 1243 1244 1254
f 1244 1245 1255
f 1245 1246 1256
f 1246 1247 1257
f 1247 1248 1258
f 1248 1249 1259
f 1249 1250 1260
f 1250 1241 1251
f 1251 1252 1262
f 1252 1253 1263
f 1253 1254 1264
f 1254 1255 1265
f 1255 1256 1266
f 1256 1257 1267
f 1257 1258 1268
f 1258 1259 1269
f 1259 1260 1270
f 1260 1251 1261
f 1261 1262 1272
f 1262 1263 1273
f 1263 1264 1274
f 1264 1265 1275
f 1265 1266 1276
f 1266 1267 1277
f 1267 1268 1278
f 1268 1269 1279
f 1269 1270 1280
f 1270 1261 1271
f 1271 1272 1282
f 1272 1273 1283
f 1274 1284 1283
f 1275 1285 1284
f 1276 1286 1285
f 1277 1287 1286
f 1278 1288 1287
f 1278 1279 1289
f 1279 1280 1290
f 1280 1271 1281
