# eclipse_carrier Orbit1_OrbitLine.obj: Roblox cue frame, recentred on its bounding box
v -1.65863 0.56632 1.64947
v -1.67109 0.55772 1.66673
v -1.67349 0.53697 1.67626
v -1.66442 0.51622 1.67247
v -1.64920 0.50762 1.65759
v -1.63674 0.51622 1.64032
v -1.63434 0.53697 1.63079
v -1.64340 0.55772 1.63458
v -1.57117 0.59078 1.72477
v -1.58329 0.58228 1.74232
v -1.58563 0.56155 1.75190
v -1.57681 0.54073 1.74791
v -1.56200 0.53202 1.73267
v -1.54988 0.54052 1.71512
v -1.54755 0.56125 1.70554
v -1.55637 0.58207 1.70953
v -1.47980 0.61393 1.79599
v -1.49122 0.60561 1.81410
v -1.49342 0.58491 1.82379
v -1.48512 0.56396 1.81940
v -1.47118 0.55503 1.80350
v -1.45976 0.56334 1.78540
v -1.45756 0.58404 1.77570
v -1.46586 0.60499 1.78009
v -1.38487 0.63566 1.86287
v -1.39555 0.62752 1.88149
v -1.39762 0.60685 1.89129
v -1.38985 0.58578 1.88653
v -1.37680 0.57663 1.87000
v -1.36612 0.58478 1.85138
v -1.36405 0.60544 1.84158
v -1.37182 0.62651 1.84634
v -1.28660 0.65593 1.92524
v -1.29653 0.64794 1.94434
v -1.29845 0.62732 1.95424
v -1.29124 0.60612 1.94913
v -1.27911 0.59678 1.93202
v -1.26918 0.60476 1.91291
v -1.26726 0.62539 1.90302
v -1.27447 0.64658 1.90812
v -1.18523 0.67468 1.98294
v -1.19438 0.66685 2.00249
v -1.19615 0.64625 2.01248
v -1.18951 0.62495 2.00706
v -1.17834 0.61542 1.98940
v -1.16919 0.62325 1.96985
v -1.16742 0.64385 1.95986
v -1.17406 0.66515 1.96529
v -1.08100 0.69187 2.03585
v -1.08935 0.68418 2.05581
v -1.09097 0.66361 2.06588
v -1.08491 0.64221 2.06017
v -1.07473 0.63252 2.04201
v -1.06638 0.64021 2.02205
v -1.06476 0.66078 2.01198
v -1.07082 0.68218 2.01769
v -0.97417 0.70746 2.08383
v -0.98170 0.69989 2.10416
v -0.98316 0.67935 2.11431
v -0.97770 0.65786 2.10833
v -0.96853 0.64802 2.08973
v -0.96100 0.65558 2.06940
v -0.95954 0.67613 2.05925
v -0.96500 0.69762 2.06522
v -0.86500 0.72141 2.12676
v -0.87168 0.71396 2.14742
v -0.87298 0.69344 2.15764
v -0.86814 0.67187 2.15143
v -0.85999 0.66189 2.13243
v -0.85331 0.66934 2.11176
v -0.85201 0.68986 2.10154
v -0.85685 0.71143 2.10776
v -0.75374 0.73369 2.16455
v -0.75956 0.72634 2.18551
v -0.76070 0.70584 2.19579
v -0.75648 0.68420 2.18937
v -0.74938 0.67410 2.17001
v -0.74356 0.68145 2.14905
v -0.74242 0.70195 2.13877
v -0.74664 0.72359 2.14519
v -0.64067 0.74427 2.19710
v -0.64562 0.73701 2.21831
v -0.64659 0.71653 2.22865
v -0.64300 0.69483 2.22205
v -0.63697 0.68462 2.20239
v -0.63202 0.69188 2.18118
v -0.63105 0.71236 2.17084
v -0.63463 0.73406 2.17744
v -0.52605 0.75312 2.22433
v -0.53012 0.74593 2.24576
v -0.53091 0.72547 2.25614
v -0.52797 0.70372 2.24940
v -0.52302 0.69342 2.22948
v -0.51895 0.70061 2.20806
v -0.51816 0.72107 2.19768
v -0.52110 0.74282 2.20442
v -0.41017 0.76022 2.24618
v -0.41334 0.75309 2.26778
v -0.41396 0.73264 2.27820
v -0.41167 0.71085 2.27134
v -0.40781 0.70048 2.25122
v -0.40463 0.70761 2.22963
v -0.40401 0.72806 2.21921
v -0.40631 0.74985 2.22607
v -0.29330 0.76556 2.26260
v -0.29557 0.75848 2.28433
v -0.29601 0.73804 2.29478
v -0.29437 0.71621 2.28783
v -0.29161 0.70579 2.26756
v -0.28934 0.71287 2.24584
v -0.28890 0.73331 2.23539
v -0.29054 0.75513 2.24233
v -0.17572 0.76912 2.27355
v -0.17708 0.76207 2.29536
v -0.17735 0.74164 2.30583
v -0.17637 0.71979 2.29883
v -0.17471 0.70933 2.27846
v -0.17335 0.71638 2.25665
v -0.17309 0.73681 2.24618
v -0.17407 0.75865 2.25318
v -0.05773 0.77089 2.27899
v -0.05817 0.76386 2.30085
v -0.05826 0.74343 2.31133
v -0.05794 0.72158 2.30431
v -0.05739 0.71109 2.28389
v -0.05695 0.71812 2.26204
v -0.05686 0.73854 2.25155
v -0.05718 0.76040 2.25857
v 0.06041 0.77087 2.27892
v 0.06088 0.76385 2.30078
v 0.06097 0.74342 2.31127
v 0.06063 0.72156 2.30426
v 0.06007 0.71107 2.28384
v 0.05960 0.71809 2.26198
v 0.05951 0.73852 2.25149
v 0.05984 0.76038 2.25851
v 0.17840 0.76906 2.27334
v 0.17978 0.76203 2.29516
v 0.18005 0.74160 2.30565
v 0.17906 0.71975 2.29867
v 0.17738 0.70927 2.27831
v 0.17600 0.71630 2.25649
v 0.17573 0.73673 2.24600
v 0.17672 0.75858 2.25298
v 0.29596 0.76546 2.26226
v 0.29825 0.75841 2.28399
v 0.29871 0.73798 2.29447
v 0.29706 0.71615 2.28756
v 0.29427 0.70570 2.26730
v 0.29198 0.71275 2.24557
v 0.29153 0.73317 2.23510
v 0.29318 0.75501 2.24201
v 0.41281 0.76008 2.24571
v 0.41600 0.75299 2.26731
v 0.41664 0.73256 2.27777
v 0.41434 0.71076 2.27096
v 0.41045 0.70035 2.25086
v 0.40725 0.70744 2.22926
v 0.40662 0.72787 2.21880
v 0.40892 0.74968 2.22561
v 0.52866 0.75294 2.22372
v 0.53275 0.74580 2.24516
v 0.53356 0.72536 2.25559
v 0.53062 0.70360 2.24890
v 0.52564 0.69325 2.22902
v 0.52155 0.70039 2.20758
v 0.52074 0.72083 2.19715
v 0.52368 0.74260 2.20384
v 0.64324 0.74405 2.19636
v 0.64822 0.73685 2.21758
v 0.64921 0.71640 2.22798
v 0.64562 0.69468 2.22145
v 0.63957 0.68441 2.20182
v 0.63459 0.69161 2.18060
v 0.63360 0.71206 2.17020
v 0.63718 0.73378 2.17673
v 0.75627 0.73343 2.16368
v 0.76212 0.72616 2.18465
v 0.76329 0.70569 2.19500
v 0.75908 0.68403 2.18866
v 0.75196 0.67386 2.16935
v 0.74610 0.68114 2.14837
v 0.74493 0.70160 2.13802
v 0.74915 0.72326 2.14436
v 0.86747 0.72112 2.12576
v 0.87419 0.71375 2.14645
v 0.87553 0.69327 2.15674
v 0.87070 0.67167 2.15062
v 0.86253 0.66161 2.13166
v 0.85581 0.66898 2.11098
v 0.85448 0.68946 2.10068
v 0.85930 0.71106 2.10681
v 0.97658 0.70713 2.08270
v 0.98415 0.69966 2.10305
v 0.98566 0.67916 2.11329
v 0.98023 0.65764 2.10741
v 0.97103 0.64770 2.08886
v 0.96347 0.65517 2.06851
v 0.96196 0.67567 2.05828
v 0.96739 0.69719 2.06416
v 1.08334 0.69150 2.03461
v 1.09174 0.68392 2.05459
v 1.09342 0.66340 2.06475
v 1.08739 0.64196 2.05914
v 1.07719 0.63217 2.04105
v 1.06880 0.63975 2.02107
v 1.06712 0.66027 2.01091
v 1.07315 0.68171 2.01651
v 1.18750 0.67428 1.98158
v 1.19670 0.66656 2.00115
v 1.19854 0.64602 2.01124
v 1.19194 0.62468 2.00593
v 1.18076 0.61504 1.98835
v 1.17156 0.62275 1.96878
v 1.16972 0.64330 1.95869
v 1.17632 0.66464 1.96399
v 1.28878 0.65549 1.92376
v 1.29878 0.64764 1.94289
v 1.30078 0.62707 1.95289
v 1.29361 0.60583 1.94791
v 1.28148 0.59636 1.93087
v 1.27149 0.60422 1.91174
v 1.26949 0.62479 1.90174
v 1.27665 0.64603 1.90672
v 1.38697 0.63519 1.86129
v 1.39772 0.62719 1.87993
v 1.39988 0.60659 1.88984
v 1.39217 0.58546 1.88521
v 1.37912 0.57618 1.86876
v 1.36836 0.58419 1.85012
v 1.36621 0.60479 1.84021
v 1.37391 0.62591 1.84484
v 1.48181 0.61343 1.79431
v 1.49330 0.60526 1.81243
v 1.49561 0.58463 1.82224
v 1.48738 0.56362 1.81799
v 1.47343 0.55454 1.80217
v 1.46194 0.56271 1.78405
v 1.45963 0.58334 1.77424
v 1.46786 0.60435 1.77849
v 1.57308 0.59026 1.72298
v 1.58529 0.58192 1.74055
v 1.58774 0.56125 1.75025
v 1.57901 0.54037 1.74640
v 1.56420 0.53150 1.73126
v 1.55200 0.53984 1.71369
v 1.54954 0.56051 1.70399
v 1.55828 0.58139 1.70784
v 1.66056 0.56573 1.64748
v 1.67345 0.55720 1.66447
v 1.67604 0.53650 1.67405
v 1.66683 0.51575 1.67063
v 1.65120 0.50711 1.65620
v 1.63831 0.51564 1.63921
v 1.63572 0.53634 1.62962
v 1.64494 0.55709 1.63305
v 1.74404 0.53990 1.56799
v 1.75758 0.53118 1.58436
v 1.76031 0.51044 1.59383
v 1.75063 0.48983 1.59085
v 1.73422 0.48143 1.57716
v 1.72069 0.49015 1.56080
v 1.71796 0.51089 1.55133
v 1.72763 0.53150 1.55431
v 1.82332 0.51284 1.48470
v 1.83748 0.50392 1.50042
v 1.84033 0.48314 1.50976
v 1.83022 0.46268 1.50725
v 1.81306 0.45452 1.49435
v 1.79891 0.46345 1.47863
v 1.79605 0.48423 1.46929
v 1.80617 0.50469 1.47180
v 1.89821 0.48461 1.39781
v 1.91295 0.47547 1.41286
v 1.91593 0.45465 1.42207
v 1.90540 0.43434 1.42004
v 1.88754 0.42645 1.40796
v 1.87280 0.43559 1.39291
v 1.86982 0.45641 1.38371
v 1.88035 0.47672 1.38573
v 1.96852 0.45528 1.30753
v 1.98381 0.44592 1.32188
v 1.98690 0.42505 1.33095
v 1.97599 0.40491 1.32942
v 1.95747 0.39728 1.31820
v 1.94219 0.40664 1.30385
v 1.93909 0.42751 1.29478
v 1.95000 0.44765 1.29631
v 2.03409 0.42492 1.21408
v 2.04989 0.41532 1.22770
v 2.05309 0.39441 1.23663
v 2.04183 0.37443 1.23562
v 2.02269 0.36709 1.22528
v 2.00689 0.37668 1.21166
v 2.00368 0.39759 1.20273
v 2.01495 0.41757 1.20374
v 2.09476 0.39360 1.11768
v 2.11103 0.38377 1.13055
v 2.11434 0.36281 1.13933
v 2.10274 0.34300 1.13886
v 2.08303 0.33594 1.12943
v 2.06676 0.34577 1.11656
v 2.06345 0.36673 1.10778
v 2.07505 0.38654 1.10825
v 2.15038 0.36140 1.01857
v 2.16709 0.35132 1.03067
v 2.17049 0.33031 1.03929
v 2.15859 0.31068 1.03938
v 2.13835 0.30392 1.03088
v 2.12165 0.31399 1.01878
v 2.11825 0.33500 1.01016
v 2.13015 0.35464 1.01007
v 2.20083 0.32839 0.91698
v 2.21793 0.31806 0.92829
v 2.22141 0.29700 0.93675
v 2.20923 0.27755 0.93741
v 2.18853 0.27110 0.92987
v 2.17142 0.28142 0.91855
v 2.16794 0.30248 0.91009
v 2.18012 0.32194 0.90944
v 2.24597 0.29466 0.81315
v 2.26342 0.28407 0.82366
v 2.26698 0.26296 0.83196
v 2.25456 0.24369 0.83319
v 2.23343 0.23755 0.82663
v 2.21597 0.24814 0.81612
v 2.21241 0.26925 0.80782
v 2.22484 0.28852 0.80659
v 2.28570 0.26028 0.70735
v 2.30346 0.24944 0.71704
v 2.30709 0.22827 0.72517
v 2.29445 0.20919 0.72699
v 2.27295 0.20337 0.72143
v 2.25518 0.21421 0.71174
v 2.25155 0.23538 0.70361
v 2.26419 0.25446 0.70179
v 2.31992 0.22535 0.59982
v 2.33796 0.21423 0.60867
v 2.34164 0.19302 0.61664
v 2.32882 0.17412 0.61905
v 2.30700 0.16862 0.61450
v 2.28896 0.17974 0.60566
v 2.28527 0.20095 0.59769
v 2.29809 0.21985 0.59528
v 2.34855 0.18993 0.49083
v 2.36682 0.17855 0.49883
v 2.37056 0.15728 0.50662
v 2.35758 0.13858 0.50964
v 2.33549 0.13340 0.50612
v 2.31722 0.14479 0.49812
v 2.31348 0.16606 0.49033
v 2.32646 0.18476 0.48731
v 2.37153 0.15413 0.38063
v 2.38997 0.14247 0.38777
v 2.39376 0.12114 0.39539
v 2.38066 0.10264 0.39902
v 2.35835 0.09780 0.39654
v 2.33990 0.10945 0.38939
v 2.33612 0.13078 0.38178
v 2.34922 0.14929 0.37815
v 2.38879 0.11802 0.26949
v 2.40737 0.10609 0.27577
v 2.41119 0.08470 0.28321
v 2.39800 0.06639 0.28745
v 2.37553 0.06189 0.28602
v 2.35695 0.07382 0.27974
v 2.35313 0.09520 0.27230
v 2.36632 0.11351 0.26805
v 2.40030 0.08169 0.15768
v 2.41897 0.06948 0.16309
v 2.42281 0.04804 0.17035
v 2.40957 0.02993 0.17521
v 2.38699 0.02576 0.17483
v 2.36831 0.03797 0.16943
v 2.36447 0.05941 0.16216
v 2.37772 0.07752 0.15730
v 2.40602 0.04523 0.04547
v 2.42475 0.03274 0.05000
v 2.42860 0.01125 0.05708
v 2.41533 -0.00667 0.06257
v 2.39270 -0.01050 0.06324
v 2.37397 0.00199 0.05871
v 2.37012 0.02349 0.05163
v 2.38339 0.04140 0.04614
v 2.40595 0.00873 -0.06688
v 2.42468 -0.00404 -0.06322
v 2.42854 -0.02559 -0.05632
v 2.41527 -0.04331 -0.05021
v 2.39264 -0.04680 -0.04848
v 2.37391 -0.03404 -0.05213
v 2.37005 -0.01248 -0.05904
v 2.38332 0.00524 -0.06514
v 2.40008 -0.02772 -0.17908
v 2.41877 -0.04077 -0.17630
v 2.42263 -0.06239 -0.16958
v 2.40939 -0.07990 -0.16285
v 2.38682 -0.08306 -0.16006
v 2.36814 -0.07001 -0.16284
v 2.36428 -0.04840 -0.16956
v 2.37751 -0.03088 -0.17629
v 2.38843 -0.06405 -0.29088
v 2.40703 -0.07737 -0.28897
v 2.41088 -0.09904 -0.28243
v 2.39771 -0.11636 -0.27508
v 2.37525 -0.11919 -0.27124
v 2.35665 -0.10586 -0.27315
v 2.35281 -0.08419 -0.27969
v 2.36597 -0.06687 -0.28703
v 2.37103 -0.10015 -0.40199
v 2.38950 -0.11375 -0.40095
v 2.39332 -0.13548 -0.39459
v 2.38026 -0.15261 -0.38664
v 2.35796 -0.15510 -0.38175
v 2.33950 -0.14149 -0.38279
v 2.33567 -0.11976 -0.38915
v 2.34874 -0.10264 -0.39710
v 2.34792 -0.13594 -0.51216
v 2.36621 -0.14982 -0.51198
v 2.37000 -0.17161 -0.50580
v 2.35707 -0.18854 -0.49724
v 2.33499 -0.19070 -0.49131
v 2.31670 -0.17682 -0.49149
v 2.31291 -0.15503 -0.49767
v 2.32584 -0.13810 -0.50624
v 2.31915 -0.17134 -0.62112
v 2.33722 -0.18549 -0.62179
v 2.34097 -0.20734 -0.61579
v 2.32820 -0.22408 -0.60663
v 2.30639 -0.22591 -0.59967
v 2.28832 -0.21176 -0.59900
v 2.28457 -0.18992 -0.60501
v 2.29734 -0.17318 -0.61417
v 2.28479 -0.20627 -0.72861
v 2.30260 -0.22068 -0.73012
v 2.30630 -0.24258 -0.72429
v 2.29372 -0.25913 -0.71454
v 2.27224 -0.26064 -0.70657
v 2.25443 -0.24623 -0.70506
v 2.25073 -0.22433 -0.71089
v 2.26331 -0.20777 -0.72064
v 2.24493 -0.24062 -0.83436
v 2.26243 -0.25531 -0.83670
v 2.26607 -0.27726 -0.83104
v 2.25372 -0.29363 -0.82071
v 2.23261 -0.29482 -0.81175
v 2.21511 -0.28014 -0.80941
v 2.21147 -0.25818 -0.81506
v 2.22382 -0.24182 -0.82540
v 2.19966 -0.27434 -0.93812
v 2.21681 -0.28928 -0.94127
v 2.22038 -0.31129 -0.93579
v 2.20828 -0.32747 -0.92488
v 2.18760 -0.32835 -0.91495
v 2.17046 -0.31341 -0.91180
v 2.16688 -0.29140 -0.91728
v 2.17898 -0.27522 -0.92818
v 2.14909 -0.30732 -1.03965
v 2.16585 -0.32252 -1.04359
v 2.16935 -0.34458 -1.03828
v 2.15753 -0.36059 -1.02681
v 2.13733 -0.36116 -1.01592
v 2.12057 -0.34597 -1.01198
v 2.11708 -0.32391 -1.01729
v 2.12889 -0.30790 -1.02875
v 2.09335 -0.33950 -1.13869
v 2.10967 -0.35494 -1.14341
v 2.11308 -0.37706 -1.13826
v 2.10158 -0.39289 -1.12625
v 2.08190 -0.39317 -1.11443
v 2.06558 -0.37773 -1.10971
v 2.06217 -0.35562 -1.11486
v 2.07367 -0.33978 -1.12687
v 2.03256 -0.37080 -1.23501
v 2.04842 -0.38648 -1.24049
v 2.05173 -0.40864 -1.23550
v 2.04057 -0.42431 -1.22296
v 2.02146 -0.42430 -1.21023
v 2.00561 -0.40862 -1.20476
v 2.00229 -0.38646 -1.20975
v 2.01346 -0.37079 -1.22228
v 1.96688 -0.40113 -1.32838
v 1.98222 -0.41705 -1.33459
v 1.98544 -0.43926 -1.32975
v 1.97464 -0.45477 -1.31671
v 1.95615 -0.45448 -1.30310
v 1.94080 -0.43856 -1.29689
v 1.93759 -0.41635 -1.30173
v 1.94839 -0.40085 -1.31477
v 1.89646 -0.43044 -1.41858
v 1.91126 -0.44657 -1.42549
v 1.91436 -0.46884 -1.42080
v 1.90395 -0.48418 -1.40727
v 1.88612 -0.48363 -1.39280
v 1.87132 -0.46749 -1.38589
v 1.86822 -0.44523 -1.39058
v 1.87863 -0.42988 -1.40411
v 1.82147 -0.45864 -1.50537
v 1.83568 -0.47499 -1.51297
v 1.83867 -0.49730 -1.50843
v 1.82867 -0.51250 -1.49441
v 1.81155 -0.51168 -1.47914
v 1.79734 -0.49533 -1.47154
v 1.79435 -0.47302 -1.47608
v 1.80435 -0.45782 -1.49009
v 1.74209 -0.48567 -1.58856
v 1.75569 -0.50223 -1.59681
v 1.75855 -0.52458 -1.59241
v 1.74899 -0.53963 -1.57795
v 1.73262 -0.53857 -1.56188
v 1.71902 -0.52201 -1.55364
v 1.71616 -0.49965 -1.55803
v 1.72572 -0.48460 -1.57250
v 1.65852 -0.51146 -1.66795
v 1.67147 -0.52822 -1.67682
v 1.67419 -0.55061 -1.67256
v 1.66510 -0.56553 -1.65766
v 1.64951 -0.56423 -1.64085
v 1.63656 -0.54747 -1.63198
v 1.63384 -0.52507 -1.63624
v 1.64293 -0.51016 -1.65114
v 1.57095 -0.53595 -1.74334
v 1.58322 -0.55290 -1.75281
v 1.58580 -0.57534 -1.74867
v 1.57719 -0.59012 -1.73336
v 1.56243 -0.58859 -1.71584
v 1.55016 -0.57165 -1.70638
v 1.54758 -0.54921 -1.71051
v 1.55619 -0.53443 -1.72582
v 1.47960 -0.55909 -1.81456
v 1.49116 -0.57621 -1.82458
v 1.49360 -0.59869 -1.82057
v 1.48549 -0.61335 -1.80487
v 1.47158 -0.61161 -1.78668
v 1.46003 -0.59449 -1.77666
v 1.45759 -0.57201 -1.78067
v 1.46570 -0.55735 -1.79637
v 1.38469 -0.58081 -1.88142
v 1.39550 -0.59810 -1.89197
v 1.39779 -0.62062 -1.88807
v 1.39020 -0.63516 -1.87201
v 1.37719 -0.63323 -1.85319
v 1.36637 -0.61594 -1.84264
v 1.36409 -0.59343 -1.84654
v 1.37167 -0.57888 -1.86260
v 1.28643 -0.60107 -1.94378
v 1.29649 -0.61852 -1.95482
v 1.29861 -0.64106 -1.95103
v 1.29157 -0.65550 -1.93463
v 1.27948 -0.65338 -1.91522
v 1.26943 -0.63594 -1.90418
v 1.26730 -0.61339 -1.90797
v 1.27435 -0.59895 -1.92437
v 1.18509 -0.61982 -2.00147
v 1.19435 -0.63740 -2.01297
v 1.19631 -0.65998 -2.00928
v 1.18982 -0.67432 -1.99256
v 1.17869 -0.67203 -1.97262
v 1.16943 -0.65445 -1.96112
v 1.16746 -0.63187 -1.96481
v 1.17395 -0.61753 -1.98152
v 1.08088 -0.63700 -2.05437
v 1.08933 -0.65472 -2.06628
v 1.09112 -0.67733 -2.06269
v 1.08521 -0.69158 -2.04568
v 1.07505 -0.68913 -2.02524
v 1.06661 -0.67141 -2.01332
v 1.06481 -0.64881 -2.01692
v 1.07073 -0.63455 -2.03392
v 0.97408 -0.65259 -2.10234
v 0.98169 -0.67042 -2.11463
v 0.98331 -0.69306 -2.11112
v 0.97798 -0.70723 -2.09386
v 0.96883 -0.70464 -2.07296
v 0.96121 -0.68680 -2.06067
v 0.95960 -0.66417 -2.06418
v 0.96493 -0.65000 -2.08144
v 0.86493 -0.66653 -2.14526
v 0.87169 -0.68447 -2.15790
v 0.87313 -0.70713 -2.15446
v 0.86840 -0.72123 -2.13697
v 0.86027 -0.71852 -2.11567
v 0.85351 -0.70058 -2.10303
v 0.85207 -0.67792 -2.10647
v 0.85680 -0.66382 -2.12396
v 0.75369 -0.67881 -2.18305
v 0.75958 -0.69684 -2.19598
v 0.76084 -0.71952 -2.19261
v 0.75672 -0.73356 -2.17492
v 0.74964 -0.73073 -2.15326
v 0.74375 -0.71270 -2.14032
v 0.74249 -0.69002 -2.14369
v 0.74661 -0.67598 -2.16139
v 0.64064 -0.68938 -2.21559
v 0.64565 -0.70749 -2.22878
v 0.64672 -0.73019 -2.22548
v 0.64322 -0.74417 -2.20761
v 0.63720 -0.74126 -2.18564
v 0.63219 -0.72314 -2.17245
v 0.63112 -0.70045 -2.17576
v 0.63462 -0.68646 -2.19363
v 0.52605 -0.69823 -2.24282
v 0.53016 -0.71640 -2.25623
v 0.53104 -0.73912 -2.25298
v 0.52817 -0.75306 -2.23496
v 0.52323 -0.75006 -2.21274
v 0.51911 -0.73188 -2.19933
v 0.51823 -0.70917 -2.20258
v 0.52111 -0.69523 -2.22060
v 0.41019 -0.70532 -2.26467
v 0.41340 -0.72355 -2.27826
v 0.41408 -0.74628 -2.27504
v 0.41185 -0.76019 -2.25691
v 0.40799 -0.75713 -2.23448
v 0.40478 -0.73890 -2.22090
v 0.40410 -0.71618 -2.22411
v 0.40634 -0.70227 -2.24224
v 0.29334 -0.71066 -2.28109
v 0.29564 -0.72892 -2.29481
v 0.29613 -0.75166 -2.29163
v 0.29453 -0.76554 -2.27341
v 0.29177 -0.76244 -2.25082
v 0.28948 -0.74417 -2.23710
v 0.28899 -0.72144 -2.24029
v 0.29059 -0.70756 -2.25850
v 0.17579 -0.71421 -2.29203
v 0.17717 -0.73250 -2.30584
v 0.17746 -0.75524 -2.30268
v 0.17650 -0.76911 -2.28441
v 0.17485 -0.76598 -2.26172
v 0.17348 -0.74769 -2.24791
v 0.17318 -0.72495 -2.25107
v 0.17414 -0.71108 -2.26934
v 0.05782 -0.71598 -2.29748
v 0.05827 -0.73428 -2.31133
v 0.05837 -0.75703 -2.30819
v 0.05805 -0.77089 -2.28989
v 0.05751 -0.76775 -2.26715
v 0.05706 -0.74945 -2.25329
v 0.05696 -0.72670 -2.25644
v 0.05727 -0.71284 -2.27474
v -0.06030 -0.71595 -2.29741
v -0.06077 -0.73425 -2.31127
v -0.06087 -0.75700 -2.30813
v -0.06054 -0.77087 -2.28984
v -0.05997 -0.76773 -2.26710
v -0.05950 -0.74943 -2.25324
v -0.05940 -0.72669 -2.25637
v -0.05973 -0.71282 -2.27467
v -0.17826 -0.71414 -2.29183
v -0.17966 -0.73242 -2.30565
v -0.17996 -0.75517 -2.30251
v -0.17899 -0.76905 -2.28425
v -0.17731 -0.76594 -2.26156
v -0.17592 -0.74766 -2.24774
v -0.17562 -0.72491 -2.25088
v -0.17659 -0.71103 -2.26914
v -0.29580 -0.71054 -2.28075
v -0.29812 -0.72879 -2.29449
v -0.29862 -0.75153 -2.29134
v -0.29700 -0.76543 -2.27314
v -0.29423 -0.76236 -2.25056
v -0.29191 -0.74411 -2.23682
v -0.29141 -0.72138 -2.23997
v -0.29302 -0.70747 -2.25817
v -0.41262 -0.70516 -2.26421
v -0.41586 -0.72337 -2.27782
v -0.41655 -0.74609 -2.27465
v -0.41430 -0.76004 -2.25654
v -0.41043 -0.75702 -2.23411
v -0.40720 -0.73882 -2.22049
v -0.40650 -0.71609 -2.22367
v -0.40875 -0.70215 -2.24178
v -0.52845 -0.69802 -2.24223
v -0.53259 -0.71616 -2.25567
v -0.53349 -0.73888 -2.25247
v -0.53061 -0.75286 -2.23448
v -0.52565 -0.74992 -2.21226
v -0.52150 -0.73178 -2.19881
v -0.52061 -0.70906 -2.20202
v -0.52349 -0.69508 -2.22000
v -0.64300 -0.68913 -2.21487
v -0.64804 -0.70720 -2.22810
v -0.64913 -0.72990 -2.22486
v -0.64563 -0.74394 -2.20703
v -0.63960 -0.74109 -2.18506
v -0.63456 -0.72301 -2.17182
v -0.63347 -0.70031 -2.17507
v -0.63697 -0.68627 -2.19290
v -0.75601 -0.67851 -2.18220
v -0.76194 -0.69649 -2.19518
v -0.76322 -0.71918 -2.19188
v -0.75910 -0.73328 -2.17423
v -0.75201 -0.73053 -2.15257
v -0.74608 -0.71255 -2.13959
v -0.74480 -0.68986 -2.14288
v -0.74891 -0.67576 -2.16053
v -0.86719 -0.66619 -2.14429
v -0.87399 -0.68408 -2.15698
v -0.87546 -0.70674 -2.15363
v -0.87075 -0.72091 -2.13619
v -0.86260 -0.71829 -2.11488
v -0.85580 -0.70040 -2.10219
v -0.85433 -0.67774 -2.10554
v -0.85905 -0.66357 -2.12298
v -0.97628 -0.65220 -2.10124
v -0.98394 -0.66997 -2.11360
v -0.98560 -0.69262 -2.11018
v -0.98029 -0.70687 -2.09297
v -0.97113 -0.70438 -2.07207
v -0.96347 -0.68661 -2.05971
v -0.96181 -0.66396 -2.06313
v -0.96712 -0.64971 -2.08034
v -1.08302 -0.63658 -2.05315
v -1.09152 -0.65422 -2.06514
v -1.09336 -0.67684 -2.06164
v -1.08748 -0.69118 -2.04470
v -1.07731 -0.68884 -2.02425
v -1.06881 -0.67120 -2.01226
v -1.06697 -0.64858 -2.01576
v -1.07285 -0.63424 -2.03270
v -1.18715 -0.61935 -2.00014
v -1.19647 -0.63686 -2.01172
v -1.19849 -0.65945 -2.00813
v -1.19204 -0.67388 -1.99149
v -1.18090 -0.67171 -1.97153
v -1.17158 -0.65421 -1.95995
v -1.16956 -0.63162 -1.96354
v -1.17601 -0.61718 -1.98019
v -1.28842 -0.60057 -1.94234
v -1.29853 -0.61792 -1.95347
v -1.30073 -0.64048 -1.94978
v -1.29373 -0.65502 -1.93345
v -1.28164 -0.65304 -1.91404
v -1.27153 -0.63568 -1.90291
v -1.26933 -0.61312 -1.90659
v -1.27633 -0.59858 -1.92292
v -1.38659 -0.58027 -1.87988
v -1.39747 -0.59746 -1.89052
v -1.39984 -0.61999 -1.88674
v -1.39231 -0.63465 -1.87075
v -1.37929 -0.63285 -1.85192
v -1.36841 -0.61566 -1.84128
v -1.36604 -0.59314 -1.84506
v -1.37357 -0.57848 -1.86105
v -1.48141 -0.55851 -1.81291
v -1.49304 -0.57553 -1.82303
v -1.49557 -0.59801 -1.81914
v -1.48753 -0.61280 -1.80351
v -1.47363 -0.61121 -1.78531
v -1.46200 -0.59420 -1.77519
v -1.45946 -0.57171 -1.77909
v -1.46750 -0.55693 -1.79471
v -1.57266 -0.53534 -1.74160
v -1.58501 -0.55217 -1.75116
v -1.58771 -0.57462 -1.74715
v -1.57917 -0.58953 -1.73192
v -1.56441 -0.58817 -1.71438
v -1.55207 -0.57134 -1.70482
v -1.54937 -0.54889 -1.70883
v -1.55790 -0.53398 -1.72407
v -1.66013 -0.51081 -1.66612
v -1.67316 -0.52745 -1.67509
v -1.67601 -0.54985 -1.67095
v -1.66701 -0.56490 -1.65613
v -1.65143 -0.56378 -1.63931
v -1.63839 -0.54714 -1.63033
v -1.63554 -0.52474 -1.63447
v -1.64455 -0.50969 -1.64929
v -1.74359 -0.48499 -1.58664
v -1.75729 -0.50142 -1.59500
v -1.76028 -0.52378 -1.59073
v -1.75083 -0.53897 -1.57634
v -1.73447 -0.53809 -1.56026
v -1.72077 -0.52166 -1.55190
v -1.71778 -0.49930 -1.55617
v -1.72723 -0.48411 -1.57056
v -1.82286 -0.45793 -1.50337
v -1.83717 -0.47414 -1.51107
v -1.84031 -0.49646 -1.50667
v -1.83043 -0.51180 -1.49273
v -1.81332 -0.51118 -1.47743
v -1.79901 -0.49497 -1.46973
v -1.79587 -0.47265 -1.47413
v -1.80575 -0.45731 -1.48807
v -1.89773 -0.42970 -1.41650
v -1.91264 -0.44569 -1.42352
v -1.91591 -0.46795 -1.41897
v -1.90563 -0.48345 -1.40551
v -1.88782 -0.48311 -1.39102
v -1.87291 -0.46712 -1.38399
v -1.86964 -0.44485 -1.38855
v -1.87992 -0.42935 -1.40201
v -1.96803 -0.40037 -1.32624
v -1.98349 -0.41612 -1.33256
v -1.98689 -0.43834 -1.32785
v -1.97623 -0.45400 -1.31488
v -1.95776 -0.45394 -1.30124
v -1.94230 -0.43818 -1.29492
v -1.93890 -0.41597 -1.29962
v -1.94956 -0.40031 -1.31260
v -2.03358 -0.37001 -1.23281
v -2.04956 -0.38552 -1.23839
v -2.05308 -0.40769 -1.23353
v -2.04207 -0.42352 -1.22106
v -2.02299 -0.42374 -1.20830
v -2.00701 -0.40823 -1.20271
v -2.00349 -0.38607 -1.20758
v -2.01450 -0.37024 -1.22004
v -2.09424 -0.33869 -1.13643
v -2.11070 -0.35396 -1.14126
v -2.11433 -0.37606 -1.13623
v -2.10299 -0.39207 -1.12429
v -2.08334 -0.39259 -1.11243
v -2.06688 -0.37733 -1.10760
v -2.06326 -0.35522 -1.11262
v -2.07459 -0.33922 -1.12457
v -2.14985 -0.30650 -1.03733
v -2.16675 -0.32150 -1.04139
v -2.17048 -0.34355 -1.03620
v -2.15885 -0.35974 -1.02479
v -2.13868 -0.36057 -1.01386
v -2.12178 -0.34556 -1.00980
v -2.11805 -0.32351 -1.01500
v -2.12968 -0.30733 -1.02640
v -2.20029 -0.27349 -0.93577
v -2.21759 -0.28823 -0.93903
v -2.22140 -0.31023 -0.93366
v -2.20951 -0.32659 -0.92280
v -2.18886 -0.32774 -0.91282
v -2.17156 -0.31300 -0.90956
v -2.16774 -0.29100 -0.91493
v -2.17964 -0.27464 -0.92578
v -2.24542 -0.23976 -0.83197
v -2.26308 -0.25424 -0.83442
v -2.26698 -0.27617 -0.82887
v -2.25484 -0.29272 -0.81857
v -2.23377 -0.29419 -0.80957
v -2.21611 -0.27972 -0.80712
v -2.21221 -0.25778 -0.81267
v -2.22435 -0.24123 -0.82296
v -2.28514 -0.20539 -0.72619
v -2.30311 -0.21959 -0.72781
v -2.30709 -0.24147 -0.72208
v -2.29474 -0.25821 -0.71236
v -2.27330 -0.26000 -0.70434
v -2.25533 -0.24581 -0.70272
v -2.25135 -0.22393 -0.70845
v -2.26370 -0.20719 -0.71817
v -2.31936 -0.17046 -0.61868
v -2.33760 -0.18438 -0.61946
v -2.34164 -0.20619 -0.61354
v -2.32911 -0.22313 -0.60440
v -2.30735 -0.22526 -0.59739
v -2.28911 -0.21134 -0.59662
v -2.28507 -0.18952 -0.60253
v -2.29760 -0.17259 -0.61167
v -2.34798 -0.13505 -0.50971
v -2.36646 -0.14869 -0.50963
v -2.37055 -0.17044 -0.50353
v -2.35787 -0.18757 -0.49498
v -2.33585 -0.19003 -0.48899
v -2.31737 -0.17640 -0.48907
v -2.31328 -0.15465 -0.49517
v -2.32596 -0.13752 -0.50372
v -2.37096 -0.09925 -0.39953
v -2.38961 -0.11260 -0.39859
v -2.39375 -0.13429 -0.39229
v -2.38096 -0.15161 -0.38434
v -2.35871 -0.15442 -0.37938
v -2.34006 -0.14107 -0.38032
v -2.33591 -0.11938 -0.38662
v -2.34871 -0.10206 -0.39457
v -2.38822 -0.06315 -0.28842
v -2.40701 -0.07621 -0.28660
v -2.41119 -0.09783 -0.28011
v -2.39830 -0.11535 -0.27275
v -2.37590 -0.11851 -0.26884
v -2.35710 -0.10545 -0.27066
v -2.35292 -0.08382 -0.27714
v -2.36581 -0.06630 -0.28450
v -2.39972 -0.02682 -0.17663
v -2.41861 -0.03959 -0.17393
v -2.42281 -0.06116 -0.16725
v -2.40987 -0.07888 -0.16050
v -2.38736 -0.08238 -0.15763
v -2.36847 -0.06960 -0.16032
v -2.36427 -0.04804 -0.16700
v -2.37721 -0.03032 -0.17376
v -2.40545 0.00963 -0.06444
v -2.42438 -0.00285 -0.06086
v -2.42860 -0.02435 -0.05399
v -2.41563 -0.04227 -0.04783
v -2.39307 -0.04611 -0.04602
v -2.37413 -0.03363 -0.04959
v -2.36991 -0.01213 -0.05647
v -2.38288 0.00579 -0.06262
v -2.40538 0.04613 0.04788
v -2.42432 0.03394 0.05234
v -2.42854 0.01251 0.05942
v -2.41557 -0.00561 0.06496
v -2.39301 -0.00981 0.06573
v -2.37407 0.00238 0.06127
v -2.36985 0.02381 0.05419
v -2.38281 0.04193 0.04865
v -2.39951 0.08258 0.16006
v -2.41841 0.07068 0.16540
v -2.42263 0.04932 0.17268
v -2.40970 0.03100 0.17762
v -2.38719 0.02646 0.17734
v -2.36829 0.03835 0.17199
v -2.36407 0.05972 0.16472
v -2.37700 0.07804 0.15978
v -2.38786 0.11890 0.27184
v -2.40667 0.10729 0.27806
v -2.41088 0.08599 0.28553
v -2.39801 0.06747 0.28987
v -2.37562 0.06259 0.28854
v -2.35681 0.07419 0.28232
v -2.35260 0.09549 0.27485
v -2.36547 0.11401 0.27051
v -2.37047 0.15500 0.38293
v -2.38914 0.14368 0.39002
v -2.39332 0.12244 0.39769
v -2.38055 0.10373 0.40143
v -2.35832 0.09850 0.39907
v -2.33965 0.10982 0.39197
v -2.33547 0.13105 0.38430
v -2.34823 0.14977 0.38056
v -2.34736 0.19079 0.49308
v -2.36585 0.17976 0.50104
v -2.37000 0.15858 0.50890
v -2.35736 0.13967 0.51205
v -2.33535 0.13410 0.50865
v -2.31685 0.14513 0.50069
v -2.31271 0.16631 0.49283
v -2.32534 0.18522 0.48968
v -2.31859 0.22619 0.60201
v -2.33686 0.21544 0.61083
v -2.34096 0.19433 0.61889
v -2.32849 0.17523 0.62146
v -2.30674 0.16932 0.61704
v -2.28847 0.18007 0.60822
v -2.28437 0.20117 0.60016
v -2.29685 0.22028 0.59759
v -2.28424 0.26110 0.70948
v -2.30225 0.25064 0.71914
v -2.30629 0.22959 0.72739
v -2.29400 0.21030 0.72938
v -2.27258 0.20406 0.72396
v -2.25458 0.21452 0.71429
v -2.25053 0.23557 0.70604
v -2.26282 0.25486 0.70405
v -2.24439 0.29546 0.81521
v -2.26208 0.28527 0.82571
v -2.26606 0.26428 0.83414
v -2.25399 0.24480 0.83557
v -2.23295 0.23823 0.82915
v -2.21525 0.24843 0.81865
v -2.21127 0.26941 0.81022
v -2.22334 0.28889 0.80879
v -2.19913 0.32917 0.91895
v -2.21647 0.31925 0.93027
v -2.22037 0.29833 0.93889
v -2.20855 0.27866 0.93976
v -2.18793 0.27177 0.93237
v -2.17059 0.28169 0.92105
v -2.16669 0.30261 0.91244
v -2.17851 0.32228 0.91156
v -2.14857 0.36215 1.02046
v -2.16552 0.35249 1.03257
v -2.16933 0.33163 1.04137
v -2.15779 0.31179 1.04170
v -2.13764 0.30459 1.03337
v -2.12070 0.31424 1.02125
v -2.11688 0.33510 1.01245
v -2.12843 0.35495 1.01212
v -2.09284 0.39433 1.11948
v -2.10935 0.38493 1.13238
v -2.11307 0.36413 1.14136
v -2.10183 0.34411 1.14116
v -2.08221 0.33660 1.13190
v -2.06570 0.34600 1.11900
v -2.06197 0.36680 1.11002
v -2.07322 0.38682 1.11022
v -2.03206 0.42562 1.21578
v -2.04809 0.41647 1.22944
v -2.05171 0.39573 1.23859
v -2.04080 0.37554 1.23788
v -2.02175 0.36773 1.22772
v -2.00572 0.37688 1.21406
v -2.00210 0.39762 1.20491
v -2.01301 0.41781 1.20562
v -1.96639 0.45595 1.30913
v -1.98191 0.44705 1.32353
v -1.98542 0.42636 1.33285
v -1.97486 0.40601 1.33164
v -1.95643 0.39791 1.32060
v -1.94091 0.40681 1.30621
v -1.93740 0.42750 1.29689
v -1.94796 0.44786 1.29810
v -1.89599 0.48525 1.39931
v -1.91095 0.47659 1.41441
v -1.91434 0.45595 1.42390
v -1.90416 0.43544 1.42221
v -1.88639 0.42706 1.41033
v -1.87142 0.43573 1.39522
v -1.86804 0.45636 1.38574
v -1.87821 0.47688 1.38743
v -1.82101 0.51345 1.48609
v -1.83539 0.50501 1.50188
v -1.83864 0.48443 1.51152
v -1.82887 0.46376 1.50937
v -1.81180 0.45512 1.49668
v -1.79743 0.46356 1.48088
v -1.79417 0.48414 1.47124
v -1.80394 0.50480 1.47340
v -1.74165 0.54048 1.56926
v -1.75540 0.53226 1.58571
v -1.75852 0.51173 1.59551
v -1.74918 0.49091 1.59291
v -1.73285 0.48201 1.57944
v -1.71911 0.49023 1.56299
v -1.71599 0.51076 1.55320
v -1.72533 0.53157 1.55579
v -1.65821 0.56624 1.64854
v -1.67163 0.55812 1.66530
v -1.67467 0.53761 1.67517
v -1.66556 0.51673 1.67236
v -1.64962 0.50770 1.65852
v -1.63620 0.51582 1.64175
v -1.63315 0.53632 1.63188
v -1.64227 0.55721 1.63469
f 2 9 1
f 3 10 2
f 3 12 11
f 4 13 12
f 5 14 13
f 6 15 14
f 8 15 7
f 1 16 8
f 9 18 17
f 10 19 18
f 11 20 19
f 12 21 20
f 13 22 21
f 14 23 22
f 15 24 23
f 16 17 24
f 17 26 25
f 18 27 26
f 19 28 27
f 20 29 28
f 21 30 29
f 22 31 30
f 23 32 31
f 24 25 32
f 25 34 33
f 26 35 34
f 27 36 35
f 28 37 36
f 29 38 37
f 30 39 38
f 31 40 39
f 32 33 40
f 33 42 41
f 34 43 42
f 35 44 43
f 36 45 44
f 37 46 45
f 38 47 46
f 39 48 47
f 40 41 48
f 41 50 49
f 42 51 50
f 43 52 51
f 44 53 52
f 45 54 53
f 46 55 54
f 47 56 55
f 48 49 56
f 49 58 57
f 50 59 58
f 51 60 59
f 52 61 60
f 53 62 61
f 54 63 62
f 55 64 63
f 56 57 64
f 57 66 65
f 58 67 66
f 59 68 67
f 60 69 68
f 61 70 69
f 62 71 70
f 63 72 71
f 64 65 72
f 65 74 73
f 66 75 74
f 67 76 75
f 68 77 76
f 69 78 77
f 70 79 78
f 71 80 79
f 72 73 80
f 73 82 81
f 74 83 82
f 75 84 83
f 76 85 84
f 77 86 85
f 78 87 86
f 79 88 87
f 80 81 88
f 81 90 89
f 82 91 90
f 83 92 91
f 84 93 92
f 85 94 93
f 86 95 94
f 87 96 95
f 88 89 96
f 89 98 97
f 90 99 98
f 91 100 99
f 92 101 100
f 93 102 101
f 94 103 102
f 95 104 103
f 96 97 104
f 97 106 105
f 98 107 106
f 99 108 107
f 100 109 108
f 101 110 109
f 102 111 110
f 103 112 111
f 104 105 112
f 105 114 113
f 106 115 114
f 107 116 115
f 108 117 116
f 109 118 117
f 110 119 118
f 111 120 119
f 112 113 120
f 113 122 121
f 114 123 122
f 115 124 123
f 116 125 124
f 117 126 125
f 118 127 126
f 119 128 127
f 120 121 128
f 121 130 129
f 122 131 130
f 123 132 131
f 124 133 132
f 125 134 133
f 126 135 134
f 127 136 135
f 128 129 136
f 129 138 137
f 130 139 138
f 131 140 139
f 132 141 140
f 133 142 141
f 134 143 142
f 135 144 143
f 136 137 144
f 137 146 145
f 138 147 146
f 139 148 147
f 140 149 148
f 141 150 149
f 142 151 150
f 143 152 151
f 144 145 152
f 145 154 153
f 146 155 154
f 147 156 155
f 148 157 156
f 149 158 157
f 150 159 158
f 151 160 159
f 152 153 160
f 153 162 161
f 154 163 162
f 155 164 163
f 156 165 164
f 157 166 165
f 158 167 166
f 159 168 167
f 160 161 168
f 161 170 169
f 162 171 170
f 163 172 171
f 164 173 172
f 165 174 173
f 166 175 174
f 167 176 175
f 168 169 176
f 169 178 177
f 170 179 178
f 171 180 179
f 172 181 180
f 173 182 181
f 174 183 182
f 175 184 183
f 176 177 184
f 177 186 185
f 178 187 186
f 179 188 187
f 180 189 188
f 181 190 189
f 182 191 190
f 183 192 191
f 184 185 192
f 185 194 193
f 186 195 194
f 187 196 195
f 188 197 196
f 189 198 197
f 190 199 198
f 191 200 199
f 192 193 200
f 193 202 201
f 194 203 202
f 195 204 203
f 196 205 204
f 197 206 205
f 198 207 206
f 199 208 207
f 200 201 208
f 201 210 209
f 202 211 210
f 203 212 211
f 204 213 212
f 205 214 213
f 206 215 214
f 207 216 215
f 208 209 216
f 209 218 217
f 210 219 218
f 211 220 219
f 212 221 220
f 213 222 221
f 214 223 222
f 215 224 223
f 216 217 224
f 217 226 225
f 218 227 226
f 219 228 227
f 220 229 228
f 221 230 229
f 222 231 230
f 223 232 231
f 224 225 232
f 225 234 233
f 226 235 234
f 227 236 235
f 228 237 236
f 229 238 237
f 230 239 238
f 231 240 239
f 232 233 240
f 233 242 241
f 234 243 242
f 235 244 243
f 236 245 244
f 237 246 245
f 238 247 246
f 239 248 247
f 240 241 248
f 241 250 249
f 242 251 250
f 243 252 251
f 244 253 252
f 245 254 253
f 246 255 254
f 247 256 255
f 248 249 256
f 249 258 257
f 250 259 258
f 251 260 259
f 252 261 260
f 253 262 261
f 254 263 262
f 255 264 263
f 256 257 264
f 257 266 265
f 258 267 266
f 259 268 267
f 260 269 268
f 261 270 269
f 262 271 270
f 263 272 271
f 264 265 272
f 265 274 273
f 266 275 274
f 267 276 275
f 268 277 276
f 269 278 277
f 270 279 278
f 271 280 279
f 272 273 280
f 273 282 281
f 274 283 282
f 275 284 283
f 276 285 284
f 277 286 285
f 278 287 286
f 279 288 287
f 280 281 288
f 281 290 289
f 282 291 290
f 283 292 291
f 284 293 292
f 285 294 293
f 286 295 294
f 287 296 295
f 288 289 296
f 289 298 297
f 290 299 298
f 291 300 299
f 292 301 300
f 293 302 301
f 294 303 302
f 295 304 303
f 296 297 304
f 297 306 305
f 298 307 306
f 299 308 307
f 300 309 308
f 301 310 309
f 302 311 310
f 303 312 311
f 304 305 312
f 305 314 313
f 306 315 314
f 307 316 315
f 308 317 316
f 309 318 317
f 310 319 318
f 311 320 319
f 312 313 320
f 313 322 321
f 314 323 322
f 315 324 323
f 316 325 324
f 317 326 325
f 318 327 326
f 319 328 327
f 320 321 328
f 321 330 329
f 322 331 330
f 323 332 331
f 324 333 332
f 325 334 333
f 326 335 334
f 327 336 335
f 328 329 336
f 329 338 337
f 330 339 338
f 331 340 339
f 332 341 340
f 333 342 341
f 334 343 342
f 335 344 343
f 336 337 344
f 337 346 345
f 338 347 346
f 339 348 347
f 340 349 348
f 341 350 349
f 342 351 350
f 343 352 351
f 344 345 352
f 345 354 353
f 346 355 354
f 347 356 355
f 348 357 356
f 349 358 357
f 350 359 358
f 351 360 359
f 352 353 360
f 353 362 361
f 354 363 362
f 355 364 363
f 356 365 364
f 357 366 365
f 358 367 366
f 359 368 367
f 360 361 368
f 361 370 369
f 362 371 370
f 363 372 371
f 364 373 372
f 365 374 373
f 366 375 374
f 367 376 375
f 368 369 376
f 369 378 377
f 370 379 378
f 371 380 379
f 372 381 380
f 373 382 381
f 374 383 382
f 375 384 383
f 376 377 384
f 377 386 385
f 378 387 386
f 379 388 387
f 380 389 388
f 381 390 389
f 382 391 390
f 383 392 391
f 384 385 392
f 385 394 393
f 386 395 394
f 387 396 395
f 388 397 396
f 389 398 397
f 390 399 398
f 391 400 399
f 392 393 400
f 393 402 401
f 394 403 402
f 395 404 403
f 396 405 404
f 397 406 405
f 398 407 406
f 399 408 407
f 400 401 408
f 401 410 409
f 402 411 410
f 403 412 411
f 404 413 412
f 405 414 413
f 406 415 414
f 407 416 415
f 408 409 416
f 409 418 417
f 410 419 418
f 411 420 419
f 412 421 420
f 413 422 421
f 414 423 422
f 415 424 423
f 416 417 424
f 417 426 425
f 418 427 426
f 419 428 427
f 420 429 428
f 421 430 429
f 422 431 430
f 423 432 431
f 424 425 432
f 425 434 433
f 426 435 434
f 427 436 435
f 428 437 436
f 429 438 437
f 430 439 438
f 431 440 439
f 432 433 440
f 433 442 441
f 434 443 442
f 435 444 443
f 436 445 444
f 437 446 445
f 438 447 446
f 439 448 447
f 440 441 448
f 441 450 449
f 442 451 450
f 443 452 451
f 444 453 452
f 445 454 453
f 446 455 454
f 447 456 455
f 448 449 456
f 449 458 457
f 450 459 458
f 451 460 459
f 452 461 460
f 453 462 461
f 454 463 462
f 455 464 463
f 456 457 464
f 457 466 465
f 458 467 466
f 459 468 467
f 460 469 468
f 461 470 469
f 462 471 470
f 463 472 471
f 464 465 472
f 465 474 473
f 466 475 474
f 467 476 475
f 468 477 476
f 469 478 477
f 470 479 478
f 471 480 479
f 472 473 480
f 473 482 481
f 474 483 482
f 475 484 483
f 476 485 484
f 477 486 485
f 478 487 486
f 479 488 487
f 480 481 488
f 481 490 489
f 482 491 490
f 483 492 491
f 484 493 492
f 485 494 493
f 486 495 494
f 487 496 495
f 488 489 496
f 489 498 497
f 490 499 498
f 491 500 499
f 492 501 500
f 493 502 501
f 494 503 502
f 495 504 503
f 496 497 504
f 497 506 505
f 498 507 506
f 499 508 507
f 500 509 508
f 501 510 509
f 502 511 510
f 503 512 511
f 504 505 512
f 505 514 513
f 506 515 514
f 507 516 515
f 508 517 516
f 509 518 517
f 510 519 518
f 511 520 519
f 512 513 520
f 513 522 521
f 514 523 522
f 515 524 523
f 516 525 524
f 517 526 525
f 518 527 526
f 519 528 527
f 520 521 528
f 521 530 529
f 522 531 530
f 523 532 531
f 524 533 532
f 525 534 533
f 526 535 534
f 527 536 535
f 528 529 536
f 529 538 537
f 530 539 538
f 531 540 539
f 532 541 540
f 533 542 541
f 534 543 542
f 535 544 543
f 536 537 544
f 537 546 545
f 538 547 546
f 539 548 547
f 540 549 548
f 541 550 549
f 542 551 550
f 543 552 551
f 544 545 552
f 545 554 553
f 546 555 554
f 547 556 555
f 548 557 556
f 549 558 557
f 550 559 558
f 551 560 559
f 552 553 560
f 553 562 561
f 554 563 562
f 555 564 563
f 556 565 564
f 557 566 565
f 558 567 566
f 559 568 567
f 560 561 568
f 561 570 569
f 562 571 570
f 563 572 571
f 564 573 572
f 565 574 573
f 566 575 574
f 567 576 575
f 568 569 576
f 569 578 577
f 570 579 578
f 571 580 579
f 572 581 580
f 573 582 581
f 574 583 582
f 575 584 583
f 576 577 584
f 577 586 585
f 578 587 586
f 579 588 587
f 580 589 588
f 581 590 589
f 582 591 590
f 583 592 591
f 584 585 592
f 585 594 593
f 586 595 594
f 587 596 595
f 588 597 596
f 589 598 597
f 590 599 598
f 591 600 599
f 592 593 600
f 593 602 601
f 594 603 602
f 595 604 603
f 596 605 604
f 597 606 605
f 598 607 606
f 599 608 607
f 600 601 608
f 601 610 609
f 602 611 610
f 603 612 611
f 604 613 612
f 605 614 613
f 606 615 614
f 607 616 615
f 608 609 616
f 609 618 617
f 610 619 618
f 611 620 619
f 612 621 620
f 613 622 621
f 614 623 622
f 615 624 623
f 616 617 624
f 617 626 625
f 618 627 626
f 619 628 627
f 620 629 628
f 621 630 629
f 622 631 630
f 623 632 631
f 624 625 632
f 625 634 633
f 626 635 634
f 627 636 635
f 628 637 636
f 629 638 637
f 630 639 638
f 631 640 639
f 632 633 640
f 633 642 641
f 634 643 642
f 635 644 643
f 636 645 644
f 637 646 645
f 638 647 646
f 639 648 647
f 640 641 648
f 641 650 649
f 642 651 650
f 643 652 651
f 644 653 652
f 645 654 653
f 646 655 654
f 647 656 655
f 648 649 656
f 649 658 657
f 650 659 658
f 651 660 659
f 652 661 660
f 653 662 661
f 654 663 662
f 655 664 663
f 656 657 664
f 657 666 665
f 658 667 666
f 659 668 667
f 660 669 668
f 661 670 669
f 662 671 670
f 663 672 671
f 664 665 672
f 665 674 673
f 666 675 674
f 667 676 675
f 668 677 676
f 669 678 677
f 670 679 678
f 671 680 679
f 672 673 680
f 673 682 681
f 674 683 682
f 675 684 683
f 676 685 684
f 677 686 685
f 678 687 686
f 679 688 687
f 680 681 688
f 681 690 689
f 682 691 690
f 683 692 691
f 684 693 692
f 685 694 693
f 686 695 694
f 687 696 695
f 688 689 696
f 689 698 697
f 690 699 698
f 691 700 699
f 692 701 700
f 693 702 701
f 694 703 702
f 695 704 703
f 696 697 704
f 697 706 705
f 698 707 706
f 699 708 707
f 700 709 708
f 701 710 709
f 702 711 710
f 703 712 711
f 704 705 712
f 705 714 713
f 706 715 714
f 707 716 715
f 708 717 716
f 709 718 717
f 710 719 718
f 711 720 719
f 712 713 720
f 713 722 721
f 714 723 722
f 715 724 723
f 716 725 724
f 717 726 725
f 718 727 726
f 719 728 727
f 720 721 728
f 721 730 729
f 722 731 730
f 723 732 731
f 724 733 732
f 725 734 733
f 726 735 734
f 727 736 735
f 728 729 736
f 729 738 737
f 730 739 738
f 731 740 739
f 732 741 740
f 733 742 741
f 734 743 742
f 735 744 743
f 736 737 744
f 737 746 745
f 738 747 746
f 739 748 747
f 740 749 748
f 741 750 749
f 742 751 750
f 743 752 751
f 744 745 752
f 745 754 753
f 746 755 754
f 747 756 755
f 748 757 756
f 749 758 757
f 750 759 758
f 751 760 759
f 752 753 760
f 753 762 761
f 754 763 762
f 755 764 763
f 756 765 764
f 757 766 765
f 758 767 766
f 759 768 767
f 760 761 768
f 761 770 769
f 762 771 770
f 763 772 771
f 764 773 772
f 765 774 773
f 766 775 774
f 767 776 775
f 768 769 776
f 769 778 777
f 770 779 778
f 771 780 779
f 772 781 780
f 773 782 781
f 774 783 782
f 775 784 783
f 776 777 784
f 777 786 785
f 778 787 786
f 779 788 787
f 780 789 788
f 781 790 789
f 782 791 790
f 783 792 791
f 784 785 792
f 785 794 793
f 786 795 794
f 787 796 795
f 788 797 796
f 789 798 797
f 790 799 798
f 791 800 799
f 792 793 800
f 793 802 801
f 794 803 802
f 795 804 803
f 796 805 804
f 797 806 805
f 798 807 806
f 799 808 807
f 800 801 808
f 801 810 809
f 802 811 810
f 803 812 811
f 804 813 812
f 805 814 813
f 806 815 814
f 807 816 815
f 808 809 816
f 809 818 817
f 810 819 818
f 811 820 819
f 812 821 820
f 813 822 821
f 814 823 822
f 815 824 823
f 816 817 824
f 817 826 825
f 818 827 826
f 819 828 827
f 820 829 828
f 821 830 829
f 822 831 830
f 823 832 831
f 824 825 832
f 825 834 833
f 826 835 834
f 827 836 835
f 828 837 836
f 829 838 837
f 830 839 838
f 831 840 839
f 832 833 840
f 833 842 841
f 834 843 842
f 835 844 843
f 836 845 844
f 837 846 845
f 838 847 846
f 839 848 847
f 840 841 848
f 841 850 849
f 842 851 850
f 843 852 851
f 844 853 852
f 845 854 853
f 846 855 854
f 847 856 855
f 848 849 856
f 849 858 857
f 850 859 858
f 851 860 859
f 852 861 860
f 853 862 861
f 854 863 862
f 855 864 863
f 856 857 864
f 857 866 865
f 858 867 866
f 859 868 867
f 860 869 868
f 861 870 869
f 862 871 870
f 863 872 871
f 864 865 872
f 865 874 873
f 866 875 874
f 867 876 875
f 868 877 876
f 869 878 877
f 870 879 878
f 871 880 879
f 872 873 880
f 873 882 881
f 874 883 882
f 875 884 883
f 876 885 884
f 877 886 885
f 878 887 886
f 879 888 887
f 880 881 888
f 881 890 889
f 882 891 890
f 883 892 891
f 884 893 892
f 885 894 893
f 886 895 894
f 887 896 895
f 888 889 896
f 889 898 897
f 890 899 898
f 891 900 899
f 892 901 900
f 893 902 901
f 894 903 902
f 895 904 903
f 896 897 904
f 897 906 905
f 898 907 906
f 899 908 907
f 900 909 908
f 901 910 909
f 902 911 910
f 903 912 911
f 904 905 912
f 905 914 913
f 906 915 914
f 907 916 915
f 908 917 916
f 909 918 917
f 910 919 918
f 911 920 919
f 912 913 920
f 913 922 921
f 914 923 922
f 915 924 923
f 916 925 924
f 917 926 925
f 918 927 926
f 919 928 927
f 920 921 928
f 921 930 929
f 922 931 930
f 923 932 931
f 924 933 932
f 925 934 933
f 926 935 934
f 927 936 935
f 928 929 936
f 929 938 937
f 930 939 938
f 931 940 939
f 932 941 940
f 933 942 941
f 934 943 942
f 935 944 943
f 936 937 944
f 937 946 945
f 938 947 946
f 939 948 947
f 940 949 948
f 941 950 949
f 942 951 950
f 943 952 951
f 944 945 952
f 945 954 953
f 946 955 954
f 947 956 955
f 948 957 956
f 949 958 957
f 950 959 958
f 951 960 959
f 952 953 960
f 953 962 961
f 954 963 962
f 955 964 963
f 956 965 964
f 957 966 965
f 958 967 966
f 959 968 967
f 960 961 968
f 961 970 969
f 962 971 970
f 963 972 971
f 964 973 972
f 965 974 973
f 966 975 974
f 967 976 975
f 968 969 976
f 969 978 977
f 970 979 978
f 971 980 979
f 972 981 980
f 973 982 981
f 974 983 982
f 975 984 983
f 976 977 984
f 977 986 985
f 978 987 986
f 979 988 987
f 980 989 988
f 981 990 989
f 982 991 990
f 983 992 991
f 984 985 992
f 985 994 993
f 986 995 994
f 987 996 995
f 988 997 996
f 989 998 997
f 990 999 998
f 991 1000 999
f 992 993 1000
f 993 1002 1001
f 994 1003 1002
f 995 1004 1003
f 996 1005 1004
f 997 1006 1005
f 998 1007 1006
f 999 1008 1007
f 1000 1001 1008
f 1001 1010 1009
f 1002 1011 1010
f 1003 1012 1011
f 1004 1013 1012
f 1005 1014 1013
f 1006 1015 1014
f 1007 1016 1015
f 1008 1009 1016
f 1009 1018 1017
f 1010 1019 1018
f 1011 1020 1019
f 1012 1021 1020
f 1013 1022 1021
f 1014 1023 1022
f 1015 1024 1023
f 1016 1017 1024
f 1017 1026 1025
f 1018 1027 1026
f 1020 1027 1019
f 1021 1028 1020
f 1022 1029 1021
f 1023 1030 1022
f 1023 1032 1031
f 1024 1025 1032
f 2 10 9
f 3 11 10
f 3 4 12
f 4 5 13
f 5 6 14
f 6 7 15
f 8 16 15
f 1 9 16
f 9 10 18
f 10 11 19
f 11 12 20
f 12 13 21
f 13 14 22
f 14 15 23
f 15 16 24
f 16 9 17
f 17 18 26
f 18 19 27
f 19 20 28
f 20 21 29
f 21 22 30
f 22 23 31
f 23 24 32
f 24 17 25
f 25 26 34
f 26 27 35
f 27 28 36
f 28 29 37
f 29 30 38
f 30 31 39
f 31 32 40
f 32 25 33
f 33 34 42
f 34 35 43
f 35 36 44
f 36 37 45
f 37 38 46
f 38 39 47
f 39 40 48
f 40 33 41
f 41 42 50
f 42 43 51
f 43 44 52
f 44 45 53
f 45 46 54
f 46 47 55
f 47 48 56
f 48 41 49
f 49 50 58
f 50 51 59
f 51 52 60
f 52 53 61
f 53 54 62
f 54 55 63
f 55 56 64
f 56 49 57
f 57 58 66
f 58 59 67
f 59 60 68
f 60 61 69
f 61 62 70
f 62 63 71
f 63 64 72
f 64 57 65
f 65 66 74
f 66 67 75
f 67 68 76
f 68 69 77
f 69 70 78
f 70 71 79
f 71 72 80
f 72 65 73
f 73 74 82
f 74 75 83
f 75 76 84
f 76 77 85
f 77 78 86
f 78 79 87
f 79 80 88
f 80 73 81
f 81 82 90
f 82 83 91
f 83 84 92
f 84 85 93
f 85 86 94
f 86 87 95
f 87 88 96
f 88 81 89
f 89 90 98
f 90 91 99
f 91 92 100
f 92 93 101
f 93 94 102
f 94 95 103
f 95 96 104
f 96 89 97
f 97 98 106
f 98 99 107
f 99 100 108
f 100 101 109
f 101 102 110
f 102 103 111
f 103 104 112
f 104 97 105
f 105 106 114
f 106 107 115
f 107 108 116
f 108 109 117
f 109 110 118
f 110 111 119
f 111 112 120
f 112 105 113
f 113 114 122
f 114 115 123
f 115 116 124
f 116 117 125
f 117 118 126
f 118 119 127
f 119 120 128
f 120 113 121
f 121 122 130
f 122 123 131
f 123 124 132
f 124 125 133
f 125 126 134
f 126 127 135
f 127 128 136
f 128 121 129
f 129 130 138
f 130 131 139
f 131 132 140
f 132 133 141
f 133 134 142
f 134 135 143
f 135 136 144
f 136 129 137
f 137 138 146
f 138 139 147
f 139 140 148
f 140 141 149
f 141 142 150
f 142 143 151
f 143 144 152
f 144 137 145
f 145 146 154
f 146 147 155
f 147 148 156
f 148 149 157
f 149 150 158
f 150 151 159
f 151 152 160
f 152 145 153
f 153 154 162
f 154 155 163
f 155 156 164
f 156 157 165
f 157 158 166
f 158 159 167
f 159 160 168
f 160 153 161
f 161 162 170
f 162 163 171
f 163 164 172
f 164 165 173
f 165 166 174
f 166 167 175
f 167 168 176
f 168 161 169
f 169 170 178
f 170 171 179
f 171 172 180
f 172 173 181
f 173 174 182
f 174 175 183
f 175 176 184
f 176 169 177
f 177 178 186
f 178 179 187
f 179 180 188
f 180 181 189
f 181 182 190
f 182 183 191
f 183 184 192
f 184 177 185
f 185 186 194
f 186 187 195
f 187 188 196
f 188 189 197
f 189 190 198
f 190 191 199
f 191 192 200
f 192 185 193
f 193 194 202
f 194 195 203
f 195 196 204
f 196 197 205
f 197 198 206
f 198 199 207
f 199 200 208
f 200 193 201
f 201 202 210
f 202 203 211
f 203 204 212
f 204 205 213
f 205 206 214
f 206 207 215
f 207 208 216
f 208 201 209
f 209 210 218
f 210 211 219
f 211 212 220
f 212 213 221
f 213 214 222
f 214 215 223
f 215 216 224
f 216 209 217
f 217 218 226
f 218 219 227
f 219 220 228
f 220 221 229
f 221 222 230
f 222 223 231
f 223 224 232
f 224 217 225
f 225 226 234
f 226 227 235
f 227 228 236
f 228 229 237
f 229 230 238
f 230 231 239
f 231 232 240
f 232 225 233
f 233 234 242
f 234 235 243
f 235 236 244
f 236 237 245
f 237 238 246
f 238 239 247
f 239 240 248
f 240 233 241
f 241 242 250
f 242 243 251
f 243 244 252
f 244 245 253
f 245 246 254
f 246 247 255
f 247 248 256
f 248 241 249
f 249 250 258
f 250 251 259
f 251 252 260
f 252 253 261
f 253 254 262
f 254 255 263
f 255 256 264
f 256 249 257
f 257 258 266
f 258 259 267
f 259 260 268
f 260 261 269
f 261 262 270
f 262 263 271
f 263 264 272
f 264 257 265
f 265 266 274
f 266 267 275
f 267 268 276
f 268 269 277
f 269 270 278
f 270 271 279
f 271 272 280
f 272 265 273
f 273 274 282
f 274 275 283
f 275 276 284
f 276 277 285
f 277 278 286
f 278 279 287
f 279 280 288
f 280 273 281
f 281 282 290
f 282 283 291
f 283 284 292
f 284 285 293
f 285 286 294
f 286 287 295
f 287 288 296
f 288 281 289
f 289 290 298
f 290 291 299
f 291 292 300
f 292 293 301
f 293 294 302
f 294 295 303
f 295 296 304
f 296 289 297
f 297 298 306
f 298 299 307
f 299 300 308
f 300 301 309
f 301 302 310
f 302 303 311
f 303 304 312
f 304 297 305
f 305 306 314
f 306 307 315
f 307 308 316
f 308 309 317
f 309 310 318
f 310 311 319
f 311 312 320
f 312 305 313
f 313 314 322
f 314 315 323
f 315 316 324
f 316 317 325
f 317 318 326
f 318 319 327
f 319 320 328
f 320 313 321
f 321 322 330
f 322 323 331
f 323 324 332
f 324 325 333
f 325 326 334
f 326 327 335
f 327 328 336
f 328 321 329
f 329 330 338
f 330 331 339
f 331 332 340
f 332 333 341
f 333 334 342
f 334 335 343
f 335 336 344
f 336 329 337
f 337 338 346
f 338 339 347
f 339 340 348
f 340 341 349
f 341 342 350
f 342 343 351
f 343 344 352
f 344 337 345
f 345 346 354
f 346 347 355
f 347 348 356
f 348 349 357
f 349 350 358
f 350 351 359
f 351 352 360
f 352 345 353
f 353 354 362
f 354 355 363
f 355 356 364
f 356 357 365
f 357 358 366
f 358 359 367
f 359 360 368
f 360 353 361
f 361 362 370
f 362 363 371
f 363 364 372
f 364 365 373
f 365 366 374
f 366 367 375
f 367 368 376
f 368 361 369
f 369 370 378
f 370 371 379
f 371 372 380
f 372 373 381
f 373 374 382
f 374 375 383
f 375 376 384
f 376 369 377
f 377 378 386
f 378 379 387
f 379 380 388
f 380 381 389
f 381 382 390
f 382 383 391
f 383 384 392
f 384 377 385
f 385 386 394
f 386 387 395
f 387 388 396
f 388 389 397
f 389 390 398
f 390 391 399
f 391 392 400
f 392 385 393
f 393 394 402
f 394 395 403
f 395 396 404
f 396 397 405
f 397 398 406
f 398 399 407
f 399 400 408
f 400 393 401
f 401 402 410
f 402 403 411
f 403 404 412
f 404 405 413
f 405 406 414
f 406 407 415
f 407 408 416
f 408 401 409
f 409 410 418
f 410 411 419
f 411 412 420
f 412 413 421
f 413 414 422
f 414 415 423
f 415 416 424
f 416 409 417
f 417 418 426
f 418 419 427
f 419 420 428
f 420 421 429
f 421 422 430
f 422 423 431
f 423 424 432
f 424 417 425
f 425 426 434
f 426 427 435
f 427 428 436
f 428 429 437
f 429 430 438
f 430 431 439
f 431 432 440
f 432 425 433
f 433 434 442
f 434 435 443
f 435 436 444
f 436 437 445
f 437 438 446
f 438 439 447
f 439 440 448
f 440 433 441
f 441 442 450
f 442 443 451
f 443 444 452
f 444 445 453
f 445 446 454
f 446 447 455
f 447 448 456
f 448 441 449
f 449 450 458
f 450 451 459
f 451 452 460
f 452 453 461
f 453 454 462
f 454 455 463
f 455 456 464
f 456 449 457
f 457 458 466
f 458 459 467
f 459 460 468
f 460 461 469
f 461 462 470
f 462 463 471
f 463 464 472
f 464 457 465
f 465 466 474
f 466 467 475
f 467 468 476
f 468 469 477
f 469 470 478
f 470 471 479
f 471 472 480
f 472 465 473
f 473 474 482
f 474 475 483
f 475 476 484
f 476 477 485
f 477 478 486
f 478 479 487
f 479 480 488
f 480 473 481
f 481 482 490
f 482 483 491
f 483 484 492
f 484 485 493
f 485 486 494
f 486 487 495
f 487 488 496
f 488 481 489
f 489 490 498
f 490 491 499
f 491 492 500
f 492 493 501
f 493 494 502
f 494 495 503
f 495 496 504
f 496 489 497
f 497 498 506
f 498 499 507
f 499 500 508
f 500 501 509
f 501 502 510
f 502 503 511
f 503 504 512
f 504 497 505
f 505 506 514
f 506 507 515
f 507 508 516
f 508 509 517
f 509 510 518
f 510 511 519
f 511 512 520
f 512 505 513
f 513 514 522
f 514 515 523
f 515 516 524
f 516 517 525
f 517 518 526
f 518 519 527
f 519 520 528
f 520 513 521
f 521 522 530
f 522 523 531
f 523 524 532
f 524 525 533
f 525 526 534
f 526 527 535
f 527 528 536
f 528 521 529
f 529 530 538
f 530 531 539
f 531 532 540
f 532 533 541
f 533 534 542
f 534 535 543
f 535 536 544
f 536 529 537
f 537 538 546
f 538 539 547
f 539 540 548
f 540 541 549
f 541 542 550
f 542 543 551
f 543 544 552
f 544 537 545
f 545 546 554
f 546 547 555
f 547 548 556
f 548 549 557
f 549 550 558
f 550 551 559
f 551 552 560
f 552 545 553
f 553 554 562
f 554 555 563
f 555 556 564
f 556 557 565
f 557 558 566
f 558 559 567
f 559 560 568
f 560 553 561
f 561 562 570
f 562 563 571
f 563 564 572
f 564 565 573
f 565 566 574
f 566 567 575
f 567 568 576
f 568 561 569
f 569 570 578
f 570 571 579
f 571 572 580
f 572 573 581
f 573 574 582
f 574 575 583
f 575 576 584
f 576 569 577
f 577 578 586
f 578 579 587
f 579 580 588
f 580 581 589
f 581 582 590
f 582 583 591
f 583 584 592
f 584 577 585
f 585 586 594
f 586 587 595
f 587 588 596
f 588 589 597
f 589 590 598
f 590 591 599
f 591 592 600
f 592 585 593
f 593 594 602
f 594 595 603
f 595 596 604
f 596 597 605
f 597 598 606
f 598 599 607
f 599 600 608
f 600 593 601
f 601 602 610
f 602 603 611
f 603 604 612
f 604 605 613
f 605 606 614
f 606 607 615
f 607 608 616
f 608 601 609
f 609 610 618
f 610 611 619
f 611 612 620
f 612 613 621
f 613 614 622
f 614 615 623
f 615 616 624
f 616 609 617
f 617 618 626
f 618 619 627
f 619 620 628
f 620 621 629
f 621 622 630
f 622 623 631
f 623 624 632
f 624 617 625
f 625 626 634
f 626 627 635
f 627 628 636
f 628 629 637
f 629 630 638
f 630 631 639
f 631 632 640
f 632 625 633
f 633 634 642
f 634 635 643
f 635 636 644
f 636 637 645
f 637 638 646
f 638 639 647
f 639 640 648
f 640 633 641
f 641 642 650
f 642 643 651
f 643 644 652
f 644 645 653
f 645 646 654
f 646 647 655
f 647 648 656
f 648 641 649
f 649 650 658
f 650 651 659
f 651 652 660
f 652 653 661
f 653 654 662
f 654 655 663
f 655 656 664
f 656 649 657
f 657 658 666
f 658 659 667
f 659 660 668
f 660 661 669
f 661 662 670
f 662 663 671
f 663 664 672
f 664 657 665
f 665 666 674
f 666 667 675
f 667 668 676
f 668 669 677
f 669 670 678
f 670 671 679
f 671 672 680
f 672 665 673
f 673 674 682
f 674 675 683
f 675 676 684
f 676 677 685
f 677 678 686
f 678 679 687
f 679 680 688
f 680 673 681
f 681 682 690
f 682 683 691
f 683 684 692
f 684 685 693
f 685 686 694
f 686 687 695
f 687 688 696
f 688 681 689
f 689 690 698
f 690 691 699
f 691 692 700
f 692 693 701
f 693 694 702
f 694 695 703
f 695 696 704
f 696 689 697
f 697 698 706
f 698 699 707
f 699 700 708
f 700 701 709
f 701 702 710
f 702 703 711
f 703 704 712
f 704 697 705
f 705 706 714
f 706 707 715
f 707 708 716
f 708 709 717
f 709 710 718
f 710 711 719
f 711 712 720
f 712 705 713
f 713 714 722
f 714 715 723
f 715 716 724
f 716 717 725
f 717 718 726
f 718 719 727
f 719 720 728
f 720 713 721
f 721 722 730
f 722 723 731
f 723 724 732
f 724 725 733
f 725 726 734
f 726 727 735
f 727 728 736
f 728 721 729
f 729 730 738
f 730 731 739
f 731 732 740
f 732 733 741
f 733 734 742
f 734 735 743
f 735 736 744
f 736 729 737
f 737 738 746
f 738 739 747
f 739 740 748
f 740 741 749
f 741 742 750
f 742 743 751
f 743 744 752
f 744 737 745
f 745 746 754
f 746 747 755
f 747 748 756
f 748 749 757
f 749 750 758
f 750 751 759
f 751 752 760
f 752 745 753
f 753 754 762
f 754 755 763
f 755 756 764
f 756 757 765
f 757 758 766
f 758 759 767
f 759 760 768
f 760 753 761
f 761 762 770
f 762 763 771
f 763 764 772
f 764 765 773
f 765 766 774
f 766 767 775
f 767 768 776
f 768 761 769
f 769 770 778
f 770 771 779
f 771 772 780
f 772 773 781
f 773 774 782
f 774 775 783
f 775 776 784
f 776 769 777
f 777 778 786
f 778 779 787
f 779 780 788
f 780 781 789
f 781 782 790
f 782 783 791
f 783 784 792
f 784 777 785
f 785 786 794
f 786 787 795
f 787 788 796
f 788 789 797
f 789 790 798
f 790 791 799
f 791 792 800
f 792 785 793
f 793 794 802
f 794 795 803
f 795 796 804
f 796 797 805
f 797 798 806
f 798 799 807
f 799 800 808
f 800 793 801
f 801 802 810
f 802 803 811
f 803 804 812
f 804 805 813
f 805 806 814
f 806 807 815
f 807 808 816
f 808 801 809
f 809 810 818
f 810 811 819
f 811 812 820
f 812 813 821
f 813 814 822
f 814 815 823
f 815 816 824
f 816 809 817
f 817 818 826
f 818 819 827
f 819 820 828
f 820 821 829
f 821 822 830
f 822 823 831
f 823 824 832
f 824 817 825
f 825 826 834
f 826 827 835
f 827 828 836
f 828 829 837
f 829 830 838
f 830 831 839
f 831 832 840
f 832 825 833
f 833 834 842
f 834 835 843
f 835 836 844
f 836 837 845
f 837 838 846
f 838 839 847
f 839 840 848
f 840 833 841
f 841 842 850
f 842 843 851
f 843 844 852
f 844 845 853
f 845 846 854
f 846 847 855
f 847 848 856
f 848 841 849
f 849 850 858
f 850 851 859
f 851 852 860
f 852 853 861
f 853 854 862
f 854 855 863
f 855 856 864
f 856 849 857
f 857 858 866
f 858 859 867
f 859 860 868
f 860 861 869
f 861 862 870
f 862 863 871
f 863 864 872
f 864 857 865
f 865 866 874
f 866 867 875
f 867 868 876
f 868 869 877
f 869 870 878
f 870 871 879
f 871 872 880
f 872 865 873
f 873 874 882
f 874 875 883
f 875 876 884
f 876 877 885
f 877 878 886
f 878 879 887
f 879 880 888
f 880 873 881
f 881 882 890
f 882 883 891
f 883 884 892
f 884 885 893
f 885 886 894
f 886 887 895
f 887 888 896
f 888 881 889
f 889 890 898
f 890 891 899
f 891 892 900
f 892 893 901
f 893 894 902
f 894 895 903
f 895 896 904
f 896 889 897
f 897 898 906
f 898 899 907
f 899 900 908
f 900 901 909
f 901 902 910
f 902 903 911
f 903 904 912
f 904 897 905
f 905 906 914
f 906 907 915
f 907 908 916
f 908 909 917
f 909 910 918
f 910 911 919
f 911 912 920
f 912 905 913
f 913 914 922
f 914 915 923
f 915 916 924
f 916 917 925
f 917 918 926
f 918 919 927
f 919 920 928
f 920 913 921
f 921 922 930
f 922 923 931
f 923 924 932
f 924 925 933
f 925 926 934
f 926 927 935
f 927 928 936
f 928 921 929
f 929 930 938
f 930 931 939
f 931 932 940
f 932 933 941
f 933 934 942
f 934 935 943
f 935 936 944
f 936 929 937
f 937 938 946
f 938 939 947
f 939 940 948
f 940 941 949
f 941 942 950
f 942 943 951
f 943 944 952
f 944 937 945
f 945 946 954
f 946 947 955
f 947 948 956
f 948 949 957
f 949 950 958
f 950 951 959
f 951 952 960
f 952 945 953
f 953 954 962
f 954 955 963
f 955 956 964
f 956 957 965
f 957 958 966
f 958 959 967
f 959 960 968
f 960 953 961
f 961 962 970
f 962 963 971
f 963 964 972
f 964 965 973
f 965 966 974
f 966 967 975
f 967 968 976
f 968 961 969
f 969 970 978
f 970 971 979
f 971 972 980
f 972 973 981
f 973 974 982
f 974 975 983
f 975 976 984
f 976 969 977
f 977 978 986
f 978 979 987
f 979 980 988
f 980 981 989
f 981 982 990
f 982 983 991
f 983 984 992
f 984 977 985
f 985 986 994
f 986 987 995
f 987 988 996
f 988 989 997
f 989 990 998
f 990 991 999
f 991 992 1000
f 992 985 993
f 993 994 1002
f 994 995 1003
f 995 996 1004
f 996 997 1005
f 997 998 1006
f 998 999 1007
f 999 1000 1008
f 1000 993 1001
f 1001 1002 1010
f 1002 1003 1011
f 1003 1004 1012
f 1004 1005 1013
f 1005 1006 1014
f 1006 1007 1015
f 1007 1008 1016
f 1008 1001 1009
f 1009 1010 1018
f 1010 1011 1019
f 1011 1012 1020
f 1012 1013 1021
f 1013 1014 1022
f 1014 1015 1023
f 1015 1016 1024
f 1016 1009 1017
f 1017 1018 1026
f 1018 1019 1027
f 1020 1028 1027
f 1021 1029 1028
f 1022 1030 1029
f 1023 1031 1030
f 1023 1024 1032
f 1024 1017 1025
