# eclipse_carrier Orbit2_OrbitGlow.obj: Roblox cue frame, recentred on its bounding box
v -1.91678 1.05687 1.93745
v -1.94720 1.04478 1.96074
v -1.96976 1.01314 1.97090
v -1.97583 0.97402 1.96408
v -1.96311 0.94237 1.94286
v -1.93644 0.93028 1.91535
v -1.90601 0.94237 1.89207
v -1.88345 0.97402 1.88190
v -1.87738 1.01314 1.88873
v -1.89011 1.04478 1.90995
v -1.82429 1.02436 2.04141
v -1.85421 1.01209 2.06525
v -1.87659 0.98039 2.07561
v -1.88289 0.94135 2.06854
v -1.87071 0.90989 2.04674
v -1.84468 0.89802 2.01853
v -1.81477 0.91029 1.99469
v -1.79238 0.94200 1.98432
v -1.78608 0.98103 1.99139
v -1.79827 1.01250 2.01320
v -1.72699 0.98939 2.14083
v -1.75585 0.97676 2.16575
v -1.77788 0.94493 2.17650
v -1.78466 0.90606 2.16896
v -1.77359 0.87499 2.14603
v -1.74891 0.86359 2.11645
v -1.72004 0.87622 2.09153
v -1.69801 0.90805 2.08079
v -1.69124 0.94692 2.08832
v -1.70231 0.97799 2.11126
v -1.62546 0.95217 2.23508
v -1.65324 0.93916 2.26103
v -1.67489 0.90720 2.27214
v -1.68216 0.86850 2.26417
v -1.67226 0.83785 2.24016
v -1.64898 0.82695 2.20929
v -1.62121 0.83996 2.18335
v -1.59955 0.87192 2.17224
v -1.59229 0.91062 2.18021
v -1.60218 0.94127 2.20421
v -1.51997 0.91280 2.32394
v -1.54660 0.89937 2.35085
v -1.56787 0.86727 2.36230
v -1.57565 0.82876 2.35392
v -1.56697 0.79855 2.32891
v -1.54514 0.78817 2.29682
v -1.51851 0.80160 2.26991
v -1.49724 0.83370 2.25846
v -1.48946 0.87221 2.26684
v -1.49814 0.90242 2.29185
v -1.41075 0.87135 2.40718
v -1.43621 0.85749 2.43500
v -1.45707 0.82525 2.44678
v -1.46538 0.78693 2.43802
v -1.45795 0.75718 2.41206
v -1.43763 0.74736 2.37883
v -1.41218 0.76122 2.35101
v -1.39131 0.79347 2.33923
v -1.38301 0.83178 2.34800
v -1.39043 0.86153 2.37395
v -1.29808 0.82795 2.48462
v -1.32232 0.81363 2.51328
v -1.34276 0.78123 2.52536
v -1.35161 0.74312 2.51624
v -1.34548 0.71386 2.48941
v -1.32672 0.70462 2.45512
v -1.30248 0.71894 2.42645
v -1.28204 0.75134 2.41437
v -1.27319 0.78945 2.42349
v -1.27932 0.81871 2.45032
v -1.18223 0.78268 2.55605
v -1.20521 0.76789 2.58550
v -1.22523 0.73533 2.59786
v -1.23463 0.69743 2.58842
v -1.22983 0.66868 2.56078
v -1.21266 0.66004 2.52550
v -1.18968 0.67484 2.49606
v -1.16967 0.70740 2.48370
v -1.16026 0.74530 2.49314
v -1.16506 0.77405 2.52078
v -1.06347 0.73567 2.62132
v -1.08517 0.72038 2.65148
v -1.10474 0.68765 2.66410
v -1.11471 0.64997 2.65436
v -1.11128 0.62174 2.62599
v -1.09575 0.61374 2.58981
v -1.07405 0.62903 2.55966
v -1.05448 0.66176 2.54704
v -1.04450 0.69944 2.55677
v -1.04794 0.72767 2.58515
v -0.94209 0.68701 2.68026
v -0.96248 0.67122 2.71106
v -0.98159 0.63831 2.72392
v -0.99215 0.60086 2.71392
v -0.99011 0.57317 2.68488
v -0.97625 0.56583 2.64790
v -0.95587 0.58163 2.61709
v -0.93675 0.61454 2.60424
v -0.92619 0.65198 2.61424
v -0.92824 0.67967 2.64328
v -0.81839 0.63684 2.73273
v -0.83743 0.62051 2.76411
v -0.85609 0.58742 2.77718
v -0.86723 0.55021 2.76695
v -0.86661 0.52309 2.73732
v -0.85445 0.51641 2.69961
v -0.83541 0.53274 2.66823
v -0.81676 0.56583 2.65517
v -0.80561 0.60305 2.66540
v -0.80624 0.63017 2.69503
v -0.69266 0.58527 2.77861
v -0.71034 0.56839 2.81049
v -0.72852 0.53511 2.82375
v -0.74026 0.49814 2.81331
v -0.74108 0.47160 2.78317
v -0.73066 0.46562 2.74484
v -0.71298 0.48250 2.71295
v -0.69480 0.51578 2.69970
v -0.68306 0.55275 2.71013
v -0.68224 0.57929 2.74028
v -0.56520 0.53242 2.81778
v -0.58150 0.51499 2.85010
v -0.59920 0.48151 2.86352
v -0.61155 0.44479 2.85291
v -0.61382 0.41884 2.82233
v -0.60516 0.41357 2.78346
v -0.58887 0.43101 2.75114
v -0.57116 0.46448 2.73772
v -0.55882 0.50120 2.74833
v -0.55654 0.52716 2.77891
v -0.43633 0.47843 2.85015
v -0.45122 0.46042 2.88283
v -0.46844 0.42675 2.89639
v -0.48139 0.39027 2.88564
v -0.48515 0.36493 2.85470
v -0.47826 0.36039 2.81538
v -0.46337 0.37840 2.78271
v -0.44615 0.41207 2.76915
v -0.43319 0.44854 2.77990
v -0.42944 0.47389 2.81084
v -0.30634 0.42341 2.87565
v -0.31983 0.40482 2.90861
v -0.33655 0.37095 2.92228
v -0.35012 0.33473 2.91143
v -0.35536 0.31000 2.88021
v -0.35027 0.30620 2.84054
v -0.33678 0.32479 2.80758
v -0.32006 0.35867 2.79391
v -0.30649 0.39489 2.80476
v -0.30125 0.41962 2.83598
v -0.17557 0.36752 2.89421
v -0.18763 0.34833 2.92738
v -0.20385 0.31425 2.94113
v -0.21804 0.27829 2.93021
v -0.22478 0.25419 2.89878
v -0.22149 0.25115 2.85886
v -0.20942 0.27033 2.82569
v -0.19320 0.30441 2.81194
v -0.17901 0.34037 2.82286
v -0.17228 0.36448 2.85429
v -0.04431 0.31087 2.90578
v -0.05494 0.29108 2.93909
v -0.07067 0.25679 2.95290
v -0.08547 0.22109 2.94193
v -0.09371 0.19762 2.91039
v -0.09223 0.19535 2.87031
v -0.08159 0.21513 2.83700
v -0.06587 0.24942 2.82319
v -0.05106 0.28512 2.83415
v -0.04283 0.30859 2.86570
v 0.08711 0.25361 2.91034
v 0.07791 0.23321 2.94371
v 0.06269 0.19871 2.95755
v 0.04726 0.16327 2.94658
v 0.03752 0.14045 2.91499
v 0.03719 0.13894 2.87485
v 0.04640 0.15934 2.84148
v 0.06162 0.19384 2.82764
v 0.07704 0.22927 2.83861
v 0.08678 0.25210 2.87020
v 0.21838 0.19587 2.90788
v 0.21060 0.17486 2.94123
v 0.19589 0.14014 2.95508
v 0.17985 0.10497 2.94413
v 0.16861 0.08279 2.91258
v 0.16647 0.08206 2.87247
v 0.17424 0.10307 2.83913
v 0.18896 0.13779 2.82528
v 0.20500 0.17296 2.83622
v 0.21624 0.19515 2.86777
v 0.34917 0.13780 2.89841
v 0.34283 0.11617 2.93166
v 0.32861 0.08123 2.94548
v 0.31196 0.04633 2.93460
v 0.29923 0.02480 2.90317
v 0.29529 0.02486 2.86319
v 0.30164 0.04648 2.82994
v 0.31585 0.08142 2.81611
v 0.33250 0.11632 2.82700
v 0.34523 0.13786 2.85843
v 0.47919 0.07953 2.88194
v 0.47426 0.05728 2.91502
v 0.46054 0.02212 2.92880
v 0.44328 -0.01251 2.91801
v 0.42907 -0.03339 2.88677
v 0.42334 -0.03255 2.84702
v 0.42827 -0.01030 2.81394
v 0.44198 0.02486 2.80016
v 0.45924 0.05949 2.81095
v 0.47345 0.08037 2.84219
v 0.60810 0.02120 2.85852
v 0.60458 -0.00167 2.89135
v 0.59136 -0.03705 2.90506
v 0.57350 -0.07141 2.89439
v 0.55782 -0.09164 2.86343
v 0.55031 -0.09001 2.82400
v 0.55383 -0.06714 2.79116
v 0.56705 -0.03176 2.77746
v 0.58491 0.00260 2.78813
v 0.60059 0.02284 2.81909
v 0.73561 -0.03704 2.82820
v 0.73348 -0.06053 2.86072
v 0.72076 -0.09613 2.87432
v 0.70230 -0.13023 2.86380
v 0.68517 -0.14981 2.83320
v 0.67590 -0.14739 2.79418
v 0.67803 -0.12390 2.76167
v 0.69075 -0.08830 2.74807
v 0.70920 -0.05420 2.75858
v 0.72634 -0.03462 2.78919
v 0.86140 -0.09506 2.79106
v 0.86064 -0.11917 2.82318
v 0.84841 -0.15499 2.83665
v 0.82938 -0.18882 2.82633
v 0.81081 -0.20775 2.79615
v 0.79980 -0.20455 2.75765
v 0.80056 -0.18044 2.72553
v 0.81279 -0.14462 2.71206
v 0.83182 -0.11079 2.72238
v 0.85039 -0.09185 2.75256
v 0.98517 -0.15271 2.74718
v 0.98577 -0.17744 2.77884
v 0.97402 -0.21347 2.79215
v 0.95441 -0.24705 2.78204
v 0.93443 -0.26534 2.75237
v 0.92172 -0.26136 2.71448
v 0.92112 -0.23663 2.68282
v 0.93287 -0.20059 2.66951
v 0.95248 -0.16702 2.67962
v 0.97246 -0.14873 2.70928
v 1.10663 -0.20986 2.69668
v 1.10855 -0.23520 2.72779
v 1.09728 -0.27145 2.74093
v 1.07711 -0.30477 2.73107
v 1.05575 -0.32242 2.70198
v 1.04136 -0.31767 2.66478
v 1.03944 -0.29232 2.63366
v 1.05071 -0.25607 2.62053
v 1.07088 -0.22276 2.63039
v 1.09224 -0.20511 2.65948
v 1.22547 -0.26637 2.63967
v 1.22870 -0.29231 2.67017
v 1.21789 -0.32878 2.68310
v 1.19718 -0.36184 2.67352
v 1.17447 -0.37886 2.64509
v 1.15844 -0.37335 2.60867
v 1.15521 -0.34740 2.57817
v 1.16602 -0.31093 2.56524
v 1.18673 -0.27788 2.57482
v 1.20944 -0.26085 2.60325
v 1.34143 -0.32210 2.57629
v 1.34592 -0.34864 2.60611
v 1.33557 -0.38532 2.61881
v 1.31432 -0.41813 2.60953
v 1.29029 -0.43453 2.58183
v 1.27266 -0.42826 2.54628
v 1.26817 -0.40172 2.51646
v 1.27852 -0.36504 2.50377
v 1.29977 -0.33223 2.51304
v 1.32380 -0.31583 2.54074
v 1.45420 -0.37692 2.50670
v 1.45994 -0.40405 2.53577
v 1.45003 -0.44094 2.54821
v 1.42826 -0.47350 2.53927
v 1.40295 -0.48929 2.51236
v 1.38377 -0.48228 2.47777
v 1.37803 -0.45516 2.44870
v 1.38794 -0.41826 2.43626
v 1.40971 -0.38570 2.44520
v 1.43502 -0.36991 2.47211
v 1.56353 -0.43070 2.43106
v 1.57047 -0.45840 2.45931
v 1.56099 -0.49550 2.47147
v 1.53873 -0.52782 2.46289
v 1.51217 -0.54301 2.43685
v 1.49148 -0.53528 2.40330
v 1.48455 -0.50757 2.37505
v 1.49402 -0.47048 2.36289
v 1.51629 -0.43816 2.37147
v 1.54284 -0.42296 2.39750
v 1.66915 -0.48330 2.34955
v 1.67725 -0.51157 2.37692
v 1.66819 -0.54887 2.38877
v 1.64544 -0.58095 2.38058
v 1.61769 -0.59556 2.35548
v 1.59554 -0.58712 2.32305
v 1.58745 -0.55885 2.29568
v 1.59650 -0.52155 2.28382
v 1.61925 -0.48947 2.29201
v 1.64700 -0.47486 2.31712
v 1.77081 -0.53460 2.26237
v 1.78002 -0.56342 2.28880
v 1.77137 -0.60092 2.30032
v 1.74816 -0.63277 2.29255
v 1.71926 -0.64682 2.26844
v 1.69570 -0.63768 2.23721
v 1.68649 -0.60886 2.21078
v 1.69514 -0.57137 2.19925
v 1.71835 -0.53951 2.20703
v 1.74725 -0.52547 2.23114
v 1.86826 -0.58448 2.16973
v 1.87854 -0.61384 2.19516
v 1.87028 -0.65153 2.20633
v 1.84663 -0.68316 2.19900
v 1.81662 -0.69665 2.17595
v 1.79172 -0.68684 2.14599
v 1.78143 -0.65749 2.12056
v 1.78970 -0.61980 2.10938
v 1.81335 -0.58817 2.11672
v 1.84336 -0.57468 2.13977
v 1.96126 -0.63282 2.07186
v 1.97257 -0.66269 2.09622
v 1.96468 -0.70057 2.10703
v 1.94061 -0.73199 2.10015
v 1.90955 -0.74494 2.07822
v 1.88336 -0.73449 2.04961
v 1.87205 -0.70462 2.02524
v 1.87994 -0.66674 2.01443
v 1.90401 -0.63532 2.02131
v 1.93508 -0.62237 2.04324
v 2.04960 -0.67950 1.96898
v 2.06188 -0.70987 1.99223
v 2.05435 -0.74793 2.00265
v 2.02988 -0.77914 1.99626
v 1.99782 -0.79158 1.97549
v 1.97041 -0.78050 1.94830
v 1.95812 -0.75012 1.92505
v 1.96566 -0.71206 1.91463
v 1.99013 -0.68085 1.92102
v 2.02219 -0.66841 1.94179
v 2.13306 -0.72440 1.86136
v 2.14626 -0.75526 1.88344
v 2.13907 -0.79349 1.89344
v 2.11422 -0.82450 1.88755
v 2.08121 -0.83645 1.86802
v 2.05265 -0.82476 1.84230
v 2.03945 -0.79391 1.82022
v 2.04664 -0.75567 1.81021
v 2.07149 -0.72466 1.81610
v 2.10450 -0.71272 1.83564
v 2.21143 -0.76743 1.74924
v 2.22550 -0.79874 1.77010
v 2.21863 -0.83714 1.77968
v 2.19343 -0.86797 1.77431
v 2.15954 -0.87944 1.75605
v 2.12989 -0.86717 1.73188
v 2.11582 -0.83586 1.71101
v 2.12269 -0.79746 1.70144
v 2.14789 -0.76663 1.70680
v 2.18179 -0.75516 1.72506
v 2.28454 -0.80847 1.63290
v 2.29942 -0.84022 1.65249
v 2.29284 -0.87878 1.66162
v 2.26732 -0.90943 1.65680
v 2.23260 -0.92045 1.63986
v 2.20194 -0.90763 1.61729
v 2.18706 -0.87588 1.59769
v 2.19364 -0.83732 1.58856
v 2.21916 -0.80667 1.59338
v 2.25388 -0.79565 1.61032
v 2.35220 -0.84742 1.51261
v 2.36783 -0.87959 1.53090
v 2.36153 -0.91831 1.53957
v 2.33571 -0.94879 1.53530
v 2.30022 -0.95938 1.51973
v 2.26863 -0.94604 1.49881
v 2.25300 -0.91387 1.48052
v 2.25929 -0.87515 1.47186
v 2.28512 -0.84468 1.47612
v 2.32060 -0.83409 1.49169
v 2.41425 -0.88420 1.38867
v 2.43057 -0.91677 1.40561
v 2.42453 -0.95563 1.41380
v 2.39843 -0.98595 1.41011
v 2.36224 -0.99614 1.39595
v 2.32979 -0.98231 1.37673
v 2.31347 -0.94974 1.35979
v 2.31951 -0.91088 1.35160
v 2.34561 -0.88056 1.35530
v 2.38180 -0.87038 1.36945
v 2.47054 -0.91872 1.26138
v 2.48749 -0.95165 1.27693
v 2.48169 -0.99065 1.28463
v 2.45534 -1.02082 1.28152
v 2.41852 -1.03063 1.26881
v 2.38528 -1.01634 1.25134
v 2.36833 -0.98341 1.23579
v 2.37414 -0.94441 1.22810
v 2.40049 -0.91424 1.23120
v 2.43731 -0.90443 1.24391
v 2.52094 -0.95088 1.13104
v 2.53846 -0.98416 1.14517
v 2.53286 -1.02329 1.15236
v 2.50629 -1.05332 1.14986
v 2.46890 -1.06278 1.13862
v 2.43497 -1.04806 1.12295
v 2.41746 -1.01479 1.10882
v 2.42305 -0.97566 1.10163
v 2.44962 -0.94563 1.10413
v 2.48701 -0.93617 1.11537
v 2.56533 -0.98063 0.99797
v 2.58334 -1.01422 1.01065
v 2.57793 -1.05346 1.01732
v 2.55117 -1.08337 1.01543
v 2.51328 -1.09251 1.00570
v 2.47873 -1.07740 0.99186
v 2.46072 -1.04380 0.97918
v 2.46613 -1.00456 0.97251
v 2.49289 -0.97465 0.97440
v 2.53078 -0.96551 0.98413
v 2.60359 -1.00787 0.86249
v 2.62203 -1.04175 0.87369
v 2.61679 -1.08111 0.87982
v 2.58987 -1.11090 0.87856
v 2.55155 -1.11974 0.87037
v 2.51647 -1.10427 0.85838
v 2.49802 -1.07038 0.84718
v 2.50326 -1.03103 0.84105
v 2.53018 -1.00124 0.84231
v 2.56851 -0.99239 0.85050
v 2.63564 -1.03255 0.72492
v 2.65444 -1.06669 0.73461
v 2.64934 -1.10615 0.74021
v 2.62229 -1.13583 0.73957
v 2.58361 -1.14442 0.73294
v 2.54808 -1.12862 0.72285
v 2.52927 -1.09447 0.71316
v 2.53437 -1.05502 0.70756
v 2.56143 -1.02533 0.70819
v 2.60011 -1.01675 0.71482
v 2.66139 -1.05460 0.58559
v 2.68049 -1.08899 0.59376
v 2.67551 -1.12853 0.59881
v 2.64835 -1.15812 0.59881
v 2.60938 -1.16647 0.59376
v 2.57349 -1.15038 0.58559
v 2.55439 -1.11600 0.57741
v 2.55937 -1.07646 0.57236
v 2.58653 -1.04686 0.57236
v 2.62550 -1.03851 0.57742
v 2.68080 -1.07398 0.44484
v 2.70013 -1.10857 0.45148
v 2.69523 -1.14819 0.45598
v 2.66799 -1.17771 0.45662
v 2.62881 -1.18585 0.45316
v 2.59264 -1.16951 0.44692
v 2.57332 -1.13492 0.44028
v 2.57821 -1.09530 0.43579
v 2.60545 -1.06578 0.43515
v 2.64463 -1.05764 0.43861
v 2.69380 -1.09064 0.30302
v 2.71329 -1.12540 0.30810
v 2.70846 -1.16509 0.31204
v 2.68117 -1.19454 0.31332
v 2.64184 -1.20251 0.31147
v 2.60549 -1.18595 0.30718
v 2.58601 -1.15119 0.30210
v 2.59083 -1.11151 0.29816
v 2.61812 -1.08205 0.29688
v 2.65745 -1.07408 0.29873
v 2.70038 -1.10454 0.16046
v 2.71994 -1.13944 0.16398
v 2.71516 -1.17919 0.16735
v 2.68785 -1.20859 0.16928
v 2.64845 -1.21642 0.16904
v 2.61201 -1.19968 0.16671
v 2.59244 -1.16477 0.16319
v 2.59722 -1.12503 0.15982
v 2.62453 -1.09563 0.15789
v 2.66393 -1.08780 0.15813
v 2.70050 -1.11564 0.01750
v 2.72009 -1.15066 0.01945
v 2.71532 -1.19045 0.02226
v 2.68802 -1.21981 0.02484
v 2.64862 -1.22752 0.02621
v 2.61217 -1.21065 0.02585
v 2.59258 -1.17563 0.02389
v 2.59735 -1.13584 0.02109
v 2.62465 -1.10648 0.01851
v 2.66405 -1.09876 0.01714
v 2.69418 -1.12391 -0.12551
v 2.71371 -1.15902 -0.12512
v 2.70893 -1.19884 -0.12289
v 2.68168 -1.22818 -0.11966
v 2.64235 -1.23581 -0.11668
v 2.60598 -1.21884 -0.11507
v 2.58645 -1.18373 -0.11546
v 2.59123 -1.14391 -0.11769
v 2.61848 -1.11458 -0.12092
v 2.65781 -1.10694 -0.12391
v 2.68143 -1.12935 -0.26823
v 2.70083 -1.16451 -0.26940
v 2.69602 -1.20435 -0.26774
v 2.66883 -1.23367 -0.26387
v 2.62965 -1.24126 -0.25927
v 2.59345 -1.22422 -0.25570
v 2.57405 -1.18907 -0.25452
v 2.57886 -1.14922 -0.25619
v 2.60605 -1.11990 -0.26006
v 2.64523 -1.11231 -0.26466
v 2.66228 -1.13193 -0.41030
v 2.68149 -1.16711 -0.41304
v 2.67661 -1.20697 -0.41194
v 2.64952 -1.23628 -0.40743
v 2.61056 -1.24386 -0.40123
v 2.57461 -1.22680 -0.39571
v 2.55541 -1.19162 -0.39297
v 2.56028 -1.15176 -0.39407
v 2.58737 -1.12244 -0.39858
v 2.62633 -1.11487 -0.40478
v 2.63678 -1.13164 -0.55140
v 2.65571 -1.16681 -0.55569
v 2.65075 -1.20667 -0.55516
v 2.62378 -1.23600 -0.55001
v 2.58511 -1.24359 -0.54222
v 2.54951 -1.22655 -0.53476
v 2.53057 -1.19138 -0.53047
v 2.53553 -1.15152 -0.53100
v 2.56250 -1.12219 -0.53614
v 2.60117 -1.11460 -0.54394
v 2.60498 -1.12850 -0.69118
v 2.62358 -1.16363 -0.69700
v 2.61850 -1.20348 -0.69703
v 2.59169 -1.23283 -0.69126
v 2.55338 -1.24047 -0.68189
v 2.51821 -1.22349 -0.67251
v 2.49961 -1.18836 -0.66668
v 2.50468 -1.14851 -0.66665
v 2.53149 -1.11916 -0.67242
v 2.56980 -1.11151 -0.68179
v 2.56696 -1.12250 -0.82930
v 2.58516 -1.15756 -0.83664
v 2.57995 -1.19738 -0.83723
v 2.55332 -1.22677 -0.83084
v 2.51544 -1.23450 -0.81992
v 2.48078 -1.21761 -0.80863
v 2.46258 -1.18255 -0.80129
v 2.46780 -1.14273 -0.80070
v 2.49443 -1.11334 -0.80709
v 2.53231 -1.10561 -0.81801
v 2.52282 -1.11366 -0.96543
v 2.54055 -1.14861 -0.97427
v 2.53517 -1.18841 -0.97541
v 2.50875 -1.21785 -0.96841
v 2.47137 -1.22569 -0.95596
v 2.43732 -1.20893 -0.94279
v 2.41959 -1.17398 -0.93396
v 2.42497 -1.13419 -0.93282
v 2.45139 -1.10475 -0.93981
v 2.48877 -1.09691 -0.95227
v 2.47267 -1.10201 -1.09924
v 2.48985 -1.13682 -1.10956
v 2.48429 -1.17657 -1.11124
v 2.45810 -1.20607 -1.10365
v 2.42129 -1.21406 -1.08968
v 2.38792 -1.19748 -1.07468
v 2.37073 -1.16266 -1.06437
v 2.37629 -1.12291 -1.06269
v 2.40248 -1.09341 -1.07028
v 2.43929 -1.08543 -1.08424
v 2.41661 -1.08756 -1.23042
v 2.43320 -1.12221 -1.24218
v 2.42742 -1.16191 -1.24439
v 2.40150 -1.19148 -1.23622
v 2.36532 -1.19964 -1.22078
v 2.33271 -1.18328 -1.20397
v 2.31612 -1.14863 -1.19221
v 2.32190 -1.10893 -1.19000
v 2.34783 -1.07936 -1.19817
v 2.38400 -1.07119 -1.21361
v 2.35480 -1.07036 -1.35864
v 2.37072 -1.10482 -1.37181
v 2.36471 -1.14444 -1.37454
v 2.33906 -1.17411 -1.36580
v 2.30358 -1.18248 -1.34892
v 2.27182 -1.16636 -1.33035
v 2.25590 -1.13190 -1.31718
v 2.26191 -1.09228 -1.31444
v 2.28755 -1.06261 -1.32319
v 2.32303 -1.05424 -1.34007
v 2.28737 -1.05045 -1.48359
v 2.30256 -1.08468 -1.49814
v 2.29629 -1.12422 -1.50139
v 2.27096 -1.15399 -1.49209
v 2.23624 -1.16260 -1.47381
v 2.20540 -1.14676 -1.45352
v 2.19021 -1.11254 -1.43897
v 2.19647 -1.07299 -1.43572
v 2.22181 -1.04323 -1.44502
v 2.25652 -1.03462 -1.46330
v 2.21449 -1.02787 -1.60498
v 2.22889 -1.06184 -1.62087
v 2.22234 -1.10130 -1.62461
v 2.19734 -1.13117 -1.61478
v 2.16345 -1.14005 -1.59514
v 2.13360 -1.12454 -1.57317
v 2.11920 -1.09057 -1.55729
v 2.12575 -1.05111 -1.55354
v 2.15074 -1.02124 -1.56337
v 2.18464 -1.01236 -1.58302
v 2.13634 -1.00268 -1.72251
v 2.14989 -1.03637 -1.73970
v 2.14304 -1.07573 -1.74393
v 2.11840 -1.10572 -1.73358
v 2.08538 -1.11490 -1.71261
v 2.05660 -1.09975 -1.68903
v 2.04305 -1.06606 -1.67185
v 2.04990 -1.02670 -1.66762
v 2.07454 -0.99671 -1.67797
v 2.10755 -0.98753 -1.69893
v 2.05309 -0.97494 -1.83590
v 2.06574 -1.00832 -1.85434
v 2.05857 -1.04756 -1.85904
v 2.03431 -1.07769 -1.84819
v 2.00223 -1.08719 -1.82595
v 1.97459 -1.07244 -1.80081
v 1.96194 -1.03906 -1.78238
v 1.96911 -0.99982 -1.77768
v 1.99338 -0.96969 -1.78853
v 2.02545 -0.96019 -1.81076
v 1.96497 -0.94472 -1.94488
v 1.97666 -0.97775 -1.96452
v 1.96914 -1.01688 -1.96967
v 1.94528 -1.04715 -1.95835
v 1.91419 -1.05701 -1.93489
v 1.88775 -1.04268 -1.90825
v 1.87606 -1.00965 -1.88861
v 1.88359 -0.97052 -1.88346
v 1.90745 -0.94025 -1.89478
v 1.93853 -0.93039 -1.91824
v 1.87217 -0.91209 -2.04918
v 1.88285 -0.94475 -2.06998
v 1.87496 -0.98375 -2.07556
v 1.85152 -1.01417 -2.06378
v 1.82148 -1.02441 -2.03915
v 1.79631 -1.01054 -2.01108
v 1.78563 -0.97788 -1.99028
v 1.79352 -0.93888 -1.98470
v 1.81696 -0.90846 -1.99648
v 1.84700 -0.89822 -2.02111
v 1.77492 -0.87712 -2.14855
v 1.78454 -0.90940 -2.17045
v 1.77627 -0.94825 -2.17644
v 1.75327 -0.97884 -2.16424
v 1.72432 -0.98948 -2.13850
v 1.70048 -0.97611 -2.10905
v 1.69087 -0.94383 -2.08715
v 1.69914 -0.90498 -2.08116
v 1.72214 -0.87439 -2.09337
v 1.75109 -0.86375 -2.11911
v 1.67346 -0.83991 -2.24276
v 1.68197 -0.87176 -2.26570
v 1.67330 -0.91047 -2.27209
v 1.65075 -0.94123 -2.25947
v 1.62294 -0.95230 -2.23268
v 1.60050 -0.93946 -2.20194
v 1.59199 -0.90760 -2.17899
v 1.60066 -0.86890 -2.17261
v 1.62320 -0.83814 -2.18522
v 1.65101 -0.82706 -2.21202
v 1.56802 -0.80054 -2.33157
v 1.57538 -0.83195 -2.35550
v 1.56629 -0.87049 -2.36226
v 1.54422 -0.90144 -2.34926
v 1.51760 -0.91297 -2.32147
v 1.49659 -0.90068 -2.28951
v 1.48923 -0.86926 -2.26558
v 1.49832 -0.83072 -2.25882
v 1.52040 -0.79978 -2.27182
v 1.54702 -0.78825 -2.29961
v 1.45887 -0.75910 -2.41478
v 1.46504 -0.79005 -2.43963
v 1.45551 -0.82843 -2.44674
v 1.43393 -0.85956 -2.43338
v 1.40853 -0.87157 -2.40467
v 1.38902 -0.85987 -2.37156
v 1.38286 -0.82891 -2.34670
v 1.39238 -0.79054 -2.33960
v 1.41397 -0.75940 -2.35295
v 1.43936 -0.74739 -2.38167
v 1.34626 -0.71570 -2.49217
v 1.35120 -0.74617 -2.51789
v 1.34122 -0.78436 -2.52532
v 1.32014 -0.81570 -2.51164
v 1.29601 -0.82821 -2.48206
v 1.27804 -0.81711 -2.44788
v 1.27311 -0.78665 -2.42217
v 1.28309 -0.74845 -2.41473
v 1.30417 -0.71712 -2.42842
v 1.32830 -0.70461 -2.45800
v 1.23048 -0.67045 -2.56358
v 1.23415 -0.70040 -2.59009
v 1.22370 -0.73841 -2.59783
v 1.20314 -0.76996 -2.58384
v 1.18031 -0.78299 -2.55346
v 1.16393 -0.77253 -2.51830
v 1.16026 -0.74257 -2.49179
v 1.17070 -0.70456 -2.48405
v 1.19126 -0.67302 -2.49804
v 1.21410 -0.65998 -2.52842
v 1.11179 -0.62344 -2.62881
v 1.11415 -0.65287 -2.65605
v 1.10323 -0.69069 -2.66407
v 1.08320 -0.72245 -2.64980
v 1.06169 -0.73602 -2.61870
v 1.04694 -0.72622 -2.58264
v 1.04457 -0.69679 -2.55541
v 1.05549 -0.65897 -2.54739
v 1.07553 -0.62721 -2.56165
v 1.09703 -0.61364 -2.59275
v 0.99048 -0.57480 -2.68772
v 0.99152 -0.60368 -2.71562
v 0.98011 -0.64130 -2.72389
v 0.96061 -0.67328 -2.70938
v 0.94046 -0.68741 -2.67763
v 0.92737 -0.67829 -2.64076
v 0.92634 -0.64941 -2.61286
v 0.93774 -0.61179 -2.60459
v 0.95724 -0.57981 -2.61910
v 0.97739 -0.56568 -2.65086
v 0.86684 -0.52463 -2.74017
v 0.86653 -0.55296 -2.76866
v 0.85462 -0.59037 -2.77716
v 0.83566 -0.62258 -2.76243
v 0.81691 -0.63729 -2.73009
v 0.80551 -0.62887 -2.69250
v 0.80583 -0.60055 -2.66401
v 0.81774 -0.56313 -2.65551
v 0.83669 -0.53092 -2.67024
v 0.85545 -0.51622 -2.70258
v 0.74118 -0.47307 -2.78603
v 0.73949 -0.50082 -2.81503
v 0.72707 -0.53802 -2.82373
v 0.70867 -0.57046 -2.80881
v 0.69132 -0.58576 -2.77596
v 0.68164 -0.57807 -2.73774
v 0.68334 -0.55032 -2.70874
v 0.69576 -0.51312 -2.70004
v 0.71416 -0.48067 -2.71496
v 0.73151 -0.46538 -2.74780
v 0.61380 -0.42024 -2.82518
v 0.61070 -0.44739 -2.85462
v 0.59776 -0.48437 -2.86350
v 0.57993 -0.51706 -2.84842
v 0.56400 -0.53296 -2.81514
v 0.55607 -0.52600 -2.77638
v 0.55917 -0.49885 -2.74694
v 0.57211 -0.46187 -2.73806
v 0.58994 -0.42918 -2.75314
v 0.60587 -0.41328 -2.78642
v 0.48499 -0.36625 -2.85754
v 0.48048 -0.39280 -2.88735
v 0.46702 -0.42956 -2.89637
v 0.44975 -0.46249 -2.88116
v 0.43527 -0.47901 -2.84753
v 0.42910 -0.47281 -2.80832
v 0.43362 -0.44626 -2.77851
v 0.44708 -0.40950 -2.76949
v 0.46435 -0.37658 -2.78470
v 0.47883 -0.36006 -2.81833
v 0.35508 -0.31126 -2.88303
v 0.34914 -0.33719 -2.91313
v 0.33515 -0.37372 -2.92227
v 0.31845 -0.40689 -2.90696
v 0.30542 -0.42404 -2.87305
v 0.30104 -0.41861 -2.83349
v 0.30698 -0.39268 -2.80339
v 0.32097 -0.35615 -2.79424
v 0.33767 -0.32297 -2.80955
v 0.35070 -0.30583 -2.84346
v 0.22438 -0.25537 -2.90157
v 0.21700 -0.28068 -2.93189
v 0.20247 -0.31697 -2.94112
v 0.18634 -0.35040 -2.92575
v 0.17477 -0.36818 -2.89163
v 0.17218 -0.36354 -2.85182
v 0.17956 -0.33823 -2.82150
v 0.19409 -0.30194 -2.81227
v 0.21022 -0.26851 -2.82764
v 0.22179 -0.25072 -2.86176
v 0.09319 -0.19874 -2.91314
v 0.08437 -0.22341 -2.94360
v 0.06930 -0.25947 -2.95289
v 0.05375 -0.29315 -2.93748
v 0.04364 -0.31158 -2.90324
v 0.04285 -0.30772 -2.86327
v 0.05168 -0.28306 -2.83281
v 0.06674 -0.24699 -2.82352
v 0.08230 -0.21332 -2.83893
v 0.09240 -0.19488 -2.87317
v -0.03815 -0.14149 -2.91771
v -0.04842 -0.16552 -2.94822
v -0.06403 -0.20134 -2.95755
v -0.07901 -0.23527 -2.94213
v -0.08765 -0.25436 -2.90785
v -0.08664 -0.25130 -2.86781
v -0.07637 -0.22728 -2.83729
v -0.06076 -0.19146 -2.82797
v -0.04578 -0.15752 -2.84339
v -0.03714 -0.13844 -2.87766
v -0.16935 -0.08377 -2.91525
v -0.18106 -0.10715 -2.94575
v -0.19721 -0.14273 -2.95508
v -0.21163 -0.17692 -2.93968
v -0.21880 -0.19666 -2.90544
v -0.21599 -0.19441 -2.86543
v -0.20427 -0.17104 -2.83493
v -0.18813 -0.13546 -2.82560
v -0.17371 -0.10127 -2.84100
v -0.16654 -0.08152 -2.87524
v -0.30007 -0.02571 -2.90578
v -0.31323 -0.04844 -2.93618
v -0.32992 -0.08377 -2.94549
v -0.34377 -0.11822 -2.93015
v -0.34948 -0.13863 -2.89602
v -0.34488 -0.13719 -2.85614
v -0.33172 -0.11446 -2.82574
v -0.31503 -0.07913 -2.81643
v -0.30119 -0.04468 -2.83177
v -0.29547 -0.02428 -2.86590
v -0.43001 0.03254 -2.88932
v -0.44461 0.01047 -2.91955
v -0.46183 -0.02462 -2.92881
v -0.47512 -0.05933 -2.91355
v -0.47938 -0.08039 -2.87961
v -0.47300 -0.07977 -2.83995
v -0.45841 -0.05770 -2.80973
v -0.44118 -0.02261 -2.80047
v -0.42790 0.01210 -2.81573
v -0.42363 0.03316 -2.84967
v -0.55886 0.09086 -2.86592
v -0.57487 0.06944 -2.89590
v -0.59263 0.03459 -2.90507
v -0.60536 -0.00037 -2.88993
v -0.60819 -0.02210 -2.85626
v -0.60004 -0.02230 -2.81692
v -0.58403 -0.00088 -2.78694
v -0.56627 0.03397 -2.77777
v -0.55354 0.06893 -2.79291
v -0.55071 0.09066 -2.82658
v -0.68629 0.14908 -2.83562
v -0.70372 0.12832 -2.86527
v -0.72201 0.09372 -2.87433
v -0.73419 0.05850 -2.85933
v -0.73560 0.03611 -2.82601
v -0.72570 0.03510 -2.78709
v -0.70828 0.05586 -2.75743
v -0.68999 0.09046 -2.74838
v -0.67781 0.12568 -2.76337
v -0.67640 0.14807 -2.79670
v -0.81202 0.20708 -2.79850
v -0.83083 0.18698 -2.82775
v -0.84965 0.15262 -2.83667
v -0.86128 0.11715 -2.82184
v -0.86129 0.09410 -2.78894
v -0.84967 0.09228 -2.75053
v -0.83086 0.11238 -2.72128
v -0.81204 0.14674 -2.71236
v -0.80041 0.18221 -2.72718
v -0.80040 0.20527 -2.76008
v -0.93572 0.26472 -2.75465
v -0.95590 0.24527 -2.78342
v -0.97524 0.21116 -2.79217
v -0.98634 0.17543 -2.77755
v -0.98498 0.15172 -2.74515
v -0.97166 0.14909 -2.70734
v -0.95148 0.16855 -2.67856
v -0.93215 0.20266 -2.66981
v -0.92104 0.23839 -2.68443
v -0.92241 0.26210 -2.71684
v -1.05711 0.32186 -2.70417
v -1.07863 0.30305 -2.73240
v -1.09848 0.26918 -2.74095
v -1.10906 0.23320 -2.72656
v -1.10635 0.20884 -2.69473
v -1.09137 0.20542 -2.65761
v -1.06985 0.22423 -2.62938
v -1.05000 0.25810 -2.62083
v -1.03942 0.29408 -2.63522
v -1.04213 0.31843 -2.66705
v -1.17589 0.37835 -2.64719
v -1.19873 0.36018 -2.67479
v -1.21907 0.32655 -2.68312
v -1.22915 0.29032 -2.66899
v -1.22512 0.26533 -2.63780
v -1.20851 0.26111 -2.60147
v -1.18567 0.27929 -2.57386
v -1.16533 0.31291 -2.56554
v -1.15525 0.34914 -2.57967
v -1.15928 0.37414 -2.61086
v -1.29178 0.43407 -2.58385
v -1.31590 0.41652 -2.61076
v -1.33673 0.38314 -2.61883
v -1.34632 0.34667 -2.60499
v -1.34100 0.32104 -2.57451
v -1.32280 0.31604 -2.53905
v -1.29868 0.33359 -2.51214
v -1.27785 0.36698 -2.50406
v -1.26826 0.40345 -2.51791
v -1.27358 0.42908 -2.54838
v -1.40449 0.48888 -2.51429
v -1.42986 0.47195 -2.54044
v -1.45117 0.43880 -2.54823
v -1.46028 0.40209 -2.53470
v -1.45371 0.37584 -2.50501
v -1.43397 0.37008 -2.47050
v -1.40860 0.38700 -2.44435
v -1.38729 0.42016 -2.43656
v -1.37818 0.45687 -2.45009
v -1.38475 0.48312 -2.47978
v -1.51376 0.54264 -2.43869
v -1.54035 0.52632 -2.46400
v -1.56212 0.49340 -2.47150
v -1.57076 0.45646 -2.45830
v -1.56298 0.42960 -2.42946
v -1.54174 0.42308 -2.39599
v -1.51516 0.43940 -2.37067
v -1.49339 0.47232 -2.36318
v -1.48474 0.50927 -2.37638
v -1.49253 0.53613 -2.40522
v -1.61933 0.59524 -2.35722
v -1.64708 0.57951 -2.38164
v -1.66930 0.54682 -2.38880
v -1.67750 0.50964 -2.37597
v -1.66854 0.48219 -2.34805
v -1.64586 0.47494 -2.31570
v -1.61811 0.49066 -2.29127
v -1.59589 0.52335 -2.28411
v -1.58769 0.56053 -2.29694
v -1.59664 0.58798 -2.32487
v -1.72093 0.64653 -2.27009
v -1.74981 0.63138 -2.29355
v -1.77246 0.59891 -2.30036
v -1.78023 0.56152 -2.28791
v -1.77015 0.53348 -2.26096
v -1.74607 0.52551 -2.22981
v -1.71719 0.54065 -2.20635
v -1.69454 0.57312 -2.19954
v -1.68677 0.61052 -2.21199
v -1.69685 0.63856 -2.23893
v -1.81832 0.69640 -2.17750
v -1.84828 0.68182 -2.19994
v -1.87135 0.64957 -2.20637
v -1.87871 0.61195 -2.19433
v -1.86756 0.58335 -2.16842
v -1.84214 0.57468 -2.13854
v -1.81218 0.58926 -2.11610
v -1.78912 0.62151 -2.10967
v -1.78176 0.65913 -2.12171
v -1.79291 0.68773 -2.14762
v -1.91128 0.74473 -2.07968
v -1.94227 0.73070 -2.10104
v -1.96573 0.69865 -2.10707
v -1.97271 0.66083 -2.09546
v -1.96052 0.63168 -2.07065
v -1.93384 0.62233 -2.04211
v -1.90285 0.63636 -2.02075
v -1.87938 0.66841 -2.01472
v -1.87241 0.70623 -2.02633
v -1.88459 0.73538 -2.05114
v -1.99956 0.79139 -1.97685
v -2.03154 0.77790 -1.99708
v -2.05538 0.74606 -2.00269
v -2.06199 0.70803 -1.99153
v -2.04883 0.67835 -1.96787
v -2.02094 0.66835 -1.94075
v -1.98896 0.68185 -1.92052
v -1.96512 0.71369 -1.91491
v -1.95851 0.75171 -1.92607
v -1.97167 0.78139 -1.94973
v -2.08297 0.83629 -1.86928
v -2.11588 0.82330 -1.88832
v -2.14008 0.79166 -1.89349
v -2.14634 0.75345 -1.88280
v -2.13226 0.72326 -1.86034
v -2.10323 0.71262 -1.83470
v -2.07032 0.72561 -1.81566
v -2.04612 0.75725 -1.81049
v -2.03986 0.79547 -1.82118
v -2.05394 0.82566 -1.84364
v -2.16130 0.87931 -1.75722
v -2.19508 0.86681 -1.77502
v -2.21962 0.83536 -1.77972
v -2.22556 0.79696 -1.76952
v -2.21062 0.76628 -1.74832
v -2.18051 0.75504 -1.72421
v -2.14673 0.76754 -1.70641
v -2.12219 0.79899 -1.70171
v -2.11626 0.83739 -1.71191
v -2.13120 0.86807 -1.73312
v -2.23437 0.92034 -1.64094
v -2.26896 0.90832 -1.65745
v -2.29382 0.87704 -1.66167
v -2.29945 0.83847 -1.65197
v -2.28371 0.80732 -1.63207
v -2.25260 0.79551 -1.60957
v -2.21801 0.80754 -1.59305
v -2.19315 0.83881 -1.58883
v -2.18752 0.87739 -1.59853
v -2.20326 0.90853 -1.61843
v -2.30199 0.95929 -1.52072
v -2.33733 0.94771 -1.53590
v -2.36249 0.91661 -1.53961
v -2.36784 0.87787 -1.53044
v -2.35136 0.84629 -1.51188
v -2.31933 0.83392 -1.49103
v -2.28398 0.84550 -1.47584
v -2.25883 0.87660 -1.47213
v -2.25347 0.91535 -1.48130
v -2.26996 0.94693 -1.49986
v -2.36401 0.99607 -1.39684
v -2.40004 0.98491 -1.41065
v -2.42547 0.95398 -1.41385
v -2.43057 0.91508 -1.40521
v -2.41341 0.88307 -1.38804
v -2.38053 0.87019 -1.36889
v -2.34449 0.88135 -1.35507
v -2.31907 0.91229 -1.35188
v -2.31396 0.95119 -1.36051
v -2.33113 0.98319 -1.37769
v -2.42027 1.03058 -1.26961
v -2.45693 1.01982 -1.28202
v -2.48260 0.98904 -1.28468
v -2.48748 0.94999 -1.27659
v -2.46970 0.91760 -1.26084
v -2.43605 0.90423 -1.24343
v -2.39939 0.91499 -1.23103
v -2.37371 0.94577 -1.22837
v -2.36884 0.98482 -1.23646
v -2.38662 1.01721 -1.25221
v -2.47063 1.06275 -1.13934
v -2.50786 1.05236 -1.15030
v -2.53376 1.02172 -1.15242
v -2.53843 0.98254 -1.14489
v -2.52010 0.94978 -1.13058
v -2.48577 0.93595 -1.11497
v -2.44854 0.94634 -1.10402
v -2.42265 0.97698 -1.10190
v -2.41797 1.01616 -1.10943
v -2.43630 1.04892 -1.12373
v -2.51499 1.09249 -1.00634
v -2.55271 1.08244 -1.01582
v -2.57881 1.05194 -1.01738
v -2.58331 1.01263 -1.01042
v -2.56450 0.97953 -0.99760
v -2.52956 0.96529 -0.98381
v -2.49184 0.97533 -0.97433
v -2.46574 1.00583 -0.97277
v -2.46124 1.04514 -0.97973
v -2.48005 1.07824 -0.99255
v -2.55323 1.11973 -0.87092
v -2.59138 1.11000 -0.87890
v -2.61765 1.07962 -0.87988
v -2.62200 1.04020 -0.87350
v -2.60278 1.00679 -0.86219
v -2.56731 0.99216 -0.85027
v -2.52916 1.00189 -0.84230
v -2.50289 1.03226 -0.84131
v -2.49854 1.07169 -0.84769
v -2.51777 1.10510 -0.85900
v -2.58526 1.14441 -0.73342
v -2.62377 1.13497 -0.73987
v -2.65018 1.10471 -0.74027
v -2.65441 1.06518 -0.73448
v -2.63484 1.03149 -0.72470
v -2.59895 1.01650 -0.71467
v -2.56044 1.02594 -0.70822
v -2.53402 1.05621 -0.70782
v -2.52979 1.09573 -0.71361
v -2.54936 1.12942 -0.72339
v -2.61100 1.16647 -0.59416
v -2.64980 1.15729 -0.59906
v -2.67633 1.12713 -0.59888
v -2.68047 1.08751 -0.59368
v -2.66062 1.05357 -0.58545
v -2.62438 1.03826 -0.57734
v -2.58558 1.04744 -0.57243
v -2.55904 1.07760 -0.57262
v -2.55491 1.11722 -0.57782
v -2.57475 1.15117 -0.58605
v -2.63039 1.18586 -0.45349
v -2.66941 1.17691 -0.45682
v -2.69604 1.14684 -0.45604
v -2.70010 1.10714 -0.45144
v -2.68005 1.07297 -0.44478
v -2.64355 1.05739 -0.43860
v -2.60453 1.06634 -0.43526
v -2.57790 1.09641 -0.43604
v -2.57383 1.13611 -0.44064
v -2.59388 1.17027 -0.44731
v -2.64338 1.20252 -0.31173
v -2.68255 1.19377 -0.31349
v -2.70924 1.16378 -0.31211
v -2.71327 1.12401 -0.30811
v -2.69309 1.08965 -0.30302
v -2.65641 1.07383 -0.29879
v -2.61724 1.08258 -0.29703
v -2.59054 1.11257 -0.29841
v -2.58652 1.15234 -0.30241
v -2.60670 1.18670 -0.30750
v -2.64995 1.21643 -0.16924
v -2.68919 1.20784 -0.16941
v -2.71592 1.17792 -0.16742
v -2.71994 1.13810 -0.16403
v -2.69969 1.10357 -0.16052
v -2.66293 1.08754 -0.15825
v -2.62368 1.09613 -0.15808
v -2.59695 1.12605 -0.16007
v -2.59294 1.16587 -0.16346
v -2.61318 1.20039 -0.16697
v -2.65007 1.22753 -0.02635
v -2.68932 1.21909 -0.02493
v -2.71606 1.18923 -0.02233
v -2.72009 1.14935 -0.01954
v -2.69985 1.11470 -0.01762
v -2.66309 1.09850 -0.01731
v -2.62384 1.10695 -0.01873
v -2.59710 1.13681 -0.02134
v -2.59307 1.17668 -0.02413
v -2.61331 1.21134 -0.02604
v -2.64375 1.23582 0.11659
v -2.68293 1.22748 0.11960
v -2.70966 1.19766 0.12281
v -2.71372 1.15776 0.12500
v -2.69357 1.12301 0.12533
v -2.65690 1.10668 0.12367
v -2.61772 1.11502 0.12066
v -2.59099 1.14484 0.11745
v -2.58693 1.18475 0.11526
v -2.60708 1.21950 0.11493
v -2.63100 1.24127 0.25923
v -2.67004 1.23300 0.26383
v -2.69672 1.20322 0.26766
v -2.70086 1.16329 0.26925
v -2.68086 1.12847 0.26800
v -2.64437 1.11206 0.26438
v -2.60533 1.12032 0.25977
v -2.57865 1.15011 0.25595
v -2.57451 1.19004 0.25436
v -2.59451 1.22486 0.25561
v -2.61185 1.24386 0.40124
v -2.65068 1.23564 0.40742
v -2.67730 1.20587 0.41186
v -2.68152 1.16594 0.41286
v -2.66175 1.13108 0.41003
v -2.62553 1.11462 0.40445
v -2.58670 1.12284 0.39827
v -2.56009 1.15261 0.39383
v -2.55586 1.19254 0.39284
v -2.57563 1.22740 0.39566
v -2.58635 1.24359 0.54226
v -2.62490 1.23538 0.55002
v -2.65142 1.20562 0.55507
v -2.65576 1.16569 0.55547
v -2.63629 1.13083 0.55108
v -2.60042 1.11436 0.54357
v -2.56187 1.12257 0.53581
v -2.53536 1.15233 0.53076
v -2.53101 1.19226 0.53036
v -2.55049 1.22712 0.53475
v -2.55456 1.24046 0.68197
v -2.59276 1.23223 0.69129
v -2.61915 1.20247 0.69694
v -2.62365 1.16255 0.69676
v -2.60453 1.12772 0.69082
v -2.56911 1.11128 0.68139
v -2.53091 1.11951 0.67207
v -2.50453 1.14927 0.66642
v -2.50003 1.18919 0.66660
v -2.51914 1.22402 0.67254
v -2.51656 1.23448 0.82002
v -2.55434 1.22619 0.83089
v -2.58057 1.19642 0.83714
v -2.58524 1.15652 0.83638
v -2.56656 1.12175 0.82891
v -2.53167 1.10538 0.81758
v -2.49389 1.11367 0.80672
v -2.46766 1.14344 0.80047
v -2.46299 1.18334 0.80122
v -2.48167 1.21811 0.80869
v -2.47244 1.22566 0.95609
v -2.50973 1.21729 0.96847
v -2.53578 1.18748 0.97531
v -2.54065 1.14763 0.97399
v -2.52247 1.11295 0.96502
v -2.48819 1.09669 0.95181
v -2.45090 1.10506 0.93943
v -2.42485 1.13486 0.93259
v -2.41998 1.17472 0.93391
v -2.43816 1.20940 0.94289
v -2.42230 1.21402 1.08984
v -2.45903 1.20554 1.10372
v -2.48488 1.17569 1.11114
v -2.48997 1.13589 1.10926
v -2.47236 1.10133 1.09881
v -2.43877 1.08522 1.08377
v -2.40204 1.09370 1.06988
v -2.37620 1.12355 1.06246
v -2.37111 1.16335 1.06434
v -2.38872 1.19791 1.07480
v -2.36627 1.19960 1.22095
v -2.40238 1.19097 1.23630
v -2.42799 1.16107 1.24429
v -2.43333 1.12133 1.24187
v -2.41635 1.08692 1.22996
v -2.38354 1.07099 1.21312
v -2.34743 1.07962 1.19777
v -2.32182 1.10952 1.18978
v -2.31649 1.14927 1.19220
v -2.33346 1.18367 1.20410
v -2.30448 1.18242 1.34910
v -2.33990 1.17361 1.36589
v -2.36525 1.14365 1.37444
v -2.37086 1.10398 1.37149
v -2.35458 1.06975 1.35817
v -2.32263 1.05405 1.33956
v -2.28721 1.06286 1.32278
v -2.26185 1.09283 1.31423
v -2.25625 1.13250 1.31718
v -2.27253 1.16672 1.33050
v -2.23708 1.16253 1.47400
v -2.27175 1.15351 1.49218
v -2.29682 1.12347 1.50128
v -2.30272 1.08389 1.49782
v -2.28719 1.04988 1.48312
v -2.25617 1.03443 1.46279
v -2.22151 1.04345 1.44461
v -2.19644 1.07349 1.43551
v -2.19054 1.11308 1.43897
v -2.20606 1.14709 1.45367
v -2.16423 1.13998 1.59533
v -2.19809 1.13072 1.61487
v -2.22285 1.10059 1.62450
v -2.22907 1.06110 1.62054
v -2.21436 1.02733 1.60450
v -2.18435 1.01219 1.58251
v -2.15049 1.02145 1.56296
v -2.12573 1.05158 1.55333
v -2.11951 1.09107 1.55729
v -2.13422 1.12483 1.57333
v -2.08611 1.11482 1.71280
v -2.11909 1.10529 1.73366
v -2.14353 1.07506 1.74381
v -2.15008 1.03567 1.73937
v -2.13625 1.00218 1.72203
v -2.10732 0.98737 1.69842
v -2.07433 0.99689 1.67756
v -2.04990 1.02712 1.66741
v -2.04335 1.06651 1.67186
v -2.05718 1.10000 1.68919
v -2.00291 1.08710 1.82614
v -2.03496 1.07728 1.84827
v -2.05904 1.04694 1.85892
v -2.06595 1.00767 1.85401
v -2.05305 0.97447 1.83543
v -2.02527 0.96003 1.81026
v -1.99321 0.96985 1.78813
v -1.96913 1.00020 1.77748
v -1.96222 1.03946 1.78238
v -1.97512 1.07266 1.80097
v -1.91513 1.05701 1.93471
v -1.94670 1.04703 1.95746
v -1.97059 1.01662 1.96835
v -1.97768 0.97742 1.96322
v -1.96527 0.94438 1.94402
v -1.93808 0.93014 1.91810
v -1.90652 0.94013 1.89535
v -1.88262 0.97053 1.88446
v -1.87553 1.00974 1.88959
v -1.88795 1.04277 1.90878
f 2 11 1
f 3 12 2
f 3 14 13
f 4 15 14
f 5 16 15
f 6 17 16
f 7 18 17
f 9 18 8
f 10 19 9
f 1 20 10
f 11 22 21
f 12 23 22
f 13 24 23
f 14 25 24
f 15 26 25
f 16 27 26
f 17 28 27
f 18 29 28
f 19 30 29
f 20 21 30
f 21 32 31
f 22 33 32
f 23 34 33
f 24 35 34
f 25 36 35
f 26 37 36
f 27 38 37
f 28 39 38
f 29 40 39
f 30 31 40
f 31 42 41
f 32 43 42
f 33 44 43
f 34 45 44
f 35 46 45
f 36 47 46
f 37 48 47
f 38 49 48
f 39 50 49
f 40 41 50
f 41 52 51
f 42 53 52
f 43 54 53
f 44 55 54
f 45 56 55
f 46 57 56
f 47 58 57
f 48 59 58
f 49 60 59
f 50 51 60
f 51 62 61
f 52 63 62
f 53 64 63
f 54 65 64
f 55 66 65
f 56 67 66
f 57 68 67
f 58 69 68
f 59 70 69
f 60 61 70
f 61 72 71
f 62 73 72
f 63 74 73
f 64 75 74
f 65 76 75
f 66 77 76
f 67 78 77
f 68 79 78
f 69 80 79
f 70 71 80
f 71 82 81
f 72 83 82
f 73 84 83
f 74 85 84
f 75 86 85
f 76 87 86
f 77 88 87
f 78 89 88
f 79 90 89
f 80 81 90
f 81 92 91
f 82 93 92
f 83 94 93
f 84 95 94
f 85 96 95
f 86 97 96
f 87 98 97
f 88 99 98
f 89 100 99
f 90 91 100
f 91 102 101
f 92 103 102
f 93 104 103
f 94 105 104
f 95 106 105
f 96 107 106
f 97 108 107
f 98 109 108
f 99 110 109
f 100 101 110
f 101 112 111
f 102 113 112
f 103 114 113
f 104 115 114
f 105 116 115
f 106 117 116
f 107 118 117
f 108 119 118
f 109 120 119
f 110 111 120
f 111 122 121
f 112 123 122
f 113 124 123
f 114 125 124
f 115 126 125
f 116 127 126
f 117 128 127
f 118 129 128
f 119 130 129
f 120 121 130
f 121 132 131
f 122 133 132
f 123 134 133
f 124 135 134
f 125 136 135
f 126 137 136
f 127 138 137
f 128 139 138
f 129 140 139
f 130 131 140
f 131 142 141
f 132 143 142
f 133 144 143
f 134 145 144
f 135 146 145
f 136 147 146
f 137 148 147
f 138 149 148
f 139 150 149
f 140 141 150
f 141 152 151
f 142 153 152
f 143 154 153
f 144 155 154
f 145 156 155
f 146 157 156
f 147 158 157
f 148 159 158
f 149 160 159
f 150 151 160
f 151 162 161
f 152 163 162
f 153 164 163
f 154 165 164
f 155 166 165
f 156 167 166
f 157 168 167
f 158 169 168
f 159 170 169
f 160 161 170
f 161 172 171
f 162 173 172
f 163 174 173
f 164 175 174
f 165 176 175
f 166 177 176
f 167 178 177
f 168 179 178
f 169 180 179
f 170 171 180
f 171 182 181
f 172 183 182
f 173 184 183
f 174 185 184
f 175 186 185
f 176 187 186
f 177 188 187
f 178 189 188
f 179 190 189
f 180 181 190
f 181 192 191
f 182 193 192
f 183 194 193
f 184 195 194
f 185 196 195
f 186 197 196
f 187 198 197
f 188 199 198
f 189 200 199
f 190 191 200
f 191 202 201
f 192 203 202
f 193 204 203
f 194 205 204
f 195 206 205
f 196 207 206
f 197 208 207
f 198 209 208
f 199 210 209
f 200 201 210
f 201 212 211
f 202 213 212
f 203 214 213
f 204 215 214
f 205 216 215
f 206 217 216
f 207 218 217
f 208 219 218
f 209 220 219
f 210 211 220
f 211 222 221
f 212 223 222
f 213 224 223
f 214 225 224
f 215 226 225
f 216 227 226
f 217 228 227
f 218 229 228
f 219 230 229
f 220 221 230
f 221 232 231
f 222 233 232
f 223 234 233
f 224 235 234
f 225 236 235
f 226 237 236
f 227 238 237
f 228 239 238
f 229 240 239
f 230 231 240
f 231 242 241
f 232 243 242
f 233 244 243
f 234 245 244
f 235 246 245
f 236 247 246
f 237 248 247
f 238 249 248
f 239 250 249
f 240 241 250
f 241 252 251
f 242 253 252
f 243 254 253
f 244 255 254
f 245 256 255
f 246 257 256
f 247 258 257
f 248 259 258
f 249 260 259
f 250 251 260
f 251 262 261
f 252 263 262
f 253 264 263
f 254 265 264
f 255 266 265
f 256 267 266
f 257 268 267
f 258 269 268
f 259 270 269
f 260 261 270
f 261 272 271
f 262 273 272
f 263 274 273
f 264 275 274
f 265 276 275
f 266 277 276
f 267 278 277
f 268 279 278
f 269 280 279
f 270 271 280
f 271 282 281
f 272 283 282
f 273 284 283
f 274 285 284
f 275 286 285
f 276 287 286
f 277 288 287
f 278 289 288
f 279 290 289
f 280 281 290
f 281 292 291
f 282 293 292
f 283 294 293
f 284 295 294
f 285 296 295
f 286 297 296
f 287 298 297
f 288 299 298
f 289 300 299
f 290 291 300
f 291 302 301
f 292 303 302
f 293 304 303
f 294 305 304
f 295 306 305
f 296 307 306
f 297 308 307
f 298 309 308
f 299 310 309
f 300 301 310
f 301 312 311
f 302 313 312
f 303 314 313
f 304 315 314
f 305 316 315
f 306 317 316
f 307 318 317
f 308 319 318
f 309 320 319
f 310 311 320
f 311 322 321
f 312 323 322
f 313 324 323
f 314 325 324
f 315 326 325
f 316 327 326
f 317 328 327
f 318 329 328
f 319 330 329
f 320 321 330
f 321 332 331
f 322 333 332
f 323 334 333
f 324 335 334
f 325 336 335
f 326 337 336
f 327 338 337
f 328 339 338
f 329 340 339
f 330 331 340
f 331 342 341
f 332 343 342
f 333 344 343
f 334 345 344
f 335 346 345
f 336 347 346
f 337 348 347
f 338 349 348
f 339 350 349
f 340 341 350
f 341 352 351
f 342 353 352
f 343 354 353
f 344 355 354
f 345 356 355
f 346 357 356
f 347 358 357
f 348 359 358
f 349 360 359
f 350 351 360
f 351 362 361
f 352 363 362
f 353 364 363
f 354 365 364
f 355 366 365
f 356 367 366
f 357 368 367
f 358 369 368
f 359 370 369
f 360 361 370
f 361 372 371
f 362 373 372
f 363 374 373
f 364 375 374
f 365 376 375
f 366 377 376
f 367 378 377
f 368 379 378
f 369 380 379
f 370 371 380
f 371 382 381
f 372 383 382
f 373 384 383
f 374 385 384
f 375 386 385
f 376 387 386
f 377 388 387
f 378 389 388
f 379 390 389
f 380 381 390
f 381 392 391
f 382 393 392
f 383 394 393
f 384 395 394
f 385 396 395
f 386 397 396
f 387 398 397
f 388 399 398
f 389 400 399
f 390 391 400
f 391 402 401
f 392 403 402
f 393 404 403
f 394 405 404
f 395 406 405
f 396 407 406
f 397 408 407
f 398 409 408
f 399 410 409
f 400 401 410
f 401 412 411
f 402 413 412
f 403 414 413
f 404 415 414
f 405 416 415
f 406 417 416
f 407 418 417
f 408 419 418
f 409 420 419
f 410 411 420
f 411 422 421
f 412 423 422
f 413 424 423
f 414 425 424
f 415 426 425
f 416 427 426
f 417 428 427
f 418 429 428
f 419 430 429
f 420 421 430
f 421 432 431
f 422 433 432
f 423 434 433
f 424 435 434
f 425 436 435
f 426 437 436
f 427 438 437
f 428 439 438
f 429 440 439
f 430 431 440
f 431 442 441
f 432 443 442
f 433 444 443
f 434 445 444
f 435 446 445
f 436 447 446
f 437 448 447
f 438 449 448
f 439 450 449
f 440 441 450
f 441 452 451
f 442 453 452
f 443 454 453
f 444 455 454
f 445 456 455
f 446 457 456
f 447 458 457
f 448 459 458
f 449 460 459
f 450 451 460
f 451 462 461
f 452 463 462
f 453 464 463
f 454 465 464
f 455 466 465
f 456 467 466
f 457 468 467
f 458 469 468
f 459 470 469
f 460 461 470
f 461 472 471
f 462 473 472
f 463 474 473
f 464 475 474
f 465 476 475
f 466 477 476
f 467 478 477
f 468 479 478
f 469 480 479
f 470 471 480
f 471 482 481
f 472 483 482
f 473 484 483
f 474 485 484
f 475 486 485
f 476 487 486
f 477 488 487
f 478 489 488
f 479 490 489
f 480 481 490
f 481 492 491
f 482 493 492
f 483 494 493
f 484 495 494
f 485 496 495
f 486 497 496
f 487 498 497
f 488 499 498
f 489 500 499
f 490 491 500
f 491 502 501
f 492 503 502
f 493 504 503
f 494 505 504
f 495 506 505
f 496 507 506
f 497 508 507
f 498 509 508
f 499 510 509
f 500 501 510
f 501 512 511
f 502 513 512
f 503 514 513
f 504 515 514
f 505 516 515
f 506 517 516
f 507 518 517
f 508 519 518
f 509 520 519
f 510 511 520
f 511 522 521
f 512 523 522
f 513 524 523
f 514 525 524
f 515 526 525
f 516 527 526
f 517 528 527
f 518 529 528
f 519 530 529
f 520 521 530
f 521 532 531
f 522 533 532
f 523 534 533
f 524 535 534
f 525 536 535
f 526 537 536
f 527 538 537
f 528 539 538
f 529 540 539
f 530 531 540
f 531 542 541
f 532 543 542
f 533 544 543
f 534 545 544
f 535 546 545
f 536 547 546
f 537 548 547
f 538 549 548
f 539 550 549
f 540 541 550
f 541 552 551
f 542 553 552
f 543 554 553
f 544 555 554
f 545 556 555
f 546 557 556
f 547 558 557
f 548 559 558
f 549 560 559
f 550 551 560
f 551 562 561
f 552 563 562
f 553 564 563
f 554 565 564
f 555 566 565
f 556 567 566
f 557 568 567
f 558 569 568
f 559 570 569
f 560 561 570
f 561 572 571
f 562 573 572
f 563 574 573
f 564 575 574
f 565 576 575
f 566 577 576
f 567 578 577
f 568 579 578
f 569 580 579
f 570 571 580
f 571 582 581
f 572 583 582
f 573 584 583
f 574 585 584
f 575 586 585
f 576 587 586
f 577 588 587
f 578 589 588
f 579 590 589
f 580 581 590
f 581 592 591
f 582 593 592
f 583 594 593
f 584 595 594
f 585 596 595
f 586 597 596
f 587 598 597
f 588 599 598
f 589 600 599
f 590 591 600
f 591 602 601
f 592 603 602
f 593 604 603
f 594 605 604
f 595 606 605
f 596 607 606
f 597 608 607
f 598 609 608
f 599 610 609
f 600 601 610
f 601 612 611
f 602 613 612
f 603 614 613
f 604 615 614
f 605 616 615
f 606 617 616
f 607 618 617
f 608 619 618
f 609 620 619
f 610 611 620
f 611 622 621
f 612 623 622
f 613 624 623
f 614 625 624
f 615 626 625
f 616 627 626
f 617 628 627
f 618 629 628
f 619 630 629
f 620 621 630
f 621 632 631
f 622 633 632
f 623 634 633
f 624 635 634
f 625 636 635
f 626 637 636
f 627 638 637
f 628 639 638
f 629 640 639
f 630 631 640
f 631 642 641
f 632 643 642
f 633 644 643
f 634 645 644
f 635 646 645
f 636 647 646
f 637 648 647
f 638 649 648
f 639 650 649
f 640 641 650
f 641 652 651
f 642 653 652
f 643 654 653
f 644 655 654
f 645 656 655
f 646 657 656
f 647 658 657
f 648 659 658
f 649 660 659
f 650 651 660
f 651 662 661
f 652 663 662
f 653 664 663
f 654 665 664
f 655 666 665
f 656 667 666
f 657 668 667
f 658 669 668
f 659 670 669
f 660 661 670
f 661 672 671
f 662 673 672
f 663 674 673
f 664 675 674
f 665 676 675
f 666 677 676
f 667 678 677
f 668 679 678
f 669 680 679
f 670 671 680
f 671 682 681
f 672 683 682
f 673 684 683
f 674 685 684
f 675 686 685
f 676 687 686
f 677 688 687
f 678 689 688
f 679 690 689
f 680 681 690
f 681 692 691
f 682 693 692
f 683 694 693
f 684 695 694
f 685 696 695
f 686 697 696
f 687 698 697
f 688 699 698
f 689 700 699
f 690 691 700
f 691 702 701
f 692 703 702
f 693 704 703
f 694 705 704
f 695 706 705
f 696 707 706
f 697 708 707
f 698 709 708
f 699 710 709
f 700 701 710
f 701 712 711
f 702 713 712
f 703 714 713
f 704 715 714
f 705 716 715
f 706 717 716
f 707 718 717
f 708 719 718
f 709 720 719
f 710 711 720
f 711 722 721
f 712 723 722
f 713 724 723
f 714 725 724
f 715 726 725
f 716 727 726
f 717 728 727
f 718 729 728
f 719 730 729
f 720 721 730
f 721 732 731
f 722 733 732
f 723 734 733
f 724 735 734
f 725 736 735
f 726 737 736
f 727 738 737
f 728 739 738
f 729 740 739
f 730 731 740
f 731 742 741
f 732 743 742
f 733 744 743
f 734 745 744
f 735 746 745
f 736 747 746
f 737 748 747
f 738 749 748
f 739 750 749
f 740 741 750
f 741 752 751
f 742 753 752
f 743 754 753
f 744 755 754
f 745 756 755
f 746 757 756
f 747 758 757
f 748 759 758
f 749 760 759
f 750 751 760
f 751 762 761
f 752 763 762
f 753 764 763
f 754 765 764
f 755 766 765
f 756 767 766
f 757 768 767
f 758 769 768
f 759 770 769
f 760 761 770
f 761 772 771
f 762 773 772
f 763 774 773
f 764 775 774
f 765 776 775
f 766 777 776
f 767 778 777
f 768 779 778
f 769 780 779
f 770 771 780
f 771 782 781
f 772 783 782
f 773 784 783
f 774 785 784
f 775 786 785
f 776 787 786
f 777 788 787
f 778 789 788
f 779 790 789
f 780 781 790
f 781 792 791
f 782 793 792
f 783 794 793
f 784 795 794
f 785 796 795
f 786 797 796
f 787 798 797
f 788 799 798
f 789 800 799
f 790 791 800
f 791 802 801
f 792 803 802
f 793 804 803
f 794 805 804
f 795 806 805
f 796 807 806
f 797 808 807
f 798 809 808
f 799 810 809
f 800 801 810
f 801 812 811
f 802 813 812
f 803 814 813
f 804 815 814
f 805 816 815
f 806 817 816
f 807 818 817
f 808 819 818
f 809 820 819
f 810 811 820
f 811 822 821
f 812 823 822
f 813 824 823
f 814 825 824
f 815 826 825
f 816 827 826
f 817 828 827
f 818 829 828
f 819 830 829
f 820 821 830
f 821 832 831
f 822 833 832
f 823 834 833
f 824 835 834
f 825 836 835
f 826 837 836
f 827 838 837
f 828 839 838
f 829 840 839
f 830 831 840
f 831 842 841
f 832 843 842
f 833 844 843
f 834 845 844
f 835 846 845
f 836 847 846
f 837 848 847
f 838 849 848
f 839 850 849
f 840 841 850
f 841 852 851
f 842 853 852
f 843 854 853
f 844 855 854
f 845 856 855
f 846 857 856
f 847 858 857
f 848 859 858
f 849 860 859
f 850 851 860
f 851 862 861
f 852 863 862
f 853 864 863
f 854 865 864
f 855 866 865
f 856 867 866
f 857 868 867
f 858 869 868
f 859 870 869
f 860 861 870
f 861 872 871
f 862 873 872
f 863 874 873
f 864 875 874
f 865 876 875
f 866 877 876
f 867 878 877
f 868 879 878
f 869 880 879
f 870 871 880
f 871 882 881
f 872 883 882
f 873 884 883
f 874 885 884
f 875 886 885
f 876 887 886
f 877 888 887
f 878 889 888
f 879 890 889
f 880 881 890
f 881 892 891
f 882 893 892
f 883 894 893
f 884 895 894
f 885 896 895
f 886 897 896
f 887 898 897
f 888 899 898
f 889 900 899
f 890 891 900
f 891 902 901
f 892 903 902
f 893 904 903
f 894 905 904
f 895 906 905
f 896 907 906
f 897 908 907
f 898 909 908
f 899 910 909
f 900 901 910
f 901 912 911
f 902 913 912
f 903 914 913
f 904 915 914
f 905 916 915
f 906 917 916
f 907 918 917
f 908 919 918
f 909 920 919
f 910 911 920
f 911 922 921
f 912 923 922
f 913 924 923
f 914 925 924
f 915 926 925
f 916 927 926
f 917 928 927
f 918 929 928
f 919 930 929
f 920 921 930
f 921 932 931
f 922 933 932
f 923 934 933
f 924 935 934
f 925 936 935
f 926 937 936
f 927 938 937
f 928 939 938
f 929 940 939
f 930 931 940
f 931 942 941
f 932 943 942
f 933 944 943
f 934 945 944
f 935 946 945
f 936 947 946
f 937 948 947
f 938 949 948
f 939 950 949
f 940 941 950
f 941 952 951
f 942 953 952
f 943 954 953
f 944 955 954
f 945 956 955
f 946 957 956
f 947 958 957
f 948 959 958
f 949 960 959
f 950 951 960
f 951 962 961
f 952 963 962
f 953 964 963
f 954 965 964
f 955 966 965
f 956 967 966
f 957 968 967
f 958 969 968
f 959 970 969
f 960 961 970
f 961 972 971
f 962 973 972
f 963 974 973
f 964 975 974
f 965 976 975
f 966 977 976
f 967 978 977
f 968 979 978
f 969 980 979
f 970 971 980
f 971 982 981
f 972 983 982
f 973 984 983
f 974 985 984
f 975 986 985
f 976 987 986
f 977 988 987
f 978 989 988
f 979 990 989
f 980 981 990
f 981 992 991
f 982 993 992
f 983 994 993
f 984 995 994
f 985 996 995
f 986 997 996
f 987 998 997
f 988 999 998
f 989 1000 999
f 990 991 1000
f 991 1002 1001
f 992 1003 1002
f 993 1004 1003
f 994 1005 1004
f 995 1006 1005
f 996 1007 1006
f 997 1008 1007
f 998 1009 1008
f 999 1010 1009
f 1000 1001 1010
f 1001 1012 1011
f 1002 1013 1012
f 1003 1014 1013
f 1004 1015 1014
f 1005 1016 1015
f 1006 1017 1016
f 1007 1018 1017
f 1008 1019 1018
f 1009 1020 1019
f 1010 1011 1020
f 1011 1022 1021
f 1012 1023 1022
f 1013 1024 1023
f 1014 1025 1024
f 1015 1026 1025
f 1016 1027 1026
f 1017 1028 1027
f 1018 1029 1028
f 1019 1030 1029
f 1020 1021 1030
f 1021 1032 1031
f 1022 1033 1032
f 1023 1034 1033
f 1024 1035 1034
f 1025 1036 1035
f 1026 1037 1036
f 1027 1038 1037
f 1028 1039 1038
f 1029 1040 1039
f 1030 1031 1040
f 1031 1042 1041
f 1032 1043 1042
f 1033 1044 1043
f 1034 1045 1044
f 1035 1046 1045
f 1036 1047 1046
f 1037 1048 1047
f 1038 1049 1048
f 1039 1050 1049
f 1040 1041 1050
f 1041 1052 1051
f 1042 1053 1052
f 1043 1054 1053
f 1044 1055 1054
f 1045 1056 1055
f 1046 1057 1056
f 1047 1058 1057
f 1048 1059 1058
f 1049 1060 1059
f 1050 1051 1060
f 1051 1062 1061
f 1052 1063 1062
f 1053 1064 1063
f 1054 1065 1064
f 1055 1066 1065
f 1056 1067 1066
f 1057 1068 1067
f 1058 1069 1068
f 1059 1070 1069
f 1060 1061 1070
f 1061 1072 1071
f 1062 1073 1072
f 1063 1074 1073
f 1064 1075 1074
f 1065 1076 1075
f 1066 1077 1076
f 1067 1078 1077
f 1068 1079 1078
f 1069 1080 1079
f 1070 1071 1080
f 1071 1082 1081
f 1072 1083 1082
f 1073 1084 1083
f 1074 1085 1084
f 1075 1086 1085
f 1076 1087 1086
f 1077 1088 1087
f 1078 1089 1088
f 1079 1090 1089
f 1080 1081 1090
f 1081 1092 1091
f 1082 1093 1092
f 1083 1094 1093
f 1084 1095 1094
f 1085 1096 1095
f 1086 1097 1096
f 1087 1098 1097
f 1088 1099 1098
f 1089 1100 1099
f 1090 1091 1100
f 1091 1102 1101
f 1092 1103 1102
f 1093 1104 1103
f 1094 1105 1104
f 1095 1106 1105
f 1096 1107 1106
f 1097 1108 1107
f 1098 1109 1108
f 1099 1110 1109
f 1100 1101 1110
f 1101 1112 1111
f 1102 1113 1112
f 1103 1114 1113
f 1104 1115 1114
f 1105 1116 1115
f 1106 1117 1116
f 1107 1118 1117
f 1108 1119 1118
f 1109 1120 1119
f 1110 1111 1120
f 1111 1122 1121
f 1112 1123 1122
f 1113 1124 1123
f 1114 1125 1124
f 1115 1126 1125
f 1116 1127 1126
f 1117 1128 1127
f 1118 1129 1128
f 1119 1130 1129
f 1120 1121 1130
f 1121 1132 1131
f 1122 1133 1132
f 1123 1134 1133
f 1124 1135 1134
f 1125 1136 1135
f 1126 1137 1136
f 1127 1138 1137
f 1128 1139 1138
f 1129 1140 1139
f 1130 1131 1140
f 1131 1142 1141
f 1132 1143 1142
f 1133 1144 1143
f 1134 1145 1144
f 1135 1146 1145
f 1136 1147 1146
f 1137 1148 1147
f 1138 1149 1148
f 1139 1150 1149
f 1140 1141 1150
f 1141 1152 1151
f 1142 1153 1152
f 1143 1154 1153
f 1144 1155 1154
f 1145 1156 1155
f 1146 1157 1156
f 1147 1158 1157
f 1148 1159 1158
f 1149 1160 1159
f 1150 1151 1160
f 1151 1162 1161
f 1152 1163 1162
f 1153 1164 1163
f 1154 1165 1164
f 1155 1166 1165
f 1156 1167 1166
f 1157 1168 1167
f 1158 1169 1168
f 1159 1170 1169
f 1160 1161 1170
f 1161 1172 1171
f 1162 1173 1172
f 1163 1174 1173
f 1164 1175 1174
f 1165 1176 1175
f 1166 1177 1176
f 1167 1178 1177
f 1168 1179 1178
f 1169 1180 1179
f 1170 1171 1180
f 1171 1182 1181
f 1172 1183 1182
f 1173 1184 1183
f 1174 1185 1184
f 1175 1186 1185
f 1176 1187 1186
f 1177 1188 1187
f 1178 1189 1188
f 1179 1190 1189
f 1180 1181 1190
f 1181 1192 1191
f 1182 1193 1192
f 1183 1194 1193
f 1184 1195 1194
f 1185 1196 1195
f 1186 1197 1196
f 1187 1198 1197
f 1188 1199 1198
f 1189 1200 1199
f 1190 1191 1200
f 1191 1202 1201
f 1192 1203 1202
f 1193 1204 1203
f 1194 1205 1204
f 1195 1206 1205
f 1196 1207 1206
f 1197 1208 1207
f 1198 1209 1208
f 1199 1210 1209
f 1200 1201 1210
f 1201 1212 1211
f 1202 1213 1212
f 1203 1214 1213
f 1204 1215 1214
f 1205 1216 1215
f 1206 1217 1216
f 1207 1218 1217
f 1208 1219 1218
f 1209 1220 1219
f 1210 1211 1220
f 1211 1222 1221
f 1212 1223 1222
f 1213 1224 1223
f 1214 1225 1224
f 1215 1226 1225
f 1216 1227 1226
f 1217 1228 1227
f 1218 1229 1228
f 1219 1230 1229
f 1220 1221 1230
f 1221 1232 1231
f 1222 1233 1232
f 1223 1234 1233
f 1224 1235 1234
f 1225 1236 1235
f 1226 1237 1236
f 1227 1238 1237
f 1228 1239 1238
f 1229 1240 1239
f 1230 1231 1240
f 1231 1242 1241
f 1232 1243 1242
f 1233 1244 1243
f 1234 1245 1244
f 1235 1246 1245
f 1236 1247 1246
f 1237 1248 1247
f 1238 1249 1248
f 1239 1250 1249
f 1240 1241 1250
f 1241 1252 1251
f 1242 1253 1252
f 1243 1254 1253
f 1244 1255 1254
f 1245 1256 1255
f 1246 1257 1256
f 1247 1258 1257
f 1248 1259 1258
f 1249 1260 1259
f 1250 1251 1260
f 1251 1262 1261
f 1252 1263 1262
f 1253 1264 1263
f 1254 1265 1264
f 1255 1266 1265
f 1256 1267 1266
f 1257 1268 1267
f 1258 1269 1268
f 1259 1270 1269
f 1260 1261 1270
f 1261 1272 1271
f 1262 1273 1272
f 1263 1274 1273
f 1264 1275 1274
f 1265 1276 1275
f 1266 1277 1276
f 1267 1278 1277
f 1268 1279 1278
f 1269 1280 1279
f 1270 1271 1280
f 1271 1282 1281
f 1272 1283 1282
f 1274 1283 1273
f 1275 1284 1274
f 1276 1285 1275
f 1277 1286 1276
f 1278 1287 1277
f 1278 1289 1288
f 1279 1290 1289
f 1280 1281 1290
f 2 12 11
f 3 13 12
f 3 4 14
f 4 5 15
f 5 6 16
f 6 7 17
f 7 8 18
f 9 19 18
f 10 20 19
f 1 11 20
f 11 12 22
f 12 13 23
f 13 14 24
f 14 15 25
f 15 16 26
f 16 17 27
f 17 18 28
f 18 19 29
f 19 20 30
f 20 11 21
f 21 22 32
f 22 23 33
f 23 24 34
f 24 25 35
f 25 26 36
f 26 27 37
f 27 28 38
f 28 29 39
f 29 30 40
f 30 21 31
f 31 32 42
f 32 33 43
f 33 34 44
f 34 35 45
f 35 36 46
f 36 37 47
f 37 38 48
f 38 39 49
f 39 40 50
f 40 31 41
f 41 42 52
f 42 43 53
f 43 44 54
f 44 45 55
f 45 46 56
f 46 47 57
f 47 48 58
f 48 49 59
f 49 50 60
f 50 41 51
f 51 52 62
f 52 53 63
f 53 54 64
f 54 55 65
f 55 56 66
f 56 57 67
f 57 58 68
f 58 59 69
f 59 60 70
f 60 51 61
f 61 62 72
f 62 63 73
f 63 64 74
f 64 65 75
f 65 66 76
f 66 67 77
f 67 68 78
f 68 69 79
f 69 70 80
f 70 61 71
f 71 72 82
f 72 73 83
f 73 74 84
f 74 75 85
f 75 76 86
f 76 77 87
f 77 78 88
f 78 79 89
f 79 80 90
f 80 71 81
f 81 82 92
f 82 83 93
f 83 84 94
f 84 85 95
f 85 86 96
f 86 87 97
f 87 88 98
f 88 89 99
f 89 90 100
f 90 81 91
f 91 92 102
f 92 93 103
f 93 94 104
f 94 95 105
f 95 96 106
f 96 97 107
f 97 98 108
f 98 99 109
f 99 100 110
f 100 91 101
f 101 102 112
f 102 103 113
f 103 104 114
f 104 105 115
f 105 106 116
f 106 107 117
f 107 108 118
f 108 109 119
f 109 110 120
f 110 101 111
f 111 112 122
f 112 113 123
f 113 114 124
f 114 115 125
f 115 116 126
f 116 117 127
f 117 118 128
f 118 119 129
f 119 120 130
f 120 111 121
f 121 122 132
f 122 123 133
f 123 124 134
f 124 125 135
f 125 126 136
f 126 127 137
f 127 128 138
f 128 129 139
f 129 130 140
f 130 121 131
f 131 132 142
f 132 133 143
f 133 134 144
f 134 135 145
f 135 136 146
f 136 137 147
f 137 138 148
f 138 139 149
f 139 140 150
f 140 131 141
f 141 142 152
f 142 143 153
f 143 144 154
f 144 145 155
f 145 146 156
f 146 147 157
f 147 148 158
f 148 149 159
f 149 150 160
f 150 141 151
f 151 152 162
f 152 153 163
f 153 154 164
f 154 155 165
f 155 156 166
f 156 157 167
f 157 158 168
f 158 159 169
f 159 160 170
f 160 151 161
f 161 162 172
f 162 163 173
f 163 164 174
f 164 165 175
f 165 166 176
f 166 167 177
f 167 168 178
f 168 169 179
f 169 170 180
f 170 161 171
f 171 172 182
f 172 173 183
f 173 174 184
f 174 175 185
f 175 176 186
f 176 177 187
f 177 178 188
f 178 179 189
f 179 180 190
f 180 171 181
f 181 182 192
f 182 183 193
f 183 184 194
f 184 185 195
f 185 186 196
f 186 187 197
f 187 188 198
f 188 189 199
f 189 190 200
f 190 181 191
f 191 192 202
f 192 193 203
f 193 194 204
f 194 195 205
f 195 196 206
f 196 197 207
f 197 198 208
f 198 199 209
f 199 200 210
f 200 191 201
f 201 202 212
f 202 203 213
f 203 204 214
f 204 205 215
f 205 206 216
f 206 207 217
f 207 208 218
f 208 209 219
f 209 210 220
f 210 201 211
f 211 212 222
f 212 213 223
f 213 214 224
f 214 215 225
f 215 216 226
f 216 217 227
f 217 218 228
f 218 219 229
f 219 220 230
f 220 211 221
f 221 222 232
f 222 223 233
f 223 224 234
f 224 225 235
f 225 226 236
f 226 227 237
f 227 228 238
f 228 229 239
f 229 230 240
f 230 221 231
f 231 232 242
f 232 233 243
f 233 234 244
f 234 235 245
f 235 236 246
f 236 237 247
f 237 238 248
f 238 239 249
f 239 240 250
f 240 231 241
f 241 242 252
f 242 243 253
f 243 244 254
f 244 245 255
f 245 246 256
f 246 247 257
f 247 248 258
f 248 249 259
f 249 250 260
f 250 241 251
f 251 252 262
f 252 253 263
f 253 254 264
f 254 255 265
f 255 256 266
f 256 257 267
f 257 258 268
f 258 259 269
f 259 260 270
f 260 251 261
f 261 262 272
f 262 263 273
f 263 264 274
f 264 265 275
f 265 266 276
f 266 267 277
f 267 268 278
f 268 269 279
f 269 270 280
f 270 261 271
f 271 272 282
f 272 273 283
f 273 274 284
f 274 275 285
f 275 276 286
f 276 277 287
f 277 278 288
f 278 279 289
f 279 280 290
f 280 271 281
f 281 282 292
f 282 283 293
f 283 284 294
f 284 285 295
f 285 286 296
f 286 287 297
f 287 288 298
f 288 289 299
f 289 290 300
f 290 281 291
f 291 292 302
f 292 293 303
f 293 294 304
f 294 295 305
f 295 296 306
f 296 297 307
f 297 298 308
f 298 299 309
f 299 300 310
f 300 291 301
f 301 302 312
f 302 303 313
f 303 304 314
f 304 305 315
f 305 306 316
f 306 307 317
f 307 308 318
f 308 309 319
f 309 310 320
f 310 301 311
f 311 312 322
f 312 313 323
f 313 314 324
f 314 315 325
f 315 316 326
f 316 317 327
f 317 318 328
f 318 319 329
f 319 320 330
f 320 311 321
f 321 322 332
f 322 323 333
f 323 324 334
f 324 325 335
f 325 326 336
f 326 327 337
f 327 328 338
f 328 329 339
f 329 330 340
f 330 321 331
f 331 332 342
f 332 333 343
f 333 334 344
f 334 335 345
f 335 336 346
f 336 337 347
f 337 338 348
f 338 339 349
f 339 340 350
f 340 331 341
f 341 342 352
f 342 343 353
f 343 344 354
f 344 345 355
f 345 346 356
f 346 347 357
f 347 348 358
f 348 349 359
f 349 350 360
f 350 341 351
f 351 352 362
f 352 353 363
f 353 354 364
f 354 355 365
f 355 356 366
f 356 357 367
f 357 358 368
f 358 359 369
f 359 360 370
f 360 351 361
f 361 362 372
f 362 363 373
f 363 364 374
f 364 365 375
f 365 366 376
f 366 367 377
f 367 368 378
f 368 369 379
f 369 370 380
f 370 361 371
f 371 372 382
f 372 373 383
f 373 374 384
f 374 375 385
f 375 376 386
f 376 377 387
f 377 378 388
f 378 379 389
f 379 380 390
f 380 371 381
f 381 382 392
f 382 383 393
f 383 384 394
f 384 385 395
f 385 386 396
f 386 387 397
f 387 388 398
f 388 389 399
f 389 390 400
f 390 381 391
f 391 392 402
f 392 393 403
f 393 394 404
f 394 395 405
f 395 396 406
f 396 397 407
f 397 398 408
f 398 399 409
f 399 400 410
f 400 391 401
f 401 402 412
f 402 403 413
f 403 404 414
f 404 405 415
f 405 406 416
f 406 407 417
f 407 408 418
f 408 409 419
f 409 410 420
f 410 401 411
f 411 412 422
f 412 413 423
f 413 414 424
f 414 415 425
f 415 416 426
f 416 417 427
f 417 418 428
f 418 419 429
f 419 420 430
f 420 411 421
f 421 422 432
f 422 423 433
f 423 424 434
f 424 425 435
f 425 426 436
f 426 427 437
f 427 428 438
f 428 429 439
f 429 430 440
f 430 421 431
f 431 432 442
f 432 433 443
f 433 434 444
f 434 435 445
f 435 436 446
f 436 437 447
f 437 438 448
f 438 439 449
f 439 440 450
f 440 431 441
f 441 442 452
f 442 443 453
f 443 444 454
f 444 445 455
f 445 446 456
f 446 447 457
f 447 448 458
f 448 449 459
f 449 450 460
f 450 441 451
f 451 452 462
f 452 453 463
f 453 454 464
f 454 455 465
f 455 456 466
f 456 457 467
f 457 458 468
f 458 459 469
f 459 460 470
f 460 451 461
f 461 462 472
f 462 463 473
f 463 464 474
f 464 465 475
f 465 466 476
f 466 467 477
f 467 468 478
f 468 469 479
f 469 470 480
f 470 461 471
f 471 472 482
f 472 473 483
f 473 474 484
f 474 475 485
f 475 476 486
f 476 477 487
f 477 478 488
f 478 479 489
f 479 480 490
f 480 471 481
f 481 482 492
f 482 483 493
f 483 484 494
f 484 485 495
f 485 486 496
f 486 487 497
f 487 488 498
f 488 489 499
f 489 490 500
f 490 481 491
f 491 492 502
f 492 493 503
f 493 494 504
f 494 495 505
f 495 496 506
f 496 497 507
f 497 498 508
f 498 499 509
f 499 500 510
f 500 491 501
f 501 502 512
f 502 503 513
f 503 504 514
f 504 505 515
f 505 506 516
f 506 507 517
f 507 508 518
f 508 509 519
f 509 510 520
f 510 501 511
f 511 512 522
f 512 513 523
f 513 514 524
f 514 515 525
f 515 516 526
f 516 517 527
f 517 518 528
f 518 519 529
f 519 520 530
f 520 511 521
f 521 522 532
f 522 523 533
f 523 524 534
f 524 525 535
f 525 526 536
f 526 527 537
f 527 528 538
f 528 529 539
f 529 530 540
f 530 521 531
f 531 532 542
f 532 533 543
f 533 534 544
f 534 535 545
f 535 536 546
f 536 537 547
f 537 538 548
f 538 539 549
f 539 540 550
f 540 531 541
f 541 542 552
f 542 543 553
f 543 544 554
f 544 545 555
f 545 546 556
f 546 547 557
f 547 548 558
f 548 549 559
f 549 550 560
f 550 541 551
f 551 552 562
f 552 553 563
f 553 554 564
f 554 555 565
f 555 556 566
f 556 557 567
f 557 558 568
f 558 559 569
f 559 560 570
f 560 551 561
f 561 562 572
f 562 563 573
f 563 564 574
f 564 565 575
f 565 566 576
f 566 567 577
f 567 568 578
f 568 569 579
f 569 570 580
f 570 561 571
f 571 572 582
f 572 573 583
f 573 574 584
f 574 575 585
f 575 576 586
f 576 577 587
f 577 578 588
f 578 579 589
f 579 580 590
f 580 571 581
f 581 582 592
f 582 583 593
f 583 584 594
f 584 585 595
f 585 586 596
f 586 587 597
f 587 588 598
f 588 589 599
f 589 590 600
f 590 581 591
f 591 592 602
f 592 593 603
f 593 594 604
f 594 595 605
f 595 596 606
f 596 597 607
f 597 598 608
f 598 599 609
f 599 600 610
f 600 591 601
f 601 602 612
f 602 603 613
f 603 604 614
f 604 605 615
f 605 606 616
f 606 607 617
f 607 608 618
f 608 609 619
f 609 610 620
f 610 601 611
f 611 612 622
f 612 613 623
f 613 614 624
f 614 615 625
f 615 616 626
f 616 617 627
f 617 618 628
f 618 619 629
f 619 620 630
f 620 611 621
f 621 622 632
f 622 623 633
f 623 624 634
f 624 625 635
f 625 626 636
f 626 627 637
f 627 628 638
f 628 629 639
f 629 630 640
f 630 621 631
f 631 632 642
f 632 633 643
f 633 634 644
f 634 635 645
f 635 636 646
f 636 637 647
f 637 638 648
f 638 639 649
f 639 640 650
f 640 631 641
f 641 642 652
f 642 643 653
f 643 644 654
f 644 645 655
f 645 646 656
f 646 647 657
f 647 648 658
f 648 649 659
f 649 650 660
f 650 641 651
f 651 652 662
f 652 653 663
f 653 654 664
f 654 655 665
f 655 656 666
f 656 657 667
f 657 658 668
f 658 659 669
f 659 660 670
f 660 651 661
f 661 662 672
f 662 663 673
f 663 664 674
f 664 665 675
f 665 666 676
f 666 667 677
f 667 668 678
f 668 669 679
f 669 670 680
f 670 661 671
f 671 672 682
f 672 673 683
f 673 674 684
f 674 675 685
f 675 676 686
f 676 677 687
f 677 678 688
f 678 679 689
f 679 680 690
f 680 671 681
f 681 682 692
f 682 683 693
f 683 684 694
f 684 685 695
f 685 686 696
f 686 687 697
f 687 688 698
f 688 689 699
f 689 690 700
f 690 681 691
f 691 692 702
f 692 693 703
f 693 694 704
f 694 695 705
f 695 696 706
f 696 697 707
f 697 698 708
f 698 699 709
f 699 700 710
f 700 691 701
f 701 702 712
f 702 703 713
f 703 704 714
f 704 705 715
f 705 706 716
f 706 707 717
f 707 708 718
f 708 709 719
f 709 710 720
f 710 701 711
f 711 712 722
f 712 713 723
f 713 714 724
f 714 715 725
f 715 716 726
f 716 717 727
f 717 718 728
f 718 719 729
f 719 720 730
f 720 711 721
f 721 722 732
f 722 723 733
f 723 724 734
f 724 725 735
f 725 726 736
f 726 727 737
f 727 728 738
f 728 729 739
f 729 730 740
f 730 721 731
f 731 732 742
f 732 733 743
f 733 734 744
f 734 735 745
f 735 736 746
f 736 737 747
f 737 738 748
f 738 739 749
f 739 740 750
f 740 731 741
f 741 742 752
f 742 743 753
f 743 744 754
f 744 745 755
f 745 746 756
f 746 747 757
f 747 748 758
f 748 749 759
f 749 750 760
f 750 741 751
f 751 752 762
f 752 753 763
f 753 754 764
f 754 755 765
f 755 756 766
f 756 757 767
f 757 758 768
f 758 759 769
f 759 760 770
f 760 751 761
f 761 762 772
f 762 763 773
f 763 764 774
f 764 765 775
f 765 766 776
f 766 767 777
f 767 768 778
f 768 769 779
f 769 770 780
f 770 761 771
f 771 772 782
f 772 773 783
f 773 774 784
f 774 775 785
f 775 776 786
f 776 777 787
f 777 778 788
f 778 779 789
f 779 780 790
f 780 771 781
f 781 782 792
f 782 783 793
f 783 784 794
f 784 785 795
f 785 786 796
f 786 787 797
f 787 788 798
f 788 789 799
f 789 790 800
f 790 781 791
f 791 792 802
f 792 793 803
f 793 794 804
f 794 795 805
f 795 796 806
f 796 797 807
f 797 798 808
f 798 799 809
f 799 800 810
f 800 791 801
f 801 802 812
f 802 803 813
f 803 804 814
f 804 805 815
f 805 806 816
f 806 807 817
f 807 808 818
f 808 809 819
f 809 810 820
f 810 801 811
f 811 812 822
f 812 813 823
f 813 814 824
f 814 815 825
f 815 816 826
f 816 817 827
f 817 818 828
f 818 819 829
f 819 820 830
f 820 811 821
f 821 822 832
f 822 823 833
f 823 824 834
f 824 825 835
f 825 826 836
f 826 827 837
f 827 828 838
f 828 829 839
f 829 830 840
f 830 821 831
f 831 832 842
f 832 833 843
f 833 834 844
f 834 835 845
f 835 836 846
f 836 837 847
f 837 838 848
f 838 839 849
f 839 840 850
f 840 831 841
f 841 842 852
f 842 843 853
f 843 844 854
f 844 845 855
f 845 846 856
f 846 847 857
f 847 848 858
f 848 849 859
f 849 850 860
f 850 841 851
f 851 852 862
f 852 853 863
f 853 854 864
f 854 855 865
f 855 856 866
f 856 857 867
f 857 858 868
f 858 859 869
f 859 860 870
f 860 851 861
f 861 862 872
f 862 863 873
f 863 864 874
f 864 865 875
f 865 866 876
f 866 867 877
f 867 868 878
f 868 869 879
f 869 870 880
f 870 861 871
f 871 872 882
f 872 873 883
f 873 874 884
f 874 875 885
f 875 876 886
f 876 877 887
f 877 878 888
f 878 879 889
f 879 880 890
f 880 871 881
f 881 882 892
f 882 883 893
f 883 884 894
f 884 885 895
f 885 886 896
f 886 887 897
f 887 888 898
f 888 889 899
f 889 890 900
f 890 881 891
f 891 892 902
f 892 893 903
f 893 894 904
f 894 895 905
f 895 896 906
f 896 897 907
f 897 898 908
f 898 899 909
f 899 900 910
f 900 891 901
f 901 902 912
f 902 903 913
f 903 904 914
f 904 905 915
f 905 906 916
f 906 907 917
f 907 908 918
f 908 909 919
f 909 910 920
f 910 901 911
f 911 912 922
f 912 913 923
f 913 914 924
f 914 915 925
f 915 916 926
f 916 917 927
f 917 918 928
f 918 919 929
f 919 920 930
f 920 911 921
f 921 922 932
f 922 923 933
f 923 924 934
f 924 925 935
f 925 926 936
f 926 927 937
f 927 928 938
f 928 929 939
f 929 930 940
f 930 921 931
f 931 932 942
f 932 933 943
f 933 934 944
f 934 935 945
f 935 936 946
f 936 937 947
f 937 938 948
f 938 939 949
f 939 940 950
f 940 931 941
f 941 942 952
f 942 943 953
f 943 944 954
f 944 945 955
f 945 946 956
f 946 947 957
f 947 948 958
f 948 949 959
f 949 950 960
f 950 941 951
f 951 952 962
f 952 953 963
f 953 954 964
f 954 955 965
f 955 956 966
f 956 957 967
f 957 958 968
f 958 959 969
f 959 960 970
f 960 951 961
f 961 962 972
f 962 963 973
f 963 964 974
f 964 965 975
f 965 966 976
f 966 967 977
f 967 968 978
f 968 969 979
f 969 970 980
f 970 961 971
f 971 972 982
f 972 973 983
f 973 974 984
f 974 975 985
f 975 976 986
f 976 977 987
f 977 978 988
f 978 979 989
f 979 980 990
f 980 971 981
f 981 982 992
f 982 983 993
f 983 984 994
f 984 985 995
f 985 986 996
f 986 987 997
f 987 988 998
f 988 989 999
f 989 990 1000
f 990 981 991
f 991 992 1002
f 992 993 1003
f 993 994 1004
f 994 995 1005
f 995 996 1006
f 996 997 1007
f 997 998 1008
f 998 999 1009
f 999 1000 1010
f 1000 991 1001
f 1001 1002 1012
f 1002 1003 1013
f 1003 1004 1014
f 1004 1005 1015
f 1005 1006 1016
f 1006 1007 1017
f 1007 1008 1018
f 1008 1009 1019
f 1009 1010 1020
f 1010 1001 1011
f 1011 1012 1022
f 1012 1013 1023
f 1013 1014 1024
f 1014 1015 1025
f 1015 1016 1026
f 1016 1017 1027
f 1017 1018 1028
f 1018 1019 1029
f 1019 1020 1030
f 1020 1011 1021
f 1021 1022 1032
f 1022 1023 1033
f 1023 1024 1034
f 1024 1025 1035
f 1025 1026 1036
f 1026 1027 1037
f 1027 1028 1038
f 1028 1029 1039
f 1029 1030 1040
f 1030 1021 1031
f 1031 1032 1042
f 1032 1033 1043
f 1033 1034 1044
f 1034 1035 1045
f 1035 1036 1046
f 1036 1037 1047
f 1037 1038 1048
f 1038 1039 1049
f 1039 1040 1050
f 1040 1031 1041
f 1041 1042 1052
f 1042 1043 1053
f 1043 1044 1054
f 1044 1045 1055
f 1045 1046 1056
f 1046 1047 1057
f 1047 1048 1058
f 1048 1049 1059
f 1049 1050 1060
f 1050 1041 1051
f 1051 1052 1062
f 1052 1053 1063
f 1053 1054 1064
f 1054 1055 1065
f 1055 1056 1066
f 1056 1057 1067
f 1057 1058 1068
f 1058 1059 1069
f 1059 1060 1070
f 1060 1051 1061
f 1061 1062 1072
f 1062 1063 1073
f 1063 1064 1074
f 1064 1065 1075
f 1065 1066 1076
f 1066 1067 1077
f 1067 1068 1078
f 1068 1069 1079
f 1069 1070 1080
f 1070 1061 1071
f 1071 1072 1082
f 1072 1073 1083
f 1073 1074 1084
f 1074 1075 1085
f 1075 1076 1086
f 1076 1077 1087
f 1077 1078 1088
f 1078 1079 1089
f 1079 1080 1090
f 1080 1071 1081
f 1081 1082 1092
f 1082 1083 1093
f 1083 1084 1094
f 1084 1085 1095
f 1085 1086 1096
f 1086 1087 1097
f 1087 1088 1098
f 1088 1089 1099
f 1089 1090 1100
f 1090 1081 1091
f 1091 1092 1102
f 1092 1093 1103
f 1093 1094 1104
f 1094 1095 1105
f 1095 1096 1106
f 1096 1097 1107
f 1097 1098 1108
f 1098 1099 1109
f 1099 1100 1110
f 1100 1091 1101
f 1101 1102 1112
f 1102 1103 1113
f 1103 1104 1114
f 1104 1105 1115
f 1105 1106 1116
f 1106 1107 1117
f 1107 1108 1118
f 1108 1109 1119
f 1109 1110 1120
f 1110 1101 1111
f 1111 1112 1122
f 1112 1113 1123
f 1113 1114 1124
f 1114 1115 1125
f 1115 1116 1126
f 1116 1117 1127
f 1117 1118 1128
f 1118 1119 1129
f 1119 1120 1130
f 1120 1111 1121
f 1121 1122 1132
f 1122 1123 1133
f 1123 1124 1134
f 1124 1125 1135
f 1125 1126 1136
f 1126 1127 1137
f 1127 1128 1138
f 1128 1129 1139
f 1129 1130 1140
f 1130 1121 1131
f 1131 1132 1142
f 1132 1133 1143
f 1133 1134 1144
f 1134 1135 1145
f 1135 1136 1146
f 1136 1137 1147
f 1137 1138 1148
f 1138 1139 1149
f 1139 1140 1150
f 1140 1131 1141
f 1141 1142 1152
f 1142 1143 1153
f 1143 1144 1154
f 1144 1145 1155
f 1145 1146 1156
f 1146 1147 1157
f 1147 1148 1158
f 1148 1149 1159
f 1149 1150 1160
f 1150 1141 1151
f 1151 1152 1162
f 1152 1153 1163
f 1153 1154 1164
f 1154 1155 1165
f 1155 1156 1166
f 1156 1157 1167
f 1157 1158 1168
f 1158 1159 1169
f 1159 1160 1170
f 1160 1151 1161
f 1161 1162 1172
f 1162 1163 1173
f 1163 1164 1174
f 1164 1165 1175
f 1165 1166 1176
f 1166 1167 1177
f 1167 1168 1178
f 1168 1169 1179
f 1169 1170 1180
f 1170 1161 1171
f 1171 1172 1182
f 1172 1173 1183
f 1173 1174 1184
f 1174 1175 1185
f 1175 1176 1186
f 1176 1177 1187
f 1177 1178 1188
f 1178 1179 1189
f 1179 1180 1190
f 1180 1171 1181
f 1181 1182 1192
f 1182 1183 1193
f 1183 1184 1194
f 1184 1185 1195
f 1185 1186 1196
f 1186 1187 1197
f 1187 1188 1198
f 1188 1189 1199
f 1189 1190 1200
f 1190 1181 1191
f 1191 1192 1202
f 1192 1193 1203
f 1193 1194 1204
f 1194 1195 1205
f 1195 1196 1206
f 1196 1197 1207
f 1197 1198 1208
f 1198 1199 1209
f 1199 1200 1210
f 1200 1191 1201
f 1201 1202 1212
f 1202 1203 1213
f 1203 1204 1214
f 1204 1205 1215
f 1205 1206 1216
f 1206 1207 1217
f 1207 1208 1218
f 1208 1209 1219
f 1209 1210 1220
f 1210 1201 1211
f 1211 1212 1222
f 1212 1213 1223
f 1213 1214 1224
f 1214 1215 1225
f 1215 1216 1226
f 1216 1217 1227
f 1217 1218 1228
f 1218 1219 1229
f 1219 1220 1230
f 1220 1211 1221
f 1221 1222 1232
f 1222 1223 1233
f 1223 1224 1234
f 1224 1225 1235
f 1225 1226 1236
f 1226 1227 1237
f 1227 1228 1238
f 1228 1229 1239
f 1229 1230 1240
f 1230 1221 1231
f 1231 1232 1242
f 1232 1233 1243
f 1233 1234 1244
f 1234 1235 1245
f 1235 1236 1246
f 1236 1237 1247
f 1237 1238 1248
f 1238 1239 1249
f 1239 1240 1250
f 1240 1231 1241
f 1241 1242 1252
f 1242 1243 1253
f 1243 1244 1254
f 1244 1245 1255
f 1245 1246 1256
f 1246 1247 1257
f 1247 1248 1258
f 1248 1249 1259
f 1249 1250 1260
f 1250 1241 1251
f 1251 1252 1262
f 1252 1253 1263
f 1253 1254 1264
f 1254 1255 1265
f 1255 1256 1266
f 1256 1257 1267
f 1257 1258 1268
f 1258 1259 1269
f 1259 1260 1270
f 1260 1251 1261
f 1261 1262 1272
f 1262 1263 1273
f 1263 1264 1274
f 1264 1265 1275
f 1265 1266 1276
f 1266 1267 1277
f 1267 1268 1278
f 1268 1269 1279
f 1269 1270 1280
f 1270 1261 1271
f 1271 1272 1282
f 1272 1273 1283
f 1274 1284 1283
f 1275 1285 1284
f 1276 1286 1285
f 1277 1287 1286
f 1278 1288 1287
f 1278 1279 1289
f 1279 1280 1290
f 1280 1271 1281
