# eclipse_carrier Planet2_BeadGlow.obj: Roblox cue frame, recentred on its bounding box
v 0.00000 0.28800 -0.00000
v 0.00000 0.24942 0.14400
v 0.00000 0.14400 0.24942
v 0.00000 0.07454 0.27819
v 0.00000 0.00000 0.28800
v 0.00000 -0.07454 0.27819
v 0.00000 -0.14400 0.24942
v 0.00000 -0.28800 -0.00000
v -0.01929 0.27819 0.07200
v -0.03727 0.24942 0.13909
v -0.05271 0.20365 0.19671
v -0.06455 0.14400 0.24092
v -0.07200 0.07454 0.26871
v -0.07454 0.00000 0.27819
v -0.07200 -0.07454 0.26871
v -0.06455 -0.14400 0.24092
v -0.05271 -0.20365 0.19671
v -0.03727 -0.24942 0.13909
v -0.01929 -0.27819 0.07200
v -0.03727 0.27819 0.06455
v -0.07200 0.24942 0.12471
v -0.10182 0.20365 0.17636
v -0.12471 0.14400 0.21600
v -0.13909 0.07454 0.24092
v -0.14400 0.00000 0.24942
v -0.13909 -0.07454 0.24092
v -0.12471 -0.14400 0.21600
v -0.10182 -0.20365 0.17636
v -0.07200 -0.24942 0.12471
v -0.03727 -0.27819 0.06455
v -0.05271 0.27819 0.05271
v -0.10182 0.24942 0.10182
v -0.14400 0.20365 0.14400
v -0.17636 0.14400 0.17636
v -0.19671 0.07454 0.19671
v -0.20365 0.00000 0.20365
v -0.19671 -0.07454 0.19671
v -0.17636 -0.14400 0.17636
v -0.14400 -0.20365 0.14400
v -0.10182 -0.24942 0.10182
v -0.05271 -0.27819 0.05271
v -0.06455 0.27819 0.03727
v -0.12471 0.24942 0.07200
v -0.17636 0.20365 0.10182
v -0.21600 0.14400 0.12471
v -0.24092 0.07454 0.13909
v -0.24942 0.00000 0.14400
v -0.24092 -0.07454 0.13909
v -0.21600 -0.14400 0.12471
v -0.17636 -0.20365 0.10182
v -0.12471 -0.24942 0.07200
v -0.06455 -0.27819 0.03727
v -0.07200 0.27819 0.01929
v -0.13909 0.24942 0.03727
v -0.19671 0.20365 0.05271
v -0.24092 0.14400 0.06455
v -0.26871 0.07454 0.07200
v -0.27819 0.00000 0.07454
v -0.26871 -0.07454 0.07200
v -0.24092 -0.14400 0.06455
v -0.19671 -0.20365 0.05271
v -0.13909 -0.24942 0.03727
v -0.07200 -0.27819 0.01929
v -0.07454 0.27819 -0.00000
v -0.14400 0.24942 -0.00000
v -0.20365 0.20365 -0.00000
v -0.24942 0.14400 -0.00000
v -0.27819 0.07454 -0.00000
v -0.28800 0.00000 -0.00000
v -0.27819 -0.07454 -0.00000
v -0.24942 -0.14400 -0.00000
v -0.20365 -0.20365 -0.00000
v -0.14400 -0.24942 -0.00000
v -0.07454 -0.27819 -0.00000
v -0.07200 0.27819 -0.01929
v -0.13909 0.24942 -0.03727
v -0.19671 0.20365 -0.05271
v -0.24092 0.14400 -0.06455
v -0.26871 0.07454 -0.07200
v -0.27819 0.00000 -0.07454
v -0.26871 -0.07454 -0.07200
v -0.24092 -0.14400 -0.06455
v -0.19671 -0.20365 -0.05271
v -0.13909 -0.24942 -0.03727
v -0.07200 -0.27819 -0.01929
v -0.06455 0.27819 -0.03727
v -0.12471 0.24942 -0.07200
v -0.17636 0.20365 -0.10182
v -0.21600 0.14400 -0.12471
v -0.24092 0.07454 -0.13909
v -0.24942 0.00000 -0.14400
v -0.24092 -0.07454 -0.13909
v -0.21600 -0.14400 -0.12471
v -0.17636 -0.20365 -0.10182
v -0.12471 -0.24942 -0.07200
v -0.06455 -0.27819 -0.03727
v -0.05271 0.27819 -0.05271
v -0.10182 0.24942 -0.10182
v -0.14400 0.20365 -0.14400
v -0.17636 0.14400 -0.17636
v -0.19671 0.07454 -0.19671
v -0.20365 0.00000 -0.20365
v -0.19671 -0.07454 -0.19671
v -0.17636 -0.14400 -0.17636
v -0.14400 -0.20365 -0.14400
v -0.10182 -0.24942 -0.10182
v -0.05271 -0.27819 -0.05271
v -0.03727 0.27819 -0.06455
v -0.07200 0.24942 -0.12471
v -0.10182 0.20365 -0.17636
v -0.12471 0.14400 -0.21600
v -0.13909 0.07454 -0.24092
v -0.14400 0.00000 -0.24942
v -0.13909 -0.07454 -0.24092
v -0.12471 -0.14400 -0.21600
v -0.10182 -0.20365 -0.17636
v -0.07200 -0.24942 -0.12471
v -0.03727 -0.27819 -0.06455
v -0.01929 0.27819 -0.07200
v -0.03727 0.24942 -0.13909
v -0.05271 0.20365 -0.19671
v -0.06455 0.14400 -0.24092
v -0.07200 0.07454 -0.26871
v -0.07454 0.00000 -0.27819
v -0.07200 -0.07454 -0.26871
v -0.06455 -0.14400 -0.24092
v -0.05271 -0.20365 -0.19671
v -0.03727 -0.24942 -0.13909
v -0.01929 -0.27819 -0.07200
v 0.00000 0.27819 -0.07454
v 0.00000 0.24942 -0.14400
v 0.00000 0.20365 -0.20365
v 0.00000 0.14400 -0.24942
v 0.00000 0.07454 -0.27819
v 0.00000 0.00000 -0.28800
v 0.00000 -0.07454 -0.27819
v 0.00000 -0.14400 -0.24942
v 0.00000 -0.20365 -0.20365
v 0.00000 -0.24942 -0.14400
v 0.00000 -0.27819 -0.07454
v 0.01929 0.27819 -0.07200
v 0.03727 0.24942 -0.13909
v 0.05271 0.20365 -0.19671
v 0.06455 0.14400 -0.24092
v 0.07200 0.07454 -0.26871
v 0.07454 0.00000 -0.27819
v 0.07200 -0.07454 -0.26871
v 0.06455 -0.14400 -0.24092
v 0.05271 -0.20365 -0.19671
v 0.03727 -0.24942 -0.13909
v 0.01929 -0.27819 -0.07200
v 0.03727 0.27819 -0.06455
v 0.07200 0.24942 -0.12471
v 0.10182 0.20365 -0.17636
v 0.12471 0.14400 -0.21600
v 0.13909 0.07454 -0.24092
v 0.14400 0.00000 -0.24942
v 0.13909 -0.07454 -0.24092
v 0.12471 -0.14400 -0.21600
v 0.10182 -0.20365 -0.17636
v 0.07200 -0.24942 -0.12471
v 0.03727 -0.27819 -0.06455
v 0.05271 0.27819 -0.05271
v 0.10182 0.24942 -0.10182
v 0.14400 0.20365 -0.14400
v 0.17636 0.14400 -0.17636
v 0.19671 0.07454 -0.19671
v 0.20365 0.00000 -0.20365
v 0.19671 -0.07454 -0.19671
v 0.17636 -0.14400 -0.17636
v 0.14400 -0.20365 -0.14400
v 0.10182 -0.24942 -0.10182
v 0.05271 -0.27819 -0.05271
v 0.06455 0.27819 -0.03727
v 0.12471 0.24942 -0.07200
v 0.17636 0.20365 -0.10182
v 0.21600 0.14400 -0.12471
v 0.24092 0.07454 -0.13909
v 0.24942 0.00000 -0.14400
v 0.24092 -0.07454 -0.13909
v 0.21600 -0.14400 -0.12471
v 0.17636 -0.20365 -0.10182
v 0.12471 -0.24942 -0.07200
v 0.06455 -0.27819 -0.03727
v 0.07200 0.27819 -0.01929
v 0.13909 0.24942 -0.03727
v 0.19671 0.20365 -0.05271
v 0.24092 0.14400 -0.06455
v 0.26871 0.07454 -0.07200
v 0.27819 0.00000 -0.07454
v 0.26871 -0.07454 -0.07200
v 0.24092 -0.14400 -0.06455
v 0.19671 -0.20365 -0.05271
v 0.13909 -0.24942 -0.03727
v 0.07200 -0.27819 -0.01929
v 0.07454 0.27819 -0.00000
v 0.14400 0.24942 -0.00000
v 0.20365 0.20365 -0.00000
v 0.24942 0.14400 -0.00000
v 0.27819 0.07454 -0.00000
v 0.28800 0.00000 -0.00000
v 0.27819 -0.07454 -0.00000
v 0.24942 -0.14400 -0.00000
v 0.20365 -0.20365 -0.00000
v 0.14400 -0.24942 -0.00000
v 0.07454 -0.27819 -0.00000
v 0.07200 0.27819 0.01929
v 0.13909 0.24942 0.03727
v 0.19671 0.20365 0.05271
v 0.24092 0.14400 0.06455
v 0.26871 0.07454 0.07200
v 0.27819 0.00000 0.07454
v 0.26871 -0.07454 0.07200
v 0.24092 -0.14400 0.06455
v 0.19671 -0.20365 0.05271
v 0.13909 -0.24942 0.03727
v 0.07200 -0.27819 0.01929
v 0.06455 0.27819 0.03727
v 0.12471 0.24942 0.07200
v 0.17636 0.20365 0.10182
v 0.21600 0.14400 0.12471
v 0.24092 0.07454 0.13909
v 0.24942 0.00000 0.14400
v 0.24092 -0.07454 0.13909
v 0.21600 -0.14400 0.12471
v 0.17636 -0.20365 0.10182
v 0.12471 -0.24942 0.07200
v 0.06455 -0.27819 0.03727
v 0.05271 0.27819 0.05271
v 0.10182 0.24942 0.10182
v 0.14400 0.20365 0.14400
v 0.17636 0.14400 0.17636
v 0.19671 0.07454 0.19671
v 0.20365 0.00000 0.20365
v 0.19671 -0.07454 0.19671
v 0.17636 -0.14400 0.17636
v 0.14400 -0.20365 0.14400
v 0.10182 -0.24942 0.10182
v 0.05271 -0.27819 0.05271
v 0.03727 0.27819 0.06455
v 0.07200 0.24942 0.12471
v 0.10182 0.20365 0.17636
v 0.12471 0.14400 0.21600
v 0.13909 0.07454 0.24092
v 0.14400 0.00000 0.24942
v 0.13909 -0.07454 0.24092
v 0.12471 -0.14400 0.21600
v 0.10182 -0.20365 0.17636
v 0.07200 -0.24942 0.12471
v 0.03727 -0.27819 0.06455
v 0.01929 0.27819 0.07200
v 0.03727 0.24942 0.13909
v 0.05271 0.20365 0.19671
v 0.06455 0.14400 0.24092
v 0.07200 0.07454 0.26871
v 0.07454 0.00000 0.27819
v 0.07200 -0.07454 0.26871
v 0.06455 -0.14400 0.24092
v 0.05271 -0.20365 0.19671
v 0.03727 -0.24942 0.13909
v 0.01929 -0.27819 0.07200
v 0.00000 0.27819 0.07454
v 0.00000 0.20365 0.20365
v 0.00000 -0.20365 0.20365
v 0.00000 -0.24942 0.14400
v 0.00000 -0.27819 0.07454
f 6 14 15
f 263 12 3
f 266 18 19
f 262 1 9
f 6 16 7
f 4 12 13
f 8 266 19
f 2 9 10
f 264 16 17
f 4 14 5
f 263 10 11
f 264 18 265
f 8 19 30
f 10 20 21
f 17 27 28
f 13 25 14
f 11 21 22
f 17 29 18
f 15 25 26
f 12 22 23
f 19 29 30
f 9 1 20
f 15 27 16
f 12 24 13
f 22 34 23
f 29 41 30
f 20 1 31
f 26 38 27
f 23 35 24
f 8 30 41
f 21 31 32
f 27 39 28
f 24 36 25
f 21 33 22
f 28 40 29
f 25 37 26
f 33 43 44
f 39 51 40
f 36 48 37
f 33 45 34
f 41 51 52
f 31 1 42
f 38 48 49
f 34 46 35
f 8 41 52
f 31 43 32
f 38 50 39
f 35 47 36
f 46 56 57
f 8 52 63
f 43 53 54
f 49 61 50
f 47 57 58
f 43 55 44
f 50 62 51
f 47 59 48
f 45 55 56
f 51 63 52
f 42 1 53
f 48 60 49
f 56 66 67
f 62 74 63
f 53 1 64
f 60 70 71
f 56 68 57
f 8 63 74
f 53 65 54
f 60 72 61
f 58 68 69
f 54 66 55
f 61 73 62
f 58 70 59
f 68 80 69
f 65 77 66
f 72 84 73
f 69 81 70
f 66 78 67
f 73 85 74
f 64 1 75
f 70 82 71
f 68 78 79
f 8 74 85
f 65 75 76
f 71 83 72
f 78 90 79
f 8 85 96
f 75 87 76
f 82 94 83
f 80 90 91
f 76 88 77
f 83 95 84
f 80 92 81
f 78 88 89
f 85 95 96
f 75 1 86
f 81 93 82
f 92 102 103
f 89 99 100
f 95 107 96
f 86 1 97
f 93 103 104
f 89 101 90
f 8 96 107
f 87 97 98
f 93 105 94
f 90 102 91
f 87 99 88
f 95 105 106
f 101 113 102
f 98 110 99
f 106 116 117
f 103 113 114
f 100 110 111
f 107 117 118
f 97 1 108
f 104 114 115
f 101 111 112
f 8 107 118
f 97 109 98
f 104 116 105
f 115 125 126
f 111 123 112
f 8 118 129
f 109 119 120
f 115 127 116
f 113 123 124
f 109 121 110
f 117 127 128
f 113 125 114
f 110 122 111
f 117 129 118
f 108 1 119
f 124 136 125
f 122 132 133
f 128 140 129
f 119 1 130
f 126 136 137
f 122 134 123
f 8 129 140
f 119 131 120
f 126 138 127
f 124 134 135
f 120 132 121
f 128 138 139
f 138 148 149
f 134 146 135
f 131 143 132
f 139 149 150
f 135 147 136
f 132 144 133
f 139 151 140
f 130 1 141
f 136 148 137
f 133 145 134
f 8 140 151
f 131 141 142
f 141 1 152
f 147 159 148
f 145 155 156
f 8 151 162
f 141 153 142
f 149 159 160
f 146 156 157
f 142 154 143
f 150 160 161
f 146 158 147
f 143 155 144
f 150 162 151
f 161 171 172
f 158 168 169
f 155 165 166
f 161 173 162
f 152 1 163
f 158 170 159
f 156 166 167
f 8 162 173
f 152 164 153
f 159 171 160
f 156 168 157
f 154 164 165
f 163 175 164
f 171 181 182
f 167 179 168
f 164 176 165
f 171 183 172
f 168 180 169
f 165 177 166
f 173 183 184
f 163 1 174
f 170 180 181
f 166 178 167
f 8 173 184
f 184 194 195
f 174 1 185
f 181 191 192
f 177 189 178
f 8 184 195
f 175 185 186
f 181 193 182
f 179 189 190
f 175 187 176
f 183 193 194
f 180 190 191
f 176 188 177
f 186 198 187
f 193 205 194
f 190 202 191
f 188 198 199
f 194 206 195
f 185 1 196
f 191 203 192
f 188 200 189
f 8 195 206
f 186 196 197
f 192 204 193
f 190 200 201
f 8 206 217
f 196 208 197
f 204 214 215
f 200 212 201
f 197 209 198
f 205 215 216
f 202 212 213
f 198 210 199
f 205 217 206
f 196 1 207
f 202 214 203
f 200 210 211
f 209 221 210
f 217 227 228
f 207 1 218
f 214 224 225
f 210 222 211
f 8 217 228
f 207 219 208
f 215 225 226
f 211 223 212
f 209 219 220
f 215 227 216
f 212 224 213
f 219 231 220
f 227 237 238
f 223 235 224
f 220 232 221
f 228 238 239
f 218 1 229
f 224 236 225
f 221 233 222
f 8 228 239
f 218 230 219
f 226 236 237
f 223 233 234
f 232 244 233
f 8 239 250
f 229 241 230
f 237 247 248
f 234 244 245
f 230 242 231
f 238 248 249
f 234 246 235
f 231 243 232
f 239 249 250
f 229 1 240
f 236 246 247
f 243 253 254
f 249 261 250
f 240 1 251
f 246 258 247
f 244 254 255
f 8 250 261
f 241 251 252
f 247 259 248
f 244 256 245
f 242 252 253
f 248 260 249
f 245 257 246
f 255 5 256
f 252 263 253
f 259 265 260
f 256 6 257
f 254 263 3
f 260 266 261
f 251 1 262
f 258 6 7
f 254 4 255
f 8 261 266
f 251 2 252
f 258 264 259
f 6 5 14
f 263 11 12
f 266 265 18
f 6 15 16
f 4 3 12
f 2 262 9
f 264 7 16
f 4 13 14
f 263 2 10
f 264 17 18
f 10 9 20
f 17 16 27
f 13 24 25
f 11 10 21
f 17 28 29
f 15 14 25
f 12 11 22
f 19 18 29
f 15 26 27
f 12 23 24
f 22 33 34
f 29 40 41
f 26 37 38
f 23 34 35
f 21 20 31
f 27 38 39
f 24 35 36
f 21 32 33
f 28 39 40
f 25 36 37
f 33 32 43
f 39 50 51
f 36 47 48
f 33 44 45
f 41 40 51
f 38 37 48
f 34 45 46
f 31 42 43
f 38 49 50
f 35 46 47
f 46 45 56
f 43 42 53
f 49 60 61
f 47 46 57
f 43 54 55
f 50 61 62
f 47 58 59
f 45 44 55
f 51 62 63
f 48 59 60
f 56 55 66
f 62 73 74
f 60 59 70
f 56 67 68
f 53 64 65
f 60 71 72
f 58 57 68
f 54 65 66
f 61 72 73
f 58 69 70
f 68 79 80
f 65 76 77
f 72 83 84
f 69 80 81
f 66 77 78
f 73 84 85
f 70 81 82
f 68 67 78
f 65 64 75
f 71 82 83
f 78 89 90
f 75 86 87
f 82 93 94
f 80 79 90
f 76 87 88
f 83 94 95
f 80 91 92
f 78 77 88
f 85 84 95
f 81 92 93
f 92 91 102
f 89 88 99
f 95 106 107
f 93 92 103
f 89 100 101
f 87 86 97
f 93 104 105
f 90 101 102
f 87 98 99
f 95 94 105
f 101 112 113
f 98 109 110
f 106 105 116
f 103 102 113
f 100 99 110
f 107 106 117
f 104 103 114
f 101 100 111
f 97 108 109
f 104 115 116
f 115 114 125
f 111 122 123
f 109 108 119
f 115 126 127
f 113 112 123
f 109 120 121
f 117 116 127
f 113 124 125
f 110 121 122
f 117 128 129
f 124 135 136
f 122 121 132
f 128 139 140
f 126 125 136
f 122 133 134
f 119 130 131
f 126 137 138
f 124 123 134
f 120 131 132
f 128 127 138
f 138 137 148
f 134 145 146
f 131 142 143
f 139 138 149
f 135 146 147
f 132 143 144
f 139 150 151
f 136 147 148
f 133 144 145
f 131 130 141
f 147 158 159
f 145 144 155
f 141 152 153
f 149 148 159
f 146 145 156
f 142 153 154
f 150 149 160
f 146 157 158
f 143 154 155
f 150 161 162
f 161 160 171
f 158 157 168
f 155 154 165
f 161 172 173
f 158 169 170
f 156 155 166
f 152 163 164
f 159 170 171
f 156 167 168
f 154 153 164
f 163 174 175
f 171 170 181
f 167 178 179
f 164 175 176
f 171 182 183
f 168 179 180
f 165 176 177
f 173 172 183
f 170 169 180
f 166 177 178
f 184 183 194
f 181 180 191
f 177 188 189
f 175 174 185
f 181 192 193
f 179 178 189
f 175 186 187
f 183 182 193
f 180 179 190
f 176 187 188
f 186 197 198
f 193 204 205
f 190 201 202
f 188 187 198
f 194 205 206
f 191 202 203
f 188 199 200
f 186 185 196
f 192 203 204
f 190 189 200
f 196 207 208
f 204 203 214
f 200 211 212
f 197 208 209
f 205 204 215
f 202 201 212
f 198 209 210
f 205 216 217
f 202 213 214
f 200 199 210
f 209 220 221
f 217 216 227
f 214 213 224
f 210 221 222
f 207 218 219
f 215 214 225
f 211 222 223
f 209 208 219
f 215 226 227
f 212 223 224
f 219 230 231
f 227 226 237
f 223 234 235
f 220 231 232
f 228 227 238
f 224 235 236
f 221 232 233
f 218 229 230
f 226 225 236
f 223 222 233
f 232 243 244
f 229 240 241
f 237 236 247
f 234 233 244
f 230 241 242
f 238 237 248
f 234 245 246
f 231 242 243
f 239 238 249
f 236 235 246
f 243 242 253
f 249 260 261
f 246 257 258
f 244 243 254
f 241 240 251
f 247 258 259
f 244 255 256
f 242 241 252
f 248 259 260
f 245 256 257
f 255 4 5
f 252 2 263
f 259 264 265
f 256 5 6
f 254 253 263
f 260 265 266
f 258 257 6
f 254 3 4
f 251 262 2
f 258 7 264
