# eclipse_carrier Planet1_Planet1.obj: Roblox cue frame, recentred on its bounding box
v 0.00000 0.14000 0.00000
v 0.00000 0.12124 0.07000
v 0.00000 0.09899 0.09899
v 0.00000 0.00000 0.14000
v 0.00000 -0.03623 0.13523
v 0.00000 -0.12124 0.07000
v 0.00000 -0.14000 0.00000
v -0.00938 0.13523 0.03500
v -0.01812 0.12124 0.06761
v -0.02562 0.09899 0.09562
v -0.03138 0.07000 0.11711
v -0.03500 0.03623 0.13062
v -0.03623 0.00000 0.13523
v -0.03500 -0.03623 0.13062
v -0.03138 -0.07000 0.11711
v -0.02562 -0.09899 0.09562
v -0.01812 -0.12124 0.06761
v -0.00938 -0.13523 0.03500
v -0.01812 0.13523 0.03138
v -0.03500 0.12124 0.06062
v -0.04950 0.09899 0.08573
v -0.06062 0.07000 0.10500
v -0.06761 0.03623 0.11711
v -0.07000 0.00000 0.12124
v -0.06761 -0.03623 0.11711
v -0.06062 -0.07000 0.10500
v -0.04950 -0.09899 0.08573
v -0.03500 -0.12124 0.06062
v -0.01812 -0.13523 0.03138
v -0.02562 0.13523 0.02562
v -0.04950 0.12124 0.04950
v -0.07000 0.09899 0.07000
v -0.08573 0.07000 0.08573
v -0.09562 0.03623 0.09562
v -0.09899 0.00000 0.09899
v -0.09562 -0.03623 0.09562
v -0.08573 -0.07000 0.08573
v -0.07000 -0.09899 0.07000
v -0.04950 -0.12124 0.04950
v -0.02562 -0.13523 0.02562
v -0.03138 0.13523 0.01812
v -0.06062 0.12124 0.03500
v -0.08573 0.09899 0.04950
v -0.10500 0.07000 0.06062
v -0.11711 0.03623 0.06761
v -0.12124 0.00000 0.07000
v -0.11711 -0.03623 0.06761
v -0.10500 -0.07000 0.06062
v -0.08573 -0.09899 0.04950
v -0.06062 -0.12124 0.03500
v -0.03138 -0.13523 0.01812
v -0.03500 0.13523 0.00938
v -0.06761 0.12124 0.01812
v -0.09562 0.09899 0.02562
v -0.11711 0.07000 0.03138
v -0.13062 0.03623 0.03500
v -0.13523 0.00000 0.03623
v -0.13062 -0.03623 0.03500
v -0.11711 -0.07000 0.03138
v -0.09562 -0.09899 0.02562
v -0.06761 -0.12124 0.01812
v -0.03500 -0.13523 0.00938
v -0.03623 0.13523 0.00000
v -0.07000 0.12124 0.00000
v -0.09899 0.09899 0.00000
v -0.12124 0.07000 0.00000
v -0.13523 0.03623 0.00000
v -0.14000 0.00000 0.00000
v -0.13523 -0.03623 0.00000
v -0.12124 -0.07000 0.00000
v -0.09899 -0.09899 0.00000
v -0.07000 -0.12124 0.00000
v -0.03623 -0.13523 0.00000
v -0.03500 0.13523 -0.00938
v -0.06761 0.12124 -0.01812
v -0.09562 0.09899 -0.02562
v -0.11711 0.07000 -0.03138
v -0.13062 0.03623 -0.03500
v -0.13523 0.00000 -0.03623
v -0.13062 -0.03623 -0.03500
v -0.11711 -0.07000 -0.03138
v -0.09562 -0.09899 -0.02562
v -0.06761 -0.12124 -0.01812
v -0.03500 -0.13523 -0.00938
v -0.03138 0.13523 -0.01812
v -0.06062 0.12124 -0.03500
v -0.08573 0.09899 -0.04950
v -0.10500 0.07000 -0.06062
v -0.11711 0.03623 -0.06761
v -0.12124 0.00000 -0.07000
v -0.11711 -0.03623 -0.06761
v -0.10500 -0.07000 -0.06062
v -0.08573 -0.09899 -0.04950
v -0.06062 -0.12124 -0.03500
v -0.03138 -0.13523 -0.01812
v -0.02562 0.13523 -0.02562
v -0.04950 0.12124 -0.04950
v -0.07000 0.09899 -0.07000
v -0.08573 0.07000 -0.08573
v -0.09562 0.03623 -0.09562
v -0.09899 0.00000 -0.09899
v -0.09562 -0.03623 -0.09562
v -0.08573 -0.07000 -0.08573
v -0.07000 -0.09899 -0.07000
v -0.04950 -0.12124 -0.04950
v -0.02562 -0.13523 -0.02562
v -0.01812 0.13523 -0.03138
v -0.03500 0.12124 -0.06062
v -0.04950 0.09899 -0.08573
v -0.06062 0.07000 -0.10500
v -0.06761 0.03623 -0.11711
v -0.07000 0.00000 -0.12124
v -0.06761 -0.03623 -0.11711
v -0.06062 -0.07000 -0.10500
v -0.04950 -0.09899 -0.08573
v -0.03500 -0.12124 -0.06062
v -0.01812 -0.13523 -0.03138
v -0.00938 0.13523 -0.03500
v -0.01812 0.12124 -0.06761
v -0.02562 0.09899 -0.09562
v -0.03138 0.07000 -0.11711
v -0.03500 0.03623 -0.13062
v -0.03623 0.00000 -0.13523
v -0.03500 -0.03623 -0.13062
v -0.03138 -0.07000 -0.11711
v -0.02562 -0.09899 -0.09562
v -0.01812 -0.12124 -0.06761
v -0.00938 -0.13523 -0.03500
v 0.00000 0.13523 -0.03623
v 0.00000 0.12124 -0.07000
v 0.00000 0.09899 -0.09899
v 0.00000 0.07000 -0.12124
v 0.00000 0.03623 -0.13523
v 0.00000 0.00000 -0.14000
v 0.00000 -0.03623 -0.13523
v 0.00000 -0.07000 -0.12124
v 0.00000 -0.09899 -0.09899
v 0.00000 -0.12124 -0.07000
v 0.00000 -0.13523 -0.03623
v 0.00938 0.13523 -0.03500
v 0.01812 0.12124 -0.06761
v 0.02562 0.09899 -0.09562
v 0.03138 0.07000 -0.11711
v 0.03500 0.03623 -0.13062
v 0.03623 0.00000 -0.13523
v 0.03500 -0.03623 -0.13062
v 0.03138 -0.07000 -0.11711
v 0.02562 -0.09899 -0.09562
v 0.01812 -0.12124 -0.06761
v 0.00938 -0.13523 -0.03500
v 0.01812 0.13523 -0.03138
v 0.03500 0.12124 -0.06062
v 0.04950 0.09899 -0.08573
v 0.06062 0.07000 -0.10500
v 0.06761 0.03623 -0.11711
v 0.07000 0.00000 -0.12124
v 0.06761 -0.03623 -0.11711
v 0.06062 -0.07000 -0.10500
v 0.04950 -0.09899 -0.08573
v 0.03500 -0.12124 -0.06062
v 0.01812 -0.13523 -0.03138
v 0.02562 0.13523 -0.02562
v 0.04950 0.12124 -0.04950
v 0.07000 0.09899 -0.07000
v 0.08573 0.07000 -0.08573
v 0.09562 0.03623 -0.09562
v 0.09899 0.00000 -0.09899
v 0.09562 -0.03623 -0.09562
v 0.08573 -0.07000 -0.08573
v 0.07000 -0.09899 -0.07000
v 0.04950 -0.12124 -0.04950
v 0.02562 -0.13523 -0.02562
v 0.03138 0.13523 -0.01812
v 0.06062 0.12124 -0.03500
v 0.08573 0.09899 -0.04950
v 0.10500 0.07000 -0.06062
v 0.11711 0.03623 -0.06761
v 0.12124 0.00000 -0.07000
v 0.11711 -0.03623 -0.06761
v 0.10500 -0.07000 -0.06062
v 0.08573 -0.09899 -0.04950
v 0.06062 -0.12124 -0.03500
v 0.03138 -0.13523 -0.01812
v 0.03500 0.13523 -0.00938
v 0.06761 0.12124 -0.01812
v 0.09562 0.09899 -0.02562
v 0.11711 0.07000 -0.03138
v 0.13062 0.03623 -0.03500
v 0.13523 0.00000 -0.03623
v 0.13062 -0.03623 -0.03500
v 0.11711 -0.07000 -0.03138
v 0.09562 -0.09899 -0.02562
v 0.06761 -0.12124 -0.01812
v 0.03500 -0.13523 -0.00938
v 0.03623 0.13523 0.00000
v 0.07000 0.12124 0.00000
v 0.09899 0.09899 0.00000
v 0.12124 0.07000 0.00000
v 0.13523 0.03623 0.00000
v 0.14000 0.00000 0.00000
v 0.13523 -0.03623 0.00000
v 0.12124 -0.07000 0.00000
v 0.09899 -0.09899 0.00000
v 0.07000 -0.12124 0.00000
v 0.03623 -0.13523 0.00000
v 0.03500 0.13523 0.00938
v 0.06761 0.12124 0.01812
v 0.09562 0.09899 0.02562
v 0.11711 0.07000 0.03138
v 0.13062 0.03623 0.03500
v 0.13523 0.00000 0.03623
v 0.13062 -0.03623 0.03500
v 0.11711 -0.07000 0.03138
v 0.09562 -0.09899 0.02562
v 0.06761 -0.12124 0.01812
v 0.03500 -0.13523 0.00938
v 0.03138 0.13523 0.01812
v 0.06062 0.12124 0.03500
v 0.08573 0.09899 0.04950
v 0.10500 0.07000 0.06062
v 0.11711 0.03623 0.06761
v 0.12124 0.00000 0.07000
v 0.11711 -0.03623 0.06761
v 0.10500 -0.07000 0.06062
v 0.08573 -0.09899 0.04950
v 0.06062 -0.12124 0.03500
v 0.03138 -0.13523 0.01812
v 0.02562 0.13523 0.02562
v 0.04950 0.12124 0.04950
v 0.07000 0.09899 0.07000
v 0.08573 0.07000 0.08573
v 0.09562 0.03623 0.09562
v 0.09899 0.00000 0.09899
v 0.09562 -0.03623 0.09562
v 0.08573 -0.07000 0.08573
v 0.07000 -0.09899 0.07000
v 0.04950 -0.12124 0.04950
v 0.02562 -0.13523 0.02562
v 0.01812 0.13523 0.03138
v 0.03500 0.12124 0.06062
v 0.04950 0.09899 0.08573
v 0.06062 0.07000 0.10500
v 0.06761 0.03623 0.11711
v 0.07000 0.00000 0.12124
v 0.06761 -0.03623 0.11711
v 0.06062 -0.07000 0.10500
v 0.04950 -0.09899 0.08573
v 0.03500 -0.12124 0.06062
v 0.01812 -0.13523 0.03138
v 0.00938 0.13523 0.03500
v 0.01812 0.12124 0.06761
v 0.02562 0.09899 0.09562
v 0.03138 0.07000 0.11711
v 0.03500 0.03623 0.13062
v 0.03623 0.00000 0.13523
v 0.03500 -0.03623 0.13062
v 0.03138 -0.07000 0.11711
v 0.02562 -0.09899 0.09562
v 0.01812 -0.12124 0.06761
v 0.00938 -0.13523 0.03500
v 0.00000 0.13523 0.03623
v 0.00000 0.07000 0.12124
v 0.00000 0.03623 0.13523
v 0.00000 -0.07000 0.12124
v 0.00000 -0.09899 0.09899
v 0.00000 -0.13523 0.03623
f 266 17 18
f 261 1 8
f 264 14 15
f 262 12 263
f 7 266 18
f 261 9 2
f 264 16 265
f 263 13 4
f 3 9 10
f 6 16 17
f 5 13 14
f 262 10 11
f 13 23 24
f 10 20 21
f 17 27 28
f 13 25 14
f 11 21 22
f 17 29 18
f 8 1 19
f 15 25 26
f 11 23 12
f 7 18 29
f 9 19 20
f 15 27 16
f 25 37 26
f 23 33 34
f 7 29 40
f 20 30 31
f 27 37 38
f 23 35 24
f 20 32 21
f 28 38 39
f 24 36 25
f 22 32 33
f 28 40 29
f 19 1 30
f 36 46 47
f 32 44 33
f 39 51 40
f 30 1 41
f 36 48 37
f 33 45 34
f 7 40 51
f 30 42 31
f 37 49 38
f 34 46 35
f 32 42 43
f 38 50 39
f 48 60 49
f 46 56 57
f 43 53 54
f 49 61 50
f 46 58 47
f 43 55 44
f 51 61 62
f 41 1 52
f 47 59 48
f 45 55 56
f 7 51 62
f 41 53 42
f 52 1 63
f 58 70 59
f 56 66 67
f 7 62 73
f 53 63 64
f 60 70 71
f 57 67 68
f 53 65 54
f 60 72 61
f 57 69 58
f 54 66 55
f 61 73 62
f 72 82 83
f 69 79 80
f 66 76 77
f 73 83 84
f 63 1 74
f 70 80 81
f 66 78 67
f 7 73 84
f 63 75 64
f 71 81 82
f 67 79 68
f 65 75 76
f 74 86 75
f 82 92 93
f 79 89 90
f 76 86 87
f 83 93 94
f 79 91 80
f 76 88 77
f 84 94 95
f 74 1 85
f 81 91 92
f 77 89 78
f 7 84 95
f 95 105 106
f 85 1 96
f 91 103 92
f 89 99 100
f 7 95 106
f 86 96 97
f 93 103 104
f 89 101 90
f 86 98 87
f 94 104 105
f 91 101 102
f 87 99 88
f 97 109 98
f 104 116 105
f 101 113 102
f 98 110 99
f 105 117 106
f 96 1 107
f 102 114 103
f 99 111 100
f 7 106 117
f 96 108 97
f 104 114 115
f 100 112 101
f 7 117 128
f 107 119 108
f 114 126 115
f 112 122 123
f 109 119 120
f 116 126 127
f 112 124 113
f 110 120 121
f 117 127 128
f 107 1 118
f 113 125 114
f 111 121 122
f 120 132 121
f 127 139 128
f 118 1 129
f 124 136 125
f 122 132 133
f 7 128 139
f 118 130 119
f 126 136 137
f 122 134 123
f 119 131 120
f 127 137 138
f 123 135 124
f 131 141 142
f 137 149 138
f 134 146 135
f 132 142 143
f 138 150 139
f 129 1 140
f 135 147 136
f 132 144 133
f 7 139 150
f 130 140 141
f 137 147 148
f 133 145 134
f 143 155 144
f 7 150 161
f 141 151 152
f 148 158 159
f 145 155 156
f 141 153 142
f 149 159 160
f 145 157 146
f 143 153 154
f 149 161 150
f 140 1 151
f 146 158 147
f 153 165 154
f 160 172 161
f 151 1 162
f 157 169 158
f 155 165 166
f 7 161 172
f 152 162 163
f 159 169 170
f 156 166 167
f 152 164 153
f 160 170 171
f 156 168 157
f 166 178 167
f 163 175 164
f 170 182 171
f 168 178 179
f 165 175 176
f 171 183 172
f 162 1 173
f 168 180 169
f 166 176 177
f 7 172 183
f 162 174 163
f 169 181 170
f 177 187 188
f 7 183 194
f 173 185 174
f 180 192 181
f 177 189 178
f 175 185 186
f 181 193 182
f 178 190 179
f 176 186 187
f 182 194 183
f 173 1 184
f 179 191 180
f 189 201 190
f 186 198 187
f 194 204 205
f 184 1 195
f 191 201 202
f 187 199 188
f 7 194 205
f 184 196 185
f 192 202 203
f 188 200 189
f 185 197 186
f 193 203 204
f 199 211 200
f 197 207 208
f 203 215 204
f 201 211 212
f 197 209 198
f 205 215 216
f 195 1 206
f 202 212 213
f 198 210 199
f 7 205 216
f 196 206 207
f 202 214 203
f 212 224 213
f 209 221 210
f 7 216 227
f 207 217 218
f 214 224 225
f 210 222 211
f 207 219 208
f 214 226 215
f 212 222 223
f 209 219 220
f 215 227 216
f 206 1 217
f 222 234 223
f 219 231 220
f 226 238 227
f 217 1 228
f 224 234 235
f 220 232 221
f 7 227 238
f 218 228 229
f 224 236 225
f 222 232 233
f 218 230 219
f 226 236 237
f 236 246 247
f 232 244 233
f 230 240 241
f 236 248 237
f 234 244 245
f 230 242 231
f 237 249 238
f 228 1 239
f 234 246 235
f 231 243 232
f 7 238 249
f 228 240 229
f 239 1 250
f 245 257 246
f 242 254 243
f 7 249 260
f 240 250 251
f 247 257 258
f 243 255 244
f 241 251 252
f 247 259 248
f 244 256 245
f 241 253 242
f 248 260 249
f 258 6 259
f 256 4 5
f 252 262 253
f 259 266 260
f 250 1 261
f 256 264 257
f 254 262 263
f 7 260 266
f 250 2 251
f 258 264 265
f 254 4 255
f 251 3 252
f 266 6 17
f 264 5 14
f 262 11 12
f 261 8 9
f 264 15 16
f 263 12 13
f 3 2 9
f 6 265 16
f 5 4 13
f 262 3 10
f 13 12 23
f 10 9 20
f 17 16 27
f 13 24 25
f 11 10 21
f 17 28 29
f 15 14 25
f 11 22 23
f 9 8 19
f 15 26 27
f 25 36 37
f 23 22 33
f 20 19 30
f 27 26 37
f 23 34 35
f 20 31 32
f 28 27 38
f 24 35 36
f 22 21 32
f 28 39 40
f 36 35 46
f 32 43 44
f 39 50 51
f 36 47 48
f 33 44 45
f 30 41 42
f 37 48 49
f 34 45 46
f 32 31 42
f 38 49 50
f 48 59 60
f 46 45 56
f 43 42 53
f 49 60 61
f 46 57 58
f 43 54 55
f 51 50 61
f 47 58 59
f 45 44 55
f 41 52 53
f 58 69 70
f 56 55 66
f 53 52 63
f 60 59 70
f 57 56 67
f 53 64 65
f 60 71 72
f 57 68 69
f 54 65 66
f 61 72 73
f 72 71 82
f 69 68 79
f 66 65 76
f 73 72 83
f 70 69 80
f 66 77 78
f 63 74 75
f 71 70 81
f 67 78 79
f 65 64 75
f 74 85 86
f 82 81 92
f 79 78 89
f 76 75 86
f 83 82 93
f 79 90 91
f 76 87 88
f 84 83 94
f 81 80 91
f 77 88 89
f 95 94 105
f 91 102 103
f 89 88 99
f 86 85 96
f 93 92 103
f 89 100 101
f 86 97 98
f 94 93 104
f 91 90 101
f 87 98 99
f 97 108 109
f 104 115 116
f 101 112 113
f 98 109 110
f 105 116 117
f 102 113 114
f 99 110 111
f 96 107 108
f 104 103 114
f 100 111 112
f 107 118 119
f 114 125 126
f 112 111 122
f 109 108 119
f 116 115 126
f 112 123 124
f 110 109 120
f 117 116 127
f 113 124 125
f 111 110 121
f 120 131 132
f 127 138 139
f 124 135 136
f 122 121 132
f 118 129 130
f 126 125 136
f 122 133 134
f 119 130 131
f 127 126 137
f 123 134 135
f 131 130 141
f 137 148 149
f 134 145 146
f 132 131 142
f 138 149 150
f 135 146 147
f 132 143 144
f 130 129 140
f 137 136 147
f 133 144 145
f 143 154 155
f 141 140 151
f 148 147 158
f 145 144 155
f 141 152 153
f 149 148 159
f 145 156 157
f 143 142 153
f 149 160 161
f 146 157 158
f 153 164 165
f 160 171 172
f 157 168 169
f 155 154 165
f 152 151 162
f 159 158 169
f 156 155 166
f 152 163 164
f 160 159 170
f 156 167 168
f 166 177 178
f 163 174 175
f 170 181 182
f 168 167 178
f 165 164 175
f 171 182 183
f 168 179 180
f 166 165 176
f 162 173 174
f 169 180 181
f 177 176 187
f 173 184 185
f 180 191 192
f 177 188 189
f 175 174 185
f 181 192 193
f 178 189 190
f 176 175 186
f 182 193 194
f 179 190 191
f 189 200 201
f 186 197 198
f 194 193 204
f 191 190 201
f 187 198 199
f 184 195 196
f 192 191 202
f 188 199 200
f 185 196 197
f 193 192 203
f 199 210 211
f 197 196 207
f 203 214 215
f 201 200 211
f 197 208 209
f 205 204 215
f 202 201 212
f 198 209 210
f 196 195 206
f 202 213 214
f 212 223 224
f 209 220 221
f 207 206 217
f 214 213 224
f 210 221 222
f 207 218 219
f 214 225 226
f 212 211 222
f 209 208 219
f 215 226 227
f 222 233 234
f 219 230 231
f 226 237 238
f 224 223 234
f 220 231 232
f 218 217 228
f 224 235 236
f 222 221 232
f 218 229 230
f 226 225 236
f 236 235 246
f 232 243 244
f 230 229 240
f 236 247 248
f 234 233 244
f 230 241 242
f 237 248 249
f 234 245 246
f 231 242 243
f 228 239 240
f 245 256 257
f 242 253 254
f 240 239 250
f 247 246 257
f 243 254 255
f 241 240 251
f 247 258 259
f 244 255 256
f 241 252 253
f 248 259 260
f 258 265 6
f 256 255 4
f 252 3 262
f 259 6 266
f 256 5 264
f 254 253 262
f 250 261 2
f 258 257 264
f 254 263 4
f 251 2 3
