# eclipse_carrier Planet2_Planet2.obj: Roblox cue frame, recentred on its bounding box
v -0.00000 0.18000 0.00000
v -0.00000 0.04659 0.17387
v -0.00000 -0.04659 0.17387
v -0.00000 -0.18000 0.00000
v -0.01206 0.17387 0.04500
v -0.02329 0.15588 0.08693
v -0.03294 0.12728 0.12294
v -0.04035 0.09000 0.15057
v -0.04500 0.04659 0.16794
v -0.04659 0.00000 0.17387
v -0.04500 -0.04659 0.16794
v -0.04035 -0.09000 0.15057
v -0.03294 -0.12728 0.12294
v -0.02329 -0.15588 0.08693
v -0.01206 -0.17387 0.04500
v -0.02329 0.17387 0.04035
v -0.04500 0.15588 0.07794
v -0.06364 0.12728 0.11023
v -0.07794 0.09000 0.13500
v -0.08693 0.04659 0.15057
v -0.09000 0.00000 0.15588
v -0.08693 -0.04659 0.15057
v -0.07794 -0.09000 0.13500
v -0.06364 -0.12728 0.11023
v -0.04500 -0.15588 0.07794
v -0.02329 -0.17387 0.04035
v -0.03294 0.17387 0.03294
v -0.06364 0.15588 0.06364
v -0.09000 0.12728 0.09000
v -0.11023 0.09000 0.11023
v -0.12294 0.04659 0.12294
v -0.12728 0.00000 0.12728
v -0.12294 -0.04659 0.12294
v -0.11023 -0.09000 0.11023
v -0.09000 -0.12728 0.09000
v -0.06364 -0.15588 0.06364
v -0.03294 -0.17387 0.03294
v -0.04035 0.17387 0.02329
v -0.07794 0.15588 0.04500
v -0.11023 0.12728 0.06364
v -0.13500 0.09000 0.07794
v -0.15057 0.04659 0.08693
v -0.15588 0.00000 0.09000
v -0.15057 -0.04659 0.08693
v -0.13500 -0.09000 0.07794
v -0.11023 -0.12728 0.06364
v -0.07794 -0.15588 0.04500
v -0.04035 -0.17387 0.02329
v -0.04500 0.17387 0.01206
v -0.08693 0.15588 0.02329
v -0.12294 0.12728 0.03294
v -0.15057 0.09000 0.04035
v -0.16794 0.04659 0.04500
v -0.17387 0.00000 0.04659
v -0.16794 -0.04659 0.04500
v -0.15057 -0.09000 0.04035
v -0.12294 -0.12728 0.03294
v -0.08693 -0.15588 0.02329
v -0.04500 -0.17387 0.01206
v -0.04659 0.17387 0.00000
v -0.09000 0.15588 0.00000
v -0.12728 0.12728 0.00000
v -0.15588 0.09000 0.00000
v -0.17387 0.04659 0.00000
v -0.18000 0.00000 0.00000
v -0.17387 -0.04659 0.00000
v -0.15588 -0.09000 0.00000
v -0.12728 -0.12728 0.00000
v -0.09000 -0.15588 0.00000
v -0.04659 -0.17387 0.00000
v -0.04500 0.17387 -0.01206
v -0.08693 0.15588 -0.02329
v -0.12294 0.12728 -0.03294
v -0.15057 0.09000 -0.04035
v -0.16794 0.04659 -0.04500
v -0.17387 0.00000 -0.04659
v -0.16794 -0.04659 -0.04500
v -0.15057 -0.09000 -0.04035
v -0.12294 -0.12728 -0.03294
v -0.08693 -0.15588 -0.02329
v -0.04500 -0.17387 -0.01206
v -0.04035 0.17387 -0.02329
v -0.07794 0.15588 -0.04500
v -0.11023 0.12728 -0.06364
v -0.13500 0.09000 -0.07794
v -0.15057 0.04659 -0.08693
v -0.15588 0.00000 -0.09000
v -0.15057 -0.04659 -0.08693
v -0.13500 -0.09000 -0.07794
v -0.11023 -0.12728 -0.06364
v -0.07794 -0.15588 -0.04500
v -0.04035 -0.17387 -0.02329
v -0.03294 0.17387 -0.03294
v -0.06364 0.15588 -0.06364
v -0.09000 0.12728 -0.09000
v -0.11023 0.09000 -0.11023
v -0.12294 0.04659 -0.12294
v -0.12728 0.00000 -0.12728
v -0.12294 -0.04659 -0.12294
v -0.11023 -0.09000 -0.11023
v -0.09000 -0.12728 -0.09000
v -0.06364 -0.15588 -0.06364
v -0.03294 -0.17387 -0.03294
v -0.02329 0.17387 -0.04035
v -0.04500 0.15588 -0.07794
v -0.06364 0.12728 -0.11023
v -0.07794 0.09000 -0.13500
v -0.08693 0.04659 -0.15057
v -0.09000 0.00000 -0.15588
v -0.08693 -0.04659 -0.15057
v -0.07794 -0.09000 -0.13500
v -0.06364 -0.12728 -0.11023
v -0.04500 -0.15588 -0.07794
v -0.02329 -0.17387 -0.04035
v -0.01206 0.17387 -0.04500
v -0.02329 0.15588 -0.08693
v -0.03294 0.12728 -0.12294
v -0.04035 0.09000 -0.15057
v -0.04500 0.04659 -0.16794
v -0.04659 0.00000 -0.17387
v -0.04500 -0.04659 -0.16794
v -0.04035 -0.09000 -0.15057
v -0.03294 -0.12728 -0.12294
v -0.02329 -0.15588 -0.08693
v -0.01206 -0.17387 -0.04500
v -0.00000 0.17387 -0.04659
v -0.00000 0.15588 -0.09000
v -0.00000 0.12728 -0.12728
v -0.00000 0.09000 -0.15588
v -0.00000 0.04659 -0.17387
v -0.00000 0.00000 -0.18000
v -0.00000 -0.04659 -0.17387
v -0.00000 -0.09000 -0.15588
v -0.00000 -0.12728 -0.12728
v -0.00000 -0.15588 -0.09000
v -0.00000 -0.17387 -0.04659
v 0.01206 0.17387 -0.04500
v 0.02329 0.15588 -0.08693
v 0.03294 0.12728 -0.12294
v 0.04035 0.09000 -0.15057
v 0.04500 0.04659 -0.16794
v 0.04659 0.00000 -0.17387
v 0.04500 -0.04659 -0.16794
v 0.04035 -0.09000 -0.15057
v 0.03294 -0.12728 -0.12294
v 0.02329 -0.15588 -0.08693
v 0.01206 -0.17387 -0.04500
v 0.02329 0.17387 -0.04035
v 0.04500 0.15588 -0.07794
v 0.06364 0.12728 -0.11023
v 0.07794 0.09000 -0.13500
v 0.08693 0.04659 -0.15057
v 0.09000 0.00000 -0.15588
v 0.08693 -0.04659 -0.15057
v 0.07794 -0.09000 -0.13500
v 0.06364 -0.12728 -0.11023
v 0.04500 -0.15588 -0.07794
v 0.02329 -0.17387 -0.04035
v 0.03294 0.17387 -0.03294
v 0.06364 0.15588 -0.06364
v 0.09000 0.12728 -0.09000
v 0.11023 0.09000 -0.11023
v 0.12294 0.04659 -0.12294
v 0.12728 0.00000 -0.12728
v 0.12294 -0.04659 -0.12294
v 0.11023 -0.09000 -0.11023
v 0.09000 -0.12728 -0.09000
v 0.06364 -0.15588 -0.06364
v 0.03294 -0.17387 -0.03294
v 0.04035 0.17387 -0.02329
v 0.07794 0.15588 -0.04500
v 0.11023 0.12728 -0.06364
v 0.13500 0.09000 -0.07794
v 0.15057 0.04659 -0.08693
v 0.15588 0.00000 -0.09000
v 0.15057 -0.04659 -0.08693
v 0.13500 -0.09000 -0.07794
v 0.11023 -0.12728 -0.06364
v 0.07794 -0.15588 -0.04500
v 0.04035 -0.17387 -0.02329
v 0.04500 0.17387 -0.01206
v 0.08693 0.15588 -0.02329
v 0.12294 0.12728 -0.03294
v 0.15057 0.09000 -0.04035
v 0.16794 0.04659 -0.04500
v 0.17387 0.00000 -0.04659
v 0.16794 -0.04659 -0.04500
v 0.15057 -0.09000 -0.04035
v 0.12294 -0.12728 -0.03294
v 0.08693 -0.15588 -0.02329
v 0.04500 -0.17387 -0.01206
v 0.04659 0.17387 0.00000
v 0.09000 0.15588 0.00000
v 0.12728 0.12728 0.00000
v 0.15588 0.09000 0.00000
v 0.17387 0.04659 0.00000
v 0.18000 0.00000 0.00000
v 0.17387 -0.04659 0.00000
v 0.15588 -0.09000 0.00000
v 0.12728 -0.12728 0.00000
v 0.09000 -0.15588 0.00000
v 0.04659 -0.17387 0.00000
v 0.04500 0.17387 0.01206
v 0.08693 0.15588 0.02329
v 0.12294 0.12728 0.03294
v 0.15057 0.09000 0.04035
v 0.16794 0.04659 0.04500
v 0.17387 0.00000 0.04659
v 0.16794 -0.04659 0.04500
v 0.15057 -0.09000 0.04035
v 0.12294 -0.12728 0.03294
v 0.08693 -0.15588 0.02329
v 0.04500 -0.17387 0.01206
v 0.04035 0.17387 0.02329
v 0.07794 0.15588 0.04500
v 0.11023 0.12728 0.06364
v 0.13500 0.09000 0.07794
v 0.15057 0.04659 0.08693
v 0.15588 0.00000 0.09000
v 0.15057 -0.04659 0.08693
v 0.13500 -0.09000 0.07794
v 0.11023 -0.12728 0.06364
v 0.07794 -0.15588 0.04500
v 0.04035 -0.17387 0.02329
v 0.03294 0.17387 0.03294
v 0.06364 0.15588 0.06364
v 0.09000 0.12728 0.09000
v 0.11023 0.09000 0.11023
v 0.12294 0.04659 0.12294
v 0.12728 0.00000 0.12728
v 0.12294 -0.04659 0.12294
v 0.11023 -0.09000 0.11023
v 0.09000 -0.12728 0.09000
v 0.06364 -0.15588 0.06364
v 0.03294 -0.17387 0.03294
v 0.02329 0.17387 0.04035
v 0.04500 0.15588 0.07794
v 0.06364 0.12728 0.11023
v 0.07794 0.09000 0.13500
v 0.08693 0.04659 0.15057
v 0.09000 0.00000 0.15588
v 0.08693 -0.04659 0.15057
v 0.07794 -0.09000 0.13500
v 0.06364 -0.12728 0.11023
v 0.04500 -0.15588 0.07794
v 0.02329 -0.17387 0.04035
v 0.01206 0.17387 0.04500
v 0.02329 0.15588 0.08693
v 0.03294 0.12728 0.12294
v 0.04035 0.09000 0.15057
v 0.04500 0.04659 0.16794
v 0.04659 0.00000 0.17387
v 0.04500 -0.04659 0.16794
v 0.04035 -0.09000 0.15057
v 0.03294 -0.12728 0.12294
v 0.02329 -0.15588 0.08693
v 0.01206 -0.17387 0.04500
v -0.00000 0.17387 0.04659
v -0.00000 0.15588 0.09000
v -0.00000 0.12728 0.12728
v -0.00000 0.09000 0.15588
v -0.00000 0.00000 0.18000
v -0.00000 -0.09000 0.15588
v -0.00000 -0.12728 0.12728
v -0.00000 -0.15588 0.09000
v -0.00000 -0.17387 0.04659
f 262 9 10
f 259 7 260
f 264 14 265
f 262 11 3
f 261 7 8
f 266 14 15
f 258 1 5
f 3 12 263
f 2 8 9
f 4 266 15
f 258 6 259
f 263 13 264
f 14 26 15
f 5 1 16
f 11 23 12
f 9 19 20
f 4 15 26
f 6 16 17
f 13 23 24
f 10 20 21
f 6 18 7
f 14 24 25
f 10 22 11
f 7 19 8
f 18 28 29
f 24 36 25
f 22 32 33
f 18 30 19
f 25 37 26
f 16 1 27
f 22 34 23
f 19 31 20
f 4 26 37
f 17 27 28
f 24 34 35
f 20 32 21
f 4 37 48
f 27 39 28
f 34 46 35
f 32 42 43
f 28 40 29
f 36 46 47
f 32 44 33
f 29 41 30
f 37 47 48
f 27 1 38
f 33 45 34
f 30 42 31
f 41 51 52
f 48 58 59
f 38 1 49
f 44 56 45
f 42 52 53
f 4 48 59
f 38 50 39
f 45 57 46
f 42 54 43
f 39 51 40
f 46 58 47
f 44 54 55
f 51 61 62
f 58 68 69
f 55 65 66
f 52 62 63
f 58 70 59
f 49 1 60
f 55 67 56
f 53 63 64
f 4 59 70
f 50 60 61
f 56 68 57
f 53 65 54
f 63 75 64
f 4 70 81
f 61 71 72
f 68 78 79
f 65 75 76
f 62 72 73
f 68 80 69
f 65 77 66
f 62 74 63
f 70 80 81
f 60 1 71
f 66 78 67
f 73 85 74
f 80 92 81
f 71 1 82
f 77 89 78
f 75 85 86
f 4 81 92
f 72 82 83
f 79 89 90
f 76 86 87
f 72 84 73
f 80 90 91
f 76 88 77
f 86 98 87
f 84 94 95
f 90 102 91
f 87 99 88
f 85 95 96
f 92 102 103
f 82 1 93
f 89 99 100
f 85 97 86
f 4 92 103
f 83 93 94
f 89 101 90
f 96 108 97
f 4 103 114
f 93 105 94
f 101 111 112
f 98 108 109
f 94 106 95
f 102 112 113
f 98 110 99
f 95 107 96
f 103 113 114
f 93 1 104
f 100 110 111
f 110 120 121
f 107 117 118
f 114 124 125
f 104 1 115
f 110 122 111
f 108 118 119
f 4 114 125
f 104 116 105
f 111 123 112
f 108 120 109
f 106 116 117
f 112 124 113
f 120 130 131
f 116 128 117
f 124 134 135
f 120 132 121
f 117 129 118
f 125 135 136
f 115 1 126
f 121 133 122
f 118 130 119
f 4 125 136
f 115 127 116
f 122 134 123
f 132 144 133
f 130 140 141
f 4 136 147
f 126 138 127
f 133 145 134
f 131 141 142
f 127 139 128
f 134 146 135
f 131 143 132
f 129 139 140
f 136 146 147
f 126 1 137
f 142 154 143
f 140 150 151
f 146 158 147
f 137 1 148
f 143 155 144
f 141 151 152
f 4 147 158
f 138 148 149
f 144 156 145
f 142 152 153
f 139 149 150
f 145 157 146
f 156 166 167
f 152 164 153
f 150 160 161
f 156 168 157
f 153 165 154
f 150 162 151
f 158 168 169
f 148 1 159
f 155 165 166
f 151 163 152
f 4 158 169
f 149 159 160
f 159 1 170
f 166 176 177
f 162 174 163
f 4 169 180
f 159 171 160
f 167 177 178
f 163 175 164
f 160 172 161
f 168 178 179
f 164 176 165
f 161 173 162
f 169 179 180
f 178 190 179
f 176 186 187
f 173 183 184
f 180 190 191
f 170 1 181
f 176 188 177
f 174 184 185
f 4 180 191
f 170 182 171
f 177 189 178
f 174 186 175
f 172 182 183
f 182 192 193
f 189 199 200
f 185 197 186
f 182 194 183
f 190 200 201
f 187 197 198
f 183 195 184
f 190 202 191
f 181 1 192
f 187 199 188
f 184 196 185
f 4 191 202
f 202 212 213
f 192 1 203
f 198 210 199
f 196 206 207
f 4 202 213
f 192 204 193
f 200 210 211
f 196 208 197
f 194 204 205
f 201 211 212
f 197 209 198
f 194 206 195
f 204 216 205
f 212 222 223
f 208 220 209
f 206 216 217
f 212 224 213
f 203 1 214
f 210 220 221
f 206 218 207
f 4 213 224
f 204 214 215
f 210 222 211
f 207 219 208
f 4 224 235
f 214 226 215
f 222 232 233
f 218 230 219
f 215 227 216
f 223 233 234
f 220 230 231
f 216 228 217
f 223 235 224
f 214 1 225
f 221 231 232
f 217 229 218
f 227 239 228
f 235 245 246
f 225 1 236
f 231 243 232
f 229 239 240
f 4 235 246
f 225 237 226
f 232 244 233
f 229 241 230
f 227 237 238
f 233 245 234
f 230 242 231
f 238 248 249
f 244 256 245
f 242 252 253
f 239 249 250
f 246 256 257
f 236 1 247
f 242 254 243
f 239 251 240
f 4 246 257
f 236 248 237
f 243 255 244
f 240 252 241
f 250 2 251
f 4 257 266
f 248 258 259
f 255 263 264
f 251 262 252
f 248 260 249
f 256 264 265
f 253 262 3
f 249 261 250
f 256 266 257
f 247 1 258
f 253 263 254
f 262 2 9
f 259 6 7
f 264 13 14
f 262 10 11
f 261 260 7
f 266 265 14
f 3 11 12
f 2 261 8
f 258 5 6
f 263 12 13
f 14 25 26
f 11 22 23
f 9 8 19
f 6 5 16
f 13 12 23
f 10 9 20
f 6 17 18
f 14 13 24
f 10 21 22
f 7 18 19
f 18 17 28
f 24 35 36
f 22 21 32
f 18 29 30
f 25 36 37
f 22 33 34
f 19 30 31
f 17 16 27
f 24 23 34
f 20 31 32
f 27 38 39
f 34 45 46
f 32 31 42
f 28 39 40
f 36 35 46
f 32 43 44
f 29 40 41
f 37 36 47
f 33 44 45
f 30 41 42
f 41 40 51
f 48 47 58
f 44 55 56
f 42 41 52
f 38 49 50
f 45 56 57
f 42 53 54
f 39 50 51
f 46 57 58
f 44 43 54
f 51 50 61
f 58 57 68
f 55 54 65
f 52 51 62
f 58 69 70
f 55 66 67
f 53 52 63
f 50 49 60
f 56 67 68
f 53 64 65
f 63 74 75
f 61 60 71
f 68 67 78
f 65 64 75
f 62 61 72
f 68 79 80
f 65 76 77
f 62 73 74
f 70 69 80
f 66 77 78
f 73 84 85
f 80 91 92
f 77 88 89
f 75 74 85
f 72 71 82
f 79 78 89
f 76 75 86
f 72 83 84
f 80 79 90
f 76 87 88
f 86 97 98
f 84 83 94
f 90 101 102
f 87 98 99
f 85 84 95
f 92 91 102
f 89 88 99
f 85 96 97
f 83 82 93
f 89 100 101
f 96 107 108
f 93 104 105
f 101 100 111
f 98 97 108
f 94 105 106
f 102 101 112
f 98 109 110
f 95 106 107
f 103 102 113
f 100 99 110
f 110 109 120
f 107 106 117
f 114 113 124
f 110 121 122
f 108 107 118
f 104 115 116
f 111 122 123
f 108 119 120
f 106 105 116
f 112 123 124
f 120 119 130
f 116 127 128
f 124 123 134
f 120 131 132
f 117 128 129
f 125 124 135
f 121 132 133
f 118 129 130
f 115 126 127
f 122 133 134
f 132 143 144
f 130 129 140
f 126 137 138
f 133 144 145
f 131 130 141
f 127 138 139
f 134 145 146
f 131 142 143
f 129 128 139
f 136 135 146
f 142 153 154
f 140 139 150
f 146 157 158
f 143 154 155
f 141 140 151
f 138 137 148
f 144 155 156
f 142 141 152
f 139 138 149
f 145 156 157
f 156 155 166
f 152 163 164
f 150 149 160
f 156 167 168
f 153 164 165
f 150 161 162
f 158 157 168
f 155 154 165
f 151 162 163
f 149 148 159
f 166 165 176
f 162 173 174
f 159 170 171
f 167 166 177
f 163 174 175
f 160 171 172
f 168 167 178
f 164 175 176
f 161 172 173
f 169 168 179
f 178 189 190
f 176 175 186
f 173 172 183
f 180 179 190
f 176 187 188
f 174 173 184
f 170 181 182
f 177 188 189
f 174 185 186
f 172 171 182
f 182 181 192
f 189 188 199
f 185 196 197
f 182 193 194
f 190 189 200
f 187 186 197
f 183 194 195
f 190 201 202
f 187 198 199
f 184 195 196
f 202 201 212
f 198 209 210
f 196 195 206
f 192 203 204
f 200 199 210
f 196 207 208
f 194 193 204
f 201 200 211
f 197 208 209
f 194 205 206
f 204 215 216
f 212 211 222
f 208 219 220
f 206 205 216
f 212 223 224
f 210 209 220
f 206 217 218
f 204 203 214
f 210 221 222
f 207 218 219
f 214 225 226
f 222 221 232
f 218 229 230
f 215 226 227
f 223 222 233
f 220 219 230
f 216 227 228
f 223 234 235
f 221 220 231
f 217 228 229
f 227 238 239
f 235 234 245
f 231 242 243
f 229 228 239
f 225 236 237
f 232 243 244
f 229 240 241
f 227 226 237
f 233 244 245
f 230 241 242
f 238 237 248
f 244 255 256
f 242 241 252
f 239 238 249
f 246 245 256
f 242 253 254
f 239 250 251
f 236 247 248
f 243 254 255
f 240 251 252
f 250 261 2
f 248 247 258
f 255 254 263
f 251 2 262
f 248 259 260
f 256 255 264
f 253 252 262
f 249 260 261
f 256 265 266
f 253 3 263
