# eclipse_carrier Planet1_BeadGlow.obj: Roblox cue frame, recentred on its bounding box
v 0.00000 0.22400 0.00000
v 0.00000 0.19399 0.11200
v 0.00000 -0.15839 0.15839
v 0.00000 -0.19399 0.11200
v 0.00000 -0.22400 0.00000
v -0.01501 0.21637 0.05600
v -0.02899 0.19399 0.10818
v -0.04099 0.15839 0.15299
v -0.05021 0.11200 0.18738
v -0.05600 0.05798 0.20899
v -0.05798 0.00000 0.21637
v -0.05600 -0.05798 0.20899
v -0.05021 -0.11200 0.18738
v -0.04099 -0.15839 0.15299
v -0.02899 -0.19399 0.10818
v -0.01501 -0.21637 0.05600
v -0.02899 0.21637 0.05021
v -0.05600 0.19399 0.09699
v -0.07920 0.15839 0.13717
v -0.09699 0.11200 0.16800
v -0.10818 0.05798 0.18738
v -0.11200 0.00000 0.19399
v -0.10818 -0.05798 0.18738
v -0.09699 -0.11200 0.16800
v -0.07920 -0.15839 0.13717
v -0.05600 -0.19399 0.09699
v -0.02899 -0.21637 0.05021
v -0.04099 0.21637 0.04099
v -0.07920 0.19399 0.07920
v -0.11200 0.15839 0.11200
v -0.13717 0.11200 0.13717
v -0.15299 0.05798 0.15299
v -0.15839 0.00000 0.15839
v -0.15299 -0.05798 0.15299
v -0.13717 -0.11200 0.13717
v -0.11200 -0.15839 0.11200
v -0.07920 -0.19399 0.07920
v -0.04099 -0.21637 0.04099
v -0.05021 0.21637 0.02899
v -0.09699 0.19399 0.05600
v -0.13717 0.15839 0.07920
v -0.16800 0.11200 0.09699
v -0.18738 0.05798 0.10818
v -0.19399 0.00000 0.11200
v -0.18738 -0.05798 0.10818
v -0.16800 -0.11200 0.09699
v -0.13717 -0.15839 0.07920
v -0.09699 -0.19399 0.05600
v -0.05021 -0.21637 0.02899
v -0.05600 0.21637 0.01501
v -0.10818 0.19399 0.02899
v -0.15299 0.15839 0.04099
v -0.18738 0.11200 0.05021
v -0.20899 0.05798 0.05600
v -0.21637 0.00000 0.05798
v -0.20899 -0.05798 0.05600
v -0.18738 -0.11200 0.05021
v -0.15299 -0.15839 0.04099
v -0.10818 -0.19399 0.02899
v -0.05600 -0.21637 0.01501
v -0.05798 0.21637 0.00000
v -0.11200 0.19399 0.00000
v -0.15839 0.15839 0.00000
v -0.19399 0.11200 0.00000
v -0.21637 0.05798 0.00000
v -0.22400 0.00000 0.00000
v -0.21637 -0.05798 0.00000
v -0.19399 -0.11200 0.00000
v -0.15839 -0.15839 0.00000
v -0.11200 -0.19399 0.00000
v -0.05798 -0.21637 0.00000
v -0.05600 0.21637 -0.01501
v -0.10818 0.19399 -0.02899
v -0.15299 0.15839 -0.04099
v -0.18738 0.11200 -0.05021
v -0.20899 0.05798 -0.05600
v -0.21637 0.00000 -0.05798
v -0.20899 -0.05798 -0.05600
v -0.18738 -0.11200 -0.05021
v -0.15299 -0.15839 -0.04099
v -0.10818 -0.19399 -0.02899
v -0.05600 -0.21637 -0.01501
v -0.05021 0.21637 -0.02899
v -0.09699 0.19399 -0.05600
v -0.13717 0.15839 -0.07920
v -0.16800 0.11200 -0.09699
v -0.18738 0.05798 -0.10818
v -0.19399 0.00000 -0.11200
v -0.18738 -0.05798 -0.10818
v -0.16800 -0.11200 -0.09699
v -0.13717 -0.15839 -0.07920
v -0.09699 -0.19399 -0.05600
v -0.05021 -0.21637 -0.02899
v -0.04099 0.21637 -0.04099
v -0.07920 0.19399 -0.07920
v -0.11200 0.15839 -0.11200
v -0.13717 0.11200 -0.13717
v -0.15299 0.05798 -0.15299
v -0.15839 0.00000 -0.15839
v -0.15299 -0.05798 -0.15299
v -0.13717 -0.11200 -0.13717
v -0.11200 -0.15839 -0.11200
v -0.07920 -0.19399 -0.07920
v -0.04099 -0.21637 -0.04099
v -0.02899 0.21637 -0.05021
v -0.05600 0.19399 -0.09699
v -0.07920 0.15839 -0.13717
v -0.09699 0.11200 -0.16800
v -0.10818 0.05798 -0.18738
v -0.11200 0.00000 -0.19399
v -0.10818 -0.05798 -0.18738
v -0.09699 -0.11200 -0.16800
v -0.07920 -0.15839 -0.13717
v -0.05600 -0.19399 -0.09699
v -0.02899 -0.21637 -0.05021
v -0.01501 0.21637 -0.05600
v -0.02899 0.19399 -0.10818
v -0.04099 0.15839 -0.15299
v -0.05021 0.11200 -0.18738
v -0.05600 0.05798 -0.20899
v -0.05798 0.00000 -0.21637
v -0.05600 -0.05798 -0.20899
v -0.05021 -0.11200 -0.18738
v -0.04099 -0.15839 -0.15299
v -0.02899 -0.19399 -0.10818
v -0.01501 -0.21637 -0.05600
v 0.00000 0.21637 -0.05798
v 0.00000 0.19399 -0.11200
v 0.00000 0.15839 -0.15839
v 0.00000 0.11200 -0.19399
v 0.00000 0.05798 -0.21637
v 0.00000 0.00000 -0.22400
v 0.00000 -0.05798 -0.21637
v 0.00000 -0.11200 -0.19399
v 0.00000 -0.15839 -0.15839
v 0.00000 -0.19399 -0.11200
v 0.00000 -0.21637 -0.05798
v 0.01501 0.21637 -0.05600
v 0.02899 0.19399 -0.10818
v 0.04099 0.15839 -0.15299
v 0.05021 0.11200 -0.18738
v 0.05600 0.05798 -0.20899
v 0.05798 0.00000 -0.21637
v 0.05600 -0.05798 -0.20899
v 0.05021 -0.11200 -0.18738
v 0.04099 -0.15839 -0.15299
v 0.02899 -0.19399 -0.10818
v 0.01501 -0.21637 -0.05600
v 0.02899 0.21637 -0.05021
v 0.05600 0.19399 -0.09699
v 0.07920 0.15839 -0.13717
v 0.09699 0.11200 -0.16800
v 0.10818 0.05798 -0.18738
v 0.11200 0.00000 -0.19399
v 0.10818 -0.05798 -0.18738
v 0.09699 -0.11200 -0.16800
v 0.07920 -0.15839 -0.13717
v 0.05600 -0.19399 -0.09699
v 0.02899 -0.21637 -0.05021
v 0.04099 0.21637 -0.04099
v 0.07920 0.19399 -0.07920
v 0.11200 0.15839 -0.11200
v 0.13717 0.11200 -0.13717
v 0.15299 0.05798 -0.15299
v 0.15839 0.00000 -0.15839
v 0.15299 -0.05798 -0.15299
v 0.13717 -0.11200 -0.13717
v 0.11200 -0.15839 -0.11200
v 0.07920 -0.19399 -0.07920
v 0.04099 -0.21637 -0.04099
v 0.05021 0.21637 -0.02899
v 0.09699 0.19399 -0.05600
v 0.13717 0.15839 -0.07920
v 0.16800 0.11200 -0.09699
v 0.18738 0.05798 -0.10818
v 0.19399 0.00000 -0.11200
v 0.18738 -0.05798 -0.10818
v 0.16800 -0.11200 -0.09699
v 0.13717 -0.15839 -0.07920
v 0.09699 -0.19399 -0.05600
v 0.05021 -0.21637 -0.02899
v 0.05600 0.21637 -0.01501
v 0.10818 0.19399 -0.02899
v 0.15299 0.15839 -0.04099
v 0.18738 0.11200 -0.05021
v 0.20899 0.05798 -0.05600
v 0.21637 0.00000 -0.05798
v 0.20899 -0.05798 -0.05600
v 0.18738 -0.11200 -0.05021
v 0.15299 -0.15839 -0.04099
v 0.10818 -0.19399 -0.02899
v 0.05600 -0.21637 -0.01501
v 0.05798 0.21637 0.00000
v 0.11200 0.19399 0.00000
v 0.15839 0.15839 0.00000
v 0.19399 0.11200 0.00000
v 0.21637 0.05798 0.00000
v 0.22400 0.00000 0.00000
v 0.21637 -0.05798 0.00000
v 0.19399 -0.11200 0.00000
v 0.15839 -0.15839 0.00000
v 0.11200 -0.19399 0.00000
v 0.05798 -0.21637 0.00000
v 0.05600 0.21637 0.01501
v 0.10818 0.19399 0.02899
v 0.15299 0.15839 0.04099
v 0.18738 0.11200 0.05021
v 0.20899 0.05798 0.05600
v 0.21637 0.00000 0.05798
v 0.20899 -0.05798 0.05600
v 0.18738 -0.11200 0.05021
v 0.15299 -0.15839 0.04099
v 0.10818 -0.19399 0.02899
v 0.05600 -0.21637 0.01501
v 0.05021 0.21637 0.02899
v 0.09699 0.19399 0.05600
v 0.13717 0.15839 0.07920
v 0.16800 0.11200 0.09699
v 0.18738 0.05798 0.10818
v 0.19399 0.00000 0.11200
v 0.18738 -0.05798 0.10818
v 0.16800 -0.11200 0.09699
v 0.13717 -0.15839 0.07920
v 0.09699 -0.19399 0.05600
v 0.05021 -0.21637 0.02899
v 0.04099 0.21637 0.04099
v 0.07920 0.19399 0.07920
v 0.11200 0.15839 0.11200
v 0.13717 0.11200 0.13717
v 0.15299 0.05798 0.15299
v 0.15839 0.00000 0.15839
v 0.15299 -0.05798 0.15299
v 0.13717 -0.11200 0.13717
v 0.11200 -0.15839 0.11200
v 0.07920 -0.19399 0.07920
v 0.04099 -0.21637 0.04099
v 0.02899 0.21637 0.05021
v 0.05600 0.19399 0.09699
v 0.07920 0.15839 0.13717
v 0.09699 0.11200 0.16800
v 0.10818 0.05798 0.18738
v 0.11200 0.00000 0.19399
v 0.10818 -0.05798 0.18738
v 0.09699 -0.11200 0.16800
v 0.07920 -0.15839 0.13717
v 0.05600 -0.19399 0.09699
v 0.02899 -0.21637 0.05021
v 0.01501 0.21637 0.05600
v 0.02899 0.19399 0.10818
v 0.04099 0.15839 0.15299
v 0.05021 0.11200 0.18738
v 0.05600 0.05798 0.20899
v 0.05798 0.00000 0.21637
v 0.05600 -0.05798 0.20899
v 0.05021 -0.11200 0.18738
v 0.04099 -0.15839 0.15299
v 0.02899 -0.19399 0.10818
v 0.01501 -0.21637 0.05600
v 0.00000 0.21637 0.05798
v 0.00000 0.15839 0.15839
v 0.00000 0.11200 0.19399
v 0.00000 0.05798 0.21637
v 0.00000 0.00000 0.22400
v 0.00000 -0.05798 0.21637
v 0.00000 -0.11200 0.19399
v 0.00000 -0.21637 0.05798
f 259 1 6
f 265 12 13
f 261 10 262
f 5 266 16
f 2 6 7
f 3 13 14
f 262 11 263
f 2 8 260
f 3 15 4
f 264 11 12
f 261 8 9
f 4 16 266
f 10 22 11
f 7 19 8
f 15 25 26
f 12 22 23
f 9 19 20
f 15 27 16
f 6 1 17
f 12 24 13
f 10 20 21
f 5 16 27
f 6 18 7
f 13 25 14
f 21 31 32
f 5 27 38
f 17 29 18
f 24 36 25
f 21 33 22
f 19 29 30
f 25 37 26
f 23 33 34
f 20 30 31
f 27 37 38
f 17 1 28
f 23 35 24
f 33 45 34
f 30 42 31
f 38 48 49
f 28 1 39
f 34 46 35
f 32 42 43
f 5 38 49
f 29 39 40
f 35 47 36
f 33 43 44
f 29 41 30
f 37 47 48
f 44 54 55
f 41 51 52
f 47 59 48
f 44 56 45
f 42 52 53
f 48 60 49
f 39 1 50
f 45 57 46
f 43 53 54
f 5 49 60
f 39 51 40
f 46 58 47
f 56 68 57
f 54 64 65
f 5 60 71
f 50 62 51
f 58 68 69
f 54 66 55
f 52 62 63
f 59 69 70
f 55 67 56
f 52 64 53
f 60 70 71
f 50 1 61
f 66 78 67
f 63 75 64
f 71 81 82
f 61 1 72
f 67 79 68
f 64 76 65
f 5 71 82
f 62 72 73
f 69 79 80
f 66 76 77
f 63 73 74
f 69 81 70
f 80 90 91
f 76 88 77
f 74 84 85
f 80 92 81
f 77 89 78
f 74 86 75
f 81 93 82
f 72 1 83
f 78 90 79
f 75 87 76
f 5 82 93
f 73 83 84
f 83 1 94
f 89 101 90
f 86 98 87
f 5 93 104
f 84 94 95
f 90 102 91
f 87 99 88
f 84 96 85
f 91 103 92
f 89 99 100
f 86 96 97
f 92 104 93
f 103 113 114
f 99 111 100
f 96 108 97
f 103 115 104
f 94 1 105
f 100 112 101
f 97 109 98
f 5 104 115
f 95 105 106
f 102 112 113
f 98 110 99
f 95 107 96
f 105 117 106
f 113 123 124
f 110 120 121
f 106 118 107
f 113 125 114
f 110 122 111
f 107 119 108
f 115 125 126
f 105 1 116
f 111 123 112
f 108 120 109
f 5 115 126
f 126 136 137
f 116 1 127
f 123 133 134
f 119 131 120
f 5 126 137
f 116 128 117
f 123 135 124
f 120 132 121
f 117 129 118
f 125 135 136
f 121 133 122
f 118 130 119
f 129 139 140
f 135 147 136
f 132 144 133
f 129 141 130
f 136 148 137
f 127 1 138
f 134 144 145
f 130 142 131
f 5 137 148
f 128 138 139
f 135 145 146
f 132 142 143
f 5 148 159
f 139 149 150
f 145 157 146
f 142 154 143
f 140 150 151
f 146 158 147
f 144 154 155
f 140 152 141
f 148 158 159
f 138 1 149
f 144 156 145
f 142 152 153
f 151 163 152
f 158 170 159
f 149 1 160
f 155 167 156
f 153 163 164
f 5 159 170
f 150 160 161
f 157 167 168
f 153 165 154
f 151 161 162
f 157 169 158
f 155 165 166
f 161 173 162
f 169 179 180
f 165 177 166
f 163 173 174
f 170 180 181
f 160 1 171
f 166 178 167
f 163 175 164
f 5 170 181
f 160 172 161
f 167 179 168
f 165 175 176
f 175 185 186
f 5 181 192
f 171 183 172
f 178 190 179
f 176 186 187
f 172 184 173
f 180 190 191
f 176 188 177
f 174 184 185
f 181 191 192
f 171 1 182
f 178 188 189
f 184 196 185
f 192 202 203
f 182 1 193
f 188 200 189
f 186 196 197
f 5 192 203
f 182 194 183
f 189 201 190
f 186 198 187
f 183 195 184
f 190 202 191
f 187 199 188
f 197 209 198
f 195 205 206
f 201 213 202
f 198 210 199
f 195 207 196
f 202 214 203
f 193 1 204
f 200 210 211
f 196 208 197
f 5 203 214
f 194 204 205
f 201 211 212
f 207 219 208
f 5 214 225
f 205 215 216
f 212 222 223
f 208 220 209
f 205 217 206
f 212 224 213
f 209 221 210
f 206 218 207
f 214 224 225
f 204 1 215
f 211 221 222
f 220 232 221
f 217 229 218
f 225 235 236
f 215 1 226
f 221 233 222
f 218 230 219
f 5 225 236
f 215 227 216
f 222 234 223
f 219 231 220
f 217 227 228
f 223 235 224
f 231 241 242
f 228 238 239
f 234 246 235
f 231 243 232
f 228 240 229
f 236 246 247
f 226 1 237
f 232 244 233
f 229 241 230
f 5 236 247
f 226 238 227
f 234 244 245
f 243 255 244
f 241 251 252
f 5 247 258
f 237 249 238
f 245 255 256
f 242 252 253
f 239 249 250
f 246 256 257
f 242 254 243
f 239 251 240
f 246 258 247
f 237 1 248
f 253 264 254
f 250 261 251
f 257 266 258
f 248 1 259
f 254 265 255
f 252 261 262
f 5 258 266
f 248 2 249
f 255 3 256
f 253 262 263
f 250 2 260
f 256 4 257
f 265 264 12
f 261 9 10
f 2 259 6
f 3 265 13
f 262 10 11
f 2 7 8
f 3 14 15
f 264 263 11
f 261 260 8
f 4 15 16
f 10 21 22
f 7 18 19
f 15 14 25
f 12 11 22
f 9 8 19
f 15 26 27
f 12 23 24
f 10 9 20
f 6 17 18
f 13 24 25
f 21 20 31
f 17 28 29
f 24 35 36
f 21 32 33
f 19 18 29
f 25 36 37
f 23 22 33
f 20 19 30
f 27 26 37
f 23 34 35
f 33 44 45
f 30 41 42
f 38 37 48
f 34 45 46
f 32 31 42
f 29 28 39
f 35 46 47
f 33 32 43
f 29 40 41
f 37 36 47
f 44 43 54
f 41 40 51
f 47 58 59
f 44 55 56
f 42 41 52
f 48 59 60
f 45 56 57
f 43 42 53
f 39 50 51
f 46 57 58
f 56 67 68
f 54 53 64
f 50 61 62
f 58 57 68
f 54 65 66
f 52 51 62
f 59 58 69
f 55 66 67
f 52 63 64
f 60 59 70
f 66 77 78
f 63 74 75
f 71 70 81
f 67 78 79
f 64 75 76
f 62 61 72
f 69 68 79
f 66 65 76
f 63 62 73
f 69 80 81
f 80 79 90
f 76 87 88
f 74 73 84
f 80 91 92
f 77 88 89
f 74 85 86
f 81 92 93
f 78 89 90
f 75 86 87
f 73 72 83
f 89 100 101
f 86 97 98
f 84 83 94
f 90 101 102
f 87 98 99
f 84 95 96
f 91 102 103
f 89 88 99
f 86 85 96
f 92 103 104
f 103 102 113
f 99 110 111
f 96 107 108
f 103 114 115
f 100 111 112
f 97 108 109
f 95 94 105
f 102 101 112
f 98 109 110
f 95 106 107
f 105 116 117
f 113 112 123
f 110 109 120
f 106 117 118
f 113 124 125
f 110 121 122
f 107 118 119
f 115 114 125
f 111 122 123
f 108 119 120
f 126 125 136
f 123 122 133
f 119 130 131
f 116 127 128
f 123 134 135
f 120 131 132
f 117 128 129
f 125 124 135
f 121 132 133
f 118 129 130
f 129 128 139
f 135 146 147
f 132 143 144
f 129 140 141
f 136 147 148
f 134 133 144
f 130 141 142
f 128 127 138
f 135 134 145
f 132 131 142
f 139 138 149
f 145 156 157
f 142 153 154
f 140 139 150
f 146 157 158
f 144 143 154
f 140 151 152
f 148 147 158
f 144 155 156
f 142 141 152
f 151 162 163
f 158 169 170
f 155 166 167
f 153 152 163
f 150 149 160
f 157 156 167
f 153 164 165
f 151 150 161
f 157 168 169
f 155 154 165
f 161 172 173
f 169 168 179
f 165 176 177
f 163 162 173
f 170 169 180
f 166 177 178
f 163 174 175
f 160 171 172
f 167 178 179
f 165 164 175
f 175 174 185
f 171 182 183
f 178 189 190
f 176 175 186
f 172 183 184
f 180 179 190
f 176 187 188
f 174 173 184
f 181 180 191
f 178 177 188
f 184 195 196
f 192 191 202
f 188 199 200
f 186 185 196
f 182 193 194
f 189 200 201
f 186 197 198
f 183 194 195
f 190 201 202
f 187 198 199
f 197 208 209
f 195 194 205
f 201 212 213
f 198 209 210
f 195 206 207
f 202 213 214
f 200 199 210
f 196 207 208
f 194 193 204
f 201 200 211
f 207 218 219
f 205 204 215
f 212 211 222
f 208 219 220
f 205 216 217
f 212 223 224
f 209 220 221
f 206 217 218
f 214 213 224
f 211 210 221
f 220 231 232
f 217 228 229
f 225 224 235
f 221 232 233
f 218 229 230
f 215 226 227
f 222 233 234
f 219 230 231
f 217 216 227
f 223 234 235
f 231 230 241
f 228 227 238
f 234 245 246
f 231 242 243
f 228 239 240
f 236 235 246
f 232 243 244
f 229 240 241
f 226 237 238
f 234 233 244
f 243 254 255
f 241 240 251
f 237 248 249
f 245 244 255
f 242 241 252
f 239 238 249
f 246 245 256
f 242 253 254
f 239 250 251
f 246 257 258
f 253 263 264
f 250 260 261
f 257 4 266
f 254 264 265
f 252 251 261
f 248 259 2
f 255 265 3
f 253 252 262
f 250 249 2
f 256 3 4
