# eclipse_carrier Planet2_OrbitLine.obj: Roblox cue frame, recentred on its bounding box
v -0.34263 0.01170 -0.00803
v -0.35439 0.00596 -0.00307
v -0.35375 -0.00552 0.00492
v -0.34135 -0.01126 0.00794
v -0.32958 -0.00552 0.00298
v -0.33022 0.00596 -0.00500
v -0.33969 0.03733 0.02857
v -0.35139 0.03203 0.03416
v -0.35075 0.02053 0.04211
v -0.33843 0.01433 0.04448
v -0.32674 0.01962 0.03889
v -0.32737 0.03113 0.03093
v -0.33095 0.06255 0.06458
v -0.34234 0.05812 0.07140
v -0.34173 0.04657 0.07929
v -0.32972 0.03945 0.08035
v -0.31833 0.04387 0.07353
v -0.31894 0.05542 0.06564
v -0.31653 0.08689 0.09934
v -0.32743 0.08330 0.10736
v -0.32685 0.07171 0.11519
v -0.31537 0.06370 0.11499
v -0.30447 0.06728 0.10697
v -0.30505 0.07888 0.09914
v -0.29671 0.10994 0.13226
v -0.30693 0.10716 0.14142
v -0.30639 0.09552 0.14919
v -0.29563 0.08667 0.14780
v -0.28541 0.08946 0.13864
v -0.28595 0.10109 0.13088
v -0.27180 0.13131 0.16279
v -0.28117 0.12927 0.17299
v -0.28068 0.11760 0.18070
v -0.27082 0.10797 0.17821
v -0.26146 0.11001 0.16801
v -0.26195 0.12169 0.16030
v -0.24225 0.15064 0.19038
v -0.25060 0.14926 0.20154
v -0.25017 0.13756 0.20921
v -0.24138 0.12723 0.20572
v -0.23304 0.12860 0.19457
v -0.23347 0.14031 0.18690
v -0.20855 0.16758 0.21459
v -0.21574 0.16680 0.22657
v -0.21537 0.15507 0.23420
v -0.20781 0.14412 0.22984
v -0.20062 0.14490 0.21785
v -0.20099 0.15664 0.21023
v -0.17129 0.18186 0.23498
v -0.17719 0.18158 0.24767
v -0.17689 0.16982 0.25526
v -0.17069 0.15835 0.25017
v -0.16478 0.15864 0.23748
v -0.16508 0.17040 0.22988
v -0.13109 0.19323 0.25121
v -0.13561 0.19334 0.26446
v -0.13539 0.18156 0.27203
v -0.13064 0.16968 0.26635
v -0.12611 0.16957 0.25310
v -0.12634 0.18135 0.24553
v -0.08866 0.20149 0.26301
v -0.09171 0.20189 0.27666
v -0.09156 0.19010 0.28422
v -0.08835 0.17792 0.27811
v -0.08529 0.17752 0.26446
v -0.08544 0.18931 0.25690
v -0.04470 0.20650 0.27016
v -0.04625 0.20708 0.28407
v -0.04617 0.19529 0.29161
v -0.04455 0.18292 0.28526
v -0.04301 0.18234 0.27135
v -0.04308 0.19413 0.26381
v 0.00001 0.20818 0.27256
v 0.00001 0.20882 0.28654
v 0.00001 0.19703 0.29409
v 0.00001 0.18460 0.28765
v 0.00001 0.18396 0.27367
v 0.00001 0.19575 0.26612
v 0.04473 0.20650 0.27015
v 0.04627 0.20708 0.28406
v 0.04620 0.19530 0.29161
v 0.04458 0.18292 0.28526
v 0.04303 0.18234 0.27136
v 0.04311 0.19412 0.26381
v 0.08868 0.20148 0.26299
v 0.09174 0.20190 0.27664
v 0.09159 0.19012 0.28421
v 0.08838 0.17793 0.27813
v 0.08532 0.17751 0.26448
v 0.08547 0.18929 0.25691
v 0.13111 0.19321 0.25119
v 0.13564 0.19335 0.26443
v 0.13542 0.18159 0.27203
v 0.13067 0.16970 0.26638
v 0.12615 0.16956 0.25313
v 0.12636 0.18132 0.24553
v 0.17129 0.18185 0.23495
v 0.17721 0.18160 0.24763
v 0.17693 0.16986 0.25526
v 0.17073 0.15837 0.25020
v 0.16482 0.15862 0.23751
v 0.16510 0.17036 0.22989
v 0.20855 0.16756 0.21455
v 0.21575 0.16683 0.22653
v 0.21542 0.15511 0.23419
v 0.20787 0.14414 0.22988
v 0.20067 0.14488 0.21790
v 0.20100 0.15659 0.21023
v 0.24223 0.15062 0.19035
v 0.25061 0.14930 0.20149
v 0.25022 0.13761 0.20920
v 0.24145 0.12725 0.20576
v 0.23308 0.12857 0.19461
v 0.23347 0.14025 0.18691
v 0.27178 0.13129 0.16275
v 0.28117 0.12931 0.17294
v 0.28073 0.11766 0.18069
v 0.27091 0.10799 0.17825
v 0.26151 0.10997 0.16806
v 0.26195 0.12162 0.16031
v 0.29666 0.10992 0.13223
v 0.30692 0.10720 0.14136
v 0.30645 0.09559 0.14916
v 0.29572 0.08669 0.14783
v 0.28547 0.08941 0.13870
v 0.28594 0.10102 0.13090
v 0.31648 0.08687 0.09931
v 0.32742 0.08336 0.10730
v 0.32692 0.07178 0.11516
v 0.31548 0.06372 0.11502
v 0.30454 0.06723 0.10703
v 0.30504 0.07880 0.09917
v 0.33088 0.06253 0.06455
v 0.34232 0.05818 0.07134
v 0.34181 0.04665 0.07925
v 0.32984 0.03946 0.08038
v 0.31840 0.04381 0.07359
v 0.31892 0.05535 0.06567
v 0.33961 0.03733 0.02856
v 0.35136 0.03211 0.03410
v 0.35084 0.02061 0.04207
v 0.33856 0.01433 0.04449
v 0.32681 0.01955 0.03895
v 0.32734 0.03105 0.03098
v 0.34254 0.01168 -0.00807
v 0.35439 0.00558 -0.00380
v 0.35387 -0.00588 0.00423
v 0.34149 -0.01124 0.00798
v 0.32964 -0.00513 0.00371
v 0.33016 0.00633 -0.00432
v 0.33960 -0.01396 -0.04469
v 0.35136 -0.02095 -0.04169
v 0.35084 -0.03237 -0.03361
v 0.33857 -0.03680 -0.02853
v 0.32682 -0.02981 -0.03153
v 0.32733 -0.01839 -0.03961
v 0.33086 -0.03916 -0.08069
v 0.34231 -0.04702 -0.07893
v 0.34181 -0.05840 -0.07080
v 0.32986 -0.06193 -0.06442
v 0.31841 -0.05407 -0.06617
v 0.31891 -0.04269 -0.07431
v 0.31645 -0.06350 -0.11544
v 0.32741 -0.07219 -0.11489
v 0.32694 -0.08354 -0.10670
v 0.31551 -0.08619 -0.09907
v 0.30455 -0.07750 -0.09962
v 0.30502 -0.06615 -0.10780
v 0.29663 -0.08654 -0.14835
v 0.30691 -0.09603 -0.14895
v 0.30647 -0.10735 -0.14071
v 0.29576 -0.10917 -0.13189
v 0.28548 -0.09968 -0.13129
v 0.28592 -0.08836 -0.13952
v 0.27174 -0.10791 -0.17886
v 0.28115 -0.11814 -0.18052
v 0.28075 -0.12942 -0.17224
v 0.27094 -0.13048 -0.16231
v 0.26153 -0.12025 -0.16066
v 0.26193 -0.10896 -0.16893
v 0.24220 -0.12722 -0.20645
v 0.25059 -0.13812 -0.20907
v 0.25024 -0.14938 -0.20075
v 0.24149 -0.14974 -0.18983
v 0.23310 -0.13885 -0.18721
v 0.23345 -0.12759 -0.19553
v 0.20851 -0.14417 -0.23065
v 0.21574 -0.15565 -0.23410
v 0.21544 -0.16688 -0.22576
v 0.20791 -0.16664 -0.21396
v 0.20068 -0.15516 -0.21050
v 0.20098 -0.14392 -0.21885
v 0.17126 -0.15844 -0.25103
v 0.17719 -0.17041 -0.25520
v 0.17695 -0.18163 -0.24683
v 0.17077 -0.18088 -0.23429
v 0.16483 -0.16890 -0.23012
v 0.16508 -0.15768 -0.23849
v 0.13108 -0.16980 -0.26726
v 0.13562 -0.18217 -0.27199
v 0.13544 -0.19337 -0.26360
v 0.13071 -0.19221 -0.25048
v 0.12616 -0.17984 -0.24574
v 0.12635 -0.16864 -0.25414
v 0.08865 -0.17806 -0.27905
v 0.09173 -0.19071 -0.28420
v 0.09160 -0.20191 -0.27579
v 0.08841 -0.20045 -0.26224
v 0.08533 -0.18780 -0.25710
v 0.08546 -0.17660 -0.26550
v 0.04472 -0.18307 -0.28621
v 0.04627 -0.19589 -0.29161
v 0.04620 -0.20708 -0.28319
v 0.04459 -0.20545 -0.26938
v 0.04304 -0.19263 -0.26399
v 0.04310 -0.18144 -0.27240
v 0.00001 -0.18475 -0.28861
v 0.00001 -0.19763 -0.29409
v 0.00001 -0.20882 -0.28568
v 0.00001 -0.20713 -0.27178
v 0.00001 -0.19425 -0.26630
v 0.00001 -0.18306 -0.27471
v -0.04469 -0.18307 -0.28620
v -0.04624 -0.19589 -0.29161
v -0.04618 -0.20708 -0.28320
v -0.04457 -0.20546 -0.26939
v -0.04301 -0.19263 -0.26399
v -0.04308 -0.18144 -0.27239
v -0.08862 -0.17805 -0.27904
v -0.09170 -0.19070 -0.28420
v -0.09158 -0.20190 -0.27581
v -0.08838 -0.20046 -0.26225
v -0.08531 -0.18781 -0.25709
v -0.08543 -0.17661 -0.26549
v -0.13104 -0.16979 -0.26724
v -0.13559 -0.18215 -0.27200
v -0.13541 -0.19336 -0.26362
v -0.13069 -0.19222 -0.25049
v -0.12614 -0.17987 -0.24574
v -0.12631 -0.16865 -0.25411
v -0.17122 -0.15842 -0.25101
v -0.17716 -0.17038 -0.25521
v -0.17693 -0.18162 -0.24686
v -0.17076 -0.18089 -0.23431
v -0.16481 -0.16893 -0.23012
v -0.16504 -0.15770 -0.23847
v -0.20846 -0.14415 -0.23062
v -0.21570 -0.15561 -0.23411
v -0.21542 -0.16687 -0.22579
v -0.20791 -0.16666 -0.21398
v -0.20067 -0.15519 -0.21049
v -0.20094 -0.14394 -0.21881
v -0.24213 -0.12720 -0.20643
v -0.25054 -0.13808 -0.20908
v -0.25023 -0.14936 -0.20079
v -0.24150 -0.14976 -0.18985
v -0.23309 -0.13889 -0.18720
v -0.23341 -0.12761 -0.19549
v -0.27167 -0.10789 -0.17884
v -0.28110 -0.11809 -0.18053
v -0.28075 -0.12939 -0.17229
v -0.27096 -0.13050 -0.16234
v -0.26152 -0.12030 -0.16064
v -0.26188 -0.10899 -0.16889
v -0.29655 -0.08652 -0.14833
v -0.30685 -0.09598 -0.14897
v -0.30647 -0.10731 -0.14076
v -0.29578 -0.10919 -0.13191
v -0.28548 -0.09974 -0.13127
v -0.28586 -0.08840 -0.13948
v -0.31636 -0.06348 -0.11542
v -0.32735 -0.07213 -0.11492
v -0.32695 -0.08350 -0.10675
v -0.31555 -0.08621 -0.09909
v -0.30455 -0.07756 -0.09959
v -0.30496 -0.06619 -0.10775
v -0.33075 -0.03915 -0.08067
v -0.34225 -0.04695 -0.07896
v -0.34183 -0.05835 -0.07085
v -0.32991 -0.06194 -0.06443
v -0.31842 -0.05414 -0.06614
v -0.31884 -0.04274 -0.07426
v -0.33949 -0.01395 -0.04468
v -0.35129 -0.02088 -0.04173
v -0.35086 -0.03231 -0.03366
v -0.33863 -0.03681 -0.02854
v -0.32683 -0.02988 -0.03149
v -0.32726 -0.01845 -0.03957
v -0.34242 0.01167 -0.00809
v -0.35429 0.00519 -0.00450
v -0.35386 -0.00626 0.00354
v -0.34156 -0.01122 0.00801
v -0.32968 -0.00474 0.00442
v -0.33011 0.00671 -0.00363
f 2 7 1
f 2 9 8
f 3 10 9
f 4 11 10
f 6 11 5
f 1 12 6
f 7 14 13
f 8 15 14
f 9 16 15
f 10 17 16
f 11 18 17
f 12 13 18
f 13 20 19
f 14 21 20
f 15 22 21
f 16 23 22
f 17 24 23
f 18 19 24
f 19 26 25
f 20 27 26
f 21 28 27
f 22 29 28
f 23 30 29
f 24 25 30
f 25 32 31
f 26 33 32
f 27 34 33
f 28 35 34
f 29 36 35
f 30 31 36
f 31 38 37
f 32 39 38
f 33 40 39
f 34 41 40
f 35 42 41
f 36 37 42
f 37 44 43
f 38 45 44
f 39 46 45
f 40 47 46
f 41 48 47
f 42 43 48
f 43 50 49
f 44 51 50
f 45 52 51
f 46 53 52
f 47 54 53
f 48 49 54
f 49 56 55
f 50 57 56
f 51 58 57
f 52 59 58
f 53 60 59
f 54 55 60
f 55 62 61
f 56 63 62
f 57 64 63
f 58 65 64
f 59 66 65
f 60 61 66
f 61 68 67
f 62 69 68
f 63 70 69
f 64 71 70
f 65 72 71
f 66 67 72
f 67 74 73
f 68 75 74
f 69 76 75
f 70 77 76
f 71 78 77
f 72 73 78
f 73 80 79
f 74 81 80
f 75 82 81
f 76 83 82
f 77 84 83
f 78 79 84
f 79 86 85
f 80 87 86
f 81 88 87
f 82 89 88
f 83 90 89
f 84 85 90
f 85 92 91
f 86 93 92
f 87 94 93
f 88 95 94
f 89 96 95
f 90 91 96
f 91 98 97
f 92 99 98
f 93 100 99
f 94 101 100
f 95 102 101
f 96 97 102
f 97 104 103
f 98 105 104
f 99 106 105
f 100 107 106
f 101 108 107
f 102 103 108
f 103 110 109
f 104 111 110
f 105 112 111
f 106 113 112
f 107 114 113
f 108 109 114
f 109 116 115
f 110 117 116
f 111 118 117
f 112 119 118
f 113 120 119
f 114 115 120
f 115 122 121
f 116 123 122
f 117 124 123
f 118 125 124
f 119 126 125
f 120 121 126
f 121 128 127
f 122 129 128
f 123 130 129
f 124 131 130
f 125 132 131
f 126 127 132
f 127 134 133
f 128 135 134
f 129 136 135
f 130 137 136
f 131 138 137
f 132 133 138
f 133 140 139
f 134 141 140
f 135 142 141
f 136 143 142
f 137 144 143
f 138 139 144
f 139 146 145
f 140 147 146
f 141 148 147
f 142 149 148
f 143 150 149
f 144 145 150
f 145 152 151
f 146 153 152
f 147 154 153
f 148 155 154
f 149 156 155
f 150 151 156
f 151 158 157
f 152 159 158
f 153 160 159
f 154 161 160
f 155 162 161
f 156 157 162
f 157 164 163
f 158 165 164
f 159 166 165
f 160 167 166
f 161 168 167
f 162 163 168
f 163 170 169
f 164 171 170
f 165 172 171
f 166 173 172
f 167 174 173
f 168 169 174
f 169 176 175
f 170 177 176
f 171 178 177
f 172 179 178
f 173 180 179
f 174 175 180
f 175 182 181
f 176 183 182
f 177 184 183
f 178 185 184
f 179 186 185
f 180 181 186
f 181 188 187
f 182 189 188
f 183 190 189
f 184 191 190
f 185 192 191
f 186 187 192
f 187 194 193
f 188 195 194
f 189 196 195
f 190 197 196
f 191 198 197
f 192 193 198
f 193 200 199
f 194 201 200
f 195 202 201
f 196 203 202
f 197 204 203
f 198 199 204
f 199 206 205
f 200 207 206
f 201 208 207
f 202 209 208
f 203 210 209
f 204 205 210
f 205 212 211
f 206 213 212
f 207 214 213
f 208 215 214
f 209 216 215
f 210 211 216
f 211 218 217
f 212 219 218
f 213 220 219
f 214 221 220
f 215 222 221
f 216 217 222
f 217 224 223
f 218 225 224
f 219 226 225
f 220 227 226
f 221 228 227
f 222 223 228
f 223 230 229
f 224 231 230
f 225 232 231
f 226 233 232
f 227 234 233
f 228 229 234
f 229 236 235
f 230 237 236
f 231 238 237
f 232 239 238
f 233 240 239
f 234 235 240
f 235 242 241
f 236 243 242
f 237 244 243
f 238 245 244
f 239 246 245
f 240 241 246
f 241 248 247
f 242 249 248
f 243 250 249
f 244 251 250
f 245 252 251
f 246 247 252
f 247 254 253
f 248 255 254
f 249 256 255
f 250 257 256
f 251 258 257
f 252 253 258
f 253 260 259
f 254 261 260
f 255 262 261
f 256 263 262
f 257 264 263
f 258 259 264
f 259 266 265
f 260 267 266
f 261 268 267
f 262 269 268
f 263 270 269
f 264 265 270
f 265 272 271
f 266 273 272
f 267 274 273
f 268 275 274
f 269 276 275
f 270 271 276
f 271 278 277
f 272 279 278
f 273 280 279
f 274 281 280
f 275 282 281
f 276 277 282
f 277 284 283
f 278 285 284
f 279 286 285
f 280 287 286
f 281 288 287
f 282 283 288
f 283 290 289
f 285 290 284
f 286 291 285
f 287 292 286
f 287 294 293
f 288 289 294
f 2 8 7
f 2 3 9
f 3 4 10
f 4 5 11
f 6 12 11
f 1 7 12
f 7 8 14
f 8 9 15
f 9 10 16
f 10 11 17
f 11 12 18
f 12 7 13
f 13 14 20
f 14 15 21
f 15 16 22
f 16 17 23
f 17 18 24
f 18 13 19
f 19 20 26
f 20 21 27
f 21 22 28
f 22 23 29
f 23 24 30
f 24 19 25
f 25 26 32
f 26 27 33
f 27 28 34
f 28 29 35
f 29 30 36
f 30 25 31
f 31 32 38
f 32 33 39
f 33 34 40
f 34 35 41
f 35 36 42
f 36 31 37
f 37 38 44
f 38 39 45
f 39 40 46
f 40 41 47
f 41 42 48
f 42 37 43
f 43 44 50
f 44 45 51
f 45 46 52
f 46 47 53
f 47 48 54
f 48 43 49
f 49 50 56
f 50 51 57
f 51 52 58
f 52 53 59
f 53 54 60
f 54 49 55
f 55 56 62
f 56 57 63
f 57 58 64
f 58 59 65
f 59 60 66
f 60 55 61
f 61 62 68
f 62 63 69
f 63 64 70
f 64 65 71
f 65 66 72
f 66 61 67
f 67 68 74
f 68 69 75
f 69 70 76
f 70 71 77
f 71 72 78
f 72 67 73
f 73 74 80
f 74 75 81
f 75 76 82
f 76 77 83
f 77 78 84
f 78 73 79
f 79 80 86
f 80 81 87
f 81 82 88
f 82 83 89
f 83 84 90
f 84 79 85
f 85 86 92
f 86 87 93
f 87 88 94
f 88 89 95
f 89 90 96
f 90 85 91
f 91 92 98
f 92 93 99
f 93 94 100
f 94 95 101
f 95 96 102
f 96 91 97
f 97 98 104
f 98 99 105
f 99 100 106
f 100 101 107
f 101 102 108
f 102 97 103
f 103 104 110
f 104 105 111
f 105 106 112
f 106 107 113
f 107 108 114
f 108 103 109
f 109 110 116
f 110 111 117
f 111 112 118
f 112 113 119
f 113 114 120
f 114 109 115
f 115 116 122
f 116 117 123
f 117 118 124
f 118 119 125
f 119 120 126
f 120 115 121
f 121 122 128
f 122 123 129
f 123 124 130
f 124 125 131
f 125 126 132
f 126 121 127
f 127 128 134
f 128 129 135
f 129 130 136
f 130 131 137
f 131 132 138
f 132 127 133
f 133 134 140
f 134 135 141
f 135 136 142
f 136 137 143
f 137 138 144
f 138 133 139
f 139 140 146
f 140 141 147
f 141 142 148
f 142 143 149
f 143 144 150
f 144 139 145
f 145 146 152
f 146 147 153
f 147 148 154
f 148 149 155
f 149 150 156
f 150 145 151
f 151 152 158
f 152 153 159
f 153 154 160
f 154 155 161
f 155 156 162
f 156 151 157
f 157 158 164
f 158 159 165
f 159 160 166
f 160 161 167
f 161 162 168
f 162 157 163
f 163 164 170
f 164 165 171
f 165 166 172
f 166 167 173
f 167 168 174
f 168 163 169
f 169 170 176
f 170 171 177
f 171 172 178
f 172 173 179
f 173 174 180
f 174 169 175
f 175 176 182
f 176 177 183
f 177 178 184
f 178 179 185
f 179 180 186
f 180 175 181
f 181 182 188
f 182 183 189
f 183 184 190
f 184 185 191
f 185 186 192
f 186 181 187
f 187 188 194
f 188 189 195
f 189 190 196
f 190 191 197
f 191 192 198
f 192 187 193
f 193 194 200
f 194 195 201
f 195 196 202
f 196 197 203
f 197 198 204
f 198 193 199
f 199 200 206
f 200 201 207
f 201 202 208
f 202 203 209
f 203 204 210
f 204 199 205
f 205 206 212
f 206 207 213
f 207 208 214
f 208 209 215
f 209 210 216
f 210 205 211
f 211 212 218
f 212 213 219
f 213 214 220
f 214 215 221
f 215 216 222
f 216 211 217
f 217 218 224
f 218 219 225
f 219 220 226
f 220 221 227
f 221 222 228
f 222 217 223
f 223 224 230
f 224 225 231
f 225 226 232
f 226 227 233
f 227 228 234
f 228 223 229
f 229 230 236
f 230 231 237
f 231 232 238
f 232 233 239
f 233 234 240
f 234 229 235
f 235 236 242
f 236 237 243
f 237 238 244
f 238 239 245
f 239 240 246
f 240 235 241
f 241 242 248
f 242 243 249
f 243 244 250
f 244 245 251
f 245 246 252
f 246 241 247
f 247 248 254
f 248 249 255
f 249 250 256
f 250 251 257
f 251 252 258
f 252 247 253
f 253 254 260
f 254 255 261
f 255 256 262
f 256 257 263
f 257 258 264
f 258 253 259
f 259 260 266
f 260 261 267
f 261 262 268
f 262 263 269
f 263 264 270
f 264 259 265
f 265 266 272
f 266 267 273
f 267 268 274
f 268 269 275
f 269 270 276
f 270 265 271
f 271 272 278
f 272 273 279
f 273 274 280
f 274 275 281
f 275 276 282
f 276 271 277
f 277 278 284
f 278 279 285
f 279 280 286
f 280 281 287
f 281 282 288
f 282 277 283
f 283 284 290
f 285 291 290
f 286 292 291
f 287 293 292
f 287 288 294
f 288 283 289
