# eclipse_carrier Sun_Void.obj: Roblox cue frame, recentred on its bounding box
v -0.00000 0.80000 0.00000
v -0.00000 0.79316 0.10442
v -0.00000 0.77274 0.20706
v -0.00000 0.73910 0.30615
v -0.00000 0.63468 0.48701
v -0.00000 0.48701 0.63468
v -0.00000 0.30615 0.73910
v -0.00000 0.10442 0.79316
v -0.00000 -0.00000 0.80000
v -0.00000 -0.10442 0.79316
v -0.00000 -0.20706 0.77274
v -0.00000 -0.40000 0.69282
v -0.00000 -0.56569 0.56569
v -0.00000 -0.63468 0.48701
v -0.00000 -0.69282 0.40000
v -0.00000 -0.73910 0.30615
v -0.00000 -0.79316 0.10442
v -0.00000 -0.80000 0.00000
v -0.01363 0.79316 0.10353
v -0.02703 0.77274 0.20528
v -0.03996 0.73910 0.30353
v -0.05221 0.69282 0.39658
v -0.06357 0.63468 0.48284
v -0.07384 0.56569 0.56085
v -0.08284 0.48701 0.62925
v -0.09043 0.40000 0.68689
v -0.09647 0.30615 0.73278
v -0.10086 0.20706 0.76613
v -0.10353 0.10442 0.78637
v -0.10442 -0.00000 0.79316
v -0.10353 -0.10442 0.78637
v -0.10086 -0.20706 0.76613
v -0.09647 -0.30615 0.73278
v -0.09043 -0.40000 0.68689
v -0.08284 -0.48701 0.62925
v -0.07384 -0.56569 0.56085
v -0.06357 -0.63468 0.48284
v -0.05221 -0.69282 0.39658
v -0.03996 -0.73910 0.30353
v -0.02703 -0.77274 0.20528
v -0.01363 -0.79316 0.10353
v -0.02703 0.79316 0.10086
v -0.05359 0.77274 0.20000
v -0.07924 0.73910 0.29572
v -0.10353 0.69282 0.38637
v -0.12605 0.63468 0.47042
v -0.14641 0.56569 0.54641
v -0.16427 0.48701 0.61306
v -0.17932 0.40000 0.66921
v -0.19129 0.30615 0.71392
v -0.20000 0.20706 0.74641
v -0.20528 0.10442 0.76613
v -0.20706 -0.00000 0.77274
v -0.20528 -0.10442 0.76613
v -0.20000 -0.20706 0.74641
v -0.19129 -0.30615 0.71392
v -0.17932 -0.40000 0.66921
v -0.16427 -0.48701 0.61306
v -0.14641 -0.56569 0.54641
v -0.12605 -0.63468 0.47042
v -0.10353 -0.69282 0.38637
v -0.07924 -0.73910 0.29572
v -0.05359 -0.77274 0.20000
v -0.02703 -0.79316 0.10086
v -0.03996 0.79316 0.09647
v -0.07924 0.77274 0.19129
v -0.11716 0.73910 0.28284
v -0.15307 0.69282 0.36955
v -0.18637 0.63468 0.44994
v -0.21648 0.56569 0.52263
v -0.24288 0.48701 0.58637
v -0.26513 0.40000 0.64008
v -0.28284 0.30615 0.68284
v -0.29572 0.20706 0.71392
v -0.30353 0.10442 0.73278
v -0.30615 -0.00000 0.73910
v -0.30353 -0.10442 0.73278
v -0.29572 -0.20706 0.71392
v -0.28284 -0.30615 0.68284
v -0.26513 -0.40000 0.64008
v -0.24288 -0.48701 0.58637
v -0.21648 -0.56569 0.52263
v -0.18637 -0.63468 0.44994
v -0.15307 -0.69282 0.36955
v -0.11716 -0.73910 0.28284
v -0.07924 -0.77274 0.19129
v -0.03996 -0.79316 0.09647
v -0.05221 0.79316 0.09043
v -0.10353 0.77274 0.17932
v -0.15307 0.73910 0.26513
v -0.20000 0.69282 0.34641
v -0.24350 0.63468 0.42176
v -0.28284 0.56569 0.48990
v -0.31734 0.48701 0.54965
v -0.34641 0.40000 0.60000
v -0.36955 0.30615 0.64008
v -0.38637 0.20706 0.66921
v -0.39658 0.10442 0.68689
v -0.40000 -0.00000 0.69282
v -0.39658 -0.10442 0.68689
v -0.38637 -0.20706 0.66921
v -0.36955 -0.30615 0.64008
v -0.34641 -0.40000 0.60000
v -0.31734 -0.48701 0.54965
v -0.28284 -0.56569 0.48990
v -0.24350 -0.63468 0.42176
v -0.20000 -0.69282 0.34641
v -0.15307 -0.73910 0.26513
v -0.10353 -0.77274 0.17932
v -0.05221 -0.79316 0.09043
v -0.06357 0.79316 0.08284
v -0.12605 0.77274 0.16427
v -0.18637 0.73910 0.24288
v -0.24350 0.69282 0.31734
v -0.29647 0.63468 0.38637
v -0.34437 0.56569 0.44879
v -0.38637 0.48701 0.50353
v -0.42176 0.40000 0.54965
v -0.44994 0.30615 0.58637
v -0.47042 0.20706 0.61306
v -0.48284 0.10442 0.62925
v -0.48701 -0.00000 0.63468
v -0.48284 -0.10442 0.62925
v -0.47042 -0.20706 0.61306
v -0.44994 -0.30615 0.58637
v -0.42176 -0.40000 0.54965
v -0.38637 -0.48701 0.50353
v -0.34437 -0.56569 0.44879
v -0.29647 -0.63468 0.38637
v -0.24350 -0.69282 0.31734
v -0.18637 -0.73910 0.24288
v -0.12605 -0.77274 0.16427
v -0.06357 -0.79316 0.08284
v -0.07384 0.79316 0.07384
v -0.14641 0.77274 0.14641
v -0.21648 0.73910 0.21648
v -0.28284 0.69282 0.28284
v -0.34437 0.63468 0.34437
v -0.40000 0.56569 0.40000
v -0.44879 0.48701 0.44879
v -0.48990 0.40000 0.48990
v -0.52263 0.30615 0.52263
v -0.54641 0.20706 0.54641
v -0.56085 0.10442 0.56085
v -0.56569 -0.00000 0.56569
v -0.56085 -0.10442 0.56085
v -0.54641 -0.20706 0.54641
v -0.52263 -0.30615 0.52263
v -0.48990 -0.40000 0.48990
v -0.44879 -0.48701 0.44879
v -0.40000 -0.56569 0.40000
v -0.34437 -0.63468 0.34437
v -0.28284 -0.69282 0.28284
v -0.21648 -0.73910 0.21648
v -0.14641 -0.77274 0.14641
v -0.07384 -0.79316 0.07384
v -0.08284 0.79316 0.06357
v -0.16427 0.77274 0.12605
v -0.24288 0.73910 0.18637
v -0.31734 0.69282 0.24350
v -0.38637 0.63468 0.29647
v -0.44879 0.56569 0.34437
v -0.50353 0.48701 0.38637
v -0.54965 0.40000 0.42176
v -0.58637 0.30615 0.44994
v -0.61306 0.20706 0.47042
v -0.62925 0.10442 0.48284
v -0.63468 -0.00000 0.48701
v -0.62925 -0.10442 0.48284
v -0.61306 -0.20706 0.47042
v -0.58637 -0.30615 0.44994
v -0.54965 -0.40000 0.42176
v -0.50353 -0.48701 0.38637
v -0.44879 -0.56569 0.34437
v -0.38637 -0.63468 0.29647
v -0.31734 -0.69282 0.24350
v -0.24288 -0.73910 0.18637
v -0.16427 -0.77274 0.12605
v -0.08284 -0.79316 0.06357
v -0.09043 0.79316 0.05221
v -0.17932 0.77274 0.10353
v -0.26513 0.73910 0.15307
v -0.34641 0.69282 0.20000
v -0.42176 0.63468 0.24350
v -0.48990 0.56569 0.28284
v -0.54965 0.48701 0.31734
v -0.60000 0.40000 0.34641
v -0.64008 0.30615 0.36955
v -0.66921 0.20706 0.38637
v -0.68689 0.10442 0.39658
v -0.69282 -0.00000 0.40000
v -0.68689 -0.10442 0.39658
v -0.66921 -0.20706 0.38637
v -0.64008 -0.30615 0.36955
v -0.60000 -0.40000 0.34641
v -0.54965 -0.48701 0.31734
v -0.48990 -0.56569 0.28284
v -0.42176 -0.63468 0.24350
v -0.34641 -0.69282 0.20000
v -0.26513 -0.73910 0.15307
v -0.17932 -0.77274 0.10353
v -0.09043 -0.79316 0.05221
v -0.09647 0.79316 0.03996
v -0.19129 0.77274 0.07924
v -0.28284 0.73910 0.11716
v -0.36955 0.69282 0.15307
v -0.44994 0.63468 0.18637
v -0.52263 0.56569 0.21648
v -0.58637 0.48701 0.24288
v -0.64008 0.40000 0.26513
v -0.68284 0.30615 0.28284
v -0.71392 0.20706 0.29572
v -0.73278 0.10442 0.30353
v -0.73910 -0.00000 0.30615
v -0.73278 -0.10442 0.30353
v -0.71392 -0.20706 0.29572
v -0.68284 -0.30615 0.28284
v -0.64008 -0.40000 0.26513
v -0.58637 -0.48701 0.24288
v -0.52263 -0.56569 0.21648
v -0.44994 -0.63468 0.18637
v -0.36955 -0.69282 0.15307
v -0.28284 -0.73910 0.11716
v -0.19129 -0.77274 0.07924
v -0.09647 -0.79316 0.03996
v -0.10086 0.79316 0.02703
v -0.20000 0.77274 0.05359
v -0.29572 0.73910 0.07924
v -0.38637 0.69282 0.10353
v -0.47042 0.63468 0.12605
v -0.54641 0.56569 0.14641
v -0.61306 0.48701 0.16427
v -0.66921 0.40000 0.17932
v -0.71392 0.30615 0.19129
v -0.74641 0.20706 0.20000
v -0.76613 0.10442 0.20528
v -0.77274 -0.00000 0.20706
v -0.76613 -0.10442 0.20528
v -0.74641 -0.20706 0.20000
v -0.71392 -0.30615 0.19129
v -0.66921 -0.40000 0.17932
v -0.61306 -0.48701 0.16427
v -0.54641 -0.56569 0.14641
v -0.47042 -0.63468 0.12605
v -0.38637 -0.69282 0.10353
v -0.29572 -0.73910 0.07924
v -0.20000 -0.77274 0.05359
v -0.10086 -0.79316 0.02703
v -0.10353 0.79316 0.01363
v -0.20528 0.77274 0.02703
v -0.30353 0.73910 0.03996
v -0.39658 0.69282 0.05221
v -0.48284 0.63468 0.06357
v -0.56085 0.56569 0.07384
v -0.62925 0.48701 0.08284
v -0.68689 0.40000 0.09043
v -0.73278 0.30615 0.09647
v -0.76613 0.20706 0.10086
v -0.78637 0.10442 0.10353
v -0.79316 -0.00000 0.10442
v -0.78637 -0.10442 0.10353
v -0.76613 -0.20706 0.10086
v -0.73278 -0.30615 0.09647
v -0.68689 -0.40000 0.09043
v -0.62925 -0.48701 0.08284
v -0.56085 -0.56569 0.07384
v -0.48284 -0.63468 0.06357
v -0.39658 -0.69282 0.05221
v -0.30353 -0.73910 0.03996
v -0.20528 -0.77274 0.02703
v -0.10353 -0.79316 0.01363
v -0.10442 0.79316 0.00000
v -0.20706 0.77274 0.00000
v -0.30615 0.73910 0.00000
v -0.40000 0.69282 0.00000
v -0.48701 0.63468 0.00000
v -0.56569 0.56569 0.00000
v -0.63468 0.48701 0.00000
v -0.69282 0.40000 0.00000
v -0.73910 0.30615 0.00000
v -0.77274 0.20706 0.00000
v -0.79316 0.10442 0.00000
v -0.80000 -0.00000 0.00000
v -0.79316 -0.10442 0.00000
v -0.77274 -0.20706 0.00000
v -0.73910 -0.30615 0.00000
v -0.69282 -0.40000 0.00000
v -0.63468 -0.48701 0.00000
v -0.56569 -0.56569 0.00000
v -0.48701 -0.63468 0.00000
v -0.40000 -0.69282 0.00000
v -0.30615 -0.73910 0.00000
v -0.20706 -0.77274 0.00000
v -0.10442 -0.79316 0.00000
v -0.10353 0.79316 -0.01363
v -0.20528 0.77274 -0.02703
v -0.30353 0.73910 -0.03996
v -0.39658 0.69282 -0.05221
v -0.48284 0.63468 -0.06357
v -0.56085 0.56569 -0.07384
v -0.62925 0.48701 -0.08284
v -0.68689 0.40000 -0.09043
v -0.73278 0.30615 -0.09647
v -0.76613 0.20706 -0.10086
v -0.78637 0.10442 -0.10353
v -0.79316 -0.00000 -0.10442
v -0.78637 -0.10442 -0.10353
v -0.76613 -0.20706 -0.10086
v -0.73278 -0.30615 -0.09647
v -0.68689 -0.40000 -0.09043
v -0.62925 -0.48701 -0.08284
v -0.56085 -0.56569 -0.07384
v -0.48284 -0.63468 -0.06357
v -0.39658 -0.69282 -0.05221
v -0.30353 -0.73910 -0.03996
v -0.20528 -0.77274 -0.02703
v -0.10353 -0.79316 -0.01363
v -0.10086 0.79316 -0.02703
v -0.20000 0.77274 -0.05359
v -0.29572 0.73910 -0.07924
v -0.38637 0.69282 -0.10353
v -0.47042 0.63468 -0.12605
v -0.54641 0.56569 -0.14641
v -0.61306 0.48701 -0.16427
v -0.66921 0.40000 -0.17931
v -0.71392 0.30615 -0.19129
v -0.74641 0.20706 -0.20000
v -0.76613 0.10442 -0.20528
v -0.77274 -0.00000 -0.20706
v -0.76613 -0.10442 -0.20528
v -0.74641 -0.20706 -0.20000
v -0.71392 -0.30615 -0.19129
v -0.66921 -0.40000 -0.17931
v -0.61306 -0.48701 -0.16427
v -0.54641 -0.56569 -0.14641
v -0.47042 -0.63468 -0.12605
v -0.38637 -0.69282 -0.10353
v -0.29572 -0.73910 -0.07924
v -0.20000 -0.77274 -0.05359
v -0.10086 -0.79316 -0.02703
v -0.09647 0.79316 -0.03996
v -0.19129 0.77274 -0.07924
v -0.28284 0.73910 -0.11716
v -0.36955 0.69282 -0.15307
v -0.44994 0.63468 -0.18637
v -0.52263 0.56569 -0.21648
v -0.58637 0.48701 -0.24288
v -0.64008 0.40000 -0.26513
v -0.68284 0.30615 -0.28284
v -0.71392 0.20706 -0.29571
v -0.73278 0.10442 -0.30353
v -0.73910 -0.00000 -0.30615
v -0.73278 -0.10442 -0.30353
v -0.71392 -0.20706 -0.29571
v -0.68284 -0.30615 -0.28284
v -0.64008 -0.40000 -0.26513
v -0.58637 -0.48701 -0.24288
v -0.52263 -0.56569 -0.21648
v -0.44994 -0.63468 -0.18637
v -0.36955 -0.69282 -0.15307
v -0.28284 -0.73910 -0.11716
v -0.19129 -0.77274 -0.07924
v -0.09647 -0.79316 -0.03996
v -0.09043 0.79316 -0.05221
v -0.17932 0.77274 -0.10353
v -0.26513 0.73910 -0.15307
v -0.34641 0.69282 -0.20000
v -0.42176 0.63468 -0.24350
v -0.48990 0.56569 -0.28284
v -0.54965 0.48701 -0.31734
v -0.60000 0.40000 -0.34641
v -0.64008 0.30615 -0.36955
v -0.66921 0.20706 -0.38637
v -0.68689 0.10442 -0.39658
v -0.69282 -0.00000 -0.40000
v -0.68689 -0.10442 -0.39658
v -0.66921 -0.20706 -0.38637
v -0.64008 -0.30615 -0.36955
v -0.60000 -0.40000 -0.34641
v -0.54965 -0.48701 -0.31734
v -0.48990 -0.56569 -0.28284
v -0.42176 -0.63468 -0.24350
v -0.34641 -0.69282 -0.20000
v -0.26513 -0.73910 -0.15307
v -0.17932 -0.77274 -0.10353
v -0.09043 -0.79316 -0.05221
v -0.08284 0.79316 -0.06357
v -0.16427 0.77274 -0.12605
v -0.24288 0.73910 -0.18637
v -0.31734 0.69282 -0.24350
v -0.38637 0.63468 -0.29647
v -0.44879 0.56569 -0.34437
v -0.50353 0.48701 -0.38637
v -0.54965 0.40000 -0.42176
v -0.58637 0.30615 -0.44994
v -0.61306 0.20706 -0.47041
v -0.62925 0.10442 -0.48284
v -0.63468 -0.00000 -0.48701
v -0.62925 -0.10442 -0.48284
v -0.61306 -0.20706 -0.47041
v -0.58637 -0.30615 -0.44994
v -0.54965 -0.40000 -0.42176
v -0.50353 -0.48701 -0.38637
v -0.44879 -0.56569 -0.34437
v -0.38637 -0.63468 -0.29647
v -0.31734 -0.69282 -0.24350
v -0.24288 -0.73910 -0.18637
v -0.16427 -0.77274 -0.12605
v -0.08284 -0.79316 -0.06357
v -0.07384 0.79316 -0.07384
v -0.14641 0.77274 -0.14641
v -0.21648 0.73910 -0.21648
v -0.28284 0.69282 -0.28284
v -0.34437 0.63468 -0.34437
v -0.40000 0.56569 -0.40000
v -0.44879 0.48701 -0.44879
v -0.48990 0.40000 -0.48990
v -0.52263 0.30615 -0.52263
v -0.54641 0.20706 -0.54641
v -0.56085 0.10442 -0.56085
v -0.56569 -0.00000 -0.56569
v -0.56085 -0.10442 -0.56085
v -0.54641 -0.20706 -0.54641
v -0.52263 -0.30615 -0.52263
v -0.48990 -0.40000 -0.48990
v -0.44879 -0.48701 -0.44879
v -0.40000 -0.56569 -0.40000
v -0.34437 -0.63468 -0.34437
v -0.28284 -0.69282 -0.28284
v -0.21648 -0.73910 -0.21648
v -0.14641 -0.77274 -0.14641
v -0.07384 -0.79316 -0.07384
v -0.06357 0.79316 -0.08284
v -0.12605 0.77274 -0.16427
v -0.18637 0.73910 -0.24288
v -0.24350 0.69282 -0.31734
v -0.29647 0.63468 -0.38637
v -0.34437 0.56569 -0.44879
v -0.38637 0.48701 -0.50353
v -0.42176 0.40000 -0.54965
v -0.44994 0.30615 -0.58637
v -0.47042 0.20706 -0.61306
v -0.48284 0.10442 -0.62925
v -0.48701 -0.00000 -0.63468
v -0.48284 -0.10442 -0.62925
v -0.47042 -0.20706 -0.61306
v -0.44994 -0.30615 -0.58637
v -0.42176 -0.40000 -0.54965
v -0.38637 -0.48701 -0.50353
v -0.34437 -0.56569 -0.44879
v -0.29647 -0.63468 -0.38637
v -0.24350 -0.69282 -0.31734
v -0.18637 -0.73910 -0.24288
v -0.12605 -0.77274 -0.16427
v -0.06357 -0.79316 -0.08284
v -0.05221 0.79316 -0.09043
v -0.10353 0.77274 -0.17931
v -0.15307 0.73910 -0.26513
v -0.20000 0.69282 -0.34641
v -0.24350 0.63468 -0.42176
v -0.28284 0.56569 -0.48990
v -0.31734 0.48701 -0.54965
v -0.34641 0.40000 -0.60000
v -0.36955 0.30615 -0.64008
v -0.38637 0.20706 -0.66921
v -0.39658 0.10442 -0.68689
v -0.40000 -0.00000 -0.69282
v -0.39658 -0.10442 -0.68689
v -0.38637 -0.20706 -0.66921
v -0.36955 -0.30615 -0.64008
v -0.34641 -0.40000 -0.60000
v -0.31734 -0.48701 -0.54965
v -0.28284 -0.56569 -0.48990
v -0.24350 -0.63468 -0.42176
v -0.20000 -0.69282 -0.34641
v -0.15307 -0.73910 -0.26513
v -0.10353 -0.77274 -0.17931
v -0.05221 -0.79316 -0.09043
v -0.03996 0.79316 -0.09647
v -0.07924 0.77274 -0.19129
v -0.11716 0.73910 -0.28284
v -0.15307 0.69282 -0.36955
v -0.18637 0.63468 -0.44994
v -0.21648 0.56569 -0.52263
v -0.24288 0.48701 -0.58637
v -0.26513 0.40000 -0.64008
v -0.28284 0.30615 -0.68284
v -0.29572 0.20706 -0.71392
v -0.30353 0.10442 -0.73278
v -0.30615 -0.00000 -0.73910
v -0.30353 -0.10442 -0.73278
v -0.29572 -0.20706 -0.71392
v -0.28284 -0.30615 -0.68284
v -0.26513 -0.40000 -0.64008
v -0.24288 -0.48701 -0.58637
v -0.21648 -0.56569 -0.52263
v -0.18637 -0.63468 -0.44994
v -0.15307 -0.69282 -0.36955
v -0.11716 -0.73910 -0.28284
v -0.07924 -0.77274 -0.19129
v -0.03996 -0.79316 -0.09647
v -0.02703 0.79316 -0.10086
v -0.05359 0.77274 -0.20000
v -0.07924 0.73910 -0.29571
v -0.10353 0.69282 -0.38637
v -0.12605 0.63468 -0.47041
v -0.14641 0.56569 -0.54641
v -0.16427 0.48701 -0.61306
v -0.17932 0.40000 -0.66921
v -0.19129 0.30615 -0.71392
v -0.20000 0.20706 -0.74641
v -0.20528 0.10442 -0.76613
v -0.20706 -0.00000 -0.77274
v -0.20528 -0.10442 -0.76613
v -0.20000 -0.20706 -0.74641
v -0.19129 -0.30615 -0.71392
v -0.17932 -0.40000 -0.66921
v -0.16427 -0.48701 -0.61306
v -0.14641 -0.56569 -0.54641
v -0.12605 -0.63468 -0.47041
v -0.10353 -0.69282 -0.38637
v -0.07924 -0.73910 -0.29571
v -0.05359 -0.77274 -0.20000
v -0.02703 -0.79316 -0.10086
v -0.01363 0.79316 -0.10353
v -0.02703 0.77274 -0.20528
v -0.03996 0.73910 -0.30353
v -0.05221 0.69282 -0.39658
v -0.06357 0.63468 -0.48284
v -0.07384 0.56569 -0.56085
v -0.08284 0.48701 -0.62925
v -0.09043 0.40000 -0.68689
v -0.09647 0.30615 -0.73278
v -0.10086 0.20706 -0.76613
v -0.10353 0.10442 -0.78637
v -0.10442 -0.00000 -0.79316
v -0.10353 -0.10442 -0.78637
v -0.10086 -0.20706 -0.76613
v -0.09647 -0.30615 -0.73278
v -0.09043 -0.40000 -0.68689
v -0.08284 -0.48701 -0.62925
v -0.07384 -0.56569 -0.56085
v -0.06357 -0.63468 -0.48284
v -0.05221 -0.69282 -0.39658
v -0.03996 -0.73910 -0.30353
v -0.02703 -0.77274 -0.20528
v -0.01363 -0.79316 -0.10353
v -0.00000 0.79316 -0.10442
v -0.00000 0.77274 -0.20706
v -0.00000 0.73910 -0.30615
v -0.00000 0.69282 -0.40000
v -0.00000 0.63468 -0.48701
v -0.00000 0.56569 -0.56569
v -0.00000 0.48701 -0.63468
v -0.00000 0.40000 -0.69282
v -0.00000 0.30615 -0.73910
v -0.00000 0.20706 -0.77274
v -0.00000 0.10442 -0.79316
v -0.00000 -0.00000 -0.80000
v -0.00000 -0.10442 -0.79316
v -0.00000 -0.20706 -0.77274
v -0.00000 -0.30615 -0.73910
v -0.00000 -0.40000 -0.69282
v -0.00000 -0.48701 -0.63468
v -0.00000 -0.56569 -0.56569
v -0.00000 -0.63468 -0.48701
v -0.00000 -0.69282 -0.40000
v -0.00000 -0.73910 -0.30615
v -0.00000 -0.77274 -0.20706
v -0.00000 -0.79316 -0.10442
v 0.01363 0.79316 -0.10353
v 0.02703 0.77274 -0.20528
v 0.03996 0.73910 -0.30353
v 0.05221 0.69282 -0.39658
v 0.06357 0.63468 -0.48284
v 0.07384 0.56569 -0.56085
v 0.08284 0.48701 -0.62925
v 0.09043 0.40000 -0.68689
v 0.09647 0.30615 -0.73278
v 0.10086 0.20706 -0.76613
v 0.10353 0.10442 -0.78637
v 0.10442 -0.00000 -0.79316
v 0.10353 -0.10442 -0.78637
v 0.10086 -0.20706 -0.76613
v 0.09647 -0.30615 -0.73278
v 0.09043 -0.40000 -0.68689
v 0.08284 -0.48701 -0.62925
v 0.07384 -0.56569 -0.56085
v 0.06357 -0.63468 -0.48284
v 0.05221 -0.69282 -0.39658
v 0.03996 -0.73910 -0.30353
v 0.02703 -0.77274 -0.20528
v 0.01363 -0.79316 -0.10353
v 0.02703 0.79316 -0.10086
v 0.05359 0.77274 -0.20000
v 0.07924 0.73910 -0.29571
v 0.10353 0.69282 -0.38637
v 0.12605 0.63468 -0.47041
v 0.14641 0.56569 -0.54641
v 0.16427 0.48701 -0.61306
v 0.17931 0.40000 -0.66921
v 0.19129 0.30615 -0.71392
v 0.20000 0.20706 -0.74641
v 0.20528 0.10442 -0.76613
v 0.20706 -0.00000 -0.77274
v 0.20528 -0.10442 -0.76613
v 0.20000 -0.20706 -0.74641
v 0.19129 -0.30615 -0.71392
v 0.17931 -0.40000 -0.66921
v 0.16427 -0.48701 -0.61306
v 0.14641 -0.56569 -0.54641
v 0.12605 -0.63468 -0.47041
v 0.10353 -0.69282 -0.38637
v 0.07924 -0.73910 -0.29571
v 0.05359 -0.77274 -0.20000
v 0.02703 -0.79316 -0.10086
v 0.03996 0.79316 -0.09647
v 0.07924 0.77274 -0.19129
v 0.11716 0.73910 -0.28284
v 0.15307 0.69282 -0.36955
v 0.18637 0.63468 -0.44994
v 0.21648 0.56569 -0.52263
v 0.24288 0.48701 -0.58637
v 0.26513 0.40000 -0.64008
v 0.28284 0.30615 -0.68284
v 0.29571 0.20706 -0.71392
v 0.30353 0.10442 -0.73278
v 0.30615 -0.00000 -0.73910
v 0.30353 -0.10442 -0.73278
v 0.29571 -0.20706 -0.71392
v 0.28284 -0.30615 -0.68284
v 0.26513 -0.40000 -0.64008
v 0.24288 -0.48701 -0.58637
v 0.21648 -0.56569 -0.52263
v 0.18637 -0.63468 -0.44994
v 0.15307 -0.69282 -0.36955
v 0.11716 -0.73910 -0.28284
v 0.07924 -0.77274 -0.19129
v 0.03996 -0.79316 -0.09647
v 0.05221 0.79316 -0.09043
v 0.10353 0.77274 -0.17931
v 0.15307 0.73910 -0.26513
v 0.20000 0.69282 -0.34641
v 0.24350 0.63468 -0.42176
v 0.28284 0.56569 -0.48990
v 0.31734 0.48701 -0.54965
v 0.34641 0.40000 -0.60000
v 0.36955 0.30615 -0.64008
v 0.38637 0.20706 -0.66921
v 0.39658 0.10442 -0.68689
v 0.40000 -0.00000 -0.69282
v 0.39658 -0.10442 -0.68689
v 0.38637 -0.20706 -0.66921
v 0.36955 -0.30615 -0.64008
v 0.34641 -0.40000 -0.60000
v 0.31734 -0.48701 -0.54965
v 0.28284 -0.56569 -0.48990
v 0.24350 -0.63468 -0.42176
v 0.20000 -0.69282 -0.34641
v 0.15307 -0.73910 -0.26513
v 0.10353 -0.77274 -0.17931
v 0.05221 -0.79316 -0.09043
v 0.06357 0.79316 -0.08284
v 0.12605 0.77274 -0.16427
v 0.18637 0.73910 -0.24288
v 0.24350 0.69282 -0.31734
v 0.29647 0.63468 -0.38637
v 0.34437 0.56569 -0.44879
v 0.38637 0.48701 -0.50353
v 0.42176 0.40000 -0.54965
v 0.44994 0.30615 -0.58637
v 0.47041 0.20706 -0.61306
v 0.48284 0.10442 -0.62925
v 0.48701 -0.00000 -0.63468
v 0.48284 -0.10442 -0.62925
v 0.47041 -0.20706 -0.61306
v 0.44994 -0.30615 -0.58637
v 0.42176 -0.40000 -0.54965
v 0.38637 -0.48701 -0.50353
v 0.34437 -0.56569 -0.44879
v 0.29647 -0.63468 -0.38637
v 0.24350 -0.69282 -0.31734
v 0.18637 -0.73910 -0.24288
v 0.12605 -0.77274 -0.16427
v 0.06357 -0.79316 -0.08284
v 0.07384 0.79316 -0.07384
v 0.14641 0.77274 -0.14641
v 0.21648 0.73910 -0.21648
v 0.28284 0.69282 -0.28284
v 0.34437 0.63468 -0.34437
v 0.40000 0.56569 -0.40000
v 0.44879 0.48701 -0.44879
v 0.48990 0.40000 -0.48990
v 0.52263 0.30615 -0.52263
v 0.54641 0.20706 -0.54641
v 0.56085 0.10442 -0.56085
v 0.56569 -0.00000 -0.56569
v 0.56085 -0.10442 -0.56085
v 0.54641 -0.20706 -0.54641
v 0.52263 -0.30615 -0.52263
v 0.48990 -0.40000 -0.48990
v 0.44879 -0.48701 -0.44879
v 0.40000 -0.56569 -0.40000
v 0.34437 -0.63468 -0.34437
v 0.28284 -0.69282 -0.28284
v 0.21648 -0.73910 -0.21648
v 0.14641 -0.77274 -0.14641
v 0.07384 -0.79316 -0.07384
v 0.08284 0.79316 -0.06357
v 0.16427 0.77274 -0.12605
v 0.24288 0.73910 -0.18637
v 0.31734 0.69282 -0.24350
v 0.38637 0.63468 -0.29647
v 0.44879 0.56569 -0.34437
v 0.50353 0.48701 -0.38637
v 0.54965 0.40000 -0.42176
v 0.58637 0.30615 -0.44994
v 0.61306 0.20706 -0.47041
v 0.62925 0.10442 -0.48284
v 0.63468 -0.00000 -0.48701
v 0.62925 -0.10442 -0.48284
v 0.61306 -0.20706 -0.47041
v 0.58637 -0.30615 -0.44994
v 0.54965 -0.40000 -0.42176
v 0.50353 -0.48701 -0.38637
v 0.44879 -0.56569 -0.34437
v 0.38637 -0.63468 -0.29647
v 0.31734 -0.69282 -0.24350
v 0.24288 -0.73910 -0.18637
v 0.16427 -0.77274 -0.12605
v 0.08284 -0.79316 -0.06357
v 0.09043 0.79316 -0.05221
v 0.17931 0.77274 -0.10353
v 0.26513 0.73910 -0.15307
v 0.34641 0.69282 -0.20000
v 0.42176 0.63468 -0.24350
v 0.48990 0.56569 -0.28284
v 0.54965 0.48701 -0.31734
v 0.60000 0.40000 -0.34641
v 0.64008 0.30615 -0.36955
v 0.66921 0.20706 -0.38637
v 0.68689 0.10442 -0.39658
v 0.69282 -0.00000 -0.40000
v 0.68689 -0.10442 -0.39658
v 0.66921 -0.20706 -0.38637
v 0.64008 -0.30615 -0.36955
v 0.60000 -0.40000 -0.34641
v 0.54965 -0.48701 -0.31734
v 0.48990 -0.56569 -0.28284
v 0.42176 -0.63468 -0.24350
v 0.34641 -0.69282 -0.20000
v 0.26513 -0.73910 -0.15307
v 0.17931 -0.77274 -0.10353
v 0.09043 -0.79316 -0.05221
v 0.09647 0.79316 -0.03996
v 0.19129 0.77274 -0.07924
v 0.28284 0.73910 -0.11716
v 0.36955 0.69282 -0.15307
v 0.44994 0.63468 -0.18637
v 0.52263 0.56569 -0.21648
v 0.58637 0.48701 -0.24288
v 0.64008 0.40000 -0.26513
v 0.68284 0.30615 -0.28284
v 0.71392 0.20706 -0.29571
v 0.73278 0.10442 -0.30353
v 0.73910 -0.00000 -0.30615
v 0.73278 -0.10442 -0.30353
v 0.71392 -0.20706 -0.29571
v 0.68284 -0.30615 -0.28284
v 0.64008 -0.40000 -0.26513
v 0.58637 -0.48701 -0.24288
v 0.52263 -0.56569 -0.21648
v 0.44994 -0.63468 -0.18637
v 0.36955 -0.69282 -0.15307
v 0.28284 -0.73910 -0.11716
v 0.19129 -0.77274 -0.07924
v 0.09647 -0.79316 -0.03996
v 0.10086 0.79316 -0.02703
v 0.20000 0.77274 -0.05359
v 0.29572 0.73910 -0.07924
v 0.38637 0.69282 -0.10353
v 0.47041 0.63468 -0.12605
v 0.54641 0.56569 -0.14641
v 0.61306 0.48701 -0.16427
v 0.66921 0.40000 -0.17931
v 0.71392 0.30615 -0.19129
v 0.74641 0.20706 -0.20000
v 0.76613 0.10442 -0.20528
v 0.77274 -0.00000 -0.20705
v 0.76613 -0.10442 -0.20528
v 0.74641 -0.20706 -0.20000
v 0.71392 -0.30615 -0.19129
v 0.66921 -0.40000 -0.17931
v 0.61306 -0.48701 -0.16427
v 0.54641 -0.56569 -0.14641
v 0.47041 -0.63468 -0.12605
v 0.38637 -0.69282 -0.10353
v 0.29572 -0.73910 -0.07924
v 0.20000 -0.77274 -0.05359
v 0.10086 -0.79316 -0.02703
v 0.10353 0.79316 -0.01363
v 0.20528 0.77274 -0.02703
v 0.30353 0.73910 -0.03996
v 0.39658 0.69282 -0.05221
v 0.48284 0.63468 -0.06357
v 0.56085 0.56569 -0.07384
v 0.62925 0.48701 -0.08284
v 0.68689 0.40000 -0.09043
v 0.73278 0.30615 -0.09647
v 0.76613 0.20706 -0.10086
v 0.78637 0.10442 -0.10353
v 0.79316 -0.00000 -0.10442
v 0.78637 -0.10442 -0.10353
v 0.76613 -0.20706 -0.10086
v 0.73278 -0.30615 -0.09647
v 0.68689 -0.40000 -0.09043
v 0.62925 -0.48701 -0.08284
v 0.56085 -0.56569 -0.07384
v 0.48284 -0.63468 -0.06357
v 0.39658 -0.69282 -0.05221
v 0.30353 -0.73910 -0.03996
v 0.20528 -0.77274 -0.02703
v 0.10353 -0.79316 -0.01363
v 0.10442 0.79316 0.00000
v 0.20706 0.77274 0.00000
v 0.30615 0.73910 0.00000
v 0.40000 0.69282 0.00000
v 0.48701 0.63468 0.00000
v 0.56569 0.56569 0.00000
v 0.63468 0.48701 0.00000
v 0.69282 0.40000 0.00000
v 0.73910 0.30615 0.00000
v 0.77274 0.20706 0.00000
v 0.79316 0.10442 0.00000
v 0.80000 -0.00000 0.00000
v 0.79316 -0.10442 0.00000
v 0.77274 -0.20706 0.00000
v 0.73910 -0.30615 0.00000
v 0.69282 -0.40000 0.00000
v 0.63468 -0.48701 0.00000
v 0.56569 -0.56569 0.00000
v 0.48701 -0.63468 0.00000
v 0.40000 -0.69282 0.00000
v 0.30615 -0.73910 0.00000
v 0.20706 -0.77274 0.00000
v 0.10442 -0.79316 0.00000
v 0.10353 0.79316 0.01363
v 0.20528 0.77274 0.02703
v 0.30353 0.73910 0.03996
v 0.39658 0.69282 0.05221
v 0.48284 0.63468 0.06357
v 0.56085 0.56569 0.07384
v 0.62925 0.48701 0.08284
v 0.68689 0.40000 0.09043
v 0.73278 0.30615 0.09647
v 0.76613 0.20706 0.10086
v 0.78637 0.10442 0.10353
v 0.79316 -0.00000 0.10442
v 0.78637 -0.10442 0.10353
v 0.76613 -0.20706 0.10086
v 0.73278 -0.30615 0.09647
v 0.68689 -0.40000 0.09043
v 0.62925 -0.48701 0.08284
v 0.56085 -0.56569 0.07384
v 0.48284 -0.63468 0.06357
v 0.39658 -0.69282 0.05221
v 0.30353 -0.73910 0.03996
v 0.20528 -0.77274 0.02703
v 0.10353 -0.79316 0.01363
v 0.10086 0.79316 0.02703
v 0.20000 0.77274 0.05359
v 0.29572 0.73910 0.07924
v 0.38637 0.69282 0.10353
v 0.47041 0.63468 0.12605
v 0.54641 0.56569 0.14641
v 0.61306 0.48701 0.16427
v 0.66921 0.40000 0.17932
v 0.71392 0.30615 0.19129
v 0.74641 0.20706 0.20000
v 0.76613 0.10442 0.20528
v 0.77274 -0.00000 0.20706
v 0.76613 -0.10442 0.20528
v 0.74641 -0.20706 0.20000
v 0.71392 -0.30615 0.19129
v 0.66921 -0.40000 0.17932
v 0.61306 -0.48701 0.16427
v 0.54641 -0.56569 0.14641
v 0.47041 -0.63468 0.12605
v 0.38637 -0.69282 0.10353
v 0.29572 -0.73910 0.07924
v 0.20000 -0.77274 0.05359
v 0.10086 -0.79316 0.02703
v 0.09647 0.79316 0.03996
v 0.19129 0.77274 0.07924
v 0.28284 0.73910 0.11716
v 0.36955 0.69282 0.15307
v 0.44994 0.63468 0.18637
v 0.52263 0.56569 0.21648
v 0.58637 0.48701 0.24288
v 0.64008 0.40000 0.26513
v 0.68284 0.30615 0.28284
v 0.71392 0.20706 0.29572
v 0.73278 0.10442 0.30353
v 0.73910 -0.00000 0.30615
v 0.73278 -0.10442 0.30353
v 0.71392 -0.20706 0.29572
v 0.68284 -0.30615 0.28284
v 0.64008 -0.40000 0.26513
v 0.58637 -0.48701 0.24288
v 0.52263 -0.56569 0.21648
v 0.44994 -0.63468 0.18637
v 0.36955 -0.69282 0.15307
v 0.28284 -0.73910 0.11716
v 0.19129 -0.77274 0.07924
v 0.09647 -0.79316 0.03996
v 0.09043 0.79316 0.05221
v 0.17931 0.77274 0.10353
v 0.26513 0.73910 0.15307
v 0.34641 0.69282 0.20000
v 0.42176 0.63468 0.24351
v 0.48990 0.56569 0.28284
v 0.54965 0.48701 0.31734
v 0.60000 0.40000 0.34641
v 0.64008 0.30615 0.36955
v 0.66921 0.20706 0.38637
v 0.68689 0.10442 0.39658
v 0.69282 -0.00000 0.40000
v 0.68689 -0.10442 0.39658
v 0.66921 -0.20706 0.38637
v 0.64008 -0.30615 0.36955
v 0.60000 -0.40000 0.34641
v 0.54965 -0.48701 0.31734
v 0.48990 -0.56569 0.28284
v 0.42176 -0.63468 0.24351
v 0.34641 -0.69282 0.20000
v 0.26513 -0.73910 0.15307
v 0.17931 -0.77274 0.10353
v 0.09043 -0.79316 0.05221
v 0.08284 0.79316 0.06357
v 0.16427 0.77274 0.12605
v 0.24288 0.73910 0.18637
v 0.31734 0.69282 0.24351
v 0.38637 0.63468 0.29647
v 0.44879 0.56569 0.34437
v 0.50353 0.48701 0.38637
v 0.54965 0.40000 0.42176
v 0.58637 0.30615 0.44994
v 0.61306 0.20706 0.47042
v 0.62925 0.10442 0.48284
v 0.63468 -0.00000 0.48701
v 0.62925 -0.10442 0.48284
v 0.61306 -0.20706 0.47042
v 0.58637 -0.30615 0.44994
v 0.54965 -0.40000 0.42176
v 0.50353 -0.48701 0.38637
v 0.44879 -0.56569 0.34437
v 0.38637 -0.63468 0.29647
v 0.31734 -0.69282 0.24351
v 0.24288 -0.73910 0.18637
v 0.16427 -0.77274 0.12605
v 0.08284 -0.79316 0.06357
v 0.07384 0.79316 0.07384
v 0.14641 0.77274 0.14641
v 0.21648 0.73910 0.21648
v 0.28284 0.69282 0.28284
v 0.34437 0.63468 0.34437
v 0.40000 0.56569 0.40000
v 0.44879 0.48701 0.44879
v 0.48990 0.40000 0.48990
v 0.52263 0.30615 0.52263
v 0.54641 0.20706 0.54641
v 0.56085 0.10442 0.56085
v 0.56569 -0.00000 0.56569
v 0.56085 -0.10442 0.56085
v 0.54641 -0.20706 0.54641
v 0.52263 -0.30615 0.52263
v 0.48990 -0.40000 0.48990
v 0.44879 -0.48701 0.44879
v 0.40000 -0.56569 0.40000
v 0.34437 -0.63468 0.34437
v 0.28284 -0.69282 0.28284
v 0.21648 -0.73910 0.21648
v 0.14641 -0.77274 0.14641
v 0.07384 -0.79316 0.07384
v 0.06357 0.79316 0.08284
v 0.12605 0.77274 0.16427
v 0.18637 0.73910 0.24288
v 0.24350 0.69282 0.31734
v 0.29647 0.63468 0.38637
v 0.34437 0.56569 0.44879
v 0.38637 0.48701 0.50353
v 0.42176 0.40000 0.54965
v 0.44994 0.30615 0.58637
v 0.47041 0.20706 0.61306
v 0.48284 0.10442 0.62925
v 0.48701 -0.00000 0.63468
v 0.48284 -0.10442 0.62925
v 0.47041 -0.20706 0.61306
v 0.44994 -0.30615 0.58637
v 0.42176 -0.40000 0.54965
v 0.38637 -0.48701 0.50353
v 0.34437 -0.56569 0.44879
v 0.29647 -0.63468 0.38637
v 0.24350 -0.69282 0.31734
v 0.18637 -0.73910 0.24288
v 0.12605 -0.77274 0.16427
v 0.06357 -0.79316 0.08284
v 0.05221 0.79316 0.09043
v 0.10353 0.77274 0.17932
v 0.15307 0.73910 0.26513
v 0.20000 0.69282 0.34641
v 0.24350 0.63468 0.42176
v 0.28284 0.56569 0.48990
v 0.31734 0.48701 0.54965
v 0.34641 0.40000 0.60000
v 0.36955 0.30615 0.64008
v 0.38637 0.20706 0.66921
v 0.39658 0.10442 0.68689
v 0.40000 -0.00000 0.69282
v 0.39658 -0.10442 0.68689
v 0.38637 -0.20706 0.66921
v 0.36955 -0.30615 0.64008
v 0.34641 -0.40000 0.60000
v 0.31734 -0.48701 0.54965
v 0.28284 -0.56569 0.48990
v 0.24350 -0.63468 0.42176
v 0.20000 -0.69282 0.34641
v 0.15307 -0.73910 0.26513
v 0.10353 -0.77274 0.17932
v 0.05221 -0.79316 0.09043
v 0.03996 0.79316 0.09647
v 0.07924 0.77274 0.19129
v 0.11716 0.73910 0.28284
v 0.15307 0.69282 0.36955
v 0.18637 0.63468 0.44994
v 0.21648 0.56569 0.52263
v 0.24288 0.48701 0.58637
v 0.26513 0.40000 0.64008
v 0.28284 0.30615 0.68284
v 0.29571 0.20706 0.71392
v 0.30353 0.10442 0.73278
v 0.30615 -0.00000 0.73911
v 0.30353 -0.10442 0.73278
v 0.29571 -0.20706 0.71392
v 0.28284 -0.30615 0.68284
v 0.26513 -0.40000 0.64008
v 0.24288 -0.48701 0.58637
v 0.21648 -0.56569 0.52263
v 0.18637 -0.63468 0.44994
v 0.15307 -0.69282 0.36955
v 0.11716 -0.73910 0.28284
v 0.07924 -0.77274 0.19129
v 0.03996 -0.79316 0.09647
v 0.02703 0.79316 0.10086
v 0.05359 0.77274 0.20000
v 0.07924 0.73910 0.29572
v 0.10353 0.69282 0.38637
v 0.12605 0.63468 0.47042
v 0.14641 0.56569 0.54641
v 0.16427 0.48701 0.61306
v 0.17931 0.40000 0.66921
v 0.19129 0.30615 0.71392
v 0.20000 0.20706 0.74641
v 0.20528 0.10442 0.76613
v 0.20706 -0.00000 0.77274
v 0.20528 -0.10442 0.76613
v 0.20000 -0.20706 0.74641
v 0.19129 -0.30615 0.71392
v 0.17931 -0.40000 0.66921
v 0.16427 -0.48701 0.61306
v 0.14641 -0.56569 0.54641
v 0.12605 -0.63468 0.47042
v 0.10353 -0.69282 0.38637
v 0.07924 -0.73910 0.29572
v 0.05359 -0.77274 0.20000
v 0.02703 -0.79316 0.10086
v 0.01363 0.79316 0.10353
v 0.02703 0.77274 0.20528
v 0.03996 0.73910 0.30353
v 0.05221 0.69282 0.39658
v 0.06357 0.63468 0.48284
v 0.07384 0.56569 0.56085
v 0.08284 0.48701 0.62925
v 0.09043 0.40000 0.68689
v 0.09647 0.30615 0.73278
v 0.10086 0.20706 0.76613
v 0.10353 0.10442 0.78637
v 0.10442 -0.00000 0.79316
v 0.10353 -0.10442 0.78637
v 0.10086 -0.20706 0.76613
v 0.09647 -0.30615 0.73278
v 0.09043 -0.40000 0.68689
v 0.08284 -0.48701 0.62925
v 0.07384 -0.56569 0.56085
v 0.06357 -0.63468 0.48284
v 0.05221 -0.69282 0.39658
v 0.03996 -0.73910 0.30353
v 0.02703 -0.77274 0.20528
v 0.01363 -0.79316 0.10353
v -0.00000 0.69282 0.40000
v -0.00000 0.56569 0.56569
v -0.00000 0.40000 0.69282
v -0.00000 0.20706 0.77274
v -0.00000 -0.30615 0.73910
v -0.00000 -0.48701 0.63468
v -0.00000 -0.77274 0.20706
f 1104 32 33
f 6 26 1102
f 17 40 41
f 2 1 19
f 12 33 34
f 1102 27 7
f 18 17 41
f 3 19 20
f 1105 34 35
f 7 28 1103
f 3 21 4
f 13 35 36
f 1103 29 8
f 4 22 1100
f 13 37 14
f 8 30 9
f 1100 23 5
f 14 38 15
f 9 31 10
f 5 24 1101
f 15 39 16
f 10 32 11
f 1101 25 6
f 1106 39 40
f 23 47 24
f 38 62 39
f 31 55 32
f 25 47 48
f 39 63 40
f 32 56 33
f 25 49 26
f 40 64 41
f 19 1 42
f 33 57 34
f 26 50 27
f 18 41 64
f 20 42 43
f 34 58 35
f 28 50 51
f 21 43 44
f 35 59 36
f 29 51 52
f 22 44 45
f 36 60 37
f 29 53 30
f 22 46 23
f 37 61 38
f 30 54 31
f 56 80 57
f 49 73 50
f 18 64 87
f 43 65 66
f 57 81 58
f 50 74 51
f 43 67 44
f 58 82 59
f 52 74 75
f 45 67 68
f 59 83 60
f 52 76 53
f 46 68 69
f 60 84 61
f 53 77 54
f 47 69 70
f 61 85 62
f 54 78 55
f 47 71 48
f 62 86 63
f 56 78 79
f 48 72 49
f 63 87 64
f 42 1 65
f 67 91 68
f 82 106 83
f 75 99 76
f 68 92 69
f 83 107 84
f 76 100 77
f 70 92 93
f 84 108 85
f 77 101 78
f 71 93 94
f 85 109 86
f 79 101 102
f 72 94 95
f 86 110 87
f 65 1 88
f 80 102 103
f 72 96 73
f 18 87 110
f 65 89 66
f 80 104 81
f 73 97 74
f 66 90 67
f 81 105 82
f 74 98 75
f 93 117 94
f 108 132 109
f 101 125 102
f 95 117 118
f 109 133 110
f 88 1 111
f 102 126 103
f 95 119 96
f 18 110 133
f 88 112 89
f 103 127 104
f 96 120 97
f 90 112 113
f 105 127 128
f 98 120 121
f 91 113 114
f 105 129 106
f 98 122 99
f 91 115 92
f 107 129 130
f 99 123 100
f 93 115 116
f 107 131 108
f 100 124 101
f 126 150 127
f 119 143 120
f 112 136 113
f 127 151 128
f 121 143 144
f 113 137 114
f 128 152 129
f 122 144 145
f 114 138 115
f 130 152 153
f 122 146 123
f 116 138 139
f 130 154 131
f 123 147 124
f 116 140 117
f 131 155 132
f 124 148 125
f 118 140 141
f 133 155 156
f 111 1 134
f 125 149 126
f 118 142 119
f 18 133 156
f 111 135 112
f 137 161 138
f 152 176 153
f 145 169 146
f 139 161 162
f 153 177 154
f 147 169 170
f 139 163 140
f 154 178 155
f 147 171 148
f 140 164 141
f 156 178 179
f 134 1 157
f 148 172 149
f 142 164 165
f 18 156 179
f 134 158 135
f 149 173 150
f 142 166 143
f 136 158 159
f 150 174 151
f 143 167 144
f 137 159 160
f 151 175 152
f 145 167 168
f 164 186 187
f 178 202 179
f 157 1 180
f 171 195 172
f 165 187 188
f 18 179 202
f 157 181 158
f 172 196 173
f 165 189 166
f 159 181 182
f 173 197 174
f 166 190 167
f 159 183 160
f 174 198 175
f 168 190 191
f 160 184 161
f 175 199 176
f 168 192 169
f 162 184 185
f 176 200 177
f 169 193 170
f 162 186 163
f 178 200 201
f 171 193 194
f 196 220 197
f 190 212 213
f 183 205 206
f 197 221 198
f 191 213 214
f 183 207 184
f 199 221 222
f 191 215 192
f 185 207 208
f 199 223 200
f 192 216 193
f 185 209 186
f 200 224 201
f 194 216 217
f 187 209 210
f 201 225 202
f 180 1 203
f 194 218 195
f 188 210 211
f 18 202 225
f 181 203 204
f 196 218 219
f 188 212 189
f 182 204 205
f 208 230 231
f 223 245 246
f 215 239 216
f 208 232 209
f 223 247 224
f 217 239 240
f 209 233 210
f 224 248 225
f 203 1 226
f 217 241 218
f 211 233 234
f 18 225 248
f 203 227 204
f 219 241 242
f 211 235 212
f 205 227 228
f 219 243 220
f 213 235 236
f 205 229 206
f 220 244 221
f 214 236 237
f 207 229 230
f 222 244 245
f 214 238 215
f 234 256 257
f 18 248 271
f 226 250 227
f 242 264 265
f 234 258 235
f 227 251 228
f 242 266 243
f 235 259 236
f 228 252 229
f 243 267 244
f 237 259 260
f 229 253 230
f 245 267 268
f 237 261 238
f 231 253 254
f 246 268 269
f 238 262 239
f 232 254 255
f 246 270 247
f 240 262 263
f 232 256 233
f 247 271 248
f 226 1 249
f 240 264 241
f 266 290 267
f 260 282 283
f 252 276 253
f 267 291 268
f 260 284 261
f 253 277 254
f 268 292 269
f 261 285 262
f 255 277 278
f 269 293 270
f 262 286 263
f 255 279 256
f 271 293 294
f 249 1 272
f 264 286 287
f 257 279 280
f 18 271 294
f 249 273 250
f 265 287 288
f 257 281 258
f 251 273 274
f 265 289 266
f 259 281 282
f 251 275 252
f 278 300 301
f 292 316 293
f 285 309 286
f 278 302 279
f 293 317 294
f 272 1 295
f 286 310 287
f 280 302 303
f 18 294 317
f 272 296 273
f 288 310 311
f 280 304 281
f 274 296 297
f 288 312 289
f 281 305 282
f 275 297 298
f 289 313 290
f 283 305 306
f 275 299 276
f 290 314 291
f 283 307 284
f 276 300 277
f 291 315 292
f 284 308 285
f 303 327 304
f 297 319 320
f 311 335 312
f 305 327 328
f 298 320 321
f 313 335 336
f 306 328 329
f 298 322 299
f 313 337 314
f 306 330 307
f 299 323 300
f 314 338 315
f 307 331 308
f 301 323 324
f 315 339 316
f 308 332 309
f 301 325 302
f 316 340 317
f 295 1 318
f 309 333 310
f 303 325 326
f 18 317 340
f 295 319 296
f 311 333 334
f 336 360 337
f 329 353 330
f 322 346 323
f 337 361 338
f 330 354 331
f 324 346 347
f 338 362 339
f 332 354 355
f 324 348 325
f 339 363 340
f 318 1 341
f 332 356 333
f 326 348 349
f 18 340 363
f 318 342 319
f 334 356 357
f 326 350 327
f 319 343 320
f 334 358 335
f 328 350 351
f 321 343 344
f 335 359 336
f 329 351 352
f 321 345 322
f 347 371 348
f 362 386 363
f 341 1 364
f 355 379 356
f 349 371 372
f 18 363 386
f 342 364 365
f 357 379 380
f 349 373 350
f 343 365 366
f 357 381 358
f 350 374 351
f 344 366 367
f 358 382 359
f 352 374 375
f 345 367 368
f 359 383 360
f 352 376 353
f 346 368 369
f 360 384 361
f 354 376 377
f 346 370 347
f 361 385 362
f 354 378 355
f 373 397 374
f 366 390 367
f 382 404 405
f 375 397 398
f 368 390 391
f 382 406 383
f 375 399 376
f 368 392 369
f 383 407 384
f 376 400 377
f 370 392 393
f 385 407 408
f 378 400 401
f 371 393 394
f 385 409 386
f 364 1 387
f 378 402 379
f 372 394 395
f 18 386 409
f 365 387 388
f 380 402 403
f 372 396 373
f 365 389 366
f 381 403 404
f 406 430 407
f 400 422 423
f 393 415 416
f 408 430 431
f 400 424 401
f 393 417 394
f 408 432 409
f 387 1 410
f 401 425 402
f 395 417 418
f 18 409 432
f 387 411 388
f 403 425 426
f 395 419 396
f 388 412 389
f 403 427 404
f 396 420 397
f 389 413 390
f 404 428 405
f 398 420 421
f 390 414 391
f 406 428 429
f 398 422 399
f 392 414 415
f 418 440 441
f 18 432 455
f 410 434 411
f 426 448 449
f 418 442 419
f 411 435 412
f 426 450 427
f 419 443 420
f 412 436 413
f 427 451 428
f 421 443 444
f 414 436 437
f 428 452 429
f 421 445 422
f 414 438 415
f 429 453 430
f 423 445 446
f 416 438 439
f 431 453 454
f 424 446 447
f 416 440 417
f 432 454 455
f 410 1 433
f 424 448 425
f 444 466 467
f 436 460 437
f 452 474 475
f 444 468 445
f 437 461 438
f 452 476 453
f 446 468 469
f 439 461 462
f 453 477 454
f 447 469 470
f 439 463 440
f 454 478 455
f 433 1 456
f 447 471 448
f 441 463 464
f 18 455 478
f 434 456 457
f 449 471 472
f 441 465 442
f 435 457 458
f 449 473 450
f 442 466 443
f 436 458 459
f 450 474 451
f 476 500 477
f 470 492 493
f 462 486 463
f 478 500 501
f 456 1 479
f 470 494 471
f 464 486 487
f 18 478 501
f 456 480 457
f 471 495 472
f 464 488 465
f 457 481 458
f 472 496 473
f 465 489 466
f 459 481 482
f 473 497 474
f 467 489 490
f 460 482 483
f 474 498 475
f 467 491 468
f 461 483 484
f 476 498 499
f 469 491 492
f 462 484 485
f 487 511 488
f 481 503 504
f 495 519 496
f 488 512 489
f 481 505 482
f 496 520 497
f 490 512 513
f 482 506 483
f 498 520 521
f 490 514 491
f 484 506 507
f 498 522 499
f 492 514 515
f 485 507 508
f 500 522 523
f 493 515 516
f 485 509 486
f 500 524 501
f 479 1 502
f 493 517 494
f 487 509 510
f 18 501 524
f 479 503 480
f 495 517 518
f 513 537 514
f 506 530 507
f 521 545 522
f 515 537 538
f 508 530 531
f 523 545 546
f 516 538 539
f 508 532 509
f 523 547 524
f 502 1 525
f 516 540 517
f 510 532 533
f 18 524 547
f 503 525 526
f 518 540 541
f 510 534 511
f 504 526 527
f 518 542 519
f 511 535 512
f 505 527 528
f 519 543 520
f 513 535 536
f 505 529 506
f 520 544 521
f 546 570 547
f 525 1 548
f 539 563 540
f 533 555 556
f 18 547 570
f 526 548 549
f 541 563 564
f 533 557 534
f 527 549 550
f 541 565 542
f 534 558 535
f 527 551 528
f 543 565 566
f 536 558 559
f 528 552 529
f 543 567 544
f 536 560 537
f 530 552 553
f 544 568 545
f 538 560 561
f 531 553 554
f 545 569 546
f 539 561 562
f 531 555 532
f 557 581 558
f 551 573 574
f 565 589 566
f 559 581 582
f 551 575 552
f 567 589 590
f 559 583 560
f 553 575 576
f 567 591 568
f 561 583 584
f 554 576 577
f 568 592 569
f 562 584 585
f 554 578 555
f 570 592 593
f 548 1 571
f 562 586 563
f 556 578 579
f 18 570 593
f 548 572 549
f 563 587 564
f 556 580 557
f 550 572 573
f 564 588 565
f 584 606 607
f 577 599 600
f 591 615 592
f 585 607 608
f 577 601 578
f 592 616 593
f 571 1 594
f 585 609 586
f 579 601 602
f 18 593 616
f 572 594 595
f 587 609 610
f 579 603 580
f 572 596 573
f 587 611 588
f 580 604 581
f 573 597 574
f 588 612 589
f 582 604 605
f 574 598 575
f 590 612 613
f 582 606 583
f 576 598 599
f 591 613 614
f 18 616 639
f 594 618 595
f 610 632 633
f 602 626 603
f 596 618 619
f 611 633 634
f 603 627 604
f 596 620 597
f 611 635 612
f 605 627 628
f 597 621 598
f 613 635 636
f 605 629 606
f 599 621 622
f 613 637 614
f 606 630 607
f 600 622 623
f 615 637 638
f 608 630 631
f 600 624 601
f 616 638 639
f 594 1 617
f 608 632 609
f 602 624 625
f 628 650 651
f 621 643 644
f 635 659 636
f 628 652 629
f 621 645 622
f 637 659 660
f 630 652 653
f 623 645 646
f 638 660 661
f 631 653 654
f 623 647 624
f 639 661 662
f 617 1 640
f 631 655 632
f 625 647 648
f 18 639 662
f 617 641 618
f 633 655 656
f 625 649 626
f 618 642 619
f 633 657 634
f 626 650 627
f 620 642 643
f 634 658 635
f 654 676 677
f 646 670 647
f 662 684 685
f 640 1 663
f 654 678 655
f 648 670 671
f 18 662 685
f 640 664 641
f 656 678 679
f 648 672 649
f 642 664 665
f 656 680 657
f 649 673 650
f 642 666 643
f 657 681 658
f 651 673 674
f 644 666 667
f 659 681 682
f 651 675 652
f 645 667 668
f 660 682 683
f 653 675 676
f 646 668 669
f 660 684 661
f 665 687 688
f 679 703 680
f 672 696 673
f 665 689 666
f 680 704 681
f 674 696 697
f 667 689 690
f 681 705 682
f 674 698 675
f 667 691 668
f 682 706 683
f 676 698 699
f 669 691 692
f 683 707 684
f 677 699 700
f 669 693 670
f 684 708 685
f 663 1 686
f 677 701 678
f 671 693 694
f 18 685 708
f 664 686 687
f 679 701 702
f 671 695 672
f 697 721 698
f 691 713 714
f 706 728 729
f 699 721 722
f 692 714 715
f 706 730 707
f 700 722 723
f 692 716 693
f 708 730 731
f 686 1 709
f 700 724 701
f 694 716 717
f 18 708 731
f 687 709 710
f 702 724 725
f 694 718 695
f 687 711 688
f 702 726 703
f 695 719 696
f 688 712 689
f 703 727 704
f 697 719 720
f 689 713 690
f 705 727 728
f 709 1 732
f 723 747 724
f 717 739 740
f 18 731 754
f 709 733 710
f 725 747 748
f 717 741 718
f 710 734 711
f 725 749 726
f 718 742 719
f 711 735 712
f 726 750 727
f 720 742 743
f 712 736 713
f 727 751 728
f 720 744 721
f 714 736 737
f 728 752 729
f 722 744 745
f 715 737 738
f 730 752 753
f 723 745 746
f 715 739 716
f 730 754 731
f 734 758 735
f 750 772 773
f 743 765 766
f 736 758 759
f 750 774 751
f 743 767 744
f 736 760 737
f 751 775 752
f 745 767 768
f 738 760 761
f 752 776 753
f 745 769 746
f 738 762 739
f 754 776 777
f 732 1 755
f 746 770 747
f 740 762 763
f 18 754 777
f 733 755 756
f 748 770 771
f 740 764 741
f 734 756 757
f 748 772 749
f 741 765 742
f 768 790 791
f 761 783 784
f 775 799 776
f 768 792 769
f 761 785 762
f 776 800 777
f 755 1 778
f 769 793 770
f 763 785 786
f 18 777 800
f 755 779 756
f 771 793 794
f 764 786 787
f 757 779 780
f 771 795 772
f 764 788 765
f 758 780 781
f 772 796 773
f 766 788 789
f 758 782 759
f 773 797 774
f 766 790 767
f 759 783 760
f 774 798 775
f 794 816 817
f 787 809 810
f 779 803 780
f 794 818 795
f 787 811 788
f 781 803 804
f 795 819 796
f 789 811 812
f 782 804 805
f 796 820 797
f 789 813 790
f 783 805 806
f 797 821 798
f 791 813 814
f 784 806 807
f 798 822 799
f 791 815 792
f 784 808 785
f 799 823 800
f 778 1 801
f 792 816 793
f 786 808 809
f 18 800 823
f 778 802 779
f 804 828 805
f 820 842 843
f 812 836 813
f 806 828 829
f 820 844 821
f 814 836 837
f 806 830 807
f 822 844 845
f 815 837 838
f 807 831 808
f 823 845 846
f 801 1 824
f 815 839 816
f 809 831 832
f 18 823 846
f 801 825 802
f 817 839 840
f 809 833 810
f 803 825 826
f 817 841 818
f 810 834 811
f 803 827 804
f 818 842 819
f 812 834 835
f 830 854 831
f 845 869 846
f 824 1 847
f 838 862 839
f 832 854 855
f 18 846 869
f 825 847 848
f 840 862 863
f 832 856 833
f 826 848 849
f 840 864 841
f 833 857 834
f 827 849 850
f 841 865 842
f 835 857 858
f 827 851 828
f 842 866 843
f 835 859 836
f 829 851 852
f 843 867 844
f 837 859 860
f 830 852 853
f 844 868 845
f 837 861 838
f 863 887 864
f 856 880 857
f 849 873 850
f 864 888 865
f 858 880 881
f 850 874 851
f 866 888 889
f 858 882 859
f 852 874 875
f 866 890 867
f 860 882 883
f 853 875 876
f 867 891 868
f 860 884 861
f 853 877 854
f 868 892 869
f 847 1 870
f 861 885 862
f 855 877 878
f 18 869 892
f 847 871 848
f 863 885 886
f 855 879 856
f 849 871 872
f 875 897 898
f 890 912 913
f 883 905 906
f 876 898 899
f 891 913 914
f 883 907 884
f 876 900 877
f 891 915 892
f 870 1 893
f 884 908 885
f 878 900 901
f 18 892 915
f 870 894 871
f 886 908 909
f 879 901 902
f 871 895 872
f 886 910 887
f 879 903 880
f 873 895 896
f 887 911 888
f 881 903 904
f 873 897 874
f 888 912 889
f 881 905 882
f 901 923 924
f 18 915 938
f 893 917 894
f 909 931 932
f 902 924 925
f 894 918 895
f 909 933 910
f 902 926 903
f 895 919 896
f 910 934 911
f 904 926 927
f 896 920 897
f 911 935 912
f 904 928 905
f 898 920 921
f 913 935 936
f 906 928 929
f 899 921 922
f 913 937 914
f 906 930 907
f 899 923 900
f 914 938 915
f 893 1 916
f 907 931 908
f 933 957 934
f 927 949 950
f 919 943 920
f 935 957 958
f 927 951 928
f 921 943 944
f 935 959 936
f 929 951 952
f 922 944 945
f 936 960 937
f 930 952 953
f 922 946 923
f 937 961 938
f 916 1 939
f 930 954 931
f 924 946 947
f 18 938 961
f 916 940 917
f 932 954 955
f 924 948 925
f 918 940 941
f 932 956 933
f 925 949 926
f 918 942 919
f 945 967 968
f 959 983 960
f 952 976 953
f 945 969 946
f 961 983 984
f 939 1 962
f 953 977 954
f 947 969 970
f 18 961 984
f 939 963 940
f 955 977 978
f 947 971 948
f 941 963 964
f 955 979 956
f 948 972 949
f 941 965 942
f 956 980 957
f 950 972 973
f 942 966 943
f 958 980 981
f 950 974 951
f 944 966 967
f 958 982 959
f 952 974 975
f 970 994 971
f 964 986 987
f 979 1001 1002
f 971 995 972
f 965 987 988
f 979 1003 980
f 973 995 996
f 965 989 966
f 981 1003 1004
f 973 997 974
f 967 989 990
f 982 1004 1005
f 975 997 998
f 968 990 991
f 982 1006 983
f 975 999 976
f 968 992 969
f 983 1007 984
f 962 1 985
f 976 1000 977
f 970 992 993
f 18 984 1007
f 963 985 986
f 978 1000 1001
f 1003 1027 1004
f 996 1020 997
f 990 1012 1013
f 1004 1028 1005
f 997 1021 998
f 990 1014 991
f 1006 1028 1029
f 998 1022 999
f 991 1015 992
f 1006 1030 1007
f 985 1 1008
f 999 1023 1000
f 993 1015 1016
f 18 1007 1030
f 985 1009 986
f 1001 1023 1024
f 993 1017 994
f 987 1009 1010
f 1002 1024 1025
f 994 1018 995
f 987 1011 988
f 1002 1026 1003
f 996 1018 1019
f 989 1011 1012
f 1015 1037 1038
f 1029 1053 1030
f 1008 1 1031
f 1022 1046 1023
f 1016 1038 1039
f 18 1030 1053
f 1009 1031 1032
f 1024 1046 1047
f 1016 1040 1017
f 1010 1032 1033
f 1024 1048 1025
f 1017 1041 1018
f 1010 1034 1011
f 1025 1049 1026
f 1018 1042 1019
f 1011 1035 1012
f 1026 1050 1027
f 1020 1042 1043
f 1013 1035 1036
f 1028 1050 1051
f 1020 1044 1021
f 1014 1036 1037
f 1028 1052 1029
f 1021 1045 1022
f 1040 1064 1041
f 1033 1057 1034
f 1048 1072 1049
f 1042 1064 1065
f 1035 1057 1058
f 1049 1073 1050
f 1042 1066 1043
f 1035 1059 1036
f 1051 1073 1074
f 1043 1067 1044
f 1037 1059 1060
f 1051 1075 1052
f 1044 1068 1045
f 1037 1061 1038
f 1052 1076 1053
f 1031 1 1054
f 1045 1069 1046
f 1039 1061 1062
f 18 1053 1076
f 1031 1055 1032
f 1047 1069 1070
f 1040 1062 1063
f 1033 1055 1056
f 1047 1071 1048
f 1073 1097 1074
f 1067 1089 1090
f 1059 1083 1060
f 1074 1098 1075
f 1067 1091 1068
f 1060 1084 1061
f 1075 1099 1076
f 1054 1 1077
f 1068 1092 1069
f 1062 1084 1085
f 18 1076 1099
f 1055 1077 1078
f 1070 1092 1093
f 1062 1086 1063
f 1056 1078 1079
f 1070 1094 1071
f 1063 1087 1064
f 1056 1080 1057
f 1072 1094 1095
f 1065 1087 1088
f 1057 1081 1058
f 1072 1096 1073
f 1065 1089 1066
f 1059 1081 1082
f 1084 7 1085
f 18 1099 17
f 1077 3 1078
f 1093 12 1105
f 1085 1103 1086
f 1078 4 1079
f 1094 1105 13
f 1086 8 1087
f 1079 1100 1080
f 1095 13 14
f 1087 9 1088
f 1080 5 1081
f 1096 14 15
f 1089 9 10
f 1081 1101 1082
f 1097 15 16
f 1090 10 11
f 1082 6 1083
f 1098 16 1106
f 1091 11 1104
f 1083 1102 1084
f 1099 1106 17
f 1077 1 2
f 1091 12 1092
f 1104 11 32
f 6 25 26
f 17 1106 40
f 12 1104 33
f 1102 26 27
f 3 2 19
f 1105 12 34
f 7 27 28
f 3 20 21
f 13 1105 35
f 1103 28 29
f 4 21 22
f 13 36 37
f 8 29 30
f 1100 22 23
f 14 37 38
f 9 30 31
f 5 23 24
f 15 38 39
f 10 31 32
f 1101 24 25
f 1106 16 39
f 23 46 47
f 38 61 62
f 31 54 55
f 25 24 47
f 39 62 63
f 32 55 56
f 25 48 49
f 40 63 64
f 33 56 57
f 26 49 50
f 20 19 42
f 34 57 58
f 28 27 50
f 21 20 43
f 35 58 59
f 29 28 51
f 22 21 44
f 36 59 60
f 29 52 53
f 22 45 46
f 37 60 61
f 30 53 54
f 56 79 80
f 49 72 73
f 43 42 65
f 57 80 81
f 50 73 74
f 43 66 67
f 58 81 82
f 52 51 74
f 45 44 67
f 59 82 83
f 52 75 76
f 46 45 68
f 60 83 84
f 53 76 77
f 47 46 69
f 61 84 85
f 54 77 78
f 47 70 71
f 62 85 86
f 56 55 78
f 48 71 72
f 63 86 87
f 67 90 91
f 82 105 106
f 75 98 99
f 68 91 92
f 83 106 107
f 76 99 100
f 70 69 92
f 84 107 108
f 77 100 101
f 71 70 93
f 85 108 109
f 79 78 101
f 72 71 94
f 86 109 110
f 80 79 102
f 72 95 96
f 65 88 89
f 80 103 104
f 73 96 97
f 66 89 90
f 81 104 105
f 74 97 98
f 93 116 117
f 108 131 132
f 101 124 125
f 95 94 117
f 109 132 133
f 102 125 126
f 95 118 119
f 88 111 112
f 103 126 127
f 96 119 120
f 90 89 112
f 105 104 127
f 98 97 120
f 91 90 113
f 105 128 129
f 98 121 122
f 91 114 115
f 107 106 129
f 99 122 123
f 93 92 115
f 107 130 131
f 100 123 124
f 126 149 150
f 119 142 143
f 112 135 136
f 127 150 151
f 121 120 143
f 113 136 137
f 128 151 152
f 122 121 144
f 114 137 138
f 130 129 152
f 122 145 146
f 116 115 138
f 130 153 154
f 123 146 147
f 116 139 140
f 131 154 155
f 124 147 148
f 118 117 140
f 133 132 155
f 125 148 149
f 118 141 142
f 111 134 135
f 137 160 161
f 152 175 176
f 145 168 169
f 139 138 161
f 153 176 177
f 147 146 169
f 139 162 163
f 154 177 178
f 147 170 171
f 140 163 164
f 156 155 178
f 148 171 172
f 142 141 164
f 134 157 158
f 149 172 173
f 142 165 166
f 136 135 158
f 150 173 174
f 143 166 167
f 137 136 159
f 151 174 175
f 145 144 167
f 164 163 186
f 178 201 202
f 171 194 195
f 165 164 187
f 157 180 181
f 172 195 196
f 165 188 189
f 159 158 181
f 173 196 197
f 166 189 190
f 159 182 183
f 174 197 198
f 168 167 190
f 160 183 184
f 175 198 199
f 168 191 192
f 162 161 184
f 176 199 200
f 169 192 193
f 162 185 186
f 178 177 200
f 171 170 193
f 196 219 220
f 190 189 212
f 183 182 205
f 197 220 221
f 191 190 213
f 183 206 207
f 199 198 221
f 191 214 215
f 185 184 207
f 199 222 223
f 192 215 216
f 185 208 209
f 200 223 224
f 194 193 216
f 187 186 209
f 201 224 225
f 194 217 218
f 188 187 210
f 181 180 203
f 196 195 218
f 188 211 212
f 182 181 204
f 208 207 230
f 223 222 245
f 215 238 239
f 208 231 232
f 223 246 247
f 217 216 239
f 209 232 233
f 224 247 248
f 217 240 241
f 211 210 233
f 203 226 227
f 219 218 241
f 211 234 235
f 205 204 227
f 219 242 243
f 213 212 235
f 205 228 229
f 220 243 244
f 214 213 236
f 207 206 229
f 222 221 244
f 214 237 238
f 234 233 256
f 226 249 250
f 242 241 264
f 234 257 258
f 227 250 251
f 242 265 266
f 235 258 259
f 228 251 252
f 243 266 267
f 237 236 259
f 229 252 253
f 245 244 267
f 237 260 261
f 231 230 253
f 246 245 268
f 238 261 262
f 232 231 254
f 246 269 270
f 240 239 262
f 232 255 256
f 247 270 271
f 240 263 264
f 266 289 290
f 260 259 282
f 252 275 276
f 267 290 291
f 260 283 284
f 253 276 277
f 268 291 292
f 261 284 285
f 255 254 277
f 269 292 293
f 262 285 286
f 255 278 279
f 271 270 293
f 264 263 286
f 257 256 279
f 249 272 273
f 265 264 287
f 257 280 281
f 251 250 273
f 265 288 289
f 259 258 281
f 251 274 275
f 278 277 300
f 292 315 316
f 285 308 309
f 278 301 302
f 293 316 317
f 286 309 310
f 280 279 302
f 272 295 296
f 288 287 310
f 280 303 304
f 274 273 296
f 288 311 312
f 281 304 305
f 275 274 297
f 289 312 313
f 283 282 305
f 275 298 299
f 290 313 314
f 283 306 307
f 276 299 300
f 291 314 315
f 284 307 308
f 303 326 327
f 297 296 319
f 311 334 335
f 305 304 327
f 298 297 320
f 313 312 335
f 306 305 328
f 298 321 322
f 313 336 337
f 306 329 330
f 299 322 323
f 314 337 338
f 307 330 331
f 301 300 323
f 315 338 339
f 308 331 332
f 301 324 325
f 316 339 340
f 309 332 333
f 303 302 325
f 295 318 319
f 311 310 333
f 336 359 360
f 329 352 353
f 322 345 346
f 337 360 361
f 330 353 354
f 324 323 346
f 338 361 362
f 332 331 354
f 324 347 348
f 339 362 363
f 332 355 356
f 326 325 348
f 318 341 342
f 334 333 356
f 326 349 350
f 319 342 343
f 334 357 358
f 328 327 350
f 321 320 343
f 335 358 359
f 329 328 351
f 321 344 345
f 347 370 371
f 362 385 386
f 355 378 379
f 349 348 371
f 342 341 364
f 357 356 379
f 349 372 373
f 343 342 365
f 357 380 381
f 350 373 374
f 344 343 366
f 358 381 382
f 352 351 374
f 345 344 367
f 359 382 383
f 352 375 376
f 346 345 368
f 360 383 384
f 354 353 376
f 346 369 370
f 361 384 385
f 354 377 378
f 373 396 397
f 366 389 390
f 382 381 404
f 375 374 397
f 368 367 390
f 382 405 406
f 375 398 399
f 368 391 392
f 383 406 407
f 376 399 400
f 370 369 392
f 385 384 407
f 378 377 400
f 371 370 393
f 385 408 409
f 378 401 402
f 372 371 394
f 365 364 387
f 380 379 402
f 372 395 396
f 365 388 389
f 381 380 403
f 406 429 430
f 400 399 422
f 393 392 415
f 408 407 430
f 400 423 424
f 393 416 417
f 408 431 432
f 401 424 425
f 395 394 417
f 387 410 411
f 403 402 425
f 395 418 419
f 388 411 412
f 403 426 427
f 396 419 420
f 389 412 413
f 404 427 428
f 398 397 420
f 390 413 414
f 406 405 428
f 398 421 422
f 392 391 414
f 418 417 440
f 410 433 434
f 426 425 448
f 418 441 442
f 411 434 435
f 426 449 450
f 419 442 443
f 412 435 436
f 427 450 451
f 421 420 443
f 414 413 436
f 428 451 452
f 421 444 445
f 414 437 438
f 429 452 453
f 423 422 445
f 416 415 438
f 431 430 453
f 424 423 446
f 416 439 440
f 432 431 454
f 424 447 448
f 444 443 466
f 436 459 460
f 452 451 474
f 444 467 468
f 437 460 461
f 452 475 476
f 446 445 468
f 439 438 461
f 453 476 477
f 447 446 469
f 439 462 463
f 454 477 478
f 447 470 471
f 441 440 463
f 434 433 456
f 449 448 471
f 441 464 465
f 435 434 457
f 449 472 473
f 442 465 466
f 436 435 458
f 450 473 474
f 476 499 500
f 470 469 492
f 462 485 486
f 478 477 500
f 470 493 494
f 464 463 486
f 456 479 480
f 471 494 495
f 464 487 488
f 457 480 481
f 472 495 496
f 465 488 489
f 459 458 481
f 473 496 497
f 467 466 489
f 460 459 482
f 474 497 498
f 467 490 491
f 461 460 483
f 476 475 498
f 469 468 491
f 462 461 484
f 487 510 511
f 481 480 503
f 495 518 519
f 488 511 512
f 481 504 505
f 496 519 520
f 490 489 512
f 482 505 506
f 498 497 520
f 490 513 514
f 484 483 506
f 498 521 522
f 492 491 514
f 485 484 507
f 500 499 522
f 493 492 515
f 485 508 509
f 500 523 524
f 493 516 517
f 487 486 509
f 479 502 503
f 495 494 517
f 513 536 537
f 506 529 530
f 521 544 545
f 515 514 537
f 508 507 530
f 523 522 545
f 516 515 538
f 508 531 532
f 523 546 547
f 516 539 540
f 510 509 532
f 503 502 525
f 518 517 540
f 510 533 534
f 504 503 526
f 518 541 542
f 511 534 535
f 505 504 527
f 519 542 543
f 513 512 535
f 505 528 529
f 520 543 544
f 546 569 570
f 539 562 563
f 533 532 555
f 526 525 548
f 541 540 563
f 533 556 557
f 527 526 549
f 541 564 565
f 534 557 558
f 527 550 551
f 543 542 565
f 536 535 558
f 528 551 552
f 543 566 567
f 536 559 560
f 530 529 552
f 544 567 568
f 538 537 560
f 531 530 553
f 545 568 569
f 539 538 561
f 531 554 555
f 557 580 581
f 551 550 573
f 565 588 589
f 559 558 581
f 551 574 575
f 567 566 589
f 559 582 583
f 553 552 575
f 567 590 591
f 561 560 583
f 554 553 576
f 568 591 592
f 562 561 584
f 554 577 578
f 570 569 592
f 562 585 586
f 556 555 578
f 548 571 572
f 563 586 587
f 556 579 580
f 550 549 572
f 564 587 588
f 584 583 606
f 577 576 599
f 591 614 615
f 585 584 607
f 577 600 601
f 592 615 616
f 585 608 609
f 579 578 601
f 572 571 594
f 587 586 609
f 579 602 603
f 572 595 596
f 587 610 611
f 580 603 604
f 573 596 597
f 588 611 612
f 582 581 604
f 574 597 598
f 590 589 612
f 582 605 606
f 576 575 598
f 591 590 613
f 594 617 618
f 610 609 632
f 602 625 626
f 596 595 618
f 611 610 633
f 603 626 627
f 596 619 620
f 611 634 635
f 605 604 627
f 597 620 621
f 613 612 635
f 605 628 629
f 599 598 621
f 613 636 637
f 606 629 630
f 600 599 622
f 615 614 637
f 608 607 630
f 600 623 624
f 616 615 638
f 608 631 632
f 602 601 624
f 628 627 650
f 621 620 643
f 635 658 659
f 628 651 652
f 621 644 645
f 637 636 659
f 630 629 652
f 623 622 645
f 638 637 660
f 631 630 653
f 623 646 647
f 639 638 661
f 631 654 655
f 625 624 647
f 617 640 641
f 633 632 655
f 625 648 649
f 618 641 642
f 633 656 657
f 626 649 650
f 620 619 642
f 634 657 658
f 654 653 676
f 646 669 670
f 662 661 684
f 654 677 678
f 648 647 670
f 640 663 664
f 656 655 678
f 648 671 672
f 642 641 664
f 656 679 680
f 649 672 673
f 642 665 666
f 657 680 681
f 651 650 673
f 644 643 666
f 659 658 681
f 651 674 675
f 645 644 667
f 660 659 682
f 653 652 675
f 646 645 668
f 660 683 684
f 665 664 687
f 679 702 703
f 672 695 696
f 665 688 689
f 680 703 704
f 674 673 696
f 667 666 689
f 681 704 705
f 674 697 698
f 667 690 691
f 682 705 706
f 676 675 698
f 669 668 691
f 683 706 707
f 677 676 699
f 669 692 693
f 684 707 708
f 677 700 701
f 671 670 693
f 664 663 686
f 679 678 701
f 671 694 695
f 697 720 721
f 691 690 713
f 706 705 728
f 699 698 721
f 692 691 714
f 706 729 730
f 700 699 722
f 692 715 716
f 708 707 730
f 700 723 724
f 694 693 716
f 687 686 709
f 702 701 724
f 694 717 718
f 687 710 711
f 702 725 726
f 695 718 719
f 688 711 712
f 703 726 727
f 697 696 719
f 689 712 713
f 705 704 727
f 723 746 747
f 717 716 739
f 709 732 733
f 725 724 747
f 717 740 741
f 710 733 734
f 725 748 749
f 718 741 742
f 711 734 735
f 726 749 750
f 720 719 742
f 712 735 736
f 727 750 751
f 720 743 744
f 714 713 736
f 728 751 752
f 722 721 744
f 715 714 737
f 730 729 752
f 723 722 745
f 715 738 739
f 730 753 754
f 734 757 758
f 750 749 772
f 743 742 765
f 736 735 758
f 750 773 774
f 743 766 767
f 736 759 760
f 751 774 775
f 745 744 767
f 738 737 760
f 752 775 776
f 745 768 769
f 738 761 762
f 754 753 776
f 746 769 770
f 740 739 762
f 733 732 755
f 748 747 770
f 740 763 764
f 734 733 756
f 748 771 772
f 741 764 765
f 768 767 790
f 761 760 783
f 775 798 799
f 768 791 792
f 761 784 785
f 776 799 800
f 769 792 793
f 763 762 785
f 755 778 779
f 771 770 793
f 764 763 786
f 757 756 779
f 771 794 795
f 764 787 788
f 758 757 780
f 772 795 796
f 766 765 788
f 758 781 782
f 773 796 797
f 766 789 790
f 759 782 783
f 774 797 798
f 794 793 816
f 787 786 809
f 779 802 803
f 794 817 818
f 787 810 811
f 781 780 803
f 795 818 819
f 789 788 811
f 782 781 804
f 796 819 820
f 789 812 813
f 783 782 805
f 797 820 821
f 791 790 813
f 784 783 806
f 798 821 822
f 791 814 815
f 784 807 808
f 799 822 823
f 792 815 816
f 786 785 808
f 778 801 802
f 804 827 828
f 820 819 842
f 812 835 836
f 806 805 828
f 820 843 844
f 814 813 836
f 806 829 830
f 822 821 844
f 815 814 837
f 807 830 831
f 823 822 845
f 815 838 839
f 809 808 831
f 801 824 825
f 817 816 839
f 809 832 833
f 803 802 825
f 817 840 841
f 810 833 834
f 803 826 827
f 818 841 842
f 812 811 834
f 830 853 854
f 845 868 869
f 838 861 862
f 832 831 854
f 825 824 847
f 840 839 862
f 832 855 856
f 826 825 848
f 840 863 864
f 833 856 857
f 827 826 849
f 841 864 865
f 835 834 857
f 827 850 851
f 842 865 866
f 835 858 859
f 829 828 851
f 843 866 867
f 837 836 859
f 830 829 852
f 844 867 868
f 837 860 861
f 863 886 887
f 856 879 880
f 849 872 873
f 864 887 888
f 858 857 880
f 850 873 874
f 866 865 888
f 858 881 882
f 852 851 874
f 866 889 890
f 860 859 882
f 853 852 875
f 867 890 891
f 860 883 884
f 853 876 877
f 868 891 892
f 861 884 885
f 855 854 877
f 847 870 871
f 863 862 885
f 855 878 879
f 849 848 871
f 875 874 897
f 890 889 912
f 883 882 905
f 876 875 898
f 891 890 913
f 883 906 907
f 876 899 900
f 891 914 915
f 884 907 908
f 878 877 900
f 870 893 894
f 886 885 908
f 879 878 901
f 871 894 895
f 886 909 910
f 879 902 903
f 873 872 895
f 887 910 911
f 881 880 903
f 873 896 897
f 888 911 912
f 881 904 905
f 901 900 923
f 893 916 917
f 909 908 931
f 902 901 924
f 894 917 918
f 909 932 933
f 902 925 926
f 895 918 919
f 910 933 934
f 904 903 926
f 896 919 920
f 911 934 935
f 904 927 928
f 898 897 920
f 913 912 935
f 906 905 928
f 899 898 921
f 913 936 937
f 906 929 930
f 899 922 923
f 914 937 938
f 907 930 931
f 933 956 957
f 927 926 949
f 919 942 943
f 935 934 957
f 927 950 951
f 921 920 943
f 935 958 959
f 929 928 951
f 922 921 944
f 936 959 960
f 930 929 952
f 922 945 946
f 937 960 961
f 930 953 954
f 924 923 946
f 916 939 940
f 932 931 954
f 924 947 948
f 918 917 940
f 932 955 956
f 925 948 949
f 918 941 942
f 945 944 967
f 959 982 983
f 952 975 976
f 945 968 969
f 961 960 983
f 953 976 977
f 947 946 969
f 939 962 963
f 955 954 977
f 947 970 971
f 941 940 963
f 955 978 979
f 948 971 972
f 941 964 965
f 956 979 980
f 950 949 972
f 942 965 966
f 958 957 980
f 950 973 974
f 944 943 966
f 958 981 982
f 952 951 974
f 970 993 994
f 964 963 986
f 979 978 1001
f 971 994 995
f 965 964 987
f 979 1002 1003
f 973 972 995
f 965 988 989
f 981 980 1003
f 973 996 997
f 967 966 989
f 982 981 1004
f 975 974 997
f 968 967 990
f 982 1005 1006
f 975 998 999
f 968 991 992
f 983 1006 1007
f 976 999 1000
f 970 969 992
f 963 962 985
f 978 977 1000
f 1003 1026 1027
f 996 1019 1020
f 990 989 1012
f 1004 1027 1028
f 997 1020 1021
f 990 1013 1014
f 1006 1005 1028
f 998 1021 1022
f 991 1014 1015
f 1006 1029 1030
f 999 1022 1023
f 993 992 1015
f 985 1008 1009
f 1001 1000 1023
f 993 1016 1017
f 987 986 1009
f 1002 1001 1024
f 994 1017 1018
f 987 1010 1011
f 1002 1025 1026
f 996 995 1018
f 989 988 1011
f 1015 1014 1037
f 1029 1052 1053
f 1022 1045 1046
f 1016 1015 1038
f 1009 1008 1031
f 1024 1023 1046
f 1016 1039 1040
f 1010 1009 1032
f 1024 1047 1048
f 1017 1040 1041
f 1010 1033 1034
f 1025 1048 1049
f 1018 1041 1042
f 1011 1034 1035
f 1026 1049 1050
f 1020 1019 1042
f 1013 1012 1035
f 1028 1027 1050
f 1020 1043 1044
f 1014 1013 1036
f 1028 1051 1052
f 1021 1044 1045
f 1040 1063 1064
f 1033 1056 1057
f 1048 1071 1072
f 1042 1041 1064
f 1035 1034 1057
f 1049 1072 1073
f 1042 1065 1066
f 1035 1058 1059
f 1051 1050 1073
f 1043 1066 1067
f 1037 1036 1059
f 1051 1074 1075
f 1044 1067 1068
f 1037 1060 1061
f 1052 1075 1076
f 1045 1068 1069
f 1039 1038 1061
f 1031 1054 1055
f 1047 1046 1069
f 1040 1039 1062
f 1033 1032 1055
f 1047 1070 1071
f 1073 1096 1097
f 1067 1066 1089
f 1059 1082 1083
f 1074 1097 1098
f 1067 1090 1091
f 1060 1083 1084
f 1075 1098 1099
f 1068 1091 1092
f 1062 1061 1084
f 1055 1054 1077
f 1070 1069 1092
f 1062 1085 1086
f 1056 1055 1078
f 1070 1093 1094
f 1063 1086 1087
f 1056 1079 1080
f 1072 1071 1094
f 1065 1064 1087
f 1057 1080 1081
f 1072 1095 1096
f 1065 1088 1089
f 1059 1058 1081
f 1084 1102 7
f 1077 2 3
f 1093 1092 12
f 1085 7 1103
f 1078 3 4
f 1094 1093 1105
f 1086 1103 8
f 1079 4 1100
f 1095 1094 13
f 1087 8 9
f 1080 1100 5
f 1096 1095 14
f 1089 1088 9
f 1081 5 1101
f 1097 1096 15
f 1090 1089 10
f 1082 1101 6
f 1098 1097 16
f 1091 1090 11
f 1083 6 1102
f 1099 1098 1106
f 1091 1104 12
