# eclipse_carrier SunFlare2_Flare.obj: Roblox cue frame, recentred on its bounding box
v -0.90499 -0.00095 0.00025
v -0.89767 -0.00525 -0.01690
v -0.88001 -0.00647 -0.02415
v -0.86235 -0.00390 -0.01725
v -0.85503 0.00095 -0.00025
v -0.86235 0.00525 0.01690
v -0.88001 0.00647 0.02415
v -0.89767 0.00391 0.01725
v -0.90222 -0.06859 0.01838
v -0.89492 -0.07261 0.00115
v -0.87730 -0.07316 -0.00628
v -0.85967 -0.06993 0.00044
v -0.85237 -0.06480 0.01736
v -0.85967 -0.06078 0.03459
v -0.87730 -0.06022 0.04202
v -0.89492 -0.06346 0.03530
v -0.89387 -0.13675 0.03664
v -0.88664 -0.14022 0.01927
v -0.86918 -0.13944 0.01148
v -0.85172 -0.13488 0.01784
v -0.84448 -0.12919 0.03462
v -0.85172 -0.12572 0.05199
v -0.86918 -0.12650 0.05978
v -0.88664 -0.13107 0.05342
v -0.88000 -0.20407 0.05468
v -0.87288 -0.20699 0.03716
v -0.85570 -0.20490 0.02902
v -0.83851 -0.19902 0.03503
v -0.83139 -0.19279 0.05166
v -0.83851 -0.18987 0.06918
v -0.85570 -0.19196 0.07732
v -0.87288 -0.19784 0.07131
v -0.86072 -0.27013 0.07238
v -0.85375 -0.27252 0.05472
v -0.83694 -0.26914 0.04623
v -0.82013 -0.26197 0.05189
v -0.81316 -0.25521 0.06838
v -0.82013 -0.25282 0.08604
v -0.83694 -0.25620 0.09453
v -0.85375 -0.26337 0.08887
v -0.83612 -0.33453 0.08964
v -0.82936 -0.33640 0.07184
v -0.81302 -0.33176 0.06301
v -0.79669 -0.32333 0.06833
v -0.78993 -0.31605 0.08468
v -0.79669 -0.31418 0.10248
v -0.81302 -0.31882 0.11131
v -0.82936 -0.32725 0.10599
v -0.80637 -0.39686 0.10634
v -0.79985 -0.39823 0.08840
v -0.78410 -0.39237 0.07925
v -0.76834 -0.38272 0.08425
v -0.76182 -0.37494 0.10046
v -0.76834 -0.37357 0.11840
v -0.78410 -0.37943 0.12755
v -0.79985 -0.38908 0.12255
v -0.77165 -0.45675 0.12239
v -0.76541 -0.45763 0.10432
v -0.75033 -0.45060 0.09486
v -0.73526 -0.43978 0.09954
v -0.72902 -0.43151 0.11562
v -0.73526 -0.43063 0.13369
v -0.75033 -0.43766 0.14315
v -0.76541 -0.44848 0.13847
v -0.73217 -0.51382 0.13768
v -0.72625 -0.51424 0.11949
v -0.71194 -0.50610 0.10973
v -0.69764 -0.49416 0.11411
v -0.69172 -0.48543 0.13007
v -0.69764 -0.48501 0.14826
v -0.71194 -0.49316 0.15802
v -0.72625 -0.50509 0.15364
v -0.68818 -0.56772 0.15212
v -0.68261 -0.56771 0.13381
v -0.66917 -0.55851 0.12377
v -0.65572 -0.54553 0.12787
v -0.65016 -0.53636 0.14372
v -0.65572 -0.53638 0.16202
v -0.66917 -0.54557 0.17207
v -0.68261 -0.55855 0.16797
v -0.63994 -0.61813 0.16563
v -0.63476 -0.61770 0.14721
v -0.62226 -0.60752 0.13690
v -0.60976 -0.59355 0.14074
v -0.60459 -0.58398 0.15648
v -0.60976 -0.58440 0.17489
v -0.62226 -0.59458 0.18520
v -0.63476 -0.60855 0.18136
v -0.58776 -0.66472 0.17811
v -0.58300 -0.66392 0.15959
v -0.57152 -0.65283 0.14904
v -0.56004 -0.63795 0.15264
v -0.55529 -0.62799 0.16827
v -0.56004 -0.62880 0.18679
v -0.57152 -0.63989 0.19734
v -0.58300 -0.65477 0.19375
v -0.53196 -0.70721 0.18950
v -0.52765 -0.70607 0.17089
v -0.51726 -0.69415 0.16011
v -0.50687 -0.67844 0.16349
v -0.50257 -0.66814 0.17903
v -0.50687 -0.66929 0.19764
v -0.51726 -0.68121 0.20841
v -0.52765 -0.69692 0.20504
v -0.47287 -0.74535 0.19971
v -0.46904 -0.74389 0.18102
v -0.45981 -0.73123 0.17005
v -0.45057 -0.71477 0.17322
v -0.44675 -0.70417 0.18868
v -0.45057 -0.70562 0.20737
v -0.45981 -0.71829 0.21835
v -0.46904 -0.73474 0.21517
v -0.41087 -0.77888 0.20870
v -0.40755 -0.77716 0.18994
v -0.39952 -0.76384 0.17879
v -0.39150 -0.74673 0.18178
v -0.38817 -0.73585 0.19717
v -0.39150 -0.73758 0.21594
v -0.39952 -0.75090 0.22708
v -0.40755 -0.76801 0.22409
v -0.34634 -0.80762 0.21640
v -0.34354 -0.80566 0.19758
v -0.33677 -0.79178 0.18628
v -0.33001 -0.77411 0.18912
v -0.32720 -0.76300 0.20445
v -0.33001 -0.76496 0.22327
v -0.33677 -0.77884 0.23457
v -0.34354 -0.79651 0.23173
v -0.27967 -0.83138 0.22277
v -0.27741 -0.82923 0.20389
v -0.27194 -0.81488 0.19247
v -0.26648 -0.79675 0.19519
v -0.26422 -0.78545 0.21046
v -0.26648 -0.78760 0.22934
v -0.27194 -0.80194 0.24076
v -0.27741 -0.82008 0.23804
v -0.21128 -0.85001 0.22776
v -0.20957 -0.84771 0.20884
v -0.20544 -0.83300 0.19732
v -0.20131 -0.81450 0.19994
v -0.19961 -0.80305 0.21518
v -0.20131 -0.80535 0.23409
v -0.20544 -0.82006 0.24562
v -0.20957 -0.83856 0.24299
v -0.14158 -0.86340 0.23135
v -0.14044 -0.86099 0.21240
v -0.13767 -0.84602 0.20081
v -0.13491 -0.82726 0.20336
v -0.13376 -0.81570 0.21857
v -0.13491 -0.81811 0.23751
v -0.13767 -0.83308 0.24910
v -0.14044 -0.85184 0.24655
v -0.07102 -0.87147 0.23351
v -0.07044 -0.86899 0.21454
v -0.06905 -0.85386 0.20291
v -0.06767 -0.83495 0.20542
v -0.06709 -0.82332 0.22061
v -0.06767 -0.82580 0.23957
v -0.06905 -0.84092 0.25121
v -0.07044 -0.85984 0.24870
v -0.00001 -0.87416 0.23423
v -0.00001 -0.87167 0.21526
v -0.00001 -0.85649 0.20361
v -0.00001 -0.83751 0.20611
v -0.00001 -0.82587 0.22129
v -0.00001 -0.82836 0.24026
v -0.00001 -0.84354 0.25191
v -0.00001 -0.86251 0.24941
v 0.07100 -0.87147 0.23351
v 0.07042 -0.86899 0.21454
v 0.06903 -0.85386 0.20291
v 0.06765 -0.83495 0.20542
v 0.06707 -0.82332 0.22061
v 0.06765 -0.82580 0.23957
v 0.06903 -0.84092 0.25121
v 0.07042 -0.85984 0.24870
v 0.14156 -0.86340 0.23135
v 0.14042 -0.86099 0.21240
v 0.13765 -0.84602 0.20081
v 0.13489 -0.82726 0.20336
v 0.13374 -0.81570 0.21857
v 0.13489 -0.81811 0.23751
v 0.13765 -0.83308 0.24910
v 0.14042 -0.85184 0.24655
v 0.21126 -0.85001 0.22776
v 0.20955 -0.84771 0.20884
v 0.20542 -0.83300 0.19732
v 0.20130 -0.81450 0.19994
v 0.19959 -0.80305 0.21518
v 0.20130 -0.80535 0.23409
v 0.20542 -0.82006 0.24562
v 0.20955 -0.83856 0.24299
v 0.27965 -0.83138 0.22277
v 0.27739 -0.82923 0.20389
v 0.27193 -0.81488 0.19247
v 0.26646 -0.79675 0.19519
v 0.26420 -0.78545 0.21046
v 0.26646 -0.78760 0.22934
v 0.27193 -0.80194 0.24076
v 0.27739 -0.82008 0.23804
v 0.34632 -0.80762 0.21640
v 0.34352 -0.80566 0.19758
v 0.33675 -0.79178 0.18628
v 0.32999 -0.77411 0.18912
v 0.32718 -0.76300 0.20445
v 0.32999 -0.76496 0.22327
v 0.33675 -0.77884 0.23457
v 0.34352 -0.79651 0.23173
v 0.41085 -0.77888 0.20870
v 0.40753 -0.77716 0.18994
v 0.39950 -0.76384 0.17879
v 0.39148 -0.74673 0.18178
v 0.38815 -0.73585 0.19717
v 0.39148 -0.73758 0.21594
v 0.39950 -0.75090 0.22708
v 0.40753 -0.76801 0.22409
v 0.47285 -0.74535 0.19971
v 0.46903 -0.74389 0.18102
v 0.45979 -0.73123 0.17005
v 0.45055 -0.71477 0.17322
v 0.44673 -0.70417 0.18868
v 0.45055 -0.70562 0.20737
v 0.45979 -0.71829 0.21835
v 0.46903 -0.73474 0.21517
v 0.53194 -0.70721 0.18950
v 0.52763 -0.70607 0.17089
v 0.51724 -0.69415 0.16011
v 0.50685 -0.67844 0.16349
v 0.50255 -0.66814 0.17903
v 0.50685 -0.66929 0.19764
v 0.51724 -0.68121 0.20841
v 0.52763 -0.69692 0.20504
v 0.58774 -0.66472 0.17811
v 0.58299 -0.66392 0.15959
v 0.57150 -0.65283 0.14904
v 0.56002 -0.63795 0.15264
v 0.55527 -0.62799 0.16827
v 0.56002 -0.62880 0.18679
v 0.57150 -0.63989 0.19734
v 0.58299 -0.65477 0.19375
v 0.63992 -0.61813 0.16563
v 0.63474 -0.61770 0.14721
v 0.62224 -0.60752 0.13690
v 0.60974 -0.59355 0.14074
v 0.60457 -0.58398 0.15648
v 0.60974 -0.58440 0.17489
v 0.62224 -0.59458 0.18520
v 0.63474 -0.60855 0.18136
v 0.68816 -0.56772 0.15212
v 0.68259 -0.56771 0.13381
v 0.66915 -0.55851 0.12377
v 0.65571 -0.54553 0.12787
v 0.65014 -0.53636 0.14372
v 0.65571 -0.53638 0.16202
v 0.66915 -0.54557 0.17207
v 0.68259 -0.55855 0.16797
v 0.73215 -0.51382 0.13768
v 0.72623 -0.51424 0.11949
v 0.71193 -0.50610 0.10973
v 0.69762 -0.49416 0.11411
v 0.69170 -0.48543 0.13007
v 0.69762 -0.48501 0.14826
v 0.71193 -0.49316 0.15802
v 0.72623 -0.50509 0.15364
v 0.77163 -0.45675 0.12239
v 0.76539 -0.45763 0.10432
v 0.75031 -0.45060 0.09486
v 0.73524 -0.43978 0.09954
v 0.72900 -0.43151 0.11562
v 0.73524 -0.43063 0.13369
v 0.75031 -0.43766 0.14315
v 0.76539 -0.44848 0.13847
v 0.80635 -0.39686 0.10634
v 0.79983 -0.39823 0.08840
v 0.78408 -0.39237 0.07925
v 0.76833 -0.38272 0.08425
v 0.76180 -0.37494 0.10046
v 0.76833 -0.37357 0.11840
v 0.78408 -0.37943 0.12755
v 0.79983 -0.38908 0.12255
v 0.83610 -0.33453 0.08964
v 0.82934 -0.33640 0.07184
v 0.81300 -0.33176 0.06301
v 0.79667 -0.32333 0.06833
v 0.78991 -0.31605 0.08468
v 0.79667 -0.31418 0.10248
v 0.81300 -0.31882 0.11131
v 0.82934 -0.32725 0.10599
v 0.86070 -0.27013 0.07238
v 0.85373 -0.27252 0.05472
v 0.83692 -0.26914 0.04623
v 0.82011 -0.26197 0.05189
v 0.81314 -0.25521 0.06838
v 0.82011 -0.25282 0.08604
v 0.83692 -0.25620 0.09453
v 0.85373 -0.26337 0.08887
v 0.87999 -0.20407 0.05468
v 0.87287 -0.20699 0.03716
v 0.85568 -0.20490 0.02902
v 0.83849 -0.19902 0.03503
v 0.83137 -0.19279 0.05166
v 0.83849 -0.18987 0.06918
v 0.85568 -0.19196 0.07732
v 0.87287 -0.19784 0.07131
v 0.89385 -0.13675 0.03664
v 0.88662 -0.14022 0.01927
v 0.86916 -0.13944 0.01148
v 0.85170 -0.13488 0.01784
v 0.84446 -0.12919 0.03462
v 0.85170 -0.12572 0.05199
v 0.86916 -0.12650 0.05978
v 0.88662 -0.13107 0.05342
v 0.90220 -0.06859 0.01838
v 0.89490 -0.07261 0.00115
v 0.87728 -0.07316 -0.00628
v 0.85965 -0.06993 0.00044
v 0.85235 -0.06480 0.01736
v 0.85965 -0.06078 0.03459
v 0.87728 -0.06022 0.04202
v 0.89490 -0.06346 0.03530
v 0.90499 0.00000 0.00000
v 0.89767 -0.00458 -0.01708
v 0.87999 -0.00647 -0.02415
v 0.86231 -0.00458 -0.01708
v 0.85499 0.00000 0.00000
v 0.86231 0.00458 0.01708
v 0.87999 0.00647 0.02415
v 0.89767 0.00458 0.01708
v 0.90220 0.06859 -0.01838
v 0.89490 0.06346 -0.03530
v 0.87728 0.06022 -0.04202
v 0.85965 0.06078 -0.03459
v 0.85235 0.06480 -0.01736
v 0.85965 0.06993 -0.00044
v 0.87728 0.07316 0.00628
v 0.89490 0.07261 -0.00115
v 0.89385 0.13675 -0.03664
v 0.88662 0.13107 -0.05342
v 0.86916 0.12650 -0.05978
v 0.85170 0.12573 -0.05199
v 0.84446 0.12919 -0.03462
v 0.85170 0.13488 -0.01784
v 0.86916 0.13944 -0.01148
v 0.88662 0.14022 -0.01927
v 0.87999 0.20407 -0.05468
v 0.87287 0.19784 -0.07131
v 0.85568 0.19196 -0.07732
v 0.83849 0.18987 -0.06918
v 0.83137 0.19279 -0.05166
v 0.83849 0.19902 -0.03503
v 0.85568 0.20490 -0.02902
v 0.87287 0.20699 -0.03716
v 0.86070 0.27013 -0.07238
v 0.85373 0.26337 -0.08887
v 0.83692 0.25620 -0.09453
v 0.82011 0.25282 -0.08604
v 0.81314 0.25521 -0.06838
v 0.82011 0.26197 -0.05189
v 0.83692 0.26914 -0.04623
v 0.85373 0.27252 -0.05472
v 0.83610 0.33453 -0.08964
v 0.82934 0.32725 -0.10599
v 0.81300 0.31882 -0.11131
v 0.79667 0.31418 -0.10248
v 0.78991 0.31605 -0.08468
v 0.79667 0.32333 -0.06833
v 0.81300 0.33176 -0.06301
v 0.82934 0.33640 -0.07184
v 0.80635 0.39686 -0.10634
v 0.79983 0.38908 -0.12255
v 0.78408 0.37943 -0.12755
v 0.76833 0.37357 -0.11840
v 0.76180 0.37494 -0.10046
v 0.76833 0.38272 -0.08425
v 0.78408 0.39237 -0.07925
v 0.79983 0.39823 -0.08840
v 0.77163 0.45675 -0.12239
v 0.76539 0.44848 -0.13847
v 0.75031 0.43766 -0.14315
v 0.73524 0.43063 -0.13369
v 0.72900 0.43151 -0.11562
v 0.73524 0.43979 -0.09954
v 0.75031 0.45060 -0.09486
v 0.76539 0.45763 -0.10432
v 0.73215 0.51382 -0.13768
v 0.72623 0.50509 -0.15364
v 0.71193 0.49316 -0.15802
v 0.69762 0.48501 -0.14826
v 0.69170 0.48543 -0.13007
v 0.69762 0.49417 -0.11411
v 0.71193 0.50610 -0.10973
v 0.72623 0.51424 -0.11949
v 0.68816 0.56772 -0.15212
v 0.68259 0.55855 -0.16797
v 0.66915 0.54557 -0.17207
v 0.65571 0.53638 -0.16202
v 0.65014 0.53636 -0.14372
v 0.65571 0.54553 -0.12787
v 0.66915 0.55851 -0.12377
v 0.68259 0.56771 -0.13381
v 0.63992 0.61813 -0.16563
v 0.63474 0.60855 -0.18136
v 0.62224 0.59458 -0.18520
v 0.60974 0.58440 -0.17489
v 0.60457 0.58398 -0.15648
v 0.60974 0.59355 -0.14074
v 0.62224 0.60752 -0.13690
v 0.63474 0.61770 -0.14721
v 0.58774 0.66472 -0.17811
v 0.58299 0.65477 -0.19375
v 0.57150 0.63989 -0.19734
v 0.56002 0.62880 -0.18679
v 0.55527 0.62799 -0.16827
v 0.56002 0.63795 -0.15264
v 0.57150 0.65283 -0.14904
v 0.58299 0.66392 -0.15959
v 0.53194 0.70721 -0.18950
v 0.52763 0.69692 -0.20504
v 0.51724 0.68121 -0.20841
v 0.50685 0.66929 -0.19764
v 0.50255 0.66814 -0.17903
v 0.50685 0.67844 -0.16349
v 0.51724 0.69415 -0.16011
v 0.52763 0.70607 -0.17089
v 0.47285 0.74535 -0.19971
v 0.46903 0.73474 -0.21517
v 0.45979 0.71829 -0.21835
v 0.45055 0.70562 -0.20737
v 0.44673 0.70417 -0.18868
v 0.45055 0.71477 -0.17322
v 0.45979 0.73123 -0.17005
v 0.46903 0.74389 -0.18102
v 0.41085 0.77889 -0.20870
v 0.40753 0.76801 -0.22409
v 0.39950 0.75090 -0.22708
v 0.39148 0.73758 -0.21594
v 0.38815 0.73585 -0.19717
v 0.39148 0.74673 -0.18178
v 0.39950 0.76384 -0.17879
v 0.40753 0.77716 -0.18994
v 0.34632 0.80762 -0.21640
v 0.34352 0.79651 -0.23173
v 0.33675 0.77884 -0.23457
v 0.32999 0.76496 -0.22327
v 0.32718 0.76300 -0.20445
v 0.32999 0.77411 -0.18912
v 0.33675 0.79178 -0.18628
v 0.34352 0.80566 -0.19758
v 0.27965 0.83138 -0.22277
v 0.27739 0.82008 -0.23804
v 0.27193 0.80194 -0.24076
v 0.26646 0.78760 -0.22934
v 0.26420 0.78545 -0.21046
v 0.26646 0.79675 -0.19519
v 0.27193 0.81488 -0.19247
v 0.27739 0.82923 -0.20389
v 0.21126 0.85001 -0.22776
v 0.20955 0.83856 -0.24299
v 0.20542 0.82006 -0.24562
v 0.20130 0.80535 -0.23409
v 0.19959 0.80305 -0.21518
v 0.20130 0.81450 -0.19994
v 0.20542 0.83300 -0.19732
v 0.20955 0.84771 -0.20884
v 0.14156 0.86340 -0.23135
v 0.14042 0.85184 -0.24655
v 0.13765 0.83308 -0.24910
v 0.13489 0.81811 -0.23751
v 0.13374 0.81570 -0.21857
v 0.13489 0.82726 -0.20336
v 0.13765 0.84602 -0.20081
v 0.14042 0.86099 -0.21240
v 0.07100 0.87147 -0.23351
v 0.07042 0.85984 -0.24870
v 0.06903 0.84092 -0.25121
v 0.06765 0.82580 -0.23957
v 0.06707 0.82332 -0.22061
v 0.06765 0.83495 -0.20542
v 0.06903 0.85387 -0.20291
v 0.07042 0.86899 -0.21454
v -0.00001 0.87416 -0.23423
v -0.00001 0.86251 -0.24941
v -0.00001 0.84354 -0.25191
v -0.00001 0.82836 -0.24026
v -0.00001 0.82587 -0.22129
v -0.00001 0.83751 -0.20611
v -0.00001 0.85649 -0.20361
v -0.00001 0.87167 -0.21526
v -0.07102 0.87147 -0.23351
v -0.07044 0.85984 -0.24870
v -0.06905 0.84092 -0.25121
v -0.06767 0.82580 -0.23957
v -0.06709 0.82332 -0.22061
v -0.06767 0.83495 -0.20542
v -0.06905 0.85387 -0.20291
v -0.07044 0.86899 -0.21454
v -0.14158 0.86340 -0.23135
v -0.14044 0.85184 -0.24655
v -0.13767 0.83308 -0.24910
v -0.13491 0.81811 -0.23751
v -0.13376 0.81570 -0.21857
v -0.13491 0.82726 -0.20336
v -0.13767 0.84602 -0.20081
v -0.14044 0.86099 -0.21240
v -0.21128 0.85001 -0.22776
v -0.20957 0.83856 -0.24299
v -0.20544 0.82006 -0.24562
v -0.20131 0.80535 -0.23409
v -0.19961 0.80305 -0.21518
v -0.20131 0.81450 -0.19994
v -0.20544 0.83300 -0.19732
v -0.20957 0.84771 -0.20884
v -0.27967 0.83138 -0.22277
v -0.27741 0.82008 -0.23804
v -0.27194 0.80194 -0.24076
v -0.26648 0.78760 -0.22934
v -0.26422 0.78545 -0.21046
v -0.26648 0.79675 -0.19519
v -0.27194 0.81488 -0.19247
v -0.27741 0.82923 -0.20389
v -0.34634 0.80762 -0.21640
v -0.34354 0.79651 -0.23173
v -0.33677 0.77884 -0.23457
v -0.33001 0.76496 -0.22327
v -0.32720 0.76300 -0.20445
v -0.33001 0.77411 -0.18912
v -0.33677 0.79178 -0.18628
v -0.34354 0.80566 -0.19758
v -0.41087 0.77889 -0.20870
v -0.40755 0.76801 -0.22409
v -0.39952 0.75090 -0.22708
v -0.39150 0.73758 -0.21594
v -0.38817 0.73585 -0.19717
v -0.39150 0.74673 -0.18178
v -0.39952 0.76384 -0.17879
v -0.40755 0.77716 -0.18994
v -0.47287 0.74535 -0.19971
v -0.46904 0.73474 -0.21517
v -0.45981 0.71829 -0.21835
v -0.45057 0.70562 -0.20737
v -0.44675 0.70417 -0.18868
v -0.45057 0.71477 -0.17322
v -0.45981 0.73123 -0.17005
v -0.46904 0.74389 -0.18102
v -0.53196 0.70721 -0.18950
v -0.52765 0.69692 -0.20504
v -0.51726 0.68121 -0.20841
v -0.50687 0.66929 -0.19764
v -0.50257 0.66814 -0.17903
v -0.50687 0.67844 -0.16349
v -0.51726 0.69415 -0.16011
v -0.52765 0.70607 -0.17089
v -0.58776 0.66472 -0.17811
v -0.58300 0.65477 -0.19375
v -0.57152 0.63989 -0.19734
v -0.56004 0.62880 -0.18679
v -0.55529 0.62799 -0.16827
v -0.56004 0.63795 -0.15264
v -0.57152 0.65283 -0.14904
v -0.58300 0.66392 -0.15959
v -0.63994 0.61813 -0.16563
v -0.63476 0.60855 -0.18136
v -0.62226 0.59458 -0.18520
v -0.60976 0.58440 -0.17489
v -0.60459 0.58398 -0.15648
v -0.60976 0.59355 -0.14074
v -0.62226 0.60752 -0.13690
v -0.63476 0.61770 -0.14721
v -0.68818 0.56772 -0.15212
v -0.68261 0.55855 -0.16797
v -0.66917 0.54557 -0.17207
v -0.65572 0.53638 -0.16202
v -0.65016 0.53636 -0.14372
v -0.65572 0.54553 -0.12787
v -0.66917 0.55851 -0.12377
v -0.68261 0.56771 -0.13381
v -0.73217 0.51382 -0.13768
v -0.72625 0.50509 -0.15364
v -0.71194 0.49316 -0.15802
v -0.69764 0.48501 -0.14826
v -0.69172 0.48543 -0.13007
v -0.69764 0.49417 -0.11411
v -0.71194 0.50610 -0.10973
v -0.72625 0.51424 -0.11949
v -0.77165 0.45675 -0.12239
v -0.76541 0.44848 -0.13847
v -0.75033 0.43766 -0.14315
v -0.73526 0.43063 -0.13369
v -0.72902 0.43151 -0.11562
v -0.73526 0.43979 -0.09954
v -0.75033 0.45060 -0.09486
v -0.76541 0.45763 -0.10432
v -0.80637 0.39686 -0.10634
v -0.79985 0.38908 -0.12255
v -0.78410 0.37943 -0.12755
v -0.76834 0.37357 -0.11840
v -0.76182 0.37494 -0.10046
v -0.76834 0.38272 -0.08425
v -0.78410 0.39237 -0.07925
v -0.79985 0.39823 -0.08840
v -0.83612 0.33453 -0.08964
v -0.82936 0.32725 -0.10599
v -0.81302 0.31882 -0.11131
v -0.79669 0.31418 -0.10248
v -0.78993 0.31605 -0.08468
v -0.79669 0.32333 -0.06833
v -0.81302 0.33176 -0.06301
v -0.82936 0.33640 -0.07184
v -0.86072 0.27013 -0.07238
v -0.85375 0.26337 -0.08887
v -0.83694 0.25620 -0.09453
v -0.82013 0.25282 -0.08604
v -0.81316 0.25521 -0.06838
v -0.82013 0.26197 -0.05189
v -0.83694 0.26914 -0.04623
v -0.85375 0.27252 -0.05472
v -0.88000 0.20407 -0.05468
v -0.87288 0.19784 -0.07131
v -0.85570 0.19196 -0.07732
v -0.83851 0.18987 -0.06918
v -0.83139 0.19279 -0.05166
v -0.83851 0.19902 -0.03503
v -0.85570 0.20490 -0.02902
v -0.87288 0.20699 -0.03716
v -0.89387 0.13675 -0.03664
v -0.88664 0.13107 -0.05342
v -0.86918 0.12650 -0.05978
v -0.85172 0.12573 -0.05199
v -0.84448 0.12919 -0.03462
v -0.85172 0.13488 -0.01784
v -0.86918 0.13944 -0.01148
v -0.88664 0.14022 -0.01927
v -0.90222 0.06859 -0.01838
v -0.89492 0.06346 -0.03530
v -0.87730 0.06022 -0.04202
v -0.85967 0.06078 -0.03459
v -0.85237 0.06480 -0.01736
v -0.85967 0.06993 -0.00044
v -0.87730 0.07316 0.00628
v -0.89492 0.07261 -0.00115
v -0.90499 0.00095 -0.00025
v -0.89767 -0.00390 -0.01725
v -0.88001 -0.00647 -0.02415
v -0.86235 -0.00525 -0.01690
v -0.85503 -0.00095 0.00025
v -0.86235 0.00391 0.01725
v -0.88001 0.00647 0.02415
v -0.89767 0.00525 0.01690
f 1 10 9
f 2 11 10
f 3 12 11
f 4 13 12
f 6 13 5
f 7 14 6
f 8 15 7
f 1 16 8
f 9 18 17
f 11 18 10
f 11 20 19
f 12 21 20
f 14 21 13
f 15 22 14
f 15 24 23
f 9 24 16
f 17 26 25
f 19 26 18
f 20 27 19
f 21 28 20
f 22 29 21
f 22 31 30
f 23 32 31
f 24 25 32
f 26 33 25
f 27 34 26
f 28 35 27
f 29 36 28
f 30 37 29
f 30 39 38
f 32 39 31
f 32 33 40
f 33 42 41
f 34 43 42
f 36 43 35
f 36 45 44
f 38 45 37
f 39 46 38
f 39 48 47
f 33 48 40
f 41 50 49
f 42 51 50
f 44 51 43
f 44 53 52
f 45 54 53
f 47 54 46
f 47 56 55
f 48 49 56
f 49 58 57
f 50 59 58
f 51 60 59
f 53 60 52
f 53 62 61
f 54 63 62
f 56 63 55
f 56 57 64
f 57 66 65
f 58 67 66
f 60 67 59
f 61 68 60
f 62 69 61
f 62 71 70
f 63 72 71
f 57 72 64
f 65 74 73
f 66 75 74
f 68 75 67
f 69 76 68
f 70 77 69
f 70 79 78
f 71 80 79
f 65 80 72
f 73 82 81
f 74 83 82
f 75 84 83
f 76 85 84
f 78 85 77
f 78 87 86
f 79 88 87
f 80 81 88
f 82 89 81
f 83 90 82
f 84 91 83
f 84 93 92
f 85 94 93
f 87 94 86
f 87 96 95
f 81 96 88
f 90 97 89
f 91 98 90
f 92 99 91
f 93 100 92
f 93 102 101
f 95 102 94
f 95 104 103
f 96 97 104
f 98 105 97
f 98 107 106
f 100 107 99
f 101 108 100
f 101 110 109
f 103 110 102
f 104 111 103
f 104 105 112
f 106 113 105
f 107 114 106
f 108 115 107
f 109 116 108
f 109 118 117
f 111 118 110
f 112 119 111
f 112 113 120
f 114 121 113
f 115 122 114
f 116 123 115
f 117 124 116
f 117 126 125
f 119 126 118
f 120 127 119
f 113 128 120
f 122 129 121
f 122 131 130
f 124 131 123
f 125 132 124
f 125 134 133
f 127 134 126
f 128 135 127
f 128 129 136
f 130 137 129
f 130 139 138
f 132 139 131
f 132 141 140
f 133 142 141
f 135 142 134
f 136 143 135
f 136 137 144
f 138 145 137
f 139 146 138
f 140 147 139
f 141 148 140
f 141 150 149
f 143 150 142
f 143 152 151
f 144 145 152
f 145 154 153
f 146 155 154
f 147 156 155
f 148 157 156
f 149 158 157
f 151 158 150
f 152 159 151
f 145 160 152
f 154 161 153
f 155 162 154
f 156 163 155
f 157 164 156
f 158 165 157
f 158 167 166
f 160 167 159
f 153 168 160
f 162 169 161
f 162 171 170
f 163 172 171
f 164 173 172
f 166 173 165
f 166 175 174
f 168 175 167
f 161 176 168
f 170 177 169
f 171 178 170
f 172 179 171
f 173 180 172
f 174 181 173
f 174 183 182
f 175 184 183
f 169 184 176
f 177 186 185
f 178 187 186
f 179 188 187
f 181 188 180
f 182 189 181
f 182 191 190
f 184 191 183
f 177 192 184
f 185 194 193
f 187 194 186
f 187 196 195
f 189 196 188
f 190 197 189
f 190 199 198
f 191 200 199
f 185 200 192
f 193 202 201
f 195 202 194
f 196 203 195
f 196 205 204
f 198 205 197
f 198 207 206
f 199 208 207
f 193 208 200
f 201 210 209
f 202 211 210
f 203 212 211
f 204 213 212
f 206 213 205
f 206 215 214
f 208 215 207
f 208 209 216
f 210 217 209
f 210 219 218
f 211 220 219
f 212 221 220
f 214 221 213
f 215 222 214
f 215 224 223
f 209 224 216
f 217 226 225
f 219 226 218
f 219 228 227
f 221 228 220
f 222 229 221
f 222 231 230
f 223 232 231
f 217 232 224
f 226 233 225
f 226 235 234
f 227 236 235
f 228 237 236
f 230 237 229
f 230 239 238
f 232 239 231
f 225 240 232
f 233 242 241
f 235 242 234
f 236 243 235
f 237 244 236
f 238 245 237
f 239 246 238
f 240 247 239
f 233 248 240
f 242 249 241
f 242 251 250
f 244 251 243
f 244 253 252
f 246 253 245
f 247 254 246
f 248 255 247
f 248 249 256
f 250 257 249
f 251 258 250
f 251 260 259
f 252 261 260
f 253 262 261
f 255 262 254
f 256 263 255
f 256 257 264
f 258 265 257
f 259 266 258
f 259 268 267
f 260 269 268
f 261 270 269
f 262 271 270
f 264 271 263
f 264 265 272
f 266 273 265
f 267 274 266
f 268 275 267
f 268 277 276
f 270 277 269
f 271 278 270
f 271 280 279
f 272 273 280
f 274 281 273
f 275 282 274
f 275 284 283
f 277 284 276
f 278 285 277
f 279 286 278
f 280 287 279
f 273 288 280
f 282 289 281
f 283 290 282
f 283 292 291
f 285 292 284
f 286 293 285
f 286 295 294
f 288 295 287
f 288 289 296
f 289 298 297
f 290 299 298
f 291 300 299
f 293 300 292
f 293 302 301
f 295 302 294
f 296 303 295
f 296 297 304
f 298 305 297
f 298 307 306
f 299 308 307
f 300 309 308
f 302 309 301
f 303 310 302
f 304 311 303
f 297 312 304
f 305 314 313
f 306 315 314
f 308 315 307
f 309 316 308
f 309 318 317
f 311 318 310
f 312 319 311
f 312 313 320
f 314 321 313
f 314 323 322
f 316 323 315
f 317 324 316
f 317 326 325
f 318 327 326
f 319 328 327
f 320 321 328
f 321 330 329
f 323 330 322
f 324 331 323
f 324 333 332
f 326 333 325
f 327 334 326
f 328 335 327
f 321 336 328
f 330 337 329
f 331 338 330
f 331 340 339
f 332 341 340
f 333 342 341
f 334 343 342
f 335 344 343
f 329 344 336
f 338 345 337
f 339 346 338
f 340 347 339
f 341 348 340
f 341 350 349
f 342 351 350
f 344 351 343
f 337 352 344
f 346 353 345
f 346 355 354
f 347 356 355
f 348 357 356
f 349 358 357
f 351 358 350
f 352 359 351
f 345 360 352
f 353 362 361
f 355 362 354
f 356 363 355
f 356 365 364
f 358 365 357
f 358 367 366
f 360 367 359
f 353 368 360
f 362 369 361
f 362 371 370
f 363 372 371
f 364 373 372
f 365 374 373
f 366 375 374
f 368 375 367
f 368 369 376
f 369 378 377
f 370 379 378
f 371 380 379
f 372 381 380
f 374 381 373
f 375 382 374
f 376 383 375
f 376 377 384
f 377 386 385
f 379 386 378
f 380 387 379
f 380 389 388
f 382 389 381
f 383 390 382
f 383 392 391
f 377 392 384
f 385 394 393
f 386 395 394
f 388 395 387
f 388 397 396
f 390 397 389
f 391 398 390
f 391 400 399
f 385 400 392
f 393 402 401
f 394 403 402
f 396 403 395
f 396 405 404
f 398 405 397
f 399 406 398
f 399 408 407
f 393 408 400
f 401 410 409
f 402 411 410
f 404 411 403
f 404 413 412
f 406 413 405
f 407 414 406
f 407 416 415
f 408 409 416
f 409 418 417
f 410 419 418
f 412 419 411
f 412 421 420
f 414 421 413
f 415 422 414
f 416 423 415
f 416 417 424
f 417 426 425
f 418 427 426
f 420 427 419
f 421 428 420
f 421 430 429
f 423 430 422
f 423 432 431
f 424 425 432
f 425 434 433
f 426 435 434
f 428 435 427
f 429 436 428
f 429 438 437
f 431 438 430
f 432 439 431
f 432 433 440
f 434 441 433
f 434 443 442
f 436 443 435
f 437 444 436
f 437 446 445
f 439 446 438
f 439 448 447
f 440 441 448
f 442 449 441
f 443 450 442
f 443 452 451
f 445 452 444
f 445 454 453
f 447 454 446
f 447 456 455
f 448 449 456
f 450 457 449
f 450 459 458
f 452 459 451
f 452 461 460
f 453 462 461
f 455 462 454
f 455 464 463
f 456 457 464
f 457 466 465
f 458 467 466
f 460 467 459
f 461 468 460
f 461 470 469
f 462 471 470
f 464 471 463
f 457 472 464
f 466 473 465
f 467 474 466
f 467 476 475
f 468 477 476
f 469 478 477
f 471 478 470
f 471 480 479
f 472 473 480
f 474 481 473
f 475 482 474
f 476 483 475
f 477 484 476
f 477 486 485
f 479 486 478
f 480 487 479
f 473 488 480
f 481 490 489
f 482 491 490
f 483 492 491
f 485 492 484
f 486 493 485
f 486 495 494
f 488 495 487
f 488 489 496
f 489 498 497
f 491 498 490
f 492 499 491
f 493 500 492
f 494 501 493
f 494 503 502
f 496 503 495
f 496 497 504
f 498 505 497
f 499 506 498
f 499 508 507
f 500 509 508
f 502 509 501
f 503 510 502
f 504 511 503
f 504 505 512
f 506 513 505
f 506 515 514
f 507 516 515
f 509 516 508
f 509 518 517
f 510 519 518
f 512 519 511
f 512 513 520
f 513 522 521
f 514 523 522
f 515 524 523
f 516 525 524
f 518 525 517
f 518 527 526
f 520 527 519
f 513 528 520
f 521 530 529
f 523 530 522
f 523 532 531
f 524 533 532
f 526 533 525
f 526 535 534
f 528 535 527
f 521 536 528
f 530 537 529
f 531 538 530
f 531 540 539
f 532 541 540
f 533 542 541
f 534 543 542
f 536 543 535
f 529 544 536
f 538 545 537
f 539 546 538
f 540 547 539
f 540 549 548
f 542 549 541
f 542 551 550
f 544 551 543
f 537 552 544
f 545 554 553
f 547 554 546
f 547 556 555
f 549 556 548
f 549 558 557
f 550 559 558
f 551 560 559
f 545 560 552
f 554 561 553
f 555 562 554
f 555 564 563
f 557 564 556
f 558 565 557
f 558 567 566
f 560 567 559
f 553 568 560
f 562 569 561
f 563 570 562
f 563 572 571
f 565 572 564
f 565 574 573
f 566 575 574
f 568 575 567
f 568 569 576
f 570 577 569
f 571 578 570
f 571 580 579
f 573 580 572
f 573 582 581
f 574 583 582
f 576 583 575
f 576 577 584
f 578 585 577
f 578 587 586
f 579 588 587
f 581 588 580
f 581 590 589
f 582 591 590
f 584 591 583
f 584 585 592
f 586 593 585
f 587 594 586
f 588 595 587
f 589 596 588
f 589 598 597
f 590 599 598
f 591 600 599
f 585 600 592
f 593 602 601
f 595 602 594
f 596 603 595
f 597 604 596
f 598 605 597
f 599 606 598
f 599 608 607
f 593 608 600
f 602 609 601
f 602 611 610
f 603 612 611
f 605 612 604
f 605 614 613
f 607 614 606
f 607 616 615
f 608 609 616
f 610 617 609
f 611 618 610
f 612 619 611
f 613 620 612
f 614 621 613
f 615 622 614
f 616 623 615
f 616 617 624
f 618 625 617
f 618 627 626
f 619 628 627
f 620 629 628
f 622 629 621
f 623 630 622
f 624 631 623
f 624 625 632
f 625 634 633
f 626 635 634
f 627 636 635
f 629 636 628
f 630 637 629
f 631 638 630
f 631 640 639
f 632 633 640
f 634 641 633
f 635 642 634
f 636 643 635
f 637 644 636
f 637 646 645
f 638 647 646
f 639 648 647
f 640 641 648
f 1 2 10
f 2 3 11
f 3 4 12
f 4 5 13
f 6 14 13
f 7 15 14
f 8 16 15
f 1 9 16
f 9 10 18
f 11 19 18
f 11 12 20
f 12 13 21
f 14 22 21
f 15 23 22
f 15 16 24
f 9 17 24
f 17 18 26
f 19 27 26
f 20 28 27
f 21 29 28
f 22 30 29
f 22 23 31
f 23 24 32
f 24 17 25
f 26 34 33
f 27 35 34
f 28 36 35
f 29 37 36
f 30 38 37
f 30 31 39
f 32 40 39
f 32 25 33
f 33 34 42
f 34 35 43
f 36 44 43
f 36 37 45
f 38 46 45
f 39 47 46
f 39 40 48
f 33 41 48
f 41 42 50
f 42 43 51
f 44 52 51
f 44 45 53
f 45 46 54
f 47 55 54
f 47 48 56
f 48 41 49
f 49 50 58
f 50 51 59
f 51 52 60
f 53 61 60
f 53 54 62
f 54 55 63
f 56 64 63
f 56 49 57
f 57 58 66
f 58 59 67
f 60 68 67
f 61 69 68
f 62 70 69
f 62 63 71
f 63 64 72
f 57 65 72
f 65 66 74
f 66 67 75
f 68 76 75
f 69 77 76
f 70 78 77
f 70 71 79
f 71 72 80
f 65 73 80
f 73 74 82
f 74 75 83
f 75 76 84
f 76 77 85
f 78 86 85
f 78 79 87
f 79 80 88
f 80 73 81
f 82 90 89
f 83 91 90
f 84 92 91
f 84 85 93
f 85 86 94
f 87 95 94
f 87 88 96
f 81 89 96
f 90 98 97
f 91 99 98
f 92 100 99
f 93 101 100
f 93 94 102
f 95 103 102
f 95 96 104
f 96 89 97
f 98 106 105
f 98 99 107
f 100 108 107
f 101 109 108
f 101 102 110
f 103 111 110
f 104 112 111
f 104 97 105
f 106 114 113
f 107 115 114
f 108 116 115
f 109 117 116
f 109 110 118
f 111 119 118
f 112 120 119
f 112 105 113
f 114 122 121
f 115 123 122
f 116 124 123
f 117 125 124
f 117 118 126
f 119 127 126
f 120 128 127
f 113 121 128
f 122 130 129
f 122 123 131
f 124 132 131
f 125 133 132
f 125 126 134
f 127 135 134
f 128 136 135
f 128 121 129
f 130 138 137
f 130 131 139
f 132 140 139
f 132 133 141
f 133 134 142
f 135 143 142
f 136 144 143
f 136 129 137
f 138 146 145
f 139 147 146
f 140 148 147
f 141 149 148
f 141 142 150
f 143 151 150
f 143 144 152
f 144 137 145
f 145 146 154
f 146 147 155
f 147 148 156
f 148 149 157
f 149 150 158
f 151 159 158
f 152 160 159
f 145 153 160
f 154 162 161
f 155 163 162
f 156 164 163
f 157 165 164
f 158 166 165
f 158 159 167
f 160 168 167
f 153 161 168
f 162 170 169
f 162 163 171
f 163 164 172
f 164 165 173
f 166 174 173
f 166 167 175
f 168 176 175
f 161 169 176
f 170 178 177
f 171 179 178
f 172 180 179
f 173 181 180
f 174 182 181
f 174 175 183
f 175 176 184
f 169 177 184
f 177 178 186
f 178 179 187
f 179 180 188
f 181 189 188
f 182 190 189
f 182 183 191
f 184 192 191
f 177 185 192
f 185 186 194
f 187 195 194
f 187 188 196
f 189 197 196
f 190 198 197
f 190 191 199
f 191 192 200
f 185 193 200
f 193 194 202
f 195 203 202
f 196 204 203
f 196 197 205
f 198 206 205
f 198 199 207
f 199 200 208
f 193 201 208
f 201 202 210
f 202 203 211
f 203 204 212
f 204 205 213
f 206 214 213
f 206 207 215
f 208 216 215
f 208 201 209
f 210 218 217
f 210 211 219
f 211 212 220
f 212 213 221
f 214 222 221
f 215 223 222
f 215 216 224
f 209 217 224
f 217 218 226
f 219 227 226
f 219 220 228
f 221 229 228
f 222 230 229
f 222 223 231
f 223 224 232
f 217 225 232
f 226 234 233
f 226 227 235
f 227 228 236
f 228 229 237
f 230 238 237
f 230 231 239
f 232 240 239
f 225 233 240
f 233 234 242
f 235 243 242
f 236 244 243
f 237 245 244
f 238 246 245
f 239 247 246
f 240 248 247
f 233 241 248
f 242 250 249
f 242 243 251
f 244 252 251
f 244 245 253
f 246 254 253
f 247 255 254
f 248 256 255
f 248 241 249
f 250 258 257
f 251 259 258
f 251 252 260
f 252 253 261
f 253 254 262
f 255 263 262
f 256 264 263
f 256 249 257
f 258 266 265
f 259 267 266
f 259 260 268
f 260 261 269
f 261 262 270
f 262 263 271
f 264 272 271
f 264 257 265
f 266 274 273
f 267 275 274
f 268 276 275
f 268 269 277
f 270 278 277
f 271 279 278
f 271 272 280
f 272 265 273
f 274 282 281
f 275 283 282
f 275 276 284
f 277 285 284
f 278 286 285
f 279 287 286
f 280 288 287
f 273 281 288
f 282 290 289
f 283 291 290
f 283 284 292
f 285 293 292
f 286 294 293
f 286 287 295
f 288 296 295
f 288 281 289
f 289 290 298
f 290 291 299
f 291 292 300
f 293 301 300
f 293 294 302
f 295 303 302
f 296 304 303
f 296 289 297
f 298 306 305
f 298 299 307
f 299 300 308
f 300 301 309
f 302 310 309
f 303 311 310
f 304 312 311
f 297 305 312
f 305 306 314
f 306 307 315
f 308 316 315
f 309 317 316
f 309 310 318
f 311 319 318
f 312 320 319
f 312 305 313
f 314 322 321
f 314 315 323
f 316 324 323
f 317 325 324
f 317 318 326
f 318 319 327
f 319 320 328
f 320 313 321
f 321 322 330
f 323 331 330
f 324 332 331
f 324 325 333
f 326 334 333
f 327 335 334
f 328 336 335
f 321 329 336
f 330 338 337
f 331 339 338
f 331 332 340
f 332 333 341
f 333 334 342
f 334 335 343
f 335 336 344
f 329 337 344
f 338 346 345
f 339 347 346
f 340 348 347
f 341 349 348
f 341 342 350
f 342 343 351
f 344 352 351
f 337 345 352
f 346 354 353
f 346 347 355
f 347 348 356
f 348 349 357
f 349 350 358
f 351 359 358
f 352 360 359
f 345 353 360
f 353 354 362
f 355 363 362
f 356 364 363
f 356 357 365
f 358 366 365
f 358 359 367
f 360 368 367
f 353 361 368
f 362 370 369
f 362 363 371
f 363 364 372
f 364 365 373
f 365 366 374
f 366 367 375
f 368 376 375
f 368 361 369
f 369 370 378
f 370 371 379
f 371 372 380
f 372 373 381
f 374 382 381
f 375 383 382
f 376 384 383
f 376 369 377
f 377 378 386
f 379 387 386
f 380 388 387
f 380 381 389
f 382 390 389
f 383 391 390
f 383 384 392
f 377 385 392
f 385 386 394
f 386 387 395
f 388 396 395
f 388 389 397
f 390 398 397
f 391 399 398
f 391 392 400
f 385 393 400
f 393 394 402
f 394 395 403
f 396 404 403
f 396 397 405
f 398 406 405
f 399 407 406
f 399 400 408
f 393 401 408
f 401 402 410
f 402 403 411
f 404 412 411
f 404 405 413
f 406 414 413
f 407 415 414
f 407 408 416
f 408 401 409
f 409 410 418
f 410 411 419
f 412 420 419
f 412 413 421
f 414 422 421
f 415 423 422
f 416 424 423
f 416 409 417
f 417 418 426
f 418 419 427
f 420 428 427
f 421 429 428
f 421 422 430
f 423 431 430
f 423 424 432
f 424 417 425
f 425 426 434
f 426 427 435
f 428 436 435
f 429 437 436
f 429 430 438
f 431 439 438
f 432 440 439
f 432 425 433
f 434 442 441
f 434 435 443
f 436 444 443
f 437 445 444
f 437 438 446
f 439 447 446
f 439 440 448
f 440 433 441
f 442 450 449
f 443 451 450
f 443 444 452
f 445 453 452
f 445 446 454
f 447 455 454
f 447 448 456
f 448 441 449
f 450 458 457
f 450 451 459
f 452 460 459
f 452 453 461
f 453 454 462
f 455 463 462
f 455 456 464
f 456 449 457
f 457 458 466
f 458 459 467
f 460 468 467
f 461 469 468
f 461 462 470
f 462 463 471
f 464 472 471
f 457 465 472
f 466 474 473
f 467 475 474
f 467 468 476
f 468 469 477
f 469 470 478
f 471 479 478
f 471 472 480
f 472 465 473
f 474 482 481
f 475 483 482
f 476 484 483
f 477 485 484
f 477 478 486
f 479 487 486
f 480 488 487
f 473 481 488
f 481 482 490
f 482 483 491
f 483 484 492
f 485 493 492
f 486 494 493
f 486 487 495
f 488 496 495
f 488 481 489
f 489 490 498
f 491 499 498
f 492 500 499
f 493 501 500
f 494 502 501
f 494 495 503
f 496 504 503
f 496 489 497
f 498 506 505
f 499 507 506
f 499 500 508
f 500 501 509
f 502 510 509
f 503 511 510
f 504 512 511
f 504 497 505
f 506 514 513
f 506 507 515
f 507 508 516
f 509 517 516
f 509 510 518
f 510 511 519
f 512 520 519
f 512 505 513
f 513 514 522
f 514 515 523
f 515 516 524
f 516 517 525
f 518 526 525
f 518 519 527
f 520 528 527
f 513 521 528
f 521 522 530
f 523 531 530
f 523 524 532
f 524 525 533
f 526 534 533
f 526 527 535
f 528 536 535
f 521 529 536
f 530 538 537
f 531 539 538
f 531 532 540
f 532 533 541
f 533 534 542
f 534 535 543
f 536 544 543
f 529 537 544
f 538 546 545
f 539 547 546
f 540 548 547
f 540 541 549
f 542 550 549
f 542 543 551
f 544 552 551
f 537 545 552
f 545 546 554
f 547 555 554
f 547 548 556
f 549 557 556
f 549 550 558
f 550 551 559
f 551 552 560
f 545 553 560
f 554 562 561
f 555 563 562
f 555 556 564
f 557 565 564
f 558 566 565
f 558 559 567
f 560 568 567
f 553 561 568
f 562 570 569
f 563 571 570
f 563 564 572
f 565 573 572
f 565 566 574
f 566 567 575
f 568 576 575
f 568 561 569
f 570 578 577
f 571 579 578
f 571 572 580
f 573 581 580
f 573 574 582
f 574 575 583
f 576 584 583
f 576 569 577
f 578 586 585
f 578 579 587
f 579 580 588
f 581 589 588
f 581 582 590
f 582 583 591
f 584 592 591
f 584 577 585
f 586 594 593
f 587 595 594
f 588 596 595
f 589 597 596
f 589 590 598
f 590 591 599
f 591 592 600
f 585 593 600
f 593 594 602
f 595 603 602
f 596 604 603
f 597 605 604
f 598 606 605
f 599 607 606
f 599 600 608
f 593 601 608
f 602 610 609
f 602 603 611
f 603 604 612
f 605 613 612
f 605 606 614
f 607 615 614
f 607 608 616
f 608 601 609
f 610 618 617
f 611 619 618
f 612 620 619
f 613 621 620
f 614 622 621
f 615 623 622
f 616 624 623
f 616 609 617
f 618 626 625
f 618 619 627
f 619 620 628
f 620 621 629
f 622 630 629
f 623 631 630
f 624 632 631
f 624 617 625
f 625 626 634
f 626 627 635
f 627 628 636
f 629 637 636
f 630 638 637
f 631 639 638
f 631 632 640
f 632 625 633
f 634 642 641
f 635 643 642
f 636 644 643
f 637 645 644
f 637 638 646
f 638 639 647
f 639 640 648
f 640 633 641
