# eclipse_carrier SunFlare1_CoronaSpike.obj: Roblox cue frame, recentred on its bounding box
v -0.83250 0.03889 -0.04145
v -0.83250 0.01389 -0.08475
v -0.83250 -0.03611 -0.08475
v -0.83250 -0.06111 -0.04145
v -0.83250 -0.03611 0.00185
v -0.83250 0.01389 0.00185
v -0.93084 0.02889 -0.04145
v -0.93084 0.00889 -0.07609
v -0.93084 -0.03111 -0.07609
v -0.93084 -0.05111 -0.04145
v -0.93084 -0.03111 -0.00681
v -0.93084 0.00889 -0.00681
v -1.02918 0.01689 -0.04145
v -1.02918 0.00289 -0.06570
v -1.02918 -0.02511 -0.06570
v -1.02918 -0.03911 -0.04145
v -1.02918 -0.02511 -0.01720
v -1.02918 0.00289 -0.01720
v -1.12752 0.00389 -0.04145
v -1.12752 -0.00361 -0.05444
v -1.12752 -0.01861 -0.05444
v -1.12752 -0.02611 -0.04145
v -1.12752 -0.01861 -0.02846
v -1.12752 -0.00361 -0.02846
v -1.22586 -0.00711 -0.04145
v -1.22586 -0.00911 -0.04491
v -1.22586 -0.01311 -0.04491
v -1.22586 -0.01511 -0.04145
v -1.22586 -0.01311 -0.03799
v -1.22586 -0.00911 -0.03799
v -0.83250 -0.01111 -0.04145
v -1.22586 -0.01111 -0.04145
v -0.80391 0.09330 0.16125
v -0.81545 0.06835 0.11949
v -0.81846 0.01845 0.12021
v -0.80994 -0.00650 0.16269
v -0.79840 0.01845 0.20445
v -0.79539 0.06835 0.20374
v -0.83231 0.08510 0.16802
v -0.84154 0.06514 0.13460
v -0.84395 0.02521 0.13518
v -0.83714 0.00525 0.16916
v -0.82791 0.02521 0.20258
v -0.82550 0.06514 0.20200
v -0.86084 0.07489 0.17481
v -0.86730 0.06092 0.15142
v -0.86899 0.03297 0.15182
v -0.86421 0.01900 0.17561
v -0.85775 0.03297 0.19900
v -0.85607 0.06092 0.19860
v -0.88942 0.06369 0.18161
v -0.89288 0.05621 0.16908
v -0.89379 0.04123 0.16930
v -0.89123 0.03375 0.18204
v -0.88777 0.04123 0.19457
v -0.88687 0.05621 0.19436
v -0.91789 0.05449 0.18839
v -0.91881 0.05249 0.18505
v -0.91905 0.04850 0.18511
v -0.91837 0.04650 0.18850
v -0.91744 0.04850 0.19185
v -0.91720 0.05249 0.19179
v -0.80692 0.04340 0.16197
v -0.91813 0.05049 0.18845
v -0.72633 0.14438 0.35085
v -0.74859 0.11956 0.31359
v -0.75396 0.06992 0.31631
v -0.73706 0.04510 0.35629
v -0.71480 0.06992 0.39355
v -0.70944 0.11956 0.39083
v -0.81271 0.14604 0.39464
v -0.83051 0.12618 0.36483
v -0.83481 0.08647 0.36701
v -0.82129 0.06662 0.39899
v -0.80348 0.08647 0.42880
v -0.79919 0.12618 0.42662
v -0.89929 0.14571 0.43854
v -0.91176 0.13181 0.41767
v -0.91476 0.10401 0.41919
v -0.90530 0.09012 0.44158
v -0.89283 0.10401 0.46245
v -0.88983 0.13181 0.46092
v -0.98599 0.14439 0.48249
v -0.99267 0.13695 0.47131
v -0.99427 0.12205 0.47212
v -0.98921 0.11461 0.48412
v -0.98253 0.12205 0.49530
v -0.98092 0.13695 0.49448
v -1.07247 0.14506 0.52633
v -1.07425 0.14307 0.52335
v -1.07468 0.13910 0.52356
v -1.07332 0.13712 0.52676
v -1.07154 0.13910 0.52974
v -1.07111 0.14307 0.52953
v -0.73170 0.09474 0.35357
v -1.07290 0.14109 0.52654
v -0.60467 0.18919 0.51664
v -0.63608 0.16456 0.48653
v -0.64260 0.11530 0.49210
v -0.61771 0.09067 0.52779
v -0.58629 0.11530 0.55790
v -0.57977 0.16456 0.55232
v -0.62899 0.18461 0.53745
v -0.65412 0.16491 0.51336
v -0.65934 0.12550 0.51783
v -0.63942 0.10580 0.54638
v -0.61429 0.12550 0.57047
v -0.60908 0.16491 0.56600
v -0.65358 0.17807 0.55849
v -0.67117 0.16428 0.54163
v -0.67482 0.13669 0.54475
v -0.66088 0.12290 0.56474
v -0.64329 0.13669 0.58160
v -0.63964 0.16428 0.57848
v -0.67830 0.17054 0.57964
v -0.68772 0.16315 0.57061
v -0.68968 0.14837 0.57228
v -0.68221 0.14099 0.58299
v -0.67278 0.14837 0.59202
v -0.67083 0.16315 0.59035
v -0.70275 0.16498 0.60057
v -0.70527 0.16301 0.59816
v -0.70579 0.15907 0.59861
v -0.70380 0.15710 0.60146
v -0.70128 0.15907 0.60387
v -0.70076 0.16301 0.60343
v -0.61119 0.13993 0.52221
v -0.70327 0.16104 0.60102
v -0.44620 0.22519 0.64943
v -0.48453 0.20076 0.62859
v -0.49072 0.15191 0.63726
v -0.45859 0.12748 0.66676
v -0.42026 0.15191 0.68761
v -0.41407 0.20076 0.67894
v -0.50089 0.23546 0.72597
v -0.53155 0.21592 0.70929
v -0.53651 0.17684 0.71622
v -0.51080 0.15730 0.73983
v -0.48014 0.17684 0.75651
v -0.47518 0.21592 0.74957
v -0.55583 0.24378 0.80285
v -0.57729 0.23010 0.79118
v -0.58076 0.20274 0.79603
v -0.56277 0.18906 0.81255
v -0.54130 0.20274 0.82422
v -0.53784 0.23010 0.81937
v -0.61089 0.25112 0.87990
v -0.62239 0.24379 0.87365
v -0.62425 0.22914 0.87625
v -0.61461 0.22181 0.88510
v -0.60311 0.22914 0.89135
v -0.60125 0.24379 0.88875
v -0.66571 0.26042 0.95661
v -0.66877 0.25846 0.95494
v -0.66927 0.25455 0.95563
v -0.66670 0.25260 0.95799
v -0.66363 0.25455 0.95966
v -0.66314 0.25846 0.95897
v -0.45239 0.17634 0.65810
v -0.66620 0.25651 0.95730
v -0.26013 0.25037 0.74206
v -0.30264 0.22611 0.73187
v -0.30707 0.17760 0.74313
v -0.26897 0.15334 0.76459
v -0.22645 0.17760 0.77478
v -0.22203 0.22611 0.76352
v -0.27275 0.24868 0.77422
v -0.30676 0.22927 0.76606
v -0.31030 0.19046 0.77507
v -0.27983 0.17105 0.79224
v -0.24581 0.19046 0.80039
v -0.24227 0.22927 0.79138
v -0.28555 0.24504 0.80682
v -0.30936 0.23146 0.80111
v -0.31184 0.20429 0.80742
v -0.29050 0.19071 0.81943
v -0.26669 0.20429 0.82514
v -0.26422 0.23146 0.81883
v -0.29844 0.24044 0.83965
v -0.31119 0.23316 0.83659
v -0.31252 0.21861 0.83997
v -0.30109 0.21133 0.84640
v -0.28834 0.21861 0.84946
v -0.28701 0.23316 0.84608
v -0.31115 0.23778 0.87202
v -0.31455 0.23584 0.87121
v -0.31491 0.23196 0.87211
v -0.31186 0.23002 0.87382
v -0.30846 0.23196 0.87464
v -0.30810 0.23584 0.87374
v -0.26455 0.20185 0.75333
v -0.31151 0.23390 0.87292
v -0.05697 0.26331 0.78962
v -0.10073 0.23915 0.79059
v -0.10233 0.19083 0.80334
v -0.06017 0.16667 0.81511
v -0.01641 0.19083 0.81414
v -0.01480 0.23915 0.80139
v -0.06833 0.27720 0.88004
v -0.10334 0.25787 0.88082
v -0.10463 0.21921 0.89102
v -0.07090 0.19988 0.90044
v -0.03588 0.21921 0.89966
v -0.03460 0.25787 0.88946
v -0.07976 0.28915 0.97098
v -0.10427 0.27562 0.97152
v -0.10517 0.24856 0.97866
v -0.08156 0.23503 0.98525
v -0.05705 0.24856 0.98471
v -0.05615 0.27562 0.97757
v -0.09123 0.30013 1.06217
v -0.10436 0.29288 1.06246
v -0.10484 0.27838 1.06628
v -0.09219 0.27113 1.06981
v -0.07906 0.27838 1.06952
v -0.07858 0.29288 1.06570
v -0.10263 0.31304 1.15285
v -0.10613 0.31111 1.15292
v -0.10625 0.30724 1.15394
v -0.10288 0.30531 1.15488
v -0.09938 0.30724 1.15481
v -0.09925 0.31111 1.15379
v -0.05857 0.21499 0.80237
v -0.10275 0.30918 1.15387
v 0.15197 0.26331 0.78962
v 0.10981 0.23915 0.80139
v 0.11141 0.19083 0.81414
v 0.15518 0.16667 0.81511
v 0.19734 0.19083 0.80334
v 0.19574 0.23915 0.79059
v 0.15659 0.26281 0.82636
v 0.12286 0.24348 0.83578
v 0.12414 0.20483 0.84598
v 0.15916 0.18550 0.84676
v 0.19289 0.20483 0.83734
v 0.19160 0.24348 0.82714
v 0.16128 0.26038 0.86362
v 0.13766 0.24685 0.87021
v 0.13856 0.21979 0.87735
v 0.16307 0.20626 0.87789
v 0.18668 0.21979 0.87130
v 0.18578 0.24685 0.86416
v 0.16599 0.25698 0.90112
v 0.15334 0.24973 0.90466
v 0.15382 0.23523 0.90848
v 0.16695 0.22798 0.90877
v 0.17960 0.23523 0.90524
v 0.17912 0.24973 0.90142
v 0.17064 0.25551 0.93812
v 0.16727 0.25357 0.93906
v 0.16740 0.24971 0.94008
v 0.17090 0.24778 0.94016
v 0.17427 0.24971 0.93922
v 0.17414 0.25357 0.93820
v 0.15358 0.21499 0.80237
v 0.17077 0.25164 0.93914
v 0.35513 0.25037 0.74206
v 0.31704 0.22611 0.76352
v 0.32146 0.17760 0.77478
v 0.36398 0.15334 0.76459
v 0.40207 0.17760 0.74313
v 0.39765 0.22611 0.73187
v 0.38758 0.26220 0.82469
v 0.35710 0.24279 0.84186
v 0.36064 0.20398 0.85087
v 0.39465 0.18458 0.84271
v 0.42513 0.20398 0.82555
v 0.42159 0.24279 0.81654
v 0.42019 0.27209 0.90777
v 0.39886 0.25851 0.91978
v 0.40134 0.23134 0.92609
v 0.42515 0.21776 0.92038
v 0.44648 0.23134 0.90836
v 0.44400 0.25851 0.90206
v 0.45290 0.28101 0.99107
v 0.44147 0.27374 0.99750
v 0.44280 0.25918 1.00088
v 0.45555 0.25191 0.99783
v 0.46698 0.25918 0.99139
v 0.46565 0.27374 0.98801
v 0.48543 0.29188 1.07392
v 0.48238 0.28994 1.07563
v 0.48274 0.28606 1.07654
v 0.48614 0.28412 1.07572
v 0.48918 0.28606 1.07400
v 0.48883 0.28994 1.07310
v 0.35956 0.20185 0.75333
v 0.48578 0.28800 1.07482
v 0.54121 0.22519 0.64943
v 0.50907 0.20076 0.67894
v 0.51527 0.15191 0.68761
v 0.55359 0.12748 0.66676
v 0.58573 0.15191 0.63726
v 0.57954 0.20076 0.62859
v 0.56426 0.22360 0.68169
v 0.53856 0.20406 0.70530
v 0.54351 0.16498 0.71223
v 0.57417 0.14543 0.69556
v 0.59988 0.16498 0.67195
v 0.59492 0.20406 0.66502
v 0.58756 0.22005 0.71430
v 0.56957 0.20638 0.73083
v 0.57304 0.17902 0.73568
v 0.59450 0.16534 0.72401
v 0.61249 0.17902 0.70748
v 0.60903 0.20638 0.70263
v 0.61099 0.21553 0.74708
v 0.60135 0.20820 0.75594
v 0.60321 0.19355 0.75854
v 0.61471 0.18622 0.75228
v 0.62435 0.19355 0.74343
v 0.62249 0.20820 0.74083
v 0.63417 0.21297 0.77952
v 0.63160 0.21101 0.78188
v 0.63209 0.20710 0.78257
v 0.63516 0.20515 0.78091
v 0.63773 0.20710 0.77854
v 0.63723 0.21101 0.77785
v 0.54740 0.17634 0.65810
v 0.63466 0.20906 0.78021
v 0.69967 0.18918 0.51663
v 0.67478 0.16456 0.55232
v 0.68130 0.11530 0.55790
v 0.71271 0.09067 0.52779
v 0.73761 0.11530 0.49210
v 0.73109 0.16456 0.48652
v 0.76547 0.19412 0.57294
v 0.74555 0.17442 0.60149
v 0.75077 0.13501 0.60595
v 0.77590 0.11531 0.58187
v 0.79582 0.13501 0.55331
v 0.79060 0.17442 0.54885
v 0.83153 0.19709 0.62947
v 0.81759 0.18329 0.64945
v 0.82124 0.15571 0.65258
v 0.83883 0.14192 0.63571
v 0.85277 0.15571 0.61573
v 0.84912 0.18329 0.61260
v 0.89771 0.19907 0.68610
v 0.89024 0.19168 0.69681
v 0.89220 0.17690 0.69848
v 0.90162 0.16951 0.68945
v 0.90909 0.17690 0.67874
v 0.90714 0.19168 0.67707
v 0.96364 0.20302 0.74252
v 0.96165 0.20105 0.74537
v 0.96217 0.19711 0.74582
v 0.96468 0.19514 0.74341
v 0.96667 0.19711 0.74056
v 0.96615 0.20105 0.74011
v 0.70619 0.13993 0.52221
v 0.96416 0.19908 0.74297
v 0.82134 0.14438 0.35085
v 0.80444 0.11956 0.39083
v 0.80981 0.06992 0.39355
v 0.83207 0.04510 0.35629
v 0.84897 0.06992 0.31631
v 0.84360 0.11956 0.31359
v 0.85900 0.13942 0.36994
v 0.84548 0.11956 0.40193
v 0.84977 0.07985 0.40410
v 0.86758 0.06000 0.37429
v 0.88110 0.07985 0.34231
v 0.87681 0.11956 0.34013
v 0.89687 0.13248 0.38914
v 0.88741 0.11858 0.41153
v 0.89041 0.09078 0.41305
v 0.90288 0.07688 0.39219
v 0.91234 0.09078 0.36980
v 0.90934 0.11858 0.36828
v 0.93485 0.12454 0.40840
v 0.92978 0.11709 0.42039
v 0.93139 0.10220 0.42121
v 0.93807 0.09476 0.41003
v 0.94314 0.10220 0.39803
v 0.94153 0.11709 0.39722
v 0.97261 0.11859 0.42754
v 0.97126 0.11660 0.43074
v 0.97169 0.11263 0.43096
v 0.97347 0.11065 0.42798
v 0.97482 0.11263 0.42478
v 0.97439 0.11660 0.42456
v 0.82671 0.09474 0.35357
v 0.97304 0.11462 0.42776
v 0.89892 0.09330 0.16125
v 0.89040 0.06835 0.20374
v 0.89341 0.01845 0.20445
v 0.90495 -0.00650 0.16269
v 0.91347 0.01845 0.12021
v 0.91046 0.06835 0.11949
v 0.98027 0.08847 0.18062
v 0.97346 0.06851 0.21461
v 0.97587 0.02859 0.21518
v 0.98509 0.00863 0.18177
v 0.99191 0.02859 0.14779
v 0.98950 0.06851 0.14721
v 1.06175 0.08165 0.20002
v 1.05698 0.06768 0.22381
v 1.05866 0.03973 0.22421
v 1.06512 0.02576 0.20082
v 1.06990 0.03973 0.17703
v 1.06821 0.06768 0.17663
v 1.14328 0.07383 0.21943
v 1.14073 0.06634 0.23218
v 1.14163 0.05137 0.23239
v 1.14509 0.04388 0.21986
v 1.14765 0.05137 0.20712
v 1.14675 0.06634 0.20690
v 1.22470 0.06800 0.23882
v 1.22402 0.06600 0.24221
v 1.22426 0.06201 0.24227
v 1.22518 0.06001 0.23893
v 1.22586 0.06201 0.23553
v 1.22562 0.06600 0.23547
v 0.90193 0.04340 0.16197
v 1.22494 0.06401 0.23887
v 0.92750 0.03889 -0.04145
v 0.92750 0.01389 0.00185
v 0.92750 -0.03611 0.00185
v 0.92750 -0.06111 -0.04145
v 0.92750 -0.03611 -0.08475
v 0.92750 0.01389 -0.08475
v 0.97188 0.02889 -0.04145
v 0.97188 0.00889 -0.00681
v 0.97188 -0.03111 -0.00681
v 0.97188 -0.05111 -0.04145
v 0.97188 -0.03111 -0.07609
v 0.97188 0.00889 -0.07609
v 1.01627 0.01689 -0.04145
v 1.01627 0.00289 -0.01720
v 1.01627 -0.02511 -0.01720
v 1.01627 -0.03911 -0.04145
v 1.01627 -0.02511 -0.06570
v 1.01627 0.00289 -0.06570
v 1.06065 0.00389 -0.04145
v 1.06065 -0.00361 -0.02846
v 1.06065 -0.01861 -0.02846
v 1.06065 -0.02611 -0.04145
v 1.06065 -0.01861 -0.05444
v 1.06065 -0.00361 -0.05444
v 1.10503 -0.00711 -0.04145
v 1.10503 -0.00911 -0.03799
v 1.10503 -0.01311 -0.03799
v 1.10503 -0.01511 -0.04145
v 1.10503 -0.01311 -0.04491
v 1.10503 -0.00911 -0.04491
v 0.92750 -0.01111 -0.04145
v 1.10503 -0.01111 -0.04145
v 0.90495 -0.01571 -0.24559
v 0.91347 -0.04066 -0.20311
v 0.91046 -0.09057 -0.20239
v 0.89892 -0.11552 -0.24415
v 0.89040 -0.09057 -0.28664
v 0.89341 -0.04066 -0.28735
v 0.98206 -0.03065 -0.26395
v 0.98887 -0.05061 -0.22996
v 0.98646 -0.09053 -0.22939
v 0.97723 -0.11049 -0.26280
v 0.97042 -0.09053 -0.29679
v 0.97283 -0.05061 -0.29736
v 1.05904 -0.04758 -0.28228
v 1.06382 -0.06155 -0.25849
v 1.06213 -0.08950 -0.25808
v 1.05567 -0.10347 -0.28147
v 1.05090 -0.08950 -0.30526
v 1.05258 -0.06155 -0.30567
v 1.13597 -0.06551 -0.30059
v 1.13853 -0.07300 -0.28785
v 1.13763 -0.08797 -0.28763
v 1.13417 -0.09546 -0.30016
v 1.13161 -0.08797 -0.31291
v 1.13251 -0.07300 -0.31312
v 1.21302 -0.08145 -0.31894
v 1.21370 -0.08345 -0.31554
v 1.21346 -0.08744 -0.31548
v 1.21254 -0.08944 -0.31882
v 1.21186 -0.08744 -0.32222
v 1.21210 -0.08345 -0.32228
v 0.90193 -0.06561 -0.24487
v 1.21278 -0.08544 -0.31888
v 0.83207 -0.06732 -0.43919
v 0.84897 -0.09213 -0.39921
v 0.84360 -0.14177 -0.39649
v 0.82134 -0.16659 -0.43375
v 0.80444 -0.14177 -0.47373
v 0.80981 -0.09213 -0.47645
v 0.87312 -0.08296 -0.46000
v 0.88664 -0.10282 -0.42802
v 0.88235 -0.14253 -0.42584
v 0.86454 -0.16238 -0.45565
v 0.85102 -0.14253 -0.48764
v 0.85531 -0.10282 -0.48981
v 0.91396 -0.10060 -0.48070
v 0.92342 -0.11450 -0.45831
v 0.92042 -0.14229 -0.45679
v 0.90795 -0.15619 -0.47766
v 0.89849 -0.14229 -0.50005
v 0.90149 -0.11450 -0.50157
v 0.95469 -0.11923 -0.50135
v 0.95976 -0.12667 -0.48936
v 0.95815 -0.14156 -0.48854
v 0.95147 -0.14901 -0.49972
v 0.94640 -0.14156 -0.51171
v 0.94801 -0.12667 -0.51253
v 0.99563 -0.13587 -0.52211
v 0.99698 -0.13785 -0.51891
v 0.99655 -0.14183 -0.51869
v 0.99477 -0.14381 -0.52167
v 0.99342 -0.14183 -0.52487
v 0.99385 -0.13785 -0.52509
v 0.82671 -0.11695 -0.43647
v 0.99520 -0.13984 -0.52189
v 0.71271 -0.11288 -0.61069
v 0.73761 -0.13751 -0.57500
v 0.73109 -0.18677 -0.56942
v 0.69967 -0.21140 -0.59953
v 0.67478 -0.18677 -0.63522
v 0.68130 -0.13751 -0.64080
v 0.76889 -0.13591 -0.65876
v 0.78880 -0.15562 -0.63021
v 0.78359 -0.19502 -0.62575
v 0.75846 -0.21473 -0.64984
v 0.73854 -0.19502 -0.67839
v 0.74376 -0.15562 -0.68285
v 0.82480 -0.16091 -0.70661
v 0.83874 -0.17471 -0.68662
v 0.83509 -0.20229 -0.68350
v 0.81750 -0.21608 -0.70036
v 0.80356 -0.20229 -0.72035
v 0.80721 -0.17471 -0.72347
v 0.88058 -0.18690 -0.75434
v 0.88805 -0.19429 -0.74364
v 0.88609 -0.20907 -0.74196
v 0.87667 -0.21645 -0.75100
v 0.86920 -0.20907 -0.76170
v 0.87116 -0.19429 -0.76338
v 0.93663 -0.21092 -0.80230
v 0.93862 -0.21289 -0.79945
v 0.93810 -0.21683 -0.79900
v 0.93558 -0.21880 -0.80141
v 0.93359 -0.21683 -0.80426
v 0.93411 -0.21289 -0.80471
v 0.70619 -0.16214 -0.60511
v 0.93610 -0.21486 -0.80186
v 0.55359 -0.14970 -0.74966
v 0.58573 -0.17412 -0.72016
v 0.57954 -0.22298 -0.71149
v 0.54121 -0.24740 -0.73233
v 0.50907 -0.22298 -0.76184
v 0.51527 -0.17412 -0.77051
v 0.58125 -0.17030 -0.78837
v 0.60696 -0.18984 -0.76476
v 0.60201 -0.22893 -0.75783
v 0.57135 -0.24847 -0.77451
v 0.54564 -0.22893 -0.79811
v 0.55059 -0.18984 -0.80505
v 0.60867 -0.19286 -0.82673
v 0.62666 -0.20654 -0.81021
v 0.62319 -0.23390 -0.80535
v 0.60173 -0.24758 -0.81703
v 0.58374 -0.23390 -0.83355
v 0.58720 -0.20654 -0.83840
v 0.63595 -0.21640 -0.86492
v 0.64560 -0.22373 -0.85607
v 0.64374 -0.23839 -0.85347
v 0.63224 -0.24571 -0.85972
v 0.62260 -0.23839 -0.86857
v 0.62446 -0.22373 -0.87117
v 0.66349 -0.23799 -0.90345
v 0.66606 -0.23994 -0.90109
v 0.66557 -0.24385 -0.90040
v 0.66250 -0.24580 -0.90207
v 0.65993 -0.24385 -0.90443
v 0.66043 -0.23994 -0.90512
v 0.54740 -0.19855 -0.74100
v 0.66300 -0.24189 -0.90276
v 0.36398 -0.17555 -0.84749
v 0.40207 -0.19981 -0.82603
v 0.39765 -0.24832 -0.81477
v 0.35513 -0.27258 -0.82496
v 0.31704 -0.24832 -0.84642
v 0.32146 -0.19981 -0.85768
v 0.38914 -0.20303 -0.91157
v 0.41961 -0.22243 -0.89440
v 0.41608 -0.26125 -0.88539
v 0.38206 -0.28065 -0.89355
v 0.35159 -0.26125 -0.91071
v 0.35512 -0.22243 -0.91973
v 0.41412 -0.23245 -0.97520
v 0.43545 -0.24603 -0.96318
v 0.43298 -0.27320 -0.95688
v 0.40917 -0.28678 -0.96259
v 0.38783 -0.27320 -0.97460
v 0.39031 -0.24603 -0.98091
v 0.43902 -0.26283 -1.03860
v 0.45044 -0.27011 -1.03217
v 0.44912 -0.28466 -1.02879
v 0.43636 -0.29194 -1.03185
v 0.42493 -0.28466 -1.03828
v 0.42626 -0.27011 -1.04166
v 0.46409 -0.29128 -1.10246
v 0.46713 -0.29322 -1.10074
v 0.46678 -0.29710 -1.09984
v 0.46338 -0.29904 -1.10066
v 0.46033 -0.29710 -1.10237
v 0.46068 -0.29322 -1.10327
v 0.35956 -0.22407 -0.83623
v 0.46373 -0.29516 -1.10156
v 0.15518 -0.18888 -0.89801
v 0.19734 -0.21305 -0.88624
v 0.19574 -0.26137 -0.87349
v 0.15197 -0.28553 -0.87252
v 0.10981 -0.26137 -0.88429
v 0.11141 -0.21305 -0.89704
v 0.16140 -0.21249 -0.94749
v 0.19513 -0.23182 -0.93807
v 0.19385 -0.27048 -0.92787
v 0.15883 -0.28980 -0.92709
v 0.12510 -0.27048 -0.93651
v 0.12639 -0.23182 -0.94671
v 0.16755 -0.23803 -0.99645
v 0.19116 -0.25156 -0.98986
v 0.19027 -0.27862 -0.98272
v 0.16576 -0.29215 -0.98218
v 0.14215 -0.27862 -0.98877
v 0.14305 -0.25156 -0.99591
v 0.17368 -0.26453 -1.04516
v 0.18632 -0.27178 -1.04163
v 0.18584 -0.28627 -1.03781
v 0.17271 -0.29352 -1.03752
v 0.16007 -0.28627 -1.04105
v 0.16055 -0.27178 -1.04487
v 0.17986 -0.28910 -1.09438
v 0.18324 -0.29103 -1.09344
v 0.18311 -0.29490 -1.09242
v 0.17961 -0.29683 -1.09235
v 0.17623 -0.29490 -1.09329
v 0.17636 -0.29103 -1.09431
v 0.15358 -0.23721 -0.88527
v 0.17974 -0.29297 -1.09337
v -0.06017 -0.18888 -0.89801
v -0.01641 -0.21305 -0.89704
v -0.01480 -0.26137 -0.88429
v -0.05697 -0.28553 -0.87252
v -0.10073 -0.26137 -0.87349
v -0.10233 -0.21305 -0.88624
v -0.06829 -0.21654 -0.96261
v -0.03328 -0.23587 -0.96184
v -0.03200 -0.27453 -0.95164
v -0.06573 -0.29386 -0.94222
v -0.10074 -0.27453 -0.94300
v -0.10202 -0.23587 -0.95319
v -0.07635 -0.24613 -1.02670
v -0.05184 -0.25966 -1.02616
v -0.05094 -0.28672 -1.01902
v -0.07455 -0.30025 -1.01243
v -0.09906 -0.28672 -1.01297
v -0.09996 -0.25966 -1.02011
v -0.08437 -0.27669 -1.09054
v -0.07124 -0.28394 -1.09025
v -0.07076 -0.29843 -1.08642
v -0.08341 -0.30568 -1.08289
v -0.09654 -0.29843 -1.08318
v -0.09702 -0.28394 -1.08701
v -0.09246 -0.30531 -1.15488
v -0.08896 -0.30724 -1.15481
v -0.08883 -0.31111 -1.15379
v -0.09220 -0.31304 -1.15285
v -0.09571 -0.31111 -1.15292
v -0.09583 -0.30724 -1.15394
v -0.05857 -0.23721 -0.88527
v -0.09233 -0.30918 -1.15387
v -0.26897 -0.17555 -0.84749
v -0.22645 -0.19981 -0.85768
v -0.22203 -0.24832 -0.84642
v -0.26013 -0.27258 -0.82496
v -0.30264 -0.24832 -0.81477
v -0.30707 -0.19981 -0.82603
v -0.28855 -0.19922 -0.89735
v -0.25453 -0.21862 -0.90550
v -0.25100 -0.25744 -0.89649
v -0.28147 -0.27684 -0.87933
v -0.31548 -0.25744 -0.87117
v -0.31902 -0.21862 -0.88018
v -0.30795 -0.22482 -0.94676
v -0.28414 -0.23841 -0.95247
v -0.28166 -0.26558 -0.94616
v -0.30299 -0.27916 -0.93414
v -0.32680 -0.26558 -0.92843
v -0.32928 -0.23841 -0.93474
v -0.32726 -0.25140 -0.99594
v -0.31450 -0.25868 -0.99900
v -0.31317 -0.27323 -0.99562
v -0.32460 -0.28051 -0.98918
v -0.33736 -0.27323 -0.98612
v -0.33868 -0.25868 -0.98950
v -0.34674 -0.27604 -1.04557
v -0.34334 -0.27798 -1.04639
v -0.34299 -0.28186 -1.04549
v -0.34604 -0.28380 -1.04377
v -0.34944 -0.28186 -1.04296
v -0.34979 -0.27798 -1.04386
v -0.26455 -0.22407 -0.83623
v -0.34639 -0.27992 -1.04467
v -0.45859 -0.14970 -0.74966
v -0.42026 -0.17412 -0.77051
v -0.41407 -0.22298 -0.76184
v -0.44620 -0.24740 -0.73233
v -0.48453 -0.22298 -0.71149
v -0.49072 -0.17412 -0.72016
v -0.49516 -0.17365 -0.80084
v -0.46450 -0.19319 -0.81752
v -0.45954 -0.23227 -0.81059
v -0.48525 -0.25181 -0.78698
v -0.51591 -0.23227 -0.77031
v -0.52087 -0.19319 -0.77724
v -0.53149 -0.19955 -0.85168
v -0.51002 -0.21323 -0.86335
v -0.50656 -0.24059 -0.85850
v -0.52455 -0.25426 -0.84197
v -0.54601 -0.24059 -0.83030
v -0.54948 -0.21323 -0.83516
v -0.56769 -0.22643 -0.90234
v -0.55619 -0.23376 -0.90859
v -0.55433 -0.24841 -0.90599
v -0.56397 -0.25574 -0.89714
v -0.57547 -0.24841 -0.89089
v -0.57733 -0.23376 -0.89349
v -0.60414 -0.25136 -0.95335
v -0.60107 -0.25331 -0.95502
v -0.60058 -0.25722 -0.95432
v -0.60315 -0.25917 -0.95196
v -0.60621 -0.25722 -0.95030
v -0.60671 -0.25331 -0.95099
v -0.45239 -0.19855 -0.74100
v -0.60364 -0.25526 -0.95266
v -0.61771 -0.11288 -0.61069
v -0.58629 -0.13751 -0.64080
v -0.57977 -0.18677 -0.63522
v -0.60467 -0.21140 -0.59953
v -0.63608 -0.18677 -0.56942
v -0.64260 -0.13751 -0.57500
v -0.66219 -0.13323 -0.64876
v -0.63706 -0.15294 -0.67285
v -0.63185 -0.19234 -0.66839
v -0.65176 -0.21205 -0.63984
v -0.67689 -0.19234 -0.61575
v -0.68211 -0.15294 -0.62021
v -0.70642 -0.15556 -0.68661
v -0.68883 -0.16935 -0.70347
v -0.68518 -0.19693 -0.70035
v -0.69912 -0.21072 -0.68036
v -0.71671 -0.19693 -0.66350
v -0.72036 -0.16935 -0.66663
v -0.75052 -0.17886 -0.72435
v -0.74110 -0.18625 -0.73338
v -0.73914 -0.20103 -0.73171
v -0.74661 -0.20842 -0.72100
v -0.75603 -0.20103 -0.71197
v -0.75799 -0.18625 -0.71364
v -0.79488 -0.20020 -0.76231
v -0.79237 -0.20217 -0.76472
v -0.79185 -0.20611 -0.76427
v -0.79384 -0.20808 -0.76141
v -0.79635 -0.20611 -0.75901
v -0.79687 -0.20217 -0.75945
v -0.61119 -0.16214 -0.60511
v -0.79436 -0.20414 -0.76186
v -0.73706 -0.06732 -0.43919
v -0.71480 -0.09213 -0.47645
v -0.70944 -0.14177 -0.47373
v -0.72633 -0.16659 -0.43375
v -0.74859 -0.14177 -0.39649
v -0.75396 -0.09213 -0.39921
v -0.79184 -0.08483 -0.46696
v -0.77403 -0.10468 -0.49677
v -0.76974 -0.14439 -0.49459
v -0.78326 -0.16425 -0.46261
v -0.80107 -0.14439 -0.43280
v -0.80536 -0.10468 -0.43498
v -0.84640 -0.10433 -0.49462
v -0.83393 -0.11823 -0.51549
v -0.83093 -0.14602 -0.51396
v -0.84039 -0.15992 -0.49158
v -0.85286 -0.14602 -0.47071
v -0.85586 -0.11823 -0.47223
v -0.90086 -0.12482 -0.52223
v -0.89418 -0.13227 -0.53341
v -0.89257 -0.14716 -0.53259
v -0.89764 -0.15460 -0.52060
v -0.90432 -0.14716 -0.50942
v -0.90593 -0.13227 -0.51023
v -0.95553 -0.14333 -0.54994
v -0.95374 -0.14531 -0.55292
v -0.95332 -0.14928 -0.55271
v -0.95467 -0.15127 -0.54951
v -0.95645 -0.14928 -0.54653
v -0.95688 -0.14531 -0.54674
v -0.73170 -0.11695 -0.43647
v -0.95510 -0.14730 -0.54973
v -0.80994 -0.01571 -0.24559
v -0.79840 -0.04066 -0.28735
v -0.79539 -0.09057 -0.28664
v -0.80391 -0.11552 -0.24415
v -0.81545 -0.09057 -0.20239
v -0.81846 -0.04066 -0.20311
v -0.87213 -0.02970 -0.26040
v -0.86290 -0.04966 -0.29381
v -0.86049 -0.08958 -0.29323
v -0.86731 -0.10954 -0.25925
v -0.87654 -0.08958 -0.22584
v -0.87895 -0.04966 -0.22641
v -0.93420 -0.04568 -0.27517
v -0.92774 -0.05965 -0.29856
v -0.92605 -0.08760 -0.29816
v -0.93082 -0.10157 -0.27437
v -0.93728 -0.08760 -0.25098
v -0.93897 -0.05965 -0.25138
v -0.99621 -0.06266 -0.28994
v -0.99275 -0.07014 -0.30247
v -0.99184 -0.08512 -0.30225
v -0.99440 -0.09260 -0.28951
v -0.99786 -0.08512 -0.27698
v -0.99876 -0.07014 -0.27719
v -1.05834 -0.07764 -0.30473
v -1.05741 -0.07964 -0.30807
v -1.05717 -0.08363 -0.30801
v -1.05785 -0.08563 -0.30461
v -1.05878 -0.08363 -0.30127
v -1.05902 -0.07964 -0.30133
v -0.80692 -0.06561 -0.24487
v -1.05810 -0.08164 -0.30467
f 2 7 1
f 3 8 2
f 3 10 9
f 5 10 4
f 6 11 5
f 1 12 6
f 8 13 7
f 9 14 8
f 10 15 9
f 10 17 16
f 12 17 11
f 7 18 12
f 13 20 19
f 15 20 14
f 15 22 21
f 17 22 16
f 18 23 17
f 13 24 18
f 20 25 19
f 21 26 20
f 21 28 27
f 23 28 22
f 24 29 23
f 19 30 24
f 31 2 1
f 31 3 2
f 31 4 3
f 31 5 4
f 31 6 5
f 31 1 6
f 25 26 32
f 26 27 32
f 27 28 32
f 28 29 32
f 29 30 32
f 30 25 32
f 34 39 33
f 35 40 34
f 36 41 35
f 36 43 42
f 37 44 43
f 38 39 44
f 39 46 45
f 40 47 46
f 41 48 47
f 42 49 48
f 44 49 43
f 39 50 44
f 45 52 51
f 47 52 46
f 48 53 47
f 48 55 54
f 49 56 55
f 45 56 50
f 52 57 51
f 53 58 52
f 54 59 53
f 55 60 54
f 56 61 55
f 56 57 62
f 63 34 33
f 63 35 34
f 63 36 35
f 63 37 36
f 63 38 37
f 63 33 38
f 57 58 64
f 58 59 64
f 59 60 64
f 60 61 64
f 61 62 64
f 62 57 64
f 66 71 65
f 67 72 66
f 67 74 73
f 69 74 68
f 69 76 75
f 65 76 70
f 71 78 77
f 72 79 78
f 73 80 79
f 74 81 80
f 76 81 75
f 71 82 76
f 77 84 83
f 78 85 84
f 80 85 79
f 80 87 86
f 82 87 81
f 82 83 88
f 84 89 83
f 84 91 90
f 86 91 85
f 86 93 92
f 88 93 87
f 88 89 94
f 95 66 65
f 95 67 66
f 95 68 67
f 95 69 68
f 95 70 69
f 95 65 70
f 89 90 96
f 90 91 96
f 91 92 96
f 92 93 96
f 93 94 96
f 94 89 96
f 98 103 97
f 99 104 98
f 100 105 99
f 101 106 100
f 102 107 101
f 102 103 108
f 103 110 109
f 104 111 110
f 105 112 111
f 107 112 106
f 108 113 107
f 108 109 114
f 109 116 115
f 111 116 110
f 112 117 111
f 113 118 112
f 114 119 113
f 109 120 114
f 115 122 121
f 116 123 122
f 117 124 123
f 118 125 124
f 119 126 125
f 120 121 126
f 127 98 97
f 127 99 98
f 127 100 99
f 127 101 100
f 127 102 101
f 127 97 102
f 121 122 128
f 122 123 128
f 123 124 128
f 124 125 128
f 125 126 128
f 126 121 128
f 130 135 129
f 130 137 136
f 132 137 131
f 132 139 138
f 134 139 133
f 129 140 134
f 135 142 141
f 137 142 136
f 138 143 137
f 138 145 144
f 140 145 139
f 140 141 146
f 141 148 147
f 143 148 142
f 143 150 149
f 144 151 150
f 146 151 145
f 141 152 146
f 148 153 147
f 149 154 148
f 149 156 155
f 151 156 150
f 151 158 157
f 147 158 152
f 159 130 129
f 159 131 130
f 159 132 131
f 159 133 132
f 159 134 133
f 159 129 134
f 153 154 160
f 154 155 160
f 155 156 160
f 156 157 160
f 157 158 160
f 158 153 160
f 162 167 161
f 162 169 168
f 164 169 163
f 164 171 170
f 165 172 171
f 166 167 172
f 167 174 173
f 169 174 168
f 170 175 169
f 170 177 176
f 171 178 177
f 167 178 172
f 174 179 173
f 174 181 180
f 175 182 181
f 177 182 176
f 177 184 183
f 178 179 184
f 180 185 179
f 180 187 186
f 181 188 187
f 182 189 188
f 183 190 189
f 184 185 190
f 191 162 161
f 191 163 162
f 191 164 163
f 191 165 164
f 191 166 165
f 191 161 166
f 185 186 192
f 186 187 192
f 187 188 192
f 188 189 192
f 189 190 192
f 190 185 192
f 194 199 193
f 194 201 200
f 195 202 201
f 197 202 196
f 198 203 197
f 193 204 198
f 200 205 199
f 200 207 206
f 201 208 207
f 203 208 202
f 204 209 203
f 204 205 210
f 205 212 211
f 206 213 212
f 207 214 213
f 209 214 208
f 210 215 209
f 205 216 210
f 212 217 211
f 213 218 212
f 213 220 219
f 214 221 220
f 215 222 221
f 211 222 216
f 223 194 193
f 223 195 194
f 223 196 195
f 223 197 196
f 223 198 197
f 223 193 198
f 217 218 224
f 218 219 224
f 219 220 224
f 220 221 224
f 221 222 224
f 222 217 224
f 225 232 231
f 227 232 226
f 228 233 227
f 228 235 234
f 229 236 235
f 225 236 230
f 231 238 237
f 232 239 238
f 234 239 233
f 235 240 234
f 236 241 235
f 231 242 236
f 238 243 237
f 239 244 238
f 239 246 245
f 241 246 240
f 241 248 247
f 237 248 242
f 244 249 243
f 245 250 244
f 246 251 245
f 246 253 252
f 247 254 253
f 243 254 248
f 255 226 225
f 255 227 226
f 255 228 227
f 255 229 228
f 255 230 229
f 255 225 230
f 249 250 256
f 250 251 256
f 251 252 256
f 252 253 256
f 253 254 256
f 254 249 256
f 258 263 257
f 258 265 264
f 259 266 265
f 261 266 260
f 261 268 267
f 262 263 268
f 264 269 263
f 265 270 264
f 265 272 271
f 267 272 266
f 268 273 267
f 263 274 268
f 270 275 269
f 271 276 270
f 271 278 277
f 272 279 278
f 273 280 279
f 269 280 274
f 275 282 281
f 276 283 282
f 277 284 283
f 279 284 278
f 279 286 285
f 280 281 286
f 287 258 257
f 287 259 258
f 287 260 259
f 287 261 260
f 287 262 261
f 287 257 262
f 281 282 288
f 282 283 288
f 283 284 288
f 284 285 288
f 285 286 288
f 286 281 288
f 290 295 289
f 291 296 290
f 291 298 297
f 292 299 298
f 293 300 299
f 289 300 294
f 295 302 301
f 296 303 302
f 298 303 297
f 299 304 298
f 300 305 299
f 295 306 300
f 302 307 301
f 303 308 302
f 304 309 303
f 305 310 304
f 305 312 311
f 306 307 312
f 308 313 307
f 309 314 308
f 309 316 315
f 311 316 310
f 311 318 317
f 307 318 312
f 319 290 289
f 319 291 290
f 319 292 291
f 319 293 292
f 319 294 293
f 319 289 294
f 313 314 320
f 314 315 320
f 315 316 320
f 316 317 320
f 317 318 320
f 318 313 320
f 321 328 327
f 323 328 322
f 323 330 329
f 324 331 330
f 325 332 331
f 321 332 326
f 327 334 333
f 329 334 328
f 329 336 335
f 331 336 330
f 331 338 337
f 332 333 338
f 334 339 333
f 335 340 334
f 336 341 335
f 336 343 342
f 338 343 337
f 333 344 338
f 340 345 339
f 340 347 346
f 341 348 347
f 342 349 348
f 343 350 349
f 344 345 350
f 351 322 321
f 351 323 322
f 351 324 323
f 351 325 324
f 351 326 325
f 351 321 326
f 345 346 352
f 346 347 352
f 347 348 352
f 348 349 352
f 349 350 352
f 350 345 352
f 353 360 359
f 354 361 360
f 356 361 355
f 357 362 356
f 357 364 363
f 353 364 358
f 359 366 365
f 360 367 366
f 361 368 367
f 363 368 362
f 363 370 369
f 359 370 364
f 366 371 365
f 367 372 366
f 367 374 373
f 368 375 374
f 370 375 369
f 370 371 376
f 372 377 371
f 373 378 372
f 374 379 373
f 374 381 380
f 375 382 381
f 371 382 376
f 383 354 353
f 383 355 354
f 383 356 355
f 383 357 356
f 383 358 357
f 383 353 358
f 377 378 384
f 378 379 384
f 379 380 384
f 380 381 384
f 381 382 384
f 382 377 384
f 386 391 385
f 387 392 386
f 388 393 387
f 389 394 388
f 390 395 389
f 390 391 396
f 392 397 391
f 392 399 398
f 393 400 399
f 395 400 394
f 396 401 395
f 391 402 396
f 398 403 397
f 398 405 404
f 399 406 405
f 400 407 406
f 402 407 401
f 397 408 402
f 404 409 403
f 405 410 404
f 406 411 405
f 406 413 412
f 408 413 407
f 408 409 414
f 415 386 385
f 415 387 386
f 415 388 387
f 415 389 388
f 415 390 389
f 415 385 390
f 409 410 416
f 410 411 416
f 411 412 416
f 412 413 416
f 413 414 416
f 414 409 416
f 418 423 417
f 419 424 418
f 420 425 419
f 421 426 420
f 422 427 421
f 422 423 428
f 424 429 423
f 425 430 424
f 426 431 425
f 427 432 426
f 428 433 427
f 423 434 428
f 429 436 435
f 431 436 430
f 432 437 431
f 432 439 438
f 434 439 433
f 434 435 440
f 435 442 441
f 437 442 436
f 438 443 437
f 438 445 444
f 440 445 439
f 435 446 440
f 447 418 417
f 447 419 418
f 447 420 419
f 447 421 420
f 447 422 421
f 447 417 422
f 441 442 448
f 442 443 448
f 443 444 448
f 444 445 448
f 445 446 448
f 446 441 448
f 450 455 449
f 451 456 450
f 451 458 457
f 452 459 458
f 453 460 459
f 449 460 454
f 456 461 455
f 457 462 456
f 458 463 457
f 459 464 458
f 459 466 465
f 455 466 460
f 461 468 467
f 463 468 462
f 464 469 463
f 465 470 464
f 465 472 471
f 466 467 472
f 467 474 473
f 468 475 474
f 469 476 475
f 471 476 470
f 472 477 471
f 467 478 472
f 479 450 449
f 479 451 450
f 479 452 451
f 479 453 452
f 479 454 453
f 479 449 454
f 473 474 480
f 474 475 480
f 475 476 480
f 476 477 480
f 477 478 480
f 478 473 480
f 482 487 481
f 482 489 488
f 484 489 483
f 484 491 490
f 486 491 485
f 481 492 486
f 487 494 493
f 489 494 488
f 490 495 489
f 490 497 496
f 491 498 497
f 492 493 498
f 493 500 499
f 494 501 500
f 496 501 495
f 497 502 496
f 497 504 503
f 493 504 498
f 499 506 505
f 501 506 500
f 501 508 507
f 502 509 508
f 503 510 509
f 499 510 504
f 511 482 481
f 511 483 482
f 511 484 483
f 511 485 484
f 511 486 485
f 511 481 486
f 505 506 512
f 506 507 512
f 507 508 512
f 508 509 512
f 509 510 512
f 510 505 512
f 513 520 519
f 514 521 520
f 515 522 521
f 516 523 522
f 518 523 517
f 513 524 518
f 520 525 519
f 521 526 520
f 522 527 521
f 522 529 528
f 523 530 529
f 519 530 524
f 525 532 531
f 527 532 526
f 527 534 533
f 529 534 528
f 529 536 535
f 530 531 536
f 532 537 531
f 532 539 538
f 534 539 533
f 534 541 540
f 536 541 535
f 536 537 542
f 543 514 513
f 543 515 514
f 543 516 515
f 543 517 516
f 543 518 517
f 543 513 518
f 537 538 544
f 538 539 544
f 539 540 544
f 540 541 544
f 541 542 544
f 542 537 544
f 545 552 551
f 546 553 552
f 548 553 547
f 549 554 548
f 549 556 555
f 550 551 556
f 552 557 551
f 553 558 552
f 554 559 553
f 554 561 560
f 556 561 555
f 556 557 562
f 558 563 557
f 558 565 564
f 560 565 559
f 560 567 566
f 562 567 561
f 562 563 568
f 564 569 563
f 564 571 570
f 565 572 571
f 567 572 566
f 567 574 573
f 568 569 574
f 575 546 545
f 575 547 546
f 575 548 547
f 575 549 548
f 575 550 549
f 575 545 550
f 569 570 576
f 570 571 576
f 571 572 576
f 572 573 576
f 573 574 576
f 574 569 576
f 577 584 583
f 579 584 578
f 579 586 585
f 581 586 580
f 581 588 587
f 582 583 588
f 583 590 589
f 584 591 590
f 586 591 585
f 587 592 586
f 588 593 587
f 588 589 594
f 590 595 589
f 590 597 596
f 592 597 591
f 592 599 598
f 594 599 593
f 594 595 600
f 596 601 595
f 597 602 596
f 597 604 603
f 598 605 604
f 600 605 599
f 600 601 606
f 607 578 577
f 607 579 578
f 607 580 579
f 607 581 580
f 607 582 581
f 607 577 582
f 601 602 608
f 602 603 608
f 603 604 608
f 604 605 608
f 605 606 608
f 606 601 608
f 609 616 615
f 611 616 610
f 612 617 611
f 612 619 618
f 614 619 613
f 614 615 620
f 616 621 615
f 616 623 622
f 617 624 623
f 619 624 618
f 620 625 619
f 620 621 626
f 621 628 627
f 622 629 628
f 624 629 623
f 625 630 624
f 626 631 625
f 621 632 626
f 628 633 627
f 629 634 628
f 630 635 629
f 630 637 636
f 632 637 631
f 632 633 638
f 639 610 609
f 639 611 610
f 639 612 611
f 639 613 612
f 639 614 613
f 639 609 614
f 633 634 640
f 634 635 640
f 635 636 640
f 636 637 640
f 637 638 640
f 638 633 640
f 641 648 647
f 642 649 648
f 644 649 643
f 645 650 644
f 646 651 645
f 641 652 646
f 647 654 653
f 649 654 648
f 649 656 655
f 650 657 656
f 651 658 657
f 652 653 658
f 653 660 659
f 654 661 660
f 656 661 655
f 656 663 662
f 658 663 657
f 653 664 658
f 659 666 665
f 660 667 666
f 662 667 661
f 663 668 662
f 664 669 663
f 659 670 664
f 671 642 641
f 671 643 642
f 671 644 643
f 671 645 644
f 671 646 645
f 671 641 646
f 665 666 672
f 666 667 672
f 667 668 672
f 668 669 672
f 669 670 672
f 670 665 672
f 673 680 679
f 674 681 680
f 675 682 681
f 677 682 676
f 678 683 677
f 673 684 678
f 679 686 685
f 681 686 680
f 681 688 687
f 682 689 688
f 683 690 689
f 679 690 684
f 686 691 685
f 686 693 692
f 688 693 687
f 689 694 688
f 690 695 689
f 690 691 696
f 692 697 691
f 692 699 698
f 694 699 693
f 694 701 700
f 696 701 695
f 696 697 702
f 703 674 673
f 703 675 674
f 703 676 675
f 703 677 676
f 703 678 677
f 703 673 678
f 697 698 704
f 698 699 704
f 699 700 704
f 700 701 704
f 701 702 704
f 702 697 704
f 706 711 705
f 707 712 706
f 707 714 713
f 708 715 714
f 710 715 709
f 710 711 716
f 711 718 717
f 713 718 712
f 714 719 713
f 714 721 720
f 715 722 721
f 711 722 716
f 718 723 717
f 718 725 724
f 720 725 719
f 721 726 720
f 722 727 721
f 717 728 722
f 724 729 723
f 724 731 730
f 725 732 731
f 727 732 726
f 728 733 727
f 728 729 734
f 735 706 705
f 735 707 706
f 735 708 707
f 735 709 708
f 735 710 709
f 735 705 710
f 729 730 736
f 730 731 736
f 731 732 736
f 732 733 736
f 733 734 736
f 734 729 736
f 738 743 737
f 738 745 744
f 740 745 739
f 741 746 740
f 742 747 741
f 742 743 748
f 744 749 743
f 745 750 744
f 746 751 745
f 746 753 752
f 748 753 747
f 748 749 754
f 749 756 755
f 750 757 756
f 752 757 751
f 753 758 752
f 754 759 753
f 754 755 760
f 756 761 755
f 756 763 762
f 757 764 763
f 759 764 758
f 759 766 765
f 760 761 766
f 767 738 737
f 767 739 738
f 767 740 739
f 767 741 740
f 767 742 741
f 767 737 742
f 761 762 768
f 762 763 768
f 763 764 768
f 764 765 768
f 765 766 768
f 766 761 768
f 769 776 775
f 770 777 776
f 772 777 771
f 773 778 772
f 773 780 779
f 774 775 780
f 776 781 775
f 777 782 776
f 778 783 777
f 778 785 784
f 779 786 785
f 780 781 786
f 781 788 787
f 782 789 788
f 784 789 783
f 784 791 790
f 786 791 785
f 786 787 792
f 787 794 793
f 789 794 788
f 789 796 795
f 790 797 796
f 791 798 797
f 787 798 792
f 799 770 769
f 799 771 770
f 799 772 771
f 799 773 772
f 799 774 773
f 799 769 774
f 793 794 800
f 794 795 800
f 795 796 800
f 796 797 800
f 797 798 800
f 798 793 800
f 802 807 801
f 803 808 802
f 803 810 809
f 805 810 804
f 805 812 811
f 801 812 806
f 807 814 813
f 808 815 814
f 809 816 815
f 811 816 810
f 811 818 817
f 807 818 812
f 814 819 813
f 815 820 814
f 815 822 821
f 816 823 822
f 817 824 823
f 818 819 824
f 819 826 825
f 820 827 826
f 821 828 827
f 823 828 822
f 824 829 823
f 819 830 824
f 831 802 801
f 831 803 802
f 831 804 803
f 831 805 804
f 831 806 805
f 831 801 806
f 825 826 832
f 826 827 832
f 827 828 832
f 828 829 832
f 829 830 832
f 830 825 832
f 2 8 7
f 3 9 8
f 3 4 10
f 5 11 10
f 6 12 11
f 1 7 12
f 8 14 13
f 9 15 14
f 10 16 15
f 10 11 17
f 12 18 17
f 7 13 18
f 13 14 20
f 15 21 20
f 15 16 22
f 17 23 22
f 18 24 23
f 13 19 24
f 20 26 25
f 21 27 26
f 21 22 28
f 23 29 28
f 24 30 29
f 19 25 30
f 34 40 39
f 35 41 40
f 36 42 41
f 36 37 43
f 37 38 44
f 38 33 39
f 39 40 46
f 40 41 47
f 41 42 48
f 42 43 49
f 44 50 49
f 39 45 50
f 45 46 52
f 47 53 52
f 48 54 53
f 48 49 55
f 49 50 56
f 45 51 56
f 52 58 57
f 53 59 58
f 54 60 59
f 55 61 60
f 56 62 61
f 56 51 57
f 66 72 71
f 67 73 72
f 67 68 74
f 69 75 74
f 69 70 76
f 65 71 76
f 71 72 78
f 72 73 79
f 73 74 80
f 74 75 81
f 76 82 81
f 71 77 82
f 77 78 84
f 78 79 85
f 80 86 85
f 80 81 87
f 82 88 87
f 82 77 83
f 84 90 89
f 84 85 91
f 86 92 91
f 86 87 93
f 88 94 93
f 88 83 89
f 98 104 103
f 99 105 104
f 100 106 105
f 101 107 106
f 102 108 107
f 102 97 103
f 103 104 110
f 104 105 111
f 105 106 112
f 107 113 112
f 108 114 113
f 108 103 109
f 109 110 116
f 111 117 116
f 112 118 117
f 113 119 118
f 114 120 119
f 109 115 120
f 115 116 122
f 116 117 123
f 117 118 124
f 118 119 125
f 119 120 126
f 120 115 121
f 130 136 135
f 130 131 137
f 132 138 137
f 132 133 139
f 134 140 139
f 129 135 140
f 135 136 142
f 137 143 142
f 138 144 143
f 138 139 145
f 140 146 145
f 140 135 141
f 141 142 148
f 143 149 148
f 143 144 150
f 144 145 151
f 146 152 151
f 141 147 152
f 148 154 153
f 149 155 154
f 149 150 156
f 151 157 156
f 151 152 158
f 147 153 158
f 162 168 167
f 162 163 169
f 164 170 169
f 164 165 171
f 165 166 172
f 166 161 167
f 167 168 174
f 169 175 174
f 170 176 175
f 170 171 177
f 171 172 178
f 167 173 178
f 174 180 179
f 174 175 181
f 175 176 182
f 177 183 182
f 177 178 184
f 178 173 179
f 180 186 185
f 180 181 187
f 181 182 188
f 182 183 189
f 183 184 190
f 184 179 185
f 194 200 199
f 194 195 201
f 195 196 202
f 197 203 202
f 198 204 203
f 193 199 204
f 200 206 205
f 200 201 207
f 201 202 208
f 203 209 208
f 204 210 209
f 204 199 205
f 205 206 212
f 206 207 213
f 207 208 214
f 209 215 214
f 210 216 215
f 205 211 216
f 212 218 217
f 213 219 218
f 213 214 220
f 214 215 221
f 215 216 222
f 211 217 222
f 225 226 232
f 227 233 232
f 228 234 233
f 228 229 235
f 229 230 236
f 225 231 236
f 231 232 238
f 232 233 239
f 234 240 239
f 235 241 240
f 236 242 241
f 231 237 242
f 238 244 243
f 239 245 244
f 239 240 246
f 241 247 246
f 241 242 248
f 237 243 248
f 244 250 249
f 245 251 250
f 246 252 251
f 246 247 253
f 247 248 254
f 243 249 254
f 258 264 263
f 258 259 265
f 259 260 266
f 261 267 266
f 261 262 268
f 262 257 263
f 264 270 269
f 265 271 270
f 265 266 272
f 267 273 272
f 268 274 273
f 263 269 274
f 270 276 275
f 271 277 276
f 271 272 278
f 272 273 279
f 273 274 280
f 269 275 280
f 275 276 282
f 276 277 283
f 277 278 284
f 279 285 284
f 279 280 286
f 280 275 281
f 290 296 295
f 291 297 296
f 291 292 298
f 292 293 299
f 293 294 300
f 289 295 300
f 295 296 302
f 296 297 303
f 298 304 303
f 299 305 304
f 300 306 305
f 295 301 306
f 302 308 307
f 303 309 308
f 304 310 309
f 305 311 310
f 305 306 312
f 306 301 307
f 308 314 313
f 309 315 314
f 309 310 316
f 311 317 316
f 311 312 318
f 307 313 318
f 321 322 328
f 323 329 328
f 323 324 330
f 324 325 331
f 325 326 332
f 321 327 332
f 327 328 334
f 329 335 334
f 329 330 336
f 331 337 336
f 331 332 338
f 332 327 333
f 334 340 339
f 335 341 340
f 336 342 341
f 336 337 343
f 338 344 343
f 333 339 344
f 340 346 345
f 340 341 347
f 341 342 348
f 342 343 349
f 343 344 350
f 344 339 345
f 353 354 360
f 354 355 361
f 356 362 361
f 357 363 362
f 357 358 364
f 353 359 364
f 359 360 366
f 360 361 367
f 361 362 368
f 363 369 368
f 363 364 370
f 359 365 370
f 366 372 371
f 367 373 372
f 367 368 374
f 368 369 375
f 370 376 375
f 370 365 371
f 372 378 377
f 373 379 378
f 374 380 379
f 374 375 381
f 375 376 382
f 371 377 382
f 386 392 391
f 387 393 392
f 388 394 393
f 389 395 394
f 390 396 395
f 390 385 391
f 392 398 397
f 392 393 399
f 393 394 400
f 395 401 400
f 396 402 401
f 391 397 402
f 398 404 403
f 398 399 405
f 399 400 406
f 400 401 407
f 402 408 407
f 397 403 408
f 404 410 409
f 405 411 410
f 406 412 411
f 406 407 413
f 408 414 413
f 408 403 409
f 418 424 423
f 419 425 424
f 420 426 425
f 421 427 426
f 422 428 427
f 422 417 423
f 424 430 429
f 425 431 430
f 426 432 431
f 427 433 432
f 428 434 433
f 423 429 434
f 429 430 436
f 431 437 436
f 432 438 437
f 432 433 439
f 434 440 439
f 434 429 435
f 435 436 442
f 437 443 442
f 438 444 443
f 438 439 445
f 440 446 445
f 435 441 446
f 450 456 455
f 451 457 456
f 451 452 458
f 452 453 459
f 453 454 460
f 449 455 460
f 456 462 461
f 457 463 462
f 458 464 463
f 459 465 464
f 459 460 466
f 455 461 466
f 461 462 468
f 463 469 468
f 464 470 469
f 465 471 470
f 465 466 472
f 466 461 467
f 467 468 474
f 468 469 475
f 469 470 476
f 471 477 476
f 472 478 477
f 467 473 478
f 482 488 487
f 482 483 489
f 484 490 489
f 484 485 491
f 486 492 491
f 481 487 492
f 487 488 494
f 489 495 494
f 490 496 495
f 490 491 497
f 491 492 498
f 492 487 493
f 493 494 500
f 494 495 501
f 496 502 501
f 497 503 502
f 497 498 504
f 493 499 504
f 499 500 506
f 501 507 506
f 501 502 508
f 502 503 509
f 503 504 510
f 499 505 510
f 513 514 520
f 514 515 521
f 515 516 522
f 516 517 523
f 518 524 523
f 513 519 524
f 520 526 525
f 521 527 526
f 522 528 527
f 522 523 529
f 523 524 530
f 519 525 530
f 525 526 532
f 527 533 532
f 527 528 534
f 529 535 534
f 529 530 536
f 530 525 531
f 532 538 537
f 532 533 539
f 534 540 539
f 534 535 541
f 536 542 541
f 536 531 537
f 545 546 552
f 546 547 553
f 548 554 553
f 549 555 554
f 549 550 556
f 550 545 551
f 552 558 557
f 553 559 558
f 554 560 559
f 554 555 561
f 556 562 561
f 556 551 557
f 558 564 563
f 558 559 565
f 560 566 565
f 560 561 567
f 562 568 567
f 562 557 563
f 564 570 569
f 564 565 571
f 565 566 572
f 567 573 572
f 567 568 574
f 568 563 569
f 577 578 584
f 579 585 584
f 579 580 586
f 581 587 586
f 581 582 588
f 582 577 583
f 583 584 590
f 584 585 591
f 586 592 591
f 587 593 592
f 588 594 593
f 588 583 589
f 590 596 595
f 590 591 597
f 592 598 597
f 592 593 599
f 594 600 599
f 594 589 595
f 596 602 601
f 597 603 602
f 597 598 604
f 598 599 605
f 600 606 605
f 600 595 601
f 609 610 616
f 611 617 616
f 612 618 617
f 612 613 619
f 614 620 619
f 614 609 615
f 616 622 621
f 616 617 623
f 617 618 624
f 619 625 624
f 620 626 625
f 620 615 621
f 621 622 628
f 622 623 629
f 624 630 629
f 625 631 630
f 626 632 631
f 621 627 632
f 628 634 633
f 629 635 634
f 630 636 635
f 630 631 637
f 632 638 637
f 632 627 633
f 641 642 648
f 642 643 649
f 644 650 649
f 645 651 650
f 646 652 651
f 641 647 652
f 647 648 654
f 649 655 654
f 649 650 656
f 650 651 657
f 651 652 658
f 652 647 653
f 653 654 660
f 654 655 661
f 656 662 661
f 656 657 663
f 658 664 663
f 653 659 664
f 659 660 666
f 660 661 667
f 662 668 667
f 663 669 668
f 664 670 669
f 659 665 670
f 673 674 680
f 674 675 681
f 675 676 682
f 677 683 682
f 678 684 683
f 673 679 684
f 679 680 686
f 681 687 686
f 681 682 688
f 682 683 689
f 683 684 690
f 679 685 690
f 686 692 691
f 686 687 693
f 688 694 693
f 689 695 694
f 690 696 695
f 690 685 691
f 692 698 697
f 692 693 699
f 694 700 699
f 694 695 701
f 696 702 701
f 696 691 697
f 706 712 711
f 707 713 712
f 707 708 714
f 708 709 715
f 710 716 715
f 710 705 711
f 711 712 718
f 713 719 718
f 714 720 719
f 714 715 721
f 715 716 722
f 711 717 722
f 718 724 723
f 718 719 725
f 720 726 725
f 721 727 726
f 722 728 727
f 717 723 728
f 724 730 729
f 724 725 731
f 725 726 732
f 727 733 732
f 728 734 733
f 728 723 729
f 738 744 743
f 738 739 745
f 740 746 745
f 741 747 746
f 742 748 747
f 742 737 743
f 744 750 749
f 745 751 750
f 746 752 751
f 746 747 753
f 748 754 753
f 748 743 749
f 749 750 756
f 750 751 757
f 752 758 757
f 753 759 758
f 754 760 759
f 754 749 755
f 756 762 761
f 756 757 763
f 757 758 764
f 759 765 764
f 759 760 766
f 760 755 761
f 769 770 776
f 770 771 777
f 772 778 777
f 773 779 778
f 773 774 780
f 774 769 775
f 776 782 781
f 777 783 782
f 778 784 783
f 778 779 785
f 779 780 786
f 780 775 781
f 781 782 788
f 782 783 789
f 784 790 789
f 784 785 791
f 786 792 791
f 786 781 787
f 787 788 794
f 789 795 794
f 789 790 796
f 790 791 797
f 791 792 798
f 787 793 798
f 802 808 807
f 803 809 808
f 803 804 810
f 805 811 810
f 805 806 812
f 801 807 812
f 807 808 814
f 808 809 815
f 809 810 816
f 811 817 816
f 811 812 818
f 807 813 818
f 814 820 819
f 815 821 820
f 815 816 822
f 816 817 823
f 817 818 824
f 818 813 819
f 819 820 826
f 820 821 827
f 821 822 828
f 823 829 828
f 824 830 829
f 819 825 830
