# eclipse_carrier SunFlare2_CoronaSpike.obj: Roblox cue frame, recentred on its bounding box
v -0.88544 0.04976 0.00006
v -0.88544 0.02476 -0.04324
v -0.88544 -0.02524 -0.04324
v -0.88544 -0.05024 0.00006
v -0.88544 -0.02524 0.04337
v -0.88544 0.02476 0.04337
v -0.95772 0.03976 0.00006
v -0.95772 0.01976 -0.03458
v -0.95772 -0.02024 -0.03458
v -0.95772 -0.04024 0.00006
v -0.95772 -0.02024 0.03471
v -0.95772 0.01976 0.03471
v -1.02999 0.02776 0.00006
v -1.02999 0.01376 -0.02418
v -1.02999 -0.01424 -0.02418
v -1.02999 -0.02824 0.00006
v -1.02999 -0.01424 0.02431
v -1.02999 0.01376 0.02431
v -1.10227 0.01476 0.00006
v -1.10227 0.00726 -0.01293
v -1.10227 -0.00774 -0.01293
v -1.10227 -0.01524 0.00006
v -1.10227 -0.00774 0.01306
v -1.10227 0.00726 0.01306
v -1.17455 0.00376 0.00006
v -1.17455 0.00176 -0.00340
v -1.17455 -0.00224 -0.00340
v -1.17455 -0.00424 0.00006
v -1.17455 -0.00224 0.00353
v -1.17455 0.00176 0.00353
v -0.88544 -0.00024 0.00006
v -1.17455 -0.00024 0.00006
v -0.85724 -0.21519 0.07170
v -0.85343 -0.23905 0.02792
v -0.83856 -0.28677 0.02667
v -0.82750 -0.31063 0.06920
v -0.83130 -0.28677 0.11297
v -0.84617 -0.23905 0.11422
v -0.87065 -0.22988 0.07283
v -0.86760 -0.24896 0.03781
v -0.85570 -0.28714 0.03681
v -0.84685 -0.30623 0.07082
v -0.84990 -0.28714 0.10584
v -0.86180 -0.24896 0.10684
v -0.88346 -0.24647 0.07390
v -0.88133 -0.25983 0.04939
v -0.87300 -0.28656 0.04869
v -0.86680 -0.29992 0.07250
v -0.86894 -0.28656 0.09702
v -0.87726 -0.25983 0.09772
v -0.89598 -0.26402 0.07496
v -0.89483 -0.27118 0.06182
v -0.89037 -0.28549 0.06145
v -0.88705 -0.29265 0.07420
v -0.88819 -0.28549 0.08734
v -0.89266 -0.27118 0.08771
v -0.90909 -0.27966 0.07606
v -0.90878 -0.28157 0.07256
v -0.90759 -0.28539 0.07246
v -0.90671 -0.28730 0.07586
v -0.90701 -0.28539 0.07936
v -0.90820 -0.28157 0.07946
v -0.84237 -0.26291 0.07045
v -0.90790 -0.28348 0.07596
v -0.74527 -0.45871 0.13919
v -0.73932 -0.47929 0.09401
v -0.71142 -0.52045 0.08876
v -0.68947 -0.54103 0.12869
v -0.69542 -0.52045 0.17387
v -0.72332 -0.47929 0.17912
v -0.79893 -0.50851 0.14928
v -0.79417 -0.52498 0.11313
v -0.77185 -0.55790 0.10894
v -0.75429 -0.57437 0.14088
v -0.75905 -0.55790 0.17702
v -0.78137 -0.52498 0.18122
v -0.85147 -0.55996 0.15916
v -0.84814 -0.57149 0.13386
v -0.83252 -0.59454 0.13092
v -0.82022 -0.60606 0.15328
v -0.82355 -0.59454 0.17858
v -0.83918 -0.57149 0.18152
v -0.90345 -0.61224 0.16893
v -0.90167 -0.61841 0.15538
v -0.89330 -0.63076 0.15380
v -0.88672 -0.63693 0.16578
v -0.88850 -0.63076 0.17934
v -0.89687 -0.61841 0.18091
v -0.95655 -0.66286 0.17892
v -0.95608 -0.66451 0.17530
v -0.95385 -0.66780 0.17488
v -0.95209 -0.66945 0.17808
v -0.95257 -0.66780 0.18169
v -0.95480 -0.66451 0.18211
v -0.71737 -0.49987 0.13394
v -0.95432 -0.66616 0.17850
v -0.55949 -0.65672 0.19744
v -0.55562 -0.67232 0.15009
v -0.51882 -0.70352 0.13698
v -0.48588 -0.71912 0.17122
v -0.48975 -0.70352 0.21856
v -0.52656 -0.67232 0.23167
v -0.56176 -0.67576 0.19825
v -0.55866 -0.68824 0.16037
v -0.52922 -0.71320 0.14988
v -0.50287 -0.72568 0.17727
v -0.50597 -0.71320 0.21514
v -0.53541 -0.68824 0.22563
v -0.56255 -0.69605 0.19853
v -0.56039 -0.70478 0.17202
v -0.53977 -0.72225 0.16467
v -0.52133 -0.73099 0.18384
v -0.52350 -0.72225 0.21036
v -0.54411 -0.70478 0.21770
v -0.56261 -0.71696 0.19855
v -0.56145 -0.72164 0.18435
v -0.55041 -0.73100 0.18041
v -0.54053 -0.73568 0.19068
v -0.54169 -0.73100 0.20489
v -0.55273 -0.72164 0.20882
v -0.56414 -0.73662 0.19909
v -0.56383 -0.73787 0.19531
v -0.56089 -0.74037 0.19426
v -0.55825 -0.74161 0.19700
v -0.55856 -0.74037 0.20078
v -0.56151 -0.73787 0.20183
v -0.52269 -0.68792 0.18433
v -0.56120 -0.73912 0.19805
v -0.31330 -0.78890 0.24530
v -0.32231 -0.79878 0.19712
v -0.28639 -0.81853 0.16850
v -0.24144 -0.82841 0.18806
v -0.23243 -0.81853 0.23624
v -0.26836 -0.79878 0.26486
v -0.32897 -0.86080 0.25778
v -0.33618 -0.86871 0.21924
v -0.30744 -0.88451 0.19634
v -0.27149 -0.89241 0.21199
v -0.26428 -0.88451 0.25053
v -0.29302 -0.86871 0.27343
v -0.34321 -0.93350 0.26912
v -0.34826 -0.93903 0.24214
v -0.32814 -0.95009 0.22611
v -0.30297 -0.95562 0.23707
v -0.29792 -0.95009 0.26405
v -0.31804 -0.93903 0.28007
v -0.35672 -1.00659 0.27989
v -0.35943 -1.00955 0.26543
v -0.34865 -1.01547 0.25685
v -0.33517 -1.01844 0.26272
v -0.33246 -1.01547 0.27717
v -0.34324 -1.00955 0.28576
v -0.37168 -1.07888 0.29180
v -0.37240 -1.07967 0.28794
v -0.36952 -1.08125 0.28566
v -0.36593 -1.08204 0.28722
v -0.36521 -1.08125 0.29107
v -0.36808 -1.07967 0.29336
v -0.27737 -0.80865 0.21668
v -0.36880 -1.08046 0.28951
v -0.05544 -0.85026 0.22783
v -0.03044 -0.86146 0.18600
v 0.01956 -0.86146 0.18600
v 0.04456 -0.85026 0.22783
v 0.01956 -0.83905 0.26965
v -0.03044 -0.83905 0.26965
v -0.04544 -0.86545 0.23190
v -0.02544 -0.87442 0.19844
v 0.01456 -0.87442 0.19844
v 0.03456 -0.86545 0.23190
v 0.01456 -0.85649 0.26536
v -0.02544 -0.85649 0.26536
v -0.03344 -0.88065 0.23597
v -0.01944 -0.88692 0.21255
v 0.00856 -0.88692 0.21255
v 0.02256 -0.88065 0.23597
v 0.00856 -0.87437 0.25939
v -0.01944 -0.87437 0.25939
v -0.02044 -0.89584 0.24004
v -0.01294 -0.89920 0.22749
v 0.00206 -0.89920 0.22749
v 0.00956 -0.89584 0.24004
v 0.00206 -0.89248 0.25259
v -0.01294 -0.89248 0.25259
v -0.00944 -0.91104 0.24411
v -0.00744 -0.91193 0.24077
v -0.00344 -0.91193 0.24077
v -0.00144 -0.91104 0.24411
v -0.00344 -0.91014 0.24746
v -0.00744 -0.91014 0.24746
v -0.00544 -0.85026 0.22783
v -0.00544 -0.91104 0.24411
v 0.30243 -0.78890 0.24530
v 0.25748 -0.79878 0.26486
v 0.22156 -0.81853 0.23624
v 0.23057 -0.82841 0.18806
v 0.27551 -0.81853 0.16850
v 0.31144 -0.79878 0.19712
v 0.31827 -0.86131 0.25792
v 0.28231 -0.86921 0.27356
v 0.25357 -0.88501 0.25067
v 0.26078 -0.89291 0.21213
v 0.29674 -0.88501 0.19648
v 0.32548 -0.86921 0.21937
v 0.33267 -0.93450 0.26939
v 0.30750 -0.94003 0.28034
v 0.28738 -0.95110 0.26432
v 0.29243 -0.95663 0.23734
v 0.31760 -0.95110 0.22638
v 0.33772 -0.94003 0.24241
v 0.34636 -1.00809 0.28029
v 0.33287 -1.01106 0.28616
v 0.32210 -1.01698 0.27757
v 0.32480 -1.01995 0.26312
v 0.33828 -1.01698 0.25725
v 0.34906 -1.01106 0.26584
v 0.36148 -1.08090 0.29234
v 0.35789 -1.08169 0.29390
v 0.35501 -1.08327 0.29161
v 0.35573 -1.08406 0.28776
v 0.35933 -1.08327 0.28619
v 0.36220 -1.08169 0.28848
v 0.26650 -0.80865 0.21668
v 0.35861 -1.08248 0.29005
v 0.54862 -0.65672 0.19744
v 0.51569 -0.67232 0.23167
v 0.47888 -0.70352 0.21856
v 0.47501 -0.71912 0.17122
v 0.50794 -0.70352 0.13698
v 0.54475 -0.67232 0.15009
v 0.55024 -0.67491 0.19802
v 0.52390 -0.68738 0.22540
v 0.49445 -0.71234 0.21492
v 0.49135 -0.72482 0.17704
v 0.51770 -0.71234 0.14965
v 0.54715 -0.68738 0.16014
v 0.55040 -0.69434 0.19807
v 0.53195 -0.70307 0.21724
v 0.51134 -0.72054 0.20990
v 0.50917 -0.72928 0.18339
v 0.52761 -0.72054 0.16421
v 0.54823 -0.70307 0.17156
v 0.54981 -0.71439 0.19786
v 0.53993 -0.71907 0.20813
v 0.52889 -0.72843 0.20420
v 0.52773 -0.73311 0.19000
v 0.53761 -0.72843 0.17973
v 0.54865 -0.71907 0.18366
v 0.55070 -0.73320 0.19818
v 0.54806 -0.73445 0.20092
v 0.54512 -0.73695 0.19987
v 0.54481 -0.73819 0.19608
v 0.54744 -0.73695 0.19334
v 0.55039 -0.73445 0.19439
v 0.51181 -0.68792 0.18433
v 0.54775 -0.73570 0.19713
v 0.73440 -0.45871 0.13919
v 0.71245 -0.47929 0.17912
v 0.68455 -0.52045 0.17387
v 0.67860 -0.54103 0.12869
v 0.70055 -0.52045 0.08876
v 0.72845 -0.47929 0.09401
v 0.78938 -0.50944 0.14952
v 0.77182 -0.52591 0.18147
v 0.74950 -0.55884 0.17727
v 0.74474 -0.57530 0.14113
v 0.76230 -0.55884 0.10919
v 0.78462 -0.52591 0.11338
v 0.84325 -0.56182 0.15965
v 0.83096 -0.57335 0.18202
v 0.81533 -0.59640 0.17908
v 0.81200 -0.60792 0.15378
v 0.82429 -0.59640 0.13142
v 0.83992 -0.57335 0.13435
v 0.89656 -0.61503 0.16968
v 0.88997 -0.62120 0.18166
v 0.88160 -0.63355 0.18008
v 0.87982 -0.63972 0.16653
v 0.88640 -0.63355 0.15455
v 0.89477 -0.62120 0.15613
v 0.95098 -0.66659 0.17991
v 0.94923 -0.66823 0.18311
v 0.94700 -0.67153 0.18269
v 0.94652 -0.67317 0.17907
v 0.94828 -0.67153 0.17588
v 0.95051 -0.66823 0.17630
v 0.70650 -0.49987 0.13394
v 0.94875 -0.66988 0.17949
v 0.84636 -0.21519 0.07170
v 0.83530 -0.23905 0.11422
v 0.82043 -0.28677 0.11297
v 0.81662 -0.31063 0.06920
v 0.82769 -0.28677 0.02667
v 0.84256 -0.23905 0.02792
v 0.85770 -0.22923 0.07265
v 0.84885 -0.24831 0.10667
v 0.83695 -0.28649 0.10567
v 0.83390 -0.30558 0.07065
v 0.84276 -0.28649 0.03663
v 0.85465 -0.24831 0.03763
v 0.86844 -0.24517 0.07355
v 0.86224 -0.25853 0.09737
v 0.85391 -0.28525 0.09667
v 0.85178 -0.29862 0.07215
v 0.85798 -0.28525 0.04834
v 0.86631 -0.25853 0.04904
v 0.87888 -0.26207 0.07443
v 0.87556 -0.26923 0.08719
v 0.87110 -0.28354 0.08681
v 0.86996 -0.29070 0.07368
v 0.87328 -0.28354 0.06092
v 0.87774 -0.26923 0.06130
v 0.88992 -0.27706 0.07536
v 0.88903 -0.27897 0.07876
v 0.88784 -0.28278 0.07866
v 0.88754 -0.28469 0.07516
v 0.88842 -0.28278 0.07176
v 0.88961 -0.27897 0.07186
v 0.83149 -0.26291 0.07045
v 0.88873 -0.28087 0.07526
v 0.87456 0.04976 0.00006
v 0.87456 0.02476 0.04337
v 0.87456 -0.02524 0.04337
v 0.87456 -0.05024 0.00006
v 0.87456 -0.02524 -0.04324
v 0.87456 0.02476 -0.04324
v 0.94956 0.03976 0.00006
v 0.94956 0.01976 0.03471
v 0.94956 -0.02024 0.03471
v 0.94956 -0.04024 0.00006
v 0.94956 -0.02024 -0.03458
v 0.94956 0.01976 -0.03458
v 1.02456 0.02776 0.00006
v 1.02456 0.01376 0.02431
v 1.02456 -0.01424 0.02431
v 1.02456 -0.02824 0.00006
v 1.02456 -0.01424 -0.02418
v 1.02456 0.01376 -0.02418
v 1.09956 0.01476 0.00006
v 1.09956 0.00726 0.01306
v 1.09956 -0.00774 0.01306
v 1.09956 -0.01524 0.00006
v 1.09956 -0.00774 -0.01293
v 1.09956 0.00726 -0.01293
v 1.17455 0.00376 0.00006
v 1.17455 0.00176 0.00353
v 1.17455 -0.00224 0.00353
v 1.17455 -0.00424 0.00006
v 1.17455 -0.00224 -0.00340
v 1.17455 0.00176 -0.00340
v 0.87456 -0.00024 0.00006
v 1.17455 -0.00024 0.00006
v 0.81662 0.31015 -0.06907
v 0.82769 0.28629 -0.02654
v 0.84256 0.23857 -0.02779
v 0.84636 0.21471 -0.07157
v 0.83530 0.23857 -0.11409
v 0.82043 0.28629 -0.11284
v 0.83387 0.30508 -0.07052
v 0.84272 0.28600 -0.03650
v 0.85462 0.24782 -0.03750
v 0.85767 0.22873 -0.07252
v 0.84882 0.24782 -0.10654
v 0.83692 0.28600 -0.10554
v 0.85172 0.29811 -0.07202
v 0.85792 0.28475 -0.04820
v 0.86624 0.25803 -0.04891
v 0.86838 0.24466 -0.07342
v 0.86218 0.25803 -0.09723
v 0.85385 0.28475 -0.09653
v 0.86986 0.29019 -0.07354
v 0.87318 0.28303 -0.06079
v 0.87764 0.26871 -0.06116
v 0.87879 0.26155 -0.07429
v 0.87547 0.26871 -0.08705
v 0.87101 0.28303 -0.08668
v 0.88741 0.28417 -0.07502
v 0.88830 0.28226 -0.07162
v 0.88949 0.27844 -0.07172
v 0.88979 0.27653 -0.07522
v 0.88891 0.27844 -0.07862
v 0.88772 0.28226 -0.07852
v 0.83149 0.26243 -0.07032
v 0.88860 0.28035 -0.07512
v 0.67860 0.54054 -0.12856
v 0.70055 0.51996 -0.08863
v 0.72845 0.47880 -0.09388
v 0.73440 0.45822 -0.13906
v 0.71245 0.47880 -0.17899
v 0.68455 0.51996 -0.17374
v 0.74480 0.57485 -0.14101
v 0.76236 0.55839 -0.10907
v 0.78468 0.52546 -0.11326
v 0.78943 0.50900 -0.14941
v 0.77187 0.52546 -0.18135
v 0.74955 0.55839 -0.17715
v 0.81211 0.60751 -0.15367
v 0.82440 0.59599 -0.13131
v 0.84003 0.57294 -0.13424
v 0.84336 0.56141 -0.15954
v 0.83106 0.57294 -0.18191
v 0.81544 0.59599 -0.17897
v 0.87998 0.63935 -0.16643
v 0.88656 0.63318 -0.15445
v 0.89493 0.62083 -0.15603
v 0.89672 0.61466 -0.16958
v 0.89013 0.62083 -0.18156
v 0.88176 0.63318 -0.17999
v 0.94673 0.67284 -0.17898
v 0.94849 0.67119 -0.17579
v 0.95072 0.66790 -0.17621
v 0.95120 0.66625 -0.17982
v 0.94944 0.66790 -0.18302
v 0.94721 0.67119 -0.18260
v 0.70650 0.49938 -0.13381
v 0.94897 0.66954 -0.17940
v 0.47501 0.71863 -0.17109
v 0.50794 0.70303 -0.13685
v 0.54475 0.67183 -0.14996
v 0.54862 0.65623 -0.19731
v 0.51569 0.67183 -0.23154
v 0.47888 0.70303 -0.21843
v 0.49130 0.72426 -0.17689
v 0.51764 0.71178 -0.14950
v 0.54709 0.68682 -0.15999
v 0.55019 0.67434 -0.19787
v 0.52384 0.68682 -0.22525
v 0.49439 0.71178 -0.21476
v 0.50905 0.72864 -0.18321
v 0.52750 0.71990 -0.16404
v 0.54811 0.70243 -0.17139
v 0.55028 0.69370 -0.19790
v 0.53184 0.70243 -0.21707
v 0.51122 0.71990 -0.20973
v 0.52755 0.73240 -0.18980
v 0.53743 0.72772 -0.17953
v 0.54847 0.71836 -0.18347
v 0.54963 0.71368 -0.19767
v 0.53975 0.71836 -0.20794
v 0.52871 0.72772 -0.20401
v 0.54457 0.73740 -0.19587
v 0.54721 0.73615 -0.19313
v 0.55015 0.73366 -0.19418
v 0.55046 0.73241 -0.19797
v 0.54783 0.73366 -0.20070
v 0.54488 0.73615 -0.19966
v 0.51181 0.68743 -0.18420
v 0.54752 0.73490 -0.19692
v 0.23057 0.82792 -0.18793
v 0.27551 0.81805 -0.16837
v 0.31144 0.79829 -0.19699
v 0.30243 0.78842 -0.24517
v 0.25748 0.79829 -0.26473
v 0.22156 0.81805 -0.23611
v 0.26082 0.89255 -0.21203
v 0.29678 0.88465 -0.19638
v 0.32552 0.86884 -0.21928
v 0.31831 0.86094 -0.25782
v 0.28235 0.86884 -0.27347
v 0.25361 0.88465 -0.25057
v 0.29251 0.95638 -0.23727
v 0.31768 0.95085 -0.22632
v 0.33780 0.93979 -0.24234
v 0.33275 0.93426 -0.26932
v 0.30759 0.93979 -0.28028
v 0.28747 0.95085 -0.26425
v 0.32492 1.01983 -0.26309
v 0.33841 1.01686 -0.25722
v 0.34918 1.01094 -0.26581
v 0.34648 1.00797 -0.28026
v 0.33300 1.01094 -0.28613
v 0.32222 1.01686 -0.27754
v 0.35590 1.08406 -0.28776
v 0.35949 1.08327 -0.28619
v 0.36236 1.08169 -0.28848
v 0.36164 1.08090 -0.29234
v 0.35805 1.08169 -0.29390
v 0.35517 1.08327 -0.29161
v 0.26650 0.80817 -0.21655
v 0.35877 1.08248 -0.29005
v -0.05544 0.84977 -0.22770
v -0.03044 0.86098 -0.18587
v 0.01956 0.86098 -0.18587
v 0.04456 0.84977 -0.22770
v 0.01956 0.83856 -0.26952
v -0.03044 0.83856 -0.26952
v -0.04544 0.86481 -0.23172
v -0.02544 0.87377 -0.19826
v 0.01456 0.87377 -0.19826
v 0.03456 0.86481 -0.23172
v 0.01456 0.85584 -0.26519
v -0.02544 0.85584 -0.26519
v -0.03344 0.87984 -0.23575
v -0.01944 0.88612 -0.21233
v 0.00856 0.88612 -0.21233
v 0.02256 0.87984 -0.23575
v 0.00856 0.87357 -0.25918
v -0.01944 0.87357 -0.25918
v -0.02044 0.89488 -0.23978
v -0.01294 0.89824 -0.22724
v 0.00206 0.89824 -0.22724
v 0.00956 0.89488 -0.23978
v 0.00206 0.89152 -0.25233
v -0.01294 0.89152 -0.25233
v -0.00944 0.90992 -0.24381
v -0.00744 0.91081 -0.24047
v -0.00344 0.91081 -0.24047
v -0.00144 0.90992 -0.24381
v -0.00344 0.90902 -0.24716
v -0.00744 0.90902 -0.24716
v -0.00544 0.84977 -0.22770
v -0.00544 0.90992 -0.24381
v -0.24144 0.82792 -0.18793
v -0.23243 0.81805 -0.23611
v -0.26836 0.79829 -0.26473
v -0.31330 0.78842 -0.24517
v -0.32231 0.79829 -0.19699
v -0.28639 0.81805 -0.16837
v -0.27155 0.89211 -0.21191
v -0.26434 0.88420 -0.25045
v -0.29308 0.86840 -0.27335
v -0.32903 0.86050 -0.25770
v -0.33624 0.86840 -0.21916
v -0.30750 0.88420 -0.19626
v -0.30309 0.95550 -0.23703
v -0.29804 0.94997 -0.26401
v -0.31816 0.93891 -0.28004
v -0.34333 0.93337 -0.26909
v -0.34838 0.93891 -0.24211
v -0.32826 0.94997 -0.22608
v -0.33535 1.01849 -0.26273
v -0.33265 1.01553 -0.27719
v -0.34342 1.00961 -0.28577
v -0.35691 1.00664 -0.27990
v -0.35961 1.00961 -0.26545
v -0.34883 1.01553 -0.25686
v -0.36617 1.08228 -0.28728
v -0.36545 1.08149 -0.29114
v -0.36833 1.07991 -0.29343
v -0.37192 1.07912 -0.29186
v -0.37264 1.07991 -0.28801
v -0.36977 1.08149 -0.28572
v -0.27737 0.80817 -0.21655
v -0.36905 1.08070 -0.28957
v -0.48588 0.71863 -0.17109
v -0.48975 0.70303 -0.21843
v -0.52656 0.67183 -0.23154
v -0.55949 0.65624 -0.19731
v -0.55562 0.67183 -0.14996
v -0.51882 0.70303 -0.13685
v -0.50274 0.72501 -0.17709
v -0.50583 0.71253 -0.21497
v -0.53528 0.68758 -0.22546
v -0.56163 0.67510 -0.19807
v -0.55853 0.68758 -0.16019
v -0.52908 0.71253 -0.14970
v -0.52106 0.73015 -0.18362
v -0.52323 0.72141 -0.21013
v -0.54384 0.70394 -0.21747
v -0.56229 0.69520 -0.19830
v -0.56012 0.70394 -0.17179
v -0.53951 0.72141 -0.16445
v -0.54013 0.73466 -0.19041
v -0.54129 0.72998 -0.20461
v -0.55233 0.72062 -0.20855
v -0.56221 0.71594 -0.19828
v -0.56105 0.72062 -0.18407
v -0.55001 0.72998 -0.18014
v -0.55772 0.74041 -0.19668
v -0.55803 0.73917 -0.20046
v -0.56097 0.73667 -0.20151
v -0.56361 0.73542 -0.19877
v -0.56330 0.73667 -0.19499
v -0.56035 0.73917 -0.19394
v -0.52269 0.68743 -0.18420
v -0.56066 0.73792 -0.19772
v -0.68947 0.54054 -0.12856
v -0.69542 0.51996 -0.17374
v -0.72332 0.47880 -0.17899
v -0.74527 0.45822 -0.13906
v -0.73932 0.47880 -0.09388
v -0.71142 0.51996 -0.08863
v -0.75450 0.57403 -0.14079
v -0.75926 0.55757 -0.17693
v -0.78158 0.52464 -0.18113
v -0.79914 0.50818 -0.14919
v -0.79438 0.52464 -0.11304
v -0.77206 0.55757 -0.10885
v -0.82065 0.60587 -0.15323
v -0.82398 0.59435 -0.17853
v -0.83960 0.57130 -0.18147
v -0.85189 0.55977 -0.15911
v -0.84856 0.57130 -0.13381
v -0.83294 0.59435 -0.13087
v -0.88735 0.63689 -0.16577
v -0.88913 0.63072 -0.17933
v -0.89750 0.61837 -0.18090
v -0.90409 0.61220 -0.16892
v -0.90230 0.61837 -0.15537
v -0.89393 0.63072 -0.15379
v -0.95293 0.66956 -0.17811
v -0.95341 0.66791 -0.18172
v -0.95564 0.66462 -0.18214
v -0.95740 0.66297 -0.17894
v -0.95692 0.66462 -0.17533
v -0.95469 0.66791 -0.17491
v -0.71737 0.49938 -0.13381
v -0.95517 0.66626 -0.17852
v -0.82750 0.31015 -0.06907
v -0.83130 0.28629 -0.11284
v -0.84617 0.23857 -0.11409
v -0.85724 0.21471 -0.07157
v -0.85343 0.23857 -0.02779
v -0.83856 0.28629 -0.02654
v -0.84657 0.30566 -0.07067
v -0.84962 0.28657 -0.10569
v -0.86152 0.24839 -0.10669
v -0.87037 0.22930 -0.07267
v -0.86732 0.24839 -0.03765
v -0.85543 0.28657 -0.03665
v -0.86625 0.29926 -0.07233
v -0.86838 0.28590 -0.09684
v -0.87671 0.25917 -0.09754
v -0.88291 0.24581 -0.07373
v -0.88077 0.25917 -0.04921
v -0.87245 0.28590 -0.04851
v -0.88622 0.29191 -0.07400
v -0.88736 0.28475 -0.08714
v -0.89183 0.27043 -0.08751
v -0.89514 0.26327 -0.07476
v -0.89400 0.27043 -0.06162
v -0.88954 0.28475 -0.06125
v -0.90560 0.28646 -0.07563
v -0.90590 0.28455 -0.07914
v -0.90709 0.28074 -0.07924
v -0.90798 0.27883 -0.07583
v -0.90767 0.28074 -0.07233
v -0.90648 0.28455 -0.07223
v -0.84237 0.26243 -0.07032
v -0.90679 0.28265 -0.07573
f 2 7 1
f 3 8 2
f 3 10 9
f 5 10 4
f 6 11 5
f 1 12 6
f 7 14 13
f 9 14 8
f 9 16 15
f 11 16 10
f 12 17 11
f 12 13 18
f 14 19 13
f 15 20 14
f 15 22 21
f 16 23 22
f 18 23 17
f 13 24 18
f 20 25 19
f 21 26 20
f 22 27 21
f 23 28 22
f 24 29 23
f 24 25 30
f 31 2 1
f 31 3 2
f 31 4 3
f 31 5 4
f 31 6 5
f 31 1 6
f 25 26 32
f 26 27 32
f 27 28 32
f 28 29 32
f 29 30 32
f 30 25 32
f 33 40 39
f 34 41 40
f 36 41 35
f 36 43 42
f 38 43 37
f 38 39 44
f 40 45 39
f 41 46 40
f 42 47 41
f 42 49 48
f 43 50 49
f 44 45 50
f 46 51 45
f 46 53 52
f 47 54 53
f 49 54 48
f 50 55 49
f 45 56 50
f 52 57 51
f 52 59 58
f 54 59 53
f 55 60 54
f 56 61 55
f 56 57 62
f 63 34 33
f 63 35 34
f 63 36 35
f 63 37 36
f 63 38 37
f 63 33 38
f 57 58 64
f 58 59 64
f 59 60 64
f 60 61 64
f 61 62 64
f 62 57 64
f 66 71 65
f 66 73 72
f 68 73 67
f 68 75 74
f 70 75 69
f 65 76 70
f 71 78 77
f 72 79 78
f 74 79 73
f 74 81 80
f 75 82 81
f 76 77 82
f 77 84 83
f 79 84 78
f 79 86 85
f 81 86 80
f 81 88 87
f 77 88 82
f 84 89 83
f 84 91 90
f 86 91 85
f 87 92 86
f 87 94 93
f 88 89 94
f 95 66 65
f 95 67 66
f 95 68 67
f 95 69 68
f 95 70 69
f 95 65 70
f 89 90 96
f 90 91 96
f 91 92 96
f 92 93 96
f 93 94 96
f 94 89 96
f 98 103 97
f 99 104 98
f 100 105 99
f 101 106 100
f 101 108 107
f 102 103 108
f 103 110 109
f 104 111 110
f 105 112 111
f 107 112 106
f 108 113 107
f 103 114 108
f 109 116 115
f 110 117 116
f 112 117 111
f 112 119 118
f 113 120 119
f 114 115 120
f 115 122 121
f 116 123 122
f 117 124 123
f 118 125 124
f 120 125 119
f 115 126 120
f 127 98 97
f 127 99 98
f 127 100 99
f 127 101 100
f 127 102 101
f 127 97 102
f 121 122 128
f 122 123 128
f 123 124 128
f 124 125 128
f 125 126 128
f 126 121 128
f 130 135 129
f 131 136 130
f 132 137 131
f 132 139 138
f 134 139 133
f 134 135 140
f 135 142 141
f 136 143 142
f 137 144 143
f 139 144 138
f 140 145 139
f 135 146 140
f 142 147 141
f 143 148 142
f 143 150 149
f 144 151 150
f 145 152 151
f 141 152 146
f 148 153 147
f 148 155 154
f 149 156 155
f 151 156 150
f 152 157 151
f 152 153 158
f 159 130 129
f 159 131 130
f 159 132 131
f 159 133 132
f 159 134 133
f 159 129 134
f 153 154 160
f 154 155 160
f 155 156 160
f 156 157 160
f 157 158 160
f 158 153 160
f 161 168 167
f 163 168 162
f 164 169 163
f 165 170 164
f 166 171 165
f 161 172 166
f 167 174 173
f 169 174 168
f 170 175 169
f 171 176 170
f 172 177 171
f 167 178 172
f 174 179 173
f 175 180 174
f 175 182 181
f 176 183 182
f 178 183 177
f 173 184 178
f 180 185 179
f 180 187 186
f 181 188 187
f 183 188 182
f 183 190 189
f 184 185 190
f 191 162 161
f 191 163 162
f 191 164 163
f 191 165 164
f 191 166 165
f 191 161 166
f 185 186 192
f 186 187 192
f 187 188 192
f 188 189 192
f 189 190 192
f 190 185 192
f 193 200 199
f 194 201 200
f 195 202 201
f 196 203 202
f 198 203 197
f 198 199 204
f 199 206 205
f 201 206 200
f 201 208 207
f 202 209 208
f 203 210 209
f 199 210 204
f 205 212 211
f 206 213 212
f 208 213 207
f 208 215 214
f 210 215 209
f 210 211 216
f 212 217 211
f 213 218 212
f 213 220 219
f 214 221 220
f 215 222 221
f 211 222 216
f 223 194 193
f 223 195 194
f 223 196 195
f 223 197 196
f 223 198 197
f 223 193 198
f 217 218 224
f 218 219 224
f 219 220 224
f 220 221 224
f 221 222 224
f 222 217 224
f 226 231 225
f 227 232 226
f 227 234 233
f 229 234 228
f 230 235 229
f 230 231 236
f 231 238 237
f 232 239 238
f 234 239 233
f 234 241 240
f 235 242 241
f 236 237 242
f 238 243 237
f 239 244 238
f 240 245 239
f 240 247 246
f 242 247 241
f 242 243 248
f 243 250 249
f 244 251 250
f 246 251 245
f 246 253 252
f 248 253 247
f 248 249 254
f 255 226 225
f 255 227 226
f 255 228 227
f 255 229 228
f 255 230 229
f 255 225 230
f 249 250 256
f 250 251 256
f 251 252 256
f 252 253 256
f 253 254 256
f 254 249 256
f 258 263 257
f 258 265 264
f 260 265 259
f 260 267 266
f 261 268 267
f 262 263 268
f 264 269 263
f 265 270 264
f 266 271 265
f 266 273 272
f 268 273 267
f 263 274 268
f 270 275 269
f 270 277 276
f 272 277 271
f 273 278 272
f 273 280 279
f 274 275 280
f 276 281 275
f 276 283 282
f 278 283 277
f 278 285 284
f 280 285 279
f 275 286 280
f 287 258 257
f 287 259 258
f 287 260 259
f 287 261 260
f 287 262 261
f 287 257 262
f 281 282 288
f 282 283 288
f 283 284 288
f 284 285 288
f 285 286 288
f 286 281 288
f 290 295 289
f 291 296 290
f 292 297 291
f 293 298 292
f 293 300 299
f 294 295 300
f 296 301 295
f 297 302 296
f 297 304 303
f 298 305 304
f 300 305 299
f 295 306 300
f 302 307 301
f 303 308 302
f 304 309 303
f 304 311 310
f 306 311 305
f 301 312 306
f 307 314 313
f 309 314 308
f 310 315 309
f 311 316 310
f 312 317 311
f 312 313 318
f 319 290 289
f 319 291 290
f 319 292 291
f 319 293 292
f 319 294 293
f 319 289 294
f 313 314 320
f 314 315 320
f 315 316 320
f 316 317 320
f 317 318 320
f 318 313 320
f 322 327 321
f 323 328 322
f 324 329 323
f 325 330 324
f 326 331 325
f 326 327 332
f 327 334 333
f 329 334 328
f 330 335 329
f 330 337 336
f 332 337 331
f 327 338 332
f 334 339 333
f 335 340 334
f 335 342 341
f 337 342 336
f 338 343 337
f 338 339 344
f 339 346 345
f 341 346 340
f 342 347 341
f 342 349 348
f 344 349 343
f 339 350 344
f 351 322 321
f 351 323 322
f 351 324 323
f 351 325 324
f 351 326 325
f 351 321 326
f 345 346 352
f 346 347 352
f 347 348 352
f 348 349 352
f 349 350 352
f 350 345 352
f 354 359 353
f 355 360 354
f 355 362 361
f 357 362 356
f 357 364 363
f 353 364 358
f 360 365 359
f 360 367 366
f 361 368 367
f 363 368 362
f 364 369 363
f 364 365 370
f 365 372 371
f 367 372 366
f 368 373 367
f 369 374 368
f 370 375 369
f 365 376 370
f 372 377 371
f 372 379 378
f 374 379 373
f 374 381 380
f 375 382 381
f 371 382 376
f 383 354 353
f 383 355 354
f 383 356 355
f 383 357 356
f 383 358 357
f 383 353 358
f 377 378 384
f 378 379 384
f 379 380 384
f 380 381 384
f 381 382 384
f 382 377 384
f 385 392 391
f 387 392 386
f 387 394 393
f 389 394 388
f 389 396 395
f 385 396 390
f 391 398 397
f 393 398 392
f 393 400 399
f 394 401 400
f 395 402 401
f 391 402 396
f 398 403 397
f 399 404 398
f 400 405 399
f 400 407 406
f 402 407 401
f 402 403 408
f 404 409 403
f 404 411 410
f 406 411 405
f 406 413 412
f 408 413 407
f 408 409 414
f 415 386 385
f 415 387 386
f 415 388 387
f 415 389 388
f 415 390 389
f 415 385 390
f 409 410 416
f 410 411 416
f 411 412 416
f 412 413 416
f 413 414 416
f 414 409 416
f 418 423 417
f 419 424 418
f 419 426 425
f 420 427 426
f 421 428 427
f 422 423 428
f 423 430 429
f 425 430 424
f 426 431 425
f 427 432 426
f 427 434 433
f 423 434 428
f 430 435 429
f 430 437 436
f 431 438 437
f 433 438 432
f 433 440 439
f 434 435 440
f 436 441 435
f 437 442 436
f 438 443 437
f 438 445 444
f 439 446 445
f 440 441 446
f 447 418 417
f 447 419 418
f 447 420 419
f 447 421 420
f 447 422 421
f 447 417 422
f 441 442 448
f 442 443 448
f 443 444 448
f 444 445 448
f 445 446 448
f 446 441 448
f 450 455 449
f 450 457 456
f 452 457 451
f 452 459 458
f 454 459 453
f 454 455 460
f 456 461 455
f 456 463 462
f 457 464 463
f 459 464 458
f 459 466 465
f 455 466 460
f 461 468 467
f 462 469 468
f 463 470 469
f 465 470 464
f 465 472 471
f 461 472 466
f 467 474 473
f 469 474 468
f 470 475 469
f 470 477 476
f 472 477 471
f 472 473 478
f 479 450 449
f 479 451 450
f 479 452 451
f 479 453 452
f 479 454 453
f 479 449 454
f 473 474 480
f 474 475 480
f 475 476 480
f 476 477 480
f 477 478 480
f 478 473 480
f 481 488 487
f 483 488 482
f 484 489 483
f 485 490 484
f 486 491 485
f 486 487 492
f 488 493 487
f 489 494 488
f 489 496 495
f 490 497 496
f 492 497 491
f 487 498 492
f 493 500 499
f 495 500 494
f 496 501 495
f 497 502 496
f 498 503 497
f 493 504 498
f 499 506 505
f 501 506 500
f 502 507 501
f 503 508 502
f 504 509 503
f 504 505 510
f 511 482 481
f 511 483 482
f 511 484 483
f 511 485 484
f 511 486 485
f 511 481 486
f 505 506 512
f 506 507 512
f 507 508 512
f 508 509 512
f 509 510 512
f 510 505 512
f 513 520 519
f 515 520 514
f 516 521 515
f 516 523 522
f 517 524 523
f 518 519 524
f 520 525 519
f 521 526 520
f 521 528 527
f 522 529 528
f 523 530 529
f 519 530 524
f 525 532 531
f 527 532 526
f 527 534 533
f 529 534 528
f 530 535 529
f 530 531 536
f 532 537 531
f 532 539 538
f 534 539 533
f 534 541 540
f 535 542 541
f 536 537 542
f 543 514 513
f 543 515 514
f 543 516 515
f 543 517 516
f 543 518 517
f 543 513 518
f 537 538 544
f 538 539 544
f 539 540 544
f 540 541 544
f 541 542 544
f 542 537 544
f 546 551 545
f 547 552 546
f 548 553 547
f 548 555 554
f 550 555 549
f 545 556 550
f 552 557 551
f 553 558 552
f 554 559 553
f 554 561 560
f 556 561 555
f 551 562 556
f 558 563 557
f 559 564 558
f 559 566 565
f 560 567 566
f 561 568 567
f 562 563 568
f 563 570 569
f 565 570 564
f 565 572 571
f 566 573 572
f 567 574 573
f 568 569 574
f 575 546 545
f 575 547 546
f 575 548 547
f 575 549 548
f 575 550 549
f 575 545 550
f 569 570 576
f 570 571 576
f 571 572 576
f 572 573 576
f 573 574 576
f 574 569 576
f 577 584 583
f 579 584 578
f 580 585 579
f 581 586 580
f 581 588 587
f 577 588 582
f 583 590 589
f 585 590 584
f 585 592 591
f 587 592 586
f 587 594 593
f 583 594 588
f 590 595 589
f 591 596 590
f 592 597 591
f 592 599 598
f 594 599 593
f 594 595 600
f 596 601 595
f 596 603 602
f 598 603 597
f 598 605 604
f 600 605 599
f 600 601 606
f 607 578 577
f 607 579 578
f 607 580 579
f 607 581 580
f 607 582 581
f 607 577 582
f 601 602 608
f 602 603 608
f 603 604 608
f 604 605 608
f 605 606 608
f 606 601 608
f 610 615 609
f 611 616 610
f 612 617 611
f 612 619 618
f 613 620 619
f 614 615 620
f 615 622 621
f 616 623 622
f 617 624 623
f 619 624 618
f 619 626 625
f 615 626 620
f 621 628 627
f 622 629 628
f 623 630 629
f 625 630 624
f 625 632 631
f 626 627 632
f 627 634 633
f 629 634 628
f 629 636 635
f 631 636 630
f 632 637 631
f 627 638 632
f 639 610 609
f 639 611 610
f 639 612 611
f 639 613 612
f 639 614 613
f 639 609 614
f 633 634 640
f 634 635 640
f 635 636 640
f 636 637 640
f 637 638 640
f 638 633 640
f 2 8 7
f 3 9 8
f 3 4 10
f 5 11 10
f 6 12 11
f 1 7 12
f 7 8 14
f 9 15 14
f 9 10 16
f 11 17 16
f 12 18 17
f 12 7 13
f 14 20 19
f 15 21 20
f 15 16 22
f 16 17 23
f 18 24 23
f 13 19 24
f 20 26 25
f 21 27 26
f 22 28 27
f 23 29 28
f 24 30 29
f 24 19 25
f 33 34 40
f 34 35 41
f 36 42 41
f 36 37 43
f 38 44 43
f 38 33 39
f 40 46 45
f 41 47 46
f 42 48 47
f 42 43 49
f 43 44 50
f 44 39 45
f 46 52 51
f 46 47 53
f 47 48 54
f 49 55 54
f 50 56 55
f 45 51 56
f 52 58 57
f 52 53 59
f 54 60 59
f 55 61 60
f 56 62 61
f 56 51 57
f 66 72 71
f 66 67 73
f 68 74 73
f 68 69 75
f 70 76 75
f 65 71 76
f 71 72 78
f 72 73 79
f 74 80 79
f 74 75 81
f 75 76 82
f 76 71 77
f 77 78 84
f 79 85 84
f 79 80 86
f 81 87 86
f 81 82 88
f 77 83 88
f 84 90 89
f 84 85 91
f 86 92 91
f 87 93 92
f 87 88 94
f 88 83 89
f 98 104 103
f 99 105 104
f 100 106 105
f 101 107 106
f 101 102 108
f 102 97 103
f 103 104 110
f 104 105 111
f 105 106 112
f 107 113 112
f 108 114 113
f 103 109 114
f 109 110 116
f 110 111 117
f 112 118 117
f 112 113 119
f 113 114 120
f 114 109 115
f 115 116 122
f 116 117 123
f 117 118 124
f 118 119 125
f 120 126 125
f 115 121 126
f 130 136 135
f 131 137 136
f 132 138 137
f 132 133 139
f 134 140 139
f 134 129 135
f 135 136 142
f 136 137 143
f 137 138 144
f 139 145 144
f 140 146 145
f 135 141 146
f 142 148 147
f 143 149 148
f 143 144 150
f 144 145 151
f 145 146 152
f 141 147 152
f 148 154 153
f 148 149 155
f 149 150 156
f 151 157 156
f 152 158 157
f 152 147 153
f 161 162 168
f 163 169 168
f 164 170 169
f 165 171 170
f 166 172 171
f 161 167 172
f 167 168 174
f 169 175 174
f 170 176 175
f 171 177 176
f 172 178 177
f 167 173 178
f 174 180 179
f 175 181 180
f 175 176 182
f 176 177 183
f 178 184 183
f 173 179 184
f 180 186 185
f 180 181 187
f 181 182 188
f 183 189 188
f 183 184 190
f 184 179 185
f 193 194 200
f 194 195 201
f 195 196 202
f 196 197 203
f 198 204 203
f 198 193 199
f 199 200 206
f 201 207 206
f 201 202 208
f 202 203 209
f 203 204 210
f 199 205 210
f 205 206 212
f 206 207 213
f 208 214 213
f 208 209 215
f 210 216 215
f 210 205 211
f 212 218 217
f 213 219 218
f 213 214 220
f 214 215 221
f 215 216 222
f 211 217 222
f 226 232 231
f 227 233 232
f 227 228 234
f 229 235 234
f 230 236 235
f 230 225 231
f 231 232 238
f 232 233 239
f 234 240 239
f 234 235 241
f 235 236 242
f 236 231 237
f 238 244 243
f 239 245 244
f 240 246 245
f 240 241 247
f 242 248 247
f 242 237 243
f 243 244 250
f 244 245 251
f 246 252 251
f 246 247 253
f 248 254 253
f 248 243 249
f 258 264 263
f 258 259 265
f 260 266 265
f 260 261 267
f 261 262 268
f 262 257 263
f 264 270 269
f 265 271 270
f 266 272 271
f 266 267 273
f 268 274 273
f 263 269 274
f 270 276 275
f 270 271 277
f 272 278 277
f 273 279 278
f 273 274 280
f 274 269 275
f 276 282 281
f 276 277 283
f 278 284 283
f 278 279 285
f 280 286 285
f 275 281 286
f 290 296 295
f 291 297 296
f 292 298 297
f 293 299 298
f 293 294 300
f 294 289 295
f 296 302 301
f 297 303 302
f 297 298 304
f 298 299 305
f 300 306 305
f 295 301 306
f 302 308 307
f 303 309 308
f 304 310 309
f 304 305 311
f 306 312 311
f 301 307 312
f 307 308 314
f 309 315 314
f 310 316 315
f 311 317 316
f 312 318 317
f 312 307 313
f 322 328 327
f 323 329 328
f 324 330 329
f 325 331 330
f 326 332 331
f 326 321 327
f 327 328 334
f 329 335 334
f 330 336 335
f 330 331 337
f 332 338 337
f 327 333 338
f 334 340 339
f 335 341 340
f 335 336 342
f 337 343 342
f 338 344 343
f 338 333 339
f 339 340 346
f 341 347 346
f 342 348 347
f 342 343 349
f 344 350 349
f 339 345 350
f 354 360 359
f 355 361 360
f 355 356 362
f 357 363 362
f 357 358 364
f 353 359 364
f 360 366 365
f 360 361 367
f 361 362 368
f 363 369 368
f 364 370 369
f 364 359 365
f 365 366 372
f 367 373 372
f 368 374 373
f 369 375 374
f 370 376 375
f 365 371 376
f 372 378 377
f 372 373 379
f 374 380 379
f 374 375 381
f 375 376 382
f 371 377 382
f 385 386 392
f 387 393 392
f 387 388 394
f 389 395 394
f 389 390 396
f 385 391 396
f 391 392 398
f 393 399 398
f 393 394 400
f 394 395 401
f 395 396 402
f 391 397 402
f 398 404 403
f 399 405 404
f 400 406 405
f 400 401 407
f 402 408 407
f 402 397 403
f 404 410 409
f 404 405 411
f 406 412 411
f 406 407 413
f 408 414 413
f 408 403 409
f 418 424 423
f 419 425 424
f 419 420 426
f 420 421 427
f 421 422 428
f 422 417 423
f 423 424 430
f 425 431 430
f 426 432 431
f 427 433 432
f 427 428 434
f 423 429 434
f 430 436 435
f 430 431 437
f 431 432 438
f 433 439 438
f 433 434 440
f 434 429 435
f 436 442 441
f 437 443 442
f 438 444 443
f 438 439 445
f 439 440 446
f 440 435 441
f 450 456 455
f 450 451 457
f 452 458 457
f 452 453 459
f 454 460 459
f 454 449 455
f 456 462 461
f 456 457 463
f 457 458 464
f 459 465 464
f 459 460 466
f 455 461 466
f 461 462 468
f 462 463 469
f 463 464 470
f 465 471 470
f 465 466 472
f 461 467 472
f 467 468 474
f 469 475 474
f 470 476 475
f 470 471 477
f 472 478 477
f 472 467 473
f 481 482 488
f 483 489 488
f 484 490 489
f 485 491 490
f 486 492 491
f 486 481 487
f 488 494 493
f 489 495 494
f 489 490 496
f 490 491 497
f 492 498 497
f 487 493 498
f 493 494 500
f 495 501 500
f 496 502 501
f 497 503 502
f 498 504 503
f 493 499 504
f 499 500 506
f 501 507 506
f 502 508 507
f 503 509 508
f 504 510 509
f 504 499 505
f 513 514 520
f 515 521 520
f 516 522 521
f 516 517 523
f 517 518 524
f 518 513 519
f 520 526 525
f 521 527 526
f 521 522 528
f 522 523 529
f 523 524 530
f 519 525 530
f 525 526 532
f 527 533 532
f 527 528 534
f 529 535 534
f 530 536 535
f 530 525 531
f 532 538 537
f 532 533 539
f 534 540 539
f 534 535 541
f 535 536 542
f 536 531 537
f 546 552 551
f 547 553 552
f 548 554 553
f 548 549 555
f 550 556 555
f 545 551 556
f 552 558 557
f 553 559 558
f 554 560 559
f 554 555 561
f 556 562 561
f 551 557 562
f 558 564 563
f 559 565 564
f 559 560 566
f 560 561 567
f 561 562 568
f 562 557 563
f 563 564 570
f 565 571 570
f 565 566 572
f 566 567 573
f 567 568 574
f 568 563 569
f 577 578 584
f 579 585 584
f 580 586 585
f 581 587 586
f 581 582 588
f 577 583 588
f 583 584 590
f 585 591 590
f 585 586 592
f 587 593 592
f 587 588 594
f 583 589 594
f 590 596 595
f 591 597 596
f 592 598 597
f 592 593 599
f 594 600 599
f 594 589 595
f 596 602 601
f 596 597 603
f 598 604 603
f 598 599 605
f 600 606 605
f 600 595 601
f 610 616 615
f 611 617 616
f 612 618 617
f 612 613 619
f 613 614 620
f 614 609 615
f 615 616 622
f 616 617 623
f 617 618 624
f 619 625 624
f 619 620 626
f 615 621 626
f 621 622 628
f 622 623 629
f 623 624 630
f 625 631 630
f 625 626 632
f 626 621 627
f 627 628 634
f 629 635 634
f 629 630 636
f 631 637 636
f 632 638 637
f 627 633 638
