# eclipse_carrier SunFlare1_Flare.obj: Roblox cue frame, recentred on its bounding box
v -0.88027 0.02409 -0.00652
v -0.89786 0.01702 -0.00391
v -0.90499 -0.00006 0.00096
v -0.89749 -0.01714 0.00523
v -0.87975 -0.02421 0.00640
v -0.86216 -0.01714 0.00379
v -0.85503 -0.00006 -0.00108
v -0.86253 0.01702 -0.00535
v -0.87756 0.04196 0.06018
v -0.89510 0.03507 0.06346
v -0.90222 0.01806 0.06859
v -0.89473 0.00091 0.07258
v -0.87703 -0.00634 0.07308
v -0.85949 0.00055 0.06980
v -0.85238 0.01756 0.06467
v -0.85986 0.03471 0.06068
v -0.86943 0.05973 0.12648
v -0.88682 0.05319 0.13108
v -0.89387 0.03633 0.13676
v -0.88645 0.01902 0.14018
v -0.86892 0.01141 0.13934
v -0.85153 0.01795 0.13474
v -0.84448 0.03481 0.12907
v -0.85190 0.05211 0.12565
v -0.85595 0.07727 0.19196
v -0.87306 0.07108 0.19787
v -0.88000 0.05437 0.20408
v -0.87270 0.03691 0.20694
v -0.85544 0.02895 0.20478
v -0.83833 0.03513 0.19887
v -0.83139 0.05185 0.19267
v -0.83869 0.06931 0.18980
v -0.83719 0.09449 0.25622
v -0.85393 0.08865 0.26341
v -0.86071 0.07207 0.27014
v -0.85358 0.05447 0.27245
v -0.83669 0.04615 0.26900
v -0.81995 0.05200 0.26180
v -0.81316 0.06857 0.25508
v -0.82030 0.08617 0.25276
v -0.81326 0.11127 0.31885
v -0.82952 0.10577 0.32730
v -0.83612 0.08933 0.33453
v -0.82919 0.07158 0.33632
v -0.81278 0.06293 0.33160
v -0.79652 0.06843 0.32315
v -0.78993 0.08487 0.31592
v -0.79686 0.10262 0.31414
v -0.78433 0.12752 0.37948
v -0.80001 0.12234 0.38914
v -0.80637 0.10603 0.39687
v -0.79968 0.08815 0.39813
v -0.78386 0.07916 0.39219
v -0.76818 0.08434 0.38253
v -0.76182 0.10065 0.37481
v -0.76851 0.11854 0.37354
v -0.75055 0.14313 0.43773
v -0.76556 0.13826 0.44856
v -0.77165 0.12208 0.45675
v -0.76525 0.10406 0.45752
v -0.75011 0.09476 0.45041
v -0.73511 0.09963 0.43959
v -0.72902 0.11581 0.43139
v -0.73542 0.13383 0.43062
v -0.71215 0.15800 0.49324
v -0.72639 0.15343 0.50518
v -0.73217 0.13737 0.51383
v -0.72610 0.11923 0.51412
v -0.71174 0.10963 0.50589
v -0.69750 0.11420 0.49395
v -0.69172 0.13026 0.48531
v -0.69779 0.14840 0.48501
v -0.66936 0.17205 0.54567
v -0.68275 0.16776 0.55865
v -0.68818 0.15181 0.56773
v -0.68247 0.13355 0.56758
v -0.66897 0.12367 0.55829
v -0.65559 0.12796 0.54531
v -0.65016 0.14390 0.53623
v -0.65586 0.16217 0.53638
v -0.62244 0.18518 0.59470
v -0.63489 0.18116 0.60866
v -0.63994 0.16532 0.61813
v -0.63464 0.14694 0.61756
v -0.62208 0.13680 0.60729
v -0.60964 0.14082 0.59332
v -0.60459 0.15666 0.58385
v -0.60989 0.17504 0.58442
v -0.57169 0.19733 0.64001
v -0.58312 0.19355 0.65488
v -0.58776 0.17780 0.66472
v -0.58289 0.15933 0.66377
v -0.57136 0.14893 0.65258
v -0.55993 0.15272 0.63771
v -0.55529 0.16846 0.62787
v -0.56016 0.18694 0.62882
v -0.51741 0.20840 0.68134
v -0.52776 0.20484 0.69704
v -0.53195 0.18919 0.70722
v -0.52755 0.17062 0.70591
v -0.51711 0.16000 0.69389
v -0.50676 0.16356 0.67819
v -0.50257 0.17921 0.66802
v -0.50698 0.19779 0.66932
v -0.45994 0.21834 0.71843
v -0.46914 0.21498 0.73487
v -0.47287 0.19941 0.74535
v -0.46895 0.18075 0.74373
v -0.45968 0.16993 0.73096
v -0.45048 0.17330 0.71452
v -0.44675 0.18887 0.70404
v -0.45067 0.20752 0.70566
v -0.39964 0.22708 0.75106
v -0.40763 0.22390 0.76815
v -0.41087 0.20840 0.77889
v -0.40747 0.18966 0.77699
v -0.39941 0.17867 0.76356
v -0.39142 0.18186 0.74647
v -0.38817 0.19735 0.73573
v -0.39158 0.21609 0.73763
v -0.33687 0.23457 0.77901
v -0.34360 0.23154 0.79666
v -0.34634 0.21610 0.80762
v -0.34347 0.19730 0.80549
v -0.33667 0.18616 0.79150
v -0.32994 0.18919 0.77385
v -0.32720 0.20463 0.76288
v -0.33007 0.22343 0.76501
v -0.27202 0.24076 0.80211
v -0.27746 0.23785 0.82022
v -0.27967 0.22246 0.83138
v -0.27735 0.20361 0.82905
v -0.27187 0.19234 0.81459
v -0.26643 0.19526 0.79648
v -0.26422 0.21064 0.78532
v -0.26654 0.22949 0.78765
v -0.20550 0.24562 0.82023
v -0.20961 0.24280 0.83871
v -0.21128 0.22746 0.85001
v -0.20953 0.20857 0.84753
v -0.20538 0.19720 0.83270
v -0.20127 0.20001 0.81423
v -0.19961 0.21536 0.80292
v -0.20136 0.23425 0.80541
v -0.13771 0.24911 0.83326
v -0.14046 0.24636 0.85199
v -0.14158 0.23105 0.86340
v -0.14041 0.21213 0.86081
v -0.13763 0.20069 0.84572
v -0.13488 0.20343 0.82699
v -0.13376 0.21875 0.81558
v -0.13493 0.23767 0.81817
v -0.06907 0.25121 0.84110
v -0.07045 0.24851 0.86000
v -0.07101 0.23321 0.87147
v -0.07043 0.21427 0.86881
v -0.06903 0.20279 0.85356
v -0.06765 0.20549 0.83467
v -0.06709 0.22079 0.82320
v -0.06768 0.23973 0.82586
v -0.00001 0.25191 0.84372
v -0.00001 0.24923 0.86267
v -0.00001 0.23393 0.87417
v -0.00001 0.21499 0.87148
v -0.00001 0.20349 0.85619
v -0.00001 0.20617 0.83724
v -0.00001 0.22147 0.82574
v -0.00001 0.24041 0.82843
v 0.06905 0.25121 0.84110
v 0.07044 0.24851 0.85999
v 0.07100 0.23321 0.87147
v 0.07041 0.21427 0.86881
v 0.06902 0.20279 0.85357
v 0.06763 0.20549 0.83467
v 0.06707 0.22079 0.82320
v 0.06766 0.23973 0.82586
v 0.13769 0.24911 0.83325
v 0.14045 0.24637 0.85199
v 0.14156 0.23105 0.86340
v 0.14039 0.21213 0.86081
v 0.13761 0.20069 0.84572
v 0.13486 0.20343 0.82699
v 0.13374 0.21874 0.81558
v 0.13491 0.23766 0.81817
v 0.20548 0.24562 0.82023
v 0.20959 0.24281 0.83870
v 0.21126 0.22746 0.85001
v 0.20951 0.20857 0.84753
v 0.20537 0.19720 0.83271
v 0.20126 0.20001 0.81423
v 0.19959 0.21535 0.80293
v 0.20134 0.23424 0.80541
v 0.27200 0.24076 0.80211
v 0.27744 0.23785 0.82022
v 0.27965 0.22247 0.83138
v 0.27733 0.20362 0.82905
v 0.27185 0.19235 0.81460
v 0.26641 0.19525 0.79648
v 0.26420 0.21064 0.78532
v 0.26652 0.22949 0.78765
v 0.33685 0.23457 0.77900
v 0.34358 0.23154 0.79665
v 0.34632 0.21611 0.80762
v 0.34345 0.19731 0.80549
v 0.33666 0.18616 0.79150
v 0.32992 0.18919 0.77385
v 0.32719 0.20462 0.76288
v 0.33005 0.22342 0.76501
v 0.39961 0.22708 0.75105
v 0.40761 0.22390 0.76814
v 0.41085 0.20841 0.77889
v 0.40745 0.18967 0.77699
v 0.39939 0.17867 0.76357
v 0.39140 0.18185 0.74648
v 0.38815 0.19735 0.73573
v 0.39156 0.21608 0.73762
v 0.45992 0.21834 0.71843
v 0.46911 0.21499 0.73487
v 0.47285 0.19942 0.74535
v 0.46894 0.18076 0.74373
v 0.45966 0.16994 0.73097
v 0.45046 0.17329 0.71453
v 0.44673 0.18886 0.70404
v 0.45064 0.20751 0.70566
v 0.51738 0.20840 0.68133
v 0.52773 0.20485 0.69703
v 0.53194 0.18920 0.70721
v 0.52753 0.17063 0.70592
v 0.51710 0.16000 0.69390
v 0.50675 0.16356 0.67820
v 0.50255 0.17920 0.66802
v 0.50695 0.19778 0.66932
v 0.57166 0.19732 0.64000
v 0.58310 0.19355 0.65487
v 0.58774 0.17782 0.66472
v 0.58287 0.15934 0.66377
v 0.57135 0.14894 0.65259
v 0.55991 0.15271 0.63772
v 0.55527 0.16844 0.62787
v 0.56014 0.18692 0.62882
v 0.62241 0.18518 0.59468
v 0.63486 0.18117 0.60865
v 0.63992 0.16533 0.61813
v 0.63462 0.14696 0.61757
v 0.62207 0.13680 0.60730
v 0.60962 0.14081 0.59333
v 0.60457 0.15665 0.58385
v 0.60987 0.17503 0.58441
v 0.66933 0.17205 0.54566
v 0.68272 0.16777 0.55864
v 0.68816 0.15183 0.56772
v 0.68246 0.13356 0.56758
v 0.66897 0.12367 0.55830
v 0.65558 0.12795 0.54532
v 0.65014 0.14389 0.53624
v 0.65583 0.16215 0.53638
v 0.71212 0.15800 0.49323
v 0.72636 0.15344 0.50517
v 0.73215 0.13739 0.51382
v 0.72609 0.11924 0.51412
v 0.71173 0.10963 0.50590
v 0.69749 0.11419 0.49397
v 0.69170 0.13024 0.48531
v 0.69776 0.14839 0.48501
v 0.75052 0.14312 0.43772
v 0.76553 0.13827 0.44855
v 0.77163 0.12210 0.45675
v 0.76524 0.10407 0.45753
v 0.75011 0.09477 0.45042
v 0.73510 0.09962 0.43960
v 0.72900 0.11579 0.43139
v 0.73539 0.13381 0.43062
v 0.78429 0.12752 0.37947
v 0.79998 0.12235 0.38913
v 0.80635 0.10605 0.39686
v 0.79968 0.08816 0.39813
v 0.78386 0.07917 0.39220
v 0.76818 0.08433 0.38254
v 0.76180 0.10063 0.37481
v 0.76848 0.11852 0.37354
v 0.81322 0.11127 0.31884
v 0.82949 0.10578 0.32729
v 0.83610 0.08935 0.33453
v 0.82918 0.07160 0.33632
v 0.81279 0.06293 0.33161
v 0.79652 0.06842 0.32316
v 0.78991 0.08485 0.31592
v 0.79683 0.10260 0.31414
v 0.83714 0.09449 0.25621
v 0.85389 0.08866 0.26340
v 0.86070 0.07209 0.27013
v 0.85357 0.05449 0.27245
v 0.83670 0.04616 0.26901
v 0.81995 0.05198 0.26181
v 0.81314 0.06855 0.25509
v 0.82027 0.08616 0.25276
v 0.85590 0.07727 0.19195
v 0.87303 0.07110 0.19786
v 0.87998 0.05439 0.20407
v 0.87270 0.03693 0.20694
v 0.85545 0.02895 0.20479
v 0.83833 0.03512 0.19888
v 0.83137 0.05183 0.19267
v 0.83865 0.06929 0.18981
v 0.86939 0.05973 0.12648
v 0.88678 0.05321 0.13108
v 0.89385 0.03636 0.13675
v 0.88645 0.01904 0.14018
v 0.86892 0.01141 0.13935
v 0.85153 0.01793 0.13475
v 0.84447 0.03478 0.12907
v 0.85186 0.05209 0.12565
v 0.87751 0.04196 0.06018
v 0.89506 0.03509 0.06345
v 0.90220 0.01809 0.06859
v 0.89474 0.00093 0.07258
v 0.87704 -0.00634 0.07308
v 0.85949 0.00053 0.06981
v 0.85236 0.01753 0.06468
v 0.85982 0.03469 0.06069
v 0.88022 0.02409 -0.00653
v 0.89783 0.01686 -0.00459
v 0.90499 -0.00029 -0.00000
v 0.89750 -0.01729 0.00456
v 0.87976 -0.02421 0.00641
v 0.86215 -0.01698 0.00447
v 0.85499 0.00016 -0.00012
v 0.86248 0.01717 -0.00468
v 0.87751 0.00621 -0.07324
v 0.89506 -0.00138 -0.07264
v 0.90220 -0.01866 -0.06859
v 0.89474 -0.03552 -0.06346
v 0.87705 -0.04207 -0.06026
v 0.85949 -0.03448 -0.06087
v 0.85236 -0.01720 -0.06492
v 0.85982 -0.00034 -0.07004
v 0.86938 -0.01155 -0.13954
v 0.88678 -0.01950 -0.14026
v 0.89385 -0.03693 -0.13675
v 0.88645 -0.05363 -0.13106
v 0.86893 -0.05983 -0.12653
v 0.85154 -0.05188 -0.12580
v 0.84447 -0.03445 -0.12931
v 0.85186 -0.01775 -0.13500
v 0.85590 -0.02910 -0.20501
v 0.87302 -0.03739 -0.20705
v 0.87998 -0.05496 -0.20407
v 0.87271 -0.07152 -0.19782
v 0.85545 -0.07736 -0.19197
v 0.83833 -0.06907 -0.18994
v 0.83137 -0.05150 -0.19292
v 0.83865 -0.03494 -0.19916
v 0.83714 -0.04631 -0.26927
v 0.85389 -0.05495 -0.27259
v 0.86070 -0.07266 -0.27013
v 0.85358 -0.08907 -0.26334
v 0.83670 -0.09457 -0.25619
v 0.81995 -0.08593 -0.25287
v 0.81314 -0.06822 -0.25533
v 0.82026 -0.05181 -0.26212
v 0.81322 -0.06310 -0.33190
v 0.82949 -0.07207 -0.33647
v 0.83610 -0.08992 -0.33453
v 0.82919 -0.10619 -0.32720
v 0.81279 -0.11135 -0.31879
v 0.79652 -0.10237 -0.31422
v 0.78991 -0.08452 -0.31617
v 0.79682 -0.06825 -0.32349
v 0.78428 -0.07934 -0.39253
v 0.79997 -0.08864 -0.39831
v 0.80635 -0.10662 -0.39686
v 0.79968 -0.12275 -0.38902
v 0.78387 -0.12758 -0.37939
v 0.76818 -0.11828 -0.37360
v 0.76180 -0.10030 -0.37506
v 0.76847 -0.08417 -0.38290
v 0.75051 -0.09495 -0.45078
v 0.76552 -0.10456 -0.45773
v 0.77163 -0.12267 -0.45675
v 0.76525 -0.13866 -0.44841
v 0.75012 -0.14318 -0.43761
v 0.73510 -0.13357 -0.43066
v 0.72900 -0.11546 -0.43163
v 0.73538 -0.09947 -0.43997
v 0.71211 -0.10982 -0.50629
v 0.72636 -0.11973 -0.51435
v 0.73215 -0.13796 -0.51382
v 0.72610 -0.15383 -0.50501
v 0.71174 -0.15805 -0.49309
v 0.69749 -0.14814 -0.48503
v 0.69170 -0.12991 -0.48555
v 0.69775 -0.11404 -0.49436
v 0.66932 -0.12387 -0.55871
v 0.68271 -0.13406 -0.56782
v 0.68816 -0.15240 -0.56772
v 0.68247 -0.16815 -0.55847
v 0.66898 -0.17209 -0.54549
v 0.65558 -0.16190 -0.53638
v 0.65014 -0.14356 -0.53648
v 0.65583 -0.12781 -0.54573
v 0.62240 -0.13701 -0.60774
v 0.63486 -0.14746 -0.61783
v 0.63992 -0.16590 -0.61813
v 0.63463 -0.18155 -0.60846
v 0.62208 -0.18522 -0.59449
v 0.60963 -0.17477 -0.58440
v 0.60457 -0.15632 -0.58410
v 0.60986 -0.14068 -0.59376
v 0.57165 -0.14915 -0.65305
v 0.58309 -0.15984 -0.66405
v 0.58774 -0.17839 -0.66472
v 0.58288 -0.19393 -0.65467
v 0.57136 -0.19735 -0.63978
v 0.55992 -0.18666 -0.62878
v 0.55527 -0.16811 -0.62811
v 0.56013 -0.15257 -0.63817
v 0.51737 -0.16022 -0.69438
v 0.52773 -0.17114 -0.70621
v 0.53194 -0.18977 -0.70721
v 0.52754 -0.20522 -0.69681
v 0.51711 -0.20842 -0.68109
v 0.50676 -0.19751 -0.66926
v 0.50255 -0.17887 -0.66826
v 0.50694 -0.16343 -0.67866
v 0.45991 -0.17016 -0.73147
v 0.46911 -0.18127 -0.74404
v 0.47285 -0.19999 -0.74535
v 0.46894 -0.21535 -0.73463
v 0.45967 -0.21836 -0.71816
v 0.45047 -0.20724 -0.70559
v 0.44673 -0.18853 -0.70429
v 0.45064 -0.17316 -0.71500
v 0.39960 -0.17890 -0.76409
v 0.40760 -0.19019 -0.77731
v 0.41085 -0.20898 -0.77889
v 0.40746 -0.22426 -0.76789
v 0.39940 -0.22709 -0.75077
v 0.39141 -0.21581 -0.73755
v 0.38815 -0.19702 -0.73597
v 0.39155 -0.18173 -0.74697
v 0.33684 -0.18639 -0.79204
v 0.34358 -0.19783 -0.80582
v 0.34632 -0.21668 -0.80762
v 0.34346 -0.23190 -0.79639
v 0.33667 -0.23458 -0.77870
v 0.32993 -0.22314 -0.76492
v 0.32719 -0.20429 -0.76312
v 0.33005 -0.18907 -0.77435
v 0.27199 -0.19258 -0.81515
v 0.27744 -0.20414 -0.82939
v 0.27965 -0.22304 -0.83138
v 0.27734 -0.23821 -0.81995
v 0.27186 -0.24077 -0.80180
v 0.26641 -0.22921 -0.78755
v 0.26420 -0.21031 -0.78556
v 0.26651 -0.19513 -0.79699
v 0.20547 -0.19744 -0.83327
v 0.20959 -0.20909 -0.84787
v 0.21126 -0.22803 -0.85001
v 0.20951 -0.24316 -0.83843
v 0.20537 -0.24562 -0.81991
v 0.20126 -0.23396 -0.80530
v 0.19959 -0.21502 -0.80317
v 0.20133 -0.19989 -0.81475
v 0.13769 -0.20093 -0.84629
v 0.14044 -0.21265 -0.86116
v 0.14156 -0.23162 -0.86340
v 0.14039 -0.24672 -0.85171
v 0.13762 -0.24911 -0.83293
v 0.13486 -0.23738 -0.81806
v 0.13374 -0.21841 -0.81582
v 0.13491 -0.20331 -0.82751
v 0.06905 -0.20303 -0.85414
v 0.07043 -0.21480 -0.86916
v 0.07100 -0.23378 -0.87147
v 0.07041 -0.24886 -0.85971
v 0.06902 -0.25121 -0.84077
v 0.06764 -0.23944 -0.82575
v 0.06707 -0.22046 -0.82344
v 0.06766 -0.20537 -0.83520
v -0.00001 -0.20373 -0.85676
v -0.00001 -0.21551 -0.87183
v -0.00001 -0.23450 -0.87417
v -0.00001 -0.24958 -0.86238
v -0.00001 -0.25191 -0.84339
v -0.00001 -0.24013 -0.82832
v -0.00001 -0.22114 -0.82598
v -0.00001 -0.20606 -0.83777
v -0.06907 -0.20303 -0.85414
v -0.07045 -0.21479 -0.86916
v -0.07101 -0.23378 -0.87147
v -0.07043 -0.24886 -0.85971
v -0.06904 -0.25121 -0.84077
v -0.06765 -0.23944 -0.82575
v -0.06709 -0.22046 -0.82344
v -0.06768 -0.20537 -0.83520
v -0.13771 -0.20093 -0.84629
v -0.14046 -0.21265 -0.86116
v -0.14158 -0.23162 -0.86340
v -0.14041 -0.24672 -0.85171
v -0.13764 -0.24911 -0.83293
v -0.13488 -0.23738 -0.81806
v -0.13376 -0.21842 -0.81582
v -0.13493 -0.20331 -0.82751
v -0.20549 -0.19744 -0.83326
v -0.20960 -0.20909 -0.84787
v -0.21128 -0.22803 -0.85001
v -0.20953 -0.24316 -0.83843
v -0.20539 -0.24562 -0.81992
v -0.20128 -0.23397 -0.80531
v -0.19961 -0.21503 -0.80317
v -0.20135 -0.19990 -0.81475
v -0.27201 -0.19258 -0.81514
v -0.27745 -0.20414 -0.82939
v -0.27967 -0.22304 -0.83138
v -0.27736 -0.23821 -0.81996
v -0.27188 -0.24077 -0.80180
v -0.26643 -0.22921 -0.78756
v -0.26422 -0.21031 -0.78556
v -0.26653 -0.19514 -0.79699
v -0.33685 -0.18639 -0.79203
v -0.34359 -0.19782 -0.80582
v -0.34634 -0.21667 -0.80762
v -0.34348 -0.23190 -0.79640
v -0.33669 -0.23458 -0.77871
v -0.32995 -0.22315 -0.76492
v -0.32720 -0.20430 -0.76312
v -0.33006 -0.18907 -0.77435
v -0.39962 -0.17890 -0.76408
v -0.40762 -0.19018 -0.77731
v -0.41087 -0.20897 -0.77889
v -0.40748 -0.22426 -0.76790
v -0.39942 -0.22709 -0.75077
v -0.39143 -0.21581 -0.73755
v -0.38817 -0.19702 -0.73597
v -0.39156 -0.18173 -0.74696
v -0.45992 -0.17016 -0.73146
v -0.46912 -0.18126 -0.74404
v -0.47287 -0.19998 -0.74535
v -0.46897 -0.21535 -0.73464
v -0.45970 -0.21836 -0.71817
v -0.45049 -0.20725 -0.70560
v -0.44675 -0.18853 -0.70428
v -0.45065 -0.17317 -0.71500
v -0.51739 -0.16022 -0.69437
v -0.52774 -0.17113 -0.70620
v -0.53195 -0.18976 -0.70722
v -0.52756 -0.20521 -0.69682
v -0.51713 -0.20843 -0.68110
v -0.50678 -0.19752 -0.66927
v -0.50257 -0.17888 -0.66826
v -0.50696 -0.16343 -0.67866
v -0.57166 -0.14915 -0.65304
v -0.58310 -0.15983 -0.66405
v -0.58776 -0.17838 -0.66472
v -0.58291 -0.19392 -0.65468
v -0.57139 -0.19736 -0.63979
v -0.55995 -0.18667 -0.62879
v -0.55529 -0.16813 -0.62811
v -0.56014 -0.15258 -0.63816
v -0.62241 -0.13700 -0.60773
v -0.63487 -0.14744 -0.61782
v -0.63994 -0.16589 -0.61813
v -0.63466 -0.18154 -0.60847
v -0.62211 -0.18522 -0.59450
v -0.60966 -0.17478 -0.58440
v -0.60459 -0.15633 -0.58409
v -0.60987 -0.14068 -0.59375
v -0.66933 -0.12387 -0.55870
v -0.68272 -0.13405 -0.56782
v -0.68818 -0.15239 -0.56773
v -0.68249 -0.16814 -0.55848
v -0.66901 -0.17209 -0.54550
v -0.65561 -0.16191 -0.53638
v -0.65016 -0.14357 -0.53647
v -0.65584 -0.12781 -0.54572
v -0.71212 -0.10982 -0.50628
v -0.72637 -0.11972 -0.51434
v -0.73217 -0.13794 -0.51383
v -0.72612 -0.15382 -0.50502
v -0.71177 -0.15805 -0.49310
v -0.69752 -0.14815 -0.48503
v -0.69172 -0.12993 -0.48555
v -0.69776 -0.11405 -0.49435
v -0.75051 -0.09495 -0.45077
v -0.76553 -0.10454 -0.45773
v -0.77165 -0.12265 -0.45675
v -0.76528 -0.13865 -0.44842
v -0.75015 -0.14318 -0.43762
v -0.73513 -0.13359 -0.43066
v -0.72902 -0.11548 -0.43163
v -0.73539 -0.09948 -0.43996
v -0.78428 -0.07934 -0.39252
v -0.79998 -0.08862 -0.39831
v -0.80637 -0.10660 -0.39687
v -0.79971 -0.12274 -0.38903
v -0.78391 -0.12758 -0.37940
v -0.76821 -0.11830 -0.37361
v -0.76182 -0.10032 -0.37505
v -0.76848 -0.08418 -0.38289
v -0.81322 -0.06309 -0.33189
v -0.82949 -0.07205 -0.33647
v -0.83612 -0.08990 -0.33453
v -0.82922 -0.10617 -0.32721
v -0.81283 -0.11135 -0.31880
v -0.79656 -0.10239 -0.31422
v -0.78993 -0.08454 -0.31616
v -0.79683 -0.06827 -0.32348
v -0.83714 -0.04631 -0.26926
v -0.85389 -0.05494 -0.27259
v -0.86071 -0.07264 -0.27014
v -0.85361 -0.08906 -0.26335
v -0.83674 -0.09457 -0.25620
v -0.81999 -0.08595 -0.25287
v -0.81316 -0.06824 -0.25532
v -0.82027 -0.05182 -0.26211
v -0.85590 -0.02910 -0.20501
v -0.87303 -0.03737 -0.20705
v -0.88000 -0.05494 -0.20408
v -0.87274 -0.07151 -0.19783
v -0.85549 -0.07736 -0.19198
v -0.83836 -0.06909 -0.18994
v -0.83139 -0.05152 -0.19291
v -0.83865 -0.03495 -0.19915
v -0.86938 -0.01155 -0.13953
v -0.88678 -0.01948 -0.14026
v -0.89387 -0.03690 -0.13676
v -0.88649 -0.05362 -0.13107
v -0.86897 -0.05983 -0.12653
v -0.85157 -0.05190 -0.12580
v -0.84448 -0.03448 -0.12931
v -0.85186 -0.01776 -0.13500
v -0.87750 0.00621 -0.07324
v -0.89506 -0.00136 -0.07264
v -0.90222 -0.01864 -0.06859
v -0.89477 -0.03550 -0.06347
v -0.87709 -0.04207 -0.06027
v -0.85953 -0.03450 -0.06086
v -0.85237 -0.01722 -0.06491
v -0.85982 -0.00036 -0.07004
v -0.88022 0.02408 -0.00654
v -0.89782 0.01669 -0.00527
v -0.90499 -0.00051 -0.00095
v -0.89753 -0.01745 0.00389
v -0.87980 -0.02421 0.00642
v -0.86220 -0.01681 0.00515
v -0.85503 0.00039 0.00083
v -0.86249 0.01733 -0.00401
f 2 9 1
f 3 10 2
f 3 12 11
f 4 13 12
f 5 14 13
f 6 15 14
f 8 15 7
f 1 16 8
f 9 18 17
f 10 19 18
f 11 20 19
f 12 21 20
f 13 22 21
f 14 23 22
f 15 24 23
f 16 17 24
f 17 26 25
f 18 27 26
f 19 28 27
f 20 29 28
f 21 30 29
f 22 31 30
f 23 32 31
f 24 25 32
f 25 34 33
f 26 35 34
f 27 36 35
f 28 37 36
f 29 38 37
f 30 39 38
f 31 40 39
f 32 33 40
f 33 42 41
f 34 43 42
f 35 44 43
f 36 45 44
f 37 46 45
f 38 47 46
f 39 48 47
f 40 41 48
f 41 50 49
f 42 51 50
f 43 52 51
f 44 53 52
f 45 54 53
f 46 55 54
f 47 56 55
f 48 49 56
f 49 58 57
f 50 59 58
f 51 60 59
f 52 61 60
f 53 62 61
f 54 63 62
f 55 64 63
f 56 57 64
f 57 66 65
f 58 67 66
f 59 68 67
f 60 69 68
f 61 70 69
f 62 71 70
f 63 72 71
f 64 65 72
f 65 74 73
f 66 75 74
f 67 76 75
f 68 77 76
f 69 78 77
f 70 79 78
f 71 80 79
f 72 73 80
f 73 82 81
f 74 83 82
f 75 84 83
f 76 85 84
f 77 86 85
f 78 87 86
f 79 88 87
f 80 81 88
f 81 90 89
f 82 91 90
f 83 92 91
f 84 93 92
f 85 94 93
f 86 95 94
f 87 96 95
f 88 89 96
f 89 98 97
f 90 99 98
f 91 100 99
f 92 101 100
f 93 102 101
f 94 103 102
f 95 104 103
f 96 97 104
f 97 106 105
f 98 107 106
f 99 108 107
f 100 109 108
f 101 110 109
f 102 111 110
f 103 112 111
f 104 105 112
f 105 114 113
f 106 115 114
f 107 116 115
f 108 117 116
f 109 118 117
f 110 119 118
f 111 120 119
f 112 113 120
f 113 122 121
f 114 123 122
f 115 124 123
f 116 125 124
f 117 126 125
f 118 127 126
f 119 128 127
f 120 121 128
f 121 130 129
f 122 131 130
f 123 132 131
f 124 133 132
f 125 134 133
f 126 135 134
f 127 136 135
f 128 129 136
f 129 138 137
f 130 139 138
f 131 140 139
f 132 141 140
f 133 142 141
f 134 143 142
f 135 144 143
f 136 137 144
f 137 146 145
f 138 147 146
f 139 148 147
f 140 149 148
f 141 150 149
f 142 151 150
f 143 152 151
f 144 145 152
f 145 154 153
f 146 155 154
f 147 156 155
f 148 157 156
f 149 158 157
f 150 159 158
f 151 160 159
f 152 153 160
f 153 162 161
f 154 163 162
f 155 164 163
f 156 165 164
f 157 166 165
f 158 167 166
f 159 168 167
f 160 161 168
f 161 170 169
f 162 171 170
f 163 172 171
f 164 173 172
f 165 174 173
f 166 175 174
f 167 176 175
f 168 169 176
f 169 178 177
f 170 179 178
f 171 180 179
f 172 181 180
f 173 182 181
f 174 183 182
f 175 184 183
f 176 177 184
f 177 186 185
f 178 187 186
f 179 188 187
f 180 189 188
f 181 190 189
f 182 191 190
f 183 192 191
f 184 185 192
f 185 194 193
f 186 195 194
f 187 196 195
f 188 197 196
f 189 198 197
f 190 199 198
f 191 200 199
f 192 193 200
f 193 202 201
f 194 203 202
f 195 204 203
f 196 205 204
f 197 206 205
f 198 207 206
f 199 208 207
f 200 201 208
f 201 210 209
f 202 211 210
f 203 212 211
f 204 213 212
f 205 214 213
f 206 215 214
f 207 216 215
f 208 209 216
f 209 218 217
f 210 219 218
f 211 220 219
f 212 221 220
f 213 222 221
f 214 223 222
f 215 224 223
f 216 217 224
f 217 226 225
f 218 227 226
f 219 228 227
f 220 229 228
f 221 230 229
f 222 231 230
f 223 232 231
f 224 225 232
f 225 234 233
f 226 235 234
f 227 236 235
f 228 237 236
f 229 238 237
f 230 239 238
f 231 240 239
f 232 233 240
f 233 242 241
f 234 243 242
f 235 244 243
f 236 245 244
f 237 246 245
f 238 247 246
f 239 248 247
f 240 241 248
f 241 250 249
f 242 251 250
f 243 252 251
f 244 253 252
f 245 254 253
f 246 255 254
f 247 256 255
f 248 249 256
f 249 258 257
f 250 259 258
f 251 260 259
f 252 261 260
f 253 262 261
f 254 263 262
f 255 264 263
f 256 257 264
f 257 266 265
f 258 267 266
f 259 268 267
f 260 269 268
f 261 270 269
f 262 271 270
f 263 272 271
f 264 265 272
f 265 274 273
f 266 275 274
f 267 276 275
f 268 277 276
f 269 278 277
f 270 279 278
f 271 280 279
f 272 273 280
f 273 282 281
f 274 283 282
f 275 284 283
f 276 285 284
f 277 286 285
f 278 287 286
f 279 288 287
f 280 281 288
f 281 290 289
f 282 291 290
f 283 292 291
f 284 293 292
f 285 294 293
f 286 295 294
f 287 296 295
f 288 289 296
f 289 298 297
f 290 299 298
f 291 300 299
f 292 301 300
f 293 302 301
f 294 303 302
f 295 304 303
f 296 297 304
f 297 306 305
f 298 307 306
f 299 308 307
f 300 309 308
f 301 310 309
f 302 311 310
f 303 312 311
f 304 305 312
f 305 314 313
f 306 315 314
f 307 316 315
f 308 317 316
f 309 318 317
f 310 319 318
f 311 320 319
f 312 313 320
f 313 322 321
f 314 323 322
f 315 324 323
f 316 325 324
f 317 326 325
f 318 327 326
f 319 328 327
f 320 321 328
f 321 330 329
f 322 331 330
f 323 332 331
f 324 333 332
f 325 334 333
f 326 335 334
f 327 336 335
f 328 329 336
f 329 338 337
f 330 339 338
f 331 340 339
f 332 341 340
f 333 342 341
f 334 343 342
f 335 344 343
f 336 337 344
f 337 346 345
f 338 347 346
f 339 348 347
f 340 349 348
f 341 350 349
f 342 351 350
f 343 352 351
f 344 345 352
f 345 354 353
f 346 355 354
f 347 356 355
f 348 357 356
f 349 358 357
f 350 359 358
f 351 360 359
f 352 353 360
f 353 362 361
f 354 363 362
f 355 364 363
f 356 365 364
f 357 366 365
f 358 367 366
f 359 368 367
f 360 361 368
f 361 370 369
f 362 371 370
f 363 372 371
f 364 373 372
f 365 374 373
f 366 375 374
f 367 376 375
f 368 369 376
f 369 378 377
f 370 379 378
f 371 380 379
f 372 381 380
f 373 382 381
f 374 383 382
f 375 384 383
f 376 377 384
f 377 386 385
f 378 387 386
f 379 388 387
f 380 389 388
f 381 390 389
f 382 391 390
f 383 392 391
f 384 385 392
f 385 394 393
f 386 395 394
f 387 396 395
f 388 397 396
f 389 398 397
f 390 399 398
f 391 400 399
f 392 393 400
f 393 402 401
f 394 403 402
f 395 404 403
f 396 405 404
f 397 406 405
f 398 407 406
f 399 408 407
f 400 401 408
f 401 410 409
f 402 411 410
f 403 412 411
f 404 413 412
f 405 414 413
f 406 415 414
f 407 416 415
f 408 409 416
f 409 418 417
f 410 419 418
f 411 420 419
f 412 421 420
f 413 422 421
f 414 423 422
f 415 424 423
f 416 417 424
f 417 426 425
f 418 427 426
f 419 428 427
f 420 429 428
f 421 430 429
f 422 431 430
f 423 432 431
f 424 425 432
f 425 434 433
f 426 435 434
f 427 436 435
f 428 437 436
f 429 438 437
f 430 439 438
f 431 440 439
f 432 433 440
f 433 442 441
f 434 443 442
f 435 444 443
f 436 445 444
f 437 446 445
f 438 447 446
f 439 448 447
f 440 441 448
f 441 450 449
f 442 451 450
f 443 452 451
f 444 453 452
f 445 454 453
f 446 455 454
f 447 456 455
f 448 449 456
f 449 458 457
f 450 459 458
f 451 460 459
f 452 461 460
f 453 462 461
f 454 463 462
f 455 464 463
f 456 457 464
f 457 466 465
f 458 467 466
f 459 468 467
f 460 469 468
f 461 470 469
f 462 471 470
f 463 472 471
f 464 465 472
f 465 474 473
f 466 475 474
f 467 476 475
f 468 477 476
f 469 478 477
f 470 479 478
f 471 480 479
f 472 473 480
f 473 482 481
f 474 483 482
f 475 484 483
f 476 485 484
f 477 486 485
f 478 487 486
f 479 488 487
f 480 481 488
f 481 490 489
f 482 491 490
f 483 492 491
f 484 493 492
f 485 494 493
f 486 495 494
f 487 496 495
f 488 489 496
f 489 498 497
f 490 499 498
f 491 500 499
f 492 501 500
f 493 502 501
f 494 503 502
f 495 504 503
f 496 497 504
f 497 506 505
f 498 507 506
f 499 508 507
f 500 509 508
f 501 510 509
f 502 511 510
f 503 512 511
f 504 505 512
f 505 514 513
f 506 515 514
f 507 516 515
f 508 517 516
f 509 518 517
f 510 519 518
f 511 520 519
f 512 513 520
f 513 522 521
f 514 523 522
f 515 524 523
f 516 525 524
f 517 526 525
f 518 527 526
f 519 528 527
f 520 521 528
f 521 530 529
f 522 531 530
f 523 532 531
f 524 533 532
f 525 534 533
f 526 535 534
f 527 536 535
f 528 529 536
f 529 538 537
f 530 539 538
f 531 540 539
f 532 541 540
f 533 542 541
f 534 543 542
f 535 544 543
f 536 537 544
f 537 546 545
f 538 547 546
f 539 548 547
f 540 549 548
f 541 550 549
f 542 551 550
f 543 552 551
f 544 545 552
f 545 554 553
f 546 555 554
f 547 556 555
f 548 557 556
f 549 558 557
f 550 559 558
f 551 560 559
f 552 553 560
f 553 562 561
f 554 563 562
f 555 564 563
f 556 565 564
f 557 566 565
f 558 567 566
f 559 568 567
f 560 561 568
f 561 570 569
f 562 571 570
f 563 572 571
f 564 573 572
f 565 574 573
f 566 575 574
f 567 576 575
f 568 569 576
f 569 578 577
f 570 579 578
f 571 580 579
f 572 581 580
f 573 582 581
f 574 583 582
f 575 584 583
f 576 577 584
f 577 586 585
f 578 587 586
f 579 588 587
f 580 589 588
f 581 590 589
f 582 591 590
f 583 592 591
f 584 585 592
f 585 594 593
f 586 595 594
f 587 596 595
f 588 597 596
f 589 598 597
f 590 599 598
f 591 600 599
f 592 593 600
f 593 602 601
f 594 603 602
f 595 604 603
f 596 605 604
f 597 606 605
f 598 607 606
f 599 608 607
f 600 601 608
f 601 610 609
f 602 611 610
f 603 612 611
f 604 613 612
f 605 614 613
f 606 615 614
f 607 616 615
f 608 609 616
f 609 618 617
f 610 619 618
f 611 620 619
f 612 621 620
f 613 622 621
f 614 623 622
f 615 624 623
f 616 617 624
f 617 626 625
f 618 627 626
f 619 628 627
f 620 629 628
f 621 630 629
f 622 631 630
f 623 632 631
f 624 625 632
f 625 634 633
f 626 635 634
f 627 636 635
f 628 637 636
f 629 638 637
f 630 639 638
f 631 640 639
f 632 633 640
f 633 642 641
f 634 643 642
f 636 643 635
f 637 644 636
f 638 645 637
f 639 646 638
f 639 648 647
f 640 641 648
f 2 10 9
f 3 11 10
f 3 4 12
f 4 5 13
f 5 6 14
f 6 7 15
f 8 16 15
f 1 9 16
f 9 10 18
f 10 11 19
f 11 12 20
f 12 13 21
f 13 14 22
f 14 15 23
f 15 16 24
f 16 9 17
f 17 18 26
f 18 19 27
f 19 20 28
f 20 21 29
f 21 22 30
f 22 23 31
f 23 24 32
f 24 17 25
f 25 26 34
f 26 27 35
f 27 28 36
f 28 29 37
f 29 30 38
f 30 31 39
f 31 32 40
f 32 25 33
f 33 34 42
f 34 35 43
f 35 36 44
f 36 37 45
f 37 38 46
f 38 39 47
f 39 40 48
f 40 33 41
f 41 42 50
f 42 43 51
f 43 44 52
f 44 45 53
f 45 46 54
f 46 47 55
f 47 48 56
f 48 41 49
f 49 50 58
f 50 51 59
f 51 52 60
f 52 53 61
f 53 54 62
f 54 55 63
f 55 56 64
f 56 49 57
f 57 58 66
f 58 59 67
f 59 60 68
f 60 61 69
f 61 62 70
f 62 63 71
f 63 64 72
f 64 57 65
f 65 66 74
f 66 67 75
f 67 68 76
f 68 69 77
f 69 70 78
f 70 71 79
f 71 72 80
f 72 65 73
f 73 74 82
f 74 75 83
f 75 76 84
f 76 77 85
f 77 78 86
f 78 79 87
f 79 80 88
f 80 73 81
f 81 82 90
f 82 83 91
f 83 84 92
f 84 85 93
f 85 86 94
f 86 87 95
f 87 88 96
f 88 81 89
f 89 90 98
f 90 91 99
f 91 92 100
f 92 93 101
f 93 94 102
f 94 95 103
f 95 96 104
f 96 89 97
f 97 98 106
f 98 99 107
f 99 100 108
f 100 101 109
f 101 102 110
f 102 103 111
f 103 104 112
f 104 97 105
f 105 106 114
f 106 107 115
f 107 108 116
f 108 109 117
f 109 110 118
f 110 111 119
f 111 112 120
f 112 105 113
f 113 114 122
f 114 115 123
f 115 116 124
f 116 117 125
f 117 118 126
f 118 119 127
f 119 120 128
f 120 113 121
f 121 122 130
f 122 123 131
f 123 124 132
f 124 125 133
f 125 126 134
f 126 127 135
f 127 128 136
f 128 121 129
f 129 130 138
f 130 131 139
f 131 132 140
f 132 133 141
f 133 134 142
f 134 135 143
f 135 136 144
f 136 129 137
f 137 138 146
f 138 139 147
f 139 140 148
f 140 141 149
f 141 142 150
f 142 143 151
f 143 144 152
f 144 137 145
f 145 146 154
f 146 147 155
f 147 148 156
f 148 149 157
f 149 150 158
f 150 151 159
f 151 152 160
f 152 145 153
f 153 154 162
f 154 155 163
f 155 156 164
f 156 157 165
f 157 158 166
f 158 159 167
f 159 160 168
f 160 153 161
f 161 162 170
f 162 163 171
f 163 164 172
f 164 165 173
f 165 166 174
f 166 167 175
f 167 168 176
f 168 161 169
f 169 170 178
f 170 171 179
f 171 172 180
f 172 173 181
f 173 174 182
f 174 175 183
f 175 176 184
f 176 169 177
f 177 178 186
f 178 179 187
f 179 180 188
f 180 181 189
f 181 182 190
f 182 183 191
f 183 184 192
f 184 177 185
f 185 186 194
f 186 187 195
f 187 188 196
f 188 189 197
f 189 190 198
f 190 191 199
f 191 192 200
f 192 185 193
f 193 194 202
f 194 195 203
f 195 196 204
f 196 197 205
f 197 198 206
f 198 199 207
f 199 200 208
f 200 193 201
f 201 202 210
f 202 203 211
f 203 204 212
f 204 205 213
f 205 206 214
f 206 207 215
f 207 208 216
f 208 201 209
f 209 210 218
f 210 211 219
f 211 212 220
f 212 213 221
f 213 214 222
f 214 215 223
f 215 216 224
f 216 209 217
f 217 218 226
f 218 219 227
f 219 220 228
f 220 221 229
f 221 222 230
f 222 223 231
f 223 224 232
f 224 217 225
f 225 226 234
f 226 227 235
f 227 228 236
f 228 229 237
f 229 230 238
f 230 231 239
f 231 232 240
f 232 225 233
f 233 234 242
f 234 235 243
f 235 236 244
f 236 237 245
f 237 238 246
f 238 239 247
f 239 240 248
f 240 233 241
f 241 242 250
f 242 243 251
f 243 244 252
f 244 245 253
f 245 246 254
f 246 247 255
f 247 248 256
f 248 241 249
f 249 250 258
f 250 251 259
f 251 252 260
f 252 253 261
f 253 254 262
f 254 255 263
f 255 256 264
f 256 249 257
f 257 258 266
f 258 259 267
f 259 260 268
f 260 261 269
f 261 262 270
f 262 263 271
f 263 264 272
f 264 257 265
f 265 266 274
f 266 267 275
f 267 268 276
f 268 269 277
f 269 270 278
f 270 271 279
f 271 272 280
f 272 265 273
f 273 274 282
f 274 275 283
f 275 276 284
f 276 277 285
f 277 278 286
f 278 279 287
f 279 280 288
f 280 273 281
f 281 282 290
f 282 283 291
f 283 284 292
f 284 285 293
f 285 286 294
f 286 287 295
f 287 288 296
f 288 281 289
f 289 290 298
f 290 291 299
f 291 292 300
f 292 293 301
f 293 294 302
f 294 295 303
f 295 296 304
f 296 289 297
f 297 298 306
f 298 299 307
f 299 300 308
f 300 301 309
f 301 302 310
f 302 303 311
f 303 304 312
f 304 297 305
f 305 306 314
f 306 307 315
f 307 308 316
f 308 309 317
f 309 310 318
f 310 311 319
f 311 312 320
f 312 305 313
f 313 314 322
f 314 315 323
f 315 316 324
f 316 317 325
f 317 318 326
f 318 319 327
f 319 320 328
f 320 313 321
f 321 322 330
f 322 323 331
f 323 324 332
f 324 325 333
f 325 326 334
f 326 327 335
f 327 328 336
f 328 321 329
f 329 330 338
f 330 331 339
f 331 332 340
f 332 333 341
f 333 334 342
f 334 335 343
f 335 336 344
f 336 329 337
f 337 338 346
f 338 339 347
f 339 340 348
f 340 341 349
f 341 342 350
f 342 343 351
f 343 344 352
f 344 337 345
f 345 346 354
f 346 347 355
f 347 348 356
f 348 349 357
f 349 350 358
f 350 351 359
f 351 352 360
f 352 345 353
f 353 354 362
f 354 355 363
f 355 356 364
f 356 357 365
f 357 358 366
f 358 359 367
f 359 360 368
f 360 353 361
f 361 362 370
f 362 363 371
f 363 364 372
f 364 365 373
f 365 366 374
f 366 367 375
f 367 368 376
f 368 361 369
f 369 370 378
f 370 371 379
f 371 372 380
f 372 373 381
f 373 374 382
f 374 375 383
f 375 376 384
f 376 369 377
f 377 378 386
f 378 379 387
f 379 380 388
f 380 381 389
f 381 382 390
f 382 383 391
f 383 384 392
f 384 377 385
f 385 386 394
f 386 387 395
f 387 388 396
f 388 389 397
f 389 390 398
f 390 391 399
f 391 392 400
f 392 385 393
f 393 394 402
f 394 395 403
f 395 396 404
f 396 397 405
f 397 398 406
f 398 399 407
f 399 400 408
f 400 393 401
f 401 402 410
f 402 403 411
f 403 404 412
f 404 405 413
f 405 406 414
f 406 407 415
f 407 408 416
f 408 401 409
f 409 410 418
f 410 411 419
f 411 412 420
f 412 413 421
f 413 414 422
f 414 415 423
f 415 416 424
f 416 409 417
f 417 418 426
f 418 419 427
f 419 420 428
f 420 421 429
f 421 422 430
f 422 423 431
f 423 424 432
f 424 417 425
f 425 426 434
f 426 427 435
f 427 428 436
f 428 429 437
f 429 430 438
f 430 431 439
f 431 432 440
f 432 425 433
f 433 434 442
f 434 435 443
f 435 436 444
f 436 437 445
f 437 438 446
f 438 439 447
f 439 440 448
f 440 433 441
f 441 442 450
f 442 443 451
f 443 444 452
f 444 445 453
f 445 446 454
f 446 447 455
f 447 448 456
f 448 441 449
f 449 450 458
f 450 451 459
f 451 452 460
f 452 453 461
f 453 454 462
f 454 455 463
f 455 456 464
f 456 449 457
f 457 458 466
f 458 459 467
f 459 460 468
f 460 461 469
f 461 462 470
f 462 463 471
f 463 464 472
f 464 457 465
f 465 466 474
f 466 467 475
f 467 468 476
f 468 469 477
f 469 470 478
f 470 471 479
f 471 472 480
f 472 465 473
f 473 474 482
f 474 475 483
f 475 476 484
f 476 477 485
f 477 478 486
f 478 479 487
f 479 480 488
f 480 473 481
f 481 482 490
f 482 483 491
f 483 484 492
f 484 485 493
f 485 486 494
f 486 487 495
f 487 488 496
f 488 481 489
f 489 490 498
f 490 491 499
f 491 492 500
f 492 493 501
f 493 494 502
f 494 495 503
f 495 496 504
f 496 489 497
f 497 498 506
f 498 499 507
f 499 500 508
f 500 501 509
f 501 502 510
f 502 503 511
f 503 504 512
f 504 497 505
f 505 506 514
f 506 507 515
f 507 508 516
f 508 509 517
f 509 510 518
f 510 511 519
f 511 512 520
f 512 505 513
f 513 514 522
f 514 515 523
f 515 516 524
f 516 517 525
f 517 518 526
f 518 519 527
f 519 520 528
f 520 513 521
f 521 522 530
f 522 523 531
f 523 524 532
f 524 525 533
f 525 526 534
f 526 527 535
f 527 528 536
f 528 521 529
f 529 530 538
f 530 531 539
f 531 532 540
f 532 533 541
f 533 534 542
f 534 535 543
f 535 536 544
f 536 529 537
f 537 538 546
f 538 539 547
f 539 540 548
f 540 541 549
f 541 542 550
f 542 543 551
f 543 544 552
f 544 537 545
f 545 546 554
f 546 547 555
f 547 548 556
f 548 549 557
f 549 550 558
f 550 551 559
f 551 552 560
f 552 545 553
f 553 554 562
f 554 555 563
f 555 556 564
f 556 557 565
f 557 558 566
f 558 559 567
f 559 560 568
f 560 553 561
f 561 562 570
f 562 563 571
f 563 564 572
f 564 565 573
f 565 566 574
f 566 567 575
f 567 568 576
f 568 561 569
f 569 570 578
f 570 571 579
f 571 572 580
f 572 573 581
f 573 574 582
f 574 575 583
f 575 576 584
f 576 569 577
f 577 578 586
f 578 579 587
f 579 580 588
f 580 581 589
f 581 582 590
f 582 583 591
f 583 584 592
f 584 577 585
f 585 586 594
f 586 587 595
f 587 588 596
f 588 589 597
f 589 590 598
f 590 591 599
f 591 592 600
f 592 585 593
f 593 594 602
f 594 595 603
f 595 596 604
f 596 597 605
f 597 598 606
f 598 599 607
f 599 600 608
f 600 593 601
f 601 602 610
f 602 603 611
f 603 604 612
f 604 605 613
f 605 606 614
f 606 607 615
f 607 608 616
f 608 601 609
f 609 610 618
f 610 611 619
f 611 612 620
f 612 613 621
f 613 614 622
f 614 615 623
f 615 616 624
f 616 609 617
f 617 618 626
f 618 619 627
f 619 620 628
f 620 621 629
f 621 622 630
f 622 623 631
f 623 624 632
f 624 617 625
f 625 626 634
f 626 627 635
f 627 628 636
f 628 629 637
f 629 630 638
f 630 631 639
f 631 632 640
f 632 625 633
f 633 634 642
f 634 635 643
f 636 644 643
f 637 645 644
f 638 646 645
f 639 647 646
f 639 640 648
f 640 633 641
