# kitsune EarR_Porcelain.obj: Roblox cue frame, recentred on its bounding box
v 0.00011 -0.08687 -0.03626
v 0.02393 -0.07971 -0.03418
v 0.04440 -0.07447 -0.02823
v 0.05838 -0.07195 -0.01934
v 0.06377 -0.07253 -0.00886
v 0.05972 -0.07613 0.00163
v 0.04687 -0.08220 0.01052
v 0.02717 -0.08981 0.01646
v 0.00361 -0.09781 0.01855
v -0.02022 -0.10498 0.01646
v -0.04068 -0.11022 0.01052
v -0.05467 -0.11274 0.00163
v -0.06005 -0.11215 -0.00886
v -0.05601 -0.10855 -0.01934
v -0.04315 -0.10248 -0.02823
v -0.02345 -0.09487 -0.03418
v -0.06377 0.11274 0.03626
f 1 17 2
f 2 17 3
f 3 17 4
f 4 17 5
f 5 17 6
f 6 17 7
f 7 17 8
f 8 17 9
f 9 17 10
f 10 17 11
f 11 17 12
f 12 17 13
f 13 17 14
f 14 17 15
f 14 15 12
f 15 17 16
f 16 17 1
f 16 1 9
f 1 2 8
f 2 3 8
f 3 4 7
f 8 3 7
f 4 5 6
f 6 7 4
f 8 9 1
f 9 10 16
f 10 11 16
f 11 12 15
f 16 11 15
f 12 13 14
