# kitsune EarR_Crimson.obj: Roblox cue frame, recentred on its bounding box
v 0.00435 -0.06960 -0.02526
v 0.01974 -0.06494 -0.02407
v 0.03293 -0.06146 -0.02067
v 0.04193 -0.05970 -0.01559
v 0.04536 -0.05992 -0.00960
v 0.04269 -0.06209 -0.00361
v 0.03435 -0.06588 0.00147
v 0.02159 -0.07071 0.00487
v 0.00635 -0.07585 0.00606
v -0.00903 -0.08051 0.00487
v -0.02222 -0.08399 0.00147
v -0.03122 -0.08575 -0.00361
v -0.03465 -0.08552 -0.00960
v -0.03199 -0.08335 -0.01559
v -0.02364 -0.07957 -0.02067
v -0.01088 -0.07474 -0.02407
v -0.04536 0.08575 0.02526
f 1 17 2
f 2 17 3
f 3 17 4
f 4 17 5
f 5 17 6
f 6 17 7
f 7 17 8
f 8 17 9
f 9 17 10
f 10 17 11
f 11 17 12
f 12 17 13
f 13 17 14
f 14 17 15
f 14 15 12
f 15 17 16
f 16 17 1
f 16 1 9
f 1 2 8
f 2 3 8
f 3 4 7
f 8 3 7
f 4 5 6
f 6 7 4
f 8 9 1
f 9 10 16
f 10 11 16
f 11 12 15
f 16 11 15
f 12 13 14
