# kitsune Mask_Nose.obj: Roblox cue frame, recentred on its bounding box
v -0.00000 0.01600 0.00000
v -0.00000 0.01131 0.01273
v -0.00000 0.00000 0.01800
v -0.00000 -0.01600 0.00000
v -0.00459 0.01478 0.00597
v -0.00849 0.01131 0.01102
v -0.01109 0.00612 0.01440
v -0.01200 0.00000 0.01559
v -0.01109 -0.00612 0.01440
v -0.00849 -0.01131 0.01102
v -0.00459 -0.01478 0.00597
v -0.00795 0.01478 0.00344
v -0.01470 0.01131 0.00636
v -0.01920 0.00612 0.00832
v -0.02078 0.00000 0.00900
v -0.01920 -0.00612 0.00832
v -0.01470 -0.01131 0.00636
v -0.00795 -0.01478 0.00344
v -0.00918 0.01478 0.00000
v -0.01697 0.01131 0.00000
v -0.02217 0.00612 0.00000
v -0.02400 0.00000 0.00000
v -0.02217 -0.00612 0.00000
v -0.01697 -0.01131 0.00000
v -0.00918 -0.01478 0.00000
v -0.00795 0.01478 -0.00344
v -0.01470 0.01131 -0.00636
v -0.01920 0.00612 -0.00832
v -0.02078 0.00000 -0.00900
v -0.01920 -0.00612 -0.00832
v -0.01470 -0.01131 -0.00636
v -0.00795 -0.01478 -0.00344
v -0.00459 0.01478 -0.00597
v -0.00849 0.01131 -0.01102
v -0.01109 0.00612 -0.01440
v -0.01200 0.00000 -0.01559
v -0.01109 -0.00612 -0.01440
v -0.00849 -0.01131 -0.01102
v -0.00459 -0.01478 -0.00597
v -0.00000 0.01478 -0.00689
v 0.00000 0.01131 -0.01273
v -0.00000 0.00612 -0.01663
v -0.00000 0.00000 -0.01800
v -0.00000 -0.00612 -0.01663
v 0.00000 -0.01131 -0.01273
v -0.00000 -0.01478 -0.00689
v 0.00459 0.01478 -0.00597
v 0.00849 0.01131 -0.01102
v 0.01109 0.00612 -0.01440
v 0.01200 0.00000 -0.01559
v 0.01109 -0.00612 -0.01440
v 0.00849 -0.01131 -0.01102
v 0.00459 -0.01478 -0.00597
v 0.00795 0.01478 -0.00344
v 0.01470 0.01131 -0.00636
v 0.01920 0.00612 -0.00832
v 0.02078 0.00000 -0.00900
v 0.01920 -0.00612 -0.00832
v 0.01470 -0.01131 -0.00636
v 0.00795 -0.01478 -0.00344
v 0.00918 0.01478 0.00000
v 0.01697 0.01131 0.00000
v 0.02217 0.00612 0.00000
v 0.02400 0.00000 0.00000
v 0.02217 -0.00612 0.00000
v 0.01697 -0.01131 0.00000
v 0.00918 -0.01478 0.00000
v 0.00795 0.01478 0.00344
v 0.01470 0.01131 0.00636
v 0.01920 0.00612 0.00832
v 0.02078 0.00000 0.00900
v 0.01920 -0.00612 0.00832
v 0.01470 -0.01131 0.00636
v 0.00795 -0.01478 0.00344
v 0.00459 0.01478 0.00597
v 0.00849 0.01131 0.01102
v 0.01109 0.00612 0.01440
v 0.01200 0.00000 0.01559
v 0.01109 -0.00612 0.01440
v 0.00849 -0.01131 0.01102
v 0.00459 -0.01478 0.00597
v 0.00000 0.01478 0.00689
v 0.00000 0.00612 0.01663
v 0.00000 -0.00612 0.01663
v -0.00000 -0.01131 0.01273
v 0.00000 -0.01478 0.00689
f 3 7 8
f 2 5 6
f 85 11 86
f 3 9 84
f 83 6 7
f 82 1 5
f 4 86 11
f 84 10 85
f 10 18 11
f 8 16 9
f 7 13 14
f 5 1 12
f 4 11 18
f 9 17 10
f 8 14 15
f 6 12 13
f 12 1 19
f 4 18 25
f 16 24 17
f 15 21 22
f 13 19 20
f 17 25 18
f 15 23 16
f 14 20 21
f 24 30 31
f 21 29 22
f 19 27 20
f 25 31 32
f 23 29 30
f 20 28 21
f 19 1 26
f 4 25 32
f 32 38 39
f 30 36 37
f 27 35 28
f 26 1 33
f 4 32 39
f 31 37 38
f 28 36 29
f 26 34 27
f 37 43 44
f 34 42 35
f 33 1 40
f 4 39 46
f 38 44 45
f 35 43 36
f 33 41 34
f 39 45 46
f 4 46 53
f 44 52 45
f 43 49 50
f 41 47 48
f 45 53 46
f 43 51 44
f 42 48 49
f 40 1 47
f 50 56 57
f 48 54 55
f 52 60 53
f 50 58 51
f 49 55 56
f 47 1 54
f 4 53 60
f 51 59 52
f 59 67 60
f 57 65 58
f 56 62 63
f 54 1 61
f 4 60 67
f 58 66 59
f 57 63 64
f 55 61 62
f 62 70 63
f 61 1 68
f 4 67 74
f 66 72 73
f 63 71 64
f 61 69 62
f 67 73 74
f 65 71 72
f 4 74 81
f 73 79 80
f 70 78 71
f 68 76 69
f 74 80 81
f 72 78 79
f 69 77 70
f 68 1 75
f 75 2 76
f 81 85 86
f 79 3 84
f 76 83 77
f 75 1 82
f 4 81 86
f 80 84 85
f 77 3 78
f 3 83 7
f 2 82 5
f 85 10 11
f 3 8 9
f 83 2 6
f 84 9 10
f 10 17 18
f 8 15 16
f 7 6 13
f 9 16 17
f 8 7 14
f 6 5 12
f 16 23 24
f 15 14 21
f 13 12 19
f 17 24 25
f 15 22 23
f 14 13 20
f 24 23 30
f 21 28 29
f 19 26 27
f 25 24 31
f 23 22 29
f 20 27 28
f 32 31 38
f 30 29 36
f 27 34 35
f 31 30 37
f 28 35 36
f 26 33 34
f 37 36 43
f 34 41 42
f 38 37 44
f 35 42 43
f 33 40 41
f 39 38 45
f 44 51 52
f 43 42 49
f 41 40 47
f 45 52 53
f 43 50 51
f 42 41 48
f 50 49 56
f 48 47 54
f 52 59 60
f 50 57 58
f 49 48 55
f 51 58 59
f 59 66 67
f 57 64 65
f 56 55 62
f 58 65 66
f 57 56 63
f 55 54 61
f 62 69 70
f 66 65 72
f 63 70 71
f 61 68 69
f 67 66 73
f 65 64 71
f 73 72 79
f 70 77 78
f 68 75 76
f 74 73 80
f 72 71 78
f 69 76 77
f 75 82 2
f 81 80 85
f 79 78 3
f 76 2 83
f 80 79 84
f 77 83 3
