# kitsune Mask_Fang.obj: Roblox cue frame, recentred on its bounding box
v 0.02634 0.01281 0.04055
v 0.03200 0.01549 -0.04284
v -0.04000 0.01392 0.03500
v 0.02634 0.01503 -0.04055
v 0.02400 0.01392 0.03500
v 0.02400 0.01392 -0.03500
v -0.04000 0.01392 -0.03500
v 0.02634 0.01281 -0.02945
v 0.02634 0.01503 0.02945
v 0.03200 0.01236 -0.02716
v 0.03766 0.01281 -0.02945
v 0.03200 0.01549 0.02716
v 0.04000 0.01392 -0.03500
v -0.03766 0.01281 -0.02945
v 0.03766 0.01503 -0.04055
v 0.03200 -0.01549 -0.04088
v -0.03766 0.01503 -0.04055
v 0.03200 0.01236 0.04284
v 0.03766 0.01281 0.04055
v -0.03200 0.01549 -0.04284
v 0.04000 0.01392 0.03500
v -0.03766 0.01281 0.04055
v 0.03766 0.01503 0.02945
v 0.03200 -0.01549 0.02912
v -0.03766 0.01503 0.02945
v -0.03200 0.01236 -0.02716
v -0.02634 0.01281 -0.02945
v -0.03200 0.01549 0.02716
v -0.02400 0.01392 -0.03500
v -0.02634 0.01503 -0.04055
v -0.03200 -0.01549 -0.04088
v -0.03200 0.01236 0.04284
v -0.02634 0.01281 0.04055
v -0.02400 0.01392 0.03500
v -0.02634 0.01503 0.02945
v -0.03200 -0.01549 0.02912
f 2 16 4
f 14 31 26
f 20 31 17
f 4 16 6
f 28 36 25
f 1 24 18
f 6 16 8
f 22 36 32
f 8 16 10
f 12 24 9
f 10 16 11
f 5 24 1
f 11 16 13
f 13 15 8
f 13 16 15
f 9 24 5
f 18 24 19
f 15 16 2
f 7 31 14
f 19 24 21
f 12 9 19
f 21 24 23
f 17 31 7
f 26 31 27
f 23 24 12
f 3 36 22
f 27 31 29
f 26 29 20
f 29 31 30
f 25 36 3
f 32 36 33
f 30 31 20
f 33 36 34
f 3 22 35
f 34 36 35
f 35 36 28
f 15 2 8
f 2 4 8
f 4 6 8
f 8 10 11
f 11 13 8
f 9 5 19
f 5 1 19
f 1 18 19
f 19 21 23
f 23 12 19
f 7 14 26
f 26 27 29
f 29 30 20
f 20 17 7
f 7 26 20
f 22 32 33
f 33 34 22
f 34 35 22
f 35 28 25
f 25 3 35
