# kitsune Mask_Crimson.obj: Roblox cue frame, recentred on its bounding box
v 0.01623 0.02250 -0.14273
v 0.03442 0.01174 -0.14755
v 0.02169 0.02430 -0.11866
v 0.04140 0.00786 -0.12429
v 0.02700 0.02435 -0.09474
v 0.04772 0.00424 -0.10116
v 0.03376 0.02513 -0.07151
v 0.05474 0.00215 -0.07784
v 0.04656 0.03167 -0.04813
v 0.06869 0.00910 -0.05708
v 0.07930 0.05121 -0.02597
v 0.09623 0.02361 -0.03170
v 0.10719 0.05718 -0.00147
v 0.11635 0.02741 -0.00810
v 0.12642 0.05264 0.02451
v 0.13222 0.02540 0.01409
v 0.13969 0.04187 0.04941
v 0.14321 0.01836 0.03770
v 0.14648 0.02709 0.07320
v 0.14918 0.00822 0.06225
v 0.14639 0.00983 0.09614
v 0.15001 -0.00338 0.08836
v 0.14255 -0.01050 0.11703
v 0.14335 -0.01303 0.11562
v 0.00640 0.03579 -0.07411
v 0.02187 0.03009 -0.07681
v 0.01065 0.04256 -0.05546
v 0.02905 0.03475 -0.05718
v 0.02373 0.07478 -0.03690
v 0.04380 0.06468 -0.03784
v 0.03827 0.09763 -0.01518
v 0.05843 0.08497 -0.01886
v 0.05214 0.11002 0.00687
v 0.07171 0.09618 0.00015
v 0.06576 0.11629 0.02814
v 0.08377 0.10113 0.01999
v 0.07778 0.11707 0.04902
v 0.09440 0.10223 0.03967
v 0.08797 0.11318 0.06994
v 0.10374 0.10020 0.06024
v 0.09676 0.10634 0.08983
v 0.11046 0.09443 0.08091
v 0.10288 0.09577 0.10951
v 0.11440 0.08576 0.10217
v 0.10603 0.08212 0.12866
v 0.11486 0.07495 0.12385
v 0.10795 0.06511 0.14708
v 0.11011 0.06334 0.14598
v 0.06632 -0.04679 -0.12332
v 0.06482 -0.06422 -0.12729
v 0.07346 -0.04979 -0.10315
v 0.07079 -0.07103 -0.10937
v 0.09647 -0.05930 -0.08598
v 0.08686 -0.08235 -0.08892
v 0.12372 -0.07376 -0.06412
v 0.11259 -0.09742 -0.06940
v 0.13577 -0.08650 -0.04286
v 0.12208 -0.10865 -0.04980
v 0.14088 -0.09815 -0.02156
v 0.12785 -0.11889 -0.03007
v 0.14147 -0.10929 -0.00116
v 0.12867 -0.12728 -0.00960
v 0.13888 -0.12032 0.01849
v 0.12580 -0.13348 0.01121
v 0.13202 -0.12890 0.03796
v 0.12269 -0.13844 0.03236
v 0.12081 -0.13778 0.05605
v 0.11875 -0.13960 0.05486
v 0.05351 -0.02031 -0.14156
v 0.05505 -0.02438 -0.14827
v 0.05567 -0.02485 -0.13855
v 0.05814 -0.03066 -0.14347
v 0.05863 -0.02924 -0.12840
v 0.06164 -0.03602 -0.13138
v 0.06481 -0.03335 -0.11168
v 0.06641 -0.04094 -0.11365
v 0.07720 -0.03551 -0.09044
v 0.07917 -0.04289 -0.09284
v 0.11158 -0.03570 -0.06607
v 0.11362 -0.04323 -0.06786
v 0.13108 -0.03288 -0.04155
v 0.13401 -0.04032 -0.04169
v 0.14016 -0.02587 -0.02019
v 0.14346 -0.03279 -0.01791
v 0.14302 -0.01494 -0.00334
v 0.14671 -0.02035 0.00125
v 0.14180 -0.00208 0.00708
v 0.14482 -0.00498 0.01389
v 0.13674 0.01090 0.01034
v 0.13954 0.01214 0.01773
v 0.13006 0.02279 0.00697
v 0.13079 0.02767 0.01327
v 0.11858 0.03057 -0.00352
v 0.11773 0.03781 -0.00025
v 0.10317 0.03148 -0.02031
v 0.09999 0.03872 -0.01911
v 0.08098 0.02156 -0.04320
v 0.07561 0.02727 -0.04159
v 0.05609 -0.00007 -0.06591
v 0.05195 0.00667 -0.06706
v 0.04889 -0.00770 -0.08973
v 0.04447 -0.00110 -0.09069
v 0.04827 -0.01212 -0.11111
v 0.04476 -0.00509 -0.11260
v 0.05103 -0.01508 -0.12803
v 0.04744 -0.00839 -0.13055
v 0.05334 -0.01970 -0.13861
v 0.05063 -0.01390 -0.14340
v 0.05526 -0.02431 -0.14157
v 0.05330 -0.02039 -0.14827
v -0.03422 0.01165 -0.14754
v -0.01612 0.02257 -0.14274
v -0.04188 0.00962 -0.12459
v -0.02018 0.02316 -0.11862
v -0.04760 0.00429 -0.10107
v -0.02685 0.02436 -0.09463
v -0.05455 0.00212 -0.07784
v -0.03360 0.02514 -0.07152
v -0.06845 0.00895 -0.05698
v -0.04646 0.03175 -0.04828
v -0.09627 0.02388 -0.03194
v -0.07901 0.05116 -0.02568
v -0.11614 0.02738 -0.00809
v -0.10699 0.05716 -0.00149
v -0.13232 0.02540 0.01441
v -0.12674 0.05275 0.02469
v -0.14305 0.01835 0.03774
v -0.13972 0.04189 0.04944
v -0.14920 0.00835 0.06218
v -0.14627 0.02718 0.07315
v -0.15002 -0.00332 0.08851
v -0.14603 0.00982 0.09621
v -0.14316 -0.01303 0.11558
v -0.14238 -0.01050 0.11700
v -0.02168 0.03006 -0.07681
v -0.00621 0.03572 -0.07409
v -0.02882 0.03447 -0.05719
v -0.01048 0.04247 -0.05570
v -0.04373 0.06524 -0.03807
v -0.02351 0.07497 -0.03656
v -0.05825 0.08496 -0.01887
v -0.03811 0.09764 -0.01517
v -0.07156 0.09618 0.00021
v -0.05200 0.11002 0.00693
v -0.08361 0.10113 0.02001
v -0.06559 0.11627 0.02819
v -0.09424 0.10217 0.03978
v -0.07754 0.11689 0.04917
v -0.10345 0.10019 0.06006
v -0.08766 0.11314 0.06975
v -0.11031 0.09445 0.08092
v -0.09658 0.10635 0.08983
v -0.11420 0.08573 0.10216
v -0.10274 0.09579 0.10951
v -0.11455 0.07474 0.12384
v -0.10582 0.08199 0.12870
v -0.11005 0.06329 0.14591
v -0.10799 0.06513 0.14707
v -0.06383 -0.06431 -0.12735
v -0.06647 -0.04692 -0.12379
v -0.06889 -0.07154 -0.10816
v -0.07496 -0.05044 -0.10434
v -0.08660 -0.08231 -0.08896
v -0.09616 -0.05925 -0.08595
v -0.11240 -0.09742 -0.06939
v -0.12355 -0.07376 -0.06414
v -0.12187 -0.10864 -0.04978
v -0.13563 -0.08652 -0.04289
v -0.12777 -0.11892 -0.03009
v -0.14069 -0.09812 -0.02154
v -0.12715 -0.12685 -0.00924
v -0.14255 -0.11068 -0.00150
v -0.12592 -0.13371 0.01133
v -0.13876 -0.12034 0.01867
v -0.12258 -0.13850 0.03244
v -0.13178 -0.12883 0.03804
v -0.11856 -0.13961 0.05487
v -0.12063 -0.13780 0.05606
v -0.05492 -0.02441 -0.14829
v -0.05349 -0.02030 -0.14158
v -0.05799 -0.03067 -0.14348
v -0.05555 -0.02484 -0.13857
v -0.06115 -0.03612 -0.13154
v -0.05830 -0.02925 -0.12859
v -0.06632 -0.04053 -0.11390
v -0.06408 -0.03319 -0.11164
v -0.07935 -0.04306 -0.09273
v -0.07762 -0.03555 -0.09055
v -0.11361 -0.04327 -0.06773
v -0.11163 -0.03571 -0.06602
v -0.13367 -0.04048 -0.04164
v -0.13098 -0.03295 -0.04167
v -0.14319 -0.03286 -0.01768
v -0.14014 -0.02586 -0.02007
v -0.14642 -0.02039 0.00126
v -0.14278 -0.01497 -0.00335
v -0.14469 -0.00488 0.01373
v -0.14134 -0.00210 0.00702
v -0.13924 0.01211 0.01789
v -0.13670 0.01096 0.01039
v -0.13040 0.02755 0.01301
v -0.12932 0.02250 0.00689
v -0.11753 0.03779 -0.00025
v -0.11837 0.03054 -0.00353
v -0.09934 0.03868 -0.01908
v -0.10282 0.03165 -0.02063
v -0.07543 0.02727 -0.04159
v -0.08080 0.02156 -0.04320
v -0.05181 0.00666 -0.06708
v -0.05591 -0.00011 -0.06589
v -0.04430 -0.00110 -0.09069
v -0.04870 -0.00772 -0.08972
v -0.04371 -0.00518 -0.11258
v -0.04812 -0.01170 -0.11112
v -0.04713 -0.00831 -0.13061
v -0.05105 -0.01481 -0.12809
v -0.05069 -0.01383 -0.14342
v -0.05335 -0.01965 -0.13863
v -0.05324 -0.02040 -0.14829
v -0.05518 -0.02431 -0.14159
v 0.01790 0.02497 -0.14306
v 0.03609 0.01421 -0.14789
v 0.02352 0.02666 -0.11898
v 0.04322 0.01022 -0.12461
v 0.02899 0.02655 -0.09517
v 0.04972 0.00644 -0.10159
v 0.03559 0.02724 -0.07259
v 0.05657 0.00426 -0.07893
v 0.04788 0.03345 -0.05015
v 0.07001 0.01088 -0.05909
v 0.08072 0.05260 -0.02821
v 0.09767 0.02500 -0.03394
v 0.10926 0.05836 -0.00329
v 0.11843 0.02858 -0.00992
v 0.12894 0.05365 0.02322
v 0.13474 0.02641 0.01280
v 0.14249 0.04267 0.04868
v 0.14601 0.01916 0.03697
v 0.14942 0.02765 0.07308
v 0.15213 0.00878 0.06212
v 0.14932 0.01023 0.09664
v 0.15294 -0.00298 0.08886
v 0.14542 -0.01018 0.11786
v 0.14621 -0.01271 0.11645
v 0.00732 0.03844 -0.07518
v 0.02278 0.03274 -0.07788
v 0.01138 0.04469 -0.05743
v 0.02977 0.03686 -0.05918
v 0.02432 0.07635 -0.03939
v 0.04440 0.06625 -0.04032
v 0.03911 0.09958 -0.01729
v 0.05927 0.08693 -0.02097
v 0.05324 0.11227 0.00523
v 0.07281 0.09843 -0.00149
v 0.06717 0.11865 0.02694
v 0.08518 0.10349 0.01878
v 0.07944 0.11945 0.04828
v 0.09606 0.10462 0.03893
v 0.08982 0.11553 0.06968
v 0.10558 0.10255 0.05998
v 0.09878 0.10855 0.09004
v 0.11249 0.09664 0.08112
v 0.10502 0.09777 0.11020
v 0.11653 0.08776 0.10286
v 0.10816 0.08392 0.12978
v 0.11699 0.07674 0.12497
v 0.11004 0.06679 0.14842
v 0.11220 0.06502 0.14732
v 0.06915 -0.04683 -0.12431
v 0.06765 -0.06427 -0.12827
v 0.07596 -0.04988 -0.10481
v 0.07328 -0.07111 -0.11104
v 0.09836 -0.05953 -0.08831
v 0.08874 -0.08258 -0.09125
v 0.12578 -0.07434 -0.06623
v 0.11465 -0.09801 -0.07150
v 0.13820 -0.08746 -0.04434
v 0.12450 -0.10961 -0.05128
v 0.14342 -0.09939 -0.02257
v 0.13039 -0.12014 -0.03108
v 0.14395 -0.11086 -0.00175
v 0.13116 -0.12885 -0.01019
v 0.14117 -0.12223 0.01819
v 0.12809 -0.13539 0.01091
v 0.13414 -0.13102 0.03797
v 0.12481 -0.14056 0.03237
v 0.12286 -0.13996 0.05628
v 0.12080 -0.14179 0.05509
v 0.05623 -0.01907 -0.14167
v 0.05777 -0.02314 -0.14839
v 0.05838 -0.02358 -0.13871
v 0.06085 -0.02938 -0.14363
v 0.06135 -0.02804 -0.12880
v 0.06436 -0.03483 -0.13179
v 0.06744 -0.03230 -0.11267
v 0.06904 -0.03989 -0.11465
v 0.07929 -0.03446 -0.09231
v 0.08127 -0.04183 -0.09470
v 0.11350 -0.03467 -0.06813
v 0.11554 -0.04220 -0.06993
v 0.13345 -0.03194 -0.04313
v 0.13638 -0.03938 -0.04327
v 0.14276 -0.02496 -0.02138
v 0.14606 -0.03188 -0.01910
v 0.14570 -0.01398 -0.00430
v 0.14939 -0.01939 0.00030
v 0.14446 -0.00102 0.00617
v 0.14748 -0.00392 0.01299
v 0.13932 0.01201 0.00929
v 0.14212 0.01325 0.01669
v 0.13250 0.02395 0.00565
v 0.13322 0.02882 0.01196
v 0.12078 0.03174 -0.00519
v 0.11992 0.03899 -0.00192
v 0.10495 0.03278 -0.02234
v 0.10176 0.04003 -0.02115
v 0.08241 0.02286 -0.04549
v 0.07704 0.02857 -0.04389
v 0.05806 0.00122 -0.06776
v 0.05391 0.00797 -0.06892
v 0.05142 -0.00628 -0.09048
v 0.04700 0.00032 -0.09144
v 0.05090 -0.01068 -0.11118
v 0.04739 -0.00365 -0.11268
v 0.05369 -0.01369 -0.12793
v 0.05009 -0.00700 -0.13045
v 0.05606 -0.01842 -0.13864
v 0.05333 -0.01261 -0.14343
v 0.05800 -0.02310 -0.14167
v 0.05604 -0.01919 -0.14837
v -0.03572 0.01423 -0.14784
v -0.01762 0.02515 -0.14303
v -0.04355 0.01209 -0.12487
v -0.02184 0.02564 -0.11890
v -0.04953 0.00654 -0.10148
v -0.02878 0.02662 -0.09504
v -0.05639 0.00423 -0.07893
v -0.03544 0.02724 -0.07261
v -0.06978 0.01074 -0.05899
v -0.04778 0.03354 -0.05029
v -0.09769 0.02529 -0.03417
v -0.08042 0.05258 -0.02792
v -0.11821 0.02856 -0.00991
v -0.10906 0.05835 -0.00331
v -0.13483 0.02639 0.01311
v -0.12926 0.05374 0.02339
v -0.14585 0.01914 0.03701
v -0.14252 0.04268 0.04871
v -0.15215 0.00894 0.06206
v -0.14922 0.02777 0.07304
v -0.15294 -0.00289 0.08903
v -0.14895 0.01026 0.09674
v -0.14601 -0.01266 0.11644
v -0.14523 -0.01013 0.11786
v -0.02262 0.03271 -0.07787
v -0.00715 0.03837 -0.07515
v -0.02954 0.03659 -0.05919
v -0.01121 0.04461 -0.05768
v -0.04430 0.06683 -0.04055
v -0.02407 0.07656 -0.03904
v -0.05907 0.08693 -0.02097
v -0.03893 0.09961 -0.01728
v -0.07266 0.09843 -0.00143
v -0.05310 0.11228 0.00528
v -0.08501 0.10350 0.01882
v -0.06699 0.11863 0.02700
v -0.09590 0.10456 0.03905
v -0.07920 0.11928 0.04843
v -0.10529 0.10255 0.05979
v -0.08949 0.11550 0.06948
v -0.11233 0.09666 0.08112
v -0.09860 0.10855 0.09004
v -0.11635 0.08772 0.10285
v -0.10488 0.09777 0.11020
v -0.11670 0.07651 0.12494
v -0.10797 0.08377 0.12981
v -0.11218 0.06496 0.14720
v -0.11012 0.06680 0.14836
v -0.06659 -0.06472 -0.12844
v -0.06923 -0.04734 -0.12487
v -0.07130 -0.07194 -0.10990
v -0.07738 -0.05084 -0.10607
v -0.08844 -0.08265 -0.09130
v -0.09801 -0.05959 -0.08830
v -0.11446 -0.09801 -0.07150
v -0.12560 -0.07434 -0.06624
v -0.12429 -0.10960 -0.05127
v -0.13805 -0.08748 -0.04438
v -0.13026 -0.12023 -0.03114
v -0.14318 -0.09943 -0.02259
v -0.12952 -0.12856 -0.00991
v -0.14492 -0.11238 -0.00218
v -0.12816 -0.13568 0.01101
v -0.14100 -0.12232 0.01835
v -0.12472 -0.14060 0.03248
v -0.13392 -0.13093 0.03808
v -0.12062 -0.14177 0.05511
v -0.12269 -0.13996 0.05630
v -0.05766 -0.02320 -0.14842
v -0.05623 -0.01909 -0.14171
v -0.06072 -0.02944 -0.14363
v -0.05828 -0.02361 -0.13872
v -0.06387 -0.03490 -0.13192
v -0.06102 -0.02803 -0.12896
v -0.06891 -0.03940 -0.11490
v -0.06667 -0.03205 -0.11264
v -0.08143 -0.04200 -0.09461
v -0.07970 -0.03450 -0.09244
v -0.11556 -0.04232 -0.06980
v -0.11359 -0.03476 -0.06809
v -0.13607 -0.03963 -0.04322
v -0.13338 -0.03210 -0.04325
v -0.14582 -0.03202 -0.01885
v -0.14277 -0.02503 -0.02124
v -0.14910 -0.01944 0.00030
v -0.14545 -0.01402 -0.00431
v -0.14733 -0.00381 0.01281
v -0.14399 -0.00103 0.00609
v -0.14180 0.01324 0.01682
v -0.13927 0.01209 0.00932
v -0.13284 0.02867 0.01166
v -0.13176 0.02363 0.00554
v -0.11972 0.03897 -0.00193
v -0.12057 0.03172 -0.00520
v -0.10107 0.04007 -0.02110
v -0.10456 0.03303 -0.02264
v -0.07684 0.02860 -0.04388
v -0.08221 0.02289 -0.04549
v -0.05378 0.00794 -0.06894
v -0.05788 0.00118 -0.06774
v -0.04679 0.00039 -0.09147
v -0.05119 -0.00623 -0.09050
v -0.04622 -0.00355 -0.11268
v -0.05063 -0.01006 -0.11123
v -0.04970 -0.00677 -0.13052
v -0.05362 -0.01327 -0.12799
v -0.05339 -0.01252 -0.14346
v -0.05606 -0.01836 -0.13868
v -0.05600 -0.01924 -0.14841
v -0.05794 -0.02315 -0.14171
v 0.00009 0.11525 0.00518
v 0.01146 0.12886 0.01671
v -0.00462 0.13400 0.02560
v -0.01429 0.11976 0.00232
v -0.00419 0.10581 -0.02097
v 0.01172 0.11144 -0.01207
v 0.00411 0.14179 0.02097
v -0.01180 0.13616 0.01208
v -0.01154 0.11874 -0.01670
v 0.00453 0.11359 -0.02560
v 0.01421 0.12784 -0.00231
v -0.00017 0.13235 -0.00518
f 2 3 1
f 4 5 3
f 6 7 5
f 7 10 9
f 9 12 11
f 12 13 11
f 14 15 13
f 16 17 15
f 18 19 17
f 20 21 19
f 21 24 23
f 26 27 25
f 27 30 29
f 30 31 29
f 32 33 31
f 34 35 33
f 36 37 35
f 38 39 37
f 40 41 39
f 42 43 41
f 44 45 43
f 45 48 47
f 49 52 51
f 52 53 51
f 53 56 55
f 56 57 55
f 58 59 57
f 60 61 59
f 62 63 61
f 64 65 63
f 66 67 65
f 70 71 69
f 71 74 73
f 74 75 73
f 75 78 77
f 78 79 77
f 80 81 79
f 82 83 81
f 84 85 83
f 86 87 85
f 87 90 89
f 90 91 89
f 91 94 93
f 94 95 93
f 95 98 97
f 97 100 99
f 100 101 99
f 101 104 103
f 104 105 103
f 106 107 105
f 107 110 109
f 112 113 111
f 113 116 115
f 115 118 117
f 118 119 117
f 120 121 119
f 121 124 123
f 123 126 125
f 125 128 127
f 127 130 129
f 129 132 131
f 132 133 131
f 135 138 137
f 138 139 137
f 139 142 141
f 141 144 143
f 143 146 145
f 145 148 147
f 147 150 149
f 149 152 151
f 151 154 153
f 153 156 155
f 156 157 155
f 159 162 161
f 161 164 163
f 164 165 163
f 165 168 167
f 167 170 169
f 169 172 171
f 171 174 173
f 173 176 175
f 175 178 177
f 179 182 181
f 182 183 181
f 184 185 183
f 186 187 185
f 187 190 189
f 189 192 191
f 191 194 193
f 194 195 193
f 195 198 197
f 198 199 197
f 200 201 199
f 202 203 201
f 203 206 205
f 206 207 205
f 208 209 207
f 209 212 211
f 211 214 213
f 213 216 215
f 215 218 217
f 218 219 217
f 223 222 221
f 225 224 223
f 227 226 225
f 227 230 228
f 231 230 229
f 233 232 231
f 235 234 233
f 237 236 235
f 239 238 237
f 239 242 240
f 241 244 242
f 247 246 245
f 247 250 248
f 251 250 249
f 253 252 251
f 255 254 253
f 257 256 255
f 257 260 258
f 261 260 259
f 263 262 261
f 263 266 264
f 265 268 266
f 269 272 270
f 273 272 271
f 273 276 274
f 277 276 275
f 279 278 277
f 281 280 279
f 283 282 281
f 285 284 283
f 287 286 285
f 291 290 289
f 291 294 292
f 295 294 293
f 295 298 296
f 299 298 297
f 301 300 299
f 303 302 301
f 305 304 303
f 307 306 305
f 307 310 308
f 309 312 310
f 311 314 312
f 315 314 313
f 315 318 316
f 317 320 318
f 321 320 319
f 321 324 322
f 325 324 323
f 327 326 325
f 327 330 328
f 331 334 332
f 333 336 334
f 335 338 336
f 339 338 337
f 341 340 339
f 341 344 342
f 343 346 344
f 345 348 346
f 347 350 348
f 351 350 349
f 353 352 351
f 355 358 356
f 359 358 357
f 359 362 360
f 361 364 362
f 363 366 364
f 365 368 366
f 369 368 367
f 369 372 370
f 371 374 372
f 373 376 374
f 377 376 375
f 379 382 380
f 381 384 382
f 385 384 383
f 385 388 386
f 387 390 388
f 389 392 390
f 391 394 392
f 393 396 394
f 395 398 396
f 399 402 400
f 403 402 401
f 403 406 404
f 407 406 405
f 407 410 408
f 409 412 410
f 411 414 412
f 415 414 413
f 415 418 416
f 419 418 417
f 421 420 419
f 423 422 421
f 423 426 424
f 427 426 425
f 429 428 427
f 429 432 430
f 431 434 432
f 433 436 434
f 437 436 435
f 439 438 437
f 3 221 1
f 2 221 222
f 2 224 4
f 5 223 3
f 4 226 6
f 5 227 225
f 6 228 8
f 7 229 227
f 10 228 230
f 11 229 9
f 12 230 232
f 13 231 11
f 12 234 14
f 13 235 233
f 14 236 16
f 17 235 15
f 16 238 18
f 17 239 237
f 18 240 20
f 19 241 239
f 22 240 242
f 21 243 241
f 22 244 24
f 24 243 23
f 25 247 245
f 26 245 246
f 26 248 28
f 29 247 27
f 30 248 250
f 31 249 29
f 32 250 252
f 31 253 251
f 34 252 254
f 35 253 33
f 34 256 36
f 35 257 255
f 36 258 38
f 37 259 257
f 40 258 260
f 41 259 39
f 40 262 42
f 41 263 261
f 42 264 44
f 43 265 263
f 46 264 266
f 45 267 265
f 46 268 48
f 48 267 47
f 49 271 269
f 50 269 270
f 50 272 52
f 53 271 51
f 52 274 54
f 55 273 53
f 56 274 276
f 55 277 275
f 56 278 58
f 57 279 277
f 60 278 280
f 61 279 59
f 60 282 62
f 63 281 61
f 62 284 64
f 63 285 283
f 66 284 286
f 65 287 285
f 66 288 68
f 67 288 287
f 69 291 289
f 69 290 70
f 70 292 72
f 71 293 291
f 72 294 74
f 75 293 73
f 74 296 76
f 75 297 295
f 76 298 78
f 79 297 77
f 80 298 300
f 79 301 299
f 80 302 82
f 81 303 301
f 82 304 84
f 83 305 303
f 84 306 86
f 87 305 85
f 86 308 88
f 87 309 307
f 90 308 310
f 91 309 89
f 92 310 312
f 91 313 311
f 94 312 314
f 95 313 93
f 96 314 316
f 97 315 95
f 96 318 98
f 97 319 317
f 98 320 100
f 101 319 99
f 102 320 322
f 103 321 101
f 104 322 324
f 105 323 103
f 106 324 326
f 105 327 325
f 108 326 328
f 107 329 327
f 108 330 110
f 110 329 109
f 113 331 111
f 111 332 112
f 114 332 334
f 113 335 333
f 116 334 336
f 115 337 335
f 116 338 118
f 119 337 117
f 118 340 120
f 121 339 119
f 122 340 342
f 121 343 341
f 124 342 344
f 123 345 343
f 124 346 126
f 125 347 345
f 126 348 128
f 129 347 127
f 128 350 130
f 131 349 129
f 130 352 132
f 131 353 351
f 132 354 134
f 133 354 353
f 135 357 355
f 135 356 136
f 136 358 138
f 139 357 137
f 140 358 360
f 141 359 139
f 142 360 362
f 143 361 141
f 142 364 144
f 143 365 363
f 146 364 366
f 145 367 365
f 146 368 148
f 149 367 147
f 148 370 150
f 149 371 369
f 152 370 372
f 151 373 371
f 152 374 154
f 153 375 373
f 154 376 156
f 155 377 375
f 156 378 158
f 158 377 157
f 159 381 379
f 159 380 160
f 160 382 162
f 163 381 161
f 164 382 384
f 165 383 163
f 166 384 386
f 165 387 385
f 166 388 168
f 169 387 167
f 168 390 170
f 169 391 389
f 172 390 392
f 171 393 391
f 172 394 174
f 173 395 393
f 174 396 176
f 175 397 395
f 176 398 178
f 178 397 177
f 181 399 179
f 180 399 400
f 180 402 182
f 181 403 401
f 182 404 184
f 183 405 403
f 184 406 186
f 185 407 405
f 186 408 188
f 189 407 187
f 190 408 410
f 189 411 409
f 192 410 412
f 191 413 411
f 192 414 194
f 193 415 413
f 194 416 196
f 195 417 415
f 196 418 198
f 199 417 197
f 198 420 200
f 201 419 199
f 200 422 202
f 203 421 201
f 202 424 204
f 205 423 203
f 206 424 426
f 205 427 425
f 208 426 428
f 207 429 427
f 208 430 210
f 211 429 209
f 212 430 432
f 213 431 211
f 214 432 434
f 215 433 213
f 216 434 436
f 217 435 215
f 216 438 218
f 217 439 437
f 218 440 220
f 219 440 439
f 2 4 3
f 4 6 5
f 6 8 7
f 7 8 10
f 9 10 12
f 12 14 13
f 14 16 15
f 16 18 17
f 18 20 19
f 20 22 21
f 21 22 24
f 26 28 27
f 27 28 30
f 30 32 31
f 32 34 33
f 34 36 35
f 36 38 37
f 38 40 39
f 40 42 41
f 42 44 43
f 44 46 45
f 45 46 48
f 49 50 52
f 52 54 53
f 53 54 56
f 56 58 57
f 58 60 59
f 60 62 61
f 62 64 63
f 64 66 65
f 66 68 67
f 70 72 71
f 71 72 74
f 74 76 75
f 75 76 78
f 78 80 79
f 80 82 81
f 82 84 83
f 84 86 85
f 86 88 87
f 87 88 90
f 90 92 91
f 91 92 94
f 94 96 95
f 95 96 98
f 97 98 100
f 100 102 101
f 101 102 104
f 104 106 105
f 106 108 107
f 107 108 110
f 112 114 113
f 113 114 116
f 115 116 118
f 118 120 119
f 120 122 121
f 121 122 124
f 123 124 126
f 125 126 128
f 127 128 130
f 129 130 132
f 132 134 133
f 135 136 138
f 138 140 139
f 139 140 142
f 141 142 144
f 143 144 146
f 145 146 148
f 147 148 150
f 149 150 152
f 151 152 154
f 153 154 156
f 156 158 157
f 159 160 162
f 161 162 164
f 164 166 165
f 165 166 168
f 167 168 170
f 169 170 172
f 171 172 174
f 173 174 176
f 175 176 178
f 179 180 182
f 182 184 183
f 184 186 185
f 186 188 187
f 187 188 190
f 189 190 192
f 191 192 194
f 194 196 195
f 195 196 198
f 198 200 199
f 200 202 201
f 202 204 203
f 203 204 206
f 206 208 207
f 208 210 209
f 209 210 212
f 211 212 214
f 213 214 216
f 215 216 218
f 218 220 219
f 223 224 222
f 225 226 224
f 227 228 226
f 227 229 230
f 231 232 230
f 233 234 232
f 235 236 234
f 237 238 236
f 239 240 238
f 239 241 242
f 241 243 244
f 247 248 246
f 247 249 250
f 251 252 250
f 253 254 252
f 255 256 254
f 257 258 256
f 257 259 260
f 261 262 260
f 263 264 262
f 263 265 266
f 265 267 268
f 269 271 272
f 273 274 272
f 273 275 276
f 277 278 276
f 279 280 278
f 281 282 280
f 283 284 282
f 285 286 284
f 287 288 286
f 291 292 290
f 291 293 294
f 295 296 294
f 295 297 298
f 299 300 298
f 301 302 300
f 303 304 302
f 305 306 304
f 307 308 306
f 307 309 310
f 309 311 312
f 311 313 314
f 315 316 314
f 315 317 318
f 317 319 320
f 321 322 320
f 321 323 324
f 325 326 324
f 327 328 326
f 327 329 330
f 331 333 334
f 333 335 336
f 335 337 338
f 339 340 338
f 341 342 340
f 341 343 344
f 343 345 346
f 345 347 348
f 347 349 350
f 351 352 350
f 353 354 352
f 355 357 358
f 359 360 358
f 359 361 362
f 361 363 364
f 363 365 366
f 365 367 368
f 369 370 368
f 369 371 372
f 371 373 374
f 373 375 376
f 377 378 376
f 379 381 382
f 381 383 384
f 385 386 384
f 385 387 388
f 387 389 390
f 389 391 392
f 391 393 394
f 393 395 396
f 395 397 398
f 399 401 402
f 403 404 402
f 403 405 406
f 407 408 406
f 407 409 410
f 409 411 412
f 411 413 414
f 415 416 414
f 415 417 418
f 419 420 418
f 421 422 420
f 423 424 422
f 423 425 426
f 427 428 426
f 429 430 428
f 429 431 432
f 431 433 434
f 433 435 436
f 437 438 436
f 439 440 438
f 3 223 221
f 2 1 221
f 2 222 224
f 5 225 223
f 4 224 226
f 5 7 227
f 6 226 228
f 7 9 229
f 10 8 228
f 11 231 229
f 12 10 230
f 13 233 231
f 12 232 234
f 13 15 235
f 14 234 236
f 17 237 235
f 16 236 238
f 17 19 239
f 18 238 240
f 19 21 241
f 22 20 240
f 21 23 243
f 22 242 244
f 24 244 243
f 25 27 247
f 26 25 245
f 26 246 248
f 29 249 247
f 30 28 248
f 31 251 249
f 32 30 250
f 31 33 253
f 34 32 252
f 35 255 253
f 34 254 256
f 35 37 257
f 36 256 258
f 37 39 259
f 40 38 258
f 41 261 259
f 40 260 262
f 41 43 263
f 42 262 264
f 43 45 265
f 46 44 264
f 45 47 267
f 46 266 268
f 48 268 267
f 49 51 271
f 50 49 269
f 50 270 272
f 53 273 271
f 52 272 274
f 55 275 273
f 56 54 274
f 55 57 277
f 56 276 278
f 57 59 279
f 60 58 278
f 61 281 279
f 60 280 282
f 63 283 281
f 62 282 284
f 63 65 285
f 66 64 284
f 65 67 287
f 66 286 288
f 67 68 288
f 69 71 291
f 69 289 290
f 70 290 292
f 71 73 293
f 72 292 294
f 75 295 293
f 74 294 296
f 75 77 297
f 76 296 298
f 79 299 297
f 80 78 298
f 79 81 301
f 80 300 302
f 81 83 303
f 82 302 304
f 83 85 305
f 84 304 306
f 87 307 305
f 86 306 308
f 87 89 309
f 90 88 308
f 91 311 309
f 92 90 310
f 91 93 313
f 94 92 312
f 95 315 313
f 96 94 314
f 97 317 315
f 96 316 318
f 97 99 319
f 98 318 320
f 101 321 319
f 102 100 320
f 103 323 321
f 104 102 322
f 105 325 323
f 106 104 324
f 105 107 327
f 108 106 326
f 107 109 329
f 108 328 330
f 110 330 329
f 113 333 331
f 111 331 332
f 114 112 332
f 113 115 335
f 116 114 334
f 115 117 337
f 116 336 338
f 119 339 337
f 118 338 340
f 121 341 339
f 122 120 340
f 121 123 343
f 124 122 342
f 123 125 345
f 124 344 346
f 125 127 347
f 126 346 348
f 129 349 347
f 128 348 350
f 131 351 349
f 130 350 352
f 131 133 353
f 132 352 354
f 133 134 354
f 135 137 357
f 135 355 356
f 136 356 358
f 139 359 357
f 140 138 358
f 141 361 359
f 142 140 360
f 143 363 361
f 142 362 364
f 143 145 365
f 146 144 364
f 145 147 367
f 146 366 368
f 149 369 367
f 148 368 370
f 149 151 371
f 152 150 370
f 151 153 373
f 152 372 374
f 153 155 375
f 154 374 376
f 155 157 377
f 156 376 378
f 158 378 377
f 159 161 381
f 159 379 380
f 160 380 382
f 163 383 381
f 164 162 382
f 165 385 383
f 166 164 384
f 165 167 387
f 166 386 388
f 169 389 387
f 168 388 390
f 169 171 391
f 172 170 390
f 171 173 393
f 172 392 394
f 173 175 395
f 174 394 396
f 175 177 397
f 176 396 398
f 178 398 397
f 181 401 399
f 180 179 399
f 180 400 402
f 181 183 403
f 182 402 404
f 183 185 405
f 184 404 406
f 185 187 407
f 186 406 408
f 189 409 407
f 190 188 408
f 189 191 411
f 192 190 410
f 191 193 413
f 192 412 414
f 193 195 415
f 194 414 416
f 195 197 417
f 196 416 418
f 199 419 417
f 198 418 420
f 201 421 419
f 200 420 422
f 203 423 421
f 202 422 424
f 205 425 423
f 206 204 424
f 205 207 427
f 208 206 426
f 207 209 429
f 208 428 430
f 211 431 429
f 212 210 430
f 213 433 431
f 214 212 432
f 215 435 433
f 216 214 434
f 217 437 435
f 216 436 438
f 217 219 439
f 218 438 440
f 219 220 440
f 441 442 443
f 442 441 446
f 441 443 444
f 441 444 445
f 441 445 446
f 442 446 451
f 443 442 447
f 444 443 448
f 445 444 449
f 446 445 450
f 442 451 447
f 443 447 448
f 444 448 449
f 445 449 450
f 446 450 451
f 447 451 452
f 448 447 452
f 449 448 452
f 450 449 452
f 451 450 452
