# kitsune Mask_Gold.obj: Roblox cue frame, recentred on its bounding box
v 0.00010 0.12587 -0.14124
v 0.02007 0.14546 -0.12219
v -0.00805 0.15346 -0.10829
v -0.02502 0.13117 -0.14468
v -0.00739 0.10940 -0.18106
v 0.02048 0.11824 -0.16716
v 0.00729 0.16287 -0.11385
v -0.02058 0.15404 -0.12775
v -0.02017 0.12681 -0.17272
v 0.00795 0.11882 -0.18662
v 0.02492 0.14110 -0.15023
v -0.00020 0.14640 -0.15367
v -0.00078 0.06911 0.15462
v -0.00055 0.06560 0.14613
v -0.00000 0.05713 0.14262
v 0.00055 0.04867 0.14613
v 0.00078 0.04516 0.15462
v 0.00055 0.04867 0.16310
v 0.00000 0.05713 0.16662
v -0.00055 0.06560 0.16310
v -0.01514 0.06814 0.15462
v -0.01468 0.06466 0.14613
v -0.01357 0.05624 0.14262
v -0.01247 0.04783 0.14613
v -0.01201 0.04435 0.15462
v -0.01247 0.04783 0.16310
v -0.01357 0.05624 0.16662
v -0.01468 0.06466 0.16310
v -0.03002 0.06518 0.15462
v -0.02911 0.06178 0.14613
v -0.02692 0.05359 0.14262
v -0.02472 0.04539 0.14613
v -0.02381 0.04200 0.15462
v -0.02472 0.04539 0.16310
v -0.02692 0.05359 0.16662
v -0.02911 0.06178 0.16310
v -0.04439 0.06030 0.15462
v -0.04305 0.05706 0.14613
v -0.03980 0.04922 0.14262
v -0.03655 0.04138 0.14613
v -0.03521 0.03813 0.15462
v -0.03655 0.04138 0.16310
v -0.03980 0.04922 0.16662
v -0.04305 0.05706 0.16310
v -0.05800 0.05359 0.15462
v -0.05624 0.05055 0.14613
v -0.05200 0.04320 0.14262
v -0.04776 0.03585 0.14613
v -0.04600 0.03281 0.15462
v -0.04776 0.03585 0.16310
v -0.05200 0.04320 0.16662
v -0.05624 0.05055 0.16310
v -0.07062 0.04516 0.15462
v -0.06848 0.04237 0.14613
v -0.06331 0.03564 0.14262
v -0.05815 0.02891 0.14613
v -0.05601 0.02612 0.15462
v -0.05815 0.02891 0.16310
v -0.06331 0.03564 0.16662
v -0.06848 0.04237 0.16310
v -0.08202 0.03516 0.15462
v -0.07954 0.03267 0.14613
v -0.07354 0.02667 0.14262
v -0.06754 0.02067 0.14613
v -0.06505 0.01819 0.15462
v -0.06754 0.02067 0.16310
v -0.07354 0.02667 0.16662
v -0.07954 0.03267 0.16310
v -0.09203 0.02375 0.15462
v -0.08924 0.02161 0.14613
v -0.08251 0.01644 0.14262
v -0.07578 0.01128 0.14613
v -0.07299 0.00914 0.15462
v -0.07578 0.01128 0.16310
v -0.08251 0.01644 0.16662
v -0.08924 0.02161 0.16310
v -0.10046 0.01113 0.15462
v -0.09742 0.00937 0.14613
v -0.09007 0.00513 0.14262
v -0.08272 0.00089 0.14613
v -0.07967 -0.00087 0.15462
v -0.08272 0.00089 0.16310
v -0.09007 0.00513 0.16662
v -0.09742 0.00937 0.16310
v -0.10717 -0.00248 0.15462
v -0.10392 -0.00382 0.14613
v -0.09608 -0.00707 0.14262
v -0.08824 -0.01032 0.14613
v -0.08500 -0.01166 0.15462
v -0.08824 -0.01032 0.16310
v -0.09608 -0.00707 0.16662
v -0.10392 -0.00382 0.16310
v -0.11205 -0.01684 0.15462
v -0.10865 -0.01775 0.14613
v -0.10046 -0.01995 0.14262
v -0.09226 -0.02215 0.14613
v -0.08887 -0.02306 0.15462
v -0.09226 -0.02215 0.16310
v -0.10046 -0.01995 0.16662
v -0.10865 -0.01775 0.16310
v -0.11501 -0.03173 0.15462
v -0.11152 -0.03219 0.14613
v -0.10311 -0.03329 0.14262
v -0.09470 -0.03440 0.14613
v -0.09121 -0.03486 0.15462
v -0.09470 -0.03440 0.16310
v -0.10311 -0.03329 0.16662
v -0.11152 -0.03219 0.16310
v -0.11600 -0.04687 0.15462
v -0.11249 -0.04687 0.14613
v -0.10400 -0.04687 0.14262
v -0.09551 -0.04687 0.14613
v -0.09200 -0.04687 0.15462
v -0.09551 -0.04687 0.16310
v -0.10400 -0.04687 0.16662
v -0.11249 -0.04687 0.16310
v -0.11501 -0.06201 0.15462
v -0.11152 -0.06155 0.14613
v -0.10311 -0.06044 0.14262
v -0.09470 -0.05933 0.14613
v -0.09121 -0.05888 0.15462
v -0.09470 -0.05933 0.16310
v -0.10311 -0.06044 0.16662
v -0.11152 -0.06155 0.16310
v -0.11205 -0.07689 0.15462
v -0.10865 -0.07598 0.14613
v -0.10046 -0.07378 0.14262
v -0.09226 -0.07159 0.14613
v -0.08887 -0.07068 0.15462
v -0.09226 -0.07159 0.16310
v -0.10046 -0.07378 0.16662
v -0.10865 -0.07598 0.16310
v -0.10717 -0.09126 0.15462
v -0.10392 -0.08991 0.14613
v -0.09608 -0.08667 0.14262
v -0.08824 -0.08342 0.14613
v -0.08500 -0.08207 0.15462
v -0.08824 -0.08342 0.16310
v -0.09608 -0.08667 0.16662
v -0.10392 -0.08991 0.16310
v -0.10046 -0.10487 0.15462
v -0.09742 -0.10311 0.14613
v -0.09007 -0.09887 0.14262
v -0.08272 -0.09463 0.14613
v -0.07967 -0.09287 0.15462
v -0.08272 -0.09463 0.16310
v -0.09007 -0.09887 0.16662
v -0.09742 -0.10311 0.16310
v -0.09203 -0.11748 0.15462
v -0.08924 -0.11534 0.14613
v -0.08251 -0.11018 0.14262
v -0.07578 -0.10501 0.14613
v -0.07299 -0.10287 0.15462
v -0.07578 -0.10501 0.16310
v -0.08251 -0.11018 0.16662
v -0.08924 -0.11534 0.16310
v -0.08202 -0.12889 0.15462
v -0.07954 -0.12641 0.14613
v -0.07354 -0.12041 0.14262
v -0.06754 -0.11441 0.14613
v -0.06505 -0.11192 0.15462
v -0.06754 -0.11441 0.16310
v -0.07354 -0.12041 0.16662
v -0.07954 -0.12641 0.16310
v -0.07062 -0.13890 0.15462
v -0.06848 -0.13611 0.14613
v -0.06331 -0.12938 0.14262
v -0.05815 -0.12264 0.14613
v -0.05601 -0.11986 0.15462
v -0.05815 -0.12264 0.16310
v -0.06331 -0.12938 0.16662
v -0.06848 -0.13611 0.16310
v -0.05800 -0.14733 0.15462
v -0.05624 -0.14428 0.14613
v -0.05200 -0.13693 0.14262
v -0.04776 -0.12959 0.14613
v -0.04600 -0.12654 0.15462
v -0.04776 -0.12959 0.16310
v -0.05200 -0.13693 0.16662
v -0.05624 -0.14428 0.16310
v -0.04439 -0.15404 0.15462
v -0.04305 -0.15079 0.14613
v -0.03980 -0.14295 0.14262
v -0.03655 -0.13511 0.14613
v -0.03521 -0.13186 0.15462
v -0.03655 -0.13511 0.16310
v -0.03980 -0.14295 0.16662
v -0.04305 -0.15079 0.16310
v -0.03002 -0.15892 0.15462
v -0.02911 -0.15552 0.14613
v -0.02692 -0.14732 0.14262
v -0.02472 -0.13913 0.14613
v -0.02381 -0.13573 0.15462
v -0.02472 -0.13913 0.16310
v -0.02692 -0.14732 0.16662
v -0.02911 -0.15552 0.16310
v -0.01514 -0.16188 0.15462
v -0.01468 -0.15839 0.14613
v -0.01357 -0.14998 0.14262
v -0.01247 -0.14157 0.14613
v -0.01201 -0.13808 0.15462
v -0.01247 -0.14157 0.16310
v -0.01357 -0.14998 0.16662
v -0.01468 -0.15839 0.16310
v -0.00000 -0.16287 0.15462
v -0.00000 -0.15935 0.14613
v -0.00000 -0.15087 0.14262
v -0.00000 -0.14238 0.14613
v -0.00000 -0.13887 0.15462
v -0.00000 -0.14238 0.16310
v -0.00000 -0.15087 0.16662
v -0.00000 -0.15935 0.16310
v 0.01514 -0.16188 0.15462
v 0.01468 -0.15839 0.14613
v 0.01357 -0.14998 0.14262
v 0.01247 -0.14157 0.14613
v 0.01201 -0.13808 0.15462
v 0.01247 -0.14157 0.16310
v 0.01357 -0.14998 0.16662
v 0.01468 -0.15839 0.16310
v 0.03002 -0.15892 0.15462
v 0.02911 -0.15552 0.14613
v 0.02692 -0.14732 0.14262
v 0.02472 -0.13913 0.14613
v 0.02381 -0.13573 0.15462
v 0.02472 -0.13913 0.16310
v 0.02692 -0.14732 0.16662
v 0.02911 -0.15552 0.16310
v 0.04439 -0.15404 0.15462
v 0.04305 -0.15079 0.14613
v 0.03980 -0.14295 0.14262
v 0.03655 -0.13511 0.14613
v 0.03521 -0.13186 0.15462
v 0.03655 -0.13511 0.16310
v 0.03980 -0.14295 0.16662
v 0.04305 -0.15079 0.16310
v 0.05800 -0.14733 0.15462
v 0.05624 -0.14428 0.14613
v 0.05200 -0.13693 0.14262
v 0.04776 -0.12959 0.14613
v 0.04600 -0.12654 0.15462
v 0.04776 -0.12959 0.16310
v 0.05200 -0.13693 0.16662
v 0.05624 -0.14428 0.16310
v 0.07062 -0.13890 0.15462
v 0.06848 -0.13611 0.14613
v 0.06331 -0.12938 0.14262
v 0.05815 -0.12264 0.14613
v 0.05601 -0.11986 0.15462
v 0.05815 -0.12264 0.16310
v 0.06331 -0.12938 0.16662
v 0.06848 -0.13611 0.16310
v 0.08202 -0.12889 0.15462
v 0.07954 -0.12641 0.14613
v 0.07354 -0.12041 0.14262
v 0.06754 -0.11441 0.14613
v 0.06505 -0.11192 0.15462
v 0.06754 -0.11441 0.16310
v 0.07354 -0.12041 0.16662
v 0.07954 -0.12641 0.16310
v 0.09203 -0.11748 0.15462
v 0.08924 -0.11534 0.14613
v 0.08251 -0.11018 0.14262
v 0.07578 -0.10501 0.14613
v 0.07299 -0.10287 0.15462
v 0.07578 -0.10501 0.16310
v 0.08251 -0.11018 0.16662
v 0.08924 -0.11534 0.16310
v 0.10046 -0.10487 0.15462
v 0.09742 -0.10311 0.14613
v 0.09007 -0.09887 0.14262
v 0.08272 -0.09463 0.14613
v 0.07967 -0.09287 0.15462
v 0.08272 -0.09463 0.16310
v 0.09007 -0.09887 0.16662
v 0.09742 -0.10311 0.16310
v 0.10717 -0.09126 0.15462
v 0.10392 -0.08991 0.14613
v 0.09608 -0.08667 0.14262
v 0.08824 -0.08342 0.14613
v 0.08500 -0.08207 0.15462
v 0.08824 -0.08342 0.16310
v 0.09608 -0.08667 0.16662
v 0.10392 -0.08991 0.16310
v 0.11205 -0.07689 0.15462
v 0.10865 -0.07598 0.14613
v 0.10046 -0.07378 0.14262
v 0.09226 -0.07159 0.14613
v 0.08887 -0.07068 0.15462
v 0.09226 -0.07159 0.16310
v 0.10046 -0.07378 0.16662
v 0.10865 -0.07598 0.16310
v 0.11501 -0.06201 0.15462
v 0.11152 -0.06155 0.14613
v 0.10311 -0.06044 0.14262
v 0.09470 -0.05933 0.14613
v 0.09121 -0.05888 0.15462
v 0.09470 -0.05933 0.16310
v 0.10311 -0.06044 0.16662
v 0.11152 -0.06155 0.16310
v 0.11600 -0.04687 0.15462
v 0.11249 -0.04687 0.14613
v 0.10400 -0.04687 0.14262
v 0.09551 -0.04687 0.14613
v 0.09200 -0.04687 0.15462
v 0.09551 -0.04687 0.16310
v 0.10400 -0.04687 0.16662
v 0.11249 -0.04687 0.16310
v 0.11501 -0.03173 0.15462
v 0.11152 -0.03219 0.14613
v 0.10311 -0.03329 0.14262
v 0.09470 -0.03440 0.14613
v 0.09121 -0.03486 0.15462
v 0.09470 -0.03440 0.16310
v 0.10311 -0.03329 0.16662
v 0.11152 -0.03219 0.16310
v 0.11205 -0.01684 0.15462
v 0.10865 -0.01775 0.14613
v 0.10046 -0.01995 0.14262
v 0.09226 -0.02215 0.14613
v 0.08887 -0.02306 0.15462
v 0.09226 -0.02215 0.16310
v 0.10046 -0.01995 0.16662
v 0.10865 -0.01775 0.16310
v 0.10717 -0.00248 0.15462
v 0.10392 -0.00382 0.14613
v 0.09608 -0.00707 0.14262
v 0.08824 -0.01032 0.14613
v 0.08500 -0.01166 0.15462
v 0.08824 -0.01032 0.16310
v 0.09608 -0.00707 0.16662
v 0.10392 -0.00382 0.16310
v 0.10046 0.01113 0.15462
v 0.09742 0.00937 0.14613
v 0.09007 0.00513 0.14262
v 0.08272 0.00089 0.14613
v 0.07967 -0.00087 0.15462
v 0.08272 0.00089 0.16310
v 0.09007 0.00513 0.16662
v 0.09742 0.00937 0.16310
v 0.09203 0.02375 0.15462
v 0.08924 0.02161 0.14613
v 0.08251 0.01644 0.14262
v 0.07578 0.01128 0.14613
v 0.07299 0.00914 0.15462
v 0.07578 0.01128 0.16310
v 0.08251 0.01644 0.16662
v 0.08924 0.02161 0.16310
v 0.08202 0.03516 0.15462
v 0.07954 0.03267 0.14613
v 0.07354 0.02667 0.14262
v 0.06754 0.02067 0.14613
v 0.06505 0.01819 0.15462
v 0.06754 0.02067 0.16310
v 0.07354 0.02667 0.16662
v 0.07954 0.03267 0.16310
v 0.07062 0.04516 0.15462
v 0.06848 0.04237 0.14613
v 0.06331 0.03564 0.14262
v 0.05815 0.02891 0.14613
v 0.05601 0.02612 0.15462
v 0.05815 0.02891 0.16310
v 0.06331 0.03564 0.16662
v 0.06848 0.04237 0.16310
v 0.05800 0.05359 0.15462
v 0.05624 0.05055 0.14613
v 0.05200 0.04320 0.14262
v 0.04776 0.03585 0.14613
v 0.04600 0.03281 0.15462
v 0.04776 0.03585 0.16310
v 0.05200 0.04320 0.16662
v 0.05624 0.05055 0.16310
v 0.04439 0.06030 0.15462
v 0.04305 0.05706 0.14613
v 0.03980 0.04922 0.14262
v 0.03655 0.04138 0.14613
v 0.03521 0.03813 0.15462
v 0.03655 0.04138 0.16310
v 0.03980 0.04922 0.16662
v 0.04305 0.05706 0.16310
v 0.03002 0.06518 0.15462
v 0.02911 0.06178 0.14613
v 0.02692 0.05359 0.14262
v 0.02472 0.04539 0.14613
v 0.02381 0.04200 0.15462
v 0.02472 0.04539 0.16310
v 0.02692 0.05359 0.16662
v 0.02911 0.06178 0.16310
v 0.01514 0.06814 0.15462
v 0.01468 0.06466 0.14613
v 0.01357 0.05624 0.14262
v 0.01247 0.04783 0.14613
v 0.01201 0.04435 0.15462
v 0.01247 0.04783 0.16310
v 0.01357 0.05624 0.16662
v 0.01468 0.06466 0.16310
v 0.00078 0.06911 0.15462
v 0.00055 0.06560 0.14613
v 0.00000 0.05713 0.14262
v -0.00055 0.04867 0.14613
v -0.00078 0.04516 0.15462
v -0.00055 0.04867 0.16310
v 0.00000 0.05713 0.16662
v 0.00055 0.06560 0.16310
v -0.00046 0.06412 0.17962
v -0.00032 0.06207 0.17467
v -0.00000 0.05713 0.17262
v 0.00032 0.05219 0.17467
v 0.00046 0.05015 0.17962
v 0.00032 0.05219 0.18457
v 0.00000 0.05713 0.18662
v -0.00032 0.06207 0.18457
v -0.01449 0.06318 0.17962
v -0.01422 0.06115 0.17467
v -0.01357 0.05624 0.17262
v -0.01293 0.05134 0.17467
v -0.01266 0.04930 0.17962
v -0.01293 0.05134 0.18457
v -0.01357 0.05624 0.18662
v -0.01422 0.06115 0.18457
v -0.02873 0.06035 0.17962
v -0.02820 0.05837 0.17467
v -0.02692 0.05359 0.17262
v -0.02564 0.04881 0.17467
v -0.02511 0.04683 0.17962
v -0.02564 0.04881 0.18457
v -0.02692 0.05359 0.18662
v -0.02820 0.05837 0.18457
v -0.04248 0.05568 0.17962
v -0.04169 0.05379 0.17467
v -0.03980 0.04922 0.17262
v -0.03790 0.04464 0.17467
v -0.03712 0.04275 0.17962
v -0.03790 0.04464 0.18457
v -0.03980 0.04922 0.18662
v -0.04169 0.05379 0.18457
v -0.05550 0.04926 0.17962
v -0.05447 0.04749 0.17467
v -0.05200 0.04320 0.17262
v -0.04953 0.03891 0.17467
v -0.04850 0.03714 0.17962
v -0.04953 0.03891 0.18457
v -0.05200 0.04320 0.18662
v -0.05447 0.04749 0.18457
v -0.06757 0.04119 0.17962
v -0.06632 0.03957 0.17467
v -0.06331 0.03564 0.17262
v -0.06030 0.03171 0.17467
v -0.05905 0.03009 0.17962
v -0.06030 0.03171 0.18457
v -0.06331 0.03564 0.18662
v -0.06632 0.03957 0.18457
v -0.07849 0.03162 0.17962
v -0.07704 0.03017 0.17467
v -0.07354 0.02667 0.17262
v -0.07004 0.02317 0.17467
v -0.06859 0.02172 0.17962
v -0.07004 0.02317 0.18457
v -0.07354 0.02667 0.18662
v -0.07704 0.03017 0.18457
v -0.08806 0.02070 0.17962
v -0.08644 0.01946 0.17467
v -0.08251 0.01644 0.17262
v -0.07858 0.01343 0.17467
v -0.07696 0.01218 0.17962
v -0.07858 0.01343 0.18457
v -0.08251 0.01644 0.18662
v -0.08644 0.01946 0.18457
v -0.09613 0.00863 0.17962
v -0.09435 0.00761 0.17467
v -0.09007 0.00513 0.17262
v -0.08578 0.00266 0.17467
v -0.08400 0.00163 0.17962
v -0.08578 0.00266 0.18457
v -0.09007 0.00513 0.18662
v -0.09435 0.00761 0.18457
v -0.10255 -0.00439 0.17962
v -0.10066 -0.00517 0.17467
v -0.09608 -0.00707 0.17262
v -0.09151 -0.00896 0.17467
v -0.08962 -0.00975 0.17962
v -0.09151 -0.00896 0.18457
v -0.09608 -0.00707 0.18662
v -0.10066 -0.00517 0.18457
v -0.10722 -0.01814 0.17962
v -0.10524 -0.01867 0.17467
v -0.10046 -0.01995 0.17262
v -0.09568 -0.02123 0.17467
v -0.09369 -0.02176 0.17962
v -0.09568 -0.02123 0.18457
v -0.10046 -0.01995 0.18662
v -0.10524 -0.01867 0.18457
v -0.11005 -0.03238 0.17962
v -0.10802 -0.03265 0.17467
v -0.10311 -0.03329 0.17262
v -0.09820 -0.03394 0.17467
v -0.09617 -0.03421 0.17962
v -0.09820 -0.03394 0.18457
v -0.10311 -0.03329 0.18662
v -0.10802 -0.03265 0.18457
v -0.11100 -0.04687 0.17962
v -0.10895 -0.04687 0.17467
v -0.10400 -0.04687 0.17262
v -0.09905 -0.04687 0.17467
v -0.09700 -0.04687 0.17962
v -0.09905 -0.04687 0.18457
v -0.10400 -0.04687 0.18662
v -0.10895 -0.04687 0.18457
v -0.11005 -0.06136 0.17962
v -0.10802 -0.06109 0.17467
v -0.10311 -0.06044 0.17262
v -0.09820 -0.05980 0.17467
v -0.09617 -0.05953 0.17962
v -0.09820 -0.05980 0.18457
v -0.10311 -0.06044 0.18662
v -0.10802 -0.06109 0.18457
v -0.10722 -0.07560 0.17962
v -0.10524 -0.07507 0.17467
v -0.10046 -0.07378 0.17262
v -0.09568 -0.07250 0.17467
v -0.09369 -0.07197 0.17962
v -0.09568 -0.07250 0.18457
v -0.10046 -0.07378 0.18662
v -0.10524 -0.07507 0.18457
v -0.10255 -0.08935 0.17962
v -0.10066 -0.08856 0.17467
v -0.09608 -0.08667 0.17262
v -0.09151 -0.08477 0.17467
v -0.08962 -0.08399 0.17962
v -0.09151 -0.08477 0.18457
v -0.09608 -0.08667 0.18662
v -0.10066 -0.08856 0.18457
v -0.09613 -0.10237 0.17962
v -0.09435 -0.10134 0.17467
v -0.09007 -0.09887 0.17262
v -0.08578 -0.09639 0.17467
v -0.08400 -0.09537 0.17962
v -0.08578 -0.09639 0.18457
v -0.09007 -0.09887 0.18662
v -0.09435 -0.10134 0.18457
v -0.08806 -0.11444 0.17962
v -0.08644 -0.11319 0.17467
v -0.08251 -0.11018 0.17262
v -0.07858 -0.10717 0.17467
v -0.07696 -0.10592 0.17962
v -0.07858 -0.10717 0.18457
v -0.08251 -0.11018 0.18662
v -0.08644 -0.11319 0.18457
v -0.07849 -0.12536 0.17962
v -0.07704 -0.12391 0.17467
v -0.07354 -0.12041 0.17262
v -0.07004 -0.11691 0.17467
v -0.06859 -0.11546 0.17962
v -0.07004 -0.11691 0.18457
v -0.07354 -0.12041 0.18662
v -0.07704 -0.12391 0.18457
v -0.06757 -0.13493 0.17962
v -0.06632 -0.13330 0.17467
v -0.06331 -0.12938 0.17262
v -0.06030 -0.12545 0.17467
v -0.05905 -0.12382 0.17962
v -0.06030 -0.12545 0.18457
v -0.06331 -0.12938 0.18662
v -0.06632 -0.13330 0.18457
v -0.05550 -0.14300 0.17962
v -0.05447 -0.14122 0.17467
v -0.05200 -0.13693 0.17262
v -0.04953 -0.13265 0.17467
v -0.04850 -0.13087 0.17962
v -0.04953 -0.13265 0.18457
v -0.05200 -0.13693 0.18662
v -0.05447 -0.14122 0.18457
v -0.04248 -0.14942 0.17962
v -0.04169 -0.14752 0.17467
v -0.03980 -0.14295 0.17262
v -0.03790 -0.13838 0.17467
v -0.03712 -0.13648 0.17962
v -0.03790 -0.13838 0.18457
v -0.03980 -0.14295 0.18662
v -0.04169 -0.14752 0.18457
v -0.02873 -0.15409 0.17962
v -0.02820 -0.15211 0.17467
v -0.02692 -0.14732 0.17262
v -0.02564 -0.14254 0.17467
v -0.02511 -0.14056 0.17962
v -0.02564 -0.14254 0.18457
v -0.02692 -0.14732 0.18662
v -0.02820 -0.15211 0.18457
v -0.01449 -0.15692 0.17962
v -0.01422 -0.15489 0.17467
v -0.01357 -0.14998 0.17262
v -0.01293 -0.14507 0.17467
v -0.01266 -0.14304 0.17962
v -0.01293 -0.14507 0.18457
v -0.01357 -0.14998 0.18662
v -0.01422 -0.15489 0.18457
v -0.00000 -0.15787 0.17962
v -0.00000 -0.15582 0.17467
v -0.00000 -0.15087 0.17262
v -0.00000 -0.14592 0.17467
v -0.00000 -0.14387 0.17962
v -0.00000 -0.14592 0.18457
v -0.00000 -0.15087 0.18662
v -0.00000 -0.15582 0.18457
v 0.01449 -0.15692 0.17962
v 0.01422 -0.15489 0.17467
v 0.01357 -0.14998 0.17262
v 0.01293 -0.14507 0.17467
v 0.01266 -0.14304 0.17962
v 0.01293 -0.14507 0.18457
v 0.01357 -0.14998 0.18662
v 0.01422 -0.15489 0.18457
v 0.02873 -0.15409 0.17962
v 0.02820 -0.15211 0.17467
v 0.02692 -0.14732 0.17262
v 0.02564 -0.14254 0.17467
v 0.02511 -0.14056 0.17962
v 0.02564 -0.14254 0.18457
v 0.02692 -0.14732 0.18662
v 0.02820 -0.15211 0.18457
v 0.04248 -0.14942 0.17962
v 0.04169 -0.14752 0.17467
v 0.03980 -0.14295 0.17262
v 0.03790 -0.13838 0.17467
v 0.03712 -0.13648 0.17962
v 0.03790 -0.13838 0.18457
v 0.03980 -0.14295 0.18662
v 0.04169 -0.14752 0.18457
v 0.05550 -0.14300 0.17962
v 0.05447 -0.14122 0.17467
v 0.05200 -0.13693 0.17262
v 0.04953 -0.13265 0.17467
v 0.04850 -0.13087 0.17962
v 0.04953 -0.13265 0.18457
v 0.05200 -0.13693 0.18662
v 0.05447 -0.14122 0.18457
v 0.06757 -0.13493 0.17962
v 0.06632 -0.13330 0.17467
v 0.06331 -0.12938 0.17262
v 0.06030 -0.12545 0.17467
v 0.05905 -0.12382 0.17962
v 0.06030 -0.12545 0.18457
v 0.06331 -0.12938 0.18662
v 0.06632 -0.13330 0.18457
v 0.07849 -0.12536 0.17962
v 0.07704 -0.12391 0.17467
v 0.07354 -0.12041 0.17262
v 0.07004 -0.11691 0.17467
v 0.06859 -0.11546 0.17962
v 0.07004 -0.11691 0.18457
v 0.07354 -0.12041 0.18662
v 0.07704 -0.12391 0.18457
v 0.08806 -0.11444 0.17962
v 0.08644 -0.11319 0.17467
v 0.08251 -0.11018 0.17262
v 0.07858 -0.10717 0.17467
v 0.07696 -0.10592 0.17962
v 0.07858 -0.10717 0.18457
v 0.08251 -0.11018 0.18662
v 0.08644 -0.11319 0.18457
v 0.09613 -0.10237 0.17962
v 0.09435 -0.10134 0.17467
v 0.09007 -0.09887 0.17262
v 0.08578 -0.09639 0.17467
v 0.08400 -0.09537 0.17962
v 0.08578 -0.09639 0.18457
v 0.09007 -0.09887 0.18662
v 0.09435 -0.10134 0.18457
v 0.10255 -0.08935 0.17962
v 0.10066 -0.08856 0.17467
v 0.09608 -0.08667 0.17262
v 0.09151 -0.08477 0.17467
v 0.08962 -0.08399 0.17962
v 0.09151 -0.08477 0.18457
v 0.09608 -0.08667 0.18662
v 0.10066 -0.08856 0.18457
v 0.10722 -0.07560 0.17962
v 0.10524 -0.07507 0.17467
v 0.10046 -0.07378 0.17262
v 0.09568 -0.07250 0.17467
v 0.09369 -0.07197 0.17962
v 0.09568 -0.07250 0.18457
v 0.10046 -0.07378 0.18662
v 0.10524 -0.07507 0.18457
v 0.11005 -0.06136 0.17962
v 0.10802 -0.06109 0.17467
v 0.10311 -0.06044 0.17262
v 0.09820 -0.05980 0.17467
v 0.09617 -0.05953 0.17962
v 0.09820 -0.05980 0.18457
v 0.10311 -0.06044 0.18662
v 0.10802 -0.06109 0.18457
v 0.11100 -0.04687 0.17962
v 0.10895 -0.04687 0.17467
v 0.10400 -0.04687 0.17262
v 0.09905 -0.04687 0.17467
v 0.09700 -0.04687 0.17962
v 0.09905 -0.04687 0.18457
v 0.10400 -0.04687 0.18662
v 0.10895 -0.04687 0.18457
v 0.11005 -0.03238 0.17962
v 0.10802 -0.03265 0.17467
v 0.10311 -0.03329 0.17262
v 0.09820 -0.03394 0.17467
v 0.09617 -0.03421 0.17962
v 0.09820 -0.03394 0.18457
v 0.10311 -0.03329 0.18662
v 0.10802 -0.03265 0.18457
v 0.10722 -0.01814 0.17962
v 0.10524 -0.01867 0.17467
v 0.10046 -0.01995 0.17262
v 0.09568 -0.02123 0.17467
v 0.09369 -0.02176 0.17962
v 0.09568 -0.02123 0.18457
v 0.10046 -0.01995 0.18662
v 0.10524 -0.01867 0.18457
v 0.10255 -0.00439 0.17962
v 0.10066 -0.00517 0.17467
v 0.09608 -0.00707 0.17262
v 0.09151 -0.00896 0.17467
v 0.08962 -0.00975 0.17962
v 0.09151 -0.00896 0.18457
v 0.09608 -0.00707 0.18662
v 0.10066 -0.00517 0.18457
v 0.09613 0.00863 0.17962
v 0.09435 0.00761 0.17467
v 0.09007 0.00513 0.17262
v 0.08578 0.00266 0.17467
v 0.08400 0.00163 0.17962
v 0.08578 0.00266 0.18457
v 0.09007 0.00513 0.18662
v 0.09435 0.00761 0.18457
v 0.08806 0.02070 0.17962
v 0.08644 0.01946 0.17467
v 0.08251 0.01644 0.17262
v 0.07858 0.01343 0.17467
v 0.07696 0.01218 0.17962
v 0.07858 0.01343 0.18457
v 0.08251 0.01644 0.18662
v 0.08644 0.01946 0.18457
v 0.07849 0.03162 0.17962
v 0.07704 0.03017 0.17467
v 0.07354 0.02667 0.17262
v 0.07004 0.02317 0.17467
v 0.06859 0.02172 0.17962
v 0.07004 0.02317 0.18457
v 0.07354 0.02667 0.18662
v 0.07704 0.03017 0.18457
v 0.06757 0.04119 0.17962
v 0.06632 0.03957 0.17467
v 0.06331 0.03564 0.17262
v 0.06030 0.03171 0.17467
v 0.05905 0.03009 0.17962
v 0.06030 0.03171 0.18457
v 0.06331 0.03564 0.18662
v 0.06632 0.03957 0.18457
v 0.05550 0.04926 0.17962
v 0.05447 0.04749 0.17467
v 0.05200 0.04320 0.17262
v 0.04953 0.03891 0.17467
v 0.04850 0.03714 0.17962
v 0.04953 0.03891 0.18457
v 0.05200 0.04320 0.18662
v 0.05447 0.04749 0.18457
v 0.04248 0.05568 0.17962
v 0.04169 0.05379 0.17467
v 0.03980 0.04922 0.17262
v 0.03790 0.04464 0.17467
v 0.03712 0.04275 0.17962
v 0.03790 0.04464 0.18457
v 0.03980 0.04922 0.18662
v 0.04169 0.05379 0.18457
v 0.02873 0.06035 0.17962
v 0.02820 0.05837 0.17467
v 0.02692 0.05359 0.17262
v 0.02564 0.04881 0.17467
v 0.02511 0.04683 0.17962
v 0.02564 0.04881 0.18457
v 0.02692 0.05359 0.18662
v 0.02820 0.05837 0.18457
v 0.01449 0.06318 0.17962
v 0.01422 0.06115 0.17467
v 0.01357 0.05624 0.17262
v 0.01293 0.05134 0.17467
v 0.01266 0.04930 0.17962
v 0.01293 0.05134 0.18457
v 0.01357 0.05624 0.18662
v 0.01422 0.06115 0.18457
v 0.00046 0.06412 0.17962
v 0.00032 0.06207 0.17467
v 0.00000 0.05713 0.17262
v -0.00032 0.05219 0.17467
v -0.00046 0.05015 0.17962
v -0.00032 0.05219 0.18457
v 0.00000 0.05713 0.18662
v 0.00032 0.06207 0.18457
f 1 2 3
f 2 1 6
f 1 3 4
f 1 4 5
f 1 5 6
f 2 6 11
f 3 2 7
f 4 3 8
f 5 4 9
f 6 5 10
f 2 11 7
f 3 7 8
f 4 8 9
f 5 9 10
f 6 10 11
f 7 11 12
f 8 7 12
f 9 8 12
f 10 9 12
f 11 10 12
f 13 22 21
f 14 23 22
f 15 24 23
f 16 25 24
f 18 25 17
f 19 26 18
f 20 27 19
f 13 28 20
f 22 29 21
f 23 30 22
f 24 31 23
f 24 33 32
f 25 34 33
f 26 35 34
f 27 36 35
f 21 36 28
f 29 38 37
f 30 39 38
f 31 40 39
f 32 41 40
f 33 42 41
f 35 42 34
f 35 44 43
f 36 37 44
f 37 46 45
f 39 46 38
f 40 47 39
f 40 49 48
f 41 50 49
f 42 51 50
f 43 52 51
f 44 45 52
f 46 53 45
f 46 55 54
f 48 55 47
f 48 57 56
f 49 58 57
f 50 59 58
f 51 60 59
f 52 53 60
f 54 61 53
f 54 63 62
f 55 64 63
f 57 64 56
f 57 66 65
f 58 67 66
f 60 67 59
f 60 61 68
f 62 69 61
f 62 71 70
f 64 71 63
f 64 73 72
f 66 73 65
f 66 75 74
f 68 75 67
f 68 69 76
f 70 77 69
f 71 78 70
f 71 80 79
f 72 81 80
f 74 81 73
f 75 82 74
f 75 84 83
f 76 77 84
f 78 85 77
f 78 87 86
f 80 87 79
f 81 88 80
f 82 89 81
f 82 91 90
f 83 92 91
f 84 85 92
f 85 94 93
f 87 94 86
f 88 95 87
f 89 96 88
f 89 98 97
f 90 99 98
f 91 100 99
f 92 93 100
f 93 102 101
f 94 103 102
f 96 103 95
f 97 104 96
f 97 106 105
f 98 107 106
f 100 107 99
f 93 108 100
f 102 109 101
f 103 110 102
f 104 111 103
f 104 113 112
f 106 113 105
f 106 115 114
f 107 116 115
f 108 109 116
f 109 118 117
f 110 119 118
f 112 119 111
f 113 120 112
f 113 122 121
f 115 122 114
f 116 123 115
f 109 124 116
f 118 125 117
f 119 126 118
f 119 128 127
f 120 129 128
f 122 129 121
f 123 130 122
f 123 132 131
f 124 125 132
f 125 134 133
f 126 135 134
f 127 136 135
f 128 137 136
f 130 137 129
f 130 139 138
f 132 139 131
f 125 140 132
f 133 142 141
f 135 142 134
f 135 144 143
f 136 145 144
f 138 145 137
f 139 146 138
f 140 147 139
f 133 148 140
f 141 150 149
f 142 151 150
f 144 151 143
f 145 152 144
f 146 153 145
f 146 155 154
f 148 155 147
f 141 156 148
f 149 158 157
f 151 158 150
f 151 160 159
f 153 160 152
f 153 162 161
f 155 162 154
f 155 164 163
f 149 164 156
f 157 166 165
f 159 166 158
f 160 167 159
f 160 169 168
f 162 169 161
f 163 170 162
f 163 172 171
f 157 172 164
f 165 174 173
f 167 174 166
f 167 176 175
f 168 177 176
f 169 178 177
f 171 178 170
f 172 179 171
f 165 180 172
f 174 181 173
f 174 183 182
f 175 184 183
f 176 185 184
f 177 186 185
f 179 186 178
f 180 187 179
f 173 188 180
f 182 189 181
f 183 190 182
f 184 191 183
f 185 192 184
f 186 193 185
f 186 195 194
f 188 195 187
f 181 196 188
f 189 198 197
f 190 199 198
f 191 200 199
f 193 200 192
f 194 201 193
f 195 202 194
f 196 203 195
f 196 197 204
f 197 206 205
f 198 207 206
f 199 208 207
f 200 209 208
f 201 210 209
f 203 210 202
f 204 211 203
f 204 205 212
f 206 213 205
f 207 214 206
f 208 215 207
f 209 216 208
f 210 217 209
f 210 219 218
f 211 220 219
f 205 220 212
f 214 221 213
f 215 222 214
f 216 223 215
f 216 225 224
f 217 226 225
f 218 227 226
f 219 228 227
f 213 228 220
f 221 230 229
f 222 231 230
f 223 232 231
f 224 233 232
f 225 234 233
f 227 234 226
f 227 236 235
f 228 229 236
f 229 238 237
f 231 238 230
f 232 239 231
f 232 241 240
f 233 242 241
f 234 243 242
f 235 244 243
f 236 237 244
f 238 245 237
f 238 247 246
f 240 247 239
f 240 249 248
f 241 250 249
f 242 251 250
f 243 252 251
f 244 245 252
f 246 253 245
f 246 255 254
f 247 256 255
f 249 256 248
f 249 258 257
f 250 259 258
f 252 259 251
f 252 253 260
f 254 261 253
f 254 263 262
f 256 263 255
f 256 265 264
f 258 265 257
f 258 267 266
f 260 267 259
f 260 261 268
f 262 269 261
f 263 270 262
f 263 272 271
f 264 273 272
f 266 273 265
f 267 274 266
f 267 276 275
f 268 269 276
f 270 277 269
f 270 279 278
f 272 279 271
f 273 280 272
f 274 281 273
f 274 283 282
f 275 284 283
f 276 277 284
f 277 286 285
f 279 286 278
f 280 287 279
f 281 288 280
f 281 290 289
f 282 291 290
f 283 292 291
f 284 285 292
f 285 294 293
f 286 295 294
f 288 295 287
f 289 296 288
f 289 298 297
f 290 299 298
f 292 299 291
f 285 300 292
f 294 301 293
f 295 302 294
f 296 303 295
f 296 305 304
f 298 305 297
f 298 307 306
f 299 308 307
f 300 301 308
f 301 310 309
f 302 311 310
f 304 311 303
f 305 312 304
f 305 314 313
f 307 314 306
f 308 315 307
f 301 316 308
f 310 317 309
f 311 318 310
f 311 320 319
f 312 321 320
f 314 321 313
f 315 322 314
f 315 324 323
f 316 317 324
f 317 326 325
f 318 327 326
f 319 328 327
f 320 329 328
f 322 329 321
f 322 331 330
f 324 331 323
f 317 332 324
f 325 334 333
f 327 334 326
f 327 336 335
f 328 337 336
f 330 337 329
f 331 338 330
f 332 339 331
f 325 340 332
f 333 342 341
f 334 343 342
f 336 343 335
f 337 344 336
f 338 345 337
f 338 347 346
f 340 347 339
f 333 348 340
f 341 350 349
f 343 350 342
f 343 352 351
f 345 352 344
f 345 354 353
f 347 354 346
f 347 356 355
f 341 356 348
f 349 358 357
f 351 358 350
f 352 359 351
f 352 361 360
f 354 361 353
f 355 362 354
f 355 364 363
f 349 364 356
f 357 366 365
f 359 366 358
f 359 368 367
f 360 369 368
f 361 370 369
f 363 370 362
f 364 371 363
f 357 372 364
f 366 373 365
f 366 375 374
f 367 376 375
f 368 377 376
f 369 378 377
f 371 378 370
f 372 379 371
f 365 380 372
f 374 381 373
f 375 382 374
f 376 383 375
f 377 384 376
f 378 385 377
f 378 387 386
f 380 387 379
f 373 388 380
f 381 390 389
f 382 391 390
f 383 392 391
f 385 392 384
f 386 393 385
f 387 394 386
f 388 395 387
f 388 389 396
f 390 397 389
f 391 398 390
f 392 399 391
f 393 400 392
f 393 402 401
f 394 403 402
f 395 404 403
f 396 397 404
f 405 414 413
f 406 415 414
f 407 416 415
f 408 417 416
f 410 417 409
f 411 418 410
f 412 419 411
f 405 420 412
f 413 422 421
f 414 423 422
f 416 423 415
f 416 425 424
f 418 425 417
f 418 427 426
f 420 427 419
f 413 428 420
f 422 429 421
f 422 431 430
f 423 432 431
f 425 432 424
f 425 434 433
f 427 434 426
f 428 435 427
f 421 436 428
f 429 438 437
f 431 438 430
f 431 440 439
f 433 440 432
f 434 441 433
f 435 442 434
f 435 444 443
f 429 444 436
f 438 445 437
f 439 446 438
f 440 447 439
f 440 449 448
f 442 449 441
f 442 451 450
f 443 452 451
f 444 445 452
f 445 454 453
f 446 455 454
f 447 456 455
f 448 457 456
f 449 458 457
f 451 458 450
f 452 459 451
f 445 460 452
f 453 462 461
f 455 462 454
f 456 463 455
f 456 465 464
f 457 466 465
f 459 466 458
f 460 467 459
f 453 468 460
f 462 469 461
f 463 470 462
f 463 472 471
f 464 473 472
f 466 473 465
f 466 475 474
f 467 476 475
f 468 469 476
f 469 478 477
f 470 479 478
f 472 479 471
f 472 481 480
f 473 482 481
f 474 483 482
f 476 483 475
f 469 484 476
f 477 486 485
f 479 486 478
f 479 488 487
f 480 489 488
f 482 489 481
f 482 491 490
f 483 492 491
f 477 492 484
f 486 493 485
f 486 495 494
f 487 496 495
f 489 496 488
f 489 498 497
f 491 498 490
f 491 500 499
f 492 493 500
f 494 501 493
f 494 503 502
f 495 504 503
f 496 505 504
f 497 506 505
f 499 506 498
f 500 507 499
f 500 501 508
f 501 510 509
f 503 510 502
f 504 511 503
f 505 512 504
f 506 513 505
f 506 515 514
f 507 516 515
f 501 516 508
f 509 518 517
f 511 518 510
f 511 520 519
f 512 521 520
f 514 521 513
f 515 522 514
f 516 523 515
f 509 524 516
f 518 525 517
f 518 527 526
f 520 527 519
f 520 529 528
f 522 529 521
f 523 530 522
f 523 532 531
f 524 525 532
f 526 533 525
f 527 534 526
f 527 536 535
f 529 536 528
f 530 537 529
f 531 538 530
f 531 540 539
f 532 533 540
f 534 541 533
f 534 543 542
f 536 543 535
f 537 544 536
f 537 546 545
f 539 546 538
f 540 547 539
f 533 548 540
f 542 549 541
f 542 551 550
f 543 552 551
f 545 552 544
f 546 553 545
f 546 555 554
f 548 555 547
f 548 549 556
f 550 557 549
f 551 558 550
f 552 559 551
f 553 560 552
f 554 561 553
f 554 563 562
f 556 563 555
f 556 557 564
f 557 566 565
f 559 566 558
f 559 568 567
f 560 569 568
f 561 570 569
f 563 570 562
f 564 571 563
f 557 572 564
f 566 573 565
f 566 575 574
f 568 575 567
f 568 577 576
f 569 578 577
f 570 579 578
f 572 579 571
f 572 573 580
f 573 582 581
f 575 582 574
f 576 583 575
f 576 585 584
f 578 585 577
f 578 587 586
f 579 588 587
f 580 581 588
f 582 589 581
f 583 590 582
f 583 592 591
f 585 592 584
f 585 594 593
f 587 594 586
f 588 595 587
f 588 589 596
f 589 598 597
f 591 598 590
f 592 599 591
f 592 601 600
f 593 602 601
f 595 602 594
f 595 604 603
f 596 597 604
f 598 605 597
f 598 607 606
f 599 608 607
f 601 608 600
f 602 609 601
f 602 611 610
f 604 611 603
f 597 612 604
f 606 613 605
f 606 615 614
f 608 615 607
f 608 617 616
f 610 617 609
f 610 619 618
f 612 619 611
f 605 620 612
f 614 621 613
f 614 623 622
f 615 624 623
f 617 624 616
f 617 626 625
f 619 626 618
f 620 627 619
f 620 621 628
f 621 630 629
f 623 630 622
f 623 632 631
f 625 632 624
f 626 633 625
f 627 634 626
f 627 636 635
f 621 636 628
f 630 637 629
f 631 638 630
f 632 639 631
f 632 641 640
f 634 641 633
f 634 643 642
f 635 644 643
f 636 637 644
f 637 646 645
f 638 647 646
f 639 648 647
f 640 649 648
f 641 650 649
f 643 650 642
f 644 651 643
f 637 652 644
f 645 654 653
f 647 654 646
f 648 655 647
f 648 657 656
f 649 658 657
f 651 658 650
f 652 659 651
f 645 660 652
f 654 661 653
f 655 662 654
f 655 664 663
f 656 665 664
f 658 665 657
f 658 667 666
f 659 668 667
f 660 661 668
f 661 670 669
f 662 671 670
f 664 671 663
f 664 673 672
f 665 674 673
f 666 675 674
f 668 675 667
f 661 676 668
f 669 678 677
f 671 678 670
f 671 680 679
f 672 681 680
f 674 681 673
f 674 683 682
f 675 684 683
f 669 684 676
f 678 685 677
f 678 687 686
f 679 688 687
f 681 688 680
f 681 690 689
f 683 690 682
f 683 692 691
f 684 685 692
f 686 693 685
f 686 695 694
f 687 696 695
f 688 697 696
f 689 698 697
f 691 698 690
f 692 699 691
f 692 693 700
f 693 702 701
f 695 702 694
f 696 703 695
f 697 704 696
f 698 705 697
f 698 707 706
f 699 708 707
f 693 708 700
f 701 710 709
f 703 710 702
f 703 712 711
f 704 713 712
f 706 713 705
f 707 714 706
f 708 715 707
f 701 716 708
f 710 717 709
f 710 719 718
f 712 719 711
f 712 721 720
f 714 721 713
f 715 722 714
f 715 724 723
f 716 717 724
f 718 725 717
f 719 726 718
f 719 728 727
f 721 728 720
f 722 729 721
f 723 730 722
f 723 732 731
f 724 725 732
f 726 733 725
f 726 735 734
f 728 735 727
f 729 736 728
f 729 738 737
f 731 738 730
f 732 739 731
f 725 740 732
f 734 741 733
f 734 743 742
f 735 744 743
f 737 744 736
f 738 745 737
f 738 747 746
f 740 747 739
f 740 741 748
f 742 749 741
f 743 750 742
f 744 751 743
f 745 752 744
f 746 753 745
f 746 755 754
f 748 755 747
f 748 749 756
f 749 758 757
f 751 758 750
f 751 760 759
f 752 761 760
f 753 762 761
f 755 762 754
f 756 763 755
f 749 764 756
f 758 765 757
f 758 767 766
f 760 767 759
f 760 769 768
f 761 770 769
f 762 771 770
f 764 771 763
f 764 765 772
f 765 774 773
f 767 774 766
f 768 775 767
f 768 777 776
f 770 777 769
f 770 779 778
f 771 780 779
f 772 773 780
f 774 781 773
f 775 782 774
f 775 784 783
f 777 784 776
f 777 786 785
f 779 786 778
f 780 787 779
f 780 781 788
f 782 789 781
f 783 790 782
f 784 791 783
f 785 792 784
f 785 794 793
f 786 795 794
f 787 796 795
f 788 789 796
f 13 14 22
f 14 15 23
f 15 16 24
f 16 17 25
f 18 26 25
f 19 27 26
f 20 28 27
f 13 21 28
f 22 30 29
f 23 31 30
f 24 32 31
f 24 25 33
f 25 26 34
f 26 27 35
f 27 28 36
f 21 29 36
f 29 30 38
f 30 31 39
f 31 32 40
f 32 33 41
f 33 34 42
f 35 43 42
f 35 36 44
f 36 29 37
f 37 38 46
f 39 47 46
f 40 48 47
f 40 41 49
f 41 42 50
f 42 43 51
f 43 44 52
f 44 37 45
f 46 54 53
f 46 47 55
f 48 56 55
f 48 49 57
f 49 50 58
f 50 51 59
f 51 52 60
f 52 45 53
f 54 62 61
f 54 55 63
f 55 56 64
f 57 65 64
f 57 58 66
f 58 59 67
f 60 68 67
f 60 53 61
f 62 70 69
f 62 63 71
f 64 72 71
f 64 65 73
f 66 74 73
f 66 67 75
f 68 76 75
f 68 61 69
f 70 78 77
f 71 79 78
f 71 72 80
f 72 73 81
f 74 82 81
f 75 83 82
f 75 76 84
f 76 69 77
f 78 86 85
f 78 79 87
f 80 88 87
f 81 89 88
f 82 90 89
f 82 83 91
f 83 84 92
f 84 77 85
f 85 86 94
f 87 95 94
f 88 96 95
f 89 97 96
f 89 90 98
f 90 91 99
f 91 92 100
f 92 85 93
f 93 94 102
f 94 95 103
f 96 104 103
f 97 105 104
f 97 98 106
f 98 99 107
f 100 108 107
f 93 101 108
f 102 110 109
f 103 111 110
f 104 112 111
f 104 105 113
f 106 114 113
f 106 107 115
f 107 108 116
f 108 101 109
f 109 110 118
f 110 111 119
f 112 120 119
f 113 121 120
f 113 114 122
f 115 123 122
f 116 124 123
f 109 117 124
f 118 126 125
f 119 127 126
f 119 120 128
f 120 121 129
f 122 130 129
f 123 131 130
f 123 124 132
f 124 117 125
f 125 126 134
f 126 127 135
f 127 128 136
f 128 129 137
f 130 138 137
f 130 131 139
f 132 140 139
f 125 133 140
f 133 134 142
f 135 143 142
f 135 136 144
f 136 137 145
f 138 146 145
f 139 147 146
f 140 148 147
f 133 141 148
f 141 142 150
f 142 143 151
f 144 152 151
f 145 153 152
f 146 154 153
f 146 147 155
f 148 156 155
f 141 149 156
f 149 150 158
f 151 159 158
f 151 152 160
f 153 161 160
f 153 154 162
f 155 163 162
f 155 156 164
f 149 157 164
f 157 158 166
f 159 167 166
f 160 168 167
f 160 161 169
f 162 170 169
f 163 171 170
f 163 164 172
f 157 165 172
f 165 166 174
f 167 175 174
f 167 168 176
f 168 169 177
f 169 170 178
f 171 179 178
f 172 180 179
f 165 173 180
f 174 182 181
f 174 175 183
f 175 176 184
f 176 177 185
f 177 178 186
f 179 187 186
f 180 188 187
f 173 181 188
f 182 190 189
f 183 191 190
f 184 192 191
f 185 193 192
f 186 194 193
f 186 187 195
f 188 196 195
f 181 189 196
f 189 190 198
f 190 191 199
f 191 192 200
f 193 201 200
f 194 202 201
f 195 203 202
f 196 204 203
f 196 189 197
f 197 198 206
f 198 199 207
f 199 200 208
f 200 201 209
f 201 202 210
f 203 211 210
f 204 212 211
f 204 197 205
f 206 214 213
f 207 215 214
f 208 216 215
f 209 217 216
f 210 218 217
f 210 211 219
f 211 212 220
f 205 213 220
f 214 222 221
f 215 223 222
f 216 224 223
f 216 217 225
f 217 218 226
f 218 219 227
f 219 220 228
f 213 221 228
f 221 222 230
f 222 223 231
f 223 224 232
f 224 225 233
f 225 226 234
f 227 235 234
f 227 228 236
f 228 221 229
f 229 230 238
f 231 239 238
f 232 240 239
f 232 233 241
f 233 234 242
f 234 235 243
f 235 236 244
f 236 229 237
f 238 246 245
f 238 239 247
f 240 248 247
f 240 241 249
f 241 242 250
f 242 243 251
f 243 244 252
f 244 237 245
f 246 254 253
f 246 247 255
f 247 248 256
f 249 257 256
f 249 250 258
f 250 251 259
f 252 260 259
f 252 245 253
f 254 262 261
f 254 255 263
f 256 264 263
f 256 257 265
f 258 266 265
f 258 259 267
f 260 268 267
f 260 253 261
f 262 270 269
f 263 271 270
f 263 264 272
f 264 265 273
f 266 274 273
f 267 275 274
f 267 268 276
f 268 261 269
f 270 278 277
f 270 271 279
f 272 280 279
f 273 281 280
f 274 282 281
f 274 275 283
f 275 276 284
f 276 269 277
f 277 278 286
f 279 287 286
f 280 288 287
f 281 289 288
f 281 282 290
f 282 283 291
f 283 284 292
f 284 277 285
f 285 286 294
f 286 287 295
f 288 296 295
f 289 297 296
f 289 290 298
f 290 291 299
f 292 300 299
f 285 293 300
f 294 302 301
f 295 303 302
f 296 304 303
f 296 297 305
f 298 306 305
f 298 299 307
f 299 300 308
f 300 293 301
f 301 302 310
f 302 303 311
f 304 312 311
f 305 313 312
f 305 306 314
f 307 315 314
f 308 316 315
f 301 309 316
f 310 318 317
f 311 319 318
f 311 312 320
f 312 313 321
f 314 322 321
f 315 323 322
f 315 316 324
f 316 309 317
f 317 318 326
f 318 319 327
f 319 320 328
f 320 321 329
f 322 330 329
f 322 323 331
f 324 332 331
f 317 325 332
f 325 326 334
f 327 335 334
f 327 328 336
f 328 329 337
f 330 338 337
f 331 339 338
f 332 340 339
f 325 333 340
f 333 334 342
f 334 335 343
f 336 344 343
f 337 345 344
f 338 346 345
f 338 339 347
f 340 348 347
f 333 341 348
f 341 342 350
f 343 351 350
f 343 344 352
f 345 353 352
f 345 346 354
f 347 355 354
f 347 348 356
f 341 349 356
f 349 350 358
f 351 359 358
f 352 360 359
f 352 353 361
f 354 362 361
f 355 363 362
f 355 356 364
f 349 357 364
f 357 358 366
f 359 367 366
f 359 360 368
f 360 361 369
f 361 362 370
f 363 371 370
f 364 372 371
f 357 365 372
f 366 374 373
f 366 367 375
f 367 368 376
f 368 369 377
f 369 370 378
f 371 379 378
f 372 380 379
f 365 373 380
f 374 382 381
f 375 383 382
f 376 384 383
f 377 385 384
f 378 386 385
f 378 379 387
f 380 388 387
f 373 381 388
f 381 382 390
f 382 383 391
f 383 384 392
f 385 393 392
f 386 394 393
f 387 395 394
f 388 396 395
f 388 381 389
f 390 398 397
f 391 399 398
f 392 400 399
f 393 401 400
f 393 394 402
f 394 395 403
f 395 396 404
f 396 389 397
f 405 406 414
f 406 407 415
f 407 408 416
f 408 409 417
f 410 418 417
f 411 419 418
f 412 420 419
f 405 413 420
f 413 414 422
f 414 415 423
f 416 424 423
f 416 417 425
f 418 426 425
f 418 419 427
f 420 428 427
f 413 421 428
f 422 430 429
f 422 423 431
f 423 424 432
f 425 433 432
f 425 426 434
f 427 435 434
f 428 436 435
f 421 429 436
f 429 430 438
f 431 439 438
f 431 432 440
f 433 441 440
f 434 442 441
f 435 443 442
f 435 436 444
f 429 437 444
f 438 446 445
f 439 447 446
f 440 448 447
f 440 441 449
f 442 450 449
f 442 443 451
f 443 444 452
f 444 437 445
f 445 446 454
f 446 447 455
f 447 448 456
f 448 449 457
f 449 450 458
f 451 459 458
f 452 460 459
f 445 453 460
f 453 454 462
f 455 463 462
f 456 464 463
f 456 457 465
f 457 458 466
f 459 467 466
f 460 468 467
f 453 461 468
f 462 470 469
f 463 471 470
f 463 464 472
f 464 465 473
f 466 474 473
f 466 467 475
f 467 468 476
f 468 461 469
f 469 470 478
f 470 471 479
f 472 480 479
f 472 473 481
f 473 474 482
f 474 475 483
f 476 484 483
f 469 477 484
f 477 478 486
f 479 487 486
f 479 480 488
f 480 481 489
f 482 490 489
f 482 483 491
f 483 484 492
f 477 485 492
f 486 494 493
f 486 487 495
f 487 488 496
f 489 497 496
f 489 490 498
f 491 499 498
f 491 492 500
f 492 485 493
f 494 502 501
f 494 495 503
f 495 496 504
f 496 497 505
f 497 498 506
f 499 507 506
f 500 508 507
f 500 493 501
f 501 502 510
f 503 511 510
f 504 512 511
f 505 513 512
f 506 514 513
f 506 507 515
f 507 508 516
f 501 509 516
f 509 510 518
f 511 519 518
f 511 512 520
f 512 513 521
f 514 522 521
f 515 523 522
f 516 524 523
f 509 517 524
f 518 526 525
f 518 519 527
f 520 528 527
f 520 521 529
f 522 530 529
f 523 531 530
f 523 524 532
f 524 517 525
f 526 534 533
f 527 535 534
f 527 528 536
f 529 537 536
f 530 538 537
f 531 539 538
f 531 532 540
f 532 525 533
f 534 542 541
f 534 535 543
f 536 544 543
f 537 545 544
f 537 538 546
f 539 547 546
f 540 548 547
f 533 541 548
f 542 550 549
f 542 543 551
f 543 544 552
f 545 553 552
f 546 554 553
f 546 547 555
f 548 556 555
f 548 541 549
f 550 558 557
f 551 559 558
f 552 560 559
f 553 561 560
f 554 562 561
f 554 555 563
f 556 564 563
f 556 549 557
f 557 558 566
f 559 567 566
f 559 560 568
f 560 561 569
f 561 562 570
f 563 571 570
f 564 572 571
f 557 565 572
f 566 574 573
f 566 567 575
f 568 576 575
f 568 569 577
f 569 570 578
f 570 571 579
f 572 580 579
f 572 565 573
f 573 574 582
f 575 583 582
f 576 584 583
f 576 577 585
f 578 586 585
f 578 579 587
f 579 580 588
f 580 573 581
f 582 590 589
f 583 591 590
f 583 584 592
f 585 593 592
f 585 586 594
f 587 595 594
f 588 596 595
f 588 581 589
f 589 590 598
f 591 599 598
f 592 600 599
f 592 593 601
f 593 594 602
f 595 603 602
f 595 596 604
f 596 589 597
f 598 606 605
f 598 599 607
f 599 600 608
f 601 609 608
f 602 610 609
f 602 603 611
f 604 612 611
f 597 605 612
f 606 614 613
f 606 607 615
f 608 616 615
f 608 609 617
f 610 618 617
f 610 611 619
f 612 620 619
f 605 613 620
f 614 622 621
f 614 615 623
f 615 616 624
f 617 625 624
f 617 618 626
f 619 627 626
f 620 628 627
f 620 613 621
f 621 622 630
f 623 631 630
f 623 624 632
f 625 633 632
f 626 634 633
f 627 635 634
f 627 628 636
f 621 629 636
f 630 638 637
f 631 639 638
f 632 640 639
f 632 633 641
f 634 642 641
f 634 635 643
f 635 636 644
f 636 629 637
f 637 638 646
f 638 639 647
f 639 640 648
f 640 641 649
f 641 642 650
f 643 651 650
f 644 652 651
f 637 645 652
f 645 646 654
f 647 655 654
f 648 656 655
f 648 649 657
f 649 650 658
f 651 659 658
f 652 660 659
f 645 653 660
f 654 662 661
f 655 663 662
f 655 656 664
f 656 657 665
f 658 666 665
f 658 659 667
f 659 660 668
f 660 653 661
f 661 662 670
f 662 663 671
f 664 672 671
f 664 665 673
f 665 666 674
f 666 667 675
f 668 676 675
f 661 669 676
f 669 670 678
f 671 679 678
f 671 672 680
f 672 673 681
f 674 682 681
f 674 675 683
f 675 676 684
f 669 677 684
f 678 686 685
f 678 679 687
f 679 680 688
f 681 689 688
f 681 682 690
f 683 691 690
f 683 684 692
f 684 677 685
f 686 694 693
f 686 687 695
f 687 688 696
f 688 689 697
f 689 690 698
f 691 699 698
f 692 700 699
f 692 685 693
f 693 694 702
f 695 703 702
f 696 704 703
f 697 705 704
f 698 706 705
f 698 699 707
f 699 700 708
f 693 701 708
f 701 702 710
f 703 711 710
f 703 704 712
f 704 705 713
f 706 714 713
f 707 715 714
f 708 716 715
f 701 709 716
f 710 718 717
f 710 711 719
f 712 720 719
f 712 713 721
f 714 722 721
f 715 723 722
f 715 716 724
f 716 709 717
f 718 726 725
f 719 727 726
f 719 720 728
f 721 729 728
f 722 730 729
f 723 731 730
f 723 724 732
f 724 717 725
f 726 734 733
f 726 727 735
f 728 736 735
f 729 737 736
f 729 730 738
f 731 739 738
f 732 740 739
f 725 733 740
f 734 742 741
f 734 735 743
f 735 736 744
f 737 745 744
f 738 746 745
f 738 739 747
f 740 748 747
f 740 733 741
f 742 750 749
f 743 751 750
f 744 752 751
f 745 753 752
f 746 754 753
f 746 747 755
f 748 756 755
f 748 741 749
f 749 750 758
f 751 759 758
f 751 752 760
f 752 753 761
f 753 754 762
f 755 763 762
f 756 764 763
f 749 757 764
f 758 766 765
f 758 759 767
f 760 768 767
f 760 761 769
f 761 762 770
f 762 763 771
f 764 772 771
f 764 757 765
f 765 766 774
f 767 775 774
f 768 776 775
f 768 769 777
f 770 778 777
f 770 771 779
f 771 772 780
f 772 765 773
f 774 782 781
f 775 783 782
f 775 776 784
f 777 785 784
f 777 778 786
f 779 787 786
f 780 788 787
f 780 773 781
f 782 790 789
f 783 791 790
f 784 792 791
f 785 793 792
f 785 786 794
f 786 787 795
f 787 788 796
f 788 781 789
