# kitsune Mask_Eye.obj: Roblox cue frame, recentred on its bounding box
v 0.08244 0.00478 -0.00239
v -0.06784 0.01453 -0.00849
v -0.06365 0.01526 -0.00907
v 0.07654 -0.00748 -0.02861
v -0.05992 0.01449 -0.00876
v 0.06988 -0.01272 -0.03363
v 0.06664 -0.01357 -0.03124
v 0.06391 -0.01310 -0.02580
v -0.05701 0.01231 -0.00759
v 0.06091 -0.00847 -0.00812
v 0.06095 -0.00478 0.00239
v -0.05520 0.00892 -0.00568
v 0.08213 -0.00049 -0.01138
v 0.08079 -0.00571 -0.01926
v 0.07857 -0.01037 -0.02525
v 0.07567 -0.01401 -0.02878
v 0.07238 -0.01629 -0.02948
v 0.06903 -0.01697 -0.02730
v 0.06593 -0.01598 -0.02245
v 0.06340 -0.01344 -0.01540
v 0.06169 -0.00958 -0.00684
v -0.05468 0.00465 -0.00322
v -0.05549 -0.00006 -0.00044
v 0.08287 -0.00083 -0.00871
v 0.08220 -0.00635 -0.01418
v 0.08051 -0.01125 -0.01827
v 0.07795 -0.01505 -0.02056
v 0.07478 -0.01738 -0.02085
v 0.07131 -0.01800 -0.01909
v 0.06788 -0.01686 -0.01546
v 0.06482 -0.01408 -0.01032
v 0.06243 -0.00991 -0.00417
v -0.05756 -0.00478 0.00239
v 0.08347 -0.00035 -0.00506
v 0.08334 -0.00543 -0.00724
v 0.08207 -0.00999 -0.00871
v 0.07979 -0.01357 -0.00933
v 0.07672 -0.01582 -0.00904
v 0.07315 -0.01652 -0.00786
v 0.06944 -0.01560 -0.00591
v 0.06595 -0.01316 -0.00338
v 0.06303 -0.00943 -0.00052
v -0.05471 -0.00013 -0.00408
v -0.05319 0.00454 -0.01015
v 0.08383 0.00088 -0.00099
v 0.08403 -0.00310 0.00051
v 0.08302 -0.00678 0.00195
v 0.08090 -0.00980 0.00321
v 0.07788 -0.01185 0.00415
v 0.07426 -0.01275 0.00468
v 0.07039 -0.01240 0.00476
v 0.06664 -0.01083 0.00437
v 0.06339 -0.00821 0.00355
v -0.05316 0.00875 -0.01523
v -0.05460 0.01211 -0.01881
v 0.08390 0.00266 0.00289
v 0.08416 0.00029 0.00788
v 0.08320 -0.00211 0.01211
v 0.08112 -0.00431 0.01515
v 0.07811 -0.00608 0.01670
v 0.07447 -0.00726 0.01662
v 0.07057 -0.00773 0.01492
v 0.06677 -0.00744 0.01175
v 0.06346 -0.00642 0.00743
v -0.05739 0.01429 -0.02056
v -0.06124 0.01507 -0.02029
v 0.08367 0.00473 0.00598
v 0.08372 0.00422 0.01377
v 0.08259 0.00330 0.02021
v 0.08040 0.00206 0.02467
v 0.07736 0.00061 0.02671
v 0.07376 -0.00089 0.02614
v 0.06996 -0.00231 0.02301
v 0.06633 -0.00350 0.01763
v 0.06322 -0.00435 0.01053
v -0.06579 0.01437 -0.01803
v -0.07058 0.01226 -0.01401
v 0.08317 0.00677 0.00782
v 0.08277 0.00811 0.01726
v 0.08129 0.00865 0.02502
v 0.07887 0.00834 0.03032
v 0.07574 0.00722 0.03266
v 0.07223 0.00539 0.03180
v 0.06865 0.00303 0.02782
v 0.06538 0.00038 0.02113
v 0.06273 -0.00231 0.01236
v -0.07515 0.00896 -0.00862
v -0.07905 0.00478 -0.00239
v 0.08248 0.00847 0.00812
v 0.08146 0.01134 0.01783
v 0.07948 0.01310 0.02580
v 0.07675 0.01357 0.03124
v 0.07351 0.01272 0.03363
v 0.07010 0.01062 0.03272
v 0.06685 0.00748 0.02861
v 0.06407 0.00361 0.02170
v 0.06204 -0.00061 0.01266
v -0.07488 0.00822 -0.01130
v 0.08170 0.00958 0.00684
v 0.07998 0.01344 0.01540
v 0.07745 0.01598 0.02245
v 0.07436 0.01697 0.02730
v 0.07101 0.01629 0.02948
v 0.06772 0.01401 0.02878
v 0.06482 0.01037 0.02525
v 0.06260 0.00571 0.01926
v 0.06126 0.00049 0.01138
v -0.07007 0.01087 -0.01911
v -0.06508 0.01244 -0.02505
v 0.08096 0.00991 0.00417
v 0.07857 0.01408 0.01032
v 0.07551 0.01686 0.01546
v 0.07208 0.01800 0.01909
v 0.06860 0.01738 0.02085
v 0.06543 0.01505 0.02056
v 0.06288 0.01125 0.01827
v 0.06118 0.00635 0.01418
v 0.06052 0.00083 0.00871
v -0.06041 0.01281 -0.02853
v -0.05652 0.01191 -0.02922
v 0.08036 0.00943 0.00052
v 0.07744 0.01316 0.00338
v 0.07395 0.01560 0.00591
v 0.07024 0.01652 0.00786
v 0.06667 0.01582 0.00904
v 0.06360 0.01357 0.00933
v 0.06132 0.00999 0.00871
v 0.06005 0.00543 0.00724
v 0.05992 0.00035 0.00506
v -0.05377 0.00985 -0.02706
v -0.05245 0.00683 -0.02224
v 0.08000 0.00821 -0.00355
v 0.07675 0.01083 -0.00437
v 0.07300 0.01240 -0.00476
v 0.06913 0.01275 -0.00468
v 0.06551 0.01185 -0.00415
v 0.06249 0.00980 -0.00321
v 0.06037 0.00678 -0.00195
v 0.05936 0.00310 -0.00051
v 0.05956 -0.00088 0.00099
v -0.05268 0.00314 -0.01525
v -0.05444 -0.00086 -0.00676
v 0.07993 0.00642 -0.00743
v 0.07662 0.00744 -0.01175
v 0.07282 0.00773 -0.01492
v 0.06891 0.00726 -0.01662
v 0.06528 0.00608 -0.01670
v 0.06227 0.00431 -0.01515
v 0.06019 0.00211 -0.01211
v 0.05923 -0.00029 -0.00788
v 0.05949 -0.00266 -0.00289
v 0.08016 0.00435 -0.01053
v 0.07706 0.00350 -0.01763
v 0.07343 0.00231 -0.02301
v 0.06963 0.00089 -0.02614
v 0.06603 -0.00061 -0.02671
v 0.06299 -0.00206 -0.02467
v 0.06080 -0.00330 -0.02021
v 0.05967 -0.00422 -0.01377
v 0.05972 -0.00473 -0.00598
v -0.05473 -0.00216 -0.00806
v 0.08066 0.00231 -0.01236
v 0.07801 -0.00038 -0.02113
v 0.07473 -0.00303 -0.02782
v 0.07116 -0.00539 -0.03180
v 0.06764 -0.00722 -0.03266
v 0.06452 -0.00834 -0.03032
v 0.06210 -0.00865 -0.02502
v 0.06062 -0.00811 -0.01726
v 0.06022 -0.00677 -0.00782
v -0.05320 0.00344 -0.02565
v -0.05465 0.00587 -0.03107
v 0.08135 0.00061 -0.01266
v 0.07932 -0.00361 -0.02170
v -0.05744 0.00772 -0.03344
v 0.07328 -0.01062 -0.03272
v -0.06129 0.00882 -0.03254
v -0.06583 0.00905 -0.02846
v -0.07061 0.00840 -0.02159
v 0.06193 -0.01134 -0.01783
v -0.07517 0.00693 -0.01261
v -0.07207 0.01238 -0.00708
v -0.07593 0.00902 -0.00498
v -0.07092 0.01291 0.00213
v -0.06727 0.01335 0.00342
v -0.06373 0.01249 0.00437
v -0.06063 0.01040 0.00489
v -0.05828 0.00730 0.00494
v -0.05692 0.00348 0.00450
v -0.05667 -0.00068 0.00362
v -0.07431 0.01120 0.00064
v -0.07711 0.00840 -0.00092
v -0.07456 0.00975 0.01222
v -0.07156 0.00964 0.01527
v -0.06823 0.00858 0.01684
v -0.06492 0.00669 0.01675
v -0.06193 0.00414 0.01502
v -0.05957 0.00118 0.01183
v -0.05806 -0.00189 0.00747
v -0.07696 0.00891 0.00796
v -0.07850 0.00719 0.00293
v -0.07822 0.00553 0.02023
v -0.07585 0.00468 0.02469
v -0.07275 0.00337 0.02674
v -0.06921 0.00173 0.02617
v -0.06558 -0.00008 0.02303
v -0.06222 -0.00188 0.01765
v -0.05946 -0.00350 0.01053
v -0.07961 0.00584 0.01378
v -0.07990 0.00558 0.00599
v -0.08132 0.00090 0.02495
v -0.07950 -0.00076 0.03024
v -0.07659 -0.00236 0.03257
v -0.07286 -0.00372 0.03171
v -0.06869 -0.00471 0.02775
v -0.06448 -0.00525 0.02108
v -0.06064 -0.00527 0.01234
v -0.08187 0.00248 0.01721
v -0.08109 0.00381 0.00779
v -0.08341 -0.00344 0.02565
v -0.08196 -0.00587 0.03107
v -0.07917 -0.00772 0.03344
v -0.07532 -0.00882 0.03254
v -0.07078 -0.00905 0.02846
v -0.06600 -0.00840 0.02159
v -0.06144 -0.00693 0.01261
v -0.08338 -0.00067 0.01772
v -0.08188 0.00216 0.00806
v -0.08416 -0.00683 0.02224
v -0.08284 -0.00985 0.02706
v -0.08009 -0.01191 0.02922
v -0.07620 -0.01281 0.02853
v -0.07153 -0.01244 0.02505
v -0.06654 -0.01087 0.01911
v -0.06173 -0.00822 0.01130
v -0.08393 -0.00314 0.01525
v -0.08217 0.00086 0.00676
v -0.08346 -0.00875 0.01523
v -0.08201 -0.01211 0.01881
v -0.07922 -0.01429 0.02056
v -0.07537 -0.01507 0.02029
v -0.07082 -0.01437 0.01803
v -0.06603 -0.01226 0.01401
v -0.06146 -0.00896 0.00862
v -0.08342 -0.00454 0.01015
v -0.08190 0.00013 0.00408
v -0.08141 -0.00892 0.00568
v -0.07960 -0.01231 0.00759
v -0.07669 -0.01449 0.00876
v -0.07296 -0.01526 0.00907
v -0.06877 -0.01453 0.00849
v -0.06454 -0.01238 0.00708
v -0.06068 -0.00902 0.00498
v -0.08193 -0.00465 0.00322
v -0.08112 0.00006 0.00044
v -0.07833 -0.00730 -0.00494
v -0.07598 -0.01040 -0.00489
v -0.07288 -0.01249 -0.00437
v -0.06934 -0.01335 -0.00342
v -0.06569 -0.01291 -0.00213
v -0.06230 -0.01120 -0.00064
v -0.05950 -0.00840 0.00092
v -0.07969 -0.00348 -0.00450
v -0.07994 0.00068 -0.00362
v -0.07468 -0.00414 -0.01502
v -0.07170 -0.00669 -0.01675
v -0.06838 -0.00858 -0.01684
v -0.06505 -0.00964 -0.01527
v -0.06205 -0.00975 -0.01222
v -0.05965 -0.00891 -0.00796
v -0.05811 -0.00719 -0.00293
v -0.07704 -0.00118 -0.01183
v -0.07855 0.00189 -0.00747
v -0.07103 0.00008 -0.02303
v -0.06740 -0.00173 -0.02617
v -0.06386 -0.00337 -0.02674
v -0.06076 -0.00468 -0.02469
v -0.05839 -0.00553 -0.02023
v -0.05700 -0.00584 -0.01378
v -0.05671 -0.00558 -0.00599
v -0.07439 0.00188 -0.01765
v -0.07715 0.00350 -0.01053
v -0.06792 0.00471 -0.02775
v -0.06375 0.00372 -0.03171
v -0.06002 0.00236 -0.03257
v -0.05711 0.00076 -0.03024
v -0.05529 -0.00090 -0.02495
v -0.05474 -0.00248 -0.01721
v -0.05552 -0.00381 -0.00779
v -0.07213 0.00525 -0.02108
v -0.07597 0.00527 -0.01234
v -0.05323 0.00067 -0.01772
f 180 19 20
f 176 17 6
f 173 14 174
f 10 20 21
f 7 17 18
f 174 15 4
f 11 10 21
f 8 18 19
f 4 16 176
f 173 1 13
f 16 28 17
f 13 25 14
f 21 31 32
f 18 28 29
f 14 26 15
f 11 21 32
f 19 29 30
f 15 27 16
f 13 1 24
f 20 30 31
f 24 1 34
f 31 40 41
f 27 38 28
f 24 35 25
f 32 41 42
f 29 38 39
f 25 36 26
f 11 32 42
f 30 39 40
f 26 37 27
f 40 50 51
f 36 48 37
f 34 1 45
f 41 51 52
f 37 49 38
f 34 46 35
f 42 52 53
f 39 49 50
f 35 47 36
f 11 42 53
f 47 57 58
f 11 53 64
f 50 62 51
f 48 58 59
f 45 1 56
f 51 63 52
f 49 59 60
f 46 56 57
f 52 64 53
f 49 61 50
f 60 72 61
f 58 68 69
f 11 64 75
f 61 73 62
f 59 69 70
f 56 1 67
f 62 74 63
f 60 70 71
f 57 67 68
f 63 75 64
f 68 78 79
f 74 86 75
f 71 83 72
f 69 79 80
f 11 75 86
f 72 84 73
f 70 80 81
f 67 1 78
f 73 85 74
f 71 81 82
f 84 96 85
f 82 92 93
f 79 89 90
f 85 97 86
f 82 94 83
f 80 90 91
f 11 86 97
f 83 95 84
f 81 91 92
f 78 1 89
f 91 102 92
f 89 1 99
f 96 105 106
f 92 103 93
f 89 100 90
f 97 106 107
f 94 103 104
f 90 101 91
f 11 97 107
f 95 104 105
f 105 115 116
f 101 113 102
f 99 1 110
f 106 116 117
f 102 114 103
f 99 111 100
f 107 117 118
f 104 114 115
f 100 112 101
f 11 107 118
f 111 123 112
f 11 118 129
f 116 126 127
f 112 124 113
f 110 1 121
f 117 127 128
f 113 125 114
f 110 122 111
f 118 128 129
f 115 125 126
f 129 139 140
f 126 136 137
f 122 134 123
f 11 129 140
f 127 137 138
f 123 135 124
f 121 1 132
f 128 138 139
f 124 136 125
f 121 133 122
f 136 146 147
f 133 143 144
f 139 151 140
f 136 148 137
f 134 144 145
f 11 140 151
f 137 149 138
f 135 145 146
f 132 1 143
f 138 150 139
f 143 1 152
f 149 159 150
f 147 155 156
f 144 152 153
f 150 160 151
f 147 157 148
f 145 153 154
f 11 151 160
f 148 158 149
f 146 154 155
f 155 164 165
f 152 1 162
f 158 169 159
f 156 165 166
f 153 162 163
f 159 170 160
f 156 167 157
f 154 163 164
f 11 160 170
f 157 168 158
f 11 170 10
f 167 8 168
f 165 4 176
f 162 1 173
f 168 180 169
f 166 176 6
f 163 173 174
f 169 10 170
f 166 7 167
f 164 174 4
f 177 120 175
f 181 88 98
f 292 131 141
f 178 119 177
f 171 130 131
f 181 108 179
f 33 161 142
f 172 120 130
f 161 141 142
f 179 109 178
f 98 77 108
f 142 44 43
f 130 65 55
f 108 76 109
f 109 66 119
f 33 142 43
f 98 88 87
f 131 55 54
f 119 65 120
f 141 54 44
f 44 12 22
f 33 43 23
f 77 2 76
f 76 3 66
f 55 5 9
f 43 22 23
f 66 5 65
f 87 88 183
f 54 9 12
f 87 182 77
f 3 186 5
f 2 185 3
f 183 191 182
f 33 23 190
f 22 188 189
f 182 184 2
f 12 187 188
f 183 88 192
f 9 186 187
f 23 189 190
f 189 199 190
f 184 200 193
f 33 190 199
f 188 198 189
f 191 201 200
f 192 88 201
f 186 196 187
f 185 193 194
f 186 194 195
f 187 197 188
f 33 199 208
f 193 209 202
f 195 205 196
f 198 208 199
f 200 210 209
f 195 203 204
f 197 207 198
f 201 88 210
f 194 202 203
f 196 206 197
f 205 215 206
f 33 208 217
f 202 218 211
f 204 214 205
f 207 217 208
f 209 219 218
f 204 212 213
f 206 216 207
f 210 88 219
f 203 211 212
f 219 88 228
f 212 220 221
f 214 224 215
f 33 217 226
f 211 227 220
f 213 223 214
f 216 226 217
f 218 228 227
f 213 221 222
f 215 225 216
f 221 231 222
f 225 233 234
f 228 88 237
f 220 230 221
f 224 232 233
f 33 226 235
f 227 229 220
f 223 231 232
f 226 234 235
f 228 236 227
f 235 243 244
f 237 245 236
f 230 240 231
f 234 242 243
f 237 88 246
f 229 239 230
f 233 241 242
f 33 235 244
f 236 238 229
f 232 240 241
f 241 249 250
f 244 252 253
f 246 254 245
f 239 249 240
f 243 251 252
f 246 88 255
f 238 248 239
f 242 250 251
f 33 244 253
f 245 247 238
f 33 253 262
f 254 256 247
f 250 258 259
f 253 261 262
f 255 263 254
f 248 258 249
f 252 260 261
f 255 88 264
f 247 257 248
f 251 259 260
f 257 265 266
f 259 269 260
f 33 262 271
f 256 272 265
f 258 268 259
f 261 271 262
f 263 273 272
f 258 266 267
f 260 270 261
f 264 88 273
f 269 279 270
f 273 88 282
f 266 274 275
f 268 278 269
f 33 271 280
f 265 281 274
f 267 277 268
f 270 280 271
f 272 282 281
f 267 275 276
f 276 284 285
f 278 288 279
f 282 88 291
f 275 283 284
f 277 287 278
f 33 280 289
f 274 290 283
f 276 286 277
f 279 289 280
f 281 291 290
f 288 161 289
f 290 181 179
f 285 177 175
f 287 292 288
f 291 88 181
f 284 178 177
f 286 171 287
f 33 289 161
f 283 179 178
f 285 172 286
f 180 8 19
f 176 16 17
f 173 13 14
f 10 180 20
f 7 6 17
f 174 14 15
f 8 7 18
f 4 15 16
f 16 27 28
f 13 24 25
f 21 20 31
f 18 17 28
f 14 25 26
f 19 18 29
f 15 26 27
f 20 19 30
f 31 30 40
f 27 37 38
f 24 34 35
f 32 31 41
f 29 28 38
f 25 35 36
f 30 29 39
f 26 36 37
f 40 39 50
f 36 47 48
f 41 40 51
f 37 48 49
f 34 45 46
f 42 41 52
f 39 38 49
f 35 46 47
f 47 46 57
f 50 61 62
f 48 47 58
f 51 62 63
f 49 48 59
f 46 45 56
f 52 63 64
f 49 60 61
f 60 71 72
f 58 57 68
f 61 72 73
f 59 58 69
f 62 73 74
f 60 59 70
f 57 56 67
f 63 74 75
f 68 67 78
f 74 85 86
f 71 82 83
f 69 68 79
f 72 83 84
f 70 69 80
f 73 84 85
f 71 70 81
f 84 95 96
f 82 81 92
f 79 78 89
f 85 96 97
f 82 93 94
f 80 79 90
f 83 94 95
f 81 80 91
f 91 101 102
f 96 95 105
f 92 102 103
f 89 99 100
f 97 96 106
f 94 93 103
f 90 100 101
f 95 94 104
f 105 104 115
f 101 112 113
f 106 105 116
f 102 113 114
f 99 110 111
f 107 106 117
f 104 103 114
f 100 111 112
f 111 122 123
f 116 115 126
f 112 123 124
f 117 116 127
f 113 124 125
f 110 121 122
f 118 117 128
f 115 114 125
f 129 128 139
f 126 125 136
f 122 133 134
f 127 126 137
f 123 134 135
f 128 127 138
f 124 135 136
f 121 132 133
f 136 135 146
f 133 132 143
f 139 150 151
f 136 147 148
f 134 133 144
f 137 148 149
f 135 134 145
f 138 149 150
f 149 158 159
f 147 146 155
f 144 143 152
f 150 159 160
f 147 156 157
f 145 144 153
f 148 157 158
f 146 145 154
f 155 154 164
f 158 168 169
f 156 155 165
f 153 152 162
f 159 169 170
f 156 166 167
f 154 153 163
f 157 167 168
f 167 7 8
f 165 164 4
f 168 8 180
f 166 165 176
f 163 162 173
f 169 180 10
f 166 6 7
f 164 163 174
f 177 119 120
f 292 171 131
f 178 109 119
f 171 172 130
f 181 98 108
f 172 175 120
f 161 292 141
f 179 108 109
f 98 87 77
f 142 141 44
f 130 120 65
f 108 77 76
f 109 76 66
f 131 130 55
f 119 66 65
f 141 131 54
f 44 54 12
f 77 182 2
f 76 2 3
f 55 65 5
f 43 44 22
f 66 3 5
f 54 55 9
f 87 183 182
f 3 185 186
f 2 184 185
f 183 192 191
f 22 12 188
f 182 191 184
f 12 9 187
f 9 5 186
f 23 22 189
f 189 198 199
f 184 191 200
f 188 197 198
f 191 192 201
f 186 195 196
f 185 184 193
f 186 185 194
f 187 196 197
f 193 200 209
f 195 204 205
f 198 207 208
f 200 201 210
f 195 194 203
f 197 206 207
f 194 193 202
f 196 205 206
f 205 214 215
f 202 209 218
f 204 213 214
f 207 216 217
f 209 210 219
f 204 203 212
f 206 215 216
f 203 202 211
f 212 211 220
f 214 223 224
f 211 218 227
f 213 222 223
f 216 225 226
f 218 219 228
f 213 212 221
f 215 224 225
f 221 230 231
f 225 224 233
f 220 229 230
f 224 223 232
f 227 236 229
f 223 222 231
f 226 225 234
f 228 237 236
f 235 234 243
f 237 246 245
f 230 239 240
f 234 233 242
f 229 238 239
f 233 232 241
f 236 245 238
f 232 231 240
f 241 240 249
f 244 243 252
f 246 255 254
f 239 248 249
f 243 242 251
f 238 247 248
f 242 241 250
f 245 254 247
f 254 263 256
f 250 249 258
f 253 252 261
f 255 264 263
f 248 257 258
f 252 251 260
f 247 256 257
f 251 250 259
f 257 256 265
f 259 268 269
f 256 263 272
f 258 267 268
f 261 270 271
f 263 264 273
f 258 257 266
f 260 269 270
f 269 278 279
f 266 265 274
f 268 277 278
f 265 272 281
f 267 276 277
f 270 279 280
f 272 273 282
f 267 266 275
f 276 275 284
f 278 287 288
f 275 274 283
f 277 286 287
f 274 281 290
f 276 285 286
f 279 288 289
f 281 282 291
f 288 292 161
f 290 291 181
f 285 284 177
f 287 171 292
f 284 283 178
f 286 172 171
f 283 290 179
f 285 175 172
