# kitsune Orb1_OrbFlame.obj: Roblox cue frame, recentred on its bounding box
v -0.07400 0.20992 0.00000
v -0.05233 0.20993 -0.05233
v -0.00000 0.20997 -0.07400
v 0.05233 0.21001 -0.05233
v 0.07400 0.21003 0.00000
v 0.05233 0.21001 0.05233
v -0.00000 0.20997 0.07400
v -0.05233 0.20993 0.05233
v -0.06603 0.15742 0.00000
v -0.04668 0.15744 -0.04672
v 0.00004 0.15747 -0.06607
v 0.04676 0.15751 -0.04672
v 0.06611 0.15752 0.00000
v 0.04676 0.15751 0.04672
v 0.00004 0.15747 0.06607
v -0.04668 0.15744 0.04672
v -0.05795 0.10493 0.00000
v -0.04096 0.10494 -0.04104
v 0.00008 0.10497 -0.05803
v 0.04111 0.10500 -0.04104
v 0.05811 0.10502 0.00000
v 0.04111 0.10500 0.04103
v 0.00008 0.10497 0.05803
v -0.04096 0.10494 0.04103
v -0.04974 0.05244 0.00000
v -0.03513 0.05245 -0.03525
v 0.00012 0.05247 -0.04986
v 0.03537 0.05250 -0.03525
v 0.04997 0.05251 0.00000
v 0.03537 0.05250 0.03525
v 0.00012 0.05247 0.04986
v -0.03513 0.05245 0.03525
v -0.04135 -0.00006 0.00000
v -0.02920 -0.00005 -0.02935
v 0.00016 -0.00003 -0.04151
v 0.02951 -0.00000 -0.02935
v 0.04167 0.00000 0.00000
v 0.02951 -0.00000 0.02935
v 0.00016 -0.00003 0.04151
v -0.02920 -0.00005 0.02935
v -0.03276 -0.05255 0.00000
v -0.02310 -0.05254 -0.02330
v 0.00020 -0.05253 -0.03296
v 0.02350 -0.05251 -0.02330
v 0.03315 -0.05250 0.00000
v 0.02350 -0.05251 0.02330
v 0.00020 -0.05253 0.03296
v -0.02310 -0.05254 0.02330
v -0.02386 -0.10504 0.00000
v -0.01681 -0.10504 -0.01704
v 0.00024 -0.10503 -0.02410
v 0.01728 -0.10501 -0.01704
v 0.02434 -0.10501 0.00000
v 0.01728 -0.10501 0.01704
v 0.00024 -0.10503 0.02410
v -0.01681 -0.10504 0.01704
v -0.01450 -0.15754 0.00000
v -0.01017 -0.15753 -0.01045
v 0.00028 -0.15753 -0.01477
v 0.01072 -0.15752 -0.01045
v 0.01505 -0.15752 0.00000
v 0.01072 -0.15752 0.01045
v 0.00028 -0.15753 0.01477
v -0.01017 -0.15753 0.01045
v -0.00368 -0.21003 0.00000
v -0.00251 -0.21003 -0.00283
v 0.00032 -0.21003 -0.00400
v 0.00315 -0.21002 -0.00283
v 0.00432 -0.21002 0.00000
v 0.00315 -0.21002 0.00283
v 0.00032 -0.21003 0.00400
v -0.00251 -0.21003 0.00283
v 0.00000 0.20997 0.00000
v 0.00032 -0.21003 0.00000
f 2 9 1
f 3 10 2
f 3 12 11
f 4 13 12
f 5 14 13
f 6 15 14
f 8 15 7
f 1 16 8
f 9 18 17
f 10 19 18
f 11 20 19
f 13 20 12
f 14 21 13
f 15 22 14
f 16 23 15
f 9 24 16
f 17 26 25
f 18 27 26
f 19 28 27
f 21 28 20
f 22 29 21
f 22 31 30
f 24 31 23
f 24 25 32
f 26 33 25
f 27 34 26
f 27 36 35
f 28 37 36
f 30 37 29
f 31 38 30
f 31 40 39
f 32 33 40
f 34 41 33
f 34 43 42
f 36 43 35
f 37 44 36
f 37 46 45
f 39 46 38
f 40 47 39
f 40 41 48
f 42 49 41
f 43 50 42
f 43 52 51
f 44 53 52
f 45 54 53
f 46 55 54
f 47 56 55
f 41 56 48
f 49 58 57
f 51 58 50
f 52 59 51
f 53 60 52
f 54 61 53
f 55 62 54
f 55 64 63
f 49 64 56
f 58 65 57
f 59 66 58
f 59 68 67
f 61 68 60
f 62 69 61
f 62 71 70
f 63 72 71
f 64 65 72
f 73 2 1
f 73 3 2
f 73 4 3
f 73 5 4
f 73 6 5
f 73 7 6
f 73 8 7
f 73 1 8
f 65 66 74
f 66 67 74
f 67 68 74
f 68 69 74
f 69 70 74
f 70 71 74
f 71 72 74
f 72 65 74
f 2 10 9
f 3 11 10
f 3 4 12
f 4 5 13
f 5 6 14
f 6 7 15
f 8 16 15
f 1 9 16
f 9 10 18
f 10 11 19
f 11 12 20
f 13 21 20
f 14 22 21
f 15 23 22
f 16 24 23
f 9 17 24
f 17 18 26
f 18 19 27
f 19 20 28
f 21 29 28
f 22 30 29
f 22 23 31
f 24 32 31
f 24 17 25
f 26 34 33
f 27 35 34
f 27 28 36
f 28 29 37
f 30 38 37
f 31 39 38
f 31 32 40
f 32 25 33
f 34 42 41
f 34 35 43
f 36 44 43
f 37 45 44
f 37 38 46
f 39 47 46
f 40 48 47
f 40 33 41
f 42 50 49
f 43 51 50
f 43 44 52
f 44 45 53
f 45 46 54
f 46 47 55
f 47 48 56
f 41 49 56
f 49 50 58
f 51 59 58
f 52 60 59
f 53 61 60
f 54 62 61
f 55 63 62
f 55 56 64
f 49 57 64
f 58 66 65
f 59 67 66
f 59 60 68
f 61 69 68
f 62 70 69
f 62 63 71
f 63 64 72
f 64 57 65
