# kitsune Orb2_OrbFlame.obj: Roblox cue frame, recentred on its bounding box
v -0.02699 -0.11217 -0.14159
v -0.07034 -0.12438 -0.10725
v -0.07635 -0.15384 -0.05925
v -0.04150 -0.18330 -0.02572
v 0.01381 -0.19551 -0.02628
v 0.05716 -0.18330 -0.06062
v 0.06317 -0.15384 -0.10862
v 0.02832 -0.12438 -0.14215
v -0.01494 -0.07325 -0.10754
v -0.05365 -0.08415 -0.07688
v -0.05902 -0.11045 -0.03403
v -0.02790 -0.13676 -0.00408
v 0.02148 -0.14766 -0.00459
v 0.06019 -0.13676 -0.03525
v 0.06556 -0.11045 -0.07810
v 0.03444 -0.08415 -0.10805
v -0.00287 -0.03439 -0.07341
v -0.03687 -0.04396 -0.04648
v -0.04158 -0.06707 -0.00884
v -0.01425 -0.09017 0.01746
v 0.02912 -0.09974 0.01701
v 0.06313 -0.09017 -0.00992
v 0.06784 -0.06707 -0.04756
v 0.04050 -0.04396 -0.07386
v 0.00925 0.00439 -0.03917
v -0.01996 -0.00383 -0.01604
v -0.02401 -0.02368 0.01630
v -0.00053 -0.04353 0.03889
v 0.03673 -0.05175 0.03851
v 0.06594 -0.04353 0.01538
v 0.06999 -0.02368 -0.01696
v 0.04651 -0.00383 -0.03956
v 0.02141 0.04308 -0.00481
v -0.00292 0.03623 0.01446
v -0.00629 0.01971 0.04138
v 0.01327 0.00318 0.06020
v 0.04429 -0.00367 0.05988
v 0.06861 0.00318 0.04062
v 0.07198 0.01971 0.01369
v 0.05243 0.03623 -0.00512
v 0.03362 0.08165 0.02973
v 0.01432 0.07621 0.04502
v 0.01164 0.06309 0.06640
v 0.02716 0.04997 0.08133
v 0.05179 0.04454 0.08108
v 0.07110 0.04997 0.06579
v 0.07378 0.06309 0.04441
v 0.05825 0.07621 0.02948
v 0.04592 0.12005 0.06449
v 0.03180 0.11608 0.07568
v 0.02984 0.10648 0.09131
v 0.04120 0.09688 0.10223
v 0.05921 0.09291 0.10205
v 0.07333 0.09688 0.09087
v 0.07529 0.10648 0.07523
v 0.06394 0.11608 0.06431
v 0.05835 0.15819 0.09963
v 0.04970 0.15575 0.10649
v 0.04850 0.14987 0.11607
v 0.05546 0.14399 0.12276
v 0.06650 0.14155 0.12265
v 0.07515 0.14399 0.11579
v 0.07635 0.14987 0.10621
v 0.06939 0.15575 0.09952
v 0.07118 0.19551 0.13589
v 0.06884 0.19485 0.13775
v 0.06851 0.19325 0.14034
v 0.07040 0.19166 0.14215
v 0.07339 0.19100 0.14212
v 0.07573 0.19166 0.14027
v 0.07606 0.19325 0.13767
v 0.07417 0.19485 0.13586
v -0.00659 -0.15384 -0.08394
v 0.07229 0.19325 0.13901
f 1 10 9
f 2 11 10
f 4 11 3
f 4 13 12
f 6 13 5
f 6 15 14
f 7 16 15
f 1 16 8
f 10 17 9
f 11 18 10
f 11 20 19
f 13 20 12
f 14 21 13
f 14 23 22
f 16 23 15
f 16 17 24
f 18 25 17
f 19 26 18
f 19 28 27
f 20 29 28
f 21 30 29
f 23 30 22
f 23 32 31
f 24 25 32
f 26 33 25
f 27 34 26
f 28 35 27
f 28 37 36
f 29 38 37
f 31 38 30
f 31 40 39
f 25 40 32
f 33 42 41
f 35 42 34
f 36 43 35
f 36 45 44
f 37 46 45
f 39 46 38
f 39 48 47
f 33 48 40
f 42 49 41
f 43 50 42
f 44 51 43
f 44 53 52
f 46 53 45
f 46 55 54
f 47 56 55
f 41 56 48
f 50 57 49
f 50 59 58
f 52 59 51
f 53 60 52
f 53 62 61
f 55 62 54
f 56 63 55
f 49 64 56
f 58 65 57
f 58 67 66
f 60 67 59
f 60 69 68
f 61 70 69
f 62 71 70
f 63 72 71
f 64 65 72
f 73 2 1
f 73 3 2
f 73 4 3
f 73 5 4
f 73 6 5
f 73 7 6
f 73 8 7
f 73 1 8
f 65 66 74
f 66 67 74
f 67 68 74
f 68 69 74
f 69 70 74
f 70 71 74
f 71 72 74
f 72 65 74
f 1 2 10
f 2 3 11
f 4 12 11
f 4 5 13
f 6 14 13
f 6 7 15
f 7 8 16
f 1 9 16
f 10 18 17
f 11 19 18
f 11 12 20
f 13 21 20
f 14 22 21
f 14 15 23
f 16 24 23
f 16 9 17
f 18 26 25
f 19 27 26
f 19 20 28
f 20 21 29
f 21 22 30
f 23 31 30
f 23 24 32
f 24 17 25
f 26 34 33
f 27 35 34
f 28 36 35
f 28 29 37
f 29 30 38
f 31 39 38
f 31 32 40
f 25 33 40
f 33 34 42
f 35 43 42
f 36 44 43
f 36 37 45
f 37 38 46
f 39 47 46
f 39 40 48
f 33 41 48
f 42 50 49
f 43 51 50
f 44 52 51
f 44 45 53
f 46 54 53
f 46 47 55
f 47 48 56
f 41 49 56
f 50 58 57
f 50 51 59
f 52 60 59
f 53 61 60
f 53 54 62
f 55 63 62
f 56 64 63
f 49 57 64
f 58 66 65
f 58 59 67
f 60 68 67
f 60 61 69
f 61 62 70
f 62 63 71
f 63 64 72
f 64 57 65
