# kitsune Orb3_OrbFlame.obj: Roblox cue frame, recentred on its bounding box
v -0.15923 0.07400 0.08341
v -0.13099 0.05232 0.12746
v -0.11889 0.00000 0.14545
v -0.13001 -0.05232 0.12684
v -0.15785 -0.07400 0.08253
v -0.18609 -0.05232 0.03848
v -0.19819 0.00000 0.02049
v -0.18707 0.05232 0.03910
v -0.11483 0.06665 0.05523
v -0.08962 0.04730 0.09456
v -0.07881 0.00058 0.11063
v -0.08874 -0.04614 0.09401
v -0.11360 -0.06549 0.05445
v -0.13882 -0.04614 0.01512
v -0.14962 0.00058 -0.00095
v -0.13969 0.04730 0.01567
v -0.07043 0.05919 0.02705
v -0.04829 0.04219 0.06160
v -0.03880 0.00116 0.07571
v -0.04752 -0.03987 0.06111
v -0.06935 -0.05687 0.02637
v -0.09150 -0.03987 -0.00818
v -0.10099 0.00116 -0.02229
v -0.09226 0.04219 -0.00769
v -0.02603 0.05159 -0.00112
v -0.00701 0.03699 0.02855
v 0.00115 0.00174 0.04067
v -0.00635 -0.03351 0.02814
v -0.02510 -0.04811 -0.00172
v -0.04413 -0.03351 -0.03139
v -0.05228 0.00174 -0.04351
v -0.04479 0.03699 -0.03098
v 0.01837 0.04383 -0.02930
v 0.03421 0.03167 -0.00459
v 0.04100 0.00232 0.00550
v 0.03476 -0.02703 -0.00494
v 0.01914 -0.03919 -0.02980
v 0.00330 -0.02703 -0.05451
v -0.00349 0.00232 -0.06460
v 0.00275 0.03167 -0.05416
v 0.06277 0.03586 -0.05749
v 0.07535 0.02620 -0.03787
v 0.08074 0.00290 -0.02986
v 0.07578 -0.02040 -0.03814
v 0.06339 -0.03005 -0.05788
v 0.05081 -0.02040 -0.07749
v 0.04542 0.00290 -0.08551
v 0.05037 0.02620 -0.07722
v 0.10718 0.02758 -0.08567
v 0.11638 0.02052 -0.07132
v 0.12032 0.00348 -0.06546
v 0.11669 -0.01356 -0.07152
v 0.10763 -0.02062 -0.08595
v 0.09843 -0.01356 -0.10030
v 0.09449 0.00348 -0.10616
v 0.09811 0.02052 -0.10010
v 0.15159 0.01883 -0.11385
v 0.15723 0.01451 -0.10506
v 0.15964 0.00406 -0.10147
v 0.15742 -0.00638 -0.10519
v 0.15186 -0.01071 -0.11403
v 0.14623 -0.00638 -0.12282
v 0.14381 0.00406 -0.12642
v 0.14603 0.01451 -0.12270
v 0.19601 0.00864 -0.14205
v 0.19754 0.00747 -0.13967
v 0.19819 0.00464 -0.13870
v 0.19759 0.00182 -0.13970
v 0.19609 0.00064 -0.14210
v 0.19456 0.00182 -0.14448
v 0.19391 0.00464 -0.14545
v 0.19451 0.00747 -0.14444
v -0.15854 0.00000 0.08297
v 0.19605 0.00464 -0.14207
f 1 10 9
f 2 11 10
f 3 12 11
f 5 12 4
f 6 13 5
f 7 14 6
f 8 15 7
f 1 16 8
f 9 18 17
f 10 19 18
f 11 20 19
f 13 20 12
f 14 21 13
f 14 23 22
f 16 23 15
f 9 24 16
f 18 25 17
f 19 26 18
f 19 28 27
f 20 29 28
f 22 29 21
f 23 30 22
f 24 31 23
f 24 25 32
f 25 34 33
f 26 35 34
f 27 36 35
f 29 36 28
f 30 37 29
f 30 39 38
f 32 39 31
f 32 33 40
f 33 42 41
f 34 43 42
f 35 44 43
f 36 45 44
f 38 45 37
f 39 46 38
f 40 47 39
f 33 48 40
f 42 49 41
f 43 50 42
f 44 51 43
f 44 53 52
f 46 53 45
f 47 54 46
f 48 55 47
f 41 56 48
f 49 58 57
f 51 58 50
f 51 60 59
f 52 61 60
f 54 61 53
f 54 63 62
f 55 64 63
f 49 64 56
f 58 65 57
f 58 67 66
f 59 68 67
f 61 68 60
f 61 70 69
f 63 70 62
f 63 72 71
f 64 65 72
f 73 2 1
f 73 3 2
f 73 4 3
f 73 5 4
f 73 6 5
f 73 7 6
f 73 8 7
f 73 1 8
f 65 66 74
f 66 67 74
f 67 68 74
f 68 69 74
f 69 70 74
f 70 71 74
f 71 72 74
f 72 65 74
f 1 2 10
f 2 3 11
f 3 4 12
f 5 13 12
f 6 14 13
f 7 15 14
f 8 16 15
f 1 9 16
f 9 10 18
f 10 11 19
f 11 12 20
f 13 21 20
f 14 22 21
f 14 15 23
f 16 24 23
f 9 17 24
f 18 26 25
f 19 27 26
f 19 20 28
f 20 21 29
f 22 30 29
f 23 31 30
f 24 32 31
f 24 17 25
f 25 26 34
f 26 27 35
f 27 28 36
f 29 37 36
f 30 38 37
f 30 31 39
f 32 40 39
f 32 25 33
f 33 34 42
f 34 35 43
f 35 36 44
f 36 37 45
f 38 46 45
f 39 47 46
f 40 48 47
f 33 41 48
f 42 50 49
f 43 51 50
f 44 52 51
f 44 45 53
f 46 54 53
f 47 55 54
f 48 56 55
f 41 49 56
f 49 50 58
f 51 59 58
f 51 52 60
f 52 53 61
f 54 62 61
f 54 55 63
f 55 56 64
f 49 57 64
f 58 66 65
f 58 59 67
f 59 60 68
f 61 69 68
f 61 62 70
f 63 71 70
f 63 64 72
f 64 57 65
