# kitsune Tail4_TailFire.obj: Roblox cue frame, recentred on its bounding box
v 0.16088 0.03249 0.61985
v 0.16886 0.02677 0.61608
v 0.17352 0.01180 0.61312
v 0.17308 -0.00671 0.61209
v 0.16771 -0.02168 0.61339
v 0.15946 -0.02740 0.61652
v 0.15148 -0.02168 0.62029
v 0.14682 -0.00671 0.62325
v 0.14726 0.01180 0.62428
v 0.15263 0.02677 0.62298
v 0.14259 0.04995 0.57681
v 0.15433 0.04147 0.57093
v 0.16113 0.01922 0.56622
v 0.16039 -0.00829 0.56448
v 0.15238 -0.03055 0.56637
v 0.14018 -0.03907 0.57117
v 0.12843 -0.03058 0.57705
v 0.12163 -0.00833 0.58176
v 0.12238 0.01918 0.58350
v 0.13038 0.04144 0.58161
v 0.12275 0.06408 0.53433
v 0.13698 0.05365 0.52649
v 0.14502 0.02624 0.51991
v 0.14378 -0.00767 0.51711
v 0.13376 -0.03513 0.51915
v 0.11877 -0.04565 0.52526
v 0.10454 -0.03522 0.53310
v 0.09650 -0.00782 0.53968
v 0.09774 0.02609 0.54249
v 0.10776 0.05355 0.54044
v 0.10225 0.07794 0.49246
v 0.11857 0.06586 0.48286
v 0.12748 0.03407 0.47431
v 0.12557 -0.00527 0.47007
v 0.11356 -0.03714 0.47176
v 0.09606 -0.04937 0.47874
v 0.07973 -0.03728 0.48834
v 0.07082 -0.00550 0.49689
v 0.07273 0.03385 0.50113
v 0.08474 0.06572 0.49944
v 0.08180 0.09210 0.45099
v 0.10002 0.07856 0.43995
v 0.10960 0.04297 0.42946
v 0.10689 -0.00106 0.42353
v 0.09292 -0.03673 0.42443
v 0.07303 -0.05040 0.43182
v 0.05481 -0.03686 0.44287
v 0.04522 -0.00128 0.45336
v 0.04794 0.04276 0.45928
v 0.06191 0.07842 0.45838
v 0.06203 0.10665 0.40962
v 0.08204 0.09179 0.39752
v 0.09223 0.05289 0.38531
v 0.08871 0.00479 0.37764
v 0.07284 -0.03414 0.37745
v 0.05067 -0.04901 0.38480
v 0.03066 -0.03416 0.39690
v 0.02047 0.00475 0.40911
v 0.02399 0.05285 0.41678
v 0.03986 0.09177 0.41697
v 0.04344 0.12144 0.36798
v 0.06516 0.10538 0.35531
v 0.07598 0.06354 0.34177
v 0.07178 0.01192 0.33253
v 0.05415 -0.02977 0.33110
v 0.02984 -0.04561 0.33805
v 0.00812 -0.02954 0.35072
v -0.00270 0.01230 0.36426
v 0.00150 0.06392 0.37351
v 0.01913 0.10561 0.37493
v 0.02639 0.13619 0.32570
v 0.04975 0.11897 0.31299
v 0.06128 0.07453 0.29869
v 0.05659 0.01985 0.28826
v 0.03745 -0.02419 0.28568
v 0.01119 -0.04077 0.29194
v -0.01217 -0.02355 0.30465
v -0.02371 0.02089 0.31895
v -0.01901 0.07557 0.32938
v 0.00012 0.11961 0.33196
v 0.01112 0.15045 0.28246
v 0.03601 0.13214 0.27022
v 0.04834 0.08539 0.25585
v 0.04338 0.02804 0.24483
v 0.02305 -0.01799 0.24137
v -0.00491 -0.03512 0.24679
v -0.02981 -0.01682 0.25903
v -0.04213 0.02994 0.27340
v -0.03718 0.08728 0.28442
v -0.01684 0.13331 0.28788
v -0.00225 0.16372 0.23801
v 0.02401 0.14441 0.22672
v 0.03717 0.09562 0.21303
v 0.03219 0.03597 0.20216
v 0.01097 -0.01174 0.19827
v -0.01837 -0.02929 0.20285
v -0.04464 -0.00999 0.21414
v -0.05779 0.03881 0.22783
v -0.05281 0.09845 0.23870
v -0.03160 0.14617 0.24259
v -0.01374 0.17546 0.19224
v 0.01367 0.15528 0.18226
v 0.02764 0.10475 0.16998
v 0.02281 0.04317 0.16009
v 0.00104 -0.00593 0.15636
v -0.02935 -0.02381 0.16023
v -0.05677 -0.00363 0.17021
v -0.07073 0.04690 0.18249
v -0.06591 0.10848 0.19238
v -0.04414 0.15759 0.19611
v -0.02351 0.18511 0.14516
v 0.00480 0.16424 0.13673
v 0.01949 0.11234 0.12650
v 0.01495 0.04925 0.11839
v -0.00708 -0.00095 0.11549
v -0.03820 -0.01907 0.11892
v -0.06650 0.00181 0.12735
v -0.08119 0.05370 0.13758
v -0.07665 0.11679 0.14569
v -0.05462 0.16699 0.14858
v -0.03185 0.19216 0.09693
v -0.00293 0.17083 0.09012
v 0.01237 0.11801 0.08244
v 0.00820 0.05389 0.07683
v -0.01385 0.00296 0.07542
v -0.04535 -0.01534 0.07876
v -0.07428 0.00600 0.08557
v -0.08957 0.05881 0.09325
v -0.08540 0.12294 0.09886
v -0.06335 0.17387 0.10027
v -0.03919 0.19620 0.04780
v -0.00993 0.17465 0.04255
v 0.00584 0.12142 0.03773
v 0.00209 0.05684 0.03517
v -0.01974 0.00557 0.03584
v -0.05132 -0.01280 0.03950
v -0.08059 0.00875 0.04474
v -0.09636 0.06198 0.04957
v -0.09261 0.12656 0.05213
v -0.07077 0.17783 0.05146
v -0.04601 0.19689 -0.00193
v -0.01667 0.17539 -0.00578
v -0.00056 0.12228 -0.00762
v -0.00383 0.05786 -0.00677
v -0.02525 0.00674 -0.00354
v -0.05662 -0.01157 0.00084
v -0.08596 0.00993 0.00468
v -0.10207 0.06304 0.00653
v -0.09879 0.12746 0.00568
v -0.07738 0.17858 0.00244
v -0.05281 0.19403 -0.05195
v -0.02362 0.17280 -0.05462
v -0.00729 0.12037 -0.05352
v -0.01004 0.05678 -0.04906
v -0.03082 0.00631 -0.04296
v -0.06170 -0.01176 -0.03753
v -0.09088 0.00947 -0.03486
v -0.10722 0.06190 -0.03596
v -0.10447 0.12549 -0.04042
v -0.08369 0.17596 -0.04652
v -0.06004 0.18749 -0.10197
v -0.03125 0.16673 -0.10369
v -0.01478 0.11551 -0.09978
v -0.01694 0.05341 -0.09172
v -0.03689 0.00413 -0.08260
v -0.06701 -0.01349 -0.07590
v -0.09580 0.00727 -0.07418
v -0.11226 0.05848 -0.07809
v -0.11011 0.12059 -0.08615
v -0.09016 0.16986 -0.09527
v -0.06806 0.17717 -0.15176
v -0.03987 0.15706 -0.15271
v -0.02337 0.10756 -0.14619
v -0.02486 0.04759 -0.13468
v -0.04378 0.00004 -0.12258
v -0.07290 -0.01691 -0.11451
v -0.10109 0.00320 -0.11355
v -0.11759 0.05270 -0.12007
v -0.11609 0.11267 -0.13159
v -0.09718 0.16022 -0.14369
v -0.07710 0.16302 -0.20109
v -0.04970 0.14372 -0.20139
v -0.03325 0.09641 -0.19249
v -0.03403 0.03917 -0.17780
v -0.05174 -0.00615 -0.16293
v -0.07962 -0.02222 -0.15356
v -0.10702 -0.00291 -0.15326
v -0.12347 0.04440 -0.16216
v -0.12269 0.10164 -0.17685
v -0.10498 0.14695 -0.19172
v -0.08719 0.14500 -0.24979
v -0.06076 0.12666 -0.24946
v -0.04445 0.08197 -0.23845
v -0.04449 0.02801 -0.22098
v -0.06086 -0.01463 -0.20371
v -0.08732 -0.02965 -0.19325
v -0.11375 -0.01131 -0.19359
v -0.13006 0.03337 -0.20459
v -0.13002 0.08734 -0.22207
v -0.11364 0.12998 -0.23933
v -0.09817 0.12307 -0.29768
v -0.07286 0.10588 -0.29668
v -0.05680 0.06421 -0.28386
v -0.05613 0.01398 -0.26410
v -0.07110 -0.02563 -0.24496
v -0.09599 -0.03948 -0.23375
v -0.12130 -0.02228 -0.23475
v -0.13735 0.01939 -0.24757
v -0.13803 0.06962 -0.26733
v -0.12306 0.10922 -0.28647
v -0.10968 0.09728 -0.34460
v -0.08564 0.08141 -0.34289
v -0.06997 0.04309 -0.32858
v -0.06867 -0.00304 -0.30714
v -0.08222 -0.03936 -0.28676
v -0.10546 -0.05201 -0.27522
v -0.12951 -0.03614 -0.27694
v -0.14517 0.00218 -0.29125
v -0.14647 0.04832 -0.31269
v -0.13292 0.08464 -0.33307
v -0.12118 0.06774 -0.39042
v -0.09854 0.05338 -0.38794
v -0.08345 0.01868 -0.37254
v -0.08166 -0.02312 -0.35010
v -0.09386 -0.05603 -0.32919
v -0.11538 -0.06750 -0.31780
v -0.13802 -0.05314 -0.32028
v -0.15311 -0.01843 -0.33568
v -0.15490 0.02336 -0.35812
v -0.14270 0.05627 -0.37903
v -0.13196 0.03467 -0.43503
v -0.11089 0.02199 -0.43179
v -0.09658 -0.00892 -0.41576
v -0.09449 -0.04625 -0.39306
v -0.10542 -0.07574 -0.37236
v -0.12520 -0.08612 -0.36158
v -0.14627 -0.07344 -0.36481
v -0.16058 -0.04253 -0.38085
v -0.16267 -0.00520 -0.40354
v -0.15174 0.02429 -0.42424
v -0.14124 -0.00154 -0.47838
v -0.12193 -0.01243 -0.47445
v -0.10864 -0.03947 -0.45831
v -0.10646 -0.07233 -0.43614
v -0.11621 -0.09846 -0.41639
v -0.13418 -0.10788 -0.40661
v -0.15349 -0.09700 -0.41055
v -0.16678 -0.06996 -0.42668
v -0.16896 -0.03710 -0.44886
v -0.15921 -0.01096 -0.46861
v -0.14820 -0.04038 -0.52045
v -0.13086 -0.04941 -0.51598
v -0.11885 -0.07258 -0.50033
v -0.11677 -0.10106 -0.47946
v -0.12540 -0.12395 -0.46136
v -0.14145 -0.13253 -0.45293
v -0.15879 -0.12350 -0.45740
v -0.17080 -0.10033 -0.47306
v -0.17289 -0.07185 -0.49393
v -0.16425 -0.04896 -0.51203
v -0.15205 -0.08120 -0.56125
v -0.13694 -0.08836 -0.55649
v -0.12646 -0.10773 -0.54194
v -0.12461 -0.13191 -0.52317
v -0.13211 -0.15166 -0.50735
v -0.14608 -0.15944 -0.50052
v -0.16119 -0.15228 -0.50529
v -0.17167 -0.13291 -0.51983
v -0.17352 -0.10873 -0.53860
v -0.16602 -0.08898 -0.55442
v -0.15209 -0.12330 -0.60074
v -0.13954 -0.12866 -0.59603
v -0.13085 -0.14424 -0.58331
v -0.12932 -0.16410 -0.56745
v -0.13556 -0.18064 -0.55451
v -0.14716 -0.18756 -0.54942
v -0.15971 -0.18220 -0.55414
v -0.16841 -0.16662 -0.56686
v -0.16994 -0.14676 -0.58272
v -0.16370 -0.13022 -0.59566
v -0.14634 -0.18444 -0.62428
v -0.14391 -0.18542 -0.62329
v -0.14222 -0.18841 -0.62077
v -0.14193 -0.19226 -0.61768
v -0.14314 -0.19550 -0.61520
v -0.14539 -0.19689 -0.61428
v -0.14782 -0.19591 -0.61527
v -0.14951 -0.19293 -0.61779
v -0.14980 -0.18908 -0.62088
v -0.14859 -0.18584 -0.62336
v 0.16017 0.00255 0.61819
v -0.14586 -0.19067 -0.61928
f 1 12 11
f 2 13 12
f 4 13 3
f 5 14 4
f 6 15 5
f 6 17 16
f 7 18 17
f 8 19 18
f 10 19 9
f 1 20 10
f 11 22 21
f 12 23 22
f 14 23 13
f 15 24 14
f 16 25 15
f 16 27 26
f 17 28 27
f 18 29 28
f 20 29 19
f 11 30 20
f 21 32 31
f 22 33 32
f 24 33 23
f 25 34 24
f 26 35 25
f 26 37 36
f 27 38 37
f 28 39 38
f 30 39 29
f 21 40 30
f 31 42 41
f 32 43 42
f 33 44 43
f 35 44 34
f 36 45 35
f 36 47 46
f 37 48 47
f 39 48 38
f 40 49 39
f 31 50 40
f 41 52 51
f 42 53 52
f 43 54 53
f 45 54 44
f 46 55 45
f 46 57 56
f 47 58 57
f 49 58 48
f 50 59 49
f 41 60 50
f 51 62 61
f 52 63 62
f 53 64 63
f 55 64 54
f 56 65 55
f 56 67 66
f 57 68 67
f 59 68 58
f 60 69 59
f 51 70 60
f 61 72 71
f 62 73 72
f 63 74 73
f 65 74 64
f 66 75 65
f 66 77 76
f 67 78 77
f 69 78 68
f 70 79 69
f 61 80 70
f 71 82 81
f 72 83 82
f 73 84 83
f 75 84 74
f 76 85 75
f 76 87 86
f 77 88 87
f 79 88 78
f 80 89 79
f 71 90 80
f 81 92 91
f 82 93 92
f 83 94 93
f 85 94 84
f 86 95 85
f 86 97 96
f 87 98 97
f 89 98 88
f 90 99 89
f 81 100 90
f 91 102 101
f 92 103 102
f 93 104 103
f 95 104 94
f 96 105 95
f 96 107 106
f 97 108 107
f 99 108 98
f 100 109 99
f 91 110 100
f 101 112 111
f 102 113 112
f 103 114 113
f 105 114 104
f 106 115 105
f 106 117 116
f 107 118 117
f 109 118 108
f 110 119 109
f 101 120 110
f 111 122 121
f 112 123 122
f 113 124 123
f 115 124 114
f 116 125 115
f 116 127 126
f 117 128 127
f 119 128 118
f 120 129 119
f 111 130 120
f 121 132 131
f 122 133 132
f 123 134 133
f 125 134 124
f 126 135 125
f 126 137 136
f 127 138 137
f 129 138 128
f 130 139 129
f 121 140 130
f 132 141 131
f 133 142 132
f 133 144 143
f 134 145 144
f 135 146 145
f 137 146 136
f 138 147 137
f 139 148 138
f 139 150 149
f 131 150 140
f 142 151 141
f 143 152 142
f 143 154 153
f 144 155 154
f 145 156 155
f 147 156 146
f 148 157 147
f 149 158 148
f 149 160 159
f 150 151 160
f 152 161 151
f 153 162 152
f 153 164 163
f 154 165 164
f 155 166 165
f 157 166 156
f 158 167 157
f 159 168 158
f 159 170 169
f 160 161 170
f 162 171 161
f 163 172 162
f 163 174 173
f 164 175 174
f 165 176 175
f 167 176 166
f 168 177 167
f 169 178 168
f 169 180 179
f 170 171 180
f 172 181 171
f 173 182 172
f 173 184 183
f 174 185 184
f 175 186 185
f 177 186 176
f 178 187 177
f 179 188 178
f 179 190 189
f 180 181 190
f 182 191 181
f 183 192 182
f 183 194 193
f 184 195 194
f 185 196 195
f 187 196 186
f 188 197 187
f 189 198 188
f 189 200 199
f 190 191 200
f 192 201 191
f 193 202 192
f 193 204 203
f 194 205 204
f 195 206 205
f 197 206 196
f 198 207 197
f 199 208 198
f 199 210 209
f 200 201 210
f 202 211 201
f 203 212 202
f 203 214 213
f 204 215 214
f 205 216 215
f 207 216 206
f 208 217 207
f 209 218 208
f 209 220 219
f 210 211 220
f 212 221 211
f 213 222 212
f 213 224 223
f 214 225 224
f 215 226 225
f 217 226 216
f 218 227 217
f 219 228 218
f 219 230 229
f 220 221 230
f 222 231 221
f 223 232 222
f 224 233 223
f 224 235 234
f 225 236 235
f 227 236 226
f 228 237 227
f 229 238 228
f 229 240 239
f 230 231 240
f 232 241 231
f 233 242 232
f 234 243 233
f 234 245 244
f 235 246 245
f 237 246 236
f 238 247 237
f 238 249 248
f 239 250 249
f 240 241 250
f 242 251 241
f 243 252 242
f 244 253 243
f 244 255 254
f 245 256 255
f 247 256 246
f 248 257 247
f 248 259 258
f 249 260 259
f 250 251 260
f 252 261 251
f 253 262 252
f 254 263 253
f 254 265 264
f 255 266 265
f 257 266 256
f 258 267 257
f 258 269 268
f 259 270 269
f 260 261 270
f 262 271 261
f 263 272 262
f 264 273 263
f 264 275 274
f 265 276 275
f 267 276 266
f 268 277 267
f 268 279 278
f 269 280 279
f 270 271 280
f 272 281 271
f 273 282 272
f 274 283 273
f 274 285 284
f 275 286 285
f 277 286 276
f 278 287 277
f 278 289 288
f 279 290 289
f 280 281 290
f 291 2 1
f 291 3 2
f 291 4 3
f 291 5 4
f 291 6 5
f 291 7 6
f 291 8 7
f 291 9 8
f 291 10 9
f 291 1 10
f 281 282 292
f 282 283 292
f 283 284 292
f 284 285 292
f 285 286 292
f 286 287 292
f 287 288 292
f 288 289 292
f 289 290 292
f 290 281 292
f 1 2 12
f 2 3 13
f 4 14 13
f 5 15 14
f 6 16 15
f 6 7 17
f 7 8 18
f 8 9 19
f 10 20 19
f 1 11 20
f 11 12 22
f 12 13 23
f 14 24 23
f 15 25 24
f 16 26 25
f 16 17 27
f 17 18 28
f 18 19 29
f 20 30 29
f 11 21 30
f 21 22 32
f 22 23 33
f 24 34 33
f 25 35 34
f 26 36 35
f 26 27 37
f 27 28 38
f 28 29 39
f 30 40 39
f 21 31 40
f 31 32 42
f 32 33 43
f 33 34 44
f 35 45 44
f 36 46 45
f 36 37 47
f 37 38 48
f 39 49 48
f 40 50 49
f 31 41 50
f 41 42 52
f 42 43 53
f 43 44 54
f 45 55 54
f 46 56 55
f 46 47 57
f 47 48 58
f 49 59 58
f 50 60 59
f 41 51 60
f 51 52 62
f 52 53 63
f 53 54 64
f 55 65 64
f 56 66 65
f 56 57 67
f 57 58 68
f 59 69 68
f 60 70 69
f 51 61 70
f 61 62 72
f 62 63 73
f 63 64 74
f 65 75 74
f 66 76 75
f 66 67 77
f 67 68 78
f 69 79 78
f 70 80 79
f 61 71 80
f 71 72 82
f 72 73 83
f 73 74 84
f 75 85 84
f 76 86 85
f 76 77 87
f 77 78 88
f 79 89 88
f 80 90 89
f 71 81 90
f 81 82 92
f 82 83 93
f 83 84 94
f 85 95 94
f 86 96 95
f 86 87 97
f 87 88 98
f 89 99 98
f 90 100 99
f 81 91 100
f 91 92 102
f 92 93 103
f 93 94 104
f 95 105 104
f 96 106 105
f 96 97 107
f 97 98 108
f 99 109 108
f 100 110 109
f 91 101 110
f 101 102 112
f 102 103 113
f 103 104 114
f 105 115 114
f 106 116 115
f 106 107 117
f 107 108 118
f 109 119 118
f 110 120 119
f 101 111 120
f 111 112 122
f 112 113 123
f 113 114 124
f 115 125 124
f 116 126 125
f 116 117 127
f 117 118 128
f 119 129 128
f 120 130 129
f 111 121 130
f 121 122 132
f 122 123 133
f 123 124 134
f 125 135 134
f 126 136 135
f 126 127 137
f 127 128 138
f 129 139 138
f 130 140 139
f 121 131 140
f 132 142 141
f 133 143 142
f 133 134 144
f 134 135 145
f 135 136 146
f 137 147 146
f 138 148 147
f 139 149 148
f 139 140 150
f 131 141 150
f 142 152 151
f 143 153 152
f 143 144 154
f 144 145 155
f 145 146 156
f 147 157 156
f 148 158 157
f 149 159 158
f 149 150 160
f 150 141 151
f 152 162 161
f 153 163 162
f 153 154 164
f 154 155 165
f 155 156 166
f 157 167 166
f 158 168 167
f 159 169 168
f 159 160 170
f 160 151 161
f 162 172 171
f 163 173 172
f 163 164 174
f 164 165 175
f 165 166 176
f 167 177 176
f 168 178 177
f 169 179 178
f 169 170 180
f 170 161 171
f 172 182 181
f 173 183 182
f 173 174 184
f 174 175 185
f 175 176 186
f 177 187 186
f 178 188 187
f 179 189 188
f 179 180 190
f 180 171 181
f 182 192 191
f 183 193 192
f 183 184 194
f 184 185 195
f 185 186 196
f 187 197 196
f 188 198 197
f 189 199 198
f 189 190 200
f 190 181 191
f 192 202 201
f 193 203 202
f 193 194 204
f 194 195 205
f 195 196 206
f 197 207 206
f 198 208 207
f 199 209 208
f 199 200 210
f 200 191 201
f 202 212 211
f 203 213 212
f 203 204 214
f 204 205 215
f 205 206 216
f 207 217 216
f 208 218 217
f 209 219 218
f 209 210 220
f 210 201 211
f 212 222 221
f 213 223 222
f 213 214 224
f 214 215 225
f 215 216 226
f 217 227 226
f 218 228 227
f 219 229 228
f 219 220 230
f 220 211 221
f 222 232 231
f 223 233 232
f 224 234 233
f 224 225 235
f 225 226 236
f 227 237 236
f 228 238 237
f 229 239 238
f 229 230 240
f 230 221 231
f 232 242 241
f 233 243 242
f 234 244 243
f 234 235 245
f 235 236 246
f 237 247 246
f 238 248 247
f 238 239 249
f 239 240 250
f 240 231 241
f 242 252 251
f 243 253 252
f 244 254 253
f 244 245 255
f 245 246 256
f 247 257 256
f 248 258 257
f 248 249 259
f 249 250 260
f 250 241 251
f 252 262 261
f 253 263 262
f 254 264 263
f 254 255 265
f 255 256 266
f 257 267 266
f 258 268 267
f 258 259 269
f 259 260 270
f 260 251 261
f 262 272 271
f 263 273 272
f 264 274 273
f 264 265 275
f 265 266 276
f 267 277 276
f 268 278 277
f 268 269 279
f 269 270 280
f 270 261 271
f 272 282 281
f 273 283 282
f 274 284 283
f 274 275 285
f 275 276 286
f 277 287 286
f 278 288 287
f 278 279 289
f 279 280 290
f 280 271 281
