# kitsune Tail7_TailCore.obj: Roblox cue frame, recentred on its bounding box
v -0.22321 0.19146 -0.69718
v -0.22673 0.18958 -0.69741
v -0.22689 0.18580 -0.69872
v -0.22354 0.18391 -0.69980
v -0.22002 0.18580 -0.69958
v -0.21986 0.18958 -0.69827
v -0.21693 0.17512 -0.64677
v -0.22163 0.17261 -0.64709
v -0.22187 0.16761 -0.64896
v -0.21740 0.16512 -0.65052
v -0.21269 0.16764 -0.65020
v -0.21246 0.17264 -0.64832
v -0.20948 0.15583 -0.59619
v -0.21536 0.15272 -0.59665
v -0.21569 0.14659 -0.59926
v -0.21014 0.14357 -0.60140
v -0.20426 0.14668 -0.60093
v -0.20393 0.15281 -0.59833
v -0.20181 0.13414 -0.54559
v -0.20886 0.13049 -0.54629
v -0.20929 0.12328 -0.54964
v -0.20268 0.11972 -0.55230
v -0.19564 0.12337 -0.55160
v -0.19520 0.13058 -0.54825
v -0.19465 0.11069 -0.49503
v -0.20282 0.10656 -0.49602
v -0.20334 0.09832 -0.50008
v -0.19570 0.09420 -0.50315
v -0.18753 0.09833 -0.50216
v -0.18701 0.10658 -0.49810
v -0.18845 0.08623 -0.44456
v -0.19769 0.08167 -0.44588
v -0.19829 0.07242 -0.45056
v -0.18966 0.06774 -0.45392
v -0.18042 0.07230 -0.45261
v -0.17982 0.08154 -0.44792
v -0.18345 0.06149 -0.39421
v -0.19368 0.05654 -0.39585
v -0.19434 0.04631 -0.40103
v -0.18478 0.04104 -0.40457
v -0.17455 0.04598 -0.40293
v -0.17388 0.05621 -0.39775
v -0.17962 0.03713 -0.34402
v -0.19076 0.03182 -0.34593
v -0.19147 0.02064 -0.35145
v -0.18106 0.01478 -0.35506
v -0.16992 0.02009 -0.35315
v -0.16920 0.03127 -0.34763
v -0.17677 0.01373 -0.29400
v -0.18871 0.00805 -0.29609
v -0.18947 -0.00404 -0.30178
v -0.17829 -0.01045 -0.30538
v -0.16635 -0.00478 -0.30329
v -0.16559 0.00731 -0.29760
v -0.17454 -0.00831 -0.24415
v -0.18717 -0.01435 -0.24628
v -0.18796 -0.02730 -0.25197
v -0.17612 -0.03420 -0.25553
v -0.16349 -0.02816 -0.25340
v -0.16270 -0.01522 -0.24771
v -0.17248 -0.02874 -0.19444
v -0.18568 -0.03515 -0.19646
v -0.18648 -0.04886 -0.20201
v -0.17409 -0.05617 -0.20553
v -0.16089 -0.04976 -0.20351
v -0.16008 -0.03605 -0.19797
v -0.17007 -0.04746 -0.14486
v -0.18371 -0.05423 -0.14659
v -0.18452 -0.06860 -0.15187
v -0.17169 -0.07620 -0.15541
v -0.15805 -0.06943 -0.15368
v -0.15724 -0.05506 -0.14841
v -0.16681 -0.06450 -0.09536
v -0.18074 -0.07162 -0.09663
v -0.18153 -0.08650 -0.10156
v -0.16839 -0.09427 -0.10521
v -0.15445 -0.08716 -0.10394
v -0.15366 -0.07227 -0.09902
v -0.16216 -0.08000 -0.04590
v -0.17623 -0.08743 -0.04656
v -0.17698 -0.10267 -0.05109
v -0.16366 -0.11049 -0.05497
v -0.14959 -0.10306 -0.05431
v -0.14884 -0.08782 -0.04978
v -0.15564 -0.09414 0.00354
v -0.16967 -0.10182 0.00362
v -0.17036 -0.11726 -0.00051
v -0.15701 -0.12502 -0.00471
v -0.14298 -0.11734 -0.00479
v -0.14229 -0.10190 -0.00066
v -0.14680 -0.10713 0.05300
v -0.16061 -0.11500 0.05389
v -0.16122 -0.13046 0.05015
v -0.14801 -0.13806 0.04553
v -0.13419 -0.13019 0.04464
v -0.13359 -0.11473 0.04838
v -0.13524 -0.11914 0.10247
v -0.14865 -0.12711 0.10420
v -0.14917 -0.14244 0.10085
v -0.13626 -0.14980 0.09576
v -0.12285 -0.14182 0.09403
v -0.12234 -0.12650 0.09738
v -0.12063 -0.13028 0.15195
v -0.13347 -0.13826 0.15451
v -0.13387 -0.15329 0.15153
v -0.12144 -0.16034 0.14598
v -0.10861 -0.15236 0.14342
v -0.10821 -0.13733 0.14641
v -0.10272 -0.14056 0.20142
v -0.11481 -0.14845 0.20475
v -0.11508 -0.16303 0.20215
v -0.10328 -0.16972 0.19622
v -0.09119 -0.16183 0.19289
v -0.09091 -0.14725 0.19549
v -0.08133 -0.14985 0.25086
v -0.09252 -0.15754 0.25486
v -0.09265 -0.17153 0.25267
v -0.08158 -0.17783 0.24648
v -0.07039 -0.17014 0.24248
v -0.07026 -0.15615 0.24466
v -0.05640 -0.15790 0.30026
v -0.06659 -0.16528 0.30480
v -0.06653 -0.17855 0.30306
v -0.05628 -0.18443 0.29677
v -0.04609 -0.17704 0.29223
v -0.04615 -0.16377 0.29398
v -0.02799 -0.16431 0.34964
v -0.03711 -0.17128 0.35455
v -0.03684 -0.18370 0.35328
v -0.02745 -0.18914 0.34710
v -0.01834 -0.18216 0.34219
v -0.01861 -0.16975 0.34346
v 0.00365 -0.16857 0.39899
v -0.00435 -0.17504 0.40409
v -0.00384 -0.18648 0.40332
v 0.00467 -0.19146 0.39745
v 0.01268 -0.18500 0.39235
v 0.01216 -0.17356 0.39312
v 0.03810 -0.17012 0.44835
v 0.03121 -0.17597 0.45345
v 0.03197 -0.18632 0.45317
v 0.03963 -0.19082 0.44779
v 0.04653 -0.18497 0.44269
v 0.04576 -0.17461 0.44297
v 0.07474 -0.16832 0.49775
v 0.06891 -0.17349 0.50265
v 0.06991 -0.18264 0.50282
v 0.07673 -0.18662 0.49809
v 0.08256 -0.18144 0.49319
v 0.08156 -0.17229 0.49302
v 0.11269 -0.16259 0.54721
v 0.10786 -0.16703 0.55173
v 0.10904 -0.17489 0.55229
v 0.11504 -0.17830 0.54833
v 0.11986 -0.17387 0.54381
v 0.11869 -0.16601 0.54325
v 0.15085 -0.15246 0.59678
v 0.14695 -0.15614 0.60075
v 0.14822 -0.16263 0.60159
v 0.15340 -0.16545 0.59847
v 0.15730 -0.16177 0.59450
v 0.15603 -0.15528 0.59365
v 0.18794 -0.13761 0.64647
v 0.18488 -0.14052 0.64975
v 0.18614 -0.14562 0.65075
v 0.19045 -0.14780 0.64848
v 0.19350 -0.14490 0.64520
v 0.19225 -0.13980 0.64419
v 0.22257 -0.11791 0.69644
v 0.22030 -0.12007 0.69893
v 0.22133 -0.12384 0.69980
v 0.22462 -0.12544 0.69820
v 0.22689 -0.12327 0.69572
v 0.22587 -0.11951 0.69484
v -0.22337 0.18769 -0.69849
v 0.22360 -0.12167 0.69732
f 1 8 7
f 2 9 8
f 3 10 9
f 5 10 4
f 6 11 5
f 1 12 6
f 7 14 13
f 9 14 8
f 10 15 9
f 11 16 10
f 11 18 17
f 12 13 18
f 13 20 19
f 15 20 14
f 16 21 15
f 17 22 16
f 17 24 23
f 18 19 24
f 19 26 25
f 21 26 20
f 22 27 21
f 23 28 22
f 23 30 29
f 24 25 30
f 26 31 25
f 27 32 26
f 28 33 27
f 28 35 34
f 29 36 35
f 30 31 36
f 32 37 31
f 33 38 32
f 34 39 33
f 34 41 40
f 35 42 41
f 36 37 42
f 38 43 37
f 39 44 38
f 40 45 39
f 40 47 46
f 41 48 47
f 42 43 48
f 44 49 43
f 45 50 44
f 45 52 51
f 46 53 52
f 47 54 53
f 43 54 48
f 50 55 49
f 51 56 50
f 51 58 57
f 52 59 58
f 53 60 59
f 49 60 54
f 56 61 55
f 57 62 56
f 57 64 63
f 58 65 64
f 59 66 65
f 55 66 60
f 62 67 61
f 63 68 62
f 63 70 69
f 64 71 70
f 65 72 71
f 61 72 66
f 68 73 67
f 68 75 74
f 69 76 75
f 70 77 76
f 72 77 71
f 67 78 72
f 74 79 73
f 74 81 80
f 75 82 81
f 76 83 82
f 78 83 77
f 73 84 78
f 80 85 79
f 80 87 86
f 81 88 87
f 82 89 88
f 84 89 83
f 79 90 84
f 86 91 85
f 86 93 92
f 87 94 93
f 88 95 94
f 90 95 89
f 85 96 90
f 92 97 91
f 92 99 98
f 93 100 99
f 94 101 100
f 96 101 95
f 91 102 96
f 98 103 97
f 99 104 98
f 99 106 105
f 100 107 106
f 102 107 101
f 97 108 102
f 104 109 103
f 105 110 104
f 105 112 111
f 106 113 112
f 107 114 113
f 103 114 108
f 110 115 109
f 111 116 110
f 112 117 111
f 112 119 118
f 113 120 119
f 114 115 120
f 116 121 115
f 117 122 116
f 118 123 117
f 118 125 124
f 119 126 125
f 120 121 126
f 122 127 121
f 123 128 122
f 124 129 123
f 125 130 124
f 125 132 131
f 126 127 132
f 127 134 133
f 129 134 128
f 130 135 129
f 131 136 130
f 131 138 137
f 132 133 138
f 133 140 139
f 135 140 134
f 136 141 135
f 137 142 136
f 137 144 143
f 138 139 144
f 139 146 145
f 141 146 140
f 142 147 141
f 143 148 142
f 143 150 149
f 144 145 150
f 145 152 151
f 147 152 146
f 148 153 147
f 149 154 148
f 149 156 155
f 150 151 156
f 151 158 157
f 153 158 152
f 154 159 153
f 155 160 154
f 155 162 161
f 156 157 162
f 157 164 163
f 159 164 158
f 160 165 159
f 161 166 160
f 161 168 167
f 162 163 168
f 163 170 169
f 164 171 170
f 165 172 171
f 167 172 166
f 168 173 167
f 163 174 168
f 175 2 1
f 175 3 2
f 175 4 3
f 175 5 4
f 175 6 5
f 175 1 6
f 169 170 176
f 170 171 176
f 171 172 176
f 172 173 176
f 173 174 176
f 174 169 176
f 1 2 8
f 2 3 9
f 3 4 10
f 5 11 10
f 6 12 11
f 1 7 12
f 7 8 14
f 9 15 14
f 10 16 15
f 11 17 16
f 11 12 18
f 12 7 13
f 13 14 20
f 15 21 20
f 16 22 21
f 17 23 22
f 17 18 24
f 18 13 19
f 19 20 26
f 21 27 26
f 22 28 27
f 23 29 28
f 23 24 30
f 24 19 25
f 26 32 31
f 27 33 32
f 28 34 33
f 28 29 35
f 29 30 36
f 30 25 31
f 32 38 37
f 33 39 38
f 34 40 39
f 34 35 41
f 35 36 42
f 36 31 37
f 38 44 43
f 39 45 44
f 40 46 45
f 40 41 47
f 41 42 48
f 42 37 43
f 44 50 49
f 45 51 50
f 45 46 52
f 46 47 53
f 47 48 54
f 43 49 54
f 50 56 55
f 51 57 56
f 51 52 58
f 52 53 59
f 53 54 60
f 49 55 60
f 56 62 61
f 57 63 62
f 57 58 64
f 58 59 65
f 59 60 66
f 55 61 66
f 62 68 67
f 63 69 68
f 63 64 70
f 64 65 71
f 65 66 72
f 61 67 72
f 68 74 73
f 68 69 75
f 69 70 76
f 70 71 77
f 72 78 77
f 67 73 78
f 74 80 79
f 74 75 81
f 75 76 82
f 76 77 83
f 78 84 83
f 73 79 84
f 80 86 85
f 80 81 87
f 81 82 88
f 82 83 89
f 84 90 89
f 79 85 90
f 86 92 91
f 86 87 93
f 87 88 94
f 88 89 95
f 90 96 95
f 85 91 96
f 92 98 97
f 92 93 99
f 93 94 100
f 94 95 101
f 96 102 101
f 91 97 102
f 98 104 103
f 99 105 104
f 99 100 106
f 100 101 107
f 102 108 107
f 97 103 108
f 104 110 109
f 105 111 110
f 105 106 112
f 106 107 113
f 107 108 114
f 103 109 114
f 110 116 115
f 111 117 116
f 112 118 117
f 112 113 119
f 113 114 120
f 114 109 115
f 116 122 121
f 117 123 122
f 118 124 123
f 118 119 125
f 119 120 126
f 120 115 121
f 122 128 127
f 123 129 128
f 124 130 129
f 125 131 130
f 125 126 132
f 126 121 127
f 127 128 134
f 129 135 134
f 130 136 135
f 131 137 136
f 131 132 138
f 132 127 133
f 133 134 140
f 135 141 140
f 136 142 141
f 137 143 142
f 137 138 144
f 138 133 139
f 139 140 146
f 141 147 146
f 142 148 147
f 143 149 148
f 143 144 150
f 144 139 145
f 145 146 152
f 147 153 152
f 148 154 153
f 149 155 154
f 149 150 156
f 150 145 151
f 151 152 158
f 153 159 158
f 154 160 159
f 155 161 160
f 155 156 162
f 156 151 157
f 157 158 164
f 159 165 164
f 160 166 165
f 161 167 166
f 161 162 168
f 162 157 163
f 163 164 170
f 164 165 171
f 165 166 172
f 167 173 172
f 168 174 173
f 163 169 174
