# kitsune Tail1_TailCore.obj: Roblox cue frame, recentred on its bounding box
v -0.07824 -0.18945 0.72738
v -0.07473 -0.19137 0.72745
v -0.07455 -0.19523 0.72641
v -0.07787 -0.19716 0.72530
v -0.08138 -0.19523 0.72522
v -0.08156 -0.19137 0.72626
v -0.06923 -0.17377 0.67594
v -0.06456 -0.17635 0.67606
v -0.06430 -0.18149 0.67460
v -0.06872 -0.18404 0.67302
v -0.07340 -0.18146 0.67290
v -0.07366 -0.17633 0.67436
v -0.05897 -0.15649 0.62457
v -0.05314 -0.15973 0.62478
v -0.05280 -0.16610 0.62283
v -0.05828 -0.16923 0.62068
v -0.06411 -0.16599 0.62048
v -0.06445 -0.15962 0.62242
v -0.04746 -0.13848 0.57313
v -0.04052 -0.14238 0.57349
v -0.04010 -0.14997 0.57113
v -0.04661 -0.15367 0.56842
v -0.05355 -0.14977 0.56806
v -0.05397 -0.14217 0.57042
v -0.03489 -0.12055 0.52158
v -0.02691 -0.12510 0.52214
v -0.02644 -0.13391 0.51948
v -0.03395 -0.13815 0.51626
v -0.04193 -0.13359 0.51570
v -0.04240 -0.12479 0.51836
v -0.02159 -0.10338 0.46990
v -0.01263 -0.10857 0.47068
v -0.01214 -0.11855 0.46785
v -0.02062 -0.12334 0.46423
v -0.02958 -0.11815 0.46345
v -0.03007 -0.10817 0.46628
v -0.00799 -0.08750 0.41808
v 0.00188 -0.09327 0.41909
v 0.00236 -0.10438 0.41622
v -0.00704 -0.10971 0.41234
v -0.01691 -0.10393 0.41133
v -0.01739 -0.09283 0.41420
v 0.00547 -0.07324 0.36615
v 0.01617 -0.07954 0.36735
v 0.01660 -0.09170 0.36455
v 0.00632 -0.09756 0.36056
v -0.00438 -0.09125 0.35936
v -0.00481 -0.07909 0.36215
v 0.01830 -0.06076 0.31412
v 0.02977 -0.06752 0.31544
v 0.03014 -0.08064 0.31282
v 0.01904 -0.08699 0.30888
v 0.00757 -0.08023 0.30756
v 0.00720 -0.06711 0.31018
v 0.03010 -0.05004 0.26204
v 0.04226 -0.05718 0.26338
v 0.04257 -0.07113 0.26098
v 0.03073 -0.07794 0.25725
v 0.01857 -0.07080 0.25592
v 0.01826 -0.05685 0.25831
v 0.04054 -0.04091 0.20996
v 0.05328 -0.04835 0.21119
v 0.05355 -0.06300 0.20902
v 0.04107 -0.07021 0.20562
v 0.02832 -0.06277 0.20439
v 0.02805 -0.04812 0.20656
v 0.04936 -0.03308 0.15793
v 0.06260 -0.04074 0.15893
v 0.06284 -0.05593 0.15694
v 0.04983 -0.06347 0.15395
v 0.03659 -0.05581 0.15294
v 0.03636 -0.04062 0.15493
v 0.05645 -0.02615 0.10598
v 0.07006 -0.03394 0.10664
v 0.07029 -0.04952 0.10475
v 0.05690 -0.05731 0.10218
v 0.04329 -0.04952 0.10152
v 0.04306 -0.03393 0.10342
v 0.06176 -0.01966 0.05415
v 0.07562 -0.02751 0.05437
v 0.07584 -0.04332 0.05245
v 0.06222 -0.05127 0.05031
v 0.04836 -0.04342 0.05008
v 0.04814 -0.02762 0.05200
v 0.06534 -0.01314 0.00244
v 0.07929 -0.02097 0.00216
v 0.07953 -0.03683 0.00009
v 0.06581 -0.04487 -0.00169
v 0.05186 -0.03705 -0.00141
v 0.05162 -0.02118 0.00066
v 0.06726 -0.00612 -0.04915
v 0.08117 -0.01384 -0.04999
v 0.08141 -0.02959 -0.05232
v 0.06774 -0.03762 -0.05381
v 0.05383 -0.02991 -0.05297
v 0.05359 -0.01416 -0.05064
v 0.06761 0.00185 -0.10065
v 0.08132 -0.00567 -0.10206
v 0.08156 -0.02113 -0.10475
v 0.06808 -0.02908 -0.10603
v 0.05437 -0.02157 -0.10461
v 0.05414 -0.00610 -0.10192
v 0.06647 0.01116 -0.15209
v 0.07984 0.00393 -0.15407
v 0.08005 -0.01108 -0.15717
v 0.06689 -0.01886 -0.15829
v 0.05352 -0.01163 -0.15631
v 0.05331 0.00338 -0.15321
v 0.06385 0.02213 -0.20354
v 0.07673 0.01528 -0.20605
v 0.07690 0.00089 -0.20956
v 0.06419 -0.00664 -0.21055
v 0.05130 0.00021 -0.20804
v 0.05113 0.01460 -0.20453
v 0.05971 0.03498 -0.25504
v 0.07198 0.02857 -0.25803
v 0.07209 0.01495 -0.26190
v 0.05994 0.00773 -0.26276
v 0.04767 0.01414 -0.25977
v 0.04756 0.02777 -0.25590
v 0.05395 0.04980 -0.30664
v 0.06548 0.04390 -0.31004
v 0.06553 0.03117 -0.31415
v 0.05405 0.02433 -0.31486
v 0.04253 0.03022 -0.31147
v 0.04248 0.04295 -0.30736
v 0.04641 0.06653 -0.35840
v 0.05708 0.06120 -0.36208
v 0.05706 0.04945 -0.36629
v 0.04637 0.04302 -0.36682
v 0.03570 0.04835 -0.36314
v 0.03572 0.06010 -0.35893
v 0.03686 0.08496 -0.41032
v 0.04659 0.08023 -0.41416
v 0.04652 0.06952 -0.41831
v 0.03672 0.06355 -0.41861
v 0.02699 0.06828 -0.41477
v 0.02706 0.07899 -0.41062
v 0.02512 0.10469 -0.46241
v 0.03383 0.10056 -0.46627
v 0.03372 0.09094 -0.47018
v 0.02491 0.08544 -0.47022
v 0.01620 0.08957 -0.46636
v 0.01630 0.09920 -0.46246
v 0.01100 0.12513 -0.51467
v 0.01864 0.12159 -0.51839
v 0.01854 0.11308 -0.52190
v 0.01079 0.10810 -0.52168
v 0.00315 0.11164 -0.51795
v 0.00326 0.12015 -0.51445
v -0.00557 0.14553 -0.56705
v 0.00097 0.14256 -0.57049
v 0.00090 0.13518 -0.57347
v -0.00571 0.13076 -0.57300
v -0.01225 0.13373 -0.56956
v -0.01218 0.14112 -0.56659
v -0.02453 0.16501 -0.61952
v -0.01910 0.16257 -0.62253
v -0.01911 0.15634 -0.62490
v -0.02455 0.15253 -0.62424
v -0.02998 0.15496 -0.62123
v -0.02997 0.16120 -0.61887
v -0.04567 0.18257 -0.67202
v -0.04134 0.18064 -0.67449
v -0.04127 0.17558 -0.67621
v -0.04553 0.17245 -0.67545
v -0.04986 0.17437 -0.67298
v -0.04993 0.17943 -0.67126
v -0.06850 0.19716 -0.72439
v -0.06527 0.19573 -0.72625
v -0.06518 0.19191 -0.72745
v -0.06833 0.18953 -0.72679
v -0.07157 0.19097 -0.72493
v -0.07165 0.19478 -0.72373
v -0.07805 -0.19330 0.72634
v -0.06842 0.19335 -0.72559
f 1 8 7
f 3 8 2
f 4 9 3
f 5 10 4
f 5 12 11
f 6 7 12
f 7 14 13
f 8 15 14
f 9 16 15
f 11 16 10
f 12 17 11
f 7 18 12
f 13 20 19
f 14 21 20
f 15 22 21
f 17 22 16
f 18 23 17
f 13 24 18
f 19 26 25
f 20 27 26
f 21 28 27
f 23 28 22
f 24 29 23
f 19 30 24
f 26 31 25
f 26 33 32
f 27 34 33
f 28 35 34
f 30 35 29
f 25 36 30
f 32 37 31
f 32 39 38
f 33 40 39
f 34 41 40
f 36 41 35
f 31 42 36
f 38 43 37
f 38 45 44
f 39 46 45
f 40 47 46
f 42 47 41
f 37 48 42
f 44 49 43
f 45 50 44
f 45 52 51
f 46 53 52
f 47 54 53
f 43 54 48
f 50 55 49
f 51 56 50
f 51 58 57
f 52 59 58
f 53 60 59
f 49 60 54
f 56 61 55
f 57 62 56
f 57 64 63
f 58 65 64
f 59 66 65
f 55 66 60
f 62 67 61
f 63 68 62
f 64 69 63
f 64 71 70
f 65 72 71
f 66 67 72
f 68 73 67
f 69 74 68
f 70 75 69
f 70 77 76
f 71 78 77
f 72 73 78
f 74 79 73
f 75 80 74
f 76 81 75
f 76 83 82
f 77 84 83
f 78 79 84
f 80 85 79
f 81 86 80
f 82 87 81
f 82 89 88
f 83 90 89
f 84 85 90
f 86 91 85
f 87 92 86
f 88 93 87
f 88 95 94
f 89 96 95
f 90 91 96
f 92 97 91
f 93 98 92
f 94 99 93
f 94 101 100
f 95 102 101
f 96 97 102
f 98 103 97
f 99 104 98
f 100 105 99
f 100 107 106
f 101 108 107
f 102 103 108
f 104 109 103
f 105 110 104
f 106 111 105
f 106 113 112
f 107 114 113
f 108 109 114
f 110 115 109
f 111 116 110
f 111 118 117
f 112 119 118
f 113 120 119
f 109 120 114
f 116 121 115
f 116 123 122
f 117 124 123
f 118 125 124
f 120 125 119
f 115 126 120
f 122 127 121
f 122 129 128
f 123 130 129
f 125 130 124
f 126 131 125
f 121 132 126
f 127 134 133
f 128 135 134
f 129 136 135
f 131 136 130
f 132 137 131
f 127 138 132
f 133 140 139
f 134 141 140
f 135 142 141
f 137 142 136
f 138 143 137
f 133 144 138
f 139 146 145
f 140 147 146
f 141 148 147
f 143 148 142
f 144 149 143
f 139 150 144
f 145 152 151
f 146 153 152
f 147 154 153
f 149 154 148
f 150 155 149
f 145 156 150
f 151 158 157
f 152 159 158
f 153 160 159
f 155 160 154
f 156 161 155
f 151 162 156
f 157 164 163
f 158 165 164
f 159 166 165
f 161 166 160
f 162 167 161
f 157 168 162
f 163 170 169
f 165 170 164
f 166 171 165
f 167 172 166
f 167 174 173
f 168 169 174
f 175 2 1
f 175 3 2
f 175 4 3
f 175 5 4
f 175 6 5
f 175 1 6
f 169 170 176
f 170 171 176
f 171 172 176
f 172 173 176
f 173 174 176
f 174 169 176
f 1 2 8
f 3 9 8
f 4 10 9
f 5 11 10
f 5 6 12
f 6 1 7
f 7 8 14
f 8 9 15
f 9 10 16
f 11 17 16
f 12 18 17
f 7 13 18
f 13 14 20
f 14 15 21
f 15 16 22
f 17 23 22
f 18 24 23
f 13 19 24
f 19 20 26
f 20 21 27
f 21 22 28
f 23 29 28
f 24 30 29
f 19 25 30
f 26 32 31
f 26 27 33
f 27 28 34
f 28 29 35
f 30 36 35
f 25 31 36
f 32 38 37
f 32 33 39
f 33 34 40
f 34 35 41
f 36 42 41
f 31 37 42
f 38 44 43
f 38 39 45
f 39 40 46
f 40 41 47
f 42 48 47
f 37 43 48
f 44 50 49
f 45 51 50
f 45 46 52
f 46 47 53
f 47 48 54
f 43 49 54
f 50 56 55
f 51 57 56
f 51 52 58
f 52 53 59
f 53 54 60
f 49 55 60
f 56 62 61
f 57 63 62
f 57 58 64
f 58 59 65
f 59 60 66
f 55 61 66
f 62 68 67
f 63 69 68
f 64 70 69
f 64 65 71
f 65 66 72
f 66 61 67
f 68 74 73
f 69 75 74
f 70 76 75
f 70 71 77
f 71 72 78
f 72 67 73
f 74 80 79
f 75 81 80
f 76 82 81
f 76 77 83
f 77 78 84
f 78 73 79
f 80 86 85
f 81 87 86
f 82 88 87
f 82 83 89
f 83 84 90
f 84 79 85
f 86 92 91
f 87 93 92
f 88 94 93
f 88 89 95
f 89 90 96
f 90 85 91
f 92 98 97
f 93 99 98
f 94 100 99
f 94 95 101
f 95 96 102
f 96 91 97
f 98 104 103
f 99 105 104
f 100 106 105
f 100 101 107
f 101 102 108
f 102 97 103
f 104 110 109
f 105 111 110
f 106 112 111
f 106 107 113
f 107 108 114
f 108 103 109
f 110 116 115
f 111 117 116
f 111 112 118
f 112 113 119
f 113 114 120
f 109 115 120
f 116 122 121
f 116 117 123
f 117 118 124
f 118 119 125
f 120 126 125
f 115 121 126
f 122 128 127
f 122 123 129
f 123 124 130
f 125 131 130
f 126 132 131
f 121 127 132
f 127 128 134
f 128 129 135
f 129 130 136
f 131 137 136
f 132 138 137
f 127 133 138
f 133 134 140
f 134 135 141
f 135 136 142
f 137 143 142
f 138 144 143
f 133 139 144
f 139 140 146
f 140 141 147
f 141 142 148
f 143 149 148
f 144 150 149
f 139 145 150
f 145 146 152
f 146 147 153
f 147 148 154
f 149 155 154
f 150 156 155
f 145 151 156
f 151 152 158
f 152 153 159
f 153 154 160
f 155 161 160
f 156 162 161
f 151 157 162
f 157 158 164
f 158 159 165
f 159 160 166
f 161 167 166
f 162 168 167
f 157 163 168
f 163 164 170
f 165 171 170
f 166 172 171
f 167 173 172
f 167 168 174
f 168 163 169
