# kitsune Tail3_TailCore.obj: Roblox cue frame, recentred on its bounding box
v 0.25088 0.03990 -0.68900
v 0.24765 0.03791 -0.69028
v 0.24779 0.03394 -0.69071
v 0.25116 0.03195 -0.68987
v 0.25439 0.03394 -0.68858
v 0.25425 0.03791 -0.68815
v 0.23493 0.03528 -0.63959
v 0.23066 0.03264 -0.64142
v 0.23087 0.02733 -0.64204
v 0.23533 0.02467 -0.64082
v 0.23960 0.02731 -0.63899
v 0.23940 0.03261 -0.63837
v 0.21623 0.02974 -0.59010
v 0.21101 0.02648 -0.59266
v 0.21130 0.01988 -0.59354
v 0.21681 0.01653 -0.59185
v 0.22204 0.01979 -0.58929
v 0.22175 0.02640 -0.58842
v 0.19574 0.02311 -0.54058
v 0.18959 0.01925 -0.54384
v 0.18999 0.01139 -0.54501
v 0.19655 0.00738 -0.54293
v 0.20271 0.01124 -0.53966
v 0.20230 0.01910 -0.53849
v 0.17436 0.01536 -0.49102
v 0.16730 0.01092 -0.49492
v 0.16783 0.00185 -0.49643
v 0.17542 -0.00277 -0.49403
v 0.18248 0.00166 -0.49013
v 0.18195 0.01073 -0.48862
v 0.15288 0.00663 -0.44147
v 0.14494 0.00163 -0.44591
v 0.14559 -0.00857 -0.44774
v 0.15419 -0.01378 -0.44513
v 0.16214 -0.00878 -0.44069
v 0.16148 0.00142 -0.43886
v 0.13195 -0.00284 -0.39195
v 0.12314 -0.00838 -0.39679
v 0.12390 -0.01963 -0.39891
v 0.13348 -0.02535 -0.39620
v 0.14230 -0.01981 -0.39136
v 0.14153 -0.00855 -0.38923
v 0.11206 -0.01268 -0.34250
v 0.10240 -0.01875 -0.34758
v 0.10325 -0.03098 -0.34993
v 0.11375 -0.03715 -0.34720
v 0.12341 -0.03109 -0.34211
v 0.12256 -0.01886 -0.33976
v 0.09349 -0.02254 -0.29314
v 0.08304 -0.02910 -0.29832
v 0.08393 -0.04222 -0.30080
v 0.09527 -0.04878 -0.29810
v 0.10572 -0.04222 -0.29291
v 0.10483 -0.02910 -0.29044
v 0.07637 -0.03202 -0.24391
v 0.06519 -0.03903 -0.24904
v 0.06609 -0.05294 -0.25153
v 0.07816 -0.05984 -0.24888
v 0.08934 -0.05283 -0.24374
v 0.08844 -0.03892 -0.24126
v 0.06064 -0.04078 -0.19480
v 0.04882 -0.04819 -0.19978
v 0.04969 -0.06279 -0.20215
v 0.06237 -0.06997 -0.19953
v 0.07419 -0.06256 -0.19455
v 0.07332 -0.04796 -0.19219
v 0.04610 -0.04852 -0.14583
v 0.03376 -0.05626 -0.15058
v 0.03456 -0.07142 -0.15269
v 0.04771 -0.07884 -0.15005
v 0.06005 -0.07110 -0.14530
v 0.05925 -0.05594 -0.14319
v 0.03246 -0.05502 -0.09696
v 0.01971 -0.06300 -0.10145
v 0.02042 -0.07859 -0.10320
v 0.03388 -0.08619 -0.10046
v 0.04663 -0.07821 -0.09597
v 0.04592 -0.06262 -0.09422
v 0.01933 -0.06010 -0.04819
v 0.00631 -0.06823 -0.05243
v 0.00690 -0.08410 -0.05373
v 0.02051 -0.09182 -0.05078
v 0.03353 -0.08369 -0.04654
v 0.03294 -0.06783 -0.04525
v 0.00628 -0.06365 0.00052
v -0.00686 -0.07184 -0.00352
v -0.00641 -0.08781 -0.00429
v 0.00718 -0.09560 -0.00104
v 0.02032 -0.08742 0.00300
v 0.01987 -0.07144 0.00377
v -0.00713 -0.06558 0.04919
v -0.02025 -0.07373 0.04531
v -0.01996 -0.08965 0.04509
v -0.00654 -0.09742 0.04874
v 0.00658 -0.08927 0.05262
v 0.00628 -0.07335 0.05284
v -0.02130 -0.06582 0.09785
v -0.03425 -0.07385 0.09409
v -0.03413 -0.08954 0.09443
v -0.02106 -0.09721 0.09853
v -0.00811 -0.08918 0.10230
v -0.00822 -0.07348 0.10196
v -0.03657 -0.06428 0.14653
v -0.04922 -0.07212 0.14284
v -0.04929 -0.08742 0.14374
v -0.03671 -0.09488 0.14831
v -0.02406 -0.08705 0.15199
v -0.02400 -0.07175 0.15110
v -0.05323 -0.06088 0.19523
v -0.06544 -0.06845 0.19164
v -0.06570 -0.08319 0.19305
v -0.05375 -0.09036 0.19806
v -0.04154 -0.08280 0.20165
v -0.04127 -0.06805 0.20024
v -0.07139 -0.05549 0.24399
v -0.08306 -0.06272 0.24052
v -0.08352 -0.07675 0.24240
v -0.07231 -0.08354 0.24776
v -0.06064 -0.07631 0.25122
v -0.06018 -0.06228 0.24934
v -0.09107 -0.04797 0.29280
v -0.10210 -0.05479 0.28953
v -0.10275 -0.06796 0.29183
v -0.09236 -0.07430 0.29739
v -0.08133 -0.06747 0.30067
v -0.08068 -0.05430 0.29837
v -0.11211 -0.03815 0.34170
v -0.12243 -0.04450 0.33870
v -0.12325 -0.05668 0.34133
v -0.11374 -0.06251 0.34695
v -0.10342 -0.05615 0.34995
v -0.10260 -0.04397 0.34732
v -0.13418 -0.02589 0.39069
v -0.14373 -0.03170 0.38806
v -0.14468 -0.04278 0.39093
v -0.13609 -0.04805 0.39642
v -0.12654 -0.04224 0.39904
v -0.12558 -0.03117 0.39618
v -0.15677 -0.01109 0.43978
v -0.16550 -0.01628 0.43760
v -0.16655 -0.02617 0.44060
v -0.15887 -0.03087 0.44577
v -0.15015 -0.02568 0.44795
v -0.14910 -0.01579 0.44496
v -0.17923 0.00629 0.48900
v -0.18708 0.00178 0.48731
v -0.18817 -0.00686 0.49032
v -0.18141 -0.01098 0.49501
v -0.17356 -0.00648 0.49669
v -0.17247 0.00216 0.49369
v -0.20075 0.02615 0.53835
v -0.20766 0.02237 0.53718
v -0.20872 0.01502 0.54006
v -0.20287 0.01146 0.54411
v -0.19596 0.01524 0.54528
v -0.19490 0.02258 0.54240
v -0.22040 0.04827 0.58782
v -0.22630 0.04524 0.58715
v -0.22727 0.03919 0.58978
v -0.22233 0.03616 0.59309
v -0.21643 0.03919 0.59377
v -0.21546 0.04524 0.59113
v -0.23719 0.07222 0.63742
v -0.24201 0.06994 0.63718
v -0.24283 0.06517 0.63944
v -0.23882 0.06267 0.64194
v -0.23400 0.06495 0.64219
v -0.23318 0.06972 0.63993
v -0.25011 0.09742 0.68717
v -0.25376 0.09578 0.68711
v -0.25439 0.09223 0.68885
v -0.25137 0.09033 0.69065
v -0.24772 0.09197 0.69071
v -0.24709 0.09552 0.68897
v 0.25102 0.03592 -0.68943
v -0.25074 0.09388 0.68891
f 1 8 7
f 2 9 8
f 4 9 3
f 5 10 4
f 6 11 5
f 6 7 12
f 8 13 7
f 8 15 14
f 9 16 15
f 10 17 16
f 12 17 11
f 7 18 12
f 14 19 13
f 14 21 20
f 15 22 21
f 16 23 22
f 18 23 17
f 13 24 18
f 20 25 19
f 21 26 20
f 21 28 27
f 22 29 28
f 23 30 29
f 19 30 24
f 26 31 25
f 27 32 26
f 27 34 33
f 28 35 34
f 29 36 35
f 25 36 30
f 32 37 31
f 33 38 32
f 33 40 39
f 34 41 40
f 35 42 41
f 31 42 36
f 38 43 37
f 39 44 38
f 39 46 45
f 40 47 46
f 41 48 47
f 37 48 42
f 44 49 43
f 45 50 44
f 46 51 45
f 46 53 52
f 47 54 53
f 48 49 54
f 50 55 49
f 51 56 50
f 52 57 51
f 52 59 58
f 53 60 59
f 54 55 60
f 56 61 55
f 57 62 56
f 58 63 57
f 58 65 64
f 59 66 65
f 60 61 66
f 61 68 67
f 63 68 62
f 64 69 63
f 65 70 64
f 65 72 71
f 66 67 72
f 67 74 73
f 69 74 68
f 70 75 69
f 71 76 70
f 71 78 77
f 72 73 78
f 73 80 79
f 75 80 74
f 76 81 75
f 77 82 76
f 77 84 83
f 78 79 84
f 79 86 85
f 81 86 80
f 82 87 81
f 83 88 82
f 83 90 89
f 84 85 90
f 85 92 91
f 87 92 86
f 88 93 87
f 89 94 88
f 89 96 95
f 90 91 96
f 91 98 97
f 93 98 92
f 94 99 93
f 95 100 94
f 95 102 101
f 96 97 102
f 97 104 103
f 99 104 98
f 100 105 99
f 101 106 100
f 101 108 107
f 102 103 108
f 103 110 109
f 105 110 104
f 106 111 105
f 107 112 106
f 107 114 113
f 108 109 114
f 110 115 109
f 111 116 110
f 112 117 111
f 112 119 118
f 113 120 119
f 114 115 120
f 116 121 115
f 117 122 116
f 117 124 123
f 118 125 124
f 119 126 125
f 115 126 120
f 122 127 121
f 123 128 122
f 123 130 129
f 124 131 130
f 125 132 131
f 121 132 126
f 128 133 127
f 129 134 128
f 129 136 135
f 130 137 136
f 131 138 137
f 127 138 132
f 134 139 133
f 135 140 134
f 135 142 141
f 136 143 142
f 137 144 143
f 133 144 138
f 140 145 139
f 140 147 146
f 141 148 147
f 142 149 148
f 144 149 143
f 139 150 144
f 146 151 145
f 146 153 152
f 147 154 153
f 148 155 154
f 150 155 149
f 145 156 150
f 152 157 151
f 152 159 158
f 153 160 159
f 154 161 160
f 156 161 155
f 151 162 156
f 158 163 157
f 158 165 164
f 159 166 165
f 160 167 166
f 162 167 161
f 157 168 162
f 163 170 169
f 164 171 170
f 166 171 165
f 167 172 166
f 168 173 167
f 168 169 174
f 175 2 1
f 175 3 2
f 175 4 3
f 175 5 4
f 175 6 5
f 175 1 6
f 169 170 176
f 170 171 176
f 171 172 176
f 172 173 176
f 173 174 176
f 174 169 176
f 1 2 8
f 2 3 9
f 4 10 9
f 5 11 10
f 6 12 11
f 6 1 7
f 8 14 13
f 8 9 15
f 9 10 16
f 10 11 17
f 12 18 17
f 7 13 18
f 14 20 19
f 14 15 21
f 15 16 22
f 16 17 23
f 18 24 23
f 13 19 24
f 20 26 25
f 21 27 26
f 21 22 28
f 22 23 29
f 23 24 30
f 19 25 30
f 26 32 31
f 27 33 32
f 27 28 34
f 28 29 35
f 29 30 36
f 25 31 36
f 32 38 37
f 33 39 38
f 33 34 40
f 34 35 41
f 35 36 42
f 31 37 42
f 38 44 43
f 39 45 44
f 39 40 46
f 40 41 47
f 41 42 48
f 37 43 48
f 44 50 49
f 45 51 50
f 46 52 51
f 46 47 53
f 47 48 54
f 48 43 49
f 50 56 55
f 51 57 56
f 52 58 57
f 52 53 59
f 53 54 60
f 54 49 55
f 56 62 61
f 57 63 62
f 58 64 63
f 58 59 65
f 59 60 66
f 60 55 61
f 61 62 68
f 63 69 68
f 64 70 69
f 65 71 70
f 65 66 72
f 66 61 67
f 67 68 74
f 69 75 74
f 70 76 75
f 71 77 76
f 71 72 78
f 72 67 73
f 73 74 80
f 75 81 80
f 76 82 81
f 77 83 82
f 77 78 84
f 78 73 79
f 79 80 86
f 81 87 86
f 82 88 87
f 83 89 88
f 83 84 90
f 84 79 85
f 85 86 92
f 87 93 92
f 88 94 93
f 89 95 94
f 89 90 96
f 90 85 91
f 91 92 98
f 93 99 98
f 94 100 99
f 95 101 100
f 95 96 102
f 96 91 97
f 97 98 104
f 99 105 104
f 100 106 105
f 101 107 106
f 101 102 108
f 102 97 103
f 103 104 110
f 105 111 110
f 106 112 111
f 107 113 112
f 107 108 114
f 108 103 109
f 110 116 115
f 111 117 116
f 112 118 117
f 112 113 119
f 113 114 120
f 114 109 115
f 116 122 121
f 117 123 122
f 117 118 124
f 118 119 125
f 119 120 126
f 115 121 126
f 122 128 127
f 123 129 128
f 123 124 130
f 124 125 131
f 125 126 132
f 121 127 132
f 128 134 133
f 129 135 134
f 129 130 136
f 130 131 137
f 131 132 138
f 127 133 138
f 134 140 139
f 135 141 140
f 135 136 142
f 136 137 143
f 137 138 144
f 133 139 144
f 140 146 145
f 140 141 147
f 141 142 148
f 142 143 149
f 144 150 149
f 139 145 150
f 146 152 151
f 146 147 153
f 147 148 154
f 148 149 155
f 150 156 155
f 145 151 156
f 152 158 157
f 152 153 159
f 153 154 160
f 154 155 161
f 156 162 161
f 151 157 162
f 158 164 163
f 158 159 165
f 159 160 166
f 160 161 167
f 162 168 167
f 157 163 168
f 163 164 170
f 164 165 171
f 166 172 171
f 167 173 172
f 168 174 173
f 168 163 169
