# kitsune Tail9_TailCore.obj: Roblox cue frame, recentred on its bounding box
v -0.13881 -0.21232 -0.68219
v -0.14226 -0.21420 -0.68142
v -0.14222 -0.21796 -0.68006
v -0.13874 -0.21984 -0.67946
v -0.13530 -0.21796 -0.68023
v -0.13533 -0.21420 -0.68159
v -0.13764 -0.19346 -0.63417
v -0.14224 -0.19594 -0.63307
v -0.14220 -0.20092 -0.63112
v -0.13755 -0.20341 -0.63026
v -0.13294 -0.20093 -0.63137
v -0.13299 -0.19595 -0.63332
v -0.13615 -0.17176 -0.58633
v -0.14190 -0.17480 -0.58481
v -0.14183 -0.18090 -0.58210
v -0.13602 -0.18395 -0.58090
v -0.13028 -0.18091 -0.58241
v -0.13035 -0.17482 -0.58513
v -0.13498 -0.14795 -0.53846
v -0.14184 -0.15156 -0.53661
v -0.14175 -0.15873 -0.53315
v -0.13482 -0.16230 -0.53155
v -0.12796 -0.15869 -0.53340
v -0.12805 -0.15151 -0.53686
v -0.13456 -0.12281 -0.49052
v -0.14249 -0.12700 -0.48843
v -0.14239 -0.13523 -0.48431
v -0.13437 -0.13927 -0.48227
v -0.12644 -0.13507 -0.48437
v -0.12654 -0.12684 -0.48849
v -0.13511 -0.09713 -0.44248
v -0.14405 -0.10192 -0.44024
v -0.14394 -0.11119 -0.43556
v -0.13489 -0.11566 -0.43311
v -0.12595 -0.11087 -0.43534
v -0.12606 -0.10160 -0.44003
v -0.13664 -0.07162 -0.39429
v -0.14652 -0.07702 -0.39201
v -0.14640 -0.08730 -0.38690
v -0.13640 -0.09219 -0.38408
v -0.12652 -0.08680 -0.38636
v -0.12665 -0.07651 -0.39147
v -0.13902 -0.04691 -0.34595
v -0.14975 -0.05288 -0.34369
v -0.14960 -0.06416 -0.33832
v -0.13873 -0.06945 -0.33521
v -0.12800 -0.06348 -0.33747
v -0.12815 -0.05221 -0.34284
v -0.14195 -0.02346 -0.29745
v -0.15343 -0.02997 -0.29524
v -0.15326 -0.04218 -0.28977
v -0.14160 -0.04788 -0.28650
v -0.13012 -0.04137 -0.28870
v -0.13029 -0.02916 -0.29418
v -0.14505 -0.00159 -0.24881
v -0.15719 -0.00855 -0.24665
v -0.15699 -0.02162 -0.24121
v -0.14465 -0.02773 -0.23792
v -0.13250 -0.02077 -0.24008
v -0.13271 -0.00770 -0.24552
v -0.14791 0.01855 -0.20006
v -0.16060 0.01123 -0.19791
v -0.16037 -0.00260 -0.19261
v -0.14744 -0.00911 -0.18946
v -0.13475 -0.00179 -0.19161
v -0.13498 0.01204 -0.19691
v -0.15007 0.03696 -0.15124
v -0.16321 0.02939 -0.14901
v -0.16295 0.01494 -0.14392
v -0.14956 0.00805 -0.14107
v -0.13642 0.01562 -0.14330
v -0.13668 0.03008 -0.14838
v -0.15111 0.05380 -0.10239
v -0.16458 0.04609 -0.09997
v -0.16431 0.03116 -0.09513
v -0.15059 0.02394 -0.09270
v -0.13713 0.03164 -0.09512
v -0.13739 0.04657 -0.09997
v -0.15066 0.06930 -0.05356
v -0.16431 0.06157 -0.05083
v -0.16405 0.04634 -0.04621
v -0.15014 0.03882 -0.04432
v -0.13648 0.04655 -0.04705
v -0.13674 0.06178 -0.05167
v -0.14835 0.08377 -0.00477
v -0.16205 0.07614 -0.00161
v -0.16180 0.06077 0.00283
v -0.14786 0.05303 0.00411
v -0.13416 0.06067 0.00094
v -0.13440 0.07604 -0.00349
v -0.14389 0.09756 0.04397
v -0.15747 0.09012 0.04766
v -0.15724 0.07479 0.05196
v -0.14342 0.06690 0.05258
v -0.12984 0.07434 0.04889
v -0.13007 0.08967 0.04459
v -0.13700 0.11098 0.09267
v -0.15031 0.10383 0.09693
v -0.15008 0.08870 0.10114
v -0.13656 0.08074 0.10109
v -0.12325 0.08790 0.09683
v -0.12347 0.10302 0.09262
v -0.12744 0.12430 0.14136
v -0.14030 0.11750 0.14619
v -0.14008 0.10274 0.15032
v -0.12700 0.09478 0.14962
v -0.11414 0.10158 0.14478
v -0.11437 0.11634 0.14065
v -0.11500 0.13767 0.19006
v -0.12725 0.13129 0.19542
v -0.12702 0.11704 0.19945
v -0.11455 0.10917 0.19813
v -0.10230 0.11554 0.19277
v -0.10253 0.12979 0.18874
v -0.09948 0.15112 0.23882
v -0.11098 0.14522 0.24459
v -0.11076 0.13160 0.24847
v -0.09903 0.12389 0.24658
v -0.08753 0.12980 0.24081
v -0.08775 0.14342 0.23693
v -0.08073 0.16456 0.28766
v -0.09138 0.15915 0.29369
v -0.09118 0.14627 0.29734
v -0.08033 0.13881 0.29495
v -0.06968 0.14423 0.28893
v -0.06988 0.15710 0.28528
v -0.05870 0.17771 0.33660
v -0.06842 0.17279 0.34270
v -0.06828 0.16076 0.34601
v -0.05841 0.15363 0.34323
v -0.04868 0.15855 0.33713
v -0.04883 0.17059 0.33382
v -0.03342 0.19013 0.38563
v -0.04217 0.18571 0.39160
v -0.04213 0.17460 0.39449
v -0.03332 0.16790 0.39141
v -0.02456 0.17232 0.38544
v -0.02461 0.18343 0.38255
v -0.00507 0.20125 0.43474
v -0.01286 0.19732 0.44038
v -0.01295 0.18721 0.44276
v -0.00526 0.18104 0.43951
v 0.00252 0.18497 0.43388
v 0.00262 0.19508 0.43149
v 0.02597 0.21040 0.48390
v 0.01914 0.20695 0.48902
v 0.01887 0.19793 0.49085
v 0.02542 0.19237 0.48757
v 0.03225 0.19582 0.48245
v 0.03252 0.20484 0.48062
v 0.05911 0.21684 0.53307
v 0.05322 0.21386 0.53751
v 0.05276 0.20601 0.53878
v 0.05821 0.20115 0.53561
v 0.06410 0.20413 0.53117
v 0.06456 0.21197 0.52990
v 0.09357 0.21984 0.58221
v 0.08858 0.21734 0.58586
v 0.08797 0.21074 0.58660
v 0.09235 0.20664 0.58369
v 0.09734 0.20914 0.58003
v 0.09795 0.21574 0.57929
v 0.12833 0.21874 0.63128
v 0.12424 0.21674 0.63407
v 0.12353 0.21145 0.63435
v 0.12690 0.20816 0.63183
v 0.13099 0.21016 0.62903
v 0.13171 0.21545 0.62876
v 0.16209 0.21301 0.68008
v 0.15899 0.21152 0.68211
v 0.15836 0.20757 0.68219
v 0.16084 0.20511 0.68024
v 0.16395 0.20660 0.67821
v 0.16458 0.21055 0.67813
v -0.13878 -0.21608 -0.68083
v 0.16147 0.20906 0.68016
f 2 7 1
f 3 8 2
f 4 9 3
f 4 11 10
f 5 12 11
f 6 7 12
f 7 14 13
f 8 15 14
f 10 15 9
f 11 16 10
f 12 17 11
f 12 13 18
f 13 20 19
f 14 21 20
f 15 22 21
f 17 22 16
f 18 23 17
f 13 24 18
f 19 26 25
f 20 27 26
f 21 28 27
f 23 28 22
f 24 29 23
f 19 30 24
f 25 32 31
f 26 33 32
f 27 34 33
f 29 34 28
f 30 35 29
f 25 36 30
f 31 38 37
f 32 39 38
f 33 40 39
f 35 40 34
f 36 41 35
f 31 42 36
f 38 43 37
f 38 45 44
f 39 46 45
f 40 47 46
f 42 47 41
f 37 48 42
f 44 49 43
f 44 51 50
f 45 52 51
f 46 53 52
f 48 53 47
f 43 54 48
f 50 55 49
f 50 57 56
f 51 58 57
f 52 59 58
f 54 59 53
f 49 60 54
f 56 61 55
f 57 62 56
f 57 64 63
f 58 65 64
f 59 66 65
f 55 66 60
f 62 67 61
f 63 68 62
f 63 70 69
f 64 71 70
f 65 72 71
f 61 72 66
f 68 73 67
f 69 74 68
f 69 76 75
f 70 77 76
f 71 78 77
f 67 78 72
f 74 79 73
f 75 80 74
f 75 82 81
f 76 83 82
f 77 84 83
f 73 84 78
f 80 85 79
f 81 86 80
f 81 88 87
f 82 89 88
f 83 90 89
f 79 90 84
f 86 91 85
f 87 92 86
f 87 94 93
f 88 95 94
f 89 96 95
f 85 96 90
f 92 97 91
f 93 98 92
f 93 100 99
f 94 101 100
f 95 102 101
f 91 102 96
f 98 103 97
f 99 104 98
f 99 106 105
f 100 107 106
f 101 108 107
f 97 108 102
f 104 109 103
f 105 110 104
f 105 112 111
f 106 113 112
f 107 114 113
f 103 114 108
f 110 115 109
f 110 117 116
f 111 118 117
f 112 119 118
f 114 119 113
f 109 120 114
f 115 122 121
f 116 123 122
f 117 124 123
f 119 124 118
f 120 125 119
f 115 126 120
f 121 128 127
f 122 129 128
f 123 130 129
f 125 130 124
f 126 131 125
f 121 132 126
f 127 134 133
f 128 135 134
f 129 136 135
f 131 136 130
f 132 137 131
f 127 138 132
f 133 140 139
f 134 141 140
f 135 142 141
f 137 142 136
f 138 143 137
f 133 144 138
f 139 146 145
f 140 147 146
f 141 148 147
f 143 148 142
f 144 149 143
f 144 145 150
f 145 152 151
f 146 153 152
f 148 153 147
f 149 154 148
f 150 155 149
f 150 151 156
f 151 158 157
f 152 159 158
f 154 159 153
f 155 160 154
f 156 161 155
f 156 157 162
f 157 164 163
f 158 165 164
f 160 165 159
f 161 166 160
f 162 167 161
f 162 163 168
f 164 169 163
f 165 170 164
f 166 171 165
f 166 173 172
f 167 174 173
f 168 169 174
f 175 2 1
f 175 3 2
f 175 4 3
f 175 5 4
f 175 6 5
f 175 1 6
f 169 170 176
f 170 171 176
f 171 172 176
f 172 173 176
f 173 174 176
f 174 169 176
f 2 8 7
f 3 9 8
f 4 10 9
f 4 5 11
f 5 6 12
f 6 1 7
f 7 8 14
f 8 9 15
f 10 16 15
f 11 17 16
f 12 18 17
f 12 7 13
f 13 14 20
f 14 15 21
f 15 16 22
f 17 23 22
f 18 24 23
f 13 19 24
f 19 20 26
f 20 21 27
f 21 22 28
f 23 29 28
f 24 30 29
f 19 25 30
f 25 26 32
f 26 27 33
f 27 28 34
f 29 35 34
f 30 36 35
f 25 31 36
f 31 32 38
f 32 33 39
f 33 34 40
f 35 41 40
f 36 42 41
f 31 37 42
f 38 44 43
f 38 39 45
f 39 40 46
f 40 41 47
f 42 48 47
f 37 43 48
f 44 50 49
f 44 45 51
f 45 46 52
f 46 47 53
f 48 54 53
f 43 49 54
f 50 56 55
f 50 51 57
f 51 52 58
f 52 53 59
f 54 60 59
f 49 55 60
f 56 62 61
f 57 63 62
f 57 58 64
f 58 59 65
f 59 60 66
f 55 61 66
f 62 68 67
f 63 69 68
f 63 64 70
f 64 65 71
f 65 66 72
f 61 67 72
f 68 74 73
f 69 75 74
f 69 70 76
f 70 71 77
f 71 72 78
f 67 73 78
f 74 80 79
f 75 81 80
f 75 76 82
f 76 77 83
f 77 78 84
f 73 79 84
f 80 86 85
f 81 87 86
f 81 82 88
f 82 83 89
f 83 84 90
f 79 85 90
f 86 92 91
f 87 93 92
f 87 88 94
f 88 89 95
f 89 90 96
f 85 91 96
f 92 98 97
f 93 99 98
f 93 94 100
f 94 95 101
f 95 96 102
f 91 97 102
f 98 104 103
f 99 105 104
f 99 100 106
f 100 101 107
f 101 102 108
f 97 103 108
f 104 110 109
f 105 111 110
f 105 106 112
f 106 107 113
f 107 108 114
f 103 109 114
f 110 116 115
f 110 111 117
f 111 112 118
f 112 113 119
f 114 120 119
f 109 115 120
f 115 116 122
f 116 117 123
f 117 118 124
f 119 125 124
f 120 126 125
f 115 121 126
f 121 122 128
f 122 123 129
f 123 124 130
f 125 131 130
f 126 132 131
f 121 127 132
f 127 128 134
f 128 129 135
f 129 130 136
f 131 137 136
f 132 138 137
f 127 133 138
f 133 134 140
f 134 135 141
f 135 136 142
f 137 143 142
f 138 144 143
f 133 139 144
f 139 140 146
f 140 141 147
f 141 142 148
f 143 149 148
f 144 150 149
f 144 139 145
f 145 146 152
f 146 147 153
f 148 154 153
f 149 155 154
f 150 156 155
f 150 145 151
f 151 152 158
f 152 153 159
f 154 160 159
f 155 161 160
f 156 162 161
f 156 151 157
f 157 158 164
f 158 159 165
f 160 166 165
f 161 167 166
f 162 168 167
f 162 157 163
f 164 170 169
f 165 171 170
f 166 172 171
f 166 167 173
f 167 168 174
f 168 163 169
