# kitsune Tail2_TailFire.obj: Roblox cue frame, recentred on its bounding box
v 0.09161 -0.19315 -0.63122
v 0.08286 -0.19840 -0.62871
v 0.07756 -0.21216 -0.62258
v 0.07775 -0.22915 -0.61518
v 0.08336 -0.24291 -0.60933
v 0.09223 -0.24816 -0.60726
v 0.10098 -0.24291 -0.60978
v 0.10628 -0.22915 -0.61591
v 0.10609 -0.21216 -0.62331
v 0.10049 -0.19840 -0.62916
v 0.09258 -0.16080 -0.59352
v 0.07956 -0.16850 -0.58955
v 0.07171 -0.18871 -0.57990
v 0.07201 -0.21370 -0.56825
v 0.08035 -0.23393 -0.55906
v 0.09355 -0.24167 -0.55583
v 0.10656 -0.23396 -0.55980
v 0.11442 -0.21376 -0.56946
v 0.11412 -0.18877 -0.58111
v 0.10578 -0.16854 -0.59030
v 0.09383 -0.13017 -0.55546
v 0.07778 -0.13940 -0.54996
v 0.06813 -0.16379 -0.53689
v 0.06856 -0.19402 -0.52123
v 0.07890 -0.21854 -0.50896
v 0.09521 -0.22799 -0.50477
v 0.11125 -0.21876 -0.51026
v 0.12091 -0.19437 -0.52333
v 0.12048 -0.16414 -0.53900
v 0.11014 -0.13962 -0.55127
v 0.09605 -0.09887 -0.51649
v 0.07743 -0.10926 -0.50944
v 0.06626 -0.13712 -0.49326
v 0.06682 -0.17181 -0.47414
v 0.07889 -0.20008 -0.45938
v 0.09787 -0.21113 -0.45461
v 0.11649 -0.20073 -0.46166
v 0.12766 -0.17287 -0.47784
v 0.12710 -0.13818 -0.49696
v 0.11503 -0.10991 -0.51172
v 0.09970 -0.06714 -0.47640
v 0.07882 -0.07847 -0.46784
v 0.06634 -0.10942 -0.44902
v 0.06701 -0.14818 -0.42713
v 0.08058 -0.17993 -0.41053
v 0.10187 -0.19256 -0.40556
v 0.12274 -0.18123 -0.41412
v 0.13523 -0.15028 -0.43295
v 0.13456 -0.11152 -0.45484
v 0.12099 -0.07977 -0.47144
v 0.10495 -0.03557 -0.43505
v 0.08211 -0.04771 -0.42514
v 0.06844 -0.08153 -0.40426
v 0.06915 -0.12412 -0.38039
v 0.08399 -0.15922 -0.36264
v 0.10727 -0.17341 -0.35779
v 0.13011 -0.16128 -0.36770
v 0.14378 -0.12746 -0.38857
v 0.14306 -0.08486 -0.41245
v 0.12823 -0.04976 -0.43020
v 0.11173 -0.00482 -0.39236
v 0.08717 -0.01772 -0.38139
v 0.07239 -0.05429 -0.35913
v 0.07305 -0.10056 -0.33409
v 0.08890 -0.13886 -0.31584
v 0.11387 -0.15455 -0.31135
v 0.13843 -0.14166 -0.32233
v 0.15320 -0.10509 -0.34458
v 0.15254 -0.05882 -0.36962
v 0.13670 -0.02052 -0.38787
v 0.11972 0.02445 -0.34838
v 0.09364 0.01077 -0.33670
v 0.07782 -0.02844 -0.31379
v 0.07831 -0.07820 -0.28840
v 0.09491 -0.11950 -0.27022
v 0.12130 -0.13657 -0.26620
v 0.14738 -0.12289 -0.27788
v 0.16320 -0.08369 -0.30079
v 0.16271 -0.03393 -0.32618
v 0.14610 0.00738 -0.34436
v 0.12841 0.05169 -0.30324
v 0.10099 0.03718 -0.29131
v 0.08417 -0.00453 -0.26847
v 0.08438 -0.05752 -0.24343
v 0.10155 -0.10154 -0.22577
v 0.12910 -0.11978 -0.22222
v 0.15652 -0.10528 -0.23414
v 0.17334 -0.06356 -0.25699
v 0.17312 -0.01058 -0.28202
v 0.15596 0.03344 -0.29969
v 0.13714 0.07649 -0.25717
v 0.10855 0.06111 -0.24548
v 0.09081 0.01710 -0.22336
v 0.09070 -0.03876 -0.19925
v 0.10825 -0.08511 -0.18237
v 0.13677 -0.10425 -0.17916
v 0.16536 -0.08888 -0.19084
v 0.18310 -0.04486 -0.21297
v 0.18321 0.01099 -0.23707
v 0.16566 0.05734 -0.25396
v 0.14522 0.09864 -0.21049
v 0.11565 0.08239 -0.19953
v 0.09711 0.03634 -0.17867
v 0.09668 -0.02191 -0.15587
v 0.11452 -0.07011 -0.13984
v 0.14382 -0.08986 -0.13671
v 0.17339 -0.07361 -0.14767
v 0.19193 -0.02756 -0.16853
v 0.19236 0.03069 -0.19133
v 0.17452 0.07889 -0.20735
v 0.15196 0.11814 -0.16355
v 0.12163 0.10103 -0.15377
v 0.10246 0.05332 -0.13455
v 0.10179 -0.00678 -0.11322
v 0.11986 -0.05630 -0.09792
v 0.14978 -0.07634 -0.09452
v 0.18011 -0.05924 -0.10429
v 0.19927 -0.01153 -0.12352
v 0.19995 0.04857 -0.14485
v 0.18187 0.09810 -0.16014
v 0.15679 0.13516 -0.11672
v 0.12595 0.11727 -0.10850
v 0.10639 0.06831 -0.09110
v 0.10558 0.00697 -0.07117
v 0.12383 -0.04332 -0.05632
v 0.15416 -0.06335 -0.05222
v 0.18500 -0.04547 -0.06044
v 0.20456 0.00350 -0.07784
v 0.20537 0.06484 -0.09777
v 0.18712 0.11513 -0.11262
v 0.15926 0.15001 -0.07027
v 0.12822 0.13147 -0.06388
v 0.10851 0.08171 -0.04833
v 0.10767 0.01975 -0.02957
v 0.12600 -0.03074 -0.01475
v 0.15651 -0.05049 -0.00954
v 0.18755 -0.03194 -0.01593
v 0.20726 0.01781 -0.03148
v 0.20810 0.07977 -0.05024
v 0.18977 0.13027 -0.06506
v 0.15903 0.16312 -0.02437
v 0.12812 0.14405 -0.01997
v 0.10852 0.09397 -0.00616
v 0.10770 0.03201 0.01178
v 0.12599 -0.01816 0.02700
v 0.15639 -0.03738 0.03368
v 0.18729 -0.01831 0.02929
v 0.20690 0.03177 0.01548
v 0.20772 0.09373 -0.00246
v 0.18943 0.14390 -0.01768
v 0.15587 0.17491 0.02099
v 0.12545 0.15547 0.02334
v 0.10616 0.10552 0.03558
v 0.10539 0.04414 0.05303
v 0.12342 -0.00521 0.06902
v 0.15336 -0.02369 0.07746
v 0.18379 -0.00424 0.07510
v 0.20307 0.04571 0.06287
v 0.20385 0.10708 0.04542
v 0.18582 0.15643 0.02942
v 0.14958 0.18582 0.06596
v 0.11998 0.16615 0.06629
v 0.10121 0.11676 0.07713
v 0.10043 0.05651 0.09432
v 0.11795 0.00841 0.11132
v 0.14707 -0.00916 0.12161
v 0.17667 0.01050 0.12128
v 0.19544 0.05989 0.11045
v 0.19622 0.12015 0.09325
v 0.17870 0.16824 0.07626
v 0.13990 0.19618 0.11081
v 0.11147 0.17645 0.10921
v 0.09339 0.12800 0.11874
v 0.09257 0.06934 0.13576
v 0.10932 0.02287 0.15377
v 0.13725 0.00634 0.16589
v 0.16568 0.02606 0.16750
v 0.18376 0.07451 0.15797
v 0.18458 0.13317 0.14095
v 0.16783 0.17965 0.12294
v 0.12656 0.20622 0.15586
v 0.09961 0.18659 0.15245
v 0.08241 0.13943 0.16068
v 0.08152 0.08275 0.17740
v 0.09730 0.03820 0.19623
v 0.12371 0.02280 0.20998
v 0.15066 0.04243 0.21339
v 0.16786 0.08959 0.20516
v 0.16875 0.14627 0.18843
v 0.15297 0.19082 0.16960
v 0.10923 0.21601 0.20137
v 0.08405 0.19664 0.19632
v 0.06795 0.15106 0.20317
v 0.06706 0.09668 0.21931
v 0.08174 0.05428 0.23857
v 0.10637 0.04006 0.25359
v 0.13155 0.05943 0.25865
v 0.14765 0.10501 0.25179
v 0.14854 0.15939 0.23566
v 0.13386 0.20179 0.21639
v 0.08760 0.22542 0.24753
v 0.06445 0.20646 0.24103
v 0.04970 0.16273 0.24638
v 0.04896 0.11093 0.26153
v 0.06253 0.07083 0.28070
v 0.08522 0.05777 0.29656
v 0.10837 0.07673 0.30306
v 0.12312 0.12046 0.29771
v 0.12386 0.17226 0.28256
v 0.11029 0.21236 0.26340
v 0.06143 0.23405 0.29441
v 0.04053 0.21571 0.28669
v 0.02741 0.17408 0.29040
v 0.02706 0.12508 0.30412
v 0.03964 0.08742 0.32261
v 0.06032 0.07548 0.33881
v 0.08122 0.09382 0.34653
v 0.09435 0.13545 0.34282
v 0.09469 0.18445 0.32910
v 0.08212 0.22211 0.31061
v 0.03070 0.24130 0.34195
v 0.01220 0.22377 0.33327
v 0.00097 0.18453 0.33526
v 0.00130 0.13858 0.34714
v 0.01307 0.10345 0.36438
v 0.03177 0.09258 0.38040
v 0.05027 0.11011 0.38908
v 0.06150 0.14934 0.38709
v 0.06117 0.19530 0.37521
v 0.04940 0.23042 0.35796
v -0.00439 0.24632 0.39000
v -0.02041 0.22984 0.38068
v -0.02953 0.19332 0.38093
v -0.02825 0.15069 0.39065
v -0.01706 0.11825 0.40614
v -0.00024 0.10839 0.42148
v 0.01578 0.12487 0.43080
v 0.02489 0.16139 0.43055
v 0.02361 0.20402 0.42083
v 0.01243 0.23646 0.40534
v -0.04329 0.24816 0.43837
v -0.05684 0.23298 0.42874
v -0.06372 0.19953 0.42734
v -0.06129 0.16059 0.43471
v -0.05048 0.13103 0.44804
v -0.03542 0.12215 0.46223
v -0.02187 0.13733 0.47187
v -0.01500 0.17078 0.47327
v -0.01743 0.20972 0.46589
v -0.02823 0.23927 0.45257
v -0.08511 0.24577 0.48683
v -0.09627 0.23214 0.47725
v -0.10092 0.20220 0.47440
v -0.09727 0.16738 0.47937
v -0.08673 0.14098 0.49026
v -0.07332 0.13309 0.50291
v -0.06215 0.14672 0.51248
v -0.05751 0.17667 0.51533
v -0.06115 0.21149 0.51036
v -0.07169 0.23789 0.49948
v -0.12858 0.23817 0.53512
v -0.13749 0.22634 0.52601
v -0.14008 0.20038 0.52202
v -0.13535 0.17020 0.52469
v -0.12512 0.14733 0.53299
v -0.11328 0.14050 0.54375
v -0.10437 0.15233 0.55286
v -0.10178 0.17830 0.55684
v -0.10651 0.20848 0.55418
v -0.11674 0.23134 0.54588
v -0.17207 0.22437 0.58296
v -0.17889 0.21461 0.57479
v -0.17975 0.19322 0.57013
v -0.17433 0.16835 0.57077
v -0.16469 0.14952 0.57646
v -0.15451 0.14390 0.58503
v -0.14769 0.15366 0.59321
v -0.14683 0.17505 0.59786
v -0.15226 0.19992 0.59722
v -0.16190 0.21875 0.59153
v -0.20679 0.18108 0.62862
v -0.20806 0.17919 0.62698
v -0.20810 0.17507 0.62594
v -0.20690 0.17027 0.62590
v -0.20490 0.16664 0.62688
v -0.20289 0.16556 0.62850
v -0.20161 0.16744 0.63014
v -0.20157 0.17157 0.63118
v -0.20278 0.17636 0.63122
v -0.20477 0.18000 0.63024
v 0.09192 -0.22065 -0.61924
v -0.20484 0.17332 0.62856
f 1 12 11
f 2 13 12
f 4 13 3
f 5 14 4
f 6 15 5
f 6 17 16
f 7 18 17
f 8 19 18
f 10 19 9
f 1 20 10
f 11 22 21
f 12 23 22
f 13 24 23
f 15 24 14
f 16 25 15
f 16 27 26
f 17 28 27
f 19 28 18
f 20 29 19
f 11 30 20
f 21 32 31
f 22 33 32
f 23 34 33
f 25 34 24
f 26 35 25
f 26 37 36
f 27 38 37
f 29 38 28
f 30 39 29
f 21 40 30
f 31 42 41
f 32 43 42
f 33 44 43
f 35 44 34
f 36 45 35
f 36 47 46
f 37 48 47
f 39 48 38
f 40 49 39
f 31 50 40
f 41 52 51
f 42 53 52
f 43 54 53
f 45 54 44
f 46 55 45
f 46 57 56
f 47 58 57
f 49 58 48
f 50 59 49
f 41 60 50
f 51 62 61
f 52 63 62
f 53 64 63
f 55 64 54
f 56 65 55
f 56 67 66
f 57 68 67
f 59 68 58
f 60 69 59
f 51 70 60
f 61 72 71
f 62 73 72
f 63 74 73
f 65 74 64
f 66 75 65
f 66 77 76
f 67 78 77
f 69 78 68
f 70 79 69
f 61 80 70
f 71 82 81
f 72 83 82
f 73 84 83
f 75 84 74
f 76 85 75
f 76 87 86
f 77 88 87
f 79 88 78
f 80 89 79
f 71 90 80
f 81 92 91
f 82 93 92
f 84 93 83
f 85 94 84
f 86 95 85
f 86 97 96
f 87 98 97
f 88 99 98
f 90 99 89
f 81 100 90
f 91 102 101
f 92 103 102
f 94 103 93
f 95 104 94
f 96 105 95
f 96 107 106
f 97 108 107
f 98 109 108
f 100 109 99
f 91 110 100
f 101 112 111
f 102 113 112
f 104 113 103
f 105 114 104
f 106 115 105
f 106 117 116
f 107 118 117
f 108 119 118
f 110 119 109
f 101 120 110
f 111 122 121
f 112 123 122
f 114 123 113
f 115 124 114
f 116 125 115
f 116 127 126
f 117 128 127
f 118 129 128
f 120 129 119
f 111 130 120
f 121 132 131
f 122 133 132
f 124 133 123
f 125 134 124
f 126 135 125
f 126 137 136
f 127 138 137
f 128 139 138
f 130 139 129
f 121 140 130
f 132 141 131
f 133 142 132
f 134 143 133
f 134 145 144
f 136 145 135
f 137 146 136
f 138 147 137
f 138 149 148
f 139 150 149
f 140 141 150
f 142 151 141
f 143 152 142
f 144 153 143
f 144 155 154
f 145 156 155
f 147 156 146
f 148 157 147
f 148 159 158
f 149 160 159
f 150 151 160
f 152 161 151
f 153 162 152
f 154 163 153
f 154 165 164
f 155 166 165
f 157 166 156
f 158 167 157
f 158 169 168
f 159 170 169
f 160 161 170
f 162 171 161
f 163 172 162
f 164 173 163
f 164 175 174
f 165 176 175
f 167 176 166
f 168 177 167
f 168 179 178
f 169 180 179
f 170 171 180
f 172 181 171
f 173 182 172
f 173 184 183
f 174 185 184
f 175 186 185
f 177 186 176
f 178 187 177
f 179 188 178
f 179 190 189
f 180 181 190
f 182 191 181
f 183 192 182
f 183 194 193
f 184 195 194
f 185 196 195
f 187 196 186
f 188 197 187
f 189 198 188
f 189 200 199
f 190 191 200
f 192 201 191
f 193 202 192
f 193 204 203
f 194 205 204
f 195 206 205
f 197 206 196
f 198 207 197
f 199 208 198
f 199 210 209
f 200 201 210
f 202 211 201
f 203 212 202
f 203 214 213
f 204 215 214
f 205 216 215
f 207 216 206
f 208 217 207
f 209 218 208
f 209 220 219
f 210 211 220
f 212 221 211
f 213 222 212
f 213 224 223
f 214 225 224
f 215 226 225
f 217 226 216
f 218 227 217
f 219 228 218
f 219 230 229
f 220 221 230
f 222 231 221
f 223 232 222
f 223 234 233
f 224 235 234
f 225 236 235
f 227 236 226
f 228 237 227
f 229 238 228
f 229 240 239
f 230 231 240
f 232 241 231
f 233 242 232
f 233 244 243
f 234 245 244
f 235 246 245
f 237 246 236
f 238 247 237
f 239 248 238
f 239 250 249
f 240 241 250
f 242 251 241
f 243 252 242
f 243 254 253
f 244 255 254
f 245 256 255
f 247 256 246
f 248 257 247
f 249 258 248
f 249 260 259
f 250 251 260
f 252 261 251
f 253 262 252
f 253 264 263
f 254 265 264
f 255 266 265
f 257 266 256
f 258 267 257
f 259 268 258
f 259 270 269
f 260 261 270
f 262 271 261
f 263 272 262
f 263 274 273
f 264 275 274
f 265 276 275
f 267 276 266
f 268 277 267
f 269 278 268
f 269 280 279
f 270 271 280
f 272 281 271
f 273 282 272
f 274 283 273
f 274 285 284
f 275 286 285
f 277 286 276
f 278 287 277
f 278 289 288
f 279 290 289
f 280 281 290
f 291 2 1
f 291 3 2
f 291 4 3
f 291 5 4
f 291 6 5
f 291 7 6
f 291 8 7
f 291 9 8
f 291 10 9
f 291 1 10
f 281 282 292
f 282 283 292
f 283 284 292
f 284 285 292
f 285 286 292
f 286 287 292
f 287 288 292
f 288 289 292
f 289 290 292
f 290 281 292
f 1 2 12
f 2 3 13
f 4 14 13
f 5 15 14
f 6 16 15
f 6 7 17
f 7 8 18
f 8 9 19
f 10 20 19
f 1 11 20
f 11 12 22
f 12 13 23
f 13 14 24
f 15 25 24
f 16 26 25
f 16 17 27
f 17 18 28
f 19 29 28
f 20 30 29
f 11 21 30
f 21 22 32
f 22 23 33
f 23 24 34
f 25 35 34
f 26 36 35
f 26 27 37
f 27 28 38
f 29 39 38
f 30 40 39
f 21 31 40
f 31 32 42
f 32 33 43
f 33 34 44
f 35 45 44
f 36 46 45
f 36 37 47
f 37 38 48
f 39 49 48
f 40 50 49
f 31 41 50
f 41 42 52
f 42 43 53
f 43 44 54
f 45 55 54
f 46 56 55
f 46 47 57
f 47 48 58
f 49 59 58
f 50 60 59
f 41 51 60
f 51 52 62
f 52 53 63
f 53 54 64
f 55 65 64
f 56 66 65
f 56 57 67
f 57 58 68
f 59 69 68
f 60 70 69
f 51 61 70
f 61 62 72
f 62 63 73
f 63 64 74
f 65 75 74
f 66 76 75
f 66 67 77
f 67 68 78
f 69 79 78
f 70 80 79
f 61 71 80
f 71 72 82
f 72 73 83
f 73 74 84
f 75 85 84
f 76 86 85
f 76 77 87
f 77 78 88
f 79 89 88
f 80 90 89
f 71 81 90
f 81 82 92
f 82 83 93
f 84 94 93
f 85 95 94
f 86 96 95
f 86 87 97
f 87 88 98
f 88 89 99
f 90 100 99
f 81 91 100
f 91 92 102
f 92 93 103
f 94 104 103
f 95 105 104
f 96 106 105
f 96 97 107
f 97 98 108
f 98 99 109
f 100 110 109
f 91 101 110
f 101 102 112
f 102 103 113
f 104 114 113
f 105 115 114
f 106 116 115
f 106 107 117
f 107 108 118
f 108 109 119
f 110 120 119
f 101 111 120
f 111 112 122
f 112 113 123
f 114 124 123
f 115 125 124
f 116 126 125
f 116 117 127
f 117 118 128
f 118 119 129
f 120 130 129
f 111 121 130
f 121 122 132
f 122 123 133
f 124 134 133
f 125 135 134
f 126 136 135
f 126 127 137
f 127 128 138
f 128 129 139
f 130 140 139
f 121 131 140
f 132 142 141
f 133 143 142
f 134 144 143
f 134 135 145
f 136 146 145
f 137 147 146
f 138 148 147
f 138 139 149
f 139 140 150
f 140 131 141
f 142 152 151
f 143 153 152
f 144 154 153
f 144 145 155
f 145 146 156
f 147 157 156
f 148 158 157
f 148 149 159
f 149 150 160
f 150 141 151
f 152 162 161
f 153 163 162
f 154 164 163
f 154 155 165
f 155 156 166
f 157 167 166
f 158 168 167
f 158 159 169
f 159 160 170
f 160 151 161
f 162 172 171
f 163 173 172
f 164 174 173
f 164 165 175
f 165 166 176
f 167 177 176
f 168 178 177
f 168 169 179
f 169 170 180
f 170 161 171
f 172 182 181
f 173 183 182
f 173 174 184
f 174 175 185
f 175 176 186
f 177 187 186
f 178 188 187
f 179 189 188
f 179 180 190
f 180 171 181
f 182 192 191
f 183 193 192
f 183 184 194
f 184 185 195
f 185 186 196
f 187 197 196
f 188 198 197
f 189 199 198
f 189 190 200
f 190 181 191
f 192 202 201
f 193 203 202
f 193 194 204
f 194 195 205
f 195 196 206
f 197 207 206
f 198 208 207
f 199 209 208
f 199 200 210
f 200 191 201
f 202 212 211
f 203 213 212
f 203 204 214
f 204 205 215
f 205 206 216
f 207 217 216
f 208 218 217
f 209 219 218
f 209 210 220
f 210 201 211
f 212 222 221
f 213 223 222
f 213 214 224
f 214 215 225
f 215 216 226
f 217 227 226
f 218 228 227
f 219 229 228
f 219 220 230
f 220 211 221
f 222 232 231
f 223 233 232
f 223 224 234
f 224 225 235
f 225 226 236
f 227 237 236
f 228 238 237
f 229 239 238
f 229 230 240
f 230 221 231
f 232 242 241
f 233 243 242
f 233 234 244
f 234 235 245
f 235 236 246
f 237 247 246
f 238 248 247
f 239 249 248
f 239 240 250
f 240 231 241
f 242 252 251
f 243 253 252
f 243 244 254
f 244 245 255
f 245 246 256
f 247 257 256
f 248 258 257
f 249 259 258
f 249 250 260
f 250 241 251
f 252 262 261
f 253 263 262
f 253 254 264
f 254 255 265
f 255 256 266
f 257 267 266
f 258 268 267
f 259 269 268
f 259 260 270
f 260 251 261
f 262 272 271
f 263 273 272
f 263 264 274
f 264 265 275
f 265 266 276
f 267 277 276
f 268 278 277
f 269 279 278
f 269 270 280
f 270 261 271
f 272 282 281
f 273 283 282
f 274 284 283
f 274 275 285
f 275 276 286
f 277 287 286
f 278 288 287
f 278 279 289
f 279 280 290
f 280 271 281
