# kitsune Tail5_TailCore.obj: Roblox cue frame, recentred on its bounding box
v 0.15125 0.25763 -0.65983
v 0.14804 0.25568 -0.66120
v 0.14827 0.25176 -0.66200
v 0.15171 0.24981 -0.66144
v 0.15492 0.25176 -0.66007
v 0.15469 0.25568 -0.65927
v 0.13743 0.24840 -0.61230
v 0.13319 0.24582 -0.61428
v 0.13353 0.24062 -0.61545
v 0.13812 0.23799 -0.61464
v 0.14236 0.24057 -0.61267
v 0.14202 0.24578 -0.61150
v 0.12118 0.23697 -0.56467
v 0.11599 0.23383 -0.56744
v 0.11648 0.22738 -0.56908
v 0.12216 0.22407 -0.56794
v 0.12735 0.22722 -0.56517
v 0.12686 0.23366 -0.56354
v 0.10288 0.22432 -0.51711
v 0.09677 0.22064 -0.52066
v 0.09739 0.21296 -0.52270
v 0.10412 0.20897 -0.52118
v 0.11022 0.21266 -0.51763
v 0.10960 0.22033 -0.51559
v 0.08299 0.21125 -0.46963
v 0.07600 0.20705 -0.47390
v 0.07672 0.19817 -0.47625
v 0.08442 0.19351 -0.47433
v 0.09140 0.19772 -0.47006
v 0.09069 0.20659 -0.46771
v 0.06206 0.19839 -0.42225
v 0.05421 0.19366 -0.42714
v 0.05497 0.18363 -0.42971
v 0.06359 0.17832 -0.42738
v 0.07144 0.18305 -0.42250
v 0.07067 0.19308 -0.41993
v 0.04065 0.18614 -0.37496
v 0.03196 0.18090 -0.38033
v 0.03274 0.16977 -0.38302
v 0.04222 0.16387 -0.38034
v 0.05091 0.16910 -0.37497
v 0.05013 0.18024 -0.37228
v 0.01933 0.17472 -0.32775
v 0.00982 0.16899 -0.33345
v 0.01058 0.15683 -0.33619
v 0.02087 0.15040 -0.33323
v 0.03039 0.15613 -0.32753
v 0.02962 0.16829 -0.32479
v -0.00141 0.16416 -0.28058
v -0.01171 0.15797 -0.28646
v -0.01097 0.14489 -0.28920
v 0.00007 0.13801 -0.28607
v 0.01037 0.14421 -0.28019
v 0.00963 0.15728 -0.27745
v -0.02116 0.15435 -0.23342
v -0.03219 0.14773 -0.23934
v -0.03147 0.13385 -0.24208
v -0.01973 0.12660 -0.23890
v -0.00870 0.13323 -0.23298
v -0.00942 0.14711 -0.23024
v -0.03962 0.14504 -0.18624
v -0.05129 0.13803 -0.19208
v -0.05058 0.12349 -0.19484
v -0.03820 0.11597 -0.19176
v -0.02653 0.12297 -0.18592
v -0.02724 0.13751 -0.18316
v -0.05659 0.13587 -0.13898
v -0.06879 0.12854 -0.14467
v -0.06806 0.11350 -0.14752
v -0.05513 0.10578 -0.14468
v -0.04292 0.11311 -0.13900
v -0.04366 0.12815 -0.13615
v -0.07198 0.12643 -0.09164
v -0.08459 0.11886 -0.09713
v -0.08380 0.10348 -0.10017
v -0.07041 0.09567 -0.09770
v -0.05780 0.10324 -0.09221
v -0.05859 0.11862 -0.08918
v -0.08578 0.11630 -0.04419
v -0.09865 0.10857 -0.04949
v -0.09779 0.09301 -0.05281
v -0.08405 0.08520 -0.05083
v -0.07118 0.09294 -0.04552
v -0.07205 0.10849 -0.04221
v -0.09804 0.10502 0.00337
v -0.11103 0.09720 -0.00177
v -0.11007 0.08167 -0.00548
v -0.09613 0.07395 -0.00405
v -0.08314 0.08176 0.00108
v -0.08410 0.09730 0.00479
v -0.10886 0.09215 0.05100
v -0.12181 0.08435 0.04600
v -0.12075 0.06902 0.04182
v -0.10674 0.06149 0.04264
v -0.09379 0.06930 0.04764
v -0.09485 0.08463 0.05182
v -0.11831 0.07732 0.09868
v -0.13109 0.06962 0.09379
v -0.12994 0.05468 0.08909
v -0.11601 0.04744 0.08929
v -0.10323 0.05514 0.09418
v -0.10438 0.07008 0.09888
v -0.12646 0.06018 0.14636
v -0.13893 0.05268 0.14157
v -0.13771 0.03832 0.13636
v -0.12401 0.03146 0.13594
v -0.11154 0.03896 0.14073
v -0.11276 0.05332 0.14594
v -0.13330 0.04051 0.19398
v -0.14535 0.03328 0.18932
v -0.14409 0.01966 0.18365
v -0.13077 0.01326 0.18264
v -0.11871 0.02049 0.18730
v -0.11997 0.03412 0.19297
v -0.13875 0.01817 0.24150
v -0.15028 0.01128 0.23703
v -0.14901 -0.00148 0.23100
v -0.13621 -0.00733 0.22945
v -0.12468 -0.00043 0.23392
v -0.12595 0.01232 0.23995
v -0.14265 -0.00684 0.28887
v -0.15355 -0.01337 0.28467
v -0.15231 -0.02514 0.27844
v -0.14018 -0.03040 0.27641
v -0.12927 -0.02388 0.28061
v -0.13051 -0.01210 0.28684
v -0.14474 -0.03439 0.33606
v -0.15492 -0.04052 0.33223
v -0.15376 -0.05126 0.32597
v -0.14242 -0.05587 0.32354
v -0.13223 -0.04975 0.32737
v -0.13340 -0.03901 0.33363
v -0.14472 -0.06418 0.38306
v -0.15409 -0.06990 0.37970
v -0.15303 -0.07957 0.37360
v -0.14260 -0.08352 0.37087
v -0.13323 -0.07780 0.37424
v -0.13429 -0.06813 0.38033
v -0.14224 -0.09571 0.42987
v -0.15070 -0.10102 0.42705
v -0.14976 -0.10963 0.42131
v -0.14035 -0.11292 0.41840
v -0.13189 -0.10760 0.42121
v -0.13283 -0.09900 0.42695
v -0.13693 -0.12833 0.47649
v -0.14441 -0.13323 0.47427
v -0.14359 -0.14078 0.46907
v -0.13529 -0.14344 0.46610
v -0.12781 -0.13855 0.46832
v -0.12864 -0.13099 0.47351
v -0.12849 -0.16121 0.52297
v -0.13490 -0.16566 0.52136
v -0.13420 -0.17218 0.51685
v -0.12708 -0.17427 0.51395
v -0.12067 -0.16982 0.51556
v -0.12138 -0.16330 0.52006
v -0.11670 -0.19335 0.56933
v -0.12199 -0.19729 0.56831
v -0.12138 -0.20280 0.56461
v -0.11548 -0.20438 0.56192
v -0.11019 -0.20044 0.56293
v -0.11081 -0.19492 0.56664
v -0.10146 -0.22361 0.61562
v -0.10559 -0.22697 0.61512
v -0.10505 -0.23147 0.61229
v -0.10038 -0.23261 0.60995
v -0.09626 -0.22925 0.61045
v -0.09680 -0.22475 0.61328
v -0.08279 -0.25082 0.66200
v -0.08583 -0.25341 0.66177
v -0.08540 -0.25682 0.65971
v -0.08193 -0.25763 0.65790
v -0.07889 -0.25504 0.65813
v -0.07932 -0.25164 0.66019
v 0.15148 0.25372 -0.66064
v -0.08236 -0.25423 0.65995
f 1 8 7
f 2 9 8
f 4 9 3
f 5 10 4
f 6 11 5
f 6 7 12
f 8 13 7
f 9 14 8
f 10 15 9
f 10 17 16
f 11 18 17
f 12 13 18
f 14 19 13
f 15 20 14
f 15 22 21
f 16 23 22
f 17 24 23
f 13 24 18
f 20 25 19
f 21 26 20
f 21 28 27
f 22 29 28
f 23 30 29
f 19 30 24
f 26 31 25
f 27 32 26
f 27 34 33
f 28 35 34
f 29 36 35
f 25 36 30
f 32 37 31
f 33 38 32
f 33 40 39
f 34 41 40
f 35 42 41
f 31 42 36
f 38 43 37
f 39 44 38
f 39 46 45
f 40 47 46
f 41 48 47
f 37 48 42
f 44 49 43
f 44 51 50
f 45 52 51
f 46 53 52
f 48 53 47
f 43 54 48
f 50 55 49
f 50 57 56
f 51 58 57
f 52 59 58
f 54 59 53
f 49 60 54
f 56 61 55
f 56 63 62
f 57 64 63
f 58 65 64
f 60 65 59
f 55 66 60
f 61 68 67
f 62 69 68
f 63 70 69
f 65 70 64
f 66 71 65
f 61 72 66
f 67 74 73
f 68 75 74
f 69 76 75
f 71 76 70
f 72 77 71
f 67 78 72
f 73 80 79
f 74 81 80
f 75 82 81
f 77 82 76
f 78 83 77
f 73 84 78
f 79 86 85
f 80 87 86
f 81 88 87
f 83 88 82
f 84 89 83
f 79 90 84
f 85 92 91
f 86 93 92
f 87 94 93
f 89 94 88
f 90 95 89
f 85 96 90
f 91 98 97
f 92 99 98
f 93 100 99
f 95 100 94
f 96 101 95
f 91 102 96
f 97 104 103
f 98 105 104
f 99 106 105
f 101 106 100
f 102 107 101
f 97 108 102
f 103 110 109
f 104 111 110
f 105 112 111
f 106 113 112
f 108 113 107
f 103 114 108
f 110 115 109
f 110 117 116
f 111 118 117
f 112 119 118
f 113 120 119
f 109 120 114
f 116 121 115
f 117 122 116
f 117 124 123
f 118 125 124
f 119 126 125
f 115 126 120
f 122 127 121
f 123 128 122
f 123 130 129
f 124 131 130
f 125 132 131
f 121 132 126
f 128 133 127
f 129 134 128
f 129 136 135
f 130 137 136
f 131 138 137
f 127 138 132
f 134 139 133
f 135 140 134
f 135 142 141
f 136 143 142
f 137 144 143
f 133 144 138
f 140 145 139
f 141 146 140
f 141 148 147
f 142 149 148
f 143 150 149
f 139 150 144
f 146 151 145
f 147 152 146
f 148 153 147
f 148 155 154
f 149 156 155
f 150 151 156
f 152 157 151
f 153 158 152
f 154 159 153
f 154 161 160
f 155 162 161
f 156 157 162
f 158 163 157
f 159 164 158
f 160 165 159
f 160 167 166
f 161 168 167
f 162 163 168
f 163 170 169
f 164 171 170
f 166 171 165
f 167 172 166
f 168 173 167
f 168 169 174
f 175 2 1
f 175 3 2
f 175 4 3
f 175 5 4
f 175 6 5
f 175 1 6
f 169 170 176
f 170 171 176
f 171 172 176
f 172 173 176
f 173 174 176
f 174 169 176
f 1 2 8
f 2 3 9
f 4 10 9
f 5 11 10
f 6 12 11
f 6 1 7
f 8 14 13
f 9 15 14
f 10 16 15
f 10 11 17
f 11 12 18
f 12 7 13
f 14 20 19
f 15 21 20
f 15 16 22
f 16 17 23
f 17 18 24
f 13 19 24
f 20 26 25
f 21 27 26
f 21 22 28
f 22 23 29
f 23 24 30
f 19 25 30
f 26 32 31
f 27 33 32
f 27 28 34
f 28 29 35
f 29 30 36
f 25 31 36
f 32 38 37
f 33 39 38
f 33 34 40
f 34 35 41
f 35 36 42
f 31 37 42
f 38 44 43
f 39 45 44
f 39 40 46
f 40 41 47
f 41 42 48
f 37 43 48
f 44 50 49
f 44 45 51
f 45 46 52
f 46 47 53
f 48 54 53
f 43 49 54
f 50 56 55
f 50 51 57
f 51 52 58
f 52 53 59
f 54 60 59
f 49 55 60
f 56 62 61
f 56 57 63
f 57 58 64
f 58 59 65
f 60 66 65
f 55 61 66
f 61 62 68
f 62 63 69
f 63 64 70
f 65 71 70
f 66 72 71
f 61 67 72
f 67 68 74
f 68 69 75
f 69 70 76
f 71 77 76
f 72 78 77
f 67 73 78
f 73 74 80
f 74 75 81
f 75 76 82
f 77 83 82
f 78 84 83
f 73 79 84
f 79 80 86
f 80 81 87
f 81 82 88
f 83 89 88
f 84 90 89
f 79 85 90
f 85 86 92
f 86 87 93
f 87 88 94
f 89 95 94
f 90 96 95
f 85 91 96
f 91 92 98
f 92 93 99
f 93 94 100
f 95 101 100
f 96 102 101
f 91 97 102
f 97 98 104
f 98 99 105
f 99 100 106
f 101 107 106
f 102 108 107
f 97 103 108
f 103 104 110
f 104 105 111
f 105 106 112
f 106 107 113
f 108 114 113
f 103 109 114
f 110 116 115
f 110 111 117
f 111 112 118
f 112 113 119
f 113 114 120
f 109 115 120
f 116 122 121
f 117 123 122
f 117 118 124
f 118 119 125
f 119 120 126
f 115 121 126
f 122 128 127
f 123 129 128
f 123 124 130
f 124 125 131
f 125 126 132
f 121 127 132
f 128 134 133
f 129 135 134
f 129 130 136
f 130 131 137
f 131 132 138
f 127 133 138
f 134 140 139
f 135 141 140
f 135 136 142
f 136 137 143
f 137 138 144
f 133 139 144
f 140 146 145
f 141 147 146
f 141 142 148
f 142 143 149
f 143 144 150
f 139 145 150
f 146 152 151
f 147 153 152
f 148 154 153
f 148 149 155
f 149 150 156
f 150 145 151
f 152 158 157
f 153 159 158
f 154 160 159
f 154 155 161
f 155 156 162
f 156 151 157
f 158 164 163
f 159 165 164
f 160 166 165
f 160 161 167
f 161 162 168
f 162 157 163
f 163 164 170
f 164 165 171
f 166 172 171
f 167 173 172
f 168 174 173
f 168 163 169
