# kitsune Tail9_TailFire.obj: Roblox cue frame, recentred on its bounding box
v -0.07066 -0.13519 0.71244
v -0.06181 -0.14062 0.71075
v -0.05628 -0.15482 0.70601
v -0.05617 -0.17237 0.70004
v -0.06154 -0.18657 0.69511
v -0.07032 -0.19199 0.69311
v -0.07917 -0.18657 0.69480
v -0.08470 -0.17237 0.69954
v -0.08481 -0.15482 0.70551
v -0.07944 -0.14062 0.71044
v -0.06987 -0.10443 0.66741
v -0.05671 -0.11244 0.66474
v -0.04847 -0.13343 0.65731
v -0.04831 -0.15937 0.64797
v -0.05628 -0.18036 0.64028
v -0.06934 -0.18838 0.63718
v -0.08250 -0.18037 0.63986
v -0.09074 -0.15939 0.64728
v -0.09090 -0.13345 0.65663
v -0.08293 -0.11246 0.66432
v -0.06923 -0.07594 0.62194
v -0.05297 -0.08569 0.61824
v -0.04280 -0.11130 0.60827
v -0.04259 -0.14299 0.59584
v -0.05243 -0.16867 0.58569
v -0.06855 -0.17851 0.58170
v -0.08481 -0.16877 0.58540
v -0.09498 -0.14316 0.59537
v -0.09519 -0.11146 0.60780
v -0.08535 -0.08579 0.61795
v -0.06922 -0.04748 0.57562
v -0.05031 -0.05865 0.57089
v -0.03847 -0.08822 0.55870
v -0.03823 -0.12488 0.54369
v -0.04968 -0.15464 0.53161
v -0.06845 -0.16613 0.52707
v -0.08736 -0.15496 0.53180
v -0.09919 -0.12540 0.54399
v -0.09943 -0.08873 0.55899
v -0.08798 -0.05897 0.57107
v -0.07016 -0.01931 0.52826
v -0.04892 -0.03170 0.52256
v -0.03563 -0.06481 0.50858
v -0.03536 -0.10598 0.49165
v -0.04823 -0.13949 0.47825
v -0.06930 -0.15254 0.47348
v -0.09055 -0.14014 0.47918
v -0.10384 -0.10704 0.49316
v -0.10410 -0.06587 0.51008
v -0.09124 -0.03236 0.52349
v -0.07220 0.00806 0.47969
v -0.04891 -0.00543 0.47318
v -0.03432 -0.04179 0.45796
v -0.03400 -0.08714 0.43985
v -0.04809 -0.12416 0.42577
v -0.07119 -0.13870 0.42109
v -0.09448 -0.12521 0.42761
v -0.10907 -0.08885 0.44282
v -0.10939 -0.04350 0.46093
v -0.09530 -0.00648 0.47502
v -0.07530 0.03404 0.42987
v -0.05021 0.01954 0.42276
v -0.03445 -0.01985 0.40693
v -0.03405 -0.06910 0.38842
v -0.04915 -0.10938 0.37430
v -0.07400 -0.12533 0.36996
v -0.09909 -0.11083 0.37707
v -0.11485 -0.07144 0.39290
v -0.11525 -0.02220 0.41141
v -0.10015 0.01809 0.42553
v -0.07927 0.05805 0.37882
v -0.05261 0.04261 0.37143
v -0.03580 0.00042 0.35564
v -0.03525 -0.05241 0.33748
v -0.05118 -0.09569 0.32389
v -0.07750 -0.11291 0.32006
v -0.10416 -0.09747 0.32745
v -0.12098 -0.05528 0.34324
v -0.12152 -0.00245 0.36140
v -0.10559 0.04084 0.37499
v -0.08378 0.07964 0.32670
v -0.05578 0.06331 0.31937
v -0.03802 0.01859 0.30424
v -0.03728 -0.03745 0.28709
v -0.05385 -0.08339 0.27448
v -0.08140 -0.10170 0.27122
v -0.10940 -0.08537 0.27856
v -0.12717 -0.04065 0.29369
v -0.12790 0.01539 0.31083
v -0.11133 0.06133 0.32345
v -0.08842 0.09846 0.27378
v -0.05929 0.08132 0.26685
v -0.04071 0.03439 0.25290
v -0.03977 -0.02439 0.23727
v -0.05682 -0.07257 0.22592
v -0.08537 -0.09176 0.22319
v -0.11449 -0.07462 0.23012
v -0.13307 -0.02769 0.24407
v -0.13402 0.03109 0.25970
v -0.11696 0.07927 0.27105
v -0.09273 0.11438 0.22040
v -0.06271 0.09652 0.21419
v -0.04346 0.04778 0.20181
v -0.04233 -0.01321 0.18797
v -0.05974 -0.06317 0.17797
v -0.08906 -0.08300 0.17563
v -0.11908 -0.06515 0.18183
v -0.13833 -0.01641 0.19422
v -0.13946 0.04458 0.20805
v -0.12205 0.09454 0.21805
v -0.09628 0.12744 0.16692
v -0.06561 0.10900 0.16171
v -0.04587 0.05889 0.15108
v -0.04459 -0.00374 0.13910
v -0.06227 -0.05496 0.13034
v -0.09215 -0.07522 0.12815
v -0.12282 -0.05677 0.13336
v -0.14257 -0.00667 0.14399
v -0.14384 0.05596 0.15597
v -0.12616 0.10719 0.16473
v -0.09869 0.13789 0.11372
v -0.06763 0.11901 0.10968
v -0.04759 0.06799 0.10081
v -0.04624 0.00433 0.09052
v -0.06409 -0.04766 0.08272
v -0.09433 -0.06812 0.08040
v -0.12539 -0.04924 0.08444
v -0.14543 0.00178 0.09330
v -0.14678 0.06544 0.10360
v -0.12893 0.11743 0.11140
v -0.09967 0.14610 0.06108
v -0.06847 0.12694 0.05830
v -0.04835 0.07548 0.05104
v -0.04699 0.01138 0.04209
v -0.06491 -0.04089 0.03485
v -0.09527 -0.06135 0.03209
v -0.12647 -0.04220 0.03487
v -0.14659 0.00926 0.04212
v -0.14795 0.07337 0.05108
v -0.13003 0.12563 0.05832
v -0.09899 0.15252 0.00917
v -0.06793 0.13326 0.00767
v -0.04791 0.08181 0.00175
v -0.04658 0.01782 -0.00632
v -0.06445 -0.03426 -0.01346
v -0.09469 -0.05455 -0.01695
v -0.12576 -0.03528 -0.01545
v -0.14578 0.01617 -0.00954
v -0.14711 0.08015 -0.00147
v -0.12924 0.13223 0.00568
v -0.09650 0.15765 -0.04197
v -0.06583 0.13844 -0.04223
v -0.04608 0.08743 -0.04713
v -0.04479 0.02409 -0.05480
v -0.06245 -0.02737 -0.06230
v -0.09232 -0.04731 -0.06677
v -0.12298 -0.02810 -0.06651
v -0.14274 0.02292 -0.06161
v -0.14403 0.08625 -0.05394
v -0.12637 0.13771 -0.04644
v -0.09206 0.16195 -0.09242
v -0.06204 0.14295 -0.09153
v -0.04270 0.09277 -0.09573
v -0.04141 0.03059 -0.10341
v -0.05867 -0.01984 -0.11164
v -0.08790 -0.03926 -0.11727
v -0.11791 -0.02026 -0.11816
v -0.13726 0.02992 -0.11396
v -0.13854 0.09209 -0.10628
v -0.12128 0.14253 -0.09806
v -0.08553 0.16584 -0.14239
v -0.05641 0.14717 -0.14044
v -0.03759 0.09822 -0.14417
v -0.03626 0.03767 -0.15216
v -0.05292 -0.01134 -0.16136
v -0.08122 -0.03010 -0.16825
v -0.11035 -0.01144 -0.17020
v -0.12917 0.03752 -0.16647
v -0.13050 0.09806 -0.15848
v -0.11383 0.14708 -0.14928
v -0.07676 0.16963 -0.19217
v -0.04877 0.15144 -0.18924
v -0.03058 0.10405 -0.19264
v -0.02915 0.04557 -0.20106
v -0.04503 -0.00167 -0.21130
v -0.07214 -0.01962 -0.21943
v -0.10014 -0.00142 -0.22235
v -0.11833 0.04597 -0.21896
v -0.11975 0.10445 -0.21053
v -0.10388 0.15168 -0.20030
v -0.06556 0.17354 -0.24205
v -0.03891 0.15593 -0.23823
v -0.02149 0.11042 -0.24131
v -0.01994 0.05440 -0.25010
v -0.03486 0.00927 -0.26125
v -0.06055 -0.00774 -0.27050
v -0.08720 0.00988 -0.27432
v -0.10463 0.05538 -0.27124
v -0.10617 0.11140 -0.26245
v -0.09125 0.15653 -0.25130
v -0.05172 0.17765 -0.29230
v -0.02663 0.16073 -0.28768
v -0.01011 0.11738 -0.29034
v -0.00847 0.06417 -0.29927
v -0.02233 0.02142 -0.31105
v -0.04640 0.00545 -0.32120
v -0.07149 0.02238 -0.32582
v -0.08801 0.06572 -0.32316
v -0.08965 0.11893 -0.31423
v -0.07579 0.16169 -0.30245
v -0.03506 0.18187 -0.34313
v -0.01173 0.16574 -0.33779
v 0.00371 0.12481 -0.33988
v 0.00537 0.07470 -0.34859
v -0.00740 0.03455 -0.36060
v -0.02970 0.01971 -0.37132
v -0.05303 0.03584 -0.37666
v -0.06847 0.07678 -0.37458
v -0.07013 0.12689 -0.36586
v -0.05737 0.16703 -0.35385
v -0.01547 0.18594 -0.39462
v 0.00593 0.17072 -0.38869
v 0.02009 0.13242 -0.39002
v 0.02162 0.08567 -0.39810
v 0.00992 0.04832 -0.40985
v -0.01053 0.03465 -0.42078
v -0.03193 0.04987 -0.42672
v -0.04610 0.08817 -0.42539
v -0.04762 0.13492 -0.41730
v -0.03592 0.17227 -0.40555
v 0.00701 0.18941 -0.44677
v 0.02633 0.17522 -0.44040
v 0.03903 0.13978 -0.44082
v 0.04025 0.09663 -0.44787
v 0.02954 0.06225 -0.45886
v 0.01097 0.04978 -0.46959
v -0.00834 0.06397 -0.47596
v -0.02104 0.09941 -0.47554
v -0.02226 0.14256 -0.46849
v -0.01155 0.17694 -0.45750
v 0.03218 0.19168 -0.49946
v 0.04931 0.17865 -0.49285
v 0.06036 0.14631 -0.49227
v 0.06111 0.10702 -0.49796
v 0.05127 0.07579 -0.50772
v 0.03460 0.06454 -0.51785
v 0.01746 0.07756 -0.52446
v 0.00641 0.10990 -0.52504
v 0.00567 0.14919 -0.51935
v 0.01551 0.18043 -0.50959
v 0.05957 0.19199 -0.55252
v 0.07444 0.18028 -0.54591
v 0.08373 0.15134 -0.54435
v 0.08387 0.11621 -0.54844
v 0.07481 0.08833 -0.55660
v 0.06002 0.07833 -0.56574
v 0.04514 0.09004 -0.57235
v 0.03586 0.11898 -0.57391
v 0.03572 0.15411 -0.56983
v 0.04478 0.18199 -0.56166
v 0.08848 0.18952 -0.60572
v 0.10106 0.17930 -0.59940
v 0.10851 0.15410 -0.59698
v 0.10800 0.12353 -0.59938
v 0.09971 0.09928 -0.60569
v 0.08681 0.09061 -0.61350
v 0.07424 0.10082 -0.61981
v 0.06679 0.12602 -0.62223
v 0.06730 0.15659 -0.61983
v 0.07559 0.18084 -0.61352
v 0.11797 0.18328 -0.65877
v 0.12817 0.17478 -0.65309
v 0.13379 0.15381 -0.65009
v 0.13269 0.12839 -0.65090
v 0.12529 0.10822 -0.65522
v 0.11442 0.10101 -0.66140
v 0.10422 0.10951 -0.66707
v 0.09860 0.13048 -0.67008
v 0.09970 0.15590 -0.66927
v 0.10710 0.17607 -0.66495
v 0.14496 0.14882 -0.71051
v 0.14692 0.14717 -0.70937
v 0.14795 0.14310 -0.70868
v 0.14767 0.13816 -0.70871
v 0.14617 0.13424 -0.70945
v 0.14404 0.13284 -0.71061
v 0.14208 0.13449 -0.71175
v 0.14105 0.13856 -0.71244
v 0.14133 0.14350 -0.71241
v 0.14283 0.14742 -0.71167
v -0.07049 -0.16359 0.70277
v 0.14450 0.14083 -0.71056
f 1 12 11
f 2 13 12
f 4 13 3
f 5 14 4
f 6 15 5
f 6 17 16
f 7 18 17
f 8 19 18
f 10 19 9
f 1 20 10
f 11 22 21
f 12 23 22
f 13 24 23
f 15 24 14
f 16 25 15
f 16 27 26
f 17 28 27
f 19 28 18
f 20 29 19
f 11 30 20
f 21 32 31
f 22 33 32
f 23 34 33
f 25 34 24
f 26 35 25
f 26 37 36
f 27 38 37
f 29 38 28
f 30 39 29
f 21 40 30
f 31 42 41
f 32 43 42
f 33 44 43
f 35 44 34
f 36 45 35
f 36 47 46
f 37 48 47
f 39 48 38
f 40 49 39
f 31 50 40
f 41 52 51
f 42 53 52
f 43 54 53
f 45 54 44
f 46 55 45
f 46 57 56
f 47 58 57
f 49 58 48
f 50 59 49
f 41 60 50
f 51 62 61
f 52 63 62
f 53 64 63
f 55 64 54
f 56 65 55
f 56 67 66
f 57 68 67
f 59 68 58
f 60 69 59
f 51 70 60
f 61 72 71
f 62 73 72
f 63 74 73
f 65 74 64
f 66 75 65
f 66 77 76
f 67 78 77
f 69 78 68
f 70 79 69
f 61 80 70
f 71 82 81
f 72 83 82
f 73 84 83
f 75 84 74
f 76 85 75
f 76 87 86
f 77 88 87
f 79 88 78
f 80 89 79
f 71 90 80
f 81 92 91
f 82 93 92
f 84 93 83
f 85 94 84
f 86 95 85
f 86 97 96
f 87 98 97
f 88 99 98
f 90 99 89
f 81 100 90
f 91 102 101
f 92 103 102
f 94 103 93
f 95 104 94
f 96 105 95
f 96 107 106
f 97 108 107
f 98 109 108
f 100 109 99
f 91 110 100
f 101 112 111
f 102 113 112
f 104 113 103
f 105 114 104
f 106 115 105
f 106 117 116
f 107 118 117
f 108 119 118
f 110 119 109
f 101 120 110
f 111 122 121
f 112 123 122
f 114 123 113
f 115 124 114
f 116 125 115
f 116 127 126
f 117 128 127
f 118 129 128
f 120 129 119
f 111 130 120
f 121 132 131
f 122 133 132
f 124 133 123
f 125 134 124
f 126 135 125
f 126 137 136
f 127 138 137
f 128 139 138
f 130 139 129
f 121 140 130
f 132 141 131
f 133 142 132
f 134 143 133
f 134 145 144
f 135 146 145
f 137 146 136
f 138 147 137
f 138 149 148
f 139 150 149
f 140 141 150
f 142 151 141
f 143 152 142
f 144 153 143
f 144 155 154
f 145 156 155
f 147 156 146
f 148 157 147
f 148 159 158
f 149 160 159
f 150 151 160
f 152 161 151
f 153 162 152
f 154 163 153
f 154 165 164
f 155 166 165
f 157 166 156
f 158 167 157
f 158 169 168
f 159 170 169
f 160 161 170
f 162 171 161
f 163 172 162
f 164 173 163
f 164 175 174
f 165 176 175
f 167 176 166
f 168 177 167
f 168 179 178
f 169 180 179
f 170 171 180
f 172 181 171
f 173 182 172
f 174 183 173
f 174 185 184
f 175 186 185
f 177 186 176
f 178 187 177
f 178 189 188
f 179 190 189
f 180 181 190
f 182 191 181
f 183 192 182
f 183 194 193
f 184 195 194
f 185 196 195
f 187 196 186
f 188 197 187
f 188 199 198
f 189 200 199
f 190 191 200
f 192 201 191
f 193 202 192
f 193 204 203
f 194 205 204
f 195 206 205
f 197 206 196
f 198 207 197
f 199 208 198
f 199 210 209
f 200 201 210
f 202 211 201
f 203 212 202
f 203 214 213
f 204 215 214
f 205 216 215
f 207 216 206
f 208 217 207
f 209 218 208
f 209 220 219
f 210 211 220
f 212 221 211
f 213 222 212
f 213 224 223
f 214 225 224
f 215 226 225
f 217 226 216
f 218 227 217
f 219 228 218
f 219 230 229
f 220 221 230
f 222 231 221
f 223 232 222
f 223 234 233
f 224 235 234
f 225 236 235
f 227 236 226
f 228 237 227
f 229 238 228
f 229 240 239
f 230 231 240
f 232 241 231
f 233 242 232
f 233 244 243
f 234 245 244
f 235 246 245
f 237 246 236
f 238 247 237
f 239 248 238
f 239 250 249
f 240 241 250
f 242 251 241
f 243 252 242
f 243 254 253
f 244 255 254
f 245 256 255
f 247 256 246
f 248 257 247
f 249 258 248
f 249 260 259
f 250 251 260
f 252 261 251
f 253 262 252
f 253 264 263
f 254 265 264
f 255 266 265
f 257 266 256
f 258 267 257
f 259 268 258
f 259 270 269
f 260 261 270
f 262 271 261
f 263 272 262
f 263 274 273
f 264 275 274
f 265 276 275
f 267 276 266
f 268 277 267
f 269 278 268
f 269 280 279
f 270 271 280
f 272 281 271
f 273 282 272
f 274 283 273
f 274 285 284
f 275 286 285
f 277 286 276
f 278 287 277
f 278 289 288
f 279 290 289
f 280 281 290
f 291 2 1
f 291 3 2
f 291 4 3
f 291 5 4
f 291 6 5
f 291 7 6
f 291 8 7
f 291 9 8
f 291 10 9
f 291 1 10
f 281 282 292
f 282 283 292
f 283 284 292
f 284 285 292
f 285 286 292
f 286 287 292
f 287 288 292
f 288 289 292
f 289 290 292
f 290 281 292
f 1 2 12
f 2 3 13
f 4 14 13
f 5 15 14
f 6 16 15
f 6 7 17
f 7 8 18
f 8 9 19
f 10 20 19
f 1 11 20
f 11 12 22
f 12 13 23
f 13 14 24
f 15 25 24
f 16 26 25
f 16 17 27
f 17 18 28
f 19 29 28
f 20 30 29
f 11 21 30
f 21 22 32
f 22 23 33
f 23 24 34
f 25 35 34
f 26 36 35
f 26 27 37
f 27 28 38
f 29 39 38
f 30 40 39
f 21 31 40
f 31 32 42
f 32 33 43
f 33 34 44
f 35 45 44
f 36 46 45
f 36 37 47
f 37 38 48
f 39 49 48
f 40 50 49
f 31 41 50
f 41 42 52
f 42 43 53
f 43 44 54
f 45 55 54
f 46 56 55
f 46 47 57
f 47 48 58
f 49 59 58
f 50 60 59
f 41 51 60
f 51 52 62
f 52 53 63
f 53 54 64
f 55 65 64
f 56 66 65
f 56 57 67
f 57 58 68
f 59 69 68
f 60 70 69
f 51 61 70
f 61 62 72
f 62 63 73
f 63 64 74
f 65 75 74
f 66 76 75
f 66 67 77
f 67 68 78
f 69 79 78
f 70 80 79
f 61 71 80
f 71 72 82
f 72 73 83
f 73 74 84
f 75 85 84
f 76 86 85
f 76 77 87
f 77 78 88
f 79 89 88
f 80 90 89
f 71 81 90
f 81 82 92
f 82 83 93
f 84 94 93
f 85 95 94
f 86 96 95
f 86 87 97
f 87 88 98
f 88 89 99
f 90 100 99
f 81 91 100
f 91 92 102
f 92 93 103
f 94 104 103
f 95 105 104
f 96 106 105
f 96 97 107
f 97 98 108
f 98 99 109
f 100 110 109
f 91 101 110
f 101 102 112
f 102 103 113
f 104 114 113
f 105 115 114
f 106 116 115
f 106 107 117
f 107 108 118
f 108 109 119
f 110 120 119
f 101 111 120
f 111 112 122
f 112 113 123
f 114 124 123
f 115 125 124
f 116 126 125
f 116 117 127
f 117 118 128
f 118 119 129
f 120 130 129
f 111 121 130
f 121 122 132
f 122 123 133
f 124 134 133
f 125 135 134
f 126 136 135
f 126 127 137
f 127 128 138
f 128 129 139
f 130 140 139
f 121 131 140
f 132 142 141
f 133 143 142
f 134 144 143
f 134 135 145
f 135 136 146
f 137 147 146
f 138 148 147
f 138 139 149
f 139 140 150
f 140 131 141
f 142 152 151
f 143 153 152
f 144 154 153
f 144 145 155
f 145 146 156
f 147 157 156
f 148 158 157
f 148 149 159
f 149 150 160
f 150 141 151
f 152 162 161
f 153 163 162
f 154 164 163
f 154 155 165
f 155 156 166
f 157 167 166
f 158 168 167
f 158 159 169
f 159 160 170
f 160 151 161
f 162 172 171
f 163 173 172
f 164 174 173
f 164 165 175
f 165 166 176
f 167 177 176
f 168 178 177
f 168 169 179
f 169 170 180
f 170 161 171
f 172 182 181
f 173 183 182
f 174 184 183
f 174 175 185
f 175 176 186
f 177 187 186
f 178 188 187
f 178 179 189
f 179 180 190
f 180 171 181
f 182 192 191
f 183 193 192
f 183 184 194
f 184 185 195
f 185 186 196
f 187 197 196
f 188 198 197
f 188 189 199
f 189 190 200
f 190 181 191
f 192 202 201
f 193 203 202
f 193 194 204
f 194 195 205
f 195 196 206
f 197 207 206
f 198 208 207
f 199 209 208
f 199 200 210
f 200 191 201
f 202 212 211
f 203 213 212
f 203 204 214
f 204 205 215
f 205 206 216
f 207 217 216
f 208 218 217
f 209 219 218
f 209 210 220
f 210 201 211
f 212 222 221
f 213 223 222
f 213 214 224
f 214 215 225
f 215 216 226
f 217 227 226
f 218 228 227
f 219 229 228
f 219 220 230
f 220 211 221
f 222 232 231
f 223 233 232
f 223 224 234
f 224 225 235
f 225 226 236
f 227 237 236
f 228 238 237
f 229 239 238
f 229 230 240
f 230 221 231
f 232 242 241
f 233 243 242
f 233 234 244
f 234 235 245
f 235 236 246
f 237 247 246
f 238 248 247
f 239 249 248
f 239 240 250
f 240 231 241
f 242 252 251
f 243 253 252
f 243 244 254
f 244 245 255
f 245 246 256
f 247 257 256
f 248 258 257
f 249 259 258
f 249 250 260
f 250 241 251
f 252 262 261
f 253 263 262
f 253 254 264
f 254 255 265
f 255 256 266
f 257 267 266
f 258 268 267
f 259 269 268
f 259 260 270
f 260 251 261
f 262 272 271
f 263 273 272
f 263 264 274
f 264 265 275
f 265 266 276
f 267 277 276
f 268 278 277
f 269 279 278
f 269 270 280
f 270 261 271
f 272 282 281
f 273 283 282
f 274 284 283
f 274 275 285
f 275 276 286
f 277 287 286
f 278 288 287
f 278 279 289
f 279 280 290
f 280 271 281
