# kitsune Tail8_TailFire.obj: Roblox cue frame, recentred on its bounding box
v -0.19047 -0.09165 0.69262
v -0.18165 -0.09725 0.69378
v -0.17556 -0.11191 0.69216
v -0.17453 -0.13003 0.68838
v -0.17895 -0.14469 0.68389
v -0.18714 -0.15029 0.68040
v -0.19596 -0.14469 0.67925
v -0.20205 -0.13003 0.68087
v -0.20308 -0.11191 0.68465
v -0.19866 -0.09725 0.68913
v -0.17802 -0.06648 0.64698
v -0.16492 -0.07482 0.64876
v -0.15581 -0.09659 0.64617
v -0.15418 -0.12346 0.64021
v -0.16064 -0.14517 0.63315
v -0.17274 -0.15344 0.62769
v -0.18585 -0.14510 0.62591
v -0.19496 -0.12334 0.62850
v -0.19659 -0.09646 0.63446
v -0.19012 -0.07475 0.64152
v -0.16414 -0.04408 0.60136
v -0.14797 -0.05438 0.60359
v -0.13657 -0.08113 0.59992
v -0.13431 -0.11411 0.59176
v -0.14204 -0.14072 0.58222
v -0.15682 -0.15080 0.57495
v -0.17300 -0.14049 0.57272
v -0.18440 -0.11374 0.57639
v -0.18666 -0.08077 0.58456
v -0.17892 -0.05416 0.59409
v -0.14968 -0.02182 0.55566
v -0.13080 -0.03375 0.55805
v -0.11734 -0.06470 0.55316
v -0.11446 -0.10284 0.54285
v -0.12324 -0.13360 0.53106
v -0.14035 -0.14524 0.52230
v -0.15923 -0.13331 0.51991
v -0.17269 -0.10237 0.52480
v -0.17557 -0.06422 0.53511
v -0.16679 -0.03346 0.54690
v -0.13535 0.00048 0.50964
v -0.11400 -0.01281 0.51193
v -0.09868 -0.04738 0.50576
v -0.09524 -0.09003 0.49350
v -0.10498 -0.12447 0.47983
v -0.12419 -0.13755 0.46996
v -0.14553 -0.12426 0.46767
v -0.16085 -0.08968 0.47384
v -0.16430 -0.04703 0.48610
v -0.15456 -0.01259 0.49978
v -0.12169 0.02264 0.46306
v -0.09812 0.00823 0.46503
v -0.08114 -0.02951 0.45767
v -0.07724 -0.07617 0.44380
v -0.08791 -0.11393 0.42872
v -0.10907 -0.12836 0.41818
v -0.13264 -0.11395 0.41622
v -0.14962 -0.07621 0.42357
v -0.15351 -0.02955 0.43744
v -0.14285 0.00821 0.45252
v -0.10910 0.04431 0.41568
v -0.08355 0.02899 0.41718
v -0.06515 -0.01155 0.40886
v -0.06094 -0.06181 0.39388
v -0.07253 -0.10259 0.37797
v -0.09548 -0.11833 0.36721
v -0.12104 -0.10300 0.36571
v -0.13943 -0.06246 0.37403
v -0.14364 -0.01221 0.38901
v -0.13206 0.02858 0.40492
v -0.09785 0.06508 0.36731
v -0.07057 0.04899 0.36831
v -0.05101 0.00598 0.35937
v -0.04663 -0.04751 0.34389
v -0.05911 -0.09107 0.32779
v -0.08369 -0.10805 0.31722
v -0.11096 -0.09197 0.31622
v -0.13052 -0.04896 0.32517
v -0.13490 0.00454 0.34065
v -0.12242 0.04810 0.35674
v -0.08802 0.08445 0.31786
v -0.05930 0.06773 0.31841
v -0.03882 0.02255 0.30929
v -0.03440 -0.03385 0.29399
v -0.04773 -0.07991 0.27834
v -0.07372 -0.09805 0.26832
v -0.10244 -0.08133 0.26776
v -0.12292 -0.03614 0.27688
v -0.12733 0.02025 0.29219
v -0.11400 0.06632 0.30784
v -0.07955 0.10198 0.26733
v -0.04968 0.08472 0.26759
v -0.02852 0.03764 0.25881
v -0.02416 -0.02128 0.24433
v -0.03826 -0.06954 0.22970
v -0.06543 -0.08870 0.22049
v -0.09530 -0.07144 0.22023
v -0.11646 -0.02436 0.22902
v -0.12082 0.03457 0.24349
v -0.10672 0.08282 0.25812
v -0.07225 0.11726 0.21584
v -0.04152 0.09954 0.21603
v -0.01990 0.05087 0.20809
v -0.01566 -0.01016 0.19505
v -0.03042 -0.06024 0.18189
v -0.05853 -0.08024 0.17363
v -0.08926 -0.06253 0.17343
v -0.11088 -0.01386 0.18137
v -0.11512 0.04718 0.19442
v -0.10036 0.09726 0.20758
v -0.06579 0.12997 0.16359
v -0.03448 0.11187 0.16401
v -0.01262 0.06196 0.15738
v -0.00855 -0.00070 0.14623
v -0.02384 -0.05218 0.13482
v -0.05263 -0.07280 0.12752
v -0.08394 -0.05470 0.12710
v -0.10581 -0.00479 0.13373
v -0.10987 0.05787 0.14488
v -0.09459 0.10935 0.15629
v -0.05975 0.13994 0.11086
v -0.02814 0.12156 0.11180
v -0.00623 0.07078 0.10685
v -0.00238 0.00702 0.09790
v -0.01807 -0.04538 0.08836
v -0.04730 -0.06639 0.08189
v -0.07891 -0.04800 0.08095
v -0.10082 0.00277 0.08591
v -0.10467 0.06653 0.09486
v -0.08898 0.11893 0.10439
v -0.05365 0.14712 0.05792
v -0.02202 0.12856 0.05968
v -0.00026 0.07734 0.05667
v 0.00332 0.01304 0.05004
v -0.01265 -0.03979 0.04233
v -0.04207 -0.06097 0.03648
v -0.07369 -0.04240 0.03472
v -0.09545 0.00881 0.03773
v -0.09903 0.07312 0.04435
v -0.08306 0.12595 0.05207
v -0.04700 0.15158 0.00501
v -0.01563 0.13297 0.00785
v 0.00578 0.08175 0.00693
v 0.00904 0.01747 0.00261
v -0.00709 -0.03532 -0.00346
v -0.03645 -0.05644 -0.00897
v -0.06782 -0.03784 -0.01180
v -0.08922 0.01339 -0.01089
v -0.09248 0.07767 -0.00657
v -0.07635 0.13045 -0.00049
v -0.03933 0.15344 -0.04769
v -0.00849 0.13495 -0.04358
v 0.01235 0.08415 -0.04236
v 0.01524 0.02044 -0.04450
v -0.00092 -0.03184 -0.04919
v -0.02997 -0.05272 -0.05462
v -0.06081 -0.03423 -0.05873
v -0.08165 0.01657 -0.05995
v -0.08454 0.08027 -0.05781
v -0.06837 0.13256 -0.05313
v -0.03020 0.15289 -0.10010
v -0.00018 0.13468 -0.09459
v 0.01990 0.08473 -0.09127
v 0.02237 0.02212 -0.09142
v 0.00628 -0.02925 -0.09496
v -0.02221 -0.04974 -0.10057
v -0.05222 -0.03153 -0.10608
v -0.07230 0.01842 -0.10940
v -0.07477 0.08104 -0.10925
v -0.05869 0.13240 -0.10571
v -0.01923 0.15007 -0.15221
v 0.00969 0.13231 -0.14526
v 0.02880 0.08362 -0.13993
v 0.03079 0.02258 -0.13826
v 0.01492 -0.02747 -0.14090
v -0.01277 -0.04743 -0.14682
v -0.04170 -0.02968 -0.15377
v -0.06080 0.01902 -0.15910
v -0.06280 0.08005 -0.16076
v -0.04692 0.13011 -0.15813
v -0.00614 0.14508 -0.20404
v 0.02143 0.12793 -0.19570
v 0.03938 0.08088 -0.18851
v 0.04085 0.02189 -0.18520
v 0.02528 -0.02651 -0.18705
v -0.00138 -0.04582 -0.19334
v -0.02895 -0.02868 -0.20168
v -0.04689 0.01837 -0.20888
v -0.04837 0.07737 -0.21218
v -0.03280 0.12576 -0.21033
v 0.00928 0.13792 -0.25565
v 0.03527 0.12155 -0.24608
v 0.05188 0.07650 -0.23719
v 0.05277 0.01999 -0.23238
v 0.03761 -0.02641 -0.23348
v 0.01217 -0.04497 -0.24008
v -0.01381 -0.02860 -0.24966
v -0.03043 0.01645 -0.25855
v -0.03132 0.07296 -0.26336
v -0.01615 0.11936 -0.26225
v 0.02710 0.12851 -0.30709
v 0.05132 0.11306 -0.29651
v 0.06645 0.07037 -0.28614
v 0.06671 0.01675 -0.27993
v 0.05200 -0.02733 -0.28026
v 0.02794 -0.04501 -0.28700
v 0.00372 -0.02956 -0.29758
v -0.01141 0.01313 -0.30796
v -0.01167 0.06675 -0.31416
v 0.00304 0.11082 -0.31383
v 0.04722 0.11670 -0.35834
v 0.06954 0.10229 -0.34707
v 0.08307 0.06228 -0.33548
v 0.08265 0.01195 -0.32799
v 0.06843 -0.02948 -0.32747
v 0.04585 -0.04618 -0.33411
v 0.02353 -0.03177 -0.34538
v 0.01000 0.00824 -0.35697
v 0.01042 0.05858 -0.36446
v 0.02464 0.10001 -0.36498
v 0.06933 0.10229 -0.40935
v 0.08968 0.08902 -0.39776
v 0.10157 0.05199 -0.38526
v 0.10046 0.00532 -0.37664
v 0.08676 -0.03315 -0.37518
v 0.06572 -0.04873 -0.38145
v 0.04537 -0.03546 -0.39305
v 0.03348 0.00158 -0.40555
v 0.03459 0.04824 -0.41417
v 0.04829 0.08671 -0.41562
v 0.09293 0.08505 -0.46004
v 0.11130 0.07300 -0.44851
v 0.12156 0.03920 -0.43549
v 0.11978 -0.00344 -0.42594
v 0.10665 -0.03864 -0.42351
v 0.08718 -0.05295 -0.42913
v 0.06882 -0.04091 -0.44065
v 0.05856 -0.00710 -0.45367
v 0.06034 0.03554 -0.46323
v 0.07347 0.07074 -0.46566
v 0.11732 0.06481 -0.51026
v 0.13371 0.05403 -0.49922
v 0.14240 0.02369 -0.48610
v 0.14006 -0.01461 -0.47590
v 0.12758 -0.04625 -0.47253
v 0.10974 -0.05914 -0.47726
v 0.09334 -0.04836 -0.48830
v 0.08465 -0.01802 -0.50142
v 0.08699 0.02028 -0.51162
v 0.09947 0.05192 -0.51499
v 0.14158 0.04146 -0.55987
v 0.15603 0.03196 -0.54972
v 0.16328 0.00528 -0.53698
v 0.16054 -0.02838 -0.52652
v 0.14887 -0.05618 -0.52232
v 0.13272 -0.06749 -0.52600
v 0.11826 -0.05799 -0.53615
v 0.11102 -0.03131 -0.54889
v 0.11376 0.00236 -0.55936
v 0.12543 0.03015 -0.56355
v 0.16469 0.01500 -0.60872
v 0.17720 0.00680 -0.59984
v 0.18313 -0.01604 -0.58801
v 0.18023 -0.04479 -0.57775
v 0.16960 -0.06847 -0.57298
v 0.15530 -0.07804 -0.57551
v 0.14280 -0.06984 -0.58439
v 0.13686 -0.04700 -0.59622
v 0.13976 -0.01825 -0.60648
v 0.15039 0.00543 -0.61125
v 0.18554 -0.01456 -0.65658
v 0.19598 -0.02141 -0.64934
v 0.20072 -0.04016 -0.63902
v 0.19794 -0.06363 -0.62957
v 0.18871 -0.08287 -0.62460
v 0.17655 -0.09053 -0.62600
v 0.16611 -0.08368 -0.63325
v 0.16137 -0.06494 -0.64357
v 0.16415 -0.04146 -0.65301
v 0.17338 -0.02222 -0.65799
v 0.20014 -0.06844 -0.69358
v 0.20218 -0.06978 -0.69220
v 0.20308 -0.07340 -0.69015
v 0.20251 -0.07792 -0.68823
v 0.20068 -0.08161 -0.68716
v 0.19829 -0.08306 -0.68736
v 0.19625 -0.08172 -0.68875
v 0.19535 -0.07810 -0.69079
v 0.19592 -0.07358 -0.69271
v 0.19775 -0.06989 -0.69378
v -0.18880 -0.12097 0.68651
v 0.19921 -0.07575 -0.69047
f 1 12 11
f 2 13 12
f 4 13 3
f 5 14 4
f 6 15 5
f 6 17 16
f 7 18 17
f 8 19 18
f 10 19 9
f 1 20 10
f 11 22 21
f 12 23 22
f 13 24 23
f 15 24 14
f 16 25 15
f 16 27 26
f 17 28 27
f 19 28 18
f 20 29 19
f 11 30 20
f 21 32 31
f 22 33 32
f 23 34 33
f 25 34 24
f 26 35 25
f 26 37 36
f 27 38 37
f 29 38 28
f 30 39 29
f 21 40 30
f 31 42 41
f 32 43 42
f 33 44 43
f 35 44 34
f 36 45 35
f 36 47 46
f 37 48 47
f 39 48 38
f 40 49 39
f 31 50 40
f 41 52 51
f 42 53 52
f 43 54 53
f 45 54 44
f 46 55 45
f 46 57 56
f 47 58 57
f 49 58 48
f 50 59 49
f 41 60 50
f 51 62 61
f 52 63 62
f 53 64 63
f 55 64 54
f 56 65 55
f 56 67 66
f 57 68 67
f 59 68 58
f 60 69 59
f 51 70 60
f 61 72 71
f 62 73 72
f 63 74 73
f 65 74 64
f 66 75 65
f 66 77 76
f 67 78 77
f 69 78 68
f 70 79 69
f 61 80 70
f 71 82 81
f 72 83 82
f 73 84 83
f 75 84 74
f 76 85 75
f 76 87 86
f 77 88 87
f 79 88 78
f 80 89 79
f 71 90 80
f 81 92 91
f 82 93 92
f 83 94 93
f 85 94 84
f 86 95 85
f 86 97 96
f 87 98 97
f 89 98 88
f 90 99 89
f 81 100 90
f 91 102 101
f 92 103 102
f 93 104 103
f 95 104 94
f 96 105 95
f 96 107 106
f 97 108 107
f 99 108 98
f 100 109 99
f 91 110 100
f 101 112 111
f 102 113 112
f 103 114 113
f 105 114 104
f 106 115 105
f 106 117 116
f 107 118 117
f 109 118 108
f 110 119 109
f 101 120 110
f 111 122 121
f 112 123 122
f 113 124 123
f 115 124 114
f 116 125 115
f 116 127 126
f 117 128 127
f 118 129 128
f 120 129 119
f 111 130 120
f 121 132 131
f 122 133 132
f 124 133 123
f 125 134 124
f 126 135 125
f 126 137 136
f 127 138 137
f 128 139 138
f 130 139 129
f 121 140 130
f 132 141 131
f 133 142 132
f 134 143 133
f 134 145 144
f 135 146 145
f 137 146 136
f 138 147 137
f 138 149 148
f 139 150 149
f 140 141 150
f 142 151 141
f 143 152 142
f 144 153 143
f 144 155 154
f 145 156 155
f 147 156 146
f 148 157 147
f 148 159 158
f 149 160 159
f 150 151 160
f 152 161 151
f 153 162 152
f 154 163 153
f 154 165 164
f 155 166 165
f 157 166 156
f 158 167 157
f 159 168 158
f 159 170 169
f 160 161 170
f 162 171 161
f 163 172 162
f 164 173 163
f 164 175 174
f 165 176 175
f 167 176 166
f 168 177 167
f 169 178 168
f 169 180 179
f 170 171 180
f 172 181 171
f 173 182 172
f 174 183 173
f 174 185 184
f 175 186 185
f 177 186 176
f 178 187 177
f 179 188 178
f 179 190 189
f 180 181 190
f 182 191 181
f 183 192 182
f 183 194 193
f 184 195 194
f 185 196 195
f 187 196 186
f 188 197 187
f 189 198 188
f 189 200 199
f 190 191 200
f 192 201 191
f 193 202 192
f 193 204 203
f 194 205 204
f 195 206 205
f 197 206 196
f 198 207 197
f 199 208 198
f 199 210 209
f 200 201 210
f 202 211 201
f 203 212 202
f 203 214 213
f 204 215 214
f 205 216 215
f 207 216 206
f 208 217 207
f 209 218 208
f 209 220 219
f 210 211 220
f 212 221 211
f 213 222 212
f 213 224 223
f 214 225 224
f 215 226 225
f 217 226 216
f 218 227 217
f 219 228 218
f 219 230 229
f 220 221 230
f 222 231 221
f 223 232 222
f 223 234 233
f 224 235 234
f 225 236 235
f 227 236 226
f 228 237 227
f 229 238 228
f 229 240 239
f 230 231 240
f 232 241 231
f 233 242 232
f 233 244 243
f 234 245 244
f 235 246 245
f 237 246 236
f 238 247 237
f 239 248 238
f 239 250 249
f 240 241 250
f 242 251 241
f 243 252 242
f 243 254 253
f 244 255 254
f 245 256 255
f 247 256 246
f 248 257 247
f 249 258 248
f 249 260 259
f 250 251 260
f 252 261 251
f 253 262 252
f 253 264 263
f 254 265 264
f 255 266 265
f 257 266 256
f 258 267 257
f 259 268 258
f 259 270 269
f 260 261 270
f 262 271 261
f 263 272 262
f 264 273 263
f 264 275 274
f 265 276 275
f 267 276 266
f 268 277 267
f 268 279 278
f 269 280 279
f 270 271 280
f 272 281 271
f 273 282 272
f 274 283 273
f 274 285 284
f 275 286 285
f 277 286 276
f 278 287 277
f 278 289 288
f 279 290 289
f 280 281 290
f 291 2 1
f 291 3 2
f 291 4 3
f 291 5 4
f 291 6 5
f 291 7 6
f 291 8 7
f 291 9 8
f 291 10 9
f 291 1 10
f 281 282 292
f 282 283 292
f 283 284 292
f 284 285 292
f 285 286 292
f 286 287 292
f 287 288 292
f 288 289 292
f 289 290 292
f 290 281 292
f 1 2 12
f 2 3 13
f 4 14 13
f 5 15 14
f 6 16 15
f 6 7 17
f 7 8 18
f 8 9 19
f 10 20 19
f 1 11 20
f 11 12 22
f 12 13 23
f 13 14 24
f 15 25 24
f 16 26 25
f 16 17 27
f 17 18 28
f 19 29 28
f 20 30 29
f 11 21 30
f 21 22 32
f 22 23 33
f 23 24 34
f 25 35 34
f 26 36 35
f 26 27 37
f 27 28 38
f 29 39 38
f 30 40 39
f 21 31 40
f 31 32 42
f 32 33 43
f 33 34 44
f 35 45 44
f 36 46 45
f 36 37 47
f 37 38 48
f 39 49 48
f 40 50 49
f 31 41 50
f 41 42 52
f 42 43 53
f 43 44 54
f 45 55 54
f 46 56 55
f 46 47 57
f 47 48 58
f 49 59 58
f 50 60 59
f 41 51 60
f 51 52 62
f 52 53 63
f 53 54 64
f 55 65 64
f 56 66 65
f 56 57 67
f 57 58 68
f 59 69 68
f 60 70 69
f 51 61 70
f 61 62 72
f 62 63 73
f 63 64 74
f 65 75 74
f 66 76 75
f 66 67 77
f 67 68 78
f 69 79 78
f 70 80 79
f 61 71 80
f 71 72 82
f 72 73 83
f 73 74 84
f 75 85 84
f 76 86 85
f 76 77 87
f 77 78 88
f 79 89 88
f 80 90 89
f 71 81 90
f 81 82 92
f 82 83 93
f 83 84 94
f 85 95 94
f 86 96 95
f 86 87 97
f 87 88 98
f 89 99 98
f 90 100 99
f 81 91 100
f 91 92 102
f 92 93 103
f 93 94 104
f 95 105 104
f 96 106 105
f 96 97 107
f 97 98 108
f 99 109 108
f 100 110 109
f 91 101 110
f 101 102 112
f 102 103 113
f 103 104 114
f 105 115 114
f 106 116 115
f 106 107 117
f 107 108 118
f 109 119 118
f 110 120 119
f 101 111 120
f 111 112 122
f 112 113 123
f 113 114 124
f 115 125 124
f 116 126 125
f 116 117 127
f 117 118 128
f 118 119 129
f 120 130 129
f 111 121 130
f 121 122 132
f 122 123 133
f 124 134 133
f 125 135 134
f 126 136 135
f 126 127 137
f 127 128 138
f 128 129 139
f 130 140 139
f 121 131 140
f 132 142 141
f 133 143 142
f 134 144 143
f 134 135 145
f 135 136 146
f 137 147 146
f 138 148 147
f 138 139 149
f 139 140 150
f 140 131 141
f 142 152 151
f 143 153 152
f 144 154 153
f 144 145 155
f 145 146 156
f 147 157 156
f 148 158 157
f 148 149 159
f 149 150 160
f 150 141 151
f 152 162 161
f 153 163 162
f 154 164 163
f 154 155 165
f 155 156 166
f 157 167 166
f 158 168 167
f 159 169 168
f 159 160 170
f 160 151 161
f 162 172 171
f 163 173 172
f 164 174 173
f 164 165 175
f 165 166 176
f 167 177 176
f 168 178 177
f 169 179 178
f 169 170 180
f 170 161 171
f 172 182 181
f 173 183 182
f 174 184 183
f 174 175 185
f 175 176 186
f 177 187 186
f 178 188 187
f 179 189 188
f 179 180 190
f 180 171 181
f 182 192 191
f 183 193 192
f 183 184 194
f 184 185 195
f 185 186 196
f 187 197 196
f 188 198 197
f 189 199 198
f 189 190 200
f 190 181 191
f 192 202 201
f 193 203 202
f 193 194 204
f 194 195 205
f 195 196 206
f 197 207 206
f 198 208 207
f 199 209 208
f 199 200 210
f 200 191 201
f 202 212 211
f 203 213 212
f 203 204 214
f 204 205 215
f 205 206 216
f 207 217 216
f 208 218 217
f 209 219 218
f 209 210 220
f 210 201 211
f 212 222 221
f 213 223 222
f 213 214 224
f 214 215 225
f 215 216 226
f 217 227 226
f 218 228 227
f 219 229 228
f 219 220 230
f 220 211 221
f 222 232 231
f 223 233 232
f 223 224 234
f 224 225 235
f 225 226 236
f 227 237 236
f 228 238 237
f 229 239 238
f 229 230 240
f 230 221 231
f 232 242 241
f 233 243 242
f 233 234 244
f 234 235 245
f 235 236 246
f 237 247 246
f 238 248 247
f 239 249 248
f 239 240 250
f 240 231 241
f 242 252 251
f 243 253 252
f 243 244 254
f 244 245 255
f 245 246 256
f 247 257 256
f 248 258 257
f 249 259 258
f 249 250 260
f 250 241 251
f 252 262 261
f 253 263 262
f 253 254 264
f 254 255 265
f 255 256 266
f 257 267 266
f 258 268 267
f 259 269 268
f 259 260 270
f 260 251 261
f 262 272 271
f 263 273 272
f 264 274 273
f 264 265 275
f 265 266 276
f 267 277 276
f 268 278 277
f 268 269 279
f 269 270 280
f 270 261 271
f 272 282 281
f 273 283 282
f 274 284 283
f 274 275 285
f 275 276 286
f 277 287 286
f 278 288 287
f 278 279 289
f 279 280 290
f 280 271 281
