# kitsune Tail5_TailFire.obj: Roblox cue frame, recentred on its bounding box
v 0.11953 0.20271 0.67841
v 0.12832 0.19708 0.67714
v 0.13435 0.18237 0.67850
v 0.13530 0.16418 0.68195
v 0.13081 0.14946 0.68619
v 0.12260 0.14384 0.68959
v 0.11380 0.14946 0.69086
v 0.10778 0.16418 0.68950
v 0.10683 0.18237 0.68605
v 0.11132 0.19708 0.68181
v 0.10521 0.20695 0.62627
v 0.11826 0.19856 0.62426
v 0.12724 0.17670 0.62636
v 0.12873 0.14970 0.63177
v 0.12216 0.12789 0.63842
v 0.11003 0.11959 0.64377
v 0.09699 0.12797 0.64578
v 0.08800 0.14984 0.64368
v 0.08651 0.17683 0.63827
v 0.09309 0.19865 0.63162
v 0.08916 0.20584 0.57457
v 0.10517 0.19542 0.57177
v 0.11629 0.16843 0.57442
v 0.11826 0.13519 0.58151
v 0.11034 0.10839 0.59034
v 0.09555 0.09827 0.59752
v 0.07954 0.10869 0.60032
v 0.06842 0.13568 0.59767
v 0.06645 0.16892 0.59057
v 0.07437 0.19572 0.58175
v 0.07194 0.20305 0.52374
v 0.09044 0.19084 0.52010
v 0.10329 0.15938 0.52295
v 0.10558 0.12070 0.53118
v 0.09644 0.08957 0.54166
v 0.07935 0.07788 0.55039
v 0.06085 0.09009 0.55403
v 0.04800 0.12155 0.55119
v 0.04571 0.16023 0.54295
v 0.05486 0.19136 0.53247
v 0.05408 0.19966 0.47383
v 0.07474 0.18585 0.46937
v 0.08899 0.15038 0.47206
v 0.09141 0.10682 0.48087
v 0.08105 0.07179 0.49244
v 0.06189 0.05867 0.50235
v 0.04124 0.07249 0.50681
v 0.02698 0.10795 0.50412
v 0.02457 0.15152 0.49531
v 0.03492 0.18655 0.48374
v 0.03611 0.19628 0.42477
v 0.05866 0.18106 0.41957
v 0.07405 0.14201 0.42184
v 0.07640 0.09405 0.43070
v 0.06481 0.05549 0.44277
v 0.04372 0.04106 0.45345
v 0.02117 0.05628 0.45864
v 0.00579 0.09533 0.45638
v 0.00343 0.14330 0.44752
v 0.01502 0.18186 0.43545
v 0.01852 0.19325 0.37643
v 0.04275 0.17683 0.37065
v 0.05905 0.13461 0.37232
v 0.06120 0.08273 0.38079
v 0.04837 0.04100 0.39283
v 0.02547 0.02536 0.40384
v 0.00124 0.04179 0.40961
v -0.01506 0.08401 0.40794
v -0.01721 0.13589 0.39947
v -0.00438 0.17762 0.38743
v 0.00173 0.19068 0.32857
v 0.02747 0.17325 0.32246
v 0.04453 0.12830 0.32348
v 0.04639 0.07301 0.33126
v 0.03235 0.02850 0.34282
v 0.00776 0.01176 0.35374
v -0.01797 0.02920 0.35985
v -0.03503 0.07414 0.35883
v -0.03690 0.12943 0.35105
v -0.02285 0.17395 0.33949
v -0.01392 0.18852 0.28094
v 0.01316 0.17027 0.27476
v 0.03087 0.12304 0.27524
v 0.03245 0.06488 0.28219
v 0.01728 0.01799 0.29295
v -0.00883 0.00028 0.30342
v -0.03591 0.01853 0.30959
v -0.05362 0.06576 0.30911
v -0.05519 0.12393 0.30216
v -0.04003 0.17082 0.29140
v -0.02819 0.18659 0.23323
v 0.00007 0.16771 0.22731
v 0.01836 0.11865 0.22745
v 0.01970 0.05815 0.23361
v 0.00358 0.00931 0.24343
v -0.02386 -0.00921 0.25317
v -0.05212 0.00967 0.25909
v -0.07041 0.05873 0.25894
v -0.07175 0.11924 0.25278
v -0.05562 0.16807 0.24296
v -0.04091 0.18461 0.18518
v -0.01165 0.16528 0.17981
v 0.00716 0.11483 0.17994
v 0.00836 0.05254 0.18552
v -0.00853 0.00219 0.19443
v -0.03705 -0.01697 0.20326
v -0.06630 0.00236 0.20864
v -0.08512 0.05281 0.20851
v -0.08631 0.11510 0.20292
v -0.06942 0.16545 0.19401
v -0.05199 0.18225 0.13655
v -0.02196 0.16263 0.13198
v -0.00269 0.11123 0.13248
v -0.00154 0.04769 0.13785
v -0.01895 -0.00372 0.14605
v -0.04828 -0.02336 0.15394
v -0.07831 -0.00374 0.15851
v -0.09759 0.04766 0.15801
v -0.09874 0.11120 0.15263
v -0.08132 0.16261 0.14444
v -0.06146 0.17912 0.08717
v -0.03088 0.15936 0.08362
v -0.01124 0.10745 0.08489
v -0.01005 0.04320 0.09051
v -0.02775 -0.00884 0.09833
v -0.05760 -0.02879 0.10536
v -0.08818 -0.00903 0.10892
v -0.10781 0.04288 0.10764
v -0.10901 0.10713 0.10202
v -0.09130 0.15916 0.09420
v -0.06938 0.17478 0.03698
v -0.03850 0.15506 0.03457
v -0.01862 0.10306 0.03701
v -0.01731 0.03864 0.04338
v -0.03509 -0.01358 0.05124
v -0.06516 -0.03367 0.05759
v -0.09604 -0.01395 0.06001
v -0.11593 0.03805 0.05757
v -0.11723 0.10247 0.05120
v -0.09945 0.15470 0.04334
v -0.07590 0.16882 -0.01400
v -0.04499 0.14929 -0.01521
v -0.02499 0.09764 -0.01127
v -0.02355 0.03360 -0.00366
v -0.04121 -0.01837 0.00470
v -0.07123 -0.03843 0.01062
v -0.10214 -0.01890 0.01183
v -0.12214 0.03275 0.00789
v -0.12358 0.09679 0.00028
v -0.10592 0.14876 -0.00808
v -0.08122 0.16079 -0.06565
v -0.05052 0.14162 -0.06567
v -0.03057 0.09077 -0.05996
v -0.02897 0.02766 -0.05069
v -0.04635 -0.02361 -0.04142
v -0.07607 -0.04345 -0.03568
v -0.10676 -0.02429 -0.03567
v -0.12672 0.02656 -0.04138
v -0.12831 0.08967 -0.05064
v -0.11093 0.14094 -0.05991
v -0.08552 0.15030 -0.11780
v -0.05529 0.13167 -0.11665
v -0.03553 0.08206 -0.10901
v -0.03381 0.02044 -0.09779
v -0.05077 -0.02967 -0.08728
v -0.07995 -0.04912 -0.08149
v -0.11018 -0.03049 -0.08264
v -0.12994 0.01912 -0.09028
v -0.13166 0.08074 -0.10150
v -0.11470 0.13085 -0.11201
v -0.08900 0.13704 -0.17019
v -0.05945 0.11910 -0.16794
v -0.04006 0.07118 -0.15832
v -0.03823 0.01159 -0.14499
v -0.05467 -0.03691 -0.13305
v -0.08309 -0.05579 -0.12706
v -0.11264 -0.03785 -0.12930
v -0.13203 0.01007 -0.13893
v -0.13386 0.06966 -0.15226
v -0.11742 0.11816 -0.16420
v -0.09176 0.12077 -0.22253
v -0.06311 0.10367 -0.21926
v -0.04424 0.05786 -0.20772
v -0.04235 0.00084 -0.19231
v -0.05817 -0.04563 -0.17892
v -0.08564 -0.06377 -0.17267
v -0.11429 -0.04668 -0.17594
v -0.13316 -0.00087 -0.18748
v -0.13505 0.05616 -0.20289
v -0.11923 0.10262 -0.21628
v -0.09382 0.10137 -0.27453
v -0.06629 0.08527 -0.27032
v -0.04810 0.04195 -0.25705
v -0.04620 -0.01205 -0.23977
v -0.06131 -0.05610 -0.22509
v -0.08767 -0.07337 -0.21863
v -0.11520 -0.05727 -0.22283
v -0.13339 -0.01395 -0.23611
v -0.13530 0.04005 -0.25339
v -0.12018 0.08410 -0.26806
v -0.09513 0.07888 -0.32590
v -0.06890 0.06392 -0.32085
v -0.05155 0.02340 -0.30614
v -0.04969 -0.02718 -0.28739
v -0.06404 -0.06852 -0.27176
v -0.08912 -0.08481 -0.26522
v -0.11534 -0.06984 -0.27026
v -0.13270 -0.02933 -0.28497
v -0.13455 0.02125 -0.30372
v -0.12020 0.06259 -0.31935
v -0.09550 0.05349 -0.37640
v -0.07077 0.03977 -0.37063
v -0.05441 0.00231 -0.35490
v -0.05266 -0.04458 -0.33521
v -0.06619 -0.08299 -0.31908
v -0.08983 -0.09825 -0.31267
v -0.11456 -0.08453 -0.31844
v -0.13092 -0.04707 -0.33417
v -0.13267 -0.00018 -0.35386
v -0.11914 0.03823 -0.36999
v -0.09469 0.02552 -0.42585
v -0.07164 0.01313 -0.41952
v -0.05641 -0.02111 -0.40325
v -0.05482 -0.06414 -0.38326
v -0.06747 -0.09951 -0.36719
v -0.08953 -0.11371 -0.36117
v -0.11258 -0.10133 -0.36751
v -0.12781 -0.06708 -0.38378
v -0.12940 -0.02406 -0.40377
v -0.11675 0.01131 -0.41984
v -0.09240 -0.00456 -0.47418
v -0.07121 -0.01555 -0.46746
v -0.05724 -0.04650 -0.45119
v -0.05584 -0.08558 -0.43160
v -0.06754 -0.11787 -0.41617
v -0.08787 -0.13103 -0.41080
v -0.10906 -0.12004 -0.41752
v -0.12302 -0.08909 -0.43379
v -0.12442 -0.05001 -0.45338
v -0.11273 -0.01772 -0.46881
v -0.08832 -0.03616 -0.52137
v -0.06915 -0.04575 -0.51447
v -0.05655 -0.07337 -0.49879
v -0.05535 -0.10849 -0.48030
v -0.06600 -0.13769 -0.46608
v -0.08443 -0.14981 -0.46156
v -0.10360 -0.14023 -0.46846
v -0.11619 -0.11260 -0.48415
v -0.11739 -0.07748 -0.50263
v -0.10675 -0.04829 -0.51685
v -0.08216 -0.06862 -0.56748
v -0.06517 -0.07680 -0.56066
v -0.05402 -0.10111 -0.54613
v -0.05299 -0.13226 -0.52942
v -0.06245 -0.15835 -0.51692
v -0.07881 -0.16942 -0.51341
v -0.09580 -0.16123 -0.52023
v -0.10694 -0.13692 -0.53476
v -0.10798 -0.10578 -0.55147
v -0.09851 -0.07969 -0.56397
v -0.07367 -0.10122 -0.61260
v -0.05903 -0.10804 -0.60617
v -0.04940 -0.12900 -0.59334
v -0.04847 -0.15609 -0.57901
v -0.05659 -0.17897 -0.56866
v -0.07066 -0.18890 -0.56624
v -0.08531 -0.18208 -0.57268
v -0.09494 -0.16112 -0.58551
v -0.09587 -0.13403 -0.59984
v -0.08774 -0.11115 -0.61018
v -0.06269 -0.13335 -0.65685
v -0.05061 -0.13882 -0.65114
v -0.04259 -0.15625 -0.64056
v -0.04169 -0.17899 -0.62916
v -0.04826 -0.19836 -0.62129
v -0.05979 -0.20695 -0.61995
v -0.07187 -0.20148 -0.62566
v -0.07989 -0.18405 -0.63624
v -0.08079 -0.16130 -0.64764
v -0.07422 -0.14194 -0.65552
v -0.04796 -0.18602 -0.69086
v -0.04563 -0.18706 -0.68971
v -0.04406 -0.19046 -0.68768
v -0.04387 -0.19491 -0.68553
v -0.04512 -0.19871 -0.68409
v -0.04734 -0.20041 -0.68390
v -0.04968 -0.19937 -0.68504
v -0.05124 -0.19597 -0.68708
v -0.05143 -0.19152 -0.68923
v -0.05018 -0.18772 -0.69067
v 0.12106 0.17327 0.68400
v -0.04765 -0.19321 -0.68738
f 1 12 11
f 2 13 12
f 3 14 13
f 5 14 4
f 6 15 5
f 6 17 16
f 7 18 17
f 9 18 8
f 10 19 9
f 1 20 10
f 11 22 21
f 12 23 22
f 14 23 13
f 15 24 14
f 16 25 15
f 16 27 26
f 17 28 27
f 18 29 28
f 20 29 19
f 11 30 20
f 21 32 31
f 22 33 32
f 24 33 23
f 25 34 24
f 26 35 25
f 26 37 36
f 27 38 37
f 28 39 38
f 30 39 29
f 21 40 30
f 31 42 41
f 32 43 42
f 34 43 33
f 35 44 34
f 36 45 35
f 36 47 46
f 37 48 47
f 38 49 48
f 40 49 39
f 31 50 40
f 41 52 51
f 42 53 52
f 44 53 43
f 45 54 44
f 46 55 45
f 46 57 56
f 47 58 57
f 48 59 58
f 50 59 49
f 41 60 50
f 51 62 61
f 52 63 62
f 54 63 53
f 55 64 54
f 56 65 55
f 56 67 66
f 57 68 67
f 58 69 68
f 60 69 59
f 51 70 60
f 61 72 71
f 62 73 72
f 63 74 73
f 65 74 64
f 66 75 65
f 66 77 76
f 67 78 77
f 69 78 68
f 70 79 69
f 61 80 70
f 71 82 81
f 72 83 82
f 73 84 83
f 75 84 74
f 76 85 75
f 76 87 86
f 77 88 87
f 79 88 78
f 80 89 79
f 71 90 80
f 81 92 91
f 82 93 92
f 83 94 93
f 85 94 84
f 86 95 85
f 86 97 96
f 87 98 97
f 89 98 88
f 90 99 89
f 81 100 90
f 91 102 101
f 92 103 102
f 93 104 103
f 95 104 94
f 96 105 95
f 96 107 106
f 97 108 107
f 99 108 98
f 100 109 99
f 91 110 100
f 101 112 111
f 102 113 112
f 103 114 113
f 105 114 104
f 106 115 105
f 106 117 116
f 107 118 117
f 109 118 108
f 110 119 109
f 101 120 110
f 111 122 121
f 112 123 122
f 113 124 123
f 115 124 114
f 116 125 115
f 116 127 126
f 117 128 127
f 119 128 118
f 120 129 119
f 111 130 120
f 121 132 131
f 122 133 132
f 123 134 133
f 125 134 124
f 126 135 125
f 126 137 136
f 127 138 137
f 129 138 128
f 130 139 129
f 121 140 130
f 132 141 131
f 133 142 132
f 133 144 143
f 134 145 144
f 135 146 145
f 137 146 136
f 138 147 137
f 139 148 138
f 139 150 149
f 140 141 150
f 142 151 141
f 143 152 142
f 143 154 153
f 144 155 154
f 145 156 155
f 147 156 146
f 148 157 147
f 149 158 148
f 149 160 159
f 150 151 160
f 152 161 151
f 153 162 152
f 153 164 163
f 154 165 164
f 155 166 165
f 157 166 156
f 158 167 157
f 159 168 158
f 159 170 169
f 160 161 170
f 162 171 161
f 163 172 162
f 163 174 173
f 164 175 174
f 165 176 175
f 167 176 166
f 168 177 167
f 169 178 168
f 169 180 179
f 170 171 180
f 172 181 171
f 173 182 172
f 173 184 183
f 174 185 184
f 175 186 185
f 177 186 176
f 178 187 177
f 179 188 178
f 179 190 189
f 180 181 190
f 182 191 181
f 183 192 182
f 183 194 193
f 184 195 194
f 185 196 195
f 187 196 186
f 188 197 187
f 189 198 188
f 189 200 199
f 190 191 200
f 192 201 191
f 193 202 192
f 193 204 203
f 194 205 204
f 195 206 205
f 197 206 196
f 198 207 197
f 199 208 198
f 199 210 209
f 200 201 210
f 202 211 201
f 203 212 202
f 204 213 203
f 204 215 214
f 205 216 215
f 207 216 206
f 208 217 207
f 209 218 208
f 209 220 219
f 210 211 220
f 212 221 211
f 213 222 212
f 214 223 213
f 214 225 224
f 215 226 225
f 217 226 216
f 218 227 217
f 218 229 228
f 219 230 229
f 220 221 230
f 222 231 221
f 223 232 222
f 224 233 223
f 224 235 234
f 225 236 235
f 227 236 226
f 228 237 227
f 228 239 238
f 229 240 239
f 230 231 240
f 232 241 231
f 233 242 232
f 234 243 233
f 234 245 244
f 235 246 245
f 237 246 236
f 238 247 237
f 238 249 248
f 239 250 249
f 240 241 250
f 242 251 241
f 243 252 242
f 244 253 243
f 244 255 254
f 245 256 255
f 247 256 246
f 248 257 247
f 248 259 258
f 249 260 259
f 250 251 260
f 252 261 251
f 253 262 252
f 254 263 253
f 254 265 264
f 255 266 265
f 257 266 256
f 258 267 257
f 258 269 268
f 259 270 269
f 260 261 270
f 262 271 261
f 263 272 262
f 264 273 263
f 264 275 274
f 265 276 275
f 267 276 266
f 268 277 267
f 268 279 278
f 269 280 279
f 270 271 280
f 272 281 271
f 273 282 272
f 273 284 283
f 274 285 284
f 275 286 285
f 277 286 276
f 278 287 277
f 279 288 278
f 279 290 289
f 280 281 290
f 291 2 1
f 291 3 2
f 291 4 3
f 291 5 4
f 291 6 5
f 291 7 6
f 291 8 7
f 291 9 8
f 291 10 9
f 291 1 10
f 281 282 292
f 282 283 292
f 283 284 292
f 284 285 292
f 285 286 292
f 286 287 292
f 287 288 292
f 288 289 292
f 289 290 292
f 290 281 292
f 1 2 12
f 2 3 13
f 3 4 14
f 5 15 14
f 6 16 15
f 6 7 17
f 7 8 18
f 9 19 18
f 10 20 19
f 1 11 20
f 11 12 22
f 12 13 23
f 14 24 23
f 15 25 24
f 16 26 25
f 16 17 27
f 17 18 28
f 18 19 29
f 20 30 29
f 11 21 30
f 21 22 32
f 22 23 33
f 24 34 33
f 25 35 34
f 26 36 35
f 26 27 37
f 27 28 38
f 28 29 39
f 30 40 39
f 21 31 40
f 31 32 42
f 32 33 43
f 34 44 43
f 35 45 44
f 36 46 45
f 36 37 47
f 37 38 48
f 38 39 49
f 40 50 49
f 31 41 50
f 41 42 52
f 42 43 53
f 44 54 53
f 45 55 54
f 46 56 55
f 46 47 57
f 47 48 58
f 48 49 59
f 50 60 59
f 41 51 60
f 51 52 62
f 52 53 63
f 54 64 63
f 55 65 64
f 56 66 65
f 56 57 67
f 57 58 68
f 58 59 69
f 60 70 69
f 51 61 70
f 61 62 72
f 62 63 73
f 63 64 74
f 65 75 74
f 66 76 75
f 66 67 77
f 67 68 78
f 69 79 78
f 70 80 79
f 61 71 80
f 71 72 82
f 72 73 83
f 73 74 84
f 75 85 84
f 76 86 85
f 76 77 87
f 77 78 88
f 79 89 88
f 80 90 89
f 71 81 90
f 81 82 92
f 82 83 93
f 83 84 94
f 85 95 94
f 86 96 95
f 86 87 97
f 87 88 98
f 89 99 98
f 90 100 99
f 81 91 100
f 91 92 102
f 92 93 103
f 93 94 104
f 95 105 104
f 96 106 105
f 96 97 107
f 97 98 108
f 99 109 108
f 100 110 109
f 91 101 110
f 101 102 112
f 102 103 113
f 103 104 114
f 105 115 114
f 106 116 115
f 106 107 117
f 107 108 118
f 109 119 118
f 110 120 119
f 101 111 120
f 111 112 122
f 112 113 123
f 113 114 124
f 115 125 124
f 116 126 125
f 116 117 127
f 117 118 128
f 119 129 128
f 120 130 129
f 111 121 130
f 121 122 132
f 122 123 133
f 123 124 134
f 125 135 134
f 126 136 135
f 126 127 137
f 127 128 138
f 129 139 138
f 130 140 139
f 121 131 140
f 132 142 141
f 133 143 142
f 133 134 144
f 134 135 145
f 135 136 146
f 137 147 146
f 138 148 147
f 139 149 148
f 139 140 150
f 140 131 141
f 142 152 151
f 143 153 152
f 143 144 154
f 144 145 155
f 145 146 156
f 147 157 156
f 148 158 157
f 149 159 158
f 149 150 160
f 150 141 151
f 152 162 161
f 153 163 162
f 153 154 164
f 154 155 165
f 155 156 166
f 157 167 166
f 158 168 167
f 159 169 168
f 159 160 170
f 160 151 161
f 162 172 171
f 163 173 172
f 163 164 174
f 164 165 175
f 165 166 176
f 167 177 176
f 168 178 177
f 169 179 178
f 169 170 180
f 170 161 171
f 172 182 181
f 173 183 182
f 173 174 184
f 174 175 185
f 175 176 186
f 177 187 186
f 178 188 187
f 179 189 188
f 179 180 190
f 180 171 181
f 182 192 191
f 183 193 192
f 183 184 194
f 184 185 195
f 185 186 196
f 187 197 196
f 188 198 197
f 189 199 198
f 189 190 200
f 190 181 191
f 192 202 201
f 193 203 202
f 193 194 204
f 194 195 205
f 195 196 206
f 197 207 206
f 198 208 207
f 199 209 208
f 199 200 210
f 200 191 201
f 202 212 211
f 203 213 212
f 204 214 213
f 204 205 215
f 205 206 216
f 207 217 216
f 208 218 217
f 209 219 218
f 209 210 220
f 210 201 211
f 212 222 221
f 213 223 222
f 214 224 223
f 214 215 225
f 215 216 226
f 217 227 226
f 218 228 227
f 218 219 229
f 219 220 230
f 220 211 221
f 222 232 231
f 223 233 232
f 224 234 233
f 224 225 235
f 225 226 236
f 227 237 236
f 228 238 237
f 228 229 239
f 229 230 240
f 230 221 231
f 232 242 241
f 233 243 242
f 234 244 243
f 234 235 245
f 235 236 246
f 237 247 246
f 238 248 247
f 238 239 249
f 239 240 250
f 240 231 241
f 242 252 251
f 243 253 252
f 244 254 253
f 244 245 255
f 245 246 256
f 247 257 256
f 248 258 257
f 248 249 259
f 249 250 260
f 250 241 251
f 252 262 261
f 253 263 262
f 254 264 263
f 254 255 265
f 255 256 266
f 257 267 266
f 258 268 267
f 258 259 269
f 259 260 270
f 260 251 261
f 262 272 271
f 263 273 272
f 264 274 273
f 264 265 275
f 265 266 276
f 267 277 276
f 268 278 277
f 268 269 279
f 269 270 280
f 270 261 271
f 272 282 281
f 273 283 282
f 273 274 284
f 274 275 285
f 275 276 286
f 277 287 286
f 278 288 287
f 279 289 288
f 279 280 290
f 280 271 281
