# kitsune Tail4_TailCore.obj: Roblox cue frame, recentred on its bounding box
v 0.22067 0.08920 -0.59668
v 0.21746 0.08720 -0.59801
v 0.21737 0.08321 -0.59780
v 0.22048 0.08121 -0.59627
v 0.22368 0.08321 -0.59495
v 0.22378 0.08720 -0.59515
v 0.20145 0.09317 -0.55421
v 0.19722 0.09050 -0.55609
v 0.19708 0.08516 -0.55579
v 0.20118 0.08250 -0.55362
v 0.20541 0.08518 -0.55175
v 0.20554 0.09051 -0.55205
v 0.17947 0.09760 -0.51182
v 0.17429 0.09426 -0.51434
v 0.17407 0.08760 -0.51388
v 0.17904 0.08430 -0.51090
v 0.18423 0.08765 -0.50838
v 0.18445 0.09430 -0.50884
v 0.15562 0.10310 -0.46952
v 0.14947 0.09909 -0.47260
v 0.14911 0.09117 -0.47188
v 0.15491 0.08725 -0.46809
v 0.16107 0.09126 -0.46501
v 0.16142 0.09918 -0.46572
v 0.13078 0.10997 -0.42730
v 0.12364 0.10535 -0.43082
v 0.12310 0.09622 -0.42976
v 0.12969 0.09171 -0.42519
v 0.13684 0.09633 -0.42167
v 0.13738 0.10546 -0.42273
v 0.10580 0.11827 -0.38513
v 0.09765 0.11308 -0.38894
v 0.09689 0.10283 -0.38750
v 0.10427 0.09776 -0.38224
v 0.11242 0.10295 -0.37843
v 0.11318 0.11321 -0.37987
v 0.08138 0.12781 -0.34296
v 0.07223 0.12212 -0.34692
v 0.07126 0.11083 -0.34509
v 0.07943 0.10522 -0.33930
v 0.08858 0.11091 -0.33533
v 0.08956 0.12220 -0.33716
v 0.05812 0.13820 -0.30073
v 0.04800 0.13208 -0.30473
v 0.04685 0.11984 -0.30257
v 0.05581 0.11371 -0.29641
v 0.06594 0.11983 -0.29241
v 0.06709 0.13208 -0.29457
v 0.03638 0.14893 -0.25840
v 0.02536 0.14245 -0.26234
v 0.02409 0.12934 -0.25995
v 0.03384 0.12272 -0.25362
v 0.04487 0.12920 -0.24968
v 0.04614 0.14230 -0.25207
v 0.01636 0.15941 -0.21590
v 0.00453 0.15263 -0.21974
v 0.00322 0.13874 -0.21729
v 0.01374 0.13164 -0.21100
v 0.02556 0.13842 -0.20716
v 0.02687 0.15231 -0.20961
v -0.00196 0.16904 -0.17321
v -0.01444 0.16200 -0.17696
v -0.01571 0.14743 -0.17465
v -0.00450 0.13989 -0.16858
v 0.00799 0.14692 -0.16483
v 0.00925 0.16150 -0.16714
v -0.01873 0.17723 -0.13029
v -0.03171 0.16998 -0.13402
v -0.03285 0.15482 -0.13207
v -0.02102 0.14691 -0.12638
v -0.00804 0.15416 -0.12265
v -0.00689 0.16932 -0.12460
v -0.03423 0.18344 -0.08714
v -0.04753 0.17602 -0.09097
v -0.04848 0.16041 -0.08960
v -0.03613 0.15222 -0.08441
v -0.02284 0.15964 -0.08059
v -0.02188 0.17525 -0.08195
v -0.04883 0.18721 -0.04379
v -0.06226 0.17968 -0.04786
v -0.06296 0.16378 -0.04728
v -0.05023 0.15541 -0.04264
v -0.03680 0.16294 -0.03858
v -0.03610 0.17884 -0.03916
v -0.06295 0.18814 -0.00029
v -0.07633 0.18057 -0.00472
v -0.07673 0.16458 -0.00510
v -0.06374 0.15615 -0.00103
v -0.05036 0.16372 0.00341
v -0.04996 0.17971 0.00378
v -0.07696 0.18588 0.04331
v -0.09012 0.17837 0.03839
v -0.09018 0.16251 0.03698
v -0.07708 0.15416 0.04048
v -0.06393 0.16166 0.04541
v -0.06387 0.17753 0.04682
v -0.09122 0.18016 0.08694
v -0.10398 0.17284 0.08148
v -0.10368 0.15734 0.07900
v -0.09061 0.14917 0.08197
v -0.07785 0.15649 0.08743
v -0.07815 0.17199 0.08992
v -0.10594 0.17074 0.13053
v -0.11819 0.16372 0.12455
v -0.11752 0.14881 0.12104
v -0.10461 0.14093 0.12350
v -0.09237 0.14795 0.12948
v -0.09303 0.16285 0.13299
v -0.12124 0.15739 0.17401
v -0.13285 0.15078 0.16761
v -0.13183 0.13669 0.16317
v -0.11921 0.12920 0.16513
v -0.10760 0.13580 0.17154
v -0.10861 0.14990 0.17597
v -0.13704 0.13993 0.21734
v -0.14794 0.13383 0.21068
v -0.14661 0.12073 0.20547
v -0.13438 0.11373 0.20692
v -0.12348 0.11984 0.21358
v -0.12481 0.13294 0.21879
v -0.15308 0.11823 0.26048
v -0.16323 0.11266 0.25376
v -0.16165 0.10070 0.24797
v -0.14993 0.09431 0.24890
v -0.13979 0.09987 0.25562
v -0.14136 0.11183 0.26141
v -0.16892 0.09220 0.30340
v -0.17829 0.08718 0.29685
v -0.17655 0.07645 0.29070
v -0.16545 0.07076 0.29109
v -0.15608 0.07578 0.29764
v -0.15782 0.08651 0.30379
v -0.18393 0.06190 0.34609
v -0.19250 0.05738 0.33994
v -0.19069 0.04794 0.33365
v -0.18032 0.04303 0.33352
v -0.17175 0.04755 0.33968
v -0.17355 0.05699 0.34596
v -0.19732 0.02752 0.38855
v -0.20508 0.02344 0.38298
v -0.20330 0.01529 0.37679
v -0.19377 0.01121 0.37618
v -0.18601 0.01529 0.38175
v -0.18779 0.02344 0.38794
v -0.20820 -0.01055 0.43078
v -0.21511 -0.01424 0.42595
v -0.21345 -0.02114 0.42008
v -0.20489 -0.02436 0.41906
v -0.19798 -0.02067 0.42390
v -0.19964 -0.01376 0.42976
v -0.21564 -0.05165 0.47281
v -0.22165 -0.05500 0.46881
v -0.22018 -0.06073 0.46348
v -0.21270 -0.06310 0.46215
v -0.20669 -0.05975 0.46615
v -0.20816 -0.05403 0.47148
v -0.21872 -0.09487 0.51467
v -0.22378 -0.09789 0.51155
v -0.22254 -0.10253 0.50692
v -0.21625 -0.10415 0.50541
v -0.21119 -0.10112 0.50853
v -0.21242 -0.09648 0.51316
v -0.21664 -0.13903 0.55638
v -0.22069 -0.14170 0.55413
v -0.21971 -0.14534 0.55035
v -0.21468 -0.14631 0.54881
v -0.21064 -0.14364 0.55106
v -0.21162 -0.14000 0.55485
v -0.20881 -0.18272 0.59801
v -0.21182 -0.18482 0.59643
v -0.21109 -0.18753 0.59358
v -0.20735 -0.18814 0.59230
v -0.20434 -0.18603 0.59388
v -0.20507 -0.18332 0.59673
v 0.22057 0.08520 -0.59648
v -0.20808 -0.18543 0.59516
f 1 8 7
f 3 8 2
f 4 9 3
f 5 10 4
f 5 12 11
f 6 7 12
f 8 13 7
f 9 14 8
f 9 16 15
f 10 17 16
f 11 18 17
f 7 18 12
f 14 19 13
f 15 20 14
f 15 22 21
f 16 23 22
f 17 24 23
f 13 24 18
f 20 25 19
f 21 26 20
f 21 28 27
f 22 29 28
f 23 30 29
f 19 30 24
f 26 31 25
f 26 33 32
f 27 34 33
f 28 35 34
f 30 35 29
f 25 36 30
f 32 37 31
f 32 39 38
f 33 40 39
f 34 41 40
f 36 41 35
f 31 42 36
f 38 43 37
f 38 45 44
f 39 46 45
f 40 47 46
f 42 47 41
f 37 48 42
f 43 50 49
f 44 51 50
f 45 52 51
f 47 52 46
f 48 53 47
f 43 54 48
f 49 56 55
f 50 57 56
f 51 58 57
f 53 58 52
f 54 59 53
f 49 60 54
f 55 62 61
f 56 63 62
f 57 64 63
f 59 64 58
f 60 65 59
f 55 66 60
f 61 68 67
f 62 69 68
f 63 70 69
f 65 70 64
f 66 71 65
f 61 72 66
f 67 74 73
f 68 75 74
f 70 75 69
f 71 76 70
f 72 77 71
f 72 73 78
f 73 80 79
f 74 81 80
f 76 81 75
f 77 82 76
f 78 83 77
f 78 79 84
f 79 86 85
f 80 87 86
f 82 87 81
f 83 88 82
f 84 89 83
f 84 85 90
f 85 92 91
f 86 93 92
f 88 93 87
f 89 94 88
f 90 95 89
f 90 91 96
f 91 98 97
f 92 99 98
f 94 99 93
f 95 100 94
f 96 101 95
f 96 97 102
f 97 104 103
f 98 105 104
f 100 105 99
f 101 106 100
f 102 107 101
f 97 108 102
f 104 109 103
f 104 111 110
f 105 112 111
f 107 112 106
f 108 113 107
f 103 114 108
f 110 115 109
f 110 117 116
f 111 118 117
f 112 119 118
f 114 119 113
f 109 120 114
f 116 121 115
f 116 123 122
f 117 124 123
f 118 125 124
f 120 125 119
f 115 126 120
f 122 127 121
f 123 128 122
f 123 130 129
f 124 131 130
f 125 132 131
f 121 132 126
f 128 133 127
f 129 134 128
f 129 136 135
f 130 137 136
f 131 138 137
f 127 138 132
f 134 139 133
f 135 140 134
f 135 142 141
f 136 143 142
f 137 144 143
f 133 144 138
f 140 145 139
f 141 146 140
f 141 148 147
f 142 149 148
f 143 150 149
f 139 150 144
f 146 151 145
f 147 152 146
f 147 154 153
f 148 155 154
f 149 156 155
f 145 156 150
f 152 157 151
f 153 158 152
f 153 160 159
f 154 161 160
f 155 162 161
f 151 162 156
f 158 163 157
f 159 164 158
f 159 166 165
f 160 167 166
f 161 168 167
f 157 168 162
f 163 170 169
f 165 170 164
f 166 171 165
f 167 172 166
f 167 174 173
f 168 169 174
f 175 2 1
f 175 3 2
f 175 4 3
f 175 5 4
f 175 6 5
f 175 1 6
f 169 170 176
f 170 171 176
f 171 172 176
f 172 173 176
f 173 174 176
f 174 169 176
f 1 2 8
f 3 9 8
f 4 10 9
f 5 11 10
f 5 6 12
f 6 1 7
f 8 14 13
f 9 15 14
f 9 10 16
f 10 11 17
f 11 12 18
f 7 13 18
f 14 20 19
f 15 21 20
f 15 16 22
f 16 17 23
f 17 18 24
f 13 19 24
f 20 26 25
f 21 27 26
f 21 22 28
f 22 23 29
f 23 24 30
f 19 25 30
f 26 32 31
f 26 27 33
f 27 28 34
f 28 29 35
f 30 36 35
f 25 31 36
f 32 38 37
f 32 33 39
f 33 34 40
f 34 35 41
f 36 42 41
f 31 37 42
f 38 44 43
f 38 39 45
f 39 40 46
f 40 41 47
f 42 48 47
f 37 43 48
f 43 44 50
f 44 45 51
f 45 46 52
f 47 53 52
f 48 54 53
f 43 49 54
f 49 50 56
f 50 51 57
f 51 52 58
f 53 59 58
f 54 60 59
f 49 55 60
f 55 56 62
f 56 57 63
f 57 58 64
f 59 65 64
f 60 66 65
f 55 61 66
f 61 62 68
f 62 63 69
f 63 64 70
f 65 71 70
f 66 72 71
f 61 67 72
f 67 68 74
f 68 69 75
f 70 76 75
f 71 77 76
f 72 78 77
f 72 67 73
f 73 74 80
f 74 75 81
f 76 82 81
f 77 83 82
f 78 84 83
f 78 73 79
f 79 80 86
f 80 81 87
f 82 88 87
f 83 89 88
f 84 90 89
f 84 79 85
f 85 86 92
f 86 87 93
f 88 94 93
f 89 95 94
f 90 96 95
f 90 85 91
f 91 92 98
f 92 93 99
f 94 100 99
f 95 101 100
f 96 102 101
f 96 91 97
f 97 98 104
f 98 99 105
f 100 106 105
f 101 107 106
f 102 108 107
f 97 103 108
f 104 110 109
f 104 105 111
f 105 106 112
f 107 113 112
f 108 114 113
f 103 109 114
f 110 116 115
f 110 111 117
f 111 112 118
f 112 113 119
f 114 120 119
f 109 115 120
f 116 122 121
f 116 117 123
f 117 118 124
f 118 119 125
f 120 126 125
f 115 121 126
f 122 128 127
f 123 129 128
f 123 124 130
f 124 125 131
f 125 126 132
f 121 127 132
f 128 134 133
f 129 135 134
f 129 130 136
f 130 131 137
f 131 132 138
f 127 133 138
f 134 140 139
f 135 141 140
f 135 136 142
f 136 137 143
f 137 138 144
f 133 139 144
f 140 146 145
f 141 147 146
f 141 142 148
f 142 143 149
f 143 144 150
f 139 145 150
f 146 152 151
f 147 153 152
f 147 148 154
f 148 149 155
f 149 150 156
f 145 151 156
f 152 158 157
f 153 159 158
f 153 154 160
f 154 155 161
f 155 156 162
f 151 157 162
f 158 164 163
f 159 165 164
f 159 160 166
f 160 161 167
f 161 162 168
f 157 163 168
f 163 164 170
f 165 171 170
f 166 172 171
f 167 173 172
f 167 168 174
f 168 163 169
