# kitsune Tail6_TailCore.obj: Roblox cue frame, recentred on its bounding box
v -0.05185 0.24592 -0.65804
v -0.05525 0.24405 -0.65901
v -0.05514 0.24031 -0.66043
v -0.05163 0.23844 -0.66087
v -0.04823 0.24031 -0.65990
v -0.04834 0.24405 -0.65848
v -0.05550 0.22924 -0.61037
v -0.06004 0.22677 -0.61175
v -0.05988 0.22183 -0.61377
v -0.05519 0.21935 -0.61441
v -0.05066 0.22181 -0.61302
v -0.05081 0.22676 -0.61100
v -0.05967 0.20953 -0.56253
v -0.06531 0.20655 -0.56447
v -0.06509 0.20049 -0.56725
v -0.05923 0.19742 -0.56810
v -0.05359 0.20041 -0.56617
v -0.05381 0.20647 -0.56338
v -0.06481 0.18778 -0.51473
v -0.07151 0.18432 -0.51727
v -0.07123 0.17718 -0.52078
v -0.06423 0.17350 -0.52176
v -0.05753 0.17696 -0.51923
v -0.05781 0.18410 -0.51572
v -0.07115 0.16490 -0.46703
v -0.07888 0.16100 -0.47016
v -0.07853 0.15279 -0.47431
v -0.07046 0.14848 -0.47533
v -0.06273 0.15238 -0.47220
v -0.06308 0.16059 -0.46805
v -0.07870 0.14173 -0.41945
v -0.08739 0.13741 -0.42314
v -0.08701 0.12814 -0.42780
v -0.07793 0.12319 -0.42878
v -0.06924 0.12751 -0.42509
v -0.06962 0.13678 -0.42042
v -0.08727 0.11898 -0.37202
v -0.09687 0.11425 -0.37618
v -0.09647 0.10393 -0.38120
v -0.08647 0.09835 -0.38207
v -0.07688 0.10309 -0.37791
v -0.07728 0.11340 -0.37288
v -0.09652 0.09720 -0.32473
v -0.10696 0.09204 -0.32924
v -0.10657 0.08072 -0.33448
v -0.09574 0.07455 -0.33522
v -0.08530 0.07970 -0.33071
v -0.08569 0.09103 -0.32547
v -0.10601 0.07672 -0.27759
v -0.11723 0.07113 -0.28229
v -0.11687 0.05885 -0.28760
v -0.10530 0.05217 -0.28822
v -0.09408 0.05775 -0.28353
v -0.09444 0.07003 -0.27821
v -0.11526 0.05770 -0.23057
v -0.12718 0.05168 -0.23527
v -0.12687 0.03854 -0.24055
v -0.11464 0.03142 -0.24111
v -0.10272 0.03745 -0.23641
v -0.10303 0.05058 -0.23113
v -0.12379 0.04011 -0.18361
v -0.13632 0.03366 -0.18816
v -0.13606 0.01978 -0.19331
v -0.12326 0.01235 -0.19393
v -0.11073 0.01880 -0.18939
v -0.11099 0.03268 -0.18423
v -0.13114 0.02377 -0.13669
v -0.14418 0.01692 -0.14091
v -0.14396 0.00243 -0.14592
v -0.13068 -0.00519 -0.14671
v -0.11764 0.00166 -0.14250
v -0.11787 0.01615 -0.13749
v -0.13691 0.00839 -0.08976
v -0.15033 0.00117 -0.09350
v -0.15013 -0.01376 -0.09838
v -0.13649 -0.02146 -0.09951
v -0.12307 -0.01424 -0.09577
v -0.12327 0.00069 -0.09089
v -0.14074 -0.00642 -0.04277
v -0.15441 -0.01395 -0.04594
v -0.15421 -0.02914 -0.05074
v -0.14034 -0.03679 -0.05236
v -0.12667 -0.02926 -0.04919
v -0.12687 -0.01408 -0.04439
v -0.14234 -0.02107 0.00429
v -0.15610 -0.02884 0.00175
v -0.15590 -0.04411 -0.00304
v -0.14194 -0.05161 -0.00528
v -0.12819 -0.04384 -0.00274
v -0.12839 -0.02857 0.00204
v -0.14145 -0.03597 0.05142
v -0.15513 -0.04390 0.04954
v -0.15494 -0.05907 0.04469
v -0.14106 -0.06630 0.04172
v -0.12738 -0.05837 0.04361
v -0.12758 -0.04320 0.04845
v -0.13785 -0.05146 0.09859
v -0.15128 -0.05949 0.09737
v -0.15111 -0.07438 0.09242
v -0.13750 -0.08126 0.08869
v -0.12406 -0.07323 0.08991
v -0.12423 -0.05833 0.09486
v -0.13132 -0.06783 0.14577
v -0.14435 -0.07587 0.14519
v -0.14422 -0.09034 0.14013
v -0.13105 -0.09677 0.13565
v -0.11801 -0.08873 0.13622
v -0.11815 -0.07426 0.14128
v -0.12167 -0.08524 0.19290
v -0.13415 -0.09321 0.19295
v -0.13408 -0.10711 0.18782
v -0.12153 -0.11303 0.18265
v -0.10905 -0.10506 0.18261
v -0.10912 -0.09116 0.18773
v -0.10873 -0.10368 0.23994
v -0.12051 -0.11152 0.24057
v -0.12050 -0.12473 0.23548
v -0.10872 -0.13010 0.22975
v -0.09694 -0.12226 0.22912
v -0.09695 -0.10905 0.23421
v -0.09235 -0.12299 0.28686
v -0.10328 -0.13062 0.28802
v -0.10333 -0.14305 0.28308
v -0.09244 -0.14786 0.27697
v -0.08150 -0.14023 0.27580
v -0.08146 -0.12780 0.28074
v -0.07241 -0.14284 0.33363
v -0.08237 -0.15018 0.33528
v -0.08243 -0.16177 0.33063
v -0.07252 -0.16602 0.32433
v -0.06255 -0.15868 0.32269
v -0.06250 -0.14709 0.32733
v -0.04886 -0.16272 0.38026
v -0.05776 -0.16968 0.38231
v -0.05777 -0.18036 0.37809
v -0.04890 -0.18408 0.37183
v -0.04000 -0.17711 0.36979
v -0.03998 -0.16643 0.37400
v -0.02176 -0.18194 0.42678
v -0.02952 -0.18844 0.42912
v -0.02945 -0.19815 0.42546
v -0.02161 -0.20138 0.41946
v -0.01385 -0.19489 0.41711
v -0.01393 -0.18517 0.42077
v 0.00866 -0.19972 0.47321
v 0.00208 -0.20564 0.47573
v 0.00230 -0.21433 0.47271
v 0.00911 -0.21710 0.46716
v 0.01569 -0.21118 0.46464
v 0.01547 -0.20249 0.46766
v 0.04203 -0.21514 0.51959
v 0.03662 -0.22038 0.52217
v 0.03702 -0.22799 0.51983
v 0.04282 -0.23034 0.51492
v 0.04823 -0.22510 0.51234
v 0.04784 -0.21750 0.51468
v 0.07771 -0.22727 0.56597
v 0.07343 -0.23175 0.56846
v 0.07401 -0.23819 0.56681
v 0.07886 -0.24015 0.56267
v 0.08313 -0.23567 0.56019
v 0.08256 -0.22924 0.56184
v 0.11486 -0.23521 0.61241
v 0.11163 -0.23883 0.61465
v 0.11234 -0.24403 0.61363
v 0.11627 -0.24561 0.61037
v 0.11949 -0.24198 0.60813
v 0.11879 -0.23678 0.60915
v 0.15250 -0.23813 0.65910
v 0.15016 -0.24085 0.66087
v 0.15079 -0.24474 0.66023
v 0.15376 -0.24592 0.65782
v 0.15610 -0.24320 0.65605
v 0.15547 -0.23931 0.65669
v -0.05174 0.24218 -0.65945
v 0.15313 -0.24202 0.65846
f 1 8 7
f 2 9 8
f 3 10 9
f 5 10 4
f 6 11 5
f 1 12 6
f 8 13 7
f 9 14 8
f 10 15 9
f 10 17 16
f 11 18 17
f 12 13 18
f 14 19 13
f 15 20 14
f 16 21 15
f 16 23 22
f 17 24 23
f 18 19 24
f 20 25 19
f 21 26 20
f 22 27 21
f 22 29 28
f 23 30 29
f 24 25 30
f 26 31 25
f 27 32 26
f 28 33 27
f 28 35 34
f 29 36 35
f 30 31 36
f 32 37 31
f 33 38 32
f 33 40 39
f 34 41 40
f 35 42 41
f 31 42 36
f 38 43 37
f 39 44 38
f 39 46 45
f 40 47 46
f 41 48 47
f 37 48 42
f 44 49 43
f 45 50 44
f 45 52 51
f 46 53 52
f 47 54 53
f 43 54 48
f 50 55 49
f 51 56 50
f 51 58 57
f 52 59 58
f 54 59 53
f 49 60 54
f 56 61 55
f 56 63 62
f 57 64 63
f 58 65 64
f 60 65 59
f 55 66 60
f 62 67 61
f 62 69 68
f 63 70 69
f 64 71 70
f 66 71 65
f 61 72 66
f 68 73 67
f 68 75 74
f 69 76 75
f 70 77 76
f 72 77 71
f 67 78 72
f 74 79 73
f 74 81 80
f 75 82 81
f 76 83 82
f 78 83 77
f 73 84 78
f 80 85 79
f 80 87 86
f 81 88 87
f 82 89 88
f 84 89 83
f 79 90 84
f 85 92 91
f 86 93 92
f 87 94 93
f 88 95 94
f 90 95 89
f 85 96 90
f 92 97 91
f 92 99 98
f 93 100 99
f 94 101 100
f 96 101 95
f 91 102 96
f 98 103 97
f 98 105 104
f 99 106 105
f 100 107 106
f 102 107 101
f 97 108 102
f 104 109 103
f 104 111 110
f 105 112 111
f 106 113 112
f 107 114 113
f 103 114 108
f 110 115 109
f 111 116 110
f 111 118 117
f 112 119 118
f 113 120 119
f 109 120 114
f 116 121 115
f 117 122 116
f 118 123 117
f 118 125 124
f 119 126 125
f 120 121 126
f 122 127 121
f 123 128 122
f 124 129 123
f 124 131 130
f 125 132 131
f 126 127 132
f 128 133 127
f 129 134 128
f 130 135 129
f 130 137 136
f 131 138 137
f 132 133 138
f 134 139 133
f 135 140 134
f 136 141 135
f 136 143 142
f 137 144 143
f 138 139 144
f 140 145 139
f 141 146 140
f 142 147 141
f 142 149 148
f 143 150 149
f 144 145 150
f 146 151 145
f 147 152 146
f 148 153 147
f 148 155 154
f 149 156 155
f 150 151 156
f 152 157 151
f 153 158 152
f 154 159 153
f 155 160 154
f 155 162 161
f 156 157 162
f 157 164 163
f 159 164 158
f 160 165 159
f 161 166 160
f 161 168 167
f 162 163 168
f 163 170 169
f 164 171 170
f 165 172 171
f 167 172 166
f 168 173 167
f 163 174 168
f 175 2 1
f 175 3 2
f 175 4 3
f 175 5 4
f 175 6 5
f 175 1 6
f 169 170 176
f 170 171 176
f 171 172 176
f 172 173 176
f 173 174 176
f 174 169 176
f 1 2 8
f 2 3 9
f 3 4 10
f 5 11 10
f 6 12 11
f 1 7 12
f 8 14 13
f 9 15 14
f 10 16 15
f 10 11 17
f 11 12 18
f 12 7 13
f 14 20 19
f 15 21 20
f 16 22 21
f 16 17 23
f 17 18 24
f 18 13 19
f 20 26 25
f 21 27 26
f 22 28 27
f 22 23 29
f 23 24 30
f 24 19 25
f 26 32 31
f 27 33 32
f 28 34 33
f 28 29 35
f 29 30 36
f 30 25 31
f 32 38 37
f 33 39 38
f 33 34 40
f 34 35 41
f 35 36 42
f 31 37 42
f 38 44 43
f 39 45 44
f 39 40 46
f 40 41 47
f 41 42 48
f 37 43 48
f 44 50 49
f 45 51 50
f 45 46 52
f 46 47 53
f 47 48 54
f 43 49 54
f 50 56 55
f 51 57 56
f 51 52 58
f 52 53 59
f 54 60 59
f 49 55 60
f 56 62 61
f 56 57 63
f 57 58 64
f 58 59 65
f 60 66 65
f 55 61 66
f 62 68 67
f 62 63 69
f 63 64 70
f 64 65 71
f 66 72 71
f 61 67 72
f 68 74 73
f 68 69 75
f 69 70 76
f 70 71 77
f 72 78 77
f 67 73 78
f 74 80 79
f 74 75 81
f 75 76 82
f 76 77 83
f 78 84 83
f 73 79 84
f 80 86 85
f 80 81 87
f 81 82 88
f 82 83 89
f 84 90 89
f 79 85 90
f 85 86 92
f 86 87 93
f 87 88 94
f 88 89 95
f 90 96 95
f 85 91 96
f 92 98 97
f 92 93 99
f 93 94 100
f 94 95 101
f 96 102 101
f 91 97 102
f 98 104 103
f 98 99 105
f 99 100 106
f 100 101 107
f 102 108 107
f 97 103 108
f 104 110 109
f 104 105 111
f 105 106 112
f 106 107 113
f 107 108 114
f 103 109 114
f 110 116 115
f 111 117 116
f 111 112 118
f 112 113 119
f 113 114 120
f 109 115 120
f 116 122 121
f 117 123 122
f 118 124 123
f 118 119 125
f 119 120 126
f 120 115 121
f 122 128 127
f 123 129 128
f 124 130 129
f 124 125 131
f 125 126 132
f 126 121 127
f 128 134 133
f 129 135 134
f 130 136 135
f 130 131 137
f 131 132 138
f 132 127 133
f 134 140 139
f 135 141 140
f 136 142 141
f 136 137 143
f 137 138 144
f 138 133 139
f 140 146 145
f 141 147 146
f 142 148 147
f 142 143 149
f 143 144 150
f 144 139 145
f 146 152 151
f 147 153 152
f 148 154 153
f 148 149 155
f 149 150 156
f 150 145 151
f 152 158 157
f 153 159 158
f 154 160 159
f 155 161 160
f 155 156 162
f 156 151 157
f 157 158 164
f 159 165 164
f 160 166 165
f 161 167 166
f 161 162 168
f 162 157 163
f 163 164 170
f 164 165 171
f 165 166 172
f 167 173 172
f 168 174 173
f 163 169 174
