# kitsune Tail7_TailFire.obj: Roblox cue frame, recentred on its bounding box
v -0.14891 0.18760 0.71198
v -0.14035 0.18216 0.71475
v -0.13545 0.16792 0.72003
v -0.13610 0.15031 0.72581
v -0.14203 0.13607 0.72989
v -0.15099 0.13063 0.73070
v -0.15956 0.13607 0.72794
v -0.16445 0.15031 0.72266
v -0.16381 0.16792 0.71687
v -0.15787 0.18216 0.71280
v -0.14256 0.18400 0.65490
v -0.12984 0.17597 0.65919
v -0.12261 0.15493 0.66745
v -0.12362 0.12891 0.67652
v -0.13249 0.10785 0.68293
v -0.14583 0.09980 0.68425
v -0.15854 0.10782 0.67996
v -0.16577 0.12887 0.67170
v -0.16476 0.15489 0.66263
v -0.15589 0.17594 0.65621
v -0.13588 0.17397 0.59810
v -0.12021 0.16416 0.60369
v -0.11137 0.13847 0.61468
v -0.11273 0.10671 0.62686
v -0.12378 0.08100 0.63558
v -0.14028 0.07117 0.63751
v -0.15595 0.08097 0.63192
v -0.16479 0.10667 0.62093
v -0.16343 0.13843 0.60875
v -0.15239 0.16414 0.60003
v -0.12969 0.16101 0.54189
v -0.11147 0.14962 0.54842
v -0.10123 0.11992 0.56168
v -0.10288 0.08326 0.57661
v -0.11581 0.05364 0.58749
v -0.13506 0.04238 0.59018
v -0.15329 0.05378 0.58365
v -0.16353 0.08347 0.57039
v -0.16187 0.12013 0.55547
v -0.14895 0.14975 0.54458
v -0.12456 0.14634 0.48652
v -0.10406 0.13343 0.49359
v -0.09255 0.10009 0.50856
v -0.09445 0.05905 0.52572
v -0.10901 0.02600 0.53850
v -0.13069 0.01355 0.54202
v -0.15120 0.02647 0.53495
v -0.16270 0.05981 0.51998
v -0.16081 0.10084 0.50282
v -0.14624 0.13389 0.49004
v -0.12080 0.13093 0.43220
v -0.09827 0.11654 0.43943
v -0.08562 0.07981 0.45547
v -0.08770 0.03475 0.47420
v -0.10370 -0.00141 0.48846
v -0.12751 -0.01486 0.49280
v -0.15004 -0.00047 0.48557
v -0.16269 0.03627 0.46953
v -0.16061 0.08132 0.45081
v -0.14461 0.11748 0.43655
v -0.11848 0.11561 0.37910
v -0.09417 0.09979 0.38614
v -0.08052 0.05986 0.40257
v -0.08274 0.01107 0.42212
v -0.09998 -0.02795 0.43732
v -0.12565 -0.04229 0.44237
v -0.14995 -0.02648 0.43533
v -0.16360 0.01345 0.41890
v -0.16139 0.06224 0.39935
v -0.14415 0.10127 0.38415
v -0.11746 0.10099 0.32727
v -0.09164 0.08384 0.33385
v -0.07713 0.04095 0.35002
v -0.07948 -0.01132 0.36961
v -0.09778 -0.05299 0.38513
v -0.12505 -0.06814 0.39066
v -0.15087 -0.05100 0.38408
v -0.16537 -0.00810 0.36791
v -0.16302 0.04417 0.34832
v -0.14472 0.08583 0.33280
v -0.11745 0.08750 0.27664
v -0.09038 0.06917 0.28260
v -0.07518 0.02359 0.29795
v -0.07766 -0.03184 0.31683
v -0.09687 -0.07593 0.33204
v -0.12548 -0.09185 0.33775
v -0.15256 -0.07352 0.33180
v -0.16776 -0.02794 0.31645
v -0.16528 0.02749 0.29756
v -0.14606 0.07158 0.28236
v -0.11810 0.07535 0.22705
v -0.09001 0.05603 0.23234
v -0.07427 0.00812 0.24644
v -0.07688 -0.05007 0.26398
v -0.09686 -0.09632 0.27825
v -0.12656 -0.11296 0.28381
v -0.15465 -0.09364 0.27852
v -0.17039 -0.04573 0.26442
v -0.16778 0.01246 0.24688
v -0.14780 0.05871 0.23261
v -0.11897 0.06457 0.17821
v -0.09011 0.04449 0.18290
v -0.07395 -0.00530 0.19552
v -0.07669 -0.06578 0.21125
v -0.09726 -0.11386 0.22408
v -0.12782 -0.13116 0.22911
v -0.15669 -0.11108 0.22442
v -0.17284 -0.06129 0.21180
v -0.17011 -0.00081 0.19608
v -0.14953 0.04726 0.18324
v -0.11964 0.05505 0.12979
v -0.09021 0.03446 0.13407
v -0.07376 -0.01672 0.14515
v -0.07657 -0.07895 0.15881
v -0.09756 -0.12846 0.16983
v -0.12873 -0.14634 0.17400
v -0.15816 -0.12575 0.16972
v -0.17461 -0.07457 0.15864
v -0.17180 -0.01234 0.14498
v -0.15081 0.03717 0.13396
v -0.11967 0.04659 0.08143
v -0.08990 0.02574 0.08556
v -0.07324 -0.02633 0.09525
v -0.07605 -0.08972 0.10681
v -0.09727 -0.14023 0.11581
v -0.12878 -0.15857 0.11882
v -0.15855 -0.13772 0.11469
v -0.17521 -0.08565 0.10500
v -0.17240 -0.02225 0.09344
v -0.15118 0.02826 0.08444
v -0.11862 0.03893 0.03282
v -0.08873 0.01804 0.03712
v -0.07196 -0.03440 0.04571
v -0.07472 -0.09837 0.05531
v -0.09594 -0.14943 0.06226
v -0.12753 -0.16807 0.06390
v -0.15742 -0.14718 0.05960
v -0.17419 -0.09473 0.05101
v -0.17143 -0.03077 0.04141
v -0.15021 0.02029 0.03446
v -0.11607 0.03179 -0.01626
v -0.08631 0.01106 -0.01148
v -0.06955 -0.04128 -0.00362
v -0.07217 -0.10525 0.00432
v -0.09319 -0.15640 0.00931
v -0.12457 -0.17520 0.00944
v -0.15433 -0.15446 0.00466
v -0.17110 -0.10212 -0.00320
v -0.16848 -0.03816 -0.01114
v -0.14746 0.01299 -0.01613
v -0.11164 0.02488 -0.06589
v -0.08226 0.00448 -0.06035
v -0.06563 -0.04732 -0.05284
v -0.06809 -0.11074 -0.04622
v -0.08870 -0.16154 -0.04302
v -0.11959 -0.18034 -0.04446
v -0.14897 -0.15994 -0.05000
v -0.16560 -0.10813 -0.05752
v -0.16314 -0.04472 -0.06414
v -0.14253 0.00609 -0.06734
v -0.10495 0.01795 -0.11606
v -0.07624 -0.00197 -0.10956
v -0.05990 -0.05282 -0.10207
v -0.06218 -0.11519 -0.09643
v -0.08220 -0.16525 -0.09482
v -0.11231 -0.18388 -0.09783
v -0.14102 -0.16396 -0.10433
v -0.15735 -0.11311 -0.11183
v -0.15508 -0.05074 -0.11746
v -0.13506 -0.00068 -0.11907
v -0.09571 0.01079 -0.16662
v -0.06794 -0.00851 -0.15906
v -0.05208 -0.05804 -0.15138
v -0.05417 -0.11890 -0.14650
v -0.07342 -0.16783 -0.14628
v -0.10247 -0.18615 -0.15081
v -0.13024 -0.16685 -0.15836
v -0.14610 -0.11731 -0.16605
v -0.14401 -0.05645 -0.17093
v -0.12476 -0.00752 -0.17115
v -0.08370 0.00331 -0.21736
v -0.05714 -0.01525 -0.20878
v -0.04189 -0.06313 -0.20085
v -0.04379 -0.12205 -0.19660
v -0.06210 -0.16950 -0.19765
v -0.08984 -0.18736 -0.20360
v -0.11640 -0.16880 -0.21218
v -0.13164 -0.12092 -0.22011
v -0.12974 -0.06200 -0.22437
v -0.11143 -0.01455 -0.22331
v -0.06879 -0.00448 -0.26808
v -0.04365 -0.02219 -0.25862
v -0.02915 -0.06811 -0.25055
v -0.03081 -0.12469 -0.24694
v -0.04801 -0.17034 -0.24918
v -0.07418 -0.18760 -0.25642
v -0.09931 -0.16989 -0.26588
v -0.11382 -0.12397 -0.27395
v -0.11215 -0.06738 -0.27756
v -0.09495 -0.02174 -0.27532
v -0.05094 -0.01242 -0.31860
v -0.02740 -0.02919 -0.30852
v -0.01369 -0.07286 -0.30053
v -0.01505 -0.12675 -0.29770
v -0.03095 -0.17027 -0.30110
v -0.05533 -0.18681 -0.30943
v -0.07887 -0.17004 -0.31952
v -0.09258 -0.12637 -0.32750
v -0.09122 -0.07248 -0.33034
v -0.07532 -0.02895 -0.32694
v -0.03022 -0.02022 -0.36882
v -0.00837 -0.03597 -0.35845
v 0.00456 -0.07713 -0.35088
v 0.00363 -0.12798 -0.34901
v -0.01080 -0.16909 -0.35354
v -0.03321 -0.18476 -0.36275
v -0.05506 -0.16900 -0.37312
v -0.06799 -0.12784 -0.38069
v -0.06706 -0.07700 -0.38256
v -0.05263 -0.03589 -0.37803
v -0.00676 -0.02747 -0.41873
v 0.01334 -0.04214 -0.40847
v 0.02555 -0.08053 -0.40167
v 0.02519 -0.12800 -0.40094
v 0.01241 -0.16639 -0.40656
v -0.00792 -0.18106 -0.41638
v -0.02803 -0.16640 -0.42664
v -0.04023 -0.12800 -0.43344
v -0.03988 -0.08054 -0.43416
v -0.02709 -0.04214 -0.42855
v 0.01915 -0.03370 -0.46842
v 0.03753 -0.04720 -0.45865
v 0.04910 -0.08257 -0.45297
v 0.04944 -0.12630 -0.45352
v 0.03842 -0.16169 -0.46012
v 0.02025 -0.17522 -0.47023
v 0.00188 -0.16172 -0.47999
v -0.00969 -0.12635 -0.48568
v -0.01003 -0.08262 -0.48512
v 0.00099 -0.04723 -0.47853
v 0.04716 -0.03836 -0.51803
v 0.06384 -0.05061 -0.50915
v 0.07483 -0.08268 -0.50482
v 0.07594 -0.12232 -0.50671
v 0.06674 -0.15440 -0.51409
v 0.05075 -0.16665 -0.52414
v 0.03407 -0.15441 -0.53303
v 0.02308 -0.12234 -0.53736
v 0.02197 -0.08269 -0.53547
v 0.03117 -0.05062 -0.52809
v 0.07673 -0.04094 -0.56779
v 0.09172 -0.05182 -0.56010
v 0.10213 -0.08028 -0.55728
v 0.10399 -0.11545 -0.56041
v 0.09659 -0.14390 -0.56830
v 0.08275 -0.15476 -0.57793
v 0.06776 -0.14388 -0.58562
v 0.05735 -0.11542 -0.58844
v 0.05549 -0.08025 -0.58531
v 0.06289 -0.05180 -0.57742
v 0.10718 -0.04100 -0.61792
v 0.12043 -0.05037 -0.61167
v 0.13014 -0.07487 -0.61037
v 0.13262 -0.10515 -0.61451
v 0.12690 -0.12965 -0.62252
v 0.11518 -0.13899 -0.63133
v 0.10193 -0.12963 -0.63758
v 0.09221 -0.10512 -0.63888
v 0.08974 -0.07484 -0.63474
v 0.09545 -0.05035 -0.62673
v 0.13766 -0.03837 -0.66873
v 0.14898 -0.04603 -0.66409
v 0.15771 -0.06613 -0.66415
v 0.16052 -0.09098 -0.66888
v 0.15633 -0.11110 -0.67649
v 0.14675 -0.11880 -0.68406
v 0.13543 -0.11114 -0.68870
v 0.12669 -0.09104 -0.68864
v 0.12388 -0.06619 -0.68390
v 0.12807 -0.04607 -0.67630
v 0.17059 -0.05569 -0.72646
v 0.17283 -0.05716 -0.72562
v 0.17459 -0.06103 -0.72575
v 0.17521 -0.06582 -0.72680
v 0.17445 -0.06970 -0.72837
v 0.17260 -0.07119 -0.72986
v 0.17037 -0.06972 -0.73070
v 0.16860 -0.06585 -0.73057
v 0.16798 -0.06106 -0.72952
v 0.16874 -0.05718 -0.72795
v -0.14995 0.15911 0.72134
v 0.17160 -0.06344 -0.72816
f 1 12 11
f 2 13 12
f 3 14 13
f 5 14 4
f 6 15 5
f 6 17 16
f 7 18 17
f 9 18 8
f 10 19 9
f 1 20 10
f 11 22 21
f 12 23 22
f 14 23 13
f 15 24 14
f 16 25 15
f 16 27 26
f 17 28 27
f 18 29 28
f 20 29 19
f 11 30 20
f 21 32 31
f 22 33 32
f 24 33 23
f 25 34 24
f 26 35 25
f 26 37 36
f 27 38 37
f 28 39 38
f 30 39 29
f 21 40 30
f 31 42 41
f 32 43 42
f 34 43 33
f 35 44 34
f 36 45 35
f 36 47 46
f 37 48 47
f 38 49 48
f 40 49 39
f 31 50 40
f 41 52 51
f 42 53 52
f 44 53 43
f 45 54 44
f 46 55 45
f 46 57 56
f 47 58 57
f 48 59 58
f 50 59 49
f 41 60 50
f 51 62 61
f 52 63 62
f 54 63 53
f 55 64 54
f 56 65 55
f 56 67 66
f 57 68 67
f 58 69 68
f 60 69 59
f 51 70 60
f 61 72 71
f 62 73 72
f 64 73 63
f 65 74 64
f 66 75 65
f 66 77 76
f 67 78 77
f 68 79 78
f 70 79 69
f 61 80 70
f 71 82 81
f 72 83 82
f 74 83 73
f 75 84 74
f 76 85 75
f 76 87 86
f 77 88 87
f 78 89 88
f 80 89 79
f 71 90 80
f 81 92 91
f 82 93 92
f 84 93 83
f 85 94 84
f 86 95 85
f 86 97 96
f 87 98 97
f 88 99 98
f 90 99 89
f 81 100 90
f 91 102 101
f 92 103 102
f 93 104 103
f 95 104 94
f 96 105 95
f 96 107 106
f 97 108 107
f 99 108 98
f 100 109 99
f 91 110 100
f 101 112 111
f 102 113 112
f 103 114 113
f 105 114 104
f 106 115 105
f 106 117 116
f 107 118 117
f 109 118 108
f 110 119 109
f 101 120 110
f 111 122 121
f 112 123 122
f 113 124 123
f 115 124 114
f 116 125 115
f 116 127 126
f 117 128 127
f 119 128 118
f 120 129 119
f 111 130 120
f 121 132 131
f 122 133 132
f 123 134 133
f 125 134 124
f 126 135 125
f 126 137 136
f 127 138 137
f 129 138 128
f 130 139 129
f 121 140 130
f 131 142 141
f 133 142 132
f 133 144 143
f 134 145 144
f 135 146 145
f 137 146 136
f 138 147 137
f 139 148 138
f 139 150 149
f 140 141 150
f 142 151 141
f 143 152 142
f 143 154 153
f 144 155 154
f 145 156 155
f 147 156 146
f 148 157 147
f 149 158 148
f 149 160 159
f 150 151 160
f 152 161 151
f 153 162 152
f 153 164 163
f 154 165 164
f 155 166 165
f 157 166 156
f 158 167 157
f 159 168 158
f 159 170 169
f 160 161 170
f 162 171 161
f 163 172 162
f 163 174 173
f 164 175 174
f 165 176 175
f 167 176 166
f 168 177 167
f 169 178 168
f 169 180 179
f 170 171 180
f 172 181 171
f 173 182 172
f 173 184 183
f 174 185 184
f 175 186 185
f 177 186 176
f 178 187 177
f 178 189 188
f 179 190 189
f 180 181 190
f 182 191 181
f 183 192 182
f 184 193 183
f 184 195 194
f 185 196 195
f 187 196 186
f 188 197 187
f 188 199 198
f 189 200 199
f 190 191 200
f 192 201 191
f 193 202 192
f 194 203 193
f 194 205 204
f 195 206 205
f 197 206 196
f 198 207 197
f 198 209 208
f 199 210 209
f 200 201 210
f 202 211 201
f 203 212 202
f 204 213 203
f 204 215 214
f 205 216 215
f 207 216 206
f 208 217 207
f 208 219 218
f 209 220 219
f 210 211 220
f 212 221 211
f 213 222 212
f 214 223 213
f 214 225 224
f 215 226 225
f 217 226 216
f 218 227 217
f 218 229 228
f 219 230 229
f 220 221 230
f 222 231 221
f 223 232 222
f 224 233 223
f 224 235 234
f 225 236 235
f 227 236 226
f 228 237 227
f 228 239 238
f 229 240 239
f 230 231 240
f 232 241 231
f 233 242 232
f 234 243 233
f 234 245 244
f 235 246 245
f 237 246 236
f 238 247 237
f 238 249 248
f 239 250 249
f 240 241 250
f 242 251 241
f 243 252 242
f 244 253 243
f 244 255 254
f 245 256 255
f 247 256 246
f 248 257 247
f 248 259 258
f 249 260 259
f 250 251 260
f 252 261 251
f 253 262 252
f 254 263 253
f 254 265 264
f 255 266 265
f 257 266 256
f 258 267 257
f 258 269 268
f 259 270 269
f 260 261 270
f 262 271 261
f 263 272 262
f 264 273 263
f 264 275 274
f 265 276 275
f 267 276 266
f 268 277 267
f 268 279 278
f 269 280 279
f 270 271 280
f 272 281 271
f 273 282 272
f 273 284 283
f 274 285 284
f 275 286 285
f 277 286 276
f 278 287 277
f 279 288 278
f 279 290 289
f 280 281 290
f 291 2 1
f 291 3 2
f 291 4 3
f 291 5 4
f 291 6 5
f 291 7 6
f 291 8 7
f 291 9 8
f 291 10 9
f 291 1 10
f 281 282 292
f 282 283 292
f 283 284 292
f 284 285 292
f 285 286 292
f 286 287 292
f 287 288 292
f 288 289 292
f 289 290 292
f 290 281 292
f 1 2 12
f 2 3 13
f 3 4 14
f 5 15 14
f 6 16 15
f 6 7 17
f 7 8 18
f 9 19 18
f 10 20 19
f 1 11 20
f 11 12 22
f 12 13 23
f 14 24 23
f 15 25 24
f 16 26 25
f 16 17 27
f 17 18 28
f 18 19 29
f 20 30 29
f 11 21 30
f 21 22 32
f 22 23 33
f 24 34 33
f 25 35 34
f 26 36 35
f 26 27 37
f 27 28 38
f 28 29 39
f 30 40 39
f 21 31 40
f 31 32 42
f 32 33 43
f 34 44 43
f 35 45 44
f 36 46 45
f 36 37 47
f 37 38 48
f 38 39 49
f 40 50 49
f 31 41 50
f 41 42 52
f 42 43 53
f 44 54 53
f 45 55 54
f 46 56 55
f 46 47 57
f 47 48 58
f 48 49 59
f 50 60 59
f 41 51 60
f 51 52 62
f 52 53 63
f 54 64 63
f 55 65 64
f 56 66 65
f 56 57 67
f 57 58 68
f 58 59 69
f 60 70 69
f 51 61 70
f 61 62 72
f 62 63 73
f 64 74 73
f 65 75 74
f 66 76 75
f 66 67 77
f 67 68 78
f 68 69 79
f 70 80 79
f 61 71 80
f 71 72 82
f 72 73 83
f 74 84 83
f 75 85 84
f 76 86 85
f 76 77 87
f 77 78 88
f 78 79 89
f 80 90 89
f 71 81 90
f 81 82 92
f 82 83 93
f 84 94 93
f 85 95 94
f 86 96 95
f 86 87 97
f 87 88 98
f 88 89 99
f 90 100 99
f 81 91 100
f 91 92 102
f 92 93 103
f 93 94 104
f 95 105 104
f 96 106 105
f 96 97 107
f 97 98 108
f 99 109 108
f 100 110 109
f 91 101 110
f 101 102 112
f 102 103 113
f 103 104 114
f 105 115 114
f 106 116 115
f 106 107 117
f 107 108 118
f 109 119 118
f 110 120 119
f 101 111 120
f 111 112 122
f 112 113 123
f 113 114 124
f 115 125 124
f 116 126 125
f 116 117 127
f 117 118 128
f 119 129 128
f 120 130 129
f 111 121 130
f 121 122 132
f 122 123 133
f 123 124 134
f 125 135 134
f 126 136 135
f 126 127 137
f 127 128 138
f 129 139 138
f 130 140 139
f 121 131 140
f 131 132 142
f 133 143 142
f 133 134 144
f 134 135 145
f 135 136 146
f 137 147 146
f 138 148 147
f 139 149 148
f 139 140 150
f 140 131 141
f 142 152 151
f 143 153 152
f 143 144 154
f 144 145 155
f 145 146 156
f 147 157 156
f 148 158 157
f 149 159 158
f 149 150 160
f 150 141 151
f 152 162 161
f 153 163 162
f 153 154 164
f 154 155 165
f 155 156 166
f 157 167 166
f 158 168 167
f 159 169 168
f 159 160 170
f 160 151 161
f 162 172 171
f 163 173 172
f 163 164 174
f 164 165 175
f 165 166 176
f 167 177 176
f 168 178 177
f 169 179 178
f 169 170 180
f 170 161 171
f 172 182 181
f 173 183 182
f 173 174 184
f 174 175 185
f 175 176 186
f 177 187 186
f 178 188 187
f 178 179 189
f 179 180 190
f 180 171 181
f 182 192 191
f 183 193 192
f 184 194 193
f 184 185 195
f 185 186 196
f 187 197 196
f 188 198 197
f 188 189 199
f 189 190 200
f 190 181 191
f 192 202 201
f 193 203 202
f 194 204 203
f 194 195 205
f 195 196 206
f 197 207 206
f 198 208 207
f 198 199 209
f 199 200 210
f 200 191 201
f 202 212 211
f 203 213 212
f 204 214 213
f 204 205 215
f 205 206 216
f 207 217 216
f 208 218 217
f 208 209 219
f 209 210 220
f 210 201 211
f 212 222 221
f 213 223 222
f 214 224 223
f 214 215 225
f 215 216 226
f 217 227 226
f 218 228 227
f 218 219 229
f 219 220 230
f 220 211 221
f 222 232 231
f 223 233 232
f 224 234 233
f 224 225 235
f 225 226 236
f 227 237 236
f 228 238 237
f 228 229 239
f 229 230 240
f 230 221 231
f 232 242 241
f 233 243 242
f 234 244 243
f 234 235 245
f 235 236 246
f 237 247 246
f 238 248 247
f 238 239 249
f 239 240 250
f 240 231 241
f 242 252 251
f 243 253 252
f 244 254 253
f 244 245 255
f 245 246 256
f 247 257 256
f 248 258 257
f 248 249 259
f 249 250 260
f 250 241 251
f 252 262 261
f 253 263 262
f 254 264 263
f 254 255 265
f 255 256 266
f 257 267 266
f 258 268 267
f 258 259 269
f 259 260 270
f 260 251 261
f 262 272 271
f 263 273 272
f 264 274 273
f 264 265 275
f 265 266 276
f 267 277 276
f 268 278 277
f 268 269 279
f 269 270 280
f 270 261 271
f 272 282 281
f 273 283 282
f 273 274 284
f 274 275 285
f 275 276 286
f 277 287 286
f 278 288 287
f 279 289 288
f 279 280 290
f 280 271 281
