# kitsune Wisp12_WispCore.obj: Roblox cue frame, recentred on its bounding box
v 0.03398 -0.05696 0.31611
v 0.03657 -0.05844 0.31578
v 0.03655 -0.06142 0.31538
v 0.03394 -0.06290 0.31532
v 0.03136 -0.06142 0.31564
v 0.03138 -0.05844 0.31604
v 0.03142 -0.04745 0.26435
v 0.03620 -0.05015 0.26329
v 0.03612 -0.05560 0.26206
v 0.03126 -0.05835 0.26189
v 0.02648 -0.05566 0.26296
v 0.02656 -0.05021 0.26419
v 0.02437 -0.02865 0.21357
v 0.03104 -0.03220 0.21094
v 0.03070 -0.03960 0.20791
v 0.02370 -0.04344 0.20750
v 0.01703 -0.03989 0.21013
v 0.01737 -0.03250 0.21317
v 0.01392 -0.00004 0.16273
v 0.02216 -0.00415 0.15864
v 0.02153 -0.01300 0.15386
v 0.01267 -0.01773 0.15317
v 0.00443 -0.01362 0.15726
v 0.00506 -0.00478 0.16204
v 0.00162 0.03284 0.11060
v 0.01117 0.02805 0.10592
v 0.01050 0.01765 0.10068
v 0.00030 0.01205 0.10012
v -0.00925 0.01683 0.10480
v -0.00859 0.02723 0.11004
v -0.01066 0.05791 0.05594
v -0.00000 0.05214 0.05229
v -0.00021 0.03989 0.04912
v -0.01107 0.03340 0.04960
v -0.02173 0.03917 0.05325
v -0.02153 0.05143 0.05642
v -0.02060 0.06290 -0.00121
v -0.00923 0.05666 -0.00207
v -0.00878 0.04375 -0.00067
v -0.01970 0.03707 0.00158
v -0.03108 0.04331 0.00244
v -0.03152 0.05623 0.00104
v -0.02594 0.04544 -0.05729
v -0.01469 0.03992 -0.05553
v -0.01406 0.02826 -0.05064
v -0.02468 0.02212 -0.04752
v -0.03593 0.02764 -0.04928
v -0.03657 0.03931 -0.05417
v -0.02600 0.01588 -0.11048
v -0.01565 0.01135 -0.10760
v -0.01511 0.00107 -0.10211
v -0.02492 -0.00466 -0.09950
v -0.03527 -0.00013 -0.10238
v -0.03581 0.01014 -0.10787
v -0.02112 -0.01304 -0.16178
v -0.01220 -0.01675 -0.15892
v -0.01166 -0.02589 -0.15472
v -0.02004 -0.03132 -0.15338
v -0.02895 -0.02761 -0.15624
v -0.02950 -0.01847 -0.16044
v -0.01212 -0.03425 -0.21256
v -0.00502 -0.03716 -0.21029
v -0.00440 -0.04476 -0.20790
v -0.01087 -0.04946 -0.20777
v -0.01797 -0.04655 -0.21005
v -0.01859 -0.03895 -0.21244
v -0.00035 -0.04812 -0.26383
v 0.00464 -0.05016 -0.26233
v 0.00522 -0.05561 -0.26126
v 0.00081 -0.05902 -0.26169
v -0.00417 -0.05698 -0.26318
v -0.00475 -0.05153 -0.26425
v 0.01225 -0.05698 -0.31578
v 0.01494 -0.05808 -0.31502
v 0.01528 -0.06103 -0.31458
v 0.01294 -0.06288 -0.31491
v 0.01026 -0.06178 -0.31567
v 0.00991 -0.05883 -0.31611
v 0.03396 -0.05993 0.31571
v 0.01260 -0.05993 -0.31534
f 2 7 1
f 3 8 2
f 4 9 3
f 4 11 10
f 5 12 11
f 6 7 12
f 7 14 13
f 8 15 14
f 10 15 9
f 11 16 10
f 12 17 11
f 12 13 18
f 13 20 19
f 14 21 20
f 15 22 21
f 17 22 16
f 18 23 17
f 13 24 18
f 19 26 25
f 20 27 26
f 21 28 27
f 23 28 22
f 24 29 23
f 19 30 24
f 25 32 31
f 26 33 32
f 27 34 33
f 29 34 28
f 30 35 29
f 25 36 30
f 31 38 37
f 32 39 38
f 34 39 33
f 35 40 34
f 36 41 35
f 36 37 42
f 38 43 37
f 39 44 38
f 40 45 39
f 40 47 46
f 41 48 47
f 42 43 48
f 44 49 43
f 45 50 44
f 46 51 45
f 46 53 52
f 47 54 53
f 48 49 54
f 50 55 49
f 51 56 50
f 52 57 51
f 52 59 58
f 53 60 59
f 54 55 60
f 56 61 55
f 57 62 56
f 57 64 63
f 58 65 64
f 59 66 65
f 55 66 60
f 62 67 61
f 62 69 68
f 63 70 69
f 64 71 70
f 66 71 65
f 61 72 66
f 67 74 73
f 68 75 74
f 69 76 75
f 71 76 70
f 72 77 71
f 67 78 72
f 79 2 1
f 79 3 2
f 79 4 3
f 79 5 4
f 79 6 5
f 79 1 6
f 73 74 80
f 74 75 80
f 75 76 80
f 76 77 80
f 77 78 80
f 78 73 80
f 2 8 7
f 3 9 8
f 4 10 9
f 4 5 11
f 5 6 12
f 6 1 7
f 7 8 14
f 8 9 15
f 10 16 15
f 11 17 16
f 12 18 17
f 12 7 13
f 13 14 20
f 14 15 21
f 15 16 22
f 17 23 22
f 18 24 23
f 13 19 24
f 19 20 26
f 20 21 27
f 21 22 28
f 23 29 28
f 24 30 29
f 19 25 30
f 25 26 32
f 26 27 33
f 27 28 34
f 29 35 34
f 30 36 35
f 25 31 36
f 31 32 38
f 32 33 39
f 34 40 39
f 35 41 40
f 36 42 41
f 36 31 37
f 38 44 43
f 39 45 44
f 40 46 45
f 40 41 47
f 41 42 48
f 42 37 43
f 44 50 49
f 45 51 50
f 46 52 51
f 46 47 53
f 47 48 54
f 48 43 49
f 50 56 55
f 51 57 56
f 52 58 57
f 52 53 59
f 53 54 60
f 54 49 55
f 56 62 61
f 57 63 62
f 57 58 64
f 58 59 65
f 59 60 66
f 55 61 66
f 62 68 67
f 62 63 69
f 63 64 70
f 64 65 71
f 66 72 71
f 61 67 72
f 67 68 74
f 68 69 75
f 69 70 76
f 71 77 76
f 72 78 77
f 67 73 78
