# kitsune Wisp7_Wisp.obj: Roblox cue frame, recentred on its bounding box
v -0.09069 0.06071 0.18166
v -0.07726 0.04598 0.19356
v -0.06941 0.01042 0.19632
v -0.07175 -0.02514 0.18834
v -0.08291 -0.03987 0.17428
v -0.09634 -0.02514 0.16238
v -0.10419 0.01042 0.15961
v -0.10185 0.04598 0.16760
v -0.06093 0.07540 0.15420
v -0.04805 0.05722 0.17116
v -0.04171 0.01400 0.17681
v -0.04563 -0.02894 0.16783
v -0.05751 -0.04645 0.14948
v -0.07040 -0.02827 0.13252
v -0.07673 0.01495 0.12688
v -0.07281 0.05789 0.13586
v -0.01649 0.08190 0.13124
v -0.00713 0.06150 0.15288
v -0.00543 0.01332 0.16189
v -0.01239 -0.03440 0.15302
v -0.02394 -0.05371 0.13144
v -0.03331 -0.03331 0.10981
v -0.03501 0.01486 0.10079
v -0.02804 0.06258 0.10967
v 0.02963 0.08092 0.11025
v 0.03935 0.05951 0.13311
v 0.03868 0.00908 0.14396
v 0.02800 -0.04082 0.13644
v 0.01357 -0.06096 0.11495
v 0.00385 -0.03955 0.09209
v 0.00452 0.01087 0.08125
v 0.01520 0.06077 0.08877
v 0.06544 0.07504 0.08509
v 0.08047 0.05284 0.10424
v 0.08040 0.00217 0.11521
v 0.06526 -0.04727 0.11157
v 0.04392 -0.06653 0.09545
v 0.02889 -0.04432 0.07629
v 0.02896 0.00634 0.06532
v 0.04410 0.05578 0.06897
v 0.08243 0.06646 0.05193
v 0.10252 0.04352 0.06102
v 0.10419 -0.00570 0.06988
v 0.08647 -0.05237 0.07332
v 0.05974 -0.06915 0.06932
v 0.03965 -0.04622 0.06023
v 0.03798 0.00301 0.05137
v 0.05570 0.04968 0.04794
v 0.08195 0.05542 0.01228
v 0.10135 0.03322 0.01460
v 0.10338 -0.01258 0.02248
v 0.08684 -0.05516 0.03131
v 0.06142 -0.06956 0.03591
v 0.04202 -0.04736 0.03360
v 0.03999 -0.00156 0.02572
v 0.05653 0.04101 0.01689
v 0.07351 0.04047 -0.02981
v 0.09092 0.02063 -0.02775
v 0.09307 -0.01991 -0.01846
v 0.07871 -0.05739 -0.00737
v 0.05625 -0.06987 -0.00099
v 0.03884 -0.05003 -0.00305
v 0.03668 -0.00949 -0.01235
v 0.05104 0.02799 -0.02343
v 0.06709 0.02104 -0.06920
v 0.08229 0.00464 -0.06486
v 0.08435 -0.02944 -0.05396
v 0.07205 -0.06123 -0.04290
v 0.05260 -0.07210 -0.03814
v 0.03740 -0.05570 -0.04248
v 0.03535 -0.02162 -0.05338
v 0.04765 0.01016 -0.06444
v 0.06618 -0.00048 -0.10272
v 0.07870 -0.01343 -0.09747
v 0.08037 -0.04112 -0.08741
v 0.07022 -0.06734 -0.07845
v 0.05418 -0.07672 -0.07583
v 0.04166 -0.06377 -0.08108
v 0.03999 -0.03608 -0.09114
v 0.05015 -0.00986 -0.10010
v 0.06772 -0.02035 -0.13240
v 0.07754 -0.03061 -0.12871
v 0.07894 -0.05269 -0.12217
v 0.07109 -0.07367 -0.11662
v 0.05860 -0.08125 -0.11530
v 0.04878 -0.07100 -0.11898
v 0.04738 -0.04891 -0.12552
v 0.05523 -0.02793 -0.13108
v 0.06829 -0.03618 -0.16309
v 0.07553 -0.04385 -0.16113
v 0.07670 -0.06041 -0.15815
v 0.07111 -0.07618 -0.15592
v 0.06204 -0.08190 -0.15572
v 0.05480 -0.07423 -0.15769
v 0.05363 -0.05767 -0.16066
v 0.05922 -0.04191 -0.16290
v 0.07130 -0.04825 -0.19605
v 0.07597 -0.05319 -0.19493
v 0.07679 -0.06391 -0.19361
v 0.07328 -0.07413 -0.19286
v 0.06750 -0.07787 -0.19313
v 0.06284 -0.07293 -0.19426
v 0.06202 -0.06221 -0.19558
v 0.06552 -0.05199 -0.19632
v -0.08680 0.01042 0.17797
v 0.06940 -0.06306 -0.19459
f 1 10 9
f 2 11 10
f 4 11 3
f 5 12 4
f 5 14 13
f 6 15 14
f 8 15 7
f 1 16 8
f 9 18 17
f 10 19 18
f 12 19 11
f 13 20 12
f 13 22 21
f 14 23 22
f 16 23 15
f 9 24 16
f 18 25 17
f 18 27 26
f 20 27 19
f 20 29 28
f 21 30 29
f 22 31 30
f 24 31 23
f 17 32 24
f 26 33 25
f 27 34 26
f 27 36 35
f 28 37 36
f 29 38 37
f 30 39 38
f 32 39 31
f 25 40 32
f 34 41 33
f 35 42 34
f 35 44 43
f 36 45 44
f 38 45 37
f 39 46 38
f 39 48 47
f 40 41 48
f 41 50 49
f 43 50 42
f 43 52 51
f 44 53 52
f 46 53 45
f 47 54 46
f 47 56 55
f 48 49 56
f 50 57 49
f 51 58 50
f 51 60 59
f 52 61 60
f 54 61 53
f 55 62 54
f 55 64 63
f 56 57 64
f 58 65 57
f 59 66 58
f 59 68 67
f 60 69 68
f 62 69 61
f 63 70 62
f 63 72 71
f 64 65 72
f 66 73 65
f 67 74 66
f 67 76 75
f 68 77 76
f 70 77 69
f 71 78 70
f 71 80 79
f 72 73 80
f 74 81 73
f 75 82 74
f 75 84 83
f 76 85 84
f 78 85 77
f 79 86 78
f 79 88 87
f 80 81 88
f 82 89 81
f 83 90 82
f 83 92 91
f 84 93 92
f 86 93 85
f 87 94 86
f 87 96 95
f 88 89 96
f 90 97 89
f 91 98 90
f 91 100 99
f 92 101 100
f 94 101 93
f 95 102 94
f 95 104 103
f 96 97 104
f 105 2 1
f 105 3 2
f 105 4 3
f 105 5 4
f 105 6 5
f 105 7 6
f 105 8 7
f 105 1 8
f 97 98 106
f 98 99 106
f 99 100 106
f 100 101 106
f 101 102 106
f 102 103 106
f 103 104 106
f 104 97 106
f 1 2 10
f 2 3 11
f 4 12 11
f 5 13 12
f 5 6 14
f 6 7 15
f 8 16 15
f 1 9 16
f 9 10 18
f 10 11 19
f 12 20 19
f 13 21 20
f 13 14 22
f 14 15 23
f 16 24 23
f 9 17 24
f 18 26 25
f 18 19 27
f 20 28 27
f 20 21 29
f 21 22 30
f 22 23 31
f 24 32 31
f 17 25 32
f 26 34 33
f 27 35 34
f 27 28 36
f 28 29 37
f 29 30 38
f 30 31 39
f 32 40 39
f 25 33 40
f 34 42 41
f 35 43 42
f 35 36 44
f 36 37 45
f 38 46 45
f 39 47 46
f 39 40 48
f 40 33 41
f 41 42 50
f 43 51 50
f 43 44 52
f 44 45 53
f 46 54 53
f 47 55 54
f 47 48 56
f 48 41 49
f 50 58 57
f 51 59 58
f 51 52 60
f 52 53 61
f 54 62 61
f 55 63 62
f 55 56 64
f 56 49 57
f 58 66 65
f 59 67 66
f 59 60 68
f 60 61 69
f 62 70 69
f 63 71 70
f 63 64 72
f 64 57 65
f 66 74 73
f 67 75 74
f 67 68 76
f 68 69 77
f 70 78 77
f 71 79 78
f 71 72 80
f 72 65 73
f 74 82 81
f 75 83 82
f 75 76 84
f 76 77 85
f 78 86 85
f 79 87 86
f 79 80 88
f 80 73 81
f 82 90 89
f 83 91 90
f 83 84 92
f 84 85 93
f 86 94 93
f 87 95 94
f 87 88 96
f 88 81 89
f 90 98 97
f 91 99 98
f 91 92 100
f 92 93 101
f 94 102 101
f 95 103 102
f 95 96 104
f 96 89 97
