# kitsune Wisp4_WispCore.obj: Roblox cue frame, recentred on its bounding box
v 0.05219 -0.01242 -0.19456
v 0.04964 -0.01387 -0.19517
v 0.04970 -0.01676 -0.19596
v 0.05232 -0.01821 -0.19615
v 0.05488 -0.01676 -0.19555
v 0.05482 -0.01387 -0.19475
v 0.04931 -0.01969 -0.15859
v 0.04456 -0.02236 -0.15981
v 0.04467 -0.02775 -0.16127
v 0.04954 -0.03048 -0.16150
v 0.05430 -0.02781 -0.16027
v 0.05418 -0.02242 -0.15882
v 0.04473 -0.02666 -0.12316
v 0.03794 -0.03042 -0.12513
v 0.03806 -0.03822 -0.12692
v 0.04497 -0.04225 -0.12676
v 0.05175 -0.03850 -0.12479
v 0.05163 -0.03070 -0.12300
v 0.03823 -0.03142 -0.08858
v 0.02986 -0.03595 -0.09189
v 0.02991 -0.04584 -0.09378
v 0.03831 -0.05120 -0.09236
v 0.04668 -0.04667 -0.08906
v 0.04664 -0.03678 -0.08716
v 0.02494 -0.03612 -0.05460
v 0.01598 -0.04102 -0.06022
v 0.01600 -0.05249 -0.06236
v 0.02499 -0.05905 -0.05889
v 0.03396 -0.05415 -0.05326
v 0.03393 -0.04269 -0.05112
v 0.00360 -0.04134 -0.02192
v -0.00548 -0.04645 -0.02911
v -0.00575 -0.05896 -0.03102
v 0.00306 -0.06636 -0.02575
v 0.01215 -0.06125 -0.01857
v 0.01242 -0.04874 -0.01665
v -0.01986 -0.04362 0.00839
v -0.02985 -0.04891 0.00196
v -0.03136 -0.06182 0.00178
v -0.02287 -0.06945 0.00802
v -0.01288 -0.06416 0.01444
v -0.01138 -0.05125 0.01462
v -0.03645 -0.03810 0.03553
v -0.04803 -0.04270 0.03329
v -0.05106 -0.05436 0.03717
v -0.04252 -0.06143 0.04327
v -0.03094 -0.05683 0.04551
v -0.02790 -0.04516 0.04163
v -0.04102 -0.02148 0.06271
v -0.05218 -0.02362 0.06535
v -0.05488 -0.03235 0.07260
v -0.04643 -0.03893 0.07721
v -0.03528 -0.03679 0.07456
v -0.03257 -0.02807 0.06732
v -0.03251 0.00587 0.09294
v -0.04170 0.00547 0.09704
v -0.04365 -0.00113 0.10439
v -0.03641 -0.00733 0.10764
v -0.02722 -0.00693 0.10354
v -0.02527 -0.00033 0.09619
v -0.01750 0.03593 0.12534
v -0.02475 0.03575 0.12874
v -0.02640 0.03029 0.13434
v -0.02082 0.02500 0.13655
v -0.01358 0.02518 0.13316
v -0.01192 0.03064 0.12755
v -0.00521 0.05914 0.15948
v -0.01048 0.05854 0.16123
v -0.01195 0.05403 0.16418
v -0.00815 0.05012 0.16539
v -0.00288 0.05071 0.16363
v -0.00141 0.05522 0.16068
v -0.00110 0.06945 0.19393
v -0.00400 0.06895 0.19453
v -0.00487 0.06631 0.19564
v -0.00285 0.06415 0.19615
v 0.00005 0.06465 0.19555
v 0.00092 0.06729 0.19444
v 0.05226 -0.01531 -0.19536
v -0.00198 0.06680 0.19504
f 1 8 7
f 3 8 2
f 4 9 3
f 5 10 4
f 5 12 11
f 6 7 12
f 8 13 7
f 9 14 8
f 10 15 9
f 10 17 16
f 11 18 17
f 12 13 18
f 13 20 19
f 14 21 20
f 16 21 15
f 17 22 16
f 18 23 17
f 18 19 24
f 19 26 25
f 20 27 26
f 22 27 21
f 23 28 22
f 24 29 23
f 24 25 30
f 26 31 25
f 27 32 26
f 27 34 33
f 28 35 34
f 29 36 35
f 25 36 30
f 32 37 31
f 33 38 32
f 33 40 39
f 34 41 40
f 35 42 41
f 31 42 36
f 38 43 37
f 39 44 38
f 39 46 45
f 40 47 46
f 41 48 47
f 37 48 42
f 43 50 49
f 44 51 50
f 46 51 45
f 47 52 46
f 48 53 47
f 43 54 48
f 49 56 55
f 50 57 56
f 52 57 51
f 53 58 52
f 54 59 53
f 54 55 60
f 55 62 61
f 56 63 62
f 58 63 57
f 59 64 58
f 60 65 59
f 60 61 66
f 61 68 67
f 62 69 68
f 63 70 69
f 65 70 64
f 66 71 65
f 61 72 66
f 68 73 67
f 69 74 68
f 70 75 69
f 70 77 76
f 71 78 77
f 72 73 78
f 79 2 1
f 79 3 2
f 79 4 3
f 79 5 4
f 79 6 5
f 79 1 6
f 73 74 80
f 74 75 80
f 75 76 80
f 76 77 80
f 77 78 80
f 78 73 80
f 1 2 8
f 3 9 8
f 4 10 9
f 5 11 10
f 5 6 12
f 6 1 7
f 8 14 13
f 9 15 14
f 10 16 15
f 10 11 17
f 11 12 18
f 12 7 13
f 13 14 20
f 14 15 21
f 16 22 21
f 17 23 22
f 18 24 23
f 18 13 19
f 19 20 26
f 20 21 27
f 22 28 27
f 23 29 28
f 24 30 29
f 24 19 25
f 26 32 31
f 27 33 32
f 27 28 34
f 28 29 35
f 29 30 36
f 25 31 36
f 32 38 37
f 33 39 38
f 33 34 40
f 34 35 41
f 35 36 42
f 31 37 42
f 38 44 43
f 39 45 44
f 39 40 46
f 40 41 47
f 41 42 48
f 37 43 48
f 43 44 50
f 44 45 51
f 46 52 51
f 47 53 52
f 48 54 53
f 43 49 54
f 49 50 56
f 50 51 57
f 52 58 57
f 53 59 58
f 54 60 59
f 54 49 55
f 55 56 62
f 56 57 63
f 58 64 63
f 59 65 64
f 60 66 65
f 60 55 61
f 61 62 68
f 62 63 69
f 63 64 70
f 65 71 70
f 66 72 71
f 61 67 72
f 68 74 73
f 69 75 74
f 70 76 75
f 70 71 77
f 71 72 78
f 72 67 73
