# kitsune Wisp11_Wisp.obj: Roblox cue frame, recentred on its bounding box
v 0.00689 -0.00317 0.24701
v 0.02638 -0.01902 0.24864
v 0.03554 -0.05729 0.24430
v 0.02902 -0.09557 0.23654
v 0.01063 -0.11142 0.22990
v -0.00886 -0.09557 0.22827
v -0.01803 -0.05729 0.23261
v -0.01150 -0.01902 0.24037
v 0.01479 0.01446 0.21155
v 0.03879 -0.00441 0.21150
v 0.05035 -0.05035 0.20363
v 0.04269 -0.09645 0.19257
v 0.02031 -0.11570 0.18478
v -0.00369 -0.09683 0.18484
v -0.01525 -0.05089 0.19270
v -0.00759 -0.00479 0.20377
v 0.01853 0.03020 0.18132
v 0.04575 0.01039 0.17599
v 0.05909 -0.03904 0.16006
v 0.05072 -0.08912 0.14285
v 0.02556 -0.11052 0.13445
v -0.00166 -0.09071 0.13977
v -0.01500 -0.04128 0.15570
v -0.00663 0.00880 0.17291
v 0.01855 0.04582 0.15347
v 0.04697 0.02726 0.14178
v 0.06045 -0.02109 0.11593
v 0.05110 -0.07090 0.09105
v 0.02439 -0.09300 0.08172
v -0.00403 -0.07444 0.09341
v -0.01751 -0.02609 0.11927
v -0.00815 0.02372 0.14414
v 0.01428 0.06684 0.12051
v 0.04221 0.05047 0.10458
v 0.05474 0.00525 0.07267
v 0.04454 -0.04233 0.04348
v 0.01758 -0.06440 0.03411
v -0.01034 -0.04803 0.05004
v -0.02287 -0.00281 0.08195
v -0.01267 0.04477 0.11114
v 0.00399 0.09417 0.07579
v 0.03079 0.07889 0.05969
v 0.04329 0.03443 0.03031
v 0.03416 -0.01317 0.00486
v 0.00875 -0.03602 -0.00174
v -0.01805 -0.02073 0.01436
v -0.03054 0.02373 0.04374
v -0.02141 0.07132 0.06919
v -0.01339 0.11570 0.01572
v 0.01261 0.10046 0.00413
v 0.02796 0.05473 -0.01179
v 0.02367 0.00531 -0.02271
v 0.00225 -0.01885 -0.02224
v -0.02375 -0.00360 -0.01065
v -0.03910 0.04212 0.00527
v -0.03481 0.09154 0.01619
v -0.03367 0.10897 -0.05321
v -0.00838 0.09574 -0.05725
v 0.01135 0.05512 -0.05326
v 0.01398 0.01091 -0.04359
v -0.00204 -0.01100 -0.03389
v -0.02733 0.00223 -0.02985
v -0.04707 0.04285 -0.03383
v -0.04969 0.08706 -0.04351
v -0.04602 0.07415 -0.10792
v -0.02323 0.06472 -0.10697
v -0.00346 0.03462 -0.09247
v 0.00172 0.00148 -0.07291
v -0.01074 -0.01528 -0.05974
v -0.03353 -0.00584 -0.06069
v -0.05331 0.02426 -0.07519
v -0.05848 0.05739 -0.09475
v -0.05027 0.03267 -0.14767
v -0.03135 0.02618 -0.14500
v -0.01476 0.00358 -0.13010
v -0.01023 -0.02188 -0.11169
v -0.02041 -0.03530 -0.10057
v -0.03933 -0.02881 -0.10324
v -0.05592 -0.00621 -0.11814
v -0.06045 0.01925 -0.13654
v -0.04913 -0.00305 -0.18088
v -0.03444 -0.00751 -0.17808
v -0.02157 -0.02539 -0.16727
v -0.01806 -0.04622 -0.15478
v -0.02597 -0.05780 -0.14793
v -0.04066 -0.05334 -0.15072
v -0.05352 -0.03546 -0.16153
v -0.05703 -0.01463 -0.17403
v -0.04353 -0.02836 -0.21290
v -0.03297 -0.03123 -0.21057
v -0.02338 -0.04481 -0.20479
v -0.02038 -0.06113 -0.19896
v -0.02572 -0.07065 -0.19648
v -0.03628 -0.06777 -0.19881
v -0.04587 -0.05420 -0.20458
v -0.04887 -0.03787 -0.21042
v -0.03284 -0.04394 -0.24864
v -0.02635 -0.04565 -0.24709
v -0.02028 -0.05418 -0.24430
v -0.01819 -0.06453 -0.24191
v -0.02130 -0.07065 -0.24131
v -0.02779 -0.06894 -0.24286
v -0.03386 -0.06041 -0.24564
v -0.03595 -0.05006 -0.24804
v 0.00876 -0.05729 0.23845
v -0.02707 -0.05729 -0.24497
f 1 10 9
f 2 11 10
f 4 11 3
f 5 12 4
f 5 14 13
f 6 15 14
f 8 15 7
f 1 16 8
f 9 18 17
f 10 19 18
f 12 19 11
f 13 20 12
f 13 22 21
f 14 23 22
f 16 23 15
f 9 24 16
f 17 26 25
f 18 27 26
f 20 27 19
f 21 28 20
f 21 30 29
f 22 31 30
f 24 31 23
f 17 32 24
f 25 34 33
f 26 35 34
f 27 36 35
f 28 37 36
f 30 37 29
f 31 38 30
f 32 39 31
f 25 40 32
f 33 42 41
f 34 43 42
f 35 44 43
f 36 45 44
f 38 45 37
f 39 46 38
f 40 47 39
f 33 48 40
f 41 50 49
f 42 51 50
f 43 52 51
f 44 53 52
f 46 53 45
f 47 54 46
f 48 55 47
f 48 49 56
f 50 57 49
f 51 58 50
f 51 60 59
f 52 61 60
f 54 61 53
f 55 62 54
f 55 64 63
f 56 57 64
f 58 65 57
f 59 66 58
f 59 68 67
f 60 69 68
f 62 69 61
f 63 70 62
f 63 72 71
f 64 65 72
f 66 73 65
f 67 74 66
f 68 75 67
f 68 77 76
f 70 77 69
f 71 78 70
f 71 80 79
f 72 73 80
f 74 81 73
f 75 82 74
f 75 84 83
f 76 85 84
f 78 85 77
f 79 86 78
f 79 88 87
f 80 81 88
f 82 89 81
f 83 90 82
f 83 92 91
f 84 93 92
f 86 93 85
f 87 94 86
f 87 96 95
f 88 89 96
f 90 97 89
f 91 98 90
f 91 100 99
f 92 101 100
f 94 101 93
f 95 102 94
f 95 104 103
f 96 97 104
f 105 2 1
f 105 3 2
f 105 4 3
f 105 5 4
f 105 6 5
f 105 7 6
f 105 8 7
f 105 1 8
f 97 98 106
f 98 99 106
f 99 100 106
f 100 101 106
f 101 102 106
f 102 103 106
f 103 104 106
f 104 97 106
f 1 2 10
f 2 3 11
f 4 12 11
f 5 13 12
f 5 6 14
f 6 7 15
f 8 16 15
f 1 9 16
f 9 10 18
f 10 11 19
f 12 20 19
f 13 21 20
f 13 14 22
f 14 15 23
f 16 24 23
f 9 17 24
f 17 18 26
f 18 19 27
f 20 28 27
f 21 29 28
f 21 22 30
f 22 23 31
f 24 32 31
f 17 25 32
f 25 26 34
f 26 27 35
f 27 28 36
f 28 29 37
f 30 38 37
f 31 39 38
f 32 40 39
f 25 33 40
f 33 34 42
f 34 35 43
f 35 36 44
f 36 37 45
f 38 46 45
f 39 47 46
f 40 48 47
f 33 41 48
f 41 42 50
f 42 43 51
f 43 44 52
f 44 45 53
f 46 54 53
f 47 55 54
f 48 56 55
f 48 41 49
f 50 58 57
f 51 59 58
f 51 52 60
f 52 53 61
f 54 62 61
f 55 63 62
f 55 56 64
f 56 49 57
f 58 66 65
f 59 67 66
f 59 60 68
f 60 61 69
f 62 70 69
f 63 71 70
f 63 64 72
f 64 57 65
f 66 74 73
f 67 75 74
f 68 76 75
f 68 69 77
f 70 78 77
f 71 79 78
f 71 72 80
f 72 65 73
f 74 82 81
f 75 83 82
f 75 76 84
f 76 77 85
f 78 86 85
f 79 87 86
f 79 80 88
f 80 73 81
f 82 90 89
f 83 91 90
f 83 84 92
f 84 85 93
f 86 94 93
f 87 95 94
f 87 88 96
f 88 81 89
f 90 98 97
f 91 99 98
f 91 92 100
f 92 93 101
f 94 102 101
f 95 103 102
f 95 96 104
f 96 89 97
