# kitsune Wisp3_WispCore.obj: Roblox cue frame, recentred on its bounding box
v 0.02199 -0.02064 -0.24773
v 0.01947 -0.02214 -0.24838
v 0.01946 -0.02514 -0.24834
v 0.02197 -0.02664 -0.24766
v 0.02449 -0.02514 -0.24702
v 0.02450 -0.02214 -0.24706
v 0.01071 -0.01754 -0.20481
v 0.00608 -0.02033 -0.20624
v 0.00612 -0.02592 -0.20636
v 0.01079 -0.02871 -0.20506
v 0.01541 -0.02591 -0.20364
v 0.01537 -0.02033 -0.20352
v -0.00342 -0.01773 -0.16091
v -0.01006 -0.02173 -0.16290
v -0.00989 -0.02970 -0.16353
v -0.00308 -0.03368 -0.16217
v 0.00355 -0.02968 -0.16018
v 0.00339 -0.02171 -0.15955
v -0.01114 -0.02045 -0.11707
v -0.01967 -0.02556 -0.11865
v -0.01943 -0.03557 -0.11971
v -0.01065 -0.04048 -0.11920
v -0.00211 -0.03537 -0.11761
v -0.00236 -0.02536 -0.11655
v -0.01389 -0.02354 -0.07410
v -0.02382 -0.02951 -0.07539
v -0.02357 -0.04113 -0.07627
v -0.01338 -0.04679 -0.07587
v -0.00345 -0.04082 -0.07458
v -0.00370 -0.02920 -0.07370
v -0.01810 -0.02449 -0.03230
v -0.02887 -0.03093 -0.03400
v -0.02877 -0.04358 -0.03389
v -0.01789 -0.04981 -0.03207
v -0.00712 -0.04338 -0.03037
v -0.00722 -0.03072 -0.03049
v -0.02725 -0.02160 0.00861
v -0.03832 -0.02817 0.00681
v -0.03855 -0.04107 0.00835
v -0.02771 -0.04742 0.01168
v -0.01663 -0.04085 0.01348
v -0.01640 -0.02794 0.01195
v -0.03734 -0.01449 0.04885
v -0.04840 -0.02064 0.04872
v -0.04882 -0.03296 0.05159
v -0.03818 -0.03913 0.05459
v -0.02712 -0.03298 0.05473
v -0.02670 -0.02065 0.05186
v -0.03911 -0.00393 0.08851
v -0.04921 -0.00881 0.09167
v -0.04945 -0.01987 0.09535
v -0.03957 -0.02605 0.09587
v -0.02947 -0.02117 0.09271
v -0.02923 -0.01011 0.08903
v -0.02555 0.00882 0.12781
v -0.03337 0.00548 0.13320
v -0.03334 -0.00392 0.13683
v -0.02548 -0.00997 0.13507
v -0.01766 -0.00662 0.12969
v -0.01769 0.00277 0.12606
v 0.00111 0.02256 0.16681
v -0.00460 0.02022 0.17191
v -0.00449 0.01281 0.17491
v 0.00133 0.00773 0.17282
v 0.00703 0.01007 0.16772
v 0.00692 0.01748 0.16472
v 0.02978 0.03644 0.20593
v 0.02558 0.03467 0.20916
v 0.02566 0.02949 0.21126
v 0.02994 0.02609 0.21012
v 0.03414 0.02786 0.20689
v 0.03406 0.03303 0.20480
v 0.04699 0.04981 0.24578
v 0.04460 0.04876 0.24726
v 0.04464 0.04597 0.24838
v 0.04706 0.04424 0.24801
v 0.04945 0.04529 0.24653
v 0.04941 0.04808 0.24541
v 0.02198 -0.02364 -0.24770
v 0.04702 0.04702 0.24689
f 1 8 7
f 2 9 8
f 4 9 3
f 5 10 4
f 6 11 5
f 6 7 12
f 8 13 7
f 9 14 8
f 9 16 15
f 10 17 16
f 11 18 17
f 7 18 12
f 13 20 19
f 15 20 14
f 16 21 15
f 17 22 16
f 17 24 23
f 18 19 24
f 19 26 25
f 21 26 20
f 22 27 21
f 23 28 22
f 23 30 29
f 24 25 30
f 25 32 31
f 27 32 26
f 28 33 27
f 29 34 28
f 29 36 35
f 30 31 36
f 32 37 31
f 33 38 32
f 33 40 39
f 34 41 40
f 35 42 41
f 31 42 36
f 38 43 37
f 38 45 44
f 39 46 45
f 40 47 46
f 42 47 41
f 37 48 42
f 44 49 43
f 44 51 50
f 45 52 51
f 46 53 52
f 48 53 47
f 43 54 48
f 49 56 55
f 50 57 56
f 52 57 51
f 53 58 52
f 54 59 53
f 54 55 60
f 55 62 61
f 56 63 62
f 58 63 57
f 59 64 58
f 60 65 59
f 60 61 66
f 61 68 67
f 62 69 68
f 64 69 63
f 65 70 64
f 66 71 65
f 66 67 72
f 68 73 67
f 69 74 68
f 69 76 75
f 70 77 76
f 71 78 77
f 67 78 72
f 79 2 1
f 79 3 2
f 79 4 3
f 79 5 4
f 79 6 5
f 79 1 6
f 73 74 80
f 74 75 80
f 75 76 80
f 76 77 80
f 77 78 80
f 78 73 80
f 1 2 8
f 2 3 9
f 4 10 9
f 5 11 10
f 6 12 11
f 6 1 7
f 8 14 13
f 9 15 14
f 9 10 16
f 10 11 17
f 11 12 18
f 7 13 18
f 13 14 20
f 15 21 20
f 16 22 21
f 17 23 22
f 17 18 24
f 18 13 19
f 19 20 26
f 21 27 26
f 22 28 27
f 23 29 28
f 23 24 30
f 24 19 25
f 25 26 32
f 27 33 32
f 28 34 33
f 29 35 34
f 29 30 36
f 30 25 31
f 32 38 37
f 33 39 38
f 33 34 40
f 34 35 41
f 35 36 42
f 31 37 42
f 38 44 43
f 38 39 45
f 39 40 46
f 40 41 47
f 42 48 47
f 37 43 48
f 44 50 49
f 44 45 51
f 45 46 52
f 46 47 53
f 48 54 53
f 43 49 54
f 49 50 56
f 50 51 57
f 52 58 57
f 53 59 58
f 54 60 59
f 54 49 55
f 55 56 62
f 56 57 63
f 58 64 63
f 59 65 64
f 60 66 65
f 60 55 61
f 61 62 68
f 62 63 69
f 64 70 69
f 65 71 70
f 66 72 71
f 66 61 67
f 68 74 73
f 69 75 74
f 69 70 76
f 70 71 77
f 71 72 78
f 67 73 78
