# kitsune Wisp7_WispCore.obj: Roblox cue frame, recentred on its bounding box
v -0.08458 0.03537 0.18575
v -0.08268 0.03388 0.18752
v -0.08245 0.03090 0.18730
v -0.08412 0.02941 0.18531
v -0.08602 0.03090 0.18353
v -0.08625 0.03388 0.18375
v -0.05693 0.04202 0.15962
v -0.05407 0.03916 0.16347
v -0.05391 0.03358 0.16325
v -0.05662 0.03086 0.15918
v -0.05947 0.03373 0.15533
v -0.05963 0.03931 0.15555
v -0.01733 0.04405 0.13889
v -0.01453 0.03990 0.14513
v -0.01497 0.03191 0.14514
v -0.01821 0.02807 0.13891
v -0.02100 0.03223 0.13267
v -0.02057 0.04021 0.13266
v 0.02518 0.04195 0.11983
v 0.02879 0.03673 0.12765
v 0.02766 0.02673 0.12798
v 0.02292 0.02195 0.12049
v 0.01931 0.02716 0.11267
v 0.02045 0.03717 0.11234
v 0.05888 0.03773 0.09698
v 0.06524 0.03139 0.10442
v 0.06350 0.01989 0.10527
v 0.05538 0.01473 0.09867
v 0.04902 0.02106 0.09123
v 0.05077 0.03256 0.09039
v 0.07561 0.03301 0.06660
v 0.08505 0.02544 0.07032
v 0.08297 0.01305 0.07191
v 0.07146 0.00824 0.06978
v 0.06202 0.01581 0.06605
v 0.06410 0.02819 0.06447
v 0.07621 0.02751 0.02927
v 0.08625 0.01928 0.02990
v 0.08418 0.00667 0.03228
v 0.07207 0.00229 0.03404
v 0.06202 0.01052 0.03341
v 0.06409 0.02313 0.03103
v 0.06922 0.01938 -0.01101
v 0.07900 0.01135 -0.01059
v 0.07710 -0.00077 -0.00742
v 0.06543 -0.00484 -0.00468
v 0.05566 0.00320 -0.00510
v 0.05756 0.01531 -0.00826
v 0.06400 0.00738 -0.04976
v 0.07312 0.00032 -0.04806
v 0.07142 -0.01062 -0.04441
v 0.06060 -0.01451 -0.04246
v 0.05148 -0.00744 -0.04417
v 0.05318 0.00350 -0.04782
v 0.06411 -0.00723 -0.08503
v 0.07199 -0.01301 -0.08258
v 0.07051 -0.02240 -0.07927
v 0.06116 -0.02602 -0.07840
v 0.05328 -0.02025 -0.08085
v 0.05475 -0.01086 -0.08417
v 0.06675 -0.02121 -0.11843
v 0.07302 -0.02584 -0.11663
v 0.07188 -0.03346 -0.11449
v 0.06447 -0.03646 -0.11415
v 0.05820 -0.03182 -0.11594
v 0.05934 -0.02420 -0.11808
v 0.06836 -0.03160 -0.15273
v 0.07277 -0.03491 -0.15177
v 0.07202 -0.04037 -0.15089
v 0.06687 -0.04254 -0.15097
v 0.06246 -0.03923 -0.15193
v 0.06321 -0.03377 -0.15281
v 0.07223 -0.03813 -0.18733
v 0.07460 -0.03990 -0.18684
v 0.07422 -0.04286 -0.18655
v 0.07147 -0.04405 -0.18674
v 0.06910 -0.04228 -0.18723
v 0.06948 -0.03931 -0.18752
v -0.08435 0.03239 0.18553
v 0.07185 -0.04109 -0.18703
f 1 8 7
f 2 9 8
f 4 9 3
f 5 10 4
f 6 11 5
f 6 7 12
f 8 13 7
f 9 14 8
f 9 16 15
f 10 17 16
f 11 18 17
f 7 18 12
f 14 19 13
f 15 20 14
f 15 22 21
f 16 23 22
f 17 24 23
f 13 24 18
f 20 25 19
f 21 26 20
f 21 28 27
f 22 29 28
f 23 30 29
f 19 30 24
f 25 32 31
f 26 33 32
f 27 34 33
f 28 35 34
f 29 36 35
f 30 31 36
f 31 38 37
f 32 39 38
f 34 39 33
f 35 40 34
f 36 41 35
f 36 37 42
f 37 44 43
f 38 45 44
f 40 45 39
f 41 46 40
f 42 47 41
f 42 43 48
f 43 50 49
f 45 50 44
f 46 51 45
f 47 52 46
f 47 54 53
f 48 49 54
f 50 55 49
f 51 56 50
f 51 58 57
f 52 59 58
f 53 60 59
f 49 60 54
f 56 61 55
f 57 62 56
f 57 64 63
f 58 65 64
f 59 66 65
f 55 66 60
f 61 68 67
f 63 68 62
f 64 69 63
f 65 70 64
f 65 72 71
f 66 67 72
f 67 74 73
f 68 75 74
f 69 76 75
f 71 76 70
f 72 77 71
f 67 78 72
f 79 2 1
f 79 3 2
f 79 4 3
f 79 5 4
f 79 6 5
f 79 1 6
f 73 74 80
f 74 75 80
f 75 76 80
f 76 77 80
f 77 78 80
f 78 73 80
f 1 2 8
f 2 3 9
f 4 10 9
f 5 11 10
f 6 12 11
f 6 1 7
f 8 14 13
f 9 15 14
f 9 10 16
f 10 11 17
f 11 12 18
f 7 13 18
f 14 20 19
f 15 21 20
f 15 16 22
f 16 17 23
f 17 18 24
f 13 19 24
f 20 26 25
f 21 27 26
f 21 22 28
f 22 23 29
f 23 24 30
f 19 25 30
f 25 26 32
f 26 27 33
f 27 28 34
f 28 29 35
f 29 30 36
f 30 25 31
f 31 32 38
f 32 33 39
f 34 40 39
f 35 41 40
f 36 42 41
f 36 31 37
f 37 38 44
f 38 39 45
f 40 46 45
f 41 47 46
f 42 48 47
f 42 37 43
f 43 44 50
f 45 51 50
f 46 52 51
f 47 53 52
f 47 48 54
f 48 43 49
f 50 56 55
f 51 57 56
f 51 52 58
f 52 53 59
f 53 54 60
f 49 55 60
f 56 62 61
f 57 63 62
f 57 58 64
f 58 59 65
f 59 60 66
f 55 61 66
f 61 62 68
f 63 69 68
f 64 70 69
f 65 71 70
f 65 66 72
f 66 61 67
f 67 68 74
f 68 69 75
f 69 70 76
f 71 77 76
f 72 78 77
f 67 73 78
