# kitsune Wisp9_WispCore.obj: Roblox cue frame, recentred on its bounding box
v -0.03409 -0.03503 0.28740
v -0.03146 -0.03647 0.28722
v -0.03139 -0.03936 0.28640
v -0.03394 -0.04080 0.28576
v -0.03657 -0.03936 0.28594
v -0.03664 -0.03647 0.28676
v -0.02987 -0.01892 0.24055
v -0.02499 -0.02164 0.24032
v -0.02483 -0.02695 0.23861
v -0.02955 -0.02956 0.23712
v -0.03443 -0.02684 0.23735
v -0.03459 -0.02152 0.23906
v -0.02124 0.00095 0.19329
v -0.01436 -0.00313 0.19356
v -0.01418 -0.01082 0.19135
v -0.02088 -0.01443 0.18889
v -0.02776 -0.01035 0.18862
v -0.02794 -0.00267 0.19083
v -0.00943 0.01355 0.14473
v -0.00102 0.00817 0.14610
v -0.00115 -0.00181 0.14472
v -0.00968 -0.00640 0.14196
v -0.01808 -0.00102 0.14059
v -0.01795 0.00896 0.14197
v 0.00324 0.01786 0.09621
v 0.01285 0.01158 0.09830
v 0.01245 -0.00005 0.09770
v 0.00246 -0.00542 0.09499
v -0.00714 0.00086 0.09290
v -0.00675 0.01250 0.09350
v 0.01436 0.02035 0.04896
v 0.02494 0.01358 0.05053
v 0.02460 0.00097 0.04943
v 0.01369 -0.00486 0.04675
v 0.00311 0.00192 0.04518
v 0.00345 0.01453 0.04628
v 0.02228 0.02688 0.00231
v 0.03334 0.02006 0.00249
v 0.03312 0.00725 0.00029
v 0.02184 0.00126 -0.00209
v 0.01077 0.00808 -0.00227
v 0.01099 0.02089 -0.00007
v 0.02579 0.03642 -0.04566
v 0.03664 0.02995 -0.04646
v 0.03642 0.01745 -0.04844
v 0.02535 0.01142 -0.04961
v 0.01450 0.01789 -0.04881
v 0.01472 0.03039 -0.04683
v 0.02399 0.04080 -0.09566
v 0.03404 0.03493 -0.09636
v 0.03402 0.02327 -0.09609
v 0.02395 0.01749 -0.09510
v 0.01390 0.02336 -0.09439
v 0.01392 0.03501 -0.09467
v 0.01711 0.03135 -0.14589
v 0.02591 0.02646 -0.14599
v 0.02633 0.01678 -0.14323
v 0.01794 0.01200 -0.14036
v 0.00914 0.01689 -0.14026
v 0.00872 0.02656 -0.14302
v 0.00675 0.00843 -0.19416
v 0.01381 0.00466 -0.19403
v 0.01439 -0.00261 -0.19074
v 0.00792 -0.00610 -0.18758
v 0.00087 -0.00233 -0.18771
v 0.00029 0.00494 -0.19100
v -0.00519 -0.01814 -0.24065
v -0.00031 -0.02087 -0.24077
v 0.00003 -0.02606 -0.23874
v -0.00450 -0.02852 -0.23658
v -0.00937 -0.02579 -0.23646
v -0.00972 -0.02060 -0.23849
v -0.01706 -0.03504 -0.28721
v -0.01448 -0.03655 -0.28740
v -0.01436 -0.03943 -0.28655
v -0.01682 -0.04079 -0.28551
v -0.01940 -0.03928 -0.28532
v -0.01952 -0.03640 -0.28617
v -0.03402 -0.03791 0.28658
v -0.01694 -0.03791 -0.28636
f 1 8 7
f 3 8 2
f 4 9 3
f 5 10 4
f 5 12 11
f 6 7 12
f 7 14 13
f 8 15 14
f 9 16 15
f 11 16 10
f 12 17 11
f 7 18 12
f 14 19 13
f 14 21 20
f 15 22 21
f 16 23 22
f 18 23 17
f 13 24 18
f 20 25 19
f 21 26 20
f 22 27 21
f 22 29 28
f 23 30 29
f 24 25 30
f 26 31 25
f 27 32 26
f 28 33 27
f 28 35 34
f 29 36 35
f 30 31 36
f 32 37 31
f 32 39 38
f 33 40 39
f 34 41 40
f 36 41 35
f 31 42 36
f 37 44 43
f 38 45 44
f 39 46 45
f 41 46 40
f 42 47 41
f 37 48 42
f 43 50 49
f 44 51 50
f 45 52 51
f 47 52 46
f 48 53 47
f 43 54 48
f 49 56 55
f 50 57 56
f 52 57 51
f 53 58 52
f 53 60 59
f 54 55 60
f 56 61 55
f 57 62 56
f 58 63 57
f 58 65 64
f 59 66 65
f 60 61 66
f 62 67 61
f 63 68 62
f 64 69 63
f 64 71 70
f 65 72 71
f 66 67 72
f 67 74 73
f 68 75 74
f 69 76 75
f 71 76 70
f 72 77 71
f 67 78 72
f 79 2 1
f 79 3 2
f 79 4 3
f 79 5 4
f 79 6 5
f 79 1 6
f 73 74 80
f 74 75 80
f 75 76 80
f 76 77 80
f 77 78 80
f 78 73 80
f 1 2 8
f 3 9 8
f 4 10 9
f 5 11 10
f 5 6 12
f 6 1 7
f 7 8 14
f 8 9 15
f 9 10 16
f 11 17 16
f 12 18 17
f 7 13 18
f 14 20 19
f 14 15 21
f 15 16 22
f 16 17 23
f 18 24 23
f 13 19 24
f 20 26 25
f 21 27 26
f 22 28 27
f 22 23 29
f 23 24 30
f 24 19 25
f 26 32 31
f 27 33 32
f 28 34 33
f 28 29 35
f 29 30 36
f 30 25 31
f 32 38 37
f 32 33 39
f 33 34 40
f 34 35 41
f 36 42 41
f 31 37 42
f 37 38 44
f 38 39 45
f 39 40 46
f 41 47 46
f 42 48 47
f 37 43 48
f 43 44 50
f 44 45 51
f 45 46 52
f 47 53 52
f 48 54 53
f 43 49 54
f 49 50 56
f 50 51 57
f 52 58 57
f 53 59 58
f 53 54 60
f 54 49 55
f 56 62 61
f 57 63 62
f 58 64 63
f 58 59 65
f 59 60 66
f 60 55 61
f 62 68 67
f 63 69 68
f 64 70 69
f 64 65 71
f 65 66 72
f 66 61 67
f 67 68 74
f 68 69 75
f 69 70 76
f 71 77 76
f 72 78 77
f 67 73 78
