# kitsune Wisp3_Wisp.obj: Roblox cue frame, recentred on its bounding box
v 0.03001 0.06008 -0.24727
v 0.01071 0.04360 -0.25214
v 0.00262 0.00380 -0.25378
v 0.01048 -0.03600 -0.25124
v 0.02968 -0.05249 -0.24600
v 0.04897 -0.03600 -0.24113
v 0.05707 0.00380 -0.23948
v 0.04921 0.04360 -0.24203
v 0.01815 0.07269 -0.20237
v -0.00492 0.05265 -0.20961
v -0.01420 0.00430 -0.21348
v -0.00427 -0.04404 -0.21173
v 0.01908 -0.06406 -0.20537
v 0.04214 -0.04402 -0.19814
v 0.05143 0.00433 -0.19426
v 0.04149 0.05267 -0.19601
v 0.00301 0.07789 -0.15443
v -0.02274 0.05555 -0.16274
v -0.03246 0.00169 -0.16972
v -0.02047 -0.05215 -0.17129
v 0.00622 -0.07443 -0.16652
v 0.03196 -0.05208 -0.15821
v 0.04168 0.00178 -0.15123
v 0.02969 0.05562 -0.14967
v -0.00498 0.07700 -0.10855
v -0.03266 0.05324 -0.11447
v -0.04298 -0.00349 -0.12191
v -0.02990 -0.05994 -0.12651
v -0.00108 -0.08306 -0.12558
v 0.02660 -0.05929 -0.11966
v 0.03693 -0.00257 -0.11222
v 0.02385 0.05388 -0.10762
v -0.00753 0.07293 -0.06779
v -0.03552 0.04887 -0.07198
v -0.04608 -0.00835 -0.07730
v -0.03303 -0.06520 -0.08065
v -0.00401 -0.08839 -0.08005
v 0.02398 -0.06432 -0.07587
v 0.03454 -0.00711 -0.07054
v 0.02149 0.04975 -0.06720
v -0.01075 0.06831 -0.03183
v -0.03780 0.04520 -0.03605
v -0.04864 -0.01008 -0.03738
v -0.03692 -0.06514 -0.03505
v -0.00951 -0.08774 -0.03042
v 0.01754 -0.06463 -0.02620
v 0.02838 -0.00935 -0.02486
v 0.01666 0.04571 -0.02719
v -0.01834 0.06478 0.00266
v -0.04362 0.04348 -0.00068
v -0.05484 -0.00743 0.00296
v -0.04543 -0.05813 0.01142
v -0.02089 -0.07892 0.01977
v 0.00439 -0.05762 0.02310
v 0.01561 -0.00672 0.01946
v 0.00620 0.04398 0.01100
v -0.02774 0.06344 0.03815
v -0.05095 0.04506 0.03917
v -0.06183 0.00065 0.04816
v -0.05400 -0.04378 0.05986
v -0.03205 -0.06219 0.06742
v -0.00884 -0.04380 0.06640
v 0.00204 0.00061 0.05741
v -0.00579 0.04503 0.04571
v -0.03037 0.06481 0.07585
v -0.05000 0.05073 0.08350
v -0.05878 0.01422 0.09686
v -0.05156 -0.02332 0.10811
v -0.03258 -0.03992 0.11066
v -0.01295 -0.02584 0.10301
v -0.00418 0.01067 0.08965
v -0.01139 0.04822 0.07840
v -0.01780 0.06886 0.11628
v -0.03207 0.05903 0.12755
v -0.03789 0.03036 0.14173
v -0.03186 -0.00036 0.15050
v -0.01750 -0.01513 0.14874
v -0.00324 -0.00530 0.13746
v 0.00259 0.02337 0.12329
v -0.00344 0.05409 0.11451
v 0.00860 0.07473 0.15787
v -0.00146 0.06774 0.16804
v -0.00534 0.04601 0.17988
v -0.00077 0.02228 0.18645
v 0.00956 0.01044 0.18390
v 0.01962 0.01743 0.17372
v 0.02350 0.03915 0.16188
v 0.01894 0.06289 0.15531
v 0.03738 0.08160 0.19982
v 0.02983 0.07637 0.20648
v 0.02690 0.06079 0.21466
v 0.03031 0.04399 0.21958
v 0.03807 0.03580 0.21836
v 0.04562 0.04103 0.21171
v 0.04855 0.05661 0.20352
v 0.04514 0.07342 0.19860
v 0.05471 0.08839 0.24239
v 0.04985 0.08500 0.24591
v 0.04795 0.07544 0.25063
v 0.05011 0.06530 0.25378
v 0.05507 0.06053 0.25353
v 0.05992 0.06392 0.25001
v 0.06183 0.07349 0.24529
v 0.05967 0.08362 0.24214
v 0.02984 0.00380 -0.24663
v 0.05489 0.07446 0.24796
f 1 10 9
f 2 11 10
f 4 11 3
f 5 12 4
f 5 14 13
f 6 15 14
f 8 15 7
f 1 16 8
f 9 18 17
f 10 19 18
f 12 19 11
f 13 20 12
f 13 22 21
f 14 23 22
f 16 23 15
f 9 24 16
f 17 26 25
f 18 27 26
f 20 27 19
f 21 28 20
f 21 30 29
f 22 31 30
f 24 31 23
f 17 32 24
f 25 34 33
f 27 34 26
f 28 35 27
f 29 36 28
f 30 37 29
f 30 39 38
f 31 40 39
f 32 33 40
f 34 41 33
f 35 42 34
f 35 44 43
f 36 45 44
f 38 45 37
f 39 46 38
f 39 48 47
f 40 41 48
f 42 49 41
f 43 50 42
f 43 52 51
f 44 53 52
f 46 53 45
f 47 54 46
f 47 56 55
f 48 49 56
f 50 57 49
f 51 58 50
f 51 60 59
f 52 61 60
f 54 61 53
f 55 62 54
f 55 64 63
f 56 57 64
f 58 65 57
f 59 66 58
f 59 68 67
f 60 69 68
f 62 69 61
f 63 70 62
f 63 72 71
f 64 65 72
f 66 73 65
f 67 74 66
f 67 76 75
f 68 77 76
f 70 77 69
f 71 78 70
f 71 80 79
f 72 73 80
f 74 81 73
f 75 82 74
f 75 84 83
f 76 85 84
f 78 85 77
f 79 86 78
f 79 88 87
f 80 81 88
f 82 89 81
f 83 90 82
f 83 92 91
f 84 93 92
f 86 93 85
f 87 94 86
f 87 96 95
f 88 89 96
f 90 97 89
f 91 98 90
f 91 100 99
f 92 101 100
f 94 101 93
f 95 102 94
f 95 104 103
f 96 97 104
f 105 2 1
f 105 3 2
f 105 4 3
f 105 5 4
f 105 6 5
f 105 7 6
f 105 8 7
f 105 1 8
f 97 98 106
f 98 99 106
f 99 100 106
f 100 101 106
f 101 102 106
f 102 103 106
f 103 104 106
f 104 97 106
f 1 2 10
f 2 3 11
f 4 12 11
f 5 13 12
f 5 6 14
f 6 7 15
f 8 16 15
f 1 9 16
f 9 10 18
f 10 11 19
f 12 20 19
f 13 21 20
f 13 14 22
f 14 15 23
f 16 24 23
f 9 17 24
f 17 18 26
f 18 19 27
f 20 28 27
f 21 29 28
f 21 22 30
f 22 23 31
f 24 32 31
f 17 25 32
f 25 26 34
f 27 35 34
f 28 36 35
f 29 37 36
f 30 38 37
f 30 31 39
f 31 32 40
f 32 25 33
f 34 42 41
f 35 43 42
f 35 36 44
f 36 37 45
f 38 46 45
f 39 47 46
f 39 40 48
f 40 33 41
f 42 50 49
f 43 51 50
f 43 44 52
f 44 45 53
f 46 54 53
f 47 55 54
f 47 48 56
f 48 41 49
f 50 58 57
f 51 59 58
f 51 52 60
f 52 53 61
f 54 62 61
f 55 63 62
f 55 56 64
f 56 49 57
f 58 66 65
f 59 67 66
f 59 60 68
f 60 61 69
f 62 70 69
f 63 71 70
f 63 64 72
f 64 57 65
f 66 74 73
f 67 75 74
f 67 68 76
f 68 69 77
f 70 78 77
f 71 79 78
f 71 72 80
f 72 65 73
f 74 82 81
f 75 83 82
f 75 76 84
f 76 77 85
f 78 86 85
f 79 87 86
f 79 80 88
f 80 73 81
f 82 90 89
f 83 91 90
f 83 84 92
f 84 85 93
f 86 94 93
f 87 95 94
f 87 88 96
f 88 81 89
f 90 98 97
f 91 99 98
f 91 92 100
f 92 93 101
f 94 102 101
f 95 103 102
f 95 96 104
f 96 89 97
