# kitsune Wisp2_Wisp.obj: Roblox cue frame, recentred on its bounding box
v 0.01265 0.01042 -0.26996
v -0.00582 -0.00358 -0.26509
v -0.01397 -0.03738 -0.25174
v -0.00702 -0.07118 -0.23772
v 0.01095 -0.08518 -0.23125
v 0.02942 -0.07118 -0.23612
v 0.03756 -0.03738 -0.24948
v 0.03062 -0.00358 -0.26349
v 0.01114 0.03707 -0.23273
v -0.01103 0.01949 -0.22850
v -0.02091 -0.02133 -0.21239
v -0.01272 -0.06148 -0.19383
v 0.00875 -0.07744 -0.18370
v 0.03091 -0.05987 -0.18794
v 0.04079 -0.01905 -0.20405
v 0.03260 0.02111 -0.22261
v -0.00069 0.06475 -0.18877
v -0.02470 0.04387 -0.18714
v -0.03491 -0.00297 -0.17251
v -0.02533 -0.04832 -0.15347
v -0.00158 -0.06563 -0.14115
v 0.02244 -0.04475 -0.14279
v 0.03265 0.00209 -0.15741
v 0.02307 0.04745 -0.17646
v -0.01413 0.08397 -0.13187
v -0.03888 0.06138 -0.13314
v -0.04783 0.00973 -0.12738
v -0.03574 -0.04073 -0.11796
v -0.00969 -0.06044 -0.11040
v 0.01506 -0.03785 -0.10914
v 0.02401 0.01380 -0.11490
v 0.01192 0.06426 -0.12432
v -0.02052 0.08518 -0.07073
v -0.04539 0.06273 -0.07430
v -0.05370 0.01065 -0.07947
v -0.04059 -0.04056 -0.08320
v -0.01372 -0.06090 -0.08331
v 0.01115 -0.03845 -0.07974
v 0.01946 0.01363 -0.07457
v 0.00634 0.06484 -0.07084
v -0.02083 0.07331 -0.01905
v -0.04487 0.05184 -0.02337
v -0.05289 0.00228 -0.03319
v -0.04018 -0.04633 -0.04277
v -0.01419 -0.06552 -0.04649
v 0.00986 -0.04405 -0.04218
v 0.01787 0.00550 -0.03236
v 0.00516 0.05411 -0.02278
v -0.02040 0.05962 0.02152
v -0.04275 0.03959 0.01797
v -0.05023 -0.00677 0.01063
v -0.03846 -0.05230 0.00379
v -0.01433 -0.07034 0.00147
v 0.00802 -0.05032 0.00501
v 0.01551 -0.00396 0.01235
v 0.00373 0.04158 0.01919
v -0.02174 0.04894 0.05838
v -0.04179 0.03088 0.05677
v -0.04863 -0.01102 0.05448
v -0.03825 -0.05222 0.05285
v -0.01673 -0.06858 0.05283
v 0.00332 -0.05052 0.05444
v 0.01016 -0.00862 0.05673
v -0.00022 0.03257 0.05836
v -0.02281 0.04091 0.09925
v -0.04001 0.02530 0.10007
v -0.04580 -0.01077 0.10043
v -0.03680 -0.04619 0.10012
v -0.01829 -0.06020 0.09932
v -0.00110 -0.04459 0.09850
v 0.00470 -0.00852 0.09814
v -0.00430 0.02690 0.09845
v -0.01663 0.03193 0.14442
v -0.03051 0.01913 0.14728
v -0.03549 -0.01049 0.14718
v -0.02866 -0.03958 0.14417
v -0.01401 -0.05111 0.14002
v -0.00012 -0.03831 0.13715
v 0.00486 -0.00869 0.13725
v -0.00198 0.02041 0.14026
v 0.00049 0.01873 0.18806
v -0.00986 0.00871 0.19182
v -0.01414 -0.01431 0.19113
v -0.00984 -0.03684 0.18640
v 0.00052 -0.04569 0.18039
v 0.01087 -0.03567 0.17663
v 0.01515 -0.01265 0.17731
v 0.01085 0.00988 0.18205
v 0.02400 0.00404 0.22737
v 0.01689 -0.00333 0.23090
v 0.01424 -0.02017 0.23123
v 0.01760 -0.03659 0.22818
v 0.02500 -0.04299 0.22352
v 0.03211 -0.03561 0.22000
v 0.03476 -0.01878 0.21966
v 0.03140 -0.00235 0.22272
v 0.04635 -0.00423 0.26667
v 0.04196 -0.00892 0.26914
v 0.04061 -0.01964 0.26996
v 0.04310 -0.03010 0.26865
v 0.04796 -0.03418 0.26598
v 0.05236 -0.02948 0.26351
v 0.05370 -0.01876 0.26270
v 0.05122 -0.00830 0.26400
v 0.01180 -0.03738 -0.25061
v 0.04716 -0.01920 0.26633
f 1 10 9
f 2 11 10
f 4 11 3
f 5 12 4
f 5 14 13
f 6 15 14
f 8 15 7
f 1 16 8
f 9 18 17
f 10 19 18
f 11 20 19
f 12 21 20
f 13 22 21
f 14 23 22
f 16 23 15
f 9 24 16
f 17 26 25
f 18 27 26
f 19 28 27
f 20 29 28
f 21 30 29
f 22 31 30
f 24 31 23
f 17 32 24
f 25 34 33
f 27 34 26
f 28 35 27
f 29 36 28
f 29 38 37
f 30 39 38
f 31 40 39
f 32 33 40
f 34 41 33
f 35 42 34
f 36 43 35
f 37 44 36
f 38 45 37
f 38 47 46
f 39 48 47
f 40 41 48
f 42 49 41
f 43 50 42
f 44 51 43
f 44 53 52
f 46 53 45
f 46 55 54
f 47 56 55
f 48 49 56
f 50 57 49
f 51 58 50
f 51 60 59
f 52 61 60
f 54 61 53
f 55 62 54
f 55 64 63
f 56 57 64
f 58 65 57
f 59 66 58
f 59 68 67
f 60 69 68
f 62 69 61
f 63 70 62
f 63 72 71
f 64 65 72
f 66 73 65
f 67 74 66
f 67 76 75
f 68 77 76
f 70 77 69
f 71 78 70
f 71 80 79
f 72 73 80
f 74 81 73
f 75 82 74
f 75 84 83
f 76 85 84
f 78 85 77
f 79 86 78
f 79 88 87
f 80 81 88
f 82 89 81
f 83 90 82
f 84 91 83
f 84 93 92
f 86 93 85
f 87 94 86
f 87 96 95
f 88 89 96
f 90 97 89
f 91 98 90
f 91 100 99
f 92 101 100
f 94 101 93
f 95 102 94
f 95 104 103
f 96 97 104
f 105 2 1
f 105 3 2
f 105 4 3
f 105 5 4
f 105 6 5
f 105 7 6
f 105 8 7
f 105 1 8
f 97 98 106
f 98 99 106
f 99 100 106
f 100 101 106
f 101 102 106
f 102 103 106
f 103 104 106
f 104 97 106
f 1 2 10
f 2 3 11
f 4 12 11
f 5 13 12
f 5 6 14
f 6 7 15
f 8 16 15
f 1 9 16
f 9 10 18
f 10 11 19
f 11 12 20
f 12 13 21
f 13 14 22
f 14 15 23
f 16 24 23
f 9 17 24
f 17 18 26
f 18 19 27
f 19 20 28
f 20 21 29
f 21 22 30
f 22 23 31
f 24 32 31
f 17 25 32
f 25 26 34
f 27 35 34
f 28 36 35
f 29 37 36
f 29 30 38
f 30 31 39
f 31 32 40
f 32 25 33
f 34 42 41
f 35 43 42
f 36 44 43
f 37 45 44
f 38 46 45
f 38 39 47
f 39 40 48
f 40 33 41
f 42 50 49
f 43 51 50
f 44 52 51
f 44 45 53
f 46 54 53
f 46 47 55
f 47 48 56
f 48 41 49
f 50 58 57
f 51 59 58
f 51 52 60
f 52 53 61
f 54 62 61
f 55 63 62
f 55 56 64
f 56 49 57
f 58 66 65
f 59 67 66
f 59 60 68
f 60 61 69
f 62 70 69
f 63 71 70
f 63 64 72
f 64 57 65
f 66 74 73
f 67 75 74
f 67 68 76
f 68 69 77
f 70 78 77
f 71 79 78
f 71 72 80
f 72 65 73
f 74 82 81
f 75 83 82
f 75 76 84
f 76 77 85
f 78 86 85
f 79 87 86
f 79 80 88
f 80 73 81
f 82 90 89
f 83 91 90
f 84 92 91
f 84 85 93
f 86 94 93
f 87 95 94
f 87 88 96
f 88 81 89
f 90 98 97
f 91 99 98
f 91 92 100
f 92 93 101
f 94 102 101
f 95 103 102
f 95 96 104
f 96 89 97
