# kitsune Wisp4_Wisp.obj: Roblox cue frame, recentred on its bounding box
v 0.04527 0.06314 -0.17590
v 0.02604 0.04746 -0.18178
v 0.01877 0.00959 -0.19284
v 0.02771 -0.02827 -0.20260
v 0.04763 -0.04396 -0.20534
v 0.06686 -0.02827 -0.19946
v 0.07414 0.00959 -0.18840
v 0.06519 0.04746 -0.17864
v 0.04222 0.06491 -0.13775
v 0.01892 0.04600 -0.14535
v 0.01009 0.00004 -0.15878
v 0.02090 -0.04605 -0.17017
v 0.04502 -0.06527 -0.17286
v 0.06832 -0.04635 -0.16526
v 0.07716 -0.00039 -0.15183
v 0.06634 0.04570 -0.14044
v 0.03791 0.06383 -0.10330
v 0.01194 0.04287 -0.11235
v 0.00184 -0.00879 -0.12601
v 0.01354 -0.06089 -0.13629
v 0.04018 -0.08292 -0.13715
v 0.06615 -0.06197 -0.12810
v 0.07624 -0.01031 -0.11444
v 0.06455 0.04180 -0.10416
v 0.03213 0.06152 -0.07084
v 0.00527 0.04003 -0.08281
v -0.00567 -0.01451 -0.09649
v 0.00574 -0.07015 -0.10387
v 0.03280 -0.09431 -0.10063
v 0.05967 -0.07283 -0.08867
v 0.07060 -0.01829 -0.07499
v 0.05919 0.03736 -0.06760
v 0.01899 0.05569 -0.03735
v -0.00602 0.03506 -0.05434
v -0.01627 -0.01939 -0.06997
v -0.00577 -0.07577 -0.07508
v 0.01933 -0.10104 -0.06667
v 0.04434 -0.08041 -0.04967
v 0.05460 -0.02596 -0.03405
v 0.04410 0.03042 -0.02894
v -0.00084 0.04705 -0.00747
v -0.02352 0.02763 -0.02632
v -0.03386 -0.02493 -0.04094
v -0.02582 -0.07984 -0.04277
v -0.00410 -0.10494 -0.03073
v 0.01857 -0.08552 -0.01189
v 0.02891 -0.03296 0.00274
v 0.02087 0.02195 0.00457
v -0.01891 0.03922 0.01395
v -0.04202 0.02109 -0.00053
v -0.05644 -0.02793 -0.00712
v -0.05370 -0.07911 -0.00196
v -0.03543 -0.10247 0.01193
v -0.01232 -0.08434 0.02640
v 0.00209 -0.03532 0.03299
v -0.00064 0.01586 0.02783
v -0.03004 0.03378 0.02466
v -0.05516 0.01914 0.02181
v -0.07450 -0.02128 0.03203
v -0.07673 -0.06379 0.04935
v -0.06054 -0.08349 0.06361
v -0.03542 -0.06885 0.06646
v -0.01608 -0.02843 0.05624
v -0.01385 0.01408 0.03892
v -0.03690 0.03545 0.04084
v -0.05929 0.02776 0.04888
v -0.07597 0.00070 0.07205
v -0.07716 -0.02988 0.09676
v -0.06217 -0.04605 0.10855
v -0.03977 -0.03835 0.10051
v -0.02310 -0.01129 0.07734
v -0.02191 0.01928 0.05263
v -0.03165 0.05333 0.07255
v -0.04899 0.05002 0.08283
v -0.06121 0.03157 0.10611
v -0.06117 0.00879 0.12875
v -0.04888 -0.00498 0.13750
v -0.03154 -0.00167 0.12722
v -0.01932 0.01678 0.10394
v -0.01936 0.03957 0.08130
v -0.01786 0.07881 0.11163
v -0.03117 0.07642 0.11971
v -0.04085 0.06170 0.13715
v -0.04123 0.04328 0.15373
v -0.03208 0.03194 0.15974
v -0.01876 0.03433 0.15166
v -0.00908 0.04905 0.13422
v -0.00870 0.06747 0.11764
v -0.00603 0.09934 0.15421
v -0.01605 0.09652 0.15850
v -0.02399 0.08375 0.16787
v -0.02519 0.06851 0.17683
v -0.01894 0.05973 0.18013
v -0.00892 0.06256 0.17584
v -0.00099 0.07533 0.16647
v 0.00021 0.09057 0.15751
v -0.00341 0.10494 0.19421
v -0.00972 0.10276 0.19593
v -0.01489 0.09411 0.19990
v -0.01589 0.08405 0.20380
v -0.01215 0.07848 0.20534
v -0.00585 0.08066 0.20362
v -0.00068 0.08931 0.19965
v 0.00033 0.09936 0.19575
v 0.04645 0.00959 -0.19062
v -0.00778 0.09171 0.19977
f 1 10 9
f 2 11 10
f 4 11 3
f 5 12 4
f 5 14 13
f 6 15 14
f 8 15 7
f 1 16 8
f 9 18 17
f 10 19 18
f 12 19 11
f 13 20 12
f 13 22 21
f 14 23 22
f 16 23 15
f 9 24 16
f 17 26 25
f 18 27 26
f 20 27 19
f 21 28 20
f 21 30 29
f 22 31 30
f 24 31 23
f 17 32 24
f 25 34 33
f 26 35 34
f 27 36 35
f 29 36 28
f 30 37 29
f 31 38 30
f 32 39 31
f 25 40 32
f 34 41 33
f 35 42 34
f 35 44 43
f 36 45 44
f 37 46 45
f 38 47 46
f 39 48 47
f 40 41 48
f 42 49 41
f 43 50 42
f 44 51 43
f 44 53 52
f 45 54 53
f 46 55 54
f 47 56 55
f 48 49 56
f 50 57 49
f 51 58 50
f 52 59 51
f 52 61 60
f 54 61 53
f 55 62 54
f 55 64 63
f 56 57 64
f 58 65 57
f 59 66 58
f 59 68 67
f 60 69 68
f 62 69 61
f 63 70 62
f 63 72 71
f 64 65 72
f 66 73 65
f 67 74 66
f 67 76 75
f 68 77 76
f 70 77 69
f 71 78 70
f 71 80 79
f 72 73 80
f 74 81 73
f 75 82 74
f 75 84 83
f 76 85 84
f 78 85 77
f 79 86 78
f 79 88 87
f 80 81 88
f 82 89 81
f 83 90 82
f 83 92 91
f 84 93 92
f 86 93 85
f 87 94 86
f 87 96 95
f 88 89 96
f 90 97 89
f 91 98 90
f 92 99 91
f 92 101 100
f 94 101 93
f 94 103 102
f 95 104 103
f 96 97 104
f 105 2 1
f 105 3 2
f 105 4 3
f 105 5 4
f 105 6 5
f 105 7 6
f 105 8 7
f 105 1 8
f 97 98 106
f 98 99 106
f 99 100 106
f 100 101 106
f 101 102 106
f 102 103 106
f 103 104 106
f 104 97 106
f 1 2 10
f 2 3 11
f 4 12 11
f 5 13 12
f 5 6 14
f 6 7 15
f 8 16 15
f 1 9 16
f 9 10 18
f 10 11 19
f 12 20 19
f 13 21 20
f 13 14 22
f 14 15 23
f 16 24 23
f 9 17 24
f 17 18 26
f 18 19 27
f 20 28 27
f 21 29 28
f 21 22 30
f 22 23 31
f 24 32 31
f 17 25 32
f 25 26 34
f 26 27 35
f 27 28 36
f 29 37 36
f 30 38 37
f 31 39 38
f 32 40 39
f 25 33 40
f 34 42 41
f 35 43 42
f 35 36 44
f 36 37 45
f 37 38 46
f 38 39 47
f 39 40 48
f 40 33 41
f 42 50 49
f 43 51 50
f 44 52 51
f 44 45 53
f 45 46 54
f 46 47 55
f 47 48 56
f 48 41 49
f 50 58 57
f 51 59 58
f 52 60 59
f 52 53 61
f 54 62 61
f 55 63 62
f 55 56 64
f 56 49 57
f 58 66 65
f 59 67 66
f 59 60 68
f 60 61 69
f 62 70 69
f 63 71 70
f 63 64 72
f 64 57 65
f 66 74 73
f 67 75 74
f 67 68 76
f 68 69 77
f 70 78 77
f 71 79 78
f 71 72 80
f 72 65 73
f 74 82 81
f 75 83 82
f 75 76 84
f 76 77 85
f 78 86 85
f 79 87 86
f 79 80 88
f 80 73 81
f 82 90 89
f 83 91 90
f 83 84 92
f 84 85 93
f 86 94 93
f 87 95 94
f 87 88 96
f 88 81 89
f 90 98 97
f 91 99 98
f 92 100 99
f 92 93 101
f 94 102 101
f 94 95 103
f 95 96 104
f 96 89 97
