# kitsune Wisp10_WispCore.obj: Roblox cue frame, recentred on its bounding box
v -0.01708 -0.04718 0.18757
v -0.01451 -0.04862 0.18811
v -0.01420 -0.05150 0.18732
v -0.01647 -0.05294 0.18599
v -0.01904 -0.05150 0.18544
v -0.01935 -0.04862 0.18623
v -0.00525 -0.03485 0.15716
v -0.00044 -0.03752 0.15815
v 0.00015 -0.04286 0.15662
v -0.00406 -0.04553 0.15409
v -0.00886 -0.04286 0.15310
v -0.00946 -0.03752 0.15464
v 0.00669 -0.02174 0.12656
v 0.01362 -0.02553 0.12787
v 0.01443 -0.03321 0.12578
v 0.00832 -0.03710 0.12240
v 0.00140 -0.03332 0.12109
v 0.00058 -0.02563 0.12317
v 0.01657 -0.01131 0.09606
v 0.02551 -0.01587 0.09700
v 0.02656 -0.02550 0.09427
v 0.01868 -0.03058 0.09059
v 0.00975 -0.02603 0.08965
v 0.00869 -0.01640 0.09239
v 0.02256 0.00067 0.06684
v 0.03323 -0.00397 0.06606
v 0.03465 -0.01457 0.06140
v 0.02540 -0.02051 0.05752
v 0.01473 -0.01587 0.05830
v 0.01331 -0.00527 0.06296
v 0.02397 0.01824 0.03758
v 0.03560 0.01415 0.03470
v 0.03711 0.00342 0.02816
v 0.02698 -0.00322 0.02448
v 0.01534 0.00086 0.02735
v 0.01384 0.01159 0.03390
v 0.02023 0.03906 0.00621
v 0.03206 0.03555 0.00210
v 0.03368 0.02431 -0.00423
v 0.02347 0.01658 -0.00645
v 0.01165 0.02008 -0.00235
v 0.01003 0.03132 0.00398
v 0.01093 0.05294 -0.02855
v 0.02253 0.04991 -0.03261
v 0.02534 0.03787 -0.03534
v 0.01655 0.02886 -0.03400
v 0.00495 0.03189 -0.02993
v 0.00214 0.04393 -0.02721
v -0.00229 0.04778 -0.06468
v 0.00868 0.04559 -0.06798
v 0.01348 0.03521 -0.06572
v 0.00732 0.02702 -0.06016
v -0.00365 0.02921 -0.05687
v -0.00845 0.03959 -0.05912
v -0.01503 0.02400 -0.09775
v -0.00539 0.02249 -0.10022
v -0.00024 0.01490 -0.09605
v -0.00475 0.00883 -0.08939
v -0.01439 0.01034 -0.08692
v -0.01953 0.01792 -0.09110
v -0.02556 -0.00737 -0.12840
v -0.01780 -0.00832 -0.13006
v -0.01359 -0.01405 -0.12638
v -0.01715 -0.01882 -0.12104
v -0.02492 -0.01787 -0.11938
v -0.02913 -0.01214 -0.12306
v -0.03277 -0.03395 -0.15788
v -0.02727 -0.03435 -0.15877
v -0.02442 -0.03872 -0.15676
v -0.02709 -0.04269 -0.15386
v -0.03259 -0.04228 -0.15297
v -0.03543 -0.03791 -0.15498
v -0.03562 -0.04756 -0.18776
v -0.03264 -0.04770 -0.18811
v -0.03115 -0.05019 -0.18737
v -0.03264 -0.05256 -0.18628
v -0.03562 -0.05243 -0.18593
v -0.03711 -0.04993 -0.18667
v -0.01677 -0.05006 0.18678
v -0.03413 -0.05006 -0.18702
f 2 7 1
f 3 8 2
f 4 9 3
f 4 11 10
f 5 12 11
f 6 7 12
f 8 13 7
f 8 15 14
f 9 16 15
f 10 17 16
f 12 17 11
f 7 18 12
f 14 19 13
f 15 20 14
f 16 21 15
f 16 23 22
f 17 24 23
f 18 19 24
f 20 25 19
f 21 26 20
f 22 27 21
f 22 29 28
f 23 30 29
f 24 25 30
f 25 32 31
f 26 33 32
f 27 34 33
f 29 34 28
f 30 35 29
f 25 36 30
f 31 38 37
f 32 39 38
f 33 40 39
f 35 40 34
f 36 41 35
f 31 42 36
f 37 44 43
f 38 45 44
f 39 46 45
f 41 46 40
f 42 47 41
f 37 48 42
f 43 50 49
f 44 51 50
f 45 52 51
f 46 53 52
f 47 54 53
f 48 49 54
f 49 56 55
f 51 56 50
f 52 57 51
f 52 59 58
f 53 60 59
f 54 55 60
f 55 62 61
f 57 62 56
f 58 63 57
f 59 64 58
f 59 66 65
f 60 61 66
f 61 68 67
f 63 68 62
f 64 69 63
f 65 70 64
f 65 72 71
f 66 67 72
f 68 73 67
f 68 75 74
f 69 76 75
f 70 77 76
f 72 77 71
f 67 78 72
f 79 2 1
f 79 3 2
f 79 4 3
f 79 5 4
f 79 6 5
f 79 1 6
f 73 74 80
f 74 75 80
f 75 76 80
f 76 77 80
f 77 78 80
f 78 73 80
f 2 8 7
f 3 9 8
f 4 10 9
f 4 5 11
f 5 6 12
f 6 1 7
f 8 14 13
f 8 9 15
f 9 10 16
f 10 11 17
f 12 18 17
f 7 13 18
f 14 20 19
f 15 21 20
f 16 22 21
f 16 17 23
f 17 18 24
f 18 13 19
f 20 26 25
f 21 27 26
f 22 28 27
f 22 23 29
f 23 24 30
f 24 19 25
f 25 26 32
f 26 27 33
f 27 28 34
f 29 35 34
f 30 36 35
f 25 31 36
f 31 32 38
f 32 33 39
f 33 34 40
f 35 41 40
f 36 42 41
f 31 37 42
f 37 38 44
f 38 39 45
f 39 40 46
f 41 47 46
f 42 48 47
f 37 43 48
f 43 44 50
f 44 45 51
f 45 46 52
f 46 47 53
f 47 48 54
f 48 43 49
f 49 50 56
f 51 57 56
f 52 58 57
f 52 53 59
f 53 54 60
f 54 49 55
f 55 56 62
f 57 63 62
f 58 64 63
f 59 65 64
f 59 60 66
f 60 55 61
f 61 62 68
f 63 69 68
f 64 70 69
f 65 71 70
f 65 66 72
f 66 61 67
f 68 74 73
f 68 69 75
f 69 70 76
f 70 71 77
f 72 78 77
f 67 73 78
