# kitsune Wisp6_Wisp.obj: Roblox cue frame, recentred on its bounding box
v 0.04083 0.12047 -0.22932
v 0.02652 0.10838 -0.23637
v 0.02220 0.07920 -0.24735
v 0.03040 0.05001 -0.25583
v 0.04632 0.03793 -0.25685
v 0.06063 0.05001 -0.24980
v 0.06495 0.07920 -0.23882
v 0.05675 0.10838 -0.23033
v 0.03119 0.11184 -0.18016
v 0.01435 0.09801 -0.18987
v 0.00989 0.06493 -0.20702
v 0.02042 0.03198 -0.22157
v 0.03978 0.01846 -0.22499
v 0.05663 0.03229 -0.21528
v 0.06109 0.06537 -0.19813
v 0.05055 0.09833 -0.18358
v 0.02423 0.08497 -0.12817
v 0.00574 0.07096 -0.14080
v 0.00146 0.03848 -0.16634
v 0.01389 0.00656 -0.18983
v 0.03576 -0.00611 -0.19752
v 0.05424 0.00790 -0.18488
v 0.05853 0.04037 -0.15934
v 0.04609 0.07230 -0.13585
v 0.02156 0.04834 -0.08306
v 0.00218 0.03422 -0.09696
v -0.00218 0.00241 -0.12643
v 0.01103 -0.02847 -0.15421
v 0.03407 -0.04032 -0.16403
v 0.05345 -0.02621 -0.15014
v 0.05782 0.00561 -0.12066
v 0.04460 0.03649 -0.09288
v 0.02032 0.01459 -0.04696
v 0.00079 0.00000 -0.06041
v -0.00379 -0.03382 -0.08785
v 0.00925 -0.06705 -0.11321
v 0.03229 -0.08024 -0.12162
v 0.05181 -0.06565 -0.10816
v 0.05640 -0.03183 -0.08072
v 0.04335 0.00140 -0.05537
v 0.01819 -0.00473 -0.02260
v -0.00137 -0.01973 -0.03346
v -0.00808 -0.05774 -0.05087
v 0.00197 -0.09651 -0.06464
v 0.02290 -0.11332 -0.06670
v 0.04245 -0.09832 -0.05584
v 0.04917 -0.06030 -0.03843
v 0.03912 -0.02154 -0.02466
v 0.01393 -0.01180 -0.00456
v -0.00585 -0.02561 -0.01157
v -0.01785 -0.06316 -0.01430
v -0.01504 -0.10245 -0.01117
v 0.00094 -0.12047 -0.00400
v 0.02072 -0.10666 0.00300
v 0.03272 -0.06911 0.00574
v 0.02991 -0.02981 0.00261
v 0.00034 -0.00860 0.02436
v -0.01862 -0.02031 0.02039
v -0.03331 -0.05222 0.02616
v -0.03513 -0.08563 0.03831
v -0.02302 -0.10098 0.04971
v -0.00406 -0.08927 0.05369
v 0.01063 -0.05736 0.04791
v 0.01246 -0.02395 0.03576
v -0.01865 0.00493 0.06481
v -0.03578 -0.00456 0.06301
v -0.04962 -0.03110 0.07079
v -0.05206 -0.05915 0.08360
v -0.04168 -0.07226 0.09393
v -0.02455 -0.06277 0.09574
v -0.01071 -0.03623 0.08795
v -0.00827 -0.00819 0.07514
v -0.03412 0.01970 0.11123
v -0.04881 0.01234 0.11094
v -0.06042 -0.00980 0.11748
v -0.06216 -0.03375 0.12702
v -0.05300 -0.04549 0.13398
v -0.03831 -0.03813 0.13427
v -0.02670 -0.01599 0.12773
v -0.02496 0.00797 0.11819
v -0.04261 0.02916 0.15924
v -0.05451 0.02359 0.15973
v -0.06376 0.00565 0.16417
v -0.06495 -0.01416 0.16996
v -0.05738 -0.02423 0.17370
v -0.04548 -0.01867 0.17321
v -0.03623 -0.00072 0.16877
v -0.03504 0.01909 0.16299
v -0.04664 0.03393 0.20656
v -0.05569 0.02977 0.20710
v -0.06270 0.01598 0.20968
v -0.06356 0.00063 0.21280
v -0.05777 -0.00728 0.21464
v -0.04872 -0.00312 0.21411
v -0.04171 0.01067 0.21152
v -0.04085 0.02602 0.20840
v -0.04932 0.03489 0.25229
v -0.05557 0.03202 0.25263
v -0.06040 0.02244 0.25410
v -0.06099 0.01176 0.25585
v -0.05698 0.00625 0.25685
v -0.05074 0.00912 0.25651
v -0.04590 0.01870 0.25503
v -0.04531 0.02938 0.25328
v 0.04358 0.07920 -0.24308
v -0.05315 0.02057 0.25457
f 1 10 9
f 2 11 10
f 3 12 11
f 5 12 4
f 5 14 13
f 7 14 6
f 8 15 7
f 1 16 8
f 9 18 17
f 10 19 18
f 12 19 11
f 13 20 12
f 13 22 21
f 14 23 22
f 16 23 15
f 9 24 16
f 17 26 25
f 19 26 18
f 20 27 19
f 21 28 20
f 21 30 29
f 22 31 30
f 23 32 31
f 24 25 32
f 26 33 25
f 27 34 26
f 28 35 27
f 29 36 28
f 29 38 37
f 30 39 38
f 31 40 39
f 32 33 40
f 34 41 33
f 35 42 34
f 36 43 35
f 37 44 36
f 37 46 45
f 38 47 46
f 39 48 47
f 40 41 48
f 42 49 41
f 43 50 42
f 43 52 51
f 44 53 52
f 45 54 53
f 46 55 54
f 47 56 55
f 48 49 56
f 50 57 49
f 50 59 58
f 51 60 59
f 52 61 60
f 54 61 53
f 55 62 54
f 56 63 55
f 56 57 64
f 58 65 57
f 59 66 58
f 59 68 67
f 60 69 68
f 62 69 61
f 63 70 62
f 64 71 63
f 64 65 72
f 66 73 65
f 67 74 66
f 67 76 75
f 68 77 76
f 70 77 69
f 71 78 70
f 71 80 79
f 72 73 80
f 74 81 73
f 75 82 74
f 75 84 83
f 76 85 84
f 78 85 77
f 79 86 78
f 79 88 87
f 80 81 88
f 82 89 81
f 83 90 82
f 83 92 91
f 84 93 92
f 86 93 85
f 87 94 86
f 87 96 95
f 88 89 96
f 90 97 89
f 91 98 90
f 91 100 99
f 92 101 100
f 94 101 93
f 95 102 94
f 95 104 103
f 96 97 104
f 105 2 1
f 105 3 2
f 105 4 3
f 105 5 4
f 105 6 5
f 105 7 6
f 105 8 7
f 105 1 8
f 97 98 106
f 98 99 106
f 99 100 106
f 100 101 106
f 101 102 106
f 102 103 106
f 103 104 106
f 104 97 106
f 1 2 10
f 2 3 11
f 3 4 12
f 5 13 12
f 5 6 14
f 7 15 14
f 8 16 15
f 1 9 16
f 9 10 18
f 10 11 19
f 12 20 19
f 13 21 20
f 13 14 22
f 14 15 23
f 16 24 23
f 9 17 24
f 17 18 26
f 19 27 26
f 20 28 27
f 21 29 28
f 21 22 30
f 22 23 31
f 23 24 32
f 24 17 25
f 26 34 33
f 27 35 34
f 28 36 35
f 29 37 36
f 29 30 38
f 30 31 39
f 31 32 40
f 32 25 33
f 34 42 41
f 35 43 42
f 36 44 43
f 37 45 44
f 37 38 46
f 38 39 47
f 39 40 48
f 40 33 41
f 42 50 49
f 43 51 50
f 43 44 52
f 44 45 53
f 45 46 54
f 46 47 55
f 47 48 56
f 48 41 49
f 50 58 57
f 50 51 59
f 51 52 60
f 52 53 61
f 54 62 61
f 55 63 62
f 56 64 63
f 56 49 57
f 58 66 65
f 59 67 66
f 59 60 68
f 60 61 69
f 62 70 69
f 63 71 70
f 64 72 71
f 64 57 65
f 66 74 73
f 67 75 74
f 67 68 76
f 68 69 77
f 70 78 77
f 71 79 78
f 71 72 80
f 72 65 73
f 74 82 81
f 75 83 82
f 75 76 84
f 76 77 85
f 78 86 85
f 79 87 86
f 79 80 88
f 80 73 81
f 82 90 89
f 83 91 90
f 83 84 92
f 84 85 93
f 86 94 93
f 87 95 94
f 87 88 96
f 88 81 89
f 90 98 97
f 91 99 98
f 91 92 100
f 92 93 101
f 94 102 101
f 95 103 102
f 95 96 104
f 96 89 97
