# kitsune Wisp5_WispCore.obj: Roblox cue frame, recentred on its bounding box
v 0.06212 0.03938 -0.19480
v 0.05954 0.03790 -0.19518
v 0.05957 0.03494 -0.19566
v 0.06217 0.03346 -0.19576
v 0.06476 0.03494 -0.19538
v 0.06473 0.03790 -0.19491
v 0.06026 0.03631 -0.15969
v 0.05551 0.03365 -0.16096
v 0.05561 0.02820 -0.16219
v 0.06045 0.02541 -0.16215
v 0.06520 0.02807 -0.16089
v 0.06510 0.03353 -0.15966
v 0.05227 0.02842 -0.12458
v 0.04590 0.02503 -0.12803
v 0.04639 0.01757 -0.13088
v 0.05325 0.01350 -0.13028
v 0.05962 0.01688 -0.12682
v 0.05913 0.02434 -0.12397
v 0.03741 0.01291 -0.08995
v 0.03015 0.00941 -0.09598
v 0.03141 0.00067 -0.10082
v 0.03992 -0.00457 -0.09963
v 0.04719 -0.00107 -0.09359
v 0.04593 0.00768 -0.08875
v 0.01693 -0.00992 -0.05676
v 0.00908 -0.01338 -0.06466
v 0.01088 -0.02315 -0.07077
v 0.02052 -0.02946 -0.06898
v 0.02836 -0.02600 -0.06108
v 0.02657 -0.01623 -0.05497
v -0.00530 -0.03196 -0.02597
v -0.01398 -0.03583 -0.03433
v -0.01282 -0.04714 -0.03988
v -0.00298 -0.05459 -0.03708
v 0.00571 -0.05072 -0.02872
v 0.00455 -0.03940 -0.02317
v -0.02406 -0.04201 0.00101
v -0.03434 -0.04659 -0.00550
v -0.03585 -0.05940 -0.00708
v -0.02709 -0.06764 -0.00215
v -0.01681 -0.06306 0.00436
v -0.01529 -0.05025 0.00594
v -0.03755 -0.03536 0.02587
v -0.04930 -0.03915 0.02307
v -0.05361 -0.05021 0.02747
v -0.04615 -0.05750 0.03465
v -0.03440 -0.05371 0.03745
v -0.03010 -0.04265 0.03306
v -0.04677 -0.01193 0.05458
v -0.05823 -0.01402 0.05414
v -0.06292 -0.02226 0.06093
v -0.05615 -0.02840 0.06817
v -0.04469 -0.02630 0.06862
v -0.04000 -0.01806 0.06182
v -0.05112 0.01989 0.08700
v -0.06113 0.01884 0.08747
v -0.06520 0.01205 0.09369
v -0.05926 0.00630 0.09945
v -0.04926 0.00735 0.09899
v -0.04518 0.01414 0.09276
v -0.05156 0.04718 0.12194
v -0.05951 0.04671 0.12265
v -0.06281 0.04074 0.12685
v -0.05815 0.03525 0.13033
v -0.05019 0.03572 0.12961
v -0.04690 0.04168 0.12542
v -0.04939 0.06294 0.15827
v -0.05494 0.06281 0.15894
v -0.05741 0.05816 0.16082
v -0.05434 0.05366 0.16204
v -0.04880 0.05379 0.16137
v -0.04632 0.05843 0.15949
v -0.04576 0.06764 0.19439
v -0.04873 0.06760 0.19480
v -0.05012 0.06502 0.19548
v -0.04853 0.06249 0.19576
v -0.04556 0.06254 0.19535
v -0.04417 0.06511 0.19466
v 0.06215 0.03642 -0.19528
v -0.04714 0.06507 0.19507
f 1 8 7
f 2 9 8
f 4 9 3
f 5 10 4
f 6 11 5
f 6 7 12
f 7 14 13
f 8 15 14
f 9 16 15
f 11 16 10
f 12 17 11
f 7 18 12
f 14 19 13
f 15 20 14
f 15 22 21
f 16 23 22
f 17 24 23
f 13 24 18
f 20 25 19
f 21 26 20
f 22 27 21
f 22 29 28
f 23 30 29
f 24 25 30
f 26 31 25
f 27 32 26
f 28 33 27
f 28 35 34
f 29 36 35
f 30 31 36
f 32 37 31
f 33 38 32
f 34 39 33
f 34 41 40
f 35 42 41
f 36 37 42
f 38 43 37
f 38 45 44
f 39 46 45
f 41 46 40
f 42 47 41
f 37 48 42
f 43 50 49
f 44 51 50
f 45 52 51
f 47 52 46
f 48 53 47
f 43 54 48
f 49 56 55
f 50 57 56
f 51 58 57
f 53 58 52
f 54 59 53
f 49 60 54
f 55 62 61
f 56 63 62
f 57 64 63
f 59 64 58
f 60 65 59
f 55 66 60
f 61 68 67
f 62 69 68
f 63 70 69
f 65 70 64
f 65 72 71
f 66 67 72
f 67 74 73
f 69 74 68
f 70 75 69
f 71 76 70
f 71 78 77
f 72 73 78
f 79 2 1
f 79 3 2
f 79 4 3
f 79 5 4
f 79 6 5
f 79 1 6
f 73 74 80
f 74 75 80
f 75 76 80
f 76 77 80
f 77 78 80
f 78 73 80
f 1 2 8
f 2 3 9
f 4 10 9
f 5 11 10
f 6 12 11
f 6 1 7
f 7 8 14
f 8 9 15
f 9 10 16
f 11 17 16
f 12 18 17
f 7 13 18
f 14 20 19
f 15 21 20
f 15 16 22
f 16 17 23
f 17 18 24
f 13 19 24
f 20 26 25
f 21 27 26
f 22 28 27
f 22 23 29
f 23 24 30
f 24 19 25
f 26 32 31
f 27 33 32
f 28 34 33
f 28 29 35
f 29 30 36
f 30 25 31
f 32 38 37
f 33 39 38
f 34 40 39
f 34 35 41
f 35 36 42
f 36 31 37
f 38 44 43
f 38 39 45
f 39 40 46
f 41 47 46
f 42 48 47
f 37 43 48
f 43 44 50
f 44 45 51
f 45 46 52
f 47 53 52
f 48 54 53
f 43 49 54
f 49 50 56
f 50 51 57
f 51 52 58
f 53 59 58
f 54 60 59
f 49 55 60
f 55 56 62
f 56 57 63
f 57 58 64
f 59 65 64
f 60 66 65
f 55 61 66
f 61 62 68
f 62 63 69
f 63 64 70
f 65 71 70
f 65 66 72
f 66 61 67
f 67 68 74
f 69 75 74
f 70 76 75
f 71 77 76
f 71 72 78
f 72 67 73
