# kitsune Wisp12_Wisp.obj: Roblox cue frame, recentred on its bounding box
v 0.03064 -0.01966 0.31954
v 0.04492 -0.03147 0.31726
v 0.05068 -0.05997 0.31316
v 0.04455 -0.08848 0.30966
v 0.03010 -0.10029 0.30880
v 0.01582 -0.08848 0.31109
v 0.01006 -0.05997 0.31518
v 0.01620 -0.03147 0.31869
v 0.02847 -0.00594 0.27219
v 0.04522 -0.01961 0.26750
v 0.05175 -0.05281 0.25935
v 0.04421 -0.08609 0.25250
v 0.02704 -0.09995 0.25098
v 0.01028 -0.08628 0.25566
v 0.00376 -0.05308 0.26382
v 0.01129 -0.01980 0.27066
v 0.02268 0.01306 0.22918
v 0.04058 -0.00094 0.22025
v 0.04669 -0.03553 0.20473
v 0.03743 -0.07045 0.19170
v 0.01822 -0.08525 0.18881
v 0.00032 -0.07125 0.19774
v -0.00580 -0.03665 0.21326
v 0.00347 -0.00173 0.22629
v 0.01319 0.04000 0.18285
v 0.03148 0.02637 0.17126
v 0.03702 -0.00793 0.15097
v 0.02656 -0.04282 0.13386
v 0.00622 -0.05786 0.12996
v -0.01207 -0.04423 0.14155
v -0.01760 -0.00993 0.16185
v -0.00714 0.02496 0.17895
v 0.00054 0.07231 0.12897
v 0.01897 0.05849 0.11757
v 0.02475 0.02353 0.09812
v 0.01449 -0.01209 0.08200
v -0.00580 -0.02751 0.07866
v -0.02424 -0.01370 0.09006
v -0.03001 0.02127 0.10952
v -0.01975 0.05689 0.12564
v -0.01359 0.09807 0.06480
v 0.00496 0.08333 0.05721
v 0.01214 0.04650 0.04612
v 0.00374 0.00915 0.03803
v -0.01532 -0.00684 0.03767
v -0.03387 0.00790 0.04525
v -0.04105 0.04473 0.05634
v -0.03265 0.08208 0.06443
v -0.02549 0.10029 -0.00680
v -0.00724 0.08589 -0.00768
v 0.00135 0.05044 -0.00486
v -0.00477 0.01469 0.00002
v -0.02199 -0.00040 0.00409
v -0.04024 0.01400 0.00497
v -0.04883 0.04945 0.00214
v -0.04272 0.08519 -0.00273
v -0.03118 0.07592 -0.07163
v -0.01436 0.06402 -0.06746
v -0.00606 0.03438 -0.05537
v -0.01113 0.00436 -0.04245
v -0.02662 -0.00844 -0.03626
v -0.04344 0.00346 -0.04043
v -0.05175 0.03310 -0.05252
v -0.04667 0.06311 -0.06544
v -0.03090 0.04080 -0.12536
v -0.01625 0.03132 -0.11966
v -0.00909 0.00676 -0.10627
v -0.01363 -0.01850 -0.09303
v -0.02720 -0.02966 -0.08771
v -0.04185 -0.02019 -0.09341
v -0.04901 0.00438 -0.10680
v -0.04447 0.02964 -0.12003
v -0.02598 0.00833 -0.17315
v -0.01365 0.00056 -0.16800
v -0.00748 -0.02056 -0.15765
v -0.01109 -0.04265 -0.14816
v -0.02236 -0.05277 -0.14509
v -0.03469 -0.04500 -0.15024
v -0.04085 -0.02388 -0.16059
v -0.03725 -0.00179 -0.17008
v -0.01721 -0.01600 -0.21986
v -0.00716 -0.02234 -0.21598
v -0.00175 -0.04014 -0.20960
v -0.00415 -0.05897 -0.20445
v -0.01296 -0.06780 -0.20356
v -0.02301 -0.06146 -0.20744
v -0.02842 -0.04366 -0.21382
v -0.02602 -0.02483 -0.21897
v -0.00554 -0.03308 -0.26833
v 0.00231 -0.03804 -0.26567
v 0.00685 -0.05212 -0.26222
v 0.00540 -0.06708 -0.25998
v -0.00117 -0.07414 -0.26027
v -0.00903 -0.06919 -0.26292
v -0.01356 -0.05510 -0.26638
v -0.01211 -0.04015 -0.26862
v 0.00729 -0.04523 -0.31907
v 0.01292 -0.04879 -0.31732
v 0.01626 -0.05889 -0.31531
v 0.01535 -0.06963 -0.31422
v 0.01073 -0.07471 -0.31470
v 0.00510 -0.07116 -0.31645
v 0.00176 -0.06105 -0.31846
v 0.00267 -0.05031 -0.31954
v 0.03037 -0.05997 0.31417
v 0.00901 -0.05997 -0.31688
f 1 10 9
f 3 10 2
f 4 11 3
f 5 12 4
f 5 14 13
f 6 15 14
f 7 16 15
f 1 16 8
f 9 18 17
f 10 19 18
f 12 19 11
f 13 20 12
f 13 22 21
f 14 23 22
f 16 23 15
f 9 24 16
f 17 26 25
f 18 27 26
f 19 28 27
f 21 28 20
f 22 29 21
f 23 30 22
f 24 31 23
f 17 32 24
f 25 34 33
f 26 35 34
f 27 36 35
f 28 37 36
f 30 37 29
f 31 38 30
f 32 39 31
f 25 40 32
f 33 42 41
f 34 43 42
f 35 44 43
f 36 45 44
f 38 45 37
f 39 46 38
f 40 47 39
f 33 48 40
f 42 49 41
f 43 50 42
f 43 52 51
f 44 53 52
f 46 53 45
f 47 54 46
f 47 56 55
f 48 49 56
f 50 57 49
f 51 58 50
f 52 59 51
f 53 60 52
f 54 61 53
f 54 63 62
f 55 64 63
f 56 57 64
f 58 65 57
f 59 66 58
f 60 67 59
f 60 69 68
f 62 69 61
f 62 71 70
f 63 72 71
f 64 65 72
f 66 73 65
f 67 74 66
f 68 75 67
f 68 77 76
f 70 77 69
f 70 79 78
f 71 80 79
f 72 73 80
f 74 81 73
f 75 82 74
f 75 84 83
f 76 85 84
f 78 85 77
f 79 86 78
f 79 88 87
f 80 81 88
f 82 89 81
f 83 90 82
f 83 92 91
f 84 93 92
f 86 93 85
f 87 94 86
f 87 96 95
f 88 89 96
f 90 97 89
f 91 98 90
f 91 100 99
f 92 101 100
f 94 101 93
f 95 102 94
f 95 104 103
f 96 97 104
f 105 2 1
f 105 3 2
f 105 4 3
f 105 5 4
f 105 6 5
f 105 7 6
f 105 8 7
f 105 1 8
f 97 98 106
f 98 99 106
f 99 100 106
f 100 101 106
f 101 102 106
f 102 103 106
f 103 104 106
f 104 97 106
f 1 2 10
f 3 11 10
f 4 12 11
f 5 13 12
f 5 6 14
f 6 7 15
f 7 8 16
f 1 9 16
f 9 10 18
f 10 11 19
f 12 20 19
f 13 21 20
f 13 14 22
f 14 15 23
f 16 24 23
f 9 17 24
f 17 18 26
f 18 19 27
f 19 20 28
f 21 29 28
f 22 30 29
f 23 31 30
f 24 32 31
f 17 25 32
f 25 26 34
f 26 27 35
f 27 28 36
f 28 29 37
f 30 38 37
f 31 39 38
f 32 40 39
f 25 33 40
f 33 34 42
f 34 35 43
f 35 36 44
f 36 37 45
f 38 46 45
f 39 47 46
f 40 48 47
f 33 41 48
f 42 50 49
f 43 51 50
f 43 44 52
f 44 45 53
f 46 54 53
f 47 55 54
f 47 48 56
f 48 41 49
f 50 58 57
f 51 59 58
f 52 60 59
f 53 61 60
f 54 62 61
f 54 55 63
f 55 56 64
f 56 49 57
f 58 66 65
f 59 67 66
f 60 68 67
f 60 61 69
f 62 70 69
f 62 63 71
f 63 64 72
f 64 57 65
f 66 74 73
f 67 75 74
f 68 76 75
f 68 69 77
f 70 78 77
f 70 71 79
f 71 72 80
f 72 65 73
f 74 82 81
f 75 83 82
f 75 76 84
f 76 77 85
f 78 86 85
f 79 87 86
f 79 80 88
f 80 73 81
f 82 90 89
f 83 91 90
f 83 84 92
f 84 85 93
f 86 94 93
f 87 95 94
f 87 88 96
f 88 81 89
f 90 98 97
f 91 99 98
f 91 92 100
f 92 93 101
f 94 102 101
f 95 103 102
f 95 96 104
f 96 89 97
