# kitsune Wisp2_WispCore.obj: Roblox cue frame, recentred on its bounding box
v 0.00254 -0.02639 -0.25968
v -0.00008 -0.02778 -0.25923
v -0.00013 -0.03056 -0.25810
v 0.00244 -0.03195 -0.25742
v 0.00506 -0.03056 -0.25787
v 0.00511 -0.02778 -0.25900
v 0.00074 -0.00684 -0.21836
v -0.00411 -0.00959 -0.21791
v -0.00421 -0.01472 -0.21571
v 0.00053 -0.01712 -0.21396
v 0.00537 -0.01437 -0.21442
v 0.00548 -0.00923 -0.21662
v -0.01039 0.01528 -0.17565
v -0.01716 0.01102 -0.17579
v -0.01721 0.00351 -0.17304
v -0.01049 0.00025 -0.17016
v -0.00372 0.00451 -0.17003
v -0.00367 0.01203 -0.17277
v -0.02153 0.02993 -0.13056
v -0.02995 0.02446 -0.13131
v -0.02965 0.01451 -0.12983
v -0.02091 0.01001 -0.12760
v -0.01249 0.01548 -0.12685
v -0.01279 0.02544 -0.12833
v -0.02697 0.03195 -0.08396
v -0.03677 0.02574 -0.08514
v -0.03623 0.01414 -0.08614
v -0.02589 0.00874 -0.08596
v -0.01609 0.01496 -0.08479
v -0.01663 0.02656 -0.08379
v -0.02741 0.02450 -0.03827
v -0.03806 0.01780 -0.03962
v -0.03747 0.00540 -0.04207
v -0.02622 -0.00031 -0.04317
v -0.01557 0.00639 -0.04181
v -0.01616 0.01880 -0.03936
v -0.02727 0.01568 0.00553
v -0.03821 0.00878 0.00424
v -0.03762 -0.00405 0.00226
v -0.02607 -0.00999 0.00157
v -0.01513 -0.00309 0.00285
v -0.01573 0.00974 0.00483
v -0.02908 0.01102 0.04826
v -0.03976 0.00425 0.04754
v -0.03922 -0.00838 0.04695
v -0.02800 -0.01425 0.04707
v -0.01733 -0.00749 0.04778
v -0.01786 0.00515 0.04838
v -0.03038 0.01021 0.09134
v -0.04020 0.00394 0.09180
v -0.03968 -0.00771 0.09181
v -0.02934 -0.01309 0.09135
v -0.01952 -0.00681 0.09089
v -0.02004 0.00484 0.09088
v -0.02494 0.00867 0.13480
v -0.03325 0.00327 0.13662
v -0.03293 -0.00678 0.13609
v -0.02431 -0.01143 0.13374
v -0.01600 -0.00603 0.13193
v -0.01632 0.00402 0.13246
v -0.00881 0.00267 0.17723
v -0.01506 -0.00166 0.17970
v -0.01506 -0.00960 0.17876
v -0.00880 -0.01322 0.17534
v -0.00254 -0.00889 0.17286
v -0.00255 -0.00095 0.17380
v 0.01507 -0.00570 0.21796
v 0.01092 -0.00877 0.22010
v 0.01104 -0.01433 0.21965
v 0.01531 -0.01683 0.21705
v 0.01946 -0.01377 0.21490
v 0.01934 -0.00820 0.21536
v 0.03769 -0.00800 0.25845
v 0.03550 -0.00965 0.25968
v 0.03566 -0.01264 0.25961
v 0.03801 -0.01399 0.25831
v 0.04020 -0.01234 0.25709
v 0.04004 -0.00935 0.25716
v 0.00249 -0.02917 -0.25855
v 0.03785 -0.01099 0.25838
f 1 8 7
f 3 8 2
f 4 9 3
f 5 10 4
f 5 12 11
f 6 7 12
f 8 13 7
f 8 15 14
f 9 16 15
f 10 17 16
f 12 17 11
f 7 18 12
f 14 19 13
f 14 21 20
f 15 22 21
f 16 23 22
f 18 23 17
f 13 24 18
f 20 25 19
f 21 26 20
f 22 27 21
f 22 29 28
f 23 30 29
f 24 25 30
f 26 31 25
f 27 32 26
f 28 33 27
f 28 35 34
f 29 36 35
f 30 31 36
f 32 37 31
f 33 38 32
f 34 39 33
f 34 41 40
f 35 42 41
f 36 37 42
f 38 43 37
f 38 45 44
f 39 46 45
f 40 47 46
f 42 47 41
f 37 48 42
f 44 49 43
f 44 51 50
f 45 52 51
f 46 53 52
f 48 53 47
f 43 54 48
f 50 55 49
f 50 57 56
f 51 58 57
f 52 59 58
f 54 59 53
f 49 60 54
f 55 62 61
f 57 62 56
f 58 63 57
f 59 64 58
f 59 66 65
f 60 61 66
f 61 68 67
f 63 68 62
f 64 69 63
f 65 70 64
f 65 72 71
f 66 67 72
f 67 74 73
f 68 75 74
f 69 76 75
f 71 76 70
f 72 77 71
f 67 78 72
f 79 2 1
f 79 3 2
f 79 4 3
f 79 5 4
f 79 6 5
f 79 1 6
f 73 74 80
f 74 75 80
f 75 76 80
f 76 77 80
f 77 78 80
f 78 73 80
f 1 2 8
f 3 9 8
f 4 10 9
f 5 11 10
f 5 6 12
f 6 1 7
f 8 14 13
f 8 9 15
f 9 10 16
f 10 11 17
f 12 18 17
f 7 13 18
f 14 20 19
f 14 15 21
f 15 16 22
f 16 17 23
f 18 24 23
f 13 19 24
f 20 26 25
f 21 27 26
f 22 28 27
f 22 23 29
f 23 24 30
f 24 19 25
f 26 32 31
f 27 33 32
f 28 34 33
f 28 29 35
f 29 30 36
f 30 25 31
f 32 38 37
f 33 39 38
f 34 40 39
f 34 35 41
f 35 36 42
f 36 31 37
f 38 44 43
f 38 39 45
f 39 40 46
f 40 41 47
f 42 48 47
f 37 43 48
f 44 50 49
f 44 45 51
f 45 46 52
f 46 47 53
f 48 54 53
f 43 49 54
f 50 56 55
f 50 51 57
f 51 52 58
f 52 53 59
f 54 60 59
f 49 55 60
f 55 56 62
f 57 63 62
f 58 64 63
f 59 65 64
f 59 60 66
f 60 55 61
f 61 62 68
f 63 69 68
f 64 70 69
f 65 71 70
f 65 66 72
f 66 61 67
f 67 68 74
f 68 69 75
f 69 70 76
f 71 77 76
f 72 78 77
f 67 73 78
