# kitsune Wisp5_Wisp.obj: Roblox cue frame, recentred on its bounding box
v 0.05731 0.09544 -0.18594
v 0.04122 0.08218 -0.18892
v 0.03478 0.05015 -0.19444
v 0.04176 0.01812 -0.19925
v 0.05807 0.00485 -0.20054
v 0.07416 0.01812 -0.19756
v 0.08060 0.05015 -0.19204
v 0.07362 0.08218 -0.18723
v 0.05498 0.09817 -0.14680
v 0.03600 0.08274 -0.15294
v 0.02868 0.04496 -0.16256
v 0.03730 0.00697 -0.17003
v 0.05681 -0.00898 -0.17096
v 0.07579 0.00645 -0.16482
v 0.08311 0.04423 -0.15520
v 0.07449 0.08222 -0.14773
v 0.04460 0.09150 -0.10367
v 0.02511 0.07593 -0.11635
v 0.01921 0.03620 -0.13431
v 0.03035 -0.00441 -0.14705
v 0.05201 -0.02213 -0.14710
v 0.07149 -0.00656 -0.13443
v 0.07739 0.03317 -0.11646
v 0.06625 0.07379 -0.10372
v 0.02622 0.07345 -0.06199
v 0.00809 0.05943 -0.08037
v 0.00526 0.02108 -0.10601
v 0.01939 -0.01912 -0.12387
v 0.04220 -0.03764 -0.12351
v 0.06032 -0.02362 -0.10512
v 0.06315 0.01472 -0.07949
v 0.04903 0.05493 -0.06162
v 0.00437 0.04790 -0.02713
v -0.01242 0.03533 -0.04791
v -0.01357 -0.00142 -0.07626
v 0.00157 -0.04083 -0.09557
v 0.02415 -0.05982 -0.09453
v 0.04094 -0.04726 -0.07375
v 0.04210 -0.01050 -0.04540
v 0.02695 0.02891 -0.02609
v -0.01429 0.02600 -0.00221
v -0.03119 0.01332 -0.02138
v -0.03486 -0.02447 -0.04530
v -0.02314 -0.06523 -0.05995
v -0.00290 -0.08509 -0.05676
v 0.01400 -0.07240 -0.03759
v 0.01767 -0.03461 -0.01367
v 0.00594 0.00615 0.00098
v -0.02328 0.01598 0.00851
v -0.04258 0.00260 -0.00396
v -0.05452 -0.03638 -0.01324
v -0.05212 -0.07812 -0.01391
v -0.03678 -0.09817 -0.00557
v -0.01749 -0.08479 0.00689
v -0.00554 -0.04580 0.01618
v -0.00794 -0.00406 0.01684
v -0.02862 0.01279 0.01424
v -0.04992 0.00241 0.01115
v -0.06910 -0.02854 0.02045
v -0.07494 -0.06193 0.03669
v -0.06400 -0.07819 0.05036
v -0.04270 -0.06781 0.05345
v -0.02352 -0.03686 0.04415
v -0.01769 -0.00347 0.02791
v -0.03781 0.02540 0.03717
v -0.05750 0.01926 0.03880
v -0.07626 -0.00192 0.05485
v -0.08311 -0.02575 0.07592
v -0.07403 -0.03826 0.08967
v -0.05434 -0.03212 0.08804
v -0.03558 -0.01094 0.07199
v -0.02873 0.01289 0.05092
v -0.04451 0.05208 0.07212
v -0.06105 0.04826 0.07488
v -0.07676 0.03188 0.08958
v -0.08246 0.01254 0.10762
v -0.07479 0.00157 0.11841
v -0.05825 0.00539 0.11565
v -0.04254 0.02177 0.10095
v -0.03684 0.04111 0.08292
v -0.04707 0.07710 0.11260
v -0.06022 0.07442 0.11506
v -0.07284 0.06033 0.12521
v -0.07754 0.04309 0.13709
v -0.07156 0.03279 0.14375
v -0.05841 0.03547 0.14129
v -0.04579 0.04956 0.13114
v -0.04109 0.06680 0.11926
v -0.04646 0.09052 0.15469
v -0.05636 0.08866 0.15644
v -0.06624 0.07706 0.16156
v -0.07031 0.06251 0.16705
v -0.06619 0.05354 0.16970
v -0.05630 0.05540 0.16795
v -0.04642 0.06700 0.16283
v -0.04234 0.08155 0.15734
v -0.04469 0.09166 0.19369
v -0.05137 0.09043 0.19483
v -0.05819 0.08239 0.19731
v -0.06115 0.07224 0.19968
v -0.05852 0.06594 0.20054
v -0.05184 0.06716 0.19940
v -0.04502 0.07521 0.19692
v -0.04206 0.08535 0.19455
v 0.05769 0.05015 -0.19324
v -0.05160 0.07880 0.19711
f 1 10 9
f 2 11 10
f 4 11 3
f 5 12 4
f 5 14 13
f 6 15 14
f 8 15 7
f 1 16 8
f 9 18 17
f 10 19 18
f 12 19 11
f 13 20 12
f 13 22 21
f 14 23 22
f 16 23 15
f 9 24 16
f 17 26 25
f 18 27 26
f 20 27 19
f 21 28 20
f 21 30 29
f 22 31 30
f 24 31 23
f 17 32 24
f 26 33 25
f 27 34 26
f 28 35 27
f 29 36 28
f 29 38 37
f 30 39 38
f 31 40 39
f 32 33 40
f 34 41 33
f 35 42 34
f 36 43 35
f 37 44 36
f 37 46 45
f 38 47 46
f 39 48 47
f 40 41 48
f 42 49 41
f 43 50 42
f 44 51 43
f 44 53 52
f 45 54 53
f 46 55 54
f 47 56 55
f 48 49 56
f 50 57 49
f 51 58 50
f 51 60 59
f 52 61 60
f 54 61 53
f 55 62 54
f 55 64 63
f 56 57 64
f 58 65 57
f 58 67 66
f 59 68 67
f 60 69 68
f 62 69 61
f 63 70 62
f 64 71 63
f 64 65 72
f 66 73 65
f 66 75 74
f 67 76 75
f 68 77 76
f 70 77 69
f 71 78 70
f 72 79 71
f 72 73 80
f 74 81 73
f 75 82 74
f 75 84 83
f 76 85 84
f 78 85 77
f 79 86 78
f 79 88 87
f 80 81 88
f 82 89 81
f 83 90 82
f 83 92 91
f 84 93 92
f 86 93 85
f 87 94 86
f 87 96 95
f 88 89 96
f 90 97 89
f 91 98 90
f 92 99 91
f 92 101 100
f 94 101 93
f 95 102 94
f 95 104 103
f 96 97 104
f 105 2 1
f 105 3 2
f 105 4 3
f 105 5 4
f 105 6 5
f 105 7 6
f 105 8 7
f 105 1 8
f 97 98 106
f 98 99 106
f 99 100 106
f 100 101 106
f 101 102 106
f 102 103 106
f 103 104 106
f 104 97 106
f 1 2 10
f 2 3 11
f 4 12 11
f 5 13 12
f 5 6 14
f 6 7 15
f 8 16 15
f 1 9 16
f 9 10 18
f 10 11 19
f 12 20 19
f 13 21 20
f 13 14 22
f 14 15 23
f 16 24 23
f 9 17 24
f 17 18 26
f 18 19 27
f 20 28 27
f 21 29 28
f 21 22 30
f 22 23 31
f 24 32 31
f 17 25 32
f 26 34 33
f 27 35 34
f 28 36 35
f 29 37 36
f 29 30 38
f 30 31 39
f 31 32 40
f 32 25 33
f 34 42 41
f 35 43 42
f 36 44 43
f 37 45 44
f 37 38 46
f 38 39 47
f 39 40 48
f 40 33 41
f 42 50 49
f 43 51 50
f 44 52 51
f 44 45 53
f 45 46 54
f 46 47 55
f 47 48 56
f 48 41 49
f 50 58 57
f 51 59 58
f 51 52 60
f 52 53 61
f 54 62 61
f 55 63 62
f 55 56 64
f 56 49 57
f 58 66 65
f 58 59 67
f 59 60 68
f 60 61 69
f 62 70 69
f 63 71 70
f 64 72 71
f 64 57 65
f 66 74 73
f 66 67 75
f 67 68 76
f 68 69 77
f 70 78 77
f 71 79 78
f 72 80 79
f 72 65 73
f 74 82 81
f 75 83 82
f 75 76 84
f 76 77 85
f 78 86 85
f 79 87 86
f 79 80 88
f 80 73 81
f 82 90 89
f 83 91 90
f 83 84 92
f 84 85 93
f 86 94 93
f 87 95 94
f 87 88 96
f 88 81 89
f 90 98 97
f 91 99 98
f 92 100 99
f 92 93 101
f 94 102 101
f 95 103 102
f 95 96 104
f 96 89 97
