# kitsune Wisp6_WispCore.obj: Roblox cue frame, recentred on its bounding box
v 0.04912 0.08054 -0.24761
v 0.04667 0.07912 -0.24860
v 0.04686 0.07628 -0.24954
v 0.04950 0.07486 -0.24951
v 0.05195 0.07628 -0.24853
v 0.05176 0.07912 -0.24758
v 0.04076 0.06867 -0.20564
v 0.03622 0.06612 -0.20768
v 0.03669 0.06110 -0.21009
v 0.04169 0.05863 -0.21046
v 0.04622 0.06118 -0.20843
v 0.04576 0.06620 -0.20602
v 0.03493 0.04426 -0.16350
v 0.02845 0.04087 -0.16675
v 0.02926 0.03454 -0.17157
v 0.03653 0.03160 -0.17314
v 0.04300 0.03499 -0.16989
v 0.04220 0.04132 -0.16506
v 0.03251 0.00991 -0.12227
v 0.02436 0.00575 -0.12648
v 0.02540 -0.00165 -0.13324
v 0.03460 -0.00489 -0.13578
v 0.04274 -0.00073 -0.13157
v 0.04170 0.00667 -0.12482
v 0.03089 -0.02521 -0.08259
v 0.02144 -0.03010 -0.08737
v 0.02259 -0.03921 -0.09454
v 0.03319 -0.04344 -0.09694
v 0.04264 -0.03855 -0.09217
v 0.04149 -0.02944 -0.08499
v 0.02577 -0.04880 -0.04537
v 0.01532 -0.05418 -0.05007
v 0.01583 -0.06590 -0.05483
v 0.02679 -0.07224 -0.05489
v 0.03724 -0.06686 -0.05018
v 0.03673 -0.05514 -0.04542
v 0.01472 -0.05472 -0.00983
v 0.00354 -0.05996 -0.01392
v 0.00200 -0.07286 -0.01385
v 0.01163 -0.08054 -0.00969
v 0.02280 -0.07531 -0.00560
v 0.02435 -0.06240 -0.00567
v -0.00260 -0.04443 0.02830
v -0.01387 -0.04921 0.02510
v -0.01687 -0.06107 0.02835
v -0.00860 -0.06815 0.03481
v 0.00267 -0.06336 0.03802
v 0.00567 -0.05150 0.03477
v -0.02130 -0.02466 0.06993
v -0.03204 -0.02870 0.06786
v -0.03517 -0.03921 0.07183
v -0.02756 -0.04567 0.07786
v -0.01682 -0.04163 0.07992
v -0.01369 -0.03112 0.07596
v -0.03517 -0.00522 0.11393
v -0.04472 -0.00830 0.11303
v -0.04737 -0.01747 0.11623
v -0.04048 -0.02356 0.12033
v -0.03093 -0.02049 0.12122
v -0.02828 -0.01131 0.11802
v -0.04220 0.00843 0.15897
v -0.04989 0.00624 0.15887
v -0.05195 -0.00122 0.16089
v -0.04632 -0.00649 0.16301
v -0.03863 -0.00431 0.16312
v -0.03657 0.00316 0.16110
v -0.04504 0.01713 0.20408
v -0.05043 0.01566 0.20419
v -0.05186 0.01036 0.20523
v -0.04790 0.00652 0.20616
v -0.04251 0.00799 0.20605
v -0.04108 0.01329 0.20501
v -0.04665 0.02194 0.24863
v -0.04954 0.02115 0.24870
v -0.05031 0.01829 0.24916
v -0.04818 0.01621 0.24954
v -0.04529 0.01699 0.24948
v -0.04452 0.01986 0.24902
v 0.04931 0.07770 -0.24856
v -0.04742 0.01907 0.24909
f 1 8 7
f 2 9 8
f 3 10 9
f 5 10 4
f 6 11 5
f 1 12 6
f 8 13 7
f 9 14 8
f 10 15 9
f 10 17 16
f 11 18 17
f 12 13 18
f 14 19 13
f 15 20 14
f 16 21 15
f 16 23 22
f 17 24 23
f 18 19 24
f 20 25 19
f 21 26 20
f 22 27 21
f 22 29 28
f 23 30 29
f 24 25 30
f 26 31 25
f 27 32 26
f 28 33 27
f 28 35 34
f 29 36 35
f 30 31 36
f 31 38 37
f 32 39 38
f 33 40 39
f 34 41 40
f 35 42 41
f 36 37 42
f 38 43 37
f 38 45 44
f 39 46 45
f 40 47 46
f 42 47 41
f 37 48 42
f 44 49 43
f 44 51 50
f 45 52 51
f 46 53 52
f 48 53 47
f 43 54 48
f 49 56 55
f 50 57 56
f 51 58 57
f 52 59 58
f 54 59 53
f 49 60 54
f 55 62 61
f 56 63 62
f 58 63 57
f 59 64 58
f 59 66 65
f 60 61 66
f 61 68 67
f 62 69 68
f 64 69 63
f 65 70 64
f 65 72 71
f 66 67 72
f 67 74 73
f 69 74 68
f 70 75 69
f 71 76 70
f 71 78 77
f 72 73 78
f 79 2 1
f 79 3 2
f 79 4 3
f 79 5 4
f 79 6 5
f 79 1 6
f 73 74 80
f 74 75 80
f 75 76 80
f 76 77 80
f 77 78 80
f 78 73 80
f 1 2 8
f 2 3 9
f 3 4 10
f 5 11 10
f 6 12 11
f 1 7 12
f 8 14 13
f 9 15 14
f 10 16 15
f 10 11 17
f 11 12 18
f 12 7 13
f 14 20 19
f 15 21 20
f 16 22 21
f 16 17 23
f 17 18 24
f 18 13 19
f 20 26 25
f 21 27 26
f 22 28 27
f 22 23 29
f 23 24 30
f 24 19 25
f 26 32 31
f 27 33 32
f 28 34 33
f 28 29 35
f 29 30 36
f 30 25 31
f 31 32 38
f 32 33 39
f 33 34 40
f 34 35 41
f 35 36 42
f 36 31 37
f 38 44 43
f 38 39 45
f 39 40 46
f 40 41 47
f 42 48 47
f 37 43 48
f 44 50 49
f 44 45 51
f 45 46 52
f 46 47 53
f 48 54 53
f 43 49 54
f 49 50 56
f 50 51 57
f 51 52 58
f 52 53 59
f 54 60 59
f 49 55 60
f 55 56 62
f 56 57 63
f 58 64 63
f 59 65 64
f 59 60 66
f 60 55 61
f 61 62 68
f 62 63 69
f 64 70 69
f 65 71 70
f 65 66 72
f 66 61 67
f 67 68 74
f 69 75 74
f 70 76 75
f 71 77 76
f 71 72 78
f 72 67 73
